<svg xmlns="http://www.w3.org/2000/svg" viewBox="0 0 24 24" fill="none"><path d="M18 3H15C14.4477 3 14 3.44772 14 4V20C14 20.5523 14.4477 21 15 21H18C18.5523 21 19 20.5523 19 20V4C19 3.44772 18.5523 3 18 3Z" fill="currentColor"/><path d="M9 3H6C5.44772 3 5 3.44772 5 4V20C5 20.5523 5.44772 21 6 21H9C9.55228 21 10 20.5523 10 20V4C10 3.44772 9.55228 3 9 3Z" fill="currentColor"/><path d="M18 3H15C14.4477 3 14 3.44772 14 4V20C14 20.5523 14.4477 21 15 21H18C18.5523 21 19 20.5523 19 20V4C19 3.44772 18.5523 3 18 3Z" stroke="currentColor" stroke-linecap="round" stroke-linejoin="round" fill="none"/><path d="M9 3H6C5.44772 3 5 3.44772 5 4V20C5 20.5523 5.44772 21 6 21H9C9.55228 21 10 20.5523 10 20V4C10 3.44772 9.55228 3 9 3Z" stroke="currentColor" stroke-linecap="round" stroke-linejoin="round" fill="none"/></svg>
