<svg xmlns="http://www.w3.org/2000/svg" version="1.1" x="0px" y="0px" viewBox="0 0 40 40" style="enable-background:new 0 0 40 40;">
  <path d="M38.35,25.49h-6.76H8.42h-3v-7.55c0-1.45,0.71-2.81,1.89-3.65l2.77-1.95c0.16,0.05,0.33,0.09,0.5,0.09   c0.92,0,1.67-0.75,1.67-1.67c0-0.92-0.75-1.67-1.67-1.67c-0.91,0-1.64,0.73-1.67,1.63l-2.76,1.94c-1.72,1.21-2.74,3.18-2.74,5.29   v7.55H1.65C0.74,25.49,0,26.23,0,27.14c0,0.91,0.74,1.65,1.65,1.65h2.89v7.94c0,1.07,0.87,1.94,1.94,1.94h27.05   c1.07,0,1.94-0.87,1.94-1.94v-7.94h2.89c0.91,0,1.65-0.74,1.65-1.65C40,26.23,39.26,25.49,38.35,25.49z"/>
  <path d="M10.81,16.3c-0.39,0.37-0.73,0.82-1.03,1.34c-0.3,0.52-0.54,1.06-0.71,1.61c-0.18,0.55-0.32,1.15-0.44,1.8   c-0.07,0.41-0.13,0.8-0.17,1.17h23.07c-0.04-0.37-0.09-0.76-0.17-1.17c-0.12-0.64-0.26-1.24-0.44-1.8   c-0.18-0.55-0.41-1.09-0.71-1.61c-0.3-0.52-0.64-0.97-1.03-1.34c-0.39-0.37-0.86-0.66-1.42-0.89c-0.56-0.22-1.17-0.33-1.85-0.33   c-0.1,0-0.33,0.12-0.7,0.36c-0.36,0.24-0.78,0.5-1.23,0.79c-0.46,0.29-1.05,0.56-1.79,0.79s-1.47,0.35-2.21,0.35   c-0.74,0-1.48-0.12-2.21-0.35s-1.33-0.5-1.79-0.79c-0.46-0.29-0.87-0.56-1.23-0.79c-0.36-0.24-0.6-0.36-0.7-0.36   c-0.67,0-1.29,0.11-1.85,0.33C11.67,15.64,11.2,15.93,10.81,16.3z"/>
  <path d="M20,14.37c1.64,0,3.03-0.64,4.19-1.91c1.16-1.27,1.74-2.81,1.74-4.61s-0.58-3.33-1.74-4.61C23.03,1.97,21.64,1.34,20,1.34   c-1.63,0-3.03,0.64-4.19,1.91c-1.16,1.27-1.74,2.81-1.74,4.61s0.58,3.33,1.74,4.61C16.97,13.73,18.37,14.37,20,14.37z"/>
</svg>
