<svg xmlns="http://www.w3.org/2000/svg" version="1.1" x="0px" y="0px" viewBox="0 0 40 40" style="enable-background:new 0 0 40 40;">
  <path d="M20,0C8.95,0,0,8.95,0,20c0,11.05,8.95,20,20,20s20-8.95,20-20C40,8.95,31.05,0,20,0z M20,37.66   c-9.75,0-17.66-7.91-17.66-17.66c0-9.75,7.91-17.66,17.66-17.66S37.66,10.25,37.66,20C37.66,29.75,29.75,37.66,20,37.66z"/>
  <path d="M19.98,23.94c0.05,0.08,0.09,0.11,0.1,0.15c0.34,0.91,0.68,1.82,1.02,2.73c0.39,1.05,0.79,2.09,1.19,3.14      c0.3,0.81,0.62,1.61,0.91,2.42c0.21,0.58,0.56,0.99,1.17,1.17c0.62,0.18,1.17,0.03,1.63-0.38c0.46-0.42,0.62-0.97,0.46-1.58      c-0.11-0.41-0.28-0.81-0.41-1.21c-0.49-1.52-0.99-3.03-1.45-4.56c-0.27-0.9-0.51-1.82-0.66-2.74c-0.21-1.24-0.35-2.5-0.48-3.76      c-0.08-0.81-0.08-1.64-0.1-2.46c-0.01-0.34,0.2-0.61,0.5-0.67c0.33-0.08,0.67-0.15,1-0.23c0.82-0.19,1.64-0.37,2.46-0.56      c0.75-0.17,1.49-0.33,2.24-0.5c0.5-0.11,1.01-0.2,1.5-0.37c0.74-0.26,1.11-1.02,0.94-1.71c-0.2-0.78-0.99-1.23-1.76-1.11      c-1,0.16-2,0.32-3,0.48c-0.78,0.12-1.56,0.22-2.33,0.36c-1.42,0.24-2.85,0.42-4.28,0.4c-1.28-0.02-2.56-0.05-3.84-0.16      c-1.15-0.11-2.28-0.34-3.42-0.51c-1.09-0.17-2.19-0.32-3.28-0.5c-0.36-0.06-0.72-0.12-1.08,0.01c-0.64,0.23-1.06,0.82-1.01,1.47      c0.05,0.68,0.57,1.25,1.23,1.38c0.73,0.15,1.46,0.32,2.19,0.48c1.57,0.35,3.14,0.72,4.71,1.07c0.28,0.06,0.49,0.27,0.51,0.56      c0.01,0.2,0,0.41,0,0.61c0,2.7-0.37,5.35-1.06,7.95c-0.23,0.88-0.5,1.75-0.78,2.62c-0.35,1.06-0.72,2.12-1.09,3.17      c-0.17,0.49-0.3,0.98-0.08,1.5c0.26,0.62,0.75,0.96,1.39,1.02c0.7,0.06,1.3-0.2,1.61-0.85c0.32-0.66,0.56-1.37,0.82-2.05      c0.36-0.95,0.71-1.91,1.07-2.86c0.35-0.94,0.7-1.87,1.06-2.81C19.69,24.68,19.83,24.33,19.98,23.94z"/>
  <path d="M19.98,23.94c-0.15,0.39-0.29,0.74-0.42,1.09c-0.35,0.94-0.71,1.87-1.06,2.81c-0.36,0.95-0.71,1.91-1.07,2.86      c-0.26,0.69-0.5,1.39-0.82,2.05C16.3,33.4,15.7,33.67,15,33.61c-0.65-0.06-1.13-0.4-1.39-1.02c-0.22-0.51-0.1-1,0.08-1.5      c0.37-1.05,0.74-2.11,1.09-3.17c0.28-0.87,0.54-1.74,0.78-2.62c0.69-2.61,1.07-5.25,1.06-7.95c0-0.2,0.01-0.41,0-0.61      c-0.02-0.28-0.23-0.49-0.51-0.56c-1.57-0.35-3.14-0.71-4.71-1.07c-0.73-0.16-1.46-0.33-2.19-0.48c-0.66-0.13-1.18-0.7-1.23-1.38      c-0.05-0.65,0.37-1.24,1.01-1.47c0.37-0.13,0.72-0.07,1.08-0.01c1.09,0.17,2.19,0.33,3.28,0.5c1.14,0.17,2.28,0.41,3.42,0.51      c1.27,0.12,2.56,0.15,3.84,0.16c1.44,0.02,2.87-0.16,4.28-0.4c0.78-0.13,1.56-0.24,2.33-0.36c1-0.16,2-0.32,3-0.48      c0.77-0.12,1.56,0.32,1.76,1.11c0.18,0.69-0.2,1.46-0.94,1.71c-0.48,0.17-0.99,0.26-1.5,0.37c-0.74,0.17-1.49,0.33-2.24,0.5      c-0.82,0.18-1.64,0.37-2.46,0.56c-0.33,0.08-0.67,0.15-1,0.23c-0.3,0.07-0.51,0.33-0.5,0.67c0.02,0.82,0.02,1.64,0.1,2.46      c0.12,1.26,0.27,2.51,0.48,3.76c0.16,0.93,0.39,1.84,0.66,2.74c0.45,1.53,0.96,3.04,1.45,4.56c0.13,0.41,0.3,0.8,0.41,1.21      c0.16,0.61,0.01,1.16-0.46,1.58c-0.46,0.41-1.01,0.56-1.63,0.38c-0.6-0.18-0.96-0.58-1.17-1.17c-0.29-0.81-0.61-1.61-0.91-2.42      c-0.4-1.05-0.79-2.09-1.19-3.14c-0.34-0.91-0.68-1.82-1.02-2.73C20.07,24.05,20.03,24.02,19.98,23.94z"/>
  <circle cx="20" cy="9.3" r="2.92"/>
</svg>
