<svg xmlns="http://www.w3.org/2000/svg" version="1.1" x="0px" y="0px" viewBox="0 0 40 40" style="enable-background:new 0 0 40 40;">
  <path d="M10.51,39.99c-0.39-0.07-0.78-0.16-1.18-0.21c-0.23-0.03-0.27-0.14-0.26-0.33c0.01-0.64,0-1.28,0.02-1.92   c0.01-0.22-0.05-0.33-0.28-0.41c-0.52-0.19-1.04-0.41-1.54-0.65c-0.2-0.09-0.31-0.07-0.46,0.08c-0.5,0.52-1.02,1.03-1.55,1.56   c-1.42-0.91-2.56-2.05-3.46-3.5c0.52-0.5,1.03-1.01,1.55-1.49c0.18-0.17,0.22-0.3,0.1-0.54c-0.27-0.56-0.49-1.15-0.75-1.77   c-0.78,0-1.61-0.01-2.46-0.02c-0.33-1.63-0.32-3.23,0.03-4.87c0.61,0,1.21,0.01,1.81,0.01c0.67,0,0.66,0,0.91-0.62   c0.16-0.4,0.33-0.79,0.53-1.16c0.11-0.21,0.08-0.33-0.08-0.49c-0.5-0.49-0.99-1-1.48-1.5c-0.02-0.02-0.02-0.04-0.04-0.09   c0.88-1.38,2.03-2.5,3.46-3.41c0.51,0.52,1.02,1.02,1.51,1.55c0.16,0.17,0.28,0.2,0.51,0.09c0.49-0.23,1-0.43,1.52-0.61   c0.2-0.07,0.28-0.15,0.28-0.37c-0.01-0.73,0-1.47,0.01-2.23c1.63-0.34,3.23-0.32,4.86,0.02c-0.01,0.83-0.01,1.66-0.02,2.45   c0.67,0.3,1.31,0.59,1.95,0.85c0.08,0.03,0.24-0.04,0.31-0.11c0.53-0.51,1.05-1.03,1.58-1.56c1.42,0.9,2.54,2.05,3.44,3.48   c-0.52,0.51-1.03,1.02-1.55,1.51c-0.18,0.16-0.19,0.29-0.09,0.51c0.23,0.49,0.42,1,0.61,1.52c0.07,0.19,0.15,0.28,0.37,0.28   c0.64-0.01,1.28,0.01,1.92,0c0.24,0,0.33,0.06,0.36,0.31c0.04,0.39,0.13,0.77,0.19,1.15c0,0.64-0.01,1.28-0.01,1.93   c-0.09,0.5-0.18,0.99-0.27,1.5c-0.86-0.01-1.68-0.01-2.46-0.02c-0.26,0.61-0.49,1.19-0.76,1.76c-0.11,0.23-0.1,0.37,0.08,0.54   c0.52,0.5,1.02,1.02,1.53,1.52c-0.93,1.43-2.08,2.56-3.5,3.45c-0.52-0.53-1.03-1.06-1.56-1.58c-0.07-0.07-0.22-0.16-0.29-0.13   c-0.65,0.26-1.3,0.55-1.98,0.84c0,0.79-0.01,1.61-0.02,2.44c-0.51,0.08-1,0.16-1.49,0.24C11.79,40,11.15,40,10.51,39.99z    M14.6,28.45c0.01-1.68-1.33-3.05-3-3.06c-1.66-0.01-3.06,1.36-3.07,3.02c-0.01,1.67,1.34,3.03,3.02,3.05   C13.23,31.48,14.58,30.14,14.6,28.45z"/>
  <path d="M28.16,13.23c1.66,0,3.08-0.65,4.26-1.94c1.17-1.29,1.76-2.85,1.76-4.68c0-1.83-0.59-3.39-1.76-4.68    C31.24,0.64,29.82,0,28.16,0c-1.66,0-3.08,0.65-4.25,1.94c-1.18,1.29-1.76,2.85-1.76,4.68c0,1.83,0.59,3.39,1.76,4.68    C25.08,12.59,26.5,13.23,28.16,13.23z"/>
  <path d="M39.94,21.86c-0.04-0.57-0.12-1.18-0.24-1.83c-0.12-0.65-0.27-1.26-0.45-1.83c-0.18-0.56-0.42-1.11-0.72-1.64    c-0.3-0.53-0.65-0.99-1.04-1.36c-0.39-0.38-0.87-0.67-1.44-0.9c-0.57-0.22-1.19-0.34-1.88-0.34c-0.1,0-0.34,0.12-0.71,0.36    c-0.37,0.24-0.79,0.51-1.25,0.81c-0.46,0.3-1.07,0.57-1.82,0.81c-0.75,0.24-1.49,0.36-2.25,0.36c-0.75,0-1.5-0.12-2.24-0.36    c-0.75-0.24-1.35-0.51-1.82-0.81c-0.46-0.3-0.88-0.57-1.25-0.81c-0.37-0.24-0.61-0.36-0.71-0.36c-0.68,0-1.31,0.11-1.88,0.34    c-0.57,0.23-1.04,0.52-1.44,0.9c-0.32,0.31-0.61,0.69-0.87,1.1c4.24,2.19,7.16,6.58,7.22,11.66h10.33c1.36,0,2.45-0.39,3.26-1.17    C39.59,26.01,40,24.94,40,23.6C40,23,39.98,22.43,39.94,21.86z"/>
</svg>
