<svg xmlns="http://www.w3.org/2000/svg" version="1.1" x="0px" y="0px" viewBox="0 0 40 40" style="enable-background:new 0 0 40 40;">
  <path d="M11.86,16.27C5.31,16.27,0,21.58,0,28.14C0,34.69,5.31,40,11.86,40s11.87-5.31,11.87-11.87   C23.73,21.58,18.42,16.27,11.86,16.27z M11.86,38.61c-5.79,0-10.48-4.69-10.48-10.48c0-5.79,4.69-10.48,10.48-10.48   s10.48,4.69,10.48,10.48C22.34,33.92,17.65,38.61,11.86,38.61z"/>
  <path d="M9.35,26.15v-1.44c0-1,0.81-1.81,1.81-1.81h1.4c1,0,1.81,0.81,1.81,1.81v1.44h1.44v-1.44c0-1.8-1.46-3.26-3.26-3.26h-1.4    c-1.8,0-3.26,1.46-3.26,3.26v1.44H9.35z"/>
  <path d="M16.03,26.63H7.7c-0.69,0-1.26,0.56-1.26,1.26v5.67c0,0.69,0.56,1.26,1.26,1.26h8.33c0.69,0,1.26-0.56,1.26-1.26v-5.67    C17.29,27.2,16.72,26.63,16.03,26.63z M12.48,31.98v0.67c0,0.34-0.27,0.61-0.61,0.61c-0.34,0-0.61-0.27-0.61-0.61v-0.67    c-0.47-0.23-0.79-0.7-0.79-1.26c0-0.77,0.63-1.4,1.4-1.4c0.77,0,1.4,0.63,1.4,1.4C13.27,31.28,12.94,31.76,12.48,31.98z"/>
  <path d="M28.16,13.24c1.66,0,3.08-0.65,4.26-1.94c1.17-1.29,1.76-2.85,1.76-4.68c0-1.83-0.59-3.39-1.76-4.68    C31.24,0.64,29.82,0,28.16,0c-1.66,0-3.08,0.65-4.25,1.94c-1.18,1.29-1.76,2.85-1.76,4.68c0,1.83,0.59,3.39,1.76,4.68    C25.08,12.59,26.5,13.24,28.16,13.24z"/>
  <path d="M39.94,21.86c-0.04-0.57-0.12-1.18-0.24-1.83c-0.12-0.65-0.27-1.26-0.45-1.83c-0.18-0.56-0.42-1.11-0.72-1.64    c-0.3-0.53-0.65-0.99-1.04-1.36c-0.39-0.38-0.87-0.67-1.44-0.9c-0.57-0.22-1.19-0.34-1.88-0.34c-0.1,0-0.34,0.12-0.71,0.36    c-0.37,0.24-0.79,0.51-1.25,0.81c-0.46,0.3-1.07,0.57-1.82,0.81c-0.75,0.24-1.49,0.36-2.25,0.36c-0.75,0-1.5-0.12-2.24-0.36    c-0.75-0.24-1.35-0.51-1.82-0.81c-0.46-0.3-0.88-0.57-1.25-0.81c-0.37-0.24-0.61-0.36-0.71-0.36c-0.68,0-1.31,0.11-1.88,0.34    c-0.57,0.23-1.04,0.52-1.44,0.9c-0.32,0.31-0.61,0.69-0.87,1.1c4.24,2.19,7.16,6.58,7.22,11.66h10.33c1.36,0,2.45-0.39,3.26-1.17    C39.59,26.01,40,24.95,40,23.6C40,23.01,39.98,22.43,39.94,21.86z"/>
</svg>
