<svg xmlns="http://www.w3.org/2000/svg" version="1.1" x="0px" y="0px" viewBox="0 0 40 40" style="enable-background:new 0 0 40 40;">
  <path d="M17.48,32.68c0,0.64-0.19,1.14-0.58,1.51c-0.39,0.37-0.9,0.55-1.54,0.55H8.39c-0.64,0-1.16-0.18-1.54-0.55    c-0.39-0.37-0.58-0.87-0.58-1.51c0-0.28,0.01-0.56,0.03-0.82c0.02-0.27,0.06-0.56,0.11-0.87c0.06-0.31,0.13-0.6,0.21-0.86    c0.08-0.26,0.2-0.52,0.34-0.78c0.14-0.25,0.31-0.47,0.49-0.65c0.19-0.18,0.41-0.32,0.68-0.43c0.27-0.11,0.56-0.16,0.89-0.16    c0.05,0,0.16,0.06,0.33,0.17c0.17,0.11,0.37,0.24,0.59,0.38c0.22,0.14,0.51,0.27,0.86,0.38c0.35,0.11,0.71,0.17,1.06,0.17    c0.36,0,0.71-0.06,1.06-0.17c0.35-0.11,0.64-0.24,0.86-0.38c0.22-0.14,0.42-0.27,0.59-0.38c0.18-0.11,0.29-0.17,0.33-0.17    c0.32,0,0.62,0.05,0.89,0.16c0.27,0.11,0.49,0.25,0.68,0.43c0.19,0.18,0.35,0.39,0.49,0.65c0.14,0.25,0.26,0.51,0.34,0.78    c0.08,0.27,0.16,0.55,0.21,0.86c0.06,0.31,0.09,0.6,0.11,0.87C17.47,32.13,17.48,32.4,17.48,32.68z M13.89,22.43    c0.56,0.61,0.84,1.35,0.84,2.22s-0.28,1.6-0.84,2.22c-0.56,0.61-1.23,0.92-2.01,0.92c-0.79,0-1.46-0.31-2.01-0.92    c-0.56-0.61-0.84-1.35-0.84-2.22s0.28-1.6,0.84-2.22c0.56-0.61,1.23-0.92,2.01-0.92C12.66,21.51,13.33,21.81,13.89,22.43z"/>
  <path d="M11.87,16.25C5.32,16.25,0,21.57,0,28.13C0,34.69,5.32,40,11.87,40s11.87-5.32,11.87-11.87   C23.75,21.57,18.43,16.25,11.87,16.25z M11.87,38.61c-5.79,0-10.48-4.69-10.48-10.48c0-5.79,4.69-10.48,10.48-10.48   s10.48,4.69,10.48,10.48C22.36,33.92,17.66,38.61,11.87,38.61z"/>
  <path d="M34.68,0H20.03h-1.56H5.32C2.39,0,0,2.39,0,5.32v0.84v0.89v13.62c0.35-0.56,0.74-1.09,1.16-1.6V7.05V6.17V5.32    c0-2.29,1.87-4.16,4.16-4.16h13.15h1.56h14.65c2.3,0,4.16,1.87,4.16,4.16v0.84v0.89v21.67c0,2.29-1.87,4.16-4.16,4.16h-9.62    c-0.14,0.4-0.3,0.78-0.48,1.16h10.1c2.93,0,5.32-2.39,5.32-5.32V7.05V6.17V5.32C40,2.39,37.61,0,34.68,0z"/>
  <path fill-rule="evenodd" clip-rule="evenodd" d="M32.04,8.77H7.96c-0.53,0-0.95-0.43-0.95-0.95V6.24c0-0.53,0.43-0.95,0.95-0.95h24.08   c0.53,0,0.95,0.43,0.95,0.95v1.58C32.99,8.35,32.57,8.77,32.04,8.77z"/>
  <path fill-rule="evenodd" clip-rule="evenodd" d="M32.04,18.36H21.92c0.99,1.02,1.83,2.2,2.48,3.48h7.64c0.53,0,0.95-0.43,0.95-0.95v-1.58    C32.99,18.78,32.57,18.36,32.04,18.36z"/>
  <path fill-rule="evenodd" clip-rule="evenodd" d="M32.04,11.82H7.96c-0.53,0-0.95,0.43-0.95,0.95v1.58c0,0.21,0.08,0.4,0.2,0.55c1.46-0.52,3.03-0.81,4.66-0.81   c2.02,0,3.94,0.44,5.68,1.21h14.48c0.53,0,0.95-0.43,0.95-0.95v-1.58C32.99,12.25,32.57,11.82,32.04,11.82z"/>
</svg>
