<svg xmlns="http://www.w3.org/2000/svg" width="40" height="40" viewBox="0 0 40 40">
  <path d="M20 0C9.75996 0 1.45996 8.3 1.45996 18.54C1.45996 22.47 2.68996 26.11 4.77996 29.11H4.76996L3.25996 40L14.31 36.18C16.11 36.76 18.02 37.08 20 37.08C30.24 37.08 38.54 28.78 38.54 18.54C38.54 8.3 30.24 0 20 0ZM29.72 20.75C29.72 21.25 29.31 21.66 28.81 21.66H23.24V27.23C23.24 27.73 22.83 28.14 22.33 28.14H17.67C17.17 28.14 16.76 27.73 16.76 27.23V21.66H11.19C10.69 21.66 10.28 21.25 10.28 20.75V16.09C10.28 15.59 10.69 15.18 11.19 15.18H16.76V9.61C16.76 9.11 17.17 8.7 17.67 8.7H22.33C22.83 8.7 23.24 9.11 23.24 9.61V15.18H28.81C29.31 15.18 29.72 15.59 29.72 16.09V20.75Z"/>
</svg>
