<svg xmlns="http://www.w3.org/2000/svg" version="1.1" x="0px" y="0px" viewBox="0 0 40 40" style="enable-background:new 0 0 40 40;">
  <path d="M16.82,29.78h-3.3v3.3h-3.3v-3.3h-3.3v-3.3h3.3v-3.3h3.3v3.3h3.3V29.78z"/>
  <path d="M11.87,16.25C5.31,16.25,0,21.57,0,28.13C0,34.69,5.31,40,11.87,40s11.87-5.32,11.87-11.87   C23.75,21.57,18.43,16.25,11.87,16.25z M11.87,38.61c-5.79,0-10.48-4.69-10.48-10.48c0-5.79,4.69-10.48,10.48-10.48   s10.48,4.69,10.48,10.48C22.36,33.92,17.66,38.61,11.87,38.61z"/>
  <path d="M15.54,9.63c1.21,0,2.24-0.47,3.1-1.41c0.86-0.94,1.28-2.08,1.28-3.41c0-1.33-0.43-2.46-1.28-3.41   C17.79,0.47,16.75,0,15.54,0c-1.21,0-2.24,0.47-3.1,1.41c-0.86,0.94-1.28,2.08-1.28,3.41c0,1.33,0.43,2.46,1.28,3.41   C13.3,9.16,14.34,9.63,15.54,9.63z"/>
  <path d="M29.76,14.95c1.44,0,2.66-0.56,3.68-1.68c1.02-1.12,1.53-2.47,1.53-4.05s-0.51-2.93-1.53-4.05    c-1.02-1.12-2.24-1.68-3.68-1.68c-1.43,0-2.66,0.56-3.68,1.68c-1.02,1.12-1.53,2.47-1.53,4.05s0.51,2.93,1.53,4.05    C27.1,14.39,28.33,14.95,29.76,14.95z"/>
  <path d="M39.95,22.41c-0.03-0.49-0.1-1.02-0.2-1.59c-0.1-0.57-0.23-1.09-0.39-1.58c-0.15-0.48-0.36-0.96-0.63-1.42    c-0.26-0.46-0.56-0.85-0.9-1.18c-0.34-0.32-0.75-0.58-1.24-0.78c-0.49-0.19-1.03-0.29-1.62-0.29c-0.09,0-0.29,0.11-0.61,0.31    c-0.32,0.21-0.68,0.44-1.08,0.7c-0.4,0.26-0.92,0.49-1.57,0.7c-0.64,0.21-1.29,0.31-1.94,0.31c-0.65,0-1.3-0.1-1.94-0.31    c-0.64-0.21-1.17-0.44-1.57-0.7c-0.4-0.26-0.76-0.49-1.08-0.7c-0.32-0.21-0.52-0.31-0.61-0.31c-0.59,0-1.13,0.1-1.62,0.29    c-0.49,0.2-0.9,0.45-1.24,0.78c-0.34,0.33-0.64,0.72-0.9,1.18c-0.06,0.1-0.1,0.2-0.15,0.3c2.68,2.35,4.4,5.75,4.53,9.55h10.96    c1.17,0,2.11-0.34,2.82-1.01C39.65,26,40,25.08,40,23.91C40,23.4,39.98,22.9,39.95,22.41z"/>
  <path d="M11.87,14.81c2.41,0,4.67,0.65,6.62,1.78c0.01-0.02,0.02-0.04,0.03-0.06c0.38-0.67,0.84-1.26,1.36-1.77    c0.58-0.56,1.28-1,2.09-1.32c0.29-0.11,0.58-0.21,0.89-0.28c-0.36-0.71-0.6-1.48-0.75-2.28c-0.24-0.19-0.5-0.35-0.81-0.48    c-0.41-0.16-0.87-0.24-1.37-0.24c-0.07,0-0.24,0.09-0.51,0.26c-0.27,0.18-0.57,0.37-0.91,0.59c-0.34,0.22-0.78,0.41-1.32,0.59    c-0.54,0.18-1.09,0.26-1.64,0.26c-0.55,0-1.09-0.09-1.63-0.26c-0.54-0.17-0.98-0.37-1.32-0.59c-0.34-0.22-0.64-0.41-0.91-0.59    c-0.27-0.17-0.44-0.26-0.51-0.26c-0.5,0-0.95,0.08-1.37,0.24c-0.41,0.16-0.76,0.38-1.05,0.66c-0.29,0.27-0.54,0.61-0.76,0.99    c-0.22,0.39-0.4,0.79-0.53,1.19c-0.13,0.41-0.24,0.85-0.32,1.33C7.06,15,7.02,15.38,6.99,15.75C8.5,15.15,10.15,14.81,11.87,14.81    z"/>
</svg>
