<svg xmlns="http://www.w3.org/2000/svg" version="1.1" x="0px" y="0px" viewBox="0 0 40 40" style="enable-background:new 0 0 40 40;">
  <path d="M27.46,23.03h-4.43v4.43c0,0.9-0.73,1.63-1.63,1.63H18.6c-0.9,0-1.63-0.73-1.63-1.63v-4.43h-4.43   c-0.9,0-1.63-0.73-1.63-1.63V18.6c0-0.9,0.73-1.63,1.63-1.63h4.43v-4.43c0-0.9,0.73-1.63,1.63-1.63h2.79c0.9,0,1.63,0.73,1.63,1.63   v4.43h4.43c0.9,0,1.63,0.73,1.63,1.63v2.79C29.09,22.3,28.36,23.03,27.46,23.03z"/>
  <path d="M20,0C8.95,0,0,8.95,0,20c0,11.05,8.95,20,20,20s20-8.95,20-20C40,8.95,31.05,0,20,0z M20,37.66    c-9.75,0-17.66-7.91-17.66-17.66c0-9.75,7.91-17.66,17.66-17.66S37.66,10.25,37.66,20C37.66,29.75,29.75,37.66,20,37.66z"/>
</svg>
