<svg xmlns="http://www.w3.org/2000/svg" width="40" height="40" viewBox="0 0 40 40">
  <path d="M4.4301 40C4.1101 40 3.8001 39.89 3.5401 39.68C3.1601 39.37 2.9801 38.89 3.0401 38.41L4.3701 28.79C2.3901 25.76 1.3501 22.26 1.3501 18.63C1.3601 8.36 9.7201 0 20.0001 0C30.2801 0 38.6401 8.36 38.6401 18.64C38.6401 28.92 30.2801 37.28 20.0001 37.28C18.2201 37.28 16.4501 37.02 14.7301 36.52L4.8901 39.93C4.7401 39.98 4.5901 40.01 4.4301 40.01V40ZM7.1901 28.83L6.1201 36.54L14.2401 33.73C14.5301 33.63 14.8401 33.63 15.1301 33.73C16.7101 34.24 18.3501 34.5 20.0001 34.5C28.7401 34.5 35.8501 27.39 35.8501 18.65C35.8501 9.91 28.7401 2.79 20.0001 2.79C11.2601 2.79 4.1501 9.9 4.1501 18.64C4.1501 21.88 5.1301 25.01 6.9901 27.67C7.2301 28.02 7.3001 28.44 7.1901 28.82V28.83Z"/>
  <path d="M23.02 15.52V10.34C23.02 9.86999 22.64 9.48999 22.17 9.48999H17.84C17.37 9.48999 16.99 9.86999 16.99 10.34V15.52H11.81C11.34 15.52 10.96 15.9 10.96 16.37V20.7C10.96 21.17 11.34 21.55 11.81 21.55H16.99V26.73C16.99 27.2 17.37 27.58 17.84 27.58H22.17C22.64 27.58 23.02 27.2 23.02 26.73V21.55H28.2C28.67 21.55 29.05 21.17 29.05 20.7V16.37C29.05 15.9 28.67 15.52 28.2 15.52H23.02Z"/>
</svg>
