<svg xmlns="http://www.w3.org/2000/svg" version="1.1" x="0px" y="0px" viewBox="0 0 40 40" style="enable-background:new 0 0 40 40;">
  <path d="M20,0C8.95,0,0,8.95,0,20c0,11.05,8.95,20,20,20s20-8.95,20-20C40,8.95,31.05,0,20,0z M29.09,21.4  c0,0.9-0.73,1.63-1.63,1.63h-4.43v4.43c0,0.9-0.73,1.63-1.63,1.63H18.6c-0.9,0-1.63-0.73-1.63-1.63v-4.43h-4.43  c-0.9,0-1.63-0.73-1.63-1.63V18.6c0-0.9,0.73-1.63,1.63-1.63h4.43v-4.43c0-0.9,0.73-1.63,1.63-1.63h2.79c0.9,0,1.63,0.73,1.63,1.63  v4.43h4.43c0.9,0,1.63,0.73,1.63,1.63V21.4z"/>
</svg>
