<svg xmlns="http://www.w3.org/2000/svg" width="40" height="40" viewBox="0 0 40 40">
  <path d="M8.60692 6.11083C9.29589 7.05941 10.1346 7.89815 11.0832 8.58712C10.1346 9.27609 9.29589 10.1148 8.60692 11.0634C8.20752 10.5242 7.75819 10.015 7.26893 9.54568C6.90947 9.19621 6.52005 8.87668 6.12065 8.58712C6.52005 8.29755 6.90947 7.96805 7.26893 7.62856C7.75819 7.15926 8.20752 6.65002 8.60692 6.11083ZM8.61691 0L8.23747 1.54768C7.8181 3.2651 6.90947 4.77284 5.67132 5.94109C4.79264 6.76984 3.76418 7.43884 2.60592 7.8682C2.27642 7.998 1.93692 8.10784 1.57746 8.1977L0.0297852 8.57713L1.57746 8.95656C1.92694 9.04643 2.26643 9.15627 2.60592 9.28607C3.76418 9.72541 4.79264 10.3844 5.67132 11.2132C6.89948 12.3914 7.80812 13.8992 8.23747 15.6066L8.61691 17.1543L8.99634 15.6066C9.80512 12.3215 12.3713 9.76535 15.6464 8.95656L17.194 8.57713L15.6464 8.1977C12.3613 7.38892 9.80512 4.82277 8.99634 1.54768L8.61691 0Z"/>
  <path d="M12.3711 30.7139C12.8803 31.353 13.4595 31.9321 14.1085 32.4413C13.4595 32.9506 12.8803 33.5297 12.3711 34.1687C11.8619 33.5297 11.2927 32.9506 10.6437 32.4413C11.2827 31.9321 11.8619 31.353 12.3711 30.7139ZM12.3611 24.8727L12.0216 26.2406C11.3127 29.1263 9.05609 31.3829 6.16043 32.1018L4.79248 32.4413L6.16043 32.7808C9.0461 33.4898 11.3027 35.7464 12.0216 38.642L12.3611 40.01L12.7006 38.642C13.1699 36.7249 14.3382 35.0973 15.9058 33.999C16.7046 33.4398 17.5933 33.0205 18.5618 32.7808L18.9712 32.681L19.9298 32.4413L18.9712 32.2017L18.5618 32.1018C17.5933 31.8622 16.6946 31.4328 15.9058 30.8837C14.3382 29.7853 13.1799 28.1677 12.7006 26.2406L12.3611 24.8727Z"/>
  <path d="M27.4984 16.4054C28.8364 18.672 30.7235 20.5692 32.9901 21.8972C30.7235 23.2352 28.8264 25.1224 27.4984 27.389C26.1604 25.1224 24.2732 23.2252 22.0066 21.8972C24.2732 20.5592 26.1704 18.672 27.4984 16.4054ZM27.4984 9.4259L26.9392 11.6825C25.761 16.4454 22.0366 20.1698 17.2737 21.348L15.0171 21.9072L17.2737 22.4663C22.0366 23.6446 25.761 27.369 26.9392 32.1318L27.4984 34.3885L28.0575 32.1318C29.2358 27.369 32.9602 23.6446 37.723 22.4663L39.9797 21.9072L37.723 21.348C32.9602 20.1698 29.2358 16.4454 28.0575 11.6825L27.4984 9.4259Z"/>
</svg>
