<svg xmlns="http://www.w3.org/2000/svg" width="40" height="40" viewBox="0 0 40 40">
  <path d="M17.214 8.58712L15.6563 8.96655C12.3813 9.78532 9.81511 12.3415 9.00632 15.6266L8.61691 17.1742L8.23747 15.6266C7.8181 13.9091 6.90947 12.4014 5.67132 11.2331C4.80263 10.3944 3.76418 9.7354 2.60592 9.30604C2.27642 9.17623 1.93692 9.05641 1.58745 8.96655L0.0297852 8.58712L1.58745 8.20769C1.93692 8.11782 2.27642 7.998 2.60592 7.87818C3.76418 7.43884 4.80263 6.77983 5.67132 5.95107C6.90947 4.77284 7.8181 3.2651 8.23747 1.54768L8.61691 0L9.00632 1.54768C9.81511 4.83275 12.3813 7.3989 15.6563 8.20769L17.214 8.58712Z"/>
  <path d="M19.93 32.4413L18.9715 32.671L18.5621 32.7708C17.5935 33.0105 16.7049 33.4398 15.9061 33.999C14.3384 35.0874 13.1802 36.7149 12.7009 38.632L12.3714 40L12.0319 38.632C11.313 35.7464 9.05635 33.4898 6.17068 32.7708L4.80273 32.4413L6.17068 32.1018C9.05635 31.3829 11.313 29.1263 12.0319 26.2406L12.3714 24.8727L12.7009 26.2406C13.1802 28.1578 14.3384 29.7853 15.9061 30.8837C16.7049 31.4328 17.5935 31.8622 18.5621 32.1018L18.9715 32.2017L19.93 32.4413Z"/>
  <path d="M39.9699 21.9072L37.7233 22.4564C32.9505 23.6346 29.236 27.359 28.0578 32.1219L27.4986 34.3785L26.9395 32.1219C25.7712 27.359 22.0468 23.6346 17.284 22.4564L15.0273 21.9072L17.284 21.348C22.0468 20.1698 25.7712 16.4454 26.9395 11.6825L27.4986 9.4259L28.0578 11.6825C29.236 16.4454 32.9505 20.1698 37.7233 21.348L39.9699 21.9072Z"/>
</svg>
