<svg xmlns="http://www.w3.org/2000/svg" version="1.1" x="0px" y="0px" viewBox="0 0 40 40" style="enable-background:new 0 0 40 40;">
  <path d="M10.71,16.22c0,2.81,2.28,5.09,5.09,5.09c2.81,0,5.09-2.28,5.09-5.09c0-2.81-2.28-5.09-5.09-5.09   C12.99,11.14,10.71,13.41,10.71,16.22z M18.37,16.22c0,1.42-1.15,2.57-2.57,2.57c-1.42,0-2.57-1.15-2.57-2.57   c0-1.42,1.15-2.57,2.57-2.57C17.22,13.65,18.37,14.81,18.37,16.22z"/>
  <path d="M3.18,31.39c0.02,0,0.03,0,0.05,0c0.02,0,0.04-0.01,0.07-0.01c0.09,0,0.18,0,0.27-0.01c0.1-0.01,0.19-0.03,0.28-0.05   c0.02,0,0.03-0.01,0.05-0.01c1.17-0.24,2.13-1.12,2.46-2.29c0.2-0.7,0.13-1.42-0.14-2.09c-0.01-0.02-0.02-0.04-0.02-0.06   c-0.02-0.05-0.03-0.09-0.05-0.14l5.41-5.27c-0.45-0.36-0.85-0.79-1.19-1.26l-5.37,5.23c-0.14-0.09-0.3-0.17-0.46-0.24   c-0.07-0.03-0.14-0.05-0.22-0.08c-0.07-0.02-0.13-0.05-0.2-0.07c-0.03-0.01-0.05-0.01-0.08-0.01c-0.13-0.03-0.27-0.06-0.41-0.07   c-0.06-0.01-0.12-0.01-0.18-0.02c-0.07-0.01-0.14-0.02-0.22-0.02c-0.08,0-0.16,0.02-0.24,0.02c-0.02,0-0.04,0-0.05,0   c-0.02,0-0.05,0.01-0.07,0.01C1.25,25.16,0,26.51,0,28.17c0,1.62,1.2,2.95,2.75,3.18v0C2.9,31.37,3.04,31.39,3.18,31.39z"/>
  <path d="M37.2,10.79c-0.1-0.02-0.2-0.04-0.3-0.04c-0.03,0-0.05,0-0.08,0c-0.02,0-0.03-0.01-0.05-0.01c-0.03,0-0.06,0.01-0.09,0.01   c-0.08,0-0.16,0-0.24,0.01c-0.07,0.01-0.13,0.03-0.2,0.04c-0.07,0.01-0.15,0.03-0.22,0.04c-0.13,0.03-0.26,0.07-0.39,0.12   c-0.06,0.02-0.12,0.04-0.18,0.07c-0.13,0.06-0.26,0.13-0.38,0.2c-0.05,0.03-0.1,0.06-0.14,0.09c-0.13,0.09-0.25,0.19-0.36,0.3   c-0.03,0.03-0.06,0.05-0.09,0.08c-0.55,0.55-0.9,1.3-0.94,2.12c-0.01,0.27,0.02,0.54,0.07,0.79c0,0,0,0,0,0   c0.07,0.34,0.19,0.66,0.36,0.96l-5.87,6.01c-0.21-0.12-0.44-0.21-0.69-0.28c-0.39-0.11-0.78-0.14-1.18-0.1   c-0.6,0.06-1.17,0.29-1.63,0.65l-2.96-2.24c-0.29,0.5-0.64,0.97-1.05,1.38l2.97,2.25c-0.04,0.1-0.08,0.21-0.11,0.32   c-0.48,1.71,0.53,3.5,2.24,3.98c0.39,0.11,0.78,0.14,1.18,0.1c1.32-0.13,2.44-1.07,2.79-2.35c0.24-0.87,0.1-1.76-0.32-2.48   l5.87-6.01c0.03,0.02,0.07,0.02,0.1,0.04c0.15,0.08,0.31,0.14,0.48,0.2c0.05,0.02,0.11,0.04,0.16,0.05   c0.19,0.05,0.39,0.08,0.59,0.1c0.03,0,0.05,0.01,0.07,0.01c0.01,0,0.02,0,0.03,0c0.04,0,0.08,0.01,0.12,0.01   c0.07,0,0.13-0.02,0.2-0.02c0.03,0,0.07,0,0.11,0c0.04,0,0.07-0.01,0.1-0.02c1.59-0.2,2.82-1.55,2.82-3.19   C40,12.34,38.78,11.01,37.2,10.79z"/>
  <path d="M36.27,18.66v13.53c0,1.98-1.61,3.59-3.59,3.59H7.33c-1.76,0-3.22-1.27-3.52-2.94c-0.19,0.02-0.38,0.06-0.57,0.06   c-0.15,0-0.28-0.03-0.43-0.04c0.32,2.22,2.22,3.93,4.52,3.93h25.36c2.53,0,4.59-2.06,4.59-4.59V18.66   c-0.17,0.02-0.33,0.05-0.5,0.05C36.6,18.71,36.44,18.68,36.27,18.66z"/>
  <path d="M3.74,23.49V7.81c0-1.98,1.61-3.59,3.59-3.59h25.36c1.98,0,3.59,1.61,3.59,3.59V9.3c0.17-0.02,0.33-0.05,0.5-0.05   c0.17,0,0.33,0.03,0.5,0.05V7.81c0-2.53-2.06-4.59-4.59-4.59H7.33c-2.53,0-4.59,2.06-4.59,4.59v15.68   c0.16-0.02,0.32-0.05,0.49-0.05C3.4,23.44,3.57,23.47,3.74,23.49z"/>
</svg>
