<svg xmlns="http://www.w3.org/2000/svg" version="1.1" x="0px" y="0px" viewBox="0 0 40 40" style="enable-background:new 0 0 40 40;">
  <path d="M18.54,27.55c4.06,0.6,7.56-1.43,8.78-5.14c0.24-0.74,0.36-1.55,0.37-2.33C27.72,16,27.7,11.92,27.7,7.85   c0-3.99-2.56-7.03-6.49-7.74C21.11,0.1,21.02,0.04,20.92,0c-0.62,0-1.23,0-1.85,0c-1.08,0.42-2.26,0.68-3.23,1.28   c-2.25,1.41-3.48,3.54-3.52,6.2c-0.06,4.23-0.06,8.45,0,12.68C12.38,23.79,15.18,27.05,18.54,27.55z"/>
  <path d="M31.3,15.88c-0.3,0.34-0.45,0.91-0.48,1.39c-0.09,1.45,0.09,2.94-0.15,4.37c-0.96,5.75-5.69,9.44-11.52,9.12   c-4.74-0.26-9.16-4.26-9.75-8.93c-0.2-1.57-0.12-3.16-0.17-4.75c-0.02-0.82-0.45-1.41-1.15-1.63c-0.65-0.19-1.28,0.09-1.75,0.79   c-0.05,0.08-0.12,0.15-0.18,0.23c0,1.59,0,3.18,0,4.77c0.04,0.15,0.11,0.29,0.13,0.44c0.41,3.93,2.36,6.97,5.4,9.38   c1.97,1.57,4.27,2.37,6.74,2.7c0,1.08,0,2.11,0,3.18c-2.03,0-4-0.01-5.97,0c-0.95,0.01-1.68,0.71-1.67,1.54   c0.01,0.85,0.73,1.52,1.69,1.53c5.02,0.01,10.05,0.01,15.07,0c1,0,1.69-0.63,1.71-1.49c0.02-0.91-0.67-1.57-1.7-1.58   c-1.74-0.01-3.49,0-5.23-0.01c-0.25,0-0.49-0.02-0.73-0.03c0-1.09,0-2.1,0-3.13c0.14-0.02,0.24-0.04,0.33-0.06   c5.52-0.89,9.22-4.02,11.21-9.21c0.34-0.89,0.48-1.87,0.72-2.8c0-1.74,0-3.49,0-5.23C33.08,15.28,32.05,15.01,31.3,15.88z"/>
</svg>
