<svg xmlns="http://www.w3.org/2000/svg" version="1.1" x="0px" y="0px" viewBox="0 0 40 40" style="enable-background:new 0 0 40 40;">
  <path d="M0,27.27c0-0.68,0-1.35,0-2.03c0.02-0.06,0.06-0.12,0.07-0.18c0.59-3.52,2.57-5.88,5.9-7.11      c0.23-0.08,0.27-0.2,0.29-0.42c0.03-0.59,0.04-1.2,0.16-1.78C7.34,11.17,11.77,8,16.59,8.89c0.28,0.05,0.46,0.02,0.66-0.23      c1.32-1.64,3.01-2.73,5.03-3.3C22.81,5.21,23.36,5.12,23.9,5c0.73,0,1.46,0,2.19,0c0.48,0.1,0.96,0.19,1.44,0.31      c4.84,1.28,7.94,5.8,7.44,10.78c-0.01,0.11,0.1,0.28,0.2,0.34c3.68,2.34,5.41,6.2,4.67,10.47C39.05,31.42,34.81,35,30.24,35      c-7.23,0-14.45,0-21.68,0c-0.34,0-0.68-0.03-1.01-0.07c-3.45-0.45-6.32-2.95-7.25-6.3C0.19,28.18,0.1,27.72,0,27.27z       M31.94,17.8c1.58-4.22-0.6-8.13-3.82-9.59c-1.69-0.77-3.44-0.91-5.21-0.38c-2.27,0.67-3.85,2.14-4.82,4.28      c-2.37-1.22-4.7-1.19-6.8,0.43c-2.53,1.95-3.07,4.55-2,7.53c-0.22-0.02-0.41-0.04-0.61-0.04C4.5,20,1.48,24.27,2.85,28.26      c0.91,2.62,3.26,4.23,6.23,4.24c6.85,0,13.69,0,20.54-0.01c0.57,0,1.15-0.03,1.71-0.15c3.09-0.63,5.14-2.49,5.91-5.53      c0.77-3.07-0.19-5.66-2.64-7.68C33.82,18.5,32.92,18.09,31.94,17.8z"/>
  <path d="M28.94,30.71c-0.2-0.04-0.39-0.08-0.59-0.1c-0.11-0.01-0.13-0.07-0.13-0.16c0.01-0.32,0-0.64,0.01-0.96   c0-0.11-0.03-0.16-0.14-0.2c-0.26-0.09-0.51-0.2-0.76-0.32c-0.1-0.05-0.16-0.03-0.23,0.04c-0.25,0.26-0.51,0.51-0.77,0.78   c-0.71-0.45-1.27-1.02-1.72-1.74c0.26-0.25,0.51-0.5,0.77-0.74c0.09-0.08,0.11-0.15,0.05-0.27c-0.14-0.28-0.24-0.57-0.37-0.88   c-0.39,0-0.8-0.01-1.22-0.01c-0.17-0.81-0.16-1.6,0.01-2.42c0.3,0,0.6,0,0.9,0.01c0.33,0,0.33,0,0.45-0.31   c0.08-0.2,0.16-0.39,0.26-0.58c0.05-0.1,0.04-0.16-0.04-0.24c-0.25-0.24-0.49-0.49-0.74-0.74c-0.01-0.01-0.01-0.02-0.02-0.04   c0.44-0.69,1.01-1.24,1.72-1.7c0.25,0.26,0.51,0.51,0.75,0.77c0.08,0.09,0.14,0.1,0.25,0.05c0.24-0.12,0.5-0.21,0.75-0.3   c0.1-0.04,0.14-0.08,0.14-0.18c0-0.37,0-0.73,0-1.11c0.81-0.17,1.61-0.16,2.42,0.01c0,0.41-0.01,0.82-0.01,1.22   c0.34,0.15,0.65,0.29,0.97,0.42c0.04,0.02,0.12-0.02,0.16-0.06c0.26-0.25,0.52-0.51,0.78-0.77c0.71,0.45,1.27,1.02,1.71,1.73   c-0.26,0.25-0.51,0.51-0.77,0.75c-0.09,0.08-0.1,0.14-0.04,0.26c0.12,0.24,0.21,0.5,0.3,0.75c0.03,0.1,0.07,0.14,0.18,0.14   c0.32-0.01,0.64,0.01,0.96,0c0.12,0,0.17,0.03,0.18,0.15c0.02,0.19,0.06,0.38,0.09,0.57c0,0.32,0,0.64-0.01,0.96   c-0.04,0.25-0.09,0.49-0.13,0.75c-0.43,0-0.84-0.01-1.22-0.01c-0.13,0.3-0.24,0.59-0.38,0.87c-0.06,0.12-0.05,0.18,0.04,0.27   c0.26,0.25,0.51,0.5,0.76,0.76c-0.46,0.71-1.03,1.27-1.74,1.71c-0.26-0.27-0.51-0.53-0.77-0.79c-0.04-0.04-0.11-0.08-0.14-0.07   c-0.33,0.13-0.65,0.27-0.98,0.42c0,0.39-0.01,0.8-0.01,1.21c-0.25,0.04-0.5,0.08-0.74,0.12C29.58,30.72,29.26,30.72,28.94,30.71z    M30.98,24.98c0.01-0.84-0.66-1.52-1.49-1.52c-0.82-0.01-1.52,0.68-1.53,1.5c-0.01,0.83,0.66,1.51,1.5,1.52   C30.3,26.48,30.97,25.82,30.98,24.98z"/>
</svg>
