<svg xmlns="http://www.w3.org/2000/svg" version="1.1" x="0px" y="0px" viewBox="0 0 40 40" style="enable-background:new 0 0 40 40;">
  <path d="M40,11.82L28.25,0.1V0.08H15.03c-1.56,0-2.82,1.27-2.82,2.83v14.9h2.03V2.9c0-0.44,0.35-0.79,0.79-0.79h11.19v8.92   c0,1.56,1.27,2.82,2.82,2.82h8.93v17.59c0,0.44-0.36,0.79-0.79,0.79h-9.86v2.03h9.86c1.56,0,2.82-1.27,2.82-2.82L40,11.82L40,11.82   L40,11.82z M29.04,11.83c-0.44,0-0.79-0.35-0.79-0.79V2.97l8.88,8.86H29.04z"/>
  <path d="M2,24.45h22.67c2.06,0,2.27-0.44,0.46-0.99l-10.31-3.11c-0.82-0.25-2.15-0.25-2.97,0L1.54,23.47    C-0.27,24.01-0.06,24.45,2,24.45z"/>
  <polygon points="8.92,37.8 8.35,39.92 18.32,39.92 17.74,37.8   "/>
  <path d="M0,38.39v1.05h7.58l0.49-1.66H0.61C0.27,37.77,0,38.05,0,38.39z"/>
  <path d="M26.05,37.77H18.6l0.49,1.66h7.58v-1.05C26.66,38.05,26.39,37.77,26.05,37.77z"/>
  <path d="M5.66,37.29V26.56h0.35c0.37,0,0.66-0.33,0.66-0.74c0-0.41-0.3-0.74-0.66-0.74H2.03c-0.37,0-0.66,0.33-0.66,0.74    c0,0.41,0.3,0.74,0.66,0.74h0.35v10.74H5.66z"/>
  <path d="M8.59,37.29h3.27V26.56h0.35c0.37,0,0.66-0.33,0.66-0.74c0-0.41-0.3-0.74-0.66-0.74H8.24c-0.37,0-0.66,0.33-0.66,0.74    c0,0.41,0.3,0.74,0.66,0.74h0.35V37.29z"/>
  <path d="M19.09,25.82c0-0.41-0.3-0.74-0.66-0.74h-3.98c-0.37,0-0.66,0.33-0.66,0.74c0,0.41,0.3,0.74,0.66,0.74h0.35v10.74h3.27    V26.56h0.35C18.79,26.56,19.09,26.23,19.09,25.82z"/>
  <path d="M24.28,37.29V26.56h0.35c0.37,0,0.66-0.33,0.66-0.74c0-0.41-0.3-0.74-0.66-0.74h-3.98c-0.37,0-0.66,0.33-0.66,0.74    c0,0.41,0.3,0.74,0.66,0.74H21v10.74H24.28z"/>
</svg>
