<svg xmlns="http://www.w3.org/2000/svg" width="40" height="40" viewBox="0 0 40 40">
  <path d="M22.5151 0.02V0H7.04512C5.22512 0 3.74512 1.48 3.74512 3.3V36.69C3.74512 38.51 5.22512 39.99 7.04512 39.99H32.9451C34.7651 39.99 36.2451 38.51 36.2451 36.69V13.74L22.5151 0.02ZM32.9051 13.74H23.4451C22.9351 13.74 22.5151 13.33 22.5151 12.82V3.38L32.9051 13.74ZM20.1351 12.82C20.1351 14.64 21.6151 16.12 23.4351 16.12H33.8751V36.7C33.8751 37.21 33.4551 37.63 32.9451 37.63H7.04512C6.53512 37.63 6.11512 37.21 6.11512 36.7V3.3C6.11512 2.79 6.52512 2.37 7.04512 2.37H20.1351V12.81V12.82Z"/>
  <path d="M17.9853 8.22998H8.94531V10.15H17.9853V8.22998Z"/>
  <path d="M14.1253 12.47H8.94531V14.39H14.1253V12.47Z"/>
  <path d="M30.0354 20.92H15.4854V22.84H30.0354V20.92Z"/>
  <path d="M28.3354 29.33H15.4854V31.25H28.3354V29.33Z"/>
  <path d="M13.6253 19.54H9.44531C9.17531 19.54 8.94531 19.76 8.94531 20.04V24.22C8.94531 24.49 9.17531 24.72 9.44531 24.72H13.6253C13.8953 24.72 14.1253 24.49 14.1253 24.22V20.04C14.1253 19.76 13.8953 19.54 13.6253 19.54ZM13.4653 21.43L11.3653 23.53C11.3653 23.53 11.2553 23.6 11.1853 23.6C11.1153 23.6 11.0553 23.58 11.0153 23.53L9.61531 22.13C9.61531 22.13 9.54531 22.03 9.54531 21.96C9.54531 21.89 9.56531 21.83 9.61531 21.78L9.96531 21.43C9.96531 21.43 10.0753 21.36 10.1353 21.36C10.1953 21.36 10.2653 21.38 10.3053 21.43L11.1853 22.31L12.7653 20.73C12.7653 20.73 12.8753 20.66 12.9353 20.66C12.9953 20.66 13.0553 20.68 13.1053 20.73L13.4553 21.08C13.4553 21.08 13.5253 21.19 13.5253 21.26C13.5253 21.33 13.5053 21.39 13.4553 21.43H13.4653Z"/>
  <path d="M13.6253 27.7H9.44531C9.17531 27.7 8.94531 27.92 8.94531 28.2V32.38C8.94531 32.65 9.17531 32.88 9.44531 32.88H13.6253C13.8953 32.88 14.1253 32.65 14.1253 32.38V28.2C14.1253 27.92 13.8953 27.7 13.6253 27.7ZM13.4653 29.58L11.3653 31.68C11.3653 31.68 11.2553 31.75 11.1853 31.75C11.1153 31.75 11.0553 31.73 11.0153 31.68L9.61531 30.28C9.61531 30.28 9.54531 30.18 9.54531 30.11C9.54531 30.04 9.56531 29.98 9.61531 29.93L9.96531 29.58C9.96531 29.58 10.0753 29.51 10.1353 29.51C10.1953 29.51 10.2653 29.53 10.3053 29.58L11.1853 30.4599L12.7653 28.8799C12.7653 28.8799 12.8753 28.8099 12.9353 28.8099C12.9953 28.8099 13.0553 28.8299 13.1053 28.8799L13.4553 29.2299C13.4553 29.2299 13.5253 29.34 13.5253 29.41C13.5253 29.48 13.5053 29.54 13.4553 29.58H13.4653Z"/>
</svg>
