<svg xmlns="http://www.w3.org/2000/svg" version="1.1" x="0px" y="0px" viewBox="0 0 40 40" style="enable-background:new 0 0 40 40;">
  <path d="M22.31,3.28V3.26H8.1c-1.67,0-3.04,1.36-3.04,3.04v30.67C5.07,38.64,6.43,40,8.1,40H31.9c1.67,0,3.03-1.36,3.03-3.03     V15.88h-0.01l0.01-0.01L22.31,3.28z M31.85,15.88h-8.69c-0.47,0-0.85-0.38-0.85-0.85V6.36L31.85,15.88z M20.12,15.03     c0,1.67,1.36,3.03,3.04,3.03h9.59v18.9c0,0.47-0.38,0.85-0.85,0.85H8.1c-0.47,0-0.85-0.38-0.85-0.85V6.29     c0-0.47,0.38-0.85,0.85-0.85h12.02V15.03z"/>
  <path d="M15.26,10.73l0,5.81c0,0.81-0.58,1.56-1.39,1.63c-0.91,0.08-1.67-0.63-1.67-1.52l0-13.5c0-0.81,0.58-1.56,1.39-1.63   c0.91-0.08,1.67,0.63,1.67,1.52v0.58h1.5c0.01,0,0.02-0.01,0.02-0.02V3.2c0-1.6-1.17-3.05-2.77-3.19   c-1.81-0.16-3.33,1.26-3.33,3.04l0,13.45c0,1.6,1.17,3.05,2.77,3.19c1.81,0.16,3.33-1.26,3.33-3.04v-5.92   c0-0.42-0.34-0.76-0.76-0.76h0C15.6,9.97,15.26,10.31,15.26,10.73z"/>
</svg>
