<svg xmlns="http://www.w3.org/2000/svg" version="1.1" x="0px" y="0px" viewBox="0 0 40 40" style="enable-background:new 0 0 40 40;">
  <path d="M22.38,24.21L22.36,7.02c0.03-0.84,0.35-1.61,0.86-2.28c0.42-0.55,0.93-1,1.56-1.31c0.73-0.37,1.51-0.53,2.33-0.46    c1.5,0.12,2.64,0.84,3.45,2.1c0.47,0.73,0.66,1.55,0.66,2.41l0,17.67c0,0.74-0.55,1.38-1.32,1.45c-0.82,0.08-1.53-0.43-1.62-1.29    c-0.03-0.31-0.02-0.63-0.02-0.94l0-15.51c0-0.06,0-0.11-0.01-0.19c-0.98,0-1.95,0-2.97,0c0.01,0.09,0.03,0.15,0.03,0.21l0,16.18    c0.01,1.68,0.73,2.98,2.16,3.87c0.86,0.54,1.81,0.73,2.8,0.6c1.13-0.14,2.09-0.65,2.84-1.53c0.54-0.63,0.89-1.33,1-2.14    c0.07-0.51,0.06-1.03,0.07-1.55L34.13,6.88c-0.04-0.83-0.22-1.64-0.57-2.4c-0.28-0.62-0.62-1.2-1.04-1.74    c-0.44-0.56-0.96-1.02-1.54-1.42c-0.57-0.39-1.18-0.71-1.83-0.94C28.43,0.13,27.67,0.03,26.91,0c-0.86-0.03-1.71,0.11-2.52,0.39    c-0.86,0.29-1.63,0.73-2.33,1.3c-0.97,0.79-1.68,1.79-2.15,2.95c-0.36,0.89-0.54,1.83-0.52,2.8l0,12.37    C20.71,21.01,21.74,22.51,22.38,24.21z"/>
  <path d="M40,8.74c-0.99,0-1.96,0-2.94,0l0,17.38c0,0.61-0.09,1.22-0.24,1.81c-0.43,1.61-1.32,2.93-2.63,3.96    c-0.98,0.76-2.08,1.24-3.3,1.44c-1.01,0.17-2,0.1-2.99-0.13c-0.61-0.14-1.17-0.39-1.72-0.69c-0.56-0.31-1.07-0.67-1.54-1.12    c-0.56-0.53-1.01-1.14-1.39-1.81c-0.07-0.13-0.13-0.26-0.2-0.4c-0.12,1.33-0.49,2.59-1.04,3.74c0.61,0.69,1.29,1.3,2.08,1.78    c0.59,0.36,1.2,0.69,1.84,0.96c0.82,0.34,1.68,0.55,2.57,0.64c0.88,0.1,1.77,0.1,2.65-0.03c0.98-0.14,1.93-0.42,2.83-0.83    c0.86-0.39,1.66-0.9,2.38-1.51c0.55-0.46,1.05-0.99,1.49-1.57c0.63-0.84,1.15-1.73,1.51-2.71c0.41-1.1,0.63-2.24,0.64-3.42    l0-17.32C40,8.86,40,8.8,40,8.74z"/>
  <path d="M11.87,16.26C5.32,16.26,0,21.57,0,28.13C0,34.68,5.32,40,11.87,40s11.87-5.32,11.87-11.87     C23.74,21.57,18.43,16.26,11.87,16.26z M11.87,38.61c-5.79,0-10.48-4.69-10.48-10.48c0-5.79,4.69-10.48,10.48-10.48     s10.48,4.69,10.48,10.48C22.35,33.92,17.66,38.61,11.87,38.61z"/>
  <path d="M16.82,29.78h-3.3v3.3h-3.3v-3.3h-3.3v-3.3h3.3v-3.3h3.3v3.3h3.3V29.78z"/>
</svg>
