<svg xmlns="http://www.w3.org/2000/svg" version="1.1" x="0px" y="0px" viewBox="0 0 40 40" style="enable-background:new 0 0 40 40;">
  <path d="M33.35,14.35L20.42,27.28c-0.9,0.94-2.01,1.4-3.32,1.4c-1.22,0-2.25-0.42-3.09-1.27c-0.84-0.85-1.27-1.88-1.27-3.09   c0-1.3,0.47-2.41,1.4-3.31l9.12-9.12c0.15-0.15,0.31-0.22,0.49-0.22c0.24,0,0.59,0.23,1.04,0.69c0.46,0.46,0.69,0.81,0.69,1.05   c0,0.18-0.07,0.34-0.22,0.49L16.15,23c-0.37,0.4-0.56,0.84-0.56,1.31c0,0.43,0.14,0.79,0.42,1.07c0.28,0.28,0.64,0.42,1.07,0.42   c0.5,0,0.95-0.18,1.34-0.53l12.93-12.93c0.93-0.94,1.4-2.01,1.4-3.23c0-0.95-0.31-1.74-0.93-2.36c-0.62-0.62-1.41-0.93-2.36-0.93   c-1.22,0-2.29,0.47-3.23,1.4L8.96,24.52c-1.13,1.13-1.69,2.47-1.69,4.03c0,1.57,0.54,2.92,1.62,4.03c1.08,1.11,2.41,1.67,3.98,1.67   c1.51,0,2.86-0.57,4.03-1.71l13.49-13.51c0.15-0.15,0.32-0.22,0.51-0.22c0.24,0,0.58,0.23,1.03,0.68c0.45,0.45,0.68,0.8,0.68,1.03   c0,0.18-0.07,0.34-0.22,0.49L18.93,34.49C17.23,36.16,15.2,37,12.86,37c-2.36,0-4.35-0.82-5.99-2.47   c-1.63-1.65-2.45-3.65-2.45-6.01c0-2.31,0.84-4.32,2.51-6.03L24.23,5.23C25.71,3.74,27.46,3,29.46,3c1.74,0,3.19,0.59,4.36,1.76   c1.17,1.17,1.76,2.63,1.76,4.36C35.58,11.15,34.84,12.89,33.35,14.35z"/>
</svg>
