<svg xmlns="http://www.w3.org/2000/svg" version="1.1" x="0px" y="0px" viewBox="0 0 40 40" style="enable-background:new 0 0 40 40;">
  <path d="M20,3.03c0.12,0,0.25,0.04,0.36,0.11c2.79,1.76,7.3,3.51,14.47,4.04c0.36,0.03,0.64,0.32,0.64,0.68v18.17    c0,0.29-0.09,0.57-0.27,0.82c-0.48,0.68-1.4,1.78-3.03,3.16c-2.75,2.33-6.49,4.59-11.12,6.74c-0.33,0.15-0.69,0.23-1.05,0.23    c-0.36,0-0.72-0.08-1.05-0.23c-4.64-2.15-8.37-4.41-11.12-6.74c-1.47-1.24-2.36-2.26-2.87-2.94c-0.28-0.37-0.42-0.8-0.42-1.24    V7.85c0-0.36,0.28-0.65,0.64-0.68c7.17-0.53,11.68-2.28,14.47-4.04C19.75,3.07,19.88,3.03,20,3.03 M20,0    c-0.7,0-1.38,0.2-1.98,0.57c-2.14,1.35-6.15,3.07-13.07,3.58C3.02,4.29,1.5,5.92,1.5,7.85v17.96c0,1.1,0.36,2.16,1.03,3.06    c0.83,1.11,1.96,2.27,3.34,3.44c2.96,2.5,6.93,4.91,11.81,7.17C18.4,39.82,19.2,40,20,40c0.8,0,1.6-0.18,2.32-0.51    c4.88-2.26,8.85-4.68,11.81-7.17c1.88-1.58,2.96-2.9,3.55-3.72c0.54-0.76,0.82-1.65,0.82-2.57V7.85c0-1.93-1.52-3.56-3.45-3.7    c-6.92-0.51-10.93-2.23-13.07-3.58C21.38,0.2,20.7,0,20,0L20,0z"/>
  <path d="M30.2,15.53c0-0.37-0.12-0.67-0.36-0.91l-1.8-1.78c-0.25-0.25-0.55-0.38-0.89-0.38c-0.34,0-0.64,0.13-0.89,0.38    l-8.07,8.04l-4.47-4.47c-0.25-0.25-0.55-0.37-0.89-0.37c-0.34,0-0.64,0.12-0.89,0.37l-1.8,1.78c-0.24,0.24-0.35,0.54-0.35,0.91    c0,0.36,0.12,0.65,0.35,0.89l7.16,7.15c0.25,0.25,0.54,0.38,0.89,0.38c0.36,0,0.66-0.13,0.91-0.38l10.73-10.73    C30.08,16.19,30.2,15.89,30.2,15.53z"/>
</svg>
