<svg xmlns="http://www.w3.org/2000/svg" version="1.1" x="0px" y="0px" viewBox="0 0 40 40" style="enable-background:new 0 0 40 40;">
  <path d="M30.81,40c-0.17,0-0.34-0.03-0.5-0.09l-10.25-3.27l-0.02,0.01l-0.12-0.01L9.77,39.87c-0.39,0.16-0.91,0.1-1.29-0.16    c-0.34-0.23-0.53-0.58-0.53-0.97v-6.24c0-0.26,0.21-0.47,0.47-0.47h0.43c0.26,0,0.47,0.21,0.47,0.47v6.04l0.02,0l10.16-3.23    c0.3-0.12,0.69-0.12,1.03,0.02l10.13,3.23v-6.06c0-0.26,0.21-0.47,0.47-0.47h0.43c0.26,0,0.47,0.21,0.47,0.47v6.36    c0,0.37-0.18,0.7-0.5,0.91C31.33,39.92,31.07,40,30.81,40z"/>
  <path d="M24.21,33.16c-1.11,0-2.09-0.47-2.96-0.88c-0.39-0.19-1.03-0.5-1.25-0.5c-0.22,0.01-0.88,0.33-1.24,0.5    c-0.87,0.42-1.85,0.89-2.97,0.89c-0.39,0-0.77-0.06-1.13-0.18c-1.6-0.52-2.35-1.92-2.95-3.05c-0.18-0.33-0.5-0.94-0.66-1.07    c-0.17-0.1-0.83-0.22-1.23-0.3c-1.25-0.23-2.8-0.51-3.78-1.85c-0.97-1.34-0.76-2.89-0.59-4.15c0.06-0.41,0.15-1.1,0.09-1.3    c-0.07-0.17-0.52-0.64-0.79-0.91c-0.84-0.88-2-2.08-2-3.78c0-1.7,1.11-2.85,2-3.78c0.25-0.26,0.72-0.75,0.8-0.93    C5.6,11.68,5.51,11,5.45,10.6C5.28,9.34,5.07,7.78,6.05,6.44C7.03,5.1,8.58,4.82,9.82,4.59c0.4-0.07,1.07-0.19,1.25-0.31    c0.15-0.12,0.46-0.71,0.65-1.06c0.6-1.13,1.35-2.53,2.95-3.05C15.03,0.06,15.41,0,15.79,0c1.12,0,2.1,0.47,2.96,0.89    c0.39,0.18,1.02,0.49,1.24,0.5c0.22-0.01,0.88-0.33,1.24-0.5C22.11,0.47,23.09,0,24.2,0c0.39,0,0.77,0.06,1.12,0.17    c1.6,0.52,2.38,1.98,2.95,3.05c0.19,0.36,0.5,0.94,0.66,1.07c0.17,0.1,0.83,0.22,1.23,0.3c1.25,0.23,2.8,0.51,3.78,1.85    c0.97,1.34,0.76,2.89,0.59,4.14c-0.05,0.39-0.15,1.1-0.09,1.3c0.07,0.17,0.52,0.63,0.79,0.91c0.89,0.93,2,2.08,2,3.78    c0,1.7-1.16,2.9-2,3.78c-0.27,0.28-0.72,0.75-0.8,0.93c-0.05,0.19,0.04,0.9,0.1,1.28c0.17,1.25,0.38,2.81-0.59,4.15    c-0.98,1.35-2.53,1.63-3.78,1.85c-0.4,0.07-1.07,0.19-1.24,0.31c-0.15,0.13-0.46,0.71-0.65,1.06c-0.6,1.13-1.35,2.53-2.95,3.05    C24.97,33.1,24.6,33.16,24.21,33.16z M20,29.73c0.67,0,1.41,0.36,2.13,0.7c0.94,0.45,1.85,0.85,2.57,0.61    c0.82-0.27,1.31-1.18,1.78-2.06c0.38-0.71,0.74-1.38,1.25-1.76c0.52-0.38,1.28-0.52,2.07-0.66c0.98-0.18,2-0.36,2.5-1.04    c0.49-0.67,0.35-1.69,0.22-2.67c-0.1-0.77-0.21-1.58-0.01-2.2c0.19-0.59,0.71-1.13,1.26-1.7c0.71-0.73,1.43-1.49,1.43-2.37    c0-0.88-0.73-1.63-1.43-2.36c-0.55-0.57-1.07-1.11-1.26-1.7c-0.2-0.63-0.09-1.43,0.01-2.2c0.13-0.98,0.27-2-0.22-2.67    c-0.5-0.68-1.51-0.87-2.49-1.04c-0.8-0.14-1.56-0.28-2.08-0.66c-0.51-0.37-0.87-1.04-1.25-1.75c-0.48-0.9-0.97-1.81-1.78-2.08    c-0.15-0.05-0.32-0.07-0.49-0.07c-0.65,0-1.34,0.33-2.08,0.69c-0.71,0.34-1.45,0.7-2.13,0.7c-0.67,0-1.41-0.35-2.12-0.7    c-0.74-0.35-1.43-0.69-2.08-0.69c-0.18,0-0.34,0.03-0.5,0.07c-0.82,0.27-1.31,1.18-1.78,2.07c-0.38,0.71-0.74,1.38-1.25,1.76    c-0.52,0.38-1.28,0.52-2.08,0.66C9.21,6.78,8.2,6.96,7.7,7.64c-0.49,0.67-0.35,1.69-0.22,2.67c0.11,0.82,0.21,1.58,0.01,2.2    c-0.19,0.59-0.71,1.13-1.26,1.7c-0.7,0.73-1.43,1.48-1.43,2.36c0,0.88,0.73,1.63,1.43,2.36c0.55,0.57,1.07,1.11,1.26,1.7    c0.2,0.62,0.1,1.38-0.01,2.19c-0.13,0.99-0.27,2.01,0.22,2.68c0.5,0.68,1.51,0.87,2.49,1.04c0.8,0.14,1.56,0.28,2.08,0.66    c0.52,0.37,0.87,1.05,1.25,1.76c0.47,0.88,0.96,1.8,1.78,2.06c0.73,0.24,1.64-0.16,2.56-0.61C18.59,30.09,19.32,29.73,20,29.73z"/>
</svg>
