<svg xmlns="http://www.w3.org/2000/svg" version="1.1" x="0px" y="0px" viewBox="0 0 40 40" style="enable-background:new 0 0 40 40;">
  <path d="M31.81,11.75c-1.03,0.15-2.07,0.3-3.1,0.46c-0.97,0.14-1.94,0.28-2.91,0.42c-1.02,0.15-2.03,0.3-3.05,0.45   c-1.05,0.16-2.1,0.32-3.15,0.47c-1.02,0.14-2.04,0.26-3.06,0.41c-1.2,0.17-2.41,0.37-3.61,0.56c-0.16,0.02-0.32,0.03-0.53,0.05   c0,8.49,0,16.97,0,25.45c0.16,0,0.32,0,0.48,0c0.72-0.13,1.44-0.27,2.16-0.38c0.95-0.15,1.91-0.29,2.86-0.43   c0.97-0.15,1.94-0.29,2.91-0.44c0.94-0.14,1.87-0.29,2.81-0.43c0.97-0.15,1.94-0.29,2.91-0.44c0.94-0.14,1.87-0.29,2.81-0.43   c0.97-0.15,1.94-0.3,2.91-0.44c0.87-0.13,1.75-0.26,2.62-0.39c0-8.43,0-16.85,0-25.28C33.85,11.47,32.83,11.6,31.81,11.75z"/>
  <path d="M5.13,12.11c0,7.91,0,15.82,0,23.73c1.66,1.19,3.31,2.38,5.02,3.61c0-8.44,0-16.76,0-25.08c-0.69-0.32-1.35-0.66-2.03-0.96   C7.13,12.96,6.13,12.54,5.13,12.11z"/>
  <path d="M15.66,3.19C15.79,3.13,15.9,3.03,16,2.93c0.59-0.64,1.15-1.3,1.75-1.93c0.29-0.3,0.63-0.55,0.96-0.83   C18.55,0.1,18.43,0.05,18.31,0c-0.55,0-1.1,0-1.65,0c-0.16,0.03-0.32,0.07-0.49,0.1c-2.98,0.71-4.93,2.59-6.1,5.36   C9.7,6.36,9.47,7.29,9.49,8.27c0.02,1.04,0,2.08,0,3.14c0.76-0.1,1.58-0.18,2.39-0.32c0.1-0.02,0.21-0.28,0.22-0.44   c0.05-0.99,0-2,0.12-2.98C12.49,5.53,13.7,4.06,15.66,3.19z"/>
  <path d="M16.28,11.71c0.83-0.1,1.6-0.19,2.37-0.28c0.24-0.03,0.35-0.15,0.34-0.42c-0.02-0.66,0-1.32-0.01-1.98   c-0.01-2.23,0.91-3.97,2.79-5.16c1.31-0.83,2.9-0.99,4.33-0.01c1.25,0.85,1.71,2.12,1.79,3.56c0.05,0.88,0.01,1.76,0.01,2.67   c0.91-0.13,1.75-0.24,2.52-0.35c0-1.4,0.11-2.77-0.03-4.12c-0.19-1.86-1.16-3.33-2.72-4.37c-1.73-1.15-3.61-1.24-5.51-0.6   C19.52,1.55,17.84,3.45,16.85,6C16.14,7.83,16.27,9.76,16.28,11.71z"/>
</svg>
