<svg xmlns="http://www.w3.org/2000/svg" version="1.1" x="0px" y="0px" viewBox="0 0 40 40" style="enable-background:new 0 0 40 40;">
  <path d="M18.92,25.65c0-0.25-0.08-0.46-0.25-0.62l-1.24-1.22c-0.17-0.17-0.38-0.26-0.61-0.26c-0.24,0-0.44,0.09-0.61,0.26     l-5.54,5.53l-3.07-3.07C7.44,26.09,7.23,26.01,7,26.01s-0.44,0.09-0.61,0.26l-1.24,1.22c-0.16,0.16-0.24,0.37-0.24,0.62     c0,0.25,0.08,0.45,0.24,0.61l4.92,4.92c0.17,0.17,0.37,0.26,0.61,0.26c0.25,0,0.45-0.09,0.63-0.26l7.37-7.37     C18.84,26.1,18.92,25.9,18.92,25.65z"/>
  <path d="M11.91,16.26c-6.56,0-11.87,5.32-11.87,11.87C0.04,34.68,5.36,40,11.91,40s11.87-5.32,11.87-11.87   C23.79,21.57,18.47,16.26,11.91,16.26z M11.91,38.61c-5.79,0-10.48-4.69-10.48-10.48c0-5.79,4.69-10.48,10.48-10.48   S22.4,22.34,22.4,28.13C22.4,33.92,17.7,38.61,11.91,38.61z"/>
  <path d="M39.96,9.08l-9.09-9.06V0H20.65c-1.21,0-2.18,0.98-2.18,2.18v1.25h1.57V2.18c0-0.34,0.27-0.61,0.61-0.61h8.65V5.3   l1.57,1.57V2.24l6.87,6.85H33.1l1.58,1.57h3.71v13.6c0,0.34-0.28,0.61-0.61,0.61h-1.25v1.57h1.25c1.2,0,2.18-0.98,2.18-2.18   L39.96,9.08L39.96,9.08L39.96,9.08z"/>
  <path d="M36.53,12.51l-9.09-9.06V3.43H17.22c-1.21,0-2.18,0.98-2.18,2.18v11.07c0.54,0.15,1.07,0.32,1.57,0.54V5.62   c0-0.34,0.27-0.61,0.61-0.61h8.65v6.9c0,1.2,0.98,2.18,2.18,2.18h6.9v13.6c0,0.34-0.28,0.61-0.61,0.61H23.78   c-0.01,0.53-0.06,1.06-0.13,1.57h10.7c1.2,0,2.18-0.98,2.18-2.18L36.53,12.51L36.53,12.51L36.53,12.51z M28.05,12.52   c-0.34,0-0.61-0.27-0.61-0.61V5.67l6.87,6.85H28.05z"/>
</svg>
