<svg xmlns="http://www.w3.org/2000/svg" version="1.1" x="0px" y="0px" viewBox="0 0 40 40" style="enable-background:new 0 0 40 40;">
  <path d="M31.96,0H8.04C3.6,0,0,3.6,0,8.04v23.92C0,36.4,3.6,40,8.04,40h23.92C36.4,40,40,36.4,40,31.96V8.04C40,3.6,36.4,0,31.96,0z   M22.19,27c-0.43,3.42-2.24,5.84-5.52,6.92c-4.49,1.47-9.46-1.8-9.89-6.53c-0.21-2.26-0.04-4.56-0.04-6.85c-0.03,0-0.06,0-0.09,0  c0-1.99-0.01-3.98,0-5.97c0.01-0.91,0.38-1.64,1.23-2.06c0.85-0.41,1.68-0.36,2.47,0.16c0.73,0.48,0.95,1.2,0.95,2.04  c-0.01,3.66,0,7.33,0,10.99c0,0.97,0.15,1.88,0.81,2.65c0.95,1.09,2.4,1.42,3.63,0.83c1.32-0.63,2.1-2.18,1.83-3.64  c-0.25-1.38-1.19-2.19-2.73-2.33c-0.29-0.03-0.59,0-0.88-0.05c-1.11-0.18-1.89-1.21-1.83-2.4c0.06-1.27,0.88-2.16,2.07-2.24  C19.02,18.2,22.8,22.2,22.19,27z M28.63,24.35c-1.18,0-2.31,0-3.5,0c-0.08-2.37-0.87-4.43-2.54-6.12c-1.67-1.69-3.72-2.51-6.11-2.59  c0-1.18,0-2.34,0-3.49C22.85,11.78,28.95,17.74,28.63,24.35z M34.54,24.37c-1.02,0-2.04,0-3.12,0c-0.1-4.13-1.5-7.69-4.4-10.61  c-2.88-2.9-6.41-4.34-10.53-4.44c0-1.17,0-2.33,0-3.57c4.69,0.04,8.81,1.59,12.29,4.72c4.09,3.68,6.1,8.33,6.23,13.87  C34.81,24.36,34.67,24.37,34.54,24.37z"/>
</svg>
