<svg xmlns="http://www.w3.org/2000/svg" width="16" height="16" viewBox="0 0 16 16" fill="none">
  <path d="M9.91352 4.73529C9.74956 4.51935 9.65359 4.36739 9.53362 4.24342C8.43389 3.13169 7.34216 2.00797 6.21845 0.920247C5.14671 -0.119493 3.47913 -0.0915004 2.4034 0.94824C1.95151 1.38413 1.51162 1.83602 1.06773 2.27991C-0.155961 3.5036 -0.163959 5.13119 1.05574 6.36689C2.07548 7.39863 3.10322 8.41837 4.13097 9.43812C4.29093 9.59808 4.47488 9.73004 4.72282 9.93399C4.77481 9.19418 4.83479 8.54634 4.85479 7.8985C4.85879 7.73454 4.7868 7.5226 4.67083 7.40263C3.91502 6.61882 3.13522 5.85501 2.36741 5.08321C1.84354 4.55534 1.84754 4.08746 2.37941 3.55559C2.77931 3.15569 3.17521 2.75579 3.57911 2.36389C4.09098 1.86801 4.57886 1.87201 5.08673 2.37988C5.85854 3.14769 6.62634 3.9235 7.39815 4.6913C7.48613 4.77528 7.6061 4.89525 7.70208 4.89125C8.4019 4.85926 9.10173 4.79928 9.90952 4.73929L9.91352 4.73529ZM6.07848 11.2897C6.25444 11.5136 6.35041 11.6616 6.47438 11.7855C7.57411 12.8973 8.66583 14.021 9.78955 15.1047C10.8613 16.1404 12.5289 16.1085 13.6046 15.0647C14.0565 14.6288 14.4964 14.1769 14.9403 13.733C16.148 12.5253 16.164 10.8898 14.9643 9.67406C13.9365 8.63432 12.9008 7.60258 11.865 6.57483C11.7091 6.41887 11.5211 6.2909 11.2812 6.09095C11.2292 6.81877 11.1692 7.45461 11.1492 8.09045C11.1452 8.26641 11.2212 8.49035 11.3412 8.61832C12.105 9.41412 12.8928 10.1859 13.6646 10.9697C14.1405 11.4536 14.1365 11.9375 13.6646 12.4174C13.2607 12.8293 12.8488 13.2332 12.4369 13.6371C11.909 14.1569 11.4211 14.1569 10.9013 13.6371C10.1295 12.8693 9.36166 12.0935 8.58985 11.3256C8.50587 11.2417 8.3819 11.1297 8.28193 11.1337C7.5821 11.1657 6.88228 11.2257 6.07848 11.2857V11.2897ZM11.997 4.36339C12.121 4.26741 12.2329 4.20343 12.3209 4.11945C13.0727 3.37163 13.8245 2.61982 14.5724 1.87201C14.7243 1.72005 14.8723 1.55209 14.6723 1.34814C14.4564 1.1242 14.2844 1.29215 14.1245 1.45211C13.6646 1.912 13.2007 2.37588 12.7408 2.83577C12.4329 3.14369 12.117 3.44362 11.825 3.76354C11.7491 3.84752 11.7171 4.01547 11.7411 4.13144C11.7571 4.21542 11.893 4.27541 11.997 4.36339ZM4.34691 12.0175C4.26693 11.9175 4.20295 11.7615 4.13497 11.7615C3.991 11.7575 3.80305 11.7895 3.70707 11.8815C2.93527 12.6293 2.18345 13.3931 1.42364 14.1529C1.27168 14.3049 1.12772 14.4729 1.32767 14.6768C1.52362 14.8768 1.69558 14.7488 1.85154 14.5928C2.61135 13.833 3.37116 13.0732 4.12697 12.3134C4.20695 12.2334 4.26293 12.1334 4.35091 12.0175H4.34691ZM14.1685 5.23917C13.6846 5.23917 13.1967 5.21517 12.7128 5.25516C12.5729 5.26716 12.4449 5.45111 12.3129 5.55509C12.4489 5.65506 12.5849 5.83902 12.7248 5.84302C13.6846 5.86701 14.6403 5.86701 15.6001 5.84302C15.7361 5.84302 15.868 5.64707 16 5.54309C15.864 5.44312 15.7321 5.26716 15.5881 5.25516C15.1162 5.21917 14.6443 5.24317 14.1725 5.24317L14.1685 5.23917ZM1.82754 10.7778C2.31142 10.7778 2.7993 10.8018 3.28318 10.7618C3.42314 10.7498 3.55111 10.5698 3.68708 10.4659C3.55111 10.3659 3.41515 10.1779 3.27918 10.1739C2.31942 10.1499 1.36366 10.1499 0.403899 10.1739C0.267933 10.1739 0.135966 10.3659 0 10.4699C0.135966 10.5698 0.267933 10.7498 0.411897 10.7578C0.883779 10.7938 1.35566 10.7698 1.82754 10.7698V10.7778ZM5.22669 14.1249C5.22669 14.6088 5.2027 15.0967 5.23869 15.5806C5.25069 15.7285 5.39865 15.9645 5.51862 15.9845C5.77056 16.0285 5.84254 15.8125 5.84254 15.5806C5.84254 14.6368 5.85454 13.6891 5.82654 12.7453C5.82654 12.6013 5.66658 12.3614 5.54661 12.3414C5.29468 12.2974 5.2187 12.5133 5.22269 12.7453C5.22669 13.2052 5.22269 13.6651 5.22269 14.1249H5.22669Z"/>
  <path d="M10.6133 0.00976562C10.6653 0.173725 10.7573 0.337684 10.7613 0.501643C10.7773 1.41341 10.7653 2.32119 10.7693 3.23296C10.7693 3.4729 10.7333 3.70084 10.4413 3.68885C10.1774 3.67685 10.1494 3.4569 10.1494 3.23296C10.1534 2.32119 10.1454 1.41341 10.1574 0.501643C10.1574 0.337684 10.2534 0.173725 10.3054 0.00976563C10.4093 0.00976563 10.5093 0.00976562 10.6133 0.00976562Z"/>
  <path d="M9.91349 4.73734C9.10969 4.79732 8.40986 4.85731 7.70604 4.8893C7.60607 4.8933 7.4861 4.77733 7.40212 4.68935C6.62631 3.92154 5.8625 3.14974 5.09069 2.37793C4.58282 1.87405 4.09494 1.86606 3.58307 2.36193C3.17917 2.75383 2.77927 3.15373 2.38337 3.55363C1.8515 4.0855 1.8475 4.55339 2.37137 5.08125C3.13918 5.85306 3.91899 6.61687 4.6748 7.40067C4.78677 7.51664 4.86275 7.72859 4.85875 7.89655C4.83876 8.54439 4.77877 9.19223 4.72679 9.93204C4.48285 9.72809 4.29489 9.59612 4.13493 9.43616C3.10719 8.41642 2.07945 7.39268 1.0597 6.36493C-0.159993 5.12924 -0.151995 3.50165 1.0717 2.27795C1.51559 1.83406 1.95548 1.38618 2.40737 0.946287C3.4831 -0.0934535 5.15068 -0.121446 6.22241 0.918294C7.34613 2.00602 8.43786 3.12974 9.53758 4.24146C9.66155 4.36543 9.75353 4.51739 9.91749 4.73334L9.91349 4.73734Z"/>
  <path d="M6.07812 11.2904C6.88192 11.2304 7.57775 11.1704 8.28157 11.1384C8.38155 11.1344 8.50552 11.2464 8.5895 11.3304C9.3653 12.0982 10.1291 12.87 10.9009 13.6418C11.4208 14.1617 11.9087 14.1617 12.4365 13.6418C12.8484 13.2379 13.2603 12.834 13.6642 12.4221C14.1361 11.9422 14.1401 11.4584 13.6642 10.9745C12.8924 10.1867 12.1006 9.41887 11.3408 8.62307C11.2208 8.4991 11.1409 8.27116 11.1489 8.0952C11.1649 7.45936 11.2288 6.82352 11.2808 6.0957C11.5248 6.29565 11.7087 6.42362 11.8647 6.57958C12.9004 7.60733 13.9402 8.63907 14.9639 9.67881C16.1636 10.8945 16.1476 12.5301 14.9399 13.7378C14.496 14.1817 14.0561 14.6296 13.6042 15.0695C12.5285 16.1132 10.8649 16.1452 9.7892 15.1094C8.66548 14.0217 7.57375 12.898 6.47403 11.7903C6.35006 11.6663 6.25408 11.5143 6.07812 11.2944V11.2904Z"/>
  <path d="M11.9966 4.36375C11.8926 4.27577 11.7566 4.21579 11.7406 4.13181C11.7206 4.01584 11.7486 3.84788 11.8246 3.7639C12.1125 3.43998 12.4325 3.14405 12.7404 2.83613C13.2003 2.37625 13.6641 1.91636 14.124 1.45248C14.284 1.29252 14.4559 1.12456 14.6719 1.3485C14.8718 1.55245 14.7239 1.72041 14.5719 1.87237C13.8201 2.62418 13.0723 3.372 12.3205 4.11981C12.2325 4.20779 12.1245 4.27177 11.9966 4.36375Z"/>
  <path d="M4.34679 12.0199C4.25881 12.1359 4.20283 12.2359 4.12285 12.3159C3.36704 13.0797 2.60723 13.8355 1.84742 14.5953C1.69146 14.7513 1.5195 14.8792 1.32355 14.6793C1.1236 14.4753 1.26756 14.3114 1.41952 14.1554C2.17933 13.3956 2.93115 12.6318 3.70295 11.884C3.79893 11.792 3.98688 11.76 4.13085 11.764C4.19883 11.764 4.26281 11.92 4.34279 12.0199H4.34679Z"/>
  <path d="M14.1642 5.24001C14.6361 5.24001 15.112 5.21601 15.5799 5.252C15.7238 5.264 15.8558 5.43996 15.9918 5.53993C15.8598 5.64391 15.7278 5.83586 15.5919 5.83986C14.6361 5.86785 13.6763 5.86785 12.7166 5.83986C12.5766 5.83986 12.4407 5.6519 12.3047 5.55193C12.4367 5.44795 12.5646 5.264 12.7046 5.252C13.1885 5.21601 13.6763 5.23601 14.1602 5.23601L14.1642 5.24001Z"/>
  <path d="M1.82754 10.779C1.35566 10.779 0.87978 10.803 0.411897 10.7671C0.267933 10.7551 0.135966 10.5791 0 10.4751C0.131967 10.3711 0.263934 10.1832 0.403899 10.1792C1.35966 10.1512 2.31942 10.1512 3.27918 10.1792C3.41915 10.1792 3.55111 10.3672 3.68708 10.4711C3.55511 10.5751 3.42714 10.7591 3.28318 10.7671C2.7993 10.803 2.31142 10.783 1.82754 10.783V10.779Z"/>
  <path d="M5.22649 14.1252C5.22649 13.6653 5.22649 13.2055 5.22649 12.7456C5.22649 12.5136 5.29847 12.2977 5.55041 12.3417C5.66638 12.3617 5.82634 12.6016 5.83034 12.7456C5.85434 13.6893 5.84234 14.6371 5.84634 15.5809C5.84634 15.8128 5.77436 16.0288 5.52242 15.9848C5.40645 15.9648 5.25448 15.7288 5.24249 15.5809C5.2065 15.097 5.23049 14.6091 5.23049 14.1252H5.22649Z"/>
</svg>
