<svg xmlns="http://www.w3.org/2000/svg" version="1.1" x="0px" y="0px" viewBox="0 0 40 40" style="enable-background:new 0 0 40 40;">
  <path d="M20,18.94c2.38,0,4.41-0.92,6.09-2.77c1.68-1.85,2.52-4.08,2.52-6.7c0-2.61-0.84-4.84-2.52-6.7C24.41,0.92,22.38,0,20,0   c-2.37,0-4.4,0.92-6.08,2.77c-1.68,1.85-2.52,4.08-2.52,6.7c0,2.61,0.84,4.84,2.52,6.7C15.59,18.01,17.62,18.94,20,18.94z"/>
  <path d="M36.86,31.28c-0.06-0.81-0.17-1.68-0.34-2.62c-0.17-0.94-0.38-1.81-0.64-2.61c-0.26-0.8-0.6-1.58-1.04-2.34   c-0.43-0.76-0.93-1.41-1.49-1.95c-0.56-0.54-1.25-0.97-2.06-1.29c-0.81-0.32-1.71-0.48-2.68-0.48c-0.14,0-0.48,0.18-1.01,0.52   c-0.53,0.34-1.13,0.73-1.79,1.15c-0.3,0.2-0.66,0.38-1.05,0.56l-2.41,7.78l-1.41-4.19c0,0,0.94-0.29,0.94-1.06   c0-0.96-0.59-1.35-1.4-1.44c-0.04,0-0.08,0-0.11,0c0.01,0,0.03,0,0.04,0h-0.1c-0.1,0-0.21,0.01-0.31,0.01   c-0.1,0-0.21-0.01-0.31-0.01h-0.1c0.01,0,0.03,0,0.04,0c-0.04,0-0.08,0-0.11,0c-0.81,0.09-1.4,0.48-1.4,1.44   c0,0.79,0.94,1.06,0.94,1.06l-1.18,4.19l-2.58-7.74c-0.42-0.19-0.79-0.39-1.12-0.59c-0.66-0.42-1.26-0.81-1.79-1.15   c-0.53-0.34-0.87-0.52-1.01-0.52c-0.98,0-1.87,0.16-2.68,0.48c-0.81,0.32-1.49,0.75-2.06,1.29c-0.56,0.54-1.06,1.19-1.49,1.95   c-0.44,0.76-0.78,1.54-1.04,2.34c-0.26,0.8-0.47,1.67-0.64,2.61c-0.17,0.94-0.28,1.81-0.34,2.62c-0.06,0.81-0.08,1.64-0.08,2.49   c0,1.93,0.59,3.45,1.76,4.56C5.99,39.44,7.54,40,9.48,40h21.03c1.94,0,3.5-0.56,4.67-1.67c1.17-1.12,1.76-2.64,1.76-4.56   C36.94,32.92,36.91,32.09,36.86,31.28z"/>
</svg>
