<svg xmlns="http://www.w3.org/2000/svg" version="1.1" x="0px" y="0px" viewBox="0 0 40 40" style="enable-background:new 0 0 40 40;">
  <path d="M0,34.61c0-8.65,0-17.29,0-25.94c0.12-0.44,0.21-0.88,0.37-1.31C1.5,4.27,4.83,2.54,8.28,3.28c0,0.13,0,0.28,0,0.42    C8.28,4.9,8.25,6.12,8.3,7.33c0.08,1.75,1.33,3.2,3.05,3.46c0.87,0.13,1.76,0.09,2.65,0.08c1.8-0.02,3.4-1.38,3.58-3.18    c0.13-1.3,0.06-2.63,0.08-3.94c0-0.16,0-0.33,0-0.51c1.84,0,3.63,0,5.46,0c0,0.16,0,0.3,0,0.44c0.01,1.21-0.03,2.42,0.02,3.63    c0.07,1.77,1.32,3.21,3.07,3.49c0.81,0.13,1.66,0.08,2.49,0.08c2.08,0,3.7-1.55,3.78-3.63c0.04-1.2,0.02-2.4,0.02-3.59    c0-0.14,0-0.27,0-0.43c0.49,0,0.92,0,1.35,0C37.19,3.24,40,6.06,40,9.39c0,8.15,0,16.3,0,24.46c0,3.34-2.81,6.15-6.15,6.15    c-9.21,0-18.41,0-27.62,0c-2.79,0-5.23-1.84-6-4.54C0.15,35.18,0.08,34.9,0,34.61z M20.02,13.87c-4.92,0-9.84,0.02-14.77-0.02    c-1.23-0.01-2.15,0.78-2.15,2.16c0.02,5.83,0,11.67,0.02,17.5c0,0.43,0.07,0.89,0.21,1.3c0.46,1.34,1.62,2.07,3.2,2.07    c4.06,0,8.13,0,12.19,0c4.91,0,9.82,0,14.73,0c2.08,0,3.42-1.29,3.42-3.33c0.01-5.87,0-11.75,0.01-17.62    c0-1.33-0.95-2.09-2.1-2.08C29.87,13.89,24.95,13.87,20.02,13.87z"/>
  <path d="M14.38,0c0.56,0.26,1.08,0.58,1.29,1.21c0.07,0.22,0.11,0.46,0.11,0.69c0.01,1.72,0,3.44,0,5.16    c0,1.09-0.65,1.87-1.71,1.95c-0.77,0.06-1.56,0.05-2.34-0.03c-0.91-0.09-1.56-0.89-1.56-1.81c0-1.73,0-3.46,0-5.2    c0-0.95,0.39-1.52,1.28-1.89c0.04-0.02,0.08-0.06,0.12-0.08C12.5,0,13.44,0,14.38,0z"/>
  <path d="M29.22,0c0.56,0.26,1.08,0.58,1.29,1.21c0.07,0.22,0.11,0.46,0.11,0.69c0.01,1.72,0,3.44,0,5.16    c0,1.09-0.65,1.87-1.71,1.95c-0.75,0.06-1.51,0.05-2.26-0.01c-0.98-0.09-1.64-0.88-1.64-1.86c0-1.72,0-3.44,0-5.16    c0-0.95,0.39-1.52,1.28-1.89c0.04-0.02,0.08-0.06,0.12-0.08C27.35,0,28.29,0,29.22,0z"/>
  <path d="M12.96,20.38c0,0.55,0,1.09,0,1.64c-0.01,0.99-0.82,1.8-1.82,1.8c-1.08,0-2.16,0.01-3.24,0c-0.99-0.01-1.8-0.82-1.8-1.82    c0-1.08-0.01-2.16,0-3.24c0.01-0.99,0.82-1.8,1.82-1.8c1.08,0,2.16-0.01,3.24,0c0.99,0.01,1.8,0.82,1.8,1.82    C12.97,19.32,12.96,19.85,12.96,20.38z"/>
  <path d="M23.36,20.39c0,0.55,0,1.09,0,1.64c-0.01,0.97-0.82,1.79-1.79,1.79c-1.09,0.01-2.18,0.01-3.28,0    c-0.97-0.01-1.79-0.82-1.79-1.79c-0.01-1.09-0.01-2.18,0-3.28c0.01-0.97,0.82-1.79,1.79-1.79c1.09-0.01,2.18-0.01,3.28,0    c0.97,0.01,1.78,0.82,1.79,1.79C23.36,19.3,23.36,19.85,23.36,20.39z"/>
  <path d="M30.29,23.83c-0.53,0-1.07,0-1.6,0c-1-0.01-1.8-0.82-1.81-1.82c0-1.08-0.01-2.16,0-3.24c0.01-1,0.82-1.8,1.82-1.81    c1.08,0,2.16-0.01,3.24,0c1,0.01,1.8,0.82,1.81,1.82c0,1.08,0.01,2.16,0,3.24c-0.01,1-0.82,1.8-1.82,1.81    C31.39,23.83,30.84,23.83,30.29,23.83z"/>
  <path d="M9.53,27.35c0.55,0,1.09,0,1.64,0c0.98,0.01,1.79,0.82,1.79,1.79c0.01,1.09,0.01,2.18,0,3.28    c-0.01,0.98-0.82,1.79-1.79,1.79c-1.09,0.01-2.18,0.01-3.28,0c-0.98-0.01-1.79-0.82-1.79-1.79c-0.01-1.09-0.01-2.18,0-3.28    c0.01-0.98,0.82-1.78,1.79-1.79C8.44,27.35,8.98,27.35,9.53,27.35z"/>
  <path d="M23.36,30.82c0,0.52,0,1.04,0,1.56c-0.01,1.02-0.81,1.83-1.83,1.83c-1.07,0-2.13,0-3.2,0c-1.02,0-1.83-0.81-1.83-1.83    c0-1.07,0-2.13,0-3.2c0-1.02,0.81-1.83,1.83-1.83c1.07,0,2.13,0,3.2,0c1.02,0,1.83,0.81,1.83,1.83    C23.36,29.73,23.36,30.28,23.36,30.82z"/>
  <path d="M26.89,30.79c0-0.55,0-1.09,0-1.64c0.01-0.97,0.82-1.78,1.79-1.79c1.09-0.01,2.18-0.01,3.28,0    c0.97,0.01,1.78,0.82,1.79,1.79c0.01,1.09,0.01,2.18,0,3.28c-0.01,0.97-0.82,1.78-1.79,1.79c-1.09,0.01-2.18,0.01-3.28,0    c-0.97-0.01-1.78-0.82-1.79-1.79C26.88,31.88,26.89,31.33,26.89,30.79z"/>
</svg>
