<svg xmlns="http://www.w3.org/2000/svg" width="40" height="40" viewBox="0 0 40 40">
  <path d="M26.481 20.0013L38.811 7.67128C40.401 6.08128 40.401 3.50128 38.811 1.91128L38.091 1.19128C36.501 -0.398721 33.921 -0.398721 32.331 1.19128L20.001 13.5213L7.67104 1.19128C6.08104 -0.398721 3.50104 -0.398721 1.91104 1.19128L1.19104 1.91128C-0.398965 3.50128 -0.398965 6.08128 1.19104 7.67128L13.521 20.0013L1.19104 32.3313C-0.398965 33.9213 -0.398965 36.5013 1.19104 38.0913L1.91104 38.8113C3.50104 40.4013 6.08104 40.4013 7.67104 38.8113L20.001 26.4813L32.331 38.8113C33.921 40.4013 36.501 40.4013 38.091 38.8113L38.811 38.0913C40.401 36.5013 40.401 33.9213 38.811 32.3313L26.481 20.0013Z"/>
</svg>
