<svg xmlns="http://www.w3.org/2000/svg" version="1.1" x="0px" y="0px" viewBox="0 0 40 40" style="enable-background:new 0 0 40 40;">
  <path d="M23.24,20l6.17-6.17c0.79-0.79,0.79-2.08,0-2.88l-0.36-0.36c-0.79-0.79-2.08-0.79-2.88,0L20,16.76l-6.17-6.17  c-0.79-0.79-2.08-0.79-2.88,0l-0.36,0.36c-0.79,0.79-0.79,2.08,0,2.88L16.76,20l-6.17,6.17c-0.79,0.79-0.79,2.08,0,2.88l0.36,0.36  c0.79,0.79,2.08,0.79,2.88,0L20,23.24l6.17,6.17c0.79,0.79,2.08,0.79,2.88,0l0.36-0.36c0.79-0.79,0.79-2.08,0-2.88L23.24,20z"/>
</svg>
