<svg xmlns="http://www.w3.org/2000/svg" version="1.1" x="0px" y="0px" viewBox="0 0 40 40" style="enable-background:new 0 0 40 40;">
  <path d="M25.44,26.99c0,0.42-0.15,0.78-0.46,1.09c-0.31,0.31-0.67,0.46-1.09,0.46h-7.77c-0.42,0-0.78-0.15-1.09-0.46   c-0.31-0.31-0.46-0.67-0.46-1.09v-3.88H0v11.65c0,1.07,0.38,1.98,1.14,2.74c0.76,0.76,1.67,1.14,2.74,1.14h32.23   c1.07,0,1.98-0.38,2.74-1.14c0.76-0.76,1.14-1.67,1.14-2.74V23.11v0H25.44V26.99z"/>
  <path d="M38.86,8.71c-0.76-0.76-1.67-1.14-2.74-1.14h-6.8V3.69c0-0.65-0.23-1.2-0.68-1.65c-0.45-0.45-1-0.68-1.65-0.68H13.01   c-0.65,0-1.2,0.23-1.65,0.68c-0.45,0.45-0.68,1-0.68,1.65v3.88h-6.8c-1.07,0-1.98,0.38-2.74,1.14C0.38,9.47,0,10.39,0,11.46v9.32   h40v-9.32h0C40,10.39,39.62,9.47,38.86,8.71z M26.21,7.57H13.79V4.47h12.43V7.57z"/>
  <rect x="16.89" y="23.11" width="6.21" height="3.11"/>
</svg>
