<svg xmlns="http://www.w3.org/2000/svg" version="1.1" x="0px" y="0px" viewBox="0 0 40 40" style="enable-background:new 0 0 40 40;">
  <path d="M38.75,1.58H35.7c-1.84,0-3.49,1.16-4.11,2.9L30.65,7.1c-0.44-0.25-0.94-0.4-1.47-0.4H3c-0.97,0-1.88,0.47-2.45,1.26   s-0.71,1.81-0.38,2.73l5.76,16.43c0.42,1.2,1.56,2.01,2.83,2.01h14.68c1.27,0,2.41-0.81,2.83-2.01l5.76-16.43c0,0,0-0.01,0-0.01   l1.92-5.36c0.27-0.74,0.98-1.24,1.76-1.24h3.05c0.69,0,1.25-0.56,1.25-1.25S39.44,1.58,38.75,1.58z M23.91,26.3   c-0.07,0.2-0.26,0.34-0.48,0.34H8.76c-0.21,0-0.4-0.14-0.48-0.34L2.52,9.87C2.45,9.65,2.53,9.49,2.59,9.41   C2.64,9.33,2.77,9.2,3,9.2h26.19c0.23,0,0.36,0.13,0.41,0.21c0.06,0.08,0.14,0.24,0.07,0.45l-0.12,0.33c0,0.01,0,0.01,0,0.02   L23.91,26.3z"/>
  <circle cx="23.73" cy="34.74" r="3.69"/>
  <circle cx="7.93" cy="34.74" r="3.69"/>
</svg>
