<svg xmlns="http://www.w3.org/2000/svg" version="1.1" x="0px" y="0px" viewBox="0 0 40 40" style="enable-background:new 0 0 40 40;">
  <path d="M35.02,33.02L27.71,18.6V6.37c0.26-0.11,0.5-0.19,0.72-0.25c0.76-0.21,1.33-0.8,1.62-1.68c0.2-0.59,0.25-1.28,0.16-1.95   C30.01,0.98,29.11,0,27.92,0H11.64c-1.19,0-2.1,0.98-2.3,2.49C9.25,3.16,9.31,3.85,9.5,4.44c0.29,0.87,0.87,1.47,1.62,1.68   c0.22,0.06,0.46,0.14,0.72,0.25v13.1L4.98,33.02c-0.76,1.5-0.69,3.26,0.19,4.69C6.05,39.14,7.59,40,9.27,40h21.46   c1.68,0,3.22-0.86,4.1-2.29C35.71,36.27,35.78,34.52,35.02,33.02z M33.03,36.6c-0.5,0.81-1.36,1.29-2.3,1.29H9.27   c-0.95,0-1.81-0.48-2.3-1.29c-0.5-0.81-0.54-1.79-0.11-2.64l7.09-13.99V5.04l-0.43-0.21c-0.7-0.35-1.29-0.59-1.84-0.74   c-0.04-0.01-0.19-0.18-0.25-0.6c-0.1-0.66,0.09-1.25,0.23-1.37h16.23c0.14,0.12,0.34,0.72,0.23,1.37c-0.07,0.42-0.22,0.59-0.25,0.6   c-0.55,0.15-1.14,0.39-1.84,0.74L25.6,5.04V19.1l7.54,14.87C33.57,34.81,33.53,35.8,33.03,36.6z"/>
  <path d="M24.99,25.43c-1.21-0.62-3.76-1.11-4.99-0.33c-1.26,0.8-3.8,0.82-4.81-0.04l-4.5,8.88c-0.12,0.24-0.05,0.44,0.02,0.56   c0.08,0.13,0.23,0.28,0.49,0.28H28.8c0.27,0,0.42-0.15,0.49-0.28c0.08-0.13,0.14-0.33,0.02-0.56L24.99,25.43z"/>
</svg>
