<svg xmlns="http://www.w3.org/2000/svg" version="1.1" x="0px" y="0px" viewBox="0 0 40 40" style="enable-background:new 0 0 40 40;">
  <path d="M36.73,3.92H15.87h-5.05H3.27C1.47,3.92,0,5.39,0,7.19v25.62c0,1.8,1.47,3.27,3.27,3.27h7.55h5.05h20.87    c1.8,0,3.27-1.47,3.27-3.27V7.19C40,5.39,38.53,3.92,36.73,3.92z M37.65,32.81c0,0.51-0.41,0.92-0.92,0.92H15.87h-5.05H3.27    c-0.5,0-0.92-0.41-0.92-0.92V7.19c0-0.5,0.41-0.92,0.92-0.92h7.55h5.05h20.87c0.5,0,0.92,0.41,0.92,0.92V32.81z"/>
  <rect x="8.82" y="19.05" width="4.4" height="1.9"/>
  <rect x="6.34" y="15.13" width="9.35" height="1.89"/>
  <path d="M33.27,20.51c-0.34,0.74-0.91,0.44-1.44,1.09c-0.54,0.65-0.13,1.14-0.8,1.62c-0.1,0.07-0.19,0.11-0.27,0.14l1.95,4.99   l-2.89-0.9l-1.44,2.59l-1.36-3.46l-1.73,4.41l-1.44-2.59l-2.89,0.9l2.55-6.5c-0.07-0.13-0.17-0.26-0.33-0.4   c-0.65-0.53-1.15-0.14-1.62-0.8c-0.46-0.64,0.05-0.99-0.24-1.78c-0.3-0.8-0.9-0.72-0.98-1.51c-0.07-0.79,0.54-0.83,0.68-1.67   c0.14-0.83-0.42-1.08-0.09-1.79c0.33-0.72,0.88-0.45,1.43-1.1c0.54-0.66,0.17-1.15,0.82-1.61c0.64-0.45,0.99,0.06,1.78-0.24   c0.8-0.29,0.72-0.9,1.51-0.98c0.79-0.07,0.83,0.54,1.67,0.68c0.84,0.14,1.08-0.42,1.8-0.09c0.72,0.33,0.45,0.88,1.1,1.42   c0.66,0.55,1.15,0.18,1.61,0.82c0.47,0.67-0.07,1,0.22,1.79c0.29,0.79,0.92,0.7,1,1.51c0.08,0.81-0.56,0.83-0.7,1.66   C33.02,19.53,33.61,19.76,33.27,20.51z"/>
</svg>
