<svg xmlns="http://www.w3.org/2000/svg" version="1.1" x="0px" y="0px" viewBox="0 0 40 40" style="enable-background:new 0 0 40 40;">
  <path d="M2.13,28.26c0.39,0.15,0.79,0.23,1.2,0.23c1.37,0,2.61-0.86,3.1-2.13c0.32-0.83,0.3-1.74-0.06-2.55    c-0.36-0.82-1.01-1.44-1.84-1.76c-0.39-0.15-0.79-0.23-1.2-0.23c-1.36,0-2.61,0.86-3.1,2.13c-0.32,0.83-0.3,1.74,0.06,2.55    C0.64,27.31,1.3,27.94,2.13,28.26z M24.29,28.26c0.39,0.15,0.79,0.23,1.2,0.23c1.36,0,2.61-0.86,3.1-2.13    c0.66-1.71-0.19-3.65-1.9-4.31c-0.39-0.15-0.79-0.23-1.2-0.23c-1.36,0-2.61,0.86-3.1,2.13C21.73,25.66,22.58,27.6,24.29,28.26z     M36.21,19c0.16,0.02,0.32,0.03,0.47,0.03c1.64,0,3.06-1.23,3.29-2.87c0.26-1.82-1.01-3.51-2.83-3.77    c-0.16-0.02-0.32-0.03-0.47-0.03c-1.65,0-3.06,1.23-3.29,2.87c-0.13,0.88,0.1,1.76,0.63,2.47C34.55,18.42,35.32,18.88,36.21,19z     M14.72,20.26c2.51,0,4.55-2.04,4.55-4.56c0-2.52-2.04-4.56-4.55-4.56c-2.51,0-4.55,2.04-4.55,4.56    C10.17,18.22,12.2,20.26,14.72,20.26z M14.72,13.55c1.19,0,2.15,0.97,2.15,2.16c0,1.19-0.96,2.16-2.15,2.16s-2.15-0.97-2.15-2.16    C12.56,14.51,13.53,13.55,14.72,13.55z M7.31,23.29l3.89-3.23c-0.57-0.46-1.04-1.03-1.4-1.68l-3.89,3.23    C6.51,22.04,6.99,22.61,7.31,23.29z M18.07,20.2l3.53,2.93c0.35-0.66,0.85-1.22,1.45-1.63l-3.52-2.93    C19.15,19.21,18.66,19.76,18.07,20.2z M29.41,23.18l4.71-3.91c-0.36-0.26-0.69-0.55-0.96-0.92c-0.18-0.24-0.33-0.48-0.45-0.74    l-4.72,3.92C28.6,21.96,29.08,22.53,29.41,23.18z M39.38,38.76H0.62C0.28,38.76,0,39.04,0,39.38C0,39.72,0.28,40,0.62,40h38.76    c0.34,0,0.63-0.28,0.63-0.62C40,39.04,39.72,38.76,39.38,38.76z"/>
</svg>
