<svg xmlns="http://www.w3.org/2000/svg" version="1.1" x="0px" y="0px" viewBox="0 0 40 40" style="enable-background:new 0 0 40 40;">
  <path d="M20,0C8.95,0,0,8.95,0,20c0,11.05,8.95,20,20,20s20-8.95,20-20C40,8.95,31.05,0,20,0z M20,37.66   c-9.75,0-17.66-7.91-17.66-17.66c0-9.75,7.91-17.66,17.66-17.66S37.66,10.25,37.66,20C37.66,29.75,29.75,37.66,20,37.66z"/>
  <path d="M31.8,15.83c0-0.43-0.14-0.78-0.41-1.05l-2.08-2.06c-0.29-0.29-0.63-0.44-1.03-0.44c-0.4,0-0.74,0.15-1.03,0.44    l-9.33,9.31l-5.17-5.17c-0.29-0.29-0.63-0.43-1.03-0.43c-0.4,0-0.74,0.14-1.03,0.43l-2.08,2.06c-0.27,0.27-0.41,0.63-0.41,1.05    c0,0.41,0.14,0.76,0.41,1.03l8.28,8.28c0.29,0.29,0.63,0.44,1.03,0.44c0.41,0,0.76-0.15,1.05-0.44l12.42-12.42    C31.66,16.59,31.8,16.24,31.8,15.83z"/>
</svg>
