<svg xmlns="http://www.w3.org/2000/svg" version="1.1" x="0px" y="0px" viewBox="0 0 40 40" style="enable-background:new 0 0 40 40;">
  <rect x="17.62" y="5.73" width="16.83" height="1.33"/>
  <rect x="16.24" y="14.38" width="4.64" height="1.33"/>
  <polygon points="29.31,15.91 28.86,16.21 28.97,16.73 28.46,16.9 28.43,17.43 27.9,17.47 27.73,17.97 27.21,17.87 26.91,18.31    26.44,18.07 26.04,18.42 25.64,18.07 25.16,18.31 24.86,17.87 24.34,17.97 24.17,17.47 23.64,17.43 23.61,16.9 23.1,16.73    23.21,16.21 22.77,15.91 23,15.44 22.65,15.04 23,14.64 22.77,14.16 23.21,13.87 23.1,13.35 23.61,13.18 23.64,12.65 24.17,12.61    24.34,12.11 24.86,12.21 25.16,11.77 25.64,12 26.04,11.65 26.44,12 26.91,11.77 27.21,12.21 27.73,12.11 27.9,12.61 28.43,12.65    28.46,13.18 28.97,13.35 28.86,13.87 29.31,14.16 29.07,14.64 29.42,15.04 29.07,15.44  "/>
  <rect x="22.08" y="8.47" width="7.91" height="1.33"/>
  <rect x="31.13" y="14.38" width="4.64" height="1.33"/>
  <path d="M19.01,25.65c0-0.25-0.08-0.46-0.25-0.62l-1.24-1.22c-0.17-0.17-0.38-0.26-0.61-0.26c-0.24,0-0.44,0.09-0.61,0.26     l-5.54,5.53L7.7,26.27c-0.17-0.17-0.38-0.26-0.61-0.26s-0.44,0.09-0.61,0.26l-1.24,1.22C5.08,27.65,5,27.86,5,28.11     c0,0.25,0.08,0.45,0.24,0.61l4.92,4.92c0.17,0.17,0.37,0.26,0.61,0.26c0.25,0,0.45-0.09,0.63-0.26l7.37-7.37     C18.93,26.1,19.01,25.9,19.01,25.65z"/>
  <path d="M11.87,16.26C5.31,16.26,0,21.57,0,28.13C0,34.69,5.31,40,11.87,40s11.87-5.32,11.87-11.87   C23.74,21.57,18.43,16.26,11.87,16.26z M11.87,38.61c-5.79,0-10.48-4.69-10.48-10.48c0-5.79,4.69-10.48,10.48-10.48   s10.48,4.69,10.48,10.48C22.35,33.92,17.66,38.61,11.87,38.61z"/>
  <path d="M37.71,0h-14.6h-3.54h-5.28c-1.26,0-2.29,1.03-2.29,2.29v14.69c0.56,0,1.11,0.06,1.65,0.14V2.28   c0-0.35,0.29-0.64,0.64-0.64h5.28h3.54h14.6c0.35,0,0.64,0.29,0.64,0.64v17.93c0,0.35-0.29,0.64-0.64,0.64h-14.6h-2.67   c0.44,0.51,0.84,1.06,1.19,1.65h1.48h14.6c1.26,0,2.29-1.03,2.29-2.29V2.28C40,1.02,38.98,0,37.71,0z"/>
</svg>
