<svg xmlns="http://www.w3.org/2000/svg" version="1.1" x="0px" y="0px" viewBox="0 0 40 40" style="enable-background:new 0 0 40 40;">
  <path d="M26.71,34.29c0.35-0.35,0.86-0.48,1.34-0.35c0.51,0.14,1.03,0.21,1.57,0.21c1.36,0,2.8-0.45,4.2-1.36   c1.55-1.01,2.95-2.53,3.83-4.17c0.98-1.82,1.27-3.67,0.81-5.19c-0.37-1.25-1.22-2.26-2.47-2.94c-0.29-0.16-0.6-0.3-0.93-0.42   c-0.54-0.2-0.93-0.66-1.02-1.23c-0.19-1.23-1.09-2.21-2.24-2.21H4.81c-1.49,0-2.58,1.67-2.2,3.37C3.6,24.46,6.2,32.23,12.73,36.62   c0.04,0.03,0.08,0.05,0.12,0.08H2.49c-1.08,0-1.57,1.36-0.73,2.05l1.2,0.99C3.16,39.91,3.42,40,3.69,40h29.76   c0.27,0,0.53-0.09,0.73-0.26l1.2-0.99c0.84-0.69,0.35-2.05-0.73-2.05H23.66c0.1-0.02,0.18-0.05,0.22-0.08   C24.92,35.92,25.86,35.14,26.71,34.29z M29.89,30.3c1.45-2.29,2.46-4.68,3.16-6.82c0.34-1.03,1.6-1.44,2.45-0.76   c0.51,0.41,0.78,0.88,0.91,1.32c0.61,2.06-1.11,5.24-3.76,6.96c-0.58,0.37-1.11,0.63-1.61,0.79C30.15,32.08,29.39,31.1,29.89,30.3z   "/>
  <path d="M20.46,7.95c-0.34,0.36-0.68,0.72-1.03,1.06c-0.5,0.49-0.98,0.98-1.22,1.66c-0.2,0.55-0.16,1.09,0.17,1.58   c0.34,0.51,0.8,0.87,1.33,1.16c0.96,0.52,1.99,0.83,3.05,1.07c0.03,0.01,0.05,0,0.1,0c-0.03-0.02-0.04-0.03-0.05-0.03   c-0.02-0.01-0.05-0.02-0.07-0.03c-0.65-0.2-1.21-0.53-1.64-1.06c-0.21-0.27-0.37-0.56-0.43-0.9c-0.09-0.57,0.02-1.11,0.22-1.63   c0.23-0.59,0.56-1.12,0.95-1.61c0.34-0.43,0.68-0.86,1-1.3c0.3-0.42,0.53-0.88,0.66-1.38c0.11-0.4,0.13-0.8,0.02-1.19   c-0.18-0.65-0.61-1.1-1.17-1.44c-0.52-0.32-1.07-0.53-1.66-0.68c-0.17-0.04-0.34-0.07-0.51-0.11c0,0.01-0.01,0.03-0.01,0.04   c0.06,0.06,0.12,0.12,0.18,0.17c0.28,0.25,0.56,0.5,0.83,0.76c0.28,0.27,0.5,0.6,0.58,0.99c0.11,0.54-0.05,1.02-0.29,1.49   C21.19,7.07,20.85,7.53,20.46,7.95z"/>
  <path d="M14.41,13.11c1.22,0.66,2.54,1.06,3.88,1.36c0.03,0.01,0.07,0,0.13,0c-0.04-0.03-0.05-0.04-0.07-0.04   c-0.03-0.01-0.06-0.03-0.09-0.04c-0.82-0.25-1.55-0.67-2.09-1.36c-0.27-0.34-0.48-0.71-0.55-1.14c-0.12-0.72,0.02-1.41,0.28-2.08   c0.29-0.75,0.72-1.42,1.21-2.05c0.43-0.55,0.87-1.09,1.28-1.66c0.38-0.53,0.67-1.12,0.84-1.75c0.14-0.5,0.17-1.02,0.03-1.52   c-0.23-0.82-0.78-1.4-1.49-1.83c-0.66-0.4-1.37-0.67-2.11-0.86C15.45,0.09,15.23,0.05,15.01,0C15.01,0.02,15,0.04,14.99,0.05   c0.08,0.07,0.15,0.15,0.23,0.22c0.35,0.32,0.71,0.63,1.06,0.97C16.64,1.59,16.91,2,17.01,2.5c0.14,0.68-0.07,1.3-0.37,1.9   c-0.34,0.65-0.77,1.23-1.27,1.76c-0.43,0.46-0.86,0.91-1.31,1.35c-0.63,0.62-1.25,1.25-1.56,2.11c-0.25,0.7-0.2,1.39,0.21,2.01   C13.14,12.27,13.73,12.74,14.41,13.11z"/>
  <path d="M24.91,7.47c0,0.32-0.1,0.63-0.25,0.91c-0.16,0.3-0.33,0.59-0.52,0.87c-0.21,0.31-0.43,0.62-0.67,0.9   c-0.38,0.45-0.74,0.9-0.96,1.46c-0.18,0.45-0.12,0.87,0.09,1.27c0.21,0.41,0.57,0.67,0.97,0.89c0.55,0.31,1.15,0.49,1.76,0.62   c0.12,0.03,0.25,0.05,0.37,0.08c0-0.01,0.01-0.03,0.01-0.04c-0.04-0.01-0.08-0.01-0.11-0.02c-0.26-0.05-0.49-0.16-0.68-0.35   c-0.42-0.43-0.48-0.96-0.41-1.52c0.09-0.68,0.35-1.31,0.65-1.92c0.24-0.49,0.48-0.99,0.67-1.5c0.18-0.49,0.27-1,0.15-1.53   c-0.09-0.43-0.31-0.77-0.66-1.02c-0.39-0.29-0.85-0.43-1.34-0.5c-0.05-0.01-0.11,0-0.2,0c0.25,0.19,0.47,0.34,0.68,0.51   C24.72,6.82,24.91,7.1,24.91,7.47z"/>
</svg>
