<svg xmlns="http://www.w3.org/2000/svg" version="1.1" x="0px" y="0px" viewBox="0 0 40 40" style="enable-background:new 0 0 40 40;">
  <path d="M0,1.5C0,0.1,0.09,0.01,1.5,0c2.97,0,5.93,0,8.9,0c1.2,0,1.39,0.2,1.39,1.43c0,12.37,0,24.75,0,37.12    c0,1.26-0.18,1.44-1.48,1.44c-2.9,0-5.8,0-8.7,0C0.06,39.99,0,39.93,0,38.41L0,1.5z M5.83,35.48c0.76,0.02,1.44-0.64,1.43-1.38    c-0.01-0.7-0.65-1.36-1.35-1.38c-0.7-0.02-1.36,0.59-1.4,1.3C4.47,34.82,5.05,35.46,5.83,35.48z"/>
  <path d="M13.68,24.18c0.86,0.49,1.67,0.94,2.55,1.45c0.31-0.53,0.6-1.01,0.93-1.57c-1.04-0.6-2.04-1.13-2.99-1.75    c-0.27-0.18-0.53-0.61-0.54-0.92c-0.04-3.44-0.03-6.88-0.01-10.32c0-0.35,0.12-0.73,0.29-1.03c1.38-2.39,2.81-4.75,4.18-7.14    c0.41-0.72,0.93-0.83,1.59-0.44c2.76,1.61,5.51,3.25,8.27,4.86c0.87,0.51,0.62,1.11,0.22,1.78c-3.47,5.88-6.94,11.77-10.41,17.66    c-1.33,2.25-2.65,4.51-4.1,6.96C13.68,30.41,13.68,27.34,13.68,24.18z M21.33,17.08c0.33-0.56,0.61-1.04,0.93-1.59    c-2.4-1.38-4.75-2.73-7.13-4.1c-0.33,0.56-0.62,1.04-0.95,1.58"/>
  <path d="M28.1,30.11c1.54-1.14,2.78-1.95,5.18-1.95c1.77,0,3.29-0.01,5.36,0.03c0.92-0.02,1.37,0.3,1.36,1.28    c-0.03,3.1-0.02,6.21,0,9.31c0,0.77-0.23,1.22-1.09,1.22c-8.3-0.01-16.6-0.01-24.9-0.01c-0.1,0-0.19-0.04-0.3-0.06    c-0.26-0.69-0.05-1.11,0.59-1.47c1.23-0.69,2.41-1.45,3.75-2.28c0.05,0.75,0.09,1.36,0.13,2.03c0.61,0,1.17,0,1.86,0    c0-0.77,0.06-1.51-0.02-2.23c-0.09-0.8,0.26-1.2,0.91-1.58c2.41-1.4,4.79-2.86,7.18-4.3c0,2.7,0,5.4,0,8.12c0.74,0,1.26,0,1.82,0    c0-2.75,0-5.44,0-8.23C29.28,30.03,28.69,30.07,28.1,30.11z"/>
  <path d="M14.46,36.05c1.21-2.06,2.32-3.93,3.48-5.92c0.31,0.42,0.58,0.78,0.91,1.23c0.47-0.28,0.95-0.56,1.43-0.85    c-0.02-0.13,0-0.27-0.05-0.32c-1.33-1.36-0.97-2.61,0.02-4.05c1.25-1.82,2.28-3.79,3.5-5.87c1.25,2.03,2.42,3.93,3.63,5.9    c0.52-0.31,1-0.6,1.57-0.95c-1.2-1.97-2.34-3.91-3.55-5.79c-0.46-0.71-0.4-1.23-0.03-1.99c1.01-2.08,2.57-3.5,4.58-4.6    c2.52-1.37,2.16-1.66,3.75,0.95c1.35,2.21,2.68,4.44,4.05,6.63c0.51,0.81,0.36,1.34-0.44,1.82c-7.48,4.54-14.95,9.09-22.42,13.64    C14.83,35.94,14.76,35.95,14.46,36.05z"/>
</svg>
