<svg xmlns="http://www.w3.org/2000/svg" version="1.1" x="0px" y="0px" viewBox="0 0 40 40" style="enable-background:new 0 0 40 40;">
  <path d="M38.87,17.9H25.88c0.24,0.66,0.37,1.36,0.37,2.1c0,0.74-0.13,1.44-0.37,2.1h12.99c0.62,0,1.13-0.51,1.13-1.13v-1.93   C40,18.41,39.49,17.9,38.87,17.9z"/>
  <circle cx="20" cy="20" r="4.37"/>
  <path d="M38.87,4.28H15.22c0.24,0.66,0.37,1.36,0.37,2.1c0,0.74-0.13,1.44-0.37,2.1h23.65c0.62,0,1.13-0.51,1.13-1.13V5.41   C40,4.78,39.49,4.28,38.87,4.28z"/>
  <circle cx="9.35" cy="6.38" r="4.37"/>
  <path d="M38.87,31.53h-2.34c0.24,0.66,0.37,1.36,0.37,2.1c0,0.74-0.13,1.44-0.37,2.1h2.34c0.62,0,1.13-0.51,1.13-1.13v-1.93   C40,32.03,39.49,31.53,38.87,31.53z"/>
  <circle cx="30.65" cy="33.62" r="4.37"/>
  <path d="M13.69,20c0-0.74,0.13-1.44,0.37-2.1H1.13C0.51,17.9,0,18.41,0,19.03v1.93c0,0.62,0.51,1.13,1.13,1.13h12.93   C13.82,21.44,13.69,20.74,13.69,20z"/>
  <path d="M3.03,6.38c0-0.74,0.13-1.44,0.37-2.1H1.13C0.51,4.28,0,4.78,0,5.41v1.93c0,0.62,0.51,1.13,1.13,1.13H3.4   C3.17,7.82,3.03,7.11,3.03,6.38z"/>
  <path d="M24.34,33.63c0-0.74,0.13-1.44,0.37-2.1H1.13C0.51,31.53,0,32.03,0,32.66v1.93c0,0.62,0.51,1.13,1.13,1.13h23.58   C24.47,35.07,24.34,34.36,24.34,33.63z"/>
</svg>
