<svg xmlns="http://www.w3.org/2000/svg" version="1.1" x="0px" y="0px" viewBox="0 0 40 40" style="enable-background:new 0 0 40 40;">
  <path d="M21.48,0.5c-0.84-0.67-2.13-0.67-2.96,0c-2.12,1.7-6.96,4.16-17.11,4.16v21.9c0,0.27,0.06,0.53,0.19,0.78   c0.78,1.48,4.34,6.74,17.42,12.46c0.61,0.27,1.34,0.27,1.95,0c13.08-5.71,16.64-10.97,17.42-12.46c0.13-0.24,0.19-0.51,0.19-0.78   V4.66C28.44,4.66,23.61,2.2,21.48,0.5z M34.85,25.85c0,0.28-0.09,0.55-0.26,0.79c-0.46,0.65-1.34,1.71-2.91,3.03   c-2.64,2.23-6.23,4.41-10.69,6.47c-0.62,0.29-1.37,0.29-2,0c-4.45-2.07-8.04-4.24-10.69-6.47c-1.41-1.19-2.26-2.17-2.76-2.83   c-0.27-0.36-0.41-0.77-0.41-1.19V7.79C12.7,7.33,17.28,5.46,20,3.65c2.72,1.81,7.3,3.67,14.85,4.14V25.85z"/>
  <path d="M20,7.05v26.36c7.42-3.55,10.46-6.58,11.54-7.89v-15.2C27.61,9.82,23.54,8.84,20,7.05z"/>
</svg>
