<svg xmlns="http://www.w3.org/2000/svg" version="1.1" x="0px" y="0px" viewBox="0 0 40 40" style="enable-background:new 0 0 40 40;">
  <path d="M39.47,2.92L2.92,39.47c-0.67,0.67-1.75,0.67-2.42,0l0,0c-0.67-0.67-0.67-1.75,0-2.42L37.05,0.5   c0.67-0.67,1.75-0.67,2.42,0l0,0C40.13,1.17,40.13,2.25,39.47,2.92z"/>
  <path d="M39.5,17.04L17.04,39.5c-0.67,0.67-1.75,0.67-2.42,0l0,0c-0.67-0.67-0.67-1.75,0-2.42l22.46-22.46   c0.67-0.67,1.75-0.67,2.42,0l0,0C40.17,15.29,40.17,16.38,39.5,17.04z"/>
  <path d="M39.5,31.14l-8.36,8.36c-0.67,0.67-1.75,0.67-2.42,0l0,0c-0.67-0.67-0.67-1.75,0-2.42l8.36-8.36   c0.67-0.67,1.75-0.67,2.42,0l0,0C40.17,29.39,40.17,30.47,39.5,31.14z"/>
</svg>
