<svg xmlns="http://www.w3.org/2000/svg" version="1.1" x="0px" y="0px" viewBox="0 0 40 40" style="enable-background:new 0 0 40 40;">
  <polygon points="28.87,12.49 11.13,12.49 12.06,10.87 27.97,10.87  "/>
  <polygon points="27.25,8.36 12.75,8.36 13.68,6.74 26.35,6.74  "/>
  <path d="M39.69,17.27L32.16,2.19c-0.51-1.01-1.54-1.65-2.67-1.65h-18.7c-1.1,0-2.11,0.6-2.63,1.57L0.36,16.6   C0.12,17.03,0,17.52,0,18.01v18.47c0,1.65,1.34,2.98,2.98,2.98h34.03c1.65,0,2.98-1.34,2.98-2.98V18.6   C40,18.14,39.89,17.68,39.69,17.27z M10.94,3.78h18.39l6.26,12.53h-6.05H26.3v0c0,3.47-2.83,6.3-6.3,6.3s-6.3-2.82-6.3-6.3v0h-3.24   H4.19L10.94,3.78z M3.24,36.22V19.55h7.8c1.33,3.67,4.83,6.3,8.96,6.3s7.63-2.63,8.96-6.3h7.8v16.67H3.24z"/>
</svg>
