<svg xmlns="http://www.w3.org/2000/svg" version="1.1" x="0px" y="0px" viewBox="0 0 40 40" style="enable-background:new 0 0 40 40;">
  <path d="M19.92,6.92c-4.14,0-7.5,3.36-7.5,7.5c0,4.14,3.36,7.5,7.5,7.5s7.5-3.36,7.5-7.5C27.42,10.28,24.06,6.92,19.92,6.92z    M20.44,17.98v1.19H19.3v-1.1c-0.78-0.03-1.53-0.24-1.98-0.5l0.35-1.36c0.49,0.27,1.17,0.51,1.93,0.51c0.66,0,1.12-0.26,1.12-0.72   c0-0.44-0.37-0.72-1.23-1.01c-1.24-0.42-2.09-1-2.09-2.13c0-1.02,0.72-1.83,1.97-2.07v-1.1h1.14v1.02c0.78,0.03,1.3,0.2,1.69,0.38   l-0.34,1.31c-0.3-0.13-0.84-0.4-1.67-0.4c-0.76,0-1,0.33-1,0.65c0,0.38,0.41,0.63,1.4,1c1.38,0.49,1.94,1.13,1.94,2.17   C22.51,16.87,21.78,17.75,20.44,17.98z"/>
  <path d="M27.04,0c-3.13,0-5.67,2.48-5.78,5.58c3.29,0.5,5.99,2.79,7.08,5.84c2.57-0.59,4.48-2.89,4.48-5.64   C32.83,2.59,30.24,0,27.04,0z"/>
  <path d="M0.17,37.92c0.24,0.65,0.72,0.87,1.4,0.85c1.2-0.03,2.4-0.01,3.6-0.01c0.79,0,1.19-0.4,1.19-1.19c0-4.16,0-8.32,0-12.48     c0-0.79-0.4-1.19-1.19-1.19c-1.2,0-2.4,0.02-3.6-0.01c-0.68-0.02-1.15,0.19-1.39,0.85C0.17,29.12,0.17,33.52,0.17,37.92z"/>
  <path d="M16.18,34.6c0.56-0.37,1.19-0.56,1.84-0.65c0.7-0.09,1.41-0.15,2.12-0.16c2.02-0.02,4.03,0,6.05-0.01     c1.13-0.01,2.13-0.4,2.93-1.21c1.08-1.08,1.09-2.62,0.04-3.71c-0.8-0.83-1.81-1.24-2.95-1.24c-2.31-0.02-4.63-0.01-6.94,0     c-0.28,0-0.48-0.07-0.69-0.26c-1.43-1.28-3.15-1.89-5.04-2.06c-1.98-0.17-3.86,0.12-5.6,1.16c-0.18,0.11-0.32,0.21-0.32,0.47     c0.01,2.96,0.01,5.92,0.01,8.88c0,0.09,0.01,0.18,0.02,0.34c0.42,0,0.83,0,1.24,0c1.83,0.01,3.47,0.71,5.12,1.4     c1.57,0.66,3.15,1.3,4.73,1.92c1.03,0.41,2.11,0.56,3.23,0.51c2.47-0.11,4.92-0.31,7.31-1c1.91-0.54,3.59-1.43,4.85-3.02     c1.39-1.76,2.85-3.48,4.23-5.25c0.76-0.97,1.34-2.08,1.46-3.33c0.05-0.47-0.03-0.99-0.2-1.43c-0.29-0.76-0.87-1.01-1.63-0.71     c-0.54,0.22-1.09,0.51-1.53,0.89c-1.01,0.88-1.96,1.84-2.94,2.76c-0.76,0.72-1.52,1.44-2.27,2.17c-0.11,0.11-0.23,0.26-0.27,0.41     c-0.5,2.02-1.91,3.04-3.84,3.48c-0.3,0.07-0.61,0.09-0.92,0.09c-2.12,0.01-4.24,0-6.36,0C18.63,35.06,17.4,34.92,16.18,34.6z"/>
  <path d="M36.87,24.31c-0.3-0.39-0.78-0.45-1.15-0.37c-0.53,0.17-1.14,0.46-1.6,0.86c-1.26,1.1-2.45,2.29-3.66,3.46     c-0.06,0.05-0.07,0.21-0.04,0.29c0.16,0.35,0.35,0.68,0.54,1.03C32.97,27.88,34.54,25.7,36.87,24.31z"/>
  <path d="M28.46,26.87c0.35,0.21,0.63,0.38,0.95,0.57c1.72-1.5,3.1-3.41,5.23-4.49c-0.29-0.3-0.85-0.31-1.16-0.24     c-0.51,0.15-0.85,0.35-1.26,0.7c-1.08,0.91-2.09,1.91-3.13,2.87C28.88,26.46,28.69,26.65,28.46,26.87z"/>
</svg>
