<svg xmlns="http://www.w3.org/2000/svg" version="1.1" x="0px" y="0px" viewBox="0 0 40 40" style="enable-background:new 0 0 40 40;">
  <path d="M23.6,29.7c-0.2,0.5-0.6,0.3-0.9,0.7c-0.3,0.4-0.1,0.7-0.5,1c-0.1,0-0.1,0.1-0.2,0.1l1.2,3.2l-1.8-0.6l-0.9,1.7l-0.9-2.2   l-1.1,2.8l-0.9-1.7l-1.8,0.6l1.6-4.1c0-0.1-0.1-0.2-0.2-0.3c-0.4-0.3-0.7-0.1-1-0.5c-0.3-0.4,0-0.6-0.2-1.1c-0.2-0.5-0.6-0.5-0.6-1   c0-0.5,0.3-0.5,0.4-1.1c0.1-0.5-0.3-0.7-0.1-1.1c0.2-0.5,0.6-0.3,0.9-0.7c0.3-0.4,0.1-0.7,0.5-1c0.4-0.3,0.6,0,1.1-0.2   c0.5-0.2,0.5-0.6,1-0.6c0.5,0,0.5,0.3,1.1,0.4c0.5,0.1,0.7-0.3,1.1-0.1c0.5,0.2,0.3,0.6,0.7,0.9c0.4,0.3,0.7,0.1,1,0.5   c0.3,0.4,0,0.6,0.1,1.1c0.2,0.5,0.6,0.4,0.6,1c0,0.5-0.4,0.5-0.4,1.1C23.4,29.1,23.8,29.2,23.6,29.7z"/>
  <path d="M11.7,28.6H5.8c-0.4,0-0.7-0.3-0.7-0.7v0c0-0.4,0.3-0.7,0.7-0.7h5.9c0.4,0,0.7,0.3,0.7,0.7v0   C12.4,28.3,12.1,28.6,11.7,28.6z"/>
  <path d="M9.7,31.4H7.8c-0.4,0-0.7-0.3-0.7-0.7v0c0-0.4,0.3-0.7,0.7-0.7h1.8c0.4,0,0.7,0.3,0.7,0.7v0C10.3,31.1,10,31.4,9.7,31.4z"/>
  <path d="M25.8,40c1.3,0,2.4-1.1,2.4-2.4V22.3c0-1.3-1.1-2.4-2.4-2.4H2.4C1.1,19.9,0,21,0,22.3v15.2C0,38.9,1.1,40,2.4,40H25.8z     M2.4,38.2c-0.4,0-0.7-0.3-0.7-0.7V22.3c0-0.4,0.3-0.7,0.7-0.7h23.4c0.4,0,0.7,0.3,0.7,0.7v15.2c0,0.4-0.3,0.7-0.7,0.7H2.4z"/>
  <path d="M28.1,13.2c1.7,0,3.1-0.6,4.3-1.9c1.2-1.3,1.8-2.9,1.8-4.7c0-1.8-0.6-3.4-1.8-4.7C31.2,0.6,29.8,0,28.1,0     c-1.7,0-3.1,0.6-4.3,1.9c-1.2,1.3-1.8,2.9-1.8,4.7c0,1.8,0.6,3.4,1.8,4.7C25.1,12.6,26.5,13.2,28.1,13.2z"/>
  <path d="M39.9,21.9c0-0.6-0.1-1.2-0.2-1.8c-0.1-0.7-0.3-1.3-0.4-1.8c-0.2-0.6-0.4-1.1-0.7-1.6c-0.3-0.5-0.7-1-1-1.4     c-0.4-0.4-0.9-0.7-1.4-0.9c-0.6-0.2-1.2-0.3-1.9-0.3c-0.1,0-0.3,0.1-0.7,0.4c-0.4,0.2-0.8,0.5-1.3,0.8c-0.5,0.3-1.1,0.6-1.8,0.8     c-0.7,0.2-1.5,0.4-2.2,0.4c-0.8,0-1.5-0.1-2.2-0.4c-0.7-0.2-1.4-0.5-1.8-0.8c-0.5-0.3-0.9-0.6-1.3-0.8c-0.4-0.2-0.6-0.4-0.7-0.4     c-0.7,0-1.3,0.1-1.9,0.3c-0.6,0.2-1,0.5-1.4,0.9c-0.4,0.4-0.7,0.8-1,1.4c-0.3,0.5-0.5,1.1-0.7,1.6c0,0.1,0,0.1,0,0.2h8.9     c2.1,0,3.9,1.7,3.9,3.9V28h5.7c1.4,0,2.4-0.4,3.3-1.2c0.8-0.8,1.2-1.8,1.2-3.2C40,23,40,22.4,39.9,21.9z"/>
</svg>
