<svg xmlns="http://www.w3.org/2000/svg" width="40" height="40" viewBox="0 0 40 40">
  <path d="M21.0803 34.43H5.62033C5.15033 34.43 4.77033 34.05 4.77033 33.58V9.58C4.55033 8.88 4.00033 8.34 3.29033 8.17L2.59033 8V33.6C2.59033 35.27 3.95033 36.62 5.61033 36.62H22.8703C22.4003 35.79 21.7803 35.06 21.0603 34.44L21.0803 34.43Z"/>
  <path d="M10.5601 0.9C10.6801 1.38 10.9801 1.81 11.4001 2.1C11.4401 2.13 11.4901 2.15 11.5301 2.18H17.6001V11.73C17.6001 13.4 18.9601 14.75 20.6201 14.75H30.1801V20.71C30.6101 22.07 31.3601 23.27 32.3601 24.23V12.57L19.7801 0.02V0H10.3301C10.3301 0 10.3501 0.05 10.3501 0.07L10.5501 0.89L10.5601 0.9ZM19.7801 3.09L29.2901 12.57H20.6301C20.1601 12.57 19.7801 12.19 19.7801 11.72V3.09Z"/>
  <path d="M14.7299 16.1099C15.3099 16.9799 16.0499 17.7299 16.9199 18.2999C16.0499 18.8799 15.3099 19.6199 14.7299 20.4899C14.4099 20.0099 14.0299 19.5599 13.6099 19.1599C13.2699 18.8399 12.9099 18.5499 12.5299 18.2999C12.9099 18.0499 13.2699 17.7599 13.6099 17.4399C14.0299 17.0299 14.4099 16.5899 14.7299 16.1099ZM14.7299 12.2099L14.4599 13.3099C14.1599 14.5299 13.5099 15.5999 12.6399 16.4299C12.0199 17.0199 11.2799 17.4899 10.4599 17.7999C10.2199 17.8899 9.97988 17.9699 9.72988 18.0299L8.62988 18.2999L9.72988 18.5699C9.97988 18.6299 10.2199 18.7099 10.4599 18.7999C11.2799 19.1099 12.0199 19.5799 12.6399 20.1699C13.5099 20.9999 14.1599 22.0799 14.4599 23.2899L14.7299 24.3899L14.9999 23.2899C15.5799 20.9599 17.3999 19.1399 19.7299 18.5599L20.8299 18.2899L19.7299 18.0199C17.3999 17.4399 15.5799 15.6199 14.9999 13.2899L14.7299 12.1899V12.2099Z"/>
  <path d="M7.70014 4.23996C8.00014 4.62996 8.36014 4.97996 8.75014 5.28996C8.36014 5.59996 8.01014 5.94996 7.70014 6.32996C7.39014 5.93996 7.04014 5.58996 6.65014 5.28996C7.04014 4.97996 7.40014 4.62996 7.70014 4.23996ZM7.69014 0.729961L7.49014 1.54996C7.44014 1.75996 7.37014 1.96996 7.29014 2.16996C6.83014 3.33996 5.92014 4.26996 4.78014 4.78996C4.52014 4.90996 4.24014 5.00996 3.96014 5.07996L3.14014 5.27996L3.96014 5.47996C4.25014 5.54996 4.52014 5.65996 4.78014 5.76996C6.12014 6.36996 7.13014 7.54996 7.49014 9.00996L7.69014 9.82996L7.89014 9.00996C8.18014 7.84996 8.88014 6.86996 9.82014 6.20996C10.3001 5.87996 10.8401 5.61996 11.4201 5.46996L11.6701 5.40996L12.2501 5.26996L11.6701 5.12996L11.4201 5.06996C10.8301 4.92996 10.3001 4.66996 9.82014 4.32996C9.05014 3.78996 8.46014 3.03996 8.10014 2.14996C8.02014 1.94996 7.94014 1.73996 7.88014 1.52996L7.68014 0.709961L7.69014 0.729961Z"/>
  <path d="M26.8801 23.65C27.4601 24.85 28.2401 25.95 29.1701 26.92C29.8801 27.65 30.7001 28.31 31.6201 28.87C31.9801 29.09 32.3501 29.2999 32.7301 29.4799C32.3601 29.6599 31.9901 29.87 31.6201 30.09C30.7101 30.65 29.8801 31.31 29.1701 32.04C28.7201 32.5 28.2901 33.03 27.8701 33.65C27.4801 34.22 27.1501 34.77 26.8701 35.32C26.6001 34.77 26.2701 34.21 25.8701 33.65C24.6201 31.85 22.9601 30.43 21.0401 29.49C23.5901 28.26 25.6401 26.21 26.8701 23.66M26.8801 18.95L26.4101 20.85C25.4201 24.87 22.2801 28.01 18.2501 29L16.3501 29.4699L18.2501 29.94C20.9301 30.6 23.2101 32.23 24.7301 34.43C25.2001 35.11 25.6101 35.83 25.9301 36.61C26.1201 37.09 26.2801 37.5899 26.4101 38.0999L26.8801 40L27.3501 38.0999C27.4801 37.5899 27.6401 37.09 27.8301 36.61C28.1401 35.83 28.5601 35.11 29.0301 34.43C29.3801 33.92 29.7601 33.44 30.1901 33C30.8401 32.33 31.5701 31.76 32.3701 31.27C33.3301 30.68 34.3801 30.21 35.5201 29.94L37.4201 29.4699L35.5201 29C34.3901 28.72 33.3401 28.26 32.3701 27.67C31.5701 27.18 30.8401 26.61 30.1901 25.94C28.8401 24.55 27.8401 22.81 27.3601 20.85L26.8901 18.95H26.8801Z"/>
</svg>
