<svg xmlns="http://www.w3.org/2000/svg" width="40" height="40" viewBox="0 0 40 40">
  <path d="M21.0803 34.43H5.62033C5.15033 34.43 4.77033 34.05 4.77033 33.58V9.58C4.55033 8.88 4.00033 8.34 3.29033 8.17L2.59033 8V33.6C2.59033 35.27 3.95033 36.62 5.61033 36.62H22.8703C22.4003 35.79 21.7803 35.06 21.0603 34.44L21.0803 34.43Z"/>
  <path d="M10.5601 0.9C10.6801 1.38 10.9801 1.81 11.4001 2.1C11.4401 2.13 11.4901 2.15 11.5301 2.18H17.6001V11.73C17.6001 13.4 18.9601 14.75 20.6201 14.75H30.1801V20.71C30.6101 22.07 31.3601 23.27 32.3601 24.23V12.57L19.7801 0.02V0H10.3301C10.3301 0 10.3501 0.05 10.3501 0.07L10.5501 0.89L10.5601 0.9ZM19.7801 3.09L29.2901 12.57H20.6301C20.1601 12.57 19.7801 12.19 19.7801 11.72V3.09Z"/>
  <path d="M15.0101 13.31L14.7401 12.21L14.4701 13.31C14.1701 14.53 13.5201 15.6 12.6501 16.43C12.0301 17.02 11.2901 17.49 10.4701 17.8C10.2301 17.89 9.99014 17.97 9.74014 18.03L8.64014 18.3L9.74014 18.57C9.99014 18.63 10.2301 18.71 10.4701 18.8C11.2901 19.11 12.0301 19.58 12.6501 20.17C13.5201 21 14.1701 22.08 14.4701 23.29L14.7401 24.39L15.0101 23.29C15.5901 20.96 17.4101 19.14 19.7401 18.56L20.8401 18.29L19.7401 18.02C17.4101 17.44 15.5901 15.62 15.0101 13.29V13.31Z"/>
  <path d="M4.77988 5.78998C6.11988 6.38998 7.12988 7.56998 7.48988 9.02998L7.68988 9.84998L7.88988 9.02998C8.17988 7.86998 8.87988 6.88998 9.81988 6.22998C10.2999 5.89998 10.8399 5.63998 11.4199 5.48998L11.6699 5.42998L12.2499 5.28998L11.6699 5.14998L11.4199 5.08998C10.8299 4.94998 10.2999 4.68998 9.81988 4.34998C9.04988 3.80998 8.45988 3.05998 8.09988 2.16998C8.01988 1.96998 7.93988 1.75998 7.87988 1.54998L7.67988 0.72998L7.47988 1.54998C7.42988 1.75998 7.35988 1.96998 7.27988 2.16998C6.81988 3.33998 5.90988 4.26998 4.76988 4.78998C4.50988 4.90998 4.22988 5.00998 3.94988 5.07998L3.12988 5.27998L3.94988 5.47998C4.23988 5.54998 4.50988 5.65998 4.76988 5.76998L4.77988 5.78998Z"/>
  <path d="M35.5001 29C34.3701 28.72 33.3201 28.26 32.3501 27.67C31.5501 27.18 30.8201 26.61 30.1701 25.94C28.8201 24.55 27.8201 22.81 27.3401 20.85L26.8701 18.95L26.4001 20.85C25.4101 24.87 22.2701 28.01 18.2501 29L16.3501 29.4699L18.2501 29.94C20.9301 30.6 23.2101 32.23 24.7301 34.43C25.2001 35.11 25.6101 35.83 25.9301 36.61C26.1201 37.09 26.2901 37.5899 26.4101 38.0999L26.8801 40L27.3501 38.0999C27.4801 37.5899 27.6401 37.09 27.8301 36.61C28.1401 35.83 28.5601 35.11 29.0301 34.43C29.3801 33.92 29.7601 33.44 30.1901 33C30.8401 32.33 31.5701 31.76 32.3701 31.27C33.3301 30.68 34.3801 30.21 35.5201 29.94L37.4201 29.4699L35.5201 29H35.5001Z"/>
</svg>
