<svg xmlns="http://www.w3.org/2000/svg" version="1.1" x="0px" y="0px" viewBox="0 0 40 40" style="enable-background:new 0 0 40 40;">
  <path d="M31.13,8.18L31.13,8.18L31.13,8.18c0-0.01,0-0.01,0-0.01l-0.01,0.01c-1.11,0.33-1.62,1.08-2.7,2.47   c-1.09,1.39-10.47,13.86-11.57,15.58c-1.11,1.72-1.57,4.32,1.2,5.83l0-0.01c2.76,1.51,4.71-0.28,5.56-2.13   c0.85-1.86,6.31-16.47,6.9-18.14C31.09,10.13,31.45,9.29,31.13,8.18z"/>
  <path d="M39.25,21.85c-0.97-3.59-2.94-6.76-5.58-9.21l-0.09,0.24c-0.16,0.45-0.7,1.93-1.43,3.88c2.48,2.84,3.98,6.55,3.98,10.61    c0,0.83-0.06,1.64-0.18,2.44c-0.15,1.01,0.63,1.91,1.64,1.91h0.45c0.89,0,1.63-0.66,1.75-1.53    C40.18,27.54,40.03,24.73,39.25,21.85z"/>
  <path d="M21.05,11.27c0.86,0.06,1.7,0.18,2.52,0.37c1.14-1.51,2-2.64,2.27-2.99l0.25-0.32c0.01-0.01,0.02-0.02,0.03-0.04    c-0.29-0.09-0.59-0.18-0.89-0.25C11.92,4.66,0,14.63,0,27.37c0,0.96,0.07,1.91,0.2,2.83c0.12,0.87,0.86,1.52,1.74,1.52H2.4    c1.02,0,1.79-0.91,1.64-1.91c-0.05-0.34-0.09-0.67-0.12-1.02C3.07,19,11.24,10.64,21.05,11.27z"/>
</svg>
