<svg xmlns="http://www.w3.org/2000/svg" version="1.1" x="0px" y="0px" viewBox="0 0 40 40" style="enable-background:new 0 0 40 40;">
  <ellipse cx="20" cy="6.57" rx="18.29" ry="6.57"/>
  <path d="M20,17.13c-7.01,0-14.05-1.31-18.29-4.11v7.08c0,0,0,0,0,0s0,0,0,0v0.45h0.05c0.65,3.42,8.56,6.12,18.24,6.12    s17.6-2.7,18.24-6.12h0.05v-7.54C34.05,15.82,27.01,17.13,20,17.13z"/>
  <path d="M20,30.46c-7.01,0-14.05-1.31-18.29-4.11v7.08c0,0,0,0,0,0s0,0,0,0v0.45h0.05C2.4,37.3,10.32,40,20,40s17.6-2.7,18.24-6.12   h0.05v-7.54C34.05,29.15,27.01,30.46,20,30.46z"/>
</svg>
