<svg xmlns="http://www.w3.org/2000/svg" version="1.1" x="0px" y="0px" viewBox="0 0 40 40" style="enable-background:new 0 0 40 40;">
  <path d="M11.08,13.08c1.13,0,2.17,0,3.28,0c0,9.9,0,11.81,0,20.89c-1.07,0-2.15,0-3.28,0C11.08,24.62,11.08,22.48,11.08,13.08z"/>
  <path d="M18.46,13.07c1.14,0,2.18,0,3.29,0c0,9.36,0,11.51,0,20.91c-1.09,0-2.17,0-3.29,0C18.46,24.61,18.46,22.48,18.46,13.07z"/>
  <path d="M29.2,34.01c-1.13,0-2.17,0-3.27,0c0-9.37,0-11.52,0-20.91c1.08,0,2.14,0,3.27,0C29.2,22.44,29.2,24.59,29.2,34.01z"/>
  <path d="M31.77,13.1c0,8.13,0,13.04,0,21.68c0,1.58-0.3,1.87-1.9,1.87c-6.5,0-12.99,0-19.49,0c-1.58,0-1.89-0.31-1.89-1.88    c0-8.64,0-13.55,0-21.68H5.11c0.01,7.96,0.05,12.67-0.03,21.13c-0.03,2.73,0.8,4.73,3.43,5.78c7.72,0,15.44,0,23.16,0    c1.58-0.61,2.84-1.55,3.28-3.27c0.16-0.65,0.22-1.34,0.22-2.02c0.01-8.63,0.01-13.45,0.01-21.62H31.77z"/>
  <path d="M36.77,10.13c0-2.15,0.03-3.55-1.3-4.22c-0.57-0.29-1.29-0.41-1.95-0.45c-1.33-0.07-2.66-0.03-4-0.04    c-0.05,0-0.1-0.04-0.27-0.1c0-0.26,0.01-0.56,0-0.86c-0.1-2.22-1.65-4.44-3.9-4.45C21.93,0,18.49,0,15.06,0.01    c-2.48,0-3.97,2.18-4.03,4.65c-0.01,0.22-0.03,0.45-0.05,0.79c-1.43,0-2.84,0.01-4.24,0C5.8,5.44,4.67,5.49,3.87,6.34    C3.38,6.85,3.23,7.49,3.23,8.21c0,0.64,0,1.28,0,1.92H36.77z M15.42,2.74c3.14,0,6.28,0,9.42,0c1.47,0,1.78,1.08,1.61,2.67    c-4.22,0-8.4,0-12.57,0C13.81,4.21,13.91,2.74,15.42,2.74z"/>
</svg>
