<svg xmlns="http://www.w3.org/2000/svg" version="1.1" x="0px" y="0px" viewBox="0 0 40 40" style="enable-background:new 0 0 40 40;">
  <path d="M35.74,8.88c-0.24-0.4-0.89-0.5-1.43-0.23l-12.02,5.86l-9.46-5.86c-0.43-0.27-1.12-0.16-1.53,0.23    c-0.42,0.4-0.41,0.93,0.03,1.2l9.86,6.11c0.2,0.12,0.45,0.16,0.71,0.14c0.25,0.03,0.52-0.01,0.77-0.14l12.53-6.11    C35.74,9.81,35.98,9.27,35.74,8.88z"/>
  <path d="M37.65,4.43H21.54H17.2h-6.47c-1.54,0-3.02,1.01-3.3,2.26L3.23,21.33h2.02L9.45,6.69c0.08-0.35,0.49-0.63,0.92-0.63h6.47    h4.33h16.11c0.43,0,0.72,0.29,0.65,0.63l-3.66,16.78c-0.08,0.35-0.49,0.63-0.92,0.63h-7.8h-0.54l-1.29,1.63h0.12H33    c1.54,0,3.02-1.01,3.3-2.26l3.66-16.78C40.23,5.44,39.19,4.43,37.65,4.43z"/>
  <polygon points="21.09,25.73 0,25.73 1.64,23.65 22.73,23.65  "/>
  <polygon points="17.86,30.65 3.23,30.65 4.87,28.57 19.51,28.57  "/>
  <polygon points="14.63,35.57 6.45,35.57 8.1,33.5 16.28,33.5  "/>
</svg>
