<svg xmlns="http://www.w3.org/2000/svg" version="1.1" x="0px" y="0px" viewBox="0 0 40 40" style="enable-background:new 0 0 40 40;">
  <path d="M26.32,40H13.89c-0.65,0-1.18-0.4-1.18-0.9l2.33-2.97h10.12l2.33,2.97C27.5,39.6,26.97,40,26.32,40z"/>
  <path d="M36.97,12.5v15.82c0,0.65-0.53,1.18-1.18,1.18H4.2c-0.65,0-1.18-0.53-1.18-1.18V8.11c0-0.65,0.53-1.18,1.18-1.18h19.38    l3.03-3.03H4.2C1.89,3.91,0,5.8,0,8.11v22.3c0,2.32,1.89,4.21,4.21,4.21h31.59c2.32,0,4.21-1.89,4.21-4.21V9.48L36.97,12.5z     M20.11,33.18c-0.61,0-1.1-0.49-1.1-1.1c0-0.61,0.49-1.1,1.1-1.1s1.1,0.49,1.1,1.1C21.21,32.69,20.72,33.18,20.11,33.18z"/>
  <path d="M27.86,17.55L39.78,5.62c0.29-0.29,0.29-0.76,0-1.05l-4.35-4.35c-0.29-0.29-0.76-0.29-1.05,0L22.45,12.14L27.86,17.55z"/>
  <polygon points="20.78,13.43 18.67,21.3 26.54,19.19   "/>
</svg>
