<svg xmlns="http://www.w3.org/2000/svg" version="1.1" x="0px" y="0px" viewBox="0 0 40 40" style="enable-background:new 0 0 40 40;">
  <path d="M36.73,3.92H15.87h-5.05H3.27C1.47,3.92,0,5.39,0,7.19v25.62c0,1.8,1.47,3.27,3.27,3.27h7.55h5.05h20.87     c1.8,0,3.27-1.47,3.27-3.27V7.19C40,5.39,38.53,3.92,36.73,3.92z M37.65,32.81c0,0.51-0.41,0.92-0.92,0.92H15.87h-5.05H3.27     c-0.5,0-0.92-0.41-0.92-0.92V7.19c0-0.5,0.41-0.92,0.92-0.92h7.55h5.05h20.87c0.5,0,0.92,0.41,0.92,0.92V32.81z"/>
  <rect x="8.02" y="12.11" width="24.04" height="1.89"/>
  <rect x="6.04" y="24.47" width="6.63" height="1.9"/>
  <polygon points="24.72,26.66 24.09,27.08 24.23,27.83 23.51,28.07 23.47,28.83 22.71,28.88 22.46,29.6 21.72,29.45 21.3,30.08    20.62,29.75 20.05,30.25 19.47,29.75 18.79,30.08 18.37,29.45 17.63,29.6 17.39,28.88 16.63,28.83 16.58,28.07 15.86,27.83    16.01,27.08 15.37,26.66 15.71,25.98 15.21,25.41 15.71,24.84 15.37,24.16 16.01,23.74 15.86,22.99 16.58,22.75 16.63,21.99    17.39,21.94 17.63,21.22 18.37,21.37 18.79,20.74 19.47,21.08 20.05,20.57 20.62,21.08 21.3,20.74 21.72,21.37 22.46,21.22    22.71,21.94 23.46,21.99 23.51,22.75 24.23,22.99 24.09,23.74 24.72,24.16 24.38,24.84 24.88,25.41 24.38,25.98  "/>
  <rect x="14.4" y="16.03" width="11.3" height="1.9"/>
  <rect x="27.33" y="24.47" width="6.63" height="1.9"/>
</svg>
