<svg xmlns="http://www.w3.org/2000/svg" version="1.1" x="0px" y="0px" viewBox="0 0 40 40" style="enable-background:new 0 0 40 40;">
  <path d="M39.45,10.02c-0.35-0.52-0.84-0.86-1.44-1.09c0,0.08,0.01,0.14,0,0.2c-0.05,0.42-0.06,0.85-0.17,1.24  c-1.23,4.1-2.48,8.18-3.72,12.28c-1.15,3.77-2.29,7.55-3.44,11.32c-0.12,0.38-0.34,0.68-0.66,0.91c-0.48,0.34-1,0.5-1.58,0.5  c-7.41,0-14.83,0-22.24,0c-0.58,0-1.15-0.06-1.71-0.22c-0.88-0.26-1.51-0.78-1.74-1.71c-0.14-0.58,0.11-1.01,0.67-1.11  c0.18-0.03,0.37-0.04,0.56-0.04c6.65,0,13.3,0,19.95,0c0.58,0,1.17-0.01,1.75-0.05c0.53-0.03,1.04-0.15,1.52-0.39  c0.66-0.33,1.04-0.91,1.33-1.55c0.33-0.74,0.63-1.5,0.86-2.27c2.07-6.79,4.12-13.59,6.17-20.39c0.24-0.8,0.52-1.6,0.64-2.41  c0.2-1.33-0.32-2.4-1.42-3.18c-0.61-0.43-1.31-0.52-2.03-0.52c-5.97,0-11.94,0-17.9,0.01c-0.33,0-0.66,0.06-1,0.1  c-0.21,0.03-0.41,0.09-0.63,0c-0.18-0.07-0.39-0.04-0.59-0.07c-0.84-0.13-1.44,0.26-1.92,0.87c-0.39,0.5-0.61,1.09-0.85,1.66  C9.55,4.8,9.27,5.49,8.75,6.06C8.59,6.23,8.46,6.43,8.31,6.61C8.05,6.92,7.98,7.28,8.09,7.66c0.1,0.35,0.12,0.7,0.03,1.04  c-0.44,1.72-0.95,3.4-2.29,4.68c-0.37,0.35-0.5,0.77-0.4,1.28c0.06,0.28,0.09,0.59,0.03,0.87c-0.14,0.65-0.31,1.3-0.54,1.92  c-0.39,1.11-0.84,2.2-1.63,3.11c-0.22,0.26-0.28,0.57-0.25,0.91c0.02,0.28,0.08,0.58,0.02,0.85c-0.44,1.87-1.16,3.61-2.29,5.17  c-0.13,0.18-0.26,0.38-0.37,0.58c-0.12,0.21-0.18,0.44-0.1,0.68c0.13,0.36,0.14,0.73,0.08,1.1c-0.08,0.5-0.14,1-0.25,1.5  c-0.16,0.73-0.18,1.46,0.01,2.19c0.4,1.46,1.23,2.62,2.41,3.55c1.13,0.88,2.38,1.4,3.83,1.4c7.31,0,14.63,0,21.94,0  c0.24,0,0.49-0.01,0.72-0.04c0.9-0.13,1.7-0.5,2.42-1.06c0.82-0.65,1.43-1.44,1.74-2.44c2.13-6.99,4.25-13.98,6.36-20.97  c0.21-0.71,0.45-1.4,0.43-2.17C39.98,11.12,39.81,10.54,39.45,10.02z M13.8,10.12c0.09-0.3,0.18-0.61,0.27-0.91  c0.1-0.3,0.2-0.6,0.32-0.89c0.05-0.11,0.1-0.2,0.17-0.28c0.21-0.24,0.52-0.36,0.89-0.36l0,0l0,0c2.4,0,4.8,0,7.2,0  c2.35,0,4.7,0,7.05,0c0.05,0,0.1,0,0.15,0c0.57,0,0.78,0.3,0.6,0.85C30.31,9,30.16,9.47,30,9.94c-0.04,0.13-0.1,0.24-0.17,0.34  c-0.07,0.1-0.16,0.19-0.25,0.26c-0.19,0.14-0.44,0.22-0.71,0.22c-1.06,0-2.12,0-3.18,0c-3.72,0-7.43,0-11.15,0  c-0.08,0-0.16-0.01-0.24-0.02c-0.03,0-0.05-0.01-0.08-0.01c-0.08-0.01-0.15-0.04-0.21-0.07c-0.03-0.02-0.06-0.04-0.08-0.06  C13.81,10.49,13.75,10.31,13.8,10.12z M11.83,16.17c0.16-0.54,0.34-1.07,0.52-1.6c0.15-0.43,0.59-0.72,1.09-0.73  c0.58,0,1.17,0,1.75,0c4.19,0,8.37,0,12.56,0c0.09,0,0.19,0.01,0.28,0.01c0.42,0.01,0.57,0.41,0.47,0.73  c-0.17,0.54-0.35,1.08-0.53,1.62c-0.15,0.43-0.59,0.71-1.07,0.71c-2.41,0-4.81,0-7.22,0c-2.41,0-4.83,0-7.24,0  c-0.36,0-0.54-0.1-0.61-0.37C11.8,16.43,11.8,16.29,11.83,16.17z"/>
</svg>
