<svg xmlns="http://www.w3.org/2000/svg" version="1.1" x="0px" y="0px" viewBox="0 0 40 40" style="enable-background:new 0 0 40 40;">
  <path d="M19.7,23.43H8.63l3.63-3.63c0.45-0.45,0.45-1.18,0-1.63l-1.43-1.43c-0.45-0.45-1.18-0.45-1.63,0L0.34,25.6   c-0.45,0.45-0.45,1.18,0,1.63l8.86,8.86c0.45,0.45,1.18,0.45,1.63,0l1.43-1.43c0.45-0.45,0.45-1.18,0-1.63l-3.63-3.63h16.36   L19.7,23.43z"/>
  <path d="M29.17,3.91l-1.43,1.43c-0.45,0.45-0.45,1.18,0,1.63l3.63,3.63H15.01l5.28,5.96h11.08l-3.63,3.63   c-0.45,0.45-0.45,1.18,0,1.63l1.43,1.43c0.45,0.45,1.18,0.45,1.63,0l8.86-8.86c0.45-0.45,0.45-1.18,0-1.63L30.8,3.91   C30.35,3.46,29.62,3.46,29.17,3.91z"/>
</svg>
