<svg xmlns="http://www.w3.org/2000/svg" version="1.1" x="0px" y="0px" viewBox="0 0 40 40" style="enable-background:new 0 0 40 40;">
  <path d="M11.91,16.26c-6.56,0-11.87,5.32-11.87,11.87C0.04,34.68,5.36,40,11.91,40s11.87-5.32,11.87-11.87   C23.79,21.57,18.47,16.26,11.91,16.26z M11.91,38.61c-5.79,0-10.48-4.69-10.48-10.48c0-5.79,4.69-10.48,10.48-10.48   S22.4,22.34,22.4,28.13C22.4,33.92,17.7,38.61,11.91,38.61z"/>
  <path d="M19.05,30.41v2.75c0,0.23-0.08,0.42-0.24,0.58c-0.16,0.16-0.35,0.24-0.58,0.24H5.6c-0.23,0-0.42-0.08-0.58-0.24   c-0.16-0.16-0.24-0.35-0.24-0.58v-2.75c0-0.23,0.08-0.42,0.24-0.58c0.16-0.16,0.35-0.24,0.58-0.24h3.99l1.16,1.17   c0.33,0.32,0.72,0.48,1.17,0.48c0.45,0,0.83-0.16,1.17-0.48l1.17-1.17h3.98c0.23,0,0.42,0.08,0.58,0.24   C18.97,29.99,19.05,30.18,19.05,30.41z M16.26,25.53c0.1,0.23,0.06,0.44-0.12,0.6l-3.84,3.84c-0.1,0.11-0.23,0.16-0.39,0.16   c-0.15,0-0.28-0.05-0.39-0.16l-3.84-3.84c-0.18-0.17-0.22-0.37-0.12-0.6c0.1-0.22,0.27-0.33,0.51-0.33h2.2v-3.84   c0-0.15,0.05-0.28,0.16-0.39c0.11-0.11,0.24-0.16,0.39-0.16h2.2c0.15,0,0.28,0.05,0.39,0.16c0.11,0.11,0.16,0.24,0.16,0.39v3.84   h2.2C16,25.19,16.17,25.31,16.26,25.53z M15.59,32.72c0.11-0.11,0.16-0.24,0.16-0.39c0-0.15-0.05-0.28-0.16-0.39   c-0.11-0.11-0.24-0.16-0.39-0.16s-0.28,0.05-0.39,0.16c-0.11,0.11-0.16,0.24-0.16,0.39c0,0.15,0.05,0.28,0.16,0.39   c0.11,0.11,0.24,0.16,0.39,0.16S15.49,32.83,15.59,32.72z M17.79,32.72c0.11-0.11,0.16-0.24,0.16-0.39c0-0.15-0.05-0.28-0.16-0.39   c-0.11-0.11-0.24-0.16-0.39-0.16c-0.15,0-0.28,0.05-0.39,0.16c-0.11,0.11-0.16,0.24-0.16,0.39c0,0.15,0.05,0.28,0.16,0.39   c0.11,0.11,0.24,0.16,0.39,0.16C17.55,32.88,17.68,32.83,17.79,32.72z"/>
  <path d="M39.96,9.08l-9.09-9.06V0H20.65c-1.21,0-2.18,0.98-2.18,2.18v1.25h1.57V2.18c0-0.34,0.27-0.61,0.61-0.61h8.65V5.3   l1.57,1.57V2.24l6.87,6.85H33.1l1.58,1.57h3.71v13.6c0,0.34-0.28,0.61-0.61,0.61h-1.25v1.57h1.25c1.2,0,2.18-0.98,2.18-2.18   L39.96,9.08L39.96,9.08L39.96,9.08z"/>
  <path d="M36.53,12.51l-9.09-9.06V3.43H17.22c-1.21,0-2.18,0.98-2.18,2.18v11.07c0.54,0.15,1.07,0.32,1.57,0.54V5.62   c0-0.34,0.27-0.61,0.61-0.61h8.65v6.9c0,1.2,0.98,2.18,2.18,2.18h6.9v13.6c0,0.34-0.28,0.61-0.61,0.61H23.78   c-0.01,0.53-0.06,1.06-0.13,1.57h10.7c1.2,0,2.18-0.98,2.18-2.18L36.53,12.51L36.53,12.51L36.53,12.51z M28.05,12.52   c-0.34,0-0.61-0.27-0.61-0.61V5.67l6.87,6.85H28.05z"/>
</svg>
