<svg xmlns="http://www.w3.org/2000/svg" version="1.1" x="0px" y="0px" viewBox="0 0 40 40" style="enable-background:new 0 0 40 40;">
  <path fill-rule="evenodd" clip-rule="evenodd" d="M11.97,21.34l-0.15,1.9c2.64,0.35,4.74,2.48,5.07,5.12l1.9-0.12C18.4,24.65,15.55,21.78,11.97,21.34     L11.97,21.34z M13.71,28.57c-0.21-1.08-1.07-1.94-2.14-2.16l0.15-1.9c2.02,0.3,3.62,1.92,3.9,3.94L13.71,28.57L13.71,28.57z"/>
  <path d="M10.58,33.13c-0.88,0-1.56-0.24-2.06-0.73c-0.49-0.48-0.74-1.17-0.74-2.06c0-0.91,0.23-1.62,0.69-2.12      c0.46-0.5,1.09-0.75,1.89-0.75c0.77,0,1.37,0.22,1.8,0.66c0.43,0.44,0.64,1.05,0.64,1.82v0.72H9.29      c0.02,0.42,0.14,0.75,0.38,0.99c0.23,0.24,0.56,0.36,0.99,0.36c0.33,0,0.64-0.03,0.93-0.1c0.29-0.07,0.6-0.18,0.92-0.33v1.15      c-0.26,0.13-0.54,0.23-0.83,0.29C11.37,33.1,11.01,33.13,10.58,33.13z M10.37,28.54c-0.32,0-0.56,0.1-0.74,0.3      c-0.18,0.2-0.28,0.48-0.31,0.85h2.09c-0.01-0.37-0.1-0.65-0.29-0.85C10.94,28.64,10.69,28.54,10.37,28.54z"/>
  <path d="M11.87,16.26C5.32,16.26,0,21.57,0,28.13C0,34.68,5.32,40,11.87,40s11.87-5.32,11.87-11.87   C23.74,21.57,18.43,16.26,11.87,16.26z M11.87,38.61c-5.79,0-10.48-4.69-10.48-10.48c0-5.79,4.69-10.48,10.48-10.48   s10.48,4.69,10.48,10.48C22.36,33.92,17.66,38.61,11.87,38.61z"/>
  <path d="M26.86,16.02c0.18,0.19,0.4,0.29,0.67,0.29c0.27,0,0.49-0.1,0.67-0.29l6.71-6.71c0.31-0.29,0.38-0.64,0.21-1.05    c-0.17-0.39-0.46-0.58-0.88-0.58h-3.84V0.96c0-0.26-0.1-0.48-0.29-0.67C29.93,0.1,29.71,0,29.45,0h-3.84    c-0.26,0-0.48,0.1-0.67,0.29c-0.19,0.19-0.28,0.41-0.28,0.67v6.72h-3.84c-0.42,0-0.71,0.19-0.88,0.58    c-0.17,0.41-0.1,0.76,0.21,1.05L26.86,16.02z"/>
  <path d="M39.58,15.77c-0.28-0.28-0.62-0.42-1.02-0.42h-6.95l-2.04,2.04c-0.58,0.56-1.26,0.84-2.04,0.84    c-0.78,0-1.46-0.28-2.04-0.84l-2.02-2.04H16.5c-0.4,0-0.74,0.14-1.02,0.42c-0.26,0.26-0.39,0.58-0.4,0.94    c3.32,0.93,6.04,3.26,7.5,6.32h15.98c0.4,0,0.74-0.14,1.02-0.42c0.28-0.28,0.42-0.62,0.42-1.02v-4.8    C40,16.39,39.86,16.05,39.58,15.77z M33.96,20.82c-0.19,0.19-0.41,0.29-0.67,0.29c-0.26,0-0.48-0.1-0.67-0.29    c-0.19-0.19-0.29-0.41-0.29-0.68c0-0.26,0.1-0.48,0.29-0.67c0.19-0.19,0.41-0.28,0.67-0.28c0.26,0,0.49,0.1,0.67,0.28    c0.19,0.19,0.29,0.41,0.29,0.67C34.25,20.4,34.15,20.63,33.96,20.82z M37.8,20.82c-0.19,0.19-0.41,0.29-0.67,0.29    c-0.26,0-0.49-0.1-0.67-0.29c-0.19-0.19-0.29-0.41-0.29-0.68c0-0.26,0.1-0.48,0.29-0.67c0.19-0.19,0.41-0.28,0.67-0.28    c0.26,0,0.48,0.1,0.67,0.28c0.19,0.19,0.29,0.41,0.29,0.67C38.08,20.4,37.99,20.63,37.8,20.82z"/>
</svg>
