<svg xmlns="http://www.w3.org/2000/svg" version="1.1" x="0px" y="0px" viewBox="0 0 40 40" style="enable-background:new 0 0 40 40;">
  <path d="M11.87,16.25C5.31,16.25,0,21.57,0,28.13C0,34.69,5.31,40,11.87,40s11.87-5.32,11.87-11.87   C23.75,21.57,18.43,16.25,11.87,16.25z M11.87,38.61c-5.79,0-10.48-4.69-10.48-10.48c0-5.79,4.69-10.48,10.48-10.48   s10.48,4.69,10.48,10.48C22.36,33.92,17.66,38.61,11.87,38.61z"/>
  <path d="M19.01,30.41v2.75c0,0.23-0.08,0.42-0.24,0.58c-0.16,0.16-0.35,0.24-0.58,0.24H5.56c-0.23,0-0.42-0.08-0.58-0.24   c-0.16-0.16-0.24-0.35-0.24-0.58v-2.75c0-0.23,0.08-0.42,0.24-0.58s0.35-0.24,0.58-0.24h3.99l1.16,1.17   c0.33,0.32,0.72,0.48,1.17,0.48s0.83-0.16,1.17-0.48l1.17-1.17h3.98c0.23,0,0.42,0.08,0.58,0.24   C18.93,29.99,19.01,30.18,19.01,30.41z M16.22,25.53c0.1,0.23,0.06,0.44-0.12,0.6l-3.84,3.84c-0.1,0.11-0.23,0.16-0.39,0.16   c-0.15,0-0.28-0.05-0.39-0.16l-3.84-3.84c-0.18-0.17-0.22-0.37-0.12-0.6c0.1-0.22,0.27-0.33,0.51-0.33h2.2v-3.85   c0-0.15,0.05-0.28,0.16-0.39c0.11-0.11,0.24-0.16,0.39-0.16h2.2c0.15,0,0.28,0.05,0.39,0.16c0.11,0.11,0.16,0.24,0.16,0.39v3.85   h2.2C15.96,25.2,16.13,25.31,16.22,25.53z M15.55,32.72c0.11-0.11,0.16-0.24,0.16-0.39c0-0.15-0.05-0.28-0.16-0.39   c-0.11-0.11-0.24-0.16-0.39-0.16s-0.28,0.05-0.39,0.16c-0.11,0.11-0.16,0.24-0.16,0.39c0,0.15,0.05,0.28,0.16,0.39   c0.11,0.11,0.24,0.16,0.39,0.16S15.44,32.83,15.55,32.72z M17.75,32.72c0.11-0.11,0.16-0.24,0.16-0.39c0-0.15-0.05-0.28-0.16-0.39   c-0.11-0.11-0.24-0.16-0.39-0.16c-0.15,0-0.28,0.05-0.39,0.16c-0.11,0.11-0.16,0.24-0.16,0.39c0,0.15,0.05,0.28,0.16,0.39   c0.11,0.11,0.24,0.16,0.39,0.16C17.51,32.88,17.64,32.83,17.75,32.72z"/>
  <path d="M40,10.26L29.74,0.01V0H18.18c-1.36,0-2.47,1.11-2.47,2.47V16.9c0.62,0.21,1.21,0.46,1.78,0.77V2.47   c0-0.38,0.31-0.69,0.69-0.69h9.77v7.8c0,1.36,1.11,2.47,2.47,2.47h7.8v15.37c0,0.38-0.31,0.69-0.69,0.69H23.74   c0,0.01,0,0.02,0,0.03c0,0.6-0.06,1.18-0.14,1.75h13.93c1.36,0,2.47-1.11,2.47-2.47L40,10.26L40,10.26L40,10.26z M30.43,10.26   c-0.38,0-0.69-0.31-0.69-0.69V2.52l7.76,7.74H30.43z"/>
</svg>
