<svg xmlns="http://www.w3.org/2000/svg" version="1.1" x="0px" y="0px" viewBox="0 0 40 40" style="enable-background:new 0 0 40 40;">
  <path d="M11.87,16.25C5.31,16.25,0,21.57,0,28.13C0,34.69,5.31,40,11.87,40s11.87-5.32,11.87-11.87   C23.75,21.57,18.43,16.25,11.87,16.25z M11.87,38.61c-5.79,0-10.48-4.69-10.48-10.48c0-5.79,4.69-10.48,10.48-10.48   s10.48,4.69,10.48,10.48C22.36,33.92,17.66,38.61,11.87,38.61z"/>
  <path d="M39.58,15.77c-0.28-0.28-0.62-0.42-1.02-0.42h-6.96l-2.04,2.04c-0.58,0.56-1.26,0.84-2.04,0.84s-1.46-0.28-2.04-0.84    l-2.02-2.04H16.5c-0.4,0-0.74,0.14-1.02,0.42c-0.26,0.26-0.39,0.58-0.4,0.94c3.32,0.93,6.04,3.26,7.5,6.32h15.98    c0.4,0,0.74-0.14,1.02-0.42c0.28-0.28,0.42-0.62,0.42-1.02v-4.8C40,16.39,39.86,16.05,39.58,15.77z M33.96,20.82    c-0.19,0.19-0.41,0.29-0.67,0.29c-0.26,0-0.48-0.1-0.67-0.29c-0.19-0.19-0.29-0.41-0.29-0.68c0-0.26,0.1-0.48,0.29-0.67    c0.19-0.19,0.41-0.28,0.67-0.28c0.26,0,0.49,0.1,0.67,0.28c0.19,0.19,0.29,0.41,0.29,0.67C34.25,20.4,34.15,20.63,33.96,20.82z     M37.8,20.82c-0.19,0.19-0.41,0.29-0.67,0.29c-0.26,0-0.49-0.1-0.67-0.29c-0.19-0.19-0.29-0.41-0.29-0.68    c0-0.26,0.1-0.48,0.29-0.67c0.19-0.19,0.41-0.28,0.67-0.28c0.26,0,0.48,0.1,0.67,0.28c0.19,0.19,0.29,0.41,0.29,0.67    C38.08,20.4,37.99,20.63,37.8,20.82z"/>
  <path d="M26.86,16.02c0.18,0.19,0.4,0.29,0.67,0.29c0.27,0,0.49-0.1,0.67-0.29l6.71-6.71c0.31-0.29,0.38-0.64,0.21-1.05    c-0.17-0.39-0.46-0.58-0.88-0.58h-3.84V0.96c0-0.26-0.1-0.48-0.29-0.67C29.93,0.09,29.71,0,29.45,0h-3.84    c-0.26,0-0.48,0.1-0.67,0.29c-0.19,0.19-0.28,0.41-0.28,0.67v6.72h-3.84c-0.42,0-0.71,0.19-0.88,0.58    c-0.17,0.41-0.1,0.76,0.21,1.05L26.86,16.02z"/>
  <path d="M16.9,23.81h-6.02H9.26H6.85c-0.58,0-1.05,0.47-1.05,1.05v6.54c0,0.58,0.47,1.05,1.05,1.05h2.42h1.62h6.02    c0.58,0,1.05-0.47,1.05-1.05v-6.54C17.94,24.28,17.47,23.81,16.9,23.81z M17.19,31.4c0,0.16-0.13,0.29-0.29,0.29h-6.02H9.26H6.85    c-0.16,0-0.29-0.13-0.29-0.29v-6.54c0-0.16,0.13-0.29,0.29-0.29h2.42h1.62h6.02c0.16,0,0.29,0.13,0.29,0.29V31.4z"/>
  <path d="M15.99,25.76l-4.01,2.71l-4.01-2.71c-0.18-0.12-0.43-0.08-0.55,0.11s-0.08,0.43,0.11,0.55l4.18,2.82    c0.08,0.05,0.17,0.07,0.25,0.06c0.01,0,0.01,0,0.02,0c0.01,0,0.02,0,0.02,0c0.09,0.01,0.18-0.01,0.25-0.06l4.18-2.82    c0.18-0.12,0.23-0.37,0.11-0.55S16.17,25.64,15.99,25.76z"/>
</svg>
