<svg xmlns="http://www.w3.org/2000/svg" version="1.1" x="0px" y="0px" viewBox="0 0 40 40" style="enable-background:new 0 0 40 40;">
  <path d="M22.51,0.02V0H7.05c-1.82,0-3.3,1.48-3.3,3.3V36.7c0,1.82,1.48,3.3,3.3,3.3h25.9c1.82,0,3.3-1.48,3.3-3.3V13.74h-0.01     l0.01-0.01L22.51,0.02z M32.9,13.74h-9.46c-0.51,0-0.93-0.41-0.93-0.92V3.38L32.9,13.74z M20.13,12.82c0,1.82,1.48,3.3,3.3,3.3     h10.44V36.7c0,0.51-0.42,0.93-0.93,0.93H7.05c-0.51,0-0.93-0.42-0.93-0.93V3.3c0-0.51,0.41-0.93,0.93-0.93h13.09V12.82z"/>
</svg>
