<svg xmlns="http://www.w3.org/2000/svg" version="1.1" x="0px" y="0px" viewBox="0 0 40 40" style="enable-background:new 0 0 40 40;">
  <path d="M8.6,10.6c-0.8,0.8-0.8,2.2,0,3L15,20l-6.4,6.4c-0.8,0.8-0.8,2.2,0,3c0.8,0.8,2.2,0.8,3,0l7.7-7.7c0.1-0.1,0.1-0.1,0.2-0.2   c0.4-0.4,0.6-1,0.6-1.5c0-0.5-0.2-1.1-0.6-1.5c-0.1-0.1-0.1-0.1-0.2-0.2l-7.7-7.7C10.7,9.8,9.4,9.8,8.6,10.6z"/>
  <path d="M22.6,10.6c-0.8,0.8-0.8,2.2,0,3L29,20l-6.4,6.4c-0.8,0.8-0.8,2.2,0,3c0.8,0.8,2.2,0.8,3,0l7.7-7.7   c0.1-0.1,0.1-0.1,0.2-0.2c0.4-0.4,0.6-1,0.6-1.5c0-0.5-0.2-1.1-0.6-1.5c-0.1-0.1-0.1-0.1-0.2-0.2l-7.7-7.7   C24.7,9.8,23.4,9.8,22.6,10.6z"/>
</svg>
