<svg xmlns="http://www.w3.org/2000/svg" version="1.1" x="0px" y="0px" viewBox="0 0 40 40" style="enable-background:new 0 0 40 40;">
  <path d="M40,28.46v7.69c0,0.64-0.22,1.19-0.67,1.64c-0.45,0.45-0.99,0.67-1.63,0.67H2.31c-0.64,0-1.19-0.23-1.63-0.67  S0,36.79,0,36.15v-7.69c0-0.64,0.22-1.18,0.67-1.63c0.45-0.45,0.99-0.67,1.63-0.67h11.18l3.25,3.27c0.93,0.9,2.02,1.35,3.27,1.35  c1.25,0,2.34-0.45,3.27-1.35l3.27-3.27h11.15c0.64,0,1.19,0.22,1.63,0.67C39.78,27.28,40,27.82,40,28.46z M32.19,14.78  c0.27,0.66,0.16,1.22-0.34,1.68L21.08,27.24c-0.29,0.3-0.65,0.46-1.08,0.46s-0.79-0.15-1.08-0.46L8.15,16.47  c-0.5-0.46-0.61-1.03-0.34-1.68c0.27-0.63,0.75-0.94,1.42-0.94h6.15V3.08c0-0.42,0.15-0.78,0.46-1.08c0.3-0.3,0.67-0.46,1.08-0.46  h6.15c0.42,0,0.78,0.15,1.08,0.46c0.3,0.3,0.46,0.67,0.46,1.08v10.77h6.15C31.44,13.85,31.92,14.16,32.19,14.78z M30.31,34.93  c0.3-0.3,0.46-0.67,0.46-1.08c0-0.42-0.15-0.78-0.46-1.08c-0.3-0.3-0.67-0.45-1.08-0.45s-0.78,0.15-1.08,0.45  c-0.3,0.3-0.46,0.67-0.46,1.08c0,0.42,0.15,0.78,0.46,1.08c0.3,0.3,0.66,0.46,1.08,0.46S30.01,35.23,30.31,34.93z M36.47,34.93  c0.3-0.3,0.46-0.67,0.46-1.08c0-0.42-0.15-0.78-0.46-1.08c-0.3-0.3-0.67-0.45-1.08-0.45c-0.42,0-0.78,0.15-1.08,0.45  c-0.3,0.3-0.46,0.67-0.46,1.08c0,0.42,0.15,0.78,0.46,1.08c0.3,0.3,0.66,0.46,1.08,0.46C35.8,35.39,36.16,35.23,36.47,34.93z"/>
</svg>
