<svg xmlns="http://www.w3.org/2000/svg" version="1.1" x="0px" y="0px" viewBox="0 0 40 40" style="enable-background:new 0 0 40 40;">
  <path d="M36.21,2.64H13.77c-2.09,0-3.79,1.7-3.79,3.79v1.68h-6.2C1.7,8.11,0,9.81,0,11.9v10.45v0.77v10.45  c0,2.09,1.7,3.79,3.79,3.79h22.44c2.09,0,3.79-1.7,3.79-3.79v-1.68h6.2c2.09,0,3.79-1.7,3.79-3.79V17.65v-0.77V6.43  C40,4.34,38.3,2.64,36.21,2.64z M26.87,33.57c0,0.35-0.29,0.64-0.64,0.64H3.79c-0.35,0-0.64-0.29-0.64-0.64V23.12v-0.77V11.9  c0-0.35,0.29-0.64,0.64-0.64h6.2v5.63v0.77V28.1c0,2.09,1.7,3.79,3.79,3.79h13.09V33.57z M36.85,16.88v0.77V28.1  c0,0.35-0.29,0.64-0.64,0.64H13.77c-0.35,0-0.64-0.29-0.64-0.64V17.65v-0.77V6.43c0-0.35,0.29-0.64,0.64-0.64h22.44  c0.35,0,0.64,0.29,0.64,0.64V16.88z"/>
</svg>
