<svg xmlns="http://www.w3.org/2000/svg" version="1.1" x="0px" y="0px" viewBox="0 0 40 40" style="enable-background:new 0 0 40 40;">
  <path d="M33.34,16.09v15.99c0,0.39-0.32,0.72-0.72,0.72H7.63c-0.39,0-0.72-0.32-0.72-0.72V7.09c0-0.39,0.32-0.72,0.72-0.72h16.56   l3.51-3.51H7.63c-2.33,0-4.22,1.89-4.22,4.22v24.99c0,2.33,1.89,4.22,4.22,4.22h24.99c2.33,0,4.22-1.89,4.22-4.22v-19.5   L33.34,16.09z"/>
  <path d="M24.99,21.68L39.73,6.94c0.36-0.36,0.36-0.94,0-1.3l-5.38-5.38c-0.36-0.36-0.94-0.36-1.3,0L18.32,15.01L24.99,21.68z"/>
  <polygon points="16.25,16.59 13.65,26.31 23.37,23.71  "/>
</svg>
