<svg xmlns="http://www.w3.org/2000/svg" version="1.1" x="0px" y="0px" viewBox="0 0 40 40" style="enable-background:new 0 0 40 40;">
  <path fill-rule="evenodd" clip-rule="evenodd" d="M15.52,0l-0.51,6.44c8.96,1.2,16.1,8.4,17.2,17.39l6.45-0.41C37.35,11.23,27.67,1.46,15.52,0L15.52,0z    M21.44,24.52c-0.71-3.67-3.61-6.59-7.28-7.32l0.51-6.46c6.85,1.02,12.28,6.5,13.24,13.37L21.44,24.52L21.44,24.52z"/>
  <path d="M10.83,40c-2.98,0-5.31-0.82-6.98-2.47c-1.68-1.64-2.51-3.97-2.51-6.98c0-3.1,0.77-5.5,2.33-7.19    c1.55-1.69,3.69-2.54,6.43-2.54c2.62,0,4.65,0.74,6.11,2.23c1.46,1.49,2.18,3.55,2.18,6.17v2.45H6.45    c0.06,1.43,0.48,2.55,1.27,3.36c0.79,0.81,1.91,1.21,3.34,1.21c1.11,0,2.17-0.12,3.16-0.35c0.99-0.23,2.03-0.6,3.11-1.11v3.91    c-0.88,0.44-1.83,0.77-2.83,0.98C13.5,39.89,12.28,40,10.83,40z M10.12,24.41c-1.07,0-1.91,0.34-2.51,1.02    C7,26.11,6.65,27.07,6.56,28.32h7.08c-0.02-1.25-0.35-2.21-0.98-2.89C12.04,24.75,11.19,24.41,10.12,24.41z"/>
</svg>
