<svg xmlns="http://www.w3.org/2000/svg" version="1.1" x="0px" y="0px" viewBox="0 0 40 40" style="enable-background:new 0 0 40 40;">
  <path d="M18.03,24.57c-0.46-0.03-0.88-0.05-1.29-0.08c-2.89-0.21-5.78-0.42-8.67-0.63c-0.69-0.05-1.18-0.43-1.16-1.01    c0.01-0.35,0.18-0.76,0.41-1.04c2.3-2.84,4.64-5.67,6.96-8.5c3.49-4.25,6.99-8.51,10.48-12.77C25.08,0.14,25.48-0.1,26,0.04    c0.49,0.13,0.9,0.41,0.97,0.94c0.04,0.27-0.01,0.57-0.11,0.83c-1.47,3.85-2.95,7.69-4.43,11.54c-0.25,0.66-0.5,1.31-0.78,2.06    c0.22,0.01,0.39,0.02,0.55,0.03c3.18,0.19,6.35,0.38,9.53,0.58c0.25,0.02,0.52,0.04,0.74,0.14c0.7,0.31,0.82,1.16,0.27,1.82    c-1.03,1.25-2.07,2.49-3.1,3.74c-4.89,5.9-9.79,11.8-14.68,17.7c-0.52,0.63-1.06,0.74-1.69,0.34c-0.57-0.35-0.72-0.86-0.45-1.56    c1-2.63,2.01-5.26,3.02-7.89c0.67-1.76,1.35-3.52,2.02-5.29C17.92,24.91,17.96,24.78,18.03,24.57z"/>
</svg>
