<svg xmlns="http://www.w3.org/2000/svg" version="1.1" x="0px" y="0px" viewBox="0 0 40 40" style="enable-background:new 0 0 40 40;">
  <path d="M38.83,14.89c-0.1-0.17-0.22-0.33-0.4-0.44L21.28,0.22c-0.28-0.19-0.6-0.25-0.91-0.21c-0.31-0.04-0.63,0.02-0.91,0.21  L1.52,14.45c-0.19,0.13-0.32,0.31-0.42,0.51C0.42,15.59,0,16.47,0,17.46v19.09C0,38.46,1.55,40,3.45,40h7.96h5.33h19.82  c1.9,0,3.45-1.55,3.45-3.45V17.46C40,16.44,39.54,15.52,38.83,14.89z M20.37,2.78L36.33,16.1L20.37,29.43L3.65,16.1L20.37,2.78z   M36.55,37.52H16.73h-5.33H3.45c-0.53,0-0.97-0.43-0.97-0.97V18.52l16.97,13.46c0.28,0.19,0.6,0.25,0.91,0.21  c0.31,0.04,0.63-0.02,0.91-0.21l16.24-13.47v18.04C37.52,37.09,37.09,37.52,36.55,37.52z"/>
</svg>
