<svg xmlns="http://www.w3.org/2000/svg" version="1.1" x="0px" y="0px" viewBox="0 0 40 40" style="enable-background:new 0 0 40 40;">
  <path d="M7.65,32.03c0.14-1.88,1.16-3.42,2.11-4.97c1.11-1.82,2.23-3.62,3.45-5.37c0.59-0.85,1.4-1.56,2.14-2.29   c5.8-5.79,11.6-11.59,17.43-17.35C34.2,0.65,36.05,0.11,38,0c1.36-0.07,2.08,0.7,1.91,2.05c-0.26,2.08-0.92,3.98-2.5,5.53   c-4.8,4.71-9.64,9.39-14.27,14.26c-3.61,3.8-6.17,5.69-10.39,8.35c-0.95,0.67-3.56,2.03-4.75,2.22C7.9,32.27,7.74,32.16,7.65,32.03   z"/>
  <path d="M16.02,16.44c-2.66-1.94-5.55-4.06-8.44-6.18C6.82,9.7,6.03,9.19,5.33,8.57C5.08,8.34,4.86,7.82,4.93,7.5   c0.33-1.36,2.1-2.44,3.48-2.09c5.02,1.25,10.03,2.54,15,3.8C20.98,11.6,18.55,13.97,16.02,16.44z"/>
  <path d="M30.68,16.24c0.36,1.68,0.67,3.28,1.05,4.85c0.43,1.76,0.93,3.51,1.4,5.26c0.46,1.73,0.94,3.46,1.37,5.2   c0.32,1.32-0.97,3.34-2.28,3.49c-0.32,0.04-0.79-0.29-1.01-0.59c-1.9-2.53-3.76-5.09-5.62-7.65c-0.77-1.06-1.51-2.15-2.39-3.39   C25.68,21.05,28.11,18.71,30.68,16.24z"/>
  <path d="M16.58,29.43c0.37,2.76,0.82,5.41,1.04,8.07c0.06,0.81-0.53,1.67-0.82,2.5c-0.13-0.02-0.26-0.04-0.39-0.06   c-1.74-2.39-3.47-4.77-5.26-7.24C12.94,31.62,14.69,30.56,16.58,29.43z"/>
  <path d="M10.64,23.25c-2.76-0.37-5.41-0.82-8.07-1.04c-0.81-0.06-1.67,0.53-2.5,0.82c0.02,0.13,0.04,0.26,0.06,0.39   c2.39,1.74,4.77,3.47,7.24,5.26C8.45,26.88,9.5,25.14,10.64,23.25z"/>
</svg>
