<svg xmlns="http://www.w3.org/2000/svg" version="1.1" x="0px" y="0px" viewBox="0 0 40 40" style="enable-background:new 0 0 40 40;">
  <path d="M32.79,5.75c0,0.86,0.05,1.71-0.01,2.55c-0.19,2.43-1.16,4.55-2.76,6.34c-1.07,1.19-2.25,2.29-3.42,3.39    c-0.79,0.75-1.09,1.65-0.78,2.66c0.14,0.47,0.48,0.92,0.84,1.28c0.87,0.9,1.82,1.71,2.69,2.6c1.77,1.82,3,3.95,3.37,6.5    c0.09,0.63,0.1,1.27,0.13,1.91c0.02,0.41,0,0.83,0,1.24c0.3,0.06,0.58,0.1,0.85,0.18c1.33,0.41,2.19,1.77,1.99,3.11    c-0.22,1.43-1.39,2.46-2.84,2.47c-3.6,0.01-7.2,0-10.8,0c-4.97,0-9.94,0-14.91,0c-1.45,0-2.62-1.04-2.84-2.47    c-0.2-1.33,0.63-2.67,1.95-3.1c0.27-0.09,0.55-0.12,0.89-0.2c0-0.29,0.01-0.61,0-0.93c-0.11-3.46,1.18-6.35,3.57-8.79    c0.89-0.9,1.82-1.76,2.74-2.62c0.77-0.72,1.03-1.61,0.73-2.6c-0.15-0.47-0.48-0.92-0.83-1.28c-0.78-0.81-1.65-1.55-2.45-2.35    c-1.55-1.55-2.78-3.3-3.32-5.45c-0.23-0.9-0.32-1.84-0.41-2.77C7.1,6.89,7.15,6.33,7.15,5.76C6.84,5.7,6.56,5.66,6.3,5.58    C4.96,5.17,4.1,3.81,4.31,2.47C4.53,1.02,5.71,0,7.19,0c7.41,0,14.82,0,22.23,0c1.1,0,2.2,0,3.3,0c1.65,0,2.91,1.14,2.99,2.69    c0.08,1.59-1.04,2.84-2.71,3.02C32.97,5.72,32.94,5.73,32.79,5.75z M10.02,5.72c-0.08,1.62-0.01,3.18,0.62,4.67    c0.75,1.77,2.03,3.13,3.42,4.4c0.61,0.56,1.22,1.13,1.79,1.74c1.33,1.45,1.55,3.17,1.1,5c-0.29,1.15-1.09,2-1.92,2.8    c-0.71,0.68-1.45,1.32-2.15,2.02c-1.05,1.05-1.89,2.25-2.4,3.66c-0.5,1.38-0.54,2.81-0.46,4.25c6.67,0,13.3,0,19.95,0    c0.09-1.7-0.01-3.34-0.73-4.9c-0.72-1.56-1.85-2.79-3.09-3.94c-0.68-0.63-1.36-1.25-1.99-1.92c-1.17-1.24-1.47-2.74-1.27-4.38    c0.17-1.35,0.94-2.36,1.87-3.26c0.77-0.75,1.58-1.45,2.34-2.2c0.88-0.87,1.61-1.87,2.14-3c0.73-1.57,0.83-3.22,0.72-4.92    C23.31,5.72,16.69,5.72,10.02,5.72z"/>
  <path d="M13.12,31.39c1.01-1.11,2.15-2.18,3.07-3.43c0.92-1.25,1.61-2.66,2.37-4.02c0.31-0.55,0.64-1.04,1.35-1.08    c0.54-0.03,0.96,0.18,1.25,0.62c0.18,0.29,0.34,0.59,0.48,0.9c1.25,2.66,2.96,4.98,5.25,6.84c0.05,0.04,0.09,0.08,0.19,0.17    C22.34,31.39,17.68,31.39,13.12,31.39z"/>
</svg>
