<svg xmlns="http://www.w3.org/2000/svg" width="40" height="40" viewBox="0 0 40 40" fill="none">
  <path d="M19.9988 37.835C19.7288 37.835 19.4488 37.735 19.2388 37.545C19.2388 37.545 8.91881 28.315 4.76881 24.615C-0.651192 19.775 -1.57119 12.145 2.62881 6.85498C5.03881 3.83498 8.30881 2.16498 11.8488 2.16498C16.3288 2.16498 18.4388 3.80498 19.9988 7.04498C21.5588 3.80498 23.6688 2.16498 28.1488 2.16498C31.6888 2.16498 34.9588 3.83498 37.3688 6.85498C41.5788 12.145 40.6588 19.775 35.2388 24.605C32.0988 27.395 20.7688 37.535 20.7688 37.535C20.5488 37.735 20.2788 37.825 20.0088 37.825L19.9988 37.835Z"/>
</svg>
