<svg xmlns="http://www.w3.org/2000/svg" width="40" height="40" viewBox="0 0 40 40" fill="none">
  <path d="M19.9988 37.835C19.7288 37.835 19.4488 37.735 19.2388 37.545C19.2388 37.545 8.91881 28.315 4.76881 24.615C-0.651192 19.775 -1.57119 12.145 2.62881 6.85498C5.03881 3.83498 8.30881 2.16498 11.8488 2.16498C16.3288 2.16498 18.4388 3.80498 19.9988 7.04498C21.5588 3.80498 23.6688 2.16498 28.1488 2.16498C31.6888 2.16498 34.9588 3.83498 37.3688 6.85498C41.5788 12.145 40.6588 19.775 35.2388 24.605C32.0988 27.395 20.7688 37.535 20.7688 37.535C20.5488 37.735 20.2788 37.825 20.0088 37.825L19.9988 37.835ZM11.8488 4.44498C8.03881 4.44498 5.55881 6.84498 4.42881 8.26498C0.988808 12.595 1.78881 18.885 6.28881 22.895C9.75881 25.985 17.5288 32.945 19.9988 35.145C22.5988 32.815 31.0688 25.245 33.7088 22.895C38.2188 18.885 39.0188 12.595 35.5688 8.26498C34.4288 6.83498 31.9588 4.44498 28.1488 4.44498C24.3388 4.44498 22.7488 5.68498 21.0788 10.485C20.9188 10.945 20.4788 11.255 19.9988 11.255C19.5188 11.255 19.0788 10.945 18.9188 10.485C17.2488 5.69498 15.7988 4.44498 11.8488 4.44498Z"/>
</svg>
