<svg xmlns="http://www.w3.org/2000/svg" version="1.1" x="0px" y="0px" viewBox="0 0 40 40" style="enable-background:new 0 0 40 40;">
  <path d="M21.73,0.2V0.19H11.1c-1.25,0-2.27,1.02-2.27,2.27v22.95c0,1.25,1.02,2.27,2.27,2.27h17.8c1.25,0,2.27-1.02,2.27-2.27      V9.63h0l0.01-0.01L21.73,0.2z M28.87,9.63h-6.5c-0.35,0-0.64-0.28-0.64-0.64V2.51L28.87,9.63z M20.09,9      c0,1.25,1.02,2.27,2.27,2.27h7.18v14.14c0,0.35-0.29,0.64-0.64,0.64H11.1c-0.35,0-0.64-0.29-0.64-0.64V2.46      c0-0.35,0.29-0.64,0.64-0.64h8.99V9z"/>
  <path d="M6.63,32.25v-1.72h7.61v1.72h-2.78v7.57H9.41v-7.57H6.63z"/>
  <path d="M17.34,30.53v9.28H15.3v-9.28H17.34z"/>
  <path d="M25.66,30.53v1.72h-4.49v2.15h3.89v1.59h-3.89v3.83h-2.04v-9.28H25.66z"/>
  <path d="M33.37,30.53v1.72h-4.49v2.15h3.89v1.59h-3.89v3.83h-2.04v-9.28H33.37z"/>
</svg>
