<svg xmlns="http://www.w3.org/2000/svg" version="1.1" x="0px" y="0px" viewBox="0 0 40 40" style="enable-background:new 0 0 40 40;">
  <path d="M22.21,0.1V0.08H11.59c-1.25,0-2.27,1.02-2.27,2.27V25.3c0,1.25,1.02,2.27,2.27,2.27h17.8c1.25,0,2.27-1.02,2.27-2.27      V9.53h0l0.01-0.01L22.21,0.1z M29.35,9.53h-6.5c-0.35,0-0.64-0.28-0.64-0.64V2.41L29.35,9.53z M20.58,8.89      c0,1.25,1.02,2.27,2.27,2.27h7.18V25.3c0,0.35-0.29,0.64-0.64,0.64h-17.8c-0.35,0-0.64-0.29-0.64-0.64V2.35      c0-0.35,0.29-0.64,0.64-0.64h8.99V8.89z"/>
  <path d="M9.43,37.79c-0.06,0.36-0.2,0.7-0.42,1.02c-0.22,0.32-0.53,0.58-0.94,0.79c-0.41,0.21-0.96,0.32-1.65,0.32    c-0.39,0-0.77-0.05-1.13-0.16c-0.36-0.11-0.69-0.28-0.98-0.51c-0.29-0.23-0.52-0.52-0.69-0.88c-0.17-0.36-0.26-0.79-0.26-1.31    v-0.81h1.85v0.42c0,0.23,0.02,0.43,0.05,0.62s0.1,0.35,0.18,0.49c0.09,0.13,0.21,0.24,0.36,0.32c0.15,0.08,0.35,0.12,0.59,0.12    c0.27,0,0.48-0.05,0.62-0.14c0.15-0.1,0.25-0.22,0.32-0.37c0.06-0.15,0.1-0.32,0.12-0.49c0.01-0.18,0.02-0.35,0.02-0.51v-6.27    h2.04v6.36C9.52,37.09,9.49,37.42,9.43,37.79z"/>
  <path d="M15.5,30.43c0.58,0,1.07,0.08,1.48,0.25s0.74,0.39,0.99,0.67c0.26,0.28,0.44,0.59,0.56,0.95    c0.12,0.36,0.18,0.72,0.18,1.11c0,0.37-0.06,0.74-0.18,1.1c-0.12,0.36-0.3,0.68-0.56,0.96c-0.26,0.28-0.59,0.5-0.99,0.67    c-0.41,0.17-0.9,0.25-1.48,0.25h-2.15v3.33h-2.04v-9.28H15.5z M14.94,34.8c0.23,0,0.46-0.02,0.68-0.05    c0.22-0.04,0.41-0.1,0.57-0.2c0.16-0.1,0.3-0.24,0.4-0.42c0.1-0.18,0.15-0.42,0.15-0.71c0-0.29-0.05-0.53-0.15-0.71    c-0.1-0.18-0.23-0.32-0.4-0.42s-0.36-0.17-0.57-0.2c-0.22-0.04-0.44-0.05-0.68-0.05h-1.59v2.78H14.94z"/>
  <path d="M26.93,30.43v1.72h-4.9v1.99h4.5v1.59h-4.5v2.28h5v1.72h-7.05v-9.28H26.93z"/>
  <path d="M33.91,39.64c-0.44,0.19-0.89,0.28-1.34,0.28c-0.71,0-1.35-0.12-1.92-0.37c-0.57-0.25-1.05-0.59-1.44-1.02    c-0.39-0.43-0.69-0.94-0.9-1.53s-0.31-1.21-0.31-1.89c0-0.69,0.1-1.34,0.31-1.93s0.51-1.11,0.9-1.55    c0.39-0.44,0.87-0.79,1.44-1.04c0.57-0.25,1.21-0.38,1.92-0.38c0.48,0,0.94,0.07,1.38,0.21c0.45,0.14,0.85,0.35,1.21,0.63    s0.66,0.62,0.89,1.03c0.23,0.41,0.38,0.88,0.43,1.4h-1.95c-0.12-0.52-0.36-0.91-0.7-1.17c-0.35-0.26-0.77-0.39-1.26-0.39    c-0.46,0-0.85,0.09-1.17,0.27c-0.32,0.18-0.58,0.42-0.78,0.71s-0.34,0.64-0.44,1.02c-0.09,0.38-0.14,0.78-0.14,1.18    c0,0.39,0.05,0.77,0.14,1.14c0.09,0.37,0.24,0.7,0.44,1s0.46,0.53,0.78,0.71c0.32,0.18,0.71,0.27,1.17,0.27    c0.68,0,1.2-0.17,1.57-0.51c0.37-0.34,0.58-0.84,0.64-1.49h-2.05v-1.52h3.9v5.02h-1.3l-0.21-1.05    C34.76,39.13,34.35,39.45,33.91,39.64z"/>
</svg>
