<svg xmlns="http://www.w3.org/2000/svg" version="1.1" x="0px" y="0px" viewBox="0 0 40 40" style="enable-background:new 0 0 40 40;">
  <path d="M21.73,0.2V0.19H11.1c-1.25,0-2.27,1.02-2.27,2.27v22.95c0,1.25,1.02,2.27,2.27,2.27h17.8c1.25,0,2.27-1.02,2.27-2.27      V9.63h0l0.01-0.01L21.73,0.2z M28.87,9.63h-6.5c-0.35,0-0.64-0.28-0.64-0.64V2.51L28.87,9.63z M20.09,9      c0,1.25,1.02,2.27,2.27,2.27h7.18v14.14c0,0.35-0.29,0.64-0.64,0.64H11.1c-0.35,0-0.64-0.29-0.64-0.64V2.46      c0-0.35,0.29-0.64,0.64-0.64h8.99V9z"/>
  <path d="M6.25,30.53h2.37l1.82,2.96l1.88-2.96h2.24l-2.98,4.43l3.24,4.85h-2.43l-2.03-3.21l-2.07,3.21H6.01l3.24-4.86L6.25,30.53z    "/>
  <path d="M18.51,30.53l2.17,6.38h0.03l2.05-6.38h2.87v9.28h-1.91v-6.58H23.7l-2.27,6.58h-1.57l-2.27-6.51h-0.03v6.51h-1.91v-9.28    H18.51z"/>
  <path d="M29.47,30.53v7.57h4.52v1.72h-6.56v-9.28H29.47z"/>
</svg>
