<svg xmlns="http://www.w3.org/2000/svg" version="1.1" x="0px" y="0px" viewBox="0 0 40 40" style="enable-background:new 0 0 40 40;">
  <path d="M21.73,0.1V0.08H11.1c-1.25,0-2.27,1.02-2.27,2.27V25.3c0,1.25,1.02,2.27,2.27,2.27h17.8c1.25,0,2.27-1.02,2.27-2.27      V9.53h0l0.01-0.01L21.73,0.1z M28.87,9.53h-6.5c-0.35,0-0.64-0.28-0.64-0.64V2.41L28.87,9.53z M20.09,8.89      c0,1.25,1.02,2.27,2.27,2.27h7.18V25.3c0,0.35-0.29,0.64-0.64,0.64H11.1c-0.35,0-0.64-0.29-0.64-0.64V2.35      c0-0.35,0.29-0.64,0.64-0.64h8.99V8.89z"/>
  <path d="M9.02,30.43v7.57h4.52v1.72H6.98v-9.28H9.02z"/>
  <path d="M14.6,33.18c0.21-0.59,0.51-1.11,0.9-1.55c0.39-0.44,0.87-0.79,1.44-1.04c0.57-0.25,1.21-0.38,1.92-0.38    c0.72,0,1.36,0.13,1.92,0.38s1.04,0.6,1.43,1.04c0.39,0.44,0.69,0.96,0.9,1.55s0.31,1.24,0.31,1.93c0,0.68-0.1,1.31-0.31,1.89    s-0.51,1.09-0.9,1.53c-0.39,0.43-0.87,0.77-1.43,1.02s-1.2,0.37-1.92,0.37c-0.71,0-1.35-0.12-1.92-0.37    c-0.57-0.25-1.05-0.59-1.44-1.02c-0.39-0.43-0.69-0.94-0.9-1.53s-0.31-1.21-0.31-1.89C14.29,34.42,14.39,33.77,14.6,33.18z     M16.46,36.25c0.09,0.37,0.24,0.7,0.44,1s0.46,0.53,0.78,0.71c0.32,0.18,0.71,0.27,1.17,0.27c0.46,0,0.85-0.09,1.17-0.27    c0.32-0.18,0.58-0.41,0.78-0.71s0.34-0.63,0.44-1c0.09-0.37,0.14-0.75,0.14-1.14c0-0.41-0.05-0.8-0.14-1.18    C21.14,33.54,21,33.2,20.8,32.9s-0.46-0.54-0.78-0.71c-0.32-0.18-0.71-0.27-1.17-0.27c-0.46,0-0.85,0.09-1.17,0.27    c-0.32,0.18-0.58,0.42-0.78,0.71s-0.34,0.64-0.44,1.02c-0.09,0.38-0.14,0.78-0.14,1.18C16.33,35.5,16.37,35.88,16.46,36.25z"/>
  <path d="M30.3,39.64c-0.44,0.19-0.89,0.28-1.34,0.28c-0.71,0-1.35-0.12-1.92-0.37c-0.57-0.25-1.05-0.59-1.44-1.02    c-0.39-0.43-0.69-0.94-0.9-1.53s-0.31-1.21-0.31-1.89c0-0.69,0.1-1.34,0.31-1.93s0.51-1.11,0.9-1.55    c0.39-0.44,0.87-0.79,1.44-1.04c0.57-0.25,1.21-0.38,1.92-0.38c0.48,0,0.94,0.07,1.38,0.21c0.45,0.14,0.85,0.35,1.21,0.63    s0.66,0.62,0.89,1.03c0.23,0.41,0.38,0.88,0.43,1.4h-1.95c-0.12-0.52-0.36-0.91-0.7-1.17c-0.35-0.26-0.77-0.39-1.26-0.39    c-0.46,0-0.85,0.09-1.17,0.27c-0.32,0.18-0.58,0.42-0.78,0.71s-0.34,0.64-0.44,1.02c-0.09,0.38-0.14,0.78-0.14,1.18    c0,0.39,0.05,0.77,0.14,1.14c0.09,0.37,0.24,0.7,0.44,1s0.46,0.53,0.78,0.71c0.32,0.18,0.71,0.27,1.17,0.27    c0.68,0,1.2-0.17,1.57-0.51c0.37-0.34,0.58-0.84,0.64-1.49h-2.05v-1.52h3.9v5.02h-1.3l-0.21-1.05    C31.15,39.13,30.74,39.45,30.3,39.64z"/>
</svg>
