<svg xmlns="http://www.w3.org/2000/svg" version="1.1" x="0px" y="0px" viewBox="0 0 40 40" style="enable-background:new 0 0 40 40;">
  <path d="M18.95,19.23v3.64c0,0.3-0.11,0.56-0.32,0.77c-0.21,0.21-0.47,0.32-0.77,0.32H1.09c-0.3,0-0.56-0.11-0.77-0.32   C0.1,23.44,0,23.18,0,22.88v-3.64c0-0.3,0.11-0.56,0.32-0.77s0.47-0.32,0.77-0.32h5.3l1.54,1.55c0.44,0.43,0.96,0.64,1.55,0.64   c0.59,0,1.11-0.21,1.55-0.64l1.55-1.55h5.28c0.3,0,0.56,0.11,0.77,0.32C18.84,18.67,18.95,18.93,18.95,19.23z M15.25,12.75   c0.13,0.31,0.08,0.58-0.16,0.8l-5.1,5.1c-0.14,0.14-0.31,0.22-0.51,0.22S9.1,18.8,8.96,18.65l-5.1-5.1   c-0.24-0.22-0.29-0.49-0.16-0.8c0.13-0.3,0.35-0.44,0.67-0.44h2.92v-5.1c0-0.2,0.07-0.37,0.22-0.51c0.14-0.14,0.32-0.22,0.51-0.22   h2.92c0.2,0,0.37,0.07,0.51,0.22c0.14,0.14,0.22,0.32,0.22,0.51v5.1h2.92C14.89,12.31,15.12,12.45,15.25,12.75z M14.36,22.3   c0.14-0.14,0.22-0.32,0.22-0.51c0-0.2-0.07-0.37-0.22-0.51c-0.14-0.14-0.32-0.22-0.51-0.22s-0.37,0.07-0.51,0.22   c-0.14,0.14-0.22,0.32-0.22,0.51c0,0.2,0.07,0.37,0.22,0.51c0.14,0.14,0.31,0.22,0.51,0.22S14.21,22.44,14.36,22.3z M17.27,22.3   c0.14-0.14,0.22-0.32,0.22-0.51c0-0.2-0.07-0.37-0.22-0.51c-0.14-0.14-0.32-0.22-0.51-0.22c-0.2,0-0.37,0.07-0.51,0.22   c-0.14,0.14-0.22,0.32-0.22,0.51c0,0.2,0.07,0.37,0.22,0.51c0.14,0.14,0.31,0.22,0.51,0.22C16.96,22.51,17.13,22.44,17.27,22.3z"/>
  <path d="M30.55,0.1V0.08H19.93c-1.25,0-2.27,1.02-2.27,2.27V25.3c0,1.25,1.02,2.27,2.27,2.27h17.8c1.25,0,2.27-1.02,2.27-2.27   V9.53h0L40,9.52L30.55,0.1z M37.69,9.53h-6.5c-0.35,0-0.64-0.28-0.64-0.64V2.41L37.69,9.53z M28.92,8.89   c0,1.25,1.02,2.27,2.27,2.27h7.18V25.3c0,0.35-0.29,0.64-0.64,0.64h-17.8c-0.35,0-0.64-0.29-0.64-0.64V2.35   c0-0.35,0.29-0.64,0.64-0.64h8.99V8.89z"/>
  <path d="M5.67,30.43c0.6,0,1.15,0.1,1.67,0.29s0.96,0.48,1.34,0.86c0.38,0.38,0.67,0.86,0.88,1.43s0.32,1.24,0.32,2.01   c0,0.68-0.09,1.3-0.26,1.87c-0.17,0.57-0.44,1.07-0.79,1.48s-0.79,0.74-1.31,0.98s-1.14,0.36-1.85,0.36h-4v-9.28H5.67z    M5.53,37.99c0.29,0,0.58-0.05,0.86-0.14c0.28-0.09,0.52-0.25,0.74-0.47c0.22-0.22,0.39-0.51,0.52-0.86s0.19-0.79,0.19-1.3   c0-0.47-0.05-0.89-0.14-1.27s-0.24-0.7-0.45-0.97c-0.21-0.27-0.48-0.47-0.83-0.62c-0.34-0.14-0.77-0.21-1.27-0.21H3.71v5.85H5.53z"/>
  <path d="M11.21,33.18c0.21-0.59,0.51-1.11,0.9-1.55c0.39-0.44,0.87-0.79,1.44-1.04c0.57-0.25,1.21-0.38,1.92-0.38   c0.72,0,1.36,0.13,1.92,0.38s1.04,0.6,1.43,1.04c0.39,0.44,0.69,0.96,0.9,1.55s0.31,1.24,0.31,1.93c0,0.68-0.1,1.31-0.31,1.89   s-0.51,1.09-0.9,1.53c-0.39,0.43-0.87,0.77-1.43,1.02s-1.2,0.37-1.92,0.37c-0.71,0-1.35-0.12-1.92-0.37   c-0.57-0.25-1.05-0.59-1.44-1.02c-0.39-0.43-0.69-0.94-0.9-1.53s-0.31-1.21-0.31-1.89C10.9,34.42,11,33.77,11.21,33.18z    M13.08,36.25c0.09,0.37,0.24,0.7,0.44,1s0.46,0.53,0.78,0.71c0.32,0.18,0.71,0.27,1.17,0.27c0.46,0,0.85-0.09,1.17-0.27   c0.32-0.18,0.58-0.41,0.78-0.71s0.34-0.63,0.44-1c0.09-0.37,0.14-0.75,0.14-1.14c0-0.41-0.05-0.8-0.14-1.18   c-0.09-0.38-0.24-0.72-0.44-1.02s-0.46-0.54-0.78-0.71c-0.32-0.18-0.71-0.27-1.17-0.27c-0.46,0-0.85,0.09-1.17,0.27   c-0.32,0.18-0.58,0.42-0.78,0.71s-0.34,0.64-0.44,1.02c-0.09,0.38-0.14,0.78-0.14,1.18C12.94,35.5,12.99,35.88,13.08,36.25z"/>
  <path d="M27.37,32.9c-0.12-0.2-0.27-0.37-0.46-0.51c-0.18-0.15-0.39-0.26-0.62-0.34c-0.23-0.08-0.47-0.12-0.72-0.12   c-0.46,0-0.85,0.09-1.17,0.27c-0.32,0.18-0.58,0.42-0.78,0.71s-0.34,0.64-0.44,1.02c-0.09,0.38-0.14,0.78-0.14,1.18   c0,0.39,0.05,0.77,0.14,1.14c0.09,0.37,0.24,0.7,0.44,1s0.46,0.53,0.78,0.71c0.32,0.18,0.71,0.27,1.17,0.27   c0.62,0,1.11-0.19,1.46-0.57c0.35-0.38,0.57-0.88,0.64-1.51h1.98c-0.05,0.58-0.19,1.11-0.4,1.57s-0.5,0.87-0.86,1.2   c-0.36,0.33-0.77,0.58-1.25,0.75c-0.48,0.17-1,0.26-1.57,0.26c-0.71,0-1.35-0.12-1.92-0.37c-0.57-0.25-1.05-0.59-1.44-1.02   c-0.39-0.43-0.69-0.94-0.9-1.53s-0.31-1.21-0.31-1.89c0-0.69,0.1-1.34,0.31-1.93s0.51-1.11,0.9-1.55   c0.39-0.44,0.87-0.79,1.44-1.04c0.57-0.25,1.21-0.38,1.92-0.38c0.51,0,0.99,0.07,1.45,0.22s0.86,0.36,1.22,0.64   c0.36,0.28,0.66,0.63,0.89,1.05c0.23,0.42,0.38,0.89,0.44,1.43h-1.98C27.57,33.31,27.49,33.1,27.37,32.9z"/>
  <path d="M30.34,30.43h2.37l1.82,2.96l1.88-2.96h2.24l-2.98,4.43l3.24,4.85h-2.43l-2.03-3.21l-2.07,3.21h-2.29l3.24-4.86   L30.34,30.43z"/>
</svg>
