<svg xmlns="http://www.w3.org/2000/svg" version="1.1" x="0px" y="0px" viewBox="0 0 40 40" style="enable-background:new 0 0 40 40;">
  <path d="M21.73,0.1V0.08H11.1c-1.25,0-2.27,1.02-2.27,2.27V25.3c0,1.25,1.02,2.27,2.27,2.27h17.8c1.25,0,2.27-1.02,2.27-2.27      V9.53h0l0.01-0.01L21.73,0.1z M28.87,9.53h-6.5c-0.35,0-0.64-0.28-0.64-0.64V2.41L28.87,9.53z M20.09,8.89      c0,1.25,1.02,2.27,2.27,2.27h7.18V25.3c0,0.35-0.29,0.64-0.64,0.64H11.1c-0.35,0-0.64-0.29-0.64-0.64V2.35      c0-0.35,0.29-0.64,0.64-0.64h8.99V8.89z"/>
  <path d="M7.3,30.43c0.58,0,1.07,0.08,1.48,0.25s0.74,0.39,0.99,0.67c0.26,0.28,0.44,0.59,0.56,0.95c0.12,0.36,0.18,0.72,0.18,1.11    c0,0.37-0.06,0.74-0.18,1.1c-0.12,0.36-0.3,0.68-0.56,0.96c-0.26,0.28-0.59,0.5-0.99,0.67c-0.41,0.17-0.9,0.25-1.48,0.25H5.15    v3.33H3.11v-9.28H7.3z M6.74,34.8c0.23,0,0.46-0.02,0.68-0.05c0.22-0.04,0.41-0.1,0.57-0.2c0.16-0.1,0.3-0.24,0.4-0.42    c0.1-0.18,0.15-0.42,0.15-0.71c0-0.29-0.05-0.53-0.15-0.71c-0.1-0.18-0.23-0.32-0.4-0.42s-0.36-0.17-0.57-0.2    c-0.22-0.04-0.44-0.05-0.68-0.05H5.15v2.78H6.74z"/>
  <path d="M18.73,30.43v1.72h-4.9v1.99h4.5v1.59h-4.5v2.28h5v1.72h-7.05v-9.28H18.73z"/>
  <path d="M21.77,37.42c0.11,0.22,0.26,0.39,0.45,0.53c0.19,0.13,0.41,0.23,0.66,0.3c0.25,0.07,0.51,0.1,0.78,0.1    c0.18,0,0.38-0.01,0.58-0.04c0.21-0.03,0.4-0.09,0.59-0.18c0.18-0.09,0.33-0.21,0.45-0.36c0.12-0.15,0.18-0.34,0.18-0.58    c0-0.25-0.08-0.45-0.24-0.61c-0.16-0.16-0.37-0.29-0.63-0.39c-0.26-0.1-0.55-0.19-0.88-0.27c-0.33-0.08-0.66-0.17-1-0.26    c-0.35-0.09-0.68-0.19-1.01-0.32c-0.33-0.13-0.62-0.29-0.88-0.49c-0.26-0.2-0.47-0.45-0.63-0.75c-0.16-0.3-0.24-0.66-0.24-1.09    c0-0.48,0.1-0.89,0.31-1.24c0.2-0.35,0.47-0.64,0.8-0.88c0.33-0.23,0.7-0.41,1.12-0.52s0.83-0.17,1.25-0.17    c0.48,0,0.95,0.05,1.4,0.16c0.45,0.11,0.84,0.28,1.19,0.53c0.35,0.24,0.62,0.55,0.83,0.93c0.2,0.38,0.31,0.83,0.31,1.37h-1.98    c-0.02-0.28-0.08-0.51-0.18-0.69c-0.1-0.18-0.23-0.33-0.4-0.43c-0.17-0.1-0.35-0.18-0.57-0.22c-0.21-0.04-0.44-0.07-0.7-0.07    c-0.16,0-0.33,0.02-0.49,0.05c-0.16,0.04-0.31,0.1-0.45,0.18c-0.13,0.09-0.25,0.19-0.33,0.32c-0.09,0.13-0.13,0.29-0.13,0.49    c0,0.18,0.03,0.33,0.1,0.44s0.21,0.22,0.41,0.31c0.2,0.1,0.49,0.19,0.85,0.29c0.36,0.1,0.83,0.22,1.41,0.36    c0.17,0.04,0.41,0.1,0.72,0.19s0.61,0.24,0.92,0.44s0.57,0.47,0.79,0.8c0.22,0.33,0.33,0.76,0.33,1.28c0,0.42-0.08,0.82-0.25,1.18    c-0.16,0.36-0.41,0.68-0.73,0.94c-0.33,0.26-0.73,0.47-1.21,0.62c-0.48,0.15-1.04,0.22-1.67,0.22c-0.51,0-1.01-0.06-1.49-0.19    s-0.91-0.32-1.27-0.59c-0.37-0.27-0.66-0.61-0.88-1.03c-0.22-0.42-0.32-0.91-0.31-1.48h1.98C21.6,36.94,21.66,37.21,21.77,37.42z"/>
  <path d="M34.6,32.9c-0.12-0.2-0.27-0.37-0.46-0.51c-0.18-0.15-0.39-0.26-0.62-0.34c-0.23-0.08-0.47-0.12-0.72-0.12    c-0.46,0-0.85,0.09-1.17,0.27c-0.32,0.18-0.58,0.42-0.78,0.71s-0.34,0.64-0.44,1.02c-0.09,0.38-0.14,0.78-0.14,1.18    c0,0.39,0.05,0.77,0.14,1.14c0.09,0.37,0.24,0.7,0.44,1s0.46,0.53,0.78,0.71c0.32,0.18,0.71,0.27,1.17,0.27    c0.62,0,1.11-0.19,1.46-0.57c0.35-0.38,0.57-0.88,0.64-1.51h1.98c-0.05,0.58-0.19,1.11-0.4,1.57s-0.5,0.87-0.86,1.2    c-0.36,0.33-0.77,0.58-1.25,0.75c-0.48,0.17-1,0.26-1.57,0.26c-0.71,0-1.35-0.12-1.92-0.37c-0.57-0.25-1.05-0.59-1.44-1.02    c-0.39-0.43-0.69-0.94-0.9-1.53s-0.31-1.21-0.31-1.89c0-0.69,0.1-1.34,0.31-1.93s0.51-1.11,0.9-1.55    c0.39-0.44,0.87-0.79,1.44-1.04c0.57-0.25,1.21-0.38,1.92-0.38c0.51,0,0.99,0.07,1.45,0.22s0.86,0.36,1.22,0.64    c0.36,0.28,0.66,0.63,0.89,1.05c0.23,0.42,0.38,0.89,0.44,1.43h-1.98C34.8,33.31,34.72,33.1,34.6,32.9z"/>
</svg>
