<svg xmlns="http://www.w3.org/2000/svg" version="1.1" x="0px" y="0px" viewBox="0 0 40 40" style="enable-background:new 0 0 40 40;">
  <path d="M18.95,19.33v3.64c0,0.3-0.11,0.56-0.32,0.77c-0.21,0.21-0.47,0.32-0.77,0.32H1.09c-0.3,0-0.56-0.11-0.77-0.32   C0.1,23.54,0,23.28,0,22.98v-3.64c0-0.3,0.11-0.56,0.32-0.77s0.47-0.32,0.77-0.32h5.3l1.54,1.55c0.44,0.43,0.96,0.64,1.55,0.64   c0.59,0,1.11-0.21,1.55-0.64l1.55-1.55h5.28c0.3,0,0.56,0.11,0.77,0.32C18.84,18.77,18.95,19.03,18.95,19.33z M15.25,12.86   c0.13,0.31,0.08,0.58-0.16,0.8l-5.1,5.1c-0.14,0.14-0.31,0.22-0.51,0.22S9.1,18.9,8.96,18.75l-5.1-5.1   c-0.24-0.22-0.29-0.49-0.16-0.8c0.13-0.3,0.35-0.44,0.67-0.44h2.92v-5.1c0-0.2,0.07-0.37,0.22-0.51c0.14-0.14,0.32-0.22,0.51-0.22   h2.92c0.2,0,0.37,0.07,0.51,0.22c0.14,0.14,0.22,0.32,0.22,0.51v5.1h2.92C14.89,12.41,15.12,12.56,15.25,12.86z M14.36,22.4   c0.14-0.14,0.22-0.32,0.22-0.51c0-0.2-0.07-0.37-0.22-0.51c-0.14-0.14-0.32-0.22-0.51-0.22s-0.37,0.07-0.51,0.22   c-0.14,0.14-0.22,0.32-0.22,0.51c0,0.2,0.07,0.37,0.22,0.51c0.14,0.14,0.31,0.22,0.51,0.22S14.21,22.54,14.36,22.4z M17.27,22.4   c0.14-0.14,0.22-0.32,0.22-0.51c0-0.2-0.07-0.37-0.22-0.51c-0.14-0.14-0.32-0.22-0.51-0.22c-0.2,0-0.37,0.07-0.51,0.22   c-0.14,0.14-0.22,0.32-0.22,0.51c0,0.2,0.07,0.37,0.22,0.51c0.14,0.14,0.31,0.22,0.51,0.22C16.96,22.62,17.13,22.54,17.27,22.4z"/>
  <path d="M30.55,0.2V0.19H19.93c-1.25,0-2.27,1.02-2.27,2.27v22.95c0,1.25,1.02,2.27,2.27,2.27h17.8c1.25,0,2.27-1.02,2.27-2.27   V9.63h0L40,9.62L30.55,0.2z M37.69,9.63h-6.5c-0.35,0-0.64-0.28-0.64-0.64V2.51L37.69,9.63z M28.92,9   c0,1.25,1.02,2.27,2.27,2.27h7.18v14.14c0,0.35-0.29,0.64-0.64,0.64h-17.8c-0.35,0-0.64-0.29-0.64-0.64V2.46   c0-0.35,0.29-0.64,0.64-0.64h8.99V9z"/>
  <path d="M6.25,30.53h2.37l1.82,2.96l1.88-2.96h2.24l-2.98,4.43l3.24,4.85h-2.43l-2.03-3.21l-2.07,3.21H6.01l3.24-4.86L6.25,30.53z"/>
  <path d="M18.51,30.53l2.17,6.38h0.03l2.05-6.38h2.87v9.28h-1.91v-6.58H23.7l-2.27,6.58h-1.57l-2.27-6.51h-0.03v6.51h-1.91v-9.28   H18.51z"/>
  <path d="M29.47,30.53v7.57h4.52v1.72h-6.56v-9.28H29.47z"/>
</svg>
