<svg xmlns="http://www.w3.org/2000/svg" version="1.1" x="0px" y="0px" viewBox="0 0 40 40" style="enable-background:new 0 0 40 40;">
  <path d="M18.95,19.23v3.64c0,0.3-0.11,0.56-0.32,0.77c-0.21,0.21-0.47,0.32-0.77,0.32H1.09c-0.3,0-0.56-0.11-0.77-0.32    C0.1,23.44,0,23.18,0,22.88v-3.64c0-0.3,0.11-0.56,0.32-0.77s0.47-0.32,0.77-0.32h5.3l1.54,1.55c0.44,0.43,0.96,0.64,1.55,0.64    c0.59,0,1.11-0.21,1.55-0.64l1.55-1.55h5.28c0.3,0,0.56,0.11,0.77,0.32C18.84,18.67,18.95,18.93,18.95,19.23z M15.25,12.75    c0.13,0.31,0.08,0.58-0.16,0.8l-5.1,5.1c-0.14,0.14-0.31,0.22-0.51,0.22S9.1,18.8,8.96,18.65l-5.1-5.1    c-0.24-0.22-0.29-0.49-0.16-0.8c0.13-0.3,0.35-0.44,0.67-0.44h2.92v-5.1c0-0.2,0.07-0.37,0.22-0.51c0.14-0.14,0.32-0.22,0.51-0.22    h2.92c0.2,0,0.37,0.07,0.51,0.22c0.14,0.14,0.22,0.32,0.22,0.51v5.1h2.92C14.89,12.31,15.12,12.45,15.25,12.75z M14.36,22.3    c0.14-0.14,0.22-0.32,0.22-0.51c0-0.2-0.07-0.37-0.22-0.51c-0.14-0.14-0.32-0.22-0.51-0.22s-0.37,0.07-0.51,0.22    c-0.14,0.14-0.22,0.32-0.22,0.51c0,0.2,0.07,0.37,0.22,0.51c0.14,0.14,0.31,0.22,0.51,0.22S14.21,22.44,14.36,22.3z M17.27,22.3    c0.14-0.14,0.22-0.32,0.22-0.51c0-0.2-0.07-0.37-0.22-0.51c-0.14-0.14-0.32-0.22-0.51-0.22c-0.2,0-0.37,0.07-0.51,0.22    c-0.14,0.14-0.22,0.32-0.22,0.51c0,0.2,0.07,0.37,0.22,0.51c0.14,0.14,0.31,0.22,0.51,0.22C16.96,22.51,17.13,22.44,17.27,22.3z"/>
  <path d="M30.55,0.1V0.08H19.93c-1.25,0-2.27,1.02-2.27,2.27V25.3c0,1.25,1.02,2.27,2.27,2.27h17.8c1.25,0,2.27-1.02,2.27-2.27       V9.53h0L40,9.52L30.55,0.1z M37.69,9.53h-6.5c-0.35,0-0.64-0.28-0.64-0.64V2.41L37.69,9.53z M28.92,8.89       c0,1.25,1.02,2.27,2.27,2.27h7.18V25.3c0,0.35-0.29,0.64-0.64,0.64h-17.8c-0.35,0-0.64-0.29-0.64-0.64V2.35       c0-0.35,0.29-0.64,0.64-0.64h8.99V8.89z"/>
  <path d="M10.8,30.43c0.58,0,1.07,0.08,1.48,0.25s0.74,0.39,0.99,0.67c0.26,0.28,0.44,0.59,0.56,0.95    c0.12,0.36,0.18,0.72,0.18,1.11c0,0.37-0.06,0.74-0.18,1.1c-0.12,0.36-0.3,0.68-0.56,0.96c-0.26,0.28-0.59,0.5-0.99,0.67    c-0.41,0.17-0.9,0.25-1.48,0.25H8.65v3.33H6.61v-9.28H10.8z M10.24,34.8c0.23,0,0.46-0.02,0.68-0.05c0.22-0.04,0.41-0.1,0.57-0.2    c0.16-0.1,0.3-0.24,0.4-0.42c0.1-0.18,0.15-0.42,0.15-0.71c0-0.29-0.05-0.53-0.15-0.71c-0.1-0.18-0.23-0.32-0.4-0.42    s-0.36-0.17-0.57-0.2c-0.22-0.04-0.44-0.05-0.68-0.05H8.65v2.78H10.24z"/>
  <path d="M17.31,30.43l3.87,6.23h0.03v-6.23h1.91v9.28h-2.04l-3.86-6.21h-0.03v6.21h-1.91v-9.28H17.31z"/>
  <path d="M30.41,39.64c-0.44,0.19-0.89,0.28-1.34,0.28c-0.71,0-1.35-0.12-1.92-0.37c-0.57-0.25-1.05-0.59-1.44-1.02    c-0.39-0.43-0.69-0.94-0.9-1.53s-0.31-1.21-0.31-1.89c0-0.69,0.1-1.34,0.31-1.93s0.51-1.11,0.9-1.55    c0.39-0.44,0.87-0.79,1.44-1.04c0.57-0.25,1.21-0.38,1.92-0.38c0.48,0,0.94,0.07,1.38,0.21c0.45,0.14,0.85,0.35,1.21,0.63    c0.36,0.28,0.66,0.62,0.89,1.03c0.23,0.41,0.38,0.88,0.43,1.4h-1.95c-0.12-0.52-0.36-0.91-0.7-1.17    c-0.35-0.26-0.77-0.39-1.26-0.39c-0.46,0-0.85,0.09-1.17,0.27c-0.32,0.18-0.58,0.42-0.78,0.71s-0.34,0.64-0.44,1.02    c-0.09,0.38-0.14,0.78-0.14,1.18c0,0.39,0.05,0.77,0.14,1.14c0.09,0.37,0.24,0.7,0.44,1s0.46,0.53,0.78,0.71    c0.32,0.18,0.71,0.27,1.17,0.27c0.68,0,1.2-0.17,1.57-0.51c0.37-0.34,0.58-0.84,0.64-1.49h-2.05v-1.52h3.9v5.02h-1.3l-0.21-1.05    C31.26,39.13,30.85,39.45,30.41,39.64z"/>
</svg>
