<svg xmlns="http://www.w3.org/2000/svg" version="1.1" x="0px" y="0px" viewBox="0 0 40 40" style="enable-background:new 0 0 40 40;">
  <path d="M21.73,0.2V0.19H11.1c-1.25,0-2.27,1.02-2.27,2.27v22.95c0,1.25,1.02,2.27,2.27,2.27h17.8c1.25,0,2.27-1.02,2.27-2.27      V9.63h0l0.01-0.01L21.73,0.2z M28.87,9.63h-6.5c-0.35,0-0.64-0.28-0.64-0.64V2.51L28.87,9.63z M20.09,9      c0,1.25,1.02,2.27,2.27,2.27h7.18v14.14c0,0.35-0.29,0.64-0.64,0.64H11.1c-0.35,0-0.64-0.29-0.64-0.64V2.46      c0-0.35,0.29-0.64,0.64-0.64h8.99V9z"/>
  <path d="M7.89,32.25v-1.72h7.6v1.72h-2.78v7.57h-2.04v-7.57H7.89z"/>
  <path d="M15.85,30.53h2.37l1.82,2.96l1.88-2.96h2.24l-2.98,4.43l3.24,4.85h-2.43l-2.03-3.21l-2.07,3.21H15.6l3.24-4.86    L15.85,30.53z"/>
  <path d="M24.5,32.25v-1.72h7.6v1.72h-2.78v7.57h-2.04v-7.57H24.5z"/>
</svg>
