<svg xmlns="http://www.w3.org/2000/svg" version="1.1" x="0px" y="0px" viewBox="0 0 40 40" style="enable-background:new 0 0 40 40;">
  <path d="M18.95,19.33v3.64c0,0.3-0.11,0.56-0.32,0.77c-0.21,0.21-0.47,0.32-0.77,0.32H1.09c-0.3,0-0.56-0.11-0.77-0.32    C0.1,23.54,0,23.28,0,22.98v-3.64c0-0.3,0.11-0.56,0.32-0.77s0.47-0.32,0.77-0.32h5.3l1.54,1.55c0.44,0.43,0.96,0.64,1.55,0.64    c0.59,0,1.11-0.21,1.55-0.64l1.55-1.55h5.28c0.3,0,0.56,0.11,0.77,0.32C18.84,18.77,18.95,19.03,18.95,19.33z M15.25,12.86    c0.13,0.31,0.08,0.58-0.16,0.8l-5.1,5.1c-0.14,0.14-0.31,0.22-0.51,0.22S9.1,18.9,8.96,18.75l-5.1-5.1    c-0.24-0.22-0.29-0.49-0.16-0.8c0.13-0.3,0.35-0.44,0.67-0.44h2.92v-5.1c0-0.2,0.07-0.37,0.22-0.51c0.14-0.14,0.32-0.22,0.51-0.22    h2.92c0.2,0,0.37,0.07,0.51,0.22c0.14,0.14,0.22,0.32,0.22,0.51v5.1h2.92C14.89,12.41,15.12,12.56,15.25,12.86z M14.36,22.4    c0.14-0.14,0.22-0.32,0.22-0.51c0-0.2-0.07-0.37-0.22-0.51c-0.14-0.14-0.32-0.22-0.51-0.22s-0.37,0.07-0.51,0.22    c-0.14,0.14-0.22,0.32-0.22,0.51c0,0.2,0.07,0.37,0.22,0.51c0.14,0.14,0.31,0.22,0.51,0.22S14.21,22.54,14.36,22.4z M17.27,22.4    c0.14-0.14,0.22-0.32,0.22-0.51c0-0.2-0.07-0.37-0.22-0.51c-0.14-0.14-0.32-0.22-0.51-0.22c-0.2,0-0.37,0.07-0.51,0.22    c-0.14,0.14-0.22,0.32-0.22,0.51c0,0.2,0.07,0.37,0.22,0.51c0.14,0.14,0.31,0.22,0.51,0.22C16.96,22.62,17.13,22.54,17.27,22.4z"/>
  <path d="M30.55,0.2V0.19H19.93c-1.25,0-2.27,1.02-2.27,2.27v22.95c0,1.25,1.02,2.27,2.27,2.27h17.8c1.25,0,2.27-1.02,2.27-2.27       V9.63h0L40,9.62L30.55,0.2z M37.69,9.63h-6.5c-0.35,0-0.64-0.28-0.64-0.64V2.51L37.69,9.63z M28.92,9       c0,1.25,1.02,2.27,2.27,2.27h7.18v14.14c0,0.35-0.29,0.64-0.64,0.64h-17.8c-0.35,0-0.64-0.29-0.64-0.64V2.46       c0-0.35,0.29-0.64,0.64-0.64h8.99V9z"/>
  <path d="M12.07,30.53c0.58,0,1.07,0.08,1.48,0.25s0.74,0.39,0.99,0.67c0.26,0.28,0.44,0.59,0.56,0.95    c0.12,0.36,0.18,0.72,0.18,1.11c0,0.37-0.06,0.74-0.18,1.1c-0.12,0.36-0.3,0.68-0.56,0.96c-0.26,0.28-0.59,0.5-0.99,0.67    c-0.41,0.17-0.9,0.25-1.48,0.25H9.92v3.33H7.88v-9.28H12.07z M11.51,34.9c0.23,0,0.46-0.02,0.68-0.05c0.22-0.04,0.41-0.1,0.57-0.2    c0.16-0.1,0.3-0.24,0.4-0.42c0.1-0.18,0.15-0.42,0.15-0.71c0-0.29-0.05-0.53-0.15-0.71c-0.1-0.18-0.23-0.32-0.4-0.42    s-0.36-0.17-0.57-0.2c-0.22-0.04-0.44-0.05-0.68-0.05H9.92v2.78H11.51z"/>
  <path d="M20.56,30.53c0.6,0,1.15,0.1,1.67,0.29s0.96,0.48,1.34,0.86c0.38,0.38,0.67,0.86,0.88,1.43s0.32,1.24,0.32,2.01    c0,0.68-0.09,1.3-0.26,1.87c-0.17,0.57-0.44,1.07-0.79,1.48s-0.79,0.74-1.31,0.98s-1.14,0.36-1.85,0.36h-4v-9.28H20.56z     M20.42,38.1c0.29,0,0.58-0.05,0.86-0.14c0.28-0.09,0.52-0.25,0.74-0.47c0.22-0.22,0.39-0.51,0.52-0.86s0.19-0.79,0.19-1.3    c0-0.47-0.05-0.89-0.14-1.27s-0.24-0.7-0.45-0.97c-0.21-0.27-0.48-0.47-0.83-0.62c-0.34-0.14-0.77-0.21-1.27-0.21H18.6v5.85H20.42    z"/>
  <path d="M32.71,30.53v1.72h-4.48v2.15h3.89v1.59h-3.89v3.83h-2.04v-9.28H32.71z"/>
</svg>
