<svg xmlns="http://www.w3.org/2000/svg" version="1.1" x="0px" y="0px" viewBox="0 0 40 40" style="enable-background:new 0 0 40 40;">
  <path d="M22.02,0.1V0.08H11.39c-1.25,0-2.27,1.02-2.27,2.27V25.3c0,1.25,1.02,2.27,2.27,2.27h17.8c1.25,0,2.27-1.02,2.27-2.27      V9.53h0l0.01-0.01L22.02,0.1z M29.16,9.53h-6.5c-0.35,0-0.64-0.28-0.64-0.64V2.41L29.16,9.53z M20.38,8.89      c0,1.25,1.02,2.27,2.27,2.27h7.18V25.3c0,0.35-0.29,0.64-0.64,0.64h-17.8c-0.35,0-0.64-0.29-0.64-0.64V2.35      c0-0.35,0.29-0.64,0.64-0.64h8.99V8.89z"/>
  <path d="M3.43,30.43H5.8l1.82,2.96l1.88-2.96h2.24l-2.98,4.43L12,39.71H9.57L7.54,36.5l-2.07,3.21H3.18l3.24-4.86L3.43,30.43z"/>
  <path d="M14.86,30.43v7.57h4.52v1.72h-6.56v-9.28H14.86z"/>
  <path d="M22.09,37.42c0.11,0.22,0.26,0.39,0.45,0.53c0.19,0.13,0.41,0.23,0.66,0.3c0.25,0.07,0.51,0.1,0.78,0.1    c0.18,0,0.38-0.01,0.58-0.04c0.21-0.03,0.4-0.09,0.59-0.18c0.18-0.09,0.33-0.21,0.45-0.36c0.12-0.15,0.18-0.34,0.18-0.58    c0-0.25-0.08-0.45-0.24-0.61c-0.16-0.16-0.37-0.29-0.63-0.39c-0.26-0.1-0.55-0.19-0.88-0.27c-0.33-0.08-0.66-0.17-1-0.26    c-0.35-0.09-0.68-0.19-1.01-0.32c-0.33-0.13-0.62-0.29-0.88-0.49c-0.26-0.2-0.47-0.45-0.63-0.75c-0.16-0.3-0.24-0.66-0.24-1.09    c0-0.48,0.1-0.89,0.31-1.24c0.2-0.35,0.47-0.64,0.8-0.88c0.33-0.23,0.7-0.41,1.12-0.52s0.83-0.17,1.25-0.17    c0.48,0,0.95,0.05,1.4,0.16c0.45,0.11,0.84,0.28,1.19,0.53c0.35,0.24,0.62,0.55,0.83,0.93c0.2,0.38,0.31,0.83,0.31,1.37h-1.98    c-0.02-0.28-0.08-0.51-0.18-0.69c-0.1-0.18-0.23-0.33-0.4-0.43c-0.17-0.1-0.35-0.18-0.57-0.22c-0.21-0.04-0.44-0.07-0.7-0.07    c-0.16,0-0.33,0.02-0.49,0.05c-0.16,0.04-0.31,0.1-0.45,0.18c-0.13,0.09-0.25,0.19-0.33,0.32c-0.09,0.13-0.13,0.29-0.13,0.49    c0,0.18,0.03,0.33,0.1,0.44s0.21,0.22,0.41,0.31c0.2,0.1,0.49,0.19,0.85,0.29c0.36,0.1,0.83,0.22,1.41,0.36    c0.17,0.04,0.41,0.1,0.72,0.19s0.61,0.24,0.92,0.44s0.57,0.47,0.79,0.8c0.22,0.33,0.33,0.76,0.33,1.28c0,0.42-0.08,0.82-0.25,1.18    c-0.16,0.36-0.41,0.68-0.73,0.94c-0.33,0.26-0.73,0.47-1.21,0.62c-0.48,0.15-1.04,0.22-1.67,0.22c-0.51,0-1.01-0.06-1.49-0.19    s-0.91-0.32-1.27-0.59c-0.37-0.27-0.66-0.61-0.88-1.03c-0.22-0.42-0.32-0.91-0.31-1.48h1.98C21.92,36.94,21.97,37.21,22.09,37.42z    "/>
  <path d="M28.25,30.43h2.37l1.82,2.96l1.88-2.96h2.24l-2.98,4.43l3.24,4.85h-2.43l-2.03-3.21l-2.07,3.21H28l3.24-4.86L28.25,30.43z    "/>
</svg>
