<svg xmlns="http://www.w3.org/2000/svg" version="1.1" x="0px" y="0px" viewBox="0 0 40 40" style="enable-background:new 0 0 40 40;">
  <path d="M20,0.01c4.94,0,9.87,0,14.81,0c1.06,0,2.09,0.14,3.05,0.59c1.85,0.87,2.6,2.76,1.85,4.66c-0.39,1-1.06,1.8-1.83,2.52    c-3.85,3.59-7.7,7.19-11.55,10.77C26.09,18.77,26,18.99,26,19.31c0.01,3.58,0,7.16,0.01,10.73c0,0.7-0.22,1.24-0.74,1.73    c-2.67,2.5-5.3,5.04-7.97,7.54c-0.32,0.3-0.75,0.55-1.16,0.64c-1.26,0.26-2.13-0.55-2.14-1.93c-0.01-2.56,0-5.12,0-7.69    c0-3.7,0-7.41-0.01-11.11c0-0.21-0.13-0.48-0.28-0.63C9.89,15.02,6.06,11.45,2.23,7.88C1.42,7.12,0.69,6.29,0.28,5.23    c-0.7-1.8-0.05-3.6,1.65-4.52C2.8,0.24,3.74,0.03,4.72,0.02C8.06,0.01,11.41,0.01,14.75,0C16.5,0,18.25,0,20,0.01    C20,0,20,0,20,0.01z M17.81,33.29c0.17-0.15,0.29-0.24,0.4-0.35c1.24-1.17,2.48-2.34,3.69-3.53c0.17-0.17,0.3-0.48,0.3-0.72    c0.02-3.33,0.04-6.66-0.01-9.98c-0.02-1.11,0.33-1.91,1.14-2.67c3.95-3.69,7.85-7.43,11.77-11.16c0.24-0.23,0.45-0.48,0.72-0.76    C34.74,3.91,4.84,3.95,4.21,4.16C4.47,4.44,4.7,4.7,4.96,4.95c3.99,3.79,7.97,7.58,11.97,11.36c0.6,0.57,0.87,1.2,0.87,2.03    c-0.02,4.81-0.01,9.63-0.01,14.44C17.79,32.92,17.8,33.07,17.81,33.29z"/>
</svg>
