<svg xmlns="http://www.w3.org/2000/svg" version="1.1" x="0px" y="0px" viewBox="0 0 40 40" style="enable-background:new 0 0 40 40;">
  <path d="M11.87,16.25C5.31,16.25,0,21.57,0,28.13C0,34.69,5.31,40,11.87,40s11.87-5.32,11.87-11.87   C23.75,21.57,18.43,16.25,11.87,16.25z M11.87,38.61c-5.79,0-10.48-4.69-10.48-10.48c0-5.79,4.69-10.48,10.48-10.48   s10.48,4.69,10.48,10.48C22.36,33.92,17.66,38.61,11.87,38.61z"/>
  <path d="M40,10.26L29.74,0.01V0H18.18c-1.36,0-2.47,1.11-2.47,2.47V16.9c0.62,0.21,1.21,0.46,1.78,0.77V2.47   c0-0.38,0.31-0.69,0.69-0.69h9.77v7.8c0,1.36,1.11,2.47,2.47,2.47h7.8v15.37c0,0.38-0.31,0.69-0.69,0.69H23.74   c0,0.01,0,0.02,0,0.03c0,0.6-0.06,1.18-0.14,1.75h13.93c1.36,0,2.47-1.11,2.47-2.47L40,10.26L40,10.26L40,10.26z M30.43,10.26   c-0.38,0-0.69-0.31-0.69-0.69V2.52l7.76,7.74H30.43z"/>
  <path d="M10.29,31.24c0.3,0.32,0.68,0.53,1.13,0.62v-3.07c-0.05-0.02-0.12-0.04-0.2-0.07c-0.08-0.02-0.17-0.05-0.27-0.07    c-0.36-0.1-0.72-0.21-1.07-0.35C9.53,28.17,9.21,28,8.93,27.78c-0.28-0.22-0.5-0.5-0.67-0.82c-0.17-0.33-0.25-0.74-0.25-1.23    c0-0.5,0.1-0.94,0.29-1.32s0.44-0.7,0.76-0.96c0.31-0.26,0.68-0.46,1.09-0.6c0.41-0.14,0.84-0.23,1.28-0.26v-1.13h0.87v1.13    c0.44,0.05,0.86,0.14,1.24,0.29c0.39,0.14,0.73,0.34,1.02,0.59c0.29,0.25,0.53,0.56,0.72,0.93c0.19,0.37,0.29,0.81,0.32,1.32    h-2.09c-0.01-0.39-0.13-0.73-0.37-1c-0.24-0.27-0.52-0.41-0.85-0.41v2.6c0.12,0.03,0.24,0.06,0.36,0.09    c0.12,0.03,0.25,0.06,0.39,0.1c0.73,0.2,1.28,0.44,1.68,0.73c0.39,0.29,0.68,0.59,0.87,0.9c0.19,0.31,0.3,0.63,0.33,0.94    c0.03,0.31,0.05,0.59,0.05,0.84c0,0.22-0.05,0.49-0.16,0.82c-0.11,0.33-0.3,0.65-0.58,0.96c-0.28,0.31-0.65,0.59-1.13,0.84    c-0.47,0.24-1.07,0.39-1.81,0.44v1.25h-0.87v-1.25c-1.1-0.08-1.96-0.42-2.57-1.02c-0.62-0.6-0.98-1.47-1.07-2.63h2.07    C9.84,30.47,9.99,30.91,10.29,31.24z M10.94,24.37c-0.16,0.05-0.3,0.13-0.43,0.23c-0.13,0.1-0.23,0.23-0.3,0.38    c-0.07,0.15-0.11,0.33-0.11,0.54c0,0.32,0.1,0.57,0.31,0.75c0.21,0.18,0.54,0.32,1.02,0.43v-2.4    C11.26,24.3,11.09,24.32,10.94,24.37z M12.84,31.73c0.19-0.06,0.36-0.15,0.51-0.27c0.15-0.12,0.28-0.26,0.38-0.43    c0.1-0.17,0.15-0.37,0.15-0.61c0-0.38-0.12-0.67-0.36-0.86c-0.24-0.19-0.65-0.36-1.23-0.52v2.82    C12.47,31.84,12.65,31.79,12.84,31.73z"/>
</svg>
