<svg xmlns="http://www.w3.org/2000/svg" version="1.1" x="0px" y="0px" viewBox="0 0 40 40" style="enable-background:new 0 0 40 40;">
  <path d="M28.16,13.24c1.66,0,3.08-0.65,4.26-1.94c1.17-1.29,1.76-2.85,1.76-4.68c0-1.83-0.59-3.39-1.76-4.68    C31.24,0.64,29.82,0,28.16,0c-1.66,0-3.08,0.65-4.25,1.94c-1.18,1.29-1.76,2.85-1.76,4.68c0,1.83,0.59,3.39,1.76,4.68    C25.08,12.59,26.5,13.24,28.16,13.24z"/>
  <path d="M39.94,21.86c-0.04-0.57-0.12-1.18-0.24-1.83c-0.12-0.65-0.27-1.26-0.45-1.83c-0.18-0.56-0.42-1.11-0.72-1.64    c-0.3-0.53-0.65-0.99-1.04-1.36c-0.39-0.38-0.87-0.67-1.44-0.9c-0.57-0.22-1.19-0.34-1.88-0.34c-0.1,0-0.34,0.12-0.71,0.36    s-0.79,0.51-1.25,0.81c-0.46,0.3-1.07,0.57-1.82,0.81c-0.75,0.24-1.49,0.36-2.25,0.36c-0.75,0-1.5-0.12-2.24-0.36    c-0.75-0.24-1.35-0.51-1.82-0.81c-0.46-0.3-0.88-0.57-1.25-0.81c-0.37-0.24-0.61-0.36-0.71-0.36c-0.68,0-1.31,0.11-1.88,0.34    c-0.57,0.23-1.04,0.52-1.44,0.9c-0.15,0.14-0.28,0.3-0.42,0.47c2.66,2.22,4.35,5.56,4.35,9.28c0,1.02-0.14,2.03-0.39,3.01h13.14    c1.36,0,2.45-0.39,3.26-1.17C39.59,26.01,40,24.95,40,23.6C40,23.01,39.98,22.43,39.94,21.86z"/>
  <path d="M25.2,36.19l-5.53-5.53c1.05-1.65,1.66-3.61,1.66-5.71c0-5.89-4.77-10.66-10.66-10.66C4.77,14.29,0,19.06,0,24.95   s4.77,10.66,10.66,10.66c2.1,0,4.06-0.61,5.71-1.66l5.53,5.53c0.77,0.77,2.1,0.67,2.99-0.22l0.09-0.09   C25.87,38.3,25.96,36.96,25.2,36.19z M1.93,24.95c0-4.82,3.91-8.73,8.73-8.73s8.73,3.91,8.73,8.73s-3.91,8.73-8.73,8.73   S1.93,29.77,1.93,24.95z"/>
</svg>
