<svg xmlns="http://www.w3.org/2000/svg" version="1.1" x="0px" y="0px" viewBox="0 0 40 40" style="enable-background:new 0 0 40 40;">
  <path d="M20,0C8.97,0,0,8.97,0,20s8.97,20,20,20c11.03,0,20-8.97,20-20S31.03,0,20,0z M22.67,37.65  c-0.66,0.1-1.34,0.16-2.02,0.18v-9.23c2.9,0.06,5.63,0.5,8.03,1.24C27.31,33.62,25.18,36.45,22.67,37.65z M11.28,29.84  c2.42-0.74,5.16-1.18,8.07-1.24v9.23c-0.7-0.03-1.39-0.09-2.07-0.19C14.78,36.44,12.65,33.61,11.28,29.84z M17.28,2.36  c0.68-0.1,1.37-0.17,2.07-0.19v9.23c-2.91-0.06-5.66-0.5-8.07-1.24C12.65,6.39,14.78,3.56,17.28,2.36z M28.68,10.16  c-2.4,0.74-5.13,1.18-8.03,1.24V2.17c0.68,0.02,1.36,0.08,2.02,0.18C25.17,3.55,27.31,6.38,28.68,10.16z M20.65,12.69  c3.04-0.06,5.9-0.53,8.43-1.33c0.73,2.4,1.16,5.11,1.22,8h-9.66V12.69z M19.35,12.69v6.67H9.66c0.06-2.88,0.49-5.6,1.22-8  C13.43,12.16,16.3,12.63,19.35,12.69z M8.37,19.35h-6.2c0.14-3.85,1.5-7.39,3.7-10.24c1.13,0.7,2.41,1.32,3.81,1.84  C8.9,13.48,8.43,16.33,8.37,19.35z M8.37,20.65c0.06,3.02,0.53,5.88,1.31,8.4c-1.4,0.52-2.68,1.14-3.81,1.84  c-2.21-2.86-3.57-6.39-3.7-10.24H8.37z M9.66,20.65h9.69v6.67c-3.05,0.06-5.93,0.53-8.47,1.33C10.15,26.25,9.72,23.53,9.66,20.65z   M20.65,27.31v-6.67h9.66c-0.06,2.88-0.49,5.6-1.22,8C26.55,27.85,23.68,27.38,20.65,27.31z M31.59,20.65h6.24  c-0.14,3.85-1.5,7.4-3.72,10.26c-1.14-0.71-2.43-1.33-3.84-1.85C31.07,26.52,31.53,23.67,31.59,20.65z M31.59,19.35  c-0.06-3.02-0.53-5.88-1.31-8.4c1.41-0.52,2.7-1.14,3.84-1.85c2.21,2.86,3.58,6.4,3.72,10.26H31.59z M33.31,8.13  c-1.02,0.62-2.18,1.16-3.44,1.63c-0.99-2.71-2.37-4.98-3.99-6.6C28.77,4.16,31.32,5.89,33.31,8.13z M14.06,3.17  c-1.62,1.62-2.98,3.88-3.97,6.58c-1.25-0.46-2.4-1-3.41-1.61C8.66,5.92,11.19,4.19,14.06,3.17z M6.67,31.86  c1.02-0.61,2.16-1.15,3.41-1.61c0.99,2.7,2.35,4.96,3.97,6.58C11.19,35.81,8.66,34.08,6.67,31.86z M25.88,36.85  c1.63-1.62,3-3.89,3.99-6.6c1.26,0.46,2.42,1,3.44,1.62C31.32,34.11,28.77,35.84,25.88,36.85z"/>
</svg>
