<svg xmlns="http://www.w3.org/2000/svg" version="1.1" x="0px" y="0px" viewBox="0 0 40 40" style="enable-background:new 0 0 40 40;">
  <path d="M38.74,18.87c0-2.28,0,0.75,0-1.53c0-0.21-0.02-0.43-0.06-0.63c-0.17-0.73-0.75-1.15-1.4-1.04   c-0.63,0.1-1.06,0.72-1.06,1.55c0,4.63,0,3.96,0,8.58c0,1.15,0.82,1.86,1.71,1.49c0.52-0.21,0.82-0.76,0.82-1.51   C38.74,23.47,38.74,21.17,38.74,18.87z M34.95,35.19c-0.09,1.59,1.35,3.43,3.11,2.93c1.25-0.36,2.09-1.93,1.92-3.56   c-0.14-1.36-0.49-2.65-0.98-3.87c-0.19-0.47-0.44-0.93-0.73-1.32c-0.48-0.64-1.09-0.61-1.6-0.01c-0.08,0.1-0.16,0.2-0.23,0.31   c-0.37,0.58-0.61,1.24-0.82,1.92C35.27,32.7,34.98,33.83,34.95,35.19z"/>
  <path d="M7.11,15.7c0,0.1,0,0.14,0,0.19c0,4.57,0,3.18,0.01,7.75c0,0.31,0.1,0.66,0.24,0.93c0.17,0.33,0.4,0.62,0.64,0.88   c0.59,0.64,1.29,1.06,2.01,1.41c2.63,1.25,5.38,1.81,8.19,1.94c2.2,0.11,4.39,0.03,6.57-0.38c1.8-0.34,3.56-0.88,5.24-1.74   c0.74-0.38,1.43-0.88,1.99-1.6c0.38-0.48,0.57-1.03,0.57-1.72c-0.01-4.42-0.01-2.88-0.01-7.3c0-0.11,0-0.22,0-0.34   c-0.08,0.01-0.14,0.02-0.2,0.04c-3.65,1.05-7.3,2.08-10.94,3.14c-0.86,0.25-1.72,0.4-2.59,0.15c-3.24-0.91-6.48-1.85-9.72-2.77   C8.45,16.09,7.8,15.9,7.11,15.7z M19.82,15.77c0-0.02,0.01-0.04,0.01-0.06c0.16-0.02,0.32-0.02,0.47-0.06   c3.86-1.09,7.73-2.19,11.59-3.28c2.23-0.63,4.46-1.26,6.69-1.9c0.73-0.21,1.06-0.78,1.06-1.74c0-0.95-0.34-1.51-1.08-1.72   c-1.16-0.34-2.32-0.66-3.47-0.99c-4.69-1.33-9.38-2.66-14.08-3.99c-0.59-0.17-1.17-0.34-1.78-0.16C15.4,2.96,11.58,4.04,7.75,5.12   C5.54,5.75,3.32,6.38,1.11,7.01c-0.4,0.11-0.73,0.35-0.92,0.82c-0.47,1.16-0.02,2.39,1,2.68c1.39,0.4,2.79,0.79,4.18,1.18   c4.22,1.19,8.43,2.39,12.65,3.58C18.62,15.44,19.22,15.6,19.82,15.77z"/>
  <path d="M38.74,18.87c0,2.3,0,4.61,0,6.91c0,0.75-0.31,1.3-0.82,1.51c-0.89,0.36-1.71-0.35-1.71-1.49c0-4.63,0-3.96,0-8.58   c0-0.83,0.43-1.44,1.06-1.55c0.65-0.11,1.23,0.31,1.4,1.04c0.05,0.2,0.06,0.42,0.06,0.63C38.74,19.62,38.74,16.59,38.74,18.87z"/>
  <path d="M34.95,35.19c0.03-1.37,0.32-2.49,0.67-3.6c0.21-0.68,0.45-1.34,0.82-1.92c0.07-0.11,0.15-0.22,0.23-0.31   c0.51-0.6,1.12-0.63,1.6,0.01c0.29,0.39,0.54,0.85,0.73,1.32c0.49,1.22,0.84,2.51,0.98,3.87c0.17,1.63-0.67,3.2-1.92,3.56   C36.3,38.63,34.86,36.78,34.95,35.19z"/>
</svg>
