<svg xmlns="http://www.w3.org/2000/svg" version="1.1" x="0px" y="0px" viewBox="0 0 40 40" style="enable-background:new 0 0 40 40;">
  <path d="M7.29,15.35c1.02,0,1.9-0.4,2.62-1.19c0.72-0.8,1.09-1.76,1.09-2.88c0-1.13-0.36-2.09-1.09-2.88    C9.19,7.6,8.31,7.2,7.29,7.2c-1.02,0-1.9,0.4-2.62,1.19c-0.72,0.8-1.09,1.76-1.09,2.88c0,1.13,0.36,2.08,1.09,2.88    C5.39,14.96,6.27,15.35,7.29,15.35z"/>
  <path d="M6.74,23.61c0.23-0.71,0.53-1.4,0.91-2.06c0.4-0.71,0.88-1.33,1.42-1.85c0.6-0.57,1.31-1.02,2.14-1.35    c0.68-0.27,1.41-0.43,2.17-0.47c-0.38-0.53-0.67-1.1-0.91-1.69c-0.1-0.06-0.21-0.12-0.32-0.16C11.8,15.87,11.42,15.8,11,15.8    c-0.06,0-0.21,0.08-0.43,0.22c-0.23,0.15-0.48,0.31-0.77,0.5c-0.29,0.18-0.66,0.35-1.12,0.5c-0.46,0.15-0.92,0.22-1.38,0.22    c-0.46,0-0.92-0.07-1.38-0.22c-0.46-0.15-0.83-0.31-1.12-0.5c-0.29-0.18-0.54-0.35-0.77-0.5c-0.23-0.15-0.37-0.22-0.43-0.22    c-0.42,0-0.81,0.07-1.16,0.21c-0.35,0.14-0.64,0.32-0.89,0.55C1.3,16.79,1.09,17.07,0.9,17.4c-0.19,0.33-0.34,0.66-0.45,1.01    c-0.11,0.35-0.2,0.72-0.27,1.12c-0.07,0.4-0.12,0.78-0.14,1.13C0.01,21.01,0,21.37,0,21.73c0,0.83,0.25,1.48,0.76,1.96    c0.5,0.48,1.17,0.72,2.01,0.72h3.75C6.59,24.14,6.66,23.87,6.74,23.61z"/>
  <path d="M32.71,15.35c-1.02,0-1.9-0.4-2.62-1.19C29.37,13.36,29,12.4,29,11.28c0-1.13,0.36-2.09,1.09-2.88    c0.72-0.8,1.6-1.19,2.62-1.19c1.02,0,1.9,0.4,2.62,1.19c0.72,0.8,1.09,1.76,1.09,2.88c0,1.13-0.36,2.08-1.09,2.88    C34.61,14.96,33.73,15.35,32.71,15.35z"/>
  <path d="M33.26,23.61c-0.23-0.71-0.53-1.4-0.91-2.06c-0.4-0.71-0.88-1.33-1.42-1.85c-0.6-0.57-1.31-1.02-2.14-1.35    c-0.68-0.27-1.41-0.43-2.17-0.47c0.38-0.53,0.67-1.1,0.91-1.69c0.1-0.06,0.21-0.12,0.32-0.16c0.35-0.14,0.73-0.21,1.16-0.21    c0.06,0,0.21,0.08,0.43,0.22c0.23,0.15,0.48,0.31,0.77,0.5c0.29,0.18,0.66,0.35,1.12,0.5c0.46,0.15,0.92,0.22,1.38,0.22    c0.46,0,0.92-0.07,1.38-0.22c0.46-0.15,0.83-0.31,1.12-0.5c0.29-0.18,0.54-0.35,0.77-0.5c0.23-0.15,0.37-0.22,0.43-0.22    c0.42,0,0.81,0.07,1.16,0.21c0.35,0.14,0.64,0.32,0.89,0.55c0.24,0.23,0.46,0.51,0.64,0.84c0.19,0.33,0.34,0.66,0.45,1.01    c0.11,0.35,0.2,0.72,0.27,1.12c0.07,0.4,0.12,0.78,0.14,1.13c0.02,0.35,0.04,0.71,0.04,1.07c0,0.83-0.25,1.48-0.76,1.96    c-0.5,0.48-1.17,0.72-2.01,0.72h-3.75C33.41,24.14,33.34,23.87,33.26,23.61z"/>
  <path d="M31.89,29.69c0,1.36-0.41,2.43-1.24,3.21c-0.82,0.79-1.92,1.18-3.29,1.18H12.56c-1.37,0-2.46-0.39-3.29-1.18   c-0.83-0.79-1.24-1.86-1.24-3.21c0-0.6,0.02-1.18,0.06-1.75c0.04-0.57,0.12-1.19,0.24-1.85c0.12-0.66,0.27-1.27,0.45-1.84   c0.18-0.56,0.42-1.11,0.73-1.65c0.3-0.54,0.65-0.99,1.05-1.37c0.4-0.38,0.88-0.68,1.45-0.91c0.57-0.22,1.2-0.34,1.89-0.34   c0.1,0,0.34,0.12,0.71,0.37c0.37,0.24,0.79,0.51,1.26,0.81c0.47,0.3,1.08,0.57,1.83,0.81c0.75,0.24,1.5,0.36,2.26,0.36   c0.76,0,1.51-0.12,2.26-0.36c0.75-0.24,1.36-0.51,1.83-0.81c0.47-0.3,0.89-0.57,1.26-0.81s0.61-0.37,0.71-0.37   c0.69,0,1.32,0.11,1.89,0.34c0.57,0.23,1.05,0.53,1.45,0.91c0.4,0.38,0.75,0.84,1.05,1.37c0.31,0.54,0.55,1.09,0.73,1.65   c0.18,0.57,0.33,1.18,0.45,1.84c0.12,0.66,0.2,1.28,0.24,1.85C31.87,28.51,31.89,29.09,31.89,29.69z M24.25,7.87   c1.18,1.3,1.78,2.87,1.78,4.72S25.43,16,24.25,17.3c-1.18,1.3-2.61,1.95-4.29,1.95c-1.67,0-3.1-0.65-4.28-1.95   c-1.19-1.3-1.78-2.87-1.78-4.72s0.59-3.41,1.78-4.72c1.18-1.3,2.61-1.95,4.28-1.95C21.63,5.92,23.06,6.57,24.25,7.87z"/>
</svg>
