<svg xmlns="http://www.w3.org/2000/svg" version="1.1" x="0px" y="0px" viewBox="0 0 40 40" style="enable-background:new 0 0 40 40;">
  <path d="M3,11.61H37c3.09,0,3.4-0.66,0.69-1.48L22.23,5.47C21,5.1,19,5.1,17.77,5.47L2.31,10.13C-0.4,10.94-0.1,11.61,3,11.61z"/>
  <polygon points="13.39,31.63 12.52,34.81 27.48,34.81 26.61,31.63  "/>
  <path d="M0,32.51v1.57h11.37l0.74-2.49H0.92C0.41,31.59,0,32,0,32.51z"/>
  <path d="M39.08,31.59H27.9l0.74,2.49H40v-1.57C40,32,39.59,31.59,39.08,31.59z"/>
  <path d="M8.49,30.87V14.76h0.53c0.55,0,0.99-0.49,0.99-1.1c0-0.61-0.45-1.1-0.99-1.1H3.05c-0.55,0-1,0.49-1,1.1   c0,0.61,0.45,1.1,1,1.1h0.53v16.11H8.49z"/>
  <path d="M12.89,30.87h4.91V14.76h0.53c0.55,0,0.99-0.49,0.99-1.1c0-0.61-0.45-1.1-0.99-1.1h-5.97c-0.55,0-1,0.49-1,1.1   c0,0.61,0.45,1.1,1,1.1h0.53V30.87z"/>
  <path d="M28.63,13.66c0-0.61-0.45-1.1-0.99-1.1h-5.97c-0.55,0-1,0.49-1,1.1c0,0.61,0.45,1.1,1,1.1h0.53v16.11h4.91V14.76h0.53   C28.19,14.76,28.63,14.27,28.63,13.66z"/>
  <path d="M36.42,30.87V14.76h0.53c0.55,0,1-0.49,1-1.1c0-0.61-0.45-1.1-1-1.1h-5.97c-0.55,0-1,0.49-1,1.1c0,0.61,0.45,1.1,1,1.1   h0.53v16.11H36.42z"/>
</svg>
