<svg xmlns="http://www.w3.org/2000/svg" version="1.1" x="0px" y="0px" viewBox="0 0 40 40" style="enable-background:new 0 0 40 40;">
  <path d="M20,0C8.97,0,0,8.98,0,20C0,31.03,8.97,40,20,40C31.03,40,40,31.03,40,20C40,8.98,31.03,0,20,0z M22.78,31.79h-6.07v-5.38  h6.07V31.79z M27.81,18.27c-0.52,0.87-1.39,1.73-2.95,2.95c-1.04,0.87-1.56,1.39-1.91,1.91c-0.35,0.52-0.35,1.04-0.35,1.91h-5.72  v-0.52c0-1.04,0.17-1.73,0.35-2.43c0.17-0.52,0.52-1.21,1.04-1.73c0.52-0.52,1.39-1.39,2.95-2.6c0.87-0.69,1.21-1.21,1.21-1.73  c0-0.52-0.17-1.04-0.52-1.21c-0.35-0.17-0.87-0.52-1.56-0.52c-0.69,0-1.21,0.17-1.73,0.69c-0.52,0.52-0.69,1.21-0.87,2.43  l-5.72-0.69c0.17-2.08,1.04-3.81,2.25-5.2c1.39-1.39,3.47-1.91,6.24-1.91c2.25,0,3.99,0.52,5.2,1.39c1.73,1.21,2.77,2.77,2.77,4.86  C28.5,16.71,28.15,17.57,27.81,18.27z"/>
</svg>
