<svg xmlns="http://www.w3.org/2000/svg" version="1.1" x="0px" y="0px" viewBox="0 0 40 40" style="enable-background:new 0 0 40 40;">
  <polygon points="3.99,30.83 36.01,30.83 24.27,13.23 17.83,23.01 14.06,19.46   "/>
  <circle cx="8.05" cy="13.23" r="4.06"/>
  <path d="M34.68,2.98H20.03h-1.56H5.32C2.39,2.98,0,5.36,0,8.3v0.84v0.89V31.7c0,2.93,2.39,5.32,5.32,5.32h13.15h1.56h14.65   c2.93,0,5.32-2.39,5.32-5.32V10.03V9.14V8.3C40,5.36,37.61,2.98,34.68,2.98z M38.84,9.14v0.89V31.7c0,2.29-1.87,4.16-4.16,4.16   H20.03h-1.56H5.32c-2.29,0-4.16-1.87-4.16-4.16V10.03V9.14V8.3c0-2.29,1.87-4.16,4.16-4.16h13.15h1.56h14.65   c2.29,0,4.16,1.87,4.16,4.16V9.14z"/>
</svg>
