<svg xmlns="http://www.w3.org/2000/svg" version="1.1" x="0px" y="0px" viewBox="0 0 40 40" style="enable-background:new 0 0 40 40;">
  <path d="M27.92,9.3h-9.74h-2.36H12.3c-0.84,0-1.53,0.68-1.53,1.53v11.96c0,0.84,0.68,1.53,1.53,1.53h3.52h2.36h9.74     c0.84,0,1.53-0.68,1.53-1.53V10.82C29.45,9.98,28.76,9.3,27.92,9.3z M28.35,22.79c0,0.24-0.19,0.43-0.43,0.43h-9.74h-2.36H12.3     c-0.24,0-0.43-0.19-0.43-0.43V10.82c0-0.24,0.19-0.43,0.43-0.43h3.52h2.36h9.74c0.24,0,0.43,0.19,0.43,0.43V22.79z"/>
  <rect x="16.14" y="20" width="7.93" height="0.89"/>
  <rect x="14.98" y="16.87" width="10.25" height="0.88"/>
  <rect x="24.08" y="12.2" width="2.22" height="1.8"/>
  <path d="M26.32,40.05H13.89c-0.65,0-1.18-0.4-1.18-0.9l2.33-2.97h10.12l2.33,2.97C27.5,39.64,26.97,40.05,26.32,40.05z"/>
  <path d="M35.79-0.05H4.21C1.89-0.05,0,1.84,0,4.16v26.3c0,2.32,1.89,4.21,4.21,4.21h31.59c2.32,0,4.21-1.89,4.21-4.21V4.16   C40,1.84,38.11-0.05,35.79-0.05z M20.11,33.22c-0.61,0-1.1-0.49-1.1-1.1c0-0.61,0.49-1.1,1.1-1.1c0.61,0,1.1,0.49,1.1,1.1   C21.21,32.73,20.72,33.22,20.11,33.22z M36.97,28.37c0,0.65-0.53,1.18-1.18,1.18H4.21c-0.65,0-1.18-0.53-1.18-1.18V4.16   c0-0.65,0.53-1.18,1.18-1.18h31.59c0.65,0,1.18,0.53,1.18,1.18V28.37z"/>
</svg>
