<svg xmlns="http://www.w3.org/2000/svg" version="1.1" x="0px" y="0px" viewBox="0 0 40 40" style="enable-background:new 0 0 40 40;">
  <path d="M20.08,9.4c-2.27,0-3.08,1.69-3.08,3.24v6.97c0,1.81,1.27,3.12,3.23,3.12c1.62,0,2.73-0.96,2.73-3.12v-6.97   C22.97,10.74,22.16,9.4,20.08,9.4z"/>
  <path d="M20,0C8.96,0,0,8.96,0,20s8.95,20,20,20s20-8.95,20-20S31.05,0,20,0z M26.47,19.41c0,3.69-2.39,6.55-5.74,6.55   c-1.42,0-3.12-0.62-3.77-1.73v8.51c0,0.66-0.46,1.12-1.04,1.12h-1.35c-0.58,0-1.04-0.46-1.04-1.12V7.55c0-0.66,0.46-1.12,1.04-1.12   H16c0.58,0,1.04,0.46,1.04,1.12v0.23c0.54-0.81,1.93-1.62,3.54-1.62c3.62,0,5.89,2.27,5.89,6.74V19.41z"/>
</svg>
