<svg xmlns="http://www.w3.org/2000/svg" version="1.1" x="0px" y="0px" viewBox="0 0 40 40" style="enable-background:new 0 0 40 40;">
  <path d="M36.94,33.76c0,1.93-0.59,3.45-1.76,4.56C34.01,39.44,32.46,40,30.52,40H9.48c-1.94,0-3.5-0.56-4.67-1.67   c-1.17-1.12-1.76-2.64-1.76-4.56c0-0.85,0.03-1.68,0.08-2.49c0.06-0.81,0.17-1.68,0.34-2.62c0.17-0.94,0.38-1.81,0.64-2.61   c0.26-0.8,0.6-1.58,1.04-2.34c0.43-0.76,0.93-1.41,1.49-1.95c0.56-0.54,1.25-0.97,2.06-1.29c0.81-0.32,1.71-0.48,2.68-0.48   c0.14,0,0.48,0.18,1.01,0.52c0.53,0.34,1.13,0.73,1.79,1.15c0.67,0.42,1.53,0.81,2.6,1.15s2.14,0.52,3.21,0.52   c1.08,0,2.15-0.17,3.21-0.52s1.93-0.73,2.6-1.15c0.67-0.42,1.26-0.81,1.79-1.15s0.87-0.52,1.01-0.52c0.98,0,1.87,0.16,2.68,0.48   c0.81,0.32,1.49,0.75,2.06,1.29c0.56,0.54,1.06,1.19,1.49,1.95c0.44,0.76,0.78,1.54,1.04,2.34c0.26,0.8,0.47,1.67,0.64,2.61   c0.17,0.94,0.28,1.81,0.34,2.62C36.91,32.09,36.94,32.92,36.94,33.76z M26.09,2.77c1.68,1.85,2.52,4.08,2.52,6.7   s-0.84,4.84-2.52,6.7c-1.68,1.85-3.71,2.77-6.09,2.77c-2.37,0-4.4-0.92-6.08-2.77c-1.68-1.85-2.52-4.08-2.52-6.7   s0.84-4.84,2.52-6.7C15.59,0.92,17.62,0,20,0C22.38,0,24.41,0.92,26.09,2.77z"/>
</svg>
