<svg xmlns="http://www.w3.org/2000/svg" version="1.1" x="0px" y="0px" viewBox="0 0 40 40" style="enable-background:new 0 0 40 40;">
  <path d="M16.88,39.45c-0.43-0.2-0.74-0.49-0.72-1.02c0.02-0.47,0.41-0.88,0.88-0.89c1.96-0.01,3.92-0.01,5.88,0     c0.41,0,0.77,0.33,0.87,0.74c0.09,0.4-0.1,0.83-0.47,1.04c-0.08,0.04-0.15,0.08-0.23,0.13C21.03,39.45,18.96,39.45,16.88,39.45z"/>
  <path d="M19.94,31.79c-1.57,0-3.13,0-4.7,0c-0.1,0-0.2,0-0.3-0.01c-0.55-0.08-0.69-0.24-0.69-0.79c0-0.92-0.01-1.83,0-2.75     c0-0.19-0.06-0.31-0.2-0.43c-2.54-2.09-3.77-4.79-3.61-8.08c0.22-4.47,3.66-8.21,8.09-8.88c5.18-0.78,10.07,2.7,10.9,7.83     c0.49,3-0.24,5.69-2.34,7.95c-0.21,0.23-0.43,0.44-0.64,0.67c-0.46,0.48-0.72,1.04-0.71,1.72c0.01,0.59,0.01,1.18,0,1.76     c0,0.61-0.4,1.01-1.01,1.01C23.13,31.79,21.54,31.79,19.94,31.79z M19.99,29.88c0.9,0,1.79,0,2.69,0c0.77,0,1.14-0.37,1.15-1.13     c0-0.39,0.01-0.78,0-1.17c-0.01-0.38,0.14-0.67,0.43-0.91c0.34-0.28,0.67-0.57,0.99-0.87c1.94-1.85,2.71-4.1,2.3-6.75     c-0.73-4.78-5.87-7.69-10.38-5.87c-4.7,1.9-6.35,7.75-3.26,11.67c0.5,0.64,1.15,1.16,1.72,1.74c0.11,0.11,0.22,0.25,0.24,0.39     c0.1,0.58,0.19,1.16,0.24,1.74c0.07,0.78,0.43,1.14,1.2,1.14C18.2,29.88,19.09,29.88,19.99,29.88z"/>
  <path d="M20.03,33.71c1.55,0,3.11,0,4.66,0c0.62,0,1.04,0.39,1.05,0.94c0,0.57-0.42,0.97-1.05,0.97c-3.15,0-6.3,0-9.45,0     c-0.56,0-0.98-0.4-0.98-0.94c0-0.56,0.41-0.96,0.99-0.97C16.84,33.71,18.43,33.71,20.03,33.71z"/>
  <path d="M20,6.75c-0.24,0-0.44-0.2-0.44-0.44V0.99c0-0.24,0.2-0.44,0.44-0.44c0.24,0,0.44,0.2,0.44,0.44v5.32     C20.44,6.55,20.24,6.75,20,6.75z"/>
  <path d="M12.88,8.65c-0.15,0-0.3-0.08-0.38-0.22l-2.66-4.6C9.72,3.62,9.79,3.35,10,3.23c0.21-0.12,0.48-0.05,0.6,0.16l2.66,4.6     c0.12,0.21,0.05,0.48-0.16,0.6C13.03,8.64,12.95,8.65,12.88,8.65z"/>
  <path d="M7.66,13.87c-0.07,0-0.15-0.02-0.22-0.06l-4.6-2.66c-0.21-0.12-0.28-0.39-0.16-0.6c0.12-0.21,0.39-0.28,0.6-0.16     l4.6,2.66c0.21,0.12,0.28,0.39,0.16,0.6C7.96,13.79,7.82,13.87,7.66,13.87z"/>
  <path d="M5.76,20.99H0.44C0.2,20.99,0,20.79,0,20.55c0-0.24,0.2-0.44,0.44-0.44h5.32c0.24,0,0.44,0.2,0.44,0.44     C6.2,20.79,6,20.99,5.76,20.99z"/>
  <path d="M3.06,30.77c-0.15,0-0.3-0.08-0.38-0.22c-0.12-0.21-0.05-0.48,0.16-0.6l4.6-2.66c0.21-0.12,0.48-0.05,0.6,0.16     c0.12,0.21,0.05,0.48-0.16,0.6l-4.6,2.66C3.21,30.75,3.14,30.77,3.06,30.77z"/>
  <path d="M36.94,30.77c-0.07,0-0.15-0.02-0.22-0.06l-4.6-2.66c-0.21-0.12-0.28-0.39-0.16-0.6c0.12-0.21,0.39-0.28,0.6-0.16     l4.6,2.66c0.21,0.12,0.28,0.39,0.16,0.6C37.24,30.69,37.09,30.77,36.94,30.77z"/>
  <path d="M39.56,20.99h-5.32c-0.24,0-0.44-0.2-0.44-0.44c0-0.24,0.2-0.44,0.44-0.44h5.32c0.24,0,0.44,0.2,0.44,0.44     C40,20.79,39.8,20.99,39.56,20.99z"/>
  <path d="M32.34,13.87c-0.15,0-0.3-0.08-0.38-0.22c-0.12-0.21-0.05-0.48,0.16-0.6l4.6-2.66c0.21-0.12,0.48-0.05,0.6,0.16     s0.05,0.48-0.16,0.6l-4.6,2.66C32.49,13.85,32.41,13.87,32.34,13.87z"/>
  <path d="M27.12,8.65c-0.07,0-0.15-0.02-0.22-0.06c-0.21-0.12-0.28-0.39-0.16-0.6l2.66-4.6c0.12-0.21,0.39-0.28,0.6-0.16     c0.21,0.12,0.28,0.39,0.16,0.6l-2.66,4.6C27.42,8.58,27.27,8.65,27.12,8.65z"/>
  <path d="M14.79,17.14c-0.06,0-0.12-0.02-0.17-0.05c-0.15-0.1-0.19-0.29-0.09-0.44c0.71-1.08,1.69-1.92,2.83-2.44    c0.16-0.07,0.35,0,0.42,0.16c0.07,0.16,0,0.35-0.16,0.42c-1.03,0.47-1.92,1.24-2.56,2.22C15,17.09,14.89,17.14,14.79,17.14z"/>
  <path d="M13.83,19.43c-0.02,0-0.05,0-0.07-0.01c-0.17-0.04-0.28-0.21-0.24-0.38c0.08-0.36,0.18-0.71,0.32-1.05    c0.06-0.16,0.25-0.25,0.41-0.18c0.16,0.06,0.25,0.25,0.18,0.41c-0.12,0.31-0.22,0.63-0.29,0.96    C14.11,19.33,13.98,19.43,13.83,19.43z"/>
  <path d="M18.68,23.42h-1.03c-0.57,0-1.03-0.46-1.03-1.03c0-0.57,0.46-1.03,1.03-1.03c0.57,0,1.03,0.46,1.03,1.03V23.42z    M21.32,30.81V24h0.99c0.01,0,0.03,0,0.04,0c0.89,0,1.61-0.72,1.61-1.61c0-0.89-0.72-1.61-1.61-1.61c-0.89,0-1.61,0.72-1.61,1.61   v1.03h-1.48v-1.03c0-0.89-0.72-1.61-1.61-1.61c-0.89,0-1.61,0.72-1.61,1.61c0,0.89,0.72,1.61,1.61,1.61h1.03v6.8l0.58,0V24h1.48   v6.81L21.32,30.81z M21.32,23.42v-1.03c0-0.57,0.46-1.03,1.03-1.03s1.03,0.46,1.03,1.03c0,0.56-0.44,1.01-0.99,1.03   c-0.01,0-0.03,0-0.04,0H21.32z"/>
</svg>
