<svg xmlns="http://www.w3.org/2000/svg" version="1.1" x="0px" y="0px" viewBox="0 0 40 40" style="enable-background:new 0 0 40 40;">
  <path d="M0.06,33.57c0.04-0.58,0.12-1.2,0.24-1.87c0.12-0.67,0.27-1.29,0.46-1.86c0.18-0.57,0.43-1.13,0.74-1.67   c0.31-0.54,0.66-1.01,1.06-1.39c0.4-0.38,0.89-0.69,1.47-0.92c0.58-0.23,1.22-0.34,1.91-0.34c0.1,0,0.34,0.13,0.72,0.37   c0.38,0.25,0.8,0.52,1.28,0.82c0.47,0.3,1.09,0.58,1.85,0.82c0.76,0.25,1.52,0.37,2.29,0.37c0.77,0,1.53-0.12,2.29-0.37   c0.76-0.25,1.38-0.52,1.85-0.82c0.47-0.3,0.9-0.58,1.28-0.82c0.38-0.25,0.62-0.37,0.72-0.37c0.7,0,1.34,0.12,1.91,0.34   c0.58,0.23,1.07,0.54,1.47,0.92c0.4,0.39,0.76,0.85,1.06,1.39c0.31,0.54,0.56,1.1,0.74,1.67c0.18,0.57,0.34,1.19,0.46,1.86   c0.12,0.67,0.2,1.29,0.24,1.87c0.04,0.58,0.06,1.17,0.06,1.77c0,1.37-0.42,2.46-1.25,3.25c-0.83,0.8-1.94,1.19-3.33,1.19h-15   c-1.38,0-2.5-0.4-3.33-1.19C0.42,37.8,0,36.72,0,35.35C0,34.74,0.02,34.15,0.06,33.57z M12.08,11.26c1.69,0,3.14,0.66,4.34,1.98   c1.2,1.32,1.8,2.91,1.8,4.78s-0.6,3.46-1.8,4.78c-1.2,1.32-2.65,1.98-4.34,1.98c-1.7,0-3.14-0.66-4.34-1.98   c-1.2-1.32-1.8-2.91-1.8-4.78s0.6-3.46,1.8-4.78C8.94,11.92,10.39,11.26,12.08,11.26z"/>
  <path d="M23.4,0.21h13.76c1.57,0,2.83,1.27,2.83,2.83v8.87c0,1.57-1.27,2.83-2.83,2.83h-3.74c-0.23,0-0.46,0.08-0.64,0.22   l-7.54,5.87c-0.38,0.29-0.92,0.02-0.92-0.45v-5.06c0-0.32-0.26-0.57-0.57-0.57H23.4c-1.57,0-2.83-1.27-2.83-2.83V3.04   C20.57,1.47,21.84,0.21,23.4,0.21z"/>
</svg>
