<svg xmlns="http://www.w3.org/2000/svg" version="1.1" x="0px" y="0px" viewBox="0 0 40 40" style="enable-background:new 0 0 40 40;">
  <path d="M0,19.99c0.17-0.2,0.31-0.43,0.51-0.6c1.77-1.48,3.55-2.95,5.32-4.42c2.29-1.91,4.58-3.83,6.88-5.75   c1.79-1.49,3.59-2.97,5.37-4.46c1.05-0.88,2.8-0.88,3.86,0.01c1.93,1.63,3.88,3.25,5.82,4.87c0.03,0.03,0.07,0.04,0.16,0.1   c0.01-0.15,0.03-0.25,0.03-0.36c0-1.39,0-2.79,0-4.18c0-0.8,0.25-1.04,1.06-1.04c1.42,0,2.83,0,4.25,0c0.78,0,1.03,0.26,1.03,1.03   c0,3.17,0,6.35-0.01,9.52c0,0.26,0.08,0.44,0.28,0.6c1.64,1.35,3.28,2.71,4.91,4.07c0.21,0.17,0.36,0.41,0.53,0.62   c0,0.15,0,0.3,0,0.45c-0.51,0.62-1.02,1.25-1.53,1.87c-0.5,0.61-0.88,0.67-1.48,0.17c-1.33-1.09-2.65-2.2-3.97-3.3   c-1.35-1.13-2.71-2.26-4.06-3.39c-1.47-1.23-2.94-2.45-4.41-3.68c-1.44-1.2-2.87-2.4-4.31-3.6c-0.18-0.15-0.31-0.15-0.49,0   c-2,1.67-4,3.34-6,5.01c-1.49,1.25-2.99,2.49-4.48,3.73c-1.33,1.11-2.65,2.23-3.98,3.34c-0.77,0.64-1.53,1.28-2.31,1.91   c-0.57,0.46-0.96,0.42-1.42-0.14C1.04,21.73,0.52,21.08,0,20.44C0,20.29,0,20.14,0,19.99z"/>
  <path d="M34.28,22.64c0-0.16-0.05-0.38-0.16-0.48c-0.4-0.38-0.84-0.71-1.27-1.07c-1.35-1.11-2.71-2.23-4.06-3.34   c-1.34-1.1-2.67-2.21-4.01-3.31c-1.13-0.93-2.26-1.87-3.39-2.8c-0.46-0.38-0.92-0.75-1.39-1.13c-1.11,0.92-2.19,1.82-3.28,2.72   c-1.36,1.12-2.73,2.24-4.09,3.36c-2.2,1.81-4.39,3.63-6.6,5.43c-0.22,0.18-0.32,0.36-0.32,0.64c0.01,3.81,0,7.62,0.01,11.44   c0,1.18,0.62,1.8,1.79,1.8c2.98,0,5.96,0,8.94,0c0.11,0,0.23,0,0.38,0h6.35c0.17,0,0.29,0,0.41,0c2.96,0,5.92,0,8.88,0   c1.21,0,1.82-0.61,1.82-1.83c0-1.76,0-3.51,0-5.27C34.28,26.75,34.29,24.69,34.28,22.64z M26,30.54c0.45,0.45,0.45,1.18,0,1.63   l-0.2,0.2c-0.45,0.45-1.18,0.45-1.63,0l-3.5-3.5l-3.5,3.5c-0.45,0.45-1.18,0.45-1.63,0l-0.2-0.2c-0.45-0.45-0.45-1.18,0-1.63   l3.5-3.5l-3.5-3.5c-0.45-0.45-0.45-1.18,0-1.63l0.2-0.2c0.45-0.45,1.18-0.45,1.63,0l3.5,3.5l3.5-3.5c0.45-0.45,1.18-0.45,1.63,0   l0.2,0.2c0.45,0.45,0.45,1.18,0,1.63l-3.5,3.5L26,30.54z"/>
</svg>
