<svg xmlns="http://www.w3.org/2000/svg" version="1.1" x="0px" y="0px" viewBox="0 0 40 40" style="enable-background:new 0 0 40 40;">
  <path d="M28.68,11.68c-1.55-0.38-3.14-0.23-4.66,0.36c-2.58,0.99-5.49,1.25-8.06,0.23c-1.83-0.73-3.72-0.87-5.52-0.28   c-5.39,1.77-7.73,9.36-5.23,16.95c2.5,7.59,8.89,12.31,14.28,10.53c0.25-0.08,0.45-0.23,0.69-0.34c0.52,0.27,1.04,0.51,1.62,0.65   c5.51,1.35,11.51-3.85,13.41-11.61C37.11,20.41,34.18,13.03,28.68,11.68z M11.12,26.42c-0.3-0.02-1.32-0.04-1.63-0.04   c-0.19,0-0.37,0.02-0.56,0.03c-1.32-4.43,0.02-8.76,3.09-9.95c0.39,0.44,1.54,0.85,2.01,1.22C11.59,19.66,10.94,22.91,11.12,26.42z   "/>
  <path d="M20.68,11.47c0.32-3.53,2.87-6.42,6.3-7.07c-0.32-0.63-1.13-1.32-1.24-2.03c-3.82,0.56-6.75,3.84-6.75,7.81   c0,0.43,0.13,0.83,0.19,1.24C19.49,11.43,20.38,11.48,20.68,11.47z"/>
  <path d="M17.05,10.74C16.34,5.52,11.53,0.71,6.31,0C7.02,5.22,11.83,10.02,17.05,10.74z"/>
</svg>
