<svg xmlns="http://www.w3.org/2000/svg" version="1.1" x="0px" y="0px" viewBox="0 0 40 40" style="enable-background:new 0 0 40 40;">
  <path d="M37.15,13.33c-0.11,0.63-0.2,1.18-0.31,1.72c-0.45,1.3-0.99,2.28-1.71,3.3c-0.75,1.06-1.58,2.05-2.55,2.91     c-0.88,0.78-1.8,1.52-2.83,2.11c-1,0.58-2.04,1.02-3.15,1.29c-0.54,0.13-1.1,0.17-1.66,0.22c-0.4,0.03-0.8,0.02-1.2,0.01     c-1.1-0.04-2.13-0.34-3.13-0.78c-1.9-0.85-3.8-1.73-5.83-2.24c-1.19-0.29-2.4-0.39-3.61-0.27c-0.86,0.08-1.7,0.38-2.56,0.5     c-0.42,0.06-0.95,0.15-1.29-0.09c-0.06-0.04-0.16-0.21-0.17-0.33C7.14,21,7.14,20.32,7.14,19.64c0-5.01-0.01-10.02,0.01-15.03     c0.01-1.23,0.68-2.12,1.69-2.75c0.72-0.45,1.53-0.66,2.36-0.71c0.7-0.04,1.41-0.04,2.1,0c1.18,0.08,2.33,0.28,3.45,0.69     c1.67,0.62,3.1,1.6,4.3,2.9c0.86,0.94,1.58,1.99,2.18,3.12c0.57,1.06,1.23,2.05,2.02,2.97c0.83,0.96,1.81,1.69,2.91,2.28     c0.93,0.5,1.93,0.82,2.99,0.88c0.91,0.05,1.83,0.13,2.73,0.06c0.82-0.06,1.62-0.28,2.43-0.44     C36.55,13.57,36.77,13.46,37.15,13.33z"/>
  <path d="M4.9,40H3.67c-0.45,0-0.82-0.37-0.82-0.82V0.82C2.85,0.37,3.21,0,3.67,0L4.9,0c0.45,0,0.82,0.37,0.82,0.82v38.37   C5.72,39.63,5.35,40,4.9,40z"/>
</svg>
