<svg xmlns="http://www.w3.org/2000/svg" version="1.1" x="0px" y="0px" viewBox="0 0 40 40" style="enable-background:new 0 0 40 40;">
  <path d="M31.08,8.94c0-1.09,0,0.36,0-0.73c0-0.1-0.01-0.21-0.04-0.3c-0.1-0.35-0.44-0.55-0.82-0.5     c-0.37,0.05-0.62,0.34-0.62,0.74c0,2.21,0,1.89,0,4.1c0,0.55,0.48,0.89,1,0.71c0.3-0.1,0.48-0.36,0.48-0.72     C31.08,11.13,31.08,10.04,31.08,8.94z M28.86,16.73c-0.05,0.76,0.79,1.64,1.83,1.4c0.73-0.17,1.23-0.92,1.13-1.7     c-0.08-0.65-0.29-1.26-0.57-1.85c-0.11-0.23-0.26-0.45-0.43-0.63c-0.28-0.31-0.64-0.29-0.94-0.01c-0.05,0.05-0.09,0.1-0.13,0.15     c-0.22,0.28-0.36,0.59-0.48,0.92C29.05,15.54,28.88,16.08,28.86,16.73z"/>
  <path d="M20.07,0c0.61,0.13,1.22,0.24,1.83,0.38c2.38,0.54,4.75,1.1,7.13,1.64c0.38,0.09,0.76,0.17,1.14,0.27     c0.85,0.21,1.69,1.07,1.65,2.24c-0.03,0.96-0.74,1.85-1.71,2.08c-0.65,0.16-1.31,0.31-1.98,0.46c0,0.05,0,0.1,0,0.15     c0,1.95-0.02,1.38,0.01,3.33c0.01,1.01-0.4,1.77-1.17,2.36c-0.71,0.55-1.53,0.88-2.39,1.1c-0.81,0.21-1.64,0.31-2.48,0.38     c-0.99,0.08-1.99,0.09-2.99,0.06c-1.33-0.04-2.65-0.16-3.93-0.52c-0.82-0.23-1.58-0.57-2.24-1.12c-0.49-0.4-0.86-0.89-0.99-1.52     c-0.04-0.19-0.06-0.38-0.06-0.57c0-2.01,0-1.49,0-3.5c0-0.05,0-0.1,0-0.16c-0.5-0.12-0.99-0.23-1.48-0.34     c-0.21-0.05-0.43-0.09-0.63-0.16c-0.87-0.3-1.4-0.89-1.56-1.81c0-0.02-0.01-0.04-0.02-0.07c0-0.17,0-0.35,0-0.52     C8.18,4.16,8.19,4.14,8.2,4.12C8.36,3.18,8.91,2.58,9.81,2.3c0.35-0.11,0.71-0.17,1.07-0.25c2.3-0.53,4.61-1.07,6.91-1.59     c0.71-0.16,1.43-0.3,2.14-0.45C19.97,0,20.02,0,20.07,0z M13.35,7.41c0,0.04,0,0.06,0,0.08c0,1.94,0,1.35,0.01,3.29     c0,0.13,0.05,0.28,0.13,0.4c0.09,0.14,0.21,0.26,0.34,0.38c0.31,0.27,0.67,0.45,1.05,0.6c1.38,0.53,2.81,0.77,4.28,0.83     c1.15,0.05,2.29,0.01,3.43-0.16c0.94-0.14,1.86-0.37,2.73-0.74c0.39-0.16,0.74-0.38,1.04-0.68c0.2-0.2,0.3-0.44,0.3-0.73     c-0.01-1.88,0-1.23,0-3.1c0-0.05,0-0.09,0-0.14c-0.04,0.01-0.08,0.01-0.11,0.02c-1.9,0.44-3.81,0.89-5.71,1.34     c-0.45,0.11-0.9,0.17-1.35,0.06c-1.69-0.39-3.38-0.79-5.07-1.18C14.05,7.57,13.71,7.49,13.35,7.41z M19.99,7.43     c0-0.01,0-0.02,0.01-0.02c0.08-0.01,0.17-0.01,0.25-0.02c2.02-0.46,4.03-0.93,6.05-1.4c1.16-0.27,2.33-0.53,3.49-0.81     c0.38-0.09,0.55-0.33,0.55-0.74c0-0.41-0.18-0.64-0.56-0.73c-0.6-0.14-1.21-0.28-1.81-0.42c-2.45-0.57-4.9-1.13-7.35-1.7     C20.3,1.52,20,1.45,19.68,1.52c-2,0.46-4,0.92-5.99,1.38c-1.16,0.27-2.31,0.53-3.47,0.8c-0.21,0.05-0.38,0.15-0.48,0.35     C9.49,4.55,9.73,5.07,10.26,5.2c0.73,0.17,1.45,0.34,2.18,0.5c2.2,0.51,4.4,1.02,6.6,1.52C19.36,7.29,19.67,7.36,19.99,7.43z"/>
  <path d="M31.08,8.94c0,1.1,0,2.2,0,3.3c0,0.36-0.18,0.62-0.48,0.72c-0.52,0.17-1-0.16-1-0.71c0-2.21,0-1.89,0-4.1     c0-0.39,0.25-0.69,0.62-0.74c0.38-0.05,0.72,0.15,0.82,0.5c0.03,0.1,0.04,0.2,0.04,0.3C31.08,9.29,31.08,7.85,31.08,8.94z"/>
  <path d="M28.86,16.73c0.02-0.65,0.19-1.19,0.4-1.72c0.13-0.32,0.27-0.64,0.48-0.92c0.04-0.05,0.09-0.1,0.13-0.15     c0.3-0.29,0.65-0.3,0.94,0.01c0.17,0.18,0.32,0.4,0.43,0.63c0.29,0.58,0.49,1.2,0.57,1.85c0.1,0.78-0.39,1.53-1.13,1.7     C29.65,18.37,28.81,17.49,28.86,16.73z"/>
  <path d="M33.98,30.4c-0.14-0.79-0.32-1.53-0.54-2.21c-0.22-0.68-0.51-1.34-0.88-1.98c-0.37-0.64-0.79-1.19-1.26-1.65   c-0.48-0.45-1.05-0.82-1.74-1.09c-0.69-0.27-1.44-0.41-2.27-0.41c-0.12,0-0.41,0.15-0.86,0.44c-0.45,0.29-0.95,0.62-1.52,0.98   c-0.56,0.36-1.29,0.69-2.2,0.98c-0.9,0.29-1.81,0.44-2.72,0.44c-0.91,0-1.81-0.15-2.72-0.44c-0.9-0.29-1.64-0.62-2.2-0.98   c-0.56-0.36-1.07-0.69-1.51-0.98c-0.45-0.29-0.73-0.44-0.86-0.44c-0.83,0-1.59,0.14-2.27,0.41c-0.69,0.27-1.26,0.64-1.74,1.09   c-0.48,0.46-0.9,1.01-1.26,1.65c-0.37,0.64-0.66,1.31-0.88,1.98c-0.22,0.68-0.4,1.42-0.54,2.21c-0.14,0.8-0.24,1.54-0.29,2.22   C5.69,33.3,5.66,34,5.66,34.72c0,1.63,0.5,2.92,1.49,3.86C8.14,39.53,9.46,40,11.1,40h17.8c1.64,0,2.96-0.47,3.95-1.42   c0.99-0.94,1.49-2.23,1.49-3.86c0-0.72-0.02-1.42-0.07-2.11C34.22,31.93,34.12,31.19,33.98,30.4z"/>
  <path d="M19.83,14.48c-2.69,0-5.12-0.78-6.94-2.04c-0.11,0.55-0.17,1.13-0.17,1.73c0,2.21,0.71,4.1,2.14,5.67   c1.42,1.56,3.14,2.35,5.15,2.35c2.01,0,3.73-0.78,5.15-2.35c1.42-1.57,2.14-3.45,2.14-5.67c0-0.68-0.08-1.33-0.22-1.94   C25.22,13.61,22.66,14.48,19.83,14.48z"/>
</svg>
