<svg xmlns="http://www.w3.org/2000/svg" version="1.1" x="0px" y="0px" viewBox="0 0 40 40" style="enable-background:new 0 0 40 40;">
  <path d="M20,18.94c2.38,0,4.41-0.92,6.09-2.77c1.68-1.85,2.52-4.08,2.52-6.7s-0.84-4.84-2.52-6.7C24.41,0.92,22.38,0,20,0   c-2.37,0-4.4,0.92-6.08,2.77c-1.68,1.85-2.52,4.08-2.52,6.7s0.84,4.84,2.52,6.7C15.59,18.01,17.62,18.94,20,18.94z"/>
  <path d="M9.73,40h9V29.84l-10.4-3.75v7.19c1.62,0.47,2.81,1.96,2.81,3.73C11.13,38.21,10.59,39.29,9.73,40z"/>
  <path d="M36.86,31.28c-0.06-0.81-0.17-1.68-0.34-2.62c-0.17-0.94-0.38-1.81-0.64-2.61c-0.26-0.8-0.6-1.58-1.04-2.34   c-0.43-0.76-0.93-1.41-1.49-1.95c-0.56-0.54-1.25-0.96-2.06-1.29c-0.81-0.32-1.71-0.48-2.68-0.48c-0.14,0-0.48,0.18-1.01,0.52   s-1.13,0.73-1.79,1.15c-0.66,0.42-1.53,0.81-2.6,1.15c-1.07,0.34-2.14,0.52-3.21,0.52c-1.07,0-2.14-0.17-3.21-0.52   c-1.07-0.34-1.93-0.73-2.6-1.15c-0.66-0.42-1.26-0.81-1.79-1.15c-0.53-0.34-0.87-0.52-1.01-0.52c-0.98,0-1.87,0.16-2.68,0.48   c-0.81,0.32-1.49,0.75-2.06,1.29c-0.56,0.54-1.06,1.19-1.49,1.95c-0.44,0.76-0.78,1.54-1.04,2.34c-0.26,0.8-0.47,1.67-0.64,2.61   c-0.17,0.94-0.28,1.81-0.34,2.62c-0.06,0.81-0.08,1.64-0.08,2.49c0,1.93,0.59,3.45,1.76,4.56c0.68,0.65,1.49,1.1,2.43,1.37   c1.48,0,2.69-1.2,2.69-2.69c0-1.43-1.61-2.58-3.01-2.67v-0.78v0.22l0-9.78L20,28.18L33.01,24v10.12l-0.01,0v0.21   c-1.4,0.09-2.94,1.24-2.94,2.67c0,1.48,1.2,2.69,2.69,2.69c0,0,0,0,0.01,0c0.94-0.27,1.75-0.73,2.43-1.37   c1.17-1.12,1.76-2.64,1.76-4.56C36.94,32.92,36.91,32.09,36.86,31.28z"/>
  <path d="M31.68,33.28v-7.19l-10.59,3.75V40h9.17c-0.86-0.71-1.4-1.79-1.4-2.99C28.86,35.23,30.05,33.75,31.68,33.28z"/>
</svg>
