<svg xmlns="http://www.w3.org/2000/svg" version="1.1" x="0px" y="0px" viewBox="0 0 40 40" style="enable-background:new 0 0 40 40;">
  <path d="M18.88,25.65c0-0.25-0.08-0.46-0.25-0.62l-1.24-1.22c-0.17-0.17-0.38-0.26-0.61-0.26c-0.24,0-0.44,0.09-0.61,0.26      l-5.54,5.53l-3.07-3.07c-0.17-0.17-0.38-0.26-0.61-0.26s-0.44,0.09-0.61,0.26l-1.24,1.22c-0.16,0.16-0.24,0.37-0.24,0.62      c0,0.25,0.08,0.45,0.24,0.61l4.92,4.92c0.17,0.17,0.37,0.26,0.61,0.26c0.25,0,0.45-0.09,0.63-0.26l7.37-7.37      C18.8,26.1,18.88,25.9,18.88,25.65z"/>
  <path d="M11.87,16.26C5.31,16.26,0,21.57,0,28.13C0,34.69,5.31,40,11.87,40s11.87-5.32,11.87-11.87    C23.74,21.57,18.43,16.26,11.87,16.26z M11.87,38.61c-5.79,0-10.48-4.69-10.48-10.48c0-5.79,4.69-10.48,10.48-10.48    s10.48,4.69,10.48,10.48C22.35,33.92,17.66,38.61,11.87,38.61z"/>
  <path d="M34.92,5.09l-10.45,7.06L14.01,5.09c-0.48-0.32-1.12-0.2-1.44,0.28c-0.32,0.48-0.2,1.12,0.28,1.44l10.89,7.36    c0.22,0.15,0.48,0.2,0.72,0.16c0.24,0.03,0.5-0.02,0.72-0.16l10.89-7.36c0.48-0.32,0.6-0.97,0.28-1.44    C36.04,4.89,35.39,4.76,34.92,5.09z"/>
  <path d="M37.27,0H21.59h-4.22h-6.3c-1.5,0-2.73,1.22-2.73,2.73v14.44c0.63-0.2,1.29-0.34,1.96-0.44v-14    c0-0.42,0.34-0.76,0.76-0.76h6.3h4.22h15.68c0.42,0,0.76,0.34,0.76,0.76v17.05c0,0.42-0.34,0.76-0.76,0.76H21.59h-1.07    c0.53,0.6,1,1.26,1.4,1.96h15.35c1.5,0,2.73-1.22,2.73-2.73V2.73C40,1.22,38.78,0,37.27,0z"/>
</svg>
