<svg xmlns="http://www.w3.org/2000/svg" version="1.1" x="0px" y="0px" viewBox="0 0 40 40" style="enable-background:new 0 0 40 40;">
  <path d="M23.12,0.03c0.82,0.21,1.68,0.35,2.47,0.66c1.71,0.66,2.74,1.97,3.21,3.71c0.68,2.57,0.56,5.09-0.57,7.53   c-0.04,0.08-0.07,0.17-0.1,0.25c-0.01,0.02,0,0.05,0,0.14c0.14,0,0.27,0,0.41,0c1.38,0.01,2.75-0.02,4.13,0.03   c3.19,0.12,5.84,3.01,5.75,6.2c-0.04,1.23-0.33,2.39-0.97,3.44c-0.15,0.24-0.18,0.46-0.13,0.73c0.32,1.5,0.08,2.93-0.55,4.32   c-0.12,0.26-0.18,0.57-0.16,0.85c0.11,1.69-0.26,3.24-1.25,4.64c-0.11,0.16-0.16,0.38-0.17,0.58c-0.06,1.48-0.4,2.88-1.31,4.08   c-1.19,1.57-2.81,2.47-4.73,2.63c-3.06,0.25-6.14,0.35-9.14-0.45c-2.4-0.64-4.76-1.47-7.14-2.17c-0.61-0.18-1.27-0.29-1.91-0.3   c-2.03-0.04-4.05-0.02-6.08-0.01c-1.34,0-2.38-0.53-2.97-1.75c-0.21-0.44-0.31-0.97-0.31-1.46C1.58,28.64,1.58,23.61,1.6,18.58   c0-1.92,1.29-3.19,3.21-3.2c2.03-0.01,4.05,0,6.08-0.01c0.2,0,0.45-0.08,0.58-0.22c0.69-0.72,1.38-1.45,2.02-2.21   c1.2-1.42,2.35-2.87,3.55-4.29c0.57-0.68,0.74-1.49,0.94-2.31C18.25,5.22,18.5,4.09,18.86,3c0.37-1.13,1.03-2.1,2.15-2.65   c0.27-0.14,0.58-0.21,0.87-0.31C22.33-0.01,22.66-0.01,23.12,0.03z M10.83,18.48c0,5.11,0,10.2,0,15.21   c0.87,0.14,1.71,0.22,2.52,0.42c0.82,0.2,1.61,0.51,2.41,0.77c0.41,0.13,0.81,0.27,1.21,0.42c3.35,1.2,6.8,1.78,10.36,1.57   c0.68-0.04,1.37-0.1,2.05-0.22c1.41-0.27,2.43-1.3,2.63-2.73c0.1-0.67,0.02-1.37,0.04-2.05c0.01-0.16,0.04-0.37,0.15-0.46   c1.23-0.96,1.71-2.8,1.07-4.25c-0.1-0.22-0.1-0.35,0.07-0.54c0.98-1.06,1.28-2.29,0.88-3.67c-0.14-0.49-0.37-0.94-0.55-1.38   c0.22-0.14,0.5-0.24,0.66-0.43c0.7-0.83,1.09-1.82,1-2.91c-0.14-1.64-1.49-2.83-3.16-2.84c-2.62-0.01-5.25,0-7.87,0   c-0.14,0-0.28,0-0.46,0c0.04-0.34,0.07-0.63,0.12-0.92c0.26-1.35,0.89-2.57,1.43-3.81c0.68-1.54,0.93-3.13,0.59-4.78   c-0.21-1.03-0.52-2.04-1.65-2.41c-0.61-0.2-1.26-0.42-1.9-0.33c-0.09,0.01-0.36,0-0.41,0.2c-0.23,0.47-0.38,0.94-0.52,1.45   c-0.3,1.03-0.52,2.09-0.78,3.13c-0.27,1.09-0.75,2.07-1.51,2.9c-0.34,0.37-0.67,0.76-0.99,1.15c-1.23,1.51-2.43,3.05-3.7,4.52   C13.56,17.57,12.51,18.61,10.83,18.48z M6.2,33.79c0.84,0,1.52-0.7,1.51-1.55c-0.01-0.83-0.69-1.5-1.52-1.5   c-0.84,0-1.54,0.7-1.54,1.53C4.66,33.1,5.36,33.79,6.2,33.79z"/>
</svg>
