<svg xmlns="http://www.w3.org/2000/svg" version="1.1" x="0px" y="0px" viewBox="0 0 40 40" style="enable-background:new 0 0 40 40;">
  <path d="M30.13,12.72c-4.55,0-6.59,2.5-7.73,4.26v0.09h-0.06c0.02-0.02,0.04-0.06,0.06-0.09v-3.65h-8.57c0.11,2.42,0,25.79,0,25.79   h8.57V24.71c0-0.77,0.06-1.54,0.28-2.09c0.62-1.54,2.03-3.14,4.4-3.14c3.11,0,4.35,2.37,4.35,5.83v13.8H40V24.33   C40,16.4,35.77,12.72,30.13,12.72z"/>
  <path d="M4.85,0.88C1.92,0.88,0,2.81,0,5.34C0,7.82,1.86,9.8,4.74,9.8h0.06c2.99,0,4.85-1.99,4.85-4.46   C9.59,2.81,7.78,0.88,4.85,0.88z"/>
  <rect x="0.51" y="13.32" width="8.58" height="25.79"/>
</svg>
