<svg xmlns="http://www.w3.org/2000/svg" version="1.1" x="0px" y="0px" viewBox="0 0 40 40" style="enable-background:new 0 0 40 40;">
  <path d="M28,3c1.67,0,3.07,0.59,4.23,1.77l3.04,3.06C36.42,8.99,37,10.39,37,12.06c0,1.68-0.59,3.1-1.77,4.25l-4.31,4.29   c-1.15,1.15-2.56,1.73-4.23,1.73c-1.71,0-3.16-0.61-4.36-1.83l-1.83,1.83c1.22,1.2,1.83,2.64,1.83,4.33c0,1.67-0.58,3.09-1.75,4.25   l-4.33,4.33C15.08,36.42,13.67,37,12,37c-1.67,0-3.08-0.59-4.23-1.77l-3.04-3.06C3.58,31.01,3,29.61,3,27.94   c0-1.68,0.59-3.1,1.77-4.25l4.31-4.29c1.15-1.15,2.56-1.73,4.23-1.73c1.71,0,3.16,0.61,4.35,1.84l1.84-1.84   c-1.22-1.19-1.84-2.64-1.84-4.33c0-1.66,0.58-3.08,1.75-4.25l4.34-4.33C24.92,3.58,26.33,3,28,3z M13.31,21.65   c-0.56,0-1.03,0.19-1.42,0.58l-4.31,4.29C7.19,26.91,7,27.38,7,27.94c0,0.54,0.19,1.01,0.56,1.42l3.04,3.06   C10.99,32.81,11.46,33,12,33c0.55,0,1.03-0.19,1.42-0.58l4.33-4.33c0.38-0.37,0.56-0.85,0.56-1.42c0-0.58-0.22-1.08-0.65-1.5   c-0.04,0.04-0.17,0.17-0.38,0.39c-0.22,0.22-0.36,0.37-0.45,0.45c-0.08,0.08-0.21,0.18-0.4,0.32c-0.18,0.13-0.36,0.22-0.53,0.27   c-0.17,0.05-0.36,0.07-0.57,0.07c-0.55,0-1.03-0.19-1.42-0.58c-0.39-0.39-0.58-0.86-0.58-1.42c0-0.21,0.02-0.4,0.07-0.57   c0.05-0.18,0.14-0.35,0.27-0.53c0.13-0.18,0.23-0.31,0.31-0.4c0.08-0.08,0.22-0.23,0.45-0.45c0.22-0.22,0.35-0.34,0.4-0.39   C14.4,21.88,13.9,21.65,13.31,21.65z M28,7c-0.56,0-1.03,0.19-1.42,0.58l-4.34,4.33c-0.39,0.39-0.58,0.86-0.58,1.42   c0,0.58,0.22,1.08,0.67,1.5c0.04-0.04,0.17-0.18,0.39-0.39c0.21-0.22,0.36-0.37,0.45-0.45c0.08-0.08,0.22-0.18,0.4-0.31   c0.18-0.13,0.36-0.22,0.53-0.27c0.17-0.05,0.36-0.07,0.57-0.07c0.56,0,1.03,0.19,1.42,0.58c0.39,0.39,0.58,0.86,0.58,1.42   c0,0.21-0.02,0.4-0.07,0.57s-0.14,0.35-0.27,0.53c-0.13,0.18-0.24,0.31-0.31,0.39c-0.08,0.09-0.23,0.23-0.45,0.45   c-0.22,0.21-0.36,0.34-0.4,0.38c0.43,0.46,0.94,0.69,1.52,0.69c0.55,0,1.03-0.19,1.42-0.58l4.31-4.29   c0.37-0.38,0.56-0.84,0.56-1.42c0-0.56-0.18-1.03-0.54-1.42L29.4,7.58C29.01,7.2,28.54,7,28,7z"/>
</svg>
