<svg xmlns="http://www.w3.org/2000/svg" version="1.1" x="0px" y="0px" viewBox="0 0 40 40" style="enable-background:new 0 0 40 40;">
  <path d="M40,6.43v4.29c0,0.19-0.07,0.36-0.21,0.5c-0.14,0.14-0.31,0.21-0.5,0.21H10.52c-0.19,0-0.36-0.07-0.5-0.21    c-0.14-0.14-0.21-0.31-0.21-0.5V6.43c0-0.19,0.07-0.36,0.21-0.5s0.31-0.21,0.5-0.21h28.76c0.19,0,0.36,0.07,0.5,0.21    S40,6.24,40,6.43z M40,17.86v4.29c0,0.19-0.07,0.36-0.21,0.5s-0.31,0.21-0.5,0.21H10.52c-0.19,0-0.36-0.07-0.5-0.21    s-0.21-0.31-0.21-0.5v-4.29c0-0.19,0.07-0.36,0.21-0.5c0.14-0.14,0.31-0.21,0.5-0.21h28.76c0.19,0,0.36,0.07,0.5,0.21    C39.93,17.5,40,17.66,40,17.86z M40,29.29v4.29c0,0.19-0.07,0.36-0.21,0.5s-0.31,0.21-0.5,0.21H10.52c-0.19,0-0.36-0.07-0.5-0.21    s-0.21-0.31-0.21-0.5v-4.29c0-0.19,0.07-0.36,0.21-0.5s0.31-0.21,0.5-0.21h28.76c0.19,0,0.36,0.07,0.5,0.21S40,29.09,40,29.29z"/>
  <path d="M6,6.43v4.29c0,0.19-0.07,0.36-0.21,0.5c-0.14,0.14-0.31,0.21-0.5,0.21H0.71c-0.19,0-0.36-0.07-0.5-0.21    C0.07,11.08,0,10.91,0,10.71V6.43c0-0.19,0.07-0.36,0.21-0.5s0.31-0.21,0.5-0.21h4.57c0.19,0,0.36,0.07,0.5,0.21S6,6.24,6,6.43z     M6,17.86v4.29c0,0.19-0.07,0.36-0.21,0.5s-0.31,0.21-0.5,0.21H0.71c-0.19,0-0.36-0.07-0.5-0.21S0,22.34,0,22.14v-4.29    c0-0.19,0.07-0.36,0.21-0.5c0.14-0.14,0.31-0.21,0.5-0.21h4.57c0.19,0,0.36,0.07,0.5,0.21C5.93,17.5,6,17.66,6,17.86z M6,29.29    v4.29c0,0.19-0.07,0.36-0.21,0.5s-0.31,0.21-0.5,0.21H0.71c-0.19,0-0.36-0.07-0.5-0.21S0,33.76,0,33.57v-4.29    c0-0.19,0.07-0.36,0.21-0.5s0.31-0.21,0.5-0.21h4.57c0.19,0,0.36,0.07,0.5,0.21S6,29.09,6,29.29z"/>
</svg>
