<svg xmlns="http://www.w3.org/2000/svg" version="1.1" x="0px" y="0px" viewBox="0 0 40 40" style="enable-background:new 0 0 40 40;">
  <path d="M36.09,30.65c-0.85-0.85-2.24-0.85-3.1,0l-5.62,5.62c-0.85,0.85-0.85,2.24,0,3.1h0c0.85,0.85,2.24,0.85,3.1,0l5.62-5.62   C36.94,32.89,36.94,31.5,36.09,30.65z"/>
  <path d="M32.41,29.83c0.01-0.01,0.01-0.02,0.02-0.02c0.38-0.37,0.62-0.88,0.62-1.45v-8.27c0-0.89-0.58-1.64-1.39-1.91   c-0.04-0.02-0.07-0.04-0.11-0.05l-7.46-2.72c-1.13-0.41-2.39,0.18-2.81,1.31c-0.41,1.13,0.18,2.39,1.31,2.81l5.95,2.17v5.54   c0,1.99-1.62,3.62-3.62,3.62h-6.08l4.61,4.61l0.23,0.23c0.79,0.79,2.07,0.79,2.86,0l0.23-0.23L32.41,29.83z"/>
  <rect x="10.28" y="14.82" width="10.34" height="1.42"/>
  <rect x="12.09" y="17.76" width="6.71" height="1.42"/>
  <path d="M27.38,27.22V22.5l-1.76-0.64v5.36c0,0.38-0.31,0.69-0.69,0.69H5.72c-0.38,0-0.69-0.31-0.69-0.69V2.45   c0-0.38,0.31-0.69,0.69-0.69h9.7v7.74c0,1.35,1.1,2.45,2.45,2.45h7.74v2.76l1.76,0.64v-5.16h0l0.01-0.01L17.19,0.02V0H5.72   C4.37,0,3.27,1.1,3.27,2.45v24.77c0,1.35,1.1,2.45,2.45,2.45h19.21C26.28,29.67,27.38,28.57,27.38,27.22z M17.19,2.51l7.7,7.68   h-7.02c-0.38,0-0.69-0.31-0.69-0.69V2.51z"/>
</svg>
