<svg xmlns="http://www.w3.org/2000/svg" version="1.1" x="0px" y="0px" viewBox="0 0 40 40" style="enable-background:new 0 0 40 40;">
  <path d="M33.33,13.33c0,1.89-0.28,3.45-0.86,4.66l-9.48,20.16c-0.28,0.57-0.69,1.02-1.24,1.35C21.21,39.83,20.63,40,20,40   c-0.63,0-1.21-0.17-1.76-0.49c-0.55-0.33-0.95-0.78-1.21-1.35L7.52,17.99c-0.57-1.22-0.86-2.77-0.86-4.66   c0-3.68,1.3-6.82,3.91-9.43C13.18,1.3,16.32,0,20,0c3.68,0,6.82,1.3,9.43,3.91C32.03,6.51,33.33,9.65,33.33,13.33z M24.71,18.05   c1.3-1.3,1.95-2.87,1.95-4.71c0-1.84-0.65-3.41-1.95-4.71c-1.3-1.3-2.87-1.95-4.71-1.95c-1.84,0-3.41,0.65-4.71,1.95   c-1.3,1.3-1.95,2.87-1.95,4.71c0,1.84,0.65,3.41,1.95,4.71C16.59,19.35,18.16,20,20,20C21.84,20,23.41,19.35,24.71,18.05z"/>
</svg>
