<svg xmlns="http://www.w3.org/2000/svg" version="1.1" x="0px" y="0px" viewBox="0 0 40 40" style="enable-background:new 0 0 40 40;">
  <path d="M32.91,18.41c0.73,0,1.32,0.59,1.32,1.32v16.35c0,0.73-0.59,1.32-1.32,1.32H7.09c-0.73,0-1.32-0.59-1.32-1.32V19.73   c0-0.73,0.59-1.32,1.32-1.32H32.91 M32.91,15.81H7.09c-2.16,0-3.92,1.76-3.92,3.92v16.35c0,2.16,1.76,3.92,3.92,3.92h25.82   c2.16,0,3.92-1.76,3.92-3.92V19.73C36.83,17.57,35.07,15.81,32.91,15.81L32.91,15.81z"/>
  <path d="M12.48,14.05V9.74c0-2.99,2.43-5.42,5.42-5.42h4.2c2.99,0,5.42,2.43,5.42,5.42v4.31h4.32V9.74C31.84,4.36,27.48,0,22.1,0   h-4.2c-5.38,0-9.74,4.36-9.74,9.74v4.31H12.48z"/>
  <path d="M22.97,27.75c0-1.64-1.33-2.97-2.97-2.97c-1.64,0-2.97,1.33-2.97,2.97c0,1.26,0.79,2.34,1.91,2.76v0.99   c0,0.58,0.47,1.06,1.06,1.06c0.58,0,1.06-0.47,1.06-1.06v-0.99C22.17,30.09,22.97,29.02,22.97,27.75z"/>
</svg>
