<svg xmlns="http://www.w3.org/2000/svg" version="1.1" x="0px" y="0px" viewBox="0 0 40 40" style="enable-background:new 0 0 40 40;">
  <path d="M35.66,40c-7.84,0-15.69,0-23.53,0c-0.1-0.02-0.2-0.04-0.3-0.05c-0.91-0.1-1.75-0.4-2.51-0.92    c-1.16-0.79-1.96-1.88-2.5-3.17c-0.49-1.17-0.68-2.39-0.68-3.65c0-6.57,0-13.14,0-19.71c0-0.06,0-0.12,0-0.2    c-0.49,0-0.97,0-1.45,0c-0.19,0-0.39-0.01-0.58-0.04c-0.94-0.13-1.72-0.59-2.37-1.26C0.75,9.98,0.27,8.72,0.08,7.33    C0.05,7.09,0.03,6.86,0,6.62C0,6.31,0,6,0,5.69C0.03,5.4,0.06,5.12,0.1,4.83c0.14-1.01,0.47-1.95,1.04-2.79    c0.61-0.91,1.41-1.58,2.48-1.9C3.85,0.08,4.08,0.05,4.31,0c7.4,0,14.81,0,22.21,0c0.03,0.01,0.06,0.02,0.1,0.02    c0.63,0.05,1.23,0.22,1.79,0.5c1.27,0.62,2.19,1.6,2.85,2.83c0.73,1.34,1.03,2.79,1.04,4.31c0.01,1.13,0,2.27,0,3.4    c0,3.53,0,7.06,0,10.59c0,1.95,0,3.91,0,5.86c0,0.05,0,0.11,0,0.17c0.06,0,0.11,0,0.15,0c0.99,0,1.99,0,2.98,0    c0.16,0,0.31,0.01,0.47,0.04c0.91,0.14,1.68,0.58,2.32,1.23c1.02,1.05,1.51,2.34,1.7,3.76c0.03,0.26,0.05,0.52,0.08,0.78    c0,0.23,0,0.46,0,0.69c-0.01,0.04-0.02,0.07-0.02,0.11c-0.03,0.28-0.04,0.56-0.08,0.83c-0.14,1.02-0.47,1.97-1.05,2.82    c-0.59,0.88-1.36,1.53-2.38,1.86C36.21,39.89,35.93,39.94,35.66,40z M9.23,12.31c0,0.06,0,0.11,0,0.16c0,6.59,0,13.19,0,19.78    c0,0.55,0.04,1.09,0.16,1.62c0.18,0.82,0.51,1.57,1.1,2.18c0.51,0.53,1.12,0.87,1.88,0.87c5.97,0,11.94,0,17.9,0    c0.04,0,0.09,0,0.14-0.01c-0.03-0.06-0.05-0.09-0.07-0.13c-0.71-1.25-1.06-2.6-1.11-4.02c-0.03-0.91-0.01-1.83-0.02-2.74    c0-0.09-0.02-0.19-0.05-0.28c-0.13-0.37-0.13-0.73,0-1.1c0.03-0.09,0.05-0.2,0.05-0.29c0-6.02,0-12.05,0-18.07    c0-0.82,0-1.65,0-2.47c0-0.52-0.03-1.05-0.14-1.56c-0.17-0.84-0.49-1.61-1.08-2.24c-0.42-0.45-0.91-0.76-1.52-0.88    c-0.45-0.09-0.81,0.03-1.09,0.38c-0.22,0.28-0.39,0.58-0.5,0.92c-0.28,0.79-0.34,1.61-0.24,2.44c0.07,0.58,0.21,1.15,0.52,1.65    c0.24,0.4,0.54,0.72,1.07,0.74c0.93,0.04,1.6,0.96,1.38,1.87c-0.17,0.73-0.78,1.2-1.56,1.2c-5.55,0-11.1,0-16.65,0    C9.36,12.31,9.3,12.31,9.23,12.31z M22.4,3.07c-0.05,0-0.08,0-0.11,0c-5.87,0-11.74,0-17.61,0C4.41,3.07,4.18,3.17,4,3.35    C3.71,3.63,3.51,3.97,3.38,4.34c-0.34,0.95-0.39,1.92-0.2,2.91c0.1,0.51,0.26,1,0.58,1.43c0.22,0.3,0.48,0.55,0.88,0.55    c0.9,0,1.8,0,2.7,0c0.16,0,0.32-0.03,0.49-0.04c0.1,0,0.21,0.04,0.31,0.04c4.7,0,9.41,0,14.11,0c0.04,0,0.09,0,0.15,0    c-0.04-0.1-0.08-0.17-0.11-0.24c-0.16-0.4-0.33-0.79-0.47-1.19c-0.24-0.66-0.33-1.35-0.27-2.06c0.05-0.64,0.24-1.25,0.49-1.84    C22.15,3.63,22.27,3.36,22.4,3.07z M32.3,30.76c0,0.3,0,0.59,0,0.87c0,0.65-0.01,1.31,0.11,1.96c0.14,0.75,0.38,1.45,0.83,2.07    c0.46,0.63,1.05,1.08,1.84,1.23c0.42,0.08,0.76-0.03,1.04-0.37c0.22-0.27,0.39-0.57,0.5-0.9c0.33-0.93,0.37-1.88,0.2-2.85    c-0.1-0.53-0.27-1.03-0.58-1.47c-0.26-0.36-0.59-0.57-1.06-0.55c-0.71,0.02-1.42,0.01-2.13,0.01    C32.81,30.76,32.57,30.76,32.3,30.76z"/>
  <path d="M21.39,21.53c1.05,0,2.11,0,3.16,0c0.57,0,1.04,0.2,1.35,0.68c0.34,0.5,0.37,1.05,0.08,1.58    c-0.29,0.54-0.77,0.81-1.38,0.81c-2.01,0.01-4.02,0-6.03,0c-0.28,0-0.56,0.02-0.84-0.07c-0.69-0.24-1.11-0.9-1.04-1.66    c0.06-0.65,0.63-1.25,1.29-1.34c0.05-0.01,0.11-0.01,0.16-0.01C19.23,21.53,20.31,21.53,21.39,21.53z"/>
  <path d="M21.39,27.69c1.08,0,2.16,0,3.23,0c0.81,0,1.49,0.63,1.54,1.41c0.05,0.85-0.54,1.56-1.37,1.66    c-0.06,0.01-0.13,0.01-0.19,0.01c-2.01,0-4.03,0-6.04,0c-0.27,0-0.53,0.02-0.79-0.06c-0.67-0.21-1.13-0.87-1.08-1.57    c0.05-0.73,0.58-1.33,1.27-1.44c0.05-0.01,0.1-0.01,0.15-0.01C19.21,27.69,20.3,27.69,21.39,27.69z"/>
  <path d="M21.4,15.38c1.07,0,2.13,0,3.2,0c0.81,0,1.43,0.53,1.56,1.33c0.14,0.85-0.55,1.71-1.42,1.74c-0.08,0-0.16,0-0.24,0    c-1.97,0-3.94,0-5.91,0c-0.24,0-0.49,0.01-0.73-0.04c-0.7-0.15-1.2-0.84-1.17-1.55c0.03-0.75,0.59-1.38,1.31-1.48    c0.05-0.01,0.09,0,0.14,0C19.22,15.38,20.31,15.38,21.4,15.38z"/>
  <path d="M12.31,29.22c0-0.85,0.69-1.53,1.54-1.53c0.84,0,1.53,0.69,1.53,1.53c0,0.85-0.69,1.54-1.55,1.54    C12.99,30.76,12.31,30.07,12.31,29.22z"/>
  <path d="M13.84,18.46c-0.82,0-1.52-0.68-1.54-1.49c-0.02-0.82,0.64-1.58,1.53-1.59c0.84-0.01,1.54,0.68,1.54,1.51    C15.39,17.76,14.71,18.45,13.84,18.46z"/>
  <path d="M12.31,23.07c0-0.84,0.69-1.53,1.53-1.53c0.84,0,1.54,0.69,1.54,1.54c0,0.85-0.7,1.54-1.54,1.54    C12.99,24.61,12.31,23.92,12.31,23.07z"/>
</svg>
