<svg xmlns="http://www.w3.org/2000/svg" version="1.1" x="0px" y="0px" viewBox="0 0 40 40" style="enable-background:new 0 0 40 40;">
  <path d="M38.82,23.66H25.38l3.91-3.91c0.46-0.46,0.46-1.2,0-1.66l-1.6-1.6c-0.46-0.46-1.2-0.46-1.66,0L16.51,26   c-0.46,0.46-0.46,1.2,0,1.66l9.51,9.51c0.46,0.46,1.2,0.46,1.66,0l1.6-1.6c0.46-0.46,0.46-1.2,0-1.66l-3.91-3.91h13.44   c0.65,0,1.18-0.53,1.18-1.18v-4C40,24.18,39.47,23.66,38.82,23.66z"/>
  <path d="M12.31,2.82l-1.6,1.6c-0.46,0.46-0.46,1.2,0,1.66l3.91,3.91H1.18C0.53,9.99,0,10.52,0,11.17v4c0,0.65,0.53,1.18,1.18,1.18   h13.44l-3.91,3.91c-0.46,0.46-0.46,1.2,0,1.66l1.6,1.6c0.46,0.46,1.2,0.46,1.66,0L23.49,14c0.46-0.46,0.46-1.2,0-1.66l-9.51-9.51   C13.51,2.36,12.77,2.36,12.31,2.82z"/>
</svg>
