<svg xmlns="http://www.w3.org/2000/svg" version="1.1" x="0px" y="0px" viewBox="0 0 40 40" style="enable-background:new 0 0 40 40;">
  <path d="M34.68,2.98H20.03h-1.56H5.32C2.39,2.98,0,5.36,0,8.3v0.84v0.89V31.7c0,2.93,2.39,5.32,5.32,5.32h13.15h1.56h14.65   c2.93,0,5.32-2.39,5.32-5.32V10.03V9.14V8.3C40,5.36,37.61,2.98,34.68,2.98z M38.84,9.14v0.89V31.7c0,2.29-1.87,4.16-4.16,4.16   H20.03h-1.56H5.32c-2.29,0-4.16-1.87-4.16-4.16V10.03V9.14V8.3c0-2.29,1.87-4.16,4.16-4.16h13.15h1.56h14.65   c2.29,0,4.16,1.87,4.16,4.16V9.14z"/>
  <path d="M6.9,18.6h18.42c1.68,0,1.84-0.36,0.37-0.8l-8.38-2.52c-0.67-0.2-1.75-0.2-2.42,0L6.53,17.8    C5.06,18.25,5.23,18.6,6.9,18.6z"/>
  <polygon points="12.53,29.45 12.06,31.18 20.16,31.18 19.7,29.45   "/>
  <path d="M5.28,29.93v0.85h6.16l0.4-1.35H5.78C5.5,29.43,5.28,29.65,5.28,29.93z"/>
  <path d="M26.45,29.43h-6.06l0.4,1.35h6.16v-0.85C26.95,29.65,26.73,29.43,26.45,29.43z"/>
  <path d="M9.88,29.04v-8.73h0.29c0.3,0,0.54-0.27,0.54-0.6c0-0.33-0.24-0.6-0.54-0.6H6.93c-0.3,0-0.54,0.27-0.54,0.6    c0,0.33,0.24,0.6,0.54,0.6h0.29v8.73H9.88z"/>
  <path d="M12.26,29.04h2.66v-8.73h0.29c0.3,0,0.54-0.27,0.54-0.6c0-0.33-0.24-0.6-0.54-0.6h-3.23c-0.3,0-0.54,0.27-0.54,0.6    c0,0.33,0.24,0.6,0.54,0.6h0.29V29.04z"/>
  <path d="M20.79,19.71c0-0.33-0.24-0.6-0.54-0.6h-3.23c-0.3,0-0.54,0.27-0.54,0.6c0,0.33,0.24,0.6,0.54,0.6h0.29v8.73h2.66v-8.73    h0.29C20.55,20.31,20.79,20.04,20.79,19.71z"/>
  <path d="M25.01,29.04v-8.73h0.29c0.3,0,0.54-0.27,0.54-0.6c0-0.33-0.24-0.6-0.54-0.6h-3.23c-0.3,0-0.54,0.27-0.54,0.6    c0,0.33,0.24,0.6,0.54,0.6h0.29v8.73H25.01z"/>
  <rect x="27.59" y="20.6" width="7.82" height="2.65"/>
  <polygon points="35.41,17.11 29.94,17.11 29.26,16.37 23.64,14.46 35.41,14.46  "/>
  <rect x="16.95" y="8.31" width="18.47" height="2.65"/>
</svg>
