<svg xmlns="http://www.w3.org/2000/svg" version="1.1" x="0px" y="0px" viewBox="0 0 40 40" style="enable-background:new 0 0 40 40;">
  <path d="M37.62,5.09c2.45,0,2.7-0.53,0.55-1.17L25.9,0.22c-0.98-0.29-2.56-0.29-3.54,0L10.1,3.92c-2.15,0.65-1.91,1.17,0.55,1.17   H37.62z"/>
  <path d="M39.27,20.94H30.4l0.58,1.97H40v-1.24C40,21.27,39.68,20.94,39.27,20.94z"/>
  <path d="M30.98,6.71c0-0.48-0.35-0.88-0.79-0.88h-4.74c-0.44,0-0.79,0.39-0.79,0.88c0,0.48,0.35,0.88,0.79,0.88h0.42v12.78h3.89   V7.59h0.42C30.63,7.59,30.98,7.2,30.98,6.71z"/>
  <path d="M37.16,20.37V7.59h0.42c0.44,0,0.79-0.39,0.79-0.88c0-0.48-0.35-0.88-0.79-0.88h-4.74c-0.44,0-0.79,0.39-0.79,0.88   c0,0.48,0.35,0.88,0.79,0.88h0.42v12.78H37.16z"/>
  <path d="M10.69,7.59h0.42v8.74c0.25-0.02,0.49-0.04,0.74-0.04c1.09,0,2.15,0.16,3.15,0.44V7.59h0.42c0.44,0,0.79-0.39,0.79-0.88   c0-0.48-0.35-0.88-0.79-0.88h-4.74c-0.44,0-0.79,0.39-0.79,0.88C9.9,7.2,10.25,7.59,10.69,7.59z"/>
  <path d="M18.07,7.59h0.42v10.74c0.85,0.58,1.61,1.27,2.28,2.04h1.61V7.59h0.42c0.43,0,0.79-0.39,0.79-0.88   c0-0.48-0.35-0.88-0.79-0.88h-4.74c-0.44,0-0.79,0.39-0.79,0.88C17.28,7.2,17.64,7.59,18.07,7.59z"/>
  <path d="M22.75,23.5h7.31l-0.69-2.53h-8.11C21.86,21.75,22.37,22.59,22.75,23.5z"/>
  <path d="M9.62,39.99c-0.36-0.07-0.72-0.15-1.08-0.19c-0.21-0.03-0.24-0.12-0.24-0.3c0.01-0.59,0-1.18,0.02-1.76   c0.01-0.2-0.05-0.3-0.25-0.37c-0.48-0.17-0.95-0.37-1.41-0.59c-0.18-0.09-0.29-0.06-0.42,0.08c-0.46,0.48-0.94,0.94-1.42,1.43   c-1.3-0.83-2.34-1.88-3.17-3.21c0.48-0.46,0.94-0.92,1.42-1.36c0.17-0.16,0.2-0.27,0.09-0.5c-0.25-0.52-0.45-1.05-0.69-1.62   c-0.71,0-1.47-0.01-2.25-0.01c-0.3-1.49-0.29-2.95,0.03-4.46c0.55,0,1.11,0.01,1.66,0.01c0.61,0,0.61,0,0.83-0.57   c0.14-0.36,0.3-0.72,0.48-1.07c0.1-0.19,0.07-0.3-0.08-0.45c-0.46-0.45-0.9-0.91-1.35-1.37c-0.01-0.01-0.02-0.04-0.04-0.08   c0.81-1.26,1.86-2.29,3.17-3.12c0.46,0.47,0.93,0.94,1.39,1.42c0.15,0.16,0.26,0.19,0.47,0.09c0.45-0.21,0.92-0.39,1.39-0.56   c0.18-0.06,0.26-0.14,0.26-0.34c-0.01-0.67,0-1.35,0.01-2.04c1.5-0.31,2.96-0.29,4.45,0.02c0,0.76-0.01,1.52-0.01,2.24   c0.62,0.27,1.2,0.54,1.79,0.78c0.07,0.03,0.22-0.04,0.29-0.11c0.48-0.47,0.96-0.94,1.44-1.43c1.3,0.83,2.33,1.88,3.15,3.19   c-0.48,0.47-0.94,0.93-1.42,1.39c-0.16,0.15-0.18,0.26-0.08,0.47c0.21,0.45,0.39,0.92,0.56,1.39c0.06,0.18,0.14,0.26,0.34,0.25   c0.59-0.01,1.18,0.01,1.76,0c0.22,0,0.31,0.06,0.33,0.28c0.04,0.35,0.11,0.7,0.17,1.05c0,0.59-0.01,1.18-0.01,1.76   c-0.08,0.45-0.16,0.91-0.24,1.37c-0.79,0-1.54-0.01-2.25-0.01c-0.24,0.56-0.45,1.09-0.7,1.61c-0.1,0.21-0.09,0.33,0.08,0.5   c0.48,0.46,0.94,0.93,1.4,1.39c-0.85,1.31-1.9,2.34-3.2,3.16c-0.48-0.49-0.95-0.97-1.43-1.45c-0.07-0.07-0.2-0.15-0.26-0.12   c-0.6,0.24-1.19,0.5-1.81,0.77c0,0.73-0.01,1.47-0.01,2.24c-0.47,0.08-0.91,0.15-1.36,0.22C10.79,40,10.21,39.99,9.62,39.99z    M13.36,29.42c0.01-1.54-1.22-2.79-2.75-2.81c-1.52-0.01-2.8,1.25-2.81,2.76c-0.01,1.53,1.22,2.78,2.77,2.79   C12.11,32.19,13.35,30.97,13.36,29.42z"/>
</svg>
