<svg xmlns="http://www.w3.org/2000/svg" version="1.1" x="0px" y="0px" viewBox="0 0 40 40" style="enable-background:new 0 0 40 40;">
  <path d="M36.98,9.88H3.02C1.35,9.88,0,8.53,0,6.86v0C0,5.2,1.35,3.85,3.02,3.85h33.96C38.65,3.85,40,5.2,40,6.86v0   C40,8.53,38.65,9.88,36.98,9.88z"/>
  <path d="M36.98,23.02H3.02C1.35,23.02,0,21.67,0,20v0c0-1.67,1.35-3.02,3.02-3.02h33.96c1.67,0,3.02,1.35,3.02,3.02v0   C40,21.67,38.65,23.02,36.98,23.02z"/>
  <path d="M36.98,36.15H3.02C1.35,36.15,0,34.8,0,33.14v0c0-1.67,1.35-3.02,3.02-3.02h33.96c1.67,0,3.02,1.35,3.02,3.02v0   C40,34.8,38.65,36.15,36.98,36.15z"/>
</svg>
