<svg xmlns="http://www.w3.org/2000/svg" version="1.1" x="0px" y="0px" viewBox="0 0 40 40" style="enable-background:new 0 0 40 40;">
  <circle cx="20" cy="4.9" r="1.9"/>
  <circle cx="27.6" cy="4.9" r="1.9"/>
  <circle cx="20" cy="12.4" r="1.9"/>
  <circle cx="27.6" cy="12.4" r="1.9"/>
  <circle cx="20" cy="20" r="1.9"/>
  <circle cx="27.6" cy="20" r="1.9"/>
  <circle cx="20" cy="27.6" r="1.9"/>
  <circle cx="27.6" cy="27.6" r="1.9"/>
  <circle cx="20" cy="35.1" r="1.9"/>
  <circle cx="20" cy="4.9" r="1.9"/>
  <circle cx="20" cy="12.4" r="1.9"/>
  <circle cx="20" cy="20" r="1.9"/>
  <circle cx="20" cy="27.6" r="1.9"/>
  <circle cx="20" cy="35.1" r="1.9"/>
  <circle cx="27.6" cy="35.1" r="1.9"/>
  <circle cx="12.4" cy="4.9" r="1.9"/>
  <circle cx="12.4" cy="12.4" r="1.9"/>
  <circle cx="12.4" cy="20" r="1.9"/>
  <circle cx="12.4" cy="27.6" r="1.9"/>
  <circle cx="12.4" cy="35.1" r="1.9"/>
  <circle cx="12.4" cy="4.9" r="1.9"/>
  <circle cx="12.4" cy="12.4" r="1.9"/>
  <circle cx="12.4" cy="20" r="1.9"/>
  <circle cx="12.4" cy="27.6" r="1.9"/>
  <circle cx="12.4" cy="35.1" r="1.9"/>
</svg>
