<svg xmlns="http://www.w3.org/2000/svg" version="1.1" x="0px" y="0px" viewBox="0 0 40 40" style="enable-background:new 0 0 40 40;">
  <path d="M40,20c0-1.96-1.5-3.56-3.42-3.75C35.15,9.89,30.1,4.85,23.75,3.41C23.56,1.5,21.96,0,20,0c-1.96,0-3.56,1.5-3.75,3.41  C9.9,4.85,4.85,9.89,3.42,16.25C1.5,16.44,0,18.04,0,20s1.5,3.56,3.42,3.75c1.44,6.35,6.48,11.4,12.83,12.83  C16.44,38.5,18.04,40,20,40c1.96,0,3.56-1.5,3.75-3.41c6.35-1.44,11.4-6.48,12.83-12.83C38.5,23.56,40,21.96,40,20z M23.57,5.02  c5.16,1.23,9.34,5.08,11.03,10.06c-2-1.25-4.18-2.38-6.64-3.18c-0.42-1.38-0.92-2.81-1.55-4.31c-0.17-0.41-0.65-0.6-1.05-0.43  c-0.41,0.17-0.6,0.64-0.43,1.05c0.46,1.09,0.84,2.14,1.18,3.16c-3.49-0.83-7.52-0.92-12.25,0.22c0.79-2.13,1.84-4.03,2.97-5.79  c0.67,1.06,1.85,1.77,3.19,1.77C21.66,7.58,23.05,6.5,23.57,5.02z M26.84,26.61c-5.31,1.44-9.68,1.24-13.4,0.19  c-1.44-5.31-1.24-9.68-0.19-13.4c5.31-1.44,9.68-1.24,13.4-0.19C28.1,18.52,27.89,22.89,26.84,26.61z M20,1.61  c1.2,0,2.18,0.98,2.18,2.18c0,1.2-0.98,2.18-2.18,2.18s-2.18-0.98-2.18-2.18C17.82,2.59,18.8,1.61,20,1.61z M15.17,5.38  c-1.27,2.02-2.42,4.23-3.23,6.73c-1.38,0.42-2.81,0.92-4.31,1.55c-0.41,0.17-0.6,0.64-0.43,1.05c0.17,0.41,0.65,0.6,1.05,0.43  c1.09-0.46,2.14-0.84,3.16-1.18c-0.83,3.49-0.92,7.52,0.22,12.26c-2.15-0.8-4.08-1.86-5.85-3.01c1.07-0.67,1.79-1.85,1.79-3.21  c0-1.66-1.07-3.05-2.56-3.57C6.26,11.24,10.15,7.04,15.17,5.38z M1.61,20c0-1.2,0.98-2.18,2.18-2.18c1.2,0,2.18,0.98,2.18,2.18  c0,1.2-0.98,2.18-2.18,2.18C2.59,22.18,1.61,21.2,1.61,20z M16.43,34.98c-5.18-1.23-9.38-5.12-11.05-10.12  c2.03,1.28,4.25,2.44,6.76,3.25c0.42,1.38,0.92,2.81,1.55,4.31c0.13,0.31,0.43,0.49,0.74,0.49c0.1,0,0.21-0.02,0.31-0.06  c0.41-0.17,0.6-0.64,0.43-1.05c-0.46-1.09-0.84-2.14-1.18-3.16c1.71,0.41,3.54,0.64,5.53,0.64c2.07,0,4.31-0.27,6.73-0.85  c-0.8,2.15-1.87,4.08-3.01,5.85c-0.66-1.11-1.86-1.86-3.24-1.86C18.34,32.42,16.95,33.5,16.43,34.98z M20,38.39  c-1.2,0-2.18-0.98-2.18-2.18c0-1.2,0.98-2.18,2.18-2.18s2.18,0.98,2.18,2.18C22.18,37.41,21.2,38.39,20,38.39z M24.96,34.58  c1.26-2,2.4-4.2,3.2-6.67c1.38-0.42,2.81-0.92,4.31-1.56c0.41-0.17,0.6-0.64,0.43-1.05c-0.17-0.41-0.65-0.6-1.05-0.43  c-1.09,0.46-2.14,0.84-3.16,1.18c0.83-3.49,0.92-7.52-0.22-12.25c2.13,0.79,4.04,1.84,5.8,2.97c-1.1,0.66-1.84,1.86-1.84,3.23  c0,1.66,1.07,3.05,2.56,3.57C33.76,28.71,29.91,32.89,24.96,34.58z M36.21,22.18c-1.2,0-2.18-0.98-2.18-2.18  c0-1.2,0.98-2.18,2.18-2.18c1.2,0,2.18,0.98,2.18,2.18C38.39,21.2,37.41,22.18,36.21,22.18z"/>
</svg>
