<svg xmlns="http://www.w3.org/2000/svg" version="1.1" x="0px" y="0px" viewBox="0 0 40 40" style="enable-background:new 0 0 40 40;">
  <path d="M34.68,6.98H20.03h-1.56H5.32C2.39,6.98,0,9.36,0,12.3v0.84v0.89V27.7c0,2.93,2.39,5.32,5.32,5.32h13.15h1.56h14.65   c2.93,0,5.32-2.39,5.32-5.32V14.03v-0.89V12.3C40,9.36,37.61,6.98,34.68,6.98z M38.84,13.14v0.89V27.7c0,2.29-1.87,4.16-4.16,4.16   H20.03h-1.56H5.32c-2.29,0-4.16-1.87-4.16-4.16V14.03v-0.89V12.3c0-2.29,1.87-4.16,4.16-4.16h13.15h1.56h14.65   c2.29,0,4.16,1.87,4.16,4.16V13.14z"/>
  <path d="M8.94,16.32l3.08,4.94h0.02v-4.94h1.52v7.37h-1.62l-3.07-4.93H8.85v4.93H7.33v-7.37H8.94z"/>
  <path d="M21.49,16.32v1.36H17.6v1.58h3.57v1.26H17.6v1.81h3.97v1.36h-5.59v-7.37H21.49z"/>
  <path d="M29.73,23.68l-1.25-5.02h-0.02l-1.23,5.02H25.6l-1.95-7.37h1.62l1.17,5.02h0.02l1.28-5.02h1.52l1.26,5.08h0.02l1.21-5.08    h1.59l-1.98,7.37H29.73z"/>
</svg>
