<svg xmlns="http://www.w3.org/2000/svg" version="1.1" x="0px" y="0px" viewBox="0 0 40 40" style="enable-background:new 0 0 40 40;">
  <path d="M8.61,16.32l3.08,4.94h0.02v-4.94h1.52v7.37h-1.62l-3.07-4.93H8.52v4.93H7v-7.37H8.61z"/>
  <path d="M21.16,16.32v1.36h-3.89v1.58h3.57v1.26h-3.57v1.81h3.97v1.36h-5.59v-7.37H21.16z"/>
  <path d="M29.4,23.68l-1.25-5.02h-0.02l-1.23,5.02h-1.64l-1.95-7.37h1.62l1.17,5.02h0.02l1.28-5.02h1.52l1.26,5.08h0.02l1.21-5.08    H33l-1.98,7.37H29.4z"/>
  <path d="M25.4,39.15c-0.96,0-1.95-0.5-2.92-0.98c-0.86-0.43-1.75-0.88-2.49-0.88c-0.73,0-1.62,0.45-2.49,0.88    c-1.23,0.62-2.49,1.25-3.7,0.86c-1.26-0.41-1.92-1.7-2.56-2.95c-0.43-0.83-0.87-1.69-1.42-2.09c-0.56-0.41-1.52-0.57-2.46-0.72    c-1.38-0.22-2.8-0.46-3.56-1.51c-0.76-1.04-0.54-2.46-0.34-3.83c0.14-0.94,0.29-1.91,0.07-2.59c-0.2-0.63-0.88-1.3-1.52-1.96    C1.03,22.38,0,21.35,0,20c0-1.35,1.03-2.38,2.03-3.39c0.65-0.65,1.32-1.33,1.53-1.96c0.22-0.67,0.07-1.65-0.07-2.59    C3.28,10.7,3.06,9.28,3.82,8.24c0.77-1.05,2.19-1.29,3.56-1.51c0.93-0.15,1.89-0.31,2.46-0.72c0.55-0.4,0.99-1.26,1.42-2.09    c0.64-1.25,1.3-2.54,2.56-2.95c1.2-0.39,2.47,0.25,3.7,0.86c0.86,0.43,1.75,0.88,2.49,0.88c0.73,0,1.62-0.45,2.49-0.88    c1.23-0.61,2.49-1.25,3.7-0.86c1.26,0.41,1.92,1.7,2.56,2.95c0.43,0.83,0.87,1.69,1.42,2.09c0.56,0.41,1.52,0.57,2.46,0.72    c1.38,0.22,2.8,0.46,3.56,1.51c0.76,1.04,0.54,2.46,0.34,3.83c-0.14,0.94-0.29,1.91-0.07,2.59c0.2,0.63,0.88,1.3,1.53,1.96    c1,1,2.03,2.04,2.03,3.39c0,1.35-1.03,2.38-2.03,3.39c-0.65,0.65-1.32,1.33-1.53,1.96c-0.22,0.67-0.07,1.65,0.07,2.59    c0.21,1.37,0.42,2.79-0.34,3.83c-0.77,1.05-2.19,1.29-3.56,1.51c-0.93,0.15-1.89,0.31-2.46,0.72c-0.55,0.4-0.99,1.26-1.42,2.09    c-0.64,1.25-1.3,2.54-2.56,2.95C25.92,39.11,25.66,39.15,25.4,39.15z M20,36.06c1.02,0,2.04,0.51,3.03,1.01    c1.05,0.53,2.04,1.03,2.77,0.79c0.78-0.25,1.32-1.31,1.85-2.34c0.49-0.96,1-1.95,1.79-2.52c0.8-0.58,1.91-0.76,2.98-0.94    c1.13-0.18,2.3-0.38,2.77-1.02c0.46-0.63,0.29-1.8,0.11-2.92c-0.16-1.08-0.33-2.2-0.03-3.15c0.29-0.91,1.07-1.69,1.82-2.44    c0.82-0.83,1.67-1.68,1.67-2.52c0-0.84-0.85-1.7-1.67-2.52c-0.75-0.75-1.53-1.53-1.82-2.44c-0.31-0.95-0.14-2.07,0.03-3.15    c0.17-1.12,0.35-2.29-0.11-2.92c-0.47-0.65-1.64-0.84-2.77-1.02C31.35,7.77,30.24,7.58,29.44,7c-0.79-0.57-1.3-1.56-1.79-2.52    c-0.53-1.03-1.07-2.09-1.85-2.34c-0.73-0.24-1.72,0.26-2.77,0.79c-0.99,0.5-2.01,1.01-3.03,1.01s-2.04-0.51-3.03-1.01    C15.91,2.4,14.92,1.9,14.2,2.14c-0.78,0.25-1.32,1.31-1.85,2.34c-0.49,0.96-1,1.95-1.79,2.52c-0.8,0.58-1.91,0.76-2.98,0.94    c-1.13,0.18-2.3,0.38-2.77,1.02c-0.46,0.63-0.28,1.8-0.11,2.92c0.16,1.08,0.33,2.2,0.03,3.15c-0.29,0.91-1.07,1.69-1.82,2.44    C2.08,18.3,1.22,19.16,1.22,20c0,0.84,0.85,1.7,1.67,2.52c0.75,0.75,1.53,1.53,1.82,2.44c0.31,0.95,0.14,2.07-0.03,3.15    c-0.17,1.12-0.35,2.29,0.11,2.92c0.47,0.65,1.64,0.84,2.77,1.02c1.07,0.18,2.18,0.36,2.98,0.94c0.79,0.57,1.3,1.56,1.79,2.52    c0.53,1.03,1.07,2.09,1.85,2.34c0.73,0.24,1.72-0.26,2.77-0.79C17.95,36.57,18.98,36.06,20,36.06z"/>
</svg>
