<svg xmlns="http://www.w3.org/2000/svg" version="1.1" x="0px" y="0px" viewBox="0 0 40 40" style="enable-background:new 0 0 40 40;">
  <path d="M35.3,12.06V8.02c0-0.37-0.3-0.66-0.66-0.66h-3.38c-0.37,0-0.66,0.3-0.66,0.66v4.04h-4.04c-0.37,0-0.66,0.3-0.66,0.66v3.38   c0,0.37,0.3,0.66,0.66,0.66h4.04v4.04c0,0.37,0.3,0.66,0.66,0.66h3.38c0.37,0,0.66-0.3,0.66-0.66v-4.04h4.04   c0.37,0,0.66-0.3,0.66-0.66v-3.38c0-0.37-0.3-0.66-0.66-0.66H35.3z"/>
  <path d="M26.48,30.76c0,1.51-0.46,2.69-1.37,3.56c-0.91,0.87-2.13,1.31-3.65,1.31H5.02c-1.52,0-2.73-0.44-3.65-1.31    C0.46,33.45,0,32.26,0,30.76c0-0.66,0.02-1.31,0.07-1.94s0.13-1.32,0.26-2.05c0.13-0.73,0.3-1.41,0.5-2.04    c0.2-0.63,0.47-1.24,0.81-1.83c0.34-0.6,0.73-1.1,1.17-1.52c0.44-0.42,0.97-0.75,1.61-1.01c0.63-0.25,1.33-0.38,2.1-0.38    c0.11,0,0.38,0.14,0.79,0.41c0.41,0.27,0.88,0.57,1.4,0.9c0.52,0.33,1.2,0.63,2.03,0.9c0.83,0.27,1.67,0.4,2.51,0.4    c0.84,0,1.68-0.13,2.51-0.4c0.83-0.27,1.51-0.57,2.03-0.9c0.52-0.33,0.99-0.63,1.4-0.9s0.68-0.41,0.79-0.41    c0.77,0,1.46,0.13,2.1,0.38c0.63,0.25,1.17,0.59,1.61,1.01c0.44,0.42,0.83,0.93,1.17,1.52c0.34,0.6,0.61,1.21,0.81,1.83    c0.2,0.63,0.37,1.31,0.5,2.04c0.13,0.73,0.22,1.42,0.26,2.05C26.45,29.45,26.48,30.09,26.48,30.76z M17.99,6.54    c1.31,1.45,1.97,3.19,1.97,5.23s-0.66,3.79-1.97,5.23c-1.31,1.44-2.9,2.17-4.76,2.17c-1.85,0-3.44-0.72-4.75-2.17    c-1.32-1.45-1.97-3.19-1.97-5.23s0.66-3.79,1.97-5.23c1.31-1.44,2.9-2.17,4.75-2.17C15.09,4.37,16.68,5.09,17.99,6.54z"/>
</svg>
