<svg xmlns="http://www.w3.org/2000/svg" width="40" height="40" viewBox="0 0 40 40">
  <path d="M31.1449 37.62H7.31488C6.80488 37.62 6.38488 37.2 6.38488 36.69V12.87L4.00488 10.49V36.69C4.00488 38.51 5.48488 39.99 7.30488 39.99H33.2049C33.3049 39.99 33.3949 39.97 33.4949 39.96C33.4549 39.93 33.4149 39.9 33.3749 39.86L31.1249 37.61L31.1449 37.62Z"/>
  <path d="M8.3052 2.38H20.4052V12.82C20.4052 14.64 21.8852 16.12 23.7052 16.12H34.1452V28.22L36.5252 30.6V13.74L22.7852 0.02V0H7.3152C6.8752 0 6.4552 0.09 6.0752 0.25C6.2552 0.38 6.4352 0.51 6.5952 0.68L8.3052 2.39V2.38ZM22.7852 3.38L33.1752 13.74H23.7152C23.2052 13.74 22.7852 13.33 22.7852 12.82V3.38Z"/>
  <path d="M9.71484 24.72H13.8948C14.1748 24.72 14.3948 24.49 14.3948 24.22V20.88L13.0548 19.54H9.71484C9.44484 19.54 9.21484 19.76 9.21484 20.04V24.22C9.21484 24.49 9.44484 24.72 9.71484 24.72ZM9.87484 21.77L10.2248 21.42C10.2248 21.42 10.3348 21.35 10.3948 21.35C10.4548 21.35 10.5248 21.37 10.5648 21.42L11.4448 22.3L13.0248 20.72C13.0248 20.72 13.1348 20.65 13.1948 20.65C13.2548 20.65 13.3148 20.67 13.3648 20.72L13.7148 21.07C13.7148 21.07 13.7848 21.18 13.7848 21.25C13.7848 21.32 13.7648 21.38 13.7148 21.42L11.6148 23.52C11.6148 23.52 11.5048 23.59 11.4348 23.59C11.3648 23.59 11.3048 23.57 11.2648 23.52L9.86484 22.12C9.86484 22.12 9.79484 22.02 9.79484 21.95C9.79484 21.88 9.81484 21.82 9.86484 21.77H9.87484Z"/>
  <path d="M9.21484 32.38C9.21484 32.65 9.44484 32.88 9.71484 32.88H13.8948C14.1748 32.88 14.3948 32.65 14.3948 32.38V28.2C14.3948 27.93 14.1748 27.7 13.8948 27.7H9.71484C9.44484 27.7 9.21484 27.93 9.21484 28.2V32.38ZM9.87484 29.93L10.2248 29.58C10.2248 29.58 10.3348 29.51 10.3948 29.51C10.4548 29.51 10.5248 29.53 10.5648 29.58L11.4448 30.4599L13.0248 28.8799C13.0248 28.8799 13.1348 28.8099 13.1948 28.8099C13.2548 28.8099 13.3148 28.8299 13.3648 28.8799L13.7148 29.2299C13.7148 29.2299 13.7848 29.34 13.7848 29.41C13.7848 29.48 13.7648 29.54 13.7148 29.58L11.6148 31.68C11.6148 31.68 11.5048 31.75 11.4348 31.75C11.3648 31.75 11.3048 31.73 11.2648 31.68L9.86484 30.28C9.86484 30.28 9.79484 30.18 9.79484 30.11C9.79484 30.04 9.81484 29.98 9.86484 29.93H9.87484Z"/>
  <path d="M18.2553 10.14V8.22998H14.1553L16.0653 10.14H18.2553Z"/>
  <path d="M30.295 22.84V20.92H26.855L28.765 22.84H30.295Z"/>
  <path d="M15.7549 31.24H24.7649L22.8449 29.33H15.7549V31.24Z"/>
  <path d="M38.045 35.22L36.525 33.7L34.145 31.32L25.665 22.84L23.745 20.92L12.965 10.14L11.045 8.21997L6.39504 3.56997L5.04504 2.21997C4.85504 2.02997 4.63504 1.88997 4.39504 1.77997C3.58504 1.40997 2.60504 1.54997 1.93504 2.21997C1.07504 3.07997 1.07504 4.46997 1.93504 5.31997L4.00504 7.38997L6.38504 9.76997L9.20504 12.59L10.995 14.38L17.535 20.92L19.455 22.84L25.945 29.33L27.865 31.25L33.915 37.3L34.945 38.33C35.175 38.56 35.445 38.72 35.725 38.83C35.975 38.92 36.235 38.97 36.495 38.97C37.055 38.97 37.615 38.76 38.045 38.33C38.905 37.47 38.905 36.08 38.045 35.23V35.22Z"/>
</svg>
