<svg xmlns="http://www.w3.org/2000/svg" version="1.1" x="0px" y="0px" viewBox="0 0 40 40" style="enable-background:new 0 0 40 40;">
  <path d="M33.7,32c0.6,0,1.3-0.1,1.8-0.6c0.5-0.6,0.6-1.4,0.2-2.2c-0.9-1.9-3.1-6.3-3.5-7c-0.1-0.2-0.2-0.5-0.2-0.8   c0-1.7,0-3.4,0-5.1c0-6.9-3.2-10.9-9.8-11.9c-0.3,0-0.3-0.1-0.3-0.4c0-0.8,0-1.6,0-2.3c-0.1-1-0.8-1.7-1.7-1.7l-0.6,0   c-0.9,0-1.6,0.8-1.7,1.7c-0.1,0.8,0,1.6,0,2.3c0,0.3-0.1,0.3-0.3,0.4c-6.6,1-9.8,5.1-9.8,11.9c0,1.7,0,3.4,0,5.1   c0,0.3,0,0.5-0.2,0.8c-0.4,0.7-2.6,5.1-3.5,7C3.9,30,4,30.8,4.5,31.4C4.9,31.9,5.6,32,6.3,32H33.7z"/>
  <path d="M13.8,35c0.7,2.8,3.2,5,6.2,5c3,0,5.6-2.1,6.2-5H13.8z"/>
</svg>
