<svg xmlns="http://www.w3.org/2000/svg" version="1.1" x="0px" y="0px" viewBox="0 0 40 40" style="enable-background:new 0 0 40 40;">
  <path d="M19.97,30.01c-5.5-0.01-10-4.51-10-10c0-0.53,0.05-1.05,0.13-1.56l-5.63-5.63c-0.2,0.21-0.41,0.41-0.61,0.63   c-1.33,1.44-2.5,2.99-3.4,4.75c-0.62,1.21-0.63,2.37-0.01,3.58c1.1,2.17,2.61,4.01,4.31,5.72c2.47,2.48,5.25,4.55,8.47,5.98   c1.71,0.76,3.48,1.3,5.35,1.47c0.07,0.01,0.14,0.05,0.22,0.07c0.78,0,1.56,0,2.35,0c0.65-0.11,1.3-0.2,1.95-0.34   c0.86-0.19,1.69-0.44,2.49-0.73l-4.06-4.06C21.02,29.96,20.5,30.01,19.97,30.01z"/>
  <path d="M31.25,9.15c-2.04-1.54-4.29-2.69-6.74-3.46c-3.72-1.16-7.34-0.85-10.9,0.67c-0.95,0.4-1.86,0.87-2.73,1.38L6.04,2.89   c-0.5-0.5-1.31-0.5-1.81,0L2.86,4.25c-0.5,0.5-0.5,1.31,0,1.81l31.06,31.06c0.5,0.5,1.31,0.5,1.81,0l1.36-1.36   c0.5-0.5,0.5-1.31,0-1.81l-4.28-4.28c2.25-1.81,4.21-3.92,5.82-6.38c0.56-0.87,0.92-1.87,1.38-2.81c0-0.31,0-0.63,0-0.94   C38.3,15.04,34.95,11.94,31.25,9.15z M24.74,21.59c0.19-0.58,0.29-1.2,0.26-1.88c-0.13-2.77-2.78-5.02-5.57-4.68   c-0.34,0.04-0.68,0.13-1,0.24l-3.75-3.75c1.54-0.97,3.36-1.54,5.31-1.54c5.52,0,10.02,4.52,10,10.03   c-0.01,1.93-0.58,3.74-1.54,5.27L24.74,21.59z"/>
</svg>
