<svg xmlns="http://www.w3.org/2000/svg" version="1.1" x="0px" y="0px" viewBox="0 0 40 40" style="enable-background:new 0 0 40 40;">
  <path d="M34.68,2.98H20.03h-1.56H5.32C2.39,2.98,0,5.36,0,8.3v0.84v0.89V31.7c0,2.93,2.39,5.32,5.32,5.32h13.15h1.56h14.65   c2.93,0,5.32-2.39,5.32-5.32V10.03V9.14V8.3C40,5.36,37.61,2.98,34.68,2.98z M38.84,9.14v0.89V31.7c0,2.29-1.87,4.16-4.16,4.16   H20.03h-1.56H5.32c-2.29,0-4.16-1.87-4.16-4.16V10.03V9.14V8.3c0-2.29,1.87-4.16,4.16-4.16h13.15h1.56h14.65   c2.29,0,4.16,1.87,4.16,4.16V9.14z"/>
  <path d="M12.07,26.25H9.43v-7.22l0.02-1.19l0.04-1.3c-0.44,0.44-0.74,0.73-0.91,0.86l-1.43,1.15l-1.27-1.59l4.02-3.2h2.17V26.25z"/>
  <path d="M24.26,26.25h-8.73v-1.84l3.13-3.17c0.93-0.95,1.53-1.61,1.82-1.98c0.28-0.37,0.49-0.71,0.61-1.02    c0.13-0.31,0.19-0.64,0.19-0.97c0-0.5-0.14-0.87-0.41-1.12c-0.28-0.24-0.64-0.37-1.11-0.37c-0.48,0-0.95,0.11-1.41,0.33    c-0.46,0.22-0.93,0.54-1.43,0.95l-1.43-1.7c0.61-0.52,1.12-0.89,1.53-1.11c0.41-0.22,0.85-0.38,1.32-0.5    c0.48-0.12,1.01-0.18,1.61-0.18c0.78,0,1.47,0.14,2.07,0.43c0.6,0.28,1.06,0.68,1.39,1.19c0.33,0.51,0.5,1.1,0.5,1.76    c0,0.58-0.1,1.12-0.3,1.62c-0.2,0.5-0.52,1.02-0.94,1.55c-0.42,0.53-1.17,1.28-2.24,2.26l-1.61,1.51v0.12h5.44V26.25z"/>
  <path d="M33.75,16.55c0,0.78-0.24,1.44-0.71,1.99c-0.47,0.55-1.14,0.92-1.99,1.13v0.05c1.01,0.13,1.77,0.43,2.29,0.92    c0.52,0.49,0.78,1.14,0.78,1.97c0,1.2-0.44,2.14-1.31,2.8c-0.87,0.67-2.12,1-3.73,1c-1.35,0-2.56-0.22-3.6-0.67V23.5    c0.48,0.24,1.02,0.44,1.6,0.6c0.58,0.15,1.16,0.23,1.72,0.23c0.87,0,1.51-0.15,1.93-0.44c0.42-0.3,0.62-0.77,0.62-1.43    c0-0.59-0.24-1-0.72-1.25s-1.24-0.37-2.29-0.37H27.4v-2.02h0.96c0.97,0,1.68-0.13,2.12-0.38c0.45-0.25,0.67-0.69,0.67-1.3    c0-0.94-0.59-1.42-1.78-1.42c-0.41,0-0.83,0.07-1.25,0.21c-0.42,0.14-0.9,0.37-1.41,0.71l-1.22-1.82c1.14-0.82,2.5-1.23,4.07-1.23    c1.29,0,2.31,0.26,3.06,0.79C33.38,14.89,33.75,15.62,33.75,16.55z"/>
</svg>
