<svg xmlns="http://www.w3.org/2000/svg" version="1.1" x="0px" y="0px" viewBox="0 0 40 40" style="enable-background:new 0 0 40 40;">
  <path d="M39.96,7.03c-1.91,3.29-2.94,4.95-4.86,8.25c1.39,4.2,1.69,4.76,3.11,9.03c-5.07,2.11-10.1,4.2-15.16,6.31   c-1.4-4.22-1.69-4.76-3.11-9.03c5.03-2.09,10.02-4.17,15.01-6.25c0-0.04,0.01-0.08,0.01-0.12c-4.98-2.07-9.96-4.15-15.01-6.25   c0.33-0.58,0.61-1.07,0.9-1.57c1.58-2.72,2.26-3.77,3.84-6.49c0.14-0.25,0.25-0.4,0.51-0.29c4.88,2.05,9.76,4.07,14.65,6.1   C39.95,6.78,40.06,6.86,39.96,7.03z"/>
  <path d="M0.04,7.09c1.75,3.02,2.73,4.75,4.49,7.75c0.2,0.34,0.21,0.57,0.08,0.97c-1.28,3.81-1.44,4.2-2.71,8.03   c-0.07,0.21-0.13,0.42-0.21,0.67c5.08,2.11,10.11,4.2,15.15,6.3c1.41-4.25,1.69-4.99,3.09-9.22c-5.04-2.1-10.03-4.17-15.02-6.25   c0-0.04,0.01-0.08,0.01-0.11c4.98-2.07,9.97-4.15,15-6.24c-0.11-0.2-0.17-0.3-0.22-0.4C17.92,5.51,17.11,4.09,15.34,1   c-0.22-0.39-0.41-0.48-0.74-0.34C10.65,2.32,4.24,4.98,0.29,6.63C0.29,6.63-0.13,6.8,0.04,7.09z"/>
  <path d="M21.92,33.1l-0.49-1.47c0,2.36,0,4.71,0.01,7.07c0,0.21,0.03,0.43,0.05,0.7c0.24-0.08,0.44-0.13,0.62-0.21   c4.46-1.99,8.91-4,13.37-5.98c0.45-0.2,0.63-0.46,0.62-0.95c-0.01-1.68,0-3.37,0-5.05L21.92,33.1z"/>
  <path d="M17.97,33.29L3.7,27.36c0,1.63,0,3.26-0.01,4.89c0,0.49,0.14,0.75,0.61,0.96c4.48,1.98,8.95,3.98,13.43,5.97   c0.19,0.09,0.4,0.14,0.64,0.22c0.02-0.3,0.05-0.53,0.05-0.77c0-2.24,0.01-4.48,0.01-6.72L17.97,33.29z"/>
</svg>
