<svg xmlns="http://www.w3.org/2000/svg" version="1.1" x="0px" y="0px" viewBox="0 0 40 40" style="enable-background:new 0 0 40 40;">
  <path d="M32.7,15.23v3.41H14.98c-1.33,0-2.73,0.34-4.19,1.01c-1.46,0.67-2.63,1.52-3.49,2.54l-7.17,8.43l-0.11,0.13   c0-0.06,0-0.15-0.01-0.27C0,30.36,0,30.28,0,30.22V9.78c0-1.31,0.47-2.43,1.41-3.36c0.93-0.94,2.06-1.4,3.36-1.4h6.81   c1.31,0,2.43,0.47,3.37,1.4c0.93,0.94,1.4,2.06,1.4,3.36v0.68h11.58c1.3,0,2.42,0.47,3.36,1.4C32.23,12.81,32.7,13.93,32.7,15.23z    M40,22.55c0,0.44-0.22,0.91-0.66,1.4l-7.15,8.43c-0.61,0.72-1.47,1.34-2.56,1.84c-1.1,0.5-2.12,0.76-3.05,0.76H3.41   c-0.48,0-0.91-0.09-1.29-0.28s-0.56-0.49-0.56-0.92c0-0.44,0.22-0.91,0.66-1.4l7.15-8.43c0.61-0.72,1.47-1.34,2.56-1.84   c1.1-0.5,2.12-0.76,3.05-0.76h23.16c0.48,0,0.91,0.09,1.29,0.28C39.81,21.82,40,22.13,40,22.55z"/>
</svg>
