<svg xmlns="http://www.w3.org/2000/svg" version="1.1" x="0px" y="0px" viewBox="0 0 40 40" style="enable-background:new 0 0 40 40;">
  <path d="M20.19,17.27L17.47,20c-0.7,0.7-0.7,1.83,0,2.53c0.7,0.7,1.83,0.7,2.53,0l2.72-2.72l9.69-9.69l0,5.18   c0,0.99,0.8,1.79,1.79,1.79c0.99,0,1.79-0.8,1.79-1.79V6.01C35.99,5.94,36,5.87,36,5.8c0-0.5-0.2-0.95-0.53-1.27   C35.15,4.2,34.7,4,34.2,4c-0.07,0-0.14,0.01-0.21,0.01l-9.28,0c-0.99,0-1.79,0.8-1.79,1.79c0,0.99,0.8,1.79,1.79,1.79l5.16,0   L20.19,17.27C20.19,17.27,20.19,17.27,20.19,17.27z"/>
  <path d="M32.64,21.68v10.28c0,0.38-0.31,0.68-0.68,0.68H8.04c-0.38,0-0.68-0.31-0.68-0.68V8.04c0-0.38,0.31-0.68,0.68-0.68h10.28   c-0.18-0.48-0.28-1.01-0.28-1.55c0-0.64,0.14-1.25,0.38-1.8H8.04C5.81,4,4,5.81,4,8.04v23.92C4,34.19,5.81,36,8.04,36h23.92   c2.23,0,4.04-1.81,4.04-4.04V21.58c-0.55,0.24-1.16,0.38-1.8,0.38C33.65,21.96,33.13,21.86,32.64,21.68z"/>
</svg>
