<svg xmlns="http://www.w3.org/2000/svg" version="1.1" x="0px" y="0px" viewBox="0 0 40 40" style="enable-background:new 0 0 40 40;">
  <path d="M32.69,4.82V34.6c0,1.25-1.02,2.27-2.27,2.27H9.58c-1.25,0-2.27-1.02-2.27-2.27V4.82c0-0.86-0.7-1.55-1.55-1.55h0   c-0.86,0-1.55,0.7-1.55,1.55v29.87C4.2,37.62,6.58,40,9.52,40h20.97c2.93,0,5.31-2.38,5.31-5.31V4.82c0-0.86-0.7-1.55-1.55-1.55h0   C33.39,3.26,32.69,3.96,32.69,4.82z"/>
  <path d="M24.11,3.26C23.68,1.39,22,0,20,0s-3.68,1.39-4.11,3.26h-2.84c-0.77,0-1.39,0.62-1.39,1.39v0.66   c0,0.78,0.63,1.41,1.41,1.41h13.88c0.78,0,1.41-0.63,1.41-1.41V4.59c0-0.73-0.6-1.33-1.33-1.33H24.11z"/>
  <path d="M24.84,17.07h-9.68c-0.71,0-1.29-0.58-1.29-1.29v0c0-0.71,0.58-1.29,1.29-1.29h9.68c0.71,0,1.29,0.58,1.29,1.29v0   C26.13,16.49,25.55,17.07,24.84,17.07z"/>
  <path d="M24.84,24.05h-9.68c-0.71,0-1.29-0.58-1.29-1.29v0c0-0.71,0.58-1.29,1.29-1.29h9.68c0.71,0,1.29,0.58,1.29,1.29v0   C26.13,23.47,25.55,24.05,24.84,24.05z"/>
  <path d="M24.84,31h-9.68c-0.71,0-1.29-0.58-1.29-1.29v0c0-0.71,0.58-1.29,1.29-1.29h9.68c0.71,0,1.29,0.58,1.29,1.29v0   C26.13,30.42,25.55,31,24.84,31z"/>
</svg>
