<svg xmlns="http://www.w3.org/2000/svg" version="1.1" x="0px" y="0px" viewBox="0 0 40 40" style="enable-background:new 0 0 40 40;">
  <path d="M32.11,11.32c-0.15,0.07-0.31,0.15-0.46,0.23c-8.19,4.31-16.38,8.61-24.57,12.93c-0.36,0.19-0.6,0.17-0.93-0.06   c-1.87-1.28-3.77-2.52-5.66-3.78c-0.27-0.18-0.61-0.38-0.47-0.73c0.09-0.23,0.37-0.47,0.62-0.56c12.77-4.66,25.54-9.3,38.31-13.94   c0.33-0.12,0.65-0.21,0.91,0.12c0.25,0.31,0.08,0.59-0.09,0.87c-5.8,9.28-11.6,18.55-17.4,27.83c-0.35,0.55-0.61,0.6-1.17,0.23   c-1.46-0.98-2.93-1.94-4.39-2.94c-0.27-0.18-0.44-0.19-0.71,0c-1.45,0.99-2.92,1.97-4.4,2.93c-0.22,0.14-0.62,0.25-0.81,0.15   c-0.19-0.1-0.32-0.49-0.32-0.76c-0.03-1.92,0-3.84-0.02-5.76c0-0.36,0.13-0.57,0.4-0.78c6.93-5.19,13.86-10.39,20.79-15.58   c0.14-0.1,0.28-0.21,0.41-0.31C32.16,11.37,32.14,11.35,32.11,11.32z"/>
</svg>
