<svg xmlns="http://www.w3.org/2000/svg" version="1.1" x="0px" y="0px" viewBox="0 0 40 40" style="enable-background:new 0 0 40 40;">
  <path d="M38.95,16.84H37.7c0-1.25,0-3.49,0-4.23c0-0.55-0.45-1.02-1.01-1.02c-2.77,0-5.97,0-9.21,0c0-0.73,0-2.56,0-3.36h1.22  c0.58,0,1.05-0.47,1.05-1.05V6.45V2.72V1.98c0-0.58-0.47-1.05-1.05-1.05h-4.47c-0.58,0-1.05,0.47-1.05,1.05v0.74v3.73v0.74  c0,0.58,0.47,1.05,1.05,1.05h1.22c0,0.85,0,2.71,0,3.36c-3.24,0-6.43,0-9.2,0c-0.55,0-1.02,0.45-1.02,1.01c0,0.74,0,3,0,4.25h-1.25  c-0.58,0-1.05,0.47-1.05,1.05v4.47c0,0.58,0.47,1.05,1.05,1.05h1.22c0,1,0,3.05,0,3.82c-5.15,0-6.16,0-11.89,0  c-0.55,0-1.02,0.45-1.02,1.01c0,0.74,0,3,0,4.25H1.05C0.47,32.48,0,32.95,0,33.53v4.47c0,0.58,0.47,1.05,1.05,1.05h4.47  c0.58,0,1.05-0.47,1.05-1.05v-4.47c0-0.58-0.47-1.05-1.05-1.05H4.32c0-0.9,0-2.74,0-3.23c5.4,0,5.51,0,10.84,0c0,0.66,0,2.44,0,3.23  h-1.08c-0.58,0-1.05,0.47-1.05,1.05v4.47c0,0.58,0.47,1.05,1.05,1.05h4.47c0.58,0,1.05-0.47,1.05-1.05v-4.47  c0-0.58-0.47-1.05-1.05-1.05h-1.25c0-0.78,0-2.55,0-3.2c5.33,0,5.43,0,10.83,0c0,0.48,0,2.33,0,3.23h-1.19  c-0.58,0-1.05,0.47-1.05,1.05v4.47c0,0.58,0.47,1.05,1.05,1.05h4.47c0.58,0,1.05-0.47,1.05-1.05v-4.47c0-0.58-0.47-1.05-1.05-1.05  h-1.25c0-1.25,0-3.49,0-4.23c0-0.55-0.45-1.02-1.01-1.02c-5.74,0-6.74,0-11.91,0c0-0.88,0-2.9,0-3.85h1.22  c0.58,0,1.05-0.47,1.05-1.05v-4.47c0-0.58-0.47-1.05-1.05-1.05h-1.19c0-0.9,0-2.74,0-3.23c5.44,0,12.97,0,18.41,0  c0,0.48,0,2.33,0,3.23h-1.19c-0.58,0-1.05,0.47-1.05,1.05v4.47c0,0.58,0.47,1.05,1.05,1.05h4.47c0.58,0,1.05-0.47,1.05-1.05v-4.47  C40,17.31,39.53,16.84,38.95,16.84z"/>
</svg>
