<svg xmlns="http://www.w3.org/2000/svg" version="1.1" x="0px" y="0px" viewBox="0 0 40 40" style="enable-background:new 0 0 40 40;">
  <path d="M5.65,25.06h12.44c1.13,0,1.24-0.24,0.25-0.54l-5.66-1.7c-0.45-0.14-1.18-0.14-1.63,0l-5.65,1.7    C4.41,24.82,4.52,25.06,5.65,25.06z"/>
  <polygon points="9.45,32.38 9.14,33.54 14.61,33.54 14.29,32.38   "/>
  <path d="M4.56,32.7v0.57h4.16l0.27-0.91H4.89C4.71,32.37,4.56,32.52,4.56,32.7z"/>
  <path d="M18.85,32.37h-4.09l0.27,0.91h4.16V32.7C19.19,32.52,19.04,32.37,18.85,32.37z"/>
  <path d="M7.66,32.1v-5.89h0.19c0.2,0,0.36-0.18,0.36-0.4c0-0.22-0.16-0.4-0.36-0.4H5.67c-0.2,0-0.36,0.18-0.36,0.4    c0,0.22,0.16,0.4,0.36,0.4h0.19v5.89H7.66z"/>
  <path d="M9.27,32.1h1.79v-5.89h0.19c0.2,0,0.36-0.18,0.36-0.4c0-0.22-0.16-0.4-0.36-0.4H9.08c-0.2,0-0.36,0.18-0.36,0.4    c0,0.22,0.16,0.4,0.36,0.4h0.19V32.1z"/>
  <path d="M15.03,25.81c0-0.22-0.16-0.4-0.36-0.4h-2.18c-0.2,0-0.36,0.18-0.36,0.4c0,0.22,0.16,0.4,0.36,0.4h0.19v5.89h1.79v-5.89    h0.19C14.87,26.21,15.03,26.03,15.03,25.81z"/>
  <path d="M17.88,32.1v-5.89h0.19c0.2,0,0.36-0.18,0.36-0.4c0-0.22-0.16-0.4-0.36-0.4h-2.18c-0.2,0-0.36,0.18-0.36,0.4    c0,0.22,0.16,0.4,0.36,0.4h0.19v5.89H17.88z"/>
  <path d="M11.87,16.25C5.31,16.25,0,21.57,0,28.13C0,34.69,5.31,40,11.87,40s11.87-5.32,11.87-11.87   C23.75,21.57,18.43,16.25,11.87,16.25z M11.87,38.61c-5.79,0-10.48-4.69-10.48-10.48c0-5.79,4.69-10.48,10.48-10.48   s10.48,4.69,10.48,10.48C22.36,33.92,17.66,38.61,11.87,38.61z"/>
  <path d="M40,10.26L29.74,0.01V0H18.18c-1.36,0-2.47,1.11-2.47,2.47V16.9c0.62,0.21,1.21,0.46,1.78,0.77V2.47   c0-0.38,0.31-0.69,0.69-0.69h9.77v7.8c0,1.36,1.11,2.47,2.47,2.47h7.8v15.37c0,0.38-0.31,0.69-0.69,0.69H23.74   c0,0.01,0,0.02,0,0.03c0,0.6-0.06,1.18-0.14,1.75h13.93c1.36,0,2.47-1.11,2.47-2.47L40,10.26L40,10.26L40,10.26z M30.43,10.26   c-0.38,0-0.69-0.31-0.69-0.69V2.52l7.76,7.74H30.43z"/>
</svg>
