<svg xmlns="http://www.w3.org/2000/svg" version="1.1" x="0px" y="0px" viewBox="0 0 40 40" style="enable-background:new 0 0 40 40;">
  <path d="M37.14,2.81c0,12.4,0,24.79,0,37.19c-0.83,0-1.67,0-2.5,0c0-0.1-0.01-0.21-0.01-0.31c0-10.12,0-20.24,0-30.36    c0-1.93,0-3.85,0-5.78c0-0.81-0.25-1.06-1.04-1.06c-5,0-10,0-15,0c-0.77,0-0.95,0.18-0.95,0.94c0,2.59,0,5.17,0,7.76    c0,0.19,0,0.37,0,0.6c0.27,0,0.47,0,0.67,0c3.32,0,6.63,0.03,9.95-0.01c1.95-0.02,3.34,1.45,3.34,3.33c-0.01,8.09,0,16.18,0,24.27    c0,0.21,0.01,0.42,0.01,0.62c-9.58,0-19.17,0-28.75,0c0-4.82-0.01-9.65-0.01-14.47c0-3.56,0.04-7.12,0-10.67    c-0.02-1.66,1.54-3.12,3.26-3.08c2.78,0.05,5.55,0.01,8.33,0.01c0.2,0,0.4,0,0.63,0c0-0.25,0-0.42,0-0.6    c0-2.53-0.01-5.07,0.01-7.6c0.01-1.06,0.21-2.09,1.12-2.76c0.49-0.36,1.1-0.56,1.66-0.83c5.52,0,11.04,0,16.56,0    c0.05,0.04,0.09,0.1,0.14,0.11c1.24,0.26,2.01,1.03,2.41,2.2C37.03,2.48,37.09,2.65,37.14,2.81z M29.09,37.4    c0.02-0.11,0.04-0.16,0.04-0.21c0-7.36,0-14.72,0-22.08c0-0.56-0.33-0.85-0.93-0.85c-7.33,0-14.65,0-21.98,0    c-0.67,0-0.87,0.2-0.87,0.85c0,7.26,0,14.51,0,21.77c0,0.17,0.02,0.34,0.02,0.51c3.31,0,6.58,0,9.92,0c0-2.23,0-4.42,0-6.6    c1.26,0,2.45,0,3.71,0c0,2.22,0,4.41,0,6.62C22.41,37.4,25.73,37.4,29.09,37.4z"/>
  <path d="M27.6,5.45c0,1.28,0,2.52,0,3.77c1.27,0,2.51,0,3.76,0c0-1.27,0-2.51,0-3.77C30.11,5.45,28.88,5.45,27.6,5.45z M24.5,5.47    c-1.26,0-2.47,0-3.67,0c0,1.28,0,2.52,0,3.75c1.24,0,2.45,0,3.67,0C24.5,7.95,24.5,6.73,24.5,5.47z"/>
  <path d="M27.6,5.45c1.27,0,2.5,0,3.76,0c0,1.26,0,2.5,0,3.77c-1.25,0-2.49,0-3.76,0C27.6,7.98,27.6,6.74,27.6,5.45z"/>
  <path d="M24.5,5.47c0,1.26,0,2.49,0,3.75c-1.22,0-2.42,0-3.67,0c0-1.23,0-2.47,0-3.75C22.04,5.47,23.24,5.47,24.5,5.47z"/>
  <path d="M8.45,17.33c1.27,0,2.49,0,3.74,0c0,1.26,0,2.5,0,3.77c-1.25,0-2.47,0-3.74,0C8.45,19.86,8.45,18.61,8.45,17.33z"/>
  <path d="M25.85,17.35c0,1.24,0,2.47,0,3.74c-1.23,0-2.47,0-3.76,0c0-1.21,0-2.45,0-3.74C23.31,17.35,24.55,17.35,25.85,17.35z"/>
  <path d="M22.07,34.54c0-1.27,0-2.48,0-3.73c1.27,0,2.52,0,3.78,0c0,1.25,0,2.48,0,3.73C24.59,34.54,23.35,34.54,22.07,34.54z"/>
  <path d="M8.45,30.78c1.17,0,2.34-0.01,3.51,0.01c0.09,0,0.24,0.16,0.24,0.25c0.02,1.16,0.01,2.31,0.01,3.5c-1.27,0-2.5,0-3.77,0    C8.45,33.32,8.45,32.08,8.45,30.78z"/>
  <path d="M15.31,21.1c0-1.27,0-2.51,0-3.77c1.23,0,2.44,0,3.67,0c0,1.27,0,2.51,0,3.77C17.74,21.1,16.54,21.1,15.31,21.1z"/>
  <path d="M12.19,24.11c0,1.23,0,2.43,0,3.66c-1.25,0-2.48,0-3.74,0c0-1.21,0-2.42,0-3.66C9.69,24.11,10.93,24.11,12.19,24.11z"/>
  <path d="M25.85,27.77c-1.27,0-2.51,0-3.77,0c0-1.23,0-2.44,0-3.67c1.27,0,2.51,0,3.77,0C25.85,25.33,25.85,26.54,25.85,27.77z"/>
  <path d="M18.96,27.78c-1.22,0-2.41,0-3.64,0c0-1.21,0-2.41,0-3.66c1.19,0,2.4,0,3.64,0C18.96,25.31,18.96,26.51,18.96,27.78z"/>
</svg>
