<svg xmlns="http://www.w3.org/2000/svg" version="1.1" x="0px" y="0px" viewBox="0 0 40 40" style="enable-background:new 0 0 40 40;">
  <path d="M0.06,13.1c-0.02,0.34-0.05,0.61-0.05,0.88c0,5.16,0.01,10.32-0.02,15.47c0,0.61,0.18,0.93,0.75,1.18    C6.28,33.07,11.8,35.55,17.32,38c0.24,0.11,0.49,0.17,0.79,0.28c0.03-0.37,0.06-0.66,0.06-0.95c0-5.18-0.01-10.35,0.01-15.53    c0-0.61-0.19-0.93-0.76-1.18c-5.53-2.4-11.05-4.83-16.57-7.25C0.63,13.27,0.37,13.2,0.06,13.1z M39.92,13.09    c-0.31,0.11-0.54,0.17-0.75,0.26c-5.53,2.44-11.06,4.89-16.6,7.32c-0.49,0.22-0.68,0.5-0.68,1.05c0.02,5.23,0.01,10.47,0.01,15.7    c0,0.26,0.03,0.53,0.06,0.87c0.3-0.1,0.54-0.16,0.76-0.26c5.5-2.46,11-4.94,16.51-7.38c0.56-0.25,0.77-0.56,0.77-1.18    c-0.02-5.14-0.01-10.28-0.01-15.41C39.99,13.76,39.95,13.48,39.92,13.09z M1.84,9.58c0.33,0.18,0.55,0.32,0.79,0.42    c5.42,2.36,10.85,4.71,16.27,7.07c0.44,0.19,0.82,0.21,1.27,0.03c5.73-2.37,11.48-4.72,17.22-7.08c0.26-0.11,0.51-0.25,0.88-0.44    c-0.4-0.21-0.68-0.37-0.97-0.5c-5.47-2.4-10.94-4.8-16.4-7.21c-0.49-0.21-0.9-0.21-1.38,0C13.91,4.31,8.3,6.72,2.69,9.14    C2.43,9.25,2.19,9.4,1.84,9.58z"/>
</svg>
