<svg xmlns="http://www.w3.org/2000/svg" version="1.1" x="0px" y="0px" viewBox="0 0 40 40" style="enable-background:new 0 0 40 40;">
  <path d="M36.55,3.78H16.73h-5.33H3.45C1.55,3.78,0,5.32,0,7.22v25.55c0,1.9,1.55,3.45,3.45,3.45h7.96h5.33h19.82   c1.9,0,3.45-1.55,3.45-3.45V7.22C40,5.32,38.45,3.78,36.55,3.78z M37.52,32.77c0,0.53-0.43,0.97-0.97,0.97H16.73h-5.33H3.45   c-0.53,0-0.97-0.43-0.97-0.97V7.22c0-0.53,0.43-0.97,0.97-0.97h7.96h5.33h19.82c0.53,0,0.97,0.43,0.97,0.97V32.77z"/>
  <path d="M35.4,10.56c-0.41-0.6-1.22-0.76-1.83-0.35l-13.21,8.92L7.16,10.21c-0.6-0.41-1.42-0.25-1.83,0.35   c-0.41,0.6-0.25,1.42,0.35,1.83l13.77,9.3c0.28,0.19,0.6,0.25,0.91,0.21c0.31,0.04,0.63-0.02,0.91-0.21l13.77-9.3   C35.65,11.98,35.81,11.16,35.4,10.56z"/>
</svg>
