<svg xmlns="http://www.w3.org/2000/svg" version="1.1" x="0px" y="0px" viewBox="0 0 40 40" style="enable-background:new 0 0 40 40;">
  <path d="M16.3,23.95c0,0,0.01,0,0.01,0c-0.56-1.58-2.06-2.72-4.04-2.72c-2.02,0-3.46,1.17-4.02,2.72c0.01,0,0.01,0,0.02,0    c-0.04,0.08-0.06,0.18-0.06,0.27c0,0.37,0.3,0.66,0.66,0.66c0.22,0,0.41-0.11,0.53-0.28c0,0,0.01,0.01,0.01,0.01    c0.72-0.63,1.69-1.04,2.86-1.04c1.16,0,2.14,0.4,2.88,1.04c0-0.01,0.01-0.01,0.01-0.02c0.12,0.17,0.31,0.29,0.53,0.29    c0.37,0,0.66-0.3,0.66-0.66C16.37,24.13,16.34,24.04,16.3,23.95z"/>
  <path d="M30.92,23.95c0,0,0.01,0,0.01,0c-0.56-1.58-2.06-2.72-4.04-2.72c-2.02,0-3.46,1.17-4.02,2.72c0.01,0,0.01,0,0.02,0    c-0.04,0.08-0.06,0.18-0.06,0.27c0,0.37,0.3,0.66,0.66,0.66c0.22,0,0.41-0.11,0.53-0.28c0,0,0.01,0.01,0.01,0.01    c0.72-0.63,1.69-1.04,2.86-1.04c1.16,0,2.14,0.4,2.88,1.04c0-0.01,0.01-0.01,0.01-0.02c0.12,0.17,0.31,0.29,0.53,0.29    c0.37,0,0.66-0.3,0.66-0.66C30.99,24.13,30.96,24.04,30.92,23.95z"/>
  <path d="M36.91,2.93c-0.1,0-0.19-0.01-0.29-0.03c-0.09-0.02-0.19-0.05-0.27-0.08c-0.09-0.04-0.17-0.08-0.25-0.13    c-0.08-0.05-0.16-0.12-0.22-0.18c-0.27-0.27-0.43-0.65-0.43-1.04c0-0.38,0.16-0.76,0.43-1.03c0.07-0.07,0.14-0.13,0.22-0.18    c0.08-0.05,0.16-0.1,0.25-0.13c0.09-0.04,0.18-0.06,0.27-0.08c0.48-0.1,0.98,0.06,1.32,0.4c0.27,0.27,0.43,0.65,0.43,1.03    c0,0.39-0.16,0.77-0.43,1.04C37.68,2.78,37.3,2.93,36.91,2.93z"/>
  <path d="M36.84,20.84c-0.41,0-0.74,0.33-0.74,0.74v2.29v0.5v12.7c0,0.79-0.65,1.44-1.44,1.44H4.55c-0.79,0-1.44-0.65-1.44-1.44   V12.71c0-0.79,0.65-1.44,1.44-1.44h28.17c0.41,0,0.74-0.33,0.74-0.74c0-0.41-0.33-0.74-0.74-0.74H4.55c-1.61,0-2.93,1.31-2.93,2.93   v24.36c0,1.61,1.31,2.93,2.93,2.93h30.11c1.61,0,2.93-1.31,2.93-2.93v-12.7v-0.5v-2.29C37.59,21.17,37.25,20.84,36.84,20.84z"/>
  <path d="M36.82,18.36c-0.41,0-0.74-0.33-0.74-0.74V5.74c0-0.41,0.33-0.74,0.74-0.74s0.74,0.33,0.74,0.74v11.87    C37.57,18.02,37.23,18.36,36.82,18.36z"/>
</svg>
