<svg xmlns="http://www.w3.org/2000/svg" version="1.1" x="0px" y="0px" viewBox="0 0 40 40" style="enable-background:new 0 0 40 40;">
  <polygon points="36.67,33.33 3.33,33.33 3.33,6.67 26.67,6.67 26.67,3.33 0,3.33 0,36.67 40,36.67 40,16.67 36.67,16.67  "/>
  <rect x="36.67" y="10" width="3.33" height="3.33"/>
  <rect x="30" y="3.33" width="3.33" height="3.33"/>
  <rect x="36.67" y="3.33" width="3.33" height="3.33"/>
  <path d="M12.49,17c-3.21,0-5.82,2.61-5.82,5.82c0,3.21,2.61,5.82,5.82,5.82c3.21,0,5.82-2.61,5.82-5.82    C18.31,19.6,15.7,17,12.49,17z M14.83,22.98c0,1.11-0.73,1.96-1.74,1.96c-0.43,0-1.15-0.18-1.15-0.52v2.55    c0,0.2-0.24,0.31-0.41,0.31h-0.4c-0.17,0-0.42-0.11-0.42-0.31v-7.55c0-0.2,0.24-0.38,0.42-0.38h0.43c0.17,0,0.39,0.18,0.39,0.38    v0.07c0-0.24,0.6-0.48,1.09-0.48c1.09,0,1.79,0.68,1.79,2.02V22.98z"/>
  <path d="M12.8,19.98c-0.68,0-0.85,0.51-0.85,0.97v2.09c0,0.54,0.31,0.94,0.9,0.94c0.48,0,0.75-0.29,0.75-0.94v-2.09    C13.59,20.38,13.42,19.98,12.8,19.98z"/>
</svg>
