<svg xmlns="http://www.w3.org/2000/svg" version="1.1" x="0px" y="0px" viewBox="0 0 40 40" style="enable-background:new 0 0 40 40;">
  <path d="M35.62,8.48c0.42,0.42,0.77,0.98,1.07,1.7c0.3,0.72,0.45,1.37,0.45,1.97v25.71c0,0.6-0.21,1.1-0.62,1.52   C36.1,39.79,35.59,40,35,40H5c-0.6,0-1.1-0.21-1.52-0.62s-0.62-0.92-0.62-1.52V2.15c0-0.6,0.21-1.1,0.62-1.52C3.9,0.21,4.4,0,5,0   h20c0.6,0,1.25,0.15,1.97,0.45c0.71,0.3,1.28,0.65,1.7,1.07L35.62,8.48z M34.29,37.15V14.29H25c-0.6,0-1.1-0.21-1.52-0.62   s-0.62-0.92-0.62-1.52V2.86H5.71v34.29H34.29z M22.81,23.91c0.49,0.39,1.12,0.8,1.88,1.25c0.88-0.1,1.75-0.16,2.61-0.16   c2.19,0,3.5,0.37,3.95,1.09c0.24,0.33,0.25,0.72,0.05,1.16c0,0.02-0.01,0.03-0.02,0.05c-0.01,0.01-0.03,0.03-0.05,0.04v0.02   c-0.09,0.57-0.62,0.85-1.58,0.85c-0.72,0-1.57-0.15-2.57-0.45c-1-0.3-1.96-0.69-2.9-1.18c-3.29,0.36-6.21,0.98-8.75,1.85   c-2.28,3.9-4.08,5.85-5.4,5.85c-0.22,0-0.43-0.05-0.62-0.16l-0.53-0.27c-0.02-0.02-0.06-0.05-0.14-0.11   c-0.15-0.15-0.19-0.41-0.13-0.8c0.13-0.6,0.55-1.28,1.25-2.04c0.7-0.76,1.68-1.48,2.95-2.15c0.21-0.13,0.38-0.09,0.51,0.14   c0.03,0.03,0.05,0.06,0.05,0.09c0.77-1.26,1.57-2.73,2.39-4.4c1.01-2.02,1.78-3.97,2.32-5.85c-0.36-1.22-0.59-2.41-0.68-3.56   c-0.1-1.15-0.05-2.1,0.14-2.85c0.16-0.6,0.48-0.9,0.94-0.9h0.47h0.02c0.34,0,0.6,0.11,0.78,0.34c0.27,0.31,0.34,0.82,0.2,1.52   c-0.03,0.09-0.06,0.15-0.09,0.18c0.02,0.05,0.02,0.1,0.02,0.18v0.67c-0.03,1.83-0.13,3.26-0.31,4.28   C20.37,21.04,21.46,22.81,22.81,23.91z M9.96,33.08c0.77-0.36,1.79-1.53,3.06-3.53c-0.76,0.6-1.41,1.22-1.95,1.88   C10.52,32.09,10.15,32.64,9.96,33.08z M16.07,27.3c2.01-0.8,4.12-1.41,6.34-1.81c-0.03-0.01-0.13-0.08-0.29-0.21   c-0.17-0.13-0.28-0.22-0.36-0.3c-1.13-1-2.08-2.31-2.84-3.93c-0.4,1.28-1.02,2.74-1.85,4.4C16.63,26.28,16.29,26.9,16.07,27.3z    M18.84,12.55c-0.22,0.62-0.24,1.61-0.05,2.95c0.01-0.1,0.07-0.43,0.16-0.98c0-0.05,0.05-0.36,0.16-0.96   c0.01-0.06,0.05-0.12,0.09-0.18c-0.01-0.02-0.02-0.03-0.02-0.05c0-0.01-0.01-0.03-0.01-0.03c-0.01-0.01-0.01-0.02-0.01-0.03   c-0.02-0.33-0.11-0.6-0.29-0.8c0,0.01-0.01,0.03-0.02,0.04V12.55z M25.71,3.04v8.39h8.39c-0.15-0.43-0.31-0.74-0.49-0.91   l-6.99-6.99C26.45,3.35,26.14,3.19,25.71,3.04z M30.49,26.94c-0.36-0.36-1.4-0.54-3.12-0.54c1.13,0.42,2.05,0.62,2.77,0.62   c0.21,0,0.35-0.01,0.4-0.02C30.54,27,30.52,26.97,30.49,26.94z"/>
</svg>
