<svg xmlns="http://www.w3.org/2000/svg" version="1.1" x="0px" y="0px" viewBox="0 0 40 40" style="enable-background:new 0 0 40 40;">
  <path d="M12.57,11.97c-4.48-2-9.76-0.03-11.78,4.4c-2.02,4.43-0.03,9.64,4.46,11.64c4.48,2,9.76,0.03,11.78-4.4    C19.05,19.18,17.06,13.97,12.57,11.97z M12.75,21.71c-0.96,2.1-3.45,3.03-5.57,2.08c-2.12-0.95-3.06-3.41-2.11-5.51    c0.96-2.1,3.45-3.03,5.57-2.08C12.76,17.15,13.71,19.61,12.75,21.71z M34.52,14.58c-3.02,0-5.48,2.43-5.48,5.42    s2.46,5.42,5.48,5.42c3.02,0,5.48-2.43,5.48-5.42S37.54,14.58,34.52,14.58z M31.16,11.85c0.95,0,1.9-0.25,2.73-0.73    c2.62-1.49,3.52-4.81,2.01-7.4c-0.98-1.67-2.8-2.71-4.75-2.71c-0.96,0-1.9,0.25-2.74,0.73c-1.27,0.72-2.18,1.89-2.56,3.29    c-0.38,1.4-0.19,2.86,0.55,4.11C27.38,10.81,29.2,11.85,31.16,11.85z M33.9,28.88c-0.83-0.48-1.78-0.73-2.73-0.73    c-1.96,0-3.78,1.04-4.76,2.71c-0.73,1.25-0.93,2.71-0.55,4.11c0.38,1.4,1.29,2.57,2.56,3.29c0.83,0.48,1.78,0.73,2.74,0.73    c1.96,0,3.78-1.04,4.75-2.71C37.41,33.69,36.52,30.37,33.9,28.88z M25.71,11.62c-0.46-0.48-0.88-1.01-1.22-1.59    c-0.35-0.59-0.59-1.21-0.79-1.84l-7.12,4.06c0.96,0.93,1.73,2.03,2.3,3.27L25.71,11.62z M19.71,18.01    c0.25,1.32,0.23,2.65-0.02,3.97h7.49c-0.15-0.64-0.25-1.3-0.25-1.98c0-0.69,0.1-1.34,0.25-1.98H19.71z M18.92,24.49    c-0.57,1.24-1.38,2.33-2.34,3.25l7.13,4.06c0.2-0.63,0.44-1.25,0.79-1.84c0.34-0.59,0.76-1.11,1.22-1.6L18.92,24.49z"/>
</svg>
