<svg xmlns="http://www.w3.org/2000/svg" version="1.1" x="0px" y="0px" viewBox="0 0 40 40" style="enable-background:new 0 0 40 40;">
  <path d="M28.02,2.98H11.98c-1.03,0-1.87,0.84-1.87,1.87v30.29c0,1.03,0.84,1.87,1.87,1.87h16.04c1.03,0,1.87-0.84,1.87-1.87V4.86   C29.9,3.82,29.06,2.98,28.02,2.98z M15.87,4.4h8.26c0.14,0,0.25,0.14,0.25,0.32c0,0.17-0.11,0.32-0.25,0.32h-8.26   c-0.14,0-0.25-0.14-0.25-0.32C15.62,4.54,15.73,4.4,15.87,4.4z M20,36.22c-0.94,0-1.7-0.76-1.7-1.7s0.76-1.7,1.7-1.7   c0.94,0,1.7,0.76,1.7,1.7S20.94,36.22,20,36.22z M28.42,30.85c0,0.61-0.49,1.1-1.1,1.1H12.68c-0.61,0-1.1-0.49-1.1-1.1V6.84   c0-0.61,0.49-1.1,1.1-1.1h14.63c0.61,0,1.1,0.49,1.1,1.1V30.85z"/>
  <path d="M1.98,26.46c-0.41-0.82-0.91-1.61-1.22-2.47c-1.5-4.24-0.79-8.1,2.12-11.55c0.14-0.17,0.3-0.33,0.48-0.46     c0.38-0.3,0.79-0.3,1.17,0c0.4,0.32,0.48,0.81,0.22,1.24c-0.12,0.2-0.28,0.39-0.44,0.57c-3.1,3.46-3.14,8.79-0.07,12.27     c0.16,0.18,0.32,0.36,0.47,0.54c0.37,0.45,0.39,0.94,0.07,1.31c-0.35,0.4-0.82,0.45-1.34,0.13c-0.08-0.05-0.16-0.09-0.24-0.13     C2.79,27.42,2.39,26.94,1.98,26.46z"/>
  <path d="M5.72,24.74c-2.44-3.07-2.29-7.16,0.29-10c0.43-0.47,1-0.55,1.43-0.19c0.43,0.36,0.49,0.92,0.07,1.43     c-0.61,0.75-1.15,1.53-1.39,2.49c-0.44,1.8-0.11,3.44,1.02,4.91c0.17,0.22,0.36,0.42,0.52,0.65c0.3,0.44,0.26,0.92-0.1,1.25     c-0.37,0.34-0.92,0.36-1.31,0.01C6.02,25.1,5.84,24.87,5.72,24.74z"/>
  <path d="M38.02,26.46c0.41-0.82,0.91-1.61,1.22-2.47c1.5-4.24,0.79-8.1-2.12-11.55c-0.14-0.17-0.3-0.33-0.48-0.46     c-0.38-0.3-0.79-0.3-1.17,0c-0.4,0.32-0.48,0.81-0.22,1.24c0.12,0.2,0.28,0.39,0.44,0.57c3.1,3.46,3.14,8.79,0.07,12.27     c-0.16,0.18-0.32,0.36-0.47,0.54c-0.37,0.45-0.39,0.94-0.07,1.31c0.35,0.4,0.82,0.45,1.34,0.13c0.08-0.05,0.16-0.09,0.24-0.13     C37.21,27.42,37.61,26.94,38.02,26.46z"/>
  <path d="M34.28,24.74c2.44-3.07,2.29-7.16-0.29-10c-0.43-0.47-1-0.55-1.43-0.19c-0.43,0.36-0.49,0.92-0.07,1.43     c0.61,0.75,1.15,1.53,1.39,2.49c0.44,1.8,0.11,3.44-1.02,4.91c-0.17,0.22-0.36,0.42-0.52,0.65c-0.3,0.44-0.26,0.92,0.1,1.25     c0.37,0.34,0.92,0.36,1.31,0.01C33.98,25.1,34.16,24.87,34.28,24.74z"/>
</svg>
