<svg xmlns="http://www.w3.org/2000/svg" version="1.1" x="0px" y="0px" viewBox="0 0 40 40" style="enable-background:new 0 0 40 40;">
  <path d="M29.43,0H10.57c-1.22,0-2.2,0.99-2.2,2.2v35.6c0,1.22,0.99,2.2,2.2,2.2h18.86c1.22,0,2.2-0.99,2.2-2.2V2.2  C31.63,0.99,30.64,0,29.43,0z M15.15,1.67h9.7c0.17,0,0.3,0.17,0.3,0.37c0,0.21-0.13,0.37-0.3,0.37h-9.7c-0.17,0-0.3-0.17-0.3-0.37  C14.85,1.83,14.98,1.67,15.15,1.67z M20,39.06c-1.1,0-2-0.89-2-2s0.89-2,2-2s2,0.89,2,2S21.1,39.06,20,39.06z M29.9,32.75  c0,0.72-0.58,1.3-1.3,1.3H11.4c-0.72,0-1.3-0.58-1.3-1.3V4.53c0-0.72,0.58-1.3,1.3-1.3h17.2c0.72,0,1.3,0.58,1.3,1.3V32.75z"/>
</svg>
