<svg xmlns="http://www.w3.org/2000/svg" version="1.1" x="0px" y="0px" viewBox="0 0 40 40" style="enable-background:new 0 0 40 40;">
  <path d="M0,37.06c0.19-0.26,0.35-0.54,0.57-0.77c0.34-0.37,0.72-0.69,1.05-1.07c0.16-0.18,0.28-0.44,0.32-0.68    c0.14-0.89,0.21-1.8,0.35-2.69c0.18-1.13,0.73-2.07,1.54-2.88C9.86,22.94,15.88,16.92,21.9,10.9c0.08-0.08,0.18-0.13,0.3-0.21    c-0.6-0.6-1.13-1.13-1.67-1.67c-0.43-0.42-0.66-0.93-0.69-1.53c-0.04-0.91,0.49-1.74,1.31-2.11c0.83-0.38,1.78-0.23,2.45,0.4    c0.5,0.48,0.99,0.98,1.48,1.47c0.07,0.07,0.13,0.16,0.2,0.26c0.11-0.11,0.19-0.18,0.26-0.25c1.88-1.88,3.76-3.75,5.63-5.64    c0.86-0.86,1.86-1.42,3.07-1.58c0.03,0,0.06-0.03,0.1-0.05c0.39,0,0.78,0,1.17,0c0.04,0.02,0.08,0.05,0.12,0.05    c2.07,0.35,3.44,1.53,4.14,3.49C39.87,3.85,39.92,4.18,40,4.5c0,0.39,0,0.78,0,1.17c-0.07,0.29-0.13,0.59-0.21,0.88    c-0.24,0.82-0.67,1.54-1.28,2.15c-1.81,1.82-3.63,3.63-5.44,5.44c-0.03,0.03-0.06,0.05-0.1,0.09c-1.3-1.01-2.59-2.02-3.89-3.04    c-0.01,0.01-0.02,0.02-0.04,0.03c0.06,0.07,0.13,0.13,0.19,0.2c1.64,1.64,3.29,3.28,4.93,4.93c1.21,1.23,0.68,3.26-0.97,3.73    c-0.83,0.23-1.56,0.02-2.17-0.56c-0.49-0.47-0.97-0.97-1.46-1.45c-0.06-0.06-0.13-0.12-0.26-0.24c-0.07,0.1-0.12,0.21-0.2,0.29    c-5.95,5.95-11.91,11.89-17.84,17.86c-1.15,1.16-2.47,1.79-4.1,1.87c-0.62,0.03-1.23,0.14-1.84,0.25    c-0.19,0.03-0.38,0.15-0.52,0.28c-0.38,0.34-0.71,0.73-1.09,1.07C3.48,39.65,3.2,39.81,2.94,40c-0.19,0-0.37,0-0.56,0    C1.45,39.35,0.65,38.55,0,37.61C0,37.43,0,37.24,0,37.06z M27.01,15.98c0.02-0.33-0.13-0.61-0.37-0.85    c-0.58-0.58-1.16-1.17-1.75-1.75c-0.55-0.54-1.19-0.54-1.74,0c-5.79,5.79-11.59,11.58-17.38,17.37c-0.06,0.06-0.14,0.12-0.16,0.19    c-0.02,0.12-0.04,0.29,0.02,0.37c0.04,0.06,0.23,0.05,0.34,0.01c0.1-0.03,0.17-0.13,0.25-0.21c2.21-2.2,4.41-4.41,6.62-6.61    c0.53-0.53,1.18-0.53,1.72,0c0.45,0.45,0.9,0.9,1.36,1.35c0.51,0.5,1.16,0.51,1.67,0.01c0.28-0.28,0.56-0.56,0.84-0.84    c2.72-2.72,5.43-5.43,8.15-8.15C26.84,16.62,27.01,16.35,27.01,15.98z"/>
  <path d="M0,37.61c0.65,0.94,1.45,1.74,2.39,2.39C1.59,40,0.8,40,0,40C0,39.2,0,38.41,0,37.61z"/>
</svg>
