<svg xmlns="http://www.w3.org/2000/svg" version="1.1" x="0px" y="0px" viewBox="0 0 40 40" style="enable-background:new 0 0 40 40;">
  <path d="M34.27,18.23c-0.07-0.07-0.14-0.13-0.22-0.19l-9.11-9.11c-0.97-0.97-2.54-0.97-3.51,0c-0.97,0.97-0.97,2.54,0,3.51  l5.07,5.07H7.48C6.11,17.51,5,18.62,5,19.99c0,1.37,1.11,2.48,2.48,2.48h19.04l-5.08,5.08c-0.97,0.97-0.97,2.54,0,3.51  c0.97,0.97,2.54,0.97,3.51,0l9.11-9.11c0.08-0.06,0.15-0.12,0.22-0.19C34.76,21.28,35,20.64,35,20C35,19.36,34.76,18.72,34.27,18.23  z"/>
</svg>
