<svg xmlns="http://www.w3.org/2000/svg" version="1.1" x="0px" y="0px" viewBox="0 0 40 40" style="enable-background:new 0 0 40 40;">
  <path d="M26.67,18.1v3.85c0,0.14-0.05,0.27-0.15,0.41c-0.1,0.13-0.21,0.2-0.33,0.22l-3.23,0.5c-0.15,0.49-0.38,1.01-0.67,1.59   c0.47,0.67,1.1,1.46,1.87,2.39c0.1,0.14,0.15,0.28,0.15,0.42c0,0.17-0.05,0.3-0.15,0.4c-0.32,0.41-0.89,1.04-1.72,1.86   c-0.83,0.83-1.37,1.24-1.64,1.24c-0.15,0-0.3-0.05-0.44-0.15l-2.39-1.87c-0.51,0.26-1.05,0.48-1.6,0.64   c-0.15,1.5-0.31,2.58-0.48,3.23c-0.1,0.33-0.31,0.5-0.63,0.5H11.4c-0.15,0-0.29-0.05-0.42-0.16c-0.12-0.1-0.19-0.22-0.21-0.36   l-0.48-3.18c-0.47-0.14-0.99-0.36-1.56-0.65l-2.46,1.85c-0.1,0.1-0.24,0.15-0.42,0.15c-0.15,0-0.3-0.05-0.44-0.17   c-2-1.85-3-2.96-3-3.33c0-0.12,0.05-0.26,0.15-0.39c0.14-0.19,0.43-0.56,0.86-1.1c0.43-0.54,0.76-0.97,0.98-1.27   c-0.32-0.61-0.56-1.18-0.73-1.71l-3.17-0.5c-0.14-0.01-0.26-0.08-0.36-0.2C0.05,22.17,0,22.04,0,21.89v-3.86   c0-0.14,0.05-0.28,0.15-0.41c0.1-0.13,0.21-0.2,0.33-0.22l3.23-0.5c0.15-0.49,0.37-1.01,0.67-1.58c-0.47-0.67-1.1-1.47-1.87-2.4   c-0.1-0.15-0.15-0.29-0.15-0.42c0-0.17,0.05-0.31,0.15-0.42c0.3-0.41,0.87-1.03,1.71-1.85s1.38-1.23,1.65-1.23   c0.15,0,0.3,0.05,0.44,0.15l2.39,1.87c0.47-0.25,1.01-0.47,1.6-0.67c0.15-1.5,0.31-2.57,0.48-3.21c0.1-0.33,0.31-0.5,0.63-0.5h3.87   c0.15,0,0.29,0.05,0.42,0.15c0.13,0.1,0.19,0.22,0.21,0.36l0.48,3.19c0.47,0.14,0.99,0.35,1.56,0.64l2.46-1.85   c0.11-0.1,0.25-0.15,0.42-0.15c0.15,0,0.3,0.05,0.44,0.16c2,1.85,3,2.96,3,3.34c0,0.12-0.05,0.26-0.15,0.39   c-0.17,0.22-0.46,0.6-0.87,1.12c-0.42,0.53-0.73,0.94-0.94,1.25c0.32,0.67,0.56,1.23,0.71,1.71l3.17,0.48   c0.14,0.03,0.26,0.1,0.35,0.22C26.62,17.8,26.67,17.94,26.67,18.1z M17.1,23.76c1.04-1.04,1.56-2.3,1.56-3.77   c0-1.47-0.52-2.73-1.56-3.77c-1.04-1.04-2.3-1.56-3.77-1.56c-1.47,0-2.73,0.52-3.77,1.56C8.52,17.26,8,18.52,8,19.99   c0,1.47,0.52,2.73,1.56,3.77c1.04,1.05,2.3,1.56,3.77,1.56C14.8,25.32,16.06,24.8,17.1,23.76z M40,7.86v2.92   c0,0.22-1.04,0.44-3.1,0.65c-0.17,0.37-0.37,0.74-0.63,1.08c0.71,1.57,1.06,2.53,1.06,2.87c0,0.05-0.03,0.1-0.08,0.15   c-1.7,0.98-2.56,1.48-2.59,1.48c-0.11,0-0.43-0.33-0.96-0.98c-0.53-0.65-0.89-1.12-1.08-1.42c-0.28,0.03-0.49,0.04-0.62,0.04   c-0.14,0-0.35-0.01-0.63-0.04c-0.19,0.29-0.56,0.77-1.08,1.42c-0.53,0.66-0.85,0.98-0.96,0.98c-0.03,0-0.89-0.5-2.58-1.48   c-0.06-0.04-0.09-0.09-0.09-0.15c0-0.35,0.36-1.31,1.06-2.87c-0.25-0.35-0.46-0.71-0.63-1.08c-2.07-0.21-3.1-0.42-3.1-0.65V7.86   c0-0.22,1.04-0.44,3.1-0.64c0.18-0.4,0.39-0.77,0.63-1.08c-0.71-1.57-1.06-2.53-1.06-2.88c0-0.05,0.03-0.1,0.09-0.15   c0.05-0.03,0.3-0.17,0.73-0.42c0.43-0.25,0.84-0.49,1.23-0.71c0.39-0.22,0.6-0.33,0.63-0.33c0.11,0,0.43,0.33,0.96,0.97   c0.53,0.64,0.89,1.11,1.08,1.41c0.28-0.03,0.49-0.04,0.63-0.04c0.14,0,0.35,0.02,0.62,0.04c0.71-0.99,1.35-1.77,1.92-2.33   l0.12-0.04c0.05,0,0.92,0.49,2.59,1.46c0.05,0.04,0.08,0.09,0.08,0.15c0,0.35-0.36,1.31-1.06,2.88c0.24,0.32,0.45,0.68,0.63,1.08   C38.96,7.43,40,7.65,40,7.86z M40,29.2v2.92c0,0.22-1.04,0.44-3.1,0.65c-0.17,0.37-0.37,0.74-0.63,1.08   c0.71,1.57,1.06,2.53,1.06,2.87c0,0.05-0.03,0.1-0.08,0.15c-1.7,0.98-2.56,1.48-2.59,1.48c-0.11,0-0.43-0.33-0.96-0.98   c-0.53-0.65-0.89-1.12-1.08-1.42c-0.28,0.03-0.49,0.04-0.62,0.04c-0.14,0-0.35-0.02-0.63-0.04c-0.19,0.29-0.56,0.77-1.08,1.42   c-0.53,0.65-0.85,0.98-0.96,0.98c-0.03,0-0.89-0.49-2.58-1.48c-0.06-0.04-0.09-0.09-0.09-0.15c0-0.35,0.36-1.31,1.06-2.87   c-0.25-0.35-0.46-0.71-0.63-1.08c-2.07-0.21-3.1-0.42-3.1-0.65V29.2c0-0.22,1.04-0.44,3.1-0.64c0.18-0.4,0.39-0.77,0.63-1.08   c-0.71-1.57-1.06-2.53-1.06-2.87c0-0.06,0.03-0.11,0.09-0.15c0.05-0.03,0.3-0.17,0.73-0.42c0.43-0.25,0.84-0.49,1.23-0.71   c0.39-0.22,0.6-0.33,0.63-0.33c0.11,0,0.43,0.32,0.96,0.97c0.53,0.64,0.89,1.11,1.08,1.4c0.28-0.02,0.49-0.04,0.63-0.04   c0.14,0,0.35,0.02,0.62,0.04c0.71-0.98,1.35-1.76,1.92-2.33l0.12-0.04c0.05,0,0.92,0.49,2.59,1.46c0.05,0.04,0.08,0.09,0.08,0.15   c0,0.35-0.36,1.3-1.06,2.87c0.24,0.32,0.45,0.68,0.63,1.08C38.96,28.76,40,28.98,40,29.2z M34.67,9.32c0-0.72-0.26-1.35-0.79-1.87   C33.35,6.92,32.72,6.66,32,6.66c-0.72,0-1.35,0.26-1.88,0.79c-0.53,0.53-0.79,1.15-0.79,1.87c0,0.74,0.26,1.37,0.78,1.89   s1.15,0.78,1.89,0.78c0.74,0,1.36-0.26,1.88-0.78C34.41,10.69,34.67,10.06,34.67,9.32z M34.67,30.66c0-0.72-0.26-1.35-0.79-1.87   c-0.53-0.53-1.15-0.79-1.87-0.79c-0.72,0-1.35,0.27-1.88,0.79c-0.53,0.53-0.79,1.15-0.79,1.87c0,0.74,0.26,1.37,0.78,1.89   c0.52,0.52,1.15,0.78,1.89,0.78c0.74,0,1.36-0.26,1.88-0.78C34.41,32.02,34.67,31.39,34.67,30.66z"/>
</svg>
