<svg xmlns="http://www.w3.org/2000/svg" version="1.1" x="0px" y="0px" viewBox="0 0 40 40" style="enable-background:new 0 0 40 40;">
  <path d="M20.47,8.87c-1.3,0-2.42,0.65-2.85,1.3V9.98c0-0.53-0.37-0.9-0.83-0.9h-1.15c-0.46,0-0.84,0.37-0.84,0.9v20.25   c0,0.53,0.37,0.9,0.84,0.9h1.08c0.46,0,0.84-0.37,0.84-0.9v-6.84c0.53,0.9,1.89,1.39,3.03,1.39c2.69,0,4.61-2.29,4.61-5.27v-5.23   C25.2,10.7,23.38,8.87,20.47,8.87z M22.39,19.67c0,1.73-0.9,2.51-2.2,2.51c-1.58,0-2.6-1.05-2.6-2.51v-5.6   c0-1.24,0.65-2.6,2.48-2.6c1.67,0,2.32,1.08,2.32,2.6V19.67z"/>
  <path d="M20,0C8.95,0,0,8.95,0,20c0,11.05,8.95,20,20,20s20-8.95,20-20C40,8.95,31.05,0,20,0z M20,37.66   c-9.75,0-17.66-7.91-17.66-17.66c0-9.75,7.91-17.66,17.66-17.66S37.66,10.25,37.66,20C37.66,29.75,29.75,37.66,20,37.66z"/>
</svg>
