<svg xmlns="http://www.w3.org/2000/svg" version="1.1" x="0px" y="0px" viewBox="0 0 40 40" style="enable-background:new 0 0 40 40;">
  <path d="M9.27,20.04c-1.26,0.01-2.39-0.32-3.44-1.02c-1.67-1.11-3.36-2.2-5.03-3.31c-1.14-0.76-1.06-1.99,0.17-2.61    C7.99,9.57,15.02,6.04,22.04,2.5c0.54-0.27,1.04-0.26,1.58,0.02c5.12,2.67,10.25,5.34,15.37,8.01c1.27,0.66,1.37,1.91,0.15,2.66    c-3.29,2.01-6.59,3.99-9.91,5.95c-1.09,0.64-2.31,0.91-3.59,0.91L9.27,20.04z M35.81,12.04c-0.16-0.1-0.22-0.14-0.29-0.18    C31.38,9.7,27.24,7.54,23.08,5.4c-0.17-0.09-0.46-0.07-0.64,0.02c-5.94,2.98-11.87,5.97-17.81,8.96    c-0.13,0.07-0.26,0.15-0.46,0.27c1.28,0.81,2.48,1.6,3.71,2.33c0.29,0.17,0.7,0.22,1.05,0.22c0.98,0.02,1.85-0.36,2.68-0.82    c1.56-0.87,2.9-2.02,4.1-3.33c0.34-0.37,0.72-0.57,1.23-0.56c0.48,0.01,0.77,0.3,1.04,0.57c1.39,1.38,2.88,2.61,4.67,3.44    c1.94,0.9,3.86,1.09,5.78-0.11c1.07-0.67,2.2-1.24,3.29-1.88C33.09,13.71,34.41,12.89,35.81,12.04z"/>
  <path d="M0.03,20.32c0-0.72,0.76-1.57,1.45-1.58c0.12,0,0.26,0.1,0.37,0.18c4.88,3.15,9.77,6.31,14.65,9.46    c0.23,0.15,0.41,0.27,0.72,0.1c6.32-3.67,12.66-7.32,18.98-10.98c0.63-0.36,1.25-0.75,1.85-1.15c0.23-0.15,0.47-0.15,0.81-0.02    c0.13,0.05,0.25,0.13,0.38,0.2c0.97,0.57,0.99,1.85,0,2.44c-0.95,0.57-1.91,1.11-2.87,1.66c-6.15,3.55-12.31,7.1-18.46,10.67    c-0.77,0.45-1.4,0.44-2.14-0.05C10.8,28.01,5.8,24.8,0.81,21.59C0.33,21.28,0.03,20.9,0.03,20.32z"/>
  <path d="M0.03,25.9c0-0.65,0.61-1.38,1.22-1.45c0.11-0.01,0.23,0.07,0.33,0.13c4.92,3.24,9.85,6.47,14.76,9.73    c0.46,0.3,0.75,0.29,1.2,0.02c6.81-4.09,13.64-8.15,20.46-12.22c0.6-0.36,0.87-0.32,1.46,0.16c0.42,0.34,0.54,0.95,0.44,1.44    c-0.12,0.42-0.47,0.73-0.81,0.93c-3.63,2.21-7.28,4.38-10.93,6.56c-3.44,2.06-6.89,4.11-10.32,6.19    c-0.71,0.43-1.32,0.41-2.01-0.06c-5.02-3.41-10.05-6.79-15.09-10.18C0.29,26.85,0.02,26.45,0.03,25.9z"/>
</svg>
