<svg xmlns="http://www.w3.org/2000/svg" version="1.1" x="0px" y="0px" viewBox="0 0 40 40" style="enable-background:new 0 0 40 40;">
  <path d="M31.35,14.5l-4.42,2.36c-0.7,0.36-1.27,1.25-1.27,2c0,0.75,0.57,1.21,1.27,0.84l4.42-2.62c0.82-0.47,1.27-1.25,1.27-1.95   C32.62,14.43,32.17,14.12,31.35,14.5z"/>
  <path d="M19.1,0L1.84,7.3v21.15L20.86,40l17.3-11.41V5.45L19.1,0z M19.23,2.05l15.43,4.41l-5.59,3.03l-15.1-5.21L19.23,2.05z    M19.87,37.14l-16.1-9.77v-18l16.1,6.33V37.14z M20.77,13.97L5.36,7.91L11.3,5.4l15.45,5.33L20.77,13.97z M36.23,27.55L21.8,37.06   V15.6L36.23,7.8V27.55z"/>
</svg>
