<svg xmlns="http://www.w3.org/2000/svg" version="1.1" x="0px" y="0px" viewBox="0 0 40 40" style="enable-background:new 0 0 40 40;">
  <path d="M25.48,35.81h-0.29c-1.41,0.56-2.91,0.85-4.44,0.85c-1.57,0-3.06-0.3-4.44-0.85H6.98c-0.49,0-0.88-0.4-0.88-0.88V3.15   c0-0.49,0.39-0.88,0.88-0.88h12.46v9.94c0,0.13,0.01,0.25,0.02,0.38c0.42-0.04,0.85-0.07,1.28-0.07c0.35,0,0.69,0.02,1.03,0.05   c-0.05-0.11-0.08-0.23-0.08-0.35V3.22l9.89,9.86h-7.17c1.52,0.49,2.9,1.26,4.09,2.26h4.01v6.56c0.2,0.86,0.3,1.76,0.3,2.68   c0,0.91-0.1,1.8-0.3,2.68v2.6l2.26,2.26V13.08h-0.01l0.01-0.01L21.7,0.02V0H6.98C5.25,0,3.84,1.41,3.84,3.15v31.79   c0,1.73,1.41,3.14,3.15,3.14h20.77L25.48,35.81z"/>
  <path d="M35.7,36.58l-6.86-6.86c0.94-1.48,1.49-3.24,1.49-5.13c0-5.29-4.29-9.58-9.58-9.58s-9.58,4.29-9.58,9.58   s4.29,9.58,9.58,9.58c1.89,0,3.65-0.55,5.13-1.49l6.86,6.86c0.69,0.69,1.89,0.6,2.69-0.2l0.08-0.08   C36.3,38.47,36.39,37.26,35.7,36.58z M13.26,24.58c0-4.13,3.35-7.49,7.49-7.49s7.49,3.35,7.49,7.49s-3.35,7.49-7.49,7.49   S13.26,28.72,13.26,24.58z"/>
</svg>
