<svg xmlns="http://www.w3.org/2000/svg" version="1.1" x="0px" y="0px" viewBox="0 0 40 40" style="enable-background:new 0 0 40 40;">
  <rect x="9.53" y="11.62" width="9.3" height="1.92"/>
  <rect x="11.16" y="15.58" width="6.04" height="1.92"/>
  <polygon points="22.69,15.02 22.42,15.58 22.94,15.93 22.82,16.54 23.4,16.73 23.44,17.35 24.06,17.4 24.26,17.98 24.87,17.86    25.22,18.38 25.77,18.1 26.24,18.51 26.71,18.1 27.27,18.38 27.61,17.86 28.22,17.98 28.42,17.4 29.04,17.35 29.08,16.73    29.67,16.54 29.55,15.93 30.06,15.58 29.79,15.02 30.2,14.56 29.79,14.09 30.06,13.53 29.55,13.19 29.67,12.58 29.08,12.38    29.04,11.76 28.42,11.72 28.22,11.13 27.61,11.25 27.27,10.74 26.71,11.01 26.24,10.6 25.77,11.01 25.22,10.74 24.87,11.25    24.26,11.13 24.06,11.72 23.44,11.76 23.4,12.38 22.82,12.58 22.94,13.19 22.42,13.53 22.69,14.09 22.28,14.56  "/>
  <path d="M38.83,14.89c-0.1-0.17-0.22-0.33-0.4-0.44l-2.56-2.13V8.11c0-1.45-1.18-2.63-2.63-2.63h-5.62l-6.34-5.26   c-0.28-0.19-0.6-0.25-0.91-0.21c-0.31-0.04-0.63,0.02-0.91,0.21l-6.63,5.26H6.7c-1.45,0-2.62,1.18-2.62,2.63v4.31l-2.56,2.03   c-0.19,0.13-0.32,0.31-0.42,0.51C0.42,15.59,0,16.47,0,17.46v19.09C0,38.46,1.55,40,3.45,40h7.96h5.33h19.82   c1.9,0,3.45-1.55,3.45-3.45V17.46C40,16.44,39.54,15.52,38.83,14.89z M36.33,16.1l-0.46,0.39v-0.77L36.33,16.1z M20.37,2.78   l3.24,2.71h-6.64L20.37,2.78z M6.7,7.37h26.54c0.41,0,0.74,0.33,0.74,0.74v9.96L20.37,29.43L5.97,17.95V8.11   C5.97,7.7,6.3,7.37,6.7,7.37z M4.08,16.45L3.65,16.1l0.43-0.34V16.45z M36.55,37.52H16.73h-5.33H3.45c-0.53,0-0.97-0.43-0.97-0.97   V18.52l16.97,13.46c0.28,0.19,0.6,0.25,0.91,0.21c0.31,0.04,0.63-0.02,0.91-0.21l16.24-13.47v18.04   C37.52,37.09,37.09,37.52,36.55,37.52z"/>
</svg>
