<svg xmlns="http://www.w3.org/2000/svg" version="1.1" x="0px" y="0px" viewBox="0 0 40 40" style="enable-background:new 0 0 40 40;">
  <path d="M40,26.88c-0.23,0.77-0.5,1.52-1.01,2.17c-1.13,1.42-2.53,2.29-4.42,2.21c-0.67-0.03-1.35,0-2.07,0c0-2.5,0-4.98,0-7.48    c-8.34,0-16.65,0-24.99,0c0,2.47,0,4.95,0,7.45c-2.11,0.09-4.2,0.27-5.84-1.41C0.65,28.76-0.01,27.57,0,26.04    c0.02-4.06,0.01-8.12,0.01-12.19c0-2.64,2.43-5.09,5.07-5.09c0.79,0,1.58,0,2.43,0c0,1.27,0,2.51,0,3.76c0,1.23,0,2.47,0,3.72    c8.34,0,16.64,0,24.98,0c0-2.47,0-4.95,0-7.45c2.08-0.07,4.14-0.28,5.79,1.36c0.81,0.81,1.43,1.71,1.66,2.85    c0.01,0.05,0.05,0.09,0.07,0.13C40,17.72,40,22.3,40,26.88z"/>
  <path d="M30,1.26c0,4.15,0,8.3,0,12.47c-6.66,0-13.3,0-20,0c0-4.16,0-8.31,0-12.47C16.67,1.26,23.34,1.26,30,1.26z"/>
  <path d="M29.98,26.29c0,4.16,0,8.3,0,12.45c-6.65,0-13.28,0-19.95,0c0-4.14,0-8.28,0-12.45C16.67,26.29,23.31,26.29,29.98,26.29z     M27.49,28.79c-5.01,0-9.99,0-14.95,0c0,0.84,0,1.65,0,2.45c5,0,9.97,0,14.95,0C27.49,30.42,27.49,29.61,27.49,28.79z     M12.52,36.23c5,0,9.98,0,14.95,0c0-0.84,0-1.65,0-2.46c-5,0-9.96,0-14.95,0C12.52,34.6,12.52,35.4,12.52,36.23z"/>
</svg>
