<svg xmlns="http://www.w3.org/2000/svg" version="1.1" x="0px" y="0px" viewBox="0 0 40 40" style="enable-background:new 0 0 40 40;">
  <path d="M24.01,33.39c-0.13,0.43-0.28,0.85-0.56,1.21c-0.63,0.79-1.41,1.28-2.46,1.23c-0.38-0.02-0.75,0-1.15,0     c0-1.4,0-2.78,0-4.17c-4.66,0-9.29,0-13.95,0c0,1.38,0,2.76,0,4.15c-1.18,0.05-2.34,0.15-3.26-0.79     c-0.58-0.59-0.94-1.25-0.94-2.1c0.01-2.27,0-4.53,0-6.8c0-1.47,1.36-2.84,2.83-2.84c0.44,0,0.88,0,1.36,0c0,0.71,0,1.4,0,2.1     c0,0.69,0,1.38,0,2.08c4.65,0,9.28,0,13.94,0c0-1.38,0-2.76,0-4.16c1.16-0.04,2.31-0.16,3.23,0.76c0.45,0.45,0.8,0.96,0.93,1.59     c0.01,0.03,0.03,0.05,0.04,0.07C24.01,28.27,24.01,30.83,24.01,33.39z"/>
  <path d="M18.43,19.09c0,2.31,0,4.63,0,6.96c-3.72,0-7.42,0-11.16,0c0-2.32,0-4.64,0-6.96C10.99,19.09,14.71,19.09,18.43,19.09z"/>
  <path d="M18.42,33.05c0,2.32,0,4.63,0,6.95c-3.71,0-7.41,0-11.13,0c0-2.31,0-4.62,0-6.95C10.99,33.05,14.7,33.05,18.42,33.05z      M17.03,34.45c-2.8,0-5.57,0-8.34,0c0,0.47,0,0.92,0,1.37c2.79,0,5.56,0,8.34,0C17.03,35.36,17.03,34.91,17.03,34.45z M8.68,38.6     c2.79,0,5.57,0,8.34,0c0-0.47,0-0.92,0-1.37c-2.79,0-5.56,0-8.34,0C8.68,37.69,8.68,38.14,8.68,38.6z"/>
  <path d="M38.31,11.2L27.09,0.02V0H14.48c-1.49,0-2.7,1.21-2.7,2.7v14.22h1.94V2.7c0-0.42,0.34-0.75,0.76-0.75h10.68v8.52   c0,1.49,1.21,2.7,2.7,2.7h8.52v16.79c0,0.42-0.34,0.75-0.76,0.75H26.2v1.94h9.41c1.49,0,2.69-1.21,2.69-2.7L38.31,11.2L38.31,11.2   L38.31,11.2z M27.85,11.21c-0.42,0-0.76-0.34-0.76-0.75v-7.7l8.48,8.45H27.85z"/>
</svg>
