<svg xmlns="http://www.w3.org/2000/svg" version="1.1" x="0px" y="0px" viewBox="0 0 40 40" style="enable-background:new 0 0 40 40;">
  <path d="M20,0C9.76,0,1.46,8.3,1.46,18.54c0,3.93,1.23,7.57,3.32,10.57L4.77,29.1L3.26,40l11.05-3.82c1.8,0.58,3.71,0.9,5.69,0.9  c10.24,0,18.54-8.3,18.54-18.54S30.24,0,20,0z M17.62,17.16c0,2.55-0.62,4.55-1.85,6s-2.97,2.39-5.21,2.85v-3.28  c1.7-0.52,2.46-0.8,3.05-2.16c0.34-0.72,0.47-1.42,0.4-2.09h-3.58v-6.63h7.18V17.16z M29.57,17.16c0,2.52-0.6,4.51-1.8,5.97  c-1.2,1.46-2.95,2.42-5.26,2.87v-3.28c1.71-0.54,2.49-0.8,3.08-2.11c0.3-0.69,0.43-1.4,0.38-2.14h-3.58v-6.63h7.18V17.16z"/>
</svg>
