<svg xmlns="http://www.w3.org/2000/svg" version="1.1" x="0px" y="0px" viewBox="0 0 40 40" style="enable-background:new 0 0 40 40;">
  <path d="M19.49,12.82h3.33V0.57h-2.81c-0.07,0.48-0.22,0.89-0.45,1.22c-0.23,0.33-0.51,0.59-0.84,0.79   C18.39,2.78,18.01,2.92,17.6,3c-0.42,0.08-0.85,0.11-1.3,0.1v1.94h3.19V12.82z"/>
  <path d="M6.47,15.25c-0.26,0.24-0.55,0.46-0.86,0.66c-0.31,0.2-0.61,0.4-0.89,0.59c-0.54,0.38-1.06,0.74-1.55,1.11   c-0.49,0.36-0.92,0.76-1.28,1.19c-0.36,0.43-0.65,0.92-0.86,1.46C0.81,20.8,0.7,21.45,0.7,22.18h9.33v-2.21H4.03   c0.31-0.44,0.68-0.82,1.09-1.14c0.41-0.33,0.83-0.63,1.27-0.92c0.44-0.28,0.87-0.57,1.3-0.86c0.43-0.29,0.81-0.61,1.15-0.97   c0.34-0.36,0.61-0.77,0.82-1.22c0.21-0.46,0.31-1.01,0.31-1.65c0-0.62-0.12-1.17-0.35-1.67c-0.24-0.5-0.55-0.91-0.95-1.25   c-0.4-0.34-0.86-0.6-1.39-0.78C6.74,9.32,6.19,9.23,5.6,9.23c-0.76,0-1.44,0.13-2.02,0.39c-0.59,0.26-1.07,0.62-1.46,1.09   c-0.39,0.47-0.68,1.01-0.87,1.63c-0.19,0.62-0.28,1.3-0.25,2.02h2.47c0-0.34,0.03-0.68,0.1-1.03c0.07-0.34,0.18-0.66,0.34-0.94   c0.16-0.28,0.37-0.51,0.63-0.69c0.26-0.18,0.58-0.26,0.95-0.26c0.56,0,1.01,0.17,1.37,0.52c0.36,0.34,0.54,0.83,0.54,1.44   c0,0.39-0.09,0.73-0.26,1.03C6.94,14.74,6.73,15.01,6.47,15.25z"/>
  <path d="M36.07,26.63c-0.4,0.36-0.89,0.54-1.47,0.54c-0.38,0-0.7-0.07-0.97-0.2c-0.27-0.13-0.5-0.31-0.68-0.54   c-0.18-0.22-0.32-0.49-0.42-0.8c-0.1-0.31-0.15-0.63-0.16-0.97h-2.45c-0.01,0.74,0.09,1.39,0.32,1.96   c0.22,0.57,0.54,1.05,0.95,1.44c0.41,0.39,0.91,0.69,1.5,0.9c0.59,0.21,1.24,0.31,1.95,0.31c0.62,0,1.21-0.09,1.78-0.27   c0.57-0.18,1.07-0.45,1.51-0.8c0.44-0.35,0.78-0.79,1.04-1.31c0.26-0.52,0.39-1.11,0.39-1.78c0-0.73-0.2-1.35-0.6-1.87   c-0.4-0.52-0.95-0.86-1.65-1.02v-0.04c0.59-0.17,1.04-0.49,1.33-0.96c0.3-0.47,0.44-1.02,0.44-1.63c0-0.57-0.13-1.07-0.38-1.51   c-0.25-0.44-0.58-0.8-0.99-1.11c-0.41-0.3-0.86-0.53-1.37-0.68c-0.51-0.15-1.02-0.23-1.52-0.23c-0.65,0-1.25,0.11-1.78,0.32   c-0.53,0.21-0.99,0.51-1.37,0.9c-0.38,0.39-0.68,0.85-0.89,1.39c-0.21,0.54-0.33,1.13-0.35,1.79h2.45   c-0.01-0.65,0.15-1.19,0.48-1.62c0.33-0.43,0.83-0.64,1.48-0.64c0.47,0,0.89,0.15,1.25,0.44c0.36,0.29,0.54,0.71,0.54,1.25   c0,0.36-0.09,0.65-0.26,0.87c-0.18,0.22-0.4,0.38-0.67,0.5c-0.27,0.12-0.57,0.18-0.88,0.21c-0.31,0.02-0.61,0.02-0.89,0v1.81   c0.31,0,0.64,0.01,0.99,0.03c0.34,0.02,0.66,0.08,0.95,0.2c0.29,0.12,0.53,0.3,0.72,0.55c0.19,0.25,0.28,0.62,0.28,1.11   C36.66,25.79,36.46,26.27,36.07,26.63z"/>
  <path d="M23.52,16.11h-7.03c-1.02,0-1.85,0.83-1.85,1.85v20.19c0,1.02,0.83,1.85,1.85,1.85h7.03c1.02,0,1.85-0.83,1.85-1.85V17.96   C25.37,16.94,24.54,16.11,23.52,16.11z"/>
  <path d="M38.15,32.21h-7.03c-1.02,0-1.85,0.83-1.85,1.85v4.08c0,1.02,0.83,1.85,1.85,1.85h7.03c1.02,0,1.85-0.83,1.85-1.85v-4.08   C40,33.04,39.17,32.21,38.15,32.21z"/>
  <path d="M8.88,25.33H1.85C0.83,25.33,0,26.16,0,27.18v10.96C0,39.17,0.83,40,1.85,40h7.03c1.02,0,1.85-0.83,1.85-1.85V27.18   C10.74,26.16,9.91,25.33,8.88,25.33z"/>
</svg>
