<svg xmlns="http://www.w3.org/2000/svg" version="1.1" x="0px" y="0px" viewBox="0 0 40 40" style="enable-background:new 0 0 40 40;">
  <path d="M20.59,25.35c0,1.05-0.71,1.79-1.23,2.33c-0.01,0.01-0.02,0.02-0.02,0.02c-0.17,0.18-0.44,0.19-0.62,0.02l-0.28-0.26   c-0.17-0.16-0.19-0.44-0.02-0.62c0.01-0.01,0.02-0.03,0.04-0.04c0.43-0.45,0.88-0.91,0.88-1.46c0-0.54-0.45-1-0.88-1.45   c-0.35-0.35-0.66-0.69-0.78-1.05c-0.13-0.39-0.06-0.86,0-1.36c0.09-0.61,0.17-1.23-0.13-1.65c-0.3-0.42-0.93-0.53-1.53-0.64   c-0.5-0.09-0.96-0.17-1.28-0.41c-0.32-0.23-0.54-0.64-0.77-1.07c-0.3-0.55-0.6-1.12-1.1-1.28c-0.09-0.03-0.19-0.05-0.3-0.05   c-0.4,0-0.83,0.21-1.28,0.42c-0.44,0.22-0.89,0.43-1.31,0.43c-0.41,0-0.87-0.22-1.31-0.43c-0.46-0.22-0.88-0.43-1.28-0.43   c-0.11,0-0.21,0.02-0.3,0.05c-0.5,0.16-0.8,0.73-1.09,1.27c-0.24,0.44-0.46,0.85-0.77,1.08c-0.32,0.24-0.81,0.32-1.28,0.41   c-0.61,0.11-1.23,0.22-1.54,0.64c-0.08,0.1-0.13,0.22-0.16,0.35c-0.05,0.19-0.24,0.32-0.44,0.31l-0.39-0.02   c-0.26-0.01-0.47-0.26-0.41-0.52c0.07-0.32,0.2-0.61,0.39-0.87c0.6-0.83,1.56-1,2.33-1.14c0.25-0.04,0.66-0.12,0.77-0.19   c0.09-0.08,0.28-0.43,0.4-0.65c0.37-0.7,0.83-1.56,1.82-1.88c0.22-0.07,0.46-0.11,0.69-0.11c0.69,0,1.3,0.29,1.83,0.55   c0.24,0.11,0.63,0.3,0.76,0.31c0.14,0,0.54-0.2,0.77-0.31c0.53-0.26,1.14-0.55,1.82-0.55c0.24,0,0.47,0.04,0.69,0.11   c0.98,0.32,1.45,1.18,1.82,1.88c0.12,0.22,0.31,0.58,0.41,0.66c0.1,0.06,0.51,0.14,0.76,0.18c0.77,0.14,1.73,0.31,2.33,1.14   c0.6,0.82,0.47,1.79,0.37,2.56c-0.04,0.26-0.09,0.67-0.06,0.8c0.04,0.1,0.32,0.39,0.48,0.56C19.91,23.59,20.59,24.3,20.59,25.35z"/>
  <path d="M27.97,13.44c1.69,0,3.13-0.66,4.32-1.97c1.19-1.31,1.79-2.9,1.79-4.75s-0.6-3.44-1.79-4.75C31.1,0.65,29.66,0,27.97,0    c-1.69,0-3.13,0.66-4.32,1.97c-1.2,1.31-1.79,2.9-1.79,4.75s0.6,3.44,1.79,4.75C24.85,12.79,26.29,13.44,27.97,13.44z"/>
  <path d="M39.94,22.2c-0.04-0.58-0.12-1.2-0.24-1.86c-0.12-0.67-0.27-1.28-0.45-1.85c-0.18-0.57-0.43-1.12-0.73-1.66    c-0.31-0.54-0.66-1-1.06-1.39c-0.4-0.38-0.88-0.69-1.46-0.91c-0.58-0.23-1.21-0.34-1.91-0.34c-0.1,0-0.34,0.12-0.72,0.37    c-0.38,0.24-0.8,0.52-1.27,0.82c-0.47,0.3-1.09,0.58-1.84,0.82c-0.76,0.24-1.52,0.37-2.28,0.37c-0.76,0-1.52-0.12-2.28-0.37    c-0.76-0.24-1.37-0.52-1.85-0.82c-0.47-0.3-0.9-0.58-1.27-0.82c-0.38-0.24-0.62-0.37-0.72-0.37c-0.7,0-1.33,0.11-1.91,0.34    c-0.58,0.23-1.06,0.53-1.46,0.91c-0.22,0.21-0.42,0.45-0.61,0.71c0.82,0.27,1.73,0.74,2.42,1.69c1.02,1.41,0.91,2.95,0.79,3.89    c0.67,0.71,1.65,1.89,1.65,3.63c0,1.33-0.57,2.33-1.14,3.05h13.83c1.38,0,2.48-0.4,3.31-1.19c0.83-0.79,1.25-1.87,1.25-3.24    C40,23.37,39.98,22.78,39.94,22.2z"/>
  <path d="M18.69,30.36l-7.4-7.4c-0.35-0.35-0.9-0.4-1.32-0.09c-0.26,0.19-0.4,0.51-0.4,0.84l0,4.87c0,0.16,0.13,0.29,0.29,0.29h0.27   c0.16,0,0.29-0.13,0.29-0.29v-4.91c0-0.09,0.06-0.13,0.1-0.14c0.03-0.01,0.1-0.03,0.17,0.03l7.4,7.4c0.1,0.1,0.15,0.23,0.15,0.37   c0,0.14-0.05,0.27-0.15,0.37l-7.4,7.4c-0.06,0.06-0.13,0.05-0.17,0.03c-0.04-0.01-0.1-0.05-0.1-0.14v-4.46h-0.21   c-4.68,0-8.77-3.43-9.3-8.07c-0.13-1.12-0.06-2.24,0.21-3.32c0.05-0.19-0.09-0.37-0.28-0.37H0.58c-0.13,0-0.26,0.09-0.29,0.22   C0.1,23.78,0,24.58,0,25.39c0,5.37,4.26,9.77,9.57,9.99l0,3.57c0,0.34,0.15,0.68,0.43,0.87c0.18,0.12,0.38,0.18,0.58,0.18   c0.26,0,0.52-0.1,0.71-0.3l7.36-7.36c0.21-0.21,0.36-0.47,0.42-0.75C19.15,31.13,19.01,30.68,18.69,30.36z"/>
</svg>
