<svg xmlns="http://www.w3.org/2000/svg" version="1.1" x="0px" y="0px" viewBox="0 0 40 40" style="enable-background:new 0 0 40 40;">
  <path d="M35.54,8.04C35,7.39,34.4,6.8,33.76,6.26c-3.51-2.95-7.48-4.42-11.92-4.42c-4.45,0-8.43,1.48-11.95,4.44   C9.24,6.82,8.64,7.42,8.1,8.06c-2.73,3.24-4.18,6.88-4.39,10.92H0.48c-0.39,0-0.61,0.43-0.39,0.75l4.89,7.02   c0.18,0.26,0.56,0.26,0.74,0l4.93-7.06c0.21-0.3-0.01-0.71-0.37-0.71H7C7.19,16.07,8.18,13.4,9.98,11c0.82-1.09,1.8-2.06,2.89-2.88   c2.67-1.99,5.66-2.99,8.96-2.99c3.64,0,6.89,1.21,9.77,3.63c0.53,0.44,1.02,0.93,1.46,1.46c2.43,2.88,3.64,6.14,3.64,9.78   c0,3.64-1.21,6.9-3.63,9.77c-0.45,0.53-0.94,1.02-1.47,1.46c-2.88,2.42-6.13,3.63-9.77,3.63c-2.7,0-5.18-0.67-7.46-2   c-0.83-0.49-1.6-1.04-2.3-1.66c-0.33-0.29-0.82-0.28-1.12,0.02l-1.18,1.18c-0.33,0.33-0.33,0.87,0.02,1.18   c0.89,0.79,1.87,1.51,2.93,2.13c2.78,1.62,5.82,2.44,9.12,2.44c4.44,0,8.41-1.47,11.92-4.42c0.65-0.54,1.24-1.14,1.79-1.78   C38.52,28.44,40,24.46,40,20S38.52,11.56,35.54,8.04z"/>
  <path d="M22.54,11.94h-2.23c-0.34,0-0.62,0.28-0.62,0.62v8.65c0,0.32,0.13,0.62,0.35,0.85l6.24,6.23c0.09,0.09,0.2,0.13,0.32,0.13   c0.12,0,0.24-0.05,0.32-0.13l1.69-1.69c0.24-0.24,0.24-0.64,0-0.88l-5.2-5.2c-0.16-0.16-0.26-0.39-0.26-0.62v-7.35   C23.16,12.22,22.88,11.94,22.54,11.94z"/>
</svg>
