<svg xmlns="http://www.w3.org/2000/svg" version="1.1" x="0px" y="0px" viewBox="0 0 40 40" style="enable-background:new 0 0 40 40;">
  <path d="M36.56,16.43c0,1.69-1.14,2.88-1.98,3.75c-0.01,0.01-0.03,0.03-0.04,0.04c-0.27,0.29-0.71,0.3-1,0.03l-0.45-0.42    c-0.28-0.26-0.3-0.71-0.03-0.99c0.02-0.02,0.04-0.05,0.06-0.07c0.7-0.73,1.42-1.47,1.42-2.35c0-0.87-0.72-1.61-1.41-2.34    c-0.56-0.57-1.07-1.1-1.25-1.69c-0.2-0.62-0.1-1.38,0.01-2.18c0.14-0.97,0.27-1.98-0.22-2.65c-0.49-0.68-1.5-0.86-2.46-1.03    c-0.8-0.14-1.55-0.28-2.06-0.66c-0.51-0.37-0.86-1.03-1.24-1.73c-0.48-0.89-0.96-1.8-1.77-2.06c-0.15-0.05-0.31-0.08-0.49-0.08    c-0.65,0-1.33,0.33-2.06,0.68c-0.71,0.35-1.44,0.7-2.11,0.7c-0.67,0-1.39-0.35-2.1-0.69c-0.73-0.35-1.42-0.69-2.06-0.69    c-0.17,0-0.33,0.03-0.49,0.08c-0.8,0.26-1.29,1.17-1.76,2.05c-0.38,0.71-0.74,1.37-1.24,1.74c-0.52,0.38-1.3,0.52-2.06,0.66    C8.78,6.72,7.77,6.9,7.28,7.58C7.16,7.74,7.07,7.93,7.02,8.15c-0.09,0.31-0.39,0.52-0.71,0.5L5.68,8.61    C5.25,8.59,4.93,8.2,5.02,7.78c0.12-0.52,0.32-0.98,0.62-1.4c0.97-1.33,2.51-1.61,3.74-1.83c0.4-0.07,1.06-0.2,1.24-0.31    c0.14-0.12,0.46-0.7,0.64-1.05c0.6-1.12,1.34-2.51,2.93-3.03C14.54,0.06,14.92,0,15.3,0c1.11,0,2.08,0.47,2.94,0.88    c0.39,0.18,1.01,0.49,1.23,0.5c0.22-0.01,0.88-0.33,1.23-0.5C21.56,0.47,22.53,0,23.64,0c0.39,0,0.76,0.06,1.12,0.18    c1.58,0.52,2.33,1.9,2.92,3.02c0.19,0.35,0.5,0.93,0.65,1.07c0.16,0.1,0.82,0.22,1.22,0.29c1.24,0.23,2.78,0.5,3.75,1.84    c0.96,1.33,0.75,2.88,0.59,4.11c-0.06,0.41-0.15,1.08-0.09,1.29c0.07,0.16,0.51,0.62,0.78,0.9C35.46,13.6,36.56,14.75,36.56,16.43    z"/>
  <path d="M33.51,24.48l-11.9-11.9c-0.56-0.56-1.45-0.64-2.12-0.15c-0.42,0.31-0.64,0.83-0.64,1.35l0,7.84    c0,0.26,0.21,0.47,0.47,0.47h0.43c0.26,0,0.47-0.21,0.47-0.47v-7.9c0-0.14,0.1-0.21,0.15-0.23c0.06-0.02,0.17-0.05,0.27,0.05    l11.9,11.9c0.16,0.16,0.25,0.37,0.25,0.6c0,0.23-0.09,0.44-0.25,0.6l-11.9,11.9c-0.1,0.1-0.21,0.08-0.27,0.05    c-0.06-0.02-0.15-0.08-0.15-0.23v-7.17h-0.33c-7.53,0-14.1-5.51-14.97-12.99c-0.21-1.8-0.09-3.61,0.35-5.33    c0.08-0.3-0.14-0.59-0.45-0.59H4.37c-0.22,0-0.41,0.15-0.46,0.36C3.6,13.91,3.44,15.2,3.44,16.5c0,8.64,6.85,15.71,15.4,16.07    l0,5.74c0,0.55,0.24,1.09,0.69,1.4c0.29,0.2,0.61,0.29,0.93,0.29c0.42,0,0.83-0.16,1.14-0.48l11.85-11.85    c0.33-0.33,0.59-0.75,0.67-1.21C34.25,25.72,34.02,25,33.51,24.48z"/>
</svg>
