<svg xmlns="http://www.w3.org/2000/svg" version="1.1" x="0px" y="0px" viewBox="0 0 40 40" style="enable-background:new 0 0 40 40;">
  <path d="M39.44,9.71c-0.33-0.25-0.54-0.62-0.54-1.04V7.59c0-0.42-0.21-0.82-0.56-1.05c-1.33-0.9-4.87-3.01-8.89-3.01   c-3.88,0-7.32,1.97-8.75,2.91c-0.43,0.28-0.98,0.28-1.4,0c-1.43-0.94-4.87-2.91-8.75-2.91c-4.02,0-7.56,2.11-8.89,3.01   C1.3,6.78,1.1,7.17,1.1,7.59v1.08c0,0.41-0.21,0.78-0.54,1.04c-0.72,0.56-0.54,0.98-0.54,0.98v23.6c0,0.98,1.07,1.6,1.91,1.1   c1.77-1.06,4.58-2.38,7.55-2.38c3.93,0,8.27,2.32,9.88,3.27c0.4,0.24,0.89,0.24,1.3,0c1.61-0.95,5.95-3.27,9.88-3.27   c2.96,0,5.77,1.32,7.55,2.38c0.84,0.5,1.91-0.12,1.91-1.1V10.7C39.98,10.7,40.16,10.27,39.44,9.71z M17.85,9.36v19.43   c0,0.89-0.89,1.5-1.71,1.19c-1.71-0.66-3.68-1.18-5.59-1.18c-1.96,0-3.97,0.17-5.71,0.67c-0.8,0.23-1.59-0.39-1.59-1.22V8.35V8.07   c1.36-0.85,4.22-2.39,7.3-2.39c2.68,0,5.17,1.14,6.67,2.01c0.39,0.23,0.63,0.64,0.63,1.1V9.36z M36.75,8.35v19.89   c0,0.83-0.79,1.45-1.59,1.22c-1.74-0.5-3.75-0.67-5.71-0.67c-1.91,0-3.88,0.52-5.59,1.18c-0.83,0.32-1.71-0.3-1.71-1.19V9.36V8.79   c0-0.45,0.23-0.87,0.63-1.1c1.5-0.86,4-2.01,6.67-2.01c3.09,0,5.95,1.53,7.3,2.39V8.35z"/>
  <path d="M5.33,16.84v2.09c0.87-0.44,2.63-1.24,5.18-1.24c2.37,0,4.22,0.72,5.25,1.17V16.8c-1.25-0.46-3.06-1.02-5.25-1.02   C8.27,15.78,6.52,16.36,5.33,16.84z"/>
  <path d="M5.33,11.37v2.09c0.87-0.44,2.63-1.24,5.18-1.24c2.37,0,4.22,0.72,5.25,1.17v-2.06c-1.25-0.46-3.06-1.02-5.25-1.02   C8.27,10.31,6.52,10.9,5.33,11.37z"/>
  <path d="M5.33,22.3v2.09c0.87-0.44,2.63-1.24,5.18-1.24c2.37,0,4.22,0.72,5.25,1.17v-2.06c-1.25-0.46-3.06-1.02-5.25-1.02   C8.27,21.25,6.52,21.83,5.33,22.3z"/>
  <path d="M24.24,16.84v2.09c0.87-0.44,2.63-1.24,5.18-1.24c2.37,0,4.22,0.72,5.25,1.17V16.8c-1.25-0.46-3.06-1.02-5.25-1.02   C27.17,15.78,25.42,16.36,24.24,16.84z"/>
  <path d="M24.24,11.37v2.09c0.87-0.44,2.63-1.24,5.18-1.24c2.37,0,4.22,0.72,5.25,1.17v-2.06c-1.25-0.46-3.06-1.02-5.25-1.02   C27.17,10.31,25.42,10.9,24.24,11.37z"/>
  <path d="M24.24,22.3v2.09c0.87-0.44,2.63-1.24,5.18-1.24c2.37,0,4.22,0.72,5.25,1.17v-2.06c-1.25-0.46-3.06-1.02-5.25-1.02   C27.17,21.25,25.42,21.83,24.24,22.3z"/>
</svg>
