<svg xmlns="http://www.w3.org/2000/svg" version="1.1" x="0px" y="0px" viewBox="0 0 40 40" style="enable-background:new 0 0 40 40;">
  <path d="M10.05,29.96c1.97-0.12,3.26-1.53,3.36-3.34c1.4-0.28,3.12,1.24,3.33,2.94c0.23,1.87-1.28,3.65-3.13,3.73   C11.5,33.39,9.99,31.66,10.05,29.96z"/>
  <path d="M26.81,29.62c0,0.21,0,0.42,0,0.63c-0.3,0.63-0.54,1.3-0.92,1.88c-1.52,2.33-3.51,4.19-5.84,5.68    c-1.41,0.91-2.92,1.6-4.56,1.95c-0.43,0.09-0.87,0.15-1.3,0.23c-0.52,0-1.05,0-1.57,0c-0.05-0.02-0.1-0.04-0.14-0.05    c-1.25-0.12-2.44-0.48-3.59-0.99c-2.16-0.96-4.02-2.34-5.68-4.01c-1.14-1.14-2.15-2.38-2.89-3.83c-0.41-0.81-0.41-1.59,0.01-2.4    c0.6-1.18,1.39-2.22,2.28-3.18c1.86-2.02,3.99-3.67,6.53-4.75c2.38-1.01,4.81-1.23,7.3-0.45c1.64,0.51,3.15,1.29,4.52,2.32    C23.42,24.53,25.67,26.61,26.81,29.62z M13.38,36.65c3.68,0,6.7-3.01,6.72-6.69c0.01-3.7-3.01-6.72-6.7-6.73    c-3.7,0-6.72,3.02-6.72,6.71C6.68,33.63,9.7,36.64,13.38,36.65z"/>
  <path d="M40,10.26L29.74,0.01V0H18.18c-1.36,0-2.47,1.11-2.47,2.47v15.48c0.45,0.09,0.91,0.19,1.36,0.34    c0.14,0.04,0.28,0.1,0.42,0.15V2.47c0-0.38,0.31-0.69,0.69-0.69h9.77v7.8c0,1.36,1.11,2.47,2.47,2.47h7.8v15.37    c0,0.38-0.31,0.69-0.69,0.69H28.5c0.11,0.25,0.23,0.49,0.33,0.76l0.14,0.37v0.65h8.56c1.36,0,2.47-1.11,2.47-2.47L40,10.26    L40,10.26L40,10.26z M30.43,10.26c-0.38,0-0.69-0.31-0.69-0.69V2.52l7.76,7.74H30.43z"/>
</svg>
