<svg xmlns="http://www.w3.org/2000/svg" version="1.1" x="0px" y="0px" viewBox="0 0 40 40" style="enable-background:new 0 0 40 40;">
  <path d="M11.87,16.25C5.31,16.25,0,21.56,0,28.11c0,6.55,5.31,11.87,11.87,11.87s11.87-5.31,11.87-11.87    C23.73,21.56,18.42,16.25,11.87,16.25z M11.87,38.59c-5.79,0-10.48-4.69-10.48-10.48c0-5.79,4.69-10.48,10.48-10.48    s10.48,4.69,10.48,10.48C22.34,33.9,17.65,38.59,11.87,38.59z"/>
  <path d="M39.74,13.06c-0.04-0.34-0.17-0.43-0.49-0.42c-0.88,0.02-1.76-0.02-2.64,0c-0.3,0.01-0.41-0.12-0.51-0.38    c-0.25-0.7-0.51-1.4-0.83-2.08c-0.15-0.31-0.12-0.48,0.12-0.7c0.72-0.68,1.42-1.38,2.13-2.08c-1.23-1.96-2.78-3.54-4.72-4.77    c-0.73,0.72-1.43,1.44-2.16,2.13c-0.1,0.1-0.32,0.2-0.43,0.16c-0.88-0.36-1.75-0.76-2.68-1.16c0.01-1.09,0.01-2.22,0.02-3.36    c-2.23-0.46-4.42-0.5-6.66-0.03c-0.01,1.04-0.02,2.05-0.01,3.06c0,0.3-0.11,0.41-0.38,0.51c-0.7,0.25-1.4,0.51-2.08,0.83    c-0.31,0.15-0.48,0.11-0.7-0.13c-0.68-0.72-1.38-1.42-2.08-2.13c-1.96,1.24-3.54,2.79-4.75,4.68c0.03,0.06,0.04,0.1,0.06,0.12    c0.67,0.69,1.34,1.38,2.03,2.05c0.22,0.22,0.26,0.38,0.11,0.67c-0.27,0.52-0.51,1.05-0.72,1.6c-0.34,0.85-0.32,0.85-1.24,0.85    c-0.83-0.01-1.65-0.01-2.48-0.02c-0.33,1.57-0.43,3.1-0.31,4.64c1.11-0.36,2.3-0.55,3.53-0.55c6.39,0,11.58,5.18,11.58,11.58    c0,1.27-0.21,2.49-0.59,3.63c0.82,0.01,1.64,0.01,2.46,0.02c0.67-0.11,1.34-0.22,2.04-0.33c0.01-1.15,0.01-2.26,0.02-3.35    c0.93-0.4,1.82-0.8,2.71-1.16c0.09-0.04,0.29,0.09,0.39,0.18c0.72,0.71,1.42,1.44,2.13,2.17c1.95-1.22,3.52-2.77,4.8-4.73    c-0.69-0.69-1.38-1.4-2.09-2.09c-0.26-0.24-0.27-0.43-0.11-0.75c0.38-0.77,0.69-1.57,1.04-2.41c1.07,0.01,2.19,0.01,3.37,0.02    c0.12-0.7,0.24-1.38,0.36-2.06c0.01-0.88,0.01-1.76,0.02-2.64C39.91,14.11,39.79,13.58,39.74,13.06z M24.1,20.04    c-2.31-0.03-4.16-1.89-4.14-4.18c0.02-2.27,1.93-4.15,4.21-4.13c2.3,0.02,4.13,1.89,4.12,4.2C28.27,18.23,26.41,20.06,24.1,20.04z    "/>
  <path d="M2.99,27.75c0.26-0.01,0.52-0.02,0.78-0.02c0.41,0,0.81,0,1.23,0c0.04-0.26,0.07-0.51,0.12-0.76      c0.54-2.43,1.97-4.12,4.28-5.05c1.08-0.43,2.21-0.55,3.36-0.38c2.12,0.31,3.74,1.39,4.89,3.19c0.57,0.89,0.89,1.87,0.98,2.92      c0.17,2.02-0.41,3.78-1.77,5.28c-1.03,1.14-2.32,1.84-3.84,2.1c-0.29,0.05-0.58,0.08-0.88,0.1c-0.22,0.02-0.32-0.08-0.32-0.3      c0-0.76,0-1.53,0-2.29c0-0.21,0.08-0.3,0.27-0.31c1.69-0.1,3.17-1.34,3.56-3.02c0.49-2.15-0.83-4.25-2.98-4.74      c-2.16-0.49-4.33,0.95-4.72,3.13c-0.01,0.04,0,0.08-0.01,0.15c0.67,0,1.33,0,2.03,0c-0.06,0.08-0.08,0.13-0.12,0.17      c-1.04,1.04-2.09,2.08-3.13,3.12c-0.17,0.17-0.37,0.17-0.55-0.02c-0.68-0.67-1.35-1.35-2.03-2.02      c-0.39-0.38-0.78-0.77-1.16-1.15C2.99,27.81,2.99,27.78,2.99,27.75z"/>
</svg>
