<svg xmlns="http://www.w3.org/2000/svg" version="1.1" x="0px" y="0px" viewBox="0 0 40 40" style="enable-background:new 0 0 40 40;">
  <path d="M22.37,23.72c-0.11,0.05-0.21,0.1-0.32,0.16c-5.7,3-11.41,6-17.11,9.01C4.68,33.02,4.52,33,4.29,32.85   c-1.31-0.89-2.62-1.76-3.94-2.63c-0.19-0.12-0.42-0.26-0.33-0.51c0.06-0.16,0.26-0.33,0.43-0.39c8.89-3.24,17.79-6.47,26.69-9.71   c0.23-0.08,0.45-0.15,0.63,0.08c0.17,0.22,0.06,0.41-0.06,0.61c-4.04,6.46-8.08,12.92-12.12,19.38c-0.24,0.38-0.42,0.42-0.81,0.16   c-1.02-0.68-2.04-1.35-3.06-2.04c-0.18-0.13-0.31-0.13-0.49,0c-1.01,0.69-2.03,1.37-3.06,2.04c-0.16,0.1-0.43,0.17-0.56,0.1   c-0.13-0.07-0.22-0.34-0.22-0.53c-0.02-1.34,0-2.67-0.02-4.01c0-0.25,0.09-0.4,0.28-0.54c4.83-3.61,9.65-7.24,14.48-10.85   c0.1-0.07,0.19-0.15,0.29-0.22C22.4,23.75,22.38,23.74,22.37,23.72z"/>
  <path d="M40,10.26L29.74,0.01V0H18.18c-1.36,0-2.47,1.11-2.47,2.47v19c0.59-0.22,1.18-0.43,1.78-0.65V2.47   c0-0.38,0.31-0.69,0.69-0.69h9.77v7.8c0,1.36,1.11,2.47,2.47,2.47h7.8v15.37c0,0.38-0.31,0.69-0.69,0.69H25.38l-1.11,1.78h13.27   c1.36,0,2.47-1.11,2.47-2.47L40,10.26L40,10.26L40,10.26z M30.43,10.26c-0.38,0-0.69-0.31-0.69-0.69V2.52l7.76,7.74H30.43z"/>
</svg>
