<svg xmlns="http://www.w3.org/2000/svg" version="1.1" x="0px" y="0px" viewBox="0 0 40 40" style="enable-background:new 0 0 40 40;">
  <path d="M9.11,32.2l0.18-0.99l-0.05,0.3c-0.07,0.38-0.44,0.64-0.83,0.56c-1.24-0.25-2.6-0.67-3.5-1.91     c-1.07-1.47-0.84-3.2-0.65-4.6c0.07-0.49,0.18-1.31,0.1-1.55c-0.08-0.21-0.62-0.77-0.94-1.1c-0.99-1.03-2.23-2.32-2.23-4.19     c0-1.87,1.23-3.15,2.23-4.19c0.32-0.34,0.86-0.89,0.94-1.11c0.08-0.24-0.03-1.05-0.1-1.54c-0.19-1.4-0.42-3.14,0.65-4.61     c1.08-1.48,2.81-1.79,4.2-2.04c0.45-0.08,1.27-0.23,1.47-0.37C10.77,4.7,11.14,4,11.37,3.59c0.67-1.26,1.51-2.82,3.27-3.4     C15.03,0.06,15.44,0,15.87,0c1.24,0,2.33,0.53,3.3,1c0.49,0.23,1.21,0.58,1.48,0.58c0.27,0,1.03-0.36,1.48-0.58     c0.97-0.47,2.07-1,3.3-1c0.43,0,0.84,0.06,1.23,0.19c1.76,0.57,2.6,2.14,3.27,3.39c0.18,0.35,0.38,0.66,0.56,0.92     c0.2,0.28,0.16,0.67-0.09,0.91l-0.45,0.42c-0.31,0.3-0.81,0.24-1.06-0.11c-0.29-0.41-0.54-0.84-0.73-1.19     c-0.55-1.04-1.13-2.11-2.11-2.43c-0.19-0.06-0.4-0.09-0.61-0.09c-0.78,0-1.58,0.39-2.43,0.8c-0.8,0.38-1.62,0.78-2.35,0.78     c-0.73,0-1.55-0.39-2.34-0.78c-0.86-0.41-1.66-0.8-2.44-0.8c-0.22,0-0.42,0.03-0.61,0.09c-0.99,0.32-1.56,1.39-2.12,2.43     c-0.43,0.79-0.82,1.54-1.38,1.94c-0.57,0.41-1.41,0.56-2.3,0.72C8.32,7.41,7.13,7.62,6.53,8.45c-0.6,0.82-0.44,2-0.28,3.15     c0.12,0.91,0.24,1.76,0.02,2.44c-0.21,0.64-0.79,1.24-1.4,1.88c-0.82,0.85-1.67,1.73-1.67,2.8c0,1.06,0.85,1.94,1.67,2.8     c0.61,0.64,1.19,1.24,1.4,1.88c0.22,0.68,0.11,1.53-0.02,2.43c-0.16,1.15-0.32,2.34,0.28,3.15c0.48,0.67,1.34,0.93,2.25,1.12     c0.37,0.08,0.62,0.43,0.56,0.81L9.11,32.2z"/>
  <path d="M38.31,6.17c-0.24-0.14-0.64-0.25-1.22,0.07l-4.13,2.25c-0.23,0.12-0.31,0.41-0.19,0.63l0.2,0.38   c0.12,0.23,0.41,0.31,0.63,0.19l3.84-2.09v30.88l-7.38-5.43V10.49c0-0.74-0.6-1.35-1.35-1.35H14.3c-0.74,0-1.35,0.6-1.35,1.35   v21.22c0,0.26,0.21,0.47,0.47,0.47h0.43c0.26,0,0.47-0.21,0.47-0.47L14.3,10.5l14.42-0.01v22.56c0,0.41,0.18,0.79,0.52,1.07   l7.63,5.62c0.22,0.18,0.49,0.27,0.75,0.27c0.17,0,0.35-0.04,0.52-0.12c0.42-0.2,0.68-0.61,0.68-1.08V7.14   C38.81,6.72,38.63,6.36,38.31,6.17z"/>
</svg>
