<svg xmlns="http://www.w3.org/2000/svg" version="1.1" x="0px" y="0px" viewBox="0 0 40 40" style="enable-background:new 0 0 40 40;">
  <path d="M39.6,15.8c-0.3-0.3-0.6-0.4-1-0.4h-7l-2,2c-0.6,0.6-1.3,0.8-2,0.8c-0.8,0-1.5-0.3-2-0.8l-2-2h-7c-0.4,0-0.7,0.1-1,0.4   c-0.3,0.3-0.4,0.6-0.4,0.9l0,0c-1-0.3-2.1-0.4-3.2-0.4C5.3,16.3,0,21.6,0,28.1C0,34.7,5.3,40,11.9,40c6.6,0,11.9-5.3,11.9-11.9   c0-1.8-0.4-3.6-1.2-5.1h16c0.4,0,0.7-0.1,1-0.4c0.3-0.3,0.4-0.6,0.4-1v-4.8C40,16.4,39.9,16,39.6,15.8z M11.9,38.6   c-5.8,0-10.5-4.7-10.5-10.5s4.7-10.5,10.5-10.5c5.8,0,10.5,4.7,10.5,10.5S17.7,38.6,11.9,38.6z M34,20.8c-0.2,0.2-0.4,0.3-0.7,0.3   c-0.3,0-0.5-0.1-0.7-0.3c-0.2-0.2-0.3-0.4-0.3-0.7c0-0.3,0.1-0.5,0.3-0.7c0.2-0.2,0.4-0.3,0.7-0.3c0.3,0,0.5,0.1,0.7,0.3   c0.2,0.2,0.3,0.4,0.3,0.7C34.2,20.4,34.2,20.6,34,20.8z M37.8,20.8c-0.2,0.2-0.4,0.3-0.7,0.3c-0.3,0-0.5-0.1-0.7-0.3   c-0.2-0.2-0.3-0.4-0.3-0.7c0-0.3,0.1-0.5,0.3-0.7c0.2-0.2,0.4-0.3,0.7-0.3c0.3,0,0.5,0.1,0.7,0.3c0.2,0.2,0.3,0.4,0.3,0.7   C38.1,20.4,38,20.6,37.8,20.8z"/>
  <path d="M26.9,16c0.2,0.2,0.4,0.3,0.7,0.3c0.3,0,0.5-0.1,0.7-0.3l6.7-6.7c0.3-0.3,0.4-0.6,0.2-1c-0.2-0.4-0.5-0.6-0.9-0.6h-3.8V1   c0-0.3-0.1-0.5-0.3-0.7C29.9,0.1,29.7,0,29.4,0h-3.8c-0.3,0-0.5,0.1-0.7,0.3c-0.2,0.2-0.3,0.4-0.3,0.7v6.7h-3.8   c-0.4,0-0.7,0.2-0.9,0.6c-0.2,0.4-0.1,0.8,0.2,1L26.9,16z"/>
  <path d="M17.9,24.6c-1.1-1.8-2.8-2.9-4.9-3.2c-1.2-0.2-2.3-0.1-3.4,0.4c-2.3,0.9-3.7,2.6-4.3,5.1c-0.1,0.2-0.1,0.5-0.1,0.8   c-0.4,0-0.8,0-1.2,0c-0.3,0-0.5,0-0.8,0c0,0,0,0.1,0,0.1c0.4,0.4,0.8,0.8,1.2,1.1c0.7,0.7,1.3,1.3,2,2C6.6,31,6.8,31,7,30.9   c1-1,2.1-2.1,3.1-3.1c0,0,0.1-0.1,0.1-0.2c-0.7,0-1.4,0-2,0c0-0.1,0-0.1,0-0.1c0.4-2.2,2.6-3.6,4.7-3.1c2.1,0.5,3.5,2.6,3,4.7   c-0.4,1.7-1.9,2.9-3.6,3c-0.2,0-0.3,0.1-0.3,0.3c0,0.8,0,1.5,0,2.3c0,0.2,0.1,0.3,0.3,0.3c0.3,0,0.6,0,0.9-0.1   c1.5-0.3,2.8-1,3.8-2.1c1.4-1.5,1.9-3.3,1.8-5.3C18.8,26.4,18.5,25.4,17.9,24.6z"/>
</svg>
