<svg xmlns="http://www.w3.org/2000/svg" version="1.1" x="0px" y="0px" viewBox="0 0 40 40" style="enable-background:new 0 0 40 40;">
  <path d="M1.16,2.59C5.47,2.58,9.78,2.57,14.1,2.56c1.52,0,1.82,0.35,1.52,1.8c-0.8,3.93-1.6,7.85-2.43,11.77    c-0.07,0.35-0.23,0.89-0.55,0.98c-0.21,0.08-0.62-0.36-0.84-0.62c-1.05-1.23-2.06-2.49-3.18-3.85c-2.54,3.82-3.16,7.79-1.44,11.89    c2.32,5.54,6.76,7.88,12.75,7.76c0.3,1.97,0.6,3.96,0.91,6.05c-1.91,0.31-3.78,0.16-5.64-0.16c-1.2-0.21-2.12-0.38-3.18-0.77    c-1.5-0.61-2.24-0.98-3.3-1.64c-0.68-0.46-1.2-0.88-1.65-1.24c-6.05-4.83-8.7-13.73-6.03-20.74c0.85-2.23,2.01-4.25,3.53-6.09    c-1.24-1.57-2.45-3.1-3.66-4.63C0.84,2.92,0.92,2.68,1.16,2.59z"/>
  <path d="M20.11,7.7c-0.3-1.99-0.59-3.98-0.89-5.97c5.3-1.07,13.04,1.35,17.46,7.69c4.41,6.33,4.84,15.69-1.22,22.88    c0.9,1.11,1.85,2.21,2.73,3.37c0.33,0.44,0.83,1.11,0.79,1.47c-0.06,0.22-1.05,0.26-1.58,0.27c-3.89,0.03-7.78,0.03-11.67,0.03    c-1.27,0-1.59-0.39-1.34-1.63c0.81-3.99,1.62-7.97,2.46-11.95c0.07-0.35,0.16-0.79,0.57-0.96c0.28-0.04,0.61,0.38,0.83,0.64    c1.03,1.21,2.02,2.45,3.03,3.68c2.22-1.77,3.13-7.18,1.89-10.99C31.78,11.92,27.51,7.34,20.11,7.7z"/>
</svg>
