<svg xmlns="http://www.w3.org/2000/svg" version="1.1" x="0px" y="0px" viewBox="0 0 40 40" style="enable-background:new 0 0 40 40;">
  <path d="M11.86,16.26C5.31,16.26,0,21.57,0,28.12c0,6.55,5.31,11.87,11.87,11.87s11.87-5.31,11.87-11.87   C23.73,21.57,18.42,16.26,11.86,16.26z M11.86,38.6c-5.79,0-10.48-4.69-10.48-10.48c0-5.79,4.69-10.48,10.48-10.48   s10.48,4.69,10.48,10.48C22.34,33.91,17.65,38.6,11.86,38.6z"/>
  <path d="M2.99,27.77c0.26-0.01,0.52-0.02,0.78-0.02c0.41,0,0.81,0,1.23,0c0.04-0.26,0.07-0.51,0.12-0.76      c0.54-2.43,1.97-4.12,4.28-5.05c1.08-0.43,2.21-0.55,3.36-0.38c2.12,0.31,3.74,1.39,4.89,3.19c0.57,0.89,0.89,1.87,0.98,2.92      c0.17,2.02-0.41,3.78-1.77,5.28c-1.03,1.14-2.32,1.84-3.84,2.1c-0.29,0.05-0.58,0.08-0.88,0.1c-0.22,0.02-0.32-0.08-0.32-0.3      c0-0.76,0-1.53,0-2.29c0-0.21,0.08-0.3,0.27-0.31c1.69-0.1,3.17-1.34,3.56-3.02c0.49-2.15-0.83-4.25-2.98-4.74      c-2.16-0.49-4.33,0.95-4.72,3.13c-0.01,0.04,0,0.08-0.01,0.15c0.67,0,1.33,0,2.03,0c-0.06,0.08-0.08,0.13-0.12,0.17      C8.82,28.96,7.78,30,6.73,31.04c-0.17,0.17-0.37,0.17-0.55-0.02C5.51,30.35,4.83,29.68,4.16,29c-0.39-0.38-0.78-0.77-1.16-1.15      C2.99,27.83,2.99,27.8,2.99,27.77z"/>
  <path d="M39.87,20.85c-0.09-0.8-0.37-1.59-0.84-2.39c-0.47-0.8-1.21-1.56-2.2-2.29c-0.99-0.73-2.41-1.35-4.25-1.85   c-0.35-0.1-0.68-0.19-0.99-0.26c-0.31-0.07-0.61-0.15-0.91-0.22v-6.6c0.84,0,1.57,0.35,2.16,1.04c0.6,0.7,0.91,1.54,0.93,2.53h5.29   c-0.07-1.29-0.35-2.41-0.82-3.36c-0.47-0.94-1.08-1.73-1.83-2.37c-0.75-0.63-1.61-1.13-2.59-1.49c-0.98-0.36-2.03-0.6-3.15-0.73   V0.01h-2.2v2.87c-1.12,0.07-2.2,0.29-3.24,0.65c-1.04,0.36-1.96,0.87-2.76,1.53c-0.8,0.66-1.44,1.47-1.92,2.44   c-0.48,0.97-0.73,2.09-0.73,3.36c0,1.24,0.21,2.28,0.63,3.11c0.42,0.83,0.99,1.53,1.7,2.09c0.71,0.56,1.51,1.01,2.4,1.34   c0.89,0.34,1.8,0.63,2.72,0.88c0.25,0.05,0.48,0.11,0.69,0.17c0.21,0.06,0.38,0.12,0.5,0.17v7.79c-1.14-0.22-2.1-0.75-2.87-1.57   c-0.77-0.82-1.14-1.94-1.12-3.36H21.7c1.28,1.89,2.03,4.18,2.03,6.64c0,0.43-0.03,0.86-0.07,1.28c1.33,0.74,2.93,1.19,4.82,1.33   v3.17h2.2v-3.17c1.86-0.12,3.39-0.5,4.59-1.12c1.19-0.62,2.14-1.33,2.85-2.12c0.71-0.8,1.2-1.61,1.47-2.44   c0.27-0.83,0.41-1.52,0.41-2.07C40,22.35,39.96,21.65,39.87,20.85z M28.48,13.32c-1.19-0.27-2.05-0.63-2.57-1.08   c-0.52-0.45-0.78-1.08-0.78-1.9c0-0.52,0.09-0.97,0.28-1.36c0.19-0.38,0.44-0.71,0.76-0.97c0.32-0.26,0.68-0.45,1.08-0.58   c0.4-0.12,0.81-0.19,1.23-0.19V13.32z M34.33,24.3c-0.25,0.44-0.57,0.8-0.95,1.1c-0.39,0.3-0.82,0.53-1.3,0.69   c-0.48,0.16-0.95,0.27-1.4,0.32v-7.16c1.47,0.4,2.5,0.84,3.11,1.32c0.61,0.48,0.91,1.21,0.91,2.18   C34.71,23.35,34.58,23.86,34.33,24.3z"/>
</svg>
