<svg xmlns="http://www.w3.org/2000/svg" version="1.1" x="0px" y="0px" viewBox="0 0 40 40" style="enable-background:new 0 0 40 40;">
  <path d="M20.19,33.95c1.33-0.27,2.67-0.51,3.96-0.93c6.79-2.23,12.2-9.2,12.77-16.32c0.42-5.24-1-9.9-4.24-14.01  C31.98,1.81,31.22,1.01,30.34,0c-0.71,0.82-1.38,1.58-2.04,2.33c0.01,0.01,0.02,0.02,0.04,0.04l-1.32,1.32  c-2.5-2.09-5.73-3.34-9.24-3.34C9.81,0.34,3.35,6.8,3.35,14.77c0,3.52,1.26,6.74,3.34,9.24l-1.01,1.01l-0.09-0.09  C5.54,25,5.48,25.06,5.4,25.13c-0.82,0.71-1.57,1.5-2.39,2.29c0.26,0.27,0.41,0.46,0.59,0.62c3.54,3.41,7.65,5.61,12.63,5.99  c0.44,0.03,0.63,0.19,0.61,0.64c-0.03,0.68-0.03,1.36,0,2.04c0.02,0.49-0.19,0.64-0.66,0.63c-1.15-0.02-2.31-0.01-3.46-0.01  c-2.33,0-4.66-0.01-6.99,0.01c-0.97,0.01-1.56,0.72-1.39,1.61C4.47,39.63,5.03,40,5.94,40c8.14,0,16.28,0,24.42,0  c0.16,0,0.33,0,0.49-0.02c0.69-0.11,1.16-0.7,1.12-1.4c-0.03-0.67-0.54-1.18-1.23-1.23c-0.25-0.02-0.49-0.01-0.74-0.01  c-3.28,0-6.55-0.01-9.83,0.01c-0.55,0-0.74-0.18-0.71-0.72c0.03-0.62,0.05-1.24,0-1.85C19.42,34.2,19.69,34.05,20.19,33.95z   M6.73,27.68l1.81-1.81c2.5,2.09,5.73,3.34,9.24,3.34c7.97,0,14.44-6.46,14.44-14.44c0-3.52-1.26-6.74-3.34-9.24l1.71-1.71  c3.76,4.66,4.97,9.87,3.37,15.51c-1.86,6.52-6.31,10.66-12.98,12.02C15.77,32.42,11.03,31.19,6.73,27.68z"/>
</svg>
