<svg xmlns="http://www.w3.org/2000/svg" version="1.1" x="0px" y="0px" viewBox="0 0 40 40" style="enable-background:new 0 0 40 40;">
  <path d="M11.87,16.25C5.31,16.25,0,21.57,0,28.13C0,34.69,5.31,40,11.87,40s11.87-5.32,11.87-11.87   C23.75,21.57,18.43,16.25,11.87,16.25z M11.87,38.61c-5.79,0-10.48-4.69-10.48-10.48c0-5.79,4.69-10.48,10.48-10.48   s10.48,4.69,10.48,10.48C22.36,33.92,17.66,38.61,11.87,38.61z"/>
  <path d="M40,10.26L29.74,0.01V0H18.18c-1.36,0-2.47,1.11-2.47,2.47V16.9c0.62,0.21,1.21,0.46,1.78,0.77V2.47   c0-0.38,0.31-0.69,0.69-0.69h9.77v7.8c0,1.36,1.11,2.47,2.47,2.47h7.8v15.37c0,0.38-0.31,0.69-0.69,0.69H23.74   c0,0.01,0,0.02,0,0.03c0,0.6-0.06,1.18-0.14,1.75h13.93c1.36,0,2.47-1.11,2.47-2.47L40,10.26L40,10.26L40,10.26z M30.43,10.26   c-0.38,0-0.69-0.31-0.69-0.69V2.52l7.76,7.74H30.43z"/>
  <path d="M13.43,28.13l2.97-2.97c0.38-0.38,0.38-1,0-1.39l-0.17-0.17c-0.38-0.38-1-0.38-1.39,0l-2.97,2.97L8.9,23.6   c-0.38-0.38-1-0.38-1.39,0l-0.17,0.17c-0.38,0.38-0.38,1,0,1.39l2.97,2.97L7.35,31.1c-0.38,0.38-0.38,1,0,1.39l0.17,0.17   c0.38,0.38,1,0.38,1.39,0l2.97-2.97l2.97,2.97c0.38,0.38,1,0.38,1.39,0l0.17-0.17c0.38-0.38,0.38-1,0-1.39L13.43,28.13z"/>
</svg>
