<svg xmlns="http://www.w3.org/2000/svg" version="1.1" x="0px" y="0px" viewBox="0 0 40 40" style="enable-background:new 0 0 40 40;">
  <path d="M11.86,16.35C5.31,16.35,0,21.66,0,28.21c0,6.55,5.31,11.87,11.87,11.87s11.87-5.31,11.87-11.87    C23.73,21.66,18.42,16.35,11.86,16.35z M11.86,38.69C6.08,38.69,1.39,34,1.39,28.21c0-5.79,4.69-10.48,10.48-10.48    s10.48,4.69,10.48,10.48C22.34,34,17.65,38.69,11.86,38.69z"/>
  <path d="M2.99,27.85c0.26-0.01,0.52-0.02,0.78-0.02c0.41,0,0.81,0,1.23,0c0.04-0.26,0.07-0.51,0.12-0.76       c0.54-2.43,1.97-4.12,4.28-5.05c1.08-0.43,2.21-0.55,3.36-0.38c2.12,0.31,3.74,1.39,4.89,3.19c0.57,0.89,0.89,1.87,0.98,2.92       c0.17,2.02-0.41,3.78-1.77,5.28c-1.03,1.14-2.32,1.84-3.84,2.1c-0.29,0.05-0.58,0.08-0.88,0.1c-0.22,0.02-0.32-0.08-0.32-0.3       c0-0.76,0-1.53,0-2.29c0-0.21,0.08-0.3,0.27-0.31c1.69-0.1,3.17-1.34,3.56-3.02c0.49-2.15-0.83-4.25-2.98-4.74       c-2.16-0.49-4.33,0.95-4.72,3.13c-0.01,0.04,0,0.08-0.01,0.15c0.67,0,1.33,0,2.03,0c-0.06,0.08-0.08,0.13-0.12,0.17       c-1.04,1.04-2.09,2.08-3.13,3.12c-0.17,0.17-0.37,0.17-0.55-0.02c-0.68-0.67-1.35-1.35-2.03-2.02       c-0.39-0.38-0.78-0.77-1.16-1.15C2.99,27.92,2.99,27.88,2.99,27.85z"/>
  <path d="M26.62-0.08c-7.39,0-13.38,5.99-13.38,13.38c0,1.35,0.2,2.64,0.57,3.87c4.59,0.81,8.22,4.4,9.07,8.97   c1.19,0.34,2.44,0.54,3.74,0.54C34.01,26.68,40,20.69,40,13.3C40,5.91,34.01-0.08,26.62-0.08z M32.11,14.08l-8.32,4.8   c-0.6,0.35-1.34-0.09-1.34-0.78V8.5c0-0.69,0.75-1.12,1.34-0.78l8.32,4.8C32.7,12.87,32.7,13.73,32.11,14.08z"/>
</svg>
