<svg xmlns="http://www.w3.org/2000/svg" version="1.1" x="0px" y="0px" viewBox="0 0 40 40" style="enable-background:new 0 0 40 40;">
  <path d="M17.65,24.74c-1.14-1.8-2.77-2.88-4.89-3.19c-1.15-0.17-2.28-0.06-3.36,0.38c-2.31,0.93-3.74,2.62-4.28,5.05   c-0.05,0.25-0.08,0.5-0.12,0.76c-0.42,0-0.82,0-1.23,0c-0.26,0-0.52,0.01-0.78,0.02c0,0.03,0,0.06,0,0.09   c0.39,0.38,0.78,0.76,1.16,1.15c0.68,0.67,1.35,1.35,2.03,2.02c0.18,0.18,0.38,0.19,0.55,0.02c1.04-1.04,2.09-2.08,3.13-3.12   c0.04-0.04,0.06-0.08,0.12-0.17c-0.7,0-1.36,0-2.03,0c0-0.07,0-0.11,0.01-0.15c0.39-2.18,2.56-3.62,4.72-3.13   c2.15,0.49,3.48,2.59,2.98,4.74c-0.39,1.69-1.87,2.93-3.56,3.02c-0.2,0.01-0.27,0.1-0.27,0.31c0,0.76,0,1.53,0,2.29   c0,0.22,0.1,0.32,0.32,0.3c0.29-0.03,0.59-0.05,0.88-0.1c1.52-0.27,2.8-0.97,3.84-2.1c1.36-1.5,1.94-3.27,1.77-5.28   C18.54,26.61,18.21,25.63,17.65,24.74z"/>
  <path d="M32.5,0.01c-5,0-10,0-15,0c0,3.12,0,6.24,0,9.35c5.02,0,10,0,15,0C32.5,6.23,32.5,3.12,32.5,0.01z"/>
  <path d="M39.95,8.82c-0.17-0.86-0.64-1.53-1.24-2.14c-1.23-1.23-2.78-1.07-4.34-1.02c0,1.87,0,3.73,0,5.59c-6.26,0-12.48,0-18.73,0   c0-0.94,0-1.87,0-2.79c0-0.93,0-1.87,0-2.82c-0.63,0-1.23,0-1.82,0c-1.98,0.01-3.8,1.84-3.8,3.82c0,2.32,0,4.64,0,6.96   C4.34,17.31,0,22.2,0,28.12c0,6.55,5.31,11.87,11.87,11.87c6.55,0,11.87-5.31,11.87-11.87c0,0,0-0.01,0-0.01c2.92,0,5.84,0,8.76,0   c0-3.11,0-6.21,0-9.34c-4.46,0-8.9,0-13.33,0c-1.04-0.81-2.21-1.45-3.48-1.88c6.25,0,12.46,0,18.71,0c0,1.87,0,3.73,0,5.61   c0.54,0,1.05-0.02,1.55,0c1.41,0.06,2.46-0.59,3.31-1.66c0.38-0.48,0.58-1.05,0.75-1.62c0-3.44,0-6.87,0-10.31   C39.98,8.88,39.95,8.85,39.95,8.82z M11.86,38.6c-5.79,0-10.48-4.69-10.48-10.48c0-5.79,4.69-10.48,10.48-10.48   c5.79,0,10.48,4.69,10.48,10.48C22.34,33.91,17.65,38.6,11.86,38.6z M30.61,26.24c-2.34,0-4.69,0-7.04,0   c-0.1-0.63-0.25-1.25-0.44-1.84c2.49,0,4.98,0,7.48,0C30.61,25,30.61,25.61,30.61,26.24z M30.62,22.49c-2.77,0-5.54,0-8.31,0   c-0.35-0.65-0.77-1.27-1.23-1.84c3.17,0,6.34,0,9.54,0C30.62,21.27,30.62,21.87,30.62,22.49z"/>
</svg>
