<svg xmlns="http://www.w3.org/2000/svg" version="1.1" x="0px" y="0px" viewBox="0 0 41.635 64" enable-background="new 0 0 41.635 64">
  <path fill="#FFFFFF" d="M30.793,12.05h-19.95c-5.509,0-9.975,4.466-9.975,9.975v19.95c0,5.509,4.466,9.975,9.975,9.975h19.95    c5.509,0,9.975-4.466,9.975-9.975v-19.95C40.768,16.516,36.302,12.05,30.793,12.05L30.793,12.05z"/>
  <path fill="#CFCFCE" d="M31.226,12.917c4.783,0,8.674,3.891,8.674,8.674v20.818c0,4.783-3.891,8.674-8.674,8.674H10.409     c-4.783,0-8.674-3.891-8.674-8.674V21.591c0-4.783,3.891-8.674,8.674-8.674H31.226 M31.226,11.182H10.409     C4.66,11.182,0,15.843,0,21.591v20.818c0,5.749,4.66,10.409,10.409,10.409h20.818c5.749,0,10.409-4.66,10.409-10.409V21.591     C41.635,15.843,36.975,11.182,31.226,11.182L31.226,11.182z"/>
  <path fill="#C32327" d="M23.172,23.326L22.43,29.99l6.754-1.884l0.598,4.565l-6.158,0.433l4.039,5.379l-4.111,2.192l-2.825-5.668   l-2.48,5.631l-4.274-2.155l4.002-5.379l-6.121-0.47l0.707-4.528l6.61,1.884l-0.742-6.664H23.172z"/>
</svg>
