<svg xmlns="http://www.w3.org/2000/svg" version="1.1" x="0px" y="0px" viewBox="0 0 40 40" style="enable-background:new 0 0 40 40;">
  <path d="M11.86,16.26C5.31,16.26,0,21.57,0,28.12c0,6.55,5.31,11.87,11.87,11.87s11.87-5.31,11.87-11.87   C23.73,21.57,18.42,16.26,11.86,16.26z M11.86,38.6c-5.79,0-10.48-4.69-10.48-10.48c0-5.79,4.69-10.48,10.48-10.48   s10.48,4.69,10.48,10.48C22.34,33.91,17.65,38.6,11.86,38.6z"/>
  <path d="M2.99,27.77c0.26-0.01,0.52-0.02,0.78-0.02c0.41,0,0.81,0,1.23,0c0.04-0.26,0.07-0.51,0.12-0.76      c0.54-2.43,1.97-4.12,4.28-5.05c1.08-0.43,2.21-0.55,3.36-0.38c2.12,0.31,3.74,1.39,4.89,3.19c0.57,0.89,0.89,1.87,0.98,2.92      c0.17,2.02-0.41,3.78-1.77,5.28c-1.03,1.14-2.32,1.84-3.84,2.1c-0.29,0.05-0.58,0.08-0.88,0.1c-0.22,0.02-0.32-0.08-0.32-0.3      c0-0.76,0-1.53,0-2.29c0-0.21,0.08-0.3,0.27-0.31c1.69-0.1,3.17-1.34,3.56-3.02c0.49-2.15-0.83-4.25-2.98-4.74      c-2.16-0.49-4.33,0.95-4.72,3.13c-0.01,0.04,0,0.08-0.01,0.15c0.67,0,1.33,0,2.03,0c-0.06,0.08-0.08,0.13-0.12,0.17      C8.82,28.96,7.78,30,6.73,31.04c-0.17,0.17-0.37,0.17-0.55-0.02C5.51,30.35,4.83,29.68,4.16,29c-0.39-0.38-0.78-0.77-1.16-1.15      C2.99,27.83,2.99,27.8,2.99,27.77z"/>
  <path d="M24.36,9.27V6.43c0-1.97,1.6-3.57,3.57-3.57h2.77c1.97,0,3.57,1.6,3.57,3.57v2.84h2.85V6.43c0-3.54-2.87-6.42-6.42-6.42   h-2.77c-3.54,0-6.42,2.87-6.42,6.42v2.84H24.36z"/>
  <path d="M37.52,10.23H21.1c-1.37,0-2.48,1.11-2.48,2.48v6.09c2.43,1.77,4.14,4.46,4.62,7.57h14.28c1.37,0,2.48-1.11,2.48-2.48V12.7   C40,11.34,38.89,10.23,37.52,10.23z M30.52,20.77v1.32c0,0.67-0.54,1.21-1.21,1.21s-1.21-0.54-1.21-1.21v-1.32   c-0.92-0.45-1.56-1.38-1.56-2.47c0-1.53,1.24-2.76,2.76-2.76s2.76,1.24,2.76,2.76C32.08,19.39,31.44,20.32,30.52,20.77z"/>
</svg>
