<svg xmlns="http://www.w3.org/2000/svg" version="1.1" x="0px" y="0px" viewBox="0 0 40 40" style="enable-background:new 0 0 40 40;">
  <path d="M17.97,40c0.32-0.15,0.66-0.25,0.94-0.44c0.71-0.49,1.08-1.18,1.09-2.05c0.01-1.41,0-2.81,0-4.22c0-0.25,0-0.49,0-0.78    c0.83,0,1.64,0,2.48,0c0-0.84,0-1.65,0-2.49c-0.8,0-1.62,0-2.48,0c0-0.56,0-1.07,0-1.59c0-1.55,0-3.1,0.01-4.65    c0-0.14,0.05-0.32,0.14-0.41c2.4-2.41,4.8-4.81,7.2-7.21c0.02-0.02,0.06-0.04,0.15-0.08c0,0.64,0,1.25,0,1.85    c0,1.51-0.01,3.02,0,4.53c0.02,1.51,1.12,2.57,2.62,2.54c1.34-0.03,2.38-1.19,2.38-2.63c-0.01-4.06-0.01-8.12,0-12.18    c0-1.61-1.08-2.69-2.68-2.69c-4.06,0.01-8.12,0.01-12.18,0c-1.46,0-2.62,1.05-2.64,2.41c-0.02,1.49,1.04,2.57,2.57,2.59    c1.95,0.02,3.9,0,5.86,0c0.14,0,0.28,0,0.51,0c-0.11,0.13-0.17,0.21-0.24,0.29c-2.34,2.34-4.67,4.68-7.01,7.01    c-0.1,0.1-0.26,0.19-0.39,0.2C14.24,20,12.18,20,10.12,20c-0.02,0-0.05-0.01-0.12-0.03c0-0.8,0-1.61,0-2.45c-0.84,0-1.65,0-2.49,0    c0,0.81,0,1.62,0,2.48c-0.18,0-0.32,0-0.46,0c-1.43,0-2.86,0-4.3,0c-1.46,0-2.23,0.56-2.7,1.94C0.05,21.97,0.02,22,0,22.03    c0,5.31,0,10.62,0,15.94c0.16,0.34,0.29,0.69,0.49,1c0.36,0.57,0.94,0.82,1.55,1.03C7.34,40,12.66,40,17.97,40z"/>
  <path d="M40,25c-0.82,0-1.63,0-2.49,0c0,1.67,0,3.32,0,4.99c-1.68,0-3.31,0-4.98,0c0,0.84,0,1.65,0,2.51c0.74,0,1.47,0,2.21,0    c0.86,0,1.72,0,2.58,0c1.35,0,2.19-0.61,2.61-1.9c0.02-0.05,0.05-0.09,0.07-0.13C40,28.65,40,26.82,40,25z"/>
  <path d="M9.53,0C9.01,0.2,8.49,0.4,8.12,0.85C7.72,1.33,7.5,1.87,7.5,2.49c0,1.65,0,3.3,0,4.98c0.83,0,1.64,0,2.49,0    c0-1.65,0-3.29,0-4.97c1.68,0,3.31,0,5,0c0-0.85,0-1.68,0-2.51C13.18,0,11.35,0,9.53,0z"/>
  <path d="M32.5,0c0,0.82,0,1.63,0,2.5c1.67,0,3.32,0,4.99,0c0,1.68,0,3.31,0,5c0.86,0,1.68,0,2.51,0c0-1.82,0-3.65,0-5.47    c-0.16-0.33-0.29-0.69-0.49-1C39.16,0.47,38.57,0.21,37.97,0C36.15,0,34.32,0,32.5,0z"/>
  <path d="M40,17.5c-0.82,0-1.63,0-2.48,0c0,1.67,0,3.31,0,5c0.83,0,1.65,0,2.48,0C40,20.83,40,19.17,40,17.5z"/>
  <path d="M40,10c-0.82,0-1.63,0-2.48,0c0,1.67,0,3.31,0,5c0.82,0,1.65,0,2.48,0C40,13.33,40,11.67,40,10z"/>
  <path d="M17.5,0c0,0.82,0,1.63,0,2.48c1.67,0,3.31,0,5,0c0-0.83,0-1.65,0-2.48C20.83,0,19.17,0,17.5,0z"/>
  <path d="M25,0c0,0.82,0,1.63,0,2.48c1.66,0,3.3,0,5,0c0-0.82,0-1.65,0-2.48C28.33,0,26.67,0,25,0z"/>
  <path d="M29.98,30.02c-1.67,0-3.3,0-4.96,0c0,0.82,0,1.62,0,2.45c1.64,0,3.29,0,4.96,0C29.98,31.67,29.98,30.86,29.98,30.02z"/>
  <path d="M7.52,14.98c0.83,0,1.63,0,2.46,0c0-1.65,0-3.29,0-4.95c-0.81,0-1.62,0-2.46,0C7.52,11.66,7.52,13.31,7.52,14.98z"/>
</svg>
