<svg xmlns="http://www.w3.org/2000/svg" version="1.1" x="0px" y="0px" viewBox="0 0 40 40" style="enable-background:new 0 0 40 40;">
  <path d="M11.87,16.25C5.32,16.25,0,21.57,0,28.13C0,34.69,5.32,40,11.87,40s11.87-5.32,11.87-11.87   C23.75,21.57,18.43,16.25,11.87,16.25z M11.87,38.61c-5.79,0-10.48-4.69-10.48-10.48c0-5.79,4.69-10.48,10.48-10.48   s10.48,4.69,10.48,10.48C22.36,33.92,17.66,38.61,11.87,38.61z"/>
  <path d="M39.95,7.96c0.02,0.27,0.05,0.47,0.05,0.67c0,3.6,0,7.19,0.01,10.79c0,0.43-0.15,0.65-0.54,0.82   c-3.86,1.71-7.7,3.45-11.55,5.17c-0.16,0.07-0.32,0.11-0.53,0.18c-0.02-0.24-0.04-0.42-0.04-0.61c0-3.66,0-7.33-0.01-10.99   c0-0.39,0.13-0.58,0.48-0.73c3.88-1.7,7.75-3.41,11.62-5.12C39.57,8.07,39.73,8.03,39.95,7.96z"/>
  <path d="M13.29,5.51c0.25-0.13,0.42-0.23,0.6-0.31c3.93-1.69,7.85-3.38,11.78-5.08c0.34-0.15,0.63-0.15,0.97,0   c3.82,1.69,7.66,3.37,11.48,5.05c0.2,0.09,0.4,0.2,0.68,0.35c-0.26,0.13-0.43,0.23-0.61,0.31c-4.02,1.65-8.04,3.3-12.05,4.96   c-0.32,0.13-0.58,0.11-0.89-0.02c-3.8-1.65-7.59-3.3-11.39-4.95C13.67,5.73,13.52,5.63,13.29,5.51z"/>
  <path d="M24.21,13.23c-3.87-1.68-7.73-3.38-11.6-5.07c-0.17-0.07-0.35-0.12-0.56-0.19c-0.01,0.24-0.03,0.43-0.03,0.62   c0,2.56,0,5.12-0.01,7.68c5.43,0.06,9.98,3.76,11.32,8.78c0.27,0.12,0.53,0.24,0.8,0.36c0.17,0.07,0.34,0.12,0.55,0.19   c0.02-0.26,0.04-0.46,0.05-0.66c0-3.62,0-7.25,0.01-10.87C24.74,13.63,24.61,13.41,24.21,13.23z"/>
  <path d="M16.84,27.97c-0.74-0.83-1.64-1.44-2.72-1.77c-0.55-0.17-1.1-0.29-1.67-0.29c-0.17,0-0.2-0.07-0.2-0.22   c0-0.56,0.01-1.13,0-1.69c0-0.14-0.02-0.29-0.05-0.42c-0.15-0.61-0.88-0.93-1.43-0.62c-0.32,0.19-0.63,0.41-0.94,0.61   c-0.94,0.62-1.87,1.24-2.81,1.86c-0.8,0.53-1.57,1.1-2.39,1.59c-0.66,0.4-0.75,1.33-0.08,1.79c0.62,0.42,1.25,0.83,1.87,1.24   c1.33,0.89,2.66,1.78,3.99,2.66c0.22,0.15,0.44,0.32,0.72,0.34c0.59,0.04,1.1-0.38,1.12-1.02c0.02-0.62,0.01-1.23,0-1.85   c0-0.16,0.05-0.23,0.21-0.2c0.17,0.02,0.34,0.04,0.51,0.06c0.31,0.05,0.63,0.07,0.93,0.16c0.82,0.25,1.57,0.62,2.23,1.17   c0.71,0.6,1.27,1.29,1.65,2.14c0.07,0.15,0.15,0.3,0.22,0.45c0.03,0,0.06,0,0.09,0c0.09-0.46,0.21-0.92,0.26-1.39   c0.08-0.82-0.01-1.63-0.26-2.43C17.82,29.34,17.4,28.61,16.84,27.97z"/>
</svg>
