<svg xmlns="http://www.w3.org/2000/svg" version="1.1" x="0px" y="0px" viewBox="0 0 40 40" style="enable-background:new 0 0 40 40;">
  <path d="M34.22,31.7c-0.16-0.32-0.32-0.63-0.47-0.95c-0.8-1.77-1.98-3.24-3.47-4.49c-1.39-1.17-2.97-1.95-4.69-2.47  c-0.63-0.19-1.29-0.24-1.94-0.34c-0.36-0.06-0.72-0.08-1.07-0.13c-0.34-0.05-0.44,0.1-0.44,0.43c0.01,1.29,0.04,2.59-0.01,3.88  c-0.05,1.34-1.11,2.22-2.35,2.13c-0.58-0.04-1.05-0.39-1.51-0.71c-2.79-1.86-5.59-3.73-8.38-5.59c-1.31-0.87-2.62-1.73-3.92-2.61  c-1.42-0.96-1.22-2.91,0.17-3.75c1.72-1.04,3.35-2.23,5.02-3.35c1.96-1.31,3.93-2.6,5.9-3.9c0.66-0.43,1.29-0.9,1.97-1.29  c1.14-0.66,2.68,0.01,3,1.3c0.07,0.29,0.11,0.59,0.11,0.89c0.01,1.19,0.01,2.37,0,3.56c0,0.3,0.05,0.45,0.42,0.46  c1.2,0.01,2.36,0.26,3.5,0.61c2.27,0.69,4.15,1.97,5.71,3.71c1.19,1.33,2.07,2.87,2.61,4.6c0.52,1.67,0.72,3.37,0.55,5.09  c-0.1,0.98-0.35,1.94-0.54,2.91C34.34,31.69,34.28,31.69,34.22,31.7z"/>
</svg>
