<svg xmlns="http://www.w3.org/2000/svg" version="1.1" x="0px" y="0px" viewBox="0 0 40 40" style="enable-background:new 0 0 40 40;">
  <path d="M31.93,22.79c0.86-1.18,0.27-3.14,0.73-4.55c0.44-1.36,2.09-2.6,2.09-4.11s-1.64-2.75-2.09-4.11   c-0.46-1.41,0.13-3.38-0.73-4.55c-0.87-1.19-2.92-1.23-4.11-2.1c-1.18-0.86-1.85-2.8-3.26-3.26C23.19-0.34,21.51,0.82,20,0.82   c-1.51,0-3.19-1.17-4.56-0.72c-1.41,0.46-2.08,2.4-3.26,3.26c-1.19,0.87-3.24,0.91-4.11,2.1C7.22,6.63,7.81,8.6,7.35,10.01   c-0.44,1.36-2.09,2.6-2.09,4.11c0,1.51,1.64,2.75,2.09,4.11c0.46,1.41-0.13,3.38,0.73,4.55c0.87,1.19,2.92,1.23,4.11,2.1   c0.16,0.12,0.31,0.26,0.46,0.41l-4.79,11.2l4.93,0.63L16.81,40l3.57-7.56l2.8,5.6l4.19-3.27l4.77-0.24l-4.56-9.44   c0.08-0.07,0.15-0.14,0.23-0.2C29.01,24.02,31.06,23.98,31.93,22.79z M11.52,14.12c0-4.69,3.8-8.48,8.48-8.48s8.48,3.8,8.48,8.48   S24.69,22.6,20,22.6S11.52,18.81,11.52,14.12z"/>
  <circle cx="20" cy="14.12" r="5.83"/>
</svg>
