<svg xmlns="http://www.w3.org/2000/svg" version="1.1" x="0px" y="0px" viewBox="0 0 40 40" style="enable-background:new 0 0 40 40;">
  <path d="M38.13,24.65c-0.55-0.29-1.16-0.43-1.77-0.43l-2.19-6.31c-0.98-3.1-3.61-3.66-4.98-3.52h-0.05V5.03H10.85v9.36h-0.02   c-1.37-0.15-4.01,0.41-4.99,3.52c0,0-1.54,4.41-2.2,6.31c-0.61,0.01-1.21,0.14-1.77,0.43C0.97,25.13,0.3,25.94,0,26.93l1.85,0.56   C2,27,2.33,26.6,2.78,26.36c0.45-0.24,0.97-0.29,1.46-0.14c0.49,0.15,0.9,0.48,1.14,0.94c0.24,0.45,0.29,0.97,0.14,1.46l1.85,0.57   c0.3-0.98,0.2-2.03-0.28-2.93c-0.25-0.47-0.6-0.88-1.01-1.21l2.21-6.36c0.58-1.83,2.02-1.76,2.31-1.73l0.07,0.01l0.09,0h0.08v1.24   l-2.28,8.48H8.52l0.03,0.12L8.52,26.9h0.05l0.31,1.43h22.22l0.31-1.43h0.04l-0.02-0.09l0.03-0.12h-0.06l-2.26-8.45v-1.27h0.17   l0.09-0.01c0.29-0.03,1.73-0.1,2.31,1.73l2.21,6.36c-0.41,0.32-0.75,0.73-1.01,1.2c-0.48,0.91-0.58,1.95-0.28,2.93l1.85-0.57   c-0.15-0.49-0.1-1,0.14-1.46c0.24-0.45,0.64-0.79,1.14-0.94c0.49-0.15,1.01-0.1,1.46,0.14C37.67,26.6,38,27,38.15,27.49L40,26.93   C39.7,25.95,39.03,25.13,38.13,24.65z M28.49,20.56h-2.33l-0.24-1.44h2.24L28.49,20.56z M12.95,7.02h13.85v9.58H12.95V7.02z    M11.71,19.12h2.24l-0.25,1.44h-2.33L11.71,19.12z M12.84,25.53h-2.65l0.44-1.85h2.54L12.84,25.53z M10.81,22.89l0.39-1.63h2.38   l-0.28,1.63L10.81,22.89z M16.2,25.53h-2.65l0.29-1.85h2.53L16.2,25.53z M16.44,22.89h-2.48l0.25-1.63h2.38L16.44,22.89z    M16.66,20.56h-2.33l0.22-1.44h2.24L16.66,20.56z M19.56,25.53h-2.65l0.13-1.85h2.54L19.56,25.53z M19.59,22.89h-2.48l0.12-1.63   h2.38L19.59,22.89z M19.62,20.56h-2.33l0.11-1.44h2.24L19.62,20.56z M20.23,19.12h2.24l0.1,1.44h-2.33L20.23,19.12z M20.25,21.26   h2.38l0.12,1.63h-2.49L20.25,21.26z M20.28,25.53l-0.01-1.85h2.53l0.13,1.85H20.28z M23.08,19.12h2.24l0.22,1.44H23.2L23.08,19.12z    M23.26,21.26h2.38l0.25,1.63h-2.48L23.26,21.26z M23.64,25.53l-0.16-1.85h2.53l0.28,1.85H23.64z M26.28,21.26h2.38l0.38,1.63   h-2.48L26.28,21.26z M29.22,23.68l0.43,1.85H27l-0.31-1.85H29.22z"/>
  <rect x="21.72" y="9.69" width="2.21" height="3.94"/>
  <rect x="16.07" y="9.69" width="2.21" height="3.94"/>
  <path d="M26.01,30.29H13.48c-1.29,0-2.34,1.05-2.34,2.34c0,1.29,1.05,2.34,2.34,2.34h12.52c1.29,0,2.34-1.05,2.34-2.34   C28.35,31.34,27.3,30.29,26.01,30.29z"/>
</svg>
