<svg xmlns="http://www.w3.org/2000/svg" version="1.1" x="0px" y="0px" viewBox="0 0 40 40" style="enable-background:new 0 0 40 40;">
  <path d="M40,18.61c-0.66-0.02-1.32-0.05-1.99-0.06c-1.04-0.01-2.08,0-3.14,0c-0.1-0.66-0.17-1.31-0.31-1.94    C33.17,10.4,29.53,6.08,23.63,3.7c-2.75-1.11-5.64-1.4-8.58-0.97c-5.4,0.79-9.56,3.54-12.48,8.13c-1.44,2.27-2.27,4.78-2.5,7.46    C-0.36,23.48,1.12,28,4.59,31.82c2.64,2.9,5.93,4.69,9.8,5.37c0.74,0.13,1.49,0.19,2.24,0.26c0.57,0.05,0.81-0.21,0.81-0.77    c0-1.95,0-3.9,0-5.86c0-0.53-0.19-0.76-0.69-0.79c-4.32-0.25-8.1-3.42-9.09-7.72c-1.26-5.48,2.13-10.86,7.62-12.1    c5.51-1.25,11.06,2.44,12.05,7.99c0.02,0.1,0.01,0.2,0.02,0.37c-1.71,0-3.39,0-5.18,0c0.14,0.21,0.2,0.34,0.3,0.43    c2.66,2.66,5.33,5.31,8,7.96c0.44,0.44,0.94,0.42,1.41-0.04c1.73-1.72,3.45-3.44,5.17-5.15c0.99-0.98,1.98-1.95,2.97-2.93    C40,18.76,40,18.68,40,18.61z"/>
</svg>
