<svg xmlns="http://www.w3.org/2000/svg" version="1.1" x="0px" y="0px" viewBox="0 0 40 40" style="enable-background:new 0 0 40 40;">
  <path d="M22.71,9.16C20.05,6.81,16.66,6.93,15.77,7H11.3V5.78v-4.8c0-0.86-1.03-1.3-1.66-0.71L0.3,9.13   c-0.41,0.39-0.41,1.04,0,1.42l9.34,8.86c0.63,0.59,1.66,0.15,1.66-0.71v-4.8v-2.01h4.59l0.27-0.02c0.02,0,2.03-0.19,3.32,0.97   c0.86,0.78,1.3,2.11,1.3,3.95v1.9c0,1.35,1.09,2.44,2.44,2.44c1.35,0,2.44-1.09,2.44-2.44v-1.9C25.68,13.48,24.68,10.91,22.71,9.16   z"/>
  <path d="M39.7,29.45l-9.34-8.86c-0.63-0.59-1.66-0.15-1.66,0.71v4.8v2.01H24.1l-0.27,0.02c-0.02,0-2.04,0.19-3.32-0.97   c-0.86-0.78-1.3-2.11-1.3-3.95v-1.9c0-1.35-1.09-2.44-2.44-2.44s-2.44,1.09-2.44,2.44v1.9c0,3.32,1,5.88,2.97,7.63   c2.15,1.9,4.78,2.19,6.18,2.19c0.33,0,0.59-0.02,0.76-0.03h4.47v1.22v4.8c0,0.86,1.03,1.3,1.66,0.71l9.34-8.86   C40.1,30.48,40.1,29.83,39.7,29.45z"/>
</svg>
