<svg xmlns="http://www.w3.org/2000/svg" version="1.1" x="0px" y="0px" viewBox="0 0 40 40" style="enable-background:new 0 0 40 40;">
  <path d="M39.99,38.09c0.04,0.51-0.13,0.96-0.51,1.33C39.14,39.81,38.71,40,38.18,40h-4.06c-0.49,0-0.91-0.17-1.26-0.5   c-0.35-0.33-0.53-0.73-0.55-1.21c-0.23-4.07-1.18-7.94-2.87-11.6c-1.69-3.66-3.88-6.85-6.58-9.55s-5.88-4.89-9.55-6.58   C9.64,8.88,5.78,7.92,1.7,7.67C1.23,7.65,0.83,7.47,0.5,7.12C0.17,6.77,0,6.36,0,5.88V1.82c0-0.53,0.19-0.97,0.57-1.31   C0.91,0.17,1.32,0,1.82,0H1.9c4.96,0.25,9.71,1.38,14.25,3.41c4.53,2.03,8.56,4.81,12.09,8.35c3.54,3.52,6.33,7.55,8.35,12.09   C38.61,28.39,39.75,33.13,39.99,38.09z M25.45,38.04c0.04,0.53-0.12,0.99-0.48,1.36c-0.34,0.4-0.79,0.6-1.33,0.6H19.8   c-0.47,0-0.88-0.16-1.22-0.47c-0.34-0.31-0.53-0.7-0.57-1.18c-0.42-4.34-2.16-8.04-5.24-11.12S5.98,22.4,1.65,21.99   c-0.47-0.04-0.87-0.23-1.18-0.57C0.16,21.08,0,20.67,0,20.2v-3.84c0-0.55,0.2-0.99,0.6-1.33c0.32-0.32,0.73-0.48,1.22-0.48h0.14   c3.03,0.25,5.93,1.01,8.69,2.29c2.76,1.28,5.22,3,7.36,5.15c2.16,2.14,3.88,4.59,5.15,7.36C24.44,32.11,25.21,35.01,25.45,38.04z    M9.32,30.68c1.06,1.06,1.59,2.35,1.59,3.86c0,1.52-0.53,2.8-1.59,3.86C8.26,39.47,6.97,40,5.45,40c-1.52,0-2.8-0.53-3.86-1.59   C0.53,37.35,0,36.06,0,34.54c0-1.51,0.53-2.8,1.59-3.86c1.06-1.06,2.35-1.59,3.86-1.59C6.97,29.09,8.26,29.62,9.32,30.68z"/>
</svg>
