<svg xmlns="http://www.w3.org/2000/svg" version="1.1" x="0px" y="0px" viewBox="0 0 40 40" style="enable-background:new 0 0 40 40;">
  <path d="M36.73,3.92H15.87h-5.05H3.27C1.47,3.92,0,5.39,0,7.19v25.62c0,1.8,1.47,3.27,3.27,3.27h7.55h5.05h20.87     c1.8,0,3.27-1.47,3.27-3.27V7.19C40,5.39,38.53,3.92,36.73,3.92z M37.65,32.81c0,0.51-0.41,0.92-0.92,0.92H15.87h-5.05H3.27     c-0.5,0-0.92-0.41-0.92-0.92V7.19c0-0.5,0.41-0.92,0.92-0.92h7.55h5.05h20.87c0.5,0,0.92,0.41,0.92,0.92V32.81z"/>
  <rect x="6.21" y="9.09" width="1.61" height="21.81"/>
  <rect x="10.43" y="9.09" width="3" height="21.81"/>
  <rect x="30.61" y="9.09" width="3" height="21.81"/>
  <rect x="21.68" y="9.09" width="1.61" height="21.81"/>
  <rect x="16.17" y="9.09" width="3" height="21.81"/>
  <rect x="26.67" y="9.09" width="1.61" height="21.81"/>
</svg>
