<svg xmlns="http://www.w3.org/2000/svg" version="1.1" x="0px" y="0px" viewBox="0 0 40 40" style="enable-background:new 0 0 40 40;">
  <rect x="5.93" y="29.79" width="0.56" height="1.81"/>
  <rect x="5.93" y="27.56" width="0.56" height="1.81"/>
  <rect x="10.48" y="27.56" width="0.56" height="1.81"/>
  <rect x="6.92" y="29.79" width="0.56" height="1.81"/>
  <rect x="6.92" y="27.56" width="0.56" height="1.81"/>
  <rect x="9.49" y="29.79" width="0.56" height="1.81"/>
  <rect x="10.48" y="29.79" width="0.56" height="1.81"/>
  <rect x="9.49" y="27.56" width="0.56" height="1.81"/>
  <polygon points="20.44,19.31 19.98,19.31 19.98,20.23 19.98,20.63 19.98,20.75 21.41,20.49 20.44,20.31  "/>
  <rect x="30.26" y="27.56" width="0.56" height="1.81"/>
  <rect x="30.26" y="29.79" width="0.56" height="1.81"/>
  <path d="M36.27,34.31V23.8h-9.3v10.51h-0.86V22.94h0.86v-1.65l-6.84-5.37l-6.86,5.42v1.6h0.94v11.37h-0.94V23.8h-9.3v10.51H2.98    v1.47l34.04-0.04v-1.43H36.27z M8.09,27.43H7.98v0.11H7.9v4.47H5.51v-4.47H5.44v-0.11H5.33v-0.45h2.76V27.43z M11.65,27.43h-0.11    v0.11h-0.07v4.47H9.07v-4.47H9v-0.11H8.89v-0.45h2.76V27.43z M20.15,18.27c1.16,0,2.1,0.94,2.1,2.1c0,1.16-0.94,2.1-2.1,2.1    c-1.16,0-2.1-0.94-2.1-2.1C18.05,19.21,18.99,18.27,20.15,18.27z M19.86,33.95h-2.39v-5.6h2.39V33.95z M22.78,33.95h-2.39v-5.6    h2.39V33.95z M17.46,27.82c0-0.93,1.22-1.72,2.66-1.72c1.44,0,2.66,0.79,2.66,1.72H17.46z M31.43,27.43h-0.11v0.11h-0.07v4.47    h-2.39v-4.47h-0.07v-0.11h-0.11v-0.45h2.76V27.43z M34.99,27.43h-0.11v0.11H34.8v4.47h-2.39v-4.47h-0.07v-0.11h-0.11v-0.45h2.76    V27.43z"/>
  <rect x="33.82" y="29.79" width="0.56" height="1.81"/>
  <rect x="32.83" y="27.56" width="0.56" height="1.81"/>
  <rect x="33.82" y="27.56" width="0.56" height="1.81"/>
  <rect x="29.28" y="29.79" width="0.56" height="1.81"/>
  <rect x="29.28" y="27.56" width="0.56" height="1.81"/>
  <rect x="32.83" y="29.79" width="0.56" height="1.81"/>
  <rect x="13.67" y="36.56" width="12.89" height="0.64"/>
  <rect x="12.47" y="37.84" width="15.29" height="0.76"/>
  <rect x="11.27" y="39.12" width="17.69" height="0.88"/>
  <path d="M31.48,15.57h-6.51c0,0,0-0.62,0-0.22c0,0.4,0-0.8,0-0.8h-0.91V8.64h0.67V7.22c0,0-2.89-1.32-4.32-1.99V2.16   c0.87,0,1.29,0.02,1.71,0.21v0.35c0,0,0.5,0.33,0.93,0.29c0.42-0.05,1.01,0.15,1.01,0.15V0.99c0,0-0.59-0.2-1.01-0.15   c-0.42,0.05-0.93-0.29-0.93-0.29V0.21C21.71,0.02,21.29,0,20.42,0h-0.66v5.23c-1.42,0.67-4.26,1.99-4.26,1.99v1.43h0.61v5.92h-0.85   v1.01h-6.5l-5.78,5.48v1.88h9.29v-2.04l7.87-6.18l7.64,6.19v2.03h9.24v-1.88L31.48,15.57z M22.67,13.19h-5.1   c-0.25,0-0.46-0.21-0.46-0.46v-2.56c0-0.86,0.7-1.56,1.56-1.56h2.89c0.86,0,1.56,0.7,1.56,1.56v2.55   C23.13,12.99,22.92,13.19,22.67,13.19z"/>
  <path d="M20.2,8.19c-1.05,0-1.55,0.95-1.55,1.55c0,0.6,0-0.12,0,1.03c0,0.51-0.23,0.81-0.49,0.99C18.05,11.83,18.11,12,18.24,12     h3.82c0.13,0,0.19-0.17,0.08-0.25c-0.26-0.18-0.49-0.48-0.49-0.99c0-1.15,0-0.42,0-1.03c0-0.6-0.5-1.55-1.55-1.55H20.2z"/>
  <path d="M19.55,12.16c0.08,0.26,0.32,0.44,0.6,0.44c0.28,0,0.52-0.19,0.6-0.44H19.55z"/>
</svg>
