<svg xmlns="http://www.w3.org/2000/svg" width="40" height="40" viewBox="0 0 40 40">
  <path d="M30.8848 38.77C32.5248 37.13 32.5248 34.46 30.8848 32.82L18.0648 20L30.8848 7.18C32.5248 5.54 32.5248 2.87 30.8848 1.23C29.2448 -0.41 26.5748 -0.41 24.9348 1.23L9.48477 16.68C9.35477 16.78 9.23477 16.89 9.11477 17.01C8.28477 17.83 7.88477 18.92 7.88477 20C7.88477 21.08 8.28477 22.17 9.11477 23C9.23477 23.12 9.35477 23.22 9.48477 23.33L24.9248 38.77C26.5648 40.41 29.2348 40.41 30.8748 38.77H30.8848Z"/>
</svg>
