<svg xmlns="http://www.w3.org/2000/svg" version="1.1" x="0px" y="0px" viewBox="0 0 40 40" style="enable-background:new 0 0 40 40;">
  <path d="M27.13,21.07l-8.12,8.12c-0.95,0.95-2.57,0.28-2.57-1.07V11.88c0-1.34,1.62-2.02,2.57-1.07l8.12,8.12   C27.71,19.52,27.71,20.48,27.13,21.07z"/>
  <path d="M20,0C8.95,0,0,8.95,0,20c0,11.05,8.95,20,20,20s20-8.95,20-20C40,8.95,31.05,0,20,0z M20,37.66    c-9.75,0-17.66-7.91-17.66-17.66c0-9.75,7.91-17.66,17.66-17.66S37.66,10.25,37.66,20C37.66,29.75,29.75,37.66,20,37.66z"/>
</svg>
