<svg xmlns="http://www.w3.org/2000/svg" version="1.1" x="0px" y="0px" viewBox="0 0 40 40" style="enable-background:new 0 0 40 40;">
  <path d="M12.48,14.06V9.74c0-2.99,2.43-5.42,5.42-5.42h4.2c2.99,0,5.42,2.43,5.42,5.42v4.32h4.32V9.74C31.84,4.36,27.48,0,22.1,0   h-4.2c-5.38,0-9.74,4.36-9.74,9.74v4.31H12.48z"/>
  <path d="M32.46,15.51H7.54c-2.08,0-3.76,1.68-3.76,3.76v16.97c0,2.08,1.68,3.76,3.76,3.76h24.92c2.08,0,3.76-1.68,3.76-3.76V19.27   C36.22,17.19,34.54,15.51,32.46,15.51z M21.84,31.51v2c0,1.01-0.82,1.84-1.84,1.84c-1.01,0-1.84-0.82-1.84-1.84v-2   c-1.39-0.68-2.36-2.1-2.36-3.76c0-2.32,1.88-4.2,4.2-4.2c2.32,0,4.2,1.88,4.2,4.2C24.2,29.41,23.23,30.83,21.84,31.51z"/>
</svg>
