<svg xmlns="http://www.w3.org/2000/svg" version="1.1" x="0px" y="0px" viewBox="0 0 40 40" style="enable-background:new 0 0 40 40;">
  <path d="M19.69,40H2.68C1.2,40,0,38.8,0,37.32v-4.86c0-0.33,0.27-0.6,0.6-0.6s0.6,0.27,0.6,0.6v4.86c0,0.82,0.67,1.49,1.49,1.49   h17.01c0.82,0,1.49-0.67,1.49-1.49v-4.86c0-0.33,0.27-0.6,0.6-0.6c0.33,0,0.6,0.27,0.6,0.6v4.86C22.38,38.8,21.17,40,19.69,40z"/>
  <path d="M14.74,34.21H7.4c-0.79,0-1.42-0.59-1.42-1.32v-8.66H2.93c-0.45,0-0.84-0.26-0.99-0.66c-0.14-0.38-0.04-0.78,0.28-1.05   l8.14-7.11c0.4-0.35,1.03-0.35,1.43,0l8.14,7.11c0.31,0.27,0.42,0.67,0.28,1.05c-0.15,0.4-0.54,0.66-0.99,0.66h-3.04v8.66   C16.16,33.61,15.52,34.21,14.74,34.21z M11.07,15.93c-0.07,0-0.14,0.02-0.19,0.07l-8.14,7.11c-0.06,0.05-0.08,0.11-0.05,0.17   c0.03,0.07,0.1,0.14,0.25,0.14h3.84v9.46c0,0.29,0.28,0.52,0.63,0.52h7.34c0.35,0,0.63-0.24,0.63-0.52v-9.46h3.84   c0.14,0,0.22-0.07,0.25-0.14c0.02-0.06,0.01-0.12-0.05-0.17L11.26,16C11.21,15.95,11.14,15.93,11.07,15.93z"/>
  <path d="M27.9,13.53c1.7,0,3.15-0.66,4.35-1.98c1.2-1.32,1.8-2.92,1.8-4.78s-0.6-3.46-1.8-4.78C31.05,0.66,29.6,0,27.9,0    c-1.7,0-3.15,0.66-4.35,1.98c-1.2,1.32-1.8,2.92-1.8,4.78s0.6,3.46,1.8,4.78C24.75,12.87,26.2,13.53,27.9,13.53z"/>
  <path d="M39.94,22.34c-0.04-0.58-0.12-1.2-0.24-1.88c-0.12-0.67-0.27-1.29-0.46-1.87c-0.18-0.57-0.43-1.13-0.74-1.67    c-0.31-0.54-0.66-1.01-1.07-1.39c-0.4-0.38-0.89-0.69-1.47-0.92c-0.58-0.23-1.22-0.34-1.92-0.34c-0.1,0-0.34,0.13-0.72,0.37    c-0.38,0.25-0.8,0.52-1.28,0.82c-0.47,0.3-1.09,0.58-1.86,0.82c-0.76,0.25-1.53,0.37-2.3,0.37c-0.77,0-1.53-0.12-2.29-0.37    c-0.76-0.25-1.38-0.52-1.86-0.82c-0.47-0.3-0.9-0.58-1.28-0.82c-0.38-0.25-0.62-0.37-0.72-0.37c-0.7,0-1.34,0.12-1.92,0.34    c-0.58,0.23-1.07,0.54-1.47,0.92c-0.4,0.39-0.76,0.85-1.07,1.39c-0.05,0.09-0.1,0.19-0.15,0.29l4.2,3.67    c0.99,0.86,1.34,2.21,0.88,3.44c-0.47,1.25-1.65,2.06-3.02,2.06h-0.88v1.8c0.6,0.25,1.29,0.39,2.06,0.39h15.02    c1.39,0,2.5-0.4,3.33-1.2c0.84-0.8,1.26-1.88,1.26-3.26C40,23.51,39.98,22.92,39.94,22.34z"/>
</svg>
