<svg xmlns="http://www.w3.org/2000/svg" version="1.1" x="0px" y="0px" viewBox="0 0 40 40" style="enable-background:new 0 0 40 40;">
  <path d="M38.6,31.89c-0.05-0.75-0.16-1.57-0.31-2.44c-0.16-0.87-0.36-1.68-0.59-2.43c-0.24-0.74-0.56-1.47-0.96-2.18   c-0.4-0.71-0.86-1.31-1.39-1.81c-0.52-0.5-1.16-0.9-1.91-1.2c-0.75-0.3-1.59-0.45-2.5-0.45c-0.13,0-0.45,0.16-0.94,0.48   s-1.05,0.68-1.67,1.07c-0.62,0.39-1.42,0.75-2.41,1.07c-0.99,0.32-1.99,0.48-2.99,0.48c-1,0-1.99-0.16-2.98-0.48   c-0.99-0.32-1.8-0.68-2.42-1.07c-0.38-0.25-0.74-0.47-1.07-0.69c-3.6-3.22-4.12-5.14-5.32-9.54L8.39,2.65   c-0.52-1.92-2.5-3.05-4.42-2.52c-1.92,0.52-3.05,2.5-2.52,4.42l6.4,23.5c0,0.01,0.01,0.02,0.01,0.04c-0.11,0.44-0.21,0.89-0.3,1.37   c-0.16,0.87-0.26,1.69-0.31,2.44c-0.05,0.75-0.08,1.52-0.08,2.31c0,1.79,0.54,3.2,1.63,4.24C9.9,39.48,11.35,40,13.15,40H32.7   c1.8,0,3.25-0.52,4.34-1.56c1.09-1.04,1.63-2.45,1.63-4.24C38.68,33.41,38.65,32.64,38.6,31.89z"/>
  <path d="M22.93,20.42c2.21,0,4.1-0.86,5.66-2.58c1.56-1.72,2.35-3.79,2.35-6.23s-0.78-4.5-2.35-6.23   c-1.56-1.72-3.45-2.58-5.66-2.58c-2.21,0-4.09,0.86-5.66,2.58c-1.57,1.72-2.35,3.79-2.35,6.23s0.78,4.5,2.35,6.23   C18.83,19.56,20.72,20.42,22.93,20.42z"/>
</svg>
