<svg xmlns="http://www.w3.org/2000/svg" version="1.1" x="0px" y="0px" viewBox="0 0 40 40" style="enable-background:new 0 0 40 40;">
  <path d="M20,18.79c0,0.41-0.35,0.72-0.76,0.69c-2.16-0.18-4.05-1.14-5.61-2.86c-1.72-1.9-2.59-4.21-2.59-6.87    c0-2.66,0.87-4.97,2.59-6.86C15.38,0.97,17.52,0,20,0c2.48,0,4.62,0.97,6.36,2.89c1.72,1.89,2.59,4.2,2.59,6.87    c0,2.06-0.51,3.76-1.6,5.29c-0.23,0.33-0.7,0.4-1.01,0.14l-0.46-0.38c-0.27-0.23-0.33-0.63-0.13-0.91    c0.85-1.21,1.22-2.48,1.22-4.14c0-2.19-0.68-4-2.08-5.54C23.53,2.71,21.93,1.97,20,1.97c-1.93,0-3.53,0.73-4.91,2.25    c-1.4,1.54-2.08,3.36-2.08,5.54c0,2.18,0.68,4,2.08,5.54c1.23,1.35,2.64,2.08,4.3,2.22C19.74,17.54,20,17.85,20,18.2V18.79z"/>
  <path d="M19.99,40c-6-0.11-10.95-1.21-12.29-1.7c-0.89-0.32-1.61-0.76-2.22-1.34c-1.22-1.16-1.83-2.74-1.83-4.71    c0-0.79,0.03-1.58,0.08-2.35c0.05-0.77,0.16-1.61,0.32-2.5c0.16-0.89,0.37-1.73,0.61-2.5c0.24-0.77,0.7-1.61,1.3-2.38    c1.27-1.64,2.72-2.81,4.42-3.56c0.24-0.1,0.51,0.02,0.61,0.26l0.15,0.39c0.09,0.23-0.02,0.48-0.25,0.58    c-1.49,0.66-2.76,1.69-3.88,3.14c-0.49,0.64-0.89,1.35-1.08,1.97c-0.23,0.72-0.42,1.5-0.57,2.33c-0.15,0.84-0.25,1.64-0.3,2.36    c-0.05,0.73-0.08,1.49-0.08,2.26c0,1.61,0.46,2.83,1.42,3.74c0.47,0.45,1.05,0.8,1.75,1.05c0.81,0.29,5.45,1.49,11.83,1.61    c6.38-0.11,11.05-1.32,11.86-1.61c0.71-0.26,1.28-0.6,1.75-1.05c0.96-0.91,1.42-2.14,1.42-3.74c0-0.76-0.03-1.52-0.08-2.26    c-0.05-0.72-0.15-1.52-0.3-2.36c-0.15-0.83-0.34-1.61-0.57-2.33c-0.2-0.61-0.59-1.33-1.08-1.97c-2.1-2.72-4.42-3.53-6.3-3.87    c-0.24-0.04-0.4-0.28-0.36-0.52l0.06-0.41c0.04-0.26,0.28-0.43,0.54-0.38c2,0.36,4.73,1.27,7.12,4.36    c0.59,0.76,1.05,1.61,1.3,2.38c0.25,0.78,0.45,1.62,0.61,2.5c0.16,0.89,0.27,1.73,0.32,2.5c0.05,0.77,0.08,1.56,0.08,2.35    c0,1.96-0.62,3.55-1.84,4.71c-0.61,0.58-1.33,1.02-2.22,1.34C30.95,38.79,25.98,39.89,19.99,40z"/>
</svg>
