<svg xmlns="http://www.w3.org/2000/svg" version="1.1" x="0px" y="0px" viewBox="0 0 40 40" style="enable-background:new 0 0 40 40;">
  <path d="M18.16,39.92c-0.68-0.13-1.35-0.28-2.04-0.36c-0.39-0.05-0.46-0.23-0.45-0.57c0.02-1.11,0.01-2.21,0.04-3.32  c0.01-0.38-0.09-0.56-0.47-0.7c-0.9-0.33-1.78-0.7-2.65-1.11c-0.35-0.16-0.54-0.12-0.79,0.14c-0.87,0.9-1.76,1.77-2.68,2.69  c-2.44-1.56-4.41-3.54-5.96-6.03c0.9-0.87,1.77-1.73,2.67-2.57c0.32-0.29,0.38-0.51,0.17-0.93c-0.47-0.97-0.85-1.98-1.3-3.06  c-1.34-0.01-2.77-0.02-4.24-0.03c-0.57-2.81-0.55-5.56,0.05-8.4c1.04,0.01,2.08,0.01,3.12,0.02c1.16,0.01,1.14,0,1.56-1.07  c0.27-0.68,0.57-1.36,0.91-2.01c0.19-0.36,0.13-0.57-0.14-0.84c-0.87-0.84-1.7-1.72-2.55-2.58C3.4,9.18,3.39,9.13,3.35,9.05  c1.52-2.38,3.5-4.32,5.97-5.88c0.87,0.89,1.76,1.77,2.61,2.67c0.28,0.3,0.49,0.35,0.88,0.16c0.85-0.4,1.73-0.73,2.61-1.05  c0.34-0.12,0.48-0.27,0.48-0.64c-0.01-1.27,0.01-2.53,0.02-3.84c2.82-0.59,5.57-0.55,8.37,0.03c-0.01,1.43-0.02,2.86-0.03,4.22  c1.16,0.51,2.25,1.01,3.36,1.46c0.13,0.06,0.41-0.07,0.54-0.2c0.91-0.88,1.8-1.78,2.72-2.68c2.45,1.56,4.39,3.54,5.94,6  c-0.89,0.88-1.77,1.76-2.68,2.61c-0.3,0.28-0.34,0.49-0.15,0.88c0.4,0.85,0.73,1.73,1.05,2.61c0.12,0.33,0.26,0.48,0.64,0.48  c1.11-0.02,2.21,0.02,3.32,0c0.41-0.01,0.58,0.11,0.62,0.53c0.07,0.66,0.22,1.32,0.33,1.98c-0.01,1.11-0.01,2.21-0.02,3.32  c-0.15,0.85-0.3,1.71-0.46,2.59c-1.49-0.01-2.9-0.02-4.24-0.03c-0.45,1.05-0.84,2.06-1.31,3.03c-0.2,0.4-0.18,0.63,0.14,0.94  c0.9,0.86,1.76,1.75,2.63,2.62c-1.61,2.46-3.58,4.41-6.03,5.94c-0.9-0.92-1.78-1.83-2.68-2.73c-0.13-0.13-0.38-0.28-0.5-0.23  c-1.13,0.45-2.24,0.95-3.41,1.45c-0.01,1.37-0.02,2.77-0.03,4.21c-0.88,0.14-1.72,0.28-2.56,0.41  C20.38,39.94,19.27,39.93,18.16,39.92z M25.21,20.03c0.02-2.9-2.29-5.26-5.18-5.28c-2.86-0.02-5.27,2.35-5.29,5.2  c-0.02,2.88,2.3,5.23,5.2,5.26C22.86,25.24,25.19,22.95,25.21,20.03z"/>
</svg>
