<svg xmlns="http://www.w3.org/2000/svg" width="40" height="40" viewBox="0 0 40 40">
  <path d="M0 36.7601V37.3101C0 37.7701 0.369908 38.1401 0.829793 38.1401H13.4566V35.9301H0.829793C0.369908 35.9301 0 36.3001 0 36.7601Z"/>
  <path d="M39.1603 35.92H26.5334V38.13H39.1603C39.6202 38.13 39.9901 37.76 39.9901 37.3V36.75C39.9901 36.29 39.6202 35.92 39.1603 35.92Z"/>
  <path d="M35.4711 5.67H18.9853C18.6053 3.02 16.7058 1 15.0162 1H5.23869C2.99925 1 1.55961 2.04 0.739815 3.6C0.289928 4.29 0.019995 5.12 0.019995 6.01V6.17L0 6.66L0.019995 7.15V14.15L0.0499875 28.58C0.0499875 31.07 2.06948 33.1 4.56886 33.1H18.3454V35.05H16.6058C15.7361 35.05 15.0362 35.75 15.0362 36.62V37.65C15.0362 38.52 15.7361 39.22 16.6058 39.22H23.4041C24.2739 39.22 24.9738 38.52 24.9738 37.65V36.62C24.9738 35.75 24.2739 35.05 23.4041 35.05H21.6646V33.1H35.4811C37.9805 33.1 40 31.08 40 28.58V10.19C40 7.69 37.9705 5.67 35.4811 5.67H35.4711ZM35.6811 24.2C35.6811 24.89 35.1112 25.46 34.4214 25.46H5.56861C4.87878 25.46 4.30892 24.89 4.30892 24.2V14.51C4.30892 13.82 4.87878 13.25 5.56861 13.25H34.4214C35.1112 13.25 35.6811 13.82 35.6811 14.51V24.2Z"/>
  <path d="M12.6368 19.74C12.5268 19.59 12.3868 19.45 12.2269 19.33C12.0669 19.21 11.877 19.12 11.657 19.05C11.567 19.02 11.4271 18.99 11.2171 18.93C11.0172 18.88 10.8072 18.82 10.5973 18.77C10.3873 18.71 10.1874 18.66 10.0174 18.62C9.84746 18.58 9.74748 18.55 9.71749 18.54C9.47755 18.47 9.2876 18.37 9.13764 18.23C8.98767 18.1 8.91769 17.91 8.91769 17.67C8.91769 17.5 8.95768 17.36 9.03766 17.25C9.11764 17.14 9.21762 17.05 9.33759 16.98C9.45756 16.91 9.58752 16.87 9.72749 16.84C9.86745 16.81 10.0174 16.8 10.1474 16.8C10.5573 16.8 10.8872 16.89 11.1571 17.07C11.4171 17.25 11.567 17.55 11.597 17.99H12.7767C12.7767 17.64 12.7067 17.33 12.5668 17.06C12.4268 16.79 12.2469 16.57 12.0069 16.39C11.767 16.21 11.497 16.07 11.1871 15.98C10.8772 15.89 10.5473 15.84 10.1974 15.84C9.89745 15.84 9.59752 15.88 9.30759 15.96C9.01767 16.04 8.74773 16.16 8.51779 16.32C8.28785 16.48 8.0979 16.69 7.95793 16.94C7.81797 17.19 7.74798 17.48 7.74798 17.82C7.74798 18 7.76798 18.17 7.81797 18.34C7.86795 18.51 7.94793 18.67 8.05791 18.82C8.16788 18.97 8.31784 19.11 8.51779 19.23C8.70774 19.35 8.94768 19.45 9.23761 19.53C9.6975 19.66 10.0874 19.76 10.4073 19.84C10.7272 19.92 10.9972 20 11.2371 20.09C11.3771 20.14 11.497 20.23 11.617 20.35C11.737 20.47 11.787 20.66 11.787 20.92C11.787 21.05 11.767 21.17 11.717 21.29C11.667 21.41 11.587 21.52 11.4771 21.61C11.3671 21.7 11.2171 21.78 11.0372 21.84C10.8572 21.9 10.6373 21.93 10.3773 21.93C10.1374 21.93 9.91744 21.9 9.71749 21.85C9.51754 21.8 9.33759 21.71 9.17763 21.6C9.01767 21.48 8.8977 21.33 8.80772 21.15C8.71774 20.97 8.67775 20.75 8.67775 20.49H7.49805C7.49805 20.9 7.57803 21.26 7.73799 21.57C7.88795 21.87 8.0879 22.12 8.33784 22.32C8.58777 22.51 8.8877 22.66 9.21762 22.75C9.55753 22.84 9.91744 22.89 10.2973 22.89C10.6273 22.89 10.9572 22.85 11.2771 22.77C11.597 22.69 11.887 22.57 12.1369 22.4C12.3868 22.23 12.5868 22.01 12.7467 21.75C12.8967 21.48 12.9767 21.16 12.9767 20.79C12.9767 20.61 12.9467 20.44 12.8967 20.26C12.8467 20.08 12.7667 19.92 12.6568 19.77L12.6368 19.74Z"/>
  <path d="M14.6963 22.71H15.866V19.73H18.9052V18.77H15.866V17.01H19.3251V15.99H14.6963V22.71Z"/>
  <path d="M20.335 17.01H22.4544V22.71H23.6341V17.01H25.7736V15.99H20.335V17.01Z"/>
  <path d="M32.082 16.72C31.922 16.51 31.6921 16.34 31.3821 16.2C31.0822 16.06 30.6923 15.99 30.2124 15.99H27.2532V22.71H28.4329V20.13H30.2224C30.7023 20.13 31.0922 20.06 31.3921 19.93C31.6921 19.79 31.922 19.62 32.092 19.42C32.2519 19.21 32.3619 18.99 32.4219 18.75C32.4819 18.51 32.5119 18.28 32.5119 18.08C32.5119 17.88 32.4819 17.65 32.4219 17.4C32.3619 17.16 32.2519 16.93 32.092 16.72H32.082ZM31.2222 18.59C31.1522 18.73 31.0522 18.84 30.9423 18.93C30.8223 19.01 30.7023 19.08 30.5623 19.11C30.4224 19.15 30.2924 19.17 30.1524 19.17H28.4329V16.95H30.1724C30.3324 16.95 30.4724 16.97 30.6123 17C30.7523 17.03 30.8723 17.09 30.9822 17.17C31.0922 17.25 31.1722 17.37 31.2322 17.51C31.2922 17.65 31.3222 17.84 31.3222 18.06C31.3222 18.28 31.2822 18.45 31.2122 18.59H31.2222Z"/>
</svg>
