<svg xmlns="http://www.w3.org/2000/svg" version="1.1" x="0px" y="0px" viewBox="0 0 40 40" style="enable-background:new 0 0 40 40;">
  <path d="M25.8,9.75l-4.29-4.29v23.99c0,0.38-0.31,0.69-0.69,0.69h-1.65c-0.38,0-0.69-0.31-0.69-0.69V5.46L14.2,9.75   c-0.27,0.27-0.7,0.27-0.97,0l-1.17-1.17c-0.27-0.27-0.27-0.7,0-0.97l7.39-7.39c0.3-0.3,0.8-0.3,1.1,0l7.39,7.39   c0.27,0.27,0.27,0.7,0,0.97l-1.17,1.17C26.5,10.02,26.07,10.02,25.8,9.75z"/>
  <path d="M8.25,14.55h6.78v3.02H9.75c-0.34,0-0.62,0.28-0.62,0.62v18.16c0,0.34,0.28,0.62,0.62,0.62h20.5   c0.34,0,0.62-0.28,0.62-0.62V18.2c0-0.34-0.28-0.62-0.62-0.62h-5.27v-3.02h6.78c1.18,0,2.14,0.96,2.14,2.14v21.16   c0,1.18-0.96,2.14-2.14,2.14H8.25c-1.18,0-2.14-0.96-2.14-2.14V16.69C6.11,15.51,7.06,14.55,8.25,14.55z"/>
</svg>
