<svg xmlns="http://www.w3.org/2000/svg" version="1.1" x="0px" y="0px" viewBox="0 0 40 40" style="enable-background:new 0 0 40 40;">
  <path d="M20.33,25.65l4.15-4.15H0.83C0.37,21.5,0,21.13,0,20.67v-1.34c0-0.46,0.37-0.83,0.83-0.83h23.65l-4.15-4.15   c-0.32-0.32-0.32-0.85,0-1.17l0.95-0.95c0.32-0.32,0.85-0.32,1.17,0l7.28,7.28c0.27,0.27,0.27,0.71,0,0.99l-7.28,7.28   c-0.32,0.32-0.85,0.32-1.17,0l-0.95-0.95C20.01,26.5,20.01,25.97,20.33,25.65z"/>
  <path d="M8.04,34.51v-9.57h3v8.31c0,0.3,0.24,0.54,0.54,0.54h24.88c0.3,0,0.54-0.24,0.54-0.54V6.75c0-0.3-0.24-0.54-0.54-0.54   H11.58c-0.3,0-0.54,0.24-0.54,0.54v8.31h-3V5.49c0-1.25,1.02-2.27,2.27-2.27h27.41c1.25,0,2.27,1.02,2.27,2.27v29.02   c0,1.25-1.02,2.27-2.27,2.27H10.32C9.06,36.78,8.04,35.77,8.04,34.51z"/>
</svg>
