<svg xmlns="http://www.w3.org/2000/svg" version="1.1" x="0px" y="0px" viewBox="0 0 40 40" style="enable-background:new 0 0 40 40;">
  <path d="M9.69,14.23l-4.26,4.26H29.4c0.4,0,0.73,0.33,0.73,0.73v1.56c0,0.4-0.33,0.73-0.73,0.73H5.43l4.26,4.26   c0.29,0.29,0.29,0.75,0,1.03l-1.11,1.11c-0.29,0.29-0.75,0.29-1.03,0l-7.3-7.3c-0.34-0.34-0.34-0.88,0-1.22l7.3-7.3   c0.29-0.29,0.75-0.29,1.03,0l1.11,1.11C9.98,13.48,9.98,13.94,9.69,14.23z"/>
  <path d="M14.53,34.79v-9.81h3.03v8.3c0,0.34,0.28,0.62,0.62,0.62h18.17c0.34,0,0.62-0.28,0.62-0.62V6.72   c0-0.34-0.28-0.62-0.62-0.62H18.18c-0.34,0-0.62,0.28-0.62,0.62v8.3h-3.03V5.21c0-1.18,0.96-2.14,2.14-2.14h21.18   c1.18,0,2.14,0.96,2.14,2.14v29.58c0,1.18-0.96,2.14-2.14,2.14H16.67C15.49,36.93,14.53,35.97,14.53,34.79z"/>
</svg>
