<svg xmlns="http://www.w3.org/2000/svg" version="1.1" x="0px" y="0px" viewBox="0 0 40 40" style="enable-background:new 0 0 40 40;">
  <path d="M9.9,20.3c-5.5,0-9.9,4.4-9.9,9.9S4.4,40,9.9,40s9.9-4.4,9.9-9.9S15.3,20.3,9.9,20.3z M8.4,23.5h3c0.2,0,0.4,0.2,0.4,0.4   l-0.4,6.5c0,0.2-0.2,0.4-0.4,0.4H8.7c-0.2,0-0.4-0.2-0.4-0.4L8,24C8,23.7,8.1,23.5,8.4,23.5z M9.9,36.7c-1.4,0-2.1-0.6-2.1-1.9   c0-0.6,0.2-1.1,0.5-1.4c0.4-0.3,0.9-0.5,1.6-0.5c1.4,0,2.1,0.6,2.1,1.9C12,36.1,11.3,36.7,9.9,36.7z"/>
  <path d="M19.4,20.3c-0.1,0-0.2,0-0.3,0c-2.3-0.2-4-2.2-3.9-4.5c0.1-1.1,0.6-2.1,1.4-2.9c0.8-0.7,1.9-1.1,3-1        c1.1,0.1,2.1,0.6,2.9,1.4c0.7,0.8,1.1,1.9,1,3l0,0C23.4,18.7,21.6,20.3,19.4,20.3z M19.4,12.4c-0.9,0-1.8,0.3-2.5,0.9        c-0.8,0.7-1.2,1.6-1.3,2.6c-0.2,2.1,1.4,3.9,3.5,4.1c2.1,0.2,3.9-1.4,4.1-3.5l0,0c0.1-1-0.3-2-0.9-2.8        c-0.7-0.8-1.6-1.2-2.6-1.3C19.6,12.4,19.5,12.4,19.4,12.4z"/>
  <path d="M29.4,21.4c-0.1,0-0.2,0-0.3,0C28,21.4,27,20.9,26.3,20c-0.7-0.8-1.1-1.9-1-3c0.1-1.1,0.6-2.1,1.4-2.9        c0.8-0.7,1.9-1.1,3-1c1.1,0.1,2.1,0.6,2.9,1.4c0.7,0.8,1.1,1.9,1,3l-0.2,0l0.2,0c-0.1,1.1-0.6,2.1-1.4,2.9        C31.4,21.1,30.4,21.4,29.4,21.4z M29.4,13.5c-0.9,0-1.8,0.3-2.5,0.9c-0.8,0.7-1.2,1.6-1.3,2.6c-0.1,1,0.3,2,0.9,2.8        c0.7,0.8,1.6,1.2,2.6,1.3c1,0.1,2-0.3,2.8-0.9c0.8-0.7,1.2-1.6,1.3-2.6l0,0c0.1-1-0.3-2-0.9-2.8c-0.7-0.8-1.6-1.2-2.6-1.3        C29.6,13.5,29.5,13.5,29.4,13.5z"/>
  <path d="M30.1,15.4c0,0,0,0.1,0,0.1c0,0.6-0.6,1.1-1.2,1c-0.6,0-1-0.5-1-1.1c-0.8,0.4-1.3,1.2-1.4,2.1c-0.1,1.4,1,2.6,2.4,2.7       s2.6-1,2.7-2.4C31.7,16.8,31.1,15.8,30.1,15.4z M29,19.8c-0.3,0-0.5-0.3-0.5-0.6c0-0.3,0.3-0.5,0.6-0.5s0.5,0.3,0.5,0.6       C29.6,19.6,29.3,19.8,29,19.8z"/>
  <path d="M20.3,14.4c0,0,0,0.1,0,0.1c0,0.6-0.6,1.1-1.2,1c-0.6,0-1.1-0.6-1-1.2c-0.8,0.4-1.4,1.2-1.4,2.1       c-0.1,1.4,1,2.6,2.4,2.7c1.4,0.1,2.6-1,2.7-2.4C21.8,15.8,21.2,14.8,20.3,14.4z M19.4,18.7c-0.3,0-0.5-0.3-0.5-0.6       c0-0.3,0.3-0.5,0.6-0.5c0.3,0,0.5,0.3,0.5,0.6C20,18.5,19.7,18.8,19.4,18.7z"/>
  <path d="M18.5,9.7c-0.8,0.1-1.7,0.3-2.3,0.9c-0.5,0.4-0.3,1.1,0.5,0.7c0.8-0.4,2.3-0.7,3.6-0.4C21.5,11.2,20.8,9.5,18.5,9.7z"/>
  <path d="M31.9,11.5c0.7,0.3,1.6,0.8,2,1.5c0.3,0.5,0,1.1-0.7,0.5c-0.6-0.6-2.1-1.2-3.4-1.3C28.5,12.1,29.7,10.6,31.9,11.5z"/>
  <ellipse transform="matrix(7.190248e-02 -0.9974 0.9974 7.190248e-02 -0.5386 44.094)" cx="23.4" cy="22.3" rx="1.2" ry="1.7"/>
  <path d="M39.8,8.9C39.8,8.8,39.7,8.8,39.8,8.9l-7.4-7.5l-0.2-0.2L12.3,0c-0.3,0-0.5,0.1-0.7,0.3c-0.2,0.2-0.3,0.4-0.3,0.7   l-0.7,16.6c0.5,0,1,0.1,1.5,0.2l0.7-16.2l18.4,1.1l0,7.2c0,0,0,0,0,0c0,0.3,0.1,0.5,0.3,0.7c0.2,0.2,0.4,0.2,0.6,0.2   c0,0,0.1,0,0.1,0l6.2-0.5l-4.4,23.7l-11.8-0.8c-0.1,0.5-0.3,1-0.4,1.5l12.6,0.8c0,0,0,0,0.1,0c0.5,0,0.9-0.3,0.9-0.8L40,9.1   L39.8,8.9z M32.5,9.2l0-5.5l5,5.1L32.5,9.2z"/>
  <path d="M22.5,29.5c0,0.2,0,0.4,0,0.7c0,0.2,0,0.4,0,0.5l10.1,0.6l0.2-1.2L22.5,29.5z"/>
  <path d="M22.1,27.1c0.1,0.4,0.2,0.8,0.2,1.2l10.5,0.6l0.2-1.2L22.1,27.1z"/>
</svg>
