<svg xmlns="http://www.w3.org/2000/svg" version="1.1" x="0px" y="0px" viewBox="0 0 40 40" style="enable-background:new 0 0 40 40;">
  <path d="M18.4,25.2c0.9,1.5,1.3,3.2,1.3,5c0,1.8-0.4,3.4-1.3,5s-2.1,2.7-3.6,3.6c-1.5,0.9-3.2,1.3-5,1.3c-1.8,0-3.4-0.4-5-1.3    s-2.7-2.1-3.6-3.6S0,31.9,0,30.1c0-1.8,0.4-3.4,1.3-5s2.1-2.7,3.6-3.6c1.5-0.9,3.2-1.3,5-1.3c1.8,0,3.4,0.4,5,1.3    C16.3,22.5,17.5,23.7,18.4,25.2z M16.5,28c0-0.2-0.1-0.4-0.2-0.6l-1.2-1.2c-0.2-0.2-0.4-0.2-0.6-0.2c-0.2,0-0.4,0.1-0.6,0.2    l-5.2,5.2l-2.9-2.9c-0.2-0.2-0.4-0.2-0.6-0.2c-0.2,0-0.4,0.1-0.6,0.2l-1.2,1.2c-0.2,0.2-0.2,0.4-0.2,0.6c0,0.2,0.1,0.4,0.2,0.6    l4.7,4.7c0.2,0.2,0.4,0.2,0.6,0.2c0.2,0,0.4-0.1,0.6-0.2l7-7C16.4,28.5,16.5,28.3,16.5,28z"/>
  <path d="M19.4,20.5c-0.1,0-0.2,0-0.3,0c-2.3-0.2-4-2.2-3.9-4.5c0.2-2.3,2.2-4,4.5-3.9c1.1,0.1,2.1,0.6,2.9,1.4        c0.7,0.8,1.1,1.9,1,3l0,0C23.4,18.8,21.6,20.5,19.4,20.5z M19.4,12.5c-2,0-3.6,1.5-3.8,3.5c-0.2,2.1,1.4,3.9,3.5,4.1        c2.1,0.2,3.9-1.4,4.1-3.5l0,0c0.1-1-0.3-2-0.9-2.8c-0.7-0.8-1.6-1.2-2.6-1.3C19.6,12.5,19.5,12.5,19.4,12.5z"/>
  <path d="M29.4,21.6c-0.1,0-0.2,0-0.3,0C28,21.5,27,21,26.3,20.1c-0.7-0.8-1.1-1.9-1-3c0.1-1.1,0.6-2.1,1.4-2.9        c0.8-0.7,1.9-1.1,3-1c1.1,0.1,2.1,0.6,2.9,1.4c0.7,0.8,1.1,1.9,1,3l-0.2,0l0.2,0c-0.1,1.1-0.6,2.1-1.4,2.9        C31.4,21.2,30.4,21.6,29.4,21.6z M29.4,13.6c-0.9,0-1.8,0.3-2.5,0.9c-0.8,0.7-1.2,1.6-1.3,2.6c-0.1,1,0.3,2,0.9,2.8        s1.6,1.2,2.6,1.3c1,0.1,2-0.3,2.8-0.9c0.8-0.7,1.2-1.6,1.3-2.6l0,0c0.1-1-0.3-2-0.9-2.8c-0.7-0.8-1.6-1.2-2.6-1.3        C29.6,13.6,29.5,13.6,29.4,13.6z"/>
  <path d="M30.1,15.5c0,0,0,0.1,0,0.1c0,0.6-0.6,1.1-1.2,1c-0.6,0-1-0.5-1-1.1c-0.8,0.4-1.3,1.2-1.4,2.1c-0.1,1.4,1,2.6,2.4,2.7      c1.4,0.1,2.6-1,2.7-2.4C31.7,16.9,31.1,15.9,30.1,15.5z M29,19.9c-0.3,0-0.5-0.3-0.5-0.6c0-0.3,0.3-0.5,0.6-0.5      c0.3,0,0.5,0.3,0.5,0.6C29.6,19.7,29.3,19.9,29,19.9z"/>
  <path d="M20.3,14.5c0,0,0,0.1,0,0.1c0,0.6-0.6,1.1-1.2,1c-0.6,0-1.1-0.6-1-1.2c-0.8,0.4-1.4,1.2-1.4,2.1c-0.1,1.4,1,2.6,2.4,2.7      c1.4,0.1,2.6-1,2.7-2.4C21.8,15.9,21.2,14.9,20.3,14.5z M19.4,18.9c-0.3,0-0.5-0.3-0.5-0.6c0-0.3,0.3-0.5,0.6-0.5      c0.3,0,0.5,0.3,0.5,0.6C20,18.7,19.7,18.9,19.4,18.9z"/>
  <path d="M20.1,9.9c-0.8-0.1-1.7,0-2.5,0.5c-0.5,0.3-0.4,1,0.4,0.7c0.8-0.3,2.4-0.2,3.6,0.3C22.9,11.9,22.5,10.1,20.1,9.9z"/>
  <path d="M31.1,11.6c0.8,0.2,1.6,0.6,2.2,1.3c0.4,0.5,0.1,1.1-0.6,0.6c-0.7-0.5-2.2-1.1-3.5-1C27.8,12.5,28.9,10.9,31.1,11.6z"/>
  <path d="M21.7,22.4c1,0.7,2.3,1,3.5,0.6c0.5-0.1,0.7-0.6,0.6-0.8l0,0c-0.2-0.3-0.5-0.3-0.8-0.2c-0.9,0.3-1.8,0.1-2.5-0.4    c-0.3-0.2-0.6-0.2-0.9-0.1l0,0C21.3,21.6,21.4,22.1,21.7,22.4z"/>
  <path d="M39.8,8.9C39.8,8.8,39.7,8.8,39.8,8.9l-7.4-7.5l-0.2-0.2L12.3,0c-0.3,0-0.5,0.1-0.7,0.3c-0.2,0.2-0.3,0.4-0.3,0.7   l-0.7,16.6c0.5,0,1,0.1,1.5,0.2l0.7-16.2l18.4,1.1l0,7.2c0,0,0,0,0,0c0,0.3,0.1,0.5,0.3,0.7c0.2,0.2,0.4,0.2,0.6,0.2   c0,0,0.1,0,0.1,0l6.2-0.5l-4.4,23.7l-11.8-0.8c-0.1,0.5-0.3,1-0.4,1.5l12.6,0.8c0,0,0,0,0.1,0c0.5,0,0.9-0.3,0.9-0.8L40,9.1   L39.8,8.9z M32.5,9.2l0-5.5l5,5.1L32.5,9.2z"/>
  <path d="M22.5,29.6c0,0.2,0,0.3,0,0.5c0,0.2,0,0.4,0,0.7l10.1,0.6l0.2-1.2L22.5,29.6z"/>
  <path d="M22.1,27.3c0.1,0.4,0.2,0.8,0.2,1.2L32.9,29l0.2-1.2L22.1,27.3z"/>
</svg>
