<svg xmlns="http://www.w3.org/2000/svg" version="1.1" x="0px" y="0px" viewBox="0 0 40 40" style="enable-background:new 0 0 40 40;">
  <path d="M18.4,11.9c0.8-0.3,2.3-0.4,3.6,0c1.3,0.4,0.7-1.4-1.6-1.4c-0.8,0-1.7,0.1-2.4,0.7C17.5,11.6,17.6,12.3,18.4,11.9z"/>
  <path d="M32.2,14.2c0.7,0.6,1,0,0.7-0.5c-0.5-0.7-1.4-1.1-2.1-1.4c-2.3-0.7-3.4,0.9-2,0.8C30.1,13.1,31.5,13.6,32.2,14.2z"/>
  <path d="M26.1,16.1c-0.2,0.2,1,1.7,3.3,1.9c2.3,0.3,3.9-0.9,3.7-1.2c-0.2-0.3-1.7,0.3-3.5,0C27.6,16.8,26.3,15.9,26.1,16.1z"/>
  <path d="M23.6,15.7c-0.1-0.3-1.8,0.3-3.7,0.1c-1.9-0.2-3.2-1.1-3.4-0.8c-0.2,0.2,0.9,1.7,3.3,2C22,17.2,23.8,16,23.6,15.7z"/>
  <path d="M23.7,21.3c-0.6,0-1.1,0.2-1.1,0.6c0,0.4,0.4,0.7,1,0.7c0.6,0,1.1-0.2,1.1-0.6C24.7,21.7,24.2,21.3,23.7,21.3z"/>
  <path d="M39.8,8.9C39.8,8.8,39.7,8.8,39.8,8.9l-7.4-7.5l-0.2-0.2L12.3,0c-0.3,0-0.5,0.1-0.7,0.3c-0.2,0.2-0.3,0.4-0.3,0.7   l-0.7,16.6c0.5,0,1,0.1,1.5,0.2l0.7-16.2l18.4,1.1l0,7.2c0,0,0,0,0,0c0,0.3,0.1,0.5,0.3,0.7c0.2,0.2,0.4,0.2,0.6,0.2   c0,0,0.1,0,0.1,0l6.2-0.5l-4.4,23.7l-11.8-0.8c-0.1,0.5-0.3,1-0.4,1.5l12.6,0.8c0,0,0,0,0.1,0c0.5,0,0.9-0.3,0.9-0.8L40,9.1   L39.8,8.9z M32.5,9.1l0-5.5l5,5.1L32.5,9.1z"/>
  <path d="M32.5,31.3l0.2-1.2l-10.2-0.6c0,0.2,0,0.3,0,0.5c0,0.2,0,0.4,0,0.7L32.5,31.3z"/>
  <path d="M22.4,28.5L32.9,29l0.2-1.2l-10.9-0.6C22.2,27.7,22.3,28.1,22.4,28.5z"/>
  <path d="M14.8,21.6c-1.5-0.9-3.2-1.3-5-1.3c-1.8,0-3.4,0.4-4.9,1.3c-1.5,0.9-2.7,2.1-3.6,3.6C0.4,26.7,0,28.3,0,30.1   c0,1.8,0.4,3.4,1.3,5c0.9,1.5,2.1,2.7,3.6,3.6C6.4,39.6,8.1,40,9.9,40c1.8,0,3.4-0.4,5-1.3c1.5-0.9,2.7-2.1,3.6-3.6   c0.9-1.5,1.3-3.2,1.3-5c0-1.8-0.4-3.4-1.3-4.9C17.5,23.7,16.3,22.5,14.8,21.6z M10.2,30.4l0.2-0.8c0-0.1,0.1-0.2,0.2-0.3l2.9-2.6   h-2.1c-0.1,0-0.1,0-0.2-0.1c0,0-0.1-0.1,0-0.2l0.2-0.8c0-0.1,0-0.1,0.1-0.2c0.1-0.1,0.1-0.1,0.2-0.1h4c0.1,0,0.1,0,0.2,0.1   c0,0,0,0.1,0,0.1c0,0,0,0,0,0.1l-0.2,0.8c0,0.1-0.1,0.2-0.2,0.2l-2.8,2.6H15c0.1,0,0.1,0,0.2,0.1c0,0,0,0.1,0,0.1c0,0,0,0,0,0.1   L15,30.4c0,0.1,0,0.1-0.1,0.2c-0.1,0-0.1,0.1-0.2,0.1h-4.3c-0.1,0-0.1,0-0.2-0.1C10.2,30.6,10.2,30.5,10.2,30.4   C10.2,30.5,10.2,30.4,10.2,30.4z M9.9,37.6c-4.1,0-7.5-3.4-7.5-7.5c0-3.3,2.2-6.2,5.2-7.2c-0.4,1-0.7,2.1-0.7,3.3   c0,4.6,3.7,8.4,8.4,8.4c0.2,0,0.4,0,0.6,0C14.5,36.4,12.4,37.6,9.9,37.6z"/>
</svg>
