<svg xmlns="http://www.w3.org/2000/svg" version="1.1" x="0px" y="0px" viewBox="0 0 40 40" style="enable-background:new 0 0 40 40;">
  <path d="M9.26,23.83c0.45-0.26,0.95-0.24,1.45-0.24c4.69,0,9.39,0,14.08,0c0.09,0,0.18,0.02,0.26,0.03     c1.03-3.07,3.89-4.09,6.05-3.6c2.4,0.55,4.13,2.71,4.07,5.09c-0.07,2.54-1.82,4.61-4.26,5.05c-2.34,0.42-4.92-0.83-5.83-3.56     c-2.53,0-5.05,0-7.6,0c0,0.3,0.01,0.62,0.01,0.94c0,0.41,0,0.81,0,1.22c-0.01,0.42-0.31,0.73-0.72,0.74     c-0.51,0.01-1.01,0.01-1.52,0c-0.42-0.01-0.72-0.33-0.73-0.76c-0.01-0.64,0-1.27,0-1.91c0-0.08,0-0.17-0.01-0.23     c-0.48,0-0.95,0-1.43,0c0,0.04-0.01,0.11-0.01,0.19c0,0.63,0,1.26,0,1.89c0,0.53-0.3,0.83-0.82,0.83c-0.38,0-0.75,0.02-1.13-0.01     c-0.25-0.02-0.5-0.09-0.75-0.14c-0.04-0.04-0.09-0.09-0.13-0.13c-0.05-0.26-0.13-0.51-0.13-0.77c-0.02-0.62-0.01-1.25,0-1.88     c-0.05-0.01-0.08-0.02-0.11-0.02c-1.14-0.16-1.69-1.24-1.14-2.25c0.01-0.03,0.01-0.06,0.02-0.08C9,24.09,9.13,23.96,9.26,23.83z      M31.54,26.64c0.87-0.87,0.88-2.24,0.03-3.09c-0.87-0.87-2.26-0.88-3.12-0.02c-0.87,0.87-0.87,2.26,0,3.11     C29.32,27.5,30.68,27.5,31.54,26.64z"/>
  <path d="M0,27.27c0-0.68,0-1.35,0-2.03c0.02-0.06,0.06-0.12,0.07-0.18c0.59-3.52,2.57-5.88,5.9-7.11      c0.23-0.08,0.27-0.2,0.29-0.42c0.03-0.59,0.04-1.2,0.16-1.78C7.34,11.17,11.77,8,16.59,8.89c0.28,0.05,0.46,0.02,0.66-0.23      c1.32-1.64,3.01-2.73,5.03-3.3C22.81,5.21,23.36,5.12,23.9,5c0.73,0,1.46,0,2.19,0c0.48,0.1,0.96,0.19,1.44,0.31      c4.84,1.28,7.94,5.8,7.44,10.78c-0.01,0.11,0.1,0.28,0.2,0.34c3.68,2.34,5.41,6.2,4.67,10.47C39.05,31.42,34.81,35,30.24,35      c-7.23,0-14.45,0-21.68,0c-0.34,0-0.68-0.03-1.01-0.07c-3.45-0.45-6.32-2.95-7.25-6.3C0.19,28.18,0.1,27.72,0,27.27z       M31.94,17.8c1.58-4.22-0.6-8.13-3.82-9.59c-1.69-0.77-3.44-0.91-5.21-0.38c-2.27,0.67-3.85,2.14-4.82,4.28      c-2.37-1.22-4.7-1.19-6.8,0.43c-2.53,1.95-3.07,4.55-2,7.53c-0.22-0.02-0.41-0.04-0.61-0.04C4.5,20,1.48,24.27,2.85,28.26      c0.91,2.62,3.26,4.23,6.23,4.24c6.85,0,13.69,0,20.54-0.01c0.57,0,1.15-0.03,1.71-0.15c3.09-0.63,5.14-2.49,5.91-5.53      c0.77-3.07-0.19-5.66-2.64-7.68C33.82,18.5,32.92,18.09,31.94,17.8z"/>
</svg>
