<svg xmlns="http://www.w3.org/2000/svg" version="1.1" x="0px" y="0px" viewBox="0 0 40 40" style="enable-background:new 0 0 40 40;">
  <path d="M20,0.86c-0.99,0-1.88,0.59-2.27,1.5l-4.36,10.28L2.25,13.61c-0.98,0.09-1.82,0.75-2.13,1.69  c-0.31,0.94-0.02,1.97,0.72,2.62l8.43,7.33L6.76,36.12c-0.17,0.74,0,1.5,0.47,2.09c0.47,0.59,1.17,0.93,1.93,0.93h0.66l0.61-0.35  L20,33.03l9.57,5.76l0.57,0.34l0.7,0.01c0.75,0,1.46-0.34,1.93-0.93c0.47-0.59,0.64-1.35,0.47-2.09l-2.52-10.88l8.43-7.32  c0.75-0.65,1.03-1.68,0.73-2.62c-0.31-0.94-1.14-1.6-2.13-1.69l-11.12-0.97L22.27,2.36C21.88,1.45,20.99,0.86,20,0.86L20,0.86z"/>
</svg>
