<svg xmlns="http://www.w3.org/2000/svg" version="1.1" x="0px" y="0px" viewBox="0 0 40 40" style="enable-background:new 0 0 40 40;">
  <path d="M11.28,19.73h17.44c0.71,0,1.28-0.57,1.28-1.28c0-0.71-0.57-1.28-1.28-1.28h-0.7c0-4.43-3.59-8.02-8.02-8.02   c-4.43,0-8.02,3.59-8.02,8.02h-0.7c-0.71,0-1.28,0.57-1.28,1.28C10,19.15,10.57,19.73,11.28,19.73z"/>
  <path d="M17.78,8.21C18.48,8.01,19.23,7.9,20,7.9s1.52,0.11,2.22,0.31V5.09h0.47c0-1.37-1.02-2.5-2.34-2.67V1.41   c0.24-0.13,0.4-0.37,0.4-0.66C20.75,0.34,20.41,0,20,0c-0.41,0-0.75,0.34-0.75,0.75c0,0.29,0.16,0.53,0.4,0.66v1.01   c-1.32,0.17-2.34,1.3-2.34,2.67h0.47V8.21z"/>
  <path d="M10.04,23.84h0.62v4.4h4.03v-4.4h3.29v4.4h4.03v-4.4h3.33v4.4h4.03v-4.4h0.59c0.71,0,1.28-0.57,1.28-1.28   c0-0.71-0.57-1.28-1.28-1.28H10.04c-0.71,0-1.28,0.57-1.28,1.28C8.76,23.27,9.33,23.84,10.04,23.84z"/>
  <path d="M33.7,37.44h-0.67v-5.02h0.67c0.71,0,1.28-0.57,1.28-1.28c0-0.71-0.57-1.28-1.28-1.28H6.3c-0.71,0-1.28,0.57-1.28,1.28   c0,0.71,0.57,1.28,1.28,1.28h0.67v5.02H6.3c-0.71,0-1.28,0.57-1.28,1.28S5.59,40,6.3,40h27.4c0.71,0,1.28-0.57,1.28-1.28   S34.41,37.44,33.7,37.44z M11,37.44v-5.02h3.29v5.02H11z M18.33,37.44v-5.02h3.31v5.02H18.33z M25.67,37.44v-5.02H29v5.02H25.67z"/>
</svg>
