<svg xmlns="http://www.w3.org/2000/svg" version="1.1" x="0px" y="0px" viewBox="0 0 40 40" style="enable-background:new 0 0 40 40;">
  <path d="M10.91,21.59v-3.18c0-0.79,0.64-1.44,1.44-1.44h15.3c0.79,0,1.44,0.64,1.44,1.44v3.18c0,0.79-0.64,1.44-1.44,1.44h-15.3   C11.55,23.03,10.91,22.39,10.91,21.59z"/>
  <path d="M20,0C8.95,0,0,8.95,0,20c0,11.05,8.95,20,20,20s20-8.95,20-20C40,8.95,31.05,0,20,0z M20,37.66    c-9.75,0-17.66-7.91-17.66-17.66c0-9.75,7.91-17.66,17.66-17.66S37.66,10.25,37.66,20C37.66,29.75,29.75,37.66,20,37.66z"/>
</svg>
