<svg xmlns="http://www.w3.org/2000/svg" version="1.1" x="0px" y="0px" viewBox="0 0 40 40" style="enable-background:new 0 0 40 40;">
  <path d="M39.8,32.4L23.03,6.13c-0.23-0.36-0.63-0.58-1.06-0.58c-0.43,0-0.82,0.21-1.06,0.57L3.03,33.8l1.66,0.03L21.97,7.08   l16.5,25.84l-26.29,0.11l9.85-15.32l3.54,5.79l1.64-0.02l-4.11-6.71c-0.23-0.37-0.62-0.6-1.08-0.6c-0.46,0.04-0.84,0.25-1.05,0.58   L10.85,32.51c-0.25,0.39-0.27,0.88-0.04,1.29c0.22,0.4,0.64,0.65,1.1,0.65h0l26.84-0.12c0.46,0,0.88-0.25,1.1-0.66   C40.07,33.27,40.05,32.78,39.8,32.4z"/>
  <path d="M13.09,9.13c0.04,0,0.13,0.01,0.19,0.1l1.74,2.66l0.5-0.66L13.93,8.8c-0.19-0.28-0.5-0.45-0.84-0.45c-0.01,0-0.01,0-0.02,0   c-0.34,0.01-0.66,0.18-0.84,0.48L0,28.5l0.93-0.01L12.9,9.23C12.95,9.14,13.05,9.13,13.09,9.13z"/>
</svg>
