<svg xmlns="http://www.w3.org/2000/svg" version="1.1" x="0px" y="0px" viewBox="0 0 40 40" style="enable-background:new 0 0 40 40;">
  <path d="M1.7,1.49c0.1,0.42,0.23,0.86,0.32,1.3C2.2,3.63,1.96,4.36,1.37,4.98C1.04,5.33,0.66,5.63,0.31,5.97   c-0.3,0.29-0.39,0.63-0.23,1.03c0.3,0.72,0.75,1.31,1.47,1.65c0.52,0.24,0.7,0.63,0.71,1.19c0.03,1.14-0.22,2.21-0.6,3.27   c-0.16,0.45-0.26,0.97-0.23,1.44c0.04,0.59,0.34,0.81,0.92,0.78c0.91-0.06,1.82-0.17,2.72-0.28c1.64-0.2,3.27-0.44,4.91-0.6   c1.15-0.11,2.31-0.14,3.46-0.16c0.6-0.01,1.2,0.07,1.8,0.14c0.34,0.04,0.59-0.06,0.84-0.27c1.35-1.11,2.72-2.2,4.06-3.33   c0.49-0.42,1.02-0.53,1.61-0.38c2.4,0.58,4.8,1.18,7.2,1.77c0.14,0.04,0.29,0.07,0.51,0.12c-0.11-0.3-0.2-0.56-0.3-0.81   c-0.33-0.82-0.65-1.65-1.28-2.31c-1.01-1.05-2.29-1.53-3.67-1.8c-1.39-0.27-2.8-0.3-4.21-0.12c-0.98,0.13-1.77-0.22-2.39-1.02   c-0.82-1.05-1.64-2.1-2.55-3.06c-1.03-1.09-2.38-1.45-3.84-1.23C9.98,2.17,8.75,2.4,7.55,2.75C6.2,3.13,4.93,3.04,3.68,2.44   C3.02,2.12,2.35,1.8,1.7,1.49z"/>
  <path d="M24.96,16.36c-0.4,0.57-0.76,1.09-1.12,1.6c-1.06,1.52-2.13,3.04-3.2,4.56c-1.31,1.87-0.92,4.06,0.99,5.34   c1.33,0.89,2.7,1.73,4.04,2.59c0.11,0.07,0.22,0.15,0.36,0.25c-0.55,0.68-1.09,1.33-1.63,1.98c-0.33,0.41-0.67,0.8-1,1.22   c-0.76,0.96-0.63,2.24,0.29,2.99c0.88,0.72,2.2,0.59,2.96-0.33c1.38-1.65,2.75-3.32,4.11-4.99c0.84-1.03,0.6-2.47-0.51-3.2   c-1.09-0.71-2.2-1.41-3.29-2.12c-0.11-0.07-0.22-0.15-0.36-0.25c0.61-0.87,1.2-1.71,1.79-2.56c1.02-1.46,2.04-2.91,3.05-4.37   c0.54-0.78,0.85-1.63,0.67-2.58c-0.26-1.38-1.2-2.19-2.46-2.58c-1.26-0.38-2.56-0.62-3.84-0.9c-1.21-0.27-2.42-0.51-3.63-0.78   c-0.7-0.15-1.31-0.03-1.87,0.45c-1.39,1.19-2.81,2.35-4.22,3.51c-0.54,0.45-0.81,1.01-0.68,1.71c0.25,1.31,1.75,1.86,2.79,1.01   c1.21-0.98,2.41-1.99,3.61-2.99c0.18-0.15,0.34-0.2,0.58-0.14C23.22,16.01,24.05,16.17,24.96,16.36z"/>
  <path d="M34.81,14.62c2.36,0,4.23-1.87,4.23-4.23c0-2.35-1.9-4.25-4.24-4.23c-2.33,0.02-4.21,1.9-4.22,4.22   C30.56,12.72,32.46,14.62,34.81,14.62z"/>
  <path d="M22.1,29.76c-1.24-0.73-2.42-1.52-3.07-2.92c-0.11,0.14-0.19,0.24-0.27,0.34c-0.69,1-1.37,2-2.06,2.99   c-0.17,0.24-0.38,0.46-0.61,0.63c-1.77,1.32-3.55,2.62-5.32,3.94c-0.76,0.56-1.03,1.52-0.72,2.38c0.31,0.87,1.13,1.46,2.05,1.38   c0.4-0.03,0.84-0.17,1.16-0.4c1.99-1.43,3.95-2.89,5.92-4.35c0.17-0.13,0.34-0.27,0.46-0.45C20.46,32.14,21.27,30.97,22.1,29.76z"/>
  <path d="M33.36,19c-0.73,1.05-1.41,2.05-2.1,3.05c-0.04,0.06-0.09,0.16-0.06,0.22c0.32,0.68,0.57,1.44,1.42,1.63   c0.36,0.08,0.79,0.09,1.14-0.02c1.69-0.54,3.36-1.13,5.03-1.72c0.95-0.33,1.41-1.27,1.11-2.2c-0.29-0.89-1.25-1.36-2.19-1.05   c-1.14,0.37-2.27,0.76-3.39,1.16c-0.29,0.11-0.41,0.02-0.52-0.22C33.68,19.58,33.53,19.32,33.36,19z"/>
</svg>
