<svg xmlns="http://www.w3.org/2000/svg" version="1.1" x="0px" y="0px" viewBox="0 0 40 40" style="enable-background:new 0 0 40 40;">
  <path d="M22.51,31.1h-6.07v-5.38h6.07V31.1z M27.54,17.57c-0.52,0.87-1.39,1.73-2.95,2.95c-1.04,0.87-1.56,1.39-1.91,1.91   c-0.35,0.52-0.35,1.04-0.35,1.91h-5.72v-0.52c0-1.04,0.17-1.73,0.35-2.43c0.17-0.52,0.52-1.21,1.04-1.73   c0.52-0.52,1.39-1.39,2.95-2.6c0.87-0.69,1.21-1.21,1.21-1.73s-0.17-1.04-0.52-1.21s-0.87-0.52-1.56-0.52s-1.21,0.17-1.73,0.69   s-0.69,1.21-0.87,2.43l-5.72-0.69c0.17-2.08,1.04-3.82,2.25-5.2c1.39-1.39,3.47-1.91,6.24-1.91c2.25,0,3.99,0.52,5.2,1.39   c1.73,1.21,2.77,2.78,2.77,4.86C28.24,16.01,27.89,16.88,27.54,17.57z"/>
  <path d="M20,0C8.95,0,0,8.95,0,20c0,11.05,8.95,20,20,20s20-8.95,20-20C40,8.95,31.05,0,20,0z M20,37.66   c-9.75,0-17.66-7.91-17.66-17.66c0-9.75,7.91-17.66,17.66-17.66S37.66,10.25,37.66,20C37.66,29.75,29.75,37.66,20,37.66z"/>
</svg>
