<svg xmlns="http://www.w3.org/2000/svg" version="1.1" x="0px" y="0px" viewBox="0 0 40 40" style="enable-background:new 0 0 40 40;">
  <path d="M34.55,7.83c1.65,0,2.99,1.34,2.99,2.99v18.36c0,1.65-1.34,2.99-2.99,2.99H11.81c-0.98,0-1.9-0.48-2.46-1.29L2.98,21.7   c-0.71-1.02-0.71-2.38,0-3.41l6.37-9.18c0.56-0.81,1.48-1.29,2.46-1.29H34.55 M34.55,5.38H11.81c-1.79,0-3.46,0.88-4.48,2.34   L0.97,16.9c-1.29,1.86-1.29,4.35,0,6.21l6.37,9.18c1.02,1.47,2.69,2.34,4.47,2.34h22.75c3,0,5.45-2.44,5.45-5.45V10.82   C40,7.82,37.56,5.38,34.55,5.38L34.55,5.38z"/>
  <circle cx="9.82" cy="20" r="2.9"/>
</svg>
