<svg xmlns="http://www.w3.org/2000/svg" version="1.1" x="0px" y="0px" viewBox="0 0 40 40" style="enable-background:new 0 0 40 40;">
  <path d="M34.68,2.98H20.03h-1.56H5.32C2.39,2.98,0,5.36,0,8.3v0.84v0.89V31.7c0,2.93,2.39,5.32,5.32,5.32h13.15h1.56h14.65   c2.93,0,5.32-2.39,5.32-5.32V10.03V9.14V8.3C40,5.36,37.61,2.98,34.68,2.98z M38.84,9.14v0.89V31.7c0,2.29-1.87,4.16-4.16,4.16   H20.03h-1.56H5.32c-2.29,0-4.16-1.87-4.16-4.16V10.03V9.14V8.3c0-2.29,1.87-4.16,4.16-4.16h13.15h1.56h14.65   c2.29,0,4.16,1.87,4.16,4.16V9.14z"/>
  <path d="M25.37,29.73c-3.59,0-7.17,0-10.76,0c-0.01-0.13-0.01-0.25-0.04-0.38c-0.07-0.36,0.1-0.53,0.5-0.6     c0.57-0.11,1.12-0.26,1.69-0.37c0.8-0.15,0.81-0.14,0.81-0.85c0.01-5.14,0.01-10.28,0.01-15.43c0-0.1-0.01-0.2-0.02-0.33     c-1.31,0-2.61-0.01-3.9,0.01c-0.11,0-0.26,0.18-0.31,0.3c-0.49,1.1-0.99,2.19-1.43,3.3c-0.15,0.39-0.41,0.39-0.76,0.36     c-0.38-0.03-0.28-0.31-0.3-0.5c-0.1-0.96-0.19-1.92-0.25-2.88c-0.04-0.68-0.01-1.36-0.01-2.07c0.17,0,0.34,0,0.51,0     c5.9,0,11.8,0,17.71,0c0.19,0,0.38-0.01,0.57-0.02c0,0.73,0,1.47,0,2.2c-0.03,0.12-0.07,0.24-0.08,0.37     c-0.07,0.82-0.12,1.64-0.19,2.46c-0.01,0.18,0.05,0.42-0.28,0.43c-0.29,0-0.61,0.1-0.77-0.29c-0.45-1.13-0.97-2.25-1.44-3.38     c-0.1-0.23-0.23-0.3-0.51-0.3c-1.03,0.01-2.07,0-3.1,0c-0.18,0-0.36,0-0.54,0c0,5.54,0,11.01,0,16.47     c0.71,0.15,1.38,0.26,2.03,0.43C25.54,28.92,25.42,28.7,25.37,29.73z"/>
</svg>
