<svg xmlns="http://www.w3.org/2000/svg" version="1.1" x="0px" y="0px" viewBox="0 0 40 40" style="enable-background:new 0 0 40 40;">
  <path d="M10.42,14.91c1.46,0,2.71-0.57,3.75-1.71c1.03-1.14,1.55-2.51,1.55-4.12c0-1.61-0.52-2.98-1.55-4.12    c-1.03-1.14-2.28-1.71-3.75-1.71c-1.46,0-2.71,0.57-3.74,1.71C5.64,6.11,5.13,7.48,5.13,9.09c0,1.61,0.52,2.98,1.55,4.12    C7.71,14.35,8.96,14.91,10.42,14.91z"/>
  <path d="M13,25.58c0.26-0.8,0.6-1.58,1.02-2.32c0.46-0.81,1.01-1.53,1.64-2.14c0.71-0.68,1.55-1.21,2.52-1.6    c0.35-0.14,0.71-0.25,1.07-0.34c-0.44-0.86-0.73-1.79-0.9-2.76c-0.29-0.23-0.61-0.42-0.98-0.58c-0.5-0.2-1.05-0.3-1.65-0.3    c-0.09,0-0.3,0.11-0.62,0.32c-0.33,0.21-0.69,0.45-1.1,0.71c-0.41,0.26-0.94,0.5-1.6,0.71c-0.66,0.21-1.31,0.32-1.98,0.32    c-0.66,0-1.32-0.11-1.98-0.32c-0.66-0.21-1.19-0.45-1.6-0.71c-0.41-0.26-0.78-0.5-1.1-0.71c-0.33-0.21-0.53-0.32-0.62-0.32    c-0.6,0-1.15,0.1-1.65,0.3c-0.5,0.2-0.92,0.46-1.27,0.79c-0.35,0.33-0.65,0.73-0.92,1.2c-0.27,0.47-0.48,0.95-0.64,1.44    c-0.16,0.49-0.29,1.03-0.39,1.61c-0.1,0.58-0.17,1.12-0.21,1.62C0.02,23,0,23.51,0,24.04c0,1.19,0.36,2.12,1.08,2.81    c0.72,0.69,1.68,1.03,2.87,1.03h8.49C12.59,27.07,12.77,26.3,13,25.58z"/>
  <path d="M40,32.18c0,1.41-0.43,2.52-1.28,3.33c-0.85,0.82-1.99,1.22-3.41,1.22H19.93c-1.42,0-2.56-0.41-3.41-1.22   c-0.86-0.82-1.28-1.93-1.28-3.33c0-0.62,0.02-1.23,0.06-1.82c0.04-0.59,0.12-1.23,0.25-1.92c0.12-0.68,0.28-1.32,0.47-1.91   c0.19-0.58,0.44-1.16,0.76-1.71c0.32-0.56,0.68-1.03,1.09-1.43c0.41-0.39,0.91-0.71,1.5-0.94c0.59-0.23,1.25-0.35,1.96-0.35   c0.11,0,0.35,0.13,0.74,0.38c0.38,0.25,0.82,0.53,1.31,0.84c0.49,0.31,1.12,0.59,1.9,0.84c0.78,0.25,1.56,0.38,2.35,0.38   c0.79,0,1.57-0.13,2.35-0.38c0.78-0.25,1.41-0.53,1.9-0.84c0.49-0.31,0.92-0.59,1.31-0.84c0.39-0.25,0.63-0.38,0.74-0.38   c0.72,0,1.37,0.12,1.96,0.35c0.59,0.24,1.09,0.55,1.5,0.94c0.41,0.39,0.77,0.87,1.09,1.43c0.32,0.56,0.57,1.13,0.76,1.71   c0.19,0.59,0.34,1.22,0.47,1.91c0.12,0.69,0.21,1.33,0.25,1.92C39.98,30.96,40,31.56,40,32.18z M32.07,9.53   c1.23,1.35,1.84,2.98,1.84,4.89s-0.62,3.54-1.84,4.89c-1.23,1.35-2.71,2.03-4.45,2.03c-1.73,0-3.22-0.68-4.45-2.03   c-1.23-1.35-1.84-2.98-1.84-4.89s0.61-3.54,1.84-4.89c1.23-1.35,2.71-2.03,4.45-2.03C29.35,7.5,30.84,8.18,32.07,9.53z"/>
</svg>
