<svg xmlns="http://www.w3.org/2000/svg" version="1.1" x="0px" y="0px" viewBox="0 0 64 64" enable-background="new 0 0 64 64">
  <path fill="#ACACAC" d="M9.481,9.481c-12.437,12.437-12.437,32.601,0,45.038s32.601,12.437,45.038,0   c12.437-12.437,12.437-32.601,0-45.038S21.918-2.956,9.481,9.481z M50.296,50.296c-10.088,10.088-26.505,10.088-36.593,0   s-10.088-26.505,0-36.593s26.505-10.088,36.593,0S60.385,40.208,50.296,50.296z"/>
  <path fill="#F4F4F4" d="M13.703,13.703c10.088-10.088,26.505-10.088,36.593,0l4.223-4.222c-12.437-12.437-32.601-12.437-45.038,0   L13.703,13.703z"/>
</svg>
