<svg xmlns="http://www.w3.org/2000/svg" version="1.1" x="0px" y="0px" viewBox="0 0 40 40" style="enable-background:new 0 0 40 40;">
  <path d="M9.96,2.68C13.03,0.9,16.37,0,20,0c3.63,0,6.97,0.89,10.04,2.68c3.06,1.79,5.49,4.21,7.28,7.28C39.11,13.03,40,16.37,40,20  s-0.89,6.97-2.68,10.04c-1.79,3.06-4.21,5.49-7.28,7.28C26.97,39.1,23.63,40,20,40c-3.63,0-6.97-0.89-10.04-2.68  c-3.06-1.79-5.49-4.21-7.28-7.28C0.89,26.97,0,23.63,0,20s0.89-6.97,2.68-10.04C4.47,6.9,6.9,4.47,9.96,2.68z M11.78,34.17  c2.51,1.46,5.25,2.2,8.22,2.2c2.97,0,5.71-0.73,8.22-2.2c2.51-1.46,4.5-3.45,5.96-5.96c1.46-2.51,2.2-5.25,2.2-8.22  s-0.73-5.71-2.2-8.22c-1.46-2.51-3.45-4.49-5.96-5.96c-2.51-1.46-5.25-2.2-8.22-2.2c-2.97,0-5.71,0.73-8.22,2.2  c-2.51,1.46-4.49,3.45-5.96,5.96c-1.46,2.51-2.2,5.25-2.2,8.22s0.73,5.71,2.2,8.22C7.29,30.72,9.28,32.71,11.78,34.17z M16.9,10.24  c0.16-0.16,0.36-0.23,0.6-0.23h1.67c0.24,0,0.44,0.08,0.6,0.23c0.16,0.16,0.23,0.36,0.23,0.6V20h5.83c0.24,0,0.44,0.08,0.6,0.23  s0.23,0.36,0.23,0.6v1.67c0,0.24-0.08,0.44-0.23,0.6s-0.36,0.23-0.6,0.23H17.5c-0.24,0-0.44-0.08-0.6-0.23  c-0.16-0.16-0.23-0.36-0.23-0.6V10.83C16.67,10.59,16.74,10.39,16.9,10.24z"/>
</svg>
