<svg xmlns="http://www.w3.org/2000/svg" version="1.1" x="0px" y="0px" viewBox="0 0 40 40" style="enable-background:new 0 0 40 40;">
  <path d="M15.66,40c-0.6-0.28-1.04-0.69-1-1.42c0.03-0.66,0.57-1.23,1.23-1.23c2.73-0.01,5.46-0.01,8.2,0    c0.58,0,1.08,0.46,1.21,1.03c0.13,0.56-0.13,1.16-0.65,1.45c-0.11,0.06-0.22,0.12-0.32,0.18C21.44,40,18.55,40,15.66,40z"/>
  <path d="M19.92,29.33c-2.18,0-4.36,0-6.54,0c-0.14,0-0.28,0-0.42-0.02C12.19,29.2,12,28.98,12,28.21c0-1.28-0.01-2.56,0-3.83    c0-0.26-0.08-0.43-0.28-0.6c-3.54-2.91-5.25-6.68-5.03-11.25c0.3-6.22,5.1-11.44,11.27-12.37c7.22-1.09,14.03,3.76,15.18,10.9    c0.68,4.18-0.33,7.93-3.26,11.08c-0.29,0.32-0.6,0.62-0.9,0.93c-0.64,0.67-1.01,1.45-0.99,2.39c0.02,0.82,0.01,1.64,0,2.46    c0,0.85-0.56,1.41-1.41,1.41C24.36,29.33,22.14,29.33,19.92,29.33z M19.99,26.67c1.25,0,2.5,0,3.75,0c1.07,0,1.59-0.52,1.6-1.57    c0-0.54,0.01-1.08,0-1.62c-0.01-0.53,0.2-0.93,0.6-1.27c0.47-0.39,0.93-0.79,1.37-1.21c2.7-2.58,3.77-5.72,3.21-9.4    c-1.02-6.66-8.18-10.71-14.46-8.17C9.5,6.06,7.21,14.22,11.5,19.67c0.7,0.89,1.6,1.61,2.39,2.43c0.15,0.15,0.3,0.35,0.34,0.54    c0.14,0.8,0.26,1.61,0.34,2.43c0.1,1.09,0.6,1.59,1.67,1.6C17.49,26.67,18.74,26.67,19.99,26.67z"/>
  <path d="M20.04,32c2.17,0,4.33,0,6.5,0c0.86,0,1.45,0.54,1.46,1.31c0,0.8-0.58,1.35-1.46,1.35c-4.39,0-8.77,0-13.16,0    c-0.79,0-1.36-0.56-1.37-1.31C11.99,32.57,12.57,32,13.37,32C15.6,32,17.82,32,20.04,32z"/>
</svg>
