<svg xmlns="http://www.w3.org/2000/svg" version="1.1" x="0px" y="0px" viewBox="0 0 40 40" style="enable-background:new 0 0 40 40;">
  <path d="M0,33.7c0.08-0.31,0.15-0.63,0.24-0.94c0.32-1.06,0.9-1.96,1.75-2.67c5.7-4.75,11.41-9.49,17.12-14.23    c0.06-0.05,0.12-0.1,0.17-0.15c-0.24-0.69-0.53-1.36-0.72-2.06c-1.03-3.79-0.31-7.26,2.09-10.34c1.45-1.86,3.53-2.74,5.81-3.13    c1.67-0.29,3.35-0.23,5.01,0.1c0.3,0.06,0.56,0.25,0.92,0.42c-0.17,0.18-0.25,0.28-0.34,0.37c-2.21,2.21-4.42,4.42-6.63,6.63    c-0.64,0.64-0.64,1.03,0,1.68c1.73,1.73,3.46,3.46,5.19,5.19c0.67,0.67,1.03,0.66,1.7-0.02c2.23-2.23,4.46-4.46,6.69-6.68    c0.05-0.05,0.11-0.11,0.17-0.17c0.33,0.19,0.48,0.47,0.55,0.84c0.56,3.05,0.32,5.99-1.27,8.72c-1.12,1.93-2.87,3.07-4.9,3.85    c-3.07,1.17-6.09,0.98-9.06-0.36c-0.31-0.14-0.44-0.08-0.64,0.16c-4.7,5.67-9.39,11.35-14.14,16.99    c-1.46,1.74-3.43,2.35-5.64,1.75c-2.2-0.6-3.52-2.11-4-4.35c-0.02-0.1-0.05-0.19-0.08-0.29C0,34.59,0,34.14,0,33.7z M6.83,35.67    c0-0.91,0-1.76,0-2.63c-0.89,0-1.75,0-2.64,0c0,0.89,0,1.76,0,2.63C5.09,35.67,5.95,35.67,6.83,35.67z"/>
</svg>
