<svg xmlns="http://www.w3.org/2000/svg" version="1.1" x="0px" y="0px" viewBox="0 0 40 40" style="enable-background:new 0 0 40 40;">
  <path d="M20,0C8.95-0.01,0.01,8.94,0,19.99c-0.01,11.04,8.94,20,19.99,20.01c11.04,0.01,20-8.95,20.01-20  C40.01,8.96,31.05,0.01,20,0z M25.15,31.23c-0.07,0.32-0.14,0.61-0.22,0.9c-0.1,0.33-0.37,0.62-0.68,0.73l-0.88,0.32  c-0.79,0.29-1.61,0.59-2.46,0.78c-0.47,0.1-0.94,0.16-1.4,0.16c-0.79,0-1.55-0.16-2.26-0.46c-1.55-0.67-2.44-2.08-2.38-3.77  c0.05-1.33,0.4-2.57,0.74-3.77l0.18-0.63c0.35-1.3,0.71-2.6,1.01-3.92c0.08-0.35,0.06-0.78,0.04-1.15  c-0.01-0.19-0.02-0.25-0.35-0.32c-0.17-0.03-0.33-0.05-0.49-0.05c-0.42,0-0.86,0.09-1.47,0.31l-0.26,0.07l-1.14,0.24l0.14-1.11  l0.08-0.33c0.08-0.33,0.15-0.63,0.23-0.93c0.09-0.31,0.34-0.6,0.64-0.71l0.52-0.2c1.27-0.5,2.58-1.01,4.06-1.04  c0.01,0,0.01,0,0.02,0c1.18,0,2.64,0.15,3.76,1.36c0.68,0.73,1,1.66,0.98,2.85c-0.02,1.29-0.36,2.48-0.7,3.63  c-0.12,0.42-0.24,0.84-0.35,1.27c-0.35,1.41-0.67,2.73-0.94,4.06c-0.06,0.31-0.05,0.54,0.03,0.65c0.08,0.1,0.29,0.18,0.59,0.2  c0.02,0,0.05,0,0.07,0c0.43,0,0.72-0.05,1.01-0.1l0.41-0.06c0.1-0.01,0.19-0.05,0.31-0.1l0.31-0.11l1.25-0.4L25.15,31.23z   M25.36,10.73c-0.49,1.39-1.96,2.36-3.56,2.38h-0.03c-1.28,0-2.47-0.6-3.17-1.59c-0.66-0.94-0.82-2.12-0.42-3.22  c0.52-1.44,1.97-2.41,3.63-2.41c0.47,0,0.92,0.08,1.36,0.24c0.92,0.33,1.66,0.99,2.07,1.85C25.64,8.84,25.69,9.82,25.36,10.73z"/>
</svg>
