<svg xmlns="http://www.w3.org/2000/svg" version="1.1" x="0px" y="0px" viewBox="0 0 40 40" style="enable-background:new 0 0 40 40;">
  <path d="M40,17.12c0,1.56-0.56,2.91-1.69,4.04c-1.12,1.13-2.47,1.7-4.03,1.7h-3.77c-0.06,0.92-0.33,1.81-0.83,2.66   c0.04,0.31,0.07,0.63,0.07,0.96c0,1.5-0.45,2.83-1.34,3.97c0.01,2.07-0.62,3.7-1.9,4.9c-1.28,1.2-2.97,1.8-5.07,1.8   c-1.98,0-4.37-0.51-7.19-1.54c-2.44-0.88-4.1-1.32-4.98-1.32H2.86c-0.79,0-1.46-0.28-2.02-0.84C0.28,32.89,0,32.22,0,31.43V17.14   c0-0.79,0.28-1.46,0.84-2.02c0.56-0.56,1.23-0.84,2.02-0.84h6.43c0.15,0,0.31-0.03,0.48-0.1c0.17-0.07,0.35-0.17,0.52-0.31   c0.18-0.14,0.35-0.27,0.5-0.4c0.16-0.13,0.33-0.29,0.54-0.5c0.2-0.21,0.35-0.37,0.46-0.48c0.1-0.11,0.25-0.27,0.42-0.48   c0.18-0.21,0.28-0.33,0.31-0.38c0.97-1.1,1.71-2.06,2.23-2.88c0.19-0.31,0.44-0.77,0.74-1.38s0.57-1.15,0.83-1.61   c0.25-0.46,0.55-0.93,0.9-1.41c0.35-0.48,0.76-0.84,1.23-1.11c0.47-0.26,0.99-0.39,1.55-0.39c1.86,0,3.4,0.5,4.61,1.49   c1.21,1,1.82,2.4,1.82,4.22c0,1.01-0.17,1.96-0.49,2.86h8.35c1.55,0,2.89,0.57,4.02,1.7S40,15.59,40,17.12z M5.29,31   c0.28-0.28,0.42-0.62,0.42-1s-0.14-0.72-0.42-1c-0.28-0.28-0.62-0.42-1-0.42s-0.72,0.14-1,0.42s-0.42,0.62-0.42,1S3,30.72,3.28,31   s0.62,0.42,1,0.42S5.01,31.29,5.29,31z M37.14,17.14c0-0.76-0.29-1.43-0.87-2c-0.58-0.57-1.24-0.86-1.99-0.86H21.43   c0-0.3,0.11-0.66,0.33-1.08c0.22-0.42,0.47-0.83,0.74-1.23c0.27-0.39,0.51-0.9,0.74-1.52c0.22-0.62,0.33-1.25,0.33-1.89   c0-1-0.33-1.72-0.99-2.18C21.92,5.94,21.06,5.71,20,5.71c-0.36,0-1.03,1.03-2.01,3.1c-0.36,0.65-0.63,1.14-0.83,1.45   c-0.59,0.95-1.43,2.03-2.5,3.24c-1.06,1.2-1.81,1.99-2.25,2.36c-1.03,0.85-2.07,1.27-3.13,1.27H8.57v14.29h0.71   c1.07,0,2.31,0.24,3.73,0.71c1.41,0.48,2.85,0.95,4.32,1.43c1.47,0.48,2.8,0.71,4.01,0.71c2.81,0,4.22-1.24,4.22-3.73   c0-0.39-0.04-0.8-0.11-1.25c0.45-0.24,0.8-0.63,1.06-1.17c0.26-0.54,0.39-1.09,0.39-1.64c0-0.55-0.13-1.06-0.4-1.54   c0.79-0.74,1.18-1.63,1.18-2.66c0-0.37-0.08-0.79-0.22-1.24c-0.15-0.45-0.33-0.81-0.56-1.06h7.39c0.77,0,1.44-0.28,2.01-0.85   S37.14,17.92,37.14,17.14z"/>
</svg>
