<svg xmlns="http://www.w3.org/2000/svg" version="1.1" x="0px" y="0px" viewBox="0 0 40 40" style="enable-background:new 0 0 40 40;">
  <path d="M23.32,36.48l-5.12-5.12c0.97-1.53,1.53-3.34,1.53-5.28c0-5.45-4.42-9.87-9.87-9.87S0,20.62,0,26.07s4.42,9.87,9.87,9.87   c1.94,0,3.76-0.56,5.29-1.53l5.12,5.12c0.71,0.71,1.95,0.62,2.77-0.2l0.08-0.08C23.94,38.42,24.03,37.18,23.32,36.48z M1.78,26.07   c0-4.46,3.62-8.08,8.08-8.08s8.08,3.62,8.08,8.08s-3.62,8.08-8.08,8.08S1.78,30.54,1.78,26.07z"/>
  <path d="M39.99,9.16c0-0.21-0.03-0.43-0.05-0.71c-0.23,0.08-0.4,0.12-0.55,0.19c-4.11,1.81-8.22,3.63-12.33,5.44    c-0.37,0.16-0.51,0.37-0.51,0.78c0.01,3.89,0.01,7.78,0.01,11.67c0,0.2,0.02,0.39,0.04,0.64c0.22-0.07,0.4-0.12,0.57-0.19    c4.09-1.83,8.17-3.67,12.26-5.49C39.84,21.3,40,21.07,40,20.61C39.99,16.79,39.99,12.98,39.99,9.16z"/>
  <path d="M24.33,11.41c0.32,0.14,0.61,0.16,0.94,0.02c4.26-1.76,8.53-3.51,12.79-5.26c0.19-0.08,0.38-0.19,0.65-0.33    c-0.3-0.15-0.5-0.27-0.72-0.37c-4.06-1.79-8.13-3.57-12.19-5.36c-0.36-0.16-0.67-0.15-1.03,0c-4.16,1.81-8.33,3.6-12.5,5.4    c-0.19,0.08-0.37,0.19-0.64,0.33c0.24,0.13,0.41,0.24,0.59,0.31C16.27,7.91,20.3,9.66,24.33,11.41z"/>
  <path d="M21.89,26.07c0,0.11-0.01,0.21-0.02,0.31c0.43,0.19,0.85,0.38,1.28,0.57c0.18,0.08,0.36,0.13,0.59,0.2    c0.02-0.28,0.05-0.49,0.05-0.7c0-3.85,0-7.69,0.01-11.54c0-0.45-0.14-0.69-0.56-0.88c-4.11-1.78-8.21-3.59-12.31-5.39    c-0.18-0.08-0.37-0.13-0.6-0.2c-0.01,0.26-0.03,0.45-0.03,0.65c0,1.65-0.01,3.31-0.01,4.96C16.73,14.3,21.89,19.59,21.89,26.07z"/>
</svg>
