<svg xmlns="http://www.w3.org/2000/svg" version="1.1" x="0px" y="0px" viewBox="0 0 40 40" style="enable-background:new 0 0 40 40;">
  <path d="M25.08,35.39c0,1.43-0.43,2.55-1.3,3.38C22.91,39.59,21.76,40,20.32,40H4.75c-1.44,0-2.59-0.41-3.45-1.24    C0.43,37.94,0,36.81,0,35.39c0-0.63,0.02-1.24,0.06-1.84s0.12-1.25,0.25-1.94c0.12-0.69,0.28-1.34,0.47-1.93    c0.19-0.59,0.44-1.17,0.77-1.74c0.32-0.56,0.69-1.04,1.1-1.44c0.42-0.4,0.92-0.71,1.52-0.95c0.6-0.24,1.26-0.36,1.99-0.36    c0.11,0,0.36,0.13,0.75,0.38c0.39,0.25,0.83,0.54,1.32,0.85c0.49,0.31,1.14,0.6,1.92,0.85c0.79,0.25,1.58,0.38,2.38,0.38    c0.8,0,1.59-0.13,2.38-0.38c0.79-0.25,1.43-0.54,1.92-0.85c0.49-0.31,0.94-0.6,1.33-0.85c0.39-0.25,0.64-0.38,0.75-0.38    c0.72,0,1.39,0.12,1.99,0.36c0.6,0.24,1.11,0.56,1.52,0.95c0.42,0.4,0.78,0.88,1.1,1.44c0.32,0.56,0.58,1.14,0.77,1.74    c0.19,0.59,0.35,1.24,0.47,1.93c0.12,0.7,0.21,1.34,0.25,1.94S25.08,34.76,25.08,35.39z M17.04,12.44    c1.24,1.37,1.87,3.02,1.87,4.96s-0.62,3.59-1.87,4.96c-1.24,1.37-2.75,2.05-4.51,2.05c-1.76,0-3.26-0.68-4.5-2.05    c-1.25-1.37-1.87-3.02-1.87-4.96s0.62-3.59,1.87-4.96c1.24-1.37,2.75-2.05,4.5-2.05C14.3,10.39,15.8,11.07,17.04,12.44z"/>
  <path d="M34.68,0H20.03h-1.56h-5.15C10.39,0,8,2.39,8,5.32v0.84v0.89v2.58c0.37-0.25,0.76-0.48,1.16-0.67V7.05V6.17V5.32    c0-2.29,1.87-4.16,4.16-4.16h5.15h1.56h14.65c2.29,0,4.16,1.87,4.16,4.16v0.84v0.89v21.67c0,2.29-1.87,4.16-4.16,4.16h-7.56    c0.02,0.17,0.04,0.34,0.05,0.51c0.01,0.21,0.01,0.44,0.02,0.65h7.49c2.93,0,5.32-2.39,5.32-5.32V7.05V6.17V5.32    C40,2.39,37.61,0,34.68,0z"/>
  <path d="M21.38,30.43c-0.78,0-1.51-0.45-1.84-1.21c-0.43-1.01-1.17-3.77-0.16-4.21c0.28-0.12,7.62-1.36,7.91-9.51    c0.04-1.1,0.92-1.95,2.07-1.93c1.1,0.04,1.97,0.97,1.93,2.07c-0.38,10.76-8.76,14.47-9.12,14.63    C21.91,30.37,21.64,30.43,21.38,30.43z"/>
</svg>
