<svg xmlns="http://www.w3.org/2000/svg" version="1.1" x="0px" y="0px" viewBox="0 0 40 40" style="enable-background:new 0 0 40 40;">
  <path d="M11.86,16.26C5.31,16.26,0,21.57,0,28.12c0,6.55,5.31,11.87,11.87,11.87s11.87-5.31,11.87-11.87   C23.73,21.57,18.42,16.26,11.86,16.26z M11.86,38.6c-5.79,0-10.48-4.69-10.48-10.48c0-5.79,4.69-10.48,10.48-10.48   s10.48,4.69,10.48,10.48C22.34,33.91,17.65,38.6,11.86,38.6z"/>
  <path d="M37.22,0.01h-6.41h-4.29h-3.07h-0.44h-3.07h-4.29H9.23c-1.53,0-2.78,1.25-2.78,2.78v2.47v4.72v7.96   c0.63-0.34,1.3-0.62,2-0.84V9.97h14.56h0.44H38v11.6c0,0.43-0.35,0.78-0.78,0.78h-6.41h-4.29h-3.07h-0.44h-1.15   c0.37,0.63,0.67,1.3,0.91,2h0.24h0.44h3.07h4.29h6.41c1.53,0,2.78-1.25,2.78-2.78V9.97V5.26V2.79C40,1.26,38.75,0.01,37.22,0.01z    M38,5.26H23.44h-0.44H8.45V2.79c0-0.43,0.35-0.78,0.78-0.78h6.41h4.29h3.07h0.44h3.07h4.29h6.41c0.43,0,0.78,0.35,0.78,0.78V5.26z   "/>
  <path d="M9.35,26.14v-1.44c0-1,0.81-1.81,1.81-1.81h1.4c1,0,1.81,0.81,1.81,1.81v1.44h1.44v-1.44c0-1.8-1.46-3.26-3.26-3.26h-1.4    c-1.8,0-3.26,1.46-3.26,3.26v1.44H9.35z"/>
  <path d="M16.03,26.62H7.7c-0.69,0-1.26,0.56-1.26,1.26v5.67c0,0.69,0.56,1.26,1.26,1.26h8.33c0.69,0,1.26-0.56,1.26-1.26v-5.67    C17.29,27.18,16.72,26.62,16.03,26.62z M12.48,31.97v0.67c0,0.34-0.27,0.61-0.61,0.61c-0.34,0-0.61-0.27-0.61-0.61v-0.67    c-0.47-0.23-0.79-0.7-0.79-1.26c0-0.77,0.63-1.4,1.4-1.4c0.77,0,1.4,0.63,1.4,1.4C13.27,31.27,12.94,31.74,12.48,31.97z"/>
</svg>
