<svg xmlns="http://www.w3.org/2000/svg" version="1.1" x="0px" y="0px" viewBox="0 0 40 40" style="enable-background:new 0 0 40 40;">
  <polygon points="23.79,20 27.96,15.84 28.32,15.44 28.3,14.42 25.92,12.04 25.52,11.68 24.51,11.7 20,16.21 15.83,12.04    15.44,11.68 14.42,11.7 12.04,14.08 11.68,14.48 11.7,15.49 16.21,20 12.04,24.16 11.68,24.56 11.7,25.58 14.08,27.96 14.48,28.32    15.49,28.3 20,23.79 24.17,27.96 24.56,28.32 25.04,28.32 25.58,28.3 27.96,25.92 28.32,25.52 28.3,24.51  "/>
  <path d="M20,3.03c0.12,0,0.25,0.04,0.36,0.11c2.79,1.76,7.3,3.51,14.47,4.04c0.36,0.03,0.64,0.32,0.64,0.68v18.17    c0,0.29-0.09,0.57-0.27,0.82c-0.48,0.68-1.4,1.78-3.03,3.16c-2.75,2.33-6.49,4.59-11.12,6.74c-0.33,0.15-0.69,0.23-1.05,0.23    c-0.36,0-0.72-0.08-1.05-0.23c-4.64-2.15-8.37-4.41-11.12-6.74c-1.47-1.24-2.36-2.26-2.87-2.94c-0.28-0.37-0.42-0.8-0.42-1.24    V7.85c0-0.36,0.28-0.65,0.64-0.68c7.17-0.53,11.68-2.28,14.47-4.04C19.75,3.07,19.88,3.03,20,3.03 M20,0    c-0.7,0-1.38,0.2-1.98,0.57c-2.14,1.35-6.15,3.07-13.07,3.58C3.02,4.29,1.5,5.92,1.5,7.85v17.96c0,1.1,0.36,2.16,1.03,3.06    c0.83,1.11,1.96,2.27,3.34,3.44c2.96,2.5,6.93,4.91,11.81,7.17C18.4,39.82,19.2,40,20,40c0.8,0,1.6-0.18,2.32-0.51    c4.88-2.26,8.85-4.68,11.81-7.17c1.88-1.58,2.96-2.9,3.55-3.72c0.54-0.76,0.82-1.65,0.82-2.57V7.85c0-1.93-1.52-3.56-3.45-3.7    c-6.92-0.51-10.93-2.23-13.07-3.58C21.38,0.2,20.7,0,20,0L20,0z"/>
</svg>
