<svg xmlns="http://www.w3.org/2000/svg" version="1.1" x="0px" y="0px" viewBox="0 0 40 40" style="enable-background:new 0 0 40 40;">
  <path d="M35.27,37.88L1.38,3.99c-0.91-0.91-0.91-2.39,0-3.31l0,0c0.91-0.91,2.39-0.91,3.3,0l33.89,33.89   c0.91,0.91,0.91,2.39,0,3.31v0C37.66,38.79,36.18,38.79,35.27,37.88z"/>
  <path d="M32.38,24.75V10.86c0-0.01-0.01-0.03-0.03-0.03c-3.84-0.5-7.83-1.46-11.3-3.2c-0.01,0-0.02,0-0.03,0    c-1.31,0.66-2.7,1.21-4.12,1.66c-0.02,0.01-0.03,0.03-0.01,0.05l15.43,15.43C32.35,24.79,32.38,24.78,32.38,24.75z"/>
  <path d="M9.7,15.94v9.81c0,0.01,0,0.01,0.01,0.02c1.06,1.3,4.05,4.26,11.32,7.74c0.01,0,0.02,0,0.03,0    c1.55-0.74,2.91-1.46,4.09-2.15c0.02-0.01,0.02-0.03,0.01-0.05l-15.4-15.4C9.73,15.91,9.7,15.92,9.7,15.94z"/>
  <path d="M27.28,33.48c-1.57,0.92-3.32,1.82-5.22,2.71c-0.65,0.3-1.39,0.3-2.03,0c-4.36-2.03-7.87-4.16-10.47-6.34    c-1.39-1.17-2.22-2.13-2.71-2.78c-0.26-0.35-0.4-0.76-0.4-1.17V12.64c0-0.01,0-0.02-0.01-0.02L2.82,9    C2.81,8.98,2.77,8.99,2.77,9.02V26.8c0,0.26,0.06,0.52,0.19,0.76c0.77,1.46,4.26,6.62,17.11,12.24c0.62,0.27,1.32,0.27,1.94,0    c3.06-1.34,5.58-2.65,7.67-3.89c0.02-0.01,0.02-0.03,0.01-0.05l-2.38-2.38C27.3,33.47,27.29,33.47,27.28,33.48z"/>
  <path d="M14.65,7.07c2.82-0.78,4.88-1.78,6.38-2.77c0.01-0.01,0.02-0.01,0.03,0c2.67,1.77,7.16,3.59,14.55,4.06    c0.02,0,0.03,0.01,0.03,0.03v17.71c0,0.27-0.09,0.54-0.25,0.77c-0.11,0.15-0.24,0.33-0.4,0.52c-0.01,0.01-0.01,0.03,0,0.04    l2.43,2.43c0.01,0.01,0.03,0.01,0.04,0c0.94-1.05,1.43-1.84,1.66-2.29c0.13-0.24,0.19-0.5,0.19-0.76V5.31    c0-0.02-0.01-0.03-0.03-0.03c-9.95,0-14.7-2.42-16.78-4.09c-0.82-0.66-2.09-0.66-2.91,0c-1.29,1.03-3.61,2.36-7.56,3.21    c-0.02,0-0.03,0.03-0.02,0.05l2.61,2.61C14.63,7.07,14.64,7.07,14.65,7.07z"/>
</svg>
