<svg xmlns="http://www.w3.org/2000/svg" version="1.1" x="0px" y="0px" viewBox="0 0 40 40" style="enable-background:new 0 0 40 40;">
  <path d="M12.05,16.72c-0.49-0.39-1.25-0.39-1.75,0c-1.25,1-4.1,2.45-10.08,2.45v12.91c0,0.16,0.04,0.31,0.11,0.46    c0.46,0.87,2.56,3.97,10.27,7.34c0.36,0.16,0.79,0.16,1.15,0c7.71-3.37,9.8-6.47,10.27-7.34c0.08-0.14,0.11-0.3,0.11-0.46V19.18    C16.15,19.18,13.3,17.72,12.05,16.72z M19.93,31.66c0,0.16-0.05,0.32-0.15,0.46c-0.27,0.39-0.79,1.01-1.71,1.79    c-1.56,1.32-3.67,2.6-6.3,3.81c-0.37,0.17-0.81,0.17-1.18,0c-2.62-1.22-4.74-2.5-6.3-3.81c-0.83-0.7-1.33-1.28-1.62-1.67    c-0.16-0.21-0.24-0.45-0.24-0.7V21.02c4.45-0.28,7.15-1.37,8.75-2.44c1.6,1.07,4.3,2.16,8.75,2.44V31.66z"/>
  <path d="M4.38,22.51v8.96c0.63,0.78,2.43,2.56,6.8,4.65c4.37-2.09,6.17-3.88,6.8-4.65v-8.96c-2.31-0.3-4.71-0.87-6.8-1.93    C9.09,21.64,6.69,22.21,4.38,22.51z M14.96,24.63l0.75,0.75c0.26,0.26,0.26,0.68,0,0.94l-4.46,4.46l-1.22,1.22    c-0.26,0.26-0.68,0.26-0.94,0L6.77,29.7c-0.26-0.26-0.26-0.68,0-0.94l0.75-0.75c0.26-0.26,0.68-0.26,0.94,0l1.09,1.09l4.46-4.46    C14.28,24.37,14.7,24.37,14.96,24.63z"/>
  <path d="M39.78,10.26L29.51,0.01V0H17.96c-1.36,0-2.47,1.11-2.47,2.47V16.9c0.61,0.32,1.25,0.46,1.78,0.53V2.47   c0-0.38,0.31-0.69,0.69-0.69h9.77v7.8c0,1.36,1.11,2.47,2.47,2.47H38v15.37c0,0.38-0.31,0.69-0.69,0.69H23.52   c0,0-0.02,0.02-0.03,0.03v1.74h13.82c1.36,0,2.47-1.11,2.47-2.47L39.78,10.26L39.78,10.26L39.78,10.26z M30.2,10.26   c-0.38,0-0.69-0.31-0.69-0.69V2.52l7.76,7.74H30.2z"/>
</svg>
