<svg xmlns="http://www.w3.org/2000/svg" version="1.1" x="0px" y="0px" viewBox="0 0 40 40" style="enable-background:new 0 0 40 40;">
  <path d="M40,19.53c0,0.31,0,0.63,0,0.94c-0.45,0.94-0.81,1.94-1.38,2.81c-2.26,3.48-5.24,6.24-8.72,8.48    c-2.1,1.35-4.35,2.38-6.81,2.91c-0.64,0.14-1.3,0.23-1.95,0.34c-0.78,0-1.56,0-2.35,0c-0.07-0.02-0.14-0.06-0.22-0.07    c-1.87-0.17-3.64-0.71-5.35-1.47c-3.22-1.43-6-3.5-8.47-5.98c-1.7-1.7-3.21-3.55-4.31-5.72c-0.61-1.21-0.6-2.37,0.01-3.58    c0.9-1.76,2.07-3.31,3.4-4.75c2.78-3.01,5.96-5.48,9.75-7.09c3.55-1.51,7.18-1.83,10.9-0.67c2.45,0.77,4.7,1.92,6.74,3.46    C34.95,11.94,38.3,15.04,40,19.53z M19.97,30.01c5.49,0.01,10-4.49,10.02-9.99c0.02-5.51-4.48-10.03-10-10.03    c-5.52,0-10.03,4.5-10.02,10.02C9.97,25.51,14.47,30.01,19.97,30.01z"/>
  <path d="M14.99,20.03c2.93-0.18,4.87-2.28,5.01-4.99c2.09-0.42,4.65,1.84,4.96,4.39c0.34,2.79-1.91,5.44-4.68,5.57    C17.16,25.16,14.91,22.57,14.99,20.03z"/>
</svg>
