<svg xmlns="http://www.w3.org/2000/svg" version="1.1" x="0px" y="0px" viewBox="0 0 40 40" style="enable-background:new 0 0 40 40;">
  <path d="M39.5,32.32L23.17,4.02c-1.41-2.44-4.93-2.44-6.33,0L0.5,32.32c-1.41,2.44,0.35,5.48,3.17,5.48h32.68  C39.15,37.81,40.91,34.76,39.5,32.32z M17.53,12.21h5c0.38,0,0.68,0.32,0.66,0.7l-0.6,10.65c-0.02,0.35-0.31,0.62-0.66,0.62h-3.8  c-0.35,0-0.64-0.27-0.66-0.62l-0.6-10.65C16.85,12.53,17.15,12.21,17.53,12.21z M20.02,33.84c-2.32,0-3.48-1.04-3.48-3.12  c0-0.99,0.29-1.76,0.87-2.32c0.58-0.55,1.45-0.83,2.61-0.83c2.32,0,3.48,1.05,3.48,3.15C23.5,32.8,22.34,33.84,20.02,33.84z"/>
</svg>
