<svg xmlns="http://www.w3.org/2000/svg" version="1.1" x="0px" y="0px" viewBox="0 0 40 40" style="enable-background:new 0 0 40 40;">
  <path d="M20,0C8.95,0,0,8.96,0,20s8.95,20,20,20s20-8.95,20-20S31.05,0,20,0z M16.94,6.66h6.17c0.47,0,0.84,0.39,0.81,0.86  l-0.74,13.14c-0.02,0.43-0.38,0.77-0.81,0.77h-4.69c-0.43,0-0.79-0.34-0.81-0.77L16.13,7.52C16.1,7.05,16.47,6.66,16.94,6.66z   M20.01,33.34c-2.86,0-4.29-1.28-4.29-3.85c0-1.22,0.36-2.18,1.07-2.86c0.72-0.68,1.79-1.02,3.22-1.02c2.86,0,4.29,1.29,4.29,3.88  C24.31,32.06,22.88,33.34,20.01,33.34z"/>
</svg>
