<svg xmlns="http://www.w3.org/2000/svg" version="1.1" x="0px" y="0px" viewBox="0 0 40 40" style="enable-background:new 0 0 40 40;">
  <path d="M33.68,40H6.32C3.94,40,2,38.07,2,35.68v-7.82c0-0.53,0.43-0.96,0.96-0.96s0.96,0.43,0.96,0.96v7.82    c0,1.32,1.07,2.39,2.39,2.39h27.37c1.32,0,2.39-1.07,2.39-2.39v-7.82c0-0.53,0.43-0.96,0.96-0.96c0.53,0,0.96,0.43,0.96,0.96v7.82    C38,38.07,36.06,40,33.68,40z"/>
  <path d="M25.71,30.68H13.9c-1.26,0-2.29-0.95-2.29-2.13V14.62h-4.9c-0.73,0-1.36-0.42-1.6-1.06c-0.23-0.61-0.06-1.25,0.44-1.69    l13.1-11.44c0.64-0.56,1.65-0.56,2.3,0l13.1,11.44c0.5,0.44,0.67,1.09,0.44,1.69c-0.24,0.65-0.87,1.06-1.6,1.06H28v13.93    C28,29.72,26.97,30.68,25.71,30.68z"/>
</svg>
