<svg xmlns="http://www.w3.org/2000/svg" version="1.1" x="0px" y="0px" viewBox="0 0 40 40" style="enable-background:new 0 0 40 40;">
  <path d="M25.86,13.6c0,1.75-1.42,3.18-3.18,3.18c-1.75,0-3.18-1.42-3.18-3.18c0-1.75,1.42-3.18,3.18-3.18c0.1,0,0.2,0.02,0.3,0.03   c-0.89-0.48-1.9-0.77-2.98-0.77c-3.53,0-6.4,2.86-6.4,6.4c0,3.53,2.86,6.4,6.4,6.4c3.53,0,6.4-2.86,6.4-6.4   c0-0.92-0.2-1.79-0.55-2.58C25.85,13.53,25.86,13.56,25.86,13.6z"/>
  <path d="M27.86,32.15h2.33c3.25,0,5.88-2.63,5.88-5.88V5.88C36.08,2.63,33.44,0,30.2,0H9.8C6.56,0,3.92,2.63,3.92,5.88v20.39   c0,3.25,2.63,5.88,5.88,5.88h2.33c1.64,0,2.98,1.33,2.98,2.98H5.56c-0.9,0-1.63,0.73-1.63,1.63v1.6c0,0.9,0.73,1.63,1.63,1.63   h28.89c0.9,0,1.63-0.73,1.63-1.63v-1.6c0-0.9-0.73-1.63-1.63-1.63h-9.56C24.89,33.49,26.22,32.15,27.86,32.15z M20,25.41   c-5.15,0-9.33-4.18-9.33-9.33c0-5.15,4.18-9.33,9.33-9.33c5.15,0,9.33,4.18,9.33,9.33C29.33,21.23,25.15,25.41,20,25.41z"/>
</svg>
