<svg xmlns="http://www.w3.org/2000/svg" version="1.1" x="0px" y="0px" viewBox="0 0 40 40" style="enable-background:new 0 0 40 40;">
  <path d="M21.7,13.28c0.81-0.73,1.31-1.79,1.31-2.97c0-0.24-0.02-0.48-0.06-0.71l13.28-7.35L34.98,0L21.7,7.35l0,0   C20.99,6.7,20.04,6.31,19,6.31C16.79,6.31,15,8.1,15,10.31c0,0.24,0.02,0.48,0.06,0.71L1.78,18.37l1.25,2.26l13.28-7.35l0,0l0,0   l0,0v20.01L12.72,40h12.58l-3.59-6.71V13.28z M21.94,7.59c-0.01-0.01-0.02-0.02-0.03-0.03C21.92,7.57,21.93,7.58,21.94,7.59z    M22.66,8.66c0,0,0-0.01-0.01-0.01C22.65,8.65,22.65,8.66,22.66,8.66z M22.51,8.37c0,0,0-0.01-0.01-0.01   C22.5,8.36,22.51,8.36,22.51,8.37z M22.16,7.84c-0.01-0.01-0.02-0.02-0.03-0.03C22.14,7.82,22.15,7.83,22.16,7.84z M19,8.69   c0.9,0,1.63,0.73,1.63,1.63S19.9,11.94,19,11.94c-0.9,0-1.63-0.73-1.63-1.63S18.11,8.69,19,8.69z M16.07,13.04   c0.01,0.01,0.02,0.02,0.03,0.03C16.09,13.06,16.08,13.05,16.07,13.04z M15.35,11.97c0,0,0,0.01,0.01,0.01   C15.36,11.98,15.36,11.97,15.35,11.97z M15.5,12.26c0,0,0,0.01,0.01,0.01C15.51,12.27,15.5,12.27,15.5,12.26z M15.85,12.79   c0.01,0.01,0.02,0.02,0.03,0.03C15.87,12.81,15.86,12.8,15.85,12.79z"/>
  <path d="M12.89,31.17L7.33,20.8L1.78,31.17c0,3.07,2.49,5.55,5.55,5.55c3.07,0,5.55-2.49,5.55-5.55H12.89z M3.77,30.91l3.57-6.66   l3.57,6.66H3.77z"/>
  <path d="M32.67,6.57l-5.56,10.38c0,3.07,2.49,5.55,5.55,5.55c3.07,0,5.55-2.49,5.55-5.55h0.01L32.67,6.57z M29.1,16.68l3.57-6.66   l3.57,6.66H29.1z"/>
</svg>
