<?xml version="1.0" standalone="no"?>
<!DOCTYPE svg PUBLIC "-//W3C//DTD SVG 1.1//EN" "http://www.w3.org/Graphics/SVG/1.1/DTD/svg11.dtd" >
<svg xmlns="http://www.w3.org/2000/svg">
<defs>
  <font id="InstructureIcons-Line" horiz-adv-x="1920">
    <font-face font-family="InstructureIcons-Line"
      units-per-em="1920" ascent="1920"
      descent="0" />
    <missing-glyph horiz-adv-x="0" />
    <glyph glyph-name="Arc"
      unicode="&#xEA01;"
      horiz-adv-x="1920" d="M1142.27704 676.8615500000001L777.213784 676.8615500000001L777.213784 329.6835000000001C843.331544 306.5408299999999 890.752197 243.5989300000001 890.752197 169.5813499999999C890.752197 75.92416 814.828042 0 721.17085 0C627.513658 0 551.589502 75.92416 551.589502 169.5813499999999C551.589502 243.5989300000001 599.010155 306.5408299999999 665.127916 329.6835000000001L665.127916 676.8615500000001L541.655579 676.8615500000001L541.689247 478.7545299999999C541.689247 401.6600900000001 479.191853 339.1627000000001 402.09741 339.1627000000001L342.960786 339.21138C320.046924 272.6771900000001 256.896612 224.8743400000001 182.581348 224.8743400000001C88.9241555 224.8743400000001 13 300.7985000000001 13 394.45569C13 488.1128799999999 88.9241555 564.0370399999999 182.581348 564.0370399999999C256.288255 564.0370399999999 319.012258 517.0136299999999 342.389983 451.3301899999999L403.85272 451.3301899999999C418.054328 451.3301899999999 429.567006 462.8428699999999 429.567006 477.04448L429.567006 676.8615500000001L183.114532 676.8615500000001C150.653714 676.8615500000001 124.339021 703.17624 124.339021 735.63706L124.339021 1861.2244898C124.339021 1893.6853077 150.653714 1920 183.114532 1920L1735.1347 1920C1767.59552 1920 1793.91021 1893.6853077 1793.91021 1861.2244898L1793.91021 735.63706C1793.91021 703.17624 1767.59552 676.8615500000001 1735.1347 676.8615500000001L1489.85675 676.8615500000001L1489.85675 477.04448C1489.85675 462.8428699999999 1501.36943 451.3301899999999 1515.57103 451.3301899999999L1577.03377 451.3301899999999C1600.4115 517.0136299999999 1663.1355 564.0370399999999 1736.84241 564.0370399999999C1830.4996 564.0370399999999 1906.42375 488.1128799999999 1906.42375 394.45569C1906.42375 300.7985000000001 1830.4996 224.8743400000001 1736.84241 224.8743400000001C1662.52714 224.8743400000001 1599.37683 272.6771900000001 1576.46297 339.21138L1517.36272 339.1627000000001C1440.2319 339.1627000000001 1377.73451 401.6600900000001 1377.73451 478.7545299999999L1377.76817 676.8615500000001L1254.36291 676.8615500000001L1254.36291 329.6835000000001C1320.48067 306.5408299999999 1367.90132 243.5989300000001 1367.90132 169.5813499999999C1367.90132 75.92416 1291.97717 0 1198.31997 0C1104.66278 0 1028.73863 75.92416 1028.73863 169.5813499999999C1028.73863 243.5989300000001 1076.15928 306.5408299999999 1142.27704 329.6835000000001L1142.27704 676.8615500000001zM1199.67111 113.95245C1230.3941 113.95245 1255.30001 138.85836 1255.30001 169.5813499999999C1255.30001 200.3043399999999 1230.3941 225.2102400000001 1199.67111 225.2102400000001C1168.94812 225.2102400000001 1144.04222 200.3043399999999 1144.04222 169.5813499999999C1144.04222 138.85836 1168.94812 113.95245 1199.67111 113.95245zM722.52199 113.95245C753.244979 113.95245 778.150884 138.85836 778.150884 169.5813499999999C778.150884 200.3043399999999 753.244979 225.2102400000001 722.52199 225.2102400000001C691.799 225.2102400000001 666.893096 200.3043399999999 666.893096 169.5813499999999C666.893096 138.85836 691.799 113.95245 722.52199 113.95245zM1738.19355 338.8267900000001C1768.91654 338.8267900000001 1793.82244 363.7327 1793.82244 394.45569C1793.82244 425.17868 1768.91654 450.08458 1738.19355 450.08458C1707.47056 450.08458 1682.56465 425.17868 1682.56465 394.45569C1682.56465 363.7327 1707.47056 338.8267900000001 1738.19355 338.8267900000001zM181.230208 338.8267900000001C211.953198 338.8267900000001 236.859102 363.7327 236.859102 394.45569C236.859102 425.17868 211.953198 450.08458 181.230208 450.08458C150.507218 450.08458 125.601314 425.17868 125.601314 394.45569C125.601314 363.7327 150.507218 338.8267900000001 181.230208 338.8267900000001zM901.046855 1571.335104L1121.08185 1439.5388699999999C1133.59009 1430.371548 1141 1415.662382 1141 1400C1141 1384.337618 1133.59009 1369.628452 1121.08185 1360.4611300000001L901.046855 1228.664896C886.19456 1219.958976 867.897012 1219.953577 853.039735 1228.650731C838.182458 1237.3478850000001 829.019897 1253.427886 829 1270.8396910000001L829 1529.1603089999999C829.019897 1546.572114 838.182458 1562.6521149999999 853.039735 1571.349269C867.897012 1580.046423 886.19456 1580.041024 901.046855 1571.335104zM1687.20211 986.666667L1687.20211 1783.945578C1687.20211 1800.175987 1674.04476 1813.333333 1657.81435 1813.333333L260.434877 1813.333333C244.204468 1813.333333 231.047122 1800.175987 231.047122 1783.945578L231.047122 986.666667L1687.20211 986.666667zM1687.20211 880L231.047122 880L231.047122 812.90146C231.047122 796.6710499999999 244.204468 783.51371 260.434877 783.51371L1657.81435 783.51371C1674.04476 783.51371 1687.20211 796.6710499999999 1687.20211 812.90146L1687.20211 880z" />
    <glyph glyph-name="a11y"
      unicode="&#xEA02;"
      horiz-adv-x="1920" d="M960 -2C430.645 -2 0 428.645 0 958S430.645 1918 960 1918S1920 1487.355 1920 958S1489.355 -2 960 -2zM112.941 958C112.941 490.875 492.875 110.941 960 110.941C1427.125 110.941 1807.059 490.875 1807.059 958C1807.059 1425.125 1427.125 1805.059 960 1805.059C492.875 1805.059 112.941 1425.125 112.941 958zM1396.704 1284.768H482.144C451.104 1284.768 426.677 1260.341 426.677 1229.301C426.677 1198.1550000000002 451.104 1173.728 482.144 1173.728H757.451V285.9410000000001C757.451 254.7950000000001 781.7710000000001 230.368 812.917 230.368C843.957 230.368 868.384 254.7949999999999 868.384 285.9410000000001V660.981H1014.837V285.9410000000001C1014.837 254.7950000000001 1039.264 230.368 1070.304 230.368C1101.451 230.368 1125.8770000000002 254.7949999999999 1125.8770000000002 285.9410000000001V1175.9679999999998H1401.1840000000002C1432.2240000000002 1175.9679999999998 1456.6510000000003 1200.395 1456.6510000000003 1231.435C1449.9310000000003 1260.341 1425.6110000000003 1284.768 1396.7040000000002 1284.768M939.4140000000002 1599.9779999999998C1013.0140000000002 1599.9779999999998 1072.6400000000003 1540.3519999999999 1072.6400000000003 1466.752C1072.6400000000003 1393.259 1013.0130000000004 1333.6319999999998 939.4130000000004 1333.6319999999998C865.9200000000003 1333.6319999999998 806.1870000000004 1393.2589999999998 806.1870000000004 1466.752C806.1870000000004 1540.3519999999999 865.9200000000003 1599.9789999999998 939.4130000000004 1599.9789999999998" />
    <glyph glyph-name="add"
      unicode="&#xEA03;"
      horiz-adv-x="1920" d="M903.53 1920V1016.47H0V903.53H903.53V0H1016.47V903.53H1920V1016.47H1016.47V1920z" />
    <glyph glyph-name="address-book"
      unicode="&#xEA04;"
      horiz-adv-x="1920" d="M1688.412 112.941H332.0590000000001V439.2159999999999H388.574C419.7700000000001 439.2159999999999 445.088 464.5149999999999 445.088 495.6859999999999C445.088 526.858 419.7700000000001 552.156 388.574 552.156H332.0590000000001V890.98H388.574C419.7700000000001 890.98 445.088 916.28 445.088 947.451C445.088 978.623 419.7700000000001 1003.921 388.574 1003.921H332.0590000000001V1342.746H388.574C419.7700000000001 1342.746 445.088 1368.045 445.088 1399.216C445.088 1430.388 419.7700000000001 1455.687 388.574 1455.687H332.0590000000001V1807.058H1688.412V112.941zM219.029 1920V1455.686H162.515C131.319 1455.686 106 1430.387 106 1399.216C106 1368.0439999999999 131.319 1342.746 162.515 1342.746H219.029V1003.922H162.515C131.319 1003.922 106 978.622 106 947.451C106 916.279 131.319 890.981 162.515 890.981H219.029V552.1569999999999H162.515C131.319 552.1569999999999 106 526.858 106 495.6869999999999C106 464.5149999999999 131.319 439.2159999999999 162.515 439.2159999999999H219.029V0H1801.441V1920H219.03zM1027.364 498.807C1009.879 498.807 992.19 499.5229999999999 973.989 500.8520000000001C857.936 509.748 743.825 547.7850000000001 643.8240000000001 610.873L620 625.904V765.884C620 847.7860000000001 669.163 918.596 742.495 953.513C783.135 972.863 801.745 983.6 833.903 992.981C808.648 1027.031 792.52 1068.646 792.52 1114.25V1216.5C792.52 1329.2820000000002 916.218 1421 1029 1421S1255.444 1329.2820000000002 1255.444 1216.5V1114.25C1255.444 1069.26 1233.021 1026.826 1208.277 992.981C1249.075 983.37 1274.502 971.816 1313.5620000000001 954.944C1389.1250000000002 922.224 1438.0000000000002 848.298 1438.0000000000002 766.498V625.6990000000001L1413.9710000000002 610.6690000000001C1344.3390000000002 567.212 1206.1990000000003 498.807 1027.3640000000003 498.807zM722.3040000000001 765.501V682.576C802.2630000000001 636.973 891.4240000000001 609.366 981.814 602.412C1137.847 590.653 1263.717 642.392 1335.804 682.781V766.114C1335.804 807.117 1311.161 844.2339999999999 1273.124 860.6959999999999C1210.036 887.894 1143.778 904.3559999999998 1076.2930000000001 909.469C1063.103 910.491 1050.015 909.98 1036.824 910.185C1034.1660000000002 910.082 1021.998 910.287 1018.419 910.3889999999998C938.358 908.9579999999999 859.421 892.2909999999999 783.142 859.2639999999999C746.128 843.3139999999999 722.3030000000001 806.5039999999999 722.3030000000001 765.501zM888.1380000000001 1216.4470000000001V1114.1970000000001C888.1380000000001 1059.084 970.9800000000002 1014.605 1025.6830000000002 1012.662C1027.8310000000001 1012.662 1029.9780000000003 1012.56 1032.1250000000002 1012.56C1087.0330000000001 1014.196 1160.2110000000002 1058.88 1160.2110000000002 1114.1970000000001V1216.4470000000001C1160.2110000000002 1272.7870000000003 1085.6010000000003 1318.6970000000001 1029.1600000000003 1318.6970000000001C972.7180000000004 1318.6970000000001 888.1380000000004 1272.7870000000003 888.1380000000004 1216.4470000000001z" />
    <glyph glyph-name="admin-tools"
      unicode="&#xEA05;"
      horiz-adv-x="1920" d="M773.596 850.346L1484.682 139.261C1524.314 99.6289999999999 1589.018 99.6289999999999 1628.76 139.261L1767.036 277.646C1786.304 296.915 1796.924 322.424 1796.924 349.576C1796.924 376.836 1786.304 402.346 1767.036 421.615L1068.3220000000001 1120.3290000000002L1079.817 1152.9540000000002C1143.317 1331.6290000000001 1098.101 1533.404 964.533 1666.9720000000002C840.818 1790.5770000000002 659.407 1837.982 492.885 1795.285L765.1659999999999 1523.0030000000002C797.6819999999999 1490.5970000000002 815.5279999999999 1447.351 815.5279999999999 1401.259C815.5279999999999 1355.277 797.6819999999999 1312.0320000000002 765.1659999999999 1279.515L654.48 1168.83C587.258 1101.827 478.105 1101.827 410.992 1168.83L138.711 1441.1109999999999C96.122 1274.589 143.418 1093.177 267.024 969.463C390.738 845.748 573.244 797.1379999999999 743.0509999999999 842.2449999999999L773.5959999999999 850.346zM1556.611 0C1502.527 0 1448.4430000000002 20.692 1407.278 61.857L740.095 729.04C541.933 687.328 333.37 748.309 189.62 892.059C14.449 1067.229 -35.256 1337.212 65.796 1563.73L98.202 1636.426L488.396 1246.2330000000002C512.8100000000001 1221.928 552.662 1221.928 577.076 1246.2330000000002L687.763 1356.919C699.587 1368.853 706.046 1384.509 706.046 1401.259C706.046 1418.0100000000002 699.586 1433.775 687.763 1445.5990000000002L297.569 1835.793L370.265 1868.2C596.893 1969.252 866.875 1919.547 1041.937 1744.4850000000001C1196.963 1589.3490000000002 1254.77 1359.328 1193.788 1149.67L1844.439 499.019C1884.4 459.1669999999999 1906.406 406.069 1906.406 349.576C1906.406 293.193 1884.4 240.0940000000001 1844.439 200.242L1706.1639999999998 61.857C1664.8889999999997 20.692 1610.8039999999999 0 1556.6109999999999 0z" />
    <glyph glyph-name="admin"
      unicode="&#xEA06;"
      horiz-adv-x="1920" d="M276.941 1479.416V913.694C276.941 491.2939999999999 651.115 288.2260000000001 951.651 125.0259999999999L959.671 120.7339999999999L967.802 125.0259999999999C1268.339 288.2259999999999 1642.5120000000002 491.2939999999999 1642.5120000000002 913.6939999999998V1479.416L959.672 1801.073L276.94 1479.416zM959.671 -0.1130000000001C950.4090000000002 -0.1130000000001 941.148 2.259 932.678 6.777L897.778 25.751C588.095 193.9200000000001 164 424.0940000000001 164 913.694V1515.22C164 1537.13 176.65 1557.008 196.414 1566.382L935.727 1914.58C950.861 1921.808 968.593 1921.808 983.727 1914.58L1723.04 1566.38C1742.805 1557.0059999999999 1755.454 1537.128 1755.454 1515.218V913.693C1755.454 424.0929999999999 1331.2469999999998 193.9189999999999 1021.675 25.75L986.776 6.7750000000001C978.306 2.258 969.045 -0.1139999999998 959.671 -0.1139999999998zM1426.8290000000002 547.539H1113.4170000000001L1021.8220000000002 639.021V722.8240000000001H905.041V839.604H821.3510000000001L762.8480000000001 898.1080000000001C760.9280000000001 897.995 759.008 897.995 757.0880000000001 897.995C581.0130000000001 897.995 437.8030000000001 1041.205 437.8030000000001 1217.28C437.8030000000001 1393.355 581.013 1536.6779999999999 757.0880000000001 1536.6779999999999C933.163 1536.6779999999999 1076.373 1393.355 1076.373 1217.28C1076.373 1215.3600000000001 1076.373 1213.44 1076.26 1211.6329999999998L1426.83 860.951V547.539zM1160.1750000000002 660.48H1313.8880000000001V814.193L958.462 1169.845L962.415 1207.115C963.432 1331.0120000000002 870.8199999999999 1423.7359999999999 757.088 1423.7359999999999S550.744 1331.012 550.744 1217.28C550.744 1103.435 643.356 1010.936 757.088 1010.936L804.298 1016.2449999999998L868.109 952.5449999999998H1017.982V835.7649999999999H1134.763V685.779L1160.175 660.48zM846.7750000000002 1214.0500000000002C846.7750000000002 1167.292 808.8260000000002 1129.344 762.0690000000002 1129.344C715.3110000000001 1129.344 677.3630000000002 1167.292 677.3630000000002 1214.0500000000002S715.3110000000001 1298.756 762.0690000000002 1298.756C808.8260000000001 1298.756 846.7750000000002 1260.808 846.7750000000002 1214.0500000000002" />
    <glyph glyph-name="alerts"
      unicode="&#xEA07;"
      horiz-adv-x="1920" d="M252.356 451.7650000000001C306.116 511.7360000000001 338.8690000000001 590.9080000000001 338.8690000000001 677.6470000000002V1072.941C338.8690000000001 1415.491 617.495 1694.118 960.045 1694.118C1302.4830000000002 1694.118 1581.2220000000002 1415.4920000000002 1581.2220000000002 1072.941V677.6469999999999C1581.2220000000002 590.9079999999999 1613.9750000000001 511.7369999999999 1667.6220000000003 451.7649999999999H252.356zM960.046 112.941C835.471 112.941 734.163 214.249 734.163 338.8240000000001H1185.9279999999999C1185.9279999999999 214.249 1084.619 112.941 960.0449999999998 112.941zM1694.163 677.6469999999999V1072.941C1694.163 1458.635 1394.8690000000001 1775.209 1016.516 1804.235V1920H903.575V1804.235C525.109 1775.209 225.928 1458.635 225.928 1072.941V677.6469999999999C225.928 553.0729999999999 124.619 451.7649999999999 0.045 451.7649999999999V338.8239999999999H621.222C621.222 152.0189999999998 773.1279999999999 -2e-13 960.045 -2e-13C1146.85 -2e-13 1298.869 152.0189999999998 1298.869 338.8239999999999H1920.045V451.7639999999999C1795.471 451.7639999999999 1694.163 553.0729999999999 1694.163 677.6469999999999z" />
    <glyph glyph-name="analytics"
      unicode="&#xEA08;"
      horiz-adv-x="1920" d="M1468.235 1201.722H1920V72.31H0V1766.4279999999999H112.941V185.25H338.824V975.84H790.588V185.251H903.53V749.9569999999999H1355.295V185.2509999999998H1468.236V1201.721zM1581.176 185.252H1807.059V1088.78H1581.176V185.25zM1016.4709999999998 185.252H1242.3529999999998V637.0160000000001H1016.47V185.2510000000002zM451.7649999999999 185.252H677.6469999999999V862.8979999999999H451.765V185.2509999999998zM629.997 1517.55C496.275 1450.801 451.776 1205.154 451.776 1145.295H338.835C338.835 1239.488 395.87 1526.8110000000001 579.512 1618.632C697.1969999999999 1677.248 836.567 1647.2060000000001 993.894 1529.295C1070.242 1471.921 1144.444 1453.173 1220.68 1472.147C1432.33 1524.666 1585.028 1843.725 1586.609 1847L1688.7079999999999 1798.887C1681.705 1783.753 1511.955 1428.214 1248.35 1362.595C1138.684 1335.2640000000001 1030.0349999999999 1360.901 926.129 1438.944C805.7339999999999 1529.296 706.0069999999998 1555.499 629.9969999999998 1517.551z" />
    <glyph glyph-name="android"
      unicode="&#xEA09;"
      horiz-adv-x="1920" d="M1314.34 1703.5819999999999C1343.591 1684.722 1371.713 1664.167 1397.463 1640.562C1515.937 1532.027 1581.216 1387.238 1581.216 1232.962V498.855C1581.216 410.6490000000001 1505.2079999999999 338.819 1411.8059999999998 338.819H1242.397V0H1129.4569999999999V338.82H790.638V0H677.6980000000001V338.82H508.29C414.889 338.82 338.88 410.6489999999999 338.88 498.855V1210.714C338.88 1411.182 446.173 1590.982 608.129 1699.63L519.583 1832.108C502.1899999999999 1857.971 509.193 1893.095 535.0559999999999 1910.488C560.8059999999999 1927.768 596.0429999999999 1920.878 613.4359999999999 1894.902L707.7399999999999 1753.841C767.5989999999999 1779.817 831.5219999999999 1798.451 899.6249999999999 1804.438A671.282 671.282 0 0 0 1213.7099999999998 1756.212L1306.0949999999998 1894.789C1323.2619999999997 1920.879 1358.2729999999997 1927.768 1384.3619999999999 1910.488C1410.3379999999997 1893.208 1417.341 1858.084 1400.061 1832.221L1314.34 1703.5819999999999zM1468.2759999999998 498.855V1232.963C1468.2759999999998 1355.2759999999998 1416.098 1470.475 1321.1159999999998 1557.326C1225.0039999999997 1645.531 1095.3499999999997 1694.096 959.4829999999998 1694.096C942.8809999999997 1694.096 926.1659999999998 1693.305 909.4509999999996 1691.836C652.8509999999997 1669.362 451.8189999999997 1458.0520000000001 451.8189999999997 1210.714V498.8539999999998C451.8189999999997 472.9909999999998 477.1179999999997 451.7589999999998 508.2889999999996 451.7589999999998H1411.8069999999998C1442.9769999999999 451.7589999999998 1468.2769999999998 472.9909999999998 1468.2769999999998 498.8549999999998zM113 621.1679999999999H225.94V1185.867H113V621.1680000000001zM1694.156 621.1679999999999H1807.096V1185.867H1694.156V621.1680000000001zM734.168 1445.606C684.249 1445.606 643.817 1405.173 643.817 1355.254C643.817 1305.4470000000001 684.249 1264.902 734.168 1264.902C784.088 1264.902 824.52 1305.4470000000001 824.52 1355.254C824.52 1405.174 784.088 1445.606 734.168 1445.606M1185.9279999999999 1445.606C1136.0079999999998 1445.606 1095.5749999999998 1405.173 1095.5749999999998 1355.254C1095.5749999999998 1305.4470000000001 1136.0079999999998 1264.902 1185.927 1264.902C1235.847 1264.902 1276.279 1305.4470000000001 1276.279 1355.254C1276.279 1405.174 1235.847 1445.606 1185.927 1445.606" />
    <glyph glyph-name="annotate"
      unicode="&#xEA0A;"
      horiz-adv-x="1920" d="M1355.294 225.8240000000001V664.0350000000001L1468.2350000000001 776.9760000000001V112.8820000000001H0V1807H1468.235V1707.612L1355.2949999999998 1594.671V1694.059H112.94V225.8240000000001H1355.2930000000001zM797.3640000000001 564.6469999999999C813.8940000000001 591.1569999999999 848.7840000000001 599.2469999999998 875.2940000000001 582.7169999999999C901.804 566.1879999999999 909.8940000000002 531.2969999999998 893.3640000000001 504.7879999999998C884.3290000000002 487.8479999999997 800.7530000000002 344.4119999999998 687.8120000000001 344.4119999999998H678.7760000000002C608.7530000000002 348.9289999999999 556.8000000000002 392.9759999999999 509.3650000000002 510.4349999999997C461.9290000000002 627.8949999999998 431.4350000000002 638.0589999999997 431.4350000000002 638.0589999999997A484.518 484.518 0 0 1 334.3050000000002 412.1759999999997C327.7560000000002 380.9889999999998 297.1650000000002 361.0159999999996 265.9760000000002 367.5649999999996C234.7890000000002 374.1149999999996 214.8160000000002 404.7059999999997 221.3650000000002 435.8949999999996C241.6950000000002 530.7649999999994 300.4240000000002 746.4819999999995 421.2710000000002 756.6469999999995C517.2710000000002 765.6819999999996 576.0000000000002 648.2239999999995 612.1410000000002 558.9999999999995C640.3760000000002 490.1059999999995 650.5410000000002 466.3879999999995 684.4240000000002 462.9999999999995C718.3060000000002 459.6119999999996 773.6470000000002 521.7299999999996 797.3640000000003 564.6469999999995zM338.8240000000002 1468.177H903.5290000000002V1355.235H338.824V1468.176zM338.8240000000002 1242.2939999999999H677.6470000000002V1129.3529999999998H338.824V1242.2939999999999zM1903.059 1451.2350000000001L1677.176 1677.118A56.47 56.47 0 0 1 1596.9879999999998 1677.118L919.341 999.47A56.476000000000006 56.476000000000006 0 0 1 903.528 959.94V677.587H1185.882A56.47 56.47 0 0 1 1225.412 694.528L1903.059 1372.1750000000002C1924.582 1394.134 1924.582 1429.276 1903.059 1451.2350000000001zM1162.165 790.529H1016.47V936.224L1468.234 1387.988L1613.9279999999999 1242.294L1162.1639999999998 790.529zM1694.118 1322.482L1548.424 1468.176L1637.647 1557.3999999999999L1783.341 1411.706L1694.118 1322.482z" />
    <glyph glyph-name="announcement"
      unicode="&#xEA0B;"
      horiz-adv-x="1920" d="M1920 1072.9470000000001C1920 936.627 1822.87 822.444 1694.118 796.242V282.3589999999999C1694.118 256.157 1676.1599999999999 233.3429999999999 1650.635 227.357A57.279 57.279 0 0 0 1637.647 225.8889999999999C1616.527 225.8889999999999 1596.875 237.6339999999998 1587.162 257.06C1379.238 672.797 964.18 677.653 960 677.653H564.706V112.9470000000001H652.461C640.602 203.0740000000001 634.955 359.9500000000001 715.934 463.6300000000001C768.3389999999999 530.7170000000001 845.591 564.712 945.882 564.712V451.771C881.3919999999999 451.771 835.3119999999999 432.9099999999999 805.045 394.2839999999999C736.2639999999999 306.416 759.981 130.454 774.776 70.0299999999998C778.9559999999999 53.2019999999998 775.116 35.3569999999997 764.4989999999999 21.6899999999998C753.7689999999999 8.0249999999999 737.2799999999999 0.0059999999999 719.9999999999999 0.0059999999999H508.235C477.064 0.0059999999999 451.765 25.1919999999998 451.765 56.4759999999999V677.6529999999998H395.295C239.548 677.6529999999998 112.941 804.2599999999998 112.941 960.0059999999997V1016.4759999999998H56.471C25.299 1016.477 0 1041.664 0 1072.9479999999999C0 1104.12 25.299 1129.4189999999999 56.47 1129.4189999999999H112.941V1185.8890000000001C112.941 1341.5230000000001 239.548 1468.243 395.294 1468.243H959.887C976.828 1468.355 1380.367 1475.245 1587.1619999999998 1888.723C1598.6819999999998 1912.214 1624.4319999999998 1924.412 1650.6349999999998 1918.539C1676.1599999999999 1912.44 1694.1179999999997 1889.739 1694.1179999999997 1863.537V1349.54C1822.87 1323.338 1920 1209.267 1920 1072.9470000000001zM1694.118 913.927C1759.7359999999999 937.305 1807.058 999.423 1807.058 1072.9470000000001C1807.058 1146.472 1759.7359999999999 1208.4769999999999 1694.118 1231.856V913.926zM1581.176 475.489V1670.2930000000001C1386.466 1427.922 1128.96 1372.129 1016.4709999999998 1359.253V786.529C1128.9599999999998 773.653 1386.466 717.973 1581.176 475.489zM903.53 790.594V1355.3H395.294C301.892 1355.3 225.882 1279.29 225.882 1185.889V960.0059999999997C225.882 866.6039999999998 301.892 790.5939999999998 395.294 790.5939999999998H903.53z" />
    <glyph glyph-name="apple"
      unicode="&#xEA0C;"
      horiz-adv-x="1920" d="M1688.457 585.815L1737.0200000000002 565.4380000000001L1720.7200000000003 515.1780000000001C1707.2480000000003 471.7080000000001 1668.4200000000003 360.432 1592.5760000000002 247.2310000000002C1520.2410000000002 139.4630000000002 1430.3590000000002 5.2070000000003 1278.3300000000004 2.3770000000002C1206.5610000000004 0.5660000000003 1160.7150000000004 22.1870000000001 1118.7170000000003 40.6390000000001C1078.7570000000003 58.2990000000002 1044.4570000000003 73.4670000000001 987.6310000000004 73.4670000000001C927.5210000000002 73.4670000000001 891.1830000000003 57.7320000000002 849.0730000000003 39.394C809.5660000000004 22.1869999999999 764.7380000000003 2.7170000000001 702.5910000000003 0.114C699.7610000000003 0 696.9310000000004 0 694.3270000000003 0C547.0530000000003 0 444.7190000000004 150.8969999999999 376.5720000000004 251.3060000000001C202.9220000000004 507.48 104.0980000000004 931.416 262.9190000000003 1212.834C349.5170000000004 1366.448 507.0930000000003 1463.461 674.1770000000004 1465.951C739.2670000000004 1466.857 799.1510000000004 1446.481 850.7710000000004 1426.105C859.6010000000005 1545.9850000000001 916.6540000000005 1657.827 975.8580000000004 1730.049C1061.89 1835.552 1206.448 1912.755 1327.573 1917.736L1380.664 1920L1386.211 1867.135C1400.134 1735.369 1354.741 1588.435 1264.973 1473.989C1263.614 1472.404 1262.029 1471.272 1260.7839999999999 1469.687C1275.7269999999999 1470.253 1290.6689999999999 1471.385 1306.1779999999999 1469.913C1373.8719999999998 1467.083 1551.8239999999998 1441.273 1668.194 1267.737L1699.777 1220.532L1652.459 1189.062C1611.707 1163.252 1486.6200000000001 1070.3139999999999 1488.318 895.9849999999999C1490.242 675.2429999999999 1668.194 594.3049999999998 1688.458 585.8149999999998zM1498.507 310.2840000000001C1548.088 384.2040000000002 1579.784 456.9920000000002 1597.7830000000001 505.5550000000001C1521.1460000000002 551.5150000000001 1377.1550000000002 667.998 1375.1170000000002 894.9660000000001C1373.419 1075.0690000000002 1472.3570000000002 1189.6280000000002 1540.7300000000002 1247.134C1455.3770000000002 1339.732 1345.3450000000003 1355.0140000000001 1297.9140000000002 1357.0520000000001C1224.2200000000003 1364.862 1153.5830000000003 1335.77 1090.7570000000003 1310.413C1043.3250000000003 1291.2830000000001 1002.4600000000002 1274.8680000000002 964.5370000000001 1274.8680000000002C932.1620000000001 1274.8680000000002 898.2020000000002 1285.8480000000002 862.8830000000003 1299.659L857.4500000000003 1300.112L857.2230000000003 1301.8100000000002C849.7520000000003 1304.8660000000002 842.2810000000003 1307.8100000000002 834.5830000000003 1310.8660000000002C785 1331.016 730.55 1357.392 676.102 1352.75C548.977 1350.826 428.418 1275.887 361.516 1157.1399999999999C216.619 900.5129999999999 337.858 510.0830000000001 470.303 314.925C540.713 211.1199999999999 615.4259999999999 108.56 698.063 113.201C739.0409999999999 114.8990000000001 767.568 127.3510000000001 803.906 143.086C850.771 163.576 903.9759999999998 186.6680000000001 987.631 186.6680000000001C1068.343 186.6680000000001 1119.396 164.1410000000001 1164.451 144.2180000000001C1201.693 127.691 1232.597 113.7670000000001 1276.18 115.578C1362.5520000000001 117.163 1422.8880000000001 197.309 1498.506 310.2839999999999zM1063.474 1658.393C1016.949 1601.566 967.48 1507.609 962.386 1410.936C1047.06 1423.614 1127.6589999999999 1482.705 1175.996 1543.946C1234.4070000000002 1618.32 1269.3860000000002 1708.767 1274.8200000000002 1795.366C1198.2960000000003 1774.876 1116.1130000000003 1722.917 1063.5870000000002 1658.5059999999999L1063.4740000000002 1658.393z" />
    <glyph glyph-name="arrow-down"
      unicode="&#xEA0D;"
      horiz-adv-x="1920" d="M902.83 1920V220.0750000000001L426.3650000000001 696.5419999999999L345 615.1769999999999L960.177 0L1575.584 615.1770000000001L1494.219 696.5420000000001L1017.753 220.0750000000003V1920z" />
    <glyph glyph-name="arrow-end"
      unicode="&#xEA0E;"
      horiz-adv-x="1920" d="M1304.824 1574.998L1223.574 1493.749L1700.04 1017.167H0V902.245H1700.04L1223.574 425.78L1304.824 344.53L1920 959.707z" />
    <glyph glyph-name="arrow-left"
      unicode="&#xEA0F;"
      horiz-adv-x="1920" d="M615.177 1575L0 959.708L615.177 344.531L696.427 425.781L219.96 902.247H1920V1017.17H219.96L696.427 1493.75z" />
    <glyph glyph-name="arrow-open-down"
      unicode="&#xEA10;"
      horiz-adv-x="1920" d="M0.153 1393.854L92.321 1486.153L960.087 618.517L1827.723 1486.153L1920.153 1393.853L960.087 433.9190000000001z" />
    <glyph glyph-name="arrow-open-end"
      unicode="&#xEA11;"
      horiz-adv-x="1920" d="M526.299 1920L434 1827.832L1301.636 960.065L434 92.4300000000001L526.299 0L1486.234 960.065z" />
    <glyph glyph-name="arrow-open-left"
      unicode="&#xEA12;"
      horiz-adv-x="1920" d="M1394.007 1920L1486.305 1827.832L618.67 960.065L1486.3049999999998 92.4290000000001L1394.0069999999998 0L434.0719999999999 960.065z" />
    <glyph glyph-name="arrow-open-right"
      unicode="&#xEA13;"
      horiz-adv-x="1920" d="M526.299 1920L434 1827.832L1301.636 960.065L434 92.4300000000001L526.299 0L1486.234 960.065z" />
    <glyph glyph-name="arrow-open-start"
      unicode="&#xEA14;"
      horiz-adv-x="1920" d="M1394.007 1920L1486.305 1827.832L618.67 960.065L1486.3049999999998 92.4290000000001L1394.0069999999998 0L434.0719999999999 960.065z" />
    <glyph glyph-name="arrow-open-up"
      unicode="&#xEA15;"
      horiz-adv-x="1920" d="M0.153 526.146L92.321 433.847L960.087 1301.483L1827.723 433.847L1920.153 526.1469999999999L960.087 1486.08z" />
    <glyph glyph-name="arrow-right"
      unicode="&#xEA16;"
      horiz-adv-x="1920" d="M1304.824 1574.998L1223.574 1493.749L1700.04 1017.167H0V902.245H1700.04L1223.574 425.78L1304.824 344.53L1920 959.707z" />
    <glyph glyph-name="arrow-start"
      unicode="&#xEA17;"
      horiz-adv-x="1920" d="M615.177 1575L0 959.708L615.177 344.531L696.427 425.781L219.96 902.247H1920V1017.17H219.96L696.427 1493.75z" />
    <glyph glyph-name="arrow-up"
      unicode="&#xEA18;"
      horiz-adv-x="1920" d="M960.406 1920L345 1304.824L426.3640000000001 1223.458L902.83 1699.925V0H1017.752V1699.925L1494.218 1223.458L1575.584 1304.824z" />
    <glyph glyph-name="assignment"
      unicode="&#xEA19;"
      horiz-adv-x="1920" d="M1903.483 1112.81C1925.506 1090.7869999999998 1925.506 1055.098 1903.483 1032.962L1225.8449999999998 355.3250000000001C1215.2289999999998 344.8210000000002 1200.8849999999998 338.8350000000001 1185.8649999999998 338.8350000000001H959.9849999999998C928.8149999999998 338.8350000000001 903.5159999999998 364.134 903.5159999999998 395.3050000000001V621.185C903.5159999999998 636.2049999999999 909.5019999999998 650.549 920.0059999999997 661.0519999999999L1597.6419999999998 1338.6889999999999C1619.7789999999998 1360.8249999999998 1655.4669999999999 1360.8249999999998 1677.6039999999998 1338.6889999999999L1903.4829999999995 1112.81zM1668.23 957.518L1783.654 1072.942L1637.623 1218.973L1522.199 1103.549L1668.229 957.519zM1162.4859999999999 451.7750000000001L1588.3809999999999 877.6700000000001L1442.3509999999999 1023.7L1016.456 597.806V451.7750000000001H1162.4859999999999zM0 1920H1468.214V1355.3020000000001H1355.274V1807.06H112.94V112.9679999999999H1355.2740000000001V338.8469999999998H1468.2140000000002V0.0279999999998H0V1920zM338.819 1129.412V1581.17H1129.395V1129.412H338.82zM451.759 1242.352H1016.456V1468.23H451.758V1242.35zM338.819 790.594V903.5340000000002H903.516V790.594H338.82zM338.819 564.7139999999999V677.654H677.637V564.7139999999999H338.82z" />
    <glyph glyph-name="attach-media"
      unicode="&#xEA1A;"
      horiz-adv-x="1920" d="M101.002 689.363V1542.045C658.712 1689.683 1177.3139999999999 1577.5149999999999 1315.452 1542.045V1146.121L1416.505 1176.4370000000001V1617.835L1380.834 1628.849C1354.56 1637.136 729.2460000000001 1826.003 31.6800000000001 1627.536L-0.05 1614.8029999999999V613.5729999999999L35.621 602.6599999999999C52.901 597.2029999999997 331.402 513.127 717.827 513.127C840 513.127 973.693 523.1309999999999 1112.539 545.06V646.315C636.1769999999999 568.5040000000001 222.063 658.3400000000001 101.002 689.363M527.5149999999999 779.7950000000001V1439.3650000000002L1088.357 1109.5300000000002L527.515 779.7950000000001zM628.5679999999999 1262.7250000000001V956.4350000000002L888.98 1109.53L628.568 1262.725zM1777.425 1088.45L1919.909 1130.69V437.1660000000002C1919.8079999999995 334.0920000000001 1837.652 250.3200000000002 1736.599 250.3200000000002C1644.743 250.3200000000002 1569.2559999999999 319.8440000000001 1556.019 409.7800000000002C1554.604 418.8750000000003 1553.29 427.9700000000003 1553.29 437.4690000000003C1553.29 540.5430000000003 1635.446 624.5170000000003 1736.6 624.5170000000003C1753.273 624.5170000000003 1769.139 621.5870000000002 1784.4989999999998 617.2420000000002C1796.524 614.0080000000003 1808.044 609.3600000000001 1818.8559999999995 603.7010000000002V995.38L1779.0419999999997 983.556L1416.4649999999997 876.239L1388.5749999999996 868.0530000000001V288.1120000000001C1388.5749999999996 285.2820000000002 1387.8669999999995 282.655 1387.7649999999996 279.9270000000002C1383.5219999999997 180.6930000000002 1303.5889999999997 100.9630000000002 1205.1639999999998 100.9630000000002C1104.0099999999998 100.9630000000002 1021.8539999999998 184.9380000000001 1021.8539999999998 288.1130000000003C1021.8539999999998 356.6260000000002 1058.5359999999998 416.1460000000002 1112.4989999999998 448.6850000000004C1139.8839999999998 465.1560000000004 1171.2099999999998 475.2620000000004 1205.1639999999998 475.2620000000004C1234.9739999999997 475.2620000000004 1262.6629999999998 467.2790000000005 1287.5219999999997 454.4450000000004V943.54L1315.4119999999998 951.725L1416.4649999999997 981.636L1777.4249999999997 1088.449zM1736.6 351.3720000000001C1698.503 351.3720000000001 1667.783 379.0610000000002 1658.4859999999999 416.0460000000001C1656.666 423.019 1654.3429999999998 429.789 1654.3429999999998 437.4690000000001C1654.3429999999998 484.8630000000001 1691.2269999999999 523.4650000000001 1736.6 523.4650000000001C1755.4959999999999 523.4650000000001 1772.271 515.6840000000002 1786.115 504.3650000000002C1805.619 488.6020000000003 1818.856 465.0560000000003 1818.856 437.4690000000003C1818.856 389.9740000000004 1781.972 351.3720000000003 1736.6 351.3720000000003zM1205.1639999999998 202.0160000000001C1159.7909999999997 202.0160000000001 1122.9069999999997 240.6190000000002 1122.9069999999997 288.1130000000001C1122.9069999999997 335.608 1159.7909999999997 374.2100000000001 1205.1639999999998 374.2100000000001C1250.5359999999998 374.2100000000001 1287.5219999999997 335.608 1287.5219999999997 288.1130000000001C1287.5219999999997 240.6190000000002 1250.5359999999996 202.0160000000001 1205.1639999999998 202.0160000000001z" />
    <glyph glyph-name="audio"
      unicode="&#xEA1B;"
      horiz-adv-x="1920" d="M484.865 1355.2269999999999L936.638 1807H1129.432V112.8520000000001H936.638L484.865 564.625H169.415C76.01 564.625 0 640.635 0 734.04V1185.813C0 1279.217 76.01 1355.2269999999999 169.415 1355.2269999999999H484.865zM1671.977 1558.943C1831.904 1398.903 1920 1186.23 1920 959.893C1920 733.6669999999999 1831.904 520.9949999999999 1671.977 360.955L1592.1260000000002 440.8049999999999C1730.8200000000002 579.4999999999998 1807.0560000000005 763.8229999999999 1807.0560000000005 959.8919999999998C1807.0560000000005 1156.0749999999998 1730.8200000000002 1340.3979999999997 1592.1260000000002 1479.0919999999999L1671.976 1558.942zM1352.337 1239.913L1432.865 1319.1979999999999C1528.528 1222.1799999999998 1581.159 1094.554 1581.159 959.926S1528.528 697.672 1432.865 600.654L1352.336 679.94C1427.105 755.7250000000001 1468.216 855.115 1468.216 959.926C1468.216 1064.737 1427.1049999999998 1164.127 1352.3359999999998 1239.912zM1016.489 1694.057H983.396L564.7160000000001 1275.377V644.4760000000001L983.3960000000002 225.7960000000001H1016.4890000000001V1694.056zM112.943 734.04C112.943 702.8679999999999 138.355 677.568 169.415 677.568H451.773V1242.284H169.415C138.355 1242.284 112.943 1216.984 112.943 1185.813V734.04z" />
    <glyph glyph-name="bank"
      unicode="&#xEA1C;"
      horiz-adv-x="1920" d="M561.273 315.9939999999999H755.547C780.421 315.9939999999999 784.602 325.3219999999999 786.7470000000001 330.3609999999999L820.8410000000001 404.4469999999999C839.4970000000001 452.694 898.5720000000001 492.6849999999999 957.0050000000002 494.5079999999998C984.0230000000003 495.2579999999998 1040.3110000000001 495.0439999999999 1087.807 494.7219999999998L1140.987 494.5079999999998C1194.165 494.5079999999998 1237.8020000000001 465.9879999999998 1270.502 409.8079999999998L1310.6019999999999 339.2599999999998C1316.4979999999998 328.5389999999998 1328.184 317.0669999999998 1343.5159999999998 317.0669999999998L1527.283 316.3159999999998L1472.818 549.9379999999999L1509.914 569.1299999999999C1625.385 628.742 1704.189 759.7589999999998 1693.36 873.8359999999998L1689.715 911.4689999999998L1724.1309999999999 927.5509999999998C1795.965 960.8949999999998 1829.9519999999995 998.7419999999998 1804.114 1102.7409999999998C1789.1039999999998 1163.7469999999998 1737.533 1220.4629999999997 1670.4159999999997 1205.5609999999997L1631.4959999999996 1196.8759999999997L1611.8759999999997 1231.6139999999998C1494.583 1440.255 1325.29 1520.988 1204.03 1552.08C1010.077 1601.828 836.174 1556.904 772.1659999999999 1516.913L731.424 1491.503L701.726 1529.136C637.826 1610.298 534.363 1619.304 452.879 1583.708C483.114 1532.995 509.489 1471.883 524.499 1415.4879999999998L535.756 1373.244L496.73 1353.7309999999998C432.83 1321.781 349.845 1202.7709999999997 332.369 1117.965L328.723 1100.167L314.893 1088.266C251.313 1033.3719999999998 169.83 1013.644 107.216 1007.426V827.0889999999999C107.216 771.5519999999999 133.484 742.4959999999999 189.772 735.527C282.299 724.0550000000001 328.509 674.6290000000001 369.251 630.992C414.603 582.531 453.844 540.6099999999999 564.597 530.21L624.852 524.527L611.879 465.3440000000001C604.696 432.3220000000001 581.109 367.5640000000001 561.274 315.9940000000002zM1662.482 208.4569999999999L1343.302 209.8509999999999C1291.302 209.8509999999999 1242.734 239.55 1216.895 287.261L1177.654 356.307C1159.642 387.2930000000001 1146.99 387.2930000000001 1140.986 387.2930000000001L1087.1640000000002 387.5070000000001C1041.1690000000003 387.721 986.5960000000002 388.0430000000001 960.3280000000002 387.2930000000001C942.8520000000002 386.7570000000001 923.1250000000002 371.961 919.4790000000002 362.6330000000001L884.5270000000002 286.403C863.0840000000002 237.405 815.9090000000001 208.779 755.5470000000001 208.779H402.808L432.828 282.5429999999999C445.158 312.885 472.069 381.289 490.296 433.6099999999999C384.26 457.9479999999999 333.226 512.52 290.983 557.7649999999999C254.529 596.7909999999999 230.513 622.4159999999999 176.691 629.0629999999999C66.045 642.6800000000001 0 716.7660000000001 0 827.0899999999999V1111.854H53.608C125.442 1111.854 189.342 1129.116 232.228 1159.565C256.995 1248.9830000000002 327.972 1363.9180000000001 409.348 1425.03C388.656 1483.785 358.314 1537.1779999999999 334.19 1568.056L299.989 1611.478L344.59 1644.286C474.643 1739.922 646.616 1730.9160000000002 755.332 1628.9540000000002C866.086 1678.594 1050.711 1702.182 1230.618 1655.9720000000002C1365.924 1621.342 1552.2649999999999 1533.962 1687.1419999999998 1315.2420000000002C1784.8149999999998 1315.671 1879.7 1243.4080000000001 1908.2199999999996 1128.58C1940.5989999999997 998.099 1906.611 907.716 1801.5399999999995 846.9250000000002C1799.1819999999998 713.0130000000001 1718.1269999999997 574.3830000000003 1595.6869999999997 495.0450000000001L1662.4819999999997 208.4570000000001zM850.722 1274.554L797.758 1367.724C945.929 1451.995 1120.048 1452.531 1263.287 1369.118L1209.4650000000001 1276.484C1097.746 1341.242 967.0510000000002 1340.598 850.7220000000002 1274.554M750.519 1066.502C750.519 1007.319 702.486 959.287 643.303 959.287C584.12 959.287 536.088 1007.319 536.088 1066.502C536.088 1125.685 584.12 1173.7179999999998 643.303 1173.7179999999998C702.486 1173.7179999999998 750.519 1125.685 750.519 1066.502" />
    <glyph glyph-name="blueprint-lock"
      unicode="&#xEA1D;"
      horiz-adv-x="1920" d="M564.706 338.8240000000001H338.824V1581.1770000000001H1581.1770000000001V1355.295H1468.2350000000001V1468.2350000000001H451.765V451.7650000000001H564.706V338.8240000000001zM0 1920H1242.353V1694.118H1129.412V1807.059H112.941V790.588H225.882V677.6479999999999H0V1920zM1636.515 673H1779.015V158.368C1779.015 71.0139999999999 1707.9850000000001 -0.0150000000001 1620.632 -0.0150000000001H979.382C892.0290000000001 -0.0150000000001 821 71.0149999999999 821 158.368V673H963.5V906.493C963.5 1092.063 1114.492 1243 1300.007 1243C1485.5210000000002 1243 1636.515 1092.062 1636.515 906.493V673zM1676 158.368V569.9849999999999H924.015V158.368C924.015 127.816 948.886 103 979.382 103H1620.632C1651.184 103 1676 127.816 1676 158.368zM1066.5149999999999 906.493V673H1533.5V906.493C1533.5 1035.206 1428.721 1139.985 1300.007 1139.985C1171.294 1139.985 1066.515 1035.206 1066.515 906.493z" />
    <glyph glyph-name="blueprint"
      unicode="&#xEA1E;"
      horiz-adv-x="1920" d="M564.706 338.8230000000001H338.824V1581.176H1581.1770000000001V1355.2939999999999H1468.2350000000001V1468.2350000000001H451.765V451.7649999999999H564.706V338.8229999999999zM0 1920H1242.353V1694.118H1129.412V1807.058H112.941V790.588H225.882V677.6479999999999H0V1920zM847.059 0H677.647V169.412H790.589V112.941H847.0590000000001V0zM1027.721 0V112.941H1208.383V0H1027.721zM1389.154 0V112.941H1569.816V0H1389.154zM1920 0H1750.588V112.941H1807.059V169.412H1920V0zM1807.059 711.508V892.1690000000001H1920V711.508H1807.059zM1807.059 350.0730000000001V530.7350000000001H1920V350.0730000000001H1807.059zM1920 1072.941H1807.059V1129.411H1750.588V1242.353H1920V1072.9409999999998zM1027.8310000000001 1129.412V1242.353H1208.4920000000002V1129.4119999999998H1027.8310000000001zM1389.265 1129.412V1242.353H1569.9270000000001V1129.4119999999998H1389.265zM790.5880000000001 1072.942H677.6480000000001V1242.3519999999999H847.0580000000001V1129.4099999999999H790.5880000000001V1072.94zM677.647 711.617V892.279H790.5880000000001V711.617H677.647zM677.647 350.184V530.846H790.5880000000001V350.184H677.647z" />
    <glyph glyph-name="bold"
      unicode="&#xEA1F;"
      horiz-adv-x="1920" d="M480.286 1097.143H1028.857C1180.126 1097.143 1303.143 1220.16 1303.143 1371.429C1303.143 1522.6970000000001 1180.126 1645.7140000000002 1028.857 1645.7140000000002H480.286V1097.143zM480.286 274.2860000000001H1166C1317.269 274.2860000000001 1440.286 397.3030000000001 1440.286 548.5710000000001C1440.286 699.8400000000001 1317.269 822.8570000000002 1166 822.8570000000002H480.286V274.2860000000001zM1166 0H206V1920H1028.857C1331.394 1920 1577.429 1673.966 1577.429 1371.429C1577.429 1237.166 1528.88 1114.011 1448.651 1018.6969999999998C1607.874 922.56 1714.5710000000001 747.703 1714.5710000000001 548.5709999999999C1714.5710000000001 246.0339999999999 1468.5370000000003 0 1166 0z" />
    <glyph glyph-name="bookmark"
      unicode="&#xEA20;"
      horiz-adv-x="1920" d="M960.481 507.8900000000001L1472.239 200.8360000000003V1749.414C1472.239 1780.688 1446.651 1806.276 1415.377 1806.276H505.586C474.312 1806.276 448.724 1780.688 448.724 1749.414V200.836L960.481 507.8910000000001zM1585.963 0L960.48 375.289L335 0V1749.414C335 1843.464 411.536 1920 505.586 1920H1415.376C1509.426 1920 1585.963 1843.464 1585.963 1749.414V0z" />
    <glyph glyph-name="box"
      unicode="&#xEA21;"
      horiz-adv-x="1920" d="M1468.235 1920V1807.059H451.765V1920H0V1468.122H112.941V451.652H0V0H451.765V112.941H1468.2350000000001V0H1920.113V451.652H1807.172V1468.122H1920.112V1920H1468.2350000000001zM1581.289 1581.176H1807.172V1807.06H1581.289V1581.1770000000001zM112.941 1581.176H338.8240000000001V1807.06H112.94V1581.1770000000001zM225.8820000000001 1468.1219999999998H451.765V1694.118H1468.2350000000001V1468.1219999999998H1694.2310000000002V451.652H1468.2350000000001V225.8820000000001H451.765V451.652H225.882V1468.122zM1581.289 112.942H1807.172V338.8240000000001H1581.289V112.941zM112.941 112.942H338.8240000000001V338.8240000000001H112.94V112.941z" />
    <glyph glyph-name="bullet-list-alpha"
      unicode="&#xEA22;"
      horiz-adv-x="1920" d="M546.15 316.3830000000001H1906.15V436.3830000000001H546.1500000000001V316.3830000000001zM546.15 1437.384H1906.15V1557.384H546.1500000000001V1437.384zM546.15 876.384H1906.15V996.384H546.1500000000001V876.384zM271.675 1490.5L234.55 1600.225C231.8 1607.192 228.867 1615.396 225.75 1624.838C222.633 1634.279 219.517 1644.5 216.4 1655.5C213.65 1644.317 210.717 1633.958 207.6 1624.425C204.483 1614.892 201.55 1606.642 198.8 1599.675L161.95 1490.5H271.675zM419.35 1337.325H347.3C339.233 1337.325 332.725 1339.2040000000002 327.7750000000001 1342.9630000000002C322.8250000000001 1346.721 319.067 1351.5330000000001 316.5000000000001 1357.4L292.8500000000001 1427.25H140.5L116.85 1357.4C114.833 1352.267 111.213 1347.6380000000001 105.988 1343.5130000000001C100.762 1339.3870000000002 94.3 1337.3250000000003 86.6 1337.3250000000003H14L169.1 1738H264.25L419.35 1337.325zM230.325 807.45C242.608 807.45 252.646 809.008 260.437 812.125C268.229 815.242 274.325 819.2750000000001 278.725 824.2249999999999C283.125 829.175 286.1500000000001 834.7659999999998 287.8 841A73.843 73.843 0 0 1 290.2750000000001 859.9749999999999C290.2750000000001 867.308 289.312 873.9079999999999 287.3880000000001 879.7749999999999C285.463 885.6409999999998 282.1620000000001 890.5909999999999 277.4880000000001 894.6249999999998C272.8120000000001 898.6589999999998 266.6250000000001 901.7749999999997 258.9250000000001 903.9749999999998C251.2250000000001 906.1749999999998 241.5090000000001 907.2749999999997 229.7750000000001 907.2749999999997H164.8750000000001V807.4499999999998H230.3250000000001zM164.875 1068.4250000000002V969.425H213.275C223.542 969.425 232.8 970.158 241.05 971.6250000000002S256.312 975.6580000000002 262.088 979.3250000000002C267.863 982.9920000000002 272.2630000000001 988.0330000000002 275.2870000000001 994.4500000000002C278.312 1000.8670000000002 279.8250000000001 1008.9330000000002 279.8250000000001 1018.6500000000002C279.8250000000001 1028.1830000000002 278.6330000000001 1036.112 276.2500000000001 1042.438C273.8670000000001 1048.7620000000002 270.2000000000001 1053.8500000000004 265.2500000000001 1057.7000000000003C260.3000000000001 1061.5500000000002 254.0210000000001 1064.3000000000002 246.4120000000001 1065.9500000000003C238.8040000000001 1067.6000000000004 229.7750000000001 1068.4250000000002 219.3250000000001 1068.4250000000002H164.8750000000001zM219.325 1138C247.009 1138 270.567 1135.433 290 1130.3S325.2920000000001 1117.925 337.575 1108.5749999999998C349.858 1099.225 358.796 1087.859 364.388 1074.475C369.979 1061.091 372.775 1046.1499999999999 372.775 1029.6499999999999C372.775 1020.667 371.492 1012.004 368.925 1003.6629999999998C366.358 995.321 362.325 987.5289999999998 356.825 980.2879999999998C351.325 973.046 344.267 966.3999999999997 335.6499999999999 960.35C327.034 954.3 316.6749999999999 949.075 304.575 944.675C330.9749999999999 938.258 350.5 927.9 363.1499999999999 913.6C375.7999999999999 899.2989999999999 382.125 880.7839999999999 382.125 858.05C382.125 841 378.825 825.1409999999998 372.225 810.4749999999999C365.625 795.808 355.954 783.021 343.213 772.1129999999998C330.471 761.2039999999997 314.75 752.6789999999999 296.05 746.5379999999998C277.35 740.3959999999997 255.992 737.3249999999998 231.975 737.3249999999998H71.925V1138H219.325zM345.975 291C348.175 291 350.375 290.588 352.5750000000001 289.762C354.7750000000001 288.9369999999999 356.8830000000001 287.5159999999999 358.9000000000001 285.5L395.7500000000001 246.7249999999999C379.6170000000001 225.6409999999999 359.4040000000001 209.7379999999998 335.1130000000001 199.012C310.8210000000001 188.288 282.0830000000001 182.925 248.9000000000001 182.925C218.4670000000001 182.925 191.1960000000001 188.1040000000001 167.0880000000001 198.463C142.9790000000001 208.8209999999999 122.5370000000001 223.1209999999999 105.7620000000001 241.3630000000001C88.9880000000001 259.6040000000001 76.1080000000001 281.2370000000001 67.1250000000001 306.2620000000002C58.1410000000001 331.2880000000003 53.6500000000001 358.4660000000001 53.6500000000001 387.8000000000002C53.6500000000001 417.6830000000002 58.5080000000001 445.1370000000002 68.2250000000001 470.1630000000002C77.9420000000001 495.1870000000004 91.6000000000001 516.7750000000003 109.2000000000001 534.9250000000002S147.8830000000001 567.1920000000002 172.4500000000001 577.2750000000001C197.0170000000001 587.3580000000002 224.0580000000001 592.4000000000001 253.5750000000001 592.4000000000001C268.6080000000001 592.4000000000001 282.7710000000001 591.0710000000001 296.0620000000001 588.413C309.3540000000001 585.7550000000001 321.7750000000001 582.088 333.3250000000001 577.413C344.8750000000001 572.738 355.5080000000001 567.0999999999999 365.225 560.5C374.942 553.9000000000001 383.558 546.75 391.0750000000001 539.05L359.725 496.9749999999999C357.7080000000001 494.4079999999999 355.3250000000001 492.0709999999999 352.5750000000001 489.963C349.8250000000001 487.854 345.975 486.8 341.0250000000001 486.8C337.725 486.8 334.6080000000001 487.5329999999999 331.675 489C328.742 490.4659999999999 325.625 492.2550000000001 322.325 494.3630000000001A1772.26 1772.26 0 0 1 311.463 501.2380000000001C307.521 503.713 302.846 506.0050000000001 297.437 508.1130000000001C292.029 510.22 285.704 512.008 278.463 513.4750000000001C271.221 514.9420000000002 262.742 515.6750000000002 253.025 515.6750000000002C237.625 515.6750000000002 223.554 512.8340000000003 210.812 507.1500000000001C198.071 501.4660000000001 187.071 493.171 177.812 482.2620000000002C168.554 471.3540000000003 161.404 457.9710000000002 156.363 442.1130000000003C151.321 426.2550000000004 148.8 408.1500000000003 148.8 387.8000000000002C148.8 367.2660000000001 151.596 349.0250000000001 157.187 333.0750000000003C162.779 317.1250000000003 170.387 303.6960000000004 180.012 292.7880000000003C189.637 281.8800000000004 200.867 273.5840000000003 213.7 267.9000000000003C226.533 262.2160000000004 240.283 259.3750000000003 254.95 259.3750000000003C263.384 259.3750000000003 271.083 259.7880000000003 278.05 260.6130000000003C285.017 261.4370000000004 291.5250000000001 262.8120000000004 297.575 264.7380000000003C303.625 266.6630000000003 309.308 269.2290000000003 314.625 272.4370000000004C319.942 275.6460000000004 325.35 279.7250000000004 330.85 284.6750000000004A32.536 32.536 0 0 0 338 289.2130000000004C340.567 290.4040000000005 343.225 291.0000000000005 345.975 291.0000000000005z" />
    <glyph glyph-name="bullet-list-circle-outline"
      unicode="&#xEA23;"
      horiz-adv-x="1920" d="M559.706 344.059H1919.706V464.059H559.7060000000001V344.059zM559.706 1465.059H1919.706V1585.059H559.7060000000001V1465.059zM559.706 904.059H1919.706V1024.059H559.7060000000001V904.059zM169.5 1355C75.888 1355 0 1430.888 0 1524.5S75.888 1694 169.5 1694S339 1618.112 339 1524.5S263.112 1355 169.5 1355zM169.5 1439C216.72 1439 255 1477.28 255 1524.5S216.72 1610 169.5 1610S84 1571.72 84 1524.5S122.28 1439 169.5 1439zM169.5 231C75.888 231 0 306.8879999999999 0 400.5S75.888 570 169.5 570S339 494.1120000000001 339 400.5S263.112 231 169.5 231zM169.5 315C216.72 315 255 353.279 255 400.5S216.72 486 169.5 486S84 447.721 84 400.5S122.28 315 169.5 315zM169.5 793C75.888 793 0 868.8879999999999 0 962.5S75.888 1132 169.5 1132S339 1056.112 339 962.5S263.112 793 169.5 793zM169.5 877C216.72 877 255 915.279 255 962.5C255 1009.72 216.72 1048 169.5 1048S84 1009.72 84 962.5C84 915.279 122.28 877 169.5 877z" />
    <glyph glyph-name="bullet-list-roman"
      unicode="&#xEA24;"
      horiz-adv-x="1920" d="M368 1334.325H461.5V1735H368V1334.325zM639 1435.325H1919V1555.325H639V1435.325zM368.275 735.325H461.775V1136H368.275V735.325zM183.225 735.325H276.725V1136H183.225V735.325zM639 874.325H1919V994.326H639V874.325zM368.225 185.3250000000001H461.725V586.001H368.225V185.3250000000001zM184.225 185.3250000000001H277.725V586.001H184.225V185.3250000000001zM1 185.3250000000001H94.5V586.001H1V185.3250000000001zM639 314.3250000000001H1919V434.3250000000001H639V314.3250000000001z" />
    <glyph glyph-name="bullet-list-square"
      unicode="&#xEA25;"
      horiz-adv-x="1920" d="M0 1360H320V1680H0V1360zM560 1460.059H1920V1580.059H560V1460.059zM0 800H320V1120H0V800zM560 899.058H1920V1019.059H560V899.058zM0 240H320V560H0V240zM560 339.059H1920V459.059H560V339.059z" />
    <glyph glyph-name="bullet-list"
      unicode="&#xEA26;"
      horiz-adv-x="1920" d="M169.412 1694C262.814 1694 338.824 1617.99 338.824 1524.588S262.814 1355.176 169.412 1355.176C76.009 1355.176 0 1431.186 0 1524.588C0 1617.991 76.01 1694 169.412 1694zM564.706 1468.118V1581.058H1920V1468.118H564.706zM169.412 1129.2939999999999C262.814 1129.2939999999999 338.824 1053.284 338.824 959.882S262.814 790.471 169.412 790.471C76.009 790.47 0 866.48 0 959.882C0 1053.2849999999999 76.01 1129.2939999999999 169.412 1129.2939999999999zM564.706 903.412V1016.352H1920V903.412H564.706zM169.412 564.588C262.814 564.588 338.8240000000001 488.578 338.8240000000001 395.176S262.8140000000001 225.7649999999999 169.4120000000001 225.7649999999999C76.009 225.7650000000001 0 301.7750000000001 0 395.176C0 488.579 76.01 564.588 169.412 564.588zM564.706 338.7059999999999V451.6469999999999H1920V338.7059999999999H564.706z" />
    <glyph glyph-name="calculator"
      unicode="&#xEA27;"
      horiz-adv-x="1920" d="M480 1813.333C362.18 1813.333 266.6670000000001 1717.821 266.6670000000001 1600V320C266.6670000000001 202.1800000000001 362.1790000000001 106.6669999999999 480 106.6669999999999H1440C1557.82 106.6669999999999 1653.333 202.1789999999999 1653.333 320V1600C1653.333 1717.82 1557.8210000000001 1813.333 1440 1813.333H480zM480 1920H1440C1616.731 1920 1760 1776.731 1760 1600V320C1760 143.269 1616.731 0 1440 0H480C303.269 0 160 143.269 160 320V1600C160 1776.731 303.269 1920 480 1920zM586.667 1600C527.757 1600 480 1552.2440000000001 480 1493.333V1386.667C480 1327.757 527.756 1280 586.667 1280H1333.333C1392.2430000000002 1280 1440 1327.7559999999999 1440 1386.667V1493.333C1440 1552.243 1392.244 1600 1333.333 1600H586.667zM586.667 1706.667H1333.333C1451.154 1706.667 1546.6670000000001 1611.154 1546.6670000000001 1493.333V1386.667C1546.6670000000001 1268.846 1451.1540000000002 1173.3329999999999 1333.333 1173.3329999999999H586.667C468.846 1173.3329999999999 373.3330000000001 1268.846 373.3330000000001 1386.667V1493.333C373.3330000000001 1611.154 468.846 1706.667 586.667 1706.667zM480 1066.667H586.667C645.577 1066.667 693.3330000000001 1018.91 693.3330000000001 960C693.3330000000001 901.09 645.5770000000001 853.3330000000001 586.6670000000001 853.3330000000001H480C421.0900000000001 853.3330000000001 373.333 901.09 373.333 960.0000000000002C373.333 1018.91 421.09 1066.6670000000001 480 1066.6670000000001zM906.667 1066.667H1013.3329999999999C1072.243 1066.667 1120 1018.91 1120 960C1120 901.09 1072.244 853.3330000000001 1013.333 853.3330000000001H906.667C847.757 853.3330000000001 800 901.09 800 960C800 1018.91 847.756 1066.667 906.667 1066.667zM1333.3329999999999 1066.667H1440C1498.91 1066.667 1546.667 1018.91 1546.667 960C1546.667 901.09 1498.9099999999999 853.3330000000001 1440 853.3330000000001H1333.333C1274.423 853.3330000000001 1226.6670000000001 901.09 1226.6670000000001 960.0000000000002C1226.6670000000001 1018.91 1274.4230000000002 1066.6670000000001 1333.333 1066.6670000000001zM479.9999999999999 746.6669999999999H586.6669999999999C645.5769999999999 746.6669999999999 693.3329999999999 698.9099999999999 693.3329999999999 640C693.3329999999999 581.0899999999999 645.5769999999999 533.3330000000001 586.6669999999999 533.3330000000001H480C421.0900000000001 533.3330000000001 373.333 581.0900000000001 373.333 640C373.333 698.9100000000001 421.09 746.6669999999999 480 746.6669999999999zM906.667 746.6669999999999H1013.3329999999999C1072.243 746.6669999999999 1119.9999999999998 698.9099999999999 1119.9999999999998 640C1119.9999999999998 581.0899999999999 1072.2439999999997 533.3330000000001 1013.3329999999999 533.3330000000001H906.667C847.757 533.3330000000001 800 581.0899999999999 800 640C800 698.9100000000001 847.756 746.6669999999999 906.667 746.6669999999999zM1333.3329999999999 746.6669999999999H1440C1498.91 746.6669999999999 1546.667 698.9099999999999 1546.667 640C1546.667 581.0899999999999 1498.9099999999999 533.3330000000001 1440 533.3330000000001H1333.333C1274.423 533.3330000000001 1226.6670000000001 581.0900000000001 1226.6670000000001 640C1226.6670000000001 698.9100000000001 1274.4230000000002 746.6669999999999 1333.333 746.6669999999999zM479.9999999999999 426.6669999999999H586.6669999999999C645.5769999999999 426.6669999999999 693.3329999999999 378.9099999999999 693.3329999999999 320C693.3329999999999 261.0899999999999 645.5769999999999 213.3330000000001 586.6669999999999 213.3330000000001H480C421.0900000000001 213.3330000000001 373.333 261.0900000000002 373.333 320C373.333 378.9100000000001 421.09 426.6669999999999 480 426.6669999999999zM906.667 426.6669999999999H1013.3329999999999C1072.243 426.6669999999999 1119.9999999999998 378.9099999999999 1119.9999999999998 320C1119.9999999999998 261.0899999999999 1072.2439999999997 213.3330000000001 1013.3329999999999 213.3330000000001H906.667C847.757 213.3330000000001 800 261.0899999999999 800 320C800 378.9100000000001 847.756 426.6669999999999 906.667 426.6669999999999zM1333.3329999999999 426.6669999999999H1440C1498.91 426.6669999999999 1546.667 378.9099999999999 1546.667 320C1546.667 261.0899999999999 1498.9099999999999 213.3330000000001 1440 213.3330000000001H1333.333C1274.423 213.3330000000001 1226.6670000000001 261.0900000000002 1226.6670000000001 320C1226.6670000000001 378.9100000000001 1274.4230000000002 426.6669999999999 1333.333 426.6669999999999z" />
    <glyph glyph-name="calendar-add"
      unicode="&#xEA28;"
      horiz-adv-x="1920" d="M1637.706 1807.059C1731.109 1807.059 1807.118 1731.049 1807.118 1637.647V0H113V1637.647C113 1731.049 189.009 1807.059 282.4120000000001 1807.059H451.822V1863.529C451.822 1894.701 477.122 1919.999 508.294 1919.999S564.764 1894.701 564.764 1863.529V1807.059H1355.353V1863.529C1355.353 1894.701 1380.652 1919.999 1411.823 1919.999C1442.9950000000001 1919.999 1468.2930000000001 1894.701 1468.2930000000001 1863.529V1807.059H1637.7060000000001zM225.942 112.942H1694.176V1355.295H225.942V112.942zM1694.176 1468.2350000000001V1637.647C1694.176 1668.819 1668.7649999999999 1694.117 1637.706 1694.117H1468.2939999999999V1637.647C1468.2939999999999 1606.475 1442.994 1581.176 1411.8239999999998 1581.176C1380.6519999999998 1581.176 1355.3529999999998 1606.475 1355.3529999999998 1637.646V1694.118H564.765V1637.647C564.765 1606.475 539.465 1581.176 508.294 1581.176C477.123 1581.176 451.823 1606.475 451.823 1637.646V1694.118H282.412C251.352 1694.118 225.942 1668.818 225.942 1637.647V1468.2350000000001H1694.176zM903.588 338.8230000000001V677.6470000000002H564.764V790.5880000000002H903.588V1129.412H1016.529V790.588H1355.353V677.6479999999999H1016.53V338.8229999999999H903.59z" />
    <glyph glyph-name="calendar-clock"
      unicode="&#xEA29;"
      horiz-adv-x="1920" d="M1439.667 693.3330000000001H1333V480C1333 465.8130000000001 1338.653 452.2670000000001 1348.573 442.24L1471.987 318.934L1547.4 394.347L1439.6670000000001 502.0799999999999V693.3329999999999zM1386.333 106.6669999999999C1180.467 106.6669999999999 1013 274.1330000000001 1013 480C1013 685.867 1180.467 853.3330000000001 1386.333 853.3330000000001C1592.2 853.3330000000001 1759.6670000000001 685.8670000000002 1759.6670000000001 480C1759.6670000000001 274.1330000000001 1592.2 106.6669999999999 1386.333 106.6669999999999M1386.333 959.9999999999998C1121.6930000000002 959.9999999999998 906.333 744.6399999999999 906.333 480S1121.6930000000002 0 1386.333 0S1866.333 215.3600000000001 1866.333 480S1650.973 960 1386.333 960M1546.333 1493.333H159.666V1653.333C159.666 1682.7730000000001 183.666 1706.667 213 1706.667H373V1653.333C373 1623.893 396.894 1600 426.333 1600C455.773 1600 479.6659999999999 1623.893 479.6659999999999 1653.333V1706.667H1226.333V1653.333C1226.333 1623.893 1250.227 1600 1279.6670000000001 1600C1309.1070000000002 1600 1333.0000000000002 1623.893 1333.0000000000002 1653.333V1706.667H1493.0000000000002C1522.3330000000003 1706.667 1546.3330000000003 1682.773 1546.3330000000003 1653.333V1493.333zM1493 1813.333H1333V1866.667C1333 1896.107 1309.107 1920 1279.667 1920C1250.2269999999999 1920 1226.3329999999999 1896.107 1226.3329999999999 1866.667V1813.333H479.666V1866.667C479.666 1896.107 455.773 1920 426.3330000000001 1920C396.894 1920 373 1896.107 373 1866.667V1813.333H213C124.787 1813.333 53 1741.547 53 1653.333V106.6669999999999H799.666V213.3329999999999H159.6660000000001V1386.667H1546.333V1066.667H1653V1653.333C1653 1741.547 1581.213 1813.333 1493 1813.333z" />
    <glyph glyph-name="calendar-day"
      unicode="&#xEA2A;"
      horiz-adv-x="1920" d="M1637.706 1807.059C1731.109 1807.059 1807.118 1731.049 1807.118 1637.647V0H113V1637.647C113 1731.049 189.009 1807.059 282.4120000000001 1807.059H451.822V1863.529C451.822 1894.701 477.122 1919.999 508.294 1919.999S564.764 1894.701 564.764 1863.529V1807.059H1355.353V1863.529C1355.353 1894.701 1380.652 1919.999 1411.823 1919.999C1442.9950000000001 1919.999 1468.2930000000001 1894.701 1468.2930000000001 1863.529V1807.059H1637.7060000000001zM1694.176 1468.2350000000001V1637.647C1694.176 1668.819 1668.7649999999999 1694.117 1637.706 1694.117H1468.2939999999999V1637.647C1468.2939999999999 1606.475 1442.994 1581.176 1411.8239999999998 1581.176C1380.6519999999998 1581.176 1355.3529999999998 1606.475 1355.3529999999998 1637.646V1694.118H564.765V1637.647C564.765 1606.475 539.465 1581.176 508.294 1581.176C477.123 1581.176 451.823 1606.475 451.823 1637.646V1694.118H282.412C251.352 1694.118 225.942 1668.818 225.942 1637.647V1468.2350000000001H1694.176zM225.942 112.942H1694.176V1355.295H225.942V112.942zM959.505 503.3789999999999C877.171 503.3789999999999 817.99 537.826 765.133 599.2659999999998L674.3290000000001 515.915C736.5590000000001 440.923 828.606 387.8399999999999 957.472 387.8399999999999C1111.75 387.8399999999999 1216.334 484.6299999999999 1216.334 619.03V621.0640000000001C1216.334 755.4640000000002 1110.7340000000002 811.7080000000001 998.809 825.2620000000002L1204.701 1033.525V1129.4120000000003H715.552V1017.94H1035.6280000000002L835.9480000000001 808.546L857.0680000000001 728.358H917.3780000000002C1020.8320000000002 728.358 1087.468 687.8119999999999 1087.468 615.982V613.835C1087.468 547.2 1032.4650000000001 503.3790000000001 959.5050000000002 503.3790000000001" />
    <glyph glyph-name="calendar-days"
      unicode="&#xEA2B;"
      horiz-adv-x="1920" d="M1637.706 1807.059C1731.109 1807.059 1807.118 1731.049 1807.118 1637.647V0H113V1637.647C113 1731.049 189.009 1807.059 282.4120000000001 1807.059H451.822V1863.529C451.822 1894.701 477.122 1919.999 508.294 1919.999S564.764 1894.701 564.764 1863.529V1807.059H1355.353V1863.529C1355.353 1894.701 1380.652 1919.999 1411.823 1919.999C1442.9950000000001 1919.999 1468.2930000000001 1894.701 1468.2930000000001 1863.529V1807.059H1637.7060000000001zM1694.176 1468.2350000000001V1637.647C1694.176 1668.819 1668.7649999999999 1694.117 1637.706 1694.117H1468.2939999999999V1637.647C1468.2939999999999 1606.475 1442.994 1581.176 1411.8239999999998 1581.176C1380.6519999999998 1581.176 1355.3529999999998 1606.475 1355.3529999999998 1637.646V1694.118H564.765V1637.647C564.765 1606.475 539.465 1581.176 508.294 1581.176C477.123 1581.176 451.823 1606.475 451.823 1637.646V1694.118H282.412C251.352 1694.118 225.942 1668.818 225.942 1637.647V1468.2350000000001H1694.176zM225.942 112.942H1694.176V1355.295H225.942V112.942zM959.505 503.3789999999999C877.171 503.3789999999999 817.99 537.826 765.133 599.2659999999998L674.3290000000001 515.915C736.5590000000001 440.923 828.606 387.8399999999999 957.472 387.8399999999999C1111.75 387.8399999999999 1216.334 484.6299999999999 1216.334 619.03V621.0640000000001C1216.334 755.4640000000002 1110.7340000000002 811.7080000000001 998.809 825.2620000000002L1204.701 1033.525V1129.4120000000003H715.552V1017.94H1035.6280000000002L835.9480000000001 808.546L857.0680000000001 728.358H917.3780000000002C1020.8320000000002 728.358 1087.468 687.8119999999999 1087.468 615.982V613.835C1087.468 547.2 1032.4650000000001 503.3790000000001 959.5050000000002 503.3790000000001" />
    <glyph glyph-name="calendar-month"
      unicode="&#xEA2C;"
      horiz-adv-x="1920" d="M1637.706 1807.059C1731.109 1807.059 1807.118 1731.049 1807.118 1637.647V0H113V1637.647C113 1731.049 189.009 1807.059 282.4120000000001 1807.059H451.822V1863.529C451.822 1894.701 477.122 1919.999 508.294 1919.999S564.764 1894.701 564.764 1863.529V1807.059H1355.353V1863.529C1355.353 1894.701 1380.652 1919.999 1411.823 1919.999C1442.9950000000001 1919.999 1468.2930000000001 1894.701 1468.2930000000001 1863.529V1807.059H1637.7060000000001zM1694.176 1468.2350000000001V1637.647C1694.176 1668.819 1668.7649999999999 1694.117 1637.706 1694.117H1468.2939999999999V1637.647C1468.2939999999999 1606.475 1442.994 1581.176 1411.8239999999998 1581.176C1380.6519999999998 1581.176 1355.3529999999998 1606.475 1355.3529999999998 1637.646V1694.118H564.765V1637.647C564.765 1606.475 539.465 1581.176 508.294 1581.176C477.123 1581.176 451.823 1606.475 451.823 1637.646V1694.118H282.412C251.352 1694.118 225.942 1668.818 225.942 1637.647V1468.2350000000001H1694.176zM225.942 112.942H1694.176V1355.295H225.942V112.942zM338.882 790.588V1129.412H677.706V790.588H338.882zM451.824 903.529H564.765V1016.47H451.824V903.529zM790.6469999999999 790.588V1129.412H1129.471V790.588H790.647zM903.588 903.529H1016.529V1016.47H903.588V903.529zM1242.412 790.588V1129.412H1581.2350000000001V790.588H1242.4120000000003zM1355.353 903.529H1468.294V1016.47H1355.353V903.529zM338.882 338.8230000000001V677.6470000000002H677.706V338.8230000000001H338.882zM451.824 451.7650000000001H564.765V564.7060000000001H451.824V451.7650000000001zM790.6469999999999 338.8230000000001V677.6470000000002H1129.471V338.8230000000001H790.647zM903.588 451.7650000000001H1016.529V564.7060000000001H903.588V451.7650000000001zM1242.412 338.8230000000001V677.6470000000002H1581.2350000000001V338.8230000000001H1242.4120000000003zM1355.353 451.7650000000001H1468.294V564.7060000000001H1355.353V451.7650000000001z" />
    <glyph glyph-name="calendar-reserved"
      unicode="&#xEA2D;"
      horiz-adv-x="1920" d="M1637.706 1807.059C1731.109 1807.059 1807.118 1731.049 1807.118 1637.647V0H113V1637.647C113 1731.049 189.009 1807.059 282.4120000000001 1807.059H451.822V1863.529C451.822 1894.701 477.122 1919.999 508.294 1919.999S564.764 1894.701 564.764 1863.529V1807.059H1355.353V1863.529C1355.353 1894.701 1380.652 1919.999 1411.823 1919.999C1442.9950000000001 1919.999 1468.2930000000001 1894.701 1468.2930000000001 1863.529V1807.059H1637.7060000000001zM225.942 112.942H1694.176V1355.295H225.942V112.942zM1451.748 1033.016L847.061 428.329L468.369 807.134L548.219 886.9839999999999L847.061 588.1419999999998L1371.899 1112.8669999999997L1451.7479999999998 1033.0159999999998zM1694.176 1468.235V1637.647C1694.176 1668.819 1668.7649999999999 1694.117 1637.706 1694.117H1468.2939999999999V1637.647C1468.2939999999999 1606.475 1442.994 1581.176 1411.8239999999998 1581.176C1380.6519999999998 1581.176 1355.3529999999998 1606.475 1355.3529999999998 1637.646V1694.118H564.765V1637.647C564.765 1606.475 539.465 1581.176 508.294 1581.176C477.123 1581.176 451.823 1606.475 451.823 1637.646V1694.118H282.412C251.352 1694.118 225.942 1668.818 225.942 1637.647V1468.2350000000001H1694.176z" />
    <glyph glyph-name="certified"
      unicode="&#xEA2E;"
      horiz-adv-x="1920" d="M960 1905L1226.66667 1663.08L1586.56 1676.946667L1635.30667 1320.04L1920 1099.453333L1728 794.81333L1804.26667 442.7066700000001L1461.33333 332.8399999999999L1293.44 14.22667L960 150.4400000000001L626.56 14.22667L458.666667 332.8399999999999L115.733333 442.7066700000001L192 794.81333L0 1099.453333L284.693333 1320.04L333.44 1676.946667L693.333333 1663.08L960 1905zM960 1761L764.906667 1584.04L732.693333 1554.813333L689.173333 1556.413333L425.92 1566.546667L390.293333 1305.6399999999999L384.426667 1262.44L349.9733330000001 1235.88L141.866667 1074.493333L282.24 851.56L305.493333 814.8666700000001L296.213333 772.2L240.533333 514.81333L491.306667 434.3866700000001L532.8 421.05333L553.173333 382.54667L675.84 149.5866699999999L919.68 249.1066699999999L960 265.6400000000001L1000.32 249.1066699999999L1244.16 149.5866699999999L1366.93333 382.54667L1387.2 421.05333L1428.69333 434.3866700000001L1679.46667 514.81333L1623.78667 772.2L1614.50667 814.8666700000001L1637.76 851.56L1778.24 1074.493333L1570.02667 1235.88L1535.57333 1262.44L1529.70667 1305.6399999999999L1493.97333 1566.546667L1230.93333 1556.413333L1187.30667 1554.813333L1155.09333 1584.04L960 1761zM1301.056 1147.517333L1365.58933 1062.504L803.989333 636.2639999999999L548.949333 891.3040000000001L624.362667 966.717333L813.589333 777.4906699999999L1301.056 1147.517333z" />
    <glyph glyph-name="chat"
      unicode="&#xEA2F;"
      horiz-adv-x="1920" d="M677.68 1920.034V1581.097H790.622V1806.98H1807.092V1016.504H1581.0970000000002V756.74L1321.4460000000001 1016.504H1242.2740000000001V1468.156H0.034V451.6859999999999H338.744V32.7860000000001L756.74 451.6860000000001H1242.274V903.5630000000002H1275.0269999999998L1694.1519999999998 484.4390000000001V903.5630000000002H1920.034V1920.033H677.68zM338.825 1016.47H903.53V1129.4099999999999H338.824V1016.47zM338.825 790.587H677.76V903.641H338.824V790.587zM112.976 1355.327H1129.446V564.626H710.435L451.687 304.974V564.626H112.977V1355.328z" />
    <glyph glyph-name="check-dark"
      unicode="&#xEA30;"
      horiz-adv-x="1920" d="M1827.701 1616.935L698.835 488.1990000000001L92.299 1094.734L0 1002.436L698.835 303.5999999999999L1919.869 1524.766z" />
    <glyph glyph-name="check-mark-indeterminate"
      unicode="&#xEA31;"
      horiz-adv-x="1920" d="M288 1056V864H1632V1056z" />
    <glyph glyph-name="check-mark"
      unicode="&#xEA32;"
      horiz-adv-x="1920" d="M1827.701 1616.935L698.835 488.1990000000001L92.299 1094.734L0 1002.436L698.835 303.5999999999999L1919.869 1524.766z" />
    <glyph glyph-name="check-plus"
      unicode="&#xEA33;"
      horiz-adv-x="1920" d="M341.842 1815H455.789V1473.0439999999999H797.745V1359.097H455.789V1017.369H341.842V1359.097H0V1473.0439999999999H341.842V1815zM911.612 1359.1770000000001V1473.124H1538.3220000000001V1359.1770000000001H911.612zM1595.342 960.327H1709.2890000000002V105.723H341.808V903.467H455.755V219.6700000000001H1595.34V960.327zM1122.3690000000001 783.6289999999999L1840.351 1485.4299999999998L1920 1403.844L1122.37 624.2170000000001L757.8519999999999 980.757L837.5009999999999 1062.1170000000002L1122.369 783.6290000000001z" />
    <glyph glyph-name="check"
      unicode="&#xEA34;"
      horiz-adv-x="1920" d="M1827.701 1616.935L698.835 488.1990000000001L92.299 1094.734L0 1002.436L698.835 303.5999999999999L1919.869 1524.766z" />
    <glyph glyph-name="circle-arrow-down"
      unicode="&#xEA35;"
      horiz-adv-x="1920" d="M1559.238 1559.238C1228.778 1889.698 691.2220000000001 1889.698 360.762 1559.238C30.302 1228.778 30.302 691.222 360.762 360.762C691.222 30.3019999999999 1228.7779999999998 30.3019999999999 1559.238 360.762C1889.698 691.222 1889.698 1228.7779999999998 1559.238 1559.238zM280.863 280.8630000000001C-93.621 655.347 -93.621 1264.653 280.863 1639.137C655.347 2013.621 1264.653 2013.621 1639.137 1639.137C2013.621 1264.653 2013.621 655.347 1639.137 280.8630000000001C1264.653 -93.6209999999999 655.347 -93.6209999999999 280.8630000000001 280.8630000000001zM640.406 880.1020000000001L903.512 616.9960000000001L903.432 1439.391H1016.5679999999998L1016.4879999999998 616.9960000000001L1279.5939999999998 880.1020000000001L1359.4919999999997 800.203L960 400.711L560.508 800.203L640.4060000000001 880.1019999999999z" />
    <glyph glyph-name="circle-arrow-up"
      unicode="&#xEA36;"
      horiz-adv-x="1920" d="M1559.238 360.762C1889.698 691.222 1889.698 1228.7779999999998 1559.238 1559.238C1228.778 1889.698 691.2220000000001 1889.698 360.762 1559.238C30.302 1228.778 30.302 691.2220000000002 360.762 360.762C691.222 30.3019999999999 1228.7779999999998 30.3019999999999 1559.238 360.762zM280.863 1639.137C655.347 2013.621 1264.653 2013.621 1639.137 1639.137C2013.621 1264.653 2013.621 655.347 1639.137 280.8630000000001C1264.653 -93.6209999999999 655.347 -93.6209999999999 280.8630000000001 280.8630000000001C-93.6209999999999 655.347 -93.6209999999999 1264.653 280.8630000000001 1639.137zM640.406 1039.898L560.5079999999999 1119.797L960 1519.289L1359.492 1119.797L1279.594 1039.8980000000001L1016.488 1303.004L1016.568 480.6089999999999H903.432L903.512 1303.004L640.4060000000001 1039.898z" />
    <glyph glyph-name="clear-text-formatting"
      unicode="&#xEA37;"
      horiz-adv-x="1920" d="M1235.141 300.078H1044.824L864.827 480.076L1499.9769999999999 1115.225L1775.1319999999998 840.0700000000002L1235.1419999999998 300.0780000000002zM1902.451 882.55L1542.4560000000001 1242.5439999999999C1518.9360000000001 1265.943 1481.016 1265.943 1457.6170000000002 1242.5439999999999L737.6280000000002 522.5540000000001C714.1090000000002 499.0340000000001 714.1090000000002 461.116 737.6280000000002 437.5970000000002L875.1460000000002 300.0770000000003H0V180.0800000000002H1259.98C1275.94 180.0800000000002 1291.18 186.4400000000001 1302.46 197.6000000000001L1902.45 797.5900000000001C1925.85 821.1100000000001 1925.85 859.0300000000002 1902.45 882.5500000000002zM120.034 1739.996V1619.997H615.027L243.392 559.934L356.55 520.2139999999999L742.105 1619.997H1200.017V1739.996z" />
    <glyph glyph-name="clock"
      unicode="&#xEA38;"
      horiz-adv-x="1920" d="M960 1807.059C492.875 1807.059 112.941 1427.125 112.941 960C112.941 492.875 492.8750000000001 112.941 960 112.941C1427.125 112.941 1807.059 492.875 1807.059 960C1807.059 1427.125 1427.125 1807.059 960 1807.059M960 0C430.645 0 0 430.645 0 960S430.645 1920 960 1920S1920 1489.355 1920 960S1489.355 0 960 0M1377.905 575.9549999999999L903.552 931.72V1524.66H1016.493V988.19L1445.67 666.4200000000001L1377.905 575.9550000000002z" />
    <glyph glyph-name="closed-captioning-off"
      unicode="&#xEA39;"
      horiz-adv-x="1920" d="M1920 1700.68L1762.251 1541.338L1920 1381.913L1822.685 1283.676L1664.937 1443.018L1507.1039999999998 1283.676L1409.7889999999998 1381.913L1567.6219999999998 1541.338L1409.7889999999998 1700.679L1507.104 1799L1664.9370000000001 1639.575L1822.685 1799L1920 1700.68zM1668.85 1120.06C1671.366 1120.06 1673.8799999999999 1120.06 1676.395 1120.898V290.2449999999999C1676.395 198.0429999999999 1600.9569999999999 122.605 1508.755 122.605H167.64C75.438 122.605 0 198.0429999999999 0 290.2449999999999V1296.0819999999999C0 1388.283 75.438 1463.722 167.64 1463.722H1264.8400000000001C1295.853 1269.259 1465.169 1120.06 1668.8500000000001 1120.06zM754.379 969.118V1136.757H502.919C364.617 1136.757 251.46 1023.6 251.46 885.297V717.6579999999999C251.46 579.356 364.617 466.1989999999998 502.92 466.1989999999998H754.3789999999999V633.8389999999999H502.9189999999999C456.8189999999998 633.8389999999999 419.0989999999999 671.558 419.0989999999999 717.6589999999999V885.2979999999998C419.0989999999999 931.3979999999998 456.8189999999998 969.1179999999998 502.9189999999999 969.1179999999998H754.3789999999999zM1424.937 969.118V1136.757H1173.4769999999999C1035.175 1136.757 922.0179999999998 1023.6 922.0179999999998 885.297V717.6579999999999C922.0179999999998 579.356 1035.1749999999997 466.1989999999998 1173.4779999999998 466.1989999999998H1424.936V633.8389999999999H1173.4769999999999C1127.377 633.8389999999999 1089.657 671.558 1089.657 717.6589999999999V885.2979999999998C1089.657 931.3979999999998 1127.377 969.1179999999998 1173.4769999999999 969.1179999999998H1424.937z" />
    <glyph glyph-name="closed-captioning-on"
      unicode="&#xEA3A;"
      horiz-adv-x="1920" d="M1204.718 1441.742H1220.701C1250.98 1255.3319999999999 1411.368 1112.612 1606.291 1120.483V317.338C1606.291 228.992 1534.008 156.7080000000001 1445.662 156.7080000000001H160.63C72.283 156.7090000000001 0 228.993 0 317.339V1281.113C0 1369.459 72.283 1441.7420000000002 160.63 1441.7420000000002H1204.7179999999998zM1365.348 967.862V1128.49H1124.404C991.564 1128.49 883.46 1020.386 883.46 887.546V726.9170000000001C883.46 594.0770000000002 991.564 485.9730000000002 1124.404 485.9730000000002H1365.348V646.6030000000001H1124.404C1080.151 646.6030000000001 1044.089 682.663 1044.089 726.9170000000001V887.547C1044.089 931.799 1080.1509999999998 967.861 1124.404 967.861H1365.348zM722.8309999999999 967.862V1128.49H481.887C349.0470000000001 1128.49 240.944 1020.386 240.944 887.546V726.9170000000001C240.944 594.0770000000002 349.047 485.9730000000002 481.887 485.9730000000002H722.831V646.6030000000001H481.887C437.634 646.6030000000001 401.573 682.663 401.573 726.9170000000001V887.547C401.573 931.799 437.634 967.861 481.8869999999999 967.861H722.8309999999999zM1539.951 1288.7420000000002L1293.064 1535.63L1387.2740000000001 1629.76L1539.95 1477.08L1825.871 1763L1920 1668.791L1539.951 1288.742z" />
    <glyph glyph-name="closed-captioning"
      unicode="&#xEA3B;"
      horiz-adv-x="1920" d="M1800 175V1735C1800 1768 1773 1795 1740 1795H180C147 1795 120 1768 120 1735V175C120 142 147 115 180 115H1740C1773 115 1800 142 1800 175zM1740 1915C1839.24 1915 1920 1834.24 1920 1735V175C1920 75.76 1839.24 -5 1740 -5H180C80.76 -5 0 75.76 0 175V1735C0 1834.24 80.76 1915 180 1915H1740zM859.522 1066.3310000000001H699.522V1119.664H486.189V799.664H699.522V852.998H859.522V746.3310000000001C859.522 687.6640000000002 811.522 639.6640000000002 752.855 639.6640000000002H432.855C374.189 639.6640000000002 326.189 687.6640000000002 326.189 746.3310000000001V1172.998C326.189 1231.664 374.189 1279.664 432.855 1279.664H752.855C811.522 1279.664 859.522 1231.664 859.522 1172.998V1066.33zM1584.522 1066.3310000000001H1424.522V1119.664H1211.1889999999999V799.664H1424.522V852.998H1584.522V746.3310000000001C1584.522 687.6640000000002 1536.522 639.6640000000002 1477.855 639.6640000000002H1157.855C1099.189 639.6640000000002 1051.189 687.6640000000002 1051.189 746.3310000000001V1172.998C1051.189 1231.664 1099.189 1279.664 1157.855 1279.664H1477.855C1536.522 1279.664 1584.522 1231.664 1584.522 1172.998V1066.33z" />
    <glyph glyph-name="cloud-download"
      unicode="&#xEA3C;"
      horiz-adv-x="1920" d="M1468.235 1525.176C1717.384 1525.176 1920 1322.56 1920 1073.412S1717.384 621.6469999999999 1468.2350000000001 621.6469999999999H1355.295V734.588H1468.2350000000001C1655.0400000000002 734.588 1807.059 886.608 1807.059 1073.412S1655.0400000000002 1412.2350000000001 1468.2350000000001 1412.2350000000001C1466.315 1412.2350000000001 1464.508 1411.671 1462.5880000000002 1411.558C1464.7340000000002 1393.0349999999999 1468.2350000000001 1374.8519999999999 1468.2350000000001 1355.7649999999999C1468.2350000000001 1311.605 1462.4750000000001 1267.671 1451.295 1225.092L1342.0800000000002 1254.005C1350.89 1287.2089999999998 1355.294 1321.431 1355.294 1355.7649999999999C1355.294 1573.741 1177.976 1751.059 960.0000000000002 1751.059C747.5580000000001 1751.059 574.8700000000001 1582.099 566.4000000000001 1371.6889999999999C604.5740000000001 1353.28 640.6020000000001 1329.9009999999998 671.7740000000001 1299.407L592.8280000000001 1218.654C539.7460000000001 1270.7199999999998 469.6090000000001 1299.2939999999999 395.2940000000001 1299.2939999999999C239.5480000000001 1299.2939999999999 112.9410000000001 1172.5739999999998 112.9410000000001 1016.9409999999998C112.9410000000001 861.1949999999997 239.5480000000001 734.5879999999997 395.2940000000001 734.5879999999997H564.7060000000001V621.6479999999997H395.294C177.318 621.6469999999999 0 798.9639999999999 0 1016.94C0 1234.917 177.318 1412.234 395.294 1412.234C416.188 1412.234 436.518 1409.5240000000001 456.847 1406.248C482.597 1662.513 697.073 1864 960 1864C1181.816 1864 1368.847 1720.339 1438.08 1521.788C1448.1319999999998 1522.466 1458.07 1525.176 1468.235 1525.176zM1016.4709999999998 306.214L1202.3709999999999 492.114L1282.3339999999998 412.2650000000001L960 90.0450000000001L637.6659999999999 412.2650000000001L717.6279999999999 492.115L903.529 306.214V1016.952H1016.471V306.214z" />
    <glyph glyph-name="cloud-lock"
      unicode="&#xEA3D;"
      horiz-adv-x="1920" d="M1253.602 844.953V732.012H1366.5430000000001V336.7179999999999C1366.5430000000001 243.3149999999999 1290.6470000000002 167.3059999999998 1197.131 167.3059999999998H858.308C764.905 167.3059999999998 688.896 243.3159999999998 688.896 336.7179999999999V732.0119999999997H801.837V844.9519999999998C801.837 969.5269999999998 903.145 1070.8349999999998 1027.72 1070.8349999999998C1152.407 1070.8349999999998 1253.602 969.5269999999998 1253.602 844.9529999999997zM1253.602 336.7179999999999V619.0699999999999H801.837V336.7169999999999C801.837 305.5449999999999 827.249 280.2469999999999 858.307 280.2469999999999H1197.131C1228.303 280.2469999999999 1253.601 305.5449999999999 1253.601 336.7169999999999zM914.778 844.953V732.012H1140.661V844.952C1140.661 907.184 1090.063 957.894 1027.72 957.894C965.489 957.894 914.778 907.184 914.778 844.953zM1468.2350000000001 1414.176C1717.2710000000002 1414.176 1920 1211.56 1920 962.412S1717.27 510.6469999999999 1468.2350000000001 510.6469999999999V623.588C1655.0400000000002 623.588 1807.059 775.608 1807.059 962.412S1655.0400000000002 1301.2350000000001 1468.2350000000001 1301.2350000000001C1466.315 1301.2350000000001 1464.508 1300.671 1462.5880000000002 1300.558C1464.7340000000002 1282.0349999999999 1468.2350000000001 1263.8519999999999 1468.2350000000001 1244.7649999999999C1468.2350000000001 1200.379 1462.4750000000001 1156.445 1451.295 1113.979L1342.0800000000002 1143.118C1350.89 1175.984 1355.294 1210.205 1355.294 1244.765C1355.294 1462.741 1177.976 1640.0590000000002 960.0000000000002 1640.0590000000002C747.5580000000001 1640.0590000000002 574.8700000000001 1471.0990000000002 566.287 1260.8020000000001C604.5740000000001 1242.2800000000002 640.715 1218.902 671.8870000000001 1188.4070000000002L592.941 1107.654C539.746 1159.7200000000003 469.609 1188.294 395.2940000000001 1188.294C239.6610000000001 1188.294 112.941 1061.574 112.941 905.941S239.6610000000001 623.588 395.2940000000001 623.588H564.706V510.6479999999999H395.294C177.318 510.6469999999999 0 687.9639999999999 0 905.94C0 1123.917 177.318 1301.234 395.294 1301.234C416.188 1301.234 436.631 1298.524 456.847 1295.248C482.597 1551.513 697.073 1753 960 1753C1181.816 1753 1368.847 1609.339 1438.08 1410.788C1448.245 1411.466 1458.07 1414.176 1468.235 1414.176z" />
    <glyph glyph-name="code"
      unicode="&#xEA3E;"
      horiz-adv-x="1920" d="M561.813 1634L643.84 1565.627L138.8800000000001 959.867L643.84 354L561.813 285.627L0 959.867L561.813 1634zM1362.048 1634L1923.861 959.867L1362.0479999999998 285.627L1280.0209999999997 354L1784.9809999999998 959.867L1280.0209999999997 1565.627L1362.048 1634z" />
    <glyph glyph-name="collapse"
      unicode="&#xEA3F;"
      horiz-adv-x="1920" d="M1750.588 1807C1843.991 1807 1920 1730.99 1920 1637.588V451.7059999999999H1807.059V1637.588C1807.059 1668.6480000000001 1781.647 1694.058 1750.589 1694.058H169.411C138.351 1694.058 112.941 1668.6480000000001 112.941 1637.588V451.7059999999999H0V1637.588C0 1730.991 76.01 1807 169.412 1807H1750.588zM903.53 1355.2350000000001H1016.472V700.9670000000001L1258.843 943.4520000000002L1338.806 863.489L960 484.798L581.1949999999999 863.489L661.1579999999999 943.452L903.5289999999998 700.9670000000001V1355.2350000000001zM0 112.8820000000001V225.8240000000001H1920V112.8820000000001H0z" />
    <glyph glyph-name="collection-save"
      unicode="&#xEA40;"
      horiz-adv-x="1920" d="M1510.854 140.4169999999999H409.146L81.255 468.424L0 387.0540000000001L361.566 25.4880000000001H1558.434L1920 387.0540000000001L1838.86 468.424L1510.8539999999998 140.4169999999999zM962.334 487.4669999999999L462.047 987.752L543.187 1069.1219999999998L904.867 707.441V1895H1019.682V707.441L1381.477 1069.121L1462.6170000000002 987.752L962.3320000000002 487.4670000000001z" />
    <glyph glyph-name="collection"
      unicode="&#xEA41;"
      horiz-adv-x="1920" d="M0 0V1242.353H1242.353V0H0zM112.941 112.941H1129.411V1129.411H112.942V112.9409999999998zM338.824 790.5880000000002H903.529V903.53H338.824V790.5899999999999zM338.824 338.8240000000001H903.529V451.7640000000001H338.824V338.8240000000001zM338.824 564.7060000000001V677.6470000000002H790.7V564.7060000000001H338.824zM338.824 1355.294V1581.176H1581.1760000000002V338.8239999999999H1355.294V451.7639999999999H1468.2350000000001V1468.2359999999999H451.765V1355.296H338.824zM677.68 1920.011H1920.033V677.6579999999999H1694.1509999999998V790.5999999999999H1807.091V1807.07H790.623V1694.13H677.681V1920.01z" />
    <glyph glyph-name="comment"
      unicode="&#xEA42;"
      horiz-adv-x="1920" d="M0 1920H1662.178V560.0360000000001H1013.4750000000003L453.3210000000001 -0.1179999999999V560.0360000000001H0V1920zM151.107 1768.893V711.143H604.428V364.655L950.917 711.143H1511.071V1768.893H151.107zM453.321 1349.286V1466.815H1208.857V1349.286H453.32zM453.321 1046.9209999999998V1164.45H906.794V1046.92H453.32z" />
    <glyph glyph-name="commons"
      unicode="&#xEA43;"
      horiz-adv-x="1920" d="M715.926 510.797C465.7980000000001 510.797 262.8320000000001 712.5740000000001 262.8320000000001 960.441C262.8320000000001 1208.0430000000001 467.3190000000001 1410.084 717.714 1410.084H990.537V1567.825H715.926C379.456 1567.825 105.1750000000001 1295.497 105.1750000000001 960.441C105.1750000000001 625.3870000000002 379.4570000000001 353.0560000000001 715.9250000000001 353.0560000000001H988.75V510.797H715.926zM368.007 960.441C368.007 770.799 523.7470000000001 615.972 715.9259999999999 615.972H1093.924V247.8820000000001H715.926C321.538 247.8820000000001 0 567.1320000000001 0 960.44C0 1353.752 321.537 1673 715.926 1673H1095.712V1304.91H717.714C525.124 1304.91 368.0070000000001 1149.671 368.0070000000001 960.44zM1358.544 1316.004V1065.2440000000001H742.745C684.181 1065.2440000000001 637.991 1019.04 637.991 960.441S684.181 855.6379999999999 742.745 855.6379999999999H1358.545V604.8779999999999L1761.122 960.441L1358.544 1316.004zM1253.37 1549.22L1920 960.44L1253.37 371.6610000000001V750.4630000000002H742.744C626.086 750.4630000000002 532.815 843.7630000000001 532.815 960.4410000000001C532.815 1077.1190000000001 626.086 1170.4190000000003 742.7450000000001 1170.4190000000003H1253.3680000000002V1549.22z" />
    <glyph glyph-name="complete"
      unicode="&#xEA44;"
      horiz-adv-x="1920" d="M960 112.941C492.875 112.941 112.941 492.875 112.941 960C112.941 1427.125 492.8750000000001 1807.059 960 1807.059C1427.125 1807.059 1807.059 1427.125 1807.059 960C1807.059 492.875 1427.125 112.941 960 112.941M960 1920C430.645 1920 0 1489.355 0 960S430.645 0 960 0S1920 430.645 1920 960S1489.355 1920 960 1920M854.344 762.0250000000001L583.059 1033.31L503.2089999999999 953.46L854.3439999999999 602.327L1454.4 1202.383L1374.5500000000002 1282.2330000000002L854.3440000000002 762.0250000000001z" />
    <glyph glyph-name="compose"
      unicode="&#xEA45;"
      horiz-adv-x="1920" d="M1875.702 1669.164C1934.699 1610.067 1934.699 1513.894 1875.702 1454.8980000000001L1666.184 1245.38L1316.752 1594.712L497.9739999999999 775.934L775.884 498.0239999999999L1499.3980000000001 1221.4379999999999L1570.8200000000002 1150.0159999999998L713.4530000000002 292.75L187.4350000000002 187.586L292.6990000000002 713.5030000000002L1245.3290000000002 1666.1330000000003L1454.8480000000002 1875.652C1483.437 1904.24 1521.522 1920 1562.03 1920H1562.131C1602.641 1920 1640.625 1904.24 1669.113 1875.652L1875.701 1669.164zM704.462 426.6030000000001L426.552 704.5130000000001L385.841 663.7L316.338 316.2870000000001L663.75 385.79L704.462 426.6030000000001zM757.265 685.8430000000001L685.843 757.2650000000001L1310.559 1381.9810000000002L1381.981 1310.5590000000002L757.265 685.8430000000001zM1804.28 1526.32C1823.878 1546.02 1823.878 1578.0430000000001 1804.28 1597.8429999999998L1597.692 1804.23C1588.095 1813.827 1575.467 1818.979 1562.132 1818.979H1562.0320000000002C1548.4940000000001 1818.979 1535.8670000000002 1813.726 1526.2700000000002 1804.229L1441.5130000000001 1719.473L1388.1730000000002 1666.133L1666.1840000000002 1388.2240000000002L1804.28 1526.32zM1515.32 101.021V822.5149999999999H1616.341V0H0V1616.34H909.191V1515.32H101.0210000000001V101.02H1515.32z" />
    <glyph glyph-name="copy-course"
      unicode="&#xEA46;"
      horiz-adv-x="1920" d="M0 0.1130000000001H1467.88V1467.992H0V0.1119999999999zM112.914 113.0270000000001V1355.078H1354.965V113.0270000000001H112.914zM452.008 1920H1920V452.008H1581.259V565.0350000000001H1807.086V1807.086H565.035V1581.26H452.008V1920zM338.741 903.07H1129.138V1015.984H338.74V903.07zM338.741 452.008H1129.138V565.0350000000001H338.74V452.008zM338.741 677.596H903.311V790.509H338.74V677.596z" />
    <glyph glyph-name="copy"
      unicode="&#xEA47;"
      horiz-adv-x="1920" d="M0 0.1130000000001H1467.88V1467.992H0V0.1119999999999zM112.914 113.0270000000001V1355.078H1354.965V113.0270000000001H112.914zM452.008 1920H1920V452.008H1581.259V565.0350000000001H1807.086V1807.086H565.035V1581.26H452.008V1920zM338.741 903.07H1129.138V1015.984H338.74V903.07zM338.741 452.008H1129.138V565.0350000000001H338.74V452.008zM338.741 677.596H903.311V790.509H338.74V677.596z" />
    <glyph glyph-name="courses"
      unicode="&#xEA48;"
      horiz-adv-x="1920" d="M169.034 1637.647C169.034 1793.506 295.528 1920 451.387 1920H1750.21V451.7650000000001H1524.328V112.941H1693.74V0H451.387C368.94 0 289.881 36.1410000000001 236.686 99.3879999999999C192.752 151.3409999999999 169.034 215.7179999999999 169.034 282.3529999999999V1637.647zM451.387 1807.06C358.6620000000001 1807.06 281.975 1731.3899999999999 281.975 1637.6480000000001V504.848C332.7990000000001 542.1179999999999 395.933 564.7069999999999 463.8100000000001 564.7069999999999H1637.27V1807.059H451.386zM564.294 903.53V1016.471H1354.882V903.529H564.294zM507.824 1129.413V1581.176H1411.353V1129.412H507.8230000000001zM620.7639999999999 1242.353H1298.4119999999998V1468.2359999999999H620.765V1242.354zM463.81 451.7660000000001C374.587 451.7660000000001 297.674 391.9060000000002 284.2340000000001 311.7190000000001C282.992 302.683 281.975 293.6490000000001 281.975 284.6130000000001V282.3530000000001C281.975 241.6950000000002 295.528 204.4250000000002 322.634 172.8010000000002C355.387 134.4010000000001 401.693 112.9420000000002 451.387 112.9420000000002H1411.387V225.8830000000003H409.599V338.8250000000003H1411.387V451.7650000000003H463.81z" />
    <glyph glyph-name="dashboard"
      unicode="&#xEA49;"
      horiz-adv-x="1920" d="M833.935 856.673C862.848 686.358 897.973 508.4749999999999 917.3989999999998 471.883C944.956 420.0430000000001 1009.446 399.9390000000001 1061.399 427.4960000000001C1113.2389999999998 455.0540000000001 1133.116 519.769 1105.559 571.6090000000002C1086.133 608.2020000000002 958.622 737.0690000000002 833.935 856.6730000000002zM1011.93 302.358C933.21 302.358 856.9749999999999 344.711 817.559 418.913C773.173 502.7149999999999 708.457 920.259 695.9209999999999 1003.158C692.42 1026.875 704.1659999999999 1050.368 725.286 1061.435C746.632 1072.729 772.382 1069.455 790.1139999999999 1053.078C851.6669999999999 996.155 1161.013 708.268 1205.399 624.4660000000001C1262.0949999999998 517.624 1221.2099999999998 384.5790000000002 1114.2549999999999 327.7690000000003C1081.6149999999998 310.4890000000003 1046.4899999999998 302.3580000000002 1011.9299999999998 302.3580000000002zM903.53 1289.215V1448.688H1016.47V1289.215H903.53zM1469.726 1054.7599999999998L1389.8760000000002 1134.61L1502.592 1247.3249999999998L1582.442 1167.475L1469.726 1054.7599999999998zM450.2740000000001 1054.7599999999998L337.5590000000001 1167.476L417.408 1247.326L530.123 1134.6100000000001L450.273 1054.76zM1883 408.9849999999999H1358.615V521.9269999999999H1792.873C1802.36 572.637 1807.104 625.0419999999999 1807.104 678.011C1807.104 1145.136 1427.057 1525.071 960.045 1525.071C492.9200000000001 1525.071 112.9860000000001 1145.136 112.9860000000001 678.011C112.9860000000001 625.0409999999999 117.7300000000001 572.637 127.1040000000001 521.9269999999999H614.5580000000001V408.9849999999999H36.977L26.587 452.1289999999999C8.966 524.863 0.044 600.8720000000001 0.044 678.01C0.044 1207.2530000000002 430.689 1638.01 960.044 1638.01S1920.044 1207.253 1920.044 678.01C1920.044 600.8710000000001 1911.122 524.8620000000001 1893.39 452.1279999999999L1882.9999999999995 408.9839999999999z" />
    <glyph glyph-name="deactivate-user"
      unicode="&#xEA4A;"
      horiz-adv-x="1920" d="M1285.316 452.6559999999999C1166.21 369.8599999999999 944.065 250.2190000000001 649.299 264.357C410.766 275.6040000000001 225.787 369.539 107.1089999999999 452.549V603.895C107.1089999999999 732.319 189.1559999999999 842.857 302.156 866.635C415.907 890.52 532.336 904.23 648.1209999999999 907.122C795.0749999999998 910.978 944.9209999999998 897.2679999999999 1090.591 866.528C1203.377 842.749 1285.3159999999998 732.319 1285.3159999999998 603.788V452.6559999999999zM428.44 1282.0059999999999V1288.9679999999998C474.39 1301.393 503.738 1328.278 526.767 1349.5929999999998C553.5440000000001 1374.228 569.7170000000001 1389.116 607.3130000000001 1389.116C644.1590000000001 1389.116 660.118 1374.335 686.5740000000001 1349.806C717.744 1321.209 760.373 1282.006 839.7410000000001 1282.006C897.6870000000001 1282.006 935.497 1303.3210000000001 963.988 1325.921V1282.006C963.988 1134.3020000000001 843.9180000000001 1014.232 696.214 1014.232S428.4400000000001 1134.3020000000001 428.4400000000001 1282.006zM696.213 1656.8899999999999C819.818 1656.8899999999999 923.071 1572.274 953.8119999999998 1458.202C940.5299999999997 1448.455 929.07 1437.958 918.359 1428.104C892.0089999999999 1403.79 876.2639999999999 1389.116 839.7399999999999 1389.116C802.1449999999999 1389.116 785.9709999999999 1404.004 759.1939999999998 1428.6399999999999C728.3459999999999 1457.13 685.9309999999998 1496.226 607.3119999999999 1496.226C527.944 1496.226 485.3139999999999 1456.916 454.1449999999999 1428.318C445.4689999999999 1420.2849999999999 437.8649999999999 1413.751 430.3669999999999 1407.9679999999998C440.2200000000001 1546.673 555.042 1656.8899999999999 696.213 1656.8899999999999zM1112.656 971.281C1055.4589999999998 983.385 997.513 992.1679999999998 939.566 999.237C1019.47 1068.001 1071.097 1168.577 1071.097 1282.007V1389.117C1071.097 1595.73 902.935 1764 696.213 1764S321.329 1595.73 321.329 1389.116V1282.0059999999999C321.329 1168.791 372.742 1068.4299999999998 452.431 999.558C394.5920000000001 992.596 336.9670000000001 983.385 280.091 971.388C117.822 937.328 0 782.768 0 603.895V398.03L21.743 381.964C150.918 286.743 363.745 170.529 644.2650000000001 157.3539999999998C661.5100000000001 156.6039999999998 678.5400000000001 156.1759999999997 695.3560000000001 156.1759999999997C1013.7930000000002 156.1759999999997 1253.076 295.7399999999998 1370.576 381.9639999999997L1392.426 397.9229999999998V603.7879999999998C1392.426 782.6609999999998 1274.713 937.2199999999998 1112.656 971.2809999999998zM1839.915 1764L1639.646 1563.731L1439.49 1764L1359.292 1683.915L1559.562 1483.646L1359.292 1283.377L1439.49 1203.292L1639.646 1403.562L1839.915 1203.292L1920 1283.377L1719.731 1483.646L1920 1683.915L1839.915 1764z" />
    <glyph glyph-name="discussion-check"
      unicode="&#xEA4B;"
      horiz-adv-x="1920" d="M1827.701 1616.935L698.835 488.1990000000001L92.299 1094.734L0 1002.436L698.835 303.5999999999999L1919.869 1524.766z" />
    <glyph glyph-name="discussion-new"
      unicode="&#xEA4C;"
      horiz-adv-x="1920" d="M903.53 1920V1016.47H0V903.53H903.53V0H1016.47V903.53H1920V1016.47H1016.47V1920z" />
    <glyph glyph-name="discussion-reply-2"
      unicode="&#xEA4D;"
      horiz-adv-x="1920" d="M835.942 1287.437H244.966L723.046 1765.517L632.5500000000001 1856.013L-0.026 1223.437L632.55 590.8599999999999L723.0459999999999 681.356L244.966 1159.436H835.942C1340.3899999999999 1159.436 1750.758 749.068 1750.758 244.6199999999999V135.4359999999999H1878.758V244.6199999999999C1878.758 819.596 1410.9180000000001 1287.436 835.942 1287.436" />
    <glyph glyph-name="discussion-reply-dark"
      unicode="&#xEA4E;"
      horiz-adv-x="1920" d="M1129.412 282.3530000000001C1129.412 188.905 1053.448 112.941 960 112.941C866.552 112.941 790.588 188.905 790.588 282.3530000000001C790.588 375.8000000000002 866.5519999999999 451.7650000000001 960 451.7650000000001C1053.448 451.7650000000001 1129.412 375.8000000000002 1129.412 282.3530000000001zM1129.412 960.0000000000002C1129.412 866.5520000000001 1053.448 790.5880000000002 960 790.5880000000002C866.552 790.5880000000002 790.588 866.5520000000001 790.588 960.0000000000002C790.588 1053.4480000000003 866.5519999999999 1129.4120000000003 960 1129.4120000000003C1053.448 1129.4120000000003 1129.412 1053.4480000000003 1129.412 960.0000000000002zM1129.412 1637.6470000000002C1129.412 1544.2000000000003 1053.448 1468.2350000000001 960 1468.2350000000001C866.552 1468.2350000000001 790.588 1544.2000000000003 790.588 1637.6470000000002C790.588 1731.0950000000003 866.5519999999999 1807.059 960 1807.059C1053.448 1807.059 1129.412 1731.0950000000003 1129.412 1637.6470000000002z" />
    <glyph glyph-name="discussion-reply"
      unicode="&#xEA4F;"
      horiz-adv-x="1920" d="M1129.412 282.3530000000001C1129.412 188.905 1053.448 112.941 960 112.941C866.552 112.941 790.588 188.905 790.588 282.3530000000001C790.588 375.8000000000002 866.5519999999999 451.7650000000001 960 451.7650000000001C1053.448 451.7650000000001 1129.412 375.8000000000002 1129.412 282.3530000000001zM1129.412 960.0000000000002C1129.412 866.5520000000001 1053.448 790.5880000000002 960 790.5880000000002C866.552 790.5880000000002 790.588 866.5520000000001 790.588 960.0000000000002C790.588 1053.4480000000003 866.5519999999999 1129.4120000000003 960 1129.4120000000003C1053.448 1129.4120000000003 1129.412 1053.4480000000003 1129.412 960.0000000000002zM1129.412 1637.6470000000002C1129.412 1544.2000000000003 1053.448 1468.2350000000001 960 1468.2350000000001C866.552 1468.2350000000001 790.588 1544.2000000000003 790.588 1637.6470000000002C790.588 1731.0950000000003 866.5519999999999 1807.059 960 1807.059C1053.448 1807.059 1129.412 1731.0950000000003 1129.412 1637.6470000000002z" />
    <glyph glyph-name="discussion-search"
      unicode="&#xEA50;"
      horiz-adv-x="1920" d="M790.588 451.7650000000001C416.866 451.7650000000001 112.9409999999999 755.6890000000001 112.9409999999999 1129.4120000000003C112.9409999999999 1503.134 416.866 1807.059 790.588 1807.059C1164.311 1807.059 1468.2350000000001 1503.1340000000002 1468.2350000000001 1129.4120000000003C1468.2350000000001 755.6890000000001 1164.3110000000001 451.7650000000001 790.5880000000001 451.7650000000001zM1387.369 612.48C1507.7649999999999 751.172 1581.176 931.7650000000002 1581.176 1129.412C1581.176 1565.252 1226.428 1920 790.588 1920S0 1565.252 0 1129.412S354.748 338.8240000000001 790.588 338.8240000000001C988.2349999999998 338.8240000000001 1168.828 412.2350000000002 1307.52 532.6310000000001L1823.548 16.489L1903.511 96.452L1387.369 612.48z" />
    <glyph glyph-name="discussion-x"
      unicode="&#xEA51;"
      horiz-adv-x="1920" d="M1827.701 1920L960.065 1052.364L92.3 1920L0 1827.832L867.636 960.065L0 92.4300000000001L92.299 0L960.065 867.7660000000001L1827.701 0L1919.869 92.4300000000001L1052.2340000000002 960.065L1919.869 1827.832z" />
    <glyph glyph-name="discussion"
      unicode="&#xEA52;"
      horiz-adv-x="1920" d="M677.647 1904V1565.064H790.5880000000001V1790.946H1807.058V1000.47H1581.064V740.7049999999999L1321.412 1000.47H1242.24V1452.122H0V435.6520000000001H338.71V16.752L756.7059999999999 435.6520000000001H1242.2399999999998V887.529H1274.9929999999997L1694.1179999999997 468.405V887.529H1920V1904H677.647zM338.79 1000.437H903.496V1113.377H338.79V1000.4369999999998zM338.79 774.5540000000001H677.726V887.6080000000002H338.79V774.5540000000001zM112.94 1339.2939999999999H1129.41V548.5929999999998H710.4L451.652 288.9400000000001V548.5920000000001H112.942V1339.2939999999999z" />
    </font>
</defs>
</svg>
