<?xml version="1.0" encoding="utf-8"?>
<!-- Generator: Adobe Illustrator 22.0.1, SVG Export Plug-In . SVG Version: 6.00 Build 0)  -->
<svg version="1.1" id="Layer_1" xmlns="http://www.w3.org/2000/svg" xmlns:xlink="http://www.w3.org/1999/xlink" x="0px" y="0px"
	 viewBox="0 0 84 84" style="enable-background:new 0 0 84 84;" xml:space="preserve">
<style type="text/css">
	.st0{fill:#FFFFFF;}
</style>
<path class="st0" d="M42,2.2c21.8,0,39.6,17.8,39.6,39.6c0,21.8-17.8,39.6-39.6,39.6c-21.8,0-39.6-17.8-39.6-39.6
	c0-0.9,0-1.7,0.1-2.5l0.7-0.7l7.1-7.1c0,0,0,0,0,0h14.5c0.1,0.1,9.4,9.6,17.7,17.1c6.3-5.7,13.2-12.6,16.2-15.6
	c-2.5-6.8-8.4-9.7-16.8-9.7L17,23.3l7.2-7.2h15.2c0.8,0,1.7,0,2.5,0h0.2v0c19.5,0.7,24,10.5,23.9,26.4v0.1c0.2,3.7,0.2,7.2,0.3,10
	c0.1,4.2-2,8.2-5.4,10.1c-1,0.6-2.6,1.2-4.7,1.2c-2.1,0-4.8-0.6-7.8-2.7c-1.7-1.1-3.7-2.7-5.9-4.5c-2.2,1.8-4.2,3.4-5.9,4.5
	c-3.1,2-5.7,2.7-7.8,2.7c-2.1,0-3.7-0.6-4.7-1.2c-3.4-1.9-5.5-5.9-5.4-10.1c0.1-3.8,0.1-9.7,0.1-14.2l-10,0
	c-0.1,1.1-0.2,2.2-0.2,3.3c0,18.4,15,33.4,33.4,33.4c18.4,0,33.4-15,33.4-33.4c0-17.8-14.1-32.5-31.7-33.3v0l-3.9,0l-6.5,0l6.2-6.2
	C39.4,2.3,41.2,2.2,42,2.2 M51.8,56.1c1.7,1.1,4.2,2.3,6.1,1.2c1.4-0.8,2.3-2.6,2.2-4.4c-0.1-2.9-0.2-7.7-0.2-12.4
	c-3.4,3.4-8.1,7.9-12.7,12.1C49,54,50.5,55.2,51.8,56.1 M24.9,52.9c-0.1,1.9,0.8,3.7,2.2,4.4c1.9,1.1,4.3-0.1,6.1-1.2
	c1.3-0.9,2.9-2.1,4.6-3.5c-4.6-4.2-9.4-8.8-12.7-12.2C25,44.6,25,49.5,24.9,52.9"/>
</svg>
