<svg viewBox="0 0 1920 1920" version="1.1" xmlns="http://www.w3.org/2000/svg">
    <path d="M451.765 774.704H338.824c0-94.193 57.035-381.516 240.677-473.337 117.798-58.73 257.054-28.687 414.381 89.337 76.462 57.26 150.55 76.009 226.9 57.035C1432.431 395.334 1585.015 76.162 1586.597 73l102.098 48c-7.002 15.134-176.752 370.673-440.357 436.405-109.779 27.219-218.315 1.694-322.221-76.349-120.509-90.352-220.236-116.555-296.132-78.607-133.61 66.749-178.221 312.283-178.221 372.255zm1016.47-56.471H1920v1129.412H0V153.527h112.941v1581.177h225.883V944.115h451.764v790.589H903.53v-564.706h451.765v564.706h112.941V718.233z" stroke="none" stroke-width="1" fill-rule="evenodd"/>
</svg>
