<svg viewBox="0 0 1920 1920" version="1.1" xmlns="http://www.w3.org/2000/svg">
    <path d="M113 1298.836V734.142h112.939v564.694H113zm1581.144 0V734.142h112.939v564.694h-112.94zm-296.69-1019.499c118.472 108.648 183.751 253.435 183.751 407.71v734.102c0 88.318-76.008 160.034-169.408 160.034h-169.409V1920H1129.45v-338.817H790.633V1920H677.694v-338.817H508.286c-93.4 0-169.408-71.716-169.408-160.034V709.296c0-200.58 107.292-380.266 269.246-488.913L519.58 87.906c-17.393-25.976-10.39-60.987 15.472-78.38 25.863-17.28 60.987-10.277 78.38 15.586l94.304 141.06c59.858-25.862 123.78-44.61 191.883-50.596 109.325-9.6 216.956 7.906 314.083 48.112l92.384-138.463c17.167-25.976 52.29-33.091 78.267-15.698 25.976 17.28 32.978 52.29 15.698 78.266l-85.72 128.637c29.25 18.861 57.372 39.416 83.122 62.907zm-211.535 398.336c62.23 0 112.939-50.71 112.939-112.94 0-62.228-50.71-112.938-112.939-112.938-62.23 0-112.939 50.71-112.939 112.939 0 62.23 50.71 112.939 112.939 112.939zm-451.755 0c62.229 0 112.938-50.71 112.938-112.94 0-62.228-50.71-112.938-112.938-112.938-62.23 0-112.94 50.71-112.94 112.939 0 62.23 50.71 112.939 112.94 112.939z" stroke="none" stroke-width="1" fill-rule="evenodd"/>
</svg>
