<svg viewBox="0 0 1920 1920" version="1.1" xmlns="http://www.w3.org/2000/svg">
    <path d="M1920 1257.785c-236.604 0-453.5-79.938-630.998-210.974-47.226 70.77-100.989 136.519-158.776 198.459 221.295 166.38 492.844 268.505 789.774 268.505V1740c-362.517 0-695.613-126.613-960-336.89C695.599 1613.388 362.517 1740 0 1740v-226.225c296.917 0 568.464-102.125 789.761-268.505-57.774-61.94-111.537-127.688-158.777-198.46C453.486 1177.848 236.589 1257.786 0 1257.786V1031.56c196.774 0 375.757-70.674 519.725-184.352 64.324-50.79 122.25-109.046 169.699-176.175C787.707 531.96 846.826 363.166 846.826 180h226.348c0 183.166 59.106 351.96 157.388 491.033 47.449 67.129 105.389 125.385 169.699 176.175C1544.23 960.886 1723.226 1031.56 1920 1031.56v226.225zm-960-162.528c59.661-63.236 112.619-132.25 159.151-206.245-63.158-72.068-116.755-151.896-159.151-239.05-42.411 87.154-95.993 166.982-159.165 239.05 46.532 73.995 99.504 143.009 159.165 206.245z" stroke="none" stroke-width="1" fill-rule="evenodd"/>
</svg>
