<svg viewBox="0 0 1920 1920" version="1.1" xmlns="http://www.w3.org/2000/svg">
    <path d="M.208 244.954c704.307-200.207 1350.804.104 1350.804.104v480.54l-201.972 60.716v459.99C527.97 1362.13 0 1199.91 0 1199.91V245.058l.208-.104zm752.36 607.784l210.899-123.923-210.898-124.13L541.775 480.76v496.004l210.794-124.027zm517.821 46.518L1920 707.04v712.403c-.104 105.76-84.587 191.8-188.376 191.8-103.892 0-188.272-86.143-188.272-192.111 0-105.968 84.38-192.216 188.272-192.216 30.618 0 59.16 8.095 84.588 21.38V846.013l-442.035 130.773v604.048h-.83c-4.359 102.024-86.455 183.809-187.441 183.809-103.893 0-188.376-86.144-188.376-192.216 0-105.864 84.483-192.112 188.376-192.112 30.513 0 58.951 8.095 84.483 21.38V899.256z" stroke="none" stroke-width="1" fill-rule="evenodd"/>
</svg>
