<svg viewBox="0 0 1920 1920" version="1.1" xmlns="http://www.w3.org/2000/svg">
    <path d="M1920 219.32l-157.749 159.342L1920 538.087l-97.315 98.237-157.748-159.342-157.833 159.342-97.315-98.237 157.833-159.425-157.833-159.341L1507.104 121l157.833 159.425L1822.685 121 1920 219.32zm-251.15 580.62c2.516 0 5.03 0 7.545-.838v830.653c0 92.202-75.438 167.64-167.64 167.64H167.64C75.438 1797.395 0 1721.957 0 1629.755V623.918c0-92.201 75.438-167.64 167.64-167.64h1097.2c31.013 194.463 200.329 343.662 404.01 343.662zM754.379 950.882V783.243h-251.46c-138.302 0-251.459 113.157-251.459 251.46v167.639c0 138.302 113.157 251.459 251.46 251.459h251.459v-167.64h-251.46c-46.1 0-83.82-37.719-83.82-83.82v-167.639c0-46.1 37.72-83.82 83.82-83.82h251.46zm670.558 0V783.243h-251.46c-138.302 0-251.459 113.157-251.459 251.46v167.639c0 138.302 113.157 251.459 251.46 251.459h251.458v-167.64h-251.459c-46.1 0-83.82-37.719-83.82-83.82v-167.639c0-46.1 37.72-83.82 83.82-83.82h251.46z" stroke="none" stroke-width="1" fill-rule="evenodd"/>
</svg>
