<svg viewBox="0 0 1920 1920" version="1.1" xmlns="http://www.w3.org/2000/svg">
    <path d="M1112.648 948.632c162.056 34.168 279.768 188.726 279.768 367.598v205.757l-21.85 16.066c-117.391 86.223-356.78 225.786-675.108 225.786-16.923 0-33.953-.429-51.198-1.179-280.518-13.174-493.343-129.387-622.517-224.714L0 1521.879v-205.756c0-178.872 117.82-333.43 279.983-367.598 56.982-11.889 114.606-21.1 172.445-28.17-79.689-68.763-131.101-169.124-131.101-282.339V530.907c0-206.72 168.16-374.88 374.881-374.88 206.72 0 374.882 168.16 374.882 374.88v107.11c0 113.428-51.734 214.003-131.637 282.874 58.053 6.962 115.892 15.745 173.195 27.741zm-416.44-42.843c147.596 0 267.773-120.177 267.773-267.773V530.907c0-2.463-.643-4.82-.75-7.39-31.812 28.92-60.517 60.945-123.497 60.945-116.749 0-116.749-107.11-232.426-107.11-94.899 0-113.536 69.943-178.872 96.399v64.265c0 147.596 120.176 267.773 267.772 267.773zM1839.915 156L1920 236.085l-200.269 200.269L1920 636.623l-80.085 80.085-200.269-200.27-200.156 200.27-80.198-80.085 200.27-200.269-200.27-200.269L1439.49 156l200.156 200.269L1839.915 156z" stroke="none" stroke-width="1" fill-rule="evenodd"/>
</svg>
