<svg viewBox="0 0 1920 1920" version="1.1" xmlns="http://www.w3.org/2000/svg">
    <path d="M600 0c132.36 0 240 107.64 240 240S732.36 480 600 480 360 372.36 360 240 467.64 0 600 0zm0 720c132.36 0 240 107.64 240 240s-107.64 240-240 240-240-107.64-240-240 107.64-240 240-240zm0 720c132.36 0 240 107.64 240 240s-107.64 240-240 240-240-107.64-240-240 107.64-240 240-240zm720-960c-132.36 0-240-107.64-240-240S1187.64 0 1320 0s240 107.64 240 240-107.64 240-240 240zm0 240c132.36 0 240 107.64 240 240s-107.64 240-240 240-240-107.64-240-240 107.64-240 240-240zm0 720c132.36 0 240 107.64 240 240s-107.64 240-240 240-240-107.64-240-240 107.64-240 240-240z" stroke="none" stroke-width="1" fill-rule="evenodd"/>
</svg>
