<svg viewBox="0 0 1920 1920" version="1.1" xmlns="http://www.w3.org/2000/svg">
    <path d="M1468.294 1242.353h-903.53v-903.53h712.66l-112.942 112.942H677.706v677.647h677.647V756.706l112.941-112.941v598.588zm-2.259-754.447L1014.271 938.54 796.294 721.694l80.188-80.188 137.789 137.788 371.576-371.576 80.188 80.188zM225.941 0v225.882h-56.47c-31.624 0-56.471 24.847-56.471 56.47 0 31.624 24.847 56.472 56.47 56.472h56.471v338.823h-56.47c-31.624 0-56.471 24.847-56.471 56.47 0 31.624 24.847 56.471 56.47 56.471h56.471v338.824h-56.47c-31.624 0-56.471 24.847-56.471 56.47 0 31.624 24.847 56.47 56.47 56.47h56.471v338.824h-56.47c-31.624 0-56.471 24.848-56.471 56.471 0 31.624 24.847 56.47 56.47 56.47h56.471V1920h1581.177V0H225.94z" stroke="none" stroke-width="1" fill-rule="evenodd"/>
</svg>
