<svg viewBox="0 0 1920 1920" version="1.1" xmlns="http://www.w3.org/2000/svg">
    <path d="M1581.176 1073c0 31.172-25.298 56.47-56.47 56.47h-112.941c-31.172 0-56.47-25.298-56.47-56.47V960.059c0-31.172 25.298-56.47 56.47-56.47h112.94c31.173 0 56.471 25.298 56.471 56.47V1073zm0 338.824c0 31.171-25.298 56.47-56.47 56.47h-112.941c-31.172 0-56.47-25.299-56.47-56.47v-112.942c0-31.171 25.298-56.47 56.47-56.47h112.94c31.173 0 56.471 25.299 56.471 56.47v112.942zM1242.353 1073c0 31.172-25.299 56.47-56.47 56.47H1072.94c-31.172 0-56.47-25.298-56.47-56.47V960.059c0-31.172 25.298-56.47 56.47-56.47h112.941c31.172 0 56.47 25.298 56.47 56.47V1073zm0 338.824c0 31.171-25.299 56.47-56.47 56.47H734.117c-31.172 0-56.47-25.299-56.47-56.47v-112.942c0-31.171 25.298-56.47 56.47-56.47h451.764c31.172 0 56.47 25.299 56.47 56.47v112.942zM564.706 1073c0 31.172-25.299 56.47-56.47 56.47H395.293c-31.172 0-56.47-25.298-56.47-56.47V960.059c0-31.172 25.298-56.47 56.47-56.47h112.941c31.172 0 56.47 25.298 56.47 56.47V1073zm0 338.824c0 31.171-25.299 56.47-56.47 56.47H395.293c-31.172 0-56.47-25.299-56.47-56.47v-112.942c0-31.171 25.298-56.47 56.47-56.47h112.941c31.172 0 56.47 25.299 56.47 56.47v112.942zm112.941-451.765c0-31.172 25.299-56.47 56.47-56.47H847.06c31.172 0 56.47 25.298 56.47 56.47V1073c0 31.172-25.298 56.47-56.47 56.47H734.118c-31.172 0-56.47-25.298-56.47-56.47V960.059zm1072.941-395.294h-729.26c14.907-86.965 65.957-113.506 133.383-147.163 89.336-44.611 200.583-100.291 200.583-304.602h-112.941c0 134.513-57.939 163.426-138.24 203.633-80.301 40.094-177.544 90.24-196.518 248.132H169.412C76.009 564.765 0 640.775 0 734.176v903.53c0 93.402 76.01 169.412 169.412 169.412h1581.176c93.403 0 169.412-76.01 169.412-169.412v-903.53c0-93.402-76.01-169.411-169.412-169.411z" stroke="none" stroke-width="1" fill-rule="evenodd"/>
</svg>
