<svg viewBox="0 0 1920 1920" version="1.1" xmlns="http://www.w3.org/2000/svg">
    <path d="M1129.412 1637.647c0 93.448-75.964 169.412-169.412 169.412-93.448 0-169.412-75.964-169.412-169.412 0-93.447 75.964-169.412 169.412-169.412 93.448 0 169.412 75.965 169.412 169.412zm0-677.647c0 93.448-75.964 169.412-169.412 169.412-93.448 0-169.412-75.964-169.412-169.412 0-93.448 75.964-169.412 169.412-169.412 93.448 0 169.412 75.964 169.412 169.412zm0-677.647c0 93.447-75.964 169.412-169.412 169.412-93.448 0-169.412-75.965-169.412-169.412 0-93.448 75.964-169.412 169.412-169.412 93.448 0 169.412 75.964 169.412 169.412z" stroke="none" stroke-width="1" fill-rule="evenodd"/>
</svg>
