<svg viewBox="0 0 1920 1920" version="1.1" xmlns="http://www.w3.org/2000/svg">
    <path d="M921.93 1328.021l-304-304.106 150.827-150.827 153.174 153.28 336-336.107 150.826 150.934-486.826 486.826zM960 0c529.28 0 960 430.613 960 960s-430.72 960-960 960S0 1489.387 0 960c0-239.04 88.64-465.92 244.48-640H53.333V106.667H640v586.666H426.667v-254.08C291.733 577.387 213.333 762.987 213.333 960c0 411.627 334.934 746.667 746.667 746.667s746.667-335.04 746.667-746.667S1371.733 213.333 960 213.333V0z" stroke="none" stroke-width="1" fill-rule="evenodd"/>
</svg>
