<svg viewBox="0 0 1920 1920" version="1.1" xmlns="http://www.w3.org/2000/svg">
    <path d="M1151.253 671.253L1302.08 822.08l-191.253 191.253 191.253 191.254-150.827 150.826L960 1164.16l-191.253 191.253-150.827-150.826 191.253-191.254L617.92 822.08l150.827-150.827L960 862.507l191.253-191.254zM960 0c529.28 0 960 430.613 960 960s-430.72 960-960 960S0 1489.387 0 960c0-239.04 88.64-465.92 244.48-640H53.333V106.667H640v586.666H426.667v-254.08C291.733 577.387 213.333 762.987 213.333 960c0 411.627 334.934 746.667 746.667 746.667s746.667-335.04 746.667-746.667S1371.733 213.333 960 213.333V0z" stroke="none" stroke-width="1" fill-rule="evenodd"/>
</svg>
