<svg viewBox="0 0 1920 1920" version="1.1" xmlns="http://www.w3.org/2000/svg">
    <path d="M895.949 1273.174v-57.123h134.528c31.36-216.576 216.448-384 441.472-384 110.592 0 210.56 41.728 288.896 108.288-23.424-185.984-52.608-397.056-68.224-506.496-7.808-65.536-60.928-113.792-123.52-113.792h-161.152v-128H1569.1c125.312 0 231.168 96.64 246.4 224.64 4.096 28.416 103.296 732.16 103.296 863.36 0 246.912-199.808 448-446.848 448-225.024 0-410.112-167.552-441.472-384H895.949v-57.225C892.288 1530.731 692.76 1728 448 1728c-247.04 0-448-200.96-448-448 0-131.2 103.552-834.944 107.904-864.768C123.392 288.64 232.704 192 361.856 192H512v128H361.856c-64.64 0-119.168 48.256-127.104 112.256-16.128 109.44-45.952 318.464-70.016 503.552C242.176 871.936 340.096 832 448 832c244.76 0 444.288 197.269 447.949 441.174z" stroke="none" stroke-width="1" fill-rule="evenodd"/>
</svg>
