<svg viewBox="0 0 1920 1920" version="1.1" xmlns="http://www.w3.org/2000/svg">
    <path d="M895.949 1273.174C892.288 1029.27 692.76 832 448 832c-107.904 0-205.824 39.936-283.264 103.808 24.064-185.088 53.888-394.112 70.016-503.552 7.936-64 62.464-112.256 127.104-112.256H512V192H361.856c-129.152 0-238.464 96.64-253.952 223.232C103.552 445.056 0 1148.8 0 1280c0 247.04 200.96 448 448 448 244.76 0 444.288-197.269 447.949-441.174v57.225h134.528c31.36 216.448 216.448 384 441.472 384 247.04 0 446.848-201.088 446.848-448 0-131.2-99.2-834.944-103.296-863.36-15.232-128-121.088-224.64-246.4-224.64h-161.152v128H1569.1c62.592 0 115.712 48.256 123.52 113.792 15.616 109.44 44.8 320.512 68.224 506.496-78.336-66.56-178.304-108.288-288.896-108.288-225.024 0-410.112 167.424-441.472 384H895.949v57.123z" stroke="none" stroke-width="1" fill-rule="evenodd"/>
</svg>
