<svg viewBox="0 0 1920 1920" version="1.1" xmlns="http://www.w3.org/2000/svg">
    <path d="M219.03 0H1801.44v1920H219.03v-439.216h-56.514c-31.196 0-56.515-25.299-56.515-56.47 0-31.172 25.319-56.47 56.515-56.47h56.514V1029.02h-56.514c-31.196 0-56.515-25.3-56.515-56.471 0-31.172 25.319-56.47 56.515-56.47h56.514V577.254h-56.514c-31.196 0-56.515-25.299-56.515-56.47 0-31.172 25.319-56.471 56.515-56.471h56.514V0zm421.258 1389.706v112.94h639.439v-112.94H640.288zm0-964.504v112.94h748.611v-112.94H640.288zm0 214.83v112.94h639.439v-112.94H640.288zm0 534.844v112.94h748.611v-112.94H640.288z" stroke="none" stroke-width="1" fill-rule="evenodd"/>
</svg>
