<svg viewBox="0 0 1920 1920" version="1.1" xmlns="http://www.w3.org/2000/svg">
    <path d="M1355.294 1694.118v-338.824h339.05v338.824h-339.05zM790.588 564.706V225.882h338.824v338.824H790.588zm0 564.706V790.588h338.824v338.824H790.588zm0 564.706v-338.824h338.824v338.824H790.588zM225.882 564.706V225.882h338.824v338.824H225.882zm0 564.706V790.588h338.824v338.824H225.882zm0 564.706v-338.824h338.824v338.824H225.882zm1129.412-564.706V790.588h338.937v338.824h-338.937zm0-564.706V225.882h338.824v338.824h-338.824zM1694.118 0H225.882C101.308 0 0 101.308 0 225.882v1468.236C0 1818.692 101.308 1920 225.882 1920h1468.236c124.574 0 225.882-101.308 225.882-225.882V225.882C1920 101.308 1818.692 0 1694.118 0z" stroke="none" stroke-width="1" fill-rule="evenodd"/>
</svg>
