<svg viewBox="0 0 1920 1920" version="1.1" xmlns="http://www.w3.org/2000/svg">
    <path d="M903.53 1637.176c204.649 0 395.858-90.917 524.385-249.487l175.51 142.08c-171.557 211.878-426.69 333.29-699.896 333.29C405.346 1863.059 0 1457.713 0 959.529 0 461.346 405.346 56 903.53 56c273.204 0 528.338 121.412 699.896 333.29l-175.51 142.08c-128.528-158.57-319.737-249.488-524.387-249.488-373.722 0-677.647 303.925-677.647 677.647 0 373.723 303.925 677.647 677.647 677.647zM1920 846.588v225.883H950.287l202.504 202.503-159.7 159.699-475.143-475.144 475.144-475.143 159.699 159.699-202.504 202.503H1920z" stroke="none" stroke-width="1" fill-rule="evenodd"/>
</svg>
