<svg viewBox="0 0 1920 1920" version="1.1" xmlns="http://www.w3.org/2000/svg">
    <path d="M733.932 1581.176V1920H169V0h451.765v282.353c0 73.638 47.435 135.755 113.167 159.134v123.219H620.765v112.941h113.167v112.941H620.765V903.53h113.167v112.942H620.765v112.94h113.167v112.942H620.765v112.941h113.167v112.941H620.765v112.941h113.167zm451.539-1016.47h564.705V1920H846.873v-451.765h112.715v-112.94H846.873v-112.942h112.715v-112.941H846.873V1016.47h112.715V903.529H846.873V790.59h112.715V677.646H846.873V441.261c65.506-23.379 112.715-85.496 112.715-158.908V0h225.883v564.706zM1298.41 7.454l444.537 444.31h-444.536V7.455zM733.707 0h112.941v282.353c0 31.172-25.412 56.47-56.47 56.47-31.06 0-56.471-25.298-56.471-56.47V0z" stroke="none" stroke-width="1" fill-rule="evenodd"/>
</svg>
