<svg width="149" height="40" viewBox="0 0 149 40" fill="none" xmlns="http://www.w3.org/2000/svg">
<path d="M143.74 39.5083C146.41 39.5083 148.575 37.3465 148.575 34.6798C148.575 32.0131 146.41 29.8513 143.74 29.8513C141.069 29.8513 138.905 32.0131 138.905 34.6798C138.905 37.3465 141.069 39.5083 143.74 39.5083Z" fill="#E72429"/>
<path d="M86.4948 16.0066V8.87571H80.5086V0H73.2463V4.16476C73.2463 6.81989 71.7954 8.87571 68.6504 8.87571H67.2146C69.4556 11.144 70.4887 13.9053 70.7622 16.0066H72.5246V29.8436C72.5246 35.5863 76.1558 39.0228 81.9596 39.0228C84.3221 39.0228 85.7731 38.598 86.4948 38.2945V31.6491C86.0693 31.7705 84.983 31.8919 84.0183 31.8919C81.7165 31.8919 80.5086 31.0422 80.5086 28.4478V16.0066H86.4948Z" fill="#273540"/>
<path d="M133.555 0.963352H125.51V38.0593H133.555V0.963352Z" fill="#273540"/>
<path d="M91.6523 24.977V1.10743H99.6935V24.977C99.6935 28.2113 102.316 30.8335 105.55 30.8335C108.784 30.8335 111.406 28.2113 111.406 24.977V1.10743H119.448V24.977C119.448 32.6526 113.226 38.8747 105.55 38.8747C97.8744 38.8747 91.6523 32.6526 91.6523 24.977Z" fill="#273540"/>
<path d="M50.8134 28.8119C50.9958 31.1712 52.7506 33.3408 56.2602 33.3408C58.919 33.3408 60.1952 31.9525 60.1952 30.3822C60.1952 29.0547 59.2912 27.9699 56.9895 27.4844L53.0544 26.5816C47.3114 25.3147 44.7058 21.8707 44.7058 17.6983C44.7058 12.3805 49.4233 7.97298 55.8348 7.97298C64.305 7.97298 67.1461 13.3515 67.5107 16.5528L60.7954 18.0625C60.5523 16.3101 59.2836 14.0722 55.8956 14.0722C53.7761 14.0722 52.0821 15.3391 52.0821 17.0307C52.0821 18.4797 53.1684 19.39 54.8016 19.6859L59.0329 20.5886C64.8975 21.7948 67.8678 25.3603 67.8678 29.7071C67.8678 34.5394 64.1151 39.4931 56.3134 39.4931C47.357 39.4931 44.2728 33.6973 43.9157 30.314L50.8134 28.8043V28.8119Z" fill="#273540"/>
<path d="M8.0448 1.502H0V38.5979H8.0448V1.502Z" fill="#273540"/>
<path d="M21.5968 38.598H13.552V8.88335H21.3537V12.5702C23.1693 9.49023 26.7397 8.10198 29.9455 8.10198C37.3294 8.10198 40.7099 13.3591 40.7099 19.8831V38.6131H32.6651V21.279C32.6651 17.9563 31.0318 15.3619 27.1575 15.3619C23.6479 15.3619 21.5892 18.0777 21.5892 21.5217V38.6207L21.5968 38.598Z" fill="#273540"/>
</svg>
