<svg width="3600" height="500" viewBox="0 0 3600 500" fill="none" xmlns="http://www.w3.org/2000/svg">
<g clip-path="url(#clip0_18608_21)">
<path d="M3599.27 438.844C3599.27 472.638 3571.91 500 3538.11 500C3504.32 500 3477.05 472.638 3477.05 438.94C3477.05 405.146 3504.42 377.784 3538.11 377.784C3571.91 377.784 3599.27 405.146 3599.27 438.844Z" fill="#E72429"/>
<path d="M2390.07 202.573V112.327H2314.42V0H2222.64V52.7074C2222.64 86.3095 2204.3 112.327 2164.55 112.327H2138.83V113.671C2168.3 139.401 2187.88 171.467 2198.54 202.573H2213.42V377.688C2213.42 450.365 2259.31 493.856 2332.66 493.856C2362.52 493.856 2380.86 488.479 2389.98 484.639V400.538C2384.6 402.074 2370.87 403.61 2358.68 403.61C2329.59 403.61 2314.32 392.857 2314.32 360.023V202.573H2390.07Z" fill="#273540"/>
<path d="M3450.75 380.76C3431.64 445.757 3372.02 500 3279.47 500C3176.27 500 3085.25 425.883 3085.25 298.963C3085.25 178.956 3173.96 100.999 3270.26 100.999C3386.42 100.999 3456.03 175.115 3456.03 295.987C3456.03 310.484 3454.49 325.845 3454.49 327.285H3185.39C3187.69 377.016 3229.74 412.922 3280.15 412.922C3327.57 412.922 3353.49 389.209 3365.78 355.607L3450.65 380.856H3450.75V380.76ZM3355.89 257.681C3354.36 220.238 3329.88 183.564 3271.79 183.564C3219.09 183.564 3190 223.31 3187.69 257.681H3355.89Z" fill="#273540"/>
<path d="M1886.23 298.963C1886.23 367.032 1930.59 405.242 1982.53 405.242C2034.47 405.242 2060.48 370.872 2068.93 341.782L2158.41 371.64C2141.61 434.332 2082.76 498.56 1982.53 498.56C1871.64 498.56 1784.56 414.459 1784.56 299.059C1784.56 183.66 1870.2 99.5583 1979.55 99.5583C2081.99 99.5583 2140.07 163.018 2156.11 226.478L2065.09 257.104C2055.88 225.806 2032.16 193.644 1981.76 193.644C1931.36 193.644 1886.23 231.087 1886.23 299.155V298.963Z" fill="#273540"/>
<path d="M2683.85 447.965C2663.21 483.103 2619.62 498.464 2579.88 498.464C2488.86 498.464 2436.92 431.932 2436.92 350.134V112.423H2538.59V329.589C2538.59 371.64 2560 405.242 2607.43 405.242C2654.86 405.242 2678.48 374.616 2678.48 331.125V112.423H2780.15V420.507C2780.15 449.597 2782.45 475.518 2783.99 488.575H2686.92C2685.39 480.895 2683.85 463.326 2683.85 448.061V447.965Z" fill="#273540"/>
<path d="M3079.11 213.326C3067.68 211.022 3057.7 210.254 3048.58 210.254C2996.64 210.254 2951.52 235.503 2951.52 316.532V488.575H2849.85V112.423H2948.44V168.203C2971.39 118.472 3023.33 109.351 3055.49 109.351C3063.94 109.351 3071.52 110.119 3079.21 110.887V213.326H3079.11Z" fill="#273540"/>
<path d="M1369.82 213.326C1358.39 211.022 1348.41 210.254 1339.29 210.254C1287.35 210.254 1242.22 235.503 1242.22 316.532V488.575H1140.55V112.423H1239.15V168.203C1262.1 118.472 1314.04 109.351 1346.2 109.351C1354.65 109.351 1362.23 110.119 1369.91 110.887V213.326H1369.82Z" fill="#273540"/>
<path d="M1656.3 447.965C1635.66 483.103 1592.07 498.464 1552.32 498.464C1461.31 498.464 1409.37 431.932 1409.37 350.134V112.423H1511.04V329.589C1511.04 371.64 1532.45 405.242 1579.88 405.242C1627.3 405.242 1650.92 374.616 1650.92 331.125V112.423H1752.59V420.507C1752.59 449.597 1754.9 475.518 1756.43 488.575H1659.37C1657.83 480.895 1656.3 463.326 1656.3 448.061V447.965Z" fill="#273540"/>
<path d="M1093.13 202.573V112.327H1017.47V0H925.691V52.7074C925.691 86.3095 907.354 112.327 867.608 112.327H849.462C877.784 141.033 890.841 175.979 894.297 202.573H916.571V377.688C916.571 450.365 962.462 493.856 1035.81 493.856C1065.67 493.856 1084.01 488.479 1093.13 484.639V400.538C1087.75 402.074 1074.02 403.61 1061.83 403.61C1032.74 403.61 1017.47 392.857 1017.47 360.023V202.573H1093.13Z" fill="#273540"/>
<path d="M642.185 364.631C644.489 394.489 666.667 421.947 711.022 421.947C744.624 421.947 760.753 404.378 760.753 384.504C760.753 367.703 749.328 353.975 720.238 347.83L670.507 336.405C597.926 320.372 564.996 276.786 564.996 223.982C564.996 156.682 624.616 100.902 705.645 100.902C812.692 100.902 848.598 168.971 853.207 209.485L768.337 228.59C765.265 206.413 749.232 178.091 706.413 178.091C679.628 178.091 658.218 194.124 658.218 215.534C658.218 233.871 671.947 245.392 692.588 249.136L746.064 260.561C820.181 275.826 857.719 320.948 857.719 375.96C857.719 437.116 810.292 499.808 711.694 499.808C598.502 499.808 559.524 426.459 555.012 383.64L642.185 364.535V364.631Z" fill="#273540"/>
<path d="M101.671 19.0093H0V488.479H101.671V19.0093Z" fill="#273540"/>
<path d="M272.945 488.479H171.275V112.423H269.873V159.082C292.819 120.104 337.942 102.535 378.456 102.535C471.774 102.535 514.497 169.067 514.497 251.632V488.671H412.826V269.297C412.826 227.247 392.185 194.413 343.222 194.413C298.867 194.413 272.849 228.783 272.849 272.37V488.767V488.479H272.945Z" fill="#273540"/>
</g>
<defs>
<clipPath id="clip0_18608_21">
<rect width="3599.17" height="500" fill="white"/>
</clipPath>
</defs>
</svg>
