<svg width="400" height="400" viewBox="0 0 400 400" fill="none" xmlns="http://www.w3.org/2000/svg">
<g clip-path="url(#clip0_18603_19)">
<path d="M224.825 347.964C224.825 319.212 248.107 295.931 276.859 295.931C305.61 295.931 328.892 319.212 328.892 347.964C328.892 376.716 305.61 399.998 276.859 399.998C248.107 399.998 224.825 376.716 224.825 347.964Z" fill="#E7222A"/>
<path d="M224.825 199.998C224.825 171.246 248.107 147.964 276.859 147.964C305.61 147.964 328.892 171.246 328.892 199.998C328.892 228.75 305.61 252.032 276.859 252.032C248.107 252.032 224.825 228.75 224.825 199.998Z" fill="#02893C"/>
<path d="M224.825 52.1719C224.825 23.4201 248.107 0.138197 276.859 0.138197C305.61 0.138197 328.892 23.4201 328.892 52.1719C328.892 80.9236 305.61 104.206 276.859 104.206C248.107 104.206 224.825 80.9236 224.825 52.1719Z" fill="#2B7BBC"/>
<path d="M157.784 -0.0012207H71.1079V399.999H157.784V-0.0012207Z" fill="#273540"/>
</g>
<defs>
<clipPath id="clip0_18603_19">
<rect width="400" height="400" fill="white"/>
</clipPath>
</defs>
</svg>
