<svg xmlns="http://www.w3.org/2000/svg" version="1.1" x="0px" y="0px" viewBox="0 0 160 160" style="enable-background:new 0 0 160 160;">
  <circle fill="#1BAECA" cx="80" cy="80" r="80"/>
  <circle fill="#FFFFFF" cx="80" cy="80" r="76"/>
  <path fill="#1BAECA" d="M105.5,78c-12,0-21.7,9.7-21.7,21.7s9.7,21.7,21.7,21.7s21.7-9.7,21.7-21.7S117.5,78,105.5,78z M116.3,103.3    h-7.2v7.2h-7.2v-7.2h-7.2v-7.2h7.2v-7.2h7.2v7.2h7.2V103.3z"/>
  <path fill="#1BAECA" d="M71.2,64.1c4,0,7.5-1.6,10.3-4.7c2.8-3.1,4.3-6.9,4.3-11.3s-1.4-8.2-4.3-11.3c-2.8-3.1-6.3-4.7-10.3-4.7    c-4,0-7.5,1.6-10.3,4.7c-2.9,3.1-4.3,6.9-4.3,11.3s1.4,8.2,4.3,11.3C63.7,62.5,67.2,64.1,71.2,64.1z"/>
  <path fill="#1BAECA" d="M97.5,74.6c-0.3-0.8-0.7-1.6-1.2-2.4c-0.7-1.3-1.6-2.4-2.5-3.3c-1-0.9-2.1-1.6-3.5-2.2    c-1.4-0.5-2.9-0.8-4.5-0.8c-0.2,0-0.8,0.3-1.7,0.9c-0.9,0.6-1.9,1.2-3,2c-1.1,0.7-2.6,1.4-4.4,2c-1.8,0.6-3.6,0.9-5.4,0.9    c-1.8,0-3.6-0.3-5.4-0.9c-1.8-0.6-3.3-1.2-4.4-2c-1.1-0.7-2.1-1.4-3-2c-0.9-0.6-1.5-0.9-1.7-0.9c-1.7,0-3.2,0.3-4.5,0.8    c-1.4,0.5-2.5,1.3-3.5,2.2c-1,0.9-1.8,2-2.5,3.3c-0.7,1.3-1.3,2.6-1.8,4c-0.4,1.4-0.8,2.8-1.1,4.4c-0.3,1.6-0.5,3.1-0.6,4.4    c-0.1,1.4-0.1,2.8-0.1,4.2c0,3.3,1,5.8,3,7.7c2,1.9,4.6,2.8,7.9,2.8h25.7C79.1,87.9,86.8,77.9,97.5,74.6z"/>
</svg>
