<svg xmlns="http://www.w3.org/2000/svg" version="1.1" x="0px" y="0px" viewBox="0 0 160 160" style="enable-background:new 0 0 160 160;">
  <circle fill="#333333" cx="80" cy="80" r="80"/>
  <path fill="#FFFFFF" d="M68.9,60.2c3.5,0,6.4-1.3,8.9-4c2.5-2.7,3.7-6,3.7-9.8s-1.2-7.1-3.7-9.8c-2.5-2.7-5.4-4-8.9-4      c-3.5,0-6.4,1.3-8.9,4c-2.5,2.7-3.7,6-3.7,9.8s1.2,7.1,3.7,9.8C62.5,58.9,65.4,60.2,68.9,60.2z"/>
  <path fill="#FFFFFF" d="M91.5,69.3c-0.3-0.7-0.6-1.4-1-2.1c-0.6-1.1-1.4-2.1-2.2-2.8c-0.8-0.8-1.8-1.4-3-1.9      c-1.2-0.5-2.5-0.7-3.9-0.7c-0.2,0-0.7,0.3-1.5,0.8c-0.8,0.5-1.6,1.1-2.6,1.7c-1,0.6-2.2,1.2-3.8,1.7c-1.6,0.5-3.1,0.8-4.7,0.8      c-1.6,0-3.1-0.3-4.7-0.8c-1.6-0.5-2.8-1.1-3.8-1.7c-1-0.6-1.8-1.2-2.6-1.7c-0.8-0.5-1.3-0.8-1.5-0.8c-1.4,0-2.7,0.2-3.9,0.7      c-1.2,0.5-2.2,1.1-3,1.9c-0.8,0.8-1.5,1.7-2.2,2.8c-0.6,1.1-1.1,2.3-1.5,3.4c-0.4,1.2-0.7,2.4-0.9,3.8c-0.2,1.4-0.4,2.6-0.5,3.8      c-0.1,1.2-0.1,2.4-0.1,3.6c0,2.8,0.9,5,2.6,6.7c1.7,1.6,4,2.4,6.8,2.4h22.1C75.7,80.8,82.3,72.2,91.5,69.3z"/>
  <path fill="#FFFFFF" d="M128.7,115.2L115,101.4c1.9-3,3-6.5,3-10.3c0-10.6-8.6-19.2-19.2-19.2c-10.6,0-19.2,8.6-19.2,19.2     s8.6,19.2,19.2,19.2c3.8,0,7.3-1.1,10.3-3l13.7,13.7c1.4,1.4,3.8,1.2,5.4-0.4l0.2-0.2C129.9,119,130.1,116.6,128.7,115.2z      M87.5,91.2c0-6.3,5.1-11.3,11.3-11.3c6.3,0,11.3,5.1,11.3,11.3s-5.1,11.3-11.3,11.3C92.6,102.5,87.5,97.5,87.5,91.2z"/>
</svg>
