<svg xmlns="http://www.w3.org/2000/svg" version="1.1" x="0px" y="0px" viewBox="0 0 180 180" style="enable-background:new 0 0 180 180;">
  <path fill="#FFFFFF" stroke="#1E8BCB" stroke-width="2" d="M11.39,10h157.23c0.77,0,1.39,0.62,1.39,1.39v157.23c0,0.77-0.62,1.39-1.39,1.39H11.39   c-0.77,0-1.39-0.62-1.39-1.39V11.39C10,10.62,10.62,10,11.39,10z"/>
  <path fill="#084A70" d="M47.13,36.02l-0.79-2.63h-3.99l-0.79,2.63h-2.5l3.86-10.99h2.85l3.88,10.99H47.13z M45.77,31.47   c-0.74-2.36-1.15-3.7-1.24-4.01c-0.09-0.31-0.16-0.55-0.2-0.73c-0.17,0.64-0.64,2.22-1.41,4.74H45.77z"/>
  <path fill="#084A70" d="M57.93,32.98c0.02,0.45-0.07,0.89-0.25,1.29c-0.18,0.41-0.46,0.76-0.81,1.04c-0.86,0.62-1.91,0.93-2.97,0.88   c-1.07,0.02-2.13-0.2-3.1-0.66v-2.18c0.61,0.28,1.23,0.51,1.87,0.7c0.46,0.13,0.93,0.2,1.4,0.2c0.41,0.03,0.82-0.08,1.17-0.29   c0.14-0.1,0.24-0.23,0.32-0.39c0.07-0.15,0.1-0.32,0.09-0.49c0-0.2-0.06-0.4-0.18-0.57c-0.14-0.19-0.31-0.35-0.51-0.48   c-0.46-0.27-0.93-0.52-1.42-0.74c-0.54-0.23-1.04-0.54-1.5-0.91c-0.33-0.28-0.6-0.62-0.8-1.01c-0.21-0.42-0.31-0.88-0.3-1.35   c-0.02-0.43,0.05-0.86,0.21-1.25c0.17-0.4,0.42-0.75,0.74-1.03c0.78-0.6,1.74-0.89,2.72-0.83c0.55,0,1.09,0.07,1.62,0.2   c0.55,0.15,1.1,0.34,1.62,0.57l-0.74,1.8c-0.47-0.2-0.95-0.37-1.45-0.5c-0.37-0.09-0.75-0.14-1.13-0.14   c-0.36-0.03-0.72,0.08-1.01,0.31c-0.11,0.1-0.21,0.22-0.27,0.36c-0.06,0.14-0.09,0.29-0.08,0.44c-0.01,0.19,0.04,0.37,0.14,0.53   c0.12,0.17,0.26,0.32,0.44,0.44c0.48,0.28,0.97,0.54,1.47,0.77c0.8,0.33,1.52,0.83,2.1,1.47C57.73,31.68,57.94,32.32,57.93,32.98z"/>
  <path fill="#084A70" d="M66.83,32.98c0.02,0.45-0.07,0.89-0.25,1.29c-0.18,0.41-0.46,0.76-0.81,1.04c-0.86,0.62-1.91,0.93-2.97,0.88   c-1.07,0.02-2.13-0.2-3.1-0.66v-2.18c0.61,0.28,1.24,0.51,1.88,0.7c0.46,0.13,0.93,0.2,1.4,0.2c0.41,0.03,0.82-0.08,1.17-0.29   c0.14-0.1,0.25-0.23,0.32-0.38c0.07-0.15,0.1-0.32,0.09-0.49c0-0.2-0.06-0.4-0.18-0.57c-0.15-0.19-0.33-0.36-0.53-0.49   c-0.46-0.27-0.94-0.52-1.44-0.74c-0.54-0.23-1.04-0.54-1.5-0.91c-0.33-0.28-0.6-0.62-0.8-1.01c-0.2-0.42-0.3-0.89-0.28-1.35   c-0.02-0.43,0.06-0.86,0.23-1.25c0.17-0.4,0.43-0.75,0.76-1.03c0.78-0.59,1.74-0.89,2.72-0.83c0.55,0,1.1,0.07,1.63,0.2   c0.55,0.15,1.1,0.34,1.62,0.57l-0.75,1.8c-0.47-0.2-0.95-0.37-1.45-0.5c-0.37-0.09-0.75-0.14-1.13-0.14   c-0.36-0.03-0.72,0.08-1.01,0.31c-0.12,0.1-0.21,0.22-0.27,0.36c-0.06,0.14-0.09,0.29-0.09,0.44c0,0.19,0.05,0.37,0.14,0.53   c0.11,0.17,0.26,0.32,0.44,0.44c0.48,0.29,0.98,0.55,1.49,0.78c0.8,0.33,1.52,0.83,2.1,1.47C66.65,31.69,66.85,32.33,66.83,32.98z"/>
  <path fill="#084A70" d="M75.58,36.02h-6.3V25.07h6.3v1.91h-3.97v2.4h3.71v1.9h-3.71v2.82h3.98L75.58,36.02z"/>
  <path fill="#084A70" d="M84.78,32.98c0.02,0.45-0.07,0.89-0.25,1.29c-0.18,0.41-0.46,0.76-0.81,1.04c-0.86,0.62-1.91,0.93-2.97,0.88   c-1.07,0.02-2.13-0.2-3.1-0.66v-2.18c0.61,0.28,1.24,0.51,1.88,0.7c0.46,0.13,0.93,0.2,1.4,0.2c0.41,0.03,0.82-0.08,1.17-0.29   c0.14-0.1,0.25-0.23,0.32-0.38c0.07-0.15,0.1-0.32,0.09-0.49c0-0.2-0.06-0.4-0.18-0.57c-0.15-0.19-0.33-0.36-0.53-0.49   c-0.46-0.27-0.94-0.52-1.43-0.74c-0.54-0.23-1.04-0.54-1.5-0.91c-0.33-0.28-0.6-0.62-0.8-1.01c-0.21-0.42-0.31-0.88-0.3-1.35   c-0.02-0.43,0.06-0.86,0.23-1.25c0.17-0.4,0.43-0.75,0.76-1.03c0.78-0.59,1.74-0.89,2.72-0.83c0.55,0,1.1,0.07,1.63,0.2   c0.55,0.15,1.1,0.34,1.62,0.57l-0.75,1.8c-0.47-0.2-0.95-0.37-1.45-0.5c-0.37-0.09-0.75-0.14-1.13-0.14   c-0.36-0.03-0.72,0.08-1.01,0.31c-0.12,0.1-0.21,0.22-0.27,0.36c-0.06,0.14-0.09,0.29-0.09,0.44c0,0.19,0.05,0.37,0.14,0.53   c0.11,0.17,0.26,0.32,0.44,0.44c0.49,0.29,0.99,0.55,1.51,0.77c0.8,0.33,1.52,0.83,2.1,1.47C84.61,31.69,84.8,32.33,84.78,32.98z"/>
  <path fill="#084A70" d="M93.68,32.98c0.02,0.44-0.06,0.89-0.25,1.29c-0.18,0.41-0.46,0.76-0.81,1.04c-0.86,0.62-1.91,0.93-2.97,0.88   c-1.07,0.02-2.13-0.2-3.1-0.66v-2.18c0.61,0.28,1.23,0.51,1.87,0.7c0.46,0.13,0.93,0.2,1.41,0.2c0.41,0.03,0.82-0.08,1.17-0.29   c0.14-0.1,0.24-0.23,0.32-0.39c0.07-0.15,0.1-0.32,0.09-0.49c0-0.2-0.06-0.4-0.18-0.57c-0.15-0.19-0.32-0.36-0.53-0.49   c-0.46-0.27-0.93-0.52-1.42-0.74c-0.54-0.23-1.05-0.54-1.51-0.91c-0.33-0.28-0.6-0.62-0.8-1.01c-0.22-0.42-0.33-0.88-0.32-1.35   c-0.02-0.43,0.06-0.86,0.23-1.26c0.17-0.4,0.43-0.75,0.76-1.03c0.78-0.59,1.74-0.89,2.72-0.83c0.55,0,1.1,0.07,1.63,0.2   c0.55,0.15,1.1,0.34,1.62,0.57l-0.75,1.8c-0.47-0.2-0.95-0.37-1.45-0.5c-0.37-0.09-0.75-0.14-1.13-0.14   c-0.36-0.02-0.72,0.08-1.01,0.31c-0.11,0.1-0.2,0.22-0.26,0.36s-0.09,0.29-0.09,0.44c0,0.19,0.05,0.37,0.14,0.53   c0.11,0.17,0.26,0.32,0.44,0.44c0.47,0.29,0.97,0.54,1.47,0.77c0.8,0.33,1.52,0.83,2.1,1.47C93.49,31.68,93.7,32.32,93.68,32.98z"/>
  <path fill="#084A70" d="M100.76,36.02l-2.63-8.59h-0.07c0.09,1.75,0.14,2.92,0.14,3.5v5.08h-2.07V25.07h3.16l2.59,8.37h0.05l2.75-8.37   h3.16v10.95h-2.16v-5.18c0-0.25,0-0.53,0-0.85c0-0.32,0.04-1.17,0.1-2.54h-0.07l-2.82,8.57H100.76z"/>
  <path fill="#084A70" d="M117.34,36.02h-6.32V25.07h6.3v1.91h-3.98v2.4h3.71v1.9h-3.71v2.82h3.98L117.34,36.02z"/>
  <path fill="#084A70" d="M129.79,36.02h-2.95l-4.76-8.28h-0.07c0.09,1.46,0.14,2.5,0.14,3.13v5.15h-2.07V25.07h2.93l4.75,8.21h0.05   c-0.07-1.42-0.11-2.43-0.11-3.01v-5.19h2.09V36.02z"/>
  <path fill="#084A70" d="M137.22,36.02h-2.32V27h-2.97v-1.93h8.26V27h-2.97V36.02z"/>
  <path fill="#084A70" d="M67.76,94.4l-2.01-2.01c-0.29-0.29-0.45-0.68-0.45-1.09s0.16-0.8,0.45-1.09c0.29-0.29,0.68-0.45,1.09-0.45   c0.41,0,0.8,0.16,1.09,0.45l0.91,0.91l4.02-4.02c0.29-0.29,0.68-0.45,1.09-0.45c0.41,0,0.8,0.16,1.09,0.45   c0.29,0.29,0.45,0.68,0.45,1.09s-0.16,0.8-0.45,1.09l-5.12,5.13c-0.29,0.29-0.68,0.45-1.09,0.45S68.05,94.69,67.76,94.4z"/>
  <path fill="#084A70" d="M67.76,107.17l-2.01-2.01c-0.29-0.29-0.45-0.68-0.45-1.09c0-0.41,0.16-0.8,0.45-1.09   c0.29-0.29,0.69-0.45,1.09-0.45c0.41,0,0.8,0.16,1.09,0.45l0.91,0.92l4.02-4.02c0.29-0.29,0.68-0.45,1.09-0.45   c0.41,0,0.8,0.16,1.09,0.45c0.29,0.29,0.45,0.68,0.45,1.09c0,0.41-0.16,0.8-0.45,1.09l-5.12,5.13c-0.29,0.28-0.68,0.44-1.09,0.44   C68.44,107.62,68.05,107.46,67.76,107.17z"/>
  <path fill="#1E8BCB" d="M128.75,141.58h-20.29c-0.35,0-0.68-0.14-0.93-0.38c-0.25-0.25-0.38-0.58-0.38-0.93v-1.57   c0-0.81-0.29-1.59-0.83-2.19c-2.85-3.19-7.63-9.36-7.63-14.81v-8.49c0-0.8,0.21-1.58,0.59-2.28c0.39-0.7,0.95-1.28,1.62-1.7   c0.68-0.42,1.45-0.66,2.25-0.71c0.8-0.04,1.59,0.12,2.31,0.47V92.92c0-1.25,0.49-2.44,1.38-3.32c0.88-0.88,2.07-1.38,3.32-1.38   c1.25,0,2.44,0.49,3.32,1.38c0.88,0.88,1.38,2.07,1.38,3.32v7.62c1.1-0.53,2.35-0.62,3.51-0.25c1.16,0.37,2.13,1.18,2.7,2.26   c0.54-0.37,1.16-0.62,1.81-0.73c0.65-0.11,1.31-0.09,1.95,0.07c0.64,0.16,1.23,0.45,1.75,0.85c0.52,0.4,0.95,0.91,1.26,1.49   c0.9-0.61,1.99-0.88,3.07-0.77c1.08,0.11,2.1,0.58,2.87,1.35c0.44,0.43,0.78,0.95,1.02,1.52c0.24,0.57,0.36,1.18,0.35,1.8v15.96   c0.01,0.8-0.15,1.6-0.46,2.34l-4.33,10.1c-0.18,0.41-0.27,0.86-0.27,1.31v2.44c0,0.35-0.15,0.68-0.4,0.92   C129.44,141.45,129.1,141.59,128.75,141.58z M109.78,138.95h17.66v-1.13c0-0.8,0.16-1.59,0.48-2.33l4.33-10.1   c0.18-0.41,0.27-0.86,0.27-1.31v-15.95c0-0.55-0.22-1.07-0.61-1.46c-0.39-0.39-0.91-0.61-1.46-0.61c-0.55,0-1.07,0.22-1.46,0.61   c-0.39,0.39-0.61,0.91-0.61,1.46c0,0.35-0.14,0.68-0.38,0.93c-0.25,0.25-0.58,0.38-0.93,0.38c-0.35,0-0.68-0.14-0.93-0.38   c-0.25-0.25-0.38-0.58-0.38-0.93v-1.69c-0.02-0.53-0.25-1.03-0.64-1.4c-0.39-0.37-0.9-0.57-1.43-0.57c-0.53,0-1.05,0.21-1.43,0.57   c-0.39,0.37-0.61,0.87-0.64,1.4c0,0.35-0.14,0.68-0.38,0.93s-0.58,0.38-0.93,0.38c-0.35,0-0.68-0.14-0.93-0.38   c-0.25-0.25-0.38-0.58-0.38-0.93v-1.69c0-0.55-0.22-1.07-0.61-1.46c-0.39-0.39-0.91-0.61-1.46-0.61c-0.55,0-1.07,0.22-1.46,0.61   c-0.39,0.39-0.61,0.91-0.61,1.46c0,0.35-0.14,0.68-0.38,0.93s-0.58,0.38-0.93,0.38c-0.35,0-0.68-0.14-0.93-0.38   c-0.25-0.25-0.38-0.58-0.38-0.93V92.93c0-0.55-0.22-1.07-0.61-1.46c-0.39-0.39-0.91-0.61-1.46-0.61c-0.55,0-1.07,0.22-1.46,0.61   c-0.39,0.39-0.61,0.91-0.61,1.46v20.28c0,0.35-0.14,0.68-0.38,0.93c-0.25,0.25-0.58,0.38-0.93,0.38c-0.35,0-0.68-0.14-0.93-0.38   c-0.25-0.25-0.38-0.58-0.38-0.93c-0.02-0.53-0.25-1.03-0.64-1.4c-0.39-0.37-0.9-0.57-1.43-0.57c-0.53,0-1.05,0.21-1.43,0.57   c-0.39,0.37-0.61,0.87-0.64,1.4v8.49c0,4.75,4.87,10.71,6.96,13.06c0.97,1.08,1.5,2.49,1.5,3.94V138.95z"/>
  <path fill="#1E8BCB" d="M132.13,156.79c-0.35,0-0.68-0.14-0.93-0.39c-0.25-0.25-0.38-0.58-0.38-0.93v-12.75c0-0.3-0.12-0.59-0.33-0.81   c-0.21-0.21-0.51-0.33-0.81-0.33h-22.16c-0.3,0-0.59,0.12-0.81,0.33c-0.21,0.21-0.33,0.51-0.33,0.81v12.75   c0,0.35-0.14,0.68-0.38,0.93c-0.25,0.25-0.58,0.39-0.93,0.39s-0.68-0.14-0.93-0.39c-0.25-0.25-0.38-0.58-0.38-0.93v-12.75   c0-1,0.4-1.96,1.11-2.67s1.67-1.1,2.67-1.11h22.14c1,0,1.96,0.4,2.67,1.11c0.71,0.71,1.1,1.67,1.11,2.67v12.75   c0,0.35-0.14,0.68-0.38,0.92C132.81,156.64,132.48,156.78,132.13,156.79z"/>
  <path fill="#1E8BCB" d="M72.95,141.58H52.66c-0.35,0-0.68-0.14-0.93-0.38s-0.38-0.58-0.38-0.93v-4.86l-6.19-18.58   c-0.42-1.27-0.38-2.65,0.11-3.89l5.56-13.9c0.52-1.29,1.49-2.34,2.72-2.96l4.56-2.28v-0.88c0.04-1.22,0.55-2.38,1.43-3.23   c0.88-0.85,2.05-1.33,3.27-1.33c1.22,0,2.4,0.48,3.27,1.33c0.88,0.85,1.39,2.01,1.43,3.23v13.22c0.67,1.35,3.48,7.15,5.01,11.73   c1.31,3.89,1.75,9.03,1.75,12.26v10.15c0,0.34-0.14,0.67-0.39,0.92C73.63,141.44,73.3,141.58,72.95,141.58z M53.97,138.95h17.66   v-8.83c0-3.02-0.44-7.83-1.62-11.42c-1.64-4.92-4.97-11.6-5.01-11.66c-0.09-0.18-0.14-0.38-0.14-0.59V92.92   c-0.02-0.53-0.25-1.03-0.64-1.4c-0.39-0.37-0.9-0.57-1.43-0.57c-0.53,0-1.05,0.21-1.43,0.57c-0.39,0.37-0.61,0.87-0.64,1.4v1.68   c0,0.24-0.07,0.48-0.19,0.69c-0.13,0.21-0.31,0.38-0.53,0.49l-5.29,2.63c-0.66,0.33-1.18,0.9-1.46,1.59l-5.56,13.92   c-0.26,0.67-0.29,1.4-0.06,2.08l6.26,18.78c0.04,0.13,0.07,0.27,0.07,0.42V138.95z"/>
  <path fill="#1E8BCB" d="M76.33,156.79c-0.35,0-0.68-0.14-0.93-0.39c-0.25-0.25-0.38-0.58-0.38-0.93v-12.75c0-0.3-0.12-0.59-0.33-0.81   c-0.21-0.21-0.51-0.33-0.81-0.33H51.74c-0.3,0-0.59,0.12-0.81,0.33c-0.21,0.21-0.33,0.51-0.33,0.81v12.75   c0,0.35-0.14,0.68-0.38,0.93c-0.25,0.25-0.58,0.39-0.93,0.39c-0.35,0-0.68-0.14-0.93-0.39c-0.25-0.25-0.38-0.58-0.38-0.93v-12.75   c0-1,0.4-1.96,1.11-2.67c0.71-0.71,1.67-1.1,2.67-1.11h22.14c1,0,1.96,0.4,2.67,1.11c0.71,0.71,1.1,1.67,1.11,2.67v12.75   c0,0.17-0.03,0.34-0.1,0.5c-0.07,0.16-0.16,0.31-0.28,0.43c-0.12,0.12-0.27,0.22-0.43,0.28C76.68,156.75,76.51,156.79,76.33,156.79   z"/>
  <path fill="#084A70" d="M67.76,68.85l-2.01-2.01c-0.29-0.29-0.45-0.68-0.45-1.09s0.16-0.8,0.45-1.09c0.29-0.29,0.69-0.45,1.09-0.45   c0.41,0,0.8,0.16,1.09,0.45l0.91,0.92l4.02-4.03c0.29-0.29,0.69-0.45,1.09-0.45c0.41,0,0.8,0.16,1.09,0.45   c0.29,0.29,0.45,0.68,0.45,1.09c0,0.41-0.16,0.8-0.45,1.09l-5.12,5.13c-0.29,0.28-0.68,0.44-1.09,0.44   C68.44,69.3,68.05,69.14,67.76,68.85z"/>
  <path fill="#084A70" d="M67.76,81.62l-2.01-2.01c-0.29-0.29-0.45-0.68-0.45-1.09c0-0.41,0.16-0.8,0.45-1.09   c0.29-0.29,0.68-0.45,1.09-0.45c0.41,0,0.8,0.16,1.09,0.45l0.91,0.91l4.02-4.02c0.29-0.29,0.68-0.45,1.09-0.45   c0.41,0,0.8,0.16,1.09,0.45c0.29,0.29,0.45,0.68,0.45,1.09c0,0.41-0.16,0.8-0.45,1.09l-5.12,5.12c-0.29,0.29-0.68,0.45-1.09,0.45   S68.05,81.91,67.76,81.62z"/>
  <path fill="#084A70" d="M56.04,148.57c0.85,0,1.54-0.69,1.54-1.54s-0.69-1.54-1.54-1.54c-0.85,0-1.54,0.69-1.54,1.54   S55.19,148.57,56.04,148.57z"/>
  <path fill="#084A70" d="M111.84,148.57c0.85,0,1.54-0.69,1.54-1.54s-0.69-1.54-1.54-1.54c-0.85,0-1.54,0.69-1.54,1.54   S110.99,148.57,111.84,148.57z"/>
  <path fill="#1E8BCB" d="M54.36,119.6c-0.28,0-0.56-0.09-0.79-0.26c-0.23-0.17-0.39-0.41-0.48-0.68c-0.08-0.27-0.07-0.56,0.02-0.83   c0.1-0.27,0.28-0.49,0.51-0.65l2.78-1.83c0.07-0.05,0.14-0.11,0.18-0.19c0.05-0.08,0.07-0.16,0.08-0.25l1.44-13.52V94.6   c0-0.35,0.14-0.68,0.38-0.93s0.58-0.38,0.93-0.38c0.35,0,0.68,0.14,0.93,0.38c0.25,0.25,0.38,0.58,0.38,0.93v6.74   c0.01,0.11,0.01,0.23,0,0.34l-1.43,13.52c-0.05,0.47-0.2,0.93-0.45,1.33c-0.25,0.41-0.58,0.75-0.98,1.01l-2.78,1.83   C54.88,119.52,54.62,119.6,54.36,119.6z"/>
  <path fill="#084A70" d="M120.61,95.47c-0.23,0-0.46-0.09-0.62-0.26c-0.16-0.16-0.26-0.39-0.26-0.62V55.14c0-1.5-0.59-2.94-1.65-4   c-1.06-1.06-2.49-1.66-3.99-1.66H65.64c-1.5,0-2.93,0.6-3.99,1.66c-1.06,1.06-1.65,2.49-1.65,3.99v29.34   c0,0.23-0.09,0.46-0.26,0.62c-0.16,0.16-0.39,0.26-0.62,0.26c-0.23,0-0.46-0.09-0.62-0.26c-0.16-0.16-0.26-0.39-0.26-0.62V55.14   c0-1.96,0.78-3.85,2.16-5.24c1.39-1.39,3.27-2.17,5.23-2.17h48.45c1.96,0,3.84,0.78,5.23,2.17c1.39,1.39,2.17,3.27,2.17,5.23V94.6   c0,0.12-0.02,0.23-0.07,0.34c-0.04,0.11-0.11,0.2-0.19,0.28c-0.08,0.08-0.18,0.15-0.29,0.19   C120.84,95.45,120.72,95.47,120.61,95.47z"/>
  <path fill="#084A70" d="M97.45,127.61H76.63c-0.23,0-0.46-0.09-0.62-0.26c-0.16-0.16-0.26-0.39-0.26-0.62s0.09-0.46,0.26-0.62   c0.16-0.16,0.39-0.26,0.62-0.26h20.82c0.23,0,0.46,0.09,0.62,0.26c0.16,0.16,0.26,0.39,0.26,0.62s-0.09,0.46-0.26,0.62   C97.9,127.52,97.68,127.61,97.45,127.61z"/>
  <path fill="#1E8BCB" d="M101.7,63.8H79.71c-0.35,0-0.68-0.14-0.93-0.38s-0.38-0.58-0.38-0.93c0-0.35,0.14-0.68,0.38-0.93   c0.25-0.25,0.58-0.38,0.93-0.38h21.99c0.35,0,0.68,0.14,0.93,0.38c0.25,0.25,0.38,0.58,0.38,0.93c0,0.35-0.14,0.68-0.38,0.93   C102.38,63.66,102.05,63.8,101.7,63.8z"/>
  <path fill="#1E8BCB" d="M101.7,70.56H79.71c-0.35,0-0.68-0.14-0.93-0.38c-0.25-0.25-0.38-0.58-0.38-0.93c0-0.35,0.14-0.68,0.38-0.93   s0.58-0.38,0.93-0.38h21.99c0.35,0,0.68,0.14,0.93,0.38c0.25,0.25,0.38,0.58,0.38,0.93c0,0.35-0.14,0.68-0.38,0.93   C102.38,70.42,102.05,70.56,101.7,70.56z"/>
  <path fill="#1E8BCB" d="M101.7,77.32H79.71c-0.35,0-0.68-0.14-0.93-0.38s-0.38-0.58-0.38-0.93s0.14-0.68,0.38-0.93   s0.58-0.38,0.93-0.38h21.99c0.35,0,0.68,0.14,0.93,0.38c0.25,0.25,0.38,0.58,0.38,0.93s-0.14,0.68-0.38,0.93   C102.38,77.18,102.05,77.32,101.7,77.32z"/>
  <path fill="#1E8BCB" d="M101.7,84.09H79.71c-0.35,0-0.68-0.14-0.93-0.38c-0.25-0.25-0.38-0.58-0.38-0.93c0-0.35,0.14-0.68,0.38-0.93   c0.25-0.25,0.58-0.38,0.93-0.38h21.99c0.35,0,0.68,0.14,0.93,0.38c0.25,0.25,0.38,0.58,0.38,0.93c0,0.35-0.14,0.68-0.38,0.93   C102.38,83.95,102.05,84.09,101.7,84.09z"/>
  <path fill="#1E8BCB" d="M101.7,90.85H79.71c-0.35,0-0.68-0.14-0.93-0.38s-0.38-0.58-0.38-0.93s0.14-0.68,0.38-0.93   c0.25-0.25,0.58-0.38,0.93-0.38h21.99c0.35,0,0.68,0.14,0.93,0.38c0.25,0.25,0.38,0.58,0.38,0.93s-0.14,0.68-0.38,0.93   C102.38,90.71,102.05,90.85,101.7,90.85z"/>
  <path fill="#1E8BCB" d="M101.7,97.61H79.71c-0.35,0-0.68-0.14-0.93-0.38s-0.38-0.58-0.38-0.93c0-0.35,0.14-0.68,0.38-0.93   s0.58-0.38,0.93-0.38h21.99c0.35,0,0.68,0.14,0.93,0.38c0.25,0.25,0.38,0.58,0.38,0.93c0,0.35-0.14,0.68-0.38,0.93   C102.38,97.48,102.05,97.61,101.7,97.61z"/>
  <path fill="#1E8BCB" d="M94.93,104.38H79.71c-0.35,0-0.68-0.14-0.93-0.38s-0.38-0.58-0.38-0.93c0-0.35,0.14-0.68,0.38-0.93   c0.25-0.25,0.58-0.38,0.93-0.38h15.22c0.35,0,0.68,0.14,0.93,0.38c0.25,0.25,0.38,0.58,0.38,0.93c0,0.35-0.14,0.68-0.38,0.93   C95.62,104.24,95.28,104.38,94.93,104.38z"/>
  <path fill="#1E8BCB" d="M94.93,111.14H79.71c-0.35,0-0.68-0.14-0.93-0.38c-0.25-0.25-0.38-0.58-0.38-0.93c0-0.35,0.14-0.68,0.38-0.93   s0.58-0.38,0.93-0.38h15.22c0.35,0,0.68,0.14,0.93,0.38c0.25,0.25,0.38,0.58,0.38,0.93c0,0.35-0.14,0.68-0.38,0.93   C95.62,111,95.28,111.14,94.93,111.14z"/>
  <path fill="#1E8BCB" d="M110.15,64.03c0.85,0,1.54-0.69,1.54-1.54c0-0.85-0.69-1.54-1.54-1.54s-1.54,0.69-1.54,1.54   C108.61,63.34,109.3,64.03,110.15,64.03z"/>
  <path fill="#1E8BCB" d="M110.15,70.79c0.85,0,1.54-0.69,1.54-1.54c0-0.85-0.69-1.54-1.54-1.54s-1.54,0.69-1.54,1.54   C108.61,70.1,109.3,70.79,110.15,70.79z"/>
  <path fill="#1E8BCB" d="M110.15,77.56c0.85,0,1.54-0.69,1.54-1.54s-0.69-1.54-1.54-1.54s-1.54,0.69-1.54,1.54   S109.3,77.56,110.15,77.56z"/>
  <path fill="#1E8BCB" d="M110.15,84.32c0.85,0,1.54-0.69,1.54-1.54c0-0.85-0.69-1.54-1.54-1.54s-1.54,0.69-1.54,1.54   C108.61,83.63,109.3,84.32,110.15,84.32z"/>
</svg>
