<svg xmlns="http://www.w3.org/2000/svg" version="1.1" x="0px" y="0px" viewBox="0 0 455.2 58.2" style="enable-background:new 0 0 455.2 58.2;">
  <path fill="#005C76" d="M23.9,19.4h0.2L30,36.3H18L23.9,19.4 M31.1,58.2h22.5v-2.6c-4.3-0.5-5.7-0.9-8.5-8.6   c-3.1-8.3-6.7-18.1-10.2-27.8L29.5,4l-4,1.1L8.9,47.3C6,54.7,4.9,55.1,0,55.7v2.6h18.5v-2.6l-2-0.2c-3.8-0.4-3.9-1.3-2.7-5.4   c1.1-3.6,2.1-7.2,3.1-9.6h14.5c1.2,3,2.8,7.3,3.9,10c1.4,3.5,1,4.4-2.1,4.9l-2.1,0.3V58.2z"/>
  <path fill="#005C76" d="M77.1,29.7c0-3-0.4-3.5-2.5-3.9L72,25.4V23c4.1-0.2,11.3-1,15.1-1.5v27.9c0,3.4,0.3,4.3,2.9,4.3h2.6v2.5   c-4.9,0.7-10.2,1.9-14.9,3l-0.7-0.6v-5.3c-1.6,1.1-2.9,2.2-4.7,3.3c-2.5,1.5-4.6,2.4-7.2,2.4c-6.9,0-10.6-4.6-10.6-10.9V29.7   c0-3-0.4-3.5-2.5-3.9l-2.2-0.4V23c3.8-0.2,10.5-1,14.8-1.5v24.8c0,4.8,2.5,6.7,5.5,6.7c2.3,0,4.6-1.1,7-3.1V29.7"/>
  <path fill="#005C76" d="M107.4,46.1c0,6.3,3.1,7.5,4.6,7.5c1.3,0,2.7-0.4,4.3-1.3l1.1,2.5l-7.1,3.6c-1.3,0.6-2.5,0.9-3.1,0.9   c-6.3,0-9.9-2.8-9.9-10.1V26.3h-5.3l-0.6-1l2.6-3.1h3.2v-5l8.6-6.5l1.4,0.7v10.8h8.1c1.1,0.9,0.9,3.5-0.6,4.2h-7.6V46.1"/>
  <path fill="#005C76" d="M134,26.4c2.8-2.7,6.9-5.3,11.2-5.3c7.5,0,11.6,4.7,11.6,12.4v16.6c0,4.6,0.4,4.9,5,5.5v2.6h-19.3v-2.6   c4-0.5,4.3-0.9,4.3-5.5V34.5c0-5.1-2.8-7.2-6.3-7.2c-2.3,0-4.7,0.8-6.5,2.7v20.3c0,4.6,0.4,4.9,3.8,5.5v2.6H118v-2.6   c5.5-0.5,5.9-0.9,5.9-5.5V10.5c0-4.9-0.2-5-5.4-5.3V2.9c3.6-0.6,10-1.7,15.4-2.9V26.4"/>
  <path fill="#005C76" d="M174.4,37.8c0-8.9,3.5-13.2,6.8-13.2c5.3,0,8.4,6.3,8.4,17.3c0,11.9-3.7,13.9-6.7,13.9   C177.7,55.8,174.4,48.1,174.4,37.8 M182.5,21.2c-9.2,0-19.4,6.9-19.4,19.9c0,8.8,6.3,18.1,19,18.1c9.5,0,18.9-6.4,18.9-19.8   C201,29.8,193.9,21.2,182.5,21.2z"/>
  <path fill="#005C76" d="M218.6,50.2c0,4.6,0.4,4.9,6.7,5.5v2.6h-22.4v-2.6c5.2-0.5,5.6-0.9,5.6-5.5V32c0-5-0.2-5.1-5.4-5.7v-2.2   c4.8-0.7,10.1-1.8,15.5-3v8.2h0.2c1-1.7,2.3-3.6,3.8-5.3c1.6-1.7,3.4-2.9,5.4-2.9c3.1,0,5.5,2.3,5.5,5c0,2.7-1.8,5.1-3.9,5.8   c-1.1,0.4-1.9,0.1-2.5-0.3c-1.4-1.1-2.8-1.7-4.1-1.7c-1.4,0-3,0.6-4.4,4V50.2"/>
  <path fill="#005C76" d="M240,32c0-5-0.2-5.1-5.4-5.7v-2.2c4.8-0.7,10.3-1.8,15.5-3v29c0,4.7,0.4,5,5.6,5.6v2.6h-21.3v-2.6   c5.3-0.5,5.7-0.9,5.7-5.6V32 M250.3,8.2c0,3.3-2.6,5.9-6,5.9c-3.2,0-6-2.6-6-5.9c0-3.3,2.8-6,6-6C247.6,2.2,250.3,4.9,250.3,8.2z"/>
  <path fill="#005C76" d="M288.3,22.1l0.7,1.2l-18.9,31.5h6.5c5.7,0,7.9-1,10.6-5.7l1.2-2l3,1.1c-1.5,4.1-2.5,7.1-3.8,10.1H258l-0.8-1.2   l19.5-31.5h-5.8c-5.4,0-6.9,1.2-8.8,5.3l-1.2,2.5l-2.9-1.1c1-3.1,2.3-8.3,3-11.9h1.8c0.4,1.2,1.3,1.7,4.4,1.7H288.3"/>
  <path fill="#005C76" d="M300.9,34.8c0.5-5.6,3.5-9.8,6.6-9.8c3.1,0,5.7,4.3,5.7,7.6c0,1.6-0.3,1.9-1.5,1.9L300.9,34.8 M321.3,48.7   c-3.3,2.2-5.9,3.2-8.9,3.2c-6.3,0-11.9-4.2-11.9-13.5c8.2-0.3,19.1-1.1,20.2-1.3c1.6-0.3,1.9-0.5,1.9-3.6c0-6.3-5.7-12.4-12.8-12.4   c-10,0-18.9,8.8-18.9,20.7c0,9.2,6.4,17.3,17.5,17.3c2.9,0,9.3-1.7,14-8.8L321.3,48.7z"/>
  <path fill="#005C76" d="M325.3,52.7c0-3.7,2.7-6.4,6.2-6.4c3.6,0,6.3,2.7,6.3,6.4c0,3.8-2.7,6.4-6.3,6.4   C328,59.2,325.3,56.6,325.3,52.7"/>
  <path fill="#005C76" d="M390.9,58.8h-5l-32.6-40.1H353v17c0,8.6,0.5,13.2,0.8,15.7c0.4,2.8,2.5,3.9,7.9,4.2v2.6h-20.4v-2.6   c4.1-0.2,6.1-1.3,6.5-4.2c0.4-2.6,0.9-7.1,0.9-15.7V19.5c0-5.2,0-7.3-1.5-9.2c-1.6-2-3.6-2.5-7-2.8V4.9h14.3l31.8,37h0.2V27.4   c0-8.6-0.5-13.1-0.8-15.7c-0.4-2.9-2.5-3.9-7.9-4.2V4.9h20.4v2.6c-4.1,0.2-6.1,1.3-6.5,4.2c-0.3,2.6-0.8,7.1-0.8,15.7V58.8"/>
  <path fill="#005C76" d="M403.6,34.8c0.5-5.6,3.5-9.8,6.5-9.8c3.1,0,5.7,4.3,5.7,7.6c0,1.6-0.3,1.9-1.6,1.9L403.6,34.8 M423.9,48.7   c-3.3,2.2-5.8,3.2-8.9,3.2c-6.2,0-11.8-4.2-11.8-13.5c8.1-0.3,19.1-1.1,20.2-1.3c1.6-0.3,1.9-0.5,1.9-3.6c0-6.3-5.7-12.4-12.8-12.4   c-10,0-18.9,8.8-18.9,20.7c0,9.2,6.4,17.3,17.5,17.3c2.9,0,9.3-1.7,14-8.8L423.9,48.7z"/>
  <path fill="#005C76" d="M441.3,46.1c0,6.3,3.1,7.5,4.6,7.5c1.3,0,2.7-0.4,4.2-1.3l1.2,2.5l-7.1,3.6c-1.3,0.6-2.5,0.9-3.1,0.9   c-6.3,0-9.9-2.8-9.9-10.1V26.3H426l-0.6-1l2.6-3.1h3.2v-5l8.7-6.5l1.4,0.7v10.8h8.1c1.1,0.9,0.9,3.5-0.6,4.2h-7.5V46.1"/>
  <path fill="#005C76" d="M451.1,19.1c-0.7,0-1.4-0.2-2-0.5c-0.6-0.4-1.1-0.9-1.5-1.5c-0.4-0.6-0.6-1.3-0.6-2.1c0-0.7,0.2-1.4,0.6-2.1   c0.4-0.6,0.9-1.1,1.5-1.5c0.6-0.4,1.3-0.6,2-0.6c0.7,0,1.4,0.2,2.1,0.6c0.6,0.4,1.1,0.9,1.5,1.5c0.4,0.6,0.6,1.3,0.6,2.1   c0,0.7-0.2,1.4-0.6,2.1c-0.4,0.6-0.9,1.1-1.5,1.5C452.5,18.9,451.8,19.1,451.1,19.1 M451.1,18.5c0.6,0,1.2-0.1,1.7-0.5   c0.5-0.3,1-0.7,1.3-1.3c0.3-0.5,0.5-1.1,0.5-1.8c0-0.6-0.2-1.2-0.5-1.8c-0.3-0.5-0.7-1-1.3-1.3c-0.6-0.3-1.1-0.5-1.8-0.5   c-0.6,0-1.2,0.2-1.7,0.5c-0.6,0.3-1,0.7-1.3,1.3c-0.3,0.5-0.5,1.1-0.5,1.8c0,0.6,0.2,1.2,0.5,1.8c0.3,0.5,0.8,1,1.3,1.3   C449.9,18.4,450.5,18.5,451.1,18.5z M450.3,17.5h-0.8v-5h1.6c0.4,0,0.7,0.1,0.9,0.2c0.2,0.1,0.4,0.3,0.5,0.5   c0.1,0.2,0.2,0.5,0.2,0.7c0,0.3-0.1,0.6-0.2,0.8c-0.2,0.3-0.4,0.5-0.7,0.6c0.2,0.1,0.4,0.4,0.6,0.7l0.8,1.5h-0.9l-0.6-1.2l-0.2-0.3   c-0.2-0.3-0.3-0.5-0.4-0.5h-0.6V17.5z M450.3,14.8h0.5c0.4,0,0.6-0.1,0.8-0.3c0.1-0.2,0.2-0.4,0.2-0.6c0-0.1,0-0.3-0.1-0.4   c-0.1-0.1-0.1-0.2-0.3-0.3c-0.1-0.1-0.3-0.1-0.6-0.1h-0.6V14.8z"/>
</svg>
