<svg xmlns="http://www.w3.org/2000/svg" version="1.1" x="0px" y="0px" viewBox="0 0 100 100" style="enable-background:new 0 0 100 100;">
  <circle fill="#F4F4F4" cx="50" cy="50" r="50"/>
  <path fill="#FFFFFF" d="M90.3,24.1H39.8c-3.9,0-7.2,2.3-8.8,5.6c-1-0.6-2.2-1-3.5-1H6.8c-3.8,0-6.8,3-6.8,6.8c0,3.7,3.1,6.8,6.8,6.8    h0.6c-0.8,1.1-1.3,2.5-1.3,4c0,3.7,3.1,6.8,6.8,6.8h0.6c-0.8,1.1-1.3,2.5-1.3,4c0,3.7,3.1,6.8,6.8,6.8h8.5c0.9,0,1.8-0.2,2.6-0.5    v3.1c0,5.3,4.3,9.6,9.7,9.6h50.6c5.3,0,9.7-4.3,9.7-9.6V33.7C100,28.4,95.7,24.1,90.3,24.1z"/>
  <path fill="#999999" d="M90.3,28.5H60.1H52H39.8c-2.9,0-5.3,2.3-5.3,5.2v32.6c0,2.9,2.4,5.2,5.3,5.2H52h8.1h30.3    c2.9,0,5.3-2.3,5.3-5.2V33.7C95.6,30.8,93.2,28.5,90.3,28.5z M91.8,66.3c0,0.8-0.7,1.5-1.5,1.5H60.1H52H39.8    c-0.8,0-1.5-0.7-1.5-1.5V33.7c0-0.8,0.7-1.5,1.5-1.5H52h8.1h30.3c0.8,0,1.5,0.7,1.5,1.5L91.8,66.3L91.8,66.3z"/>
  <path fill="#999999" d="M88.6,38.7c-0.6-0.9-1.9-1.2-2.8-0.5L65.6,51.7L45.5,38.2c-0.9-0.6-2.2-0.4-2.8,0.5s-0.4,2.1,0.5,2.8l21,14.1    c0.4,0.3,0.9,0.4,1.4,0.3c0.5,0.1,1,0,1.4-0.3l21-14.1C89,40.9,89.2,39.6,88.6,38.7z"/>
  <path fill="#999999" d="M29.9,35.5c0,1.3-1.1,2.4-2.4,2.4H6.8c-1.3,0-2.4-1.1-2.4-2.4l0,0c0-1.3,1.1-2.4,2.4-2.4h20.7    C28.8,33.1,29.9,34.1,29.9,35.5L29.9,35.5z"/>
  <path fill="#999999" d="M29.9,46.2c0,1.3-1.1,2.4-2.4,2.4H12.9c-1.3,0-2.4-1.1-2.4-2.4l0,0c0-1.3,1.1-2.4,2.4-2.4h14.6    C28.8,43.8,29.9,44.9,29.9,46.2L29.9,46.2z"/>
  <path fill="#999999" d="M29.9,57c0,1.3-1.1,2.4-2.4,2.4H19c-1.3,0-2.4-1.1-2.4-2.4l0,0c0-1.3,1.1-2.4,2.4-2.4h8.5    C28.8,54.6,29.9,55.7,29.9,57L29.9,57z"/>
</svg>
