<svg xmlns="http://www.w3.org/2000/svg" version="1.1" x="0px" y="0px" viewBox="0 0 100 100" style="enable-background:new 0 0 100 100;">
  <circle fill="#F4F4F4" cx="50" cy="50" r="50"/>
  <path fill="#FFFFFF" d="M81.9,68.5H79V29.7H64.7V17.3H48.4v14.3H35.1V42H20.9v26.4h-2.7c-2.4,0-4.4,2-4.4,4.5s2,4.5,4.4,4.5h63.7    c2.4,0,4.4-2,4.4-4.5C86.3,70.5,84.3,68.5,81.9,68.5z"/>
  <path fill="#999999" d="M75.5,33.1H66V66h9.5V33.1z M61.3,20.7h-9.5V66h9.5V20.7z M48,35.1h-9.5V66H48V35.1z M33.8,45.4h-9.5V66      h9.5V45.4z M81.9,71.9H18.2c-0.6,0-1,0.5-1,1.1s0.5,1.1,1,1.1h63.7c0.6,0,1-0.5,1-1.1C82.9,72.3,82.4,71.9,81.9,71.9z"/>
</svg>
