<svg xmlns="http://www.w3.org/2000/svg" version="1.1" x="0px" y="0px" viewBox="0 0 100 100" style="enable-background:new 0 0 100 100;">
  <circle fill="#333333" cx="50" cy="50" r="50"/>
  <path fill="#121212" d="M79.6,52.7c-0.6,0-1.1,0-1.7,0.1l0,0c-0.3-0.7-0.6-1.4-0.9-2c-0.6-1.1-1.4-2.1-2.3-2.9      c-0.9-0.9-2.1-1.6-3.4-2.1c-0.9-0.3-1.8-0.6-2.7-0.7c1.4-2.2,2.2-4.8,2.2-7.7c0-3.7-1.2-7-3.7-9.6c-2.5-2.7-5.7-4.2-9.2-4.2      c-3.6,0-6.8,1.4-9.2,4.2c-2.4,2.6-3.6,5.7-3.6,9.3c-0.2-0.3-0.5-0.6-0.7-0.8c-0.8-0.8-1.9-1.4-3-1.9c-0.5-0.2-1-0.3-1.5-0.4      c0.9-1.8,1.4-3.7,1.4-5.9c0-3.3-1.1-6.1-3.2-8.4c-2.2-2.4-5-3.7-8.1-3.7c-3.1,0-5.9,1.3-8.1,3.7c-2.1,2.3-3.2,5.2-3.2,8.4      c0,2.2,0.5,4.1,1.4,5.9c-0.5,0.1-1,0.3-1.5,0.4c-1.2,0.5-2.2,1.1-3,1.9c-0.8,0.7-1.4,1.6-2,2.6c-0.5,0.9-0.9,1.8-1.2,2.8      c-0.3,0.9-0.5,1.8-0.7,2.8c-0.2,1-0.3,1.9-0.3,2.7c-0.1,0.8-0.1,1.6-0.1,2.5c0,3.4,1.5,5.5,2.7,6.7c1.7,1.6,4,2.5,6.7,2.5h15.8      c-0.1,0.6-0.1,1.1-0.2,1.6c-0.1,0.9-0.1,1.9-0.1,2.9c0,3.9,1.6,6.2,3,7.5c2,1.9,4.5,2.8,7.5,2.8h15.9c1.7,7.8,8.7,13.7,17,13.7      c9.6,0,17.4-7.8,17.4-17.4S89.2,52.7,79.6,52.7z"/>
  <path fill="#999999" d="M29.9,36.4c2.1,0,3.9-0.8,5.4-2.5c1.5-1.6,2.2-3.6,2.2-6c0-2.3-0.8-4.3-2.2-6c-1.5-1.6-3.3-2.5-5.4-2.5      c-2.1,0-3.9,0.8-5.4,2.5c-1.5,1.6-2.2,3.6-2.2,6c0,2.3,0.7,4.3,2.2,6C26,35.6,27.8,36.4,29.9,36.4z"/>
  <path fill="#999999" d="M37.5,54c0.4-1.2,0.9-2.4,1.5-3.5c0.7-1.2,1.5-2.3,2.5-3.2c0.9-0.8,1.9-1.5,3.1-2.1c0,0,0-0.1,0-0.1      c-0.1-0.8-0.3-1.6-0.6-2.3c-0.2-0.7-0.5-1.4-0.9-2.1c-0.4-0.7-0.8-1.3-1.3-1.7c-0.5-0.5-1.1-0.9-1.8-1.1      c-0.7-0.3-1.5-0.4-2.4-0.4c-0.1,0-0.4,0.2-0.9,0.5c-0.5,0.3-1,0.6-1.6,1c-0.6,0.4-1.4,0.7-2.3,1c-0.9,0.3-1.9,0.5-2.9,0.5      c-1,0-1.9-0.2-2.9-0.5c-0.9-0.3-1.7-0.6-2.3-1c-0.6-0.4-1.1-0.7-1.6-1c-0.5-0.3-0.8-0.5-0.9-0.5c-0.9,0-1.7,0.1-2.4,0.4      c-0.7,0.3-1.3,0.7-1.8,1.1c-0.5,0.5-0.9,1.1-1.3,1.7c-0.4,0.7-0.7,1.4-0.9,2.1c-0.2,0.7-0.4,1.5-0.6,2.3      c-0.1,0.8-0.2,1.6-0.3,2.3c0,0.7-0.1,1.5-0.1,2.2c0,1.7,0.5,3.1,1.6,4.1c1,1,2.4,1.5,4.1,1.5h16.6C37.3,54.8,37.4,54.3,37.5,54z      "/>
  <path fill="#999999" d="M79.6,56.3c-7.6,0-13.7,6.1-13.7,13.7S72,83.8,79.6,83.8s13.7-6.1,13.7-13.7S87.2,56.3,79.6,56.3z      M86.5,72.3h-4.6v4.6h-4.6v-4.6h-4.6v-4.6h4.6v-4.6h4.6v4.6h4.6V72.3z"/>
  <path fill="#999999" d="M57.9,47.5c2.5,0,4.7-1,6.5-3c1.8-2,2.7-4.4,2.7-7.2s-0.9-5.2-2.7-7.2c-1.8-2-4-3-6.5-3c-2.5,0-4.7,1-6.5,3      c-1.8,2-2.7,4.4-2.7,7.2s0.9,5.2,2.7,7.2C53.2,46.5,55.4,47.5,57.9,47.5z"/>
  <path fill="#999999" d="M74.6,54.1c-0.2-0.5-0.5-1-0.7-1.5c-0.5-0.8-1-1.5-1.6-2.1c-0.6-0.6-1.3-1-2.2-1.4      c-0.9-0.3-1.8-0.5-2.9-0.5c-0.2,0-0.5,0.2-1.1,0.6c-0.6,0.4-1.2,0.8-1.9,1.2c-0.7,0.5-1.6,0.9-2.8,1.2c-1.1,0.4-2.3,0.6-3.4,0.6      c-1.1,0-2.3-0.2-3.4-0.6c-1.1-0.4-2.1-0.8-2.8-1.2c-0.7-0.5-1.4-0.9-1.9-1.2c-0.6-0.4-0.9-0.6-1.1-0.6c-1,0-2,0.2-2.9,0.5      c-0.9,0.3-1.6,0.8-2.2,1.4c-0.6,0.6-1.1,1.3-1.6,2.1c-0.5,0.8-0.8,1.7-1.1,2.5c-0.3,0.9-0.5,1.8-0.7,2.8c-0.2,1-0.3,1.9-0.4,2.8      s-0.1,1.8-0.1,2.7c0,2.1,0.6,3.7,1.9,4.9c1.3,1.2,2.9,1.8,5,1.8h16.2C62.9,62.6,67.8,56.3,74.6,54.1z"/>
</svg>
