<svg xmlns="http://www.w3.org/2000/svg" version="1.1" x="0px" y="0px" viewBox="0 0 100 100" style="enable-background:new 0 0 100 100;">
  <circle fill="#F4F4F4" cx="50" cy="50" r="50"/>
  <path fill="#FFFFFF" d="M96.8,68.2c0-8.3-5.3-15.4-12.7-18.1V23.5c0-5.7-4.6-10.3-10.3-10.3H25.5c-5.7,0-10.3,4.6-10.3,10.3v62.2    c0,5.7,4.6,10.3,10.3,10.3h48.3c5.5,0,10-4.4,10.3-9.8C91.5,83.6,96.8,76.5,96.8,68.2z"/>
  <path fill="#999999" d="M77.6,53.1c-8.3,0-15.1,6.8-15.1,15.1s6.8,15.1,15.1,15.1s15.1-6.8,15.1-15.1S85.9,53.1,77.6,53.1z     M84.4,70.5h-4.6V75h-4.6v-4.6h-4.6v-4.6h4.6v-4.6h4.6v4.6h4.6V70.5z"/>
  <rect x="32" y="26.1" fill="#999999" width="1.2" height="10.3"/>
  <rect x="32" y="42" fill="#999999" width="1.2" height="10.3"/>
  <rect x="32" y="57.9" fill="#999999" width="1.2" height="10.3"/>
  <rect x="32" y="73.8" fill="#999999" width="1.2" height="10.3"/>
  <rect x="48" y="26.1" fill="#999999" width="1.2" height="10.3"/>
  <rect x="48" y="42" fill="#999999" width="1.2" height="10.3"/>
  <rect x="48" y="57.9" fill="#999999" width="1.2" height="10.3"/>
  <rect x="19.6" y="38.4" fill="#999999" width="10.3" height="1.2"/>
  <rect x="35.5" y="38.4" fill="#999999" width="10.3" height="1.2"/>
  <rect x="51.4" y="38.4" fill="#999999" width="10.3" height="1.2"/>
  <rect x="67.3" y="38.4" fill="#999999" width="10.3" height="1.2"/>
  <path fill="#999999" d="M77.6,87.4c-1,0-1.9-0.1-2.9-0.2c-0.3,0.2-0.6,0.3-1,0.3H55.1h-3.7H25.5c-1,0-1.7-0.8-1.7-1.7V54.7V23.5    c0-0.9,0.8-1.7,1.7-1.7h48.3c0.9,0,1.7,0.8,1.7,1.7V49c0.7-0.1,1.4-0.1,2.1-0.1c0.8,0,1.6,0.1,2.3,0.2v-1.6v-2.6V23.5    c0-3.4-2.8-6.2-6.2-6.2H25.5c-3.4,0-6.2,2.8-6.2,6.2v31.1v31.1c0,3.4,2.8,6.2,6.2,6.2h48.3c2.9,0,5.3-2,6-4.6    C79,87.4,78.3,87.4,77.6,87.4z"/>
</svg>
