<svg xmlns="http://www.w3.org/2000/svg" version="1.1" x="0px" y="0px" viewBox="0 0 100 100" style="enable-background:new 0 0 100 100;">
  <circle fill="#F4F4F4" cx="50" cy="50" r="50"/>
  <path fill="#FFFFFF" d="M28.7,81.9c-0.8,0-1.6-0.1-2.4-0.2c-8.1-1-14.7-6.7-16.8-14.6c-0.2-0.6-0.3-1.3-0.5-1.9L8.7,64v-5L9,58.4      c1.3-7,5.2-12.2,11.5-15.1c0.1-0.6,0.1-1.3,0.3-2C22.7,31.9,31,25,40.6,25c0.7,0,1.5,0,2.2,0.1c2.8-3,6.3-5.1,10.3-6.3      c0.8-0.2,1.6-0.4,2.4-0.5c0.3-0.1,0.6-0.1,0.9-0.2l0.4-0.1h4.9c0,0,0.9,0.2,1.2,0.3c0.7,0.1,1.4,0.3,2.1,0.5      c10.3,2.7,17.1,11.9,17,22.3c7.1,5.3,10.5,13.6,8.9,22.5C89.1,73.9,79.5,82,69.1,82H54.8C46.1,82,37.4,82,28.7,81.9z"/>
  <path fill="#999999" d="M12.7,63.5c0-1.3,0-2.5,0-3.8c0-0.1,0.1-0.2,0.1-0.3c1.1-6.6,4.8-11,11-13.3c0.4-0.2,0.5-0.4,0.5-0.8      c0.1-1.1,0.1-2.2,0.3-3.3c1.7-8.5,10-14.4,19-12.8c0.5,0.1,0.9,0,1.2-0.4c2.5-3.1,5.6-5.1,9.4-6.2c1-0.3,2-0.4,3-0.7      c1.4,0,2.7,0,4.1,0c0.9,0.2,1.8,0.3,2.7,0.6c9,2.4,14.8,10.8,13.9,20.1c0,0.2,0.2,0.5,0.4,0.6c6.9,4.4,10.1,11.6,8.7,19.5      C85.5,71.3,77.6,78,69.1,78c-13.5,0-26.9,0-40.4,0c-0.6,0-1.3,0-1.9-0.1C20.4,77,15,72.3,13.3,66.1      C13.1,65.2,12.9,64.4,12.7,63.5z M72.3,45.9c2.9-7.9-1.1-15.2-7.1-17.9c-3.1-1.4-6.4-1.7-9.7-0.7c-4.2,1.2-7.2,4-9,8      c-4.4-2.3-8.8-2.2-12.7,0.8c-4.7,3.6-5.7,8.5-3.7,14c-0.4,0-0.8-0.1-1.1-0.1c-7.9,0-13.5,8-11,15.4c1.7,4.9,6.1,7.9,11.6,7.9      c12.8,0,25.5,0,38.3,0c1.1,0,2.1-0.1,3.2-0.3c5.8-1.2,9.6-4.6,11-10.3s-0.4-10.6-4.9-14.3C75.8,47.2,74.1,46.4,72.3,45.9z"/>
</svg>
