<svg xmlns="http://www.w3.org/2000/svg" version="1.1" x="0px" y="0px" viewBox="0 0 100 100" style="enable-background:new 0 0 100 100;">
  <circle fill="#333333" cx="50" cy="50" r="50"/>
  <path fill="#121212" d="M56.1,82.2c-1.4,0-2.5-0.6-3.2-1.1l-2-1.3c-1.9-1.2-3.7-2.5-5.5-3.7c-2.8,1.9-5.2,3.5-7.6,5    c-0.9,0.6-2.2,1-3.2,1c-0.8,0-1.5-0.2-2.2-0.5c-1.9-1-2.6-3.2-2.6-4.7c0-2.1,0-4.1,0-6.2c0-1.8,0-3.6,0-5.4c0-1.9,0.8-3.4,2.3-4.6    c2.2-1.7,4.5-3.3,6.7-5c-3.5,1.9-7.1,3.7-10.6,5.6c-0.9,0.5-1.7,0.7-2.6,0.7c-1.1,0-2.1-0.3-3.1-1c-3-2-6-4-8.9-6L11,53.2    c-3.4-2.2-2.8-4.9-2.3-5.9c0.7-1.7,2.2-2.8,3.4-3.3c19.7-7.2,39.4-14.3,59.1-21.5l18.2-6.6c0.6-0.2,1.3-0.4,2.2-0.4    c1.5,0,2.8,0.7,3.8,1.9c1,1.2,1.8,3.3,0.1,6L60.4,79.5C59.3,81.3,57.8,82.2,56.1,82.2z"/>
  <path fill="#999999" d="M76.9,31.3c-0.3,0.2-0.6,0.3-0.9,0.5c-16.5,8.7-33.1,17.4-49.6,26.1c-0.7,0.4-1.2,0.3-1.9-0.1    c-3.8-2.6-7.6-5.1-11.4-7.6c-0.5-0.4-1.2-0.8-0.9-1.5c0.2-0.5,0.8-0.9,1.3-1.1C39.2,38.1,65,28.8,90.7,19.4    c0.7-0.2,1.3-0.4,1.8,0.2c0.5,0.6,0.2,1.2-0.2,1.8C80.7,40.1,69,58.8,57.3,77.6c-0.7,1.1-1.2,1.2-2.4,0.5c-3-2-5.9-3.9-8.9-5.9    c-0.5-0.4-0.9-0.4-1.4,0c-2.9,2-5.9,4-8.9,5.9c-0.4,0.3-1.2,0.5-1.6,0.3c-0.4-0.2-0.6-1-0.6-1.5c-0.1-3.9,0-7.7,0-11.6    c0-0.7,0.3-1.2,0.8-1.6c14-10.5,28-21,42-31.5c0.3-0.2,0.6-0.4,0.8-0.6C77,31.4,76.9,31.4,76.9,31.3z"/>
</svg>
