<svg xmlns="http://www.w3.org/2000/svg" version="1.1" x="0px" y="0px" viewBox="0 0 146.8 93.5" style="enable-background:new 0 0 146.8 93.5;">
  <path fill="#22A5D0" d="M22.5,4.9h101.7c4,0,7.3,3.3,7.3,7.3v69c0,4-3.3,7.3-7.3,7.3H22.5c-4,0-7.3-3.3-7.3-7.3v-69    C15.3,8.2,18.5,4.9,22.5,4.9z"/>
  <path fill="#FFFFFF" d="M34,34L22.5,59.4h13.7l1.7-4.1h3.9l1.7,4.1h15.1v-3.1l1.3,3.1h7.8l1.3-3.2v3.2h31.5l3.8-3.9l3.6,3.9l16.2,0    l-11.5-12.7L124.3,34h-15.9l-3.7,3.9l-3.5-3.9H66.9L64,40.6L61,34H47.3v3l-1.5-3L34,34z M36.7,37.6h6.7L51,54.9V37.6h7.3L64.2,50    l5.4-12.4h7.3v18.2h-4.4l0-14.3L66,55.9h-4l-6.5-14.3v14.3h-9.1l-1.7-4.1h-9.4l-1.7,4.1h-4.9L36.7,37.6z M81,37.6h18.1l5.5,6    l5.7-6h5.5l-8.4,9.2l8.4,9.1h-5.8l-5.5-6l-5.7,6H81L81,37.6L81,37.6z M39.9,40.7L36.9,48H43L39.9,40.7z M85.5,41.4v3.3h9.9v3.7    h-9.9v3.6h11.1l5.1-5.4l-4.9-5.3L85.5,41.4L85.5,41.4z"/>
  <rect fill="none" width="146.8" height="93.5"/>
</svg>
