<svg xmlns="http://www.w3.org/2000/svg" version="1.1" x="0px" y="0px" viewBox="0 0 146.8 93.5" style="enable-background:new 0 0 146.8 93.5;">
  <path fill-rule="evenodd" clip-rule="evenodd" fill="#4D4E4E" d="M10.5,25.4v54.4c0,4,3.3,7.3,7.3,7.3h100.7c13.8,0,17.7-4,17.7-8.9V13.6c0-4-3.3-7.3-7.3-7.3h-1.6H27.2h-9.4   c-4,0-7.3,3.3-7.3,7.3V25.4z"/>
  <path fill-rule="evenodd" clip-rule="evenodd" fill="#FFFFFF" d="M63.3,32.4c1.4,0,2.6,0.3,4.1,1v3.7c-1.4-1.3-2.6-1.8-4.2-1.8c-3.1,0-5.5,2.4-5.5,5.5c0,3.2,2.4,5.5,5.7,5.5   c1.5,0,2.7-0.5,4-1.8v3.7c-1.5,0.7-2.7,0.9-4.2,0.9c-5,0-9-3.6-9-8.3C54.2,36.2,58.3,32.4,63.3,32.4L63.3,32.4z M47.6,32.5   c1.9,0,3.6,0.6,5,1.8l-1.7,2.1c-0.9-0.9-1.7-1.3-2.7-1.3c-1.4,0-2.5,0.8-2.5,1.8c0,0.9,0.6,1.3,2.6,2c3.8,1.3,4.9,2.4,4.9,5   c0,3.1-2.4,5.2-5.9,5.2c-2.5,0-4.4-0.9-5.9-3l2.1-1.9c0.8,1.4,2,2.1,3.6,2.1c1.5,0,2.6-1,2.6-2.3c0-0.7-0.3-1.2-1-1.7   c-0.3-0.2-1-0.5-2.3-0.9c-3.1-1.1-4.2-2.2-4.2-4.4C42.3,34.5,44.6,32.5,47.6,32.5z M85.5,32.8h3.6l4.5,10.7l4.6-10.7h3.6l-7.3,16.4   h-1.8L85.5,32.8L85.5,32.8z M21.4,32.9h4.9c5.4,0,9.1,3.3,9.1,8c0,2.4-1.1,4.6-3.1,6.1c-1.6,1.3-3.5,1.8-6.1,1.8h-4.8L21.4,32.9   L21.4,32.9z M36.9,32.9h3.3v16h-3.3V32.9z M103.3,32.9h9.4v2.7h-6.1v3.5h5.9v2.7h-5.9v4.3h6.1v2.7h-9.4L103.3,32.9L103.3,32.9z    M114.9,32.9h4.9c3.8,0,6,1.7,6,4.7c0,2.4-1.4,4.1-3.9,4.5l5.3,6.7h-4.1l-4.6-6.4h-0.4v6.4h-3.3V32.9z M118.2,35.4v4.8h1   c2.1,0,3.2-0.9,3.2-2.5c0-1.6-1.1-2.4-3.2-2.4H118.2L118.2,35.4z M24.7,35.6v10.6h0.9c2.1,0,3.5-0.4,4.5-1.3c1.1-1,1.8-2.5,1.8-4   c0-1.5-0.7-3-1.8-4c-1.1-0.9-2.4-1.3-4.5-1.3L24.7,35.6L24.7,35.6z"/>
  <path fill-rule="evenodd" clip-rule="evenodd" fill="#F27321" d="M77.5,32.3c5,0,9,3.8,9,8.5v0c0,4.7-4,8.5-9,8.5c-5,0-9-3.8-9-8.5v0C68.4,36.1,72.5,32.3,77.5,32.3L77.5,32.3z    M136.3,52.8c-4.2,3-35.6,24.1-90.1,34.3h81.2h1.6c4,0,7.3-3.3,7.3-7.3V15L136.3,52.8z"/>
  <rect fill="none" width="146.8" height="93.5"/>
</svg>
