<svg xmlns="http://www.w3.org/2000/svg" version="1.1" x="0px" y="0px" viewBox="0 0 146.8 93.5" style="enable-background:new 0 0 146.8 93.5;">
  <rect x="57.8" y="18.8" fill="#F06022" width="31.1" height="55.9"/>
  <path fill="#E91D25" d="M59.8,46.7c0-11.4,5.3-21.4,13.5-28c-6-4.7-13.6-7.6-21.9-7.6c-19.7,0-35.6,15.9-35.6,35.6    s15.9,35.6,35.6,35.6c8.3,0,15.9-2.9,21.9-7.6C65.2,68.3,59.8,58.1,59.8,46.7z"/>
  <path fill="#F59D1E" d="M131,46.7c0,19.7-15.9,35.6-35.6,35.6c-8.3,0-15.9-2.9-21.9-7.6c8.3-6.5,13.5-16.6,13.5-28s-5.3-21.4-13.5-28    c6-4.7,13.6-7.6,21.9-7.6C115.1,11.2,131,27.2,131,46.7z"/>
  <rect fill="none" width="146.8" height="93.5"/>
</svg>
