<svg xmlns="http://www.w3.org/2000/svg" version="1.1" x="0px" y="0px" viewBox="0 0 146.8 93.5" style="enable-background:new 0 0 146.8 93.5;">
  <path d="M36.4,91.7v-6c0-2.3-1.4-3.8-3.8-3.8c-1.2,0-2.5,0.4-3.4,1.7c-0.7-1.1-1.7-1.7-3.2-1.7c-1,0-2,0.3-2.8,1.4v-1.2h-2.1v9.6    h2.1v-5.3c0-1.7,0.9-2.5,2.3-2.5s2.1,0.9,2.1,2.5v5.3h2.1v-5.3c0-1.7,1-2.5,2.3-2.5c1.4,0,2.1,0.9,2.1,2.5v5.3H36.4L36.4,91.7z     M67.5,82.1h-3.4v-2.9H62v2.9h-1.9V84H62v4.4c0,2.2,0.9,3.5,3.3,3.5c0.9,0,1.9-0.3,2.6-0.7l-0.6-1.8c-0.6,0.4-1.3,0.5-1.8,0.5    c-1,0-1.4-0.6-1.4-1.6V84h3.4V82.1L67.5,82.1z M85.2,81.9c-1.2,0-2,0.6-2.5,1.4v-1.2h-2.1v9.6h2.1v-5.4c0-1.6,0.7-2.5,2-2.5    c0.4,0,0.9,0.1,1.3,0.2l0.6-2C86.2,81.9,85.6,81.9,85.2,81.9L85.2,81.9L85.2,81.9z M58.4,82.9c-1-0.7-2.4-1-3.9-1    c-2.4,0-4,1.2-4,3.1c0,1.6,1.2,2.5,3.3,2.8l1,0.1c1.1,0.2,1.7,0.5,1.7,1c0,0.7-0.8,1.2-2.2,1.2c-1.4,0-2.5-0.5-3.2-1l-1,1.6    c1.1,0.8,2.6,1.2,4.1,1.2c2.8,0,4.4-1.3,4.4-3.1c0-1.7-1.3-2.6-3.3-2.9l-1-0.1c-0.9-0.1-1.6-0.3-1.6-0.9c0-0.7,0.7-1.1,1.8-1.1    c1.2,0,2.4,0.5,3,0.8L58.4,82.9L58.4,82.9z M114.1,81.9c-1.2,0-2,0.6-2.5,1.4v-1.2h-2.1v9.6h2.1v-5.4c0-1.6,0.7-2.5,2-2.5    c0.4,0,0.9,0.1,1.3,0.2l0.6-2C115.1,81.9,114.5,81.9,114.1,81.9L114.1,81.9L114.1,81.9z M87.3,86.9c0,2.9,2,5,5.1,5    c1.4,0,2.4-0.3,3.4-1.1l-1-1.7C94,89.7,93.2,90,92.3,90c-1.7,0-2.9-1.2-2.9-3.1c0-1.8,1.2-3,2.9-3.1c0.9,0,1.7,0.3,2.5,0.9l1-1.7    c-1-0.8-2-1.1-3.4-1.1C89.3,81.9,87.3,84,87.3,86.9L87.3,86.9L87.3,86.9z M106.7,86.9v-4.8h-2.1v1.2c-0.7-0.9-1.7-1.4-3-1.4    c-2.7,0-4.8,2.1-4.8,5c0,2.9,2.1,5,4.8,5c1.4,0,2.4-0.5,3-1.4v1.2h2.1V86.9z M99,86.9c0-1.7,1.1-3.1,2.9-3.1    c1.7,0,2.9,1.3,2.9,3.1c0,1.7-1.2,3.1-2.9,3.1C100.1,89.9,99,88.6,99,86.9L99,86.9z M74,81.9c-2.8,0-4.8,2-4.8,5c0,3,2,5,4.9,5    c1.4,0,2.8-0.4,3.9-1.3l-1-1.5c-0.8,0.6-1.8,1-2.8,1c-1.3,0-2.6-0.6-2.9-2.3h7.1V87C78.5,83.9,76.7,81.9,74,81.9L74,81.9L74,81.9z     M74,83.7c1.3,0,2.2,0.8,2.4,2.3h-5C71.6,84.7,72.5,83.7,74,83.7L74,83.7z M126,86.9v-8.6h-2.1v5c-0.7-0.9-1.7-1.4-3-1.4    c-2.7,0-4.8,2.1-4.8,5c0,2.9,2.1,5,4.8,5c1.4,0,2.4-0.5,3-1.4v1.2h2.1V86.9z M118.3,86.9c0-1.7,1.1-3.1,2.9-3.1    c1.7,0,2.9,1.3,2.9,3.1c0,1.7-1.2,3.1-2.9,3.1C119.4,89.9,118.3,88.6,118.3,86.9L118.3,86.9z M48.2,86.9v-4.8h-2.1v1.2    c-0.7-0.9-1.7-1.4-3-1.4c-2.7,0-4.8,2.1-4.8,5c0,2.9,2.1,5,4.8,5c1.4,0,2.4-0.5,3-1.4v1.2h2.1V86.9z M40.4,86.9    c0-1.7,1.1-3.1,2.9-3.1c1.7,0,2.9,1.3,2.9,3.1c0,1.7-1.2,3.1-2.9,3.1C41.5,89.9,40.4,88.6,40.4,86.9z"/>
  <rect x="57.7" y="9.3" fill="#F06022" width="31.5" height="56.5"/>
  <path fill="#E91D25" d="M59.7,37.5c0-11.5,5.4-21.7,13.7-28.3c-6.1-4.8-13.8-7.7-22.2-7.7c-19.9,0-36,16.1-36,36s16.1,36,36,36    c8.4,0,16.1-2.9,22.2-7.7C65.1,59.3,59.7,49,59.7,37.5z"/>
  <path fill="#F59D1E" d="M131.6,37.5c0,19.9-16.1,36-36,36c-8.4,0-16.1-2.9-22.2-7.7c8.4-6.6,13.7-16.8,13.7-28.3S81.7,15.9,73.5,9.3    c6.1-4.8,13.8-7.7,22.2-7.7C115.5,1.6,131.6,17.8,131.6,37.5z"/>
  <rect fill="none" width="146.8" height="93.5"/>
</svg>
