<svg xmlns="http://www.w3.org/2000/svg" version="1.1" x="0px" y="0px" viewBox="0 0 146.8 93.5" style="enable-background:new 0 0 146.8 93.5;">
  <rect fill="none" width="146.8" height="93.5"/>
  <path fill="#184893" d="M17,6.5h112.7c3.6,0,6.4,2.9,6.4,6.4v67.6c0,3.6-2.9,6.4-6.4,6.4H17c-3.6,0-6.4-2.9-6.4-6.4V12.9    C10.6,9.4,13.5,6.5,17,6.5z"/>
  <path fill="#FFFFFF" d="M57.8,62.6l5.4-31.5h8.6l-5.4,31.5H57.8z M97.5,31.8c-1.7-0.6-4.4-1.3-7.7-1.3c-8.5,0-14.5,4.3-14.5,10.4    c0,4.5,4.3,7.1,7.5,8.6c3.3,1.5,4.5,2.5,4.5,3.9c0,2.1-2.7,3.1-5.1,3.1c-3.4,0-5.3-0.5-8.1-1.7l-1.1-0.5l-1.2,7.1    c2,0.9,5.7,1.6,9.6,1.7c9,0,14.9-4.2,15-10.8c0-3.6-2.3-6.3-7.2-8.6c-3-1.5-4.8-2.4-4.8-3.9c0-1.3,1.6-2.7,4.9-2.7    c2.8,0,4.8,0.6,6.4,1.2l0.8,0.4L97.5,31.8 M119.6,31.1h-6.6c-2.1,0-3.6,0.6-4.5,2.6L95.7,62.6h9c0,0,1.5-3.9,1.8-4.7    c1,0,9.8,0,11,0c0.3,1.1,1,4.7,1,4.7h8L119.6,31.1L119.6,31.1z M109,51.5c0.7-1.8,3.4-8.8,3.4-8.8c-0.1,0.1,0.7-1.8,1.1-3l0.6,2.7    c0,0,1.6,7.5,2,9.1H109z M50.5,31.1l-8.4,21.5l-0.9-4.4c-1.6-5-6.4-10.5-11.9-13.2L37,62.6l9.1,0l13.5-31.5L50.5,31.1"/>
  <path fill="#F1AE1D" d="M34.3,31.1H20.4l-0.1,0.7c10.8,2.6,17.9,8.9,20.9,16.5l-3-14.5C37.6,31.8,36.1,31.2,34.3,31.1"/>
</svg>
