<svg xmlns="http://www.w3.org/2000/svg" version="1.1" x="0px" y="0px" viewBox="0 0 180 180" style="enable-background:new 0 0 180 180;">
  <path fill="#FFFFFF" stroke="#1E8BCB" stroke-width="2" d="M11.39,10h157.23c0.77,0,1.39,0.62,1.39,1.39v157.23c0,0.77-0.62,1.39-1.39,1.39H11.39   c-0.77,0-1.39-0.62-1.39-1.39V11.39C10,10.62,10.62,10,11.39,10z"/>
  <path fill="#084A70" d="M46.64,26.85c-0.39-0.02-0.79,0.06-1.14,0.23c-0.35,0.17-0.66,0.43-0.89,0.75c-0.53,0.81-0.78,1.77-0.72,2.74   c0,2.44,0.92,3.66,2.75,3.66c0.96-0.04,1.9-0.23,2.79-0.58v1.95c-0.96,0.38-1.98,0.57-3.01,0.56c-1.59,0-2.81-0.48-3.65-1.45   s-1.27-2.35-1.27-4.16c-0.02-1.03,0.2-2.04,0.63-2.97c0.38-0.82,1.01-1.51,1.79-1.97c0.83-0.48,1.77-0.72,2.72-0.71   c1.11,0.01,2.21,0.28,3.2,0.77l-0.74,1.9c-0.4-0.19-0.81-0.36-1.24-0.51C47.47,26.93,47.06,26.85,46.64,26.85z"/>
  <path fill="#084A70" d="M58.53,36.02h-6.3V25.07h6.3v1.91h-4v2.4h3.71v1.9h-3.71v2.82h3.99L58.53,36.02z"/>
  <path fill="#084A70" d="M63.59,31.82v4.2h-2.32V25.07h3.19c1.48,0,2.59,0.27,3.3,0.81c0.57,0.52,0.94,1.22,1.04,1.99   c0.1,0.77-0.08,1.54-0.5,2.19c-0.39,0.53-0.91,0.93-1.51,1.18c1.65,2.46,2.72,4.05,3.22,4.77h-2.58l-2.63-4.2H63.59z M63.59,29.93   h0.75c0.56,0.04,1.13-0.09,1.62-0.37c0.18-0.13,0.32-0.31,0.41-0.51c0.09-0.2,0.13-0.42,0.11-0.64c0.02-0.22-0.02-0.43-0.12-0.63   c-0.09-0.19-0.24-0.36-0.42-0.48c-0.51-0.25-1.09-0.37-1.66-0.33h-0.7V29.93z"/>
  <path fill="#084A70" d="M76.07,36.02h-2.32V27h-2.97v-1.93h8.27V27h-2.97L76.07,36.02z"/>
  <path fill="#084A70" d="M81.19,36.02V25.07h2.32v10.95H81.19z"/>
  <path fill="#084A70" d="M89,36.02h-2.28V25.07h6.27v1.91H89v2.8h3.71v1.9H89V36.02z"/>
  <path fill="#084A70" d="M95.6,36.02V25.07h2.32v10.95H95.6z"/>
  <path fill="#084A70" d="M105.77,26.85c-0.39-0.02-0.79,0.06-1.14,0.23c-0.35,0.17-0.66,0.43-0.89,0.75c-0.52,0.81-0.78,1.77-0.72,2.74   c0,2.44,0.92,3.66,2.75,3.66c0.96-0.04,1.9-0.23,2.79-0.58v1.95c-0.96,0.38-1.98,0.57-3.01,0.56c-1.59,0-2.81-0.48-3.65-1.45   c-0.84-0.97-1.27-2.35-1.27-4.16c-0.02-1.03,0.2-2.04,0.63-2.97c0.38-0.82,1.01-1.51,1.79-1.97c0.83-0.48,1.77-0.72,2.72-0.71   c1.11,0.01,2.21,0.28,3.2,0.77l-0.74,1.9c-0.4-0.19-0.81-0.36-1.24-0.51C106.6,26.93,106.19,26.85,105.77,26.85z"/>
  <path fill="#084A70" d="M118.05,36.02l-0.79-2.63h-3.99l-0.79,2.63h-2.5l3.86-10.99h2.84l3.88,10.99H118.05z M116.72,31.47   c-0.74-2.36-1.15-3.7-1.24-4.01c-0.09-0.31-0.16-0.55-0.2-0.73c-0.16,0.64-0.63,2.22-1.41,4.74H116.72z"/>
  <path fill="#084A70" d="M126.61,36.02h-2.32V27h-2.97v-1.93h8.26V27h-2.97V36.02z"/>
  <path fill="#084A70" d="M138.03,36.02h-6.3V25.07h6.3v1.91h-3.98v2.4h3.69v1.9h-3.71v2.82h3.98L138.03,36.02z"/>
  <path fill="#1E8BCB" d="M140.02,112.22H39.98c-0.35,0-0.68-0.14-0.93-0.38c-0.25-0.25-0.38-0.58-0.38-0.93s0.14-0.68,0.38-0.93   c0.25-0.25,0.58-0.38,0.93-0.38h100.04c0.35,0,0.68,0.14,0.93,0.38c0.25,0.25,0.38,0.58,0.38,0.93s-0.14,0.68-0.38,0.93   C140.71,112.09,140.37,112.22,140.02,112.22z"/>
  <path fill="#1E8BCB" d="M141.8,152.92H38.2c-1.48,0-2.89-0.59-3.94-1.63c-1.04-1.05-1.63-2.46-1.63-3.94v-86.7   c0-1.48,0.59-2.89,1.63-3.94c1.04-1.04,2.46-1.63,3.94-1.63H141.8c1.48,0,2.89,0.59,3.94,1.63c1.04,1.04,1.63,2.46,1.63,3.94v86.72   c-0.01,1.47-0.6,2.88-1.64,3.92C144.69,152.34,143.28,152.92,141.8,152.92z M38.2,57.71c-0.78,0-1.53,0.31-2.08,0.86   c-0.55,0.55-0.86,1.3-0.86,2.08v86.72c0,0.78,0.31,1.53,0.86,2.08c0.55,0.55,1.3,0.86,2.08,0.86H141.8c0.78,0,1.53-0.31,2.08-0.86   c0.55-0.55,0.86-1.3,0.86-2.08V60.65c0-0.78-0.31-1.53-0.86-2.08c-0.55-0.55-1.3-0.86-2.08-0.86H38.2z"/>
  <path fill="#084A70" d="M126.62,77.82h-0.08c-24.3-2.29-48.77-2.29-73.07,0c-0.23,0.02-0.46-0.05-0.64-0.2   c-0.18-0.15-0.29-0.36-0.31-0.6c-0.02-0.23,0.05-0.46,0.2-0.64c0.15-0.18,0.36-0.29,0.6-0.31c24.41-2.3,48.98-2.3,73.39,0   c0.12,0.01,0.23,0.03,0.33,0.08c0.1,0.05,0.2,0.12,0.28,0.2c0.08,0.08,0.14,0.18,0.18,0.29c0.04,0.11,0.06,0.22,0.05,0.34   c-0.01,0.12-0.03,0.23-0.08,0.33c-0.05,0.1-0.12,0.2-0.2,0.28c-0.08,0.08-0.18,0.14-0.29,0.18   C126.85,77.81,126.74,77.82,126.62,77.82z"/>
  <path fill="#084A70" d="M123.81,88.87H56.2c-0.23,0-0.46-0.09-0.62-0.26c-0.16-0.16-0.26-0.39-0.26-0.62c0-0.23,0.09-0.46,0.26-0.62   c0.16-0.16,0.39-0.26,0.62-0.26h67.61c0.23,0,0.46,0.09,0.62,0.26c0.16,0.16,0.26,0.39,0.26,0.62c0,0.23-0.09,0.46-0.26,0.62   C124.26,88.78,124.04,88.87,123.81,88.87z"/>
  <path fill="#084A70" d="M90,126.9H56.2c-0.23,0-0.46-0.09-0.62-0.26c-0.16-0.16-0.26-0.39-0.26-0.62c0-0.23,0.09-0.46,0.26-0.62   c0.16-0.16,0.39-0.26,0.62-0.26H90c0.23,0,0.46,0.09,0.62,0.26s0.26,0.39,0.26,0.62c0,0.23-0.09,0.46-0.26,0.62   C90.46,126.8,90.23,126.9,90,126.9z"/>
  <path fill="#084A70" d="M90,132.8H56.2c-0.23,0-0.46-0.09-0.62-0.26c-0.16-0.16-0.26-0.39-0.26-0.62c0-0.23,0.09-0.46,0.26-0.62   c0.16-0.16,0.39-0.26,0.62-0.26H90c0.23,0,0.46,0.09,0.62,0.26c0.16,0.16,0.26,0.39,0.26,0.62c0,0.23-0.09,0.46-0.26,0.62   S90.23,132.8,90,132.8z"/>
  <path fill="#084A70" d="M123.81,95.94H56.2c-0.23,0-0.46-0.09-0.62-0.26c-0.16-0.16-0.26-0.39-0.26-0.62s0.09-0.46,0.26-0.62   c0.16-0.16,0.39-0.26,0.62-0.26h67.61c0.23,0,0.46,0.09,0.62,0.26c0.16,0.16,0.26,0.39,0.26,0.62s-0.09,0.46-0.26,0.62   C124.26,95.84,124.04,95.94,123.81,95.94z"/>
  <path fill="#084A70" d="M122.76,146.09c-1.69,0-2.82-1.09-3.57-1.81c-0.18-0.17-0.32-0.3-0.41-0.38c-0.2,0-0.47,0.05-0.59,0.07   c-1.09,0.14-2.56,0.34-3.89-0.62c-1.33-0.96-1.6-2.44-1.8-3.5c-0.02-0.11-0.07-0.39-0.12-0.58c-0.16-0.1-0.39-0.22-0.5-0.28   c-0.97-0.52-2.29-1.22-2.81-2.81c-0.12-0.37-0.18-0.76-0.18-1.15c0.05-0.94,0.31-1.86,0.78-2.69c0.07-0.14,0.2-0.44,0.28-0.6   c-0.05-0.13-0.14-0.32-0.27-0.59c-0.46-0.83-0.73-1.75-0.78-2.7c0-0.39,0.06-0.78,0.18-1.15c0.51-1.59,1.84-2.29,2.8-2.81   c0.11-0.06,0.35-0.18,0.51-0.28c0.03-0.13,0.07-0.32,0.11-0.58c0.2-1.07,0.46-2.54,1.8-3.5c1.34-0.96,2.8-0.77,3.88-0.63   c0.11,0,0.4,0.05,0.6,0.07c0.14-0.12,0.32-0.3,0.4-0.38c0.75-0.72,1.88-1.81,3.57-1.81c1.69,0,2.77,1.04,3.56,1.8   c0.18,0.17,0.32,0.3,0.41,0.39c0.14,0,0.33-0.04,0.59-0.07c1.08-0.14,2.55-0.35,3.88,0.63c1.33,0.97,1.6,2.43,1.8,3.5   c0.03,0.14,0.07,0.4,0.11,0.58c0.17,0.1,0.41,0.23,0.5,0.28c0.97,0.52,2.29,1.23,2.81,2.82c0.12,0.37,0.18,0.76,0.18,1.15   c-0.05,0.95-0.32,1.87-0.78,2.7c-0.07,0.13-0.2,0.41-0.27,0.59c0.07,0.18,0.21,0.47,0.27,0.59c0.47,0.83,0.73,1.75,0.78,2.7   c0,0.39-0.06,0.78-0.18,1.15c-0.52,1.59-1.89,2.33-2.81,2.81c-0.11,0.06-0.35,0.18-0.5,0.28c-0.04,0.19-0.09,0.47-0.11,0.58   c-0.19,1.07-0.46,2.54-1.8,3.5s-2.8,0.77-3.87,0.62c-0.13,0-0.41-0.05-0.6-0.07c-0.14,0.12-0.33,0.31-0.41,0.38   C125.53,145.04,124.44,146.09,122.76,146.09z M118.93,142.15c0.12,0,0.25,0.01,0.37,0.04c0.04,0.01,0.07,0.02,0.11,0.04   c0.37,0.21,0.71,0.48,0.99,0.8c0.61,0.59,1.37,1.31,2.35,1.31c0.98,0,1.68-0.67,2.35-1.31c0.28-0.31,0.61-0.58,0.98-0.79l0.11-0.04   c0.45-0.07,0.91-0.05,1.35,0.04c0.92,0.13,1.87,0.25,2.63-0.3c0.76-0.55,0.94-1.5,1.1-2.41c0.04-0.44,0.16-0.87,0.35-1.27   c0.02-0.04,0.05-0.07,0.07-0.1c0.32-0.3,0.68-0.54,1.08-0.72c0.75-0.4,1.68-0.88,1.98-1.81c0.06-0.2,0.09-0.4,0.09-0.61   c-0.06-0.68-0.26-1.35-0.61-1.94c-0.24-0.4-0.4-0.85-0.47-1.31c0.06-0.48,0.22-0.94,0.46-1.36c0.35-0.6,0.56-1.26,0.62-1.95   c0-0.21-0.03-0.41-0.09-0.61c-0.3-0.92-1.15-1.37-1.97-1.81c-0.4-0.17-0.77-0.41-1.09-0.71c-0.02-0.03-0.05-0.06-0.07-0.09   c-0.2-0.4-0.32-0.82-0.36-1.27c-0.17-0.93-0.34-1.87-1.1-2.43c-0.77-0.56-1.71-0.44-2.63-0.31c-0.44,0.1-0.9,0.12-1.34,0.05   c-0.04-0.01-0.08-0.02-0.12-0.04c-0.37-0.21-0.71-0.48-0.99-0.8c-0.67-0.64-1.37-1.31-2.35-1.31c-0.98,0-1.75,0.73-2.35,1.31   c-0.28,0.31-0.61,0.58-0.98,0.79l-0.12,0.04c-0.45,0.07-0.92,0.05-1.37-0.05c-0.91-0.12-1.85-0.25-2.63,0.31   c-0.78,0.56-0.94,1.5-1.1,2.41c-0.04,0.44-0.16,0.87-0.35,1.27c0,0.03-0.04,0.06-0.07,0.09c-0.31,0.3-0.68,0.54-1.08,0.71   c-0.84,0.44-1.69,0.9-1.98,1.82c-0.06,0.2-0.09,0.41-0.09,0.61c0.06,0.68,0.26,1.35,0.6,1.94c0.24,0.4,0.41,0.85,0.48,1.31   c-0.06,0.48-0.22,0.94-0.47,1.36c-0.35,0.6-0.56,1.26-0.61,1.95c0,0.21,0.03,0.41,0.09,0.61c0.3,0.92,1.14,1.37,1.96,1.81   c0.4,0.17,0.77,0.41,1.09,0.71c0.03,0.03,0.05,0.07,0.07,0.1c0.2,0.4,0.32,0.84,0.36,1.28c0.17,0.91,0.33,1.85,1.1,2.41   c0.77,0.56,1.7,0.44,2.63,0.31C118.27,142.18,118.6,142.15,118.93,142.15L118.93,142.15z"/>
</svg>
