<svg xmlns="http://www.w3.org/2000/svg" version="1.1" x="0px" y="0px" viewBox="0 0 595.1 57.9" style="enable-background:new 0 0 595.1 57.9;">
  <path fill="#0078C1" d="M246.3,0c-1,0-1.8,0.8-1.8,1.8v12.9h34L262.9,0H246.3z"/>
  <path fill="#0078C1" d="M265,50.7l14.7-15.5l0-16.7c0-1-0.8-1.8-1.8-1.8H265V50.7"/>
  <polyline fill="#0078C1" points="262.9,50.1 262.9,37.3 228.9,37.3 244.4,52 "/>
  <path fill="#0078C1" d="M227.7,33.4c0,1,0.8,1.8,1.8,1.8h12.9v-34l-14.7,15.5L227.7,33.4z"/>
  <polygon points="71.9,6.2 71.9,21.9 50,21.9 50,6.2 42.1,6.2 42.1,45.8 50,45.8 50,28.8 71.9,28.8 71.9,45.8 79.9,45.8 79.9,6.2 "/>
  <polygon points="177.8,6.2 177.8,45.8 212.8,45.8 208.4,38.8 185.8,38.8 185.8,28.8 207.6,28.8 207.6,22.1 185.8,22.1 185.8,13   208.3,13 212.7,6.2 "/>
  <path d="M12.5,6.2C4.2,6.2,0,11.2,0,18.6v14.8c0,8.5,5.4,12.4,12.4,12.4l25,0l-4.6-7.2H14c-4,0-5.7-1.4-5.7-5.9V19.2   c0-4.3,1.5-6,5.8-6H33l4.4-7H12.5z"/>
  <path d="M142.9,6.2c-4.8,0-9.7,2.9-9.7,10.3v1.9c0,7.7,4.7,10.6,9.4,10.7h16.6c1.7,0,3.1,0.3,3.1,3.2l0,3.4c0,2.6-1.3,3.2-3.2,3.2   h-21.8l-4.5,7h26.8c6.5,0,10.8-3.2,10.8-10.6v-2.7c0-7.2-4.1-10.6-10.4-10.6h-15.8c-1.8,0-3-0.5-3-3.1c0,0,0-2.7,0-2.7   c0-2.2,0.8-3,2.9-3l20.7,0l4.3-6.8L142.9,6.2z"/>
  <path d="M106.9,14.4l7.2,16.4H99.8L106.9,14.4z M103,6.2L84.3,45.8h8.9l3.7-8.2h20.4l3.6,8.2h8.9L110.9,6.2H103z"/>
  <path fill="#939598" d="M306.1,14.3h-1.6v11.9h1.7c4.5,0,6.6-2.3,6.6-6.1C312.8,16.9,310.6,14.3,306.1,14.3 M305.9,32.4h-1.4v12.3h-7.6  V8.1h10c8.1,0,13.5,4.1,13.5,12.2C320.4,25.6,316.8,32.4,305.9,32.4"/>
  <path fill="#939598" d="M336.2,32.8l-3.3,0.1c-3.2,0.1-4.8,1.2-4.8,3.2c0,2,1.5,3.3,4,3.3c2,0,3.3-0.7,4.1-1.2V32.8z M338.1,44.7  l-1.2-2.3c-1.7,1.6-4.1,2.8-7.5,2.8c-5,0-8.8-3.3-8.8-8.6c0-5.6,4.5-8.5,11.2-8.7l4.4-0.2v-0.4c0-2.8-2.2-3.9-4.9-3.9  c-2.6,0-4.8,0.8-6.6,1.8l-2.3-4.6c3.6-2.3,7.1-2.9,10.6-2.9c7,0,10.9,2.8,10.9,9.8v11.2c0,2.6,0.1,4.6,0.4,6H338.1z"/>
  <path fill="#939598" d="M350.1,51.8c2.4,0,4.7-1.7,6.7-7.4l-12.1-26h8l7.8,17.7h0.1l6.1-17.7h7.5L364,45.2  c-4.3,11.3-8.6,12.6-13.4,12.6"/>
  <path fill="#939598" d="M410.5,44.7V29.2c0-2.8-0.4-5-3.7-5c-2,0-4.1,0.9-5.7,2.2v0.7v17.6h-7.5V29.3c0-2.8-0.4-5.1-3.6-5.1  c-2,0-4.1,0.9-5.7,2.2v18.4h-7.5V18.4h6.3l0.7,2.8c2.7-2.1,5.7-3.4,8.8-3.4c3.3,0,5.7,1.4,7,3.8c3.1-2.6,6.6-3.8,9.3-3.8  c4.7,0,9,2.2,9,9.4v17.5H410.5z"/>
  <path fill="#939598" d="M433.2,23.3c-3,0-4.7,2.8-4.7,5.2h9.5C437.8,26,436.4,23.3,433.2,23.3 M428.7,33.7c0.2,3.6,3.5,5.7,7,5.7  c2.6,0,4.5-0.5,7.1-1.8l1.7,4.8c-3.3,2.2-6.9,3-10,3c-9.5,0-13.4-6.7-13.4-13.6c0-7.4,4.5-13.9,12.4-13.9c7.2,0,12.2,5.4,12.2,13.6  v2.3H428.7z"/>
  <path fill="#939598" d="M466.5,44.7V29.5c0-2.5-0.6-5.3-3.7-5.3c-2.1,0-4.1,0.9-6.2,2.3v18.2h-7.6V18.4h6.4l0.8,2.8  c2.8-2.1,5.7-3.4,9.2-3.4c4.1,0,8.5,2.3,8.5,9.5v17.4H466.5z"/>
  <path fill="#939598" d="M488,45.3c-5.3,0-7.2-2.8-7.2-6.3V24H476v-5.6h4.8v-6.1l7.5-2.2v8.3h8.2l-2.2,5.6h-6.1v12.6  c0,1.8,0.8,2.7,2.6,2.7c1.5,0,3.2-0.6,4.2-1.1l1.7,5C494.2,44.7,491.3,45.3,488,45.3"/>
  <path fill="#939598" d="M509.4,23.3c-3,0-4.7,2.8-4.7,5.2h9.5C514,26,512.6,23.3,509.4,23.3 M504.9,33.7c0.2,3.6,3.5,5.7,7,5.7  c2.6,0,4.5-0.5,7.1-1.8l1.7,4.8c-3.3,2.2-6.9,3-10,3c-9.4,0-13.3-6.7-13.3-13.6c0-7.4,4.5-13.9,12.3-13.9c7.2,0,12.2,5.4,12.2,13.6  v2.3H504.9z"/>
  <path fill="#939598" d="M538,45.3c-8.7,0-13.2-6.2-13.2-13.6c0-8.3,6.3-13.8,13.9-13.8c4,0,6.3,0.9,7.7,1.9l-0.1,6  c-1.9-1.5-3.9-2.2-6.5-2.2c-4.2,0-7.5,3.2-7.5,7.8c0,4.1,2.2,8,7.3,8c2.4,0,4.2-0.7,6.1-1.8l1.8,4.8C545.5,43.9,541.7,45.3,538,45.3  "/>
  <path fill="#939598" d="M567.6,44.7v-15c0-2.8-0.4-5.4-3.8-5.4c-2,0-4.2,1-5.8,2.4v18h-7.6V5.3h7.6v15.9c2.3-1.9,5.2-3.4,8.6-3.4  c4.1,0,8.6,1.8,8.6,9.7v17.2H567.6z"/>
  <polygon points="582.7,6.2 579.9,6.2 579.9,14.9 578.9,14.9 578.9,6.2 576.1,6.2 576.1,5.2 583.1,5.2 "/>
  <path d="M592.4,14.9v-7c0-0.4,0-0.5,0-1h0c-0.2,0.5-0.3,0.7-0.5,1l-2.6,4.2h-0.7l-2.7-4.2c-0.2-0.2-0.3-0.5-0.5-1h0  c0.1,0.5,0.1,0.7,0.1,1v7h-1.1V5.2h1.1l3.1,4.6c0.2,0.4,0.4,0.6,0.5,0.8h0c0.1-0.2,0.2-0.5,0.5-0.8l2.9-4.6h1.1v9.7H592.4z"/>
</svg>
