<svg xmlns="http://www.w3.org/2000/svg" version="1.1" x="0px" y="0px" viewBox="0 0 418.7 83.7" style="enable-background:new 0 0 418.7 83.7;">
  <path fill="#333333" d="M414.2,5.7c-2.8,0-4.6,1.3-5.2,3.8c-1,4.2-2.1,9.1-3.2,14.8c-1.2,5.7-2.1,10.8-2.8,15.3l-0.1,0.5   c0,0.8,0.3,1.3,0.8,1.7c0.5,0.4,1.2,0.5,2,0.5c1.6,0,2.7-0.6,3.1-1.9c1.6-4.4,3.2-9.7,4.9-15.7c1.7-6,3.1-11.2,4.1-15.4   c0.1-0.4,0.2-0.8,0.2-1.2C418.1,6.5,416.8,5.7,414.2,5.7z"/>
  <path fill="#333333" d="M309.8,24.5c1.7,0,3.1-0.5,4.1-1.4c1-1,1.6-2.2,1.6-3.8c0-1.3-0.5-2.3-1.4-3.1s-2.1-1.1-3.6-1.1   c-1.6,0-3,0.5-4.1,1.4c-1.1,0.9-1.6,2.1-1.6,3.5c0,1.4,0.4,2.5,1.3,3.3C306.9,24.1,308.1,24.5,309.8,24.5z"/>
  <path fill="#333333" d="M403.9,45.5c-1.8,0-3.3,0.5-4.3,1.6c-1,1.1-1.5,2.5-1.5,4.3c0,1.6,0.4,2.8,1.3,3.8c0.9,1,2.3,1.4,4,1.4   c1.8,0,3.2-0.5,4.3-1.6c1-1.1,1.6-2.6,1.6-4.4c0-1.7-0.5-2.9-1.4-3.8C407,46,405.7,45.5,403.9,45.5z"/>
  <path fill="#333333" d="M390.1,40.1c-0.9-1.1-1.5-2-2-2.7c-0.4-0.7-0.6-1.4-0.6-2c0-1,0.4-2.2,1.1-3.7c0.3-0.5,0.5-1,0.7-1.6   c0.2-0.5,0.2-0.9,0.2-1.1c0-0.4-0.2-0.8-0.7-1c-0.4-0.2-1.2-0.3-2.3-0.3c-2.4,0-4,0.9-4.7,2.6c-1.2,2.8-2.2,4.9-2.9,6.5   c-0.7,1.6-1.4,3-2.2,4.1c-1.1,1.7-2.6,3.7-4.6,6.2c-0.5,0.5-0.9,1-1.3,1.3c-1.1,1-2,1.4-2.8,1.4c-1.2,0-1.7-0.8-1.7-2.4   c0-1.1,0.4-3.4,1.1-6.9c0.9-4.1,1.3-6.9,1.3-8.5c0-2.6-1.3-3.9-3.9-3.9c-1.3,0-2.8,0.5-4.4,1.4c-1.6,0.9-3.2,2.5-4.8,4.6   c-1.6,2.2-3.1,5-4.4,8.4c0.2-1.8,0.4-3.2,0.6-4.4c0.2-1.2,0.6-2.6,1-4.2c0.6-2.2,0.9-3.7,0.9-4.3c0-0.6-0.2-0.9-0.5-1.1   c-0.3-0.2-0.9-0.3-1.7-0.3c-1.5,0-2.6,0.3-3.5,0.8c-0.8,0.5-1.4,1.4-1.7,2.5c-0.7,2.2-1.2,4.5-1.6,6.8c-1.8,0.4-3.4,0.6-4.8,0.7   c-0.3-3.1-1.4-5.7-3.3-7.7c-1.8-2.1-4.3-3.2-7.3-3.2c-2.5,0-4.7,0.7-6.8,2c-2,1.3-3.6,3.2-4.8,5.6c-1.2,2.4-1.7,5.1-1.7,8.1   c0,0.8,0.1,1.6,0.2,2.4c-0.8,0.9-1.5,1.6-2.1,2.1c-1.1,1-2,1.5-2.7,1.5c-0.8,0-1.3-0.3-1.6-1c-0.3-0.6-0.5-1.6-0.5-2.8   c0-1.6,0.5-4.5,1.4-8.9c0.8-3.6,1.1-6,1.1-7c0-1.4-1-2-3.1-2c-1.3,0-2.3,0.2-2.9,0.7c-0.6,0.5-1.1,1.4-1.4,2.6   c-0.7,2.4-1.3,5.1-1.8,7.9c-0.4,2.3-0.6,4.3-0.6,5.9c-1.1,1.2-2.2,2.2-3.1,2.9c-1.3,1-2.8,1.6-4.6,1.6c-2.1,0-3.7-0.8-4.7-2.5   c-1-1.7-1.4-4.6-1.4-8.8c0-1.1,0-2.7,0.1-4.7h7.3c4.5,0,6.8-1.4,6.8-4.1c0-0.8-0.1-1.3-0.4-1.6s-0.7-0.4-1.4-0.4h-6.7   c5.2-4.6,7.8-10,7.8-16.2c0-2.2-0.5-4.1-1.4-5.6S298,4,296.3,4c-2.3,0-4.4,1.1-6.4,3.2c-2,2.2-3.6,5.1-5,8.7s-2.4,7.7-3.1,12.1   h-3.4c-1.8,0-2.7,1.1-2.7,3.4c0,1,0.2,1.7,0.6,2.1c0.4,0.4,1.3,0.7,2.5,0.7h2.3c-0.1,1.8-0.2,3.6-0.2,5.3c0,1.3,0.1,2.5,0.2,3.7   c-0.4,0.1-0.7,0.4-1,0.7c-1.8,2.2-3.3,3.8-4.4,4.8c-1.1,1-2,1.4-2.8,1.4c-0.5,0-0.9-0.2-1.2-0.5c-0.3-0.4-0.4-0.8-0.4-1.4   c0-1.8,0.5-5,1.4-9.6c0.6-3.2,0.9-5.2,0.9-6c0-1.4-1-2.1-2.9-2.1c-0.9,0-1.8,0.1-2.6,0.2c-0.2-0.9-0.5-1.5-0.8-1.8   c-0.3-0.4-0.9-0.5-1.7-0.5c-2.8,0-5.4,0.9-7.9,2.6c-2.4,1.7-4.4,4-5.9,6.9c-1.5,2.8-2.2,5.9-2.2,9.1c0,0.1,0,0.1,0,0.2   c-0.7,0.7-1.3,1.2-1.8,1.6c-1.2,0.9-2.7,1.4-4.3,1.4c-1,0-1.9-0.3-2.5-1c-0.6-0.7-1.1-1.9-1.4-3.5c4.5-6.2,8.1-12.4,10.7-18.7   c2.6-6.3,4-11.8,4-16.6c0-3.3-0.6-5.9-1.7-7.6c-1.1-1.8-2.6-2.7-4.5-2.7c-3.4,0-6.3,2.2-8.8,6.7c-2.4,4.5-4.3,9.8-5.6,16.1   c-1.2,6.2-1.9,11.8-1.9,16.7c0,1.9,0.1,3.7,0.4,5.3c-1.5,1.7-2.7,3-3.6,3.9c-1.1,1-2,1.4-2.8,1.4c-0.5,0-0.9-0.2-1.3-0.6   c-0.3-0.4-0.5-1-0.5-1.8c0-1.2,0.6-4.4,1.7-9.5c1-4.5,1.5-7.2,1.5-8.2c0-0.6-0.2-1-0.5-1.2c-0.4-0.2-1-0.4-1.9-0.4   c-1.3,0-2.3,0.3-3,0.8c-0.6,0.5-1.1,1.4-1.4,2.6c-1,3.6-2,6.6-3,9c-1,2.4-2,4.3-2.9,5.5c-0.9,1.2-1.6,1.8-2.2,1.8   c-0.4,0-0.8-0.2-1-0.5c-0.2-0.4-0.3-1-0.3-1.8c0-1.4,0.4-4.2,1.2-8.4c0.2-1.2,0.6-2.5,1-4c0.4-1.8,0.7-2.9,0.7-3.2   c0-0.6-0.2-1-0.5-1.3c-0.3-0.3-0.9-0.4-1.8-0.4c-1.6,0-2.7,0.3-3.4,0.8c-0.7,0.5-1.3,1.4-1.7,2.6c-0.9,2.8-1.6,5.5-2,8   c-0.3,1.8-0.5,3.7-0.5,5.8c-1.2,1.2-2.2,2.2-3.1,3c-1.3,1-2.8,1.6-4.6,1.6c-2.1,0-3.7-0.8-4.7-2.5c-1-1.7-1.4-4.6-1.4-8.8   c0-1.1,0-2.7,0.1-4.7h7.3c4.5,0,6.8-1.4,6.8-4.1c0-0.8-0.1-1.3-0.4-1.6s-0.7-0.4-1.4-0.4h-6.7c5.2-4.6,7.8-10,7.8-16.2   c0-2.2-0.5-4.1-1.4-5.6s-2.3-2.2-4-2.2c-2.3,0-4.4,1.1-6.4,3.2c-2,2.2-3.6,5.1-5,8.7s-2.4,7.7-3.1,12.1h-3.4   c-1.8,0-2.7,1.1-2.7,3.4c0,1,0.2,1.7,0.6,2.1c0.4,0.4,1.3,0.7,2.5,0.7h2.3c-0.1,1.8-0.2,3.6-0.2,5.3c0,1.3,0.1,2.5,0.2,3.7   c-0.4,0.1-0.7,0.4-1,0.7c-1.8,2.2-3.3,3.8-4.4,4.8c-1.1,1-2,1.4-2.8,1.4c-0.5,0-0.9-0.2-1.2-0.5c-0.3-0.4-0.4-0.8-0.4-1.4   c0-1.8,0.5-5,1.4-9.6c0.6-3.2,0.9-5.2,0.9-6c0-1.4-1-2.1-2.9-2.1c-0.9,0-1.8,0.1-2.6,0.2c-0.2-0.9-0.5-1.5-0.8-1.8   c-0.3-0.4-0.9-0.5-1.7-0.5c-2.8,0-5.4,0.9-7.9,2.6c-2.4,1.7-4.4,4-5.9,6.9c-0.4,0.8-0.7,1.6-1,2.3c-0.9,0.7-1.8,1-2.5,1   c-1,0-1.5-0.7-1.5-2.1c0-0.4,0.2-1.4,0.5-3c0.4-2,0.5-3.3,0.5-3.8c0-2.6-1.3-3.9-3.9-3.9c-1.3,0-2.8,0.5-4.4,1.4   c-1.6,0.9-3.2,2.5-4.8,4.6c-1.6,2.2-3.1,5-4.4,8.4c0.2-1.8,0.4-3.2,0.6-4.4s0.6-2.6,1-4.2c0.6-2.2,0.9-3.7,0.9-4.3   c0-0.6-0.2-0.9-0.5-1.1c-0.3-0.2-0.9-0.3-1.7-0.3c-1.5,0-2.6,0.3-3.5,0.8c-0.8,0.5-1.4,1.4-1.7,2.5c-1.3,4-2,8.2-2.2,12.6   c-2.5,1.7-5.1,3.5-7.8,5.6c0.2-1.3,0.4-2.5,0.5-3.6c0.2-1.2,0.4-2.2,0.5-3.2c0.8-5,1.3-8.2,1.5-9.4c0-0.3,0.1-0.7,0.1-1.1   c0-0.9-0.2-1.5-0.7-1.7c-0.4-0.3-1.1-0.5-2.1-0.5s-1.9,0.1-2.6,0.2c-0.2-0.9-0.5-1.5-0.8-1.8c-0.3-0.4-0.9-0.5-1.7-0.5   c-2.8,0-5.4,0.9-7.9,2.6c-2.4,1.7-4.4,4-5.9,6.9c-1.4,2.7-2.1,5.6-2.2,8.7c-0.8,0.9-1.5,1.6-2.1,2.1c-1.1,1-2,1.4-2.8,1.4   c-1.2,0-1.7-0.8-1.7-2.4c0-1.1,0.4-3.4,1.1-6.9c0.9-4.1,1.3-6.9,1.3-8.5c0-2.6-1.3-3.9-3.9-3.9c-1.3,0-2.8,0.5-4.4,1.4   c-1.6,0.9-3.2,2.5-4.8,4.6c-1.6,2.2-3.1,5-4.4,8.4c0.2-1.8,0.4-3.2,0.6-4.4s0.6-2.6,1-4.2c0.6-2.2,0.9-3.7,0.9-4.3   c0-0.6-0.2-0.9-0.5-1.1c-0.3-0.2-0.9-0.3-1.7-0.3c-1.5,0-2.6,0.3-3.5,0.8c-0.8,0.5-1.4,1.4-1.7,2.5c-0.7,2.2-1.2,4.5-1.6,6.8   c-1.8,0.4-3.4,0.6-4.8,0.7c-0.3-3.1-1.4-5.7-3.3-7.7c-1.8-2.1-4.3-3.2-7.3-3.2c-2.5,0-4.7,0.7-6.8,2c-2,1.3-3.6,3.2-4.8,5.6   c-1.2,2.4-1.7,5.1-1.7,8.1c0,0.8,0.1,1.6,0.2,2.4c-2.2,0.9-4.4,1.5-6.3,2c-2.6,0.6-5.3,1-7.9,1c-5.2,0-9.2-1.3-11.9-3.9   c-2.7-2.6-4-6.4-4-11.2c0-4.6,0.7-8.6,2.2-11.9c1.5-3.4,3.4-5.9,5.8-7.6c2.4-1.7,4.9-2.6,7.6-2.6c3.9,0,5.8,1.8,5.8,5.5   c0,0.7-0.1,1.7-0.4,2.9c-0.2,1-0.2,1.6-0.2,2c0,1,0.3,1.8,1,2.3c0.6,0.5,1.5,0.8,2.6,0.8c1.6,0,2.8-0.7,3.7-2.2   c0.9-1.5,1.3-3.4,1.3-5.9c0-3.6-1.1-6.6-3.4-8.8c-2.2-2.2-5.5-3.4-9.8-3.4c-4.6,0-8.9,1.3-12.7,3.8c-3.8,2.5-6.8,6-9.1,10.6   C1.1,24.4,0,29.6,0,35.5c0,4.2,0.9,8,2.8,11.2c1.9,3.2,4.6,5.7,8.1,7.4c3.5,1.7,7.7,2.6,12.4,2.6c2.8,0,5.7-0.3,8.7-0.8   c3.1-0.6,6-1.5,8.9-2.8c0.2-0.1,0.4-0.2,0.6-0.3c0.7,0.8,1.4,1.6,2.3,2.2c1.7,1.2,3.8,1.7,6.2,1.7c2.8,0,5.4-1,7.6-3   c2.2-2,3.7-4.7,4.5-8.1c1.6-0.1,3.2-0.3,4.7-0.6c0,0.5,0,1.1,0,1.6c0,3.5,0.3,6.1,0.9,7.7c0.6,1.6,1.7,2.4,3.2,2.4   c1.2,0,2.1-0.3,2.7-1c0.6-0.7,1.1-2,1.6-3.8c0.6-2.4,1.4-4.8,2.3-7c1-2.2,2-4,2.9-5.3c1-1.4,1.7-2,2.2-2c0.4,0,0.7,0.3,0.7,1   c0,1-0.3,2.7-0.8,5.2c-0.6,2.9-0.8,4.9-0.8,6c0,2.2,0.5,4,1.6,5.2c1,1.2,2.6,1.7,4.6,1.7c2.5,0,4.8-0.7,6.7-2   c0.8-0.6,1.7-1.2,2.4-1.9c0.3,0.4,0.5,0.9,0.9,1.3c1.5,1.8,3.5,2.7,5.9,2.7c1.1,0,2.2-0.3,3.2-0.8c1.1-0.6,2-1.4,2.7-2.5l-0.4,2.3   c-6.2,4.8-10.4,8.8-12.6,12c-2.2,3.3-3.4,6.3-3.4,9.2c0,2,0.6,3.7,1.9,4.9c1.3,1.3,2.9,1.9,5,1.9c3.8,0,6.9-2.4,9.4-7.1   c2.5-4.7,4.5-11.2,6-19.5l3.8-2.6c1.2-0.9,3-2.1,5.3-3.6c0.1,1.4,0.4,2.6,0.7,3.4c0.6,1.6,1.7,2.4,3.2,2.4c1.2,0,2.1-0.3,2.7-1   c0.6-0.7,1.1-2,1.6-3.8c0.6-2.4,1.4-4.8,2.3-7c1-2.2,1.9-4,2.9-5.3c1-1.4,1.8-2,2.4-2c0.4,0,0.7,0.3,0.7,1c0,0.3,0,0.8-0.1,1.6   c-0.1,0.6-0.2,1.2-0.2,1.8c0,1.8,0.5,3.3,1.6,4.4c1.1,1.1,2.7,1.6,4.9,1.6c1.2,0,2.4-0.2,3.6-0.7c0.1,2.7,0.8,4.9,2.2,6.7   c1.5,1.8,3.5,2.7,5.9,2.7c3.2,0,5.8-1.7,7.9-5c0.6,1.6,1.4,2.8,2.5,3.7c1.1,0.9,2.3,1.3,3.7,1.3c1.7,0,3.5-0.7,5.3-2.1   c1.8-1.4,3.6-3.1,5.2-5.2c0-0.1,0.1-0.1,0.1-0.2c1.8,4.9,5.4,7.4,10.8,7.4c2.6,0,5-0.7,7-2c0.9-0.6,1.8-1.3,2.7-2.1   c0.2,0.6,0.5,1.2,0.9,1.7c1.2,1.6,2.6,2.5,4.4,2.5c1.6,0,3-0.7,4.4-2.2c1.4-1.5,2.4-3.6,3.1-6.3c0,2.7,0.4,4.8,1.3,6.2   c0.9,1.5,2.3,2.2,4.3,2.2c2.5,0,4.8-0.7,6.7-2c1.5-1,3-2.3,4.3-3.8c0.2,0.3,0.3,0.7,0.5,1c1.7,3.2,4.3,4.8,7.9,4.8   c2.6,0,4.8-0.7,6.8-2c0.7-0.5,1.4-1,2.1-1.6c0.2,0.3,0.4,0.7,0.7,1c1.5,1.8,3.5,2.7,5.9,2.7c3.2,0,5.8-1.7,7.9-5   c0.6,1.6,1.4,2.8,2.5,3.7c1.1,0.9,2.3,1.3,3.7,1.3c1.7,0,3.5-0.7,5.3-2.1c1.8-1.4,3.6-3.1,5.2-5.2c0-0.1,0.1-0.1,0.1-0.2   c1.8,4.9,5.4,7.4,10.8,7.4c2.6,0,5-0.7,7-2c1-0.6,1.9-1.4,2.8-2.2c0.2,0.5,0.5,1,0.8,1.5c1.2,1.8,3.1,2.8,5.7,2.8   c2.8,0,5.7-1.6,8.8-4.7c0.8,1.2,1.7,2.1,2.9,2.9c1.7,1.2,3.8,1.7,6.2,1.7c2.8,0,5.4-1,7.6-3c2.2-2,3.7-4.7,4.5-8.1   c1.6-0.1,3.2-0.3,4.7-0.6c0,0.5,0,1.1,0,1.6c0,3.5,0.3,6.1,0.9,7.7c0.6,1.6,1.7,2.4,3.2,2.4c1.2,0,2.1-0.3,2.7-1   c0.6-0.7,1.1-2,1.6-3.8c0.6-2.4,1.4-4.8,2.3-7c1-2.2,2-4,2.9-5.3c1-1.4,1.7-2,2.2-2c0.4,0,0.7,0.3,0.7,1c0,1-0.3,2.7-0.8,5.2   c-0.6,2.9-0.8,4.9-0.8,6c0,2.2,0.5,4,1.6,5.2c1,1.2,2.6,1.7,4.6,1.7c2.5,0,4.8-0.7,6.7-2c2-1.4,3.9-3.1,5.6-5.2   c0.2-0.2,0.4-0.5,0.5-0.8c0.2-0.2,0.4-0.5,0.6-0.7c1.2-1.6,2.5-3.5,3.7-5.9c0.6,0.6,1.2,1.4,1.8,2.3c0.6,0.8,1.2,1.7,1.6,2.6   c0.4,0.9,0.7,1.9,0.7,2.9c-0.4,0-0.9-0.1-1.6-0.2c-0.7-0.1-1.3-0.2-1.8-0.2c-1.5,0-2.6,0.4-3.4,1.1s-1.1,1.7-1.1,2.7   c0,1.2,0.5,2.3,1.6,3.2c1.1,1,2.7,1.4,4.8,1.4c1.8,0,3.4-0.5,4.8-1.4c1.4-0.9,2.5-2.1,3.2-3.6c0.8-1.5,1.2-3.1,1.2-4.8   c0-1.4-0.3-2.7-1-3.8C392.3,43.2,391.4,41.8,390.1,40.1z M290.5,18.3c0.7-2.7,1.4-4.8,2.1-6.2c0.8-1.5,1.4-2.3,2-2.3   c0.9,0,1.3,1.2,1.3,3.5c0,2.1-0.6,4.4-1.8,7c-1.2,2.5-2.9,4.8-5.3,6.8C289.4,23.9,289.9,20.9,290.5,18.3z M192.1,18.3   c0.7-2.7,1.4-4.8,2.1-6.2c0.8-1.5,1.4-2.3,2-2.3c0.9,0,1.3,1.2,1.3,3.5c0,2.1-0.6,4.4-1.8,7c-1.2,2.5-2.9,4.8-5.3,6.8   C190.9,23.9,191.5,20.9,192.1,18.3z M53.8,48.8c-0.9,1-2,1.6-3.3,1.6c-1.2,0-2.2-0.6-3.1-1.7c-0.8-1.2-1.3-2.8-1.3-5   c0-2.8,0.5-5,1.6-6.5c1.1-1.6,2.4-2.3,4-2.3h0.3c-0.1,0.6-0.2,1.3-0.2,1.9c0,1.5,0.3,3,1,4.3c0.7,1.4,1.6,2.5,2.9,3.3   C55.4,46.2,54.8,47.7,53.8,48.8z M104.3,74.3c-1.2,2.4-2.4,3.6-3.4,3.6c-0.6,0-1-0.2-1.3-0.7c-0.2-0.4-0.4-1-0.4-1.7   c0-1.6,0.7-3.5,2-5.6c1.4-2.1,3.6-4.5,6.7-7.1C106.8,68.1,105.6,71.9,104.3,74.3z M110.4,44.2c-0.4,2.1-1,3.7-1.8,4.8   c-0.8,1.1-1.7,1.7-2.6,1.7c-0.9,0-1.6-0.3-2.1-0.9c-0.5-0.6-0.7-1.5-0.7-2.8c0-2.2,0.4-4.4,1.3-6.4c0.8-2,2-3.6,3.4-4.8   c1.4-1.2,2.9-1.9,4.6-1.9L110.4,44.2z M165.6,44.9c-0.4,1.7-0.9,3.1-1.7,4.1c-0.8,1-1.6,1.6-2.5,1.6c-0.9,0-1.6-0.3-2.1-0.9   c-0.5-0.6-0.7-1.5-0.7-2.8c0-2.2,0.4-4.4,1.3-6.4c0.8-2,2-3.6,3.4-4.8c1.4-1.2,3-1.9,4.7-1.9L165.6,44.9z M240.4,23.3   c0.9-4.9,1.9-9,3.1-12.4c1.2-3.3,2.2-5,3.1-5c1.1,0,1.7,1.5,1.7,4.6c0,3.9-0.8,8.2-2.5,12.9c-1.7,4.7-3.9,9.4-6.8,14   C239.1,32.9,239.5,28.2,240.4,23.3z M264,44.9c-0.4,1.7-0.9,3.1-1.7,4.1c-0.8,1-1.6,1.6-2.5,1.6c-0.9,0-1.6-0.3-2.1-0.9   c-0.5-0.6-0.7-1.5-0.7-2.8c0-2.2,0.4-4.4,1.3-6.4c0.8-2,2-3.6,3.4-4.8c1.4-1.2,3-1.9,4.7-1.9L264,44.9z M331,48.8   c-0.9,1-2,1.6-3.3,1.6c-1.2,0-2.2-0.6-3.1-1.7c-0.8-1.2-1.3-2.8-1.3-5c0-2.8,0.5-5,1.6-6.5c1.1-1.6,2.4-2.3,4-2.3h0.3   c-0.1,0.6-0.2,1.3-0.2,1.9c0,1.5,0.3,3,1,4.3c0.7,1.4,1.6,2.5,2.9,3.3C332.6,46.2,331.9,47.7,331,48.8z"/>
</svg>
