<svg xmlns="http://www.w3.org/2000/svg" version="1.1" x="0px" y="0px" viewBox="0 0 170.7 158" style="enable-background:new 0 0 170.7 158;">
  <path fill="#FFFFFF" d="M155.2,144.9H15.5c-4.1,0-7.5-3.4-7.5-7.5V20.5c0-4.1,3.4-7.5,7.5-7.5h139.7c4.1,0,7.5,3.4,7.5,7.5v116.9    C162.7,141.6,159.3,144.9,155.2,144.9z"/>
  <path fill="#1DAFCC" d="M155.2,144.9H15.5c-4.1,0-7.5-3.4-7.5-7.5V20.5c0-4.1,3.4-7.5,7.5-7.5h139.7c4.1,0,7.5,3.4,7.5,7.5v116.9     C162.7,141.6,159.3,144.9,155.2,144.9z M15.5,16.5c-2.2,0-4,1.8-4,4v116.9c0,2.2,1.8,4,4,4h139.7c2.2,0,4-1.8,4-4V20.5     c0-2.2-1.8-4-4-4H15.5z"/>
  <path fill="#067A91" d="M144.5,134.6H26.2c-3.4,0-6.2-2.8-6.2-6.2V29.5c0-3.4,2.8-6.2,6.2-6.2h118.2c3.4,0,6.2,2.8,6.2,6.2v98.9     C150.6,131.9,147.9,134.6,144.5,134.6z M26.2,26c-2,0-3.6,1.6-3.6,3.6v98.9c0,2,1.6,3.6,3.6,3.6h118.2c2,0,3.6-1.6,3.6-3.6V29.5     c0-2-1.6-3.6-3.6-3.6L26.2,26L26.2,26z"/>
  <path fill="#067A91" d="M130.9,65.3H39.8c-0.7,0-1.3-0.6-1.3-1.3c0-0.7,0.6-1.3,1.3-1.3h91.2c0.7,0,1.3,0.6,1.3,1.3     C132.2,64.7,131.7,65.3,130.9,65.3z"/>
  <path fill="#067A91" d="M130.9,109.7h-20.7c-0.7,0-1.3-0.6-1.3-1.3s0.6-1.3,1.3-1.3h20.7c0.7,0,1.3,0.6,1.3,1.3     S131.7,109.7,130.9,109.7z"/>
  <path fill="#067A91" d="M60.4,109.7H39.8c-0.7,0-1.3-0.6-1.3-1.3s0.6-1.3,1.3-1.3h20.7c0.7,0,1.3,0.6,1.3,1.3S61.1,109.7,60.4,109.7     z"/>
  <path fill="#067A91" d="M130.9,74.9H39.8c-0.7,0-1.3-0.6-1.3-1.3s0.6-1.3,1.3-1.3h91.2c0.7,0,1.3,0.6,1.3,1.3S131.7,74.9,130.9,74.9     z"/>
  <path fill="#067A91" d="M130.9,84.4H39.8c-0.7,0-1.3-0.6-1.3-1.3s0.6-1.3,1.3-1.3h91.2c0.7,0,1.3,0.6,1.3,1.3S131.7,84.4,130.9,84.4     z"/>
  <path fill="#067A91" d="M85.3,126.2c-2.1,0-3.5-1.4-4.3-2.2c-0.1-0.1-0.3-0.3-0.4-0.3c-0.2,0-0.4,0.1-0.5,0.1     c-1.2,0.2-3.1,0.4-4.7-0.8c-1.6-1.2-2-3-2.2-4.2c0-0.1-0.1-0.3-0.1-0.5c-0.2-0.1-0.4-0.2-0.5-0.3c-1.1-0.6-2.7-1.5-3.4-3.4     c-0.1-0.4-0.2-0.9-0.2-1.4c0-1.3,0.5-2.4,0.9-3.2c0.1-0.1,0.2-0.4,0.3-0.6c-0.1-0.1-0.1-0.3-0.3-0.6c-0.4-0.9-0.9-1.9-0.9-3.2     c0-0.5,0.1-1,0.2-1.4c0.6-1.9,2.3-2.8,3.4-3.4c0.1-0.1,0.3-0.2,0.5-0.3c0-0.1,0.1-0.3,0.1-0.5c0.2-1.2,0.5-3,2.2-4.2     c1.6-1.2,3.5-0.9,4.7-0.8c0.1,0,0.4,0,0.6,0.1c0.1-0.1,0.3-0.3,0.4-0.3c0.8-0.8,2.3-2.2,4.3-2.2c2.1,0,3.4,1.3,4.3,2.2     c0.2,0.2,0.3,0.3,0.4,0.3c0.2,0,0.4-0.1,0.5-0.1c1.2-0.2,3.1-0.4,4.7,0.8c1.6,1.2,2,3,2.2,4.2c0,0.1,0.1,0.4,0.1,0.5     c0.2,0.1,0.4,0.2,0.5,0.3c1.1,0.6,2.7,1.5,3.4,3.4c0.1,0.5,0.2,0.9,0.2,1.4c0,1.3-0.5,2.4-0.9,3.2c-0.1,0.1-0.2,0.4-0.3,0.6     c0.1,0.2,0.2,0.4,0.3,0.5c0.4,0.9,0.9,1.9,0.9,3.2c0,0.5-0.1,1-0.2,1.4c-0.6,1.9-2.3,2.9-3.4,3.4c-0.1,0.1-0.3,0.2-0.5,0.3     c0,0.2-0.1,0.4-0.1,0.5c-0.2,1.2-0.5,3-2.2,4.2c-1.6,1.2-3.5,0.9-4.7,0.8c-0.1,0-0.4,0-0.6-0.1c-0.1,0.1-0.3,0.3-0.4,0.3     C88.8,124.9,87.4,126.2,85.3,126.2z M81,123.7L81,123.7L81,123.7z M81,121.1c0.2,0,0.4,0,0.5,0.1c0.1,0,0.1,0,0.2,0.1     c0.3,0.1,0.6,0.4,1.2,1c0.7,0.7,1.5,1.4,2.5,1.4c1,0,1.8-0.7,2.5-1.4c0.6-0.6,0.9-0.8,1.2-1c0.1,0,0.1,0,0.2-0.1     c0.4-0.1,0.8-0.1,1.7,0c1,0.1,2,0.3,2.8-0.3c0.8-0.6,1-1.6,1.2-2.6c0.2-0.9,0.3-1.3,0.4-1.6c0-0.1,0.1-0.1,0.1-0.1     c0.2-0.3,0.6-0.5,1.3-0.9c0.9-0.5,1.8-1,2.1-1.9c0.1-0.2,0.1-0.4,0.1-0.6c0-0.7-0.3-1.4-0.7-2.1c-0.4-0.8-0.6-1.2-0.6-1.7     c0,0,0,0,0-0.1c0-0.4,0.2-0.8,0.6-1.6c0.3-0.7,0.7-1.4,0.7-2.1c0-0.2,0-0.4-0.1-0.6c-0.3-0.9-1.2-1.4-2.1-1.9     c-0.7-0.4-1.1-0.6-1.3-0.9c0,0-0.1-0.1-0.1-0.1c-0.2-0.3-0.3-0.7-0.5-1.6c-0.2-1-0.4-2-1.2-2.6c-0.8-0.6-1.8-0.4-2.8-0.3     c-0.9,0.1-1.3,0.2-1.7,0.1c-0.1,0-0.1,0-0.2-0.1c-0.3-0.1-0.6-0.4-1.2-1c-0.7-0.7-1.5-1.4-2.5-1.4s-1.8,0.8-2.5,1.4     c-0.6,0.6-0.9,0.8-1.2,1c-0.1,0-0.1,0-0.2,0.1c-0.4,0.1-0.8,0.1-1.7,0c-1-0.1-2-0.3-2.8,0.3c-0.8,0.6-1,1.6-1.2,2.6     c-0.2,0.8-0.2,1.3-0.4,1.6c0,0-0.1,0.1-0.1,0.1c-0.2,0.3-0.6,0.5-1.3,0.9c-0.9,0.5-1.8,1-2.1,1.9c-0.1,0.2-0.1,0.4-0.1,0.6     c0,0.7,0.3,1.4,0.7,2.1c0.4,0.8,0.6,1.2,0.6,1.6c0,0,0,0,0,0.1c0,0.4-0.2,0.8-0.6,1.6c-0.3,0.7-0.7,1.4-0.7,2.1     c0,0.2,0,0.4,0.1,0.6c0.3,0.9,1.2,1.4,2.1,1.9c0.7,0.4,1.1,0.6,1.3,0.9c0,0,0.1,0.1,0.1,0.1c0.2,0.3,0.3,0.7,0.5,1.6     c0.2,1,0.4,2,1.2,2.6c0.8,0.6,1.8,0.4,2.8,0.3C80.3,121.1,80.7,121.1,81,121.1z"/>
  <path fill="#067A91" d="M39.2,50.3c0.8,0.8,2.1,1,3.2,0.5c10.4-5.3,25.8-8.7,43-8.7c17.2,0,32.5,3.4,43,8.7c1,0.5,2.3,0.3,3.2-0.5v0     c1.3-1.3,1-3.5-0.7-4.3c-1-0.5-2-1-3-1.4c-11.4-5.1-26.5-7.9-42.5-7.9s-31,2.8-42.5,7.9c-1,0.5-2,0.9-3,1.4     C38.2,46.8,37.9,49,39.2,50.3L39.2,50.3z"/>
</svg>
