<svg xmlns="http://www.w3.org/2000/svg" width="1040" height="700" viewBox="0 0 1040 700" fill="none">
  <path d="M10.055 0H1029.95C1035.5 0 1040 4.496 1040 10.0499V686.089C1040 693.759 1033.76 700 1026.08 700H13.9182C6.24466 700 0 693.759 0 686.089V10.0499C0 4.496 4.49827 0 10.055 0Z" fill="#F0F0F0"/>
  <path d="M26.8838 611.349L481.05 305.569C504.388 289.595 535.559 289.595 558.897 305.569L1013.06 611.349C1029.95 622.88 1039.95 641.711 1039.95 661.81V680.799C1039.95 688.469 1033.76 694.658 1026.08 694.658H13.8653C6.19174 694.658 0 688.469 0 680.799V661.81C0 641.711 10.055 622.88 26.8838 611.349Z" fill="#E0E0E0"/>
  <path d="M26.8838 616.639L481.05 305.569C504.494 289.489 535.453 289.489 558.897 305.569L1013.06 616.639C1029.95 628.17 1039.95 647 1039.95 667.1V690.691C1039.95 695.822 1035.82 699.947 1030.69 699.947H9.26114C4.12782 699.947 0 695.822 0 690.691V667.1C0 647 10.055 628.17 26.8838 616.639Z" fill="#F2F2F2"/>
  <path d="M1013.06 88.6504L558.897 397.076C535.559 413.05 504.388 413.05 481.05 397.076L26.8838 88.6504C10.055 77.1195 0 58.2892 0 38.1895V21.475C0 12.5888 7.25015 5.34229 16.1938 5.34229H1023.81C1032.75 5.34229 1040 12.5888 1040 21.5279V38.2424C1040 58.3421 1029.95 77.1724 1013.12 88.7033L1013.06 88.6504Z" fill="#E0E0E0"/>
  <path d="M1013.06 83.3082L558.897 394.378C535.453 410.458 504.494 410.458 481.05 394.378L26.8838 83.3082C10.055 71.7772 0 52.947 0 32.8472V9.25646C0 4.12574 4.12782 0 9.26114 0H1030.74C1035.87 0 1040 4.12574 1040 9.25646V32.9001C1040 52.9999 1029.95 71.8301 1013.12 83.361L1013.06 83.3082Z" fill="#F2F2F2"/>
  <path d="M599.487 446.426C588.638 462.4 579.642 458.591 567.47 469.276C556.727 478.691 537.517 488.424 518.889 484.509C498.673 480.278 488.618 461.977 464.592 463.934C438.026 466.102 443.583 450.71 439.455 440.29C435.697 430.822 426.807 418.656 428.765 400.672C430.246 387.184 424.637 377.822 429.506 357.987C431.675 349.101 435.803 342.224 443.794 333.603C460.147 316.042 458.506 318.369 463.798 305.41C472.213 284.887 489.465 303.876 503.912 297.74C524.34 289.119 525.504 283.3 547.254 298.005C553.182 302.025 568.582 302.713 574.456 306.785C583.346 312.815 602.451 325.034 604.779 335.137C606.632 343.018 600.44 347.831 608.59 364.07C616.21 379.303 610.812 391.839 607.32 406.649C602.927 425.48 611.342 428.759 599.434 446.373L599.487 446.426Z" fill="#ECC265"/>
  <path d="M608.641 372.533C610.758 376.711 611.817 380.731 612.24 384.645C612.928 378.087 612.24 371.422 608.641 364.175C606.26 359.415 605.096 355.659 604.619 352.486C604.037 357.141 603.773 362.747 608.641 372.533Z" fill="#EDCC8C"/>
  <path d="M429.505 366.397C431.675 357.511 435.803 350.635 443.794 342.013C460.146 324.452 458.506 326.779 463.798 313.82C472.212 293.297 489.464 305.304 503.912 299.169C524.339 290.547 525.503 291.711 547.254 306.415C553.181 310.435 565.776 305.569 571.703 309.589C580.488 315.566 602.027 333.127 604.726 343.176C605.096 340.426 605.467 337.993 604.832 335.137C602.503 325.034 583.399 312.868 574.508 306.785C568.581 302.765 553.234 302.025 547.307 298.005C525.556 283.3 524.392 289.119 503.965 297.74C489.464 303.823 472.212 284.834 463.851 305.41C458.559 318.369 460.199 316.042 443.847 333.603C435.856 342.224 431.728 349.101 429.558 357.987C427.494 366.291 427.282 372.797 427.653 378.51C427.864 374.86 428.447 370.893 429.558 366.344L429.505 366.397Z" fill="#EDCC8C"/>
  <path d="M604.993 341.378C605.257 339.315 605.363 337.358 604.834 335.19C604.728 334.713 604.569 334.185 604.358 333.708C604.199 335.877 604.305 338.363 604.993 341.378Z" fill="#D1A143"/>
  <path d="M607.373 393.796C605.256 402.788 606.103 408.236 606.209 413.367C606.421 411.357 606.791 409.188 607.373 406.755C610.072 395.33 613.882 385.174 611.924 374.12C610.972 380.52 608.961 386.92 607.373 393.796Z" fill="#D1A143"/>
  <path d="M599.488 433.467C588.639 449.441 581.072 451.239 568.847 461.924C558.104 471.339 537.518 475.465 518.837 471.603C498.621 467.372 489.942 457.428 465.916 459.385C439.35 461.553 449.087 437.804 444.959 427.384C442.525 421.195 433.74 413.896 428.448 404.534C428.025 420.455 435.91 431.563 439.35 440.343C443.478 450.763 437.921 466.102 464.487 463.987C488.513 462.03 498.568 480.331 518.784 484.562C537.412 488.477 556.622 478.744 567.365 469.329C579.537 458.644 588.534 462.453 599.382 446.479C608.167 433.52 605.892 428.336 605.839 418.921C605.257 422.888 603.563 427.278 599.382 433.52L599.488 433.467Z" fill="#D1A143"/>
  <path d="M606.155 430.557C606.42 427.86 606.208 425.268 606.102 422.412C605.891 425.532 606.049 428.124 606.155 430.557Z" fill="#EDCC8C"/>
  <path d="M520.001 469.276C561.491 469.276 595.096 435.688 595.096 394.219C595.096 393.055 595.096 391.892 594.99 390.728C593.19 430.557 560.274 462.294 520.001 462.294C479.728 462.294 446.811 430.557 445.012 390.728C445.012 391.892 444.906 393.055 444.906 394.219C444.906 435.688 444.906 458.908 520.001 469.276Z" fill="#EDCC8C"/>
  <path d="M520 462.294C564.426 462.294 600.44 426.298 600.44 381.895C600.44 337.492 564.426 301.496 520 301.496C475.575 301.496 439.561 337.492 439.561 381.895C439.561 426.298 475.575 462.294 520 462.294Z" fill="#D1A143"/>
  <path d="M458.347 437.275C453.32 431.457 452.632 431.827 457.395 437.857C465.333 447.907 476.34 455.312 488.565 460.337C500.737 465.362 512.697 467.478 524.816 465.732C532.436 464.674 532.172 463.775 524.498 464.304C512.379 465.15 500.208 463.352 488.724 458.644C476.922 453.778 466.867 447.113 458.347 437.275Z" fill="#F9DF9B"/>
  <path d="M594.726 394.35C598.644 353.083 568.349 316.455 527.06 312.539C485.772 308.624 449.126 338.904 445.208 380.171C441.291 421.438 471.586 458.066 512.874 461.982C554.162 465.897 590.809 435.617 594.726 394.35Z" fill="#ECC265"/>
  <path d="M602.346 376.288C602.716 379.779 603.563 379.779 603.669 376.182C603.669 374.067 603.616 371.898 603.245 369.729C602.928 367.561 602.399 365.445 601.763 363.435C600.652 360.05 599.858 360.261 600.493 363.699C600.864 365.762 601.234 367.878 601.552 369.941C601.869 372.057 602.134 374.12 602.346 376.235V376.288Z" fill="#F9DF9B"/>
  <path d="M572.498 316.518C578.637 321.12 579.801 320.221 574.244 314.878C570.54 311.282 566.253 308.214 561.438 305.675C556.622 303.189 551.647 301.443 546.567 300.491C538.999 299.01 538.893 300.491 546.249 302.871C550.906 304.405 555.458 306.31 559.903 308.637C564.348 310.964 568.582 313.609 572.445 316.518H572.498Z" fill="#F9DF9B"/>
  <path d="M519.736 458.009C480.998 458.009 449.457 426.537 449.457 387.819C449.457 349.101 480.998 317.576 519.736 317.576C558.474 317.576 589.962 349.101 589.962 387.819C589.962 426.537 558.421 458.009 519.736 458.009ZM519.736 318.951C481.792 318.951 450.886 349.841 450.886 387.766C450.886 425.691 481.792 456.581 519.736 456.581C557.68 456.581 588.586 425.691 588.586 387.766C588.586 349.841 557.68 318.951 519.736 318.951Z" fill="#D1A143"/>
  <path d="M520.265 456.846C481.527 456.846 449.986 425.374 449.986 386.655C449.986 347.937 481.474 316.412 520.265 316.412C559.056 316.412 590.491 347.937 590.491 386.655C590.491 425.374 558.95 456.846 520.265 456.846ZM520.265 317.787C482.321 317.787 451.415 348.677 451.415 386.603C451.415 424.528 482.321 455.418 520.265 455.418C558.209 455.418 589.115 424.528 589.115 386.603C589.115 348.677 558.209 317.787 520.265 317.787Z" fill="#EDCC8C"/>
  <path d="M520.16 457.322C481.422 457.322 449.881 425.85 449.881 387.132C449.881 348.413 481.369 316.888 520.16 316.888C558.951 316.888 590.439 348.413 590.439 387.132C590.439 425.85 558.898 457.322 520.16 457.322ZM520.16 318.316C482.215 318.316 451.31 349.206 451.31 387.132C451.31 425.057 482.215 455.947 520.16 455.947C558.104 455.947 589.01 425.057 589.01 387.132C589.01 349.206 558.104 318.316 520.16 318.316Z" fill="#F9DF9B"/>
  <path d="M519.947 457.375C481.209 457.375 449.668 425.903 449.668 387.184C449.668 348.466 481.156 316.941 519.947 316.941C558.738 316.941 590.173 348.466 590.173 387.184C590.173 425.903 558.632 457.375 519.947 457.375ZM519.947 318.316C482.003 318.316 451.097 349.206 451.097 387.131C451.097 425.056 482.003 455.947 519.947 455.947C557.891 455.947 588.797 425.056 588.797 387.131C588.797 349.206 557.891 318.316 519.947 318.316Z" fill="#ECC265"/>
  <path d="M559.531 410.299C559.531 413.208 557.149 415.588 554.239 415.588H484.965C482.055 415.588 479.673 413.208 479.673 410.299V364.969C479.673 362.06 482.055 359.679 484.965 359.679H535.505V349.894H482.954C475.704 349.894 469.883 355.765 469.883 362.959V412.309C469.883 419.555 475.757 425.374 482.954 425.374H556.25C563.5 425.374 569.321 419.503 569.321 412.309V383.693H559.531V410.299Z" fill="#F9DF9B"/>
  <path d="M564.452 360.42C567.574 360.42 570.114 357.881 570.114 354.76C570.114 351.639 567.574 349.101 564.452 349.101C561.329 349.101 558.789 351.639 558.789 354.76C558.789 357.881 561.329 360.42 564.452 360.42Z" fill="#F9DF9B"/>
  <path d="M547.782 360.42C550.904 360.42 553.444 357.881 553.444 354.76C553.444 351.639 550.904 349.101 547.782 349.101C544.659 349.101 542.119 351.639 542.119 354.76C542.119 357.881 544.659 360.42 547.782 360.42Z" fill="#F9DF9B"/>
  <path d="M564.452 365.815C561.329 365.815 558.789 368.354 558.789 371.475C558.789 374.595 561.329 377.134 564.452 377.134C567.574 377.134 570.114 374.595 570.114 371.475C570.114 368.354 567.574 365.815 564.452 365.815Z" fill="#F9DF9B"/>
  <path d="M499.412 407.654C505.901 407.654 511.161 402.397 511.161 395.912C511.161 389.427 505.901 384.169 499.412 384.169C492.924 384.169 487.664 389.427 487.664 395.912C487.664 402.397 492.924 407.654 499.412 407.654Z" fill="#F9DF9B"/>
</svg>
