<svg xmlns="http://www.w3.org/2000/svg" version="1.1" x="0px" y="0px" viewBox="0 0 180 180" style="enable-background:new 0 0 180 180;">
  <path fill="#FFFFFF" d="M12.1,10.7h155.9c0.8,0,1.4,0.6,1.4,1.4v155.9c0,0.8-0.6,1.4-1.4,1.4H12.1c-0.8,0-1.4-0.6-1.4-1.4V12.1   C10.7,11.3,11.3,10.7,12.1,10.7z"/>
  <path fill="#1E8BCB" d="M167.9,170.8H12.1c-1.6,0-2.8-1.3-2.8-2.8V12.1c0-1.6,1.3-2.8,2.8-2.8h155.9c1.6,0,2.8,1.3,2.8,2.8v155.9   C170.8,169.5,169.5,170.8,167.9,170.8z M12.2,12.1v155.8l155.8-0.1l-0.1-155.8L12.2,12.1z"/>
  <path fill="#1E8BCB" d="M121.6,121.1H58.4c-0.3,0-0.6-0.1-0.8-0.4c-0.2-0.2-0.3-0.6-0.3-0.9s0.1-0.7,0.3-0.9c0.2-0.2,0.5-0.4,0.8-0.4   h63.2c0.3,0,0.6,0.1,0.8,0.4c0.2,0.2,0.3,0.6,0.3,0.9s-0.1,0.7-0.3,0.9C122.2,121,121.9,121.1,121.6,121.1z"/>
  <path fill="#084A70" d="M108.5,139.4c-1,0-1.9-0.2-2.9-0.5c-1.1-0.4-2.1-0.9-3.1-1.5c-0.4-0.2-0.7-0.4-1.1-0.6c-1-0.5-2.4-1.2-3.8-1.1   c-1.1,0.1-2.3,0.9-2.4,2c0,0.2-0.1,0.4-0.3,0.6c-0.2,0.1-0.4,0.2-0.6,0.2c-0.2,0-0.4-0.1-0.6-0.3c-0.1-0.2-0.2-0.4-0.2-0.6   c0.3-2,2.2-3.3,4-3.5c1.9-0.2,3.7,0.6,4.8,1.2c0.4,0.2,0.8,0.4,1.1,0.6c0.9,0.5,1.8,1,2.8,1.4c1.2,0.4,2.5,0.5,3.7,0.3   c1.2-0.2,2.4-0.7,3.4-1.5c0.1-0.1,0.2-0.1,0.3-0.2c0.1,0,0.2-0.1,0.3,0c0.1,0,0.2,0,0.3,0.1c0.1,0.1,0.2,0.1,0.3,0.2   c0.1,0.1,0.1,0.2,0.2,0.3c0,0.1,0,0.2,0,0.3c0,0.1-0.1,0.2-0.1,0.3c-0.1,0.1-0.1,0.2-0.2,0.3C112.7,138.7,110.6,139.4,108.5,139.4z   "/>
  <path fill="#084A70" d="M47.1,27.5c-0.8,0-1.5,0.3-1.9,0.9c-0.5,0.6-0.7,1.5-0.7,2.6c0,2.3,0.9,3.5,2.6,3.5c0.7,0,1.6-0.2,2.7-0.6    v1.9c-0.9,0.4-1.8,0.5-2.9,0.5c-1.5,0-2.7-0.5-3.5-1.4c-0.8-0.9-1.2-2.3-1.2-4c0-1.1,0.2-2,0.6-2.9c0.4-0.8,1-1.4,1.7-1.9    s1.6-0.7,2.6-0.7c1,0,2,0.2,3.1,0.7l-0.7,1.8c-0.4-0.2-0.8-0.3-1.2-0.5C47.9,27.6,47.5,27.5,47.1,27.5z"/>
  <path fill="#084A70" d="M55,32.3v4h-2.2V25.8h3.1c1.4,0,2.5,0.3,3.2,0.8c0.7,0.5,1,1.3,1,2.4c0,0.6-0.2,1.2-0.5,1.6    c-0.3,0.5-0.8,0.9-1.4,1.1c1.6,2.4,2.6,3.9,3.1,4.6h-2.5l-2.5-4H55z M55,30.5h0.7c0.7,0,1.2-0.1,1.6-0.4c0.3-0.2,0.5-0.6,0.5-1.1    c0-0.5-0.2-0.9-0.5-1.1c-0.3-0.2-0.9-0.3-1.6-0.3H55V30.5z"/>
  <path fill="#084A70" d="M69.3,36.3h-6V25.8h6v1.8h-3.8v2.3H69v1.8h-3.6v2.7h3.8V36.3z"/>
  <path fill="#084A70" d="M80.9,31c0,1.7-0.5,3-1.5,4c-1,0.9-2.4,1.4-4.3,1.4h-3V25.8h3.3c1.7,0,3,0.5,4,1.4    C80.4,28.1,80.9,29.3,80.9,31z M78.6,31c0-2.3-1-3.4-3-3.4h-1.2v6.8h1C77.5,34.5,78.6,33.3,78.6,31z"/>
  <path fill="#084A70" d="M89.8,36.3h-6V25.8h6v1.8H86v2.3h3.6v1.8H86v2.7h3.8V36.3z"/>
  <path fill="#084A70" d="M102.1,36.3h-2.8l-4.6-7.9h-0.1c0.1,1.4,0.1,2.4,0.1,3v4.9h-2V25.8h2.8l4.6,7.9h0c-0.1-1.4-0.1-2.3-0.1-2.9    v-5h2V36.3z"/>
  <path fill="#084A70" d="M109.5,36.3h-2.2v-8.6h-2.8v-1.9h7.9v1.9h-2.8V36.3z"/>
  <path fill="#084A70" d="M114.7,36.3V25.8h2.2v10.5H114.7z"/>
  <path fill="#084A70" d="M126.7,36.3l-0.8-2.5h-3.8l-0.8,2.5H119l3.7-10.5h2.7l3.7,10.5H126.7z M125.4,31.9c-0.7-2.3-1.1-3.5-1.2-3.8    c-0.1-0.3-0.2-0.5-0.2-0.7c-0.2,0.6-0.6,2.1-1.4,4.5H125.4z"/>
  <path fill="#084A70" d="M131.1,36.3V25.8h2.2v8.7h4.3v1.8H131.1z"/>
  <path fill="#084A70" d="M74.4,147.2c-1.3,0-2.1-0.8-2.7-1.3l-0.3-0.2l-0.4,0c-0.8,0.1-1.9,0.3-2.9-0.5c-1-0.7-1.2-1.9-1.3-2.6   c0-0.1,0-0.2-0.1-0.4l-0.3-0.2c-0.7-0.4-1.7-0.9-2.1-2.1c-0.1-0.3-0.1-0.6-0.1-0.9c0-0.7,0.2-1.4,0.6-2c0-0.1,0.1-0.3,0.2-0.4   c0-0.1-0.1-0.2-0.2-0.4c-0.3-0.6-0.5-1.3-0.6-2c0-0.3,0-0.6,0.1-0.9c0.4-1.2,1.4-1.7,2.1-2.1l0.3-0.2c0-0.1,0-0.2,0.1-0.4   c0.1-0.7,0.3-1.9,1.3-2.6c1-0.7,2.1-0.6,2.9-0.5l0.4,0l0.3-0.2c0.6-0.5,1.4-1.3,2.7-1.3c1.3,0,2.1,0.8,2.6,1.3l0.3,0.2l0.4,0   c0.7-0.1,1.9-0.3,2.9,0.5c1,0.7,1.2,1.9,1.3,2.6c0,0.1,0,0.2,0.1,0.4l0.3,0.2c0.7,0.4,1.7,0.9,2.1,2.1c0.1,0.3,0.1,0.6,0.1,0.9   c0,0.7-0.2,1.4-0.6,2c0,0.1-0.1,0.3-0.2,0.4c0.1,0.1,0.1,0.3,0.2,0.4c0.3,0.6,0.5,1.3,0.6,2c0,0.3,0,0.6-0.1,0.9   c-0.4,1.2-1.4,1.8-2.1,2.1l-0.3,0.2c0,0.1-0.1,0.3-0.1,0.4c-0.1,0.7-0.3,1.9-1.3,2.6c-1,0.7-2.1,0.6-2.9,0.5l-0.4,0l-0.3,0.2   C76.5,146.4,75.7,147.2,74.4,147.2z M71.6,144.1c0.1,0,0.2,0,0.3,0c0,0,0.1,0,0.1,0c0.3,0.2,0.5,0.4,0.7,0.6c0.4,0.4,1,0.9,1.6,0.9   c0.7,0,1.2-0.5,1.6-0.9c0.2-0.2,0.5-0.4,0.7-0.6l0.1,0c0.3-0.1,0.7,0,1,0c0.6,0.1,1.3,0.2,1.8-0.2s0.6-1,0.7-1.7   c0-0.3,0.1-0.7,0.3-1c0,0,0-0.1,0.1-0.1c0.2-0.2,0.5-0.4,0.8-0.5c0.5-0.3,1.2-0.6,1.4-1.2c0-0.1,0.1-0.3,0.1-0.4   c0-0.5-0.2-0.9-0.4-1.4c-0.2-0.3-0.3-0.6-0.4-1c0-0.4,0.2-0.7,0.3-1c0.2-0.4,0.4-0.9,0.4-1.4c0-0.1,0-0.3-0.1-0.4   c-0.2-0.6-0.8-0.9-1.4-1.2c-0.3-0.1-0.6-0.3-0.8-0.5l-0.1-0.1c-0.2-0.3-0.2-0.6-0.3-1c-0.1-0.6-0.2-1.3-0.7-1.7   c-0.5-0.4-1.2-0.3-1.8-0.2c-0.3,0.1-0.7,0.1-1,0l-0.1,0c-0.3-0.2-0.5-0.4-0.7-0.6c-0.5-0.5-1-0.9-1.6-0.9c-0.7,0-1.2,0.5-1.6,0.9   c-0.2,0.2-0.5,0.4-0.7,0.6l-0.1,0c-0.3,0.1-0.7,0-1,0c-0.6-0.1-1.3-0.2-1.8,0.2c-0.5,0.4-0.6,1-0.7,1.7c0,0.3-0.1,0.7-0.3,1   c0,0,0,0.1-0.1,0.1c-0.2,0.2-0.5,0.4-0.8,0.5c-0.6,0.3-1.2,0.6-1.4,1.2c0,0.1-0.1,0.3-0.1,0.4c0,0.5,0.2,0.9,0.4,1.4   c0.2,0.3,0.3,0.6,0.4,1c0,0.4-0.2,0.7-0.3,1c-0.2,0.4-0.4,0.9-0.4,1.4c0,0.1,0,0.3,0.1,0.4c0.2,0.6,0.8,0.9,1.4,1.2   c0.3,0.1,0.6,0.3,0.8,0.5c0,0,0,0.1,0.1,0.1c0.2,0.3,0.2,0.6,0.3,1c0.1,0.6,0.2,1.3,0.7,1.7c0.5,0.4,1.2,0.3,1.8,0.2   C71.2,144.1,71.4,144.1,71.6,144.1z"/>
  <path fill="#1E8BCB" d="M133.7,161.6H46.3c-0.8,0-1.5-0.2-2.2-0.4c-0.7-0.3-1.3-0.7-1.9-1.3c-0.5-0.5-1-1.2-1.3-1.9   c-0.3-0.7-0.4-1.5-0.4-2.2V51.3c0-1.5,0.6-3,1.7-4.1c1.1-1.1,2.6-1.7,4.1-1.7h87.4c1.5,0,3,0.6,4.1,1.7c1.1,1.1,1.7,2.6,1.7,4.1   v104.5c0,0.8-0.1,1.5-0.4,2.2c-0.3,0.7-0.7,1.3-1.3,1.9c-0.5,0.5-1.2,1-1.9,1.3C135.2,161.4,134.5,161.6,133.7,161.6z M46.3,48.5   c-0.7,0-1.5,0.3-2,0.8c-0.5,0.5-0.8,1.2-0.8,2v104.5c0,0.7,0.3,1.5,0.8,2c0.5,0.5,1.2,0.8,2,0.8h87.4c0.7,0,1.5-0.3,2-0.8   c0.5-0.5,0.8-1.2,0.8-2V51.3c0-0.7-0.3-1.5-0.8-2c-0.5-0.5-1.2-0.8-2-0.8H46.3z"/>
  <path fill="#084A70" d="M128.9,154.8H51.2c-1.3,0-2.5-0.5-3.4-1.4c-0.9-0.9-1.4-2.1-1.4-3.4V57.1c0-1.3,0.5-2.5,1.4-3.4   c0.9-0.9,2.1-1.4,3.4-1.4h77.7c1.3,0,2.5,0.5,3.4,1.4c0.9,0.9,1.4,2.1,1.4,3.4V150c0,1.3-0.5,2.5-1.4,3.4   C131.4,154.3,130.1,154.8,128.9,154.8z M51.2,54.3c-0.8,0-1.5,0.3-2,0.8c-0.5,0.5-0.8,1.2-0.8,2V150c0,0.8,0.3,1.5,0.8,2   c0.5,0.5,1.3,0.8,2,0.8h77.7c0.8,0,1.5-0.3,2-0.8c0.5-0.5,0.8-1.3,0.8-2V57.1c0-0.7-0.3-1.5-0.8-2c-0.5-0.5-1.3-0.8-2-0.8   L51.2,54.3z"/>
  <path fill="#084A70" d="M103.1,66.8H77c-0.3,0-0.5-0.1-0.7-0.3C76.1,66.3,76,66,76,65.8s0.1-0.5,0.3-0.7c0.2-0.2,0.4-0.3,0.7-0.3h26.1   c0.3,0,0.5,0.1,0.7,0.3c0.2,0.2,0.3,0.4,0.3,0.7s-0.1,0.5-0.3,0.7C103.6,66.7,103.3,66.8,103.1,66.8z"/>
  <path fill="#084A70" d="M112.6,79.4H67.4c-0.3,0-0.5-0.1-0.7-0.3c-0.2-0.2-0.3-0.4-0.3-0.7s0.1-0.5,0.3-0.7c0.2-0.2,0.4-0.3,0.7-0.3   h45.2c0.3,0,0.5,0.1,0.7,0.3c0.2,0.2,0.3,0.4,0.3,0.7s-0.1,0.5-0.3,0.7C113.1,79.3,112.9,79.4,112.6,79.4z"/>
  <path fill="#084A70" d="M112.6,85.6H67.4c-0.3,0-0.5-0.1-0.7-0.3c-0.2-0.2-0.3-0.4-0.3-0.7c0-0.3,0.1-0.5,0.3-0.7   c0.2-0.2,0.4-0.3,0.7-0.3h45.2c0.3,0,0.5,0.1,0.7,0.3c0.2,0.2,0.3,0.4,0.3,0.7c0,0.3-0.1,0.5-0.3,0.7   C113.1,85.5,112.9,85.6,112.6,85.6z"/>
  <path fill="#084A70" d="M112.6,91.8H67.4c-0.3,0-0.5-0.1-0.7-0.3c-0.2-0.2-0.3-0.4-0.3-0.7s0.1-0.5,0.3-0.7c0.2-0.2,0.4-0.3,0.7-0.3   h45.2c0.3,0,0.5,0.1,0.7,0.3c0.2,0.2,0.3,0.4,0.3,0.7s-0.1,0.5-0.3,0.7C113.1,91.7,112.9,91.8,112.6,91.8z"/>
  <path fill="#084A70" d="M112.6,98H67.4c-0.3,0-0.5-0.1-0.7-0.3c-0.2-0.2-0.3-0.4-0.3-0.7c0-0.3,0.1-0.5,0.3-0.7   c0.2-0.2,0.4-0.3,0.7-0.3h45.2c0.3,0,0.5,0.1,0.7,0.3c0.2,0.2,0.3,0.4,0.3,0.7c0,0.3-0.1,0.5-0.3,0.7C113.1,97.9,112.9,98,112.6,98   z"/>
  <path fill="#084A70" d="M112.6,104.2H67.4c-0.3,0-0.5-0.1-0.7-0.3c-0.2-0.2-0.3-0.4-0.3-0.7c0-0.3,0.1-0.5,0.3-0.7   c0.2-0.2,0.4-0.3,0.7-0.3h45.2c0.3,0,0.5,0.1,0.7,0.3c0.2,0.2,0.3,0.4,0.3,0.7c0,0.3-0.1,0.5-0.3,0.7   C113.1,104.1,112.9,104.2,112.6,104.2z"/>
  <path fill="#084A70" d="M96.9,79.4H83.1c-0.3,0-0.5-0.1-0.7-0.3c-0.2-0.2-0.3-0.4-0.3-0.7s0.1-0.5,0.3-0.7c0.2-0.2,0.4-0.3,0.7-0.3   h13.8c0.3,0,0.5,0.1,0.7,0.3c0.2,0.2,0.3,0.4,0.3,0.7s-0.1,0.5-0.3,0.7C97.4,79.3,97.2,79.4,96.9,79.4z"/>
  <path fill="#084A70" d="M96.9,85.6H83.1c-0.3,0-0.5-0.1-0.7-0.3c-0.2-0.2-0.3-0.4-0.3-0.7c0-0.3,0.1-0.5,0.3-0.7   c0.2-0.2,0.4-0.3,0.7-0.3h13.8c0.3,0,0.5,0.1,0.7,0.3c0.2,0.2,0.3,0.4,0.3,0.7c0,0.3-0.1,0.5-0.3,0.7   C97.4,85.5,97.2,85.6,96.9,85.6z"/>
  <path fill="#084A70" d="M96.9,91.8H83.1c-0.3,0-0.5-0.1-0.7-0.3c-0.2-0.2-0.3-0.4-0.3-0.7s0.1-0.5,0.3-0.7c0.2-0.2,0.4-0.3,0.7-0.3   h13.8c0.3,0,0.5,0.1,0.7,0.3c0.2,0.2,0.3,0.4,0.3,0.7s-0.1,0.5-0.3,0.7C97.4,91.7,97.2,91.8,96.9,91.8z"/>
  <path fill="#084A70" d="M96.9,98H83.1c-0.3,0-0.5-0.1-0.7-0.3c-0.2-0.2-0.3-0.4-0.3-0.7c0-0.3,0.1-0.5,0.3-0.7   c0.2-0.2,0.4-0.3,0.7-0.3h13.8c0.3,0,0.5,0.1,0.7,0.3c0.2,0.2,0.3,0.4,0.3,0.7c0,0.3-0.1,0.5-0.3,0.7C97.4,97.9,97.2,98,96.9,98z"/>
  <path fill="#084A70" d="M96.9,104.2H83.1c-0.3,0-0.5-0.1-0.7-0.3c-0.2-0.2-0.3-0.4-0.3-0.7c0-0.3,0.1-0.5,0.3-0.7   c0.2-0.2,0.4-0.3,0.7-0.3h13.8c0.3,0,0.5,0.1,0.7,0.3c0.2,0.2,0.3,0.4,0.3,0.7c0,0.3-0.1,0.5-0.3,0.7   C97.4,104.1,97.2,104.2,96.9,104.2z"/>
  <path fill="#084A70" d="M96.9,110.4H83.1c-0.3,0-0.5-0.1-0.7-0.3c-0.2-0.2-0.3-0.4-0.3-0.7c0-0.3,0.1-0.5,0.3-0.7   c0.2-0.2,0.4-0.3,0.7-0.3h13.8c0.3,0,0.5,0.1,0.7,0.3c0.2,0.2,0.3,0.4,0.3,0.7c0,0.3-0.1,0.5-0.3,0.7   C97.4,110.3,97.2,110.4,96.9,110.4z"/>
</svg>
