<svg xmlns="http://www.w3.org/2000/svg" width="300" height="300" viewBox="0 0 300 300" fill="none">
  <path d="M34.188 190.199C33.5271 190.199 32.9863 189.658 32.9863 188.997V49.2522C32.9863 36.0929 43.7013 25.3772 56.8598 25.3772H153.775C154.436 25.3772 154.977 25.918 154.977 26.579C154.977 27.2399 154.436 27.7807 153.775 27.7807H56.8397C45.0032 27.7807 35.3897 37.4149 35.3897 49.2322V188.957C35.3897 189.618 34.8489 190.159 34.188 190.159V190.199Z" fill="#094A70"/>
  <path d="M34.1875 190.199C33.867 190.199 33.5666 190.079 33.3263 189.838L9.27261 165.783C8.79194 165.302 8.79194 164.541 9.27261 164.081C9.75329 163.6 10.5144 163.6 10.975 164.081L34.1875 187.295L57.38 164.081C57.8606 163.6 58.6217 163.6 59.0823 164.081C59.563 164.561 59.563 165.322 59.0823 165.783L35.0287 189.838C34.8084 190.059 34.4879 190.199 34.1675 190.199H34.1875Z" fill="#094A70"/>
  <path d="M241.637 274.082H153.995C153.334 274.082 152.793 273.541 152.793 272.88C152.793 272.219 153.334 271.678 153.995 271.678H241.637C253.474 271.678 263.087 262.044 263.087 250.227V115.069C263.087 114.408 263.628 113.867 264.289 113.867C264.95 113.867 265.491 114.408 265.491 115.069V250.207C265.491 263.366 254.776 274.082 241.617 274.082H241.637Z" fill="#094A70"/>
  <path d="M288.363 136.881C288.062 136.881 287.742 136.761 287.502 136.52L264.289 113.306L241.077 136.52C240.596 137.001 239.835 137.001 239.374 136.52C238.894 136.039 238.894 135.278 239.374 134.818L263.428 110.762C263.648 110.542 263.969 110.402 264.289 110.402C264.61 110.402 264.91 110.522 265.15 110.762L289.204 134.818C289.685 135.298 289.685 136.059 289.204 136.52C288.964 136.761 288.663 136.881 288.343 136.881H288.363Z" fill="#094A70"/>
  <path d="M257.382 75.4707C256.26 75.4707 255.078 75.3906 253.737 75.2304C253.136 75.1703 252.635 74.7296 252.495 74.1288L251.774 71.2846C250.672 71.0643 249.571 70.7638 248.489 70.4033L246.426 72.5264C246.006 72.9671 245.345 73.0872 244.804 72.8469C242.641 71.9055 240.538 70.6837 238.515 69.1815C238.035 68.821 237.814 68.18 237.974 67.5992L238.776 64.8151C237.914 64.054 237.113 63.2528 236.352 62.3915L233.568 63.1927C232.987 63.353 232.347 63.1527 231.986 62.6519C230.484 60.649 229.262 58.5259 228.321 56.3827C228.081 55.8219 228.201 55.181 228.641 54.7403L230.764 52.6773C230.404 51.5957 230.103 50.4941 229.883 49.3925L227.039 48.6714C226.458 48.5312 226.018 48.0305 225.938 47.4296C225.777 46.1077 225.697 44.9059 225.697 43.7843C225.697 42.6626 225.777 41.4809 225.938 40.1389C225.998 39.538 226.458 39.0373 227.039 38.8971L229.883 38.176C230.103 37.0744 230.404 35.9728 230.764 34.8912L228.641 32.8282C228.201 32.4076 228.081 31.7466 228.321 31.1858C229.262 29.0226 230.484 26.9195 231.986 24.9166C232.347 24.4359 232.987 24.2156 233.568 24.3758L236.352 25.177C237.113 24.3157 237.914 23.5145 238.776 22.7534L237.974 19.9693C237.814 19.3885 238.015 18.7676 238.495 18.387C240.518 16.8848 242.621 15.643 244.784 14.7216C245.345 14.4813 246.006 14.6215 246.426 15.0421L248.489 17.1652C249.571 16.8047 250.672 16.5042 251.774 16.2839L252.495 13.4397C252.635 12.8589 253.156 12.4182 253.737 12.3381C255.078 12.1779 256.26 12.0978 257.382 12.0978C258.503 12.0978 259.685 12.1779 261.027 12.3381C261.628 12.3982 262.128 12.8389 262.268 13.4397L262.989 16.2839C264.091 16.5042 265.193 16.8047 266.274 17.1652L268.337 15.0421C268.758 14.6015 269.418 14.4813 269.959 14.7216C272.122 15.663 274.225 16.8848 276.248 18.387C276.729 18.7475 276.949 19.3885 276.789 19.9693L275.988 22.7534C276.849 23.5145 277.65 24.3157 278.411 25.177L281.195 24.3758C281.776 24.2156 282.417 24.4158 282.777 24.9166C284.279 26.9195 285.501 29.0426 286.442 31.1858C286.683 31.7466 286.562 32.3875 286.122 32.8282L283.999 34.8912C284.359 35.9728 284.66 37.0744 284.88 38.176L287.724 38.8971C288.305 39.0373 288.746 39.538 288.826 40.1389C288.986 41.4608 289.066 42.6626 289.066 43.7843C289.066 44.9059 288.986 46.0876 288.826 47.4296C288.766 48.0305 288.305 48.5312 287.724 48.6714L284.88 49.3925C284.66 50.4941 284.359 51.5957 283.999 52.6773L286.122 54.7403C286.562 55.1609 286.683 55.8219 286.442 56.3827C285.501 58.5459 284.279 60.649 282.777 62.6519C282.417 63.1326 281.776 63.353 281.195 63.1927L278.411 62.3915C277.65 63.2528 276.849 64.054 275.988 64.8151L276.789 67.5992C276.949 68.18 276.749 68.8009 276.268 69.1815C274.245 70.6837 272.142 71.9255 269.979 72.8469C269.418 73.0872 268.758 72.947 268.337 72.5264L266.274 70.4033C265.193 70.7638 264.091 71.0643 262.989 71.2846L262.268 74.1288C262.128 74.7096 261.608 75.1503 261.027 75.2304C259.685 75.3906 258.503 75.4707 257.382 75.4707ZM254.678 72.907C255.659 73.0071 256.54 73.0472 257.382 73.0472C258.223 73.0472 259.104 73.0071 260.085 72.907L260.786 70.1229C260.927 69.5621 261.387 69.1414 261.948 69.0413C263.33 68.8009 264.712 68.4204 266.054 67.9397C266.595 67.7394 267.195 67.8796 267.596 68.3002L269.619 70.3833C271.201 69.6422 272.783 68.7208 274.285 67.6392L273.504 64.8952C273.344 64.3344 273.524 63.7535 273.965 63.373C275.046 62.4516 276.068 61.4502 276.989 60.3486C277.35 59.9079 277.95 59.7276 278.511 59.8879L281.255 60.669C282.337 59.1468 283.258 57.5845 283.999 56.0022L281.916 53.9792C281.495 53.5786 281.355 52.9777 281.555 52.4369C282.036 51.095 282.417 49.713 282.657 48.3309C282.757 47.7701 283.178 47.3094 283.739 47.1692L286.522 46.4682C286.623 45.4868 286.663 44.6055 286.663 43.7642C286.663 42.923 286.623 42.0417 286.522 41.0603L283.739 40.3592C283.178 40.219 282.757 39.7583 282.657 39.1975C282.417 37.8155 282.036 36.4335 281.555 35.0915C281.355 34.5507 281.495 33.9498 281.916 33.5492L283.999 31.5263C283.258 29.9239 282.337 28.3616 281.255 26.8594L278.511 27.6406C277.97 27.8008 277.37 27.6205 276.989 27.1799C276.068 26.0983 275.066 25.0768 273.965 24.1555C273.524 23.7949 273.344 23.1941 273.504 22.6332L274.285 19.8892C272.783 18.8076 271.201 17.8863 269.619 17.1452L267.596 19.2282C267.195 19.6489 266.595 19.7891 266.054 19.5888C264.712 19.1081 263.33 18.7475 261.948 18.4871C261.387 18.387 260.927 17.9664 260.786 17.4056L260.085 14.6215C259.104 14.5213 258.223 14.4813 257.382 14.4813C256.54 14.4813 255.659 14.5213 254.678 14.6215L253.977 17.4056C253.837 17.9664 253.376 18.387 252.815 18.4871C251.433 18.7275 250.051 19.1081 248.709 19.5888C248.169 19.7891 247.568 19.6489 247.167 19.2282L245.144 17.1452C243.562 17.8863 241.98 18.8076 240.478 19.8892L241.259 22.6332C241.419 23.1941 241.239 23.7749 240.798 24.1555C239.717 25.0768 238.695 26.0783 237.774 27.1799C237.414 27.6205 236.813 27.8008 236.252 27.6406L233.508 26.8594C232.427 28.3817 231.505 29.944 230.764 31.5263L232.847 33.5492C233.268 33.9498 233.408 34.5507 233.208 35.0915C232.727 36.4335 232.347 37.8155 232.106 39.1975C232.006 39.7583 231.586 40.219 231.025 40.3592L228.241 41.0603C228.141 42.0417 228.101 42.923 228.101 43.7642C228.101 44.6055 228.141 45.4868 228.241 46.4682L231.025 47.1692C231.586 47.3094 232.006 47.7701 232.106 48.3309C232.347 49.713 232.727 51.095 233.208 52.4369C233.408 52.9777 233.268 53.5786 232.847 53.9792L230.764 56.0022C231.505 57.6045 232.427 59.1668 233.508 60.669L236.252 59.8879C236.793 59.7276 237.394 59.9079 237.774 60.3486C238.695 61.4301 239.697 62.4516 240.798 63.373C241.239 63.7335 241.419 64.3344 241.259 64.8952L240.478 67.6392C241.98 68.7208 243.562 69.6422 245.144 70.3833L247.167 68.3002C247.568 67.8796 248.169 67.7394 248.709 67.9397C250.051 68.4204 251.433 68.7809 252.815 69.0413C253.376 69.1414 253.837 69.5621 253.977 70.1229L254.678 72.907Z" fill="#094A70"/>
  <path d="M257.381 55.7618C250.791 55.7618 245.424 50.3939 245.424 43.8043C245.424 37.2146 250.791 31.8467 257.381 31.8467C263.97 31.8467 269.337 37.2146 269.337 43.8043C269.337 50.3939 263.97 55.7618 257.381 55.7618ZM257.381 34.2703C252.113 34.2703 247.847 38.5566 247.847 43.8043C247.847 49.052 252.133 53.3383 257.381 53.3383C262.628 53.3383 266.914 49.052 266.914 43.8043C266.914 38.5566 262.628 34.2703 257.381 34.2703Z" fill="#094A70"/>
  <path d="M257.381 86.4268C233.888 86.4268 214.781 67.3188 214.781 43.8243C214.781 31.1257 220.389 19.1882 230.163 11.0562C230.684 10.6356 231.445 10.6957 231.865 11.2165C232.286 11.7372 232.226 12.4983 231.705 12.919C222.492 20.5902 217.205 31.8467 217.205 43.8243C217.205 65.9768 235.23 84.0233 257.401 84.0233C264.21 84.0233 270.92 82.3007 276.848 79.0159C277.429 78.6954 278.17 78.8957 278.49 79.4966C278.811 80.0775 278.611 80.8186 278.01 81.139C271.741 84.6041 264.611 86.4468 257.401 86.4468L257.381 86.4268Z" fill="#65D0E5"/>
  <path d="M282.155 78.1947C281.794 78.1947 281.414 78.0345 281.194 77.714C280.793 77.1732 280.913 76.4321 281.434 76.0315C291.688 68.3603 297.577 56.6231 297.577 43.8243C297.577 21.6718 279.551 3.62533 257.38 3.62533C249.569 3.62533 241.999 5.86862 235.49 10.1148C234.929 10.4754 234.188 10.3151 233.827 9.75432C233.467 9.19349 233.627 8.45241 234.188 8.09188C241.097 3.58527 249.129 1.2218 257.4 1.2218C280.893 1.2218 300 20.3298 300 43.8243C300 57.3842 293.771 69.8424 282.876 77.9744C282.656 78.1346 282.395 78.2147 282.155 78.2147V78.1947Z" fill="#65D0E5"/>
  <path d="M230.924 19.8491C230.263 19.8491 229.722 19.3083 229.722 18.6474V13.1793H224.254C223.593 13.1793 223.053 12.6385 223.053 11.9776C223.053 11.3166 223.593 10.7758 224.254 10.7758H230.924C231.585 10.7758 232.125 11.3166 232.125 11.9776V18.6474C232.125 19.3083 231.585 19.8491 230.924 19.8491Z" fill="#65D0E5"/>
  <path d="M288.824 78.1747H282.155C281.494 78.1747 280.953 77.6339 280.953 76.9729V70.3031C280.953 69.6422 281.494 69.1014 282.155 69.1014C282.816 69.1014 283.356 69.6422 283.356 70.3031V75.7712H288.824C289.485 75.7712 290.026 76.312 290.026 76.9729C290.026 77.6339 289.485 78.1747 288.824 78.1747Z" fill="#65D0E5"/>
  <path d="M33.7673 258.319C33.3467 258.319 32.9461 258.239 32.5456 258.099L1.90266 246.582C0.741038 246.141 0 244.999 0 243.677C0 242.356 0.761066 241.234 1.90266 240.793L32.5456 229.356C33.3267 229.056 34.1879 229.056 34.989 229.356L65.692 240.833C66.8536 241.274 67.5946 242.396 67.5946 243.717C67.5946 245.039 66.8536 246.161 65.692 246.602L34.989 258.079C34.5884 258.219 34.1879 258.299 33.7673 258.299V258.319ZM33.7673 231.56C33.6471 231.56 33.5269 231.58 33.3867 231.62L2.74384 243.057C2.42339 243.177 2.40336 243.597 2.40336 243.677C2.40336 243.758 2.40336 244.178 2.74384 244.298L33.3867 255.815C33.6271 255.915 33.8874 255.915 34.1278 255.815L64.8308 244.338C65.1512 244.218 65.1712 243.798 65.1712 243.717C65.1712 243.637 65.1712 243.217 64.8308 243.097L34.1278 231.62C34.0076 231.58 33.8874 231.56 33.7472 231.56H33.7673Z" fill="#65D0E5"/>
  <path d="M33.8075 277.187C24.3743 277.187 15.4017 274.062 13.1185 271.819C11.0356 269.776 11.1558 266.271 11.1958 265.77V250.027C11.1958 249.366 11.7366 248.825 12.3975 248.825C13.0585 248.825 13.5992 249.366 13.5992 250.027V265.81C13.5992 265.81 13.5992 265.87 13.5992 265.91C13.5391 266.691 13.6393 268.955 14.8009 270.096C16.4232 271.679 24.5946 274.763 33.8075 274.763C43.0204 274.763 51.1918 271.679 52.8141 270.096C53.9757 268.955 54.0759 266.691 54.0158 265.91C54.0158 265.89 54.0158 265.85 54.0158 265.81V250.027C54.0158 249.366 54.5566 248.825 55.2175 248.825C55.8784 248.825 56.4192 249.366 56.4192 250.027V265.77C56.4592 266.271 56.5794 269.776 54.4965 271.819C52.2133 274.062 43.2407 277.187 33.8075 277.187Z" fill="#65D0E5"/>
  <path d="M47.2659 300C46.585 300 45.884 299.9 45.163 299.7C42.319 298.918 40.4564 296.936 39.8155 293.931C39.8155 293.871 39.7955 293.851 39.7754 293.811C39.7754 293.751 39.7354 293.711 39.7354 293.651C39.7153 293.551 39.6953 293.45 39.6953 293.33V291.848C39.6953 291.748 39.6953 291.648 39.7354 291.548C39.7754 291.427 39.7955 291.307 39.8155 291.187C39.8756 290.947 39.9356 290.686 40.0158 290.446C40.4363 289.024 41.2375 287.822 42.359 286.881L61.0452 271.338C60.8449 270.817 60.6446 270.297 60.5044 269.716C59.2627 265.109 60.1239 260.863 63.068 257.097C64.7103 254.994 67.0736 253.712 70.3182 253.151C72.2409 252.811 74.2837 252.851 76.3667 253.272C76.7672 253.352 77.0877 253.532 77.3681 253.672C77.4682 253.732 77.5683 253.772 77.6685 253.832C78.029 253.993 78.2693 254.333 78.3494 254.714C78.4095 255.094 78.3094 255.495 78.029 255.775C77.9288 255.875 77.8688 255.935 77.8087 255.996C77.7486 256.076 77.6885 256.136 77.6284 256.176C76.3867 257.418 75.165 258.659 73.9232 259.881C72.6815 261.123 71.4598 262.345 70.218 263.587C70.178 263.627 70.158 263.647 70.1379 263.667C70.158 263.687 70.178 263.727 70.218 263.747L76.0262 269.555C76.0262 269.555 76.0863 269.615 76.1063 269.636C76.1463 269.615 76.1664 269.575 76.2265 269.535L83.6969 262.064C83.6969 262.064 83.777 261.984 83.8171 261.944L83.8972 261.864C84.2777 261.484 84.8786 261.403 85.3592 261.684C86.0001 262.064 86.4007 262.665 86.5609 263.466C87.302 267.512 86.8013 270.957 84.9987 274.042C83.737 276.205 81.7542 277.787 78.9102 278.869C75.4253 280.211 71.8403 280.131 68.2753 278.629L65.1109 282.434C61.0652 287.321 56.8794 292.369 52.7336 297.296C51.2715 299.039 49.3889 299.94 47.306 299.94L47.2659 300ZM42.1187 293.19C42.1187 293.19 42.1788 293.37 42.1988 293.47C42.6394 295.554 43.8211 296.855 45.8039 297.396C47.8267 297.937 49.5291 297.396 50.871 295.834C55.0168 290.907 59.2026 285.859 63.2483 280.992L66.6931 276.826C67.4141 275.945 68.2553 276.065 68.8361 276.325C71.9805 277.747 74.9847 277.868 78.049 276.706C80.3923 275.825 81.9345 274.603 82.9158 272.92C84.2577 270.597 84.7384 267.973 84.3378 264.949L77.9489 271.338C76.7071 272.58 75.5655 272.58 74.3438 271.358L68.5357 265.55C68.1552 265.169 67.6344 264.568 67.6344 263.747C67.6344 262.946 68.1552 262.345 68.5357 261.964C69.7574 260.722 70.9991 259.501 72.2409 258.259C73.1421 257.358 74.0434 256.456 74.9447 255.555C73.5026 255.355 72.1207 255.375 70.7588 255.615C68.1351 256.076 66.2525 257.077 65.0108 258.679C62.5673 261.804 61.8463 265.349 62.8878 269.175C63.008 269.656 63.1882 270.116 63.3885 270.617C63.4886 270.877 63.5888 271.118 63.6689 271.378C63.8291 271.819 63.7089 272.299 63.3885 272.64C63.3084 272.72 63.2082 272.82 63.1081 272.9L43.9813 288.804C43.2202 289.445 42.6995 290.246 42.3991 291.207C42.339 291.407 42.299 291.608 42.2389 291.808C42.2389 291.888 42.1988 291.968 42.1788 292.048V293.21L42.1187 293.19Z" fill="#094A70"/>
  <path d="M149.99 53.0178C164.292 53.0178 175.886 41.4228 175.886 27.1198C175.886 12.8167 164.292 1.2218 149.99 1.2218C135.688 1.2218 124.094 12.8167 124.094 27.1198C124.094 41.4228 135.688 53.0178 149.99 53.0178Z" fill="white"/>
  <path d="M149.989 54.2395C135.048 54.2395 122.871 42.0817 122.871 27.1198C122.871 12.1578 135.048 0 149.989 0C164.93 0 177.107 12.1578 177.107 27.1198C177.107 42.0817 164.95 54.2395 149.989 54.2395ZM149.989 2.42355C136.37 2.42355 125.294 13.4998 125.294 27.1198C125.294 40.7398 136.37 51.816 149.989 51.816C163.608 51.816 174.684 40.7398 174.684 27.1198C174.684 13.4998 163.608 2.42355 149.989 2.42355Z" fill="#094A70"/>
  <path d="M147.425 37.7754C147.124 37.7754 146.804 37.6552 146.563 37.4149L137.751 28.602C137.27 28.1213 137.27 27.3601 137.751 26.8995C138.232 26.4188 138.993 26.4188 139.454 26.8995L148.266 35.7124C148.747 36.1931 148.747 36.9542 148.266 37.4149C148.026 37.6552 147.725 37.7754 147.405 37.7754H147.425Z" fill="#094A70"/>
  <path d="M147.425 37.7754C147.105 37.7754 146.805 37.6552 146.564 37.4149C146.104 36.9342 146.104 36.173 146.564 35.7124L162.687 19.8491C163.167 19.3884 163.929 19.3884 164.389 19.8491C164.85 20.3298 164.85 21.0909 164.389 21.5516L148.287 37.4149C148.046 37.6552 147.746 37.7554 147.445 37.7554L147.425 37.7754Z" fill="#094A70"/>
  <path d="M204.345 74.99H95.6333C84.2292 74.99 74.9844 84.2354 74.9844 95.6403V204.36C74.9844 215.765 84.2292 225.01 95.6333 225.01H204.345C215.75 225.01 224.994 215.765 224.994 204.36V95.6403C224.994 84.2354 215.75 74.99 204.345 74.99Z" fill="#1DAFCC"/>
  <path d="M204.366 76.5923C214.88 76.5923 223.412 85.1248 223.412 95.6403V204.36C223.412 214.875 214.88 223.408 204.366 223.408H95.6535C85.1388 223.408 76.6068 214.875 76.6068 204.36V95.6403C76.6068 85.1248 85.1388 76.5923 95.6535 76.5923H204.366ZM204.366 73.3876H95.6535C83.3763 73.3876 73.4023 83.3823 73.4023 95.6403V204.36C73.4023 216.638 83.3963 226.612 95.6535 226.612H204.366C216.643 226.612 226.617 216.618 226.617 204.36V95.6403C226.617 83.3623 216.623 73.3876 204.366 73.3876Z" fill="#005789"/>
  <path d="M134.69 155.168L102.745 173.434C100.141 174.917 98.5391 177.681 98.5391 180.685V186.173C98.5391 194.726 105.469 201.676 114.041 201.676H186.362C194.914 201.676 201.864 194.746 201.864 186.173V180.685C201.864 177.701 200.261 174.917 197.658 173.434L165.713 155.168H134.73H134.69Z" fill="#FCCD28"/>
  <path d="M186.341 203.278H114.02C104.587 203.278 96.916 195.607 96.916 186.173V180.685C96.916 177.12 98.8387 173.815 101.923 172.032L134.248 153.565H166.093L198.418 172.032C201.502 173.795 203.425 177.12 203.425 180.685V186.173C203.425 195.607 195.754 203.278 186.321 203.278H186.341ZM135.13 156.77L103.545 174.816C101.462 176.018 100.161 178.261 100.161 180.665V186.153C100.161 193.804 106.389 200.033 114.04 200.033H186.361C194.012 200.033 200.241 193.804 200.241 186.153V180.665C200.241 178.261 198.939 176.018 196.856 174.816L165.272 156.77H135.13Z" fill="#005788"/>
  <path d="M176.027 124.182C176.027 113.847 170.86 98.3643 150.211 98.3643C129.562 98.3643 124.395 113.867 124.395 124.182V129.35C124.395 144.852 134.729 160.335 150.211 160.335C165.692 160.335 176.027 144.832 176.027 129.35V124.182Z" fill="white"/>
  <path d="M150.19 161.937C133.247 161.937 122.752 145.013 122.752 129.33V124.162C122.752 120.256 123.473 112.765 128.24 106.416C133.066 99.9866 140.437 96.7419 150.19 96.7419C159.944 96.7419 167.314 100.007 172.141 106.416C176.908 112.785 177.629 120.276 177.629 124.162V129.33C177.629 145.013 167.134 161.937 150.19 161.937ZM150.19 99.9666C141.518 99.9666 134.989 102.791 130.823 108.359C127.739 112.465 125.976 118.233 125.976 124.182V129.35C125.976 143.47 135.229 158.733 150.19 158.733C161.827 158.733 174.404 147.496 174.404 129.35V124.182C174.404 118.233 172.642 112.465 169.557 108.359C165.372 102.791 158.863 99.9666 150.19 99.9666Z" fill="#005788"/>
  <path d="M251.092 201.596C251.092 198.465 248.554 195.927 245.424 195.927C242.293 195.927 239.756 198.465 239.756 201.596C239.756 204.726 242.293 207.264 245.424 207.264C248.554 207.264 251.092 204.726 251.092 201.596Z" fill="#B2F2FF"/>
  <path d="M245.424 208.466C241.639 208.466 238.555 205.381 238.555 201.596C238.555 197.81 241.639 194.726 245.424 194.726C249.21 194.726 252.294 197.81 252.294 201.596C252.294 205.381 249.21 208.466 245.424 208.466ZM245.424 197.129C242.961 197.129 240.958 199.132 240.958 201.596C240.958 204.059 242.961 206.062 245.424 206.062C247.888 206.062 249.891 204.059 249.891 201.596C249.891 199.132 247.888 197.129 245.424 197.129Z" fill="#005788"/>
  <path d="M251.092 183.449C251.092 180.319 248.554 177.781 245.424 177.781C242.293 177.781 239.756 180.319 239.756 183.449C239.756 186.58 242.293 189.117 245.424 189.117C248.554 189.117 251.092 186.58 251.092 183.449Z" fill="#B2F2FF"/>
  <path d="M245.424 190.339C241.639 190.339 238.555 187.255 238.555 183.469C238.555 179.684 241.639 176.599 245.424 176.599C249.21 176.599 252.294 179.684 252.294 183.469C252.294 187.255 249.21 190.339 245.424 190.339ZM245.424 179.003C242.961 179.003 240.958 181.005 240.958 183.469C240.958 185.933 242.961 187.936 245.424 187.936C247.888 187.936 249.891 185.933 249.891 183.469C249.891 181.005 247.888 179.003 245.424 179.003Z" fill="#005788"/>
  <path d="M251.092 165.322C251.092 162.192 248.554 159.654 245.424 159.654C242.293 159.654 239.756 162.192 239.756 165.322C239.756 168.453 242.293 170.991 245.424 170.991C248.554 170.991 251.092 168.453 251.092 165.322Z" fill="#B2F2FF"/>
  <path d="M245.424 172.193C241.639 172.193 238.555 169.108 238.555 165.322C238.555 161.537 241.639 158.452 245.424 158.452C249.21 158.452 252.294 161.537 252.294 165.322C252.294 169.108 249.21 172.193 245.424 172.193ZM245.424 160.856C242.961 160.856 240.958 162.859 240.958 165.322C240.958 167.786 242.961 169.789 245.424 169.789C247.888 169.789 249.891 167.786 249.891 165.322C249.891 162.859 247.888 160.856 245.424 160.856Z" fill="#005788"/>
  <path d="M60.2441 134.678C60.2441 131.547 57.7065 129.009 54.5761 129.009C51.4458 129.009 48.9082 131.547 48.9082 134.678C48.9082 137.808 51.4458 140.346 54.5761 140.346C57.7065 140.346 60.2441 137.808 60.2441 134.678Z" fill="#B2F2FF"/>
  <path d="M54.5766 141.568C50.7914 141.568 47.707 138.483 47.707 134.698C47.707 130.912 50.7914 127.828 54.5766 127.828C58.3619 127.828 61.4463 130.912 61.4463 134.698C61.4463 138.483 58.3619 141.568 54.5766 141.568ZM54.5766 130.231C52.1132 130.231 50.1104 132.234 50.1104 134.698C50.1104 137.161 52.1132 139.164 54.5766 139.164C57.0401 139.164 59.0429 137.161 59.0429 134.698C59.0429 132.234 57.0401 130.231 54.5766 130.231Z" fill="#005788"/>
  <path d="M60.2441 116.551C60.2441 113.42 57.7065 110.883 54.5761 110.883C51.4458 110.883 48.9082 113.42 48.9082 116.551C48.9082 119.681 51.4458 122.219 54.5761 122.219C57.7065 122.219 60.2441 119.681 60.2441 116.551Z" fill="#B2F2FF"/>
  <path d="M54.5766 123.421C50.7914 123.421 47.707 120.336 47.707 116.551C47.707 112.765 50.7914 109.681 54.5766 109.681C58.3619 109.681 61.4463 112.765 61.4463 116.551C61.4463 120.336 58.3619 123.421 54.5766 123.421ZM54.5766 112.084C52.1132 112.084 50.1104 114.087 50.1104 116.551C50.1104 119.014 52.1132 121.017 54.5766 121.017C57.0401 121.017 59.0429 119.014 59.0429 116.551C59.0429 114.087 57.0401 112.084 54.5766 112.084Z" fill="#005788"/>
  <path d="M60.2441 98.4043C60.2441 95.2738 57.7065 92.736 54.5761 92.736C51.4458 92.736 48.9082 95.2738 48.9082 98.4043C48.9082 101.535 51.4458 104.073 54.5761 104.073C57.7065 104.073 60.2441 101.535 60.2441 98.4043Z" fill="#B2F2FF"/>
  <path d="M54.5766 105.294C50.7914 105.294 47.707 102.21 47.707 98.4243C47.707 94.6388 50.7914 91.5543 54.5766 91.5543C58.3619 91.5543 61.4463 94.6388 61.4463 98.4243C61.4463 102.21 58.3619 105.294 54.5766 105.294ZM54.5766 93.9578C52.1132 93.9578 50.1104 95.9607 50.1104 98.4243C50.1104 100.888 52.1132 102.891 54.5766 102.891C57.0401 102.891 59.0429 100.888 59.0429 98.4243C59.0429 95.9607 57.0401 93.9578 54.5766 93.9578Z" fill="#005788"/>
  <path d="M149.99 298.798C164.292 298.798 175.886 287.203 175.886 272.9C175.886 258.597 164.292 247.002 149.99 247.002C135.688 247.002 124.094 258.597 124.094 272.9C124.094 287.203 135.688 298.798 149.99 298.798Z" fill="white"/>
  <path d="M149.989 300C135.048 300 122.871 287.842 122.871 272.88C122.871 257.918 135.028 245.76 149.989 245.76C164.95 245.76 177.107 257.918 177.107 272.88C177.107 287.842 164.95 300 149.989 300ZM149.989 248.184C136.37 248.184 125.294 259.26 125.294 272.88C125.294 286.5 136.37 297.577 149.989 297.577C163.608 297.577 174.684 286.5 174.684 272.88C174.684 259.26 163.608 248.184 149.989 248.184Z" fill="#094A70"/>
  <path d="M162.948 274.102H137.051C136.39 274.102 135.85 273.561 135.85 272.9C135.85 272.239 136.39 271.698 137.051 271.698H162.948C163.608 271.698 164.149 272.239 164.149 272.9C164.149 273.561 163.608 274.102 162.948 274.102Z" fill="#094A70"/>
  <path d="M149.989 287.061C149.328 287.061 148.787 286.52 148.787 285.859V259.961C148.787 259.3 149.328 258.76 149.989 258.76C150.65 258.76 151.19 259.3 151.19 259.961V285.859C151.19 286.52 150.65 287.061 149.989 287.061Z" fill="#094A70"/>
</svg>
