<svg xmlns="http://www.w3.org/2000/svg" version="1.1" x="0px" y="0px" viewBox="0 0 180 180" style="enable-background:new 0 0 180 180;">
  <path fill="#FFFFFF" stroke="#1E8BCB" stroke-width="2" d="M11.39,10h157.23c0.77,0,1.39,0.62,1.39,1.39v157.23c0,0.77-0.62,1.39-1.39,1.39H11.39   c-0.77,0-1.39-0.62-1.39-1.39V11.39C10,10.62,10.62,10,11.39,10z"/>
  <path fill="#084A70" d="M62.89,30.44c0,1.8-0.51,3.18-1.54,4.14c-1.02,0.95-2.51,1.44-4.45,1.44h-3.1V25.07h3.43   c1.79,0,3.18,0.47,4.17,1.41C62.4,27.43,62.89,28.75,62.89,30.44z M60.48,30.5c0-2.35-1.04-3.52-3.11-3.5h-1.24v7.1h0.99   C59.36,34.1,60.48,32.9,60.48,30.5z"/>
  <path fill="#084A70" d="M65.62,36.02V25.07h2.32v10.95H65.62z"/>
  <path fill="#084A70" d="M78.71,28.49c0.03,0.5-0.05,1.01-0.24,1.48c-0.19,0.47-0.49,0.89-0.86,1.22c-0.74,0.63-1.78,0.94-3.14,0.94h-1   v3.89h-2.3V25.07h3.5c1.33,0,2.34,0.29,3.03,0.88c0.35,0.32,0.62,0.71,0.8,1.15C78.67,27.54,78.74,28.01,78.71,28.49z M73.45,30.24   h0.78c0.57,0.04,1.13-0.12,1.6-0.44c0.18-0.15,0.32-0.34,0.42-0.55c0.09-0.21,0.13-0.45,0.12-0.68c0.02-0.22-0.01-0.44-0.09-0.65   c-0.08-0.21-0.2-0.4-0.35-0.55c-0.4-0.29-0.9-0.43-1.4-0.39h-1.06L73.45,30.24z"/>
  <path fill="#084A70" d="M81.24,36.02V25.07h2.32v9.03H88v1.92H81.24z"/>
  <path fill="#084A70" d="M100.29,30.53c0,1.81-0.45,3.2-1.34,4.18c-0.9,0.98-2.18,1.46-3.86,1.46c-1.68,0-2.97-0.49-3.86-1.46   c-0.9-0.97-1.35-2.37-1.35-4.19c0-1.82,0.45-3.21,1.35-4.17c0.9-0.96,2.19-1.44,3.87-1.44c1.68,0,2.97,0.48,3.86,1.45   C99.84,27.32,100.29,28.71,100.29,30.53z M92.3,30.53c0,1.22,0.23,2.14,0.7,2.76c0.25,0.31,0.56,0.56,0.93,0.72   c0.36,0.16,0.76,0.23,1.15,0.2c1.85,0,2.78-1.23,2.78-3.69s-0.92-3.69-2.76-3.7c-0.4-0.03-0.8,0.05-1.16,0.21   c-0.36,0.16-0.68,0.41-0.93,0.72C92.54,28.38,92.3,29.31,92.3,30.53z"/>
  <path fill="#084A70" d="M107.65,36.02l-2.63-8.59h-0.07c0.1,1.75,0.14,2.92,0.14,3.5v5.08h-2.08V25.07h3.16l2.59,8.37h0.04l2.75-8.37   h3.16v10.95h-2.16v-5.18c0-0.25,0-0.53,0-0.85c0-0.32,0.04-1.17,0.1-2.54h-0.07l-2.82,8.57H107.65z"/>
  <path fill="#084A70" d="M124.63,36.02l-0.79-2.63h-3.99l-0.79,2.63h-2.5l3.86-10.99h2.83l3.88,10.99H124.63z M123.29,31.47   c-0.73-2.36-1.15-3.7-1.24-4.01c-0.09-0.31-0.16-0.55-0.2-0.73c-0.17,0.64-0.64,2.22-1.41,4.74H123.29z"/>
  <path fill="#1E8BCB" d="M141.8,152.92H38.2c-1.48,0-2.89-0.59-3.94-1.63c-1.04-1.05-1.63-2.46-1.63-3.94v-86.7   c0-1.48,0.59-2.89,1.63-3.94c1.04-1.04,2.46-1.63,3.94-1.63H141.8c1.48,0,2.89,0.59,3.94,1.63c1.04,1.04,1.63,2.46,1.63,3.94v86.72   c-0.01,1.47-0.6,2.88-1.64,3.92S143.28,152.92,141.8,152.92z M38.2,57.71c-0.78,0-1.53,0.31-2.08,0.86   c-0.55,0.55-0.86,1.3-0.86,2.08v86.72c0,0.78,0.31,1.53,0.86,2.08c0.55,0.55,1.3,0.86,2.08,0.86H141.8c0.78,0,1.53-0.31,2.08-0.86   c0.55-0.55,0.86-1.3,0.86-2.08V60.65c0-0.78-0.31-1.53-0.86-2.08c-0.55-0.55-1.3-0.86-2.08-0.86H38.2z"/>
  <path fill="#084A70" d="M133.83,145.16H46.17c-1.19,0-2.33-0.47-3.17-1.31c-0.84-0.84-1.31-1.98-1.31-3.17V67.32   c0-1.19,0.47-2.32,1.31-3.16c0.84-0.84,1.98-1.31,3.16-1.31h87.66c1.19,0,2.32,0.47,3.16,1.31c0.84,0.84,1.31,1.98,1.31,3.16v73.36   c0,1.19-0.47,2.33-1.31,3.17C136.16,144.69,135.02,145.16,133.83,145.16z M46.17,64.6c-0.72,0-1.41,0.29-1.92,0.8   c-0.51,0.51-0.8,1.2-0.8,1.93v73.36c0,0.72,0.29,1.42,0.8,1.93c0.51,0.51,1.2,0.8,1.93,0.8h87.66c0.72,0,1.42-0.29,1.93-0.8   c0.51-0.51,0.8-1.2,0.8-1.93V67.32c0-0.72-0.29-1.41-0.8-1.93c-0.51-0.51-1.2-0.8-1.93-0.8H46.17z"/>
  <path fill="#1E8BCB" d="M126.62,83.16h-0.13c-24.27-2.29-48.71-2.29-72.98,0c-0.17,0.02-0.35,0-0.51-0.05   c-0.17-0.05-0.32-0.13-0.45-0.24c-0.13-0.11-0.24-0.25-0.33-0.4c-0.08-0.15-0.13-0.32-0.15-0.49c-0.02-0.17,0-0.35,0.05-0.51   c0.05-0.17,0.13-0.32,0.24-0.45c0.11-0.13,0.25-0.24,0.4-0.33c0.15-0.08,0.32-0.13,0.49-0.15c24.44-2.3,49.04-2.3,73.48,0   c0.35,0.02,0.68,0.17,0.91,0.43c0.23,0.26,0.36,0.6,0.34,0.95c-0.02,0.35-0.17,0.68-0.43,0.91   C127.31,83.05,126.97,83.18,126.62,83.16z"/>
  <path fill="#084A70" d="M123.81,93.77H56.2c-0.23,0-0.46-0.09-0.62-0.26c-0.16-0.16-0.26-0.39-0.26-0.62c0-0.23,0.09-0.46,0.26-0.62   c0.16-0.16,0.39-0.26,0.62-0.26h67.61c0.23,0,0.46,0.09,0.62,0.26c0.16,0.16,0.26,0.39,0.26,0.62c0,0.23-0.09,0.46-0.26,0.62   C124.26,93.68,124.04,93.77,123.81,93.77z"/>
  <path fill="#084A70" d="M123.81,126.69h-15.33c-0.23,0-0.46-0.09-0.62-0.26c-0.16-0.16-0.26-0.39-0.26-0.62   c0-0.23,0.09-0.46,0.26-0.62c0.16-0.16,0.39-0.26,0.62-0.26h15.33c0.23,0,0.46,0.09,0.62,0.26c0.16,0.16,0.26,0.39,0.26,0.62   c0,0.23-0.09,0.46-0.26,0.62C124.26,126.6,124.04,126.69,123.81,126.69z"/>
  <path fill="#084A70" d="M71.52,126.69H56.2c-0.23,0-0.46-0.09-0.62-0.26c-0.16-0.16-0.26-0.39-0.26-0.62c0-0.23,0.09-0.46,0.26-0.62   c0.16-0.16,0.39-0.26,0.62-0.26h15.33c0.23,0,0.46,0.09,0.62,0.26c0.16,0.16,0.26,0.39,0.26,0.62c0,0.23-0.09,0.46-0.26,0.62   C71.98,126.6,71.76,126.69,71.52,126.69z"/>
  <path fill="#084A70" d="M123.81,100.84H56.2c-0.23,0-0.46-0.09-0.62-0.26c-0.16-0.16-0.26-0.39-0.26-0.62c0-0.23,0.09-0.46,0.26-0.62   c0.16-0.16,0.39-0.26,0.62-0.26h67.61c0.23,0,0.46,0.09,0.62,0.26c0.16,0.16,0.26,0.39,0.26,0.62c0,0.23-0.09,0.46-0.26,0.62   C124.26,100.75,124.04,100.84,123.81,100.84z"/>
  <path fill="#084A70" d="M123.81,107.91H56.2c-0.23,0-0.46-0.09-0.62-0.26c-0.16-0.16-0.26-0.39-0.26-0.62c0-0.23,0.09-0.46,0.26-0.62   c0.16-0.16,0.39-0.26,0.62-0.26h67.61c0.23,0,0.46,0.09,0.62,0.26c0.16,0.16,0.26,0.39,0.26,0.62c0,0.23-0.09,0.46-0.26,0.62   C124.26,107.82,124.04,107.91,123.81,107.91z"/>
  <path fill="#084A70" d="M90,138.92c-1.49,0-2.52-0.99-3.13-1.58l-0.3-0.28l-0.44,0.06c-0.9,0.12-2.23,0.3-3.41-0.56   c-1.17-0.85-1.43-2.19-1.59-3.07c0-0.08-0.05-0.28-0.08-0.44l-0.38-0.21c-0.8-0.44-2-1.07-2.46-2.47   c-0.11-0.33-0.16-0.68-0.16-1.02c0.04-0.83,0.27-1.63,0.68-2.35c0.05-0.11,0.14-0.31,0.21-0.44c-0.04-0.11-0.11-0.25-0.21-0.44   c-0.41-0.72-0.64-1.53-0.68-2.36c0-0.35,0.06-0.69,0.16-1.02c0.44-1.41,1.66-2.05,2.45-2.47l0.38-0.21   c0.02-0.11,0.05-0.25,0.08-0.44c0.16-0.88,0.4-2.22,1.59-3.07c1.19-0.85,2.51-0.68,3.4-0.56l0.44,0.06l0.3-0.28   c0.66-0.63,1.64-1.58,3.13-1.58s2.47,0.95,3.13,1.58l0.31,0.29l0.44-0.05c0.88-0.12,2.22-0.3,3.4,0.56s1.42,2.19,1.59,3.07   c0,0.11,0.05,0.29,0.08,0.44l0.38,0.21c0.8,0.44,2,1.07,2.46,2.47c0.11,0.33,0.16,0.67,0.16,1.02c-0.04,0.83-0.27,1.64-0.68,2.36   c-0.05,0.1-0.14,0.3-0.21,0.44c0.07,0.15,0.17,0.36,0.21,0.44c0.41,0.72,0.64,1.53,0.68,2.36c0,0.35-0.05,0.69-0.16,1.02   c-0.44,1.41-1.71,2.08-2.46,2.47l-0.38,0.21c-0.03,0.15-0.07,0.35-0.08,0.44c-0.16,0.88-0.4,2.22-1.59,3.07   c-1.18,0.85-2.51,0.67-3.39,0.56l-0.44-0.06l-0.3,0.28C92.48,137.96,91.49,138.92,90,138.92z M86.74,135.3   c0.12,0,0.24,0.01,0.35,0.04c0.04,0.01,0.07,0.02,0.11,0.04c0.33,0.18,0.63,0.42,0.88,0.71c0.53,0.51,1.13,1.09,1.91,1.09   c0.78,0,1.36-0.55,1.91-1.09c0.25-0.28,0.55-0.52,0.88-0.7l0.11-0.04c0.4-0.07,0.81-0.05,1.21,0.04c0.76,0.11,1.54,0.21,2.15-0.24   c0.61-0.44,0.75-1.22,0.88-1.97c0.04-0.39,0.15-0.78,0.32-1.13c0.02-0.03,0.04-0.07,0.07-0.1c0.28-0.27,0.61-0.49,0.97-0.64   c0.65-0.35,1.38-0.74,1.62-1.47c0.05-0.16,0.07-0.32,0.07-0.48c-0.05-0.56-0.22-1.11-0.51-1.6c-0.23-0.36-0.38-0.77-0.44-1.19   c0.04-0.43,0.18-0.84,0.41-1.21c0.29-0.5,0.46-1.05,0.52-1.62c0-0.16-0.03-0.33-0.07-0.48c-0.24-0.73-0.94-1.11-1.62-1.47   c-0.36-0.15-0.68-0.37-0.96-0.64l-0.07-0.09c-0.18-0.35-0.29-0.74-0.32-1.13c-0.14-0.77-0.28-1.54-0.88-1.99   c-0.6-0.45-1.39-0.34-2.14-0.24c-0.39,0.09-0.8,0.1-1.2,0.04l-0.12-0.04c-0.33-0.19-0.63-0.43-0.88-0.71   c-0.56-0.53-1.13-1.09-1.91-1.09s-1.38,0.58-1.91,1.09c-0.25,0.28-0.55,0.52-0.88,0.71l-0.12,0.04c-0.4,0.07-0.81,0.05-1.21-0.04   c-0.75-0.1-1.53-0.21-2.14,0.24c-0.61,0.44-0.75,1.22-0.88,1.97c-0.04,0.39-0.15,0.78-0.32,1.13c-0.02,0.03-0.04,0.07-0.07,0.1   c-0.28,0.27-0.61,0.49-0.96,0.64c-0.69,0.37-1.38,0.74-1.62,1.47c-0.05,0.16-0.07,0.32-0.07,0.48c0.05,0.56,0.22,1.11,0.51,1.6   c0.23,0.36,0.38,0.77,0.44,1.19c-0.05,0.43-0.19,0.85-0.41,1.22c-0.29,0.49-0.46,1.04-0.51,1.61c0,0.16,0.02,0.32,0.07,0.48   c0.24,0.74,0.94,1.11,1.62,1.47c0.35,0.15,0.68,0.37,0.96,0.64c0.03,0.03,0.05,0.07,0.07,0.1c0.18,0.36,0.29,0.74,0.33,1.14   c0.14,0.75,0.27,1.52,0.88,1.98c0.6,0.45,1.38,0.34,2.14,0.24C86.17,135.33,86.45,135.31,86.74,135.3z"/>
</svg>
