<svg xmlns="http://www.w3.org/2000/svg" version="1.1" x="0px" y="0px" viewBox="0 0 260 180" enable-background="new 0 0 260 180">
  <linearGradient id="SVGID_1_" gradientUnits="userSpaceOnUse" x1="127.2398" y1="163.9946" x2="272.6272" y2="18.6072">
    <stop offset="0.0067" style="stop-color:#E3E3E3"/>
    <stop offset="0.956" style="stop-color:#FFFFFF;stop-opacity:0"/>
  </linearGradient>
  <path fill="url(#SVGID_1_)" d="M141.27,178.025l117.57-39.829l-0.383-133.76L153.711,31.723   c-0.647,19.708-12.905,33.35-32.239,37.284l14.04,14.217l7.779,16.041v71.872L141.27,178.025z"/>
  <path fill="#DDDDDD" d="M132.897,65.073c-3.522,1.874-7.367,3.205-11.425,3.934l11.856,23.742h-22.38H98.971v0.001    c0,12.844-10.45,23.291-23.295,23.291S52.386,105.595,52.386,92.75v-0.001H40.407H17.196l24.971-46.355h36.514    c-1.664-3.727-2.79-7.746-3.218-11.979H41.6c-4.057,0-7.787,2.227-9.711,5.8L3.024,93.8c-0.866,1.607-1.318,3.405-1.318,5.231    v68.305c0,6.093,4.938,11.031,11.031,11.031h125.88c6.093,0,11.031-4.938,11.031-11.031v-66.114c0-1.711-0.398-3.398-1.162-4.928    L132.897,65.073z M137.67,166.388H13.683v-61.659h28.855c4.911,13.573,17.875,23.291,33.14,23.291s28.229-9.718,33.138-23.291    h28.853V166.388z"/>
  <path fill="#E6E6E6" d="M114.487,18.125c-1.7,0-2.917,0.916-3.65,2.749c-0.733,1.833-1.1,4.847-1.1,9.043     s0.363,7.202,1.088,9.019s1.946,2.726,3.661,2.726c1.685,0,2.901-0.92,3.65-2.761c0.749-1.84,1.123-4.835,1.123-8.984     c0-4.196-0.378-7.21-1.135-9.043S116.156,18.125,114.487,18.125z"/>
  <path fill="#DDDDDD" d="M114.501,1.632c-15.9,0-28.791,12.89-28.791,28.79s12.89,28.79,28.791,28.79     c15.9,0,28.79-12.89,28.79-28.79S130.4,1.632,114.501,1.632z M123.53,43.182c-1.957,2.87-4.972,4.305-9.043,4.305     c-3.946,0-6.921-1.482-8.926-4.445c-2.004-2.963-3.006-7.339-3.006-13.125c0-6.036,0.975-10.485,2.924-13.347     c1.95-2.862,4.952-4.293,9.007-4.293c3.946,0,6.929,1.497,8.949,4.492s3.03,7.378,3.03,13.149     C126.466,35.89,125.487,40.312,123.53,43.182z"/>
  <path fill="#CECECE" d="M52.477,94.059c-0.024-0.436-0.066-0.868-0.066-1.309v-0.001H40.432H19.236l-0.706,1.31h23.211H52.477z"/>
  <polygon fill="#CECECE" points="139.004,106.039 137.695,106.039 137.695,166.388 15.017,166.388 15.017,167.698      139.004,167.698    "/>
  <path fill="#CECECE" d="M43.095,106.039c1.931,4.733,4.845,8.955,8.505,12.402c-3.37-3.522-6.036-7.725-7.728-12.402H43.095z"/>
  <path fill="#CECECE" d="M59.92,109.831c4.258,4.611,10.333,7.52,17.091,7.52c12.844,0,23.295-10.446,23.295-23.291v-0.001h11.977     h22.38l-11.856-23.742c3.86-0.694,7.507-1.968,10.887-3.7l-0.771-1.544c-3.522,1.874-7.367,3.205-11.425,3.934l11.856,23.742     h-22.38H98.996v0.001c0,12.844-10.45,23.291-23.295,23.291C69.61,116.041,64.075,113.672,59.92,109.831z"/>
  <path fill="#CECECE" d="M3.041,168.647v-68.305c0-1.826,0.452-3.623,1.318-5.231l28.865-53.585c1.924-3.572,5.654-5.8,9.711-5.8     h32.743c-0.059-0.438-0.143-0.868-0.188-1.31H41.625c-4.057,0-7.787,2.227-9.711,5.8L3.049,93.8     c-0.866,1.607-1.318,3.405-1.318,5.231v68.305c0,3.38,1.552,6.367,3.946,8.39C4.055,173.807,3.041,171.357,3.041,168.647z"/>
  <path fill="#CECECE" d="M112.16,40.246c-0.725-1.817-1.088-4.823-1.088-9.019s0.367-7.21,1.1-9.043s1.95-2.749,3.65-2.749    c0.694,0,1.291,0.197,1.827,0.514c-0.753-1.195-1.788-1.824-3.136-1.824c-1.7,0-2.917,0.916-3.65,2.749    c-0.733,1.833-1.1,4.847-1.1,9.043s0.363,7.202,1.088,9.019c0.422,1.058,1.033,1.77,1.791,2.212    C112.469,40.869,112.298,40.589,112.16,40.246z"/>
  <path fill="#D8D8D8" d="M115.822,48.797c4.071,0,7.085-1.435,9.043-4.305c1.957-2.87,2.936-7.292,2.936-13.266     c0-5.771-1.01-10.154-3.03-13.149c-0.612-0.907-1.342-1.63-2.131-2.262c0.273,0.319,0.577,0.589,0.822,0.952     c2.02,2.995,3.03,7.378,3.03,13.149c0,5.974-0.979,10.396-2.936,13.266s-4.972,4.305-9.043,4.305     c-2.757,0-5.01-0.768-6.819-2.215C109.663,47.576,112.343,48.797,115.822,48.797z"/>
  <path fill="#CECECE" d="M87.045,31.733c0-15.9,12.89-28.79,28.791-28.79c7.619,0,14.527,2.981,19.676,7.814     c-5.252-5.603-12.699-9.124-20.985-9.124c-15.9,0-28.791,12.89-28.791,28.79c0,8.281,3.516,15.724,9.114,20.976     C90.022,46.25,87.045,39.347,87.045,31.733z"/>
</svg>
