<svg xmlns="http://www.w3.org/2000/svg" version="1.1" x="0px" y="0px" viewBox="0 0 170.7 158" style="enable-background:new 0 0 170.7 158;">
  <linearGradient id="SVGID_1_" gradientUnits="userSpaceOnUse" x1="85.3488" y1="158.004" x2="85.3488" y2="1.5919">
    <stop offset="0" style="stop-color:#CFCFCF"/>
    <stop offset="1" style="stop-color:#E6E6E6"/>
  </linearGradient>
  <path fill="url(#SVGID_1_)" d="M154,54.2l-0.3-0.3L101.9,7.8c-9.3-8.2-23.3-8.2-32.6,0l-51,44.9c-0.5,0.5-0.9,0.7-1.4,1.3l-0.2,0.2l-0.1,0.1  c-1.2,1.4-1.9,3.2-1.9,5.2v90.4c0,4.5,3.6,8.1,8.1,8.1h125c4.5,0,8.1-3.6,8.1-8.1V59.5C155.9,57.5,155.2,55.6,154,54.2z"/>
  <path fill="#FFFFFF" d="M138.5,115.5H32.2c-3.1,0-5.7-2.6-5.7-5.7v-89c0-3.1,2.6-5.7,5.7-5.7h106.3c3.1,0,5.7,2.6,5.7,5.7v89    C144.2,112.9,141.6,115.5,138.5,115.5z"/>
  <path fill="#1DAFCC" d="M138.5,115.5H32.2c-3.1,0-5.7-2.6-5.7-5.7v-89c0-3.1,2.6-5.7,5.7-5.7h106.3c3.1,0,5.7,2.6,5.7,5.7v89     C144.2,112.9,141.6,115.5,138.5,115.5z M32.2,17.8c-1.7,0-3.1,1.4-3.1,3.1v89c0,1.7,1.4,3.1,3.1,3.1h106.3c1.7,0,3.1-1.4,3.1-3.1     v-89c0-1.7-1.4-3.1-3.1-3.1H32.2z"/>
  <path fill="#067A91" d="M130.3,107.6h-90c-2.6,0-4.7-2.1-4.7-4.7V27.7c0-2.6,2.1-4.7,4.7-4.7h90c2.6,0,4.7,2.1,4.7,4.7V103     C135,105.5,132.9,107.6,130.3,107.6z M40.4,25c-1.5,0-2.7,1.2-2.7,2.7V103c0,1.5,1.2,2.7,2.7,2.7h90c1.5,0,2.7-1.2,2.7-2.7V27.7     c0-1.5-1.2-2.7-2.7-2.7L40.4,25L40.4,25z"/>
  <path fill="#067A91" d="M120,54.9H50.7c-0.5,0-1-0.4-1-1s0.4-1,1-1H120c0.5,0,1,0.4,1,1S120.6,54.9,120,54.9z"/>
  <path fill="#067A91" d="M120,88.7h-15.7c-0.5,0-1-0.4-1-1s0.4-1,1-1H120c0.5,0,1,0.4,1,1S120.6,88.7,120,88.7z"/>
  <path fill="#067A91" d="M66.4,88.7H50.7c-0.5,0-1-0.4-1-1s0.4-1,1-1h15.7c0.5,0,1,0.4,1,1S66.9,88.7,66.4,88.7z"/>
  <path fill="#067A91" d="M120,62.2H50.7c-0.5,0-1-0.4-1-1c0-0.5,0.4-1,1-1H120c0.5,0,1,0.4,1,1C121,61.7,120.6,62.2,120,62.2z"/>
  <path fill="#067A91" d="M120,69.4H50.7c-0.5,0-1-0.4-1-1s0.4-1,1-1H120c0.5,0,1,0.4,1,1S120.6,69.4,120,69.4z"/>
  <path fill="#067A91" d="M85.3,101.2c-1.6,0-2.6-1-3.3-1.6c-0.1-0.1-0.2-0.2-0.3-0.3c-0.2,0-0.3,0-0.4,0.1c-0.9,0.1-2.3,0.3-3.6-0.6     c-1.2-0.9-1.5-2.3-1.7-3.2c0-0.1,0-0.3-0.1-0.4C76,95.1,75.8,95,75.7,95c-0.8-0.4-2.1-1.1-2.6-2.6c-0.1-0.3-0.2-0.7-0.2-1.1     c0-1,0.4-1.8,0.7-2.5c0-0.1,0.1-0.3,0.2-0.4c0-0.1-0.1-0.2-0.2-0.4c-0.3-0.7-0.7-1.5-0.7-2.5c0-0.4,0.1-0.7,0.2-1.1     c0.5-1.5,1.7-2.1,2.6-2.6c0.1,0,0.2-0.1,0.4-0.2c0-0.1,0-0.2,0.1-0.4c0.2-0.9,0.4-2.3,1.7-3.2c1.2-0.9,2.6-0.7,3.6-0.6     c0.1,0,0.3,0,0.4,0.1c0.1-0.1,0.2-0.2,0.3-0.3c0.6-0.6,1.7-1.7,3.3-1.7c1.6,0,2.6,1,3.3,1.6c0.1,0.1,0.2,0.2,0.3,0.3     c0.2,0,0.3,0,0.4-0.1c0.9-0.1,2.3-0.3,3.6,0.6c1.2,0.9,1.5,2.3,1.7,3.2c0,0.1,0,0.3,0.1,0.4c0.1,0.1,0.3,0.2,0.3,0.2     c0.8,0.4,2.1,1.1,2.6,2.6c0.1,0.3,0.2,0.7,0.2,1.1c0,1-0.4,1.8-0.7,2.5c0,0.1-0.1,0.3-0.2,0.4c0.1,0.2,0.2,0.3,0.2,0.4     c0.3,0.7,0.7,1.5,0.7,2.5c0,0.4-0.1,0.7-0.2,1.1C97,93.9,95.7,94.6,95,95c-0.1,0-0.2,0.1-0.4,0.2c0,0.1-0.1,0.3-0.1,0.4     c-0.2,0.9-0.4,2.3-1.7,3.2c-1.2,0.9-2.6,0.7-3.6,0.6c-0.1,0-0.3,0-0.4-0.1c-0.1,0.1-0.2,0.2-0.3,0.3     C87.9,100.3,86.9,101.2,85.3,101.2z M82,99.3L82,99.3L82,99.3z M82,97.3c0.1,0,0.3,0,0.4,0c0,0,0.1,0,0.1,0     c0.3,0.1,0.5,0.3,0.9,0.7c0.5,0.5,1.1,1.1,1.9,1.1c0.8,0,1.3-0.6,1.9-1.1c0.5-0.4,0.7-0.6,0.9-0.7c0,0,0.1,0,0.1,0     c0.3-0.1,0.6-0.1,1.3,0c0.8,0.1,1.5,0.2,2.1-0.2c0.6-0.4,0.7-1.2,0.9-2c0.1-0.6,0.2-1,0.3-1.2c0,0,0.1-0.1,0.1-0.1     c0.2-0.2,0.4-0.4,1-0.7c0.7-0.4,1.4-0.7,1.6-1.5c0-0.1,0.1-0.3,0.1-0.5c0-0.5-0.3-1.1-0.5-1.6c-0.3-0.6-0.4-0.9-0.4-1.3     c0,0,0,0,0,0c0-0.3,0.1-0.6,0.4-1.2c0.3-0.5,0.5-1.1,0.5-1.6c0-0.2,0-0.3-0.1-0.5c-0.2-0.7-0.9-1.1-1.6-1.5     c-0.6-0.3-0.8-0.5-1-0.7c0,0-0.1-0.1-0.1-0.1c-0.2-0.2-0.2-0.5-0.3-1.2c-0.1-0.8-0.3-1.6-0.9-2c-0.6-0.4-1.4-0.3-2.1-0.2     c-0.7,0.1-1,0.1-1.3,0c0,0-0.1,0-0.1,0c-0.2-0.1-0.4-0.3-0.9-0.7c-0.6-0.5-1.1-1.1-1.9-1.1s-1.4,0.6-1.9,1.1     c-0.5,0.5-0.7,0.6-0.9,0.7c0,0-0.1,0-0.1,0c-0.3,0.1-0.6,0.1-1.3,0c-0.8-0.1-1.5-0.2-2.1,0.2c-0.6,0.4-0.7,1.2-0.9,2     c-0.1,0.6-0.2,1-0.3,1.2c0,0,0,0.1-0.1,0.1c-0.2,0.2-0.5,0.4-1,0.7C76,84,75.3,84.4,75,85.1c0,0.1-0.1,0.3-0.1,0.5     c0,0.5,0.3,1.1,0.5,1.6c0.3,0.6,0.4,0.9,0.4,1.3c0,0,0,0,0,0c0,0.3-0.1,0.6-0.4,1.2c-0.3,0.5-0.5,1.1-0.5,1.6     c0,0.2,0,0.3,0.1,0.5c0.2,0.7,0.9,1.1,1.6,1.5c0.6,0.3,0.8,0.5,1,0.7c0,0,0.1,0.1,0.1,0.1c0.2,0.2,0.2,0.6,0.3,1.2     c0.1,0.8,0.3,1.5,0.9,2c0.6,0.4,1.4,0.3,2.1,0.2C81.5,97.4,81.8,97.3,82,97.3z"/>
  <path fill="#067A91" d="M50.2,43.5c0.6,0.6,1.6,0.8,2.4,0.4c7.9-4.1,19.6-6.6,32.7-6.6c13.1,0,24.8,2.6,32.7,6.6     c0.8,0.4,1.8,0.3,2.4-0.4v0c1-1,0.7-2.7-0.5-3.3c-0.7-0.4-1.5-0.7-2.3-1.1c-8.7-3.9-20.2-6-32.3-6s-23.6,2.1-32.3,6     c-0.8,0.4-1.6,0.7-2.3,1.1C49.5,40.8,49.3,42.5,50.2,43.5L50.2,43.5z"/>
  <linearGradient id="SVGID_2_" gradientUnits="userSpaceOnUse" x1="85.3488" y1="156.8062" x2="85.3488" y2="87.6823">
    <stop offset="0" style="stop-color:#F4F4F4"/>
    <stop offset="1" style="stop-color:#FFFFFF"/>
  </linearGradient>
  <path fill="url(#SVGID_2_)" d="M78.3,90.6l-62.8,62.8c0.7,1.4,1.8,2.6,3.1,3.4l62.9-63c1-1,2.3-1.6,3.8-1.6c1.4,0,2.8,0.6,3.8,1.6l62.9,63  c1.3-0.8,2.4-2,3.1-3.4L92.4,90.6C88.5,86.7,82.2,86.7,78.3,90.6z"/>
  <linearGradient id="SVGID_3_" gradientUnits="userSpaceOnUse" x1="39.8846" y1="107.194" x2="39.8846" y2="55.1051">
    <stop offset="0" style="stop-color:#F4F4F4"/>
    <stop offset="1" style="stop-color:#F4F4F4"/>
  </linearGradient>
  <path fill="url(#SVGID_3_)" d="M65,103.9L16.3,55.1c-0.9,1.3-1.5,2.9-1.5,4.7v0.4l47,47L65,103.9z"/>
  <linearGradient id="SVGID_4_" gradientUnits="userSpaceOnUse" x1="130.6365" y1="106.8251" x2="130.6365" y2="54.3798">
    <stop offset="0" style="stop-color:#F4F4F4"/>
    <stop offset="1" style="stop-color:#F4F4F4"/>
  </linearGradient>
  <path fill="url(#SVGID_4_)" d="M154.5,54.4l-49.2,49.2l3.3,3.3l47.4-47.4v-0.4C155.9,57.4,155.4,55.7,154.5,54.4z"/>
  <linearGradient id="SVGID_5_" gradientUnits="userSpaceOnUse" x1="85.3488" y1="157.8589" x2="85.3488" y2="92.1559">
    <stop offset="0" style="stop-color:#E6E6E6"/>
    <stop offset="1" style="stop-color:#F4F4F4"/>
  </linearGradient>
  <path fill="url(#SVGID_5_)" d="M89.1,93.7c-1-1-2.3-1.6-3.8-1.6c-1.4,0-2.8,0.6-3.8,1.6l-62.9,63c1.2,0.8,2.7,1.2,4.2,1.2h125   c1.5,0,3-0.4,4.2-1.2L89.1,93.7z"/>
  <linearGradient id="SVGID_6_" gradientUnits="userSpaceOnUse" x1="38.252" y1="153.3768" x2="38.252" y2="60.2271">
    <stop offset="0" style="stop-color:#E6E6E6"/>
    <stop offset="1" style="stop-color:#F4F4F4"/>
  </linearGradient>
  <path fill="url(#SVGID_6_)" d="M61.7,107.2l-47-47v89.7c0,1.2,0.3,2.4,0.8,3.5L61.7,107.2z"/>
  <linearGradient id="SVGID_7_" gradientUnits="userSpaceOnUse" x1="132.2611" y1="153.3768" x2="132.2611" y2="59.4692">
    <stop offset="0" style="stop-color:#E6E6E6"/>
    <stop offset="1" style="stop-color:#F4F4F4"/>
  </linearGradient>
  <path fill="url(#SVGID_7_)" d="M155.6,59.5v0.4l-47,47l46.6,46.6c0.5-1.1,0.8-2.2,0.8-3.5V59.5"/>
</svg>
