<svg xmlns="http://www.w3.org/2000/svg" version="1.1" x="0px" y="0px" viewBox="0 0 170.7 158" style="enable-background:new 0 0 170.7 158;">
  <linearGradient id="SVGID_1_" gradientUnits="userSpaceOnUse" x1="85.3488" y1="7876.0054" x2="85.3488" y2="7806.8813" gradientTransform="matrix(1 0 0 -1 0 7929.6519)">
    <stop offset="0" style="stop-color:#F4F4F4"/>
    <stop offset="1" style="stop-color:#FFFFFF"/>
  </linearGradient>
  <path fill="url(#SVGID_1_)" d="M78.3,119.9L15.6,57.1c0.7-1.4,1.8-2.6,3.1-3.4l62.9,63c1,1,2.3,1.6,3.8,1.6c1.4,0,2.8-0.6,3.8-1.6l62.9-63  c1.3,0.8,2.4,2,3.1,3.4l-62.8,62.8C88.5,123.7,82.2,123.7,78.3,119.9z"/>
  <linearGradient id="SVGID_2_" gradientUnits="userSpaceOnUse" x1="85.3488" y1="7877.0581" x2="85.3488" y2="7811.355" gradientTransform="matrix(1 0 0 -1 0 7929.6519)">
    <stop offset="0" style="stop-color:#E6E6E6"/>
    <stop offset="1" style="stop-color:#F4F4F4"/>
  </linearGradient>
  <path fill="url(#SVGID_2_)" d="M89.1,116.7c-1,1-2.3,1.6-3.8,1.6c-1.4,0-2.8-0.6-3.8-1.6l-62.9-63c1.2-0.8,2.7-1.2,4.2-1.2h125   c1.5,0,3,0.4,4.2,1.2L89.1,116.7z"/>
</svg>
