<svg xmlns="http://www.w3.org/2000/svg" version="1.1" x="0px" y="0px" viewBox="0 0 180 180" style="enable-background:new 0 0 180 180;">
  <path fill="#FFFFFF" stroke="#1E8BCB" stroke-width="2" d="M11.39,10h157.23c0.77,0,1.39,0.62,1.39,1.39v157.23c0,0.77-0.62,1.39-1.39,1.39H11.39   c-0.77,0-1.39-0.62-1.39-1.39V11.39C10,10.62,10.62,10,11.39,10z"/>
  <path fill="#FFFFFF" d="M141.81,59.9H38.2c-2.35,0-4.26,1.91-4.26,4.26v86.7c0,2.35,1.91,4.26,4.26,4.26h103.61   c2.35,0,4.26-1.91,4.26-4.26v-86.7C146.06,61.81,144.16,59.9,141.81,59.9z"/>
  <path fill="#1E8BCB" d="M140.02,84.81H39.98c-0.35,0-0.68-0.14-0.93-0.38s-0.38-0.58-0.38-0.93c0-0.35,0.14-0.68,0.38-0.93   c0.25-0.25,0.58-0.38,0.93-0.38h100.04c0.35,0,0.68,0.14,0.93,0.38c0.25,0.25,0.38,0.58,0.38,0.93c0,0.35-0.14,0.68-0.38,0.93   C140.71,84.67,140.37,84.81,140.02,84.81z"/>
  <path fill="#084A70" d="M54.09,108.85c-1.39,0-2.74-0.41-3.89-1.18c-1.15-0.77-2.05-1.86-2.58-3.14c-0.53-1.28-0.67-2.69-0.4-4.05   s0.94-2.61,1.92-3.59c0.98-0.98,2.23-1.65,3.59-1.92c1.36-0.27,2.77-0.13,4.05,0.4c1.28,0.53,2.37,1.43,3.14,2.58   c0.77,1.15,1.18,2.51,1.18,3.89c0,1.86-0.74,3.64-2.05,4.96C57.73,108.11,55.95,108.85,54.09,108.85z M54.09,96.59   c-1.04,0-2.06,0.31-2.92,0.89c-0.86,0.58-1.54,1.4-1.94,2.36c-0.4,0.96-0.5,2.02-0.3,3.04c0.2,1.02,0.7,1.96,1.44,2.69   c0.74,0.74,1.67,1.24,2.69,1.44c1.02,0.2,2.08,0.1,3.04-0.3c0.96-0.4,1.78-1.07,2.36-1.94c0.58-0.86,0.89-1.88,0.89-2.92   c0-1.39-0.56-2.73-1.54-3.71C56.82,97.15,55.48,96.6,54.09,96.59L54.09,96.59z"/>
  <path fill="#084A70" d="M89.66,108.85c-1.39,0-2.74-0.41-3.89-1.18c-1.15-0.77-2.05-1.86-2.58-3.14c-0.53-1.28-0.67-2.69-0.4-4.05   s0.94-2.61,1.92-3.59c0.98-0.98,2.23-1.65,3.59-1.92s2.77-0.13,4.05,0.4c1.28,0.53,2.37,1.43,3.14,2.58   c0.77,1.15,1.18,2.51,1.18,3.89c0,1.86-0.74,3.64-2.05,4.96C93.31,108.11,91.52,108.85,89.66,108.85z M89.66,96.59   c-1.04,0-2.06,0.31-2.92,0.89c-0.86,0.58-1.54,1.4-1.94,2.36c-0.4,0.96-0.5,2.02-0.3,3.04c0.2,1.02,0.7,1.96,1.44,2.69   c0.74,0.74,1.67,1.24,2.69,1.44c1.02,0.2,2.08,0.1,3.04-0.3c0.96-0.4,1.78-1.07,2.36-1.94c0.58-0.86,0.89-1.88,0.89-2.92   c0-1.39-0.56-2.73-1.54-3.71C92.39,97.15,91.06,96.6,89.66,96.59L89.66,96.59z"/>
  <path fill="#084A70" d="M125.26,108.85c-1.39,0-2.74-0.41-3.89-1.18c-1.15-0.77-2.05-1.86-2.58-3.14c-0.53-1.28-0.67-2.69-0.4-4.05   c0.27-1.36,0.94-2.61,1.92-3.59c0.98-0.98,2.23-1.65,3.59-1.92s2.77-0.13,4.05,0.4c1.28,0.53,2.37,1.43,3.14,2.58   c0.77,1.15,1.18,2.51,1.18,3.89c0,1.86-0.74,3.64-2.05,4.96C128.9,108.11,127.12,108.85,125.26,108.85z M125.26,96.59   c-1.04,0-2.06,0.31-2.92,0.89c-0.86,0.58-1.54,1.4-1.94,2.36c-0.4,0.96-0.5,2.02-0.3,3.04c0.2,1.02,0.7,1.96,1.44,2.69   c0.74,0.74,1.67,1.24,2.69,1.44c1.02,0.2,2.08,0.1,3.04-0.3s1.78-1.07,2.36-1.94c0.58-0.86,0.89-1.88,0.89-2.92   c0-1.39-0.56-2.73-1.54-3.71C127.99,97.15,126.66,96.6,125.26,96.59L125.26,96.59z"/>
  <path fill="#084A70" d="M125.26,108.83c-0.23,0-0.46-0.09-0.62-0.26c-0.16-0.16-0.26-0.39-0.26-0.62V96.08c0-0.23,0.09-0.46,0.26-0.62   c0.16-0.16,0.39-0.26,0.62-0.26c0.23,0,0.46,0.09,0.62,0.26c0.16,0.16,0.26,0.39,0.26,0.62v11.87c0,0.23-0.09,0.46-0.26,0.62   C125.72,108.74,125.5,108.83,125.26,108.83z"/>
  <path fill="#084A70" d="M83.63,100.97H60.19v1.75h23.44V100.97z"/>
  <path fill="#084A70" d="M119.23,100.97H95.79v1.75h23.44V100.97z"/>
  <path fill="#084A70" d="M53.46,104.96c-0.23,0-0.45-0.09-0.62-0.25l-2.08-2.08c-0.15-0.17-0.23-0.39-0.23-0.61   c0.01-0.22,0.1-0.44,0.26-0.6c0.16-0.16,0.37-0.25,0.6-0.26c0.22-0.01,0.44,0.08,0.61,0.23l2.08,2.08c0.12,0.12,0.2,0.28,0.24,0.45   c0.03,0.17,0.02,0.35-0.05,0.51c-0.07,0.16-0.18,0.3-0.32,0.39C53.8,104.91,53.63,104.96,53.46,104.96z"/>
  <path fill="#084A70" d="M53.46,104.96c-0.12,0-0.23-0.02-0.34-0.07c-0.11-0.04-0.2-0.11-0.29-0.19c-0.08-0.08-0.15-0.18-0.19-0.28   c-0.04-0.11-0.07-0.22-0.07-0.34c0-0.12,0.02-0.23,0.07-0.34c0.04-0.11,0.11-0.2,0.19-0.28l3.81-3.75   c0.08-0.08,0.18-0.14,0.29-0.19c0.11-0.04,0.22-0.07,0.34-0.06c0.12,0,0.23,0.02,0.33,0.07c0.11,0.04,0.2,0.11,0.28,0.19   c0.08,0.08,0.14,0.18,0.19,0.29c0.04,0.11,0.07,0.22,0.06,0.34c0,0.12-0.02,0.23-0.07,0.33c-0.04,0.11-0.11,0.2-0.19,0.28   l-3.81,3.75C53.9,104.87,53.69,104.96,53.46,104.96z"/>
  <path fill="#084A70" d="M88.8,104.96c-0.12,0-0.23-0.02-0.34-0.06c-0.11-0.04-0.2-0.11-0.29-0.19l-2.08-2.08   c-0.15-0.17-0.23-0.39-0.23-0.61c0.01-0.22,0.1-0.44,0.26-0.6c0.16-0.16,0.37-0.25,0.6-0.26c0.22-0.01,0.44,0.08,0.61,0.23   l2.08,2.08c0.08,0.08,0.15,0.18,0.19,0.28c0.04,0.11,0.07,0.22,0.07,0.34c0,0.12-0.02,0.23-0.07,0.34   c-0.04,0.11-0.11,0.2-0.19,0.28C89.26,104.87,89.03,104.96,88.8,104.96z"/>
  <path fill="#084A70" d="M88.8,104.96c-0.17,0-0.34-0.05-0.49-0.15c-0.14-0.1-0.26-0.23-0.32-0.39c-0.07-0.16-0.08-0.34-0.05-0.51   c0.03-0.17,0.12-0.33,0.24-0.45L92,99.71c0.08-0.09,0.18-0.16,0.29-0.21c0.11-0.05,0.23-0.07,0.34-0.08c0.12,0,0.24,0.02,0.35,0.07   c0.11,0.04,0.21,0.11,0.29,0.2c0.08,0.08,0.15,0.19,0.19,0.3c0.04,0.11,0.06,0.23,0.06,0.35c0,0.12-0.03,0.24-0.08,0.34   c-0.05,0.11-0.12,0.2-0.21,0.28l-3.81,3.75C89.25,104.87,89.03,104.96,88.8,104.96z"/>
  <path fill="#1E8BCB" d="M141.8,156.42H38.2c-1.48,0-2.89-0.59-3.94-1.63c-1.04-1.04-1.63-2.46-1.63-3.94v-86.7   c0-1.48,0.59-2.89,1.63-3.94c1.04-1.04,2.46-1.63,3.94-1.63H141.8c1.48,0,2.89,0.59,3.94,1.63c1.04,1.04,1.63,2.46,1.63,3.94v86.72   c-0.01,1.47-0.6,2.88-1.64,3.92S143.28,156.42,141.8,156.42z M38.2,61.21c-0.78,0-1.53,0.31-2.08,0.86   c-0.55,0.55-0.86,1.3-0.86,2.08v86.72c0,0.78,0.31,1.53,0.86,2.08c0.55,0.55,1.3,0.86,2.08,0.86H141.8c0.78,0,1.53-0.31,2.08-0.86   c0.55-0.55,0.86-1.3,0.86-2.08V64.16c0-0.78-0.31-1.53-0.86-2.08c-0.55-0.55-1.3-0.86-2.08-0.86H38.2z"/>
  <path fill="#084A70" d="M129.57,72.76H51.59c-0.23,0-0.46-0.09-0.62-0.26c-0.16-0.16-0.26-0.39-0.26-0.62c0-0.23,0.09-0.46,0.26-0.62   c0.16-0.16,0.39-0.26,0.62-0.26h77.98c0.23,0,0.46,0.09,0.62,0.26c0.16,0.16,0.26,0.39,0.26,0.62c0,0.23-0.09,0.46-0.26,0.62   C130.03,72.67,129.8,72.76,129.57,72.76z"/>
  <path fill="#084A70" d="M80.9,134.73H51.31c-0.72,0-1.41-0.29-1.92-0.8c-0.51-0.51-0.8-1.2-0.8-1.92v-1.62c0-0.72,0.29-1.41,0.8-1.92   c0.51-0.51,1.2-0.8,1.92-0.8H80.9c0.23,0,0.46,0.09,0.62,0.26c0.16,0.16,0.26,0.39,0.26,0.62v5.3c0,0.23-0.09,0.46-0.26,0.62   C81.36,134.64,81.13,134.73,80.9,134.73z M51.31,129.42c-0.26,0-0.5,0.1-0.68,0.28c-0.18,0.18-0.28,0.43-0.28,0.68v1.62   c0,0.26,0.1,0.5,0.28,0.68c0.18,0.18,0.43,0.28,0.68,0.28h28.71v-3.55H51.31z"/>
  <path fill="#084A70" d="M85.1,134.73H51.05c-0.77,0-1.51-0.31-2.05-0.85c-0.55-0.54-0.85-1.28-0.85-2.05v-1.25   c0-0.77,0.31-1.51,0.85-2.05s1.28-0.85,2.05-0.85H85.1c0.77,0,1.51,0.31,2.05,0.85s0.85,1.28,0.85,2.05v1.25   c0,0.77-0.31,1.51-0.85,2.05C86.61,134.42,85.87,134.73,85.1,134.73z M51.05,129.42c-0.31,0-0.6,0.12-0.82,0.34   c-0.22,0.22-0.34,0.51-0.34,0.81v1.25c0,0.31,0.12,0.6,0.34,0.81c0.22,0.22,0.51,0.34,0.82,0.34H85.1c0.31,0,0.6-0.12,0.82-0.34   c0.22-0.22,0.34-0.51,0.34-0.81v-1.25c0-0.31-0.12-0.6-0.34-0.81c-0.22-0.22-0.51-0.34-0.82-0.34H51.05z"/>
  <path fill="#084A70" d="M62.95,144.7H50.79c-0.7,0-1.37-0.28-1.86-0.77c-0.49-0.49-0.77-1.16-0.77-1.86v-1.79   c0-0.7,0.28-1.37,0.77-1.86c0.49-0.49,1.16-0.77,1.86-0.77h12.17c0.23,0,0.46,0.09,0.62,0.26c0.16,0.16,0.26,0.39,0.26,0.62v5.31   c0,0.23-0.1,0.45-0.26,0.61C63.4,144.61,63.18,144.7,62.95,144.7z M50.79,139.39c-0.23,0-0.46,0.09-0.62,0.26   c-0.16,0.16-0.26,0.39-0.26,0.62v1.77c0,0.23,0.09,0.46,0.26,0.62c0.16,0.16,0.39,0.26,0.62,0.26h11.29v-3.56L50.79,139.39z"/>
  <path fill="#084A70" d="M85.1,144.7H51.05c-0.77,0-1.51-0.31-2.06-0.85c-0.55-0.55-0.85-1.28-0.85-2.05v-1.25   c0-0.77,0.31-1.51,0.85-2.05c0.54-0.54,1.28-0.85,2.05-0.85H85.1c0.77,0,1.51,0.31,2.05,0.85c0.54,0.54,0.85,1.28,0.85,2.05v1.25   c0,0.77-0.31,1.51-0.85,2.05C86.61,144.39,85.87,144.69,85.1,144.7z M51.05,139.39c-0.31,0-0.6,0.12-0.82,0.34   c-0.22,0.22-0.34,0.51-0.34,0.81v1.25c0,0.31,0.12,0.6,0.34,0.82c0.22,0.22,0.51,0.34,0.82,0.34H85.1c0.31,0,0.6-0.12,0.82-0.34   c0.22-0.22,0.34-0.51,0.34-0.82v-1.25c0-0.31-0.12-0.6-0.34-0.81c-0.22-0.22-0.51-0.34-0.82-0.34H51.05z"/>
  <path fill="#084A70" d="M85.1,124.76H51.05c-0.77,0-1.51-0.31-2.05-0.85c-0.54-0.54-0.85-1.28-0.85-2.05v-1.25   c0-0.77,0.31-1.51,0.85-2.06c0.55-0.55,1.28-0.85,2.06-0.85H85.1c0.77,0,1.51,0.31,2.06,0.85c0.55,0.55,0.85,1.28,0.85,2.06v1.25   c0,0.77-0.31,1.51-0.85,2.05C86.61,124.46,85.87,124.76,85.1,124.76z M51.05,119.46c-0.31,0-0.6,0.12-0.82,0.34   c-0.22,0.22-0.34,0.51-0.34,0.82v1.25c0,0.31,0.12,0.6,0.34,0.81c0.22,0.22,0.51,0.34,0.82,0.34H85.1c0.31,0,0.6-0.12,0.82-0.34   c0.22-0.22,0.34-0.51,0.34-0.81v-1.25c0-0.31-0.12-0.6-0.34-0.82c-0.22-0.22-0.51-0.34-0.82-0.34H51.05z"/>
  <path fill="#084A70" d="M116.87,149.07c-3.59,0-7.1-1.07-10.09-3.06c-2.99-2-5.31-4.83-6.69-8.15c-1.37-3.32-1.73-6.97-1.03-10.49   c0.7-3.52,2.43-6.76,4.97-9.3c2.54-2.54,5.78-4.27,9.3-4.97c3.52-0.7,7.17-0.34,10.49,1.03c3.32,1.37,6.15,3.7,8.15,6.69   c2,2.99,3.06,6.5,3.06,10.09c-0.01,4.81-1.92,9.43-5.33,12.83C126.3,147.15,121.68,149.06,116.87,149.07z M116.87,114.5   c-3.24,0-6.42,0.96-9.11,2.77c-2.7,1.8-4.8,4.37-6.04,7.36c-1.24,3-1.57,6.3-0.93,9.48c0.63,3.18,2.2,6.11,4.49,8.4   c2.29,2.29,5.22,3.86,8.4,4.49c3.18,0.63,6.48,0.31,9.48-0.93c3-1.24,5.56-3.34,7.36-6.04c1.8-2.7,2.76-5.87,2.76-9.11   c0-4.35-1.74-8.52-4.81-11.6C125.39,116.24,121.22,114.51,116.87,114.5z"/>
  <path fill="#084A70" d="M116.87,137.45c-1.29,0-2.56-0.38-3.64-1.1c-1.08-0.72-1.91-1.74-2.41-2.94c-0.5-1.2-0.62-2.51-0.37-3.78   c0.25-1.27,0.88-2.44,1.79-3.35c0.92-0.91,2.08-1.54,3.35-1.79c1.27-0.25,2.59-0.12,3.78,0.37c1.2,0.5,2.22,1.34,2.94,2.41   c0.72,1.08,1.1,2.34,1.1,3.64c-0.01,1.73-0.7,3.39-1.93,4.62C120.26,136.75,118.6,137.44,116.87,137.45z M116.87,126.12   c-0.95,0-1.87,0.28-2.66,0.81c-0.79,0.53-1.4,1.27-1.76,2.15c-0.36,0.88-0.46,1.84-0.27,2.77c0.18,0.93,0.64,1.78,1.31,2.45   s1.52,1.13,2.45,1.31c0.93,0.18,1.89,0.09,2.77-0.27c0.88-0.36,1.62-0.98,2.15-1.76c0.53-0.79,0.81-1.71,0.81-2.66   c0-1.27-0.51-2.48-1.41-3.38c-0.9-0.9-2.11-1.4-3.38-1.4V126.12z"/>
  <path fill="#084A70" d="M116.87,126.13c-0.23,0-0.46-0.09-0.62-0.26c-0.16-0.16-0.26-0.39-0.26-0.62v-11.63   c0-0.23,0.09-0.46,0.26-0.62c0.16-0.16,0.39-0.26,0.62-0.26c0.23,0,0.46,0.09,0.62,0.26c0.16,0.16,0.26,0.39,0.26,0.62v11.63   c0,0.23-0.09,0.46-0.26,0.62C117.32,126.04,117.1,126.13,116.87,126.13z"/>
  <path fill="#084A70" d="M111.2,131.78H99.59c-0.23,0-0.46-0.09-0.62-0.26c-0.16-0.16-0.26-0.39-0.26-0.62c0-0.23,0.09-0.46,0.26-0.62   c0.16-0.16,0.39-0.26,0.62-0.26h11.62c0.23,0,0.46,0.09,0.62,0.26c0.16,0.16,0.26,0.39,0.26,0.62c0,0.23-0.09,0.46-0.26,0.62   C111.66,131.69,111.44,131.78,111.2,131.78z"/>
  <path fill="#084A70" d="M41.7,30.76h-6.3V19.81h6.3v1.91h-3.98v2.4h3.71v1.9h-3.71v2.82h3.98V30.76z"/>
  <path fill="#084A70" d="M53.3,30.76h-2.63l-2.54-4.14l-2.55,4.14h-2.51l3.63-5.65l-3.4-5.3h2.56l2.36,3.94l2.31-3.94h2.5l-3.44,5.43   L53.3,30.76z"/>
  <path fill="#084A70" d="M62.69,23.23c0.03,0.5-0.05,1.01-0.24,1.48c-0.19,0.47-0.49,0.89-0.86,1.22c-0.74,0.62-1.78,0.94-3.14,0.94   h-0.99v3.89h-2.32V19.81h3.5c1.31,0,2.34,0.28,3.03,0.88c0.35,0.32,0.63,0.71,0.81,1.15C62.65,22.28,62.72,22.76,62.69,23.23z    M57.43,24.98h0.76c0.57,0.04,1.13-0.12,1.6-0.44c0.18-0.15,0.32-0.34,0.41-0.55c0.09-0.21,0.13-0.45,0.12-0.68   c0.02-0.22-0.01-0.44-0.09-0.65c-0.08-0.21-0.2-0.4-0.35-0.55c-0.4-0.29-0.9-0.43-1.39-0.39h-1.06L57.43,24.98z"/>
  <path fill="#084A70" d="M71.52,30.76h-6.3V19.81h6.3v1.91h-3.98v2.4h3.71v1.9h-3.71v2.82h3.98V30.76z"/>
  <path fill="#084A70" d="M76.58,26.56v4.2h-2.32V19.81h3.19c1.49,0,2.59,0.27,3.3,0.81c0.36,0.29,0.65,0.67,0.84,1.1   s0.27,0.9,0.23,1.36c0.01,0.61-0.18,1.22-0.53,1.72c-0.38,0.52-0.91,0.93-1.51,1.18c1.65,2.46,2.72,4.05,3.22,4.77h-2.58l-2.63-4.2   L76.58,26.56z M76.58,24.67h0.75c0.57,0.04,1.13-0.09,1.62-0.37c0.18-0.13,0.32-0.31,0.42-0.51c0.09-0.2,0.13-0.42,0.12-0.64   c0.02-0.22-0.02-0.43-0.12-0.63c-0.09-0.2-0.24-0.36-0.42-0.48c-0.51-0.25-1.08-0.37-1.66-0.33h-0.7L76.58,24.67z"/>
  <path fill="#084A70" d="M84.84,30.76V19.81h2.32v10.95H84.84z"/>
  <path fill="#084A70" d="M96.68,30.76h-6.3V19.81h6.3v1.91H92.7v2.4h3.71v1.9H92.7v2.82h3.98V30.76z"/>
  <path fill="#084A70" d="M109.13,30.76h-2.95l-4.76-8.28h-0.07c0.1,1.46,0.14,2.5,0.14,3.13v5.15h-2.08V19.81h2.93l4.73,8.21h0.05   c-0.07-1.42-0.11-2.43-0.11-3.01v-5.19h2.09L109.13,30.76z"/>
  <path fill="#084A70" d="M116.56,30.76h-2.32v-9.01h-2.97v-1.93h8.26v1.93h-2.97V30.76z"/>
  <path fill="#084A70" d="M121.68,30.76V19.81H124v10.95H121.68z"/>
  <path fill="#084A70" d="M133.91,30.76l-0.79-2.63h-3.99l-0.79,2.63h-2.5l3.86-10.99h2.83l3.89,10.99H133.91z M132.56,26.21l-1.24-4.01   c-0.09-0.31-0.16-0.55-0.2-0.73c-0.16,0.64-0.64,2.22-1.41,4.74H132.56z"/>
  <path fill="#084A70" d="M138.25,30.76V19.81h2.32v9.03h4.44v1.92H138.25z"/>
  <path fill="#084A70" d="M46.34,47.41h-2.32v-9.01h-2.97v-1.93h8.26v1.93h-2.97V47.41z"/>
  <path fill="#084A70" d="M53.77,43.21v4.2h-2.31V36.46h3.19c1.49,0,2.59,0.27,3.3,0.81c0.57,0.52,0.94,1.23,1.03,2   c0.09,0.77-0.09,1.54-0.52,2.19c-0.38,0.52-0.91,0.93-1.51,1.18c1.65,2.46,2.72,4.05,3.22,4.77h-2.58l-2.63-4.2H53.77z    M53.77,41.32h0.75c0.57,0.04,1.13-0.09,1.62-0.37c0.18-0.13,0.32-0.31,0.41-0.51c0.09-0.2,0.13-0.42,0.11-0.64   c0.02-0.22-0.02-0.43-0.12-0.63c-0.09-0.2-0.24-0.36-0.42-0.48c-0.51-0.25-1.09-0.37-1.66-0.33h-0.7L53.77,41.32z"/>
  <path fill="#084A70" d="M68.73,47.41l-0.79-2.63h-3.99l-0.79,2.63h-2.5l3.86-10.99h2.84l3.88,10.99H68.73z M67.39,42.85   c-0.74-2.36-1.15-3.69-1.24-4.01c-0.09-0.31-0.16-0.55-0.2-0.73c-0.16,0.64-0.64,2.22-1.41,4.74H67.39z"/>
  <path fill="#084A70" d="M82.78,47.41h-2.95l-4.76-8.28H75c0.1,1.46,0.14,2.5,0.14,3.13v5.15h-2.08V36.46h2.92l4.76,8.21h0.06   c-0.07-1.42-0.11-2.43-0.11-3.01v-5.19h2.09L82.78,47.41z"/>
  <path fill="#084A70" d="M92.45,44.37c0.02,0.45-0.07,0.89-0.25,1.3c-0.19,0.41-0.46,0.76-0.81,1.04c-0.86,0.62-1.91,0.93-2.97,0.88   c-1.07,0.02-2.13-0.2-3.1-0.66v-2.18c0.61,0.28,1.23,0.51,1.87,0.7c0.46,0.13,0.93,0.2,1.41,0.2c0.41,0.03,0.82-0.08,1.17-0.29   c0.14-0.1,0.24-0.23,0.32-0.39c0.07-0.15,0.1-0.32,0.09-0.49c0-0.2-0.06-0.4-0.18-0.57c-0.15-0.19-0.32-0.36-0.53-0.49   c-0.46-0.27-0.93-0.52-1.42-0.74c-0.54-0.23-1.05-0.54-1.51-0.91c-0.33-0.28-0.6-0.62-0.8-1.01c-0.21-0.42-0.31-0.88-0.3-1.35   c-0.02-0.43,0.06-0.86,0.23-1.26c0.17-0.4,0.43-0.75,0.76-1.03c0.78-0.59,1.74-0.89,2.72-0.83c0.55,0,1.1,0.07,1.63,0.2   c0.55,0.15,1.1,0.34,1.62,0.57l-0.75,1.8c-0.47-0.2-0.95-0.37-1.45-0.5c-0.37-0.09-0.75-0.14-1.13-0.14   c-0.36-0.02-0.72,0.08-1.01,0.31c-0.11,0.1-0.2,0.22-0.26,0.36c-0.06,0.14-0.09,0.29-0.09,0.44c0,0.19,0.04,0.37,0.14,0.53   c0.12,0.17,0.26,0.32,0.44,0.44c0.47,0.29,0.97,0.54,1.47,0.77c0.8,0.33,1.52,0.83,2.1,1.47C92.26,43.07,92.47,43.71,92.45,44.37z"/>
  <path fill="#084A70" d="M99.54,38.23c-0.39-0.02-0.78,0.06-1.14,0.23c-0.35,0.17-0.66,0.43-0.89,0.75c-0.52,0.81-0.78,1.77-0.72,2.74   c0,2.44,0.92,3.66,2.75,3.66c0.96-0.04,1.9-0.23,2.79-0.58v1.95c-0.96,0.38-1.98,0.57-3.01,0.56c-1.59,0-2.81-0.48-3.65-1.45   c-0.85-0.97-1.27-2.35-1.27-4.16c-0.02-1.03,0.19-2.04,0.62-2.97c0.38-0.82,1.01-1.51,1.79-1.97c0.83-0.47,1.77-0.71,2.73-0.69   c1.11,0.01,2.21,0.28,3.2,0.77l-0.75,1.88c-0.4-0.19-0.81-0.36-1.24-0.51C100.37,38.32,99.96,38.24,99.54,38.23z"/>
  <path fill="#084A70" d="M107.44,43.21v4.2h-2.32V36.46h3.19c1.48,0,2.59,0.27,3.3,0.81c0.58,0.52,0.95,1.22,1.05,1.99   c0.1,0.77-0.08,1.55-0.5,2.19c-0.38,0.52-0.91,0.93-1.51,1.18c1.65,2.46,2.72,4.05,3.22,4.77h-2.58l-2.63-4.2L107.44,43.21z    M107.44,41.32h0.75c0.56,0.04,1.13-0.09,1.62-0.37c0.18-0.13,0.32-0.31,0.41-0.51c0.09-0.2,0.13-0.42,0.11-0.64   c0.02-0.22-0.02-0.43-0.12-0.63s-0.24-0.36-0.42-0.48c-0.51-0.25-1.09-0.37-1.66-0.33h-0.7V41.32z"/>
  <path fill="#084A70" d="M115.7,47.41V36.46h2.33v10.95H115.7z"/>
  <path fill="#084A70" d="M128.79,39.87c0.03,0.5-0.05,1.01-0.24,1.48c-0.19,0.47-0.49,0.89-0.86,1.22c-0.74,0.63-1.78,0.94-3.14,0.94   h-0.99v3.89h-2.32V36.46h3.5c1.31,0,2.34,0.28,3.03,0.88c0.35,0.32,0.63,0.71,0.81,1.15C128.75,38.92,128.83,39.4,128.79,39.87z    M123.54,41.62h0.76c0.57,0.04,1.13-0.12,1.6-0.44c0.18-0.15,0.32-0.34,0.41-0.55c0.09-0.21,0.13-0.45,0.12-0.68   c0.02-0.22-0.01-0.44-0.09-0.65c-0.08-0.21-0.2-0.4-0.35-0.55c-0.4-0.29-0.9-0.43-1.39-0.39h-1.06L123.54,41.62z"/>
  <path fill="#084A70" d="M135.55,47.41h-2.32v-9.01h-2.97v-1.93h8.26v1.93h-2.97V47.41z"/>
</svg>
