<svg xmlns="http://www.w3.org/2000/svg" version="1.1" x="0px" y="0px" viewBox="0 0 492.7 397" style="enable-background:new 0 0 492.7 397;">
  <rect x="0" y="0" fill="#999999" width="492.7" height="396.9"/>
  <rect x="62.9" y="-32.8" transform="matrix(-1.836970e-16 1 -1 -1.836970e-16 444.8594 -47.8574)" fill="#F4F4F4" width="366.9" height="462.7"/>
  <path fill="#E6E6E6" d="M167.2,242.7c-19.7,0-35.6,15.9-35.6,35.6c0,19.7,15.9,35.6,35.6,35.6c19.7,0,35.6-15.9,35.6-35.6    C202.8,258.6,186.9,242.7,167.2,242.7z M167.2,303.1c-13.7,0-24.8-11.1-24.8-24.8c0-13.7,11.1-24.8,24.8-24.8    c13.7,0,24.8,11.1,24.8,24.8C192,292,180.9,303.1,167.2,303.1z"/>
  <path fill="#E6E6E6" d="M194.2,321.3c71.3,0,141.7,0,212.4,0c0-83.6,0-167,0-250.6c-106.8,0-213.5,0-320.5,0c0,83.5,0,166.8,0,250.5    c16.4,0,32.7,0,50.1,0c-4.6,5.9-8.6,11.1-12.7,16.3c-0.3,0.4-1.1,0.6-1.7,0.6c-17.5,0-34.9,0-52.7,0c0-94.8,0-189.4,0-284.2    c118.1,0,236,0,354.3,0c0,94.5,0,189,0,284c-1.2,0.1-2.5,0.2-3.8,0.2c-70.2,0-140.5,0-210.7,0.1c-3,0-4.7-0.9-6.2-3.4    C200.3,330.4,197.5,326.3,194.2,321.3z"/>
  <path fill="#E6E6E6" d="M215.3,178.8c0-22.2,0-44.2,0-66.6c20.7,0,41.3,0,62.2,0c0,22.2,0,44.2,0,66.6    C256.8,178.8,236.3,178.8,215.3,178.8z"/>
  <path fill="#E6E6E6" d="M374.4,196.6c0,2.5,0,5,0,7.7c-85.3,0-170.5,0-256,0c0-2.5,0-4.9,0-7.7C203.7,196.6,288.9,196.6,374.4,196.6z    "/>
  <path fill="#E6E6E6" d="M374.4,222.8c0,2.5,0,4.9,0,7.7c-85.2,0-170.5,0-255.9,0c0-2.5,0-4.9,0-7.7    C203.7,222.8,288.9,222.8,374.4,222.8z"/>
  <path fill="#E6E6E6" d="M185.4,313.7c-5.6,2.9-12,4.5-18.7,4.4c-0.6,0-1.2,0-1.8-0.1l13.7,48.3l10.1-15.8c0.8-1.3,2.4-1.9,3.9-1.6    l19.5,4.6L185.4,313.7z"/>
  <path fill="#E6E6E6" d="M161.6,317.7c-5.5-0.8-10.5-2.6-15-5.3l-25.5,34.7l18.3-1.7c1.8,0.1,2.7,1.1,3.2,2.3l6.6,18.5l15.1-39.3    L161.6,317.7z"/>
  <path fill="#E6E6E6" d="M136.7,127.6c3.9-3.4,8.2-6.6,13-9.7c25.5-16.3,59.6-25.3,96-25.3s70.5,9,96,25.3c5.1,3.3,9.6,6.7,13.8,10.3    l5.6-6.5C335.3,99,293.2,84.1,245.7,84.1c-46.9,0-88.5,14.5-114.4,36.9L136.7,127.6z"/>
  <polygon fill="#DBDBDB" points="382.7,20.5 26.8,376.5 28.9,376.5 384.9,20.5   "/>
  <polygon fill="#DBDBDB" points="232.5,20.5 20.5,232.5 20.5,234.7 234.6,20.5   "/>
  <polygon fill="#DBDBDB" points="246.2,20.5 20.5,246.2 20.5,248.3 248.3,20.5   "/>
  <polygon fill="#DBDBDB" points="218.9,20.5 20.5,218.9 20.5,221 221,20.5   "/>
  <polygon fill="#DBDBDB" points="396.4,20.5 40.4,376.5 42.5,376.5 398.5,20.5   "/>
  <polygon fill="#DBDBDB" points="423.7,20.5 67.7,376.5 69.9,376.5 425.8,20.5   "/>
  <polygon fill="#DBDBDB" points="205.2,20.5 20.5,205.2 20.5,207.3 207.3,20.5   "/>
  <polygon fill="#DBDBDB" points="410.1,20.5 54.1,376.5 56.2,376.5 412.2,20.5   "/>
  <polygon fill="#DBDBDB" points="341.8,20.5 20.5,341.8 20.5,343.9 343.9,20.5   "/>
  <polygon fill="#DBDBDB" points="108.7,376.5 110.8,376.5 466.8,20.5 464.7,20.5   "/>
  <polygon fill="#DBDBDB" points="300.8,20.5 20.5,300.8 20.5,302.9 302.9,20.5   "/>
  <polygon fill="#DBDBDB" points="328.1,20.5 20.5,328.1 20.5,330.3 330.2,20.5   "/>
  <polygon fill="#DBDBDB" points="314.5,20.5 20.5,314.5 20.5,316.6 316.6,20.5   "/>
  <polygon fill="#DBDBDB" points="259.8,20.5 20.5,259.9 20.5,262 262,20.5   "/>
  <polygon fill="#DBDBDB" points="369.1,20.5 20.5,369.1 20.5,371.2 371.2,20.5   "/>
  <polygon fill="#DBDBDB" points="273.5,20.5 20.5,273.5 20.5,275.6 275.6,20.5   "/>
  <polygon fill="#DBDBDB" points="437.4,20.5 81.4,376.5 83.5,376.5 439.5,20.5   "/>
  <polygon fill="#DBDBDB" points="287.1,20.5 20.5,287.2 20.5,289.3 289.3,20.5   "/>
  <polygon fill="#DBDBDB" points="451,20.5 95.1,376.5 97.2,376.5 453.2,20.5   "/>
  <polygon fill="#DBDBDB" points="355.4,20.5 20.5,355.5 20.5,357.6 357.6,20.5   "/>
  <polygon fill="#DBDBDB" points="27.7,20.5 20.5,27.7 20.5,29.8 29.8,20.5   "/>
  <polygon fill="#DBDBDB" points="288.4,376.5 472.2,192.6 472.2,190.5 286.3,376.5   "/>
  <polygon fill="#DBDBDB" points="315.7,376.5 472.2,219.9 472.2,217.8 313.6,376.5   "/>
  <polygon fill="#DBDBDB" points="302,376.5 472.2,206.3 472.2,204.2 299.9,376.5   "/>
  <polygon fill="#DBDBDB" points="329.3,376.5 472.2,233.6 472.2,231.5 327.2,376.5   "/>
  <polygon fill="#DBDBDB" points="220.1,376.5 472.2,124.3 472.2,122.2 218,376.5   "/>
  <polygon fill="#DBDBDB" points="343,376.5 472.2,247.3 472.2,245.1 340.9,376.5   "/>
  <polygon fill="#DBDBDB" points="274.7,376.5 472.2,179 472.2,176.9 272.6,376.5   "/>
  <polygon fill="#DBDBDB" points="247.4,376.5 472.2,151.7 472.2,149.5 245.3,376.5   "/>
  <polygon fill="#DBDBDB" points="261.1,376.5 472.2,165.3 472.2,163.2 258.9,376.5   "/>
  <polygon fill="#DBDBDB" points="233.7,376.5 472.2,138 472.2,135.9 231.6,376.5   "/>
  <polygon fill="#DBDBDB" points="424.9,376.5 472.2,329.2 472.2,327.1 422.8,376.5   "/>
  <polygon fill="#DBDBDB" points="452.3,376.5 472.2,356.5 472.2,354.4 450.1,376.5   "/>
  <polygon fill="#DBDBDB" points="356.7,376.5 472.2,260.9 472.2,258.8 354.5,376.5   "/>
  <polygon fill="#DBDBDB" points="465.9,376.5 472.2,370.2 472.2,368.1 463.8,376.5   "/>
  <polygon fill="#DBDBDB" points="438.6,376.5 472.2,342.9 472.2,340.7 436.5,376.5   "/>
  <polygon fill="#DBDBDB" points="384,376.5 472.2,288.2 472.2,286.1 381.9,376.5   "/>
  <polygon fill="#DBDBDB" points="411.3,376.5 472.2,315.5 472.2,313.4 409.2,376.5   "/>
  <polygon fill="#DBDBDB" points="370.3,376.5 472.2,274.6 472.2,272.5 368.2,376.5   "/>
  <polygon fill="#DBDBDB" points="397.6,376.5 472.2,301.9 472.2,299.8 395.5,376.5   "/>
  <polygon fill="#DBDBDB" points="165.5,376.5 472.2,69.7 472.2,67.6 163.3,376.5   "/>
  <polygon fill="#DBDBDB" points="95.9,20.5 20.5,96 20.5,98.1 98.1,20.5   "/>
  <polygon fill="#DBDBDB" points="123.3,20.5 20.5,123.3 20.5,125.4 125.4,20.5   "/>
  <polygon fill="#DBDBDB" points="109.6,20.5 20.5,109.6 20.5,111.7 111.7,20.5   "/>
  <polygon fill="#DBDBDB" points="82.3,20.5 20.5,82.3 20.5,84.4 84.4,20.5   "/>
  <polygon fill="#DBDBDB" points="68.6,20.5 20.5,68.7 20.5,70.8 70.8,20.5   "/>
  <polygon fill="#DBDBDB" points="177.9,20.5 20.5,177.9 20.5,180 180,20.5   "/>
  <polygon fill="#DBDBDB" points="164.2,20.5 20.5,164.3 20.5,166.4 166.4,20.5   "/>
  <polygon fill="#DBDBDB" points="150.6,20.5 20.5,150.6 20.5,152.7 152.7,20.5   "/>
  <polygon fill="#DBDBDB" points="136.9,20.5 20.5,136.9 20.5,139.1 139,20.5   "/>
  <polygon fill="#DBDBDB" points="151.8,376.5 472.2,56.1 472.2,53.9 149.7,376.5   "/>
  <polygon fill="#DBDBDB" points="179.1,376.5 472.2,83.4 472.2,81.3 177,376.5   "/>
  <polygon fill="#DBDBDB" points="191.5,20.5 20.5,191.6 20.5,193.7 193.7,20.5   "/>
  <polygon fill="#DBDBDB" points="55,20.5 20.5,55 20.5,57.1 57.1,20.5   "/>
  <polygon fill="#DBDBDB" points="192.8,376.5 472.2,97 472.2,94.9 190.7,376.5   "/>
  <polygon fill="#DBDBDB" points="206.4,376.5 472.2,110.7 472.2,108.6 204.3,376.5   "/>
  <polygon fill="#DBDBDB" points="41.3,20.5 20.5,41.3 20.5,43.5 43.4,20.5   "/>
  <polygon fill="#DBDBDB" points="138.1,376.5 472.2,42.4 472.2,40.3 136,376.5   "/>
  <polygon fill="#DBDBDB" points="124.5,376.5 472.2,28.7 472.2,26.6 122.4,376.5   "/>
  <path fill="#333333" d="M112.2,224.2h-1.6v-8.4h-2.9v-1.4h7.3v1.4h-2.9V224.2z"/>
  <path fill="#333333" d="M127,224.2h-1.6v-4.4h-4.5v4.4h-1.6v-9.7h1.6v4h4.5v-4h1.6V224.2z"/>
  <path fill="#333333" d="M132.3,224.2v-9.7h1.6v9.7H132.3z"/>
  <path fill="#333333" d="M144.8,221.6c0,0.9-0.3,1.5-0.9,2c-0.6,0.5-1.5,0.7-2.6,0.7s-2-0.2-2.7-0.5v-1.5c0.4,0.2,0.9,0.4,1.4,0.5     s1,0.2,1.4,0.2c0.6,0,1.1-0.1,1.4-0.4c0.3-0.2,0.5-0.6,0.5-1c0-0.4-0.1-0.7-0.4-0.9c-0.3-0.3-0.8-0.6-1.7-0.9     c-0.9-0.4-1.5-0.8-1.9-1.2c-0.4-0.5-0.5-1-0.5-1.7c0-0.8,0.3-1.5,0.9-1.9c0.6-0.5,1.4-0.7,2.3-0.7c0.9,0,1.9,0.2,2.8,0.6     l-0.5,1.3c-0.9-0.4-1.6-0.5-2.3-0.5c-0.5,0-0.9,0.1-1.2,0.3s-0.4,0.5-0.4,0.9c0,0.3,0.1,0.5,0.2,0.6c0.1,0.2,0.3,0.4,0.5,0.5     c0.2,0.2,0.7,0.4,1.3,0.6c0.7,0.3,1.2,0.6,1.6,0.8c0.3,0.3,0.6,0.5,0.7,0.9C144.7,220.8,144.8,221.2,144.8,221.6z"/>
  <path fill="#333333" d="M159.9,215.7c-0.9,0-1.6,0.3-2.2,1s-0.8,1.5-0.8,2.7c0,1.2,0.3,2.1,0.8,2.7s1.2,0.9,2.2,0.9     c0.4,0,0.8,0,1.2-0.1c0.4-0.1,0.8-0.2,1.2-0.3v1.4c-0.8,0.3-1.6,0.4-2.6,0.4c-1.4,0-2.5-0.4-3.3-1.3c-0.8-0.9-1.1-2.1-1.1-3.7     c0-1,0.2-1.9,0.6-2.7c0.4-0.8,0.9-1.3,1.6-1.7c0.7-0.4,1.5-0.6,2.5-0.6c1,0,1.9,0.2,2.8,0.6l-0.6,1.3c-0.3-0.2-0.7-0.3-1-0.4     S160.3,215.7,159.9,215.7z"/>
  <path fill="#333333" d="M168.7,220.4v3.9h-1.6v-9.7h2.8c1.3,0,2.2,0.2,2.8,0.7c0.6,0.5,0.9,1.2,0.9,2.1c0,1.2-0.6,2.1-1.9,2.6     l2.8,4.3h-1.8l-2.3-3.9H168.7z M168.7,219h1.1c0.7,0,1.3-0.1,1.6-0.4c0.3-0.3,0.5-0.7,0.5-1.2c0-0.6-0.2-0.9-0.5-1.2     s-0.9-0.4-1.6-0.4h-1.1V219z"/>
  <path fill="#333333" d="M184.1,224.2h-5.5v-9.7h5.5v1.3h-3.9v2.7h3.7v1.3h-3.7v3.1h3.9V224.2z"/>
  <path fill="#333333" d="M196.8,219.3c0,1.6-0.4,2.8-1.3,3.7c-0.9,0.9-2.2,1.3-3.9,1.3h-2.7v-9.7h3c1.6,0,2.8,0.4,3.6,1.3     C196.4,216.6,196.8,217.8,196.8,219.3z M195.2,219.3c0-2.3-1.1-3.5-3.3-3.5h-1.4v7.1h1.1C194,222.9,195.2,221.7,195.2,219.3z"/>
  <path fill="#333333" d="M207.2,224.2h-5.5v-9.7h5.5v1.3h-3.9v2.7h3.7v1.3h-3.7v3.1h3.9V224.2z"/>
  <path fill="#333333" d="M220.1,224.2h-2l-4.8-7.8h-0.1l0,0.4c0.1,0.8,0.1,1.6,0.1,2.3v5.1H212v-9.7h1.9l4.8,7.7h0     c0-0.1,0-0.5-0.1-1.1c0-0.6,0-1.1,0-1.5v-5.1h1.5V224.2z"/>
  <path fill="#333333" d="M228.8,224.2h-1.6v-8.4h-2.9v-1.4h7.3v1.4h-2.9V224.2z"/>
  <path fill="#333333" d="M235.9,224.2v-9.7h1.6v9.7H235.9z"/>
  <path fill="#333333" d="M248.9,224.2l-1-2.7h-3.7l-1,2.7h-1.7l3.6-9.8h1.7l3.6,9.8H248.9z M247.5,220.2l-0.9-2.7     c-0.1-0.2-0.2-0.5-0.3-0.8c-0.1-0.4-0.2-0.7-0.2-0.8c-0.1,0.5-0.3,1.1-0.5,1.8l-0.9,2.5H247.5z"/>
  <path fill="#333333" d="M254.6,224.2v-9.7h1.6v8.4h4.1v1.4H254.6z"/>
  <path fill="#333333" d="M278.7,224.2h-1.6v-4.4h-4.5v4.4H271v-9.7h1.6v4h4.5v-4h1.6V224.2z"/>
  <path fill="#333333" d="M290,224.2l-1-2.7h-3.7l-1,2.7h-1.7l3.6-9.8h1.7l3.6,9.8H290z M288.6,220.2l-0.9-2.7     c-0.1-0.2-0.2-0.5-0.3-0.8c-0.1-0.4-0.2-0.7-0.2-0.8c-0.1,0.5-0.3,1.1-0.5,1.8l-0.9,2.5H288.6z"/>
  <path fill="#333333" d="M301.4,221.6c0,0.9-0.3,1.5-0.9,2c-0.6,0.5-1.5,0.7-2.6,0.7s-2-0.2-2.7-0.5v-1.5c0.4,0.2,0.9,0.4,1.4,0.5     s1,0.2,1.4,0.2c0.6,0,1.1-0.1,1.4-0.4c0.3-0.2,0.5-0.6,0.5-1c0-0.4-0.1-0.7-0.4-0.9c-0.3-0.3-0.8-0.6-1.7-0.9     c-0.9-0.4-1.5-0.8-1.9-1.2c-0.4-0.5-0.5-1-0.5-1.7c0-0.8,0.3-1.5,0.9-1.9c0.6-0.5,1.4-0.7,2.3-0.7c0.9,0,1.9,0.2,2.8,0.6     l-0.5,1.3c-0.9-0.4-1.6-0.5-2.3-0.5c-0.5,0-0.9,0.1-1.2,0.3s-0.4,0.5-0.4,0.9c0,0.3,0.1,0.5,0.2,0.6c0.1,0.2,0.3,0.4,0.5,0.5     c0.2,0.2,0.7,0.4,1.3,0.6c0.7,0.3,1.2,0.6,1.6,0.8c0.3,0.3,0.6,0.5,0.7,0.9C301.3,220.8,301.4,221.2,301.4,221.6z"/>
  <path fill="#333333" d="M317.8,224.2h-5.5v-9.7h5.5v1.3h-3.9v2.7h3.7v1.3h-3.7v3.1h3.9V224.2z"/>
  <path fill="#333333" d="M329.8,224.2H328l-2.4-4l-2.5,4h-1.7l3.2-5.1l-3-4.7h1.8l2.3,3.7l2.3-3.7h1.7l-3,4.7L329.8,224.2z"/>
  <path fill="#333333" d="M340.3,217.4c0,1-0.3,1.8-1,2.3c-0.7,0.5-1.6,0.8-2.8,0.8h-1v3.6h-1.6v-9.7h2.8c1.2,0,2.1,0.2,2.7,0.7     C340,215.7,340.3,216.5,340.3,217.4z M335.4,219.3h0.8c0.8,0,1.4-0.1,1.8-0.4c0.4-0.3,0.6-0.7,0.6-1.3c0-0.6-0.2-1-0.5-1.3     c-0.3-0.3-0.9-0.4-1.6-0.4h-1.1V219.3z"/>
  <path fill="#333333" d="M345,224.2v-9.7h1.6v9.7H345z"/>
  <path fill="#333333" d="M353.5,220.4v3.9h-1.6v-9.7h2.8c1.3,0,2.2,0.2,2.8,0.7c0.6,0.5,0.9,1.2,0.9,2.1c0,1.2-0.6,2.1-1.9,2.6     l2.8,4.3h-1.8l-2.3-3.9H353.5z M353.5,219h1.1c0.7,0,1.3-0.1,1.6-0.4c0.3-0.3,0.5-0.7,0.5-1.2c0-0.6-0.2-0.9-0.5-1.2     s-0.9-0.4-1.6-0.4h-1.1V219z"/>
  <path fill="#333333" d="M368.8,224.2h-5.5v-9.7h5.5v1.3h-3.9v2.7h3.7v1.3h-3.7v3.1h3.9V224.2z"/>
  <path fill="#333333" d="M381.6,219.3c0,1.6-0.4,2.8-1.3,3.7c-0.9,0.9-2.2,1.3-3.9,1.3h-2.7v-9.7h3c1.6,0,2.8,0.4,3.6,1.3     C381.2,216.6,381.6,217.8,381.6,219.3z M379.9,219.3c0-2.3-1.1-3.5-3.3-3.5h-1.4v7.1h1.1C378.8,222.9,379.9,221.7,379.9,219.3z"/>
  <path fill="#333333" d="M257.1,173.7c0,0.7,0,1.4,0,2.1c-0.2,2-1,3.8-2.3,5.3c-0.9,1-1.9,1.9-2.9,2.8c-0.7,0.6-0.9,1.4-0.7,2.2      c0.1,0.4,0.4,0.8,0.7,1.1c0.7,0.7,1.5,1.4,2.3,2.2c1.5,1.5,2.5,3.3,2.8,5.4c0.1,0.5,0.1,1.1,0.1,1.6c0,0.3,0,0.7,0,1      c0.3,0.1,0.5,0.1,0.7,0.2c1.1,0.3,1.8,1.5,1.7,2.6c-0.2,1.2-1.2,2.1-2.4,2.1c-3,0-6,0-9,0c-4.2,0-8.3,0-12.5,0      c-1.2,0-2.2-0.9-2.4-2.1c-0.2-1.1,0.5-2.2,1.6-2.6c0.2-0.1,0.5-0.1,0.7-0.2c0-0.2,0-0.5,0-0.8c-0.1-2.9,1-5.3,3-7.3      c0.7-0.8,1.5-1.5,2.3-2.2c0.6-0.6,0.9-1.3,0.6-2.2c-0.1-0.4-0.4-0.8-0.7-1.1c-0.7-0.7-1.4-1.3-2-2c-1.3-1.3-2.3-2.8-2.8-4.6      c-0.2-0.8-0.3-1.5-0.3-2.3c0-0.5,0-0.9,0-1.4c-0.3-0.1-0.5-0.1-0.7-0.2c-1.1-0.3-1.8-1.5-1.7-2.6c0.2-1.2,1.2-2.1,2.4-2.1      c6.2,0,12.4,0,18.6,0c0.9,0,1.8,0,2.8,0c1.4,0,2.4,1,2.5,2.3c0.1,1.3-0.9,2.4-2.3,2.5C257.2,173.7,257.2,173.7,257.1,173.7z       M238,173.7c-0.1,1.4,0,2.7,0.5,3.9c0.6,1.5,1.7,2.6,2.9,3.7c0.5,0.5,1,0.9,1.5,1.5c1.1,1.2,1.3,2.6,0.9,4.2      c-0.2,1-0.9,1.7-1.6,2.3c-0.6,0.6-1.2,1.1-1.8,1.7c-0.9,0.9-1.6,1.9-2,3.1c-0.4,1.2-0.4,2.3-0.4,3.6c5.6,0,11.1,0,16.7,0      c0.1-1.4,0-2.8-0.6-4.1c-0.6-1.3-1.5-2.3-2.6-3.3c-0.6-0.5-1.1-1-1.7-1.6c-1-1-1.2-2.3-1.1-3.7c0.1-1.1,0.8-2,1.6-2.7      c0.6-0.6,1.3-1.2,2-1.8c0.7-0.7,1.3-1.6,1.8-2.5c0.6-1.3,0.7-2.7,0.6-4.1C249.1,173.7,243.6,173.7,238,173.7z"/>
  <path fill="#333333" d="M240.6,195.1c0.8-0.9,1.8-1.8,2.6-2.9c0.8-1,1.3-2.2,2-3.4c0.3-0.5,0.5-0.9,1.1-0.9c0.4,0,0.8,0.1,1,0.5      c0.2,0.2,0.3,0.5,0.4,0.8c1,2.2,2.5,4.2,4.4,5.7c0,0,0.1,0.1,0.2,0.1C248.3,195.1,244.4,195.1,240.6,195.1z"/>
</svg>
