<svg xmlns="http://www.w3.org/2000/svg" version="1.1" x="0px" y="0px" viewBox="0 0 247.944 110.299" enable-background="new 0 0 247.944 110.299">
  <path fill="#F47920" d="M239.679,80.387c0-3.594-2.551-6.232-6.071-6.232c-3.514,0-6.071,2.637-6.071,6.232    s2.557,6.228,6.071,6.228C237.128,86.615,239.679,83.981,239.679,80.387L239.679,80.387L239.679,80.387z M232.015,80.705v4.076    h-1.318v-8.989h3.273c1.915,0,2.798,0.84,2.798,2.477c0,1-0.682,1.8-1.559,1.915v0.043c0.757,0.12,1.038,0.8,1.198,2.038    c0.12,0.797,0.281,2.196,0.562,2.517h-1.559c-0.361-0.84-0.321-2.038-0.602-3.035c-0.235-0.76-0.636-1.041-1.513-1.041H232.015    L232.015,80.705z M233.649,79.547c1.278,0,1.639-0.679,1.639-1.278c0-0.716-0.361-1.276-1.639-1.276h-1.634v2.554H233.649    L233.649,79.547z M226.099,80.387c0-4.434,3.52-7.43,7.51-7.43c3.996,0,7.51,2.995,7.51,7.43c0,4.434-3.514,7.429-7.51,7.429    C229.619,87.816,226.099,84.821,226.099,80.387L226.099,80.387z"/>
  <polygon fill="#F47920" points="200.078,86.523 191.419,76.812 182.84,86.523 164.79,86.523 182.436,66.697 164.79,46.868       183.407,46.868 192.147,56.498 200.562,46.868 218.532,46.868 200.969,66.615 218.772,86.523     "/>
  <polygon fill="#F47920" points="130.116,86.523 130.116,24.054 164.79,24.054 164.79,37.979 144.803,37.979 144.803,46.868       164.79,46.868 164.79,60.265 144.803,60.265 144.803,72.561 164.79,72.561 164.79,86.523     "/>
  <path fill="#472F92" d="M115.489,24.054v25.565h-0.161c-3.239-3.722-7.285-5.016-11.978-5.016c-9.617,0-16.86,6.538-19.402,15.18     c-2.901-9.522-10.379-15.358-21.467-15.358c-9.006,0-16.116,4.042-19.828,10.628v-8.186H24.038v-8.889h20.314V24.054H7.445     v62.469h16.593V60.265h16.539c-0.493,1.929-0.757,3.994-0.757,6.174c0,13.031,9.955,22.174,22.66,22.174     c10.683,0,17.724-5.016,21.447-14.16h-14.22c-1.923,2.749-3.382,3.563-7.227,3.563c-4.459,0-8.304-3.89-8.304-8.502h28.954     c1.255,10.35,9.318,19.276,20.383,19.276c4.773,0,9.144-2.348,11.815-6.312h0.161v4.044h14.627V24.054H115.489z M54.638,60.451     c0.923-3.967,4-6.561,7.842-6.561c4.229,0,7.15,2.514,7.918,6.561C70.723,60.451,54.638,60.451,54.638,60.451z M106.612,77.013     c-5.392,0-8.742-5.025-8.742-10.27c0-5.606,2.915-10.998,8.742-10.998c6.044,0,8.45,5.392,8.45,10.998     C115.062,72.06,112.511,77.013,106.612,77.013z"/>
</svg>
