<svg xmlns="http://www.w3.org/2000/svg" version="1.1" x="0px" y="0px" viewBox="0 0 247.944 110.299" enable-background="new 0 0 247.944 110.299">
  <path fill="#F47920" d="M239.679,61.278c0-3.594-2.551-6.232-6.071-6.232c-3.514,0-6.071,2.637-6.071,6.232     s2.557,6.228,6.071,6.228C237.128,67.507,239.679,64.873,239.679,61.278L239.679,61.278L239.679,61.278z M232.015,61.597v4.076     h-1.318v-8.989h3.273c1.915,0,2.798,0.84,2.798,2.477c0,1-0.682,1.8-1.559,1.915v0.043c0.757,0.12,1.038,0.8,1.198,2.038     c0.12,0.797,0.281,2.196,0.562,2.517h-1.559c-0.361-0.84-0.321-2.038-0.602-3.035c-0.235-0.76-0.636-1.041-1.513-1.041H232.015     L232.015,61.597z M233.649,60.438c1.278,0,1.639-0.679,1.639-1.278c0-0.716-0.361-1.276-1.639-1.276h-1.634v2.554H233.649     L233.649,60.438z M226.099,61.278c0-4.434,3.52-7.43,7.51-7.43c3.996,0,7.51,2.995,7.51,7.43c0,4.434-3.514,7.429-7.51,7.429     C229.619,68.708,226.099,65.713,226.099,61.278L226.099,61.278z"/>
  <polygon fill="#F47920" points="200.078,67.415 191.419,57.704 182.84,67.415 164.79,67.415 182.436,47.589 164.79,27.759        183.407,27.759 192.147,37.39 200.562,27.759 218.532,27.759 200.969,47.507 218.772,67.415      "/>
  <polygon fill="#F47920" points="130.116,67.415 130.116,4.946 164.79,4.946 164.79,18.871 144.803,18.871 144.803,27.759        164.79,27.759 164.79,41.157 144.803,41.157 144.803,53.453 164.79,53.453 164.79,67.415      "/>
  <path fill="#472F92" d="M115.489,4.946v25.565h-0.161c-3.239-3.722-7.285-5.016-11.978-5.016c-9.617,0-16.86,6.538-19.402,15.18      c-2.901-9.522-10.379-15.358-21.467-15.358c-9.006,0-16.116,4.042-19.828,10.628v-8.186H24.038v-8.889h20.314V4.946H7.445      v62.469h16.593V41.157h16.539c-0.493,1.929-0.757,3.994-0.757,6.174c0,13.031,9.955,22.174,22.66,22.174      c10.683,0,17.724-5.016,21.447-14.16h-14.22c-1.923,2.749-3.382,3.563-7.227,3.563c-4.459,0-8.304-3.89-8.304-8.502h28.954      c1.255,10.35,9.318,19.276,20.383,19.276c4.773,0,9.144-2.348,11.815-6.312h0.161v4.044h14.627V4.946H115.489z M54.638,41.343      c0.923-3.967,4-6.561,7.842-6.561c4.229,0,7.15,2.514,7.918,6.561C70.723,41.343,54.638,41.343,54.638,41.343z M106.612,57.905      c-5.392,0-8.742-5.025-8.742-10.27c0-5.606,2.915-10.998,8.742-10.998c6.044,0,8.45,5.392,8.45,10.998      C115.062,52.952,112.511,57.905,106.612,57.905z"/>
  <path fill="#472F92" d="M130.119,98.65V76.264h12.368v1.671H132.16v8.252h9.892v1.671h-9.892v9.118h10.789v1.674H130.119z"/>
  <path fill="#472F92" d="M144.425,98.65l6.031-8.04l-5.721-7.604h2.319l4.669,6.214l4.575-6.214h2.319l-5.813,7.604l6.06,8.04     h-2.348L151.505,92l-4.761,6.65H144.425z"/>
  <path fill="#472F92" d="M162.79,104.52h-1.886V87.674c0-1.548,0-3.121-0.095-4.669h1.858l0.063,2.35     c1.173-1.857,2.717-2.72,5.039-2.72c4.821,0,6.891,3.987,6.891,8.189c0,4.208-2.07,8.195-6.891,8.195     c-2.167,0-3.866-0.834-4.979-2.628V104.52z M172.653,90.825c0-3.336-1.393-6.616-5.102-6.616c-3.494,0-4.761,2.878-4.761,6.616     c0,3.743,1.267,6.616,4.761,6.616C171.26,97.44,172.653,94.167,172.653,90.825z"/>
  <path fill="#472F92" d="M184.359,84.456c-3.124,0-4.208,2.631-4.208,5.348v8.846h-1.886V87.609c0-1.513-0.029-3.055-0.092-4.603     h1.857l0.12,2.256c0.929-1.792,2.476-2.626,4.546-2.626c0.278,0,0.588,0.029,0.866,0.06v1.886     C185.13,84.519,184.789,84.456,184.359,84.456z"/>
  <path fill="#472F92" d="M187.873,91.166c0,3.523,1.668,6.429,5.099,6.429c2.657,0,3.895-1.76,4.36-3.523h1.794     c-0.837,3.276-2.846,4.947-6.4,4.947c-4.761,0-6.865-3.526-6.865-7.914c0-4.483,2.196-8.47,7.112-8.47     c4.979,0,6.309,4.357,6.309,8.53H187.873z M187.933,89.744h9.336c0-3.061-1.45-5.69-4.42-5.69     C190.16,84.054,188.303,86.095,187.933,89.744z"/>
  <path fill="#472F92" d="M206.642,99.02c-3.213,0-5.624-1.516-5.624-4.947h1.886c0,2.348,1.545,3.523,3.832,3.523     c2.133,0,3.801-1.02,3.801-3.119c0-1.886-1.946-2.385-3.987-2.969c-2.471-0.711-5.162-1.485-5.162-4.515     c0-3.368,2.812-4.357,5.443-4.357c3.027,0,5.286,1.173,5.377,4.417h-1.886c-0.092-1.851-1.422-2.903-3.431-2.903     c-1.576,0-3.494,0.616-3.494,2.657c0,1.858,1.918,2.382,3.956,2.938c2.476,0.679,5.194,1.422,5.194,4.451     C212.547,97.721,209.829,99.02,206.642,99.02z"/>
  <path fill="#472F92" d="M219.721,99.02c-3.216,0-5.627-1.516-5.627-4.947h1.886c0,2.348,1.545,3.523,3.835,3.523     c2.132,0,3.801-1.02,3.801-3.119c0-1.886-1.949-2.385-3.99-2.969c-2.471-0.711-5.159-1.485-5.159-4.515     c0-3.368,2.812-4.357,5.44-4.357c3.027,0,5.286,1.173,5.377,4.417h-1.886c-0.092-1.851-1.422-2.903-3.431-2.903     c-1.576,0-3.494,0.616-3.494,2.657c0,1.858,1.918,2.382,3.958,2.938c2.474,0.679,5.194,1.422,5.194,4.451     C225.626,97.721,222.906,99.02,219.721,99.02z"/>
</svg>
