<svg xmlns="http://www.w3.org/2000/svg" version="1.1" x="0px" y="0px" viewBox="0 0 156.4 156.4" style="enable-background:new 0 0 156.4 156.4;">
  <circle fill="#F0F0F0" cx="78.2" cy="78.2" r="78.2"/>
  <path fill="#D80027" d="M74.8,78.2h81.6c0-7.1-0.9-13.9-2.7-20.4H74.8V78.2z"/>
  <path fill="#D80027" d="M74.8,37.4h70.1c-4.8-7.8-10.9-14.7-18-20.4H74.8V37.4z"/>
  <path fill="#D80027" d="M78.2,156.4c18.4,0,35.3-6.4,48.7-17H29.5C42.9,150,59.8,156.4,78.2,156.4z"/>
  <path fill="#D80027" d="M11.5,119h133.4c3.8-6.3,6.8-13.1,8.8-20.4H2.7C4.7,105.9,7.6,112.7,11.5,119z"/>
  <path fill="#0052B4" d="M36.2,12.2h7.1L36.7,17l2.5,7.8L32.6,20L26,24.8l2.2-6.7C22.3,22.9,17.2,28.6,13,35h2.3l-4.2,3.1  c-0.7,1.1-1.3,2.2-1.9,3.3l2,6.2l-3.8-2.7c-0.9,2-1.8,4-2.6,6.1l2.2,6.8h8.2l-6.6,4.8l2.5,7.8l-6.6-4.8l-4,2.9  C0.2,71.6,0,74.9,0,78.2h78.2c0-43.2,0-48.3,0-78.2C62.8,0,48.4,4.5,36.2,12.2z M39.3,70.4l-6.6-4.8L26,70.4l2.5-7.8l-6.6-4.8h8.2  l2.5-7.8l2.5,7.8h8.2l-6.6,4.8L39.3,70.4z M36.7,39.8l2.5,7.8l-6.6-4.8L26,47.6l2.5-7.8L21.9,35h8.2l2.5-7.8l2.5,7.8h8.2L36.7,39.8z   M67.3,70.4l-6.6-4.8L54,70.4l2.5-7.8l-6.6-4.8h8.2l2.5-7.8l2.5,7.8h8.2l-6.6,4.8L67.3,70.4z M64.8,39.8l2.5,7.8l-6.6-4.8L54,47.6  l2.5-7.8L49.9,35h8.2l2.5-7.8l2.5,7.8h8.2L64.8,39.8z M64.8,17l2.5,7.8L60.7,20L54,24.8l2.5-7.8l-6.6-4.8h8.2l2.5-7.8l2.5,7.8h8.2  L64.8,17z"/>
</svg>
