<svg xmlns="http://www.w3.org/2000/svg" version="1.1" x="0px" y="0px" viewBox="0 0 156.4 156.4" style="enable-background:new 0 0 156.4 156.4;">
  <circle fill="#F0F0F0" cx="78.2" cy="78.2" r="78.2"/>
  <path fill="#D80027" d="M156.4,78.2c0-31-18-57.8-44.2-70.4v140.9C138.4,136,156.4,109.2,156.4,78.2z"/>
  <path fill="#D80027" d="M0,78.2c0,31,18,57.8,44.2,70.4V7.8C18,20.4,0,47.2,0,78.2z"/>
  <polygon fill="#D80027" points="91.8,88.4 105.4,81.6 98.6,78.2 98.6,71.4 85,78.2 91.8,64.6 85,64.6 78.2,54.4 71.4,64.6 64.6,64.6    71.4,78.2 57.8,71.4 57.8,78.2 51,81.6 64.6,88.4 61.2,95.2 74.8,95.2 74.8,105.4 81.6,105.4 81.6,95.2 95.2,95.2  "/>
</svg>
