<svg xmlns="http://www.w3.org/2000/svg" version="1.1" x="0px" y="0px" viewBox="0 0 200 110.299" enable-background="new 0 0 200 110.299">
  <polygon id="Fill-1" fill="#0083A8" points="23.521,95.521 23.521,97.307 26.439,97.307 26.439,107.166 28.41,107.166     28.41,97.307 31.328,97.307 31.328,95.521   "/>
  <polygon id="Fill-2" fill="#0083A8" points="35.301,95.521 35.301,107.166 41.664,107.166 41.664,105.38 37.272,105.38     37.272,102.099 41.265,102.099 41.265,100.312 37.272,100.312 37.272,97.307 41.572,97.307 41.572,95.521   "/>
  <path id="Fill-3" fill="#0083A8" d="M50.006,99.98c-1.072-0.555-1.998-1.035-1.998-1.975c0-1.217,0.997-1.349,1.425-1.349     c0.481,0,0.824,0.11,1.048,0.337c0.262,0.266,0.385,0.721,0.377,1.393l-0.003,0.282h2.025l0.011-0.268     c0.047-1.158-0.219-2.047-0.79-2.643c-0.566-0.589-1.427-0.887-2.56-0.887c-2.148,0-3.535,1.291-3.535,3.288     c0,1.963,1.552,2.769,2.921,3.481c1.102,0.572,2.054,1.067,2.054,2.032c0,1.021-0.556,1.517-1.702,1.517     c-0.59,0-1.579-0.221-1.579-1.702v-0.602h-1.948l-0.008,0.271c-0.017,0.593-0.058,1.978,0.848,2.91     c0.586,0.604,1.464,0.91,2.611,0.91h0.001l0.06-0.001c2.399,0,3.72-1.195,3.72-3.365C52.984,101.522,51.402,100.702,50.006,99.98     "/>
  <polygon id="Fill-5" fill="#0083A8" points="56.634,96.887 59.552,96.887 59.552,106.745 61.523,106.745 61.523,96.887      64.441,96.887 64.441,95.1 56.634,95.1    "/>
  <mask maskUnits="userSpaceOnUse" x="68.598" y="95.099" width="1.971" height="11.646" id="mask-2_20_">
    <polygon id="path-1_20_" fill="#FFFFFF" points="8.649,106.976 191.19,106.976 191.19,3.421 8.649,3.421      "/>
  </mask>
  <polygon id="Fill-7" mask="url(#mask-2_20_)" fill="#0083A8" points="68.598,106.745 70.57,106.745 70.57,95.099 68.598,95.099         "/>
  <mask maskUnits="userSpaceOnUse" x="75.832" y="95.099" width="8.16" height="11.646" id="mask-2_19_">
    <polygon id="path-1_19_" fill="#FFFFFF" points="8.649,106.976 191.19,106.976 191.19,3.421 8.649,3.421      "/>
  </mask>
  <polygon id="Fill-9" mask="url(#mask-2_19_)" fill="#0083A8" points="82.174,103.648 78.287,95.099 75.832,95.099      75.832,106.745 77.65,106.745 77.65,98.073 81.598,106.745 83.992,106.745 83.992,95.099 82.174,95.099    "/>
  <mask maskUnits="userSpaceOnUse" x="88.932" y="94.869" width="7.49" height="12.106" id="mask-2_18_">
    <polygon id="path-1_18_" fill="#FFFFFF" points="8.649,106.976 191.19,106.976 191.19,3.421 8.649,3.421      "/>
  </mask>
  <path id="Fill-10" mask="url(#mask-2_18_)" fill="#0083A8" d="M92.698,94.869c-2.393,0-3.765,1.423-3.765,3.903v3.64     c0,3.113,1.196,4.563,3.765,4.563c1.321,0,2.442-0.274,3.527-0.863l0.146-0.079v-5.836h-4.014v1.787h2.042v2.886     c-0.316,0.182-0.906,0.364-1.702,0.364c-1.143,0-1.763-0.441-1.763-2.762v-3.747c0-1.749,0.959-2.116,1.763-2.116     c1.198,0,1.687,0.502,1.687,1.732v0.279h2.022l0.011-0.269c0.046-1.15-0.199-1.987-0.749-2.559     C95.061,95.163,94.117,94.869,92.698,94.869"/>
  <mask maskUnits="userSpaceOnUse" x="107.695" y="94.87" width="7.244" height="12.106" id="mask-2_17_">
    <polygon id="path-1_17_" fill="#FFFFFF" points="8.649,106.976 191.19,106.976 191.19,3.421 8.649,3.421      "/>
  </mask>
  <path id="Fill-11" mask="url(#mask-2_17_)" fill="#0083A8" d="M111.962,99.98c-1.072-0.555-1.998-1.035-1.998-1.975     c0-1.217,0.996-1.349,1.425-1.349c0.481,0,0.824,0.11,1.049,0.337c0.261,0.266,0.385,0.721,0.376,1.393l-0.003,0.282h2.025     l0.011-0.268c0.047-1.158-0.219-2.047-0.791-2.643c-0.566-0.589-1.427-0.887-2.56-0.887c-2.147,0-3.535,1.291-3.535,3.288     c0,1.963,1.552,2.769,2.921,3.481c1.102,0.572,2.054,1.067,2.054,2.032c0,1.021-0.557,1.517-1.702,1.517     c-0.589,0-1.579-0.221-1.579-1.702v-0.602h-1.947l-0.008,0.271c-0.017,0.592-0.058,1.978,0.848,2.91     c0.586,0.604,1.464,0.91,2.611,0.91h0.001l0.06-0.001c2.398,0,3.718-1.195,3.718-3.365     C114.939,101.522,113.357,100.702,111.962,99.98"/>
  <mask maskUnits="userSpaceOnUse" x="119.619" y="95.1" width="6.363" height="11.646" id="mask-2_16_">
    <polygon id="path-1_16_" fill="#FFFFFF" points="8.649,106.976 191.19,106.976 191.19,3.421 8.649,3.421      "/>
  </mask>
  <polygon id="Fill-12" mask="url(#mask-2_16_)" fill="#0083A8" points="121.59,101.678 125.582,101.678 125.582,99.891      121.59,99.891 121.59,96.887 125.89,96.887 125.89,95.1 119.619,95.1 119.619,106.745 125.982,106.745 125.982,104.959      121.59,104.959    "/>
  <mask maskUnits="userSpaceOnUse" x="130.339" y="95.1" width="7.308" height="11.646" id="mask-2_15_">
    <polygon id="path-1_15_" fill="#FFFFFF" points="8.649,106.976 191.19,106.976 191.19,3.421 8.649,3.421      "/>
  </mask>
  <path id="Fill-13" mask="url(#mask-2_15_)" fill="#0083A8" d="M132.31,96.887h1.855c1.153,0,1.211,1.175,1.211,1.41     c0,0.722-0.321,1.564-1.226,1.564h-1.84V96.887z M137.162,103.554c-0.059-1.724-0.34-2.513-1.187-2.889     c0.882-0.464,1.402-1.37,1.402-2.522c0-1.472-0.771-3.043-2.936-3.043h-4.103v11.646h1.971v-5.098h1.379     c0.901,0,1.331,0.356,1.396,1.157c0.035,0.426,0.052,0.849,0.069,1.254c0.042,1.04,0.079,1.938,0.391,2.537l0.078,0.15h2.023     l-0.112-0.362C137.328,105.723,137.177,104.023,137.162,103.554z"/>
  <mask maskUnits="userSpaceOnUse" x="140.844" y="95.099" width="8.883" height="11.646" id="mask-2_14_">
    <polygon id="path-1_14_" fill="#FFFFFF" points="8.649,106.976 191.19,106.976 191.19,3.421 8.649,3.421      "/>
  </mask>
  <polygon id="Fill-14" mask="url(#mask-2_14_)" fill="#0083A8" points="145.303,104.091 142.966,95.099 140.844,95.099      144.215,106.745 146.323,106.745 149.726,95.099 147.695,95.099    "/>
  <mask maskUnits="userSpaceOnUse" x="153.775" y="95.099" width="1.971" height="11.646" id="mask-2_13_">
    <polygon id="path-1_13_" fill="#FFFFFF" points="8.649,106.976 191.19,106.976 191.19,3.421 8.649,3.421      "/>
  </mask>
  <polygon id="Fill-15" mask="url(#mask-2_13_)" fill="#0083A8" points="153.775,106.745 155.746,106.745 155.746,95.099      153.775,95.099    "/>
  <mask maskUnits="userSpaceOnUse" x="160.809" y="94.869" width="7.194" height="12.106" id="mask-2_12_">
    <polygon id="path-1_12_" fill="#FFFFFF" points="8.649,106.976 191.19,106.976 191.19,3.421 8.649,3.421      "/>
  </mask>
  <path id="Fill-16" mask="url(#mask-2_12_)" fill="#0083A8" d="M165.987,102.916l-0.002,0.277     c-0.012,1.777-0.927,2.041-1.472,2.041c-0.758,0-1.702,0-1.702-2.761v-2.964c0-1.61,0.201-1.995,0.266-2.122     c0.017-0.034,0.031-0.061,0.044-0.096c0.05-0.132,0.46-0.666,1.408-0.666c0.294,0,0.829,0.134,1.028,0.375     c0.256,0.309,0.27,0.963,0.259,1.428l-0.007,0.286h2.007l0.017-0.261c0.079-1.239-0.155-2.133-0.717-2.733     c-0.537-0.572-1.343-0.851-2.464-0.851c-2.657,0-3.842,1.327-3.842,4.303v3.133c0,4.671,2.46,4.671,3.781,4.671     c0.448,0,1.639,0,2.491-0.867c0.634-0.645,0.943-1.627,0.92-2.918l-0.004-0.274H165.987z"/>
  <mask maskUnits="userSpaceOnUse" x="172.544" y="95.1" width="6.363" height="11.646" id="mask-2_11_">
    <polygon id="path-1_11_" fill="#FFFFFF" points="8.649,106.976 191.19,106.976 191.19,3.421 8.649,3.421      "/>
  </mask>
  <polygon id="Fill-17" mask="url(#mask-2_11_)" fill="#0083A8" points="174.515,104.959 174.515,101.678 178.507,101.678      178.507,99.891 174.515,99.891 174.515,96.887 178.814,96.887 178.814,95.1 172.544,95.1 172.544,106.745 178.907,106.745      178.907,104.959    "/>
  <mask maskUnits="userSpaceOnUse" x="181.933" y="94.77" width="4.858" height="4.795" id="mask-2_10_">
    <polygon id="path-1_10_" fill="#FFFFFF" points="8.649,106.976 191.19,106.976 191.19,3.421 8.649,3.421      "/>
  </mask>
  <path id="Fill-18" mask="url(#mask-2_10_)" fill="#0083A8" d="M186.791,97.161c0,1.339-1.083,2.404-2.422,2.404     c-1.344,0-2.436-1.064-2.436-2.404c0-1.326,1.092-2.391,2.436-2.391C185.708,94.77,186.791,95.835,186.791,97.161z      M182.295,97.168c0,1.135,0.924,2.04,2.074,2.04c1.149,0,2.06-0.905,2.06-2.04c0-1.129-0.911-2.041-2.06-2.041     C183.22,95.127,182.295,96.039,182.295,97.168z M183.91,98.551h-0.451V95.79h1.11c0.537,0,0.782,0.344,0.782,0.689     c0,0.325-0.252,0.574-0.608,0.638v0.013c0.348,0.039,0.471,0.146,0.492,0.701c0.005,0.122,0.044,0.548,0.108,0.72h-0.446     c-0.109-0.19-0.084-0.548-0.116-0.918c-0.034-0.293-0.291-0.312-0.42-0.312h-0.453V98.551z M183.91,96.963h0.582     c0.278,0,0.407-0.204,0.407-0.447c0-0.197-0.103-0.42-0.407-0.42h-0.582V96.963z"/>
  <mask maskUnits="userSpaceOnUse" x="8.649" y="26.924" width="58.937" height="58.938" id="mask-2_9_">
    <polygon id="path-1_9_" fill="#FFFFFF" points="8.649,106.976 191.19,106.976 191.19,3.421 8.649,3.421      "/>
  </mask>
  <polygon id="Fill-19" mask="url(#mask-2_9_)" fill="#0083A8" points="8.649,85.861 67.586,85.861 67.586,26.924 8.649,26.924         "/>
  <mask maskUnits="userSpaceOnUse" x="22.587" y="35.901" width="31.063" height="40.985" id="mask-2_8_">
    <polygon id="path-1_8_" fill="#FFFFFF" points="8.649,106.976 191.19,106.976 191.19,3.421 8.649,3.421      "/>
  </mask>
  <path id="Fill-20" mask="url(#mask-2_8_)" fill="#FEFEFE" d="M46.884,67.188c-1.297,2.481-4.115,4.115-8.457,4.115     c-5.468,0-9.132-4.848-9.132-14.714c0-11.049,4.003-15.221,9.809-15.221c4.961,0,7.78,2.022,8.569,6.758h5.976V36.408h-5.637     l-0.282,3.89c-1.465-2.65-5.75-4.397-10.429-4.397c-8.625,0-14.714,6.144-14.714,20.689c0,14.038,6.596,20.295,15.841,20.295     c7.442,0,13.361-3.326,15.165-8.513V54.504H37.47v5.187h9.414V67.188z"/>
  <mask maskUnits="userSpaceOnUse" x="22.344" y="35.658" width="31.548" height="41.47" id="mask-2_7_">
    <polygon id="path-1_7_" fill="#FFFFFF" points="8.649,106.976 191.19,106.976 191.19,3.421 8.649,3.421      "/>
  </mask>
  <path id="Stroke-21" mask="url(#mask-2_7_)" fill="none" stroke="#FEFEFE" stroke-width="0.485" d="M46.884,67.188     c-1.297,2.481-4.115,4.115-8.457,4.115c-5.468,0-9.132-4.848-9.132-14.714c0-11.049,4.003-15.221,9.809-15.221     c4.961,0,7.78,2.022,8.569,6.758h5.976V36.408h-5.637l-0.282,3.89c-1.465-2.65-5.75-4.397-10.429-4.397     c-8.625,0-14.714,6.144-14.714,20.689c0,14.038,6.596,20.295,15.841,20.295c7.442,0,13.361-3.326,15.165-8.513V54.504H37.47     v5.187h9.414V67.188z"/>
  <mask maskUnits="userSpaceOnUse" x="78.779" y="3.42" width="47.244" height="82.441" id="mask-2_6_">
    <polygon id="path-1_6_" fill="#FFFFFF" points="8.649,106.976 191.19,106.976 191.19,3.421 8.649,3.421      "/>
  </mask>
  <polygon id="Fill-22" mask="url(#mask-2_6_)" fill="#0083A8" points="78.779,62.359 126.023,85.862 126.023,26.924 78.779,3.42         "/>
  <mask maskUnits="userSpaceOnUse" x="90.704" y="20.352" width="23.393" height="48.578" id="mask-2_5_">
    <polygon id="path-1_5_" fill="#FFFFFF" points="8.649,106.976 191.19,106.976 191.19,3.421 8.649,3.421      "/>
  </mask>
  <polygon id="Fill-23" mask="url(#mask-2_5_)" fill="#FEFEFE" points="114.097,68.93 114.097,59.081 109.34,56.724 109.34,62.035      99.433,57.125 99.433,45.283 111.246,51.137 111.246,46.389 99.433,40.536 99.433,29.111 109.34,34.02 109.34,38.47      114.097,40.828 114.097,31.942 90.704,20.352 90.704,24.786 94.195,26.516 94.195,54.531 90.704,52.801 90.704,57.339    "/>
  <mask maskUnits="userSpaceOnUse" x="90.461" y="19.961" width="23.878" height="49.36" id="mask-2_4_">
    <polygon id="path-1_4_" fill="#FFFFFF" points="8.649,106.976 191.19,106.976 191.19,3.421 8.649,3.421      "/>
  </mask>
  <polygon id="Stroke-24" mask="url(#mask-2_4_)" fill="none" stroke="#FEFEFE" stroke-width="0.485" points="114.097,68.93      114.097,59.081 109.34,56.724 109.34,62.035 99.433,57.125 99.433,45.283 111.246,51.137 111.246,46.389 99.433,40.536      99.433,29.111 109.34,34.02 109.34,38.47 114.097,40.828 114.097,31.942 90.704,20.352 90.704,24.786 94.195,26.516      94.195,54.531 90.704,52.801 90.704,57.339    "/>
  <mask maskUnits="userSpaceOnUse" x="131.864" y="26.924" width="59.326" height="58.938" id="mask-2_3_">
    <polygon id="path-1_3_" fill="#FFFFFF" points="8.649,106.976 191.19,106.976 191.19,3.421 8.649,3.421      "/>
  </mask>
  <polygon id="Fill-25" mask="url(#mask-2_3_)" fill="#0083A8" points="131.864,85.862 191.19,85.862 191.19,26.924      131.864,26.924    "/>
  <mask maskUnits="userSpaceOnUse" x="143.853" y="36.408" width="35.348" height="39.97" id="mask-2_2_">
    <polygon id="path-1_2_" fill="#FFFFFF" points="8.649,106.976 191.19,106.976 191.19,3.421 8.649,3.421      "/>
  </mask>
  <path id="Fill-26" mask="url(#mask-2_2_)" fill="#FEFEFE" d="M155.128,71.473V41.199h6.428c7.779,0,10.88,3.89,10.88,15.334     c0,11.275-3.101,14.94-10.88,14.94H155.128z M161.556,76.378c12.458,0,17.645-4.397,17.645-19.844     c0-15.729-5.187-20.126-17.645-20.126H143.91v4.792h4.454v30.273h-4.51v4.905H161.556z"/>
  <mask maskUnits="userSpaceOnUse" x="143.611" y="36.165" width="35.833" height="40.455" id="mask-2_1_">
    <polygon id="path-1_1_" fill="#FFFFFF" points="8.649,106.976 191.19,106.976 191.19,3.421 8.649,3.421      "/>
  </mask>
  <path id="Stroke-27" mask="url(#mask-2_1_)" fill="none" stroke="#FEFEFE" stroke-width="0.485" d="M155.128,71.473V41.199h6.428     c7.779,0,10.88,3.89,10.88,15.334c0,11.275-3.101,14.94-10.88,14.94H155.128z M161.556,76.378     c12.458,0,17.645-4.397,17.645-19.844c0-15.729-5.187-20.126-17.645-20.126H143.91v4.792h4.454v30.273h-4.51v4.905H161.556z"/>
</svg>
