<svg xmlns="http://www.w3.org/2000/svg" version="1.1" x="0px" y="0px" viewBox="0 0 111.8 132" style="enable-background:new 0 0 111.8 132;">
  <path fill="#787878" d="M92.1,130l-77.9,0c-1.7,0-3.1-0.8-3.1-1.7c0-0.9,1.4-1.7,3.1-1.7h77.9c1.7,0,3.1,0.8,3.1,1.7    C95.1,129.3,93.8,130,92.1,130z"/>
  <path fill="#333333" d="M75.5,61.5c0.1-0.6,0.6-1.1,1.3-1.1c0.3,0,0.5,0.1,0.8,0.2c0.4,0.2,0.7,0.4,1,0.6c1.3,0.9,2.5,1.7,3.8,2.6       c1.4,1,2.9,1.9,4.4,2.6c0.1,0.1,0.3,0.1,0.4,0.2c0.3-0.5,1.6-6.9,2-9.6l0.5,0.1c-0.1,0.9-0.3,1.7-0.5,2.6       c-0.4,2.1-0.8,4.1-1.3,6.2c0,0.1-0.1,0.3-0.1,0.4c-0.2,0.7-0.2,1-1.3,0.7c-0.5-0.2-0.9-0.4-1.3-0.7c-2-1.1-3.8-2.4-5.7-3.7       c-0.6-0.4-1.3-0.9-1.9-1.3c-0.3-0.2-0.6-0.3-0.9-0.3c-0.5,0-0.9,0.7-0.7,1.1c0.2,0.3,0.4,0.5,0.6,0.8c1.3,1.3,2.7,2.5,4.2,3.6       c1.9,1.4,3.8,2.7,5.9,3.8c0.5,0.2,1,0.4,1.5,0.6c0.8,0.2,1.3-0.1,1.5-0.8c0.8-2.5,1.4-5,2-7.5c0.3-1.5,0.6-3.1,0.9-4.6l0.5,0.1       c-0.5,3.1-1.2,6.2-2.1,9.2c-0.3,1-0.6,2.1-1,3.1c-0.3,0.9-1.1,1.3-2,1.1c-0.6-0.1-1.2-0.4-1.8-0.7c-1.7-0.9-3.3-2-4.9-3.1       c-1.9-1.3-3.7-2.8-5.3-4.5c-0.2-0.3-0.5-0.5-0.7-0.8C75.5,61.9,75.5,61.7,75.5,61.5z"/>
  <path fill="#333333" d="M88.7,72c-0.2,0-0.4,0-0.6-0.1c-0.7-0.1-1.3-0.4-2-0.7c-1.5-0.8-3.1-1.7-5-3.1c-2.3-1.7-4-3.1-5.4-4.6       c-0.3-0.3-0.6-0.7-0.8-1c-0.2-0.3-0.3-0.8-0.3-1.1v0c0.1-1,1-1.8,2.1-1.8c0.4,0,0.8,0.1,1.1,0.2c0.4,0.2,0.8,0.4,1.1,0.6       c0.5,0.4,1.1,0.7,1.6,1.1c0.7,0.5,1.4,1,2.1,1.4c1.2,0.8,2.5,1.7,3.9,2.4c0.4-1.8,1.3-6.2,1.7-8.6c0-0.2,0.1-0.4,0.3-0.5       c0.2-0.1,0.4-0.2,0.6-0.1l0.5,0.1c0.4,0.1,0.7,0.5,0.6,0.9l0,0.2c-0.1,0.8-0.3,1.6-0.4,2.3c-0.3,1.5-0.6,3-0.9,4.5       c-0.1,0.6-0.2,1.1-0.4,1.7c0,0.2-0.1,0.3-0.1,0.4l0,0.1c-0.1,0.4-0.3,0.9-0.7,1.1c-0.5,0.2-1,0.1-1.5,0       c-0.5-0.2-0.9-0.4-1.4-0.7l-0.1-0.1c-2-1.1-3.9-2.4-5.8-3.8c-0.6-0.4-1.2-0.8-1.9-1.3c-0.2-0.1-0.3-0.2-0.4-0.2       c0.1,0.2,0.3,0.4,0.4,0.5c1.1,1.1,2.4,2.3,4.1,3.5c1.5,1.1,3.6,2.6,5.8,3.7c0.4,0.2,0.9,0.4,1.4,0.5c0.3,0.1,0.4,0.1,0.6-0.3       c0.8-2.4,1.4-5,2-7.4c0.3-1.2,0.5-2.5,0.7-3.7l0.2-0.9c0-0.2,0.2-0.4,0.3-0.5c0.2-0.1,0.4-0.2,0.6-0.1l0.5,0.1       c0.4,0.1,0.7,0.5,0.6,0.9c-0.5,2.9-1.2,5.9-2.1,9.3c-0.3,1.1-0.7,2.2-1,3.1C90.6,71.3,89.7,72,88.7,72z"/>
  <path fill="#1A1A1A" d="M92.9,56.8c0,0.1,0,0.2,0,0.3c0,0.2-0.1,0.4-0.1,0.6L89.6,57c0-0.3,0.1-0.5,0.1-0.8       C90.8,56.4,91.8,56.6,92.9,56.8z"/>
  <path fill="#1A1A1A" d="M92.7,58.4c-0.1,0-0.1,0-0.2,0l-3.1-0.6c-0.4-0.1-0.7-0.5-0.6-0.9c0-0.3,0.1-0.5,0.1-0.8       c0-0.2,0.2-0.4,0.3-0.5c0.2-0.1,0.4-0.2,0.6-0.1L93,56c0.4,0.1,0.7,0.4,0.6,0.8l0,0c0,0.1,0,0.2,0,0.3c0,0.2-0.1,0.3-0.1,0.5       l0,0.2c0,0.2-0.2,0.4-0.3,0.5C93,58.4,92.9,58.4,92.7,58.4z"/>
  <path fill="#333333" d="M91.8,62.2c-0.6,2.5-1.2,5.1-2,7.5c-0.3,0.8-0.8,1.1-1.5,0.8c-0.5-0.2-1-0.3-1.5-0.6       c-2.1-1.1-4-2.4-5.9-3.8c-1.5-1.1-2.9-2.3-4.2-3.6c-0.2-0.2-0.4-0.5-0.6-0.8c-0.2-0.4,0.2-1.1,0.7-1.1c0.3,0,0.6,0.1,0.9,0.3       c0.6,0.4,1.3,0.9,1.9,1.3c1.9,1.3,3.7,2.6,5.7,3.7c0.4,0.2,0.9,0.5,1.3,0.7c1,0.3,1,0.1,1.3-0.7c0-0.1,0.1-0.2,0.1-0.4       c0.4-2.1,0.9-4.1,1.3-6.2c0.2-0.9,0.3-1.7,0.5-2.6l3.1,0.6C92.4,59.2,92.2,60.7,91.8,62.2z"/>
  <path fill="#333333" d="M88.7,71.4c-0.2,0-0.4,0-0.7-0.1c-0.6-0.2-1.2-0.4-1.7-0.6c-2.3-1.2-4.5-2.7-6.1-3.9       c-1.8-1.3-3.1-2.5-4.3-3.7c-0.2-0.2-0.5-0.5-0.7-0.9c-0.2-0.4-0.2-1,0-1.4c0.3-0.5,0.8-0.8,1.3-0.8c0.6,0,1,0.2,1.3,0.4       c0.7,0.5,1.4,0.9,2,1.3c1.9,1.3,3.7,2.6,5.6,3.7l0.1,0.1c0.4,0.2,0.7,0.4,1.1,0.5c0.1,0,0.1,0,0.2,0.1c0,0,0-0.1,0-0.1l0-0.1       c0-0.1,0-0.2,0.1-0.3c0.1-0.6,0.2-1.1,0.4-1.7c0.3-1.5,0.6-3,0.9-4.4c0.2-0.8,0.3-1.5,0.4-2.3l0-0.3c0-0.2,0.2-0.4,0.3-0.5       c0.2-0.1,0.4-0.2,0.6-0.1l3.1,0.6c0.4,0.1,0.7,0.5,0.6,0.9l-0.2,0.9c-0.2,1.2-0.5,2.5-0.7,3.7l0,0c-0.6,2.5-1.2,5.1-2,7.6       C90.2,70.9,89.6,71.4,88.7,71.4z M76.8,61.5c0.1,0.2,0.3,0.4,0.4,0.5c1.1,1.1,2.4,2.3,4.1,3.5c1.5,1.1,3.6,2.6,5.8,3.7       c0.4,0.2,0.9,0.4,1.4,0.5c0.3,0.1,0.4,0.1,0.6-0.3c0.8-2.4,1.4-5,2-7.4l0,0c0.3-1.2,0.5-2.5,0.7-3.7l0-0.1l-1.5-0.3       c-0.1,0.6-0.2,1.2-0.3,1.8c-0.3,1.5-0.6,3-0.9,4.5c-0.1,0.6-0.2,1.1-0.4,1.7c0,0.2-0.1,0.3-0.1,0.4l0,0.1       c-0.1,0.4-0.3,0.9-0.7,1.1c-0.5,0.2-1,0.1-1.5,0c-0.5-0.2-0.9-0.4-1.4-0.7l-0.1-0.1c-2-1.1-3.9-2.4-5.8-3.8       c-0.6-0.4-1.2-0.8-1.9-1.3C77,61.6,76.9,61.5,76.8,61.5z"/>
  <path fill="#1A1A1A" d="M107.5,44.7c-0.4-0.5-1-0.8-1.6-1c-0.1,0-0.1,0-0.1,0c0,0,0,0,0,0c-0.7-0.1-1.4-0.2-2.1-0.2        c-2.1,0-4.2,0.5-6.1,1.4c1-0.8,4.9-2,7-1.8c0,0,0,0-0.1,0c0.4,0,0.8,0.1,1.1,0.1c0,0,0-0.1,0-0.1c-0.2-0.3-0.4-0.6-0.7-0.8        c-0.7-0.5-1.5-0.6-2.3-0.6c-0.8,0-1.7,0.2-2.5,0.4c-0.8,0.2-1.6,0.5-2.4,0.9c-0.8,0.3-1.6,0.7-2.3,1.1        c-0.2,0.1-0.5,0.3-0.7,0.4c-0.1,0.1-0.3,0.1-0.4,0.2c-0.3,0.1-0.6,0.3-0.9,0.4c0.3-0.3,0.6-0.5,0.9-0.8        c0.2-0.2,0.3-0.5,0.5-0.8c0.2-0.3,0.3-0.7,0.4-1.1c0.1-0.4,0.2-0.8,0.2-1.1c0-0.4,0-0.7-0.1-1.1c-0.2-0.7-0.9-1.3-1.5-1.3        c-0.3,0-0.7,0.1-1,0.3c-0.3,0.2-0.5,0.5-0.7,0.9c-0.4,0.7-0.5,1.5-0.7,2.2c-0.1,0.4-0.3,0.8-0.5,1.1c-0.2,0.4-0.5,0.7-0.8,1        c-0.6,0.6-1.2,1.1-1.7,1.7c-0.5,0.6-0.8,1.3-0.8,2.1c-0.1,0.6,0,1.1,0.1,1.7c0.2,0.5,0.4,1,0.8,1.5c0,0-0.5-0.6-0.6-0.6        c-0.3,0.2-1.3,0.9-1.5,1c0.2,1.5,1.1,2.9,2.1,4c1.1,1.1,2.5,1.5,4,1.6c0.8,0.1,1.7,0,2.5-0.2c0-0.4-0.1-0.8-0.1-1.2        c0-0.2,0-0.4,0-0.6c0-0.2-0.1-0.2-0.2-0.3c0.7-0.2,1.3-0.5,2-0.8l2.2-1.1c0.7-0.4,1.5-0.7,2.4-0.9c0.8-0.2,1.6-0.4,2.5-0.4        c0.8-0.1,1.7,0,2.4-0.3c0.3-0.2,0.6-0.4,0.7-0.7c0.1-0.2,0.1-0.5,0-0.7c0-0.1-0.1-0.2-0.2-0.3c0,0-0.1-0.1-0.1-0.1        c-0.2-0.2-0.5-0.4-0.8-0.6c-0.4-0.2-0.7-0.3-1.1-0.4c-0.7-0.1-1.6-0.1-2.5,0.1c-0.9,0.2-1.8,0.5-2.5,0.7c0,0,0,0,0.1,0        c0.2-0.1,0.3-0.2,0.5-0.3c0.8-0.4,2.1-0.8,3-0.9c1.3-0.1,2.7,0.1,3.6,1.1c0,0,0.1,0,0.1,0c0,0,0,0,0,0.1c0,0,0,0,0,0l0.2-0.1        c0.1,0,0.2-0.1,0.2-0.1c0.1,0,0.1-0.1,0.2-0.1c0.1-0.1,0.3-0.2,0.4-0.3c0.1-0.1,0.2-0.2,0.3-0.4c0.1-0.1,0.1-0.3,0.1-0.4        c0-0.3-0.1-0.6-0.3-0.9c-0.1-0.2-0.3-0.4-0.4-0.5c-0.1-0.1-0.3-0.2-0.4-0.3c-0.2-0.1-0.4-0.2-0.7-0.3c-0.3-0.1-0.6-0.1-1-0.2        c-0.3,0-0.7-0.1-1-0.1c-1.9-0.1-3.9,0-5.8,0.8c0,0,0,0,0.1-0.1c0.2-0.1,0.4-0.2,0.6-0.3c1-0.4,2.5-0.8,3.4-0.8        c0.8,0,1.6,0,2.4,0.1c0.7,0.1,1.4,0.2,2,0.6c0,0,0-0.1,0.1-0.1c0.1,0,0.2,0.1,0.2,0.1c0.1-0.1,0.1-0.1,0.2-0.2        c0.2-0.2,0.3-0.5,0.3-0.9C107.9,45.3,107.7,45,107.5,44.7z"/>
  <path fill="#333333" d="M93.1,58.5c-0.3,0-0.5,0-0.8,0c-2-0.2-3.4-0.8-4.5-1.9c-1.3-1.3-2.2-2.9-2.4-4.5c0-0.3,0.1-0.7,0.4-0.8        c0.1-0.1,0.6-0.4,1-0.7c0-0.1-0.1-0.2-0.1-0.2c-0.2-0.7-0.2-1.3-0.2-2c0.1-0.9,0.4-1.8,1-2.5c0.4-0.5,0.8-0.9,1.2-1.2        c0.2-0.2,0.4-0.4,0.6-0.5c0.3-0.3,0.5-0.6,0.7-0.8c0.2-0.3,0.3-0.6,0.4-0.9c0.1-0.2,0.1-0.5,0.2-0.7c0.1-0.6,0.3-1.1,0.6-1.7        c0.3-0.5,0.6-0.8,0.9-1.1c0.5-0.4,1-0.5,1.5-0.5c1.1,0,2,1,2.3,1.9c0.2,0.4,0.2,0.9,0.2,1.5c0,0.4-0.1,0.8-0.2,1.3        c0,0.1,0,0.1-0.1,0.2c0.5-0.2,1-0.5,1.5-0.7c0.9-0.4,1.7-0.7,2.5-0.9c1-0.3,1.9-0.4,2.7-0.5c1.1,0,2.1,0.2,2.9,0.7        c0.4,0.3,0.7,0.7,1,1.1c0,0.1,0,0.1,0.1,0.1c0,0,0,0.1,0,0.1c0.8,0.3,1.4,0.7,1.8,1.2c0,0,0,0,0,0c0.3,0.4,0.5,0.9,0.5,1.4        c0,0.5-0.1,0.9-0.4,1.3c0.1,0.1,0.2,0.2,0.2,0.3c0.3,0.4,0.4,0.9,0.4,1.3c0,0,0,0,0,0c0,0.2-0.1,0.5-0.2,0.7c0,0,0,0,0,0.1        c-0.1,0.2-0.2,0.4-0.4,0.6c-0.2,0.2-0.3,0.3-0.5,0.4l0,0c-0.1,0-0.2,0.1-0.3,0.1c0,0,0,0,0,0c0,0.3,0,0.6-0.1,0.8        c-0.2,0.5-0.6,1-1.2,1.2c-0.6,0.3-1.3,0.3-1.9,0.3c-0.3,0-0.5,0-0.8,0c-0.8,0.1-1.6,0.2-2.3,0.4c-0.8,0.2-1.5,0.5-2.2,0.8        l-2.2,1.1c-0.5,0.2-0.9,0.4-1.3,0.6c0,0.1,0,0.2,0,0.3l0,0.1c0,0.1,0,0.2,0,0.4c0,0.3,0,0.6,0.1,0.8c0,0.4-0.2,0.7-0.6,0.8        C94.5,58.4,93.8,58.5,93.1,58.5z M87.2,52.4c0.3,1,0.9,2.1,1.8,3c0.8,0.8,1.9,1.2,3.4,1.4c0.6,0,1.1,0,1.5,0c0,0,0,0,0-0.1        c0-0.1,0-0.2,0-0.4l0-0.1c0-0.1,0-0.2,0-0.3c-0.2-0.2-0.3-0.4-0.2-0.7c0-0.3,0.3-0.6,0.6-0.7c0.5-0.2,1.1-0.4,1.9-0.8l2.2-1.1        c0.8-0.4,1.6-0.7,2.5-1c0.9-0.2,1.7-0.4,2.6-0.5c0.3,0,0.6,0,0.9,0c0.5,0,0.9,0,1.2-0.2c0.2-0.1,0.3-0.2,0.3-0.2l0,0        c0,0,0,0,0,0c0,0,0,0,0,0c0,0,0,0,0-0.1c0,0,0,0,0,0c0,0,0,0,0,0c-0.1-0.2-0.3-0.3-0.5-0.4c-0.3-0.1-0.6-0.2-0.9-0.3        c-0.7-0.1-1.5-0.1-2.2,0.1c-0.6,0.1-1.3,0.3-1.8,0.5c-0.2,0.1-0.4,0.1-0.6,0.2c-0.4,0.1-0.8-0.1-1-0.5c-0.2-0.4,0-0.8,0.3-1.1        l0.1,0c0,0,0,0,0,0c0.2-0.1,0.4-0.2,0.6-0.3c0,0,0,0,0,0c0.9-0.4,2.3-0.9,3.3-0.9c1.7-0.1,3,0.3,4,1.1c0,0,0,0,0.1,0l0,0        c0.1,0,0.1-0.1,0.2-0.1c0,0,0,0,0,0c0,0,0,0,0.1-0.1c0,0,0-0.1,0-0.1c0-0.1-0.1-0.2-0.1-0.4c-0.1-0.1-0.2-0.2-0.3-0.3        c-0.1-0.1-0.2-0.1-0.3-0.2c-0.2-0.1-0.3-0.2-0.5-0.2c-0.2-0.1-0.5-0.1-0.7-0.2l-0.1,0c-0.3,0-0.6-0.1-0.9-0.1        c-2.1-0.1-3.8,0.1-5.4,0.7c-0.4,0.2-0.9,0-1.1-0.4c-0.2-0.4-0.1-0.8,0.2-1.1c0,0,0.1,0,0.1-0.1c0,0,0,0,0,0        c0.2-0.1,0.4-0.2,0.7-0.4c0,0,0,0,0,0c1-0.4,2.6-0.8,3.7-0.9c0.8,0,1.6,0,2.6,0.1c0.7,0.1,1.2,0.2,1.8,0.4        c0-0.1-0.1-0.3-0.2-0.4c-0.2-0.3-0.6-0.5-1.2-0.7c0,0-0.1,0-0.1,0c0,0,0,0,0,0c0,0,0,0,0,0c-0.6-0.1-1.3-0.2-2-0.2        c-2,0-4,0.5-5.7,1.4c-0.4,0.2-0.9,0.1-1.1-0.3c-0.2-0.3-0.2-0.7,0.1-1c-0.4,0.2-0.8,0.4-1.1,0.6c-0.3,0.1-0.5,0.3-0.8,0.4        c-0.1,0.1-0.3,0.1-0.4,0.2c-0.3,0.1-0.6,0.3-1,0.4c-0.4,0.2-0.8,0-1-0.3c-0.2-0.3-0.2-0.8,0.1-1.1c0.3-0.3,0.6-0.5,0.9-0.8        c0.1-0.1,0.2-0.3,0.3-0.5c0.1-0.3,0.3-0.6,0.3-1c0.1-0.3,0.2-0.7,0.2-1c0-0.3,0-0.5-0.1-0.7c-0.2-0.4-0.5-0.7-0.8-0.7        c-0.1,0-0.3,0.1-0.4,0.2c-0.2,0.1-0.3,0.3-0.5,0.6c-0.2,0.4-0.3,0.8-0.4,1.3c-0.1,0.3-0.1,0.5-0.2,0.8c-0.2,0.5-0.4,1-0.6,1.3        c-0.2,0.4-0.5,0.7-0.9,1.1c-0.2,0.2-0.4,0.4-0.6,0.6c-0.4,0.3-0.7,0.7-1,1c-0.4,0.5-0.6,1.1-0.6,1.6c0,0.4,0,0.9,0.1,1.4        c0.1,0.4,0.3,0.8,0.6,1.2c0.3,0.4,0.3,0.9-0.1,1.2s-0.9,0.3-1.2-0.1c0,0-0.1-0.1-0.1-0.1C87.5,52.2,87.3,52.3,87.2,52.4z         M105.6,44.5C105.6,44.5,105.6,44.5,105.6,44.5C105.6,44.5,105.6,44.5,105.6,44.5z M105.6,44.5        C105.6,44.5,105.6,44.5,105.6,44.5C105.6,44.5,105.6,44.5,105.6,44.5z"/>
  <path fill="#FFFFFF" d="M107.5,44.7c-0.4-0.5-1-0.8-1.6-1c-0.1,0-0.1,0-0.1,0c0,0,0,0,0,0c-0.7-0.1-1.4-0.2-2.1-0.2        c-2.1,0-4.2,0.5-6.1,1.4c1-0.8,4.9-2,7-1.8c0,0,0,0-0.1,0c0.4,0,0.8,0.1,1.1,0.1c0,0,0-0.1,0-0.1c-0.2-0.3-0.4-0.6-0.7-0.8        c-0.7-0.5-1.5-0.6-2.3-0.6c-0.8,0-1.7,0.2-2.5,0.4c-0.8,0.2-1.6,0.5-2.4,0.9c-0.8,0.3-1.6,0.7-2.3,1.1        c-0.2,0.1-0.5,0.3-0.7,0.4c-0.1,0.1-0.3,0.1-0.4,0.2c-0.3,0.1-0.6,0.3-0.9,0.4c0.3-0.3,0.6-0.5,0.9-0.8        c0.2-0.2,0.3-0.5,0.5-0.8c0.2-0.3,0.3-0.7,0.4-1.1c0.1-0.4,0.2-0.8,0.2-1.1c0-0.4,0-0.7-0.1-1.1c-0.2-0.7-0.9-1.3-1.5-1.3        c-0.3,0-0.7,0.1-1,0.3c-0.3,0.2-0.5,0.5-0.7,0.9c-0.4,0.7-0.5,1.5-0.7,2.2c-0.1,0.4-0.3,0.8-0.5,1.1c-0.2,0.4-0.5,0.7-0.8,1        c-0.6,0.6-1.2,1.1-1.7,1.7c-0.5,0.6-0.8,1.3-0.8,2.1c-0.1,0.6,0,1.1,0.1,1.7c0.2,0.5,0.4,1,0.8,1.5c0,0-0.5-0.6-0.6-0.6        c-0.3,0.2-1.3,0.9-1.5,1c0.2,1.5,1.1,2.9,2.1,4c1.1,1.1,2.5,1.5,4,1.6c0.8,0.1,1.7,0,2.5-0.2c0-0.4-0.1-0.8-0.1-1.2        c0-0.2,0-0.4,0-0.6c0-0.2-0.1-0.2-0.2-0.3c0.7-0.2,1.3-0.5,2-0.8l2.2-1.1c0.7-0.4,1.5-0.7,2.4-0.9c0.8-0.2,1.6-0.4,2.5-0.4        c0.8-0.1,1.7,0,2.4-0.3c0.3-0.2,0.6-0.4,0.7-0.7c0.1-0.2,0.1-0.5,0-0.7c0-0.1-0.1-0.2-0.2-0.3c0,0-0.1-0.1-0.1-0.1        c-0.2-0.2-0.5-0.4-0.8-0.6c-0.4-0.2-0.7-0.3-1.1-0.4c-0.7-0.1-1.6-0.1-2.5,0.1c-0.9,0.2-1.8,0.5-2.5,0.7c0,0,0,0,0.1,0        c0.2-0.1,0.3-0.2,0.5-0.3c0.8-0.4,2.1-0.8,3-0.9c1.3-0.1,2.7,0.1,3.6,1.1c0,0,0.1,0,0.1,0c0,0,0,0,0,0.1c0,0,0,0,0,0l0.2-0.1        c0.1,0,0.2-0.1,0.2-0.1c0.1,0,0.1-0.1,0.2-0.1c0.1-0.1,0.3-0.2,0.4-0.3c0.1-0.1,0.2-0.2,0.3-0.4c0.1-0.1,0.1-0.3,0.1-0.4        c0-0.3-0.1-0.6-0.3-0.9c-0.1-0.2-0.3-0.4-0.4-0.5c-0.1-0.1-0.3-0.2-0.4-0.3c-0.2-0.1-0.4-0.2-0.7-0.3c-0.3-0.1-0.6-0.1-1-0.2        c-0.3,0-0.7-0.1-1-0.1c-1.9-0.1-3.9,0-5.8,0.8c0,0,0,0,0.1-0.1c0.2-0.1,0.4-0.2,0.6-0.3c1-0.4,2.5-0.8,3.4-0.8        c0.8,0,1.6,0,2.4,0.1c0.7,0.1,1.4,0.2,2,0.6c0,0,0-0.1,0.1-0.1c0.1,0,0.2,0.1,0.2,0.1c0.1-0.1,0.1-0.1,0.2-0.2        c0.2-0.2,0.3-0.5,0.3-0.9C107.9,45.3,107.7,45,107.5,44.7z"/>
  <path fill="#333333" d="M93.1,57.8c-0.2,0-0.5,0-0.8,0c-1.8-0.1-3.1-0.7-4.1-1.7c-1.2-1.2-2-2.7-2.2-4.1c0-0.1,0-0.1,0.1-0.2        c0.2-0.1,1.2-0.8,1.5-1c-0.1-0.2-0.2-0.4-0.3-0.7c-0.2-0.6-0.2-1.2-0.2-1.7c0.1-0.8,0.4-1.5,0.9-2.2c0.3-0.4,0.7-0.8,1.1-1.2        c0.2-0.2,0.4-0.4,0.6-0.6c0.3-0.3,0.6-0.6,0.8-0.9c0.2-0.3,0.4-0.7,0.5-1.1c0.1-0.2,0.1-0.5,0.2-0.7c0.1-0.5,0.3-1.1,0.5-1.5        c0.2-0.4,0.5-0.7,0.7-0.9c0.3-0.3,0.7-0.4,1.1-0.4c0.8,0,1.5,0.8,1.7,1.4c0.1,0.3,0.2,0.7,0.1,1.2c0,0.4-0.1,0.8-0.2,1.2        c-0.1,0.4-0.2,0.8-0.4,1.1c-0.1,0.3-0.3,0.5-0.4,0.7c0.1,0,0.1-0.1,0.2-0.1c0.3-0.1,0.5-0.2,0.7-0.4c0.7-0.4,1.5-0.8,2.3-1.1        c0.8-0.4,1.6-0.7,2.4-0.9c1-0.3,1.8-0.4,2.5-0.5c1,0,1.8,0.2,2.5,0.6c0.3,0.2,0.6,0.5,0.7,0.8c0,0,0,0.1,0,0.1        c0,0.1,0,0.1,0,0.2c0,0.1-0.1,0.1-0.2,0.1c-0.3-0.1-0.6-0.1-1-0.1c0,0-0.1,0-0.1,0c-0.3,0-0.6,0-0.9,0c0,0,0,0,0,0        c0.7,0,1.5,0.1,2.1,0.2c0,0,0,0,0,0c0.1,0,0.1,0,0.2,0c0.5,0.1,1.3,0.4,1.7,1c0,0,0,0,0,0c0.3,0.3,0.4,0.7,0.4,1        c0,0.4-0.1,0.7-0.3,1c-0.1,0.1-0.1,0.1-0.2,0.2c-0.1,0.1-0.2,0.1-0.2,0c0,0-0.1,0-0.1,0c0,0,0,0-0.1,0        c0.1,0.1,0.3,0.2,0.4,0.3c0.2,0.2,0.4,0.3,0.5,0.5c0.2,0.3,0.3,0.6,0.3,1c0,0.2,0,0.3-0.1,0.5c-0.1,0.1-0.2,0.3-0.3,0.4        c-0.1,0.1-0.2,0.2-0.4,0.3l0,0c-0.1,0-0.1,0.1-0.2,0.1c-0.1,0-0.1,0.1-0.2,0.1l-0.2,0.1c-0.1,0-0.1,0-0.2,0c0,0-0.1,0-0.1,0        c0.1,0.1,0.1,0.2,0.2,0.3c0.1,0.3,0.1,0.6,0,0.8c-0.1,0.3-0.4,0.7-0.8,0.8c-0.5,0.2-1,0.2-1.6,0.2c-0.3,0-0.5,0-0.8,0        c-0.8,0.1-1.7,0.2-2.5,0.4c-0.8,0.2-1.6,0.5-2.3,0.9l-2.2,1.1c-0.7,0.3-1.2,0.6-1.7,0.7c0,0.1,0,0.1,0.1,0.2        c0,0.2,0,0.4,0,0.5l0,0.1c0,0.1,0,0.2,0,0.4c0,0.3,0,0.5,0.1,0.8c0,0.1-0.1,0.2-0.1,0.2C94.3,57.7,93.8,57.8,93.1,57.8z         M86.5,52.1c0.2,1.3,1,2.7,2.1,3.8c0.9,0.9,2.2,1.4,3.9,1.6c0.9,0.1,1.6,0,2.2-0.1c0-0.2,0-0.4,0-0.6c0-0.1,0-0.2,0-0.4l0-0.1        c0-0.2,0-0.4,0-0.5c0-0.1,0-0.1-0.1-0.2c-0.1,0-0.1-0.1-0.1-0.2c0-0.1,0.1-0.1,0.1-0.2c0.6-0.2,1.2-0.4,2-0.8l2.2-1.1        c0.7-0.4,1.5-0.7,2.4-0.9c0.8-0.2,1.7-0.4,2.5-0.4c0.3,0,0.6,0,0.8,0c0.5,0,1.1,0,1.5-0.2c0.3-0.1,0.5-0.4,0.6-0.6        c0.1-0.2,0-0.4,0-0.5c0-0.1-0.1-0.2-0.1-0.2c0,0-0.1-0.1-0.1-0.1c-0.2-0.2-0.4-0.4-0.8-0.5c-0.4-0.2-0.7-0.3-1.1-0.3        c-0.7-0.1-1.6-0.1-2.5,0.1c-0.7,0.2-1.3,0.4-1.9,0.5c-0.2,0.1-0.4,0.1-0.5,0.2c-0.1,0-0.2,0-0.2-0.1c0-0.1,0-0.2,0.1-0.2        l0.1,0c0.2-0.1,0.4-0.2,0.6-0.3c0.9-0.4,2.2-0.8,3.1-0.9c1.6-0.1,2.9,0.3,3.7,1.1c0.1,0,0.1,0,0.2,0.1l0.1,0        c0.1,0,0.1,0,0.2-0.1c0.1,0,0.1-0.1,0.2-0.1l0,0c0.1-0.1,0.2-0.1,0.3-0.2c0.1-0.1,0.1-0.2,0.2-0.3c0-0.1,0.1-0.2,0.1-0.3        c0-0.2-0.1-0.5-0.2-0.7c-0.1-0.2-0.2-0.3-0.4-0.5c-0.1-0.1-0.2-0.2-0.4-0.3c-0.2-0.1-0.4-0.2-0.7-0.3        c-0.3-0.1-0.5-0.1-0.8-0.2l-0.1,0c-0.4,0-0.7-0.1-1-0.1c-2.2-0.2-4,0.1-5.7,0.8c-0.1,0-0.2,0-0.2-0.1c0-0.1,0-0.2,0.1-0.2        c0,0,0.1,0,0.1-0.1c0.2-0.1,0.4-0.2,0.6-0.3c1.1-0.5,2.6-0.8,3.5-0.8c0.7,0,1.5,0,2.5,0.1c0.7,0.1,1.3,0.2,1.9,0.5        c0,0,0,0,0.1,0c0,0,0.1,0,0.1,0c0,0,0.1,0,0.1,0.1c0,0,0,0,0.1-0.1c0.2-0.2,0.3-0.5,0.2-0.7c0-0.3-0.1-0.5-0.3-0.8        c-0.4-0.5-1-0.8-1.5-0.9c-0.1,0-0.1,0-0.1,0c-0.7-0.1-1.4-0.2-2.1-0.2c-2.1,0-4.2,0.5-6,1.4c-0.1,0-0.2,0-0.2-0.1        c-0.1-0.1,0-0.2,0-0.3c1.1-0.8,4.8-2,7-1.9c0,0,0.1,0,0.1,0c0.3,0,0.5,0,0.8,0.1c-0.1-0.2-0.3-0.3-0.5-0.5        c-0.7-0.5-1.6-0.6-2.2-0.5c-0.7,0-1.5,0.2-2.5,0.4c-0.8,0.2-1.6,0.5-2.4,0.9c-0.8,0.4-1.6,0.7-2.3,1.1        c-0.3,0.1-0.5,0.3-0.8,0.4c-0.1,0.1-0.3,0.1-0.4,0.2c-0.3,0.1-0.6,0.3-1,0.4c-0.1,0-0.2,0-0.2-0.1c0-0.1,0-0.2,0-0.2        c0.3-0.3,0.6-0.5,0.9-0.8c0.1-0.2,0.3-0.4,0.4-0.7c0.2-0.3,0.3-0.7,0.4-1.1c0.1-0.4,0.2-0.8,0.2-1.1c0-0.4,0-0.7-0.1-1        c-0.2-0.6-0.7-1.2-1.4-1.2c-0.3,0-0.6,0.1-0.8,0.3c-0.2,0.2-0.5,0.5-0.6,0.8c-0.2,0.4-0.4,0.9-0.5,1.4        c-0.1,0.3-0.1,0.5-0.2,0.8c-0.1,0.5-0.3,0.9-0.5,1.2c-0.2,0.3-0.5,0.6-0.8,1c-0.2,0.2-0.4,0.4-0.6,0.6        c-0.4,0.4-0.8,0.7-1.1,1.1c-0.5,0.6-0.7,1.3-0.8,2c-0.1,0.5,0,1,0.1,1.6c0.2,0.5,0.4,1,0.8,1.4c0.1,0.1,0.1,0.2,0,0.3        c-0.1,0.1-0.2,0.1-0.3,0c-0.2-0.2-0.4-0.4-0.5-0.5C87.4,51.4,86.8,51.9,86.5,52.1z"/>
  <path fill="#333333" d="M91.6,48.7c0.3-0.3,0.7-0.5,1.1-0.7c0.4-0.2,0.8-0.4,1.2-0.6c-0.5,0-0.9,0.1-1.3,0.3        c-0.4,0.2-0.8,0.4-1.2,0.7c-0.4,0.3-0.7,0.6-1,1c-0.3,0.4-0.5,0.8-0.7,1.2c0.3-0.3,0.6-0.7,0.9-1        C90.9,49.2,91.3,48.9,91.6,48.7z"/>
  <path fill="#333333" d="M36.5,60.4c-0.1-0.6-0.6-1.1-1.3-1.1c-0.3,0-0.5,0.1-0.8,0.2c-0.4,0.2-0.7,0.4-1,0.6       c-1.3,0.9-2.5,1.7-3.8,2.6c-1.4,1-2.9,1.9-4.4,2.6c-0.1,0.1-0.3,0.1-0.4,0.2c-0.3-0.5-1.6-6.9-2-9.6L22.3,56       c0.1,0.9,0.3,1.7,0.5,2.6c0.4,2.1,0.8,4.1,1.3,6.2c0,0.1,0.1,0.3,0.1,0.4c0.2,0.7,0.2,1,1.3,0.7c0.5-0.2,0.9-0.4,1.3-0.7       c2-1.1,3.8-2.4,5.7-3.7c0.6-0.4,1.3-0.9,1.9-1.3c0.3-0.2,0.6-0.3,0.9-0.3c0.5,0,0.9,0.7,0.7,1.1c-0.2,0.3-0.4,0.5-0.6,0.8       c-1.3,1.3-2.7,2.5-4.2,3.6c-1.9,1.4-3.8,2.7-5.9,3.8c-0.5,0.2-1,0.4-1.5,0.6c-0.8,0.2-1.3-0.1-1.5-0.8c-0.8-2.5-1.4-5-2-7.5       c-0.3-1.5-0.6-3.1-0.9-4.6l-0.5,0.1c0.5,3.1,1.2,6.2,2.1,9.2c0.3,1,0.6,2.1,1,3.1c0.3,0.9,1.1,1.3,2,1.1       c0.6-0.1,1.2-0.4,1.8-0.7c1.7-0.9,3.3-2,4.9-3.1c1.9-1.3,3.7-2.8,5.3-4.5c0.2-0.3,0.5-0.5,0.7-0.8       C36.4,60.9,36.5,60.6,36.5,60.4z"/>
  <path fill="#333333" d="M23.3,70.9c-1,0-1.9-0.6-2.3-1.7c-0.3-0.9-0.7-2-1-3.1c-0.9-3.3-1.6-6.4-2.1-9.3c-0.1-0.4,0.2-0.8,0.6-0.9       l0.5-0.1c0.2,0,0.4,0,0.6,0.1c0.2,0.1,0.3,0.3,0.3,0.5l0.2,0.9c0.2,1.2,0.5,2.5,0.7,3.7c0.5,2.4,1.1,5,2,7.4       c0.1,0.4,0.3,0.4,0.6,0.3c0.5-0.2,1-0.3,1.4-0.5c2.2-1.1,4.3-2.6,5.8-3.7c1.7-1.3,3-2.4,4.1-3.5c0.1-0.2,0.3-0.3,0.4-0.5       c-0.1,0-0.2,0.1-0.4,0.2c-0.7,0.5-1.3,0.9-1.9,1.3c-1.9,1.3-3.8,2.7-5.8,3.8L27,65.8c-0.4,0.2-0.9,0.5-1.4,0.7       c-0.5,0.2-1,0.3-1.5,0c-0.5-0.2-0.6-0.7-0.7-1.1l0-0.1c0-0.1-0.1-0.3-0.1-0.4c-0.1-0.6-0.2-1.1-0.4-1.7c-0.3-1.5-0.6-3-0.9-4.5       c-0.2-0.8-0.3-1.6-0.4-2.4l0-0.2c-0.1-0.4,0.2-0.8,0.6-0.9l0.5-0.1c0.2,0,0.4,0,0.6,0.1c0.2,0.1,0.3,0.3,0.3,0.5       c0.4,2.4,1.3,6.9,1.7,8.6c1.4-0.7,2.7-1.6,3.9-2.4c0.7-0.5,1.4-1,2.1-1.4c0.5-0.4,1.1-0.8,1.6-1.1c0.3-0.2,0.7-0.5,1.1-0.6       c0.3-0.1,0.7-0.2,1.1-0.2c1,0,1.9,0.7,2.1,1.8l0,0c0,0.4-0.1,0.8-0.3,1.1c-0.2,0.3-0.4,0.6-0.8,1c-1.4,1.5-3.1,2.9-5.4,4.6       c-1.9,1.4-3.5,2.4-5,3.1c-0.7,0.4-1.3,0.6-2,0.7C23.7,70.9,23.5,70.9,23.3,70.9z"/>
  <path fill="#1A1A1A" d="M19.1,55.7c0,0.1,0,0.2,0,0.3c0,0.2,0.1,0.4,0.1,0.6l3.1-0.6c0-0.3-0.1-0.5-0.1-0.8       C21.2,55.4,20.2,55.6,19.1,55.7z"/>
  <path fill="#1A1A1A" d="M19.2,57.4c-0.2,0-0.3,0-0.4-0.1c-0.2-0.1-0.3-0.3-0.3-0.5l0-0.2c0-0.1-0.1-0.3-0.1-0.4c0-0.1,0-0.2,0-0.3       l0,0c0-0.4,0.2-0.8,0.6-0.8l3.1-0.5c0.2,0,0.4,0,0.6,0.1c0.2,0.1,0.3,0.3,0.3,0.5c0,0.3,0.1,0.5,0.1,0.8       c0.1,0.4-0.2,0.8-0.6,0.9l-3.1,0.6C19.4,57.4,19.3,57.4,19.2,57.4z"/>
  <path fill="#333333" d="M20.2,61.2c0.6,2.5,1.2,5.1,2,7.5c0.3,0.8,0.8,1.1,1.5,0.8c0.5-0.2,1-0.3,1.5-0.6c2.1-1.1,4-2.4,5.9-3.8       c1.5-1.1,2.9-2.3,4.2-3.6c0.2-0.2,0.4-0.5,0.6-0.8c0.2-0.4-0.2-1.1-0.7-1.1c-0.3,0-0.6,0.1-0.9,0.3c-0.6,0.4-1.3,0.9-1.9,1.3       c-1.9,1.3-3.7,2.6-5.7,3.7c-0.4,0.2-0.9,0.5-1.3,0.7c-1,0.3-1,0.1-1.3-0.7c0-0.1-0.1-0.2-0.1-0.4c-0.4-2.1-0.9-4.1-1.3-6.2       c-0.2-0.9-0.3-1.7-0.5-2.6l-3.1,0.6C19.5,58.2,19.8,59.7,20.2,61.2z"/>
  <path fill="#333333" d="M23.2,70.4c-0.8,0-1.5-0.5-1.8-1.4c-0.9-2.5-1.5-5.1-2-7.6l0,0c-0.3-1.2-0.5-2.5-0.7-3.7l-0.2-0.9       c-0.1-0.4,0.2-0.8,0.6-0.9l3.1-0.6c0.2,0,0.4,0,0.6,0.1c0.2,0.1,0.3,0.3,0.3,0.5l0,0.2c0.1,0.8,0.3,1.5,0.4,2.3       c0.3,1.5,0.6,3,0.9,4.5c0.1,0.6,0.2,1.1,0.4,1.7c0,0.1,0.1,0.2,0.1,0.3l0,0.1c0,0,0,0.1,0,0.1c0.1,0,0.1,0,0.2-0.1       c0.4-0.1,0.7-0.3,1.1-0.5l0.1-0.1c1.9-1.1,3.8-2.4,5.6-3.7c0.6-0.4,1.2-0.8,2-1.3c0.3-0.2,0.8-0.5,1.3-0.4c0.5,0,1,0.3,1.3,0.8       c0.3,0.5,0.3,1,0,1.4c-0.2,0.4-0.5,0.7-0.7,0.9c-1.1,1.2-2.5,2.4-4.3,3.7c-1.6,1.2-3.7,2.7-6.1,3.9c-0.5,0.2-1,0.5-1.7,0.6       C23.7,70.4,23.5,70.4,23.2,70.4z M20.2,57.2l0,0.1c0.2,1.2,0.5,2.5,0.7,3.7l0,0c0.5,2.4,1.1,5,2,7.4c0.1,0.4,0.3,0.4,0.6,0.3       c0.5-0.2,1-0.3,1.4-0.5c2.2-1.1,4.3-2.6,5.8-3.7c1.7-1.3,3-2.4,4.1-3.5c0.1-0.2,0.3-0.3,0.4-0.5c-0.1,0-0.2,0.1-0.4,0.2       c-0.7,0.5-1.3,0.9-1.9,1.3c-1.9,1.3-3.8,2.7-5.8,3.8L27,65.8c-0.4,0.2-0.9,0.5-1.4,0.7c-0.5,0.2-1,0.3-1.5,0       c-0.5-0.2-0.6-0.7-0.7-1.1l0-0.1c0-0.1-0.1-0.3-0.1-0.4c-0.1-0.6-0.2-1.1-0.4-1.7c-0.3-1.5-0.6-3-0.9-4.5       c-0.1-0.6-0.2-1.2-0.3-1.8L20.2,57.2z"/>
  <path fill="#1A1A1A" d="M4.4,43.7c0.4-0.5,1-0.8,1.6-1c0.1,0,0.1,0,0.1,0c0,0,0,0,0,0c0.7-0.1,1.4-0.2,2.1-0.2        c2.1,0,4.2,0.5,6.1,1.4c-1-0.8-4.9-2-7-1.8c0,0,0,0,0.1,0c-0.4,0-0.8,0.1-1.1,0.1c0,0,0-0.1,0-0.1c0.2-0.3,0.4-0.6,0.7-0.8        c0.7-0.5,1.5-0.6,2.3-0.6c0.8,0,1.7,0.2,2.5,0.4c0.8,0.2,1.6,0.5,2.4,0.9c0.8,0.3,1.6,0.7,2.3,1.1c0.2,0.1,0.5,0.3,0.7,0.4        c0.1,0.1,0.3,0.1,0.4,0.2c0.3,0.1,0.6,0.3,0.9,0.4c-0.3-0.3-0.6-0.5-0.9-0.8c-0.2-0.2-0.3-0.5-0.5-0.8        c-0.2-0.3-0.3-0.7-0.4-1.1c-0.1-0.4-0.2-0.8-0.2-1.1c0-0.4,0-0.7,0.1-1.1c0.2-0.7,0.9-1.3,1.5-1.3c0.3,0,0.7,0.1,1,0.3        c0.3,0.2,0.5,0.5,0.7,0.9c0.4,0.7,0.5,1.5,0.7,2.2c0.1,0.4,0.3,0.8,0.5,1.1c0.2,0.4,0.5,0.7,0.8,1c0.6,0.6,1.2,1.1,1.7,1.7        c0.5,0.6,0.8,1.3,0.8,2.1c0.1,0.6,0,1.1-0.1,1.7c-0.2,0.5-0.4,1-0.8,1.5c0,0,0.5-0.6,0.6-0.6c0.3,0.2,1.3,0.9,1.5,1        c-0.2,1.5-1.1,2.9-2.1,4c-1.1,1.1-2.5,1.5-4,1.6c-0.8,0.1-1.7,0-2.5-0.2c0-0.4,0.1-0.8,0.1-1.2c0-0.2,0-0.4,0-0.6        c0-0.2,0.1-0.2,0.2-0.3c-0.7-0.2-1.3-0.5-2-0.8l-2.2-1.1c-0.7-0.4-1.5-0.7-2.4-0.9c-0.8-0.2-1.6-0.4-2.5-0.4        c-0.8-0.1-1.7,0-2.4-0.3c-0.3-0.2-0.6-0.4-0.7-0.7c-0.1-0.2-0.1-0.5,0-0.7c0-0.1,0.1-0.2,0.2-0.3c0,0,0.1-0.1,0.1-0.1        c0.2-0.2,0.5-0.4,0.8-0.6c0.4-0.2,0.7-0.3,1.1-0.4c0.7-0.1,1.6-0.1,2.5,0.1c0.9,0.2,1.8,0.5,2.5,0.7c0,0,0,0-0.1,0        c-0.2-0.1-0.3-0.2-0.5-0.3c-0.8-0.4-2.1-0.8-3-0.9c-1.3-0.1-2.7,0.1-3.6,1.1c0,0-0.1,0-0.1,0c0,0,0,0,0,0.1c0,0,0,0,0,0        L5,48.8c-0.1,0-0.2-0.1-0.2-0.1c-0.1,0-0.1-0.1-0.2-0.1c-0.1-0.1-0.3-0.2-0.4-0.3C4.1,48.2,4,48.1,3.9,48        c-0.1-0.1-0.1-0.3-0.1-0.4c0-0.3,0.1-0.6,0.3-0.9c0.1-0.2,0.3-0.4,0.4-0.5C4.7,46.1,4.8,46,5,45.9c0.2-0.1,0.4-0.2,0.7-0.3        c0.3-0.1,0.6-0.1,1-0.2c0.3,0,0.7-0.1,1-0.1c1.9-0.1,3.9,0,5.8,0.8c0,0,0,0-0.1-0.1c-0.2-0.1-0.4-0.2-0.6-0.3        c-1-0.4-2.5-0.8-3.4-0.8c-0.8,0-1.6,0-2.4,0.1c-0.7,0.1-1.4,0.2-2,0.6c0,0,0-0.1-0.1-0.1c-0.1,0-0.2,0.1-0.2,0.1        c-0.1-0.1-0.1-0.1-0.2-0.2c-0.2-0.2-0.3-0.5-0.3-0.9C4.1,44.3,4.2,44,4.4,43.7z"/>
  <path fill="#333333" d="M18.8,57.4c-0.7,0-1.3-0.1-1.9-0.2c-0.4-0.1-0.6-0.5-0.6-0.8c0-0.3,0-0.6,0.1-0.8c0-0.1,0-0.2,0-0.4        l0-0.2c0-0.1,0-0.1,0-0.2c-0.4-0.2-0.8-0.3-1.3-0.6l-2.2-1.1c-0.7-0.3-1.4-0.6-2.2-0.8c-0.8-0.2-1.5-0.3-2.3-0.4        c-0.3,0-0.5,0-0.8,0c-0.6,0-1.3,0-1.9-0.3c-0.6-0.3-1-0.7-1.2-1.2c-0.1-0.3-0.1-0.5-0.1-0.8c0,0,0,0,0,0        c-0.1,0-0.2-0.1-0.3-0.1l0,0c-0.2-0.1-0.4-0.3-0.6-0.4c-0.2-0.2-0.3-0.4-0.4-0.6c0,0,0,0,0-0.1C3,48.1,3,47.8,3,47.6        c0,0,0,0,0,0c0-0.4,0.1-0.9,0.4-1.3c0.1-0.1,0.1-0.2,0.2-0.3c-0.3-0.4-0.4-0.9-0.4-1.4c0-0.4,0.2-0.9,0.5-1.3c0,0,0,0,0,0        c0.4-0.5,1-0.9,1.8-1.2c0,0,0-0.1,0-0.1c0,0,0-0.1,0.1-0.1c0.2-0.4,0.5-0.8,1-1.1c0.8-0.5,1.7-0.8,2.9-0.7        c0.8,0,1.7,0.2,2.7,0.5c0.8,0.2,1.7,0.5,2.5,0.9c0.5,0.2,1.1,0.5,1.5,0.7c0-0.1,0-0.1-0.1-0.2C16,41.4,16,41,15.9,40.5        c-0.1-0.6,0-1,0.2-1.5c0.3-0.9,1.2-1.8,2.3-1.8c0.5,0,1.1,0.2,1.5,0.5c0.4,0.3,0.7,0.7,0.9,1.1c0.3,0.5,0.4,1.1,0.6,1.7        c0.1,0.2,0.1,0.5,0.2,0.7c0.1,0.4,0.3,0.7,0.4,0.9c0.2,0.3,0.4,0.5,0.7,0.8c0.2,0.2,0.4,0.4,0.6,0.5c0.4,0.4,0.8,0.8,1.2,1.2        c0.6,0.7,0.9,1.6,1,2.5c0.1,0.6,0,1.3-0.2,1.9c0,0.1-0.1,0.2-0.1,0.3c0.4,0.3,0.9,0.6,1,0.7c0.3,0.2,0.4,0.5,0.4,0.8        c-0.2,1.5-1.1,3.2-2.4,4.5c-1.1,1.1-2.6,1.7-4.5,1.9C19.4,57.4,19.1,57.4,18.8,57.4z M18.1,55.7c0.4,0.1,0.9,0.1,1.5,0        c1.5-0.1,2.7-0.6,3.4-1.4c0.9-0.9,1.5-2,1.8-3c-0.1-0.1-0.3-0.2-0.5-0.3c0,0-0.1,0.1-0.1,0.1c-0.3,0.3-0.8,0.4-1.2,0.1        c-0.3-0.3-0.4-0.8-0.1-1.2c0.3-0.3,0.5-0.7,0.6-1.2c0.1-0.5,0.2-0.9,0.1-1.3c0-0.6-0.3-1.2-0.6-1.7c-0.3-0.4-0.6-0.7-1-1        c-0.2-0.2-0.4-0.4-0.6-0.6c-0.4-0.4-0.7-0.7-0.9-1.1c-0.2-0.4-0.4-0.8-0.6-1.4c-0.1-0.3-0.2-0.5-0.2-0.8        c-0.1-0.5-0.2-0.9-0.4-1.3c-0.1-0.3-0.3-0.5-0.5-0.6c-0.1-0.1-0.3-0.2-0.4-0.2c-0.3,0-0.6,0.3-0.8,0.7        c-0.1,0.2-0.1,0.4-0.1,0.7c0,0.3,0.1,0.7,0.2,1c0.1,0.4,0.2,0.7,0.3,1c0.1,0.2,0.2,0.4,0.3,0.5c0.3,0.2,0.6,0.5,0.9,0.8        c0.3,0.3,0.3,0.7,0.1,1.1c-0.2,0.3-0.7,0.5-1,0.3c-0.3-0.1-0.7-0.3-1-0.4c-0.1-0.1-0.3-0.1-0.4-0.2c-0.2-0.1-0.5-0.3-0.8-0.4        c-0.4-0.2-0.7-0.4-1.1-0.6c0.2,0.3,0.3,0.7,0.1,1c-0.2,0.4-0.7,0.5-1.1,0.3c-1.7-0.9-3.7-1.3-5.7-1.4c-0.7,0-1.4,0.1-2,0.2        c0,0,0,0,0,0c0,0,0,0,0,0c0,0-0.1,0-0.1,0c-0.6,0.2-1,0.4-1.2,0.7c-0.1,0.2-0.2,0.3-0.2,0.4c0.6-0.2,1.2-0.3,1.8-0.4        c1-0.1,1.8-0.2,2.6-0.1c1.1,0.1,2.7,0.4,3.7,0.9c0,0,0,0,0,0c0.2,0.1,0.5,0.2,0.7,0.4c0,0,0,0,0,0c0,0,0.1,0.1,0.1,0.1        c0.3,0.3,0.4,0.7,0.2,1.1c-0.2,0.4-0.7,0.5-1.1,0.4c-1.5-0.6-3.3-0.9-5.4-0.7c-0.3,0-0.6,0.1-1,0.1l-0.1,0        c-0.3,0-0.5,0.1-0.7,0.2c-0.2,0.1-0.4,0.1-0.5,0.2c-0.1,0.1-0.2,0.1-0.3,0.2C5,46.9,4.9,47,4.8,47.1c-0.1,0.1-0.1,0.3-0.1,0.4        c0,0,0,0.1,0,0.1c0,0.1,0.1,0.1,0.1,0.1c0,0,0,0,0,0c0,0,0.1,0.1,0.2,0.1l0,0c0,0,0,0,0.1,0c1-0.8,2.3-1.2,4-1.1        c1,0.1,2.4,0.5,3.3,0.9c0,0,0,0,0,0c0.2,0.1,0.4,0.2,0.6,0.3c0,0,0,0,0,0c0,0,0.1,0,0.1,0.1c0.4,0.2,0.5,0.7,0.3,1.1        c-0.2,0.4-0.6,0.6-1,0.5c-0.2-0.1-0.4-0.1-0.6-0.2c-0.6-0.2-1.2-0.4-1.9-0.5c-0.7-0.2-1.5-0.2-2.2-0.1        c-0.3,0.1-0.6,0.2-0.9,0.3c-0.2,0.1-0.4,0.2-0.5,0.4c0,0,0,0,0,0c0,0,0,0,0,0c0,0,0,0,0,0.1c0,0,0,0,0,0c0,0,0,0,0,0.1        c0,0,0.1,0.2,0.3,0.2c0.3,0.1,0.7,0.1,1.2,0.2c0.3,0,0.6,0,0.9,0c0.9,0.1,1.8,0.2,2.6,0.5c0.9,0.2,1.7,0.6,2.5,1l2.2,1.1        c0.7,0.4,1.3,0.6,1.9,0.8c0.3,0.1,0.6,0.4,0.6,0.7c0,0.3-0.1,0.5-0.2,0.7c0,0.1,0,0.2,0,0.2l0,0.2        C18.1,55.4,18.1,55.5,18.1,55.7C18.1,55.6,18.1,55.7,18.1,55.7z"/>
  <path fill="#FFFFFF" d="M4.4,43.7c0.4-0.5,1-0.8,1.6-1c0.1,0,0.1,0,0.1,0c0,0,0,0,0,0c0.7-0.1,1.4-0.2,2.1-0.2        c2.1,0,4.2,0.5,6.1,1.4c-1-0.8-4.9-2-7-1.8c0,0,0,0,0.1,0c-0.4,0-0.8,0.1-1.1,0.1c0,0,0-0.1,0-0.1c0.2-0.3,0.4-0.6,0.7-0.8        c0.7-0.5,1.5-0.6,2.3-0.6c0.8,0,1.7,0.2,2.5,0.4c0.8,0.2,1.6,0.5,2.4,0.9c0.8,0.3,1.6,0.7,2.3,1.1c0.2,0.1,0.5,0.3,0.7,0.4        c0.1,0.1,0.3,0.1,0.4,0.2c0.3,0.1,0.6,0.3,0.9,0.4c-0.3-0.3-0.6-0.5-0.9-0.8c-0.2-0.2-0.3-0.5-0.5-0.8        c-0.2-0.3-0.3-0.7-0.4-1.1c-0.1-0.4-0.2-0.8-0.2-1.1c0-0.4,0-0.7,0.1-1.1c0.2-0.7,0.9-1.3,1.5-1.3c0.3,0,0.7,0.1,1,0.3        c0.3,0.2,0.5,0.5,0.7,0.9c0.4,0.7,0.5,1.5,0.7,2.2c0.1,0.4,0.3,0.8,0.5,1.1c0.2,0.4,0.5,0.7,0.8,1c0.6,0.6,1.2,1.1,1.7,1.7        c0.5,0.6,0.8,1.3,0.8,2.1c0.1,0.6,0,1.1-0.1,1.7c-0.2,0.5-0.4,1-0.8,1.5c0,0,0.5-0.6,0.6-0.6c0.3,0.2,1.3,0.9,1.5,1        c-0.2,1.5-1.1,2.9-2.1,4c-1.1,1.1-2.5,1.5-4,1.6c-0.8,0.1-1.7,0-2.5-0.2c0-0.4,0.1-0.8,0.1-1.2c0-0.2,0-0.4,0-0.6        c0-0.2,0.1-0.2,0.2-0.3c-0.7-0.2-1.3-0.5-2-0.8l-2.2-1.1c-0.7-0.4-1.5-0.7-2.4-0.9c-0.8-0.2-1.6-0.4-2.5-0.4        c-0.8-0.1-1.7,0-2.4-0.3c-0.3-0.2-0.6-0.4-0.7-0.7c-0.1-0.2-0.1-0.5,0-0.7c0-0.1,0.1-0.2,0.2-0.3c0,0,0.1-0.1,0.1-0.1        c0.2-0.2,0.5-0.4,0.8-0.6c0.4-0.2,0.7-0.3,1.1-0.4c0.7-0.1,1.6-0.1,2.5,0.1c0.9,0.2,1.8,0.5,2.5,0.7c0,0,0,0-0.1,0        c-0.2-0.1-0.3-0.2-0.5-0.3c-0.8-0.4-2.1-0.8-3-0.9c-1.3-0.1-2.7,0.1-3.6,1.1c0,0-0.1,0-0.1,0c0,0,0,0,0,0.1c0,0,0,0,0,0        L5,48.8c-0.1,0-0.2-0.1-0.2-0.1c-0.1,0-0.1-0.1-0.2-0.1c-0.1-0.1-0.3-0.2-0.4-0.3C4.1,48.2,4,48.1,3.9,48        c-0.1-0.1-0.1-0.3-0.1-0.4c0-0.3,0.1-0.6,0.3-0.9c0.1-0.2,0.3-0.4,0.4-0.5C4.7,46.1,4.8,46,5,45.9c0.2-0.1,0.4-0.2,0.7-0.3        c0.3-0.1,0.6-0.1,1-0.2c0.3,0,0.7-0.1,1-0.1c1.9-0.1,3.9,0,5.8,0.8c0,0,0,0-0.1-0.1c-0.2-0.1-0.4-0.2-0.6-0.3        c-1-0.4-2.5-0.8-3.4-0.8c-0.8,0-1.6,0-2.4,0.1c-0.7,0.1-1.4,0.2-2,0.6c0,0,0-0.1-0.1-0.1c-0.1,0-0.2,0.1-0.2,0.1        c-0.1-0.1-0.1-0.1-0.2-0.2c-0.2-0.2-0.3-0.5-0.3-0.9C4.1,44.3,4.2,44,4.4,43.7z"/>
  <path fill="#333333" d="M18.8,56.8c-0.7,0-1.2-0.1-1.7-0.2c-0.1,0-0.1-0.1-0.1-0.2c0-0.3,0-0.5,0.1-0.8c0-0.1,0-0.2,0-0.4l0-0.2        c0-0.2,0-0.3,0-0.5c0-0.1,0-0.2,0.1-0.2c-0.5-0.2-1.1-0.4-1.7-0.7l-2.2-1.1c-0.7-0.4-1.5-0.7-2.3-0.9        c-0.8-0.2-1.6-0.4-2.4-0.4c-0.3,0-0.6,0-0.8,0c-0.6,0-1.1,0-1.6-0.2c-0.4-0.2-0.7-0.5-0.8-0.8c-0.1-0.3-0.1-0.5,0-0.8        c0-0.1,0.1-0.2,0.2-0.3c0,0-0.1,0-0.1,0c0,0-0.1,0.1-0.2,0L4.9,49c-0.1,0-0.2-0.1-0.3-0.1c-0.1,0-0.1-0.1-0.2-0.1l0,0        c-0.2-0.1-0.3-0.2-0.4-0.3c-0.1-0.1-0.2-0.3-0.3-0.4c-0.1-0.2-0.1-0.3-0.1-0.5c0-0.3,0.1-0.7,0.3-1C4,46.4,4.2,46.2,4.4,46        c0.1-0.1,0.2-0.2,0.4-0.2c0,0,0,0-0.1,0c0,0-0.1,0-0.1,0c-0.1,0-0.2,0-0.2,0c-0.1-0.1-0.1-0.1-0.2-0.2c-0.2-0.3-0.4-0.6-0.3-1        c0-0.3,0.2-0.7,0.4-1c0,0,0,0,0,0c0.5-0.6,1.2-0.9,1.7-1c0.1,0,0.1,0,0.2,0c0,0,0,0,0,0c0.7-0.1,1.4-0.2,2.1-0.2        c-0.3,0-0.6,0-0.9,0c0,0-0.1,0-0.1,0c-0.3,0-0.7,0.1-1,0.1c-0.1,0-0.1,0-0.2-0.1c0-0.1-0.1-0.1,0-0.2c0,0,0-0.1,0-0.1        c0.2-0.3,0.4-0.6,0.7-0.8c0.6-0.4,1.5-0.6,2.5-0.6c0.8,0,1.6,0.2,2.5,0.5c0.8,0.2,1.6,0.5,2.4,0.9c0.9,0.4,1.6,0.7,2.3,1.1        c0.2,0.1,0.5,0.3,0.7,0.4c0.1,0,0.1,0.1,0.2,0.1c-0.2-0.2-0.3-0.4-0.4-0.7c-0.2-0.3-0.3-0.7-0.4-1.1c-0.1-0.4-0.2-0.8-0.2-1.2        c0-0.5,0-0.8,0.1-1.2c0.2-0.7,0.9-1.4,1.7-1.4c0.4,0,0.8,0.1,1.1,0.4c0.3,0.2,0.5,0.5,0.7,0.9c0.3,0.5,0.4,1,0.5,1.5        c0.1,0.2,0.1,0.5,0.2,0.7c0.1,0.4,0.3,0.8,0.5,1.1c0.2,0.3,0.4,0.6,0.8,0.9c0.2,0.2,0.4,0.4,0.6,0.6c0.4,0.4,0.8,0.7,1.1,1.2        c0.5,0.6,0.8,1.4,0.9,2.2c0.1,0.5,0,1.1-0.2,1.7c-0.1,0.2-0.2,0.5-0.3,0.7c0.3,0.2,1.3,0.9,1.5,1c0.1,0,0.1,0.1,0.1,0.2        c-0.2,1.4-1,2.9-2.2,4.1c-1,1-2.3,1.5-4.1,1.7C19.4,56.8,19.1,56.8,18.8,56.8z M17.4,56.2c0.6,0.2,1.4,0.2,2.2,0.1        c1.7-0.1,3-0.6,3.9-1.6c1.1-1.1,1.8-2.5,2.1-3.8c-0.3-0.2-1-0.6-1.3-0.9c-0.1,0.1-0.3,0.3-0.5,0.5c-0.1,0.1-0.2,0.1-0.3,0        c-0.1-0.1-0.1-0.2,0-0.3c0.4-0.4,0.6-0.9,0.8-1.4c0.1-0.5,0.2-1.1,0.1-1.6c-0.1-0.7-0.3-1.4-0.8-2c-0.3-0.4-0.7-0.7-1.1-1.1        c-0.2-0.2-0.4-0.4-0.6-0.6c-0.3-0.3-0.6-0.7-0.8-1c-0.2-0.3-0.4-0.7-0.5-1.2c-0.1-0.3-0.1-0.5-0.2-0.8c-0.1-0.5-0.3-1-0.5-1.4        c-0.2-0.3-0.4-0.6-0.6-0.8c-0.3-0.2-0.6-0.3-0.8-0.3c-0.7,0-1.2,0.6-1.4,1.2c-0.1,0.3-0.1,0.6-0.1,1c0,0.4,0.1,0.7,0.2,1.1        c0.1,0.4,0.2,0.7,0.4,1.1c0.1,0.3,0.3,0.5,0.4,0.7c0.3,0.2,0.6,0.5,0.9,0.8c0.1,0.1,0.1,0.2,0,0.2c0,0.1-0.1,0.1-0.2,0.1        c-0.3-0.1-0.6-0.3-1-0.4c-0.1-0.1-0.3-0.1-0.4-0.2c-0.2-0.1-0.5-0.2-0.7-0.4c-0.7-0.4-1.5-0.8-2.3-1.1        c-0.8-0.4-1.6-0.6-2.4-0.9c-0.9-0.3-1.7-0.4-2.5-0.4c-0.6,0-1.5,0-2.2,0.5C7,41.6,6.8,41.8,6.7,42c0.2,0,0.5-0.1,0.8-0.1        c0,0,0.1,0,0.1,0c2.2-0.1,5.9,1.1,7,1.9c0.1,0.1,0.1,0.2,0,0.3c-0.1,0.1-0.2,0.1-0.2,0.1c-1.8-0.9-3.9-1.4-6-1.4        c-0.7,0-1.4,0.1-2.1,0.2c0,0,0,0,0,0c0,0-0.1,0-0.1,0C5.6,43,5,43.3,4.6,43.8c-0.2,0.3-0.3,0.6-0.3,0.8c0,0.3,0.1,0.5,0.2,0.7        c0,0,0,0,0.1,0.1c0,0,0.1,0,0.1-0.1c0,0,0.1,0,0.1,0c0,0,0,0,0.1,0c0.6-0.3,1.2-0.4,1.9-0.5c1-0.1,1.8-0.2,2.5-0.1        c0.9,0,2.4,0.4,3.5,0.8c0.2,0.1,0.4,0.2,0.6,0.3c0,0,0.1,0,0.1,0.1c0.1,0.1,0.1,0.2,0.1,0.2c0,0.1-0.1,0.1-0.2,0.1        c-1.6-0.7-3.5-0.9-5.7-0.8c-0.3,0-0.6,0.1-1,0.1l-0.1,0c-0.3,0-0.6,0.1-0.8,0.2C5.4,45.9,5.2,46,5,46.1        c-0.1,0.1-0.3,0.2-0.4,0.3c-0.2,0.1-0.3,0.3-0.4,0.5C4.1,47,4,47.3,4,47.5c0,0.1,0,0.2,0.1,0.4c0,0.1,0.1,0.2,0.2,0.3        c0.1,0.1,0.2,0.2,0.3,0.2l0,0c0.1,0,0.1,0.1,0.2,0.1c0.1,0,0.1,0.1,0.2,0.1l0.1,0c0,0,0.1-0.1,0.2-0.1        c0.8-0.9,2.1-1.2,3.7-1.1c0.9,0.1,2.2,0.5,3.1,0.9c0.2,0.1,0.4,0.2,0.6,0.3c0,0,0.1,0,0.1,0c0.1,0.1,0.1,0.2,0.1,0.2        c0,0.1-0.1,0.1-0.2,0.1c-0.2-0.1-0.4-0.1-0.5-0.2c-0.6-0.2-1.2-0.4-1.9-0.5c-0.8-0.2-1.7-0.2-2.5-0.1        c-0.4,0.1-0.7,0.2-1.1,0.3c-0.3,0.1-0.6,0.3-0.7,0.5c0,0-0.1,0.1-0.1,0.1c-0.1,0.1-0.1,0.2-0.1,0.2c-0.1,0.2-0.1,0.4,0,0.5        c0.1,0.2,0.3,0.5,0.6,0.6c0.4,0.2,0.9,0.2,1.5,0.2c0.3,0,0.6,0,0.8,0c0.9,0.1,1.7,0.2,2.5,0.4c0.8,0.2,1.6,0.5,2.4,0.9        l2.2,1.1c0.8,0.4,1.4,0.6,2,0.8c0.1,0,0.1,0.1,0.1,0.2c0,0.1,0,0.1-0.1,0.2c-0.1,0.1-0.1,0.1-0.1,0.2c0,0.2,0,0.3,0,0.5l0,0.2        c0,0.1,0,0.2,0,0.4C17.4,55.8,17.4,56,17.4,56.2z"/>
  <path fill="#333333" d="M20.4,47.7c-0.3-0.3-0.7-0.5-1.1-0.7c-0.4-0.2-0.8-0.4-1.2-0.6c0.5,0,0.9,0.1,1.3,0.3        c0.4,0.2,0.8,0.4,1.2,0.7c0.4,0.3,0.7,0.6,1,1c0.3,0.4,0.5,0.8,0.7,1.2c-0.3-0.3-0.6-0.7-0.9-1C21,48.2,20.7,47.9,20.4,47.7z"/>
  <path fill="#333333" d="M49.1,112.6c0.8,0.2,1.5,0.6,2,1.2c0.5,0.6,0.4,1.3-0.2,1.8c-0.1,0.1-0.3,0.2-0.4,0.4      c0.2,0.5,0.3,1,0.4,1.5c0.5,2.3,0.8,4.6,0.8,6.9c0,1-0.4,1.6-1.2,2c-1.5,0.8-3.1,1.2-4.8,1.4c-2,0.2-4,0.1-6-0.3      c-1.3-0.3-2.6-0.7-3.9-1.3c-1.3-0.6-1.9-1.6-2-3c-0.1-1.5,0.4-2.8,1.1-4.1c1.3-2.2,3.3-3.3,5.9-3.2c0.2,0,0.4,0,0.6,0      c0.2-0.3,0.4-0.7,0.6-1c0.1-0.1,0.1-0.2,0.1-0.3c-0.1-0.8,0.2-1.3,0.9-1.7c0.5-0.3,1.1-0.4,1.6-0.5c0.2,0,0.3-0.1,0.5-0.1      c0-0.2,0-0.5,0-0.7c-0.1-0.8-0.1-1.6-0.2-2.4c-0.1-1.7-0.2-3.3-0.3-5c-0.2-2.4-0.3-4.8-0.5-7.2c-0.1-1.6-0.2-3.2-0.3-4.9      c-0.1-1.8-0.2-3.7-0.2-5.5c0-0.5,0.1-1,0.2-1.4c0.2-0.9,1-1.3,1.9-1c0.5,0.2,0.9,0.5,1.2,1c0.4,0.6,0.6,1.2,0.6,1.8      c0.1,1.4,0.2,2.7,0.3,4.1c0.1,5.4,0.2,10.7,0.3,16.1c0,1.6,0,3.1,0,4.7c0,0.2,0,0.4,0,0.6C48.5,112.5,48.8,112.5,49.1,112.6z       M48.7,116.2c0.2-0.1,0.3-0.2,0.5-0.2c0.5-0.2,1-0.4,1.4-0.8c0.4-0.3,0.4-0.7,0.1-1.1c-0.3-0.4-0.8-0.7-1.3-0.9      c-0.3-0.1-0.7-0.2-1.1-0.3c0,0.2-0.1,0.4-0.1,0.6c0,0.4-0.2,0.6-0.5,0.8c-0.5,0.3-1,0.3-1.6,0.2c-0.4-0.1-0.6-0.3-0.7-0.7      c-0.1-0.3-0.1-0.7-0.2-1c-0.7,0.1-1.3,0.2-1.8,0.5c-0.4,0.2-0.7,0.5-0.7,1c0,0.5,0.3,0.8,0.7,1.1c0.2,0.1,0.4,0.2,0.6,0.3      c0.1,0.1,0.2,0.1,0.3,0.2c-0.5,0.5-0.9,0.3-1.8-0.5c-0.1,0.1-0.2,0.2-0.2,0.3c-0.1,0.1-0.1,0.2-0.2,0.4c0.1,0,0.1,0.1,0.1,0.1      c2.2,0.6,3.9,2,5.3,3.7c0.2,0.3,0.4,0.6,0.6,1c0.1,0.2,0.2,0.4,0,0.6c-0.1-0.1-0.2-0.1-0.3-0.2c-0.8-1.3-1.9-2.3-3.1-3.2      c-1.3-1-2.8-1.5-4.5-1.5c-1.5,0.1-2.7,0.6-3.7,1.7c-1.3,1.4-2,3-2,4.9c0,1.2,0.5,2.1,1.6,2.6c1.6,0.7,3.3,1.2,5,1.4      c1.5,0.2,3,0.3,4.6,0.1c1.7-0.2,3.4-0.6,4.9-1.5c0.4-0.2,0.6-0.5,0.5-0.9c-0.1-1.2,0-2.5-0.1-3.7c-0.1-1.6-0.4-3.2-0.9-4.8      C48.9,116.5,48.9,116.5,48.7,116.2z M47.2,114c0.3-0.1,0.4-0.2,0.4-0.5c0-0.5-0.1-1.1-0.1-1.6c0-3.5-0.1-7-0.1-10.5      c-0.1-3.6-0.2-7.3-0.3-10.9c0-1.2-0.2-2.4-0.3-3.6c-0.1-0.6-0.2-1.1-0.6-1.6c-0.2-0.3-0.4-0.5-0.8-0.5c-0.5-0.1-0.9,0.1-1.1,0.6      c-0.1,0.4-0.1,0.7-0.1,1.1c0,1.6,0.1,3.1,0.2,4.7c0.1,1.6,0.2,3.2,0.3,4.8c0.1,1.9,0.3,3.7,0.4,5.6c0.1,1.6,0.2,3.2,0.3,4.9      c0.1,1.7,0.3,3.4,0.4,5.2c0.1,0.7,0.1,1.5,0.1,2.3C46.4,114.1,46.8,114.1,47.2,114z"/>
  <path fill="#333333" d="M43.7,128.8c-1.4,0-2.8-0.1-4.2-0.4c-1.4-0.3-2.8-0.7-4.1-1.3c-1.5-0.7-2.4-2-2.5-3.8      c-0.1-1.6,0.3-3,1.2-4.6c1.5-2.6,3.7-3.8,6.7-3.7c0,0,0,0,0.1,0c0.1-0.2,0.2-0.3,0.3-0.4c-0.1-1,0.4-1.9,1.4-2.5      c0.5-0.3,1-0.5,1.7-0.6c0-0.3,0-0.6-0.1-0.9c0-0.5-0.1-0.9-0.1-1.4c-0.1-1.7-0.2-3.3-0.3-5l-0.1-1.5c-0.1-1.9-0.3-3.8-0.4-5.7      c-0.1-1.7-0.2-3.3-0.3-4.9c-0.1-2.1-0.2-3.8-0.2-5.6c0-0.5,0.1-1.1,0.2-1.7c0.2-0.6,0.6-1.1,1.1-1.4c0.6-0.3,1.2-0.4,1.9-0.2      c0.7,0.2,1.3,0.6,1.7,1.3c0.4,0.7,0.7,1.4,0.8,2.2c0,0.3,0,0.6,0.1,0.8c0.1,1.1,0.2,2.2,0.2,3.3c0.1,5.5,0.2,10.9,0.3,16.1      c0,1.1,0,2.2,0,3.2c0,0.4,0,0.8,0,1.3c0.1,0,0.2,0,0.3,0.1c1.1,0.3,1.9,0.8,2.5,1.5c0.8,1,0.7,2.2-0.3,3.1      c0.1,0.3,0.2,0.7,0.3,1c0.6,2.3,0.8,4.7,0.8,7.1c0,1.3-0.6,2.2-1.7,2.8c-1.5,0.8-3.3,1.3-5.1,1.5      C45.1,128.7,44.4,128.8,43.7,128.8z M40.4,117.4c-0.1,0-0.2,0-0.3,0c-1.3,0.1-2.3,0.5-3.1,1.4c-1.2,1.3-1.7,2.7-1.7,4.3      c0,0.9,0.4,1.4,1.1,1.8c1.5,0.7,3.1,1.1,4.7,1.4c1.6,0.2,3,0.2,4.3,0.1c1.9-0.2,3.3-0.6,4.6-1.4c0,0,0.1,0,0.1-0.1      c0,0,0,0,0-0.1c0-0.6,0-1.2,0-1.7c0-0.7,0-1.4-0.1-2c-0.1-1.4-0.3-2.7-0.6-3.9c-0.6,0.1-1,0-1.4-0.6l-0.7-0.9l1-0.5      c0,0,0.1,0,0.1-0.1c0.1-0.1,0.3-0.1,0.4-0.2c0.4-0.1,0.7-0.3,1-0.5c-0.2-0.2-0.5-0.4-0.9-0.5c0,0,0,0,0,0      c-0.1,0.5-0.4,0.8-0.9,1.1c-0.7,0.4-1.5,0.4-2.2,0.2c-0.7-0.2-1.2-0.7-1.3-1.4c0,0,0-0.1,0-0.1c-0.3,0.1-0.5,0.2-0.8,0.3      c-0.2,0.1-0.2,0.2-0.3,0.2c0,0,0,0,0,0c0,0.1,0,0.2,0.2,0.3c0.1,0,0.2,0.1,0.3,0.1c0.1,0,0.2,0.1,0.3,0.1      c0.1,0.1,0.2,0.1,0.3,0.2c0,0,0.1,0,0.1,0.1l0.9,0.6l-0.7,0.7c1.1,0.7,2.1,1.6,3.2,2.8c0.3,0.3,0.4,0.6,0.6,0.9l0.1,0.2      c0.4,0.7,0.2,1.3-0.1,1.6l-0.6,0.7l-0.7-0.6c0,0,0,0,0,0c-0.1-0.1-0.3-0.2-0.4-0.4c-0.7-1.2-1.8-2.2-2.8-2.9      C42.9,117.8,41.7,117.4,40.4,117.4z M45.2,85.7c-0.1,0.3-0.1,0.6-0.1,0.9c0,1.6,0.1,3.1,0.2,4.6c0.1,1.4,0.2,3,0.3,4.7      c0.1,1.4,0.2,2.9,0.3,4.3l0.1,1.3c0.1,1.6,0.2,3.2,0.3,4.9c0.1,0.7,0.1,1.5,0.2,2.2c0.1,1,0.1,2,0.2,2.9c0,0.4,0.1,0.8,0.1,1.2      c0-0.3,0-0.6,0-0.9c0-1.2,0-2.4,0-3.5c0-2.3,0-4.6-0.1-6.9c-0.1-3.2-0.2-6.7-0.3-10.9c0-1-0.1-2-0.2-3l0-0.5      c0-0.4-0.2-0.8-0.4-1.1C45.4,85.7,45.3,85.7,45.2,85.7C45.3,85.7,45.2,85.7,45.2,85.7z M45.2,85.6L45.2,85.6L45.2,85.6z"/>
  <path fill="#FFFFFF" d="M50,116.3c-1.1,0.2-1.1,0.2-1.4-0.1c0.2-0.1,0.3-0.2,0.5-0.2c0.5-0.2,1-0.4,1.4-0.8      c0.4-0.3,0.4-0.7,0.1-1.1c-0.3-0.4-0.8-0.7-1.3-0.9c-0.3-0.1-0.7-0.2-1.1-0.3c0,0.2-0.1,0.4-0.1,0.6c0,0.4-0.2,0.6-0.5,0.8      c-0.5,0.3-1,0.3-1.6,0.2c-0.4-0.1-0.6-0.3-0.7-0.7c-0.1-0.3-0.1-0.7-0.2-1c-0.7,0.1-1.3,0.2-1.8,0.5c-0.4,0.2-0.7,0.5-0.7,1      c0,0.5,0.3,0.8,0.7,1.1c0.2,0.1,0.4,0.2,0.6,0.3c0.1,0.1,0.2,0.1,0.3,0.2c-0.5,0.5-0.9,0.3-1.8-0.5c-0.1,0.1-0.2,0.2-0.2,0.3      c-0.1,0.1-0.1,0.2-0.2,0.4c0.1,0,0.1,0.1,0.1,0.1c2.2,0.6,3.9,2,5.3,3.7c0.2,0.3,0.4,0.6,0.6,1c0.1,0.2,0.2,0.4,0,0.6      c-0.1-0.1-0.2-0.1-0.3-0.2c-0.8-1.3-1.9-2.3-3.1-3.2c-1.3-1-2.8-1.5-4.5-1.5c-1.5,0.1-2.7,0.6-3.7,1.7c-1.3,1.4-2,3-2,4.9      c0,1.2,0.5,2.1,1.6,2.6c1.6,0.7,3.3,1.2,5,1.4c1.5,0.2,3,0.3,4.6,0.1c1.7-0.2,3.4-0.6,4.9-1.5c0.4-0.2,0.6-0.5,0.5-0.9      c-0.1-1.2,0-2.5-0.1-3.7C50.8,119.4,50.5,117.8,50,116.3z"/>
  <path fill="#333333" d="M45.9,113.8c0.5,0.2,0.9,0.3,1.3,0.1c0.3-0.1,0.4-0.2,0.4-0.5c0-0.5-0.1-1.1-0.1-1.6c0-3.5-0.1-7-0.1-10.5      c-0.1-3.6-0.2-7.3-0.3-10.9c0-1.2-0.2-2.4-0.3-3.6c-0.1-0.6-0.2-1.1-0.6-1.6c-0.2-0.3-0.4-0.5-0.8-0.5c-0.5-0.1-0.9,0.1-1.1,0.6      c-0.1,0.4-0.1,0.7-0.1,1.1c0,1.6,0.1,3.1,0.2,4.7c0.1,1.6,0.2,3.2,0.3,4.8c0.1,1.9,0.3,3.7,0.4,5.6c0.1,1.6,0.2,3.2,0.3,4.9      c0.1,1.7,0.3,3.4,0.4,5.2C45.8,112.3,45.8,113.1,45.9,113.8z"/>
  <path fill="#333333" d="M65.9,116.4c0.2,0.2,0.3,0.3,0.6,0.3c0.3,0,0.7,0,1,0.1c2.7,0.6,4.6,2.2,5.7,4.8c0.5,1.3,0.6,2.6,0.2,3.9      c-0.1,0.2-0.1,0.4-0.3,0.5c-0.4,0.3-0.8,0.5-1.3,0.7c-0.5,0.2-1,0.3-1.5,0.5c-3.2,0.7-6.5,0.9-9.8,0.3c-1.3-0.2-2.6-0.6-3.7-1.4      c-0.6-0.4-0.9-0.9-1-1.6c-0.1-1.7-0.1-3.4,0.2-5.1c0.2-1.2,0.6-2.3,0.9-3.5c0.1-0.2,0.1-0.4-0.1-0.6c-0.4-0.6-0.4-1.2,0.1-1.8      c0.3-0.3,0.6-0.6,1-0.8c0.6-0.3,1.2-0.5,1.8-0.7c0-0.1,0-0.3,0-0.5c0-3.5,0-6.9,0-10.4c0-3.3-0.2-6.7-0.3-10      c0-1.5-0.1-3-0.1-4.6c0-0.4,0.1-0.9,0.2-1.3c0.2-0.5,0.6-0.9,1.2-1c0.8-0.1,1.6,0.2,2,1c0.2,0.4,0.4,0.9,0.4,1.4      c0.1,1,0.2,2,0.1,3.1c0,3-0.2,6-0.2,9c-0.1,2.8-0.1,5.6-0.1,8.4c0,1.6,0,3.3,0,4.9c0,0.2,0,0.4,0,0.5c0.9,0.1,1.4,0.3,2.1,0.7      c0.4,0.3,0.8,0.6,1,1c0.2,0.5,0.1,0.9-0.2,1.3c-0.1,0.1-0.2,0.2-0.3,0.3C65.7,116,65.8,116.2,65.9,116.4z M60.1,120.3      c0.3-0.5,0.6-0.9,1-1.3c1.2-1.2,2.6-2,4.4-2.2c-0.2-0.3-0.4-0.5-0.5-0.7c-0.5-0.1-0.9,0.4-1.3-0.1c0.2-0.1,0.3-0.2,0.5-0.3      c0.3-0.1,0.6-0.2,0.9-0.3c0.6-0.3,0.7-0.7,0.3-1.2c-0.2-0.3-0.5-0.5-0.8-0.6c-0.5-0.2-1-0.4-1.5-0.6c0,0.3-0.1,0.5-0.1,0.7      c0,0.3-0.2,0.4-0.4,0.5c-0.8,0.3-1.5,0.1-2.2-0.3c-0.3-0.2-0.4-0.6-0.5-0.9c0-0.1,0-0.2-0.1-0.4c-0.8,0.2-1.5,0.5-2.1,1      c-0.7,0.6-0.6,1.3,0.1,1.8c0.3,0.2,0.6,0.3,0.9,0.5c0.1,0.1,0.2,0.2,0.4,0.3c-0.7,0.2-1.1-0.1-1.6-0.3c-0.1,0.3-0.2,0.6-0.3,0.9      c-0.7,2.4-0.8,4.8-0.7,7.2c0,0.2,0.1,0.4,0.1,0.6c0,0.4,0.2,0.6,0.5,0.8c1,0.6,2,1,3.1,1.2c2,0.4,4,0.5,6.1,0.4      c1.6-0.1,3.2-0.3,4.7-0.8c0.5-0.2,1.1-0.3,1.6-0.5c0.3-0.1,0.3-0.2,0.4-0.5c0.3-1.2,0.2-2.3-0.2-3.4c-1-2.4-2.7-3.9-5.3-4.4      c-2.3-0.4-4.4,0.3-6,2.1c-0.4,0.4-0.7,0.8-1,1.2c-0.1,0.1-0.2,0.2-0.3,0.3C59.9,120.7,60,120.5,60.1,120.3z M62.3,113.6      c0-0.3,0-0.6,0-0.9c0-4.8,0-9.7,0.1-14.5c0-2.7,0.1-5.4,0.2-8.1c0-1.1,0-2.3-0.1-3.4c0-0.4-0.2-0.9-0.4-1.3      c-0.1-0.3-0.4-0.5-0.7-0.6c-0.6-0.2-1.2,0-1.4,0.7C60,86,60,86.4,60,86.7c0.1,1.8,0.1,3.7,0.2,5.5c0.1,3.2,0.2,6.4,0.2,9.5      c0,3.6,0,7.3,0.1,10.9c0,0.2,0,0.3,0,0.5C61,113.7,61.6,113.8,62.3,113.6z"/>
  <path fill="#333333" d="M64.7,128.6c-1.4,0-2.8-0.1-4.2-0.4c-1.6-0.3-2.9-0.8-4-1.5c-0.8-0.5-1.3-1.3-1.4-2.3      c-0.1-2-0.1-3.7,0.2-5.3c0.2-1,0.4-1.9,0.7-2.8c0.1-0.3,0.1-0.5,0.2-0.8c-0.6-0.9-0.5-1.9,0.2-2.7c0.4-0.4,0.8-0.8,1.3-1      c0.4-0.2,0.9-0.4,1.3-0.6c0,0,0,0,0,0c0-1,0-2,0-3.1c0-2.4,0-4.8,0-7.2c0-2.3-0.1-4.7-0.2-7c0-1-0.1-2-0.1-3c0-0.5,0-0.9,0-1.4      c0-1.1-0.1-2.1-0.1-3.2c0-0.5,0.1-1,0.2-1.5c0.3-0.9,0.9-1.4,1.9-1.6c1.2-0.2,2.3,0.4,2.9,1.5c0.3,0.6,0.5,1.1,0.5,1.7      c0.1,1.1,0.2,2.2,0.1,3.2c0,1.6-0.1,3.2-0.1,4.8c0,1.4-0.1,2.8-0.1,4.2c0,2.3-0.1,4.7-0.1,7l0,1.3c0,1.1,0,2.3,0,3.4      c0,0.4,0,0.9,0,1.3c0.6,0.1,1.1,0.4,1.7,0.7c0.6,0.4,1.1,0.9,1.3,1.4c0.3,0.7,0.2,1.4-0.2,2c0.4,0,0.8,0,1.1,0.1      c3.1,0.7,5.2,2.5,6.3,5.3c0.6,1.5,0.7,3,0.2,4.4c-0.1,0.2-0.2,0.7-0.6,1c-0.5,0.3-1,0.6-1.4,0.8c-0.5,0.2-1.1,0.4-1.7,0.5      C68.6,128.4,66.6,128.6,64.7,128.6z M57.4,124.6C57.4,124.6,57.5,124.6,57.4,124.6c0.9,0.6,1.8,0.9,2.9,1.1      c1.9,0.4,3.8,0.5,5.8,0.3c1.3-0.1,2.9-0.3,4.5-0.7c0.3-0.1,0.5-0.2,0.8-0.2c0.2-0.1,0.4-0.1,0.7-0.2c0.2-1,0.1-1.9-0.2-2.8      c-0.9-2.2-2.4-3.4-4.6-3.8c-2-0.4-3.7,0.3-5.2,1.8c-0.2,0.2-0.4,0.5-0.6,0.8c-0.1,0.1-0.2,0.3-0.3,0.4c-0.1,0.1-0.1,0.1-0.2,0.2      l-0.9,1l-0.6-1c-0.2-0.3-0.5-1,0-1.8l0,0c0.3-0.5,0.7-1,1.1-1.5c0.7-0.8,1.6-1.4,2.5-1.8l-0.7-0.7l0.9-0.6c0,0,0.1-0.1,0.1-0.1      c0.1-0.1,0.3-0.2,0.5-0.3c0.2-0.1,0.3-0.1,0.5-0.2c0.1,0,0.2-0.1,0.3-0.1c-0.1-0.1-0.3-0.2-0.4-0.3c-0.1-0.1-0.3-0.1-0.5-0.2      c-0.1,0.4-0.5,0.7-0.9,0.9c-1,0.3-2,0.2-3-0.5c-0.4-0.2-0.5-0.6-0.7-0.9c-0.3,0.1-0.7,0.3-0.9,0.5c-0.1,0.1-0.2,0.2-0.2,0.2      c0,0,0.1,0.1,0.2,0.2c0.1,0.1,0.3,0.2,0.5,0.3c0.1,0.1,0.3,0.1,0.4,0.2c0.1,0.1,0.2,0.1,0.3,0.2c0,0,0.1,0.1,0.2,0.1l1.4,1      l-1.6,0.5c-0.5,0.2-1,0.2-1.3,0.1c0,0,0,0,0,0c-0.6,2.1-0.8,4.3-0.6,6.9c0,0,0,0.1,0,0.2C57.4,124.2,57.4,124.4,57.4,124.6z       M64.7,114.8L64.7,114.8L64.7,114.8z M61.3,112.8c0.1,0,0.1,0,0.2,0.1c0,0,0,0,0-0.1c0-1.6,0-3.1,0-4.7c0-3.2,0-6.5,0.1-9.8      c0-1.5,0.1-3,0.1-4.4c0-1.2,0.1-2.4,0.1-3.7c0-1,0-2.2-0.1-3.3c0-0.2-0.1-0.6-0.3-0.9c0-0.1-0.1-0.1-0.1-0.2      c0,0-0.1-0.1-0.2-0.1c-0.1,0-0.2,0-0.2,0c0,0,0,0,0,0.1c-0.1,0.3-0.1,0.6-0.1,0.9c0,0.9,0.1,1.8,0.1,2.7c0,0.9,0.1,1.9,0.1,2.8      l0,1.4c0.1,2.7,0.2,5.4,0.2,8.1c0,2.6,0,5.2,0,7.8C61.3,110.6,61.3,111.6,61.3,112.8C61.3,112.7,61.3,112.7,61.3,112.8z"/>
  <path fill="#FFFFFF" d="M60.1,121.1c-0.2-0.4-0.1-0.6,0-0.8c0.3-0.5,0.6-0.9,1-1.3c1.2-1.2,2.6-2,4.4-2.2c-0.2-0.3-0.4-0.5-0.5-0.7      c-0.5-0.1-0.9,0.4-1.3-0.1c0.2-0.1,0.3-0.2,0.5-0.3c0.3-0.1,0.6-0.2,0.9-0.3c0.6-0.3,0.7-0.7,0.3-1.2c-0.2-0.3-0.5-0.5-0.8-0.6      c-0.5-0.2-1-0.4-1.5-0.6c0,0.3-0.1,0.5-0.1,0.7c0,0.3-0.2,0.4-0.4,0.5c-0.8,0.3-1.5,0.1-2.2-0.3c-0.3-0.2-0.4-0.6-0.5-0.9      c0-0.1,0-0.2-0.1-0.4c-0.8,0.2-1.5,0.5-2.1,1c-0.7,0.6-0.6,1.3,0.1,1.8c0.3,0.2,0.6,0.3,0.9,0.5c0.1,0.1,0.2,0.2,0.4,0.3      c-0.7,0.2-1.1-0.1-1.6-0.3c-0.1,0.3-0.2,0.6-0.3,0.9c-0.7,2.4-0.8,4.8-0.7,7.2c0,0.2,0.1,0.4,0.1,0.6c0,0.4,0.2,0.6,0.5,0.8      c1,0.6,2,1,3.1,1.2c2,0.4,4,0.5,6.1,0.4c1.6-0.1,3.2-0.3,4.7-0.8c0.5-0.2,1.1-0.3,1.6-0.5c0.3-0.1,0.3-0.2,0.4-0.5      c0.3-1.2,0.2-2.3-0.2-3.4c-1-2.4-2.7-3.9-5.3-4.4c-2.3-0.4-4.4,0.3-6,2.1c-0.4,0.4-0.7,0.8-1,1.2      C60.3,120.9,60.2,120.9,60.1,121.1z"/>
  <path fill="#333333" d="M60.4,113.2c0.5,0.5,1.2,0.6,1.9,0.4c0-0.3,0-0.6,0-0.9c0-4.8,0-9.7,0.1-14.5c0-2.7,0.1-5.4,0.2-8.1      c0-1.1,0-2.3-0.1-3.4c0-0.4-0.2-0.9-0.4-1.3c-0.1-0.3-0.4-0.5-0.7-0.6c-0.6-0.2-1.2,0-1.4,0.7C60,86,60,86.4,60,86.7      c0.1,1.8,0.1,3.7,0.2,5.5c0.1,3.2,0.2,6.4,0.2,9.5c0,3.6,0,7.3,0.1,10.9C60.5,112.9,60.4,113,60.4,113.2z"/>
  <path fill="#FACC2C" d="M33.2,94.3L78,95c0.2,0,0.3-0.1,0.4-0.3l5.1-58.1L70.8,24.8l-41.5-0.7c-0.2,0-0.4,0.2-0.4,0.4L32.8,94     C32.8,94.2,33,94.3,33.2,94.3z"/>
  <path fill="#333333" d="M78,95.7C78,95.7,78,95.7,78,95.7L33.2,95c-0.5,0-1-0.4-1-0.9l-3.9-69.5c0-0.3,0.1-0.5,0.3-0.7     c0.2-0.2,0.5-0.3,0.7-0.3L71,24.2l13.1,12.2L79,94.7C79,95.3,78.5,95.7,78,95.7z M33.5,93.7l44.3,0.6l5.1-57.5L70.5,25.5     l-40.9-0.7L33.5,93.7z M33.2,93.7L33.2,93.7C33.2,93.7,33.2,93.7,33.2,93.7z"/>
  <circle fill="#FFFFFF" cx="46.9" cy="51.3" r="7.5"/>
  <path fill="#333333" d="M46.9,59c-1.9,0-3.8-0.7-5.2-2c-1.5-1.4-2.4-3.3-2.5-5.4c-0.2-4.3,3.1-7.9,7.4-8c2.1-0.1,4,0.6,5.6,2       c1.5,1.4,2.4,3.3,2.5,5.4l0,0c0.1,2.1-0.6,4-2,5.6c-1.4,1.5-3.3,2.4-5.4,2.5C47.2,59,47,59,46.9,59z M46.9,44       c-0.1,0-0.2,0-0.3,0c-1.9,0.1-3.7,0.9-5,2.3c-1.3,1.4-2,3.3-1.9,5.2c0.1,1.9,0.9,3.7,2.3,5c1.4,1.3,3.3,2,5.2,1.9       c1.9-0.1,3.7-0.9,5-2.3c1.3-1.4,2-3.3,1.9-5.2l0,0c-0.1-1.9-0.9-3.7-2.3-5C50.5,44.7,48.8,44,46.9,44z"/>
  <circle fill="#FFFFFF" cx="65.8" cy="51.2" r="7.5"/>
  <path fill="#333333" d="M65.8,58.9c-1.9,0-3.8-0.7-5.2-2c-1.5-1.4-2.4-3.3-2.5-5.4c-0.1-2.1,0.6-4,2-5.6c1.4-1.5,3.3-2.4,5.4-2.5       c2.1-0.1,4,0.6,5.6,2c1.5,1.4,2.4,3.3,2.5,5.4c0.1,2.1-0.6,4-2,5.6c-1.4,1.5-3.3,2.4-5.4,2.5C66.1,58.9,65.9,58.9,65.8,58.9z        M65.8,43.9c-0.1,0-0.2,0-0.3,0c-1.9,0.1-3.7,0.9-5,2.3c-1.3,1.4-2,3.3-1.9,5.2c0.1,1.9,0.9,3.7,2.3,5s3.3,2,5.2,1.9       c1.9-0.1,3.7-0.9,5-2.3s2-3.3,1.9-5.2c-0.1-1.9-0.9-3.7-2.3-5C69.4,44.6,67.7,43.9,65.8,43.9z"/>
  <path fill="#333333" d="M67.2,47.6c0,0.1,0,0.1,0,0.2c0,1.2-0.8,2.1-2,2.2c-1.1,0-2.1-0.8-2.2-1.9c-1.4,0.9-2.3,2.5-2.2,4.2      c0.1,2.6,2.3,4.7,5,4.6c2.6-0.1,4.7-2.3,4.6-5C70.3,49.9,69,48.2,67.2,47.6z M66,56.1c-0.6,0-1-0.4-1-1c0-0.6,0.4-1,1-1      c0.6,0,1,0.4,1,1C67,55.6,66.6,56.1,66,56.1z"/>
  <path fill="#333333" d="M48.5,47.8c0,0.1,0,0.2,0,0.3c0,1.2-0.8,2.1-2,2.2c-1.1,0-2.1-0.8-2.2-2c-1.4,0.9-2.3,2.5-2.2,4.3      c0.1,2.6,2.3,4.7,5,4.6c2.6-0.1,4.7-2.3,4.6-5C51.6,50.1,50.3,48.5,48.5,47.8z M47.8,56.2c-0.6,0-1-0.4-1-1c0-0.6,0.4-1,1-1      c0.6,0,1,0.4,1,1C48.8,55.7,48.4,56.2,47.8,56.2z"/>
  <polygon fill="#333333" points="75.5,69.3 75.3,71.1 36.4,70.7 36.3,68.8     "/>
  <polygon fill="#333333" points="75.2,72.9 75,74.8 36.6,74.3 36.6,74.3 36.5,72.5     "/>
  <polygon fill="#333333" points="74.9,76.3 74.7,78.2 36.8,77.8 36.7,75.9     "/>
  <rect x="38.2" y="87.3" transform="matrix(-0.9999 -1.464751e-02 1.464751e-02 -0.9999 87.134 176.6035)" fill="#333333" width="12.1" height="1.4"/>
  <path fill="#333333" d="M50,84.2c-1.1-0.7-2.5-1-3.8-0.6c0-0.1-0.1-0.2-0.1-0.3c-0.1-0.3-0.5-0.6-0.8-0.4c-0.6,0.3-1.2,0.5-1.7,0.8      c0-0.4,0-0.8,0-1.2c0-0.5-0.6-0.8-1-0.5c-1.3,1.1-2.7,2.1-4,3.2c-0.3,0.2-0.4,0.6-0.2,0.9c0.2,0.3,0.6,0.4,0.9,0.2      c1-0.8,2-1.6,3-2.4c0,0.3,0,0.6,0,0.9c0,0.4,0.5,0.7,0.8,0.6c0.7-0.3,1.4-0.6,2-0.9c0,0.1,0.1,0.2,0.1,0.2      c0.1,0.3,0.5,0.5,0.8,0.4c1.1-0.5,2.4-0.3,3.4,0.4c0.3,0.2,0.7,0,0.9-0.3C50.4,84.8,50.3,84.4,50,84.2z"/>
  <path fill="#FACC2C" d="M71.3,37.8c0,0.2,0.2,0.3,0.4,0.3l11.8-1.5L70.8,24.8L71.3,37.8z"/>
  <path fill="#333333" d="M71.6,38.7c-0.2,0-0.4-0.1-0.6-0.2c-0.2-0.2-0.3-0.4-0.4-0.7c0,0,0,0,0,0l-0.5-13c0-0.3,0.1-0.5,0.4-0.6     c0.2-0.1,0.5-0.1,0.7,0.1l12.7,11.8c0.2,0.2,0.3,0.4,0.2,0.7c-0.1,0.2-0.3,0.4-0.5,0.4l-11.8,1.5C71.7,38.7,71.7,38.7,71.6,38.7z      M71.5,26.4l0.4,11L82,36.1L71.5,26.4z"/>
  <path fill="#333333" d="M43.7,39.4c-1.5,0.3-3.1,1-4.2,2.2c-0.8,0.9-0.2,2.1,1.1,1.1c1.3-0.9,4.1-1.7,6.6-1.5     C49.8,41.6,48,38.4,43.7,39.4z"/>
  <path fill="#333333" d="M69.2,39.8c1.5,0.4,3.1,1.1,4.1,2.4c0.8,1,0.2,2.1-1.2,1.1c-1.3-1-4.1-1.9-6.7-1.7     C63,41.8,64.9,38.6,69.2,39.8z"/>
  <path fill="#333333" d="M53.6,63.8c1.4-0.4,2.9-0.5,4.4-0.3c0.6,0.1,1.1-0.2,1.2-0.6l0,0c0.1-0.4-0.3-0.9-0.9-1.1     c-1.7-0.4-3.4-0.5-5.2-0.3c-0.7,0.1-1,0.7-0.8,1.4c0,0,0,0,0,0C52.5,63.6,53.1,64,53.6,63.8z"/>
  <path fill="#005787" d="M75.3,99.6l-2.7-0.7c-0.5-0.1-1,0-1.3,0.4l-1.9,2c-0.3,0.3-0.9,0.3-1-0.1L65.7,92l7.6-2.3l2.8,9.3     C76.2,99.4,75.7,99.7,75.3,99.6z"/>
  <path fill="#1BAECA" d="M68.3,94.6c0,0-0.1,0-0.1,0c-0.7,0-1.1-0.5-1.5-0.9l0,0c-0.2-0.2-0.4-0.3-0.5-0.4l0,0l0,0c0,0-0.1,0-0.3,0       c-0.1,0-0.3,0-0.4,0c-0.1,0-0.3,0-0.4,0c-0.4,0-0.9,0-1.3-0.3c-0.5-0.4-0.6-1-0.7-1.6l0-0.1c-0.1-0.3-0.1-0.5-0.2-0.6l0,0l0,0       c-0.1-0.1-0.2-0.2-0.5-0.3l0,0c-0.4-0.2-1.1-0.6-1.3-1.2c-0.2-0.6,0.1-1.2,0.3-1.7l0-0.1c0.1-0.3,0.2-0.4,0.2-0.5l0,0l0,0       c0-0.1-0.1-0.3-0.2-0.6l0,0c-0.2-0.5-0.5-1.1-0.3-1.7c0.2-0.6,0.8-0.9,1.3-1.2l0,0c0.3-0.2,0.5-0.2,0.5-0.3l0,0l0,0       c0.1-0.1,0.1-0.3,0.2-0.6c0.1-0.6,0.2-1.2,0.8-1.6c0.1-0.1,0.3-0.1,0.4-0.2c0.1,0,0.3-0.1,0.4-0.1c0.3,0,0.6,0,0.9,0.1l0,0       c0.2,0,0.4,0.1,0.6,0.1c0,0,0.1,0,0.1,0c0.1,0,0.3-0.2,0.5-0.4l0,0c0.3-0.3,0.6-0.6,1.1-0.7c0.1,0,0.2-0.1,0.3-0.1       c0,0,0.1,0,0.1,0c0.7,0,1.1,0.5,1.5,0.9c0.3,0.4,0.4,0.4,0.5,0.4l0,0l0,0c0.1,0,0.1,0,0.3,0c0.1,0,0.2,0,0.3,0l0,0       c0.1,0,0.3,0,0.4,0c0.4,0,0.9,0,1.3,0.3c0.5,0.4,0.6,1,0.7,1.5c0.1,0.4,0.1,0.6,0.2,0.7l0,0l0,0c0.1,0.1,0.2,0.2,0.5,0.3       c0.5,0.3,1.1,0.6,1.3,1.2c0.2,0.7-0.1,1.3-0.4,1.7l0,0c-0.1,0.3-0.2,0.4-0.2,0.5l0,0c0,0.1,0.1,0.3,0.2,0.6l0,0       c0.2,0.5,0.5,1.1,0.3,1.7c-0.2,0.6-0.8,0.9-1.3,1.2c-0.5,0.2-0.5,0.3-0.6,0.3l0,0l0,0c-0.1,0.1-0.1,0.3-0.2,0.6       c-0.1,0.6-0.2,1.2-0.8,1.6c-0.1,0.1-0.3,0.1-0.4,0.2c-0.1,0-0.3,0.1-0.4,0.1c-0.3,0-0.6,0-0.9-0.1c-0.2,0-0.5-0.1-0.6-0.1       c0,0-0.1,0-0.1,0c-0.1,0-0.3,0.2-0.6,0.4c-0.3,0.3-0.6,0.6-1.1,0.7C68.5,94.5,68.4,94.5,68.3,94.6z"/>
  <path fill="#0091B0" d="M68.3,79.7c0,0,0.1,0,0.1,0c0.6,0,1,0.4,1.4,0.8c0.4,0.4,0.5,0.4,0.5,0.5l0,0l0,0c0.1,0,0.2,0,0.3,0       c0.1,0,0.2,0,0.4,0l0,0c0.1,0,0.3,0,0.4,0c0.5,0,0.9,0,1.1,0.3c0.5,0.3,0.6,0.9,0.6,1.4l0,0c0.1,0.4,0.1,0.6,0.2,0.7l0,0l0,0       c0.1,0.1,0.2,0.2,0.6,0.4c0.5,0.3,1,0.6,1.2,1.1c0.2,0.6-0.1,1.1-0.3,1.6l0,0c-0.2,0.3-0.2,0.5-0.2,0.6l0,0l0,0       c0,0.1,0.1,0.3,0.2,0.7l0,0c0.2,0.5,0.5,1,0.3,1.5c-0.2,0.5-0.7,0.8-1.2,1l0,0c-0.5,0.2-0.6,0.3-0.6,0.4l0,0l0,0       c-0.1,0.1-0.1,0.3-0.2,0.7l0,0c-0.1,0.5-0.2,1.1-0.7,1.4c-0.1,0.1-0.2,0.1-0.3,0.2c-0.1,0-0.2,0.1-0.4,0.1       c-0.3,0-0.6,0-0.9-0.1c-0.3,0-0.5-0.1-0.6-0.1c0,0-0.1,0-0.1,0l0,0l0,0c-0.1,0-0.3,0.2-0.6,0.5c-0.3,0.3-0.6,0.6-1,0.7       c-0.1,0-0.2,0-0.3,0.1c0,0-0.1,0-0.1,0c-0.6,0-1-0.4-1.4-0.8l0,0c-0.3-0.3-0.4-0.4-0.5-0.4l0,0l0,0c-0.1,0-0.2,0-0.3,0       c-0.1,0-0.3,0-0.4,0l0,0c-0.1,0-0.3,0-0.4,0c-0.5,0-0.9,0-1.2-0.3c-0.5-0.4-0.6-0.9-0.6-1.4l0-0.1c-0.1-0.4-0.1-0.5-0.2-0.7       l0,0l0,0c-0.1-0.1-0.2-0.2-0.5-0.4l0,0c-0.4-0.2-1-0.5-1.2-1.1c-0.2-0.6,0.1-1.1,0.3-1.6l0,0l0,0l0,0c0.2-0.3,0.2-0.5,0.2-0.6       l0,0l0,0c0-0.1-0.1-0.3-0.2-0.6l0-0.1c-0.2-0.5-0.5-1-0.3-1.6c0.2-0.6,0.7-0.8,1.2-1.1l0,0c0.3-0.2,0.5-0.3,0.6-0.4l0,0l0,0       c0.1-0.1,0.1-0.3,0.2-0.7c0.1-0.5,0.2-1.1,0.7-1.4c0.1-0.1,0.2-0.1,0.3-0.2c0.1,0,0.2-0.1,0.4-0.1c0.3,0,0.6,0,0.8,0.1l0,0l0,0       c0.2,0,0.5,0.1,0.6,0.1c0.1,0,0.1,0,0.1,0c0.1,0,0.3-0.2,0.6-0.4l0,0c0.3-0.3,0.6-0.6,1-0.7C68.1,79.8,68.2,79.7,68.3,79.7        M68.3,79.3c-0.1,0-0.2,0-0.4,0.1c-0.5,0.1-0.8,0.5-1.2,0.8c-0.1,0.1-0.4,0.3-0.5,0.4c0,0,0,0,0,0c-0.1,0-0.4,0-0.5-0.1       c-0.3,0-0.6-0.1-0.9-0.1c-0.1,0-0.3,0-0.4,0.1c-0.2,0.1-0.3,0.1-0.5,0.2c-0.6,0.4-0.8,1.1-0.9,1.7c0,0.2-0.1,0.5-0.1,0.5       c-0.1,0.1-0.3,0.2-0.5,0.3c-0.5,0.3-1.1,0.6-1.4,1.3c-0.2,0.7,0.1,1.3,0.3,1.9c0.1,0.2,0.2,0.4,0.2,0.5c0,0.1-0.1,0.4-0.2,0.5       c-0.3,0.5-0.6,1.1-0.4,1.9c0.2,0.7,0.9,1.1,1.3,1.4c0.2,0.1,0.4,0.2,0.5,0.3c0.1,0.1,0.1,0.4,0.1,0.6c0.1,0.6,0.2,1.3,0.8,1.7       c0.4,0.3,1,0.4,1.4,0.3c0.2,0,0.3,0,0.4,0c0.1,0,0.2,0,0.3,0c0.1,0,0.2,0,0.2,0c0.1,0,0.3,0.3,0.4,0.4c0.4,0.4,0.9,0.9,1.7,0.9       c0,0,0.1,0,0.1,0c0.1,0,0.3,0,0.4-0.1c0.5-0.1,0.8-0.5,1.2-0.8c0.1-0.1,0.4-0.3,0.5-0.4c0,0,0,0,0,0c0.1,0,0.4,0,0.6,0.1       c0.3,0,0.6,0.1,0.9,0.1c0.1,0,0.3,0,0.4-0.1c0.2-0.1,0.3-0.1,0.5-0.2c0.6-0.4,0.8-1.1,0.9-1.7c0-0.2,0.1-0.5,0.1-0.5       c0.1-0.1,0.3-0.2,0.5-0.3c0.5-0.3,1.1-0.6,1.4-1.3c0.2-0.7-0.1-1.3-0.3-1.9c-0.1-0.2-0.2-0.4-0.2-0.5c0-0.1,0.1-0.3,0.2-0.5       c0.2-0.5,0.6-1.1,0.4-1.9c-0.2-0.7-0.8-1.1-1.3-1.4c-0.1-0.1-0.4-0.2-0.5-0.3c0-0.1-0.1-0.4-0.1-0.6c-0.1-0.6-0.2-1.3-0.8-1.7       c-0.4-0.3-1-0.4-1.4-0.3c-0.2,0-0.3,0-0.4,0c-0.1,0-0.2,0-0.4,0c-0.1,0-0.2,0-0.2,0c-0.1,0-0.3-0.2-0.4-0.4       c-0.4-0.4-0.9-0.9-1.7-0.9C68.4,79.3,68.3,79.3,68.3,79.3L68.3,79.3z"/>
  <path fill="#6ACBE0" d="M67.6,84.3c-0.6,0.2-0.7,0.7-0.6,1.1l0.5,1.8c0.1,0.5,0.5,0.7,1.1,0.6c0.4-0.1,0.6-0.4,0.5-1l-0.5-1.8      C68.4,84.4,68.1,84.1,67.6,84.3z"/>
  <path fill="#6ACBE0" d="M66.9,81.8c-2.9,0.8-4.6,3.7-3.8,6.6c0.8,2.9,3.7,4.6,6.6,3.8c2.9-0.8,4.6-3.7,3.8-6.6      C72.7,82.8,69.8,81.1,66.9,81.8z M69.9,86.4c0.3,1-0.2,1.9-1,2.1c-0.4,0.1-0.9,0.1-1.1-0.2l0.6,2.2c0,0.2,0,0.3-0.2,0.4L67.8,91      c-0.2,0-0.3,0-0.3-0.2l-1.7-6.6c0-0.2,0-0.3,0.2-0.4l0.4-0.1c0.2,0,0.3,0,0.3,0.2l0,0.1c0.1-0.2,0.4-0.6,0.8-0.7      c0.9-0.2,1.7,0.2,2,1.4L69.9,86.4z"/>
  <path fill="#979797" d="M55.2,12.9c-0.1,0-0.2,0-0.3-0.1c-0.1-0.1-0.1-0.2-0.1-0.3c0-0.1,0-0.2,0-0.3c0-0.1,0-0.2,0-0.3     c0.1-0.5,0.2-0.9,0.4-1.3c0.2-0.4,0.5-0.7,0.8-1.1c0.3-0.3,0.6-0.6,0.9-0.9c0.3-0.3,0.5-0.6,0.8-0.8C57.9,7.6,58,7.3,58,7     c0-0.3,0-0.6-0.2-0.8c-0.2-0.2-0.4-0.4-0.7-0.5c-0.3-0.1-0.6-0.2-0.9-0.2c-0.6,0-1,0.1-1.4,0.4c-0.3,0.3-0.6,0.7-0.7,1.3     c-0.1,0.1-0.1,0.3-0.2,0.3c-0.1,0.1-0.2,0.1-0.4,0.1l-2,0c-0.1,0-0.2,0-0.3-0.1c-0.1-0.1-0.1-0.2-0.1-0.3c0-0.5,0.1-1,0.4-1.5     c0.2-0.5,0.6-0.9,1-1.3c0.5-0.4,1-0.7,1.6-0.9C54.9,3.1,55.6,3,56.5,3c0.9,0,1.7,0.1,2.3,0.3c0.6,0.2,1.1,0.5,1.5,0.9     C60.6,4.6,60.9,5,61,5.4c0.2,0.4,0.2,0.8,0.2,1.2c0,0.5-0.1,0.9-0.3,1.3c-0.2,0.4-0.4,0.7-0.7,1.1c-0.3,0.3-0.5,0.6-0.8,0.9     c-0.3,0.3-0.5,0.6-0.8,0.9c-0.2,0.3-0.4,0.6-0.5,1c0,0.1,0,0.2-0.1,0.3c0,0.1,0,0.2,0,0.3c-0.1,0.2-0.1,0.3-0.2,0.4     c-0.1,0.1-0.2,0.1-0.3,0.1H55.2z M55.2,17.5c-0.1,0-0.3,0-0.3-0.1c-0.1-0.1-0.1-0.2-0.1-0.3v-1.9c0-0.1,0-0.2,0.1-0.3     c0.1-0.1,0.2-0.1,0.3-0.1h2.2c0.1,0,0.2,0,0.3,0.1c0.1,0.1,0.1,0.2,0.1,0.3V17c0,0.1,0,0.3-0.1,0.3c-0.1,0.1-0.2,0.1-0.3,0.1     L55.2,17.5z"/>
</svg>
