<svg xmlns="http://www.w3.org/2000/svg" width="1141" height="688" viewBox="0 0 1141 688" fill="none">
  <path d="M955.041 685.25C996.761 616.92 1020.81 536.63 1020.81 450.71C1020.81 201.79 819.021 0 570.101 0C321.181 0 119.391 201.79 119.391 450.71C119.391 536.63 143.441 616.92 185.161 685.25H955.041Z" fill="url(#paint0_linear_1748_57352)"/>
  <path d="M765.962 32.6099C749.002 32.6099 734.642 43.7199 729.762 59.0599C725.462 50.1499 716.362 43.9799 705.802 43.9799C691.102 43.9799 679.182 55.8999 679.182 70.5999H803.962C803.962 49.6199 786.952 32.6099 765.972 32.6099H765.962Z" fill="white"/>
  <path d="M890.171 216.38L890.981 216.4L890.171 216.02V215.86H889.821L809.791 178.71H767.421V179.13L728.681 196.91L689.461 178.71H606.971V190.49L549.471 216.94V672.2H549.361V687.82H751.271V686.44L751.291 687.82H889.921V686.44H890.191V216.38H890.171Z" fill="#89E8F4"/>
  <path d="M509.01 382.23L512.63 378.1H506.19L512.56 378.08L439.14 344.51L439.12 215.17H442.52V206.29H312.23V206.23L312.13 206.29H311.61V206.58L235.39 249.16L237.71 252.49L241.01 253.43V257.52L241.31 257.36V288.46H232.91V299.87H241.31V333.53H232.91V344.94H241.31V378.08H232.91V389.49H241.31V422.63H232.91V434.04H241.32V467.96H232.4V479.37H241.32V512.51H232.4V523.92H241.33V557.06H232.4V568.47H241.33V601.61H232.4V613.02H241.33V646.16H232.4V657.57H241.33V672.85L241.29 681.14V685.34H379.67H506.42V672.85H506.2V386.39L506.22 382.39C506.2 382.39 506.2 382.24 506.2 382.24H509.02L509.01 382.23Z" fill="#89E8F4"/>
  <path d="M243.241 316.07C243.631 280.77 198.141 266.47 178.141 295.29C175.411 293.51 172.381 292.18 169.141 291.35C164.131 269.61 144.671 253.39 121.411 253.39C98.1509 253.39 76.941 271.1 73.091 294.32C45.841 278.89 15.6809 310.18 32.1309 336.85H271.301C275.241 320.46 257.531 307.65 243.251 316.07H243.241Z" fill="white"/>
  <path d="M453.122 158.95C451.322 147.79 441.652 139.27 429.982 139.27C428.022 139.27 426.132 139.51 424.312 139.96C419.522 128.6 408.292 120.62 395.182 120.62C377.732 120.62 363.592 134.76 363.592 152.21C363.592 154.52 363.842 156.77 364.322 158.94H453.122V158.95Z" fill="white"/>
  <path d="M402.18 434.52L413.51 423.19V412.92L391.91 434.52H402.18Z" fill="#65D0E5"/>
  <path d="M380.292 434.52L413.511 401.3V391.03L370.021 434.52H380.292Z" fill="#65D0E5"/>
  <path d="M413.511 285.46H409.621L346.801 348.28V358.55L413.511 291.85V285.46Z" fill="#65D0E5"/>
  <path d="M387.731 285.46L346.801 326.39V336.66L398.011 285.46H387.731Z" fill="#65D0E5"/>
  <path d="M413.511 303.46L346.801 370.17V380.45L413.511 313.74V303.46Z" fill="#65D0E5"/>
  <path d="M413.511 325.35L346.801 392.06V402.34L413.511 335.63V325.35Z" fill="#65D0E5"/>
  <path d="M365.841 285.46L346.801 304.5V314.77L376.111 285.46H365.841Z" fill="#65D0E5"/>
  <path d="M358.401 434.52L413.511 379.41V369.14L348.131 434.52H358.401Z" fill="#65D0E5"/>
  <path d="M413.511 347.25L346.801 413.95V424.23L413.511 357.52V347.25Z" fill="#65D0E5"/>
  <path d="M346.801 285.46V292.88L354.221 285.46H346.801Z" fill="#65D0E5"/>
  <path d="M1077.48 589.68C1076.26 588.04 1074.78 586.72 1073.16 585.67C1074.08 581.14 1073.16 576.26 1070.17 572.27C1069.2 570.97 1068.06 569.87 1066.83 568.94C1068.96 565.5 1070.21 561.45 1070.21 557.11C1070.21 548.13 1064.95 540.4 1057.36 536.77C1058.04 535.12 1058.43 533.31 1058.43 531.42C1058.43 525.09 1054.22 519.74 1048.44 518.02C1048.44 517.82 1048.47 517.63 1048.47 517.43C1048.47 509.52 1044.27 502.6 1037.99 498.74C1038.28 497.7 1038.45 496.61 1038.45 495.48C1038.45 488.89 1033.11 483.55 1026.52 483.55C1019.93 483.55 1014.59 488.89 1014.59 495.48C1014.59 496.61 1014.76 497.7 1015.05 498.74C1008.77 502.6 1004.57 509.52 1004.57 517.43C1004.57 519.13 1004.78 520.78 1005.15 522.37C1000.2 524.52 996.73 529.45 996.73 535.2C996.73 536.61 996.941 537.97 997.331 539.26C993.451 542.52 990.98 547.4 990.98 552.87C990.98 555.32 991.481 557.66 992.371 559.78C986.351 563.24 982.291 569.72 982.291 577.16C982.291 581.32 983.56 585.19 985.73 588.4C981.65 591.84 979.061 596.97 979.061 602.72C979.061 609.04 982.2 614.61 986.98 618.01C986.79 619.07 986.67 620.16 986.67 621.28C986.67 631.53 994.98 639.84 1005.23 639.84C1007.51 639.84 1009.69 639.41 1011.71 638.65C1015.14 642.5 1020.13 644.94 1025.69 644.94C1032.18 644.94 1037.9 641.64 1041.27 636.62C1045.69 636.28 1049.67 634.39 1052.69 631.5C1056.87 632.05 1061.26 631.05 1064.91 628.33C1069.44 624.94 1071.75 619.7 1071.62 614.45C1072.48 614.02 1073.33 613.51 1074.13 612.91C1081.48 607.41 1082.98 597 1077.48 589.65V589.68Z" fill="#65D0E5"/>
  <path d="M1028.46 642.1H1024.83V683.68H1028.46V642.1Z" fill="#65D0E5"/>
  <path d="M929.98 346.86H790.641V682.7H929.98V346.86Z" fill="#89E8F4"/>
  <path d="M413.75 234.03V290.76H406.49V236.79L413.75 234.03Z" fill="#65D0E5"/>
  <path d="M351.83 257.52V290.76H344.57V260.27L351.83 257.52Z" fill="#65D0E5"/>
  <path d="M367.311 251.64V290.76H360.041V254.41L367.311 251.64Z" fill="#65D0E5"/>
  <path d="M382.791 245.78V290.76H375.531V248.54L382.791 245.78Z" fill="#65D0E5"/>
  <path d="M429.221 228.16V290.76H421.961V230.92L429.221 228.16Z" fill="#65D0E5"/>
  <path d="M438.371 224.69L437.451 225.04V290.76H438.371V224.69Z" fill="#65D0E5"/>
  <path d="M398.27 239.91V290.76H391V242.66L398.27 239.91Z" fill="#65D0E5"/>
  <path d="M826.43 325.35H787.08V347.44H826.43V325.35Z" fill="#B2F2FF"/>
  <path d="M826.43 365.25H787.08V387.34H826.43V365.25Z" fill="#B2F2FF"/>
  <path d="M891.401 365.25H852.051V387.34H891.401V365.25Z" fill="#B2F2FF"/>
  <path d="M116.47 571.12C115.13 569.33 113.52 567.88 111.74 566.74C112.74 561.79 111.74 556.46 108.47 552.1C107.41 550.68 106.17 549.48 104.82 548.46C107.15 544.7 108.51 540.28 108.51 535.53C108.51 525.72 102.77 517.27 94.4698 513.3C95.2198 511.5 95.6399 509.52 95.6399 507.45C95.6399 500.53 91.0298 494.69 84.7198 492.81C84.7198 492.6 84.7499 492.39 84.7499 492.17C84.7499 483.52 80.1599 475.97 73.2999 471.74C73.6199 470.61 73.8099 469.41 73.8099 468.18C73.8099 460.98 67.9699 455.14 60.7699 455.14C53.5699 455.14 47.7299 460.98 47.7299 468.18C47.7299 469.42 47.9099 470.61 48.2399 471.74C41.3799 475.96 36.7899 483.52 36.7899 492.17C36.7899 494.03 37.0199 495.83 37.4199 497.57C32.0099 499.92 28.2198 505.31 28.2198 511.59C28.2198 513.13 28.4499 514.62 28.8799 516.03C24.6399 519.59 21.9399 524.93 21.9399 530.9C21.9399 533.58 22.48 536.13 23.46 538.45C16.89 542.23 12.45 549.31 12.45 557.44C12.45 561.99 13.84 566.22 16.21 569.72C11.76 573.48 8.91992 579.09 8.91992 585.37C8.91992 592.27 12.35 598.37 17.58 602.08C17.37 603.24 17.2499 604.43 17.2499 605.66C17.2499 616.86 26.3299 625.95 37.5399 625.95C40.0299 625.95 42.4099 625.48 44.6199 624.65C48.3699 628.86 53.8199 631.53 59.8999 631.53C66.9999 631.53 73.2499 627.92 76.9199 622.44C81.7499 622.07 86.0999 620 89.3999 616.84C93.9699 617.44 98.7699 616.35 102.75 613.37C107.7 609.67 110.23 603.94 110.08 598.2C111.02 597.72 111.95 597.18 112.82 596.52C120.85 590.51 122.49 579.13 116.48 571.1L116.47 571.12Z" fill="#65D0E5"/>
  <path d="M90.6895 532.9C90.3795 534.94 89.7995 536.56 89.1495 538.11C88.4895 539.64 87.7295 541.05 86.8595 542.4C85.9995 543.75 85.0195 545.03 83.8995 546.26C82.7495 547.49 81.4995 548.69 79.7395 549.77C79.2995 547.75 79.4895 545.9 79.9095 544.15C80.3495 542.41 81.0795 540.77 82.0395 539.28C82.9995 537.79 84.1895 536.45 85.6095 535.33C87.0395 534.22 88.6595 533.29 90.6895 532.89V532.9Z" fill="white"/>
  <path d="M68.5592 527.56C70.2192 527.86 71.4192 528.61 72.4292 529.5C73.4192 530.4 74.1693 531.47 74.6993 532.64C75.2293 533.81 75.5192 535.08 75.5292 536.41C75.5292 537.74 75.2892 539.13 74.4192 540.59C72.9692 539.72 72.0492 538.81 71.2592 537.89C70.4892 536.96 69.8993 536 69.4593 534.98C69.0093 533.96 68.6892 532.89 68.5092 531.7C68.3492 530.5 68.2792 529.22 68.5592 527.56Z" fill="white"/>
  <path d="M613.941 165.98H572.221V142.59H613.941L602.881 154.28L613.941 165.98Z" fill="#0093B2"/>
  <path d="M1006.12 432.84H1005.57H741.781V416.77H774.291V415.8H774.341V399.44H774.291H763.271V302.21V285.47L795.401 298.95L805.021 285.78L570.551 183.62L336.601 283.64L346.591 297.17L377.271 284.49V302.21V399.44H366.201V415.8V416.77H398.301V432.84H133.961L121.461 457.22V464.14H133.961V664.05V684.88H398.301H741.781H1005.57H1006.12V664.05H1005.57V464.14H1018.52V457.22H1018.62L1006.12 432.84Z" fill="white"/>
  <path d="M378.811 284.29L572.091 204.58L764.801 285.09V293.72L572.341 214.35L378.811 293.72V284.29Z" fill="#067A91"/>
  <path d="M721.53 330.69H422.08V364.21H721.53V330.69Z" fill="#65D0E5"/>
  <path d="M721.1 332.65H421.65V340.26H721.1V332.65Z" fill="#067A91"/>
  <path d="M428.7 332.65H421.65V366.17H428.7V332.65Z" fill="#067A91"/>
  <path d="M721.101 332.65H714.051V366.17H721.101V332.65Z" fill="#067A91"/>
  <path d="M212.271 498.83H168.961V546.32H212.271V498.83Z" fill="#65D0E5"/>
  <path d="M287.82 498.83H244.51V546.32H287.82V498.83Z" fill="#65D0E5"/>
  <path d="M363.361 498.83H320.051V546.32H363.361V498.83Z" fill="#65D0E5"/>
  <path d="M212.271 577.28H168.961V624.77H212.271V577.28Z" fill="#65D0E5"/>
  <path d="M287.82 577.28H244.51V624.77H287.82V577.28Z" fill="#65D0E5"/>
  <path d="M363.361 577.28H320.051V624.77H363.361V577.28Z" fill="#65D0E5"/>
  <path d="M473.589 542.86H430.279V590.35H473.589V542.86Z" fill="#65D0E5"/>
  <path d="M708.8 542.86H665.49V590.35H708.8V542.86Z" fill="#65D0E5"/>
  <path d="M705.159 512.67H669.119V467.92C669.119 457.97 677.189 449.9 687.139 449.9C697.089 449.9 705.159 457.97 705.159 467.92V512.67Z" fill="#067A91"/>
  <path d="M469.95 512.67H433.91V467.92C433.91 457.97 441.98 449.9 451.93 449.9C461.88 449.9 469.95 457.97 469.95 467.92V512.67Z" fill="#067A91"/>
  <path d="M465.989 505.77H437.869V470.86C437.869 463.1 444.159 456.8 451.929 456.8C459.699 456.8 465.989 463.09 465.989 470.86V505.77Z" fill="#65D0E5"/>
  <path d="M700.729 505.53H672.609V470.62C672.609 462.86 678.899 456.56 686.669 456.56C694.439 456.56 700.729 462.85 700.729 470.62V505.53Z" fill="#65D0E5"/>
  <path d="M820.121 498.83H776.811V546.32H820.121V498.83Z" fill="#65D0E5"/>
  <path d="M895.659 498.83H852.35V546.32H895.659V498.83Z" fill="#65D0E5"/>
  <path d="M971.2 498.83H927.891V546.32H971.2V498.83Z" fill="#65D0E5"/>
  <path d="M820.121 577.28H776.811V624.77H820.121V577.28Z" fill="#65D0E5"/>
  <path d="M895.659 577.28H852.35V624.77H895.659V577.28Z" fill="#65D0E5"/>
  <path d="M971.2 577.28H927.891V624.77H971.2V577.28Z" fill="#65D0E5"/>
  <path d="M398.351 464.51H121.511L121.461 457.22L134.021 432.84H398.351V464.51Z" fill="#65D0E5"/>
  <path d="M741.709 464.51H1018.55L1018.6 457.22L1006.04 432.84H741.709V464.51Z" fill="#65D0E5"/>
  <path d="M398.349 432.84H385.539V685.25H398.349V432.84Z" fill="#067A91"/>
  <path d="M754.65 432.84H741.84V685.25H754.65V432.84Z" fill="#067A91"/>
  <path d="M741.7 417.15H398.35V426.24H741.7V417.15Z" fill="#067A91"/>
  <path d="M398.359 464.51H134.02V472.84H398.359V464.51Z" fill="#067A91"/>
  <path d="M1005.9 464.51H741.561V472.84H1005.9V464.51Z" fill="#067A91"/>
  <path d="M620.801 511.97H521.721V635.2H620.801V511.97Z" fill="#0093B2"/>
  <path d="M174.08 497.7H168.92V546.32H174.08V497.7Z" fill="#067A91"/>
  <path d="M212.28 497.7H168.92V503.57H212.28V497.7Z" fill="#067A91"/>
  <path d="M212.271 497.7H207.561V546.32H212.271V497.7Z" fill="#067A91"/>
  <path d="M249.67 497.7H244.51V546.32H249.67V497.7Z" fill="#067A91"/>
  <path d="M287.87 497.7H244.51V503.57H287.87V497.7Z" fill="#067A91"/>
  <path d="M287.86 497.7H283.15V546.32H287.86V497.7Z" fill="#067A91"/>
  <path d="M325.26 497.7H320.1V546.32H325.26V497.7Z" fill="#067A91"/>
  <path d="M363.46 497.7H320.1V503.57H363.46V497.7Z" fill="#067A91"/>
  <path d="M363.46 497.7H358.75V546.32H363.46V497.7Z" fill="#067A91"/>
  <path d="M325.26 576.71H320.1V625.33H325.26V576.71Z" fill="#067A91"/>
  <path d="M363.46 576.71H320.1V582.58H363.46V576.71Z" fill="#067A91"/>
  <path d="M363.46 576.71H358.75V625.33H363.46V576.71Z" fill="#067A91"/>
  <path d="M249.67 576.71H244.51V625.33H249.67V576.71Z" fill="#067A91"/>
  <path d="M287.87 576.71H244.51V582.58H287.87V576.71Z" fill="#067A91"/>
  <path d="M287.86 576.71H283.15V625.33H287.86V576.71Z" fill="#067A91"/>
  <path d="M174.08 576.71H168.92V625.33H174.08V576.71Z" fill="#067A91"/>
  <path d="M212.28 576.71H168.92V582.58H212.28V576.71Z" fill="#067A91"/>
  <path d="M212.271 576.71H207.561V625.33H212.271V576.71Z" fill="#067A91"/>
  <path d="M435.41 542.3H430.25V590.92H435.41V542.3Z" fill="#067A91"/>
  <path d="M473.61 542.3H430.25V548.17H473.61V542.3Z" fill="#067A91"/>
  <path d="M473.61 542.3H468.9V590.92H473.61V542.3Z" fill="#067A91"/>
  <path d="M670.619 542.3H665.459V590.92H670.619V542.3Z" fill="#067A91"/>
  <path d="M708.819 542.3H665.459V548.17H708.819V542.3Z" fill="#067A91"/>
  <path d="M708.819 542.3H704.109V590.92H708.819V542.3Z" fill="#067A91"/>
  <path d="M781.939 498.26H776.779V546.88H781.939V498.26Z" fill="#067A91"/>
  <path d="M820.139 498.26H776.779V504.13H820.139V498.26Z" fill="#067A91"/>
  <path d="M820.14 498.26H815.43V546.88H820.14V498.26Z" fill="#067A91"/>
  <path d="M857.211 498.26H852.051V546.88H857.211V498.26Z" fill="#067A91"/>
  <path d="M895.411 498.26H852.051V504.13H895.411V498.26Z" fill="#067A91"/>
  <path d="M895.409 498.26H890.699V546.88H895.409V498.26Z" fill="#067A91"/>
  <path d="M932.48 498.26H927.32V546.88H932.48V498.26Z" fill="#067A91"/>
  <path d="M970.68 498.26H927.32V504.13H970.68V498.26Z" fill="#067A91"/>
  <path d="M970.669 498.26H965.959V546.88H970.669V498.26Z" fill="#067A91"/>
  <path d="M932.48 576.71H927.32V625.33H932.48V576.71Z" fill="#067A91"/>
  <path d="M970.68 576.71H927.32V582.58H970.68V576.71Z" fill="#067A91"/>
  <path d="M970.669 576.71H965.959V625.33H970.669V576.71Z" fill="#067A91"/>
  <path d="M857.49 576.71H852.33V625.33H857.49V576.71Z" fill="#067A91"/>
  <path d="M895.69 576.71H852.33V582.58H895.69V576.71Z" fill="#067A91"/>
  <path d="M895.681 576.71H890.971V625.33H895.681V576.71Z" fill="#067A91"/>
  <path d="M782.5 576.71H777.34V625.33H782.5V576.71Z" fill="#067A91"/>
  <path d="M820.7 576.71H777.34V582.58H820.7V576.71Z" fill="#067A91"/>
  <path d="M820.69 576.71H815.98V625.33H820.69V576.71Z" fill="#067A91"/>
  <path d="M620.799 512.67H572.629V635.19H620.799V512.67Z" fill="#65D0E5"/>
  <path d="M528.131 511.97H521.721V634.94H528.131V511.97Z" fill="#067A91"/>
  <path d="M254.69 664.42H396.94V684.48H227.76L254.69 664.42Z" fill="#067A91"/>
  <path d="M884.08 664.42H741.84V684.48H911.01L884.08 664.42Z" fill="#067A91"/>
  <path d="M570.949 551.12L608.829 513.24H598.549L570.949 540.84V551.12Z" fill="#0093B2"/>
  <path d="M619.629 535.95L570.949 584.63V594.9L619.629 546.22V535.95Z" fill="#0093B2"/>
  <path d="M570.949 529.23L586.939 513.24H576.659L570.949 518.95V529.23Z" fill="#0093B2"/>
  <path d="M619.629 514.06L570.949 562.74V573.01L619.629 524.33V514.06Z" fill="#0093B2"/>
  <path d="M496.52 366.5L530.35 332.67H520.08L486.25 366.5H496.52Z" fill="white"/>
  <path d="M517.84 366.5L551.68 332.67H541.4L507.57 366.5H517.84Z" fill="white"/>
  <path d="M538.559 366.5L572.389 332.67H562.119L528.279 366.5H538.559Z" fill="white"/>
  <path d="M603.21 366.5L637.04 332.67H626.77L592.93 366.5H603.21Z" fill="white"/>
  <path d="M631.67 366.5L665.51 332.67H655.24L621.4 366.5H631.67Z" fill="white"/>
  <path d="M619.629 557.84L570.949 606.52V616.79L619.629 568.11V557.84Z" fill="#0093B2"/>
  <path d="M619.629 579.73L570.949 628.41V633.39H576.239L619.629 590V579.73Z" fill="#0093B2"/>
  <path d="M619.63 623.51L609.75 633.39H619.63V623.51Z" fill="#0093B2"/>
  <path d="M619.629 601.62L587.859 633.39H598.129L619.629 611.89V601.62Z" fill="#0093B2"/>
  <path d="M620.801 512.01H521.721V517.55H620.801V512.01Z" fill="#067A91"/>
  <path d="M621.4 511.97H614.99V634.94H621.4V511.97Z" fill="#067A91"/>
  <path d="M64.6202 557H60.9902V685.73H64.6202V557Z" fill="#094A70"/>
  <path d="M64.6107 686.24H60.9907C60.7007 686.24 60.4707 686.01 60.4707 685.72V556.99C60.4707 556.7 60.7007 556.47 60.9907 556.47H64.6107C64.9007 556.47 65.1307 556.7 65.1307 556.99V685.72C65.1307 686.01 64.9007 686.24 64.6107 686.24ZM61.5107 685.21H64.1007V557.52H61.5107V685.21Z" fill="#094A70"/>
  <path d="M77.9797 583.824L61.0195 632.472L64.4378 633.664L81.398 585.015L77.9797 583.824Z" fill="#094A70"/>
  <path d="M64.5104 634.26C64.4504 634.26 64.4005 634.26 64.3405 634.23L60.9204 633.04C60.7904 632.99 60.6804 632.9 60.6204 632.78C60.5604 632.66 60.5504 632.51 60.6004 632.38L77.5705 583.73C77.6205 583.6 77.7105 583.49 77.8305 583.43C77.9505 583.37 78.1004 583.37 78.2304 583.41L81.6504 584.6C81.9204 584.69 82.0604 584.99 81.9704 585.26L65.0004 633.9C64.9204 634.11 64.7204 634.25 64.5104 634.25V634.26ZM61.7504 632.23L64.2005 633.08L80.8305 585.41L78.3804 584.56L61.7504 632.23Z" fill="#094A70"/>
  <path d="M54.0896 617.839L50.8203 619.417L61.1725 640.87L64.4418 639.292L54.0896 617.839Z" fill="#094A70"/>
  <path d="M61.1693 641.49C61.1093 641.49 61.0492 641.49 60.9992 641.46C60.8692 641.41 60.7593 641.32 60.6993 641.2L50.3492 619.74C50.2292 619.48 50.3293 619.17 50.5893 619.05L53.8592 617.47C53.9792 617.41 54.1292 617.4 54.2592 617.45C54.3892 617.5 54.4993 617.59 54.5593 617.71L64.9092 639.17C65.0292 639.43 64.9293 639.74 64.6693 639.86L61.4092 641.44C61.3392 641.47 61.2593 641.49 61.1793 641.49H61.1693ZM51.5092 619.75L61.4092 640.28L63.7392 639.15L53.8393 618.62L51.5092 619.75Z" fill="#094A70"/>
  <path d="M59.8796 633.35C53.9496 633.35 48.2597 630.96 44.0797 626.76C41.9297 627.43 39.7297 627.77 37.5197 627.77C25.3397 627.77 15.4197 617.86 15.4197 605.67C15.4197 604.76 15.4796 603.85 15.6096 602.89C10.2596 598.67 7.09961 592.21 7.09961 585.38C7.09961 579.33 9.54962 573.6 13.8596 569.41C11.7396 565.79 10.6296 561.69 10.6296 557.45C10.6296 549.51 14.6596 542.08 21.2296 537.7C20.4896 535.52 20.1196 533.24 20.1196 530.9C20.1196 525.01 22.5497 519.43 26.8397 515.42C26.5497 514.16 26.4097 512.88 26.4097 511.6C26.4097 505.29 29.8796 499.54 35.3696 496.57C35.1096 495.09 34.9796 493.62 34.9796 492.18C34.9796 483.61 39.1497 475.76 46.1897 470.93C46.0197 470.02 45.9297 469.1 45.9297 468.19C45.9297 460 52.5897 453.34 60.7797 453.34C68.9697 453.34 75.6296 460 75.6296 468.19C75.6296 469.1 75.5396 470.02 75.3696 470.93C82.2396 475.64 86.3697 483.22 86.5697 491.54C93.0497 494.07 97.4597 500.43 97.4597 507.46C97.4597 509.16 97.2096 510.82 96.7196 512.43C105.04 517.07 110.33 525.97 110.33 535.54C110.33 539.9 109.24 544.19 107.17 548.04C108.21 548.95 109.13 549.95 109.93 551.02C113.12 555.28 114.47 560.64 113.73 565.91C115.34 567.08 116.75 568.47 117.92 570.04C124.52 578.86 122.71 591.4 113.9 597.99C113.27 598.46 112.61 598.89 111.88 599.3C111.69 605.42 108.74 611.16 103.82 614.83C99.8397 617.81 94.9696 619.18 89.9996 618.74C86.6096 621.75 82.3697 623.65 77.9097 624.17C73.7097 629.93 67.0396 633.35 59.8796 633.35ZM45.1296 622.53L45.9597 623.46C49.5097 627.44 54.5896 629.73 59.8896 629.73C66.1296 629.73 71.9297 626.63 75.4097 621.44L75.8997 620.71L76.7797 620.64C81.0097 620.32 85.0496 618.51 88.1396 615.54L88.7697 614.94L89.6296 615.05C93.9396 615.62 98.2097 614.51 101.66 611.93C105.93 608.73 108.4 603.62 108.27 598.26L108.24 597.11L109.27 596.59C110.2 596.12 111.01 595.63 111.74 595.08C118.96 589.68 120.43 579.42 115.03 572.2C113.88 570.66 112.44 569.33 110.78 568.26L109.74 567.59L109.99 566.38C110.93 561.75 109.86 556.94 107.05 553.19C106.15 551.98 105.04 550.88 103.76 549.91L102.44 548.91L103.31 547.51C105.55 543.89 106.73 539.75 106.73 535.53C106.73 526.8 101.62 518.72 93.7196 514.94L92.1697 514.2L92.8297 512.61C93.5097 510.97 93.8596 509.23 93.8596 507.46C93.8596 501.55 89.8996 496.24 84.2396 494.56L82.9097 494.16L82.9497 492.77C82.9497 492.65 82.9596 492.53 82.9696 492.41C82.9696 492.33 82.9796 492.26 82.9796 492.18C82.9796 484.44 79.0196 477.38 72.3896 473.3L71.2196 472.58L71.5897 471.26C71.8797 470.24 72.0297 469.21 72.0297 468.19C72.0297 462 66.9897 456.96 60.7997 456.96C54.6097 456.96 49.5697 462 49.5697 468.19C49.5697 469.21 49.7196 470.24 50.0096 471.26L50.3796 472.58L49.2097 473.3C42.5797 477.38 38.6196 484.44 38.6196 492.18C38.6196 493.81 38.8197 495.49 39.2097 497.18L39.5497 498.65L38.1697 499.25C33.2397 501.39 30.0597 506.24 30.0597 511.6C30.0597 512.92 30.2596 514.24 30.6396 515.51L30.9896 516.65L30.0697 517.42C26.0697 520.78 23.7797 525.7 23.7797 530.9C23.7797 533.28 24.2397 535.58 25.1597 537.75L25.7797 539.23L24.3896 540.03C18.1596 543.62 14.2897 550.29 14.2897 557.45C14.2897 561.49 15.4796 565.38 17.7396 568.71L18.6597 570.06L17.4097 571.11C13.1897 574.67 10.7596 579.87 10.7596 585.37C10.7596 591.4 13.7097 597.1 18.6597 600.6L19.5996 601.27L19.3997 602.4C19.1897 603.55 19.0897 604.62 19.0897 605.66C19.0897 615.85 27.3797 624.13 37.5597 624.13C39.7397 624.13 41.8996 623.73 44.0096 622.95L45.1697 622.52L45.1296 622.53Z" fill="#094A70"/>
  <path d="M59.88 633.87C53.97 633.87 48.1801 631.49 43.9401 627.34C41.8401 627.97 39.68 628.29 37.52 628.29C25.05 628.29 14.9 618.14 14.9 605.67C14.9 604.83 14.9501 603.99 15.0601 603.12C9.74006 598.81 6.58008 592.21 6.58008 585.39C6.58008 579.32 8.93008 573.63 13.2101 569.33C11.1801 565.72 10.11 561.62 10.11 557.46C10.11 549.47 14.03 542.04 20.61 537.5C19.94 535.38 19.5901 533.16 19.5901 530.91C19.5901 525.02 22.01 519.33 26.25 515.25C26 514.05 25.87 512.83 25.87 511.6C25.87 505.25 29.27 499.42 34.78 496.29C34.56 494.91 34.4401 493.53 34.4401 492.18C34.4401 483.63 38.61 475.62 45.6 470.69C45.46 469.85 45.39 469.01 45.39 468.19C45.39 459.71 52.29 452.82 60.76 452.82C69.23 452.82 76.13 459.72 76.13 468.19C76.13 469.02 76.06 469.86 75.92 470.69C82.71 475.47 86.7601 482.9 87.0601 491.18C93.6001 493.88 97.9601 500.38 97.9601 507.46C97.9601 509.06 97.7401 510.65 97.3201 512.18C105.67 517.01 110.84 525.92 110.84 535.54C110.84 539.83 109.79 544.1 107.8 547.93C108.74 548.79 109.59 549.73 110.33 550.71C113.5 554.95 114.93 560.39 114.27 565.67C115.82 566.83 117.18 568.2 118.32 569.72C125.09 578.76 123.24 591.63 114.19 598.4C113.61 598.83 113.01 599.23 112.37 599.61C112.1 605.84 109.1 611.52 104.12 615.25C100.12 618.25 95.17 619.67 90.17 619.28C86.76 622.24 82.6301 624.1 78.1901 624.66C73.9001 630.43 67.07 633.87 59.88 633.87ZM44.0801 626.24C44.2201 626.24 44.3501 626.29 44.4501 626.39C48.5201 630.48 54.15 632.83 59.88 632.83C66.82 632.83 73.4 629.48 77.49 623.87C77.58 623.75 77.71 623.68 77.85 623.66C82.24 623.15 86.32 621.32 89.66 618.36C89.77 618.27 89.91 618.21 90.05 618.23C94.87 618.66 99.65 617.31 103.51 614.42C108.31 610.82 111.17 605.31 111.36 599.29C111.36 599.11 111.46 598.94 111.62 598.86C112.32 598.46 112.97 598.04 113.58 597.58C122.17 591.15 123.92 578.94 117.5 570.35C116.36 568.82 114.98 567.47 113.42 566.33C113.26 566.22 113.19 566.03 113.21 565.84C113.93 560.73 112.58 555.44 109.51 551.34C108.73 550.3 107.83 549.33 106.82 548.44C106.64 548.28 106.59 548.02 106.71 547.81C108.74 544.04 109.81 539.8 109.81 535.55C109.81 526.17 104.7 517.49 96.4601 512.89C96.2501 512.77 96.15 512.52 96.22 512.29C96.69 510.73 96.9401 509.11 96.9401 507.47C96.9401 500.7 92.69 494.5 86.38 492.03C86.19 491.95 86.06 491.77 86.05 491.56C85.85 483.37 81.8501 476.01 75.0701 471.37C74.9001 471.25 74.82 471.05 74.85 470.85C75.02 469.97 75.1 469.08 75.1 468.21C75.1 460.31 68.67 453.87 60.76 453.87C52.85 453.87 46.42 460.3 46.42 468.21C46.42 469.08 46.5 469.97 46.67 470.85C46.71 471.05 46.6201 471.26 46.4501 471.37C39.5701 476.08 35.47 483.87 35.47 492.19C35.47 493.6 35.6 495.04 35.85 496.49C35.89 496.71 35.7801 496.93 35.5901 497.03C30.2301 499.93 26.9 505.52 26.9 511.61C26.9 512.86 27.0401 514.1 27.3201 515.32C27.3601 515.5 27.3 515.69 27.17 515.81C23.01 519.71 20.62 525.22 20.62 530.92C20.62 533.19 20.9901 535.43 21.7001 537.56C21.7801 537.78 21.7 538.03 21.5 538.16C15.01 542.48 11.13 549.7 11.13 557.48C11.13 561.6 12.22 565.64 14.29 569.18C14.41 569.39 14.3701 569.65 14.2001 569.81C9.94007 573.94 7.59998 579.49 7.59998 585.41C7.59998 592.01 10.71 598.41 15.92 602.51C16.06 602.62 16.14 602.8 16.11 602.98C15.99 603.91 15.9301 604.8 15.9301 605.69C15.9301 617.59 25.61 627.27 37.51 627.27C39.67 627.27 41.82 626.94 43.92 626.28C43.97 626.26 44.0201 626.26 44.0801 626.26V626.24ZM59.88 630.24C54.43 630.24 49.2101 627.89 45.5601 623.8L44.97 623.14L44.14 623.45C41.98 624.25 39.75 624.66 37.51 624.66C27.04 624.66 18.52 616.14 18.52 605.67C18.52 604.6 18.6201 603.51 18.8301 602.32L18.97 601.51L18.3 601.03C13.22 597.43 10.1901 591.58 10.1901 585.38C10.1901 579.72 12.68 574.38 17.02 570.72L17.91 569.97L17.26 569.01C14.94 565.59 13.72 561.6 13.72 557.46C13.72 550.11 17.6901 543.27 24.0801 539.59L25.0701 539.02L24.62 537.96C23.68 535.73 23.2001 533.36 23.2001 530.91C23.2001 525.55 25.5601 520.49 29.6801 517.03L30.3301 516.48L30.0801 515.66C29.6801 514.33 29.48 512.97 29.48 511.6C29.48 506.03 32.79 500.99 37.9 498.77L38.89 498.34L38.65 497.29C38.25 495.56 38.05 493.84 38.05 492.18C38.05 484.26 42.1 477.03 48.89 472.86L49.72 472.35L49.4501 471.41C49.1501 470.34 48.99 469.26 48.99 468.2C48.99 461.72 54.26 456.45 60.74 456.45C67.22 456.45 72.49 461.72 72.49 468.2C72.49 469.26 72.34 470.34 72.03 471.41L71.76 472.35L72.5901 472.86C79.3801 477.03 83.4301 484.26 83.4301 492.18C83.4301 492.25 83.4301 492.32 83.4301 492.39C83.4201 492.56 83.41 492.67 83.41 492.79L83.38 493.78L84.3301 494.06C90.2101 495.81 94.3201 501.32 94.3201 507.46C94.3201 509.31 93.96 511.11 93.25 512.81L92.78 513.94L93.89 514.47C101.97 518.34 107.19 526.61 107.19 535.53C107.19 539.84 105.98 544.08 103.69 547.78L103.07 548.78L104.01 549.49C105.33 550.49 106.47 551.63 107.4 552.87C110.3 556.74 111.4 561.7 110.44 566.48L110.26 567.35L111 567.83C112.72 568.94 114.2 570.31 115.39 571.9C118.08 575.5 119.21 579.94 118.57 584.4C117.93 588.86 115.59 592.81 111.99 595.5C111.23 596.07 110.4 596.58 109.44 597.06L108.71 597.43L108.73 598.25C108.87 603.78 106.33 609.05 101.92 612.35C98.36 615.02 93.95 616.16 89.51 615.57L88.9 615.49L88.4501 615.92C85.2701 618.97 81.12 620.83 76.77 621.16L76.14 621.21L75.79 621.73C72.21 627.06 66.2501 630.24 59.8401 630.24H59.88ZM45.13 622.01C45.27 622.01 45.42 622.07 45.52 622.18L46.35 623.11C49.8 626.98 54.74 629.21 59.89 629.21C65.95 629.21 71.59 626.2 74.98 621.15L75.47 620.42C75.56 620.29 75.7 620.21 75.86 620.19L76.74 620.12C80.85 619.81 84.77 618.05 87.78 615.17L88.41 614.57C88.52 614.46 88.6801 614.41 88.8401 614.43L89.7001 614.54C93.8701 615.09 98.01 614.02 101.35 611.52C105.49 608.42 107.88 603.47 107.75 598.28L107.72 597.13C107.72 596.93 107.83 596.74 108 596.65L109.03 596.13C109.93 595.68 110.71 595.2 111.42 594.67C114.8 592.14 116.99 588.44 117.6 584.25C118.2 580.06 117.14 575.89 114.61 572.51C113.49 571.02 112.11 569.73 110.49 568.69L109.45 568.02C109.27 567.9 109.18 567.69 109.22 567.48L109.47 566.27C110.38 561.78 109.34 557.13 106.62 553.49C105.75 552.32 104.68 551.26 103.43 550.32L102.11 549.32C101.9 549.16 101.84 548.86 101.98 548.63L102.85 547.23C105.04 543.69 106.19 539.65 106.19 535.52C106.19 526.99 101.2 519.09 93.47 515.39L91.92 514.65C91.67 514.53 91.56 514.24 91.67 513.98L92.3301 512.39C92.9901 510.81 93.3201 509.14 93.3201 507.43C93.3201 501.75 89.5201 496.64 84.0701 495.02L82.74 494.62C82.52 494.55 82.36 494.34 82.37 494.11L82.41 492.72C82.41 492.59 82.4201 492.46 82.4301 492.33V492.14C82.4401 484.58 78.57 477.68 72.1 473.7L70.9301 472.98C70.7301 472.86 70.6401 472.62 70.7001 472.4L71.0701 471.08C71.3501 470.1 71.49 469.12 71.49 468.15C71.49 462.24 66.68 457.44 60.78 457.44C54.88 457.44 50.0701 462.24 50.0701 468.15C50.0701 469.12 50.21 470.11 50.49 471.08L50.87 472.4C50.93 472.62 50.84 472.86 50.64 472.98L49.47 473.7C42.99 477.68 39.13 484.58 39.13 492.14C39.13 493.73 39.3201 495.37 39.7001 497.02L40.04 498.49C40.1 498.73 39.97 498.98 39.74 499.08L38.36 499.68C33.62 501.74 30.5601 506.4 30.5601 511.56C30.5601 512.83 30.75 514.09 31.12 515.32L31.47 516.46C31.53 516.66 31.4701 516.87 31.3101 517.01L30.39 517.78C26.51 521.04 24.28 525.81 24.28 530.87C24.28 533.18 24.73 535.41 25.62 537.52L26.24 539C26.34 539.24 26.24 539.52 26.02 539.65L24.63 540.45C18.56 543.94 14.79 550.45 14.79 557.42C14.79 561.35 15.95 565.15 18.15 568.39L19.0701 569.74C19.2201 569.96 19.18 570.26 18.98 570.43L17.73 571.48C13.62 574.94 11.27 580 11.27 585.35C11.27 591.21 14.1401 596.75 18.9501 600.16L19.89 600.83C20.05 600.95 20.14 601.15 20.1 601.34L19.9 602.47C19.7 603.59 19.6 604.63 19.6 605.64C19.6 615.54 27.6601 623.6 37.5601 623.6C39.6701 623.6 41.7801 623.21 43.8301 622.45L44.99 622.02C45.05 622 45.11 621.99 45.17 621.99L45.13 622.01Z" fill="#094A70"/>
  <path d="M1048.73 610.64H1045.1V684.49H1048.73V610.64Z" fill="#094A70"/>
  <path d="M1048.73 685H1045.11C1044.82 685 1044.59 684.77 1044.59 684.48V610.63C1044.59 610.34 1044.82 610.11 1045.11 610.11H1048.73C1049.02 610.11 1049.25 610.34 1049.25 610.63V684.48C1049.25 684.77 1049.02 685 1048.73 685ZM1045.62 683.97H1048.21V611.16H1045.62V683.97Z" fill="#094A70"/>
  <path d="M1063.41 616.62H1059.78V684.49H1063.41V616.62Z" fill="#094A70"/>
  <path d="M1063.4 685H1059.78C1059.49 685 1059.26 684.77 1059.26 684.48V616.61C1059.26 616.32 1059.49 616.09 1059.78 616.09H1063.4C1063.69 616.09 1063.92 616.32 1063.92 616.61V684.48C1063.92 684.77 1063.69 685 1063.4 685ZM1060.3 683.97H1062.89V617.14H1060.3V683.97Z" fill="#094A70"/>
  <path d="M1078.09 622.05H1074.46V684.48H1078.09V622.05Z" fill="#094A70"/>
  <path d="M1078.08 685H1074.45C1074.16 685 1073.93 684.77 1073.93 684.48V622.05C1073.93 621.76 1074.16 621.53 1074.45 621.53H1078.08C1078.37 621.53 1078.6 621.76 1078.6 622.05V684.48C1078.6 684.77 1078.37 685 1078.08 685ZM1074.97 683.97H1077.56V622.57H1074.97V683.97Z" fill="#094A70"/>
  <path d="M1034.05 616.62H1030.42V684.49H1034.05V616.62Z" fill="#094A70"/>
  <path d="M1034.05 685H1030.43C1030.14 685 1029.91 684.77 1029.91 684.48V616.61C1029.91 616.32 1030.14 616.09 1030.43 616.09H1034.05C1034.34 616.09 1034.57 616.32 1034.57 616.61V684.48C1034.57 684.77 1034.34 685 1034.05 685ZM1030.94 683.97H1033.53V617.14H1030.94V683.97Z" fill="#094A70"/>
  <path d="M1019.37 622.05H1015.74V684.48H1019.37V622.05Z" fill="#094A70"/>
  <path d="M1019.37 685H1015.74C1015.45 685 1015.22 684.77 1015.22 684.48V622.05C1015.22 621.76 1015.45 621.53 1015.74 621.53H1019.37C1019.66 621.53 1019.89 621.76 1019.89 622.05V684.48C1019.89 684.77 1019.66 685 1019.37 685ZM1016.26 683.97H1018.85V622.57H1016.26V683.97Z" fill="#094A70"/>
  <path d="M1087.28 636.8H1007.09V640.43H1087.28V636.8Z" fill="#094A70"/>
  <path d="M1087.28 640.94H1007.09C1006.8 640.94 1006.57 640.71 1006.57 640.42V636.8C1006.57 636.51 1006.8 636.28 1007.09 636.28H1087.28C1087.57 636.28 1087.8 636.51 1087.8 636.8V640.42C1087.8 640.71 1087.57 640.94 1087.28 640.94ZM1007.61 639.9H1086.76V637.31H1007.61V639.9Z" fill="#094A70"/>
  <path d="M1087.28 658.59H1007.09V662.22H1087.28V658.59Z" fill="#094A70"/>
  <path d="M1087.28 662.73H1007.09C1006.8 662.73 1006.57 662.5 1006.57 662.21V658.59C1006.57 658.3 1006.8 658.07 1007.09 658.07H1087.28C1087.57 658.07 1087.8 658.3 1087.8 658.59V662.21C1087.8 662.5 1087.57 662.73 1087.28 662.73ZM1007.61 661.7H1086.76V659.11H1007.61V661.7Z" fill="#094A70"/>
  <path d="M573.7 287.79L567.57 281.66V268.45H571.2V280.16L576.26 285.23L573.7 287.79Z" fill="#094A70"/>
  <path d="M573.701 288.31C573.571 288.31 573.441 288.26 573.331 288.16L567.201 282.03C567.101 281.93 567.051 281.8 567.051 281.66V268.45C567.051 268.16 567.281 267.93 567.571 267.93H571.191C571.481 267.93 571.711 268.16 571.711 268.45V279.95L576.631 284.87C576.731 284.97 576.781 285.1 576.781 285.24C576.781 285.38 576.731 285.51 576.631 285.61L574.071 288.17C573.971 288.27 573.841 288.32 573.701 288.32V288.31ZM568.091 281.45L573.701 287.06L575.531 285.23L570.831 280.53C570.731 280.43 570.681 280.3 570.681 280.16V268.97H568.091V281.45Z" fill="#094A70"/>
  <path d="M572.909 165.979H569.279V184.689H572.909V165.979Z" fill="#094A70"/>
  <path d="M572.91 185.2H569.29C569 185.2 568.77 184.97 568.77 184.68V165.97C568.77 165.68 569 165.45 569.29 165.45H572.91C573.2 165.45 573.43 165.68 573.43 165.97V184.68C573.43 184.97 573.2 185.2 572.91 185.2ZM569.8 184.17H572.39V166.5H569.8V184.17Z" fill="#094A70"/>
  <path d="M537.55 417.149H533.92V435.319H537.55V417.149Z" fill="#094A70"/>
  <path d="M537.54 435.83H533.92C533.63 435.83 533.4 435.6 533.4 435.31V417.14C533.4 416.85 533.63 416.62 533.92 416.62H537.54C537.83 416.62 538.06 416.85 538.06 417.14V435.31C538.06 435.6 537.83 435.83 537.54 435.83ZM534.44 434.8H537.03V417.67H534.44V434.8Z" fill="#094A70"/>
  <path d="M604.62 417.149H600.99V435.319H604.62V417.149Z" fill="#094A70"/>
  <path d="M604.62 435.83H601C600.71 435.83 600.48 435.6 600.48 435.31V417.14C600.48 416.85 600.71 416.62 601 416.62H604.62C604.91 416.62 605.141 416.85 605.141 417.14V435.31C605.141 435.6 604.91 435.83 604.62 435.83ZM601.51 434.8H604.1V417.67H601.51V434.8Z" fill="#094A70"/>
  <path d="M212.269 518.89H168.959V522.52H212.269V518.89Z" fill="#094A70"/>
  <path d="M212.269 523.03H168.959C168.669 523.03 168.439 522.8 168.439 522.51V518.89C168.439 518.6 168.669 518.37 168.959 518.37H212.269C212.559 518.37 212.789 518.6 212.789 518.89V522.51C212.789 522.8 212.559 523.03 212.269 523.03ZM169.479 522H211.749V519.41H169.479V522Z" fill="#094A70"/>
  <path d="M192.439 520.7H188.809V546.32H192.439V520.7Z" fill="#094A70"/>
  <path d="M192.429 546.84H188.809C188.519 546.84 188.289 546.61 188.289 546.32V520.7C188.289 520.41 188.519 520.18 188.809 520.18H192.429C192.719 520.18 192.949 520.41 192.949 520.7V546.32C192.949 546.61 192.719 546.84 192.429 546.84ZM189.319 545.81H191.909V521.22H189.319V545.81Z" fill="#094A70"/>
  <path d="M287.839 518.89H244.529V522.52H287.839V518.89Z" fill="#094A70"/>
  <path d="M287.84 523.03H244.53C244.24 523.03 244.01 522.8 244.01 522.51V518.89C244.01 518.6 244.24 518.37 244.53 518.37H287.84C288.13 518.37 288.36 518.6 288.36 518.89V522.51C288.36 522.8 288.13 523.03 287.84 523.03ZM245.05 522H287.32V519.41H245.05V522Z" fill="#094A70"/>
  <path d="M267.999 520.7H264.369V546.32H267.999V520.7Z" fill="#094A70"/>
  <path d="M267.999 546.84H264.379C264.089 546.84 263.859 546.61 263.859 546.32V520.7C263.859 520.41 264.089 520.18 264.379 520.18H267.999C268.289 520.18 268.519 520.41 268.519 520.7V546.32C268.519 546.61 268.289 546.84 267.999 546.84ZM264.889 545.81H267.479V521.22H264.889V545.81Z" fill="#094A70"/>
  <path d="M363.41 518.89H320.1V522.52H363.41V518.89Z" fill="#094A70"/>
  <path d="M363.41 523.03H320.1C319.81 523.03 319.58 522.8 319.58 522.51V518.89C319.58 518.6 319.81 518.37 320.1 518.37H363.41C363.7 518.37 363.93 518.6 363.93 518.89V522.51C363.93 522.8 363.7 523.03 363.41 523.03ZM320.62 522H362.89V519.41H320.62V522Z" fill="#094A70"/>
  <path d="M343.569 520.7H339.939V546.32H343.569V520.7Z" fill="#094A70"/>
  <path d="M343.57 546.84H339.95C339.66 546.84 339.43 546.61 339.43 546.32V520.7C339.43 520.41 339.66 520.18 339.95 520.18H343.57C343.86 520.18 344.09 520.41 344.09 520.7V546.32C344.09 546.61 343.86 546.84 343.57 546.84ZM340.46 545.81H343.05V521.22H340.46V545.81Z" fill="#094A70"/>
  <path d="M363.41 597.24H320.1V600.87H363.41V597.24Z" fill="#094A70"/>
  <path d="M363.41 601.38H320.1C319.81 601.38 319.58 601.15 319.58 600.86V597.24C319.58 596.95 319.81 596.72 320.1 596.72H363.41C363.7 596.72 363.93 596.95 363.93 597.24V600.86C363.93 601.15 363.7 601.38 363.41 601.38ZM320.62 600.34H362.89V597.75H320.62V600.34Z" fill="#094A70"/>
  <path d="M343.569 599.05H339.939V624.67H343.569V599.05Z" fill="#094A70"/>
  <path d="M343.57 625.19H339.95C339.66 625.19 339.43 624.96 339.43 624.67V599.05C339.43 598.76 339.66 598.53 339.95 598.53H343.57C343.86 598.53 344.09 598.76 344.09 599.05V624.67C344.09 624.96 343.86 625.19 343.57 625.19ZM340.46 624.15H343.05V599.56H340.46V624.15Z" fill="#094A70"/>
  <path d="M287.82 597.24H244.51V600.87H287.82V597.24Z" fill="#094A70"/>
  <path d="M287.82 601.38H244.51C244.22 601.38 243.99 601.15 243.99 600.86V597.24C243.99 596.95 244.22 596.72 244.51 596.72H287.82C288.11 596.72 288.34 596.95 288.34 597.24V600.86C288.34 601.15 288.11 601.38 287.82 601.38ZM245.03 600.34H287.3V597.75H245.03V600.34Z" fill="#094A70"/>
  <path d="M267.98 599.05H264.35V624.67H267.98V599.05Z" fill="#094A70"/>
  <path d="M267.97 625.19H264.35C264.06 625.19 263.83 624.96 263.83 624.67V599.05C263.83 598.76 264.06 598.53 264.35 598.53H267.97C268.26 598.53 268.49 598.76 268.49 599.05V624.67C268.49 624.96 268.26 625.19 267.97 625.19ZM264.87 624.15H267.46V599.56H264.87V624.15Z" fill="#094A70"/>
  <path d="M212.23 597.24H168.92V600.87H212.23V597.24Z" fill="#094A70"/>
  <path d="M212.23 601.38H168.92C168.63 601.38 168.4 601.15 168.4 600.86V597.24C168.4 596.95 168.63 596.72 168.92 596.72H212.23C212.52 596.72 212.75 596.95 212.75 597.24V600.86C212.75 601.15 212.52 601.38 212.23 601.38ZM169.43 600.34H211.7V597.75H169.43V600.34Z" fill="#094A70"/>
  <path d="M192.39 599.05H188.76V624.67H192.39V599.05Z" fill="#094A70"/>
  <path d="M192.38 625.19H188.76C188.47 625.19 188.24 624.96 188.24 624.67V599.05C188.24 598.76 188.47 598.53 188.76 598.53H192.38C192.67 598.53 192.9 598.76 192.9 599.05V624.67C192.9 624.96 192.67 625.19 192.38 625.19ZM189.28 624.15H191.87V599.56H189.28V624.15Z" fill="#094A70"/>
  <path d="M820.119 597.24H776.809V600.87H820.119V597.24Z" fill="#094A70"/>
  <path d="M820.109 601.38H776.799C776.509 601.38 776.279 601.15 776.279 600.86V597.24C776.279 596.95 776.509 596.72 776.799 596.72H820.109C820.399 596.72 820.629 596.95 820.629 597.24V600.86C820.629 601.15 820.399 601.38 820.109 601.38ZM777.319 600.34H819.589V597.75H777.319V600.34Z" fill="#094A70"/>
  <path d="M800.28 599.05H796.65V624.67H800.28V599.05Z" fill="#094A70"/>
  <path d="M800.271 625.19H796.651C796.361 625.19 796.131 624.96 796.131 624.67V599.05C796.131 598.76 796.361 598.53 796.651 598.53H800.271C800.561 598.53 800.791 598.76 800.791 599.05V624.67C800.791 624.96 800.561 625.19 800.271 625.19ZM797.171 624.15H799.761V599.56H797.171V624.15Z" fill="#094A70"/>
  <path d="M895.659 597.24H852.35V600.87H895.659V597.24Z" fill="#094A70"/>
  <path d="M895.66 601.38H852.35C852.06 601.38 851.83 601.15 851.83 600.86V597.24C851.83 596.95 852.06 596.72 852.35 596.72H895.66C895.95 596.72 896.18 596.95 896.18 597.24V600.86C896.18 601.15 895.95 601.38 895.66 601.38ZM852.87 600.34H895.14V597.75H852.87V600.34Z" fill="#094A70"/>
  <path d="M875.82 599.05H872.189V624.67H875.82V599.05Z" fill="#094A70"/>
  <path d="M875.82 625.19H872.2C871.91 625.19 871.68 624.96 871.68 624.67V599.05C871.68 598.76 871.91 598.53 872.2 598.53H875.82C876.11 598.53 876.34 598.76 876.34 599.05V624.67C876.34 624.96 876.11 625.19 875.82 625.19ZM872.71 624.15H875.3V599.56H872.71V624.15Z" fill="#094A70"/>
  <path d="M971.2 597.24H927.891V600.87H971.2V597.24Z" fill="#094A70"/>
  <path d="M971.201 601.38H927.891C927.601 601.38 927.371 601.15 927.371 600.86V597.24C927.371 596.95 927.601 596.72 927.891 596.72H971.201C971.491 596.72 971.721 596.95 971.721 597.24V600.86C971.721 601.15 971.491 601.38 971.201 601.38ZM928.411 600.34H970.681V597.75H928.411V600.34Z" fill="#094A70"/>
  <path d="M951.361 599.05H947.73V624.67H951.361V599.05Z" fill="#094A70"/>
  <path d="M951.361 625.19H947.741C947.451 625.19 947.221 624.96 947.221 624.67V599.05C947.221 598.76 947.451 598.53 947.741 598.53H951.361C951.651 598.53 951.881 598.76 951.881 599.05V624.67C951.881 624.96 951.651 625.19 951.361 625.19ZM948.251 624.15H950.841V599.56H948.251V624.15Z" fill="#094A70"/>
  <path d="M971.2 520.76H927.891V524.39H971.2V520.76Z" fill="#094A70"/>
  <path d="M971.201 524.91H927.891C927.601 524.91 927.371 524.68 927.371 524.39V520.77C927.371 520.48 927.601 520.25 927.891 520.25H971.201C971.491 520.25 971.721 520.48 971.721 520.77V524.39C971.721 524.68 971.491 524.91 971.201 524.91ZM928.411 523.87H970.681V521.28H928.411V523.87Z" fill="#094A70"/>
  <path d="M951.361 522.58H947.73V548.2H951.361V522.58Z" fill="#094A70"/>
  <path d="M951.361 548.72H947.741C947.451 548.72 947.221 548.49 947.221 548.2V522.58C947.221 522.29 947.451 522.06 947.741 522.06H951.361C951.651 522.06 951.881 522.29 951.881 522.58V548.2C951.881 548.49 951.651 548.72 951.361 548.72ZM948.251 547.68H950.841V523.09H948.251V547.68Z" fill="#094A70"/>
  <path d="M895.38 520.76H852.07V524.39H895.38V520.76Z" fill="#094A70"/>
  <path d="M895.381 524.91H852.071C851.781 524.91 851.551 524.68 851.551 524.39V520.77C851.551 520.48 851.781 520.25 852.071 520.25H895.381C895.671 520.25 895.901 520.48 895.901 520.77V524.39C895.901 524.68 895.671 524.91 895.381 524.91ZM852.591 523.87H894.861V521.28H852.591V523.87Z" fill="#094A70"/>
  <path d="M875.54 522.58H871.91V548.2H875.54V522.58Z" fill="#094A70"/>
  <path d="M875.541 548.72H871.91C871.62 548.72 871.391 548.49 871.391 548.2V522.58C871.391 522.29 871.62 522.06 871.91 522.06H875.541C875.831 522.06 876.061 522.29 876.061 522.58V548.2C876.061 548.49 875.831 548.72 875.541 548.72ZM872.43 547.68H875.021V523.09H872.43V547.68Z" fill="#094A70"/>
  <path d="M819.56 520.76H776.25V524.39H819.56V520.76Z" fill="#094A70"/>
  <path d="M819.561 524.91H776.25C775.96 524.91 775.73 524.68 775.73 524.39V520.77C775.73 520.48 775.96 520.25 776.25 520.25H819.561C819.851 520.25 820.081 520.48 820.081 520.77V524.39C820.081 524.68 819.851 524.91 819.561 524.91ZM776.771 523.87H819.041V521.28H776.771V523.87Z" fill="#094A70"/>
  <path d="M799.72 522.58H796.09V548.2H799.72V522.58Z" fill="#094A70"/>
  <path d="M799.72 548.72H796.1C795.81 548.72 795.58 548.49 795.58 548.2V522.58C795.58 522.29 795.81 522.06 796.1 522.06H799.72C800.01 522.06 800.24 522.29 800.24 522.58V548.2C800.24 548.49 800.01 548.72 799.72 548.72ZM796.61 547.68H799.2V523.09H796.61V547.68Z" fill="#094A70"/>
  <path d="M470.419 479.229H433.439V482.859H470.419V479.229Z" fill="#094A70"/>
  <path d="M470.42 483.37H433.44C433.15 483.37 432.92 483.14 432.92 482.85V479.22C432.92 478.93 433.15 478.7 433.44 478.7H470.42C470.71 478.7 470.94 478.93 470.94 479.22V482.85C470.94 483.14 470.71 483.37 470.42 483.37ZM433.96 482.34H469.9V479.75H433.96V482.34Z" fill="#094A70"/>
  <path d="M473.56 562.95H430.25V566.58H473.56V562.95Z" fill="#094A70"/>
  <path d="M473.561 567.1H430.25C429.96 567.1 429.73 566.87 429.73 566.58V562.95C429.73 562.66 429.96 562.43 430.25 562.43H473.561C473.851 562.43 474.081 562.66 474.081 562.95V566.58C474.081 566.87 473.851 567.1 473.561 567.1ZM430.771 566.06H473.041V563.47H430.771V566.06Z" fill="#094A70"/>
  <path d="M705.16 479.229H668.18V482.859H705.16V479.229Z" fill="#094A70"/>
  <path d="M705.16 483.37H668.18C667.89 483.37 667.66 483.14 667.66 482.85V479.22C667.66 478.93 667.89 478.7 668.18 478.7H705.16C705.45 478.7 705.68 478.93 705.68 479.22V482.85C705.68 483.14 705.45 483.37 705.16 483.37ZM668.7 482.34H704.64V479.75H668.7V482.34Z" fill="#094A70"/>
  <path d="M453.72 542.86H450.09V564.77H453.72V542.86Z" fill="#094A70"/>
  <path d="M453.72 565.29H450.1C449.81 565.29 449.58 565.06 449.58 564.77V542.86C449.58 542.57 449.81 542.34 450.1 542.34H453.72C454.01 542.34 454.24 542.57 454.24 542.86V564.77C454.24 565.06 454.01 565.29 453.72 565.29ZM450.61 564.25H453.2V543.38H450.61V564.25Z" fill="#094A70"/>
  <path d="M708.8 562.95H665.49V566.58H708.8V562.95Z" fill="#094A70"/>
  <path d="M708.801 567.1H665.491C665.201 567.1 664.971 566.87 664.971 566.58V562.95C664.971 562.66 665.201 562.43 665.491 562.43H708.801C709.091 562.43 709.321 562.66 709.321 562.95V566.58C709.321 566.87 709.091 567.1 708.801 567.1ZM666.001 566.06H708.271V563.47H666.001V566.06Z" fill="#094A70"/>
  <path d="M688.96 542.86H685.33V564.77H688.96V542.86Z" fill="#094A70"/>
  <path d="M688.95 565.29H685.331C685.041 565.29 684.811 565.06 684.811 564.77V542.86C684.811 542.57 685.041 542.34 685.331 542.34H688.95C689.24 542.34 689.47 542.57 689.47 542.86V564.77C689.47 565.06 689.24 565.29 688.95 565.29ZM685.851 564.25H688.44V543.38H685.851V564.25Z" fill="#094A70"/>
  <path d="M574.691 512.01H571.061V635.19H574.691V512.01Z" fill="#094A70"/>
  <path d="M574.691 635.71H571.071C570.781 635.71 570.551 635.48 570.551 635.19V512.01C570.551 511.72 570.781 511.49 571.071 511.49H574.691C574.981 511.49 575.211 511.72 575.211 512.01V635.19C575.211 635.48 574.981 635.71 574.691 635.71ZM571.581 634.68H574.171V512.53H571.581V634.68Z" fill="#094A70"/>
  <path d="M573.191 332.65H569.561V366.17H573.191V332.65Z" fill="#094A70"/>
  <path d="M573.191 366.69H569.571C569.281 366.69 569.051 366.46 569.051 366.17V332.65C569.051 332.36 569.281 332.13 569.571 332.13H573.191C573.481 332.13 573.711 332.36 573.711 332.65V366.17C573.711 366.46 573.481 366.69 573.191 366.69ZM570.081 365.65H572.671V333.17H570.081V365.65Z" fill="#094A70"/>
  <path d="M526.339 332.65H522.709V366.17H526.339V332.65Z" fill="#094A70"/>
  <path d="M526.329 366.69H522.709C522.419 366.69 522.189 366.46 522.189 366.17V332.65C522.189 332.36 522.419 332.13 522.709 332.13H526.329C526.619 332.13 526.849 332.36 526.849 332.65V366.17C526.849 366.46 526.619 366.69 526.329 366.69ZM523.229 365.65H525.819V333.17H523.229V365.65Z" fill="#094A70"/>
  <path d="M475.38 332.65H471.75V366.17H475.38V332.65Z" fill="#094A70"/>
  <path d="M475.37 366.69H471.75C471.46 366.69 471.23 366.46 471.23 366.17V332.65C471.23 332.36 471.46 332.13 471.75 332.13H475.37C475.66 332.13 475.891 332.36 475.891 332.65V366.17C475.891 366.46 475.66 366.69 475.37 366.69ZM472.271 365.65H474.86V333.17H472.271V365.65Z" fill="#094A70"/>
  <path d="M673.579 332.65H669.949V366.17H673.579V332.65Z" fill="#094A70"/>
  <path d="M673.57 366.69H669.95C669.66 366.69 669.43 366.46 669.43 366.17V332.65C669.43 332.36 669.66 332.13 669.95 332.13H673.57C673.86 332.13 674.09 332.36 674.09 332.65V366.17C674.09 366.46 673.86 366.69 673.57 366.69ZM670.47 365.65H673.06V333.17H670.47V365.65Z" fill="#094A70"/>
  <path d="M622.62 332.65H618.99V366.17H622.62V332.65Z" fill="#094A70"/>
  <path d="M622.611 366.69H618.991C618.701 366.69 618.471 366.46 618.471 366.17V332.65C618.471 332.36 618.701 332.13 618.991 332.13H622.611C622.901 332.13 623.131 332.36 623.131 332.65V366.17C623.131 366.46 622.901 366.69 622.611 366.69ZM619.511 365.65H622.101V333.17H619.511V365.65Z" fill="#094A70"/>
  <path d="M1139.67 683.44H0.519531V687.07H1139.67V683.44Z" fill="#094A70"/>
  <path d="M1139.67 687.58H0.52002C0.23002 687.58 0 687.35 0 687.06V683.44C0 683.15 0.23002 682.92 0.52002 682.92H1139.67C1139.96 682.92 1140.19 683.15 1140.19 683.44V687.06C1140.19 687.35 1139.96 687.58 1139.67 687.58ZM1.04004 686.54H1139.16V683.95H1.04004V686.54Z" fill="#094A70"/>
  <path d="M617.019 167.79H569.279V140.77H617.019L604.249 154.28L617.019 167.79ZM572.909 164.17H608.599L599.259 154.29L608.599 144.41H572.909V164.17Z" fill="#094A70"/>
  <path d="M617.02 168.31H569.28C568.99 168.31 568.76 168.08 568.76 167.79V140.78C568.76 140.49 568.99 140.26 569.28 140.26H617.02C617.23 140.26 617.41 140.38 617.5 140.57C617.59 140.76 617.54 140.98 617.4 141.13L604.96 154.28L617.4 167.43C617.54 167.58 617.58 167.8 617.5 167.99C617.42 168.18 617.23 168.3 617.02 168.3V168.31ZM569.8 167.27H615.82L603.87 154.64C603.68 154.44 603.68 154.13 603.87 153.93L615.82 141.3H569.8V167.28V167.27ZM608.6 164.68H572.91C572.62 164.68 572.39 164.45 572.39 164.16V144.4C572.39 144.11 572.62 143.88 572.91 143.88H608.6C608.81 143.88 608.99 144 609.08 144.19C609.16 144.38 609.12 144.6 608.98 144.75L599.97 154.28L608.98 163.81C609.12 163.96 609.16 164.18 609.08 164.37C609 164.56 608.81 164.68 608.6 164.68ZM573.43 163.65H607.4L598.88 154.64C598.69 154.44 598.69 154.13 598.88 153.93L607.4 144.92H573.43V163.65Z" fill="#094A70"/>
  <path d="M1007.43 687.06H132.209V462.7H398.349V466.32H135.829V683.44H1003.81V466.32H741.729V462.7H1007.43V687.06Z" fill="#094A70"/>
  <path d="M1007.43 687.58H132.2C131.91 687.58 131.68 687.35 131.68 687.06V462.7C131.68 462.41 131.91 462.18 132.2 462.18H398.35C398.64 462.18 398.87 462.41 398.87 462.7V466.32C398.87 466.61 398.64 466.84 398.35 466.84H136.34V682.92H1003.28V466.84H741.72C741.43 466.84 741.2 466.61 741.2 466.32V462.7C741.2 462.41 741.43 462.18 741.72 462.18H1007.42C1007.71 462.18 1007.94 462.41 1007.94 462.7V687.06C1007.94 687.35 1007.71 687.58 1007.42 687.58H1007.43ZM132.72 686.54H1006.91V463.21H742.25V465.8H1003.81C1004.1 465.8 1004.33 466.03 1004.33 466.32V683.43C1004.33 683.72 1004.1 683.95 1003.81 683.95H135.83C135.54 683.95 135.31 683.72 135.31 683.43V466.32C135.31 466.03 135.54 465.8 135.83 465.8H397.84V463.21H132.73V686.54H132.72Z" fill="#094A70"/>
  <path d="M743.649 670.379H396.539V415.339H743.649V670.379ZM400.169 666.749H740.029V418.959H400.169V666.749Z" fill="#094A70"/>
  <path d="M743.65 670.89H396.54C396.25 670.89 396.02 670.66 396.02 670.37V415.33C396.02 415.04 396.25 414.81 396.54 414.81H743.65C743.94 414.81 744.169 415.04 744.169 415.33V670.37C744.169 670.66 743.94 670.89 743.65 670.89ZM397.06 669.86H743.13V415.85H397.06V669.86ZM740.02 667.27H400.16C399.87 667.27 399.64 667.04 399.64 666.75V418.96C399.64 418.67 399.87 418.44 400.16 418.44H740.02C740.31 418.44 740.54 418.67 740.54 418.96V666.75C740.54 667.04 740.31 667.27 740.02 667.27ZM400.68 666.23H739.5V419.47H400.68V666.23Z" fill="#094A70"/>
  <path d="M765.14 401.629H375.52V283.65L570.62 203L765.15 284.639V401.639L765.14 401.629ZM379.14 397.999H761.51V287.04L570.599 206.92L379.14 286.07V398.009V397.999Z" fill="#094A70"/>
  <path d="M765.14 402.15H375.52C375.23 402.15 375 401.92 375 401.63V283.65C375 283.44 375.13 283.25 375.32 283.17L570.42 202.51C570.55 202.46 570.69 202.46 570.82 202.51L765.35 284.15C765.54 284.23 765.67 284.42 765.67 284.63V401.63C765.67 401.92 765.44 402.15 765.15 402.15H765.14ZM376.03 401.11H764.62V284.98L570.61 203.55L376.03 283.99V401.11ZM761.51 398.52H379.14C378.85 398.52 378.62 398.29 378.62 398V286.06C378.62 285.85 378.75 285.66 378.94 285.58L570.4 206.43C570.53 206.38 570.67 206.38 570.8 206.43L761.71 286.55C761.9 286.63 762.03 286.82 762.03 287.03V397.99C762.03 398.28 761.8 398.51 761.51 398.51V398.52ZM379.66 397.49H761V287.39L570.61 207.48L379.67 286.42V397.49H379.66Z" fill="#094A70"/>
  <path d="M796.07 301.55L570.6 206.92L346.02 299.76L333.83 283.24L570.61 182.02L807.87 285.39L796.06 301.54L796.07 301.55ZM570.61 202.99L794.83 297.09L802.28 286.9L570.6 185.96L339.47 284.77L347.26 295.32L570.61 202.98V202.99Z" fill="#094A70"/>
  <path d="M796.07 302.06C796 302.06 795.93 302.05 795.87 302.02L570.6 207.48L346.22 300.24C346 300.33 345.75 300.26 345.6 300.07L333.41 283.55C333.32 283.42 333.29 283.26 333.33 283.11C333.37 282.96 333.48 282.83 333.63 282.77L570.41 181.55C570.54 181.49 570.69 181.49 570.82 181.55L808.08 284.92C808.22 284.98 808.33 285.11 808.37 285.26C808.41 285.41 808.38 285.57 808.29 285.7L796.48 301.85C796.38 301.99 796.22 302.06 796.06 302.06H796.07ZM570.6 206.4C570.67 206.4 570.74 206.41 570.8 206.44L795.89 300.91L807.07 285.61L570.61 182.59L334.64 283.47L346.2 299.13L570.4 206.44C570.46 206.41 570.53 206.4 570.6 206.4ZM794.83 297.61C794.76 297.61 794.69 297.6 794.63 297.57L570.61 203.55L347.46 295.8C347.24 295.89 346.99 295.82 346.84 295.63L339.05 285.08C338.96 284.95 338.93 284.79 338.97 284.64C339.01 284.49 339.12 284.36 339.27 284.3L570.4 185.49C570.53 185.43 570.68 185.43 570.81 185.49L802.49 286.43C802.63 286.49 802.74 286.62 802.78 286.77C802.82 286.92 802.79 287.08 802.7 287.21L795.25 297.4C795.15 297.54 794.99 297.61 794.83 297.61ZM570.61 202.47C570.68 202.47 570.75 202.48 570.81 202.51L794.65 296.46L801.47 287.13L570.59 186.54L340.27 285L347.43 294.7L570.41 202.52C570.47 202.49 570.54 202.48 570.61 202.48V202.47Z" fill="#094A70"/>
  <path d="M622.61 636.93H519.91V510.2H622.61V636.93ZM523.54 633.3H618.99V513.82H523.54V633.3Z" fill="#094A70"/>
  <path d="M622.611 637.44H519.911C519.621 637.44 519.391 637.21 519.391 636.92V510.19C519.391 509.9 519.621 509.67 519.911 509.67H622.611C622.901 509.67 623.131 509.9 623.131 510.19V636.92C623.131 637.21 622.901 637.44 622.611 637.44ZM520.431 636.41H622.101V510.72H520.431V636.41ZM618.991 633.82H523.541C523.251 633.82 523.021 633.59 523.021 633.3V513.82C523.021 513.53 523.251 513.3 523.541 513.3H618.991C619.281 513.3 619.511 513.53 619.511 513.82V633.3C619.511 633.59 619.281 633.82 618.991 633.82ZM524.051 632.78H618.471V514.34H524.051V632.78Z" fill="#094A70"/>
  <path d="M523.539 637.01H508.629V499.99H633.879V513.79H633.789V636.84H618.999V513.79H523.549V637.02L523.539 637.01ZM512.249 633.38H519.909V510.15H622.609V633.2H630.149V510.15H630.239V503.6H512.239V633.37L512.249 633.38Z" fill="#094A70"/>
  <path d="M523.539 637.53H508.629C508.339 637.53 508.109 637.3 508.109 637.01V499.99C508.109 499.7 508.339 499.47 508.629 499.47H633.88C634.17 499.47 634.4 499.7 634.4 499.99V513.79C634.4 513.9 634.369 514 634.309 514.09V636.84C634.309 637.13 634.079 637.36 633.789 637.36H618.999C618.709 637.36 618.479 637.13 618.479 636.84V514.31H524.059V637.02C524.059 637.31 523.829 637.54 523.539 637.54V637.53ZM509.139 636.49H523.019V513.78C523.019 513.49 523.249 513.26 523.539 513.26H618.989C619.279 513.26 619.509 513.49 619.509 513.78V636.31H633.269V513.78C633.269 513.67 633.299 513.57 633.359 513.48V500.5H509.149V636.49H509.139ZM519.909 633.9H512.249C511.959 633.9 511.729 633.67 511.729 633.38V503.61C511.729 503.32 511.959 503.09 512.249 503.09H630.249C630.539 503.09 630.769 503.32 630.769 503.61V510.16C630.769 510.27 630.729 510.37 630.679 510.46V633.21C630.679 633.5 630.449 633.73 630.159 633.73H622.619C622.329 633.73 622.099 633.5 622.099 633.21V510.68H520.429V633.39C520.429 633.68 520.199 633.91 519.909 633.91V633.9ZM512.769 632.87H519.389V510.16C519.389 509.87 519.619 509.64 519.909 509.64H622.609C622.899 509.64 623.129 509.87 623.129 510.16V632.69H629.629V510.16C629.629 510.05 629.669 509.95 629.719 509.86V504.13H512.759V632.87H512.769Z" fill="#094A70"/>
  <path d="M680.94 653.69H464.311V633.38H680.94V653.69ZM467.941 650.07H677.311V637.01H467.941V650.07Z" fill="#094A70"/>
  <path d="M680.941 654.21H464.321C464.031 654.21 463.801 653.98 463.801 653.69V633.38C463.801 633.09 464.031 632.86 464.321 632.86H680.941C681.231 632.86 681.461 633.09 681.461 633.38V653.69C681.461 653.98 681.231 654.21 680.941 654.21ZM464.831 653.18H680.421V633.91H464.831V653.18ZM677.321 650.59H467.941C467.651 650.59 467.421 650.36 467.421 650.07V637.01C467.421 636.72 467.651 636.49 467.941 636.49H677.321C677.611 636.49 677.841 636.72 677.841 637.01V650.07C677.841 650.36 677.611 650.59 677.321 650.59ZM468.461 649.55H676.801V637.53H468.461V649.55Z" fill="#094A70"/>
  <path d="M713.689 670.379H428.879V650.069H713.689V670.379ZM432.499 666.749H710.059V653.689H432.499V666.749Z" fill="#094A70"/>
  <path d="M713.689 670.89H428.879C428.589 670.89 428.359 670.66 428.359 670.37V650.06C428.359 649.77 428.589 649.54 428.879 649.54H713.689C713.979 649.54 714.209 649.77 714.209 650.06V670.37C714.209 670.66 713.979 670.89 713.689 670.89ZM429.399 669.86H713.169V650.59H429.399V669.86ZM710.059 667.27H432.499C432.209 667.27 431.979 667.04 431.979 666.75V653.69C431.979 653.4 432.209 653.17 432.499 653.17H710.059C710.349 653.17 710.579 653.4 710.579 653.69V666.75C710.579 667.04 710.349 667.27 710.059 667.27ZM433.019 666.23H709.539V654.21H433.019V666.23Z" fill="#094A70"/>
  <path d="M743.649 687.06H396.539V666.75H743.649V687.06ZM400.169 683.44H740.029V670.38H400.169V683.44Z" fill="#094A70"/>
  <path d="M743.65 687.579H396.54C396.25 687.579 396.02 687.35 396.02 687.06V666.749C396.02 666.459 396.25 666.229 396.54 666.229H743.65C743.94 666.229 744.169 666.459 744.169 666.749V687.06C744.169 687.35 743.94 687.579 743.65 687.579ZM397.06 686.539H743.13V667.269H397.06V686.539ZM740.02 683.949H400.16C399.87 683.949 399.64 683.72 399.64 683.43V670.37C399.64 670.08 399.87 669.849 400.16 669.849H740.02C740.31 669.849 740.54 670.08 740.54 670.37V683.43C740.54 683.72 740.31 683.949 740.02 683.949ZM400.68 682.919H739.5V670.899H400.68V682.919Z" fill="#094A70"/>
  <path d="M776.159 418.96H364.439V398H776.159V418.96ZM368.069 415.33H772.539V401.63H368.069V415.33Z" fill="#094A70"/>
  <path d="M776.16 419.48H364.44C364.15 419.48 363.92 419.25 363.92 418.96V398C363.92 397.71 364.15 397.48 364.44 397.48H776.16C776.45 397.48 776.68 397.71 776.68 398V418.96C776.68 419.25 776.45 419.48 776.16 419.48ZM364.96 418.44H775.64V398.52H364.96V418.44ZM772.53 415.85H368.06C367.77 415.85 367.54 415.62 367.54 415.33V401.62C367.54 401.33 367.77 401.1 368.06 401.1H772.53C772.82 401.1 773.05 401.33 773.05 401.62V415.33C773.05 415.62 772.82 415.85 772.53 415.85ZM368.58 414.82H772.01V402.15H368.58V414.82Z" fill="#094A70"/>
  <path d="M570.33 310.93C553.78 310.93 540.32 297.47 540.32 280.92C540.32 264.37 553.78 250.91 570.33 250.91C586.88 250.91 600.34 264.37 600.34 280.92C600.34 297.47 586.88 310.93 570.33 310.93ZM570.33 254.52C555.78 254.52 543.94 266.36 543.94 280.91C543.94 295.46 555.78 307.3 570.33 307.3C584.88 307.3 596.72 295.46 596.72 280.91C596.72 266.36 584.88 254.52 570.33 254.52Z" fill="#094A70"/>
  <path d="M570.331 311.44C553.501 311.44 539.801 297.74 539.801 280.91C539.801 264.08 553.501 250.38 570.331 250.38C587.161 250.38 600.861 264.08 600.861 280.91C600.861 297.74 587.161 311.44 570.331 311.44ZM570.331 251.42C554.071 251.42 540.831 264.65 540.831 280.92C540.831 297.19 554.061 310.42 570.331 310.42C586.601 310.42 599.831 297.19 599.831 280.92C599.831 264.65 586.601 251.42 570.331 251.42ZM570.331 307.82C555.491 307.82 543.421 295.75 543.421 280.91C543.421 266.07 555.491 254 570.331 254C585.171 254 597.241 266.07 597.241 280.91C597.241 295.75 585.171 307.82 570.331 307.82ZM570.331 255.04C556.061 255.04 544.461 266.65 544.461 280.91C544.461 295.17 556.071 306.78 570.331 306.78C584.591 306.78 596.201 295.17 596.201 280.91C596.201 266.65 584.591 255.04 570.331 255.04Z" fill="#094A70"/>
  <path d="M570.311 301.92C559.491 301.92 550.281 293.59 549.381 282.62C548.441 271.07 557.071 260.91 568.621 259.97C574.211 259.51 579.641 261.27 583.921 264.9C588.201 268.54 590.811 273.62 591.271 279.2C591.731 284.79 589.971 290.22 586.341 294.5C582.711 298.78 577.621 301.39 572.041 301.85C571.461 301.9 570.891 301.92 570.321 301.92H570.311ZM571.741 298.24C576.361 297.86 580.561 295.7 583.571 292.16C586.581 288.62 588.031 284.12 587.651 279.5C587.271 274.88 585.111 270.68 581.571 267.67C578.031 264.66 573.531 263.21 568.911 263.59C559.361 264.37 552.221 272.78 552.991 282.33C553.771 291.88 562.161 299 571.731 298.25L571.741 298.24Z" fill="#094A70"/>
  <path d="M570.31 302.44C559.19 302.44 549.77 293.75 548.87 282.66C548.4 276.94 550.2 271.37 553.93 266.98C557.66 262.59 562.86 259.92 568.58 259.45C574.31 258.98 579.87 260.78 584.26 264.5C588.65 268.23 591.32 273.43 591.79 279.16C592.26 284.88 590.46 290.45 586.73 294.84C583 299.23 577.8 301.9 572.08 302.37C571.5 302.42 570.91 302.44 570.32 302.44H570.31ZM570.35 260.42C569.79 260.42 569.22 260.44 568.66 260.49C563.21 260.93 558.26 263.48 554.71 267.66C551.16 271.84 549.45 277.14 549.9 282.58C550.76 293.14 559.73 301.41 570.31 301.41C570.87 301.41 571.44 301.39 571.99 301.34C577.44 300.9 582.39 298.35 585.94 294.18C589.49 290 591.2 284.7 590.75 279.26C590.3 273.82 587.76 268.86 583.59 265.31C579.85 262.13 575.2 260.43 570.36 260.43L570.35 260.42ZM571.88 300.57C571.61 300.57 571.39 300.36 571.36 300.09L571.25 298.79C561.63 299.25 553.25 292.01 552.47 282.37C551.67 272.53 559.02 263.87 568.86 263.07C573.62 262.67 578.24 264.17 581.9 267.27C585.55 270.37 587.77 274.7 588.16 279.46C588.55 284.22 587.05 288.85 583.95 292.5C580.96 296.02 576.84 298.21 572.28 298.71L572.39 300.01C572.39 300.01 572.39 300.04 572.39 300.05C572.39 300.32 572.18 300.54 571.91 300.57C571.9 300.57 571.88 300.57 571.87 300.57H571.88ZM570.35 264.04C569.89 264.04 569.42 264.06 568.95 264.1C559.68 264.86 552.75 273.01 553.51 282.28C554.26 291.52 562.42 298.46 571.69 297.72C576.17 297.35 580.25 295.26 583.17 291.82C586.09 288.38 587.5 284.02 587.13 279.54C586.76 275.06 584.67 270.98 581.23 268.06C578.15 265.44 574.32 264.04 570.34 264.04H570.35Z" fill="#094A70"/>
  <path d="M722.91 367.98H419.83V330.84H722.91V367.98ZM423.46 364.36H719.29V334.47H423.46V364.36Z" fill="#094A70"/>
  <path d="M722.91 368.5H419.831C419.541 368.5 419.311 368.27 419.311 367.98V330.84C419.311 330.55 419.541 330.32 419.831 330.32H722.91C723.2 330.32 723.43 330.55 723.43 330.84V367.98C723.43 368.27 723.2 368.5 722.91 368.5ZM420.35 367.46H722.391V331.35H420.35V367.46ZM719.291 364.87H423.461C423.171 364.87 422.941 364.64 422.941 364.35V334.46C422.941 334.17 423.171 333.94 423.461 333.94H719.291C719.581 333.94 719.811 334.17 719.811 334.46V364.35C719.811 364.64 719.581 364.87 719.291 364.87ZM423.98 363.84H718.771V334.98H423.98V363.84Z" fill="#094A70"/>
  <path d="M642.69 472.44H502.67V433.51H642.69V472.44ZM506.29 468.81H639.06V437.13H506.29V468.81Z" fill="#094A70"/>
  <path d="M642.69 472.95H502.67C502.38 472.95 502.15 472.72 502.15 472.43V433.5C502.15 433.21 502.38 432.98 502.67 432.98H642.69C642.98 432.98 643.21 433.21 643.21 433.5V472.43C643.21 472.72 642.98 472.95 642.69 472.95ZM503.18 471.92H642.17V434.02H503.18V471.92ZM639.06 469.33H506.29C506 469.33 505.77 469.1 505.77 468.81V437.13C505.77 436.84 506 436.61 506.29 436.61H639.06C639.35 436.61 639.58 436.84 639.58 437.13V468.81C639.58 469.1 639.35 469.33 639.06 469.33ZM506.81 468.29H638.55V437.65H506.81V468.29Z" fill="#094A70"/>
  <path d="M475.369 592.17H428.439V541.05H475.369V592.17ZM432.069 588.54H471.749V544.67H432.069V588.54Z" fill="#094A70"/>
  <path d="M475.37 592.69H428.44C428.15 592.69 427.92 592.46 427.92 592.17V541.05C427.92 540.76 428.15 540.53 428.44 540.53H475.37C475.66 540.53 475.89 540.76 475.89 541.05V592.17C475.89 592.46 475.66 592.69 475.37 592.69ZM428.96 591.65H474.86V541.57H428.96V591.65ZM471.75 589.06H432.07C431.78 589.06 431.55 588.83 431.55 588.54V544.67C431.55 544.38 431.78 544.15 432.07 544.15H471.75C472.04 544.15 472.27 544.38 472.27 544.67V588.54C472.27 588.83 472.04 589.06 471.75 589.06ZM432.58 588.02H471.23V545.19H432.58V588.02Z" fill="#094A70"/>
  <path d="M214.09 548.14H167.16V497.02H214.09V548.14ZM170.78 544.51H210.46V500.64H170.78V544.51Z" fill="#094A70"/>
  <path d="M214.091 548.65H167.161C166.871 548.65 166.641 548.42 166.641 548.13V497.01C166.641 496.72 166.871 496.49 167.161 496.49H214.091C214.381 496.49 214.611 496.72 214.611 497.01V548.13C214.611 548.42 214.381 548.65 214.091 548.65ZM167.671 547.62H213.571V497.54H167.671V547.62ZM210.461 545.03H170.781C170.491 545.03 170.261 544.8 170.261 544.51V500.64C170.261 500.35 170.491 500.12 170.781 500.12H210.461C210.751 500.12 210.981 500.35 210.981 500.64V544.51C210.981 544.8 210.751 545.03 210.461 545.03ZM171.291 543.99H209.941V501.16H171.291V543.99Z" fill="#094A70"/>
  <path d="M289.629 548.14H242.699V497.02H289.629V548.14ZM246.319 544.51H285.999V500.64H246.319V544.51Z" fill="#094A70"/>
  <path d="M289.63 548.65H242.7C242.41 548.65 242.18 548.42 242.18 548.13V497.01C242.18 496.72 242.41 496.49 242.7 496.49H289.63C289.92 496.49 290.15 496.72 290.15 497.01V548.13C290.15 548.42 289.92 548.65 289.63 548.65ZM243.21 547.62H289.11V497.54H243.21V547.62ZM286 545.03H246.32C246.03 545.03 245.8 544.8 245.8 544.51V500.64C245.8 500.35 246.03 500.12 246.32 500.12H286C286.29 500.12 286.52 500.35 286.52 500.64V544.51C286.52 544.8 286.29 545.03 286 545.03ZM246.84 543.99H285.49V501.16H246.84V543.99Z" fill="#094A70"/>
  <path d="M365.17 548.14H318.24V497.02H365.17V548.14ZM321.86 544.51H361.54V500.64H321.86V544.51Z" fill="#094A70"/>
  <path d="M365.171 548.65H318.241C317.951 548.65 317.721 548.42 317.721 548.13V497.01C317.721 496.72 317.951 496.49 318.241 496.49H365.171C365.461 496.49 365.691 496.72 365.691 497.01V548.13C365.691 548.42 365.461 548.65 365.171 548.65ZM318.761 547.62H364.661V497.54H318.761V547.62ZM361.551 545.03H321.871C321.581 545.03 321.351 544.8 321.351 544.51V500.64C321.351 500.35 321.581 500.12 321.871 500.12H361.551C361.841 500.12 362.071 500.35 362.071 500.64V544.51C362.071 544.8 361.841 545.03 361.551 545.03ZM322.381 543.99H361.031V501.16H322.381V543.99Z" fill="#094A70"/>
  <path d="M214.09 626.48H167.16V575.36H214.09V626.48ZM170.78 622.86H210.46V578.99H170.78V622.86Z" fill="#094A70"/>
  <path d="M214.091 627H167.161C166.871 627 166.641 626.77 166.641 626.48V575.36C166.641 575.07 166.871 574.84 167.161 574.84H214.091C214.381 574.84 214.611 575.07 214.611 575.36V626.48C214.611 626.77 214.381 627 214.091 627ZM167.671 625.97H213.571V575.89H167.671V625.97ZM210.461 623.38H170.781C170.491 623.38 170.261 623.15 170.261 622.86V578.99C170.261 578.7 170.491 578.47 170.781 578.47H210.461C210.751 578.47 210.981 578.7 210.981 578.99V622.86C210.981 623.15 210.751 623.38 210.461 623.38ZM171.291 622.34H209.941V579.51H171.291V622.34Z" fill="#094A70"/>
  <path d="M289.629 626.48H242.699V575.36H289.629V626.48ZM246.319 622.86H285.999V578.99H246.319V622.86Z" fill="#094A70"/>
  <path d="M289.63 627H242.7C242.41 627 242.18 626.77 242.18 626.48V575.36C242.18 575.07 242.41 574.84 242.7 574.84H289.63C289.92 574.84 290.15 575.07 290.15 575.36V626.48C290.15 626.77 289.92 627 289.63 627ZM243.21 625.97H289.11V575.89H243.21V625.97ZM286 623.38H246.32C246.03 623.38 245.8 623.15 245.8 622.86V578.99C245.8 578.7 246.03 578.47 246.32 578.47H286C286.29 578.47 286.52 578.7 286.52 578.99V622.86C286.52 623.15 286.29 623.38 286 623.38ZM246.84 622.34H285.49V579.51H246.84V622.34Z" fill="#094A70"/>
  <path d="M365.17 626.48H318.24V575.36H365.17V626.48ZM321.86 622.86H361.54V578.99H321.86V622.86Z" fill="#094A70"/>
  <path d="M365.171 627H318.241C317.951 627 317.721 626.77 317.721 626.48V575.36C317.721 575.07 317.951 574.84 318.241 574.84H365.171C365.461 574.84 365.691 575.07 365.691 575.36V626.48C365.691 626.77 365.461 627 365.171 627ZM318.761 625.97H364.661V575.89H318.761V625.97ZM361.551 623.38H321.871C321.581 623.38 321.351 623.15 321.351 622.86V578.99C321.351 578.7 321.581 578.47 321.871 578.47H361.551C361.841 578.47 362.071 578.7 362.071 578.99V622.86C362.071 623.15 361.841 623.38 361.551 623.38ZM322.381 622.34H361.031V579.51H322.381V622.34Z" fill="#094A70"/>
  <path d="M821.93 548.14H775V497.02H821.93V548.14ZM778.62 544.51H818.3V500.64H778.62V544.51Z" fill="#094A70"/>
  <path d="M821.93 548.65H775C774.71 548.65 774.48 548.42 774.48 548.13V497.01C774.48 496.72 774.71 496.49 775 496.49H821.93C822.22 496.49 822.45 496.72 822.45 497.01V548.13C822.45 548.42 822.22 548.65 821.93 548.65ZM775.51 547.62H821.41V497.54H775.51V547.62ZM818.301 545.03H778.621C778.331 545.03 778.101 544.8 778.101 544.51V500.64C778.101 500.35 778.331 500.12 778.621 500.12H818.301C818.591 500.12 818.821 500.35 818.821 500.64V544.51C818.821 544.8 818.591 545.03 818.301 545.03ZM779.141 543.99H817.791V501.16H779.141V543.99Z" fill="#094A70"/>
  <path d="M897.469 548.14H850.539V497.02H897.469V548.14ZM854.159 544.51H893.839V500.64H854.159V544.51Z" fill="#094A70"/>
  <path d="M897.469 548.65H850.54C850.25 548.65 850.02 548.42 850.02 548.13V497.01C850.02 496.72 850.25 496.49 850.54 496.49H897.469C897.759 496.49 897.99 496.72 897.99 497.01V548.13C897.99 548.42 897.759 548.65 897.469 548.65ZM851.05 547.62H896.949V497.54H851.05V547.62ZM893.84 545.03H854.159C853.869 545.03 853.64 544.8 853.64 544.51V500.64C853.64 500.35 853.869 500.12 854.159 500.12H893.84C894.13 500.12 894.36 500.35 894.36 500.64V544.51C894.36 544.8 894.13 545.03 893.84 545.03ZM854.679 543.99H893.33V501.16H854.679V543.99Z" fill="#094A70"/>
  <path d="M973.01 548.14H926.08V497.02H973.01V548.14ZM929.71 544.51H969.39V500.64H929.71V544.51Z" fill="#094A70"/>
  <path d="M973.01 548.65H926.081C925.791 548.65 925.561 548.42 925.561 548.13V497.01C925.561 496.72 925.791 496.49 926.081 496.49H973.01C973.3 496.49 973.531 496.72 973.531 497.01V548.13C973.531 548.42 973.3 548.65 973.01 548.65ZM926.601 547.62H972.5V497.54H926.601V547.62ZM969.391 545.03H929.71C929.42 545.03 929.19 544.8 929.19 544.51V500.64C929.19 500.35 929.42 500.12 929.71 500.12H969.391C969.681 500.12 969.91 500.35 969.91 500.64V544.51C969.91 544.8 969.681 545.03 969.391 545.03ZM930.22 543.99H968.871V501.16H930.22V543.99Z" fill="#094A70"/>
  <path d="M821.93 626.48H775V575.36H821.93V626.48ZM778.62 622.86H818.3V578.99H778.62V622.86Z" fill="#094A70"/>
  <path d="M821.93 627H775C774.71 627 774.48 626.77 774.48 626.48V575.36C774.48 575.07 774.71 574.84 775 574.84H821.93C822.22 574.84 822.45 575.07 822.45 575.36V626.48C822.45 626.77 822.22 627 821.93 627ZM775.51 625.97H821.41V575.89H775.51V625.97ZM818.301 623.38H778.621C778.331 623.38 778.101 623.15 778.101 622.86V578.99C778.101 578.7 778.331 578.47 778.621 578.47H818.301C818.591 578.47 818.821 578.7 818.821 578.99V622.86C818.821 623.15 818.591 623.38 818.301 623.38ZM779.141 622.34H817.791V579.51H779.141V622.34Z" fill="#094A70"/>
  <path d="M897.469 626.48H850.539V575.36H897.469V626.48ZM854.159 622.86H893.839V578.99H854.159V622.86Z" fill="#094A70"/>
  <path d="M897.469 627H850.54C850.25 627 850.02 626.77 850.02 626.48V575.36C850.02 575.07 850.25 574.84 850.54 574.84H897.469C897.759 574.84 897.99 575.07 897.99 575.36V626.48C897.99 626.77 897.759 627 897.469 627ZM851.05 625.97H896.949V575.89H851.05V625.97ZM893.84 623.38H854.159C853.869 623.38 853.64 623.15 853.64 622.86V578.99C853.64 578.7 853.869 578.47 854.159 578.47H893.84C894.13 578.47 894.36 578.7 894.36 578.99V622.86C894.36 623.15 894.13 623.38 893.84 623.38ZM854.679 622.34H893.33V579.51H854.679V622.34Z" fill="#094A70"/>
  <path d="M973.01 626.48H926.08V575.36H973.01V626.48ZM929.71 622.86H969.39V578.99H929.71V622.86Z" fill="#094A70"/>
  <path d="M973.01 627H926.081C925.791 627 925.561 626.77 925.561 626.48V575.36C925.561 575.07 925.791 574.84 926.081 574.84H973.01C973.3 574.84 973.531 575.07 973.531 575.36V626.48C973.531 626.77 973.3 627 973.01 627ZM926.601 625.97H972.5V575.89H926.601V625.97ZM969.391 623.38H929.71C929.42 623.38 929.19 623.15 929.19 622.86V578.99C929.19 578.7 929.42 578.47 929.71 578.47H969.391C969.681 578.47 969.91 578.7 969.91 578.99V622.86C969.91 623.15 969.681 623.38 969.391 623.38ZM930.22 622.34H968.871V579.51H930.22V622.34Z" fill="#094A70"/>
  <path d="M710.61 592.17H663.68V541.05H710.61V592.17ZM667.3 588.54H706.98V544.67H667.3V588.54Z" fill="#094A70"/>
  <path d="M710.61 592.69H663.68C663.39 592.69 663.16 592.46 663.16 592.17V541.05C663.16 540.76 663.39 540.53 663.68 540.53H710.61C710.9 540.53 711.13 540.76 711.13 541.05V592.17C711.13 592.46 710.9 592.69 710.61 592.69ZM664.19 591.65H710.09V541.57H664.19V591.65ZM706.98 589.06H667.3C667.01 589.06 666.78 588.83 666.78 588.54V544.67C666.78 544.38 667.01 544.15 667.3 544.15H706.98C707.27 544.15 707.5 544.38 707.5 544.67V588.54C707.5 588.83 707.27 589.06 706.98 589.06ZM667.82 588.02H706.47V545.19H667.82V588.02Z" fill="#094A70"/>
  <path d="M472.229 512.94H431.629V469.44C431.629 458.25 440.739 449.14 451.929 449.14C463.119 449.14 472.229 458.25 472.229 469.44V512.94ZM435.249 509.31H468.599V469.44C468.599 460.24 461.119 452.76 451.919 452.76C442.719 452.76 435.239 460.24 435.239 469.44V509.31H435.249Z" fill="#094A70"/>
  <path d="M472.229 513.46H431.629C431.339 513.46 431.109 513.23 431.109 512.94V469.44C431.109 457.96 440.449 448.62 451.929 448.62C463.409 448.62 472.749 457.96 472.749 469.44V512.94C472.749 513.23 472.519 513.46 472.229 513.46ZM432.149 512.42H471.719V469.44C471.719 458.53 462.839 449.66 451.939 449.66C441.039 449.66 432.159 458.54 432.159 469.44V512.42H432.149ZM468.609 509.83H435.259C434.969 509.83 434.739 509.6 434.739 509.31V469.44C434.739 459.96 442.449 452.25 451.929 452.25C461.409 452.25 469.119 459.96 469.119 469.44V509.31C469.119 509.6 468.889 509.83 468.599 509.83H468.609ZM435.769 508.8H468.089V469.45C468.089 460.54 460.839 453.29 451.929 453.29C443.019 453.29 435.769 460.54 435.769 469.45V508.8Z" fill="#094A70"/>
  <path d="M706.969 512.94H666.369V469.44C666.369 458.25 675.479 449.14 686.669 449.14C697.859 449.14 706.969 458.25 706.969 469.44V512.94ZM669.999 509.31H703.349V469.44C703.349 460.24 695.869 452.76 686.669 452.76C677.469 452.76 669.989 460.24 669.989 469.44V509.31H669.999Z" fill="#094A70"/>
  <path d="M706.969 513.46H666.37C666.08 513.46 665.85 513.23 665.85 512.94V469.44C665.85 457.96 675.189 448.62 686.669 448.62C698.149 448.62 707.49 457.96 707.49 469.44V512.94C707.49 513.23 707.259 513.46 706.969 513.46ZM666.89 512.42H706.459V469.44C706.459 458.53 697.579 449.66 686.679 449.66C675.779 449.66 666.9 458.54 666.9 469.44V512.42H666.89ZM703.35 509.83H670C669.71 509.83 669.479 509.6 669.479 509.31V469.44C669.479 459.96 677.189 452.25 686.669 452.25C696.149 452.25 703.86 459.96 703.86 469.44V509.31C703.86 509.6 703.63 509.83 703.34 509.83H703.35ZM670.51 508.8H702.83V469.45C702.83 460.54 695.579 453.29 686.669 453.29C677.759 453.29 670.51 460.54 670.51 469.45V508.8Z" fill="#094A70"/>
  <path d="M400.169 466.32H119.699V457.15L132.909 431.4H400.159V466.32H400.169ZM123.319 462.7H396.539V435.03H135.119L123.319 458.03V462.7Z" fill="#094A70"/>
  <path d="M400.17 466.84H119.7C119.41 466.84 119.18 466.61 119.18 466.32V457.15C119.18 457.07 119.2 456.99 119.24 456.91L132.45 431.16C132.54 430.99 132.72 430.88 132.91 430.88H400.16C400.45 430.88 400.68 431.11 400.68 431.4V466.32C400.68 466.61 400.45 466.84 400.16 466.84H400.17ZM120.22 465.81H399.65V431.92H133.23L120.22 457.28V465.81ZM396.54 463.22H123.32C123.03 463.22 122.8 462.99 122.8 462.7V458.03C122.8 457.95 122.82 457.87 122.86 457.79L134.66 434.79C134.75 434.62 134.93 434.51 135.12 434.51H396.54C396.83 434.51 397.06 434.74 397.06 435.03V462.7C397.06 462.99 396.83 463.22 396.54 463.22ZM123.84 462.18H396.02V435.54H135.44L123.84 458.15V462.18Z" fill="#094A70"/>
  <path d="M1020.39 466.32H739.92V457.59L740.03 431.4H1007.28L1020.38 457.16V466.33L1020.39 466.32ZM743.55 462.7H1016.77V458.03L1005.07 435.03H743.65L743.55 462.7Z" fill="#094A70"/>
  <path d="M1020.39 466.84H739.92C739.63 466.84 739.4 466.61 739.4 466.32V457.59L739.51 431.4C739.51 431.11 739.74 430.88 740.03 430.88H1007.28C1007.48 430.88 1007.65 430.99 1007.74 431.16L1020.84 456.92C1020.88 456.99 1020.9 457.07 1020.9 457.15V466.32C1020.9 466.61 1020.67 466.84 1020.38 466.84H1020.39ZM740.44 465.81H1019.87V457.28L1006.97 431.92H740.55L740.44 465.81ZM1016.76 463.22H743.54C743.4 463.22 743.27 463.17 743.17 463.07C743.07 462.97 743.02 462.84 743.02 462.7L743.11 435.03C743.11 434.74 743.34 434.51 743.63 434.51H1005.05C1005.25 434.51 1005.42 434.62 1005.51 434.79L1017.21 457.79C1017.25 457.86 1017.27 457.94 1017.27 458.02V462.69C1017.27 462.98 1017.04 463.21 1016.75 463.21L1016.76 463.22ZM744.07 462.18H1016.25V458.15L1004.75 435.54H744.17L744.08 462.18H744.07Z" fill="#094A70"/>
  <path d="M400.169 687.06H132.209V662.61H400.169V687.06ZM135.829 683.44H396.539V666.24H135.829V683.44Z" fill="#094A70"/>
  <path d="M400.169 687.58H132.209C131.919 687.58 131.689 687.35 131.689 687.06V662.61C131.689 662.32 131.919 662.09 132.209 662.09H400.169C400.459 662.09 400.689 662.32 400.689 662.61V687.06C400.689 687.35 400.459 687.58 400.169 687.58ZM132.719 686.54H399.649V663.13H132.719V686.54ZM396.539 683.95H135.829C135.539 683.95 135.309 683.72 135.309 683.43V666.23C135.309 665.94 135.539 665.71 135.829 665.71H396.539C396.829 665.71 397.059 665.94 397.059 666.23V683.43C397.059 683.72 396.829 683.95 396.539 683.95ZM136.349 682.92H396.029V666.76H136.349V682.92Z" fill="#094A70"/>
  <path d="M1007.43 687.06H740.02V662.61H1007.43V687.06ZM743.65 683.44H1003.81V666.24H743.65V683.44Z" fill="#094A70"/>
  <path d="M1007.43 687.58H740.02C739.73 687.58 739.5 687.35 739.5 687.06V662.61C739.5 662.32 739.73 662.09 740.02 662.09H1007.43C1007.72 662.09 1007.95 662.32 1007.95 662.61V687.06C1007.95 687.35 1007.72 687.58 1007.43 687.58ZM740.54 686.54H1006.91V663.13H740.54V686.54ZM1003.81 683.95H743.65C743.36 683.95 743.13 683.72 743.13 683.43V666.23C743.13 665.94 743.36 665.71 743.65 665.71H1003.81C1004.1 665.71 1004.33 665.94 1004.33 666.23V683.43C1004.33 683.72 1004.1 683.95 1003.81 683.95ZM744.17 682.92H1003.29V666.76H744.17V682.92Z" fill="#094A70"/>
  <path d="M526.321 461.92C524.661 461.92 523.291 461.68 522.191 461.21C521.101 460.74 520.271 460.12 519.701 459.36C519.141 458.6 518.841 457.79 518.801 456.92C518.801 456.79 518.851 456.67 518.961 456.56C519.071 456.45 519.201 456.4 519.351 456.4H522.481C522.711 456.4 522.891 456.44 523.011 456.52C523.131 456.6 523.251 456.71 523.351 456.84C523.481 457.09 523.671 457.33 523.911 457.56C524.151 457.79 524.471 457.98 524.851 458.12C525.241 458.26 525.721 458.33 526.301 458.33C527.261 458.33 527.991 458.18 528.481 457.88C528.971 457.58 529.211 457.18 529.211 456.66C529.211 456.3 529.081 455.99 528.811 455.75C528.541 455.51 528.121 455.29 527.531 455.1C526.941 454.91 526.161 454.71 525.181 454.52C523.921 454.25 522.851 453.91 521.961 453.49C521.071 453.07 520.401 452.51 519.931 451.82C519.471 451.13 519.231 450.28 519.231 449.25C519.231 448.22 519.521 447.34 520.091 446.54C520.661 445.74 521.461 445.12 522.491 444.68C523.521 444.23 524.741 444.01 526.141 444.01C527.281 444.01 528.291 444.16 529.161 444.46C530.031 444.76 530.761 445.16 531.361 445.65C531.961 446.15 532.411 446.67 532.711 447.23C533.011 447.79 533.181 448.33 533.201 448.86C533.201 448.99 533.151 449.11 533.051 449.22C532.951 449.33 532.831 449.38 532.681 449.38H529.401C529.221 449.38 529.061 449.35 528.931 449.28C528.801 449.21 528.681 449.11 528.581 448.96C528.481 448.59 528.221 448.28 527.801 448C527.381 447.73 526.831 447.59 526.151 447.59C525.421 447.59 524.851 447.72 524.451 447.98C524.041 448.24 523.841 448.63 523.841 449.16C523.841 449.49 523.951 449.78 524.181 450.03C524.401 450.28 524.781 450.49 525.301 450.68C525.821 450.86 526.541 451.05 527.451 451.25C528.961 451.53 530.181 451.88 531.101 452.31C532.031 452.73 532.711 453.28 533.141 453.95C533.571 454.62 533.791 455.46 533.791 456.47C533.791 457.6 533.471 458.57 532.831 459.39C532.191 460.21 531.311 460.84 530.181 461.27C529.051 461.7 527.761 461.92 526.301 461.92H526.321Z" fill="#094A70"/>
  <path d="M544.661 461.92C543.091 461.92 541.741 461.66 540.621 461.15C539.501 460.64 538.631 459.88 538.011 458.89C537.391 457.9 537.051 456.66 536.981 455.19C536.961 454.51 536.961 453.78 536.961 453C536.961 452.22 536.961 451.48 536.981 450.76C537.051 449.32 537.391 448.1 538.021 447.09C538.651 446.09 539.531 445.32 540.651 444.8C541.781 444.28 543.111 444.02 544.651 444.02C545.741 444.02 546.751 444.16 547.681 444.43C548.611 444.7 549.421 445.1 550.121 445.62C550.821 446.14 551.361 446.77 551.751 447.51C552.141 448.25 552.341 449.08 552.361 450.01C552.381 450.16 552.331 450.28 552.221 450.38C552.111 450.48 551.981 450.53 551.831 450.53H548.471C548.251 450.53 548.091 450.48 547.971 450.39C547.851 450.3 547.751 450.13 547.671 449.88C547.441 449 547.061 448.4 546.541 448.08C546.021 447.76 545.381 447.6 544.611 447.6C543.701 447.6 542.981 447.85 542.451 448.36C541.921 448.87 541.631 449.71 541.581 450.88C541.531 452.24 541.531 453.63 541.581 455.06C541.631 456.24 541.921 457.08 542.451 457.58C542.981 458.09 543.701 458.34 544.611 458.34C545.371 458.34 546.021 458.17 546.551 457.84C547.081 457.51 547.451 456.91 547.671 456.05C547.741 455.8 547.831 455.63 547.961 455.54C548.091 455.45 548.251 455.4 548.471 455.4H551.831C551.981 455.4 552.111 455.45 552.221 455.55C552.331 455.65 552.371 455.77 552.361 455.92C552.341 456.85 552.141 457.68 551.751 458.42C551.361 459.16 550.821 459.79 550.121 460.31C549.421 460.83 548.611 461.23 547.681 461.5C546.751 461.77 545.741 461.91 544.651 461.91L544.661 461.92Z" fill="#094A70"/>
  <path d="M556.841 461.67C556.661 461.67 556.511 461.61 556.391 461.5C556.271 461.38 556.221 461.23 556.221 461.05V444.89C556.221 444.71 556.281 444.56 556.391 444.44C556.501 444.32 556.661 444.27 556.841 444.27H560.051C560.231 444.27 560.381 444.33 560.501 444.44C560.621 444.55 560.671 444.71 560.671 444.89V450.88H566.811V444.89C566.811 444.71 566.871 444.56 566.981 444.44C567.101 444.32 567.251 444.27 567.431 444.27H570.641C570.821 444.27 570.971 444.33 571.091 444.44C571.211 444.56 571.261 444.71 571.261 444.89V461.05C571.261 461.23 571.201 461.38 571.091 461.5C570.981 461.62 570.821 461.67 570.641 461.67H567.431C567.251 461.67 567.101 461.61 566.981 461.5C566.861 461.39 566.811 461.23 566.811 461.05V454.86H560.671V461.05C560.671 461.23 560.611 461.38 560.501 461.5C560.381 461.62 560.231 461.67 560.051 461.67H556.841Z" fill="#094A70"/>
  <path d="M583.09 461.92C581.57 461.92 580.24 461.67 579.11 461.17C577.98 460.67 577.11 459.92 576.48 458.92C575.85 457.92 575.5 456.66 575.44 455.15C575.42 454.44 575.41 453.72 575.41 453.01C575.41 452.3 575.41 451.58 575.44 450.85C575.51 449.36 575.86 448.1 576.5 447.08C577.14 446.06 578.02 445.29 579.15 444.78C580.28 444.27 581.59 444.01 583.1 444.01C584.61 444.01 585.9 444.27 587.04 444.78C588.17 445.29 589.07 446.06 589.71 447.08C590.36 448.1 590.7 449.35 590.75 450.85C590.78 451.58 590.8 452.3 590.8 453.01C590.8 453.72 590.78 454.44 590.75 455.15C590.68 456.66 590.34 457.91 589.71 458.92C589.08 459.92 588.2 460.67 587.07 461.17C585.94 461.67 584.62 461.92 583.09 461.92ZM583.09 458.34C583.97 458.34 584.69 458.07 585.24 457.54C585.8 457.01 586.09 456.17 586.12 455.01C586.15 454.28 586.17 453.59 586.17 452.95C586.17 452.31 586.15 451.63 586.12 450.94C586.09 450.16 585.94 449.53 585.68 449.04C585.42 448.55 585.07 448.19 584.62 447.96C584.17 447.73 583.66 447.61 583.08 447.61C582.5 447.61 582.01 447.73 581.56 447.96C581.11 448.19 580.76 448.55 580.49 449.04C580.22 449.53 580.08 450.16 580.04 450.94C580.02 451.64 580.01 452.31 580.01 452.95C580.01 453.59 580.01 454.28 580.04 455.01C580.09 456.17 580.39 457.01 580.94 457.54C581.49 458.07 582.2 458.34 583.08 458.34H583.09Z" fill="#094A70"/>
  <path d="M602.032 461.92C600.512 461.92 599.182 461.67 598.052 461.17C596.922 460.67 596.052 459.92 595.422 458.92C594.792 457.92 594.442 456.66 594.382 455.15C594.362 454.44 594.352 453.72 594.352 453.01C594.352 452.3 594.352 451.58 594.382 450.85C594.452 449.36 594.802 448.1 595.442 447.08C596.082 446.06 596.962 445.29 598.092 444.78C599.222 444.27 600.532 444.01 602.042 444.01C603.552 444.01 604.842 444.27 605.982 444.78C607.112 445.29 608.012 446.06 608.652 447.08C609.302 448.1 609.642 449.35 609.692 450.85C609.722 451.58 609.742 452.3 609.742 453.01C609.742 453.72 609.722 454.44 609.692 455.15C609.622 456.66 609.282 457.91 608.652 458.92C608.022 459.92 607.142 460.67 606.012 461.17C604.882 461.67 603.562 461.92 602.032 461.92ZM602.032 458.34C602.912 458.34 603.632 458.07 604.182 457.54C604.742 457.01 605.032 456.17 605.062 455.01C605.092 454.28 605.112 453.59 605.112 452.95C605.112 452.31 605.092 451.63 605.062 450.94C605.032 450.16 604.882 449.53 604.622 449.04C604.362 448.55 604.012 448.19 603.562 447.96C603.112 447.73 602.602 447.61 602.022 447.61C601.442 447.61 600.952 447.73 600.502 447.96C600.052 448.19 599.702 448.55 599.432 449.04C599.162 449.53 599.022 450.16 598.982 450.94C598.962 451.64 598.952 452.31 598.952 452.95C598.952 453.59 598.952 454.28 598.982 455.01C599.032 456.17 599.332 457.01 599.882 457.54C600.432 458.07 601.142 458.34 602.022 458.34H602.032Z" fill="#094A70"/>
  <path d="M614.491 461.67C614.311 461.67 614.161 461.61 614.041 461.5C613.921 461.38 613.871 461.23 613.871 461.05V444.89C613.871 444.71 613.931 444.56 614.041 444.44C614.151 444.32 614.311 444.27 614.491 444.27H617.771C617.931 444.27 618.081 444.33 618.201 444.44C618.321 444.56 618.391 444.71 618.391 444.89V457.92H625.901C626.081 457.92 626.241 457.98 626.361 458.11C626.481 458.23 626.551 458.39 626.551 458.57V461.06C626.551 461.24 626.491 461.39 626.361 461.51C626.241 461.63 626.081 461.68 625.901 461.68H614.491V461.67Z" fill="#094A70"/>
</svg>
