<svg xmlns="http://www.w3.org/2000/svg" version="1.1" x="0px" y="0px" viewBox="0 0 160 160" style="enable-background:new 0 0 160 160;">
  <path fill="#0093B2" d="M25.7,75.9c-0.2,0-0.3,0.2-0.3,0.4c-0.2,2.1-0.4,4.2-0.4,6.3s0.2,4.2,0.4,6.3c0,0.2,0.2,0.3,0.3,0.4l6.2,1.5     c0.2,0,0.3,0.2,0.3,0.4c0.5,2.7,1.2,5.2,2.1,7.7c0.1,0.2,0,0.4-0.1,0.5l-4.6,4.5c-0.1,0.1-0.2,0.3-0.1,0.5     c1.7,3.9,3.8,7.5,6.3,10.8c0.1,0.2,0.3,0.2,0.5,0.2l6.1-1.7c0.2,0,0.4,0,0.5,0.1c1.7,2,3.6,3.9,5.7,5.7c0.1,0.1,0.2,0.3,0.1,0.5     l-1.7,6.1c-0.1,0.2,0,0.4,0.2,0.5c3.3,2.5,7,4.7,10.8,6.3c0.2,0.1,0.4,0,0.5-0.1l4.5-4.6c0.1-0.1,0.3-0.2,0.5-0.1     c2.5,0.9,5.1,1.6,7.7,2.1c0.2,0,0.3,0.2,0.4,0.3l1.5,6.2c0,0.2,0.2,0.3,0.4,0.3c2.1,0.2,4.2,0.4,6.3,0.4c2.1,0,4.2-0.2,6.3-0.4     c0.2,0,0.3-0.2,0.4-0.3l1.5-6.2c0-0.2,0.2-0.3,0.4-0.3c2.7-0.5,5.2-1.2,7.7-2.1c0.2-0.1,0.4,0,0.5,0.1l4.5,4.6     c0.1,0.1,0.3,0.2,0.5,0.1c3.9-1.7,7.5-3.8,10.8-6.3c0.2-0.1,0.2-0.3,0.2-0.5l-1.7-6.1c0-0.2,0-0.4,0.1-0.5c2-1.7,3.9-3.6,5.7-5.7     c0.1-0.1,0.3-0.2,0.5-0.1l6.1,1.7c0.2,0.1,0.4,0,0.5-0.2c2.5-3.3,4.7-7,6.3-10.8c0.1-0.2,0-0.4-0.1-0.5l-4.6-4.5     c-0.1-0.1-0.2-0.3-0.1-0.5c0.9-2.5,1.6-5.1,2.1-7.7c0-0.2,0.2-0.3,0.3-0.4l6.2-1.5c0.2,0,0.3-0.2,0.3-0.4     c0.2-2.1,0.4-4.2,0.4-6.3s-0.2-4.2-0.4-6.3c0-0.2-0.2-0.3-0.3-0.4l-6.2-1.5c-0.2,0-0.3-0.2-0.3-0.4c-0.5-2.7-1.2-5.2-2.1-7.7     c-0.1-0.2,0-0.4,0.1-0.5l4.6-4.5c0.1-0.1,0.2-0.3,0.1-0.5c-1.7-3.9-3.8-7.5-6.3-10.8c-0.1-0.2-0.3-0.2-0.5-0.2l-6.1,1.7     c-0.2,0-0.4,0-0.5-0.1c-1.7-2-3.6-3.9-5.7-5.7c-0.1-0.1-0.2-0.3-0.1-0.5l1.7-6.1c0.1-0.2,0-0.4-0.2-0.5c-3.3-2.5-7-4.7-10.8-6.3     c-0.2-0.1-0.4,0-0.5,0.1l-4.5,4.6c-0.1,0.1-0.3,0.2-0.5,0.1c-2.5-0.9-5.1-1.6-7.7-2.1c-0.2,0-0.3-0.2-0.4-0.3l-1.5-6.2     c0-0.2-0.2-0.3-0.4-0.3c-2.1-0.2-4.2-0.4-6.3-0.4c-2.1,0-4.2,0.2-6.3,0.4c-0.2,0-0.3,0.2-0.4,0.3l-1.5,6.2c0,0.2-0.2,0.3-0.4,0.3     c-2.7,0.5-5.2,1.2-7.7,2.1c-0.2,0.1-0.4,0-0.5-0.1l-4.5-4.6c-0.1-0.1-0.3-0.2-0.5-0.1c-3.9,1.7-7.5,3.8-10.8,6.3     c-0.2,0.1-0.2,0.3-0.2,0.5l1.7,6.1c0,0.2,0,0.4-0.1,0.5c-2,1.7-3.9,3.6-5.7,5.7c-0.1,0.1-0.3,0.2-0.5,0.1l-6.1-1.7     c-0.2-0.1-0.4,0-0.5,0.2c-2.5,3.3-4.7,7-6.3,10.8c-0.1,0.2,0,0.4,0.1,0.5l4.6,4.5c0.1,0.1,0.2,0.3,0.1,0.5     c-0.9,2.5-1.6,5.1-2.1,7.7c0,0.2-0.2,0.3-0.3,0.4L25.7,75.9z"/>
  <path fill="#005789" d="M79.6,138.3c-2,0-4.1-0.1-6.4-0.4c-0.7-0.1-1.2-0.6-1.4-1.2l-1.4-5.7c-2.4-0.4-4.7-1.1-7-1.9l-4.1,4.3     c-0.5,0.5-1.2,0.6-1.8,0.4c-3.8-1.6-7.5-3.8-11.1-6.5c-0.5-0.4-0.8-1.1-0.6-1.7l1.6-5.6c-1.8-1.6-3.6-3.3-5.2-5.2l-5.6,1.6     c-0.6,0.2-1.3-0.1-1.7-0.6c-2.6-3.5-4.8-7.3-6.5-11.1c-0.3-0.6-0.1-1.3,0.4-1.8l4.3-4.1c-0.8-2.3-1.4-4.7-1.9-7l-5.7-1.4     c-0.6-0.2-1.1-0.7-1.2-1.4c-0.3-2.4-0.4-4.4-0.4-6.4c0-2,0.1-4.1,0.4-6.4c0.1-0.7,0.6-1.2,1.2-1.4l5.7-1.4c0.4-2.4,1.1-4.7,1.9-7     l-4.3-4.1c-0.5-0.5-0.6-1.2-0.4-1.8c1.7-3.8,3.8-7.5,6.5-11.1c0.4-0.5,1.1-0.8,1.7-0.6l5.6,1.6c1.6-1.8,3.3-3.6,5.2-5.2l-1.6-5.6     c-0.2-0.6,0.1-1.3,0.6-1.7c3.5-2.6,7.3-4.8,11.1-6.5c0.6-0.3,1.3-0.1,1.8,0.4l4.1,4.3c2.3-0.8,4.7-1.4,7-1.9l1.4-5.7     c0.2-0.6,0.7-1.1,1.4-1.2c2.3-0.3,4.4-0.4,6.4-0.4c2,0,4.1,0.1,6.4,0.4c0.7,0.1,1.2,0.6,1.4,1.2l1.4,5.7c2.4,0.4,4.7,1.1,7,1.9     l4.1-4.3c0.5-0.5,1.2-0.6,1.8-0.4c3.8,1.6,7.5,3.8,11.1,6.5c0.5,0.4,0.8,1.1,0.6,1.7l-1.6,5.6c1.8,1.6,3.6,3.3,5.2,5.2l5.6-1.6     c0.6-0.2,1.3,0.1,1.7,0.6c2.6,3.5,4.8,7.3,6.5,11.1c0.3,0.6,0.1,1.3-0.4,1.8l-4.3,4.1c0.8,2.3,1.4,4.7,1.9,7l5.7,1.4     c0.6,0.2,1.1,0.7,1.2,1.4c0.3,2.3,0.4,4.4,0.4,6.4c0,2-0.1,4.1-0.4,6.4c-0.1,0.7-0.6,1.2-1.2,1.4l-5.7,1.4     c-0.4,2.4-1.1,4.7-1.9,7l4.3,4.1c0.5,0.5,0.6,1.2,0.4,1.8c-1.6,3.8-3.8,7.5-6.5,11.1c-0.4,0.5-1.1,0.8-1.7,0.6l-5.6-1.6     c-1.6,1.8-3.3,3.6-5.2,5.2l1.6,5.6c0.2,0.6-0.1,1.3-0.6,1.7c-3.5,2.6-7.3,4.8-11.1,6.5c-0.6,0.3-1.3,0.1-1.8-0.4l-4.1-4.3     c-2.3,0.8-4.7,1.4-7,1.9l-1.4,5.7c-0.2,0.6-0.7,1.1-1.4,1.2C83.7,138.2,81.6,138.3,79.6,138.3z M73.9,135.7     c2.1,0.2,3.9,0.3,5.7,0.3c1.7,0,3.6-0.1,5.7-0.3l1.4-5.7c0.2-0.6,0.6-1.1,1.3-1.2c2.5-0.5,5.1-1.1,7.5-2c0.6-0.2,1.2-0.1,1.7,0.4     l4.1,4.3c3.4-1.5,6.7-3.4,9.8-5.7l-1.6-5.6c-0.2-0.6,0-1.2,0.5-1.6c2-1.7,3.9-3.5,5.5-5.5c0.4-0.5,1-0.7,1.6-0.5l5.6,1.6     c2.3-3.2,4.2-6.5,5.7-9.8l-4.3-4.1c-0.4-0.4-0.6-1.1-0.4-1.7c0.9-2.5,1.6-5,2-7.5c0.1-0.6,0.6-1.1,1.2-1.3l5.7-1.4     c0.2-2.1,0.3-3.9,0.3-5.7c0-1.7-0.1-3.6-0.3-5.7l-5.7-1.4c-0.6-0.2-1.1-0.6-1.2-1.3c-0.5-2.5-1.1-5.1-2-7.5     c-0.2-0.6-0.1-1.2,0.4-1.7l4.3-4.1c-1.5-3.4-3.4-6.7-5.7-9.8l-5.6,1.6c-0.6,0.2-1.2,0-1.6-0.5c-1.7-2-3.5-3.9-5.5-5.5     c-0.5-0.4-0.7-1-0.5-1.6l1.6-5.6c-3.2-2.3-6.5-4.2-9.8-5.7l-4.1,4.3c-0.4,0.4-1.1,0.6-1.7,0.4c-2.5-0.9-5-1.6-7.5-2     c-0.6-0.1-1.1-0.6-1.3-1.2l-1.4-5.7c-2.1-0.2-3.9-0.3-5.7-0.3c-1.7,0-3.6,0.1-5.7,0.3l-1.4,5.7c-0.2,0.6-0.6,1.1-1.3,1.2     c-2.5,0.5-5.1,1.1-7.5,2c-0.6,0.2-1.2,0.1-1.7-0.4l-4.1-4.3c-3.4,1.5-6.7,3.4-9.8,5.7l1.6,5.6c0.2,0.6,0,1.2-0.5,1.6     c-2,1.7-3.9,3.5-5.5,5.5c-0.4,0.5-1,0.7-1.6,0.5L36.4,51c-2.3,3.2-4.2,6.5-5.7,9.8L35,65c0.4,0.4,0.6,1.1,0.4,1.7     c-0.9,2.5-1.6,5-2,7.5c-0.1,0.6-0.6,1.1-1.2,1.3l-5.7,1.4c-0.2,2.1-0.3,3.9-0.3,5.7c0,1.7,0.1,3.6,0.3,5.7l5.7,1.4     c0.6,0.2,1.1,0.6,1.2,1.3c0.5,2.5,1.1,5.1,2,7.5c0.2,0.6,0.1,1.2-0.4,1.7l-4.3,4.1c1.5,3.4,3.4,6.7,5.7,9.8l5.6-1.6     c0.6-0.2,1.2,0,1.6,0.5c1.7,2,3.5,3.9,5.5,5.5c0.5,0.4,0.7,1,0.5,1.6l-1.6,5.6c3.2,2.3,6.5,4.2,9.8,5.7l4.1-4.3     c0.4-0.4,1.1-0.6,1.7-0.4c2.5,0.9,5,1.6,7.5,2c0.6,0.1,1.1,0.6,1.3,1.2L73.9,135.7z M25.7,75.9L25.7,75.9L25.7,75.9z"/>
  <circle fill="#FFFFFF" cx="79.6" cy="82.5" r="39.5"/>
  <path fill="#005789" d="M79.6,123.2C57.2,123.2,39,105,39,82.5s18.2-40.7,40.7-40.7s40.7,18.2,40.7,40.7S102.1,123.2,79.6,123.2z      M79.6,44.1c-21.2,0-38.4,17.2-38.4,38.4S58.5,121,79.6,121c21.2,0,38.4-17.2,38.4-38.4S100.8,44.1,79.6,44.1z"/>
  <circle fill="#0093B2" cx="79.6" cy="82.5" r="25.9"/>
  <path fill="#005789" d="M79.6,109.6c-14.9,0-27-12.1-27-27c0-14.9,12.1-27,27-27c14.9,0,27,12.1,27,27     C106.7,97.5,94.5,109.6,79.6,109.6z M79.6,57.8c-13.7,0-24.8,11.1-24.8,24.8s11.1,24.8,24.8,24.8s24.8-11.1,24.8-24.8     S93.3,57.8,79.6,57.8z"/>
  <path fill="#FFFFFF" d="M90,89.3c0-5.8-5.7-7.6-9.8-8.9c-3.6-1.1-5.8-1.9-5.8-3.5c0-1.4,0-4,5.1-4c4.7,0,5.2,3.4,5.2,4.1    c0.1,1.2,1.1,2.2,2.4,2.1c1.2-0.1,2.2-1.1,2.2-2.4c-0.1-2.6-1.9-7.2-7.5-8.2v-2.2c0-1.3-1-2.3-2.3-2.3s-2.3,1-2.3,2.3v2.2    c-4.7,0.7-7.4,3.6-7.4,8.3c0,5,5,6.6,9,7.9c4.1,1.3,6.6,2.3,6.6,4.6c0,3.3-5.9,3.4-5.9,3.4c-0.1,0-6-0.2-6-4c0-1.3-1-2.3-2.3-2.3    s-2.3,1-2.3,2.3c0,5.2,4.4,7.6,8.3,8.3v2.3c0,1.3,1,2.3,2.3,2.3s2.3-1,2.3-2.3v-2.2C85.4,96.5,90,94.4,90,89.3z"/>
  <path fill="#005789" d="M79.5,102.3c-1.6,0-2.9-1.3-2.9-2.9v-1.7c-4.1-0.9-8.3-3.7-8.3-8.9c0-1.6,1.3-2.9,2.9-2.9s2.9,1.3,2.9,2.9    c0,3.1,5.3,3.3,5.3,3.3c0,0,5.2-0.2,5.2-2.8c0-1.7-1.8-2.5-6.1-3.9c-4-1.3-9.5-3-9.5-8.5c0-4.8,2.7-8,7.4-8.9v-1.6    c0-1.6,1.3-2.9,2.9-2.9s2.9,1.3,2.9,2.9V68c5.6,1.3,7.4,6,7.5,8.7c0,0.8-0.2,1.5-0.8,2.1c-0.5,0.6-1.3,0.9-2,1    c-1.6,0.1-3-1.2-3.1-2.8c-0.1-0.8-0.6-3.5-4.6-3.5c-4.5,0-4.5,1.9-4.5,3.3c0,1.1,2.2,1.9,5.3,2.9c4.1,1.3,10.3,3.2,10.3,9.5    c0,4.3-3.1,7.3-8.2,8.3v1.7C82.5,100.9,81.2,102.3,79.5,102.3z M71.3,87.1c-0.9,0-1.6,0.7-1.6,1.6c0,4.6,4,7,7.7,7.7    c0.3,0.1,0.6,0.3,0.6,0.7v2.3c0,0.9,0.7,1.6,1.6,1.6c0.9,0,1.6-0.7,1.6-1.6v-2.2c0-0.3,0.2-0.6,0.6-0.7c2.3-0.4,7.6-1.8,7.6-7.1    c0-5.3-5.2-6.9-9.3-8.2c-3.4-1.1-6.3-2-6.3-4.2c0-1.4,0-4.6,5.8-4.6c4.1,0,5.8,2.5,5.9,4.7c0.1,0.9,0.8,1.5,1.7,1.5    c0.4,0,0.8-0.2,1.1-0.5c0.3-0.3,0.4-0.7,0.4-1.1c-0.1-2.4-1.7-6.6-6.9-7.6c-0.3-0.1-0.6-0.3-0.6-0.7v-2.2c0-0.9-0.7-1.6-1.6-1.6    c-0.9,0-1.6,0.7-1.6,1.6v2.2c0,0.3-0.2,0.6-0.6,0.7c-4.4,0.6-6.8,3.4-6.8,7.7c0,4.5,4.5,5.9,8.5,7.2c3.6,1.1,7.1,2.2,7.1,5.2    c0,4-6.5,4.1-6.6,4.1c0,0-1.6,0-3.3-0.6c-2.8-1-3.4-2.8-3.4-4.1C72.8,87.8,72.1,87.1,71.3,87.1z"/>
  <path fill="#6EBD45" d="M140.6,125.5c-0.9-0.7-2.2-0.5-2.8,0.4c-13.6,18.4-35.4,29.4-58.2,29.4c-20.8,0-40.1-8.6-53.8-23.9l4.1,1.3     c1.1,0.3,2.2-0.2,2.6-1.3c0.3-1.1-0.2-2.2-1.3-2.6l-10.7-3.5c-0.1,0-0.2-0.1-0.3-0.1c0,0,0,0-0.1,0c-0.1,0-0.2,0-0.4,0     c0,0,0,0,0,0c-0.1,0-0.2,0-0.3,0c0,0,0,0-0.1,0c-0.1,0-0.2,0.1-0.3,0.1c0,0,0,0-0.1,0c-0.1,0.1-0.2,0.1-0.3,0.2     c-0.1,0.1-0.2,0.2-0.3,0.2c0,0,0,0,0,0.1c-0.1,0.1-0.1,0.2-0.2,0.3c0,0,0,0,0,0.1c-0.1,0.1-0.1,0.2-0.1,0.3c0,0,0,0,0,0     c0,0.1-0.1,0.2-0.1,0.3c0,0,0,0,0,0.1c0,0.1,0,0.2,0,0.3l0.3,11.3c0,1.1,0.9,2,2,2c0,0,0,0,0,0c1.1,0,2-1,2-2.1l-0.1-5.3     c6.4,7.3,14.1,13.3,22.7,17.7c10.9,5.6,22.6,8.4,34.9,8.4c12.3,0,24.1-2.8,35-8.5c10.4-5.3,19.6-13.1,26.5-22.6     C141.7,127.4,141.5,126.1,140.6,125.5z"/>
  <path fill="#005789" d="M79.5,160c-12.4,0-24.2-2.9-35.2-8.5c-8-4.1-15.5-9.8-21.7-16.5l0.1,3.5c0,0.7-0.2,1.4-0.8,1.9     c-0.5,0.5-1.2,0.8-1.9,0.8l-0.1,0c-1.5,0-2.7-1.2-2.7-2.7L17,127.3c0-0.1,0-0.3,0-0.4l0-0.1c0-0.2,0.1-0.3,0.1-0.5c0,0,0,0,0-0.1     c0-0.1,0.1-0.2,0.2-0.4l0.1-0.1c0.1-0.1,0.2-0.3,0.3-0.4l0.1-0.1c0.1-0.1,0.3-0.3,0.4-0.3c0.1-0.1,0.3-0.2,0.4-0.3l0.1,0     c0.1-0.1,0.3-0.1,0.4-0.2l0.1,0c0.2,0,0.3-0.1,0.5-0.1c0,0,0,0,0,0c0.1,0,0.3,0,0.5,0l0.1,0c0.2,0,0.3,0.1,0.4,0.1l10.7,3.5     c0.7,0.2,1.3,0.7,1.6,1.4c0.3,0.6,0.4,1.4,0.2,2.1c-0.5,1.4-2,2.2-3.4,1.7l-1.6-0.5c13.6,14.1,31.7,21.8,51.5,21.8     c22.6,0,44.2-10.9,57.7-29.1c0.4-0.6,1.1-1,1.8-1.1c0.7-0.1,1.4,0.1,2,0.5c1.2,0.9,1.5,2.6,0.6,3.8c-7,9.5-16.3,17.4-26.8,22.8     C103.8,157.1,91.9,160,79.5,160z M21.9,132.5c0.2,0,0.4,0.1,0.5,0.2c6.3,7.2,14.1,13.3,22.5,17.6c10.8,5.5,22.4,8.3,34.6,8.3     c12.2,0,23.9-2.8,34.7-8.4c10.3-5.3,19.4-13,26.3-22.4c0.4-0.6,0.3-1.5-0.3-1.9c0,0,0,0,0,0c-0.3-0.2-0.6-0.3-1-0.3     c-0.4,0.1-0.7,0.2-0.9,0.5c-13.7,18.6-35.7,29.6-58.8,29.6c-21,0-40.3-8.6-54.3-24.1c-0.2-0.2-0.2-0.6-0.1-0.8     c0.2-0.3,0.5-0.4,0.8-0.3L30,132c0.7,0.2,1.5-0.2,1.7-0.9c0.1-0.3,0.1-0.7-0.1-1c-0.2-0.3-0.4-0.6-0.8-0.7L20.2,126     c-0.1,0-0.1,0-0.2,0c0,0,0,0,0,0c-0.1,0-0.1,0-0.2,0c0,0,0,0,0,0c0,0-0.1,0-0.2,0l-0.2-0.6l0.2,0.7c-0.1,0-0.1,0-0.2,0.1     c-0.1,0.1-0.2,0.1-0.3,0.1c-0.1,0-0.1,0.1-0.2,0.2l-0.5-0.4l0.5,0.5c0,0.1-0.1,0.1-0.1,0.2c0,0,0,0,0,0c0,0.1-0.1,0.1-0.1,0.2     c0,0,0,0,0,0c0,0.1,0,0.1,0,0.2c0,0,0,0,0,0c0,0.1,0,0.1,0,0.2l0.3,11.3c0,0.7,0.6,1.3,1.4,1.3c0.4,0,0.7-0.2,1-0.4     c0.3-0.3,0.4-0.6,0.4-1l-0.1-5.3c0-0.3,0.2-0.5,0.4-0.6C21.8,132.5,21.8,132.5,21.9,132.5z"/>
  <path fill="#FC8B27" d="M7.1,82.8c0-35.5,26-65.6,60.3-71.4l-3.3,2.7c-0.9,0.7-1,2-0.3,2.9c0.4,0.5,1,0.7,1.6,0.7     c0.5,0,0.9-0.2,1.3-0.5l8.7-7.2c0.1-0.1,0.2-0.1,0.2-0.2c0,0,0,0,0-0.1c0.1-0.1,0.1-0.2,0.2-0.3c0,0,0,0,0,0     C75.9,9.5,76,9.4,76,9.3c0,0,0,0,0-0.1c0-0.1,0.1-0.2,0.1-0.3c0,0,0,0,0-0.1c0-0.1,0-0.2,0-0.4c0-0.1,0-0.2-0.1-0.4     c0,0,0,0,0-0.1c0-0.1-0.1-0.2-0.1-0.3c0,0,0-0.1,0-0.1c0-0.1-0.1-0.2-0.2-0.3c0,0,0,0,0,0c-0.1-0.1-0.1-0.2-0.2-0.2     c0,0-0.1,0-0.1-0.1c-0.1-0.1-0.2-0.1-0.2-0.2l0,0c0,0,0,0,0,0L65.5,1c-1-0.6-2.2-0.3-2.8,0.7c-0.6,1-0.3,2.2,0.7,2.8l4.5,2.7     C51,9.8,35.4,17.9,23.6,30.6C10.3,44.8,3,63.4,3,82.8c0,12.9,3.3,25.6,9.4,36.8c0.4,0.7,1.1,1.1,1.8,1.1c0.3,0,0.7-0.1,1-0.3     c1-0.5,1.3-1.8,0.8-2.8C10.2,107.1,7.1,95,7.1,82.8z"/>
  <path fill="#005789" d="M14.2,121.4c-1,0-1.9-0.5-2.4-1.4c-6.2-11.3-9.5-24.2-9.5-37.2c0-19.6,7.4-38.4,20.8-52.7     C34.5,18,49.7,9.7,66,6.8L63,5c-0.6-0.4-1.1-1-1.2-1.7s-0.1-1.4,0.3-2.1c0.4-0.6,1-1.1,1.7-1.2c0.7-0.2,1.4-0.1,2.1,0.3l9.6,5.8     l-0.3,0.6l0.4-0.6c0.1,0.1,0.2,0.1,0.3,0.2c0,0,0.1,0.1,0.1,0.1c0.1,0.1,0.2,0.2,0.3,0.3c0,0,0,0,0,0c0.1,0.1,0.2,0.2,0.2,0.4     c0,0,0,0.1,0.1,0.1c0.1,0.1,0.1,0.3,0.2,0.4c0,0,0,0.1,0,0.1c0,0.2,0.1,0.3,0.1,0.5c0,0.2,0,0.3,0,0.5l0,0.1     c0,0.1-0.1,0.3-0.1,0.4l0,0.1c-0.1,0.2-0.1,0.3-0.2,0.4c-0.1,0.1-0.2,0.3-0.3,0.4l-0.1,0.1c-0.1,0.1-0.2,0.2-0.3,0.3l-8.7,7.2     c-0.5,0.4-1.1,0.6-1.7,0.6c-0.8,0-1.6-0.4-2.1-1c-0.5-0.6-0.7-1.3-0.6-2c0.1-0.7,0.4-1.4,1-1.8l1.3-1.1     c-15.5,3.2-29.7,11.6-40.1,23.9c-11,13-17.1,29.5-17.1,46.4c0,12.1,3.1,24,8.9,34.6c0.3,0.6,0.4,1.4,0.2,2.1     c-0.2,0.7-0.7,1.3-1.3,1.6C15.1,121.3,14.7,121.4,14.2,121.4z M64.5,1.4c-0.1,0-0.2,0-0.3,0c-0.4,0.1-0.6,0.3-0.8,0.6     c-0.2,0.3-0.2,0.7-0.2,1c0.1,0.4,0.3,0.6,0.6,0.8l4.5,2.7c0.2,0.1,0.4,0.4,0.3,0.7c-0.1,0.3-0.3,0.5-0.6,0.5     c-16.7,2.5-32.3,10.8-43.9,23.2C10.9,45.2,3.7,63.5,3.7,82.8c0,12.8,3.2,25.4,9.4,36.5c0.2,0.4,0.7,0.7,1.2,0.7     c0.2,0,0.5-0.1,0.7-0.2c0.3-0.2,0.5-0.5,0.6-0.8c0.1-0.3,0.1-0.7-0.1-1c-5.9-10.7-9-22.9-9-35.2c0-17.3,6.2-34,17.5-47.3     c11.2-13.2,26.6-22,43.5-24.8c0.3-0.1,0.6,0.1,0.7,0.4c0.1,0.3,0.1,0.6-0.2,0.8l-3.3,2.7c-0.3,0.2-0.5,0.6-0.5,0.9     c0,0.4,0.1,0.7,0.3,1c0.5,0.6,1.3,0.6,1.9,0.2L75,9.6c0.1,0,0.1-0.1,0.1-0.1c0,0,0,0,0,0c0-0.1,0.1-0.1,0.1-0.2c0,0,0,0,0,0     c0-0.1,0.1-0.1,0.1-0.2L76,9.2L75.4,9c0-0.1,0-0.1,0.1-0.2c0,0,0,0,0,0c0-0.1,0-0.2,0-0.2c0-0.1,0-0.1,0-0.2L76,8l-0.7,0.2     c0-0.1,0-0.1-0.1-0.2c0,0,0,0,0,0c0-0.1-0.1-0.1-0.1-0.2c-0.1-0.1-0.1-0.1-0.2-0.2l-0.1,0c0,0-0.1-0.1-0.2-0.1c0,0,0,0,0,0     l-9.6-5.8C64.9,1.4,64.7,1.4,64.5,1.4z"/>
  <path fill="#FCCD28" d="M156.8,112.8c-0.5-1-1.7-1.4-2.7-0.9l-4.8,2.3c4.4-9.8,6.7-20.5,6.7-31.3c0-19.5-7.3-38-20.6-52.2     C122.2,16.5,104.3,7.9,85,6.5c-1.1-0.1-2.1,0.8-2.2,1.9c-0.1,1.1,0.8,2.1,1.9,2.2c37.7,2.7,67.2,34.4,67.2,72.2     c0,9.8-2,19.6-5.9,28.6l-0.5-4.3c-0.1-1.1-1.1-1.9-2.3-1.8c-1.1,0.1-1.9,1.1-1.8,2.3l1.3,11.2c0,0.1,0,0.2,0.1,0.3c0,0,0,0,0,0.1     c0,0.1,0.1,0.2,0.1,0.3c0,0,0,0,0,0c0.1,0.1,0.1,0.2,0.2,0.3c0,0,0,0,0,0.1c0.1,0.1,0.1,0.2,0.2,0.2c0,0,0,0,0.1,0     c0.1,0.1,0.2,0.1,0.3,0.2c0,0,0,0,0,0c0.3,0.2,0.6,0.3,1,0.3c0,0,0,0,0,0c0.1,0,0.1,0,0.2,0c0,0,0.1,0,0.1,0c0.1,0,0.1,0,0.2,0     c0,0,0.1,0,0.1,0c0,0,0.1,0,0.1,0c0,0,0.1,0,0.1,0c0,0,0,0,0.1,0l10.1-4.9C156.9,115,157.3,113.8,156.8,112.8z"/>
  <path fill="#005789" d="M144.8,121.3c-0.5,0-0.9-0.1-1.3-0.3c0,0,0,0,0,0c-0.1-0.1-0.2-0.1-0.4-0.3c0,0-0.1,0-0.1-0.1     c-0.1-0.1-0.2-0.2-0.3-0.3c0,0,0,0-0.1-0.1c-0.1-0.1-0.2-0.3-0.2-0.4c-0.1-0.1-0.1-0.3-0.2-0.4l0-0.1c0-0.1-0.1-0.3-0.1-0.4     l-1.3-11.2c-0.1-0.7,0.1-1.4,0.6-2c0.5-0.6,1.1-0.9,1.8-1c0.7-0.1,1.4,0.1,2,0.6c0.6,0.5,0.9,1.1,1,1.8l0.2,1.6     c3.2-8.2,4.8-17.1,4.8-25.9c0-37.5-29.2-68.9-66.5-71.6c-0.7-0.1-1.4-0.4-1.9-0.9c-0.5-0.5-0.7-1.2-0.7-2     c0.1-0.7,0.4-1.4,0.9-1.9c0.5-0.5,1.2-0.7,2-0.7c19.4,1.4,37.5,10,50.8,24.3c13.4,14.3,20.8,33.1,20.8,52.7     c0,10.2-2.1,20.5-6,29.9l3.1-1.5c0.6-0.3,1.4-0.4,2.1-0.1c0.7,0.2,1.2,0.7,1.6,1.4c0,0,0,0,0,0c0.3,0.7,0.4,1.4,0.1,2.1     c-0.2,0.7-0.7,1.2-1.4,1.6L146,121c0,0-0.1,0-0.1,0c0,0-0.1,0-0.1,0.1c-0.1,0-0.1,0-0.2,0.1c-0.1,0-0.1,0-0.1,0     c-0.1,0-0.1,0-0.2,0c0,0-0.1,0-0.1,0C145.1,121.3,145,121.3,144.8,121.3C144.8,121.3,144.8,121.3,144.8,121.3z M144.2,119.8     c0.2,0.1,0.4,0.1,0.6,0.2c0,0,0,0,0,0c0,0,0.1,0,0.1,0c0,0,0.1,0,0.1,0c0,0,0.1,0,0.1,0c0,0,0.1,0,0.1,0c0,0,0.1,0,0.1,0l0.1,0     c0,0,0,0,0.1,0l10.1-4.9c0.7-0.3,1-1.1,0.6-1.8c-0.2-0.3-0.4-0.6-0.8-0.7c-0.3-0.1-0.7-0.1-1,0.1l-4.8,2.3     c-0.3,0.1-0.6,0.1-0.8-0.1c-0.2-0.2-0.3-0.5-0.1-0.8c4.3-9.7,6.6-20.4,6.6-31c0-19.3-7.3-37.7-20.4-51.8     C121.8,17,104.1,8.6,85,7.2c-0.4,0-0.7,0.1-1,0.3c-0.3,0.2-0.4,0.6-0.5,0.9s0.1,0.7,0.3,1c0.2,0.3,0.6,0.4,0.9,0.5     c38,2.7,67.8,34.7,67.8,72.9c0,9.8-2,19.8-5.9,28.9c-0.1,0.3-0.4,0.4-0.7,0.4c-0.3,0-0.5-0.3-0.6-0.6l-0.5-4.3     c0-0.4-0.2-0.7-0.5-0.9c-0.3-0.2-0.6-0.3-1-0.3c-0.4,0-0.7,0.2-0.9,0.5c-0.2,0.3-0.3,0.6-0.3,1l1.3,11.2c0,0.1,0,0.1,0,0.2     c0,0,0,0,0,0c0,0.1,0,0.1,0.1,0.2c0,0,0,0,0,0c0,0.1,0.1,0.1,0.1,0.2l0,0c0,0.1,0.1,0.1,0.2,0.2c0,0,0,0,0,0     C144,119.7,144.1,119.7,144.2,119.8C144.2,119.8,144.2,119.8,144.2,119.8z"/>
</svg>
