<svg xmlns="http://www.w3.org/2000/svg" version="1.1" x="0px" y="0px" viewBox="0 0 170.4 168.9" style="enable-background:new 0 0 170.4 168.9;">
  <path fill="#0B7A91" d="M118.4,168.9H52c-0.9,0-1.6-0.7-1.6-1.6c0-0.9,0.7-1.6,1.6-1.6h66.4c0.9,0,1.6,0.7,1.6,1.6    C120.1,168.2,119.3,168.9,118.4,168.9z"/>
  <path fill="#0B7A91" d="M104.6,168.9c-0.7,0-1.3-0.4-1.5-1.1l-8.3-21.7c-0.3-0.9,0.1-1.8,0.9-2.1c0.8-0.3,1.8,0.1,2.1,0.9l8.3,21.7    c0.3,0.9-0.1,1.8-0.9,2.1C104.9,168.9,104.8,168.9,104.6,168.9z"/>
  <path fill="#0B7A91" d="M65.8,168.9c0,0-0.4,0-0.6-0.1c-0.9-0.3-1.3-1.3-0.9-2.1l8.3-21.7c0.3-0.9,1.3-1.3,2.1-0.9    c0.9,0.3,1.3,1.3,0.9,2.1l-8.3,21.7C67.1,168.5,66.5,168.9,65.8,168.9z"/>
  <path fill="#1EAFCB" d="M159.9,141.8H10.5c-5.8,0-10.5-4.7-10.5-10.5V26.2c0-5.8,4.7-10.5,10.5-10.5h5.3c1.2,0,2.2,1,2.2,2.2    c0,1.2-1,2.2-2.2,2.2h-5.3c-3.4,0-6.1,2.8-6.1,6.1v105.2c0,3.4,2.8,6.1,6.1,6.1h149.4c3.4,0,6.1-2.8,6.1-6.1V26.2    c0-3.4-2.8-6.1-6.1-6.1h-6.1c-1.2,0-2.2-1-2.2-2.2c0-1.2,1-2.2,2.2-2.2h6.1c5.8,0,10.5,4.7,10.5,10.5v105.2    C170.4,137.1,165.7,141.8,159.9,141.8z"/>
  <path fill="#0B7A91" d="M159.7,124.7H10.7c-0.9,0-1.6-0.7-1.6-1.6c0-0.9,0.7-1.6,1.6-1.6h148.9c0.9,0,1.6,0.7,1.6,1.6    C161.3,123.9,160.6,124.7,159.7,124.7z"/>
  <path fill="#1EAFCB" d="M142,108.7H28.4c-3.8,0-6.9-3.1-6.9-6.9v-95c0-3.8,3.1-6.9,6.9-6.9H142c3.8,0,6.9,3.1,6.9,6.9v95.1    C148.9,105.7,145.8,108.8,142,108.7L142,108.7z M28.4,4.4c-1.4,0-2.5,1.1-2.5,2.5v95.1c0,1.4,1.1,2.5,2.5,2.5H142    c1.4,0,2.5-1.1,2.5-2.5v-95c0-1.4-1.1-2.5-2.5-2.5L28.4,4.4L28.4,4.4z"/>
  <path fill="#0B7A91" d="M133.3,100.2H37.1c-3.1,0-5.6-2.5-5.6-5.6V14.1c0-3.1,2.5-5.6,5.6-5.6h96.1c3.1,0,5.6,2.5,5.6,5.6v80.4    C138.9,97.6,136.3,100.2,133.3,100.2L133.3,100.2z M37.1,11.8c-1.3,0-2.3,1-2.3,2.3v80.4c0,1.3,1,2.3,2.3,2.3h96.1    c1.3,0,2.3-1,2.3-2.3V14.1c0-1.3-1-2.3-2.3-2.3H37.1z"/>
  <path fill="#1EAFCB" d="M125.3,32.3c0,0-0.1,0-0.2,0c-26.5-2.5-53.4-2.5-79.9,0c-1.2,0.1-2.3-0.8-2.4-2c-0.1-1.2,0.8-2.3,2-2.4    c26.8-2.6,53.9-2.6,80.7,0c1.2,0.1,2.1,1.2,2,2.4C127.4,31.5,126.4,32.3,125.3,32.3z"/>
  <path fill="#0B7A91" d="M122.3,43.8H48.1c-0.9,0-1.6-0.7-1.6-1.6c0-0.9,0.7-1.6,1.6-1.6h74.1c0.9,0,1.6,0.7,1.6,1.6    C123.9,43.1,123.1,43.8,122.3,43.8L122.3,43.8z"/>
  <path fill="#0B7A91" d="M122.3,79.9h-16.8c-0.9,0-1.6-0.7-1.6-1.6c0-0.9,0.7-1.6,1.6-1.6h16.8c0.9,0,1.6,0.7,1.6,1.6    C123.9,79.2,123.2,79.9,122.3,79.9z"/>
  <path fill="#0B7A91" d="M64.9,79.9H48.1c-0.9,0-1.6-0.7-1.6-1.6c0-0.9,0.7-1.6,1.6-1.6h16.8c0.9,0,1.6,0.7,1.6,1.6    C66.6,79.2,65.8,79.9,64.9,79.9z"/>
  <path fill="#0B7A91" d="M122.3,51.6H48.1c-0.9,0-1.6-0.7-1.6-1.6s0.7-1.6,1.6-1.6h74.1c0.9,0,1.6,0.7,1.6,1.6S123.1,51.6,122.3,51.6    L122.3,51.6z"/>
  <path fill="#0B7A91" d="M122.3,59.4H48.1c-0.9,0-1.6-0.7-1.6-1.6c0-0.9,0.7-1.6,1.6-1.6h74.1c0.9,0,1.6,0.7,1.6,1.6    C123.9,58.6,123.1,59.4,122.3,59.4L122.3,59.4z"/>
  <path fill="#0B7A91" d="M85.2,93.3c-1.9,0-3.2-1.2-3.9-1.9c0,0,0,0-0.1-0.1c0,0-0.1,0-0.2,0c-1,0.1-2.7,0.4-4.2-0.7    c-1.5-1.1-1.8-2.8-2-3.8c0,0,0-0.1,0-0.2c0,0-0.1,0-0.1-0.1c-0.9-0.5-2.4-1.3-3-3.1c-0.1-0.4-0.2-0.9-0.2-1.3    c0-1.2,0.5-2.2,0.8-2.9c0,0,0-0.1,0.1-0.2c0-0.1-0.1-0.2-0.1-0.2c-0.3-0.7-0.8-1.7-0.8-2.9c0-0.5,0.1-0.9,0.2-1.3    c0.6-1.8,2.1-2.6,3-3.1c0,0,0.1,0,0.1-0.1c0,0,0-0.1,0-0.2c0.2-1,0.5-2.7,2-3.8c1.5-1.1,3.2-0.9,4.2-0.7c0,0,0.1,0,0.2,0    c0,0,0,0,0.1-0.1c0.7-0.7,2-1.9,3.9-1.9c1.9,0,3.2,1.2,3.9,1.9c0,0,0.1,0,0.1,0.1c0,0,0.1,0,0.2,0c1-0.1,2.7-0.4,4.2,0.7    c1.5,1.1,1.8,2.8,2,3.8c0,0,0,0.1,0,0.2c0,0,0.1,0,0.1,0.1c0.9,0.5,2.4,1.3,3,3.1c0.1,0.4,0.2,0.9,0.2,1.3c0,1.2-0.5,2.2-0.8,2.9    c0,0-0.1,0.1-0.1,0.2c0,0.1,0.1,0.2,0.1,0.2c0.3,0.7,0.8,1.7,0.8,2.9c0,0.5-0.1,0.9-0.2,1.3c-0.6,1.8-2.1,2.6-3,3.1    c0,0-0.1,0-0.1,0.1c0,0,0,0.1,0,0.2c-0.2,1-0.5,2.7-2,3.8c-1.5,1.1-3.2,0.9-4.2,0.7c0,0-0.1,0-0.2,0l-0.1,0.1    C88.4,92.1,87.1,93.3,85.2,93.3L85.2,93.3z M81.6,88c0.2,0,0.4,0,0.6,0.1c0.1,0,0.1,0,0.2,0.1c0.4,0.2,0.6,0.4,1.2,0.9    c0.6,0.6,1.1,1,1.6,1c0.6,0,1-0.4,1.6-1c0.5-0.5,0.8-0.7,1.2-0.9c0.1,0,0.1,0,0.2-0.1c0.4-0.1,0.8-0.1,1.6,0    c0.9,0.1,1.4,0.2,1.9-0.1c0.4-0.3,0.5-0.9,0.7-1.7c0.1-0.8,0.2-1.2,0.5-1.5c0-0.1,0.1-0.1,0.1-0.2c0.3-0.3,0.7-0.5,1.2-0.9    c0.7-0.4,1.3-0.7,1.4-1.2c0-0.1,0-0.2,0-0.3c0-0.5-0.2-0.9-0.5-1.4c-0.4-0.7-0.5-1.2-0.5-1.6c0-0.5,0.2-1,0.5-1.6    c0.2-0.5,0.5-1,0.5-1.5c0-0.1,0-0.2,0-0.3c-0.2-0.5-0.7-0.8-1.4-1.2c-0.7-0.4-1-0.6-1.2-0.9c0,0-0.1-0.1-0.1-0.2    c-0.2-0.4-0.3-0.8-0.5-1.5c-0.2-0.9-0.3-1.4-0.7-1.8c-0.4-0.3-1-0.2-1.9-0.1c-0.8,0.1-1.2,0.1-1.6,0c-0.1,0-0.2,0-0.2-0.1    c-0.4-0.2-0.7-0.4-1.2-0.9c-0.6-0.6-1.1-1-1.6-1c-0.6,0-1,0.4-1.6,1c-0.5,0.5-0.8,0.7-1.2,0.9c-0.1,0-0.2,0-0.2,0.1    c-0.4,0.1-0.8,0.1-1.6,0c-0.9-0.1-1.4-0.2-1.9,0.1c-0.4,0.3-0.6,0.9-0.7,1.7c-0.1,0.8-0.2,1.2-0.5,1.5c0,0.1-0.1,0.1-0.1,0.2    c-0.2,0.3-0.6,0.5-1.2,0.9c-0.8,0.4-1.3,0.7-1.5,1.2c0,0.1,0,0.2,0,0.3c0,0.5,0.2,0.9,0.5,1.5c0.4,0.7,0.5,1.2,0.5,1.6    c0,0.5-0.2,1-0.5,1.6c-0.2,0.5-0.5,1-0.5,1.5c0,0.1,0,0.2,0,0.3c0.2,0.5,0.7,0.8,1.4,1.2c0.7,0.4,1,0.6,1.2,0.9    c0,0,0.1,0.1,0.1,0.2c0.2,0.3,0.3,0.7,0.5,1.5c0.2,0.9,0.3,1.4,0.7,1.7c0.4,0.3,1,0.2,1.9,0.1C81,88.1,81.3,88,81.6,88L81.6,88z"/>
</svg>
