<svg xmlns="http://www.w3.org/2000/svg" version="1.1" x="0px" y="0px" viewBox="0 0 162.6 168.9" style="enable-background:new 0 0 162.6 168.9;">
  <path fill="#1EAFCB" d="M81.3,168.9c-9,0-15.3-6.1-19.4-10.1c-0.7-0.7-2.9-2.8-3.7-3.3c-1-0.1-4.1,0.4-5.2,0.5h-0.1    c-6,0.8-14.2,1.9-21.2-3.2c-7.1-5.2-8.6-13.4-9.6-19.3c-0.2-1.1-0.8-4.2-1.1-5.1c-0.7-0.6-3.4-2-4.4-2.5    C11,122.9,3.6,119,0.9,110.6c-0.6-1.9-0.9-3.9-0.9-6c0-5.8,2.3-10.7,4.4-15v-0.1c0.6-1.1,2-4.1,2.2-5.1c-0.1-0.6-0.8-2.3-2.2-5.1    C2.4,75.1,0,70.1,0,64.4c0-2.1,0.3-4.1,0.9-6C3.7,50,11.1,46,16.5,43.1l0.1-0.1c0.9-0.5,3.6-1.9,4.4-2.5c0.3-0.9,0.9-4,1.1-5.1    c1.1-6,2.6-14.2,9.6-19.3c7-5.1,15.2-4,21.2-3.2c1.1,0.1,4.3,0.6,5.3,0.5c0.8-0.5,2.9-2.5,3.7-3.3C66.3,5.9,72.4,0,81.3,0    c8.9,0,15,5.8,19.4,10.1c1.9,1.9,3.2,3,3.8,3.4c1,0.1,4.1-0.4,5.2-0.5c6-0.8,14.2-1.9,21.3,3.2c7.1,5.2,8.6,13.3,9.6,19.3v0.2    c0.3,1.1,0.8,4.1,1.1,5c0.7,0.6,3.5,2.1,4.4,2.5c5.4,2.9,12.8,6.8,15.5,15.2c0.6,1.9,0.9,3.9,0.9,6c0,5.8-2.3,10.7-4.4,15v0.1    c-0.6,1.1-2,4.1-2.2,5c0.1,0.6,0.8,2.3,2.2,5.1c2.1,4.4,4.5,9.3,4.5,15c0,2.1-0.3,4.1-0.9,6c-2.7,8.4-10.4,12.5-15.5,15.2H146    c-1,0.6-3.6,2-4.4,2.6c-0.3,0.9-0.9,4-1.1,5.1c-1.1,6-2.6,14.2-9.6,19.3c-7,5.1-15.2,4-21.2,3.2h-0.1c-1.1-0.1-4.2-0.6-5.2-0.5    c-0.8,0.5-2.9,2.5-3.7,3.3C96.3,163,90.2,168.9,81.3,168.9L81.3,168.9z M57.9,151.6c0.6,0,1,0,1.4,0.1l0.3,0.1    c1,0.4,2.6,1.8,5.1,4.2c4,3.8,9.3,9,16.7,9c7.4,0,12.3-4.8,16.7-9c2.5-2.5,4-3.8,4.9-4.2l0.3-0.1c1.1-0.3,3.3-0.1,6.9,0.4h0.1    c5.9,0.8,12.7,1.7,18.4-2.5c5.8-4.2,7-10.9,8.1-16.9c0.7-3.6,1.1-5.6,1.7-6.6l0.1-0.2c0.7-0.8,2.5-1.9,5.6-3.6h0.1    c4.8-2.6,11.4-6.1,13.7-13c0.5-1.5,0.7-3.1,0.7-4.8c0-4.9-2.2-9.4-4.1-13.3c-1.6-3.4-2.5-5.5-2.6-6.7v-0.1c0-1.2,0.9-3.2,2.5-6.6    l0.1-0.1c1.9-4,4.1-8.4,4.1-13.3c0-1.6-0.3-3.3-0.7-4.8c-2.2-6.9-8.3-10.1-13.7-13c-3.2-1.7-4.9-2.7-5.6-3.6l-0.1-0.2    c-0.6-1-1.1-2.9-1.7-6.5v-0.2c-1.1-5.9-2.3-12.6-8.1-16.8c-5.8-4.2-12.5-3.3-18.5-2.5c-3.7,0.5-5.8,0.7-6.9,0.4l-0.3-0.1    c-1-0.4-2.6-1.8-5.1-4.2c-4.4-4.2-9.4-9-16.7-9c-7.4,0-12.6,5-16.7,9c-2.6,2.5-4,3.8-5,4.2l-0.3,0.1c-1.2,0.3-3.3,0.1-7-0.4    c-5.9-0.8-12.7-1.7-18.4,2.5c-5.8,4.2-7,10.9-8.1,16.9c-0.7,3.6-1.1,5.6-1.7,6.6L23.9,43c-0.7,0.9-2.5,1.9-5.6,3.6l-0.1,0.1    c-5.3,2.9-11.4,6.1-13.7,13c-0.5,1.5-0.7,3.1-0.7,4.8c0,4.9,2.2,9.4,4.1,13.4c1.6,3.4,2.5,5.5,2.6,6.7v0.1c0,1.2-0.8,3.1-2.5,6.7    v0.1c-1.9,4-4.1,8.4-4.1,13.3c0,1.7,0.3,3.3,0.7,4.8c2.2,6.9,8.3,10.1,13.7,13c3.2,1.7,4.9,2.7,5.6,3.6l0.2,0.2    c0.6,1,1.1,3,1.7,6.6c1.1,5.9,2.3,12.6,8.1,16.9c5.7,4.2,12.5,3.3,18.4,2.5C54.8,151.9,56.6,151.7,57.9,151.6L57.9,151.6z"/>
  <path fill="#0B7A91" d="M113.7,128.8H48.8c-6.6,0-11.9-5.3-11.9-11.9V52c0-6.6,5.3-11.9,11.9-11.9h64.9c6.6,0,11.9,5.3,11.9,11.9    v64.9C125.6,123.5,120.3,128.8,113.7,128.8L113.7,128.8z M48.8,43.1c-4.9,0-9,4-9,9v64.9c0,4.9,4,9,9,9h64.9c4.9,0,9-4,9-9V52    c0-4.9-4-9-9-9H48.8z"/>
  <path fill="#0B7A91" d="M107.8,128.8h-53c-0.8,0-1.5-0.7-1.5-1.5c0-16.9,12.5-30.6,27.9-30.6s28,13.7,28,30.6    C109.2,128.1,108.6,128.8,107.8,128.8z M56.3,125.9h50c-0.7-14.6-11.7-26.3-25.1-26.3S57,111.3,56.3,125.9z"/>
  <path fill="#0B7A91" d="M81.2,94.7c-9.5,0-17.3-7.8-17.3-17.4c0-9.6,7.8-17.4,17.3-17.4c9.5,0,17.4,7.8,17.4,17.4    C98.6,86.9,90.8,94.7,81.2,94.7z M81.2,62.9c-7.9,0-14.4,6.5-14.4,14.5s6.4,14.5,14.4,14.5s14.5-6.5,14.5-14.5    S89.2,62.9,81.2,62.9z"/>
</svg>
