<svg xmlns="http://www.w3.org/2000/svg" version="1.1" x="0px" y="0px" viewBox="0 0 168.9 168.9" style="enable-background:new 0 0 168.9 168.9;">
  <path fill="#0B7A91" d="M84.5,168.9C37.9,168.9,0,131.1,0,84.5S37.9,0,84.5,0s84.5,37.9,84.5,84.5S131.1,168.9,84.5,168.9z M84.5,3.4    C39.7,3.4,3.4,39.7,3.4,84.5s36.4,81.1,81.1,81.1s81.1-36.4,81.1-81.1S129.2,3.4,84.5,3.4z"/>
  <path fill="#0B7A91" d="M157.6,125c-0.6,0-1.2-0.3-1.5-1c-5.3-11-12.8-21.6-22.3-31.3c-0.4-0.4-0.5-0.9-0.5-1.4    c0.1-0.5,0.4-1,0.9-1.2c11.9-6,22.2-13.2,30.6-21.4c0.7-0.6,1.7-0.6,2.4,0c0.6,0.7,0.6,1.7,0,2.4c-8.1,8-18,15-29.4,20.9    c9,9.5,16.2,19.8,21.3,30.5c0.4,0.8,0,1.9-0.8,2.2C158.1,124.9,157.8,124.9,157.6,125L157.6,125z"/>
  <path fill="#0B7A91" d="M40.6,153.3c-1.6,0-3.1,0-4.7-0.1c-0.9,0-1.6-0.8-1.6-1.8c0-0.9,0.8-1.6,1.8-1.6c22.7,1,44-5.4,59.9-18    c0.7-0.6,1.8-0.5,2.4,0.3c0.6,0.7,0.5,1.8-0.3,2.4C82.7,146.7,62.4,153.3,40.6,153.3L40.6,153.3z"/>
  <path fill="#0B7A91" d="M151.4,134.9c-9.6-0.2-19.3-1.6-28.8-4.3c-0.9-0.3-1.4-1.2-1.1-2.1c0.3-0.9,1.2-1.4,2.1-1.1    c9.2,2.6,18.6,4,28,4.2c0.9,0,1.7,0.8,1.6,1.7C153.1,134.2,152.3,134.9,151.4,134.9L151.4,134.9z"/>
  <path fill="#0B7A91" d="M151.4,134.9c-9.6-0.2-19.3-1.6-28.8-4.3c-0.9-0.3-1.4-1.2-1.1-2.1c0.3-0.9,1.2-1.4,2.1-1.1    c9.2,2.6,18.6,4,28,4.2c0.9,0,1.7,0.8,1.6,1.7C153.1,134.2,152.3,134.9,151.4,134.9L151.4,134.9z"/>
  <path fill="#0B7A91" d="M157.6,125c-0.6,0-1.2-0.3-1.5-1c-5.1-10.7-12.3-20.9-21.4-30.4c-3.9,1.9-7.9,3.7-12,5.3    c-1,3.1-2.1,6.1-3.5,8.9c-0.7,1.5-1.5,3-2.3,4.4c-0.5,0.8-1.5,1.1-2.3,0.7c-0.8-0.5-1.1-1.5-0.7-2.3c0.8-1.4,1.5-2.8,2.1-4.2    c1.4-3,2.6-6.1,3.5-9.3c0.2-0.5,0.5-0.9,1-1.1c4.7-1.8,9.3-3.8,13.6-6c0.6-0.3,1.4-0.2,1.9,0.3c9.8,9.9,17.5,20.8,22.9,32.1    c0.4,0.8,0,1.9-0.8,2.2C158,124.9,157.8,125,157.6,125L157.6,125z"/>
  <path fill="#0B7A91" d="M17,134.1c0,0-0.2,0-0.3,0c-0.9-0.2-1.5-1.1-1.3-1.9c1.6-8.4,4.2-16.7,7.8-24.7c-7.3-1.6-14.2-3.8-20.7-6.4    c-0.8-0.3-1.3-1.3-0.9-2.2c0.3-0.8,1.3-1.3,2.2-0.9c6.9,2.8,14.3,5.1,22.2,6.7c0.5,0.1,0.9,0.4,1.2,0.9c0.3,0.5,0.3,1,0,1.5    c-4,8.3-6.8,17-8.4,25.8C18.5,133.6,17.8,134.2,17,134.1L17,134.1z"/>
  <path fill="#0B7A91" d="M17,134.1c0,0-0.2,0-0.3,0c-0.9-0.2-1.5-1.1-1.3-1.9c1.7-9.1,4.6-18,8.7-26.7c0.3-0.7,1.1-1.1,1.9-0.9    c17.4,3.6,36.6,4.1,55.7,1.5c0.5-0.1,0.9,0.1,1.3,0.3c5.1,4.2,10.7,7.9,16.6,11.1c0.8,0.5,1.1,1.5,0.7,2.3    c-0.4,0.8-1.5,1.1-2.3,0.7c-5.9-3.2-11.4-6.9-16.6-11c-18.8,2.5-37.7,2-54.9-1.4c-3.7,8-6.3,16.3-7.8,24.6    C18.5,133.5,17.8,134.1,17,134.1L17,134.1z"/>
  <path fill="#0B7A91" d="M40.6,153.3c-1.6,0-3.1,0-4.7-0.1c-0.9,0-1.6-0.8-1.6-1.8c0-0.9,0.8-1.6,1.8-1.6c22.7,1,44-5.4,59.9-18    c0.7-0.6,1.8-0.5,2.4,0.3c0.6,0.7,0.5,1.8-0.3,2.4C82.7,146.7,62.4,153.3,40.6,153.3L40.6,153.3z"/>
  <path fill="#0B7A91" d="M98.7,120.7c-0.3,0-0.5-0.1-0.8-0.2c-6.1-3.3-11.8-7.2-17.1-11.5c-0.5-0.4-0.8-1.1-0.5-1.8    c0.2-0.7,0.7-1.1,1.4-1.2l0.5-0.1c0.4,0,0.8-0.1,1.1-0.2c13-1.9,25.6-5.2,37.4-9.7c0.6-0.2,1.3-0.1,1.7,0.3    c0.5,0.4,0.6,1.1,0.5,1.7c-1,3.3-2.3,6.6-3.7,9.7c-0.7,1.5-1.5,3-2.3,4.4c-0.5,0.8-1.5,1.1-2.3,0.7c-0.8-0.5-1.1-1.5-0.7-2.3    c0.8-1.4,1.5-2.8,2.1-4.2c0.9-1.9,1.7-4,2.5-6c-10.4,3.7-21.3,6.6-32.6,8.3c4.3,3.2,8.8,6.2,13.6,8.7c0.8,0.5,1.1,1.5,0.7,2.3    C99.9,120.4,99.3,120.7,98.7,120.7z"/>
  <path fill="#0B7A91" d="M114,38.3c-0.6,0-1.2-0.3-1.5-0.9c-7-13.1-17.4-25-30-34.4c-0.8-0.5-0.9-1.6-0.3-2.4c0.5-0.8,1.6-0.9,2.4-0.3    c13.1,9.6,23.8,21.9,31,35.5c0.4,0.8,0.1,1.9-0.7,2.3C114.6,38.3,114.3,38.4,114,38.3L114,38.3z"/>
  <path fill="#0B7A91" d="M135,93.3c-0.4,0-0.9-0.2-1.2-0.5c-3.3-3.4-7-6.7-10.7-9.8c-0.4-0.3-0.6-0.9-0.6-1.4    c0.4-5.9,0.1-11.9-0.9-17.9c-0.2-0.9,0.5-1.8,1.4-1.9c0.9-0.2,1.8,0.5,1.9,1.4c1,6,1.3,12,1,17.9c3.3,2.7,6.4,5.6,9.4,8.6    c11.5-5.9,21.4-12.8,29.5-20.8c0.7-0.6,1.7-0.6,2.4,0c0.6,0.7,0.6,1.7,0,2.4c-8.6,8.4-19.2,15.8-31.4,21.9    C135.5,93.2,135.3,93.3,135,93.3z"/>
  <path fill="#0B7A91" d="M161.2,54.9c-0.3,0-0.6-0.1-0.9-0.3c-8.7-5.3-18.5-8.8-29.1-10.1c-0.9-0.1-1.6-1-1.4-1.9s1-1.6,1.9-1.4    c11.1,1.4,21.3,5,30.5,10.6c0.8,0.5,1.1,1.5,0.5,2.3C162.3,54.6,161.8,54.9,161.2,54.9L161.2,54.9z"/>
  <path fill="#0B7A91" d="M44.9,30.9c0,0-0.1,0-0.2,0c-0.9-0.1-1.6-0.9-1.5-1.8c0.6-7,2.2-13.8,4.7-20.3c0.3-0.8,1.3-1.3,2.2-1    c0.8,0.3,1.3,1.3,1,2.2c-2.4,6.2-3.9,12.7-4.5,19.3C46.5,30.2,45.8,30.9,44.9,30.9z"/>
  <path fill="#0B7A91" d="M10.6,48.7c-0.8,0-1.6-0.6-1.6-1.4c-0.1-0.9,0.5-1.8,1.4-1.9c6.8-1,14-1.3,21.3-1.1c0.9,0,1.6,0.8,1.6,1.7    s-0.8,1.6-1.7,1.6c-7.1-0.2-14.1,0.1-20.7,1.1C10.8,48.7,10.7,48.7,10.6,48.7z"/>
  <path fill="#0B7A91" d="M114,38.3c-0.6,0-1.2-0.3-1.5-0.9c-7-13.1-17.4-25-30-34.4c-0.8-0.5-0.9-1.6-0.3-2.4c0.5-0.8,1.6-0.9,2.4-0.3    c13.1,9.6,23.8,21.9,31,35.5c0.4,0.8,0.1,1.9-0.7,2.3C114.6,38.3,114.3,38.4,114,38.3L114,38.3z"/>
  <path fill="#0B7A91" d="M75,55.8c0,0-0.4,0-0.5-0.1c-6-2.1-12.2-3.8-18.2-5.1c-0.9-0.2-1.5-1.1-1.3-2c0.2-0.9,1.1-1.5,2-1.3    c6,1.3,12,2.9,17.9,5c9.9-5.2,20.3-8.7,30.8-10.5c0.9-0.2,1.8,0.5,1.9,1.4c0.2,0.9-0.5,1.8-1.4,1.9c-10.4,1.7-20.7,5.3-30.5,10.5    C75.5,55.8,75.2,55.9,75,55.8L75,55.8z"/>
  <path fill="#0B7A91" d="M44.9,30.9c0,0-0.1,0-0.2,0c-0.9-0.1-1.6-0.9-1.5-1.8c0.6-7,2.2-13.8,4.7-20.3c0.3-0.8,1.3-1.3,2.2-1    c0.8,0.3,1.3,1.3,1,2.2c-2.4,6.2-3.9,12.7-4.5,19.3C46.5,30.2,45.8,30.9,44.9,30.9z"/>
  <path fill="#0B7A91" d="M124.2,83.4c-0.4,0-0.8-0.1-1.1-0.4c-9.9-8.3-21.1-15.3-33.3-21c-5-2.4-10.2-4.5-15.4-6.3    c-0.6-0.2-1.1-0.8-1.1-1.5c0-0.7,0.3-1.3,0.9-1.6c10.1-5.4,20.7-9,31.5-10.8c0.9-0.2,1.8,0.5,1.9,1.4c0.2,0.9-0.5,1.8-1.4,1.9    c-9.2,1.5-18.3,4.5-27,8.7c4.1,1.5,8.1,3.2,12.1,5.1c11.4,5.3,21.9,11.8,31.4,19.3c0.1-4.8-0.3-9.8-1.1-14.7    c-0.2-0.9,0.5-1.8,1.4-1.9c0.9-0.2,1.8,0.5,1.9,1.4c1.1,6.3,1.4,12.6,1,18.7c0,0.6-0.4,1.2-1,1.4    C124.7,83.3,124.5,83.4,124.2,83.4L124.2,83.4z"/>
  <path fill="#0B7A91" d="M121.2,99.3c-0.4,0-0.8-0.2-1.1-0.5c-0.5-0.4-0.6-1.1-0.5-1.7c1.5-5.1,2.5-10.3,2.9-15.6c0-0.6,0.4-1.2,1-1.4    c0.6-0.3,1.3-0.2,1.7,0.3c3.8,3.2,7.5,6.6,11,10.1c0.4,0.4,0.5,0.9,0.5,1.4c-0.1,0.5-0.4,1-0.9,1.2c-4.4,2.2-9.1,4.3-13.9,6.2    C121.7,99.3,121.4,99.3,121.2,99.3L121.2,99.3z M125.5,85c-0.4,3.3-1,6.6-1.8,9.8c2.9-1.2,5.6-2.4,8.4-3.7    C130,89,127.8,86.9,125.5,85L125.5,85z"/>
  <path fill="#0B7A91" d="M10.6,48.7c-0.8,0-1.6-0.6-1.6-1.4c-0.1-0.9,0.5-1.8,1.4-1.9c6.8-1,14-1.3,21.3-1.1c0.9,0,1.6,0.8,1.6,1.7    s-0.8,1.6-1.7,1.6c-7.1-0.2-14.1,0.1-20.7,1.1C10.8,48.7,10.7,48.7,10.6,48.7z"/>
  <path fill="#0B7A91" d="M25.5,107.8c0,0-0.2,0-0.3,0c-8-1.7-15.7-4-22.7-6.9c-0.8-0.3-1.3-1.3-0.9-2.2c0.3-0.8,1.3-1.3,2.2-0.9    c6.5,2.7,13.5,4.8,20.9,6.4c4.5-9.4,10.4-18.1,17.5-26c2.9-3.2,5.9-6.4,9.1-9.3c0.7-0.6,1.8-0.6,2.4,0.1c0.6,0.7,0.6,1.7-0.1,2.4    c-3.1,2.8-6.1,5.9-8.9,9c-7.1,8-13,17-17.5,26.5C26.7,107.5,26.1,107.9,25.5,107.8L25.5,107.8z"/>
  <path fill="#0B7A91" d="M57.8,111c-11.2,0-22.2-1.1-32.6-3.2c-0.5-0.1-0.9-0.4-1.2-0.9c-0.3-0.5-0.3-1,0-1.5c4.6-9.8,10.7-19,18-27.3    c2.9-3.2,5.9-6.4,9.1-9.3c0.4-0.4,0.9-0.5,1.5-0.4c0.5,0.1,1,0.5,1.2,1c6.3,13.9,16.3,26.7,29,36.9c0.5,0.4,0.8,1.1,0.5,1.8    c-0.2,0.7-0.7,1.1-1.4,1.2C73.8,110.5,65.7,111,57.8,111L57.8,111z M28,104.9c15.6,3,32.7,3.5,49.8,1.6c-11.1-9.6-20-21.1-26-33.6    c-2.5,2.4-4.9,4.9-7.2,7.5C37.9,87.9,32.4,96.2,28,104.9z"/>
  <path fill="#0B7A91" d="M52.3,71.8c0,0-0.2,0-0.3,0c-0.5-0.1-1-0.5-1.2-1c-2.3-5-4-10.2-5.3-15.3c-0.2-0.9,0.3-1.8,1.2-2    c0.9-0.2,1.8,0.3,2,1.2c1.1,4.3,2.5,8.5,4.3,12.6c5.6-4.9,11.6-9.2,17.9-12.8C66,53,61,51.6,56.2,50.6c-0.9-0.2-1.5-1.1-1.3-2    c0.2-0.9,1.1-1.5,2-1.3c6.2,1.3,12.5,3.1,18.7,5.2c0.6,0.2,1.1,0.8,1.1,1.5c0,0.7-0.3,1.3-0.9,1.6c-8,4.3-15.5,9.6-22.3,15.8    C53.1,71.7,52.7,71.8,52.3,71.8z"/>
  <path fill="#0B7A91" d="M81.8,109.4c-0.4,0-0.8-0.1-1.1-0.4c-13.1-10.5-23.5-23.8-30-38.2c-0.3-0.7-0.1-1.4,0.4-1.9    c7-6.4,14.8-11.9,23-16.3c0.4-0.2,0.9-0.3,1.3-0.1c5.3,1.9,10.6,4,15.7,6.4c12.4,5.8,23.8,13,34,21.4c0.4,0.3,0.6,0.9,0.6,1.4    c-0.4,5.6-1.4,11.1-3,16.4c-0.2,0.5-0.5,0.9-1,1.1c-12,4.6-24.9,8-38.1,9.9c-0.4,0-0.8,0.1-1.2,0.2l-0.5,0.1    C81.9,109.4,81.8,109.4,81.8,109.4L81.8,109.4z M54.3,70.6c6.2,13.3,15.9,25.5,28,35.4c0.3,0,0.6-0.1,0.9-0.1    c12.8-1.9,25.1-5,36.6-9.4c1.3-4.5,2.2-9.2,2.6-14c-9.8-8-20.7-14.9-32.6-20.4c-4.8-2.2-9.7-4.3-14.7-6    C67.8,59.9,60.8,64.9,54.3,70.6L54.3,70.6z"/>
  <path fill="#1EAFCB" d="M55.8,58.3c0,0-0.2,0-0.3,0l-25.1-2.7c-1.2-0.1-2.1-1.2-2-2.5l2.7-25.1c0.1-1.2,1.2-2.1,2.5-2l25.1,2.7    c1.2,0.1,2.1,1.2,2,2.5L58,56.3C57.9,57.5,56.9,58.3,55.8,58.3z M33.2,51.4l20.6,2.2L56,32.9l-20.6-2.2L33.2,51.4z"/>
  <path fill="#1EAFCB" d="M129.1,66.1c0,0-0.2,0-0.3,0l-25.1-2.7c-1.2-0.1-2.1-1.2-2-2.5l2.7-25.1c0.1-1.2,1.2-2.1,2.5-2l25.1,2.7    c1.2,0.1,2.1,1.2,2,2.5l-2.7,25.1c-0.1,0.6-0.4,1.1-0.8,1.5C130.1,66,129.6,66.1,129.1,66.1z M106.5,59.2l20.6,2.2l2.2-20.6    l-20.6-2.2L106.5,59.2z"/>
  <path fill="#1EAFCB" d="M122.1,139.8c0,0-0.2,0-0.3,0l-25.1-2.7c-1.2-0.1-2.1-1.2-2-2.5l2.7-25.1c0.1-1.2,1.2-2.1,2.5-2l25.1,2.7    c1.2,0.1,2.1,1.2,2,2.5l-2.7,25.1C124.2,139,123.2,139.8,122.1,139.8z M99.5,132.9l20.6,2.2l2.2-20.6l-20.6-2.2L99.5,132.9z"/>
</svg>
