<svg xmlns="http://www.w3.org/2000/svg" version="1.1" x="0px" y="0px" viewBox="0 0 180 180" style="enable-background:new 0 0 180 180;">
  <path fill="#FFFFFF" stroke="#1E8BCB" stroke-width="2" d="M11.39,10h157.23c0.77,0,1.39,0.62,1.39,1.39v157.23c0,0.77-0.62,1.39-1.39,1.39H11.39   c-0.77,0-1.39-0.62-1.39-1.39V11.39C10,10.62,10.62,10,11.39,10z"/>
  <path fill="#084A70" d="M51.52,30.14V19.52h2.26v8.76h4.31v1.86H51.52z"/>
  <path fill="#084A70" d="M66.51,30.14h-6.13V19.52h6.13v1.85h-3.87v2.33h3.6v1.85h-3.6v2.73h3.87V30.14z"/>
  <path fill="#084A70" d="M73.27,30.14h-2.25v-8.76h-2.89v-1.86h8.02v1.88h-2.89V30.14z"/>
  <path fill="#084A70" d="M82.34,30.14h-2.25v-8.76H77.2v-1.86h8.02v1.88h-2.89V30.14z"/>
  <path fill="#084A70" d="M93.43,30.14H87.3V19.52h6.13v1.85h-3.87v2.33h3.6v1.85h-3.6v2.73h3.87V30.14z"/>
  <path fill="#084A70" d="M98.35,26.06v4.08h-2.26V19.52h3.11c1.45,0,2.51,0.27,3.21,0.79c0.35,0.28,0.64,0.65,0.82,1.07   c0.18,0.42,0.26,0.87,0.23,1.33c0.01,0.6-0.17,1.18-0.52,1.67c-0.37,0.51-0.88,0.9-1.46,1.14c1.6,2.39,2.64,3.94,3.13,4.63h-2.5   l-2.54-4.08L98.35,26.06z M98.35,24.23h0.73c0.55,0.04,1.1-0.08,1.58-0.35c0.17-0.13,0.31-0.3,0.4-0.5s0.13-0.41,0.11-0.63   c0.02-0.21-0.02-0.42-0.11-0.61c-0.09-0.19-0.23-0.35-0.41-0.47c-0.5-0.25-1.05-0.36-1.61-0.32h-0.68V24.23z"/>
  <path fill="#084A70" d="M120.34,24.81c0,1.75-0.44,3.1-1.31,4.06c-0.88,0.95-2.13,1.42-3.75,1.42c-1.63,0-2.88-0.47-3.75-1.42   c-0.87-0.95-1.31-2.3-1.31-4.07c0-1.77,0.44-3.12,1.31-4.05c0.88-0.93,2.13-1.4,3.76-1.4c1.63,0,2.88,0.47,3.74,1.41   C119.89,21.69,120.34,23.05,120.34,24.81z M112.58,24.81c0,1.19,0.23,2.08,0.68,2.68c0.24,0.3,0.55,0.55,0.9,0.7   c0.35,0.16,0.74,0.23,1.12,0.2c1.8,0,2.7-1.19,2.7-3.58c0-2.39-0.9-3.59-2.68-3.59c-0.39-0.03-0.77,0.04-1.13,0.2   c-0.35,0.16-0.66,0.4-0.9,0.7C112.8,22.72,112.58,23.62,112.58,24.81z"/>
  <path fill="#084A70" d="M125.2,30.14h-2.22V19.52h6.09v1.85h-3.88v2.74h3.61v1.84h-3.61V30.14z"/>
  <path fill="#084A70" d="M22.23,42.82v3.94h-2.19v-10.3h3.01c1.4,0,2.44,0.26,3.11,0.77c0.54,0.49,0.89,1.15,0.99,1.88   c0.09,0.72-0.08,1.46-0.48,2.07c-0.36,0.5-0.85,0.89-1.42,1.12c1.55,2.34,2.57,3.84,3.04,4.5h-2.43l-2.46-3.94L22.23,42.82z    M22.23,41.05h0.71c0.53,0.04,1.07-0.08,1.53-0.35c0.17-0.13,0.3-0.29,0.38-0.48c0.09-0.19,0.12-0.4,0.11-0.61   c0.02-0.2-0.02-0.41-0.11-0.59c-0.09-0.18-0.23-0.34-0.4-0.45c-0.48-0.24-1.02-0.35-1.56-0.31h-0.66V41.05z"/>
  <path fill="#084A70" d="M35.52,46.78h-5.96V36.47h5.96v1.79h-3.77v2.29h3.5v1.8h-3.5V45h3.77V46.78z"/>
  <path fill="#084A70" d="M42.06,38.14c-0.37-0.02-0.74,0.06-1.08,0.22c-0.33,0.16-0.62,0.41-0.84,0.71c-0.49,0.77-0.73,1.67-0.68,2.58   c0,2.3,0.86,3.45,2.59,3.45c0.9-0.04,1.79-0.22,2.63-0.54v1.84c-0.9,0.36-1.87,0.54-2.84,0.53c-1.5,0-2.65-0.46-3.44-1.37   c-0.79-0.91-1.19-2.22-1.2-3.94c-0.02-0.97,0.18-1.94,0.59-2.82c0.36-0.77,0.95-1.42,1.68-1.86c0.78-0.44,1.67-0.67,2.58-0.64   c1.05,0.02,2.08,0.27,3.02,0.74l-0.71,1.78c-0.38-0.17-0.77-0.33-1.16-0.46C42.84,38.22,42.45,38.14,42.06,38.14z"/>
  <path fill="#084A70" d="M56.25,41.61c0,1.71-0.42,3.02-1.27,3.94c-0.85,0.92-2.06,1.38-3.64,1.38s-2.79-0.44-3.64-1.38   s-1.27-2.24-1.27-3.94c0-1.7,0.44-3.03,1.27-3.94c0.84-0.92,2.07-1.36,3.65-1.36c1.59,0,2.8,0.44,3.64,1.37   C55.82,38.61,56.25,39.89,56.25,41.61z M48.72,41.61c0,1.15,0.22,2.02,0.66,2.6c0.23,0.29,0.53,0.53,0.87,0.68   c0.34,0.15,0.71,0.22,1.09,0.19c1.75,0,2.63-1.16,2.63-3.48s-0.87-3.49-2.6-3.5c-0.37-0.03-0.75,0.04-1.09,0.19   c-0.34,0.15-0.64,0.39-0.88,0.68C48.94,39.59,48.72,40.46,48.72,41.61z"/>
  <path fill="#084A70" d="M62.76,46.78l-2.49-8.1h-0.05c0.09,1.65,0.14,2.75,0.14,3.3v4.82H58.4V36.47h2.98l2.44,7.88h0.04l2.59-7.88   h2.97v10.32h-2.04V41.9c0-0.23,0-0.5,0-0.8c0-0.3,0.04-1.1,0.1-2.4h-0.06l-2.66,8.08H62.76z"/>
  <path fill="#084A70" d="M76.38,46.78l-2.48-8.1h-0.07c0.09,1.65,0.14,2.75,0.14,3.3v4.82h-1.95V36.47h2.98l2.44,7.88h0.04l2.59-7.88   h2.98v10.32h-2.04V41.9c0-0.23,0-0.5,0-0.8c0-0.3,0.04-1.1,0.1-2.4h-0.07l-2.66,8.08H76.38z"/>
  <path fill="#084A70" d="M91.58,46.78h-5.96V36.47h5.94v1.79h-3.75v2.29h3.5v1.8h-3.5V45h3.75L91.58,46.78z"/>
  <path fill="#084A70" d="M102.89,46.78h-2.78l-4.48-7.81h-0.07c0.09,1.38,0.14,2.37,0.14,2.95v4.86h-1.96V36.47h2.76l4.48,7.73h0.05   c-0.07-1.34-0.11-2.29-0.11-2.84v-4.88h1.97V46.78z"/>
  <path fill="#084A70" d="M114.05,41.52c0,1.7-0.48,3-1.45,3.9c-0.97,0.9-2.36,1.35-4.19,1.36h-2.92V36.47h3.24c1.68,0,3,0.44,3.94,1.31   C113.58,38.69,114.05,39.93,114.05,41.52z M111.77,41.58c0-2.22-0.98-3.32-2.93-3.32h-1.16v6.72h0.94   C110.72,44.98,111.77,43.84,111.77,41.58z"/>
  <path fill="#084A70" d="M122.5,46.78l-0.75-2.46h-3.76l-0.75,2.46h-2.36l3.64-10.36h2.68l3.65,10.36H122.5z M121.23,42.49   c-0.69-2.22-1.08-3.5-1.17-3.78c-0.09-0.27-0.15-0.52-0.18-0.69c-0.16,0.6-0.6,2.09-1.31,4.47H121.23z"/>
  <path fill="#084A70" d="M130.14,46.78h-2.19v-8.5h-2.8v-1.82h7.78v1.82h-2.8L130.14,46.78z"/>
  <path fill="#084A70" d="M134.53,46.78V36.47h2.19v10.32H134.53z"/>
  <path fill="#084A70" d="M148.69,41.61c0,1.71-0.42,3.02-1.27,3.94c-0.85,0.92-2.06,1.38-3.64,1.38c-1.58,0-2.8-0.46-3.64-1.38   c-0.85-0.92-1.27-2.24-1.27-3.94c0-1.7,0.44-3.03,1.27-3.94c0.83-0.92,2.07-1.36,3.65-1.36c1.59,0,2.8,0.44,3.64,1.37   C148.27,38.61,148.69,39.89,148.69,41.61z M141.16,41.61c0,1.15,0.22,2.02,0.66,2.6c0.23,0.29,0.53,0.53,0.87,0.68   c0.34,0.15,0.72,0.22,1.09,0.19c1.75,0,2.63-1.16,2.63-3.48s-0.88-3.49-2.63-3.5c-0.37-0.03-0.75,0.04-1.09,0.19   c-0.34,0.15-0.64,0.39-0.87,0.68c-0.5,0.78-0.73,1.7-0.67,2.63H141.16z"/>
  <path fill="#084A70" d="M159.97,46.78h-2.78l-4.49-7.81h-0.07c0.09,1.38,0.14,2.36,0.14,2.95v4.86h-1.95V36.47h2.76l4.48,7.73h0.05   c-0.07-1.34-0.11-2.29-0.11-2.84v-4.88h1.97V46.78z"/>
  <path fill="#1E8BCB" d="M128.68,160.79H51.32c-1.36,0-2.66-0.54-3.62-1.5c-0.96-0.96-1.5-2.26-1.5-3.62V63.22   c0-1.36,0.54-2.65,1.5-3.61c0.96-0.96,2.26-1.5,3.61-1.5h77.36c1.36,0,2.66,0.54,3.61,1.5c0.96,0.96,1.5,2.26,1.5,3.61v92.45   c0,1.36-0.54,2.66-1.5,3.62C131.34,160.25,130.04,160.79,128.68,160.79z M51.32,60.74c-0.66,0-1.29,0.26-1.76,0.73   c-0.47,0.47-0.73,1.1-0.73,1.76v92.45c0,0.66,0.26,1.29,0.73,1.76c0.47,0.47,1.1,0.73,1.76,0.73h77.36c0.66,0,1.29-0.26,1.76-0.73   c0.47-0.47,0.73-1.1,0.73-1.76V63.22c0-0.66-0.26-1.29-0.73-1.76c-0.47-0.47-1.1-0.73-1.76-0.73H51.32z"/>
  <path fill="#084A70" d="M115.16,107.82H64.84c-0.23,0-0.46-0.09-0.62-0.26c-0.16-0.16-0.26-0.39-0.26-0.62c0-0.23,0.09-0.46,0.26-0.62   c0.16-0.16,0.39-0.26,0.62-0.26h50.32c0.23,0,0.46,0.09,0.62,0.26c0.16,0.16,0.26,0.39,0.26,0.62c0,0.23-0.09,0.46-0.26,0.62   C115.62,107.73,115.4,107.82,115.16,107.82z"/>
  <path fill="#084A70" d="M115.16,99.82H64.84c-0.23,0-0.46-0.09-0.62-0.26c-0.16-0.16-0.26-0.39-0.26-0.62c0-0.23,0.09-0.46,0.26-0.62   c0.16-0.16,0.39-0.26,0.62-0.26h50.32c0.23,0,0.46,0.09,0.62,0.26c0.16,0.16,0.26,0.39,0.26,0.62c0,0.23-0.09,0.46-0.26,0.62   C115.62,99.73,115.4,99.82,115.16,99.82z"/>
  <path fill="#084A70" d="M115.16,91.81H64.84c-0.23,0-0.46-0.09-0.62-0.26s-0.26-0.39-0.26-0.62s0.09-0.46,0.26-0.62   c0.16-0.16,0.39-0.26,0.62-0.26h50.32c0.23,0,0.46,0.09,0.62,0.26c0.16,0.16,0.26,0.39,0.26,0.62s-0.09,0.46-0.26,0.62   C115.62,91.72,115.4,91.81,115.16,91.81z"/>
  <path fill="#084A70" d="M115.16,83.81H64.84c-0.23,0-0.46-0.09-0.62-0.26c-0.16-0.16-0.26-0.39-0.26-0.62c0-0.23,0.09-0.46,0.26-0.62   s0.39-0.26,0.62-0.26h50.32c0.23,0,0.46,0.09,0.62,0.26c0.16,0.16,0.26,0.39,0.26,0.62c0,0.23-0.09,0.46-0.26,0.62   C115.62,83.72,115.4,83.81,115.16,83.81z"/>
  <path fill="#084A70" d="M80,75.8H64.84c-0.23,0-0.46-0.09-0.62-0.26c-0.16-0.16-0.26-0.39-0.26-0.62c0-0.23,0.09-0.46,0.26-0.62   s0.39-0.26,0.62-0.26H80c0.23,0,0.46,0.09,0.62,0.26s0.26,0.39,0.26,0.62c0,0.23-0.09,0.46-0.26,0.62   C80.45,75.71,80.23,75.8,80,75.8z"/>
  <path fill="#084A70" d="M115.16,115.87H64.84c-0.23,0-0.46-0.09-0.62-0.26c-0.16-0.16-0.26-0.39-0.26-0.62c0-0.23,0.09-0.46,0.26-0.62   s0.39-0.26,0.62-0.26h50.32c0.23,0,0.46,0.09,0.62,0.26c0.16,0.16,0.26,0.39,0.26,0.62c0,0.23-0.09,0.46-0.26,0.62   C115.62,115.78,115.4,115.87,115.16,115.87z"/>
  <path fill="#084A70" d="M115.16,123.94H64.84c-0.23,0-0.46-0.09-0.62-0.26c-0.16-0.16-0.26-0.39-0.26-0.62c0-0.23,0.09-0.46,0.26-0.62   c0.16-0.16,0.39-0.26,0.62-0.26h50.32c0.23,0,0.46,0.09,0.62,0.26c0.16,0.16,0.26,0.39,0.26,0.62c0,0.23-0.09,0.46-0.26,0.62   C115.62,123.84,115.4,123.94,115.16,123.94z"/>
  <path fill="#084A70" d="M106.3,152.15c-1.87,0-3.7-0.55-5.25-1.59c-1.55-1.04-2.77-2.51-3.48-4.24c-0.72-1.73-0.9-3.63-0.54-5.46   c0.36-1.83,1.26-3.52,2.59-4.84c1.32-1.32,3.01-2.22,4.84-2.59c1.83-0.36,3.73-0.18,5.46,0.54c1.73,0.72,3.2,1.93,4.24,3.48   c1.04,1.55,1.59,3.38,1.59,5.25c0,2.51-1,4.91-2.77,6.68C111.21,151.15,108.8,152.15,106.3,152.15z M106.3,135   c-1.52,0-3.01,0.45-4.28,1.3c-1.27,0.85-2.25,2.05-2.84,3.46c-0.58,1.41-0.74,2.95-0.44,4.45c0.3,1.49,1.03,2.87,2.11,3.94   c1.08,1.08,2.45,1.81,3.94,2.11c1.49,0.3,3.04,0.14,4.45-0.44s2.61-1.57,3.46-2.84c0.85-1.27,1.3-2.75,1.3-4.28   c0-2.04-0.82-4-2.26-5.44C110.3,135.82,108.34,135,106.3,135z"/>
  <path fill="#084A70" d="M105.44,146.71c-0.23,0-0.45-0.09-0.62-0.26l-2.92-2.91c-0.16-0.16-0.26-0.39-0.26-0.62   c0-0.23,0.09-0.46,0.26-0.62c0.16-0.16,0.39-0.26,0.62-0.26c0.23,0,0.46,0.09,0.62,0.26l2.91,2.92c0.16,0.16,0.25,0.39,0.25,0.62   c0,0.23-0.09,0.45-0.25,0.62C105.9,146.61,105.68,146.71,105.44,146.71z"/>
  <path fill="#084A70" d="M105.45,146.71c-0.17,0-0.34-0.05-0.49-0.15c-0.14-0.1-0.26-0.24-0.32-0.4c-0.07-0.16-0.08-0.34-0.05-0.51   c0.04-0.17,0.12-0.33,0.25-0.45l5.32-5.24c0.08-0.09,0.18-0.16,0.29-0.21c0.11-0.05,0.23-0.07,0.34-0.08   c0.12,0,0.24,0.02,0.35,0.07c0.11,0.04,0.21,0.11,0.29,0.2c0.08,0.08,0.15,0.19,0.19,0.3c0.04,0.11,0.06,0.23,0.06,0.35   c0,0.12-0.03,0.24-0.08,0.34c-0.05,0.11-0.12,0.2-0.21,0.28l-5.33,5.26C105.88,146.62,105.67,146.7,105.45,146.71z"/>
  <path fill="#084A70" d="M77.12,146.76c-0.83,0-1.66-0.13-2.44-0.39c-0.91-0.34-1.78-0.76-2.61-1.27c-0.3-0.18-0.6-0.35-0.91-0.51   c-0.79-0.44-1.98-0.98-3.12-0.88c-0.85,0.08-1.78,0.67-1.89,1.52c-0.03,0.23-0.15,0.44-0.33,0.59c-0.18,0.14-0.42,0.21-0.65,0.18   s-0.44-0.15-0.59-0.33c-0.14-0.18-0.21-0.42-0.18-0.65c0.19-1.56,1.68-2.88,3.46-3.07c1.62-0.16,3.12,0.53,4.12,1.06   c0.32,0.17,0.64,0.35,0.95,0.53c0.73,0.45,1.5,0.83,2.29,1.13c0.97,0.31,2.01,0.38,3.02,0.2c1.01-0.18,1.96-0.61,2.76-1.24   c0.09-0.07,0.19-0.13,0.3-0.16s0.23-0.04,0.34-0.03c0.11,0.01,0.23,0.05,0.33,0.1c0.1,0.05,0.19,0.13,0.26,0.22   c0.07,0.09,0.13,0.19,0.16,0.3c0.03,0.11,0.04,0.23,0.03,0.34c-0.01,0.11-0.05,0.23-0.1,0.33s-0.13,0.19-0.22,0.26   C80.69,146.14,78.93,146.76,77.12,146.76z"/>
</svg>
