<svg xmlns="http://www.w3.org/2000/svg" version="1.1" x="0px" y="0px" viewBox="0 0 160 160" style="enable-background:new 0 0 160 160;">
  <circle fill="#333333" cx="80" cy="80" r="80"/>
  <path fill="#FFFFFF" d="M114.4,50.4H73.2H62.1H45.6c-3.9,0-7.2,3.2-7.2,7.2v44.8c0,4,3.2,7.2,7.2,7.2h16.5h11.1h41.2    c3.9,0,7.2-3.2,7.2-7.2V57.6C121.6,53.7,118.3,50.4,114.4,50.4z M116.4,102.4c0,1.1-0.9,2-2,2H73.2H62.1H45.6c-1.1,0-2-0.9-2-2    V57.6c0-1.1,0.9-2,2-2h16.5h11.1h41.2c1.1,0,2,0.9,2,2V102.4z"/>
  <path fill="#FFFFFF" d="M112,64.5c-0.8-1.3-2.5-1.6-3.8-0.7L80.8,82.4L53.3,63.8c-1.3-0.8-2.9-0.5-3.8,0.7c-0.8,1.3-0.5,2.9,0.7,3.8    l28.6,19.3c0.6,0.4,1.3,0.5,1.9,0.4c0.6,0.1,1.3,0,1.9-0.4l28.6-19.3C112.5,67.5,112.8,65.8,112,64.5z"/>
</svg>
