<svg xmlns="http://www.w3.org/2000/svg" version="1.1" x="0px" y="0px" viewBox="0 0 160 160" style="enable-background:new 0 0 160 160;">
  <circle fill="#1DAFCC" cx="80" cy="80" r="80"/>
  <circle fill="#FFFFFF" cx="80" cy="80" r="76"/>
  <path fill-rule="evenodd" clip-rule="evenodd" fill="#1DAFCC" d="M78.8,36.5l-1,12.5c17.4,2.3,31.3,16.4,33.5,33.9l12.6-0.8C121.3,58.3,102.5,39.3,78.8,36.5L78.8,36.5z     M90.3,84.2c-1.4-7.1-7-12.8-14.2-14.3l1-12.6c13.3,2,23.9,12.7,25.8,26L90.3,84.2L90.3,84.2z"/>
  <path fill="#1DAFCC" d="M69.7,114.4c-5.8,0-10.3-1.6-13.6-4.8c-3.3-3.2-4.9-7.7-4.9-13.6c0-6,1.5-10.7,4.5-14     c3-3.3,7.2-4.9,12.5-4.9c5.1,0,9.1,1.5,11.9,4.4c2.8,2.9,4.3,6.9,4.3,12v4.8H61.1c0.1,2.8,0.9,5,2.5,6.5c1.5,1.6,3.7,2.4,6.5,2.4     c2.2,0,4.2-0.2,6.2-0.7c1.9-0.5,4-1.2,6.1-2.2v7.6c-1.7,0.9-3.6,1.5-5.5,1.9C74.9,114.2,72.5,114.4,69.7,114.4z M68.3,84     c-2.1,0-3.7,0.7-4.9,2c-1.2,1.3-1.9,3.2-2,5.6h13.8c0-2.4-0.7-4.3-1.9-5.6C72,84.7,70.4,84,68.3,84z"/>
</svg>
