<svg xmlns="http://www.w3.org/2000/svg" version="1.1" x="0px" y="0px" viewBox="0 0 211.5 176" style="enable-background:new 0 0 211.5 176;">
  <image style="overflow:visible;opacity:0.3;" width="150" height="150" xlinkHref="E4FDEDD0697927C6.png" transform="matrix(1 0 0 1 31.152 26.0494)">
	</image>
  <linearGradient id="SVGID_1_" gradientUnits="userSpaceOnUse" x1="105.8947" y1="162.8874" x2="105.8947" y2="31.6856">
    <stop offset="0" style="stop-color:#555555"/>
    <stop offset="1" style="stop-color:#777777"/>
  </linearGradient>
  <path fill="url(#SVGID_1_)" d="M161.9,162.9h-112c-5.3,0-9.6-4.3-9.6-9.6v-112c0-5.3,4.3-9.6,9.6-9.6h112c5.3,0,9.6,4.3,9.6,9.6v112    C171.5,158.6,167.2,162.9,161.9,162.9z"/>
  <image style="overflow:visible;opacity:0.3;" width="90" height="87" xlinkHref="E4FDEDD0697927CA.png" transform="matrix(1 0 0 1 61.152 57.0494)">
	</image>
  <path fill="#FFFFFF" d="M70.8,130.7c0-0.4,0-0.8,0-1.1c0-11.4,0-22.9,0-34.3c0-0.7,0.2-1.1,0.7-1.5c3-2.7,5.9-5.4,8.8-8.1       c0.4-0.4,0.6-0.8,0.6-1.4c0-3.4,0-6.9,0-10.3c0-0.3,0-0.6,0-1.1c0.5,0,0.9,0,1.3,0c3.7,0,7.5,0,11.2,0c0.5,0,1.1-0.2,1.4-0.6       c3.1-2.8,6.1-5.6,9.2-8.4c1.5-1.4,2.8-1.4,4.3,0c3,2.7,5.9,5.5,8.9,8.2c0.6,0.6,1.2,0.8,2.1,0.8c3.7,0,7.4,0,11.1,0       c0.8,0,1.1,0.3,1,1.1c0,3.5,0,6.9,0,10.4c0,0.6,0.2,1,0.6,1.4c2.9,2.7,5.8,5.3,8.7,8c0.5,0.5,0.8,1,0.8,1.8       c0,11.3,0,22.6,0,33.9c0,0.4,0,0.9,0,1.4C117.8,130.7,94.4,130.7,70.8,130.7z M136.3,101.7c-0.3,0.1-0.6,0.2-0.8,0.3       c-9.2,3.6-18.5,7.1-27.7,10.7c-1.2,0.4-2.2,0.5-3.4,0c-9.2-3.6-18.4-7.1-27.6-10.6c-0.3-0.1-0.5-0.2-0.9-0.3c0,8,0,15.9,0,23.9       c20.1,0,40.2,0,60.3,0C136.3,117.6,136.3,109.7,136.3,101.7z M86,77.9c0,1.4,0,2.8,0,4.1c0,5.8,0,11.7,0,17.5       c0,0.5,0.2,0.7,0.6,0.9c6.3,2.4,12.5,4.8,18.8,7.2c0.4,0.1,0.9,0.1,1.3,0c6.1-2.3,12.3-4.7,18.4-7c0.9-0.3,1.1-0.8,1.1-1.8       c0-0.7,0-1.3,0-2c0-6,0-11.9,0-17.9c0-0.3,0-0.7,0-1.1C112.8,77.9,99.4,77.9,86,77.9z M101.7,72.7c3,0,5.8,0,8.7,0       c-1.5-1.4-2.9-2.7-4.4-4C104.6,70,103.3,71.3,101.7,72.7z M80.9,92c-1.6,1.5-3.1,2.9-4.7,4.4c1.7,0.6,3.2,1.2,4.7,1.8       C80.9,96.1,80.9,94.1,80.9,92z M136,96.3c-1.6-1.5-3.1-2.9-4.7-4.3c0,2.2,0,4.1,0,6.1C132.9,97.5,134.4,97,136,96.3z"/>
  <rect x="91" y="82.9" fill="#FFFFFF" width="30.2" height="4.6"/>
  <rect x="91" y="92.8" fill="#FFFFFF" width="20.1" height="4.6"/>
  <image style="overflow:visible;opacity:0.3;" width="80" height="80" xlinkHref="E4FDEDD0697927CD.png" transform="matrix(1 0 0 1 131.152 -3.9506)">
	</image>
  <circle fill="#FFFFFF" cx="171.5" cy="32.3" r="30.5"/>
  <linearGradient id="SVGID_2_" gradientUnits="userSpaceOnUse" x1="171.4956" y1="58.2452" x2="171.4956" y2="6.2584">
    <stop offset="0" style="stop-color:#333333"/>
    <stop offset="1" style="stop-color:#555555"/>
  </linearGradient>
  <circle fill="url(#SVGID_2_)" cx="171.5" cy="32.3" r="26"/>
  <image style="overflow:visible;opacity:0.3;" width="29" height="41" xlinkHref="E4FDEDD0697927CE.png" transform="matrix(1 0 0 1 155.152 16.0494)">
	</image>
  <path fill="#FFFFFF" d="M170.3,43.5V29.1h-5.6v-3.4c0.8,0,1.5,0,2.3-0.2c0.7-0.1,1.4-0.4,2-0.7c0.6-0.3,1.1-0.8,1.5-1.4     c0.4-0.6,0.7-1.3,0.8-2.1h3.6v22.2H170.3z"/>
</svg>
