<svg xmlns="http://www.w3.org/2000/svg" width="173" height="150" viewBox="0 0 173 150" fill="none">
  <path d="M86.8357 148.2C127.76 148.2 160.936 115.024 160.936 74.1001C160.936 33.1758 127.76 0 86.8357 0C45.9114 0 12.7356 33.1758 12.7356 74.1001C12.7356 115.024 45.9114 148.2 86.8357 148.2Z" fill="#F7F7F7"/>
  <path d="M86.8358 84.4685C99.9196 84.4685 110.526 73.862 110.526 60.7782C110.526 47.6944 99.9196 37.0879 86.8358 37.0879C73.752 37.0879 63.1455 47.6944 63.1455 60.7782C63.1455 73.862 73.752 84.4685 86.8358 84.4685Z" fill="white"/>
  <path d="M86.8357 85.1924C73.3737 85.1924 62.4236 74.2399 62.4236 60.7803C62.4236 47.3207 73.3761 36.3682 86.8357 36.3682C100.295 36.3682 111.248 47.3207 111.248 60.7803C111.248 74.2399 100.295 85.1924 86.8357 85.1924ZM86.8357 37.8094C74.1701 37.8094 63.8672 48.1123 63.8672 60.7779C63.8672 73.4435 74.1701 83.7463 86.8357 83.7463C99.5013 83.7463 109.804 73.4411 109.804 60.7779C109.804 48.1147 99.5013 37.8094 86.8357 37.8094Z" fill="#A8A8A8"/>
  <path d="M29.441 91.5662H14.6653C7.0452 91.5662 0.844727 85.3681 0.844727 77.7456C0.844727 70.626 6.25841 64.7456 13.1831 64.0045C13.9146 51.8803 23.83 42.4268 35.911 42.4268C44.8279 42.4268 52.9124 47.6937 56.5985 55.7131C57.8785 55.0539 59.2789 54.7098 60.7321 54.7098C65.8138 54.7098 69.945 58.8435 69.945 63.9227C69.945 64.043 69.9426 64.1633 69.9354 64.2836C70.9483 64.043 71.9782 63.9227 73.0152 63.9227C80.6352 63.9227 86.8357 70.1208 86.8357 77.7432C86.8357 85.3657 80.6376 91.5638 73.0152 91.5638H29.441V91.5662Z" fill="#E8E8E8"/>
  <path d="M73.0151 92.2877H14.6652C6.64569 92.2877 0.122803 85.7648 0.122803 77.7453C0.122803 70.4982 5.40415 64.418 12.5069 63.3642C13.5463 51.1702 23.7144 41.707 35.9109 41.707C44.8086 41.707 52.9844 46.8055 56.94 54.76C58.1407 54.2499 59.4135 53.9925 60.7296 53.9925C66.0326 53.9925 70.378 58.1694 70.6523 63.4051C71.4343 63.2727 72.2235 63.2054 73.0151 63.2054C81.0346 63.2054 87.5574 69.7283 87.5574 77.7477C87.5574 85.7672 81.0346 92.2901 73.0151 92.2901V92.2877ZM35.9109 43.1507C24.2775 43.1507 14.6122 52.3299 13.9048 64.0499C13.8832 64.4012 13.6113 64.6875 13.26 64.7236C6.59276 65.4358 1.56645 71.0348 1.56645 77.7453C1.56645 84.9684 7.44211 90.8441 14.6652 90.8441H73.0151C80.2381 90.8441 86.1138 84.9684 86.1138 77.7453C86.1138 70.5223 80.2381 64.6466 73.0151 64.6466C72.0358 64.6466 71.0565 64.7621 70.1013 64.9883C69.88 65.0412 69.649 64.9883 69.4733 64.8415C69.2977 64.6971 69.2038 64.4782 69.2135 64.2496C69.2183 64.1413 69.2207 64.0331 69.2207 63.9248C69.2207 59.2426 65.4119 55.4337 60.7296 55.4337C59.3942 55.4337 58.1166 55.7441 56.928 56.3577C56.7524 56.4491 56.5479 56.4635 56.3626 56.3986C56.1773 56.3336 56.0233 56.1965 55.9415 56.0184C52.3492 48.2011 44.4862 43.1507 35.9109 43.1507Z" fill="#A8A8A8"/>
  <path d="M138.923 105.762H155.125C163.481 105.762 172.155 98.7045 172.155 87.3911C172.155 77.8149 164.343 70.1876 156.749 69.3768C155.948 56.0832 145.075 45.7178 131.829 45.7178C122.054 45.7178 113.187 51.4924 109.145 60.289C107.74 59.5648 106.205 59.1894 104.614 59.1894C99.0441 59.1894 94.5111 63.7201 94.5111 69.2926C94.5111 69.4249 94.5135 69.5548 94.5207 69.6872C93.4091 69.4249 92.2806 69.2926 91.1426 69.2926C81.4629 69.2926 74.1123 79.0396 74.1123 87.3959C74.1123 97.9514 82.7862 105.766 91.1426 105.766H138.923V105.762Z" fill="#E8E8E8"/>
  <path d="M155.125 106.483H91.1425C86.8067 106.483 82.3747 104.498 78.9797 101.041C75.3754 97.3692 73.3904 92.5234 73.3904 87.3912C73.3904 83.0843 75.284 78.3515 78.4528 74.7304C81.932 70.7555 86.4386 68.566 91.1401 68.566C92.0303 68.566 92.9206 68.643 93.7964 68.797C94.0538 63.0561 98.8058 58.4629 104.609 58.4629C106.067 58.4629 107.473 58.7516 108.798 59.3242C113.115 50.5926 122.073 44.9912 131.825 44.9912C138.412 44.9912 144.671 47.4935 149.449 52.0338C154.076 56.4321 156.893 62.3415 157.423 68.732C164.995 69.8845 172.872 77.4709 172.872 87.3864C172.872 92.8073 170.885 97.7566 167.276 101.327C163.967 104.602 159.535 106.479 155.12 106.479L155.125 106.483ZM91.1425 70.0121C81.9584 70.0121 74.834 79.3549 74.834 87.3936C74.834 97.7951 83.4286 105.042 91.1425 105.042H155.125C159.165 105.042 163.224 103.317 166.265 100.307C169.598 97.0107 171.433 92.4247 171.433 87.3936C171.433 83.1036 169.776 78.9098 166.766 75.5845C163.958 72.4831 160.279 70.4812 156.675 70.0963C156.323 70.0578 156.051 69.7739 156.032 69.4226C155.654 63.1716 152.967 57.3705 148.46 53.0877C143.951 48.8024 138.047 46.4421 131.832 46.4421C122.4 46.4421 113.752 51.9953 109.804 60.5922C109.722 60.7703 109.571 60.9099 109.383 60.9724C109.198 61.0374 108.993 61.0229 108.818 60.9315C107.504 60.2554 106.091 59.9113 104.617 59.9113C99.4434 59.9113 95.2352 64.1196 95.2352 69.2926C95.2352 69.4129 95.2376 69.5308 95.2448 69.6511C95.2569 69.8773 95.1606 70.0963 94.985 70.243C94.8117 70.3874 94.5783 70.4427 94.357 70.3898C93.3055 70.1396 92.2252 70.0145 91.1449 70.0145L91.1425 70.0121Z" fill="#A8A8A8"/>
  <path d="M155.782 141.391L139.57 125.183C139.269 124.882 138.848 124.692 138.386 124.692C137.924 124.692 137.505 124.88 137.205 125.181L136.759 125.626L132.999 121.865L129.623 125.241L133.384 129.002L132.931 129.454C132.631 129.755 132.445 130.171 132.445 130.633C132.443 131.097 132.633 131.518 132.934 131.819L149.144 148.029C150.975 149.86 153.941 149.86 155.775 148.027C157.611 146.191 157.611 143.222 155.78 141.393L155.782 141.391Z" fill="#E6E7E8"/>
  <path d="M152.457 150C151.102 150 149.75 149.485 148.718 148.455L132.508 132.245C132.075 131.812 131.839 131.24 131.841 130.631C131.841 130.027 132.077 129.457 132.503 129.031L132.53 129.004L128.769 125.244L132.994 121.019L136.755 124.779L136.776 124.758C137.205 124.329 137.775 124.091 138.381 124.091C138.978 124.091 139.565 124.334 139.988 124.758L156.201 140.965C158.263 143.027 158.26 146.386 156.196 148.45C155.164 149.483 153.806 150 152.452 150H152.457ZM130.472 125.244L134.233 129.004L133.357 129.88C133.157 130.08 133.047 130.347 133.047 130.633C133.047 130.922 133.157 131.191 133.36 131.394L149.569 147.603C151.162 149.196 153.756 149.194 155.351 147.601C156.946 146.006 156.949 143.41 155.356 141.817L139.144 125.609C138.944 125.41 138.667 125.294 138.386 125.294C138.102 125.294 137.833 125.405 137.633 125.607L136.762 126.478L133.001 122.717L130.477 125.241L130.472 125.244Z" fill="#A8A8A8"/>
  <path d="M96.5876 88.8368C86.7756 98.6488 86.778 114.548 96.5876 124.358C106.4 134.17 122.297 134.17 132.109 124.358C141.916 114.551 141.921 98.6488 132.109 88.8368C122.299 79.0272 106.395 79.0296 96.5876 88.8368Z" fill="#E6E7E8"/>
  <path d="M114.347 132.318C107.477 132.318 101.02 129.642 96.1616 124.782C91.3037 119.924 88.6282 113.466 88.6282 106.597C88.6282 99.7272 91.3037 93.2693 96.1616 88.409C101.02 83.5511 107.477 80.8779 114.347 80.8779C121.216 80.8779 127.674 83.5535 132.532 88.409C142.561 98.4375 142.561 114.753 132.532 124.782C127.674 129.642 121.214 132.318 114.347 132.318ZM96.5875 88.8372L97.0134 89.2631C92.3817 93.8948 89.8312 100.052 89.8312 106.599C89.8312 113.146 92.3817 119.303 97.0134 123.932C101.645 128.564 107.802 131.115 114.349 131.115C120.896 131.115 127.053 128.564 131.685 123.932C141.244 114.373 141.244 98.8201 131.685 89.2607C127.056 84.6314 120.899 82.081 114.349 82.081C107.8 82.081 101.645 84.6314 97.0158 89.2607L96.5899 88.8348L96.5875 88.8372Z" fill="#A8A8A8"/>
  <path d="M127.946 92.9995C120.437 85.4901 108.262 85.4974 100.752 93.0067C100.011 93.7478 99.3449 94.5346 98.7482 95.3575C95.411 99.9772 94.3764 105.745 95.6468 111.079C96.4456 114.418 98.1443 117.587 100.752 120.195C108.264 127.707 120.437 127.702 127.941 120.195C135.451 112.686 135.458 100.511 127.946 92.9995Z" fill="#F7F7F7"/>
  <path d="M114.349 126.538C109.241 126.538 104.131 124.594 100.242 120.703C97.6317 118.093 95.8007 114.823 94.9465 111.245C93.5967 105.579 94.7709 99.6334 98.1659 94.9343C98.7914 94.0681 99.4916 93.2476 100.245 92.4969C108.024 84.7157 120.682 84.7133 128.458 92.4897C136.237 100.269 136.235 112.925 128.454 120.706C124.565 124.594 119.457 126.538 114.352 126.538H114.349ZM114.354 88.101C109.614 88.101 104.872 89.9056 101.262 93.5171C100.565 94.2149 99.9151 94.9776 99.3328 95.7812C96.1832 100.139 95.0957 105.653 96.3493 110.911C97.1409 114.229 98.8396 117.26 101.262 119.683C108.478 126.899 120.218 126.899 127.431 119.683C134.649 112.465 134.652 100.723 127.436 93.5075C123.829 89.9008 119.094 88.0986 114.356 88.0986L114.354 88.101Z" fill="#A8A8A8"/>
  <path d="M133.119 109.279C133.211 108.514 133.266 107.737 133.266 106.945C133.266 96.4044 124.796 87.8604 114.349 87.8604C103.902 87.8604 95.4326 96.4044 95.4326 106.945C95.4326 107.737 95.4856 108.514 95.5794 109.279H133.121H133.119Z" fill="#E8E8E8"/>
  <path d="M133.119 109.76H95.577C95.334 109.76 95.1294 109.577 95.0982 109.337C94.9995 108.519 94.949 107.713 94.949 106.945C94.949 96.1563 103.652 87.3789 114.347 87.3789C125.042 87.3789 133.745 96.1563 133.745 106.945C133.745 107.725 133.697 108.507 133.595 109.337C133.567 109.577 133.362 109.76 133.117 109.76H133.119ZM96.0077 108.798H132.688C132.753 108.16 132.785 107.552 132.785 106.945C132.785 96.6856 124.515 88.3413 114.349 88.3413C104.184 88.3413 95.9138 96.688 95.9138 106.945C95.9138 107.552 95.9451 108.163 96.0101 108.798H96.0077Z" fill="#A8A8A8"/>
  <path d="M133.266 108.558H95.2617V110.001H133.266V108.558Z" fill="#A8A8A8"/>
</svg>
