<svg xmlns="http://www.w3.org/2000/svg" version="1.1" x="0px" y="0px" viewBox="0 0 171.9 164.3" style="enable-background:new 0 0 171.9 164.3;">
  <path fill="#F4F4F4" d="M57.9,112.2c-1.1,0-2-0.1-3-0.4c-3.3-0.8-6-2.8-7.6-5.6c-0.4-0.6-1-1.9-1.3-3.5c-2.5,0.6-4.3,0.5-6.2,0     c-3.1-0.7-5.8-2.8-7.4-5.5c-0.4-0.7-1.2-2.2-1.4-4.3c-3.5,1.4-6.1,1.7-8.9,1.1c-3.1-0.7-5.9-2.7-7.5-5.5     c-4.2-7.4,1-14.3,2.8-16.6c1.4-1.8,3.3-4.1,5.8-6.8c-6.1,3.3-9,3.6-12.5,2.8c-3.1-0.7-5.9-2.7-7.5-5.5C0.9,58.5,1,53.9,3.4,50     c0.1-0.2,0.3-0.5,0.5-0.7C2,44.3,4,38.6,8.8,35.8c1.4-0.8,3-1.3,4.5-1.4c3.5-1.9,11-7.1,16.3-10.7C50.2,9.5,56.5,5.5,63.5,7.1     c1.8,0.4,3.4,1.2,4.8,2.3c11.8-7.1,16.4-8.1,21.1-7c3.3,0.8,6.1,2.8,7.7,5.7c4.2,7.3-1,14.3-2.8,16.6c-0.5,0.6-1,1.3-1.7,2.1     c23-14.5,31.1-17.4,37.8-15.9c3.5,0.8,6.4,2.9,8.1,6c0.4,0.7,1.1,2,1.4,3.8c4-1.4,6.5-1.4,9-0.8c3.2,0.8,5.9,2.8,7.6,5.6     c0.7,1.3,1.9,4,1.6,7.4c2.9,0.9,5.3,2.8,6.8,5.4c4.7,8.2-1.5,16.4-6.4,22.2c0.9,0,1.8,0.1,2.7,0.3c3.2,0.7,5.9,2.8,7.5,5.5     c3.1,5.4,1.3,12.2-4.1,15.3c-1.6,0.9-3.3,1.4-5.1,1.5c-4.1,2.2-13.4,8.4-19.8,12.8c-20.7,14-25.9,17.3-32.5,15.8     c-3.2-0.7-5.9-2.7-7.5-5.5c-3.7-6.4-0.7-12.7,3.1-17.9C73.8,107.1,64.4,112.2,57.9,112.2z M149.4,77.5     C149.4,77.5,149.4,77.5,149.4,77.5C149.4,77.5,149.4,77.5,149.4,77.5z"/>
  <path fill="#FFFFFF" d="M102.9,42.6c3.4-9-1.3-17.4-8.2-20.5c-3.6-1.6-7.3-1.9-11.1-0.8c-4.8,1.4-8.2,4.6-10.3,9.1      c-5.1-2.6-10-2.5-14.5,0.9c-5.4,4.2-6.5,9.7-4.3,16.1c-0.5,0-0.9-0.1-1.3-0.1c-8.9-0.1-15.4,9.1-12.4,17.6c1.9,5.6,7,9,13.3,9      c14.6,0,29.2,0,43.8,0c1.2,0,2.5-0.1,3.6-0.3c6.6-1.4,11-5.3,12.6-11.8c1.6-6.5-0.4-12.1-5.6-16.4      C106.9,44.1,105,43.2,102.9,42.6z"/>
  <path fill="#E6E6E6" d="M34.8,62.8c0-1.4,0-2.9,0-4.3c0-0.1,0.1-0.2,0.1-0.4c1.3-7.5,5.5-12.5,12.6-15.2c0.5-0.2,0.6-0.4,0.6-0.9      c0.1-1.3,0.1-2.6,0.3-3.8c2-9.8,11.4-16.5,21.7-14.6c0.6,0.1,1,0,1.4-0.5c2.8-3.5,6.4-5.8,10.7-7c1.1-0.3,2.3-0.5,3.5-0.8      c1.6,0,3.1,0,4.7,0c1,0.2,2.1,0.4,3.1,0.7c10.3,2.7,17,12.4,15.9,23c0,0.2,0.2,0.6,0.4,0.7c7.9,5,11.5,13.2,10,22.3      c-1.7,9.6-10.7,17.3-20.5,17.3c-15.4,0-30.8,0-46.2,0c-0.7,0-1.4-0.1-2.2-0.2c-7.4-1-13.5-6.3-15.5-13.4      C35.2,64.7,35,63.7,34.8,62.8z M102.9,42.6c3.4-9-1.3-17.4-8.2-20.5c-3.6-1.6-7.3-1.9-11.1-0.8c-4.8,1.4-8.2,4.6-10.3,9.1      c-5.1-2.6-10-2.5-14.5,0.9c-5.4,4.2-6.5,9.7-4.3,16.1c-0.5,0-0.9-0.1-1.3-0.1c-8.9-0.1-15.4,9.1-12.4,17.6c1.9,5.6,7,9,13.3,9      c14.6,0,29.2,0,43.8,0c1.2,0,2.5-0.1,3.6-0.3c6.6-1.4,11-5.3,12.6-11.8c1.6-6.5-0.4-12.1-5.6-16.4      C106.9,44.1,105,43.2,102.9,42.6z"/>
  <circle opacity="0.6" fill="#FFFFFF" cx="103" cy="74.2" r="17.1"/>
  <path fill="#999999" d="M140.3,106l-17.6-17.6c2.4-3.8,3.8-8.3,3.8-13.1c0-13.5-11-24.5-24.5-24.5s-24.5,11-24.5,24.5   s11,24.5,24.5,24.5c4.8,0,9.3-1.4,13.1-3.8l17.6,17.6c1.8,1.8,4.8,1.5,6.9-0.5l0.2-0.2C141.8,110.8,142,107.7,140.3,106z    M87.4,75.3c0-8,6.5-14.5,14.5-14.5s14.5,6.5,14.5,14.5S110,89.8,102,89.8S87.4,83.3,87.4,75.3z"/>
  <path fill="#CFCFCF" d="M140.3,103.7l-17.6-17.6c2.4-3.8,3.8-8.3,3.8-13.1c0-13.5-11-24.5-24.5-24.5S77.4,59.5,77.4,73   s11,24.5,24.5,24.5c4.8,0,9.3-1.4,13.1-3.8l17.6,17.6c1.8,1.8,4.8,1.5,6.9-0.5l0.2-0.2C141.8,108.6,142,105.5,140.3,103.7z    M87.4,73c0-8,6.5-14.5,14.5-14.5S116.5,65,116.5,73S110,87.6,102,87.6S87.4,81.1,87.4,73z"/>
  <ellipse fill="#F4F4F4" cx="89" cy="154.5" rx="64.7" ry="7.6"/>
</svg>
