<svg xmlns="http://www.w3.org/2000/svg" version="1.1" x="0px" y="0px" viewBox="0 0 180 180" style="enable-background:new 0 0 180 180;">
  <path fill="#FFFFFF" stroke="#1E8BCB" stroke-width="2" d="M11.39,10h157.23c0.77,0,1.39,0.62,1.39,1.39v157.23c0,0.77-0.62,1.39-1.39,1.39H11.39   c-0.77,0-1.39-0.62-1.39-1.39V11.39C10,10.62,10.62,10,11.39,10z"/>
  <path fill="#084A70" d="M74.41,29.91c0,1.81-0.45,3.2-1.35,4.18c-0.9,0.98-2.19,1.46-3.86,1.46c-1.68,0-2.96-0.49-3.86-1.46   S64,31.71,64,29.9c0-1.82,0.44-3.21,1.35-4.17c0.91-0.96,2.19-1.44,3.88-1.44c1.69,0,2.97,0.48,3.86,1.45   C73.97,26.7,74.41,28.09,74.41,29.91z M66.43,29.91c0,1.22,0.23,2.14,0.7,2.76c0.25,0.31,0.56,0.56,0.93,0.72   c0.36,0.16,0.76,0.23,1.15,0.2c1.85,0,2.78-1.23,2.78-3.69c0-2.46-0.92-3.69-2.76-3.7c-0.4-0.03-0.79,0.05-1.16,0.21   c-0.36,0.16-0.68,0.41-0.93,0.72C66.66,27.76,66.43,28.69,66.43,29.91z"/>
  <path fill="#084A70" d="M81.36,35.4h-2.31v-9.01h-2.97v-1.93h8.26v1.93h-2.97L81.36,35.4z"/>
  <path fill="#084A70" d="M95.45,35.4h-2.31v-4.73H88.8v4.73h-2.3V24.45h2.32v4.29h4.34v-4.28h2.31L95.45,35.4z"/>
  <path fill="#084A70" d="M104.97,35.4h-6.3V24.45h6.3v1.91h-3.98v2.4h3.71v1.9h-3.71v2.82h3.98V35.4z"/>
  <path fill="#084A70" d="M110.03,31.2v4.2h-2.32V24.45h3.19c1.49,0,2.59,0.27,3.3,0.81c0.58,0.52,0.95,1.22,1.05,1.99   c0.1,0.77-0.08,1.55-0.51,2.19c-0.38,0.52-0.9,0.93-1.5,1.18c1.65,2.46,2.72,4.05,3.22,4.77h-2.58l-2.63-4.2L110.03,31.2z    M110.03,29.31h0.75c0.57,0.04,1.13-0.09,1.62-0.37c0.18-0.13,0.32-0.31,0.41-0.51c0.09-0.2,0.13-0.42,0.11-0.64   c0.02-0.22-0.02-0.43-0.12-0.63c-0.09-0.2-0.24-0.36-0.42-0.48c-0.51-0.25-1.08-0.37-1.66-0.33h-0.71V29.31z"/>
  <path fill="#1E8BCB" d="M132.07,149.16H42.82c-1.54-0.01-3.02-0.62-4.11-1.71c-1.09-1.09-1.7-2.57-1.7-4.11V67.62   c0-1.54,0.62-3.03,1.71-4.12c1.09-1.09,2.57-1.71,4.12-1.71h65.93c0.35,0,0.68,0.14,0.93,0.38c0.25,0.25,0.38,0.58,0.38,0.93   c0,0.35-0.14,0.68-0.38,0.93c-0.25,0.25-0.58,0.38-0.93,0.38H42.82c-0.85,0-1.66,0.34-2.26,0.94c-0.6,0.6-0.94,1.41-0.94,2.26   v75.72c0,0.85,0.34,1.66,0.94,2.26c0.6,0.6,1.41,0.94,2.26,0.94h89.25c0.85,0,1.66-0.34,2.26-0.94c0.6-0.6,0.94-1.41,0.94-2.26   V91.08c0-0.35,0.14-0.68,0.38-0.93c0.25-0.25,0.58-0.38,0.93-0.38c0.35,0,0.68,0.14,0.93,0.38c0.25,0.25,0.38,0.58,0.38,0.93v52.26   c0,1.54-0.62,3.03-1.71,4.12C135.1,148.54,133.61,149.16,132.07,149.16z"/>
  <path fill="#084A70" d="M72.92,80.53H51.84c-0.23,0-0.46-0.09-0.62-0.26c-0.16-0.16-0.26-0.39-0.26-0.62s0.09-0.46,0.26-0.62   s0.39-0.26,0.62-0.26h21.08c0.23,0,0.46,0.09,0.62,0.26c0.16,0.16,0.26,0.39,0.26,0.62s-0.09,0.46-0.26,0.62   C73.38,80.44,73.15,80.53,72.92,80.53z"/>
  <path fill="#084A70" d="M110.51,101.59H51.84c-0.23,0-0.46-0.09-0.62-0.26c-0.16-0.16-0.26-0.39-0.26-0.62c0-0.23,0.09-0.46,0.26-0.62   c0.16-0.16,0.39-0.26,0.62-0.26h58.69c0.23,0,0.46,0.09,0.62,0.26c0.16,0.16,0.26,0.39,0.26,0.62c0,0.23-0.09,0.46-0.26,0.62   c-0.16,0.16-0.39,0.26-0.62,0.26H110.51z"/>
  <path fill="#084A70" d="M123.55,112.12h-71.7c-0.23,0-0.46-0.09-0.62-0.26c-0.16-0.16-0.26-0.39-0.26-0.62s0.09-0.46,0.26-0.62   s0.39-0.26,0.62-0.26h71.7c0.23,0,0.46,0.09,0.62,0.26c0.16,0.16,0.26,0.39,0.26,0.62s-0.09,0.46-0.26,0.62   C124,112.02,123.78,112.12,123.55,112.12z"/>
  <path fill="#084A70" d="M123.55,122.65h-71.7c-0.23,0-0.46-0.09-0.62-0.26c-0.16-0.16-0.26-0.39-0.26-0.62c0-0.23,0.09-0.46,0.26-0.62   c0.16-0.16,0.39-0.26,0.62-0.26h71.7c0.23,0,0.46,0.09,0.62,0.26c0.16,0.16,0.26,0.39,0.26,0.62c0,0.23-0.09,0.46-0.26,0.62   C124,122.56,123.78,122.65,123.55,122.65z"/>
  <path fill="#084A70" d="M116.72,138.98c-0.98,0-1.96-0.15-2.89-0.46c-1.09-0.4-2.13-0.91-3.11-1.52c-0.36-0.21-0.73-0.44-1.09-0.61   c-0.98-0.53-2.44-1.2-3.86-1.06c-1.09,0.11-2.3,0.88-2.44,1.99c-0.03,0.23-0.15,0.44-0.33,0.59s-0.42,0.21-0.65,0.18   c-0.23-0.03-0.44-0.15-0.59-0.33c-0.14-0.18-0.21-0.42-0.18-0.65c0.25-2.05,2.25-3.35,4-3.5c1.9-0.19,3.69,0.63,4.87,1.26   c0.38,0.21,0.76,0.44,1.14,0.64c0.89,0.55,1.83,1.01,2.8,1.38c1.21,0.39,2.49,0.48,3.74,0.25c1.25-0.23,2.42-0.76,3.42-1.55   c0.09-0.08,0.19-0.14,0.3-0.17c0.11-0.04,0.23-0.05,0.35-0.04c0.12,0.01,0.23,0.04,0.34,0.1c0.1,0.06,0.2,0.13,0.27,0.22   c0.07,0.09,0.13,0.2,0.16,0.31c0.03,0.11,0.04,0.23,0.03,0.35c-0.02,0.12-0.05,0.23-0.11,0.33c-0.06,0.1-0.14,0.19-0.23,0.26   C120.95,138.27,118.86,138.99,116.72,138.98z"/>
  <path fill="#084A70" d="M72.92,91.06H51.84c-0.23,0-0.46-0.09-0.62-0.26c-0.16-0.16-0.26-0.39-0.26-0.62c0-0.23,0.09-0.46,0.26-0.62   c0.16-0.16,0.39-0.26,0.62-0.26h21.08c0.23,0,0.46,0.09,0.62,0.26c0.16,0.16,0.26,0.39,0.26,0.62c0,0.23-0.09,0.46-0.26,0.62   C73.38,90.97,73.15,91.06,72.92,91.06z"/>
  <path fill="#1E8BCB" d="M132.56,84.55c-3.25,0-6.42-0.96-9.12-2.77c-2.7-1.8-4.81-4.37-6.05-7.37c-1.24-3-1.57-6.3-0.93-9.49   s2.2-6.11,4.49-8.41c2.3-2.3,5.22-3.86,8.41-4.49c3.19-0.63,6.49-0.31,9.49,0.93c3,1.24,5.57,3.35,7.37,6.05   c1.8,2.7,2.77,5.88,2.77,9.12c0,4.35-1.74,8.53-4.82,11.61C141.09,82.81,136.91,84.55,132.56,84.55z M132.56,54.33   c-2.73,0-5.4,0.81-7.66,2.33c-2.27,1.52-4.04,3.67-5.08,6.19c-1.04,2.52-1.32,5.29-0.78,7.97s1.85,5.13,3.78,7.06   c1.93,1.93,4.39,3.24,7.06,3.78s5.45,0.26,7.97-0.79c2.52-1.04,4.68-2.81,6.19-5.08c1.52-2.27,2.33-4.94,2.33-7.66   c0-3.66-1.46-7.17-4.04-9.75C139.72,55.79,136.22,54.33,132.56,54.33z"/>
  <path fill="#1E8BCB" d="M133.87,60.57h-2.63v15.11h2.63V60.57z"/>
  <path fill="#1E8BCB" d="M140.11,66.81H125v2.63h15.11V66.81z"/>
</svg>
