<svg xmlns="http://www.w3.org/2000/svg" version="1.1" viewBox="0 0 114 40">
  <path fill="#FFFFFF" d="M27.8,40c-.2,0-.4,0-.6-.1l-10.1-3.2-9.9,3.2c-.6.2-1.2.1-1.7-.2-.4-.3-.7-.8-.7-1.3v-6.6h2.2v5.9l9.5-3c.4-.2.9-.2,1.3,0l9.5,3v-5.9h2.2v6.7c0,.5-.3,1-.7,1.3-.3.2-.6.3-1,.3Z"/>
  <path fill="#FFFFFF" d="M21.3,32.9c-1.1,0-2.1-.5-3-.9-.4-.2-1-.5-1.2-.5-.2,0-.8.3-1.2.5-.9.4-1.8.9-3,.9s-.8,0-1.1-.2c-1.6-.5-2.4-2-3-3.1-.2-.3-.5-.9-.6-1-.1,0-.8-.2-1.2-.3-1.2-.2-2.8-.5-3.8-1.9-1-1.4-.8-3-.6-4.2,0-.4.1-1,0-1.2,0-.1-.5-.6-.8-.9-.8-.9-2-2.1-2-3.8s1.2-2.9,2-3.8c.3-.3.7-.7.8-.9,0-.2,0-.8-.1-1.2-.2-1.2-.4-2.8.6-4.2,1-1.4,2.6-1.7,3.8-1.9.4,0,1-.2,1.2-.3.1-.1.4-.7.6-1,.6-1.1,1.4-2.5,3-3.1.4-.1.7-.2,1.1-.2,1.1,0,2.1.5,3,.9.4.2,1,.5,1.2.5.2,0,.8-.3,1.2-.5.9-.4,1.8-.9,3-.9s.8,0,1.1.2c1.6.5,2.4,2,3,3.1.2.3.5.9.6,1,.1,0,.8.2,1.2.3,1.2.2,2.8.5,3.8,1.9,1,1.4.8,3,.6,4.2,0,.4-.1,1,0,1.2,0,.1.5.6.8.8.8.9,2,2.1,2,3.8s-1.2,2.9-2,3.8c-.3.3-.7.7-.8.9,0,.2,0,.8.1,1.2.2,1.2.4,2.8-.6,4.2-1,1.4-2.6,1.7-3.8,1.9-.4,0-1,.2-1.2.3-.1.1-.4.7-.6,1-.6,1.1-1.4,2.5-3,3.1-.4.1-.8.2-1.1.2h0ZM17.1,29.3c.7,0,1.4.4,2.1.7.9.4,1.8.8,2.5.6.8-.3,1.2-1.1,1.7-2,.4-.7.7-1.4,1.3-1.8.5-.4,1.3-.5,2.1-.7.9-.2,1.9-.3,2.4-1,.5-.6.3-1.6.2-2.6-.1-.8-.2-1.6,0-2.2.2-.6.7-1.1,1.3-1.7.7-.7,1.4-1.4,1.4-2.3s-.7-1.5-1.4-2.3c-.6-.6-1.1-1.1-1.3-1.7-.2-.6-.1-1.4,0-2.2.1-.9.3-1.9-.2-2.6-.5-.6-1.4-.8-2.4-1-.8-.1-1.6-.3-2.1-.7-.5-.4-.9-1-1.3-1.8-.5-.9-.9-1.8-1.7-2-.7-.2-1.6.2-2.5.6-.7.3-1.5.7-2.1.7s-1.4-.4-2.1-.7c-.9-.4-1.8-.8-2.5-.6-.8.3-1.2,1.1-1.7,2-.4.7-.7,1.4-1.3,1.8-.5.4-1.3.5-2.1.7-.9.2-1.9.3-2.4,1-.5.6-.3,1.6-.2,2.6.1.8.2,1.6,0,2.2-.2.6-.7,1.1-1.3,1.7-.7.7-1.4,1.4-1.4,2.3s.7,1.5,1.4,2.3c.6.6,1.1,1.1,1.3,1.7.2.6,0,1.4,0,2.2-.1.9-.3,1.9.2,2.6.5.6,1.4.8,2.4,1,.8.1,1.6.3,2.1.7.5.4.9,1.1,1.3,1.8.5.9.9,1.7,1.7,2,.7.2,1.6-.2,2.5-.6.7-.3,1.5-.7,2.1-.7h0Z"/>
  <path fill="#FFFFFF" d="M47.3,9v4.5h-1.5V2.6h4c2,0,3.4,1.4,3.4,3.2s-1.4,3.2-3.4,3.2h-2.5,0ZM49.5,7.7c1.3,0,2.1-.7,2.1-1.8s-.8-1.9-2.1-1.9h-2.2v3.7h2.2Z"/>
  <path fill="#FFFFFF" d="M58.9,12.4c-.4.7-1.1,1.3-2.3,1.3-2.2,0-3.5-1.7-3.5-3.9s1.4-3.8,3.5-3.8,2,.6,2.3,1.2v-1h1.4v6c0,.7,0,1.2,0,1.4h-1.4c0-.2,0-.6,0-1h0ZM56.7,12.4c1.3,0,2.1-1.1,2.1-2.7s-.8-2.6-2.1-2.6-2.2,1-2.2,2.6.8,2.7,2.2,2.7Z"/>
  <path fill="#FFFFFF" d="M66,7.6c-.2,0-.4,0-.6,0-1.2,0-2,.6-2,2.3v3.7h-1.4v-7.4h1.4v1.3c.5-1.1,1.5-1.4,2.2-1.4s.4,0,.5,0v1.5h0Z"/>
  <path fill="#FFFFFF" d="M67.6,9.8c0,1.7,1.1,2.6,2.3,2.6s1.9-.9,2.1-1.5l1.3.6c-.4,1.1-1.4,2.3-3.3,2.3s-3.7-1.7-3.7-3.9,1.6-3.9,3.7-3.9,3,1.2,3.3,2.3l-1.3.6c-.2-.7-.7-1.6-2-1.6s-2.2.9-2.2,2.6h0Z"/>
  <path fill="#FFFFFF" d="M75.7,13.5h-1.4V2.4h1.4v4.6c.5-.8,1.4-1.1,2.2-1.1,1.8,0,2.6,1.3,2.6,2.9v4.7h-1.4v-4.4c0-1-.4-1.9-1.7-1.9s-1.7.9-1.7,2v4.3h0Z"/>
  <path fill="#FFFFFF" d="M82.1,13.5v-7.4h1.4v1c.5-.8,1.4-1.2,2.2-1.2s1.8.4,2.2,1.4c.6-1.1,1.5-1.4,2.5-1.4s2.5.9,2.5,2.8v4.8h-1.4v-4.6c0-1-.5-1.7-1.6-1.7s-1.7.8-1.7,1.9v4.5h-1.4v-4.6c0-1-.5-1.7-1.6-1.7s-1.7.8-1.7,1.9v4.5h-1.4,0Z"/>
  <path fill="#FFFFFF" d="M101.1,11.4c-.4,1.3-1.6,2.3-3.3,2.3s-3.7-1.4-3.7-3.9,1.7-3.9,3.5-3.9,3.5,1.6,3.5,3.9,0,.4,0,.5h-5.6c0,1.3,1,2.2,2.2,2.2s1.8-.7,2.1-1.5l1.2.4h0ZM99.6,9c0-1.1-.7-1.9-2-1.9s-2,.9-2,1.9h4Z"/>
  <path fill="#FFFFFF" d="M103.7,13.5h-1.4v-7.4h1.4v1.1c.5-.9,1.4-1.3,2.3-1.3,1.8,0,2.6,1.3,2.6,2.9v4.7h-1.4v-4.4c0-1-.4-1.9-1.7-1.9s-1.7.9-1.7,2v4.3Z"/>
  <path fill="#FFFFFF" d="M112.1,6.1h1.6v1.3h-1.6v3.8c0,.7.3,1,1,1s.4,0,.6,0v1.2c-.1,0-.5.1-1,.1-1.3,0-2.1-.8-2.1-2.1v-4.1h-1.4v-1.3h.4c.8,0,1.1-.5,1.1-1.1v-1.2h1.3v2.3h0Z"/>
  <path fill="#FFFFFF" d="M55.6,30.4h-6.7l-1.5,3.9h-2.8l6.1-15.7h3.1l6.1,15.7h-2.9l-1.5-3.9ZM49.8,27.9h4.8l-2.4-6.4-2.4,6.4Z"/>
  <path fill="#FFFFFF" d="M69.4,23.5l2.5,7.5,2.2-7.5h2.6l-3.5,10.8h-2.6l-2.7-7.8-2.6,7.8h-2.6l-3.5-10.8h2.8l2.2,7.5,2.5-7.5h2.7Z"/>
  <path fill="#FFFFFF" d="M82.1,34.6c-3.2,0-5.2-2.5-5.2-5.7s2.1-5.7,5.2-5.7,2.9,1,3.2,1.7v-1.4h2.5v8.8c0,.9,0,1.8.1,2h-2.5c0-.2-.1-.8-.1-1.6-.5,1-1.6,1.8-3.2,1.8h0ZM82.4,32.4c1.7,0,2.9-1.4,2.9-3.5s-1.2-3.4-2.9-3.4-2.9,1.3-2.9,3.4,1.1,3.5,2.9,3.5Z"/>
  <path fill="#FFFFFF" d="M96.3,26c-.3,0-.6,0-.8,0-2,0-2.9,1.2-2.9,3.2v5.1h-2.6v-10.8h2.5v1.7c.5-1.2,1.7-1.9,3.1-1.9s.6,0,.7,0v2.6Z"/>
  <path fill="#FFFFFF" d="M107.3,32.3c0,1,0,1.8.1,2h-2.5c0-.2-.1-1-.1-1.4-.5.9-1.6,1.7-3.2,1.7-3.1,0-5.2-2.4-5.2-5.7s2.1-5.7,5.1-5.7,2.8.9,3.2,1.6v-6.5h2.5v14.1h0ZM101.9,32.3c1.7,0,2.9-1.4,2.9-3.5s-1.2-3.4-2.8-3.4-2.9,1.3-2.9,3.4,1.2,3.4,2.9,3.4h0Z"/>
</svg>
