<svg xmlns="http://www.w3.org/2000/svg" version="1.1" x="0px" y="0px" viewBox="0 0 348.2 116.6" style="enable-background:new 0 0 348.2 116.6;">
  <path fill="#1BAECB" d="M42.8,69.8C42.8,69.8,42.8,69.8,42.8,69.8c-1.6-4.6-6-7.9-11.7-7.9c-5.9,0-10.1,3.4-11.7,7.9c0,0,0,0,0.1,0    c-0.1,0.2-0.2,0.5-0.2,0.8c0,1.1,0.9,1.9,1.9,1.9c0.6,0,1.2-0.3,1.5-0.8c0,0,0,0,0,0c2.1-1.8,4.9-3,8.4-3c3.4,0,6.2,1.2,8.4,3    c0,0,0,0,0,0c0.3,0.5,0.9,0.8,1.6,0.8c1.1,0,1.9-0.9,1.9-1.9C43,70.3,42.9,70.1,42.8,69.8z"/>
  <path fill="#1BAECB" d="M85.4,69.8C85.4,69.8,85.4,69.8,85.4,69.8c-1.6-4.6-6-7.9-11.7-7.9c-5.9,0-10.1,3.4-11.7,7.9c0,0,0,0,0.1,0    c-0.1,0.2-0.2,0.5-0.2,0.8c0,1.1,0.9,1.9,1.9,1.9c0.6,0,1.2-0.3,1.5-0.8c0,0,0,0,0,0c2.1-1.8,4.9-3,8.4-3c3.4,0,6.2,1.2,8.4,3    c0,0,0,0,0,0c0.3,0.5,0.9,0.8,1.6,0.8c1.1,0,1.9-0.9,1.9-1.9C85.6,70.3,85.5,70.1,85.4,69.8z"/>
  <path fill="#0491AC" d="M102.9,8.5c-0.3,0-0.6,0-0.8-0.1c-0.3-0.1-0.5-0.1-0.8-0.2c-0.3-0.1-0.5-0.2-0.7-0.4    c-0.2-0.2-0.5-0.3-0.6-0.5c-0.8-0.8-1.3-1.9-1.3-3c0-1.1,0.5-2.2,1.3-3c0.2-0.2,0.4-0.4,0.6-0.5c0.2-0.2,0.5-0.3,0.7-0.4    c0.3-0.1,0.5-0.2,0.8-0.2c1.4-0.3,2.9,0.2,3.9,1.2c0.8,0.8,1.3,1.9,1.3,3c0,1.1-0.5,2.2-1.3,3C105.1,8.1,104,8.5,102.9,8.5z"/>
  <path fill="#0491AC" d="M102.7,60.7c-1.2,0-2.2,1-2.2,2.2v6.7v1.5v37c0,2.3-1.9,4.2-4.2,4.2H8.5c-2.3,0-4.2-1.9-4.2-4.2v-71   c0-2.3,1.9-4.2,4.2-4.2h82.1c1.2,0,2.2-1,2.2-2.2s-1-2.2-2.2-2.2H8.5c-4.7,0-8.5,3.8-8.5,8.5v71c0,4.7,3.8,8.5,8.5,8.5h87.8   c4.7,0,8.5-3.8,8.5-8.5v-37v-1.5v-6.7C104.8,61.7,103.9,60.7,102.7,60.7z"/>
  <path fill="#0491AC" stroke="#0391AD" stroke-width="1.7502" stroke-miterlimit="10" d="M131.6,96.2c0,0.6-0.5,0.6-0.5,0.6h-2.4c0,0-0.6,0-0.6-0.6V57h8.9c8.1,0,11.4,4.9,11.4,11.9    c0,0.1,0,1.5,0,1.5c0,6.9-3.3,11.9-11.4,11.9h-5.4V96.2z M131.6,78.9h5.4c4.8,0,7.9-2.2,7.9-8.6v-1.5c0-6.4-3.1-8.6-7.9-8.6h-5.4    V78.9z"/>
  <path fill="#0491AC" stroke="#0391AD" stroke-width="1.7502" stroke-miterlimit="10" d="M152.4,89.5c0-4.2,1.6-6.5,6.7-7.8l8.2-1.9v-3.1c-0.2-3.2-2.3-5.6-5.6-5.6c-3.4,0-5.3,1.9-5.3,4.9    c0,0.3-0.3,0.4-0.3,0.4h-2.7c0,0-0.3-0.1-0.3-0.4c0-4.9,3.7-8.1,8.6-8.1c4.7,0,8.9,3.1,8.9,9.6v18.6c0,0.6-0.5,0.6-0.5,0.6h-2.2    c0,0-0.6,0-0.6-0.6v-2c-1.8,2.4-4.6,3-6.6,3C155.4,97.1,152.4,94.2,152.4,89.5z M167.3,87.4v-4.1l-7.9,1.8    c-3.3,0.7-3.7,2.7-3.7,4.1c0,2.7,2,4.8,5.1,4.8C164.6,94,167.3,90.8,167.3,87.4z"/>
  <path fill="#0491AC" stroke="#0391AD" stroke-width="1.7502" stroke-miterlimit="10" d="M181.5,77.8v18.4c0,0.6-0.6,0.6-0.6,0.6h-2.1c0,0-0.6,0-0.6-0.6V68.9c0-0.6,0.6-0.6,0.6-0.6h2.1    c0,0,0.6,0,0.6,0.6v1.6c1.2-2,4.1-2.6,6.1-2.6c0.6,0,0.6,0.6,0.6,0.6v2.1c0,0,0,0.6-0.6,0.6C183.4,71.3,181.5,73.5,181.5,77.8z"/>
  <path fill="#0491AC" stroke="#0391AD" stroke-width="1.7502" stroke-miterlimit="10" d="M208.6,87.3h2c0.5,0,0.7,0.2,0.7,0.7c0,4.4-2.7,9.1-9,9.1c-5.6,0-9.3-3.2-9.3-10.2v-8.5    c0-7.5,3.7-10.4,9.3-10.4c3.3,0,7.5,1.2,8.5,6.9c0.1,0.3,0.1,0.6-0.3,0.7l-2.1,0.6c-0.3,0.1-0.6-0.1-0.6-0.5    c-0.2-2-1.6-4.6-5.4-4.6c-4.1,0-6,2.4-6,7.4v8.4c0,4,2,7,6,7c4,0,5.7-3.4,5.7-6.1C208,87.3,208.6,87.3,208.6,87.3z"/>
  <path fill="#0491AC" stroke="#0391AD" stroke-width="1.7502" stroke-miterlimit="10" d="M222.5,96.2c0,0.6-0.6,0.6-0.6,0.6h-2.2c0,0-0.6,0-0.6-0.6V57.6c0-0.6,0.5-0.6,0.5-0.6h2.2c0,0,0.6,0,0.6,0.6    v12.7c1-1.7,3.6-2.3,6-2.3c5.5,0,8.9,3.2,8.9,9.6v18.6c0,0.6-0.5,0.6-0.5,0.6h-2.2c0,0-0.6,0-0.6-0.6V77.6c0-3.3-1.8-6.5-5.6-6.5    c-3.9,0-6,2.6-6,6.5V96.2z"/>
  <path fill="#0491AC" stroke="#0391AD" stroke-width="1.7502" stroke-miterlimit="10" d="M249.4,61.3c0,0.6-0.5,0.6-0.5,0.6h-3c0,0-0.6,0-0.6-0.6v-3.7c0-0.6,0.5-0.6,0.5-0.6h3c0,0,0.6,0,0.6,0.6    V61.3z M245.7,68.9c0-0.6,0.5-0.6,0.5-0.6h2.2c0,0,0.6,0,0.6,0.6v27.2c0,0.6-0.5,0.6-0.5,0.6h-2.2c0,0-0.6,0-0.6-0.6V68.9z"/>
  <path fill="#0491AC" stroke="#0391AD" stroke-width="1.7502" stroke-miterlimit="10" d="M275.6,88.3c0,5.7-3.7,8.8-9.1,8.8s-9.1-3.7-9.1-8.8V77.4c0-5.4,3.6-9.5,9.6-9.5c4.9,0,8.7,3.3,8.7,7.6v4.2    c0,1-0.5,1.9-1.9,2.2l-13.1,2.4c0,1,0,3.9,0,3.9c0.2,3.2,2.2,5.6,5.8,5.6c3.7,0,5.9-2.2,5.9-5.6c0-0.3,0.3-0.4,0.3-0.4h2.6    C275.3,87.9,275.6,88.1,275.6,88.3z M272.3,75.7c0-3-2.3-4.5-5.7-4.5c-4.4,0-6,2.8-6,6.3v3.7l11.7-2.2V75.7z"/>
  <path fill="#0491AC" stroke="#0391AD" stroke-width="1.7502" stroke-miterlimit="10" d="M305.4,85.2c0,5.8-3.3,11.6-11.5,11.6h-10V57h9.4c7.7,0,11,4.4,11,10.3c0,5.2-3.3,7.9-5.4,8.2    C303.7,76.6,305.4,80.4,305.4,85.2z M287.3,74.2h5c5.3,0,8.5-2.4,8.5-6.9c0-4.5-2.3-7-7.5-7h-6V74.2z M287.3,77.4v16.1h6.6    c4.8,0,8.1-2.8,8.1-8.2c0-6.5-3.7-7.9-8.6-7.9H287.3z"/>
  <path fill="#0491AC" stroke="#0391AD" stroke-width="1.7502" stroke-miterlimit="10" d="M329.3,78.5v8.5c0,6.2-2.8,10.2-9.1,10.2c-6.4,0-9.1-4-9.1-10.2v-8.5c0-6.8,3-10.5,9.1-10.5    C326.4,68,329.3,71.7,329.3,78.5z M326.1,87v-8.5c0-5.6-2.4-7.3-5.8-7.3s-5.8,1.8-5.8,7.3V87c0,4.4,2.5,7,5.8,7    C323.6,94,326.1,91.4,326.1,87z"/>
  <path fill="#0491AC" stroke="#0391AD" stroke-width="1.7502" stroke-miterlimit="10" d="M345.9,96.7c-5.6,0-8.7-2.3-8.7-8.6V72h-2.4c-0.6,0-0.6-0.5-0.6-0.5v-2.1c0,0,0-0.6,0.6-0.6h2.4V58.7    c0-0.6,0.5-0.6,0.5-0.6h2.2c0,0,0.6,0,0.6,0.6v10.2h6c0.6,0,0.6,0.5,0.6,0.5v2.1c0,0,0,0.6-0.6,0.6h-6v16.1c0,4.5,1.6,5.4,5.4,5.4    h0.3c0.6,0,0.6,0.5,0.6,0.5v2.1c0,0,0,0.6-0.6,0.6H345.9z"/>
  <path fill="#0491AC" d="M102.6,53.5c-1.2,0-2.2-1-2.2-2.2V16.7c0-1.2,1-2.2,2.2-2.2s2.2,1,2.2,2.2v34.6    C104.8,52.5,103.8,53.5,102.6,53.5z"/>
</svg>
