<svg xmlns="http://www.w3.org/2000/svg" width="165" height="40" viewBox="0 0 165 40" fill="none">
  <path d="M49.9811 39.8991L49.6404 39.0158H47.4448L47.1041 39.8991H46.2208L48.0379 35.2682H49.0473L50.8644 39.8991H49.9811ZM48.5426 35.9496L47.6719 38.2966H49.4133L48.5426 35.9496Z" fill="var(--font-colors-body-base, #555555)"/>
  <path d="M55.5836 39.8991L53.1609 36.5174V39.8991H52.3533V35.2682H53.1861L55.5583 38.5489V35.2682H56.3659V39.8991H55.5836Z" fill="var(--font-colors-body-base, #555555)"/>
  <path d="M48.9968 13.8044V19.3943C48.9968 20.8454 50.0189 21.8927 51.5962 21.8927C52.8959 21.8927 53.7918 21.123 53.7918 19.3943V13.8044C53.7918 12.2902 53.1482 11.205 51.47 11.205C49.653 11.205 48.9968 12.5678 48.9968 13.8044ZM48.1892 8.8328C48.6561 8.8328 49.0221 9.19873 49.0221 9.7287V9.91797C49.4511 9.27444 50.5615 8.61829 51.8612 8.61829C54.7634 8.61829 56.5804 10.4479 56.5804 14.0189V19.2429C56.5804 22.2082 54.6624 24.4921 51.9747 24.4921C50.8265 24.4921 49.4763 24 48.9463 23.1041V29.9306C48.9463 30.4606 48.5804 30.8265 48.1135 30.8265H47.0284C46.5615 30.8265 46.1956 30.4606 46.1956 29.9306V9.7287C46.1956 9.19873 46.5741 8.8328 47.0284 8.8328H48.1766H48.1892Z" fill="var(--font-colors-body-base, #555555)"/>
  <path d="M62.0189 19.9243C62.0189 20.9211 62.8265 21.9054 64 21.9054C65.6025 21.9054 66.7129 20.3912 66.7129 18.9653V17.4259L63.47 18.1956C62.2334 18.4732 62.0189 19.3691 62.0189 19.9243ZM69.5268 14.082V23.3817C69.5268 23.899 69.1609 24.2776 68.694 24.2776H67.6088C67.1419 24.2776 66.776 23.9117 66.776 23.3817V23.1041C66.2208 23.9369 64.8959 24.4921 63.6845 24.4921C61.2492 24.4921 59.205 22.5489 59.205 20.0505C59.205 17.552 60.1262 16.3154 63.0284 15.6088L66.7003 14.7129V13.4132C66.7003 12.1136 65.7413 11.2177 64.4795 11.2177C63.0536 11.2177 62.4101 11.9243 62.4101 12.8202C62.4101 13.3754 62.0315 13.7161 61.5773 13.7161H60.4416C59.9747 13.7161 59.6088 13.3754 59.6088 12.8202C59.6088 10.2587 61.6782 8.61829 64.4921 8.61829C67.1419 8.61829 69.5268 10.3848 69.5268 14.082Z" fill="var(--font-colors-body-base, #555555)"/>
  <path d="M79.7098 9.45109V10.347C79.7098 10.8139 79.3438 11.205 78.8139 11.205C76.0378 11.205 75.5457 12.5678 75.5457 13.8044V23.3817C75.5457 23.899 75.1798 24.2776 74.7129 24.2776H73.5646C73.0978 24.2776 72.7318 23.9117 72.7318 23.3817V9.7287C72.7318 9.19873 73.0978 8.8328 73.5646 8.8328H74.7129C75.1798 8.8328 75.5457 9.19873 75.5457 9.7287V9.91797C76.5047 8.95898 76.9968 8.61829 78.8139 8.61829C79.3438 8.61829 79.7098 8.99683 79.7098 9.45109Z" fill="var(--font-colors-body-base, #555555)"/>
  <path d="M91.306 12.2902C91.369 12.694 91.3943 13.0599 90.6624 13.2744L89.6151 13.5268C89.2492 13.6151 88.7192 13.653 88.5678 12.8454C88.3785 11.9243 87.8612 11.205 86.4353 11.205C84.8075 11.205 84.0252 12.164 84.0252 14.3848V18.9527C84.0252 20.9968 84.8959 21.8927 86.4353 21.8927C87.9747 21.8927 88.7823 20.6814 88.7823 19.6341C88.7823 18.7129 89.6782 18.7129 89.6782 18.7129H90.6372C91.2176 18.7129 91.5962 18.9905 91.5962 19.6719C91.5962 23.3438 88.5678 24.4921 86.4353 24.4921C83.041 24.4921 81.2239 22.612 81.2239 18.9653V14.3975C81.2239 10.1703 83.9369 8.61829 86.4353 8.61829C88.4795 8.61829 90.7886 9.45109 91.3186 12.2902" fill="var(--font-colors-body-base, #555555)"/>
  <path d="M96.3281 2.70032C96.7949 2.70032 97.1609 3.06625 97.1609 3.59622V9.95584C97.2871 9.61514 98.1199 8.65615 100.038 8.65615C102.94 8.65615 104.631 10.4732 104.631 14.0694V23.4196C104.631 23.9495 104.265 24.3155 103.798 24.3155H102.65C102.183 24.3155 101.817 23.9495 101.817 23.4196V13.8423C101.817 12.3281 101.287 11.2555 99.6214 11.2555C97.7918 11.2555 97.1482 12.6183 97.1482 13.8423V23.4196C97.1482 23.9495 96.7823 24.3155 96.3154 24.3155H95.1798C94.7129 24.3155 94.347 23.9495 94.347 23.4196V3.59622C94.347 3.06625 94.7255 2.70032 95.1798 2.70032H96.3154H96.3281Z" fill="var(--font-colors-body-base, #555555)"/>
  <path d="M109.842 8.88321C110.309 8.88321 110.675 9.24914 110.675 9.77911V9.99362C111.42 8.75703 112.896 8.6687 113.514 8.6687C114.372 8.6687 115.457 9.0094 116.227 10.1577C117.035 8.92107 118.574 8.6687 119.558 8.6687C122.006 8.6687 124.164 9.75387 124.164 14.0819V23.4321C124.164 24.328 123.293 24.328 123.293 24.328H122.246C122.246 24.328 121.35 24.328 121.35 23.4321V14.0819C121.35 12.5678 121.098 11.2681 119.558 11.2681C118.7 11.2681 117.64 12.164 117.64 13.1861V23.4321C117.64 24.328 116.782 24.328 116.782 24.328H115.697C115.697 24.328 114.839 24.328 114.839 23.4321V13.1861C114.839 12.3532 114.41 11.2681 113.073 11.2681C111.281 11.2681 110.662 12.8454 110.662 14.0819V23.4321C110.662 24.328 109.767 24.328 109.767 24.328H108.719C108.719 24.328 107.861 24.328 107.861 23.4321V9.77911C107.861 9.24914 108.227 8.88321 108.694 8.88321H109.83H109.842Z" fill="var(--font-colors-body-base, #555555)"/>
  <path d="M130.069 13.817V15.3564L134.826 14.4353V13.1104C134.826 11.8738 133.867 11.2555 132.517 11.2555C130.726 11.2555 130.082 12.429 130.082 13.817M137.64 13.1104V15.1798C137.64 15.9495 137.237 16.694 136.151 16.8706L130.069 18.0189V19.5331C130.095 20.8328 130.991 21.9432 132.442 21.9432C134.233 21.9432 134.814 20.7697 134.814 19.5962C134.814 18.6751 135.71 18.6751 135.71 18.6751H136.669C137.262 18.6751 137.628 18.9527 137.628 19.634C137.628 22.347 135.647 24.5426 132.442 24.5426C129.237 24.5426 127.255 22.4101 127.255 19.5331V14.0694C127.255 10.9779 129.173 8.65613 132.656 8.65613C135.47 8.65613 137.628 10.3596 137.628 13.0978" fill="var(--font-colors-body-base, #555555)"/>
  <path d="M142.675 8.88321C143.142 8.88321 143.508 9.24914 143.508 9.77911V9.96839C143.785 9.53936 144.871 8.6687 146.385 8.6687C149.287 8.6687 150.99 10.4857 150.99 14.0819V23.4321C150.99 23.9621 150.625 24.328 150.158 24.328H149.022C148.555 24.328 148.189 23.9621 148.189 23.4321V13.8548C148.189 12.3406 147.659 11.2681 145.994 11.2681C144.177 11.2681 143.52 12.6308 143.52 13.8548V23.4321C143.52 23.9621 143.155 24.328 142.688 24.328H141.539C141.085 24.328 140.707 23.9621 140.707 23.4321V9.77911C140.707 9.24914 141.085 8.88321 141.539 8.88321H142.688H142.675Z" fill="var(--font-colors-body-base, #555555)"/>
  <path d="M154.057 9.16087V4.18927C154.057 3.3186 154.927 3.3186 154.927 3.3186H155.975C155.975 3.3186 156.871 3.3186 156.871 4.18927V9.16087H159.255C160.151 9.16087 160.151 10.0189 160.151 10.0189V10.8517C160.151 10.8517 160.151 11.7476 159.255 11.7476H156.871V19.3691C156.871 21.1609 157.741 21.7161 159.003 21.7161H159.495C160.353 21.7161 160.353 22.5489 160.353 22.5489V23.4195C160.353 23.4195 160.353 24.3154 159.495 24.3154H159.003C155.785 24.3154 154.057 23.0158 154.057 19.3691V9.16087Z" fill="var(--font-colors-body-base, #555555)"/>
  <path d="M162.99 10.3849H163.129C163.293 10.3849 163.432 10.3344 163.432 10.1956C163.432 10.0821 163.344 9.99374 163.155 9.99374C163.079 9.99374 163.016 9.99374 162.99 10.0064V10.3723V10.3849ZM162.978 11.1168H162.675V9.81709C162.801 9.80447 162.965 9.77923 163.18 9.77923C163.432 9.77923 163.533 9.81708 163.621 9.88018C163.697 9.93065 163.76 10.0316 163.76 10.1578C163.76 10.3218 163.647 10.4228 163.495 10.4606C163.621 10.5111 163.685 10.612 163.722 10.7887C163.76 10.9906 163.798 11.0537 163.823 11.1042H163.508C163.508 11.1042 163.445 10.9527 163.407 10.7887C163.382 10.6499 163.306 10.5868 163.142 10.5868H163.003V11.1042L162.978 11.1168ZM162.183 10.448C162.183 11.0284 162.625 11.4827 163.192 11.4827C163.76 11.4827 164.177 11.0284 164.177 10.4606C164.177 9.89279 163.748 9.4133 163.18 9.4133C162.612 9.4133 162.183 9.88018 162.183 10.448ZM164.517 10.448C164.517 11.1799 163.937 11.7477 163.192 11.7477C162.448 11.7477 161.855 11.1672 161.855 10.448C161.855 9.72876 162.448 9.14832 163.192 9.14832C163.937 9.14832 164.517 9.71614 164.517 10.448Z" fill="var(--font-colors-body-base, #555555)"/>
  <path d="M33.9054 27.735H3.07886V3.07886H24.6561V0H0V30.8265H36.9842V12.3281H33.9054V27.735Z" fill="var(--font-colors-body-base, #555555)"/>
  <path d="M36.9842 6.17029H33.9053V9.24915H36.9842V6.17029Z" fill="#0093B2"/>
  <path d="M30.8139 0H27.735V3.07886H30.8139V0Z" fill="#0093B2"/>
  <path d="M36.9842 0H33.9053V3.07886H36.9842V0Z" fill="#0093B2"/>
  <path d="M11.836 16.6561C11.205 16.6561 11.0536 17.123 11.0536 17.552V19.4826C11.0536 19.9874 11.3438 20.3533 11.8864 20.3533C12.3407 20.3533 12.5804 20.0883 12.5804 19.4826V17.552C12.5804 17.0221 12.4164 16.6561 11.8486 16.6561H11.836Z" fill="#0093B2"/>
  <path d="M11.5458 13.8927C8.56784 13.8927 6.15775 16.3028 6.15775 19.2807C6.15775 22.2586 8.56784 24.6687 11.5458 24.6687C14.5237 24.6687 16.9338 22.2586 16.9338 19.2807C16.9338 16.3028 14.5237 13.8927 11.5458 13.8927ZM13.7035 19.4321C13.7035 20.4542 13.0221 21.2492 12.101 21.2492C11.7098 21.2492 11.041 21.0725 11.041 20.7697V23.1293C11.041 23.3059 10.8139 23.4195 10.6625 23.4195H10.2839C10.1199 23.4195 9.89276 23.3186 9.89276 23.1293V16.1514C9.89276 15.9747 10.1199 15.7981 10.2839 15.7981H10.6751C10.8391 15.7981 11.041 15.9621 11.041 16.1514V16.2145C11.041 15.9873 11.5962 15.7602 12.0505 15.7602C13.06 15.7602 13.7035 16.3911 13.7035 17.6277V19.4321Z" fill="#0093B2"/>
  <path d="M61.2492 35.2556H60.0504V39.8991H61.2492V35.2556Z" fill="var(--font-colors-body-base, #555555)"/>
  <path d="M66.2082 39.8991L64.2523 37.2114V39.8991H63.0536V35.2556H64.2902L66.1703 37.8045V35.2556H67.369V39.8991H66.2082Z" fill="var(--font-colors-body-base, #555555)"/>
  <path d="M68.8328 39.2429L69.4637 38.347C69.7918 38.675 70.3091 38.9526 70.9401 38.9526C71.3565 38.9526 71.5962 38.7886 71.5962 38.5741C71.5962 37.9432 68.9716 38.4479 68.9716 36.6687C68.9716 35.8864 69.6277 35.1924 70.8265 35.1924C71.571 35.1924 72.2145 35.4195 72.7066 35.8359L72.0505 36.694C71.6593 36.3785 71.1546 36.2145 70.7003 36.2145C70.347 36.2145 70.1956 36.3533 70.1956 36.5425C70.1956 37.1356 72.8202 36.7066 72.8202 38.4227C72.8202 39.3564 72.1262 39.9747 70.8896 39.9747C69.9558 39.9747 69.2997 39.6845 68.8328 39.2429Z" fill="var(--font-colors-body-base, #555555)"/>
  <path d="M75.2807 39.8991V36.3029H73.981V35.2556H77.7665V36.3029H76.4668V39.8991H75.2807Z" fill="var(--font-colors-body-base, #555555)"/>
  <path d="M82.0315 36.795C82.0315 36.4796 81.7665 36.3029 81.4511 36.3029H80.5047V37.2998H81.4511C81.7665 37.2998 82.0315 37.1231 82.0315 36.795ZM81.8927 39.8991L81.1104 38.3471H80.4921V39.8991H79.2933V35.2556H81.6151C82.6498 35.2556 83.2302 35.937 83.2302 36.795C83.2302 37.6026 82.7381 38.0316 82.3091 38.1831L83.2555 39.8865H81.8801L81.8927 39.8991Z" fill="var(--font-colors-body-base, #555555)"/>
  <path d="M84.8706 38.019V35.2556H86.082V37.9812C86.082 38.5364 86.4101 38.9275 87.0662 38.9275C87.7224 38.9275 88.0378 38.5364 88.0378 37.9812V35.2556H89.2492V38.0064C89.2492 39.1547 88.5426 39.9749 87.0662 39.9749C85.5899 39.9749 84.8706 39.1547 84.8706 38.019Z" fill="var(--font-colors-body-base, #555555)"/>
  <path d="M90.8265 37.5773C90.8265 36.1388 91.9116 35.1798 93.3375 35.1798C94.4605 35.1798 95.0536 35.8107 95.3564 36.429L94.3217 36.9211C94.1703 36.5552 93.7665 36.2524 93.3249 36.2524C92.5678 36.2524 92.0378 36.8328 92.0378 37.5899C92.0378 38.347 92.5678 38.9274 93.3249 38.9274C93.7665 38.9274 94.1703 38.6246 94.3217 38.2587L95.3564 38.7508C95.0536 39.3438 94.4479 40 93.3375 40C91.9116 40 90.8265 39.0284 90.8265 37.6025" fill="var(--font-colors-body-base, #555555)"/>
  <path d="M97.8801 39.8991V36.3029H96.5804V35.2556H100.366V36.3029H99.0788V39.8991H97.8801Z" fill="var(--font-colors-body-base, #555555)"/>
  <path d="M101.905 38.019V35.2556H103.117V37.9812C103.117 38.5364 103.445 38.9275 104.101 38.9275C104.757 38.9275 105.073 38.5364 105.073 37.9812V35.2556H106.284V38.0064C106.284 39.1547 105.577 39.9749 104.101 39.9749C102.625 39.9749 101.905 39.1547 101.905 38.019Z" fill="var(--font-colors-body-base, #555555)"/>
  <path d="M110.814 36.795C110.814 36.4796 110.549 36.3029 110.233 36.3029H109.287V37.2998H110.233C110.549 37.2998 110.814 37.1231 110.814 36.795ZM110.688 39.8991L109.905 38.3471H109.3V39.8991H108.101V35.2556H110.423C111.457 35.2556 112.038 35.937 112.038 36.795C112.038 37.6026 111.546 38.0316 111.117 38.1831L112.063 39.8865H110.688V39.8991Z" fill="var(--font-colors-body-base, #555555)"/>
  <path d="M113.666 39.8991V35.2556H117.06V36.3029H114.864V37.0222H117.009V38.0695H114.864V38.8518H117.06V39.8991H113.666Z" fill="var(--font-colors-body-base, #555555)"/>
  <path d="M121.148 37.5773C121.148 36.1514 122.208 35.1798 123.546 35.1798C124.517 35.1798 125.098 35.6719 125.438 36.2271L124.744 36.5804C124.517 36.2019 124.076 35.9117 123.546 35.9117C122.662 35.9117 121.981 36.6183 121.981 37.5899C121.981 38.5615 122.662 39.2681 123.546 39.2681C124.076 39.2681 124.53 38.9779 124.744 38.5994L125.438 38.9527C125.085 39.5079 124.517 40 123.546 40C122.208 40 121.148 39.0284 121.148 37.6025V37.5773Z" fill="var(--font-colors-body-base, #555555)"/>
  <path d="M129.224 35.1798C130.612 35.1798 131.596 36.1893 131.596 37.5773C131.596 38.9653 130.612 39.9748 129.224 39.9748C127.836 39.9748 126.852 38.9653 126.852 37.5773C126.852 36.1893 127.836 35.1798 129.224 35.1798ZM129.224 35.9117C128.29 35.9117 127.685 36.6309 127.685 37.5899C127.685 38.5489 128.278 39.2681 129.224 39.2681C130.17 39.2681 130.763 38.5489 130.763 37.5899C130.763 36.6309 130.158 35.9117 129.224 35.9117Z" fill="var(--font-colors-body-base, #555555)"/>
  <path d="M137.35 39.8991V36.3912L135.924 39.8991H135.571L134.158 36.3912V39.8991H133.35V35.2682H134.498L135.76 38.3849L137.022 35.2682H138.17V39.8991H137.363H137.35Z" fill="var(--font-colors-body-base, #555555)"/>
  <path d="M140.126 39.8991V35.2682H142.158C143.129 35.2682 143.672 35.937 143.672 36.7193C143.672 37.5016 143.117 38.1704 142.158 38.1704H140.934V39.8991H140.126ZM142.044 35.9748H140.934V37.4512H142.044C142.498 37.4512 142.839 37.1609 142.839 36.7193C142.839 36.2777 142.511 35.9874 142.044 35.9874V35.9748Z" fill="var(--font-colors-body-base, #555555)"/>
  <path d="M148.076 39.8991L147.735 39.0158H145.539L145.199 39.8991H144.315L146.132 35.2682H147.142L148.959 39.8991H148.076ZM146.637 35.9496L145.767 38.2966H147.508L146.637 35.9496Z" fill="var(--font-colors-body-base, #555555)"/>
  <path d="M153.678 39.8991L151.256 36.5174V39.8991H150.448V35.2682H151.281L153.653 38.5489V35.2682H154.461V39.8991H153.678Z" fill="var(--font-colors-body-base, #555555)"/>
  <path d="M157.729 39.8991V37.9685L155.924 35.2556H156.858L158.132 37.2367L159.394 35.2556H160.328L158.536 37.9685V39.8991H157.729Z" fill="var(--font-colors-body-base, #555555)"/>
</svg>
