<svg xmlns="http://www.w3.org/2000/svg" version="1.1" x="0px" y="0px" viewBox="0 0 456.9 201.5" style="enable-background:new 0 0 456.9 201.5;">
  <path fill="#787878" d="M410.2,196.8l-385.1,0c-8.4,0-15.2-1.1-15.2-2.6c0-1.4,6.8-2.6,15.2-2.6h385.1c8.4,0,15.2,1.1,15.2,2.6    C425.4,195.6,418.6,196.8,410.2,196.8z"/>
  <path fill="#FFFFFF" d="M63.4,188.3c-0.1-1.9,0-3.8-0.2-5.7c-0.2-2.5-0.6-4.9-1.4-7.4c-1.7,0.3-1.7,0.3-2.1-0.2    c0.3-0.1,0.5-0.2,0.8-0.3c0.8-0.2,1.5-0.6,2.1-1.2c0.6-0.5,0.6-1,0.1-1.6c-0.5-0.6-1.3-1-2-1.3c-0.5-0.2-1-0.3-1.6-0.5    c0,0.4-0.1,0.7-0.1,1c0,0.6-0.3,0.9-0.8,1.2c-0.8,0.4-1.6,0.5-2.4,0.2c-0.6-0.2-1-0.5-1.1-1.1c-0.1-0.5-0.2-1-0.3-1.5    c-1,0.1-2,0.3-2.8,0.8c-0.6,0.3-1.1,0.7-1.1,1.5c0,0.7,0.4,1.3,1,1.6c0.3,0.2,0.6,0.3,0.9,0.5c0.2,0.1,0.3,0.2,0.5,0.3    c-0.7,0.7-1.4,0.5-2.8-0.8c-0.1,0.2-0.2,0.3-0.3,0.5c-0.1,0.2-0.2,0.4-0.3,0.6c0.1,0.1,0.1,0.1,0.2,0.1c3.4,0.9,5.9,3,8.2,5.6    c0.4,0.4,0.6,1,0.9,1.5c0.1,0.3,0.3,0.6,0,1c-0.1-0.1-0.3-0.2-0.4-0.4c-1.2-2-2.9-3.5-4.7-4.9c-2-1.5-4.3-2.3-6.9-2.2    c-2.2,0.1-4.2,0.9-5.7,2.6c-1.9,2.1-3,4.7-3,7.6c0,1.8,0.8,3.2,2.5,3.9c2.4,1.1,5,1.8,7.7,2.2c2.3,0.3,4.6,0.4,7,0.1    c2.7-0.3,5.2-0.9,7.5-2.3C63.2,189.4,63.4,189,63.4,188.3z"/>
  <path fill="#333333" d="M64.5,176.8c-0.1-0.5-0.3-1-0.4-1.5c1.5-1.3,1.7-3.2,0.5-4.7c-0.9-1.1-2.1-1.9-3.8-2.3h0    c-0.1,0-0.3-0.1-0.4-0.1c0-0.6,0-1.3,0-1.9c0-1.6,0-3.3,0-5c-0.1-8-0.3-16.4-0.5-24.7c0-1.7-0.2-3.4-0.3-5.1    c0-0.4-0.1-0.9-0.1-1.3c-0.1-1.3-0.5-2.4-1.2-3.4c-0.7-1-1.6-1.7-2.6-2c-1-0.3-2.1-0.2-2.9,0.3c-0.8,0.5-1.4,1.2-1.7,2.2    c-0.2,0.9-0.4,1.7-0.3,2.6c0.1,2.7,0.2,5.4,0.3,8.5c0.1,2.4,0.2,4.8,0.4,7.5c0.2,2.9,0.4,5.9,0.6,8.8l0.1,2.2    c0.2,2.5,0.3,5.1,0.5,7.6c0,0.7,0.1,1.4,0.2,2.1c0,0.5,0.1,0.9,0.1,1.4c-1,0.2-1.8,0.5-2.5,0.9c-1.5,0.9-2.3,2.2-2.1,3.8    c-0.1,0.2-0.3,0.5-0.4,0.7c0,0-0.1,0-0.1,0c-4.5-0.2-7.9,1.7-10.2,5.6c-1.4,2.3-2,4.6-1.9,7c0.1,2.7,1.4,4.7,3.8,5.8    c2,0.9,4.1,1.6,6.3,2c2.2,0.4,4.4,0.6,6.5,0.6c1.1,0,2.1-0.1,3.2-0.2c2.8-0.3,5.4-1.1,7.8-2.3c1.8-0.9,2.6-2.3,2.6-4.3    C65.8,184,65.4,180.3,64.5,176.8z M62.6,189.7c-2.3,1.4-4.9,2-7.5,2.3c-2.3,0.3-4.7,0.2-7-0.1c-2.7-0.3-5.2-1.1-7.7-2.2    c-1.7-0.8-2.5-2.1-2.5-3.9c0-2.9,1-5.4,3-7.6c1.5-1.7,3.5-2.5,5.7-2.6c2.6-0.1,4.8,0.7,6.9,2.2c1.9,1.3,3.6,2.8,4.7,4.9    c0.1,0.2,0.3,0.2,0.4,0.4c0.3-0.4,0.2-0.7,0-1c-0.3-0.5-0.5-1-0.9-1.5c-2.2-2.6-4.8-4.7-8.2-5.6c-0.1,0-0.1-0.1-0.2-0.1    c0.1-0.2,0.2-0.4,0.3-0.6c0.1-0.2,0.2-0.3,0.3-0.5c1.4,1.3,2.1,1.5,2.8,0.8c-0.2-0.1-0.3-0.2-0.5-0.3c-0.3-0.2-0.6-0.3-0.9-0.5    c-0.6-0.4-1-0.9-1-1.6c0-0.8,0.5-1.2,1.1-1.5c0.9-0.5,1.8-0.7,2.8-0.8c0.1,0.5,0.2,1,0.3,1.5c0.1,0.6,0.5,1,1.1,1.1    c0.8,0.2,1.7,0.1,2.4-0.2c0.5-0.2,0.8-0.6,0.8-1.2c0-0.3,0.1-0.6,0.1-1c0.6,0.2,1.1,0.3,1.6,0.5c0.8,0.3,1.5,0.7,2,1.3    c0.5,0.6,0.5,1.1-0.1,1.6c-0.6,0.6-1.3,0.9-2.1,1.2c-0.3,0.1-0.5,0.2-0.8,0.3c0.4,0.5,0.4,0.5,2.1,0.2c0.8,2.4,1.2,4.9,1.4,7.4    c0.2,1.9,0.1,3.8,0.2,5.7C63.4,189,63.2,189.4,62.6,189.7z"/>
  <path fill="#FFFFFF" d="M96.5,183.7c-1.5-3.7-4.2-6-8.1-6.7c-3.6-0.6-6.7,0.5-9.2,3.2c-0.6,0.6-1,1.3-1.5,1.9    c-0.1,0.2-0.3,0.3-0.5,0.5c-0.4-0.5-0.2-1,0-1.3c0.5-0.7,1-1.4,1.5-2.1c1.8-1.9,4-3,6.7-3.3c-0.3-0.4-0.6-0.7-0.8-1    c-0.7-0.1-1.3,0.6-2.1-0.1c0.3-0.2,0.5-0.3,0.7-0.4c0.5-0.2,0.9-0.3,1.4-0.5c0.9-0.4,1-1.1,0.4-1.8c-0.3-0.4-0.8-0.7-1.2-0.9    c-0.7-0.4-1.5-0.6-2.3-1c0,0,0,0,0,0c-0.1,0.4-0.1,0.8-0.2,1.1c0,0.4-0.3,0.7-0.7,0.8c-1.2,0.4-2.3,0.2-3.4-0.5    c-0.5-0.3-0.6-0.8-0.7-1.4c0-0.1,0-0.3-0.1-0.4c0-0.1,0-0.1,0-0.2c0,0,0,0,0,0c-1.2,0.4-2.3,0.7-3.2,1.5c-1,0.9-0.9,2,0.2,2.7    c0.4,0.3,0.9,0.5,1.4,0.8c0.2,0.1,0.4,0.3,0.7,0.5c-1,0.4-1.7-0.1-2.5-0.5c-0.1,0.5-0.3,1-0.4,1.4c-1.1,3.6-1.3,7.3-1,11.1    c0,0.3,0.1,0.6,0.1,0.9c-0.1,0.6,0.3,0.9,0.8,1.2c1.5,0.9,3.1,1.5,4.7,1.8c3.1,0.6,6.2,0.8,9.3,0.5c2.4-0.2,4.8-0.5,7.2-1.2    c0.8-0.2,1.6-0.5,2.5-0.8c0.4-0.1,0.5-0.4,0.6-0.7C97.3,187.1,97.2,185.4,96.5,183.7z"/>
  <path fill="#333333" d="M98.7,182.8c-1.7-4.3-5-7.1-9.7-8.1c-0.5-0.1-1-0.2-1.7-0.2c0.6-0.9,0.7-2,0.3-3c-0.4-0.9-1-1.6-2-2.2    c-0.9-0.5-1.6-0.9-2.5-1.1c0,0-0.1,0-0.1,0l0-2c0-1.8,0-3.5,0-5.3l0-2c0-3.5,0.1-7.2,0.1-10.8c0-2.1,0.1-4.3,0.2-6.4    c0.1-2.4,0.1-4.9,0.2-7.4c0-1.5,0-3.1-0.2-4.9c-0.1-0.8-0.3-1.6-0.8-2.5c-0.8-1.7-2.5-2.5-4.4-2.2c-1.4,0.2-2.4,1.1-2.9,2.4    c-0.3,0.8-0.4,1.6-0.4,2.3c0,1.7,0.1,3.3,0.1,4.9c0,0.7,0,1.4,0.1,2.1c0,1.5,0.1,3.1,0.1,4.6c0.1,3.5,0.2,7.2,0.3,10.8    c0,3.7,0,7.4,0,11c0,1.5,0,3,0,4.6c0,0,0,0.1,0,0.1c0,0,0,0,0,0c-0.7,0.3-1.4,0.5-2,0.9c-0.7,0.4-1.4,0.9-2,1.6    c-1.1,1.2-1.2,2.8-0.3,4.2c-0.1,0.4-0.2,0.8-0.3,1.2c-0.4,1.4-0.8,2.8-1,4.3c-0.4,2.4-0.5,5.1-0.3,8.1c0.1,1.5,0.8,2.7,2.1,3.6    c1.8,1.1,3.8,1.9,6.2,2.3c2.1,0.4,4.3,0.6,6.5,0.6c3,0,6-0.3,9-1c0.9-0.2,1.8-0.5,2.5-0.8c0.7-0.3,1.4-0.7,2.2-1.2    c0.7-0.4,0.9-1.2,1-1.5C99.7,187.4,99.6,185.1,98.7,182.8z M96.9,188.9c-0.1,0.4-0.2,0.6-0.6,0.7c-0.8,0.2-1.6,0.5-2.5,0.8    c-2.3,0.7-4.8,1-7.2,1.2c-3.1,0.2-6.2,0.1-9.3-0.5c-1.7-0.3-3.3-0.9-4.7-1.8c-0.5-0.3-0.8-0.6-0.8-1.2c0-0.3-0.1-0.6-0.1-0.9    c-0.3-3.7,0-7.4,1-11.1c0.1-0.5,0.3-0.9,0.4-1.4c0.8,0.4,1.5,0.8,2.5,0.5c-0.3-0.2-0.5-0.4-0.7-0.5c-0.5-0.3-0.9-0.5-1.4-0.8    c-1.2-0.8-1.3-1.8-0.2-2.7c0.9-0.8,2-1.2,3.2-1.5c0,0,0,0,0,0c0,0.1,0,0.1,0,0.2c0,0.2,0,0.3,0.1,0.4c0.1,0.5,0.2,1,0.7,1.4    c1,0.7,2.2,0.9,3.4,0.5c0.4-0.1,0.6-0.4,0.7-0.8c0-0.3,0.1-0.7,0.2-1.1c0,0,0,0,0,0c0.9,0.4,1.6,0.6,2.3,1    c0.5,0.2,0.9,0.6,1.2,0.9c0.6,0.7,0.4,1.4-0.4,1.8c-0.4,0.2-0.9,0.3-1.4,0.5c-0.2,0.1-0.4,0.3-0.7,0.4c0.7,0.7,1.4,0,2.1,0.1    c0.2,0.3,0.5,0.6,0.8,1c-2.7,0.3-4.9,1.5-6.7,3.3c-0.6,0.6-1.1,1.4-1.5,2.1c-0.2,0.3-0.4,0.7,0,1.3c0.2-0.2,0.3-0.4,0.5-0.5    c0.5-0.6,1-1.3,1.5-1.9c2.5-2.7,5.6-3.8,9.2-3.2c3.9,0.7,6.6,3,8.1,6.7C97.2,185.4,97.3,187.1,96.9,188.9z"/>
  <path fill="#333333" d="M108.3,90.5c1.1,3,3.7,2.9,6.5,1.9c3.5-1.3,19.2-8.3,22.3-9.2l-1.6-2.8l-0.8-3.1c-3.2,1.5-19.5,6.4-22.8,7.7    C109.1,86,107.3,87.8,108.3,90.5z"/>
  <path fill="#FFFFFF" d="M172.1,78.9c-0.1-1.1-0.9-2-1.4-2.6c-0.1-0.1-0.1-0.1-0.2-0.2c0,0,0,0,0,0c-0.8-0.8-1.8-1.5-2.9-2.1     c-3.1-1.8-6.5-2.8-9.9-3c-0.2,0-0.3-0.1-0.3-0.3c0-0.2,0.1-0.3,0.3-0.3c2.3-0.3,8.6,1.1,11.7,3.2c0.1,0,0.1,0,0.2,0.1     c0.4,0.3,0.7,0.5,1.1,0.8c0-0.4-0.1-0.7-0.3-1.1c-0.6-1.3-1.9-2.2-2.8-2.6c-1.1-0.6-2.4-1-3.9-1.4c-1.3-0.3-2.7-0.6-4.2-0.8     c-1.5-0.2-2.9-0.3-4.3-0.3c-0.5,0-0.9,0-1.4-0.1c-0.2,0-0.5,0-0.8-0.1c-0.6-0.1-1.1-0.1-1.7-0.2c-0.2,0-0.3-0.1-0.3-0.3     c0-0.2,0.1-0.3,0.2-0.3c0.6-0.2,1.3-0.3,2-0.3c0.4-0.1,0.8-0.4,1.2-0.7c0.5-0.3,1-0.7,1.5-1.2c0.5-0.5,0.9-0.9,1.2-1.4     c0.4-0.5,0.6-1,0.7-1.5c0.2-1-0.1-2.3-1-2.9c-0.4-0.3-0.9-0.3-1.5-0.3c-0.5,0.1-1,0.3-1.6,0.6c-0.7,0.4-1.3,1-1.9,1.7     c-0.3,0.3-0.6,0.6-1,0.9c-0.6,0.6-1.2,1-1.8,1.3c-0.6,0.3-1.2,0.5-2,0.8c-0.4,0.1-0.9,0.2-1.3,0.3c-0.9,0.2-1.7,0.4-2.5,0.7     c-1.1,0.5-2.1,1.2-2.8,2.2c-0.5,0.7-0.9,1.5-1.1,2.4c-0.2,0.9-0.2,1.8-0.1,2.7c0,0.2-0.1,0.3-0.2,0.4c-0.2,0-0.3-0.1-0.4-0.2     c-0.1-0.4-0.2-0.9-0.3-1.1c-0.7,0.1-2,0.1-2.6,0.2c-0.8,2-0.8,4.7-0.2,7.2c0.5,2.1,1.9,3.9,4.3,5.5c1.2,0.8,2.3,1.4,3.4,1.7     c0.2-0.3,0.3-0.7,0.5-1c0.1-0.2,0.2-0.4,0.3-0.5l0.1-0.2c0.1-0.2,0.2-0.5,0.3-0.7c0.1-0.1,0.1-0.1-0.1-0.3     c-0.1-0.1-0.1-0.2,0-0.3c0.1-0.1,0.2-0.1,0.3-0.1c0,0,0,0,0.1,0c1,0.2,2.1,0.4,3.5,0.5l4.2,0.3c1.4,0.1,2.8,0.3,4.2,0.7     c1.4,0.4,2.7,0.8,4,1.5c0.4,0.2,0.8,0.4,1.3,0.6c0.8,0.4,1.6,0.8,2.3,0.9c0.6,0.1,1.1-0.1,1.4-0.4c0.2-0.2,0.4-0.5,0.4-0.8     c0-0.2,0-0.3,0-0.5c0-0.1,0-0.1,0-0.2c-0.1-0.5-0.3-0.9-0.6-1.4c-0.4-0.5-0.8-1-1.3-1.4c-0.9-0.8-2.3-1.6-3.6-2     c-1.1-0.3-2.2-0.6-3.2-0.8c-0.3-0.1-0.6-0.1-0.9-0.2c-0.2,0-0.3-0.2-0.2-0.3c0-0.2,0.1-0.3,0.3-0.3c0,0,0.1,0,0.1,0     c0.3,0,0.7,0,1,0.1c1.6,0.2,3.8,0.7,5.2,1.3c2.4,1.2,3.9,2.8,4.4,4.7c0.1,0,0.2,0.1,0.2,0.2l0.1,0c0.1,0,0.3,0.1,0.4,0.1     c0.1,0,0.2,0,0.3,0l0,0c0.2,0,0.5,0,0.7-0.1c0.2-0.1,0.4-0.2,0.6-0.3c0.1-0.1,0.3-0.3,0.4-0.4c0.2-0.3,0.3-0.8,0.3-1.3     c0-0.3-0.1-0.7-0.2-1c-0.1-0.2-0.2-0.5-0.3-0.7c-0.2-0.3-0.4-0.6-0.7-0.9c-0.3-0.3-0.7-0.6-1.1-1l-0.2-0.1     c-0.5-0.4-0.9-0.7-1.4-1c-3-2.1-5.9-3.2-8.9-3.6c-0.2,0-0.3-0.2-0.3-0.3s0.1-0.3,0.3-0.3c0.1,0,0.1,0,0.2,0c0.4,0,0.8,0,1.2,0     c2,0.2,4.4,1.1,5.8,1.7c1.1,0.5,2.2,1.3,3.5,2.3c1,0.7,1.7,1.4,2.4,2.3c0,0,0.1,0,0.1,0c0.1,0,0.2,0.1,0.2,0.1     c0,0.1,0.1,0.1,0.1,0.2c0,0,0.1,0,0.1,0c0.4-0.1,0.8-0.4,1-0.8C172.1,79.9,172.1,79.4,172.1,78.9z M146,71.2     c-0.7,0.1-1.4,0.2-2.2,0.4c-0.7,0.2-1.4,0.4-2.2,0.6c0.6-0.5,1.3-0.9,2-1.1c0.7-0.3,1.5-0.5,2.2-0.5c0.8-0.1,1.5-0.1,2.3,0     c0.8,0.1,1.5,0.3,2.2,0.7c-0.8-0.1-1.5-0.1-2.2-0.1C147.4,71.1,146.7,71.1,146,71.2z"/>
  <path fill="#333333" d="M173.8,78.7C173.8,78.7,173.8,78.7,173.8,78.7c-0.1-1.1-0.7-2.2-1.6-3.2c0-0.1,0-0.1,0-0.2      c0-0.1,0-0.2,0-0.3c0.1-0.8-0.1-1.6-0.5-2.4c-0.7-1.4-1.9-2.6-3.6-3.4c-1.2-0.6-2.6-1.1-4.3-1.6c-1.4-0.4-2.8-0.6-4.4-0.8      c-1-0.1-1.9-0.2-2.8-0.3c0.1-0.1,0.2-0.2,0.3-0.2c0.6-0.5,1-1.1,1.4-1.6c0.6-0.8,0.9-1.5,1-2.3c0.3-1.6-0.2-3.6-1.8-4.6      c-0.8-0.5-1.7-0.7-2.6-0.5c-0.7,0.1-1.5,0.4-2.3,0.9c-0.9,0.5-1.6,1.2-2.2,1.9c-0.3,0.3-0.6,0.6-0.9,0.9c-0.5,0.4-0.9,0.8-1.4,1      c-0.5,0.2-1,0.4-1.7,0.6c-0.4,0.1-0.8,0.2-1.3,0.3c-0.9,0.2-1.8,0.4-2.7,0.8c-1.5,0.6-2.7,1.6-3.6,2.8c-0.6,0.9-1.1,1.9-1.4,3      c0,0.1-0.1,0.3-0.1,0.4c-0.8,0.1-1.8,0.1-2.1,0.1c-0.6,0-1.1,0.4-1.3,0.9c-1,2.4-1.1,5.5-0.3,8.5c0.6,2.5,2.3,4.6,5,6.5      c1.5,1,2.8,1.7,4.2,2c0.6,0.2,1.3-0.1,1.6-0.7c0.2-0.4,0.4-0.9,0.6-1.3c0.1-0.2,0.2-0.4,0.3-0.5l0.1-0.2      c0.1-0.1,0.1-0.2,0.2-0.3c0.9,0.1,1.7,0.2,2.3,0.2l4.2,0.3c1.3,0.1,2.6,0.3,3.9,0.6c1.3,0.3,2.5,0.8,3.7,1.4c0,0,0,0,0,0      c0.4,0.2,0.7,0.4,1.1,0.6c0.9,0.5,1.9,1,3,1.1c0.1,0,0.3,0,0.4,0c0.9,0,1.7-0.3,2.3-0.8c0.4-0.3,0.6-0.7,0.8-1.1c0,0,0,0,0,0      c0.2,0,0.4,0,0.5,0l0.1,0c0.4,0,0.8,0,1.1-0.1c0.5-0.1,0.8-0.3,1.1-0.5c0,0,0.1,0,0.1-0.1c0.3-0.2,0.6-0.5,0.8-0.9      c0,0,0,0,0-0.1c0.4-0.6,0.6-1.4,0.5-2.2c0-0.2,0-0.5-0.1-0.7c0.7-0.3,1.3-0.9,1.7-1.6C173.8,80.4,173.9,79.6,173.8,78.7z       M170.8,81.2c0-0.1-0.1-0.1-0.1-0.2c0-0.1-0.1-0.1-0.2-0.1c0,0-0.1,0-0.1,0c-0.6-0.9-1.4-1.6-2.4-2.3c-1.3-1-2.4-1.7-3.5-2.3      c-1.3-0.7-3.8-1.5-5.8-1.7c-0.4,0-0.8,0-1.2,0c-0.1,0-0.1,0-0.2,0c-0.2,0-0.3,0.2-0.3,0.3s0.1,0.3,0.3,0.3      c2.9,0.4,5.8,1.6,8.9,3.6c0.4,0.3,0.9,0.6,1.4,1l0.2,0.1c0.4,0.3,0.8,0.6,1.1,1c0.3,0.3,0.5,0.6,0.7,0.9      c0.1,0.2,0.3,0.5,0.3,0.7c0.1,0.3,0.2,0.7,0.2,1c0,0.5-0.1,0.9-0.3,1.3c-0.1,0.2-0.3,0.3-0.4,0.4c-0.2,0.1-0.4,0.2-0.6,0.3      c-0.2,0.1-0.4,0.1-0.7,0.1l0,0c-0.1,0-0.2,0-0.3,0c-0.1,0-0.2,0-0.4-0.1l-0.1,0c0-0.1-0.1-0.2-0.2-0.2c-0.5-1.9-2-3.5-4.4-4.7      c-1.3-0.6-3.6-1.2-5.2-1.3c-0.4,0-0.7,0-1-0.1c0,0-0.1,0-0.1,0c-0.2,0-0.3,0.1-0.3,0.3c0,0.2,0.1,0.3,0.2,0.3      c0.3,0.1,0.6,0.1,0.9,0.2c1,0.2,2.1,0.5,3.2,0.8c1.3,0.4,2.7,1.2,3.6,2c0.5,0.4,0.9,0.9,1.3,1.4c0.3,0.5,0.5,0.9,0.6,1.4      c0,0.1,0,0.1,0,0.2c0,0.2,0,0.3,0,0.5c0,0.3-0.2,0.6-0.4,0.8c-0.3,0.3-0.9,0.4-1.4,0.4c-0.8-0.1-1.5-0.5-2.3-0.9      c-0.4-0.2-0.8-0.4-1.3-0.6c-1.3-0.6-2.7-1.1-4-1.5c-1.4-0.4-2.8-0.6-4.2-0.7l-4.2-0.3c-1.4-0.1-2.5-0.2-3.5-0.5c0,0,0,0-0.1,0      c-0.1,0-0.2,0-0.3,0.1c-0.1,0.1-0.1,0.2,0,0.3c0.1,0.2,0.1,0.2,0.1,0.3c-0.1,0.2-0.2,0.5-0.3,0.7l-0.1,0.2      c-0.1,0.2-0.2,0.4-0.3,0.5c-0.2,0.3-0.3,0.7-0.5,1c-1-0.3-2.2-0.8-3.4-1.7c-2.3-1.6-3.7-3.4-4.3-5.5c-0.6-2.5-0.6-5.2,0.2-7.2      c0.6,0,1.9-0.1,2.6-0.2c0.1,0.3,0.2,0.7,0.3,1.1c0,0.2,0.2,0.3,0.4,0.2c0.2,0,0.3-0.2,0.2-0.4c-0.2-0.9-0.1-1.8,0.1-2.7      c0.2-0.9,0.6-1.7,1.1-2.4c0.7-1,1.7-1.8,2.8-2.2c0.8-0.3,1.6-0.5,2.5-0.7c0.4-0.1,0.9-0.2,1.3-0.3c0.8-0.2,1.4-0.5,2-0.8      c0.6-0.3,1.2-0.7,1.8-1.3c0.3-0.3,0.6-0.6,1-0.9c0.6-0.6,1.2-1.2,1.9-1.7c0.6-0.3,1.1-0.5,1.6-0.6c0.5-0.1,1.1,0,1.5,0.3      c0.9,0.6,1.2,1.9,1,2.9c-0.1,0.5-0.3,1-0.7,1.5c-0.3,0.5-0.8,1-1.2,1.4c-0.5,0.5-1,0.9-1.5,1.2c-0.4,0.3-0.8,0.5-1.2,0.7      c-0.7,0.1-1.3,0.2-2,0.3c-0.1,0-0.2,0.2-0.2,0.3c0,0.2,0.1,0.3,0.3,0.3c0.6,0.1,1.2,0.1,1.7,0.2c0.3,0,0.5,0,0.8,0.1      c0.5,0,0.9,0.1,1.4,0.1c1.4,0,2.8,0.1,4.3,0.3c1.5,0.2,2.9,0.4,4.2,0.8c1.6,0.4,2.9,0.9,3.9,1.4c0.9,0.5,2.2,1.3,2.8,2.6      c0.2,0.4,0.3,0.7,0.3,1.1c-0.3-0.3-0.7-0.5-1.1-0.8c-0.1,0-0.1-0.1-0.2-0.1c-3.1-2-9.4-3.4-11.7-3.2c-0.2,0-0.3,0.2-0.3,0.3      c0,0.2,0.1,0.3,0.3,0.3c3.4,0.2,6.8,1.2,9.9,3c1,0.6,2,1.3,2.9,2.1c0,0,0,0,0,0c0.1,0.1,0.1,0.1,0.2,0.2      c0.6,0.6,1.3,1.5,1.4,2.6c0.1,0.6,0,1.1-0.2,1.4c-0.2,0.4-0.5,0.7-1,0.8C170.9,81.2,170.8,81.2,170.8,81.2z"/>
  <path fill="#333333" d="M145.9,70.4c-0.8,0.1-1.5,0.3-2.2,0.5c-0.7,0.3-1.4,0.7-2,1.1c0.7-0.2,1.4-0.4,2.2-0.6      c0.7-0.2,1.4-0.3,2.2-0.4c0.7-0.1,1.5-0.1,2.2-0.1c0.7,0,1.5,0,2.2,0.1c-0.7-0.3-1.4-0.6-2.2-0.7      C147.5,70.4,146.7,70.4,145.9,70.4z"/>
  <path fill="#333333" d="M41.9,85.3c-0.1,0.1-0.3,0.1-0.4,0.2c0.3-0.1,0.6-0.3,0.9-0.4c-2.6,1.1-5.4,1.9-8.1,2.9    c-3.7,1.3-7.3,2.5-10.9,4.1c-1.3,0.6-2.7,1.2-3.7,2.2c-0.7,0.7-1.1,1.7-1.1,2.7c0,0.9,0.4,2.1,1.1,2.7c0.7,0.7,1.7,1.2,2.7,1.1    c1,0,2-0.4,2.7-1.1c0.1-0.1,0.1-0.1,0.2-0.2c-0.3,0.2-0.5,0.4-0.8,0.6c0.9-0.7,2-1.1,3-1.5c-0.3,0.1-0.6,0.3-0.9,0.4    c2.7-1.1,5.4-2.1,8.2-3c2.6-0.9,5.2-1.7,7.7-2.7c1.1-0.4,2.2-0.8,3.2-1.3c0.8-0.4,1.5-1.4,1.8-2.3c0.3-0.9,0.1-2.1-0.4-2.9    C45.9,84.8,43.8,84.3,41.9,85.3L41.9,85.3z"/>
  <path fill="#FACC2C" d="M36.4,139.6l67.7,3.9c0.3,0,0.5-0.2,0.6-0.5l11.5-87.4L97.7,37.1L35,33.3c-0.3,0-0.6,0.2-0.6,0.5l1.4,105.2   C35.9,139.4,36.1,139.6,36.4,139.6z"/>
  <path fill="#333333" d="M104,144.5C104,144.5,104,144.5,104,144.5l-67.7-3.9c-0.8,0-1.4-0.7-1.4-1.5L33.5,33.9c0-0.4,0.2-0.8,0.5-1.1   c0.3-0.3,0.7-0.4,1.1-0.4l63,3.8l19,19.2l-11.6,87.9C105.5,143.9,104.8,144.5,104,144.5z M36.8,138.7l66.8,3.9L115,56L97.2,38   l-61.8-3.7L36.8,138.7z"/>
  <circle fill="#FFFFFF" cx="59.9" cy="75.4" r="11.3"/>
  <path fill="#333333" d="M59.9,87.1c-6.4,0-11.7-5.2-11.7-11.7c0-6.4,5.2-11.7,11.7-11.7c6.4,0,11.7,5.2,11.7,11.7      C71.6,81.9,66.4,87.1,59.9,87.1z M59.9,64.5c-6.1,0-11,4.9-11,11c0,6.1,4.9,11,11,11c6.1,0,11-4.9,11-11      C70.9,69.4,66,64.5,59.9,64.5z"/>
  <circle fill="#FFFFFF" cx="88.5" cy="76.5" r="11.3"/>
  <path fill="#333333" d="M88.5,88.2c-6.4,0-11.7-5.2-11.7-11.7c0-6.4,5.2-11.7,11.7-11.7c6.4,0,11.7,5.2,11.7,11.7      C100.1,83,94.9,88.2,88.5,88.2z M88.5,65.5c-6.1,0-11,4.9-11,11s4.9,11,11,11c6.1,0,11-4.9,11-11S94.5,65.5,88.5,65.5z"/>
  <path fill="#333333" d="M93.8,71.4c0,0.1,0,0.2,0,0.3c0,1.7-1.4,3.2-3.2,3.2c-1.7,0-3.1-1.3-3.1-3c-2.1,1.3-3.6,3.6-3.6,6.2     c0,4,3.2,7.2,7.2,7.2s7.2-3.2,7.2-7.2C98.4,75.1,96.5,72.4,93.8,71.4z M91.6,84.2c-0.8,0-1.5-0.7-1.5-1.5c0-0.8,0.7-1.5,1.5-1.5     c0.8,0,1.5,0.7,1.5,1.5C93.1,83.5,92.4,84.2,91.6,84.2z"/>
  <path fill="#333333" d="M65.6,70.6c0,0.1,0,0.3,0,0.4c0,1.7-1.4,3.2-3.2,3.2c-1.7,0-3.1-1.4-3.2-3.1c-2.2,1.2-3.7,3.6-3.7,6.3     c0,4,3.2,7.2,7.2,7.2s7.2-3.2,7.2-7.2C70.1,74.2,68.2,71.6,65.6,70.6z M64.1,83.1c-0.8,0-1.5-0.7-1.5-1.5c0-0.8,0.7-1.5,1.5-1.5     c0.8,0,1.5,0.7,1.5,1.5C65.6,82.5,64.9,83.1,64.1,83.1z"/>
  <path fill="#333333" d="M55,54.2c-2.1,0.7-4.5,2-5.9,4.1c-1,1.5,0,3.2,1.9,1.5c1.9-1.7,5.9-3.3,9.8-3.3C64.6,56.4,61.4,52,55,54.2z      "/>
  <path fill="#333333" d="M94.4,59.3c2.1,1,4.3,2.6,5.5,4.8c0.9,1.7-0.3,3.2-2.1,1.3c-1.7-1.9-5.6-4-9.5-4.5      C84.4,60.4,88.2,56.3,94.4,59.3z"/>
  <polygon fill="#333333" points="101.9,104.5 101.5,107.3 42.8,104.1 42.7,101.2    "/>
  <polygon fill="#333333" points="101.2,110 100.8,112.8 42.8,109.6 42.8,109.6 42.8,106.8    "/>
  <polygon fill="#333333" points="100.5,115.1 100.1,117.9 42.9,114.8 42.9,112    "/>
  <rect x="44.3" y="129.6" transform="matrix(-0.9983 -5.774976e-02 5.774976e-02 -0.9983 99.2287 264.3062)" fill="#333333" width="18.3" height="2.2"/>
  <path fill="#333333" d="M62.4,125.5c-1.6-1.2-3.7-1.6-5.7-1.2c-0.1-0.1-0.1-0.3-0.2-0.4c-0.2-0.4-0.7-0.9-1.2-0.7     c-0.9,0.4-1.8,0.7-2.7,1.1c0-0.6,0.1-1.2,0.1-1.8c0-0.7-0.9-1.2-1.4-0.8c-2.1,1.5-4.2,3-6.3,4.5c-0.4,0.3-0.6,0.8-0.3,1.3     c0.2,0.4,0.9,0.6,1.3,0.3c1.6-1.1,3.2-2.3,4.7-3.4c0,0.4-0.1,0.9-0.1,1.3c0,0.6,0.6,1.1,1.2,0.9c1-0.4,2.1-0.8,3.1-1.2     c0,0.1,0.1,0.2,0.1,0.4c0.2,0.5,0.7,0.9,1.2,0.7c1.7-0.6,3.6-0.4,5.1,0.8c0.4,0.3,1.1,0.1,1.3-0.3     C63,126.3,62.8,125.8,62.4,125.5z"/>
  <path fill="#FACC2C" d="M97.6,56.7c0,0.3,0.3,0.5,0.5,0.5l17.9-1.5L97.7,37.1L97.6,56.7z"/>
  <path fill="#333333" d="M98.1,58.1c-0.4,0-0.7-0.1-1-0.4c-0.3-0.3-0.5-0.7-0.5-1.1c0,0,0,0,0,0l0.1-19.6c0-0.4,0.2-0.8,0.6-0.9   c0.4-0.2,0.8-0.1,1.1,0.2L116.8,55c0.3,0.3,0.4,0.7,0.2,1c-0.1,0.4-0.5,0.6-0.8,0.6l-17.9,1.5C98.2,58.1,98.1,58.1,98.1,58.1z    M98.6,39.4l-0.1,16.7l15.3-1.3L98.6,39.4z"/>
  <path fill="#333333" d="M66.1,93.6c2.5,0.2,4.8,0.6,6.8,1.3c0.8,0.2,1.7,0,2.2-0.5c0,0,0,0,0,0c0.4-0.5,0.1-1.3-0.8-1.7    c-2.3-1.1-4.9-2-7.8-2.5c-1.1-0.2-2.1,0.5-2.1,1.5l0,0C64.4,92.7,65.2,93.6,66.1,93.6z"/>
  <path fill="#333333" d="M71.8,105.1c0.5-0.9,0.7-1.9,0.5-2.9c-0.1-0.7-0.3-1.3-0.6-1.8C71,99,69.6,98.5,68.1,99    c-2.7,0.9-5,1.5-7.3,1.9c-0.9,0.1-1.8,0.2-2.7,0.2c-0.6,0-1.3-0.6-1.5-1.2c-0.1-0.2-0.1-0.5,0-0.7c0.1-0.3,0.3-0.5,0.4-0.8    c0.3-0.5,0.5-1,0.8-1.5c0.7-1.5,1-2.8,0.9-4.1c-0.1-1.2-0.5-2.2-1.4-3c-0.8-0.7-1.7-1.1-2.7-1.1c-1,0-1.9,0.5-2.5,1.3    c-0.4,0.5-0.7,1-1,1.5L51,91.8c-0.9,1.3-1.8,2.6-2.9,3.7c-1.1,1.1-2.1,1.7-3.2,1.9c-0.4,0.1-0.7,0.2-1,0.4c-1.2-1-2.7-1.2-4.2-0.5    c-1.2,0.5-2.1,1.4-2.8,2.6c-0.7,1.1-1.1,2.3-1.4,3.7c0,0.1,0,0.1,0,0.2c-0.1,0.2-0.2,0.4-0.2,0.5c-0.2,1.7,3.2,2.6,3.3,2.6    c0.2,0,0.4,0.2,0.5,0.4c0.2,0.2,0.3,0.6,0.3,0.9c-0.6,0-1.2,0-1.7,0l-0.6,0c-1.3,0-3.1-0.1-3.2,1.4c-0.1,0.9,0.6,1.4,1.3,1.7    c0.1,0.4,0.2,0.7,0.3,1.1c0.6,1.9,1.7,3.4,3.3,4.4c0.5,0.3,1.2,0.6,1.9,0.7c1,0.2,2,0,2.8-0.5c2.9,2.1,6.4,3.6,10.7,4.6    c1.1,0.3,2.2,0.4,3.4,0.4c1.8,0,3.8-0.3,5.8-0.9c1.2-0.4,2.4-0.8,3.3-1.2c1.5-0.6,2.7-1.8,3.4-3.6c0.2-0.6,0.3-1.2,0.3-1.8    c1.4-1.6,1.4-3.2,1-4.4c0.5-0.6,0.9-1.4,0.9-2.5C72.4,106.7,72.2,105.9,71.8,105.1z M69.9,108.8c-0.7,0.9-1.6,1.4-2.6,1.9    c-1.6,0.7-3.3,1.1-5.1,1.3c-1.1,0.1-2.3,0.2-3.4,0.3c-0.3,0-0.7,0-0.9,0.4c0.8,0.4,3.3,0.3,6-0.2c2-0.4,3.9-1.1,5.6-2.4    c0.4,1,0.3,1.9-0.4,2.7c-0.6,0.8-1.4,1.3-2.3,1.8c-1.4,0.7-2.8,1-4.3,1.2c-1.5,0.2-2.9,0.3-4.4,0.4c-0.2,0-0.5,0-0.7,0.3    c0.7,0.4,2.9,0.3,5.5-0.1c1.9-0.3,3.7-0.8,5.3-1.9c0,0.3,0,0.4-0.1,0.6c-0.4,1.3-1.1,2.3-2.4,2.9c-1.2,0.5-2.4,0.9-3.6,1.3    c-3.1,0.9-6.2,1-9.4,0c-2.1-0.6-4.2-1.5-6.2-2.5c-0.7-0.4-1.4-0.8-2.1-1.3c-0.4-0.2-0.6-0.6-0.9-0.8c0.7-1.4,0.8-1.9,0.5-2.4    c-0.1,0.2-0.3,0.4-0.4,0.6c-0.2,0.4-0.4,0.9-0.7,1.4c-0.8,1.3-1.7,1.6-3.1,0.9c-0.3-0.2-0.6-0.4-0.9-0.6c-1.4-1.1-2-2.6-2.2-4.4    c0.5,0,0.9,0,1.3,0c0.6,0,1.2-0.1,1.8-0.2c0.7-0.1,1-0.5,1.2-1.2c0.5-1.7-0.6-3.6-2.3-4c-0.5-0.1-1.1-0.2-1.6-0.3    c0.1-1.3,0.9-3.4,1.8-4.3c0.2-0.2,0.3-0.3,0.5-0.5c1.7-1.3,3.3-0.9,4,1.1c0.2,0.7,0.3,1.5,0.4,2.2c0,0.2,0.1,0.5,0.1,0.7    c0.1,0,0.1,0,0.2,0c0.1-0.2,0.2-0.5,0.2-0.7c0.1-0.7,0-1.3-0.2-2c-0.2-0.9,0.1-1.5,1-1.8c1.7-0.4,3-1.4,4.2-2.5    c1.1-1.1,2-2.4,2.9-3.7c0.4-0.5,0.7-1.1,1.1-1.5c0.7-0.9,1.8-0.9,2.6,0.1c0.5,0.7,0.7,1.4,0.6,2.3c-0.1,0.8-0.4,1.6-0.7,2.4    c-0.4,0.7-0.7,1.5-1.1,2.2c-0.5,0.9-0.4,1.9,0.1,2.8c0.8,1.3,1.8,2,3.3,2c0.4,0,0.9,0,1.3-0.1c1-0.1,2-0.3,3-0.5    c2-0.4,4-0.9,5.9-1.8c0.6-0.3,1.1-0.1,1.5,0.5c0.7,1.2,0.4,2.8-0.7,3.6c-0.4,0.3-0.9,0.5-1.4,0.7c-1.6,0.6-3.3,0.9-4.9,1.1    c-1.3,0.2-2.6,0.3-4,0.5c-0.3,0-0.6,0.1-0.9,0.2c0,0.1,0,0.1,0,0.2c0.2,0.1,0.3,0.2,0.5,0.2c0.5,0,1,0.1,1.5,0    c0.7,0,1.3-0.1,2-0.2c2.6-0.4,5.3-0.8,7.6-2.1C70.7,106.6,70.7,107.8,69.9,108.8z"/>
  <path fill="#FFFFFF" d="M58.9,112.3c1.1-0.1,2.3-0.2,3.4-0.3c1.8-0.2,3.5-0.6,5.1-1.3c1-0.5,1.9-1,2.6-1.9c0.8-1,0.8-2.2-0.1-3.3    c-2.4,1.3-5,1.7-7.6,2.1c-0.7,0.1-1.3,0.2-2,0.2c-0.5,0-1,0-1.5,0c-0.2,0-0.3-0.1-0.5-0.2c0-0.1,0-0.1,0-0.2    c0.3-0.1,0.6-0.2,0.9-0.2c1.3-0.2,2.6-0.3,4-0.5c1.7-0.2,3.3-0.5,4.9-1.1c0.5-0.2,1-0.4,1.4-0.7c1.1-0.8,1.4-2.4,0.7-3.6    c-0.4-0.6-0.9-0.8-1.5-0.5c-1.9,0.9-3.9,1.4-5.9,1.8c-1,0.2-2,0.4-3,0.5c-0.4,0.1-0.9,0.1-1.3,0.1c-1.5,0-2.6-0.7-3.3-2    c-0.5-0.9-0.6-1.8-0.1-2.8c0.4-0.7,0.7-1.5,1.1-2.2c0.4-0.8,0.6-1.6,0.7-2.4c0.1-0.8-0.1-1.6-0.6-2.3c-0.7-1-1.8-1-2.6-0.1    c-0.4,0.5-0.7,1-1.1,1.5c-0.9,1.3-1.8,2.6-2.9,3.7c-1.2,1.2-2.6,2.1-4.2,2.5c-0.9,0.2-1.2,0.8-1,1.8c0.2,0.7,0.3,1.3,0.2,2    c0,0.2-0.1,0.5-0.2,0.7c-0.1,0-0.1,0-0.2,0c0-0.2-0.1-0.5-0.1-0.7c-0.1-0.7-0.2-1.5-0.4-2.2c-0.7-2-2.3-2.5-4-1.1    c-0.2,0.2-0.4,0.3-0.5,0.5c-0.8,0.9-1.7,3-1.8,4.3c0.5,0.1,1.1,0.2,1.6,0.3c1.7,0.4,2.8,2.3,2.3,4c-0.2,0.6-0.6,1.1-1.2,1.2    c-0.6,0.1-1.2,0.1-1.8,0.2c-0.4,0-0.9,0-1.3,0c0.3,1.8,0.9,3.3,2.2,4.4c0.3,0.2,0.6,0.4,0.9,0.6c1.4,0.7,2.3,0.4,3.1-0.9    c0.3-0.4,0.5-0.9,0.7-1.4c0.1-0.2,0.2-0.4,0.4-0.6c0.3,0.5,0.2,1.1-0.5,2.4c0.3,0.3,0.6,0.6,0.9,0.8c0.7,0.5,1.4,0.9,2.1,1.3    c2,1,4,1.8,6.2,2.5c3.1,0.9,6.3,0.9,9.4,0c1.2-0.4,2.4-0.8,3.6-1.3c1.3-0.5,2-1.6,2.4-2.9c0-0.1,0-0.3,0.1-0.6    c-1.7,1.1-3.5,1.7-5.3,1.9c-2.6,0.4-4.8,0.5-5.5,0.1c0.2-0.3,0.4-0.3,0.7-0.3c1.5-0.2,2.9-0.3,4.4-0.4c1.5-0.2,3-0.5,4.3-1.2    c0.9-0.4,1.7-1,2.3-1.8c0.6-0.8,0.8-1.7,0.4-2.7c-1.7,1.2-3.6,2-5.6,2.4c-2.7,0.5-5.3,0.6-6,0.2C58.2,112.3,58.5,112.3,58.9,112.3    z M55.8,107.2c0,0.2-0.2,0.3-0.4,0.6c-0.2-0.3-0.3-0.4-0.3-0.6c0-0.3,0.2-0.4,0.4-0.4C55.7,106.9,55.9,107.1,55.8,107.2z     M54.9,112.6c0.1-0.1,0.2-0.3,0.4-0.3c0,0,0.3,0.2,0.3,0.2c0,0.2-0.2,0.3-0.3,0.5C55,112.8,54.8,112.7,54.9,112.6z M55,116.3    c0.3,0.2,0.2,0.5-0.1,0.8c-0.4-0.1-0.6-0.3-0.3-0.6C54.7,116.3,54.9,116.2,55,116.3z"/>
  <path d="M55.5,106.8c-0.2-0.1-0.4,0.1-0.4,0.4c0,0.2,0.2,0.3,0.3,0.6c0.2-0.3,0.4-0.4,0.4-0.6C55.9,107.1,55.7,106.9,55.5,106.8z"/>
  <path d="M55,116.3c-0.1-0.1-0.3,0-0.4,0.1c-0.2,0.3,0,0.5,0.3,0.6C55.2,116.8,55.3,116.5,55,116.3z"/>
  <path d="M55.2,112.3c-0.2,0.1-0.3,0.2-0.4,0.3c0,0.1,0.2,0.2,0.3,0.4c0.1-0.2,0.3-0.4,0.3-0.5C55.5,112.4,55.3,112.2,55.2,112.3z"/>
  <path fill="#333333" d="M38.2,103c-1.2-0.1-2.3-0.2-3.5-0.3c0.3,0,0.7,0.1,1,0.1c-2-0.3-3.9-0.8-5.8-1.4c-1.3-0.5-2.7-0.9-4-1.4    c0.3,0.1,0.6,0.3,0.9,0.4c-0.7-0.3-1.4-0.6-2-1.1c0.3,0.2,0.5,0.4,0.8,0.6c-0.3-0.3-0.6-0.6-0.9-0.9c0.2,0.3,0.4,0.5,0.6,0.8    c-0.2-0.2-0.3-0.5-0.5-0.8c0.1,0.3,0.3,0.6,0.4,0.9c-0.1-0.2-0.2-0.5-0.2-0.8c0,0.3,0.1,0.7,0.1,1c0-0.3,0-0.6,0-0.9    c0,0.3-0.1,0.7-0.1,1c0.1-0.4,0.2-0.9,0.4-1.3c-0.1,0.3-0.3,0.6-0.4,0.9c0.1-0.2,0.2-0.3,0.2-0.5c0.5-0.9,0.7-1.9,0.4-2.9    c-0.2-0.9-0.9-1.8-1.8-2.3c-0.9-0.5-2-0.7-2.9-0.4c-0.9,0.3-1.8,0.9-2.3,1.8c-0.7,1.3-1.1,2.6-1.1,4c0,1.2,0.3,2.4,0.9,3.5    c0.8,1.5,2.3,2.8,3.8,3.5c1,0.5,2.1,0.9,3.2,1.3c1.8,0.6,3.5,1.3,5.3,1.7c2.4,0.6,4.9,0.9,7.4,1c0.9,0.1,2-0.5,2.7-1.1    c0.7-0.7,1.2-1.7,1.1-2.7c0-1-0.4-2-1.1-2.7C40.2,103.4,39.3,103,38.2,103L38.2,103z"/>
  <path fill="#979797" d="M71.5,20.2c-0.2,0-0.3-0.1-0.4-0.2C71,19.9,71,19.8,71,19.6c0-0.1,0-0.3,0-0.4c0-0.1,0-0.3,0-0.4    c0.1-0.7,0.3-1.4,0.7-1.9c0.3-0.6,0.7-1.1,1.2-1.6c0.5-0.5,0.9-0.9,1.4-1.4c0.4-0.4,0.8-0.8,1.1-1.3c0.3-0.4,0.5-0.9,0.5-1.3    c0.1-0.5,0-0.9-0.3-1.3c-0.2-0.3-0.6-0.6-1-0.8C74.1,9.1,73.7,9,73.2,9c-0.9,0-1.5,0.2-2.1,0.6c-0.5,0.4-0.9,1.1-1.1,1.9    c-0.1,0.2-0.2,0.4-0.3,0.5c-0.1,0.1-0.3,0.2-0.6,0.2h-3c-0.2,0-0.3-0.1-0.5-0.2c-0.1-0.1-0.2-0.3-0.2-0.5c0-0.8,0.2-1.5,0.6-2.3    c0.4-0.7,0.9-1.4,1.6-2c0.7-0.6,1.5-1.1,2.5-1.4c1-0.4,2.1-0.5,3.4-0.5c1.4,0,2.6,0.2,3.5,0.5c0.9,0.4,1.7,0.8,2.2,1.4    c0.6,0.6,1,1.2,1.2,1.8c0.2,0.6,0.3,1.2,0.3,1.8c0,0.7-0.2,1.4-0.5,1.9c-0.3,0.6-0.6,1.1-1,1.6c-0.4,0.5-0.8,1-1.3,1.4    c-0.4,0.5-0.8,0.9-1.2,1.4c-0.3,0.5-0.6,1-0.7,1.5c0,0.2-0.1,0.3-0.1,0.5c0,0.1-0.1,0.3-0.1,0.5c-0.1,0.3-0.2,0.4-0.3,0.6    c-0.1,0.1-0.3,0.2-0.5,0.2L71.5,20.2z M71.5,27.1c-0.2,0-0.4-0.1-0.5-0.2c-0.1-0.1-0.2-0.3-0.2-0.5v-2.9c0-0.2,0.1-0.4,0.2-0.5    c0.1-0.1,0.3-0.2,0.5-0.2l3.3,0c0.2,0,0.4,0.1,0.5,0.2c0.1,0.1,0.2,0.3,0.2,0.5v2.9c0,0.2-0.1,0.4-0.2,0.5    c-0.1,0.1-0.3,0.2-0.5,0.2H71.5z"/>
  <path fill="#FFFFFF" d="M444.1,72.2c-0.2-0.2-0.4-0.5-0.6-0.7c-0.2-0.1-0.4-0.3-0.6-0.4c-0.3-0.2-0.6-0.3-1-0.4    c-0.4-0.1-0.8-0.2-1.3-0.3l-0.2,0c-0.5-0.1-1-0.1-1.5-0.2c-3.3-0.2-6.1,0.2-8.6,1.2c-0.1,0.1-0.3,0-0.4-0.1    c-0.1-0.1,0-0.3,0.1-0.4c0,0,0.1-0.1,0.1-0.1c0.3-0.2,0.6-0.4,1-0.5c1.7-0.7,4-1.2,5.3-1.2c1.1-0.1,2.3,0,3.7,0.2    c1.1,0.1,2,0.3,2.9,0.8c0,0,0.1,0,0.1-0.1c0.1,0,0.2,0,0.2,0c0.1,0,0.1,0.1,0.2,0.1c0,0,0.1-0.1,0.1-0.1c0.3-0.3,0.4-0.7,0.4-1.1    c0-0.4-0.2-0.8-0.5-1.2c-0.6-0.8-1.6-1.2-2.3-1.4c-0.1,0-0.1,0-0.2-0.1c-1-0.2-2.1-0.3-3.2-0.3c-3.2,0-6.4,0.8-9.1,2.2    c-0.1,0.1-0.3,0-0.4-0.1c-0.1-0.1,0-0.3,0.1-0.4c1.6-1.2,7.2-3,10.6-2.8c0,0,0.1,0,0.2,0c0.4,0,0.8,0.1,1.2,0.1    c-0.2-0.3-0.4-0.5-0.7-0.7c-1.1-0.7-2.4-0.8-3.4-0.8c-1.1,0-2.3,0.3-3.7,0.7c-1.2,0.3-2.4,0.8-3.6,1.3c-1.3,0.5-2.4,1.1-3.5,1.7    c-0.4,0.2-0.8,0.4-1.1,0.6c-0.2,0.1-0.4,0.2-0.6,0.3c-0.5,0.2-0.9,0.4-1.4,0.6c-0.1,0.1-0.3,0-0.3-0.1s-0.1-0.3,0-0.4    c0.4-0.4,0.9-0.8,1.4-1.2c0.2-0.3,0.4-0.6,0.6-1.1c0.2-0.5,0.4-1,0.6-1.6c0.2-0.6,0.3-1.1,0.3-1.7c0.1-0.6,0-1.1-0.1-1.5    c-0.3-0.8-1.1-1.7-2.1-1.8c-0.4,0-0.9,0.1-1.3,0.5c-0.4,0.3-0.7,0.7-1,1.2c-0.3,0.6-0.5,1.4-0.7,2.2c-0.1,0.4-0.2,0.8-0.3,1.2    c-0.2,0.7-0.5,1.3-0.8,1.8c-0.3,0.5-0.7,1-1.2,1.5c-0.3,0.3-0.6,0.6-0.9,0.9c-0.6,0.6-1.1,1.1-1.6,1.7c-0.7,0.9-1.1,1.9-1.2,3    c-0.1,0.8,0,1.6,0.2,2.4c0.2,0.8,0.6,1.5,1.2,2.1c0.1,0.1,0.1,0.3,0,0.4c-0.1,0.1-0.3,0.1-0.4,0c-0.3-0.3-0.5-0.6-0.7-0.8    c-0.5,0.4-1.5,1-2,1.3c0.3,1.9,1.5,4,3.1,5.7c0.2,0.2,0.4,0.4,0.6,0.5c0,0,0.1,0.1,0.1,0.1c0.1,0.1,0.2,0.1,0.3,0.2    c0.2,0.2,0.5,0.3,0.8,0.5c0.3,0.2,0.7,0.3,1.1,0.5c0.7,0.2,1.5,0.4,2.4,0.5c0.2,0,0.4,0,0.6,0.1c0.2,0,0.4,0,0.6,0    c0.4,0,0.7,0,1.1,0c0,0,0.1,0,0.1,0c0.2,0,0.4,0,0.6-0.1c0.4,0,0.7-0.1,1-0.2c0-0.3,0-0.7-0.1-1c0-0.2,0-0.4,0-0.5l-0.1-0.9    c0-0.1,0-0.1-0.2-0.2c-0.1-0.1-0.2-0.2-0.1-0.3c0-0.1,0.1-0.2,0.2-0.2c0.9-0.3,1.8-0.7,3-1.2l3.4-1.6c1.1-0.6,2.3-1,3.6-1.4    c1.2-0.3,2.5-0.6,3.8-0.7c0.4,0,0.9-0.1,1.3-0.1c0.8,0,1.6,0,2.2-0.3c0.5-0.2,0.8-0.6,1-0.9c0.1-0.2,0.1-0.5,0-0.8    c-0.1-0.1-0.1-0.3-0.2-0.4c0-0.1-0.1-0.1-0.1-0.1c-0.3-0.3-0.7-0.6-1.1-0.8c-0.5-0.3-1.1-0.4-1.6-0.5c-1.1-0.2-2.5-0.2-3.7,0.1    c-1,0.2-2,0.5-2.9,0.8c-0.3,0.1-0.6,0.2-0.8,0.3c-0.1,0-0.3,0-0.3-0.2c-0.1-0.1,0-0.3,0.1-0.4c0,0,0.1,0,0.1-0.1    c0.3-0.1,0.5-0.3,0.8-0.4c1.3-0.6,3.3-1.2,4.6-1.3c2.5-0.2,4.3,0.4,5.6,1.7c0.1,0,0.2,0,0.3,0.1l0.1,0c0.1,0,0.2-0.1,0.3-0.1    c0.1,0,0.2-0.1,0.3-0.1l0,0c0.2-0.1,0.3-0.2,0.5-0.4c0.1-0.1,0.2-0.3,0.3-0.5c0.1-0.2,0.1-0.3,0.1-0.5    C444.5,73,444.4,72.6,444.1,72.2z M421.4,72.4c-0.6,0.3-1.1,0.7-1.7,1.1c-0.5,0.4-1,0.8-1.5,1.3c-0.5,0.5-0.9,0.9-1.4,1.4    c0.2-0.7,0.6-1.2,1-1.8c0.4-0.5,0.9-1,1.5-1.4c0.6-0.4,1.2-0.8,1.8-1c0.6-0.3,1.3-0.4,2-0.5C422.6,71.8,422,72.1,421.4,72.4z"/>
  <path fill="#333333" d="M445.5,71.4c-0.1-0.2-0.2-0.3-0.4-0.5c0.4-0.6,0.6-1.3,0.6-2c0-0.7-0.3-1.4-0.8-2.1c0,0,0,0,0,0     c-0.6-0.8-1.5-1.4-2.7-1.8c0-0.1,0-0.1-0.1-0.2c0-0.1-0.1-0.1-0.1-0.2c-0.3-0.7-0.8-1.2-1.5-1.7c-1.1-0.8-2.6-1.2-4.3-1.1     c-1.2,0.1-2.6,0.3-4.1,0.7c-1.2,0.4-2.5,0.8-3.8,1.4c-0.8,0.4-1.6,0.7-2.3,1.1c0-0.1,0.1-0.2,0.1-0.3c0.2-0.7,0.3-1.3,0.4-1.9     c0.1-0.9,0-1.6-0.2-2.2c-0.5-1.4-1.8-2.8-3.5-2.8c-0.8,0-1.6,0.3-2.3,0.8c-0.5,0.4-1,1-1.4,1.7c-0.4,0.8-0.7,1.7-0.9,2.5     c-0.1,0.4-0.2,0.7-0.3,1.1c-0.2,0.6-0.4,1-0.6,1.4c-0.3,0.4-0.6,0.8-1,1.2c-0.3,0.3-0.6,0.6-0.8,0.8c-0.6,0.6-1.2,1.2-1.8,1.9     c-0.9,1.1-1.4,2.5-1.5,3.8c-0.1,1,0,2,0.3,3c0,0.1,0.1,0.2,0.1,0.4c-0.6,0.4-1.3,0.9-1.5,1c-0.4,0.3-0.7,0.8-0.6,1.3     c0.3,2.3,1.6,4.8,3.6,6.8c0.3,0.3,0.6,0.5,0.9,0.8c-0.6,3.7-1.9,10.1-2.5,12.6c-2.1-1.1-4.1-2.4-6-3.6c-1.1-0.7-2.1-1.5-3.2-2.2     c-0.8-0.6-1.6-1.1-2.5-1.7c-0.4-0.3-1-0.7-1.7-1c-0.5-0.2-1.1-0.3-1.6-0.4c-1.6,0-2.9,1.1-3.1,2.7c-0.1,0.6,0.1,1.2,0.4,1.7     c0.3,0.5,0.7,1,1.1,1.5c2.1,2.3,4.7,4.4,8.1,6.9c2,1.4,4.6,3.2,7.6,4.7c1,0.5,2,0.9,3,1.1c0.3,0.1,0.6,0.1,0.8,0.1     c1.6,0,2.9-1,3.5-2.5c0.5-1.4,1-3.1,1.5-4.7c1.3-4.7,2.3-9.1,3-13.2c0.6-0.1,1.1-0.2,1.7-0.3c0.6-0.2,0.9-0.7,0.9-1.3     c0-0.4,0-0.9-0.1-1.3c0-0.2,0-0.4,0-0.5l0-0.5c0.6-0.2,1.2-0.5,1.9-0.9l3.4-1.6c1-0.5,2.2-0.9,3.3-1.3c1.1-0.3,2.3-0.5,3.5-0.6     c0.4,0,0.7,0,1.1-0.1c0.9,0,1.9-0.1,2.8-0.5c0.9-0.4,1.5-1.1,1.8-1.8c0.1-0.4,0.2-0.8,0.1-1.2c0,0,0,0,0,0     c0.2-0.1,0.3-0.1,0.4-0.2l0.1,0c0.3-0.2,0.6-0.4,0.8-0.6c0.3-0.3,0.5-0.6,0.6-0.9c0,0,0-0.1,0.1-0.1c0.1-0.3,0.2-0.7,0.2-1     c0,0,0,0,0-0.1C446.1,72.7,445.9,72,445.5,71.4z M442.8,74.9c-0.1-0.1-0.2-0.1-0.3-0.1c-1.3-1.3-3.2-1.9-5.6-1.7     c-1.3,0.1-3.3,0.7-4.6,1.3c-0.3,0.1-0.6,0.3-0.8,0.4c0,0-0.1,0-0.1,0.1c-0.1,0.1-0.2,0.2-0.1,0.4c0.1,0.1,0.2,0.2,0.3,0.2     c0.3-0.1,0.5-0.2,0.8-0.3c0.9-0.3,1.9-0.6,2.9-0.8c1.2-0.3,2.6-0.3,3.7-0.1c0.5,0.1,1.1,0.3,1.6,0.5c0.5,0.2,0.8,0.5,1.1,0.8     c0,0,0.1,0.1,0.1,0.1c0.1,0.1,0.2,0.2,0.2,0.4c0.1,0.3,0.1,0.6,0,0.8c-0.1,0.4-0.5,0.7-1,0.9c-0.6,0.3-1.4,0.3-2.2,0.3     c-0.4,0-0.8,0-1.3,0.1c-1.3,0.1-2.6,0.3-3.8,0.7c-1.3,0.3-2.5,0.8-3.6,1.4L427,82c-1.2,0.6-2.1,1-3,1.2c-0.1,0-0.2,0.1-0.2,0.2     c0,0.1,0,0.2,0.1,0.3c0.2,0.1,0.2,0.1,0.2,0.2l0.1,0.9c0,0.2,0,0.4,0,0.5c0,0.3,0.1,0.7,0.1,1c-0.3,0.1-0.7,0.1-1,0.2     c-0.2,0-0.4,0-0.6,0.1c0,0-0.1,0-0.1,0c-0.3,0-0.7,0-1.1,0c-0.2,0-0.4,0-0.6,0c-0.2,0-0.4,0-0.6-0.1c-0.9-0.1-1.7-0.3-2.4-0.5     c-0.4-0.1-0.8-0.3-1.1-0.5c-0.3-0.1-0.5-0.3-0.8-0.5c-0.1-0.1-0.2-0.1-0.3-0.2c0,0-0.1-0.1-0.1-0.1c-0.2-0.2-0.4-0.3-0.6-0.5     c-1.6-1.7-2.8-3.8-3.1-5.7c0.4-0.3,1.4-0.9,2-1.3c0.2,0.2,0.5,0.5,0.7,0.8c0.1,0.1,0.3,0.1,0.4,0c0.1-0.1,0.1-0.3,0-0.4     c-0.5-0.6-0.9-1.4-1.2-2.1c-0.2-0.8-0.3-1.6-0.2-2.4c0.1-1.1,0.5-2.1,1.2-3c0.5-0.6,1-1.1,1.6-1.7c0.3-0.3,0.6-0.6,0.9-0.9     c0.5-0.5,0.9-1,1.2-1.5c0.3-0.5,0.6-1.1,0.8-1.8c0.1-0.4,0.2-0.8,0.3-1.2c0.2-0.8,0.4-1.5,0.7-2.2c0.3-0.5,0.6-0.9,1-1.2     c0.4-0.3,0.8-0.5,1.3-0.5c1,0,1.8,0.9,2.1,1.8c0.2,0.4,0.2,0.9,0.1,1.5c-0.1,0.5-0.2,1.1-0.3,1.7c-0.2,0.6-0.4,1.1-0.6,1.6     c-0.2,0.4-0.4,0.8-0.6,1.1c-0.5,0.4-1,0.7-1.4,1.2c-0.1,0.1-0.1,0.2,0,0.4s0.2,0.2,0.3,0.1c0.5-0.2,1-0.4,1.4-0.6     c0.2-0.1,0.4-0.2,0.6-0.3c0.4-0.2,0.8-0.4,1.1-0.6c1.1-0.6,2.2-1.1,3.5-1.7c1.3-0.5,2.4-1,3.6-1.3c1.4-0.4,2.6-0.6,3.7-0.7     c0.9,0,2.3,0.1,3.4,0.8c0.3,0.2,0.5,0.4,0.7,0.7c-0.4-0.1-0.8-0.1-1.2-0.1c-0.1,0-0.1,0-0.2,0c-3.3-0.2-8.9,1.6-10.6,2.8     c-0.1,0.1-0.1,0.3-0.1,0.4c0.1,0.1,0.2,0.2,0.4,0.1c2.7-1.4,5.9-2.1,9.1-2.2c1.1,0,2.2,0.1,3.2,0.3c0.1,0,0.1,0,0.2,0.1     c0.7,0.2,1.7,0.6,2.3,1.4c0.3,0.4,0.5,0.8,0.5,1.2c0,0.4-0.1,0.8-0.4,1.1c0,0-0.1,0.1-0.1,0.1c-0.1,0-0.1-0.1-0.2-0.1     c-0.1,0-0.1,0-0.2,0c0,0-0.1,0-0.1,0.1c-0.9-0.4-1.8-0.6-2.9-0.8c-1.5-0.2-2.7-0.3-3.7-0.2c-1.3,0.1-3.6,0.5-5.3,1.2     c-0.3,0.2-0.6,0.3-1,0.5c0,0-0.1,0.1-0.1,0.1c-0.1,0.1-0.1,0.2-0.1,0.4c0.1,0.1,0.2,0.2,0.4,0.1c2.5-1,5.3-1.4,8.6-1.2     c0.5,0,1,0.1,1.5,0.2l0.2,0c0.4,0.1,0.9,0.1,1.3,0.3c0.4,0.1,0.7,0.3,1,0.4c0.2,0.1,0.4,0.3,0.6,0.4c0.3,0.2,0.5,0.4,0.6,0.7     c0.2,0.4,0.4,0.8,0.4,1.1c0,0.2-0.1,0.4-0.1,0.5c-0.1,0.2-0.2,0.4-0.3,0.5c-0.1,0.1-0.3,0.3-0.5,0.4l0,0c-0.1,0-0.2,0.1-0.3,0.1     c-0.1,0-0.2,0.1-0.3,0.1L442.8,74.9z"/>
  <path fill="#333333" d="M419.4,73c-0.6,0.4-1.1,0.9-1.5,1.4c-0.4,0.5-0.8,1.1-1,1.8c0.5-0.5,0.9-1,1.4-1.4c0.5-0.4,1-0.9,1.5-1.3     c0.5-0.4,1.1-0.7,1.7-1.1c0.6-0.3,1.2-0.6,1.8-0.9c-0.7,0-1.4,0.2-2,0.5C420.6,72.2,420,72.6,419.4,73z"/>
  <path fill="#FFFFFF" d="M317.9,75.8c-0.2,0.2-0.5,0.5-0.7,0.8c-0.1,0.1-0.3,0.1-0.4,0c-0.1-0.1-0.1-0.3,0-0.4    c0.5-0.6,0.9-1.4,1.2-2.1c0.2-0.8,0.3-1.6,0.2-2.4c-0.1-1.1-0.5-2.1-1.2-3c-0.5-0.6-1-1.1-1.6-1.7c-0.3-0.3-0.6-0.6-0.9-0.9    c-0.5-0.5-0.9-1-1.2-1.5c-0.3-0.5-0.6-1.1-0.8-1.8c-0.1-0.4-0.2-0.8-0.3-1.2c-0.2-0.8-0.4-1.5-0.7-2.2c-0.3-0.5-0.6-0.9-1-1.2    c-0.4-0.3-0.8-0.5-1.3-0.5c-1,0-1.8,0.9-2.1,1.8c-0.2,0.4-0.2,0.9-0.1,1.5c0.1,0.5,0.2,1.1,0.3,1.7c0.2,0.6,0.4,1.1,0.6,1.6    c0.2,0.4,0.4,0.8,0.6,1.1c0.5,0.4,1,0.7,1.4,1.2c0.1,0.1,0.1,0.2,0,0.4c-0.1,0.1-0.2,0.2-0.3,0.1c-0.5-0.2-1-0.4-1.4-0.6    c-0.2-0.1-0.4-0.2-0.6-0.3c-0.4-0.2-0.7-0.4-1.1-0.6c-1.1-0.6-2.2-1.1-3.5-1.7c-1.3-0.5-2.4-1-3.6-1.3c-1.4-0.4-2.6-0.6-3.7-0.7    c-0.9,0-2.3,0.1-3.4,0.8c-0.3,0.2-0.5,0.4-0.7,0.7c0.4-0.1,0.8-0.1,1.2-0.1c0.1,0,0.1,0,0.2,0c3.3-0.2,8.9,1.6,10.6,2.8    c0.1,0.1,0.1,0.3,0.1,0.4c-0.1,0.1-0.2,0.2-0.4,0.1c-2.7-1.4-5.9-2.1-9.1-2.2c-1.1,0-2.2,0.1-3.2,0.3c0,0,0,0-0.1,0    c0,0-0.1,0-0.2,0.1c-0.7,0.2-1.7,0.6-2.3,1.4c-0.3,0.4-0.5,0.8-0.5,1.2c0,0.4,0.1,0.8,0.4,1.1c0,0,0.1,0.1,0.1,0.1    c0.1,0,0.1-0.1,0.2-0.1c0.1,0,0.1,0,0.2,0c0,0,0.1,0,0.1,0.1c0.9-0.4,1.8-0.6,2.9-0.8c1.5-0.2,2.7-0.3,3.7-0.2    c1.3,0.1,3.6,0.5,5.3,1.2c0.3,0.2,0.6,0.3,1,0.5c0.1,0,0.1,0.1,0.1,0.1c0.1,0.1,0.1,0.2,0.1,0.4c-0.1,0.1-0.2,0.2-0.4,0.1    c-2.5-1-5.3-1.4-8.6-1.2c-0.5,0-1,0.1-1.5,0.2l-0.2,0c-0.4,0.1-0.9,0.1-1.3,0.3c-0.4,0.1-0.7,0.3-1,0.4c-0.2,0.1-0.4,0.3-0.6,0.4    c-0.3,0.2-0.5,0.4-0.6,0.7c-0.2,0.4-0.4,0.8-0.4,1.1c0,0.2,0.1,0.4,0.1,0.5c0.1,0.2,0.2,0.3,0.3,0.4c0.1,0.1,0.3,0.3,0.5,0.4l0,0    c0.1,0,0.2,0.1,0.2,0.1c0.1,0.1,0.2,0.1,0.3,0.1l0.1,0c0.1-0.1,0.2-0.1,0.3-0.1c1.3-1.3,3.2-1.8,5.6-1.7c1.3,0.1,3.3,0.7,4.6,1.3    c0.3,0.1,0.6,0.3,0.8,0.4l0.1,0.1c0.1,0.1,0.2,0.2,0.1,0.4c-0.1,0.1-0.2,0.2-0.3,0.2c-0.3-0.1-0.5-0.2-0.8-0.3    c-0.9-0.3-1.9-0.6-2.9-0.8c-1.2-0.3-2.6-0.3-3.7-0.1c-0.5,0.1-1.1,0.3-1.6,0.5c-0.5,0.2-0.8,0.5-1.1,0.8c0,0-0.1,0.1-0.1,0.1    c-0.1,0.1-0.2,0.2-0.2,0.4c-0.1,0.2-0.2,0.5,0,0.8c0.1,0.4,0.5,0.7,1,0.9c0.6,0.3,1.4,0.3,2.2,0.3c0.4,0,0.8,0,1.3,0.1    c1.3,0.1,2.6,0.3,3.8,0.7c1.3,0.3,2.5,0.8,3.6,1.4l3.4,1.6c1.2,0.6,2.1,1,3,1.2c0.1,0,0.2,0.1,0.2,0.2c0,0.1,0,0.2-0.1,0.3    c-0.2,0.1-0.2,0.1-0.2,0.2c0,0.2,0,0.4,0,0.7l0,0.3c0,0.2,0,0.4,0,0.6c0,0.3-0.1,0.7-0.1,1c0.3,0.1,0.7,0.1,1,0.2    c0.2,0,0.4,0,0.6,0.1c0,0,0.1,0,0.1,0c0.3,0,0.7,0,1.1,0c0.2,0,0.4,0,0.6,0c0.2,0,0.4,0,0.6-0.1c0.9-0.1,1.7-0.3,2.4-0.5    c0.4-0.1,0.8-0.3,1.1-0.5c0.3-0.1,0.5-0.3,0.8-0.5c0.1-0.1,0.2-0.1,0.3-0.2c0,0,0.1-0.1,0.1-0.1c0.2-0.2,0.4-0.3,0.6-0.5    c1.6-1.7,2.8-3.8,3.1-5.7C319.5,76.8,318.5,76.1,317.9,75.8z M310.7,70.4c0.6,0.3,1.3,0.6,1.8,1c0.6,0.4,1.1,0.9,1.5,1.4    c0.4,0.5,0.8,1.1,1,1.8c-0.5-0.5-0.9-1-1.4-1.4c-0.5-0.4-1-0.9-1.5-1.3c-0.5-0.4-1.1-0.7-1.7-1.1c-0.6-0.3-1.2-0.6-1.8-0.9    C309.3,70,310,70.2,310.7,70.4z"/>
  <path fill="#333333" d="M337.6,91.1C337.6,91.1,337.6,91.1,337.6,91.1c-0.2-1.5-1.5-2.7-3-2.7c0,0,0,0-0.1,0c-0.6,0-1.2,0.1-1.6,0.4     c-0.7,0.3-1.3,0.7-1.7,1c-0.8,0.6-1.6,1.1-2.5,1.7c-1,0.7-2.1,1.5-3.2,2.2c-1.9,1.2-3.8,2.5-6,3.6c-0.6-2.6-1.9-8.9-2.5-12.6     c0.3-0.2,0.6-0.5,0.9-0.8c2-2,3.3-4.4,3.6-6.8c0.1-0.5-0.2-1-0.6-1.3c-0.2-0.1-1-0.6-1.6-1c0-0.1,0.1-0.3,0.1-0.4     c0.3-1,0.4-2,0.3-2.9c-0.1-1.4-0.6-2.7-1.5-3.8c-0.5-0.7-1.2-1.3-1.8-1.9c-0.3-0.3-0.6-0.5-0.8-0.8c-0.4-0.4-0.8-0.9-1-1.2     c-0.2-0.4-0.5-0.9-0.6-1.4c-0.1-0.4-0.2-0.7-0.3-1.1c-0.2-0.8-0.4-1.7-0.9-2.5c-0.4-0.7-0.8-1.3-1.4-1.7     c-0.7-0.5-1.5-0.8-2.3-0.8c-1.7,0-3,1.4-3.5,2.8c-0.3,0.7-0.3,1.4-0.2,2.2c0.1,0.6,0.2,1.3,0.4,1.9c0,0.1,0.1,0.2,0.1,0.3     c-0.7-0.4-1.5-0.7-2.3-1.1c-1.3-0.6-2.6-1-3.8-1.4c-1.5-0.4-2.9-0.7-4.1-0.7c-1.7-0.1-3.2,0.3-4.3,1.1c-0.6,0.4-1.1,1-1.5,1.7     c0,0.1-0.1,0.1-0.1,0.2c0,0.1,0,0.1-0.1,0.2c-1.2,0.4-2.1,1-2.7,1.8c0,0,0,0,0,0c-0.5,0.7-0.8,1.4-0.8,2c-0.1,0.7,0.2,1.5,0.6,2     c-0.1,0.2-0.3,0.3-0.4,0.5c-0.4,0.6-0.6,1.3-0.6,2c0,0,0,0,0,0.1c0,0.4,0.1,0.7,0.2,1c0,0,0,0.1,0,0.1c0.1,0.2,0.3,0.6,0.6,0.9     c0.2,0.2,0.5,0.4,0.8,0.6l0,0c0.1,0.1,0.2,0.1,0.4,0.2c0,0,0,0,0,0c-0.1,0.4,0,0.8,0.1,1.2c0.3,0.8,0.9,1.4,1.8,1.8     c0.9,0.4,1.9,0.4,2.8,0.5c0.4,0,0.8,0,1.2,0.1c1.2,0.1,2.4,0.3,3.5,0.6c1.2,0.3,2.3,0.7,3.3,1.3l3.4,1.6c0.5,0.3,1.2,0.6,1.9,0.9     l0,0.5c0,0.2,0,0.4,0,0.5c0,0.4-0.1,0.8-0.1,1.3c0,0.6,0.4,1.1,0.9,1.3c0.5,0.1,1.1,0.2,1.7,0.3c0.7,4.2,1.7,8.5,3,13.2     c0.5,1.7,1,3.3,1.5,4.7c0.5,1.6,1.9,2.5,3.5,2.5c0.3,0,0.6,0,0.8-0.1c1-0.2,2-0.6,3-1.1c2.9-1.5,5.6-3.3,7.6-4.7     c3.5-2.5,6-4.6,8.1-6.9c0.5-0.5,0.9-1,1.1-1.5C337.6,92.3,337.7,91.7,337.6,91.1z M307.6,83.9c0-0.2,0-0.4,0-0.6l0-0.3     c0-0.2,0-0.4,0-0.7c0-0.1,0-0.1,0.2-0.2c0.1-0.1,0.2-0.2,0.1-0.3c0-0.1-0.1-0.2-0.2-0.2c-0.9-0.3-1.8-0.7-3-1.2l-3.4-1.6     c-1.1-0.6-2.3-1-3.6-1.4c-1.2-0.3-2.5-0.6-3.8-0.7c-0.4,0-0.9-0.1-1.3-0.1c-0.8,0-1.6,0-2.2-0.3c-0.5-0.2-0.8-0.6-1-0.9     c-0.1-0.3,0-0.6,0-0.8c0-0.1,0.1-0.2,0.2-0.4c0,0,0.1-0.1,0.1-0.1c0.3-0.3,0.7-0.6,1.1-0.8c0.5-0.3,1.1-0.4,1.6-0.5     c1.1-0.2,2.5-0.2,3.7,0.1c1,0.2,2,0.5,2.9,0.8c0.3,0.1,0.6,0.2,0.8,0.3c0.1,0,0.3,0,0.3-0.2c0.1-0.1,0-0.3-0.1-0.4l-0.1-0.1     c-0.3-0.1-0.5-0.3-0.8-0.4c-1.3-0.6-3.3-1.2-4.6-1.3c-2.5-0.2-4.3,0.4-5.6,1.7c-0.1,0-0.2,0-0.3,0.1l-0.1,0     c-0.1,0-0.2-0.1-0.3-0.1c-0.1,0-0.2-0.1-0.2-0.1l0,0c-0.2-0.1-0.3-0.2-0.5-0.4c-0.1-0.1-0.2-0.3-0.3-0.4     c-0.1-0.2-0.1-0.4-0.1-0.5c0-0.4,0.1-0.8,0.4-1.1c0.2-0.2,0.4-0.5,0.6-0.7c0.2-0.1,0.4-0.3,0.6-0.4c0.3-0.2,0.6-0.3,1-0.4     c0.4-0.1,0.8-0.2,1.3-0.3l0.2,0c0.5-0.1,1-0.1,1.5-0.2c3.3-0.2,6.1,0.2,8.6,1.2c0.1,0.1,0.3,0,0.4-0.1c0.1-0.1,0-0.3-0.1-0.4     c0,0-0.1-0.1-0.1-0.1c-0.3-0.2-0.6-0.3-1-0.5c-1.6-0.7-4-1.2-5.3-1.2c-1.1-0.1-2.3,0-3.7,0.2c-1.1,0.1-2,0.3-2.9,0.8     c0,0-0.1,0-0.1-0.1c-0.1,0-0.2,0-0.2,0c-0.1,0-0.1,0.1-0.2,0.1c0,0-0.1-0.1-0.1-0.1c-0.3-0.3-0.4-0.7-0.4-1.1     c0-0.4,0.2-0.8,0.5-1.2c0.6-0.8,1.6-1.2,2.3-1.4c0.1,0,0.1,0,0.2-0.1c0,0,0,0,0.1,0c1-0.2,2.1-0.3,3.2-0.3c3.2,0,6.4,0.8,9.1,2.2     c0.1,0.1,0.3,0,0.4-0.1c0.1-0.1,0-0.3-0.1-0.4c-1.6-1.2-7.2-3-10.6-2.8c0,0-0.1,0-0.2,0c-0.4,0-0.8,0.1-1.2,0.1     c0.2-0.3,0.4-0.5,0.7-0.7c1.1-0.7,2.4-0.8,3.4-0.8c1.1,0,2.3,0.3,3.7,0.7c1.2,0.3,2.4,0.8,3.6,1.3c1.3,0.5,2.4,1.1,3.5,1.7     c0.4,0.2,0.8,0.4,1.1,0.6c0.2,0.1,0.4,0.2,0.6,0.3c0.5,0.2,0.9,0.4,1.4,0.6c0.1,0.1,0.3,0,0.3-0.1c0.1-0.1,0.1-0.3,0-0.4     c-0.4-0.4-0.9-0.8-1.4-1.2c-0.2-0.3-0.4-0.6-0.6-1.1c-0.2-0.5-0.4-1-0.6-1.6c-0.2-0.6-0.3-1.1-0.3-1.7c-0.1-0.6,0-1.1,0.1-1.5     c0.3-0.8,1.1-1.7,2.1-1.8c0.4,0,0.9,0.1,1.3,0.5c0.4,0.3,0.7,0.7,1,1.2c0.3,0.6,0.5,1.4,0.7,2.2c0.1,0.4,0.2,0.8,0.3,1.2     c0.2,0.7,0.5,1.3,0.8,1.8c0.3,0.5,0.7,1,1.2,1.5c0.3,0.3,0.6,0.6,0.9,0.9c0.6,0.6,1.1,1.1,1.6,1.7c0.7,0.9,1.1,1.9,1.2,3     c0.1,0.8,0,1.6-0.2,2.4c-0.2,0.8-0.6,1.5-1.2,2.1c-0.1,0.1-0.1,0.3,0,0.4c0.1,0.1,0.3,0.1,0.4,0c0.3-0.3,0.5-0.6,0.7-0.8     c0.5,0.4,1.5,1,2,1.3c-0.3,1.9-1.5,4-3.1,5.7c-0.2,0.2-0.4,0.4-0.6,0.5c0,0-0.1,0.1-0.1,0.1c-0.1,0.1-0.2,0.1-0.3,0.2     c-0.2,0.2-0.5,0.3-0.8,0.5c-0.3,0.2-0.7,0.3-1.1,0.5c-0.7,0.2-1.5,0.4-2.4,0.5c-0.2,0-0.4,0-0.6,0.1c-0.2,0-0.4,0-0.6,0     c-0.4,0-0.7,0-1.1,0c0,0-0.1,0-0.1,0c-0.2,0-0.4,0-0.6-0.1c-0.4,0-0.7-0.1-1-0.2C307.6,84.6,307.6,84.3,307.6,83.9z"/>
  <path fill="#333333" d="M312.1,72c0.5,0.4,1,0.8,1.5,1.3c0.5,0.5,0.9,0.9,1.4,1.4c-0.2-0.7-0.6-1.2-1-1.8c-0.4-0.5-0.9-1-1.5-1.4     c-0.6-0.4-1.2-0.8-1.8-1c-0.6-0.3-1.3-0.4-2-0.5c0.6,0.3,1.2,0.6,1.8,0.9C311,71.2,311.6,71.6,312.1,72z"/>
  <path fill="#FFFFFF" d="M358.5,188.6c-0.1-1.9,0-3.8-0.2-5.7c-0.2-2.4-0.6-4.9-1.4-7.3c-1.7,0.3-1.7,0.3-2.1-0.2    c0.3-0.1,0.5-0.2,0.8-0.3c0.8-0.2,1.5-0.6,2.1-1.1c0.6-0.5,0.6-1,0.1-1.6c-0.5-0.6-1.2-1-2-1.3c-0.5-0.2-1-0.3-1.6-0.5    c0,0.4-0.1,0.7-0.1,1c0,0.6-0.3,0.9-0.8,1.2c-0.8,0.4-1.6,0.5-2.4,0.2c-0.6-0.2-0.9-0.5-1.1-1.1c-0.1-0.5-0.2-1-0.3-1.5    c-1,0.1-1.9,0.3-2.8,0.8c-0.6,0.3-1.1,0.7-1.1,1.5c0,0.7,0.4,1.3,1,1.6c0.3,0.2,0.6,0.3,0.9,0.4c0.2,0.1,0.3,0.2,0.5,0.3    c-0.7,0.7-1.4,0.5-2.8-0.7c-0.1,0.2-0.2,0.3-0.3,0.5c-0.1,0.2-0.2,0.4-0.3,0.6c0.1,0.1,0.1,0.1,0.2,0.1c3.3,0.9,5.8,3,8,5.5    c0.4,0.4,0.6,0.9,0.9,1.4c0.1,0.3,0.3,0.6,0,0.9c-0.1-0.1-0.3-0.2-0.4-0.4c-1.1-2-2.8-3.5-4.7-4.8c-2-1.5-4.3-2.3-6.8-2.2    c-2.2,0.1-4.1,0.9-5.6,2.6c-1.9,2.1-3,4.6-2.9,7.5c0,1.8,0.8,3.1,2.5,3.9c2.4,1.1,4.9,1.8,7.6,2.2c2.3,0.3,4.6,0.4,6.9,0.1    c2.6-0.3,5.1-0.9,7.4-2.2C358.2,189.7,358.5,189.3,358.5,188.6z"/>
  <path fill="#333333" d="M359.6,177.2c-0.1-0.5-0.3-1-0.4-1.5c1.5-1.3,1.7-3.1,0.5-4.6c-0.9-1.1-2.1-1.8-3.7-2.3    c-0.1,0-0.3-0.1-0.4-0.1c0-0.6,0-1.3,0-1.9c0-1.6,0-3.3,0-4.9c-0.1-7.9-0.3-16.1-0.5-24.3c0-1.7-0.2-3.4-0.3-5    c0-0.4-0.1-0.9-0.1-1.3c-0.1-1.2-0.5-2.4-1.1-3.4c-0.7-1-1.5-1.7-2.6-2c-1-0.3-2-0.2-2.9,0.3c-0.8,0.5-1.4,1.2-1.7,2.2    c-0.2,0.8-0.4,1.7-0.3,2.5c0.1,2.7,0.2,5.3,0.3,8.4c0.1,2.3,0.2,4.8,0.4,7.4c0.2,2.9,0.4,5.8,0.6,8.6l0.1,2.2    c0.2,2.5,0.3,5,0.5,7.5c0,0.7,0.1,1.4,0.2,2.1c0,0.4,0.1,0.9,0.1,1.3c-1,0.2-1.8,0.5-2.5,0.9c-1.5,0.9-2.2,2.2-2.1,3.8    c-0.1,0.2-0.3,0.4-0.4,0.7c0,0-0.1,0-0.1,0c-4.4-0.2-7.8,1.7-10.1,5.5c-1.4,2.3-2,4.6-1.9,6.9c0.1,2.6,1.4,4.6,3.7,5.7    c1.9,0.9,4,1.6,6.2,2c2.2,0.4,4.3,0.6,6.4,0.6c1.1,0,2.1-0.1,3.1-0.2c2.8-0.3,5.4-1,7.7-2.2c1.7-0.9,2.6-2.2,2.6-4.2    C360.8,184.3,360.4,180.7,359.6,177.2z M357.7,190c-2.3,1.3-4.8,2-7.4,2.2c-2.3,0.3-4.6,0.2-6.9-0.1c-2.6-0.3-5.1-1-7.6-2.2    c-1.7-0.8-2.5-2.1-2.5-3.9c0-2.9,1-5.4,2.9-7.5c1.5-1.6,3.4-2.5,5.6-2.6c2.5-0.1,4.8,0.7,6.8,2.2c1.8,1.3,3.5,2.8,4.7,4.8    c0.1,0.1,0.3,0.2,0.4,0.4c0.3-0.4,0.2-0.7,0-0.9c-0.3-0.5-0.5-1-0.9-1.4c-2.2-2.6-4.7-4.6-8-5.5c-0.1,0-0.1-0.1-0.2-0.1    c0.1-0.2,0.2-0.4,0.3-0.6c0.1-0.2,0.2-0.3,0.3-0.5c1.4,1.2,2,1.4,2.8,0.7c-0.2-0.1-0.3-0.2-0.5-0.3c-0.3-0.2-0.6-0.3-0.9-0.4    c-0.6-0.4-1-0.9-1-1.6c0-0.7,0.5-1.2,1.1-1.5c0.9-0.4,1.8-0.7,2.8-0.8c0.1,0.5,0.2,1,0.3,1.5c0.1,0.6,0.5,0.9,1.1,1.1    c0.8,0.2,1.6,0.1,2.4-0.2c0.5-0.2,0.8-0.6,0.8-1.2c0-0.3,0.1-0.6,0.1-1c0.6,0.2,1.1,0.3,1.6,0.5c0.8,0.3,1.5,0.7,2,1.3    c0.5,0.6,0.4,1.1-0.1,1.6c-0.6,0.5-1.3,0.9-2.1,1.1c-0.3,0.1-0.5,0.2-0.8,0.3c0.4,0.5,0.4,0.5,2.1,0.2c0.8,2.4,1.2,4.8,1.4,7.3    c0.2,1.9,0.1,3.8,0.2,5.7C358.5,189.3,358.2,189.7,357.7,190z"/>
  <path fill="#FFFFFF" d="M391.1,184c-1.5-3.6-4.1-5.9-8-6.6c-3.5-0.6-6.6,0.5-9,3.2c-0.5,0.6-1,1.2-1.5,1.9c-0.1,0.2-0.3,0.3-0.5,0.5    c-0.4-0.5-0.2-0.9,0-1.3c0.5-0.7,0.9-1.4,1.5-2c1.8-1.9,3.9-3,6.6-3.3c-0.3-0.4-0.6-0.7-0.8-1c-0.7-0.1-1.3,0.6-2-0.1    c0.3-0.2,0.5-0.3,0.7-0.4c0.5-0.2,0.9-0.3,1.4-0.5c0.9-0.4,1-1.1,0.4-1.8c-0.3-0.4-0.8-0.7-1.2-0.9c-0.7-0.4-1.5-0.6-2.3-1    c-0.1,0.4-0.1,0.8-0.2,1.1c0,0.4-0.3,0.7-0.6,0.8c-1.2,0.4-2.3,0.2-3.3-0.5c-0.5-0.3-0.6-0.8-0.7-1.3c0-0.2-0.1-0.3-0.1-0.6    c-1.2,0.4-2.3,0.7-3.2,1.5c-1,0.9-0.9,1.9,0.2,2.7c0.4,0.3,0.9,0.5,1.3,0.8c0.2,0.1,0.3,0.3,0.7,0.5c-1,0.3-1.7-0.1-2.5-0.4    c-0.1,0.5-0.3,1-0.4,1.4c-1.1,3.6-1.3,7.2-1,10.9c0,0.3,0.1,0.6,0.1,0.9c-0.1,0.6,0.3,0.9,0.8,1.2c1.4,0.9,3,1.5,4.7,1.8    c3,0.6,6.1,0.8,9.2,0.5c2.4-0.2,4.8-0.5,7.1-1.1c0.8-0.2,1.6-0.5,2.4-0.8c0.4-0.1,0.5-0.3,0.6-0.7    C391.9,187.4,391.8,185.7,391.1,184z"/>
  <path fill="#333333" d="M393.3,183.2c-1.7-4.3-4.9-7-9.5-8c-0.5-0.1-1-0.2-1.7-0.2c0.6-0.9,0.7-1.9,0.3-3c-0.4-0.9-1-1.6-2-2.2    c-0.9-0.6-1.6-0.9-2.6-1.1c0-0.7,0-1.3,0-2c0-1.7,0-3.4,0-5.2l0-2c0-3.5,0.1-7.1,0.1-10.6c0-2.1,0.1-4.2,0.2-6.3    c0.1-2.4,0.1-4.9,0.2-7.3c0-1.5,0-3.1-0.2-4.8c-0.1-0.8-0.3-1.6-0.8-2.5c-0.8-1.6-2.5-2.5-4.4-2.2c-1.4,0.2-2.4,1.1-2.8,2.4    c-0.3,0.8-0.4,1.6-0.4,2.3c0,1.6,0.1,3.3,0.1,4.9c0,0.7,0,1.4,0.1,2.1c0,1.5,0.1,3,0.1,4.5c0.1,3.5,0.2,7.1,0.3,10.6    c0,3.6,0,7.3,0,10.9c0,1.5,0,3.1,0,4.6c0,0,0,0,0,0c-0.7,0.3-1.3,0.5-2,0.9c-0.7,0.4-1.4,0.9-1.9,1.5c-1,1.2-1.2,2.7-0.3,4.1    c-0.1,0.4-0.2,0.8-0.3,1.1c-0.4,1.4-0.8,2.8-1,4.2c-0.4,2.4-0.5,5-0.3,8c0.1,1.5,0.8,2.7,2.1,3.5c1.7,1.1,3.7,1.8,6.1,2.3    c2.1,0.4,4.2,0.5,6.4,0.5c2.9,0,5.9-0.3,8.9-1c0.9-0.2,1.7-0.5,2.5-0.8c0.7-0.3,1.4-0.7,2.2-1.2c0.6-0.4,0.9-1.2,1-1.5    C394.3,187.7,394.2,185.4,393.3,183.2z M391.5,189.2c-0.1,0.4-0.2,0.6-0.6,0.7c-0.8,0.2-1.6,0.5-2.4,0.8c-2.3,0.7-4.7,1-7.1,1.1    c-3.1,0.2-6.1,0.1-9.2-0.5c-1.7-0.3-3.2-0.9-4.7-1.8c-0.5-0.3-0.8-0.6-0.8-1.2c0-0.3-0.1-0.6-0.1-0.9c-0.3-3.7,0-7.3,1-10.9    c0.1-0.5,0.3-0.9,0.4-1.4c0.8,0.4,1.4,0.8,2.5,0.4c-0.3-0.2-0.5-0.4-0.7-0.5c-0.4-0.3-0.9-0.5-1.3-0.8c-1.1-0.7-1.2-1.8-0.2-2.7    c0.9-0.8,2-1.2,3.2-1.5c0,0.3,0,0.4,0.1,0.6c0.1,0.5,0.2,1,0.7,1.3c1,0.7,2.1,0.9,3.3,0.5c0.4-0.1,0.6-0.4,0.6-0.8    c0-0.3,0.1-0.7,0.2-1.1c0.8,0.4,1.6,0.6,2.3,1c0.4,0.2,0.9,0.6,1.2,0.9c0.6,0.7,0.4,1.4-0.4,1.8c-0.4,0.2-0.9,0.3-1.4,0.5    c-0.2,0.1-0.4,0.3-0.7,0.4c0.7,0.7,1.4,0,2,0.1c0.2,0.3,0.5,0.6,0.8,1c-2.7,0.3-4.9,1.4-6.6,3.3c-0.6,0.6-1.1,1.3-1.5,2    c-0.2,0.3-0.4,0.7,0,1.3c0.2-0.2,0.3-0.4,0.5-0.5c0.5-0.6,1-1.3,1.5-1.9c2.4-2.6,5.5-3.8,9-3.2c3.8,0.7,6.5,3,8,6.6    C391.8,185.7,391.9,187.4,391.5,189.2z"/>
  <path fill="#FACC2C" d="M331.5,142.5l67.8,1c0.3,0,0.5-0.2,0.5-0.5l7.7-87.8l-19.2-17.8l-62.7-1c-0.3,0-0.6,0.3-0.5,0.6L331,142    C331,142.3,331.2,142.5,331.5,142.5z"/>
  <path fill="#333333" d="M399.3,144.5C399.2,144.5,399.2,144.5,399.3,144.5l-67.8-1c-0.8,0-1.4-0.6-1.5-1.4L324.1,37    c0-0.4,0.1-0.8,0.4-1.1c0.3-0.3,0.7-0.5,1.1-0.5l63.1,1l0.3,0.3l19.6,18.1l-7.8,88.3C400.7,143.9,400,144.5,399.3,144.5z     M331.9,141.6l66.9,1l7.6-86.9l-18.6-17.2l-61.9-1L331.9,141.6z M331.5,141.6C331.5,141.6,331.5,141.6,331.5,141.6L331.5,141.6z"/>
  <circle fill="#FFFFFF" cx="352.3" cy="77.4" r="11.3"/>
  <path fill="#333333" d="M352.3,89.1c-6.2,0-11.4-4.9-11.7-11.2c-0.1-3.1,1-6.1,3.1-8.4c2.1-2.3,5-3.6,8.1-3.8c0.2,0,0.3,0,0.5,0      c6.2,0,11.4,4.9,11.7,11.2c0.1,3.1-1,6.1-3.1,8.4c-2.1,2.3-5,3.6-8.1,3.8C352.6,89.1,352.4,89.1,352.3,89.1z M352.3,66.4      c-0.2,0-0.3,0-0.5,0c-2.9,0.1-5.6,1.4-7.6,3.5c-2,2.2-3,5-2.9,7.9c0.3,5.9,5.1,10.5,11,10.5c0.2,0,0.3,0,0.5,0      c2.9-0.1,5.6-1.4,7.6-3.5c2-2.2,3-5,2.9-7.9C363,71,358.1,66.4,352.3,66.4z"/>
  <circle fill="#FFFFFF" cx="380.8" cy="77.3" r="11.3"/>
  <path fill="#333333" d="M380.8,88.9c-2.9,0-5.7-1.1-7.9-3.1c-2.3-2.1-3.6-5-3.8-8.1c-0.3-6.4,4.7-11.9,11.2-12.2c0.2,0,0.3,0,0.5,0      c6.2,0,11.4,4.9,11.7,11.2c0.1,3.1-1,6.1-3.1,8.4c-2.1,2.3-5,3.6-8.1,3.8C381.2,88.9,381,88.9,380.8,88.9z M380.8,66.3      c-0.2,0-0.3,0-0.5,0c-6,0.3-10.8,5.4-10.5,11.4c0.1,2.9,1.4,5.6,3.5,7.6c2.2,2,5,3,7.9,2.9c2.9-0.1,5.6-1.4,7.6-3.5      c2-2.2,3-5,2.9-7.9C391.5,70.9,386.7,66.3,380.8,66.3z"/>
  <path fill="#333333" d="M380.2,71.8c0,0.1,0,0.2,0,0.3c0.1,1.7-1.3,3.2-3,3.3c-1.7,0.1-3.1-1.2-3.3-2.8c-2.1,1.3-3.4,3.7-3.3,6.4     c0.2,4,3.5,7.1,7.5,6.9s7.1-3.5,6.9-7.5C385,75.3,382.9,72.8,380.2,71.8z M378.5,84.7c-0.8,0-1.5-0.6-1.6-1.5     c0-0.8,0.6-1.5,1.5-1.6c0.8,0,1.5,0.6,1.6,1.5C380,84,379.4,84.7,378.5,84.7z"/>
  <path fill="#333333" d="M352,72.2c0,0.1,0,0.3,0,0.4c0.1,1.7-1.3,3.2-3,3.3c-1.7,0.1-3.2-1.3-3.3-3c-2.1,1.3-3.5,3.7-3.4,6.4     c0.2,4,3.5,7.1,7.5,6.9c4-0.2,7.1-3.5,6.9-7.5C356.7,75.7,354.7,73.2,352,72.2z M351,84.8c-0.8,0-1.5-0.6-1.6-1.5     c0-0.8,0.6-1.5,1.5-1.6c0.8,0,1.5,0.6,1.6,1.5C352.5,84.1,351.8,84.8,351,84.8z"/>
  <polygon fill="#333333" points="395.5,104.6 395.2,107.4 336.3,106.7 336.2,103.9   "/>
  <polygon fill="#333333" points="395,110.1 394.7,112.9 336.7,112.3 336.7,112.3 336.5,109.4   "/>
  <polygon fill="#333333" points="394.5,115.3 394.2,118.1 337,117.5 336.8,114.6   "/>
  <rect x="339" y="131.8" transform="matrix(-0.9999 -1.465091e-02 1.465091e-02 -0.9999 694.3271 270.9122)" fill="#333333" width="18.3" height="2.2"/>
  <path fill="#333333" d="M356.9,127.3c-1.6-1.1-3.8-1.5-5.7-1c-0.1-0.1-0.1-0.3-0.2-0.4c-0.2-0.4-0.7-0.8-1.2-0.6    c-0.9,0.4-1.8,0.8-2.6,1.2c0-0.6,0-1.2,0-1.8c0-0.7-0.9-1.2-1.5-0.8c-2,1.6-4.1,3.2-6.1,4.8c-0.4,0.3-0.6,0.9-0.3,1.3    c0.3,0.4,0.9,0.6,1.3,0.3c1.5-1.2,3.1-2.4,4.6-3.6c0,0.4,0,0.9,0,1.3c0,0.6,0.7,1.1,1.2,0.9c1-0.5,2.1-0.9,3.1-1.4    c0,0.1,0.1,0.2,0.1,0.4c0.2,0.4,0.7,0.8,1.2,0.6c1.7-0.7,3.6-0.5,5.1,0.5c0.4,0.3,1.1,0,1.3-0.4    C357.6,128.1,357.3,127.6,356.9,127.3z"/>
  <path fill="#FACC2C" d="M389.1,57c0,0.3,0.3,0.5,0.6,0.5l17.9-2.3l-19.2-17.8L389.1,57z"/>
  <path fill="#333333" d="M389.6,58.5c-0.3,0-0.7-0.1-0.9-0.3c-0.3-0.3-0.5-0.6-0.5-1.1c0,0,0,0,0,0l-0.8-19.6c0-0.4,0.2-0.8,0.6-0.9    c0.4-0.2,0.8-0.1,1.1,0.2l19.2,17.8c0.3,0.3,0.4,0.7,0.3,1c-0.1,0.4-0.4,0.6-0.8,0.7l-17.9,2.3C389.7,58.5,389.6,58.5,389.6,58.5z     M389.4,39.8l0.7,16.7l15.3-1.9L389.4,39.8z"/>
  <path fill="#333333" d="M347.4,59.5c-2.2,0.5-4.7,1.5-6.3,3.3c-1.2,1.4-0.4,3.1,1.7,1.7c2-1.4,6.2-2.6,10-2.2   C356.6,62.8,353.9,58,347.4,59.5z"/>
  <path fill="#333333" d="M386,60c2.2,0.6,4.7,1.7,6.3,3.6c1.2,1.4,0.3,3.2-1.8,1.7c-2-1.5-6.2-2.9-10.1-2.5C376.5,63,379.4,58.3,386,60   z"/>
  <ellipse transform="matrix(0.9991 -4.311711e-02 4.311711e-02 0.9991 -3.6908 15.8498)" fill="#333333" cx="365.6" cy="93.5" rx="4.8" ry="3.3"/>
  <path fill="#979797" d="M364.1,28.8c-0.2,0-0.3-0.1-0.5-0.2c-0.1-0.1-0.2-0.3-0.2-0.5v-3c0-0.2,0.1-0.4,0.2-0.5    c0.1-0.1,0.3-0.2,0.5-0.2h3c0.2,0,0.4,0.1,0.5,0.2c0.1,0.1,0.2,0.3,0.2,0.5v3c0,0.2-0.1,0.4-0.2,0.5c-0.1,0.1-0.3,0.2-0.5,0.2    H364.1z M364.3,21.7c-0.2,0-0.4-0.1-0.5-0.2c-0.1-0.1-0.2-0.3-0.2-0.5V8.6c0-0.2,0.1-0.4,0.2-0.5c0.1-0.1,0.3-0.2,0.5-0.2h2.7    c0.2,0,0.4,0.1,0.5,0.2c0.1,0.1,0.2,0.3,0.2,0.5V21c0,0.2-0.1,0.4-0.2,0.5c-0.1,0.1-0.3,0.2-0.5,0.2H364.3z"/>
  <path fill="#FFFFFF" d="M288.5,135.7c-1-2-2.1-3.9-3.5-5.7c-0.5-0.7-1-1.3-1.6-1.8c-0.3-0.3-0.7-0.5-1-0.8      c-1.2,0.9-1.7,1.1-2.3,0.9c0.2-0.2,0.4-0.3,0.6-0.5c0.4-0.3,0.8-0.6,1.2-0.9c1.2-1,1.3-2,0.4-3.2c-0.2-0.3-0.5-0.6-0.7-0.8      c-1.3-1.2-2.9-1.5-4.7-1.5c0.1,0.5,0.2,0.9,0.2,1.3c0.1,0.6,0.1,1.2,0.1,1.8c0,0.7-0.3,1.1-1,1.4c-1.6,0.7-3.6,0-4.3-1.6      c-0.2-0.5-0.4-1-0.6-1.5c-1.3,0.3-3.2,1.5-4,2.5c-0.1,0.2-0.3,0.4-0.4,0.6c-1,1.9-0.4,3.4,1.7,3.7c0.7,0.1,1.5,0.1,2.2,0.1      c0.2,0,0.5,0,0.7,0c0,0.1,0,0.1,0.1,0.2c-0.2,0.1-0.4,0.3-0.7,0.3c-0.7,0.2-1.3,0.2-2,0.1c-0.9-0.1-1.5,0.4-1.6,1.3      c-0.1,1.7-0.8,3.2-1.8,4.6c-0.9,1.3-2,2.4-3.1,3.5c-0.5,0.4-0.9,0.8-1.3,1.3c-0.8,0.9-0.6,2,0.5,2.5c0.7,0.4,1.5,0.4,2.3,0.2      c0.8-0.2,1.6-0.6,2.3-1.1c0.7-0.5,1.3-1,2-1.4c0.9-0.6,1.8-0.7,2.7-0.3c1.4,0.5,2.2,1.5,2.5,3c0.1,0.4,0.1,0.9,0.1,1.3      c0,1,0,2,0,3c-0.1,2-0.2,4.1-0.8,6.1c-0.2,0.7,0.1,1.1,0.8,1.4c1.3,0.5,2.8-0.1,3.4-1.3c0.2-0.5,0.4-1,0.5-1.5      c0.3-1.7,0.4-3.4,0.3-5c0-1.3-0.1-2.6-0.2-4c0-0.3,0-0.6,0-1c0.1,0,0.1,0,0.2,0c0.1,0.1,0.2,0.3,0.3,0.4c0.1,0.5,0.2,1,0.3,1.5      c0.1,0.7,0.1,1.3,0.1,2c0.1,2.7,0.1,5.3-0.8,7.8c1.2,0.7,2.4,0.6,3.3-0.4c0.7-0.8,1.1-1.8,1.4-2.8c0.5-1.7,0.6-3.5,0.5-5.2      c-0.1-1.1-0.2-2.3-0.3-3.4c0-0.3-0.1-0.7,0.2-0.9c0.6,0.7,0.9,3.2,0.8,5.9c-0.1,2-0.5,4-1.4,5.9c1.1,0.2,1.9,0,2.6-0.8      c0.7-0.7,1.1-1.6,1.4-2.5c0.4-1.4,0.5-2.9,0.4-4.4c-0.1-1.5-0.2-2.9-0.3-4.4c0-0.2-0.1-0.5,0.2-0.7c0.5,0.7,0.8,2.8,0.8,5.5      c0,1.9-0.2,3.7-1,5.6c0.3-0.1,0.4-0.1,0.5-0.2c1.2-0.6,2.1-1.5,2.4-2.8c0.3-1.2,0.5-2.5,0.7-3.8      C290.3,141.7,289.9,138.6,288.5,135.7z M285.9,138.1c-0.1-0.1,0-0.3,0.1-0.4c0.3-0.3,0.5-0.1,0.7,0.2      C286.4,138.2,286.2,138.4,285.9,138.1z M282.3,139.2c-0.1,0-0.3-0.2-0.3-0.2c0-0.2,0.1-0.3,0.3-0.4c0.1,0,0.2,0.1,0.5,0.3      C282.5,139,282.4,139.2,282.3,139.2z M277.1,140.5c-0.1,0-0.4-0.1-0.4-0.2c-0.1-0.2,0-0.4,0.3-0.5c0.2,0,0.3,0.1,0.6,0.2      C277.4,140.2,277.3,140.4,277.1,140.5z"/>
  <path fill="#979797" d="M276.7,140.2c0.1,0.1,0.3,0.3,0.4,0.2c0.2-0.1,0.3-0.3,0.5-0.5c-0.3-0.1-0.5-0.2-0.6-0.2      C276.7,139.8,276.6,140,276.7,140.2z"/>
  <path fill="#979797" d="M286,137.7c-0.1,0.1-0.1,0.4-0.1,0.4c0.3,0.3,0.5,0.1,0.8-0.2C286.5,137.6,286.3,137.5,286,137.7z"/>
  <path fill="#979797" d="M282.3,138.6c-0.1,0.1-0.2,0.3-0.3,0.4c0,0.1,0.2,0.2,0.3,0.2c0.1-0.1,0.3-0.2,0.5-0.4      C282.5,138.7,282.3,138.6,282.3,138.6z"/>
  <path fill="#979797" d="M290.8,136.5c-1.7-4.1-3.7-7.3-6.3-9.8c0.4-0.9,0.4-1.9,0-2.8c-0.3-0.7-0.6-1.3-1-1.8      c-1.2-1.4-2.9-2.3-4.8-2.5c-0.3,0-0.6-0.1-0.9-0.1c-0.7-3.1-1.6-6-2.6-8.8c-1.7-4.3-4-7.8-7-10.7c-0.5-0.5-1-1-1.5-1.5      c-0.6-0.6-1.2-1.2-1.8-1.7l-0.4-0.4c-1.7-1.6-3.5-3.3-5.3-4.9c-0.6-0.5-1.2-1-1.9-1.4c-1.1-0.6-2.3-0.6-3.4,0      c-1.7,0.9-2.3,2.7-1.4,4.3c0.3,0.6,0.7,1.2,1.2,1.7c0.5,0.6,1,1.1,1.5,1.6l0.4,0.4c2.6,2.8,5.3,5.6,7.9,8.4      c1.4,1.5,2.4,3.2,3.4,5.5c1.1,2.7,1.8,5.5,2.6,8.2l0.2,0.7c0,0.1,0.1,0.2,0.1,0.3c-1.1,0.5-2.1,1.1-2.9,1.8      c-1,0.9-1.7,1.9-2,3.2c-0.4,1.6,0,3.1,1.2,4.1c-0.1,0.3-0.2,0.6-0.2,1c-0.1,1.1-0.5,2.2-1.4,3.4c-0.9,1.3-2,2.4-3.2,3.5      l-0.2,0.2c-0.4,0.4-0.9,0.8-1.3,1.3c-0.7,0.8-1,1.7-0.9,2.7c0.1,1,0.6,1.8,1.5,2.4c0.9,0.7,2,0.9,3.2,0.8      c1.3-0.1,2.5-0.6,3.9-1.5c0.5-0.3,0.9-0.7,1.4-1c0.2-0.2,0.5-0.3,0.7-0.5c0.2-0.1,0.4-0.2,0.7-0.2c0.7,0.1,1.3,0.7,1.4,1.3      c0.1,0.8,0.2,1.7,0.2,2.7c0,2.2-0.2,4.6-0.7,7.4c-0.3,1.6,0.5,2.9,2,3.4c0.5,0.2,1.1,0.3,1.7,0.3c0,0,0.1,0,0.1,0      c1,0,2-0.4,2.8-1c0.8,0.3,1.6,0.3,2.4,0.2c1-0.2,1.7-0.8,2.3-1.3c1.3,0.2,2.8-0.1,4.2-1.7c0.6,0,1.2-0.2,1.7-0.6      c1.6-1,2.6-2.3,3-4c0.2-0.9,0.5-2.1,0.6-3.4C292.3,142.2,291.9,139.2,290.8,136.5z M290,144.9c-0.1,1.3-0.4,2.5-0.7,3.8      c-0.3,1.3-1.2,2.2-2.4,2.8c-0.1,0.1-0.3,0.1-0.5,0.2c0.8-1.8,1.1-3.7,1-5.6c0-2.7-0.3-4.8-0.8-5.5c-0.3,0.2-0.2,0.5-0.2,0.7      c0.1,1.5,0.2,2.9,0.3,4.4c0.1,1.5,0,3-0.4,4.4c-0.3,0.9-0.7,1.8-1.4,2.5c-0.7,0.8-1.5,1-2.6,0.8c0.9-1.9,1.3-3.8,1.4-5.9      c0.1-2.8-0.2-5.3-0.8-5.9c-0.3,0.2-0.2,0.6-0.2,0.9c0.1,1.1,0.2,2.3,0.3,3.4c0.1,1.8,0,3.5-0.5,5.2c-0.3,1-0.7,2-1.4,2.8      c-0.9,1-2.1,1.2-3.3,0.4c0.9-2.5,0.9-5.2,0.8-7.8c0-0.7,0-1.4-0.1-2c0-0.5-0.2-1-0.3-1.5c0-0.2-0.2-0.3-0.3-0.4      c-0.1,0-0.1,0-0.2,0c0,0.3-0.1,0.6,0,1c0.1,1.3,0.2,2.6,0.2,4c0,1.7,0,3.4-0.3,5c-0.1,0.5-0.3,1-0.5,1.5      c-0.6,1.2-2.1,1.8-3.4,1.3c-0.7-0.3-1-0.7-0.8-1.4c0.6-2,0.7-4,0.8-6.1c0-1,0-2,0-3c0-0.4-0.1-0.9-0.1-1.3      c-0.3-1.5-1.1-2.4-2.5-3c-1-0.4-1.9-0.3-2.7,0.3c-0.7,0.5-1.3,1-2,1.4c-0.7,0.5-1.4,0.9-2.3,1.1c-0.8,0.2-1.6,0.2-2.3-0.2      c-1.1-0.5-1.3-1.6-0.5-2.5c0.4-0.5,0.9-0.9,1.3-1.3c1.1-1.1,2.2-2.2,3.1-3.5c1-1.4,1.7-2.9,1.8-4.6c0.1-0.9,0.6-1.4,1.6-1.3      c0.7,0.1,1.4,0,2-0.1c0.2-0.1,0.4-0.2,0.7-0.3c0-0.1,0-0.1-0.1-0.2c-0.2,0-0.5,0-0.7,0c-0.7,0-1.5,0-2.2-0.1      c-2.1-0.3-2.8-1.9-1.7-3.7c0.1-0.2,0.3-0.4,0.4-0.6c0.8-1,2.7-2.2,4-2.5c0.2,0.5,0.4,1,0.6,1.5c0.7,1.6,2.7,2.4,4.3,1.6      c0.6-0.3,1-0.7,1-1.4c0-0.6-0.1-1.2-0.1-1.8c0-0.4-0.1-0.8-0.2-1.3c1.8,0,3.4,0.3,4.7,1.5c0.3,0.2,0.5,0.5,0.7,0.8      c0.9,1.2,0.8,2.2-0.4,3.2c-0.4,0.3-0.8,0.6-1.2,0.9c-0.2,0.1-0.3,0.3-0.6,0.5c0.6,0.2,1.1,0,2.3-0.9c0.3,0.2,0.7,0.5,1,0.8      c0.6,0.6,1.1,1.2,1.6,1.8c1.3,1.8,2.5,3.7,3.5,5.7C289.9,138.6,290.3,141.7,290,144.9z"/>
  <path fill="#FFFFFF" d="M178.8,137.6c-1.1-1.2-2.1-2.4-2.9-3.7c-0.9-1.5-1.4-3-1.5-4.7c0-0.9-0.5-1.4-1.5-1.4c-0.7,0-1.3-0.1-2-0.3      c-0.2-0.1-0.4-0.2-0.6-0.4c0-0.1,0-0.1,0.1-0.2c0.2,0,0.5,0,0.7,0c0.7,0,1.5,0.1,2.2,0.1c2.1-0.2,2.9-1.7,2-3.6      c-0.1-0.2-0.2-0.4-0.4-0.6c-0.7-1-2.5-2.4-3.8-2.7c-0.2,0.5-0.4,1-0.7,1.5c-0.8,1.6-2.9,2.2-4.4,1.3c-0.6-0.3-0.9-0.8-0.8-1.5      c0.1-0.6,0.1-1.2,0.3-1.8c0.1-0.4,0.2-0.8,0.3-1.3c-1.8-0.2-3.4,0.1-4.8,1.1c-0.3,0.2-0.6,0.5-0.8,0.7c-1,1.2-0.9,2.2,0.2,3.2      c0.4,0.3,0.8,0.7,1.1,1c0.2,0.2,0.3,0.3,0.5,0.5c-0.6,0.2-1.1-0.1-2.2-1c-0.3,0.2-0.7,0.4-1,0.7c-0.6,0.5-1.2,1.1-1.7,1.7      c-1.5,1.7-2.7,3.5-3.9,5.4c-1.6,2.8-2.3,5.9-2.2,9.1c0.1,1.3,0.2,2.5,0.4,3.8c0.2,1.3,1,2.3,2.2,3c0.1,0.1,0.3,0.1,0.5,0.2      c-0.7-1.9-0.8-3.7-0.6-5.6c0.2-2.7,0.7-4.7,1.2-5.4c0.2,0.2,0.1,0.5,0.1,0.7c-0.2,1.5-0.4,2.9-0.6,4.4c-0.2,1.5-0.2,3,0.1,4.5      c0.2,1,0.6,1.8,1.2,2.6c0.6,0.8,1.5,1.1,2.6,1c-0.8-1.9-1.1-3.9-1-6c0.1-2.8,0.6-5.2,1.2-5.9c0.3,0.3,0.2,0.6,0.1,0.9      c-0.2,1.1-0.4,2.2-0.5,3.4c-0.2,1.8-0.3,3.5,0.1,5.3c0.2,1.1,0.5,2.1,1.2,2.9c0.8,1.1,2,1.3,3.2,0.7c-0.7-2.6-0.5-5.2-0.2-7.9      c0.1-0.7,0.1-1.3,0.3-2c0.1-0.5,0.2-1,0.4-1.5c0-0.2,0.2-0.3,0.3-0.4c0.1,0,0.1,0,0.2,0.1c0,0.3,0,0.6,0,1      c-0.2,1.3-0.4,2.6-0.5,3.9c-0.2,1.7-0.3,3.4-0.1,5c0.1,0.5,0.2,1.1,0.4,1.5c0.5,1.3,2,1.9,3.3,1.5c0.7-0.2,1-0.7,0.9-1.3      c-0.4-2-0.4-4.1-0.3-6.1c0-1,0.1-2,0.2-3c0-0.4,0.1-0.9,0.2-1.3c0.4-1.4,1.3-2.3,2.7-2.8c1-0.3,1.9-0.2,2.7,0.5      c0.6,0.5,1.2,1.1,1.9,1.6c0.7,0.5,1.4,1,2.2,1.3c0.8,0.3,1.6,0.3,2.3,0c1.1-0.5,1.4-1.5,0.7-2.5      C179.6,138.5,179.2,138.1,178.8,137.6z M164.7,137.2c-0.1,0.1-0.3,0.3-0.4,0.2c-0.2-0.1-0.2-0.3-0.4-0.5      c0.3-0.1,0.5-0.2,0.6-0.2C164.7,136.7,164.8,136.9,164.7,137.2z M159.2,135.8c-0.1-0.1-0.2-0.2-0.5-0.4c0.3-0.1,0.5-0.3,0.5-0.2      c0.1,0.1,0.2,0.3,0.2,0.4C159.5,135.6,159.3,135.8,159.2,135.8z M155.6,134.4c-0.3,0.3-0.5,0.1-0.7-0.2c0.2-0.3,0.4-0.5,0.7-0.2      C155.7,134.1,155.7,134.4,155.6,134.4z"/>
  <path fill="#979797" d="M164.4,136.7c-0.2,0-0.3,0.1-0.6,0.2c0.2,0.3,0.3,0.5,0.4,0.5c0.1,0,0.4-0.1,0.4-0.2      C164.8,136.9,164.7,136.7,164.4,136.7z"/>
  <path fill="#979797" d="M154.9,134.2c0.2,0.3,0.4,0.5,0.7,0.2c0.1-0.1,0-0.3,0-0.4C155.3,133.7,155.1,133.9,154.9,134.2z"/>
  <path fill="#979797" d="M158.7,135.4c0.2,0.2,0.3,0.4,0.5,0.4c0.1,0,0.3-0.1,0.3-0.2c0-0.2-0.1-0.3-0.2-0.4      C159.2,135.1,159,135.3,158.7,135.4z"/>
  <path fill="#979797" d="M189.2,96.4c0.5-0.5,1.1-1,1.6-1.5c0.5-0.5,0.9-1.1,1.3-1.6c1-1.6,0.5-3.4-1.1-4.4c-1-0.7-2.3-0.8-3.4-0.2      c-0.7,0.4-1.4,0.8-2,1.3c-1.9,1.5-3.8,3-5.6,4.5l-0.4,0.4c-0.6,0.5-1.3,1.1-1.9,1.6c-0.5,0.5-1.1,0.9-1.6,1.4      c-3.2,2.6-5.8,6-7.7,10.1c-1.3,2.7-2.4,5.5-3.3,8.6c-0.3,0-0.6,0-0.9,0c-2,0.1-3.7,0.8-5,2.2c-0.4,0.4-0.8,1-1.2,1.7      c-0.5,0.9-0.5,1.9-0.2,2.8c-2.8,2.3-5,5.3-7,9.3c-1.3,2.6-1.8,5.6-1.7,9.1c0.1,1.3,0.2,2.5,0.4,3.4c0.2,1.6,1.1,3,2.7,4.2l0,0      c0.5,0.4,1.1,0.6,1.7,0.7c1.2,1.7,2.7,2.1,4,2c0.5,0.6,1.2,1.2,2.2,1.5c0.8,0.2,1.6,0.2,2.4,0c0.7,0.7,1.7,1.1,2.7,1.2      c0.4,0,0.9,0,1.3,0c0.2,0,0.4-0.1,0.6-0.1c1.5-0.4,2.4-1.6,2.2-3.2c-0.3-2.9-0.3-5.2-0.1-7.5c0.1-0.9,0.2-1.8,0.4-2.6      c0.1-0.6,0.8-1.1,1.5-1.2c0.3,0,0.5,0.1,0.6,0.2c0.2,0.2,0.4,0.4,0.6,0.6c0.4,0.4,0.9,0.7,1.3,1.1c1.3,1,2.5,1.6,3.8,1.8      c1.2,0.2,2.3,0,3.3-0.6c0.9-0.6,1.5-1.4,1.7-2.3c0.2-0.9-0.1-1.9-0.7-2.7c-0.4-0.5-0.8-0.9-1.2-1.4l-0.2-0.2      c-1.1-1.2-2.1-2.3-2.9-3.7c-0.8-1.3-1.1-2.4-1.1-3.5c0-0.4,0-0.7-0.1-1c1.2-0.9,1.8-2.3,1.5-4c-0.2-1.3-0.8-2.4-1.8-3.3      c-0.8-0.8-1.7-1.4-2.8-2c0-0.1,0.1-0.2,0.1-0.3l0.2-0.7c0.9-2.7,1.9-5.4,3.2-8c1.1-2.3,2.3-3.9,3.8-5.3c2.8-2.6,5.6-5.2,8.5-7.8      L189.2,96.4z M173.4,127.1c-0.7,0.1-1.5,0-2.2-0.1c-0.2,0-0.5,0-0.7,0c0,0.1,0,0.1-0.1,0.2c0.2,0.1,0.4,0.3,0.6,0.4      c0.6,0.2,1.3,0.3,2,0.3c0.9,0,1.5,0.5,1.5,1.4c0,1.7,0.6,3.3,1.5,4.7c0.8,1.4,1.8,2.5,2.9,3.7c0.4,0.5,0.9,0.9,1.2,1.4      c0.7,0.9,0.5,2-0.7,2.5c-0.8,0.3-1.6,0.3-2.3,0c-0.8-0.3-1.5-0.7-2.2-1.3c-0.6-0.5-1.2-1.1-1.9-1.6c-0.8-0.7-1.7-0.8-2.7-0.5      c-1.4,0.4-2.3,1.3-2.7,2.8c-0.1,0.4-0.2,0.8-0.2,1.3c-0.1,1-0.2,2-0.2,3c-0.1,2-0.1,4.1,0.3,6.1c0.1,0.7-0.2,1.1-0.9,1.3      c-1.3,0.4-2.8-0.3-3.3-1.5c-0.2-0.5-0.3-1-0.4-1.5c-0.2-1.7-0.1-3.4,0-5c0.1-1.3,0.3-2.6,0.5-3.9c0-0.3,0-0.6,0-1      c-0.1,0-0.1,0-0.2-0.1c-0.1,0.1-0.3,0.3-0.3,0.4c-0.2,0.5-0.3,1-0.4,1.5c-0.1,0.7-0.2,1.3-0.3,2c-0.2,2.6-0.5,5.3,0.3,7.9      c-1.2,0.6-2.4,0.4-3.2-0.7c-0.7-0.9-1-1.9-1.2-2.9c-0.3-1.7-0.3-3.5-0.1-5.3c0.1-1.1,0.3-2.2,0.5-3.4c0-0.3,0.2-0.7-0.1-0.9      c-0.6,0.6-1.1,3.1-1.2,5.9c-0.1,2,0.2,4,1,6c-1.1,0.2-1.9-0.2-2.6-1c-0.6-0.8-1-1.7-1.2-2.6c-0.3-1.5-0.3-3-0.1-4.5      c0.2-1.5,0.4-2.9,0.6-4.4c0-0.2,0.1-0.5-0.1-0.7c-0.5,0.6-1,2.7-1.2,5.4c-0.2,1.9-0.1,3.7,0.6,5.6c-0.3-0.1-0.4-0.1-0.5-0.2      c-1.2-0.7-2-1.6-2.2-3c-0.2-1.3-0.3-2.5-0.4-3.8c-0.1-3.2,0.5-6.3,2.2-9.1c1.1-1.9,2.4-3.7,3.9-5.4c0.5-0.6,1.1-1.2,1.7-1.7      c0.3-0.3,0.7-0.5,1-0.7c1.2,1,1.6,1.2,2.2,1c-0.2-0.2-0.4-0.4-0.5-0.5c-0.4-0.3-0.8-0.6-1.1-1c-1.1-1-1.2-2.1-0.2-3.2      c0.2-0.3,0.5-0.5,0.8-0.7c1.4-1.1,3-1.3,4.8-1.1c-0.1,0.5-0.2,0.9-0.3,1.3c-0.1,0.6-0.2,1.2-0.3,1.8c-0.1,0.7,0.3,1.1,0.9,1.5      c1.5,0.8,3.6,0.2,4.4-1.3c0.3-0.5,0.5-1,0.7-1.5c1.3,0.4,3.1,1.7,3.8,2.7c0.1,0.2,0.3,0.4,0.4,0.6      C176.3,125.4,175.5,126.9,173.4,127.1z"/>
  <path fill="#FFFFFF" d="M215,182.9c-0.2-2.4-0.6-4.9-1.4-7.3c-1.7,0.3-1.7,0.3-2.1-0.2c0.3-0.1,0.5-0.2,0.8-0.3      c0.8-0.2,1.5-0.6,2.1-1.1c0.6-0.5,0.6-1,0.1-1.6c-0.5-0.6-1.2-1-2-1.3c-0.5-0.2-1-0.3-1.6-0.5c0,0.4-0.1,0.7-0.1,1      c0,0.6-0.3,0.9-0.8,1.2c-0.8,0.4-1.6,0.5-2.4,0.2c-0.6-0.2-0.9-0.5-1.1-1.1c-0.1-0.5-0.2-1-0.3-1.5c-1,0.1-1.9,0.3-2.8,0.8      c-0.6,0.3-1.1,0.7-1.1,1.5c0,0.7,0.4,1.3,1,1.6c0.3,0.2,0.6,0.3,0.9,0.4c0.2,0.1,0.3,0.2,0.5,0.3c-0.7,0.7-1.4,0.5-2.8-0.7      c-0.1,0.2-0.2,0.3-0.3,0.5c-0.1,0.2-0.2,0.4-0.3,0.6c0.1,0.1,0.1,0.1,0.2,0.1c3.3,0.9,5.8,3,8,5.5c0.4,0.4,0.6,0.9,0.9,1.4      c0.1,0.3,0.3,0.6,0,0.9c-0.1-0.1-0.3-0.2-0.4-0.4c-1.1-2-2.8-3.5-4.7-4.8c-2-1.5-4.3-2.3-6.8-2.2c-2.2,0.1-4.1,0.9-5.6,2.6      c-1.9,2.1-3,4.6-2.9,7.5c0,1.8,0.8,3.1,2.5,3.9c2.4,1.1,4.9,1.8,7.6,2.2c2.3,0.3,4.6,0.4,6.9,0.1c2.6-0.3,5.1-0.9,7.4-2.2      c0.6-0.3,0.8-0.7,0.8-1.4C215.1,186.7,215.2,184.8,215,182.9z"/>
  <path fill="#979797" d="M215.9,175.7c1.5-1.3,1.7-3.1,0.5-4.6c-0.9-1.1-2.1-1.8-3.7-2.3c-0.1,0-0.3-0.1-0.4-0.1c0-0.6,0-1.3,0-1.9      c0-1.6,0-3.3,0-4.9c-0.1-7.9-0.3-16.1-0.5-24.3c0-1.7-0.2-3.4-0.3-5c0-0.4-0.1-0.9-0.1-1.3c-0.1-1.2-0.5-2.4-1.1-3.4      c-0.7-1-1.5-1.7-2.6-2c-1-0.3-2-0.2-2.9,0.3c-0.8,0.5-1.4,1.2-1.7,2.2c-0.2,0.8-0.4,1.7-0.3,2.5c0.1,2.7,0.2,5.3,0.3,8.4      c0.1,2.3,0.2,4.8,0.4,7.4c0.2,2.9,0.4,5.8,0.6,8.6l0.2,2.2c0.2,2.5,0.3,5,0.5,7.5c0,0.7,0.1,1.4,0.2,2.1c0,0.4,0.1,0.9,0.1,1.3      c-1,0.2-1.8,0.5-2.5,0.9c-1.5,0.9-2.2,2.2-2.1,3.8c-0.1,0.2-0.3,0.4-0.4,0.7c0,0-0.1,0-0.1,0c-4.4-0.2-7.8,1.7-10.1,5.5      c-1.4,2.3-2,4.6-1.9,6.9c0.1,2.6,1.4,4.6,3.7,5.7c1.9,0.9,4,1.6,6.2,2c2.2,0.4,4.3,0.6,6.4,0.6c1.1,0,2.1-0.1,3.1-0.2      c2.8-0.3,5.4-1,7.7-2.2c1.7-0.9,2.6-2.2,2.6-4.2c0-3.6-0.4-7.3-1.2-10.8C216.2,176.7,216,176.2,215.9,175.7z M214.4,190      c-2.3,1.3-4.8,2-7.4,2.2c-2.3,0.3-4.6,0.2-6.9-0.1c-2.6-0.3-5.1-1-7.6-2.2c-1.7-0.8-2.5-2.1-2.5-3.9c0-2.9,1-5.4,2.9-7.5      c1.5-1.6,3.4-2.5,5.6-2.6c2.5-0.1,4.8,0.7,6.8,2.2c1.8,1.3,3.5,2.8,4.7,4.8c0.1,0.1,0.3,0.2,0.4,0.4c0.3-0.4,0.2-0.7,0-0.9      c-0.3-0.5-0.5-1-0.9-1.4c-2.2-2.6-4.7-4.6-8-5.5c-0.1,0-0.1-0.1-0.2-0.1c0.1-0.2,0.2-0.4,0.3-0.6c0.1-0.2,0.2-0.3,0.3-0.5      c1.4,1.2,2,1.4,2.8,0.7c-0.2-0.1-0.3-0.2-0.5-0.3c-0.3-0.2-0.6-0.3-0.9-0.4c-0.6-0.4-1-0.9-1-1.6c0-0.7,0.5-1.2,1.1-1.5      c0.9-0.4,1.8-0.7,2.8-0.8c0.1,0.5,0.2,1,0.3,1.5c0.1,0.6,0.5,0.9,1.1,1.1c0.8,0.2,1.6,0.1,2.4-0.2c0.5-0.2,0.8-0.6,0.8-1.2      c0-0.3,0.1-0.6,0.1-1c0.6,0.2,1.1,0.3,1.6,0.5c0.8,0.3,1.5,0.7,2,1.3c0.5,0.6,0.4,1.1-0.1,1.6c-0.6,0.5-1.3,0.9-2.1,1.1      c-0.3,0.1-0.5,0.2-0.8,0.3c0.4,0.5,0.4,0.5,2.1,0.2c0.8,2.4,1.2,4.8,1.4,7.3c0.2,1.9,0.1,3.8,0.2,5.7      C215.2,189.3,215,189.7,214.4,190z"/>
  <path fill="#FFFFFF" d="M239.9,177.4c-3.5-0.6-6.6,0.5-9,3.2c-0.5,0.6-1,1.2-1.5,1.9c-0.1,0.2-0.3,0.3-0.5,0.5      c-0.4-0.5-0.2-0.9,0-1.3c0.5-0.7,0.9-1.4,1.5-2c1.8-1.9,3.9-3,6.6-3.3c-0.3-0.4-0.6-0.7-0.8-1c-0.7-0.1-1.3,0.6-2-0.1      c0.3-0.2,0.5-0.3,0.7-0.4c0.5-0.2,0.9-0.3,1.4-0.5c0.9-0.4,1-1.1,0.4-1.8c-0.3-0.4-0.8-0.7-1.2-0.9c-0.7-0.4-1.5-0.6-2.3-1      c-0.1,0.4-0.1,0.8-0.2,1.1c0,0.4-0.3,0.7-0.6,0.8c-1.2,0.4-2.3,0.2-3.3-0.5c-0.5-0.3-0.6-0.8-0.7-1.3c0-0.2-0.1-0.3-0.1-0.6      c-1.2,0.4-2.3,0.7-3.2,1.5c-1,0.9-0.9,1.9,0.2,2.7c0.4,0.3,0.9,0.5,1.3,0.8c0.2,0.1,0.3,0.3,0.7,0.5c-1,0.3-1.7-0.1-2.5-0.4      c-0.1,0.5-0.3,1-0.4,1.4c-1.1,3.6-1.3,7.2-1,10.9c0,0.3,0.1,0.6,0.1,0.9c-0.1,0.6,0.3,0.9,0.8,1.2c1.4,0.9,3,1.5,4.7,1.8      c3,0.6,6.1,0.8,9.2,0.5c2.4-0.2,4.8-0.5,7.1-1.1c0.8-0.2,1.6-0.5,2.4-0.8c0.4-0.1,0.5-0.3,0.6-0.7c0.4-1.8,0.3-3.5-0.4-5.2      C246.4,180.4,243.7,178.1,239.9,177.4z"/>
  <path fill="#979797" d="M240.5,175.2c-0.5-0.1-1-0.2-1.7-0.2c0.6-0.9,0.7-1.9,0.3-3c-0.4-0.9-1-1.6-2-2.2c-0.9-0.6-1.6-0.9-2.6-1.1      c0-0.7,0-1.3,0-2c0-1.7,0-3.4,0-5.2l0-2c0-3.5,0.1-7.1,0.1-10.6c0-2.1,0.1-4.2,0.2-6.3c0.1-2.4,0.1-4.9,0.2-7.3      c0-1.5,0-3.1-0.2-4.8c-0.1-0.8-0.3-1.6-0.8-2.5c-0.8-1.6-2.5-2.5-4.4-2.2c-1.4,0.2-2.4,1.1-2.8,2.4c-0.3,0.8-0.4,1.6-0.4,2.3      c0,1.6,0.1,3.3,0.1,4.9c0,0.7,0,1.4,0.1,2.1c0,1.5,0.1,3,0.1,4.5c0.1,3.5,0.2,7.1,0.3,10.6c0,3.6,0,7.3,0,10.9      c0,1.5,0,3.1,0,4.6c0,0,0,0,0,0c-0.7,0.3-1.3,0.5-2,0.9c-0.7,0.4-1.4,0.9-1.9,1.5c-1,1.2-1.2,2.7-0.3,4.1      c-0.1,0.4-0.2,0.8-0.3,1.1c-0.4,1.4-0.8,2.8-1,4.2c-0.4,2.4-0.5,5-0.3,8c0.1,1.5,0.8,2.7,2.1,3.5c1.7,1.1,3.7,1.8,6.1,2.3      c2.1,0.4,4.2,0.5,6.4,0.5c2.9,0,5.9-0.3,8.9-1c0.9-0.2,1.7-0.5,2.5-0.8c0.7-0.3,1.4-0.7,2.2-1.2c0.6-0.4,0.9-1.2,1-1.5      c0.7-2.2,0.6-4.5-0.3-6.7C248.3,178.9,245.1,176.2,240.5,175.2z M248.2,189.2c-0.1,0.4-0.2,0.6-0.6,0.7      c-0.8,0.2-1.6,0.5-2.4,0.8c-2.3,0.7-4.7,1-7.1,1.1c-3.1,0.2-6.1,0.1-9.2-0.5c-1.7-0.3-3.2-0.9-4.7-1.8c-0.5-0.3-0.8-0.6-0.8-1.2      c0-0.3-0.1-0.6-0.1-0.9c-0.3-3.7,0-7.3,1-10.9c0.1-0.5,0.3-0.9,0.4-1.4c0.8,0.4,1.4,0.8,2.5,0.4c-0.3-0.2-0.5-0.4-0.7-0.5      c-0.4-0.3-0.9-0.5-1.3-0.8c-1.1-0.7-1.2-1.8-0.2-2.7c0.9-0.8,2-1.2,3.2-1.5c0,0.3,0,0.4,0.1,0.6c0.1,0.5,0.2,1,0.7,1.3      c1,0.7,2.1,0.9,3.3,0.5c0.4-0.1,0.6-0.4,0.6-0.8c0-0.3,0.1-0.7,0.2-1.1c0.8,0.4,1.6,0.6,2.3,1c0.4,0.2,0.9,0.6,1.2,0.9      c0.6,0.7,0.4,1.4-0.4,1.8c-0.4,0.2-0.9,0.3-1.4,0.5c-0.2,0.1-0.4,0.3-0.7,0.4c0.7,0.7,1.4,0,2,0.1c0.2,0.3,0.5,0.6,0.8,1      c-2.7,0.3-4.9,1.4-6.6,3.3c-0.6,0.6-1.1,1.3-1.5,2c-0.2,0.3-0.4,0.7,0,1.3c0.2-0.2,0.3-0.4,0.5-0.5c0.5-0.6,1-1.3,1.5-1.9      c2.4-2.6,5.5-3.8,9-3.2c3.8,0.7,6.5,3,8,6.6C248.5,185.7,248.7,187.4,248.2,189.2z"/>
  <path fill="#FFFFFF" d="M242.8,37.3L180.1,37c-0.3,0-0.6,0.3-0.5,0.6l7.2,105c0,0.3,0.3,0.5,0.5,0.5l67.8,0.1      c0.3,0,0.5-0.2,0.5-0.5l6.6-87.9"/>
  <path fill="#979797" d="M242.8,38.3C242.8,38.3,242.8,38.3,242.8,38.3l-1,0c-0.5,0-1-0.4-1-1c0-0.5,0.4-1,1-1c0,0,0,0,0,0l1,0       c0.5,0,1,0.4,1,1C243.8,37.8,243.4,38.3,242.8,38.3z"/>
  <path fill="#979797" d="M254.7,144.2C254.7,144.2,254.7,144.2,254.7,144.2l-1.9,0c-0.5,0-1-0.4-1-1c0-0.5,0.4-1,1-1c0,0,0,0,0,0       l1.9,0c0.5,0,1,0.4,1,1C255.7,143.8,255.2,144.2,254.7,144.2z M247.8,144.2C247.8,144.2,247.8,144.2,247.8,144.2l-1.9,0       c-0.5,0-1-0.4-1-1c0-0.5,0.4-1,1-1c0,0,0,0,0,0l1.9,0c0.5,0,1,0.4,1,1C248.7,143.8,248.3,144.2,247.8,144.2z M240.8,144.2       C240.8,144.2,240.8,144.2,240.8,144.2l-1.9,0c-0.5,0-1-0.4-1-1c0-0.5,0.4-1,1-1c0,0,0,0,0,0l1.9,0c0.5,0,1,0.4,1,1       C241.8,143.8,241.3,144.2,240.8,144.2z M233.9,144.2C233.9,144.2,233.9,144.2,233.9,144.2l-1.9,0c-0.5,0-1-0.4-1-1       c0-0.5,0.4-1,1-1c0,0,0,0,0,0l1.9,0c0.5,0,1,0.4,1,1C234.8,143.7,234.4,144.2,233.9,144.2z M226.9,144.2       C226.9,144.2,226.9,144.2,226.9,144.2l-1.9,0c-0.5,0-1-0.4-1-1c0-0.5,0.4-1,1-1c0,0,0,0,0,0l1.9,0c0.5,0,1,0.4,1,1       C227.9,143.7,227.5,144.2,226.9,144.2z M220,144.1C220,144.1,220,144.1,220,144.1l-1.9,0c-0.5,0-1-0.4-1-1c0-0.5,0.4-1,1-1       c0,0,0,0,0,0l1.9,0c0.5,0,1,0.4,1,1C221,143.7,220.5,144.1,220,144.1z M213,144.1C213,144.1,213,144.1,213,144.1l-1.9,0       c-0.5,0-1-0.4-1-1c0-0.5,0.4-1,1-1c0,0,0,0,0,0l1.9,0c0.5,0,1,0.4,1,1C214,143.7,213.6,144.1,213,144.1z M206.1,144.1       C206.1,144.1,206.1,144.1,206.1,144.1l-1.9,0c-0.5,0-1-0.4-1-1c0-0.5,0.4-1,1-1c0,0,0,0,0,0l1.9,0c0.5,0,1,0.4,1,1       C207.1,143.7,206.6,144.1,206.1,144.1z M199.1,144.1C199.1,144.1,199.1,144.1,199.1,144.1l-1.9,0c-0.5,0-1-0.4-1-1       c0-0.5,0.4-1,1-1c0,0,0,0,0,0l1.9,0c0.5,0,1,0.4,1,1C200.1,143.7,199.7,144.1,199.1,144.1z M192.2,144.1       C192.2,144.1,192.2,144.1,192.2,144.1l-1.9,0c-0.5,0-1-0.4-1-1c0-0.5,0.4-1,1-1c0,0,0,0,0,0l1.9,0c0.5,0,1,0.4,1,1       C193.2,143.7,192.7,144.1,192.2,144.1z M186.7,142.3c-0.5,0-0.9-0.4-1-0.9l-0.1-1.9c0-0.5,0.4-1,0.9-1c0.5,0,1,0.4,1,0.9       l0.1,1.9C187.7,141.8,187.3,142.3,186.7,142.3C186.7,142.3,186.7,142.3,186.7,142.3z M255.9,139.9       C255.9,139.9,255.9,139.9,255.9,139.9c-0.6,0-1-0.5-1-1.1l0.1-1.9c0-0.5,0.5-0.9,1-0.9c0.5,0,0.9,0.5,0.9,1l-0.1,1.9       C256.8,139.5,256.4,139.9,255.9,139.9z M186.2,135.4c-0.5,0-0.9-0.4-1-0.9l-0.1-1.9c0-0.5,0.4-1,0.9-1c0.5,0,1,0.4,1,0.9       l0.1,1.9C187.2,134.9,186.8,135.4,186.2,135.4C186.3,135.4,186.2,135.4,186.2,135.4z M256.4,133C256.4,133,256.4,133,256.4,133       c-0.6,0-1-0.5-1-1.1l0.1-1.9c0-0.5,0.5-0.9,1-0.9c0.5,0,0.9,0.5,0.9,1l-0.1,1.9C257.4,132.6,256.9,133,256.4,133z M185.7,128.5       c-0.5,0-0.9-0.4-1-0.9l-0.1-1.9c0-0.5,0.4-1,0.9-1c0.5,0,1,0.4,1,0.9l0.1,1.9C186.8,128,186.3,128.4,185.7,128.5       C185.8,128.5,185.8,128.5,185.7,128.5z M256.9,126C256.9,126,256.9,126,256.9,126c-0.6,0-1-0.5-1-1.1l0.1-1.9       c0-0.5,0.5-0.9,1-0.9c0.5,0,0.9,0.5,0.9,1l-0.1,1.9C257.9,125.6,257.5,126,256.9,126z M185.3,121.5c-0.5,0-0.9-0.4-1-0.9       l-0.1-1.9c0-0.5,0.4-1,0.9-1c0.5,0,1,0.4,1,0.9l0.1,1.9C186.3,121,185.9,121.5,185.3,121.5       C185.3,121.5,185.3,121.5,185.3,121.5z M257.5,119.1C257.4,119.1,257.4,119.1,257.5,119.1c-0.6,0-1-0.5-1-1.1l0.1-1.9       c0-0.5,0.5-0.9,1-0.9c0.5,0,0.9,0.5,0.9,1l-0.1,1.9C258.4,118.7,258,119.1,257.5,119.1z M184.8,114.6c-0.5,0-0.9-0.4-1-0.9       l-0.1-1.9c0-0.5,0.4-1,0.9-1c0.5,0,1,0.4,1,0.9l0.1,1.9C185.8,114.1,185.4,114.6,184.8,114.6       C184.8,114.6,184.8,114.6,184.8,114.6z M258,112.2C258,112.2,257.9,112.2,258,112.2c-0.6,0-1-0.5-1-1.1l0.1-1.9       c0-0.5,0.5-0.9,1-0.9c0.5,0,0.9,0.5,0.9,1l-0.1,1.9C258.9,111.8,258.5,112.2,258,112.2z M184.3,107.7c-0.5,0-0.9-0.4-1-0.9       l-0.1-1.9c0-0.5,0.4-1,0.9-1c0.5,0,1,0.4,1,0.9l0.1,1.9C185.3,107.2,184.9,107.7,184.3,107.7       C184.4,107.7,184.3,107.7,184.3,107.7z M258.5,105.3C258.5,105.3,258.5,105.3,258.5,105.3c-0.6,0-1-0.5-1-1.1l0.1-1.9       c0-0.5,0.5-0.9,1-0.9c0.5,0,0.9,0.5,0.9,1l-0.1,1.9C259.5,104.9,259,105.3,258.5,105.3z M183.8,100.8c-0.5,0-0.9-0.4-1-0.9       l-0.1-1.9c0-0.5,0.4-1,0.9-1c0.5,0,1,0.4,1,0.9l0.1,1.9C184.8,100.3,184.4,100.7,183.8,100.8       C183.9,100.8,183.9,100.8,183.8,100.8z M259,98.3C259,98.3,259,98.3,259,98.3c-0.6,0-1-0.5-1-1.1l0.1-1.9c0-0.5,0.5-0.9,1-0.9       c0.5,0,0.9,0.5,0.9,1l-0.1,1.9C260,97.9,259.5,98.3,259,98.3z M183.4,93.8c-0.5,0-0.9-0.4-1-0.9l-0.1-1.9c0-0.5,0.4-1,0.9-1       c0.5,0,1,0.4,1,0.9l0.1,1.9C184.4,93.3,184,93.8,183.4,93.8C183.4,93.8,183.4,93.8,183.4,93.8z M259.6,91.4       C259.5,91.4,259.5,91.4,259.6,91.4c-0.6,0-1-0.5-1-1.1l0.1-1.9c0-0.5,0.5-0.9,1-0.9c0.5,0,0.9,0.5,0.9,1l-0.1,1.9       C260.5,91,260.1,91.4,259.6,91.4z M182.9,86.9c-0.5,0-0.9-0.4-1-0.9l-0.1-1.9c0-0.5,0.4-1,0.9-1c0.5,0,1,0.4,1,0.9l0.1,1.9       C183.9,86.4,183.5,86.9,182.9,86.9C182.9,86.9,182.9,86.9,182.9,86.9z M260.1,84.5C260.1,84.5,260,84.5,260.1,84.5       c-0.6,0-1-0.5-1-1.1l0.1-1.9c0-0.5,0.5-0.9,1-0.9c0.5,0,0.9,0.5,0.9,1l-0.1,1.9C261,84.1,260.6,84.5,260.1,84.5z M182.4,80       c-0.5,0-0.9-0.4-1-0.9l-0.1-1.9c0-0.5,0.4-1,0.9-1c0.5,0,1,0.4,1,0.9l0.1,1.9C183.4,79.5,183,79.9,182.4,80       C182.4,80,182.4,80,182.4,80z M260.6,77.6C260.6,77.6,260.6,77.6,260.6,77.6c-0.6,0-1-0.5-1-1.1l0.1-1.9c0-0.5,0.5-0.9,1-0.9       c0.5,0,0.9,0.5,0.9,1l-0.1,1.9C261.5,77.2,261.1,77.6,260.6,77.6z M181.9,73.1c-0.5,0-0.9-0.4-1-0.9l-0.1-1.9       c0-0.5,0.4-1,0.9-1c0.5,0,1,0.4,1,0.9l0.1,1.9C182.9,72.6,182.5,73,181.9,73.1C182,73.1,181.9,73.1,181.9,73.1z M261.1,70.6       C261.1,70.6,261.1,70.6,261.1,70.6c-0.6,0-1-0.5-1-1.1l0.1-1.9c0-0.5,0.5-0.9,1-0.9c0.5,0,0.9,0.5,0.9,1l-0.1,1.9       C262.1,70.2,261.6,70.6,261.1,70.6z M181.4,66.1c-0.5,0-0.9-0.4-1-0.9l-0.1-1.9c0-0.5,0.4-1,0.9-1c0.5,0,1,0.4,1,0.9l0.1,1.9       C182.5,65.6,182.1,66.1,181.4,66.1C181.5,66.1,181.5,66.1,181.4,66.1z M261.6,63.7C261.6,63.7,261.6,63.7,261.6,63.7       c-0.6,0-1-0.5-1-1.1l0.1-1.9c0-0.5,0.5-0.9,1-0.9c0.5,0,0.9,0.5,0.9,1.1l-0.1,1.9C262.6,63.3,262.2,63.7,261.6,63.7z M181,59.2       c-0.5,0-0.9-0.4-1-0.9l-0.1-1.9c0-0.5,0.4-1,0.9-1c0.5,0,1,0.4,1,0.9l0.1,1.9C182,58.7,181.6,59.2,181,59.2       C181,59.2,181,59.2,181,59.2z M180.5,52.3c-0.5,0-0.9-0.4-1-0.9l-0.1-1.9c0-0.5,0.4-1,0.9-1c0.5,0,1,0.4,1,0.9l0.1,1.9       C181.5,51.8,181.1,52.2,180.5,52.3C180.5,52.3,180.5,52.3,180.5,52.3z M180,45.4c-0.5,0-0.9-0.4-1-0.9l-0.1-1.9       c0-0.5,0.4-1,0.9-1c0.5,0,1,0.4,1,0.9l0.1,1.9C181,44.8,180.6,45.3,180,45.4C180.1,45.4,180,45.4,180,45.4z M179.6,38.4       c-0.1,0-0.2,0-0.2,0c-0.5-0.1-0.8-0.7-0.7-1.2c0.2-0.7,0.8-1.2,1.5-1.2l1.2,0c0.5,0,1,0.4,1,1c0,0.5-0.4,1-1,1c0,0,0,0,0,0       l-0.9,0C180.2,38.3,179.9,38.4,179.6,38.4z M236.8,38.3C236.8,38.3,236.8,38.3,236.8,38.3l-1.9,0c-0.5,0-1-0.4-1-1       c0-0.5,0.4-1,1-1c0,0,0,0,0,0l1.9,0c0.5,0,1,0.4,1,1C237.8,37.8,237.4,38.3,236.8,38.3z M229.9,38.2       C229.9,38.2,229.9,38.2,229.9,38.2l-1.9,0c-0.5,0-1-0.4-1-1c0-0.5,0.4-1,1-1c0,0,0,0,0,0l1.9,0c0.5,0,1,0.4,1,1       C230.8,37.8,230.4,38.2,229.9,38.2z M222.9,38.2C222.9,38.2,222.9,38.2,222.9,38.2l-1.9,0c-0.5,0-1-0.4-1-1c0-0.5,0.4-1,1-1       c0,0,0,0,0,0l1.9,0c0.5,0,1,0.4,1,1C223.9,37.8,223.5,38.2,222.9,38.2z M216,38.2C216,38.2,216,38.2,216,38.2l-1.9,0       c-0.5,0-1-0.4-1-1c0-0.5,0.4-1,1-1c0,0,0,0,0,0l1.9,0c0.5,0,1,0.4,1,1C217,37.7,216.5,38.2,216,38.2z M209,38.1       C209,38.1,209,38.1,209,38.1l-1.9,0c-0.5,0-1-0.4-1-1c0-0.5,0.4-1,1-1c0,0,0,0,0,0l1.9,0c0.5,0,1,0.4,1,1       C210,37.7,209.6,38.1,209,38.1z M202.1,38.1C202.1,38.1,202.1,38.1,202.1,38.1l-1.9,0c-0.5,0-1-0.4-1-1c0-0.5,0.4-1,1-1       c0,0,0,0,0,0l1.9,0c0.5,0,1,0.4,1,1C203.1,37.7,202.6,38.1,202.1,38.1z M195.2,38.1C195.2,38.1,195.1,38.1,195.2,38.1l-1.9,0       c-0.5,0-1-0.4-1-1c0-0.5,0.4-1,1-1c0,0,0,0,0,0l1.9,0c0.5,0,1,0.4,1,1C196.1,37.6,195.7,38.1,195.2,38.1z M188.2,38.1       C188.2,38.1,188.2,38.1,188.2,38.1l-1.9,0c-0.5,0-1-0.4-1-1c0-0.5,0.4-1,1-1c0,0,0,0,0,0l1.9,0c0.5,0,1,0.4,1,1       C189.2,37.6,188.7,38.1,188.2,38.1z"/>
  <path fill="#979797" d="M262.2,56.8C262.1,56.8,262.1,56.8,262.2,56.8c-0.6,0-1-0.5-1-1.1l0.1-0.9c0-0.5,0.5-0.9,1-0.9       c0.5,0,0.9,0.5,0.9,1l-0.1,0.9C263.1,56.4,262.7,56.8,262.2,56.8z"/>
  <path fill="#FFFFFF" d="M243.8,56.9c0,0.3,0.3,0.5,0.6,0.5l17.8-2.5l-19.4-17.5L243.8,56.9z"/>
  <path fill="#979797" d="M261.3,55.9c-0.5,0-0.9-0.4-1-0.8c0-0.3,0.1-0.6,0.2-0.8c0-0.3,0-0.6,0.2-0.8c0.4-0.4,1-0.4,1.4-0.1       l0.7,0.6c0.3,0.3,0.4,0.7,0.3,1c-0.1,0.4-0.4,0.6-0.8,0.7l-0.9,0.1C261.4,55.9,261.3,55.9,261.3,55.9z"/>
  <path fill="#979797" d="M258,52c-0.2,0-0.5-0.1-0.7-0.3l-1.3-1.2c-0.4-0.4-0.4-1-0.1-1.4c0.4-0.4,1-0.4,1.4-0.1l1.3,1.2       c0.4,0.4,0.4,1,0.1,1.4C258.5,51.9,258.3,52,258,52z M253.2,47.6c-0.2,0-0.5-0.1-0.7-0.3l-1.3-1.2c-0.4-0.4-0.4-1-0.1-1.4       c0.4-0.4,1-0.4,1.4-0.1l1.3,1.2c0.4,0.4,0.4,1,0.1,1.4C253.7,47.5,253.5,47.6,253.2,47.6z M248.4,43.3c-0.2,0-0.5-0.1-0.7-0.3       l-1.3-1.2c-0.4-0.4-0.4-1-0.1-1.4c0.4-0.4,1-0.4,1.4-0.1l1.3,1.2c0.4,0.4,0.4,1,0.1,1.4C248.9,43.2,248.6,43.3,248.4,43.3z"/>
  <path fill="#979797" d="M242.9,39.2c-0.5,0-0.9-0.4-1-0.9l-0.1-1c0-0.4,0.2-0.8,0.6-0.9c0.4-0.2,0.8-0.1,1.1,0.2l0.7,0.6       c0.4,0.4,0.4,1,0.1,1.4c-0.2,0.2-0.4,0.3-0.7,0.3C243.4,39.1,243.2,39.2,242.9,39.2C242.9,39.2,242.9,39.2,242.9,39.2z"/>
  <path fill="#979797" d="M244.1,58.2c-0.2,0-0.3,0-0.5-0.1c-0.4-0.2-0.7-0.7-0.7-1.2l-0.1-1.3c0-0.5,0.4-1,0.9-1c0.5,0,1,0.4,1,0.9       l0.1,1c0.3,0.3,0.3,0.8,0.1,1.2C244.7,58.1,244.4,58.2,244.1,58.2z M248.7,57.7c-0.5,0-0.9-0.4-1-0.8c-0.1-0.5,0.3-1,0.8-1.1       l1.7-0.2c0.5-0.1,1,0.3,1.1,0.8c0.1,0.5-0.3,1-0.8,1.1l-1.7,0.2C248.8,57.7,248.7,57.7,248.7,57.7z M255,56.8       c-0.5,0-0.9-0.4-1-0.8c-0.1-0.5,0.3-1,0.8-1.1l1.7-0.2c0.5-0.1,1,0.3,1.1,0.8c0.1,0.5-0.3,1-0.8,1.1l-1.7,0.2       C255.1,56.8,255,56.8,255,56.8z M243.5,52c-0.5,0-0.9-0.4-1-0.9l-0.1-1.7c0-0.5,0.4-1,0.9-1c0.5,0,1,0.4,1,0.9l0.1,1.7       C244.5,51.5,244.1,51.9,243.5,52C243.6,52,243.5,52,243.5,52z M243.2,45.6c-0.5,0-0.9-0.4-1-0.9l-0.1-1.7c0-0.5,0.4-1,0.9-1       c0.5,0,1,0.4,1,0.9l0.1,1.7C244.2,45.1,243.8,45.6,243.2,45.6C243.2,45.6,243.2,45.6,243.2,45.6z"/>
  <polygon fill="#979797" points="249.7,100.8 249.5,103.6 190.7,103.6 190.5,100.8     "/>
  <polygon fill="#979797" points="249.3,106.3 249.1,109.1 191,109.2 191,109.2 190.8,106.3     "/>
  <polygon fill="#979797" points="248.9,111.5 248.7,114.3 191.4,114.4 191.2,111.5     "/>
  <rect x="193.7" y="128.6" transform="matrix(-1 -2.199042e-03 2.199042e-03 -1 405.307 259.7737)" fill="#979797" width="18.3" height="2.2"/>
  <path fill="#979797" d="M211.5,123.9c-1.7-1.1-3.8-1.4-5.7-0.9c-0.1-0.1-0.1-0.3-0.2-0.4c-0.2-0.4-0.7-0.8-1.2-0.6      c-0.9,0.4-1.7,0.8-2.6,1.2c0-0.6,0-1.2,0-1.8c0-0.7-0.9-1.2-1.5-0.7c-2,1.6-4,3.2-6,4.8c-0.4,0.3-0.6,0.9-0.3,1.3      c0.3,0.4,0.9,0.6,1.3,0.3c1.5-1.2,3-2.4,4.5-3.6c0,0.4,0,0.9,0,1.3c0,0.6,0.7,1.1,1.3,0.8c1-0.5,2-0.9,3.1-1.4      c0,0.1,0.1,0.2,0.1,0.4c0.2,0.4,0.7,0.8,1.2,0.6c1.7-0.7,3.6-0.6,5.1,0.5c0.4,0.3,1.1,0,1.3-0.4      C212.1,124.7,211.9,124.2,211.5,123.9z"/>
  <path fill="#F58A2D" d="M218.4,46.3l-26.2,45.3c-0.8,1.4,0.2,3.2,1.8,3.2l52.3,0.1c1.6,0,2.7-1.8,1.9-3.2l-26.1-45.4      C221.3,44.9,219.2,44.9,218.4,46.3z"/>
  <path fill="#005787" d="M246.4,95.8C246.4,95.8,246.3,95.8,246.4,95.8L194,95.7c-1.1,0-2.1-0.6-2.7-1.6c-0.6-1-0.6-2.1,0-3.1      l26.2-45.3c0.6-1,1.6-1.6,2.7-1.6c1.1,0,2.1,0.6,2.7,1.6L249,91.2c0.6,1,0.6,2.1,0,3.1C248.5,95.3,247.5,95.8,246.4,95.8z       M220.3,46.2c-0.2,0-0.7,0.1-1,0.6L193,92.1c-0.3,0.5-0.1,1,0,1.2c0.1,0.2,0.4,0.6,1,0.6l52.3,0.1c0,0,0,0,0,0      c0.6,0,0.9-0.4,1-0.6c0.1-0.2,0.3-0.6,0-1.2l-26.1-45.4C221,46.3,220.5,46.2,220.3,46.2C220.3,46.2,220.3,46.2,220.3,46.2z       M218.4,46.3L218.4,46.3L218.4,46.3z"/>
  <path fill="#FFFFFF" d="M218.6,88.4c-0.2,0-0.4-0.1-0.6-0.2c-0.2-0.2-0.2-0.3-0.2-0.6l0-3.5c0-0.2,0.1-0.4,0.2-0.6       c0.2-0.2,0.3-0.2,0.6-0.2l3.5,0c0.2,0,0.4,0.1,0.6,0.2c0.2,0.2,0.2,0.3,0.2,0.6l0,3.5c0,0.2-0.1,0.4-0.2,0.6       c-0.2,0.2-0.3,0.2-0.6,0.2L218.6,88.4z M218.8,80.7c-0.2,0-0.4-0.1-0.6-0.2c-0.2-0.2-0.2-0.3-0.2-0.6l0-14.4       c0-0.2,0.1-0.4,0.2-0.6c0.2-0.2,0.3-0.2,0.6-0.2l3.1,0c0.2,0,0.4,0.1,0.6,0.2c0.2,0.2,0.2,0.3,0.2,0.6l0,14.4       c0,0.2-0.1,0.4-0.2,0.6c-0.2,0.2-0.3,0.2-0.6,0.2L218.8,80.7z"/>
  <path fill="#00588A" d="M222.1,89.1C222.1,89.1,222.1,89.1,222.1,89.1l-3.5,0c-0.4,0-0.7-0.1-1-0.4c-0.3-0.3-0.4-0.6-0.4-1l0-3.5       c0-0.4,0.1-0.8,0.4-1c0.3-0.3,0.6-0.4,1-0.4l3.5,0c0.4,0,0.8,0.1,1,0.4c0.3,0.3,0.4,0.6,0.4,1l0,3.5c0,0.4-0.1,0.8-0.4,1       C222.9,88.9,222.5,89.1,222.1,89.1z M218.6,87.8l3.5,0c0,0,0,0,0,0c0.1,0,0.1,0,0.1,0c0,0,0,0,0-0.1l0-3.5c0-0.1,0-0.1,0-0.1       c0,0,0,0-0.1,0l-3.5,0c0,0,0,0,0,0c0,0-0.1,0-0.1,0c0,0,0,0,0,0.1l0,3.5C218.5,87.7,218.5,87.7,218.6,87.8       C218.6,87.8,218.6,87.8,218.6,87.8L218.6,87.8z M222,81.4C222,81.4,222,81.4,222,81.4l-3.2,0c-0.4,0-0.8-0.1-1-0.4       c-0.3-0.3-0.4-0.6-0.4-1l0-14.4c0-0.4,0.1-0.8,0.4-1c0.3-0.3,0.6-0.4,1-0.4c0,0,0,0,0,0l3.1,0c0.4,0,0.8,0.1,1,0.4       c0.3,0.3,0.4,0.6,0.4,1l0,14.4c0,0.4-0.1,0.8-0.4,1C222.8,81.2,222.4,81.4,222,81.4z M218.8,80.1l3.1,0c0,0,0,0,0,0       c0.1,0,0.1,0,0.1,0c0,0,0,0,0-0.1l0-14.4c0-0.1,0-0.1,0-0.1c0,0,0,0-0.1,0l-3.1,0c0,0,0,0,0,0c-0.1,0-0.1,0-0.1,0       c0,0,0,0,0,0.1l0,14.4c0,0.1,0,0.1,0,0.1C218.7,80,218.8,80.1,218.8,80.1L218.8,80.1z"/>
  <path fill="#F9A75D" d="M242.2,89.6c-0.3,0-0.7-0.2-0.8-0.5l-20.6-35.9c-0.3-0.5-0.1-1.1,0.4-1.3c0.5-0.3,1.1-0.1,1.3,0.4      L243,88.2c0.3,0.5,0.1,1.1-0.4,1.3C242.5,89.6,242.4,89.6,242.2,89.6z"/>
  <path fill="#005787" d="M100.4,149.3l-3.8-1.2c-0.7-0.2-1.5,0-2,0.5l-2.9,2.8c-0.4,0.4-1.3,0.3-1.4-0.2l-3.2-13.7l11.2-2.6l3.2,13.7    C101.7,149,101,149.5,100.4,149.3z"/>
  <radialGradient id="SVGID_1_" cx="21.3459" cy="-173.2556" r="14.8025" gradientTransform="matrix(0.7041 -0.1643 0.1643 0.7041 104.8341 255.9021)" gradientUnits="userSpaceOnUse">
    <stop offset="0.4417" style="stop-color:#0091B0"/>
    <stop offset="0.8542" style="stop-color:#1BACC8"/>
  </radialGradient>
  <path fill="url(#SVGID_1_)" d="M90.6,141.3c-0.1,0-0.1,0-0.2,0c-1-0.1-1.6-0.8-2.1-1.4l0,0c-0.3-0.4-0.5-0.5-0.6-0.6l0,0l0,0      c-0.1,0-0.2,0-0.4,0c-0.2,0-0.4,0-0.5,0c-0.2,0-0.4,0-0.6,0c-0.6,0-1.3-0.1-1.8-0.6c-0.7-0.6-0.8-1.6-0.9-2.3l0-0.1      c0-0.5-0.1-0.7-0.2-0.9l0,0c-0.1-0.1-0.3-0.2-0.7-0.5l-0.1,0c-0.6-0.4-1.5-1-1.7-1.9c-0.2-1,0.3-1.8,0.7-2.5l0-0.1      c0.2-0.4,0.3-0.6,0.4-0.7l0,0l0,0c0-0.1-0.1-0.4-0.2-0.8l0-0.1c-0.3-0.7-0.6-1.6-0.2-2.5c0.4-0.9,1.3-1.3,2-1.6l0,0      c0.4-0.2,0.7-0.3,0.8-0.4l0,0l0,0c0.1-0.1,0.2-0.4,0.3-0.9c0.2-0.8,0.5-1.7,1.3-2.2c0.2-0.1,0.4-0.2,0.6-0.2      c0.2,0,0.4-0.1,0.6-0.1c0.4,0,0.9,0.1,1.3,0.2l0.1,0c0.3,0.1,0.6,0.1,0.8,0.1c0.1,0,0.1,0,0.1,0c0.2,0,0.4-0.2,0.8-0.5l0,0      c0.5-0.4,1-0.8,1.6-0.9c0.2,0,0.3-0.1,0.5-0.1c0.1,0,0.1,0,0.2,0c1,0.1,1.6,0.8,2.1,1.4c0.5,0.6,0.6,0.6,0.7,0.6l0,0l0,0      c0.1,0,0.2,0,0.4,0c0.2,0,0.4,0,0.5,0l0,0c0.2,0,0.4,0,0.6,0c0.5,0,1.2,0.1,1.8,0.6c0.7,0.6,0.8,1.5,0.9,2.3l0,0      c0,0.5,0.1,0.8,0.2,0.9l0,0l0,0c0.1,0.1,0.3,0.2,0.7,0.5c0.7,0.4,1.5,1,1.7,1.9c0.2,1-0.3,1.8-0.7,2.5l0,0.1      c-0.2,0.4-0.3,0.6-0.4,0.8l0,0c0,0.2,0.1,0.4,0.3,0.9l0,0c0.3,0.7,0.6,1.6,0.2,2.5c-0.4,0.9-1.2,1.2-1.9,1.6      c-0.7,0.3-0.8,0.4-0.9,0.4l0,0l0,0c-0.1,0.1-0.2,0.4-0.3,0.9c-0.2,0.8-0.5,1.7-1.3,2.2c-0.2,0.1-0.4,0.2-0.6,0.2      c-0.2,0-0.4,0.1-0.6,0.1c-0.4,0-0.9-0.1-1.3-0.2c-0.4-0.1-0.7-0.1-0.9-0.1c0,0-0.1,0-0.1,0c-0.2,0-0.4,0.2-0.8,0.6      c-0.5,0.4-1,0.8-1.6,0.9C91,141.3,90.8,141.3,90.6,141.3z"/>
  <path fill="#0091B0" d="M92.1,119.8c0,0,0.1,0,0.2,0c0.9,0.1,1.4,0.7,1.9,1.3c0.5,0.6,0.7,0.7,0.7,0.7l0,0l0.1,0      c0.1,0,0.2,0.1,0.5,0.1c0.2,0,0.4,0,0.5,0l0.1,0c0.2,0,0.4,0,0.6,0c0.7,0,1.2,0.1,1.6,0.5c0.6,0.5,0.7,1.4,0.8,2.1l0,0      c0.1,0.6,0.1,0.9,0.2,1l0,0l0,0c0.1,0.1,0.3,0.3,0.8,0.6c0.6,0.4,1.4,0.9,1.6,1.7c0.2,0.9-0.3,1.6-0.6,2.3l0,0.1      c-0.3,0.4-0.4,0.7-0.4,0.9l0,0l0,0c0,0.2,0.1,0.5,0.3,1l0,0c0.3,0.7,0.6,1.5,0.2,2.3c-0.3,0.8-1.1,1.1-1.8,1.4l0,0      c-0.7,0.3-0.9,0.4-0.9,0.5l0,0l0,0c-0.1,0.2-0.2,0.4-0.3,1l0,0c-0.2,0.7-0.4,1.6-1.1,2c-0.2,0.1-0.3,0.2-0.5,0.2      c-0.2,0-0.3,0.1-0.5,0.1c-0.4,0-0.8-0.1-1.2-0.2c-0.4-0.1-0.7-0.2-0.9-0.2c0,0,0,0,0,0c-0.1,0-0.1,0-0.2,0l0,0l0,0      c-0.2,0.1-0.4,0.2-0.9,0.6c-0.4,0.4-0.9,0.8-1.5,0.9c-0.1,0-0.3,0-0.4,0c0,0-0.1,0-0.1,0c-0.9-0.1-1.4-0.7-1.9-1.3l0,0      c-0.4-0.4-0.5-0.6-0.7-0.7l0,0l0,0c-0.1,0-0.3-0.1-0.5-0.1c-0.2,0-0.4,0-0.5,0l0,0c-0.2,0-0.4,0-0.6,0c-0.8,0-1.2-0.1-1.6-0.5      c-0.6-0.6-0.7-1.4-0.8-2.2l0-0.1c-0.1-0.5-0.1-0.8-0.2-1l0,0l0,0c-0.1-0.1-0.3-0.3-0.7-0.6l-0.1,0c-0.6-0.4-1.4-0.9-1.6-1.7      c-0.2-0.8,0.2-1.6,0.6-2.2l0,0l0,0l0-0.1c0.3-0.4,0.4-0.6,0.4-0.8l0,0l0,0c0-0.2-0.1-0.5-0.3-0.9l0-0.1      c-0.3-0.7-0.6-1.5-0.2-2.3c0.3-0.8,1.1-1.1,1.8-1.4l0,0c0.5-0.2,0.7-0.3,0.9-0.5l0,0l0,0c0.1-0.2,0.2-0.4,0.3-1      c0.2-0.7,0.4-1.6,1.2-2c0.2-0.1,0.3-0.2,0.5-0.2c0.2,0,0.3-0.1,0.5-0.1c0.4,0,0.8,0.1,1.2,0.2l0,0l0,0c0.4,0.1,0.7,0.1,0.9,0.1      c0.1,0,0.1,0,0.2,0c0.2-0.1,0.5-0.2,0.9-0.6l0,0c0.5-0.4,0.9-0.7,1.5-0.9C91.9,119.8,92,119.8,92.1,119.8 M92.1,119.2      c-0.2,0-0.4,0-0.5,0.1c-0.7,0.2-1.3,0.6-1.7,1c-0.2,0.2-0.6,0.5-0.7,0.5c0,0,0,0-0.1,0c-0.2,0-0.6-0.1-0.8-0.1      c-0.4-0.1-0.9-0.2-1.4-0.2c-0.2,0-0.4,0-0.6,0.1c-0.2,0.1-0.5,0.2-0.7,0.3c-0.9,0.6-1.2,1.6-1.4,2.4c-0.1,0.2-0.2,0.7-0.3,0.8      c-0.1,0.1-0.5,0.3-0.7,0.4c-0.8,0.3-1.7,0.7-2.1,1.7c-0.4,1-0.1,1.9,0.2,2.7c0.1,0.3,0.3,0.7,0.2,0.8c0,0.1-0.2,0.5-0.4,0.7      c-0.4,0.7-1,1.6-0.7,2.7c0.3,1.1,1.2,1.7,1.8,2.1c0.2,0.1,0.6,0.4,0.6,0.5c0.1,0.1,0.1,0.6,0.1,0.8c0.1,0.8,0.2,1.8,1,2.5      c0.6,0.5,1.3,0.6,2,0.6c0.2,0,0.4,0,0.6,0c0.1,0,0.3,0,0.5,0c0.1,0,0.3,0,0.3,0c0.1,0.1,0.4,0.4,0.6,0.6      c0.5,0.6,1.2,1.4,2.3,1.5c0.1,0,0.1,0,0.2,0c0.2,0,0.4,0,0.6-0.1c0.7-0.2,1.3-0.6,1.7-1c0.2-0.2,0.6-0.5,0.7-0.5c0,0,0,0,0.1,0      c0.2,0,0.6,0.1,0.8,0.1c0.4,0.1,0.9,0.2,1.3,0.2c0.2,0,0.4,0,0.7-0.1c0.2-0.1,0.5-0.2,0.7-0.3c0.9-0.6,1.2-1.6,1.4-2.4      c0.1-0.2,0.2-0.7,0.3-0.8c0.1-0.1,0.5-0.3,0.7-0.4c0.8-0.3,1.7-0.7,2.1-1.7c0.4-1,0.1-1.9-0.2-2.7c-0.1-0.2-0.3-0.7-0.3-0.8      c0-0.1,0.2-0.5,0.4-0.7c0.4-0.7,1-1.6,0.7-2.7c-0.3-1.1-1.1-1.6-1.8-2.1c-0.2-0.1-0.6-0.4-0.6-0.5c-0.1-0.1-0.1-0.6-0.1-0.8      c-0.1-0.8-0.2-1.8-1-2.5c-0.6-0.5-1.3-0.6-2-0.6c-0.2,0-0.4,0-0.6,0c-0.2,0-0.4,0-0.5,0c-0.1,0-0.2,0-0.3,0      c-0.1-0.1-0.4-0.4-0.6-0.6c-0.5-0.6-1.2-1.4-2.3-1.5C92.3,119.2,92.2,119.2,92.1,119.2L92.1,119.2z"/>
  <path fill="#005787" d="M393.9,150.3l-3.8-1.2c-0.7-0.2-1.5,0-2,0.5l-2.9,2.8c-0.4,0.4-1.3,0.3-1.4-0.2l-3.2-13.7l11.2-2.6l3.2,13.7    C395.2,150,394.5,150.5,393.9,150.3z"/>
  <radialGradient id="SVGID_00000152225263480871171120000016836110442896293564_" cx="416.3603" cy="-79.6675" r="14.8025" gradientTransform="matrix(0.7041 -0.1643 0.1643 0.7041 104.8341 255.9021)" gradientUnits="userSpaceOnUse">
    <stop offset="0.4417" style="stop-color:#0091B0"/>
    <stop offset="0.8542" style="stop-color:#1BACC8"/>
  </radialGradient>
  <path style="fill:url(#SVGID_00000152225263480871171120000016836110442896293564_);" d="M384.1,142.3c-0.1,0-0.1,0-0.2,0      c-1-0.1-1.6-0.8-2.1-1.4l0,0c-0.3-0.4-0.5-0.5-0.6-0.6l0,0l0,0c-0.1,0-0.2,0-0.4,0c-0.2,0-0.4,0-0.5,0c-0.2,0-0.4,0-0.6,0      c-0.6,0-1.3-0.1-1.8-0.6c-0.7-0.6-0.8-1.6-0.9-2.3l0-0.1c0-0.5-0.1-0.7-0.2-0.9l0,0c-0.1-0.1-0.3-0.2-0.7-0.5l-0.1,0      c-0.6-0.4-1.5-1-1.7-1.9c-0.2-1,0.3-1.8,0.7-2.5l0-0.1c0.2-0.4,0.3-0.6,0.4-0.7l0,0l0,0c0-0.1-0.1-0.4-0.2-0.8l0-0.1      c-0.3-0.7-0.6-1.6-0.2-2.5c0.4-0.9,1.3-1.3,2-1.6l0,0c0.4-0.2,0.7-0.3,0.8-0.4l0,0l0,0c0.1-0.1,0.2-0.4,0.3-0.9      c0.2-0.8,0.5-1.7,1.3-2.2c0.2-0.1,0.4-0.2,0.6-0.2c0.2,0,0.4-0.1,0.6-0.1c0.4,0,0.9,0.1,1.3,0.2l0.1,0c0.3,0.1,0.6,0.1,0.8,0.1      c0.1,0,0.1,0,0.1,0c0.2,0,0.4-0.2,0.8-0.5l0,0c0.5-0.4,1-0.8,1.6-0.9c0.2,0,0.3-0.1,0.5-0.1c0.1,0,0.1,0,0.2,0      c1,0.1,1.6,0.8,2.1,1.4c0.5,0.6,0.6,0.6,0.7,0.6l0,0l0,0c0.1,0,0.2,0,0.4,0c0.2,0,0.4,0,0.5,0l0,0c0.2,0,0.4,0,0.6,0      c0.5,0,1.2,0.1,1.8,0.6c0.7,0.6,0.8,1.5,0.9,2.3l0,0c0,0.5,0.1,0.8,0.2,0.9l0,0l0,0c0.1,0.1,0.3,0.2,0.7,0.5      c0.7,0.4,1.5,1,1.7,1.9c0.2,1-0.3,1.8-0.7,2.5l0,0.1c-0.2,0.4-0.3,0.6-0.4,0.8l0,0c0,0.2,0.1,0.4,0.3,0.9l0,0      c0.3,0.7,0.6,1.6,0.2,2.5c-0.4,0.9-1.2,1.2-1.9,1.6c-0.7,0.3-0.8,0.4-0.9,0.4l0,0l0,0c-0.1,0.1-0.2,0.4-0.3,0.9      c-0.2,0.8-0.5,1.7-1.3,2.2c-0.2,0.1-0.4,0.2-0.6,0.2c-0.2,0-0.4,0.1-0.6,0.1c-0.4,0-0.9-0.1-1.3-0.2c-0.4-0.1-0.7-0.1-0.9-0.1      c0,0-0.1,0-0.1,0c-0.2,0-0.4,0.2-0.8,0.6c-0.5,0.4-1,0.8-1.6,0.9C384.5,142.3,384.3,142.3,384.1,142.3z"/>
  <path fill="#0091B0" d="M385.7,120.8c0,0,0.1,0,0.2,0c0.9,0.1,1.4,0.7,1.9,1.3c0.5,0.6,0.7,0.7,0.7,0.7l0,0l0.1,0      c0.1,0,0.2,0.1,0.5,0.1c0.2,0,0.4,0,0.5,0l0.1,0c0.2,0,0.4,0,0.6,0c0.7,0,1.2,0.1,1.6,0.5c0.6,0.5,0.7,1.4,0.8,2.1l0,0      c0.1,0.6,0.1,0.9,0.2,1l0,0l0,0c0.1,0.1,0.3,0.3,0.8,0.6c0.6,0.4,1.4,0.9,1.6,1.7c0.2,0.9-0.3,1.6-0.6,2.3l0,0.1      c-0.3,0.4-0.4,0.7-0.4,0.9l0,0l0,0c0,0.2,0.1,0.5,0.3,1l0,0c0.3,0.7,0.6,1.5,0.2,2.3c-0.3,0.8-1.1,1.1-1.8,1.4l0,0      c-0.7,0.3-0.9,0.4-0.9,0.5l0,0l0,0c-0.1,0.2-0.2,0.4-0.3,1l0,0c-0.2,0.7-0.4,1.6-1.1,2c-0.2,0.1-0.3,0.2-0.5,0.2      c-0.2,0-0.3,0.1-0.5,0.1c-0.4,0-0.8-0.1-1.2-0.2c-0.4-0.1-0.7-0.2-0.9-0.2c0,0,0,0,0,0c-0.1,0-0.1,0-0.2,0l0,0l0,0      c-0.2,0.1-0.4,0.2-0.9,0.6c-0.4,0.4-0.9,0.8-1.5,0.9c-0.1,0-0.3,0-0.4,0c0,0-0.1,0-0.1,0c-0.9-0.1-1.4-0.7-1.9-1.3l0,0      c-0.4-0.4-0.5-0.6-0.7-0.7l0,0l0,0c-0.1,0-0.3-0.1-0.5-0.1c-0.2,0-0.4,0-0.5,0l0,0c-0.2,0-0.4,0-0.6,0c-0.8,0-1.2-0.1-1.6-0.5      c-0.6-0.6-0.7-1.4-0.8-2.2l0-0.1c-0.1-0.5-0.1-0.8-0.2-1l0,0l0,0c-0.1-0.1-0.3-0.3-0.7-0.6l-0.1,0c-0.6-0.4-1.4-0.9-1.6-1.7      c-0.2-0.8,0.2-1.6,0.6-2.2l0,0l0,0l0-0.1c0.3-0.4,0.4-0.6,0.4-0.8l0,0l0,0c0-0.2-0.1-0.5-0.3-0.9l0-0.1      c-0.3-0.7-0.6-1.5-0.2-2.3c0.3-0.8,1.1-1.1,1.8-1.4l0,0c0.5-0.2,0.7-0.3,0.9-0.5l0,0l0,0c0.1-0.2,0.2-0.4,0.3-1      c0.2-0.7,0.4-1.6,1.2-2c0.2-0.1,0.3-0.2,0.5-0.2c0.2,0,0.3-0.1,0.5-0.1c0.4,0,0.8,0.1,1.2,0.2l0,0l0,0c0.4,0.1,0.7,0.1,0.9,0.1      c0.1,0,0.1,0,0.2,0c0.2-0.1,0.5-0.2,0.9-0.6l0,0c0.5-0.4,0.9-0.7,1.5-0.9C385.4,120.8,385.5,120.8,385.7,120.8 M385.7,120.2      c-0.2,0-0.4,0-0.5,0.1c-0.7,0.2-1.3,0.6-1.7,1c-0.2,0.2-0.6,0.5-0.7,0.5c0,0,0,0-0.1,0c-0.2,0-0.6-0.1-0.8-0.1      c-0.4-0.1-0.9-0.2-1.4-0.2c-0.2,0-0.4,0-0.6,0.1c-0.2,0.1-0.5,0.2-0.7,0.3c-0.9,0.6-1.2,1.6-1.4,2.4c-0.1,0.2-0.2,0.7-0.3,0.8      c-0.1,0.1-0.5,0.3-0.7,0.4c-0.8,0.3-1.7,0.7-2.1,1.7c-0.4,1-0.1,1.9,0.2,2.7c0.1,0.3,0.3,0.7,0.2,0.8c0,0.1-0.2,0.5-0.4,0.7      c-0.4,0.7-1,1.6-0.7,2.7s1.2,1.7,1.8,2.1c0.2,0.1,0.6,0.4,0.6,0.5c0.1,0.1,0.1,0.6,0.1,0.8c0.1,0.8,0.2,1.8,1,2.5      c0.6,0.5,1.3,0.6,2,0.6c0.2,0,0.4,0,0.6,0c0.1,0,0.3,0,0.5,0c0.1,0,0.3,0,0.3,0c0.1,0.1,0.4,0.4,0.6,0.6      c0.5,0.6,1.2,1.4,2.3,1.5c0.1,0,0.1,0,0.2,0c0.2,0,0.4,0,0.6-0.1c0.7-0.2,1.3-0.6,1.7-1c0.2-0.2,0.6-0.5,0.7-0.5c0,0,0,0,0.1,0      c0.2,0,0.6,0.1,0.8,0.1c0.4,0.1,0.9,0.2,1.3,0.2c0.2,0,0.4,0,0.7-0.1c0.2-0.1,0.5-0.2,0.7-0.3c0.9-0.6,1.2-1.6,1.4-2.4      c0.1-0.2,0.2-0.7,0.3-0.8c0.1-0.1,0.5-0.3,0.7-0.4c0.8-0.3,1.7-0.7,2.1-1.7c0.4-1,0.1-1.9-0.2-2.7c-0.1-0.2-0.3-0.7-0.3-0.8      c0-0.1,0.2-0.5,0.4-0.7c0.4-0.7,1-1.6,0.7-2.7c-0.3-1.1-1.1-1.6-1.8-2.1c-0.2-0.1-0.6-0.4-0.6-0.5c-0.1-0.1-0.1-0.6-0.1-0.8      c-0.1-0.8-0.2-1.8-1-2.5c-0.6-0.5-1.3-0.6-2-0.6c-0.2,0-0.4,0-0.6,0c-0.2,0-0.4,0-0.5,0c-0.1,0-0.2,0-0.3,0      c-0.1-0.1-0.4-0.4-0.6-0.6c-0.5-0.6-1.2-1.4-2.3-1.5C385.8,120.2,385.7,120.2,385.7,120.2L385.7,120.2z"/>
</svg>
