<svg xmlns="http://www.w3.org/2000/svg" width="252" height="60" viewBox="0 0 252 60" fill="none">
  <path d="M243.405 20.4747C243.353 20.4747 243.31 20.4584 243.28 20.4285C243.248 20.3959 243.234 20.3551 243.234 20.3035V15.4926H241.7C241.648 15.4926 241.608 15.4763 241.575 15.4464C241.546 15.4138 241.529 15.373 241.529 15.3214V15.2045C241.529 15.1474 241.546 15.1039 241.575 15.0713C241.608 15.0387 241.648 15.0251 241.7 15.0251H245.251C245.308 15.0251 245.351 15.0414 245.383 15.0713C245.413 15.1039 245.429 15.1474 245.429 15.2045V15.3214C245.429 15.373 245.413 15.4138 245.383 15.4464C245.351 15.479 245.308 15.4926 245.251 15.4926H243.724V20.3035C243.724 20.3551 243.708 20.3959 243.678 20.4285C243.648 20.4611 243.602 20.4747 243.546 20.4747H243.408H243.405Z" fill="#067A91"/>
  <path d="M246.623 20.4747C246.571 20.4747 246.528 20.4584 246.496 20.4285C246.463 20.3959 246.444 20.3551 246.444 20.3035V15.2045C246.444 15.1474 246.461 15.1039 246.496 15.0713C246.531 15.0387 246.571 15.0251 246.623 15.0251H246.818C246.869 15.0251 246.91 15.0387 246.934 15.0632C246.959 15.0876 246.975 15.1094 246.98 15.1257L248.739 18.5667L250.507 15.1257C250.518 15.1094 250.534 15.0903 250.558 15.0632C250.58 15.036 250.618 15.0251 250.672 15.0251H250.859C250.915 15.0251 250.959 15.0414 250.991 15.0713C251.021 15.1039 251.037 15.1474 251.037 15.2045V20.3035C251.037 20.3551 251.021 20.3959 250.991 20.4285C250.959 20.4611 250.915 20.4747 250.859 20.4747H250.721C250.669 20.4747 250.628 20.4584 250.596 20.4285C250.564 20.3986 250.55 20.3551 250.55 20.3035V16.0851L249.07 19.0124C249.048 19.0641 249.018 19.1048 248.98 19.1293C248.942 19.1538 248.891 19.1674 248.829 19.1674H248.658C248.596 19.1674 248.547 19.1538 248.509 19.1293C248.471 19.1048 248.442 19.0641 248.417 19.0124L246.937 16.0851V20.3035C246.937 20.3551 246.921 20.3959 246.891 20.4285C246.861 20.4611 246.818 20.4747 246.766 20.4747H246.626H246.623Z" fill="#067A91"/>
  <path d="M70.4498 59.4863C70.4498 60.0027 69.987 60.0027 69.987 60.0027H67.9842C67.9842 60.0027 67.4699 60.0027 67.4699 59.4863V26.7125C67.4699 26.1961 67.9328 26.1961 67.9328 26.1961H69.9355C69.9355 26.1961 70.4498 26.1961 70.4498 26.7125V28.7239C71.0154 27.229 73.8897 25.8373 76.2011 25.8373C81.4895 25.8373 84.1094 29.6018 84.1094 34.6029V43.5234C84.1094 48.2663 80.7723 52.3406 76.3039 52.3406C74.5068 52.3406 72.0926 51.8758 70.4498 49.658V59.4835V59.4863ZM81.1323 34.6002C81.1323 30.8874 79.2323 28.7211 75.7924 28.7211C72.9181 28.7211 70.4525 30.939 70.4525 34.6002V43.469C70.4525 46.5621 72.4553 49.4514 75.9466 49.4514C78.7695 49.4514 81.1323 46.872 81.1323 43.5207V34.6002Z" fill="#067A91"/>
  <path d="M89.7605 45.4315C89.7605 41.6154 91.1977 39.5008 95.8203 38.3674L103.266 36.6142V33.7766C103.112 30.8901 101.16 28.7239 98.1831 28.7239C95.206 28.7239 93.4089 30.477 93.4089 33.1597C93.4089 33.4179 93.1003 33.5211 93.1003 33.5211H90.6347C90.6347 33.5211 90.3776 33.4179 90.3776 33.1597C90.3776 28.6722 93.7661 25.8373 98.1831 25.8373C102.6 25.8373 106.246 28.6206 106.246 34.6029V51.4654C106.246 51.9791 105.783 51.9791 105.783 51.9791H103.78C103.78 51.9791 103.266 51.9791 103.266 51.4654V49.6607C101.623 51.8786 99.106 52.3433 97.3089 52.3433C92.5347 52.3433 89.7605 49.6607 89.7605 45.4342V45.4315ZM103.266 43.469V39.7046L96.1289 41.3544C93.1518 42.0231 92.7404 43.7789 92.7404 45.1189C92.7404 47.5433 94.5375 49.4514 97.3116 49.4514C100.803 49.4514 103.269 46.5621 103.269 43.469H103.266Z" fill="#067A91"/>
  <path d="M122.011 51.9791C116.928 51.9791 114.103 49.9162 114.103 44.1404V19.2489C114.103 18.7352 114.565 18.7352 114.565 18.7352H116.568C116.568 18.7352 117.083 18.7352 117.083 19.2489V26.6582H122.474C122.988 26.6582 122.988 27.123 122.988 27.123V29.031C122.988 29.031 122.988 29.5474 122.474 29.5474H117.083V44.1404C117.083 48.2147 118.571 49.0383 122.011 49.0899H122.32C122.834 49.0899 122.834 49.5547 122.834 49.5547V51.4627C122.834 51.4627 122.834 51.9764 122.32 51.9764H122.011V51.9791Z" fill="#067A91"/>
  <path d="M132.179 51.4627C132.179 51.9764 131.665 51.9764 131.665 51.9764H129.714C129.714 51.9764 129.199 51.9764 129.199 51.4627V19.306C129.199 18.7896 129.662 18.7896 129.662 18.7896H131.665C131.665 18.7896 132.179 18.7896 132.179 19.306V27.8949C133.102 26.3483 135.465 25.8319 137.622 25.8319C142.602 25.8319 145.633 28.7184 145.633 34.5975V51.46C145.633 51.9737 145.17 51.9737 145.17 51.9737H143.168C143.168 51.9737 142.653 51.9737 142.653 51.46V34.5975C142.653 31.5533 141.062 28.7184 137.622 28.7184C134.182 28.7184 132.179 31.0396 132.179 34.5975V51.46V51.4627Z" fill="#067A91"/>
  <path d="M172.338 46.8231L176.344 26.7098C176.446 26.1934 176.858 26.1934 176.858 26.1934H179.169C179.169 26.1934 179.632 26.1934 179.529 26.7098L173.881 51.4627C173.778 51.9764 173.367 51.9764 173.367 51.9764H171.261C171.261 51.9764 170.849 51.9764 170.747 51.4627L165.047 29.648L159.398 51.4627C159.296 51.9764 158.884 51.9764 158.884 51.9764H156.778C156.778 51.9764 156.367 51.9764 156.264 51.4627L150.564 26.7098C150.41 26.1934 150.924 26.1934 150.924 26.1934H153.236C153.236 26.1934 153.647 26.1934 153.75 26.7098L157.858 46.8231L163.095 26.7098C163.25 26.1934 163.507 26.1934 163.661 26.1934H166.435C166.589 26.1934 166.847 26.1934 167.001 26.7098L172.341 46.8231H172.338Z" fill="#067A91"/>
  <path d="M183.432 45.4315C183.432 41.6154 184.869 39.5008 189.492 38.3674L196.937 36.6142V33.7766C196.783 30.8901 194.832 28.7239 191.855 28.7239C188.877 28.7239 187.08 30.477 187.08 33.1597C187.08 33.4179 186.772 33.5211 186.772 33.5211H184.306C184.306 33.5211 184.049 33.4179 184.049 33.1597C184.049 28.6722 187.438 25.8373 191.855 25.8373C196.272 25.8373 199.917 28.6206 199.917 34.6029V51.4654C199.917 51.9791 199.454 51.9791 199.454 51.9791H197.452C197.452 51.9791 196.937 51.9791 196.937 51.4654V49.6607C195.294 51.8786 192.777 52.3433 190.98 52.3433C186.206 52.3433 183.432 49.6607 183.432 45.4342V45.4315ZM196.937 43.469V39.7046L189.8 41.3544C186.823 42.0231 186.412 43.7789 186.412 45.1189C186.412 47.5433 188.209 49.4514 190.983 49.4514C194.474 49.4514 196.94 46.5621 196.94 43.469H196.937Z" fill="#067A91"/>
  <path d="M234.685 28.7211C230.73 28.7211 230.165 31.4555 230.165 32.4339C230.165 33.5157 230.576 34.8068 232.065 35.5787C234.582 36.9187 235.71 37.59 238.279 38.9816C241.924 40.9929 242.439 43.5723 242.439 45.6869C242.439 49.2965 239.665 52.3379 234.89 52.3379C228.625 52.3379 226.519 47.2851 226.519 44.5508C226.519 44.0344 226.982 44.0344 226.982 44.0344H229.036C229.036 44.0344 229.55 44.0344 229.55 44.5508C229.55 47.2851 231.605 49.4487 234.993 49.4487C237.305 49.4487 239.513 47.9021 239.513 45.6842C239.513 44.3959 239.256 42.8983 236.536 41.455L230.939 38.4652C228.216 37.0219 227.242 34.3909 227.242 32.5345C227.242 29.9551 228.987 25.8319 234.687 25.8319C238.487 25.8319 241.773 27.7399 242.03 31.9175C242.03 32.1757 242.081 32.4339 241.619 32.5372L239.77 32.8471C239.41 32.8987 239.256 32.7438 239.204 32.3823C238.999 30.6808 238.179 28.7211 234.687 28.7211H234.685Z" fill="#067A91"/>
  <path d="M221.639 26.1934H219.379C219.379 26.1934 218.968 26.1934 218.865 26.7098L213.114 48.0598H212.6L207.774 26.7098C207.671 26.1934 207.26 26.1934 207.26 26.1934H204.948C204.948 26.1934 204.434 26.1934 204.589 26.7098L209.782 48.4811L211.282 54.9744C210.199 57.1869 208.037 57.1108 206.608 57.1108C206.093 57.1108 206.093 57.6245 206.093 57.6245V59.4292C206.093 59.4292 206.093 59.9973 206.608 59.9973H207.173C210.15 59.9973 213.079 58.9644 214.464 53.9117L221.997 26.7071C222.151 26.1907 221.637 26.1907 221.637 26.1907L221.639 26.1934Z" fill="#067A91"/>
  <path d="M71.0777 3.90848C70.4498 3.90848 69.6811 4.15582 69.1588 4.54449V4.52818C69.1588 4.21833 68.9125 4.04981 68.6824 4.04981H67.9165C67.6946 4.04981 67.4591 4.21833 67.4591 4.52818V18.178C67.4591 18.4879 67.7054 18.6564 67.9354 18.6564H68.7014C68.9233 18.6564 69.1588 18.4879 69.1588 18.178V13.995C69.6757 14.4 70.3415 14.612 71.1183 14.612C72.9181 14.612 74.385 12.973 74.385 10.959V7.54517C74.385 5.30282 73.1184 3.9112 71.0804 3.9112L71.0777 3.90848ZM72.6826 7.54517V10.959C72.6826 12.0543 71.9194 12.9458 70.9802 12.9458C69.784 12.9458 69.1588 11.9375 69.1588 10.94V7.54789C69.1588 6.39002 69.8841 5.58005 70.9207 5.58005C72.3768 5.58005 72.6826 6.65095 72.6826 7.54789V7.54517Z" fill="#1BAECA"/>
  <path d="M79.4813 3.90848C77.5597 3.90848 76.2146 5.17507 76.2146 6.9907C76.2146 7.18911 76.3526 7.33588 76.4879 7.39024C76.5204 7.40383 76.5583 7.40927 76.5935 7.40927H77.5354C77.5651 7.40927 77.5949 7.40383 77.6247 7.39568C77.7789 7.34404 77.9332 7.19998 77.9332 6.9907C77.9332 6.09104 78.4962 5.57462 79.4786 5.57462C80.4611 5.57462 81.0917 6.24596 81.1431 7.22716V8.08877L78.5097 8.70848C76.7126 9.14879 75.9791 10.0104 75.9791 11.6847C75.9791 13.4895 77.1943 14.6093 79.1457 14.6093C79.7357 14.6093 80.5044 14.4897 81.1431 13.9896C81.1431 14.3021 81.3894 14.4707 81.6194 14.4707H82.3854C82.6073 14.4707 82.8428 14.3021 82.8428 13.9923V7.54245C82.8428 5.03101 81.1539 3.90848 79.4786 3.90848H79.4813ZM79.1484 12.9431C78.285 12.9431 77.6815 12.3778 77.6815 11.5678C77.6815 11.1112 77.8087 10.6165 78.7614 10.4018L81.1485 9.85004V10.9372C81.1485 11.9021 80.3853 12.9431 79.1511 12.9431H79.1484Z" fill="#1BAECA"/>
  <path d="M88.4777 3.90848C88.161 3.90848 87.276 3.95197 86.6237 4.40859C86.5696 4.17213 86.3477 4.04438 86.1393 4.04438H85.4112C85.1812 4.04438 84.9349 4.2129 84.9349 4.52275V13.9896C84.9349 14.2994 85.1812 14.4679 85.4112 14.4679H86.1393C86.3801 14.4679 86.6345 14.2994 86.6345 13.9896V7.59953C86.6345 6.22422 87.2029 5.61267 88.475 5.61267C88.7835 5.61267 88.9513 5.35718 88.9513 5.11527V4.38413C88.9513 4.1531 88.7835 3.90576 88.475 3.90576L88.4777 3.90848Z" fill="#1BAECA"/>
  <path d="M96.3914 10.6165H95.704C95.4739 10.6165 95.2276 10.7905 95.2276 11.1139C95.2276 11.7472 94.8758 12.9431 93.5442 12.9431C92.4291 12.9431 91.7633 12.1332 91.7633 10.7796V7.86046C91.7633 6.2813 92.3128 5.57733 93.5442 5.57733C94.8785 5.57733 95.0977 6.61017 95.1329 6.93362C95.1627 7.13475 95.2628 7.23532 95.3413 7.28424C95.4496 7.34947 95.5795 7.36306 95.6986 7.32501L96.451 7.11844C96.7027 7.02331 96.8028 6.83033 96.7487 6.55581C96.4807 4.85162 95.3413 3.91119 93.5442 3.91119C91.9555 3.91119 90.0637 4.5907 90.0637 7.82241V10.7823C90.0637 13.2176 91.333 14.6147 93.5442 14.6147C95.8691 14.6147 96.9273 12.8235 96.9273 11.1574C96.9273 10.8367 96.7135 10.6192 96.3914 10.6192V10.6165Z" fill="#1BAECA"/>
  <path d="M102.616 3.90848C102.135 3.90848 101.377 3.971 100.814 4.3189V0.581641C100.814 0.271788 100.568 0.103271 100.337 0.103271H99.5715C99.3496 0.103271 99.1141 0.271788 99.1141 0.581641V13.995C99.1141 14.3049 99.3604 14.4734 99.5905 14.4734H100.337C100.568 14.4734 100.814 14.3049 100.814 13.995V7.54517C100.814 6.29489 101.471 5.57734 102.616 5.57734C103.829 5.57734 104.262 6.63736 104.262 7.54517V13.995C104.262 14.3049 104.508 14.4734 104.738 14.4734H105.504C105.726 14.4734 105.962 14.3049 105.962 13.995V7.54517C105.962 5.23487 104.744 3.9112 102.616 3.9112V3.90848Z" fill="#1BAECA"/>
  <path d="M115.716 3.90848C114.912 3.90848 114.181 4.19659 113.694 4.69398C113.201 4.183 112.419 3.90848 111.453 3.90848C110.798 3.90848 110.184 4.09602 109.737 4.41403C109.688 4.17484 109.485 4.0471 109.291 4.0471H108.506C108.284 4.0471 108.048 4.21561 108.048 4.52547V13.9923C108.048 14.3021 108.295 14.4707 108.525 14.4707H109.253C109.494 14.4707 109.748 14.3021 109.748 13.9923V7.50168C109.748 6.2215 110.314 5.57462 111.431 5.57462C112.484 5.57462 112.86 6.25412 112.86 6.89013V13.9923C112.86 14.3021 113.107 14.4707 113.337 14.4707H114.046C114.276 14.4707 114.522 14.3021 114.522 13.9923V6.89013C114.522 6.1155 115.012 5.57462 115.716 5.57462C116.796 5.57462 117.342 6.22422 117.342 7.50168V13.9923C117.342 14.3021 117.589 14.4707 117.819 14.4707H118.566C118.796 14.4707 119.042 14.3021 119.042 13.9923V7.50168C119.042 5.18323 117.862 3.90576 115.718 3.90576L115.716 3.90848Z" fill="#1BAECA"/>
  <path d="M124.433 3.90848C122.279 3.90848 120.834 5.3463 120.834 7.48537V11.2716C120.834 13.2068 122.282 14.6093 124.276 14.6093C126.401 14.6093 127.719 13.3291 127.719 11.2716C127.719 11.0731 127.581 10.9264 127.443 10.872C127.41 10.8584 127.375 10.853 127.34 10.853H126.436C126.406 10.853 126.377 10.8584 126.347 10.8693C126.193 10.9209 126.038 11.065 126.038 11.2743C126.038 12.337 125.397 12.9458 124.276 12.9458C123.256 12.9458 122.587 12.299 122.533 11.2743V10.1463L126.826 9.33905C127.386 9.22762 127.719 8.83622 127.719 8.29534V6.83577C127.719 5.16691 126.306 3.9112 124.433 3.9112V3.90848ZM124.336 5.57733C125.391 5.57733 126.019 6.06114 126.019 6.87382V7.78436L122.533 8.44755V7.48537C122.533 6.21878 123.14 5.57733 124.336 5.57733Z" fill="#1BAECA"/>
  <path d="M133.311 3.90848C132.591 3.90848 131.971 4.09058 131.5 4.43033C131.457 4.18028 131.248 4.0471 131.051 4.0471H130.266C130.044 4.0471 129.808 4.21561 129.808 4.52547V13.9923C129.808 14.3021 130.055 14.4707 130.285 14.4707H131.013C131.254 14.4707 131.508 14.3021 131.508 13.9923V7.54245C131.508 6.80859 131.735 5.57462 133.251 5.57462C134.396 5.57462 134.975 6.23781 134.975 7.54245V13.9923C134.975 14.3021 135.221 14.4707 135.451 14.4707H136.198C136.428 14.4707 136.675 14.3021 136.675 13.9923V7.54245C136.675 5.33543 135.354 3.90848 133.311 3.90848Z" fill="#1BAECA"/>
  <path d="M142.147 5.89262C142.456 5.89262 142.624 5.64528 142.624 5.41425V4.68311C142.624 4.46023 142.456 4.22376 142.147 4.22376H140.364V0.975745C140.364 0.665892 140.117 0.497375 139.887 0.497375H139.121C138.899 0.497375 138.664 0.665892 138.664 0.975745V11.1927C138.664 13.4297 139.714 14.4734 141.969 14.4734H142.088C142.396 14.4734 142.564 14.226 142.564 13.995V13.2639C142.564 13.041 142.396 12.8045 142.088 12.8045H141.974C140.767 12.7855 140.364 12.5517 140.364 11.1927V5.89262H142.147Z" fill="#1BAECA"/>
  <path d="M12.0466 46.6055L11.9654 47.0486C11.8598 47.6221 11.3077 48.0026 10.7366 47.8857C8.89892 47.5106 6.87176 46.8801 5.52935 45.0264C3.93793 42.8357 4.28707 40.2427 4.56584 38.1607C4.66598 37.4214 4.82837 36.2037 4.71199 35.8477C4.5902 35.5269 3.79449 34.698 3.31815 34.2006C1.84041 32.6567 0 30.7378 0 27.9383C0 25.1387 1.835 23.228 3.31003 21.6869C3.79178 21.184 4.5902 20.3523 4.71469 20.0234C4.82837 19.6728 4.66598 18.4551 4.56854 17.7294C4.28707 15.6339 3.94064 13.0409 5.53205 10.8474C7.13429 8.63499 9.71086 8.16749 11.7813 7.79241C12.4444 7.67281 13.6759 7.44994 13.9736 7.23793C14.2523 7.02049 14.8099 5.97678 15.1401 5.35435C16.1415 3.47349 17.3837 1.13601 20.0009 0.282553C20.5828 0.0922921 21.1972 -0.00283813 21.8332 -0.00283813C23.6709 -0.00283813 25.3056 0.785384 26.7455 1.48391C27.4708 1.83453 28.548 2.35367 28.9485 2.35367C29.3491 2.35367 30.4804 1.81007 31.1516 1.48391C32.5942 0.788102 34.2262 -0.00283813 36.0639 -0.00283813C36.6972 -0.00283813 37.3143 0.0950101 37.8962 0.282553C40.5134 1.13601 41.7556 3.47077 42.7543 5.34892C43.0304 5.86534 43.3119 6.33555 43.5798 6.72151C43.8748 7.14552 43.8153 7.71902 43.4418 8.07508L42.776 8.70837C42.3105 9.15141 41.5689 9.06715 41.1981 8.54258C40.7678 7.93374 40.3916 7.28414 40.1155 6.765C39.2927 5.21845 38.4402 3.62027 36.9733 3.1419C36.6891 3.04948 36.3833 3.00056 36.0639 3.00056C34.9082 3.00056 33.7147 3.57678 32.448 4.18833C31.2626 4.76183 30.0366 5.35435 28.9485 5.35435C27.8605 5.35435 26.6453 4.76455 25.4626 4.19648C24.1824 3.57678 22.9889 3.00056 21.8332 3.00056C21.5138 3.00056 21.208 3.04677 20.9265 3.13918C19.4542 3.62027 18.6044 5.21845 17.7816 6.765C17.1483 7.95277 16.5556 9.06715 15.7328 9.66783C14.8911 10.2821 13.6407 10.5077 12.3145 10.7496C10.6094 11.0594 8.84749 11.3775 7.95165 12.6141C7.06663 13.8345 7.3048 15.604 7.53214 17.3136C7.71618 18.6753 7.88669 19.9473 7.55921 20.9557C7.25067 21.907 6.3873 22.8067 5.47522 23.7607C4.25459 25.0354 2.99608 26.351 2.99608 27.9356C2.99608 29.5202 4.2573 30.8384 5.47792 32.1131C6.39001 33.0672 7.25338 33.9668 7.56192 34.9154C7.8894 35.9238 7.71889 37.1985 7.53756 38.5494C7.30751 40.2699 7.06934 42.0393 7.95436 43.257C8.67428 44.2517 9.94903 44.6513 11.305 44.9313C11.8625 45.0454 12.2306 45.5809 12.1305 46.1435L12.052 46.6028L12.0466 46.6055Z" fill="#1BAECA"/>
  <path d="M55.2014 9.21404C54.8469 9.00476 54.2434 8.84711 53.3827 9.31733L47.2417 12.6768C46.9034 12.8616 46.7789 13.2856 46.9629 13.6226L47.266 14.1853C47.4501 14.525 47.8723 14.6501 48.2079 14.4652L53.9213 11.3395V57.4559L42.9519 49.3508V15.6639C42.9519 14.5522 42.0533 13.6498 40.9464 13.6498H19.4894C18.3824 13.6498 17.4839 14.5522 17.4839 15.6639V47.3477C17.4839 47.7336 17.7951 48.0462 18.1795 48.0462H18.8155C19.1998 48.0462 19.511 47.7336 19.511 47.3477L19.4921 15.6829L40.9274 15.6612V49.3454C40.9274 49.9515 41.1954 50.5196 41.7042 50.9382L53.0444 59.3259C53.3719 59.595 53.767 59.7309 54.1676 59.7309C54.4274 59.7309 54.6899 59.6738 54.9335 59.557C55.5614 59.258 55.9511 58.6383 55.9511 57.9425V10.6573C55.9511 10.0322 55.6724 9.494 55.2014 9.21132V9.21404Z" fill="#067A91"/>
</svg>
