<svg xmlns="http://www.w3.org/2000/svg" width="226" height="60" viewBox="0 0 226 60" fill="none">
  <path d="M63.2816 5.04901C62.6698 5.04901 61.9164 5.29144 61.4044 5.66963V5.65347C61.4044 5.34963 61.163 5.18477 60.9376 5.18477H60.1874C59.9716 5.18477 59.7398 5.34963 59.7398 5.65347V18.9969C59.7398 19.3007 59.9813 19.4656 60.2067 19.4656H60.9569C61.1726 19.4656 61.4044 19.3007 61.4044 18.9969V14.9079C61.9099 15.3054 62.5603 15.5123 63.3202 15.5123C65.0814 15.5123 66.5142 13.909 66.5142 11.9405V8.60466C66.5142 6.41309 65.2746 5.05224 63.2816 5.05224V5.04901ZM64.8496 8.60143V11.9373C64.8496 13.0072 64.1026 13.88 63.185 13.88C62.0162 13.88 61.4044 12.8941 61.4044 11.9179V8.60143C61.4044 7.47009 62.1128 6.67815 63.127 6.67815C64.5502 6.67815 64.8496 7.72545 64.8496 8.60143Z" fill="#1BAECA"/>
  <path d="M71.5017 5.04901C69.6213 5.04901 68.3076 6.28702 68.3076 8.06162C68.3076 8.25556 68.4429 8.39779 68.5749 8.45274C68.6071 8.46567 68.6425 8.47213 68.6779 8.47213H69.5988C69.6277 8.47213 69.6567 8.46567 69.6857 8.4592C69.837 8.40749 69.9884 8.26849 69.9884 8.06485C69.9884 7.18563 70.5389 6.68138 71.5017 6.68138C72.4644 6.68138 73.0761 7.33756 73.1276 8.29758V9.14124L70.5518 9.74894C68.7938 10.1788 68.0758 11.0225 68.0758 12.6581C68.0758 14.4198 69.2639 15.5156 71.1732 15.5156C71.7496 15.5156 72.4998 15.3992 73.1276 14.9111C73.1276 15.2182 73.3691 15.383 73.5945 15.383H74.3447C74.5604 15.383 74.7923 15.2182 74.7923 14.9143V8.60789C74.7923 6.1545 73.1405 5.05548 71.5017 5.05548V5.04901ZM71.1732 13.88C70.3297 13.88 69.7372 13.3272 69.7372 12.5353C69.7372 12.0892 69.8628 11.6043 70.7933 11.3975L73.1276 10.8577V11.9211C73.1276 12.865 72.3807 13.8832 71.1732 13.8832V13.88Z" fill="#1BAECA"/>
  <path d="M80.2949 5.04901C79.9858 5.04901 79.1196 5.09103 78.4821 5.54034C78.4274 5.3076 78.2149 5.18477 78.0088 5.18477H77.2973C77.0719 5.18477 76.8304 5.34962 76.8304 5.65347V14.9079C76.8304 15.2117 77.0719 15.3766 77.2973 15.3766H78.0088C78.2439 15.3766 78.495 15.2117 78.495 14.9079V8.65961C78.495 7.31493 79.0488 6.71693 80.2949 6.71693C80.5975 6.71693 80.7617 6.4648 80.7617 6.22884V5.51448C80.7617 5.28821 80.5975 5.04578 80.2949 5.04578V5.04901Z" fill="#1BAECA"/>
  <path d="M88.032 11.6043H87.3591C87.1337 11.6043 86.8922 11.7757 86.8922 12.0924C86.8922 12.7098 86.5477 13.88 85.2469 13.88C84.1554 13.88 83.505 13.088 83.505 11.7627V8.90851C83.505 7.36341 84.0427 6.67814 85.2469 6.67814C86.5509 6.67814 86.7666 7.68666 86.7988 8.00343C86.8278 8.20061 86.9244 8.29758 87.0017 8.34607C87.1079 8.41072 87.2335 8.42365 87.3526 8.38486L88.0867 8.18445C88.3347 8.09071 88.4313 7.90323 88.3765 7.63171C88.1125 5.96378 87.0017 5.04578 85.2437 5.04578C83.6917 5.04578 81.8404 5.70842 81.8404 8.86972V11.7627C81.8404 14.1418 83.08 15.5091 85.2437 15.5091C87.5168 15.5091 88.5536 13.7571 88.5536 12.1312C88.5536 11.8177 88.3443 11.6043 88.0288 11.6043H88.032Z" fill="#1BAECA"/>
  <path d="M94.1206 5.04902C93.6505 5.04902 92.9068 5.11044 92.3594 5.44984V1.79399C92.3594 1.49014 92.1211 1.32529 91.8925 1.32529H91.1423C90.9266 1.32529 90.6948 1.49014 90.6948 1.79399V14.9046C90.6948 15.2085 90.9363 15.3733 91.1616 15.3733H91.8925C92.1179 15.3733 92.3594 15.2085 92.3594 14.9046V8.59821C92.3594 7.37636 93.0001 6.67493 94.1206 6.67493C95.3087 6.67493 95.7273 7.71253 95.7273 8.59821V14.9046C95.7273 15.2085 95.9688 15.3733 96.1942 15.3733H96.9444C97.1601 15.3733 97.3919 15.2085 97.3919 14.9046V8.59821C97.3919 6.33876 96.2006 5.04579 94.1206 5.04579V5.04902Z" fill="#1BAECA"/>
  <path d="M106.929 5.04901C106.143 5.04901 105.428 5.33023 104.952 5.81832C104.469 5.32053 103.706 5.04901 102.759 5.04901C102.119 5.04901 101.52 5.23326 101.082 5.54357C101.033 5.3076 100.834 5.18477 100.647 5.18477H99.8776C99.6619 5.18477 99.43 5.34963 99.43 5.65347V14.9079C99.43 15.2117 99.6715 15.3766 99.8969 15.3766H100.608C100.844 15.3766 101.095 15.2117 101.095 14.9079V8.56264C101.095 7.3117 101.648 6.67815 102.74 6.67815C103.77 6.67815 104.137 7.34402 104.137 7.96465V14.9079C104.137 15.2117 104.376 15.3766 104.604 15.3766H105.296C105.522 15.3766 105.763 15.2117 105.763 14.9079V7.96465C105.763 7.20826 106.243 6.67815 106.929 6.67815C107.985 6.67815 108.519 7.3117 108.519 8.56264V14.9079C108.519 15.2117 108.761 15.3766 108.986 15.3766H109.717C109.943 15.3766 110.184 15.2117 110.184 14.9079V8.56264C110.184 6.29672 109.031 5.04901 106.932 5.04901H106.929Z" fill="#1BAECA"/>
  <path d="M115.455 5.04901C113.349 5.04901 111.936 6.45511 111.936 8.54325V12.2444C111.936 14.1353 113.352 15.5091 115.3 15.5091C117.377 15.5091 118.668 14.2581 118.668 12.2444C118.668 12.0504 118.533 11.9082 118.401 11.8532C118.369 11.8403 118.333 11.8338 118.298 11.8338H117.416C117.387 11.8338 117.358 11.8403 117.329 11.85C117.177 11.9017 117.026 12.0407 117.026 12.2444C117.026 13.282 116.398 13.8767 115.304 13.8767C114.305 13.8767 113.652 13.2464 113.6 12.2444V11.1421L117.796 10.3534C118.343 10.2435 118.668 9.86207 118.668 9.33196V7.90646C118.668 6.27733 117.287 5.04901 115.455 5.04901ZM115.358 6.67815C116.389 6.67815 117.004 7.15331 117.004 7.94525V8.83416L113.597 9.48065V8.54001C113.597 7.302 114.19 6.67491 115.358 6.67491V6.67815Z" fill="#1BAECA"/>
  <path d="M124.132 5.04901C123.43 5.04901 122.822 5.22679 122.365 5.55973C122.323 5.31407 122.12 5.18477 121.923 5.18477H121.154C120.938 5.18477 120.706 5.34963 120.706 5.65347V14.9079C120.706 15.2117 120.948 15.3766 121.173 15.3766H121.885C122.12 15.3766 122.371 15.2117 122.371 14.9079V8.60143C122.371 7.88384 122.593 6.67815 124.074 6.67815C125.192 6.67815 125.758 7.32463 125.758 8.60143V14.9079C125.758 15.2117 125.996 15.3766 126.225 15.3766H126.956C127.181 15.3766 127.423 15.2117 127.423 14.9079V8.60143C127.423 6.44218 126.132 5.04901 124.132 5.04901Z" fill="#1BAECA"/>
  <path d="M132.774 6.98846C133.077 6.98846 133.241 6.74603 133.241 6.51976V5.8054C133.241 5.58882 133.077 5.35609 132.774 5.35609H131.032V2.18186C131.032 1.87802 130.791 1.71317 130.565 1.71317H129.815C129.599 1.71317 129.368 1.87802 129.368 2.18186V12.17C129.368 14.3584 130.395 15.3766 132.6 15.3766H132.716C133.019 15.3766 133.183 15.1341 133.183 14.9079V14.1935C133.183 13.9769 133.019 13.7442 132.716 13.7442H132.607C131.425 13.728 131.032 13.4953 131.032 12.17V6.98846H132.774Z" fill="#1BAECA"/>
  <path d="M217.899 21.6022C217.847 21.6022 217.805 21.5861 217.776 21.557C217.744 21.5247 217.731 21.4859 217.731 21.4342V16.7148H216.224C216.173 16.7148 216.134 16.6987 216.102 16.6696C216.073 16.6373 216.057 16.5985 216.057 16.5467V16.4336C216.057 16.3787 216.073 16.3334 216.102 16.3043C216.134 16.272 216.173 16.2591 216.224 16.2591H219.708C219.763 16.2591 219.808 16.2752 219.837 16.3043C219.866 16.3366 219.882 16.3787 219.882 16.4336V16.5467C219.882 16.5985 219.866 16.6373 219.837 16.6696C219.805 16.7019 219.763 16.7148 219.708 16.7148H218.211V21.4342C218.211 21.4859 218.195 21.5247 218.166 21.557C218.137 21.5893 218.092 21.6022 218.037 21.6022H217.902H217.899Z" fill="#067A91"/>
  <path d="M221.054 21.6022C221.003 21.6022 220.961 21.586 220.928 21.557C220.896 21.5246 220.88 21.4858 220.88 21.4341V16.4303C220.88 16.3754 220.896 16.3301 220.928 16.3011C220.961 16.2687 221.003 16.2558 221.054 16.2558H221.244C221.296 16.2558 221.334 16.2687 221.357 16.2946C221.382 16.3204 221.399 16.3398 221.402 16.356L223.128 19.7306L224.863 16.356C224.863 16.356 224.889 16.3204 224.911 16.2946C224.934 16.2687 224.969 16.2558 225.021 16.2558H225.204C225.259 16.2558 225.304 16.272 225.333 16.3011C225.362 16.3334 225.378 16.3754 225.378 16.4303V21.4341C225.378 21.4858 225.362 21.5246 225.333 21.557C225.301 21.5893 225.259 21.6022 225.204 21.6022H225.069C225.018 21.6022 224.979 21.586 224.947 21.557C224.915 21.5279 224.902 21.4858 224.902 21.4341V17.2934L223.45 20.1638C223.43 20.2155 223.401 20.2543 223.363 20.2769C223.324 20.2995 223.276 20.3157 223.214 20.3157H223.047C222.986 20.3157 222.938 20.3028 222.902 20.2769C222.867 20.2511 222.838 20.2123 222.812 20.1638L221.36 17.2934V21.4341C221.36 21.4858 221.344 21.5246 221.315 21.557C221.286 21.5893 221.244 21.6022 221.192 21.6022H221.054Z" fill="#067A91"/>
  <path d="M67.5027 29.3891C63.5681 29.3891 63.0079 32.1075 63.0079 33.0837C63.0079 34.1601 63.4168 35.4434 64.8979 36.2127C67.4029 37.5477 68.5266 38.2136 71.0799 39.6003C74.7086 41.6011 75.2173 44.1644 75.2173 46.2687C75.2173 49.8599 72.4579 52.8855 67.7055 52.8855C61.4721 52.8855 59.376 47.8591 59.376 45.1406C59.376 44.6267 59.8364 44.6267 59.8364 44.6267H61.881C61.881 44.6267 62.3929 44.6267 62.3929 45.1406C62.3929 47.8591 64.4375 50.0119 67.8086 50.0119C70.1075 50.0119 72.3034 48.4732 72.3034 46.2687C72.3034 44.9855 72.049 43.4985 69.338 42.0634L63.7678 39.0895C61.0599 37.6543 60.0875 35.0361 60.0875 33.1904C60.0875 30.6271 61.8262 26.5219 67.4963 26.5219C71.2763 26.5219 74.5476 28.4194 74.8052 32.5762C74.8052 32.8316 74.8567 33.087 74.3962 33.1904L72.5578 33.5007C72.2004 33.5492 72.0458 33.3973 71.9943 33.0385C71.7882 31.3447 70.9736 29.3955 67.4963 29.3955L67.5027 29.3891Z" fill="#067A91"/>
  <path d="M97.4949 44.9305C97.4949 50.0603 94.1206 52.8822 89.2684 52.8822C84.4162 52.8822 81.0419 49.4947 81.0419 44.9305V35.0814C81.0419 30.1584 84.3132 26.5155 89.6773 26.5155C94.1238 26.5155 97.4949 29.4925 97.4949 33.3908V37.1857C97.4949 38.0584 97.0345 38.9279 95.7563 39.1865L84.0041 41.3943V44.9337C84.1554 47.8074 85.9971 50.0119 89.2652 50.0119C92.5333 50.0119 94.581 48.0627 94.581 44.9337C94.581 44.6784 94.8869 44.5749 94.8869 44.5749H97.2374C97.2374 44.5749 97.4949 44.6784 97.4949 44.9337V44.9305ZM94.5295 33.4942C94.5295 30.8243 92.4335 29.3891 89.4197 29.3891C85.4337 29.3891 84.0041 31.9556 84.0041 35.0846V38.4722L94.5295 36.4713V33.4975V33.4942Z" fill="#067A91"/>
  <path d="M107.351 35.3917V52.0127C107.351 52.5267 106.787 52.5267 106.787 52.5267H104.897C104.897 52.5267 104.385 52.5267 104.385 52.0127V27.3914C104.385 26.8775 104.897 26.8775 104.897 26.8775H106.787C106.787 26.8775 107.351 26.8775 107.351 27.3914V28.8784C108.423 27.0326 111.031 26.5187 112.869 26.5187C113.381 26.5187 113.381 27.0326 113.381 27.0326V28.9301C113.381 28.9301 113.381 29.4957 112.869 29.4957C109.038 29.4957 107.351 31.5483 107.351 35.3949V35.3917Z" fill="#067A91"/>
  <path d="M124.515 52.5234C124.515 52.5234 124.106 52.5234 124.003 52.0095L116.901 27.3882C116.698 26.8743 117.258 26.8743 117.258 26.8743H119.454C119.454 26.8743 119.863 26.8743 119.966 27.3882L125.639 47.9076L131.209 27.3882C131.309 26.8743 131.721 26.8743 131.721 26.8743H133.917C133.917 26.8743 134.481 26.8743 134.275 27.3882L127.275 52.0095C127.172 52.5234 126.763 52.5234 126.763 52.5234H124.515Z" fill="#067A91"/>
  <path d="M143.264 20.4612C143.264 20.9751 142.804 20.9751 142.804 20.9751H140.147C140.147 20.9751 139.635 20.9751 139.635 20.4612V17.1253C139.635 16.6146 140.096 16.6146 140.096 16.6146H142.752C142.752 16.6146 143.264 16.6146 143.264 17.1253V20.4612ZM139.945 27.3882C139.945 26.8743 140.405 26.8743 140.405 26.8743H142.398C142.398 26.8743 142.91 26.8743 142.91 27.3882V52.0095C142.91 52.5234 142.45 52.5234 142.45 52.5234H140.456C140.456 52.5234 139.945 52.5234 139.945 52.0095V27.3882Z" fill="#067A91"/>
  <path d="M164.367 43.9576H166.154C166.562 43.9576 166.817 44.1644 166.817 44.6234C166.817 48.6252 164.363 52.8822 158.742 52.8822C153.735 52.8822 150.412 50.0086 150.412 43.6505V35.9541C150.412 29.1822 153.735 26.5155 158.742 26.5155C161.707 26.5155 165.539 27.5919 166.356 32.7734C166.408 33.032 166.459 33.2874 166.047 33.4393L164.157 33.9532C163.851 34.0535 163.649 33.9015 163.597 33.5427C163.391 31.697 162.116 29.3891 158.742 29.3891C155.061 29.3891 153.377 31.5968 153.377 36.0575V43.6505C153.377 47.2934 155.216 50.0119 158.742 50.0119C162.267 50.0119 163.851 46.9346 163.851 44.5232C163.851 43.9576 164.363 43.9576 164.363 43.9576H164.367Z" fill="#067A91"/>
  <path d="M189.909 44.9305C189.909 50.0603 186.535 52.8822 181.683 52.8822C176.83 52.8822 173.456 49.4947 173.456 44.9305V35.0814C173.456 30.1584 176.727 26.5155 182.091 26.5155C186.538 26.5155 189.909 29.4925 189.909 33.3908V37.1857C189.909 38.0584 189.449 38.9279 188.17 39.1865L176.418 41.3943V44.9337C176.57 47.8074 178.411 50.0119 181.679 50.0119C184.947 50.0119 186.995 48.0627 186.995 44.9337C186.995 44.6784 187.301 44.5749 187.301 44.5749H189.652C189.652 44.5749 189.909 44.6784 189.909 44.9337V44.9305ZM186.947 33.4942C186.947 30.8243 184.851 29.3891 181.837 29.3891C177.851 29.3891 176.421 31.9556 176.421 35.0846V38.4722L186.947 36.4713V33.4975V33.4942Z" fill="#067A91"/>
  <path d="M204.263 29.3891C200.328 29.3891 199.768 32.1075 199.768 33.0837C199.768 34.1601 200.177 35.4434 201.658 36.2127C204.163 37.5477 205.287 38.2136 207.84 39.6003C211.469 41.6011 211.977 44.1644 211.977 46.2687C211.977 49.8599 209.218 52.8855 204.466 52.8855C198.232 52.8855 196.136 47.8591 196.136 45.1406C196.136 44.6267 196.597 44.6267 196.597 44.6267H198.641C198.641 44.6267 199.153 44.6267 199.153 45.1406C199.153 47.8591 201.198 50.0119 204.569 50.0119C206.868 50.0119 209.064 48.4732 209.064 46.2687C209.064 44.9855 208.809 43.4985 206.098 42.0634L200.528 39.0895C197.82 37.6543 196.848 35.0361 196.848 33.1904C196.848 30.6271 198.586 26.5219 204.256 26.5219C208.036 26.5219 211.308 28.4194 211.565 32.5762C211.565 32.8316 211.617 33.087 211.156 33.1904L209.318 33.5007C208.961 33.5492 208.806 33.3973 208.754 33.0385C208.548 31.3447 207.734 29.3955 204.256 29.3955L204.263 29.3891Z" fill="#067A91"/>
  <path d="M24.4414 28.1898C24.4414 28.8008 23.9133 29.2727 23.308 29.221C20.0786 28.9495 17.2612 27.511 14.9269 24.9316C12.3543 22.0871 11.0503 18.6219 11.0503 14.6331C11.0503 10.6443 12.3543 7.18242 14.9237 4.33789C17.5317 1.45782 20.7354 0 24.4414 0C28.1473 0 31.3478 1.45782 33.9526 4.33466C36.5252 7.17595 37.8292 10.6411 37.8292 14.6331C37.8292 17.7168 37.0661 20.2704 35.4433 22.5752C35.0924 23.0729 34.4001 23.1796 33.93 22.7917L33.241 22.2196C32.8321 21.8802 32.7452 21.2822 33.0511 20.8458C34.3261 19.0389 34.8799 17.1285 34.8799 14.6331C34.8799 11.3555 33.8624 8.637 31.7696 6.32583C29.7186 4.05991 27.3198 2.95766 24.4414 2.95766C21.5629 2.95766 19.1609 4.05991 17.1099 6.32583C15.0171 8.64023 13.9996 11.3587 13.9996 14.6331C13.9996 17.9076 15.0171 20.626 17.1099 22.9404C18.942 24.9639 21.0509 26.0597 23.5366 26.2698C24.055 26.3151 24.4414 26.7708 24.4414 27.2912V28.1898Z" fill="#1BAECA"/>
  <path d="M24.4188 60C15.4517 59.8287 8.05911 58.1834 6.05963 57.4561C4.7363 56.9745 3.65123 56.3183 2.74003 55.4455C0.920857 53.7065 0 51.3307 0 48.3827C0 47.19 0.0386374 46.0037 0.119132 44.8562C0.199626 43.699 0.360615 42.4351 0.598879 41.1001C0.837143 39.7716 1.14624 38.5077 1.5133 37.344C1.87713 36.1965 2.56616 34.9294 3.4516 33.7787C5.34805 31.3156 7.51497 29.5636 10.0618 28.442C10.416 28.2868 10.8313 28.4711 10.9698 28.8331L11.1984 29.4214C11.3336 29.7673 11.163 30.1487 10.8249 30.2974C8.60647 31.2833 6.70358 32.8284 5.03252 35.007C4.29841 35.9638 3.70919 37.037 3.41619 37.955C3.07489 39.0346 2.78511 40.2112 2.56294 41.4524C2.33756 42.7163 2.18623 43.9058 2.11218 44.9919C2.0349 46.0942 1.99948 47.232 1.99948 48.3795C1.99948 50.7909 2.69496 52.6269 4.12132 53.991C4.82645 54.6698 5.68291 55.1837 6.739 55.5684C7.9432 56.0047 14.885 57.8084 24.422 57.9894C33.959 57.8181 40.9298 56.008 42.1437 55.5684C43.1998 55.1837 44.0563 54.6698 44.7614 53.9942C46.191 52.6269 46.8864 50.7909 46.8864 48.3827C46.8864 47.2384 46.8478 46.0974 46.7737 44.9952C46.6997 43.9091 46.5451 42.7195 46.323 41.4557C46.1008 40.2144 45.8143 39.0378 45.4697 37.9582C45.1767 37.037 44.5875 35.9638 43.8534 35.0102C40.7206 30.9374 37.2496 29.7188 34.4452 29.2113C34.0846 29.1466 33.8463 28.7975 33.9011 28.4355L33.9944 27.8149C34.0524 27.4302 34.4162 27.1716 34.7962 27.2395C37.7809 27.7826 41.8668 29.1466 45.4343 33.7852C46.3165 34.9327 47.0056 36.1965 47.3726 37.3473C47.7429 38.5109 48.052 39.7748 48.287 41.1033C48.5253 42.4383 48.6863 43.699 48.7668 44.8562C48.8441 46.0037 48.8859 47.19 48.8859 48.3827C48.8859 51.3307 47.9618 53.7065 46.1427 55.4455C45.2347 56.3151 44.1496 56.9745 42.8263 57.4561C40.8139 58.1866 33.3891 59.8384 24.4253 60H24.4188Z" fill="#067A91"/>
</svg>
