<svg xmlns="http://www.w3.org/2000/svg" version="1.1" x="0px" y="0px" viewBox="0 0 107.2 116.6" style="enable-background:new 0 0 107.2 116.6;">
  <path fill="#1BAECB" d="M42.8,69.8C42.8,69.8,42.8,69.8,42.8,69.8c-1.6-4.6-6-7.9-11.7-7.9c-5.9,0-10.1,3.4-11.7,7.9c0,0,0,0,0.1,0    c-0.1,0.2-0.2,0.5-0.2,0.8c0,1.1,0.9,1.9,1.9,1.9c0.6,0,1.2-0.3,1.5-0.8c0,0,0,0,0,0c2.1-1.8,4.9-3,8.4-3c3.4,0,6.2,1.2,8.4,3    c0,0,0,0,0,0c0.3,0.5,0.9,0.8,1.6,0.8c1.1,0,1.9-0.9,1.9-1.9C43,70.3,42.9,70.1,42.8,69.8z"/>
  <path fill="#1BAECB" d="M85.4,69.8C85.4,69.8,85.4,69.8,85.4,69.8c-1.6-4.6-6-7.9-11.7-7.9c-5.9,0-10.1,3.4-11.7,7.9c0,0,0,0,0.1,0    c-0.1,0.2-0.2,0.5-0.2,0.8c0,1.1,0.9,1.9,1.9,1.9c0.6,0,1.2-0.3,1.5-0.8c0,0,0,0,0,0c2.1-1.8,4.9-3,8.4-3c3.4,0,6.2,1.2,8.4,3    c0,0,0,0,0,0c0.3,0.5,0.9,0.8,1.6,0.8c1.1,0,1.9-0.9,1.9-1.9C85.6,70.3,85.5,70.1,85.4,69.8z"/>
  <path fill="#0491AC" d="M102.9,8.5c-0.3,0-0.6,0-0.8-0.1c-0.3-0.1-0.5-0.1-0.8-0.2c-0.3-0.1-0.5-0.2-0.7-0.4    c-0.2-0.2-0.5-0.3-0.6-0.5c-0.8-0.8-1.3-1.9-1.3-3c0-1.1,0.5-2.2,1.3-3c0.2-0.2,0.4-0.4,0.6-0.5c0.2-0.2,0.5-0.3,0.7-0.4    c0.3-0.1,0.5-0.2,0.8-0.2c1.4-0.3,2.9,0.2,3.9,1.2c0.8,0.8,1.3,1.9,1.3,3c0,1.1-0.5,2.2-1.3,3C105.1,8.1,104,8.5,102.9,8.5z"/>
  <path fill="#0491AC" d="M102.7,60.7c-1.2,0-2.2,1-2.2,2.2v6.7v1.5v37c0,2.3-1.9,4.2-4.2,4.2H8.5c-2.3,0-4.2-1.9-4.2-4.2v-71   c0-2.3,1.9-4.2,4.2-4.2h82.1c1.2,0,2.2-1,2.2-2.2s-1-2.2-2.2-2.2H8.5c-4.7,0-8.5,3.8-8.5,8.5v71c0,4.7,3.8,8.5,8.5,8.5h87.8   c4.7,0,8.5-3.8,8.5-8.5v-37v-1.5v-6.7C104.8,61.7,103.9,60.7,102.7,60.7z"/>
  <path fill="#0491AC" d="M102.6,53.5c-1.2,0-2.2-1-2.2-2.2V16.7c0-1.2,1-2.2,2.2-2.2c1.2,0,2.2,1,2.2,2.2v34.6    C104.8,52.5,103.8,53.5,102.6,53.5z"/>
</svg>
