<svg xmlns="http://www.w3.org/2000/svg" version="1.1" x="0px" y="0px" viewBox="0 0 457.2 85.7" style="enable-background:new 0 0 457.2 85.7;">
  <path fill="#FFFFFF" d="M136.5,38.6V54c0,4,2.8,6.9,7.2,6.9c3.6,0,6.1-2.1,6.1-6.9V38.6c0-4.2-1.8-7.2-6.4-7.2    C138.3,31.4,136.5,35.1,136.5,38.6 M134.3,24.8c1.3,0,2.3,1,2.3,2.5v0.5c1.2-1.8,4.3-3.6,7.9-3.6c8,0,13.1,5,13.1,15v14.4    c0,8.2-5.3,14.5-12.7,14.5c-3.2,0-6.9-1.4-8.4-3.8v18.9c0,1.5-1,2.5-2.3,2.5h-3c-1.3,0-2.3-1-2.3-2.5V27.3c0-1.5,1-2.5,2.3-2.5    H134.3z"/>
  <path fill="#FFFFFF" d="M172.6,55.5c0,2.7,2.2,5.5,5.5,5.5c4.5,0,7.5-4.2,7.5-8.1v-4.3l-9,2.1C173.2,51.5,172.6,53.9,172.6,55.5     M193.4,39.3v25.7c0,1.4-1,2.5-2.3,2.5h-3c-1.3,0-2.3-1-2.3-2.5v-0.8c-1.5,2.3-5.2,3.8-8.5,3.8c-6.7,0-12.4-5.4-12.4-12.3    c0-6.7,2.6-10.3,10.6-12.3l10.2-2.5v-3.6c0-3.6-2.7-6.1-6.2-6.1c-3.9,0-5.7,2-5.7,4.4c0,1.5-1,2.5-2.3,2.5h-3.2    c-1.3,0-2.3-0.9-2.3-2.5c0-7.1,5.7-11.6,13.5-11.6C186.8,24.2,193.4,29.1,193.4,39.3"/>
  <path fill="#FFFFFF" d="M221.5,26.5V29c0,1.3-1,2.4-2.5,2.4c-7.7,0-9.1,3.8-9.1,7.2v26.5c0,1.4-1,2.5-2.3,2.5h-3.2    c-1.3,0-2.3-1-2.3-2.5V27.3c0-1.5,1-2.5,2.3-2.5h3.2c1.3,0,2.3,1,2.3,2.5v0.5c2.7-2.6,4-3.6,9.1-3.6    C220.5,24.2,221.5,25.2,221.5,26.5"/>
  <path fill="#FFFFFF" d="M253.7,34.4c0.2,1.1,0.3,2.1-1.8,2.7l-2.9,0.7c-1,0.3-2.5,0.3-2.9-1.9c-0.5-2.6-2-4.5-5.9-4.5    c-4.5,0-6.7,2.6-6.7,8.8v12.7c0,5.6,2.4,8.1,6.7,8.1c4.5,0,6.5-3.3,6.5-6.2c0-2.6,2.5-2.6,2.5-2.6h2.6c1.6,0,2.7,0.8,2.7,2.7    c0,10.2-8.4,13.3-14.3,13.3c-9.4,0-14.4-5.2-14.4-15.3V40.2c0-11.7,7.5-16,14.4-16C245.8,24.2,252.2,26.5,253.7,34.4"/>
  <path fill="#FFFFFF" d="M267.5,7.8c1.3,0,2.3,1,2.3,2.5v17.6c0.3-0.9,2.6-3.6,8-3.6c8,0,12.7,5,12.7,15v25.9c0,1.5-1,2.5-2.3,2.5    h-3.2c-1.3,0-2.3-1-2.3-2.5V38.7c0-4.2-1.5-7.2-6.1-7.2c-5.1,0-6.8,3.8-6.8,7.2v26.5c0,1.5-1,2.5-2.3,2.5h-3.2    c-1.3,0-2.3-1-2.3-2.5V10.3c0-1.4,1-2.5,2.3-2.5H267.5z"/>
  <path fill="#FFFFFF" d="M305,24.9c1.3,0,2.3,1,2.3,2.5V28c2.1-3.4,6.2-3.7,7.9-3.7c2.4,0,5.4,0.9,7.5,4.1c2.2-3.4,6.5-4.1,9.2-4.1    c6.8,0,12.7,3,12.7,15v25.9c0,2.5-2.4,2.5-2.4,2.5h-2.9c0,0-2.5,0-2.5-2.5V39.3c0-4.2-0.7-7.8-5-7.8c-2.4,0-5.3,2.5-5.3,5.3v28.4    c0,2.5-2.4,2.5-2.4,2.5h-3c0,0-2.4,0-2.4-2.5V36.8c0-2.3-1.2-5.3-4.9-5.3c-5,0-6.7,4.4-6.7,7.8v25.9c0,2.5-2.5,2.5-2.5,2.5h-2.9    c0,0-2.4,0-2.4-2.5V27.4c0-1.5,1-2.5,2.3-2.5H305z"/>
  <path fill="#FFFFFF" d="M361,38.6v4.3l13.2-2.6v-3.7c0-3.4-2.6-5.1-6.4-5.1C362.8,31.5,361,34.7,361,38.6 M381.9,36.6v5.7    c0,2.1-1.1,4.2-4.1,4.7L361,50.2v4.2c0.1,3.6,2.6,6.7,6.6,6.7c5,0,6.6-3.2,6.6-6.5c0-2.6,2.5-2.6,2.5-2.6h2.6    c1.6,0,2.6,0.8,2.6,2.7c0,7.5-5.5,13.6-14.4,13.6c-8.5,0-14.4-5.9-14.4-13.9V39.3c0-8.6,5.3-15,15-15    C375.9,24.3,381.9,29,381.9,36.6"/>
  <path fill="#FFFFFF" d="M395.8,24.9c1.3,0,2.3,1,2.3,2.5v0.5c0.8-1.2,3.8-3.6,7.9-3.6c8,0,12.7,5,12.7,15v25.9c0,1.5-1,2.5-2.3,2.5    h-3.2c-1.3,0-2.3-1-2.3-2.5V38.7c0-4.2-1.5-7.2-6.1-7.2c-5,0-6.8,3.8-6.8,7.2v26.5c0,1.5-1,2.5-2.3,2.5h-3.2c-1.3,0-2.3-1-2.3-2.5    V27.4c0-1.5,1-2.5,2.3-2.5H395.8z"/>
  <path fill="#FFFFFF" d="M427.3,25.7V11.9c0-2.4,2.4-2.4,2.4-2.4h2.9c0,0,2.5,0,2.5,2.4v13.8h6.6c2.5,0,2.5,2.4,2.5,2.4v2.3    c0,0,0,2.5-2.5,2.5h-6.6V54c0,5,2.4,6.5,5.9,6.5h1.4c2.4,0,2.4,2.3,2.4,2.3v2.4c0,0,0,2.5-2.4,2.5H441c-8.9,0-13.7-3.6-13.7-13.7    V32.9V25.7z"/>
  <path fill="#FFFFFF" d="M452.1,29.1h0.4c0.5,0,0.8-0.2,0.8-0.5c0-0.3-0.2-0.5-0.8-0.5c-0.2,0-0.4,0-0.5,0V29.1z M452.1,31.1h-0.8    v-3.6c0.3,0,0.8-0.1,1.4-0.1c0.7,0,1,0.1,1.2,0.3c0.2,0.2,0.4,0.4,0.4,0.8c0,0.4-0.3,0.7-0.7,0.9v0c0.4,0.1,0.5,0.4,0.6,0.9    c0.1,0.6,0.2,0.7,0.3,0.9h-0.9c-0.1-0.1-0.2-0.4-0.3-0.9c-0.1-0.4-0.3-0.5-0.7-0.5h-0.4V31.1z M449.8,29.3c0,1.6,1.2,2.9,2.8,2.9    c1.6,0,2.7-1.3,2.7-2.8c0-1.6-1.2-2.9-2.8-2.9C451.1,26.4,449.8,27.7,449.8,29.3 M456.3,29.3c0,2-1.6,3.6-3.7,3.6    c-2.1,0-3.7-1.6-3.7-3.6s1.6-3.6,3.7-3.6C454.7,25.7,456.3,27.2,456.3,29.3"/>
  <polygon fill="#FFFFFF" points="94.7,77.1 9.4,77.1 9.4,8.9 69.2,8.9 69.2,0.3 0.9,0.3 0.9,85.7 103.3,85.7 103.3,34.5 94.7,34.5       "/>
  <rect x="94.7" y="17.4" fill="#FFFFFF" width="8.5" height="8.5"/>
  <rect x="77.7" y="0.3" fill="#FFFFFF" width="8.5" height="8.5"/>
  <rect x="94.7" y="0.3" fill="#FFFFFF" width="8.5" height="8.5"/>
  <path fill="#FFFFFF" d="M33.7,46.4c-1.7,0-2.2,1.3-2.2,2.5v5.3c0,1.4,0.8,2.4,2.3,2.4c1.2,0,1.9-0.7,1.9-2.4v-5.3     C35.7,47.5,35.2,46.4,33.7,46.4z"/>
  <path fill="#FFFFFF" d="M32.9,38.8c-8.2,0-14.9,6.7-14.9,14.9c0,8.2,6.7,14.9,14.9,14.9c8.2,0,14.9-6.7,14.9-14.9     C47.8,45.5,41.1,38.8,32.9,38.8z M38.8,54.1c0,2.8-1.9,5-4.4,5c-1.1,0-2.9-0.5-2.9-1.3v6.5c0,0.5-0.6,0.8-1.1,0.8h-1     c-0.4,0-1.1-0.3-1.1-0.8V45c0-0.5,0.6-1,1.1-1h1.1c0.4,0,1,0.5,1,1v0.2c0-0.6,1.5-1.2,2.8-1.2c2.8,0,4.6,1.7,4.6,5.2V54.1z"/>
</svg>
