<svg xmlns="http://www.w3.org/2000/svg" width="143" height="40" viewBox="0 0 143 40" fill="none">
  <path d="M51.1645 8.72912V13.2975H49.6184V2.13037H53.6841C55.7527 2.13037 57.1413 3.56737 57.1413 5.44047C57.1413 7.31357 55.7527 8.72912 53.6841 8.72912H51.1574H51.1645ZM53.4049 7.34217C54.7434 7.34217 55.5666 6.59865 55.5666 5.45477C55.5666 4.31089 54.7434 3.51732 53.4049 3.51732H51.1645V7.34217H53.4049Z" fill="#0E1721"/>
  <path d="M63.0537 12.1466C62.6887 12.8687 61.887 13.505 60.7059 13.505C58.4798 13.505 57.1127 11.7105 57.1127 9.45852C57.1127 7.20651 58.5657 5.51929 60.7059 5.51929C62.0444 5.51929 62.7746 6.18417 63.0251 6.79185V5.71947H64.4924V11.8964C64.4924 12.5756 64.5569 13.1547 64.5712 13.2977H63.1324C63.1038 13.1261 63.0537 12.7329 63.0537 12.2753V12.1466ZM60.8491 12.1967C62.2091 12.1967 63.0394 11.0171 63.0394 9.45852C63.0394 7.89998 62.2162 6.8276 60.8634 6.8276C59.5106 6.8276 58.623 7.89998 58.623 9.45852C58.623 11.0171 59.4247 12.1967 60.8491 12.1967Z" fill="#0E1721"/>
  <path d="M70.4049 7.21352C70.183 7.18493 69.9611 7.16348 69.7607 7.16348C68.5152 7.16348 67.6777 7.82836 67.6777 9.49413V13.2904H66.196V5.71218H67.6491V7.03479C68.2002 5.86947 69.1451 5.5835 69.9181 5.5835C70.1257 5.5835 70.3261 5.61209 70.4049 5.63354V7.20637V7.21352Z" fill="#0E1721"/>
  <path d="M72.0798 9.50127C72.0798 11.2314 73.1678 12.1608 74.399 12.1608C75.8162 12.1608 76.3388 11.2028 76.5106 10.6023L77.8204 11.167C77.4554 12.2537 76.3674 13.5334 74.399 13.5334C72.1944 13.5334 70.5695 11.8033 70.5695 9.50127C70.5695 7.19922 72.223 5.4834 74.3847 5.4834C76.4032 5.4834 77.4411 6.74166 77.756 7.89269L76.4175 8.45748C76.2314 7.71396 75.6731 6.8489 74.3847 6.8489C73.1893 6.8489 72.0798 7.72826 72.0798 9.49412V9.50127Z" fill="#0E1721"/>
  <path d="M80.34 13.2976H78.8583V1.89453H80.34V6.60588C80.8912 5.80517 81.7788 5.5049 82.6449 5.5049C84.4558 5.5049 85.3577 6.81321 85.3577 8.50043V13.3047H83.876V8.75065C83.876 7.69257 83.4322 6.84181 82.108 6.84181C80.9699 6.84181 80.3758 7.72116 80.34 8.84359V13.3047V13.2976Z" fill="#0E1721"/>
  <path d="M86.9682 13.2976V5.71943H88.3855V6.72747C88.8579 5.89101 89.8027 5.4978 90.6903 5.4978C91.6352 5.4978 92.5514 5.95535 92.9594 6.9348C93.5606 5.84812 94.5341 5.4978 95.5004 5.4978C96.8246 5.4978 98.1202 6.39861 98.1202 8.37895V13.2905H96.6528V8.53623C96.6528 7.54249 96.1661 6.80611 95.0423 6.80611C94.0044 6.80611 93.2886 7.62828 93.2886 8.71496V13.2976H91.8069V8.54338C91.8069 7.56393 91.3345 6.81326 90.1964 6.81326C89.1371 6.81326 88.4284 7.59968 88.4284 8.73641V13.3048H86.9611L86.9682 13.2976Z" fill="#0E1721"/>
  <path d="M106.445 11.1384C106.022 12.4754 104.806 13.5334 103.038 13.5334C101.005 13.5334 99.2225 12.0536 99.2225 9.48697C99.2225 7.10628 100.94 5.4834 102.852 5.4834C105.185 5.4834 106.495 7.09198 106.495 9.45123C106.495 9.63711 106.481 9.83014 106.466 9.92308H100.754C100.783 11.2814 101.764 12.2251 103.045 12.2251C104.326 12.2251 104.892 11.546 105.171 10.6952L106.445 11.1384ZM104.949 8.72915C104.92 7.64247 104.204 6.79171 102.866 6.79171C101.62 6.79171 100.862 7.74971 100.797 8.72915H104.949Z" fill="#0E1721"/>
  <path d="M109.129 13.2976H107.647V5.71943H109.1V6.80611C109.651 5.86241 110.553 5.4978 111.434 5.4978C113.245 5.4978 114.147 6.80611 114.147 8.49333V13.2976H112.665V8.74356C112.665 7.68547 112.221 6.83471 110.897 6.83471C109.73 6.83471 109.129 7.76411 109.129 8.91514V13.2976Z" fill="#0E1721"/>
  <path d="M117.754 5.71928H119.393V7.05619H117.754V10.9954C117.754 11.6889 118.041 12.0321 118.814 12.0321C119 12.0321 119.272 12.0035 119.401 11.9677V13.226C119.272 13.276 118.892 13.369 118.391 13.369C117.096 13.369 116.28 12.5826 116.28 11.2099V7.04904H114.827V5.71213H115.235C116.058 5.71213 116.401 5.20454 116.401 4.54681V3.31714H117.761V5.71213H117.754V5.71928Z" fill="#0E1721"/>
  <path d="M52.3599 28.3681V34.6809H49.6255V18.5308H55.6238C58.7232 18.5308 60.7775 20.6255 60.7775 23.4494C60.7775 26.2734 58.7232 28.3681 55.6238 28.3681H52.3599ZM55.2087 25.9517C56.9409 25.9517 57.9931 24.9937 57.9931 23.4709C57.9931 21.9481 56.9409 20.9401 55.2087 20.9401H52.3599V25.9517H55.2087Z" fill="#0E1721"/>
  <path d="M66.0887 34.9741C62.8247 34.9741 60.7274 32.4003 60.7274 29.0759C60.7274 25.7515 62.8462 23.2708 66.0386 23.2708C67.9998 23.2708 69.0019 24.2931 69.3026 25.0438V23.5853H71.8794V32.6506C71.8794 33.5585 71.9724 34.4522 71.9939 34.6809H69.46C69.4171 34.4307 69.3455 33.8373 69.3455 33.0867C68.8444 34.159 67.6777 34.9741 66.0815 34.9741H66.0887ZM66.3893 32.6935C68.1215 32.6935 69.3312 31.2136 69.3312 29.0688C69.3312 26.924 68.143 25.5585 66.3893 25.5585C64.6356 25.5585 63.3758 26.924 63.3758 29.0688C63.3758 31.2136 64.5354 32.6935 66.3893 32.6935Z" fill="#0E1721"/>
  <path d="M77.6343 23.5854H79.9391V25.9304H77.6343V31.0778C77.6343 32.0573 78.0709 32.4648 79.0516 32.4648C79.4166 32.4648 79.8532 32.3933 79.9606 32.3718V34.5595C79.8031 34.631 79.3021 34.8097 78.3429 34.8097C76.2886 34.8097 75.0145 33.58 75.0145 31.5068V25.9232H72.9602V23.5783H73.5328C74.721 23.5783 75.2436 22.8276 75.2436 21.8481V20.1824H77.6343V23.5783V23.5854Z" fill="#0E1721"/>
  <path d="M84.0836 34.681H81.4352V18.1877H84.0836V24.6578C84.8352 23.6784 86.0878 23.2709 87.2545 23.2709C89.9888 23.2709 91.313 25.2297 91.313 27.6676V34.681H88.6646V28.118C88.6646 26.7525 88.0491 25.6587 86.3813 25.6587C84.9211 25.6587 84.1265 26.7525 84.0764 28.1609V34.6739H84.0836V34.681Z" fill="#0E1721"/>
  <path d="M102.608 23.5854L105.228 31.2637L107.44 23.5854H110.131L106.574 34.6811H103.925L101.162 26.7097L98.4709 34.6811H95.7581L92.1577 23.5854H94.985L97.2397 31.2637L99.8595 23.5854H102.608Z" fill="#0E1721"/>
  <path d="M115.7 34.9741C112.436 34.9741 110.339 32.4003 110.339 29.0759C110.339 25.7515 112.457 23.2708 115.65 23.2708C117.611 23.2708 118.613 24.2931 118.914 25.0438V23.5853H121.491V32.6506C121.491 33.5585 121.584 34.4522 121.605 34.6809H119.071C119.028 34.4307 118.957 33.8373 118.957 33.0867C118.456 34.159 117.289 34.9741 115.693 34.9741H115.7ZM115.993 32.6935C117.726 32.6935 118.935 31.2136 118.935 29.0688C118.935 26.924 117.747 25.5585 115.993 25.5585C114.24 25.5585 112.98 26.924 112.98 29.0688C112.98 31.2136 114.139 32.6935 115.993 32.6935Z" fill="#0E1721"/>
  <path d="M124.526 39.1636L127.195 33.3585L122.45 23.5854H125.435L128.627 30.5989L131.612 23.5854H134.418L127.346 39.1636H124.518H124.526Z" fill="#0E1721"/>
  <path d="M136.522 31.0348C136.615 32.0357 137.367 32.9222 138.777 32.9222C139.872 32.9222 140.445 32.3288 140.445 31.6496C140.445 31.0562 140.037 30.5987 139.142 30.42L137.503 30.0553C135.542 29.6192 134.518 28.3467 134.518 26.8239C134.518 24.8864 136.3 23.2493 138.598 23.2493C141.697 23.2493 142.699 25.2511 142.886 26.3449L140.652 26.9812C140.559 26.3449 140.08 25.3154 138.598 25.3154C137.66 25.3154 137.002 25.9088 137.002 26.588C137.002 27.1813 137.438 27.6103 138.118 27.7461L139.808 28.0893C141.905 28.5469 143 29.8194 143 31.4637C143 33.1081 141.633 35.0169 138.806 35.0169C135.592 35.0169 134.36 32.9222 134.224 31.6711L136.529 31.0348H136.522Z" fill="#0E1721"/>
  <path d="M8.13134 32.0071C8.06692 32.0071 7.99534 32.0071 7.93092 31.9857C6.53514 31.7355 4.79578 31.4209 3.70062 29.9124C2.61262 28.4182 2.84883 26.681 3.03494 25.2797C3.09936 24.815 3.19957 24.0429 3.13515 23.8141C3.04925 23.6211 2.5482 23.0992 2.24041 22.7846C1.23831 21.748 0 20.4611 0 18.5594C0 16.6577 1.23831 15.3709 2.23326 14.3414C2.54104 14.0197 3.04925 13.4978 3.13515 13.2904C3.19241 13.076 3.0922 12.3038 3.02778 11.8463C2.84168 10.4379 2.60547 8.70062 3.69346 7.20643C4.78862 5.70509 6.52798 5.39053 7.92377 5.1403C8.37471 5.06166 9.13345 4.92583 9.32671 4.79714C9.49134 4.65416 9.84923 3.99642 10.0568 3.60322C10.7297 2.34495 11.5671 0.772118 13.3566 0.193029C13.7574 0.0643432 14.1797 0 14.6164 0C15.869 0 16.9642 0.529044 17.9376 0.993744C18.3743 1.20107 19.0972 1.55139 19.3406 1.55139C19.5839 1.55139 20.3427 1.18677 20.7435 0.993744C21.717 0.529044 22.8121 0 24.0648 0C24.5014 0 24.9237 0.0643432 25.3246 0.193029C27.114 0.772118 27.9515 2.34495 28.6243 3.60322C28.9321 4.18231 29.2614 4.66845 29.5119 4.94012C29.9414 5.39053 29.9199 6.10545 29.469 6.53441C29.018 6.96336 28.3022 6.94191 27.8728 6.49151C27.3717 5.96247 26.9208 5.20465 26.6273 4.66845C26.0905 3.67471 25.5393 2.63807 24.6159 2.3378C23.7928 2.07328 22.762 2.52368 21.717 3.02413C20.9153 3.41019 20.0922 3.8034 19.3334 3.8034C18.5747 3.8034 17.7587 3.40304 16.957 3.02413C15.9048 2.51653 14.8669 2.07328 14.0509 2.3378C13.1275 2.63807 12.5764 3.66756 12.0395 4.6613C11.6101 5.45487 11.2092 6.20554 10.6366 6.6202C10.0568 7.042 9.21218 7.19214 8.31029 7.35657C7.20082 7.55675 6.06272 7.76407 5.49725 8.53619C4.93893 9.30116 5.09641 10.4379 5.24672 11.546C5.3684 12.454 5.48293 13.3119 5.26104 14.0054C5.0463 14.6631 4.46651 15.2708 3.84378 15.9071C3.04925 16.7292 2.23326 17.58 2.23326 18.5666C2.23326 19.5532 3.04925 20.4111 3.84378 21.2332C4.45936 21.8767 5.0463 22.4772 5.25388 23.1349C5.48293 23.8284 5.36841 24.6863 5.23956 25.5943C5.08925 26.7024 4.93893 27.8391 5.49009 28.6041C6.05556 29.3762 7.19366 29.5836 8.29598 29.7837C8.91155 29.891 9.31955 30.4772 9.20502 31.092C9.10481 31.6354 8.6324 32.0214 8.09556 32.0214L8.13134 32.0071Z" fill="#2B7BBC"/>
  <path d="M36.0757 40C35.7107 40 35.3456 39.8713 35.045 39.6283L27.5364 34.109C27.0783 33.7373 26.8349 33.2297 26.8349 32.6935V10.9241H13.5356V31.8284C13.5356 32.4504 13.0274 32.958 12.4046 32.958C11.7819 32.958 11.2737 32.4504 11.2737 31.8284V10.4594C11.2737 9.47276 12.0754 8.67205 13.0632 8.67205H27.3002C28.2879 8.67205 29.0896 9.47276 29.0896 10.4594V32.4504L35.4601 37.1332V8.37178L31.9385 10.2878C31.3945 10.588 30.7073 10.3807 30.4067 9.83737C30.106 9.29403 30.3136 8.6077 30.8576 8.30743L35.3385 5.86954C36.1401 5.43344 36.7199 5.64792 36.9991 5.81235C37.45 6.07687 37.722 6.58447 37.722 7.15641V38.3628C37.722 38.9991 37.3641 39.5639 36.7843 39.8427C36.5553 39.95 36.3191 40 36.0757 40ZM36.3978 37.8195L36.4336 37.8409C36.4336 37.8409 36.4121 37.8266 36.3978 37.8195Z" fill="#2B7BBC"/>
</svg>
