<svg xmlns="http://www.w3.org/2000/svg" width="114" height="40" viewBox="0 0 114 40" fill="none">
  <path d="M27.7904 40C27.5884 40 27.3864 39.9652 27.1914 39.8955L17.12 36.6847L7.18092 39.8468C6.62372 40.0488 5.9899 39.9722 5.50932 39.6518C5.06356 39.3523 4.79889 38.8578 4.79889 38.3424V31.7186H7.02072V37.5692L16.4792 34.5604C16.8901 34.4071 17.3498 34.4071 17.7608 34.5604L27.2192 37.5762V31.7117H29.4411V38.4538C29.4411 38.9483 29.1903 39.415 28.7655 39.7075C28.4799 39.9025 28.1386 40 27.7904 40Z" fill="#2B7BBC"/>
  <path d="M21.2711 32.9236C20.1428 32.9236 19.1677 32.4499 18.304 32.039C17.9349 31.8649 17.3289 31.5723 17.113 31.5584C16.911 31.5723 16.2981 31.8649 15.9359 32.039C15.0723 32.4569 14.0902 32.9236 12.9688 32.9236C12.5788 32.9236 12.1888 32.8609 11.8266 32.7494C10.2107 32.2271 9.42365 30.7644 8.85948 29.6918C8.67839 29.3575 8.3789 28.7933 8.23263 28.661C8.08637 28.5774 7.44559 28.459 7.06251 28.3893C5.87846 28.1734 4.25562 27.8809 3.26659 26.5227C2.28452 25.1715 2.50044 23.5487 2.66063 22.3646C2.71635 21.9746 2.79993 21.3199 2.75118 21.1179C2.68153 20.9716 2.2497 20.5259 1.99896 20.2612C1.15619 19.3836 0 18.1787 0 16.4583C0 14.7379 1.15619 13.54 1.99896 12.6624C2.25666 12.3907 2.68849 11.9519 2.76511 11.7709C2.79993 11.5967 2.71635 10.949 2.66063 10.5589C2.50044 9.36793 2.28452 7.74508 3.26659 6.39387C4.25562 5.0357 5.87846 4.74317 7.06251 4.52725C7.44559 4.4576 8.0794 4.3392 8.25353 4.24169C8.3789 4.12328 8.67839 3.56608 8.85948 3.23176C9.43061 2.16612 10.2107 0.703465 11.8266 0.174125C12.1888 0.05572 12.5718 0 12.9688 0C14.0972 0 15.0723 0.47362 15.9359 0.884555C16.3051 1.05868 16.911 1.35121 17.12 1.36514C17.322 1.35121 17.9558 1.04475 18.2971 0.884555C19.1607 0.466655 20.1428 0 21.2641 0C21.6612 0 22.0442 0.062685 22.4064 0.174125C24.0223 0.703465 24.8093 2.15915 25.3805 3.23176C25.5616 3.57305 25.861 4.13025 26.0073 4.26258C26.1536 4.34616 26.7944 4.46457 27.1705 4.53422C28.3545 4.75013 29.9774 5.04266 30.9664 6.40084C31.9485 7.75205 31.7325 9.38186 31.5724 10.5659C31.5166 10.9559 31.4331 11.6107 31.4818 11.8126C31.5515 11.9589 31.9763 12.3977 32.234 12.6624C33.0838 13.5469 34.2399 14.7519 34.2399 16.4722C34.2399 18.1926 33.0838 19.3906 32.241 20.2682C31.9833 20.5398 31.5515 20.9855 31.4748 21.1597C31.44 21.3268 31.5236 21.9815 31.5793 22.3716C31.7395 23.5626 31.9554 25.1854 30.9734 26.5367C29.9843 27.8948 28.3615 28.1874 27.1774 28.4033C26.7944 28.4729 26.1536 28.5844 25.9795 28.6888C25.8541 28.8072 25.5546 29.3644 25.3735 29.6988C24.8024 30.7714 24.0223 32.2271 22.4064 32.7564C22.0442 32.8748 21.6542 32.9305 21.2641 32.9305L21.2711 32.9236ZM17.12 29.3366C17.8095 29.3366 18.5478 29.6918 19.2652 30.04C20.1637 30.4719 21.0413 30.8619 21.7308 30.639C22.497 30.3883 22.9706 29.5037 23.4233 28.647C23.8064 27.9366 24.1616 27.261 24.6909 26.8779C25.2203 26.4879 25.9795 26.3556 26.7804 26.2093C27.7277 26.0352 28.7097 25.861 29.1764 25.2203C29.6361 24.5865 29.5037 23.6044 29.3784 22.6571C29.2669 21.8422 29.1625 21.0761 29.3784 20.4353C29.5734 19.8363 30.0958 19.2931 30.646 18.7219C31.3634 17.9767 32.032 17.2802 32.032 16.4583C32.032 15.6364 31.3634 14.933 30.653 14.1947C30.0958 13.6166 29.5804 13.0803 29.3853 12.4743C29.1764 11.8405 29.2809 11.0674 29.3853 10.2525C29.5107 9.30524 29.643 8.32318 29.1834 7.68936C28.7167 7.04858 27.7346 6.87446 26.7874 6.70033C25.9795 6.55407 25.2272 6.41477 24.6909 6.03169C24.1686 5.64862 23.8133 4.98694 23.4303 4.27651C22.9636 3.40589 22.49 2.52133 21.7238 2.27059C21.0413 2.04771 20.1567 2.43775 19.2582 2.86958C18.5408 3.21087 17.8025 3.57305 17.113 3.57305C16.4235 3.57305 15.6921 3.21783 14.9748 2.87655C14.0693 2.43775 13.1847 2.05468 12.5022 2.27756C11.736 2.5283 11.2833 3.37106 10.8027 4.26955C10.4196 4.97998 10.0644 5.65558 9.53509 6.03866C8.99878 6.4287 8.24656 6.56103 7.44559 6.7073C6.49835 6.88142 5.51628 7.05555 5.04963 7.69633C4.58994 8.33014 4.72227 9.30524 4.84764 10.2594C4.95212 11.0395 5.06356 11.8405 4.84764 12.4813C4.65262 13.0872 4.13025 13.6305 3.58001 14.2016C2.86958 14.9399 2.20094 15.6364 2.20094 16.4653C2.20094 17.2941 2.86958 17.9906 3.58001 18.7289C4.13025 19.3 4.65262 19.8433 4.84764 20.4492C5.05659 21.0831 4.94515 21.891 4.84764 22.6641C4.72227 23.6114 4.58994 24.5934 5.04963 25.2272C5.51628 25.868 6.49835 26.0491 7.44559 26.2163C8.25353 26.3625 9.00575 26.4949 9.54205 26.8849C10.0714 27.268 10.4266 27.9436 10.8097 28.654C11.2694 29.5107 11.743 30.3953 12.5091 30.646C13.1987 30.8689 14.0763 30.4788 14.9678 30.047C15.6852 29.6988 16.4235 29.3435 17.113 29.3435L17.12 29.3366Z" fill="#2B7BBC"/>
  <path d="M47.2923 9.0266V13.4772H45.7879V2.5979H49.744C51.7569 2.5979 53.1081 3.99787 53.1081 5.8227C53.1081 7.64753 51.7569 9.0266 49.744 9.0266H47.2854H47.2923ZM49.4654 7.67539C50.7679 7.67539 51.5689 6.95103 51.5689 5.83663C51.5689 4.72223 50.7679 3.94911 49.4654 3.94911H47.2854V7.67539H49.4654Z" fill="#0E1721"/>
  <path d="M58.8612 12.356C58.506 13.0594 57.7259 13.6793 56.5767 13.6793C54.4106 13.6793 53.0803 11.9311 53.0803 9.73713C53.0803 7.54315 54.4942 5.89941 56.5767 5.89941C57.8791 5.89941 58.5896 6.54716 58.8334 7.13918V6.09443H60.2612V12.1122C60.2612 12.7739 60.3239 13.338 60.3378 13.4773H58.9378C58.91 13.3102 58.8612 12.9271 58.8612 12.4813V12.356ZM56.716 12.4047C58.0393 12.4047 58.8473 11.2555 58.8473 9.73713C58.8473 8.21876 58.0463 7.17401 56.7299 7.17401C55.4135 7.17401 54.5499 8.21876 54.5499 9.73713C54.5499 11.2555 55.33 12.4047 56.716 12.4047Z" fill="#0E1721"/>
  <path d="M66.0143 7.55701C65.7984 7.52915 65.5825 7.50826 65.3875 7.50826C64.1755 7.50826 63.3606 8.156 63.3606 9.77885V13.4773H61.9189V6.09436H63.3328V7.38289C63.8691 6.24759 64.7885 5.96899 65.5407 5.96899C65.7427 5.96899 65.9377 5.99685 66.0143 6.01775V7.55005V7.55701Z" fill="#0E1721"/>
  <path d="M67.6441 9.77883C67.6441 11.4644 68.7028 12.3698 69.9008 12.3698C71.2798 12.3698 71.7883 11.4365 71.9554 10.8514L73.23 11.4017C72.8748 12.4604 71.8161 13.7071 69.9008 13.7071C67.7556 13.7071 66.1745 12.0216 66.1745 9.77883C66.1745 7.5361 67.7834 5.8645 69.8868 5.8645C71.851 5.8645 72.8609 7.09034 73.1674 8.21171L71.8649 8.76194C71.6838 8.03758 71.1405 7.19482 69.8868 7.19482C68.7237 7.19482 67.6441 8.05151 67.6441 9.77187V9.77883Z" fill="#0E1721"/>
  <path d="M75.6817 13.4771H74.2399V2.36792H75.6817V6.95786C76.218 6.17778 77.0817 5.88525 77.9244 5.88525C79.6866 5.88525 80.5642 7.15984 80.5642 8.80358V13.4841H79.1224V9.04736C79.1224 8.01654 78.6906 7.1877 77.402 7.1877C76.2946 7.1877 75.7165 8.0444 75.6817 9.1379V13.4841V13.4771Z" fill="#0E1721"/>
  <path d="M82.1313 13.4772V6.09433H83.5104V7.0764C83.9701 6.26149 84.8894 5.87842 85.7531 5.87842C86.6725 5.87842 87.564 6.32418 87.961 7.27838C88.5461 6.2197 89.4933 5.87842 90.4336 5.87842C91.7221 5.87842 92.9828 6.75601 92.9828 8.68531V13.4703H91.5549V8.83854C91.5549 7.87041 91.0813 7.15301 89.9878 7.15301C88.9779 7.15301 88.2814 7.95399 88.2814 9.01267V13.4772H86.8396V8.84551C86.8396 7.8913 86.3799 7.15998 85.2725 7.15998C84.2417 7.15998 83.5522 7.92613 83.5522 9.03356V13.4842H82.1243H82.1313V13.4772Z" fill="#0E1721"/>
  <path d="M101.083 11.3738C100.665 12.6763 99.4881 13.7071 97.7677 13.7071C95.7896 13.7071 94.0554 12.2653 94.0554 9.7649C94.0554 7.44556 95.727 5.8645 97.5866 5.8645C99.8572 5.8645 101.132 7.43163 101.132 9.73008C101.132 9.91117 101.118 10.0992 101.104 10.1898H95.5459C95.5737 11.5131 96.5279 12.4325 97.7677 12.4325C99.0075 12.4325 99.5647 11.7708 99.8363 10.942L101.076 11.3738H101.083ZM99.6274 9.02661C99.5995 7.96793 98.903 7.1391 97.6006 7.1391C96.3886 7.1391 95.6504 8.07241 95.5877 9.02661H99.6274Z" fill="#0E1721"/>
  <path d="M103.695 13.4772H102.253V6.09433H103.667V7.15301C104.203 6.23363 105.081 5.87842 105.938 5.87842C107.7 5.87842 108.577 7.15301 108.577 8.79675V13.4772H107.136V9.04053C107.136 8.00971 106.704 7.18087 105.415 7.18087C104.28 7.18087 103.695 8.08632 103.695 9.20769V13.4772Z" fill="#0E1721"/>
  <path d="M112.088 6.09439H113.683V7.39685H112.088V11.2346C112.088 11.9102 112.366 12.2445 113.119 12.2445C113.3 12.2445 113.564 12.2166 113.69 12.1818V13.4076C113.564 13.4564 113.195 13.5469 112.708 13.5469C111.447 13.5469 110.653 12.7808 110.653 11.4435V7.38988H109.239V6.08743H109.636C110.437 6.08743 110.771 5.59291 110.771 4.95213V3.75415H112.095V6.08743H112.088V6.09439Z" fill="#0E1721"/>
  <path d="M55.5529 30.3605H48.8943L47.4317 34.3096H44.6108L50.7331 18.5757H53.8186L59.9408 34.3096H57.0364L55.5529 30.3605ZM49.8276 27.8949H54.6195L52.2236 21.4592L49.8276 27.8949Z" fill="#0E1721"/>
  <path d="M69.3575 23.5L71.9067 30.9804L74.0589 23.5H76.6777L73.2161 34.3097H70.6391L67.9575 26.5437L65.3387 34.3097H62.699L59.1956 23.5H61.9467L64.1407 30.9804L66.6899 23.5H69.3575Z" fill="#0E1721"/>
  <path d="M82.0965 34.5951C78.9204 34.5951 76.8797 32.0877 76.8797 28.8489C76.8797 25.6102 78.9413 23.1934 82.0477 23.1934C83.9561 23.1934 84.9312 24.1894 85.2238 24.9207V23.4998H87.7312V32.3314C87.7312 33.216 87.8217 34.0866 87.8426 34.3095H85.377C85.3352 34.0657 85.2656 33.4876 85.2656 32.7563C84.778 33.8011 83.6427 34.5951 82.0895 34.5951H82.0965ZM82.389 32.3732C84.0745 32.3732 85.2516 30.9315 85.2516 28.842C85.2516 26.7525 84.0954 25.4222 82.389 25.4222C80.6826 25.4222 79.4568 26.7525 79.4568 28.842C79.4568 30.9315 80.5851 32.3732 82.389 32.3732Z" fill="#0E1721"/>
  <path d="M96.2563 26.0488C95.9707 26.0071 95.6782 25.9792 95.4135 25.9792C93.4146 25.9792 92.5091 27.1354 92.5091 29.1552V34.3024H89.9321V23.4927H92.4395V25.227C92.9479 24.0499 94.1459 23.3604 95.5668 23.3604C95.8802 23.3604 96.1448 23.4021 96.2563 23.43V26.0488Z" fill="#0E1721"/>
  <path d="M107.289 32.3314C107.289 33.3065 107.379 34.1284 107.4 34.3095H104.935C104.893 34.0657 104.823 33.3553 104.823 32.9095C104.315 33.8219 103.18 34.5741 101.647 34.5741C98.5409 34.5741 96.4514 32.1364 96.4514 28.8698C96.4514 25.6032 98.5617 23.2142 101.598 23.2142C103.486 23.2142 104.44 24.0779 104.775 24.7674V18.2412H107.282V32.3314H107.289ZM101.94 32.3105C103.625 32.3105 104.802 30.9105 104.802 28.8489C104.802 26.7873 103.646 25.4987 101.961 25.4987C100.275 25.4987 99.0284 26.8082 99.0284 28.8698C99.0284 30.9314 100.185 32.3105 101.933 32.3105H101.94Z" fill="#0E1721"/>
</svg>
