<svg xmlns="http://www.w3.org/2000/svg" width="191" height="60" viewBox="0 0 191 60" fill="none">
  <path d="M63.0534 47.8148C63.0534 43.8825 64.5437 41.7018 69.3329 40.5341L77.0483 38.7282V35.8061C76.8906 32.8297 74.8672 30.5974 71.7805 30.5974C68.6938 30.5974 66.8309 32.4061 66.8309 35.1679C66.8309 35.434 66.5127 35.54 66.5127 35.54H63.959C63.959 35.54 63.6925 35.434 63.6925 35.1679C63.6925 30.5431 67.2062 27.6211 71.7805 27.6211C76.3548 27.6211 80.135 30.4915 80.135 36.6561V54.0337C80.135 54.5659 79.6564 54.5659 79.6564 54.5659H77.5814C77.5814 54.5659 77.0483 54.5659 77.0483 54.0337V52.1734C75.3459 54.4573 72.7378 54.9353 70.8749 54.9353C65.9252 54.9353 63.0507 52.1734 63.0507 47.8148H63.0534ZM77.051 45.7943V41.9136L69.6538 43.6136C66.5671 44.3034 66.1401 46.1093 66.1401 47.4943C66.1401 49.99 68.003 51.9562 70.8749 51.9562C74.4946 51.9562 77.0483 48.9798 77.0483 45.7916L77.051 45.7943Z" fill="#067A91"/>
  <path d="M107.807 49.2541L111.96 28.5281C112.066 27.9959 112.493 27.9958 112.493 27.9958H114.889C114.889 27.9958 115.367 27.9959 115.261 28.5281L109.406 54.0364C109.3 54.5687 108.873 54.5687 108.873 54.5687H106.692C106.692 54.5687 106.265 54.5687 106.159 54.0364L100.252 31.5561L94.3965 54.0364C94.2905 54.5687 93.8635 54.5687 93.8635 54.5687H91.6797C91.6797 54.5687 91.2554 54.5687 91.1466 54.0364L85.2397 28.5281C85.0793 27.9959 85.6123 27.9958 85.6123 27.9958H88.0082C88.0082 27.9958 88.4325 27.9959 88.5413 28.5281L92.7974 49.2541L98.2257 28.5281C98.3861 27.9959 98.6499 27.9958 98.8104 27.9958H101.685C101.843 27.9958 102.109 27.9959 102.27 28.5281L107.804 49.2541H107.807Z" fill="#067A91"/>
  <path d="M120.85 47.8854C120.85 43.9911 122.327 41.8349 127.067 40.678L134.706 38.8884V35.9935C134.548 33.047 132.547 30.8364 129.49 30.8364C126.433 30.8364 124.589 32.6261 124.589 35.3607C124.589 35.6242 124.274 35.7301 124.274 35.7301H121.745C121.745 35.7301 121.481 35.6242 121.481 35.3607C121.481 30.7821 124.959 27.8872 129.49 27.8872C134.021 27.8872 137.763 30.7305 137.763 36.8326V54.0391C137.763 54.5659 137.29 54.5659 137.29 54.5659H135.234C135.234 54.5659 134.706 54.5659 134.706 54.0391V52.1979C133.02 54.46 130.439 54.9326 128.595 54.9326C123.695 54.9326 120.85 52.1979 120.85 47.8827V47.8854ZM134.709 45.884V42.044L127.385 43.7277C124.328 44.4121 123.907 46.199 123.907 47.5677C123.907 50.0389 125.751 51.9861 128.595 51.9861C132.18 51.9861 134.706 49.0396 134.706 45.884H134.709Z" fill="#067A91"/>
  <path d="M148.35 36.819V54.0364C148.35 54.5686 147.766 54.5687 147.766 54.5687H145.797C145.797 54.5687 145.263 54.5686 145.263 54.0364V28.5281C145.263 27.9958 145.797 27.9958 145.797 27.9958H147.766C147.766 27.9958 148.35 27.9958 148.35 28.5281V30.0679C149.468 28.1561 152.182 27.6238 154.097 27.6238C154.63 27.6238 154.63 28.1561 154.63 28.1561V30.1222C154.63 30.1222 154.63 30.7061 154.097 30.7061C150.104 30.7061 148.35 32.8324 148.35 36.819Z" fill="#067A91"/>
  <path d="M176.541 54.0418C176.541 54.5687 176.014 54.5687 176.014 54.5687H173.96C173.96 54.5687 173.487 54.5687 173.487 54.0418V52.2006C171.801 54.4628 169.43 54.9353 167.586 54.9353C162.843 54.9353 159.525 51.2528 159.525 46.4108V36.781C159.525 31.8874 162.264 27.8872 167.795 27.8872C169.851 27.8872 172.538 28.7834 173.487 30.3069V18.2575C173.487 17.7333 173.96 17.7333 173.96 17.7333H176.068C176.332 17.7333 176.541 17.9424 176.541 18.2575V54.0364V54.0418ZM173.485 36.7838C173.485 32.2051 170.322 30.8364 167.792 30.8364C164.262 30.8364 162.576 33.2045 162.576 36.7838V46.4135C162.576 49.5175 164.684 51.9915 167.583 51.9915C171.007 51.9915 173.485 50.2019 173.485 46.4135V36.7838Z" fill="#067A91"/>
  <path d="M42.1453 60C41.8924 60 41.6395 59.9538 41.4029 59.8588L26.0128 54.9543L25.9801 54.9679L25.8034 54.9543L10.5465 59.8018C9.95366 60.038 9.18674 59.9593 8.61019 59.5682C8.10435 59.2233 7.81335 58.6938 7.81335 58.1126V48.7598C7.81335 48.3661 8.13155 48.0483 8.52588 48.0483H9.17858C9.57292 48.0483 9.89111 48.3661 9.89111 48.7598V57.822H9.91559L25.1724 52.9719C25.6157 52.7953 26.2031 52.7953 26.7144 52.9963L41.9304 57.8438V48.7598C41.9304 48.3661 42.2486 48.0483 42.643 48.0483H43.2957C43.69 48.0483 44.0082 48.3661 44.0082 48.7598V58.2918C44.0082 58.8404 43.7362 59.3374 43.2603 59.6605C42.934 59.8805 42.5424 59.9946 42.148 59.9946L42.1453 60Z" fill="#067A91"/>
  <path d="M32.2243 49.7429C30.549 49.7429 29.0804 49.0396 27.7832 48.4177C27.1958 48.1352 26.233 47.6736 25.904 47.6654C25.5749 47.6736 24.5768 48.1542 24.0411 48.4122C22.7275 49.0423 21.2589 49.7456 19.5864 49.7456C19.0017 49.7456 18.4333 49.656 17.8948 49.4822C15.4934 48.7028 14.3675 46.6009 13.4646 44.9117C13.2008 44.4202 12.714 43.505 12.4774 43.3068C12.2299 43.1493 11.2291 42.97 10.6308 42.8614C8.7516 42.5219 6.4182 42.101 4.94691 40.0806C3.48378 38.0737 3.80197 35.7382 4.05489 33.8617C4.1392 33.2398 4.27517 32.2187 4.19087 31.9118C4.07937 31.6593 3.40491 30.9586 3.00241 30.5404C1.73509 29.226 0 27.4255 0 24.8701C0 22.3147 1.66166 20.5929 2.99969 19.2052C3.38043 18.8114 4.08208 18.0836 4.19903 17.8066C4.27517 17.5242 4.1392 16.5031 4.05761 15.8921C3.80197 14.002 3.4865 11.6665 4.94963 9.65964C6.42092 7.64189 8.74888 7.22096 10.6227 6.88422C11.2291 6.77559 12.2299 6.59636 12.4965 6.42527C12.7167 6.23789 13.1872 5.36073 13.4673 4.83661C14.3757 3.14203 15.4989 1.04282 17.903 0.260704C18.4415 0.0869014 19.0098 0 19.5946 0C21.2753 0 22.7465 0.706074 24.0465 1.33068C24.6258 1.60768 25.5831 2.06934 25.9121 2.07749C26.2412 2.06934 27.2393 1.58867 27.7778 1.33068C29.0777 0.706074 30.5517 0 32.2297 0C32.8117 0 33.3828 0.0869014 33.9186 0.260704C36.3254 1.04282 37.4975 3.23436 38.3542 4.83389C38.6397 5.36888 39.1075 6.24332 39.3414 6.43885C39.5889 6.59636 40.5924 6.77559 41.1907 6.88422C43.0727 7.22368 45.4033 7.64461 46.8719 9.66235C48.3323 11.6665 48.0169 14.002 47.7666 15.8785C47.6878 16.457 47.5436 17.5215 47.628 17.8311C47.7395 18.0836 48.4139 18.7843 48.8164 19.2025C50.1544 20.5902 51.8188 22.3174 51.8188 24.8728C51.8188 27.4283 50.0837 29.2287 48.8137 30.5431C48.4085 30.9641 47.7367 31.6647 47.6171 31.939C47.5382 32.2268 47.6851 33.2941 47.7612 33.8644C48.0141 35.7436 48.3269 38.0791 46.8692 40.086C45.3952 42.1065 43.0618 42.5247 41.188 42.8641C40.587 42.9727 39.5862 43.1547 39.3196 43.3231C39.0994 43.5132 38.6289 44.3903 38.3488 44.9172C37.4431 46.6063 36.32 48.7082 33.9186 49.4876C33.3828 49.6614 32.8144 49.7511 32.227 49.7511L32.2243 49.7429ZM25.9067 44.5994C26.9184 44.5994 28.028 45.1317 29.1022 45.6477C30.5082 46.3212 31.8762 46.9186 32.9667 46.5629C34.1932 46.1637 34.9275 44.7922 35.6373 43.4643C36.2057 42.397 36.7442 41.3895 37.5193 40.8274C38.3025 40.2598 39.4366 40.0534 40.6359 39.8389C42.1126 39.5727 43.6356 39.2984 44.3835 38.2719C45.1205 37.2617 44.9138 35.7409 44.7153 34.269C44.5575 33.1067 44.3944 31.9037 44.699 30.9641C44.9872 30.0815 45.765 29.2722 46.5918 28.414C47.6524 27.3142 48.743 26.1845 48.743 24.8647C48.743 23.5449 47.6524 22.4151 46.5972 21.3234C45.7705 20.4653 44.9872 19.6533 44.699 18.7707C44.3917 17.8284 44.5575 16.6253 44.7153 15.463C44.9138 13.9911 45.1178 12.4704 44.3808 11.4601C43.6356 10.4363 42.1154 10.162 40.6441 9.8959C39.4366 9.67864 38.2998 9.47497 37.5166 8.90468C36.7496 8.34797 36.2112 7.34589 35.6428 6.28677C34.9248 4.94252 34.1905 3.57111 32.9613 3.1719C32.7328 3.09858 32.4799 3.06056 32.2188 3.06056C31.2398 3.06056 30.2009 3.56024 29.0995 4.0898C28.028 4.60578 26.9157 5.14076 25.9013 5.14076C24.8868 5.14076 23.7827 4.60849 22.7112 4.09251C21.607 3.56024 20.5654 3.06056 19.5864 3.06056C19.3226 3.06056 19.0724 3.09858 18.8439 3.1719C17.6174 3.57111 16.8831 4.94523 16.1733 6.2732C15.5995 7.34317 15.0637 8.34797 14.2914 8.9074C13.5081 9.47769 12.3741 9.68136 11.172 9.8959C9.69529 10.162 8.17505 10.439 7.42988 11.4601C6.69288 12.4731 6.89685 13.9938 7.0981 15.4657C7.26127 16.6905 7.41629 17.8338 7.11441 18.768C6.82342 19.656 6.0429 20.468 5.21615 21.3234C4.16095 22.4178 3.07312 23.5503 3.07312 24.8647C3.07312 26.1791 4.16367 27.3169 5.21887 28.4086C6.04562 29.2668 6.82886 30.0788 7.11713 30.9641C7.42173 31.8955 7.26671 33.0415 7.10354 34.2527C6.90229 35.7382 6.69832 37.259 7.43532 38.2719C8.18321 39.2984 9.70617 39.5727 11.1802 39.8362C12.385 40.0534 13.519 40.2571 14.2995 40.8274C15.0746 41.3895 15.6104 42.397 16.1788 43.4616C16.8886 44.7895 17.6256 46.1609 18.8521 46.5601C19.9481 46.9159 21.3106 46.3185 22.703 45.6504C23.7881 45.129 24.8977 44.594 25.9121 44.594L25.9067 44.5994Z" fill="#1BAECA"/>
  <path d="M66.7411 5.38788C66.102 5.38788 65.3188 5.64044 64.7858 6.03149V6.01248C64.7858 5.69746 64.5356 5.52638 64.3017 5.52638H63.5212C63.2954 5.52638 63.0561 5.69746 63.0561 6.01248V19.8352C63.0561 20.1503 63.3063 20.3186 63.5429 20.3186H64.3234C64.5492 20.3186 64.7885 20.1475 64.7885 19.8352V15.5988C65.3161 16.0089 65.9933 16.2234 66.7847 16.2234C68.6177 16.2234 70.1107 14.5641 70.1107 12.5219V9.06761C70.1107 6.79731 68.8216 5.38788 66.7439 5.38788H66.7411ZM68.3756 9.06761V12.5219C68.3756 13.6299 67.5978 14.5343 66.6405 14.5343C65.4222 14.5343 64.7858 13.5132 64.7858 12.5029V9.06761C64.7858 7.89444 65.5255 7.07431 66.5807 7.07431C68.0629 7.07431 68.3756 8.15786 68.3756 9.06761Z" fill="#1BAECA"/>
  <path d="M75.2997 5.38788C73.3416 5.38788 71.9736 6.67239 71.9736 8.50818C71.9736 8.70914 72.1123 8.85579 72.251 8.91282C72.2864 8.9264 72.3217 8.93454 72.3571 8.93454H73.3171C73.347 8.93454 73.3796 8.92911 73.4068 8.91825C73.5646 8.86665 73.7223 8.72 73.7223 8.50818C73.7223 7.59843 74.2961 7.07431 75.2969 7.07431C76.2977 7.07431 76.9396 7.75323 76.9912 8.74716V9.61889L74.3097 10.2462C72.4794 10.6916 71.7316 11.566 71.7316 13.2579C71.7316 15.0855 72.969 16.218 74.957 16.218C75.558 16.218 76.3385 16.0958 76.9912 15.5906C76.9912 15.9084 77.2414 16.0795 77.478 16.0795H78.2586C78.4843 16.0795 78.7236 15.9084 78.7236 15.5961V9.06489C78.7236 6.52303 77.0021 5.38516 75.2969 5.38516L75.2997 5.38788ZM74.9597 14.5343C74.0786 14.5343 73.4639 13.9612 73.4639 13.1411C73.4639 12.6794 73.5945 12.1771 74.5626 11.9598L76.9939 11.4004V12.5002C76.9939 13.4779 76.2161 14.5315 74.9597 14.5315V14.5343Z" fill="#1BAECA"/>
  <path d="M84.4592 5.38788C84.1383 5.38788 83.2354 5.43404 82.5718 5.89571C82.5147 5.65673 82.2917 5.52909 82.0796 5.52909H81.3398C81.1059 5.52909 80.8557 5.70018 80.8557 6.0152V15.6015C80.8557 15.9165 81.1059 16.0849 81.3398 16.0849H82.0796C82.3243 16.0849 82.5854 15.9138 82.5854 15.6015V9.13007C82.5854 7.73693 83.1619 7.11776 84.4592 7.11776C84.7747 7.11776 84.9433 6.85706 84.9433 6.61265V5.87398C84.9433 5.63772 84.7719 5.39059 84.4592 5.39059V5.38788Z" fill="#1BAECA"/>
  <path d="M92.5173 12.1798H91.8183C91.5817 12.1798 91.3315 12.3563 91.3315 12.6849C91.3315 13.3258 90.9725 14.537 89.6155 14.537C88.4787 14.537 87.8015 13.7168 87.8015 12.3454V9.38806C87.8015 7.78853 88.3618 7.07703 89.6155 7.07703C90.9753 7.07703 91.1956 8.12256 91.2336 8.45115C91.2635 8.65483 91.3642 8.75531 91.4458 8.80691C91.5545 8.8748 91.6878 8.88566 91.8102 8.84764L92.5771 8.63854C92.8355 8.54349 92.9361 8.34524 92.879 8.06824C92.6043 6.34108 91.4458 5.39059 89.6155 5.39059C87.9973 5.39059 86.0692 6.07766 86.0692 9.35004V12.3454C86.0692 14.8113 87.3609 16.2261 89.6155 16.2261C91.9842 16.2261 93.0612 14.412 93.0612 12.7256C93.0612 12.3997 92.8409 12.1798 92.5145 12.1798H92.5173Z" fill="#1BAECA"/>
  <path d="M98.8566 5.3879C98.3671 5.3879 97.5947 5.45307 97.0209 5.8034V2.01775C97.0209 1.70273 96.7707 1.53436 96.5368 1.53436H95.7563C95.5306 1.53436 95.2913 1.70545 95.2913 2.01775V15.5988C95.2913 15.9138 95.5415 16.0822 95.7753 16.0822H96.5368C96.7734 16.0822 97.0209 15.9111 97.0209 15.5988V9.06763C97.0209 7.80213 97.6899 7.07433 98.8566 7.07433C100.094 7.07433 100.532 8.14702 100.532 9.06763V15.5988C100.532 15.9138 100.782 16.0822 101.019 16.0822H101.799C102.025 16.0822 102.264 15.9111 102.264 15.5988V9.06763C102.264 6.72944 101.024 5.3879 98.8593 5.3879H98.8566Z" fill="#1BAECA"/>
  <path d="M112.196 5.38788C111.378 5.38788 110.632 5.68117 110.137 6.18357C109.634 5.66759 108.84 5.38788 107.856 5.38788C107.187 5.38788 106.564 5.57798 106.11 5.90114C106.061 5.65673 105.851 5.52909 105.656 5.52909H104.856C104.63 5.52909 104.391 5.70018 104.391 6.0152V15.6015C104.391 15.9165 104.641 16.0849 104.875 16.0849H105.615C105.86 16.0849 106.121 15.9138 106.121 15.6015V9.02959C106.121 7.73422 106.697 7.07702 107.837 7.07702C108.908 7.07702 109.292 7.7668 109.292 8.41042V15.6015C109.292 15.9165 109.542 16.0849 109.776 16.0849H110.496C110.73 16.0849 110.98 15.9138 110.98 15.6015V8.41042C110.98 7.62559 111.481 7.07702 112.196 7.07702C113.295 7.07702 113.852 7.73422 113.852 9.02959V15.6015C113.852 15.9165 114.103 16.0849 114.336 16.0849H115.095C115.329 16.0849 115.579 15.9138 115.579 15.6015V9.02959C115.579 6.68054 114.377 5.38788 112.193 5.38788H112.196Z" fill="#1BAECA"/>
  <path d="M121.073 5.38788C118.881 5.38788 117.407 6.84348 117.407 9.00787V12.8424C117.407 14.8004 118.881 16.2234 120.912 16.2234C123.074 16.2234 124.418 14.928 124.418 12.8424C124.418 12.6414 124.277 12.4948 124.138 12.4378C124.105 12.4242 124.067 12.416 124.032 12.416H123.113C123.083 12.416 123.05 12.4215 123.023 12.4323C122.865 12.4839 122.707 12.6306 122.707 12.8424C122.707 13.9178 122.052 14.5343 120.912 14.5343C119.874 14.5343 119.194 13.8798 119.139 12.8424V11.7018L123.51 10.8844C124.081 10.7703 124.421 10.3766 124.421 9.82528V8.34796C124.421 6.65881 122.982 5.38516 121.076 5.38516L121.073 5.38788ZM120.975 7.07702C122.049 7.07702 122.691 7.56856 122.691 8.39141V9.31474L119.142 9.98551V9.01058C119.142 7.72879 119.759 7.07702 120.978 7.07702H120.975Z" fill="#1BAECA"/>
  <path d="M130.113 5.38788C129.381 5.38788 128.747 5.57254 128.272 5.91743C128.228 5.66488 128.016 5.52909 127.815 5.52909H127.015C126.789 5.52909 126.55 5.70018 126.55 6.0152V15.6015C126.55 15.9165 126.8 16.0849 127.037 16.0849H127.777C128.021 16.0849 128.282 15.9138 128.282 15.6015V9.07033C128.282 8.32623 128.514 7.07702 130.058 7.07702C131.222 7.07702 131.812 7.7478 131.812 9.07033V15.6015C131.812 15.9165 132.063 16.0849 132.297 16.0849H133.055C133.292 16.0849 133.542 15.9138 133.542 15.6015V9.07033C133.542 6.83533 132.196 5.39059 130.115 5.39059L130.113 5.38788Z" fill="#1BAECA"/>
  <path d="M139.112 7.39477C139.427 7.39477 139.596 7.14493 139.596 6.90867V6.17001C139.596 5.94461 139.425 5.70563 139.112 5.70563H137.298V2.41424C137.298 2.09922 137.048 1.92813 136.811 1.92813H136.031C135.805 1.92813 135.565 2.09922 135.565 2.41424V12.7609C135.565 15.0258 136.634 16.0822 138.932 16.0822H139.052C139.367 16.0822 139.536 15.8324 139.536 15.5988V14.8602C139.536 14.6347 139.367 14.3958 139.052 14.3958H138.938C137.708 14.3768 137.298 14.1378 137.298 12.7637V7.39749H139.112V7.39477Z" fill="#1BAECA"/>
  <path d="M182.573 22.8931C182.519 22.8931 182.478 22.8768 182.446 22.8469C182.413 22.8143 182.397 22.7736 182.397 22.7193V17.8284H180.827C180.776 17.8284 180.732 17.8121 180.7 17.7822C180.67 17.7496 180.653 17.7089 180.653 17.6546V17.5351C180.653 17.478 180.67 17.4319 180.7 17.402C180.732 17.3694 180.773 17.3558 180.827 17.3558H184.455C184.512 17.3558 184.559 17.3721 184.591 17.402C184.621 17.4346 184.637 17.478 184.637 17.5351V17.6546C184.637 17.7089 184.621 17.7496 184.591 17.7822C184.559 17.8148 184.515 17.8284 184.455 17.8284H182.894V22.7193C182.894 22.7709 182.878 22.8143 182.845 22.8469C182.815 22.8795 182.769 22.8931 182.712 22.8931H182.571H182.573Z" fill="#067A91"/>
  <path d="M185.861 22.8931C185.81 22.8931 185.766 22.8768 185.731 22.8469C185.698 22.8143 185.679 22.7736 185.679 22.7193V17.5378C185.679 17.4808 185.695 17.4346 185.731 17.4047C185.766 17.3721 185.81 17.3586 185.861 17.3586H186.06C186.114 17.3586 186.152 17.3721 186.179 17.3993C186.207 17.4264 186.223 17.4455 186.226 17.4617L188.023 20.9595L189.829 17.4617C189.84 17.4455 189.856 17.4237 189.881 17.3993C189.905 17.3721 189.943 17.3586 189.995 17.3586H190.185C190.243 17.3586 190.289 17.3748 190.321 17.4047C190.351 17.4373 190.368 17.4808 190.368 17.5378V22.7193C190.368 22.7709 190.351 22.8143 190.321 22.8469C190.289 22.8795 190.245 22.8931 190.185 22.8931H190.044C189.99 22.8931 189.949 22.8768 189.916 22.8469C189.884 22.817 189.87 22.7736 189.87 22.7193V18.4312L188.355 21.4049C188.333 21.4592 188.303 21.4972 188.265 21.5244C188.227 21.5515 188.176 21.5651 188.11 21.5651H187.936C187.874 21.5651 187.822 21.5515 187.787 21.5244C187.751 21.4972 187.719 21.4592 187.692 21.4049L186.177 18.4312V22.7193C186.177 22.7709 186.16 22.8143 186.131 22.8469C186.101 22.8795 186.057 22.8931 186.003 22.8931H185.859H185.861Z" fill="#067A91"/>
</svg>
