<svg xmlns="http://www.w3.org/2000/svg" width="203" height="60" viewBox="0 0 203 60" fill="none">
  <path d="M64.264 3.58636C63.673 3.58636 62.9432 3.82091 62.4503 4.18364V4.16727C62.4503 3.87273 62.2189 3.71727 62.001 3.71727H61.2766C61.067 3.71727 60.8437 3.87546 60.8437 4.16727V17.0291C60.8437 17.3209 61.0751 17.4791 61.293 17.4791H62.0173C62.227 17.4791 62.4476 17.3209 62.4476 17.0291V13.0882C62.9351 13.47 63.5641 13.6691 64.2994 13.6691C66.0013 13.6691 67.3847 12.1255 67.3847 10.2273V7.01182C67.3847 4.89818 66.1892 3.58636 64.2612 3.58636H64.264ZM65.7808 7.01182V10.2273C65.7808 11.2582 65.0591 12.0982 64.1714 12.0982C63.0413 12.0982 62.4503 11.1464 62.4503 10.2082V7.01182C62.4503 5.92091 63.1366 5.15727 64.1169 5.15727C65.4921 5.15727 65.7808 6.16636 65.7808 7.01182Z" fill="#1BAECA"/>
  <path d="M72.2047 3.58636C70.3883 3.58636 69.1194 4.78091 69.1194 6.49091C69.1194 6.67909 69.2501 6.81546 69.3781 6.86727C69.4107 6.88091 69.4434 6.88636 69.4761 6.88636H70.3666C70.3938 6.88636 70.4237 6.88091 70.451 6.87273C70.5953 6.82364 70.7424 6.68727 70.7424 6.49091C70.7424 5.64273 71.2761 5.15727 72.2047 5.15727C73.1333 5.15727 73.727 5.78727 73.776 6.71455V7.52727L71.287 8.11091C69.5877 8.52546 68.8961 9.33818 68.8961 10.9145C68.8961 12.6136 70.0425 13.6691 71.8888 13.6691C72.4471 13.6691 73.1714 13.5545 73.776 13.0855C73.776 13.38 74.0074 13.5382 74.2253 13.5382H74.9497C75.1593 13.5382 75.3826 13.38 75.3826 13.0882V7.01182C75.3826 4.64727 73.7869 3.58636 72.2047 3.58636ZM71.8888 12.0982C71.0719 12.0982 70.5027 11.5664 70.5027 10.8027C70.5027 10.3718 70.6225 9.90546 71.5212 9.70364L73.776 9.18273V10.2055C73.776 11.1136 73.0543 12.0955 71.8888 12.0955V12.0982Z" fill="#1BAECA"/>
  <path d="M80.701 3.58636C80.4042 3.58636 79.5654 3.62727 78.95 4.05818C78.8982 3.83455 78.6913 3.71727 78.4925 3.71727H77.8063C77.5884 3.71727 77.3569 3.87546 77.3569 4.16727V13.0882C77.3569 13.38 77.5884 13.5382 77.8063 13.5382H78.4925C78.7212 13.5382 78.9609 13.38 78.9609 13.0882V7.06636C78.9609 5.77091 79.4973 5.19273 80.701 5.19273C80.9924 5.19273 81.1503 4.95 81.1503 4.72364V4.03636C81.1503 3.81818 80.9924 3.58636 80.701 3.58636Z" fill="#1BAECA"/>
  <path d="M88.1788 9.90545H87.5307C87.3128 9.90545 87.0814 10.0691 87.0814 10.3745C87.0814 10.9718 86.7491 12.0982 85.491 12.0982C84.4372 12.0982 83.8081 11.3345 83.8081 10.0582V7.30636C83.8081 5.82 84.3282 5.15454 85.491 5.15454C86.7519 5.15454 86.9588 6.12545 86.9915 6.43091C87.0187 6.61909 87.114 6.71454 87.1876 6.76091C87.2883 6.82363 87.4136 6.83454 87.5252 6.79909L88.236 6.60545C88.4756 6.51545 88.5682 6.33272 88.5165 6.07363C88.2632 4.46727 87.1876 3.58363 85.491 3.58363C83.9906 3.58363 82.2014 4.22182 82.2014 7.26818V10.0555C82.2014 12.3491 83.3996 13.6664 85.491 13.6664C87.6886 13.6664 88.688 11.9782 88.688 10.41C88.688 10.1073 88.4838 9.90273 88.1815 9.90273L88.1788 9.90545Z" fill="#1BAECA"/>
  <path d="M94.0608 3.58636C93.606 3.58636 92.8898 3.64636 92.3588 3.97364V0.45C92.3588 0.158182 92.1274 0 91.9095 0H91.1851C90.9755 0 90.7549 0.158182 90.7549 0.45V13.0882C90.7549 13.38 90.9864 13.5382 91.2042 13.5382H91.9095C92.1274 13.5382 92.3588 13.38 92.3588 13.0882V7.01182C92.3588 5.83364 92.9797 5.15727 94.0608 5.15727C95.2073 5.15727 95.6157 6.15545 95.6157 7.01182V13.0882C95.6157 13.38 95.8472 13.5382 96.0651 13.5382H96.7894C96.9991 13.5382 97.2197 13.38 97.2197 13.0882V7.01182C97.2197 4.83545 96.0678 3.58636 94.0608 3.58636Z" fill="#1BAECA"/>
  <path d="M106.435 3.58636C105.675 3.58636 104.986 3.85909 104.526 4.32818C104.06 3.84818 103.322 3.58636 102.407 3.58636C101.786 3.58636 101.209 3.76364 100.787 4.06364C100.741 3.83727 100.547 3.71727 100.365 3.71727H99.6215C99.4118 3.71727 99.1885 3.87546 99.1885 4.16727V13.0882C99.1885 13.38 99.42 13.5382 99.6379 13.5382H100.324C100.553 13.5382 100.792 13.38 100.792 13.0882V6.97364C100.792 5.76818 101.329 5.15727 102.383 5.15727C103.379 5.15727 103.733 5.79818 103.733 6.39818V13.0882C103.733 13.38 103.965 13.5382 104.183 13.5382H104.853C105.071 13.5382 105.302 13.38 105.302 13.0882V6.39818C105.302 5.66727 105.765 5.15727 106.429 5.15727C107.448 5.15727 107.965 5.76818 107.965 6.97364V13.0882C107.965 13.38 108.197 13.5382 108.415 13.5382H109.12C109.338 13.5382 109.569 13.38 109.569 13.0882V6.97364C109.569 4.78909 108.455 3.58636 106.429 3.58636H106.435Z" fill="#1BAECA"/>
  <path d="M114.672 3.58636C112.638 3.58636 111.271 4.93909 111.271 6.95455V10.5218C111.271 12.3436 112.638 13.6664 114.523 13.6664C116.53 13.6664 117.774 12.4609 117.774 10.5218C117.774 10.3336 117.643 10.1973 117.515 10.1455C117.485 10.1318 117.45 10.1264 117.417 10.1264H116.565C116.538 10.1264 116.508 10.1318 116.481 10.14C116.336 10.1891 116.189 10.3255 116.189 10.5218C116.189 11.5227 115.582 12.0955 114.523 12.0955C113.559 12.0955 112.927 11.4873 112.878 10.5218V9.46091L116.933 8.7C117.461 8.59364 117.777 8.22546 117.777 7.71546V6.34091C117.777 4.77 116.443 3.58636 114.672 3.58636ZM114.58 5.15727C115.577 5.15727 116.17 5.61273 116.17 6.37909V7.23818L112.878 7.86273V6.95727C112.878 5.76546 113.45 5.16 114.58 5.16V5.15727Z" fill="#1BAECA"/>
  <path d="M123.057 3.58636C122.376 3.58636 121.791 3.75818 121.347 4.07727C121.306 3.84272 121.11 3.71454 120.922 3.71454H120.179C119.969 3.71454 119.746 3.87272 119.746 4.16454V13.0855C119.746 13.3773 119.977 13.5355 120.195 13.5355H120.881C121.11 13.5355 121.35 13.3773 121.35 13.0855V7.00909C121.35 6.31636 121.565 5.15454 122.997 5.15454C124.078 5.15454 124.626 5.77909 124.626 7.00909V13.0855C124.626 13.3773 124.857 13.5355 125.075 13.5355H125.78C125.998 13.5355 126.23 13.3773 126.23 13.0855V7.00909C126.23 4.92818 124.982 3.58363 123.052 3.58363L123.057 3.58636Z" fill="#1BAECA"/>
  <path d="M131.406 5.45455C131.698 5.45455 131.856 5.22273 131.856 5.00455V4.31727C131.856 4.10727 131.698 3.88637 131.406 3.88637H129.723V0.820911C129.723 0.529092 129.492 0.370911 129.274 0.370911H128.55C128.34 0.370911 128.119 0.529092 128.119 0.820911V10.4482C128.119 12.5564 129.111 13.5382 131.243 13.5382H131.355C131.649 13.5382 131.804 13.3064 131.804 13.0882V12.4009C131.804 12.1909 131.646 11.9673 131.355 11.9673H131.248C130.107 11.9509 129.726 11.7273 129.726 10.4482V5.45455H131.409H131.406Z" fill="#1BAECA"/>
  <path d="M195.504 20.7954C195.455 20.7954 195.414 20.7818 195.387 20.7518C195.357 20.7218 195.343 20.6836 195.343 20.6345V16.0854H193.889C193.84 16.0854 193.802 16.0718 193.772 16.0418C193.742 16.0118 193.729 15.9736 193.729 15.9245V15.8127C193.729 15.7582 193.745 15.7173 193.772 15.6873C193.802 15.6573 193.84 15.6436 193.889 15.6436H197.255C197.31 15.6436 197.35 15.6573 197.38 15.6873C197.41 15.7173 197.424 15.7582 197.424 15.8127V15.9245C197.424 15.9736 197.408 16.0118 197.38 16.0418C197.35 16.0718 197.31 16.0854 197.255 16.0854H195.809V20.6345C195.809 20.6836 195.793 20.7218 195.766 20.7518C195.736 20.7818 195.695 20.7954 195.64 20.7954H195.51H195.504Z" fill="#067A91"/>
  <path d="M198.554 20.7954C198.505 20.7954 198.464 20.7818 198.434 20.7518C198.402 20.7218 198.388 20.6836 198.388 20.6345V15.8127C198.388 15.7582 198.404 15.7173 198.434 15.6873C198.467 15.6573 198.508 15.6436 198.554 15.6436H198.739C198.788 15.6436 198.826 15.6545 198.851 15.6818C198.875 15.7064 198.889 15.7254 198.894 15.7391L200.564 18.9927L202.241 15.7391C202.252 15.7254 202.266 15.7036 202.288 15.6818C202.309 15.6573 202.345 15.6436 202.394 15.6436H202.571C202.625 15.6436 202.666 15.6573 202.696 15.6873C202.726 15.7173 202.74 15.7582 202.74 15.8127V20.6345C202.74 20.6836 202.723 20.7218 202.696 20.7518C202.666 20.7818 202.625 20.7954 202.571 20.7954H202.44C202.391 20.7954 202.353 20.7818 202.323 20.7518C202.293 20.7218 202.279 20.6836 202.279 20.6345V16.6445L200.874 19.4127C200.855 19.4618 200.828 19.5 200.79 19.5245C200.752 19.5491 200.705 19.5627 200.645 19.5627H200.485C200.425 19.5627 200.379 19.5491 200.346 19.5245C200.313 19.5 200.283 19.4645 200.259 19.4127L198.854 16.6445V20.6345C198.854 20.6836 198.84 20.7218 198.81 20.7518C198.78 20.7818 198.742 20.7954 198.693 20.7954H198.56H198.554Z" fill="#067A91"/>
  <path d="M76.9267 48.9601C76.9267 49.4564 76.4311 49.4564 76.4311 49.4564H74.4922C74.4922 49.4564 74.0456 49.4564 74.0456 48.9601V47.2201C72.458 49.3583 70.2222 49.8055 68.4849 49.8055C64.0162 49.8055 60.8872 46.3255 60.8872 41.7492V32.6483C60.8872 28.0228 63.4688 24.2455 68.6837 24.2455C70.6198 24.2455 73.1524 25.091 74.0456 26.5337V17.9074C74.0456 17.4083 74.4922 17.4083 74.4922 17.4083H76.4774C76.7279 17.4083 76.924 17.6074 76.924 17.9074V48.9628L76.9267 48.9601ZM74.0483 32.6483C74.0483 28.3228 71.0691 27.0301 68.6864 27.0301C65.3587 27.0301 63.7711 29.2664 63.7711 32.6483V41.7492C63.7711 44.6837 65.7563 47.021 68.4876 47.021C71.7145 47.021 74.0483 45.3301 74.0483 41.7492V32.6483Z" fill="#067A91"/>
  <path d="M87.4054 20.2173C87.4054 20.7164 86.9588 20.7164 86.9588 20.7164H84.3772C84.3772 20.7164 83.8789 20.7164 83.8789 20.2173V17.9045C83.8789 17.4055 84.3255 17.4055 84.3255 17.4055H86.9071C86.9071 17.4055 87.4054 17.4055 87.4054 17.9045V20.2173ZM84.1757 25.0909C84.1757 24.5918 84.6223 24.5918 84.6223 24.5918H86.5585C86.5585 24.5918 87.0568 24.5918 87.0568 25.0909V48.96C87.0568 49.4564 86.6102 49.4564 86.6102 49.4564H84.6741C84.6741 49.4564 84.1757 49.4564 84.1757 48.96V25.0909Z" fill="#067A91"/>
  <path d="M106.124 24.2455C109.153 24.2455 109.104 23.55 110.046 22.4045C110.343 22.0064 110.691 22.3036 110.691 22.3036L112.129 23.5473C112.129 23.5473 112.478 23.8445 112.178 24.2918L111.731 24.8891C110.887 25.9827 109.447 26.6809 107.709 26.6809C109.395 27.6245 110.043 30.7091 110.043 33.0955V34.8845C110.043 39.0136 107.263 42.3927 102.296 42.3927C100.21 42.3927 99.2185 41.9945 98.7719 41.8445L97.2333 44.0836C96.5362 45.1282 96.3401 46.2218 98.2763 46.2218L105.675 46.0227C108.853 46.0227 111.337 46.1727 111.138 51.6409C110.939 56.6127 108.406 59.9945 101.454 59.9945C96.2911 59.9945 94.2052 57.7554 94.2052 54.1773C94.2052 52.0882 95.1501 50.1 96.3401 48.5591C92.9117 47.5145 93.8076 44.6318 94.6518 43.2382C95.643 41.6482 96.4899 40.6527 96.4899 40.6527C94.1044 38.8636 94.1044 36.3764 94.1044 34.5845V33.0927C94.1044 27.9218 96.8357 24.24 101.901 24.24H106.122L106.124 24.2455ZM99.1232 49.0091C99.1232 49.0091 96.8902 51.2455 96.8902 54.1309C96.8902 56.7682 99.4227 57.4636 101.46 57.4636C105.73 57.4636 108.112 55.4755 108.262 51.8945C108.36 49.9555 108.112 48.8127 105.629 48.8127L99.1232 49.0118V49.0091ZM107.167 34.8873V33.0982C107.167 29.7164 106.124 27.03 101.955 27.03C98.0312 27.03 96.9882 30.1118 96.9882 33.0982V34.8873C96.9882 38.2691 98.9271 39.6109 102.301 39.6109C105.081 39.6109 107.167 37.92 107.167 34.8873Z" fill="#067A91"/>
  <path d="M121.813 20.2173C121.813 20.7164 121.366 20.7164 121.366 20.7164H118.784C118.784 20.7164 118.289 20.7164 118.289 20.2173V17.9045C118.289 17.4055 118.735 17.4055 118.735 17.4055H121.317C121.317 17.4055 121.813 17.4055 121.813 17.9045V20.2173ZM118.588 25.0909C118.588 24.5918 119.035 24.5918 119.035 24.5918H120.971C120.971 24.5918 121.469 24.5918 121.469 25.0909V48.96C121.469 49.4564 121.023 49.4564 121.023 49.4564H119.084C119.084 49.4564 118.588 49.4564 118.588 48.96V25.0909Z" fill="#067A91"/>
  <path d="M137.307 49.4564C132.392 49.4564 129.661 47.4682 129.661 41.8991V17.9809C129.661 17.4818 130.107 17.4818 130.107 17.4818H132.046C132.046 17.4818 132.542 17.4818 132.542 17.9809V25.0418H137.757C138.255 25.0418 138.255 25.4891 138.255 25.4891V27.33C138.255 27.33 138.255 27.8264 137.757 27.8264H132.542V41.8991C132.542 45.8264 133.982 46.6227 137.31 46.6718H137.607C138.105 46.6718 138.105 47.1191 138.105 47.1191V48.96C138.105 48.96 138.105 49.4564 137.607 49.4564H137.31H137.307Z" fill="#067A91"/>
  <path d="M142.52 43.1427C142.52 39.4636 143.911 37.4236 148.377 36.33L155.577 34.6391V31.9036C155.427 29.1191 153.54 27.03 150.662 27.03C147.783 27.03 146.046 28.7209 146.046 31.3064C146.046 31.5545 145.749 31.6555 145.749 31.6555H143.364C143.364 31.6555 143.116 31.5545 143.116 31.3064C143.116 26.9809 146.392 24.2455 150.662 24.2455C154.932 24.2455 158.458 26.9291 158.458 32.7V48.9627C158.458 49.4591 158.012 49.4591 158.012 49.4591H156.073C156.073 49.4591 155.577 49.4591 155.577 48.9627V47.2227C153.987 49.3609 151.555 49.8082 149.818 49.8082C145.199 49.8082 142.517 47.2227 142.517 43.1455L142.52 43.1427ZM155.577 41.2527V37.6227L148.674 39.2127C145.793 39.8591 145.398 41.55 145.398 42.8427C145.398 45.18 147.135 47.0209 149.818 47.0209C153.192 47.0209 155.577 44.2364 155.577 41.2527Z" fill="#067A91"/>
  <path d="M167.793 32.8473V48.96C167.793 49.4564 167.249 49.4564 167.249 49.4564H165.41C165.41 49.4564 164.912 49.4564 164.912 48.96V25.0909C164.912 24.5918 165.41 24.5918 165.41 24.5918H167.249C167.249 24.5918 167.793 24.5918 167.793 25.0909V26.5336C168.836 24.7418 171.369 24.2455 173.158 24.2455C173.656 24.2455 173.656 24.7418 173.656 24.7418V26.5827C173.656 26.5827 173.656 27.1309 173.158 27.1309C169.433 27.1309 167.793 29.1191 167.793 32.85V32.8473Z" fill="#067A91"/>
  <path d="M176.085 25.0909C175.935 24.5918 176.434 24.5918 176.434 24.5918H178.667C178.667 24.5918 179.064 24.5918 179.165 25.0909L183.833 45.6791H184.331L189.892 25.0909C189.99 24.5918 190.39 24.5918 190.39 24.5918H192.574C192.574 24.5918 193.072 24.5918 192.923 25.0909L184.829 54.1309C183.49 59.0046 180.66 60 177.779 60H177.234C176.736 60 176.736 59.4518 176.736 59.4518V57.7118C176.736 57.7118 176.736 57.2155 177.234 57.2155C178.822 57.2155 181.355 57.3136 182.15 54.0327L183.293 49.4564H182.349C182.349 49.4564 182 49.4564 181.801 48.96L176.091 25.0909H176.085Z" fill="#067A91"/>
  <path d="M180.273 42.6055L182.591 52.2382L183.811 49.4564L182.626 47.16L180.273 42.6055Z" fill="#067A91"/>
  <path d="M35.3522 23.6645L25.7721 6.79364L15.9523 23.6455C15.7808 23.94 15.4023 24.0409 15.1082 23.8691L14.5744 23.5582C14.2803 23.3864 14.1796 23.0073 14.3511 22.7127L24.9796 4.46727C25.1485 4.18091 25.4371 4.00909 25.7857 4.00636C26.1179 4.00636 26.4229 4.18636 26.5863 4.47545L36.9643 22.7455C37.1331 23.0427 37.0296 23.4191 36.7328 23.5882L36.1936 23.8936C35.8968 24.0627 35.5183 23.9591 35.3494 23.6618L35.3522 23.6645Z" fill="#067A91"/>
  <path d="M50.0218 49.0964L28.969 48.9818C28.6286 48.9818 28.3536 48.7009 28.3536 48.36L28.3618 46.8573C28.3618 46.5164 28.6423 46.2409 28.9827 46.2409L47.6663 46.3418L38.3612 29.9618C38.1924 29.6645 38.2959 29.2854 38.5927 29.1191L39.8971 28.3745C40.1939 28.2054 40.5724 28.3091 40.7386 28.6064L51.2118 47.0482C51.4542 47.4736 51.4488 47.9973 51.2037 48.4173C50.9586 48.8373 50.5065 49.0964 50.0218 49.0964Z" fill="#1BAECA"/>
  <path d="M23.0353 48.3218C23.0353 48.6627 22.7548 48.9382 22.4144 48.9382L1.3616 48.8236C0.874158 48.8236 0.422113 48.5564 0.179752 48.1336C-0.0626101 47.7082 -0.0598869 47.1845 0.187921 46.7645L10.8192 28.5218C10.9907 28.2273 11.3692 28.1264 11.6633 28.2982L12.9596 29.0564C13.2537 29.2282 13.3544 29.6073 13.1829 29.9018L3.74437 46.0964L22.428 46.1973C22.7684 46.1973 23.0434 46.4782 23.0434 46.8191L23.0353 48.3218Z" fill="#1BAECA"/>
</svg>
