<svg xmlns="http://www.w3.org/2000/svg" version="1.1" viewBox="0 0 143 40">
  <path fill="#FFFFFF" d="M51.2,8.7v4.6h-1.5V2.1h4.1c2.1,0,3.5,1.4,3.5,3.3s-1.4,3.3-3.5,3.3h-2.5,0ZM53.4,7.3c1.3,0,2.2-.7,2.2-1.9s-.8-1.9-2.2-1.9h-2.2v3.8h2.2Z"/>
  <path fill="#FFFFFF" d="M63.1,12.1c-.4.7-1.2,1.4-2.3,1.4-2.2,0-3.6-1.8-3.6-4s1.5-3.9,3.6-3.9,2.1.7,2.3,1.3v-1.1h1.5v6.2c0,.7,0,1.3,0,1.4h-1.4c0-.2,0-.6,0-1h0ZM60.8,12.2c1.4,0,2.2-1.2,2.2-2.7s-.8-2.6-2.2-2.6-2.2,1.1-2.2,2.6.8,2.7,2.2,2.7Z"/>
  <path fill="#FFFFFF" d="M70.4,7.2c-.2,0-.4,0-.6,0-1.2,0-2.1.7-2.1,2.3v3.8h-1.5v-7.6h1.5v1.3c.6-1.2,1.5-1.5,2.3-1.5s.4,0,.5,0v1.6h0Z"/>
  <path fill="#FFFFFF" d="M72.1,9.5c0,1.7,1.1,2.7,2.3,2.7s1.9-1,2.1-1.6l1.3.6c-.4,1.1-1.5,2.4-3.4,2.4s-3.8-1.7-3.8-4,1.7-4,3.8-4,3.1,1.3,3.4,2.4l-1.3.6c-.2-.7-.7-1.6-2-1.6s-2.3.9-2.3,2.6h0Z"/>
  <path fill="#FFFFFF" d="M80.3,13.3h-1.5V1.9h1.5v4.7c.6-.8,1.4-1.1,2.3-1.1,1.8,0,2.7,1.3,2.7,3v4.8h-1.5v-4.6c0-1.1-.4-1.9-1.8-1.9s-1.7.9-1.8,2v4.5h0Z"/>
  <path fill="#FFFFFF" d="M87,13.3v-7.6h1.4v1c.5-.8,1.4-1.2,2.3-1.2s1.9.5,2.3,1.4c.6-1.1,1.6-1.4,2.5-1.4s2.6.9,2.6,2.9v4.9h-1.5v-4.8c0-1-.5-1.7-1.6-1.7s-1.8.8-1.8,1.9v4.6h-1.5v-4.8c0-1-.5-1.7-1.6-1.7s-1.8.8-1.8,1.9v4.6h-1.5,0Z"/>
  <path fill="#FFFFFF" d="M106.4,11.1c-.4,1.3-1.6,2.4-3.4,2.4s-3.8-1.5-3.8-4,1.7-4,3.6-4,3.6,1.6,3.6,4,0,.4,0,.5h-5.7c0,1.4,1,2.3,2.3,2.3s1.8-.7,2.1-1.5l1.3.4ZM104.9,8.7c0-1.1-.7-1.9-2.1-1.9s-2,1-2.1,1.9h4.2Z"/>
  <path fill="#FFFFFF" d="M109.1,13.3h-1.5v-7.6h1.5v1.1c.6-.9,1.5-1.3,2.3-1.3,1.8,0,2.7,1.3,2.7,3v4.8h-1.5v-4.6c0-1.1-.4-1.9-1.8-1.9s-1.8.9-1.8,2.1v4.4Z"/>
  <path fill="#FFFFFF" d="M117.8,5.7h1.6v1.3h-1.6v3.9c0,.7.3,1,1.1,1s.5,0,.6,0v1.3c-.1,0-.5.1-1,.1-1.3,0-2.1-.8-2.1-2.2v-4.2h-1.5v-1.3h.4c.8,0,1.2-.5,1.2-1.2v-1.2h1.4v2.4h0Z"/>
  <path fill="#FFFFFF" d="M52.4,28.4v6.3h-2.7v-16.2h6c3.1,0,5.2,2.1,5.2,4.9s-2.1,4.9-5.2,4.9h-3.3ZM55.2,26c1.7,0,2.8-1,2.8-2.5s-1.1-2.5-2.8-2.5h-2.8v5h2.8Z"/>
  <path fill="#FFFFFF" d="M66.1,35c-3.3,0-5.4-2.6-5.4-5.9s2.1-5.8,5.3-5.8,3,1,3.3,1.8v-1.5h2.6v9.1c0,.9,0,1.8.1,2h-2.5c0-.3-.1-.8-.1-1.6-.5,1.1-1.7,1.9-3.3,1.9h0ZM66.4,32.7c1.7,0,2.9-1.5,2.9-3.6s-1.2-3.5-2.9-3.5-3,1.4-3,3.5,1.2,3.6,3,3.6Z"/>
  <path fill="#FFFFFF" d="M77.6,23.6h2.3v2.3h-2.3v5.1c0,1,.4,1.4,1.4,1.4s.8,0,.9,0v2.2c-.2,0-.7.3-1.6.3-2.1,0-3.3-1.2-3.3-3.3v-5.6h-2.1v-2.3h.6c1.2,0,1.7-.8,1.7-1.7v-1.7h2.4v3.4h0Z"/>
  <path fill="#FFFFFF" d="M84.1,34.7h-2.6v-16.5h2.6v6.5c.8-1,2-1.4,3.2-1.4,2.7,0,4.1,2,4.1,4.4v7h-2.6v-6.6c0-1.4-.6-2.5-2.3-2.5s-2.3,1.1-2.3,2.5v6.5h0Z"/>
  <path fill="#FFFFFF" d="M102.6,23.6l2.6,7.7,2.2-7.7h2.7l-3.6,11.1h-2.6l-2.8-8-2.7,8h-2.7l-3.6-11.1h2.8l2.3,7.7,2.6-7.7h2.7Z"/>
  <path fill="#FFFFFF" d="M115.7,35c-3.3,0-5.4-2.6-5.4-5.9s2.1-5.8,5.3-5.8,3,1,3.3,1.8v-1.5h2.6v9.1c0,.9,0,1.8.1,2h-2.5c0-.3-.1-.8-.1-1.6-.5,1.1-1.7,1.9-3.3,1.9h0ZM116,32.7c1.7,0,2.9-1.5,2.9-3.6s-1.2-3.5-2.9-3.5-3,1.4-3,3.5,1.2,3.6,3,3.6Z"/>
  <path fill="#FFFFFF" d="M124.5,39.2l2.7-5.8-4.7-9.8h3l3.2,7,3-7h2.8l-7.1,15.6h-2.8,0Z"/>
  <path fill="#FFFFFF" d="M136.5,31c0,1,.8,1.9,2.3,1.9s1.7-.6,1.7-1.3-.4-1.1-1.3-1.2l-1.6-.4c-2-.4-3-1.7-3-3.2s1.8-3.6,4.1-3.6,4.1,2,4.3,3.1l-2.2.6c0-.6-.6-1.7-2.1-1.7s-1.6.6-1.6,1.3.4,1,1.1,1.2l1.7.3c2.1.5,3.2,1.7,3.2,3.4s-1.4,3.6-4.2,3.6-4.4-2.1-4.6-3.3l2.3-.6h0Z"/>
  <path fill="#FFFFFF" d="M8.1,32c0,0-.1,0-.2,0-1.4-.3-3.1-.6-4.2-2.1-1.1-1.5-.9-3.2-.7-4.6,0-.5.2-1.2.1-1.5,0-.2-.6-.7-.9-1-1-1-2.2-2.3-2.2-4.2s1.2-3.2,2.2-4.2c.3-.3.8-.8.9-1.1,0-.2,0-1-.1-1.4-.2-1.4-.4-3.1.7-4.6,1.1-1.5,2.8-1.8,4.2-2.1.5,0,1.2-.2,1.4-.3.2-.1.5-.8.7-1.2.7-1.3,1.5-2.8,3.3-3.4.4-.1.8-.2,1.3-.2,1.3,0,2.3.5,3.3,1,.4.2,1.2.6,1.4.6s1-.4,1.4-.6c1-.5,2.1-1,3.3-1s.9,0,1.3.2c1.8.6,2.6,2.2,3.3,3.4.3.6.6,1.1.9,1.3.4.5.4,1.2,0,1.6-.5.4-1.2.4-1.6,0-.5-.5-1-1.3-1.2-1.8-.5-1-1.1-2-2-2.3-.8-.3-1.9.2-2.9.7-.8.4-1.6.8-2.4.8s-1.6-.4-2.4-.8c-1.1-.5-2.1-1-2.9-.7-.9.3-1.5,1.3-2,2.3-.4.8-.8,1.5-1.4,2-.6.4-1.4.6-2.3.7-1.1.2-2.2.4-2.8,1.2-.6.8-.4,1.9-.3,3,.1.9.2,1.8,0,2.5-.2.7-.8,1.3-1.4,1.9-.8.8-1.6,1.7-1.6,2.7s.8,1.8,1.6,2.7c.6.6,1.2,1.2,1.4,1.9.2.7.1,1.6,0,2.5-.2,1.1-.3,2.2.3,3,.6.8,1.7,1,2.8,1.2.6.1,1,.7.9,1.3-.1.5-.6.9-1.1.9h0Z"/>
  <path fill="#FFFFFF" d="M36.1,40c-.4,0-.7-.1-1-.4l-7.5-5.5c-.5-.4-.7-.9-.7-1.4V10.9h-13.3v20.9c0,.6-.5,1.1-1.1,1.1s-1.1-.5-1.1-1.1V10.5c0-1,.8-1.8,1.8-1.8h14.2c1,0,1.8.8,1.8,1.8v22l6.4,4.7V8.4l-3.5,1.9c-.5.3-1.2,0-1.5-.5-.3-.5,0-1.2.5-1.5l4.5-2.4c.8-.4,1.4-.2,1.7,0,.5.3.7.8.7,1.3v31.2c0,.6-.4,1.2-.9,1.5-.2.1-.5.2-.7.2ZM36.4,37.8h0s0,0,0,0Z"/>
</svg>
