<svg xmlns="http://www.w3.org/2000/svg" version="1.1" x="0px" y="0px" viewBox="0 0 457.2 85.7" style="enable-background:new 0 0 457.2 85.7;">
  <path fill="#555555" d="M136,38.4v15.5c0,4,2.8,7,7.2,7c3.6,0,6.1-2.1,6.1-7V38.4c0-4.2-1.8-7.2-6.4-7.2C137.8,31.2,136,35,136,38.4     M133.8,24.6c1.3,0,2.3,1,2.3,2.5v0.5c1.2-1.8,4.3-3.6,7.9-3.6c8.1,0,13.1,5.1,13.1,15v14.5c0,8.2-5.3,14.6-12.8,14.6    c-3.2,0-7-1.4-8.4-3.9v19c0,1.5-1,2.5-2.3,2.5h-3c-1.3,0-2.3-1-2.3-2.5V27.1c0-1.5,1-2.5,2.3-2.5H133.8z"/>
  <path fill="#555555" d="M172.2,55.4c0,2.8,2.2,5.5,5.5,5.5c4.5,0,7.6-4.2,7.6-8.2v-4.3l-9,2.1C172.8,51.3,172.2,53.8,172.2,55.4     M193.1,39.2V65c0,1.5-1,2.5-2.3,2.5h-3c-1.3,0-2.3-1-2.3-2.5v-0.8c-1.5,2.3-5.2,3.9-8.6,3.9c-6.8,0-12.5-5.4-12.5-12.4    c0-6.7,2.6-10.4,10.6-12.4l10.2-2.5v-3.6c0-3.6-2.7-6.1-6.2-6.1c-4,0-5.7,2-5.7,4.5c0,1.5-1,2.5-2.3,2.5h-3.2    c-1.3,0-2.3-0.9-2.3-2.5c0-7.1,5.8-11.7,13.6-11.7C186.5,24,193.1,28.9,193.1,39.2"/>
  <path fill="#555555" d="M221.4,26.3v2.5c0,1.3-1,2.4-2.5,2.4c-7.7,0-9.1,3.8-9.1,7.2V65c0,1.5-1,2.5-2.3,2.5h-3.2    c-1.3,0-2.3-1-2.3-2.5v-38c0-1.5,1-2.5,2.3-2.5h3.2c1.3,0,2.3,1,2.3,2.5v0.5c2.7-2.7,4-3.6,9.1-3.6C220.4,24,221.4,25,221.4,26.3"/>
  <path fill="#555555" d="M253.7,34.2c0.2,1.1,0.3,2.1-1.8,2.8l-2.9,0.7c-1,0.3-2.5,0.3-2.9-1.9c-0.5-2.6-2-4.5-5.9-4.5    c-4.5,0-6.7,2.7-6.7,8.8v12.7c0,5.7,2.4,8.2,6.7,8.2c4.5,0,6.5-3.4,6.5-6.3c0-2.6,2.5-2.6,2.5-2.6h2.7c1.6,0,2.7,0.8,2.7,2.7    c0,10.2-8.4,13.4-14.3,13.4c-9.4,0-14.5-5.2-14.5-15.4V40c0-11.8,7.6-16.1,14.5-16.1C245.8,24,252.2,26.3,253.7,34.2"/>
  <path fill="#555555" d="M267.6,7.5c1.3,0,2.3,1,2.3,2.5v17.7c0.3-0.9,2.7-3.6,8-3.6c8.1,0,12.8,5.1,12.8,15v26c0,1.5-1,2.5-2.3,2.5    h-3.2c-1.3,0-2.3-1-2.3-2.5V38.5c0-4.2-1.5-7.2-6.1-7.2c-5.1,0-6.9,3.8-6.9,7.2v26.6c0,1.5-1,2.5-2.3,2.5h-3.2    c-1.3,0-2.3-1-2.3-2.5V10c0-1.5,1-2.5,2.3-2.5H267.6z"/>
  <path fill="#555555" d="M305.2,24.7c1.3,0,2.3,1,2.3,2.5v0.6c2.1-3.4,6.2-3.7,7.9-3.7c2.4,0,5.4,0.9,7.5,4.1c2.2-3.4,6.5-4.1,9.3-4.1    c6.8,0,12.8,3,12.8,15v26c0,2.5-2.4,2.5-2.4,2.5h-2.9c0,0-2.5,0-2.5-2.5v-26c0-4.2-0.7-7.8-5-7.8c-2.4,0-5.3,2.5-5.3,5.3v28.5    c0,2.5-2.4,2.5-2.4,2.5h-3c0,0-2.4,0-2.4-2.5V36.6c0-2.3-1.2-5.3-4.9-5.3c-5,0-6.7,4.4-6.7,7.8v26c0,2.5-2.5,2.5-2.5,2.5h-2.9    c0,0-2.4,0-2.4-2.5V27.2c0-1.5,1-2.5,2.3-2.5H305.2z"/>
  <path fill="#555555" d="M361.5,38.4v4.3l13.2-2.6v-3.7c0-3.4-2.7-5.1-6.4-5.1C363.3,31.3,361.5,34.6,361.5,38.4 M382.5,36.4v5.8    c0,2.1-1.1,4.2-4.1,4.7l-16.9,3.2v4.2c0.1,3.6,2.6,6.7,6.6,6.7c5,0,6.6-3.3,6.6-6.5c0-2.6,2.5-2.6,2.5-2.6h2.7    c1.6,0,2.7,0.8,2.7,2.7c0,7.5-5.5,13.7-14.4,13.7c-8.5,0-14.4-5.9-14.4-13.9V39.1c0-8.6,5.3-15,15-15    C376.5,24.1,382.5,28.8,382.5,36.4"/>
  <path fill="#555555" d="M396.5,24.7c1.3,0,2.3,1,2.3,2.5v0.5c0.8-1.2,3.8-3.6,8-3.6c8.1,0,12.8,5.1,12.8,15v26c0,1.5-1,2.5-2.3,2.5    h-3.2c-1.3,0-2.3-1-2.3-2.5V38.5c0-4.2-1.5-7.2-6.1-7.2c-5.1,0-6.9,3.8-6.9,7.2v26.6c0,1.5-1,2.5-2.3,2.5h-3.2    c-1.3,0-2.3-1-2.3-2.5V27.2c0-1.5,1-2.5,2.3-2.5H396.5z"/>
  <path fill="#555555" d="M428.1,25.5V11.6c0-2.4,2.4-2.4,2.4-2.4h2.9c0,0,2.5,0,2.5,2.4v13.8h6.6c2.5,0,2.5,2.4,2.5,2.4v2.3    c0,0,0,2.5-2.5,2.5h-6.6v21.2c0,5,2.4,6.5,5.9,6.5h1.4c2.4,0,2.4,2.3,2.4,2.3v2.4c0,0,0,2.5-2.4,2.5h-1.4    c-8.9,0-13.7-3.6-13.7-13.7V32.7V25.5z"/>
  <path fill="#555555" d="M453,28.9h0.4c0.5,0,0.8-0.2,0.8-0.5c0-0.3-0.2-0.6-0.8-0.6c-0.2,0-0.4,0-0.5,0V28.9z M453,30.9h-0.8v-3.6    c0.3,0,0.8-0.1,1.4-0.1c0.7,0,1,0.1,1.2,0.3c0.2,0.2,0.4,0.4,0.4,0.8c0,0.4-0.3,0.7-0.8,0.9v0c0.4,0.1,0.5,0.4,0.6,0.9    c0.1,0.6,0.2,0.8,0.3,0.9h-0.9c-0.1-0.1-0.2-0.4-0.3-0.9c-0.1-0.4-0.3-0.5-0.7-0.5H453V30.9z M450.7,29c0,1.6,1.2,2.9,2.8,2.9    c1.6,0,2.7-1.3,2.7-2.9c0-1.6-1.2-2.9-2.8-2.9C451.9,26.2,450.7,27.5,450.7,29 M457.2,29c0,2-1.6,3.6-3.7,3.6    c-2.1,0-3.7-1.6-3.7-3.6s1.6-3.6,3.7-3.6C455.6,25.4,457.2,27,457.2,29"/>
  <polygon fill="#555555" points="94.1,77.1 8.4,77.1 8.4,8.6 68.3,8.6 68.3,0 -0.2,0 -0.2,85.7 102.6,85.7 102.6,34.3 94.1,34.3   "/>
  <rect x="94.1" y="17.1" fill="#0091B3" width="8.6" height="8.6"/>
  <rect x="76.9" fill="#0091B3" width="8.6" height="8.6"/>
  <rect x="94.1" fill="#0091B3" width="8.6" height="8.6"/>
  <path fill="#0091B3" d="M32.7,46.3c-1.8,0-2.2,1.3-2.2,2.5v5.4c0,1.4,0.8,2.4,2.3,2.4c1.2,0,1.9-0.7,1.9-2.4v-5.4     C34.7,47.3,34.3,46.3,32.7,46.3z"/>
  <path fill="#0091B3" d="M31.9,38.6c-8.3,0-15,6.7-15,15c0,8.3,6.7,15,15,15c8.3,0,15-6.7,15-15C46.9,45.3,40.2,38.6,31.9,38.6z      M37.9,54c0,2.8-1.9,5-4.5,5c-1.1,0-2.9-0.5-2.9-1.3v6.6c0,0.5-0.6,0.8-1.1,0.8h-1c-0.4,0-1.1-0.3-1.1-0.8V44.9     c0-0.5,0.6-1,1.1-1h1.1c0.4,0,1,0.5,1,1v0.2c0-0.6,1.6-1.2,2.8-1.2c2.8,0,4.6,1.8,4.6,5.2V54z"/>
</svg>
