<svg xmlns="http://www.w3.org/2000/svg" version="1.1" x="0px" y="0px" viewBox="0 0 120.2 120.2" style="enable-background:new 0 0 120.2 120.2;">
  <rect fill="#FFFFFF" width="120.2" height="120.2"/>
  <rect x="62.1" y="50.3" fill="#CFCFCF" width="26.1" height="2.4"/>
  <path fill="#999999" d="M66.4,77.4c0,2.4-0.7,4.3-2.2,5.7c-1.4,1.4-3.4,2.1-5.8,2.1H32.3c-2.4,0-4.3-0.7-5.8-2.1    c-1.5-1.4-2.2-3.3-2.2-5.7c0-1.1,0-2.1,0.1-3.1c0.1-1,0.2-2.1,0.4-3.3c0.2-1.2,0.5-2.2,0.8-3.2c0.3-1,0.7-2,1.3-2.9    c0.5-0.9,1.2-1.7,1.8-2.4c0.7-0.7,1.5-1.2,2.5-1.6c1-0.4,2.1-0.6,3.3-0.6c0.2,0,0.6,0.2,1.3,0.6c0.7,0.4,1.4,0.9,2.2,1.4    c0.8,0.5,1.9,1,3.2,1.4c1.3,0.4,2.6,0.6,4,0.6c1.3,0,2.7-0.2,4-0.6c1.3-0.4,2.4-0.9,3.2-1.4c0.8-0.5,1.6-1,2.2-1.4    c0.7-0.4,1.1-0.6,1.3-0.6c1.2,0,2.3,0.2,3.3,0.6c1,0.4,1.9,0.9,2.5,1.6c0.7,0.7,1.3,1.5,1.8,2.4c0.5,0.9,1,1.9,1.3,2.9    c0.3,1,0.6,2.1,0.8,3.2c0.2,1.2,0.3,2.2,0.4,3.3C66.3,75.4,66.4,76.4,66.4,77.4z M52.9,39c2.1,2.3,3.1,5.1,3.1,8.3s-1,6-3.1,8.3    c-2.1,2.3-4.6,3.4-7.5,3.4c-2.9,0-5.5-1.1-7.5-3.4c-2.1-2.3-3.1-5.1-3.1-8.3s1-6,3.1-8.3c2.1-2.3,4.6-3.4,7.5-3.4    C48.3,35.6,50.8,36.7,52.9,39z"/>
  <rect x="67.2" y="56.9" fill="#CFCFCF" width="21" height="2.4"/>
  <rect x="71.5" y="63.6" fill="#CFCFCF" width="16.7" height="2.4"/>
  <rect x="74.7" y="70.2" fill="#CFCFCF" width="13.5" height="2.4"/>
  <path fill="#999999" d="M92.8,42.5H67.1h-6.2h-2.3c0.3,0.9,0.5,1.9,0.6,2.9h1.7h6.2h25.7c0.6,0,1.1,0.5,1.1,1.1v31.5    c0,0.6-0.5,1.1-1.1,1.1H69.5c-0.1,1-0.4,2-0.8,2.9h24.1c2.2,0,4-1.8,4-4V46.5C96.8,44.3,95,42.5,92.8,42.5z"/>
  <path fill="#CFCFCF" d="M92,41.9H66.4h-6.2h-1.8c0.3,0.9,0.5,1.9,0.7,2.9h1.2h6.2H92c0.6,0,1.1,0.5,1.1,1.1v31.5    c0,0.6-0.5,1.1-1.1,1.1H69.4c-0.1,1-0.3,2-0.6,2.9H92c2.2,0,4-1.8,4-4V45.9C96.1,43.7,94.3,41.9,92,41.9z"/>
  <path fill="#CFCFCF" d="M65.8,76.9c0,2.4-0.7,4.3-2.2,5.7c-1.4,1.4-3.4,2.1-5.8,2.1H31.7c-2.4,0-4.3-0.7-5.8-2.1    c-1.5-1.4-2.2-3.3-2.2-5.7c0-1.1,0-2.1,0.1-3.1c0.1-1,0.2-2.1,0.4-3.3c0.2-1.2,0.5-2.2,0.8-3.2c0.3-1,0.7-2,1.3-2.9    c0.5-0.9,1.2-1.7,1.8-2.4c0.7-0.7,1.5-1.2,2.5-1.6c1-0.4,2.1-0.6,3.3-0.6c0.2,0,0.6,0.2,1.3,0.6c0.7,0.4,1.4,0.9,2.2,1.4    c0.8,0.5,1.9,1,3.2,1.4c1.3,0.4,2.6,0.6,4,0.6c1.3,0,2.7-0.2,4-0.6c1.3-0.4,2.4-0.9,3.2-1.4c0.8-0.5,1.6-1,2.2-1.4    s1.1-0.6,1.3-0.6c1.2,0,2.3,0.2,3.3,0.6c1,0.4,1.9,0.9,2.5,1.6c0.7,0.7,1.3,1.5,1.8,2.4c0.5,0.9,1,1.9,1.3,2.9    c0.3,1,0.6,2.1,0.8,3.2c0.2,1.2,0.3,2.2,0.4,3.3S65.8,75.8,65.8,76.9z M52.3,38.5c2.1,2.3,3.1,5.1,3.1,8.3s-1,6-3.1,8.3    c-2.1,2.3-4.6,3.4-7.5,3.4c-2.9,0-5.5-1.1-7.5-3.4c-2.1-2.3-3.1-5.1-3.1-8.3s1-6,3.1-8.3c2.1-2.3,4.6-3.4,7.5-3.4    C47.7,35,50.2,36.2,52.3,38.5z"/>
</svg>
