<svg xmlns="http://www.w3.org/2000/svg" version="1.1" x="0px" y="0px" viewBox="0 0 126.8 127.3" style="enable-background:new 0 0 126.8 127.3;">
  <path fill="#FFFFFF" d="M115.1,78.3c-1.6-0.8-3.3-1.2-5-1.2l-6.2-18c-2.8-8.8-10.3-10.4-14.2-10h-0.1V22.5h-52v26.6h-0.1   c-3.9-0.4-11.4,1.2-14.2,10c0,0-4.4,12.6-6.2,18c-1.7,0-3.5,0.4-5,1.2c-2.6,1.4-4.5,3.7-5.3,6.5l5.3,1.6c0.4-1.4,1.4-2.5,2.7-3.2   c1.3-0.7,2.8-0.8,4.2-0.4c1.4,0.4,2.6,1.4,3.2,2.7c0.7,1.3,0.8,2.8,0.4,4.1l5.3,1.6c0.9-2.8,0.6-5.8-0.8-8.3   c-0.7-1.4-1.7-2.5-2.9-3.4l6.3-18.1c1.6-5.2,5.8-5,6.6-4.9l0.2,0l0.3,0h0.2V60L31,84.1h-0.2l0.1,0.3l-0.1,0.3H31l0.9,4.1h63.2   l0.9-4.1h0.1L96,84.5l0.1-0.3h-0.2l-6.4-24v-3.6H90l0.3,0c0.8-0.1,4.9-0.3,6.6,4.9l6.3,18.1c-1.2,0.9-2.1,2.1-2.9,3.4   c-1.4,2.6-1.7,5.6-0.8,8.4l5.3-1.6c-0.4-1.4-0.3-2.9,0.4-4.1c0.7-1.3,1.8-2.2,3.2-2.7c1.4-0.4,2.9-0.3,4.2,0.4   c1.3,0.7,2.2,1.8,2.7,3.2l5.3-1.6C119.6,82,117.7,79.7,115.1,78.3z M87.7,66.7H81l-0.7-4.1h6.4L87.7,66.7z M43.4,28.2h39.4v27.3   H43.4V28.2z M39.9,62.6h6.4l-0.7,4.1h-6.6L39.9,62.6z M43.1,80.8h-7.5l1.2-5.3H44L43.1,80.8z M37.4,73.3l1.1-4.6h6.8l-0.8,4.6   L37.4,73.3z M52.7,80.8h-7.5l0.8-5.3h7.2L52.7,80.8z M53.4,73.3h-7.1l0.7-4.6h6.8L53.4,73.3z M54,66.7h-6.6l0.6-4.1h6.4L54,66.7z    M62.3,80.8h-7.5l0.4-5.3h7.2L62.3,80.8z M62.3,73.3h-7.1l0.3-4.6h6.8L62.3,73.3z M62.4,66.7h-6.6l0.3-4.1h6.4L62.4,66.7z    M64.2,62.6h6.4l0.3,4.1h-6.6L64.2,62.6z M64.2,68.7H71l0.3,4.6h-7.1L64.2,68.7z M64.3,80.8l0-5.3h7.2l0.4,5.3H64.3z M72.3,62.6   h6.4l0.6,4.1h-6.6L72.3,62.6z M72.8,68.7h6.8l0.7,4.6h-7.1L72.8,68.7z M73.9,80.8l-0.5-5.3h7.2l0.8,5.3H73.9z M81.4,68.7h6.8   l1.1,4.6h-7.1L81.4,68.7z M89.8,75.5l1.2,5.3h-7.5l-0.9-5.3H89.8z"/>
  <rect x="68.4" y="35.7" fill="#FFFFFF" width="6.3" height="11.2"/>
  <rect x="52.3" y="35.7" fill="#FFFFFF" width="6.3" height="11.2"/>
  <path fill="#FFFFFF" d="M80.6,94.4H45c-3.7,0-6.7,3-6.7,6.7c0,3.7,3,6.7,6.7,6.7h35.6c3.7,0,6.7-3,6.7-6.7   C87.3,97.3,84.3,94.4,80.6,94.4z"/>
  <path fill="#EC1D3C" d="M111.1,1H15.7C7,1,0,8.1,0,16.7v95.4c0,8.6,7,15.7,15.7,15.7h95.4c8.6,0,15.7-7,15.7-15.7V16.7    C126.8,8.1,119.7,1,111.1,1z M115.2,86.4c-0.4-1.4-1.4-2.5-2.7-3.2c-1.3-0.7-2.8-0.8-4.2-0.4c-1.4,0.4-2.5,1.4-3.2,2.7    c-0.7,1.3-0.8,2.8-0.4,4.1l-5.3,1.6c-0.9-2.8-0.6-5.8,0.8-8.4c0.7-1.4,1.7-2.5,2.9-3.4l-6.3-18.1c-1.6-5.2-5.8-5-6.6-4.9l-0.3,0    h-0.5v3.6l6.4,24h0.2L96,84.5l0.1,0.3H96l-0.9,4.1H31.9L31,84.7h-0.1l0.1-0.3l-0.1-0.3H31L37.5,60v-3.5h-0.2l-0.3,0l-0.2,0    c-0.8-0.1-4.9-0.3-6.6,4.9l-6.3,18.1c1.2,0.9,2.1,2.1,2.9,3.4c1.4,2.6,1.7,5.5,0.8,8.3l-5.3-1.6c0.4-1.4,0.3-2.9-0.4-4.1    c-0.7-1.3-1.8-2.2-3.2-2.7c-1.4-0.4-2.9-0.3-4.2,0.4c-1.3,0.7-2.2,1.8-2.7,3.2l-5.3-1.6c0.9-2.8,2.7-5.1,5.3-6.5    c1.6-0.8,3.3-1.2,5-1.2c1.9-5.4,6.2-18,6.2-18c2.8-8.9,10.3-10.4,14.2-10h0.1V22.5h52v26.6h0.1c3.9-0.4,11.4,1.2,14.2,10l6.2,18    c1.7,0,3.5,0.4,5,1.2c2.6,1.4,4.5,3.7,5.3,6.5L115.2,86.4z M38.3,101c0-3.7,3-6.7,6.7-6.7h35.6c3.7,0,6.7,3,6.7,6.7    c0,3.7-3,6.7-6.7,6.7H45C41.3,107.7,38.3,104.7,38.3,101z"/>
  <polygon fill="#EC1D3C" points="45.2,80.8 52.7,80.8 53.2,75.5 46,75.5   "/>
  <polygon fill="#EC1D3C" points="35.6,80.8 43.1,80.8 44,75.5 36.8,75.5   "/>
  <polygon fill="#EC1D3C" points="38.5,68.7 37.4,73.3 44.4,73.3 45.2,68.7   "/>
  <polygon fill="#EC1D3C" points="46.3,73.3 53.4,73.3 53.8,68.7 47.1,68.7   "/>
  <path fill="#EC1D3C" d="M82.8,28.2H43.4v27.3h39.4V28.2z M58.6,46.9h-6.3V35.7h6.3V46.9z M74.7,46.9h-6.3V35.7h6.3V46.9z"/>
  <polygon fill="#EC1D3C" points="46.3,62.6 39.9,62.6 38.9,66.7 45.6,66.7   "/>
  <polygon fill="#EC1D3C" points="81,66.7 87.7,66.7 86.7,62.6 80.4,62.6   "/>
  <polygon fill="#EC1D3C" points="47.4,66.7 54,66.7 54.4,62.6 48,62.6   "/>
  <polygon fill="#EC1D3C" points="83.4,80.8 91,80.8 89.8,75.5 82.5,75.5   "/>
  <polygon fill="#EC1D3C" points="79.6,68.7 72.8,68.7 73.2,73.3 80.3,73.3   "/>
  <polygon fill="#EC1D3C" points="73.4,75.5 73.9,80.8 81.4,80.8 80.6,75.5   "/>
  <polygon fill="#EC1D3C" points="78.6,62.6 72.3,62.6 72.6,66.7 79.3,66.7   "/>
  <polygon fill="#EC1D3C" points="54.7,80.8 62.3,80.8 62.3,75.5 55.1,75.5   "/>
  <polygon fill="#EC1D3C" points="88.2,68.7 81.4,68.7 82.2,73.3 89.2,73.3   "/>
  <polygon fill="#EC1D3C" points="64.3,75.5 64.3,80.8 71.8,80.8 71.5,75.5   "/>
  <polygon fill="#EC1D3C" points="55.3,73.3 62.3,73.3 62.4,68.7 55.6,68.7   "/>
  <polygon fill="#EC1D3C" points="55.8,66.7 62.4,66.7 62.5,62.6 56.1,62.6   "/>
  <polygon fill="#EC1D3C" points="71,68.7 64.2,68.7 64.2,73.3 71.3,73.3   "/>
  <polygon fill="#EC1D3C" points="70.6,62.6 64.2,62.6 64.2,66.7 70.8,66.7   "/>
</svg>
