<svg xmlns="http://www.w3.org/2000/svg" version="1.1" x="0px" y="0px" viewBox="0 0 180 180" style="enable-background:new 0 0 180 180;">
  <path fill="#FFFFFF" stroke="#1E8BCB" stroke-width="2" d="M11.39,10h157.23c0.77,0,1.39,0.62,1.39,1.39v157.23c0,0.77-0.62,1.39-1.39,1.39H11.39   c-0.77,0-1.39-0.62-1.39-1.39V11.39C10,10.62,10.62,10,11.39,10z"/>
  <path fill="#084A70" d="M49.25,32.94c0.02,0.45-0.07,0.89-0.26,1.29c-0.19,0.41-0.46,0.76-0.81,1.04c-0.86,0.62-1.91,0.93-2.97,0.88   c-1.07,0.02-2.13-0.2-3.1-0.66v-2.18c0.61,0.28,1.23,0.51,1.87,0.7c0.46,0.13,0.93,0.19,1.4,0.2c0.41,0.03,0.82-0.07,1.17-0.29   c0.14-0.1,0.24-0.23,0.32-0.39c0.07-0.15,0.1-0.32,0.09-0.49c0-0.2-0.06-0.4-0.18-0.57c-0.15-0.19-0.33-0.36-0.53-0.49   c-0.46-0.27-0.93-0.52-1.41-0.74c-0.54-0.23-1.05-0.54-1.51-0.91c-0.33-0.28-0.6-0.62-0.8-1.01c-0.21-0.42-0.31-0.88-0.3-1.35   c-0.02-0.43,0.06-0.86,0.23-1.26c0.17-0.4,0.43-0.75,0.76-1.03c0.78-0.6,1.74-0.89,2.72-0.83c0.55,0,1.1,0.07,1.63,0.2   c0.55,0.15,1.1,0.34,1.62,0.57l-0.75,1.8c-0.47-0.2-0.95-0.37-1.45-0.5c-0.37-0.09-0.75-0.14-1.13-0.14   c-0.36-0.03-0.72,0.08-1.01,0.31c-0.18,0.17-0.3,0.39-0.34,0.63c-0.04,0.24,0.01,0.49,0.13,0.7c0.11,0.17,0.26,0.32,0.44,0.44   c0.47,0.29,0.96,0.54,1.47,0.77c0.8,0.33,1.52,0.83,2.11,1.47C49.05,31.65,49.26,32.29,49.25,32.94z"/>
  <path fill="#084A70" d="M57.99,35.98h-6.3V25.03h6.3v1.91h-3.98v2.4h3.71v1.9h-3.71v2.82h3.98V35.98z"/>
  <path fill="#084A70" d="M65.38,26.81c-0.39-0.02-0.78,0.06-1.14,0.23c-0.35,0.17-0.66,0.43-0.89,0.75c-0.52,0.81-0.78,1.77-0.72,2.74   c0,2.44,0.92,3.66,2.75,3.66c0.96-0.04,1.9-0.23,2.79-0.58v1.95c-0.96,0.38-1.98,0.57-3.01,0.56c-1.59,0-2.81-0.48-3.65-1.45   c-0.85-0.97-1.27-2.35-1.26-4.16c-0.02-1.03,0.19-2.04,0.62-2.97c0.38-0.82,1.01-1.51,1.79-1.97c0.83-0.47,1.77-0.71,2.73-0.69   c1.11,0.01,2.21,0.28,3.2,0.77l-0.75,1.88c-0.4-0.19-0.81-0.36-1.24-0.51C66.21,26.9,65.8,26.82,65.38,26.81z"/>
  <path fill="#084A70" d="M80.89,30.49c0,1.81-0.45,3.2-1.35,4.18c-0.9,0.98-2.19,1.46-3.86,1.46c-1.68,0-2.97-0.49-3.86-1.46   c-0.9-0.97-1.34-2.37-1.34-4.19c0-1.82,0.45-3.21,1.35-4.17c0.9-0.96,2.19-1.44,3.88-1.44c1.68,0,2.97,0.48,3.86,1.45   C80.45,27.28,80.89,28.67,80.89,30.49z M72.9,30.49c0,1.22,0.23,2.14,0.7,2.76c0.25,0.31,0.56,0.56,0.93,0.72   c0.36,0.16,0.76,0.23,1.15,0.2c1.85,0,2.78-1.23,2.78-3.69s-0.92-3.69-2.76-3.7c-0.4-0.03-0.79,0.05-1.16,0.21   c-0.36,0.16-0.68,0.41-0.93,0.72c-0.46,0.62-0.69,1.54-0.69,2.77H72.9z"/>
  <path fill="#084A70" d="M93.33,35.98h-2.95l-4.76-8.28h-0.07c0.1,1.46,0.14,2.5,0.14,3.13v5.15h-2.08V25.03h2.93l4.77,8.21h0.05   c-0.07-1.42-0.11-2.43-0.11-3.01v-5.19h2.09L93.33,35.98z"/>
  <path fill="#084A70" d="M105.62,30.4c0,1.8-0.51,3.18-1.54,4.14c-1.02,0.95-2.51,1.44-4.45,1.44h-3.1V25.03h3.43   c1.79,0,3.17,0.47,4.16,1.41C105.12,27.39,105.62,28.71,105.62,30.4z M103.21,30.46c0-2.35-1.04-3.52-3.11-3.5h-1.24v7.1h0.99   C102.09,34.06,103.21,32.86,103.21,30.46z"/>
  <path fill="#084A70" d="M115.05,35.98l-0.79-2.63h-3.99l-0.79,2.63h-2.5l3.86-10.99h2.82l3.88,10.99H115.05z M113.7,31.43   c-0.74-2.36-1.15-3.7-1.24-4.01c-0.09-0.31-0.16-0.55-0.2-0.73c-0.17,0.64-0.64,2.22-1.41,4.74H113.7z"/>
  <path fill="#084A70" d="M121.7,31.78v4.2h-2.32V25.03h3.19c1.48,0,2.58,0.27,3.3,0.81c0.36,0.29,0.65,0.67,0.84,1.1   c0.19,0.43,0.27,0.9,0.23,1.37c0.01,0.61-0.18,1.22-0.53,1.72c-0.38,0.52-0.9,0.93-1.5,1.18c1.65,2.46,2.72,4.05,3.22,4.77h-2.58   l-2.63-4.2L121.7,31.78z M121.7,29.89h0.75c0.57,0.04,1.13-0.09,1.62-0.37c0.18-0.13,0.32-0.31,0.41-0.51   c0.09-0.2,0.13-0.42,0.11-0.64c0.02-0.22-0.02-0.43-0.12-0.63c-0.09-0.2-0.24-0.36-0.42-0.48c-0.51-0.25-1.08-0.37-1.65-0.33h-0.71   L121.7,29.89z"/>
  <path fill="#084A70" d="M133.36,29.54l2.28-4.51h2.5l-3.63,6.68v4.26h-2.3v-4.19l-3.62-6.76h2.51L133.36,29.54z"/>
  <path fill="#084A70" d="M31.6,49.58c0.02,0.45-0.07,0.89-0.26,1.3c-0.19,0.41-0.46,0.76-0.81,1.04c-0.86,0.62-1.91,0.93-2.97,0.88   c-1.07,0.02-2.13-0.2-3.1-0.66v-2.18c0.61,0.28,1.23,0.51,1.87,0.7c0.46,0.13,0.93,0.2,1.41,0.2c0.41,0.03,0.82-0.08,1.17-0.29   c0.14-0.1,0.24-0.23,0.32-0.39c0.07-0.15,0.1-0.32,0.09-0.49c0-0.2-0.06-0.4-0.18-0.57c-0.15-0.19-0.32-0.36-0.53-0.49   c-0.46-0.27-0.93-0.52-1.42-0.74c-0.54-0.23-1.05-0.54-1.51-0.91c-0.33-0.28-0.6-0.62-0.8-1.01c-0.21-0.42-0.31-0.88-0.3-1.35   c-0.02-0.43,0.06-0.86,0.23-1.26c0.17-0.4,0.43-0.75,0.76-1.03c0.78-0.59,1.74-0.89,2.72-0.83c0.55,0,1.1,0.07,1.63,0.2   c0.55,0.15,1.1,0.34,1.62,0.57l-0.75,1.8c-0.47-0.2-0.95-0.37-1.45-0.5c-0.36-0.09-0.73-0.14-1.1-0.14   c-0.36-0.02-0.72,0.08-1.01,0.31c-0.11,0.1-0.2,0.22-0.26,0.36c-0.06,0.14-0.09,0.29-0.09,0.44c0,0.19,0.04,0.37,0.14,0.53   c0.11,0.17,0.26,0.32,0.44,0.44c0.47,0.29,0.97,0.54,1.47,0.77c0.8,0.33,1.52,0.83,2.1,1.47C31.43,48.29,31.63,48.93,31.6,49.58z"/>
  <path fill="#084A70" d="M38.69,43.45c-0.39-0.02-0.79,0.06-1.14,0.23c-0.35,0.17-0.66,0.43-0.89,0.75c-0.52,0.81-0.78,1.77-0.72,2.74   c0,2.44,0.92,3.66,2.75,3.66c0.96-0.04,1.9-0.23,2.79-0.58v1.95c-0.96,0.38-1.98,0.57-3.01,0.56c-1.59,0-2.81-0.48-3.65-1.45   c-0.85-0.97-1.27-2.35-1.27-4.16c-0.02-1.03,0.19-2.04,0.62-2.97c0.38-0.82,1.01-1.51,1.79-1.97c0.83-0.47,1.77-0.71,2.73-0.69   c1.11,0.01,2.21,0.28,3.2,0.77l-0.75,1.88c-0.4-0.19-0.81-0.36-1.24-0.51C39.52,43.54,39.11,43.46,38.69,43.45z"/>
  <path fill="#084A70" d="M53.24,52.62h-2.31V47.9H46.6v4.73h-2.32V41.67h2.32v4.29h4.33v-4.28h2.31V52.62z"/>
  <path fill="#084A70" d="M66.4,47.14c0,1.81-0.45,3.2-1.35,4.18c-0.9,0.98-2.19,1.46-3.86,1.46c-1.68,0-2.96-0.49-3.86-1.46   s-1.35-2.37-1.34-4.19c0-1.82,0.45-3.21,1.35-4.17c0.9-0.96,2.19-1.44,3.88-1.44c1.68,0,2.97,0.48,3.86,1.45S66.4,45.32,66.4,47.14   z M58.41,47.14c0,1.22,0.23,2.14,0.7,2.76c0.25,0.31,0.56,0.56,0.93,0.72c0.36,0.16,0.76,0.23,1.15,0.2c1.85,0,2.78-1.23,2.78-3.69   c0-2.46-0.92-3.69-2.76-3.7c-0.4-0.03-0.8,0.05-1.16,0.21c-0.36,0.16-0.68,0.41-0.93,0.72C58.65,44.99,58.41,45.91,58.41,47.14z"/>
  <path fill="#084A70" d="M79.05,47.14c0,1.81-0.45,3.2-1.34,4.18c-0.9,0.98-2.18,1.46-3.86,1.46c-1.68,0-2.97-0.49-3.86-1.46   s-1.35-2.37-1.35-4.19c0-1.82,0.45-3.21,1.35-4.17c0.9-0.96,2.19-1.44,3.87-1.44c1.68,0,2.97,0.48,3.86,1.45   S79.05,45.32,79.05,47.14z M71.07,47.14c0,1.22,0.23,2.14,0.7,2.76c0.25,0.31,0.56,0.56,0.93,0.72c0.36,0.16,0.76,0.23,1.15,0.2   c1.85,0,2.77-1.23,2.78-3.69c0-2.46-0.92-3.69-2.76-3.7c-0.4-0.03-0.79,0.05-1.16,0.21c-0.36,0.16-0.68,0.41-0.93,0.72   C71.3,44.99,71.07,45.91,71.07,47.14z"/>
  <path fill="#084A70" d="M81.78,52.62V41.67h2.32v9.03h4.44v1.92H81.78z"/>
  <path fill="#084A70" d="M97.66,48.42v4.2h-2.32V41.67h3.19c1.49,0,2.59,0.27,3.3,0.81c0.58,0.52,0.95,1.22,1.05,1.99   c0.1,0.77-0.08,1.55-0.51,2.19c-0.38,0.52-0.9,0.93-1.5,1.18c1.65,2.46,2.72,4.05,3.22,4.77h-2.58l-2.63-4.2L97.66,48.42z    M97.66,46.54h0.75c0.57,0.04,1.13-0.09,1.62-0.37c0.18-0.13,0.32-0.31,0.41-0.51c0.09-0.2,0.13-0.42,0.11-0.64   c0.02-0.22-0.02-0.43-0.12-0.63c-0.09-0.2-0.24-0.36-0.42-0.48c-0.51-0.25-1.08-0.37-1.66-0.33h-0.71V46.54z"/>
  <path fill="#084A70" d="M112.22,52.62h-6.3V41.67h6.3v1.91h-3.98v2.4h3.71v1.9h-3.71v2.82h3.98V52.62z"/>
  <path fill="#084A70" d="M122.53,45.09c0.03,0.5-0.05,1.01-0.24,1.48c-0.19,0.47-0.49,0.89-0.86,1.22c-0.74,0.63-1.78,0.94-3.14,0.94   h-0.99v3.89h-2.32V41.67h3.5c1.33,0,2.34,0.29,3.03,0.88c0.35,0.32,0.63,0.71,0.81,1.15C122.48,44.14,122.56,44.62,122.53,45.09z    M117.27,46.84h0.76c0.57,0.04,1.13-0.12,1.6-0.44c0.18-0.15,0.32-0.34,0.42-0.55c0.09-0.21,0.13-0.45,0.12-0.68   c0.02-0.22-0.01-0.44-0.09-0.65c-0.08-0.21-0.2-0.4-0.35-0.55c-0.4-0.29-0.9-0.43-1.4-0.39h-1.05L117.27,46.84z"/>
  <path fill="#084A70" d="M134.99,47.14c0,1.81-0.45,3.2-1.35,4.18c-0.9,0.98-2.19,1.46-3.86,1.46c-1.67,0-2.96-0.49-3.86-1.46   c-0.9-0.97-1.35-2.37-1.35-4.19c0-1.82,0.45-3.21,1.35-4.17c0.9-0.96,2.19-1.44,3.88-1.44c1.68,0,2.97,0.48,3.86,1.45   C134.54,43.92,134.99,45.32,134.99,47.14z M127,47.14c0,1.22,0.23,2.14,0.7,2.76c0.25,0.31,0.56,0.56,0.93,0.72   c0.36,0.16,0.76,0.23,1.15,0.2c1.85,0,2.78-1.23,2.78-3.69c0-2.46-0.92-3.69-2.76-3.7c-0.4-0.03-0.8,0.05-1.16,0.21   c-0.36,0.16-0.68,0.41-0.93,0.72C127.24,44.99,127,45.91,127,47.14z"/>
  <path fill="#084A70" d="M140.03,48.42v4.2h-2.32V41.67h3.19c1.48,0,2.58,0.27,3.3,0.81c0.58,0.52,0.95,1.22,1.05,1.99   c0.1,0.77-0.08,1.55-0.51,2.2c-0.38,0.52-0.9,0.93-1.5,1.18c1.65,2.46,2.72,4.05,3.22,4.77h-2.59l-2.63-4.2H140.03z M140.03,46.54   h0.75c0.57,0.04,1.13-0.09,1.62-0.37c0.18-0.13,0.32-0.31,0.41-0.51c0.09-0.2,0.13-0.42,0.11-0.64c0.02-0.22-0.02-0.43-0.12-0.63   c-0.09-0.2-0.24-0.36-0.42-0.48c-0.51-0.25-1.09-0.37-1.66-0.33h-0.71V46.54z"/>
  <path fill="#084A70" d="M152.51,52.62h-2.32v-9.01h-2.97v-1.93h8.26v1.93h-2.97V52.62z"/>
  <path fill="#084A70" d="M40.57,117.57l-2.01-1.99c-0.29-0.29-0.45-0.68-0.45-1.09c0-0.41,0.16-0.8,0.45-1.09   c0.29-0.29,0.68-0.45,1.09-0.45s0.8,0.16,1.09,0.45l0.92,0.88l4.02-4.02c0.29-0.29,0.68-0.45,1.09-0.45s0.8,0.16,1.09,0.45   c0.29,0.29,0.45,0.68,0.45,1.09c0,0.41-0.16,0.8-0.45,1.09l-5.12,5.12c-0.29,0.29-0.68,0.46-1.09,0.46   C41.26,118.02,40.87,117.86,40.57,117.57z"/>
  <path fill="#084A70" d="M40.57,90.27l-2.01-2.01c-0.29-0.29-0.45-0.68-0.45-1.09c0-0.41,0.16-0.8,0.45-1.09   c0.29-0.29,0.68-0.45,1.09-0.45s0.8,0.16,1.09,0.45l0.92,0.91l4.02-4.02c0.29-0.29,0.68-0.45,1.09-0.45c0.41,0,0.8,0.16,1.09,0.45   c0.29,0.29,0.45,0.68,0.45,1.09c0,0.41-0.16,0.8-0.45,1.09l-5.11,5.13c-0.14,0.14-0.32,0.26-0.51,0.34   c-0.19,0.08-0.39,0.12-0.6,0.12s-0.41-0.04-0.6-0.12C40.89,90.53,40.72,90.41,40.57,90.27z"/>
  <path fill="#084A70" d="M40.57,104.79l-2.01-2.01c-0.29-0.29-0.45-0.68-0.45-1.09c0-0.41,0.16-0.8,0.45-1.09   c0.29-0.29,0.68-0.45,1.09-0.45s0.8,0.16,1.09,0.45l0.92,0.91l4.02-4.02c0.29-0.29,0.68-0.45,1.09-0.45c0.41,0,0.8,0.16,1.09,0.45   c0.29,0.29,0.45,0.68,0.45,1.09c0,0.41-0.16,0.8-0.45,1.09l-5.12,5.12c-0.29,0.29-0.68,0.45-1.09,0.45   C41.26,105.24,40.86,105.08,40.57,104.79z"/>
  <path fill="#084A70" d="M31.93,140.48c-0.23,0-0.46-0.09-0.62-0.26c-0.16-0.16-0.26-0.39-0.26-0.62V76.54   c0.01-1.96,0.79-3.84,2.18-5.22c1.39-1.38,3.27-2.16,5.22-2.16h44.07c1.96,0,3.84,0.78,5.23,2.17c1.39,1.39,2.17,3.27,2.17,5.23   c0,0.23-0.09,0.46-0.26,0.62c-0.16,0.16-0.39,0.26-0.62,0.26c-0.23,0-0.46-0.09-0.62-0.26c-0.16-0.16-0.26-0.39-0.26-0.62   c0-1.5-0.6-2.93-1.65-3.99c-1.06-1.06-2.49-1.66-3.99-1.66H38.45c-1.5,0-2.93,0.6-3.99,1.66c-1.06,1.06-1.66,2.49-1.66,3.99v63.07   c0,0.23-0.1,0.45-0.26,0.61C32.38,140.39,32.16,140.48,31.93,140.48z"/>
  <path fill="#084A70" d="M62.24,146.62H38.45c-1.96,0-3.84-0.78-5.22-2.16c-1.39-1.38-2.17-3.26-2.18-5.22c0-0.23,0.09-0.46,0.26-0.62   c0.16-0.16,0.39-0.26,0.62-0.26s0.46,0.09,0.62,0.26c0.16,0.16,0.26,0.39,0.26,0.62c0,1.5,0.6,2.93,1.66,3.99   c1.06,1.06,2.49,1.65,3.99,1.66h23.79c0.23,0,0.46,0.09,0.62,0.26c0.16,0.16,0.26,0.39,0.26,0.62c0,0.23-0.09,0.46-0.26,0.62   c-0.16,0.16-0.39,0.26-0.62,0.26V146.62z"/>
  <path fill="#084A70" d="M71.88,84.77H52.53c-0.23,0-0.46-0.09-0.62-0.26c-0.16-0.16-0.26-0.39-0.26-0.62c0-0.23,0.09-0.46,0.26-0.62   c0.16-0.16,0.39-0.26,0.62-0.26h19.35c0.23,0,0.46,0.09,0.62,0.26c0.16,0.16,0.26,0.39,0.26,0.62c0,0.23-0.09,0.46-0.26,0.62   C72.34,84.68,72.12,84.77,71.88,84.77z"/>
  <path fill="#084A70" d="M71.88,91.73H52.53c-0.23,0-0.46-0.09-0.62-0.26c-0.16-0.16-0.26-0.39-0.26-0.62c0-0.23,0.09-0.46,0.26-0.62   c0.16-0.16,0.39-0.26,0.62-0.26h19.35c0.23,0,0.46,0.09,0.62,0.26c0.16,0.16,0.26,0.39,0.26,0.62c0,0.23-0.09,0.46-0.26,0.62   C72.34,91.64,72.12,91.73,71.88,91.73z"/>
  <path fill="#084A70" d="M62.25,98.69h-9.72c-0.23,0-0.46-0.09-0.62-0.26c-0.16-0.16-0.26-0.39-0.26-0.62c0-0.23,0.09-0.46,0.26-0.62   c0.16-0.16,0.39-0.26,0.62-0.26h9.72c0.23,0,0.46,0.09,0.62,0.26c0.16,0.16,0.26,0.39,0.26,0.62c0,0.23-0.09,0.46-0.26,0.62   C62.7,98.6,62.48,98.69,62.25,98.69z"/>
  <path fill="#084A70" d="M62.25,105.65h-9.72c-0.23,0-0.46-0.09-0.62-0.26c-0.16-0.16-0.26-0.39-0.26-0.62c0-0.23,0.09-0.46,0.26-0.62   c0.16-0.16,0.39-0.26,0.62-0.26h9.72c0.23,0,0.46,0.09,0.62,0.26c0.16,0.16,0.26,0.39,0.26,0.62c0,0.23-0.09,0.46-0.26,0.62   C62.7,105.56,62.48,105.65,62.25,105.65z"/>
  <path fill="#084A70" d="M62.25,112.61h-9.72c-0.23,0-0.46-0.09-0.62-0.26c-0.16-0.16-0.26-0.39-0.26-0.62c0-0.23,0.09-0.46,0.26-0.62   c0.16-0.16,0.39-0.26,0.62-0.26h9.72c0.23,0,0.46,0.09,0.62,0.26c0.16,0.16,0.26,0.39,0.26,0.62c0,0.23-0.09,0.46-0.26,0.62   C62.7,112.52,62.48,112.61,62.25,112.61z"/>
  <path fill="#084A70" d="M62.25,119.57h-9.72c-0.23,0-0.46-0.09-0.62-0.26c-0.16-0.16-0.26-0.39-0.26-0.62c0-0.23,0.09-0.46,0.26-0.62   c0.16-0.16,0.39-0.26,0.62-0.26h9.72c0.23,0,0.46,0.09,0.62,0.26c0.16,0.16,0.26,0.39,0.26,0.62c0,0.23-0.09,0.46-0.26,0.62   C62.7,119.48,62.48,119.57,62.25,119.57z"/>
  <path fill="#084A70" d="M40.57,130.71l-2.01-1.99c-0.29-0.29-0.45-0.68-0.45-1.09c0-0.41,0.16-0.8,0.45-1.09   c0.29-0.29,0.68-0.45,1.09-0.45s0.8,0.16,1.09,0.45l0.92,0.88l4.02-4.02c0.29-0.29,0.68-0.45,1.09-0.45s0.8,0.16,1.09,0.45   c0.29,0.29,0.45,0.68,0.45,1.09c0,0.41-0.16,0.8-0.45,1.09l-5.12,5.12c-0.29,0.29-0.68,0.46-1.09,0.46S40.87,131,40.57,130.71z"/>
  <path fill="#084A70" d="M62.25,126.53h-9.72c-0.23,0-0.46-0.09-0.62-0.26c-0.16-0.16-0.26-0.39-0.26-0.62s0.09-0.46,0.26-0.62   c0.16-0.16,0.39-0.26,0.62-0.26h9.72c0.23,0,0.46,0.09,0.62,0.26c0.16,0.16,0.26,0.39,0.26,0.62s-0.09,0.46-0.26,0.62   C62.7,126.44,62.48,126.53,62.25,126.53z"/>
  <path fill="#084A70" d="M62.25,133.49h-9.72c-0.23,0-0.46-0.09-0.62-0.26c-0.16-0.16-0.26-0.39-0.26-0.62c0-0.23,0.09-0.46,0.26-0.62   c0.16-0.16,0.39-0.26,0.62-0.26h9.72c0.23,0,0.46,0.09,0.62,0.26c0.16,0.16,0.26,0.39,0.26,0.62c0,0.23-0.09,0.46-0.26,0.62   C62.7,133.4,62.48,133.49,62.25,133.49z"/>
  <path fill="#1E8BCB" d="M99.31,97.07c-0.35,0-0.68-0.14-0.93-0.38C98.14,96.44,98,96.11,98,95.76V81.42c0-0.35,0.14-0.68,0.38-0.93   c0.25-0.25,0.58-0.38,0.93-0.38c0.35,0,0.68,0.14,0.93,0.38c0.25,0.25,0.38,0.58,0.38,0.93v14.34c0,0.35-0.14,0.68-0.38,0.93   C100,96.93,99.66,97.07,99.31,97.07z"/>
  <path fill="#1E8BCB" d="M117.3,97.07c-0.35,0-0.68-0.14-0.93-0.38c-0.25-0.25-0.38-0.58-0.38-0.93V81.42c0-0.35,0.14-0.68,0.38-0.93   c0.25-0.25,0.58-0.38,0.93-0.38s0.68,0.14,0.93,0.38c0.25,0.25,0.38,0.58,0.38,0.93v14.34c0,0.35-0.14,0.68-0.38,0.93   C117.98,96.93,117.64,97.07,117.3,97.07z"/>
  <path fill="#1E8BCB" d="M145.19,152.4H71.41c-0.35,0-0.68-0.14-0.93-0.38c-0.25-0.25-0.38-0.58-0.38-0.93v-43.61   c0-0.35,0.14-0.68,0.38-0.93c0.25-0.25,0.58-0.38,0.93-0.38c0.35,0,0.68,0.14,0.93,0.38c0.25,0.25,0.38,0.58,0.38,0.93v42.3h71.14   v-42.3c0-0.35,0.14-0.68,0.38-0.93c0.25-0.25,0.58-0.38,0.93-0.38c0.35,0,0.68,0.14,0.93,0.38c0.25,0.25,0.38,0.58,0.38,0.93v43.61   c0,0.35-0.14,0.68-0.38,0.93C145.87,152.26,145.53,152.4,145.19,152.4z"/>
  <path fill="#1E8BCB" d="M147.38,108.79h-20.09c-0.35,0-0.68-0.14-0.93-0.38c-0.25-0.25-0.38-0.58-0.38-0.93s0.14-0.68,0.38-0.93   c0.25-0.25,0.58-0.38,0.93-0.38h17.52l-6.62-9.09h-25.22c-0.35,0-0.68-0.14-0.93-0.38c-0.25-0.25-0.38-0.58-0.38-0.93   c0-0.35,0.14-0.68,0.38-0.93c0.25-0.25,0.58-0.38,0.93-0.38h25.89c0.21,0,0.42,0.05,0.61,0.14c0.19,0.1,0.35,0.24,0.48,0.41   l8.53,11.72c0.14,0.2,0.23,0.43,0.25,0.67s-0.03,0.48-0.14,0.7c-0.11,0.22-0.28,0.4-0.48,0.52c-0.21,0.13-0.44,0.19-0.68,0.2   L147.38,108.79z"/>
  <path fill="#1E8BCB" d="M90,108.79H68.98c-0.24,0-0.48-0.07-0.69-0.19c-0.21-0.13-0.37-0.31-0.48-0.52c-0.11-0.22-0.16-0.46-0.14-0.7   c0.02-0.24,0.1-0.47,0.25-0.67L76.47,95c0.12-0.17,0.28-0.3,0.47-0.4c0.18-0.09,0.39-0.14,0.59-0.14h26.01   c0.35,0,0.68,0.14,0.93,0.38c0.25,0.25,0.38,0.58,0.38,0.93c0,0.35-0.14,0.68-0.38,0.93c-0.25,0.25-0.58,0.38-0.93,0.38H78.2   l-6.62,9.09H90c0.35,0,0.68,0.14,0.93,0.38c0.25,0.25,0.38,0.58,0.38,0.93c0,0.35-0.14,0.68-0.38,0.93   c-0.25,0.25-0.58,0.38-0.93,0.38V108.79z"/>
  <path fill="#1E8BCB" d="M127.23,152.4c-0.35,0-0.68-0.14-0.93-0.38c-0.25-0.25-0.38-0.58-0.38-0.93v-42.95l-3.39-2.83l-1.96-1.55   L108.2,93.42l-16.88,14.68v42.98c0,0.35-0.14,0.68-0.38,0.93c-0.25,0.25-0.58,0.38-0.93,0.38s-0.68-0.14-0.93-0.38   c-0.25-0.25-0.38-0.58-0.38-0.93v-43.58c0-0.19,0.04-0.37,0.11-0.54c0.08-0.17,0.19-0.32,0.33-0.45l18.16-15.8   c0.24-0.2,0.54-0.31,0.85-0.31c0.31,0,0.61,0.11,0.85,0.31l13.2,11.02l1.95,1.53l3.89,3.25c0.15,0.12,0.27,0.28,0.35,0.45   c0.08,0.17,0.12,0.36,0.12,0.56v43.58c0,0.34-0.14,0.66-0.38,0.91C127.89,152.25,127.57,152.39,127.23,152.4z"/>
  <path fill="#1E8BCB" d="M108.31,111.8c-3.47,0-6.29-2.93-6.29-6.54c0-3.6,2.82-6.54,6.29-6.54s6.29,2.93,6.29,6.54   C114.6,108.87,111.77,111.8,108.31,111.8z M108.31,101.35c-1,0.03-1.95,0.47-2.64,1.2c-0.69,0.73-1.06,1.71-1.02,2.71   c0,2.15,1.65,3.91,3.67,3.91c2.02,0,3.67-1.75,3.67-3.91c0.03-1-0.34-1.98-1.02-2.71C110.26,101.81,109.31,101.38,108.31,101.35z"/>
  <path fill="#1E8BCB" d="M148.08,152.4H68.31c-0.35,0-0.68-0.14-0.93-0.38c-0.25-0.25-0.38-0.58-0.38-0.93c0-0.35,0.14-0.68,0.38-0.93   c0.25-0.25,0.58-0.39,0.93-0.39h79.76c0.35,0,0.68,0.14,0.93,0.39c0.25,0.25,0.39,0.58,0.39,0.93c0,0.35-0.14,0.68-0.39,0.93   C148.76,152.26,148.43,152.4,148.08,152.4z"/>
  <path fill="#1E8BCB" d="M140.86,123.76h-8.68c-0.35,0-0.68-0.14-0.93-0.38c-0.25-0.25-0.38-0.58-0.38-0.93v-5.43   c0-1.5,0.6-2.94,1.66-4c1.06-1.06,2.5-1.66,4-1.66c1.5,0,2.94,0.6,4,1.66c1.06,1.06,1.66,2.5,1.66,4v5.43   c0,0.35-0.14,0.68-0.38,0.93C141.54,123.62,141.21,123.76,140.86,123.76z M133.49,121.13h6.05v-4.11c0-0.8-0.32-1.57-0.89-2.14   c-0.57-0.57-1.34-0.89-2.14-0.89s-1.57,0.32-2.14,0.89c-0.57,0.57-0.89,1.34-0.89,2.14V121.13z"/>
  <path fill="#1E8BCB" d="M120.4,132.22h-8.68c-0.35,0-0.68-0.14-0.93-0.38c-0.25-0.25-0.38-0.58-0.38-0.93v-5.43c0-1.5,0.6-2.94,1.66-4   c1.06-1.06,2.5-1.66,4-1.66s2.94,0.6,4,1.66c1.06,1.06,1.66,2.5,1.66,4v5.43c0,0.17-0.03,0.34-0.1,0.5   c-0.07,0.16-0.16,0.3-0.28,0.43c-0.12,0.12-0.27,0.22-0.43,0.28C120.74,132.19,120.57,132.22,120.4,132.22z M113.03,129.6h6.05   v-4.11c0-0.8-0.32-1.57-0.89-2.14c-0.57-0.57-1.34-0.89-2.14-0.89s-1.57,0.32-2.14,0.89c-0.57,0.57-0.89,1.34-0.89,2.14V129.6z"/>
  <path fill="#1E8BCB" d="M105.52,132.22h-8.68c-0.35,0-0.68-0.14-0.93-0.38s-0.38-0.58-0.38-0.93v-5.43c0-1.5,0.6-2.94,1.66-4   c1.06-1.06,2.5-1.66,4-1.66c1.5,0,2.94,0.6,4,1.66c1.06,1.06,1.66,2.5,1.66,4v5.43c0,0.35-0.14,0.68-0.38,0.93   S105.86,132.22,105.52,132.22z M98.15,129.6h6.05v-4.11c0-0.8-0.32-1.57-0.89-2.14c-0.57-0.57-1.34-0.89-2.14-0.89   c-0.8,0-1.57,0.32-2.14,0.89c-0.57,0.57-0.89,1.34-0.89,2.14V129.6z"/>
  <path fill="#1E8BCB" d="M112.62,149.1c-0.35,0-0.68-0.14-0.93-0.38c-0.25-0.25-0.38-0.58-0.38-0.93v-6.57c0-0.8-0.32-1.57-0.89-2.14   c-0.57-0.57-1.34-0.89-2.14-0.89c-0.8,0-1.57,0.32-2.14,0.89c-0.57,0.57-0.89,1.34-0.89,2.14v6.57c0,0.35-0.14,0.68-0.38,0.93   c-0.25,0.25-0.58,0.38-0.93,0.38c-0.35,0-0.68-0.14-0.93-0.38c-0.25-0.25-0.38-0.58-0.38-0.93v-6.57c0-1.5,0.6-2.94,1.66-4   c1.06-1.06,2.5-1.66,4-1.66c1.5,0,2.94,0.6,4,1.66c1.06,1.06,1.66,2.5,1.66,4v6.57c0,0.35-0.14,0.68-0.38,0.93   C113.3,148.96,112.97,149.1,112.62,149.1z"/>
  <path fill="#1E8BCB" d="M140.86,140.69h-8.68c-0.35,0-0.68-0.14-0.93-0.38c-0.25-0.25-0.38-0.58-0.38-0.93v-5.43   c0-1.5,0.6-2.94,1.66-4c1.06-1.06,2.5-1.66,4-1.66c1.5,0,2.94,0.6,4,1.66c1.06,1.06,1.66,2.5,1.66,4v5.43   c0,0.35-0.14,0.68-0.38,0.93C141.54,140.55,141.21,140.69,140.86,140.69z M133.49,138.06h6.05v-4.11c0-0.8-0.32-1.57-0.89-2.14   c-0.57-0.57-1.34-0.89-2.14-0.89s-1.57,0.32-2.14,0.89c-0.57,0.57-0.89,1.34-0.89,2.14V138.06z"/>
  <path fill="#1E8BCB" d="M85.05,123.76h-8.68c-0.35,0-0.68-0.14-0.93-0.38c-0.25-0.25-0.38-0.58-0.38-0.93v-5.43c0-1.5,0.6-2.94,1.66-4   c1.06-1.06,2.5-1.66,4-1.66s2.94,0.6,4,1.66c1.06,1.06,1.66,2.5,1.66,4v5.43c0,0.35-0.14,0.68-0.38,0.93   C85.74,123.62,85.4,123.76,85.05,123.76z M77.69,121.13h6.05v-4.11c0-0.8-0.32-1.57-0.89-2.14c-0.57-0.57-1.34-0.89-2.14-0.89   c-0.8,0-1.57,0.32-2.14,0.89c-0.57,0.57-0.89,1.34-0.89,2.14V121.13z"/>
  <path fill="#1E8BCB" d="M85.05,140.69h-8.68c-0.35,0-0.68-0.14-0.93-0.38c-0.25-0.25-0.38-0.58-0.38-0.93v-5.43c0-1.5,0.6-2.94,1.66-4   c1.06-1.06,2.5-1.66,4-1.66s2.94,0.6,4,1.66c1.06,1.06,1.66,2.5,1.66,4v5.43c0,0.35-0.14,0.68-0.38,0.93   C85.74,140.55,85.4,140.69,85.05,140.69z M77.69,138.06h6.05v-4.11c0-0.8-0.32-1.57-0.89-2.14c-0.57-0.57-1.34-0.89-2.14-0.89   c-0.8,0-1.57,0.32-2.14,0.89c-0.57,0.57-0.89,1.34-0.89,2.14V138.06z"/>
  <path fill="#1E8BCB" d="M109.86,106.9h-1.86c-0.35,0-0.68-0.14-0.93-0.38c-0.25-0.25-0.38-0.58-0.38-0.93v-1.95   c0-0.35,0.14-0.68,0.38-0.93c0.25-0.25,0.58-0.38,0.93-0.38c0.35,0,0.68,0.14,0.93,0.38c0.25,0.25,0.38,0.58,0.38,0.93v0.64h0.55   c0.35,0,0.68,0.14,0.93,0.38c0.25,0.25,0.38,0.58,0.38,0.93c0,0.35-0.14,0.68-0.38,0.93C110.54,106.76,110.2,106.9,109.86,106.9z"/>
  <path fill="#1E8BCB" d="M112.56,89.16h-8.54c-0.24,0-0.47-0.06-0.67-0.18c-0.2-0.12-0.37-0.29-0.48-0.5c-0.11-0.2-0.16-0.43-0.16-0.66   c0.01-0.23,0.07-0.46,0.19-0.65c0.57-1.08,0.94-2.26,1.09-3.47c0.06-0.34,0.26-0.65,0.54-0.85c0.29-0.2,0.64-0.28,0.98-0.22   c0.34,0.06,0.65,0.26,0.85,0.54c0.2,0.29,0.28,0.64,0.22,0.98c-0.14,0.81-0.33,1.61-0.57,2.39h4.55c-0.24-0.79-0.43-1.6-0.56-2.42   c-0.04-0.17-0.04-0.35-0.01-0.53c0.03-0.17,0.1-0.34,0.2-0.49c0.1-0.15,0.23-0.27,0.38-0.37c0.15-0.1,0.32-0.16,0.49-0.19   c0.18-0.03,0.35-0.02,0.53,0.02c0.17,0.04,0.33,0.12,0.48,0.22c0.14,0.11,0.26,0.24,0.35,0.39c0.09,0.15,0.15,0.32,0.17,0.5   c0.28,1.6,0.64,2.78,1.09,3.5c0.13,0.2,0.2,0.43,0.2,0.66c0.01,0.23-0.05,0.47-0.16,0.67c-0.11,0.21-0.28,0.38-0.48,0.5   c-0.2,0.12-0.43,0.18-0.67,0.18L112.56,89.16z"/>
  <path fill="#1E8BCB" d="M118.18,82.67H98.32c-0.26,0-0.51-0.08-0.73-0.22s-0.38-0.35-0.48-0.59c-0.1-0.24-0.12-0.5-0.07-0.76   c0.05-0.25,0.18-0.49,0.36-0.67l4.34-4.32c0.25-0.24,0.58-0.38,0.92-0.38h11.16c0.35,0,0.68,0.14,0.92,0.38l4.34,4.32   c0.18,0.18,0.31,0.42,0.36,0.67c0.05,0.25,0.02,0.52-0.07,0.76c-0.1,0.24-0.27,0.44-0.48,0.59   C118.68,82.59,118.43,82.67,118.18,82.67L118.18,82.67z M101.53,80.04h13.47l-1.71-1.69h-10.07L101.53,80.04z"/>
  <path fill="#1E8BCB" d="M80.71,94.12c-0.35,0-0.68-0.14-0.93-0.38c-0.25-0.25-0.38-0.58-0.38-0.93v-8.76c0-0.35,0.14-0.68,0.38-0.93   c0.25-0.25,0.58-0.38,0.93-0.38s0.68,0.14,0.93,0.38c0.25,0.25,0.38,0.58,0.38,0.93v8.76c0,0.35-0.14,0.68-0.38,0.93   C81.4,93.98,81.06,94.12,80.71,94.12z"/>
  <path fill="#1E8BCB" d="M86.62,91.09c-0.8-0.01-1.59-0.17-2.34-0.47c-0.95-0.36-2.01-0.34-2.94,0.07c-0.2,0.11-0.43,0.16-0.65,0.16   c-0.23,0-0.45-0.07-0.65-0.19c-0.2-0.12-0.36-0.28-0.47-0.48c-0.11-0.2-0.17-0.42-0.17-0.65l0.03-5.4c0-0.2,0.05-0.4,0.14-0.58   c0.09-0.18,0.22-0.34,0.38-0.46c0.21-0.16,2.1-1.51,5.2-0.4c0.82,0.27,1.72,0.27,2.54,0c0.2-0.08,0.41-0.11,0.63-0.08   c0.21,0.02,0.42,0.1,0.59,0.22c0.18,0.12,0.32,0.28,0.42,0.47c0.1,0.19,0.15,0.4,0.15,0.61v5.46c0,0.21-0.05,0.41-0.14,0.59   c-0.09,0.18-0.23,0.34-0.39,0.47C88.25,90.89,87.44,91.12,86.62,91.09z M82.92,87.74c0.79,0,1.57,0.15,2.3,0.44   c0.51,0.22,1.07,0.32,1.62,0.28v-2.93c-0.88,0.06-1.76-0.06-2.59-0.35c-0.7-0.28-1.46-0.34-2.19-0.19v2.82   C82.35,87.77,82.63,87.75,82.92,87.74z"/>
  <path fill="#1E8BCB" d="M123.33,117.61H93.9c-0.35,0-0.68-0.14-0.93-0.38c-0.25-0.25-0.38-0.58-0.38-0.93c0-0.35,0.14-0.68,0.38-0.93   c0.25-0.25,0.58-0.38,0.93-0.38h29.42c0.35,0,0.68,0.14,0.93,0.38c0.25,0.25,0.38,0.58,0.38,0.93c0,0.35-0.14,0.68-0.38,0.93   C124.01,117.47,123.68,117.61,123.33,117.61z"/>
  <path fill="#1E8BCB" d="M108.28,90.45c-0.35,0-0.68-0.14-0.93-0.38c-0.25-0.25-0.38-0.58-0.38-0.93v-1.29c0-0.35,0.14-0.68,0.38-0.93   c0.25-0.25,0.58-0.38,0.93-0.38c0.35,0,0.68,0.14,0.93,0.38c0.25,0.25,0.38,0.58,0.38,0.93v1.29c0,0.35-0.14,0.68-0.38,0.93   C108.97,90.31,108.63,90.45,108.28,90.45z"/>
</svg>
