<svg xmlns="http://www.w3.org/2000/svg" version="1.1" x="0px" y="0px" viewBox="0 0 120.2 120.2" style="enable-background:new 0 0 120.2 120.2;">
  <circle fill="#CFCFCF" cx="60.1" cy="60.1" r="60"/>
  <circle fill="#FFFFFF" cx="60.1" cy="60.1" r="56.6"/>
  <path fill="#F4F4F4" d="M60.1,3.5c31.3,0,56.6,25.3,56.6,56.6s-25.3,56.6-56.6,56.6"/>
  <path fill="#555555" d="M62.6,29.7c-1.4-1.1-3.5-1.1-4.9,0c-3.5,2.8-11.6,6.9-28.5,6.9v36.5c0,0.4,0.1,0.9,0.3,1.3    c1.3,2.5,7.2,11.2,29,20.7c1,0.4,2.2,0.4,3.3,0c21.8-9.5,27.7-18.3,29-20.7c0.2-0.4,0.3-0.8,0.3-1.3V36.7    C74.2,36.7,66.1,32.6,62.6,29.7z M84.8,71.9c0,0.5-0.1,0.9-0.4,1.3c-0.8,1.1-2.2,2.8-4.8,5c-4.4,3.7-10.4,7.3-17.8,10.8    c-1,0.5-2.3,0.5-3.3,0C51,85.6,45.1,82,40.7,78.3c-2.3-2-3.8-3.6-4.6-4.7c-0.4-0.6-0.7-1.3-0.7-2V41.9C48,41.1,55.6,38,60.1,35    c4.5,3,12.1,6.1,24.7,6.9V71.9z"/>
  <path fill="#555555" d="M40.9,46.1v25.3c1.8,2.2,6.9,7.2,19.2,13.1c12.3-5.9,17.4-10.9,19.2-13.1V46.1c-6.5-0.8-13.3-2.5-19.2-5.4    C54.2,43.6,47.4,45.2,40.9,46.1z M70.8,52.1l2.1,2.1c0.7,0.7,0.7,1.9,0,2.7L60.3,69.5l-3.4,3.4c-0.7,0.7-1.9,0.7-2.7,0l-6.5-6.5    c-0.7-0.7-0.7-1.9,0-2.7l2.1-2.1c0.7-0.7,1.9-0.7,2.7,0l3.1,3.1l12.6-12.6C68.9,51.3,70.1,51.3,70.8,52.1z"/>
</svg>
