<svg xmlns="http://www.w3.org/2000/svg" width="139" height="40" viewBox="0 0 139 40" fill="none">
  <path d="M37.0778 12.7496V8.85815H20.2422V30.7936H37.0778V26.851L26.3558 26.8817L26.2943 21.6795L36.361 21.6487L36.4224 17.4091L26.3661 17.4398V12.7803L37.088 12.7496H37.0778Z" fill="#2B7BBC"/>
  <path d="M48.0558 8.85815H38.3989V17.7266H44.3078V14.5724L45.7005 17.7266H52.3057L48.0558 8.85815ZM38.3989 30.7936H44.3078V21.659H38.3989V30.7936ZM55.3984 21.6487V24.1679L54.1901 21.6487H47.4311L51.4558 30.7834H61.1844V21.6487H55.3984ZM55.3984 8.85815V17.7266H61.1844V8.85815H55.3984Z" fill="#2B7BBC"/>
  <path d="M79.7402 19.2934C79.7402 22.212 79.1975 24.68 78.1222 26.6974C76.6681 29.4214 74.4253 30.7936 71.3838 30.7936H62.71V21.659H69.0796V26.298L75.4698 19.6211L69.0796 13.6508V17.7471H62.71V8.87866H71.3838C72.6331 8.89914 73.6675 9.06298 74.497 9.34972C75.9102 9.85151 77.0571 10.7834 77.9276 12.1352C78.6342 13.2207 79.1053 14.4086 79.3613 15.6784C79.6173 16.9483 79.7505 18.1567 79.7505 19.3139L79.7402 19.2934Z" fill="#2B7BBC"/>
  <path d="M94.8456 27.5575C93.7089 28.3869 92.3571 28.8171 90.7698 28.8171C89.6126 28.8171 88.5886 28.5918 87.6976 28.1514C86.8169 27.7008 86.0796 27.1171 85.5061 26.3695C84.9326 25.6322 84.4922 24.7515 84.1953 23.7479C83.8983 22.7341 83.755 21.6691 83.755 20.5426H99.9762C100.007 16.7741 99.1979 13.9067 97.5594 11.9302C95.9107 9.95379 93.6577 8.9707 90.7801 8.9707C89.2747 8.9707 87.9331 9.25744 86.7452 9.83091C85.5573 10.4146 84.564 11.2032 83.7447 12.217C82.9255 13.2308 82.2905 14.3982 81.8501 15.75C81.3995 17.0915 81.1846 18.5354 81.1846 20.0613C81.1846 21.5872 81.3688 23.0311 81.7477 24.3624C82.1266 25.6937 82.7002 26.8509 83.4785 27.834C84.2568 28.8171 85.25 29.5851 86.4584 30.1483C87.6668 30.7218 89.1108 30.9983 90.7698 30.9983C92.0909 30.9983 93.2481 30.814 94.2414 30.476C95.2348 30.1279 96.0949 29.6363 96.822 29.0014C97.5491 28.3665 98.1533 27.6291 98.6448 26.7792C99.1262 25.9292 99.5153 25.0076 99.8123 24.0245H97.1087C96.7298 25.5503 95.9823 26.7382 94.8558 27.5677L94.8456 27.5575ZM84.441 15.6988C84.7892 14.8079 85.25 14.0296 85.8338 13.3639C86.4175 12.6881 87.1139 12.1555 87.9331 11.7459C88.7524 11.3465 89.7048 11.1417 90.7801 11.1417C91.8553 11.1417 92.8077 11.3363 93.6474 11.7254C94.4769 12.1146 95.1733 12.6369 95.7263 13.3025C96.2793 13.9579 96.6889 14.7464 96.9756 15.6374C97.2624 16.5385 97.3955 17.5011 97.3955 18.5252H83.7651C83.8778 17.5319 84.1031 16.5897 84.4513 15.6988H84.441Z" fill="#2B7BBC"/>
  <path d="M117.917 0.0102506V12.7906C117.159 11.5003 116.115 10.5274 114.784 9.86174C113.463 9.20634 112.08 8.87865 110.636 8.87865C109.09 8.87865 107.738 9.17563 106.601 9.77983C105.465 10.384 104.512 11.193 103.775 12.1966C103.027 13.2104 102.464 14.3881 102.095 15.7296C101.727 17.0712 101.542 18.4741 101.542 19.9283C101.542 21.4542 101.717 22.8981 102.055 24.2396C102.403 25.5811 102.945 26.7486 103.683 27.7317C104.43 28.7148 105.383 29.4828 106.54 30.046C107.697 30.6093 109.09 30.896 110.749 30.896C111.404 30.896 112.07 30.8039 112.756 30.6093C113.432 30.425 114.097 30.1587 114.743 29.8003C115.388 29.4521 115.982 29.022 116.514 28.4895C117.057 27.9672 117.487 27.3527 117.835 26.6564H117.907V30.3225H120.273V0H117.907L117.917 0.0102506ZM117.456 23.3384C117.159 24.4239 116.719 25.3661 116.135 26.1649C115.562 26.9636 114.845 27.5883 113.975 28.0389C113.114 28.4997 112.131 28.725 111.025 28.725C110.022 28.725 109.1 28.5407 108.271 28.1823C107.431 27.8238 106.693 27.2913 106.069 26.5847C105.444 25.8884 104.953 25.0384 104.594 24.0246C104.236 23.021 104.062 21.8535 104.062 20.5325C104 19.2217 104.113 17.9928 104.379 16.8459C104.645 15.6989 105.055 14.7056 105.639 13.8454C106.212 12.9852 106.949 12.299 107.84 11.8075C108.731 11.3159 109.796 11.0599 111.025 11.0599C112.09 11.0599 113.063 11.2954 113.913 11.7665C114.763 12.2376 115.49 12.8725 116.074 13.661C116.668 14.4598 117.118 15.3814 117.436 16.4465C117.753 17.5115 117.907 18.6277 117.907 19.8156C117.907 21.0752 117.753 22.2529 117.456 23.3487V23.3384Z" fill="#2B7BBC"/>
  <path d="M135.839 8.88892V20.9114C135.839 22.0686 135.695 23.1234 135.398 24.0962C135.101 25.0691 134.681 25.8986 134.139 26.595C133.596 27.2913 132.93 27.8341 132.152 28.2232C131.353 28.6124 130.462 28.8172 129.469 28.8172C127.554 28.8172 126.182 28.3359 125.352 27.3835C124.523 26.4311 124.103 25.0486 124.103 23.2463V8.88892H121.686V23.2873C121.686 24.3932 121.819 25.407 122.075 26.3389C122.331 27.2708 122.751 28.0799 123.325 28.7762C123.898 29.4726 124.666 30.0153 125.608 30.4045C126.55 30.7936 127.718 30.9985 129.121 30.9985C130.032 30.9985 130.841 30.8858 131.538 30.6503C132.234 30.4147 132.848 30.1382 133.371 29.8003C133.893 29.4623 134.354 29.0937 134.763 28.6943C135.163 28.2949 135.532 27.8955 135.849 27.5269V30.425H138.266V8.88892H135.849H135.839Z" fill="#2B7BBC"/>
  <path d="M19.3205 23.0722C19.0952 20.1741 17.1904 18.3205 14.026 17.7265L9.25399 16.7844C6.75526 16.2826 6.46843 15.1664 6.46843 14.3779C6.58107 12.9134 7.84068 12.1966 10.3087 12.1966H10.3292C12.1827 12.2376 14.4153 13.8863 14.9887 14.4598L15.1014 14.552C15.4188 14.8182 15.5622 14.9104 15.9718 14.6748H15.9923L16.0128 14.6339C16.0128 14.6339 16.4019 14.2959 16.7296 14.0297C18.6446 12.4321 18.9416 12.1249 18.9211 11.9303L18.9006 11.8279L18.8597 11.8074C16.2791 7.94673 9.10038 7.67025 5.29085 9.17563C3.21199 9.90271 1.6144 11.5412 1.02044 13.5791C0.457206 15.5043 0.856537 17.532 2.11614 19.1398C3.54983 20.727 6.96 21.321 9.69426 21.7921C10.5135 21.9354 11.2816 22.0686 11.9063 22.2119C13.0123 22.4372 14.1388 22.8981 14.1183 24.598C13.8725 26.5642 11.8755 26.81 9.67376 26.9022C9.6328 26.9022 9.60209 26.9022 9.56113 26.9022C7.52324 26.9022 4.91182 25.3046 4.14377 24.4035C3.84679 24.0553 3.42694 24.0246 2.87394 24.3113L0.375276 25.8679C-0.0445919 26.216 -0.105996 26.5233 0.160262 26.9534C2.13671 29.5647 6.11003 30.7936 9.95028 30.7936C11.8243 30.7936 13.6574 30.5069 15.214 29.9436C18.1121 28.9093 19.5356 25.96 19.3103 23.0722H19.3205Z" fill="#2B7BBC"/>
  <path d="M69.6743 39.9999V35.1459H70.1043V35.832C70.2784 35.4736 70.6676 35.0435 71.3742 35.0435C72.3573 35.0435 72.941 35.8422 72.941 36.8663C72.941 37.8904 72.3265 38.6994 71.3537 38.6994C70.688 38.6994 70.2887 38.3 70.1146 37.9518V39.9897H69.6743V39.9999ZM71.2923 35.4531C70.5652 35.4531 70.1043 36.0675 70.1043 36.8868C70.1043 37.706 70.5652 38.3307 71.2923 38.3307C72.0194 38.3307 72.5006 37.706 72.5006 36.8868C72.5006 36.0675 72.0194 35.4531 71.2923 35.4531Z" fill="var(--parch-logo-main)"/>
  <path d="M73.2993 36.8868C73.2993 35.8013 74.0469 35.064 75.0198 35.064C75.9927 35.064 76.7402 35.8013 76.7402 36.8868C76.7402 37.9723 75.9722 38.7096 75.0198 38.7096C74.0674 38.7096 73.2993 37.9621 73.2993 36.8868ZM75.0301 38.3205C75.7059 38.3205 76.3101 37.788 76.3101 36.8868C76.3101 35.9856 75.7059 35.4531 75.0301 35.4531C74.3542 35.4531 73.75 35.9754 73.75 36.8868C73.75 37.7982 74.3542 38.3205 75.0301 38.3205Z" fill="var(--parch-logo-main)"/>
  <path d="M79.8121 35.1562L80.8464 38.0851L81.7579 35.1562H82.2289L81.0922 38.6278H80.6007L79.5664 35.6888L78.532 38.6278H78.0405L76.8936 35.1562H77.3748L78.2965 38.0851L79.3308 35.1562H79.8019H79.8121Z" fill="var(--parch-logo-main)"/>
  <path d="M85.5984 37.6343C85.4038 38.2181 84.8816 38.7096 84.0828 38.7096C83.1714 38.7096 82.3931 38.0337 82.3931 36.8663C82.3931 35.7808 83.1305 35.0537 84.0009 35.0537C85.0147 35.0537 85.6189 35.791 85.6189 36.8049C85.6189 36.8663 85.6189 36.9073 85.6189 36.9687H82.8437V36.9994C82.8437 37.788 83.4069 38.3205 84.0828 38.3205C84.6972 38.3205 85.0761 37.962 85.2195 37.5012L85.6087 37.6343H85.5984ZM85.1684 36.6103C85.1479 35.9754 84.7383 35.4531 84.0112 35.4531C83.366 35.4531 82.8949 35.9651 82.854 36.6103H85.1684Z" fill="var(--parch-logo-main)"/>
  <path d="M87.964 35.6068C87.8718 35.5863 87.7796 35.5658 87.6567 35.5658C87.0628 35.5658 86.6327 35.9447 86.6327 36.7332V38.6175H86.1924V35.146H86.6224V35.7911C86.8375 35.2996 87.2267 35.105 87.6875 35.105C87.8001 35.105 87.8923 35.1152 87.9537 35.146V35.6068H87.964Z" fill="var(--parch-logo-main)"/>
  <path d="M91.1795 37.6343C90.9849 38.2181 90.4625 38.7096 89.6637 38.7096C88.7523 38.7096 87.9741 38.0337 87.9741 36.8663C87.9741 35.7808 88.7114 35.0537 89.5819 35.0537C90.5957 35.0537 91.1998 35.791 91.1998 36.8049C91.1998 36.8663 91.1998 36.9073 91.1998 36.9687H88.4247V36.9994C88.4247 37.788 88.9878 38.3205 89.6637 38.3205C90.2782 38.3205 90.6572 37.962 90.8006 37.5012L91.1896 37.6343H91.1795ZM90.7493 36.6103C90.7288 35.9754 90.3192 35.4531 89.5921 35.4531C88.9469 35.4531 88.4759 35.9651 88.4349 36.6103H90.7493Z" fill="var(--parch-logo-main)"/>
  <path d="M94.3543 37.9416C94.2007 38.2898 93.8115 38.7199 93.1356 38.7199C92.1627 38.7199 91.5381 37.9109 91.5381 36.8868C91.5381 35.8628 92.1729 35.064 93.1356 35.064C93.8729 35.064 94.2211 35.5248 94.344 35.8115V33.3743H94.7843V37.9621C94.7843 38.3307 94.8151 38.5868 94.8253 38.6277H94.3951C94.3747 38.5356 94.3543 38.341 94.3543 38.085V37.9518V37.9416ZM93.1766 38.3205C93.8934 38.3205 94.3543 37.6958 94.3543 36.8766C94.3543 36.0573 93.8934 35.4429 93.1868 35.4429C92.4802 35.4429 91.9784 36.0368 91.9784 36.8766C91.9784 37.7163 92.4392 38.3205 93.1766 38.3205Z" fill="var(--parch-logo-main)"/>
  <path d="M97.1802 38.6175V33.364H97.6205V35.8115C97.7741 35.4736 98.1837 35.0435 98.88 35.0435C99.8427 35.0435 100.447 35.8422 100.447 36.8663C100.447 37.8904 99.8223 38.6994 98.8597 38.6994C98.194 38.6994 97.7843 38.3 97.6102 37.9313V38.6072H97.1802V38.6175ZM100.007 36.8868C100.007 36.0471 99.515 35.4531 98.8084 35.4531C98.1018 35.4531 97.6102 36.0471 97.6102 36.8868C97.6102 37.7265 98.0916 38.3307 98.8084 38.3307C99.5253 38.3307 100.007 37.7368 100.007 36.8868Z" fill="var(--parch-logo-main)"/>
  <path d="M101.113 40L101.973 38.167L100.499 35.146H100.99L102.209 37.7062L103.356 35.146H103.837L101.594 40H101.123H101.113Z" fill="var(--parch-logo-main)"/>
  <path d="M137.979 37.9416C137.672 37.9416 137.539 37.8187 137.539 37.5115V35.9139H138.255V35.1869H137.539V34.1321H136.791V34.6441C136.791 34.9513 136.627 35.1766 136.258 35.1766H136.084C136.269 35.3917 136.402 35.6477 136.453 35.9037H136.719V37.6344C136.719 38.2795 137.119 38.6584 137.754 38.6584C138.051 38.6584 138.204 38.6072 138.255 38.5765V37.9006C138.255 37.9006 138.081 37.9313 137.969 37.9313" fill="var(--parch-logo-main)"/>
  <path d="M106.888 36.6207V38.6177H106.018V33.5076H107.913C108.896 33.5076 109.541 34.1732 109.541 35.0642C109.541 35.9551 108.896 36.6207 107.913 36.6207H106.878H106.888ZM107.8 35.8629C108.353 35.8629 108.681 35.5557 108.681 35.0744C108.681 34.5931 108.353 34.2756 107.8 34.2756H106.899V35.8629H107.8Z" fill="var(--parch-logo-main)"/>
  <path d="M111.22 38.7098C110.186 38.7098 109.52 37.8905 109.52 36.846C109.52 35.8014 110.186 35.0027 111.2 35.0027C111.814 35.0027 112.131 35.3304 112.234 35.5659V35.1051H113.053V37.9725C113.053 38.2592 113.084 38.5459 113.094 38.6176H112.295C112.285 38.5357 112.254 38.3514 112.254 38.1158C112.101 38.4538 111.732 38.7098 111.22 38.7098ZM111.312 37.9929C111.865 37.9929 112.244 37.5219 112.244 36.846C112.244 36.1701 111.865 35.74 111.312 35.74C110.759 35.74 110.36 36.1701 110.36 36.846C110.36 37.5219 110.728 37.9929 111.312 37.9929Z" fill="var(--parch-logo-main)"/>
  <path d="M115.757 35.9346C115.665 35.9244 115.573 35.9142 115.481 35.9142C114.835 35.9142 114.538 36.2931 114.538 36.9485V38.6177H113.699V35.1051H114.518V35.6684C114.682 35.2895 115.071 35.0642 115.532 35.0642C115.634 35.0642 115.716 35.0744 115.757 35.0847V35.9346Z" fill="var(--parch-logo-main)"/>
  <path d="M116.699 36.8665C116.699 37.5731 117.15 37.9725 117.682 37.9725C118.215 37.9725 118.481 37.5936 118.563 37.3273L119.3 37.5936C119.136 38.1466 118.604 38.7405 117.682 38.7405C116.648 38.7405 115.87 37.9418 115.87 36.8767C115.87 35.8117 116.658 35.0129 117.662 35.0129C118.604 35.0129 119.126 35.6069 119.269 36.1701L118.522 36.4466C118.44 36.1394 118.205 35.7912 117.672 35.7912C117.139 35.7912 116.709 36.1701 116.709 36.8767L116.699 36.8665Z" fill="var(--parch-logo-main)"/>
  <path d="M120.58 38.6175H119.74V33.3948H120.58V35.4429C120.816 35.1357 121.215 35.0026 121.584 35.0026C122.454 35.0026 122.864 35.617 122.864 36.3953V38.6175H122.024V36.5387C122.024 36.1086 121.829 35.7604 121.307 35.7604C120.846 35.7604 120.59 36.1085 120.58 36.5489V38.6073V38.6175Z" fill="var(--parch-logo-main)"/>
  <path d="M123.499 38.6176V35.1051H124.297V35.5557C124.502 35.1972 124.943 35.0027 125.332 35.0027C125.792 35.0027 126.202 35.2075 126.386 35.6171C126.663 35.1563 127.073 35.0027 127.523 35.0027C128.158 35.0027 128.762 35.4021 128.762 36.334V38.6074H127.953V36.4671C127.953 36.0575 127.748 35.7502 127.277 35.7502C126.837 35.7502 126.55 36.0984 126.55 36.5285V38.6074H125.731V36.4671C125.731 36.0677 125.526 35.7502 125.055 35.7502C124.605 35.7502 124.328 36.0779 124.328 36.5285V38.6074H123.499V38.6176Z" fill="var(--parch-logo-main)"/>
  <path d="M132.541 37.614C132.357 38.2285 131.794 38.72 130.954 38.72C130.002 38.72 129.162 38.0236 129.162 36.8357C129.162 35.7297 129.981 34.9924 130.872 34.9924C131.958 34.9924 132.593 35.7093 132.593 36.8153C132.593 36.9484 132.582 37.0713 132.572 37.0815H130.002C130.022 37.614 130.442 37.9929 130.964 37.9929C131.487 37.9929 131.733 37.7267 131.845 37.3785L132.552 37.6038L132.541 37.614ZM131.743 36.4773C131.733 36.0677 131.456 35.699 130.872 35.699C130.35 35.699 130.043 36.0984 130.012 36.4773H131.733H131.743Z" fill="var(--parch-logo-main)"/>
  <path d="M133.801 38.6176H132.961V35.1051H133.781V35.5762C134.016 35.1768 134.426 35.0027 134.815 35.0027C135.675 35.0027 136.085 35.6171 136.085 36.3954V38.6176H135.245V36.5388C135.245 36.1087 135.051 35.7605 134.528 35.7605C134.057 35.7605 133.801 36.1291 133.801 36.59V38.6176Z" fill="var(--parch-logo-main)"/>
</svg>
