<svg xmlns="http://www.w3.org/2000/svg" version="1.1" x="0px" y="0px" viewBox="0 0 757.1 178" style="enable-background:new 0 0 757.1 178;">
  <path fill="#333333" d="M639.6,74.9c-0.1-0.8-0.6-1.4-1.3-1.7c-0.4-0.1-0.8-0.2-1.2-0.3c-0.9-0.1-1.8,0.3-2.6,0.7    c-3.1,1.6-6.2,3.3-9.3,4.9c-1.7,0.9-3.5,1.8-5.3,2.6c-0.6,0.3-1.4,0.4-2.1,0.5c-2.2,0.3-4.2,0.2-6.3-0.4c-0.7-0.2-1.9-0.5-2.5-0.8    l-11.6-7.8c0.1-0.2,0.2-0.7,0.2-0.9c0.4-0.8,0.6-1.7,0.8-2.6c0.1-0.9,0.2-1.8-0.1-2.7c-0.3-1.1-0.8-2-2.1-2.2c0-0.1,0-0.2,0-0.3    c0-1.3-0.3-2.4-1-3.5c-0.9-1.3-1.9-2.5-3.2-3.4c-0.5-0.4-1.1-0.7-1.7-1c-0.7-0.3-1.4-0.2-2,0.3c-0.3,0.3-0.6,0.6-0.9,0.8    c-0.3,0.3-0.6,0.6-0.8,0.9c-1-0.7-2-0.7-3-0.3c-1.1,0.5-1.4,1.5-1.7,2.6c-0.9,0.2-1.5,0.6-2,1.3c-0.5,0.7-0.5,1.5-0.5,2.2    c-1.4,1.3-2,2.7-1.5,4.5c-0.5,0.3-0.9,0.7-1.1,1.2c-0.7,1.7-0.1,3.9,1.3,5c0.6,0.5,1.3,1,2,1.5c1.6,1,3.2,1.8,5,2.3    c1,0.3,2.1,0.3,3-0.3c0.1-0.1,0.2-0.1,0.3-0.1c0.1,0.1,0.1,0.2,0.1,0.2c0.8,1.2,1.6,1.5,2.9,0.8c0.5-0.3,1.1-0.7,1.6-1.1    c0.5-0.4,1.2-1.1,1.6-1.5c0.2,0.1,0.3,0.2,0.4,0.3c3.4,2.5,6.7,5.1,10.4,7.3c3.4,1.7,7.5,2.3,9.6,2.3c0.6,0.1,1.1,0.1,1.7,0    c2.1-0.2,4.1-0.7,6.1-1.5c1.7-0.7,3.3-1.4,5-2.2c2.7-1.3,5.4-2.7,8-4.1c1-0.5,1.9-1.1,2.8-1.7C639.3,76.4,639.7,75.7,639.6,74.9z     M586.2,58.6c-0.7,0.9-1.6,1.7-1.9,2.7c-0.6-0.3-1.2-0.7-1.8-1C582.9,58.4,584.6,57.5,586.2,58.6z M581.3,61.3    c0.6-0.3,1.2-0.3,1.8,0c0.3,0.2,0.6,0.4,0.9,0.7c0.1,0.1,0.2,0.3,0.2,0.4c0.2,1,0.8,1.7,1.8,2c0.2,1.4-0.2,2.3-1.4,2.9    c-1.2-1.5-2.6-2.7-4.5-3.2C579.8,62.9,580.3,61.7,581.3,61.3z M578.2,67c0.1-0.7,0.4-1.3,0.8-1.9c0.4-0.5,0.7-0.6,1.3-0.4    c0.5,0.2,1,0.4,1.5,0.8c0.6,0.5,1.2,1,1.8,1.5c0.8,0.8,0.8,1.6,0.2,2.5c-0.3,0.4-0.7,0.8-1.3,1.2c-1.1-1.4-2.6-2.2-4.1-2.4    C578.3,68,578.2,67.5,578.2,67z M592,78.1c-0.4,0.3-0.7,0.5-1.2,0.7c-1,0.4-1.7,0.1-2-1c0.4-0.3,0.9-0.6,1.3-1    c0.2-0.1,0.5-0.3,0.3-0.6c-0.2-0.3-0.4,0-0.6,0.1c-0.5,0.4-1.1,0.7-1.6,1.1c-0.9,0.7-1.9,0.8-3,0.5c-1.8-0.5-3.5-1.4-5.1-2.4    c-0.5-0.3-1-0.7-1.5-1.1c-1.5-1.1-1.6-3-1.2-4.3c0.2-0.8,0.8-1.1,1.6-0.9c1.2,0.3,2.3,0.9,3,1.9c0.8,1.1,0.4,2.2-0.9,2.5    c-0.4,0.1-0.8,0-1.3,0c-0.2,0-0.3-0.1-0.5-0.1c0.3,0.6,1.4,0.8,2.3,0.5c1.1-0.4,1.5-1.1,1.3-2.6c1.3-0.9,2.1-1.9,1.9-3.6    c1.2-0.8,2.1-1.8,1.7-3.4c1.2-0.3,2.1-1,3-1.8c0.1-0.1,0.2-0.2,0.3-0.3c0.1-0.1,0-0.3,0-0.4c-0.1,0-0.3,0-0.4,0.1    c-0.3,0.2-0.6,0.5-0.9,0.7c-0.5,0.3-1,0.6-1.5,0.9c-0.5,0.2-1,0.3-1.5-0.1c-0.5-0.5-0.7-1-0.5-1.7c0.1-0.4,0.4-0.8,0.6-1.2    c0.9-1.1,1.9-2.2,2.9-3.2c0.6-0.7,1.2-0.7,2-0.3c1.2,0.6,2.1,1.4,3,2.3c0.5,0.6,1,1.2,1.4,1.9c0.7,1.1,0.9,2.3,0.7,3.6    c-0.1,0.6-0.2,1.2-0.3,1.9c0,0.2-0.1,0.4-0.1,0.6c0.1,0,0.1,0,0.2,0.1c0.5-0.6,0.7-1.4,0.9-2.1c0.6,0.1,0.9,0.4,1.2,0.9    c0.5,0.9,0.6,1.9,0.5,3c-0.2,1.6-0.8,3-1.6,4.4C595.2,75.1,593.8,76.8,592,78.1z"/>
  <path fill="#333333" d="M616.1,87.5c-0.4,0-0.7,0-1.1-0.1c-2.6-0.1-6.7-0.8-10-2.5c0,0,0,0-0.1,0c-3-1.8-5.9-3.9-8.6-5.9    c-0.5-0.4-1-0.8-1.5-1.1c-0.4,0.3-0.7,0.7-1.1,0.9c-0.5,0.4-1.1,0.8-1.7,1.2c-1.5,0.9-2.9,0.7-3.9-0.5c-1,0.4-2,0.4-3.2,0.1    c-1.8-0.5-3.5-1.3-5.3-2.4c-0.7-0.5-1.5-1-2.1-1.5c-1.8-1.5-2.5-4.1-1.6-6.3c0.2-0.5,0.5-0.9,0.9-1.3c-0.2-1.6,0.3-3.1,1.7-4.5    c0-0.7,0.1-1.5,0.7-2.3c0.5-0.8,1.2-1.3,2-1.6c0.3-1,0.9-2.1,2.1-2.7c1.1-0.5,2.2-0.5,3.2-0.1c0.1-0.1,0.2-0.2,0.3-0.3    c0.3-0.3,0.6-0.6,1-0.9c0.9-0.8,2.1-1,3.2-0.5c0.7,0.3,1.3,0.7,1.9,1.1c1.3,1,2.5,2.2,3.5,3.7c0.7,1.1,1.1,2.3,1.2,3.6    c1.2,0.6,1.7,1.8,2,2.6c0.3,1,0.4,2,0.2,3.2c-0.2,1-0.4,1.9-0.8,2.8l10.9,7.3c0.4,0.2,1.4,0.5,2,0.6l0.3,0.1    c1.9,0.5,3.8,0.6,5.8,0.3c0.5-0.1,1.2-0.2,1.8-0.5c1.7-0.8,3.4-1.6,5.2-2.6c2.2-1.2,4.5-2.4,6.7-3.5c0.9-0.5,1.7-0.9,2.6-1.4    c0.8-0.4,1.9-0.9,3.2-0.8c0.5,0,1.1,0.2,1.5,0.3c1.1,0.5,1.8,1.4,2,2.5c0.1,1.2-0.4,2.3-1.5,3c-0.8,0.6-1.8,1.2-2.9,1.8    c-3.1,1.6-5.6,3-8,4.1c-1.6,0.8-3.3,1.6-5.1,2.3c-2.1,0.9-4.3,1.4-6.4,1.5C616.6,87.5,616.4,87.5,616.1,87.5z M606,83.1    c3,1.5,6.8,2.1,9.1,2.2c0,0,0,0,0.1,0c0.6,0.1,1.1,0.1,1.5,0c1.9-0.1,3.8-0.6,5.7-1.4c1.7-0.7,3.3-1.4,4.9-2.2    c2.4-1.2,4.9-2.5,8-4.1c0.9-0.5,1.7-1,2.7-1.7c0.5-0.3,0.5-0.7,0.5-0.9c0,0,0,0,0,0c0-0.4-0.2-0.6-0.6-0.8    c-0.2-0.1-0.5-0.2-0.8-0.2c-0.6,0-1.2,0.1-2,0.6c-0.9,0.5-1.7,0.9-2.6,1.4c-2.2,1.2-4.4,2.4-6.7,3.5c-1.8,1-3.6,1.8-5.3,2.6    c-0.8,0.4-1.7,0.5-2.4,0.6c-2.4,0.3-4.5,0.2-6.7-0.4l-0.2-0.1c-0.8-0.2-1.9-0.5-2.5-0.9c0,0,0,0-0.1,0l-11.2-7.5    c-0.4,0.7-0.9,1.4-1.4,2c0.6,0.4,1.2,0.9,1.8,1.3C600.4,79.4,603,81.3,606,83.1z M590.3,74.9c0.6,0,1,0.5,1.1,0.6    c0.2,0.3,0.3,0.7,0.2,1c-0.1,0.3-0.2,0.5-0.4,0.7c0,0,0.1-0.1,0.1-0.1l0,0c1.6-1.2,2.9-2.6,4-4.4c0.9-1.4,1.3-2.7,1.5-3.9    c0.1-0.6,0-1.2-0.1-1.7c-0.1,0.3-0.3,0.6-0.6,0.8c-0.3,0.3-0.7,0.4-1.2,0.3l-0.2-0.1c-0.5-0.2-0.8-0.7-0.8-1.2l0-0.2    c0-0.2,0-0.3,0.1-0.5c0-0.2,0.1-0.4,0.1-0.7c0.1-0.4,0.2-0.8,0.2-1.1c0.1-1.1,0-2-0.6-2.8c-0.5-0.7-0.9-1.3-1.3-1.7    c-0.9-1-1.7-1.6-2.6-2.1c-0.4-0.2-0.4-0.2-0.7,0.1c-1,1-1.9,2.1-2.9,3.2c-0.2,0.2-0.3,0.5-0.4,0.8c0,0.1-0.1,0.3,0.2,0.5    c0,0,0,0,0,0c0,0,0.1,0,0.2-0.1c0.5-0.2,1-0.6,1.4-0.8c0.1-0.1,0.2-0.2,0.4-0.3c0.2-0.1,0.3-0.3,0.5-0.4c0.4-0.2,0.7-0.2,0.9-0.2    h0c0.3,0,0.6,0.1,0.9,0.3c0.2,0.2,0.3,0.6,0.3,0.9c0,0,0,0,0,0.1c0,0.2,0,0.4-0.1,0.7c-0.1,0.3-0.4,0.5-0.5,0.7l0,0    c-0.8,0.8-1.7,1.3-2.6,1.7c0,1.5-0.9,2.5-1.8,3.2c0,1.8-1.1,3-1.9,3.6c0.1,1.2-0.3,2.5-2.1,3.1c-0.1,0-0.2,0.1-0.3,0.1    c1.4,0.8,2.6,1.4,3.9,1.7c0.8,0.2,1.4,0.1,2-0.3c0.4-0.3,0.9-0.6,1.3-0.9l0.4-0.3C589.7,75,590,74.9,590.3,74.9z M578.5,70.1    c0,0,0,0.1-0.1,0.2c-0.1,0.3-0.3,1.3,0.1,2.2c0.3-0.2,0.6-0.3,0.9-0.2c0.1,0,0.1,0,0.2,0.1c0,0,0.1,0,0.1,0c0.1,0,0.2,0,0.3,0    c0.3,0,0.5,0,0.6,0c0.4-0.1,0.5-0.2,0.5-0.2c0,0,0-0.2-0.2-0.5c-0.6-0.8-1.4-1.3-2.4-1.5C578.6,70.1,578.5,70.1,578.5,70.1    L578.5,70.1z M579.8,72.3C579.8,72.3,579.8,72.3,579.8,72.3C579.8,72.3,579.8,72.3,579.8,72.3z M579.3,67.4    c1.2,0.3,2.4,0.9,3.4,1.8c0.1-0.1,0.2-0.2,0.2-0.3c0.4-0.6,0.3-0.7-0.1-1.2c-0.4-0.5-1-0.9-1.6-1.4c-0.3-0.2-0.7-0.4-1.2-0.6    c0,0,0,0,0,0c0,0,0,0,0,0c-0.3,0.4-0.5,0.9-0.6,1.4c0,0,0,0,0,0C579.3,67.3,579.3,67.3,579.3,67.4z M581.1,63.2    c1.3,0.5,2.5,1.3,3.6,2.5c0.1-0.2,0.2-0.4,0.2-0.6c-0.9-0.5-1.5-1.3-1.8-2.4c-0.3-0.2-0.5-0.3-0.7-0.5c-0.2-0.1-0.4-0.2-0.7,0    C581.4,62.4,581.2,62.8,581.1,63.2z M583.1,62.6C583.1,62.6,583.1,62.6,583.1,62.6C583.1,62.6,583.1,62.6,583.1,62.6z"/>
  <path fill="#FFFFFF" d="M595.3,67.2c0.5-0.6,0.7-1.4,0.9-2.1c0.6,0.1,0.9,0.4,1.2,0.9c0.5,0.9,0.6,1.9,0.5,3c-0.2,1.6-0.8,3-1.6,4.4   c-1.1,1.8-2.5,3.5-4.3,4.8c-0.4,0.3-0.7,0.5-1.2,0.7c-1,0.4-1.7,0.1-2-1c0.4-0.3,0.9-0.6,1.3-1c0.2-0.1,0.5-0.3,0.3-0.6   c-0.2-0.3-0.4,0-0.6,0.1c-0.5,0.4-1.1,0.7-1.6,1.1c-0.9,0.7-1.9,0.8-3,0.5c-1.8-0.5-3.5-1.4-5.1-2.4c-0.5-0.3-1-0.7-1.5-1.1   c-1.5-1.1-1.6-3-1.2-4.3c0.2-0.8,0.8-1.1,1.6-0.9c1.2,0.3,2.3,0.9,3,1.9c0.8,1.1,0.4,2.2-0.9,2.5c-0.4,0.1-0.8,0-1.3,0   c-0.2,0-0.3-0.1-0.5-0.1c0.3,0.6,1.4,0.8,2.3,0.5c1.1-0.4,1.5-1.1,1.3-2.6c1.3-0.9,2.1-1.9,1.9-3.6c1.2-0.8,2.1-1.8,1.7-3.4   c1.2-0.3,2.1-1,3-1.8c0.1-0.1,0.2-0.2,0.3-0.3c0.1-0.1,0-0.3,0-0.4c-0.1,0-0.3,0-0.4,0.1c-0.3,0.2-0.6,0.5-0.9,0.7   c-0.5,0.3-1,0.6-1.5,0.9c-0.5,0.2-1,0.3-1.5-0.1c-0.5-0.5-0.7-1-0.5-1.7c0.1-0.4,0.4-0.8,0.6-1.2c0.9-1.1,1.9-2.2,2.9-3.2   c0.6-0.7,1.2-0.7,2-0.3c1.2,0.6,2.1,1.4,3,2.3c0.5,0.6,1,1.2,1.4,1.9c0.7,1.1,0.9,2.3,0.7,3.6c-0.1,0.6-0.2,1.2-0.3,1.9   c0,0.2-0.1,0.4-0.1,0.6C595.2,67.2,595.3,67.2,595.3,67.2z M589.2,63.6c-0.4-0.1-0.4,0.1-0.6,0.3c-0.5,0.8-0.8,1.7-1,2.6   c-0.3,1.3-0.2,2.5,0.3,3.7c0.2,0.4,0.5,0.8,0.8,1.2c0.1,0.2,0.3,0.3,0.6,0c-1.1-1.1-1.4-2.4-1.3-3.9   C587.9,66.1,588.5,64.9,589.2,63.6z M594.5,70c-0.9,1.6-1.6,3.3-2.8,4.9C592.5,74.3,594.5,70.9,594.5,70z"/>
  <path fill="#FFFFFF" d="M582.6,70.7c-1.1-1.4-2.6-2.2-4.1-2.4c-0.2-0.4-0.3-0.9-0.2-1.3c0.1-0.7,0.4-1.3,0.8-1.9   c0.4-0.5,0.7-0.6,1.3-0.4c0.5,0.2,1,0.4,1.5,0.8c0.6,0.5,1.2,1,1.8,1.5c0.8,0.8,0.8,1.6,0.2,2.5C583.6,70,583.1,70.4,582.6,70.7z"/>
  <path fill="#FFFFFF" d="M585.9,64.3c0.2,1.4-0.2,2.3-1.4,2.9c-1.2-1.5-2.6-2.7-4.5-3.2c-0.2-1.2,0.3-2.3,1.2-2.8   c0.6-0.3,1.2-0.3,1.8,0c0.3,0.2,0.6,0.4,0.9,0.7c0.1,0.1,0.2,0.3,0.2,0.4C584.4,63.4,584.9,64,585.9,64.3z"/>
  <path fill="#FFFFFF" d="M582.4,60.3c0.4-2,2.2-2.8,3.7-1.7c-0.7,0.9-1.6,1.7-1.9,2.7C583.7,61,583.1,60.7,582.4,60.3z"/>
  <path d="M589.2,63.6c-0.7,1.3-1.2,2.5-1.3,4c-0.1,1.5,0.3,2.8,1.3,3.9c-0.3,0.3-0.4,0.1-0.6,0c-0.3-0.4-0.6-0.8-0.8-1.2   c-0.5-1.2-0.6-2.5-0.3-3.7c0.2-0.9,0.5-1.8,1-2.6C588.7,63.7,588.8,63.5,589.2,63.6z"/>
  <path fill="#333333" d="M594.5,70c0,1-2,4.4-2.8,4.9C592.8,73.2,593.6,71.6,594.5,70z"/>
  <ellipse fill="#333333" cx="658.9" cy="166.1" rx="43.7" ry="3.2"/>
  <ellipse fill="#333333" cx="109.1" cy="168.9" rx="32" ry="3.2"/>
  <rect x="117.3" y="99.6" transform="matrix(-0.9824 0.1869 -0.1869 -0.9824 263.8058 243.0647)" fill="#787878" width="6.3" height="68.8"/>
  <rect x="98.7" y="61.6" transform="matrix(0.9824 0.1869 -0.1869 0.9824 23.3184 -17.0427)" fill="#787878" width="6.7" height="107.1"/>
  <path fill="#8F1A1C" d="M127.5,129c12.7-3.5,17.2-27.5,10-53.4c-7.2-25.9-23.4-44.1-36.2-40.5c-12.7,3.5-17.2,27.5-10,53.4     C98.5,114.4,114.8,132.6,127.5,129z"/>
  <path fill="#FFFFFF" d="M133.1,127.4c12.7-3.5,17.2-27.5,10-53.4c-7.2-25.9-23.4-44.1-36.2-40.5c-12.7,3.5-17.2,27.5-10,53.4     C104.1,112.8,120.4,131,133.1,127.4z"/>
  <path fill="#E43333" d="M130.9,119.5c10.6-2.9,14.3-22.9,8.3-44.4c-6-21.5-19.5-36.7-30.1-33.7c-10.6,2.9-14.3,22.9-8.3,44.4     C106.8,107.4,120.3,122.5,130.9,119.5z"/>
  <path fill="#FFFFFF" d="M128.7,111.6c8.4-2.4,11.4-18.2,6.6-35.4c-4.8-17.2-15.5-29.2-24-26.9c-8.4,2.4-11.4,18.2-6.6,35.4     C109.5,101.9,120.2,114,128.7,111.6z"/>
  <path fill="#E43333" d="M126.5,103.7c6.3-1.8,8.5-13.6,5-26.4c-3.6-12.8-11.6-21.8-17.9-20c-6.3,1.8-8.5,13.6-5,26.4     C112.2,96.5,120.2,105.5,126.5,103.7z"/>
  <ellipse transform="matrix(0.9634 -0.2682 0.2682 0.9634 -17.1888 35.1412)" fill="#FFFFFF" cx="120" cy="80.5" rx="7.8" ry="15.9"/>
  <path fill="#E43333" d="M122.1,87.9c2-0.6,2.7-4.3,1.6-8.4c-1.1-4.1-3.7-6.9-5.7-6.4c-2,0.6-2.7,4.3-1.6,8.4     C117.5,85.6,120.1,88.4,122.1,87.9z"/>
  <path fill="#CECECE" d="M567.4,59l0.4-1.4c3.6,1.1,5.6,1.8,5.6,1.8l-0.5,1.4C573,60.7,571,60.1,567.4,59z M556.1,55.7l0.4-1.4     c1.9,0.5,3.8,1.1,5.7,1.6l-0.4,1.4C560,56.7,558.1,56.2,556.1,55.7z M196.7,53.7c1.8-0.6,3.7-1.2,5.6-1.8l0.4,1.4     c-1.9,0.6-3.7,1.2-5.6,1.8L196.7,53.7z M544.8,52.6l0.4-1.4c2,0.5,3.9,1,5.7,1.5l-0.4,1.4C548.7,53.6,546.8,53.1,544.8,52.6z      M207.9,50.1c1.9-0.6,3.8-1.1,5.6-1.7l0.4,1.4c-1.9,0.5-3.8,1.1-5.6,1.7L207.9,50.1z M533.4,49.8l0.3-1.4c2,0.5,3.9,0.9,5.7,1.4     l-0.4,1.4C537.2,50.7,535.3,50.3,533.4,49.8z M521.9,47.2l0.3-1.4c2,0.4,3.9,0.9,5.7,1.3l-0.3,1.4     C525.8,48,523.9,47.6,521.9,47.2z M219.2,46.9c1.9-0.5,3.8-1,5.7-1.5l0.4,1.4c-1.9,0.5-3.8,1-5.7,1.5L219.2,46.9z M510.4,44.7     l0.3-1.4c2,0.4,3.9,0.8,5.8,1.2l-0.3,1.4C514.3,45.5,512.4,45.1,510.4,44.7z M230.6,43.9c1.9-0.5,3.8-0.9,5.7-1.4l0.3,1.4     c-1.9,0.4-3.8,0.9-5.7,1.4L230.6,43.9z M498.9,42.5l0.3-1.4c2,0.4,3.9,0.7,5.8,1.1l-0.3,1.4C502.8,43.2,500.8,42.8,498.9,42.5z      M242,41.2c1.9-0.4,3.8-0.8,5.7-1.2l0.3,1.4c-1.9,0.4-3.8,0.8-5.7,1.2L242,41.2z M487.3,40.4l0.2-1.4c2,0.3,3.9,0.7,5.8,1     l-0.3,1.4C491.2,41.1,489.3,40.7,487.3,40.4z M253.6,38.8c1.9-0.4,3.9-0.8,5.8-1.1l0.3,1.4c-1.9,0.4-3.8,0.7-5.8,1.1L253.6,38.8z      M475.7,38.5l0.2-1.5c2,0.3,3.9,0.6,5.8,0.9l-0.2,1.5C479.6,39.1,477.7,38.8,475.7,38.5z M265.1,36.7c1.9-0.3,3.9-0.7,5.8-1     l0.2,1.5c-1.9,0.3-3.9,0.6-5.8,1L265.1,36.7z M464.1,36.8l0.2-1.5c2,0.3,3.9,0.6,5.8,0.8l-0.2,1.5C468,37.3,466.1,37,464.1,36.8z      M276.7,34.8c1.9-0.3,3.9-0.6,5.8-0.9l0.2,1.5c-1.9,0.3-3.9,0.6-5.8,0.8L276.7,34.8z M452.4,35.2l0.2-1.5c2,0.2,3.9,0.5,5.8,0.7     l-0.2,1.5C456.4,35.7,454.4,35.5,452.4,35.2z M288.3,33.1c1.9-0.3,3.9-0.5,5.8-0.7l0.2,1.5c-1.9,0.2-3.9,0.5-5.8,0.7L288.3,33.1z      M440.8,33.9l0.2-1.5c2,0.2,3.9,0.4,5.8,0.7l-0.2,1.5C444.7,34.3,442.7,34.1,440.8,33.9z M429.1,32.7l0.1-1.5     c2,0.2,3.9,0.4,5.9,0.6l-0.1,1.5C433,33.1,431,32.9,429.1,32.7z M300,31.7c2-0.2,3.9-0.4,5.8-0.6l0.1,1.5     c-1.9,0.2-3.9,0.4-5.8,0.6L300,31.7z M417.4,31.7l0.1-1.5c2,0.1,3.9,0.3,5.9,0.5l-0.1,1.5C421.3,32,419.3,31.9,417.4,31.7z      M311.7,30.6c2-0.2,3.9-0.3,5.9-0.5l0.1,1.5c-1.9,0.2-3.9,0.3-5.8,0.5L311.7,30.6z M405.7,30.9l0.1-1.5c2,0.1,3.9,0.2,5.9,0.4     l-0.1,1.5C409.6,31.2,407.6,31,405.7,30.9z M323.4,29.7c2-0.1,3.9-0.3,5.9-0.4l0.1,1.5c-1.9,0.1-3.9,0.2-5.8,0.4L323.4,29.7z      M393.9,30.3l0.1-1.5c2,0.1,3.9,0.2,5.9,0.3l-0.1,1.5C397.8,30.5,395.9,30.4,393.9,30.3z M335.2,29c2-0.1,3.9-0.2,5.9-0.3     l0.1,1.5c-2,0.1-3.9,0.2-5.9,0.3L335.2,29z M382.2,29.9l0-1.5c2,0,3.9,0.1,5.9,0.2l0,1.5C386.1,30.1,384.2,30,382.2,29.9z      M346.9,28.5c2-0.1,3.9-0.1,5.9-0.1l0,1.5c-2,0-3.9,0.1-5.9,0.1L346.9,28.5z M370.4,29.8l0-1.5c2,0,3.9,0,5.9,0.1l0,1.5     C374.4,29.8,372.4,29.8,370.4,29.8z M358.7,28.3c2,0,3.9,0,5.9,0l0,1.5c-2,0-3.9,0-5.9,0L358.7,28.3z"/>
  <path fill="#333333" d="M730.3,79.5c0.6-1.2,1.6-2.1,2.7-2.9c0.4-0.3,0.8-0.6,1.2-0.9c0.8-0.7,1-1.6,0.8-2.6c-0.1-0.5-0.3-1-0.4-1.5    c-0.1-0.5-0.3-1-0.4-1.5c-0.1-0.8,0-1.5,0.7-2c0.7-0.5,1.5-0.7,2.4-0.3c0.4,0.2,0.8,0.4,1.1,0.6c1.3,0.9,1.9,2.3,2.3,3.7    c0.2,0.8,0.3,1.7,0.1,2.5c-0.1,0.3-0.1,0.6-0.2,1c0.4-0.1,0.8-0.1,1.2-0.2c1.3-0.2,2.6-0.2,3.9,0.1c1.1,0.3,2.1,0.7,2.8,1.6    c0.4,0.5,0.6,1,0.5,1.6c0,0.2,0,0.4,0.2,0.5c0.9,1.3,1.5,2.6,0.6,4.1c1.1,1.5,1.1,2.5,0,4c0,0.1,0.1,0.2,0.1,0.2    c0.9,1.8,0.1,3.6-1.9,4.2c-0.9,0.3-1.8,0.4-2.7,0.2c-0.6-0.1-1.1-0.1-1.7,0.1c-1.5,0.3-3.1,0.6-4.6,0.9c-1.7,0.3-3.4-0.1-4.8-1.1    c-0.1-0.1-0.2-0.1-0.3-0.2c-0.3,0.8-1,0.9-1.7,0.8c-0.9-0.1-1.6-0.5-2.2-1.1c-0.7-0.6-1.3-1.4-1.7-2.3c-0.1-0.2-0.2-0.3-0.3-0.4    c-0.4,0.1-0.7,0.2-1.1,0.3c-3.8,0.9-7.7,1.7-11.6,2.2c-1.7,0.2-3.3,0.4-5,0.4c-0.9,0-1.8,0-2.7-0.2c-1.8-0.4-3.5-1.1-5.1-2.1    c-1.4-0.8-2.8-1.7-4.1-2.6c-2.2-1.5-4.4-3.1-6.5-4.7c-0.8-0.6-1.5-1.2-2.2-1.9c-0.5-0.5-0.8-1.1-0.6-1.9c0.2-0.7,0.7-1.1,1.3-1.3    c0.3-0.1,0.7-0.1,1.1-0.1c0.8,0.1,1.6,0.5,2.2,1c2.5,1.8,5,3.7,7.5,5.5c1.4,1,2.8,2,4.3,3c0.5,0.3,1.1,0.6,1.7,0.7    c1.9,0.6,3.8,0.5,5.7,0.3c1.7-0.2,3.3-0.5,4.9-0.9c2.7-0.6,5.5-1.3,8.2-1.9c0.2-0.1,0.4-0.1,0.6-0.1c0-0.6,0-1.2,0.1-1.7    c0.2-1.1,0.8-2,1.8-2.5c0.4-0.2,0.7-0.2,1.1-0.1c0.1,0,0.2,0.1,0.4,0.1C730.1,80,730.2,79.7,730.3,79.5z M732,89.3    c0.3-0.1,0.4,0.2,0.5,0.3c0.6,0.6,1.2,1.2,1.9,1.7c1.4,1.1,3,1.4,4.7,1.1c1.6-0.2,3.1-0.5,4.7-0.8c0,0,0-0.1,0-0.1    c-0.1-0.1-0.2-0.2-0.4-0.2c-0.5-0.3-0.9-0.6-1.2-1.2c-0.4-0.8-0.4-1.6,0.1-2.5c-0.1-0.1-0.3-0.2-0.4-0.3c-0.3-0.3-0.6-0.6-0.8-1    c-0.3-0.6-0.2-1.2,0.3-1.7c0.1-0.1,0.2-0.1,0.3-0.2c-0.9-0.8-1.2-1.7-0.7-2.8c-0.3-0.1-0.5-0.3-0.8-0.4c-0.8-0.5-1.1-1.3-0.7-2.1    c0.4-1.1,1.2-1.8,2.3-2.2c0.2-0.1,0.5-0.1,0.8-0.1c0,0,0,0.1,0.1,0.1c-0.1,0.1-0.2,0.2-0.3,0.2c-0.5,0.3-1,0.6-1.4,0.9    c-0.4,0.3-0.7,0.7-0.9,1.2c-0.2,0.6-0.1,1.1,0.5,1.4c0.4,0.2,0.8,0.4,1.2,0.4c2,0.2,3.9-0.1,5.6-1.1c0.3-0.2,0.6-0.4,0.9-0.7    c0.5-0.6,0.5-1.2,0-1.8c-0.6-0.8-1.4-1.2-2.3-1.4c-1.1-0.3-2.3-0.3-3.5-0.2c-0.6,0.1-1.2,0.1-1.7,0.2c-0.1,0-0.3,0-0.4,0    c-0.3,0-0.3-0.2-0.2-0.4c0.1-0.3,0.3-0.6,0.3-1c0.2-0.9,0.2-1.8-0.1-2.7c-0.4-1.3-1-2.6-2.2-3.4c-0.3-0.2-0.7-0.4-1-0.5    c-0.7-0.2-1.3-0.1-1.8,0.4c-0.3,0.2-0.4,0.6-0.4,1c0,0.6,0.1,1.2,0.3,1.8c0.2,0.6,0.3,1.1,0.5,1.7c0.3,1.2,0,2.2-0.9,3.1    c-0.3,0.3-0.7,0.6-1.1,0.8c-0.7,0.5-1.4,1.1-2,1.8c-1,1.2-1.3,2.5-1.1,4c0,0.2,0,0.3,0.1,0.6c-0.2-0.1-0.3-0.2-0.4-0.3    c-0.1-0.3-0.2-0.7-0.3-1c0-0.4,0-0.8,0-1.2c-0.5-0.4-0.8-0.4-1.4,0c-0.8,0.5-1.3,1.3-1.3,2.3c-0.2,2.8,0.7,5.3,2.5,7.5    c0.4,0.5,0.9,0.9,1.5,1.2c0.5,0.2,0.9,0.3,1.4,0.3c0.4,0,0.6-0.2,0.8-0.6C732.8,90.8,732.1,90.3,732,89.3z M726.7,85    c-0.6,0.1-1.3,0.3-2,0.4c-2.8,0.6-5.5,1.3-8.3,1.9c-2,0.5-4.1,0.7-6.2,0.7c-1.1,0-2.3-0.1-3.3-0.5c-0.6-0.2-1.3-0.4-1.8-0.8    c-1.7-1.1-3.4-2.3-5-3.5c-2.3-1.6-4.5-3.3-6.8-5c-0.5-0.4-1-0.7-1.6-0.8c-0.5-0.1-1-0.2-1.5,0c-0.9,0.3-1.2,1.3-0.6,2    c0.1,0.2,0.3,0.4,0.5,0.5c1.3,1.2,2.7,2.2,4.2,3.2c1.8,1.3,3.6,2.5,5.5,3.8c1.9,1.3,3.8,2.4,5.9,3.2c1.8,0.7,3.6,0.9,5.5,0.8    c5.6-0.4,11-1.6,16.5-2.8C727.3,87.1,727,86.1,726.7,85z M742.3,84.3c0.6,0.3,1.1,0.3,1.7,0.4c1.2,0.1,2.4-0.1,3.6-0.5    c0.4-0.2,0.8-0.4,1.2-0.6c0.7-0.5,0.9-1.1,0.8-2c-0.1-0.8-0.5-1.5-0.9-2c0,0-0.1,0-0.1,0c-1,1.2-2.3,1.7-3.8,2    c-1,0.2-1.9,0.3-2.9,0.2c-0.2,0-0.4,0-0.6,0C741,83,741.3,83.9,742.3,84.3z M745.9,85.1c-1.2,0.2-2.4,0.2-3.6-0.2    c-0.2-0.1-0.4,0-0.6,0.1c-0.3,0.3-0.4,0.8-0.2,1.2c0.2,0.5,0.5,0.8,0.9,1c0.7,0.5,1.5,0.7,2.4,0.8c1.1,0.1,2.1,0.1,3.2-0.3    c0.4-0.1,0.7-0.3,1.1-0.5c1.2-0.8,1.3-2.3,0.3-3.5C748.3,84.6,747.2,84.9,745.9,85.1z M742.6,88c-0.4,0.4-0.4,0.9-0.3,1.4    c0.1,0.6,0.4,1,0.9,1.3c0.9,0.6,2,0.9,3.1,0.9c0.6,0,1.2-0.1,1.8-0.3c1.5-0.5,2.1-2.2,1.3-3.7C747.2,88.9,744.9,88.8,742.6,88z"/>
  <path fill="#333333" d="M737.8,94.1c-1.4,0-2.6-0.3-3.8-1c-0.5,0.4-1.2,0.6-2.1,0.5c-1-0.1-1.9-0.6-2.8-1.4c-0.7-0.6-1.3-1.3-1.8-2.3    c-0.1,0-0.2,0.1-0.4,0.1c-4.5,1-8.2,1.7-11.7,2.2c-1.4,0.2-3.3,0.4-5.2,0.4c-0.9,0-1.9,0-2.9-0.2c-1.8-0.4-3.6-1.1-5.4-2.2    c-1.4-0.8-2.8-1.7-4.1-2.6c-1.9-1.3-4-2.8-6.5-4.7c-0.9-0.6-1.7-1.4-2.3-2c-0.9-0.8-1.2-1.8-0.9-2.9c0.3-1,1-1.8,2.1-2    c0.4-0.1,0.9-0.1,1.4-0.1c1.2,0.1,2.1,0.7,2.7,1.2c0.7,0.5,1.4,1,2.1,1.6c1.8,1.3,3.6,2.6,5.4,3.9c1.5,1,2.9,2,4.3,2.9    c0.5,0.3,1.1,0.5,1.5,0.6c1.5,0.4,3.1,0.5,5.3,0.2c1.7-0.2,3.5-0.6,4.8-0.9c1.9-0.4,3.8-0.9,5.7-1.3c0.8-0.2,1.6-0.4,2.4-0.6    c0-0.3,0-0.7,0.1-1c0.2-1.4,1-2.6,2.3-3.3c0.4-0.2,0.9-0.3,1.4-0.3c0,0,0,0,0,0l0,0c0.6-1.2,1.6-2.3,3-3.3    c0.4-0.3,0.8-0.6,1.1-0.8c0.3-0.3,0.6-0.7,0.4-1.5c-0.1-0.3-0.1-0.5-0.2-0.8c-0.1-0.2-0.1-0.4-0.2-0.6c0-0.1-0.1-0.2-0.1-0.3    c-0.1-0.4-0.2-0.9-0.3-1.3c-0.2-1.6,0.5-2.5,1.1-3c1-0.8,2.3-1,3.4-0.5c0.5,0.2,0.9,0.5,1.3,0.8c1.7,1.2,2.3,3,2.7,4.3    c0.2,0.9,0.3,1.7,0.2,2.6c1.6-0.2,2.8-0.2,4,0.1c1.4,0.3,2.5,1,3.3,1.9c0.6,0.7,0.9,1.5,0.8,2.2c0.5,0.7,1.7,2.5,0.9,4.6    c0.9,1.4,0.9,2.7,0,4.2c0.4,1.1,0.4,2.2,0,3.1c-0.5,1.1-1.4,1.8-2.6,2.2c-1.2,0.3-2.2,0.4-3.2,0.2c-0.4-0.1-0.7,0-1.2,0.1    c-1.5,0.3-3.1,0.6-4.7,0.9C738.7,94,738.3,94.1,737.8,94.1z M733.2,88.9c0.2,0.2,0.4,0.4,0.6,0.6c0.4,0.4,0.8,0.8,1.2,1.1    c1.1,0.9,2.4,1.2,3.9,0.9c0.9-0.1,1.7-0.3,2.6-0.4c-0.1-0.1-0.2-0.3-0.3-0.4c-0.4-0.9-0.5-1.8-0.3-2.7c0,0-0.1-0.1-0.1-0.1    c-0.2-0.3-0.5-0.6-0.7-1c-0.4-0.8-0.3-1.6,0.1-2.4c-0.5-0.8-0.6-1.5-0.5-2.2c0,0-0.1-0.1-0.1-0.1c-1.2-0.8-1.6-2-1.1-3.4    c0.3-0.7,0.7-1.3,1.2-1.7c-0.1-0.1-0.2-0.1-0.3-0.2l-0.1,0l0,0c-0.1-0.1-0.1-0.2-0.2-0.2c-0.1-0.2-0.3-0.6-0.1-1.2    c0-0.1,0.1-0.2,0.1-0.4c0.1-0.2,0.1-0.4,0.2-0.5c0.2-0.7,0.1-1.4-0.1-2.2c-0.4-1.4-1-2.3-1.8-2.9c-0.3-0.2-0.5-0.3-0.8-0.4    c-0.2-0.1-0.4-0.1-0.8,0.2c0,0-0.1,0.1-0.1,0.2c0,0.4,0.1,0.8,0.3,1.4c0,0.1,0.1,0.3,0.1,0.4c0.1,0.4,0.3,0.9,0.4,1.3    c0.4,1.6,0,3-1.2,4.1c-0.4,0.3-0.8,0.6-1.2,0.9c-0.8,0.6-1.3,1-1.8,1.6c-0.8,0.9-1,1.9-0.8,3.1c0,0.1,0,0.2,0.1,0.4l0.3,2.7    l-2-1.5c0,0-0.1-0.1-0.1-0.1c-0.2-0.1-0.5-0.3-0.6-0.7l0,0c-0.1-0.4-0.3-0.8-0.3-1.2c0-0.1,0-0.2,0-0.3c-0.4,0.3-0.6,0.8-0.6,1.3    c-0.1,2.5,0.6,4.8,2.3,6.8c0.2,0.3,0.5,0.5,0.8,0.7c-0.2-0.3-0.3-0.6-0.3-1l-0.1-1l1-0.2C732.2,88.3,732.7,88.3,733.2,88.9    C733.2,88.9,733.2,88.9,733.2,88.9C733.2,88.9,733.2,88.9,733.2,88.9z M743.4,89.3c0,0.2,0.1,0.4,0.5,0.6c0.7,0.5,1.5,0.7,2.4,0.7    c0.6,0,1.1-0.1,1.5-0.3c0.4-0.1,0.7-0.4,0.9-0.8c0.1-0.1,0.1-0.3,0.1-0.4C747,89.7,745.3,89.8,743.4,89.3z M690.9,78.4    c-0.1,0-0.3,0-0.4,0.1c-0.1,0-0.2,0.1-0.2,0.2c0,0.1,0,0.2,0.1,0.3c0.1,0.1,0.2,0.2,0.3,0.3c1.4,1.2,2.9,2.3,4.1,3.1    c0.9,0.6,1.7,1.2,2.6,1.8c1,0.7,1.9,1.3,2.9,2c1.9,1.3,3.8,2.3,5.7,3.1c1.5,0.6,3.2,0.8,5,0.7c5.1-0.4,10.3-1.5,15.2-2.6l-0.3-1.2    c-0.3,0.1-0.7,0.1-1,0.2c-0.9,0.2-1.8,0.4-2.7,0.6c-1.8,0.4-3.7,0.9-5.6,1.3c-2.4,0.5-4.5,0.8-6.4,0.7c-1.5,0-2.6-0.2-3.6-0.5    c-0.6-0.2-1.4-0.5-2.1-0.9c-1.6-1.1-3.3-2.2-5-3.5c-1.7-1.2-3.4-2.5-5-3.7c-0.6-0.4-1.2-0.9-1.8-1.3c-0.5-0.4-0.9-0.6-1.2-0.7    C691.2,78.4,691.1,78.4,690.9,78.4z M742.6,86c0.1,0.1,0.2,0.2,0.4,0.4c0.5,0.3,1.1,0.5,1.9,0.6c1,0.1,1.9,0,2.7-0.2    c0.3-0.1,0.6-0.2,0.8-0.4c0.3-0.2,0.5-0.5,0.5-0.8c0-0.1,0-0.2,0-0.3c-1.1,0.6-2.1,0.8-2.9,0.9v0C745.1,86.2,743.9,86.3,742.6,86z     M742.8,83.4c0.4,0.2,0.8,0.3,1.4,0.3c1.1,0.1,2.2-0.1,3.2-0.5c0.3-0.1,0.7-0.3,1-0.5c0.3-0.2,0.4-0.5,0.4-0.9    c0-0.2-0.1-0.4-0.1-0.6c-1.1,0.8-2.3,1.2-3.4,1.5c-0.9,0.2-1.8,0.3-2.8,0.3C742.3,83.1,742.5,83.3,742.8,83.4L742.8,83.4z     M740.8,80C740.8,80,740.8,80,740.8,80c0.3,0.2,0.6,0.3,0.9,0.3c1.9,0.2,3.5-0.1,4.9-1c0.2-0.1,0.5-0.3,0.6-0.5    c0.2-0.2,0.2-0.2,0-0.5c-0.4-0.5-1-0.8-1.8-1.1c-0.6-0.1-1.1-0.2-1.8-0.2l0.2,0.4l-0.7,0.5c-0.1,0.1-0.2,0.1-0.3,0.2    c-0.2,0.1-0.3,0.2-0.5,0.3c-0.3,0.2-0.6,0.4-0.9,0.6c-0.3,0.2-0.4,0.4-0.6,0.8C740.8,79.9,740.8,79.9,740.8,80z M740.8,79.9    L740.8,79.9L740.8,79.9z"/>
  <path fill="#FFFFFF" d="M732.6,91.9c-0.5,0-1,0-1.4-0.3c-0.6-0.3-1.1-0.7-1.5-1.2c-1.8-2.2-2.7-4.7-2.5-7.5c0.1-1,0.5-1.7,1.3-2.3   c0.5-0.4,0.8-0.3,1.4,0c0,0.4,0,0.8,0,1.2c0,0.4,0.2,0.7,0.3,1c0,0.1,0.2,0.1,0.4,0.3c0-0.3-0.1-0.5-0.1-0.6   c-0.2-1.5,0.1-2.8,1.1-4c0.6-0.7,1.3-1.2,2-1.8c0.4-0.3,0.7-0.5,1.1-0.8c0.9-0.8,1.2-1.9,0.9-3.1c-0.1-0.6-0.3-1.1-0.5-1.7   c-0.2-0.6-0.3-1.1-0.3-1.8c0-0.4,0.1-0.7,0.4-1c0.5-0.5,1.2-0.6,1.8-0.4c0.4,0.1,0.7,0.3,1,0.5c1.2,0.8,1.8,2.1,2.2,3.4   c0.3,0.9,0.3,1.8,0.1,2.7c-0.1,0.3-0.2,0.6-0.3,1c-0.1,0.3,0,0.4,0.2,0.4c0.1,0,0.3,0,0.4,0c0.6-0.1,1.2-0.1,1.7-0.2   c1.2-0.1,2.3-0.1,3.5,0.2c0.9,0.2,1.7,0.7,2.3,1.4c0.5,0.6,0.5,1.2,0,1.8c-0.2,0.3-0.6,0.5-0.9,0.7c-1.7,1-3.6,1.4-5.6,1.1   c-0.4,0-0.8-0.2-1.2-0.4c-0.6-0.3-0.7-0.8-0.5-1.4c0.2-0.5,0.5-0.9,0.9-1.2c0.5-0.3,0.9-0.6,1.4-0.9c0.1-0.1,0.2-0.2,0.3-0.2   c0,0,0-0.1-0.1-0.1c-0.3,0-0.5,0-0.8,0.1c-1.1,0.4-1.9,1.1-2.3,2.2c-0.3,0.9-0.1,1.6,0.7,2.1c0.2,0.2,0.5,0.3,0.8,0.4   c-0.4,1.1-0.1,1.9,0.7,2.8c-0.1,0.1-0.2,0.1-0.3,0.2c-0.5,0.5-0.6,1.1-0.3,1.7c0.2,0.4,0.5,0.7,0.8,1c0.1,0.1,0.2,0.2,0.4,0.3   c-0.5,0.8-0.5,1.6-0.1,2.5c0.3,0.5,0.7,0.9,1.2,1.2c0.1,0.1,0.3,0.2,0.4,0.2c0,0,0,0.1,0,0.1c-1.6,0.3-3.1,0.5-4.7,0.8   c-1.7,0.3-3.3-0.1-4.7-1.1c-0.7-0.5-1.2-1.2-1.9-1.7c-0.1-0.1-0.2-0.3-0.5-0.3c0.1,0.9,0.8,1.4,1.4,2   C733.2,91.7,733,91.9,732.6,91.9z M738.7,81.7c0.3,0.8,0.4,1.6,0.2,2.5c-0.1,0.4-0.2,0.9-0.4,1.3c-0.2,0.4-0.5,0.7-0.9,0.8   c-0.5,0.1-1.1,0.3-1.6,0.4c-0.2,0-0.3,0-0.6,0.1c0.2,0.1,0.3,0.2,0.3,0.2c0.9,0.1,1.7-0.1,2.4-0.5c0.8-0.5,1-1.2,1.2-2.1   c0.1-1,0-1.9-0.3-2.8c0-0.1-0.1-0.2-0.2-0.3c0,0-0.1,0-0.1,0.1C738.6,81.4,738.6,81.5,738.7,81.7z M731.4,87.6   c-0.2-0.8-0.5-1.7-0.7-2.5c0,0,0,0,0,0c-0.2,0.6,0.2,2.1,0.7,2.6C731.4,87.6,731.4,87.6,731.4,87.6z"/>
  <path fill="#333333" d="M727.6,88.2c-0.3-1.1-0.6-2.1-0.9-3.2c-0.6,0.1-1.3,0.3-2,0.4c-2.8,0.6-5.5,1.3-8.3,1.9   c-2,0.5-4.1,0.7-6.2,0.7c-1.1,0-2.3-0.1-3.3-0.5c-0.6-0.2-1.3-0.4-1.8-0.8c-1.7-1.1-3.4-2.3-5-3.5c-2.3-1.6-4.5-3.3-6.8-5   c-0.5-0.4-1-0.7-1.6-0.8c-0.5-0.1-1-0.2-1.5,0c-0.9,0.3-1.2,1.3-0.6,2c0.1,0.2,0.3,0.4,0.5,0.5c1.3,1.2,2.7,2.2,4.2,3.2   c1.8,1.3,3.6,2.5,5.5,3.8c1.9,1.3,3.8,2.4,5.9,3.2c1.8,0.7,3.6,0.9,5.5,0.8C716.7,90.6,722.1,89.4,727.6,88.2z"/>
  <path fill="#FFFFFF" d="M741.4,81.9c-0.4,1.1,0,2,1,2.4c0.6,0.3,1.1,0.3,1.7,0.4c1.2,0.1,2.4-0.1,3.6-0.5c0.4-0.2,0.8-0.4,1.2-0.6   c0.7-0.5,0.9-1.1,0.8-2c-0.1-0.8-0.5-1.5-0.9-2c0,0-0.1,0-0.1,0c-1,1.2-2.3,1.7-3.8,2c-1,0.2-1.9,0.3-2.9,0.2   C741.8,81.9,741.6,81.9,741.4,81.9z"/>
  <path fill="#FFFFFF" d="M749.4,83.8c-1,0.8-2.2,1.2-3.4,1.3c-1.2,0.2-2.4,0.2-3.6-0.2c-0.2-0.1-0.4,0-0.6,0.1   c-0.3,0.3-0.4,0.8-0.2,1.2c0.2,0.5,0.5,0.8,0.9,1c0.7,0.5,1.5,0.7,2.4,0.8c1.1,0.1,2.1,0.1,3.2-0.3c0.4-0.1,0.7-0.3,1.1-0.5   C750.2,86.4,750.4,84.9,749.4,83.8z"/>
  <path fill="#FFFFFF" d="M749.4,87.6c-2.2,1.2-4.4,1.2-6.7,0.3c-0.4,0.4-0.4,0.9-0.3,1.4c0.1,0.6,0.4,1,0.9,1.3c0.9,0.6,2,0.9,3.1,0.9   c0.6,0,1.2-0.1,1.8-0.3C749.6,90.8,750.2,89.1,749.4,87.6z"/>
  <path fill="#333333" d="M738.6,81.2c0,0.2,0.1,0.4,0.1,0.6c0.3,0.8,0.4,1.6,0.2,2.5c-0.1,0.4-0.2,0.9-0.4,1.3   c-0.2,0.4-0.5,0.7-0.9,0.8c-0.5,0.1-1.1,0.3-1.6,0.4c-0.2,0-0.3,0-0.6,0.1c0.2,0.1,0.3,0.2,0.3,0.2c0.9,0.1,1.7-0.1,2.4-0.5   c0.8-0.5,1-1.2,1.2-2.1c0.1-1,0-1.9-0.3-2.8c0-0.1-0.1-0.2-0.2-0.3C738.6,81.1,738.6,81.1,738.6,81.2z"/>
  <path fill="#333333" d="M731.3,87.7c0-0.1,0.1-0.1,0.1-0.1c-0.2-0.8-0.5-1.7-0.7-2.5c0,0,0,0,0,0C730.4,85.7,730.8,87.2,731.3,87.7z"/>
  <path d="M655.2,145.9c1,0.3,2,0.8,2.7,1.6c0.7,0.8,0.6,1.7-0.3,2.4c-0.2,0.2-0.4,0.3-0.6,0.5c0.2,0.7,0.4,1.3,0.6,2   c0.7,3,1,6,1,9.1c0,1.3-0.5,2.1-1.6,2.7c-2,1-4.1,1.6-6.3,1.8c-2.7,0.3-5.3,0.1-7.9-0.4c-1.8-0.3-3.5-0.9-5.1-1.7   c-1.7-0.8-2.5-2.1-2.6-4c-0.1-2,0.5-3.7,1.5-5.4c1.7-2.9,4.3-4.4,7.7-4.2c0.2,0,0.5,0,0.8,0c0.3-0.4,0.6-0.9,0.8-1.3   c0.1-0.1,0.1-0.3,0.1-0.4c-0.2-1.1,0.3-1.8,1.2-2.3c0.7-0.4,1.4-0.6,2.2-0.7c0.2,0,0.4-0.1,0.7-0.2c0-0.3,0-0.6,0-0.9   c-0.1-1.1-0.2-2.1-0.2-3.2c-0.2-2.2-0.3-4.4-0.4-6.5c-0.2-3.1-0.4-6.3-0.6-9.4c-0.1-2.1-0.3-4.3-0.4-6.4c-0.1-2.4-0.2-4.9-0.3-7.3   c0-0.6,0.1-1.3,0.2-1.9c0.3-1.2,1.4-1.7,2.6-1.4c0.7,0.2,1.2,0.7,1.6,1.3c0.5,0.7,0.7,1.5,0.8,2.4c0.1,1.8,0.3,3.6,0.4,5.4   c0.2,7.1,0.3,14.2,0.4,21.2c0,2.1,0,4.1,0,6.2c0,0.2,0,0.5,0,0.7C654.4,145.7,654.8,145.8,655.2,145.9z M654.6,150.6   c0.2-0.1,0.4-0.2,0.7-0.3c0.7-0.2,1.3-0.5,1.8-1c0.5-0.4,0.5-0.9,0.1-1.4c-0.5-0.6-1.1-0.9-1.7-1.1c-0.4-0.2-0.9-0.3-1.4-0.4   c0,0.3-0.1,0.6-0.1,0.8c0,0.5-0.3,0.8-0.7,1c-0.7,0.3-1.4,0.4-2.1,0.2c-0.5-0.1-0.8-0.4-0.9-1c-0.1-0.4-0.2-0.9-0.3-1.3   c-0.9,0.1-1.7,0.3-2.4,0.7c-0.5,0.3-1,0.6-1,1.3c0,0.6,0.4,1.1,0.9,1.4c0.3,0.1,0.5,0.3,0.8,0.4c0.1,0.1,0.3,0.2,0.4,0.3   c-0.6,0.6-1.2,0.4-2.4-0.7c-0.1,0.1-0.2,0.3-0.3,0.4c-0.1,0.2-0.2,0.3-0.2,0.5c0.1,0,0.1,0.1,0.2,0.1c2.9,0.8,5.1,2.6,7,4.8   c0.3,0.4,0.5,0.8,0.8,1.3c0.1,0.2,0.2,0.5,0,0.8c-0.1-0.1-0.3-0.2-0.4-0.3c-1-1.8-2.5-3-4.1-4.2c-1.8-1.3-3.7-2-5.9-1.9   c-1.9,0.1-3.6,0.8-4.9,2.2c-1.7,1.8-2.6,4-2.6,6.5c0,1.6,0.7,2.7,2.2,3.4c2.1,1,4.3,1.6,6.6,1.9c2,0.3,4,0.3,6,0.1   c2.3-0.2,4.5-0.8,6.5-2c0.5-0.3,0.7-0.6,0.7-1.2c-0.1-1.6,0-3.3-0.2-4.9c-0.2-2.1-0.5-4.2-1.2-6.3C655,151,655,151,654.6,150.6z    M652.7,147.7c0.3-0.1,0.5-0.3,0.5-0.7c0-0.7-0.1-1.4-0.1-2.1c-0.1-4.6-0.1-9.2-0.2-13.8c-0.1-4.8-0.2-9.6-0.4-14.4   c-0.1-1.6-0.2-3.1-0.4-4.7c-0.1-0.7-0.3-1.4-0.8-2.1c-0.3-0.3-0.6-0.6-1-0.7c-0.7-0.1-1.2,0.1-1.4,0.8c-0.1,0.5-0.2,1-0.2,1.5   c0,2,0.1,4.1,0.2,6.1c0.1,2.1,0.2,4.2,0.3,6.3c0.2,2.4,0.3,4.9,0.5,7.3c0.1,2.1,0.3,4.3,0.4,6.4c0.2,2.3,0.3,4.5,0.5,6.8   c0.1,1,0.1,2,0.2,3C651.6,147.8,652.2,147.9,652.7,147.7z"/>
  <path fill="#333333" d="M648.1,167.3c-1.8,0-3.7-0.2-5.5-0.5c-1.9-0.4-3.7-1-5.4-1.7c-2-0.9-3.1-2.7-3.2-5c-0.1-2,0.4-4,1.6-6   c2-3.4,4.9-5,8.8-4.8c0,0,0,0,0.1,0c0.1-0.2,0.3-0.4,0.4-0.6c-0.2-1.4,0.5-2.5,1.8-3.3c0.6-0.4,1.4-0.6,2.2-0.8   c0-0.4-0.1-0.8-0.1-1.2c0-0.6-0.1-1.2-0.1-1.9c-0.2-2.2-0.3-4.4-0.5-6.5l-0.1-1.9c-0.2-2.5-0.3-5-0.5-7.5c-0.1-2.2-0.3-4.4-0.4-6.4   c-0.1-2.7-0.2-5-0.3-7.3c0-0.7,0.1-1.5,0.3-2.2c0.2-0.8,0.8-1.5,1.5-1.9c0.7-0.4,1.6-0.5,2.5-0.2c0.9,0.3,1.7,0.8,2.3,1.7   c0.6,0.9,0.9,1.9,1,2.9c0,0.4,0.1,0.7,0.1,1.1c0.1,1.4,0.2,2.9,0.3,4.3c0.2,7.2,0.3,14.3,0.4,21.2c0,1.4,0,2.9,0,4.3   c0,0.6,0,1.1,0,1.7c0.1,0,0.2,0.1,0.4,0.1c1.4,0.4,2.5,1.1,3.3,2c1.1,1.3,0.9,2.9-0.4,4c0.1,0.4,0.3,0.9,0.4,1.3   c0.7,3.1,1.1,6.2,1,9.4c0,1.8-0.7,2.9-2.2,3.7c-2,1-4.3,1.7-6.7,1.9C649.9,167.2,649,167.3,648.1,167.3z M643.7,152.2   c-0.1,0-0.2,0-0.4,0c-1.7,0.1-3,0.7-4.1,1.9c-1.5,1.7-2.3,3.6-2.3,5.7c0,1.1,0.5,1.9,1.5,2.3c2,0.9,4.1,1.5,6.3,1.8   c2.1,0.3,4,0.3,5.7,0.1c2.5-0.3,4.4-0.8,6-1.8c0.1,0,0.1-0.1,0.1-0.1c0,0,0,0,0-0.1c0-0.8-0.1-1.5-0.1-2.3c0-0.9,0-1.8-0.1-2.6   c-0.2-1.9-0.4-3.5-0.9-5.1c-0.8,0.1-1.3,0-1.9-0.7l-0.9-1.2l1.4-0.6c0.1,0,0.1-0.1,0.2-0.1c0.2-0.1,0.4-0.2,0.6-0.2   c0.5-0.2,0.9-0.4,1.3-0.7c-0.3-0.3-0.6-0.5-1.2-0.7c0,0,0,0,0,0c-0.2,0.6-0.6,1.1-1.2,1.4c-1,0.5-1.9,0.6-2.9,0.3   c-1-0.3-1.6-0.9-1.7-1.9c0-0.1,0-0.1,0-0.2c-0.4,0.1-0.7,0.2-1,0.4c-0.3,0.1-0.3,0.2-0.3,0.2c0,0,0,0,0,0c0,0.1,0,0.2,0.3,0.4   c0.1,0.1,0.2,0.1,0.4,0.2c0.1,0.1,0.3,0.1,0.4,0.2c0.2,0.1,0.3,0.2,0.4,0.2c0,0,0.1,0.1,0.1,0.1l1.2,0.8l-1,0.9   c1.5,0.9,2.8,2.1,4.2,3.7c0.3,0.4,0.6,0.8,0.8,1.2l0.1,0.2c0.5,1,0.2,1.7-0.2,2.1l-0.8,0.9l-0.9-0.8c0,0,0,0-0.1,0   c-0.1-0.1-0.4-0.3-0.6-0.6c-0.9-1.6-2.4-2.9-3.7-3.8C647,152.8,645.4,152.2,643.7,152.2z M650.1,110.4c-0.1,0.4-0.1,0.8-0.1,1.1   c0,2.1,0.1,4.1,0.2,6.1c0.1,1.9,0.2,3.9,0.3,6.3c0.1,1.9,0.3,3.8,0.4,5.6l0.1,1.7c0.1,2.1,0.3,4.3,0.4,6.4c0.1,1,0.1,2,0.2,2.9   c0.1,1.3,0.2,2.6,0.3,3.9c0,0.5,0.1,1.1,0.1,1.6c0-0.4,0-0.8,0-1.1c0-1.6,0-3.1-0.1-4.7c0-3-0.1-6.1-0.1-9.1   c-0.1-4.2-0.2-8.8-0.4-14.4c0-1.3-0.2-2.7-0.3-4l-0.1-0.7c-0.1-0.5-0.2-1-0.6-1.5C650.3,110.5,650.2,110.4,650.1,110.4   C650.1,110.4,650.1,110.4,650.1,110.4z M650.1,110.3L650.1,110.3L650.1,110.3z"/>
  <path fill="#FFFFFF" d="M656.4,150.7c-1.5,0.3-1.5,0.3-1.8-0.1c0.2-0.1,0.4-0.2,0.7-0.3c0.7-0.2,1.3-0.5,1.8-1   c0.5-0.4,0.5-0.9,0.1-1.4c-0.5-0.6-1.1-0.9-1.7-1.1c-0.4-0.2-0.9-0.3-1.4-0.4c0,0.3-0.1,0.6-0.1,0.8c0,0.5-0.3,0.8-0.7,1   c-0.7,0.3-1.4,0.4-2.1,0.2c-0.5-0.1-0.8-0.4-0.9-1c-0.1-0.4-0.2-0.9-0.3-1.3c-0.9,0.1-1.7,0.3-2.4,0.7c-0.5,0.3-1,0.6-1,1.3   c0,0.6,0.4,1.1,0.9,1.4c0.3,0.1,0.5,0.3,0.8,0.4c0.1,0.1,0.3,0.2,0.4,0.3c-0.6,0.6-1.2,0.4-2.4-0.7c-0.1,0.1-0.2,0.3-0.3,0.4   c-0.1,0.2-0.2,0.3-0.2,0.5c0.1,0,0.1,0.1,0.2,0.1c2.9,0.8,5.1,2.6,7,4.8c0.3,0.4,0.5,0.8,0.8,1.3c0.1,0.2,0.2,0.5,0,0.8   c-0.1-0.1-0.3-0.2-0.4-0.3c-1-1.8-2.5-3-4.1-4.2c-1.8-1.3-3.7-2-5.9-1.9c-1.9,0.1-3.6,0.8-4.9,2.2c-1.7,1.8-2.6,4-2.6,6.5   c0,1.6,0.7,2.7,2.2,3.4c2.1,1,4.3,1.6,6.6,1.9c2,0.3,4,0.3,6,0.1c2.3-0.2,4.5-0.8,6.5-2c0.5-0.3,0.7-0.6,0.7-1.2   c-0.1-1.6,0-3.3-0.2-4.9C657.4,154.9,657.1,152.8,656.4,150.7z"/>
  <path fill="#333333" d="M651,147.5c0.6,0.3,1.2,0.3,1.8,0.2c0.3-0.1,0.5-0.3,0.5-0.7c0-0.7-0.1-1.4-0.1-2.1c-0.1-4.6-0.1-9.2-0.2-13.8   c-0.1-4.8-0.2-9.6-0.4-14.4c-0.1-1.6-0.2-3.1-0.4-4.7c-0.1-0.7-0.3-1.4-0.8-2.1c-0.3-0.3-0.6-0.6-1-0.7c-0.7-0.1-1.2,0.1-1.4,0.8   c-0.1,0.5-0.2,1-0.2,1.5c0,2,0.1,4.1,0.2,6.1c0.1,2.1,0.2,4.2,0.3,6.3c0.2,2.4,0.3,4.9,0.5,7.3c0.1,2.1,0.3,4.3,0.4,6.4   c0.2,2.3,0.3,4.5,0.5,6.8C650.9,145.5,650.9,146.5,651,147.5z"/>
  <path d="M677.4,150.9c0.2,0.3,0.5,0.5,0.8,0.5c0.4,0,0.9,0,1.3,0.1c3.6,0.8,6.1,2.8,7.5,6.3c0.7,1.7,0.8,3.4,0.3,5.1   c-0.1,0.2-0.2,0.6-0.4,0.7c-0.5,0.4-1.1,0.7-1.7,0.9c-0.6,0.3-1.3,0.5-2,0.6c-4.3,1-8.6,1.1-12.9,0.4c-1.7-0.3-3.4-0.8-4.9-1.8   c-0.8-0.5-1.2-1.2-1.3-2.2c-0.2-2.2-0.2-4.5,0.2-6.7c0.3-1.5,0.7-3.1,1.1-4.6c0.1-0.3,0.1-0.5-0.1-0.8c-0.5-0.8-0.5-1.6,0.1-2.3   c0.4-0.4,0.9-0.8,1.4-1.1c0.7-0.4,1.5-0.6,2.4-1c0-0.2,0-0.4,0-0.7c0-4.6,0-9.1,0-13.7c-0.1-4.4-0.2-8.8-0.3-13.2   c-0.1-2-0.1-4-0.2-6c0-0.6,0.1-1.1,0.3-1.7c0.2-0.7,0.8-1.1,1.5-1.3c1.1-0.2,2.1,0.3,2.6,1.3c0.3,0.6,0.5,1.2,0.6,1.8   c0.1,1.3,0.2,2.7,0.2,4c-0.1,3.9-0.2,7.9-0.3,11.8c-0.1,3.7-0.1,7.3-0.1,11c0,2.2,0,4.3,0,6.5c0,0.2,0,0.5,0,0.7   c1.2,0.2,1.9,0.4,2.8,1c0.5,0.3,1,0.8,1.3,1.4c0.3,0.6,0.2,1.2-0.3,1.7c-0.1,0.1-0.3,0.3-0.4,0.4   C677,150.4,677.2,150.6,677.4,150.9z M669.7,156c0.4-0.6,0.8-1.2,1.3-1.8c1.5-1.6,3.4-2.6,5.8-2.9c-0.3-0.4-0.5-0.6-0.7-0.9   c-0.6-0.1-1.2,0.5-1.8-0.1c0.2-0.1,0.4-0.3,0.6-0.4c0.4-0.2,0.8-0.3,1.2-0.4c0.7-0.3,0.9-1,0.4-1.6c-0.3-0.3-0.7-0.6-1.1-0.8   c-0.6-0.3-1.3-0.5-2-0.9c-0.1,0.4-0.1,0.7-0.1,1c0,0.4-0.2,0.6-0.6,0.7c-1,0.3-2,0.2-2.9-0.5c-0.4-0.3-0.5-0.7-0.6-1.2   c0-0.1,0-0.3-0.1-0.5c-1,0.3-2,0.6-2.8,1.3c-0.9,0.8-0.8,1.7,0.2,2.3c0.4,0.2,0.8,0.4,1.2,0.7c0.2,0.1,0.3,0.2,0.6,0.4   c-0.9,0.3-1.5-0.1-2.1-0.4c-0.1,0.4-0.2,0.8-0.3,1.2c-0.9,3.1-1.1,6.3-0.9,9.5c0,0.3,0.1,0.5,0.1,0.8c0,0.5,0.3,0.8,0.7,1.1   c1.3,0.8,2.6,1.3,4.1,1.6c2.6,0.5,5.3,0.7,8,0.5c2.1-0.1,4.2-0.4,6.2-1c0.7-0.2,1.4-0.5,2.1-0.7c0.3-0.1,0.4-0.3,0.5-0.6   c0.4-1.5,0.3-3.1-0.3-4.5c-1.3-3.2-3.6-5.2-7-5.8c-3.1-0.5-5.7,0.5-7.9,2.8c-0.5,0.5-0.9,1.1-1.3,1.6c-0.1,0.1-0.2,0.3-0.4,0.5   C669.4,156.7,669.5,156.3,669.7,156z M672.6,147.3c0-0.4,0-0.8,0.1-1.1c0-6.4,0-12.8,0.1-19.1c0-3.5,0.2-7.1,0.2-10.6   c0-1.5,0-3-0.1-4.5c0-0.6-0.3-1.2-0.5-1.7c-0.1-0.4-0.5-0.6-0.9-0.8c-0.8-0.3-1.6,0.1-1.8,0.9c-0.1,0.5-0.2,1-0.1,1.5   c0.1,2.4,0.2,4.8,0.3,7.2c0.1,4.2,0.2,8.4,0.3,12.6c0.1,4.8,0.1,9.6,0.1,14.4c0,0.2,0,0.4,0,0.7   C670.8,147.4,671.7,147.5,672.6,147.3z"/>
  <path fill="#333333" d="M675.7,167c-1.9,0-3.8-0.2-5.6-0.5c-2.1-0.4-3.8-1-5.3-2c-1.1-0.7-1.7-1.7-1.8-3.1c-0.2-2.6-0.1-4.9,0.2-7   c0.2-1.3,0.6-2.5,0.9-3.7c0.1-0.3,0.2-0.7,0.3-1c-0.7-1.2-0.6-2.6,0.3-3.6c0.5-0.5,1.1-1,1.7-1.3c0.6-0.3,1.2-0.5,1.7-0.7   c0,0,0,0,0,0c0-1.3,0-2.7,0-4c0-3.1,0-6.3,0-9.5c0-3.1-0.1-6.2-0.2-9.3c0-1.3-0.1-2.6-0.1-4c0-0.6,0-1.2-0.1-1.8   c0-1.4-0.1-2.8-0.1-4.2c0-0.6,0.1-1.3,0.3-2c0.4-1.1,1.2-1.9,2.5-2.1c1.6-0.2,3.1,0.5,3.8,1.9c0.4,0.8,0.6,1.5,0.7,2.2   c0.1,1.5,0.2,2.9,0.2,4.2c0,2.1-0.1,4.3-0.1,6.4c0,1.8-0.1,3.6-0.1,5.5c-0.1,3.1-0.1,6.2-0.1,9.2l0,1.8c0,1.5,0,3,0,4.5   c0,0.6,0,1.1,0,1.7c0.8,0.2,1.5,0.5,2.3,1c0.8,0.5,1.4,1.1,1.7,1.9c0.4,0.9,0.3,1.8-0.2,2.6c0.6,0,1,0.1,1.5,0.2   c4,0.9,6.8,3.3,8.3,7c0.8,2,0.9,3.9,0.3,5.9c-0.1,0.3-0.3,0.9-0.9,1.3c-0.7,0.4-1.3,0.8-1.9,1c-0.7,0.3-1.4,0.5-2.2,0.7   C680.9,166.7,678.3,167,675.7,167z M666.2,161.7c0,0,0.1,0,0.1,0.1c1.1,0.7,2.3,1.1,3.7,1.4c2.4,0.5,5,0.6,7.7,0.5   c1.7-0.1,3.9-0.3,5.9-1c0.3-0.1,0.7-0.2,1-0.3c0.3-0.1,0.6-0.2,0.9-0.3c0.3-1.3,0.2-2.5-0.3-3.7c-1.1-2.8-3.2-4.5-6.1-5   c-2.6-0.5-4.9,0.3-6.8,2.4c-0.3,0.3-0.5,0.6-0.8,1c-0.1,0.2-0.3,0.4-0.4,0.6c-0.1,0.1-0.2,0.2-0.3,0.3l-1.2,1.3l-0.8-1.3   c-0.3-0.4-0.7-1.3,0-2.4l0,0c0.4-0.6,0.9-1.3,1.4-1.9c1-1,2.1-1.8,3.3-2.3l-1-1l1.2-0.8c0.1,0,0.1-0.1,0.2-0.1   c0.2-0.1,0.4-0.2,0.6-0.3c0.2-0.1,0.4-0.2,0.6-0.2c0.1,0,0.3-0.1,0.4-0.1c-0.2-0.2-0.4-0.3-0.6-0.4c-0.2-0.1-0.4-0.2-0.6-0.3   c-0.2,0.5-0.6,1-1.2,1.2c-1.3,0.4-2.7,0.2-3.9-0.6c-0.5-0.3-0.7-0.7-0.9-1.1c-0.5,0.2-0.9,0.4-1.2,0.7c-0.2,0.1-0.2,0.2-0.2,0.3   c0,0,0.1,0.1,0.3,0.2c0.2,0.1,0.4,0.2,0.6,0.4c0.2,0.1,0.3,0.2,0.5,0.3c0.2,0.1,0.3,0.2,0.4,0.3c0.1,0,0.1,0.1,0.2,0.2l1.8,1.3   l-2.1,0.7c-0.7,0.2-1.3,0.2-1.8,0.1c0,0,0,0,0,0c-0.8,2.7-1.1,5.7-0.8,9.1c0,0,0,0.1,0,0.2C666.1,161.2,666.2,161.5,666.2,161.7z    M675.7,148.8L675.7,148.8L675.7,148.8z M671.3,146.1c0.1,0,0.1,0.1,0.2,0.1c0,0,0,0,0-0.1c0-2.1,0-4.1,0-6.2c0-4.2,0-8.6,0.1-12.9   c0-1.9,0.1-3.9,0.1-5.8c0-1.6,0.1-3.2,0.1-4.8c0-1.4,0-2.8-0.1-4.4c0-0.3-0.2-0.7-0.3-1.1c0-0.1-0.1-0.2-0.1-0.3   c0,0-0.1-0.1-0.2-0.1c-0.1-0.1-0.2,0-0.2,0c0,0,0,0-0.1,0.1c-0.1,0.4-0.1,0.8-0.1,1.2c0,1.2,0.1,2.3,0.1,3.5c0,1.2,0.1,2.5,0.1,3.7   l0.1,1.9c0.1,3.5,0.2,7.1,0.2,10.7c0,3.4,0.1,6.9,0.1,10.3c0,1.4,0,2.8,0,4.1C671.3,146.1,671.3,146.1,671.3,146.1z"/>
  <path fill="#FFFFFF" d="M669.7,157.1c-0.3-0.5-0.2-0.8,0-1.1c0.4-0.6,0.8-1.2,1.3-1.8c1.5-1.6,3.4-2.6,5.8-2.9   c-0.3-0.4-0.5-0.6-0.7-0.9c-0.6-0.1-1.2,0.5-1.8-0.1c0.2-0.1,0.4-0.3,0.6-0.4c0.4-0.2,0.8-0.3,1.2-0.4c0.7-0.3,0.9-1,0.4-1.6   c-0.3-0.3-0.7-0.6-1.1-0.8c-0.6-0.3-1.3-0.5-2-0.9c-0.1,0.4-0.1,0.7-0.1,1c0,0.4-0.2,0.6-0.6,0.7c-1,0.3-2,0.2-2.9-0.5   c-0.4-0.3-0.5-0.7-0.6-1.2c0-0.1,0-0.3-0.1-0.5c-1,0.3-2,0.6-2.8,1.3c-0.9,0.8-0.8,1.7,0.2,2.3c0.4,0.2,0.8,0.4,1.2,0.7   c0.2,0.1,0.3,0.2,0.6,0.4c-0.9,0.3-1.5-0.1-2.1-0.4c-0.1,0.4-0.2,0.8-0.3,1.2c-0.9,3.1-1.1,6.3-0.9,9.5c0,0.3,0.1,0.5,0.1,0.8   c0,0.5,0.3,0.8,0.7,1.1c1.3,0.8,2.6,1.3,4.1,1.6c2.6,0.5,5.3,0.7,8,0.5c2.1-0.1,4.2-0.4,6.2-1c0.7-0.2,1.4-0.5,2.1-0.7   c0.3-0.1,0.4-0.3,0.5-0.6c0.4-1.5,0.3-3.1-0.3-4.5c-1.3-3.2-3.6-5.2-7-5.8c-3.1-0.5-5.7,0.5-7.9,2.8c-0.5,0.5-0.9,1.1-1.3,1.6   C670,156.8,669.9,156.9,669.7,157.1z"/>
  <path fill="#333333" d="M670.1,146.7c0.7,0.6,1.5,0.8,2.5,0.6c0-0.4,0-0.8,0.1-1.1c0-6.4,0-12.8,0.1-19.1c0-3.5,0.2-7.1,0.2-10.6   c0-1.5,0-3-0.1-4.5c0-0.6-0.3-1.2-0.5-1.7c-0.1-0.4-0.5-0.6-0.9-0.8c-0.8-0.3-1.6,0.1-1.8,0.9c-0.1,0.5-0.2,1-0.1,1.5   c0.1,2.4,0.2,4.8,0.3,7.2c0.1,4.2,0.2,8.4,0.3,12.6c0.1,4.8,0.1,9.6,0.1,14.4C670.2,146.3,670.1,146.5,670.1,146.7z"/>
  <path fill="#FACC2C" d="M632.4,120.4l59,3.4c0.2,0,0.5-0.2,0.5-0.4l10-76.2L685.9,31l-54.6-3.3c-0.3,0-0.5,0.2-0.5,0.5L632,120    C632,120.2,632.2,120.4,632.4,120.4z"/>
  <path fill="#333333" d="M691.4,124.9C691.4,124.9,691.4,124.9,691.4,124.9l-59.1-3.4c-0.8,0-1.5-0.7-1.5-1.5l-1.2-91.8    c0-0.4,0.2-0.9,0.5-1.2c0.3-0.3,0.7-0.5,1.2-0.4l55,3.3l16.7,16.9L693,123.6C692.9,124.3,692.2,124.9,691.4,124.9z M690.8,123.3    C690.8,123.3,690.8,123.3,690.8,123.3L690.8,123.3z M633.1,119.3l57.8,3.3l9.9-75.1L685.4,32l-53.5-3.2L633.1,119.3z"/>
  <path fill="#005787" d="M688.2,129l-3.4-1.1c-0.6-0.2-1.3,0-1.7,0.4l-2.5,2.5c-0.4,0.4-1.1,0.3-1.2-0.2l-2.8-12.1l9.9-2.3l2.8,12.1    C689.3,128.8,688.8,129.2,688.2,129z"/>
  <radialGradient id="SVGID_1_" cx="760.6155" cy="-51.3336" r="13.0606" gradientTransform="matrix(0.7041 -0.1643 0.1643 0.7041 153.1609 273.4466)" gradientUnits="userSpaceOnUse">
    <stop offset="0.4417" style="stop-color:#0091B0"/>
    <stop offset="0.8542" style="stop-color:#1BACC8"/>
  </radialGradient>
  <path fill="url(#SVGID_1_)" d="M679.6,121.9c0,0-0.1,0-0.1,0c-0.9-0.1-1.4-0.7-1.9-1.2l0,0c-0.3-0.3-0.4-0.5-0.6-0.5l0,0l0,0      c-0.1,0-0.1,0-0.4,0c-0.2,0-0.3,0-0.5,0c-0.2,0-0.4,0-0.6,0c-0.5,0-1.1-0.1-1.6-0.5c-0.6-0.6-0.7-1.4-0.8-2.1l0-0.1      c0-0.4-0.1-0.6-0.1-0.8l0,0c-0.1-0.1-0.2-0.2-0.6-0.4l0,0c-0.6-0.4-1.3-0.8-1.5-1.7c-0.2-0.8,0.2-1.5,0.6-2.2l0-0.1      c0.2-0.3,0.3-0.5,0.3-0.7l0,0l0,0c0-0.1-0.1-0.3-0.2-0.7l0-0.1c-0.2-0.6-0.5-1.4-0.2-2.2c0.3-0.8,1.1-1.1,1.7-1.4l0,0      c0.4-0.2,0.6-0.3,0.7-0.4l0,0l0,0c0.1-0.1,0.2-0.3,0.3-0.8c0.2-0.7,0.4-1.5,1.1-1.9c0.2-0.1,0.3-0.2,0.5-0.2      c0.2,0,0.3-0.1,0.5-0.1c0.4,0,0.8,0.1,1.1,0.2l0,0c0.3,0.1,0.6,0.1,0.7,0.1c0,0,0.1,0,0.1,0c0.1,0,0.3-0.2,0.7-0.5l0,0      c0.4-0.3,0.9-0.7,1.4-0.8c0.1,0,0.3,0,0.4,0c0.1,0,0.1,0,0.2,0c0.9,0.1,1.4,0.7,1.9,1.2c0.4,0.5,0.5,0.5,0.6,0.6l0,0l0,0      c0.1,0,0.2,0,0.3,0c0.1,0,0.3,0,0.4,0l0,0c0.2,0,0.4,0,0.6,0c0.5,0,1.1,0.1,1.6,0.5c0.6,0.5,0.7,1.3,0.8,2l0,0      c0,0.4,0.1,0.7,0.1,0.8l0,0l0,0c0.1,0.1,0.2,0.2,0.6,0.5c0.6,0.4,1.3,0.8,1.5,1.7c0.2,0.9-0.3,1.6-0.6,2.2l0,0.1      c-0.2,0.4-0.3,0.5-0.3,0.7l0,0c0,0.1,0.1,0.4,0.2,0.8l0,0c0.2,0.7,0.5,1.4,0.2,2.2c-0.3,0.8-1.1,1.1-1.7,1.4      c-0.6,0.3-0.7,0.4-0.8,0.4l0,0l0,0c-0.1,0.1-0.2,0.3-0.3,0.8c-0.2,0.7-0.4,1.5-1.1,1.9c-0.2,0.1-0.3,0.2-0.5,0.2      c-0.2,0-0.3,0.1-0.5,0.1c-0.4,0-0.8-0.1-1.1-0.2c-0.3-0.1-0.6-0.1-0.8-0.1c0,0-0.1,0-0.1,0c-0.1,0-0.3,0.2-0.7,0.5      c-0.4,0.3-0.9,0.7-1.4,0.8C679.9,121.9,679.8,121.9,679.6,121.9z"/>
  <path fill="#0091B0" d="M681,103c0,0,0.1,0,0.1,0c0.8,0.1,1.3,0.7,1.7,1.1c0.4,0.5,0.6,0.6,0.6,0.6l0,0l0,0c0.1,0,0.2,0,0.4,0      c0.2,0,0.3,0,0.5,0l0,0c0.2,0,0.4,0,0.5,0c0.7,0,1.1,0.1,1.4,0.4c0.6,0.5,0.6,1.2,0.7,1.9l0,0c0,0.5,0.1,0.8,0.2,0.9l0,0l0,0      c0.1,0.1,0.3,0.2,0.7,0.5c0.6,0.4,1.2,0.8,1.4,1.5c0.2,0.8-0.2,1.4-0.6,2l0,0c-0.2,0.4-0.3,0.6-0.4,0.8l0,0l0,0      c0,0.2,0.1,0.4,0.3,0.9l0,0c0.2,0.6,0.5,1.3,0.2,2c-0.3,0.7-1,1-1.6,1.2l0,0c-0.7,0.3-0.8,0.4-0.8,0.4l0,0l0,0      c-0.1,0.1-0.2,0.4-0.3,0.8l0,0c-0.2,0.6-0.4,1.4-1,1.8c-0.1,0.1-0.3,0.1-0.5,0.2c-0.1,0-0.3,0.1-0.5,0.1c-0.4,0-0.7-0.1-1.1-0.2      c-0.3-0.1-0.6-0.1-0.8-0.1c-0.1,0-0.1,0-0.2,0l0,0l0,0c-0.2,0-0.4,0.2-0.8,0.5c-0.4,0.3-0.8,0.7-1.3,0.8c-0.1,0-0.3,0-0.4,0      c0,0-0.1,0-0.1,0c-0.8-0.1-1.3-0.6-1.7-1.1l0,0c-0.3-0.3-0.5-0.5-0.6-0.6l0,0l0,0c-0.1,0-0.2,0-0.4,0c-0.2,0-0.4,0-0.5,0l0,0      c-0.2,0-0.3,0-0.5,0c-0.7,0-1.1-0.1-1.4-0.4c-0.6-0.5-0.6-1.2-0.7-1.9l0-0.1c0-0.5-0.1-0.7-0.2-0.9l0,0l0,0      c-0.1-0.1-0.3-0.2-0.6-0.5l-0.1,0c-0.5-0.3-1.2-0.8-1.4-1.5c-0.2-0.7,0.2-1.4,0.6-2l0,0l0,0l0-0.1c0.2-0.4,0.3-0.6,0.4-0.7l0,0      l0,0c0-0.2-0.1-0.4-0.2-0.8l0-0.1c-0.2-0.6-0.5-1.3-0.2-2c0.3-0.7,1-1,1.6-1.3l0,0c0.4-0.2,0.6-0.3,0.8-0.4l0,0l0,0      c0.1-0.1,0.2-0.4,0.3-0.9c0.2-0.7,0.4-1.4,1-1.8c0.1-0.1,0.3-0.1,0.5-0.2c0.1,0,0.3,0,0.5,0c0.4,0,0.7,0.1,1.1,0.2l0,0l0,0      c0.3,0.1,0.6,0.1,0.8,0.1c0.1,0,0.1,0,0.2,0c0.2,0,0.4-0.2,0.8-0.5l0,0c0.4-0.3,0.8-0.7,1.3-0.8C680.7,103,680.8,103,681,103       M681,102.5c-0.2,0-0.3,0-0.5,0.1c-0.6,0.1-1.1,0.5-1.5,0.9c-0.2,0.1-0.5,0.4-0.6,0.4c0,0,0,0-0.1,0c-0.2,0-0.5-0.1-0.7-0.1      c-0.4-0.1-0.8-0.2-1.2-0.2c-0.2,0-0.4,0-0.6,0.1c-0.2,0.1-0.4,0.1-0.6,0.2c-0.8,0.5-1.1,1.4-1.3,2.1c-0.1,0.2-0.2,0.6-0.2,0.7      c-0.1,0.1-0.4,0.2-0.7,0.3c-0.7,0.3-1.5,0.6-1.9,1.5c-0.4,0.9,0,1.7,0.2,2.4c0.1,0.2,0.2,0.6,0.2,0.7c0,0.1-0.2,0.4-0.3,0.6      c-0.4,0.6-0.8,1.4-0.6,2.4c0.2,1,1,1.5,1.6,1.8c0.2,0.1,0.5,0.3,0.6,0.4c0.1,0.1,0.1,0.5,0.1,0.7c0.1,0.7,0.2,1.6,0.9,2.2      c0.5,0.5,1.2,0.6,1.8,0.6c0.2,0,0.4,0,0.6,0c0.1,0,0.3,0,0.4,0c0.1,0,0.2,0,0.3,0c0.1,0.1,0.4,0.4,0.5,0.5      c0.5,0.6,1.1,1.2,2,1.3c0.1,0,0.1,0,0.2,0c0.2,0,0.3,0,0.5-0.1c0.6-0.1,1.1-0.5,1.5-0.9c0.2-0.1,0.5-0.4,0.6-0.4c0,0,0,0,0.1,0      c0.2,0,0.5,0.1,0.7,0.1c0.4,0.1,0.8,0.2,1.2,0.2c0.2,0,0.4,0,0.6-0.1c0.2-0.1,0.4-0.1,0.6-0.2c0.8-0.5,1.1-1.4,1.3-2.1      c0.1-0.2,0.2-0.6,0.2-0.7c0.1-0.1,0.4-0.2,0.7-0.3c0.7-0.3,1.5-0.6,1.9-1.5c0.4-0.9,0-1.7-0.2-2.4c-0.1-0.2-0.2-0.6-0.2-0.7      c0-0.1,0.2-0.4,0.3-0.6c0.4-0.6,0.8-1.4,0.6-2.4c-0.2-1-1-1.5-1.6-1.9c-0.2-0.1-0.5-0.3-0.6-0.4c-0.1-0.1-0.1-0.5-0.1-0.7      c-0.1-0.7-0.2-1.6-0.9-2.2c-0.5-0.5-1.2-0.6-1.8-0.6c-0.2,0-0.4,0-0.6,0c-0.1,0-0.3,0-0.5,0c-0.1,0-0.2,0-0.3,0      c-0.1-0.1-0.4-0.3-0.5-0.5c-0.5-0.5-1.1-1.2-2-1.3C681.1,102.5,681,102.5,681,102.5L681,102.5z"/>
  <path fill="#0D0E0E" d="M660.4,79.6c2.5,1.5,5.6,1.6,8.3,0.4c1.1-0.5,1.5-1.6,1-2.1l0,0c-0.4-0.6-1.3-0.6-2-0.2     c-1.9,0.9-4.2,0.8-5.9-0.2c-0.7-0.4-1.5-0.4-2,0.1l0,0C659.2,78,659.5,79,660.4,79.6z"/>
  <circle fill="#FFFFFF" cx="653" cy="64.4" r="9.9"/>
  <path d="M653,74.6c-5.6,0-10.2-4.6-10.2-10.2c0-5.6,4.6-10.2,10.2-10.2c5.6,0,10.2,4.6,10.2,10.2C663.1,70,658.6,74.6,653,74.6z       M653,54.9c-5.3,0-9.6,4.3-9.6,9.6s4.3,9.6,9.6,9.6c5.3,0,9.6-4.3,9.6-9.6S658.2,54.9,653,54.9z"/>
  <circle fill="#FFFFFF" cx="677.9" cy="65.4" r="9.9"/>
  <path d="M677.9,75.6c-5.6,0-10.2-4.6-10.2-10.2c0-5.6,4.6-10.2,10.2-10.2S688,59.8,688,65.4C688,71,683.5,75.6,677.9,75.6z       M677.9,55.8c-5.3,0-9.6,4.3-9.6,9.6c0,5.3,4.3,9.6,9.6,9.6c5.3,0,9.6-4.3,9.6-9.6C687.4,60.1,683.1,55.8,677.9,55.8z"/>
  <path d="M680,60.9c0,0.1,0,0.2,0,0.3c0,1.5-1.2,2.7-2.7,2.7c-1.5,0-2.7-1.2-2.7-2.6c-1.9,1.1-3.1,3.1-3.1,5.4     c0,3.5,2.8,6.3,6.3,6.3s6.3-2.8,6.3-6.3C684,64.1,682.4,61.8,680,60.9z M678.1,72.1c-0.7,0-1.3-0.6-1.3-1.3     c0-0.7,0.6-1.3,1.3-1.3s1.3,0.6,1.3,1.3C679.4,71.5,678.8,72.1,678.1,72.1z"/>
  <path d="M655.4,60.2c0,0.1,0,0.2,0,0.3c0,1.5-1.2,2.7-2.7,2.7c-1.5,0-2.7-1.2-2.7-2.7c-1.9,1.1-3.2,3.1-3.2,5.5     c0,3.5,2.8,6.3,6.3,6.3s6.3-2.8,6.3-6.3C659.3,63.4,657.7,61.1,655.4,60.2z M654.1,71.1c-0.7,0-1.3-0.6-1.3-1.3     c0-0.7,0.6-1.3,1.3-1.3c0.7,0,1.3,0.6,1.3,1.3C655.4,70.6,654.8,71.1,654.1,71.1z"/>
  <path fill="#0D0E0E" d="M653.6,49c-2-0.1-4.3,0.2-6.1,1.5c-1.3,0.9-1,2.6,1.1,1.8c2.1-0.8,5.9-0.9,9,0.3      C660.7,53.8,659.4,49.2,653.6,49z"/>
  <path fill="#0D0E0E" d="M681.2,50.8c2,0.4,4.2,1.3,5.7,2.9c1.1,1.2,0.4,2.8-1.5,1.5c-1.8-1.2-5.6-2.3-9-1.8      C673,53.9,675.4,49.6,681.2,50.8z"/>
  <polygon fill="#0D0E0E" points="689.6,89.8 689.2,92.2 638,89.4 637.9,86.9   "/>
  <polygon fill="#0D0E0E" points="688.9,94.5 688.6,97 638,94.2 638,94.2 638,91.8   "/>
  <polygon fill="#0D0E0E" points="688.3,99.1 688,101.5 638.1,98.8 638.1,96.3   "/>
  <rect x="639.3" y="111.7" transform="matrix(-0.9983 -5.774976e-02 5.774976e-02 -0.9983 1287.0011 262.5042)" fill="#0D0E0E" width="15.9" height="1.9"/>
  <path fill="#0D0E0E" d="M655.1,108.1c-1.4-1-3.3-1.4-5-1.1c0-0.1-0.1-0.3-0.1-0.4c-0.1-0.4-0.6-0.8-1-0.6c-0.8,0.3-1.6,0.6-2.3,0.9    c0-0.5,0.1-1.1,0.1-1.6c0-0.6-0.7-1.1-1.2-0.7c-1.8,1.3-3.6,2.6-5.5,3.9c-0.4,0.3-0.5,0.7-0.3,1.1c0.2,0.4,0.8,0.6,1.1,0.3    c1.4-1,2.7-2,4.1-3c0,0.4,0,0.8-0.1,1.2c0,0.5,0.6,1,1.1,0.8c0.9-0.4,1.8-0.7,2.7-1.1c0,0.1,0.1,0.2,0.1,0.3    c0.1,0.4,0.6,0.7,1,0.6c1.5-0.6,3.1-0.3,4.4,0.7c0.4,0.3,0.9,0.1,1.1-0.3C655.7,108.8,655.5,108.3,655.1,108.1z"/>
  <path fill="#FACC2C" d="M685.5,48c0,0.3,0.2,0.4,0.5,0.4l15.6-1.3L685.5,31L685.5,48z"/>
  <path fill="#333333" d="M685.9,49.5c-0.4,0-0.7-0.1-1-0.4c-0.3-0.3-0.5-0.7-0.5-1.1c0,0,0,0,0,0l0.1-17.1c0-0.4,0.3-0.8,0.6-1    c0.4-0.2,0.8-0.1,1.1,0.2l16.1,16.2c0.3,0.3,0.4,0.7,0.2,1.1c-0.1,0.4-0.5,0.6-0.9,0.7L686,49.5C686,49.5,686,49.5,685.9,49.5z     M686.6,33.5l0,13.9l12.8-1.1L686.6,33.5z"/>
  <path fill="#7F2F19" d="M641.2,18.4c-0.1,0-0.2,0-0.2-0.1L631.6,39C634.8,32.2,638,25.3,641.2,18.4z"/>
  <path fill="#7F2F19" d="M588.8,132.7c0,0.6,0,1.2,0,1.8l51.8-114c-0.2,0-0.4-0.5-0.3-1.1c0-0.1,0-0.2,0-0.3L588.8,132.7z"/>
  <path fill="#7F2F19" d="M638,24.7c0.2,0.2,0.5-0.2,0.3-0.3C638.1,24.3,637.8,24.6,638,24.7z"/>
  <path fill="#8D341E" d="M641.7,9.8l0,0.4c0,0,0,0,0,0c0,0.1,0,0.1,0,0.1c0,0.8-0.3,1.7-0.4,2.4c-0.1,0.8-0.7,1.8-0.2,2.6     c0,0.1,0.1,0.1,0.2,0c0.7-0.5,0.8-1.6,1-2.4c0.2-1,0.5-2.2,0.4-3.2C642.4,9.2,641.6,9.3,641.7,9.8z"/>
  <path fill="#7F2F19" d="M588.6,56.5c-1.2,1.9-2.3,3.9-3.3,5.9c-0.1,0.1-0.1,0.3-0.2,0.4c-0.1,0.1-0.1,0.3-0.2,0.4     c-0.9,2-1.7,4.2-2.3,6.3c-1.9,6.7-2.5,14-0.9,20.8c1.8,7.6,5.5,14.7,7.3,22.3c2,8.5,1.3,16.4-3.3,23.9c-0.6,0.9-1.2,1.8-1.4,2.8     c-0.1,0.5,0.5,0.7,0.8,0.4c0.6-0.5,1-1.1,1.5-1.8c0,0,0.1,0,0.1-0.1c1.4-1.9,2.6-3.9,3.4-6c2.6-4,2.8-9.8,2.5-14.3     c-0.4-5.8-1.7-11.2-3.8-16.6c-2.3-5.8-4.1-11.2-4.1-17.5c0-1.9,0.1-3.8,0.4-5.7c0.5-1.1,1.1-2.1,1.6-3.1c1.3-2.5,3.3-4.6,4.3-7.2     c0.4-1,0.4-2.1,0.5-3.2c0.1-1.6,0.5-3.2,1.2-4.6c0.3-0.7,0.6-1.4,0.9-2.2c1.6-2.3,3.6-4.4,5.4-6.1c5.6-5.1,12.6-8.1,19.4-11.2     c5.7-2.6,11.2-5.5,15.8-9.9c2.2-2.1,4-4.6,5.5-7.3c0.2-0.3,0.4-0.7,0.5-1c1.2-2.2,2.1-4.5,2.9-6.8c0.3-1,2-7.3-1-6.1     c-0.7,0.3-0.5,1.2,0.1,1.3c-0.3,1-0.6,2.1-0.9,3.2c-0.1,0-0.1,0.1-0.1,0.2c-2.4,8.8-8,14.9-16,19.1c-6.9,3.7-14.7,5.5-21.6,9.2     C597.5,45.4,592.4,50.6,588.6,56.5z"/>
  <path fill="#8D341E" d="M587,59.1c-3.6,4.3-5.4,10.7-6.2,16.1c-1.1,6.6-0.2,13.2,1.7,19.5c2.2,7,5.6,13.6,7,20.9     c1.4,7.8-0.7,16.8-5.8,22.9c-0.5,0.6,0.4,1.3,0.9,0.7c4-4.8,5.4-11.5,5.8-17.6c0.5-6.8-2.4-13.4-4.6-19.7     c-2.6-7.2-4.7-13.8-4.5-21.5c0.1-2.3,0.4-4.5,0.8-6.8c0.1-0.3,0.2-0.7,0.3-1c0.2-0.4,0.3-0.9,0.5-1.4c0.4-1.2,1-2.4,1.5-3.6     c0.7-1.6,1.6-3.3,2.1-5c0.7-1.6,1.5-3.3,2.5-4.8c2.1-3.2,4.4-6.3,7.1-8.9c5.7-5.5,12.2-8.4,19.4-11.4c6.3-2.6,13.2-5,18.1-10     c4.3-4.5,8.4-10.2,9.3-16.6c0.1-0.8-1-1-1.2-0.2c-1.2,8.2-6.5,16-13.4,20.3c-6.5,4-13.8,5.9-20.6,9.1c-6.1,2.8-11.8,6.8-16,12.1     C590.1,54.1,588.4,56.5,587,59.1z"/>
  <path fill="#C04F27" d="M579.3,77.4c-0.3,1.2,1.5,1.5,2.3,1.7c1.4,0.2,2.9,0,4-0.8c0.2-0.1,0.1-0.5-0.1-0.5c-1.1-0.2-2.2,0-3.3-0.2     c-0.4-0.1-0.8-0.2-1.2-0.3c-0.3-0.1-0.5-0.4-0.9-0.4C579.8,76.8,579.4,77,579.3,77.4z"/>
  <path fill="#C04F27" d="M579.5,80.4c0.7,1,2.6,0.8,3.7,0.7c0.3,0,3-0.5,2.1-1.4c-0.1-0.1-0.2-0.1-0.4,0c-0.7,0.4-1.6,0.1-2.3,0     c-0.9-0.1-1.8-0.4-2.6-0.4C579.6,79.3,579.2,80,579.5,80.4z"/>
  <path fill="#C04F27" d="M579.7,82.7c0.7,1,2.3,0.6,3.3,0.4c0.9-0.2,2.2-0.2,2.5-1.3c0.1-0.2-0.2-0.4-0.4-0.3     c-0.6,0.4-1.7,0.2-2.3,0.3c-0.4,0-0.9,0.1-1.3,0.1c-0.4,0-0.7-0.2-1.2-0.2C579.7,81.6,579.4,82.3,579.7,82.7z"/>
  <path fill="#C04F27" d="M588.3,55.1c0.6-1.1,2.1-0.1,2.8,0.3c1.1,0.8,2.2,1.9,2.4,3.3c0,0.2-0.2,0.4-0.4,0.3     c-0.9-0.6-1.6-1.5-2.5-2.1c-0.4-0.2-0.7-0.4-1.1-0.5c-0.3-0.1-0.7-0.1-1-0.3C588.2,55.9,588.1,55.5,588.3,55.1z"/>
  <path fill="#C04F27" d="M590.4,53.1c1.2-0.2,2.5,1.2,3.2,2c0.2,0.3,1.8,2.4,0.6,2.4c-0.1,0-0.2-0.1-0.3-0.2     c-0.2-0.7-1.1-1.1-1.7-1.6c-0.7-0.5-1.6-0.9-2.2-1.5C589.8,53.9,589.9,53.2,590.4,53.1z"/>
  <path fill="#C04F27" d="M592.1,51.5c1.2-0.3,2.1,1.1,2.6,1.9c0.5,0.7,1.5,1.7,1,2.6c-0.1,0.2-0.5,0.1-0.5-0.1     c-0.1-0.7-1-1.3-1.5-1.8c-0.3-0.3-0.6-0.7-0.9-1c-0.3-0.3-0.7-0.4-1-0.6C591.4,52.3,591.6,51.6,592.1,51.5z"/>
  <path fill="#8D341E" d="M589.7,67.9c0,0.1,0.2,0,0.2,0c0,0,0,0,0,0c0,0,0-0.1-0.1-0.1c0,0,0,0,0,0c0,0,0,0,0,0    C589.7,67.7,589.6,67.8,589.7,67.9z"/>
  <path fill="#8D341E" d="M589.4,58.7c-1.9,3.1,0.8,6.5-0.6,9.7c-0.4,0.8-1.1,1.4-1.7,1.9c-0.7,0.5-1.3,1.1-1.9,1.7    c-1.2,1.1-2.4,2.6-2.5,4.3c0,0.1,0.1,0.2,0.2,0.1c0.7-1.7,1.7-3.1,3.1-4.4c1.2-1.1,2.7-2,3.4-3.4c0.6-1.3,0.5-2.8,0.3-4.1    c-0.1-0.9-0.4-1.7-0.4-2.6c0-1.1,0.4-2,0.5-3.1C589.6,58.6,589.5,58.6,589.4,58.7z"/>
  <path fill="#8D341E" d="M591.4,59.3c-0.4,0.7-1,1.5-1.2,2.4c0,0.1,0.1,0.1,0.1,0.1c0.7-0.6,0.9-1.6,1.3-2.4    C591.6,59.3,591.5,59.2,591.4,59.3z"/>
  <path fill="#8D341E" d="M586.2,66.9c-0.4,1-0.8,2.2-0.6,3.2c0,0.1,0.2,0.1,0.2,0c0.2-0.5,0.2-1.1,0.3-1.6c0.1-0.6,0.3-1.1,0.5-1.7    c0.4-1,1-1.9,1.6-2.7c0.1-0.1-0.1-0.2-0.2-0.1C587.2,64.8,586.7,65.8,586.2,66.9z"/>
  <path fill="#8D341E" d="M585.5,72.6c-0.2,0.6-0.3,1.3-0.5,1.9c-0.1,0.4-0.3,0.9-0.6,1.2c-0.2,0.3-0.4,0.4-0.6,0.7    c0,0.1,0,0.2,0.1,0.1c1.4-0.4,1.7-2.8,1.9-4C585.9,72.5,585.6,72.4,585.5,72.6z"/>
  <path fill="#8D341E" d="M600,47.7c-1.6,1.7-2.9,3.7-4.6,5.4c-0.1,0,0,0.1,0.1,0.1c0.9-0.5,1.6-1.3,2.2-2.1c0.7-0.9,1.4-1.9,2.2-2.7    c1.6-1.8,3.4-3.2,5.4-4.5c0.1-0.1,0-0.2-0.1-0.2C603.3,44.6,601.5,46.2,600,47.7z"/>
  <path fill="#8D341E" d="M594.5,52.3c0,0.1,0.1,0.1,0.1,0c0.5-1.1,1.6-1.7,2.7-2.2c1.2-0.6,2.4-1.1,3.6-1.7c1.5-0.8,3-1.8,4.4-2.7    c0.7-0.5,1.3-1.1,2-1.6c0.7-0.5,1.3-1.1,2-1.7c0.1-0.1,0-0.1-0.1-0.1c-1.5,1-2.8,2.2-4.3,3.2c-1.6,1.1-3.2,2-5,2.9    c-1.2,0.6-2.4,1.1-3.5,1.7C595.6,50.5,594.5,51.2,594.5,52.3z"/>
  <path fill="#8D341E" d="M581.6,84.4c0.4,0.7,0.7,1.4,1.1,2.1c0.4,0.6,0.8,1.2,1.2,1.8c0.7,1.4,0.5,2.6,0.2,4.1c0,0.1,0.1,0.1,0.1,0    c0.7-1.1,0.7-2.6,0.3-3.8c-0.3-0.7-0.7-1.3-1.1-1.9c-0.6-0.8-0.9-1.8-1.6-2.5C581.7,84.2,581.6,84.3,581.6,84.4z"/>
  <path fill="#8D341E" d="M583.9,83.8c-0.1,1.4-0.5,2.7-0.7,4.1c-0.2,1-0.4,2.5,0.4,3.3c0,0,0.1,0,0.1-0.1c-0.1-0.6-0.2-1.1-0.3-1.6    c0-0.7,0.1-1.5,0.2-2.2c0.2-1.2,0.6-2.4,0.4-3.6C584,83.7,583.9,83.7,583.9,83.8z"/>
  <path fill="#83635E" d="M184.8,58c-0.1,0.3,0,0.6,0.3,0.8c0.2,0.1,0.3,0.2,0.5,0.1c0.2-0.1,0.5-0.2,0.5-0.5c0.1-0.7,0.4-1.3,0.6-2     c0.1-0.3,0.2-0.7,0.4-1c0-0.1,0.1-0.2,0.1-0.4c-0.4,0-0.7,0.1-1,0.2c-0.1,0.1-0.2,0.3-0.2,0.4C185.5,56.4,185.1,57.2,184.8,58z"/>
  <path fill="#83635E" d="M181.7,59.4c0,0.6,0.7,0.8,1.1,0.3c0.4-0.6,0.5-1.3,0.7-1.9c0.2-0.7,0.4-1.3,0.6-2c0,0,0,0,0,0     c-0.3,0.1-0.7,0.3-1,0.4c-0.2,0.4-0.4,0.8-0.6,1.1C182.2,58,181.8,58.7,181.7,59.4z"/>
  <path fill="#83635E" d="M185.5,60.6c-0.6-0.5-1.2-1.1-2-1.4c-0.6-0.2-0.9,0.6-0.5,1c0.8,0.6,1.5,1.3,2.3,1.9     c0.2,0.2,0.5,0.3,0.8,0.5c0.5-0.1,1.1-0.3,1.6-0.5c0,0,0,0,0,0C187,61.7,186.2,61.1,185.5,60.6z"/>
  <path fill="#B0958C" d="M182.1,62.6c-0.6-0.5-1.3-1-1.6-1.7c-0.1-0.2,0-0.4,0.2-0.5c1-0.1,1.8,0.6,2.5,1.2      c0.4,0.4,0.9,0.7,1.1,1.2c0.1,0,0.2,0,0.3,0c0.5-0.1,1-0.2,1.6-0.3c-0.3-0.1-0.6-0.3-0.8-0.5c-0.8-0.6-1.5-1.3-2.3-1.9      c-0.5-0.4-0.2-1.2,0.5-1c0.8,0.2,1.4,0.9,2,1.4c0.7,0.6,1.4,1.1,2.2,1.5c0,0,0,0,0,0c1.1-0.4,2.1-1,2.6-1.8      c0.6-1.2,0.5-2.1,0-2.7c0.1-0.4,0.2-0.9,0-1.3c-0.2-0.5-0.6-0.9-1-1c-0.4,0.7-0.7,1.4-1,2.2c-0.1,0.3-0.5,1.3-1,0.8      c-0.5-0.4,0.1-1.3,0.3-1.7c0.3-0.5,0.6-1,1-1.4c-0.5-0.1-1,0-1.4,0c0,0.1-0.1,0.3-0.1,0.4c-0.1,0.3-0.2,0.7-0.4,1      c-0.2,0.7-0.5,1.3-0.6,2c0,0.2-0.3,0.4-0.5,0.5c-0.2,0.1-0.4,0-0.5-0.1c-0.3-0.2-0.4-0.5-0.3-0.8c0.3-0.9,0.7-1.6,1.2-2.4      c0.1-0.1,0.1-0.3,0.2-0.4c-0.1,0-0.1,0-0.2,0c-0.5,0.1-1.2,0.3-1.9,0.6c0,0,0,0,0,0c-0.2,0.7-0.4,1.3-0.6,2      c-0.2,0.6-0.3,1.3-0.7,1.9c-0.3,0.5-1.1,0.3-1.1-0.3c0-0.7,0.4-1.4,0.7-2c0.2-0.4,0.4-0.8,0.6-1.1c-2.8,1.2-5.9,3.4-3.7,5.8      c0.4,0.4,0.8,0.6,1.4,0.8c-0.1-0.1-0.3-0.2-0.4-0.3c-0.5-0.4-0.8-0.8-1.2-1.4c-0.1-0.2,0.2-0.4,0.3-0.2c0.4,0.4,0.9,0.8,1.4,1.2      c0.3,0.3,0.8,0.5,1,0.9c0.2,0,0.4,0,0.6,0C182.4,62.9,182.3,62.8,182.1,62.6z"/>
  <path fill="#BA5B54" d="M180.7,60.4c-0.2,0-0.3,0.3-0.2,0.5c0.3,0.7,1,1.3,1.6,1.7c0.2,0.1,0.3,0.3,0.5,0.4c0.6,0,1.2-0.1,1.7-0.2      c-0.2-0.5-0.7-0.9-1.1-1.2C182.6,61,181.7,60.3,180.7,60.4z"/>
  <path fill="#493C38" d="M187.3,58.2c0.5,0.5,0.9-0.6,1-0.8c0.3-0.7,0.6-1.5,1-2.2c-0.2-0.1-0.4-0.1-0.7-0.2      c-0.4,0.4-0.7,0.9-1,1.4C187.4,56.8,186.9,57.7,187.3,58.2z"/>
  <path fill="#493C38" d="M179.5,60.9c-0.2-0.2-0.4,0-0.3,0.2c0.3,0.5,0.7,1,1.2,1.4c0.1,0.1,0.2,0.2,0.4,0.3      c0.4,0.1,0.8,0.2,1.3,0.2c-0.2-0.4-0.7-0.6-1-0.9C180.4,61.8,179.9,61.4,179.5,60.9z"/>
  <path fill="#9B4C37" d="M131.7,76.9c-0.1,0.2-0.2,0.3-0.3,0.5c0.2,0.1,0.4,0.2,0.6,0.3l59.8-20.2c0.1-0.4,0.2-0.9,0.4-1.3     l-60.6,20.4C131.7,76.7,131.8,76.8,131.7,76.9z"/>
  <path fill="#8695A2" d="M127.6,77.8c2.1-1.2,4.3-2.3,6.4-3.6c0.5-0.3,0.1-1-0.4-0.7l0,0c-2,1.3-4.1,2.3-6.1,3.5    c-2.1,1.2-4.1,2.4-6.3,3.4c-0.1,0.1-0.1,0.3,0.1,0.3C123.6,80.2,125.6,78.9,127.6,77.8z"/>
  <path fill="#8695A2" d="M135.9,79c0.1,0,0.1,0,0.2,0c0,0,0.1-0.1,0.1-0.1c0,0,0,0,0,0c0.1,0,0.1-0.1,0-0.2c0-0.1,0-0.2-0.1-0.3    c-0.3-0.5-0.8-1-0.2-1.5c0.8-0.8,2.2-0.6,3.1-1.1c0.3-0.2,0.2-0.6-0.1-0.6c-1.1,0-2.8,0.5-3.6,1.3c-0.7,0.7-0.4,1.6,0.2,2.3    c-1,0-2.1,0.2-3.1,0.2c-1.2,0.1-2.4,0.3-3.6,0.4c-1.2,0.1-2.4,0.1-3.5,0.3c-1.3,0.2-2.6,0.4-3.9,0.8c-0.5,0.2-0.2,0.8,0.2,0.6    c1.2-0.4,2.4-0.6,3.6-0.7c1.3-0.2,2.5-0.2,3.8-0.3c1.2-0.1,2.3-0.3,3.5-0.4C133.5,79.4,134.8,79.4,135.9,79z"/>
  <path fill="#8695A2" d="M138.8,75.5c0.2,0,0.3-0.2,0.3-0.4c0,0,0-0.1,0-0.1c0-0.3-0.3-0.7-0.5-0.8c-0.4-0.2-1.1,0.2-1.5,0.4    c-0.7,0.3-1.4,0.7-2.1,0.7c-0.6,0-0.4-1.3-1-1.6c-0.1-0.1-0.3,0.1-0.2,0.2c0.3,0.5,0,1.1,0.3,1.6c0.3,0.4,0.7,0.5,1.1,0.4    c0.5,0,1.1-0.2,1.6-0.4c0.3-0.1,0.5-0.2,0.7-0.3c0.1,0,0.7-0.3,0.9-0.2c0,0,0,0,0,0c0,0,0,0.1,0,0.1c-0.1,0.2,0,0.4,0.2,0.4    C138.5,75.5,138.7,75.6,138.8,75.5z"/>
  <path fill="#8695A2" d="M135.4,78.7c0.5-0.1,0.4-0.9-0.1-0.8c0-0.1-0.1-0.1-0.1-0.2c0-0.1,0-0.2-0.1-0.3c-0.1-0.3,0-0.5,0.1-0.8    c0-0.1,0-0.1,0-0.2c1-0.4,2-0.8,3-1.2c0.4-0.1,0.3-0.8-0.1-0.7c-1.1,0.4-2.2,0.8-3.3,1.2c0-0.1-0.1-0.1-0.1-0.2    c-0.2-0.1-0.3-0.2-0.5-0.1c0,0,0,0,0,0c0,0,0-0.1,0-0.1c0-0.2,0-0.3-0.1-0.4c0-0.1,0-0.1,0-0.2c0.1-0.3,0.1-0.5-0.2-0.7    c-0.2-0.1-0.4,0-0.5,0.1c-0.1,0.1-0.2,0.3-0.2,0.4c-0.1,0.1-0.2,0.2-0.3,0.3c-0.1,0-0.2-0.1-0.3,0c-0.7,0.3-1.4,0.9-2.1,1.4    c-0.3,0.2-0.6,0.3-0.9,0.5c-0.4,0.2-0.2,0.9,0.3,0.7c0,0,0,0,0.1,0c-0.2,0.3,0,0.7,0.4,0.7c0,0,0,0,0,0c-0.1,0.2,0,0.6,0.3,0.6    c0.2,0,0.4,0,0.6,0c0.6,0.1,1.2,0.2,1.8,0.1c0.1,0,0.1,0.1,0.2,0.1c0.4,0,0.7,0,1,0c0.2,0,0.5,0,0.7,0c0.1,0,0.1,0,0.1,0    C135.2,78.7,135.3,78.7,135.4,78.7z M132.9,77.9c0-0.1,0-0.2,0-0.2c0.1-0.1,0.2-0.1,0.3-0.2c-0.1,0.1-0.1,0.3,0,0.4    C133.1,77.9,133,77.9,132.9,77.9z"/>
  <path fill="#8695A2" d="M130.9,79.2c0.6,0,1.2,0,1.8-0.3c0.1,0,0.1-0.1,0.2-0.1c0.1-0.1,0.2-0.3,0.1-0.5c0-0.1,0-0.1,0-0.2    c0.4-0.1,0.3-0.6,0.1-0.8c-0.1-0.1-0.2-0.2-0.4-0.2c-0.3,0-0.5,0.1-0.8,0.2c0,0-0.1,0-0.1,0c-0.3,0.1-0.7,0.1-1,0.2    c0.1-0.1,0.2-0.1,0.2-0.2c0.2-0.1,0.4-0.3,0.6-0.4c0.3-0.3-0.1-0.8-0.4-0.6c-0.2,0.1-0.5,0.3-0.7,0.5c-0.1,0.1-0.2,0.1-0.3,0.2    c-0.1,0-0.1,0-0.2,0c-0.1,0-0.2,0-0.3,0.1c0-0.1-0.1-0.1-0.2-0.2c-0.1-0.2-0.3-0.4-0.5-0.3c-0.2,0.1-0.4,0.2-0.5,0.3    c-0.9,0.6-2,1-2.8,1.7c0,0,0,0-0.1,0.1c-0.5,0.1-0.9,0.3-1.3,0.6c-0.2,0.2,0,0.6,0.3,0.6c0.6-0.1,1.1-0.3,1.7-0.5    c0.1,0,0.1,0,0.2,0c0.1,0.1,0.2,0.2,0.4,0.1c0.2,0,0.4-0.1,0.6-0.1c0.1,0.1,0.2,0.2,0.4,0.2c0.7-0.2,1.5-0.3,2.2-0.4    c0.1,0,0.1,0,0.2,0C130.4,79.3,130.7,79.2,130.9,79.2z"/>
  <path fill="#8695A2" d="M137.2,75.3c0.1-0.2,0-0.4-0.2-0.4c-0.5-0.1-1,0.3-1.5,0.3c-0.8,0-1-0.6-1.2-1.2c-0.2-0.6-0.9-0.5-1.2,0    c-0.1,0.1,0,0.2,0.1,0.3c0,0,0.1,0,0.1,0c0.1,0,0.3-0.1,0.4-0.2c0.1,0,0.1,0.5,0.1,0.6c0.1,0.5,0.3,0.8,0.7,1    C135.4,76,136.7,76.1,137.2,75.3z"/>
  <path fill="#8695A2" d="M139.1,75.2c0-0.4-0.2-1-0.6-1.1c-0.3-0.1-0.5,0.1-0.8,0.2c-0.1,0.1-0.5,0.3-0.3,0.5c0.3,0.2,0.6,0,0.9-0.1    c0,0,0,0,0,0c0,0,0,0.1,0,0.1c0,0.2,0,0.4,0,0.6C138.4,75.8,139.1,75.6,139.1,75.2z"/>
  <path fill="#A0A9B2" d="M125.9,78.9c-0.4,0.2-0.9,0.4-1.3,0.6c0.8-0.1,1.5-0.3,2.2-0.6c1.3-0.5,2.6-1,3.9-1.4c1.3-0.4,2.6-0.9,4-1.3    c1.2-0.4,2.5-0.7,3.8-1.1c0.1,0,0.1-0.1,0.2-0.1c0.1-0.1,0-0.3-0.1-0.4c0,0,0,0,0,0c-0.1,0-0.2,0-0.3,0.1c0,0,0,0-0.1,0.1    c-1.3,0.5-2.5,0.8-3.8,1.2c-1.2,0.4-2.4,0.8-3.6,1.2c-1,0.4-2.1,0.7-3.1,1.1c-0.2,0.1-0.5,0.2-0.7,0.3c0,0,0,0-0.1,0    C126.6,78.7,126.3,78.8,125.9,78.9C126,78.9,126,78.9,125.9,78.9z"/>
  <path fill="#727F88" d="M134.2,77.1c1,0,1.2,0.7,1.2,1.1c0,0.1-0.1,0.2-0.3,0.3c-0.6,0.1-1.1,0.2-1.7,0.2c-0.6,0-1.2,0.1-1.8,0.1    c0,0,0,0-0.1,0c-0.2,0.1-0.5,0-0.6,0c-0.1,0-0.2-0.1-0.2-0.2c-0.1-0.1,0-0.2,0.3-0.3c0.6-0.2,1.2-0.5,1.8-0.7    C133.2,77.2,133.6,77.1,134.2,77.1z"/>
  <path fill="#727F88" d="M133.7,75.6c0.8-0.6,0.5-1.3,0.3-1.6c0-0.1-0.2-0.1-0.4,0c-0.5,0.2-1,0.5-1.5,0.9c-0.5,0.4-1,0.6-1.5,1    c0,0,0,0,0,0c-0.2,0.1-0.4,0.3-0.5,0.4c-0.1,0.1-0.1,0.2,0,0.2c0,0.1,0.2,0.2,0.4,0.1c0.6-0.2,1.3-0.3,1.9-0.5    C132.8,76.1,133.2,76,133.7,75.6z"/>
  <path fill="#B0958C" d="M185.5,75.2c0.2,0,0.5-0.1,0.7-0.1c0.1-0.4,0.1-0.8,0.1-1.2c0.1-0.9,0.4-1.7,0.6-2.5     c-0.2,0-0.4,0.1-0.6,0.1C186,72.5,185.4,74,185.5,75.2z"/>
  <path fill="#B0958C" d="M187.4,75.1c0.1,0.1,0.3,0.2,0.4,0c0.5-0.4,0.6-1.3,0.8-1.9c0.3-0.6,0.7-1.3,0.7-2.1c-0.3,0-0.5,0-0.7,0     c-0.4,0.6-0.7,1.3-1,1.9C187.3,73.7,186.9,74.6,187.4,75.1z"/>
  <path fill="#B0958C" d="M190,74.2c-0.3-0.2-0.6,0.3-0.3,0.5c0.6,0.5,1.3,1.1,2,1.5c0.3,0.2,0.7,0.5,1,0.7c0.3-0.2,0.6-0.5,0.8-0.9     c-0.3-0.3-0.7-0.5-1.1-0.7C191.6,74.9,190.8,74.6,190,74.2z"/>
  <path fill="#83635E" d="M183.6,75.5c-0.3-0.3,0.2-0.7,0.5-0.5c0.7,0.5,1.3,1.1,1.9,1.8c0.2,0.3,0.6,0.8,0.7,1.3      c0.9,0.1,1.8,0.1,2.8,0c0.4,0,0.8-0.1,1.1-0.2c-0.5-0.3-0.9-0.6-1.4-1.1c-0.4-0.4-0.9-0.8-1.2-1.3c-0.1-0.1,0.1-0.2,0.2-0.2      c0.5,0.2,0.9,0.7,1.3,1.1c0.5,0.4,1,0.9,1.6,1.2c0.1,0,0.1,0.1,0.1,0.1c0.5-0.2,0.9-0.4,1.3-0.7c-0.3-0.2-0.7-0.4-1-0.7      c-0.7-0.5-1.3-1-2-1.5c-0.3-0.2,0-0.7,0.3-0.5c0.8,0.4,1.6,0.7,2.4,1.1c0.4,0.2,0.8,0.4,1.1,0.7c0.3-0.5,0.4-1.1,0.3-1.8      c-0.1-0.8-0.6-1.4-1.2-1.9c-0.1,0.3-0.3,0.6-0.4,0.8c-0.3,0.5-0.5,1-1,1.2c-0.1,0.1-0.2,0-0.2-0.1c0.1-0.5,0.4-0.9,0.7-1.3      c0.2-0.3,0.4-0.6,0.6-0.9c-0.8-0.5-1.8-0.8-2.8-0.9c0,0.7-0.4,1.4-0.7,2.1c-0.2,0.6-0.3,1.5-0.8,1.9c-0.1,0.1-0.3,0.1-0.4,0      c-0.5-0.5-0.2-1.5,0.1-2c0.3-0.6,0.6-1.3,1-1.9c-0.3,0-0.7,0-1,0c-0.2,0-0.4,0.1-0.6,0.1c-0.3,0.8-0.5,1.7-0.6,2.5      c-0.1,0.4-0.1,0.8-0.1,1.2c-0.2,0-0.5,0.1-0.7,0.1c-0.1-1.2,0.5-2.7,0.9-3.8c-1.3,0.3-2.8,0.9-3.9,1.8c0,0.9-0.4,1.9-1,2.6      c-0.1,0.2-0.3,0.2-0.5,0.1c0.1,0.1,0.2,0.2,0.3,0.2c0,0,0,0,0,0c1.2,0.8,2.3,1.3,3.5,1.6c0,0,0-0.1,0-0.1      C184.5,77,184.1,76.2,183.6,75.5z"/>
  <path fill="#BA5B54" d="M186,76.8c-0.5-0.7-1.2-1.3-1.9-1.8c-0.3-0.2-0.7,0.2-0.5,0.5c0.5,0.6,0.9,1.5,1.3,2.2c0,0,0,0.1,0,0.1      c0.6,0.1,1.1,0.2,1.7,0.3C186.5,77.6,186.2,77.2,186,76.8z"/>
  <path fill="#493C38" d="M191.2,77.6c-0.6-0.3-1.1-0.7-1.6-1.2c-0.4-0.4-0.8-0.8-1.3-1.1c-0.1,0-0.2,0.1-0.2,0.2      c0.3,0.5,0.8,0.9,1.2,1.3c0.4,0.4,0.9,0.8,1.4,1.1c0.2-0.1,0.5-0.1,0.7-0.2C191.3,77.6,191.2,77.6,191.2,77.6z"/>
  <path fill="#493C38" d="M181.6,75.9c0.5-0.7,0.9-1.7,1-2.6c-0.6,0.5-1.1,1-1.3,1.7c-0.2,0.2-0.2,0.5-0.2,0.7c0,0,0,0,0,0      c0,0.1,0,0.3,0.1,0.4C181.3,76.1,181.5,76,181.6,75.9z"/>
  <path fill="#493C38" d="M190.8,74.3c0,0.1,0.1,0.2,0.2,0.1c0.5-0.3,0.7-0.8,1-1.2c0.2-0.3,0.3-0.5,0.4-0.8      c-0.1-0.1-0.2-0.2-0.4-0.3c-0.2,0.3-0.4,0.6-0.6,0.9C191.2,73.4,190.9,73.8,190.8,74.3z"/>
  <path fill="#9B4C37" d="M133.6,82.3c0,0-0.1,0.1-0.1,0.1l61-7.8c0.2-0.4,0.4-0.8,0.6-1.2l-61.4,7.9C133.8,81.6,133.8,82,133.6,82.3     z"/>
  <path fill="#8695A2" d="M128.4,81.9c2.3-0.7,4.7-1.3,7-2.2c0.5-0.2,0.3-0.9-0.2-0.8l0,0c-2.2,0.8-4.5,1.5-6.7,2.2     c-2.3,0.7-4.5,1.5-6.9,2c-0.2,0-0.1,0.3,0,0.3C124,83.4,126.2,82.6,128.4,81.9z"/>
  <path fill="#8695A2" d="M136.3,84.7c0.1,0,0.1,0,0.2,0c0,0,0.1,0,0.1-0.1c0,0,0,0,0,0c0.1,0,0.1-0.1,0.1-0.1c0-0.1,0-0.2,0-0.4     c-0.2-0.6-0.6-1.1,0.1-1.5c1-0.6,2.3-0.1,3.3-0.5c0.3-0.1,0.3-0.6,0-0.6c-1.1-0.2-2.8-0.1-3.8,0.5c-0.8,0.5-0.7,1.5-0.3,2.3     c-1-0.2-2.1-0.2-3.1-0.4c-1.2-0.2-2.4-0.3-3.6-0.4c-1.2-0.1-2.3-0.4-3.5-0.4c-1.3-0.1-2.7-0.2-4,0c-0.5,0.1-0.3,0.8,0.1,0.7     c1.2-0.1,2.4,0,3.7,0c1.3,0.1,2.5,0.3,3.8,0.5c1.2,0.1,2.4,0.2,3.5,0.4C133.9,84.7,135.2,85,136.3,84.7z"/>
  <path fill="#8695A2" d="M139.8,81.9c0.2,0,0.4-0.1,0.4-0.4c0,0,0-0.1,0-0.1c0.1-0.3-0.1-0.7-0.4-0.9c-0.4-0.3-1.1-0.1-1.6,0     c-0.7,0.2-1.5,0.4-2.2,0.2c-0.6-0.1-0.1-1.4-0.6-1.8c-0.1-0.1-0.3,0.1-0.2,0.2c0.2,0.5-0.3,1.1,0,1.7c0.2,0.4,0.6,0.6,1,0.7     c0.5,0.1,1.1,0,1.6-0.1c0.3,0,0.5-0.1,0.8-0.2c0.1,0,0.8-0.1,0.9,0c0,0,0,0,0,0c0,0,0,0.1,0,0.1c-0.1,0.2-0.1,0.4,0.1,0.5     C139.6,81.9,139.7,82,139.8,81.9z"/>
  <path fill="#8695A2" d="M135.8,84.3c0.5,0,0.5-0.8,0-0.8c0-0.1,0-0.1-0.1-0.2c0.1-0.1,0.1-0.2,0-0.3c0-0.3,0.1-0.5,0.3-0.8     c0-0.1,0-0.1,0-0.2c1-0.1,2.1-0.4,3.1-0.5c0.4-0.1,0.4-0.7,0-0.7c-1.1,0.1-2.3,0.3-3.5,0.5c0-0.1,0-0.1-0.1-0.2     c-0.1-0.1-0.2-0.2-0.4-0.2c0,0,0,0,0,0c0,0,0,0,0-0.1c0.1-0.1,0.1-0.3,0-0.4c0-0.1,0-0.1,0-0.2c0.2-0.2,0.2-0.5,0-0.8     c-0.1-0.2-0.4-0.1-0.5,0c-0.1,0.1-0.2,0.2-0.3,0.3c-0.1,0.1-0.2,0.1-0.3,0.2c-0.1-0.1-0.2-0.1-0.3-0.1c-0.8,0.2-1.6,0.6-2.3,0.9     c-0.3,0.1-0.7,0.2-1,0.3c-0.4,0.1-0.3,0.8,0.1,0.8c0,0,0.1,0,0.1,0c-0.3,0.2-0.1,0.7,0.3,0.8c0,0,0,0,0,0     c-0.1,0.2-0.1,0.6,0.2,0.6c0.2,0,0.4,0.1,0.6,0.1c0.5,0.2,1.1,0.4,1.7,0.5c0,0.1,0.1,0.1,0.2,0.1c0.3,0.1,0.7,0.1,1,0.2     c0.2,0.1,0.5,0.1,0.7,0.1c0.1,0,0.1,0,0.1,0C135.6,84.3,135.7,84.3,135.8,84.3z M133.6,83.1c0-0.1,0-0.2,0-0.2     c0.1,0,0.3-0.1,0.4-0.1c-0.1,0.1-0.1,0.3-0.1,0.4C133.8,83.1,133.7,83.1,133.6,83.1z"/>
  <path fill="#8695A2" d="M131.4,83.9c0.6,0.1,1.2,0.2,1.8,0.1c0.1,0,0.1,0,0.2-0.1c0.2-0.1,0.2-0.3,0.2-0.4c0,0,0-0.1,0.1-0.1     c0.4-0.1,0.5-0.6,0.2-0.7c-0.1-0.1-0.2-0.3-0.4-0.3c-0.3,0-0.5,0-0.8,0c0,0-0.1,0-0.1,0c-0.4,0-0.7,0-1.1,0     c0.1,0,0.2-0.1,0.3-0.1c0.2-0.1,0.5-0.2,0.7-0.3c0.3-0.2,0.1-0.8-0.3-0.7c-0.2,0.1-0.5,0.2-0.8,0.4c-0.1,0-0.2,0.1-0.3,0.1     c-0.1,0-0.1-0.1-0.2-0.1c-0.1,0-0.2,0-0.3,0c0-0.1-0.1-0.2-0.1-0.2c0-0.2-0.2-0.5-0.5-0.4c-0.2,0.1-0.4,0.1-0.6,0.2     c-1,0.4-2.2,0.5-3.1,1.1c0,0,0,0-0.1,0c-0.5,0-1,0.1-1.4,0.3c-0.3,0.2-0.2,0.6,0.2,0.6c0.6,0,1.2,0,1.8-0.1c0.1,0,0.1,0,0.2,0     c0.1,0.1,0.2,0.2,0.3,0.2c0.2,0,0.4,0,0.6,0c0,0.1,0.2,0.3,0.4,0.3c0.7,0,1.5,0,2.2,0c0.1,0,0.1,0.1,0.2,0.1     C130.9,83.9,131.1,83.9,131.4,83.9z"/>
  <path fill="#8695A2" d="M138.4,81.4c0.1-0.1,0.1-0.4-0.1-0.4c-0.5-0.2-1,0.1-1.5,0c-0.8-0.2-0.8-0.8-0.9-1.5     c-0.1-0.6-0.8-0.6-1.1-0.2c-0.1,0.1-0.1,0.2,0,0.3c0,0,0,0.1,0.1,0.1c0.1,0,0.3-0.1,0.4-0.1c0.1,0,0,0.5,0,0.6     c0,0.5,0.2,0.9,0.5,1.1C136.4,81.7,137.7,82.1,138.4,81.4z"/>
  <path fill="#8695A2" d="M140.2,81.6c0-0.4,0.1-1-0.4-1.2c-0.3-0.1-0.5,0-0.8,0.1c-0.1,0-0.6,0.2-0.4,0.4c0.2,0.3,0.6,0.1,0.9,0.1     c0,0,0,0,0,0c0,0,0,0.1,0,0.1c0,0.2-0.1,0.4-0.1,0.6C139.4,82.1,140.1,82.1,140.2,81.6z"/>
  <path fill="#A0A9B2" d="M126.6,82.6c-0.5,0.1-0.9,0.2-1.4,0.3c0.7,0.1,1.6,0,2.3-0.1c1.4-0.2,2.7-0.5,4.1-0.6     c1.4-0.1,2.8-0.4,4.1-0.5c1.3-0.1,2.6-0.2,3.9-0.3c0.1,0,0.2,0,0.2-0.1c0.2-0.1,0.1-0.3,0-0.4c0,0,0,0,0,0c-0.1,0-0.2,0-0.3,0     c0,0-0.1,0-0.1,0c-1.3,0.2-2.7,0.2-4,0.3c-1.3,0.1-2.5,0.3-3.8,0.4c-1.1,0.2-2.2,0.3-3.3,0.4c-0.3,0-0.5,0.1-0.8,0.1     c0,0,0,0-0.1,0C127.3,82.5,127,82.5,126.6,82.6C126.6,82.6,126.6,82.6,126.6,82.6z"/>
  <path fill="#727F88" d="M135,82.5c1,0.2,1,1,1,1.3c0,0.1-0.2,0.2-0.3,0.2c-0.6,0-1.1-0.1-1.7-0.2c-0.6-0.1-1.2-0.2-1.8-0.3     c0,0,0,0-0.1,0c-0.3,0-0.5-0.1-0.6-0.2c-0.1-0.1-0.2-0.1-0.1-0.2c0-0.1,0.1-0.2,0.3-0.3c0.7-0.1,1.3-0.2,1.9-0.4     C134,82.5,134.4,82.4,135,82.5z"/>
  <path fill="#727F88" d="M134.8,81c0.9-0.4,0.8-1.1,0.7-1.5c0-0.1-0.2-0.2-0.4-0.1c-0.6,0.1-1.1,0.3-1.6,0.5     c-0.6,0.2-1.1,0.4-1.7,0.7c0,0,0,0-0.1,0c-0.2,0-0.4,0.2-0.6,0.3c-0.1,0.1-0.1,0.2-0.1,0.2c0,0.1,0.1,0.2,0.4,0.2     c0.7-0.1,1.3-0.1,1.9-0.1C133.9,81.2,134.3,81.2,134.8,81z"/>
  <path fill="#B0958C" d="M176.1,45.4c0.2-0.1,0.4-0.3,0.6-0.4c-0.1-0.4-0.2-0.8-0.3-1.2c-0.2-0.8-0.3-1.7-0.4-2.6     c-0.2,0.1-0.3,0.2-0.5,0.3C175.5,42.8,175.5,44.3,176.1,45.4z"/>
  <path fill="#B0958C" d="M177.9,44.6c0.1,0.1,0.3,0,0.4-0.1c0.3-0.6,0-1.4,0-2.1c0-0.7,0.1-1.5-0.2-2.2c-0.2,0.1-0.5,0.1-0.7,0.2     c-0.1,0.7-0.2,1.5-0.2,2.2C177.2,43.3,177.2,44.3,177.9,44.6z"/>
  <path fill="#B0958C" d="M179.9,42.8c-0.4,0-0.4,0.5-0.1,0.6c0.8,0.3,1.6,0.5,2.4,0.7c0.4,0.1,0.8,0.2,1.2,0.2     c0.2-0.3,0.3-0.7,0.4-1.1c-0.4-0.2-0.8-0.2-1.3-0.2C181.6,42.9,180.7,42.9,179.9,42.8z"/>
  <path fill="#83635E" d="M174.4,46.4c-0.3-0.2-0.1-0.8,0.3-0.6c0.9,0.2,1.6,0.5,2.4,1c0.4,0.2,0.8,0.5,1.1,0.9      c0.9-0.3,1.7-0.6,2.6-1.1c0.3-0.2,0.7-0.4,1-0.6c-0.6-0.1-1.1-0.2-1.7-0.5c-0.5-0.2-1.2-0.4-1.6-0.8c-0.1-0.1,0-0.2,0.1-0.2      c0.6,0,1.1,0.3,1.6,0.5c0.6,0.2,1.3,0.4,1.9,0.5c0.1,0,0.1,0,0.2,0.1c0.4-0.4,0.7-0.7,1-1.2c-0.4,0-0.8-0.1-1.2-0.2      c-0.8-0.2-1.6-0.4-2.4-0.7c-0.3-0.1-0.3-0.6,0.1-0.6c0.9,0.1,1.8,0.1,2.6,0.2c0.5,0.1,0.9,0.1,1.3,0.2c0.1-0.6,0-1.2-0.4-1.8      c-0.4-0.7-1.1-1.1-1.8-1.3c0,0.3,0,0.6-0.1,0.9c-0.1,0.5-0.1,1.1-0.5,1.5c-0.1,0.1-0.2,0-0.2-0.1c-0.1-0.5,0.1-1,0.2-1.4      c0.1-0.4,0.2-0.7,0.2-1.1c-0.9-0.2-2,0-2.9,0.2c0.3,0.7,0.2,1.5,0.2,2.2c0,0.7,0.3,1.5,0,2.1c-0.1,0.2-0.3,0.2-0.4,0.1      c-0.7-0.3-0.7-1.3-0.6-1.9c0.1-0.7,0.1-1.5,0.2-2.2c-0.3,0.1-0.6,0.3-0.9,0.4c-0.2,0.1-0.4,0.2-0.5,0.3c0,0.9,0.1,1.7,0.4,2.6      c0.1,0.4,0.2,0.8,0.3,1.2c-0.2,0.1-0.4,0.3-0.6,0.4c-0.6-1.1-0.6-2.6-0.5-3.8c-1.1,0.8-2.2,1.9-2.9,3.1c0.3,0.9,0.3,1.9,0.1,2.8      c0,0.2-0.2,0.3-0.4,0.3c0.1,0.1,0.2,0.1,0.3,0.1c0,0,0,0,0,0c1.4,0.3,2.7,0.3,3.9,0.1c0,0,0,0-0.1-0.1      C175.8,47.5,175.2,46.8,174.4,46.4z"/>
  <path fill="#BA5B54" d="M177.1,46.8c-0.8-0.5-1.5-0.7-2.4-1c-0.4-0.1-0.6,0.5-0.3,0.6c0.7,0.4,1.4,1,2,1.6c0,0,0,0,0.1,0.1      c0.6-0.1,1.1-0.2,1.7-0.4C177.9,47.3,177.5,47,177.1,46.8z"/>
  <path fill="#493C38" d="M182.2,45.5c-0.7-0.1-1.3-0.3-1.9-0.5c-0.5-0.2-1.1-0.5-1.6-0.5c-0.1,0-0.2,0.1-0.1,0.2      c0.4,0.4,1.1,0.6,1.6,0.8c0.5,0.2,1.1,0.4,1.7,0.5c0.2-0.1,0.4-0.3,0.6-0.5C182.3,45.5,182.3,45.5,182.2,45.5z"/>
  <path fill="#493C38" d="M172.7,47.5c0.2-0.9,0.2-1.9-0.1-2.8c-0.4,0.7-0.6,1.4-0.6,2.1c-0.1,0.3,0,0.5,0.1,0.7c0,0,0,0,0,0      c0,0.1,0.1,0.2,0.2,0.3C172.5,47.8,172.7,47.7,172.7,47.5z"/>
  <path fill="#493C38" d="M180.7,42.6c0,0.1,0.2,0.1,0.2,0.1c0.4-0.4,0.4-1,0.5-1.5c0-0.3,0.1-0.6,0.1-0.9c-0.1,0-0.3-0.1-0.4-0.1      c-0.1,0.4-0.1,0.7-0.2,1.1C180.7,41.6,180.5,42.1,180.7,42.6z"/>
  <path fill="#9B4C37" d="M130.7,71.6c0,0,0,0.1,0,0.1l53.5-30.3c0-0.4,0.1-0.9,0.1-1.3l-53.9,30.5C130.6,70.9,130.8,71.2,130.7,71.6     z"/>
  <path fill="#8695A2" d="M125.8,73.2c1.9-1.5,3.8-3,5.7-4.6c0.4-0.4-0.1-1-0.5-0.7l0,0c-1.7,1.6-3.6,3-5.4,4.5     c-1.9,1.5-3.7,3.1-5.6,4.5c-0.1,0.1,0,0.3,0.1,0.2C122.2,76.2,124,74.6,125.8,73.2z"/>
  <path fill="#8695A2" d="M134.1,72.8c0.1,0,0.1,0,0.2-0.1c0,0,0.1-0.1,0.1-0.1c0,0,0,0,0,0c0.1,0,0-0.1,0-0.2c0-0.1-0.1-0.2-0.2-0.3     c-0.4-0.5-0.9-0.8-0.5-1.4c0.7-0.9,2.1-1,2.8-1.7c0.2-0.2,0.1-0.7-0.2-0.6c-1.1,0.2-2.6,1-3.3,1.9c-0.6,0.8-0.1,1.7,0.6,2.2     c-1,0.2-2,0.6-3,0.8c-1.2,0.3-2.3,0.7-3.5,1c-1.1,0.3-2.3,0.5-3.4,0.9c-1.3,0.4-2.5,0.8-3.7,1.5c-0.5,0.2,0,0.9,0.3,0.6     c1.1-0.6,2.2-1,3.4-1.4c1.2-0.4,2.5-0.7,3.7-1c1.1-0.3,2.3-0.7,3.4-1C131.9,73.7,133.1,73.5,134.1,72.8z"/>
  <path fill="#8695A2" d="M136.3,68.9c0.2-0.1,0.3-0.2,0.2-0.5c0,0,0-0.1-0.1-0.1c-0.1-0.3-0.4-0.6-0.7-0.7c-0.5-0.1-1.1,0.4-1.4,0.6     c-0.6,0.4-1.2,0.9-1.9,1c-0.6,0.1-0.6-1.3-1.3-1.4c-0.1,0-0.2,0.2-0.2,0.3c0.4,0.4,0.2,1.1,0.6,1.5c0.3,0.3,0.8,0.3,1.2,0.2     c0.5-0.1,1-0.4,1.5-0.7c0.2-0.1,0.4-0.3,0.7-0.5c0.1-0.1,0.7-0.4,0.8-0.4c0,0,0,0,0,0c0,0,0,0.1,0,0.1c-0.1,0.2,0.1,0.4,0.3,0.4     C136.1,69,136.2,69,136.3,68.9z"/>
  <path fill="#8695A2" d="M133.5,72.6c0.5-0.2,0.2-0.9-0.3-0.8c0-0.1-0.1-0.1-0.1-0.1c0-0.1,0-0.2-0.1-0.3c-0.1-0.3-0.1-0.5,0-0.8     c0-0.1,0-0.1,0-0.2c0.9-0.5,1.8-1.2,2.7-1.7c0.4-0.2,0.1-0.8-0.3-0.6c-1,0.6-2,1.2-3,1.8c0-0.1-0.1-0.1-0.2-0.1     c-0.2-0.1-0.3-0.1-0.5-0.1c0,0,0,0,0,0c0,0,0-0.1,0-0.1c0-0.2-0.1-0.3-0.2-0.4c0-0.1,0-0.1-0.1-0.2c0.1-0.3,0-0.5-0.3-0.7     c-0.2-0.1-0.4,0-0.5,0.2c-0.1,0.1-0.1,0.3-0.2,0.4c-0.1,0.1-0.1,0.2-0.2,0.3c-0.1,0-0.2,0-0.3,0.1c-0.7,0.4-1.2,1.1-1.8,1.7     c-0.3,0.2-0.5,0.4-0.8,0.6c-0.4,0.2,0,0.9,0.4,0.7c0,0,0,0,0.1,0c-0.2,0.3,0.2,0.7,0.5,0.6c0,0,0,0,0,0c-0.1,0.2,0.1,0.6,0.4,0.5     c0.2,0,0.4-0.1,0.6-0.2c0.6,0,1.2,0,1.8-0.2c0.1,0,0.1,0.1,0.2,0.1c0.4,0,0.7-0.1,1-0.2c0.2,0,0.5-0.1,0.7-0.2c0,0,0.1,0,0.1-0.1     C133.4,72.7,133.5,72.7,133.5,72.6z M131,72.3c0-0.1,0-0.2-0.1-0.2c0.1-0.1,0.2-0.2,0.3-0.2c0,0.1,0,0.3,0.1,0.4     C131.2,72.3,131.1,72.3,131,72.3z"/>
  <path fill="#8695A2" d="M129.2,73.9c0.6-0.1,1.2-0.2,1.7-0.6c0.1,0,0.1-0.1,0.2-0.1c0.1-0.1,0.1-0.3,0-0.5c0-0.1,0-0.1,0-0.2     c0.3-0.2,0.2-0.7-0.1-0.8c-0.1-0.1-0.3-0.2-0.4-0.1c-0.2,0.1-0.5,0.2-0.7,0.3c0,0-0.1,0-0.1,0c-0.3,0.1-0.7,0.3-1,0.4     c0.1-0.1,0.1-0.1,0.2-0.2c0.2-0.2,0.4-0.3,0.5-0.5c0.2-0.3-0.2-0.8-0.5-0.5c-0.2,0.2-0.4,0.4-0.6,0.7c-0.1,0.1-0.2,0.1-0.3,0.2     c-0.1,0-0.1,0-0.2,0c-0.1,0-0.2,0.1-0.3,0.1c0-0.1-0.1-0.1-0.2-0.1c-0.1-0.2-0.4-0.3-0.6-0.2c-0.2,0.1-0.3,0.3-0.5,0.4     c-0.8,0.7-1.8,1.3-2.5,2.2c0,0,0,0,0,0.1c-0.5,0.2-0.9,0.4-1.1,0.8c-0.2,0.3,0.1,0.6,0.4,0.5c0.6-0.2,1.1-0.5,1.6-0.8     c0.1,0,0.1,0,0.2-0.1c0.1,0.1,0.2,0.1,0.4,0.1c0.2-0.1,0.4-0.1,0.5-0.2c0.1,0.1,0.3,0.2,0.4,0.1c0.7-0.3,1.4-0.6,2.1-0.8     c0.1,0,0.1,0,0.2,0C128.8,74.1,129,74,129.2,73.9z"/>
  <path fill="#8695A2" d="M134.8,69c0.1-0.2-0.1-0.4-0.3-0.4c-0.5,0-0.9,0.5-1.4,0.5c-0.8,0.1-1-0.4-1.4-1c-0.3-0.5-1-0.3-1.2,0.2     c0,0.1,0,0.2,0.1,0.3c0,0,0.1,0,0.1,0c0.1,0,0.2-0.2,0.4-0.2c0.1-0.1,0.2,0.5,0.2,0.5c0.1,0.4,0.5,0.7,0.9,0.9     C133,70,134.4,69.8,134.8,69z"/>
  <path fill="#8695A2" d="M136.6,68.5c-0.1-0.4-0.3-1-0.8-1c-0.3,0-0.5,0.2-0.7,0.4c-0.1,0.1-0.5,0.4-0.2,0.5     c0.3,0.2,0.6-0.1,0.9-0.3c0,0,0,0,0,0c0,0,0,0.1,0,0.1c0,0.2,0.1,0.4,0.2,0.6C136,69.2,136.7,69,136.6,68.5z"/>
  <path fill="#A0A9B2" d="M124.3,74.5c-0.4,0.3-0.8,0.5-1.2,0.8c0.7-0.2,1.4-0.6,2.1-0.9c1.2-0.7,2.4-1.5,3.6-2.1     c1.3-0.6,2.4-1.4,3.7-2c1.2-0.6,2.3-1.2,3.5-1.7c0.1,0,0.1-0.1,0.1-0.2c0.1-0.2,0-0.3-0.2-0.4c0,0,0,0,0,0     c-0.1,0-0.2,0.1-0.3,0.1c0,0,0,0-0.1,0.1c-1.2,0.7-2.4,1.2-3.6,1.8c-1.1,0.6-2.2,1.3-3.3,1.8c-1,0.6-1.9,1.1-2.9,1.6     c-0.2,0.1-0.4,0.3-0.7,0.4c0,0,0,0-0.1,0C124.9,74.2,124.6,74.3,124.3,74.5C124.3,74.5,124.3,74.5,124.3,74.5z"/>
  <path fill="#727F88" d="M132.1,71.2c1-0.2,1.3,0.5,1.4,0.9c0,0.1-0.1,0.2-0.2,0.3c-0.5,0.2-1,0.4-1.6,0.5c-0.6,0.1-1.2,0.3-1.8,0.4     c0,0,0,0,0,0c-0.2,0.1-0.5,0.1-0.6,0.1c-0.1,0-0.2-0.1-0.2-0.1c-0.1-0.1,0-0.2,0.2-0.4c0.6-0.3,1.1-0.7,1.6-1     C131.1,71.6,131.5,71.4,132.1,71.2z"/>
  <path fill="#727F88" d="M131.3,69.9c0.7-0.7,0.3-1.3,0-1.6c-0.1-0.1-0.2-0.1-0.4,0c-0.5,0.3-0.9,0.7-1.3,1.1     c-0.4,0.4-0.9,0.8-1.3,1.2c0,0,0,0,0,0c-0.2,0.1-0.3,0.3-0.4,0.5c-0.1,0.1-0.1,0.2,0,0.2c0,0.1,0.2,0.2,0.4,0     c0.6-0.3,1.2-0.5,1.8-0.8C130.6,70.5,131,70.3,131.3,69.9z"/>
  <path fill="#333333" d="M581.8,71.2c-0.9-1.2-2.2-1.9-3.5-2.1l-0.4-0.1l-0.2-0.4c-0.3-0.6-0.4-1.2-0.3-1.8c0.1-0.8,0.4-1.6,1-2.3   c0.2-0.2,0.6-0.8,1.5-0.8c0.3,0,0.5,0.1,0.8,0.2c0.7,0.3,1.2,0.5,1.6,0.9c0.7,0.5,1.4,1.1,1.9,1.6c1.1,1.1,1.2,2.2,0.3,3.6   c-0.3,0.5-0.9,1-1.5,1.4l-0.6,0.4L581.8,71.2z"/>
  <path fill="#FFFFFF" d="M582.5,70.7c-1.1-1.4-2.6-2.2-4.1-2.4c-0.2-0.4-0.3-0.9-0.2-1.3c0.1-0.7,0.4-1.3,0.8-1.9   c0.4-0.5,0.7-0.6,1.3-0.4c0.5,0.2,1,0.4,1.5,0.8c0.6,0.5,1.2,1,1.8,1.5c0.8,0.8,0.8,1.6,0.2,2.5C583.4,69.9,583,70.4,582.5,70.7z"/>
  <path fill="#333333" d="M583.8,67.7c-1.3-1.6-2.6-2.5-4.1-2.9l-0.5-0.1l-0.1-0.5c-0.3-1.5,0.4-3,1.7-3.7c0.4-0.2,0.8-0.3,1.3-0.3   c0.4,0,0.9,0.1,1.3,0.4c0.3,0.2,0.7,0.4,1.1,0.8c0.3,0.2,0.4,0.5,0.5,0.9c0.1,0.7,0.5,1.1,1.2,1.3l0.5,0.1l0.1,0.5   c0.2,1.8-0.4,3-1.9,3.8l-0.6,0.3L583.8,67.7z"/>
  <path fill="#FFFFFF" d="M585.8,64.3c0.2,1.4-0.2,2.3-1.4,2.9c-1.2-1.5-2.6-2.7-4.5-3.2c-0.2-1.2,0.3-2.3,1.2-2.8   c0.6-0.3,1.2-0.3,1.8,0c0.3,0.2,0.6,0.4,0.9,0.7c0.1,0.1,0.2,0.3,0.2,0.4C584.3,63.3,584.8,64,585.8,64.3z"/>
  <path fill="#333333" d="M581.3,75.1c-2.4,0-3.6-1.4-4.2-2.1c-0.1-0.1-0.2-0.3-0.3-0.3l-0.1-0.1l-0.1-0.1c-0.3-0.6-0.4-1.2-0.3-1.8   l0-0.1c0.1-0.7,0.2-1.3,0.7-2c0.3-0.4,0.7-0.6,1.2-0.6c0.4,0,0.9,0.2,1.2,0.3l0.1,0c0.7,0.3,1.2,0.5,1.6,0.9   c0.1,0.1,0.3,0.2,0.4,0.3c0.6,0.4,1.2,0.8,1.6,1.5c0.6,1,0.6,2.2,0.2,2.9l-0.1,0.1c-0.3,0.5-0.8,1.2-1.7,1.2   C581.5,75.1,581.4,75.1,581.3,75.1z"/>
  <path fill="#FFFFFF" d="M581.6,74.2c-2.6,0.1-3.6-1.7-4.2-2.2c-0.2-0.4-0.3-0.9-0.2-1.3c0.1-0.7,0.1-1.2,0.6-1.7c0.4-0.5,1-0.2,1.6,0   c0.5,0.2,1,0.4,1.5,0.8c0.6,0.5,1.4,0.8,1.8,1.5c0.5,0.8,0.5,1.6,0.2,2C582.4,73.6,582.1,74.2,581.6,74.2z"/>
  <path fill="#FFFFFF" d="M591.5,66.5c0-5-2.1-3.8-2.2-3.7c-0.3,0.2-0.3,0.2-0.6,0.4c-0.5,0.3-1.4,0.6-1.9,0.6c-0.8,0-1.9-0.6-2.1-1.4   l0,0c0.1-0.6,0.4-1.3,0.8-1.8c0.9-1.1,1.9-2.2,2.9-3.2c0.6-0.7,1.2-0.7,2-0.3c1.2,0.6,2.5,1.6,3.3,2.6"/>
  <rect fill="none" width="756" height="178"/>
  <path fill="#F3F3F3" d="M278,164.1c-3.5,0-6.4-0.5-8.7-1.5c-2.3-1-4-2.3-5.2-3.9c-1.2-1.6-1.8-3.3-1.9-5.1c0-0.3,0.1-0.5,0.3-0.8    c0.2-0.2,0.5-0.3,0.8-0.3h6.6c0.5,0,0.9,0.1,1.1,0.3c0.3,0.2,0.5,0.4,0.7,0.7c0.3,0.5,0.7,1,1.2,1.5c0.5,0.5,1.2,0.9,2,1.2    c0.8,0.3,1.8,0.4,3,0.4c2,0,3.5-0.3,4.6-0.9c1-0.6,1.5-1.5,1.5-2.6c0-0.8-0.3-1.4-0.8-1.9c-0.6-0.5-1.5-1-2.7-1.4    c-1.2-0.4-2.9-0.8-4.9-1.2c-2.6-0.6-4.9-1.3-6.8-2.2c-1.9-0.9-3.3-2.1-4.2-3.5c-1-1.4-1.5-3.2-1.5-5.4c0-2.1,0.6-4,1.8-5.7    c1.2-1.7,2.9-3,5-3.9c2.2-0.9,4.7-1.4,7.7-1.4c2.4,0,4.5,0.3,6.3,0.9s3.4,1.5,4.6,2.5c1.3,1,2.2,2.1,2.8,3.3c0.6,1.2,1,2.3,1,3.4    c0,0.3-0.1,0.5-0.3,0.8c-0.2,0.2-0.5,0.3-0.8,0.3h-6.9c-0.4,0-0.7-0.1-1-0.2c-0.3-0.1-0.5-0.4-0.7-0.7c-0.2-0.8-0.8-1.4-1.6-2    c-0.9-0.6-2-0.9-3.5-0.9c-1.5,0-2.7,0.3-3.6,0.8c-0.9,0.5-1.3,1.4-1.3,2.5c0,0.7,0.2,1.3,0.7,1.8c0.5,0.5,1.3,1,2.3,1.4    c1.1,0.4,2.6,0.8,4.5,1.2c3.2,0.6,5.7,1.3,7.7,2.2c1.9,0.9,3.4,2,4.3,3.4c0.9,1.4,1.4,3.2,1.4,5.3c0,2.4-0.7,4.4-2,6.1    c-1.3,1.7-3.2,3-5.6,3.9C283.8,163.6,281.1,164.1,278,164.1z"/>
  <path fill="#F3F3F3" d="M308.3,164.1c-2,0-3.7-0.5-5.3-1.4c-1.5-0.9-2.8-2.2-3.6-4c-0.9-1.8-1.3-3.9-1.3-6.4v-14.5    c0-0.4,0.1-0.7,0.4-0.9c0.2-0.2,0.6-0.4,0.9-0.4h6.5c0.4,0,0.7,0.1,0.9,0.4c0.2,0.2,0.4,0.6,0.4,0.9V152c0,3.4,1.5,5.1,4.6,5.1    c1.4,0,2.6-0.4,3.4-1.3c0.9-0.9,1.3-2.1,1.3-3.8v-14.2c0-0.4,0.1-0.7,0.4-0.9c0.2-0.2,0.6-0.4,0.9-0.4h6.5c0.4,0,0.7,0.1,0.9,0.4    c0.2,0.2,0.4,0.6,0.4,0.9v24.5c0,0.4-0.1,0.7-0.4,0.9c-0.2,0.2-0.6,0.4-0.9,0.4h-6c-0.3,0-0.7-0.1-0.9-0.4    c-0.3-0.2-0.4-0.6-0.4-0.9v-2c-0.9,1.3-2.1,2.2-3.5,2.8C312,163.8,310.3,164.1,308.3,164.1z"/>
  <path fill="#F3F3F3" d="M344.2,164.1c-2.6,0-4.8-0.5-6.8-1.4c-2-0.9-3.6-2.3-4.7-4.1c-1.2-1.8-1.8-3.9-1.9-6.4    c0-0.6-0.1-1.3-0.1-2.1c0-0.9,0-1.6,0.1-2.1c0.1-2.5,0.7-4.7,1.9-6.5c1.1-1.8,2.7-3.2,4.7-4.1c2-0.9,4.3-1.4,6.9-1.4    c2.4,0,4.4,0.3,6.2,1c1.7,0.7,3.1,1.5,4.2,2.5c1.1,1,1.9,2,2.4,3.1c0.5,1.1,0.8,2,0.9,2.8c0,0.3-0.1,0.7-0.4,0.9    c-0.3,0.3-0.6,0.4-0.9,0.4h-6.6c-0.4,0-0.7-0.1-0.9-0.3c-0.2-0.2-0.4-0.4-0.6-0.8c-0.4-1.1-0.9-1.8-1.6-2.3    c-0.6-0.5-1.5-0.7-2.5-0.7c-1.4,0-2.5,0.5-3.2,1.4c-0.7,0.9-1.2,2.3-1.2,4.2c0,1.4,0,2.6,0,3.7c0.1,1.9,0.5,3.3,1.2,4.2    c0.7,0.9,1.8,1.3,3.2,1.3c1.1,0,1.9-0.2,2.6-0.7c0.6-0.5,1.1-1.2,1.5-2.3c0.2-0.3,0.4-0.6,0.6-0.8c0.2-0.2,0.5-0.3,0.9-0.3h6.6    c0.3,0,0.7,0.1,0.9,0.4c0.3,0.3,0.4,0.6,0.4,0.9c0,0.6-0.2,1.3-0.5,2.1c-0.3,0.8-0.8,1.6-1.5,2.5c-0.7,0.9-1.5,1.7-2.6,2.4    c-1.1,0.7-2.3,1.3-3.8,1.8C348,163.9,346.2,164.1,344.2,164.1z"/>
  <path fill="#F3F3F3" d="M375,164.1c-2.6,0-4.8-0.5-6.8-1.4c-2-0.9-3.6-2.3-4.7-4.1c-1.2-1.8-1.8-3.9-1.9-6.4c0-0.6-0.1-1.3-0.1-2.1    c0-0.9,0-1.6,0.1-2.1c0.1-2.5,0.7-4.7,1.9-6.5c1.1-1.8,2.7-3.2,4.7-4.1c2-0.9,4.3-1.4,6.9-1.4c2.4,0,4.4,0.3,6.2,1    c1.7,0.7,3.1,1.5,4.2,2.5c1.1,1,1.9,2,2.4,3.1c0.5,1.1,0.8,2,0.9,2.8c0,0.3-0.1,0.7-0.4,0.9c-0.3,0.3-0.6,0.4-0.9,0.4h-6.6    c-0.4,0-0.7-0.1-0.9-0.3c-0.2-0.2-0.4-0.4-0.6-0.8c-0.4-1.1-0.9-1.8-1.6-2.3c-0.6-0.5-1.5-0.7-2.5-0.7c-1.4,0-2.5,0.5-3.2,1.4    c-0.7,0.9-1.2,2.3-1.2,4.2c0,1.4,0,2.6,0,3.7c0.1,1.9,0.5,3.3,1.2,4.2c0.7,0.9,1.8,1.3,3.2,1.3c1.1,0,1.9-0.2,2.6-0.7    c0.6-0.5,1.1-1.2,1.5-2.3c0.2-0.3,0.4-0.6,0.6-0.8c0.2-0.2,0.5-0.3,0.9-0.3h6.6c0.3,0,0.7,0.1,0.9,0.4c0.3,0.3,0.4,0.6,0.4,0.9    c0,0.6-0.2,1.3-0.5,2.1c-0.3,0.8-0.8,1.6-1.5,2.5c-0.7,0.9-1.5,1.7-2.6,2.4c-1.1,0.7-2.3,1.3-3.8,1.8    C378.7,163.9,377,164.1,375,164.1z"/>
  <path fill="#F3F3F3" d="M405.8,164.1c-4.1,0-7.4-1.1-9.8-3.3c-2.4-2.2-3.7-5.5-3.8-9.9c0-0.2,0-0.6,0-0.9c0-0.4,0-0.7,0-0.9    c0.1-2.7,0.7-5.1,1.9-7.1c1.1-2,2.7-3.5,4.7-4.5c2-1,4.3-1.5,7-1.5c3.1,0,5.6,0.6,7.6,1.8c2,1.2,3.5,2.9,4.5,5    c1,2.1,1.5,4.5,1.5,7.1v1.3c0,0.4-0.1,0.7-0.4,0.9c-0.3,0.2-0.6,0.4-0.9,0.4h-16.7c0,0,0,0.1,0,0.2c0,0.1,0,0.1,0,0.2    c0,1,0.2,1.9,0.5,2.8c0.3,0.8,0.8,1.5,1.5,2c0.7,0.5,1.5,0.7,2.4,0.7c0.7,0,1.3-0.1,1.7-0.3c0.5-0.2,0.9-0.5,1.2-0.8    c0.3-0.3,0.6-0.5,0.7-0.8c0.3-0.3,0.6-0.6,0.8-0.7c0.2-0.1,0.5-0.1,0.9-0.1h6.5c0.3,0,0.6,0.1,0.9,0.3c0.2,0.2,0.3,0.5,0.3,0.8    c0,0.6-0.3,1.3-0.9,2.1c-0.6,0.8-1.4,1.7-2.4,2.5c-1.1,0.8-2.4,1.5-4,2C409.8,163.8,407.9,164.1,405.8,164.1z M401.4,147.2h8.8    v-0.1c0-1.1-0.2-2.1-0.5-2.9c-0.3-0.8-0.8-1.5-1.5-1.9c-0.7-0.5-1.5-0.7-2.4-0.7c-0.9,0-1.7,0.2-2.4,0.7c-0.6,0.5-1.1,1.1-1.5,1.9    c-0.3,0.8-0.5,1.8-0.5,2.9V147.2z"/>
  <path fill="#F3F3F3" d="M435.4,164.1c-2.3,0-4.2-0.3-5.8-0.8c-1.6-0.5-2.9-1.1-3.9-1.9c-1-0.7-1.7-1.5-2.2-2.3    c-0.5-0.8-0.7-1.5-0.8-2c0-0.4,0.1-0.7,0.4-1c0.3-0.3,0.6-0.4,0.9-0.4h5.9c0.1,0,0.2,0,0.3,0.1c0.1,0,0.2,0.1,0.3,0.2    c0.5,0.2,0.9,0.5,1.4,0.9c0.5,0.4,1,0.7,1.6,1c0.6,0.3,1.3,0.4,2.1,0.4c1,0,1.8-0.2,2.5-0.6c0.7-0.4,1-1,1-1.7    c0-0.6-0.2-1-0.5-1.4c-0.3-0.4-0.9-0.7-1.9-1.1c-1-0.3-2.4-0.7-4.3-1c-1.8-0.4-3.4-1-4.7-1.6c-1.4-0.7-2.4-1.6-3.1-2.7    c-0.7-1.1-1.1-2.4-1.1-4c0-1.4,0.5-2.7,1.4-4c0.9-1.3,2.2-2.3,4-3.2c1.7-0.8,3.9-1.2,6.4-1.2c2,0,3.8,0.2,5.2,0.7    c1.5,0.5,2.7,1.1,3.8,1.8c1,0.7,1.8,1.5,2.3,2.2c0.5,0.8,0.8,1.5,0.8,2.1c0,0.3-0.1,0.7-0.3,0.9c-0.2,0.3-0.5,0.4-0.8,0.4h-5.4    c-0.1,0-0.3,0-0.4-0.1c-0.1-0.1-0.3-0.1-0.4-0.2c-0.4-0.2-0.8-0.5-1.3-0.8c-0.4-0.3-0.9-0.7-1.5-0.9c-0.6-0.3-1.3-0.4-2.1-0.4    c-0.9,0-1.7,0.2-2.2,0.6c-0.5,0.4-0.8,1-0.8,1.6c0,0.5,0.1,0.9,0.4,1.3c0.3,0.4,0.9,0.7,1.8,1c0.9,0.3,2.4,0.7,4.3,1    c2.4,0.4,4.3,1,5.7,1.9c1.4,0.9,2.4,1.8,3,3c0.6,1.1,0.9,2.3,0.9,3.6c0,1.7-0.5,3.1-1.5,4.4c-1,1.3-2.5,2.3-4.4,3    C440.6,163.7,438.2,164.1,435.4,164.1z"/>
  <path fill="#F3F3F3" d="M464.3,164.1c-2.3,0-4.2-0.3-5.8-0.8c-1.6-0.5-2.9-1.1-3.9-1.9c-1-0.7-1.7-1.5-2.2-2.3    c-0.5-0.8-0.7-1.5-0.8-2c0-0.4,0.1-0.7,0.4-1c0.3-0.3,0.6-0.4,0.9-0.4h5.9c0.1,0,0.2,0,0.3,0.1c0.1,0,0.2,0.1,0.3,0.2    c0.5,0.2,0.9,0.5,1.4,0.9c0.5,0.4,1,0.7,1.6,1c0.6,0.3,1.3,0.4,2.1,0.4c1,0,1.8-0.2,2.5-0.6c0.7-0.4,1-1,1-1.7    c0-0.6-0.2-1-0.5-1.4c-0.3-0.4-0.9-0.7-1.9-1.1c-1-0.3-2.4-0.7-4.3-1c-1.8-0.4-3.4-1-4.7-1.6c-1.4-0.7-2.4-1.6-3.1-2.7    c-0.7-1.1-1.1-2.4-1.1-4c0-1.4,0.5-2.7,1.4-4c0.9-1.3,2.2-2.3,4-3.2c1.7-0.8,3.9-1.2,6.4-1.2c2,0,3.8,0.2,5.2,0.7    c1.5,0.5,2.7,1.1,3.8,1.8c1,0.7,1.8,1.5,2.3,2.2c0.5,0.8,0.8,1.5,0.8,2.1c0,0.3-0.1,0.7-0.3,0.9c-0.2,0.3-0.5,0.4-0.8,0.4h-5.4    c-0.1,0-0.3,0-0.4-0.1c-0.1-0.1-0.3-0.1-0.4-0.2c-0.4-0.2-0.8-0.5-1.3-0.8c-0.4-0.3-0.9-0.7-1.5-0.9c-0.6-0.3-1.3-0.4-2.1-0.4    c-0.9,0-1.7,0.2-2.2,0.6c-0.5,0.4-0.8,1-0.8,1.6c0,0.5,0.1,0.9,0.4,1.3c0.3,0.4,0.9,0.7,1.8,1c0.9,0.3,2.4,0.7,4.3,1    c2.4,0.4,4.3,1,5.7,1.9c1.4,0.9,2.4,1.8,3,3c0.6,1.1,0.9,2.3,0.9,3.6c0,1.7-0.5,3.1-1.5,4.4c-1,1.3-2.5,2.3-4.4,3    C469.4,163.7,467,164.1,464.3,164.1z"/>
  <path fill="#F3F3F3" d="M483,163.6c-0.4,0-0.7-0.1-0.9-0.4c-0.2-0.2-0.4-0.6-0.4-0.9v-6.6c0-0.3,0.1-0.7,0.4-0.9    c0.2-0.3,0.6-0.4,0.9-0.4h6.6c0.4,0,0.7,0.1,1,0.4c0.3,0.3,0.4,0.6,0.4,0.9v6.6c0,0.4-0.1,0.7-0.4,0.9c-0.3,0.2-0.6,0.4-1,0.4H483    z"/>
</svg>
