<svg xmlns="http://www.w3.org/2000/svg" version="1.1" x="0px" y="0px" viewBox="0 0 757.1 178" style="enable-background:new 0 0 757.1 178;">
  <path d="M606.1,79.6c1.8,0.7,3.5,1.3,5.3,1.8c2.1,0.6,4.2,0.9,6.4,0.6c0.7-0.1,1.4-0.3,2.1-0.5c1.8-0.8,3.5-1.7,5.3-2.6      c3.1-1.6,6.2-3.3,9.3-4.9c0.8-0.4,1.7-0.8,2.6-0.7c0.4,0,0.8,0.1,1.2,0.3c0.7,0.3,1.2,0.8,1.3,1.7c0.1,0.9-0.3,1.5-1,2      c-0.9,0.6-1.8,1.2-2.8,1.7c-2.7,1.4-5.3,2.8-8,4.1c-1.6,0.8-3.3,1.6-5,2.2c-1.9,0.8-4,1.3-6.1,1.5c-1,0.1-2,0-3-0.2      c-1.9-0.3-3.7-0.8-5.5-1.3l-2.8-0.9 M612.8,85.7c2.1,0.5,4.2,0.5,6.3,0c2.5-0.6,4.8-1.5,7.1-2.6c2.2-1.1,4.5-2.2,6.7-3.3      c1.8-0.9,3.5-1.8,5.2-2.9c0.2-0.1,0.4-0.3,0.6-0.5c0.7-0.8,0.6-1.9-0.4-2.4c-0.5-0.3-1.1-0.4-1.7-0.3c-0.7,0.1-1.3,0.3-1.9,0.7      c-2.8,1.5-5.6,3-8.4,4.5c-2,1.1-4.1,2.1-6.1,3.1c-0.7,0.3-1.4,0.5-2.2,0.6c-1.3,0.2-2.5,0.1-3.8,0c-2.3-0.3-4.6-1-6.8-1.8"/>
  <path d="M616.1,87.8c-0.9,0-1.7-0.1-2.5-0.2c-2.1-0.3-4.2-0.9-5.7-1.3l-2.8-0.9c-0.6-0.2-0.9-0.8-0.7-1.4      c0.2-0.6,0.8-0.9,1.4-0.7l2.8,0.9c0.9,0.3,2.1,0.6,3.3,0.9c0.3-0.3,0.7-0.5,1.1-0.4c2.1,0.5,4,0.5,5.8,0      c2.3-0.5,4.5-1.4,6.9-2.5c1.2-0.6,2.4-1.2,3.6-1.8c1-0.5,2.1-1,3.1-1.6c1.5-0.8,3.3-1.7,5.1-2.8c0.2-0.1,0.3-0.2,0.4-0.3      c0.1-0.1,0.2-0.2,0.1-0.3c0-0.1-0.1-0.2-0.2-0.3c-0.3-0.2-0.6-0.2-1-0.1c-0.5,0.1-0.9,0.2-1.5,0.5c-0.7,0.4-1.5,0.8-2.2,1.2      c-2,1.1-4.1,2.2-6.2,3.3c-2.2,1.1-4.2,2.2-6.2,3.1c-0.9,0.4-1.8,0.6-2.5,0.7c-1.2,0.2-2.5,0.2-4.1,0c-2.2-0.3-4.5-0.9-7.1-1.9      c-0.4-0.2-0.7-0.5-0.7-0.9c-0.2-0.1-0.5-0.2-0.7-0.3c-0.6-0.2-0.9-0.9-0.6-1.4c0.2-0.6,0.9-0.9,1.4-0.6c1.4,0.5,3.3,1.2,5.2,1.8      c2.4,0.7,4.2,0.8,6,0.6c0.5-0.1,1.2-0.2,1.8-0.5c1.7-0.8,3.4-1.6,5.2-2.6c2.2-1.2,4.5-2.4,6.6-3.5c0.9-0.5,1.7-0.9,2.6-1.4      c0.8-0.4,1.9-0.9,3.2-0.8c0.5,0,1.1,0.2,1.5,0.3c1.1,0.5,1.8,1.4,2,2.5c0.1,1.2-0.4,2.3-1.5,3c-0.8,0.6-1.8,1.2-2.9,1.8      c-3.1,1.6-5.6,3-8,4.1c-1.6,0.8-3.3,1.6-5.1,2.3c-2.1,0.9-4.3,1.4-6.4,1.5C616.6,87.8,616.3,87.8,616.1,87.8z"/>
  <path d="M607.5,80.8c2.2,0.8,4.5,1.5,6.8,1.8c1.3,0.2,2.5,0.2,3.8,0c0.7-0.1,1.5-0.3,2.2-0.6c2.1-1,4.1-2,6.1-3.1      c2.8-1.5,5.6-3,8.4-4.5c0.6-0.3,1.2-0.6,1.9-0.7c0.6-0.1,1.1,0,1.7,0.3c0.9,0.5,1.1,1.6,0.4,2.4c-0.2,0.2-0.4,0.3-0.6,0.5      c-1.7,1.1-3.4,2-5.2,2.9c-2.2,1.1-4.5,2.2-6.7,3.3c-2.3,1.1-4.6,2-7.1,2.6c-2.1,0.5-4.2,0.4-6.3,0"/>
  <path d="M616,87.2c-1.1,0-2.3-0.1-3.5-0.4c-0.6-0.1-1-0.7-0.8-1.3c0.1-0.6,0.7-1,1.3-0.8c2.1,0.5,4,0.5,5.8,0      c2.3-0.5,4.5-1.4,6.9-2.5c1.2-0.6,2.4-1.2,3.6-1.8c1-0.5,2.1-1,3.1-1.6c1.5-0.8,3.3-1.7,5.1-2.8c0.2-0.1,0.3-0.2,0.4-0.3      c0.1-0.1,0.2-0.2,0.1-0.3c0-0.1-0.1-0.2-0.2-0.3c-0.3-0.2-0.6-0.2-1-0.1c-0.5,0.1-0.9,0.2-1.5,0.5c-0.7,0.4-1.5,0.8-2.2,1.2      c-2,1.1-4.1,2.2-6.2,3.3c-2.2,1.1-4.2,2.2-6.2,3.1c-0.9,0.4-1.8,0.6-2.5,0.7c-1.2,0.2-2.5,0.2-4.1,0c-2.2-0.3-4.5-0.9-7.1-1.9      c-0.6-0.2-0.9-0.9-0.6-1.4c0.2-0.6,0.9-0.9,1.4-0.6c2.4,0.9,4.5,1.5,6.5,1.7c1.4,0.2,2.5,0.2,3.5,0c0.5-0.1,1.3-0.2,1.9-0.5      c1.9-0.9,3.9-1.9,6.1-3c2.1-1.1,4.1-2.2,6.2-3.3c0.7-0.4,1.5-0.8,2.2-1.2c0.5-0.3,1.3-0.7,2.3-0.8c0.9-0.1,1.6,0,2.3,0.4      c0.7,0.4,1.2,1.1,1.4,1.9c0.1,0.8-0.1,1.6-0.7,2.2c-0.3,0.3-0.6,0.5-0.8,0.6c-1.8,1.2-3.7,2.2-5.3,2.9c-1,0.5-2.1,1-3.1,1.5      c-1.2,0.6-2.4,1.2-3.6,1.8c-2.5,1.2-4.9,2.1-7.4,2.7C618.2,87,617.1,87.2,616,87.2z"/>
  <path d="M617.6,86.4c0,0-3.5,1.5-12.2-2c-3.7-2.2-7.2-4.5-10.7-7c-0.1-0.1-0.3-0.2-0.4-0.3c-0.5,0.4-0.9,0.8-1.3,1.2      c-0.5,0.4-1,0.8-1.6,1.1c-1.3,0.7-2.1,0.5-2.9-0.8c0-0.1-0.1-0.1-0.1-0.2c-0.1,0.1-0.2,0.1-0.3,0.1c-1,0.6-2,0.6-3,0.3      c-1.8-0.5-3.4-1.3-5-2.3c-0.7-0.5-1.4-0.9-2-1.5c-1.4-1.2-1.9-3.3-1.3-5c0.2-0.5,0.6-0.9,1.1-1.2c-0.5-1.8,0.1-3.2,1.5-4.5      c0-0.7,0-1.5,0.5-2.2c0.5-0.7,1.1-1.2,2-1.3c0.3-1.1,0.6-2.1,1.7-2.6c1-0.5,2-0.4,3,0.3c0.3-0.3,0.5-0.6,0.8-0.9      c0.3-0.3,0.6-0.6,0.9-0.8c0.6-0.5,1.3-0.6,2-0.3c0.6,0.3,1.2,0.6,1.7,1c1.3,0.9,2.3,2.1,3.2,3.4c0.7,1.1,1,2.2,1,3.5      c0,0.1,0,0.2,0,0.3c1.2,0.2,1.7,1.1,2.1,2.2c0.3,0.9,0.3,1.8,0.1,2.7c-0.1,0.9-0.4,1.8-0.8,2.6c-0.1,0.2-0.1,0.3-0.2,0.5       M595.3,67.5c-0.1,0-0.1,0-0.2-0.1c0-0.2,0.1-0.4,0.1-0.6c0.1-0.6,0.3-1.2,0.3-1.9c0.2-1.3,0-2.5-0.7-3.6      c-0.4-0.6-0.9-1.3-1.4-1.9c-0.8-1-1.8-1.8-3-2.3c-0.8-0.4-1.4-0.3-2,0.3c-1,1.1-2,2.1-2.9,3.2c-0.3,0.3-0.5,0.8-0.6,1.2      c-0.2,0.7,0,1.2,0.5,1.7c0.5,0.4,1,0.4,1.5,0.1c0.5-0.3,1-0.6,1.5-0.9c0.3-0.2,0.6-0.5,0.9-0.7c0.1-0.1,0.3,0,0.4-0.1      c0,0.2,0,0.3,0,0.4c-0.1,0.1-0.2,0.2-0.3,0.3c-0.9,0.8-1.8,1.4-3,1.8c0.3,1.6-0.6,2.6-1.7,3.4c0.2,1.7-0.7,2.7-1.9,3.6      c0.2,1.5-0.1,2.2-1.3,2.6c-0.9,0.3-2,0.1-2.3-0.5c0.2,0,0.3,0.1,0.5,0.1c0.4,0,0.9,0.1,1.3,0c1.4-0.3,1.8-1.3,0.9-2.5      c-0.7-1-1.8-1.7-3-1.9c-0.8-0.2-1.3,0.2-1.6,0.9c-0.4,1.3-0.3,3.2,1.2,4.3c0.5,0.4,1,0.8,1.5,1.1c1.6,1,3.2,1.9,5.1,2.4      c1.1,0.3,2.1,0.2,3-0.5c0.5-0.4,1.1-0.7,1.6-1.1c0.2-0.1,0.5-0.4,0.6-0.1c0.2,0.3-0.1,0.4-0.3,0.6c-0.4,0.3-0.9,0.7-1.3,1      c0.4,1.1,1.1,1.5,2,1c0.4-0.2,0.8-0.4,1.2-0.7c1.7-1.3,3.1-2.9,4.3-4.8c0.8-1.3,1.5-2.8,1.6-4.4c0.1-1,0-2-0.5-3      c-0.3-0.5-0.6-0.8-1.2-0.9C596,66.1,595.9,66.9,595.3,67.5z M600.7,75.8c-1.2-0.8-2.3-1.7-3.5-2.5c-0.8,1.1-1.5,2.1-2.3,3.2      c0.1,0.1,0.2,0.2,0.2,0.2c1.8,1.3,3.7,2.6,5.6,3.8 M582.6,71c0.6-0.3,1-0.7,1.3-1.2c0.6-1,0.6-1.7-0.2-2.5      c-0.5-0.6-1.1-1.1-1.8-1.5c-0.4-0.3-0.9-0.6-1.5-0.8c-0.6-0.2-1-0.1-1.3,0.4c-0.4,0.6-0.7,1.2-0.8,1.9c-0.1,0.5,0,0.9,0.2,1.3      C579.9,68.8,581.5,69.6,582.6,71z M585.9,64.6c-1-0.3-1.6-0.9-1.8-2c0-0.1-0.1-0.3-0.2-0.4c-0.3-0.2-0.6-0.5-0.9-0.7      c-0.6-0.3-1.2-0.3-1.8,0c-0.9,0.5-1.4,1.6-1.2,2.8c1.9,0.5,3.3,1.7,4.5,3.2C585.7,66.9,586.1,66,585.9,64.6z M582.4,60.6      c0.6,0.4,1.2,0.7,1.8,1c0.4-1.1,1.2-1.8,1.9-2.7C584.6,57.8,582.9,58.7,582.4,60.6z"/>
  <path d="M615.2,87.8c-2.1,0-5.4-0.5-10.2-2.4c-0.1,0-0.1,0-0.1-0.1c-3.8-2.2-7.2-4.5-10.4-6.8c-0.2,0.2-0.5,0.4-0.8,0.7      c-0.5,0.4-1.1,0.8-1.7,1.2c-1.5,0.9-2.9,0.7-3.9-0.5c-1,0.4-2,0.4-3.2,0.1c-1.8-0.5-3.5-1.3-5.3-2.4c-0.7-0.5-1.5-1-2.1-1.5      c-1.8-1.5-2.5-4.1-1.6-6.3c0.2-0.5,0.5-0.9,0.9-1.3c-0.2-1.6,0.3-3.1,1.7-4.5c0-0.7,0.1-1.5,0.6-2.3c0.5-0.8,1.2-1.3,2-1.6      c0.3-1,0.9-2.1,2.1-2.7c1.1-0.5,2.2-0.5,3.2-0.1c0.1-0.1,0.2-0.2,0.3-0.3c0.3-0.3,0.6-0.6,1-0.9c0.9-0.8,2.1-1,3.2-0.5      c0.7,0.3,1.3,0.7,1.9,1.1c1.3,1,2.5,2.2,3.5,3.7c0.7,1.1,1.1,2.3,1.2,3.6c1.2,0.6,1.7,1.8,2,2.6c0.3,1,0.4,2,0.2,3.2      c-0.2,1-0.4,2-0.9,2.9c0,0.1-0.1,0.2-0.1,0.3c0.1,0.1,0.2,0.2,0.4,0.3c0.8,0.6,1.6,1.2,2.4,1.7c0.5,0.3,0.6,1,0.3,1.5      c-0.3,0.5-1,0.6-1.5,0.3c-0.8-0.6-1.7-1.2-2.5-1.8c-0.1,0-0.1-0.1-0.2-0.1l-1,1.4c0.3,0.2,0.7,0.5,1,0.7      c1.3,0.9,2.6,1.8,3.9,2.7c0.4,0.3,0.6,0.7,0.5,1.2c1.3,0.8,2.7,1.7,4.1,2.5c8,3.2,11.2,2,11.3,2c0.6-0.2,1.2,0,1.4,0.6      c0.2,0.6,0,1.2-0.6,1.5C617.9,87.5,617,87.8,615.2,87.8z M590.3,75.2c0.6,0,1,0.5,1.1,0.6c0.2,0.3,0.3,0.7,0.2,1      c-0.1,0.3-0.2,0.5-0.4,0.7c0,0,0.1-0.1,0.1-0.1c1.6-1.2,2.9-2.6,4-4.4c0.9-1.4,1.3-2.7,1.5-3.9c0.1-0.6,0-1.2-0.1-1.7      c-0.1,0.3-0.3,0.6-0.6,0.8c-0.3,0.3-0.7,0.4-1.2,0.3l-0.2-0.1c-0.5-0.2-0.8-0.7-0.8-1.2l0-0.2c0-0.2,0-0.3,0.1-0.5      c0-0.2,0.1-0.4,0.1-0.7c0.1-0.4,0.2-0.8,0.2-1.1c0.1-1.1,0-2-0.6-2.8c-0.5-0.7-0.9-1.3-1.3-1.7c-0.9-1-1.7-1.6-2.6-2.1      c-0.4-0.2-0.4-0.2-0.7,0.1c-1,1-1.9,2.1-2.9,3.2c-0.2,0.2-0.3,0.5-0.4,0.8c0,0.1-0.1,0.3,0.2,0.5c0,0,0,0,0,0c0,0,0.1,0,0.2-0.1      c0.5-0.2,1-0.6,1.4-0.8c0.1-0.1,0.2-0.2,0.4-0.3c0.2-0.1,0.3-0.3,0.5-0.4c0.4-0.2,0.7-0.2,0.9-0.2l0,0c0.3,0,0.6,0.1,0.9,0.3      c0.2,0.2,0.3,0.6,0.3,0.9c0,0,0,0,0,0.1c0,0.2,0,0.4-0.1,0.7c-0.1,0.3-0.4,0.5-0.5,0.7l0,0c-0.8,0.8-1.7,1.3-2.6,1.7      c0,1.5-0.9,2.5-1.8,3.2c0,1.8-1.1,3-1.9,3.6c0.1,1.2-0.3,2.5-2.1,3.1c-0.1,0-0.2,0.1-0.3,0.1c1.4,0.8,2.6,1.4,3.9,1.7      c0.8,0.2,1.4,0.1,2-0.3c0.4-0.3,0.9-0.6,1.3-0.9l0.4-0.3C589.7,75.3,590,75.2,590.3,75.2z M580.2,73.1L580.2,73.1z M578.5,70.4      c0,0,0,0.1-0.1,0.2c-0.1,0.3-0.3,1.3,0.1,2.2c0.3-0.2,0.6-0.3,0.9-0.2c0.1,0,0.1,0,0.2,0.1c0,0,0.1,0,0.1,0c0.1,0,0.2,0,0.3,0      c0.3,0,0.5,0,0.6,0c0.4-0.1,0.5-0.2,0.5-0.2c0,0,0-0.2-0.2-0.5c-0.6-0.8-1.4-1.3-2.4-1.5C578.6,70.4,578.5,70.4,578.5,70.4      L578.5,70.4z M579.8,72.6C579.8,72.6,579.8,72.6,579.8,72.6C579.8,72.6,579.8,72.6,579.8,72.6z M579.3,67.7      c1.2,0.3,2.4,0.9,3.4,1.8c0.1-0.1,0.2-0.2,0.2-0.3c0.4-0.6,0.3-0.7-0.1-1.2c-0.4-0.5-1-0.9-1.6-1.4c-0.3-0.2-0.7-0.4-1.2-0.6      c0,0,0,0,0,0c0,0,0,0,0,0c-0.3,0.4-0.5,0.9-0.6,1.4C579.3,67.6,579.3,67.6,579.3,67.7z M581.1,63.5c1.3,0.5,2.5,1.3,3.6,2.5      c0.1-0.2,0.2-0.4,0.2-0.6c-0.9-0.5-1.5-1.3-1.8-2.4c-0.3-0.2-0.5-0.3-0.7-0.5c-0.2-0.1-0.4-0.2-0.7,0      C581.4,62.7,581.2,63.1,581.1,63.5z M583.1,62.9C583.1,62.9,583.1,62.9,583.1,62.9C583.1,62.9,583.1,62.9,583.1,62.9z"/>
  <path d="M608.2,80.7l-7.5-4.9c-1.2-0.8-2.3-1.7-3.5-2.5c-0.8,1.1-1.5,2.1-2.3,3.2c0.1,0.1,0.2,0.2,0.2,0.2      c1.8,1.3,3.7,2.6,5.6,3.8l6.2,4l2.2-1.4L608.2,80.7z"/>
  <path d="M606.9,85.6c-0.2,0-0.4-0.1-0.6-0.2l-6.2-4c-1.3-0.9-2.7-1.8-4-2.7c-0.5-0.4-1.1-0.8-1.6-1.1c-0.1-0.1-0.2-0.2-0.3-0.3      l0,0c-0.4-0.4-0.5-1-0.2-1.5l2.3-3.2c0.2-0.2,0.4-0.4,0.7-0.4c0.3,0,0.6,0,0.8,0.2c0.4,0.3,0.7,0.5,1.1,0.8      c0.8,0.6,1.6,1.2,2.4,1.7l7.4,4.9c0.2,0.1,0.3,0.3,0.4,0.5l0.9,2.4c0.2,0.5,0,1-0.4,1.3l-2.2,1.4      C607.3,85.6,607.1,85.6,606.9,85.6z M596.4,76.3c0.3,0.2,0.7,0.5,1,0.7c1.3,0.9,2.6,1.8,3.9,2.7l5.6,3.6l0.8-0.5l-0.5-1.2      l-7.2-4.7c-0.9-0.6-1.7-1.2-2.5-1.8c-0.1,0-0.1-0.1-0.2-0.1L596.4,76.3z"/>
  <path fill="#FFFFFF" d="M595.3,67.5c0.5-0.6,0.7-1.4,0.9-2.1c0.6,0.1,0.9,0.4,1.2,0.9c0.5,0.9,0.6,1.9,0.5,3      c-0.2,1.6-0.8,3-1.6,4.4c-1.1,1.8-2.5,3.5-4.3,4.8c-0.4,0.3-0.7,0.5-1.2,0.7c-1,0.4-1.7,0.1-2-1c0.4-0.3,0.9-0.6,1.3-1      c0.2-0.1,0.5-0.3,0.3-0.6c-0.2-0.3-0.4,0-0.6,0.1c-0.5,0.4-1.1,0.7-1.6,1.1c-0.9,0.7-1.9,0.8-3,0.5c-1.8-0.5-3.5-1.4-5.1-2.4      c-0.5-0.3-1-0.7-1.5-1.1c-1.5-1.1-1.6-3-1.2-4.3c0.2-0.8,0.8-1.1,1.6-0.9c1.2,0.3,2.3,0.9,3,1.9c0.8,1.1,0.4,2.2-0.9,2.5      c-0.4,0.1-0.8,0-1.3,0c-0.2,0-0.3-0.1-0.5-0.1c0.3,0.6,1.4,0.8,2.3,0.5c1.1-0.4,1.5-1.1,1.3-2.6c1.3-0.9,2.1-1.9,1.9-3.6      c1.2-0.8,2.1-1.8,1.7-3.4c1.2-0.3,2.1-1,3-1.8c0.1-0.1,0.2-0.2,0.3-0.3c0.1-0.1,0-0.3,0-0.4c-0.1,0-0.3,0-0.4,0.1      c-0.3,0.2-0.6,0.5-0.9,0.7c-0.5,0.3-1,0.6-1.5,0.9c-0.5,0.2-1,0.3-1.5-0.1c-0.5-0.5-0.7-1-0.5-1.7c0.1-0.4,0.4-0.8,0.6-1.2      c0.9-1.1,1.9-2.2,2.9-3.2c0.6-0.7,1.2-0.7,2-0.3c1.2,0.6,2.1,1.4,3,2.3c0.5,0.6,1,1.2,1.4,1.9c0.7,1.1,0.9,2.3,0.7,3.6      c-0.1,0.6-0.2,1.2-0.3,1.9c0,0.2-0.1,0.4-0.1,0.6C595.2,67.4,595.3,67.5,595.3,67.5z M589.2,63.9c-0.4-0.1-0.4,0.1-0.6,0.3      c-0.5,0.8-0.8,1.7-1,2.6c-0.3,1.3-0.2,2.5,0.3,3.7c0.2,0.4,0.5,0.8,0.8,1.2c0.1,0.2,0.3,0.3,0.6,0c-1.1-1.1-1.4-2.4-1.3-3.9      C587.9,66.4,588.5,65.1,589.2,63.9z M594.5,70.2c-0.9,1.6-1.6,3.3-2.8,4.9C592.5,74.6,594.5,71.2,594.5,70.2z"/>
  <path fill="#FFFFFF" d="M582.6,71c-1.1-1.4-2.6-2.2-4.1-2.4c-0.2-0.4-0.3-0.9-0.2-1.3c0.1-0.7,0.4-1.3,0.8-1.9      c0.4-0.5,0.7-0.6,1.3-0.4c0.5,0.2,1,0.4,1.5,0.8c0.6,0.5,1.2,1,1.8,1.5c0.8,0.8,0.8,1.6,0.2,2.5C583.6,70.3,583.1,70.7,582.6,71      z"/>
  <path fill="#FFFFFF" d="M585.9,64.6c0.2,1.4-0.2,2.3-1.4,2.9c-1.2-1.5-2.6-2.7-4.5-3.2c-0.2-1.2,0.3-2.3,1.2-2.8      c0.6-0.3,1.2-0.3,1.8,0c0.3,0.2,0.6,0.4,0.9,0.7c0.1,0.1,0.2,0.3,0.2,0.4C584.4,63.7,584.9,64.3,585.9,64.6z"/>
  <path fill="#FFFFFF" d="M582.4,60.6c0.4-2,2.2-2.8,3.7-1.7c-0.7,0.9-1.6,1.7-1.9,2.7C583.7,61.3,583.1,61,582.4,60.6z"/>
  <path d="M589.2,63.9c-0.7,1.3-1.2,2.5-1.3,4c-0.1,1.5,0.3,2.8,1.3,3.9c-0.3,0.3-0.4,0.1-0.6,0c-0.3-0.4-0.6-0.8-0.8-1.2      c-0.5-1.2-0.6-2.5-0.3-3.7c0.2-0.9,0.5-1.8,1-2.6C588.7,64,588.8,63.8,589.2,63.9z"/>
  <path d="M594.5,70.2c0,1-2,4.4-2.8,4.9C592.8,73.5,593.6,71.9,594.5,70.2z"/>
  <ellipse fill="#CECECE" cx="658.9" cy="166.4" rx="43.7" ry="3.2"/>
  <ellipse fill="#CECECE" cx="109.1" cy="169.2" rx="32" ry="3.2"/>
  <rect x="117.3" y="99.9" transform="matrix(-0.9824 0.1869 -0.1869 -0.9824 263.8605 243.6475)" fill="#333333" width="6.3" height="68.8"/>
  <rect x="98.7" y="61.9" transform="matrix(0.9824 0.1869 -0.1869 0.9824 23.3734 -17.0375)" fill="#333333" width="6.7" height="107.1"/>
  <path fill="#8F1A1C" d="M127.5,129.3c12.7-3.5,17.2-27.5,10-53.4c-7.2-25.9-23.4-44.1-36.2-40.5c-12.7,3.5-17.2,27.5-10,53.4     C98.5,114.7,114.8,132.8,127.5,129.3z"/>
  <path fill="#FFFFFF" d="M133.1,127.7c12.7-3.5,17.2-27.5,10-53.4c-7.2-25.9-23.4-44.1-36.2-40.5c-12.7,3.5-17.2,27.5-10,53.4     C104.1,113.1,120.4,131.3,133.1,127.7z"/>
  <path fill="#E43333" d="M130.9,119.8c10.6-2.9,14.3-22.9,8.3-44.4c-6-21.5-19.5-36.7-30.1-33.7c-10.6,2.9-14.3,22.9-8.3,44.4     C106.8,107.7,120.3,122.8,130.9,119.8z"/>
  <path fill="#FFFFFF" d="M128.7,111.9c8.4-2.4,11.4-18.2,6.6-35.4c-4.8-17.2-15.5-29.2-24-26.9c-8.4,2.4-11.4,18.2-6.6,35.4     C109.5,102.2,120.2,114.3,128.7,111.9z"/>
  <path fill="#E43333" d="M126.5,104c6.3-1.8,8.5-13.6,5-26.4c-3.6-12.8-11.6-21.8-17.9-20c-6.3,1.8-8.5,13.6-5,26.4     C112.2,96.8,120.2,105.8,126.5,104z"/>
  <ellipse transform="matrix(0.9634 -0.2682 0.2682 0.9634 -17.2677 35.1519)" fill="#FFFFFF" cx="120" cy="80.8" rx="7.8" ry="15.9"/>
  <path fill="#E43333" d="M122.1,88.2c2-0.6,2.7-4.3,1.6-8.4c-1.1-4.1-3.7-6.9-5.7-6.4c-2,0.6-2.7,4.3-1.6,8.4     C117.5,85.9,120.1,88.7,122.1,88.2z"/>
  <path fill="#CECECE" d="M567.4,59.3l0.4-1.4c3.6,1.1,5.6,1.8,5.6,1.8L573,61C573,61,571,60.4,567.4,59.3z M556.1,56l0.4-1.4     c1.9,0.5,3.8,1.1,5.7,1.6l-0.4,1.4C560,57,558.1,56.5,556.1,56z M196.7,54c1.8-0.6,3.7-1.2,5.6-1.8l0.4,1.4     c-1.9,0.6-3.7,1.2-5.6,1.8L196.7,54z M544.8,52.9l0.4-1.4c2,0.5,3.9,1,5.7,1.5l-0.4,1.4C548.7,53.9,546.8,53.4,544.8,52.9z      M207.9,50.4c1.9-0.6,3.8-1.1,5.6-1.7l0.4,1.4c-1.9,0.5-3.8,1.1-5.6,1.7L207.9,50.4z M533.4,50.1l0.3-1.4c2,0.5,3.9,0.9,5.7,1.4     l-0.4,1.4C537.2,51,535.3,50.6,533.4,50.1z M521.9,47.5l0.3-1.4c2,0.4,3.9,0.9,5.7,1.3l-0.3,1.4     C525.8,48.3,523.9,47.9,521.9,47.5z M219.2,47.2c1.9-0.5,3.8-1,5.7-1.5l0.4,1.4c-1.9,0.5-3.8,1-5.7,1.5L219.2,47.2z M510.4,45     l0.3-1.4c2,0.4,3.9,0.8,5.8,1.2l-0.3,1.4C514.3,45.8,512.4,45.4,510.4,45z M230.6,44.2c1.9-0.5,3.8-0.9,5.7-1.4l0.3,1.4     c-1.9,0.4-3.8,0.9-5.7,1.4L230.6,44.2z M498.9,42.8l0.3-1.4c2,0.4,3.9,0.7,5.8,1.1l-0.3,1.4C502.8,43.5,500.8,43.1,498.9,42.8z      M242,41.5c1.9-0.4,3.8-0.8,5.7-1.2l0.3,1.4c-1.9,0.4-3.8,0.8-5.7,1.2L242,41.5z M487.3,40.7l0.2-1.4c2,0.3,3.9,0.7,5.8,1     l-0.3,1.4C491.2,41.4,489.3,41,487.3,40.7z M253.6,39.1c1.9-0.4,3.9-0.8,5.8-1.1l0.3,1.4c-1.9,0.4-3.8,0.7-5.8,1.1L253.6,39.1z      M475.7,38.8l0.2-1.5c2,0.3,3.9,0.6,5.8,0.9l-0.2,1.5C479.6,39.4,477.7,39.1,475.7,38.8z M265.1,37c1.9-0.3,3.9-0.7,5.8-1     l0.2,1.5c-1.9,0.3-3.9,0.6-5.8,1L265.1,37z M464.1,37.1l0.2-1.5c2,0.3,3.9,0.6,5.8,0.8l-0.2,1.5C468,37.6,466.1,37.3,464.1,37.1z      M276.7,35.1c1.9-0.3,3.9-0.6,5.8-0.9l0.2,1.5c-1.9,0.3-3.9,0.6-5.8,0.8L276.7,35.1z M452.4,35.5l0.2-1.5c2,0.2,3.9,0.5,5.8,0.7     l-0.2,1.5C456.4,36,454.4,35.8,452.4,35.5z M288.3,33.4c1.9-0.3,3.9-0.5,5.8-0.7l0.2,1.5c-1.9,0.2-3.9,0.5-5.8,0.7L288.3,33.4z      M440.8,34.2l0.2-1.5c2,0.2,3.9,0.4,5.8,0.7l-0.2,1.5C444.7,34.6,442.7,34.4,440.8,34.2z M429.1,33l0.1-1.5     c2,0.2,3.9,0.4,5.9,0.6l-0.1,1.5C433,33.4,431,33.2,429.1,33z M300,32c2-0.2,3.9-0.4,5.8-0.6l0.1,1.5c-1.9,0.2-3.9,0.4-5.8,0.6     L300,32z M417.4,32l0.1-1.5c2,0.1,3.9,0.3,5.9,0.5l-0.1,1.5C421.3,32.3,419.3,32.2,417.4,32z M311.7,30.9c2-0.2,3.9-0.3,5.9-0.5     l0.1,1.5c-1.9,0.2-3.9,0.3-5.8,0.5L311.7,30.9z M405.7,31.2l0.1-1.5c2,0.1,3.9,0.2,5.9,0.4l-0.1,1.5     C409.6,31.5,407.6,31.3,405.7,31.2z M323.4,30c2-0.1,3.9-0.3,5.9-0.4l0.1,1.5c-1.9,0.1-3.9,0.2-5.8,0.4L323.4,30z M393.9,30.6     l0.1-1.5c2,0.1,3.9,0.2,5.9,0.3l-0.1,1.5C397.8,30.8,395.9,30.7,393.9,30.6z M335.2,29.3c2-0.1,3.9-0.2,5.9-0.3l0.1,1.5     c-2,0.1-3.9,0.2-5.9,0.3L335.2,29.3z M382.2,30.2l0-1.5c2,0,3.9,0.1,5.9,0.2l0,1.5C386.1,30.3,384.2,30.3,382.2,30.2z      M346.9,28.8c2-0.1,3.9-0.1,5.9-0.1l0,1.5c-2,0-3.9,0.1-5.9,0.1L346.9,28.8z M370.4,30.1l0-1.5c2,0,3.9,0,5.9,0.1l0,1.5     C374.4,30.1,372.4,30.1,370.4,30.1z M358.7,28.6c2,0,3.9,0,5.9,0l0,1.5c-2,0-3.9,0-5.9,0L358.7,28.6z"/>
  <path d="M730.3,79.8c0.6-1.2,1.6-2.1,2.7-2.9c0.4-0.3,0.8-0.6,1.2-0.9c0.8-0.7,1-1.6,0.8-2.6c-0.1-0.5-0.3-1-0.4-1.5     c-0.1-0.5-0.3-1-0.4-1.5c-0.1-0.8,0-1.5,0.7-2c0.7-0.5,1.5-0.7,2.4-0.3c0.4,0.2,0.8,0.4,1.1,0.6c1.3,0.9,1.9,2.3,2.3,3.7     c0.2,0.8,0.3,1.7,0.1,2.5c-0.1,0.3-0.1,0.6-0.2,1c0.4-0.1,0.8-0.1,1.2-0.2c1.3-0.2,2.6-0.2,3.9,0.1c1.1,0.3,2.1,0.7,2.8,1.6     c0.4,0.5,0.6,1,0.5,1.6c0,0.2,0,0.4,0.2,0.5c0.9,1.3,1.5,2.6,0.6,4.1c1.1,1.5,1.1,2.5,0,4c0,0.1,0.1,0.2,0.1,0.2     c0.9,1.8,0.1,3.6-1.9,4.2c-0.9,0.3-1.8,0.4-2.7,0.2c-0.6-0.1-1.1-0.1-1.7,0.1c-1.5,0.3-3.1,0.6-4.6,0.9c-1.7,0.3-3.4-0.1-4.8-1.1     c-0.1-0.1-0.2-0.1-0.3-0.2c-0.3,0.8-1,0.9-1.7,0.8c-0.9-0.1-1.6-0.5-2.2-1.1c-0.7-0.6-1.3-1.4-1.7-2.3c-0.1-0.2-0.2-0.3-0.3-0.4     c-0.4,0.1-0.7,0.2-1.1,0.3c-3.8,0.9-7.7,1.7-11.6,2.2c-1.7,0.2-3.3,0.4-5,0.4c-0.9,0-1.8,0-2.7-0.2c-1.8-0.4-3.5-1.1-5.1-2.1     c-1.4-0.8-2.8-1.7-4.1-2.6c-2.2-1.5-4.4-3.1-6.5-4.7c-0.8-0.6-1.5-1.2-2.2-1.9c-0.5-0.5-0.8-1.1-0.6-1.9c0.2-0.7,0.7-1.1,1.3-1.3     c0.3-0.1,0.7-0.1,1.1-0.1c0.8,0.1,1.6,0.5,2.2,1c2.5,1.8,5,3.7,7.5,5.5c1.4,1,2.8,2,4.3,3c0.5,0.3,1.1,0.6,1.7,0.7     c1.9,0.6,3.8,0.5,5.7,0.3c1.7-0.2,3.3-0.5,4.9-0.9c2.7-0.6,5.5-1.3,8.2-1.9c0.2-0.1,0.4-0.1,0.6-0.1c0-0.6,0-1.2,0.1-1.7     c0.2-1.1,0.8-2,1.8-2.5c0.4-0.2,0.7-0.2,1.1-0.1c0.1,0,0.2,0.1,0.4,0.1C730.1,80.3,730.2,80,730.3,79.8z M732,89.6     c0.3-0.1,0.4,0.2,0.5,0.3c0.6,0.6,1.2,1.2,1.9,1.7c1.4,1.1,3,1.4,4.7,1.1c1.6-0.2,3.1-0.5,4.7-0.8c0,0,0-0.1,0-0.1     c-0.1-0.1-0.2-0.2-0.4-0.2c-0.5-0.3-0.9-0.6-1.2-1.2c-0.4-0.8-0.4-1.6,0.1-2.5c-0.1-0.1-0.3-0.2-0.4-0.3c-0.3-0.3-0.6-0.6-0.8-1     c-0.3-0.6-0.2-1.2,0.3-1.7c0.1-0.1,0.2-0.1,0.3-0.2c-0.9-0.8-1.2-1.7-0.7-2.8c-0.3-0.1-0.5-0.3-0.8-0.4c-0.8-0.5-1.1-1.3-0.7-2.1     c0.4-1.1,1.2-1.8,2.3-2.2c0.2-0.1,0.5-0.1,0.8-0.1c0,0,0,0.1,0.1,0.1c-0.1,0.1-0.2,0.2-0.3,0.2c-0.5,0.3-1,0.6-1.4,0.9     c-0.4,0.3-0.7,0.7-0.9,1.2c-0.2,0.6-0.1,1.1,0.5,1.4c0.4,0.2,0.8,0.4,1.2,0.4c2,0.2,3.9-0.1,5.6-1.1c0.3-0.2,0.6-0.4,0.9-0.7     c0.5-0.6,0.5-1.2,0-1.8c-0.6-0.8-1.4-1.2-2.3-1.4c-1.1-0.3-2.3-0.3-3.5-0.2c-0.6,0.1-1.2,0.1-1.7,0.2c-0.1,0-0.3,0-0.4,0     c-0.3,0-0.3-0.2-0.2-0.4c0.1-0.3,0.3-0.6,0.3-1c0.2-0.9,0.2-1.8-0.1-2.7c-0.4-1.3-1-2.6-2.2-3.4c-0.3-0.2-0.7-0.4-1-0.5     c-0.7-0.2-1.3-0.1-1.8,0.4c-0.3,0.2-0.4,0.6-0.4,1c0,0.6,0.1,1.2,0.3,1.8c0.2,0.6,0.3,1.1,0.5,1.7c0.3,1.2,0,2.2-0.9,3.1     c-0.3,0.3-0.7,0.6-1.1,0.8c-0.7,0.5-1.4,1.1-2,1.8c-1,1.2-1.3,2.5-1.1,4c0,0.2,0,0.3,0.1,0.6c-0.2-0.1-0.3-0.2-0.4-0.3     c-0.1-0.3-0.2-0.7-0.3-1c0-0.4,0-0.8,0-1.2c-0.5-0.4-0.8-0.4-1.4,0c-0.8,0.5-1.3,1.3-1.3,2.3c-0.2,2.8,0.7,5.3,2.5,7.5     c0.4,0.5,0.9,0.9,1.5,1.2c0.5,0.2,0.9,0.3,1.4,0.3c0.4,0,0.6-0.2,0.8-0.6C732.8,91.1,732.1,90.6,732,89.6z M726.7,85.3     c-0.6,0.1-1.3,0.3-2,0.4c-2.8,0.6-5.5,1.3-8.3,1.9c-2,0.5-4.1,0.7-6.2,0.7c-1.1,0-2.3-0.1-3.3-0.5c-0.6-0.2-1.3-0.4-1.8-0.8     c-1.7-1.1-3.4-2.3-5-3.5c-2.3-1.6-4.5-3.3-6.8-5c-0.5-0.4-1-0.7-1.6-0.8c-0.5-0.1-1-0.2-1.5,0c-0.9,0.3-1.2,1.3-0.6,2     c0.1,0.2,0.3,0.4,0.5,0.5c1.3,1.2,2.7,2.2,4.2,3.2c1.8,1.3,3.6,2.5,5.5,3.8c1.9,1.3,3.8,2.4,5.9,3.2c1.8,0.7,3.6,0.9,5.5,0.8     c5.6-0.4,11-1.6,16.5-2.8C727.3,87.4,727,86.4,726.7,85.3z M742.3,84.6c0.6,0.3,1.1,0.3,1.7,0.4c1.2,0.1,2.4-0.1,3.6-0.5     c0.4-0.2,0.8-0.4,1.2-0.6c0.7-0.5,0.9-1.1,0.8-2c-0.1-0.8-0.5-1.5-0.9-2c0,0-0.1,0-0.1,0c-1,1.2-2.3,1.7-3.8,2     c-1,0.2-1.9,0.3-2.9,0.2c-0.2,0-0.4,0-0.6,0C741,83.3,741.3,84.2,742.3,84.6z M745.9,85.4c-1.2,0.2-2.4,0.2-3.6-0.2     c-0.2-0.1-0.4,0-0.6,0.1c-0.3,0.3-0.4,0.8-0.2,1.2c0.2,0.5,0.5,0.8,0.9,1c0.7,0.5,1.5,0.7,2.4,0.8c1.1,0.1,2.1,0.1,3.2-0.3     c0.4-0.1,0.7-0.3,1.1-0.5c1.2-0.8,1.3-2.3,0.3-3.5C748.3,84.9,747.2,85.2,745.9,85.4z M742.6,88.3c-0.4,0.4-0.4,0.9-0.3,1.4     c0.1,0.6,0.4,1,0.9,1.3c0.9,0.6,2,0.9,3.1,0.9c0.6,0,1.2-0.1,1.8-0.3c1.5-0.5,2.1-2.2,1.3-3.7C747.2,89.2,744.9,89.1,742.6,88.3z     "/>
  <path d="M737.8,94.4c-1.4,0-2.6-0.3-3.8-1c-0.5,0.4-1.2,0.6-2.1,0.5c-1-0.1-1.9-0.6-2.8-1.4c-0.7-0.6-1.3-1.3-1.8-2.3     c-0.1,0-0.2,0.1-0.4,0.1c-4.5,1-8.2,1.7-11.7,2.2c-1.4,0.2-3.3,0.4-5.2,0.4c-0.9,0-1.9,0-2.9-0.2c-1.8-0.4-3.6-1.1-5.4-2.2     c-1.4-0.8-2.8-1.7-4.1-2.6c-1.9-1.3-4-2.8-6.5-4.7c-0.9-0.6-1.7-1.4-2.3-2c-0.9-0.8-1.2-1.8-0.9-2.9c0.3-1,1-1.8,2.1-2     c0.4-0.1,0.9-0.1,1.4-0.1c1.2,0.1,2.1,0.7,2.7,1.2c0.7,0.5,1.4,1,2.1,1.6c1.8,1.3,3.6,2.6,5.4,3.9c1.5,1,2.9,2,4.3,2.9     c0.5,0.3,1.1,0.5,1.5,0.6c1.5,0.4,3.1,0.5,5.3,0.2c1.7-0.2,3.5-0.6,4.8-0.9c1.9-0.4,3.8-0.9,5.7-1.3c0.8-0.2,1.6-0.4,2.4-0.6     c0-0.3,0-0.7,0.1-1c0.2-1.4,1-2.6,2.3-3.3c0.4-0.2,0.9-0.3,1.4-0.3c0,0,0,0,0,0l0,0c0.6-1.2,1.6-2.3,3-3.3     c0.4-0.3,0.8-0.6,1.1-0.8c0.3-0.3,0.6-0.7,0.4-1.5c-0.1-0.3-0.1-0.5-0.2-0.8c-0.1-0.2-0.1-0.4-0.2-0.6c0-0.1-0.1-0.2-0.1-0.3     c-0.1-0.4-0.2-0.9-0.3-1.3c-0.2-1.6,0.5-2.5,1.1-3c1-0.8,2.3-1,3.4-0.5c0.5,0.2,0.9,0.5,1.3,0.8c1.7,1.2,2.3,3,2.7,4.3     c0.2,0.9,0.3,1.7,0.2,2.6c1.6-0.2,2.8-0.2,4,0.1c1.4,0.3,2.5,1,3.3,1.9c0.6,0.7,0.9,1.5,0.8,2.2c0.5,0.7,1.7,2.5,0.9,4.6     c0.9,1.4,0.9,2.7,0,4.2c0.4,1.1,0.4,2.2,0,3.1c-0.5,1.1-1.4,1.8-2.6,2.2c-1.2,0.3-2.2,0.4-3.2,0.2c-0.4-0.1-0.7,0-1.2,0.1     c-1.5,0.3-3.1,0.6-4.7,0.9C738.7,94.3,738.3,94.4,737.8,94.4z M733.2,89.2c0.2,0.2,0.4,0.4,0.6,0.6c0.4,0.4,0.8,0.8,1.2,1.1     c1.1,0.9,2.4,1.2,3.9,0.9c0.9-0.1,1.7-0.3,2.6-0.4c-0.1-0.1-0.2-0.3-0.3-0.4c-0.4-0.9-0.5-1.8-0.3-2.7c0,0-0.1-0.1-0.1-0.1     c-0.2-0.3-0.5-0.6-0.7-1c-0.4-0.8-0.3-1.6,0.1-2.4c-0.5-0.8-0.6-1.5-0.5-2.2c0,0-0.1-0.1-0.1-0.1c-1.2-0.8-1.6-2-1.1-3.4     c0.3-0.7,0.7-1.3,1.2-1.7c-0.1-0.1-0.2-0.1-0.3-0.2l-0.1,0l0,0c-0.1-0.1-0.1-0.2-0.2-0.2c-0.1-0.2-0.3-0.6-0.1-1.2     c0-0.1,0.1-0.2,0.1-0.4c0.1-0.2,0.1-0.4,0.2-0.5c0.2-0.7,0.1-1.4-0.1-2.2c-0.4-1.4-1-2.3-1.8-2.9c-0.3-0.2-0.5-0.3-0.8-0.4     c-0.2-0.1-0.4-0.1-0.8,0.2c0,0-0.1,0.1-0.1,0.2c0,0.4,0.1,0.8,0.3,1.4c0,0.1,0.1,0.3,0.1,0.4c0.1,0.4,0.3,0.9,0.4,1.3     c0.4,1.6,0,3-1.2,4.1c-0.4,0.3-0.8,0.6-1.2,0.9c-0.8,0.6-1.3,1-1.8,1.6c-0.8,0.9-1,1.9-0.8,3.1c0,0.1,0,0.2,0.1,0.4l0.3,2.7     l-2-1.5c0,0-0.1-0.1-0.1-0.1c-0.2-0.1-0.5-0.3-0.6-0.7l0,0c-0.1-0.4-0.3-0.8-0.3-1.2c0-0.1,0-0.2,0-0.3c-0.4,0.3-0.6,0.8-0.6,1.3     c-0.1,2.5,0.6,4.8,2.3,6.8c0.2,0.3,0.5,0.5,0.8,0.7c-0.2-0.3-0.3-0.6-0.3-1l-0.1-1l1-0.2C732.2,88.5,732.7,88.6,733.2,89.2     C733.2,89.2,733.2,89.2,733.2,89.2C733.2,89.2,733.2,89.2,733.2,89.2z M743.4,89.6c0,0.2,0.1,0.4,0.5,0.6     c0.7,0.5,1.5,0.7,2.4,0.7c0.6,0,1.1-0.1,1.5-0.3c0.4-0.1,0.7-0.4,0.9-0.8c0.1-0.1,0.1-0.3,0.1-0.4C747,90,745.3,90.1,743.4,89.6z      M690.9,78.7c-0.1,0-0.3,0-0.4,0.1c-0.1,0-0.2,0.1-0.2,0.2c0,0.1,0,0.2,0.1,0.3c0.1,0.1,0.2,0.2,0.3,0.3c1.4,1.2,2.9,2.3,4.1,3.1     c0.9,0.6,1.7,1.2,2.6,1.8c1,0.7,1.9,1.3,2.9,2c1.9,1.3,3.8,2.3,5.7,3.1c1.5,0.6,3.2,0.8,5,0.7c5.1-0.4,10.3-1.5,15.2-2.6     l-0.3-1.2c-0.3,0.1-0.7,0.1-1,0.2c-0.9,0.2-1.8,0.4-2.7,0.6c-1.8,0.4-3.7,0.9-5.6,1.3c-2.4,0.5-4.5,0.8-6.4,0.7     c-1.5,0-2.6-0.2-3.6-0.5c-0.6-0.2-1.4-0.5-2.1-0.9c-1.6-1.1-3.3-2.2-5-3.5c-1.7-1.2-3.4-2.5-5-3.7c-0.6-0.4-1.2-0.9-1.8-1.3     c-0.5-0.4-0.9-0.6-1.2-0.7C691.2,78.7,691.1,78.7,690.9,78.7z M742.6,86.3c0.1,0.1,0.2,0.2,0.4,0.4c0.5,0.3,1.1,0.5,1.9,0.6     c1,0.1,1.9,0,2.7-0.2c0.3-0.1,0.6-0.2,0.8-0.4c0.3-0.2,0.5-0.5,0.5-0.8c0-0.1,0-0.2,0-0.3c-1.1,0.6-2.1,0.8-2.9,0.9v0     C745.1,86.5,743.9,86.6,742.6,86.3z M742.8,83.7c0.4,0.2,0.8,0.3,1.4,0.3c1.1,0.1,2.2-0.1,3.2-0.5c0.3-0.1,0.7-0.3,1-0.5     c0.3-0.2,0.4-0.5,0.4-0.9c0-0.2-0.1-0.4-0.1-0.6c-1.1,0.8-2.3,1.2-3.4,1.5c-0.9,0.2-1.8,0.3-2.8,0.3     C742.3,83.4,742.5,83.6,742.8,83.7L742.8,83.7z M740.8,80.3C740.8,80.3,740.8,80.3,740.8,80.3c0.3,0.2,0.6,0.3,0.9,0.3     c1.9,0.2,3.5-0.1,4.9-1c0.2-0.1,0.5-0.3,0.6-0.5c0.2-0.2,0.2-0.2,0-0.5c-0.4-0.5-1-0.8-1.8-1.1c-0.6-0.1-1.1-0.2-1.8-0.2l0.2,0.4     l-0.7,0.5c-0.1,0.1-0.2,0.1-0.3,0.2c-0.2,0.1-0.3,0.2-0.5,0.3c-0.3,0.2-0.6,0.4-0.9,0.6c-0.3,0.2-0.4,0.4-0.6,0.8     C740.8,80.2,740.8,80.2,740.8,80.3z M740.8,80.2L740.8,80.2L740.8,80.2z"/>
  <path fill="#FFFFFF" d="M732.6,92.2c-0.5,0-1,0-1.4-0.3c-0.6-0.3-1.1-0.7-1.5-1.2c-1.8-2.2-2.7-4.7-2.5-7.5c0.1-1,0.5-1.7,1.3-2.3     c0.5-0.4,0.8-0.3,1.4,0c0,0.4,0,0.8,0,1.2c0,0.4,0.2,0.7,0.3,1c0,0.1,0.2,0.1,0.4,0.3c0-0.3-0.1-0.5-0.1-0.6     c-0.2-1.5,0.1-2.8,1.1-4c0.6-0.7,1.3-1.2,2-1.8c0.4-0.3,0.7-0.5,1.1-0.8c0.9-0.8,1.2-1.9,0.9-3.1c-0.1-0.6-0.3-1.1-0.5-1.7     c-0.2-0.6-0.3-1.1-0.3-1.8c0-0.4,0.1-0.7,0.4-1c0.5-0.5,1.2-0.6,1.8-0.4c0.4,0.1,0.7,0.3,1,0.5c1.2,0.8,1.8,2.1,2.2,3.4     c0.3,0.9,0.3,1.8,0.1,2.7c-0.1,0.3-0.2,0.6-0.3,1c-0.1,0.3,0,0.4,0.2,0.4c0.1,0,0.3,0,0.4,0c0.6-0.1,1.2-0.1,1.7-0.2     c1.2-0.1,2.3-0.1,3.5,0.2c0.9,0.2,1.7,0.7,2.3,1.4c0.5,0.6,0.5,1.2,0,1.8c-0.2,0.3-0.6,0.5-0.9,0.7c-1.7,1-3.6,1.4-5.6,1.1     c-0.4,0-0.8-0.2-1.2-0.4c-0.6-0.3-0.7-0.8-0.5-1.4c0.2-0.5,0.5-0.9,0.9-1.2c0.5-0.3,0.9-0.6,1.4-0.9c0.1-0.1,0.2-0.2,0.3-0.2     c0,0,0-0.1-0.1-0.1c-0.3,0-0.5,0-0.8,0.1c-1.1,0.4-1.9,1.1-2.3,2.2c-0.3,0.9-0.1,1.6,0.7,2.1c0.2,0.2,0.5,0.3,0.8,0.4     c-0.4,1.1-0.1,1.9,0.7,2.8c-0.1,0.1-0.2,0.1-0.3,0.2c-0.5,0.5-0.6,1.1-0.3,1.7c0.2,0.4,0.5,0.7,0.8,1c0.1,0.1,0.2,0.2,0.4,0.3     c-0.5,0.8-0.5,1.6-0.1,2.5c0.3,0.5,0.7,0.9,1.2,1.2c0.1,0.1,0.3,0.2,0.4,0.2c0,0,0,0.1,0,0.1c-1.6,0.3-3.1,0.5-4.7,0.8     c-1.7,0.3-3.3-0.1-4.7-1.1c-0.7-0.5-1.2-1.2-1.9-1.7c-0.1-0.1-0.2-0.3-0.5-0.3c0.1,0.9,0.8,1.4,1.4,2     C733.2,92,733,92.2,732.6,92.2z M738.7,82c0.3,0.8,0.4,1.6,0.2,2.5c-0.1,0.4-0.2,0.9-0.4,1.3c-0.2,0.4-0.5,0.7-0.9,0.8     c-0.5,0.1-1.1,0.3-1.6,0.4c-0.2,0-0.3,0-0.6,0.1c0.2,0.1,0.3,0.2,0.3,0.2c0.9,0.1,1.7-0.1,2.4-0.5c0.8-0.5,1-1.2,1.2-2.1     c0.1-1,0-1.9-0.3-2.8c0-0.1-0.1-0.2-0.2-0.3c0,0-0.1,0-0.1,0.1C738.6,81.6,738.6,81.8,738.7,82z M731.4,87.9     c-0.2-0.8-0.5-1.7-0.7-2.5c0,0,0,0,0,0c-0.2,0.6,0.2,2.1,0.7,2.6C731.4,87.9,731.4,87.9,731.4,87.9z"/>
  <path d="M727.6,88.5c-0.3-1.1-0.6-2.1-0.9-3.2c-0.6,0.1-1.3,0.3-2,0.4c-2.8,0.6-5.5,1.3-8.3,1.9c-2,0.5-4.1,0.7-6.2,0.7     c-1.1,0-2.3-0.1-3.3-0.5c-0.6-0.2-1.3-0.4-1.8-0.8c-1.7-1.1-3.4-2.3-5-3.5c-2.3-1.6-4.5-3.3-6.8-5c-0.5-0.4-1-0.7-1.6-0.8     c-0.5-0.1-1-0.2-1.5,0c-0.9,0.3-1.2,1.3-0.6,2c0.1,0.2,0.3,0.4,0.5,0.5c1.3,1.2,2.7,2.2,4.2,3.2c1.8,1.3,3.6,2.5,5.5,3.8     c1.9,1.3,3.8,2.4,5.9,3.2c1.8,0.7,3.6,0.9,5.5,0.8C716.7,90.9,722.1,89.7,727.6,88.5z"/>
  <path fill="#FFFFFF" d="M741.4,82.2c-0.4,1.1,0,2,1,2.4c0.6,0.3,1.1,0.3,1.7,0.4c1.2,0.1,2.4-0.1,3.6-0.5c0.4-0.2,0.8-0.4,1.2-0.6     c0.7-0.5,0.9-1.1,0.8-2c-0.1-0.8-0.5-1.5-0.9-2c0,0-0.1,0-0.1,0c-1,1.2-2.3,1.7-3.8,2c-1,0.2-1.9,0.3-2.9,0.2     C741.8,82.2,741.6,82.2,741.4,82.2z"/>
  <path fill="#FFFFFF" d="M749.4,84.1c-1,0.8-2.2,1.2-3.4,1.3c-1.2,0.2-2.4,0.2-3.6-0.2c-0.2-0.1-0.4,0-0.6,0.1     c-0.3,0.3-0.4,0.8-0.2,1.2c0.2,0.5,0.5,0.8,0.9,1c0.7,0.5,1.5,0.7,2.4,0.8c1.1,0.1,2.1,0.1,3.2-0.3c0.4-0.1,0.7-0.3,1.1-0.5     C750.2,86.7,750.4,85.2,749.4,84.1z"/>
  <path fill="#FFFFFF" d="M749.4,87.9c-2.2,1.2-4.4,1.2-6.7,0.3c-0.4,0.4-0.4,0.9-0.3,1.4c0.1,0.6,0.4,1,0.9,1.3     c0.9,0.6,2,0.9,3.1,0.9c0.6,0,1.2-0.1,1.8-0.3C749.6,91.1,750.2,89.4,749.4,87.9z"/>
  <path d="M738.6,81.5c0,0.2,0.1,0.4,0.1,0.6c0.3,0.8,0.4,1.6,0.2,2.5c-0.1,0.4-0.2,0.9-0.4,1.3c-0.2,0.4-0.5,0.7-0.9,0.8     c-0.5,0.1-1.1,0.3-1.6,0.4c-0.2,0-0.3,0-0.6,0.1c0.2,0.1,0.3,0.2,0.3,0.2c0.9,0.1,1.7-0.1,2.4-0.5c0.8-0.5,1-1.2,1.2-2.1     c0.1-1,0-1.9-0.3-2.8c0-0.1-0.1-0.2-0.2-0.3C738.6,81.4,738.6,81.4,738.6,81.5z"/>
  <path d="M731.3,88c0-0.1,0.1-0.1,0.1-0.1c-0.2-0.8-0.5-1.7-0.7-2.5c0,0,0,0,0,0C730.4,85.9,730.8,87.5,731.3,88z"/>
  <path d="M655.2,146.2c1,0.3,2,0.8,2.7,1.6c0.7,0.8,0.6,1.7-0.3,2.4c-0.2,0.2-0.4,0.3-0.6,0.5c0.2,0.7,0.4,1.3,0.6,2    c0.7,3,1,6,1,9.1c0,1.3-0.5,2.1-1.6,2.7c-2,1-4.1,1.6-6.3,1.8c-2.7,0.3-5.3,0.1-7.9-0.4c-1.8-0.3-3.5-0.9-5.1-1.7    c-1.7-0.8-2.5-2.1-2.6-4c-0.1-2,0.5-3.7,1.5-5.4c1.7-2.9,4.3-4.4,7.7-4.2c0.2,0,0.5,0,0.8,0c0.3-0.4,0.6-0.9,0.8-1.3    c0.1-0.1,0.1-0.3,0.1-0.4c-0.2-1.1,0.3-1.8,1.2-2.3c0.7-0.4,1.4-0.6,2.2-0.7c0.2,0,0.4-0.1,0.7-0.2c0-0.3,0-0.6,0-0.9    c-0.1-1.1-0.2-2.1-0.2-3.2c-0.2-2.2-0.3-4.4-0.4-6.5c-0.2-3.1-0.4-6.3-0.6-9.4c-0.1-2.1-0.3-4.3-0.4-6.4c-0.1-2.4-0.2-4.9-0.3-7.3    c0-0.6,0.1-1.3,0.2-1.9c0.3-1.2,1.4-1.7,2.6-1.4c0.7,0.2,1.2,0.7,1.6,1.3c0.5,0.7,0.7,1.5,0.8,2.4c0.1,1.8,0.3,3.6,0.4,5.4    c0.2,7.1,0.3,14.2,0.4,21.2c0,2.1,0,4.1,0,6.2c0,0.2,0,0.5,0,0.7C654.4,146,654.8,146,655.2,146.2z M654.6,150.9    c0.2-0.1,0.4-0.2,0.7-0.3c0.7-0.2,1.3-0.5,1.8-1c0.5-0.4,0.5-0.9,0.1-1.4c-0.5-0.6-1.1-0.9-1.7-1.1c-0.4-0.2-0.9-0.3-1.4-0.4    c0,0.3-0.1,0.6-0.1,0.8c0,0.5-0.3,0.8-0.7,1c-0.7,0.3-1.4,0.4-2.1,0.2c-0.5-0.1-0.8-0.4-0.9-1c-0.1-0.4-0.2-0.9-0.3-1.3    c-0.9,0.1-1.7,0.3-2.4,0.7c-0.5,0.3-1,0.6-1,1.3c0,0.6,0.4,1.1,0.9,1.4c0.3,0.1,0.5,0.3,0.8,0.4c0.1,0.1,0.3,0.2,0.4,0.3    c-0.6,0.6-1.2,0.4-2.4-0.7c-0.1,0.1-0.2,0.3-0.3,0.4c-0.1,0.2-0.2,0.3-0.2,0.5c0.1,0,0.1,0.1,0.2,0.1c2.9,0.8,5.1,2.6,7,4.8    c0.3,0.4,0.5,0.8,0.8,1.3c0.1,0.2,0.2,0.5,0,0.8c-0.1-0.1-0.3-0.2-0.4-0.3c-1-1.8-2.5-3-4.1-4.2c-1.8-1.3-3.7-2-5.9-1.9    c-1.9,0.1-3.6,0.8-4.9,2.2c-1.7,1.8-2.6,4-2.6,6.5c0,1.6,0.7,2.7,2.2,3.4c2.1,1,4.3,1.6,6.6,1.9c2,0.3,4,0.3,6,0.1    c2.3-0.2,4.5-0.8,6.5-2c0.5-0.3,0.7-0.6,0.7-1.2c-0.1-1.6,0-3.3-0.2-4.9c-0.2-2.1-0.5-4.2-1.2-6.3    C655,151.3,655,151.3,654.6,150.9z M652.7,148c0.3-0.1,0.5-0.3,0.5-0.7c0-0.7-0.1-1.4-0.1-2.1c-0.1-4.6-0.1-9.2-0.2-13.8    c-0.1-4.8-0.2-9.6-0.4-14.4c-0.1-1.6-0.2-3.1-0.4-4.7c-0.1-0.7-0.3-1.4-0.8-2.1c-0.3-0.3-0.6-0.6-1-0.7c-0.7-0.1-1.2,0.1-1.4,0.8    c-0.1,0.5-0.2,1-0.2,1.5c0,2,0.1,4.1,0.2,6.1c0.1,2.1,0.2,4.2,0.3,6.3c0.2,2.4,0.3,4.9,0.5,7.3c0.1,2.1,0.3,4.3,0.4,6.4    c0.2,2.3,0.3,4.5,0.5,6.8c0.1,1,0.1,2,0.2,3C651.6,148.1,652.2,148.2,652.7,148z"/>
  <path d="M648.1,167.6c-1.8,0-3.7-0.2-5.5-0.5c-1.9-0.4-3.7-1-5.4-1.7c-2-0.9-3.1-2.7-3.2-5c-0.1-2,0.4-4,1.6-6    c2-3.4,4.9-5,8.8-4.8c0,0,0,0,0.1,0c0.1-0.2,0.3-0.4,0.4-0.6c-0.2-1.4,0.5-2.5,1.8-3.3c0.6-0.4,1.4-0.6,2.2-0.8    c0-0.4-0.1-0.8-0.1-1.2c0-0.6-0.1-1.2-0.1-1.9c-0.2-2.2-0.3-4.4-0.5-6.5l-0.1-1.9c-0.2-2.5-0.3-5-0.5-7.5    c-0.1-2.2-0.3-4.4-0.4-6.4c-0.1-2.7-0.2-5-0.3-7.3c0-0.7,0.1-1.5,0.3-2.2c0.2-0.8,0.8-1.5,1.5-1.9c0.7-0.4,1.6-0.5,2.5-0.2    c0.9,0.3,1.7,0.8,2.3,1.7c0.6,0.9,0.9,1.9,1,2.9c0,0.4,0.1,0.7,0.1,1.1c0.1,1.4,0.2,2.9,0.3,4.3c0.2,7.2,0.3,14.3,0.4,21.2    c0,1.4,0,2.9,0,4.3c0,0.6,0,1.1,0,1.7c0.1,0,0.2,0.1,0.4,0.1c1.4,0.4,2.5,1.1,3.3,2c1.1,1.3,0.9,2.9-0.4,4    c0.1,0.4,0.3,0.9,0.4,1.3c0.7,3.1,1.1,6.2,1,9.4c0,1.8-0.7,2.9-2.2,3.7c-2,1-4.3,1.7-6.7,1.9C649.9,167.5,649,167.6,648.1,167.6z     M643.7,152.5c-0.1,0-0.2,0-0.4,0c-1.7,0.1-3,0.7-4.1,1.9c-1.5,1.7-2.3,3.6-2.3,5.7c0,1.1,0.5,1.9,1.5,2.3c2,0.9,4.1,1.5,6.3,1.8    c2.1,0.3,4,0.3,5.7,0.1c2.5-0.3,4.4-0.8,6-1.8c0.1,0,0.1-0.1,0.1-0.1c0,0,0,0,0-0.1c0-0.8-0.1-1.5-0.1-2.3c0-0.9,0-1.8-0.1-2.6    c-0.2-1.9-0.4-3.5-0.9-5.1c-0.8,0.1-1.3,0-1.9-0.7l-0.9-1.2l1.4-0.6c0.1,0,0.1-0.1,0.2-0.1c0.2-0.1,0.4-0.2,0.6-0.2    c0.5-0.2,0.9-0.4,1.3-0.7c-0.3-0.3-0.6-0.5-1.2-0.7c0,0,0,0,0,0c-0.2,0.6-0.6,1.1-1.2,1.4c-1,0.5-1.9,0.6-2.9,0.3    c-1-0.3-1.6-0.9-1.7-1.9c0-0.1,0-0.1,0-0.2c-0.4,0.1-0.7,0.2-1,0.4c-0.3,0.1-0.3,0.2-0.3,0.2c0,0,0,0,0,0c0,0.1,0,0.2,0.3,0.4    c0.1,0.1,0.2,0.1,0.4,0.2c0.1,0.1,0.3,0.1,0.4,0.2c0.2,0.1,0.3,0.2,0.4,0.2c0,0,0.1,0.1,0.1,0.1l1.2,0.8l-1,0.9    c1.5,0.9,2.8,2.1,4.2,3.7c0.3,0.4,0.6,0.8,0.8,1.2l0.1,0.2c0.5,1,0.2,1.7-0.2,2.1l-0.8,0.9l-0.9-0.8c0,0,0,0-0.1,0    c-0.1-0.1-0.4-0.3-0.6-0.6c-0.9-1.6-2.4-2.9-3.7-3.8C647,153.1,645.4,152.5,643.7,152.5z M650.1,110.7c-0.1,0.4-0.1,0.8-0.1,1.1    c0,2.1,0.1,4.1,0.2,6.1c0.1,1.9,0.2,3.9,0.3,6.3c0.1,1.9,0.3,3.8,0.4,5.6l0.1,1.7c0.1,2.1,0.3,4.3,0.4,6.4c0.1,1,0.1,2,0.2,2.9    c0.1,1.3,0.2,2.6,0.3,3.9c0,0.5,0.1,1.1,0.1,1.6c0-0.4,0-0.8,0-1.1c0-1.6,0-3.1-0.1-4.7c0-3-0.1-6.1-0.1-9.1    c-0.1-4.2-0.2-8.8-0.4-14.4c0-1.3-0.2-2.7-0.3-4l-0.1-0.7c-0.1-0.5-0.2-1-0.6-1.5C650.3,110.7,650.2,110.7,650.1,110.7    C650.1,110.7,650.1,110.7,650.1,110.7z M650.1,110.6L650.1,110.6L650.1,110.6z"/>
  <path fill="#FFFFFF" d="M656.4,151c-1.5,0.3-1.5,0.3-1.8-0.1c0.2-0.1,0.4-0.2,0.7-0.3c0.7-0.2,1.3-0.5,1.8-1c0.5-0.4,0.5-0.9,0.1-1.4    c-0.5-0.6-1.1-0.9-1.7-1.1c-0.4-0.2-0.9-0.3-1.4-0.4c0,0.3-0.1,0.6-0.1,0.8c0,0.5-0.3,0.8-0.7,1c-0.7,0.3-1.4,0.4-2.1,0.2    c-0.5-0.1-0.8-0.4-0.9-1c-0.1-0.4-0.2-0.9-0.3-1.3c-0.9,0.1-1.7,0.3-2.4,0.7c-0.5,0.3-1,0.6-1,1.3c0,0.6,0.4,1.1,0.9,1.4    c0.3,0.1,0.5,0.3,0.8,0.4c0.1,0.1,0.3,0.2,0.4,0.3c-0.6,0.6-1.2,0.4-2.4-0.7c-0.1,0.1-0.2,0.3-0.3,0.4c-0.1,0.2-0.2,0.3-0.2,0.5    c0.1,0,0.1,0.1,0.2,0.1c2.9,0.8,5.1,2.6,7,4.8c0.3,0.4,0.5,0.8,0.8,1.3c0.1,0.2,0.2,0.5,0,0.8c-0.1-0.1-0.3-0.2-0.4-0.3    c-1-1.8-2.5-3-4.1-4.2c-1.8-1.3-3.7-2-5.9-1.9c-1.9,0.1-3.6,0.8-4.9,2.2c-1.7,1.8-2.6,4-2.6,6.5c0,1.6,0.7,2.7,2.2,3.4    c2.1,1,4.3,1.6,6.6,1.9c2,0.3,4,0.3,6,0.1c2.3-0.2,4.5-0.8,6.5-2c0.5-0.3,0.7-0.6,0.7-1.2c-0.1-1.6,0-3.3-0.2-4.9    C657.4,155.2,657.1,153.1,656.4,151z"/>
  <path fill="#0F1010" d="M651,147.8c0.6,0.3,1.2,0.3,1.8,0.2c0.3-0.1,0.5-0.3,0.5-0.7c0-0.7-0.1-1.4-0.1-2.1    c-0.1-4.6-0.1-9.2-0.2-13.8c-0.1-4.8-0.2-9.6-0.4-14.4c-0.1-1.6-0.2-3.1-0.4-4.7c-0.1-0.7-0.3-1.4-0.8-2.1c-0.3-0.3-0.6-0.6-1-0.7    c-0.7-0.1-1.2,0.1-1.4,0.8c-0.1,0.5-0.2,1-0.2,1.5c0,2,0.1,4.1,0.2,6.1c0.1,2.1,0.2,4.2,0.3,6.3c0.2,2.4,0.3,4.9,0.5,7.3    c0.1,2.1,0.3,4.3,0.4,6.4c0.2,2.3,0.3,4.5,0.5,6.8C650.9,145.8,650.9,146.8,651,147.8z"/>
  <path d="M677.4,151.2c0.2,0.3,0.5,0.5,0.8,0.5c0.4,0,0.9,0,1.3,0.1c3.6,0.8,6.1,2.8,7.5,6.3c0.7,1.7,0.8,3.4,0.3,5.1    c-0.1,0.2-0.2,0.6-0.4,0.7c-0.5,0.4-1.1,0.7-1.7,0.9c-0.6,0.3-1.3,0.5-2,0.6c-4.3,1-8.6,1.1-12.9,0.4c-1.7-0.3-3.4-0.8-4.9-1.8    c-0.8-0.5-1.2-1.2-1.3-2.2c-0.2-2.2-0.2-4.5,0.2-6.7c0.3-1.5,0.7-3.1,1.1-4.6c0.1-0.3,0.1-0.5-0.1-0.8c-0.5-0.8-0.5-1.6,0.1-2.3    c0.4-0.4,0.9-0.8,1.4-1.1c0.7-0.4,1.5-0.6,2.4-1c0-0.2,0-0.4,0-0.7c0-4.6,0-9.1,0-13.7c-0.1-4.4-0.2-8.8-0.3-13.2    c-0.1-2-0.1-4-0.2-6c0-0.6,0.1-1.1,0.3-1.7c0.2-0.7,0.8-1.1,1.5-1.3c1.1-0.2,2.1,0.3,2.6,1.3c0.3,0.6,0.5,1.2,0.6,1.8    c0.1,1.3,0.2,2.7,0.2,4c-0.1,3.9-0.2,7.9-0.3,11.8c-0.1,3.7-0.1,7.3-0.1,11c0,2.2,0,4.3,0,6.5c0,0.2,0,0.5,0,0.7    c1.2,0.2,1.9,0.4,2.8,1c0.5,0.3,1,0.8,1.3,1.4c0.3,0.6,0.2,1.2-0.3,1.7c-0.1,0.1-0.3,0.3-0.4,0.4    C677,150.7,677.2,150.9,677.4,151.2z M669.7,156.3c0.4-0.6,0.8-1.2,1.3-1.8c1.5-1.6,3.4-2.6,5.8-2.9c-0.3-0.4-0.5-0.6-0.7-0.9    c-0.6-0.1-1.2,0.5-1.8-0.1c0.2-0.1,0.4-0.3,0.6-0.4c0.4-0.2,0.8-0.3,1.2-0.4c0.7-0.3,0.9-1,0.4-1.6c-0.3-0.3-0.7-0.6-1.1-0.8    c-0.6-0.3-1.3-0.5-2-0.9c-0.1,0.4-0.1,0.7-0.1,1c0,0.4-0.2,0.6-0.6,0.7c-1,0.3-2,0.2-2.9-0.5c-0.4-0.3-0.5-0.7-0.6-1.2    c0-0.1,0-0.3-0.1-0.5c-1,0.3-2,0.6-2.8,1.3c-0.9,0.8-0.8,1.7,0.2,2.3c0.4,0.2,0.8,0.4,1.2,0.7c0.2,0.1,0.3,0.2,0.6,0.4    c-0.9,0.3-1.5-0.1-2.1-0.4c-0.1,0.4-0.2,0.8-0.3,1.2c-0.9,3.1-1.1,6.3-0.9,9.5c0,0.3,0.1,0.5,0.1,0.8c0,0.5,0.3,0.8,0.7,1.1    c1.3,0.8,2.6,1.3,4.1,1.6c2.6,0.5,5.3,0.7,8,0.5c2.1-0.1,4.2-0.4,6.2-1c0.7-0.2,1.4-0.5,2.1-0.7c0.3-0.1,0.4-0.3,0.5-0.6    c0.4-1.5,0.3-3.1-0.3-4.5c-1.3-3.2-3.6-5.2-7-5.8c-3.1-0.5-5.7,0.5-7.9,2.8c-0.5,0.5-0.9,1.1-1.3,1.6c-0.1,0.1-0.2,0.3-0.4,0.5    C669.4,156.9,669.5,156.6,669.7,156.3z M672.6,147.6c0-0.4,0-0.8,0.1-1.1c0-6.4,0-12.8,0.1-19.1c0-3.5,0.2-7.1,0.2-10.6    c0-1.5,0-3-0.1-4.5c0-0.6-0.3-1.2-0.5-1.7c-0.1-0.4-0.5-0.6-0.9-0.8c-0.8-0.3-1.6,0.1-1.8,0.9c-0.1,0.5-0.2,1-0.1,1.5    c0.1,2.4,0.2,4.8,0.3,7.2c0.1,4.2,0.2,8.4,0.3,12.6c0.1,4.8,0.1,9.6,0.1,14.4c0,0.2,0,0.4,0,0.7    C670.8,147.7,671.7,147.8,672.6,147.6z"/>
  <path d="M675.7,167.3c-1.9,0-3.8-0.2-5.6-0.5c-2.1-0.4-3.8-1-5.3-2c-1.1-0.7-1.7-1.7-1.8-3.1c-0.2-2.6-0.1-4.9,0.2-7    c0.2-1.3,0.6-2.5,0.9-3.7c0.1-0.3,0.2-0.7,0.3-1c-0.7-1.2-0.6-2.6,0.3-3.6c0.5-0.5,1.1-1,1.7-1.3c0.6-0.3,1.2-0.5,1.7-0.7    c0,0,0,0,0,0c0-1.3,0-2.7,0-4c0-3.1,0-6.3,0-9.5c0-3.1-0.1-6.2-0.2-9.3c0-1.3-0.1-2.6-0.1-4c0-0.6,0-1.2-0.1-1.8    c0-1.4-0.1-2.8-0.1-4.2c0-0.6,0.1-1.3,0.3-2c0.4-1.1,1.2-1.9,2.5-2.1c1.6-0.2,3.1,0.5,3.8,1.9c0.4,0.8,0.6,1.5,0.7,2.2    c0.1,1.5,0.2,2.9,0.2,4.2c0,2.1-0.1,4.3-0.1,6.4c0,1.8-0.1,3.6-0.1,5.5c-0.1,3.1-0.1,6.2-0.1,9.2l0,1.8c0,1.5,0,3,0,4.5    c0,0.6,0,1.1,0,1.7c0.8,0.2,1.5,0.5,2.3,1c0.8,0.5,1.4,1.1,1.7,1.9c0.4,0.9,0.3,1.8-0.2,2.6c0.6,0,1,0.1,1.5,0.2    c4,0.9,6.8,3.3,8.3,7c0.8,2,0.9,3.9,0.3,5.9c-0.1,0.3-0.3,0.9-0.9,1.3c-0.7,0.4-1.3,0.8-1.9,1c-0.7,0.3-1.4,0.5-2.2,0.7    C680.9,167,678.3,167.3,675.7,167.3z M666.2,162c0,0,0.1,0,0.1,0.1c1.1,0.7,2.3,1.1,3.7,1.4c2.4,0.5,5,0.6,7.7,0.5    c1.7-0.1,3.9-0.3,5.9-1c0.3-0.1,0.7-0.2,1-0.3c0.3-0.1,0.6-0.2,0.9-0.3c0.3-1.3,0.2-2.5-0.3-3.7c-1.1-2.8-3.2-4.5-6.1-5    c-2.6-0.5-4.9,0.3-6.8,2.4c-0.3,0.3-0.5,0.6-0.8,1c-0.1,0.2-0.3,0.4-0.4,0.6c-0.1,0.1-0.2,0.2-0.3,0.3l-1.2,1.3l-0.8-1.3    c-0.3-0.4-0.7-1.3,0-2.4l0,0c0.4-0.6,0.9-1.3,1.4-1.9c1-1,2.1-1.8,3.3-2.3l-1-1l1.2-0.8c0.1,0,0.1-0.1,0.2-0.1    c0.2-0.1,0.4-0.2,0.6-0.3c0.2-0.1,0.4-0.2,0.6-0.2c0.1,0,0.3-0.1,0.4-0.1c-0.2-0.2-0.4-0.3-0.6-0.4c-0.2-0.1-0.4-0.2-0.6-0.3    c-0.2,0.5-0.6,1-1.2,1.2c-1.3,0.4-2.7,0.2-3.9-0.6c-0.5-0.3-0.7-0.7-0.9-1.1c-0.5,0.2-0.9,0.4-1.2,0.7c-0.2,0.1-0.2,0.2-0.2,0.3    c0,0,0.1,0.1,0.3,0.2c0.2,0.1,0.4,0.2,0.6,0.4c0.2,0.1,0.3,0.2,0.5,0.3c0.2,0.1,0.3,0.2,0.4,0.3c0.1,0,0.1,0.1,0.2,0.2l1.8,1.3    l-2.1,0.7c-0.7,0.2-1.3,0.2-1.8,0.1c0,0,0,0,0,0c-0.8,2.7-1.1,5.7-0.8,9.1c0,0,0,0.1,0,0.2C666.1,161.5,666.2,161.8,666.2,162z     M675.7,149.1L675.7,149.1L675.7,149.1z M671.3,146.4c0.1,0,0.1,0.1,0.2,0.1c0,0,0,0,0-0.1c0-2.1,0-4.1,0-6.2    c0-4.2,0-8.6,0.1-12.9c0-1.9,0.1-3.9,0.1-5.8c0-1.6,0.1-3.2,0.1-4.8c0-1.4,0-2.8-0.1-4.4c0-0.3-0.2-0.7-0.3-1.1    c0-0.1-0.1-0.2-0.1-0.3c0,0-0.1-0.1-0.2-0.1c-0.1-0.1-0.2,0-0.2,0c0,0,0,0-0.1,0.1c-0.1,0.4-0.1,0.8-0.1,1.2    c0,1.2,0.1,2.3,0.1,3.5c0,1.2,0.1,2.5,0.1,3.7l0.1,1.9c0.1,3.5,0.2,7.1,0.2,10.7c0,3.4,0.1,6.9,0.1,10.3c0,1.4,0,2.8,0,4.1    C671.3,146.4,671.3,146.4,671.3,146.4z"/>
  <path fill="#FFFFFF" d="M669.7,157.4c-0.3-0.5-0.2-0.8,0-1.1c0.4-0.6,0.8-1.2,1.3-1.8c1.5-1.6,3.4-2.6,5.8-2.9    c-0.3-0.4-0.5-0.6-0.7-0.9c-0.6-0.1-1.2,0.5-1.8-0.1c0.2-0.1,0.4-0.3,0.6-0.4c0.4-0.2,0.8-0.3,1.2-0.4c0.7-0.3,0.9-1,0.4-1.6    c-0.3-0.3-0.7-0.6-1.1-0.8c-0.6-0.3-1.3-0.5-2-0.9c-0.1,0.4-0.1,0.7-0.1,1c0,0.4-0.2,0.6-0.6,0.7c-1,0.3-2,0.2-2.9-0.5    c-0.4-0.3-0.5-0.7-0.6-1.2c0-0.1,0-0.3-0.1-0.5c-1,0.3-2,0.6-2.8,1.3c-0.9,0.8-0.8,1.7,0.2,2.3c0.4,0.2,0.8,0.4,1.2,0.7    c0.2,0.1,0.3,0.2,0.6,0.4c-0.9,0.3-1.5-0.1-2.1-0.4c-0.1,0.4-0.2,0.8-0.3,1.2c-0.9,3.1-1.1,6.3-0.9,9.5c0,0.3,0.1,0.5,0.1,0.8    c0,0.5,0.3,0.8,0.7,1.1c1.3,0.8,2.6,1.3,4.1,1.6c2.6,0.5,5.3,0.7,8,0.5c2.1-0.1,4.2-0.4,6.2-1c0.7-0.2,1.4-0.5,2.1-0.7    c0.3-0.1,0.4-0.3,0.5-0.6c0.4-1.5,0.3-3.1-0.3-4.5c-1.3-3.2-3.6-5.2-7-5.8c-3.1-0.5-5.7,0.5-7.9,2.8c-0.5,0.5-0.9,1.1-1.3,1.6    C670,157.1,669.9,157.2,669.7,157.4z"/>
  <path fill="#0F1010" d="M670.1,147c0.7,0.6,1.5,0.8,2.5,0.6c0-0.4,0-0.8,0.1-1.1c0-6.4,0-12.8,0.1-19.1c0-3.5,0.2-7.1,0.2-10.6    c0-1.5,0-3-0.1-4.5c0-0.6-0.3-1.2-0.5-1.7c-0.1-0.4-0.5-0.6-0.9-0.8c-0.8-0.3-1.6,0.1-1.8,0.9c-0.1,0.5-0.2,1-0.1,1.5    c0.1,2.4,0.2,4.8,0.3,7.2c0.1,4.2,0.2,8.4,0.3,12.6c0.1,4.8,0.1,9.6,0.1,14.4C670.2,146.5,670.1,146.8,670.1,147z"/>
  <path fill="#FACC2C" d="M632.4,120.7l59,3.4c0.2,0,0.5-0.2,0.5-0.4l10-76.2l-16.1-16.2L631.2,28c-0.3,0-0.5,0.2-0.5,0.5l1.2,91.8    C632,120.5,632.2,120.7,632.4,120.7z"/>
  <path d="M691.4,125.2C691.4,125.2,691.4,125.2,691.4,125.2l-59.1-3.4c-0.8,0-1.5-0.7-1.5-1.5l-1.2-91.8c0-0.4,0.2-0.9,0.5-1.2    c0.3-0.3,0.7-0.5,1.2-0.4l55,3.3l16.7,16.9L693,123.9C692.9,124.6,692.2,125.2,691.4,125.2z M690.8,123.6    C690.8,123.6,690.8,123.6,690.8,123.6L690.8,123.6z M633.1,119.6l57.8,3.3l9.9-75.1l-15.4-15.6l-53.5-3.2L633.1,119.6z"/>
  <path fill="#005787" d="M688.2,129.3l-3.4-1.1c-0.6-0.2-1.3,0-1.7,0.4l-2.6,2.5c-0.4,0.4-1.1,0.3-1.2-0.2l-2.8-12.1l9.9-2.3l2.8,12.1    C689.3,129.1,688.8,129.5,688.2,129.3z"/>
  <radialGradient id="SVGID_1_" cx="760.5229" cy="-50.9377" r="13.0606" gradientTransform="matrix(0.7041 -0.1643 0.1643 0.7041 153.1609 273.4466)" gradientUnits="userSpaceOnUse">
    <stop offset="0.4417" style="stop-color:#0091B0"/>
    <stop offset="0.8542" style="stop-color:#1BACC8"/>
  </radialGradient>
  <path fill="url(#SVGID_1_)" d="M679.6,122.2c0,0-0.1,0-0.1,0c-0.9-0.1-1.4-0.7-1.9-1.2l0,0c-0.3-0.3-0.4-0.5-0.6-0.5l0,0l0,0      c-0.1,0-0.1,0-0.4,0c-0.2,0-0.3,0-0.5,0c-0.2,0-0.4,0-0.6,0c-0.5,0-1.1-0.1-1.6-0.5c-0.6-0.6-0.7-1.4-0.8-2.1l0-0.1      c0-0.4-0.1-0.6-0.1-0.8l0,0c-0.1-0.1-0.2-0.2-0.6-0.4l0,0c-0.6-0.4-1.3-0.8-1.5-1.7c-0.2-0.8,0.2-1.5,0.6-2.2l0-0.1      c0.2-0.3,0.3-0.5,0.3-0.7l0,0l0,0c0-0.1-0.1-0.3-0.2-0.7l0-0.1c-0.2-0.6-0.5-1.4-0.2-2.2c0.3-0.8,1.1-1.1,1.7-1.4l0,0      c0.4-0.2,0.6-0.3,0.7-0.4l0,0l0,0c0.1-0.1,0.2-0.3,0.3-0.8c0.2-0.7,0.4-1.5,1.1-1.9c0.2-0.1,0.3-0.2,0.5-0.2      c0.2,0,0.3-0.1,0.5-0.1c0.4,0,0.8,0.1,1.1,0.2l0,0c0.3,0.1,0.6,0.1,0.7,0.1c0,0,0.1,0,0.1,0c0.1,0,0.3-0.2,0.7-0.5l0,0      c0.4-0.3,0.9-0.7,1.4-0.8c0.1,0,0.3,0,0.4,0c0.1,0,0.1,0,0.2,0c0.9,0.1,1.4,0.7,1.9,1.2c0.4,0.5,0.5,0.5,0.6,0.6l0,0l0,0      c0.1,0,0.2,0,0.3,0c0.1,0,0.3,0,0.4,0l0,0c0.2,0,0.4,0,0.6,0c0.5,0,1.1,0.1,1.6,0.5c0.6,0.5,0.7,1.3,0.8,2l0,0      c0,0.4,0.1,0.7,0.1,0.8l0,0l0,0c0.1,0.1,0.2,0.2,0.6,0.5c0.6,0.4,1.3,0.8,1.5,1.7c0.2,0.9-0.3,1.6-0.6,2.2l0,0.1      c-0.2,0.4-0.3,0.5-0.3,0.7l0,0c0,0.1,0.1,0.4,0.2,0.8l0,0c0.2,0.7,0.5,1.4,0.2,2.2c-0.3,0.8-1.1,1.1-1.7,1.4      c-0.6,0.3-0.7,0.4-0.8,0.4l0,0l0,0c-0.1,0.1-0.2,0.3-0.3,0.8c-0.2,0.7-0.4,1.5-1.1,1.9c-0.2,0.1-0.3,0.2-0.5,0.2      c-0.2,0-0.3,0.1-0.5,0.1c-0.4,0-0.8-0.1-1.1-0.2c-0.3-0.1-0.6-0.1-0.8-0.1c0,0-0.1,0-0.1,0c-0.1,0-0.3,0.2-0.7,0.5      c-0.4,0.3-0.9,0.7-1.4,0.8C679.9,122.2,679.8,122.2,679.6,122.2z"/>
  <path fill="#0091B0" d="M681,103.3c0,0,0.1,0,0.1,0c0.8,0.1,1.3,0.7,1.7,1.1c0.4,0.5,0.6,0.6,0.6,0.6l0,0l0,0c0.1,0,0.2,0,0.4,0      c0.2,0,0.3,0,0.5,0l0,0c0.2,0,0.4,0,0.5,0c0.7,0,1.1,0.1,1.4,0.4c0.6,0.5,0.6,1.2,0.7,1.9l0,0c0,0.5,0.1,0.8,0.2,0.9l0,0l0,0      c0.1,0.1,0.3,0.2,0.7,0.5c0.6,0.4,1.2,0.8,1.4,1.5c0.2,0.8-0.2,1.4-0.6,2l0,0c-0.2,0.4-0.3,0.6-0.4,0.8l0,0l0,0      c0,0.2,0.1,0.4,0.3,0.9l0,0c0.2,0.6,0.5,1.3,0.2,2c-0.3,0.7-1,1-1.6,1.2l0,0c-0.7,0.3-0.8,0.4-0.8,0.4l0,0l0,0      c-0.1,0.1-0.2,0.4-0.3,0.8l0,0c-0.2,0.6-0.4,1.4-1,1.8c-0.1,0.1-0.3,0.1-0.5,0.2c-0.1,0-0.3,0.1-0.5,0.1c-0.4,0-0.7-0.1-1.1-0.2      c-0.3-0.1-0.6-0.1-0.8-0.1c0,0,0,0,0,0c-0.1,0-0.1,0-0.2,0l0,0l0,0c-0.2,0-0.4,0.2-0.8,0.5c-0.4,0.3-0.8,0.7-1.3,0.8      c-0.1,0-0.3,0-0.4,0c0,0-0.1,0-0.1,0c-0.8-0.1-1.3-0.6-1.7-1.1l0,0c-0.3-0.3-0.5-0.5-0.6-0.6l0,0l0,0c-0.1,0-0.2,0-0.4,0      c-0.2,0-0.4,0-0.5,0l0,0c-0.2,0-0.3,0-0.5,0c-0.7,0-1.1-0.1-1.4-0.4c-0.6-0.5-0.6-1.2-0.7-1.9l0-0.1c0-0.5-0.1-0.7-0.2-0.9l0,0      l0,0c-0.1-0.1-0.3-0.2-0.6-0.5l-0.1,0c-0.5-0.3-1.2-0.8-1.4-1.5c-0.2-0.7,0.2-1.4,0.6-2l0,0l0,0l0-0.1c0.2-0.4,0.3-0.6,0.4-0.7      l0,0l0,0c0-0.2-0.1-0.4-0.2-0.8l0-0.1c-0.2-0.6-0.5-1.3-0.2-2c0.3-0.7,1-1,1.6-1.3l0,0c0.4-0.2,0.7-0.3,0.8-0.4l0,0l0,0      c0.1-0.1,0.2-0.4,0.3-0.9c0.2-0.7,0.4-1.4,1-1.8c0.1-0.1,0.3-0.1,0.5-0.2c0.1,0,0.3,0,0.5,0c0.4,0,0.7,0.1,1.1,0.2l0,0l0,0      c0.3,0.1,0.6,0.1,0.8,0.1c0.1,0,0.1,0,0.2,0c0.2,0,0.4-0.2,0.8-0.5l0,0c0.4-0.3,0.8-0.7,1.3-0.8      C680.7,103.3,680.8,103.3,681,103.3 M681,102.8c-0.2,0-0.3,0-0.5,0.1c-0.6,0.1-1.1,0.5-1.5,0.9c-0.2,0.1-0.5,0.4-0.6,0.4      c0,0,0,0-0.1,0c-0.2,0-0.5-0.1-0.7-0.1c-0.4-0.1-0.8-0.2-1.2-0.2c-0.2,0-0.4,0-0.6,0.1c-0.2,0.1-0.4,0.1-0.6,0.2      c-0.8,0.5-1.1,1.4-1.3,2.1c-0.1,0.2-0.2,0.6-0.2,0.7c-0.1,0.1-0.4,0.2-0.7,0.3c-0.7,0.3-1.5,0.6-1.9,1.5c-0.4,0.9,0,1.7,0.2,2.4      c0.1,0.2,0.2,0.6,0.2,0.7c0,0.1-0.2,0.4-0.3,0.6c-0.4,0.6-0.8,1.4-0.6,2.4c0.2,1,1,1.5,1.6,1.8c0.2,0.1,0.5,0.3,0.6,0.4      c0.1,0.1,0.1,0.5,0.1,0.7c0.1,0.7,0.2,1.6,0.9,2.2c0.5,0.5,1.2,0.6,1.8,0.6c0.2,0,0.4,0,0.6,0c0.1,0,0.3,0,0.4,0      c0.1,0,0.2,0,0.3,0c0.1,0.1,0.4,0.4,0.5,0.5c0.5,0.6,1.1,1.2,2,1.3c0.1,0,0.1,0,0.2,0c0.2,0,0.3,0,0.5-0.1      c0.6-0.1,1.1-0.5,1.5-0.9c0.2-0.1,0.5-0.4,0.6-0.4c0,0,0,0,0.1,0c0.2,0,0.5,0.1,0.7,0.1c0.4,0.1,0.8,0.2,1.2,0.2      c0.2,0,0.4,0,0.6-0.1c0.2-0.1,0.4-0.1,0.6-0.2c0.8-0.5,1.1-1.4,1.3-2.1c0.1-0.2,0.2-0.6,0.2-0.7c0.1-0.1,0.4-0.2,0.7-0.3      c0.7-0.3,1.5-0.6,1.9-1.5c0.4-0.9,0-1.7-0.2-2.4c-0.1-0.2-0.2-0.6-0.2-0.7c0-0.1,0.2-0.4,0.3-0.6c0.4-0.6,0.8-1.4,0.6-2.4      s-1-1.5-1.6-1.9c-0.2-0.1-0.5-0.3-0.6-0.4c-0.1-0.1-0.1-0.5-0.1-0.7c-0.1-0.7-0.2-1.6-0.9-2.2c-0.5-0.5-1.2-0.6-1.8-0.6      c-0.2,0-0.4,0-0.6,0c-0.1,0-0.3,0-0.5,0c-0.1,0-0.2,0-0.3,0c-0.1-0.1-0.4-0.3-0.5-0.5c-0.5-0.5-1.1-1.2-2-1.3      C681.1,102.8,681,102.8,681,102.8L681,102.8z"/>
  <path fill="#0D0E0E" d="M660.4,79.9c2.5,1.5,5.6,1.6,8.3,0.4c1.1-0.5,1.5-1.6,1-2.1l0,0c-0.4-0.6-1.3-0.6-2-0.2     c-1.9,0.9-4.2,0.8-5.9-0.2c-0.7-0.4-1.5-0.4-2,0.1l0,0C659.2,78.3,659.5,79.3,660.4,79.9z"/>
  <circle fill="#FFFFFF" cx="653" cy="64.7" r="9.9"/>
  <path d="M653,74.9c-5.6,0-10.2-4.6-10.2-10.2s4.6-10.2,10.2-10.2s10.2,4.6,10.2,10.2S658.6,74.9,653,74.9z M653,55.1      c-5.3,0-9.6,4.3-9.6,9.6s4.3,9.6,9.6,9.6c5.3,0,9.6-4.3,9.6-9.6S658.2,55.1,653,55.1z"/>
  <circle fill="#FFFFFF" cx="677.9" cy="65.7" r="9.9"/>
  <path d="M677.9,75.8c-5.6,0-10.2-4.6-10.2-10.2s4.6-10.2,10.2-10.2c5.6,0,10.2,4.6,10.2,10.2S683.5,75.8,677.9,75.8z       M677.9,56.1c-5.3,0-9.6,4.3-9.6,9.6s4.3,9.6,9.6,9.6c5.3,0,9.6-4.3,9.6-9.6S683.1,56.1,677.9,56.1z"/>
  <path d="M680,61.2c0,0.1,0,0.2,0,0.3c0,1.5-1.2,2.7-2.7,2.7c-1.5,0-2.7-1.2-2.7-2.6c-1.9,1.1-3.1,3.1-3.1,5.4     c0,3.5,2.8,6.3,6.3,6.3c3.5,0,6.3-2.8,6.3-6.3C684,64.4,682.4,62.1,680,61.2z M678.1,72.4c-0.7,0-1.3-0.6-1.3-1.3     c0-0.7,0.6-1.3,1.3-1.3s1.3,0.6,1.3,1.3C679.4,71.8,678.8,72.4,678.1,72.4z"/>
  <path d="M655.4,60.5c0,0.1,0,0.2,0,0.3c0,1.5-1.2,2.7-2.7,2.7c-1.5,0-2.7-1.2-2.7-2.7c-1.9,1.1-3.2,3.1-3.2,5.5     c0,3.5,2.8,6.3,6.3,6.3s6.3-2.8,6.3-6.3C659.3,63.7,657.7,61.4,655.4,60.5z M654.1,71.4c-0.7,0-1.3-0.6-1.3-1.3     c0-0.7,0.6-1.3,1.3-1.3s1.3,0.6,1.3,1.3C655.4,70.8,654.8,71.4,654.1,71.4z"/>
  <path fill="#0D0E0E" d="M653.6,49.3c-2-0.1-4.3,0.2-6.1,1.5c-1.3,0.9-1,2.6,1.1,1.8c2.1-0.8,5.9-0.9,9,0.3      C660.7,54.1,659.4,49.5,653.6,49.3z"/>
  <path fill="#0D0E0E" d="M681.2,51.1c2,0.4,4.2,1.3,5.7,2.9c1.1,1.2,0.4,2.8-1.5,1.5c-1.8-1.2-5.6-2.3-9-1.8      C673,54.2,675.4,49.9,681.2,51.1z"/>
  <polygon fill="#0D0E0E" points="689.6,90.1 689.2,92.5 638,89.7 637.9,87.2   "/>
  <polygon fill="#0D0E0E" points="688.9,94.8 688.6,97.3 638,94.5 638,94.5 638,92.1   "/>
  <polygon fill="#0D0E0E" points="688.3,99.4 688,101.8 638.1,99.1 638.1,96.6   "/>
  <rect x="639.3" y="112" transform="matrix(-0.9983 -5.774976e-02 5.774976e-02 -0.9983 1286.9838 263.0917)" fill="#0D0E0E" width="15.9" height="1.9"/>
  <path fill="#0D0E0E" d="M655.1,108.4c-1.4-1-3.3-1.4-5-1.1c0-0.1-0.1-0.3-0.1-0.4c-0.1-0.4-0.6-0.8-1-0.6c-0.8,0.3-1.6,0.6-2.3,0.9    c0-0.5,0.1-1.1,0.1-1.6c0-0.6-0.7-1.1-1.2-0.7c-1.8,1.3-3.6,2.6-5.5,3.9c-0.4,0.3-0.5,0.7-0.3,1.1c0.2,0.4,0.8,0.6,1.1,0.3    c1.4-1,2.7-2,4.1-3c0,0.4,0,0.8-0.1,1.2c0,0.5,0.6,1,1.1,0.8c0.9-0.4,1.8-0.7,2.7-1.1c0,0.1,0.1,0.2,0.1,0.3    c0.1,0.4,0.6,0.7,1,0.6c1.5-0.6,3.1-0.3,4.4,0.7c0.4,0.3,0.9,0.1,1.1-0.3C655.7,109.1,655.5,108.6,655.1,108.4z"/>
  <path fill="#FACC2C" d="M685.5,48.3c0,0.3,0.2,0.4,0.5,0.4l15.6-1.3l-16.1-16.2L685.5,48.3z"/>
  <path d="M685.9,49.8c-0.4,0-0.7-0.1-1-0.4c-0.3-0.3-0.5-0.7-0.5-1.1c0,0,0,0,0,0l0.1-17.1c0-0.4,0.3-0.8,0.6-1    c0.4-0.2,0.8-0.1,1.1,0.2l16.1,16.2c0.3,0.3,0.4,0.7,0.2,1.1c-0.1,0.4-0.5,0.6-0.9,0.7L686,49.8C686,49.8,686,49.8,685.9,49.8z     M686.6,33.7l0,13.9l12.8-1.1L686.6,33.7z"/>
  <path fill="#7F2F19" d="M641.2,18.7c-0.1,0-0.2,0-0.2-0.1l-9.4,20.7C634.8,32.5,638,25.6,641.2,18.7z"/>
  <path fill="#7F2F19" d="M588.8,133c0,0.6,0,1.2,0,1.8l51.8-114c-0.2,0-0.4-0.5-0.3-1.1c0-0.1,0-0.2,0-0.3L588.8,133z"/>
  <path fill="#7F2F19" d="M638,25c0.2,0.2,0.5-0.2,0.3-0.3C638.1,24.5,637.8,24.9,638,25z"/>
  <path fill="#8D341E" d="M641.7,10.1l0,0.4c0,0,0,0,0,0c0,0.1,0,0.1,0,0.1c0,0.8-0.3,1.7-0.4,2.4c-0.1,0.8-0.7,1.8-0.2,2.6     c0,0.1,0.1,0.1,0.2,0c0.7-0.5,0.8-1.6,1-2.4c0.2-1,0.5-2.2,0.4-3.2C642.4,9.5,641.6,9.5,641.7,10.1z"/>
  <path fill="#7F2F19" d="M588.6,56.8c-1.2,1.9-2.3,3.9-3.3,5.9c-0.1,0.1-0.1,0.3-0.2,0.4c-0.1,0.1-0.1,0.3-0.2,0.4     c-0.9,2-1.7,4.2-2.3,6.3c-1.9,6.7-2.5,14-0.9,20.8c1.8,7.6,5.5,14.7,7.3,22.3c2,8.5,1.3,16.4-3.3,23.9c-0.6,0.9-1.2,1.8-1.4,2.8     c-0.1,0.5,0.5,0.7,0.8,0.4c0.6-0.5,1-1.1,1.5-1.8c0,0,0.1,0,0.1-0.1c1.4-1.9,2.6-3.9,3.4-6c2.6-4,2.8-9.8,2.5-14.3     c-0.4-5.8-1.7-11.2-3.8-16.6c-2.3-5.8-4.1-11.2-4.1-17.5c0-1.9,0.1-3.8,0.4-5.7c0.5-1.1,1.1-2.1,1.6-3.1c1.3-2.5,3.3-4.6,4.3-7.2     c0.4-1,0.4-2.1,0.5-3.2c0.1-1.6,0.5-3.2,1.2-4.6c0.3-0.7,0.6-1.4,0.9-2.2c1.6-2.3,3.6-4.4,5.4-6.1c5.6-5.1,12.6-8.1,19.4-11.2     c5.7-2.6,11.2-5.5,15.8-9.9c2.2-2.1,4-4.6,5.5-7.3c0.2-0.3,0.4-0.7,0.5-1c1.2-2.2,2.1-4.5,2.9-6.8c0.3-1,2-7.3-1-6.1     c-0.7,0.3-0.5,1.2,0.1,1.3c-0.3,1-0.6,2.1-0.9,3.2c-0.1,0-0.1,0.1-0.1,0.2c-2.4,8.8-8,14.9-16,19.1c-6.9,3.7-14.7,5.5-21.6,9.2     C597.5,45.7,592.4,50.9,588.6,56.8z"/>
  <path fill="#8D341E" d="M587,59.4c-3.6,4.3-5.4,10.7-6.2,16.1c-1.1,6.6-0.2,13.2,1.7,19.5c2.2,7,5.6,13.6,7,20.9     c1.4,7.8-0.7,16.8-5.8,22.9c-0.5,0.6,0.4,1.3,0.9,0.7c4-4.8,5.4-11.5,5.8-17.6c0.5-6.8-2.4-13.4-4.6-19.7     c-2.6-7.2-4.7-13.8-4.5-21.5c0.1-2.3,0.4-4.5,0.8-6.8c0.1-0.3,0.2-0.7,0.3-1c0.2-0.4,0.3-0.9,0.5-1.4c0.4-1.2,1-2.4,1.5-3.6     c0.7-1.6,1.6-3.3,2.1-5c0.7-1.6,1.5-3.3,2.5-4.8c2.1-3.2,4.4-6.3,7.1-8.9c5.7-5.5,12.2-8.4,19.4-11.4c6.3-2.6,13.2-5,18.1-10     c4.3-4.5,8.4-10.2,9.3-16.6c0.1-0.8-1-1-1.2-0.2c-1.2,8.2-6.5,16-13.4,20.3c-6.5,4-13.8,5.9-20.6,9.1c-6.1,2.8-11.8,6.8-16,12.1     C590.1,54.4,588.4,56.8,587,59.4z"/>
  <path fill="#C04F27" d="M579.3,77.7c-0.3,1.2,1.5,1.5,2.3,1.7c1.4,0.2,2.9,0,4-0.8c0.2-0.1,0.1-0.5-0.1-0.5c-1.1-0.2-2.2,0-3.3-0.2     c-0.4-0.1-0.8-0.2-1.2-0.3c-0.3-0.1-0.5-0.4-0.9-0.4C579.8,77.1,579.4,77.3,579.3,77.7z"/>
  <path fill="#C04F27" d="M579.5,80.7c0.7,1,2.6,0.8,3.7,0.7c0.3,0,3-0.5,2.1-1.4c-0.1-0.1-0.2-0.1-0.4,0c-0.7,0.4-1.6,0.1-2.3,0     c-0.9-0.1-1.8-0.4-2.6-0.4C579.6,79.6,579.2,80.3,579.5,80.7z"/>
  <path fill="#C04F27" d="M579.7,83c0.7,1,2.3,0.6,3.3,0.4c0.9-0.2,2.2-0.2,2.5-1.3c0.1-0.2-0.2-0.4-0.4-0.3     c-0.6,0.4-1.7,0.2-2.3,0.3c-0.4,0-0.9,0.1-1.3,0.1c-0.4,0-0.7-0.2-1.2-0.2C579.7,81.9,579.4,82.6,579.7,83z"/>
  <path fill="#C04F27" d="M588.3,55.4c0.6-1.1,2.1-0.1,2.8,0.3c1.1,0.8,2.2,1.9,2.4,3.3c0,0.2-0.2,0.4-0.4,0.3     c-0.9-0.6-1.6-1.5-2.5-2.1c-0.4-0.2-0.7-0.4-1.1-0.5c-0.3-0.1-0.7-0.1-1-0.3C588.2,56.2,588.1,55.7,588.3,55.4z"/>
  <path fill="#C04F27" d="M590.4,53.4c1.2-0.2,2.5,1.2,3.2,2c0.2,0.3,1.8,2.4,0.6,2.4c-0.1,0-0.2-0.1-0.3-0.2     c-0.2-0.7-1.1-1.1-1.7-1.6c-0.7-0.5-1.6-0.9-2.2-1.5C589.8,54.2,589.9,53.5,590.4,53.4z"/>
  <path fill="#C04F27" d="M592.1,51.8c1.2-0.3,2.1,1.1,2.6,1.9c0.5,0.7,1.5,1.7,1,2.6c-0.1,0.2-0.5,0.1-0.5-0.1     c-0.1-0.7-1-1.3-1.5-1.8c-0.3-0.3-0.6-0.7-0.9-1c-0.3-0.3-0.7-0.4-1-0.6C591.4,52.6,591.6,51.9,592.1,51.8z"/>
  <path fill="#8D341E" d="M589.7,68.2c0,0.1,0.2,0,0.2,0c0,0,0,0,0,0c0,0,0-0.1-0.1-0.1c0,0,0,0,0,0c0,0,0,0,0,0    C589.7,68,589.6,68.1,589.7,68.2z"/>
  <path fill="#8D341E" d="M589.4,59c-1.9,3.1,0.8,6.5-0.6,9.7c-0.4,0.8-1.1,1.4-1.7,1.9c-0.7,0.5-1.3,1.1-1.9,1.7    c-1.2,1.1-2.4,2.6-2.5,4.3c0,0.1,0.1,0.2,0.2,0.1c0.7-1.7,1.7-3.1,3.1-4.4c1.2-1.1,2.7-2,3.4-3.4c0.6-1.3,0.5-2.8,0.3-4.1    c-0.1-0.9-0.4-1.7-0.4-2.6c0-1.1,0.4-2,0.5-3.1C589.6,58.9,589.5,58.9,589.4,59z"/>
  <path fill="#8D341E" d="M591.4,59.6c-0.4,0.7-1,1.5-1.2,2.4c0,0.1,0.1,0.1,0.1,0.1c0.7-0.6,0.9-1.6,1.3-2.4    C591.6,59.6,591.5,59.5,591.4,59.6z"/>
  <path fill="#8D341E" d="M586.2,67.2c-0.4,1-0.8,2.2-0.6,3.2c0,0.1,0.2,0.1,0.2,0c0.2-0.5,0.2-1.1,0.3-1.6c0.1-0.6,0.3-1.1,0.5-1.7    c0.4-1,1-1.9,1.6-2.7c0.1-0.1-0.1-0.2-0.2-0.1C587.2,65.1,586.7,66.1,586.2,67.2z"/>
  <path fill="#8D341E" d="M585.5,72.9c-0.2,0.6-0.3,1.3-0.5,1.9c-0.1,0.4-0.3,0.9-0.6,1.2c-0.2,0.3-0.4,0.4-0.6,0.7    c0,0.1,0,0.2,0.1,0.1c1.4-0.4,1.7-2.8,1.9-4C585.9,72.8,585.6,72.7,585.5,72.9z"/>
  <path fill="#8D341E" d="M600,48c-1.6,1.7-2.9,3.7-4.6,5.4c-0.1,0,0,0.1,0.1,0.1c0.9-0.5,1.6-1.3,2.2-2.1c0.7-0.9,1.4-1.9,2.2-2.7    c1.6-1.8,3.4-3.2,5.4-4.5c0.1-0.1,0-0.2-0.1-0.2C603.3,44.9,601.5,46.5,600,48z"/>
  <path fill="#8D341E" d="M594.5,52.5c0,0.1,0.1,0.1,0.1,0c0.5-1.1,1.6-1.7,2.7-2.2c1.2-0.6,2.4-1.1,3.6-1.7c1.5-0.8,3-1.8,4.4-2.7    c0.7-0.5,1.3-1.1,2-1.6c0.7-0.5,1.3-1.1,2-1.7c0.1-0.1,0-0.1-0.1-0.1c-1.5,1-2.8,2.2-4.3,3.2c-1.6,1.1-3.2,2-5,2.9    c-1.2,0.6-2.4,1.1-3.5,1.7C595.6,50.8,594.5,51.5,594.5,52.5z"/>
  <path fill="#8D341E" d="M581.6,84.7c0.4,0.7,0.7,1.4,1.1,2.1c0.4,0.6,0.8,1.2,1.2,1.8c0.7,1.4,0.5,2.6,0.2,4.1c0,0.1,0.1,0.1,0.1,0    c0.7-1.1,0.7-2.6,0.3-3.8c-0.3-0.7-0.7-1.3-1.1-1.9c-0.6-0.8-0.9-1.8-1.6-2.5C581.7,84.5,581.6,84.6,581.6,84.7z"/>
  <path fill="#8D341E" d="M583.9,84.1c-0.1,1.4-0.5,2.7-0.7,4.1c-0.2,1-0.4,2.5,0.4,3.3c0,0,0.1,0,0.1-0.1c-0.1-0.6-0.2-1.1-0.3-1.6    c0-0.7,0.1-1.5,0.2-2.2c0.2-1.2,0.6-2.4,0.4-3.6C584,84,583.9,84,583.9,84.1z"/>
  <path fill="#83635E" d="M184.8,58.3c-0.1,0.3,0,0.6,0.3,0.8c0.2,0.1,0.3,0.2,0.5,0.1c0.2-0.1,0.5-0.2,0.5-0.5     c0.1-0.7,0.4-1.3,0.6-2c0.1-0.3,0.2-0.7,0.4-1c0-0.1,0.1-0.2,0.1-0.4c-0.4,0-0.7,0.1-1,0.2c-0.1,0.1-0.2,0.3-0.2,0.4     C185.5,56.7,185.1,57.5,184.8,58.3z"/>
  <path fill="#83635E" d="M181.7,59.7c0,0.6,0.7,0.8,1.1,0.3c0.4-0.6,0.5-1.3,0.7-1.9c0.2-0.7,0.4-1.3,0.6-2c0,0,0,0,0,0     c-0.3,0.1-0.7,0.3-1,0.4c-0.2,0.4-0.4,0.8-0.6,1.1C182.2,58.3,181.8,59,181.7,59.7z"/>
  <path fill="#83635E" d="M185.5,60.9c-0.6-0.5-1.2-1.1-2-1.4c-0.6-0.2-0.9,0.6-0.5,1c0.8,0.6,1.5,1.3,2.3,1.9     c0.2,0.2,0.5,0.3,0.8,0.5c0.5-0.1,1.1-0.3,1.6-0.5c0,0,0,0,0,0C187,62,186.2,61.4,185.5,60.9z"/>
  <path fill="#B0958C" d="M182.1,62.9c-0.6-0.5-1.3-1-1.6-1.7c-0.1-0.2,0-0.4,0.2-0.5c1-0.1,1.8,0.6,2.5,1.2      c0.4,0.4,0.9,0.7,1.1,1.2c0.1,0,0.2,0,0.3,0c0.5-0.1,1-0.2,1.6-0.3c-0.3-0.1-0.6-0.3-0.8-0.5c-0.8-0.6-1.5-1.3-2.3-1.9      c-0.5-0.4-0.2-1.2,0.5-1c0.8,0.2,1.4,0.9,2,1.4c0.7,0.6,1.4,1.1,2.2,1.5c0,0,0,0,0,0c1.1-0.4,2.1-1,2.6-1.8      c0.6-1.2,0.5-2.1,0-2.7c0.1-0.4,0.2-0.9,0-1.3c-0.2-0.5-0.6-0.9-1-1c-0.4,0.7-0.7,1.4-1,2.2c-0.1,0.3-0.5,1.3-1,0.8      c-0.5-0.4,0.1-1.3,0.3-1.7c0.3-0.5,0.6-1,1-1.4c-0.5-0.1-1,0-1.4,0c0,0.1-0.1,0.3-0.1,0.4c-0.1,0.3-0.2,0.7-0.4,1      c-0.2,0.7-0.5,1.3-0.6,2c0,0.2-0.3,0.4-0.5,0.5c-0.2,0.1-0.4,0-0.5-0.1c-0.3-0.2-0.4-0.5-0.3-0.8c0.3-0.9,0.7-1.6,1.2-2.4      c0.1-0.1,0.1-0.3,0.2-0.4c-0.1,0-0.1,0-0.2,0c-0.5,0.1-1.2,0.3-1.9,0.6c0,0,0,0,0,0c-0.2,0.7-0.4,1.3-0.6,2      c-0.2,0.6-0.3,1.3-0.7,1.9c-0.3,0.5-1.1,0.3-1.1-0.3c0-0.7,0.4-1.4,0.7-2c0.2-0.4,0.4-0.8,0.6-1.1c-2.8,1.2-5.9,3.4-3.7,5.8      c0.4,0.4,0.8,0.6,1.4,0.8c-0.1-0.1-0.3-0.2-0.4-0.3c-0.5-0.4-0.8-0.8-1.2-1.4c-0.1-0.2,0.2-0.4,0.3-0.2c0.4,0.4,0.9,0.8,1.4,1.2      c0.3,0.3,0.8,0.5,1,0.9c0.2,0,0.4,0,0.6,0C182.4,63.2,182.3,63.1,182.1,62.9z"/>
  <path fill="#BA5B54" d="M180.7,60.7c-0.2,0-0.3,0.3-0.2,0.5c0.3,0.7,1,1.3,1.6,1.7c0.2,0.1,0.3,0.3,0.5,0.4c0.6,0,1.2-0.1,1.7-0.2      c-0.2-0.5-0.7-0.9-1.1-1.2C182.6,61.3,181.7,60.6,180.7,60.7z"/>
  <path fill="#493C38" d="M187.3,58.4c0.5,0.5,0.9-0.6,1-0.8c0.3-0.7,0.6-1.5,1-2.2c-0.2-0.1-0.4-0.1-0.7-0.2      c-0.4,0.4-0.7,0.9-1,1.4C187.4,57.1,186.9,58,187.3,58.4z"/>
  <path fill="#493C38" d="M179.5,61.2c-0.2-0.2-0.4,0-0.3,0.2c0.3,0.5,0.7,1,1.2,1.4c0.1,0.1,0.2,0.2,0.4,0.3      c0.4,0.1,0.8,0.2,1.3,0.2c-0.2-0.4-0.7-0.6-1-0.9C180.4,62.1,179.9,61.7,179.5,61.2z"/>
  <path fill="#9B4C37" d="M131.7,77.2c-0.1,0.2-0.2,0.3-0.3,0.5c0.2,0.1,0.4,0.2,0.6,0.3l59.8-20.2c0.1-0.4,0.2-0.9,0.4-1.3     l-60.6,20.4C131.7,76.9,131.8,77.1,131.7,77.2z"/>
  <path fill="#8695A2" d="M127.6,78.1c2.1-1.2,4.3-2.3,6.4-3.6c0.5-0.3,0.1-1-0.4-0.7l0,0c-2,1.3-4.1,2.3-6.1,3.5    c-2.1,1.2-4.1,2.4-6.3,3.4c-0.1,0.1-0.1,0.3,0.1,0.3C123.6,80.5,125.6,79.2,127.6,78.1z"/>
  <path fill="#8695A2" d="M135.9,79.2c0.1,0,0.1,0,0.2,0c0,0,0.1-0.1,0.1-0.1c0,0,0,0,0,0c0.1,0,0.1-0.1,0-0.2c0-0.1,0-0.2-0.1-0.3    c-0.3-0.5-0.8-1-0.2-1.5c0.8-0.8,2.2-0.6,3.1-1.1c0.3-0.2,0.2-0.6-0.1-0.6c-1.1,0-2.8,0.5-3.6,1.3c-0.7,0.7-0.4,1.6,0.2,2.3    c-1,0-2.1,0.2-3.1,0.2c-1.2,0.1-2.4,0.3-3.6,0.4c-1.2,0.1-2.4,0.1-3.5,0.3c-1.3,0.2-2.6,0.4-3.9,0.8c-0.5,0.2-0.2,0.8,0.2,0.6    c1.2-0.4,2.4-0.6,3.6-0.7c1.3-0.2,2.5-0.2,3.8-0.3c1.2-0.1,2.3-0.3,3.5-0.4C133.5,79.7,134.8,79.7,135.9,79.2z"/>
  <path fill="#8695A2" d="M138.8,75.8c0.2,0,0.3-0.2,0.3-0.4c0,0,0-0.1,0-0.1c0-0.3-0.3-0.7-0.5-0.8c-0.4-0.2-1.1,0.2-1.5,0.4    c-0.7,0.3-1.4,0.7-2.1,0.7c-0.6,0-0.4-1.3-1-1.6c-0.1-0.1-0.3,0.1-0.2,0.2c0.3,0.5,0,1.1,0.3,1.6c0.3,0.4,0.7,0.5,1.1,0.4    c0.5,0,1.1-0.2,1.6-0.4c0.3-0.1,0.5-0.2,0.7-0.3c0.1,0,0.7-0.3,0.9-0.2c0,0,0,0,0,0c0,0,0,0.1,0,0.1c-0.1,0.2,0,0.4,0.2,0.4    C138.5,75.8,138.7,75.9,138.8,75.8z"/>
  <path fill="#8695A2" d="M135.4,79c0.5-0.1,0.4-0.9-0.1-0.8c0-0.1-0.1-0.1-0.1-0.2c0-0.1,0-0.2-0.1-0.3c-0.1-0.3,0-0.5,0.1-0.8    c0-0.1,0-0.1,0-0.2c1-0.4,2-0.8,3-1.2c0.4-0.1,0.3-0.8-0.1-0.7c-1.1,0.4-2.2,0.8-3.3,1.2c0-0.1-0.1-0.1-0.1-0.2    c-0.2-0.1-0.3-0.2-0.5-0.1c0,0,0,0,0,0c0,0,0-0.1,0-0.1c0-0.2,0-0.3-0.1-0.4c0-0.1,0-0.1,0-0.2c0.1-0.3,0.1-0.5-0.2-0.7    c-0.2-0.1-0.4,0-0.5,0.1c-0.1,0.1-0.2,0.3-0.2,0.4c-0.1,0.1-0.2,0.2-0.3,0.3c-0.1,0-0.2-0.1-0.3,0c-0.7,0.3-1.4,0.9-2.1,1.4    c-0.3,0.2-0.6,0.3-0.9,0.5c-0.4,0.2-0.2,0.9,0.3,0.7c0,0,0,0,0.1,0c-0.2,0.3,0,0.7,0.4,0.7c0,0,0,0,0,0c-0.1,0.2,0,0.6,0.3,0.6    c0.2,0,0.4,0,0.6,0c0.6,0.1,1.2,0.2,1.8,0.1c0.1,0,0.1,0.1,0.2,0.1c0.4,0,0.7,0,1,0c0.2,0,0.5,0,0.7,0c0.1,0,0.1,0,0.1,0    C135.2,79,135.3,79,135.4,79z M132.9,78.2c0-0.1,0-0.2,0-0.2c0.1-0.1,0.2-0.1,0.3-0.2c-0.1,0.1-0.1,0.3,0,0.4    C133.1,78.2,133,78.2,132.9,78.2z"/>
  <path fill="#8695A2" d="M130.9,79.5c0.6,0,1.2,0,1.8-0.3c0.1,0,0.1-0.1,0.2-0.1c0.1-0.1,0.2-0.3,0.1-0.5c0-0.1,0-0.1,0-0.2    c0.4-0.1,0.3-0.6,0.1-0.8c-0.1-0.1-0.2-0.2-0.4-0.2c-0.3,0-0.5,0.1-0.8,0.2c0,0-0.1,0-0.1,0c-0.3,0.1-0.7,0.1-1,0.2    c0.1-0.1,0.2-0.1,0.2-0.2c0.2-0.1,0.4-0.3,0.6-0.4c0.3-0.3-0.1-0.8-0.4-0.6c-0.2,0.1-0.5,0.3-0.7,0.5c-0.1,0.1-0.2,0.1-0.3,0.2    c-0.1,0-0.1,0-0.2,0c-0.1,0-0.2,0-0.3,0.1c0-0.1-0.1-0.1-0.2-0.2c-0.1-0.2-0.3-0.4-0.5-0.3c-0.2,0.1-0.4,0.2-0.5,0.3    c-0.9,0.6-2,1-2.8,1.7c0,0,0,0-0.1,0.1c-0.5,0.1-0.9,0.3-1.3,0.6c-0.2,0.2,0,0.6,0.3,0.6c0.6-0.1,1.1-0.3,1.7-0.5    c0.1,0,0.1,0,0.2,0c0.1,0.1,0.2,0.2,0.4,0.1c0.2,0,0.4-0.1,0.6-0.1c0.1,0.1,0.2,0.2,0.4,0.2c0.7-0.2,1.5-0.3,2.2-0.4    c0.1,0,0.1,0,0.2,0C130.4,79.6,130.7,79.5,130.9,79.5z"/>
  <path fill="#8695A2" d="M137.2,75.6c0.1-0.2,0-0.4-0.2-0.4c-0.5-0.1-1,0.3-1.5,0.3c-0.8,0-1-0.6-1.2-1.2c-0.2-0.6-0.9-0.5-1.2,0    c-0.1,0.1,0,0.2,0.1,0.3c0,0,0.1,0,0.1,0c0.1,0,0.3-0.1,0.4-0.2c0.1,0,0.1,0.5,0.1,0.6c0.1,0.5,0.3,0.8,0.7,1    C135.4,76.3,136.7,76.4,137.2,75.6z"/>
  <path fill="#8695A2" d="M139.1,75.4c0-0.4-0.2-1-0.6-1.1c-0.3-0.1-0.5,0.1-0.8,0.2c-0.1,0.1-0.5,0.3-0.3,0.5c0.3,0.2,0.6,0,0.9-0.1    c0,0,0,0,0,0c0,0,0,0.1,0,0.1c0,0.2,0,0.4,0,0.6C138.4,76.1,139.1,75.9,139.1,75.4z"/>
  <path fill="#A0A9B2" d="M125.9,79.2c-0.4,0.2-0.9,0.4-1.3,0.6c0.8-0.1,1.5-0.3,2.2-0.6c1.3-0.5,2.6-1,3.9-1.4c1.3-0.4,2.6-0.9,4-1.3    c1.2-0.4,2.5-0.7,3.8-1.1c0.1,0,0.1-0.1,0.2-0.1c0.1-0.1,0-0.3-0.1-0.4c0,0,0,0,0,0c-0.1,0-0.2,0-0.3,0.1c0,0,0,0-0.1,0.1    c-1.3,0.5-2.5,0.8-3.8,1.2c-1.2,0.4-2.4,0.8-3.6,1.2c-1,0.4-2.1,0.7-3.1,1.1c-0.2,0.1-0.5,0.2-0.7,0.3c0,0,0,0-0.1,0    C126.6,79,126.3,79.1,125.9,79.2C126,79.2,126,79.2,125.9,79.2z"/>
  <path fill="#727F88" d="M134.2,77.3c1,0,1.2,0.7,1.2,1.1c0,0.1-0.1,0.2-0.3,0.3c-0.6,0.1-1.1,0.2-1.7,0.2c-0.6,0-1.2,0.1-1.8,0.1    c0,0,0,0-0.1,0c-0.2,0.1-0.5,0-0.6,0c-0.1,0-0.2-0.1-0.2-0.2c-0.1-0.1,0-0.2,0.3-0.3c0.6-0.2,1.2-0.5,1.8-0.7    C133.2,77.5,133.6,77.4,134.2,77.3z"/>
  <path fill="#727F88" d="M133.7,75.9c0.8-0.6,0.5-1.3,0.3-1.6c0-0.1-0.2-0.1-0.4,0c-0.5,0.2-1,0.5-1.5,0.9c-0.5,0.4-1,0.6-1.5,1    c0,0,0,0,0,0c-0.2,0.1-0.4,0.3-0.5,0.4c-0.1,0.1-0.1,0.2,0,0.2c0,0.1,0.2,0.2,0.4,0.1c0.6-0.2,1.3-0.3,1.9-0.5    C132.8,76.4,133.2,76.3,133.7,75.9z"/>
  <path fill="#B0958C" d="M185.5,75.5c0.2,0,0.5-0.1,0.7-0.1c0.1-0.4,0.1-0.8,0.1-1.2c0.1-0.9,0.4-1.7,0.6-2.5     c-0.2,0-0.4,0.1-0.6,0.1C186,72.8,185.4,74.3,185.5,75.5z"/>
  <path fill="#B0958C" d="M187.4,75.4c0.1,0.1,0.3,0.2,0.4,0c0.5-0.4,0.6-1.3,0.8-1.9c0.3-0.6,0.7-1.3,0.7-2.1c-0.3,0-0.5,0-0.7,0     c-0.4,0.6-0.7,1.3-1,1.9C187.3,74,186.9,74.9,187.4,75.4z"/>
  <path fill="#B0958C" d="M190,74.5c-0.3-0.2-0.6,0.3-0.3,0.5c0.6,0.5,1.3,1.1,2,1.5c0.3,0.2,0.7,0.5,1,0.7c0.3-0.2,0.6-0.5,0.8-0.9     c-0.3-0.3-0.7-0.5-1.1-0.7C191.6,75.2,190.8,74.9,190,74.5z"/>
  <path fill="#83635E" d="M183.6,75.8c-0.3-0.3,0.2-0.7,0.5-0.5c0.7,0.5,1.3,1.1,1.9,1.8c0.2,0.3,0.6,0.8,0.7,1.3      c0.9,0.1,1.8,0.1,2.8,0c0.4,0,0.8-0.1,1.1-0.2c-0.5-0.3-0.9-0.6-1.4-1.1c-0.4-0.4-0.9-0.8-1.2-1.3c-0.1-0.1,0.1-0.2,0.2-0.2      c0.5,0.2,0.9,0.7,1.3,1.1c0.5,0.4,1,0.9,1.6,1.2c0.1,0,0.1,0.1,0.1,0.1c0.5-0.2,0.9-0.4,1.3-0.7c-0.3-0.2-0.7-0.4-1-0.7      c-0.7-0.5-1.3-1-2-1.5c-0.3-0.2,0-0.7,0.3-0.5c0.8,0.4,1.6,0.7,2.4,1.1c0.4,0.2,0.8,0.4,1.1,0.7c0.3-0.5,0.4-1.1,0.3-1.8      c-0.1-0.8-0.6-1.4-1.2-1.9c-0.1,0.3-0.3,0.6-0.4,0.8c-0.3,0.5-0.5,1-1,1.2c-0.1,0.1-0.2,0-0.2-0.1c0.1-0.5,0.4-0.9,0.7-1.3      c0.2-0.3,0.4-0.6,0.6-0.9c-0.8-0.5-1.8-0.8-2.8-0.9c0,0.7-0.4,1.4-0.7,2.1c-0.2,0.6-0.3,1.5-0.8,1.9c-0.1,0.1-0.3,0.1-0.4,0      c-0.5-0.5-0.2-1.5,0.1-2c0.3-0.6,0.6-1.3,1-1.9c-0.3,0-0.7,0-1,0c-0.2,0-0.4,0.1-0.6,0.1c-0.3,0.8-0.5,1.7-0.6,2.5      c-0.1,0.4-0.1,0.8-0.1,1.2c-0.2,0-0.5,0.1-0.7,0.1c-0.1-1.2,0.5-2.7,0.9-3.8c-1.3,0.3-2.8,0.9-3.9,1.8c0,0.9-0.4,1.9-1,2.6      c-0.1,0.2-0.3,0.2-0.5,0.1c0.1,0.1,0.2,0.2,0.3,0.2c0,0,0,0,0,0c1.2,0.8,2.3,1.3,3.5,1.6c0,0,0-0.1,0-0.1      C184.5,77.3,184.1,76.5,183.6,75.8z"/>
  <path fill="#BA5B54" d="M186,77.1c-0.5-0.7-1.2-1.3-1.9-1.8c-0.3-0.2-0.7,0.2-0.5,0.5c0.5,0.6,0.9,1.5,1.3,2.2c0,0,0,0.1,0,0.1      c0.6,0.1,1.1,0.2,1.7,0.3C186.5,77.9,186.2,77.5,186,77.1z"/>
  <path fill="#493C38" d="M191.2,77.9c-0.6-0.3-1.1-0.7-1.6-1.2c-0.4-0.4-0.8-0.8-1.3-1.1c-0.1,0-0.2,0.1-0.2,0.2      c0.3,0.5,0.8,0.9,1.2,1.3c0.4,0.4,0.9,0.8,1.4,1.1c0.2-0.1,0.5-0.1,0.7-0.2C191.3,77.9,191.2,77.9,191.2,77.9z"/>
  <path fill="#493C38" d="M181.6,76.2c0.5-0.7,0.9-1.7,1-2.6c-0.6,0.5-1.1,1-1.3,1.7c-0.2,0.2-0.2,0.5-0.2,0.7c0,0,0,0,0,0      c0,0.1,0,0.3,0.1,0.4C181.3,76.4,181.5,76.3,181.6,76.2z"/>
  <path fill="#493C38" d="M190.8,74.6c0,0.1,0.1,0.2,0.2,0.1c0.5-0.3,0.7-0.8,1-1.2c0.2-0.3,0.3-0.5,0.4-0.8      c-0.1-0.1-0.2-0.2-0.4-0.3c-0.2,0.3-0.4,0.6-0.6,0.9C191.2,73.7,190.9,74.1,190.8,74.6z"/>
  <path fill="#9B4C37" d="M133.6,82.6c0,0-0.1,0.1-0.1,0.1l61-7.8c0.2-0.4,0.4-0.8,0.6-1.2l-61.4,7.9     C133.8,81.9,133.8,82.3,133.6,82.6z"/>
  <path fill="#8695A2" d="M128.4,82.2c2.3-0.7,4.7-1.3,7-2.2c0.5-0.2,0.3-0.9-0.2-0.8l0,0c-2.2,0.8-4.5,1.5-6.7,2.2     c-2.3,0.7-4.5,1.5-6.9,2c-0.2,0-0.1,0.3,0,0.3C124,83.7,126.2,82.8,128.4,82.2z"/>
  <path fill="#8695A2" d="M136.3,85c0.1,0,0.1,0,0.2,0c0,0,0.1,0,0.1-0.1c0,0,0,0,0,0c0.1,0,0.1-0.1,0.1-0.1c0-0.1,0-0.2,0-0.4     c-0.2-0.6-0.6-1.1,0.1-1.5c1-0.6,2.3-0.1,3.3-0.5c0.3-0.1,0.3-0.6,0-0.6c-1.1-0.2-2.8-0.1-3.8,0.5c-0.8,0.5-0.7,1.5-0.3,2.3     c-1-0.2-2.1-0.2-3.1-0.4c-1.2-0.2-2.4-0.3-3.6-0.4c-1.2-0.1-2.3-0.4-3.5-0.4c-1.3-0.1-2.7-0.2-4,0c-0.5,0.1-0.3,0.8,0.1,0.7     c1.2-0.1,2.4,0,3.7,0c1.3,0.1,2.5,0.3,3.8,0.5c1.2,0.1,2.4,0.2,3.5,0.4C133.9,85,135.2,85.3,136.3,85z"/>
  <path fill="#8695A2" d="M139.8,82.2c0.2,0,0.4-0.1,0.4-0.4c0,0,0-0.1,0-0.1c0.1-0.3-0.1-0.7-0.4-0.9c-0.4-0.3-1.1-0.1-1.6,0     c-0.7,0.2-1.5,0.4-2.2,0.2c-0.6-0.1-0.1-1.4-0.6-1.8c-0.1-0.1-0.3,0.1-0.2,0.2c0.2,0.5-0.3,1.1,0,1.7c0.2,0.4,0.6,0.6,1,0.7     c0.5,0.1,1.1,0,1.6-0.1c0.3,0,0.5-0.1,0.8-0.2c0.1,0,0.8-0.1,0.9,0c0,0,0,0,0,0c0,0,0,0.1,0,0.1c-0.1,0.2-0.1,0.4,0.1,0.5     C139.6,82.2,139.7,82.3,139.8,82.2z"/>
  <path fill="#8695A2" d="M135.8,84.6c0.5,0,0.5-0.8,0-0.8c0-0.1,0-0.1-0.1-0.2c0.1-0.1,0.1-0.2,0-0.3c0-0.3,0.1-0.5,0.3-0.8     c0-0.1,0-0.1,0-0.2c1-0.1,2.1-0.4,3.1-0.5c0.4-0.1,0.4-0.7,0-0.7c-1.1,0.1-2.3,0.3-3.5,0.5c0-0.1,0-0.1-0.1-0.2     c-0.1-0.1-0.2-0.2-0.4-0.2c0,0,0,0,0,0c0,0,0,0,0-0.1c0.1-0.1,0.1-0.3,0-0.4c0-0.1,0-0.1,0-0.2c0.2-0.2,0.2-0.5,0-0.8     c-0.1-0.2-0.4-0.1-0.5,0c-0.1,0.1-0.2,0.2-0.3,0.3c-0.1,0.1-0.2,0.1-0.3,0.2c-0.1-0.1-0.2-0.1-0.3-0.1c-0.8,0.2-1.6,0.6-2.3,0.9     c-0.3,0.1-0.7,0.2-1,0.3c-0.4,0.1-0.3,0.8,0.1,0.8c0,0,0.1,0,0.1,0c-0.3,0.2-0.1,0.7,0.3,0.8c0,0,0,0,0,0     c-0.1,0.2-0.1,0.6,0.2,0.6c0.2,0,0.4,0.1,0.6,0.1c0.5,0.2,1.1,0.4,1.7,0.5c0,0.1,0.1,0.1,0.2,0.1c0.3,0.1,0.7,0.1,1,0.2     c0.2,0.1,0.5,0.1,0.7,0.1c0.1,0,0.1,0,0.1,0C135.6,84.6,135.7,84.6,135.8,84.6z M133.6,83.4c0-0.1,0-0.2,0-0.2     c0.1,0,0.3-0.1,0.4-0.1c-0.1,0.1-0.1,0.3-0.1,0.4C133.8,83.4,133.7,83.4,133.6,83.4z"/>
  <path fill="#8695A2" d="M131.4,84.2c0.6,0.1,1.2,0.2,1.8,0.1c0.1,0,0.1,0,0.2-0.1c0.2-0.1,0.2-0.3,0.2-0.4c0,0,0-0.1,0.1-0.1     c0.4-0.1,0.5-0.6,0.2-0.7c-0.1-0.1-0.2-0.3-0.4-0.3c-0.3,0-0.5,0-0.8,0c0,0-0.1,0-0.1,0c-0.4,0-0.7,0-1.1,0     c0.1,0,0.2-0.1,0.3-0.1c0.2-0.1,0.5-0.2,0.7-0.3c0.3-0.2,0.1-0.8-0.3-0.7c-0.2,0.1-0.5,0.2-0.8,0.4c-0.1,0-0.2,0.1-0.3,0.1     c-0.1,0-0.1-0.1-0.2-0.1c-0.1,0-0.2,0-0.3,0c0-0.1-0.1-0.2-0.1-0.2c0-0.2-0.2-0.5-0.5-0.4c-0.2,0.1-0.4,0.1-0.6,0.2     c-1,0.4-2.2,0.5-3.1,1.1c0,0,0,0-0.1,0c-0.5,0-1,0.1-1.4,0.3c-0.3,0.2-0.2,0.6,0.2,0.6c0.6,0,1.2,0,1.8-0.1c0.1,0,0.1,0,0.2,0     c0.1,0.1,0.2,0.2,0.3,0.2c0.2,0,0.4,0,0.6,0c0,0.1,0.2,0.3,0.4,0.3c0.7,0,1.5,0,2.2,0c0.1,0,0.1,0.1,0.2,0.1     C130.9,84.2,131.1,84.2,131.4,84.2z"/>
  <path fill="#8695A2" d="M138.4,81.7c0.1-0.1,0.1-0.4-0.1-0.4c-0.5-0.2-1,0.1-1.5,0c-0.8-0.2-0.8-0.8-0.9-1.5     c-0.1-0.6-0.8-0.6-1.1-0.2c-0.1,0.1-0.1,0.2,0,0.3c0,0,0,0.1,0.1,0.1c0.1,0,0.3-0.1,0.4-0.1c0.1,0,0,0.5,0,0.6     c0,0.5,0.2,0.9,0.5,1.1C136.4,82,137.7,82.4,138.4,81.7z"/>
  <path fill="#8695A2" d="M140.2,81.9c0-0.4,0.1-1-0.4-1.2c-0.3-0.1-0.5,0-0.8,0.1c-0.1,0-0.6,0.2-0.4,0.4c0.2,0.3,0.6,0.1,0.9,0.1     c0,0,0,0,0,0c0,0,0,0.1,0,0.1c0,0.2-0.1,0.4-0.1,0.6C139.4,82.4,140.1,82.4,140.2,81.9z"/>
  <path fill="#A0A9B2" d="M126.6,82.9c-0.5,0.1-0.9,0.2-1.4,0.3c0.7,0.1,1.6,0,2.3-0.1c1.4-0.2,2.7-0.5,4.1-0.6     c1.4-0.1,2.8-0.4,4.1-0.5c1.3-0.1,2.6-0.2,3.9-0.3c0.1,0,0.2,0,0.2-0.1c0.2-0.1,0.1-0.3,0-0.4c0,0,0,0,0,0c-0.1,0-0.2,0-0.3,0     c0,0-0.1,0-0.1,0c-1.3,0.2-2.7,0.2-4,0.3c-1.3,0.1-2.5,0.3-3.8,0.4c-1.1,0.2-2.2,0.3-3.3,0.4c-0.3,0-0.5,0.1-0.8,0.1     c0,0,0,0-0.1,0C127.3,82.8,127,82.8,126.6,82.9C126.6,82.9,126.6,82.9,126.6,82.9z"/>
  <path fill="#727F88" d="M135,82.8c1,0.2,1,1,1,1.3c0,0.1-0.2,0.2-0.3,0.2c-0.6,0-1.1-0.1-1.7-0.2c-0.6-0.1-1.2-0.2-1.8-0.3     c0,0,0,0-0.1,0c-0.3,0-0.5-0.1-0.6-0.2c-0.1-0.1-0.2-0.1-0.1-0.2c0-0.1,0.1-0.2,0.3-0.3c0.7-0.1,1.3-0.2,1.9-0.4     C134,82.8,134.4,82.7,135,82.8z"/>
  <path fill="#727F88" d="M134.8,81.3c0.9-0.4,0.8-1.1,0.7-1.5c0-0.1-0.2-0.2-0.4-0.1c-0.6,0.1-1.1,0.3-1.6,0.5     c-0.6,0.2-1.1,0.4-1.7,0.7c0,0,0,0-0.1,0c-0.2,0-0.4,0.2-0.6,0.3c-0.1,0.1-0.1,0.2-0.1,0.2c0,0.1,0.1,0.2,0.4,0.2     c0.7-0.1,1.3-0.1,1.9-0.1C133.9,81.5,134.3,81.5,134.8,81.3z"/>
  <path fill="#B0958C" d="M176.1,45.7c0.2-0.1,0.4-0.3,0.6-0.4c-0.1-0.4-0.2-0.8-0.3-1.2c-0.2-0.8-0.3-1.7-0.4-2.6     c-0.2,0.1-0.3,0.2-0.5,0.3C175.5,43.1,175.5,44.6,176.1,45.7z"/>
  <path fill="#B0958C" d="M177.9,44.9c0.1,0.1,0.3,0,0.4-0.1c0.3-0.6,0-1.4,0-2.1c0-0.7,0.1-1.5-0.2-2.2c-0.2,0.1-0.5,0.1-0.7,0.2     c-0.1,0.7-0.2,1.5-0.2,2.2C177.2,43.6,177.2,44.6,177.9,44.9z"/>
  <path fill="#B0958C" d="M179.9,43.1c-0.4,0-0.4,0.5-0.1,0.6c0.8,0.3,1.6,0.5,2.4,0.7c0.4,0.1,0.8,0.2,1.2,0.2     c0.2-0.3,0.3-0.7,0.4-1.1c-0.4-0.2-0.8-0.2-1.3-0.2C181.6,43.2,180.7,43.2,179.9,43.1z"/>
  <path fill="#83635E" d="M174.4,46.7c-0.3-0.2-0.1-0.8,0.3-0.6c0.9,0.2,1.6,0.5,2.4,1c0.4,0.2,0.8,0.5,1.1,0.9      c0.9-0.3,1.7-0.6,2.6-1.1c0.3-0.2,0.7-0.4,1-0.6c-0.6-0.1-1.1-0.2-1.7-0.5c-0.5-0.2-1.2-0.4-1.6-0.8c-0.1-0.1,0-0.2,0.1-0.2      c0.6,0,1.1,0.3,1.6,0.5c0.6,0.2,1.3,0.4,1.9,0.5c0.1,0,0.1,0,0.2,0.1c0.4-0.4,0.7-0.7,1-1.2c-0.4,0-0.8-0.1-1.2-0.2      c-0.8-0.2-1.6-0.4-2.4-0.7c-0.3-0.1-0.3-0.6,0.1-0.6c0.9,0.1,1.8,0.1,2.6,0.2c0.5,0.1,0.9,0.1,1.3,0.2c0.1-0.6,0-1.2-0.4-1.8      c-0.4-0.7-1.1-1.1-1.8-1.3c0,0.3,0,0.6-0.1,0.9c-0.1,0.5-0.1,1.1-0.5,1.5c-0.1,0.1-0.2,0-0.2-0.1c-0.1-0.5,0.1-1,0.2-1.4      c0.1-0.4,0.2-0.7,0.2-1.1c-0.9-0.2-2,0-2.9,0.2c0.3,0.7,0.2,1.5,0.2,2.2c0,0.7,0.3,1.5,0,2.1c-0.1,0.2-0.3,0.2-0.4,0.1      c-0.7-0.3-0.7-1.3-0.6-1.9c0.1-0.7,0.1-1.5,0.2-2.2c-0.3,0.1-0.6,0.3-0.9,0.4c-0.2,0.1-0.4,0.2-0.5,0.3c0,0.9,0.1,1.7,0.4,2.6      c0.1,0.4,0.2,0.8,0.3,1.2c-0.2,0.1-0.4,0.3-0.6,0.4c-0.6-1.1-0.6-2.6-0.5-3.8c-1.1,0.8-2.2,1.9-2.9,3.1c0.3,0.9,0.3,1.9,0.1,2.8      c0,0.2-0.2,0.3-0.4,0.3c0.1,0.1,0.2,0.1,0.3,0.1c0,0,0,0,0,0c1.4,0.3,2.7,0.3,3.9,0.1c0,0,0,0-0.1-0.1      C175.8,47.7,175.2,47.1,174.4,46.7z"/>
  <path fill="#BA5B54" d="M177.1,47c-0.8-0.5-1.5-0.7-2.4-1c-0.4-0.1-0.6,0.5-0.3,0.6c0.7,0.4,1.4,1,2,1.6c0,0,0,0,0.1,0.1      c0.6-0.1,1.1-0.2,1.7-0.4C177.9,47.6,177.5,47.3,177.1,47z"/>
  <path fill="#493C38" d="M182.2,45.7c-0.7-0.1-1.3-0.3-1.9-0.5c-0.5-0.2-1.1-0.5-1.6-0.5c-0.1,0-0.2,0.1-0.1,0.2      c0.4,0.4,1.1,0.6,1.6,0.8c0.5,0.2,1.1,0.4,1.7,0.5c0.2-0.1,0.4-0.3,0.6-0.5C182.3,45.8,182.3,45.8,182.2,45.7z"/>
  <path fill="#493C38" d="M172.7,47.8c0.2-0.9,0.2-1.9-0.1-2.8c-0.4,0.7-0.6,1.4-0.6,2.1c-0.1,0.3,0,0.5,0.1,0.7c0,0,0,0,0,0      c0,0.1,0.1,0.2,0.2,0.3C172.5,48.1,172.7,48,172.7,47.8z"/>
  <path fill="#493C38" d="M180.7,42.9c0,0.1,0.2,0.1,0.2,0.1c0.4-0.4,0.4-1,0.5-1.5c0-0.3,0.1-0.6,0.1-0.9c-0.1,0-0.3-0.1-0.4-0.1      c-0.1,0.4-0.1,0.7-0.2,1.1C180.7,41.9,180.5,42.4,180.7,42.9z"/>
  <path fill="#9B4C37" d="M130.7,71.9c0,0,0,0.1,0,0.1l53.5-30.3c0-0.4,0.1-0.9,0.1-1.3L130.4,71C130.6,71.2,130.8,71.5,130.7,71.9z"/>
  <path fill="#8695A2" d="M125.8,73.4c1.9-1.5,3.8-3,5.7-4.6c0.4-0.4-0.1-1-0.5-0.7l0,0c-1.7,1.6-3.6,3-5.4,4.5     c-1.9,1.5-3.7,3.1-5.6,4.5c-0.1,0.1,0,0.3,0.1,0.2C122.2,76.5,124,74.9,125.8,73.4z"/>
  <path fill="#8695A2" d="M134.1,73.1c0.1,0,0.1,0,0.2-0.1c0,0,0.1-0.1,0.1-0.1c0,0,0,0,0,0c0.1,0,0-0.1,0-0.2c0-0.1-0.1-0.2-0.2-0.3     c-0.4-0.5-0.9-0.8-0.5-1.4c0.7-0.9,2.1-1,2.8-1.7c0.2-0.2,0.1-0.7-0.2-0.6c-1.1,0.2-2.6,1-3.3,1.9c-0.6,0.8-0.1,1.7,0.6,2.2     c-1,0.2-2,0.6-3,0.8c-1.2,0.3-2.3,0.7-3.5,1c-1.1,0.3-2.3,0.5-3.4,0.9c-1.3,0.4-2.5,0.8-3.7,1.5c-0.5,0.2,0,0.9,0.3,0.6     c1.1-0.6,2.2-1,3.4-1.4c1.2-0.4,2.5-0.7,3.7-1c1.1-0.3,2.3-0.7,3.4-1C131.9,74,133.1,73.8,134.1,73.1z"/>
  <path fill="#8695A2" d="M136.3,69.2c0.2-0.1,0.3-0.2,0.2-0.5c0,0,0-0.1-0.1-0.1c-0.1-0.3-0.4-0.6-0.7-0.7c-0.5-0.1-1.1,0.4-1.4,0.6     c-0.6,0.4-1.2,0.9-1.9,1c-0.6,0.1-0.6-1.3-1.3-1.4c-0.1,0-0.2,0.2-0.2,0.3c0.4,0.4,0.2,1.1,0.6,1.5c0.3,0.3,0.8,0.3,1.2,0.2     c0.5-0.1,1-0.4,1.5-0.7c0.2-0.1,0.4-0.3,0.7-0.5c0.1-0.1,0.7-0.4,0.8-0.4c0,0,0,0,0,0c0,0,0,0.1,0,0.1c-0.1,0.2,0.1,0.4,0.3,0.4     C136.1,69.3,136.2,69.3,136.3,69.2z"/>
  <path fill="#8695A2" d="M133.5,72.9c0.5-0.2,0.2-0.9-0.3-0.8c0-0.1-0.1-0.1-0.1-0.1c0-0.1,0-0.2-0.1-0.3c-0.1-0.3-0.1-0.5,0-0.8     c0-0.1,0-0.1,0-0.2c0.9-0.5,1.8-1.2,2.7-1.7c0.4-0.2,0.1-0.8-0.3-0.6c-1,0.6-2,1.2-3,1.8c0-0.1-0.1-0.1-0.2-0.1     c-0.2-0.1-0.3-0.1-0.5-0.1c0,0,0,0,0,0c0,0,0-0.1,0-0.1c0-0.2-0.1-0.3-0.2-0.4c0-0.1,0-0.1-0.1-0.2c0.1-0.3,0-0.5-0.3-0.7     c-0.2-0.1-0.4,0-0.5,0.2c-0.1,0.1-0.1,0.3-0.2,0.4c-0.1,0.1-0.1,0.2-0.2,0.3c-0.1,0-0.2,0-0.3,0.1c-0.7,0.4-1.2,1.1-1.8,1.7     c-0.3,0.2-0.5,0.4-0.8,0.6c-0.4,0.2,0,0.9,0.4,0.7c0,0,0,0,0.1,0c-0.2,0.3,0.2,0.7,0.5,0.6c0,0,0,0,0,0c-0.1,0.2,0.1,0.6,0.4,0.5     c0.2,0,0.4-0.1,0.6-0.2c0.6,0,1.2,0,1.8-0.2c0.1,0,0.1,0.1,0.2,0.1c0.4,0,0.7-0.1,1-0.2c0.2,0,0.5-0.1,0.7-0.2c0,0,0.1,0,0.1-0.1     C133.4,73,133.5,73,133.5,72.9z M131,72.6c0-0.1,0-0.2-0.1-0.2c0.1-0.1,0.2-0.2,0.3-0.2c0,0.1,0,0.3,0.1,0.4     C131.2,72.6,131.1,72.6,131,72.6z"/>
  <path fill="#8695A2" d="M129.2,74.2c0.6-0.1,1.2-0.2,1.7-0.6c0.1,0,0.1-0.1,0.2-0.1c0.1-0.1,0.1-0.3,0-0.5c0-0.1,0-0.1,0-0.2     c0.3-0.2,0.2-0.7-0.1-0.8c-0.1-0.1-0.3-0.2-0.4-0.1c-0.2,0.1-0.5,0.2-0.7,0.3c0,0-0.1,0-0.1,0c-0.3,0.1-0.7,0.3-1,0.4     c0.1-0.1,0.1-0.1,0.2-0.2c0.2-0.2,0.4-0.3,0.5-0.5c0.2-0.3-0.2-0.8-0.5-0.5c-0.2,0.2-0.4,0.4-0.6,0.7c-0.1,0.1-0.2,0.1-0.3,0.2     c-0.1,0-0.1,0-0.2,0c-0.1,0-0.2,0.1-0.3,0.1c0-0.1-0.1-0.1-0.2-0.1c-0.1-0.2-0.4-0.3-0.6-0.2c-0.2,0.1-0.3,0.3-0.5,0.4     c-0.8,0.7-1.8,1.3-2.5,2.2c0,0,0,0,0,0.1c-0.5,0.2-0.9,0.4-1.1,0.8c-0.2,0.3,0.1,0.6,0.4,0.5c0.6-0.2,1.1-0.5,1.6-0.8     c0.1,0,0.1,0,0.2-0.1c0.1,0.1,0.2,0.1,0.4,0.1c0.2-0.1,0.4-0.1,0.5-0.2c0.1,0.1,0.3,0.2,0.4,0.1c0.7-0.3,1.4-0.6,2.1-0.8     c0.1,0,0.1,0,0.2,0C128.8,74.4,129,74.3,129.2,74.2z"/>
  <path fill="#8695A2" d="M134.8,69.3c0.1-0.2-0.1-0.4-0.3-0.4c-0.5,0-0.9,0.5-1.4,0.5c-0.8,0.1-1-0.4-1.4-1c-0.3-0.5-1-0.3-1.2,0.2     c0,0.1,0,0.2,0.1,0.3c0,0,0.1,0,0.1,0c0.1,0,0.2-0.2,0.4-0.2c0.1-0.1,0.2,0.5,0.2,0.5c0.1,0.4,0.5,0.7,0.9,0.9     C133,70.2,134.4,70.1,134.8,69.3z"/>
  <path fill="#8695A2" d="M136.6,68.8c-0.1-0.4-0.3-1-0.8-1c-0.3,0-0.5,0.2-0.7,0.4c-0.1,0.1-0.5,0.4-0.2,0.5     c0.3,0.2,0.6-0.1,0.9-0.3c0,0,0,0,0,0c0,0,0,0.1,0,0.1c0,0.2,0.1,0.4,0.2,0.6C136,69.5,136.7,69.2,136.6,68.8z"/>
  <path fill="#A0A9B2" d="M124.3,74.8c-0.4,0.3-0.8,0.5-1.2,0.8c0.7-0.2,1.4-0.6,2.1-0.9c1.2-0.7,2.4-1.5,3.6-2.1     c1.3-0.6,2.4-1.4,3.7-2c1.2-0.6,2.3-1.2,3.5-1.7c0.1,0,0.1-0.1,0.1-0.2c0.1-0.2,0-0.3-0.2-0.4c0,0,0,0,0,0     c-0.1,0-0.2,0.1-0.3,0.1c0,0,0,0-0.1,0.1c-1.2,0.7-2.4,1.2-3.6,1.8c-1.1,0.6-2.2,1.3-3.3,1.8c-1,0.6-1.9,1.1-2.9,1.6     c-0.2,0.1-0.4,0.3-0.7,0.4c0,0,0,0-0.1,0C124.9,74.5,124.6,74.6,124.3,74.8C124.3,74.8,124.3,74.8,124.3,74.8z"/>
  <path fill="#727F88" d="M132.1,71.5c1-0.2,1.3,0.5,1.4,0.9c0,0.1-0.1,0.2-0.2,0.3c-0.5,0.2-1,0.4-1.6,0.5c-0.6,0.1-1.2,0.3-1.8,0.4     c0,0,0,0,0,0c-0.2,0.1-0.5,0.1-0.6,0.1c-0.1,0-0.2-0.1-0.2-0.1c-0.1-0.1,0-0.2,0.2-0.4c0.6-0.3,1.1-0.7,1.6-1     C131.1,71.9,131.5,71.7,132.1,71.5z"/>
  <path fill="#727F88" d="M131.3,70.2c0.7-0.7,0.3-1.3,0-1.6c-0.1-0.1-0.2-0.1-0.4,0c-0.5,0.3-0.9,0.7-1.3,1.1     c-0.4,0.4-0.9,0.8-1.3,1.2c0,0,0,0,0,0c-0.2,0.1-0.3,0.3-0.4,0.5c-0.1,0.1-0.1,0.2,0,0.2c0,0.1,0.2,0.2,0.4,0     c0.6-0.3,1.2-0.5,1.8-0.8C130.6,70.8,131,70.6,131.3,70.2z"/>
  <path d="M581.8,71.5c-0.9-1.2-2.2-1.9-3.5-2.1l-0.4-0.1l-0.2-0.4c-0.3-0.6-0.4-1.2-0.3-1.8c0.1-0.8,0.4-1.6,1-2.3   c0.2-0.2,0.6-0.8,1.5-0.8c0.3,0,0.5,0.1,0.8,0.2c0.7,0.3,1.2,0.5,1.6,0.9c0.7,0.5,1.4,1.1,1.9,1.6c1.1,1.1,1.2,2.2,0.3,3.6   c-0.3,0.5-0.9,1-1.5,1.4l-0.6,0.4L581.8,71.5z"/>
  <path fill="#FFFFFF" d="M582.5,71c-1.1-1.4-2.6-2.2-4.1-2.4c-0.2-0.4-0.3-0.9-0.2-1.3c0.1-0.7,0.4-1.3,0.8-1.9   c0.4-0.5,0.7-0.6,1.3-0.4c0.5,0.2,1,0.4,1.5,0.8c0.6,0.5,1.2,1,1.8,1.5c0.8,0.8,0.8,1.6,0.2,2.5C583.4,70.2,583,70.7,582.5,71z"/>
  <path d="M583.8,68c-1.3-1.6-2.6-2.5-4.1-2.9l-0.5-0.1l-0.1-0.5c-0.3-1.5,0.4-3,1.7-3.7c0.4-0.2,0.8-0.3,1.3-0.3   c0.4,0,0.9,0.1,1.3,0.4c0.3,0.2,0.7,0.4,1.1,0.8c0.3,0.2,0.4,0.5,0.5,0.9c0.1,0.7,0.5,1.1,1.2,1.3l0.5,0.1l0.1,0.5   c0.2,1.8-0.4,3-1.9,3.8l-0.6,0.3L583.8,68z"/>
  <path fill="#FFFFFF" d="M585.8,64.6c0.2,1.4-0.2,2.3-1.4,2.9c-1.2-1.5-2.6-2.7-4.5-3.2c-0.2-1.2,0.3-2.3,1.2-2.8   c0.6-0.3,1.2-0.3,1.8,0c0.3,0.2,0.6,0.4,0.9,0.7c0.1,0.1,0.2,0.3,0.2,0.4C584.3,63.6,584.8,64.3,585.8,64.6z"/>
  <path d="M581.3,75.3c-2.4,0-3.6-1.4-4.2-2.1c-0.1-0.1-0.2-0.3-0.3-0.3l-0.1-0.1l-0.1-0.1c-0.3-0.6-0.4-1.2-0.3-1.8l0-0.1   c0.1-0.7,0.2-1.3,0.7-2c0.3-0.4,0.7-0.6,1.2-0.6c0.4,0,0.9,0.2,1.2,0.3l0.1,0c0.7,0.3,1.2,0.5,1.6,0.9c0.1,0.1,0.3,0.2,0.4,0.3   c0.6,0.4,1.2,0.8,1.6,1.5c0.6,1,0.6,2.2,0.2,2.9l-0.1,0.1c-0.3,0.5-0.8,1.2-1.7,1.2C581.5,75.3,581.4,75.3,581.3,75.3z"/>
  <path fill="#FFFFFF" d="M581.6,74.5c-2.6,0.1-3.6-1.7-4.2-2.2c-0.2-0.4-0.3-0.9-0.2-1.3c0.1-0.7,0.1-1.2,0.6-1.7c0.4-0.5,1-0.2,1.6,0   c0.5,0.2,1,0.4,1.5,0.8c0.6,0.5,1.4,0.8,1.8,1.5c0.5,0.8,0.5,1.6,0.2,2C582.4,73.9,582.1,74.5,581.6,74.5z"/>
  <path fill="#FFFFFF" d="M591.5,66.8c0-5-2.1-3.8-2.2-3.7c-0.3,0.2-0.3,0.2-0.6,0.4c-0.5,0.3-1.4,0.6-1.9,0.6c-0.8,0-1.9-0.6-2.1-1.4   l0,0c0.1-0.6,0.4-1.3,0.8-1.8c0.9-1.1,1.9-2.2,2.9-3.2c0.6-0.7,1.2-0.7,2-0.3c1.2,0.6,2.5,1.6,3.3,2.6"/>
  <rect fill="none" width="756" height="178"/>
  <path fill="#333333" d="M278,164.1c-3.5,0-6.4-0.5-8.7-1.5s-4-2.3-5.2-3.9c-1.2-1.6-1.8-3.3-1.9-5.1c0-0.3,0.1-0.5,0.3-0.8    c0.2-0.2,0.5-0.3,0.8-0.3h6.6c0.5,0,0.9,0.1,1.1,0.3c0.3,0.2,0.5,0.4,0.7,0.7c0.3,0.5,0.7,1,1.2,1.5c0.5,0.5,1.2,0.9,2,1.2    c0.8,0.3,1.8,0.4,3,0.4c2,0,3.5-0.3,4.6-0.9c1-0.6,1.5-1.5,1.5-2.6c0-0.8-0.3-1.4-0.8-1.9c-0.6-0.5-1.5-1-2.7-1.4    c-1.2-0.4-2.9-0.8-4.9-1.2c-2.6-0.6-4.9-1.3-6.8-2.2c-1.9-0.9-3.3-2.1-4.2-3.5c-1-1.4-1.5-3.2-1.5-5.4c0-2.1,0.6-4,1.8-5.7    c1.2-1.7,2.9-3,5-3.9c2.2-0.9,4.7-1.4,7.7-1.4c2.4,0,4.5,0.3,6.3,0.9s3.4,1.5,4.6,2.5c1.3,1,2.2,2.1,2.8,3.3c0.6,1.2,1,2.3,1,3.4    c0,0.3-0.1,0.5-0.3,0.8c-0.2,0.2-0.5,0.3-0.8,0.3h-6.9c-0.4,0-0.7-0.1-1-0.2c-0.3-0.1-0.5-0.4-0.7-0.7c-0.2-0.8-0.8-1.4-1.6-2    c-0.9-0.6-2-0.9-3.5-0.9c-1.5,0-2.7,0.3-3.6,0.8c-0.9,0.5-1.3,1.4-1.3,2.5c0,0.7,0.2,1.3,0.7,1.8c0.5,0.5,1.3,1,2.3,1.4    c1.1,0.4,2.6,0.8,4.5,1.2c3.2,0.6,5.7,1.3,7.7,2.2c1.9,0.9,3.4,2,4.3,3.4c0.9,1.4,1.4,3.2,1.4,5.3c0,2.4-0.7,4.4-2,6.1    c-1.3,1.7-3.2,3-5.6,3.9C283.8,163.6,281.1,164.1,278,164.1z"/>
  <path fill="#333333" d="M308.3,164.1c-2,0-3.7-0.5-5.3-1.4s-2.8-2.2-3.6-4c-0.9-1.8-1.3-3.9-1.3-6.4v-14.5c0-0.4,0.1-0.7,0.4-0.9    c0.2-0.2,0.6-0.4,0.9-0.4h6.5c0.4,0,0.7,0.1,0.9,0.4c0.2,0.2,0.4,0.6,0.4,0.9V152c0,3.4,1.5,5.1,4.6,5.1c1.4,0,2.6-0.4,3.4-1.3    c0.9-0.9,1.3-2.1,1.3-3.8v-14.2c0-0.4,0.1-0.7,0.4-0.9c0.2-0.2,0.6-0.4,0.9-0.4h6.5c0.4,0,0.7,0.1,0.9,0.4    c0.2,0.2,0.4,0.6,0.4,0.9v24.5c0,0.4-0.1,0.7-0.4,0.9c-0.2,0.2-0.6,0.4-0.9,0.4h-6c-0.3,0-0.7-0.1-0.9-0.4    c-0.3-0.2-0.4-0.6-0.4-0.9v-2c-0.9,1.3-2.1,2.2-3.5,2.8C312,163.8,310.3,164.1,308.3,164.1z"/>
  <path fill="#333333" d="M344.2,164.1c-2.6,0-4.8-0.5-6.8-1.4c-2-0.9-3.6-2.3-4.7-4.1c-1.2-1.8-1.8-3.9-1.9-6.4c0-0.6-0.1-1.3-0.1-2.1    c0-0.9,0-1.6,0.1-2.1c0.1-2.5,0.7-4.7,1.9-6.5c1.1-1.8,2.7-3.2,4.7-4.1c2-0.9,4.3-1.4,6.9-1.4c2.4,0,4.4,0.3,6.2,1    c1.7,0.7,3.1,1.5,4.2,2.5c1.1,1,1.9,2,2.4,3.1c0.5,1.1,0.8,2,0.9,2.8c0,0.3-0.1,0.7-0.4,0.9c-0.3,0.3-0.6,0.4-0.9,0.4h-6.6    c-0.4,0-0.7-0.1-0.9-0.3c-0.2-0.2-0.4-0.4-0.6-0.8c-0.4-1.1-0.9-1.8-1.6-2.3c-0.6-0.5-1.5-0.7-2.5-0.7c-1.4,0-2.5,0.5-3.2,1.4    c-0.7,0.9-1.2,2.3-1.2,4.2c0,1.4,0,2.6,0,3.7c0.1,1.9,0.5,3.3,1.2,4.2c0.7,0.9,1.8,1.3,3.2,1.3c1.1,0,1.9-0.2,2.6-0.7    c0.6-0.5,1.1-1.2,1.5-2.3c0.2-0.3,0.4-0.6,0.6-0.8c0.2-0.2,0.5-0.3,0.9-0.3h6.6c0.3,0,0.7,0.1,0.9,0.4c0.3,0.3,0.4,0.6,0.4,0.9    c0,0.6-0.2,1.3-0.5,2.1c-0.3,0.8-0.8,1.6-1.5,2.5c-0.7,0.9-1.5,1.7-2.6,2.4c-1.1,0.7-2.3,1.3-3.8,1.8    C348,163.9,346.2,164.1,344.2,164.1z"/>
  <path fill="#333333" d="M375,164.1c-2.6,0-4.8-0.5-6.8-1.4c-2-0.9-3.6-2.3-4.7-4.1c-1.2-1.8-1.8-3.9-1.9-6.4c0-0.6-0.1-1.3-0.1-2.1    c0-0.9,0-1.6,0.1-2.1c0.1-2.5,0.7-4.7,1.9-6.5c1.1-1.8,2.7-3.2,4.7-4.1c2-0.9,4.3-1.4,6.9-1.4c2.4,0,4.4,0.3,6.2,1    c1.7,0.7,3.1,1.5,4.2,2.5c1.1,1,1.9,2,2.4,3.1c0.5,1.1,0.8,2,0.9,2.8c0,0.3-0.1,0.7-0.4,0.9c-0.3,0.3-0.6,0.4-0.9,0.4h-6.6    c-0.4,0-0.7-0.1-0.9-0.3c-0.2-0.2-0.4-0.4-0.6-0.8c-0.4-1.1-0.9-1.8-1.6-2.3c-0.6-0.5-1.5-0.7-2.5-0.7c-1.4,0-2.5,0.5-3.2,1.4    c-0.7,0.9-1.2,2.3-1.2,4.2c0,1.4,0,2.6,0,3.7c0.1,1.9,0.5,3.3,1.2,4.2c0.7,0.9,1.8,1.3,3.2,1.3c1.1,0,1.9-0.2,2.6-0.7    c0.6-0.5,1.1-1.2,1.5-2.3c0.2-0.3,0.4-0.6,0.6-0.8c0.2-0.2,0.5-0.3,0.9-0.3h6.6c0.3,0,0.7,0.1,0.9,0.4c0.3,0.3,0.4,0.6,0.4,0.9    c0,0.6-0.2,1.3-0.5,2.1c-0.3,0.8-0.8,1.6-1.5,2.5c-0.7,0.9-1.5,1.7-2.6,2.4c-1.1,0.7-2.3,1.3-3.8,1.8    C378.7,163.9,377,164.1,375,164.1z"/>
  <path fill="#333333" d="M405.8,164.1c-4.1,0-7.4-1.1-9.8-3.3s-3.7-5.5-3.8-9.9c0-0.2,0-0.6,0-0.9c0-0.4,0-0.7,0-0.9    c0.1-2.7,0.7-5.1,1.9-7.1c1.1-2,2.7-3.5,4.7-4.5c2-1,4.3-1.5,7-1.5c3.1,0,5.6,0.6,7.6,1.8c2,1.2,3.5,2.9,4.5,5    c1,2.1,1.5,4.5,1.5,7.1v1.3c0,0.4-0.1,0.7-0.4,0.9c-0.3,0.2-0.6,0.4-0.9,0.4h-16.7c0,0,0,0.1,0,0.2c0,0.1,0,0.1,0,0.2    c0,1,0.2,1.9,0.5,2.8c0.3,0.8,0.8,1.5,1.5,2c0.7,0.5,1.5,0.7,2.4,0.7c0.7,0,1.3-0.1,1.7-0.3c0.5-0.2,0.9-0.5,1.2-0.8    c0.3-0.3,0.6-0.5,0.7-0.8c0.3-0.3,0.6-0.6,0.8-0.7c0.2-0.1,0.5-0.1,0.9-0.1h6.5c0.3,0,0.6,0.1,0.9,0.3c0.2,0.2,0.3,0.5,0.3,0.8    c0,0.6-0.3,1.3-0.9,2.1c-0.6,0.8-1.4,1.7-2.4,2.5c-1.1,0.8-2.4,1.5-4,2C409.8,163.8,407.9,164.1,405.8,164.1z M401.4,147.2h8.8    v-0.1c0-1.1-0.2-2.1-0.5-2.9c-0.3-0.8-0.8-1.5-1.5-1.9c-0.7-0.5-1.5-0.7-2.4-0.7c-0.9,0-1.7,0.2-2.4,0.7c-0.6,0.5-1.1,1.1-1.5,1.9    c-0.3,0.8-0.5,1.8-0.5,2.9V147.2z"/>
  <path fill="#333333" d="M435.4,164.1c-2.3,0-4.2-0.3-5.8-0.8c-1.6-0.5-2.9-1.1-3.9-1.9c-1-0.7-1.7-1.5-2.2-2.3    c-0.5-0.8-0.7-1.5-0.8-2c0-0.4,0.1-0.7,0.4-1c0.3-0.3,0.6-0.4,0.9-0.4h5.9c0.1,0,0.2,0,0.3,0.1s0.2,0.1,0.3,0.2    c0.5,0.2,0.9,0.5,1.4,0.9c0.5,0.4,1,0.7,1.6,1c0.6,0.3,1.3,0.4,2.1,0.4c1,0,1.8-0.2,2.5-0.6c0.7-0.4,1-1,1-1.7    c0-0.6-0.2-1-0.5-1.4c-0.3-0.4-0.9-0.7-1.9-1.1c-1-0.3-2.4-0.7-4.3-1c-1.8-0.4-3.4-1-4.7-1.6c-1.4-0.7-2.4-1.6-3.1-2.7    c-0.7-1.1-1.1-2.4-1.1-4c0-1.4,0.5-2.7,1.4-4c0.9-1.3,2.2-2.3,4-3.2c1.7-0.8,3.9-1.2,6.4-1.2c2,0,3.8,0.2,5.2,0.7    c1.5,0.5,2.7,1.1,3.8,1.8c1,0.7,1.8,1.5,2.3,2.2c0.5,0.8,0.8,1.5,0.8,2.1c0,0.3-0.1,0.7-0.3,0.9c-0.2,0.3-0.5,0.4-0.8,0.4h-5.4    c-0.1,0-0.3,0-0.4-0.1c-0.1-0.1-0.3-0.1-0.4-0.2c-0.4-0.2-0.8-0.5-1.3-0.8c-0.4-0.3-0.9-0.7-1.5-0.9c-0.6-0.3-1.3-0.4-2.1-0.4    c-0.9,0-1.7,0.2-2.2,0.6c-0.5,0.4-0.8,1-0.8,1.6c0,0.5,0.1,0.9,0.4,1.3c0.3,0.4,0.9,0.7,1.8,1c0.9,0.3,2.4,0.7,4.3,1    c2.4,0.4,4.3,1,5.7,1.9c1.4,0.9,2.4,1.8,3,3c0.6,1.1,0.9,2.3,0.9,3.6c0,1.7-0.5,3.1-1.5,4.4c-1,1.3-2.5,2.3-4.4,3    C440.6,163.7,438.2,164.1,435.4,164.1z"/>
  <path fill="#333333" d="M464.3,164.1c-2.3,0-4.2-0.3-5.8-0.8c-1.6-0.5-2.9-1.1-3.9-1.9c-1-0.7-1.7-1.5-2.2-2.3s-0.7-1.5-0.8-2    c0-0.4,0.1-0.7,0.4-1c0.3-0.3,0.6-0.4,0.9-0.4h5.9c0.1,0,0.2,0,0.3,0.1s0.2,0.1,0.3,0.2c0.5,0.2,0.9,0.5,1.4,0.9    c0.5,0.4,1,0.7,1.6,1c0.6,0.3,1.3,0.4,2.1,0.4c1,0,1.8-0.2,2.5-0.6c0.7-0.4,1-1,1-1.7c0-0.6-0.2-1-0.5-1.4    c-0.3-0.4-0.9-0.7-1.9-1.1c-1-0.3-2.4-0.7-4.3-1c-1.8-0.4-3.4-1-4.7-1.6c-1.4-0.7-2.4-1.6-3.1-2.7c-0.7-1.1-1.1-2.4-1.1-4    c0-1.4,0.5-2.7,1.4-4c0.9-1.3,2.2-2.3,4-3.2c1.7-0.8,3.9-1.2,6.4-1.2c2,0,3.8,0.2,5.2,0.7c1.5,0.5,2.7,1.1,3.8,1.8    c1,0.7,1.8,1.5,2.3,2.2c0.5,0.8,0.8,1.5,0.8,2.1c0,0.3-0.1,0.7-0.3,0.9c-0.2,0.3-0.5,0.4-0.8,0.4h-5.4c-0.1,0-0.3,0-0.4-0.1    c-0.1-0.1-0.3-0.1-0.4-0.2c-0.4-0.2-0.8-0.5-1.3-0.8c-0.4-0.3-0.9-0.7-1.5-0.9c-0.6-0.3-1.3-0.4-2.1-0.4c-0.9,0-1.7,0.2-2.2,0.6    c-0.5,0.4-0.8,1-0.8,1.6c0,0.5,0.1,0.9,0.4,1.3c0.3,0.4,0.9,0.7,1.8,1c0.9,0.3,2.4,0.7,4.3,1c2.4,0.4,4.3,1,5.7,1.9    c1.4,0.9,2.4,1.8,3,3c0.6,1.1,0.9,2.3,0.9,3.6c0,1.7-0.5,3.1-1.5,4.4c-1,1.3-2.5,2.3-4.4,3C469.4,163.7,467,164.1,464.3,164.1z"/>
  <path fill="#333333" d="M483,163.6c-0.4,0-0.7-0.1-0.9-0.4c-0.2-0.2-0.4-0.6-0.4-0.9v-6.6c0-0.3,0.1-0.7,0.4-0.9    c0.2-0.3,0.6-0.4,0.9-0.4h6.6c0.4,0,0.7,0.1,1,0.4c0.3,0.3,0.4,0.6,0.4,0.9v6.6c0,0.4-0.1,0.7-0.4,0.9c-0.3,0.2-0.6,0.4-1,0.4H483    z"/>
</svg>
