<svg xmlns="http://www.w3.org/2000/svg" version="1.1" x="0px" y="0px" viewBox="0 0 200 200" style="enable-background:new 0 0 200 200;">
  <circle fill="#F7F8F9" cx="100" cy="100" r="100"/>
  <path fill="#FFFFFF" d="M75.3,152.7c-6.1,0-11.1-1.9-14.9-5.5c-3.9-3.7-5.9-8.7-5.9-14.9c0-2.1,0.1-4.2,0.2-6.2    c0.1-2.1,0.4-4.4,0.9-6.8c0.4-2.4,1-4.7,1.7-6.9c0.7-2.3,1.7-4.5,2.9-6.6c1.3-2.2,2.8-4.2,4.5-5.9c1.9-1.8,4.1-3.2,6.7-4.2    c2.6-1,5.4-1.5,8.4-1.5c0.4,0,0.8,0,1.1,0.1C76.4,89,74,82.6,74,75.3c0-7.6,2.5-14.2,7.4-19.6c5.1-5.6,11.3-8.4,18.5-8.4    c7.2,0,13.5,2.8,18.5,8.4c4.9,5.4,7.4,12,7.4,19.6c0,7.3-2.3,13.7-6.9,19c0.4-0.1,0.8-0.1,1.1-0.1c3,0,5.8,0.5,8.4,1.5    c2.6,1,4.8,2.5,6.7,4.2c1.7,1.7,3.3,3.6,4.5,5.9c1.2,2.1,2.2,4.3,2.9,6.6c0.7,2.1,1.2,4.4,1.7,6.9c0.4,2.4,0.7,4.7,0.9,6.8    c0.1,2,0.2,4.1,0.2,6.2c0,6.1-2,11.1-5.9,14.9c-3.8,3.7-8.9,5.5-14.9,5.5H75.3z"/>
  <path fill="#CFCFCF" d="M139.7,132.3c0,4.5-1.4,8.1-4.1,10.7c-2.7,2.6-6.4,3.9-10.9,3.9H75.3c-4.6,0-8.2-1.3-10.9-3.9    c-2.7-2.6-4.1-6.2-4.1-10.7c0-2,0.1-3.9,0.2-5.8c0.1-1.9,0.4-4,0.8-6.2c0.4-2.2,0.9-4.2,1.5-6.1c0.6-1.9,1.4-3.7,2.4-5.5    c1-1.8,2.2-3.3,3.5-4.6c1.3-1.3,2.9-2.3,4.8-3c1.9-0.7,4-1.1,6.3-1.1c0.3,0,1.1,0.4,2.4,1.2c1.2,0.8,2.6,1.7,4.2,2.7    c1.6,1,3.6,1.9,6.1,2.7c2.5,0.8,5,1.2,7.5,1.2c2.5,0,5-0.4,7.5-1.2c2.5-0.8,4.5-1.7,6.1-2.7c1.6-1,3-1.9,4.2-2.7    c1.2-0.8,2-1.2,2.4-1.2c2.3,0,4.4,0.4,6.3,1.1c1.9,0.8,3.5,1.8,4.8,3c1.3,1.3,2.5,2.8,3.5,4.6c1,1.8,1.8,3.6,2.4,5.5    c0.6,1.9,1.1,3.9,1.5,6.1c0.4,2.2,0.7,4.3,0.8,6.2C139.7,128.3,139.7,130.3,139.7,132.3z M114.3,59.6c3.9,4.3,5.9,9.6,5.9,15.7    c0,6.1-2,11.4-5.9,15.7c-3.9,4.3-8.7,6.5-14.3,6.5c-5.6,0-10.3-2.2-14.3-6.5c-3.9-4.3-5.9-9.6-5.9-15.7c0-6.1,2-11.4,5.9-15.7    c3.9-4.3,8.7-6.5,14.3-6.5C105.6,53.1,110.3,55.3,114.3,59.6z"/>
  <path fill="#CECECE" d="M184.2,176.7l-18.6-18.6c2.6-4,4-8.8,4-13.9c0-14.4-11.7-26-26-26s-26,11.7-26,26c0,14.4,11.7,26,26,26   c5.1,0,9.9-1.5,13.9-4l18.6,18.6c1.9,1.9,5.1,1.6,7.3-0.5l0.2-0.2C185.9,181.9,186.1,178.6,184.2,176.7z M128.2,144.1   c0-8.5,6.9-15.4,15.4-15.4s15.4,6.9,15.4,15.4s-6.9,15.4-15.4,15.4C135.1,159.6,128.2,152.7,128.2,144.1z"/>
  <path opacity="0.5" fill="#FFFFFF" d="M183.7,181.1c-2.3,0-4.5-0.9-6.1-2.5l-16.4-16.4c-4.1,2-8.6,3.1-13.2,3.1c-16.6,0-30.1-13.5-30.1-30.1   c0-16.6,13.5-30.1,30.1-30.1c16.6,0,30.1,13.5,30.1,30.1c0,4.6-1,9.1-3,13.2l16.5,16.5c3.5,3.5,3.2,9.4-0.5,13.1l-0.2,0.2   C188.8,180,186.2,181.1,183.7,181.1L183.7,181.1z"/>
  <path fill="#999999" d="M188.5,167.7l-18.6-18.6c2.6-4,4-8.8,4-13.9c0-14.4-11.7-26-26-26c-14.4,0-26,11.7-26,26c0,14.4,11.7,26,26,26   c5.1,0,9.9-1.5,13.9-4l18.6,18.6c1.9,1.9,5.1,1.6,7.3-0.5l0.2-0.2C190.2,172.9,190.4,169.6,188.5,167.7z M132.5,135.1   c0-8.5,6.9-15.4,15.4-15.4c8.5,0,15.4,6.9,15.4,15.4s-6.9,15.4-15.4,15.4S132.5,143.7,132.5,135.1z"/>
</svg>
