<svg xmlns="http://www.w3.org/2000/svg" width="140" height="40" viewBox="0 0 140 40" fill="none">
  <path d="M33.3057 4.43556C29.6229 1.53778 25.1911 0 20.4917 0C15.7923 0 11.3694 1.53778 7.77578 4.41778C7.4726 4.60444 7.2675 4.93333 7.20508 5.29778C7.15158 5.68889 7.2675 6.08 7.50827 6.35556C7.74903 6.67556 8.19489 6.89778 8.59617 6.89778C8.96177 6.89778 9.25604 6.79111 9.45222 6.59556C12.6357 4.06222 16.3541 2.77333 20.5006 2.77333C24.6471 2.77333 28.3388 4.09778 31.5579 6.60444C32.1643 7.05778 32.958 6.96889 33.4751 6.38222C33.7427 6.08 33.8675 5.70667 33.8229 5.33333C33.7872 4.97778 33.6 4.65778 33.3146 4.44444L33.3057 4.43556Z" fill="#4279B6"/>
  <path d="M28.6688 7.43111C26.3592 5.83111 23.47 4.95111 20.5541 4.95111C17.6382 4.95111 14.4637 5.95556 11.9758 7.77778C11.6548 7.98222 11.4318 8.32889 11.3694 8.71111C11.3159 9.08444 11.4229 9.44889 11.6369 9.68889C11.8599 10.0622 12.3146 10.32 12.7427 10.32C13.0369 10.32 13.2688 10.2489 13.6344 10.0267C15.7567 8.56 18.1643 7.78667 20.6165 7.78667C23.0688 7.78667 25.2089 8.46222 27.1172 9.73333C27.4025 9.94667 27.7681 10.0267 28.1427 9.95555C28.5261 9.88444 28.8649 9.66222 29.0433 9.36889C29.2573 9.08444 29.3376 8.72 29.2751 8.34667C29.2038 7.96444 28.9809 7.62667 28.6777 7.44L28.6688 7.43111Z" fill="#4279B6"/>
  <path d="M20.4917 9.97334C18.2 9.97334 16.256 10.7022 14.865 12.0889C14.3389 12.6844 14.3478 13.5289 14.8828 14.0622C15.2306 14.4089 15.5783 14.4533 15.8815 14.4533C16.0777 14.4533 16.586 14.4178 16.9427 14.0533C17.772 13.1644 18.9401 12.7378 20.5006 12.7378C22.0611 12.7378 23.3006 13.1822 24.1924 14.0711C24.4866 14.3289 24.8433 14.4533 25.1911 14.4533C25.5389 14.4533 25.9045 14.32 26.1898 14.0356C26.7159 13.44 26.707 12.5956 26.172 12.0622C24.7898 10.6844 22.828 9.96445 20.5006 9.96445L20.4917 9.97334Z" fill="#4279B6"/>
  <path d="M36.6943 8.01778C36.3197 7.55556 35.5885 7.49334 35.0892 7.89334C34.8573 8.08 34.7147 8.37334 34.6968 8.69334C34.6879 8.98667 34.7771 9.28 34.9733 9.52C37.3809 12.2044 38.6561 15.4311 38.6561 18.8533C38.6561 27.3689 30.479 34.3022 20.4382 34.3022C17.9503 34.3022 15.5516 33.8933 13.242 33.0756L12.7962 32.9867L6.52739 36.3467L7.76688 30.0178L7.28535 29.6356C4.05733 26.7111 2.27389 22.9422 2.27389 19.0311C2.27389 15.6089 3.54904 12.3822 5.96561 9.68001C6.14395 9.45778 6.24204 9.16445 6.23312 8.87112C6.2242 8.55112 6.08153 8.26667 5.84076 8.08001C5.3414 7.68001 4.61019 7.74223 4.24459 8.18667C1.47134 11.3156 0 15.0667 0 19.0222C0 23.3956 1.85478 27.5911 5.23439 30.8533L3.97707 37.9644C3.92357 38.3111 3.89682 38.8356 4.36943 39.1911C4.84204 39.5467 5.53758 39.2889 5.84076 39.12L12.9478 35.3511C15.2127 36.1333 17.7809 36.5511 20.3758 36.5511C31.7096 36.5511 40.9299 28.6044 40.9299 18.8356C40.9299 14.8178 39.4586 11.0667 36.6943 8.00889V8.01778Z" fill="#4279B6"/>
  <path d="M49.7401 9.19999V13.5467H48.2688V2.92444H52.1478C54.1185 2.92444 55.4382 4.28444 55.4382 6.07111C55.4382 7.85777 54.1185 9.19999 52.1478 9.19999H49.7401ZM51.8803 7.88444C53.1554 7.88444 53.9401 7.18222 53.9401 6.08888C53.9401 4.99555 53.1554 4.24888 51.8803 4.24888H49.7491V7.89333H51.8803V7.88444Z" fill="#0E1721"/>
  <path d="M61.0739 12.4533C60.7261 13.1467 59.9592 13.7422 58.8357 13.7422C56.7134 13.7422 55.4115 12.0356 55.4115 9.89333C55.4115 7.75111 56.7936 6.15111 58.8357 6.15111C60.1108 6.15111 60.8064 6.78222 61.0471 7.36889V6.34666H62.4471V12.2222C62.4471 12.8711 62.5096 13.4222 62.5185 13.5556H61.1541C61.1274 13.3867 61.0828 13.0133 61.0828 12.5778V12.4622L61.0739 12.4533ZM58.9694 12.4978C60.2624 12.4978 61.0561 11.3778 61.0561 9.89333C61.0561 8.40889 60.2713 7.38666 58.9783 7.38666C57.6854 7.38666 56.8471 8.40889 56.8471 9.89333C56.8471 11.3778 57.614 12.4978 58.9694 12.4978Z" fill="#0E1721"/>
  <path d="M68.0828 7.75999C67.8688 7.73332 67.6637 7.71555 67.4675 7.71555C66.2815 7.71555 65.479 8.34666 65.479 9.93777V13.5467H64.0701V6.33777H65.4522V7.59999C65.9784 6.48888 66.879 6.22221 67.6191 6.22221C67.8153 6.22221 68.0115 6.24888 68.0828 6.26666V7.76888V7.75999Z" fill="#0E1721"/>
  <path d="M69.6701 9.93778C69.6701 11.5822 70.7045 12.4711 71.8815 12.4711C73.237 12.4711 73.7274 11.5556 73.8968 10.9867L75.1452 11.5289C74.7975 12.56 73.7631 13.7778 71.8815 13.7778C69.7771 13.7778 68.2255 12.1333 68.2255 9.93778C68.2255 7.74222 69.8038 6.11555 71.8637 6.11555C73.7898 6.11555 74.7796 7.31555 75.0828 8.40889L73.8077 8.95111C73.6293 8.24889 73.1032 7.42222 71.8726 7.42222C70.7312 7.42222 69.679 8.25778 69.679 9.93778H69.6701Z" fill="#0E1721"/>
  <path d="M77.544 13.5467H76.135V2.69333H77.544V7.17333C78.0701 6.40888 78.9083 6.12444 79.7376 6.12444C81.4675 6.12444 82.3236 7.36888 82.3236 8.96888V13.5378H80.9147V9.20888C80.9147 8.20444 80.4956 7.39555 79.2293 7.39555C78.1503 7.39555 77.5796 8.23111 77.544 9.29777V13.5378V13.5467Z" fill="#0E1721"/>
  <path d="M83.8573 13.5467V6.33778H85.2127V7.29778C85.6675 6.50666 86.5682 6.13333 87.4064 6.13333C88.307 6.13333 89.1809 6.56889 89.5733 7.49333C90.144 6.46222 91.0803 6.13333 91.9898 6.13333C93.2561 6.13333 94.4866 6.98666 94.4866 8.87111V13.5467H93.0866V9.02222C93.0866 8.08 92.6229 7.37778 91.5529 7.37778C90.5631 7.37778 89.8854 8.16 89.8854 9.19111V13.5556H88.4764V9.03111C88.4764 8.09778 88.0217 7.38667 86.9427 7.38667C85.935 7.38667 85.2573 8.13333 85.2573 9.21778V13.5644H83.8573V13.5467Z" fill="#0E1721"/>
  <path d="M102.423 11.4933C102.013 12.7644 100.862 13.7689 99.1771 13.7689C97.2421 13.7689 95.5389 12.3644 95.5389 9.92C95.5389 7.65333 97.1796 6.11555 98.9987 6.11555C101.228 6.11555 102.468 7.64444 102.468 9.89333C102.468 10.0711 102.45 10.2578 102.441 10.3467H97.0013C97.0281 11.6356 97.9644 12.5333 99.186 12.5333C100.408 12.5333 100.943 11.8933 101.219 11.0756L102.441 11.4933H102.423ZM100.996 9.2C100.969 8.16889 100.292 7.36 99.0077 7.36C97.8217 7.36 97.0994 8.27555 97.037 9.2H100.987H100.996Z" fill="#0E1721"/>
  <path d="M104.982 13.5467H103.573V6.33777H104.955V7.36888C105.482 6.4711 106.338 6.12444 107.185 6.12444C108.915 6.12444 109.771 7.36888 109.771 8.96888V13.5378H108.362V9.20888C108.362 8.20444 107.943 7.39555 106.676 7.39555C105.562 7.39555 104.991 8.28444 104.991 9.37777V13.5467H104.982Z" fill="#0E1721"/>
  <path d="M113.204 6.33777H114.764V7.60888H113.204V11.3511C113.204 12.0089 113.471 12.3378 114.211 12.3378C114.39 12.3378 114.648 12.3111 114.764 12.2755V13.4755C114.639 13.52 114.283 13.6089 113.801 13.6089C112.571 13.6089 111.786 12.8622 111.786 11.5555V7.59999H110.404V6.32888H110.796C111.581 6.32888 111.911 5.84888 111.911 5.21777V4.04443H113.204V6.31999V6.33777Z" fill="#0E1721"/>
  <path d="M57.2038 22.8356C57.0522 21.8756 56.2408 20.4622 54.1631 20.4622C52.5936 20.4622 51.4968 21.5111 51.4968 22.6844C51.4968 23.6622 52.1121 24.4089 53.307 24.6667L55.5363 25.12C58.265 25.6622 59.7363 27.3867 59.7363 29.5644C59.7363 31.9644 57.7924 34.2489 54.2522 34.2489C50.3198 34.2489 48.5006 31.7244 48.2688 29.5022L50.7121 28.8089C50.8637 30.4178 52.0229 31.9022 54.2522 31.9022C56.107 31.9022 57.0701 30.9689 57.0701 29.7689C57.0701 28.7644 56.3299 27.9644 54.9924 27.68L52.8077 27.2267C50.4446 26.7467 48.8752 25.2 48.8752 22.8889C48.8752 20.2933 51.2561 18.16 54.1452 18.16C57.7924 18.16 59.2191 20.3822 59.5669 22.1067L57.2038 22.8444V22.8356Z" fill="#0E1721"/>
  <path d="M65.0777 34.2222C62.5452 34.2222 61.0561 32.3467 61.0561 30V23.3156H63.5885V29.5467C63.5885 30.8533 64.2038 31.9644 65.7287 31.9644C67.2535 31.9644 67.958 30.9867 67.958 29.5911V23.3156H70.4905V31.9822C70.4905 32.8533 70.5529 33.5289 70.5975 33.92H68.172C68.1274 33.68 68.0828 33.1822 68.0828 32.7467C67.5567 33.7067 66.3172 34.2311 65.0688 34.2311L65.0777 34.2222Z" fill="#0E1721"/>
  <path d="M72.6663 38.0622V23.3155H75.1185V24.7555C75.6446 23.84 76.8663 23.0755 78.507 23.0755C81.6548 23.0755 83.4204 25.4755 83.4204 28.6044C83.4204 31.7333 81.4765 34.1778 78.4179 34.1778C76.8841 34.1778 75.7338 33.52 75.1809 32.72V38.0533H72.6663V38.0622ZM78.0166 25.3155C76.358 25.3155 75.1542 26.6222 75.1542 28.6044C75.1542 30.5867 76.358 31.9378 78.0166 31.9378C79.6752 31.9378 80.879 30.6311 80.879 28.6044C80.879 26.5778 79.7198 25.3155 78.0166 25.3155Z" fill="#0E1721"/>
  <path d="M84.9274 38.0622V23.3155H87.3707V24.7555C87.8968 23.84 89.1185 23.0755 90.7593 23.0755C93.907 23.0755 95.6726 25.4755 95.6726 28.6044C95.6726 31.7333 93.7287 34.1778 90.6701 34.1778C89.1452 34.1778 87.986 33.52 87.4331 32.72V38.0533H84.9185L84.9274 38.0622ZM90.2777 25.3155C88.6191 25.3155 87.4153 26.6222 87.4153 28.6044C87.4153 30.5867 88.6191 31.9378 90.2777 31.9378C91.9363 31.9378 93.1401 30.6311 93.1401 28.6044C93.1401 26.5778 91.9809 25.3155 90.2777 25.3155Z" fill="#0E1721"/>
  <path d="M107.541 28.6044C107.541 31.8756 105.205 34.2489 102.013 34.2489C98.8204 34.2489 96.5108 31.8756 96.5108 28.6044C96.5108 25.3333 98.8471 22.9867 102.013 22.9867C105.178 22.9867 107.541 25.36 107.541 28.6044ZM104.991 28.6044C104.991 26.4089 103.591 25.2711 102.022 25.2711C100.452 25.2711 99.0522 26.4 99.0522 28.6044C99.0522 30.8089 100.47 31.9822 102.022 31.9822C103.573 31.9822 104.991 30.8267 104.991 28.6044Z" fill="#0E1721"/>
  <path d="M115.264 25.8222C114.978 25.7778 114.693 25.76 114.434 25.76C112.464 25.76 111.572 26.8889 111.572 28.8711V33.9289H109.039V23.3244H111.51V25.0222C112.009 23.8667 113.195 23.1911 114.595 23.1911C114.898 23.1911 115.166 23.2355 115.273 23.2533V25.8222H115.264Z" fill="#0E1721"/>
  <path d="M120.614 23.3156H122.825V25.5556H120.614V30.48C120.614 31.4133 121.033 31.8133 121.969 31.8133C122.317 31.8133 122.736 31.7511 122.843 31.7244V33.8133C122.692 33.8756 122.21 34.0533 121.292 34.0533C119.321 34.0533 118.099 32.88 118.099 30.8978V25.5644H116.129V23.3244H116.673C117.805 23.3244 118.313 22.6044 118.313 21.6711V20.08H120.605V23.3244L120.614 23.3156Z" fill="#0E1721"/>
  <path d="M129.62 34.2044C126.499 34.2044 124.484 31.7422 124.484 28.56C124.484 25.3778 126.517 23.0044 129.576 23.0044C131.457 23.0044 132.42 23.9822 132.697 24.7022V23.3067H135.167V31.9733C135.167 32.8444 135.256 33.6978 135.274 33.9111H132.848C132.804 33.6711 132.741 33.1022 132.741 32.3822C132.26 33.4044 131.145 34.1867 129.62 34.1867V34.2044ZM129.906 32.0267C131.564 32.0267 132.724 30.6133 132.724 28.56C132.724 26.5067 131.591 25.2089 129.906 25.2089C128.22 25.2089 127.025 26.5156 127.025 28.56C127.025 30.6044 128.14 32.0267 129.906 32.0267Z" fill="#0E1721"/>
  <path d="M137.343 33.92V18.1511H139.875V33.92H137.343Z" fill="#0E1721"/>
</svg>
