<svg xmlns="http://www.w3.org/2000/svg" version="1.1" x="0px" y="0px" viewBox="0 0 178.3 54.4" style="enable-background:new 0 0 178.3 54.4;">
  <path fill="#1AACC9" d="M11.7,10.4c-0.4,0-0.8-0.2-1.1-0.5c-0.5-0.6-0.4-1.5,0.2-1.9C15.5,4.2,21.1,2.3,27,2.3 c5.9,0,11.5,1.9,16.2,5.6c0.6,0.5,0.7,1.3,0.2,1.9c-0.5,0.6-1.3,0.7-1.9,0.2c-4.2-3.3-9.1-5-14.5-5c-5.3,0-10.3,1.7-14.5,5 C12.3,10.3,12,10.4,11.7,10.4z"/>
  <path fill="#1AACC9" d="M17,14.8c-0.4,0-0.8-0.2-1.1-0.6c-0.5-0.6-0.3-1.5,0.3-1.9C19.3,10,23.1,8.7,27,8.7c3.6,0,7.2,1.1,10.2,3.1 c0.6,0.4,0.8,1.3,0.4,1.9c-0.4,0.6-1.3,0.8-1.9,0.4c-2.5-1.7-5.5-2.6-8.6-2.6c-3.3,0-6.5,1.1-9.2,3C17.6,14.7,17.3,14.8,17,14.8z"/>
  <path fill="#1AACC9" d="M21.1,20.1c-0.4,0-0.7-0.1-1-0.4c-0.5-0.5-0.5-1.4,0-2c1.7-1.7,4-2.6,6.9-2.6c2.9,0,5.3,0.9,7,2.6 c0.5,0.5,0.5,1.4,0,2c-0.5,0.5-1.4,0.5-2,0c-1.5-1.5-3.5-1.8-5-1.8c-2.1,0-3.7,0.6-4.9,1.8C21.8,20,21.4,20.1,21.1,20.1z"/>
  <path fill="#0290AB" d="M7.3,52.3c-0.2,0-0.5-0.1-0.6-0.2c-0.3-0.2-0.5-0.7-0.4-1.1L8,41.5C3.6,37.4,1.2,32,1.2,26.4 c0-5,1.8-9.7,5.3-13.6c0.3-0.4,0.9-0.4,1.3-0.1s0.4,0.9,0.1,1.3C4.7,17.6,3,21.9,3,26.4c0,5.3,2.4,10.3,6.6,14.1l0.4,0.3l-1.7,9 l8.9-4.8l0.4,0.1c3,1.1,6.1,1.6,9.4,1.6c13.2,0,24-9.2,24-20.5c0-4.5-1.7-8.8-4.9-12.4c-0.3-0.4-0.3-1,0.1-1.3 c0.4-0.3,1-0.3,1.3,0.1c3.5,3.9,5.3,8.6,5.3,13.6c0,12.3-11.6,22.3-25.9,22.3c-3.3,0-6.6-0.5-9.6-1.6l-9.6,5.1 C7.7,52.3,7.5,52.3,7.3,52.3z M8,51.4L8,51.4C8,51.4,8,51.4,8,51.4z M7,50.6C6.9,50.6,6.9,50.6,7,50.6L7,50.6z"/>
  <path fill="#1BAECA" d="M63.4,6.9c-0.4,0-0.9,0.2-1.3,0.4v0C62.1,7.1,62,7,61.8,7h-0.5C61.1,7,61,7.1,61,7.3v9 c0,0.2,0.2,0.3,0.3,0.3h0.5c0.1,0,0.3-0.1,0.3-0.3v-2.8c0.3,0.3,0.8,0.4,1.3,0.4c1.2,0,2.2-1.1,2.2-2.4V9.3 C65.6,7.9,64.7,6.9,63.4,6.9z M64.5,9.3v2.3c0,0.7-0.5,1.3-1.1,1.3c-0.8,0-1.2-0.7-1.2-1.3V9.3c0-0.8,0.5-1.3,1.2-1.3 C64.3,8,64.5,8.7,64.5,9.3z"/>
  <path fill="#1BAECA" d="M69,6.9c-1.3,0-2.2,0.8-2.2,2c0,0.1,0.1,0.2,0.2,0.3c0,0,0,0,0.1,0h0.6c0,0,0,0,0.1,0C67.8,9.2,68,9.1,68,9 C68,8.4,68.3,8,69,8c0.6,0,1.1,0.4,1.1,1.1v0.6l-1.8,0.4c-1.2,0.3-1.7,0.9-1.7,2c0,1.2,0.8,1.9,2.1,1.9c0.4,0,0.9-0.1,1.3-0.4v0 c0,0.2,0.2,0.3,0.3,0.3h0.5c0.1,0,0.3-0.1,0.3-0.3V9.3C71.2,7.7,70.1,6.9,69,6.9z M68.8,12.9c-0.6,0-1-0.4-1-0.9 c0-0.3,0.1-0.6,0.7-0.8l1.6-0.4v0.7C70.1,12.2,69.6,12.9,68.8,12.9z"/>
  <path fill="#1BAECA" d="M75,6.9c-0.2,0-0.8,0-1.2,0.3c0-0.2-0.2-0.2-0.3-0.2h-0.5c-0.2,0-0.3,0.1-0.3,0.3v6.3c0,0.2,0.2,0.3,0.3,0.3h0.5c0.2,0,0.3-0.1,0.3-0.3V9.4c0-0.9,0.4-1.3,1.2-1.3c0.2,0,0.3-0.2,0.3-0.3V7.2C75.3,7.1,75.2,6.9,75,6.9z"/>
  <path fill="#1BAECA" d="M80.2,11.4h-0.5c-0.2,0-0.3,0.1-0.3,0.3c0,0.4-0.2,1.2-1.1,1.2c-0.7,0-1.2-0.5-1.2-1.4V9.5c0-1,0.4-1.5,1.2-1.5c0.9,0,1,0.7,1.1,0.9c0,0.1,0.1,0.2,0.1,0.2c0.1,0,0.2,0.1,0.2,0l0.5-0.1c0.2-0.1,0.2-0.2,0.2-0.4c-0.2-1.1-0.9-1.7-2.1-1.7c-1.1,0-2.3,0.4-2.3,2.6v2c0,1.6,0.8,2.5,2.3,2.5c1.5,0,2.2-1.2,2.2-2.3C80.6,11.5,80.4,11.4,80.2,11.4z"/>
  <path fill="#1BAECA" d="M84.3,6.9c-0.3,0-0.8,0-1.2,0.3V4.7c0-0.2-0.2-0.3-0.3-0.3h-0.5c-0.1,0-0.3,0.1-0.3,0.3v8.9c0,0.2,0.2,0.3,0.3,0.3h0.5c0.2,0,0.3-0.1,0.3-0.3V9.3c0-0.8,0.4-1.3,1.2-1.3c0.8,0,1.1,0.7,1.1,1.3v4.3c0,0.2,0.2,0.3,0.3,0.3h0.5c0.1,0,0.3-0.1,0.3-0.3V9.3C86.6,7.8,85.8,6.9,84.3,6.9z"/>
  <path fill="#1BAECA" d="M93.1,6.9c-0.5,0-1,0.2-1.3,0.5c-0.3-0.3-0.8-0.5-1.5-0.5c-0.4,0-0.8,0.1-1.1,0.3C89,7.1,88.9,7,88.8,7h-0.5C88.1,7,88,7.1,88,7.3v6.3c0,0.2,0.2,0.3,0.3,0.3h0.5c0.2,0,0.3-0.1,0.3-0.3V9.3c0-0.8,0.4-1.3,1.1-1.3c0.7,0,0.9,0.4,0.9,0.9v4.7c0,0.2,0.2,0.3,0.3,0.3h0.5c0.2,0,0.3-0.1,0.3-0.3V8.9c0-0.5,0.3-0.9,0.8-0.9c0.7,0,1.1,0.4,1.1,1.3v4.3c0,0.2,0.2,0.3,0.3,0.3h0.5c0.2,0,0.3-0.1,0.3-0.3V9.3C95.3,7.8,94.5,6.9,93.1,6.9z"/>
  <path fill="#1BAECA" d="M98.8,6.9c-1.4,0-2.4,1-2.4,2.4v2.5c0,1.3,1,2.2,2.3,2.2c1.4,0,2.3-0.8,2.3-2.2c0-0.1-0.1-0.2-0.2-0.3c0,0,0,0-0.1,0h-0.6c0,0,0,0-0.1,0c-0.1,0-0.2,0.1-0.2,0.3c0,0.7-0.4,1.1-1.2,1.1c-0.7,0-1.1-0.4-1.2-1.1v-0.7l2.9-0.5c0.4-0.1,0.6-0.3,0.6-0.7v-1C101,7.8,100.1,6.9,98.8,6.9z M98.8,8c0.7,0,1.1,0.3,1.1,0.9v0.6l-2.3,0.4V9.3C97.6,8.5,98,8,98.8,8z"/>
  <path fill="#1BAECA" d="M104.7,6.9c-0.5,0-0.9,0.1-1.2,0.3c0-0.2-0.2-0.3-0.3-0.3h-0.5c-0.1,0-0.3,0.1-0.3,0.3v6.3c0,0.2,0.2,0.3,0.3,0.3h0.5c0.2,0,0.3-0.1,0.3-0.3V9.3c0-0.5,0.2-1.3,1.2-1.3c0.8,0,1.1,0.4,1.1,1.3v4.3c0,0.2,0.2,0.3,0.3,0.3h0.5c0.2,0,0.3-0.1,0.3-0.3V9.3C107,7.9,106.1,6.9,104.7,6.9z"/>
  <path fill="#1BAECA" d="M110.6,8.2c0.2,0,0.3-0.2,0.3-0.3V7.4c0-0.1-0.1-0.3-0.3-0.3h-1.2V5c0-0.2-0.2-0.3-0.3-0.3h-0.5c-0.1,0-0.3,0.1-0.3,0.3v6.8c0,1.5,0.7,2.2,2.2,2.2h0.1c0.2,0,0.3-0.2,0.3-0.3v-0.5c0-0.1-0.1-0.3-0.3-0.3h-0.1c-0.8,0-1.1-0.2-1.1-1.1V8.2H110.6z"/>
  <path fill="#077A90" d="M65.8,29.4c-2.7,0-3,1.8-3,2.5c0,0.7,0.3,1.6,1.3,2.1c1.7,0.9,2.4,1.3,4.2,2.3c2.4,1.3,2.8,3.1,2.8,4.5c0,2.4-1.9,4.4-5.1,4.4c-4.2,0-5.6-3.4-5.6-5.2c0-0.3,0.3-0.3,0.3-0.3H62c0,0,0.3,0,0.3,0.3c0,1.8,1.4,3.3,3.7,3.3c1.5,0,3-1,3-2.5c0-0.9-0.2-1.9-2-2.8l-3.8-2c-1.8-1-2.5-2.7-2.5-4c0-1.7,1.2-4.5,5-4.5c2.5,0,4.8,1.3,4.9,4.1c0,0.2,0,0.3-0.3,0.4l-1.2,0.2c-0.2,0-0.3-0.1-0.4-0.3C68.7,30.7,68.1,29.4,65.8,29.4z"/>
  <path fill="#077A90" d="M86,44.6c0,0.3-0.4,0.3-0.4,0.3h-1.3c0,0-0.3,0-0.3-0.3v-1.2c-0.5,0.9-1.7,1.8-3.8,1.8c-2.9,0-5.3-1.7-5.3-5.9V28.1c0-0.3,0.3-0.3,0.3-0.3h1.4c0,0,0.3,0,0.3,0.3v11.2c0,2.7,1.1,4,3.5,4c1.1,0,3.6-0.6,3.6-4V28.1c0-0.3,0.3-0.3,0.3-0.3h1.4c0,0,0.3,0,0.3,0.3V44.6z"/>
  <path fill="#077A90" d="M92.6,51.9c0,0.3-0.3,0.3-0.3,0.3H91c0,0-0.3,0-0.3-0.3V28.1c0-0.3,0.3-0.3,0.3-0.3h1.3c0,0,0.3,0,0.3,0.3v1.3c0.4-1,2.3-1.9,3.9-1.9c3.5,0,5.3,2.5,5.3,5.9v6c0,3.2-2.2,5.9-5.2,5.9c-1.2,0-2.8-0.3-3.9-1.8V51.9z M99.8,33.3c0-2.5-1.3-3.9-3.6-3.9c-1.9,0-3.6,1.5-3.6,3.9v5.9c0,2.1,1.3,4,3.7,4c1.9,0,3.5-1.7,3.5-4V33.3z"/>
  <path fill="#077A90" d="M108.4,51.9c0,0.3-0.3,0.3-0.3,0.3h-1.3c0,0-0.3,0-0.3-0.3V28.1c0-0.3,0.3-0.3,0.3-0.3h1.3c0,0,0.3,0,0.3,0.3v1.3c0.4-1,2.3-1.9,3.9-1.9c3.5,0,5.3,2.5,5.3,5.9v6c0,3.2-2.2,5.9-5.2,5.9c-1.2,0-2.8-0.3-3.9-1.8V51.9zM115.6,33.3c0-2.5-1.3-3.9-3.6-3.9c-1.9,0-3.6,1.5-3.6,3.9v5.9c0,2.1,1.3,4,3.7,4c1.9,0,3.5-1.7,3.5-4V33.3z"/>
  <path fill="#077A90" d="M132.6,33.8V39c0,3.8-1.7,6.2-5.5,6.2s-5.5-2.4-5.5-6.2v-5.1c0-4.1,1.8-6.4,5.5-6.4S132.6,29.8,132.6,33.8zM130.6,39v-5.2c0-3.4-1.5-4.4-3.5-4.4s-3.5,1.1-3.5,4.4V39c0,2.7,1.5,4.2,3.5,4.2S130.6,41.7,130.6,39z"/>
  <path fill="#077A90" d="M138.8,33.4v11.2c0,0.3-0.4,0.3-0.4,0.3h-1.3c0,0-0.3,0-0.3-0.3V28.1c0-0.3,0.3-0.3,0.3-0.3h1.3c0,0,0.4,0,0.4,0.3v1c0.7-1.2,2.5-1.6,3.7-1.6c0.3,0,0.3,0.3,0.3,0.3v1.3c0,0,0,0.4-0.3,0.4C139.9,29.5,138.8,30.9,138.8,33.4z"/>
  <path fill="#077A90" d="M151.9,44.9c-3.4,0-5.3-1.4-5.3-5.2V30h-1.5c-0.3,0-0.3-0.3-0.3-0.3v-1.3c0,0,0-0.3,0.3-0.3h1.5v-6.2c0-0.3,0.3-0.3,0.3-0.3h1.3c0,0,0.3,0,0.3,0.3V28h3.6c0.3,0,0.3,0.3,0.3,0.3v1.3c0,0,0,0.3-0.3,0.3h-3.6v9.7c0,2.7,1,3.3,3.3,3.3h0.2c0.3,0,0.3,0.3,0.3,0.3v1.3c0,0,0,0.3-0.3,0.3H151.9z"/>
  <path fill="#077A90" d="M155.6,40.6c0-2.5,1-4,4.1-4.7l5-1.2v-1.9c-0.1-1.9-1.4-3.4-3.4-3.4c-2.1,0-3.2,1.2-3.2,3c0,0.2-0.2,0.2-0.2,0.2h-1.7c0,0-0.2-0.1-0.2-0.2c0-3,2.3-4.9,5.2-4.9c2.8,0,5.4,1.9,5.4,5.9v11.3c0,0.3-0.3,0.3-0.3,0.3H165c0,0-0.3,0-0.3-0.3v-1.2c-1.1,1.5-2.8,1.8-4,1.8C157.5,45.2,155.6,43.4,155.6,40.6z M164.7,39.3v-2.5l-4.8,1.1c-2,0.4-2.3,1.6-2.3,2.5c0,1.6,1.2,2.9,3.1,2.9C163,43.3,164.7,41.3,164.7,39.3z"/>
  <path fill="#077A90" d="M177.2,43.6v1.3c0,0,0,0.3-0.3,0.3c-5,0-5.4-3.7-5.4-5.6V21.2c0-0.3,0.3-0.3,0.3-0.3h1.3c0,0,0.3,0,0.3,0.3v18.4c0,2.5,0.8,3.7,3.4,3.7C177.2,43.3,177.2,43.6,177.2,43.6z"/>
</svg>
