<svg xmlns="http://www.w3.org/2000/svg" version="1.1" x="0px" y="0px" viewBox="0 0 200 200" style="enable-background:new 0 0 200 200;">
  <circle fill="#F9F9F9" cx="100" cy="100" r="100"/>
  <rect x="57.4" y="129.6" fill="#CFCFCF" width="1.7" height="5.5"/>
  <rect x="57.4" y="122.9" fill="#CFCFCF" width="1.7" height="5.5"/>
  <rect x="71.2" y="122.9" fill="#CFCFCF" width="1.7" height="5.5"/>
  <rect x="60.4" y="129.6" fill="#CFCFCF" width="1.7" height="5.5"/>
  <rect x="60.4" y="122.9" fill="#CFCFCF" width="1.7" height="5.5"/>
  <rect x="68.2" y="129.6" fill="#CFCFCF" width="1.7" height="5.5"/>
  <rect x="71.2" y="129.6" fill="#CFCFCF" width="1.7" height="5.5"/>
  <rect x="68.2" y="122.9" fill="#CFCFCF" width="1.7" height="5.5"/>
  <polygon fill="#CFCFCF" points="101.3,97.9 99.9,97.9 99.9,100.7 99.9,101.9 99.9,102.3 104.3,101.5 101.3,101  "/>
  <rect x="131.1" y="122.9" fill="#CFCFCF" width="1.7" height="5.5"/>
  <rect x="131.1" y="129.6" fill="#CFCFCF" width="1.7" height="5.5"/>
  <path fill="#CFCFCF" d="M149.3,143.3v-31.8h-28.2v31.8h-2.6v-34.4h2.6v-5l-20.7-16.2l-20.8,16.4v4.8h2.8v34.4h-2.8v-31.8H51.5v31.8    h-3v4.4l103.1-0.1v-4.3H149.3z M63.9,122.5h-0.3v0.3h-0.2v13.5h-7.2v-13.5h-0.2v-0.3h-0.3v-1.4h8.4V122.5z M74.7,122.5h-0.3v0.3    h-0.2v13.5h-7.2v-13.5h-0.2v-0.3h-0.3v-1.4h8.4V122.5z M100.5,94.8c3.5,0,6.4,2.8,6.4,6.4c0,3.5-2.8,6.4-6.4,6.4    c-3.5,0-6.4-2.8-6.4-6.4C94.1,97.6,96.9,94.8,100.5,94.8z M99.6,142.2h-7.2v-17h7.2V142.2z M108.4,142.2h-7.2v-17h7.2V142.2z     M92.3,123.7c0-2.8,3.7-5.2,8-5.2c4.4,0,8,2.4,8,5.2H92.3z M134.6,122.5h-0.3v0.3H134v13.5h-7.2v-13.5h-0.2v-0.3h-0.3v-1.4h8.4    V122.5z M145.4,122.5H145v0.3h-0.2v13.5h-7.2v-13.5h-0.2v-0.3H137v-1.4h8.4V122.5z"/>
  <rect x="141.8" y="129.6" fill="#CFCFCF" width="1.7" height="5.5"/>
  <rect x="138.9" y="122.9" fill="#CFCFCF" width="1.7" height="5.5"/>
  <rect x="141.8" y="122.9" fill="#CFCFCF" width="1.7" height="5.5"/>
  <rect x="128.1" y="129.6" fill="#CFCFCF" width="1.7" height="5.5"/>
  <rect x="128.1" y="122.9" fill="#CFCFCF" width="1.7" height="5.5"/>
  <rect x="138.9" y="129.6" fill="#CFCFCF" width="1.7" height="5.5"/>
  <rect x="80.8" y="150.1" fill="#CFCFCF" width="39" height="1.9"/>
  <rect x="77.2" y="154" fill="#CFCFCF" width="46.3" height="2.3"/>
  <rect x="73.6" y="157.9" fill="#CFCFCF" width="53.6" height="2.7"/>
  <path fill="#CFCFCF" d="M134.8,86.6h-19.7c0,0,0-1.9,0-0.7c0,1.2,0-2.4,0-2.4h-2.8V65.6h2v-4.3c0,0-8.8-4-13.1-6V46   c2.6,0,3.9,0,5.2,0.6v1c0,0,1.5,1,2.8,0.9c1.3-0.1,3.1,0.5,3.1,0.5v-6.5c0,0-1.8-0.6-3.1-0.5c-1.3,0.1-2.8-0.9-2.8-0.9v-1   c-1.3-0.6-2.5-0.6-5.2-0.6h-2v15.8c-4.3,2-12.9,6-12.9,6v4.3h1.8v17.9h-2.6v3.1H66l-17.5,16.6v5.7h28.1v-6.2L100.4,84l23.1,18.7   v6.2h28v-5.7L134.8,86.6z M108.1,79.4H92.6c-0.8,0-1.4-0.6-1.4-1.4v-7.7c0-2.6,2.1-4.7,4.7-4.7h8.8c2.6,0,4.7,2.1,4.7,4.7V78   C109.5,78.8,108.8,79.4,108.1,79.4z"/>
  <path fill="#CFCFCF" d="M100.6,64.2c-3.2,0-4.7,2.9-4.7,4.7c0,1.8,0-0.4,0,3.1c0,1.5-0.7,2.5-1.5,3c-0.3,0.2-0.2,0.7,0.2,0.7h11.6     c0.4,0,0.6-0.5,0.2-0.7c-0.8-0.5-1.5-1.4-1.5-3c0-3.5,0-1.3,0-3.1c0-1.8-1.5-4.7-4.7-4.7H100.6z"/>
  <path fill="#CFCFCF" d="M98.7,76.3c0.2,0.8,1,1.3,1.8,1.3s1.6-0.6,1.8-1.3H98.7z"/>
  <path fill="#CFCFCF" d="M184.2,176.7l-18.6-18.6c2.6-4,4-8.8,4-13.9c0-14.4-11.7-26-26-26s-26,11.7-26,26c0,14.4,11.7,26,26,26  c5.1,0,9.9-1.5,13.9-4l18.6,18.6c1.9,1.9,5.1,1.6,7.3-0.5l0.2-0.2C185.9,181.9,186.1,178.6,184.2,176.7z M128.2,144.1  c0-8.5,6.9-15.4,15.4-15.4s15.4,6.9,15.4,15.4s-6.9,15.4-15.4,15.4C135.1,159.6,128.2,152.7,128.2,144.1z"/>
  <path opacity="0.5" fill="#FFFFFF" d="M183.7,181.1c-2.3,0-4.5-0.9-6.1-2.5l-16.4-16.4c-4.1,2-8.6,3.1-13.2,3.1c-16.6,0-30.1-13.5-30.1-30.1  c0-16.6,13.5-30.1,30.1-30.1c16.6,0,30.1,13.5,30.1,30.1c0,4.6-1,9.1-3,13.2l16.5,16.5c3.5,3.5,3.2,9.4-0.5,13.1l-0.2,0.2  C188.8,180,186.2,181.1,183.7,181.1L183.7,181.1z"/>
  <path fill="#999999" d="M188.5,167.7l-18.6-18.6c2.6-4,4-8.8,4-13.9c0-14.4-11.7-26-26-26c-14.4,0-26,11.7-26,26c0,14.4,11.7,26,26,26  c5.1,0,9.9-1.5,13.9-4l18.6,18.6c1.9,1.9,5.1,1.6,7.3-0.5l0.2-0.2C190.2,172.9,190.4,169.6,188.5,167.7z M132.5,135.1  c0-8.5,6.9-15.4,15.4-15.4c8.5,0,15.4,6.9,15.4,15.4s-6.9,15.4-15.4,15.4S132.5,143.7,132.5,135.1z"/>
</svg>
