<svg xmlns="http://www.w3.org/2000/svg" version="1.1" x="0px" y="0px" viewBox="0 0 200 200" style="enable-background:new 0 0 200 200;">
  <circle fill="#F7F8F9" cx="100" cy="100" r="100"/>
  <path fill="#FFFFFF" d="M136.4,51.5c-4.6,0-8.4,3.2-9.5,7.5c-0.8-4.3-4.5-7.5-9-7.5h-3.5c-2.9-5.1-8.3-8.3-14.4-8.3     s-11.5,3.3-14.4,8.3h-3.4c-4.5,0-8.3,3.3-9.1,7.6c-1-4.3-4.9-7.6-9.5-7.6c-5.4,0-9.7,4.4-9.7,9.7v76.3c0,10.7,8.7,19.3,19.3,19.3     h53.6c10.7,0,19.3-8.7,19.3-19.3V61.2C146.1,55.9,141.7,51.5,136.4,51.5z"/>
  <path fill="#CFCFCF" d="M132.4,61.2v76.1c0,3.2-2.6,5.8-5.8,5.8H73.4c-3.2,0-5.8-2.6-5.8-5.8V61.2c0-2.2-1.8-4-4-4h0    c-2.2,0-4,1.8-4,4v76.3c0,7.5,6.1,13.6,13.6,13.6h53.6c7.5,0,13.6-6.1,13.6-13.6V61.2c0-2.2-1.8-4-4-4l0,0    C134.2,57.3,132.4,59,132.4,61.2z"/>
  <path fill="#CFCFCF" d="M110.5,57.3c-1.1-4.8-5.4-8.3-10.5-8.3s-9.4,3.6-10.5,8.3h-7.3c-2,0-3.6,1.6-3.6,3.6v1.7c0,2,1.6,3.6,3.6,3.6    h35.4c2,0,3.6-1.6,3.6-3.6v-1.9c0-1.9-1.5-3.4-3.4-3.4H110.5z"/>
  <path fill="#CFCFCF" d="M114.4,92.5H85.6c-0.7,0-1.3-0.6-1.3-1.3v-4c0-0.7,0.6-1.3,1.3-1.3h28.7c0.7,0,1.3,0.6,1.3,1.3v4    C115.7,91.9,115.1,92.5,114.4,92.5z"/>
  <path fill="#CFCFCF" d="M114.4,110.3H85.6c-0.7,0-1.3-0.6-1.3-1.3v-4c0-0.7,0.6-1.3,1.3-1.3h28.7c0.7,0,1.3,0.6,1.3,1.3v4    C115.7,109.8,115.1,110.3,114.4,110.3z"/>
  <path fill="#CFCFCF" d="M114.4,128.1H85.6c-0.7,0-1.3-0.6-1.3-1.3v-4c0-0.7,0.6-1.3,1.3-1.3h28.7c0.7,0,1.3,0.6,1.3,1.3v4    C115.7,127.5,115.1,128.1,114.4,128.1z"/>
  <path fill="#CECECE" d="M184.2,176.7l-18.6-18.6c2.6-4,4-8.8,4-13.9c0-14.4-11.7-26-26-26s-26,11.7-26,26c0,14.4,11.7,26,26,26   c5.1,0,9.9-1.5,13.9-4l18.6,18.6c1.9,1.9,5.1,1.6,7.3-0.5l0.2-0.2C185.9,181.9,186.1,178.6,184.2,176.7z M128.2,144.1   c0-8.5,6.9-15.4,15.4-15.4s15.4,6.9,15.4,15.4s-6.9,15.4-15.4,15.4C135.1,159.6,128.2,152.7,128.2,144.1z"/>
  <path opacity="0.5" fill="#FFFFFF" d="M183.7,181.1c-2.3,0-4.5-0.9-6.1-2.5l-16.4-16.4c-4.1,2-8.6,3.1-13.2,3.1c-16.6,0-30.1-13.5-30.1-30.1   c0-16.6,13.5-30.1,30.1-30.1c16.6,0,30.1,13.5,30.1,30.1c0,4.6-1,9.1-3,13.2l16.5,16.5c3.5,3.5,3.2,9.4-0.5,13.1l-0.2,0.2   C188.8,180,186.2,181.1,183.7,181.1L183.7,181.1z"/>
  <path fill="#999999" d="M188.5,167.7l-18.6-18.6c2.6-4,4-8.8,4-13.9c0-14.4-11.7-26-26-26c-14.4,0-26,11.7-26,26c0,14.4,11.7,26,26,26   c5.1,0,9.9-1.5,13.9-4l18.6,18.6c1.9,1.9,5.1,1.6,7.3-0.5l0.2-0.2C190.2,172.9,190.4,169.6,188.5,167.7z M132.5,135.1   c0-8.5,6.9-15.4,15.4-15.4c8.5,0,15.4,6.9,15.4,15.4s-6.9,15.4-15.4,15.4S132.5,143.7,132.5,135.1z"/>
</svg>
