<svg xmlns="http://www.w3.org/2000/svg" version="1.1" x="0px" y="0px" viewBox="0 0 200 200" style="enable-background:new 0 0 200 200;">
  <circle fill="#333333" cx="100" cy="100" r="100"/>
  <path fill="#131313" d="M73.1,169.6l-0.6-0.2l-0.5-0.1c-0.2-0.1-0.3-0.1-0.5-0.2c-6.9-1.8-13.8-8.5-13.8-18c0.1-11.7,0-23.6,0-35.2     c0-5.7,0-11.3,0-17c0-14.9,0-29.8,0-44.7l0-0.6c0-2.2,0-4.4,0.1-6.7c0.5-8,6.9-15.2,14.8-16.6c0.7-0.1,1.4-0.1,2-0.1l1.1,0     c4.5,0,8.9,0,13.4,0c4.4,0,8.9,0,13.3,0c8.6,0,15.6,0,22-0.1l0.2,0c6.9,0,15.5,5.5,17.4,14.4c0.2,1.1,0.4,2.3,0.4,3.3     c0,29.1,0.1,58.2,0.1,87.2c0,3.5,0,6.9,0,10.4l0,5.5c0,8.8-5.5,15.9-13.9,18.1c-0.1,0-1,0.5-1,0.5H73.1z"/>
  <path fill="#555555" d="M73.7,165.6c-0.4-0.1-0.8-0.3-1.2-0.4c-5.4-1.4-10.8-6.9-10.8-14.1c0.1-17.4,0-34.8,0-52.2     c0-14.9,0-29.8,0-44.6c0-2.4,0-4.7,0.1-7.1c0.4-6.3,5.4-11.8,11.5-12.9c0.5-0.1,1.1-0.1,1.7-0.1c16.5,0,33,0.1,49.5-0.1     c5.1-0.1,12.1,4.3,13.5,11.2c0.2,0.8,0.3,1.7,0.3,2.5c0,29.1,0.1,58.2,0.1,87.2c0,5.3,0,10.6-0.1,15.9c0,7-4.4,12.7-11.3,14.3     c-0.2,0-0.4,0.2-0.6,0.3C109,165.6,91.3,165.6,73.7,165.6z M67.4,56.1c0,25.6,0,51.1,0,76.6c21.9,0,43.7,0,65.5,0     c0-25.6,0-51,0-76.6C111,56.1,89.2,56.1,67.4,56.1z M67.2,138.2c0,4.5,0,8.9,0,13.3c0,5.4,3.3,8.6,8.7,8.6c16.2,0,32.3,0,48.5,0     c5.2,0,8.6-3.3,8.6-8.6c0-4.1,0-8.1,0-12.2c0-0.4-0.1-0.7-0.1-1.2C111,138.2,89.2,138.2,67.2,138.2z M133,50.5c0-0.9,0-1.7,0-2.5     c0-5.2-3.3-8.5-8.5-8.5c-16.2,0-32.3,0-48.5,0c-1.1,0-2.3,0.1-3.4,0.5c-4.1,1.3-6.2,5.5-5.2,10.6C89.2,50.5,111,50.5,133,50.5z"/>
  <path fill="#555555" d="M100.1,141.9c3.7,0,7.4,3.7,7.3,7.4c0,3.7-3.7,7.3-7.4,7.3c-3.7,0-7.4-3.6-7.4-7.3     C92.7,145.6,96.4,141.9,100.1,141.9z M100,151.2c1.5,0,2-0.4,2-1.8c0-1.5-0.5-2.1-1.9-2.1c-1.4,0-2,0.5-2,1.9     C98.1,150.6,98.6,151.2,100,151.2z"/>
  <path fill="#555555" d="M176.2,127.3H24c-5.3,0-9.6-4.3-9.6-9.6v-14.2c0-5.3,4.3-9.6,9.6-9.6h152.2c5.3,0,9.6,4.3,9.6,9.6v14.2   C185.8,123,181.5,127.3,176.2,127.3z"/>
  <path fill="#CECECE" d="M31.7,108c1.6,0,2.9,0.5,3.9,1.4c1,0.9,1.5,2.2,1.5,3.8c0,1.9-0.6,3.4-1.8,4.4c-1.2,1-2.8,1.5-5,1.5    c-1.9,0-3.4-0.3-4.6-0.9V115c0.6,0.3,1.3,0.6,2.1,0.8c0.8,0.2,1.6,0.3,2.3,0.3c2.2,0,3.3-0.9,3.3-2.7c0-1.7-1.1-2.6-3.4-2.6    c-0.4,0-0.9,0-1.4,0.1c-0.5,0.1-0.9,0.2-1.2,0.3l-1.4-0.8l0.6-8.7h9.2v3h-6.1l-0.3,3.3l0.4-0.1C30.4,108,31,108,31.7,108z"/>
  <path fill="#CECECE" d="M45.3,108c1.6,0,2.9,0.5,3.9,1.4c1,0.9,1.5,2.2,1.5,3.8c0,1.9-0.6,3.4-1.8,4.4c-1.2,1-2.8,1.5-5,1.5    c-1.9,0-3.4-0.3-4.6-0.9V115c0.6,0.3,1.3,0.6,2.1,0.8c0.8,0.2,1.6,0.3,2.3,0.3c2.2,0,3.3-0.9,3.3-2.7c0-1.7-1.1-2.6-3.4-2.6    c-0.4,0-0.9,0-1.4,0.1c-0.5,0.1-0.9,0.2-1.2,0.3l-1.4-0.8l0.6-8.7h9.2v3h-6.1l-0.3,3.3l0.4-0.1C44,108,44.6,108,45.3,108z"/>
  <path fill="#CECECE" d="M58.8,108c1.6,0,2.9,0.5,3.9,1.4c1,0.9,1.5,2.2,1.5,3.8c0,1.9-0.6,3.4-1.8,4.4c-1.2,1-2.8,1.5-5,1.5    c-1.9,0-3.4-0.3-4.6-0.9V115c0.6,0.3,1.3,0.6,2.1,0.8c0.8,0.2,1.6,0.3,2.3,0.3c2.2,0,3.3-0.9,3.3-2.7c0-1.7-1.1-2.6-3.4-2.6    c-0.4,0-0.9,0-1.4,0.1c-0.5,0.1-0.9,0.2-1.2,0.3l-1.4-0.8l0.6-8.7h9.2v3H57l-0.3,3.3l0.4-0.1C57.6,108,58.1,108,58.8,108z"/>
  <path fill="#CECECE" d="M66,113.9V111h6.2v2.9H66z"/>
  <path fill="#CECECE" d="M86.1,115.3h-2v3.5h-3.5v-3.5h-7.2v-2.5l7.4-11h3.3v10.7h2V115.3z M80.6,112.5v-2.9c0-0.5,0-1.2,0.1-2.1    c0-0.9,0.1-1.4,0.1-1.6h-0.1c-0.3,0.6-0.6,1.3-1,1.9l-3.1,4.7H80.6z"/>
  <path fill="#CECECE" d="M99.7,115.3h-2v3.5h-3.5v-3.5h-7.2v-2.5l7.4-11h3.3v10.7h2V115.3z M94.2,112.5v-2.9c0-0.5,0-1.2,0.1-2.1    c0-0.9,0.1-1.4,0.1-1.6h-0.1c-0.3,0.6-0.6,1.3-1,1.9l-3.1,4.7H94.2z"/>
  <path fill="#CECECE" d="M113.3,115.3h-2v3.5h-3.5v-3.5h-7.2v-2.5l7.4-11h3.3v10.7h2V115.3z M107.7,112.5v-2.9c0-0.5,0-1.2,0.1-2.1    c0-0.9,0.1-1.4,0.1-1.6h-0.1c-0.3,0.6-0.6,1.3-1,1.9l-3.1,4.7H107.7z"/>
  <path fill="#CECECE" d="M114.4,113.9V111h6.2v2.9H114.4z"/>
  <path fill="#CECECE" d="M128.4,108c1.6,0,2.9,0.5,3.9,1.4c1,0.9,1.5,2.2,1.5,3.8c0,1.9-0.6,3.4-1.8,4.4c-1.2,1-2.8,1.5-5,1.5    c-1.9,0-3.4-0.3-4.6-0.9V115c0.6,0.3,1.3,0.6,2.1,0.8c0.8,0.2,1.6,0.3,2.3,0.3c2.2,0,3.3-0.9,3.3-2.7c0-1.7-1.1-2.6-3.4-2.6    c-0.4,0-0.9,0-1.4,0.1c-0.5,0.1-0.9,0.2-1.2,0.3l-1.4-0.8l0.6-8.7h9.2v3h-6.1l-0.3,3.3l0.4-0.1C127.2,108,127.7,108,128.4,108z"/>
  <path fill="#CECECE" d="M148.1,115.3h-2v3.5h-3.5v-3.5h-7.2v-2.5l7.4-11h3.3v10.7h2V115.3z M142.5,112.5v-2.9c0-0.5,0-1.2,0.1-2.1    c0-0.9,0.1-1.4,0.1-1.6h-0.1c-0.3,0.6-0.6,1.3-1,1.9l-3.1,4.7H142.5z"/>
  <path fill="#CECECE" d="M155.6,108c1.6,0,2.9,0.5,3.9,1.4c1,0.9,1.5,2.2,1.5,3.8c0,1.9-0.6,3.4-1.8,4.4c-1.2,1-2.8,1.5-5,1.5    c-1.9,0-3.4-0.3-4.6-0.9V115c0.6,0.3,1.3,0.6,2.1,0.8c0.8,0.2,1.6,0.3,2.3,0.3c2.2,0,3.3-0.9,3.3-2.7c0-1.7-1.1-2.6-3.4-2.6    c-0.4,0-0.9,0-1.4,0.1c-0.5,0.1-0.9,0.2-1.2,0.3l-1.4-0.8l0.6-8.7h9.2v3h-6.1l-0.3,3.3l0.4-0.1C154.3,108,154.9,108,155.6,108z"/>
  <path fill="#CECECE" d="M175.2,115.3h-2v3.5h-3.5v-3.5h-7.2v-2.5l7.4-11h3.3v10.7h2V115.3z M169.7,112.5v-2.9c0-0.5,0-1.2,0.1-2.1    c0-0.9,0.1-1.4,0.1-1.6h-0.1c-0.3,0.6-0.6,1.3-1,1.9l-3.1,4.7H169.7z"/>
  <path fill="#131313" d="M183.9,176.7l-18.6-18.6c2.6-4,4-8.8,4-13.9c0-14.4-11.7-26-26-26s-26,11.7-26,26c0,14.4,11.7,26,26,26   c5.1,0,9.9-1.5,13.9-4l18.6,18.6c1.9,1.9,5.1,1.6,7.3-0.5l0.2-0.2C185.5,181.9,185.8,178.6,183.9,176.7z M127.9,144.1   c0-8.5,6.9-15.4,15.4-15.4s15.4,6.9,15.4,15.4c0,8.5-6.9,15.4-15.4,15.4C134.8,159.6,127.9,152.7,127.9,144.1z"/>
  <path opacity="0.5" fill="#131313" d="M183.3,181.1c-2.3,0-4.5-0.9-6.1-2.5l-16.4-16.4c-4.1,2-8.6,3.1-13.2,3.1c-16.6,0-30.1-13.5-30.1-30.1   c0-16.6,13.5-30.1,30.1-30.1c16.6,0,30.1,13.5,30.1,30.1c0,4.6-1,9.1-3,13.2l16.5,16.5c3.5,3.5,3.2,9.4-0.5,13.1l-0.2,0.2   C188.5,180,185.9,181.1,183.3,181.1L183.3,181.1z"/>
  <path fill="#CFCFCF" d="M188.2,167.7l-18.6-18.6c2.6-4,4-8.8,4-13.9c0-14.4-11.7-26-26-26c-14.4,0-26,11.7-26,26c0,14.4,11.7,26,26,26   c5.1,0,9.9-1.5,13.9-4l18.6,18.6c1.9,1.9,5.1,1.6,7.3-0.5l0.2-0.2C189.8,172.9,190.1,169.6,188.2,167.7z M132.2,135.1   c0-8.5,6.9-15.4,15.4-15.4c8.5,0,15.4,6.9,15.4,15.4s-6.9,15.4-15.4,15.4C139.1,150.5,132.2,143.7,132.2,135.1z"/>
</svg>
