<svg xmlns="http://www.w3.org/2000/svg" version="1.1" x="0px" y="0px" viewBox="0 0 200 200" style="enable-background:new 0 0 200 200;">
  <circle fill="#F7F8F9" cx="100" cy="100" r="100"/>
  <path fill="#CFCFCF" d="M73.8,165.6c-0.4-0.1-0.8-0.3-1.2-0.4c-5.4-1.4-10.8-6.9-10.8-14.1c0.1-17.4,0-34.8,0-52.2     c0-14.9,0-29.8,0-44.6c0-2.4,0-4.7,0.1-7.1c0.4-6.3,5.4-11.8,11.5-12.9c0.5-0.1,1.1-0.1,1.7-0.1c16.5,0,33,0.1,49.5-0.1     c5.1-0.1,12.1,4.3,13.5,11.2c0.2,0.8,0.3,1.7,0.3,2.5c0,29.1,0.1,58.2,0.1,87.2c0,5.3,0,10.6-0.1,15.9c0,7-4.4,12.7-11.3,14.3     c-0.2,0-0.4,0.2-0.6,0.3C109.1,165.6,91.4,165.6,73.8,165.6z M67.5,56.1c0,25.6,0,51.1,0,76.6c21.9,0,43.7,0,65.5,0     c0-25.6,0-51,0-76.6C111.1,56.1,89.3,56.1,67.5,56.1z M67.4,138.2c0,4.5,0,8.9,0,13.3c0,5.4,3.3,8.6,8.7,8.6     c16.2,0,32.3,0,48.5,0c5.2,0,8.6-3.3,8.6-8.6c0-4.1,0-8.1,0-12.2c0-0.4-0.1-0.7-0.1-1.2C111.1,138.2,89.3,138.2,67.4,138.2z      M133.1,50.5c0-0.9,0-1.7,0-2.5c0-5.2-3.3-8.5-8.5-8.5c-16.2,0-32.3,0-48.5,0c-1.1,0-2.3,0.1-3.4,0.5c-4.1,1.3-6.2,5.5-5.2,10.6     C89.3,50.5,111.1,50.5,133.1,50.5z"/>
  <path fill="#CFCFCF" d="M100.3,141.9c3.7,0,7.4,3.7,7.3,7.4c0,3.7-3.7,7.3-7.4,7.3c-3.7,0-7.4-3.6-7.4-7.3     C92.8,145.6,96.5,141.9,100.3,141.9z M100.1,151.2c1.5,0,2-0.4,2-1.8c0-1.5-0.5-2.1-1.9-2.1c-1.4,0-2,0.5-2,1.9     C98.2,150.6,98.7,151.2,100.1,151.2z"/>
  <path fill="#CFCFCF" d="M176.3,127.3H24.1c-5.3,0-9.6-4.3-9.6-9.6v-14.2c0-5.3,4.3-9.6,9.6-9.6h152.2c5.3,0,9.6,4.3,9.6,9.6v14.2   C185.9,123,181.6,127.3,176.3,127.3z"/>
  <path fill="#FFFFFF" d="M31.8,108c1.6,0,2.9,0.5,3.9,1.4c1,0.9,1.5,2.2,1.5,3.8c0,1.9-0.6,3.4-1.8,4.4c-1.2,1-2.8,1.5-5,1.5    c-1.9,0-3.4-0.3-4.6-0.9V115c0.6,0.3,1.3,0.6,2.1,0.8c0.8,0.2,1.6,0.3,2.3,0.3c2.2,0,3.3-0.9,3.3-2.7c0-1.7-1.1-2.6-3.4-2.6    c-0.4,0-0.9,0-1.4,0.1c-0.5,0.1-0.9,0.2-1.2,0.3l-1.4-0.8l0.6-8.7H36v3H30l-0.3,3.3l0.4-0.1C30.5,108,31.1,108,31.8,108z"/>
  <path fill="#FFFFFF" d="M45.4,108c1.6,0,2.9,0.5,3.9,1.4c1,0.9,1.5,2.2,1.5,3.8c0,1.9-0.6,3.4-1.8,4.4c-1.2,1-2.8,1.5-5,1.5    c-1.9,0-3.4-0.3-4.6-0.9V115c0.6,0.3,1.3,0.6,2.1,0.8c0.8,0.2,1.6,0.3,2.3,0.3c2.2,0,3.3-0.9,3.3-2.7c0-1.7-1.1-2.6-3.4-2.6    c-0.4,0-0.9,0-1.4,0.1c-0.5,0.1-0.9,0.2-1.2,0.3l-1.4-0.8l0.6-8.7h9.2v3h-6.1l-0.3,3.3l0.4-0.1C44.1,108,44.7,108,45.4,108z"/>
  <path fill="#FFFFFF" d="M59,108c1.6,0,2.9,0.5,3.9,1.4c1,0.9,1.5,2.2,1.5,3.8c0,1.9-0.6,3.4-1.8,4.4c-1.2,1-2.8,1.5-5,1.5    c-1.9,0-3.4-0.3-4.6-0.9V115c0.6,0.3,1.3,0.6,2.1,0.8c0.8,0.2,1.6,0.3,2.3,0.3c2.2,0,3.3-0.9,3.3-2.7c0-1.7-1.1-2.6-3.4-2.6    c-0.4,0-0.9,0-1.4,0.1c-0.5,0.1-0.9,0.2-1.2,0.3l-1.4-0.8l0.6-8.7h9.2v3h-6.1l-0.3,3.3l0.4-0.1C57.7,108,58.3,108,59,108z"/>
  <path fill="#FFFFFF" d="M66.1,113.9V111h6.2v2.9H66.1z"/>
  <path fill="#FFFFFF" d="M86.3,115.3h-2v3.5h-3.5v-3.5h-7.2v-2.5l7.4-11h3.3v10.7h2V115.3z M80.7,112.5v-2.9c0-0.5,0-1.2,0.1-2.1    c0-0.9,0.1-1.4,0.1-1.6h-0.1c-0.3,0.6-0.6,1.3-1,1.9l-3.1,4.7H80.7z"/>
  <path fill="#FFFFFF" d="M99.8,115.3h-2v3.5h-3.5v-3.5H87v-2.5l7.4-11h3.3v10.7h2V115.3z M94.3,112.5v-2.9c0-0.5,0-1.2,0.1-2.1    c0-0.9,0.1-1.4,0.1-1.6h-0.1c-0.3,0.6-0.6,1.3-1,1.9l-3.1,4.7H94.3z"/>
  <path fill="#FFFFFF" d="M113.4,115.3h-2v3.5h-3.5v-3.5h-7.2v-2.5l7.4-11h3.3v10.7h2V115.3z M107.9,112.5v-2.9c0-0.5,0-1.2,0.1-2.1    c0-0.9,0.1-1.4,0.1-1.6h-0.1c-0.3,0.6-0.6,1.3-1,1.9l-3.1,4.7H107.9z"/>
  <path fill="#FFFFFF" d="M114.5,113.9V111h6.2v2.9H114.5z"/>
  <path fill="#FFFFFF" d="M128.6,108c1.6,0,2.9,0.5,3.9,1.4c1,0.9,1.5,2.2,1.5,3.8c0,1.9-0.6,3.4-1.8,4.4c-1.2,1-2.8,1.5-5,1.5    c-1.9,0-3.4-0.3-4.6-0.9V115c0.6,0.3,1.3,0.6,2.1,0.8c0.8,0.2,1.6,0.3,2.3,0.3c2.2,0,3.3-0.9,3.3-2.7c0-1.7-1.1-2.6-3.4-2.6    c-0.4,0-0.9,0-1.4,0.1c-0.5,0.1-0.9,0.2-1.2,0.3l-1.4-0.8l0.6-8.7h9.2v3h-6.1l-0.3,3.3l0.4-0.1C127.3,108,127.9,108,128.6,108z"/>
  <path fill="#FFFFFF" d="M148.2,115.3h-2v3.5h-3.5v-3.5h-7.2v-2.5l7.4-11h3.3v10.7h2V115.3z M142.7,112.5v-2.9c0-0.5,0-1.2,0.1-2.1    c0-0.9,0.1-1.4,0.1-1.6h-0.1c-0.3,0.6-0.6,1.3-1,1.9l-3.1,4.7H142.7z"/>
  <path fill="#FFFFFF" d="M155.7,108c1.6,0,2.9,0.5,3.9,1.4c1,0.9,1.5,2.2,1.5,3.8c0,1.9-0.6,3.4-1.8,4.4c-1.2,1-2.8,1.5-5,1.5    c-1.9,0-3.4-0.3-4.6-0.9V115c0.6,0.3,1.3,0.6,2.1,0.8c0.8,0.2,1.6,0.3,2.3,0.3c2.2,0,3.3-0.9,3.3-2.7c0-1.7-1.1-2.6-3.4-2.6    c-0.4,0-0.9,0-1.4,0.1c-0.5,0.1-0.9,0.2-1.2,0.3l-1.4-0.8l0.6-8.7h9.2v3h-6.1l-0.3,3.3l0.4-0.1C154.4,108,155,108,155.7,108z"/>
  <path fill="#FFFFFF" d="M175.4,115.3h-2v3.5h-3.5v-3.5h-7.2v-2.5l7.4-11h3.3v10.7h2V115.3z M169.8,112.5v-2.9c0-0.5,0-1.2,0.1-2.1    c0-0.9,0.1-1.4,0.1-1.6h-0.1c-0.3,0.6-0.6,1.3-1,1.9l-3.1,4.7H169.8z"/>
  <path fill="#CECECE" d="M183.9,176.7l-18.6-18.6c2.6-4,4-8.8,4-13.9c0-14.4-11.7-26-26-26s-26,11.7-26,26c0,14.4,11.7,26,26,26   c5.1,0,9.9-1.5,13.9-4l18.6,18.6c1.9,1.9,5.1,1.6,7.3-0.5l0.2-0.2C185.5,181.9,185.8,178.6,183.9,176.7z M127.9,144.1   c0-8.5,6.9-15.4,15.4-15.4s15.4,6.9,15.4,15.4c0,8.5-6.9,15.4-15.4,15.4C134.8,159.6,127.9,152.7,127.9,144.1z"/>
  <path opacity="0.5" fill="#FFFFFF" d="M183.3,181.1c-2.3,0-4.5-0.9-6.1-2.5l-16.4-16.4c-4.1,2-8.6,3.1-13.2,3.1c-16.6,0-30.1-13.5-30.1-30.1   c0-16.6,13.5-30.1,30.1-30.1c16.6,0,30.1,13.5,30.1,30.1c0,4.6-1,9.1-3,13.2l16.5,16.5c3.5,3.5,3.2,9.4-0.5,13.1l-0.2,0.2   C188.5,180,185.9,181.1,183.3,181.1L183.3,181.1z"/>
  <path fill="#999999" d="M188.2,167.7l-18.6-18.6c2.6-4,4-8.8,4-13.9c0-14.4-11.7-26-26-26c-14.4,0-26,11.7-26,26c0,14.4,11.7,26,26,26   c5.1,0,9.9-1.5,13.9-4l18.6,18.6c1.9,1.9,5.1,1.6,7.3-0.5l0.2-0.2C189.8,172.9,190.1,169.6,188.2,167.7z M132.2,135.1   c0-8.5,6.9-15.4,15.4-15.4c8.5,0,15.4,6.9,15.4,15.4s-6.9,15.4-15.4,15.4C139.1,150.5,132.2,143.7,132.2,135.1z"/>
</svg>
