<svg xmlns="http://www.w3.org/2000/svg" version="1.1" x="0px" y="0px" viewBox="0 0 240 132" style="enable-background:new 0 0 240 132;">
  <path fill="#CECECE" d="M53.4,120.2H20c-0.1,0-0.2-0.1-0.2-0.2v-17.6c0-0.1,0.1-0.2,0.2-0.2h33.4c0.1,0,0.2,0.1,0.2,0.2v17.6    C53.6,120.2,53.5,120.2,53.4,120.2z M20.2,119.9h33v-17.2h-33V119.9z"/>
  <path fill="#CECECE" d="M39.4,112H34c-0.1,0-0.2-0.1-0.2-0.2v-2.6c0-0.1,0.1-0.2,0.2-0.2h5.4c0.1,0,0.2,0.1,0.2,0.2v2.6    C39.6,111.9,39.6,112,39.4,112z M34.2,111.6h5.1v-2.2h-5.1V111.6z"/>
  <path fill="#CECECE" d="M55.1,124.9H18.3c-0.1,0-0.2-0.1-0.2-0.2V79.6c0-0.1,0.1-0.2,0.2-0.2h36.8c0.1,0,0.2,0.1,0.2,0.2v45.1    C55.3,124.8,55.2,124.9,55.1,124.9z M18.5,124.5h36.4V79.8H18.5V124.5z"/>
  <path fill="#CECECE" d="M53.4,99.6H20c-0.1,0-0.2-0.1-0.2-0.2V81.8c0-0.1,0.1-0.2,0.2-0.2h33.4c0.1,0,0.2,0.1,0.2,0.2v17.6    C53.6,99.5,53.5,99.6,53.4,99.6z M20.2,99.2h33V82h-33V99.2z"/>
  <path fill="#CECECE" d="M39.4,91.4H34c-0.1,0-0.2-0.1-0.2-0.2v-2.6c0-0.1,0.1-0.2,0.2-0.2h5.4c0.1,0,0.2,0.1,0.2,0.2v2.6    C39.6,91.3,39.6,91.4,39.4,91.4z M34.2,91h5.1v-2.2h-5.1V91z"/>
  <path fill="#CECECE" d="M40.4,79.8H27.3c-0.1,0-0.2-0.1-0.2-0.2v-2.9c0-0.1,0.1-0.2,0.2-0.2h13.1c0.1,0,0.2,0.1,0.2,0.2v2.9    C40.6,79.7,40.5,79.8,40.4,79.8z M27.5,79.4h12.7v-2.5H27.5V79.4z"/>
  <path fill="#CECECE" d="M34.4,76.9h-2.3c-0.1,0-0.2-0.1-0.2-0.2v-8.9c0-0.1,0.1-0.2,0.2-0.2h2.3c0.1,0,0.2,0.1,0.2,0.2v8.9    C34.6,76.8,34.6,76.9,34.4,76.9z M32.3,76.5h1.9V68h-1.9V76.5z"/>
  <path fill="#CECECE" d="M45.3,68.1H20.7c-0.1,0-0.2-0.1-0.2-0.2V47.3c0-0.1,0.1-0.2,0.2-0.2h24.6c0.1,0,0.2,0.1,0.2,0.2v20.6    C45.5,68,45.4,68.1,45.3,68.1z M20.9,67.7h24.2V47.5H20.9V67.7z"/>
  <path fill="#CECECE" d="M137,103.7h-0.4V60.2c0-0.1,0.1-0.2,0.2-0.2h49.5c3.1,0,5.6,2.5,5.6,5.6v37.7h-0.4V65.6    c0-2.9-2.4-5.2-5.2-5.2H137V103.7z"/>
  <path fill="#CECECE" d="M81.5,103.3h-0.4V65.6c0-3.1,2.5-5.6,5.6-5.6h50.5v0.4H86.7c-2.9,0-5.2,2.4-5.2,5.2V103.3z"/>
  <path fill="#CECECE" d="M196.6,119.7h-59.8c-0.1,0-0.2-0.1-0.2-0.2v-16.2c0-0.1,0.1-0.2,0.2-0.2H193c2.1,0,3.8,1.6,3.8,3.8v12.7    C196.8,119.7,196.7,119.7,196.6,119.7z M137,119.4h59.4v-12.5c0-1.9-1.5-3.4-3.4-3.4h-56V119.4z"/>
  <path fill="#CECECE" d="M137.2,119.8H76.4c-0.1,0-0.2-0.1-0.2-0.2v-12.7c0-2.1,1.7-3.8,3.8-3.8h57.2v0.4H80c-1.9,0-3.4,1.5-3.4,3.4    v12.5h60.6V119.8z"/>
  <path fill="#CECECE" d="M196.9,124.9h-0.4v-5.1H76.7v5.1h-0.4v-5.3c0-0.1,0.1-0.2,0.2-0.2h120.2c0.1,0,0.2,0.1,0.2,0.2V124.9z"/>
  <path fill="#CECECE" d="M64.4,124.6H64V84.2c0-2.1,1.7-3.8,3.8-3.8h10.9c1,0,2,0.4,2.8,1.2l-0.3,0.3c-0.7-0.7-1.6-1.1-2.5-1.1H67.8    c-1.9,0-3.4,1.5-3.4,3.4V124.6z"/>
  <path fill="#CECECE" d="M207.8,124.4h-0.4V84.2c0-1.9-1.5-3.4-3.4-3.4h-10.9c-0.5,0-0.9,0.1-1.3,0.2l-0.1-0.4    c0.4-0.1,0.9-0.3,1.4-0.3H204c2.1,0,3.8,1.7,3.8,3.8V124.4z"/>
  <path fill="#1BAECA" d="M208.4,104.7c0,0-1.7-2.9-2.6-4.5c-0.9-1.6-1.6-3.6-1.6-3.6s2.1,1.2,2.7,1.7c0.6,0.5,3.2,3.6,3.2,3.6l0.8-0.9    l-0.9-2.8l2.8,3.2l1.3-5.7l2.1,5.5l3.9-4.9l0.2,4.9l4.8-3.8l-1.7,6l-1.8,2.6h-13.1L208.4,104.7z"/>
  <path fill="#263238" d="M221.7,106.1h-13.3l-0.1-1.3c-0.2-0.3-1.7-3-2.5-4.5c-0.9-1.6-1.6-3.6-1.6-3.6l-0.2-0.5l0.5,0.3    c0.1,0.1,2.1,1.3,2.7,1.7c0.6,0.4,2.5,2.8,3.1,3.4l0.5-0.6l-1.1-3.6l3.2,3.6l1.4-6l2.2,5.8l4-5l0.3,5l4.9-4l-1.9,6.6L221.7,106.1z     M208.7,105.7h12.8l1.7-2.5l1.5-5.4l-4.6,3.7l-0.2-4.7l-3.8,4.7l-2-5.2l-1.3,5.5l-2.5-2.8l0.6,2l-1,1.1L210,102    c0,0-2.6-3.1-3.2-3.5c-0.4-0.3-1.6-1-2.2-1.4c0.3,0.7,0.8,2,1.4,3c0.9,1.6,2.6,4.5,2.6,4.5l0,0.1L208.7,105.7z"/>
  <path fill="#1BAECA" d="M207.6,104.7c0,0-1.1-0.5-2.9-2.7c-1.8-2.2-3.2-4.5-3.2-4.5s4.1,2.3,5.6,3.4c1.5,1.1,3.4,3.6,3.4,3.6    s-1.3-3.1-1.3-4.5c-0.1-1.4-0.2-4.6-0.2-4.6s3.6,3.6,3.8,4.5c0.3,1,1.6,4.2,1.6,4.2s0.8-2.7,1-4.5c0.2-1.8,2.2-4.7,2.2-4.7    s0.3,2.1,0.4,4.1c0.1,2.1-1.1,6-1.1,6s1.6-3.8,3.2-5.6c1.6-1.8,4-3.8,4-3.8s-1.3,3.8-1.7,5.5c-0.5,1.7-1.8,3.8-1.8,3.8    s2.4-3.1,3.7-4.1c1.3-1.1,3.8-2.6,3.8-2.6s-1.3,2.6-2.3,4c-1,1.4-2.9,3.7-2.9,3.7h-15v-1.2H207.6z"/>
  <path fill="#263238" d="M222.8,106.1h-15.3l0-1.2c0,0-1.2-0.5-3-2.7c-1.8-2.2-3.2-4.5-3.2-4.5L201,97l0.6,0.4    c0.2,0.1,4.2,2.3,5.6,3.4c0.9,0.7,2,1.9,2.7,2.7c-0.4-1-0.9-2.6-0.9-3.5c-0.1-1.4-0.2-4.6-0.3-4.6l0-0.5l0.4,0.3    c0.4,0.4,3.6,3.6,3.9,4.6c0.2,0.7,1,2.7,1.3,3.7c0.2-0.9,0.7-2.6,0.8-3.9c0.3-1.8,2.1-4.7,2.2-4.8l0.3-0.4l0.1,0.5    c0,0,0.3,2.1,0.4,4.1c0.1,1-0.2,2.5-0.5,3.8c0.6-1.2,1.4-2.6,2.2-3.5c1.6-1.8,4-3.8,4-3.8l0.5-0.4l-0.2,0.6c0,0-1.3,3.8-1.7,5.5    c-0.2,0.7-0.5,1.4-0.8,2.1c0.8-0.9,1.7-2,2.4-2.6c1.2-1.1,3.7-2.5,3.8-2.6l0.6-0.3l-0.3,0.6c0,0-1.3,2.6-2.3,4    C224.8,103.7,222.9,106,222.8,106.1L222.8,106.1z M207.9,105.7h14.7c0.3-0.4,2-2.3,2.9-3.6c0.7-1,1.5-2.5,2-3.4    c-0.8,0.5-2.3,1.4-3.2,2.2c-1.2,1-3.6,4.1-3.7,4.1l-0.3-0.2c0,0,1.3-2.1,1.8-3.8c0.3-1.2,1.1-3.7,1.5-4.8    c-0.8,0.7-2.3,2.1-3.5,3.3c-1.6,1.8-3.1,5.5-3.2,5.6l-0.4-0.1c0,0,1.2-3.9,1.1-5.9c-0.1-1.4-0.2-2.8-0.3-3.6    c-0.5,0.9-1.7,2.9-1.9,4.2c-0.2,1.8-1,4.5-1,4.5l-0.2,0.5l-0.2-0.5c-0.1-0.1-1.3-3.3-1.6-4.3c-0.2-0.6-2.3-2.9-3.4-4.1    c0,1,0.1,3,0.2,4.1c0.1,1.4,1.3,4.4,1.3,4.4l0.5,1.3l-0.8-1.1c0,0-1.9-2.4-3.4-3.5c-1.1-0.8-3.7-2.3-4.9-3    c0.5,0.8,1.6,2.4,2.8,3.8c1.6,1.9,2.6,2.5,2.8,2.6h0.3V105.7z"/>
  <path fill="#FFFFFF" d="M224.8,104.4l-0.8,7.5l-1.5,12.7h-15.3l-1.5-12.7l-0.8-7.5H224.8z"/>
  <path fill="#263238" d="M222.7,124.8h-15.6l-1.5-12.9l-0.8-7.7H225l-0.8,7.7L222.7,124.8z M207.4,124.4h14.9l1.5-12.5l0.8-7.3h-19.4    l0.8,7.3L207.4,124.4z"/>
  <path fill="#1BAECA" d="M224,111.9l-1.5,12.7h-15.3l-1.5-12.7H224z"/>
  <path fill="#263238" d="M222.7,124.8h-15.6l-1.5-13.1h18.7L222.7,124.8z M207.4,124.4h14.9l1.5-12.3H206L207.4,124.4z"/>
  <path fill="#263238" d="M208.6,115.4c0.4,0,0.8-0.3,0.8-0.7c0-0.4-0.3-0.7-0.8-0.7c-0.4,0-0.8,0.3-0.8,0.7    C207.9,115.1,208.2,115.4,208.6,115.4z"/>
  <path fill="#263238" d="M214,115.4c0.4,0,0.7-0.3,0.7-0.7c0-0.4-0.3-0.7-0.7-0.7c-0.4,0-0.8,0.3-0.8,0.7    C213.2,115.1,213.6,115.4,214,115.4z"/>
  <path fill="#263238" d="M210.7,119.2c0.4,0,0.8-0.3,0.8-0.7c0-0.4-0.3-0.7-0.8-0.7c-0.4,0-0.8,0.3-0.8,0.7    C209.9,118.9,210.3,119.2,210.7,119.2z"/>
  <path fill="#263238" d="M217.1,119.2c0.4,0,0.8-0.3,0.8-0.7c0-0.4-0.3-0.7-0.8-0.7c-0.4,0-0.8,0.3-0.8,0.7    C216.4,118.9,216.7,119.2,217.1,119.2z"/>
  <path fill="#263238" d="M221.4,119.2c0.4,0,0.8-0.3,0.8-0.7c0-0.4-0.3-0.7-0.8-0.7c-0.4,0-0.7,0.3-0.7,0.7    C220.7,118.9,221,119.2,221.4,119.2z"/>
  <path fill="#263238" d="M219.4,115.4c0.4,0,0.8-0.3,0.8-0.7c0-0.4-0.3-0.7-0.8-0.7c-0.4,0-0.8,0.3-0.8,0.7    C218.6,115.1,219,115.4,219.4,115.4z"/>
  <path fill="#263238" d="M208.6,122.3c0.4,0,0.8-0.3,0.8-0.7c0-0.4-0.3-0.7-0.8-0.7c-0.4,0-0.8,0.3-0.8,0.7    C207.9,122,208.2,122.3,208.6,122.3z"/>
  <path fill="#263238" d="M214,122.3c0.4,0,0.7-0.3,0.7-0.7c0-0.4-0.3-0.7-0.7-0.7c-0.4,0-0.8,0.3-0.8,0.7    C213.2,122,213.6,122.3,214,122.3z"/>
  <path fill="#263238" d="M219.4,122.3c0.4,0,0.8-0.3,0.8-0.7c0-0.4-0.3-0.7-0.8-0.7c-0.4,0-0.8,0.3-0.8,0.7    C218.6,122,219,122.3,219.4,122.3z"/>
  <path fill="#FFFFFF" d="M134.2,42.2c0-3.7-2-6.8-4.4-6.8c-2.5,0-4.4,3-4.5,6.7c0,3.7,2,6.8,4.4,6.8C132.2,49,134.2,45.9,134.2,42.2z"/>
  <path fill="#263238" d="M129.8,49.1C129.8,49.1,129.8,49.1,129.8,49.1c-1.3,0-2.4-0.7-3.3-2.1c-0.9-1.3-1.3-3-1.3-4.9    c0-1.8,0.5-3.6,1.3-4.9c0.9-1.3,2-2.1,3.3-2.1c0,0,0,0,0,0c1.3,0,2.4,0.7,3.3,2.1c0.9,1.3,1.3,3,1.3,4.9c0,1.8-0.5,3.6-1.3,4.9    C132.2,48.4,131,49.1,129.8,49.1z M129.8,35.6c-1.1,0-2.2,0.7-3,1.9c-0.8,1.2-1.3,2.9-1.3,4.7c0,1.8,0.4,3.4,1.3,4.7    c0.8,1.2,1.9,1.9,3,1.9c0,0,0,0,0,0c1.1,0,2.2-0.7,3-1.9c0.8-1.2,1.3-2.9,1.3-4.7l0,0c0-1.8-0.4-3.4-1.3-4.7    C132,36.3,130.9,35.6,129.8,35.6C129.8,35.6,129.8,35.6,129.8,35.6z"/>
  <path fill="#263238" d="M135.3,25.4c0,0-2.4,1.4-4.6-0.1c-2.3-1.5-0.7-2.1-0.3-3.1c0.4-0.9-0.7-1.1-0.9-2.4c-0.2-1.2,0.6-2.2,1-2.4    c0.4-0.1,0.3-1.4,0.3-2.6c0-1.2,1.5-2.4,2.1-2.4c0.7,0,1.1-0.9,1.6-2.1c0.4-1.1,1.4-2.1,2.9-1.5c1.6,0.7,2.4,0.7,3.2-0.4    c0.8-1.1,2.7-1.4,3.4-0.8c0.7,0.6,1,1.7,2.4,0.6c1.4-1.1,3.1-0.9,3.9-0.1c0.8,0.8,0.7,1.7,1.9,1.2c1.3-0.4,3.3,0.2,3.8,1.6    c0.4,1.4,2.9,2.8,3.9,2.5c0.9-0.3,2.5,0,1.7,1.7c-0.8,1.7,0.1,2.8,0.8,2.8s2.1,0.4,1.4,1.9c-0.8,1.5-1.4,2.6-0.4,3.1    c0.9,0.4,2.4,0.6,1.3,2.5c-1.1,1.9-2.1,1.8-1.7,2.9c0.3,1.1,1,1.5,0,2.2c-1,0.8-2.3,1.1-2.3,1.8c0,0.7,1.4,1-0.3,1.6    c-1.6,0.6-2.8,0.7-2.8,0.7s-2.3-6.1-8.7-8.1c-6.4-2.1-10.2-1.8-11.7-1C135.7,26.4,135.3,25.4,135.3,25.4z"/>
  <path fill="#263238" d="M157.6,34.8c-0.1,0-0.2-0.1-0.2-0.1c0-0.1-2.3-6.1-8.6-8c-6.2-2-10-1.8-11.5-1c-0.6,0.4-1.1,0.5-1.6,0.3    c-0.2-0.1-0.4-0.2-0.5-0.4c-0.6,0.3-2.7,1.1-4.7-0.2c-0.8-0.5-1.2-1-1.3-1.5c-0.1-0.5,0.2-0.9,0.5-1.3c0.2-0.2,0.3-0.4,0.4-0.6    c0.2-0.4,0.1-0.5-0.2-0.9c-0.2-0.3-0.5-0.7-0.6-1.3c-0.2-1.3,0.6-2.4,1.1-2.6c0.2-0.1,0.2-1.1,0.2-1.7c0-0.2,0-0.5,0-0.7    c0-1.4,1.6-2.6,2.3-2.6c0.6,0,1-0.9,1.4-1.9c0.2-0.6,0.6-1.3,1.4-1.7c0.5-0.2,1.1-0.2,1.8,0c1.6,0.7,2.2,0.6,3-0.4    c0.4-0.6,1.2-1,2.1-1.2c0.7-0.1,1.2,0,1.6,0.3c0.2,0.1,0.3,0.3,0.4,0.4c0.5,0.5,0.8,0.9,1.7,0.1c1.4-1.2,3.2-1,4.1-0.1    c0.3,0.3,0.4,0.5,0.6,0.8c0.3,0.5,0.4,0.7,1.2,0.4c0.7-0.3,1.8-0.2,2.6,0.3c0.7,0.3,1.2,0.8,1.4,1.4c0.3,0.8,1.2,1.6,2.1,2    c0.6,0.3,1.2,0.5,1.5,0.4c0.6-0.2,1.5-0.2,1.9,0.3c0.2,0.3,0.4,0.8,0,1.6c-0.5,1.1-0.2,1.8-0.1,2.1c0.2,0.3,0.5,0.5,0.7,0.5    c0.4,0,1.2,0.2,1.6,0.7c0.2,0.4,0.2,0.9-0.1,1.5c-0.5,0.9-1,1.9-0.9,2.4c0.1,0.2,0.2,0.3,0.3,0.3c0.1,0.1,0.3,0.1,0.5,0.2    c0.5,0.2,1.1,0.4,1.2,1c0.1,0.4,0,0.9-0.4,1.6c-0.5,0.8-0.9,1.3-1.3,1.6c-0.4,0.5-0.6,0.6-0.4,1.1c0.1,0.3,0.2,0.6,0.3,0.8    c0.3,0.6,0.5,1.1-0.4,1.7c-0.4,0.3-0.8,0.5-1.2,0.8c-0.6,0.3-1,0.6-1,0.9c0,0.2,0.1,0.3,0.3,0.5c0.2,0.2,0.3,0.4,0.3,0.6    c-0.1,0.2-0.3,0.4-0.9,0.6C158.9,34.7,157.7,34.8,157.6,34.8C157.6,34.8,157.6,34.8,157.6,34.8z M140.5,24.7    c1.9,0,4.6,0.4,8.5,1.6c5.9,1.8,8.4,7.2,8.8,8.1c0.4-0.1,1.4-0.2,2.6-0.7c0.6-0.2,0.7-0.3,0.7-0.4c0-0.1-0.1-0.2-0.2-0.3    c-0.2-0.2-0.4-0.4-0.4-0.7c0-0.5,0.6-0.9,1.2-1.2c0.4-0.2,0.8-0.4,1.1-0.7c0.6-0.5,0.5-0.7,0.2-1.2c-0.1-0.2-0.2-0.5-0.3-0.8    c-0.3-0.8,0-1.1,0.5-1.5c0.3-0.3,0.7-0.8,1.2-1.6c0.3-0.6,0.4-1,0.3-1.3c-0.1-0.4-0.6-0.5-1-0.7c-0.2-0.1-0.3-0.1-0.5-0.2    c-0.3-0.1-0.5-0.3-0.5-0.6c-0.2-0.6,0.2-1.5,0.9-2.7c0.2-0.4,0.2-0.8,0.1-1.1c-0.3-0.4-0.9-0.6-1.3-0.6c-0.4,0-0.8-0.3-1-0.7    c-0.4-0.6-0.4-1.5,0-2.4c0.2-0.4,0.3-0.9,0-1.2c-0.3-0.3-1-0.4-1.5-0.2c-0.4,0.1-1.1,0-1.8-0.4c-0.9-0.4-2-1.3-2.3-2.2    c-0.2-0.5-0.6-0.9-1.2-1.2c-0.8-0.4-1.7-0.5-2.3-0.2c-1,0.4-1.3-0.1-1.6-0.6c-0.1-0.2-0.3-0.5-0.5-0.7c-0.8-0.7-2.4-0.9-3.6,0.1    c-1.2,1-1.8,0.4-2.2-0.2c-0.1-0.1-0.3-0.3-0.4-0.4c-0.3-0.2-0.7-0.3-1.3-0.2c-0.8,0.1-1.4,0.5-1.8,1C140,9.8,139,9.7,137.5,9    c-0.5-0.2-1-0.2-1.5,0c-0.5,0.2-0.9,0.7-1.2,1.4c-0.4,1.1-0.9,2.2-1.7,2.2c-0.5,0-1.9,1.1-1.9,2.2c0,0.2,0,0.5,0,0.7    c0,1.1,0,2-0.5,2.1c-0.3,0.1-1,1-0.9,2.2c0.1,0.5,0.3,0.9,0.6,1.1c0.3,0.4,0.6,0.8,0.3,1.3c-0.1,0.2-0.3,0.4-0.5,0.7    c-0.3,0.3-0.5,0.6-0.5,1c0.1,0.3,0.4,0.7,1.1,1.2c2.1,1.4,4.4,0.1,4.4,0.1c0,0,0.1,0,0.2,0c0.1,0,0.1,0.1,0.1,0.1    c0,0,0.1,0.2,0.4,0.3c0.3,0.1,0.7,0,1.2-0.3C137.5,25.1,138.5,24.7,140.5,24.7z"/>
  <path fill="#FFFFFF" d="M137.7,66.8l-8.3,3.8c0,0-4.3,23.7-4,30.3c0.3,6.6,4,23,4,23h19.9c0,0-3.1-20.1-1.6-27.2    c1.6-7.2,5.2-27,5.2-27s-6.1-1.7-7.9-2C143.2,67.5,137.7,66.8,137.7,66.8z"/>
  <path fill="#263238" d="M149.6,124.1h-20.3l0-0.2c0-0.2-3.7-16.5-4-23c-0.3-6.5,4-30.1,4-30.3l0-0.1l8.4-3.9l0.1,0    c0.1,0,5.5,0.6,7.4,0.9c1.8,0.3,7.7,1.9,8,2l0.2,0l0,0.2c0,0.2-3.6,19.9-5.2,27c-1.5,7.1,1.5,27,1.6,27.2L149.6,124.1z     M129.6,123.7h19.6c-0.3-2.2-2.9-20.4-1.5-27.1c1.5-6.7,4.8-24.8,5.2-26.8c-1-0.3-6.1-1.7-7.7-1.9c-1.7-0.2-6.7-0.8-7.3-0.9    l-8.1,3.7c-0.3,1.7-4.3,23.9-4,30.2C125.9,107.1,129.2,122.1,129.6,123.7z"/>
  <path fill="#263238" d="M128.1,77.9l22.9,2c-0.2,0.9-0.4,1.9-0.6,2.9l-22.9-2C127.8,79.8,128,78.8,128.1,77.9z M147.7,96.7    c0.2-0.8,0.4-1.8,0.6-2.9l-22.3-1.9c-0.1,1-0.2,2-0.3,2.9L147.7,96.7z M149.7,86.8L127,84.9c-0.1,1-0.3,2-0.4,2.9l22.6,1.9    C149.4,88.8,149.5,87.8,149.7,86.8z M125.4,99.1c0,0.7-0.1,1.3,0,1.8c0,0.4,0.1,0.7,0.1,1.1l21.9,1.4c0-1.1,0-2.1,0-3L125.4,99.1z     M129.5,70.6l-0.1,0.1c0,0-0.2,1.1-0.5,2.9l23,2c0.2-1.1,0.4-2.1,0.6-2.9L129.5,70.6z M148,114.2l-20.8-0.2c0.2,1.1,0.4,2.1,0.6,3    l20.5,0.2C148.3,116.2,148.2,115.2,148,114.2z M126.5,109.3l21.3,1.2c-0.1-1-0.2-2-0.2-3l-21.6-1.2    C126.1,107.2,126.3,108.2,126.5,109.3z"/>
  <path fill="#B4B4B5" d="M136.4,62.5c0,0-1.7,6.4-1.8,9.8c-0.1,3.4,3.4,6.1,8.4,5.7c5.1-0.4,6-6,6-7.4c0-1.4,0.3-13,0.3-13    s-2.4,2.1-5.4,4C141,63.5,136.4,62.5,136.4,62.5z"/>
  <path fill="#263238" d="M142,78.3c-2.4,0-4.5-0.7-6-2.1c-1.1-1.1-1.7-2.4-1.6-3.8c0.1-3.4,1.8-9.8,1.8-9.8l0-0.2l0.2,0    c0,0,4.6,0.9,7.4-0.8c2.9-1.8,5.3-4,5.4-4l0.3-0.3l0,0.4c0,0.1-0.3,11.6-0.3,13c0,1.5-1,7.1-6.2,7.6    C142.7,78.2,142.3,78.3,142,78.3z M136.6,62.7c-0.3,1.1-1.7,6.6-1.8,9.6c0,1.3,0.5,2.6,1.5,3.6c1.5,1.5,4,2.2,6.7,1.9    c4.8-0.4,5.8-5.8,5.8-7.2c0-1.2,0.2-10.4,0.3-12.6c-0.8,0.6-2.8,2.3-5.1,3.7C141.4,63.5,137.5,62.9,136.6,62.7z"/>
  <path fill="#263238" d="M141,68c4.8-2.3,7.2-6.8,8.3-9.7c0-0.5,0-0.7,0-0.7s-2.4,2.1-5.4,4c-2.9,1.8-7.5,0.9-7.5,0.9s-1.1,4-1.6,7.4    C136.6,69.7,138.7,69.1,141,68z"/>
  <path fill="#263238" d="M134.6,70.1l0-0.2c0.5-3.3,1.6-7.4,1.6-7.4l0-0.2l0.2,0c0,0,4.5,0.8,7.4-0.9c2.9-1.8,5.3-4,5.4-4l0.3-0.3    l0,1.2c-1,2.6-3.3,7.4-8.4,9.8l0,0c-2.2,1-4.3,1.7-6.3,1.9L134.6,70.1z M136.6,62.7c-0.2,0.8-1,4.1-1.5,6.9    c1.8-0.2,3.8-0.8,5.9-1.8c4.9-2.3,7.2-7,8.1-9.5V58c-0.8,0.6-2.8,2.3-5.1,3.7C141.3,63.4,137.4,62.9,136.6,62.7z"/>
  <path fill="#B4B4B5" d="M157.4,37.9c0,0-0.2-6.8-2.7-10.7s-7.9-6.2-13.8-5.2c-7.4,1.2-10.7,6.8-11.9,11.4c-1.2,4.7,0.2,11.4,0.2,16.1    s5.4,13,7,14.4c1.6,1.4,3.9,1.8,6.7,0.4c2.5-1.2,6.6-5.6,9.2-8.1c2.5-2.5,4-10,4.4-11.7C156.9,42.7,157.4,37.9,157.4,37.9z"/>
  <path fill="#263238" d="M139.6,65.4c-1.3,0-2.6-0.4-3.6-1.3c-1.7-1.5-7.1-9.8-7.1-14.5c0-1.6-0.2-3.3-0.3-5.2    c-0.3-3.8-0.7-7.8,0.1-10.9c0.8-3,3.5-10.1,12-11.6c5.7-1,11.3,1.2,14,5.3c2.5,3.9,2.7,10.5,2.7,10.8c0,0,0,0,0,0    c0,0.2-0.5,4.8-0.9,6.6c-0.1,0.2-0.1,0.5-0.2,0.8c-0.6,2.6-2,8.8-4.3,11c-0.4,0.4-0.9,0.9-1.5,1.4c-2.5,2.5-5.7,5.7-7.8,6.7    C141.8,65.1,140.7,65.4,139.6,65.4z M143.6,22c-0.9,0-1.8,0.1-2.6,0.2c-8.3,1.4-11,8.4-11.7,11.3c-0.8,3.1-0.4,7-0.1,10.8    c0.2,1.9,0.3,3.7,0.3,5.3c0,4.7,5.5,12.9,6.9,14.2c1.7,1.5,4,1.6,6.5,0.4c2-1,5.2-4.1,7.7-6.6c0.5-0.5,1-1,1.5-1.4    c2.2-2.2,3.6-8.3,4.2-10.9c0.1-0.3,0.1-0.6,0.2-0.8c0.4-1.7,0.8-6.2,0.9-6.5c0-0.3-0.3-6.9-2.7-10.6C152.4,24,148.2,22,143.6,22z"/>
  <path fill="#263238" d="M139.3,52.6c-1.1,0-1.9-0.2-2.4-0.7c-0.4-0.4-0.3-0.8-0.3-0.8c0-0.1,0.1-0.2,0.2-0.2c0.1,0,0.2,0.1,0.2,0.2    c0,0,0,0.3,0.2,0.5c0.3,0.3,1,0.7,2.8,0.5c0.1,0,0.2,0.1,0.2,0.2c0,0.1-0.1,0.2-0.2,0.2C139.8,52.6,139.5,52.6,139.3,52.6z"/>
  <path fill="#263238" d="M140,56.4c-2.5,0-4.3-1.2-4.3-1.3c-0.1-0.1-0.1-0.2-0.1-0.3c0.1-0.1,0.2-0.1,0.3-0.1c0,0,3.9,2.6,7.7,0.1    c0.1-0.1,0.2,0,0.3,0.1c0.1,0.1,0,0.2-0.1,0.3C142.5,56.1,141.2,56.4,140,56.4z"/>
  <path fill="#263238" d="M143.7,46.3c-0.1,0-0.1,0-0.2-0.1c-0.2-0.1-0.2-0.3-0.1-0.5c0-0.1,1.2-2,4.4-0.4c0.2,0.1,0.3,0.3,0.2,0.5    c-0.1,0.2-0.3,0.3-0.5,0.2c-2.5-1.2-3.4,0-3.4,0.1C144,46.2,143.9,46.3,143.7,46.3z"/>
  <path fill="#263238" d="M135.8,44.9c0,0.8-0.4,1.5-0.9,1.5c-0.5,0-0.9-0.7-0.9-1.5s0.4-1.5,0.9-1.5C135.4,43.4,135.8,44.1,135.8,44.9    z"/>
  <path fill="#263238" d="M132.2,40.5C132.1,40.5,132.1,40.5,132.2,40.5c-0.2-0.1-0.2-0.2-0.2-0.3c0,0,1.1-2.4,4.7-1.2    c0.1,0,0.2,0.1,0.1,0.2c0,0.1-0.1,0.2-0.2,0.1c-3.2-1.1-4.2,0.9-4.2,1C132.3,40.4,132.2,40.5,132.2,40.5z"/>
  <path fill="#263238" d="M149,41.1c0,0-0.1,0-0.1,0c-3.4-2.5-6.5-0.9-6.5-0.9c-0.1,0.1-0.2,0-0.3-0.1c0-0.1,0-0.2,0.1-0.3    c0,0,3.3-1.7,6.9,0.9c0.1,0.1,0.1,0.2,0,0.3C149.1,41.1,149,41.1,149,41.1z"/>
  <path fill="#263238" d="M140.9,22c-7.4,1.2-10.7,6.8-11.9,11.4c-0.2,1-0.4,2.1-0.4,3.1c0.4-1.2,2.4-6.4,7.9-7.8    c6.3-1.6,11.9,0.4,13.8,3.2c1.9,2.7,1.5,6.2,2.1,7.9c0.4,1.1,2.6,2.7,4.1,3.7c0.4-2.1,0.8-5.7,0.8-5.7s-0.2-6.8-2.7-10.7    C152.2,23.4,146.8,21,140.9,22z"/>
  <path fill="#263238" d="M156.6,43.9c0,0-0.1,0-0.1,0c-1.4-0.9-3.7-2.6-4.2-3.8c-0.2-0.6-0.3-1.4-0.4-2.3c-0.2-1.7-0.4-3.8-1.7-5.6    c-1.9-2.7-7.3-4.7-13.6-3.1c-5.6,1.4-7.5,6.6-7.8,7.7c0,0.1-0.1,0.1-0.2,0.1c-0.1,0-0.2-0.1-0.2-0.2c0.1-1.2,0.2-2.3,0.4-3.2    c0.8-3,3.5-10.1,12-11.6c5.7-1,11.3,1.1,13.9,5.3c2.5,3.9,2.7,10.5,2.7,10.8c0,0.1-0.4,3.7-0.8,5.8    C156.8,43.8,156.7,43.8,156.6,43.9C156.7,43.8,156.6,43.9,156.6,43.9z M141,28c4.5,0,8,1.7,9.5,3.8c1.3,1.8,1.6,4,1.8,5.8    c0.1,0.9,0.2,1.7,0.4,2.2c0.3,0.8,1.7,2,3.8,3.5c0.4-2.1,0.7-5.4,0.7-5.4c0,0-0.2-6.8-2.7-10.6c-2.6-4-8.1-6.1-13.6-5.1    c0,0,0,0,0,0c-8.3,1.4-11,8.4-11.7,11.3c-0.1,0.5-0.2,1.1-0.3,1.7c0.9-2,3.1-5.5,7.6-6.7C138,28.2,139.6,28,141,28z M140.9,22    L140.9,22L140.9,22z"/>
  <path fill="#1BAECA" d="M155.5,39.2c0,0,0.6-6-1.1-9.9c-1.7-3.9-3.8-5.7-3.8-5.7s4.8,2.5,6.4,4.9c1.7,2.4,1.9,8.1,1.5,12.1l-3.5-0.6    L155.5,39.2z"/>
  <path fill="#263238" d="M158.8,40.8l-4-0.6l0.5-1c0-0.5,0.5-6.1-1.1-9.8c-1.6-3.8-3.7-5.6-3.7-5.6l-1.3-1.1l1.5,0.8    c0.2,0.1,4.8,2.5,6.5,4.9c1.6,2.3,2,7.9,1.5,12.3L158.8,40.8z M155.4,39.8l3,0.5c0.4-4.2,0.1-9.6-1.5-11.8    c-1.1-1.6-3.7-3.3-5.2-4.2c0.8,0.9,1.9,2.5,2.9,4.8c1.7,3.9,1.2,9.8,1.1,10l0,0.1L155.4,39.8z"/>
  <path fill="#FFFFFF" d="M160.1,45c-0.7,3.7-3.2,6.2-5.6,5.8c-2.4-0.4-3.8-3.7-3.1-7.4c0.7-3.7,3.2-6.2,5.6-5.8    C159.4,38,160.8,41.3,160.1,45z"/>
  <path fill="#263238" d="M155.1,51.1c-0.2,0-0.4,0-0.6-0.1c-2.5-0.5-3.9-3.8-3.3-7.7c0.7-3.8,3.3-6.4,5.8-6c0.9,0.2,1.7,0.7,2.3,1.6    c1,1.5,1.4,3.8,1,6l0,0C159.6,48.5,157.4,51.1,155.1,51.1z M156.4,37.7c-2.1,0-4.2,2.4-4.8,5.7c-0.6,3.6,0.7,6.8,3,7.2    c2.3,0.4,4.7-2.1,5.3-5.7l0,0c0.4-2.2,0.1-4.3-0.9-5.8c-0.6-0.8-1.3-1.3-2.1-1.4C156.8,37.8,156.6,37.7,156.4,37.7z"/>
  <path fill="#1BAECA" d="M159.7,45.5c0.5-2.8-0.5-5.3-2.4-5.7c-1.8-0.3-3.7,1.6-4.3,4.4s0.5,5.3,2.4,5.7    C157.3,50.3,159.2,48.3,159.7,45.5z"/>
  <path fill="#263238" d="M155.9,50.2c-0.1,0-0.3,0-0.4,0c-1-0.2-1.7-0.9-2.2-2c-0.5-1.1-0.6-2.5-0.3-3.9c0.5-2.9,2.6-4.9,4.5-4.6    c1,0.2,1.7,0.9,2.2,2c0.5,1.1,0.6,2.5,0.3,3.9C159.4,48.2,157.6,50.2,155.9,50.2z M156.9,40c-1.6,0-3.2,1.8-3.7,4.3    c-0.2,1.3-0.1,2.6,0.3,3.6c0.4,1,1.1,1.6,1.9,1.8c1.7,0.3,3.5-1.6,4-4.3c0.2-1.3,0.1-2.6-0.3-3.6c-0.4-1-1.1-1.6-1.9-1.8    C157.2,40,157,40,156.9,40z"/>
  <path fill="#1BAECA" d="M132,109c1.1,8.1,2.6,15.4,2.6,15.4h-8.4c0,0-2.1-11.1-4.8-17.2c-1.5-3.5-1.8-4.9-1.9-5.4    c-1.1,2.7-8.3,19.4-9.5,20c-1.4,0.6-6.4-0.4-8.3-1.1c-1.8-0.6-2-3.2-1.7-4.3c0.3-1.1,13.2-32.2,14.4-34.2c1.3-2,2.4-5.5,2.6-6.4    c0.1-0.9-0.1-3.1,1.3-3.8c0.8-0.4,6.7-1.8,11.2-2.8c2.9-0.6,5.3-1.2,5.3-1.2s-3.7,13.6-4.3,23.3C130.3,95.6,131,102.6,132,109z"/>
  <path fill="#263238" d="M134.8,124.6H126l0-0.2c0-0.1-2.2-11.1-4.7-17.1c-0.9-2.1-1.5-3.8-1.8-4.8c-1.4,3.3-8,18.9-9.4,19.5    c-1.4,0.6-6.5-0.4-8.4-1.1c-1.9-0.6-2.2-3.3-1.8-4.5c0.4-1.3,13.2-32.3,14.4-34.2c1.3-2,2.4-5.5,2.6-6.4c0-0.2,0-0.4,0-0.7    c0-1,0.1-2.6,1.3-3.3c1-0.5,8.2-2.2,11.2-2.8c2.9-0.6,5.3-1.2,5.3-1.2l0.3-0.1L135,68c0,0.1-3.7,13.7-4.3,23.3    c-0.2,3.8,0.4,10.3,1.4,17.7v0c1.1,8,2.5,15.3,2.6,15.4L134.8,124.6z M126.3,124.2h8c-0.3-1.3-1.5-7.9-2.5-15.1    c-1.1-7.4-1.6-13.9-1.4-17.8c0.6-8.8,3.7-20.9,4.2-23c-0.7,0.2-2.7,0.6-5,1.1c-4.9,1.1-10.4,2.4-11.1,2.8c-1,0.5-1.1,1.9-1.1,3    c0,0.3,0,0.5,0,0.7c-0.2,1-1.4,4.5-2.7,6.5c-1.1,1.9-14,32.8-14.4,34.1c-0.3,0.9-0.2,3.5,1.6,4.1c1.8,0.6,6.8,1.7,8.1,1.1    c1-0.4,6.8-13.6,9.4-19.9l0.3-0.7l0.1,0.7c0.1,0.6,0.5,2.1,1.9,5.4C124,112.8,126,122.8,126.3,124.2z"/>
  <path fill="#1BAECA" d="M132,109c-1.1-1.7-5.3-9.2-5.9-16.9c-0.5-6.9,2.3-18.4,3.5-22.9c2.9-0.6,5.3-1.2,5.3-1.2s-3.7,13.6-4.3,23.3    C130.3,95.6,131,102.6,132,109z"/>
  <path fill="#263238" d="M132.3,109.9l-0.5-0.8c-1.2-2-5.3-9.3-5.9-17c-0.6-7.7,2.8-20.5,3.5-23l0-0.1l0.1,0c2.9-0.6,5.3-1.2,5.3-1.2    l0.3-0.1l-0.1,0.3c0,0.1-3.7,13.7-4.3,23.3c-0.2,3.8,0.3,10.2,1.4,17.7L132.3,109.9z M129.8,69.3c-0.7,2.7-4,15.2-3.5,22.7    c0.5,6.8,3.9,13.4,5.4,16c-1-7.1-1.4-13.2-1.2-16.8c0.6-8.8,3.7-20.9,4.2-23C133.9,68.4,132,68.8,129.8,69.3z"/>
  <path fill="#263238" d="M120.9,85.7l-0.4-0.1c0.4-1.7,0.7-2.5,0.7-2.6l0.4,0.1C121.6,83.2,121.3,84.1,120.9,85.7z"/>
  <path fill="#263238" d="M119.5,101.4c0-0.1-0.9-3.3-0.1-9.1c0.1-1.1,0.3-2.1,0.5-3c0.1-0.4,0.1-0.7,0.2-1l0.4,0.1    c-0.1,0.3-0.1,0.7-0.2,1c-0.1,0.9-0.3,1.9-0.5,3c-0.8,5.8,0.1,8.9,0.1,9L119.5,101.4z"/>
  <path fill="#1BAECA" d="M187.2,102.7c-3.5-0.2-21.1-11.1-21.1-11.1s-5.5,10.8-5.7,13c-0.1,2.2,4.3,19.7,4.3,19.7h-18.9    c0,0-0.6-6.2-0.7-12.9c-0.1-3.1,0-6.4,0.3-9.2c0.8-8.9,3.8-34.2,3.8-34.2l3.1,0.3c0,0,0.9,0.3,2.3,0.7c3.6,1.2,10.8,3.8,13.9,5.7    c4.3,2.5,10.3,6.6,13.2,8.5c2.9,1.9,9.8,6.1,11.2,11.7C194,100.7,190.7,102.9,187.2,102.7z"/>
  <path fill="#263238" d="M164.9,124.6h-19.3l0-0.2c0-0.1-0.6-6.3-0.7-12.9c-0.1-3.4,0-6.6,0.3-9.2c0.7-8.8,3.8-33.9,3.8-34.2l0-0.2    l3.3,0.3c0.1,0,0.9,0.3,2.3,0.8c3.9,1.3,10.8,3.8,13.9,5.7c3.4,2,7.9,4.9,11.1,7.1c0.8,0.5,1.5,1,2.1,1.4l0.2,0.2    c3.1,2,9.7,6.2,11,11.7c0.6,2.5,0.3,4.6-0.9,6c-1.1,1.3-2.8,2-4.9,1.9h0c-3.4-0.2-19.1-9.8-21-11c-0.7,1.4-5.4,10.8-5.6,12.7    c-0.1,2.1,4.3,19.5,4.3,19.7L164.9,124.6z M146,124.2h18.5c-0.6-2.2-4.4-17.5-4.3-19.6c0.2-2.2,5.5-12.6,5.7-13.1l0.1-0.2l0.2,0.1    c0.2,0.1,17.6,10.9,21,11.1c1.9,0.1,3.6-0.6,4.6-1.8c1.1-1.3,1.4-3.3,0.8-5.7c-1.3-5.4-7.8-9.5-10.9-11.5l-0.2-0.2    c-0.6-0.4-1.3-0.9-2.1-1.4c-3.2-2.1-7.6-5.1-11.1-7.1c-3.1-1.8-10-4.3-13.8-5.7c-1.4-0.4-2.2-0.7-2.3-0.8l-2.8-0.3    c-0.3,2.3-3.1,25.6-3.8,34c-0.2,2.6-0.3,5.8-0.2,9.2C145.4,117.5,145.9,123.1,146,124.2z"/>
  <path fill="#263238" d="M144.9,112.4l0-1c-0.1-3.4,0-6.6,0.3-9.2c0.7-8.8,3.8-33.9,3.8-34.2l0-0.2l3.3,0.3c0,0,0.9,0.3,2.2,0.8    l0.1,0.1l0,0.1c-1,13.6-2.4,23.5-4.3,28.5c-2.6,7.2-4.4,12-5.1,13.8L144.9,112.4z M149.3,68.3c-0.3,2.3-3.1,25.6-3.8,34    c-0.2,2.3-0.3,5.1-0.3,8.1c0.8-2.3,2.5-6.7,4.7-12.8c1.8-5,3.3-14.7,4.2-28.2c-1.2-0.5-2-0.8-2-0.8L149.3,68.3z"/>
  <rect x="162.3" y="86.8" transform="matrix(0.2956 -0.9553 0.9553 0.2956 27.9308 218.9566)" fill="#263238" width="0.4" height="7.4"/>
  <path fill="#263238" d="M158.3,91.2c-1.9-1.7-2.4-4.8-2.6-6.4l0.4,0c0.1,1.6,0.6,4.6,2.4,6.2L158.3,91.2z"/>
  <path fill="#263238" d="M156.1,82.4h-0.4c0-1.5,0.1-2.6,0.1-2.6l0.4,0C156.2,79.9,156.1,81,156.1,82.4z"/>
  <path fill="#263238" d="M158.7,92.4c-2-1.1-3.7-4.2-3.8-4.3l0.3-0.2c0,0,1.7,3.1,3.6,4.2L158.7,92.4z"/>
  <path fill="#B4B4B5" d="M165.7,65.6c0,0-0.4-1.6-0.4-3.5c0-1.9,0.4-2.9-0.2-2.9c-0.7,0.1-1.9,0.9-2.3,2.4c-0.4,1.5,0.4,2.9,0.6,3.4    c0.1,0.5,0.1,0.9,0.1,0.9s-5.4,0.2-6.5,0.2s-2,0.6-2,1.5c0,0.9,1.1,1.4,1.1,1.4l0.5,0.2c0,0-0.6,1.2-0.2,1.8    c0.4,0.6,0.9,0.9,0.9,0.9s-0.4,0.6-0.1,1.3c0.3,0.7,0.8,1.1,0.8,1.1s-0.8,0.7,0.3,1.7c1.1,1,3.4,1.1,5,1.1c1.6,0,3,0.1,3,0.1    l0.7,0.1l5.8,8.6l5.4-6.1c0,0-8.1-7.8-9.1-9.2C168,69.4,165.7,65.6,165.7,65.6z"/>
  <path fill="#263238" d="M172.6,86.3l-5.8-8.8l-0.6-0.1c0,0-1.4-0.1-3-0.1c-2.1,0-4.1-0.1-5.1-1.1c-0.4-0.4-0.6-0.8-0.6-1.2    c0-0.3,0.1-0.5,0.2-0.7c-0.2-0.2-0.5-0.5-0.7-1c-0.3-0.6-0.1-1.1,0-1.3c-0.2-0.1-0.5-0.4-0.8-0.9c-0.4-0.6-0.1-1.5,0.1-1.8    l-0.3-0.2c0,0-1.2-0.6-1.2-1.6c0-1,0.9-1.7,2.2-1.7c0.9,0,5.3-0.1,6.3-0.2c0-0.2,0-0.4-0.1-0.7c0-0.1-0.1-0.2-0.2-0.4    c-0.3-0.7-0.7-1.8-0.4-3.1c0.4-1.6,1.7-2.5,2.4-2.6c0.2,0,0.3,0,0.4,0.1c0.2,0.2,0.2,0.7,0.1,1.4c0,0.4-0.1,1-0.1,1.6    c0,1.7,0.4,3.2,0.4,3.4c0.2,0.3,2.3,3.8,3.2,5.1c1,1.3,9,9.1,9.1,9.2l0.1,0.1L172.6,86.3z M165.1,59.4    C165.1,59.4,165.1,59.4,165.1,59.4c-0.7,0.1-1.8,0.9-2.1,2.3c-0.3,1.1,0.1,2.2,0.4,2.8c0.1,0.2,0.1,0.3,0.2,0.5    c0.1,0.5,0.1,1,0.1,1v0.2l-0.2,0c-0.1,0-5.5,0.2-6.5,0.2c-0.9,0-1.8,0.4-1.8,1.3c0,0.8,0.9,1.3,1,1.3l0.7,0.3l-0.1,0.2    c-0.2,0.3-0.5,1.2-0.2,1.6c0.4,0.6,0.8,0.9,0.8,0.9l0.2,0.1l-0.1,0.2c0,0-0.4,0.5-0.1,1.1c0.3,0.7,0.7,1,0.7,1l0.2,0.1l-0.2,0.2    c0,0-0.2,0.2-0.2,0.6c0,0.3,0.2,0.6,0.5,0.9c1.1,1,3.6,1,4.9,1c1.6,0,3,0.1,3,0.1l0.8,0.1l5.7,8.5l5.1-5.8c-1.1-1.1-8-7.8-9-9.1    c-0.9-1.3-3.2-5.1-3.2-5.1l0,0c0-0.1-0.4-1.7-0.4-3.5c0-0.6,0-1.2,0.1-1.6C165.2,60,165.3,59.5,165.1,59.4    C165.2,59.4,165.1,59.4,165.1,59.4z"/>
  <path fill="#1BAECA" d="M177.9,79.2l-7.5,7.1c0,0,6.9,9.2,10.6,13.8c3.7,4.6,10.4,5.4,13.3,3.1c2.9-2.3,3.2-7.5,0.6-10.7    C192.4,89.2,177.9,79.2,177.9,79.2z"/>
  <path fill="#263238" d="M190,104.6c-0.4,0-0.8,0-1.2-0.1c-3.1-0.3-6.1-1.9-8-4.3c-3.6-4.6-10.5-13.7-10.6-13.8l-0.1-0.1l7.7-7.3    L178,79c0.6,0.4,14.5,10,17,13.2c1.4,1.7,2,4.1,1.7,6.4c-0.2,1.9-1.1,3.6-2.4,4.6C193.4,104.1,191.8,104.6,190,104.6z M170.7,86.3    c0.9,1.2,7.1,9.4,10.5,13.7c1.9,2.3,4.7,3.9,7.7,4.2c2.2,0.2,4.1-0.2,5.3-1.2c1.2-1,2-2.5,2.3-4.4c0.3-2.2-0.4-4.5-1.7-6.1    c-2.4-3-15.4-12-16.8-13.1L170.7,86.3z"/>
  <path fill="#B4B4B5" d="M127.7,116.2c0,0,11,1.9,12.1,1.9s11.9-2.8,12.6-2.2c0.8,0.6,5.6,4.7,6.8,5.9c1.2,1.2,1.8,2.4,1.8,2.4h-10.1    l-3.1-0.7c0,0-2.6,1.2-4.1,1.2s-6.4-0.3-6.4-0.3l-8.7-0.1C128.5,124.2,125.7,119.3,127.7,116.2z"/>
  <path fill="#263238" d="M143.7,124.9c-1.4,0-6.3-0.3-6.4-0.3l-8.8-0.1l-0.1-0.1c0,0-3.1-5-0.9-8.2l0.1-0.1l0.1,0c0.1,0,11,1.9,12,1.9    c0.4,0,2-0.4,3.8-0.8c5.7-1.2,8.4-1.8,8.9-1.4c0.7,0.6,5.5,4.7,6.8,5.9c1.2,1.2,1.8,2.4,1.8,2.4l0.1,0.3h-10.4l-3-0.7    C147.3,123.9,145,124.9,143.7,124.9z M128.7,124l8.6,0.1c0.1,0,5,0.3,6.4,0.3c1.4,0,4-1.2,4-1.2l0.1,0l3.1,0.8l9.8,0    c-0.2-0.4-0.8-1.2-1.6-2c-1.2-1.2-6-5.3-6.7-5.9c-0.5-0.3-5.8,0.8-8.6,1.4c-2,0.4-3.5,0.8-3.9,0.8c-1,0-10.7-1.7-12-1.9    C126.1,119.2,128.4,123.4,128.7,124z"/>
  <path fill="#263238" d="M153.7,124.3c0,0-2.5-2.8-3.5-3.5c-1-0.7-2-1-2-1l0.1-0.4c0,0,1.1,0.3,2.1,1c1,0.7,3.4,3.4,3.5,3.5    L153.7,124.3z"/>
  <path fill="#263238" d="M157.1,124.4c-1.7-1.8-5-5.4-5.4-5.7c-0.5-0.4-2-0.8-2-0.8l0.1-0.4c0.1,0,1.5,0.5,2.1,0.9    c0.6,0.4,5.3,5.6,5.5,5.8L157.1,124.4z"/>
  <path fill="#1BAECA" d="M103.6,111.2c0,0-4.4,3.5-5.1,5.9c-0.8,2.4,0.3,5.1,2.6,6c2.4,0.9,28.6,1.4,28.6,1.4c-0.4,0.2-2.4-1.6-1.3-4    c0.8-1.6,2.8-3.9,2.8-3.9l-21.9-5.6"/>
  <path fill="#263238" d="M129.6,124.7c0,0-0.1,0-0.1,0c-2.6-0.1-26.2-0.5-28.5-1.4c-2.3-0.9-3.6-3.7-2.7-6.2c0.7-2.4,5-5.8,5.2-6    l0.2,0.3c0,0-4.4,3.5-5.1,5.8c-0.7,2.4,0.4,5,2.5,5.8c2.1,0.8,23.2,1.3,27.7,1.3c0,0,0,0-0.1-0.1c-0.7-0.8-1.3-2.2-0.5-3.8    c0.6-1.3,2.1-3.1,2.6-3.7l-21.6-5.5l0.1-0.4l22.2,5.6l-0.2,0.2c0,0-2.1,2.3-2.8,3.9c-0.7,1.5-0.1,2.7,0.2,3.1    c0.3,0.4,0.5,0.6,0.7,0.6c0.1,0,0.1,0,0.1,0l0.9,0l-0.8,0.4C129.7,124.7,129.7,124.7,129.6,124.7z"/>
  <path fill="#263238" d="M140.6,123.5H50.5v1.2h90.1V123.5z"/>
  <path fill="#263238" d="M140.8,124.9H50.3v-1.6h90.5V124.9z M50.7,124.5h89.7v-0.8H50.7V124.5z"/>
  <path fill="#FFFFFF" d="M108,124.6H51.8l-5.2-39h56.1L108,124.6z"/>
  <path fill="#263238" d="M108.2,124.8H51.6l-5.2-39.4h56.5l0,0.2L108.2,124.8z M51.9,124.4h55.8l-5.2-38.7H46.8L51.9,124.4z"/>
  <path fill="#FFFFFF" d="M106.8,124.6H50.6l-5.3-39h56.2L106.8,124.6z"/>
  <path fill="#263238" d="M107,124.8H50.5l0-0.2l-5.3-39.3h56.6L107,124.8z M50.8,124.4h55.7l-5.1-38.7H45.6L50.8,124.4z"/>
  <path fill="#263238" d="M55,124.6h51.6l-3.9-29.5c-6.9,4.4-15.3,10.1-24.5,17.1C69.9,118.6,61.9,122.4,55,124.6z"/>
  <path fill="#263238" d="M106.8,124.8H53.7l1.2-0.4c8.1-2.6,15.9-6.8,23.1-12.4c8.2-6.2,16.4-12,24.5-17.1l0.3-0.2L106.8,124.8z     M56.1,124.4h50.2l-3.9-29c-8,5.1-16.2,10.7-24.2,16.9C71.3,117.7,63.9,121.8,56.1,124.4z"/>
  <path fill="#FFFFFF" d="M74.3,108.2c2,0,3.7-1.5,3.7-3.4c0-1.9-1.7-3.4-3.7-3.4s-3.7,1.5-3.7,3.4C70.6,106.6,72.3,108.2,74.3,108.2z"/>
  <path fill="#263238" d="M74.3,108.4c-2.1,0-3.9-1.6-3.9-3.6s1.7-3.6,3.9-3.6c2.1,0,3.9,1.6,3.9,3.6S76.5,108.4,74.3,108.4z     M74.3,101.5c-1.9,0-3.5,1.5-3.5,3.2s1.6,3.2,3.5,3.2c1.9,0,3.5-1.5,3.5-3.2S76.3,101.5,74.3,101.5z"/>
  <rect x="7.3" y="124.4" fill="#263238" width="225.5" height="0.4"/>
</svg>
