<svg xmlns="http://www.w3.org/2000/svg" version="1.1" x="0px" y="0px" viewBox="0 0 247.9 110.3" style="enable-background:new 0 0 247.9 110.3;">
  <polygon fill="#004C82" points="11.1,35 11.3,35 11.8,35 12.4,35.1 13.9,35.5 16.1,35.9 17.2,36.2 18.5,36.5 19.8,36.7 21.2,37.1     22.6,37.3 24.1,37.6 28.7,38.5 30.1,38.9 31.7,39.2 33,39.5 34.5,39.8 35.8,40.1 37.2,40.2 38.3,40.5 39.5,40.7 40.4,41     41.3,41.2 42.1,41.3 42.7,41.4 43.2,41.5 43.5,41.6 43.7,41.6 45,41.9 46.1,42.1 47.1,42.4 47.8,42.6 48.6,42.8 49.2,43 50,43.4     50.2,43.6 50.7,44.1 50.7,44.2 50.8,44.3 50.8,44.4 55,44.4 55.4,44.5 55.7,44.5 56,44.6 56.3,44.6 56.6,44.7 57.4,45.1     57.5,45.3 58.1,46.3 58.3,47.6 58.1,49.1 57.7,50.6 57.1,52 56.5,53.2 56,53.9 55.8,54.2 55.6,54.3 55.2,54.5 54.5,54.8     53.5,55.2 52.5,55.6 51.1,56.1 49.7,56.7 48,57.3 46.2,58.1 44.3,58.7 42.4,59.5 38.1,61.2 35.9,62.1 33.7,62.9 31.5,63.8     29.2,64.7 26.9,65.5 24.8,66.4 22.6,67.2 20.6,68 16.7,69.5 15,70.2 13.4,70.8 11.9,71.3 10.7,71.8 9.6,72.3 8.7,72.6 8.1,72.9     7.7,73 7.6,73.1 57.4,73.1 65.5,34.8 11.1,34.8   "/>
  <polygon fill="#004C82" points="48.3,47.4 48,47.5 46.1,47.9 45.6,47.9 45.2,48 44.9,48 44.3,48 44,48.1 43.8,48.2 43.7,48.4     43.7,48.6 43.9,48.8 44.3,48.8 44.7,48.9 45.6,48.9 46.2,48.8 46.8,48.8 48.1,48.6 48.8,48.6 49.6,48.5 50.2,48.4 50.8,48.3     51.5,48.2 54.1,48.2 54.4,48.3 54.6,48.4 54.8,48.7 54.8,49.1 54.7,49.5 54.6,50 54.4,50.6 54.1,51.2 53.9,51.9 53.8,52.3     54,52.5 54.2,52.4 54.6,52 54.8,51.7 55.1,51.2 55.4,50.6 55.6,50 55.9,49.4 56.1,48.8 56.2,48.3 56.2,47.8 56,47.3 55.7,47     55.4,46.7 54.9,46.5 54.3,46.4 53.6,46.3 49.6,46.3 49.5,46.4 49.4,46.4 49.2,46.5 49,46.9 48.8,47 48.6,47.2   "/>
  <polygon fill="#004C82" points="9.2,43.6 2.9,73.1 3.2,73 3.7,72.6 4.7,72.2 6,71.5 7.4,70.9 9,70 11,69.1 12.8,68.2 14.7,67.3     16.5,66.3 18.4,65.5 20.1,64.6 21.6,63.8 22.8,63.3 23.8,62.8 24.4,62.5 25.4,62 26.3,61.5 27.3,61 28.4,60.5 29.4,60 30.5,59.5     31.6,58.9 32.7,58.4 33.9,57.9 39.7,55.5 42.3,54.6 42.6,54.5 43,54.3 43.5,54.2 45.2,53.6 47.3,53.1 47.9,53 50,52.4 51.1,52.2     51.5,52.1 51.8,52 52.1,52 52.4,51.9 52.6,51.7 52.7,51.7 52.7,51.6 52.5,51.2 52.2,51.1 51.8,51 51.4,51 50.8,50.9 50.2,50.9     49.6,51 48.4,51.1 47.2,51.3 45.8,51.6 44.4,51.9 42.9,52.3 41.4,52.8 39.9,53.2 38.4,53.7 37,54.3 35.5,54.8 34.2,55.3     32.9,55.8 31.8,56.3 30.8,56.7 29.9,57.1 29.3,57.5 25.6,46.1 48.9,46.1 49,45.6 48.6,45.2 48,44.9 47.2,44.6 46.2,44.3     43.7,43.9 39.7,43.6   "/>
  <polygon fill="#EA4156" points="233.3,54.8 70.2,54.8 70.4,52.4 233.6,52.4   "/>
  <path d="M77.6,49.4l-1.3-0.1L75.1,49l-1-0.3l-0.9-0.6l-0.6-0.7l-0.4-0.9l-0.1-1l0.1-1.2l0.5-2.1l0.4-1.9l0.4-1.6l0.3-1.3l0.2-1.2    l0.2-0.9l0.1-0.5l0.1-0.2h3.2l-0.1,0.4l-0.2,1l-0.4,1.4l-0.3,1.6l-0.4,1.6l-0.5,2.4l-0.1,0.3l-0.1,0.8v1.3l0.2,0.5l0.4,0.4    l0.5,0.3l0.7,0.2l0.8,0.1l0.9-0.1l0.7-0.1l0.7-0.3l0.5-0.5l0.4-0.5l0.4-0.6l0.6-1.5l0.1-0.8l0.3-1.2l0.3-1.4l0.3-1.5l0.4-1.4    l0.2-1.3l0.2-0.9l0.1-0.3h3.2l-0.6,2.8L86.3,39l-0.2,0.5v0.2L86,40.2l-0.3,1.4L85,44.5l-0.1,0.6l-0.3,0.6l-0.2,0.5l-0.3,0.5    l-0.4,0.5L83,47.9l-0.5,0.3l-0.6,0.3l-0.5,0.3l-0.6,0.2L80.3,49l-0.6,0.2l-1.3,0.2H77.6L77.6,49.4z M225.7,37.1h-4.5l-0.8,0.2    l-0.6,0.4l-0.1,0.2l-0.1,0.3v0.4l0.1,0.4l0.3,0.4l0.3,0.5l0.9,0.9l0.6,0.4l0.5,0.4l0.6,0.5l1,1l0.4,0.5l0.6,1.2l0.1,0.6l-0.1,0.7    l-0.2,0.7l-0.3,0.7l-0.5,0.6l-0.7,0.5l-0.8,0.4l-1,0.3l-1.3,0.2l-1.3,0.1h-4.9l0.6-2.3h5.2l0.5-0.1l0.4-0.1l0.3-0.2l0.3-0.4    l0.2-0.4l-0.1-0.8l-0.6-0.8l-1-0.8l-1-0.9l-1.1-1l-0.9-1.1l-0.6-1.1l-0.1-1.3l0.2-0.7l0.4-0.8l0.4-0.6l0.7-0.5l0.9-0.4l0.9-0.3    l1.2-0.2h5.6L225.7,37.1L225.7,37.1z M214.5,37.1h-7.2l-0.9,3.8h6.4l-0.5,2H206l-0.8,3.9h7.2l-0.5,2.3h-10.4l3.1-14.3H215    L214.5,37.1L214.5,37.1z M202,37.1h-4.4l-2.6,12h-3.2l2.6-12h-4.5l0.6-2.3h12L202,37.1L202,37.1z M179.9,49.1l1.3-2.3h4.5    l-1.3-9.1L178,49.1h-3.2l8.3-14.3h3.8l2.2,14.3H179.9L179.9,49.1z M179.3,37.1h-4.4l-2.6,12h-3.2l2.6-12h-4.5l0.6-2.3h12    L179.3,37.1L179.3,37.1z M165.5,37.1h-4.4l-0.5,0.1l-0.4,0.1l-0.3,0.2l-0.4,0.4v0.7l0.1,0.4l0.2,0.4l0.4,0.5l0.9,0.9l0.5,0.4    l0.6,0.4l1.4,1.4l0.4,0.5l0.4,0.6l0.2,0.6l0.1,0.6v0.7l-0.2,0.7l-0.3,0.7l-0.6,0.6l-0.6,0.5l-0.9,0.4l-1,0.3L160,49l-1.4,0.1h-4.8    l0.5-2.3h5.3l0.5-0.1l0.4-0.1l0.3-0.2L161,46l0.1-0.4l-0.1-0.8l-0.6-0.8l-0.9-0.8l-1-0.9l-1.1-1l-0.9-1.1l-0.6-1.1l-0.1-1.3    l0.2-0.7l0.3-0.8l0.5-0.6l0.7-0.5l0.8-0.4l1-0.3l1.2-0.2h5.6L165.5,37.1L165.5,37.1z M136.4,41.9l-1.4,7.2h6.5l0.8-0.1h0.8    l1.3-0.4l0.8-0.3l0.7-0.4l1.2-0.8l1.2-1.2l1-1.3l0.4-0.8l0.3-0.8l0.2-0.9l0.1-0.4l0.1-0.6l0.2-1.3l-0.1-1.3l-0.3-1.1l-0.5-1    l-0.8-0.9l-1-0.6l-1.3-0.4l-1.4-0.1h-7L136.4,41.9L136.4,41.9z M146.9,41.9l-0.1,0.5l-0.3,0.6l-0.2,0.5l-0.2,0.6l-0.3,0.4    l-0.4,0.5l-0.8,0.8l-1,0.6l-0.5,0.2l-0.6,0.2l-1.2,0.2h-2.9l1-4.9l1.1-4.8h4.1l0.8,0.3l0.6,0.4l0.5,0.6l0.3,0.6l0.2,0.8v1.5    L146.9,41.9L146.9,41.9L146.9,41.9z M135.2,37.1h-7.1l-0.9,3.8h6.3l-0.4,2h-6.4l-0.8,3.9h7.1l-0.4,2.3h-10.4l3.1-14.3h10.3    L135.2,37.1L135.2,37.1z M122.8,37.1h-4.5l-2.6,12h-3.1l2.6-12h-4.5l0.5-2.3h12L122.8,37.1L122.8,37.1z M105.9,49.1h-3.1l3-14.3    h3.2L105.9,49.1L105.9,49.1z M99.7,49.1h-3.9l-3.6-10.7h-0.1l-2.2,10.7h-2.8l3.1-14.3h4l3.5,10.8l2.2-10.8h2.9L99.7,49.1    L99.7,49.1z"/>
  <path d="M73.4,67.6H73l-0.2-0.1h-0.6L72,67.4h-0.2l-0.2-2h0.8l0.1,0.1h0.6l0.8-0.1L75,65l0.4-0.4l0.6-0.8l0.2-0.4v-0.4l0.1-0.5    v-0.5l-0.1-0.4L76,61.4L75.4,61H75L74.6,61H72l-2.6,12h-3.2l3.1-14.3h6.8l1.1,0.1l0.8,0.4l0.7,0.5l0.4,0.7l0.2,0.7l0.1,0.8v0.8    l-0.1,0.7l-0.3,1L78.5,65l-0.6,0.8l-0.8,0.7l-0.8,0.5l-1.9,0.6L73.4,67.6L73.4,67.6z M231.9,61h-7.3l-0.8,3.8h6.4l-0.5,2.1h-6.4    l-0.8,3.9h7.2l-0.5,2.2h-10.4l3.1-14.3h10.4L231.9,61L231.9,61z M219,61.1l-0.4-0.1h-0.3l-0.8-0.2l-0.5-0.1h-0.5l-0.4-0.1h-0.6    l-1.1,0.1l-1,0.3l-1,0.4l-0.9,0.7l-0.7,0.7l-0.7,0.9l-0.4,1.1l-0.4,1.2l-0.2,1.2l0.1,1.1l0.3,0.9l0.4,0.7l0.6,0.6l0.8,0.5l0.9,0.3    l1,0.1h0.6l0.6-0.1h0.5l1-0.2h0.4l0.5-0.1l0.4-0.1l-0.8,2.4l-0.4,0.1h-0.5l-0.4,0.1h-0.5l-0.4,0.1h-2.2l-1.5-0.2l-0.7-0.2    l-0.7-0.3l-0.6-0.3l-0.6-0.4l-0.5-0.4l-0.5-0.5l-0.3-0.6l-0.3-0.7l-0.3-0.6l-0.1-0.8v-0.8l0.1-0.9l0.1-1l0.3-0.9l0.3-1l0.8-1.5    l0.5-0.7l1.2-1.2l0.7-0.5l1.3-0.8l1.5-0.6l0.8-0.2l0.8-0.1l0.9-0.1h2l0.4,0.1h0.4l0.4,0.1h0.4l0.4,0.1L219,61.1L219,61.1z     M203.2,73H200l3.1-14.3h3.2L203.2,73L203.2,73z M193,73h-3.8l-2.1-14.3h3.2l1.4,11.6l6.4-11.6h3.1L193,73L193,73z M181.3,66.8    l2.3,6.2h-3.5l-2.6-7.8h1.8l0.6-0.1l0.6-0.2l0.5-0.3l0.4-0.3l0.4-0.4l0.2-0.5l0.2-0.6l0.1-0.4v-0.4l-0.2-0.6l-0.2-0.2l-0.4-0.2    l-1-0.2h-2.9L175,73h-3.2l3.1-14.3h6.6l1,0.1l0.9,0.2l0.7,0.3l0.5,0.4l0.4,0.5l0.3,0.7l0.1,0.8v0.8l-0.1,1l-0.3,0.9l-0.4,0.8    l-0.5,0.6l-0.6,0.6l-0.8,0.4l-0.7,0.3L181.3,66.8L181.3,66.8z M172.2,61h-7.2l-0.8,3.8h6.3l-0.4,2.1h-6.4l-0.8,3.9h7.2l-0.5,2.2    h-10.5l3.1-14.3h10.4L172.2,61L172.2,61z M159.1,61h-4l-1,0.2l-0.4,0.1l-0.2,0.2l-0.3,0.2L153,62v0.5l0.1,0.4l0.2,0.4l0.4,0.4    l0.4,0.5l0.5,0.4L155,65l0.6,0.4l0.5,0.5l0.6,0.4l0.4,0.6l0.4,0.5l0.4,0.6l0.2,0.5l0.1,0.7v0.6l-0.2,0.8l-0.3,0.6l-1.2,1.2    l-0.8,0.4l-1.1,0.3l-1.2,0.2h-6.3l0.5-2.2h5.3l0.5-0.1l0.4-0.2l0.3-0.2l0.3-0.3l0.2-0.4l-0.2-0.8l-0.6-0.8l-0.9-0.9l-1-0.9    l-1.1-0.9l-0.9-1.1l-0.6-1.2l-0.1-1.2l0.2-0.8l0.3-0.7l0.5-0.6l0.7-0.5l0.8-0.4l1-0.3l1.2-0.2l1.3-0.1h4.2L159.1,61L159.1,61z     M141.9,73h-9.7l3-14.3h3.3l-2.6,12.1h6.5L141.9,73L141.9,73z M121.3,73l1.3-2.2h4.5l-1.3-9.2L119.5,73h-3.2l8.2-14.3h3.8    l2.2,14.3H121.3L121.3,73z M120.7,61h-4.5l-2.6,12h-3.2l2.6-12h-4.4l0.5-2.3h12L120.7,61L120.7,61z M107,61h-4l-1,0.2l-0.3,0.1    l-0.3,0.2l-0.4,0.4l-0.1,0.2v0.5l0.1,0.4l0.6,0.8l0.4,0.5l0.5,0.4l0.5,0.5l0.6,0.4l0.6,0.5l0.5,0.4l0.4,0.6l0.5,0.5l0.3,0.6    l0.2,0.5l0.2,0.7l-0.1,0.6l-0.2,0.8l-0.3,0.6l-0.5,0.6l-0.6,0.6l-0.9,0.4l-1.1,0.3l-1.2,0.2h-6.2l0.4-2.2h5.4l0.4-0.1l0.8-0.4    l0.2-0.3l0.2-0.4l-0.1-0.8l-0.6-0.8l-0.9-0.9l-1.1-0.9l-1-0.9l-0.9-1.1l-0.6-1.2l-0.2-1.2l0.2-0.8l0.4-0.7l0.5-0.6l0.6-0.5    l0.8-0.4l1.1-0.3l1.2-0.2l1.3-0.1h4.2L107,61L107,61z M80.2,65.9L80,67.4l0.3,2l0.6,1.2l0.4,0.6l0.9,0.9l0.6,0.4l0.6,0.3l0.7,0.3    l0.8,0.2l0.8,0.1h1.6l1.5-0.2l0.8-0.2l0.8-0.3l0.7-0.3l0.6-0.4l0.7-0.4l0.6-0.5l0.5-0.6l0.6-0.6l0.4-0.7l0.8-1.5l0.3-0.9l0.2-1    l0.2-0.8v-1.4l-0.1-0.8l-0.1-0.7L94.8,61l-0.8-1l-0.5-0.4L93,59.3L92.4,59l-0.8-0.3L91,58.5l-0.8-0.1h-1.6L87,58.6l-0.8,0.2    l-0.8,0.3l-0.7,0.3l-0.6,0.4l-0.7,0.5L83,60.7l-0.6,0.6l-0.5,0.7l-0.5,0.6l-0.4,0.8L80.8,64l-0.3,1L80.2,65.9L80.2,65.9z     M92.2,65.9L91.9,67l-0.5,1.1L91,68.9l-0.7,0.7l-0.8,0.6l-0.9,0.5L87.8,71l-1.1,0.1L85.7,71l-0.8-0.4l-0.7-0.5l-0.5-0.7l-0.3-0.7    l-0.2-1v-1l0.2-1l0.3-1.2l0.5-1.1l0.5-0.9l0.7-0.7l0.8-0.7L87,61l0.9-0.3l1.1-0.1l1,0.2l0.9,0.2l0.7,0.6l0.5,0.6l0.3,0.8l0.2,0.9    v1L92.2,65.9L92.2,65.9z"/>
  <path d="M244.8,68.2c0-2.1-1.5-3.6-3.5-3.6c-2,0-3.5,1.5-3.5,3.6s1.5,3.6,3.5,3.6C243.3,71.8,244.8,70.3,244.8,68.2L244.8,68.2    L244.8,68.2z M240.4,68.4v2.3h-0.8v-5.2h1.9c1.1,0,1.6,0.5,1.6,1.4c0,0.6-0.4,1-0.9,1.1v0c0.4,0.1,0.6,0.5,0.7,1.2    c0.1,0.5,0.2,1.3,0.3,1.4h-0.9c-0.2-0.5-0.2-1.2-0.3-1.7c-0.1-0.4-0.4-0.6-0.9-0.6H240.4L240.4,68.4z M241.3,67.7    c0.7,0,0.9-0.4,0.9-0.7c0-0.4-0.2-0.7-0.9-0.7h-0.9v1.5H241.3L241.3,67.7z M237,68.2c0-2.5,2-4.3,4.3-4.3c2.3,0,4.3,1.7,4.3,4.3    c0,2.5-2,4.3-4.3,4.3C239,72.5,237,70.8,237,68.2L237,68.2z"/>
</svg>
