<svg xmlns="http://www.w3.org/2000/svg" width="134" height="40" viewBox="0 0 134 40" fill="none">
  <path d="M66.1231 7.14798H69.7006L63.2528 24.453H59.7734L53.3536 7.14798H57.057L61.5936 20.0135L66.1301 7.14798H66.1231Z" fill="currentColor"/>
  <path d="M79.8518 21.0101C79.2357 23.087 77.3245 24.8154 74.3631 24.8154C71.0517 24.8154 68.1394 22.4458 68.1394 18.3966C68.1394 14.5634 70.9817 12.0753 74.0691 12.0753C77.7936 12.0753 80.0268 14.4449 80.0268 18.299C80.0268 18.766 79.9778 19.2538 79.9778 19.3026H71.3458C71.4158 20.8916 72.7669 22.0346 74.3841 22.0346C75.9033 22.0346 76.7364 21.275 77.1285 20.2017L79.8518 21.0101ZM76.8134 17.0794C76.7644 15.8806 75.9803 14.7098 74.1181 14.7098C72.4239 14.7098 71.4928 15.9782 71.4228 17.0794H76.8134Z" fill="currentColor"/>
  <path d="M88.9039 15.6646C88.5329 15.5949 88.2178 15.567 87.9238 15.567C86.2576 15.567 84.8084 16.3755 84.8084 18.9611V24.453H81.546V12.4447H84.7104V14.2289C85.4455 12.6399 87.1117 12.3472 88.1408 12.3472C88.4069 12.3472 88.6589 12.3681 88.8969 12.396V15.6646H88.9039Z" fill="currentColor"/>
  <path d="M91.5713 6.4859C92.6984 6.4859 93.5805 7.39192 93.5805 8.514C93.5805 9.63607 92.6984 10.4933 91.5713 10.4933C90.4442 10.4933 89.562 9.58728 89.562 8.514C89.562 7.44071 90.4652 6.4859 91.5713 6.4859ZM89.9541 24.446V12.4378H93.2165V24.446H89.9541Z" fill="currentColor"/>
  <path d="M99.8112 11.1206V12.4378H102.535V15.2186H99.8112V24.4461H96.5278V15.2186H94.5186V12.4378H96.5278V11.0718C96.5278 8.36069 98.243 6.6044 100.917 6.6044C101.603 6.6044 102.269 6.72288 102.535 6.84833V9.58033C102.36 9.53155 102.045 9.46185 101.505 9.46185C100.77 9.46185 99.8112 9.78245 99.8112 11.1206Z" fill="currentColor"/>
  <path d="M105.181 6.4859C106.308 6.4859 107.19 7.39192 107.19 8.514C107.19 9.63607 106.308 10.4933 105.181 10.4933C104.054 10.4933 103.172 9.58728 103.172 8.514C103.172 7.44071 104.075 6.4859 105.181 6.4859ZM103.564 24.446V12.4378H106.826V24.446H103.564Z" fill="currentColor"/>
  <path d="M120.065 21.0101C119.449 23.087 117.537 24.8154 114.576 24.8154C111.265 24.8154 108.352 22.4458 108.352 18.3966C108.352 14.5634 111.195 12.0753 114.282 12.0753C118.006 12.0753 120.24 14.4449 120.24 18.299C120.24 18.766 120.191 19.2538 120.191 19.3026H111.559C111.636 20.8916 112.98 22.0346 114.597 22.0346C116.116 22.0346 116.949 21.275 117.341 20.2017L120.065 21.0101ZM117.026 17.0794C116.977 15.8806 116.193 14.7098 114.331 14.7098C112.637 14.7098 111.706 15.9782 111.636 17.0794H117.026Z" fill="currentColor"/>
  <path d="M133.429 22.2786C133.429 23.087 133.478 23.9652 133.527 24.453H130.412C130.363 24.2091 130.286 23.6237 130.286 23.0591C129.747 24.0139 128.522 24.7457 126.905 24.7457C123.474 24.7457 121.024 22.0625 121.024 18.4245C121.024 14.7865 123.404 12.152 126.807 12.152C128.893 12.152 129.873 13.0093 130.216 13.6435V6.78558H133.429V22.2855V22.2786ZM127.304 21.8395C128.97 21.8395 130.272 20.5711 130.272 18.3966C130.272 16.2221 128.97 15.0513 127.304 15.0513C125.637 15.0513 124.314 16.2709 124.314 18.4175C124.314 20.5641 125.588 21.8325 127.304 21.8325V21.8395Z" fill="currentColor"/>
  <path d="M56.616 28.781C58.5272 28.781 59.6473 29.9101 59.6473 31.4852C59.6473 32.5585 59.0243 33.3181 58.1491 33.6387C59.2973 33.9175 59.9624 34.935 59.9624 36.0501C59.9624 37.6252 58.7022 38.7682 56.861 38.7682H53.3466V28.7741H56.616V28.781ZM56.4619 33.1509C57.5821 33.1509 58.2472 32.4888 58.2472 31.5549C58.2472 30.621 57.5541 29.9937 56.4059 29.9937H54.7327V33.1509H56.4619ZM56.658 37.5625C57.7781 37.5625 58.5412 36.9422 58.5412 35.9665C58.5412 34.9908 57.9321 34.3287 56.714 34.3287H54.7327V37.5555H56.658V37.5625Z" fill="currentColor"/>
  <path d="M61.4885 41.6047L63.1897 38.0225L60.2564 31.987H61.7826L63.9038 36.6634L65.9411 31.987H67.3693L62.9377 41.5978H61.4815L61.4885 41.6047Z" fill="currentColor"/>
  <path d="M72.2629 34.6841V38.7682H70.8767V28.7741H74.5312C76.3864 28.7741 77.6325 30.0564 77.6325 31.7361C77.6325 33.4157 76.3864 34.6841 74.5312 34.6841H72.2629ZM74.2791 33.4436C75.4833 33.4436 76.2184 32.7815 76.2184 31.75C76.2184 30.7185 75.4833 30.0146 74.2791 30.0146H72.2699V33.4366H74.2791V33.4436Z" fill="currentColor"/>
  <path d="M82.9461 37.7437C82.6241 38.3918 81.896 38.9564 80.8389 38.9564C78.8436 38.9564 77.6115 37.3464 77.6115 35.3323C77.6115 33.3181 78.9136 31.8058 80.8389 31.8058C82.043 31.8058 82.6941 32.3982 82.9181 32.9487V31.987H84.2343V37.5137C84.2343 38.12 84.2903 38.6427 84.3043 38.7682H83.0161C82.9881 38.6149 82.9461 38.2594 82.9461 37.8552V37.7437ZM80.9579 37.7855C82.176 37.7855 82.9251 36.7262 82.9251 35.3323C82.9251 33.9384 82.19 32.9766 80.9719 32.9766C79.7537 32.9766 78.9626 33.9384 78.9626 35.3323C78.9626 36.7262 79.6837 37.7855 80.9579 37.7855Z" fill="currentColor"/>
  <path d="M89.541 33.3321C89.3449 33.3042 89.1419 33.2902 88.9599 33.2902C87.8398 33.2902 87.0907 33.8826 87.0907 35.3741V38.7682H85.7605V31.987H87.0627V33.1718C87.5597 32.1264 88.4068 31.8755 89.0999 31.8755C89.2819 31.8755 89.471 31.9033 89.541 31.9173V33.3251V33.3321Z" fill="currentColor"/>
  <path d="M91.0462 35.3741C91.0462 36.9213 92.0263 37.7576 93.1254 37.7576C94.3996 37.7576 94.8686 36.9004 95.0227 36.3638L96.1988 36.8725C95.8768 37.8482 94.8967 38.9843 93.1254 38.9843C91.1442 38.9843 89.688 37.437 89.688 35.3741C89.688 33.3112 91.1722 31.7779 93.1114 31.7779C94.9247 31.7779 95.8558 32.9069 96.1428 33.9384L94.9387 34.4472C94.7706 33.7851 94.2736 33.0115 93.1114 33.0115C92.0333 33.0115 91.0462 33.799 91.0462 35.3811V35.3741Z" fill="currentColor"/>
  <path d="M98.4671 38.7752H97.1369V28.572H98.4671V32.7884C98.9642 32.0706 99.7553 31.8058 100.532 31.8058C102.164 31.8058 102.969 32.9766 102.969 34.482V38.7821H101.638V34.705C101.638 33.7642 101.239 32.9975 100.049 32.9975C99.0272 32.9975 98.4951 33.7851 98.4601 34.7887V38.7752H98.4671Z" fill="currentColor"/>
  <path d="M104.411 38.7751V31.9939H105.685V32.893C106.112 32.1472 106.959 31.7918 107.75 31.7918C108.597 31.7918 109.423 32.203 109.787 33.0742C110.326 32.0985 111.202 31.7918 112.07 31.7918C113.26 31.7918 114.422 32.5933 114.422 34.3705V38.7682H113.106V34.5099C113.106 33.6248 112.665 32.9627 111.664 32.9627C110.733 32.9627 110.095 33.6945 110.095 34.6702V38.7751H108.765V34.5168C108.765 33.6457 108.338 32.9696 107.323 32.9696C106.378 32.9696 105.741 33.6735 105.741 34.6911V38.7751H104.425H104.411Z" fill="currentColor"/>
  <path d="M121.899 36.8446C121.514 38.0434 120.429 38.9843 118.84 38.9843C117.012 38.9843 115.416 37.6601 115.416 35.3602C115.416 33.2345 116.956 31.7779 118.672 31.7779C120.765 31.7779 121.941 33.2136 121.941 35.3323C121.941 35.4996 121.927 35.6738 121.913 35.7574H116.788C116.816 36.9701 117.691 37.8134 118.84 37.8134C119.988 37.8134 120.499 37.2071 120.751 36.4474L121.899 36.8446ZM120.555 34.6841C120.527 33.7084 119.89 32.9488 118.686 32.9488C117.565 32.9488 116.886 33.806 116.83 34.6841H120.555Z" fill="currentColor"/>
  <path d="M124.307 38.7752H122.977V31.9939H124.279V32.9697C124.776 32.1264 125.581 31.7988 126.372 31.7988C128.004 31.7988 128.809 32.9697 128.809 34.475V38.7752H127.479V34.6981C127.479 33.7572 127.08 32.9906 125.889 32.9906C124.839 32.9906 124.3 33.8199 124.3 34.8514V38.7682L124.307 38.7752Z" fill="currentColor"/>
  <path d="M132.057 31.9939H133.527V33.1927H132.057V36.7192C132.057 37.3395 132.309 37.6461 133.002 37.6461C133.17 37.6461 133.415 37.6182 133.527 37.5904V38.7194C133.415 38.7612 133.072 38.8448 132.624 38.8448C131.462 38.8448 130.727 38.1409 130.727 36.9143V33.1927H129.425V31.9939H129.796C130.531 31.9939 130.846 31.5409 130.846 30.9485V29.8474H132.064V31.987L132.057 31.9939Z" fill="currentColor"/>
  <path d="M44.3504 31.4224C44.3504 32.8581 43.1813 34.029 41.7321 34.029H7.46991C6.02774 34.029 4.85159 32.8651 4.85159 31.4224V9.09248C4.85159 7.65678 6.02074 6.48592 7.46991 6.48592H32.477V1.65613H6.47579C2.89835 1.65613 0 4.54146 0 8.09585V32.4121C0 35.9734 2.89835 38.8588 6.47579 38.8588H42.7402C46.3177 38.8588 49.216 35.9734 49.216 32.4121V18.306H44.3644V31.4155H44.3504V31.4224Z" fill="#2B7BBC"/>
  <path fill-rule="evenodd" clip-rule="evenodd" d="M24.587 20.5432L45.8206 -0.24653C48.0818 -2.26069 49.8811 -0.204714 48.1169 2.24155L27.2333 28.6207C25.6791 30.5791 22.7387 30.2516 21.3106 28.2235L13.7356 17.4836C11.0053 13.6156 16.984 9.44094 19.6794 13.3786L24.58 20.5502L24.587 20.5432Z" fill="#2B7BBC"/>
</svg>
