<svg xmlns="http://www.w3.org/2000/svg" version="1.1" x="0px" y="0px" viewBox="0 0 180 180" style="enable-background:new 0 0 180 180;">
  <path fill="#FFFFFF" stroke="#1E8BCB" stroke-width="2" d="M11.4,10h157.2c0.8,0,1.4,0.6,1.4,1.4v157.2c0,0.8-0.6,1.4-1.4,1.4H11.4c-0.8,0-1.4-0.6-1.4-1.4V11.4    C10,10.6,10.6,10,11.4,10z"/>
  <path fill="#1E8BCB" d="M141.8,159.1H38.2c-1.5,0-2.9-0.6-3.9-1.6c-1-1-1.6-2.5-1.6-3.9V66.8c0-1.5,0.6-2.9,1.6-3.9    c1-1,2.5-1.6,3.9-1.6h79.1c0.3,0,0.7,0.1,0.9,0.4c0.2,0.2,0.4,0.6,0.4,0.9s-0.1,0.7-0.4,0.9c-0.2,0.2-0.6,0.4-0.9,0.4H38.2    c-0.8,0-1.5,0.3-2.1,0.9c-0.6,0.6-0.9,1.3-0.9,2.1v86.7c0,0.8,0.3,1.5,0.9,2.1c0.6,0.6,1.3,0.9,2.1,0.9h103.6    c0.8,0,1.5-0.3,2.1-0.9c0.6-0.6,0.9-1.3,0.9-2.1V91.9c0-0.3,0.1-0.7,0.4-0.9c0.2-0.2,0.6-0.4,0.9-0.4c0.3,0,0.7,0.1,0.9,0.4    c0.2,0.2,0.4,0.6,0.4,0.9v61.6c0,1.5-0.6,2.9-1.6,3.9C144.7,158.5,143.3,159.1,141.8,159.1z"/>
  <path fill="#084A70" d="M133.8,151.3H46.2c-1.2,0-2.3-0.5-3.2-1.3c-0.8-0.8-1.3-2-1.3-3.2V73.5c0-1.2,0.5-2.3,1.3-3.2s2-1.3,3.2-1.3    h71c0.2,0,0.5,0.1,0.6,0.3c0.2,0.2,0.3,0.4,0.3,0.6s-0.1,0.5-0.3,0.6c-0.2,0.2-0.4,0.3-0.6,0.3h-71c-0.7,0-1.4,0.3-1.9,0.8    c-0.5,0.5-0.8,1.2-0.8,1.9v73.4c0,0.7,0.3,1.4,0.8,1.9c0.5,0.5,1.2,0.8,1.9,0.8h87.7c0.7,0,1.4-0.3,1.9-0.8    c0.5-0.5,0.8-1.2,0.8-1.9V92.2c0-0.2,0.1-0.5,0.3-0.6c0.2-0.2,0.4-0.3,0.6-0.3s0.5,0.1,0.6,0.3c0.2,0.2,0.3,0.4,0.3,0.6v54.6    c0,1.2-0.5,2.3-1.3,3.2C136.2,150.8,135,151.3,133.8,151.3z"/>
  <path fill="#1E8BCB" d="M122,89.2h-0.1c-21.2-2-42.5-2-63.7,0c-0.2,0-0.3,0-0.5,0c-0.2,0-0.3-0.1-0.4-0.2c-0.1-0.1-0.2-0.2-0.3-0.4    c-0.1-0.1-0.1-0.3-0.1-0.5c0-0.2,0-0.3,0-0.5c0-0.2,0.1-0.3,0.2-0.4c0.1-0.1,0.2-0.2,0.4-0.3c0.1-0.1,0.3-0.1,0.5-0.1    c21.3-2,42.8-2,64.2,0c0.3,0,0.6,0.2,0.8,0.4c0.2,0.2,0.3,0.5,0.3,0.9c0,0.3-0.2,0.6-0.4,0.8C122.6,89.1,122.3,89.2,122,89.2    L122,89.2z"/>
  <path fill="#084A70" d="M123.8,99.9H56.2c-0.2,0-0.5-0.1-0.6-0.3c-0.2-0.2-0.3-0.4-0.3-0.6c0-0.2,0.1-0.5,0.3-0.6    c0.2-0.2,0.4-0.3,0.6-0.3h67.6c0.2,0,0.5,0.1,0.6,0.3c0.2,0.2,0.3,0.4,0.3,0.6c0,0.2-0.1,0.5-0.3,0.6    C124.3,99.8,124,99.9,123.8,99.9z"/>
  <path fill="#084A70" d="M123.8,132.8h-15.3c-0.2,0-0.5-0.1-0.6-0.3c-0.2-0.2-0.3-0.4-0.3-0.6s0.1-0.5,0.3-0.6    c0.2-0.2,0.4-0.3,0.6-0.3h15.3c0.2,0,0.5,0.1,0.6,0.3c0.2,0.2,0.3,0.4,0.3,0.6s-0.1,0.5-0.3,0.6    C124.3,132.7,124,132.8,123.8,132.8z"/>
  <path fill="#084A70" d="M71.5,132.8H56.2c-0.2,0-0.5-0.1-0.6-0.3c-0.2-0.2-0.3-0.4-0.3-0.6s0.1-0.5,0.3-0.6c0.2-0.2,0.4-0.3,0.6-0.3    h15.3c0.2,0,0.5,0.1,0.6,0.3c0.2,0.2,0.3,0.4,0.3,0.6s-0.1,0.5-0.3,0.6C72,132.7,71.8,132.8,71.5,132.8z"/>
  <path fill="#084A70" d="M123.8,107H56.2c-0.2,0-0.5-0.1-0.6-0.3c-0.2-0.2-0.3-0.4-0.3-0.6c0-0.2,0.1-0.5,0.3-0.6    c0.2-0.2,0.4-0.3,0.6-0.3h67.6c0.2,0,0.5,0.1,0.6,0.3c0.2,0.2,0.3,0.4,0.3,0.6c0,0.2-0.1,0.5-0.3,0.6    C124.3,106.9,124,107,123.8,107z"/>
  <path fill="#084A70" d="M123.8,114H56.2c-0.2,0-0.5-0.1-0.6-0.3c-0.2-0.2-0.3-0.4-0.3-0.6c0-0.2,0.1-0.5,0.3-0.6    c0.2-0.2,0.4-0.3,0.6-0.3h67.6c0.2,0,0.5,0.1,0.6,0.3c0.2,0.2,0.3,0.4,0.3,0.6c0,0.2-0.1,0.5-0.3,0.6C124.3,114,124,114,123.8,114    z"/>
  <path fill="#084A70" d="M90,145.1c-1.5,0-2.5-1-3.1-1.6l-0.3-0.3l-0.4,0.1c-0.9,0.1-2.2,0.3-3.4-0.6c-1.2-0.9-1.4-2.2-1.6-3.1    c0-0.1-0.1-0.3-0.1-0.4l-0.4-0.2c-0.8-0.4-2-1.1-2.5-2.5c-0.1-0.3-0.2-0.7-0.2-1c0-0.8,0.3-1.6,0.7-2.4c0-0.1,0.1-0.3,0.2-0.4    c0-0.1-0.1-0.3-0.2-0.4c-0.4-0.7-0.6-1.5-0.7-2.4c0-0.3,0.1-0.7,0.2-1c0.4-1.4,1.7-2,2.5-2.5l0.4-0.2c0-0.1,0-0.2,0.1-0.4    c0.2-0.9,0.4-2.2,1.6-3.1c1.2-0.8,2.5-0.7,3.4-0.6l0.4,0.1l0.3-0.3c0.7-0.6,1.6-1.6,3.1-1.6c1.5,0,2.5,1,3.1,1.6l0.3,0.3l0.4-0.1    c0.9-0.1,2.2-0.3,3.4,0.6c1.2,0.9,1.4,2.2,1.6,3.1c0,0.1,0.1,0.3,0.1,0.4l0.4,0.2c0.8,0.4,2,1.1,2.5,2.5c0.1,0.3,0.2,0.7,0.2,1    c0,0.8-0.3,1.6-0.7,2.4c0,0.1-0.1,0.3-0.2,0.4c0.1,0.2,0.2,0.4,0.2,0.4c0.4,0.7,0.6,1.5,0.7,2.4c0,0.3-0.1,0.7-0.2,1    c-0.4,1.4-1.7,2.1-2.5,2.5l-0.4,0.2c0,0.2-0.1,0.4-0.1,0.4c-0.2,0.9-0.4,2.2-1.6,3.1c-1.2,0.8-2.5,0.7-3.4,0.6l-0.4-0.1l-0.3,0.3    C92.5,144.1,91.5,145.1,90,145.1z M86.7,141.4c0.1,0,0.2,0,0.4,0c0,0,0.1,0,0.1,0c0.3,0.2,0.6,0.4,0.9,0.7    c0.5,0.5,1.1,1.1,1.9,1.1s1.4-0.6,1.9-1.1c0.3-0.3,0.5-0.5,0.9-0.7l0.1,0c0.4-0.1,0.8-0.1,1.2,0c0.8,0.1,1.5,0.2,2.1-0.2    c0.6-0.4,0.8-1.2,0.9-2c0-0.4,0.1-0.8,0.3-1.1c0,0,0-0.1,0.1-0.1c0.3-0.3,0.6-0.5,1-0.6c0.6-0.3,1.4-0.7,1.6-1.5    c0-0.2,0.1-0.3,0.1-0.5c0-0.6-0.2-1.1-0.5-1.6c-0.2-0.4-0.4-0.8-0.4-1.2c0-0.4,0.2-0.8,0.4-1.2c0.3-0.5,0.5-1,0.5-1.6    c0-0.2,0-0.3-0.1-0.5c-0.2-0.7-0.9-1.1-1.6-1.5c-0.4-0.2-0.7-0.4-1-0.6l-0.1-0.1c-0.2-0.4-0.3-0.7-0.3-1.1c-0.1-0.8-0.3-1.5-0.9-2    c-0.6-0.4-1.4-0.3-2.1-0.2c-0.4,0.1-0.8,0.1-1.2,0l-0.1,0c-0.3-0.2-0.6-0.4-0.9-0.7c-0.6-0.5-1.1-1.1-1.9-1.1s-1.4,0.6-1.9,1.1    c-0.2,0.3-0.5,0.5-0.9,0.7l-0.1,0c-0.4,0.1-0.8,0.1-1.2,0c-0.8-0.1-1.5-0.2-2.1,0.2s-0.8,1.2-0.9,2c0,0.4-0.1,0.8-0.3,1.1    c0,0,0,0.1-0.1,0.1c-0.3,0.3-0.6,0.5-1,0.6c-0.7,0.4-1.4,0.7-1.6,1.5c0,0.2-0.1,0.3-0.1,0.5c0.1,0.6,0.2,1.1,0.5,1.6    c0.2,0.4,0.4,0.8,0.4,1.2c0,0.4-0.2,0.8-0.4,1.2c-0.3,0.5-0.5,1-0.5,1.6c0,0.2,0,0.3,0.1,0.5c0.2,0.7,0.9,1.1,1.6,1.5    c0.4,0.2,0.7,0.4,1,0.6c0,0,0.1,0.1,0.1,0.1c0.2,0.4,0.3,0.7,0.3,1.1c0.1,0.7,0.3,1.5,0.9,2c0.6,0.5,1.4,0.3,2.1,0.2    C86.2,141.5,86.5,141.4,86.7,141.4z"/>
  <path fill="#FFFFFF" d="M139.6,84.5c8.3,0,15.1-6.8,15.1-15.1c0-8.3-6.8-15.1-15.1-15.1c-8.3,0-15.1,6.8-15.1,15.1    C124.5,77.7,131.3,84.5,139.6,84.5z"/>
  <path fill="#1E8BCB" d="M139.6,85.8c-3.2,0-6.4-1-9.1-2.8c-2.7-1.8-4.8-4.4-6-7.4c-1.2-3-1.6-6.3-0.9-9.5c0.6-3.2,2.2-6.1,4.5-8.4    c2.3-2.3,5.2-3.9,8.4-4.5c3.2-0.6,6.5-0.3,9.5,0.9c3,1.2,5.6,3.3,7.4,6c1.8,2.7,2.8,5.9,2.8,9.1c0,4.4-1.7,8.5-4.8,11.6    C148.2,84,144,85.8,139.6,85.8z M139.6,55.6c-2.7,0-5.4,0.8-7.7,2.3c-2.3,1.5-4,3.7-5.1,6.2c-1,2.5-1.3,5.3-0.8,8    c0.5,2.7,1.8,5.1,3.8,7.1c1.9,1.9,4.4,3.2,7.1,3.8c2.7,0.5,5.5,0.3,8-0.8c2.5-1,4.7-2.8,6.2-5.1c1.5-2.3,2.3-4.9,2.3-7.7    c0-3.7-1.5-7.2-4-9.8C146.8,57,143.3,55.6,139.6,55.6z"/>
  <path fill="#1E8BCB" d="M138.1,76.2c-0.3,0-0.7-0.1-0.9-0.4l-5.1-5.2c-0.2-0.2-0.4-0.6-0.4-0.9c0-0.3,0.1-0.7,0.4-0.9    s0.6-0.4,0.9-0.4c0.3,0,0.7,0.1,0.9,0.4l5.2,5.1c0.2,0.2,0.3,0.4,0.4,0.7s0,0.5-0.1,0.8c-0.1,0.2-0.3,0.4-0.5,0.6    C138.6,76.1,138.4,76.2,138.1,76.2L138.1,76.2z"/>
  <path fill="#1E8BCB" d="M138.1,76.2c-0.3,0-0.5-0.1-0.7-0.2c-0.2-0.1-0.4-0.4-0.5-0.6c-0.1-0.2-0.1-0.5-0.1-0.8    c0.1-0.3,0.2-0.5,0.4-0.7l9.4-9.2c0.2-0.2,0.6-0.4,0.9-0.4c0.3,0,0.7,0.1,0.9,0.4c0.2,0.2,0.4,0.6,0.4,0.9c0,0.3-0.1,0.7-0.4,0.9    l-9.4,9.2c-0.1,0.1-0.3,0.2-0.4,0.3C138.5,76.2,138.3,76.2,138.1,76.2z"/>
  <path fill="#084A70" d="M70.4,25.7c0,1.9-0.5,3.3-1.6,4.3c-1.1,1-2.6,1.5-4.7,1.5h-3.2V20.1h3.6c1.9,0,3.3,0.5,4.4,1.5    C69.9,22.5,70.4,23.9,70.4,25.7z M67.9,25.7c0-2.5-1.1-3.7-3.3-3.7h-1.3v7.5h1C66.7,29.5,67.9,28.3,67.9,25.7z"/>
  <path fill="#084A70" d="M79.4,31.5h-6.6V20.1h6.6v2h-4.2v2.5h3.9v2h-3.9v3h4.2V31.5z"/>
  <path fill="#084A70" d="M86.1,25.1h4.5V31c-0.7,0.2-1.4,0.4-2.1,0.5c-0.7,0.1-1.3,0.1-2,0.1c-1.7,0-3.1-0.5-4-1.5    c-0.9-1-1.4-2.5-1.4-4.4c0-1.9,0.5-3.3,1.6-4.3c1.1-1,2.5-1.6,4.4-1.6c1.2,0,2.3,0.2,3.4,0.7l-0.8,1.9c-0.8-0.4-1.7-0.6-2.6-0.6    c-1.1,0-1.9,0.4-2.5,1.1c-0.6,0.7-0.9,1.7-0.9,2.8c0,1.2,0.3,2.2,0.8,2.9c0.5,0.7,1.3,1,2.2,1c0.5,0,1-0.1,1.5-0.2v-2.4h-2.2V25.1    z"/>
  <path fill="#084A70" d="M95.8,27.1v4.4h-2.4V20.1h3.3c1.6,0,2.7,0.3,3.5,0.9c0.7,0.6,1.1,1.4,1.1,2.6c0,0.7-0.2,1.3-0.6,1.8    c-0.4,0.5-0.9,0.9-1.6,1.2c1.7,2.6,2.8,4.2,3.4,5h-2.7l-2.7-4.4H95.8z M95.8,25.1h0.8c0.8,0,1.3-0.1,1.7-0.4    c0.4-0.3,0.5-0.7,0.5-1.2c0-0.5-0.2-0.9-0.6-1.2c-0.4-0.2-1-0.3-1.7-0.3h-0.7V25.1z"/>
  <path fill="#084A70" d="M110.6,31.5H104V20.1h6.6v2h-4.2v2.5h3.9v2h-3.9v3h4.2V31.5z"/>
  <path fill="#084A70" d="M119.6,31.5H113V20.1h6.6v2h-4.2v2.5h3.9v2h-3.9v3h4.2V31.5z"/>
  <path fill="#084A70" d="M42.4,36.1h2.5l-3.9,11.5h-2.7l-3.9-11.5h2.5l2.2,6.8c0.1,0.4,0.2,0.9,0.4,1.4c0.1,0.5,0.2,0.9,0.2,1.1    c0.1-0.5,0.3-1.3,0.6-2.5L42.4,36.1z"/>
  <path fill="#084A70" d="M52.9,47.6h-6.6V36.1h6.6v2h-4.2v2.5h3.9v2h-3.9v3h4.2V47.6z"/>
  <path fill="#084A70" d="M57.7,43.2v4.4h-2.4V36.1h3.3c1.6,0,2.7,0.3,3.5,0.9c0.7,0.6,1.1,1.4,1.1,2.6c0,0.7-0.2,1.3-0.6,1.8    c-0.4,0.5-0.9,0.9-1.6,1.2c1.7,2.6,2.8,4.2,3.4,5h-2.7L59,43.2H57.7z M57.7,41.2h0.8c0.8,0,1.3-0.1,1.7-0.4    c0.4-0.3,0.5-0.7,0.5-1.2c0-0.5-0.2-0.9-0.6-1.2c-0.4-0.2-1-0.3-1.7-0.3h-0.7V41.2z"/>
  <path fill="#084A70" d="M65.9,47.6V36.1h2.4v11.5H65.9z"/>
  <path fill="#084A70" d="M73.6,47.6h-2.4V36.1h6.6v2h-4.2v3h3.9v2h-3.9V47.6z"/>
  <path fill="#084A70" d="M80,47.6V36.1h2.4v11.5H80z"/>
  <path fill="#084A70" d="M90.2,38c-0.9,0-1.6,0.3-2.1,1c-0.5,0.7-0.8,1.6-0.8,2.9c0,2.6,1,3.8,2.9,3.8c0.8,0,1.8-0.2,2.9-0.6v2    c-0.9,0.4-2,0.6-3.2,0.6c-1.7,0-2.9-0.5-3.8-1.5c-0.9-1-1.3-2.5-1.3-4.4c0-1.2,0.2-2.2,0.7-3.1c0.4-0.9,1.1-1.6,1.9-2.1    c0.8-0.5,1.8-0.7,2.9-0.7c1.1,0,2.2,0.3,3.4,0.8l-0.8,2c-0.4-0.2-0.9-0.4-1.3-0.5C91,38,90.6,38,90.2,38z"/>
  <path fill="#084A70" d="M102.6,47.6l-0.8-2.7h-4.2l-0.8,2.7h-2.6l4-11.5h3l4.1,11.5H102.6z M101.2,42.8c-0.8-2.5-1.2-3.9-1.3-4.2    c-0.1-0.3-0.2-0.6-0.2-0.8c-0.2,0.7-0.7,2.3-1.5,5H101.2z"/>
  <path fill="#084A70" d="M111,47.6h-2.4v-9.4h-3.1v-2h8.7v2H111V47.6z"/>
  <path fill="#084A70" d="M115.9,47.6V36.1h2.4v11.5H115.9z"/>
  <path fill="#084A70" d="M131.6,41.8c0,1.9-0.5,3.4-1.4,4.4c-0.9,1-2.3,1.5-4,1.5s-3.1-0.5-4-1.5c-0.9-1-1.4-2.5-1.4-4.4    c0-1.9,0.5-3.4,1.4-4.4c0.9-1,2.3-1.5,4.1-1.5c1.8,0,3.1,0.5,4,1.5C131.2,38.5,131.6,39.9,131.6,41.8z M123.3,41.8    c0,1.3,0.2,2.2,0.7,2.9c0.5,0.6,1.2,1,2.2,1c1.9,0,2.9-1.3,2.9-3.9c0-2.6-1-3.9-2.9-3.9c-1,0-1.7,0.3-2.2,1    C123.5,39.6,123.3,40.6,123.3,41.8z"/>
  <path fill="#084A70" d="M144.2,47.6h-3.1l-5-8.7H136c0.1,1.5,0.1,2.6,0.1,3.3v5.4H134V36.1h3.1l5,8.6h0.1c-0.1-1.5-0.1-2.5-0.1-3.2    v-5.4h2.2V47.6z"/>
</svg>
