<svg xmlns="http://www.w3.org/2000/svg" version="1.1" x="0px" y="0px" viewBox="0 0 180 180" style="enable-background:new 0 0 180 180;">
  <path fill="#FFFFFF" stroke="#1E8BCB" stroke-width="2" d="M11.39,10h157.23c0.77,0,1.39,0.62,1.39,1.39v157.23c0,0.77-0.62,1.39-1.39,1.39H11.39   c-0.77,0-1.39-0.62-1.39-1.39V11.39C10,10.62,10.62,10,11.39,10z"/>
  <path fill="#084A70" d="M44.35,25.66h3.41c1.55,0,2.68,0.22,3.38,0.66c0.35,0.22,0.63,0.54,0.82,0.91c0.19,0.37,0.27,0.78,0.24,1.2   c0.02,0.57-0.14,1.14-0.46,1.61c-0.14,0.2-0.32,0.38-0.53,0.51c-0.21,0.13-0.44,0.22-0.69,0.26v0.08c0.59,0.09,1.13,0.41,1.5,0.88   c0.32,0.5,0.47,1.09,0.44,1.69c0.02,0.45-0.07,0.89-0.26,1.3c-0.19,0.41-0.47,0.76-0.83,1.04c-0.86,0.6-1.89,0.9-2.94,0.84h-4.07   V25.66z M46.67,29.99h1.35c0.47,0.03,0.95-0.07,1.37-0.29c0.15-0.11,0.27-0.26,0.34-0.43c0.08-0.17,0.11-0.36,0.09-0.54   c0.02-0.18-0.02-0.35-0.09-0.51c-0.08-0.16-0.2-0.29-0.34-0.39c-0.45-0.21-0.95-0.31-1.45-0.28h-1.22L46.67,29.99z M46.67,31.83   v2.85h1.51c0.5,0.04,1-0.09,1.41-0.37c0.16-0.14,0.28-0.31,0.35-0.51c0.08-0.19,0.11-0.4,0.09-0.61c0-0.91-0.65-1.36-1.94-1.36   H46.67z"/>
  <path fill="#084A70" d="M55.11,36.6V25.65h2.32V36.6H55.11z"/>
  <path fill="#084A70" d="M62.97,32.4v4.2h-2.31V25.65h3.19c1.49,0,2.59,0.27,3.3,0.81c0.36,0.29,0.65,0.67,0.84,1.1   c0.19,0.43,0.27,0.9,0.23,1.36c0,0.62-0.19,1.22-0.56,1.72c-0.38,0.52-0.9,0.93-1.5,1.18c1.65,2.46,2.72,4.05,3.22,4.77h-2.58   l-2.63-4.2H62.97z M62.97,30.51h0.76c0.57,0.04,1.13-0.09,1.62-0.37c0.18-0.13,0.32-0.31,0.41-0.51c0.09-0.2,0.13-0.42,0.11-0.64   c0.02-0.22-0.02-0.43-0.12-0.63c-0.09-0.2-0.24-0.36-0.42-0.48c-0.51-0.25-1.08-0.37-1.66-0.33h-0.71L62.97,30.51z"/>
  <path fill="#084A70" d="M75.45,36.6h-2.32v-9.01h-2.97v-1.93h8.26v1.93h-2.97V36.6z"/>
  <path fill="#084A70" d="M89.53,36.6h-2.31v-4.73h-4.33v4.73h-2.32V25.65h2.32v4.29h4.33v-4.28h2.31V36.6z"/>
  <path fill="#084A70" d="M106.27,31.02c0,1.8-0.51,3.18-1.54,4.14c-1.02,0.95-2.51,1.44-4.44,1.44h-3.1V25.65h3.43   c1.79,0,3.18,0.47,4.17,1.41C105.78,28.01,106.28,29.33,106.27,31.02z M103.86,31.08c0-2.35-1.04-3.52-3.11-3.5h-1.24v7.1h1   C102.74,34.68,103.86,33.48,103.86,31.08z"/>
  <path fill="#084A70" d="M115.7,36.6l-0.79-2.63h-3.99l-0.79,2.63h-2.5l3.86-10.99h2.84l3.88,10.99H115.7z M114.35,32.05   c-0.74-2.36-1.15-3.7-1.24-4.01c-0.09-0.31-0.16-0.55-0.2-0.73c-0.17,0.64-0.64,2.22-1.41,4.74H114.35z"/>
  <path fill="#084A70" d="M124.26,36.6h-2.32v-9.01h-2.97v-1.93h8.26v1.93h-2.97V36.6z"/>
  <path fill="#084A70" d="M135.67,36.6h-6.3V25.65h6.3v1.91h-3.98v2.4h3.71v1.9h-3.71v2.82h3.98V36.6z"/>
  <path fill="#084A70" d="M41.78,42.3h2.34L40.4,53.25h-2.51L34.17,42.3h2.34l2.06,6.51c0.11,0.39,0.23,0.83,0.35,1.34   c0.12,0.51,0.2,0.88,0.23,1.06c0.13-0.81,0.32-1.62,0.56-2.41L41.78,42.3z"/>
  <path fill="#084A70" d="M52.26,53.25h-6.3V42.3h6.3v1.91h-3.98v2.4h3.71v1.9h-3.71v2.82h3.98V53.25z"/>
  <path fill="#084A70" d="M57.32,49.05v4.2H55V42.3h3.19c1.49,0,2.59,0.27,3.3,0.81c0.57,0.52,0.94,1.22,1.04,1.99   c0.1,0.77-0.08,1.54-0.5,2.19c-0.38,0.52-0.91,0.93-1.51,1.18c1.65,2.46,2.72,4.05,3.22,4.77h-2.58l-2.63-4.2L57.32,49.05z    M57.32,47.16h0.75c0.57,0.04,1.13-0.09,1.62-0.37c0.18-0.13,0.32-0.31,0.41-0.51c0.09-0.2,0.13-0.42,0.11-0.64   c0.02-0.22-0.02-0.43-0.12-0.63s-0.24-0.36-0.42-0.48c-0.51-0.25-1.08-0.37-1.66-0.33h-0.71L57.32,47.16z"/>
  <path fill="#084A70" d="M65.58,53.25V42.3h2.32v10.95H65.58z"/>
  <path fill="#084A70" d="M73.4,53.25h-2.29V42.3h6.27v1.91H73.4V47h3.71v1.9H73.4V53.25z"/>
  <path fill="#084A70" d="M79.99,53.25V42.3h2.32v10.95H79.99z"/>
  <path fill="#084A70" d="M90.17,44.07c-0.39-0.02-0.78,0.06-1.14,0.23c-0.35,0.17-0.66,0.43-0.89,0.75c-0.52,0.82-0.77,1.77-0.72,2.74   c0,2.44,0.92,3.66,2.75,3.66c0.96-0.04,1.9-0.23,2.79-0.58v1.95c-0.96,0.38-1.98,0.57-3.01,0.56c-1.59,0-2.81-0.48-3.65-1.45   s-1.26-2.35-1.27-4.16c-0.02-1.03,0.19-2.04,0.62-2.97c0.38-0.82,1-1.51,1.78-1.97c0.83-0.47,1.77-0.71,2.73-0.69   c1.11,0.01,2.21,0.28,3.21,0.77l-0.74,1.88c-0.4-0.19-0.81-0.36-1.24-0.51C91,44.16,90.59,44.08,90.17,44.07z"/>
  <path fill="#084A70" d="M102.45,53.24l-0.79-2.63h-3.99l-0.8,2.63h-2.49l3.86-10.99h2.84l3.88,10.99H102.45z M101.1,48.69   c-0.73-2.36-1.15-3.7-1.24-4.01c-0.09-0.31-0.16-0.55-0.2-0.73c-0.17,0.64-0.64,2.22-1.41,4.74H101.1z"/>
  <path fill="#084A70" d="M111.02,53.25h-2.32v-9.01h-2.97V42.3h8.26v1.93h-2.97V53.25z"/>
  <path fill="#084A70" d="M116.12,53.25V42.3h2.32v10.95H116.12z"/>
  <path fill="#084A70" d="M131.61,47.76c0,1.81-0.45,3.2-1.34,4.18c-0.9,0.98-2.18,1.46-3.86,1.46c-1.68,0-2.96-0.49-3.86-1.46   c-0.9-0.97-1.35-2.37-1.35-4.19s0.45-3.21,1.35-4.17c0.9-0.96,2.19-1.44,3.87-1.44c1.68,0,2.97,0.48,3.86,1.45   C131.16,44.55,131.61,45.94,131.61,47.76z M123.63,47.76c0,1.22,0.23,2.14,0.7,2.76c0.25,0.31,0.56,0.56,0.93,0.72   c0.36,0.16,0.76,0.23,1.15,0.2c1.85,0,2.78-1.23,2.78-3.69c0-2.46-0.92-3.69-2.76-3.7c-0.4-0.03-0.79,0.05-1.16,0.21   c-0.36,0.16-0.68,0.41-0.93,0.72c-0.48,0.62-0.72,1.54-0.72,2.77H123.63z"/>
  <path fill="#084A70" d="M144.03,53.25h-2.95l-4.76-8.28h-0.07c0.1,1.46,0.14,2.5,0.14,3.13v5.15h-2.08V42.3h2.93l4.76,8.21h0.05   c-0.08-1.42-0.11-2.43-0.11-3.01V42.3h2.09V53.25z"/>
  <path fill="#1E8BCB" d="M134.11,156.06H46.17c-1.31,0-2.56-0.52-3.48-1.44c-0.92-0.92-1.44-2.18-1.45-3.48V77.55   c0-1.31,0.52-2.56,1.45-3.48c0.92-0.92,2.18-1.44,3.48-1.44h87.94c0.65,0,1.29,0.13,1.89,0.37c0.6,0.25,1.14,0.61,1.6,1.07   c0.46,0.46,0.82,1,1.07,1.6c0.25,0.6,0.38,1.24,0.38,1.89v73.58c0,0.65-0.13,1.29-0.38,1.89c-0.25,0.6-0.61,1.14-1.07,1.6   s-1,0.82-1.6,1.07C135.4,155.93,134.76,156.06,134.11,156.06z M46.17,75.25c-0.61,0-1.2,0.24-1.63,0.67   c-0.43,0.43-0.68,1.02-0.68,1.63v73.58c0,0.61,0.24,1.2,0.68,1.63c0.43,0.43,1.02,0.67,1.63,0.67h87.94c0.61,0,1.2-0.24,1.63-0.67   c0.43-0.43,0.68-1.02,0.68-1.63V77.55c0-0.61-0.24-1.2-0.68-1.63c-0.43-0.43-1.02-0.67-1.63-0.67H46.17z"/>
  <path fill="#FFFFFF" d="M61.9,69.56h-4.11c-0.66,0-1.19,0.53-1.19,1.19v14.26c0,0.66,0.53,1.19,1.19,1.19h4.11   c0.66,0,1.19-0.53,1.19-1.19V70.75C63.09,70.09,62.56,69.56,61.9,69.56z"/>
  <path fill="#1E8BCB" d="M61.9,87.52h-4.11c-0.66,0-1.3-0.27-1.77-0.74c-0.47-0.47-0.73-1.11-0.74-1.77V70.75   c0-0.66,0.27-1.3,0.74-1.77c0.47-0.47,1.11-0.73,1.77-0.73h4.11c0.66,0,1.3,0.27,1.77,0.73c0.47,0.47,0.73,1.11,0.74,1.77v14.26   c0,0.66-0.27,1.3-0.74,1.77C63.2,87.25,62.57,87.51,61.9,87.52z M57.91,84.89h3.87V70.87h-3.87V84.89z"/>
  <path fill="#FFFFFF" d="M82.1,69.56h-4.11c-0.66,0-1.19,0.53-1.19,1.19v14.26c0,0.66,0.53,1.19,1.19,1.19h4.11   c0.66,0,1.19-0.53,1.19-1.19V70.75C83.29,70.09,82.75,69.56,82.1,69.56z"/>
  <path fill="#1E8BCB" d="M82.12,87.52h-4.11c-0.66,0-1.3-0.26-1.77-0.73c-0.47-0.47-0.74-1.11-0.74-1.77V70.75   c0-0.66,0.27-1.3,0.74-1.77c0.47-0.47,1.11-0.73,1.77-0.73h4.11c0.66,0,1.3,0.27,1.77,0.73c0.47,0.47,0.73,1.11,0.74,1.77v14.26   c0,0.66-0.27,1.3-0.74,1.77C83.42,87.25,82.78,87.51,82.12,87.52z M78.13,84.89H82V70.87h-3.87V84.89z"/>
  <path fill="#FFFFFF" d="M102.3,69.56h-4.11c-0.66,0-1.19,0.53-1.19,1.19v14.26c0,0.66,0.53,1.19,1.19,1.19h4.11   c0.66,0,1.19-0.53,1.19-1.19V70.75C103.49,70.09,102.95,69.56,102.3,69.56z"/>
  <path fill="#1E8BCB" d="M102.29,87.52h-4.11c-0.66,0-1.3-0.27-1.77-0.74c-0.47-0.47-0.73-1.11-0.74-1.77V70.75   c0-0.66,0.27-1.3,0.74-1.77c0.47-0.47,1.11-0.73,1.77-0.73h4.11c0.66,0,1.3,0.26,1.77,0.73c0.47,0.47,0.74,1.11,0.74,1.77v14.26   c0,0.66-0.27,1.3-0.74,1.77C103.59,87.25,102.96,87.52,102.29,87.52z M98.31,84.89h3.87V70.87h-3.85L98.31,84.89z"/>
  <path fill="#FFFFFF" d="M122.49,69.56h-4.11c-0.66,0-1.19,0.53-1.19,1.19v14.26c0,0.66,0.53,1.19,1.19,1.19h4.11   c0.66,0,1.19-0.53,1.19-1.19V70.75C123.68,70.09,123.15,69.56,122.49,69.56z"/>
  <path fill="#1E8BCB" d="M122.49,87.52h-4.11c-0.66,0-1.3-0.27-1.77-0.74c-0.47-0.47-0.73-1.11-0.74-1.77V70.75   c0-0.66,0.27-1.3,0.74-1.77c0.47-0.47,1.11-0.73,1.77-0.73h4.11c0.66,0,1.3,0.27,1.77,0.73c0.47,0.47,0.73,1.11,0.73,1.77v14.26   c0,0.66-0.27,1.3-0.73,1.77C123.79,87.25,123.15,87.51,122.49,87.52z M118.5,84.89h3.87V70.87h-3.87V84.89z"/>
  <path fill="#084A70" d="M132.63,94.96H47.66c-0.23,0-0.46-0.09-0.62-0.26c-0.16-0.16-0.26-0.39-0.26-0.62c0-0.23,0.09-0.46,0.26-0.62   c0.16-0.16,0.39-0.26,0.62-0.26h84.97c0.23,0,0.46,0.09,0.62,0.26c0.16,0.16,0.26,0.39,0.26,0.62c0,0.23-0.09,0.46-0.26,0.62   C133.08,94.87,132.86,94.96,132.63,94.96z"/>
  <path fill="#084A70" d="M66.05,119.93H52.48c-0.58,0-1.14-0.23-1.55-0.64c-0.41-0.41-0.64-0.97-0.64-1.55v-13.58   c0-0.58,0.23-1.14,0.64-1.55s0.97-0.64,1.55-0.64h13.58c0.58,0,1.14,0.23,1.55,0.64c0.41,0.41,0.64,0.97,0.64,1.55v13.58   c0,0.58-0.23,1.14-0.64,1.55C67.19,119.69,66.63,119.93,66.05,119.93z M52.48,103.72c-0.12,0-0.23,0.05-0.31,0.13   c-0.08,0.08-0.13,0.19-0.13,0.31v13.58c0,0.12,0.05,0.23,0.13,0.31c0.08,0.08,0.19,0.13,0.31,0.13h13.58   c0.12,0,0.23-0.05,0.31-0.13c0.08-0.08,0.13-0.19,0.13-0.31v-13.58c0-0.12-0.05-0.23-0.13-0.31c-0.08-0.08-0.19-0.13-0.31-0.13   H52.48z"/>
  <path fill="#084A70" d="M86.64,119.93H73.06c-0.58,0-1.14-0.23-1.55-0.64c-0.41-0.41-0.64-0.97-0.64-1.55v-13.58   c0-0.58,0.23-1.14,0.64-1.55s0.97-0.64,1.55-0.64h13.58c0.58,0,1.14,0.23,1.55,0.64s0.64,0.97,0.64,1.55v13.58   c0,0.58-0.23,1.14-0.64,1.55C87.78,119.69,87.22,119.93,86.64,119.93z M73.06,103.72c-0.12,0-0.23,0.05-0.31,0.13   c-0.08,0.08-0.13,0.19-0.13,0.31v13.58c0,0.12,0.05,0.23,0.13,0.31c0.08,0.08,0.19,0.13,0.31,0.13h13.58   c0.12,0,0.23-0.05,0.31-0.13c0.08-0.08,0.13-0.19,0.13-0.31v-13.58c0-0.12-0.05-0.23-0.13-0.31c-0.08-0.08-0.19-0.13-0.31-0.13   H73.06z"/>
  <path fill="#1E8BCB" d="M107.22,120.36H93.65c-0.7,0-1.37-0.28-1.86-0.77c-0.49-0.49-0.77-1.16-0.77-1.86v-13.58   c0-0.7,0.28-1.37,0.77-1.86c0.49-0.49,1.16-0.77,1.86-0.77h13.58c0.7,0,1.37,0.28,1.86,0.77c0.49,0.49,0.77,1.16,0.77,1.86v13.58   c0,0.7-0.28,1.37-0.77,1.86C108.59,120.09,107.92,120.36,107.22,120.36z M93.65,104.16v13.58h13.58v-13.58H93.65z"/>
  <path fill="#084A70" d="M127.81,119.93h-13.58c-0.58,0-1.14-0.23-1.55-0.64c-0.41-0.41-0.64-0.97-0.64-1.55v-13.58   c0-0.58,0.23-1.14,0.64-1.55c0.41-0.41,0.97-0.64,1.55-0.64h13.58c0.58,0,1.14,0.23,1.55,0.64c0.41,0.41,0.64,0.97,0.64,1.55v13.58   c0,0.58-0.23,1.14-0.64,1.55C128.95,119.69,128.39,119.93,127.81,119.93z M114.23,103.72c-0.12,0-0.23,0.05-0.31,0.13   c-0.08,0.08-0.13,0.19-0.13,0.31v13.58c0,0.12,0.05,0.23,0.13,0.31c0.08,0.08,0.19,0.13,0.31,0.13h13.58   c0.12,0,0.23-0.05,0.31-0.13c0.08-0.08,0.13-0.19,0.13-0.31v-13.58c0-0.12-0.05-0.23-0.13-0.31c-0.08-0.08-0.19-0.13-0.31-0.13   H114.23z"/>
  <path fill="#084A70" d="M66.05,144.89H52.48c-0.58,0-1.14-0.23-1.55-0.64c-0.41-0.41-0.64-0.97-0.64-1.55v-13.58   c0-0.58,0.23-1.14,0.64-1.55c0.41-0.41,0.97-0.64,1.55-0.64h13.58c0.58,0,1.14,0.23,1.55,0.64c0.41,0.41,0.64,0.97,0.64,1.55v13.58   c0,0.58-0.23,1.14-0.64,1.55C67.19,144.66,66.63,144.89,66.05,144.89z M52.48,128.68c-0.12,0-0.23,0.05-0.31,0.13   c-0.08,0.08-0.13,0.19-0.13,0.31v13.58c0,0.12,0.05,0.23,0.13,0.31c0.08,0.08,0.19,0.13,0.31,0.13h13.58   c0.12,0,0.23-0.05,0.31-0.13c0.08-0.08,0.13-0.19,0.13-0.31v-13.58c0-0.12-0.05-0.23-0.13-0.31c-0.08-0.08-0.19-0.13-0.31-0.13   H52.48z"/>
  <path fill="#084A70" d="M86.64,144.89H73.06c-0.58,0-1.14-0.23-1.55-0.64c-0.41-0.41-0.64-0.97-0.64-1.55v-13.58   c0-0.58,0.23-1.14,0.64-1.55c0.41-0.41,0.97-0.64,1.55-0.64h13.58c0.58,0,1.14,0.23,1.55,0.64c0.41,0.41,0.64,0.97,0.64,1.55v13.58   c0,0.58-0.23,1.14-0.64,1.55C87.78,144.66,87.22,144.89,86.64,144.89z M73.06,128.68c-0.12,0-0.23,0.05-0.31,0.13   c-0.08,0.08-0.13,0.19-0.13,0.31v13.58c0,0.12,0.05,0.23,0.13,0.31c0.08,0.08,0.19,0.13,0.31,0.13h13.58   c0.12,0,0.23-0.05,0.31-0.13c0.08-0.08,0.13-0.19,0.13-0.31v-13.58c0-0.12-0.05-0.23-0.13-0.31c-0.08-0.08-0.19-0.13-0.31-0.13   H73.06z"/>
  <path fill="#084A70" d="M107.22,144.89H93.65c-0.58,0-1.14-0.23-1.55-0.64c-0.41-0.41-0.64-0.97-0.64-1.55v-13.58   c0-0.58,0.23-1.14,0.64-1.55c0.41-0.41,0.97-0.64,1.55-0.64h13.58c0.58,0,1.14,0.23,1.55,0.64c0.41,0.41,0.64,0.97,0.64,1.55v13.58   c0,0.58-0.23,1.14-0.64,1.55C108.36,144.66,107.8,144.89,107.22,144.89z M93.65,128.68c-0.12,0-0.23,0.05-0.31,0.13   c-0.08,0.08-0.13,0.19-0.13,0.31v13.58c0,0.12,0.05,0.23,0.13,0.31c0.08,0.08,0.19,0.13,0.31,0.13h13.58   c0.12,0,0.23-0.05,0.31-0.13c0.08-0.08,0.13-0.19,0.13-0.31v-13.58c0-0.12-0.05-0.23-0.13-0.31c-0.08-0.08-0.19-0.13-0.31-0.13   H93.65z"/>
  <path fill="#084A70" d="M127.81,144.89h-13.58c-0.58,0-1.14-0.23-1.55-0.64c-0.41-0.41-0.64-0.97-0.64-1.55v-13.58   c0-0.58,0.23-1.14,0.64-1.55c0.41-0.41,0.97-0.64,1.55-0.64h13.58c0.58,0,1.14,0.23,1.55,0.64c0.41,0.41,0.64,0.97,0.64,1.55v13.58   c0,0.58-0.23,1.14-0.64,1.55C128.95,144.66,128.39,144.89,127.81,144.89z M114.23,128.68c-0.12,0-0.23,0.05-0.31,0.13   c-0.08,0.08-0.13,0.19-0.13,0.31v13.58c0,0.12,0.05,0.23,0.13,0.31c0.08,0.08,0.19,0.13,0.31,0.13h13.58   c0.12,0,0.23-0.05,0.31-0.13c0.08-0.08,0.13-0.19,0.13-0.31v-13.58c0-0.12-0.05-0.23-0.13-0.31c-0.08-0.08-0.19-0.13-0.31-0.13   H114.23z"/>
  <path fill="#1E8BCB" d="M99.02,115.33c-0.35,0-0.68-0.14-0.93-0.39l-3.41-3.4c-0.25-0.25-0.39-0.58-0.39-0.93   c0-0.35,0.14-0.68,0.39-0.93c0.25-0.25,0.58-0.39,0.93-0.39c0.35,0,0.68,0.14,0.93,0.39l3.4,3.41c0.18,0.18,0.31,0.42,0.36,0.67   c0.05,0.25,0.02,0.52-0.07,0.76c-0.1,0.24-0.27,0.45-0.48,0.59C99.53,115.25,99.28,115.33,99.02,115.33z"/>
  <path fill="#1E8BCB" d="M99.02,115.33c-0.26,0-0.52-0.08-0.73-0.22c-0.22-0.15-0.39-0.35-0.49-0.59s-0.12-0.51-0.07-0.76   c0.05-0.26,0.18-0.49,0.37-0.67l6.23-6.13c0.25-0.24,0.58-0.38,0.93-0.38c0.35,0,0.68,0.14,0.93,0.39   c0.24,0.25,0.38,0.58,0.38,0.93c0,0.35-0.14,0.68-0.39,0.93l-6.23,6.13C99.69,115.19,99.36,115.33,99.02,115.33z"/>
</svg>
