<svg xmlns="http://www.w3.org/2000/svg" version="1.1" x="0px" y="0px" viewBox="0 0 180 180" style="enable-background:new 0 0 180 180;">
  <path fill="#FFFFFF" stroke="#1E8BCB" stroke-width="2" d="M11.39,10h157.23c0.77,0,1.39,0.62,1.39,1.39v157.23c0,0.77-0.62,1.39-1.39,1.39H11.39   c-0.77,0-1.39-0.62-1.39-1.39V11.39C10,10.62,10.62,10,11.39,10z"/>
  <path fill="#084A70" d="M62.89,25.18c0,1.8-0.51,3.18-1.54,4.14c-1.02,0.95-2.51,1.44-4.45,1.44h-3.1V19.81h3.43   c1.79,0,3.18,0.47,4.17,1.41C62.4,22.17,62.89,23.49,62.89,25.18z M60.48,25.24c0-2.35-1.04-3.52-3.11-3.5h-1.24v7.1h0.99   C59.36,28.84,60.48,27.64,60.48,25.24z"/>
  <path fill="#084A70" d="M65.62,30.76V19.81h2.32v10.95H65.62z"/>
  <path fill="#084A70" d="M78.71,23.23c0.03,0.5-0.05,1.01-0.24,1.48c-0.19,0.47-0.49,0.89-0.86,1.22c-0.74,0.62-1.78,0.94-3.14,0.94   h-0.99v3.89h-2.3V19.81h3.5c1.33,0,2.34,0.29,3.03,0.88c0.35,0.32,0.62,0.71,0.8,1.15C78.67,22.28,78.74,22.76,78.71,23.23z    M73.45,24.98h0.78c0.57,0.04,1.13-0.12,1.6-0.44c0.18-0.15,0.32-0.34,0.42-0.55c0.09-0.21,0.13-0.45,0.12-0.68   c0.02-0.22-0.01-0.44-0.09-0.65c-0.08-0.21-0.2-0.4-0.35-0.55c-0.4-0.29-0.9-0.43-1.4-0.39h-1.06L73.45,24.98z"/>
  <path fill="#084A70" d="M81.24,30.76V19.81h2.32v9.03H88v1.92H81.24z"/>
  <path fill="#084A70" d="M100.29,25.27c0,1.81-0.45,3.2-1.34,4.18c-0.9,0.98-2.18,1.46-3.86,1.46c-1.68,0-2.97-0.49-3.86-1.46   c-0.9-0.97-1.35-2.37-1.35-4.19c0-1.82,0.45-3.21,1.35-4.17c0.9-0.96,2.19-1.44,3.87-1.44c1.68,0,2.97,0.48,3.86,1.45   C99.84,22.06,100.29,23.46,100.29,25.27z M92.3,25.27c0,1.22,0.23,2.14,0.7,2.76c0.25,0.31,0.56,0.56,0.93,0.72   c0.36,0.16,0.76,0.23,1.15,0.2c1.85,0,2.78-1.23,2.78-3.69s-0.92-3.69-2.76-3.7c-0.4-0.03-0.8,0.05-1.16,0.21   c-0.36,0.16-0.68,0.41-0.93,0.72C92.54,23.13,92.3,24.05,92.3,25.27z"/>
  <path fill="#084A70" d="M107.65,30.76l-2.63-8.59h-0.07c0.1,1.75,0.14,2.92,0.14,3.5v5.08h-2.08V19.81h3.16l2.59,8.37h0.04l2.75-8.37   h3.16v10.95h-2.16v-5.18c0-0.25,0-0.53,0-0.85c0-0.32,0.04-1.17,0.1-2.54h-0.07l-2.82,8.57H107.65z"/>
  <path fill="#084A70" d="M124.63,30.76l-0.79-2.63h-3.99l-0.79,2.63h-2.5l3.86-10.99h2.83l3.88,10.99H124.63z M123.29,26.21   c-0.73-2.36-1.15-3.7-1.24-4.01c-0.09-0.31-0.16-0.55-0.2-0.73c-0.17,0.64-0.64,2.22-1.41,4.74H123.29z"/>
  <path fill="#084A70" d="M41.78,36.46h2.34L40.4,47.41h-2.51l-3.71-10.95h2.34l2.06,6.51c0.11,0.39,0.23,0.83,0.35,1.34   c0.12,0.51,0.2,0.88,0.23,1.06c0.13-0.81,0.32-1.62,0.56-2.41L41.78,36.46z"/>
  <path fill="#084A70" d="M52.26,47.41h-6.3V36.46h6.3v1.91h-3.98v2.4h3.71v1.9h-3.71v2.82h3.98V47.41z"/>
  <path fill="#084A70" d="M57.32,43.21v4.2H55V36.46h3.19c1.49,0,2.59,0.27,3.3,0.81c0.57,0.52,0.94,1.22,1.04,1.99   c0.1,0.77-0.08,1.54-0.5,2.19c-0.38,0.52-0.91,0.93-1.51,1.18c1.65,2.46,2.72,4.05,3.22,4.77h-2.58l-2.63-4.2L57.32,43.21z    M57.32,41.32h0.75c0.57,0.04,1.13-0.09,1.62-0.37c0.18-0.13,0.32-0.31,0.41-0.51c0.09-0.2,0.13-0.42,0.11-0.64   c0.02-0.22-0.02-0.43-0.12-0.63c-0.09-0.2-0.24-0.36-0.42-0.48c-0.51-0.25-1.08-0.37-1.66-0.33h-0.71L57.32,41.32z"/>
  <path fill="#084A70" d="M65.58,47.41V36.46h2.32v10.95H65.58z"/>
  <path fill="#084A70" d="M73.4,47.41h-2.29V36.46h6.27v1.91H73.4v2.8h3.71v1.9H73.4V47.41z"/>
  <path fill="#084A70" d="M79.99,47.41V36.46h2.32v10.95H79.99z"/>
  <path fill="#084A70" d="M90.17,38.23c-0.39-0.02-0.78,0.06-1.14,0.23c-0.35,0.17-0.66,0.43-0.89,0.75c-0.52,0.82-0.77,1.77-0.72,2.74   c0,2.44,0.92,3.66,2.75,3.66c0.96-0.04,1.9-0.23,2.79-0.58v1.95c-0.96,0.38-1.98,0.57-3.01,0.56c-1.59,0-2.81-0.48-3.65-1.45   c-0.84-0.97-1.26-2.35-1.27-4.16c-0.02-1.03,0.19-2.04,0.62-2.97c0.38-0.82,1-1.51,1.78-1.97c0.83-0.47,1.77-0.71,2.73-0.69   c1.11,0.01,2.21,0.28,3.21,0.77l-0.74,1.88c-0.4-0.19-0.81-0.36-1.24-0.51C91,38.32,90.59,38.24,90.17,38.23z"/>
  <path fill="#084A70" d="M102.45,47.41l-0.79-2.63h-3.99l-0.8,2.63h-2.49l3.86-10.99h2.84l3.88,10.99H102.45z M101.1,42.85   c-0.73-2.36-1.15-3.7-1.24-4.01c-0.09-0.31-0.16-0.55-0.2-0.73c-0.17,0.64-0.64,2.22-1.41,4.74H101.1z"/>
  <path fill="#084A70" d="M111.02,47.41h-2.32v-9.01h-2.97v-1.93h8.26v1.93h-2.97V47.41z"/>
  <path fill="#084A70" d="M116.12,47.41V36.46h2.32v10.95H116.12z"/>
  <path fill="#084A70" d="M131.61,41.92c0,1.81-0.45,3.2-1.34,4.18c-0.9,0.98-2.18,1.46-3.86,1.46c-1.68,0-2.96-0.49-3.86-1.46   c-0.9-0.97-1.35-2.37-1.35-4.19c0-1.82,0.45-3.21,1.35-4.17c0.9-0.96,2.19-1.44,3.87-1.44c1.68,0,2.97,0.48,3.86,1.45   C131.16,38.71,131.61,40.1,131.61,41.92z M123.63,41.92c0,1.22,0.23,2.14,0.7,2.76c0.25,0.31,0.56,0.56,0.93,0.72   c0.36,0.16,0.76,0.23,1.15,0.2c1.85,0,2.78-1.23,2.78-3.69c0-2.46-0.92-3.69-2.76-3.7c-0.4-0.03-0.79,0.05-1.16,0.21   c-0.36,0.16-0.68,0.41-0.93,0.72c-0.48,0.62-0.72,1.54-0.72,2.77H123.63z"/>
  <path fill="#084A70" d="M144.03,47.41h-2.95l-4.76-8.28h-0.07c0.1,1.46,0.14,2.5,0.14,3.13v5.15h-2.08V36.46h2.93l4.76,8.21h0.05   c-0.08-1.42-0.11-2.43-0.11-3.01v-5.19h2.09V47.41z"/>
  <path fill="#1E8BCB" d="M141.8,159.05H38.2c-1.48,0-2.89-0.59-3.94-1.63c-1.04-1.04-1.63-2.46-1.63-3.94v-86.7   c0-1.48,0.59-2.89,1.63-3.94c1.04-1.04,2.46-1.63,3.94-1.63h79.14c0.35,0,0.68,0.14,0.93,0.38c0.25,0.25,0.38,0.58,0.38,0.93   c0,0.35-0.14,0.68-0.38,0.93c-0.25,0.25-0.58,0.38-0.93,0.38H38.2c-0.78,0-1.53,0.31-2.08,0.86c-0.55,0.55-0.86,1.3-0.86,2.08   v86.72c0,0.78,0.31,1.53,0.86,2.08c0.55,0.55,1.3,0.86,2.08,0.86H141.8c0.78,0,1.53-0.31,2.08-0.86c0.55-0.55,0.86-1.3,0.86-2.08   V91.92c0-0.35,0.14-0.68,0.38-0.93c0.25-0.25,0.58-0.38,0.93-0.38c0.35,0,0.68,0.14,0.93,0.38c0.25,0.25,0.38,0.58,0.38,0.93v61.56   c0,1.48-0.59,2.89-1.63,3.94C144.7,158.46,143.28,159.05,141.8,159.05z"/>
  <path fill="#084A70" d="M133.83,151.29H46.17c-1.19,0-2.33-0.47-3.17-1.31c-0.84-0.84-1.31-1.98-1.31-3.17V73.46   c0-1.19,0.47-2.32,1.31-3.16c0.84-0.84,1.98-1.31,3.16-1.31h71.03c0.23,0,0.46,0.09,0.62,0.26c0.16,0.16,0.26,0.39,0.26,0.62   s-0.09,0.46-0.26,0.62c-0.16,0.16-0.39,0.26-0.62,0.26H46.17c-0.72,0-1.41,0.29-1.93,0.8c-0.51,0.51-0.8,1.2-0.8,1.93v73.36   c0,0.72,0.29,1.42,0.8,1.93c0.51,0.51,1.2,0.8,1.93,0.8h87.66c0.72,0,1.42-0.29,1.93-0.8c0.51-0.51,0.8-1.21,0.8-1.93V92.18   c0-0.23,0.09-0.46,0.26-0.62c0.16-0.16,0.39-0.26,0.62-0.26s0.46,0.09,0.62,0.26c0.16,0.16,0.26,0.39,0.26,0.62v54.63   c0,1.19-0.47,2.33-1.31,3.17C136.16,150.82,135.02,151.29,133.83,151.29z"/>
  <path fill="#1E8BCB" d="M121.97,89.21h-0.12c-21.19-2-42.52-2-63.71,0c-0.16,0.02-0.32,0-0.48-0.05c-0.15-0.05-0.3-0.12-0.42-0.23   c-0.12-0.1-0.23-0.23-0.3-0.37c-0.08-0.14-0.12-0.3-0.14-0.46c-0.02-0.16,0-0.32,0.05-0.48c0.05-0.15,0.12-0.3,0.23-0.42   c0.1-0.12,0.23-0.23,0.37-0.3c0.14-0.08,0.3-0.12,0.46-0.14c21.34-2.01,42.83-2.01,64.17,0c0.32,0.03,0.61,0.17,0.82,0.41   c0.21,0.24,0.32,0.55,0.3,0.87c-0.01,0.32-0.15,0.62-0.38,0.83C122.6,89.09,122.29,89.21,121.97,89.21L121.97,89.21z"/>
  <path fill="#084A70" d="M123.81,99.9H56.2c-0.23,0-0.46-0.09-0.62-0.26c-0.16-0.16-0.26-0.39-0.26-0.62c0-0.23,0.09-0.46,0.26-0.62   c0.16-0.16,0.39-0.26,0.62-0.26h67.61c0.23,0,0.46,0.09,0.62,0.26c0.16,0.16,0.26,0.39,0.26,0.62c0,0.23-0.09,0.46-0.26,0.62   C124.26,99.81,124.04,99.9,123.81,99.9z"/>
  <path fill="#084A70" d="M123.81,132.82h-15.33c-0.23,0-0.46-0.09-0.62-0.26c-0.16-0.16-0.26-0.39-0.26-0.62s0.09-0.46,0.26-0.62   c0.16-0.16,0.39-0.26,0.62-0.26h15.33c0.23,0,0.46,0.09,0.62,0.26c0.16,0.16,0.26,0.39,0.26,0.62s-0.09,0.46-0.26,0.62   C124.26,132.73,124.04,132.82,123.81,132.82z"/>
  <path fill="#084A70" d="M71.52,132.82H56.2c-0.23,0-0.46-0.09-0.62-0.26c-0.16-0.16-0.26-0.39-0.26-0.62s0.09-0.46,0.26-0.62   c0.16-0.16,0.39-0.26,0.62-0.26h15.33c0.23,0,0.46,0.09,0.62,0.26c0.16,0.16,0.26,0.39,0.26,0.62s-0.09,0.46-0.26,0.62   C71.98,132.73,71.76,132.82,71.52,132.82z"/>
  <path fill="#084A70" d="M123.81,106.97H56.2c-0.23,0-0.46-0.09-0.62-0.26c-0.16-0.16-0.26-0.39-0.26-0.62c0-0.23,0.09-0.46,0.26-0.62   c0.16-0.16,0.39-0.26,0.62-0.26h67.61c0.23,0,0.46,0.09,0.62,0.26c0.16,0.16,0.26,0.39,0.26,0.62c0,0.23-0.09,0.46-0.26,0.62   C124.26,106.88,124.04,106.97,123.81,106.97z"/>
  <path fill="#084A70" d="M123.81,114.04H56.2c-0.23,0-0.46-0.09-0.62-0.26c-0.16-0.16-0.26-0.39-0.26-0.62c0-0.23,0.09-0.46,0.26-0.62   c0.16-0.16,0.39-0.26,0.62-0.26h67.61c0.23,0,0.46,0.09,0.62,0.26c0.16,0.16,0.26,0.39,0.26,0.62c0,0.23-0.09,0.46-0.26,0.62   C124.26,113.95,124.04,114.04,123.81,114.04z"/>
  <path fill="#084A70" d="M90,145.05c-1.49,0-2.52-0.99-3.13-1.58l-0.3-0.28l-0.44,0.06c-0.9,0.12-2.23,0.3-3.41-0.56   c-1.17-0.85-1.43-2.19-1.59-3.07c0-0.08-0.05-0.28-0.08-0.44l-0.38-0.21c-0.8-0.44-2-1.07-2.46-2.47   c-0.11-0.33-0.16-0.68-0.16-1.02c0.04-0.83,0.27-1.63,0.68-2.35c0.05-0.11,0.14-0.31,0.21-0.44c-0.04-0.11-0.11-0.25-0.21-0.44   c-0.41-0.72-0.64-1.53-0.68-2.36c0-0.35,0.06-0.69,0.16-1.02c0.44-1.41,1.66-2.05,2.45-2.47l0.38-0.21   c0.02-0.11,0.05-0.25,0.08-0.44c0.16-0.88,0.4-2.22,1.59-3.07c1.19-0.85,2.51-0.68,3.4-0.56l0.44,0.06l0.3-0.28   c0.66-0.63,1.64-1.58,3.13-1.58s2.47,0.95,3.13,1.58l0.31,0.29l0.44-0.05c0.88-0.12,2.22-0.3,3.4,0.56   c1.18,0.86,1.42,2.19,1.59,3.07c0,0.11,0.05,0.29,0.08,0.44l0.38,0.21c0.8,0.44,2,1.07,2.46,2.47c0.11,0.33,0.16,0.67,0.16,1.02   c-0.04,0.83-0.27,1.64-0.68,2.36c-0.05,0.1-0.14,0.3-0.21,0.44c0.07,0.15,0.17,0.36,0.21,0.44c0.41,0.72,0.64,1.53,0.68,2.36   c0,0.35-0.05,0.69-0.16,1.02c-0.44,1.41-1.71,2.08-2.46,2.47l-0.38,0.21c-0.03,0.15-0.07,0.35-0.08,0.44   c-0.16,0.88-0.4,2.22-1.59,3.07c-1.18,0.85-2.51,0.67-3.39,0.56l-0.44-0.06l-0.3,0.28C92.48,144.09,91.49,145.05,90,145.05z    M86.74,141.43c0.12,0,0.24,0.01,0.35,0.04c0.04,0.01,0.07,0.02,0.11,0.04c0.33,0.18,0.63,0.42,0.88,0.71   c0.53,0.51,1.13,1.09,1.91,1.09s1.36-0.55,1.91-1.09c0.25-0.28,0.55-0.52,0.88-0.7l0.11-0.04c0.4-0.07,0.81-0.05,1.21,0.03   c0.76,0.11,1.54,0.21,2.15-0.24c0.61-0.44,0.75-1.22,0.88-1.97c0.04-0.39,0.15-0.78,0.32-1.13c0.02-0.03,0.04-0.07,0.07-0.1   c0.28-0.27,0.61-0.49,0.97-0.64c0.65-0.35,1.38-0.74,1.62-1.47c0.05-0.16,0.07-0.32,0.07-0.48c-0.05-0.56-0.22-1.11-0.51-1.6   c-0.23-0.36-0.38-0.77-0.44-1.19c0.05-0.43,0.18-0.84,0.41-1.21c0.29-0.5,0.46-1.05,0.52-1.62c0-0.16-0.03-0.33-0.07-0.48   c-0.24-0.73-0.94-1.11-1.62-1.47c-0.36-0.15-0.68-0.37-0.96-0.64l-0.07-0.09c-0.18-0.35-0.29-0.74-0.32-1.13   c-0.14-0.77-0.28-1.54-0.88-1.99c-0.6-0.45-1.39-0.34-2.14-0.24c-0.39,0.09-0.8,0.1-1.2,0.04l-0.12-0.04   c-0.33-0.19-0.63-0.43-0.88-0.71c-0.56-0.53-1.13-1.09-1.91-1.09s-1.38,0.58-1.91,1.09c-0.25,0.28-0.55,0.52-0.88,0.71l-0.12,0.04   c-0.4,0.07-0.81,0.05-1.21-0.04c-0.75-0.1-1.53-0.21-2.14,0.24c-0.61,0.44-0.75,1.22-0.88,1.97c-0.04,0.39-0.15,0.78-0.32,1.13   c-0.02,0.03-0.04,0.07-0.07,0.1c-0.28,0.27-0.61,0.49-0.96,0.64c-0.69,0.37-1.38,0.74-1.62,1.47c-0.05,0.16-0.07,0.32-0.07,0.48   c0.05,0.56,0.22,1.11,0.51,1.6c0.23,0.36,0.38,0.76,0.44,1.19c-0.05,0.43-0.19,0.85-0.41,1.22c-0.29,0.49-0.46,1.04-0.51,1.61   c0,0.16,0.02,0.32,0.07,0.48c0.24,0.74,0.94,1.11,1.62,1.47c0.35,0.15,0.68,0.37,0.96,0.64c0.03,0.03,0.05,0.07,0.07,0.1   c0.18,0.36,0.29,0.74,0.33,1.14c0.14,0.75,0.27,1.52,0.88,1.98c0.6,0.45,1.38,0.34,2.14,0.24   C86.17,141.47,86.45,141.44,86.74,141.43z"/>
  <path fill="#FFFFFF" d="M139.62,84.46c8.35,0,15.11-6.76,15.11-15.11c0-8.34-6.76-15.11-15.11-15.11c-8.34,0-15.11,6.76-15.11,15.11   C124.51,77.7,131.27,84.46,139.62,84.46z"/>
  <path fill="#1E8BCB" d="M139.62,85.78c-3.25,0-6.42-0.96-9.12-2.77c-2.7-1.8-4.81-4.37-6.05-7.37c-1.24-3-1.57-6.3-0.93-9.49   c0.63-3.19,2.2-6.11,4.49-8.41c2.3-2.3,5.22-3.86,8.41-4.49c3.19-0.63,6.49-0.31,9.49,0.93c3,1.24,5.57,3.35,7.37,6.05   c1.8,2.7,2.77,5.88,2.77,9.12c-0.01,4.35-1.74,8.53-4.82,11.61C148.14,84.04,143.97,85.77,139.62,85.78z M139.62,55.56   c-2.73,0-5.4,0.81-7.66,2.33c-2.27,1.52-4.04,3.67-5.08,6.19c-1.04,2.52-1.32,5.29-0.78,7.97c0.53,2.68,1.85,5.13,3.78,7.06   c1.93,1.93,4.39,3.24,7.06,3.78c2.68,0.53,5.45,0.26,7.97-0.78c2.52-1.04,4.68-2.81,6.19-5.08c1.52-2.27,2.33-4.94,2.33-7.66   c0-3.66-1.46-7.16-4.05-9.75C146.78,57.01,143.27,55.56,139.62,55.56z"/>
  <path fill="#1E8BCB" d="M138.11,76.2c-0.35,0-0.68-0.14-0.93-0.39l-5.14-5.16c-0.23-0.25-0.36-0.58-0.35-0.92   c0.01-0.34,0.14-0.67,0.38-0.91c0.24-0.24,0.57-0.38,0.91-0.38c0.34-0.01,0.67,0.12,0.92,0.35l5.15,5.14   c0.18,0.18,0.31,0.42,0.36,0.67c0.05,0.25,0.02,0.52-0.07,0.76c-0.1,0.24-0.27,0.44-0.48,0.59c-0.22,0.14-0.47,0.22-0.73,0.22   L138.11,76.2z"/>
  <path fill="#1E8BCB" d="M138.11,76.2c-0.26,0-0.52-0.08-0.73-0.22c-0.22-0.15-0.38-0.35-0.48-0.59c-0.1-0.24-0.12-0.51-0.07-0.76   c0.05-0.26,0.18-0.49,0.37-0.67l9.4-9.25c0.25-0.24,0.58-0.38,0.93-0.38c0.35,0,0.68,0.14,0.93,0.39c0.25,0.25,0.38,0.58,0.38,0.93   c0,0.35-0.14,0.68-0.39,0.93l-9.38,9.22c-0.12,0.13-0.27,0.23-0.43,0.29C138.46,76.17,138.29,76.2,138.11,76.2z"/>
</svg>
