<svg xmlns="http://www.w3.org/2000/svg" version="1.1" x="0px" y="0px" viewBox="0 0 180 180" style="enable-background:new 0 0 180 180;">
  <path fill="#FFFFFF" stroke="#1E8BCB" stroke-width="2" d="M11.39,10h157.23c0.77,0,1.39,0.62,1.39,1.39v157.23c0,0.77-0.62,1.39-1.39,1.39H11.39   c-0.77,0-1.39-0.62-1.39-1.39V11.39C10,10.62,10.62,10,11.39,10z"/>
  <path fill="#084A70" d="M28.04,34.66V23.71h2.32v10.95H28.04z"/>
  <path fill="#084A70" d="M38.21,34.66l-2.63-8.59h-0.07c0.1,1.75,0.14,2.92,0.14,3.5v5.08h-2.08V23.71h3.16l2.59,8.37h0.04l2.75-8.37   h3.16v10.95h-2.16v-5.18c0-0.25,0-0.53,0-0.85c0-0.32,0.04-1.17,0.1-2.54h-0.07l-2.81,8.57H38.21z"/>
  <path fill="#084A70" d="M53.12,34.66l-2.63-8.59h-0.07c0.1,1.75,0.14,2.92,0.14,3.5v5.08h-2.08V23.71h3.16l2.59,8.37h0.04l2.75-8.37   h3.16v10.95h-2.16v-5.18c0-0.25,0-0.53,0-0.85c0-0.32,0.04-1.17,0.1-2.54h-0.07l-2.82,8.57H53.12z"/>
  <path fill="#084A70" d="M72.31,23.71v7.08c0.02,0.74-0.17,1.48-0.54,2.12c-0.37,0.62-0.91,1.11-1.57,1.4   c-0.76,0.34-1.59,0.51-2.43,0.49c-1.4,0-2.5-0.36-3.28-1.08c-0.4-0.38-0.7-0.84-0.91-1.35c-0.2-0.51-0.29-1.06-0.26-1.61v-7.05   h2.31v6.7c-0.05,0.66,0.13,1.32,0.51,1.85c0.22,0.22,0.48,0.38,0.78,0.48c0.29,0.1,0.6,0.14,0.91,0.11   c0.3,0.03,0.61-0.01,0.89-0.11c0.29-0.1,0.54-0.27,0.76-0.48c0.39-0.54,0.57-1.21,0.51-1.87v-6.68H72.31z"/>
  <path fill="#084A70" d="M85.15,34.66h-2.95l-4.76-8.28h-0.07c0.09,1.46,0.14,2.5,0.14,3.13v5.15h-2.07V23.71h2.93l4.75,8.21h0.05   c-0.07-1.42-0.11-2.43-0.11-3.01v-5.19h2.08V34.66z"/>
  <path fill="#084A70" d="M88.37,34.66V23.71h2.32v10.95H88.37z"/>
  <path fill="#084A70" d="M101.04,34.66h-8.15v-1.51l5.26-7.52h-5.11v-1.92h7.86v1.5l-5.26,7.53h5.4V34.66z"/>
  <path fill="#084A70" d="M109.94,34.66l-0.79-2.63h-3.99l-0.79,2.63h-2.5l3.86-10.99h2.84l3.88,10.99H109.94z M108.59,30.11   c-0.74-2.36-1.15-3.7-1.24-4.01c-0.09-0.31-0.16-0.55-0.2-0.73c-0.17,0.64-0.64,2.22-1.41,4.74H108.59z"/>
  <path fill="#084A70" d="M118.5,34.66h-2.32v-9.01h-2.97v-1.93h8.26v1.93h-2.97L118.5,34.66z"/>
  <path fill="#084A70" d="M123.62,34.66V23.71h2.3v10.95H123.62z"/>
  <path fill="#084A70" d="M139.08,29.17c0,1.81-0.45,3.2-1.35,4.18c-0.9,0.98-2.19,1.46-3.86,1.46c-1.68,0-2.97-0.49-3.86-1.46   s-1.35-2.37-1.35-4.19c0-1.82,0.45-3.21,1.35-4.17c0.9-0.96,2.19-1.44,3.87-1.44c1.68,0,2.97,0.48,3.86,1.45   C138.64,25.96,139.08,27.35,139.08,29.17z M131.1,29.17c0,1.22,0.23,2.14,0.7,2.76c0.24,0.31,0.56,0.56,0.93,0.72   c0.36,0.16,0.76,0.23,1.16,0.2c1.85,0,2.77-1.23,2.78-3.69c0-2.46-0.92-3.69-2.76-3.7c-0.4-0.03-0.8,0.05-1.16,0.21   c-0.36,0.16-0.68,0.41-0.93,0.72C131.33,27.02,131.1,27.94,131.1,29.17z"/>
  <path fill="#084A70" d="M151.51,34.66h-2.95l-4.76-8.28h-0.07c0.09,1.46,0.14,2.5,0.14,3.13v5.15h-2.07V23.71h2.94l4.74,8.21h0.05   c-0.07-1.42-0.11-2.43-0.11-3.01v-5.19h2.08V34.66z"/>
  <path fill="#084A70" d="M61.26,47.1v4.2h-2.32V40.35h3.19c1.49,0,2.59,0.27,3.3,0.81c0.57,0.52,0.94,1.22,1.04,1.99   c0.1,0.77-0.08,1.54-0.5,2.19c-0.38,0.52-0.91,0.93-1.51,1.18c1.65,2.46,2.72,4.05,3.22,4.77H65.1l-2.63-4.2L61.26,47.1z    M61.26,45.21h0.75c0.57,0.04,1.13-0.09,1.62-0.37c0.18-0.13,0.32-0.31,0.41-0.51c0.09-0.2,0.13-0.42,0.12-0.64   c0.02-0.22-0.02-0.43-0.11-0.63c-0.09-0.19-0.24-0.36-0.42-0.48c-0.51-0.25-1.08-0.37-1.66-0.33h-0.7L61.26,45.21z"/>
  <path fill="#084A70" d="M75.82,51.3h-6.3V40.35h6.3v1.91h-3.98v2.4h3.71v1.9h-3.71v2.82h3.98L75.82,51.3z"/>
  <path fill="#084A70" d="M83.21,42.13c-0.39-0.02-0.78,0.06-1.14,0.24s-0.66,0.43-0.89,0.75c-0.52,0.81-0.78,1.77-0.72,2.74   c0,2.44,0.92,3.66,2.75,3.66c0.96-0.04,1.9-0.23,2.79-0.58v1.95c-0.96,0.38-1.98,0.57-3.01,0.56c-1.59,0-2.81-0.48-3.65-1.45   c-0.85-0.97-1.27-2.35-1.26-4.16c-0.02-1.02,0.19-2.04,0.62-2.97c0.38-0.82,1.01-1.51,1.79-1.97c0.83-0.47,1.77-0.71,2.73-0.69   c1.11,0.01,2.21,0.28,3.2,0.77l-0.74,1.88c-0.4-0.19-0.81-0.36-1.24-0.51C84.04,42.21,83.63,42.14,83.21,42.13z"/>
  <path fill="#084A70" d="M98.72,45.81c0,1.81-0.45,3.2-1.35,4.18c-0.9,0.98-2.19,1.46-3.87,1.46c-1.68,0-2.96-0.49-3.86-1.46   c-0.9-0.97-1.34-2.37-1.34-4.19c0-1.82,0.44-3.21,1.35-4.17c0.91-0.96,2.19-1.44,3.88-1.44s2.97,0.48,3.86,1.45   C98.28,42.6,98.72,43.99,98.72,45.81z M90.73,45.81c0,1.22,0.23,2.14,0.7,2.76c0.25,0.31,0.56,0.56,0.92,0.72   c0.36,0.16,0.76,0.23,1.15,0.21c1.85,0,2.78-1.23,2.78-3.69c0-2.46-0.92-3.69-2.76-3.7c-0.4-0.03-0.8,0.05-1.16,0.21   c-0.36,0.16-0.68,0.41-0.93,0.72C90.97,43.66,90.74,44.59,90.73,45.81z"/>
  <path fill="#084A70" d="M103.77,47.1v4.2h-2.32V40.35h3.19c1.49,0,2.59,0.27,3.3,0.81c0.58,0.52,0.95,1.22,1.05,1.99   c0.1,0.77-0.08,1.55-0.51,2.19c-0.38,0.52-0.9,0.93-1.5,1.18c1.65,2.46,2.72,4.05,3.22,4.77h-2.58l-2.63-4.2L103.77,47.1z    M103.77,45.21h0.75c0.57,0.04,1.13-0.09,1.62-0.37c0.18-0.13,0.32-0.31,0.41-0.51c0.09-0.2,0.13-0.42,0.11-0.64   c0.02-0.22-0.02-0.43-0.11-0.63c-0.09-0.19-0.24-0.36-0.42-0.48c-0.52-0.26-1.1-0.37-1.68-0.33h-0.71L103.77,45.21z"/>
  <path fill="#084A70" d="M121.1,45.72c0,1.8-0.51,3.18-1.54,4.14c-1.02,0.95-2.51,1.44-4.44,1.44h-3.1V40.35h3.43   c1.79,0,3.18,0.47,4.17,1.41C120.61,42.71,121.1,44.03,121.1,45.72z M118.69,45.78c0-2.35-1.04-3.53-3.11-3.53h-1.23v7.13h0.99   C117.58,49.38,118.7,48.18,118.69,45.78L118.69,45.78z"/>
  <path fill="#1E8BCB" d="M68.18,140.2c-0.58,0-1.16-0.12-1.7-0.34c-0.54-0.23-1.02-0.56-1.43-0.97l-6.61-6.61   c-0.83-0.83-1.29-1.96-1.29-3.13c0-1.17,0.47-2.3,1.29-3.13l39.42-39.42c0.83-0.83,1.96-1.29,3.13-1.29c1.17,0,2.3,0.47,3.13,1.29   l6.62,6.64c0.83,0.83,1.29,1.96,1.29,3.13c0,1.17-0.47,2.3-1.29,3.13l-39.42,39.42c-0.41,0.41-0.9,0.74-1.44,0.96   C69.34,140.1,68.76,140.21,68.18,140.2z M100.99,87.94c-0.24,0-0.47,0.04-0.69,0.14c-0.22,0.09-0.42,0.22-0.58,0.39L60.3,127.88   c-0.17,0.17-0.3,0.37-0.39,0.59c-0.09,0.22-0.14,0.45-0.14,0.69c0,0.24,0.05,0.47,0.14,0.69c0.09,0.22,0.22,0.42,0.39,0.59l6.6,6.6   c0.17,0.17,0.37,0.3,0.58,0.39c0.22,0.09,0.45,0.14,0.69,0.14s0.47-0.05,0.69-0.14c0.22-0.09,0.42-0.22,0.58-0.39l39.42-39.42   c0.17-0.17,0.3-0.37,0.39-0.58c0.09-0.22,0.14-0.45,0.14-0.69c0-0.24-0.05-0.47-0.14-0.69c-0.09-0.22-0.22-0.42-0.39-0.58l-6.6-6.6   c-0.17-0.17-0.37-0.3-0.58-0.39C101.46,87.98,101.23,87.94,100.99,87.94z"/>
  <path fill="#1E8BCB" d="M59.52,144.24c-0.4,0-0.79-0.07-1.16-0.22c-0.37-0.15-0.7-0.37-0.98-0.65l-3.64-3.65   c-0.57-0.57-0.88-1.34-0.88-2.14c0-0.8,0.32-1.57,0.88-2.14l1.98-1.98c0.25-0.23,0.58-0.36,0.92-0.35   c0.34,0.01,0.67,0.14,0.91,0.38c0.24,0.24,0.38,0.57,0.38,0.91c0.01,0.34-0.12,0.67-0.35,0.92l-1.98,1.98   c-0.08,0.08-0.12,0.18-0.12,0.28s0.04,0.21,0.12,0.28l3.64,3.64c0.08,0.08,0.18,0.12,0.29,0.12c0.11,0,0.21-0.04,0.29-0.12   l1.98-1.98c0.25-0.23,0.58-0.36,0.92-0.35c0.34,0.01,0.67,0.14,0.91,0.38c0.24,0.24,0.38,0.57,0.38,0.91   c0.01,0.34-0.12,0.67-0.35,0.92l-1.98,1.98c-0.28,0.28-0.62,0.5-0.99,0.65C60.31,144.17,59.92,144.25,59.52,144.24z"/>
  <path fill="#1E8BCB" d="M116.23,101.86c-0.35,0-0.68-0.14-0.93-0.39L95.91,82.08c-0.25-0.25-0.39-0.58-0.39-0.93   c0-0.35,0.14-0.68,0.39-0.93c0.25-0.25,0.58-0.39,0.93-0.39c0.35,0,0.68,0.14,0.93,0.39l19.39,19.39c0.18,0.18,0.31,0.42,0.36,0.67   c0.05,0.25,0.02,0.52-0.07,0.76c-0.1,0.24-0.27,0.45-0.48,0.59C116.74,101.78,116.49,101.86,116.23,101.86z"/>
  <path fill="#1E8BCB" d="M91.34,103.85c-0.35,0-0.68-0.14-0.93-0.39l-1.56-1.55c-0.12-0.12-0.22-0.27-0.29-0.43   c-0.07-0.16-0.1-0.33-0.1-0.5c0-0.17,0.03-0.34,0.1-0.5c0.07-0.16,0.16-0.3,0.28-0.43c0.12-0.12,0.27-0.22,0.43-0.29   c0.16-0.07,0.33-0.1,0.5-0.1c0.17,0,0.34,0.03,0.5,0.1c0.16,0.07,0.3,0.16,0.43,0.28l1.56,1.56c0.18,0.18,0.31,0.42,0.36,0.67   c0.05,0.25,0.02,0.52-0.07,0.76c-0.1,0.24-0.27,0.45-0.48,0.59C91.85,103.78,91.6,103.85,91.34,103.85z"/>
  <path fill="#1E8BCB" d="M99.82,100.57c-0.35,0-0.68-0.14-0.93-0.39l-3.99-3.98c-0.25-0.25-0.38-0.58-0.38-0.93   c0-0.35,0.14-0.68,0.39-0.93c0.25-0.25,0.58-0.38,0.93-0.38c0.35,0,0.68,0.14,0.93,0.39l3.98,3.98c0.18,0.18,0.31,0.42,0.36,0.67   c0.05,0.25,0.02,0.52-0.07,0.76c-0.1,0.24-0.27,0.44-0.48,0.59C100.33,100.49,100.08,100.57,99.82,100.57z"/>
  <path fill="#084A70" d="M129.6,87.88c-0.14,0-0.29-0.03-0.42-0.08s-0.25-0.14-0.36-0.24l-19.39-19.39c-0.21-0.21-0.32-0.48-0.32-0.78   c0-0.29,0.12-0.57,0.32-0.78c0.21-0.21,0.48-0.32,0.78-0.32c0.29,0,0.57,0.12,0.78,0.32l19.39,19.39c0.15,0.15,0.25,0.35,0.3,0.56   c0.04,0.21,0.02,0.43-0.06,0.63s-0.22,0.37-0.4,0.49C130.03,87.81,129.82,87.88,129.6,87.88z"/>
  <path fill="#084A70" d="M36.62,161.81c-0.22,0-0.43-0.07-0.61-0.19c-0.18-0.12-0.32-0.29-0.4-0.49c-0.08-0.2-0.1-0.42-0.06-0.63   c0.04-0.21,0.14-0.41,0.3-0.56l16.97-16.97c0.21-0.2,0.48-0.31,0.77-0.31c0.29,0,0.56,0.12,0.76,0.32c0.2,0.2,0.32,0.48,0.32,0.77   c0,0.29-0.11,0.56-0.31,0.77L37.4,161.49c-0.1,0.1-0.22,0.18-0.36,0.24C36.91,161.78,36.77,161.81,36.62,161.81z"/>
  <path fill="#084A70" d="M106.58,86.32c-0.22,0-0.43-0.06-0.61-0.18c-0.18-0.12-0.32-0.29-0.4-0.49s-0.1-0.42-0.06-0.63   c0.04-0.21,0.15-0.41,0.3-0.56l8.32-8.32c0.21-0.2,0.48-0.31,0.77-0.31c0.29,0,0.56,0.12,0.77,0.32c0.2,0.2,0.32,0.48,0.32,0.76   c0,0.29-0.11,0.56-0.31,0.77L107.35,86c-0.1,0.1-0.22,0.19-0.35,0.24C106.86,86.3,106.72,86.32,106.58,86.32z"/>
  <path fill="#084A70" d="M112.12,91.86c-0.22,0-0.43-0.06-0.61-0.18s-0.32-0.29-0.4-0.49c-0.08-0.2-0.1-0.42-0.06-0.63   c0.04-0.21,0.15-0.41,0.3-0.56l8.32-8.32c0.1-0.11,0.22-0.2,0.36-0.26c0.14-0.06,0.28-0.1,0.43-0.1c0.15,0,0.3,0.02,0.44,0.08   c0.14,0.06,0.26,0.14,0.37,0.24c0.11,0.11,0.19,0.23,0.24,0.37c0.06,0.14,0.08,0.29,0.08,0.44c0,0.15-0.04,0.3-0.1,0.43   c-0.06,0.14-0.15,0.26-0.26,0.36l-8.32,8.32c-0.1,0.1-0.22,0.18-0.35,0.24C112.4,91.83,112.26,91.86,112.12,91.86z"/>
  <path fill="#1E8BCB" d="M128.48,157.95c-3.25,0-6.42-0.96-9.12-2.77c-2.7-1.81-4.81-4.37-6.05-7.37c-1.24-3-1.57-6.3-0.93-9.49   c0.63-3.19,2.2-6.11,4.49-8.41c2.3-2.3,5.22-3.86,8.41-4.49c3.19-0.63,6.49-0.31,9.49,0.93c3,1.24,5.57,3.35,7.37,6.05   c1.8,2.7,2.77,5.88,2.77,9.12c0,4.35-1.74,8.53-4.82,11.61S132.83,157.95,128.48,157.95z M128.48,127.73   c-2.73,0-5.4,0.81-7.66,2.33c-2.27,1.52-4.04,3.67-5.08,6.19c-1.04,2.52-1.32,5.29-0.78,7.97c0.53,2.68,1.85,5.13,3.78,7.06   c1.93,1.93,4.39,3.24,7.06,3.78s5.45,0.26,7.97-0.79c2.52-1.04,4.68-2.81,6.19-5.08c1.52-2.27,2.33-4.94,2.33-7.67   c0-3.66-1.46-7.16-4.04-9.75C135.64,129.19,132.14,127.74,128.48,127.73z"/>
  <path fill="#1E8BCB" d="M126.98,148.36c-0.17,0-0.34-0.03-0.5-0.1c-0.16-0.07-0.31-0.16-0.43-0.28l-5.13-5.14   c-0.23-0.25-0.36-0.58-0.35-0.92c0.01-0.34,0.14-0.67,0.38-0.91c0.24-0.24,0.57-0.38,0.91-0.38c0.34-0.01,0.67,0.12,0.92,0.35   l5.14,5.13c0.18,0.18,0.31,0.42,0.36,0.67c0.05,0.25,0.02,0.52-0.07,0.76c-0.1,0.24-0.27,0.45-0.48,0.59   C127.49,148.28,127.24,148.36,126.98,148.36z"/>
  <path fill="#1E8BCB" d="M126.98,148.36c-0.26,0-0.51-0.08-0.73-0.22c-0.22-0.14-0.38-0.35-0.48-0.59c-0.1-0.24-0.12-0.51-0.07-0.76   c0.05-0.26,0.18-0.49,0.36-0.67l9.4-9.25c0.25-0.24,0.58-0.38,0.93-0.38c0.35,0,0.68,0.14,0.93,0.39c0.24,0.25,0.38,0.58,0.38,0.93   s-0.14,0.68-0.39,0.93l-9.4,9.25C127.65,148.22,127.32,148.36,126.98,148.36z"/>
</svg>
