<svg xmlns="http://www.w3.org/2000/svg" version="1.1" x="0px" y="0px" viewBox="0 0 180 180" style="enable-background:new 0 0 180 180;">
  <path fill="#FFFFFF" stroke="#1E8BCB" stroke-width="2" d="M11.39,10h157.23c0.77,0,1.39,0.62,1.39,1.39v157.23c0,0.77-0.62,1.39-1.39,1.39H11.39   c-0.77,0-1.39-0.62-1.39-1.39V11.39C10,10.62,10.62,10,11.39,10z"/>
  <path fill="#1E8BCB" d="M90,162.56c-5.59,0-9.52-3.79-12.12-6.29c-0.71-0.73-1.47-1.41-2.27-2.04c-1.06,0.05-2.11,0.15-3.16,0.32H72.4   c-3.73,0.5-8.85,1.19-13.24-2s-5.33-8.32-6.01-12.04c-0.17-1.05-0.4-2.1-0.69-3.13c-0.46-0.35-2.05-1.2-2.67-1.54   c-3.38-1.8-7.98-4.26-9.68-9.51c-0.39-1.21-0.59-2.47-0.59-3.74c0-3.61,1.46-6.65,2.75-9.33l0.04-0.07   c0.51-0.99,0.95-2.02,1.31-3.07c-0.36-1.07-0.81-2.1-1.34-3.1c-1.31-2.7-2.76-5.75-2.76-9.36c0-1.27,0.19-2.53,0.58-3.74   c1.7-5.26,6.3-7.7,9.66-9.5l0.07-0.04c0.9-0.46,1.78-0.98,2.63-1.55c0.21-0.56,0.54-2.44,0.66-3.07c0.67-3.73,1.59-8.83,6.01-12.05   s9.5-2.51,13.24-2c1.07,0.17,2.16,0.27,3.24,0.31c0.48-0.34,1.79-1.6,2.24-2.03c2.63-2.51,6.54-6.29,12.12-6.29   s9.35,3.64,12.11,6.28c0.72,0.73,1.49,1.42,2.29,2.06c0.6,0.02,2.51-0.24,3.17-0.32c2.09-0.35,4.21-0.48,6.33-0.4   c0.35,0.02,0.67,0.18,0.9,0.45c0.23,0.26,0.35,0.61,0.32,0.95c-0.02,0.35-0.18,0.67-0.45,0.9c-0.26,0.23-0.61,0.35-0.95,0.32   c-1.94-0.07-3.89,0.06-5.81,0.38c-2.3,0.32-3.6,0.44-4.3,0.25l-0.18-0.06c-0.65-0.28-1.61-1.14-3.15-2.63   c-2.71-2.6-5.77-5.55-10.28-5.55c-4.52,0-7.72,3.07-10.29,5.55c-1.59,1.53-2.5,2.35-3.11,2.63l-0.18,0.06   c-0.73,0.2-2.05,0.08-4.38-0.23c-3.66-0.49-7.8-1.06-11.34,1.52c-3.54,2.58-4.31,6.74-4.98,10.39c-0.4,2.25-0.68,3.5-1.06,4.11   l-0.1,0.14c-0.46,0.56-1.54,1.19-3.5,2.23l-0.03-0.04c-3.3,1.75-7.01,3.75-8.4,7.99c-0.3,0.95-0.44,1.94-0.44,2.93   c0,3.01,1.27,5.66,2.51,8.22c1.02,2.12,1.59,3.42,1.6,4.21v0.06c0,0.78-0.53,1.97-1.58,4.17l-0.04,0.07   c-1.16,2.43-2.49,5.19-2.49,8.2c-0.01,0.99,0.14,1.98,0.44,2.93c1.4,4.26,5.12,6.25,8.4,8.01c2.04,1.09,3.07,1.69,3.5,2.22   l0.11,0.15c0.4,0.63,0.68,1.89,1.09,4.16c0.66,3.65,1.4,7.78,4.97,10.38s7.68,2.01,11.34,1.52l0.22,1.29l-0.18-1.31   c2.3-0.31,3.59-0.44,4.29-0.25l0.17,0.06c0.65,0.28,1.61,1.13,3.16,2.63c2.43,2.35,5.76,5.56,10.29,5.56s7.59-2.95,10.29-5.56   c1.61-1.55,2.49-2.34,3.1-2.6l0.17-0.06c0.73-0.21,2.03-0.08,4.33,0.22h0.06c3.66,0.49,7.8,1.05,11.33-1.52   c3.53-2.57,4.31-6.74,4.98-10.39c0.4-2.26,0.68-3.5,1.06-4.11l0.11-0.15c0.46-0.55,1.55-1.18,3.5-2.24c3-1.6,7.06-3.76,8.44-8.02   c0.3-0.95,0.45-1.93,0.44-2.93c0-3.01-1.31-5.78-2.51-8.22c-1.05-2.19-1.59-3.43-1.6-4.22v-0.06c0-0.78,0.52-1.96,1.57-4.14   l0.04-0.07c0.92-1.92,1.87-3.89,2.29-6.07c0.07-0.34,0.26-0.65,0.55-0.84c0.29-0.2,0.64-0.27,0.99-0.2   c0.34,0.07,0.65,0.26,0.84,0.55c0.2,0.29,0.27,0.64,0.2,0.99c-0.48,2.51-1.56,4.74-2.51,6.71l-0.04,0.07   c-0.51,0.99-0.95,2.01-1.31,3.07c0.37,1.05,0.81,2.07,1.31,3.07c1.31,2.71,2.77,5.76,2.77,9.37c0,1.27-0.19,2.53-0.58,3.74   c-1.71,5.26-6.5,7.81-9.67,9.5c-0.93,0.48-1.84,1.01-2.72,1.58c-0.2,0.56-0.54,2.44-0.66,3.09c-0.67,3.73-1.6,8.83-6.01,12.05   c-4.41,3.21-9.5,2.5-13.23,2h-0.07c-1.06-0.16-2.12-0.26-3.19-0.3c-0.47,0.33-1.78,1.59-2.23,2.03   C99.37,158.93,95.6,162.56,90,162.56z"/>
  <path fill="#FFFFFF" d="M127.04,97.96c8.28,0,14.99-6.71,14.99-14.99c0-8.28-6.71-14.99-14.99-14.99c-8.28,0-14.99,6.71-14.99,14.99   C112.05,91.25,118.76,97.96,127.04,97.96z"/>
  <path fill="#1E8BCB" d="M127.04,99.28c-3.22,0-6.38-0.96-9.06-2.75c-2.68-1.79-4.77-4.34-6.01-7.32c-1.23-2.98-1.56-6.26-0.93-9.42   c0.63-3.16,2.18-6.07,4.46-8.35c2.28-2.28,5.19-3.83,8.35-4.46c3.16-0.63,6.44-0.31,9.42,0.93c2.98,1.23,5.53,3.32,7.32,6.01   c1.79,2.68,2.75,5.83,2.75,9.06c0,4.32-1.72,8.47-4.78,11.52C135.5,97.55,131.36,99.27,127.04,99.28z M127.04,69.3   c-2.71,0-5.35,0.8-7.6,2.31c-2.25,1.5-4,3.64-5.04,6.14c-1.04,2.5-1.31,5.25-0.78,7.9c0.53,2.65,1.83,5.09,3.74,7   c1.91,1.91,4.35,3.22,7,3.74c2.65,0.53,5.4,0.26,7.9-0.78c2.5-1.04,4.64-2.79,6.14-5.04c1.5-2.25,2.31-4.89,2.31-7.6   c0-3.63-1.45-7.1-4.01-9.67C134.14,70.74,130.66,69.3,127.04,69.3z"/>
  <path fill="#1E8BCB" d="M125.55,89.78c-0.35,0-0.68-0.14-0.93-0.39l-5.09-5.1c-0.13-0.12-0.23-0.27-0.3-0.43   c-0.07-0.16-0.11-0.34-0.11-0.51c0-0.18,0.03-0.35,0.1-0.52c0.07-0.16,0.16-0.31,0.29-0.44c0.12-0.12,0.27-0.22,0.44-0.29   c0.16-0.07,0.34-0.1,0.52-0.1c0.18,0,0.35,0.04,0.51,0.11c0.16,0.07,0.31,0.18,0.43,0.3l5.09,5.09c0.18,0.18,0.31,0.42,0.36,0.67   c0.05,0.26,0.03,0.52-0.07,0.76c-0.1,0.24-0.27,0.45-0.49,0.59C126.06,89.7,125.81,89.78,125.55,89.78z"/>
  <path fill="#1E8BCB" d="M125.55,89.78c-0.26,0-0.52-0.08-0.73-0.22c-0.22-0.15-0.38-0.35-0.48-0.59c-0.1-0.24-0.12-0.51-0.07-0.76   c0.05-0.26,0.18-0.49,0.37-0.67l9.32-9.18c0.25-0.23,0.58-0.35,0.92-0.35c0.34,0.01,0.66,0.15,0.9,0.39   c0.24,0.24,0.37,0.57,0.38,0.91c0,0.34-0.13,0.67-0.36,0.92l-9.32,9.2C126.22,89.66,125.89,89.78,125.55,89.78z"/>
  <path fill="#084A70" d="M90,116.28c-0.35,0-0.7-0.06-1.02-0.18l-27.36-10.28c-0.47-0.2-0.86-0.54-1.14-0.96   c-0.28-0.42-0.43-0.92-0.43-1.43c0-0.51,0.15-1,0.43-1.43c0.28-0.42,0.67-0.76,1.14-0.96l27.36-10.21c0.66-0.25,1.38-0.25,2.03,0   l27.42,10.25c0.47,0.2,0.87,0.53,1.14,0.96c0.28,0.42,0.43,0.92,0.43,1.43c0,0.51-0.15,1.01-0.43,1.43   c-0.28,0.42-0.68,0.76-1.14,0.96L91.01,116.1C90.69,116.22,90.35,116.28,90,116.28z M89.56,92.47L62.2,102.68   c-0.13,0.08-0.23,0.19-0.3,0.32c-0.07,0.13-0.11,0.28-0.11,0.43c0,0.15,0.04,0.3,0.11,0.43c0.07,0.13,0.18,0.24,0.3,0.32   l27.36,10.28c0.26,0.1,0.55,0.1,0.81,0l27.43-10.22c0.13-0.08,0.23-0.19,0.31-0.32c0.07-0.13,0.11-0.28,0.11-0.43   c0-0.15-0.04-0.3-0.11-0.43c-0.07-0.13-0.18-0.24-0.31-0.32L90.39,92.49c-0.26-0.1-0.55-0.1-0.81,0L89.56,92.47z"/>
  <path fill="#084A70" d="M90,133.14c-8.99,0-16.6-3.03-18.33-4.73c-1.81-1.78-1.68-4.84-1.66-5.26v-9.29c0-0.23,0.09-0.46,0.26-0.62   c0.16-0.16,0.39-0.26,0.62-0.26s0.46,0.09,0.62,0.26c0.16,0.16,0.26,0.39,0.26,0.62v9.3c0,0.02,0,0.05,0,0.07s-0.18,2.61,1.13,3.89   c1.48,1.45,8.84,4.25,17.1,4.25s15.64-2.79,17.1-4.23c1.31-1.29,1.13-3.87,1.13-3.89c0-0.02,0-0.05,0-0.07v-9.33   c0-0.23,0.09-0.46,0.26-0.62c0.16-0.16,0.39-0.26,0.62-0.26c0.23,0,0.46,0.09,0.62,0.26c0.16,0.16,0.26,0.39,0.26,0.62v9.28   c0.03,0.4,0.16,3.47-1.66,5.26C106.61,130.09,99,133.14,90,133.14z"/>
  <path fill="#084A70" d="M62.41,127.16c-0.23,0-0.46-0.09-0.62-0.26c-0.16-0.16-0.26-0.39-0.26-0.62v-15.6c0-0.23,0.09-0.46,0.26-0.62   c0.16-0.16,0.39-0.26,0.62-0.26c0.23,0,0.46,0.09,0.62,0.26c0.16,0.16,0.26,0.39,0.26,0.62v15.6c0,0.23-0.09,0.46-0.26,0.62   C62.87,127.06,62.64,127.16,62.41,127.16z"/>
  <path fill="#084A70" d="M62.41,132.73c-0.23,0-0.46-0.09-0.62-0.26c-0.16-0.16-0.26-0.39-0.26-0.62v-1.67c0-0.23,0.09-0.46,0.26-0.62   c0.16-0.16,0.39-0.26,0.62-0.26c0.23,0,0.46,0.09,0.62,0.26c0.16,0.16,0.26,0.39,0.26,0.62v1.67c0,0.23-0.09,0.46-0.26,0.62   C62.87,132.63,62.64,132.73,62.41,132.73z"/>
  <path fill="#084A70" d="M41.28,24.62h4.34v5.69c-0.65,0.21-1.31,0.38-1.99,0.48c-0.63,0.09-1.27,0.14-1.91,0.14   c-1.65,0-2.91-0.49-3.78-1.46c-0.87-0.97-1.31-2.37-1.31-4.18c0-1.75,0.51-3.13,1.52-4.13c1.01-1,2.41-1.5,4.2-1.48   c1.12,0,2.22,0.23,3.25,0.67l-0.77,1.86c-0.77-0.39-1.63-0.6-2.49-0.6c-0.45-0.02-0.9,0.06-1.32,0.24   c-0.42,0.17-0.79,0.44-1.09,0.78c-0.63,0.76-0.96,1.73-0.91,2.72c-0.05,0.95,0.21,1.89,0.74,2.68c0.25,0.32,0.58,0.56,0.95,0.73   c0.37,0.16,0.77,0.24,1.17,0.21c0.5,0,0.99-0.05,1.48-0.15v-2.27h-2.07V24.62z"/>
  <path fill="#084A70" d="M51.02,26.56v4.2h-2.32V19.81h3.19c1.48,0,2.58,0.27,3.3,0.81c0.36,0.29,0.65,0.67,0.84,1.1   c0.19,0.43,0.27,0.9,0.23,1.37c0.01,0.61-0.18,1.22-0.53,1.72c-0.38,0.52-0.9,0.93-1.5,1.18c1.65,2.46,2.72,4.05,3.22,4.77h-2.58   l-2.63-4.2L51.02,26.56z M51.02,24.67h0.75c0.57,0.04,1.13-0.09,1.62-0.37c0.18-0.13,0.32-0.31,0.41-0.51   c0.09-0.2,0.13-0.42,0.11-0.64c0.02-0.22-0.02-0.43-0.12-0.63c-0.09-0.2-0.24-0.36-0.42-0.48c-0.51-0.25-1.08-0.37-1.66-0.33h-0.71   V24.67z"/>
  <path fill="#084A70" d="M65.97,30.76l-0.79-2.63h-3.99l-0.8,2.63h-2.5l3.86-10.99h2.85l3.88,10.99H65.97z M64.6,26.21   c-0.73-2.36-1.15-3.7-1.24-4.01c-0.09-0.31-0.16-0.55-0.2-0.73c-0.17,0.64-0.64,2.22-1.41,4.74H64.6z"/>
  <path fill="#084A70" d="M79.38,25.18c0,1.8-0.51,3.18-1.54,4.14c-1.02,0.95-2.51,1.44-4.45,1.44h-3.11V19.81h3.43   c1.79,0,3.18,0.47,4.17,1.41C78.88,22.17,79.38,23.49,79.38,25.18z M76.97,25.24c0-2.35-1.04-3.52-3.11-3.5h-1.24v7.1h0.99   C75.85,28.84,76.97,27.64,76.97,25.24z"/>
  <path fill="#084A70" d="M91.01,19.82v7.08c0.02,0.74-0.17,1.48-0.54,2.12c-0.37,0.62-0.92,1.1-1.57,1.4c-0.76,0.34-1.58,0.5-2.41,0.49   c-1.41,0-2.5-0.36-3.28-1.08c-0.39-0.38-0.7-0.84-0.9-1.35c-0.2-0.51-0.29-1.06-0.26-1.61v-7.05h2.31v6.7   c-0.06,0.66,0.12,1.31,0.51,1.85c0.22,0.22,0.48,0.38,0.78,0.48c0.29,0.1,0.6,0.14,0.91,0.11c0.3,0.03,0.61-0.01,0.89-0.11   c0.29-0.1,0.54-0.27,0.76-0.48c0.37-0.55,0.55-1.21,0.48-1.87v-6.68H91.01z"/>
  <path fill="#084A70" d="M100.85,30.76l-0.79-2.63h-3.99l-0.79,2.63h-2.5l3.86-10.99h2.83l3.88,10.99H100.85z M99.51,26.21   c-0.73-2.36-1.15-3.7-1.24-4.01c-0.09-0.31-0.16-0.55-0.2-0.73c-0.17,0.64-0.64,2.22-1.41,4.74H99.51z"/>
  <path fill="#084A70" d="M109.41,30.76h-2.33v-9.01h-2.97v-1.93h8.27v1.93h-2.97V30.76z"/>
  <path fill="#084A70" d="M114.53,30.76V19.81h2.32v10.95H114.53z"/>
  <path fill="#084A70" d="M129.99,25.27c0,1.81-0.45,3.2-1.34,4.18c-0.9,0.98-2.18,1.46-3.86,1.46c-1.68,0-2.97-0.49-3.86-1.46   c-0.9-0.97-1.35-2.37-1.35-4.19c0-1.82,0.45-3.21,1.35-4.17c0.9-0.96,2.19-1.44,3.87-1.44c1.68,0,2.97,0.48,3.86,1.45   S129.99,23.46,129.99,25.27z M122.01,25.27c0,1.22,0.23,2.14,0.7,2.76c0.25,0.31,0.56,0.56,0.93,0.72c0.36,0.16,0.76,0.23,1.15,0.2   c1.85,0,2.78-1.23,2.78-3.69s-0.92-3.69-2.76-3.7c-0.4-0.03-0.79,0.05-1.16,0.21c-0.36,0.16-0.68,0.41-0.93,0.72   C122.24,23.13,122.01,24.05,122.01,25.27z"/>
  <path fill="#084A70" d="M142.43,30.76h-2.94l-4.77-8.28h-0.04c0.1,1.46,0.14,2.5,0.14,3.13v5.15h-2.08V19.81h2.93l4.73,8.21h0.05   c-0.08-1.42-0.11-2.43-0.11-3.01v-5.19h2.09V30.76z"/>
  <path fill="#084A70" d="M41.78,36.46h2.34L40.4,47.41h-2.51l-3.71-10.95h2.34l2.06,6.51c0.11,0.39,0.23,0.83,0.35,1.34   c0.12,0.51,0.2,0.88,0.23,1.06c0.13-0.81,0.32-1.62,0.56-2.41L41.78,36.46z"/>
  <path fill="#084A70" d="M52.26,47.41h-6.3V36.46h6.3v1.91h-3.98v2.4h3.71v1.9h-3.71v2.82h3.98V47.41z"/>
  <path fill="#084A70" d="M57.32,43.21v4.2H55V36.46h3.19c1.49,0,2.59,0.27,3.3,0.81c0.57,0.52,0.94,1.22,1.04,1.99   c0.1,0.77-0.08,1.54-0.5,2.19c-0.38,0.52-0.91,0.93-1.51,1.18c1.65,2.46,2.72,4.05,3.22,4.77h-2.58l-2.63-4.2L57.32,43.21z    M57.32,41.32h0.75c0.57,0.04,1.13-0.09,1.62-0.37c0.18-0.13,0.32-0.31,0.41-0.51c0.09-0.2,0.13-0.42,0.11-0.64   c0.02-0.22-0.02-0.43-0.12-0.63c-0.09-0.2-0.24-0.36-0.42-0.48c-0.51-0.25-1.08-0.37-1.66-0.33h-0.71L57.32,41.32z"/>
  <path fill="#084A70" d="M65.58,47.41V36.46h2.32v10.95H65.58z"/>
  <path fill="#084A70" d="M73.4,47.41h-2.29V36.46h6.27v1.91H73.4v2.8h3.71v1.9H73.4V47.41z"/>
  <path fill="#084A70" d="M79.99,47.41V36.46h2.32v10.95H79.99z"/>
  <path fill="#084A70" d="M90.17,38.23c-0.39-0.02-0.78,0.06-1.14,0.23c-0.35,0.17-0.66,0.43-0.89,0.75c-0.52,0.82-0.77,1.77-0.72,2.74   c0,2.44,0.92,3.66,2.75,3.66c0.96-0.04,1.9-0.23,2.79-0.58v1.95c-0.96,0.38-1.98,0.57-3.01,0.56c-1.59,0-2.81-0.48-3.65-1.45   c-0.84-0.97-1.26-2.35-1.27-4.16c-0.02-1.03,0.19-2.04,0.62-2.97c0.38-0.82,1-1.51,1.78-1.97c0.83-0.47,1.77-0.71,2.73-0.69   c1.11,0.01,2.21,0.28,3.21,0.77l-0.74,1.88c-0.4-0.19-0.81-0.36-1.24-0.51C91,38.32,90.59,38.24,90.17,38.23z"/>
  <path fill="#084A70" d="M102.45,47.41l-0.79-2.63h-3.99l-0.8,2.63h-2.49l3.86-10.99h2.84l3.88,10.99H102.45z M101.1,42.85   c-0.73-2.36-1.15-3.7-1.24-4.01c-0.09-0.31-0.16-0.55-0.2-0.73c-0.17,0.64-0.64,2.22-1.41,4.74H101.1z"/>
  <path fill="#084A70" d="M111.02,47.41h-2.32v-9.01h-2.97v-1.93h8.26v1.93h-2.97V47.41z"/>
  <path fill="#084A70" d="M116.12,47.41V36.46h2.32v10.95H116.12z"/>
  <path fill="#084A70" d="M131.61,41.92c0,1.81-0.45,3.2-1.34,4.18c-0.9,0.98-2.18,1.46-3.86,1.46c-1.68,0-2.96-0.49-3.86-1.46   c-0.9-0.97-1.35-2.37-1.35-4.19c0-1.82,0.45-3.21,1.35-4.17c0.9-0.96,2.19-1.44,3.87-1.44c1.68,0,2.97,0.48,3.86,1.45   C131.16,38.71,131.61,40.1,131.61,41.92z M123.63,41.92c0,1.22,0.23,2.14,0.7,2.76c0.25,0.31,0.56,0.56,0.93,0.72   c0.36,0.16,0.76,0.23,1.15,0.2c1.85,0,2.78-1.23,2.78-3.69c0-2.46-0.92-3.69-2.76-3.7c-0.4-0.03-0.79,0.05-1.16,0.21   c-0.36,0.16-0.68,0.41-0.93,0.72c-0.48,0.62-0.72,1.54-0.72,2.77H123.63z"/>
  <path fill="#084A70" d="M144.03,47.41h-2.95l-4.76-8.28h-0.07c0.1,1.46,0.14,2.5,0.14,3.13v5.15h-2.08V36.46h2.93l4.76,8.21h0.05   c-0.08-1.42-0.11-2.43-0.11-3.01v-5.19h2.09V47.41z"/>
</svg>
