<svg xmlns="http://www.w3.org/2000/svg" width="100" height="100" viewBox="0 0 100 100" fill="none">
  <path d="M36.64 91.29C36.09 91.14 34.06 91.42 32.97 91.57C29.39 92.05 24.94 92.65 21.12 89.87C17.28 87.07 16.47 82.63 15.83 79.06C15.62 77.92 15.28 76.01 14.96 75.51C14.6 75.09 12.93 74.2 11.93 73.66C8.70997 71.94 4.70997 69.8 3.22997 65.23C2.89997 64.21 2.72997 63.13 2.72997 62.02C2.72997 58.84 4.06997 56.04 5.24997 53.57C5.78997 52.45 6.66997 50.62 6.67997 50C6.66997 49.37 5.74997 47.48 5.25997 46.46C4.05997 43.96 2.71997 41.17 2.71997 37.99C2.71997 36.88 2.88997 35.8 3.21997 34.77C4.69997 30.2 8.70997 28.06 11.92 26.34C12.86 25.84 14.6 24.91 14.98 24.46C15.28 23.99 15.62 22.09 15.83 20.95C16.48 17.38 17.28 12.94 21.12 10.14C24.94 7.36 29.39 7.96 32.96 8.44C34.15 8.6 36.09 8.86 36.67 8.7C37.15 8.49 38.49 7.21 39.28 6.44C41.78 4.03 45.21 0.730003 50.08 0.730003C54.95 0.730003 58.23 3.89 60.87 6.43C61.62 7.16 63 8.49 63.53 8.71C64.07 8.86 66.02 8.59 67.18 8.44C70.78 7.95 75.23 7.36 79.05 10.14C82.89 12.94 83.7 17.37 84.34 20.93C84.55 22.08 84.89 23.98 85.22 24.49C85.58 24.91 87.24 25.8 88.24 26.33C91.47 28.06 95.47 30.2 96.96 34.77C97.29 35.79 97.46 36.87 97.46 37.98C97.46 41.18 96.11 43.98 94.92 46.45C94.39 47.55 93.51 49.37 93.5 50C93.51 50.63 94.43 52.52 94.92 53.55C96.11 56.02 97.46 58.82 97.46 62.02C97.46 63.13 97.29 64.21 96.96 65.23C95.47 69.81 91.3 72.04 88.25 73.67C87.23 74.21 85.57 75.11 85.19 75.55C84.89 76.02 84.55 77.93 84.35 79.07C83.7 82.65 82.9 87.08 79.06 89.88C75.24 92.66 70.8 92.06 67.22 91.58C66.12 91.43 64.09 91.15 63.5 91.32C63.02 91.53 61.69 92.81 60.89 93.58C58.25 96.13 54.96 99.29 50.09 99.29C45.22 99.29 41.79 95.99 39.29 93.58C38.49 92.81 37.16 91.53 36.63 91.31L36.64 91.29Z" fill="#4279B6"/>
  <path d="M50.1 100C44.93 100 41.38 96.58 38.8 94.08C38.32 93.61 36.88 92.23 36.41 91.98C35.89 91.9 33.81 92.18 33.12 92.28H33.08C29.37 92.78 24.76 93.4 20.7 90.45C16.62 87.47 15.79 82.88 15.12 79.19C14.99 78.5 14.62 76.44 14.37 75.95C13.99 75.6 12.26 74.67 11.59 74.31C8.23998 72.52 4.09998 70.31 2.51998 65.46C2.15998 64.38 1.97998 63.22 1.97998 62.02C1.97998 58.66 3.35998 55.79 4.57998 53.26L4.60998 53.2C4.96998 52.46 5.89998 50.5 5.93998 50.01C5.90998 49.67 5.45998 48.58 4.58998 46.78C3.36998 44.23 1.97998 41.34 1.97998 37.99C1.97998 36.81 2.15998 35.65 2.51998 34.55C4.08998 29.7 8.23998 27.49 11.57 25.71L11.63 25.68C12.23 25.36 14 24.41 14.38 24.04C14.61 23.56 14.98 21.52 15.1 20.83C15.77 17.13 16.6 12.53 20.68 9.56C24.74 6.61 29.34 7.23 33.04 7.73C33.75 7.83 35.86 8.11 36.41 8.02C36.85 7.77 38.23 6.44 38.77 5.92C41.37 3.42 44.92 0 50.08 0C55.24 0 58.64 3.27 61.37 5.91C62.65 7.14 63.45 7.85 63.77 8.03C64.3 8.11 66.38 7.83 67.08 7.73C70.79 7.23 75.42 6.61 79.47 9.56C83.55 12.53 84.38 17.12 85.05 20.81L85.07 20.9C85.21 21.65 85.56 23.59 85.8 24.06C86.17 24.42 87.98 25.38 88.58 25.7C91.92 27.48 96.07 29.7 97.65 34.55C98 35.64 98.18 36.8 98.18 37.99C98.18 41.36 96.79 44.23 95.57 46.77L95.53 46.84C95.18 47.57 94.25 49.51 94.22 50C94.26 50.51 95.24 52.54 95.56 53.21C96.79 55.77 98.18 58.65 98.18 62.01C98.18 63.2 98 64.36 97.65 65.45C96.07 70.32 91.75 72.62 88.59 74.3L88.55 74.32C87.88 74.68 86.16 75.6 85.78 75.97C85.55 76.45 85.18 78.5 85.06 79.18C84.39 82.88 83.56 87.48 79.48 90.45C75.43 93.4 70.82 92.78 67.12 92.28H67.05C66.35 92.18 64.28 91.9 63.73 91.99C63.29 92.24 61.91 93.57 61.38 94.08C58.64 96.72 55.24 100 50.08 100H50.1ZM36.13 90.52C36.43 90.52 36.66 90.54 36.83 90.59C36.86 90.59 36.89 90.61 36.92 90.62C37.47 90.85 38.39 91.68 39.8 93.04C42.21 95.37 45.51 98.55 50.1 98.55C54.69 98.55 57.84 95.5 60.39 93.04C61.83 91.65 62.71 90.86 63.22 90.64C63.25 90.63 63.28 90.62 63.31 90.61C63.92 90.44 65.22 90.57 67.26 90.84H67.32C70.77 91.31 75.05 91.89 78.63 89.28C82.24 86.65 83.01 82.37 83.64 78.93C84.01 76.87 84.27 75.66 84.58 75.16C84.6 75.13 84.62 75.1 84.64 75.08C85.03 74.62 86.07 74.01 87.87 73.05L87.91 73.03C90.85 71.46 94.87 69.32 96.27 65.01C96.58 64.07 96.73 63.06 96.73 62.02C96.73 58.99 95.42 56.27 94.27 53.87C93.33 51.92 92.79 50.68 92.78 50.03C92.78 50.02 92.78 50.01 92.78 50C92.8 49.36 93.3 48.18 94.24 46.23L94.28 46.15C95.44 43.75 96.75 41.03 96.75 38C96.75 36.96 96.59 35.96 96.29 35.01C94.89 30.72 91.03 28.65 87.92 26.99C86.11 26.03 85.06 25.42 84.68 24.97C84.66 24.95 84.64 24.92 84.62 24.89C84.26 24.32 83.97 22.87 83.66 21.16L83.64 21.06C83.02 17.63 82.25 13.36 78.64 10.72C75.05 8.11 70.75 8.69 67.3 9.16C65.25 9.44 63.95 9.57 63.37 9.41C63.34 9.41 63.3 9.39 63.27 9.38C62.72 9.14 61.8 8.31 60.39 6.95C57.84 4.5 54.67 1.45 50.11 1.45C45.55 1.45 42.23 4.63 39.82 6.95C38.37 8.35 37.49 9.14 36.99 9.36C36.96 9.37 36.93 9.39 36.89 9.39C36.28 9.56 35.01 9.44 32.89 9.15C29.44 8.68 25.16 8.11 21.57 10.72C17.96 13.35 17.18 17.63 16.56 21.07C16.2 23.08 15.93 24.34 15.61 24.84C15.59 24.87 15.57 24.89 15.55 24.92C15.16 25.38 14.08 26.01 12.34 26.94L12.28 26.97C9.17998 28.63 5.31998 30.69 3.91998 34.98C3.60998 35.93 3.45998 36.94 3.45998 37.98C3.45998 41 4.76998 43.73 5.91998 46.14C6.84998 48.07 7.39998 49.32 7.40998 49.98C7.40998 49.99 7.40998 50 7.40998 50.01C7.38998 50.66 6.87998 51.85 5.93998 53.81L5.90998 53.88C4.75998 56.27 3.45998 58.99 3.45998 62.01C3.45998 63.05 3.61998 64.06 3.91998 65C5.30998 69.29 9.16998 71.35 12.28 73.01C14.1 73.98 15.15 74.59 15.52 75.03C15.54 75.06 15.56 75.08 15.58 75.11C15.91 75.63 16.18 76.85 16.55 78.92C17.17 82.36 17.94 86.64 21.55 89.27C25.13 91.87 29.42 91.3 32.87 90.84H32.92C34.39 90.63 35.44 90.51 36.13 90.51V90.52Z" fill="#0E1721"/>
  <path d="M50.1 5.66C52.77 5.66 54.75 7.37 57.46 9.98C59.38 11.83 60.44 12.75 61.6 13.25C61.82 13.34 62.04 13.42 62.27 13.48C62.81 13.62 63.37 13.69 64.04 13.69C65.11 13.69 66.51 13.51 67.85 13.33C69.2 13.15 70.59 12.96 71.9 12.96C73.73 12.96 75.05 13.32 76.15 14.12C78.24 15.64 78.83 18.15 79.49 21.81L79.51 21.91C80.02 24.68 80.34 26.02 81.07 27.16C81.19 27.34 81.31 27.51 81.45 27.67C82.29 28.66 83.45 29.37 85.92 30.68C89.23 32.45 91.46 33.8 92.27 36.29C92.44 36.82 92.53 37.39 92.53 37.98C92.53 40.05 91.49 42.22 90.48 44.32L90.45 44.39C89.16 47.08 88.62 48.44 88.58 49.88C88.58 49.96 88.58 50.04 88.58 50.11C88.61 51.55 89.19 52.99 90.48 55.66V55.68C91.54 57.87 92.54 59.94 92.54 62.01C92.54 62.61 92.45 63.17 92.28 63.7C91.4 66.39 88.5 67.94 85.93 69.31L85.89 69.33C83.44 70.64 82.28 71.35 81.44 72.35C81.29 72.53 81.15 72.71 81.03 72.91C80.33 74.02 80.01 75.37 79.51 78.17C78.85 81.83 78.26 84.35 76.17 85.87C75.06 86.68 73.75 87.03 71.92 87.03C70.61 87.03 69.23 86.84 67.89 86.67H67.83C66.53 86.49 65.16 86.31 64.08 86.31C63.36 86.31 62.75 86.38 62.18 86.54C61.97 86.6 61.76 86.67 61.55 86.76C60.44 87.24 59.52 88.02 57.47 89.99C54.75 92.61 52.77 94.32 50.1 94.32C47.21 94.32 44.83 92.02 42.72 89.99C40.8 88.14 39.74 87.23 38.56 86.73C38.36 86.64 38.15 86.57 37.94 86.51C37.39 86.36 36.82 86.29 36.14 86.29C35.07 86.29 33.68 86.47 32.35 86.65H32.31C30.97 86.83 29.59 87.02 28.28 87.02C26.44 87.02 25.13 86.66 24.03 85.86C21.94 84.33 21.35 81.82 20.69 78.16C20.18 75.34 19.85 73.98 19.13 72.84C19 72.64 18.86 72.45 18.71 72.27C17.88 71.31 16.73 70.61 14.28 69.3H14.25C10.95 67.52 8.72001 66.18 7.91001 63.68C7.74001 63.16 7.65001 62.6 7.65001 62C7.65001 59.93 8.69001 57.78 9.69001 55.68L9.72001 55.61C11.02 52.9 11.57 51.53 11.6 50.09C11.6 50.01 11.6 49.93 11.6 49.86C11.57 48.41 10.98 46.97 9.69001 44.3C8.64001 42.1 7.64001 40.03 7.64001 37.96C7.64001 37.37 7.73001 36.79 7.90001 36.26C8.71001 33.77 10.93 32.43 14.24 30.66L14.3 30.63C16.75 29.32 17.91 28.61 18.75 27.6C18.89 27.43 19.02 27.25 19.14 27.07C19.84 25.96 20.17 24.6 20.67 21.8C21.33 18.14 21.92 15.63 24.01 14.1C25.12 13.29 26.43 12.93 28.26 12.93C29.57 12.93 30.95 13.12 32.29 13.3C33.68 13.49 35.01 13.65 36.1 13.65C36.81 13.65 37.4 13.58 37.96 13.42C38.19 13.36 38.41 13.28 38.63 13.18C39.73 12.7 40.65 11.92 42.7 9.94C44.81 7.91 47.2 5.61 50.07 5.61" fill="white"/>
  <path d="M50.1001 95.07C46.9201 95.07 44.4201 92.66 42.2201 90.54C40.3601 88.75 39.3501 87.88 38.2901 87.42C38.1201 87.35 37.9401 87.29 37.7601 87.24C37.2801 87.11 36.7701 87.05 36.1501 87.05C35.1301 87.05 33.7601 87.22 32.4501 87.4H32.4101C31.0501 87.59 29.6401 87.78 28.2901 87.78C26.2901 87.78 24.8501 87.38 23.6101 86.48C21.3001 84.79 20.6701 82.16 19.9801 78.32C19.4901 75.6 19.1701 74.3 18.5201 73.26C18.4101 73.09 18.2901 72.93 18.1601 72.77C17.4101 71.9 16.3001 71.23 13.9401 69.96L13.9101 69.95C10.4501 68.1 8.12005 66.69 7.22005 63.93C7.03005 63.34 6.93005 62.7 6.93005 62.03C6.93005 59.8 8.00005 57.56 9.04005 55.4L9.07005 55.33C10.3201 52.72 10.8501 51.41 10.8801 50.11C10.8801 50.04 10.8801 49.98 10.8801 49.91C10.8501 48.59 10.2901 47.22 9.05005 44.65C7.96005 42.37 6.93005 40.22 6.93005 38C6.93005 37.33 7.03005 36.69 7.22005 36.08C8.11005 33.33 10.4501 31.91 13.9101 30.06L13.9701 30.03C16.3301 28.77 17.4401 28.09 18.2101 27.17C18.3301 27.03 18.4401 26.87 18.5401 26.72C19.1801 25.71 19.4801 24.41 19.9701 21.71C20.6601 17.88 21.2901 15.24 23.6001 13.55C24.8401 12.65 26.2801 12.25 28.2701 12.25C29.6301 12.25 31.0401 12.44 32.4001 12.62C33.7601 12.8 35.0701 12.97 36.1201 12.97C36.7601 12.97 37.3001 12.91 37.7901 12.77C37.9801 12.72 38.1701 12.65 38.3601 12.57C39.3601 12.13 40.2401 11.38 42.2201 9.48C44.4301 7.36 46.9301 4.95 50.1001 4.95C53.0401 4.95 55.1301 6.74 57.9701 9.47C59.8301 11.26 60.8301 12.14 61.8901 12.59C62.0801 12.67 62.2701 12.74 62.4601 12.79C62.9301 12.92 63.4401 12.98 64.0401 12.98C65.0601 12.98 66.4401 12.81 67.7601 12.63C69.1301 12.45 70.5401 12.25 71.9101 12.25C73.9101 12.25 75.3501 12.65 76.59 13.55C78.9 15.23 79.5301 17.87 80.2201 21.7L80.2401 21.8C80.73 24.47 81.04 25.76 81.7001 26.78C81.8 26.93 81.91 27.08 82.0201 27.22C82.7801 28.12 83.9 28.79 86.2701 30.06C89.73 31.91 92.0701 33.33 92.9701 36.08C93.1601 36.68 93.2601 37.33 93.2601 38C93.2601 40.24 92.1801 42.48 91.1401 44.65L91.1101 44.72C89.8701 47.32 89.34 48.61 89.3101 49.91C89.3101 49.98 89.3101 50.04 89.3101 50.11C89.34 51.42 89.9001 52.79 91.1401 55.36C92.2401 57.65 93.2701 59.79 93.2701 62.02C93.2701 62.69 93.1701 63.33 92.9801 63.93C92.0101 66.9 88.9701 68.53 86.2801 69.96L86.2401 69.98C83.8801 71.25 82.7601 71.92 82.0001 72.83C81.8701 72.98 81.7501 73.14 81.6501 73.31C81.0201 74.32 80.7101 75.61 80.2301 78.32C79.5401 82.16 78.91 84.8 76.6001 86.48C75.3601 87.38 73.9201 87.78 71.9201 87.78C70.5601 87.78 69.1601 87.59 67.8001 87.41H67.7401C66.4601 87.23 65.1201 87.06 64.0801 87.06C63.4201 87.06 62.8801 87.13 62.3801 87.27C62.2001 87.32 62.0201 87.38 61.8501 87.46C60.8501 87.89 59.9701 88.65 57.9901 90.55C55.1501 93.29 53.0601 95.08 50.1101 95.08L50.1001 95.07ZM36.1501 85.59C36.9001 85.59 37.5301 85.67 38.1401 85.83C38.3801 85.9 38.6201 85.98 38.8501 86.08C40.1301 86.62 41.2301 87.57 43.2301 89.49C45.2401 91.43 47.5101 93.62 50.1001 93.62C52.5001 93.62 54.3801 91.99 56.9701 89.49C59.0901 87.45 60.0501 86.63 61.2601 86.11C61.4901 86.01 61.7401 85.92 61.9801 85.86C62.6201 85.68 63.2801 85.6 64.0701 85.6C65.2001 85.6 66.59 85.77 67.9201 85.95H67.9801C69.2901 86.13 70.6501 86.32 71.9101 86.32C73.5801 86.32 74.76 86 75.7401 85.29C77.6101 83.93 78.1601 81.54 78.7901 78.05C79.3101 75.15 79.6501 73.74 80.4101 72.53C80.5501 72.31 80.7101 72.09 80.8801 71.89C81.8 70.8 83.0101 70.06 85.5401 68.7L85.5801 68.68C88.0301 67.38 90.8001 65.9 91.5801 63.48C91.7301 63.03 91.8001 62.54 91.8001 62.02C91.8001 60.12 90.84 58.12 89.8201 56.01C88.4801 53.22 87.8801 51.72 87.84 50.14C87.84 50.05 87.84 49.96 87.84 49.87C87.8801 48.3 88.4401 46.88 89.7801 44.08L89.8101 44.01C90.7901 41.98 91.7901 39.89 91.7901 37.98C91.7901 37.46 91.7201 36.96 91.5701 36.51C90.84 34.28 88.7201 33.01 85.5701 31.32C83.0201 29.96 81.8001 29.22 80.8901 28.14C80.73 27.95 80.59 27.76 80.4501 27.55C79.66 26.31 79.3101 24.91 78.7801 22.04L78.7601 21.94C78.1301 18.46 77.5801 16.07 75.7101 14.71C74.7401 14 73.5601 13.69 71.8901 13.69C70.6201 13.69 69.2601 13.87 67.9401 14.05C66.5701 14.23 65.1401 14.42 64.0301 14.42C63.2901 14.42 62.6701 14.35 62.0701 14.19C61.8101 14.12 61.5501 14.03 61.3001 13.92C60.0301 13.37 58.9301 12.43 56.9401 10.51C54.3601 8.02 52.4801 6.39 50.0801 6.39C47.5001 6.39 45.2201 8.58 43.2101 10.51C41.0901 12.55 40.1301 13.37 38.9201 13.89C38.6701 14 38.4101 14.09 38.1501 14.16C37.5301 14.33 36.8701 14.41 36.0901 14.41C34.9601 14.41 33.5901 14.24 32.1801 14.05C30.8701 13.87 29.5101 13.69 28.2501 13.69C26.5801 13.69 25.4001 14.01 24.4301 14.72C22.5601 16.08 22.0001 18.47 21.3701 21.96C20.8501 24.86 20.5101 26.27 19.7401 27.49C19.6101 27.7 19.4601 27.91 19.2901 28.1C18.3601 29.21 17.1601 29.95 14.6201 31.31L14.5601 31.34C11.4101 33.02 9.30005 34.29 8.57005 36.52C8.42005 36.98 8.35005 37.47 8.35005 37.99C8.35005 39.89 9.31005 41.89 10.3301 44.01C11.6701 46.78 12.2701 48.29 12.3101 49.87C12.3101 49.96 12.3101 50.05 12.3101 50.14C12.2701 51.71 11.7001 53.14 10.3601 55.95L10.3301 56.02C9.36005 58.04 8.36005 60.12 8.36005 62.02C8.36005 62.54 8.43005 63.03 8.58005 63.47C9.31005 65.72 11.4301 66.98 14.5701 68.67C14.5701 68.67 14.6001 68.68 14.6001 68.69C17.1301 70.04 18.3301 70.78 19.2301 71.83C19.4101 72.03 19.5701 72.25 19.7101 72.48C20.5001 73.72 20.8501 75.14 21.3801 78.06C22.0101 81.55 22.5601 83.94 24.4301 85.3C25.4001 86.01 26.5801 86.32 28.2601 86.32C29.5201 86.32 30.8801 86.14 32.1901 85.96H32.2301C33.5901 85.77 35.0001 85.59 36.1201 85.59H36.1501Z" fill="#0E1721"/>
  <path d="M71.03 32.82V70.41C71.03 71.57 70.08 72.52 68.92 72.52H27.1C25.94 72.52 24.99 71.57 24.99 70.41V34.94C24.99 33.78 25.94 32.83 27.1 32.83H71.03V32.82Z" fill="white"/>
  <path d="M68.92 73.25H27.1C25.53 73.25 24.26 71.98 24.26 70.41V34.94C24.26 33.37 25.53 32.1 27.1 32.1H71.03C71.43 32.1 71.76 32.42 71.76 32.83V70.42C71.76 71.99 70.49 73.26 68.92 73.26V73.25ZM27.1 33.55C26.33 33.55 25.71 34.17 25.71 34.94V70.41C25.71 71.18 26.33 71.8 27.1 71.8H68.92C69.69 71.8 70.31 71.18 70.31 70.41V33.55H27.1Z" fill="#0E1721"/>
  <path d="M48.13 41.3H31.33C30.93 41.3 30.6 40.98 30.6 40.57C30.6 40.16 30.92 39.84 31.33 39.84H48.13C48.53 39.84 48.86 40.16 48.86 40.57C48.86 40.98 48.54 41.3 48.13 41.3Z" fill="#0E1721"/>
  <path d="M58.82 51.17H31.33C30.93 51.17 30.6 50.85 30.6 50.44C30.6 50.03 30.92 49.71 31.33 49.71H58.82C59.22 49.71 59.55 50.03 59.55 50.44C59.55 50.85 59.23 51.17 58.82 51.17Z" fill="#0E1721"/>
  <path d="M64.93 56.1H31.33C30.93 56.1 30.6 55.78 30.6 55.37C30.6 54.96 30.92 54.64 31.33 54.64H64.92C65.32 54.64 65.65 54.96 65.65 55.37C65.65 55.78 65.33 56.1 64.92 56.1H64.93Z" fill="#0E1721"/>
  <path d="M64.93 61.04H31.33C30.93 61.04 30.6 60.72 30.6 60.31C30.6 59.9 30.92 59.58 31.33 59.58H64.92C65.32 59.58 65.65 59.9 65.65 60.31C65.65 60.72 65.33 61.04 64.92 61.04H64.93Z" fill="#0E1721"/>
  <path d="M61.72 68.69C61.23 68.69 60.73 68.61 60.27 68.46C59.71 68.27 59.23 67.99 58.75 67.72C58.58 67.62 58.41 67.53 58.24 67.44C57.57 67.08 57.05 66.94 56.61 66.98C56.18 67.02 55.79 67.32 55.75 67.64C55.7 68.04 55.34 68.32 54.94 68.27C54.54 68.22 54.26 67.86 54.31 67.46C54.45 66.32 55.5 65.63 56.47 65.53C57.44 65.43 58.34 65.84 58.93 66.16C59.11 66.26 59.29 66.36 59.47 66.46C59.9 66.71 60.31 66.94 60.73 67.08C61.75 67.42 62.94 67.21 63.77 66.53C64.08 66.28 64.54 66.33 64.79 66.64C65.04 66.95 64.99 67.41 64.68 67.66C63.85 68.33 62.78 68.69 61.71 68.69H61.72Z" fill="#0E1721"/>
  <path d="M48.13 46.24H31.33C30.93 46.24 30.6 45.92 30.6 45.51C30.6 45.1 30.92 44.78 31.33 44.78H48.13C48.53 44.78 48.86 45.1 48.86 45.51C48.86 45.92 48.54 46.24 48.13 46.24Z" fill="#0E1721"/>
  <path d="M65.8599 46.16C71.0182 46.16 75.1999 41.9783 75.1999 36.82C75.1999 31.6617 71.0182 27.48 65.8599 27.48C60.7016 27.48 56.5199 31.6617 56.5199 36.82C56.5199 41.9783 60.7016 46.16 65.8599 46.16Z" fill="#3C8645"/>
  <path d="M65.8599 46.85C60.3299 46.85 55.8199 42.35 55.8199 36.81C55.8199 31.27 60.3199 26.77 65.8599 26.77C71.3999 26.77 75.8999 31.27 75.8999 36.81C75.8999 42.35 71.3999 46.85 65.8599 46.85ZM65.8599 28.17C61.0899 28.17 57.2099 32.05 57.2099 36.82C57.2099 41.59 61.0899 45.47 65.8599 45.47C70.6299 45.47 74.5099 41.59 74.5099 36.82C74.5099 32.05 70.6299 28.17 65.8599 28.17Z" fill="#0E1721"/>
  <path d="M70.54 36.13H66.56V32.15C66.56 31.77 66.25 31.46 65.87 31.46C65.49 31.46 65.18 31.77 65.18 32.15V36.13H61.2C60.82 36.13 60.51 36.44 60.51 36.82C60.51 37.2 60.82 37.51 61.2 37.51H65.18V41.49C65.18 41.87 65.49 42.18 65.87 42.18C66.25 42.18 66.56 41.87 66.56 41.49V37.51H70.54C70.92 37.51 71.23 37.2 71.23 36.82C71.23 36.44 70.92 36.13 70.54 36.13Z" fill="white"/>
</svg>
