<svg xmlns="http://www.w3.org/2000/svg" width="100" height="100" viewBox="0 0 100 100" fill="none">
  <path d="M92.79 50.02C92.79 50.02 92.79 50 92.79 49.99C92.81 49.35 93.31 48.17 94.25 46.22L94.29 46.15C95.45 43.75 96.76 41.03 96.76 38C96.76 36.96 96.6 35.96 96.3 35.01C94.9 30.72 91.04 28.65 87.93 26.99C86.12 26.03 85.07 25.42 84.69 24.97C84.67 24.95 84.65 24.92 84.63 24.89C84.27 24.32 83.98 22.87 83.67 21.17L83.65 21.07C83.03 17.64 82.26 13.37 78.65 10.74C75.06 8.12997 70.76 8.70997 67.31 9.17997C65.21 9.45997 63.96 9.58997 63.38 9.42997C63.35 9.42997 63.31 9.40997 63.28 9.39997C62.73 9.15997 61.81 8.32997 60.4 6.96997C57.85 4.51997 54.68 1.46997 50.12 1.46997C45.56 1.46997 42.24 4.64997 39.83 6.96997C38.38 8.36997 37.5 9.15997 37 9.37997C36.97 9.38997 36.94 9.40997 36.9 9.40997C36.29 9.57997 35.02 9.44997 32.9 9.16997C29.45 8.69997 25.17 8.12997 21.58 10.74C17.97 13.37 17.19 17.65 16.57 21.09C16.21 23.1 15.94 24.36 15.62 24.86C15.6 24.89 15.58 24.91 15.56 24.94C15.17 25.4 14.09 26.03 12.35 26.96L12.29 26.99C9.18997 28.65 5.32997 30.71 3.92997 35C3.61997 35.95 3.46997 36.96 3.46997 38C3.46997 41.02 4.77997 43.75 5.92997 46.16C6.85997 48.09 7.40997 49.34 7.41997 50C7.41997 50.01 7.41997 50.02 7.41997 50.03C7.39997 50.68 6.88997 51.86 5.94997 53.83L5.91997 53.9C4.76997 56.3 3.46997 59.01 3.46997 62.03C3.46997 63.07 3.62997 64.08 3.92997 65.02C5.31997 69.31 9.17997 71.38 12.29 73.03C14.11 74.01 15.16 74.61 15.53 75.05C15.55 75.08 15.57 75.1 15.59 75.13C15.92 75.65 16.19 76.87 16.56 78.94C17.18 82.38 17.95 86.65 21.56 89.29C25.14 91.89 29.43 91.32 32.88 90.86H32.92C34.39 90.65 35.44 90.53 36.14 90.53C36.44 90.53 36.67 90.55 36.84 90.6C36.87 90.6 36.9 90.62 36.93 90.63C37.48 90.86 38.4 91.69 39.81 93.05C42.22 95.38 45.52 98.56 50.11 98.56C54.7 98.56 57.85 95.51 60.4 93.05C61.84 91.66 62.72 90.87 63.23 90.65C63.26 90.64 63.29 90.63 63.32 90.62C63.93 90.45 65.23 90.58 67.27 90.85H67.33C70.78 91.32 75.06 91.89 78.64 89.29C82.25 86.66 83.02 82.38 83.65 78.94C84.02 76.88 84.28 75.67 84.59 75.17C84.61 75.14 84.63 75.11 84.65 75.09C85.04 74.63 86.08 74.02 87.88 73.06L87.92 73.04C90.86 71.47 94.88 69.33 96.28 65.02C96.59 64.08 96.74 63.07 96.74 62.03C96.74 59 95.43 56.28 94.28 53.88C93.34 51.93 92.8 50.69 92.79 50.04V50.02ZM92.97 63.92C92 66.89 88.96 68.52 86.27 69.95L86.23 69.97C83.86 71.24 82.75 71.92 81.99 72.82C81.86 72.97 81.74 73.13 81.64 73.3C81.01 74.3 80.7 75.6 80.22 78.31C79.53 82.15 78.9 84.79 76.59 86.47C75.35 87.37 73.91 87.77 71.91 87.77C70.55 87.77 69.15 87.58 67.79 87.4H67.73C66.45 87.22 65.11 87.05 64.07 87.05C63.41 87.05 62.87 87.12 62.37 87.26C62.19 87.31 62.01 87.37 61.84 87.45C60.84 87.88 59.96 88.64 57.98 90.54C55.14 93.28 53.05 95.07 50.1 95.07C46.92 95.07 44.42 92.66 42.22 90.54C40.36 88.75 39.35 87.88 38.29 87.42C38.12 87.35 37.94 87.29 37.76 87.24C37.28 87.11 36.77 87.05 36.15 87.05C35.13 87.05 33.76 87.22 32.45 87.4H32.41C31.05 87.59 29.64 87.78 28.28 87.78C26.28 87.78 24.84 87.38 23.6 86.48C21.29 84.79 20.66 82.16 19.97 78.32C19.48 75.6 19.16 74.3 18.51 73.26C18.4 73.09 18.28 72.93 18.15 72.77C17.4 71.9 16.29 71.23 13.93 69.96L13.9 69.95C10.44 68.1 8.10997 66.69 7.20997 63.93C7.01997 63.34 6.91997 62.7 6.91997 62.03C6.91997 59.8 7.98997 57.56 9.02997 55.4L9.05997 55.33C10.31 52.72 10.84 51.41 10.87 50.11C10.87 50.04 10.87 49.98 10.87 49.91C10.84 48.59 10.28 47.22 9.03997 44.65C7.94997 42.37 6.91997 40.23 6.91997 38C6.91997 37.33 7.01997 36.69 7.20997 36.08C8.09997 33.33 10.44 31.91 13.9 30.06L13.96 30.03C16.32 28.77 17.43 28.09 18.2 27.17C18.32 27.03 18.43 26.87 18.53 26.72C19.17 25.71 19.47 24.41 19.96 21.71C20.65 17.88 21.28 15.24 23.59 13.55C24.83 12.65 26.27 12.25 28.26 12.25C29.62 12.25 31.03 12.44 32.39 12.62C33.75 12.8 35.06 12.97 36.11 12.97C36.75 12.97 37.29 12.91 37.78 12.77C37.97 12.72 38.16 12.65 38.35 12.57C39.35 12.13 40.23 11.38 42.21 9.47997C44.42 7.35997 46.92 4.94997 50.09 4.94997C53.03 4.94997 55.12 6.73997 57.96 9.46997C59.82 11.26 60.82 12.14 61.88 12.59C62.07 12.67 62.26 12.74 62.45 12.79C62.92 12.92 63.43 12.98 64.03 12.98C65.05 12.98 66.43 12.81 67.75 12.63C69.12 12.45 70.53 12.25 71.9 12.25C73.9 12.25 75.34 12.65 76.58 13.55C78.89 15.23 79.52 17.87 80.21 21.7L80.23 21.8C80.72 24.47 81.03 25.76 81.69 26.78C81.79 26.93 81.9 27.08 82.01 27.22C82.77 28.12 83.88 28.79 86.26 30.06C89.72 31.91 92.06 33.33 92.96 36.08C93.15 36.68 93.25 37.33 93.25 38C93.25 40.24 92.17 42.48 91.13 44.65L91.1 44.72C89.86 47.31 89.33 48.61 89.3 49.91C89.3 49.98 89.3 50.04 89.3 50.11C89.33 51.42 89.89 52.79 91.13 55.36C92.23 57.65 93.26 59.79 93.26 62.02C93.26 62.69 93.16 63.34 92.97 63.93V63.92Z" fill="#4279B6"/>
  <path d="M40.64 42.9901C39.29 43.9501 37.67 44.53 35.83 44.53C33.87 44.53 32.16 43.87 30.76 42.8L20.16 48.8601C19.51 49.2301 19.1 49.93 19.1 50.68V52.5401C19.1 55.0301 21.12 57.05 23.61 57.05H34.13L43.89 51.4701C41.81 49.2801 40.64 46.08 40.64 43.0201V43V42.9901Z" fill="#FC8B27"/>
  <path d="M80.02 48.8601L69.42 42.8C68.01 43.87 66.31 44.53 64.35 44.53C62.52 44.53 60.91 43.96 59.56 43.01C59.56 46.08 58.39 49.27 56.31 51.46L66.07 57.0401H76.56C79.05 57.0401 81.07 55.02 81.07 52.53V50.67C81.07 49.92 80.67 49.22 80.01 48.85L80.02 48.8601Z" fill="#FC8B27"/>
  <path d="M65.78 58.55L65.69 58.5L64.42 57.77L63.15 57.04L55.18 52.48C54.8 52.77 54.4 53.03 53.97 53.25C53.71 53.39 53.45 53.51 53.18 53.62C52.91 53.73 52.64 53.82 52.36 53.9C51.65 54.1 50.9 54.21 50.11 54.21C49.32 54.21 48.55 54.1 47.83 53.89C47.55 53.81 47.27 53.72 47.01 53.61C46.74 53.5 46.47 53.38 46.22 53.24C45.81 53.02 45.41 52.76 45.04 52.48L37.07 57.04L35.8 57.77L34.53 58.5L34.44 58.55C33.79 58.92 33.38 59.62 33.38 60.37V62.23C33.38 64.72 35.4 66.74 37.89 66.74H42.67C44.21 63.97 47.16 62.09 50.54 62.09C53.92 62.09 56.88 63.97 58.41 66.74H62.32C64.81 66.74 66.83 64.72 66.83 62.23V60.37C66.83 59.62 66.43 58.92 65.77 58.55H65.78Z" fill="#FCCD2A"/>
  <path d="M87.86 50.14C87.86 50.05 87.86 49.96 87.86 49.87C87.9 48.3 88.46 46.88 89.8 44.08L89.83 44.01C90.8 41.99 91.81 39.89 91.81 37.99C91.81 37.47 91.74 36.97 91.59 36.52C90.86 34.29 88.74 33.02 85.59 31.33C83.04 29.97 81.82 29.23 80.91 28.15C80.75 27.96 80.61 27.76 80.47 27.56C79.68 26.32 79.33 24.92 78.8 22.05L78.78 21.95C78.15 18.47 77.6 16.08 75.73 14.72C74.76 14.01 73.58 13.7 71.91 13.7C70.64 13.7 69.28 13.88 67.95 14.06C66.58 14.24 65.15 14.43 64.04 14.43C63.3 14.43 62.68 14.36 62.08 14.2C61.82 14.13 61.56 14.04 61.31 13.93C60.04 13.38 58.94 12.44 56.95 10.52C54.36 8.03002 52.49 6.40002 50.09 6.40002C47.5 6.40002 45.23 8.59002 43.22 10.52C41.1 12.56 40.14 13.38 38.93 13.9C38.68 14.01 38.43 14.1 38.17 14.17C37.54 14.34 36.89 14.42 36.11 14.42C34.98 14.42 33.61 14.25 32.2 14.06C30.88 13.88 29.53 13.7 28.27 13.7C26.6 13.7 25.43 14.02 24.45 14.73C22.58 16.09 22.02 18.48 21.39 21.97C20.87 24.87 20.53 26.28 19.76 27.5C19.63 27.71 19.48 27.92 19.32 28.11C18.39 29.22 17.19 29.96 14.65 31.32L14.59 31.35C11.44 33.03 9.32 34.3 8.6 36.53C8.45 36.99 8.38 37.48 8.38 38C8.38 39.9 9.34 41.9 10.36 44.02C11.7 46.79 12.3 48.29 12.34 49.88C12.34 49.97 12.34 50.06 12.34 50.15C12.3 51.72 11.73 53.15 10.39 55.96L10.36 56.03C9.39 58.05 8.39 60.13 8.39 62.03C8.39 62.55 8.46 63.04 8.61 63.48C9.34 65.73 11.46 67 14.6 68.68L14.63 68.69C17.16 70.04 18.36 70.78 19.26 71.83C19.44 72.03 19.6 72.25 19.74 72.48C20.53 73.72 20.88 75.14 21.41 78.06C22.04 81.55 22.59 83.94 24.46 85.3C25.43 86.01 26.61 86.32 28.29 86.32C29.55 86.32 30.91 86.14 32.22 85.96H32.26C33.62 85.77 35.04 85.59 36.15 85.59C36.9 85.59 37.53 85.67 38.14 85.83C38.38 85.9 38.62 85.98 38.85 86.08C40.13 86.62 41.23 87.57 43.23 89.49C45.24 91.43 47.51 93.62 50.1 93.62C52.5 93.62 54.38 91.99 56.97 89.49C59.09 87.45 60.05 86.63 61.26 86.11C61.49 86.01 61.73 85.92 61.98 85.86C62.62 85.68 63.28 85.6 64.07 85.6C65.2 85.6 66.59 85.77 67.92 85.95H67.98C69.29 86.13 70.65 86.32 71.91 86.32C73.58 86.32 74.76 86 75.74 85.29C77.61 83.93 78.16 81.54 78.79 78.05C79.31 75.15 79.65 73.74 80.41 72.53C80.55 72.3 80.71 72.09 80.88 71.89C81.8 70.8 83.01 70.06 85.54 68.7L85.58 68.68C88.03 67.38 90.8 65.9 91.58 63.48C91.73 63.03 91.8 62.54 91.8 62.02C91.8 60.12 90.84 58.12 89.82 56.01C88.48 53.22 87.88 51.72 87.84 50.14H87.86ZM82.52 52.53C82.52 55.82 79.85 58.49 76.56 58.49H67.74C68.08 59.04 68.28 59.69 68.28 60.36V62.22C68.28 65.51 65.61 68.18 62.32 68.18H59.05C59.36 69.09 59.53 70.07 59.53 71.08C59.53 76.04 55.49 80.08 50.53 80.08C45.57 80.08 41.53 76.04 41.53 71.08C41.53 70.07 41.7 69.09 42.01 68.18H37.87C34.58 68.18 31.91 65.51 31.91 62.22V60.36C31.91 59.69 32.11 59.04 32.45 58.49H23.61C20.32 58.49 17.65 55.82 17.65 52.53V50.67C17.65 49.4 18.33 48.22 19.44 47.59L29.63 41.77C27.55 39.58 26.38 36.38 26.38 33.32V31.57C26.38 30.23 26.63 27.65 28.27 25.46C29.91 23.27 32.53 22.11 35.83 22.11C39.13 22.11 41.75 23.27 43.39 25.46C45.04 27.65 45.28 30.23 45.28 31.57V32.85C46.64 32.16 48.26 31.8 50.09 31.8C51.92 31.8 53.52 32.15 54.88 32.83V31.56C54.88 30.22 55.13 27.64 56.77 25.45C58.41 23.26 61.03 22.1 64.33 22.1C67.63 22.1 70.25 23.26 71.89 25.45C73.54 27.64 73.78 30.22 73.78 31.56V33.31C73.78 36.37 72.61 39.57 70.53 41.76L80.72 47.58C81.82 48.21 82.51 49.39 82.51 50.66V52.52L82.52 52.53Z" fill="white"/>
  <path d="M43.83 33.8201C43.83 33.6601 43.84 33.5001 43.84 33.3301V31.5801C43.84 29.7001 43.26 23.5801 35.84 23.5801C28.42 23.5801 27.84 29.7101 27.84 31.5801V33.3301C27.84 36.9101 29.31 39.6801 31.3 41.3301C31.63 41.6001 31.97 41.8401 32.33 42.0601C32.85 42.3701 33.4 42.6201 33.95 42.7901C34.58 42.9801 35.21 43.0801 35.84 43.0801C36.47 43.0801 37.11 42.9801 37.73 42.7901C38.28 42.6201 38.83 42.3801 39.35 42.0601C39.7 41.8501 40.05 41.6101 40.38 41.3301C40.47 41.2501 40.56 41.1701 40.65 41.0901C40.67 39.7101 40.96 37.2601 42.54 35.1601C42.92 34.6601 43.35 34.2101 43.83 33.8101V33.8201Z" fill="white"/>
  <path d="M72.34 31.5801C72.34 29.7001 71.76 23.5801 64.34 23.5801C56.92 23.5801 56.34 29.7101 56.34 31.5801V33.3301C56.34 33.4901 56.34 33.6401 56.35 33.8001C56.84 34.2001 57.28 34.6501 57.66 35.1701C59.24 37.2801 59.53 39.7401 59.55 41.1201C59.63 41.1901 59.72 41.2701 59.8 41.3401C60.13 41.6101 60.47 41.8501 60.83 42.0701C61.35 42.3801 61.9 42.6301 62.45 42.8001C63.08 42.9901 63.71 43.0901 64.34 43.0901C64.97 43.0901 65.61 42.9901 66.23 42.8001C66.78 42.6301 67.33 42.3901 67.85 42.0701C68.2 41.8601 68.55 41.6201 68.88 41.3401C70.88 39.6801 72.34 36.9101 72.34 33.3401V31.5901V31.5801Z" fill="white"/>
  <path d="M57.86 39.07C57.66 38.18 57.31 37.19 56.7 36.28C56.44 35.89 56.12 35.52 55.76 35.18C55.52 34.95 55.25 34.74 54.95 34.54C53.8 33.78 52.23 33.27 50.1 33.27C47.97 33.27 46.38 33.78 45.22 34.56C44.92 34.76 44.65 34.98 44.41 35.21C44.04 35.56 43.72 35.95 43.46 36.35C42.88 37.22 42.55 38.16 42.35 39.01C42.22 39.6 42.15 40.14 42.12 40.59C42.1 40.86 42.1 41.09 42.1 41.28V43.03C42.1 43.19 42.1 43.34 42.11 43.5C42.23 46.34 43.45 49.25 45.52 51.04C45.73 51.22 45.94 51.39 46.16 51.54C46.27 51.62 46.39 51.69 46.5 51.77C46.63 51.85 46.75 51.92 46.88 51.99C47.11 52.12 47.36 52.23 47.61 52.32C47.77 52.38 47.94 52.44 48.11 52.49C48.73 52.68 49.4 52.78 50.1 52.78C50.73 52.78 51.37 52.68 51.99 52.49C52.18 52.43 52.37 52.36 52.56 52.29C52.81 52.19 53.05 52.08 53.29 51.95C53.4 51.89 53.51 51.83 53.61 51.77C53.75 51.69 53.88 51.6 54.01 51.51C54.22 51.37 54.43 51.21 54.63 51.04C56.54 49.45 57.97 46.85 58.08 43.49C58.08 43.34 58.08 43.19 58.08 43.04V41.29C58.08 41.11 58.08 40.88 58.06 40.63C58.03 40.19 57.97 39.66 57.84 39.09L57.86 39.07Z" fill="white"/>
  <path d="M57.5 68.18C57.4 67.93 57.28 67.69 57.15 67.45C57.01 67.2 56.86 66.96 56.69 66.72C55.32 64.79 53.07 63.52 50.53 63.52C47.99 63.52 45.74 64.78 44.37 66.72C44.21 66.95 44.05 67.19 43.91 67.45C43.78 67.68 43.66 67.93 43.56 68.18C43.19 69.07 42.98 70.05 42.98 71.08C42.98 75.24 46.37 78.63 50.53 78.63C54.69 78.63 58.08 75.24 58.08 71.08C58.08 70.05 57.87 69.07 57.5 68.18ZM54.67 71.81H51.26V75.22C51.26 75.62 50.94 75.95 50.53 75.95C50.12 75.95 49.8 75.63 49.8 75.22V71.81H46.39C45.99 71.81 45.66 71.49 45.66 71.08C45.66 70.67 45.98 70.35 46.39 70.35H49.8V66.94C49.8 66.86 49.81 66.79 49.84 66.72C49.93 66.43 50.2 66.21 50.53 66.21C50.86 66.21 51.13 66.43 51.22 66.72C51.24 66.79 51.26 66.86 51.26 66.94V70.35H54.67C55.07 70.35 55.4 70.67 55.4 71.08C55.4 71.49 55.08 71.81 54.67 71.81Z" fill="#3C8645"/>
  <path d="M94.24 50C94.28 49.51 95.2 47.57 95.55 46.84L95.58 46.77C96.8 44.23 98.19 41.35 98.19 37.99C98.19 36.8 98.01 35.64 97.66 34.55C96.08 29.7 91.93 27.48 88.59 25.7C87.99 25.38 86.18 24.42 85.81 24.06C85.57 23.59 85.22 21.65 85.08 20.9L85.06 20.8C84.4 17.11 83.57 12.53 79.48 9.54999C75.42 6.59999 70.8 7.21999 67.09 7.71999C66.39 7.80999 64.31 8.09999 63.78 8.01999C63.46 7.84999 62.66 7.13999 61.38 5.89999C58.64 3.26999 55.24 -0.0100098 50.09 -0.0100098C44.94 -0.0100098 41.38 3.39999 38.78 5.90999C38.3 6.36999 36.87 7.74999 36.42 8.00999C35.87 8.09999 33.76 7.80999 33.05 7.71999C29.35 7.21999 24.74 6.59999 20.68 9.54999C16.6 12.52 15.77 17.12 15.1 20.82C14.98 21.51 14.61 23.56 14.38 24.03C14 24.4 12.23 25.35 11.63 25.66L11.57 25.69C8.23998 27.47 4.08998 29.69 2.51998 34.53C2.15998 35.63 1.97998 36.79 1.97998 37.97C1.97998 41.32 3.36998 44.21 4.58998 46.76C5.45998 48.56 5.90998 49.65 5.93998 49.99C5.89998 50.48 4.96998 52.44 4.60998 53.18L4.57998 53.25C3.35998 55.78 1.97998 58.66 1.97998 62.01C1.97998 63.21 2.15998 64.36 2.51998 65.45C4.08998 70.3 8.23998 72.51 11.59 74.3C12.26 74.66 13.98 75.58 14.36 75.93C14.61 76.42 14.98 78.48 15.11 79.17C15.77 82.86 16.6 87.46 20.69 90.43C24.74 93.38 29.35 92.76 33.06 92.26H33.1C33.8 92.16 35.87 91.88 36.4 91.96C36.87 92.21 38.31 93.6 38.79 94.06C41.38 96.56 44.92 99.98 50.09 99.98C55.26 99.98 58.65 96.7 61.39 94.06C61.92 93.55 63.31 92.21 63.74 91.97C64.28 91.88 66.36 92.16 67.06 92.25H67.12C70.82 92.75 75.43 93.37 79.48 90.43C83.56 87.46 84.39 82.86 85.06 79.16C85.18 78.47 85.55 76.42 85.78 75.95C86.16 75.58 87.89 74.66 88.55 74.3L88.59 74.28C91.75 72.6 96.07 70.29 97.65 65.43C98 64.34 98.18 63.19 98.18 61.99C98.18 58.63 96.79 55.75 95.56 53.19C95.24 52.52 94.26 50.49 94.22 49.98L94.24 50ZM96.28 65C94.88 69.31 90.86 71.45 87.92 73.02L87.88 73.04C86.08 74 85.04 74.61 84.65 75.07C84.63 75.1 84.61 75.12 84.59 75.15C84.28 75.65 84.02 76.86 83.65 78.92C83.03 82.36 82.25 86.65 78.64 89.27C75.06 91.87 70.77 91.3 67.33 90.84H67.27C65.22 90.56 63.92 90.43 63.32 90.6C63.29 90.6 63.26 90.62 63.23 90.63C62.72 90.85 61.85 91.64 60.4 93.03C57.85 95.48 54.68 98.54 50.11 98.54C45.54 98.54 42.22 95.36 39.81 93.03C38.4 91.67 37.48 90.84 36.93 90.61C36.9 90.6 36.87 90.59 36.84 90.58C36.67 90.53 36.43 90.51 36.14 90.51C35.44 90.51 34.39 90.63 32.92 90.83H32.88C29.43 91.3 25.14 91.87 21.56 89.27C17.95 86.64 17.18 82.36 16.56 78.92C16.19 76.85 15.92 75.63 15.59 75.11C15.57 75.08 15.55 75.05 15.53 75.03C15.15 74.59 14.11 73.99 12.29 73.01C9.18998 71.35 5.32998 69.29 3.92998 65C3.61998 64.06 3.46998 63.05 3.46998 62.01C3.46998 58.99 4.76998 56.27 5.91998 53.88L5.94998 53.81C6.88998 51.84 7.39998 50.66 7.41998 50.01C7.41998 50 7.41998 49.99 7.41998 49.98C7.39998 49.32 6.85998 48.07 5.92998 46.14C4.76998 43.73 3.46998 41 3.46998 37.98C3.46998 36.95 3.62998 35.94 3.92998 34.98C5.31998 30.69 9.17998 28.63 12.29 26.97L12.35 26.94C14.09 26.01 15.17 25.38 15.56 24.92C15.58 24.9 15.6 24.87 15.62 24.84C15.94 24.34 16.21 23.08 16.57 21.07C17.19 17.63 17.96 13.35 21.58 10.72C25.17 8.10999 29.45 8.68999 32.9 9.14999C35.02 9.43999 36.29 9.55999 36.9 9.38999C36.93 9.38999 36.97 9.36999 37 9.35999C37.51 9.13999 38.39 8.33999 39.83 6.94999C42.24 4.62999 45.55 1.44999 50.12 1.44999C54.69 1.44999 57.86 4.49999 60.4 6.94999C61.81 8.30999 62.73 9.13999 63.28 9.37999C63.31 9.38999 63.35 9.40999 63.38 9.40999C63.96 9.56999 65.21 9.43999 67.31 9.15999C70.77 8.68999 75.07 8.10999 78.65 10.72C82.26 13.35 83.03 17.62 83.65 21.05L83.67 21.15C83.98 22.85 84.27 24.31 84.63 24.87C84.65 24.9 84.67 24.92 84.69 24.95C85.07 25.4 86.12 26 87.93 26.97C91.04 28.63 94.9 30.7 96.3 34.99C96.61 35.94 96.76 36.94 96.76 37.98C96.76 41.01 95.45 43.73 94.29 46.13L94.25 46.2C93.32 48.15 92.81 49.33 92.79 49.97C92.79 49.98 92.79 49.99 92.79 50C92.81 50.65 93.35 51.9 94.28 53.84C95.43 56.24 96.74 58.96 96.74 61.99C96.74 63.03 96.58 64.03 96.28 64.98V65Z" fill="#0E1721"/>
  <path d="M89.31 50.0999C89.31 50.0299 89.31 49.9699 89.31 49.8999C89.34 48.5999 89.87 47.2999 91.11 44.7099L91.14 44.6399C92.18 42.4699 93.26 40.2299 93.26 37.9899C93.26 37.3199 93.16 36.6699 92.97 36.0699C92.07 33.3199 89.74 31.8999 86.27 30.0499C83.89 28.7799 82.77 28.1099 82.02 27.2099C81.9 27.0699 81.79 26.9199 81.7 26.7699C81.04 25.7399 80.73 24.4599 80.24 21.7899L80.22 21.6899C79.53 17.8599 78.91 15.2299 76.59 13.5399C75.35 12.6399 73.91 12.2399 71.91 12.2399C70.54 12.2399 69.13 12.4299 67.76 12.6199C66.44 12.7999 65.07 12.9699 64.04 12.9699C63.43 12.9699 62.93 12.9099 62.46 12.7799C62.26 12.7299 62.07 12.6599 61.89 12.5799C60.83 12.1199 59.82 11.2499 57.97 9.45994C55.13 6.72994 53.05 4.93994 50.1 4.93994C46.93 4.93994 44.43 7.34994 42.22 9.46994C40.24 11.3799 39.36 12.1299 38.36 12.5599C38.18 12.6399 37.99 12.7099 37.79 12.7599C37.29 12.8999 36.76 12.9599 36.12 12.9599C35.08 12.9599 33.77 12.7999 32.4 12.6099C31.04 12.4299 29.63 12.2399 28.27 12.2399C26.28 12.2399 24.83 12.6399 23.6 13.5399C21.29 15.2199 20.66 17.8599 19.97 21.6999C19.49 24.4099 19.18 25.6999 18.54 26.7099C18.44 26.8699 18.33 27.0199 18.21 27.1599C17.44 28.0799 16.33 28.7599 13.97 30.0199L13.91 30.0499C10.45 31.8999 8.11999 33.3199 7.21999 36.0699C7.01999 36.6699 6.92999 37.3199 6.92999 37.9899C6.92999 40.2199 7.95999 42.3699 9.04999 44.6399C10.29 47.2099 10.85 48.5899 10.88 49.8999C10.88 49.9699 10.88 50.0299 10.88 50.0999C10.85 51.3999 10.32 52.7099 9.06999 55.3199L9.03999 55.3899C7.99999 57.5499 6.92999 59.7899 6.92999 62.0199C6.92999 62.6899 7.02999 63.3299 7.21999 63.9199C8.11999 66.6799 10.45 68.0999 13.91 69.9399L13.94 69.9499C16.3 71.2099 17.41 71.8799 18.16 72.7599C18.29 72.9099 18.41 73.0799 18.52 73.2499C19.18 74.2799 19.49 75.5899 19.98 78.3099C20.67 82.1399 21.3 84.7799 23.61 86.4699C24.85 87.3699 26.29 87.7699 28.29 87.7699C29.65 87.7699 31.05 87.5799 32.42 87.3999H32.46C33.77 87.2199 35.13 87.0399 36.16 87.0399C36.78 87.0399 37.29 87.0999 37.77 87.2299C37.95 87.2799 38.13 87.3399 38.3 87.4099C39.37 87.8599 40.38 88.7399 42.23 90.5299C44.43 92.6599 46.93 95.0599 50.11 95.0599C53.06 95.0599 55.14 93.2599 57.99 90.5299C59.97 88.6299 60.85 87.8699 61.85 87.4399C62.02 87.3699 62.2 87.2999 62.38 87.2499C62.88 87.1099 63.42 87.0399 64.08 87.0399C65.12 87.0399 66.46 87.2099 67.74 87.3799H67.8C69.16 87.5699 70.57 87.7599 71.92 87.7599C73.92 87.7599 75.36 87.3599 76.6 86.4599C78.91 84.7799 79.53 82.1399 80.23 78.2999C80.72 75.5899 81.02 74.2999 81.65 73.2899C81.76 73.1199 81.87 72.9599 82 72.8099C82.77 71.9099 83.88 71.2299 86.24 69.9599L86.28 69.9399C88.97 68.5099 92.01 66.8799 92.98 63.9099C93.17 63.3199 93.27 62.6699 93.27 61.9999C93.27 59.7699 92.24 57.6299 91.14 55.3399C89.9 52.7699 89.34 51.3999 89.31 50.0899V50.0999ZM91.59 63.4799C90.8 65.8999 88.03 67.3699 85.59 68.6799L85.55 68.6999C83.01 70.0599 81.8 70.7999 80.89 71.8899C80.72 72.0899 80.56 72.3099 80.42 72.5299C79.66 73.7399 79.32 75.1499 78.8 78.0499C78.17 81.5399 77.61 83.9299 75.75 85.2899C74.77 85.9999 73.59 86.3199 71.92 86.3199C70.66 86.3199 69.3 86.1399 67.99 85.9599H67.93C66.6 85.7699 65.21 85.5999 64.08 85.5999C63.29 85.5999 62.62 85.6799 61.99 85.8599C61.75 85.9299 61.5 86.0099 61.27 86.1099C60.06 86.6299 59.1 87.4499 56.98 89.4899C54.39 91.9799 52.51 93.6199 50.11 93.6199C47.52 93.6199 45.24 91.4299 43.24 89.4899C41.25 87.5699 40.14 86.6199 38.86 86.0799C38.63 85.9799 38.39 85.8999 38.15 85.8299C37.54 85.6599 36.91 85.5899 36.16 85.5899C35.05 85.5899 33.63 85.7699 32.27 85.9499H32.23C30.92 86.1299 29.56 86.3099 28.3 86.3099C26.63 86.3099 25.45 85.9899 24.47 85.2899C22.6 83.9199 22.04 81.5399 21.42 78.0499C20.89 75.1299 20.54 73.7099 19.75 72.4699C19.6 72.2399 19.44 72.0199 19.27 71.8199C18.37 70.7699 17.16 70.0299 14.64 68.6799L14.61 68.6699C11.46 66.9899 9.34999 65.7199 8.61999 63.4699C8.46999 63.0299 8.39999 62.5399 8.39999 62.0199C8.39999 60.1199 9.39999 58.0299 10.37 56.0199L10.4 55.9499C11.75 53.1399 12.32 51.7099 12.35 50.1399C12.35 50.0499 12.35 49.9599 12.35 49.8699C12.31 48.2799 11.71 46.7799 10.37 44.0099C9.34999 41.8899 8.38999 39.8899 8.38999 37.9899C8.38999 37.4699 8.46999 36.9799 8.60999 36.5199C9.32999 34.2899 11.45 33.0199 14.6 31.3399L14.66 31.3099C17.19 29.9599 18.4 29.2099 19.33 28.0999C19.49 27.9099 19.64 27.6999 19.77 27.4899C20.54 26.2699 20.88 24.8599 21.4 21.9599C22.03 18.4699 22.58 16.0799 24.46 14.7199C25.43 14.0099 26.61 13.6899 28.28 13.6899C29.54 13.6899 30.9 13.8699 32.21 14.0499C33.62 14.2399 34.98 14.4099 36.12 14.4099C36.9 14.4099 37.55 14.3299 38.18 14.1599C38.44 14.0899 38.7 13.9999 38.94 13.8899C40.14 13.3699 41.11 12.5499 43.23 10.5099C45.24 8.57994 47.51 6.38994 50.1 6.38994C52.5 6.38994 54.37 8.01994 56.96 10.5099C58.95 12.4299 60.05 13.3799 61.32 13.9199C61.57 14.0299 61.83 14.1199 62.09 14.1899C62.69 14.3499 63.31 14.4199 64.05 14.4199C65.16 14.4199 66.59 14.2399 67.96 14.0499C69.28 13.8699 70.65 13.6899 71.92 13.6899C73.59 13.6899 74.77 14.0099 75.74 14.7099C77.61 16.0699 78.17 18.4599 78.79 21.9399L78.81 22.0399C79.33 24.9099 79.68 26.3099 80.48 27.5499C80.61 27.7599 80.76 27.9499 80.92 28.1399C81.83 29.2199 83.05 29.9599 85.6 31.3199C88.75 33.0099 90.87 34.2799 91.6 36.5099C91.75 36.9699 91.82 37.4599 91.82 37.9799C91.82 39.8899 90.81 41.9799 89.84 43.9999L89.81 44.0699C88.47 46.8599 87.91 48.2799 87.87 49.8599C87.87 49.9499 87.87 50.0399 87.87 50.1299C87.91 51.7099 88.51 53.2099 89.85 55.9999C90.87 58.1099 91.83 60.1099 91.83 62.0099C91.83 62.5299 91.76 63.0199 91.61 63.4699L91.59 63.4799Z" fill="#0E1721"/>
  <path d="M80.74 47.6L70.55 41.78C72.63 39.59 73.8 36.39 73.8 33.33V31.58C73.8 30.24 73.55 27.66 71.91 25.47C70.27 23.28 67.65 22.12 64.35 22.12C61.05 22.12 58.43 23.28 56.79 25.47C55.14 27.66 54.9 30.24 54.9 31.58V32.85C53.55 32.17 51.93 31.82 50.11 31.82C48.29 31.82 46.66 32.18 45.3 32.87V31.59C45.3 30.25 45.05 27.67 43.41 25.48C41.77 23.29 39.15 22.13 35.85 22.13C32.55 22.13 29.93 23.29 28.29 25.48C26.64 27.67 26.4 30.25 26.4 31.59V33.34C26.4 36.4 27.57 39.6 29.65 41.79L19.46 47.61C18.36 48.24 17.67 49.42 17.67 50.69V52.55C17.67 55.84 20.34 58.51 23.63 58.51H32.47C32.13 59.06 31.93 59.71 31.93 60.38V62.24C31.93 65.53 34.6 68.2 37.89 68.2H42.03C41.72 69.11 41.55 70.09 41.55 71.1C41.55 76.06 45.59 80.1 50.55 80.1C55.51 80.1 59.55 76.06 59.55 71.1C59.55 70.09 59.38 69.11 59.07 68.2H62.34C65.63 68.2 68.3 65.53 68.3 62.24V60.38C68.3 59.71 68.1 59.06 67.76 58.51H76.58C79.87 58.51 82.54 55.84 82.54 52.55V50.69C82.54 49.42 81.86 48.24 80.75 47.61L80.74 47.6ZM81.07 52.53C81.07 55.02 79.05 57.04 76.56 57.04H66.07L56.31 51.46C58.39 49.27 59.56 46.07 59.56 43.01C60.91 43.95 62.52 44.52 64.35 44.52C66.31 44.52 68.02 43.86 69.42 42.79L80.02 48.85C80.67 49.22 81.08 49.92 81.08 50.67V52.53H81.07ZM65.78 58.55C66.43 58.92 66.84 59.62 66.84 60.37V62.23C66.84 64.72 64.82 66.74 62.33 66.74H58.42C56.88 63.97 53.93 62.09 50.55 62.09C47.17 62.09 44.21 63.97 42.68 66.74H37.9C35.41 66.74 33.39 64.72 33.39 62.23V60.37C33.39 59.62 33.79 58.92 34.45 58.55L34.54 58.5L35.81 57.77L37.08 57.04L45.05 52.48C45.42 52.76 45.81 53.02 46.23 53.24C46.49 53.38 46.75 53.5 47.02 53.61C47.29 53.72 47.56 53.81 47.84 53.89C48.55 54.09 49.31 54.21 50.12 54.21C50.93 54.21 51.66 54.1 52.37 53.9C52.65 53.82 52.93 53.73 53.19 53.62C53.46 53.51 53.73 53.39 53.98 53.25C54.4 53.03 54.81 52.77 55.19 52.48L63.16 57.04L64.43 57.77L65.7 58.5L65.79 58.55H65.78ZM58.08 71.08C58.08 75.24 54.69 78.63 50.53 78.63C46.37 78.63 42.98 75.24 42.98 71.08C42.98 70.05 43.19 69.07 43.56 68.18C43.66 67.93 43.78 67.69 43.91 67.45C44.05 67.2 44.2 66.96 44.37 66.72C45.74 64.79 47.99 63.52 50.53 63.52C53.07 63.52 55.32 64.78 56.69 66.72C56.85 66.95 57.01 67.19 57.15 67.45C57.28 67.68 57.4 67.93 57.5 68.18C57.87 69.07 58.08 70.05 58.08 71.08ZM19.1 50.68C19.1 49.93 19.5 49.23 20.16 48.86L30.76 42.8C32.17 43.87 33.87 44.53 35.83 44.53C37.67 44.53 39.29 43.95 40.64 42.99V43.01C40.64 46.07 41.81 49.27 43.89 51.46L34.13 57.04H23.61C21.12 57.04 19.1 55.02 19.1 52.53V50.67V50.68ZM27.83 31.58C27.83 29.7 28.41 23.58 35.83 23.58C43.25 23.58 43.83 29.71 43.83 31.58V33.33C43.83 33.49 43.83 33.66 43.82 33.82C43.34 34.21 42.91 34.66 42.53 35.17C40.95 37.27 40.66 39.72 40.64 41.1C40.55 41.18 40.46 41.26 40.37 41.34C40.04 41.61 39.7 41.85 39.34 42.07C38.82 42.38 38.27 42.63 37.72 42.8C37.09 42.99 36.46 43.09 35.83 43.09C35.2 43.09 34.56 42.99 33.94 42.8C33.39 42.63 32.84 42.39 32.32 42.07C31.97 41.86 31.62 41.62 31.29 41.34C29.29 39.68 27.83 36.91 27.83 33.34V31.59V31.58ZM56.34 33.33V31.58C56.34 29.7 56.92 23.58 64.34 23.58C71.76 23.58 72.34 29.71 72.34 31.58V33.33C72.34 36.91 70.87 39.68 68.88 41.33C68.55 41.6 68.21 41.84 67.85 42.06C67.33 42.37 66.78 42.62 66.23 42.79C65.6 42.98 64.97 43.08 64.34 43.08C63.71 43.08 63.07 42.98 62.45 42.79C61.9 42.62 61.35 42.38 60.83 42.06C60.48 41.85 60.13 41.61 59.8 41.33C59.72 41.26 59.63 41.19 59.55 41.11C59.53 39.73 59.25 37.27 57.66 35.16C57.27 34.65 56.83 34.19 56.35 33.79C56.35 33.64 56.34 33.48 56.34 33.32V33.33ZM54.95 34.54C55.25 34.74 55.51 34.95 55.76 35.18C56.13 35.52 56.44 35.89 56.7 36.28C57.32 37.19 57.66 38.18 57.86 39.07C57.99 39.64 58.05 40.17 58.08 40.61C58.1 40.86 58.1 41.09 58.1 41.27V43.02C58.1 43.17 58.1 43.32 58.1 43.47C57.98 46.83 56.56 49.43 54.65 51.02C54.45 51.19 54.24 51.34 54.03 51.49C53.9 51.58 53.76 51.67 53.63 51.75C53.52 51.81 53.42 51.87 53.31 51.93C53.07 52.06 52.83 52.17 52.58 52.27C52.39 52.35 52.2 52.41 52.01 52.47C51.38 52.66 50.75 52.76 50.12 52.76C49.42 52.76 48.75 52.65 48.13 52.47C47.96 52.42 47.79 52.36 47.63 52.3C47.38 52.2 47.14 52.09 46.9 51.97C46.77 51.9 46.64 51.83 46.52 51.75C46.4 51.68 46.29 51.6 46.18 51.52C45.96 51.37 45.74 51.2 45.54 51.02C43.48 49.23 42.25 46.33 42.13 43.48C42.13 43.32 42.12 43.17 42.12 43.01V41.26C42.12 41.07 42.12 40.83 42.14 40.57C42.17 40.12 42.24 39.58 42.37 38.99C42.56 38.14 42.9 37.2 43.48 36.33C43.74 35.93 44.06 35.55 44.43 35.19C44.67 34.96 44.94 34.74 45.24 34.54C46.39 33.77 47.97 33.25 50.12 33.25C52.27 33.25 53.82 33.76 54.97 34.52L54.95 34.54Z" fill="#0E1721"/>
  <path d="M54.67 70.36H51.26V66.95C51.26 66.87 51.25 66.8 51.22 66.73C51.13 66.44 50.86 66.22 50.53 66.22C50.2 66.22 49.93 66.44 49.84 66.73C49.82 66.8 49.8 66.87 49.8 66.95V70.36H46.39C45.99 70.36 45.66 70.68 45.66 71.09C45.66 71.5 45.98 71.82 46.39 71.82H49.8V75.23C49.8 75.63 50.12 75.96 50.53 75.96C50.94 75.96 51.26 75.64 51.26 75.23V71.82H54.67C55.07 71.82 55.4 71.5 55.4 71.09C55.4 70.68 55.08 70.36 54.67 70.36Z" fill="white"/>
</svg>
