<svg xmlns="http://www.w3.org/2000/svg" width="100" height="100" viewBox="0 0 100 100" fill="none">
  <path d="M80.74 47.6L70.55 41.78C72.63 39.59 73.8 36.39 73.8 33.33V31.58C73.8 30.24 73.55 27.66 71.91 25.47C70.27 23.28 67.65 22.12 64.35 22.12C61.05 22.12 58.43 23.28 56.79 25.47C55.14 27.66 54.9 30.24 54.9 31.58V32.85C53.55 32.17 51.93 31.82 50.11 31.82C48.29 31.82 46.66 32.18 45.3 32.87V31.59C45.3 30.25 45.05 27.67 43.41 25.48C41.77 23.29 39.15 22.13 35.85 22.13C32.55 22.13 29.93 23.29 28.29 25.48C26.64 27.67 26.4 30.25 26.4 31.59V33.34C26.4 36.4 27.57 39.6 29.65 41.79L19.46 47.61C18.36 48.24 17.67 49.42 17.67 50.69V52.55C17.67 55.84 20.34 58.51 23.63 58.51H32.47C32.13 59.06 31.93 59.71 31.93 60.38V62.24C31.93 65.53 34.6 68.2 37.89 68.2H42.03C42.11 67.95 42.21 67.71 42.31 67.47C42.42 67.22 42.54 66.98 42.67 66.74H37.89C35.4 66.74 33.38 64.72 33.38 62.23V60.37C33.38 59.62 33.78 58.92 34.44 58.55L34.53 58.5L35.8 57.77L37.07 57.04L45.04 52.48C45.41 52.76 45.8 53.02 46.22 53.24C46.48 53.38 46.74 53.5 47.01 53.61C47.28 53.72 47.55 53.81 47.83 53.89C48.54 54.09 49.3 54.21 50.11 54.21C50.92 54.21 51.65 54.1 52.36 53.9C52.64 53.82 52.92 53.73 53.18 53.62C53.45 53.51 53.72 53.39 53.97 53.25C54.39 53.03 54.8 52.77 55.18 52.48L63.15 57.04L64.42 57.77L65.69 58.5L65.78 58.55C66.43 58.92 66.84 59.62 66.84 60.37V62.23C66.84 64.72 64.82 66.74 62.33 66.74H58.42C58.55 66.98 58.67 67.22 58.78 67.47C58.88 67.71 58.98 67.95 59.06 68.2H62.33C65.62 68.2 68.29 65.53 68.29 62.24V60.38C68.29 59.71 68.09 59.06 67.75 58.51H76.57C79.86 58.51 82.53 55.84 82.53 52.55V50.69C82.53 49.42 81.85 48.24 80.74 47.61V47.6ZM81.07 52.53C81.07 55.02 79.05 57.04 76.56 57.04H66.07L56.31 51.46C58.39 49.27 59.56 46.07 59.56 43.01C60.91 43.95 62.52 44.52 64.35 44.52C66.31 44.52 68.02 43.86 69.42 42.79L80.02 48.85C80.67 49.22 81.08 49.92 81.08 50.67V52.53H81.07ZM53.29 51.93C53.05 52.06 52.81 52.17 52.56 52.27C52.37 52.35 52.18 52.41 51.99 52.47C51.36 52.66 50.73 52.76 50.1 52.76C49.4 52.76 48.73 52.65 48.11 52.47C47.94 52.42 47.77 52.36 47.61 52.3C47.36 52.2 47.12 52.09 46.88 51.97C46.75 51.9 46.62 51.83 46.5 51.75C46.38 51.68 46.27 51.6 46.16 51.52C45.94 51.37 45.72 51.2 45.52 51.02C43.46 49.23 42.23 46.33 42.11 43.48C42.11 43.32 42.1 43.17 42.1 43.01V41.26C42.1 41.07 42.1 40.83 42.12 40.57C42.15 40.12 42.22 39.58 42.35 38.99C42.54 38.14 42.88 37.2 43.46 36.33C43.72 35.93 44.04 35.55 44.41 35.19C44.65 34.96 44.92 34.74 45.22 34.54C46.37 33.77 47.95 33.25 50.1 33.25C52.25 33.25 53.8 33.76 54.95 34.52C55.25 34.72 55.51 34.93 55.76 35.16C56.13 35.5 56.44 35.87 56.7 36.26C57.32 37.17 57.66 38.16 57.86 39.05C57.99 39.62 58.05 40.15 58.08 40.59C58.1 40.84 58.1 41.07 58.1 41.25V43C58.1 43.15 58.1 43.3 58.1 43.45C57.98 46.81 56.56 49.41 54.65 51C54.45 51.17 54.24 51.32 54.03 51.47C53.9 51.56 53.76 51.65 53.63 51.73C53.52 51.79 53.42 51.85 53.31 51.91L53.29 51.93ZM23.61 57.04C21.12 57.04 19.1 55.02 19.1 52.53V50.67C19.1 49.92 19.5 49.22 20.16 48.85L30.76 42.79C32.17 43.86 33.87 44.52 35.83 44.52C37.67 44.52 39.29 43.94 40.64 42.98V43C40.64 46.06 41.81 49.26 43.89 51.45L34.13 57.03H23.61V57.04ZM27.83 31.58C27.83 29.7 28.41 23.58 35.83 23.58C43.25 23.58 43.83 29.71 43.83 31.58V33.33C43.83 33.49 43.83 33.66 43.82 33.82C43.34 34.21 42.91 34.66 42.53 35.17C40.95 37.27 40.66 39.72 40.64 41.1C40.55 41.18 40.46 41.26 40.37 41.34C40.04 41.61 39.7 41.85 39.34 42.07C38.82 42.38 38.27 42.63 37.72 42.8C37.09 42.99 36.46 43.09 35.83 43.09C35.2 43.09 34.56 42.99 33.94 42.8C33.39 42.63 32.84 42.39 32.32 42.07C31.97 41.86 31.62 41.62 31.29 41.34C29.29 39.68 27.83 36.91 27.83 33.34V31.59V31.58ZM56.34 33.33V31.58C56.34 29.7 56.92 23.58 64.34 23.58C71.76 23.58 72.34 29.71 72.34 31.58V33.33C72.34 36.91 70.87 39.68 68.88 41.33C68.55 41.6 68.21 41.84 67.85 42.06C67.33 42.37 66.78 42.62 66.23 42.79C65.6 42.98 64.97 43.08 64.34 43.08C63.71 43.08 63.07 42.98 62.45 42.79C61.9 42.62 61.35 42.38 60.83 42.06C60.48 41.85 60.13 41.61 59.8 41.33C59.72 41.26 59.63 41.19 59.55 41.11C59.53 39.73 59.25 37.27 57.66 35.16C57.27 34.65 56.83 34.19 56.35 33.79C56.35 33.64 56.34 33.48 56.34 33.32V33.33Z" fill="#2D557F"/>
  <path d="M94.24 50C94.28 49.51 95.2 47.57 95.55 46.84L95.58 46.77C96.8 44.23 98.19 41.35 98.19 37.99C98.19 36.8 98.01 35.64 97.66 34.55C96.08 29.7 91.93 27.48 88.6 25.7C88 25.38 86.19 24.42 85.82 24.06C85.58 23.59 85.23 21.65 85.09 20.9L85.07 20.8C84.41 17.11 83.58 12.53 79.49 9.54999C75.43 6.59999 70.81 7.21999 67.1 7.71999C66.4 7.80999 64.32 8.09999 63.79 8.01999C63.47 7.84999 62.67 7.13999 61.39 5.89999C58.65 3.26999 55.25 -0.0100098 50.1 -0.0100098C44.95 -0.0100098 41.39 3.39999 38.79 5.90999C38.31 6.36999 36.88 7.74999 36.43 8.00999C35.88 8.09999 33.77 7.80999 33.06 7.71999C29.36 7.21999 24.75 6.59999 20.69 9.54999C16.61 12.52 15.78 17.12 15.11 20.82C14.99 21.51 14.62 23.56 14.39 24.03C14.01 24.4 12.24 25.35 11.64 25.66L11.58 25.69C8.24999 27.47 4.09999 29.69 2.52999 34.53C2.16999 35.63 1.98999 36.79 1.98999 37.97C1.98999 41.32 3.37999 44.21 4.59999 46.76C5.46999 48.56 5.91999 49.65 5.94999 49.99C5.90999 50.48 4.97999 52.44 4.61999 53.18L4.58999 53.25C3.36999 55.78 1.98999 58.66 1.98999 62.01C1.98999 63.21 2.16999 64.36 2.52999 65.45C4.09999 70.3 8.24999 72.51 11.6 74.3C12.27 74.66 13.99 75.58 14.37 75.93C14.62 76.42 14.99 78.48 15.12 79.17C15.78 82.86 16.61 87.46 20.7 90.43C24.75 93.38 29.36 92.76 33.07 92.26H33.11C33.81 92.16 35.88 91.88 36.41 91.96C36.88 92.21 38.32 93.6 38.8 94.06C41.39 96.56 44.93 99.98 50.1 99.98C55.27 99.98 58.66 96.7 61.4 94.06C61.93 93.55 63.32 92.21 63.75 91.97C64.29 91.88 66.37 92.16 67.07 92.25H67.13C70.83 92.75 75.44 93.37 79.49 90.43C83.57 87.46 84.4 82.86 85.07 79.16C85.19 78.47 85.56 76.42 85.79 75.95C86.17 75.58 87.9 74.66 88.56 74.3L88.6 74.28C91.76 72.6 96.08 70.29 97.66 65.43C98.01 64.34 98.19 63.19 98.19 61.99C98.19 58.63 96.8 55.75 95.57 53.19C95.25 52.52 94.27 50.49 94.23 49.98L94.24 50ZM96.28 65C94.88 69.31 90.86 71.45 87.92 73.02L87.88 73.04C86.08 74 85.04 74.61 84.65 75.07C84.63 75.1 84.61 75.12 84.59 75.15C84.28 75.65 84.02 76.86 83.65 78.92C83.03 82.36 82.25 86.65 78.64 89.27C75.06 91.87 70.77 91.3 67.33 90.84H67.27C65.23 90.56 63.92 90.43 63.32 90.6C63.29 90.6 63.26 90.62 63.23 90.63C62.72 90.85 61.85 91.64 60.4 93.03C57.85 95.48 54.68 98.54 50.11 98.54C45.54 98.54 42.22 95.36 39.81 93.03C38.4 91.67 37.48 90.84 36.93 90.61C36.9 90.6 36.87 90.59 36.84 90.58C36.67 90.53 36.43 90.51 36.14 90.51C35.44 90.51 34.39 90.63 32.92 90.83H32.88C29.43 91.3 25.14 91.87 21.56 89.27C17.95 86.64 17.18 82.36 16.56 78.92C16.19 76.85 15.92 75.63 15.59 75.11C15.57 75.08 15.55 75.05 15.53 75.03C15.15 74.59 14.11 73.99 12.29 73.01C9.18999 71.35 5.32999 69.29 3.92999 65C3.61999 64.06 3.46999 63.05 3.46999 62.01C3.46999 58.99 4.76999 56.27 5.91999 53.88L5.94999 53.81C6.88999 51.84 7.39999 50.66 7.41999 50.01C7.41999 50 7.41999 49.99 7.41999 49.98C7.39999 49.32 6.85999 48.07 5.92999 46.14C4.76999 43.73 3.46999 41 3.46999 37.98C3.46999 36.95 3.62999 35.94 3.92999 34.98C5.31999 30.69 9.17999 28.63 12.29 26.97L12.35 26.94C14.09 26.01 15.17 25.38 15.56 24.92C15.58 24.9 15.6 24.87 15.62 24.84C15.94 24.34 16.21 23.08 16.57 21.07C17.19 17.63 17.96 13.35 21.58 10.72C25.17 8.10999 29.45 8.68999 32.9 9.14999C35.02 9.43999 36.29 9.55999 36.9 9.38999C36.93 9.38999 36.97 9.36999 37 9.35999C37.51 9.13999 38.38 8.33999 39.83 6.94999C42.24 4.62999 45.55 1.44999 50.12 1.44999C54.69 1.44999 57.86 4.49999 60.4 6.94999C61.81 8.30999 62.73 9.13999 63.28 9.37999C63.31 9.38999 63.35 9.40999 63.38 9.40999C63.96 9.56999 65.21 9.43999 67.31 9.15999C70.77 8.68999 75.07 8.10999 78.65 10.72C82.26 13.35 83.03 17.62 83.65 21.05L83.67 21.15C83.98 22.85 84.27 24.31 84.63 24.87C84.65 24.9 84.67 24.92 84.69 24.95C85.07 25.4 86.12 26 87.93 26.97C91.04 28.63 94.9 30.7 96.3 34.99C96.61 35.94 96.76 36.94 96.76 37.98C96.76 41.01 95.45 43.73 94.29 46.13L94.25 46.2C93.32 48.15 92.81 49.33 92.79 49.97C92.79 49.98 92.79 49.99 92.79 50C92.81 50.65 93.35 51.9 94.28 53.84C95.43 56.24 96.74 58.96 96.74 61.99C96.74 63.03 96.58 64.03 96.28 64.98V65Z" fill="#4279B6"/>
  <path d="M58.77 67.46C58.66 67.21 58.54 66.97 58.41 66.73C56.87 63.96 53.92 62.08 50.54 62.08C47.16 62.08 44.2 63.96 42.67 66.73C42.54 66.97 42.42 67.21 42.31 67.46C42.21 67.7 42.11 67.94 42.03 68.19C41.72 69.1 41.55 70.08 41.55 71.09C41.55 76.05 45.59 80.09 50.55 80.09C55.51 80.09 59.55 76.05 59.55 71.09C59.55 70.08 59.38 69.1 59.07 68.19C58.99 67.94 58.89 67.7 58.79 67.46H58.77ZM50.53 78.63C46.37 78.63 42.98 75.24 42.98 71.08C42.98 70.05 43.19 69.07 43.56 68.18C43.66 67.93 43.78 67.69 43.91 67.45C44.05 67.2 44.2 66.96 44.37 66.72C45.74 64.79 47.99 63.52 50.53 63.52C53.07 63.52 55.32 64.78 56.69 66.72C56.85 66.95 57.01 67.19 57.15 67.45C57.28 67.68 57.4 67.93 57.5 68.18C57.87 69.07 58.08 70.05 58.08 71.08C58.08 75.24 54.69 78.63 50.53 78.63Z" fill="#4279B6"/>
  <path d="M54.67 70.36H51.26V66.95C51.26 66.87 51.25 66.8 51.22 66.73C51.13 66.44 50.86 66.22 50.53 66.22C50.2 66.22 49.93 66.44 49.84 66.73C49.82 66.8 49.8 66.87 49.8 66.95V70.36H46.39C45.99 70.36 45.66 70.68 45.66 71.09C45.66 71.5 45.98 71.82 46.39 71.82H49.8V75.23C49.8 75.63 50.12 75.96 50.53 75.96C50.94 75.96 51.26 75.64 51.26 75.23V71.82H54.67C55.07 71.82 55.4 71.5 55.4 71.09C55.4 70.68 55.08 70.36 54.67 70.36Z" fill="#4279B6"/>
</svg>
