<svg xmlns="http://www.w3.org/2000/svg" width="100" height="100" viewBox="0 0 100 100" fill="none">
  <path d="M91.07 16.24V89.97C91.07 92.25 89.2 94.12 86.92 94.12H4.88999C2.60999 94.12 0.73999 92.25 0.73999 89.97V20.39C0.73999 18.11 2.60999 16.24 4.88999 16.24H91.06H91.07Z" fill="white"/>
  <path d="M86.92 94.86H4.89C2.19 94.86 0 92.67 0 89.97V20.39C0 17.69 2.19 15.5 4.89 15.5H91.06C91.47 15.5 91.8 15.83 91.8 16.24V89.97C91.8 92.67 89.61 94.86 86.91 94.86H86.92ZM4.89 16.98C3.01 16.98 1.49 18.51 1.49 20.38V89.96C1.49 91.84 3.02 93.36 4.89 93.36H86.92C88.8 93.36 90.32 91.83 90.32 89.96V16.98H4.89Z" fill="#0E1721"/>
  <path d="M46.1399 32.19H13.19C12.78 32.19 12.45 31.86 12.45 31.45C12.45 31.04 12.78 30.71 13.19 30.71H46.1399C46.5499 30.71 46.88 31.04 46.88 31.45C46.88 31.86 46.5499 32.19 46.1399 32.19Z" fill="#0E1721"/>
  <path d="M67.0999 51.54H13.19C12.78 51.54 12.45 51.21 12.45 50.8C12.45 50.39 12.78 50.06 13.19 50.06H67.11C67.52 50.06 67.8499 50.39 67.8499 50.8C67.8499 51.21 67.52 51.54 67.11 51.54H67.0999Z" fill="#0E1721"/>
  <path d="M79.08 61.22H13.19C12.78 61.22 12.45 60.89 12.45 60.48C12.45 60.07 12.78 59.74 13.19 59.74H79.09C79.5 59.74 79.83 60.07 79.83 60.48C79.83 60.89 79.5 61.22 79.09 61.22H79.08Z" fill="#0E1721"/>
  <path d="M79.08 70.9H13.19C12.78 70.9 12.45 70.57 12.45 70.16C12.45 69.75 12.78 69.42 13.19 69.42H79.09C79.5 69.42 79.83 69.75 79.83 70.16C79.83 70.57 79.5 70.9 79.09 70.9H79.08Z" fill="#0E1721"/>
  <path d="M72.8 85.91C71.9 85.91 71.01 85.77 70.16 85.49C69.13 85.14 68.21 84.61 67.31 84.1C66.97 83.91 66.64 83.71 66.3 83.53C65.4 83.05 64.04 82.42 62.71 82.55C61.68 82.65 60.54 83.39 60.41 84.44C60.36 84.85 59.99 85.14 59.58 85.09C59.17 85.04 58.88 84.67 58.93 84.26C59.16 82.4 60.97 81.23 62.56 81.08C64.29 80.91 65.92 81.65 67 82.23C67.35 82.42 67.7 82.62 68.05 82.82C68.92 83.32 69.75 83.79 70.63 84.09C72.84 84.84 75.43 84.37 77.25 82.9C77.57 82.64 78.04 82.69 78.3 83.01C78.56 83.33 78.51 83.8 78.19 84.06C76.69 85.28 74.74 85.92 72.8 85.92V85.91Z" fill="#0E1721"/>
  <path d="M46.1399 41.87H13.19C12.78 41.87 12.45 41.54 12.45 41.13C12.45 40.72 12.78 40.39 13.19 40.39H46.1399C46.5499 40.39 46.88 40.72 46.88 41.13C46.88 41.54 46.5499 41.87 46.1399 41.87Z" fill="#0E1721"/>
  <path d="M80.93 42.4C91.0534 42.4 99.26 34.1934 99.26 24.07C99.26 13.9466 91.0534 5.74 80.93 5.74C70.8066 5.74 62.6 13.9466 62.6 24.07C62.6 34.1934 70.8066 42.4 80.93 42.4Z" fill="#3C8645"/>
  <path d="M80.93 43.15C70.41 43.15 61.86 34.59 61.86 24.08C61.86 13.57 70.41 5 80.93 5C91.45 5 100 13.56 100 24.07C100 34.58 91.44 43.14 80.93 43.14V43.15ZM80.93 6.49C71.23 6.49 63.34 14.38 63.34 24.08C63.34 33.78 71.23 41.67 80.93 41.67C90.63 41.67 98.51 33.78 98.51 24.08C98.51 14.38 90.62 6.49 80.93 6.49Z" fill="#0E1721"/>
  <path d="M90.09 23.33H81.67V14.91C81.67 14.5 81.34 14.17 80.93 14.17C80.52 14.17 80.19 14.5 80.19 14.91V23.33H71.77C71.36 23.33 71.03 23.66 71.03 24.07C71.03 24.48 71.36 24.81 71.77 24.81H80.19V33.23C80.19 33.64 80.52 33.97 80.93 33.97C81.34 33.97 81.67 33.64 81.67 33.23V24.81H90.09C90.5 24.81 90.83 24.48 90.83 24.07C90.83 23.66 90.5 23.33 90.09 23.33Z" fill="white"/>
</svg>
