<svg xmlns="http://www.w3.org/2000/svg" width="100" height="100" viewBox="0 0 100 100" fill="none">
  <path d="M86.92 94.86H4.89C2.19 94.86 0 92.67 0 89.97V20.39C0 17.69 2.19 15.5 4.89 15.5H53.42C53.83 15.5 54.16 15.83 54.16 16.24C54.16 16.65 53.83 16.98 53.42 16.98H4.89C3.01 16.98 1.49 18.51 1.49 20.38V89.96C1.49 91.84 3.02 93.36 4.89 93.36H86.92C88.8 93.36 90.32 91.83 90.32 89.96V50.79C90.32 50.38 90.65 50.05 91.06 50.05C91.47 50.05 91.8 50.38 91.8 50.79V89.96C91.8 92.66 89.61 94.85 86.91 94.85L86.92 94.86Z" fill="#2D557F"/>
  <path d="M32.54 32.19H13.19C12.78 32.19 12.45 31.86 12.45 31.45C12.45 31.04 12.78 30.71 13.19 30.71H32.54C32.95 30.71 33.2799 31.04 33.2799 31.45C33.2799 31.86 32.95 32.19 32.54 32.19Z" fill="#2D557F"/>
  <path d="M67.0999 51.54H13.19C12.78 51.54 12.45 51.21 12.45 50.8C12.45 50.39 12.78 50.06 13.19 50.06H67.11C67.52 50.06 67.8499 50.39 67.8499 50.8C67.8499 51.21 67.52 51.54 67.11 51.54H67.0999Z" fill="#2D557F"/>
  <path d="M79.08 61.22H13.19C12.78 61.22 12.45 60.89 12.45 60.48C12.45 60.07 12.78 59.74 13.19 59.74H79.09C79.5 59.74 79.83 60.07 79.83 60.48C79.83 60.89 79.5 61.22 79.09 61.22H79.08Z" fill="#2D557F"/>
  <path d="M79.08 70.9H13.19C12.78 70.9 12.45 70.57 12.45 70.16C12.45 69.75 12.78 69.42 13.19 69.42H79.09C79.5 69.42 79.83 69.75 79.83 70.16C79.83 70.57 79.5 70.9 79.09 70.9H79.08Z" fill="#2D557F"/>
  <path d="M72.8 85.91C71.9 85.91 71.01 85.77 70.16 85.49C69.13 85.14 68.21 84.61 67.31 84.1C66.97 83.91 66.64 83.71 66.3 83.53C65.4 83.05 64.04 82.42 62.71 82.55C61.68 82.65 60.54 83.39 60.41 84.44C60.36 84.85 59.98 85.14 59.58 85.09C59.17 85.04 58.88 84.67 58.93 84.26C59.16 82.4 60.97 81.23 62.56 81.08C64.29 80.91 65.92 81.65 67 82.23C67.35 82.42 67.7 82.62 68.05 82.82C68.92 83.32 69.75 83.79 70.63 84.09C72.84 84.84 75.44 84.37 77.25 82.9C77.57 82.64 78.04 82.69 78.3 83.01C78.56 83.33 78.51 83.8 78.19 84.06C76.69 85.28 74.74 85.92 72.8 85.92V85.91Z" fill="#2D557F"/>
  <path d="M32.54 41.87H13.19C12.78 41.87 12.45 41.54 12.45 41.13C12.45 40.72 12.78 40.39 13.19 40.39H32.54C32.95 40.39 33.2799 40.72 33.2799 41.13C33.2799 41.54 32.95 41.87 32.54 41.87Z" fill="#2D557F"/>
  <path d="M80.93 43.15C70.41 43.15 61.86 34.59 61.86 24.08C61.86 13.57 70.41 5 80.93 5C91.45 5 100 13.56 100 24.07C100 34.58 91.44 43.14 80.93 43.14V43.15ZM80.93 6.49C71.23 6.49 63.34 14.38 63.34 24.08C63.34 33.78 71.23 41.67 80.93 41.67C90.63 41.67 98.51 33.78 98.51 24.08C98.51 14.38 90.62 6.49 80.93 6.49Z" fill="#2D557F"/>
  <path d="M80.9301 33.98C80.5201 33.98 80.1901 33.65 80.1901 33.24V14.91C80.1901 14.5 80.5201 14.17 80.9301 14.17C81.3401 14.17 81.6701 14.5 81.6701 14.91V33.24C81.6701 33.65 81.3401 33.98 80.9301 33.98Z" fill="#2D557F"/>
  <path d="M90.09 24.82H71.76C71.35 24.82 71.02 24.49 71.02 24.08C71.02 23.67 71.35 23.34 71.76 23.34H90.09C90.5 23.34 90.83 23.67 90.83 24.08C90.83 24.49 90.5 24.82 90.09 24.82Z" fill="#2D557F"/>
</svg>
