<svg xmlns="http://www.w3.org/2000/svg" width="100" height="100" viewBox="0 0 100 100" fill="none">
  <path d="M50.1 100C44.93 100 41.38 96.58 38.8 94.08C38.32 93.61 36.88 92.23 36.41 91.98C35.88 91.9 33.81 92.18 33.12 92.28H33.08C29.37 92.78 24.76 93.4 20.7 90.45C16.62 87.47 15.79 82.88 15.12 79.19C14.99 78.5 14.62 76.44 14.37 75.95C13.99 75.6 12.26 74.67 11.59 74.31C8.23998 72.52 4.09998 70.31 2.51998 65.46C2.15998 64.38 1.97998 63.22 1.97998 62.02C1.97998 58.66 3.35998 55.79 4.57998 53.26L4.60998 53.2C4.96998 52.46 5.89998 50.5 5.93998 50.01C5.90998 49.67 5.45998 48.58 4.58998 46.78C3.36998 44.23 1.97998 41.34 1.97998 37.99C1.97998 36.81 2.15998 35.65 2.51998 34.55C4.08998 29.7 8.23998 27.49 11.57 25.71L11.63 25.68C12.23 25.36 14 24.41 14.38 24.04C14.61 23.56 14.98 21.52 15.1 20.83C15.77 17.13 16.6 12.53 20.68 9.56C24.74 6.61 29.34 7.23 33.04 7.73C33.75 7.83 35.86 8.11 36.41 8.02C36.85 7.77 38.23 6.44 38.77 5.92C41.37 3.42 44.92 0 50.08 0C55.24 0 58.64 3.27 61.37 5.91C62.65 7.14 63.45 7.85 63.77 8.03C64.3 8.11 66.38 7.83 67.08 7.73C70.79 7.23 75.42 6.61 79.47 9.56C83.55 12.53 84.38 17.12 85.05 20.81L85.07 20.9C85.21 21.65 85.56 23.59 85.8 24.06C86.17 24.42 87.98 25.38 88.58 25.7C91.92 27.48 96.07 29.7 97.65 34.55C98 35.64 98.18 36.8 98.18 37.99C98.18 41.36 96.79 44.23 95.57 46.77L95.53 46.84C95.18 47.57 94.25 49.51 94.22 50C94.26 50.51 95.24 52.54 95.56 53.21C96.79 55.77 98.18 58.65 98.18 62.01C98.18 63.2 98 64.36 97.65 65.45C96.07 70.32 91.75 72.62 88.59 74.3L88.55 74.32C87.88 74.68 86.16 75.6 85.78 75.97C85.55 76.45 85.18 78.5 85.06 79.18C84.39 82.88 83.56 87.48 79.48 90.45C75.43 93.4 70.82 92.78 67.12 92.28H67.05C66.35 92.18 64.27 91.9 63.73 91.99C63.29 92.24 61.91 93.57 61.38 94.08C58.64 96.72 55.24 100 50.08 100H50.1ZM36.13 90.52C36.43 90.52 36.66 90.54 36.83 90.59C36.86 90.59 36.89 90.61 36.92 90.62C37.47 90.85 38.39 91.68 39.8 93.04C42.21 95.37 45.51 98.55 50.1 98.55C54.69 98.55 57.84 95.5 60.39 93.04C61.83 91.65 62.71 90.86 63.22 90.64C63.25 90.63 63.28 90.62 63.31 90.61C63.92 90.44 65.22 90.57 67.26 90.84H67.32C70.77 91.31 75.05 91.89 78.63 89.28C82.24 86.65 83.01 82.37 83.64 78.93C84.01 76.87 84.27 75.66 84.58 75.16C84.6 75.13 84.62 75.1 84.64 75.08C85.03 74.62 86.07 74.01 87.87 73.05L87.91 73.03C90.85 71.46 94.87 69.32 96.27 65.01C96.58 64.07 96.73 63.06 96.73 62.02C96.73 58.99 95.42 56.27 94.27 53.87C93.33 51.92 92.79 50.68 92.78 50.03C92.78 50.02 92.78 50.01 92.78 50C92.8 49.36 93.3 48.18 94.24 46.23L94.28 46.15C95.44 43.75 96.75 41.03 96.75 38C96.75 36.96 96.59 35.96 96.29 35.01C94.89 30.72 91.03 28.65 87.92 26.99C86.11 26.03 85.06 25.42 84.68 24.97C84.66 24.95 84.64 24.92 84.62 24.89C84.26 24.32 83.97 22.87 83.66 21.16L83.64 21.06C83.02 17.63 82.25 13.36 78.64 10.72C75.05 8.11 70.75 8.69 67.3 9.16C65.25 9.44 63.95 9.57 63.37 9.41C63.34 9.41 63.3 9.39 63.27 9.38C62.72 9.14 61.8 8.31 60.39 6.95C57.84 4.5 54.67 1.45 50.11 1.45C45.55 1.45 42.23 4.63 39.82 6.95C38.37 8.35 37.49 9.14 36.99 9.36C36.96 9.37 36.93 9.39 36.89 9.39C36.28 9.56 35.01 9.44 32.89 9.15C29.44 8.68 25.16 8.11 21.57 10.72C17.96 13.35 17.18 17.63 16.56 21.07C16.2 23.08 15.93 24.34 15.61 24.84C15.59 24.87 15.57 24.89 15.55 24.92C15.16 25.38 14.08 26.01 12.34 26.94L12.28 26.97C9.17998 28.63 5.31998 30.69 3.91998 34.98C3.60998 35.93 3.45998 36.94 3.45998 37.98C3.45998 41 4.76998 43.73 5.91998 46.14C6.84998 48.07 7.39998 49.32 7.40998 49.98C7.40998 49.99 7.40998 50 7.40998 50.01C7.38998 50.66 6.87998 51.85 5.93998 53.81L5.90998 53.88C4.75998 56.27 3.45998 58.99 3.45998 62.01C3.45998 63.05 3.61998 64.06 3.91998 65C5.30998 69.29 9.16998 71.35 12.28 73.01C14.1 73.98 15.15 74.59 15.52 75.03C15.54 75.06 15.56 75.08 15.58 75.11C15.91 75.63 16.18 76.85 16.55 78.92C17.17 82.36 17.94 86.64 21.55 89.27C25.13 91.87 29.42 91.3 32.87 90.84H32.92C34.39 90.63 35.44 90.51 36.13 90.51V90.52Z" fill="#4279B6"/>
  <path d="M69.9999 74.55H25.7799C24.1499 74.55 22.8199 73.22 22.8199 71.59V34.07C22.8199 32.44 24.1499 31.11 25.7799 31.11H51.9499C52.3499 31.11 52.6799 31.43 52.6799 31.84C52.6799 32.25 52.3599 32.57 51.9499 32.57H25.7799C24.9499 32.57 24.2699 33.25 24.2699 34.08V71.6C24.2699 72.43 24.9499 73.11 25.7799 73.11H70.0099C70.84 73.11 71.5199 72.43 71.5199 71.6V50.48C71.5199 50.08 71.8399 49.75 72.2499 49.75C72.6599 49.75 72.9799 50.07 72.9799 50.48V71.6C72.9799 73.23 71.6499 74.56 70.0199 74.56L69.9999 74.55Z" fill="#2D557F"/>
  <path d="M40.6799 40.76H30.2399C29.8399 40.76 29.5099 40.44 29.5099 40.03C29.5099 39.62 29.8299 39.3 30.2399 39.3H40.6799C41.0799 39.3 41.4099 39.62 41.4099 40.03C41.4099 40.44 41.0899 40.76 40.6799 40.76Z" fill="#2D557F"/>
  <path d="M59.3199 51.19H30.2499C29.8499 51.19 29.5199 50.87 29.5199 50.46C29.5199 50.05 29.8399 49.73 30.2499 49.73H59.3199C59.7199 49.73 60.0499 50.05 60.0499 50.46C60.0499 50.87 59.7299 51.19 59.3199 51.19Z" fill="#2D557F"/>
  <path d="M65.7799 56.41H30.2499C29.8499 56.41 29.5199 56.09 29.5199 55.68C29.5199 55.27 29.8399 54.95 30.2499 54.95H65.7799C66.1799 54.95 66.5099 55.27 66.5099 55.68C66.5099 56.09 66.1899 56.41 65.7799 56.41Z" fill="#2D557F"/>
  <path d="M65.7799 61.63H30.2499C29.8499 61.63 29.5199 61.31 29.5199 60.9C29.5199 60.49 29.8399 60.17 30.2499 60.17H65.7799C66.1799 60.17 66.5099 60.49 66.5099 60.9C66.5099 61.31 66.1899 61.63 65.7799 61.63Z" fill="#2D557F"/>
  <path d="M62.39 69.72C61.87 69.72 61.36 69.64 60.87 69.47C60.29 69.27 59.77 68.98 59.27 68.69C59.09 68.59 58.91 68.49 58.73 68.39C58.02 68.01 57.46 67.85 56.98 67.9C56.5 67.95 56.08 68.28 56.03 68.63C55.98 69.03 55.62 69.31 55.22 69.26C54.82 69.21 54.54 68.85 54.59 68.45C54.74 67.27 55.83 66.55 56.84 66.45C57.86 66.35 58.8 66.78 59.42 67.11C59.61 67.21 59.8 67.32 59.99 67.43C60.45 67.69 60.88 67.94 61.33 68.09C62.42 68.46 63.7 68.23 64.59 67.51C64.9 67.26 65.36 67.31 65.61 67.62C65.86 67.93 65.81 68.39 65.5 68.64C64.63 69.34 63.51 69.72 62.39 69.72Z" fill="#2D557F"/>
  <path d="M40.6799 45.98H30.2399C29.8399 45.98 29.5099 45.66 29.5099 45.25C29.5099 44.84 29.8299 44.52 30.2399 44.52H40.6799C41.0799 44.52 41.4099 44.84 41.4099 45.25C41.4099 45.66 41.0899 45.98 40.6799 45.98Z" fill="#2D557F"/>
  <path d="M66.7699 46.67C60.9199 46.67 56.1599 41.91 56.1599 36.06C56.1599 30.21 60.9199 25.45 66.7699 25.45C72.6199 25.45 77.3799 30.21 77.3799 36.06C77.3799 41.91 72.6199 46.67 66.7699 46.67ZM66.7699 26.9C61.7199 26.9 57.6099 31.01 57.6099 36.06C57.6099 41.11 61.7199 45.22 66.7699 45.22C71.8199 45.22 75.9299 41.11 75.9299 36.06C75.9299 31.01 71.8199 26.9 66.7699 26.9Z" fill="#2D557F"/>
  <path d="M66.77 41.72C66.37 41.72 66.04 41.4 66.04 40.99V31.11C66.04 30.71 66.36 30.38 66.77 30.38C67.18 30.38 67.5 30.7 67.5 31.11V40.99C67.5 41.39 67.18 41.72 66.77 41.72Z" fill="#2D557F"/>
  <path d="M71.72 36.78H61.84C61.44 36.78 61.11 36.46 61.11 36.05C61.11 35.64 61.43 35.32 61.84 35.32H71.72C72.12 35.32 72.45 35.64 72.45 36.05C72.45 36.46 72.13 36.78 71.72 36.78Z" fill="#2D557F"/>
</svg>
