<svg xmlns="http://www.w3.org/2000/svg" width="100" height="100" viewBox="0 0 100 100" fill="none">
  <path d="M71.1 74.35C74.19 76.96 75.51 78.33 79.22 75.01C81.92 72.6 78.84 68.82 78.84 68.82L38 34.12C37.72 34.2 31.19 35.96 25.52 35.96C23.97 35.96 22.69 35.85 21.57 35.58C21.21 36.89 17.9 48.65 13.4 64.49C13.72 64.51 21.41 65.14 23.09 71.05L49.13 89.08C50.49 90.31 53.58 94.11 56.73 91.65C60.19 88.95 57.24 86.27 57.24 86.27C58.6 87.5 60.95 88.98 64.1 86.53C67.56 83.83 63.66 79.91 63.66 79.91L55.26 72.75" fill="white"/>
  <path d="M54.56 93.23C52.29 93.23 50.29 91.27 49.17 90.17C48.98 89.99 48.81 89.82 48.66 89.68L22.66 71.68C22.52 71.58 22.42 71.44 22.37 71.27C20.84 65.89 13.64 65.26 13.34 65.24C13.12 65.22 12.92 65.11 12.79 64.92C12.66 64.74 12.62 64.51 12.69 64.29C17.12 48.68 20.45 36.83 20.86 35.38C20.97 34.99 21.36 34.76 21.75 34.86C22.75 35.1 23.95 35.22 25.52 35.22C31.09 35.22 37.53 33.48 37.81 33.4C38.05 33.34 38.3 33.4 38.48 33.55L79.32 68.25C79.32 68.25 79.39 68.31 79.41 68.35C80.63 69.85 82.27 73.28 79.71 75.56C75.66 79.18 73.79 77.59 70.96 75.2L70.62 74.91C70.31 74.65 70.27 74.18 70.53 73.87C70.79 73.56 71.26 73.52 71.57 73.78L71.91 74.07C74.76 76.49 75.63 77.22 78.71 74.46C79.59 73.67 79.8 72.64 79.34 71.29C79.01 70.32 78.44 69.54 78.29 69.34L37.81 34.94C36.29 35.33 30.57 36.71 25.51 36.71C24.16 36.71 23.05 36.63 22.09 36.46C21.26 39.42 18.25 50.11 14.35 63.87C15.22 64 16.58 64.29 18.02 64.89C20.95 66.1 22.92 68.07 23.73 70.61L49.56 88.5C49.56 88.5 49.61 88.54 49.64 88.56C49.81 88.71 50.01 88.91 50.22 89.12C52.15 91.01 54.2 92.72 56.29 91.1C57.19 90.4 57.66 89.67 57.69 88.91C57.73 87.77 56.77 86.86 56.76 86.85L49.35 80.05C49.19 79.9 49.11 79.7 49.11 79.51C49.11 79.33 49.17 79.15 49.3 79.01C49.58 78.71 50.05 78.69 50.35 78.96L57.76 85.75C58.98 86.86 60.93 88.09 63.67 85.97C64.39 85.41 64.76 84.78 64.81 84.04C64.92 82.37 63.36 80.67 63.17 80.47L54.8 73.34C54.49 73.07 54.45 72.61 54.72 72.3C54.99 71.99 55.45 71.95 55.76 72.22L64.16 79.38C64.16 79.38 64.19 79.41 64.2 79.42C64.29 79.51 66.44 81.7 66.28 84.14C66.21 85.31 65.63 86.33 64.57 87.15C62.73 88.58 60.91 88.98 59.13 88.35C59.16 88.55 59.17 88.76 59.16 88.98C59.11 90.19 58.45 91.3 57.19 92.28C56.3 92.98 55.41 93.25 54.56 93.25V93.23Z" fill="#0E1721"/>
  <path d="M31.34 83.85C32.69 83.85 34.02 83.08 34.75 82.42C38.91 78.64 39.68 76.13 39.59 74.69C39.52 73.61 38.97 72.7 37.95 71.97C37.29 71.5 36.57 71.26 35.82 71.26C33.93 71.26 32.4 72.74 32.39 72.75C32.39 72.75 32.38 72.76 32.36 72.78C32.3 72.83 30.88 73.95 29.01 76.44C27.15 78.92 27.15 81.36 29.01 82.96C29.7 83.55 30.48 83.85 31.34 83.85Z" fill="#4279B6"/>
  <path d="M31.34 84.59C30.3 84.59 29.35 84.23 28.53 83.52C26.37 81.66 26.33 78.78 28.42 75.99C30.29 73.5 31.72 72.34 31.9 72.2C32.13 71.99 33.77 70.52 35.83 70.52C36.74 70.52 37.6 70.8 38.39 71.36C39.59 72.21 40.26 73.34 40.34 74.64C40.48 76.97 38.77 79.77 35.26 82.97C34.4 83.76 32.91 84.6 31.35 84.6L31.34 84.59ZM35.81 72C34.25 72 32.91 73.27 32.89 73.28C32.87 73.3 32.86 73.31 32.79 73.36C32.74 73.4 31.39 74.47 29.59 76.87C27.96 79.03 27.92 81.04 29.48 82.38C30.03 82.85 30.65 83.1 31.33 83.1C32.4 83.1 33.56 82.48 34.24 81.86C38.39 78.09 38.9 75.77 38.84 74.72C38.79 73.87 38.35 73.16 37.51 72.56C36.98 72.18 36.4 71.99 35.8 71.99L35.81 72ZM31.89 72.2C31.89 72.2 31.87 72.21 31.87 72.22C31.87 72.22 31.88 72.21 31.89 72.2Z" fill="#0E1721"/>
  <path d="M38.3001 89.38C39.3801 89.38 40.4001 88.9 41.5401 87.88C44.4501 85.23 45.9201 82.9 45.8901 80.97C45.8701 79.84 45.3401 78.8 44.2901 77.9C43.5801 77.28 42.8001 76.97 41.9801 76.97C40.4201 76.97 39.2101 78.09 39.1601 78.14L39.1401 78.16V78.17C38.9901 78.29 37.6101 79.41 35.7701 81.86C33.8301 84.44 33.8301 86.95 35.7701 88.42C36.6301 89.07 37.4601 89.39 38.3201 89.39" fill="#4279B6"/>
  <path d="M38.3 90.12C37.27 90.12 36.29 89.75 35.3 89C33.04 87.28 32.99 84.3 35.16 81.41C37.06 78.89 38.51 77.71 38.67 77.59C38.72 77.55 40.12 76.23 41.98 76.23C42.98 76.23 43.92 76.6 44.78 77.34C45.99 78.39 46.62 79.6 46.63 80.96C46.66 83.11 45.11 85.63 42.03 88.43C40.75 89.59 39.57 90.13 38.29 90.13L38.3 90.12ZM41.98 77.71C40.72 77.71 39.68 78.66 39.67 78.67C39.64 78.7 39.62 78.72 39.6 78.73C39.44 78.86 38.13 79.92 36.34 82.29C34.65 84.54 34.59 86.6 36.19 87.81C36.91 88.36 37.6 88.62 38.3 88.62C39.18 88.62 40.05 88.2 41.04 87.31C43.75 84.84 45.17 82.65 45.15 80.96C45.14 80.05 44.69 79.2 43.81 78.44C43.23 77.94 42.62 77.69 41.98 77.69V77.71Z" fill="#0E1721"/>
  <path d="M25.6699 68.64H25.6799C25.6799 68.64 24.3599 69.66 22.6599 71.93C20.9799 74.16 20.9799 76.34 22.6599 77.77C23.3099 78.32 24.0199 78.6 24.7899 78.6C26.2399 78.6 27.4599 77.59 27.7999 77.28C31.1799 74.21 31.7999 72.09 31.7299 70.86C31.6699 69.89 31.1799 69.06 30.2699 68.41C29.5899 67.92 28.8699 67.67 28.1399 67.67C26.8399 67.67 25.8899 68.44 25.7099 68.6V68.61C25.7099 68.61 25.6899 68.62 25.6899 68.63" fill="#4279B6"/>
  <path d="M24.7899 79.34C23.8499 79.34 22.9699 79 22.1799 78.33C20.1999 76.65 20.1599 74.02 22.0699 71.48C23.6999 69.32 24.9599 68.26 25.1899 68.07C25.1899 68.07 25.1899 68.07 25.1999 68.07C25.1999 68.07 25.2099 68.06 25.2199 68.05C25.5199 67.79 26.6099 66.94 28.1399 66.94C29.0299 66.94 29.8899 67.23 30.6999 67.81C31.7899 68.58 32.3999 69.62 32.4699 70.82C32.5899 72.85 31.1899 75.21 28.2999 77.83C27.9099 78.18 26.5099 79.34 24.7899 79.34ZM26.1999 69.16C26.1999 69.16 26.1599 69.2 26.1399 69.21C26.1299 69.21 24.8999 70.18 23.2599 72.36C21.8199 74.27 21.7799 76.03 23.1499 77.19C23.6599 77.62 24.2099 77.84 24.7999 77.84C26.0199 77.84 27.1099 76.9 27.3199 76.72C30.6499 73.69 31.0599 71.77 31.0099 70.89C30.9699 70.14 30.5899 69.52 29.8599 69C29.2999 68.6 28.7299 68.4 28.1599 68.4C27.0999 68.4 26.3099 69.07 26.2199 69.14L26.1999 69.16Z" fill="#0E1721"/>
  <path d="M44.7399 92.79C45.8499 92.79 46.7299 91.99 47.2999 91.38C49.3499 89.19 50.3199 87.34 50.1699 85.88C50.0799 85.04 49.6199 84.33 48.7899 83.74C48.2699 83.38 47.7399 83.19 47.1899 83.19C45.8899 83.19 44.9799 84.23 44.9699 84.23V84.25C44.9299 84.29 43.9299 85.22 42.6499 87.23C40.8699 90.03 42.3299 91.59 43.0399 92.13C43.6099 92.57 44.1699 92.78 44.7499 92.78" fill="#4279B6"/>
  <path d="M44.7399 93.53C43.9999 93.53 43.2899 93.27 42.5799 92.73C41.8999 92.21 39.8499 90.26 42.0099 86.84C43.2999 84.8 44.3299 83.82 44.4499 83.71C44.6999 83.44 45.7299 82.45 47.1899 82.45C47.8899 82.45 48.5699 82.68 49.2099 83.13C50.2199 83.84 50.7899 84.74 50.8999 85.8C51.0799 87.5 50.0699 89.49 47.8299 91.88C47.1699 92.59 46.1299 93.52 44.7299 93.52L44.7399 93.53ZM47.1999 83.94C46.2699 83.94 45.5599 84.71 45.5299 84.74C45.5199 84.76 45.4999 84.77 45.4799 84.79C45.4799 84.79 45.4599 84.81 45.4499 84.81C45.4199 84.84 44.4799 85.72 43.2699 87.63C41.9399 89.72 42.6499 90.91 43.4799 91.55C43.9199 91.89 44.3299 92.05 44.7399 92.05C45.5599 92.05 46.2799 91.38 46.7599 90.87C48.6299 88.87 49.5599 87.17 49.4299 85.96C49.3699 85.34 49.0199 84.81 48.3599 84.35C47.9699 84.08 47.5799 83.94 47.1899 83.94H47.1999Z" fill="#0E1721"/>
  <path d="M90.16 29.42C90.16 29.42 90.22 29.42 90.25 29.44C90.29 29.46 90.32 29.5 90.33 29.55L99.25 63.06C99.25 63.06 99.25 63.16 99.23 63.2C99.21 63.24 99.17 63.27 99.12 63.28L87.28 66.43C87.28 66.43 87.25 66.43 87.23 66.43C87.16 66.43 87.08 66.39 87.0599 66.3L78.14 32.79C78.11 32.69 78.1699 32.59 78.2699 32.57L90.11 29.42C90.11 29.42 90.14 29.42 90.16 29.42Z" fill="white"/>
  <path d="M87.24 67.19C86.82 67.19 86.46 66.91 86.35 66.5L77.43 32.99C77.3 32.5 77.59 31.99 78.08 31.86L89.92 28.71C90.16 28.65 90.41 28.68 90.62 28.8C90.83 28.92 90.98 29.12 91.05 29.36L99.97 62.87C100.03 63.1 100 63.36 99.88 63.57C99.76 63.78 99.56 63.94 99.32 64L87.48 67.15C87.4 67.17 87.32 67.18 87.24 67.18V67.19ZM79 33.15L87.64 65.58L98.39 62.72L89.76 30.29L79 33.15Z" fill="#0E1721"/>
  <path d="M10.35 29.4C10.35 29.4 10.38 29.4 10.4 29.4L22.19 32.73C22.19 32.73 22.28 32.77 22.3 32.82C22.32 32.86 22.33 32.91 22.32 32.96L12.89 66.33C12.86 66.42 12.78 66.46 12.72 66.46C12.7 66.46 12.69 66.46 12.67 66.46L0.880017 63.13C0.820017 63.11 0.790017 63.07 0.770017 63.04C0.750017 63.01 0.740017 62.96 0.750017 62.9L10.17 29.54C10.2 29.45 10.28 29.41 10.34 29.41" fill="#3C8645"/>
  <path d="M12.71 67.21C12.63 67.21 12.54 67.2 12.46 67.18L0.669998 63.85C0.439998 63.78 0.239998 63.63 0.119998 63.42C-1.96695e-06 63.2 -0.030002 62.95 0.039998 62.72L9.46 29.33C9.57 28.94 9.93 28.66 10.34 28.66C10.42 28.66 10.51 28.67 10.59 28.69L22.38 32.02C22.62 32.09 22.81 32.24 22.93 32.46C23.05 32.67 23.08 32.92 23.01 33.16L13.58 66.53C13.47 66.92 13.1 67.2 12.69 67.2L12.71 67.21ZM1.61 62.57L12.32 65.59L21.44 33.3L10.73 30.28L1.61 62.57Z" fill="#0E1721"/>
  <path d="M37 27.93C36.59 27.93 36.17 27.77 35.86 27.46L26.06 17.8C25.42 17.17 25.41 16.14 26.04 15.5C26.67 14.86 27.7 14.85 28.34 15.48L38.14 25.14C38.78 25.77 38.79 26.8 38.16 27.44C37.84 27.76 37.42 27.93 37 27.93Z" fill="#FCCD2A"/>
  <path d="M37 28.38C36.45 28.38 35.94 28.17 35.54 27.78L25.74 18.12C24.93 17.32 24.92 16 25.72 15.19C26.52 14.38 27.84 14.37 28.65 15.17L38.45 24.83C39.26 25.63 39.27 26.95 38.47 27.76C38.08 28.16 37.55 28.38 36.99 28.38H37ZM27.2 15.46C26.89 15.46 26.59 15.58 26.36 15.81C25.9 16.28 25.91 17.03 26.37 17.49L36.17 27.15C36.39 27.37 36.69 27.49 37 27.49C37.31 27.49 37.62 27.36 37.84 27.14C38.3 26.67 38.29 25.92 37.83 25.46L28.03 15.8C27.8 15.57 27.5 15.46 27.2 15.46Z" fill="#0E1721"/>
  <path d="M45.23 23.1C44.51 23.1 43.86 22.63 43.66 21.9L40 8.63005C39.76 7.76005 40.27 6.87005 41.14 6.63005C42.01 6.39005 42.9 6.90005 43.14 7.77005L46.8 21.04C47.04 21.91 46.53 22.8 45.66 23.04C45.52 23.08 45.37 23.1 45.23 23.1Z" fill="#FCCD2A"/>
  <path d="M45.23 23.54C44.3 23.54 43.48 22.91 43.23 22.02L39.57 8.75003C39.27 7.65003 39.92 6.50003 41.02 6.20003C41.55 6.05003 42.11 6.12003 42.6 6.40003C43.08 6.67003 43.43 7.12003 43.57 7.65003L47.23 20.92C47.53 22.02 46.88 23.17 45.78 23.47C45.6 23.52 45.41 23.54 45.23 23.54ZM41.57 7.01003C41.46 7.01003 41.36 7.02003 41.25 7.05003C40.62 7.22003 40.25 7.88003 40.42 8.51003L44.08 21.78C44.22 22.29 44.69 22.65 45.22 22.65C45.33 22.65 45.43 22.64 45.54 22.61C46.17 22.44 46.54 21.78 46.37 21.15L42.71 7.88003C42.63 7.57003 42.43 7.32003 42.15 7.16003C41.97 7.06003 41.77 7.01003 41.57 7.01003Z" fill="#0E1721"/>
  <path d="M54.78 23.03C54.64 23.03 54.51 23.01 54.37 22.98C53.5 22.75 52.98 21.86 53.2 20.99L56.66 7.65999C56.89 6.78999 57.78 6.26999 58.65 6.48999C59.52 6.71999 60.04 7.60999 59.82 8.47999L56.36 21.81C56.17 22.54 55.51 23.03 54.78 23.03Z" fill="#FCCD2A"/>
  <path d="M54.78 23.47C54.6 23.47 54.43 23.45 54.26 23.4C53.72 23.26 53.27 22.92 52.99 22.44C52.71 21.96 52.63 21.4 52.77 20.87L56.23 7.53999C56.52 6.42999 57.65 5.76999 58.76 6.04999C59.3 6.18999 59.75 6.52999 60.03 7.00999C60.31 7.48999 60.39 8.04999 60.25 8.57999L56.79 21.91C56.55 22.82 55.73 23.46 54.78 23.46V23.47ZM58.24 6.88999C57.71 6.88999 57.23 7.23999 57.09 7.77999L53.63 21.11C53.55 21.42 53.59 21.74 53.76 22.01C53.93 22.28 54.18 22.48 54.48 22.56C54.58 22.59 54.68 22.6 54.78 22.6C55.32 22.6 55.79 22.24 55.93 21.71L59.39 8.37999C59.47 8.06999 59.43 7.74999 59.26 7.47999C59.09 7.20999 58.84 7.00999 58.54 6.92999C58.44 6.89999 58.34 6.88999 58.24 6.88999Z" fill="#0E1721"/>
  <path d="M63.0801 27.74C62.6701 27.74 62.2501 27.58 61.9401 27.27C61.3001 26.64 61.2901 25.61 61.9201 24.97L71.5801 15.16C72.2101 14.52 73.2401 14.51 73.8801 15.14C74.5201 15.77 74.5301 16.8 73.9001 17.44L64.2401 27.25C63.9201 27.57 63.5001 27.74 63.0801 27.74Z" fill="#FCCD2A"/>
  <path d="M63.08 28.18C62.53 28.18 62.02 27.97 61.62 27.58C61.23 27.19 61.01 26.67 61 26.12C61 25.57 61.21 25.04 61.6 24.65L71.26 14.84C71.65 14.45 72.17 14.23 72.72 14.22C73.27 14.22 73.8 14.43 74.19 14.82C74.58 15.21 74.8 15.73 74.81 16.28C74.81 16.83 74.6 17.36 74.21 17.75L64.55 27.56C64.16 27.96 63.63 28.18 63.07 28.18H63.08ZM72.73 15.12C72.41 15.12 72.12 15.25 71.89 15.47L62.23 25.28C62.01 25.51 61.89 25.8 61.89 26.12C61.89 26.44 62.02 26.73 62.24 26.96C62.46 27.18 62.76 27.3 63.07 27.3C63.38 27.3 63.69 27.17 63.91 26.95L73.57 17.14C73.79 16.91 73.91 16.62 73.91 16.3C73.91 15.98 73.78 15.69 73.56 15.46C73.34 15.24 73.04 15.12 72.73 15.12Z" fill="#0E1721"/>
  <path d="M45.48 31.66C49.39 31.66 54.11 32.65 59.11 33.7C64.21 34.77 69.48 35.87 73.94 35.87C75.87 35.87 77.41 35.79 78.83 35.37L86.54 64.32C86.48 64.35 80.7 66.99 78.83 68.82L51.52 46.19H51.51L51.5 46.17C50.68 45.53 49.72 45.21 48.64 45.21C45.46 45.21 41.98 48.01 39.9 49.69C39.56 49.96 39.21 50.24 38.94 50.45C37.51 51.53 34.23 53.25 31.54 53.25C30 53.25 28.87 52.7 28.18 51.62C27.04 49.83 28.14 46.27 31.19 41.84C33.9 37.91 37.48 34.3 39.38 33.07C40.84 32.12 42.84 31.66 45.49 31.66" fill="#4279B6"/>
  <path d="M78.83 69.56C78.66 69.56 78.5 69.5 78.36 69.39L51.05 46.76C50.36 46.22 49.55 45.95 48.64 45.95C45.73 45.95 42.37 48.65 40.37 50.27C40.02 50.55 39.67 50.83 39.39 51.05C37.82 52.24 34.44 54 31.54 54C29.75 54 28.37 53.32 27.55 52.03C26.23 49.95 27.3 46.18 30.58 41.43C33.34 37.43 37.01 33.72 38.97 32.46C40.56 31.43 42.69 30.93 45.48 30.93C49.47 30.93 54.22 31.93 59.26 32.98C64.32 34.04 69.56 35.14 73.94 35.14C75.79 35.14 77.29 35.06 78.62 34.67C78.81 34.61 79.02 34.64 79.19 34.74C79.36 34.84 79.49 35 79.54 35.19L87.25 64.14C87.34 64.49 87.17 64.86 86.84 65.01C85.26 65.73 80.83 67.91 79.35 69.36C79.21 69.5 79.02 69.57 78.83 69.57V69.56ZM48.64 44.47C49.89 44.47 51 44.85 51.95 45.59C51.95 45.59 51.97 45.61 51.98 45.61L78.82 67.84C80.68 66.33 84.27 64.57 85.67 63.91L78.31 36.26C77.02 36.54 75.61 36.6 73.95 36.6C69.41 36.6 64.1 35.49 58.96 34.41C54 33.37 49.32 32.39 45.49 32.39C42.99 32.39 41.12 32.81 39.78 33.68C37.94 34.87 34.46 38.4 31.8 42.25C29.61 45.42 27.68 49.44 28.8 51.21C29.35 52.08 30.24 52.5 31.54 52.5C33.92 52.5 37.04 50.95 38.49 49.85C38.76 49.65 39.1 49.37 39.43 49.1C41.59 47.36 45.2 44.45 48.64 44.45V44.47Z" fill="#0E1721"/>
  <path d="M55.2699 72.76L65.2099 82.25C66.5699 83.48 68.8999 84.32 71.5699 81.35C74.8999 77.66 71.0899 74.34 71.0899 74.34L60.2099 65.85" fill="white"/>
  <path d="M67.87 84.12C66.47 84.12 65.3799 83.41 64.7099 82.8L54.7499 73.29C54.4499 73.01 54.4399 72.54 54.7299 72.24C55.0199 71.94 55.4799 71.93 55.7799 72.22L65.7199 81.71C66.1999 82.15 67.0099 82.68 68.0099 82.63C68.99 82.58 70.0099 81.98 71.0299 80.85C71.8599 79.93 72.2599 78.96 72.1999 77.98C72.1099 76.31 70.7699 75.04 70.6299 74.91L59.7699 66.44C59.4499 66.19 59.3899 65.72 59.6399 65.4C59.8899 65.08 60.3599 65.02 60.6799 65.27L71.5599 73.76C71.5599 73.76 71.5799 73.78 71.5899 73.79C71.6699 73.86 73.5299 75.51 73.6799 77.89C73.7599 79.29 73.2399 80.62 72.1299 81.86C70.8399 83.29 69.4799 84.05 68.0899 84.12C68.0199 84.12 67.9499 84.12 67.8799 84.12H67.87Z" fill="#0E1721"/>
  <path d="M85.2499 38.07C86.4594 38.07 87.4399 37.0895 87.4399 35.88C87.4399 34.6705 86.4594 33.69 85.2499 33.69C84.0404 33.69 83.0599 34.6705 83.0599 35.88C83.0599 37.0895 84.0404 38.07 85.2499 38.07Z" fill="#4279B6"/>
  <path d="M85.2499 38.82C83.6299 38.82 82.3199 37.5 82.3199 35.89C82.3199 34.28 83.6399 32.96 85.2499 32.96C86.8599 32.96 88.1799 34.28 88.1799 35.89C88.1799 37.5 86.8599 38.82 85.2499 38.82ZM85.2499 34.43C84.4499 34.43 83.7999 35.08 83.7999 35.88C83.7999 36.68 84.4499 37.33 85.2499 37.33C86.0499 37.33 86.6999 36.68 86.6999 35.88C86.6999 35.08 86.0499 34.43 85.2499 34.43Z" fill="#0E1721"/>
  <path d="M14.69 38.07C15.8995 38.07 16.88 37.0895 16.88 35.88C16.88 34.6705 15.8995 33.69 14.69 33.69C13.4805 33.69 12.5 34.6705 12.5 35.88C12.5 37.0895 13.4805 38.07 14.69 38.07Z" fill="white"/>
  <path d="M14.69 38.82C13.07 38.82 11.76 37.5 11.76 35.89C11.76 34.28 13.08 32.96 14.69 32.96C16.3 32.96 17.62 34.28 17.62 35.89C17.62 37.5 16.3 38.82 14.69 38.82ZM14.69 34.43C13.89 34.43 13.24 35.08 13.24 35.88C13.24 36.68 13.89 37.33 14.69 37.33C15.49 37.33 16.14 36.68 16.14 35.88C16.14 35.08 15.49 34.43 14.69 34.43Z" fill="#0E1721"/>
</svg>
