<svg xmlns="http://www.w3.org/2000/svg" width="100" height="100" viewBox="0 0 100 100" fill="none">
  <path d="M22.5 35.27L23.02 33.41C23.09 33.17 23.06 32.92 22.94 32.71C22.82 32.5 22.62 32.34 22.39 32.27L10.6 28.94C10.52 28.92 10.43 28.91 10.35 28.91C9.93999 28.91 9.57999 29.19 9.46999 29.58L0.0299883 62.95C-0.0400117 63.19 -0.0100117 63.43 0.109988 63.65C0.229988 63.86 0.429988 64.02 0.659988 64.08L12.45 67.41C12.53 67.43 12.62 67.44 12.7 67.44C13.11 67.44 13.47 67.16 13.59 66.77L13.94 65.54C15.72 65.8 20.98 66.93 22.33 71.38C22.71 70.89 23.06 70.46 23.38 70.1C22.44 67.93 20.64 66.2 18.01 65.12C16.57 64.52 15.21 64.24 14.34 64.1C18.25 50.33 21.26 39.64 22.08 36.68C23.04 36.85 24.15 36.93 25.5 36.93C29.08 36.93 32.96 36.24 35.48 35.7C36.26 34.91 36.99 34.22 37.65 33.67C36.67 33.93 30.7 35.45 25.5 35.45C24.3 35.45 23.32 35.38 22.48 35.24L22.5 35.27ZM12.32 65.84L1.60999 62.82L10.73 30.52L21.44 33.54L20.85 35.63V35.65L12.32 65.83V65.84Z" fill="#2D557F"/>
  <path d="M85.25 33.34C83.71 33.34 82.47 34.59 82.47 36.13C82.47 37.67 83.72 38.91 85.25 38.91C86.78 38.91 88.03 37.66 88.03 36.13C88.03 34.6 86.78 33.34 85.25 33.34ZM85.25 37.73C84.37 37.73 83.65 37.01 83.65 36.13C83.65 35.25 84.37 34.53 85.25 34.53C86.13 34.53 86.85 35.25 86.85 36.13C86.85 37.01 86.13 37.73 85.25 37.73Z" fill="#2D557F"/>
  <path d="M79.4099 68.6C79.4099 68.6 79.4099 68.6 79.3999 68.59C79.3699 68.56 79.3399 68.53 79.3099 68.5L51.9999 45.87C51.6899 45.61 51.2199 45.65 50.9599 45.97C50.9399 45.99 50.9399 46.02 50.9199 46.04C50.8799 46.1 50.8399 46.16 50.8199 46.23C50.7399 46.51 50.8199 46.82 51.0599 47.01L78.3099 69.59C78.3099 69.59 78.3599 69.66 78.3799 69.69C78.4099 69.74 78.4599 69.79 78.4999 69.86C78.5499 69.94 78.6199 70.04 78.6799 70.15C78.7199 70.22 78.7699 70.3 78.8199 70.38C78.8899 70.5 78.9599 70.63 79.0299 70.78C79.0899 70.9 79.1399 71.02 79.1899 71.15C79.2499 71.28 79.2999 71.4 79.3499 71.54C79.4599 71.87 79.5299 72.18 79.5599 72.47C79.5699 72.57 79.5599 72.67 79.5599 72.77C79.5599 72.94 79.5599 73.1 79.5399 73.26C79.5099 73.45 79.4299 73.64 79.3499 73.82C79.3199 73.88 79.3099 73.96 79.2699 74.02C79.1399 74.26 78.9599 74.5 78.7199 74.71C75.6299 77.47 74.7699 76.74 71.9199 74.32L71.5799 74.03C71.5799 74.03 71.5699 74.02 71.5599 74.01L60.6799 65.52C60.3599 65.27 59.8899 65.33 59.6399 65.65C59.3899 65.97 59.4499 66.44 59.7699 66.69L70.6299 75.16C70.7699 75.29 72.1099 76.56 72.1999 78.23C72.2599 79.21 71.8599 80.18 71.0299 81.1C70.0099 82.23 68.9999 82.83 68.0099 82.88C67.0399 82.93 66.2699 82.44 65.7799 82.01C65.1799 80.67 64.2499 79.7 64.1899 79.64C64.1799 79.63 64.1599 79.61 64.1499 79.6L55.7499 72.44C55.6799 72.38 55.5799 72.39 55.4999 72.36C55.4099 72.33 55.3299 72.27 55.2299 72.27C55.1399 72.27 55.0599 72.34 54.9699 72.38C54.8899 72.42 54.7999 72.42 54.7299 72.49C54.7299 72.49 54.7299 72.5 54.7299 72.51C54.7299 72.51 54.7199 72.51 54.7099 72.52C54.6499 72.59 54.6599 72.69 54.6299 72.77C54.5999 72.86 54.5399 72.94 54.5399 73.04C54.5399 73.13 54.6099 73.21 54.6499 73.3C54.6899 73.38 54.6899 73.47 54.7599 73.54L64.5499 82.89C64.7199 83.33 64.8199 83.8 64.7899 84.27C64.7399 85.01 64.3699 85.64 63.6499 86.2C60.9199 88.33 58.9699 87.09 57.7399 85.98L50.3299 79.19C50.0299 78.91 49.5599 78.93 49.2799 79.23C49.1499 79.37 49.0799 79.55 49.0899 79.73C49.0899 79.93 49.1699 80.13 49.3299 80.27L56.7399 87.07C56.7399 87.07 57.7199 87.99 57.6699 89.13C57.6399 89.88 57.1699 90.62 56.2699 91.32C54.1799 92.94 52.1299 91.23 50.1999 89.34C50.1499 89.29 50.1099 89.25 50.0499 89.2C49.8199 89.61 49.5499 90.03 49.2199 90.46C50.3499 91.57 52.3099 93.45 54.5399 93.45C55.3899 93.45 56.2799 93.18 57.1699 92.48C58.4299 91.5 59.0899 90.39 59.1399 89.18C59.1399 88.96 59.1399 88.75 59.1099 88.55C60.8799 89.18 62.6999 88.78 64.5499 87.35C65.6099 86.52 66.1899 85.51 66.2599 84.34C66.2599 84.23 66.2499 84.11 66.2399 84C66.7199 84.2 67.2499 84.35 67.8599 84.35C67.9299 84.35 67.9999 84.35 68.0699 84.35C69.4599 84.28 70.8199 83.52 72.1099 82.09C73.2199 80.86 73.7399 79.52 73.6599 78.12C73.6399 77.86 73.5999 77.62 73.5499 77.38C75.2499 78.31 76.9799 78.22 79.6999 75.8C81.9599 73.78 80.9399 70.86 79.8199 69.18C79.6799 68.96 79.5299 68.76 79.3899 68.59L79.4099 68.6Z" fill="#2D557F"/>
  <path d="M49.2199 83.39C48.5799 82.94 47.8999 82.71 47.1999 82.71C46.8999 82.71 46.6299 82.77 46.3699 82.84C46.5499 82.27 46.6399 81.73 46.6299 81.2C46.6099 79.84 45.9899 78.63 44.7799 77.58C43.9299 76.84 42.9899 76.47 41.9799 76.47C41.2199 76.47 40.5399 76.69 39.9899 76.96C40.2399 76.23 40.3599 75.54 40.3199 74.89C40.2399 73.6 39.5699 72.46 38.3699 71.61C37.5799 71.05 36.7199 70.77 35.8099 70.77C34.3399 70.77 33.0899 71.52 32.4099 72.02C32.4599 71.7 32.4899 71.38 32.4699 71.07C32.3999 69.88 31.7899 68.84 30.6999 68.06C29.8899 67.48 29.0299 67.19 28.1399 67.19C26.6099 67.19 25.5199 68.04 25.2199 68.3C25.2199 68.3 25.2099 68.3 25.1999 68.31C25.1999 68.31 25.1999 68.31 25.1899 68.31C25.0199 68.44 24.3299 69.03 23.3799 70.11C23.0599 70.47 22.6999 70.91 22.3299 71.39C22.2399 71.51 22.1599 71.59 22.0699 71.72C20.1599 74.26 20.1999 76.88 22.1799 78.57C22.9699 79.24 23.8399 79.58 24.7899 79.58C25.6599 79.58 26.4499 79.28 27.0699 78.94C26.5999 80.78 27.0699 82.5 28.5199 83.75C29.3499 84.46 30.2899 84.82 31.3299 84.82C32.2399 84.82 33.0999 84.53 33.8499 84.13C33.2199 86.14 33.6899 88.01 35.2899 89.23C36.2799 89.98 37.2599 90.35 38.2899 90.35C39.2499 90.35 40.1599 90.04 41.0899 89.4C40.8099 91.39 42.0699 92.58 42.5799 92.96C43.2899 93.5 43.9899 93.76 44.7399 93.76C46.1299 93.76 47.1799 92.82 47.8399 92.12C48.3799 91.55 48.8399 91 49.2399 90.47C49.5699 90.03 49.8299 89.62 50.0699 89.21C50.7299 88.05 51.0099 87 50.9099 86.05C50.7999 84.99 50.2299 84.09 49.2199 83.38V83.39ZM48.8899 88.28C48.6799 88.67 48.4099 89.09 48.0899 89.53C47.7199 90.04 47.2899 90.57 46.7599 91.12C46.2899 91.62 45.5599 92.3 44.7399 92.3C44.3299 92.3 43.9199 92.14 43.4799 91.8C42.6499 91.17 41.9399 89.98 43.2699 87.88C43.5499 87.44 43.8099 87.06 44.0499 86.73C44.4299 86.21 44.7299 85.84 44.9699 85.57C45.2399 85.26 45.4299 85.07 45.4499 85.06C45.4499 85.06 45.4699 85.04 45.4799 85.04C45.4999 85.03 45.5099 85.01 45.5299 84.99C45.5599 84.96 46.2699 84.19 47.1999 84.19C47.5899 84.19 47.9799 84.33 48.3699 84.6C49.0199 85.06 49.3699 85.59 49.4399 86.21C49.4999 86.79 49.2999 87.49 48.8899 88.28ZM38.2999 88.88C37.5999 88.88 36.9099 88.61 36.1899 88.07C34.5999 86.86 34.6499 84.79 36.3399 82.55C36.5399 82.28 36.7299 82.04 36.9199 81.8C37.2699 81.36 37.5899 80.99 37.8799 80.67C38.8399 79.61 39.4799 79.08 39.5899 78.99C39.6099 78.98 39.6299 78.96 39.6599 78.93C39.6699 78.93 40.6999 77.97 41.9699 77.97C42.6099 77.97 43.2199 78.22 43.7999 78.72C44.6799 79.48 45.1299 80.32 45.1399 81.24C45.1499 82.23 44.6499 83.41 43.6899 84.71C43.4099 85.09 43.1099 85.47 42.7499 85.86C42.2499 86.42 41.6799 87 41.0199 87.59C40.0299 88.49 39.1599 88.9 38.2799 88.9L38.2999 88.88ZM31.3399 83.35C30.6599 83.35 30.0399 83.11 29.4899 82.63C27.9299 81.29 27.9699 79.28 29.5999 77.12C29.6699 77.03 29.7399 76.95 29.8099 76.86C30.1399 76.43 30.4499 76.04 30.7399 75.7C31.9499 74.29 32.7699 73.63 32.7999 73.61C32.8599 73.56 32.8799 73.55 32.8899 73.53C32.8999 73.52 34.2399 72.25 35.8099 72.25C36.4099 72.25 36.9799 72.44 37.5199 72.82C38.3599 73.42 38.7999 74.12 38.8499 74.98C38.8999 75.79 38.5899 77.35 36.5599 79.75C36.2599 80.1 35.9399 80.47 35.5599 80.86C35.1699 81.26 34.7399 81.68 34.2499 82.13C33.5699 82.75 32.4099 83.37 31.3399 83.37V83.35ZM24.7899 78.1C24.2099 78.1 23.6499 77.88 23.1399 77.45C21.7799 76.29 21.8199 74.53 23.2499 72.62C23.2999 72.55 23.3499 72.5 23.3999 72.43C23.7299 72 24.0499 71.61 24.3399 71.28C25.4099 70.04 26.1299 69.47 26.1399 69.47C26.1599 69.45 26.1799 69.44 26.1999 69.42C26.2899 69.34 27.0799 68.68 28.1399 68.68C28.7199 68.68 29.2899 68.88 29.8399 69.28C30.5699 69.8 30.9399 70.42 30.9899 71.17C31.0299 71.81 30.8099 73.02 29.3899 74.8C29.1099 75.15 28.7899 75.52 28.4099 75.92C28.0799 76.26 27.7099 76.62 27.2999 77C27.0899 77.19 25.9999 78.12 24.7799 78.12L24.7899 78.1Z" fill="#4279B6"/>
  <path d="M99.97 63.12L91.05 29.61C90.99 29.37 90.83 29.17 90.62 29.05C90.41 28.93 90.16 28.89 89.92 28.96L78.08 32.11C77.59 32.24 77.3 32.75 77.43 33.24L77.92 35.07C76.77 35.31 75.48 35.37 73.95 35.37C69.56 35.37 64.33 34.27 59.27 33.21C54.24 32.16 49.48 31.16 45.49 31.16C42.7 31.16 40.56 31.66 38.98 32.69C38.61 32.93 38.16 33.28 37.68 33.69C37.02 34.24 36.29 34.93 35.51 35.72C33.88 37.38 32.1 39.47 30.58 41.67C27.3 46.42 26.23 50.19 27.55 52.27C28.37 53.56 29.75 54.24 31.54 54.24C34.43 54.24 37.82 52.48 39.39 51.29C39.67 51.08 40.03 50.79 40.37 50.51C42.37 48.9 45.73 46.19 48.64 46.19C49.55 46.19 50.36 46.46 51.05 47C50.81 46.8 50.73 46.5 50.81 46.22C50.83 46.15 50.87 46.09 50.91 46.03C50.92 46.01 50.93 45.98 50.95 45.96C51.21 45.64 51.68 45.6 51.99 45.86L61.76 53.95L51.98 45.85C51.98 45.85 51.96 45.83 51.95 45.83C51.11 45.17 50.14 44.82 49.07 44.74C48.93 44.73 48.79 44.71 48.64 44.71C45.2 44.71 41.59 47.62 39.43 49.36C39.1 49.63 38.75 49.91 38.49 50.11C37.03 51.21 33.91 52.76 31.54 52.76C30.25 52.76 29.35 52.34 28.8 51.47C27.67 49.7 29.61 45.68 31.8 42.51C33.75 39.68 36.15 37.03 38.01 35.35C38.43 34.97 38.81 34.65 39.16 34.39C39.38 34.22 39.59 34.06 39.77 33.94C41.11 33.07 42.98 32.65 45.48 32.65C49.32 32.65 54 33.63 58.95 34.67C64.09 35.75 69.4 36.86 73.94 36.86C75.6 36.86 77.01 36.8 78.3 36.52L85.39 63.14L85.66 64.17C84.27 64.83 80.68 66.59 78.82 68.1L79.31 68.5C79.31 68.5 79.37 68.56 79.4 68.59C79.4 68.59 79.4 68.59 79.41 68.6C79.55 68.77 79.69 68.97 79.84 69.19C81.36 67.98 84.31 66.45 86.06 65.62L86.36 66.75C86.47 67.15 86.83 67.44 87.25 67.44C87.33 67.44 87.41 67.43 87.49 67.41L99.33 64.26C99.57 64.2 99.77 64.04 99.89 63.83C100.01 63.62 100.04 63.37 99.98 63.13L99.97 63.12ZM87.64 65.82L87.26 64.38L79.55 35.43L79.01 33.4L89.77 30.53L98.4 62.96L87.65 65.82H87.64Z" fill="#4279B6"/>
  <path d="M78.3001 69.59V69.58L51.05 47.01L78.3001 69.58V69.59Z" fill="#4279B6"/>
  <path d="M78.82 68.09L61.76 53.96L78.82 68.09Z" fill="#4279B6"/>
  <path d="M14.69 33.34C13.15 33.34 11.91 34.59 11.91 36.13C11.91 37.67 13.16 38.91 14.69 38.91C16.22 38.91 17.47 37.66 17.47 36.13C17.47 34.6 16.22 33.34 14.69 33.34ZM14.69 37.73C13.81 37.73 13.09 37.01 13.09 36.13C13.09 35.25 13.81 34.53 14.69 34.53C15.57 34.53 16.29 35.25 16.29 36.13C16.29 37.01 15.57 37.73 14.69 37.73Z" fill="#4279B6"/>
  <path d="M37.64 28.22C37.78 28.36 37.97 28.43 38.16 28.43C38.35 28.43 38.54 28.36 38.69 28.21C38.98 27.92 38.97 27.45 38.69 27.16L26.57 15.21C26.28 14.92 25.81 14.93 25.52 15.21C25.23 15.5 25.24 15.97 25.52 16.26L37.64 28.21V28.22Z" fill="#4279B6"/>
  <path d="M44.95 23.48C45.04 23.81 45.34 24.02 45.66 24.02C45.73 24.02 45.79 24.02 45.86 23.99C46.25 23.88 46.49 23.47 46.38 23.08L41.85 6.66999C41.74 6.27999 41.33 6.03999 40.94 6.14999C40.55 6.25999 40.31 6.66999 40.42 7.05999L44.94 23.47L44.95 23.48Z" fill="#4279B6"/>
  <path d="M54.18 23.94C54.24 23.96 54.3 23.96 54.37 23.96C54.7 23.96 55 23.74 55.09 23.41L59.36 6.92997C59.46 6.52997 59.23 6.12997 58.83 6.02997C58.44 5.92997 58.03 6.15997 57.93 6.55997L53.65 23.04C53.55 23.44 53.78 23.84 54.18 23.94Z" fill="#4279B6"/>
  <path d="M61.9301 28.25C62.1201 28.25 62.3101 28.18 62.4601 28.03L74.4101 15.9C74.7001 15.61 74.6901 15.14 74.4101 14.85C74.1201 14.56 73.6501 14.57 73.3601 14.85L61.4101 26.98C61.1201 27.27 61.1301 27.74 61.4101 28.03C61.5501 28.17 61.7401 28.24 61.9301 28.24V28.25Z" fill="#4279B6"/>
</svg>
