<svg xmlns="http://www.w3.org/2000/svg" width="100" height="100" viewBox="0 0 100 100" fill="none">
  <path d="M36.64 91.29C36.09 91.14 34.06 91.42 32.97 91.57C29.39 92.05 24.94 92.65 21.12 89.87C17.28 87.07 16.47 82.63 15.83 79.06C15.62 77.92 15.28 76.01 14.96 75.51C14.6 75.09 12.93 74.2 11.93 73.66C8.71 71.94 4.71 69.8 3.23 65.23C2.9 64.21 2.73 63.13 2.73 62.02C2.73 58.84 4.07 56.04 5.25 53.57C5.79 52.45 6.67 50.62 6.68 50C6.67 49.37 5.75 47.48 5.26 46.46C4.06 43.96 2.72 41.17 2.72 37.99C2.72 36.88 2.89 35.8 3.22 34.77C4.7 30.2 8.71 28.06 11.92 26.34C12.86 25.84 14.6 24.91 14.98 24.46C15.28 23.99 15.62 22.09 15.83 20.95C16.48 17.38 17.28 12.94 21.12 10.14C24.94 7.35998 29.39 7.95998 32.96 8.43998C34.15 8.59998 36.09 8.85998 36.67 8.69998C37.15 8.48998 38.49 7.20998 39.28 6.43998C41.78 4.02998 45.21 0.72998 50.08 0.72998C54.95 0.72998 58.23 3.88998 60.87 6.42998C61.62 7.15998 63 8.48998 63.53 8.70998C64.07 8.85998 66.02 8.58998 67.18 8.43998C70.78 7.94998 75.23 7.35998 79.05 10.14C82.89 12.94 83.7 17.37 84.34 20.93C84.55 22.08 84.89 23.98 85.22 24.49C85.58 24.91 87.24 25.8 88.24 26.33C91.47 28.06 95.47 30.2 96.96 34.77C97.29 35.79 97.46 36.87 97.46 37.98C97.46 41.18 96.11 43.98 94.92 46.45C94.39 47.55 93.51 49.37 93.5 50C93.51 50.63 94.43 52.52 94.92 53.55C96.11 56.02 97.46 58.82 97.46 62.02C97.46 63.13 97.29 64.21 96.96 65.23C95.47 69.81 91.3 72.04 88.25 73.67C87.23 74.21 85.57 75.11 85.19 75.55C84.89 76.02 84.55 77.93 84.35 79.07C83.7 82.65 82.9 87.08 79.06 89.88C75.24 92.66 70.8 92.06 67.22 91.58C66.12 91.43 64.09 91.15 63.5 91.32C63.02 91.53 61.69 92.81 60.89 93.58C58.25 96.13 54.96 99.29 50.09 99.29C45.22 99.29 41.79 95.99 39.29 93.58C38.49 92.81 37.16 91.53 36.63 91.31L36.64 91.29Z" fill="#4279B6"/>
  <path d="M50.1 100C44.93 100 41.38 96.58 38.8 94.08C38.32 93.61 36.88 92.23 36.41 91.98C35.89 91.9 33.81 92.18 33.12 92.28H33.08C29.37 92.78 24.76 93.4 20.7 90.45C16.62 87.47 15.79 82.88 15.12 79.19C14.99 78.5 14.62 76.44 14.37 75.95C13.99 75.6 12.26 74.67 11.59 74.31C8.24001 72.52 4.10001 70.31 2.52001 65.46C2.16001 64.38 1.98001 63.22 1.98001 62.02C1.98001 58.66 3.36001 55.79 4.58001 53.26L4.61001 53.2C4.97001 52.46 5.90001 50.5 5.94001 50.01C5.91001 49.67 5.46001 48.58 4.59001 46.78C3.37001 44.23 1.98001 41.34 1.98001 37.99C1.98001 36.81 2.16001 35.65 2.52001 34.55C4.09001 29.7 8.24001 27.49 11.57 25.71L11.63 25.68C12.23 25.36 14 24.41 14.38 24.04C14.61 23.56 14.98 21.52 15.1 20.83C15.77 17.13 16.6 12.53 20.68 9.56C24.74 6.61 29.34 7.23 33.04 7.73C33.75 7.83 35.86 8.11 36.41 8.02C36.85 7.77 38.23 6.44 38.77 5.92C41.37 3.42 44.92 0 50.08 0C55.24 0 58.64 3.27 61.37 5.91C62.65 7.14 63.45 7.85 63.77 8.03C64.3 8.11 66.38 7.83 67.08 7.73C70.79 7.23 75.42 6.61 79.47 9.56C83.55 12.53 84.38 17.12 85.05 20.81L85.07 20.9C85.21 21.65 85.56 23.59 85.8 24.06C86.17 24.42 87.98 25.38 88.58 25.7C91.92 27.48 96.07 29.7 97.65 34.55C98 35.64 98.18 36.8 98.18 37.99C98.18 41.36 96.79 44.23 95.57 46.77L95.53 46.84C95.18 47.57 94.25 49.51 94.22 50C94.26 50.51 95.24 52.54 95.56 53.21C96.79 55.77 98.18 58.65 98.18 62.01C98.18 63.2 98 64.36 97.65 65.45C96.07 70.32 91.75 72.62 88.59 74.3L88.55 74.32C87.88 74.68 86.16 75.6 85.78 75.97C85.55 76.45 85.18 78.5 85.06 79.18C84.39 82.88 83.56 87.48 79.48 90.45C75.43 93.4 70.82 92.78 67.12 92.28H67.05C66.35 92.18 64.28 91.9 63.73 91.99C63.29 92.24 61.91 93.57 61.38 94.08C58.64 96.72 55.24 100 50.08 100H50.1ZM36.13 90.52C36.43 90.52 36.66 90.54 36.83 90.59C36.86 90.59 36.89 90.61 36.92 90.62C37.47 90.85 38.39 91.68 39.8 93.04C42.21 95.37 45.51 98.55 50.1 98.55C54.69 98.55 57.84 95.5 60.39 93.04C61.83 91.65 62.71 90.86 63.22 90.64C63.25 90.63 63.28 90.62 63.31 90.61C63.92 90.44 65.22 90.57 67.26 90.84H67.32C70.77 91.31 75.05 91.89 78.63 89.28C82.24 86.65 83.01 82.37 83.64 78.93C84.01 76.87 84.27 75.66 84.58 75.16C84.6 75.13 84.62 75.1 84.64 75.08C85.03 74.62 86.07 74.01 87.87 73.05L87.91 73.03C90.85 71.46 94.87 69.32 96.27 65.01C96.58 64.07 96.73 63.06 96.73 62.02C96.73 58.99 95.42 56.27 94.27 53.87C93.33 51.92 92.79 50.68 92.78 50.03C92.78 50.02 92.78 50.01 92.78 50C92.8 49.36 93.3 48.18 94.24 46.23L94.28 46.15C95.44 43.75 96.75 41.03 96.75 38C96.75 36.96 96.59 35.96 96.29 35.01C94.89 30.72 91.03 28.65 87.92 26.99C86.11 26.03 85.06 25.42 84.68 24.97C84.66 24.95 84.64 24.92 84.62 24.89C84.26 24.32 83.97 22.87 83.66 21.16L83.64 21.06C83.02 17.63 82.25 13.36 78.64 10.72C75.05 8.11 70.75 8.69 67.3 9.16C65.25 9.44 63.95 9.57 63.37 9.41C63.34 9.41 63.3 9.39 63.27 9.38C62.72 9.14 61.8 8.31 60.39 6.95C57.84 4.5 54.67 1.45 50.11 1.45C45.55 1.45 42.23 4.63 39.82 6.95C38.37 8.35 37.49 9.14 36.99 9.36C36.96 9.37 36.93 9.39 36.89 9.39C36.28 9.56 35.01 9.44 32.89 9.15C29.44 8.68 25.16 8.11 21.57 10.72C17.96 13.35 17.18 17.63 16.56 21.07C16.2 23.08 15.93 24.34 15.61 24.84C15.59 24.87 15.57 24.89 15.55 24.92C15.16 25.38 14.08 26.01 12.34 26.94L12.28 26.97C9.18001 28.63 5.32001 30.69 3.92001 34.98C3.61001 35.93 3.46001 36.94 3.46001 37.98C3.46001 41 4.77001 43.73 5.92001 46.14C6.85001 48.07 7.40001 49.32 7.41001 49.98C7.41001 49.99 7.41001 50 7.41001 50.01C7.39001 50.66 6.88001 51.85 5.94001 53.81L5.91001 53.88C4.76001 56.27 3.46001 58.99 3.46001 62.01C3.46001 63.05 3.62001 64.06 3.92001 65C5.31001 69.29 9.17001 71.35 12.28 73.01C14.1 73.98 15.15 74.59 15.52 75.03C15.54 75.06 15.56 75.08 15.58 75.11C15.91 75.63 16.18 76.85 16.55 78.92C17.17 82.36 17.94 86.64 21.55 89.27C25.13 91.87 29.42 91.3 32.87 90.84H32.92C34.39 90.63 35.44 90.51 36.13 90.51V90.52Z" fill="#0E1721"/>
  <path d="M50.1 5.65999C52.77 5.65999 54.75 7.36998 57.46 9.97998C59.38 11.83 60.44 12.75 61.6 13.25C61.82 13.34 62.04 13.42 62.27 13.48C62.81 13.62 63.37 13.69 64.04 13.69C65.11 13.69 66.51 13.51 67.85 13.33C69.2 13.15 70.59 12.96 71.9 12.96C73.73 12.96 75.05 13.32 76.15 14.12C78.24 15.64 78.83 18.15 79.49 21.81L79.51 21.91C80.02 24.68 80.34 26.02 81.07 27.16C81.19 27.34 81.31 27.51 81.45 27.67C82.29 28.66 83.45 29.37 85.92 30.68C89.23 32.45 91.46 33.8 92.27 36.29C92.44 36.82 92.53 37.39 92.53 37.98C92.53 40.05 91.49 42.22 90.48 44.32L90.45 44.39C89.16 47.08 88.62 48.44 88.58 49.88C88.58 49.96 88.58 50.04 88.58 50.11C88.61 51.55 89.19 52.99 90.48 55.66V55.68C91.54 57.87 92.54 59.94 92.54 62.01C92.54 62.61 92.45 63.17 92.28 63.7C91.4 66.39 88.5 67.94 85.93 69.31L85.89 69.33C83.44 70.64 82.28 71.35 81.44 72.35C81.29 72.53 81.15 72.71 81.03 72.91C80.33 74.02 80.01 75.37 79.51 78.17C78.85 81.83 78.26 84.35 76.17 85.87C75.06 86.68 73.75 87.03 71.92 87.03C70.61 87.03 69.23 86.84 67.89 86.67H67.83C66.53 86.49 65.16 86.31 64.08 86.31C63.36 86.31 62.75 86.38 62.18 86.54C61.97 86.6 61.76 86.67 61.55 86.76C60.44 87.24 59.52 88.02 57.47 89.99C54.75 92.61 52.77 94.32 50.1 94.32C47.21 94.32 44.83 92.02 42.72 89.99C40.8 88.14 39.74 87.23 38.56 86.73C38.36 86.64 38.15 86.57 37.94 86.51C37.39 86.36 36.82 86.29 36.14 86.29C35.07 86.29 33.68 86.47 32.35 86.65H32.31C30.97 86.83 29.59 87.02 28.28 87.02C26.44 87.02 25.13 86.66 24.03 85.86C21.94 84.33 21.35 81.82 20.69 78.16C20.18 75.34 19.85 73.98 19.13 72.84C19 72.64 18.86 72.45 18.71 72.27C17.88 71.31 16.73 70.61 14.28 69.3H14.25C10.95 67.52 8.72001 66.18 7.91001 63.68C7.74001 63.16 7.65001 62.6 7.65001 62C7.65001 59.93 8.69001 57.78 9.69001 55.68L9.72001 55.61C11.02 52.9 11.57 51.53 11.6 50.09C11.6 50.01 11.6 49.93 11.6 49.86C11.57 48.41 10.98 46.97 9.69001 44.3C8.64001 42.1 7.64001 40.03 7.64001 37.96C7.64001 37.37 7.73001 36.79 7.90001 36.26C8.71001 33.77 10.93 32.43 14.24 30.66L14.3 30.63C16.75 29.32 17.91 28.61 18.75 27.6C18.89 27.43 19.02 27.25 19.14 27.07C19.84 25.96 20.17 24.6 20.67 21.8C21.33 18.14 21.92 15.63 24.01 14.1C25.12 13.29 26.43 12.93 28.26 12.93C29.57 12.93 30.95 13.12 32.29 13.3C33.68 13.49 35.01 13.65 36.1 13.65C36.81 13.65 37.4 13.58 37.96 13.42C38.19 13.36 38.41 13.28 38.63 13.18C39.73 12.7 40.65 11.92 42.7 9.93998C44.81 7.90998 47.2 5.60999 50.07 5.60999" fill="white"/>
  <path d="M50.1 95.07C46.92 95.07 44.42 92.66 42.22 90.54C40.36 88.75 39.35 87.88 38.29 87.42C38.12 87.35 37.94 87.29 37.76 87.24C37.28 87.11 36.77 87.05 36.15 87.05C35.13 87.05 33.76 87.22 32.45 87.4H32.41C31.05 87.59 29.64 87.78 28.29 87.78C26.29 87.78 24.85 87.38 23.61 86.48C21.3 84.79 20.67 82.16 19.98 78.32C19.49 75.6 19.17 74.3 18.52 73.26C18.41 73.09 18.29 72.93 18.16 72.77C17.41 71.8999 16.3 71.2299 13.94 69.96L13.91 69.95C10.45 68.1 8.12002 66.6899 7.22002 63.93C7.03002 63.34 6.93002 62.6999 6.93002 62.0299C6.93002 59.7999 8.00002 57.56 9.04002 55.4L9.07002 55.33C10.32 52.72 10.85 51.41 10.88 50.11C10.88 50.04 10.88 49.9799 10.88 49.91C10.85 48.59 10.29 47.22 9.05002 44.65C7.96002 42.37 6.93002 40.22 6.93002 38C6.93002 37.33 7.03002 36.69 7.22002 36.08C8.11002 33.33 10.45 31.91 13.91 30.06L13.97 30.03C16.33 28.77 17.44 28.09 18.21 27.17C18.33 27.03 18.44 26.87 18.54 26.72C19.18 25.71 19.48 24.41 19.97 21.7099C20.66 17.8799 21.29 15.24 23.6 13.55C24.84 12.65 26.28 12.25 28.27 12.25C29.63 12.25 31.04 12.44 32.4 12.62C33.76 12.8 35.07 12.97 36.12 12.97C36.76 12.97 37.3 12.91 37.79 12.77C37.98 12.72 38.17 12.65 38.36 12.57C39.36 12.13 40.24 11.38 42.22 9.47995C44.43 7.35995 46.93 4.94995 50.1 4.94995C53.04 4.94995 55.13 6.73995 57.97 9.46995C59.83 11.26 60.83 12.14 61.89 12.59C62.08 12.67 62.27 12.74 62.46 12.79C62.93 12.92 63.44 12.98 64.04 12.98C65.06 12.98 66.44 12.81 67.76 12.63C69.13 12.45 70.54 12.25 71.91 12.25C73.91 12.25 75.35 12.65 76.59 13.55C78.9 15.23 79.53 17.87 80.22 21.7L80.24 21.7999C80.73 24.4699 81.04 25.76 81.7 26.78C81.8 26.93 81.91 27.08 82.02 27.22C82.78 28.12 83.9 28.79 86.27 30.06C89.73 31.91 92.07 33.33 92.97 36.08C93.16 36.68 93.26 37.33 93.26 38C93.26 40.24 92.18 42.4799 91.14 44.65L91.11 44.72C89.87 47.32 89.34 48.61 89.31 49.91C89.31 49.9799 89.31 50.04 89.31 50.11C89.34 51.42 89.9 52.79 91.14 55.36C92.24 57.65 93.27 59.79 93.27 62.02C93.27 62.6899 93.17 63.33 92.98 63.93C92.01 66.9 88.97 68.53 86.28 69.96L86.24 69.98C83.88 71.25 82.76 71.92 82 72.83C81.87 72.98 81.75 73.14 81.65 73.31C81.02 74.32 80.71 75.61 80.23 78.32C79.54 82.16 78.91 84.8 76.6 86.48C75.36 87.38 73.92 87.78 71.92 87.78C70.56 87.78 69.16 87.59 67.8 87.41H67.74C66.46 87.23 65.12 87.06 64.08 87.06C63.42 87.06 62.88 87.13 62.38 87.27C62.2 87.32 62.02 87.38 61.85 87.46C60.85 87.89 59.97 88.65 57.99 90.55C55.15 93.29 53.06 95.08 50.11 95.08L50.1 95.07ZM36.15 85.59C36.9 85.59 37.53 85.67 38.14 85.83C38.38 85.9 38.62 85.98 38.85 86.08C40.13 86.62 41.23 87.57 43.23 89.49C45.24 91.43 47.51 93.62 50.1 93.62C52.5 93.62 54.38 91.99 56.97 89.49C59.09 87.45 60.05 86.63 61.26 86.11C61.49 86.01 61.74 85.92 61.98 85.86C62.62 85.68 63.28 85.6 64.07 85.6C65.2 85.6 66.59 85.77 67.92 85.95H67.98C69.29 86.13 70.65 86.32 71.91 86.32C73.58 86.32 74.76 86 75.74 85.29C77.61 83.93 78.16 81.54 78.79 78.05C79.31 75.15 79.65 73.74 80.41 72.53C80.55 72.31 80.71 72.09 80.88 71.89C81.8 70.8 83.01 70.0599 85.54 68.6999L85.58 68.68C88.03 67.38 90.8 65.8999 91.58 63.4799C91.73 63.0299 91.8 62.54 91.8 62.02C91.8 60.1199 90.84 58.1199 89.82 56.0099C88.48 53.2199 87.88 51.72 87.84 50.1399C87.84 50.0499 87.84 49.9599 87.84 49.8699C87.88 48.2999 88.44 46.88 89.78 44.08L89.81 44.0099C90.79 41.9799 91.79 39.8899 91.79 37.9799C91.79 37.4599 91.72 36.9599 91.57 36.5099C90.84 34.2799 88.72 33.01 85.57 31.32C83.02 29.9599 81.8 29.2199 80.89 28.1399C80.73 27.9499 80.59 27.7599 80.45 27.5499C79.66 26.3099 79.31 24.91 78.78 22.04L78.76 21.94C78.13 18.46 77.58 16.07 75.71 14.71C74.74 14 73.56 13.69 71.89 13.69C70.62 13.69 69.26 13.87 67.94 14.05C66.57 14.23 65.14 14.42 64.03 14.42C63.29 14.42 62.67 14.35 62.07 14.19C61.81 14.12 61.55 14.03 61.3 13.92C60.03 13.37 58.93 12.43 56.94 10.51C54.36 8.01995 52.48 6.38995 50.08 6.38995C47.5 6.38995 45.22 8.57995 43.21 10.51C41.09 12.55 40.13 13.37 38.92 13.89C38.67 14 38.41 14.09 38.15 14.16C37.53 14.33 36.87 14.41 36.09 14.41C34.96 14.41 33.59 14.24 32.18 14.05C30.87 13.87 29.51 13.69 28.25 13.69C26.58 13.69 25.4 14.01 24.43 14.72C22.56 16.08 22 18.4699 21.37 21.9599C20.85 24.8599 20.51 26.27 19.74 27.49C19.61 27.7 19.46 27.91 19.29 28.1C18.36 29.21 17.16 29.95 14.62 31.31L14.56 31.34C11.41 33.02 9.30002 34.29 8.57002 36.52C8.42002 36.9799 8.35002 37.47 8.35002 37.99C8.35002 39.89 9.31002 41.8899 10.33 44.0099C11.67 46.7799 12.27 48.2899 12.31 49.8699C12.31 49.9599 12.31 50.0499 12.31 50.1399C12.27 51.7099 11.7 53.1399 10.36 55.95L10.33 56.02C9.36002 58.04 8.36002 60.1199 8.36002 62.02C8.36002 62.54 8.43002 63.03 8.58002 63.47C9.31002 65.72 11.43 66.9799 14.57 68.6699C14.57 68.6699 14.6 68.68 14.6 68.69C17.13 70.04 18.33 70.78 19.23 71.83C19.41 72.03 19.57 72.25 19.71 72.48C20.5 73.72 20.85 75.14 21.38 78.06C22.01 81.5499 22.56 83.94 24.43 85.3C25.4 86.01 26.58 86.32 28.26 86.32C29.52 86.32 30.88 86.14 32.19 85.96H32.23C33.59 85.77 35 85.59 36.12 85.59H36.15Z" fill="#0E1721"/>
  <path d="M71.03 32.8199V70.41C71.03 71.57 70.08 72.5199 68.92 72.5199H27.1C25.94 72.5199 24.99 71.57 24.99 70.41V34.9399C24.99 33.7799 25.94 32.8299 27.1 32.8299H71.03V32.8199Z" fill="white"/>
  <path d="M68.92 73.25H27.1C25.53 73.25 24.26 71.98 24.26 70.41V34.94C24.26 33.37 25.53 32.1 27.1 32.1H71.03C71.43 32.1 71.76 32.42 71.76 32.83V70.42C71.76 71.99 70.49 73.26 68.92 73.26V73.25ZM27.1 33.55C26.33 33.55 25.71 34.17 25.71 34.94V70.41C25.71 71.18 26.33 71.8 27.1 71.8H68.92C69.69 71.8 70.31 71.18 70.31 70.41V33.55H27.1Z" fill="#0E1721"/>
  <path d="M48.13 41.3H31.33C30.93 41.3 30.6 40.98 30.6 40.57C30.6 40.16 30.92 39.84 31.33 39.84H48.13C48.53 39.84 48.86 40.16 48.86 40.57C48.86 40.98 48.54 41.3 48.13 41.3Z" fill="#0E1721"/>
  <path d="M58.82 51.17H31.33C30.93 51.17 30.6 50.85 30.6 50.44C30.6 50.03 30.92 49.71 31.33 49.71H58.82C59.22 49.71 59.55 50.03 59.55 50.44C59.55 50.85 59.23 51.17 58.82 51.17Z" fill="#0E1721"/>
  <path d="M64.93 56.1H31.33C30.93 56.1 30.6 55.78 30.6 55.37C30.6 54.96 30.92 54.64 31.33 54.64H64.92C65.32 54.64 65.65 54.96 65.65 55.37C65.65 55.78 65.33 56.1 64.92 56.1H64.93Z" fill="#0E1721"/>
  <path d="M64.93 61.04H31.33C30.93 61.04 30.6 60.72 30.6 60.31C30.6 59.9 30.92 59.58 31.33 59.58H64.92C65.32 59.58 65.65 59.9 65.65 60.31C65.65 60.72 65.33 61.04 64.92 61.04H64.93Z" fill="#0E1721"/>
  <path d="M61.72 68.69C61.23 68.69 60.73 68.61 60.27 68.46C59.71 68.27 59.23 67.99 58.75 67.72C58.58 67.62 58.41 67.53 58.24 67.44C57.57 67.08 57.05 66.94 56.61 66.98C56.18 67.02 55.79 67.32 55.75 67.64C55.7 68.04 55.34 68.32 54.94 68.27C54.54 68.22 54.26 67.86 54.31 67.46C54.45 66.32 55.5 65.63 56.47 65.53C57.44 65.43 58.34 65.84 58.93 66.16C59.11 66.26 59.29 66.36 59.47 66.46C59.9 66.71 60.31 66.94 60.73 67.08C61.75 67.42 62.94 67.21 63.77 66.53C64.08 66.28 64.54 66.33 64.79 66.64C65.04 66.95 64.99 67.41 64.68 67.66C63.85 68.33 62.78 68.69 61.71 68.69H61.72Z" fill="#0E1721"/>
  <path d="M48.13 46.24H31.33C30.93 46.24 30.6 45.92 30.6 45.51C30.6 45.1 30.92 44.78 31.33 44.78H48.13C48.53 44.78 48.86 45.1 48.86 45.51C48.86 45.92 48.54 46.24 48.13 46.24Z" fill="#0E1721"/>
  <path d="M73.23 50.44L59.21 45.51L52.56 30.25H73.23V50.44Z" fill="white"/>
  <path d="M53.84 33.0601C53.55 33.0601 53.3 32.8601 53.23 32.5801L53.03 31.7501C52.84 30.9801 52.43 30.2701 51.84 29.7201C51.43 29.3301 50.95 29.0301 50.42 28.8301C50.27 28.7701 50.11 28.7201 49.95 28.6801L49.12 28.4801C48.84 28.4101 48.64 28.1601 48.64 27.8701C48.64 27.5801 48.84 27.3301 49.12 27.2601L49.95 27.0601C50.11 27.0201 50.27 26.9701 50.43 26.9101C50.96 26.7101 51.44 26.4101 51.85 26.0201C52.44 25.4601 52.85 24.7601 53.04 23.9901L53.24 23.1601C53.31 22.8801 53.56 22.6801 53.85 22.6801C54.14 22.6801 54.39 22.8801 54.46 23.1601L54.66 23.9901C55.04 25.5101 56.22 26.6901 57.74 27.0701L58.57 27.2701C58.85 27.3401 59.05 27.5901 59.05 27.8801C59.05 28.1701 58.85 28.4201 58.57 28.4901L57.74 28.6901C56.22 29.0701 55.04 30.2501 54.66 31.7701L54.46 32.6001C54.39 32.8801 54.14 33.0801 53.85 33.0801L53.84 33.0601Z" fill="#FCCD2A"/>
  <path d="M53.84 23.29L54.04 24.12C54.47 25.87 55.83 27.23 57.58 27.66L58.41 27.86L57.58 28.06C55.83 28.49 54.47 29.85 54.04 31.6L53.84 32.43L53.64 31.6C53.42 30.69 52.93 29.89 52.28 29.26C51.81 28.82 51.26 28.47 50.65 28.23C50.47 28.16 50.29 28.1 50.1 28.05L49.27 27.85L50.1 27.65C50.29 27.6 50.47 27.54 50.65 27.47C51.26 27.24 51.82 26.89 52.28 26.44C52.94 25.82 53.42 25.01 53.64 24.1L53.84 23.27M53.84 22.03C53.26 22.03 52.76 22.43 52.62 22.99L52.42 23.82C52.26 24.48 51.91 25.07 51.41 25.55C51.06 25.88 50.65 26.14 50.2 26.31C50.03 26.37 49.91 26.41 49.8 26.44L48.97 26.64C48.41 26.78 48.01 27.28 48.01 27.86C48.01 28.44 48.41 28.94 48.97 29.08L49.8 29.28C49.94 29.31 50.09 29.37 50.2 29.41C50.65 29.58 51.05 29.83 51.41 30.17C51.91 30.65 52.26 31.24 52.42 31.9L52.62 32.73C52.76 33.29 53.26 33.69 53.84 33.69C54.42 33.69 54.92 33.29 55.06 32.73L55.26 31.9C55.58 30.6 56.58 29.6 57.88 29.28L58.71 29.08C59.27 28.94 59.67 28.44 59.67 27.86C59.67 27.28 59.27 26.78 58.71 26.64L57.88 26.44C56.58 26.12 55.58 25.12 55.26 23.82L55.06 22.99C54.92 22.43 54.42 22.03 53.84 22.03Z" fill="#0E1721"/>
  <path d="M65.65 50.3C65.36 50.3 65.11 50.1 65.04 49.82L64.57 47.9C63.62 44.05 60.64 41.06 56.78 40.11L54.86 39.64C54.58 39.57 54.38 39.32 54.38 39.03C54.38 38.74 54.58 38.49 54.86 38.42L56.78 37.95C60.63 37 63.62 34.01 64.57 30.16L65.04 28.24C65.11 27.96 65.36 27.76 65.65 27.76C65.94 27.76 66.19 27.96 66.26 28.24L66.73 30.16C67.68 34.01 70.66 37 74.52 37.95L76.44 38.42C76.72 38.49 76.92 38.74 76.92 39.03C76.92 39.32 76.72 39.57 76.44 39.64L74.52 40.11C70.67 41.06 67.68 44.05 66.73 47.9L66.26 49.82C66.19 50.1 65.94 50.3 65.65 50.3Z" fill="#FCCD2A"/>
  <path d="M65.65 28.37L66.12 30.29C67.12 34.36 70.3 37.53 74.37 38.54L76.29 39.01L74.37 39.48C70.3 40.48 67.13 43.66 66.12 47.73L65.65 49.65L65.18 47.73C64.18 43.66 61 40.49 56.93 39.48L55.01 39.01L56.93 38.54C61 37.54 64.17 34.36 65.18 30.29L65.65 28.37ZM65.65 27.11C65.07 27.11 64.57 27.51 64.43 28.07L63.96 29.99C63.07 33.61 60.26 36.42 56.63 37.32L54.71 37.79C54.15 37.93 53.75 38.43 53.75 39.01C53.75 39.59 54.15 40.09 54.71 40.23L56.63 40.7C60.25 41.59 63.06 44.4 63.96 48.03L64.43 49.95C64.57 50.51 65.07 50.91 65.65 50.91C66.23 50.91 66.73 50.51 66.87 49.95L67.34 48.03C68.23 44.41 71.04 41.6 74.67 40.7L76.59 40.23C77.15 40.09 77.55 39.59 77.55 39.01C77.55 38.43 77.15 37.93 76.59 37.79L74.67 37.32C71.05 36.43 68.24 33.62 67.34 29.99L66.87 28.07C66.73 27.51 66.23 27.11 65.65 27.11Z" fill="#0E1721"/>
  <path d="M74.8 53.76C74.51 53.76 74.26 53.56 74.19 53.28L74.04 52.66C73.77 51.58 72.93 50.74 71.85 50.47L71.23 50.32C70.95 50.25 70.75 50 70.75 49.71C70.75 49.42 70.95 49.17 71.23 49.1L71.85 48.95C72.93 48.68 73.77 47.84 74.04 46.76L74.19 46.14C74.26 45.86 74.51 45.66 74.8 45.66C75.09 45.66 75.34 45.86 75.41 46.14L75.56 46.76C75.73 47.46 76.16 48.07 76.76 48.49C77.07 48.71 77.4 48.86 77.75 48.95L78.37 49.1C78.65 49.17 78.85 49.42 78.85 49.71C78.85 50 78.65 50.25 78.37 50.32L77.75 50.47C77.4 50.56 77.07 50.71 76.76 50.93C76.16 51.35 75.74 51.96 75.56 52.66L75.41 53.28C75.34 53.56 75.09 53.76 74.8 53.76Z" fill="#FCCD2A"/>
  <path d="M74.8 46.3L74.95 46.92C75.16 47.79 75.69 48.52 76.4 49.02C76.76 49.27 77.16 49.46 77.6 49.57L77.78 49.62L78.21 49.73L77.78 49.84L77.6 49.89C77.16 50 76.76 50.19 76.4 50.44C75.69 50.93 75.17 51.67 74.95 52.54L74.8 53.16L74.65 52.54C74.33 51.23 73.31 50.21 72 49.89L71.38 49.74L72 49.59C73.31 49.27 74.33 48.25 74.65 46.94L74.8 46.32M74.8 45.04C74.22 45.04 73.72 45.44 73.58 46L73.43 46.62C73.22 47.47 72.56 48.14 71.7 48.35L71.08 48.5C70.52 48.64 70.12 49.14 70.12 49.72C70.12 50.3 70.52 50.8 71.08 50.94L71.7 51.09C72.55 51.3 73.22 51.96 73.43 52.82L73.58 53.44C73.72 54 74.22 54.4 74.8 54.4C75.38 54.4 75.88 54 76.02 53.44L76.17 52.82C76.31 52.27 76.64 51.79 77.12 51.46C77.37 51.29 77.63 51.17 77.9 51.1L78.09 51.05L78.52 50.94C79.08 50.8 79.48 50.3 79.48 49.72C79.48 49.14 79.08 48.64 78.52 48.5L78.09 48.39L77.91 48.34C77.64 48.27 77.38 48.15 77.13 47.98C76.66 47.65 76.32 47.16 76.18 46.62L76.03 46C75.89 45.44 75.39 45.04 74.81 45.04H74.8Z" fill="#0E1721"/>
</svg>
