<svg xmlns="http://www.w3.org/2000/svg" width="100" height="100" viewBox="0 0 100 100" fill="none">
  <path d="M94.24 50C94.28 49.51 95.2 47.57 95.55 46.84L95.58 46.77C96.8 44.23 98.19 41.35 98.19 37.99C98.19 36.8 98.01 35.64 97.66 34.55C96.08 29.7 91.93 27.48 88.6 25.7C88 25.38 86.19 24.42 85.82 24.06C85.58 23.59 85.23 21.65 85.09 20.9L85.07 20.8C84.41 17.11 83.58 12.53 79.49 9.54999C75.43 6.59999 70.81 7.21999 67.1 7.71999C66.4 7.80999 64.32 8.09999 63.79 8.01999C63.47 7.84999 62.67 7.13999 61.39 5.89999C58.65 3.26999 55.25 -0.0100098 50.1 -0.0100098C44.95 -0.0100098 41.39 3.39999 38.79 5.90999C38.31 6.36999 36.88 7.74999 36.43 8.00999C35.88 8.09999 33.77 7.80999 33.06 7.71999C29.36 7.21999 24.75 6.59999 20.69 9.54999C16.61 12.52 15.78 17.12 15.11 20.82C14.99 21.51 14.62 23.56 14.39 24.03C14.01 24.4 12.24 25.35 11.64 25.66L11.58 25.69C8.25 27.47 4.1 29.69 2.53 34.53C2.17 35.63 1.99 36.79 1.99 37.97C1.99 41.32 3.38 44.21 4.6 46.76C5.47 48.56 5.92 49.65 5.95 49.99C5.91 50.48 4.98 52.44 4.62 53.18L4.59 53.25C3.37 55.78 1.99 58.66 1.99 62.01C1.99 63.21 2.17 64.36 2.53 65.45C4.1 70.3 8.25 72.51 11.6 74.3C12.27 74.66 13.99 75.58 14.37 75.93C14.62 76.42 14.99 78.48 15.12 79.17C15.78 82.86 16.61 87.46 20.7 90.43C24.75 93.38 29.36 92.76 33.07 92.26H33.11C33.81 92.16 35.88 91.88 36.41 91.96C36.88 92.21 38.32 93.6 38.8 94.06C41.39 96.56 44.93 99.98 50.1 99.98C55.27 99.98 58.66 96.7 61.4 94.06C61.93 93.55 63.32 92.21 63.75 91.97C64.29 91.88 66.37 92.16 67.07 92.25H67.13C70.83 92.75 75.44 93.37 79.49 90.43C83.57 87.46 84.4 82.86 85.07 79.16C85.19 78.47 85.56 76.42 85.79 75.95C86.17 75.58 87.9 74.66 88.56 74.3L88.6 74.28C91.76 72.6 96.08 70.29 97.66 65.43C98.01 64.34 98.19 63.19 98.19 61.99C98.19 58.63 96.8 55.75 95.57 53.19C95.25 52.52 94.27 50.49 94.23 49.98L94.24 50ZM96.28 65C94.88 69.31 90.86 71.45 87.92 73.02L87.88 73.04C86.08 74 85.04 74.61 84.65 75.07C84.63 75.1 84.61 75.12 84.59 75.15C84.28 75.65 84.02 76.86 83.65 78.92C83.03 82.36 82.25 86.65 78.64 89.27C75.06 91.87 70.77 91.3 67.33 90.84H67.27C65.23 90.56 63.92 90.43 63.32 90.6C63.29 90.6 63.26 90.62 63.23 90.63C62.72 90.85 61.85 91.64 60.4 93.03C57.85 95.48 54.68 98.54 50.11 98.54C45.54 98.54 42.22 95.36 39.81 93.03C38.4 91.67 37.48 90.84 36.93 90.61C36.9 90.6 36.87 90.59 36.84 90.58C36.67 90.53 36.43 90.51 36.14 90.51C35.44 90.51 34.39 90.63 32.92 90.83H32.88C29.43 91.3 25.14 91.87 21.56 89.27C17.95 86.64 17.18 82.36 16.56 78.92C16.19 76.85 15.92 75.63 15.59 75.11C15.57 75.08 15.55 75.05 15.53 75.03C15.15 74.59 14.11 73.99 12.29 73.01C9.19 71.35 5.33 69.29 3.93 65C3.62 64.06 3.47 63.05 3.47 62.01C3.47 58.99 4.77 56.27 5.92 53.88L5.95 53.81C6.89 51.84 7.4 50.66 7.42 50.01C7.42 50 7.42 49.99 7.42 49.98C7.4 49.32 6.86 48.07 5.93 46.14C4.77 43.73 3.47 41 3.47 37.98C3.47 36.95 3.63 35.94 3.93 34.98C5.32 30.69 9.18 28.63 12.29 26.97L12.35 26.94C14.09 26.01 15.17 25.38 15.56 24.92C15.58 24.9 15.6 24.87 15.62 24.84C15.94 24.34 16.21 23.08 16.57 21.07C17.19 17.63 17.96 13.35 21.58 10.72C25.17 8.10999 29.45 8.68999 32.9 9.14999C35.02 9.43999 36.29 9.55999 36.9 9.38999C36.93 9.38999 36.97 9.36999 37 9.35999C37.51 9.13999 38.38 8.33999 39.83 6.94999C42.24 4.62999 45.55 1.44999 50.12 1.44999C54.69 1.44999 57.86 4.49999 60.4 6.94999C61.81 8.30999 62.73 9.13999 63.28 9.37999C63.31 9.38999 63.35 9.40999 63.38 9.40999C63.96 9.56999 65.21 9.43999 67.31 9.15999C70.77 8.68999 75.07 8.10999 78.65 10.72C82.26 13.35 83.03 17.62 83.65 21.05L83.67 21.15C83.98 22.85 84.27 24.31 84.63 24.87C84.65 24.9 84.67 24.92 84.69 24.95C85.07 25.4 86.12 26 87.93 26.97C91.04 28.63 94.9 30.7 96.3 34.99C96.61 35.94 96.76 36.94 96.76 37.98C96.76 41.01 95.45 43.73 94.29 46.13L94.25 46.2C93.32 48.15 92.81 49.33 92.79 49.97C92.79 49.98 92.79 49.99 92.79 50C92.81 50.65 93.35 51.9 94.28 53.84C95.43 56.24 96.74 58.96 96.74 61.99C96.74 63.03 96.58 64.03 96.28 64.98V65Z" fill="#4279B6"/>
  <path d="M48.13 41.3001H31.33C30.93 41.3001 30.6 40.9801 30.6 40.5701C30.6 40.1601 30.92 39.8401 31.33 39.8401H48.13C48.53 39.8401 48.86 40.1601 48.86 40.5701C48.86 40.9801 48.54 41.3001 48.13 41.3001Z" fill="#2D557F"/>
  <path d="M58.82 51.1701H31.33C30.93 51.1701 30.6 50.8501 30.6 50.4401C30.6 50.0301 30.92 49.7101 31.33 49.7101H58.82C59.22 49.7101 59.55 50.0301 59.55 50.4401C59.55 50.8501 59.23 51.1701 58.82 51.1701Z" fill="#2D557F"/>
  <path d="M64.93 56.1H31.33C30.93 56.1 30.6 55.78 30.6 55.37C30.6 54.96 30.92 54.64 31.33 54.64H64.92C65.32 54.64 65.65 54.96 65.65 55.37C65.65 55.78 65.33 56.1 64.92 56.1H64.93Z" fill="#2D557F"/>
  <path d="M64.93 61.0401H31.33C30.93 61.0401 30.6 60.7201 30.6 60.3101C30.6 59.9001 30.92 59.5801 31.33 59.5801H64.92C65.32 59.5801 65.65 59.9001 65.65 60.3101C65.65 60.7201 65.33 61.0401 64.92 61.0401H64.93Z" fill="#2D557F"/>
  <path d="M61.72 68.69C61.23 68.69 60.73 68.61 60.27 68.46C59.71 68.27 59.23 67.99 58.75 67.72C58.58 67.62 58.41 67.53 58.24 67.44C57.57 67.08 57.05 66.94 56.61 66.98C56.18 67.02 55.79 67.32 55.75 67.64C55.7 68.04 55.34 68.32 54.94 68.27C54.54 68.22 54.26 67.86 54.31 67.46C54.45 66.32 55.5 65.63 56.47 65.53C57.44 65.43 58.34 65.84 58.93 66.16C59.11 66.26 59.29 66.36 59.47 66.46C59.9 66.71 60.31 66.94 60.73 67.08C61.75 67.42 62.94 67.21 63.77 66.53C64.08 66.28 64.54 66.33 64.79 66.64C65.04 66.95 64.99 67.41 64.68 67.66C63.85 68.33 62.78 68.69 61.71 68.69H61.72Z" fill="#2D557F"/>
  <path d="M48.13 46.24H31.33C30.93 46.24 30.6 45.92 30.6 45.51C30.6 45.1 30.92 44.78 31.33 44.78H48.13C48.53 44.78 48.86 45.1 48.86 45.51C48.86 45.92 48.54 46.24 48.13 46.24Z" fill="#2D557F"/>
  <path d="M70.31 49.41V70.41C70.31 71.18 69.69 71.8 68.92 71.8H27.1C26.33 71.8 25.71 71.18 25.71 70.41V34.94C25.71 34.17 26.33 33.55 27.1 33.55H53.99L53.36 32.1H27.1C25.53 32.1 24.26 33.37 24.26 34.94V70.41C24.26 71.98 25.53 73.25 27.1 73.25H68.92C70.49 73.25 71.76 71.98 71.76 70.41V49.92L70.31 49.41Z" fill="#2D557F"/>
  <path d="M53.84 23.29L54.04 24.12C54.47 25.87 55.83 27.23 57.58 27.66L58.41 27.86L57.58 28.06C55.83 28.49 54.47 29.85 54.04 31.6L53.84 32.43L53.64 31.6C53.42 30.69 52.93 29.89 52.28 29.26C51.81 28.82 51.26 28.47 50.65 28.23C50.47 28.16 50.29 28.1 50.1 28.05L49.27 27.85L50.1 27.65C50.29 27.6 50.47 27.54 50.65 27.47C51.26 27.24 51.82 26.89 52.28 26.44C52.94 25.82 53.42 25.01 53.64 24.1L53.84 23.27M53.84 22.03C53.26 22.03 52.76 22.43 52.62 22.99L52.42 23.82C52.26 24.48 51.91 25.07 51.41 25.55C51.06 25.88 50.65 26.14 50.2 26.31C50.07 26.36 49.94 26.41 49.8 26.44L48.98 26.64C48.42 26.78 48.02 27.28 48.02 27.86C48.02 28.44 48.42 28.94 48.98 29.08L49.81 29.28C49.95 29.31 50.08 29.36 50.21 29.41C50.66 29.58 51.07 29.84 51.42 30.17C51.92 30.65 52.27 31.24 52.43 31.9L52.63 32.73C52.77 33.29 53.27 33.69 53.85 33.69C54.43 33.69 54.93 33.29 55.07 32.73L55.27 31.9C55.59 30.6 56.59 29.6 57.89 29.28L58.72 29.08C59.28 28.94 59.68 28.44 59.68 27.86C59.68 27.28 59.28 26.78 58.72 26.64L57.89 26.44C56.59 26.12 55.59 25.12 55.27 23.82L55.07 22.99C54.93 22.43 54.43 22.03 53.85 22.03H53.84Z" fill="#2D557F"/>
  <path d="M65.65 28.37L66.12 30.29C67.12 34.36 70.3 37.53 74.37 38.54L76.29 39.01L74.37 39.48C70.3 40.48 67.13 43.66 66.12 47.73L65.65 49.65L65.18 47.73C64.18 43.66 61 40.49 56.93 39.48L55.01 39.01L56.93 38.54C61 37.54 64.17 34.36 65.18 30.29L65.65 28.37ZM65.65 27.11C65.07 27.11 64.57 27.51 64.43 28.07L63.96 29.99C63.07 33.61 60.26 36.42 56.63 37.32L54.71 37.79C54.15 37.93 53.75 38.43 53.75 39.01C53.75 39.59 54.15 40.09 54.71 40.23L56.63 40.7C60.25 41.59 63.06 44.4 63.96 48.03L64.43 49.95C64.57 50.51 65.07 50.91 65.65 50.91C66.23 50.91 66.73 50.51 66.87 49.95L67.34 48.03C68.23 44.41 71.04 41.6 74.67 40.7L76.59 40.23C77.15 40.09 77.55 39.59 77.55 39.01C77.55 38.43 77.15 37.93 76.59 37.79L74.67 37.32C71.05 36.43 68.24 33.62 67.34 29.99L66.87 28.07C66.73 27.51 66.23 27.11 65.65 27.11Z" fill="#2D557F"/>
  <path d="M74.8 46.3L74.95 46.92C75.16 47.79 75.69 48.52 76.4 49.02C76.76 49.27 77.16 49.46 77.6 49.57L77.78 49.62L78.21 49.73L77.78 49.84L77.6 49.89C77.16 50 76.76 50.19 76.4 50.44C75.69 50.93 75.17 51.67 74.95 52.54L74.8 53.16L74.65 52.54C74.33 51.23 73.31 50.21 72 49.89L71.38 49.74L72 49.59C73.31 49.27 74.33 48.25 74.65 46.94L74.8 46.32M74.8 45.04C74.22 45.04 73.72 45.44 73.58 46L73.43 46.62C73.22 47.47 72.56 48.14 71.7 48.35L71.08 48.5C70.52 48.64 70.12 49.14 70.12 49.72C70.12 50.3 70.52 50.8 71.08 50.94L71.7 51.09C72.55 51.3 73.22 51.96 73.43 52.82L73.58 53.44C73.72 54 74.22 54.4 74.8 54.4C75.38 54.4 75.88 54 76.02 53.44L76.17 52.82C76.31 52.27 76.64 51.79 77.12 51.45C77.37 51.28 77.63 51.16 77.9 51.09L78.08 51.04L78.51 50.93C79.07 50.79 79.47 50.29 79.47 49.71C79.47 49.13 79.07 48.63 78.51 48.49L78.08 48.38L77.9 48.33C77.63 48.26 77.37 48.14 77.12 47.97C76.65 47.64 76.31 47.15 76.17 46.61L76.02 45.99C75.88 45.43 75.38 45.03 74.8 45.03V45.04Z" fill="#2D557F"/>
</svg>
