<svg xmlns="http://www.w3.org/2000/svg" width="100" height="100" viewBox="0 0 100 100" fill="none">
  <path d="M44.09 58.66V91.16H25.78V55.6H36.4C35.94 55.32 35.47 55.05 35.02 54.74C34.63 54.47 34.25 54.17 33.86 53.88H24.92C24.45 53.88 24.06 54.26 24.06 54.74V92.01C24.06 92.48 24.44 92.87 24.92 92.87H44.95C45.42 92.87 45.81 92.49 45.81 92.01V58.96C45.52 58.92 45.24 58.89 44.95 58.83C44.66 58.78 44.38 58.71 44.09 58.65V58.66Z" fill="#2D557F"/>
  <path d="M71.35 47.8501V50.5401L72.21 51.4001L73.07 52.2601V44.9301C72.8 45.4501 72.51 45.9701 72.21 46.4701C71.93 46.9401 71.66 47.4001 71.35 47.8501Z" fill="#2D557F"/>
  <path d="M71.35 64.4201V91.1601H53.04V59.0601C52.75 59.1001 52.47 59.1401 52.18 59.1701C51.9 59.2001 51.61 59.1901 51.32 59.2101V92.0201C51.32 92.4901 51.7 92.8801 52.18 92.8801H72.21C72.68 92.8801 73.07 92.5001 73.07 92.0201V66.1401L72.21 65.2801L71.35 64.4201Z" fill="#2D557F"/>
  <path d="M99.14 27.19H79.44C78.97 27.19 78.58 27.57 78.58 28.05V54.05L79.44 54.91L80.3 55.77V28.91H98.28V74.77C98.66 75.99 98.66 77.29 98.28 78.51V91.16H80.3V73.37L79.44 72.51L78.58 71.65V92.02C78.58 92.49 78.96 92.88 79.44 92.88H99.14C99.61 92.88 100 92.5 100 92.02V28.05C100 27.58 99.62 27.19 99.14 27.19Z" fill="#2D557F"/>
  <path d="M25.4 42.68C25.3 42.41 25.21 42.14 25.11 41.87C25.01 41.6 24.91 41.33 24.82 41.06L13.12 44.56C12.05 42.16 9.65 40.47 6.86 40.47C3.08 40.47 0 43.55 0 47.33C0 51.11 3.08 54.19 6.86 54.19C10.64 54.19 13.72 51.11 13.72 47.33C13.72 46.95 13.67 46.57 13.61 46.21L25.4 42.68ZM12 47.34C12 50.18 9.69 52.48 6.86 52.48C4.03 52.48 1.72 50.17 1.72 47.34C1.72 44.51 4.03 42.2 6.86 42.2C8.88 42.2 10.61 43.38 11.45 45.07C11.58 45.33 11.68 45.59 11.76 45.87C11.84 46.14 11.9 46.42 11.94 46.71C11.97 46.92 12 47.12 12 47.33V47.34Z" fill="#2D557F"/>
  <path d="M70.78 17.67C70.97 17.92 71.17 18.17 71.35 18.43L81.1 16.53C82 19.26 84.55 21.25 87.58 21.25C91.36 21.25 94.44 18.17 94.44 14.39C94.44 10.61 91.36 7.53003 87.58 7.53003C83.8 7.53003 80.72 10.61 80.72 14.39C80.72 14.55 80.76 14.69 80.77 14.84L70.22 16.9C70.42 17.15 70.6 17.41 70.79 17.66L70.78 17.67ZM82.44 14.4C82.44 11.56 84.75 9.26003 87.58 9.26003C90.41 9.26003 92.72 11.57 92.72 14.4C92.72 17.23 90.41 19.54 87.58 19.54C85.38 19.54 83.52 18.15 82.78 16.21C82.68 15.94 82.59 15.67 82.53 15.38C82.48 15.1 82.45 14.81 82.44 14.52C82.44 14.48 82.43 14.44 82.43 14.39L82.44 14.4Z" fill="#2D557F"/>
  <path d="M36.57 30.52C38.4 30.52 40.05 31.25 41.27 32.44C41.48 32.64 41.65 32.86 41.83 33.09C42.01 33.31 42.18 33.54 42.33 33.79C42.96 34.82 43.34 36.01 43.34 37.3C43.34 41.04 40.3 44.08 36.56 44.08C35.27 44.08 34.08 43.7 33.06 43.08C33.34 43.55 33.64 44.01 33.96 44.46C34.25 44.86 34.54 45.25 34.86 45.63C35.41 45.74 35.98 45.8 36.56 45.8C41.24 45.8 45.05 41.99 45.05 37.31C45.05 35.6 44.53 34.01 43.65 32.67L49.74 27.51C51.22 28.98 53.25 29.88 55.49 29.88C59.99 29.88 63.66 26.22 63.66 21.71C63.66 21.11 63.59 20.54 63.47 19.98L63.9 19.9C63.75 19.74 63.62 19.58 63.47 19.42C63.39 19.34 63.31 19.28 63.23 19.2C63.21 19.19 63.2 19.17 63.18 19.16C62.92 18.91 62.65 18.67 62.38 18.44C62.15 18.24 61.92 18.04 61.68 17.86C59.63 16.26 57.34 15.12 54.94 14.46C54.26 14.27 53.57 14.13 52.88 14.01C49.66 15.11 47.33 18.13 47.33 21.71C47.33 23.36 47.83 24.89 48.67 26.17L42.59 31.32C41.05 29.77 38.92 28.81 36.57 28.81C34.22 28.81 31.95 29.85 30.4 31.5C30.36 31.97 30.34 32.44 30.33 32.92C30.33 33.46 30.35 34.01 30.39 34.55C31.45 32.18 33.81 30.53 36.57 30.53V30.52ZM55.5 15.25C57.96 15.25 60.07 16.65 61.16 18.67C61.3 18.93 61.43 19.19 61.53 19.47C61.63 19.74 61.72 20.01 61.79 20.29C61.89 20.74 61.95 21.21 61.95 21.7C61.95 25.26 59.06 28.15 55.5 28.15C53.79 28.15 52.23 27.47 51.08 26.37C50.87 26.17 50.69 25.95 50.51 25.73C50.33 25.51 50.16 25.28 50.01 25.03C49.42 24.05 49.05 22.92 49.05 21.7C49.05 18.14 51.94 15.25 55.5 15.25Z" fill="#2D557F"/>
  <path d="M68.36 38.6701C68.44 38.3901 68.5 38.1001 68.57 37.8101H49.06C48.59 37.8101 48.2 38.1901 48.2 38.6701V52.4901C48.49 52.5101 48.77 52.5201 49.06 52.5301C49.35 52.5301 49.63 52.5601 49.92 52.5501V39.5301H68.07C68.17 39.2401 68.28 38.9601 68.37 38.6701H68.36Z" fill="#2D557F"/>
  <path d="M98.28 74.77C97.99 73.85 97.51 72.98 96.78 72.25L80.3 55.77L79.44 54.91L78.58 54.05L78.24 53.71C77.72 53.19 77.01 52.9 76.28 52.9C75.59 52.9 74.93 53.15 74.42 53.62L73.07 52.27L72.21 51.41L71.35 50.55L70.2 49.4C70.6 48.9 70.99 48.38 71.35 47.86C71.66 47.41 71.93 46.94 72.21 46.48C72.51 45.97 72.8 45.46 73.07 44.94C74.9 41.33 75.89 37.32 75.89 33.16C75.89 27.83 74.3 22.75 71.35 18.45C71.17 18.19 70.97 17.94 70.78 17.69C70.59 17.44 70.41 17.18 70.21 16.93C69.59 16.15 68.94 15.39 68.22 14.68C63.29 9.72 56.72 7 49.74 7C42.76 7 36.19 9.72 31.25 14.66C26.31 19.6 23.59 26.17 23.59 33.15C23.59 35.88 24.02 38.54 24.82 41.07C24.91 41.34 25.01 41.61 25.11 41.88C25.21 42.15 25.3 42.42 25.4 42.69C26.7 46 28.66 49.05 31.25 51.64C32.07 52.46 32.96 53.2 33.86 53.9C34.24 54.19 34.62 54.49 35.02 54.76C35.47 55.07 35.93 55.34 36.4 55.62C38.79 57.04 41.37 58.08 44.09 58.68C44.38 58.74 44.66 58.81 44.95 58.86C45.23 58.91 45.52 58.94 45.81 58.99C47.1 59.18 48.41 59.31 49.74 59.31C50.27 59.31 50.8 59.26 51.33 59.23C51.62 59.21 51.9 59.21 52.19 59.19C52.48 59.16 52.76 59.11 53.05 59.08C57.39 58.54 61.48 56.92 65.01 54.36L69.35 58.7C68.89 59.21 68.63 59.87 68.63 60.56C68.63 61.3 68.91 62 69.44 62.53L71.35 64.44L72.21 65.3L73.07 66.16L78.59 71.68L79.45 72.54L80.31 73.4L87.99 81.08C89.16 82.25 90.73 82.9 92.39 82.9C94.05 82.9 95.61 82.25 96.79 81.08C97.52 80.35 98.01 79.47 98.3 78.55C98.68 77.33 98.68 76.03 98.3 74.81L98.28 74.77ZM92.37 81.15C91.17 81.15 90.04 80.68 89.19 79.83L80.3 70.94L79.44 70.08L78.58 69.22L73.06 63.7L72.2 62.84L71.34 61.98L70.64 61.28C70.44 61.08 70.33 60.82 70.33 60.53C70.33 60.25 70.44 59.99 70.64 59.79L71.16 59.27C71.24 59.19 71.3 59.09 71.35 58.99C71.44 58.78 71.44 58.55 71.35 58.34C71.31 58.24 71.25 58.14 71.16 58.06L66.38 53.28C67.01 52.75 67.63 52.2 68.22 51.61C68.52 51.31 68.79 50.98 69.07 50.67L71.34 52.94L72.2 53.8L73.06 54.66L73.8 55.4C74.13 55.73 74.68 55.73 75.01 55.4L75.52 54.89C75.72 54.69 75.98 54.58 76.26 54.58C76.54 54.58 76.81 54.69 77.01 54.89L78.57 56.45L79.43 57.31L80.29 58.17L95.56 73.43C97.32 75.19 97.31 78.05 95.56 79.8C94.71 80.65 93.58 81.12 92.37 81.12V81.15ZM38.32 54.75C37.83 54.49 37.35 54.19 36.87 53.89C35.3 52.91 33.81 51.76 32.46 50.42C30.07 48.03 28.25 45.24 27.04 42.19C26.93 41.92 26.85 41.65 26.75 41.38C26.65 41.11 26.55 40.84 26.46 40.57C25.71 38.2 25.3 35.7 25.3 33.14C25.3 26.62 27.84 20.48 32.46 15.87C37.07 11.26 43.21 8.72 49.73 8.72C56.25 8.72 62.39 11.26 67 15.87C67.45 16.32 67.87 16.8 68.28 17.28C68.49 17.53 68.7 17.78 68.9 18.03C69.1 18.28 69.28 18.54 69.47 18.79C72.5 22.94 74.16 27.9 74.15 33.14C74.15 35.7 73.75 38.19 72.99 40.56C72.76 41.3 72.49 42.02 72.19 42.73C71.93 43.34 71.65 43.95 71.33 44.54C70.49 46.12 69.47 47.6 68.29 48.99C67.87 49.48 67.45 49.96 66.99 50.42C66.26 51.15 65.48 51.81 64.67 52.44C61.27 55.09 57.28 56.76 53.02 57.33C52.73 57.37 52.45 57.43 52.16 57.46C51.88 57.49 51.59 57.49 51.3 57.5C50.77 57.53 50.25 57.58 49.71 57.58C48.38 57.58 47.07 57.45 45.78 57.24C45.49 57.19 45.2 57.17 44.92 57.11C44.63 57.05 44.35 56.96 44.06 56.9C42.7 56.58 41.38 56.16 40.1 55.61C39.49 55.35 38.88 55.07 38.29 54.75H38.32Z" fill="#4279B6"/>
  <path d="M49.05 54.24C49.28 54.24 49.51 54.27 49.74 54.27C50.27 54.27 50.8 54.23 51.33 54.19C51.52 54.18 51.72 54.17 51.91 54.15C52 54.15 52.1 54.12 52.19 54.11C52.48 54.08 52.76 54.03 53.05 53.99C57.32 53.32 61.42 51.37 64.7 48.09C66.6 46.19 68.04 44.01 69.06 41.7C69.19 41.41 69.32 41.13 69.43 40.84C69.54 40.56 69.63 40.27 69.73 39.98C69.78 39.83 69.84 39.68 69.89 39.52C69.98 39.23 70.06 38.95 70.14 38.66C70.22 38.37 70.28 38.09 70.35 37.8C71.77 31.5 70.28 24.69 65.89 19.5C65.68 19.25 65.45 19 65.22 18.76C65.05 18.57 64.89 18.38 64.71 18.2C64.65 18.14 64.58 18.09 64.52 18.03C56.26 9.97 43 10.02 34.82 18.2C30.41 22.61 28.39 28.49 28.69 34.27C28.74 35.18 28.83 36.09 28.99 36.99C29.15 37.88 29.38 38.76 29.66 39.63C29.75 39.9 29.84 40.17 29.94 40.44C30.04 40.71 30.13 40.98 30.24 41.25C30.34 41.48 30.45 41.71 30.56 41.94C30.94 42.77 31.36 43.57 31.85 44.35C32.68 45.68 33.66 46.95 34.81 48.1C38.54 51.83 43.33 53.85 48.21 54.21C48.5 54.23 48.78 54.24 49.07 54.25L49.05 54.24ZM33.97 44.45C33.65 44 33.35 43.54 33.07 43.07C32.62 42.31 32.22 41.54 31.88 40.74C31.77 40.47 31.67 40.21 31.57 39.94C31.47 39.67 31.37 39.4 31.29 39.13C30.81 37.64 30.51 36.1 30.4 34.54C30.36 34 30.34 33.45 30.34 32.91C30.34 32.44 30.37 31.96 30.41 31.49C30.78 27.08 32.64 22.77 36.01 19.41C39.8 15.62 44.77 13.73 49.74 13.73C50.79 13.73 51.85 13.83 52.89 14C53.58 14.11 54.27 14.26 54.95 14.45C57.35 15.11 59.64 16.25 61.69 17.85C61.93 18.04 62.16 18.23 62.39 18.43C62.66 18.66 62.93 18.9 63.19 19.15C63.21 19.16 63.22 19.18 63.24 19.19C63.32 19.27 63.4 19.33 63.48 19.41C63.63 19.56 63.76 19.73 63.91 19.89C68.54 24.84 70.09 31.62 68.57 37.81C68.5 38.1 68.44 38.39 68.36 38.67C68.27 38.96 68.16 39.24 68.06 39.53C68.01 39.68 67.96 39.84 67.9 39.99C67.79 40.28 67.68 40.56 67.56 40.85C67.44 41.14 67.3 41.42 67.16 41.71C66.24 43.58 65.03 45.34 63.48 46.89C60.54 49.83 56.87 51.62 53.05 52.27C52.76 52.32 52.48 52.36 52.19 52.39C51.9 52.43 51.62 52.46 51.33 52.49C50.86 52.53 50.39 52.55 49.92 52.56C49.63 52.56 49.35 52.55 49.06 52.54C48.77 52.54 48.49 52.52 48.2 52.5C43.75 52.15 39.4 50.29 36.01 46.89C35.61 46.49 35.23 46.06 34.87 45.63C34.55 45.25 34.26 44.86 33.97 44.46V44.45Z" fill="#4279B6"/>
</svg>
