<svg xmlns="http://www.w3.org/2000/svg" width="100" height="100" viewBox="0 0 100 100" fill="none">
  <path d="M44.95 54.75H24.92V92.02H44.95V54.75Z" fill="#FC8B27"/>
  <path d="M44.95 92.88H24.92C24.45 92.88 24.06 92.5 24.06 92.02V54.75C24.06 54.28 24.44 53.89 24.92 53.89H44.95C45.42 53.89 45.81 54.27 45.81 54.75V92.02C45.81 92.49 45.43 92.88 44.95 92.88ZM25.78 91.16H44.09V55.6H25.78V91.16Z" fill="#0E1721"/>
  <path d="M72.21 40.84H52.18V92.02H72.21V40.84Z" fill="#FCCD2A"/>
  <path d="M72.21 92.88H52.18C51.71 92.88 51.32 92.5 51.32 92.02V40.84C51.32 40.37 51.7 39.98 52.18 39.98H72.21C72.68 39.98 73.07 40.36 73.07 40.84V92.02C73.07 92.49 72.69 92.88 72.21 92.88ZM53.04 91.16H71.35V41.7H53.04V91.16Z" fill="#0E1721"/>
  <path d="M99.14 28.05H79.44V92.03H99.14V28.05Z" fill="#3C8645"/>
  <path d="M99.14 92.88H79.44C78.97 92.88 78.58 92.5 78.58 92.02V28.05C78.58 27.58 78.96 27.19 79.44 27.19H99.14C99.61 27.19 100 27.57 100 28.05V92.03C100 92.5 99.62 92.89 99.14 92.89V92.88ZM80.3 91.16H98.28V28.9H80.3V91.16Z" fill="#0E1721"/>
  <path d="M6.86 48.2C6.49 48.2 6.15 47.96 6.04 47.59C5.9 47.14 6.16 46.66 6.62 46.52L34.7 38.11C35.15 37.97 35.63 38.23 35.77 38.69C35.91 39.14 35.65 39.62 35.19 39.76L7.11 48.17C7.03 48.19 6.94 48.21 6.86 48.21V48.2Z" fill="#0E1721"/>
  <path d="M34.94 39.79C34.7 39.79 34.45 39.69 34.28 39.49C33.97 39.13 34.02 38.59 34.38 38.28L56.25 19.74C56.61 19.43 57.15 19.48 57.46 19.84C57.77 20.2 57.72 20.74 57.36 21.05L35.49 39.59C35.33 39.73 35.13 39.79 34.94 39.79Z" fill="#0E1721"/>
  <path d="M56.81 21.25C56.41 21.25 56.05 20.97 55.97 20.56C55.88 20.09 56.18 19.64 56.65 19.55L87.42 13.55C87.88 13.46 88.34 13.76 88.43 14.23C88.52 14.7 88.22 15.15 87.75 15.24L56.98 21.24C56.92 21.25 56.87 21.26 56.81 21.26V21.25Z" fill="#0E1721"/>
  <path d="M6.86 53.34C10.1737 53.34 12.86 50.6537 12.86 47.34C12.86 44.0263 10.1737 41.34 6.86 41.34C3.54629 41.34 0.860001 44.0263 0.860001 47.34C0.860001 50.6537 3.54629 53.34 6.86 53.34Z" fill="white"/>
  <path d="M6.86 54.2C3.08 54.2 0 51.12 0 47.34C0 43.56 3.08 40.48 6.86 40.48C10.64 40.48 13.72 43.56 13.72 47.34C13.72 51.12 10.64 54.2 6.86 54.2ZM6.86 42.2C4.02 42.2 1.72 44.51 1.72 47.34C1.72 50.17 4.03 52.48 6.86 52.48C9.69 52.48 12 50.17 12 47.34C12 44.51 9.69 42.2 6.86 42.2Z" fill="#0E1721"/>
  <path d="M55.5 29.02C59.5372 29.02 62.81 25.7472 62.81 21.71C62.81 17.6728 59.5372 14.4 55.5 14.4C51.4628 14.4 48.19 17.6728 48.19 21.71C48.19 25.7472 51.4628 29.02 55.5 29.02Z" fill="white"/>
  <path d="M55.5 29.87C51 29.87 47.33 26.21 47.33 21.7C47.33 17.19 50.99 13.53 55.5 13.53C60.01 13.53 63.67 17.19 63.67 21.7C63.67 26.21 60.01 29.87 55.5 29.87ZM55.5 15.25C51.94 15.25 49.05 18.14 49.05 21.7C49.05 25.26 51.94 28.15 55.5 28.15C59.06 28.15 61.95 25.26 61.95 21.7C61.95 18.14 59.06 15.25 55.5 15.25Z" fill="#0E1721"/>
  <path d="M36.57 44.93C40.7839 44.93 44.2 41.5139 44.2 37.3C44.2 33.086 40.7839 29.67 36.57 29.67C32.3561 29.67 28.94 33.086 28.94 37.3C28.94 41.5139 32.3561 44.93 36.57 44.93Z" fill="white"/>
  <path d="M36.57 45.79C31.89 45.79 28.08 41.98 28.08 37.3C28.08 32.62 31.89 28.81 36.57 28.81C41.25 28.81 45.06 32.62 45.06 37.3C45.06 41.98 41.25 45.79 36.57 45.79ZM36.57 30.52C32.83 30.52 29.79 33.56 29.79 37.3C29.79 41.04 32.83 44.08 36.57 44.08C40.31 44.08 43.35 41.04 43.35 37.3C43.35 33.56 40.31 30.52 36.57 30.52Z" fill="#0E1721"/>
  <path d="M87.58 20.39C90.8937 20.39 93.58 17.7037 93.58 14.39C93.58 11.0763 90.8937 8.39001 87.58 8.39001C84.2663 8.39001 81.58 11.0763 81.58 14.39C81.58 17.7037 84.2663 20.39 87.58 20.39Z" fill="white"/>
  <path d="M87.58 21.25C83.8 21.25 80.72 18.17 80.72 14.39C80.72 10.61 83.8 7.53003 87.58 7.53003C91.36 7.53003 94.44 10.61 94.44 14.39C94.44 18.17 91.36 21.25 87.58 21.25ZM87.58 9.25003C84.74 9.25003 82.44 11.56 82.44 14.39C82.44 17.22 84.75 19.53 87.58 19.53C90.41 19.53 92.72 17.22 92.72 14.39C92.72 11.56 90.41 9.25003 87.58 9.25003Z" fill="#0E1721"/>
  <path d="M72.21 38.67H49.05V54.75C49.05 54.75 63.48 58.44 72.21 38.67Z" fill="#FCCD2A"/>
  <path d="M51.84 55.88C50.05 55.88 48.92 55.6 48.84 55.58C48.46 55.48 48.19 55.14 48.19 54.75V38.67C48.19 38.2 48.57 37.81 49.05 37.81H72.21C72.5 37.81 72.77 37.96 72.93 38.2C73.09 38.44 73.11 38.75 73 39.02C70.44 44.82 65.7 52.28 57.63 54.94C55.38 55.68 53.37 55.88 51.85 55.88H51.84ZM49.91 54.03C51.11 54.2 53.88 54.38 57.18 53.27C62.74 51.4 67.45 46.66 70.87 39.52H49.91V54.03Z" fill="#0E1721"/>
  <path d="M65.11 53.23L70.56 58.68L70.04 59.2C69.7 59.54 69.48 60.02 69.48 60.55C69.48 61.08 69.7 61.56 70.04 61.91L88.58 80.45C90.67 82.54 94.07 82.54 96.17 80.45C98.27 78.35 98.27 74.95 96.17 72.86L77.63 54.32C77.29 53.98 76.8 53.76 76.28 53.76C75.75 53.76 75.27 53.98 74.93 54.32L74.42 54.83L69.06 49.47L65.11 53.24V53.23Z" fill="#4279B6"/>
  <path d="M92.37 82.87C90.71 82.87 89.15 82.22 87.97 81.05L69.43 62.51C68.9 61.98 68.61 61.28 68.62 60.54C68.62 59.85 68.87 59.19 69.34 58.68L64.49 53.83C64.33 53.67 64.24 53.44 64.24 53.21C64.24 52.98 64.34 52.76 64.51 52.6L68.46 48.83C68.8 48.51 69.33 48.51 69.66 48.84L74.42 53.6C74.93 53.14 75.58 52.88 76.28 52.88C77.01 52.88 77.72 53.18 78.24 53.69L96.78 72.23C99.2 74.66 99.2 78.6 96.78 81.03C95.6 82.21 94.04 82.85 92.38 82.85L92.37 82.87ZM66.33 53.24L71.16 58.07C71.5 58.41 71.5 58.95 71.16 59.28L70.64 59.8C70.44 60 70.33 60.26 70.33 60.54C70.33 60.82 70.44 61.09 70.64 61.29L89.18 79.83C90.03 80.68 91.16 81.15 92.36 81.15C93.56 81.15 94.7 80.68 95.55 79.83C97.31 78.07 97.31 75.21 95.55 73.46L77.01 54.92C76.81 54.72 76.54 54.61 76.26 54.61C75.98 54.61 75.72 54.72 75.52 54.92L75.01 55.43C74.68 55.77 74.13 55.77 73.8 55.43L69.03 50.66L66.32 53.24H66.33Z" fill="#0E1721"/>
  <path d="M67.62 15.26C57.74 5.38001 41.73 5.39001 31.86 15.26C21.98 25.14 21.98 41.15 31.86 51.02C41.74 60.9 57.74 60.9 67.62 51.02C77.49 41.15 77.5 25.14 67.62 15.26ZM64.08 47.49C56.16 55.41 43.32 55.41 35.4 47.49C27.48 39.57 27.48 26.73 35.4 18.81C43.32 10.89 56.16 10.89 64.08 18.81C72 26.73 72 39.57 64.08 47.49Z" fill="#4279B6"/>
  <path d="M49.74 59.29C42.76 59.29 36.19 56.57 31.25 51.63C26.31 46.69 23.59 40.13 23.59 33.14C23.59 26.16 26.31 19.59 31.25 14.65C36.19 9.72 42.75 7 49.74 7C56.72 7 63.29 9.72 68.23 14.66C73.17 19.6 75.89 26.17 75.89 33.15C75.89 40.13 73.17 46.7 68.23 51.64C63.29 56.58 56.72 59.3 49.74 59.3V59.29ZM49.74 8.72C43.21 8.72 37.08 11.26 32.47 15.87C27.86 20.48 25.31 26.62 25.31 33.14C25.31 39.66 27.85 45.8 32.47 50.41C37.09 55.03 43.22 57.57 49.74 57.57C56.26 57.57 62.4 55.03 67.01 50.41C71.62 45.8 74.16 39.66 74.16 33.14C74.16 26.61 71.62 20.48 67 15.86C62.39 11.25 56.25 8.71 49.73 8.71L49.74 8.72ZM49.74 54.27C44.33 54.27 38.91 52.21 34.79 48.09C26.55 39.85 26.55 26.44 34.79 18.19C43.03 9.95 56.44 9.95 64.69 18.19C72.93 26.43 72.93 39.84 64.69 48.09C60.57 52.21 55.16 54.27 49.74 54.27ZM49.74 13.73C44.77 13.73 39.79 15.62 36.01 19.41C28.44 26.98 28.44 39.31 36.01 46.88C43.58 54.45 55.91 54.45 63.48 46.88C71.05 39.31 71.05 26.98 63.48 19.41C59.69 15.62 54.72 13.73 49.75 13.73H49.74Z" fill="#0E1721"/>
</svg>
