<svg xmlns="http://www.w3.org/2000/svg" width="100" height="100" viewBox="0 0 100 100" fill="none">
  <path d="M57.59 25.57C60.93 22.23 66.33 22.24 69.67 25.57C73.01 28.91 73 34.31 69.67 37.65" fill="#4279B6"/>
  <path d="M69.67 38.54C69.44 38.54 69.21 38.45 69.04 38.28C68.69 37.93 68.69 37.37 69.04 37.02C72.02 34.04 72.02 29.19 69.04 26.2C66.06 23.22 61.21 23.22 58.22 26.2C57.87 26.55 57.31 26.55 56.96 26.2C56.61 25.85 56.61 25.29 56.96 24.94C60.64 21.26 66.62 21.26 70.3 24.94C73.98 28.62 73.98 34.6 70.3 38.28C70.13 38.45 69.9 38.54 69.67 38.54Z" fill="#0E1721"/>
  <path d="M23.19 85.74L17.13 89.53L5.89001 78.28L9.49001 72.04L23.19 85.74Z" fill="#FCCD2A"/>
  <path d="M17.13 90.42C16.9 90.42 16.67 90.33 16.5 90.16L5.26004 78.92C4.97004 78.63 4.92004 78.19 5.12004 77.84L8.71004 71.59C8.85004 71.35 9.09004 71.19 9.37004 71.15C9.65004 71.11 9.92004 71.21 10.12 71.4L23.82 85.11C24.01 85.3 24.11 85.57 24.08 85.84C24.05 86.11 23.9 86.35 23.67 86.5L17.61 90.29C17.46 90.38 17.3 90.43 17.14 90.43L17.13 90.42ZM7.01004 78.14L17.26 88.4L21.76 85.59L9.67004 73.5L7.00004 78.14H7.01004Z" fill="#0E1721"/>
  <path d="M84.6101 56.3501L78.2801 58.0301C73.4201 51.0701 67.1801 43.2501 59.2401 35.3601C51.4701 27.6301 43.8001 21.5401 36.9701 16.7901C37.5001 14.9101 38.1201 12.8801 38.8901 10.6201C46.3201 15.9401 54.7001 22.7301 63.2701 31.2601C72.1401 40.0801 79.1501 48.7301 84.6101 56.3501Z" fill="#FCCD2A"/>
  <path d="M78.28 58.92C77.99 58.92 77.72 58.78 77.55 58.54C71.92 50.48 65.55 42.89 58.61 35.99C51.8 29.21 44.34 23 36.46 17.52C36.15 17.3 36.01 16.91 36.11 16.54C36.72 14.38 37.36 12.35 38.05 10.33C38.14 10.06 38.35 9.85003 38.62 9.77003C38.89 9.68003 39.18 9.73003 39.41 9.89003C48.09 16.11 56.33 23.09 63.9 30.63C71.71 38.39 78.92 46.87 85.34 55.83C85.51 56.07 85.55 56.38 85.45 56.65C85.35 56.93 85.12 57.14 84.84 57.21L78.51 58.89C78.43 58.91 78.36 58.92 78.28 58.92ZM38 16.41C45.78 21.86 53.13 28.02 59.87 34.72C66.74 41.55 73.06 49.04 78.66 57L83.13 55.81C76.96 47.32 70.07 39.27 62.64 31.88C55.42 24.69 47.59 18.02 39.35 12.04C38.88 13.46 38.43 14.91 38 16.41Z" fill="#0E1721"/>
  <path d="M27.2407 47.9546L6.32446 68.8708L26.3568 88.9031L47.273 67.9869L27.2407 47.9546Z" fill="#4279B6"/>
  <path d="M26.3601 89.8C26.1201 89.8 25.9001 89.71 25.7301 89.54L5.69005 69.5C5.52005 69.33 5.43005 69.11 5.43005 68.87C5.43005 68.63 5.52005 68.41 5.69005 68.24L26.6001 47.33C26.9501 46.98 27.5101 46.98 27.8601 47.33L47.9001 67.36C48.0701 67.53 48.1601 67.75 48.1601 67.99C48.1601 68.23 48.0701 68.45 47.9001 68.62L26.9901 89.53C26.8201 89.7 26.6001 89.79 26.3601 89.79V89.8ZM7.59005 68.87L26.3601 87.64L46.0101 67.99L27.2401 49.22L7.59005 68.87Z" fill="#0E1721"/>
  <path d="M78.28 58.03L52.17 64.95C50.33 65.57 48.65 66.62 47.27 68L27.23 47.96C28.61 46.58 29.65 44.9 30.28 43.06C34.04 32.02 34.32 26.37 36.82 17.29C36.87 17.12 36.92 16.95 36.96 16.78C43.8 21.53 51.46 27.63 59.23 35.35C67.17 43.25 73.41 51.06 78.27 58.02L78.28 58.03Z" fill="#4279B6"/>
  <path d="M47.27 68.88C47.04 68.88 46.81 68.79 46.64 68.62L26.6 48.59C26.43 48.42 26.34 48.2 26.34 47.96C26.34 47.72 26.43 47.5 26.6 47.33C27.88 46.05 28.86 44.48 29.44 42.77C31.72 36.08 32.73 31.29 33.71 26.66C34.34 23.69 34.99 20.61 35.96 17.05C36.01 16.88 36.05 16.72 36.09 16.56C36.16 16.28 36.37 16.04 36.64 15.94C36.91 15.84 37.22 15.88 37.46 16.04C45.43 21.58 52.96 27.86 59.85 34.72C66.86 41.7 73.31 49.37 79 57.51C79.17 57.75 79.21 58.05 79.11 58.33C79.01 58.6 78.78 58.81 78.5 58.89L52.42 65.8C50.73 66.38 49.16 67.35 47.89 68.62C47.72 68.79 47.49 68.88 47.26 68.88H47.27ZM28.48 47.94L47.29 66.75C48.63 65.58 50.2 64.67 51.88 64.1C51.9 64.1 51.92 64.09 51.94 64.08L76.81 57.49C71.36 49.82 65.24 42.59 58.61 35.99C52.1 29.51 45 23.54 37.49 18.24C36.63 21.44 36.04 24.27 35.46 27.02C34.47 31.7 33.45 36.54 31.14 43.34C30.57 45.02 29.65 46.59 28.48 47.93V47.94Z" fill="#0E1721"/>
  <path d="M38.64 76.54L45.22 87.42C46.74 89.94 46.35 93.17 44.27 95.26L40.42 99.11L28.25 86.93L38.64 76.54Z" fill="#FC8B27"/>
  <path d="M40.42 100C40.18 100 39.96 99.91 39.79 99.74L27.62 87.56C27.27 87.21 27.27 86.65 27.62 86.3L38.01 75.91C38.2 75.72 38.48 75.62 38.75 75.65C39.02 75.68 39.26 75.84 39.41 76.07L45.99 86.95C47.73 89.83 47.29 93.5 44.91 95.88L41.06 99.73C40.89 99.9 40.67 99.99 40.43 99.99L40.42 100ZM29.51 86.93L40.42 97.85L43.64 94.63C45.44 92.83 45.77 90.06 44.46 87.89L38.47 77.98L29.52 86.93H29.51Z" fill="#0E1721"/>
  <path d="M12.67 69.74C12.44 69.74 12.21 69.65 12.04 69.48C11.69 69.13 11.69 68.57 12.04 68.22L26.58 53.68C26.93 53.33 27.49 53.33 27.84 53.68C28.19 54.03 28.19 54.59 27.84 54.94L13.3 69.48C13.13 69.65 12.9 69.74 12.67 69.74Z" fill="#0E1721"/>
  <path d="M34.17 47.82C34.07 47.82 33.98 47.8 33.88 47.77C33.41 47.61 33.16 47.1 33.32 46.64C35.6 39.94 36.61 35.15 37.59 30.52C37.98 28.69 38.38 26.8 38.85 24.82C38.96 24.34 39.45 24.04 39.93 24.16C40.41 24.27 40.71 24.76 40.59 25.24C40.12 27.2 39.73 29.08 39.34 30.9C38.35 35.58 37.33 40.43 35.01 47.22C34.88 47.59 34.54 47.83 34.16 47.83L34.17 47.82Z" fill="#0E1721"/>
  <path d="M83.55 38.7C83.07 38.7 82.67 38.31 82.66 37.83C82.53 32.17 79.46 25.8 74.45 20.79C69.22 15.56 62.63 12.5 56.8 12.57C56.29 12.58 55.9 12.18 55.89 11.69C55.89 11.2 56.28 10.79 56.77 10.78C63.08 10.69 70.15 13.96 75.71 19.52C81.03 24.84 84.3 31.67 84.44 37.78C84.45 38.27 84.06 38.68 83.57 38.69C83.57 38.69 83.56 38.69 83.55 38.69V38.7Z" fill="#0E1721"/>
  <path d="M94.25 38.7C93.82 38.7 93.44 38.38 93.37 37.94C92.13 29.9 87.5 21.38 80.68 14.55C73.66 7.53001 64.91 2.87001 56.67 1.77001C56.18 1.70001 55.84 1.26001 55.9 0.770008C55.96 0.280008 56.42 -0.0699919 56.9 8.0578e-06C65.51 1.15001 74.64 5.99001 81.93 13.29C89.12 20.48 93.8 29.14 95.12 37.67C95.2001 38.16 94.8601 38.61 94.37 38.69C94.32 38.69 94.28 38.7 94.23 38.7H94.25Z" fill="#0E1721"/>
</svg>
