<svg xmlns="http://www.w3.org/2000/svg" width="100" height="100" viewBox="0 0 100 100" fill="none">
  <path d="M1.6 5.71C1.6 3.45 3.45 1.6 5.71 1.6H77.72C79.99 1.6 81.83 3.44 81.83 5.71V36H83.43V5.71C83.43 2.56 80.87 0 77.72 0H5.71C2.56 0 0 2.56 0 5.71V54.81C0 57.96 2.56 60.52 5.71 60.52H34.14L31.27 72.01H25.35C24.91 72.01 24.55 72.37 24.55 72.81C24.55 73.25 24.91 73.61 25.35 73.61H58.08C58.52 73.61 58.88 73.25 58.88 72.81C58.88 72.37 58.52 72.01 58.08 72.01H52.16L49.29 60.52H65.67V58.92H5.71C3.44 58.92 1.6 57.08 1.6 54.81V50.7H65.66V49.1H1.6V5.71ZM32.92 72.01L35.79 60.52H47.63L50.5 72.01H32.92Z" fill="#4279B6"/>
  <path d="M6.6 6.44996C6.6 6.44996 6.64 6.42996 6.68 6.42996H76.76C76.76 6.42996 76.82 6.43996 76.84 6.44996V36H78.44V6.41996C78.44 5.53996 77.69 4.82996 76.76 4.82996H6.68C5.75 4.82996 5 5.53996 5 6.41996V45.07C5 45.51 5.36 45.87 5.8 45.87H65.67V44.27H6.6V6.44996Z" fill="#4279B6"/>
  <path d="M82.6299 42.55H81.1999C80.7599 42.55 80.3999 42.91 80.3999 43.35C80.3999 43.79 80.7599 44.1501 81.1999 44.1501H84.4699C84.9099 44.1501 85.2699 43.79 85.2699 43.35C85.2699 42.91 84.9099 42.55 84.4699 42.55H82.6299Z" fill="#4279B6"/>
  <path d="M82.83 58.3199C82.59 58.3199 82.36 58.3699 82.13 58.3899C81.72 58.4199 81.3 58.4299 80.91 58.5099C79.85 58.7299 78.87 59.1499 77.97 59.6899C77.56 59.9399 77.17 60.2099 76.8 60.5199C74.65 62.2799 73.25 64.9199 73.25 67.8999C73.25 73.1899 77.55 77.4799 82.83 77.4799C88.11 77.4799 92.41 73.1799 92.41 67.8999C92.41 62.6199 88.11 58.3199 82.83 58.3199ZM82.83 75.8799C78.43 75.8799 74.85 72.2999 74.85 67.8999C74.85 63.4999 78.43 59.9199 82.83 59.9199C87.23 59.9199 90.81 63.4999 90.81 67.8999C90.81 72.2999 87.23 75.8799 82.83 75.8799Z" fill="#4279B6"/>
  <path d="M95.9299 36.01H69.7499C67.4999 36.01 65.6799 37.84 65.6799 40.08V95.72C65.6799 97.97 67.5099 99.79 69.7499 99.79H95.9299C98.1799 99.79 99.9999 97.96 99.9999 95.72V40.08C99.9999 37.83 98.1699 36.01 95.9299 36.01ZM98.3999 95.72C98.3999 97.08 97.2899 98.19 95.9299 98.19H69.7499C68.3899 98.19 67.2799 97.08 67.2799 95.72V40.08C67.2799 38.72 68.3899 37.61 69.7499 37.61H95.9299C97.2899 37.61 98.3999 38.72 98.3999 40.08V95.72Z" fill="#2D557F"/>
  <path d="M95.7198 40.09H69.9498C69.4698 40.09 69.0798 40.48 69.0798 40.96V94.91C69.0798 95.35 69.4398 95.71 69.8798 95.71H95.7798C96.2198 95.71 96.5798 95.35 96.5798 94.91V40.96C96.5798 40.48 96.1898 40.09 95.7098 40.09H95.7198ZM94.9798 94.11H70.6798V41.69H94.9798V94.11Z" fill="#2D557F"/>
  <path d="M52.7599 18.36C52.7699 18.18 52.8099 17.93 52.8199 17.82C52.9499 16.85 53.1299 15.51 52.2499 14.3C51.3699 13.09 50.0299 12.84 49.0599 12.67C48.9599 12.65 48.7099 12.61 48.5399 12.57C48.4499 12.43 48.3399 12.22 48.2899 12.11C47.8499 11.28 47.1799 10.03 45.7399 9.56003C45.4099 9.45003 45.0599 9.40002 44.6999 9.40002C43.7199 9.40002 42.9099 9.79002 42.2499 10.11C42.1499 10.16 41.8899 10.28 41.7199 10.35C41.5599 10.28 41.3099 10.16 41.1899 10.11C40.5299 9.79002 39.7199 9.40002 38.7399 9.40002C38.3799 9.40002 38.0299 9.45003 37.6899 9.56003C36.2499 10.03 35.6099 11.23 35.1399 12.11C35.0899 12.2 34.9799 12.41 34.8899 12.56C34.7299 12.6 34.4899 12.64 34.3599 12.66C33.3899 12.83 32.0599 13.07 31.1799 14.29C30.2999 15.5 30.4799 16.84 30.6099 17.82C30.6399 18.05 30.6599 18.23 30.6699 18.35C30.5599 18.48 30.3899 18.65 30.3199 18.72C29.6299 19.44 28.6799 20.42 28.6799 21.95C28.6799 23.48 29.6699 24.51 30.3199 25.19C30.3899 25.26 30.5499 25.43 30.6599 25.56C30.6499 25.74 30.6099 26 30.5999 26.1C30.4699 27.07 30.2899 28.41 31.1699 29.62C32.0499 30.84 33.3899 31.08 34.3599 31.25C34.5899 31.29 34.7599 31.33 34.8799 31.35C34.9699 31.5 35.0799 31.71 35.1299 31.81C35.5999 32.69 36.2399 33.89 37.6799 34.36C38.0099 34.47 38.3699 34.52 38.7299 34.52C39.6999 34.52 40.5199 34.13 41.1799 33.81C41.4199 33.7 41.5999 33.61 41.7099 33.57C41.8699 33.64 42.1299 33.76 42.2499 33.82C42.8999 34.13 43.7199 34.53 44.6899 34.53C45.0499 34.53 45.4099 34.47 45.7299 34.37C47.1699 33.9 47.8099 32.7 48.2799 31.82C48.3299 31.72 48.4399 31.51 48.5299 31.37C48.6999 31.33 48.9499 31.28 49.0499 31.27C50.0199 31.1 51.3499 30.86 52.2399 29.64C53.1199 28.43 52.9399 27.1 52.8099 26.11C52.7999 26.01 52.7599 25.76 52.7499 25.58C52.8299 25.49 52.9399 25.37 53.0899 25.21C53.7399 24.53 54.7299 23.51 54.7299 21.97C54.7299 20.43 53.7799 19.45 53.0899 18.73C53.0199 18.66 52.8599 18.49 52.7499 18.36H52.7599ZM51.9499 24.08C51.5299 24.52 51.3199 24.75 51.2299 24.98C51.2199 25.01 51.1999 25.05 51.1899 25.08C51.1199 25.33 51.1499 25.65 51.2399 26.31C51.3499 27.13 51.4599 27.98 50.9599 28.67C50.4499 29.37 49.5999 29.52 48.7799 29.67C48.1499 29.78 47.8299 29.86 47.6099 30C47.5799 30.02 47.5499 30.04 47.5199 30.07C47.3299 30.23 47.1799 30.49 46.8799 31.05C46.4799 31.79 46.0799 32.56 45.2499 32.83C45.0799 32.89 44.8999 32.91 44.6999 32.91C44.0899 32.91 43.5099 32.63 42.9299 32.35C42.3199 32.06 42.0099 31.93 41.7299 31.92C41.7299 31.92 41.7199 31.92 41.7099 31.92C41.6999 31.92 41.6999 31.92 41.6899 31.92C41.4399 31.92 41.1499 32.03 40.4799 32.35C39.9199 32.62 39.3299 32.9 38.7199 32.9C38.5299 32.9 38.3399 32.87 38.1699 32.82C37.3399 32.55 36.9299 31.78 36.5299 31.02C36.2399 30.48 36.0799 30.21 35.8799 30.04C35.8499 30.02 35.8199 30 35.7899 29.98C35.5699 29.84 35.2599 29.77 34.6299 29.66C33.8099 29.51 32.9599 29.36 32.4499 28.66C31.9499 27.97 32.0599 27.12 32.1699 26.3C32.2599 25.65 32.2799 25.32 32.2099 25.06C32.1999 25.02 32.1899 24.99 32.1699 24.95C32.0799 24.73 31.8799 24.51 31.4499 24.06C30.9199 23.51 30.2599 22.82 30.2599 21.94C30.2599 21.06 30.8699 20.43 31.4499 19.82C31.8699 19.38 32.0799 19.15 32.1799 18.92C32.1999 18.88 32.2099 18.85 32.2199 18.81C32.2899 18.56 32.2599 18.24 32.1699 17.59C32.0599 16.76 31.9399 15.91 32.4399 15.22C32.9499 14.52 33.7899 14.37 34.6399 14.22C35.2699 14.11 35.5699 14.03 35.7899 13.89C35.8199 13.87 35.8499 13.85 35.8699 13.83C36.0599 13.67 36.2199 13.41 36.5199 12.84C36.9199 12.1 37.3299 11.33 38.1499 11.06C38.3199 11 38.5099 10.98 38.6999 10.98C39.3099 10.98 39.8899 11.26 40.4799 11.54C41.0899 11.83 41.3899 11.95 41.6699 11.96H41.7099C41.9899 11.96 42.3099 11.82 42.9199 11.53C43.4799 11.26 44.0699 10.98 44.6699 10.98C44.8599 10.98 45.0499 11.01 45.2199 11.06C46.0499 11.33 46.4999 12.17 46.8599 12.85C47.1599 13.41 47.3199 13.67 47.5099 13.83C47.5399 13.85 47.5699 13.88 47.5999 13.9C47.8099 14.04 48.1199 14.11 48.7599 14.22C49.5799 14.37 50.4299 14.52 50.9399 15.22C51.4399 15.91 51.3299 16.76 51.2099 17.6C51.1199 18.24 51.0999 18.57 51.1699 18.83C51.1699 18.86 51.1899 18.9 51.2099 18.93C51.2999 19.15 51.4999 19.37 51.9299 19.82C52.5199 20.43 53.1199 21.06 53.1199 21.94C53.1199 22.82 52.4599 23.51 51.9299 24.06L51.9499 24.08Z" fill="#2D557F"/>
  <path d="M49.91 34.6C49.47 34.6 49.11 34.96 49.11 35.4V39.69C49.11 39.69 49.05 39.69 49.03 39.69C49.01 39.69 48.99 39.68 48.98 39.67L42.01 37.45C41.92 37.42 41.83 37.41 41.74 37.42H41.73C41.63 37.42 41.53 37.42 41.43 37.45L34.52 39.65C34.52 39.65 34.48 39.66 34.47 39.67C34.45 39.67 34.38 39.67 34.33 39.65V35.41C34.33 34.97 33.97 34.61 33.53 34.61C33.09 34.61 32.73 34.97 32.73 35.41V39.65C32.73 40.18 33 40.67 33.44 40.97C33.91 41.29 34.52 41.36 35.03 41.17L41.72 39.04L48.47 41.19C48.66 41.26 48.87 41.3 49.07 41.3C49.41 41.3 49.74 41.2 50.02 41.01C50.45 40.72 50.71 40.24 50.71 39.73V35.41C50.71 34.97 50.35 34.61 49.91 34.61V34.6Z" fill="#2D557F"/>
  <path d="M79.54 67.56C79.23 67.25 78.72 67.25 78.41 67.56C78.1 67.87 78.1 68.38 78.41 68.69L81.39 71.67C81.44 71.73 81.51 71.76 81.57 71.79C81.6 71.81 81.62 71.83 81.66 71.85C81.76 71.89 81.86 71.91 81.96 71.91C82.06 71.91 82.16 71.89 82.26 71.85C82.29 71.84 82.31 71.81 82.34 71.8C82.4 71.77 82.47 71.73 82.52 71.68L87.98 66.31C88.3 66 88.3 65.49 87.98 65.18C87.66 64.87 87.16 64.86 86.85 65.18L81.95 70L79.53 67.58L79.54 67.56Z" fill="#2D557F"/>
</svg>
