<svg xmlns="http://www.w3.org/2000/svg" width="100" height="100" viewBox="0 0 100 100" fill="none">
  <path d="M82.6901 49.9401V54.8501C82.6901 57.5601 80.4901 59.7601 77.7801 59.7601H5.72006C3.01006 59.7601 0.810059 57.5601 0.810059 54.8501V49.9401H82.7001H82.6901Z" fill="#4279B6"/>
  <path d="M77.78 60.56H5.72C2.57 60.56 0 58 0 54.85V49.94C0 49.5 0.36 49.14 0.8 49.14H82.69C83.13 49.14 83.49 49.5 83.49 49.94V54.85C83.49 58 80.93 60.56 77.77 60.56H77.78ZM1.6 50.74V54.85C1.6 57.12 3.44 58.96 5.71 58.96H77.77C80.04 58.96 81.88 57.12 81.88 54.85V50.74H1.6Z" fill="#0E1721"/>
  <path d="M82.69 5.72005V49.94H0.800049V5.72005C0.800049 3.00005 3.00005 0.800049 5.72005 0.800049H77.78C80.49 0.800049 82.69 3.00005 82.69 5.71005V5.72005Z" fill="#4279B6"/>
  <path d="M82.69 50.74H0.8C0.36 50.74 0 50.38 0 49.94V5.72C0 2.56 2.56 0 5.72 0H77.78C80.93 0 83.5 2.56 83.5 5.72V49.94C83.5 50.38 83.14 50.74 82.7 50.74H82.69ZM1.6 49.13H81.88V5.72C81.88 3.45 80.04 1.61 77.77 1.61H5.72C3.45 1.6 1.6 3.45 1.6 5.72V49.14V49.13Z" fill="#0E1721"/>
  <path d="M31.9201 73.6699H25.3701C24.9301 73.6699 24.5701 73.3099 24.5701 72.8699C24.5701 72.4299 24.9301 72.0699 25.3701 72.0699H31.9201C32.3601 72.0699 32.7201 72.4299 32.7201 72.8699C32.7201 73.3099 32.3601 73.6699 31.9201 73.6699Z" fill="#0E1721"/>
  <path d="M58.13 73.6699H51.58C51.14 73.6699 50.78 73.3099 50.78 72.8699C50.78 72.4299 51.14 72.0699 51.58 72.0699H58.13C58.57 72.0699 58.93 72.4299 58.93 72.8699C58.93 73.3099 58.57 73.6699 58.13 73.6699Z" fill="#0E1721"/>
  <path d="M51.5699 72.87H31.9199L35.1999 59.76H48.2999L51.5699 72.87Z" fill="#4279B6"/>
  <path d="M51.5699 73.67H31.9199C31.6699 73.67 31.4399 73.56 31.2899 73.36C31.1399 73.17 31.0799 72.91 31.1399 72.67L34.4199 59.57C34.5099 59.21 34.8299 58.96 35.1999 58.96H48.2999C48.6699 58.96 48.9899 59.21 49.0799 59.57L52.3599 72.67C52.4199 72.91 52.3599 73.16 52.2099 73.36C52.0599 73.55 51.8199 73.67 51.5799 73.67H51.5699ZM32.9499 72.06H50.5499L47.6799 60.56H35.8299L32.9599 72.06H32.9499Z" fill="#0E1721"/>
  <path d="M4.81006 46.01H78.6801V5.54997C78.6801 5.08997 78.2701 4.71997 77.7801 4.71997H5.72006C5.22006 4.71997 4.82006 5.08997 4.82006 5.54997V46.01H4.81006Z" fill="white"/>
  <path d="M78.68 46.78H4.81004C4.39004 46.78 4.04004 46.44 4.04004 46.01V5.54996C4.04004 4.66996 4.79004 3.95996 5.71004 3.95996H77.77C78.69 3.95996 79.44 4.67996 79.44 5.54996V46.01C79.44 46.43 79.1 46.78 78.67 46.78H78.68ZM5.58004 45.25H77.91V5.54996C77.91 5.54996 77.86 5.48996 77.77 5.48996H5.72004C5.63004 5.48996 5.59004 5.53996 5.58004 5.54996V45.25Z" fill="#0E1721"/>
  <path d="M99.1999 90.8801V95.7901C99.1999 97.6001 97.7299 99.0701 95.9199 99.0701H69.7199C67.9099 99.0701 66.4399 97.6001 66.4399 95.7901V40.1101C66.4399 38.3001 67.9099 36.8301 69.7199 36.8301H95.9199C97.7299 36.8301 99.1999 38.3001 99.1999 40.1101V90.8801Z" fill="#FCCD2A"/>
  <path d="M95.9199 99.87H69.7199C67.4699 99.87 65.6399 98.04 65.6399 95.79V40.11C65.6399 37.86 67.4699 36.03 69.7199 36.03H95.9199C98.1699 36.03 99.9999 37.86 99.9999 40.11V95.79C99.9999 98.04 98.1699 99.87 95.9199 99.87ZM69.7199 37.64C68.3599 37.64 67.2499 38.75 67.2499 40.11V95.79C67.2499 97.15 68.3599 98.26 69.7199 98.26H95.9199C97.2799 98.26 98.3899 97.15 98.3899 95.79V40.11C98.3899 38.75 97.2799 37.64 95.9199 37.64H69.7199Z" fill="#0E1721"/>
  <path d="M69.6501 95.42H95.9901V40.56C95.9901 40.56 95.9601 40.49 95.9201 40.49H69.7201C69.7201 40.49 69.6501 40.52 69.6501 40.56V95.42Z" fill="white"/>
  <path d="M95.9901 96.2199H69.6501C69.2101 96.2199 68.8501 95.8599 68.8501 95.4199V40.5599C68.8501 40.0799 69.2401 39.6899 69.7201 39.6899H95.9201C96.4001 39.6899 96.7901 40.0799 96.7901 40.5599V95.4199C96.7901 95.8599 96.4301 96.2199 95.9901 96.2199ZM70.4501 94.6199H95.1901V41.2899H70.4501V94.6199Z" fill="#0E1721"/>
  <path d="M84.4599 44.19H81.1799C80.7399 44.19 80.3799 43.83 80.3799 43.39C80.3799 42.95 80.7399 42.59 81.1799 42.59H84.4599C84.8999 42.59 85.2599 42.95 85.2599 43.39C85.2599 43.83 84.8999 44.19 84.4599 44.19Z" fill="#0E1721"/>
  <path d="M82.82 76.74C87.6746 76.74 91.61 72.8046 91.61 67.95C91.61 63.0954 87.6746 59.16 82.82 59.16C77.9654 59.16 74.03 63.0954 74.03 67.95C74.03 72.8046 77.9654 76.74 82.82 76.74Z" fill="#3C8645"/>
  <path d="M82.82 77.54C77.53 77.54 73.23 73.24 73.23 67.95C73.23 62.66 77.53 58.36 82.82 58.36C88.11 58.36 92.41 62.66 92.41 67.95C92.41 73.24 88.11 77.54 82.82 77.54ZM82.82 59.96C78.42 59.96 74.83 63.54 74.83 67.95C74.83 72.36 78.41 75.94 82.82 75.94C87.23 75.94 90.81 72.36 90.81 67.95C90.81 63.54 87.23 59.96 82.82 59.96Z" fill="#0E1721"/>
  <path d="M81.95 71.9601C81.74 71.9601 81.54 71.8801 81.38 71.7301L78.39 68.7401C78.08 68.4301 78.08 67.9201 78.39 67.6101C78.7 67.3001 79.21 67.3001 79.52 67.6101L82.51 70.6001C82.82 70.9101 82.82 71.4201 82.51 71.7301C82.35 71.8901 82.15 71.9601 81.94 71.9601H81.95Z" fill="white"/>
  <path d="M81.95 71.96C81.74 71.96 81.54 71.88 81.38 71.72C81.07 71.4 81.07 70.9 81.38 70.59L86.85 65.21C87.17 64.9 87.67 64.9 87.98 65.21C88.29 65.53 88.29 66.03 87.98 66.34L82.51 71.72C82.35 71.87 82.15 71.95 81.95 71.95V71.96Z" fill="white"/>
  <path d="M44.57 34.97C43.59 34.97 42.78 34.58 42.12 34.26C42 34.2 41.7401 34.08 41.5801 34.01C41.4701 34.06 41.29 34.14 41.05 34.25C40.39 34.57 39.57 34.96 38.6 34.96C38.24 34.96 37.89 34.91 37.55 34.8C36.11 34.33 35.46 33.13 35 32.25C34.95 32.15 34.83 31.94 34.75 31.79C34.58 31.75 34.33 31.71 34.23 31.69C33.26 31.51 31.9201 31.27 31.0401 30.06C30.1601 28.85 30.34 27.51 30.47 26.54C30.48 26.44 30.5201 26.18 30.5301 26C30.4201 25.87 30.2501 25.7 30.1901 25.63C29.5301 24.95 28.55 23.92 28.55 22.39C28.55 20.86 29.5001 19.87 30.1901 19.15C30.3401 18.99 30.4601 18.87 30.5401 18.78C30.5301 18.66 30.51 18.48 30.48 18.25C30.35 17.27 30.17 15.93 31.05 14.72C31.94 13.5 33.2701 13.26 34.2401 13.09C34.3601 13.07 34.6 13.02 34.7701 12.99C34.8601 12.84 34.97 12.62 35.0201 12.54C35.49 11.66 36.1301 10.46 37.5801 9.98996C37.9101 9.87996 38.2701 9.82996 38.6301 9.82996C39.6101 9.82996 40.4301 10.22 41.0801 10.54C41.2001 10.6 41.4501 10.72 41.6101 10.78C41.7801 10.71 42.04 10.59 42.14 10.54C42.8 10.22 43.62 9.82996 44.6 9.82996C44.96 9.82996 45.3101 9.87996 45.6501 9.98996C47.1001 10.46 47.76 11.71 48.21 12.54C48.26 12.64 48.38 12.85 48.46 13C48.63 13.04 48.88 13.08 48.98 13.1C49.95 13.28 51.29 13.52 52.17 14.73C53.05 15.94 52.8701 17.27 52.7401 18.25C52.7201 18.36 52.6901 18.62 52.68 18.79C52.7901 18.92 52.9601 19.09 53.0201 19.16C53.7101 19.88 54.66 20.87 54.66 22.4C54.66 23.93 53.67 24.96 53.0201 25.64C52.8701 25.8 52.75 25.92 52.68 26.01C52.7001 26.19 52.7301 26.44 52.7401 26.54C52.8701 27.53 53.05 28.86 52.17 30.07C51.28 31.29 49.95 31.53 48.98 31.7C48.88 31.72 48.63 31.76 48.46 31.8C48.37 31.95 48.26 32.16 48.21 32.25C47.74 33.13 47.1 34.33 45.66 34.8C45.33 34.91 44.9801 34.96 44.6101 34.96L44.57 34.97ZM41.59 32.38C41.59 32.38 41.6 32.38 41.6101 32.38C41.89 32.38 42.19 32.51 42.8 32.8C43.38 33.08 43.96 33.36 44.57 33.36C44.76 33.36 44.95 33.33 45.12 33.28C45.95 33.01 46.36 32.24 46.76 31.5C47.06 30.94 47.2201 30.68 47.4001 30.52C47.4301 30.49 47.4601 30.47 47.4901 30.45C47.7101 30.31 48.0301 30.24 48.66 30.12C49.48 29.97 50.33 29.82 50.84 29.12C51.34 28.43 51.23 27.58 51.12 26.76C51.03 26.1 51 25.78 51.07 25.53C51.07 25.5 51.09 25.46 51.1101 25.43C51.2101 25.2 51.41 24.97 51.84 24.53C52.3701 23.98 53.03 23.29 53.03 22.4C53.03 21.51 52.42 20.88 51.84 20.27C51.41 19.82 51.21 19.6 51.12 19.38C51.11 19.35 51.0901 19.31 51.0801 19.28C51.0101 19.02 51.03 18.69 51.12 18.05C51.23 17.21 51.35 16.36 50.85 15.67C50.34 14.98 49.49 14.82 48.67 14.67C48.03 14.56 47.73 14.49 47.51 14.35C47.48 14.33 47.45 14.31 47.42 14.28C47.23 14.12 47.07 13.86 46.7701 13.3C46.41 12.62 45.9601 11.78 45.1301 11.51C44.9601 11.45 44.7701 11.43 44.5801 11.43C43.9701 11.43 43.39 11.71 42.82 11.98C42.21 12.27 41.89 12.41 41.6101 12.41C41.6 12.41 41.58 12.41 41.57 12.41C41.29 12.41 40.9901 12.28 40.3801 11.99C39.8001 11.71 39.21 11.43 38.6 11.43C38.41 11.43 38.22 11.46 38.05 11.51C37.22 11.78 36.81 12.55 36.41 13.29C36.11 13.85 35.95 14.11 35.76 14.28C35.73 14.3 35.7101 14.32 35.68 14.34C35.4601 14.48 35.16 14.55 34.53 14.67C33.69 14.82 32.8401 14.98 32.3301 15.67C31.8301 16.36 31.9401 17.21 32.0601 18.04C32.1501 18.69 32.1701 19.01 32.1101 19.26C32.1001 19.3 32.09 19.33 32.07 19.37C31.97 19.6 31.77 19.83 31.34 20.27C30.75 20.88 30.15 21.51 30.15 22.39C30.15 23.27 30.81 23.96 31.34 24.52C31.77 24.97 31.9701 25.19 32.0601 25.41C32.0801 25.44 32.09 25.48 32.1 25.52C32.17 25.78 32.1401 26.11 32.0601 26.76C31.9501 27.58 31.83 28.43 32.34 29.12C32.85 29.82 33.7 29.97 34.5201 30.12C35.16 30.23 35.4601 30.3 35.68 30.44C35.7101 30.46 35.74 30.48 35.7701 30.5C35.97 30.66 36.13 30.94 36.42 31.48C36.82 32.24 37.2301 33 38.0601 33.27C38.2301 33.33 38.4201 33.36 38.6101 33.36C39.22 33.36 39.8 33.08 40.37 32.81C40.98 32.52 41.3001 32.39 41.5801 32.38C41.5801 32.38 41.59 32.38 41.6 32.38H41.59Z" fill="#0E1721"/>
  <path d="M48.9501 41.7499C48.7401 41.7499 48.5401 41.7099 48.3501 41.6399L41.5901 39.4799L34.8901 41.6099C34.3701 41.7999 33.7701 41.7299 33.3001 41.4099C32.8501 41.1099 32.5901 40.6099 32.5901 40.0899V35.8399C32.5901 35.3999 32.9501 35.0399 33.3901 35.0399C33.8301 35.0399 34.1901 35.3999 34.1901 35.8399V40.0899C34.2401 40.1199 34.3101 40.1199 34.3301 40.1099C34.3501 40.1099 34.3601 40.0999 34.3801 40.0899L41.3001 37.8899C41.4001 37.8599 41.5001 37.8499 41.6001 37.8499H41.6101C41.7001 37.8499 41.8001 37.8499 41.8801 37.8899L48.8601 40.1199C48.8601 40.1199 48.9001 40.1299 48.9101 40.1399C48.9401 40.1499 48.9701 40.1399 48.9901 40.1399V35.8499C48.9901 35.4099 49.3501 35.0499 49.7901 35.0499C50.2301 35.0499 50.5901 35.4099 50.5901 35.8499V40.1799C50.5901 40.6899 50.3301 41.1699 49.9001 41.4599C49.6201 41.6499 49.2901 41.7499 48.9501 41.7499Z" fill="#0E1721"/>
</svg>
