<svg xmlns="http://www.w3.org/2000/svg" width="100" height="100" viewBox="0 0 100 100" fill="none">
  <path fill-rule="evenodd" clip-rule="evenodd" d="M66.66 17.18V23.86H65.3V17.18C65.3 16.18 64.48 15.36 63.48 15.36H36.5C35.5 15.36 34.68 16.18 34.68 17.18V23.86H33.32V17.18C33.32 15.42 34.76 14 36.5 14H63.48C65.22 14 66.66 15.42 66.66 17.18Z" fill="#2D557F"/>
  <path d="M62.8 20.1V23.86H61.44V20.1C61.44 19.46 60.84 18.94 60.12 18.94H39.86C39.14 18.94 38.54 19.46 38.54 20.1V23.86H37.18V20.1C37.18 18.72 38.38 17.58 39.86 17.58H60.12C61.6 17.58 62.8 18.72 62.8 20.1Z" fill="#2D557F"/>
  <path d="M62.04 59.12H37.94V60.48H62.04V59.12Z" fill="#4279B6"/>
  <path d="M96.58 23.86H3.4C1.52 23.86 0 25.38 0 27.26V32.92C0 36.7 0.76 40.3 2.16 43.58V82.98C2.16 84.86 3.68 86.38 5.56 86.38H94.42C96.3 86.38 97.82 84.86 97.82 82.98V43.64C99.22 40.34 100 36.72 100 32.92V27.26C100 25.38 98.46 23.86 96.58 23.86ZM98.62 32.92C98.62 35.16 98.34 37.32 97.82 39.38C97.46 40.76 97.02 42.08 96.46 43.34C92.44 52.62 83.18 59.12 72.42 59.12H69.92V60.48H72.42C82.72 60.48 91.72 54.8 96.46 46.4V82.98C96.46 84.1 95.54 85.02 94.42 85.02H5.56C4.44 85.02 3.52 84.1 3.52 82.98V46.36C8.24 54.78 17.24 60.48 27.56 60.48H30.06V59.12H27.56C16.8 59.12 7.54 52.62 3.52 43.34C2.96 42.08 2.52 40.76 2.16 39.38C1.64 37.32 1.36 35.16 1.36 32.92V27.26C1.36 26.36 1.94 25.6 2.76 25.34C2.96 25.26 3.18 25.22 3.4 25.22H96.58C96.8 25.22 97.02 25.26 97.22 25.32C98.04 25.6 98.62 26.36 98.62 27.26V32.92Z" fill="#4279B6"/>
  <path d="M68.96 52.3H62.98C62.46 52.3 62.04 52.72 62.04 53.24V66.7C62.04 67.22 62.46 67.64 62.98 67.64H68.96C69.48 67.64 69.92 67.22 69.92 66.7V53.24C69.92 52.72 69.48 52.3 68.96 52.3ZM68.56 66.28H63.4V53.66H68.56V66.28Z" fill="#2D557F"/>
  <path fill-rule="evenodd" clip-rule="evenodd" d="M37 51.96H31.02C30.5 51.96 30.06 52.4 30.06 52.92V66.36C30.06 66.9 30.5 67.32 31.02 67.32H37C37.52 67.32 37.94 66.9 37.94 66.36V52.92C37.94 52.4 37.52 51.96 37 51.96ZM36.58 65.96H31.44V53.34H36.58V65.96Z" fill="#2D557F"/>
</svg>
