<svg xmlns="http://www.w3.org/2000/svg" width="100" height="100" viewBox="0 0 100 100" fill="none">
  <path fill-rule="evenodd" clip-rule="evenodd" d="M17.57 85.7H5.56997C4.06997 85.7 2.83997 84.47 2.83997 82.97V27.26C2.83997 25.76 4.06997 24.53 5.56997 24.53H94.42C95.92 24.53 97.15 25.76 97.15 27.26V82.98C97.15 84.48 95.92 85.71 94.42 85.71H17.57V85.7Z" fill="#4279B6"/>
  <path d="M94.43 86.39H5.56997C3.68997 86.39 2.15997 84.86 2.15997 82.98V27.26C2.15997 25.38 3.68997 23.85 5.56997 23.85H94.42C96.3 23.85 97.83 25.38 97.83 27.26V82.98C97.83 84.86 96.3 86.39 94.42 86.39H94.43ZM5.56997 25.21C4.43997 25.21 3.51997 26.13 3.51997 27.26V82.98C3.51997 84.11 4.43997 85.03 5.56997 85.03H94.42C95.55 85.03 96.47 84.11 96.47 82.98V27.26C96.47 26.13 95.55 25.21 94.42 25.21H5.56997Z" fill="#0E1721"/>
  <path fill-rule="evenodd" clip-rule="evenodd" d="M65.98 17.18V24.53H62.13V20.11C62.13 19.09 61.23 18.26 60.13 18.26H39.87C38.77 18.26 37.87 19.09 37.87 20.11V24.53H34.02V17.18C34.02 15.81 35.14 14.68 36.51 14.68H63.49C64.86 14.68 65.98 15.8 65.98 17.18Z" fill="#3C8645"/>
  <path d="M65.98 25.21H62.13C61.75 25.21 61.45 24.91 61.45 24.53V20.11C61.45 19.47 60.86 18.94 60.13 18.94H39.87C39.14 18.94 38.55 19.46 38.55 20.11V24.53C38.55 24.91 38.25 25.21 37.87 25.21H34.02C33.64 25.21 33.34 24.91 33.34 24.53V17.18C33.34 15.43 34.76 14 36.51 14H63.49C65.24 14 66.66 15.43 66.66 17.18V24.53C66.66 24.91 66.36 25.21 65.98 25.21ZM62.81 23.85H65.3V17.18C65.3 16.18 64.49 15.36 63.49 15.36H36.51C35.51 15.36 34.7 16.17 34.7 17.18V23.85H37.19V20.11C37.19 18.72 38.39 17.58 39.87 17.58H60.13C61.61 17.58 62.81 18.71 62.81 20.11V23.85Z" fill="#0E1721"/>
  <path d="M3.40999 24.53H96.59C98.1 24.53 99.32 25.75 99.32 27.26V32.92C99.32 47.76 87.27 59.81 72.43 59.81H27.57C12.73 59.8 0.679993 47.76 0.679993 32.92V27.26C0.679993 25.75 1.89999 24.53 3.40999 24.53Z" fill="#4279B6"/>
  <path d="M72.43 60.49H27.57C12.37 60.49 0 48.12 0 32.92V27.26C0 25.38 1.53 23.85 3.41 23.85H96.59C98.47 23.85 100 25.38 100 27.26V32.92C100 48.12 87.63 60.49 72.43 60.49ZM3.41 25.21C2.28 25.21 1.36 26.13 1.36 27.26V32.92C1.36 47.37 13.12 59.13 27.57 59.13H72.44C86.89 59.13 98.65 47.37 98.65 32.92V27.26C98.65 26.13 97.73 25.21 96.6 25.21H3.41Z" fill="#0E1721"/>
  <path d="M68.96 52.97H63C62.8453 52.97 62.72 53.0954 62.72 53.25V66.68C62.72 66.8346 62.8453 66.96 63 66.96H68.96C69.1146 66.96 69.24 66.8346 69.24 66.68V53.25C69.24 53.0954 69.1146 52.97 68.96 52.97Z" fill="#FCCD2A"/>
  <path d="M68.97 67.64H63C62.47 67.64 62.04 67.21 62.04 66.68V53.24C62.04 52.71 62.47 52.28 63 52.28H68.97C69.5 52.28 69.93 52.71 69.93 53.24V66.68C69.93 67.21 69.5 67.64 68.97 67.64ZM63.4 66.28H68.56V53.65H63.4V66.28Z" fill="#0E1721"/>
  <path d="M37 52.65H31.04C30.8854 52.65 30.76 52.7754 30.76 52.93V66.36C30.76 66.5146 30.8854 66.64 31.04 66.64H37C37.1546 66.64 37.28 66.5146 37.28 66.36V52.93C37.28 52.7754 37.1546 52.65 37 52.65Z" fill="#FCCD2A"/>
  <path d="M37 67.32H31.03C30.5 67.32 30.07 66.89 30.07 66.36V52.92C30.07 52.39 30.5 51.96 31.03 51.96H37C37.53 51.96 37.96 52.39 37.96 52.92V66.36C37.96 66.89 37.53 67.32 37 67.32ZM31.44 65.96H36.6V53.33H31.44V65.96Z" fill="#0E1721"/>
</svg>
