<svg xmlns="http://www.w3.org/2000/svg" width="100" height="100" viewBox="0 0 100 100" fill="none">
  <path d="M95.5 10.29H4.50001C2.43446 10.29 0.76001 11.9645 0.76001 14.03V90.18C0.76001 92.2455 2.43446 93.92 4.50001 93.92H95.5C97.5656 93.92 99.24 92.2455 99.24 90.18V14.03C99.24 11.9645 97.5656 10.29 95.5 10.29Z" fill="#4279B6"/>
  <path d="M95.5 94.68H4.5C2.02 94.68 0 92.66 0 90.18V14.03C0 11.55 2.02 9.53 4.5 9.53H95.51C97.99 9.53 100.01 11.55 100.01 14.03V90.18C100.01 92.66 97.99 94.68 95.51 94.68H95.5ZM4.5 11.05C2.86 11.05 1.52 12.39 1.52 14.03V90.18C1.52 91.82 2.86 93.16 4.5 93.16H95.51C97.15 93.16 98.49 91.82 98.49 90.18V14.03C98.49 12.39 97.15 11.05 95.51 11.05H4.5Z" fill="#0E1721"/>
  <path d="M20.78 5.76H16.52C15.8407 5.76 15.29 6.31069 15.29 6.99V21.75C15.29 22.4293 15.8407 22.98 16.52 22.98H20.78C21.4593 22.98 22.01 22.4293 22.01 21.75V6.99C22.01 6.31069 21.4593 5.76 20.78 5.76Z" fill="#FCCD2A"/>
  <path d="M20.78 23.74H16.53C15.43 23.74 14.54 22.85 14.54 21.75V6.99C14.54 5.89 15.43 5 16.53 5H20.78C21.88 5 22.77 5.89 22.77 6.99V21.74C22.77 22.84 21.88 23.73 20.78 23.73V23.74ZM16.52 6.51C16.26 6.51 16.04 6.73 16.04 6.99V21.74C16.04 22 16.26 22.22 16.52 22.22H20.77C21.03 22.22 21.25 22 21.25 21.74V6.99C21.25 6.73 21.03 6.51 20.77 6.51H16.52Z" fill="#0E1721"/>
  <path d="M41.68 5.76H37.42C36.7407 5.76 36.19 6.31069 36.19 6.99V21.75C36.19 22.4293 36.7407 22.98 37.42 22.98H41.68C42.3593 22.98 42.91 22.4293 42.91 21.75V6.99C42.91 6.31069 42.3593 5.76 41.68 5.76Z" fill="#FCCD2A"/>
  <path d="M41.68 23.74H37.43C36.33 23.74 35.44 22.85 35.44 21.75V6.99C35.44 5.89 36.33 5 37.43 5H41.68C42.78 5 43.67 5.89 43.67 6.99V21.74C43.67 22.84 42.78 23.73 41.68 23.73V23.74ZM37.42 6.51C37.16 6.51 36.94 6.73 36.94 6.99V21.74C36.94 22 37.16 22.22 37.42 22.22H41.67C41.93 22.22 42.15 22 42.15 21.74V6.99C42.15 6.73 41.93 6.51 41.67 6.51H37.42Z" fill="#0E1721"/>
  <path d="M62.58 5.76H58.32C57.6407 5.76 57.09 6.31069 57.09 6.99V21.75C57.09 22.4293 57.6407 22.98 58.32 22.98H62.58C63.2593 22.98 63.81 22.4293 63.81 21.75V6.99C63.81 6.31069 63.2593 5.76 62.58 5.76Z" fill="#FCCD2A"/>
  <path d="M62.58 23.74H58.33C57.23 23.74 56.34 22.85 56.34 21.75V6.99C56.34 5.89 57.23 5 58.33 5H62.58C63.68 5 64.57 5.89 64.57 6.99V21.74C64.57 22.84 63.68 23.73 62.58 23.73V23.74ZM58.32 6.51C58.06 6.51 57.84 6.73 57.84 6.99V21.74C57.84 22 58.06 22.22 58.32 22.22H62.57C62.83 22.22 63.05 22 63.05 21.74V6.99C63.05 6.73 62.83 6.51 62.57 6.51H58.32Z" fill="#0E1721"/>
  <path d="M83.48 5.76H79.22C78.5407 5.76 77.99 6.31069 77.99 6.99V21.75C77.99 22.4293 78.5407 22.98 79.22 22.98H83.48C84.1593 22.98 84.71 22.4293 84.71 21.75V6.99C84.71 6.31069 84.1593 5.76 83.48 5.76Z" fill="#FCCD2A"/>
  <path d="M83.48 23.74H79.23C78.13 23.74 77.24 22.85 77.24 21.75V6.99C77.24 5.89 78.13 5 79.23 5H83.48C84.58 5 85.47 5.89 85.47 6.99V21.74C85.47 22.84 84.58 23.73 83.48 23.73V23.74ZM79.22 6.51C78.96 6.51 78.74 6.73 78.74 6.99V21.74C78.74 22 78.96 22.22 79.22 22.22H83.47C83.73 22.22 83.95 22 83.95 21.74V6.99C83.95 6.73 83.73 6.51 83.47 6.51H79.22Z" fill="#0E1721"/>
  <path d="M93.96 31.89H6.04003C5.62003 31.89 5.28003 31.55 5.28003 31.13C5.28003 30.71 5.62003 30.37 6.04003 30.37H93.96C94.38 30.37 94.72 30.71 94.72 31.13C94.72 31.55 94.38 31.89 93.96 31.89Z" fill="#0E1721"/>
  <path d="M25.07 40.2H11.02C10.2689 40.2 9.66003 40.8089 9.66003 41.56V55.61C9.66003 56.3611 10.2689 56.97 11.02 56.97H25.07C25.8211 56.97 26.43 56.3611 26.43 55.61V41.56C26.43 40.8089 25.8211 40.2 25.07 40.2Z" fill="white"/>
  <path d="M25.07 57.73H11.02C9.85003 57.73 8.90002 56.78 8.90002 55.61V41.56C8.90002 40.39 9.85003 39.44 11.02 39.44H25.07C26.24 39.44 27.19 40.39 27.19 41.56V55.61C27.19 56.78 26.24 57.73 25.07 57.73ZM11.02 40.96C10.69 40.96 10.42 41.23 10.42 41.56V55.61C10.42 55.94 10.69 56.21 11.02 56.21H25.07C25.4 56.21 25.67 55.94 25.67 55.61V41.56C25.67 41.23 25.4 40.96 25.07 40.96H11.02Z" fill="#0E1721"/>
  <path d="M46.37 40.2H32.32C31.5689 40.2 30.96 40.8089 30.96 41.56V55.61C30.96 56.3611 31.5689 56.97 32.32 56.97H46.37C47.1211 56.97 47.73 56.3611 47.73 55.61V41.56C47.73 40.8089 47.1211 40.2 46.37 40.2Z" fill="white"/>
  <path d="M46.37 57.73H32.32C31.15 57.73 30.2 56.78 30.2 55.61V41.56C30.2 40.39 31.15 39.44 32.32 39.44H46.37C47.54 39.44 48.49 40.39 48.49 41.56V55.61C48.49 56.78 47.54 57.73 46.37 57.73ZM32.32 40.96C31.99 40.96 31.72 41.23 31.72 41.56V55.61C31.72 55.94 31.99 56.21 32.32 56.21H46.37C46.7 56.21 46.97 55.94 46.97 55.61V41.56C46.97 41.23 46.7 40.96 46.37 40.96H32.32Z" fill="#0E1721"/>
  <path d="M67.68 40.2H53.63C52.8789 40.2 52.27 40.8089 52.27 41.56V55.61C52.27 56.3611 52.8789 56.97 53.63 56.97H67.68C68.4311 56.97 69.04 56.3611 69.04 55.61V41.56C69.04 40.8089 68.4311 40.2 67.68 40.2Z" fill="#3C8645"/>
  <path d="M67.68 57.73H53.63C52.46 57.73 51.51 56.78 51.51 55.61V41.56C51.51 40.39 52.46 39.44 53.63 39.44H67.68C68.85 39.44 69.8 40.39 69.8 41.56V55.61C69.8 56.78 68.85 57.73 67.68 57.73ZM53.63 40.96C53.3 40.96 53.03 41.23 53.03 41.56V55.61C53.03 55.94 53.3 56.21 53.63 56.21H67.68C68.01 56.21 68.28 55.94 68.28 55.61V41.56C68.28 41.23 68.01 40.96 67.68 40.96H53.63Z" fill="#0E1721"/>
  <path d="M88.98 40.2H74.93C74.1789 40.2 73.57 40.8089 73.57 41.56V55.61C73.57 56.3611 74.1789 56.97 74.93 56.97H88.98C89.7311 56.97 90.34 56.3611 90.34 55.61V41.56C90.34 40.8089 89.7311 40.2 88.98 40.2Z" fill="white"/>
  <path d="M88.98 57.73H74.93C73.76 57.73 72.81 56.78 72.81 55.61V41.56C72.81 40.39 73.76 39.44 74.93 39.44H88.98C90.15 39.44 91.1 40.39 91.1 41.56V55.61C91.1 56.78 90.15 57.73 88.98 57.73ZM74.93 40.96C74.6 40.96 74.33 41.23 74.33 41.56V55.61C74.33 55.94 74.6 56.21 74.93 56.21H88.98C89.31 56.21 89.58 55.94 89.58 55.61V41.56C89.58 41.23 89.31 40.96 88.98 40.96H74.93Z" fill="#0E1721"/>
  <path d="M25.07 66.04H11.02C10.2689 66.04 9.66003 66.6489 9.66003 67.4V81.45C9.66003 82.2011 10.2689 82.81 11.02 82.81H25.07C25.8211 82.81 26.43 82.2011 26.43 81.45V67.4C26.43 66.6489 25.8211 66.04 25.07 66.04Z" fill="white"/>
  <path d="M25.07 83.56H11.02C9.85003 83.56 8.90002 82.61 8.90002 81.44V67.39C8.90002 66.22 9.85003 65.27 11.02 65.27H25.07C26.24 65.27 27.19 66.22 27.19 67.39V81.44C27.19 82.61 26.24 83.56 25.07 83.56ZM11.02 66.79C10.69 66.79 10.42 67.06 10.42 67.39V81.44C10.42 81.77 10.69 82.04 11.02 82.04H25.07C25.4 82.04 25.67 81.77 25.67 81.44V67.39C25.67 67.06 25.4 66.79 25.07 66.79H11.02Z" fill="#0E1721"/>
  <path d="M67.68 66.04H53.63C52.8789 66.04 52.27 66.6489 52.27 67.4V81.45C52.27 82.2011 52.8789 82.81 53.63 82.81H67.68C68.4311 82.81 69.04 82.2011 69.04 81.45V67.4C69.04 66.6489 68.4311 66.04 67.68 66.04Z" fill="white"/>
  <path d="M67.68 83.56H53.63C52.46 83.56 51.51 82.61 51.51 81.44V67.39C51.51 66.22 52.46 65.27 53.63 65.27H67.68C68.85 65.27 69.8 66.22 69.8 67.39V81.44C69.8 82.61 68.85 83.56 67.68 83.56ZM53.63 66.79C53.3 66.79 53.03 67.06 53.03 67.39V81.44C53.03 81.77 53.3 82.04 53.63 82.04H67.68C68.01 82.04 68.28 81.77 68.28 81.44V67.39C68.28 67.06 68.01 66.79 67.68 66.79H53.63Z" fill="#0E1721"/>
  <path d="M88.98 66.04H74.93C74.1789 66.04 73.57 66.6489 73.57 67.4V81.45C73.57 82.2011 74.1789 82.81 74.93 82.81H88.98C89.7311 82.81 90.34 82.2011 90.34 81.45V67.4C90.34 66.6489 89.7311 66.04 88.98 66.04Z" fill="white"/>
  <path d="M88.98 83.56H74.93C73.76 83.56 72.81 82.61 72.81 81.44V67.39C72.81 66.22 73.76 65.27 74.93 65.27H88.98C90.15 65.27 91.1 66.22 91.1 67.39V81.44C91.1 82.61 90.15 83.56 88.98 83.56ZM74.93 66.79C74.6 66.79 74.33 67.06 74.33 67.39V81.44C74.33 81.77 74.6 82.04 74.93 82.04H88.98C89.31 82.04 89.58 81.77 89.58 81.44V67.39C89.58 67.06 89.31 66.79 88.98 66.79H74.93Z" fill="#0E1721"/>
  <path d="M59.19 52.52C59 52.52 58.8 52.45 58.65 52.3L55.13 48.78C54.83 48.48 54.83 48 55.13 47.71C55.43 47.41 55.91 47.41 56.2 47.71L59.19 50.7L65.1 44.88C65.4 44.59 65.88 44.59 66.17 44.88C66.46 45.18 66.46 45.66 66.17 45.95L59.72 52.29C59.57 52.43 59.38 52.51 59.19 52.51V52.52Z" fill="white"/>
  <path d="M46.37 66.04H32.32C31.5689 66.04 30.96 66.6489 30.96 67.4V81.45C30.96 82.2011 31.5689 82.81 32.32 82.81H46.37C47.1211 82.81 47.73 82.2011 47.73 81.45V67.4C47.73 66.6489 47.1211 66.04 46.37 66.04Z" fill="#3C8645"/>
  <path d="M46.37 83.56H32.32C31.15 83.56 30.2 82.61 30.2 81.44V67.39C30.2 66.22 31.15 65.27 32.32 65.27H46.37C47.54 65.27 48.49 66.22 48.49 67.39V81.44C48.49 82.61 47.54 83.56 46.37 83.56ZM32.32 66.79C31.99 66.79 31.72 67.06 31.72 67.39V81.44C31.72 81.77 31.99 82.04 32.32 82.04H46.37C46.7 82.04 46.97 81.77 46.97 81.44V67.39C46.97 67.06 46.7 66.79 46.37 66.79H32.32Z" fill="#0E1721"/>
  <path d="M37.89 78.35C37.7 78.35 37.5 78.28 37.35 78.13L33.83 74.61C33.53 74.31 33.53 73.83 33.83 73.54C34.13 73.24 34.61 73.24 34.9 73.54L37.89 76.53L43.8 70.71C44.1 70.42 44.58 70.42 44.87 70.71C45.16 71.01 45.16 71.49 44.87 71.78L38.42 78.12C38.27 78.26 38.08 78.34 37.89 78.34V78.35Z" fill="white"/>
</svg>
