<svg xmlns="http://www.w3.org/2000/svg" width="100" height="100" viewBox="0 0 100 100" fill="none">
  <path d="M43.66 9.52V11.04H56.32V9.52H43.66ZM95.5 9.52H85.46V11.04H95.5C97.14 11.04 98.48 12.38 98.48 14.02V90.18C98.48 91.82 97.14 93.16 95.5 93.16H4.5C2.84 93.16 1.5 91.82 1.5 90.18V14.02C1.5 12.38 2.84 11.04 4.5 11.04H14.52V9.52H4.5C2.02 9.52 0 11.54 0 14.02V90.18C0 92.66 2.02 94.68 4.5 94.68H95.5C97.98 94.68 100 92.66 100 90.18V14.02C100 11.54 97.98 9.52 95.5 9.52ZM64.56 9.52V11.04H77.22V9.52H64.56ZM22.76 9.52V11.04H35.42V9.52H22.76Z" fill="#4279B6"/>
  <path d="M20.78 5H16.52C15.42 5 14.52 5.88 14.52 6.98V21.74C14.52 22.84 15.42 23.74 16.52 23.74H20.78C21.86 23.74 22.76 22.84 22.76 21.74V6.98C22.76 5.88 21.86 5 20.78 5ZM21.24 21.74C21.24 22 21.02 22.22 20.78 22.22H16.52C16.26 22.22 16.04 22 16.04 21.74V6.98C16.04 6.72 16.26 6.52 16.52 6.52H20.78C21.02 6.52 21.24 6.72 21.24 6.98V21.74Z" fill="#2D557F"/>
  <path d="M41.68 5H37.42C36.32 5 35.42 5.88 35.42 6.98V21.74C35.42 22.84 36.32 23.74 37.42 23.74H41.68C42.76 23.74 43.66 22.84 43.66 21.74V6.98C43.66 5.88 42.76 5 41.68 5ZM42.14 21.74C42.14 22 41.92 22.22 41.68 22.22H37.42C37.16 22.22 36.94 22 36.94 21.74V6.98C36.94 6.72 37.16 6.52 37.42 6.52H41.68C41.92 6.52 42.14 6.72 42.14 6.98V21.74Z" fill="#2D557F"/>
  <path d="M62.58 5H58.32C57.22 5 56.32 5.88 56.32 6.98V21.74C56.32 22.84 57.22 23.74 58.32 23.74H62.58C63.66 23.74 64.56 22.84 64.56 21.74V6.98C64.56 5.88 63.66 5 62.58 5ZM63.04 21.74C63.04 22 62.82 22.22 62.58 22.22H58.32C58.06 22.22 57.84 22 57.84 21.74V6.98C57.84 6.72 58.06 6.52 58.32 6.52H62.58C62.82 6.52 63.04 6.72 63.04 6.98V21.74Z" fill="#2D557F"/>
  <path d="M83.48 5H79.22C78.12 5 77.22 5.88 77.22 6.98V21.74C77.22 22.84 78.12 23.74 79.22 23.74H83.48C84.56 23.74 85.46 22.84 85.46 21.74V6.98C85.46 5.88 84.56 5 83.48 5ZM83.94 21.74C83.94 22 83.72 22.22 83.48 22.22H79.22C78.96 22.22 78.74 22 78.74 21.74V6.98C78.74 6.72 78.96 6.52 79.22 6.52H83.48C83.72 6.52 83.94 6.72 83.94 6.98V21.74Z" fill="#2D557F"/>
  <path d="M93.96 30.38H6.03002C5.61002 30.38 5.27002 30.72 5.27002 31.14C5.27002 31.56 5.61002 31.9 6.03002 31.9H93.95C94.37 31.9 94.71 31.56 94.71 31.14C94.71 30.72 94.37 30.38 93.95 30.38H93.96Z" fill="#2D557F"/>
  <path d="M25.06 39.44H11.02C9.84003 39.44 8.90002 40.4 8.90002 41.56V55.6C8.90002 56.78 9.84003 57.72 11.02 57.72H25.06C26.24 57.72 27.18 56.78 27.18 55.6V41.56C27.18 40.4 26.24 39.44 25.06 39.44ZM25.66 55.6C25.66 55.94 25.4 56.2 25.06 56.2H11.02C10.68 56.2 10.42 55.94 10.42 55.6V41.56C10.42 41.22 10.68 40.96 11.02 40.96H25.06C25.4 40.96 25.66 41.22 25.66 41.56V55.6Z" fill="#4279B6"/>
  <path d="M46.36 39.44H32.32C31.16 39.44 30.2 40.4 30.2 41.56V55.6C30.2 56.78 31.16 57.72 32.32 57.72H46.36C47.54 57.72 48.48 56.78 48.48 55.6V41.56C48.48 40.4 47.54 39.44 46.36 39.44ZM46.98 55.6C46.98 55.94 46.7 56.2 46.36 56.2H32.32C31.98 56.2 31.72 55.94 31.72 55.6V41.56C31.72 41.22 31.98 40.96 32.32 40.96H46.36C46.7 40.96 46.98 41.22 46.98 41.56V55.6Z" fill="#4279B6"/>
  <path d="M67.66 39.44H53.62C52.46 39.44 51.5 40.4 51.5 41.56V55.6C51.5 56.78 52.46 57.72 53.62 57.72H67.66C68.84 57.72 69.78 56.78 69.78 55.6V41.56C69.78 40.4 68.84 39.44 67.66 39.44ZM68.28 55.6C68.28 55.94 68 56.2 67.66 56.2H53.62C53.28 56.2 53.02 55.94 53.02 55.6V41.56C53.02 41.22 53.28 40.96 53.62 40.96H67.66C68 40.96 68.28 41.22 68.28 41.56V55.6Z" fill="#2D557F"/>
  <path d="M88.98 39.44H74.92C73.76 39.44 72.8 40.4 72.8 41.56V55.6C72.8 56.78 73.76 57.72 74.92 57.72H88.98C90.14 57.72 91.08 56.78 91.08 55.6V41.56C91.08 40.4 90.14 39.44 88.98 39.44ZM89.58 55.6C89.58 55.94 89.3 56.2 88.98 56.2H74.92C74.58 56.2 74.32 55.94 74.32 55.6V41.56C74.32 41.22 74.58 40.96 74.92 40.96H88.98C89.3 40.96 89.58 41.22 89.58 41.56V55.6Z" fill="#4279B6"/>
  <path d="M25.06 65.28H11.02C9.84003 65.28 8.90002 66.22 8.90002 67.4V81.44C8.90002 82.6 9.84003 83.56 11.02 83.56H25.06C26.24 83.56 27.18 82.6 27.18 81.44V67.4C27.18 66.22 26.24 65.28 25.06 65.28ZM25.66 81.44C25.66 81.78 25.4 82.04 25.06 82.04H11.02C10.68 82.04 10.42 81.78 10.42 81.44V67.4C10.42 67.06 10.68 66.78 11.02 66.78H25.06C25.4 66.78 25.66 67.06 25.66 67.4V81.44Z" fill="#4279B6"/>
  <path d="M67.66 65.28H53.62C52.46 65.28 51.5 66.22 51.5 67.4V81.44C51.5 82.6 52.46 83.56 53.62 83.56H67.66C68.84 83.56 69.78 82.6 69.78 81.44V67.4C69.78 66.22 68.84 65.28 67.66 65.28ZM68.28 81.44C68.28 81.78 68 82.04 67.66 82.04H53.62C53.28 82.04 53.02 81.78 53.02 81.44V67.4C53.02 67.06 53.28 66.78 53.62 66.78H67.66C68 66.78 68.28 67.06 68.28 67.4V81.44Z" fill="#4279B6"/>
  <path d="M88.98 65.28H74.92C73.76 65.28 72.8 66.22 72.8 67.4V81.44C72.8 82.6 73.76 83.56 74.92 83.56H88.98C90.14 83.56 91.08 82.6 91.08 81.44V67.4C91.08 66.22 90.14 65.28 88.98 65.28ZM89.58 81.44C89.58 81.78 89.3 82.04 88.98 82.04H74.92C74.58 82.04 74.32 81.78 74.32 81.44V67.4C74.32 67.06 74.58 66.78 74.92 66.78H88.98C89.3 66.78 89.58 67.06 89.58 67.4V81.44Z" fill="#4279B6"/>
  <path d="M59.18 52.51C58.99 52.51 58.79 52.44 58.64 52.29L55.12 48.77C54.82 48.47 54.82 47.99 55.12 47.7C55.42 47.4 55.9 47.4 56.19 47.7L59.18 50.69L65.09 44.87C65.39 44.58 65.87 44.58 66.16 44.87C66.45 45.17 66.45 45.65 66.16 45.94L59.71 52.28C59.56 52.42 59.37 52.5 59.18 52.5V52.51Z" fill="#2D557F"/>
  <path d="M46.36 65.28H32.32C31.16 65.28 30.2 66.22 30.2 67.4V81.44C30.2 82.6 31.16 83.56 32.32 83.56H46.36C47.54 83.56 48.48 82.6 48.48 81.44V67.4C48.48 66.22 47.54 65.28 46.36 65.28ZM46.98 81.44C46.98 81.78 46.7 82.04 46.36 82.04H32.32C31.98 82.04 31.72 81.78 31.72 81.44V67.4C31.72 67.06 31.98 66.78 32.32 66.78H46.36C46.7 66.78 46.98 67.06 46.98 67.4V81.44Z" fill="#2D557F"/>
  <path d="M37.88 78.35C37.69 78.35 37.49 78.28 37.34 78.13L33.82 74.61C33.52 74.31 33.52 73.83 33.82 73.54C34.12 73.24 34.6 73.24 34.89 73.54L37.88 76.53L43.79 70.71C44.09 70.42 44.57 70.42 44.86 70.71C45.15 71.01 45.15 71.49 44.86 71.78L38.41 78.12C38.26 78.26 38.07 78.34 37.88 78.34V78.35Z" fill="#2D557F"/>
</svg>
