<svg xmlns="http://www.w3.org/2000/svg" width="100" height="100" viewBox="0 0 100 100" fill="none">
  <path d="M99.27 11.45V55.62H0.729996V11.45C0.729996 9.38 2.41 7.7 4.48 7.7H95.53C97.6 7.7 99.27 9.37 99.27 11.44V11.45Z" fill="white"/>
  <path d="M99.27 56.32H0.729999C0.339999 56.32 0.0299988 56 0.0299988 55.62V11.45C0.0299988 8.99 2.02 7 4.48 7H95.53C97.98 7 99.98 8.99 99.98 11.45V55.62C99.98 56.01 99.66 56.32 99.28 56.32H99.27ZM1.44 54.91H98.56V11.45C98.56 9.78 97.2 8.41 95.52 8.41H4.48C2.81 8.41 1.44 9.77 1.44 11.45V54.91Z" fill="#0E1721"/>
  <path d="M99.27 55.61V87.63C99.27 89.7 97.59 91.37 95.53 91.37H4.48C2.41 91.37 0.739998 89.69 0.739998 87.63V55.61H99.27Z" fill="#4279B6"/>
  <path d="M95.52 92.11H4.48C2.01 92.11 0 90.1 0 87.63V55.61C0 55.2 0.33 54.88 0.73 54.88H99.26C99.67 54.88 99.99 55.21 99.99 55.61V87.63C99.99 90.1 97.98 92.11 95.51 92.11H95.52ZM1.47 56.35V87.64C1.47 89.3 2.82 90.65 4.48 90.65H95.53C97.19 90.65 98.54 89.3 98.54 87.64V56.35H1.47Z" fill="#0E1721"/>
  <path d="M79.71 36.21H20.29C19.88 36.21 19.56 35.88 19.56 35.48C19.56 35.08 19.89 34.75 20.29 34.75H79.71C80.12 34.75 80.44 35.08 80.44 35.48C80.44 35.88 80.11 36.21 79.71 36.21Z" fill="#0E1721"/>
  <path d="M50 69.63H20.29C19.88 69.63 19.56 69.3 19.56 68.9C19.56 68.5 19.89 68.17 20.29 68.17H50C50.41 68.17 50.73 68.5 50.73 68.9C50.73 69.3 50.4 69.63 50 69.63Z" fill="#0E1721"/>
  <path d="M50 74.82H20.29C19.88 74.82 19.56 74.49 19.56 74.09C19.56 73.69 19.89 73.36 20.29 73.36H50C50.41 73.36 50.73 73.69 50.73 74.09C50.73 74.49 50.4 74.82 50 74.82Z" fill="#0E1721"/>
  <path d="M79.71 42.42H20.29C19.88 42.42 19.56 42.09 19.56 41.69C19.56 41.29 19.89 40.96 20.29 40.96H79.71C80.12 40.96 80.44 41.29 80.44 41.69C80.44 42.09 80.11 42.42 79.71 42.42Z" fill="#0E1721"/>
  <path d="M75.55 83.83C75.42 83.79 74.93 83.86 74.67 83.9C73.81 84.02 72.74 84.16 71.82 83.49C70.89 82.82 70.7 81.75 70.55 80.89C70.5 80.62 70.42 80.16 70.34 80.04C70.25 79.94 69.85 79.72 69.61 79.59C68.83 79.18 67.87 78.66 67.52 77.56C67.44 77.31 67.4 77.05 67.4 76.79C67.4 76.02 67.72 75.35 68.01 74.76C68.14 74.49 68.35 74.05 68.35 73.9C68.35 73.75 68.13 73.29 68.01 73.05C67.72 72.45 67.4 71.78 67.4 71.01C67.4 70.74 67.44 70.48 67.52 70.23C67.88 69.13 68.84 68.62 69.61 68.2C69.84 68.08 70.25 67.86 70.35 67.75C70.42 67.64 70.5 67.18 70.55 66.9C70.71 66.04 70.9 64.97 71.82 64.3C72.74 63.63 73.81 63.78 74.67 63.89C74.96 63.93 75.42 63.99 75.56 63.95C75.68 63.9 76 63.59 76.19 63.41C76.79 62.83 77.62 62.04 78.79 62.04C79.96 62.04 80.75 62.8 81.39 63.41C81.57 63.58 81.9 63.91 82.03 63.96C82.16 63.99 82.63 63.93 82.91 63.89C83.78 63.77 84.85 63.63 85.77 64.3C86.7 64.97 86.89 66.04 87.04 66.9C87.09 67.18 87.17 67.64 87.25 67.76C87.34 67.86 87.74 68.08 87.98 68.2C88.76 68.62 89.72 69.13 90.08 70.23C90.16 70.48 90.2 70.74 90.2 71C90.2 71.77 89.88 72.44 89.59 73.04C89.46 73.3 89.25 73.74 89.25 73.89C89.25 74.04 89.47 74.5 89.59 74.74C89.88 75.34 90.2 76.01 90.2 76.78C90.2 77.05 90.16 77.31 90.08 77.55C89.72 78.65 88.72 79.19 87.98 79.58C87.74 79.71 87.33 79.93 87.24 80.03C87.17 80.14 87.09 80.6 87.04 80.88C86.88 81.74 86.69 82.81 85.77 83.48C84.85 84.15 83.78 84 82.92 83.89C82.66 83.85 82.17 83.79 82.02 83.83C81.9 83.88 81.58 84.19 81.39 84.37C80.75 84.98 79.96 85.74 78.79 85.74C77.62 85.74 76.79 84.95 76.19 84.37C76 84.18 75.68 83.88 75.55 83.82V83.83Z" fill="#FCCD2A"/>
  <path d="M78.79 86.43C77.35 86.43 76.37 85.49 75.73 84.87C75.55 84.7 75.42 84.58 75.34 84.5C75.17 84.51 74.89 84.55 74.78 84.57C73.84 84.7 72.57 84.87 71.43 84.04C70.29 83.21 70.06 81.94 69.89 81.02C69.87 80.91 69.82 80.63 69.78 80.46C69.64 80.37 69.4 80.25 69.3 80.19C68.46 79.74 67.32 79.13 66.88 77.78C66.78 77.47 66.73 77.14 66.73 76.8C66.73 75.88 67.1 75.1 67.4 74.48C67.46 74.35 67.6 74.07 67.66 73.91C67.62 73.8 67.53 73.61 67.41 73.35C67.11 72.72 66.73 71.94 66.73 71.02C66.73 70.68 66.78 70.35 66.88 70.04C67.32 68.68 68.46 68.07 69.3 67.63C69.4 67.57 69.64 67.45 69.79 67.36C69.83 67.19 69.88 66.91 69.9 66.81C70.07 65.88 70.3 64.62 71.44 63.78C72.58 62.95 73.85 63.12 74.77 63.25C74.88 63.26 75.17 63.3 75.35 63.32C75.48 63.21 75.67 63.03 75.74 62.95C76.39 62.33 77.36 61.39 78.81 61.39C80.26 61.39 81.19 62.29 81.87 62.95C82.05 63.12 82.18 63.24 82.27 63.32C82.45 63.31 82.73 63.27 82.84 63.25C83.77 63.12 85.04 62.95 86.18 63.78C87.32 64.61 87.55 65.88 87.72 66.8C87.74 66.93 87.79 67.2 87.83 67.36C87.98 67.45 88.22 67.58 88.31 67.63C89.15 68.08 90.29 68.69 90.73 70.05C90.83 70.36 90.88 70.69 90.88 71.03C90.88 71.95 90.5 72.73 90.2 73.36C90.14 73.49 90.01 73.76 89.95 73.92C90.01 74.09 90.15 74.37 90.2 74.48C90.5 75.11 90.88 75.89 90.88 76.81C90.88 77.15 90.83 77.48 90.73 77.79C90.29 79.15 89.1 79.79 88.31 80.21C88.2 80.27 87.97 80.39 87.83 80.48C87.79 80.65 87.74 80.93 87.72 81.03C87.55 81.96 87.32 83.22 86.18 84.06C85.04 84.89 83.78 84.72 82.85 84.59C82.73 84.57 82.45 84.54 82.27 84.52C82.14 84.63 81.95 84.81 81.88 84.89C81.2 85.55 80.26 86.45 78.82 86.45L78.79 86.43ZM75.42 83.15C75.54 83.15 75.64 83.16 75.72 83.18C75.75 83.18 75.78 83.2 75.8 83.21C76.01 83.3 76.24 83.5 76.64 83.89C77.19 84.42 77.87 85.08 78.77 85.08C79.67 85.08 80.3 84.48 80.9 83.89C81.32 83.48 81.53 83.3 81.73 83.21C81.76 83.2 81.79 83.19 81.82 83.18C82.05 83.11 82.36 83.14 82.97 83.22C83.77 83.33 84.65 83.44 85.35 82.94C86.06 82.43 86.21 81.58 86.36 80.76C86.47 80.17 86.53 79.87 86.66 79.68C86.68 79.65 86.7 79.63 86.72 79.6C86.87 79.43 87.12 79.27 87.64 78.99C88.32 78.63 89.15 78.19 89.42 77.34C89.48 77.16 89.51 76.97 89.51 76.77C89.51 76.15 89.23 75.58 88.97 75.02C88.69 74.44 88.57 74.14 88.56 73.89C88.56 73.88 88.56 73.87 88.56 73.86C88.56 73.61 88.68 73.33 88.96 72.75C89.24 72.17 89.51 71.6 89.51 70.98C89.51 70.78 89.48 70.59 89.42 70.41C89.15 69.57 88.38 69.16 87.64 68.76C87.12 68.48 86.86 68.33 86.72 68.16C86.7 68.14 86.68 68.11 86.67 68.09C86.54 67.89 86.47 67.6 86.37 67.01C86.23 66.21 86.07 65.33 85.36 64.81C84.66 64.3 83.77 64.42 82.99 64.52C82.37 64.6 82.07 64.63 81.85 64.57C81.82 64.57 81.79 64.55 81.76 64.54C81.58 64.46 81.38 64.3 80.92 63.86C80.34 63.31 79.69 62.68 78.79 62.68C77.89 62.68 77.21 63.34 76.66 63.87C76.24 64.28 76.03 64.46 75.83 64.55C75.8 64.56 75.77 64.57 75.74 64.58C75.51 64.64 75.19 64.62 74.58 64.54C73.8 64.43 72.92 64.31 72.21 64.83C71.5 65.35 71.34 66.23 71.2 67.01C71.09 67.6 71.03 67.9 70.9 68.09C70.88 68.12 70.87 68.14 70.85 68.16C70.7 68.34 70.45 68.49 69.93 68.77C69.21 69.15 68.41 69.58 68.14 70.42C68.08 70.6 68.05 70.79 68.05 70.99C68.05 71.6 68.33 72.18 68.59 72.74C68.86 73.3 68.99 73.61 69 73.87C69 73.88 69 73.89 69 73.9C69 74.15 68.88 74.43 68.6 75.02C68.33 75.59 68.05 76.17 68.05 76.78C68.05 76.98 68.08 77.17 68.14 77.34C68.41 78.18 69.18 78.59 69.91 78.99C70.44 79.28 70.69 79.42 70.83 79.59C70.85 79.61 70.87 79.64 70.89 79.67C71.02 79.87 71.09 80.17 71.19 80.76C71.33 81.54 71.49 82.42 72.2 82.94C72.9 83.45 73.79 83.33 74.57 83.23C74.96 83.18 75.22 83.15 75.42 83.15Z" fill="#0E1721"/>
  <path d="M20.24 28.32C19.71 27.89 19.39 27.26 19.29 26.42C19.27 26.24 19.24 25.96 19.21 25.56C19.18 25.15 19.16 24.86 19.15 24.68C19.12 23.84 19.34 23.16 19.81 22.66C20.28 22.15 20.98 21.87 21.89 21.8C22.48 21.76 23.01 21.82 23.46 21.99C23.91 22.16 24.27 22.41 24.53 22.74C24.79 23.07 24.94 23.45 24.98 23.88C24.98 23.88 24.98 23.89 24.98 23.9C24.98 23.95 24.96 24 24.92 24.04C24.88 24.08 24.83 24.1 24.78 24.1C24.46 24.12 24.15 24.14 23.83 24.16C23.75 24.16 23.69 24.16 23.65 24.12C23.61 24.09 23.57 24.03 23.54 23.94C23.41 23.53 23.21 23.26 22.95 23.11C22.69 22.96 22.36 22.9 21.94 22.93C20.98 23 20.52 23.56 20.56 24.62C20.56 24.8 20.58 25.07 20.61 25.44C20.64 25.81 20.66 26.09 20.68 26.27C20.8 27.32 21.33 27.81 22.28 27.74C22.69 27.71 23.01 27.6 23.24 27.42C23.48 27.23 23.63 26.93 23.7 26.52C23.71 26.43 23.74 26.36 23.78 26.33C23.82 26.29 23.88 26.27 23.96 26.27C24.27 26.25 24.59 26.23 24.9 26.21C24.96 26.21 25.01 26.22 25.06 26.26C25.11 26.3 25.13 26.34 25.12 26.4C25.13 26.83 25.03 27.23 24.82 27.59C24.61 27.95 24.29 28.24 23.87 28.47C23.45 28.7 22.95 28.83 22.36 28.88C21.45 28.94 20.74 28.76 20.21 28.34L20.24 28.32Z" fill="#0E1721"/>
  <path d="M26.53 28.42C26.53 28.42 26.45 28.32 26.45 28.26C26.32 26.13 26.19 23.99 26.06 21.86C26.06 21.79 26.07 21.73 26.11 21.68C26.15 21.63 26.21 21.61 26.28 21.6C27.75 21.51 29.22 21.43 30.69 21.36C30.76 21.36 30.82 21.38 30.87 21.42C30.92 21.46 30.94 21.52 30.95 21.59C30.96 21.81 30.97 22.02 30.98 22.24C30.98 22.31 30.96 22.37 30.92 22.42C30.88 22.46 30.82 22.49 30.74 22.49C29.64 22.54 28.55 22.6 27.45 22.66C27.48 23.24 27.52 23.82 27.55 24.4C28.57 24.34 29.59 24.29 30.61 24.24C30.68 24.24 30.74 24.25 30.79 24.3C30.84 24.34 30.86 24.4 30.87 24.47C30.87 24.67 30.89 24.88 30.9 25.08C30.9 25.15 30.88 25.21 30.84 25.26C30.8 25.3 30.74 25.33 30.66 25.33C29.64 25.38 28.63 25.43 27.61 25.49C27.64 26.09 27.68 26.69 27.71 27.29C28.82 27.23 29.93 27.17 31.04 27.11C31.11 27.11 31.17 27.13 31.22 27.17C31.27 27.21 31.29 27.27 31.3 27.34C31.31 27.56 31.32 27.77 31.33 27.99C31.33 28.06 31.31 28.12 31.27 28.17C31.23 28.22 31.17 28.24 31.1 28.24C29.63 28.31 28.16 28.39 26.69 28.48C26.62 28.48 26.57 28.46 26.52 28.42H26.53Z" fill="#0E1721"/>
  <path d="M32.66 28.1C32.66 28.1 32.59 28 32.58 27.94C32.48 25.8 32.39 23.67 32.29 21.53C32.29 21.46 32.31 21.4 32.35 21.35C32.39 21.3 32.45 21.28 32.52 21.27C33.39 21.23 34.25 21.2 35.12 21.16C35.94 21.13 36.58 21.29 37.06 21.65C37.54 22.01 37.79 22.53 37.81 23.22C37.83 23.7 37.72 24.11 37.49 24.44C37.26 24.77 36.95 25.02 36.53 25.18C37.04 26 37.55 26.82 38.06 27.64C38.08 27.68 38.09 27.71 38.09 27.75C38.09 27.81 38.07 27.86 38.03 27.9C37.99 27.94 37.94 27.96 37.89 27.96C37.59 27.96 37.29 27.98 36.99 27.99C36.88 27.99 36.8 27.97 36.75 27.93C36.69 27.89 36.64 27.82 36.59 27.74C36.14 26.98 35.69 26.21 35.23 25.45C34.77 25.47 34.31 25.49 33.85 25.5C33.88 26.29 33.92 27.08 33.95 27.86C33.95 27.93 33.93 27.98 33.89 28.03C33.85 28.08 33.79 28.1 33.72 28.11C33.42 28.12 33.12 28.14 32.82 28.15C32.75 28.15 32.7 28.13 32.65 28.09L32.66 28.1ZM35.22 24.34C35.62 24.33 35.92 24.23 36.11 24.04C36.31 23.86 36.4 23.6 36.39 23.26C36.38 22.93 36.27 22.67 36.06 22.49C35.85 22.31 35.55 22.23 35.14 22.25C34.67 22.27 34.2 22.29 33.73 22.31C33.76 23.01 33.79 23.7 33.82 24.4C34.29 24.38 34.76 24.36 35.22 24.34Z" fill="#0E1721"/>
  <path d="M40.74 27.82C40.74 27.82 40.67 27.72 40.67 27.65C40.63 25.83 40.58 24.02 40.54 22.2C39.92 22.21 39.31 22.23 38.69 22.25C38.62 22.25 38.57 22.23 38.52 22.19C38.47 22.15 38.45 22.09 38.45 22.02C38.45 21.78 38.44 21.53 38.43 21.29C38.43 21.22 38.45 21.16 38.49 21.11C38.53 21.06 38.59 21.04 38.66 21.04C40.37 20.99 42.07 20.95 43.78 20.93C43.85 20.93 43.91 20.95 43.96 21C44.01 21.05 44.03 21.1 44.03 21.18C44.03 21.42 44.03 21.67 44.04 21.91C44.04 21.98 44.02 22.03 43.97 22.08C43.92 22.13 43.86 22.15 43.79 22.15C43.18 22.15 42.56 22.17 41.95 22.18C41.99 24 42.02 25.81 42.06 27.63C42.06 27.7 42.04 27.75 41.99 27.8C41.94 27.85 41.89 27.87 41.81 27.87C41.51 27.87 41.21 27.88 40.9 27.89C40.83 27.89 40.78 27.87 40.73 27.82H40.74Z" fill="#0E1721"/>
  <path d="M45.19 27.74C45.19 27.74 45.12 27.64 45.12 27.57C45.09 25.43 45.07 23.29 45.04 21.15C45.04 21.08 45.06 21.02 45.11 20.98C45.16 20.94 45.21 20.91 45.28 20.91C45.59 20.91 45.91 20.91 46.22 20.9C46.29 20.9 46.35 20.92 46.4 20.96C46.44 21 46.47 21.06 46.47 21.13C46.49 23.27 46.51 25.41 46.53 27.55C46.53 27.62 46.51 27.67 46.47 27.72C46.43 27.77 46.37 27.79 46.3 27.79C45.99 27.79 45.68 27.79 45.37 27.8C45.3 27.8 45.25 27.78 45.2 27.73L45.19 27.74Z" fill="#0E1721"/>
  <path d="M48.14 27.72C48.14 27.72 48.07 27.62 48.07 27.55C48.06 25.41 48.05 23.27 48.04 21.14C48.04 21.07 48.06 21.01 48.1 20.96C48.14 20.91 48.2 20.89 48.28 20.89C49.73 20.89 51.18 20.89 52.64 20.89C52.71 20.89 52.77 20.91 52.82 20.96C52.87 21.01 52.89 21.07 52.89 21.14C52.89 21.37 52.89 21.6 52.89 21.83C52.89 21.9 52.87 21.96 52.82 22C52.77 22.04 52.71 22.06 52.64 22.06C51.57 22.06 50.5 22.06 49.43 22.06C49.43 22.68 49.43 23.31 49.43 23.93C50.43 23.93 51.43 23.93 52.43 23.93C52.5 23.93 52.56 23.95 52.61 24C52.66 24.05 52.68 24.11 52.68 24.18C52.68 24.41 52.68 24.64 52.68 24.87C52.68 24.94 52.66 25 52.61 25.04C52.56 25.08 52.5 25.1 52.43 25.1C51.43 25.1 50.44 25.1 49.44 25.1C49.44 25.91 49.44 26.73 49.44 27.54C49.44 27.61 49.42 27.67 49.37 27.71C49.32 27.75 49.27 27.77 49.19 27.77C48.9 27.77 48.61 27.77 48.32 27.77C48.25 27.77 48.2 27.75 48.15 27.7L48.14 27.72Z" fill="#0E1721"/>
  <path d="M54.06 27.73C54.06 27.73 53.99 27.63 53.99 27.56C54.01 25.42 54.03 23.28 54.06 21.14C54.06 21.07 54.08 21.01 54.13 20.97C54.18 20.93 54.23 20.91 54.3 20.91C54.61 20.91 54.93 20.91 55.24 20.92C55.31 20.92 55.37 20.94 55.41 20.99C55.45 21.03 55.47 21.09 55.47 21.16C55.44 23.3 55.41 25.44 55.38 27.58C55.38 27.65 55.36 27.7 55.31 27.75C55.27 27.8 55.21 27.82 55.14 27.82C54.83 27.82 54.52 27.82 54.21 27.81C54.14 27.81 54.09 27.79 54.04 27.74L54.06 27.73Z" fill="#0E1721"/>
  <path d="M57.51 27.25C57.02 26.77 56.77 26.11 56.75 25.27C56.75 25.09 56.75 24.8 56.75 24.4C56.75 23.99 56.77 23.7 56.78 23.51C56.83 22.67 57.11 22.02 57.63 21.56C58.15 21.1 58.87 20.88 59.78 20.9C60.38 20.91 60.89 21.03 61.33 21.24C61.77 21.45 62.1 21.74 62.33 22.09C62.56 22.44 62.67 22.84 62.67 23.27C62.67 23.27 62.67 23.28 62.67 23.29C62.67 23.34 62.65 23.39 62.6 23.42C62.56 23.45 62.51 23.47 62.45 23.47C62.13 23.47 61.82 23.45 61.5 23.44C61.42 23.44 61.36 23.42 61.32 23.39C61.28 23.36 61.25 23.29 61.23 23.2C61.14 22.78 60.97 22.49 60.72 22.31C60.48 22.14 60.15 22.04 59.74 22.03C58.78 22.01 58.27 22.53 58.21 23.58C58.2 23.76 58.19 24.03 58.18 24.4C58.18 24.77 58.18 25.05 58.18 25.24C58.2 26.3 58.68 26.84 59.63 26.86C60.04 26.87 60.37 26.79 60.62 26.63C60.87 26.47 61.05 26.18 61.16 25.78C61.18 25.69 61.22 25.63 61.26 25.6C61.3 25.57 61.37 25.55 61.45 25.56C61.76 25.56 62.08 25.58 62.39 25.59C62.45 25.59 62.5 25.61 62.54 25.65C62.58 25.69 62.6 25.74 62.59 25.8C62.56 26.23 62.42 26.62 62.18 26.96C61.93 27.3 61.59 27.56 61.15 27.75C60.71 27.94 60.2 28.02 59.61 28.01C58.7 27.99 58.01 27.74 57.52 27.26L57.51 27.25Z" fill="#0E1721"/>
  <path d="M63.04 27.94C63.04 27.94 62.98 27.85 62.98 27.79C62.98 27.76 63 27.73 63 27.7C63.86 25.61 64.74 23.52 65.63 21.44C65.68 21.28 65.8 21.2 65.99 21.21C66.35 21.22 66.72 21.24 67.08 21.26C67.25 21.26 67.37 21.35 67.42 21.52C68.13 23.67 68.83 25.83 69.52 27.98C69.52 28 69.52 28.03 69.52 28.07C69.52 28.13 69.49 28.18 69.45 28.21C69.41 28.25 69.36 28.26 69.31 28.26C69.02 28.25 68.74 28.23 68.45 28.22C68.37 28.22 68.3 28.19 68.26 28.15C68.22 28.11 68.19 28.06 68.18 28.02C68.04 27.61 67.91 27.21 67.77 26.8C66.79 26.76 65.81 26.71 64.83 26.68C64.66 27.07 64.49 27.47 64.32 27.86C64.26 27.98 64.17 28.04 64.03 28.04C63.74 28.03 63.46 28.02 63.17 28.01C63.12 28.01 63.07 27.99 63.03 27.95L63.04 27.94ZM67.49 25.65C67.16 24.62 66.82 23.59 66.49 22.56C66.07 23.56 65.65 24.56 65.24 25.56C65.99 25.59 66.74 25.62 67.49 25.65Z" fill="#0E1721"/>
  <path d="M71.31 28.29C71.31 28.29 71.25 28.18 71.25 28.12C71.35 26.31 71.45 24.49 71.55 22.68C70.93 22.65 70.32 22.61 69.7 22.58C69.63 22.58 69.58 22.55 69.53 22.5C69.49 22.45 69.47 22.4 69.47 22.33C69.48 22.09 69.49 21.84 69.51 21.6C69.51 21.53 69.54 21.47 69.58 21.43C69.63 21.39 69.69 21.37 69.76 21.37C71.46 21.46 73.17 21.55 74.87 21.66C74.94 21.66 75 21.69 75.05 21.74C75.09 21.79 75.11 21.85 75.11 21.92C75.09 22.16 75.08 22.41 75.06 22.65C75.06 22.72 75.03 22.77 74.98 22.81C74.93 22.85 74.87 22.87 74.8 22.87C74.19 22.83 73.57 22.79 72.96 22.76C72.85 24.57 72.75 26.39 72.64 28.2C72.64 28.27 72.61 28.32 72.56 28.36C72.51 28.4 72.45 28.42 72.38 28.42C72.08 28.4 71.78 28.39 71.47 28.37C71.4 28.37 71.35 28.34 71.31 28.29Z" fill="#0E1721"/>
  <path d="M75.75 28.56C75.75 28.56 75.69 28.45 75.69 28.39C75.83 26.26 75.97 24.12 76.11 21.99C76.11 21.92 76.14 21.86 76.19 21.82C76.24 21.78 76.3 21.76 76.37 21.76C77.84 21.86 79.31 21.96 80.78 22.08C80.85 22.08 80.91 22.11 80.95 22.16C80.99 22.21 81.01 22.27 81.01 22.34C80.99 22.56 80.98 22.77 80.96 22.99C80.96 23.06 80.93 23.12 80.88 23.16C80.83 23.2 80.77 23.22 80.7 23.21C79.6 23.12 78.51 23.04 77.41 22.97C77.37 23.55 77.33 24.13 77.29 24.71C78.31 24.78 79.33 24.86 80.34 24.93C80.41 24.93 80.47 24.96 80.51 25.01C80.55 25.06 80.57 25.12 80.57 25.19C80.55 25.39 80.54 25.6 80.52 25.8C80.52 25.87 80.49 25.93 80.44 25.97C80.39 26.01 80.33 26.03 80.26 26.02C79.25 25.94 78.23 25.87 77.22 25.8C77.18 26.4 77.14 27 77.1 27.6C78.21 27.68 79.32 27.76 80.43 27.85C80.5 27.85 80.56 27.88 80.6 27.93C80.64 27.98 80.66 28.04 80.66 28.11C80.64 28.33 80.63 28.54 80.61 28.76C80.61 28.83 80.58 28.89 80.53 28.93C80.48 28.97 80.42 28.99 80.35 28.98C78.88 28.87 77.41 28.76 75.94 28.66C75.87 28.66 75.82 28.63 75.78 28.58L75.75 28.56Z" fill="#0E1721"/>
</svg>
