<svg xmlns="http://www.w3.org/2000/svg" width="100" height="100" viewBox="0 0 100 100" fill="none">
  <path d="M99.27 11.45V55.62H0.730011V11.45C0.730011 9.38 2.41001 7.7 4.48001 7.7H95.53C97.6 7.7 99.27 9.37 99.27 11.44V11.45Z" fill="white"/>
  <path d="M99.27 56.32H0.729999C0.339999 56.32 0.0299988 56 0.0299988 55.62V11.45C0.0299988 8.99 2.02 7 4.48 7H95.53C97.98 7 99.98 8.99 99.98 11.45V55.62C99.98 56.01 99.66 56.32 99.28 56.32H99.27ZM1.44 54.91H98.56V11.45C98.56 9.78 97.2 8.41 95.52 8.41H4.48C2.81 8.41 1.44 9.77 1.44 11.45V54.91Z" fill="#0E1721"/>
  <path d="M99.27 55.61V87.63C99.27 89.7 97.59 91.37 95.53 91.37H4.47999C2.40999 91.37 0.73999 89.69 0.73999 87.63V55.61H99.27Z" fill="#4279B6"/>
  <path d="M95.52 92.11H4.48C2.01 92.11 0 90.1 0 87.63V55.61C0 55.2 0.33 54.88 0.73 54.88H99.26C99.67 54.88 99.99 55.21 99.99 55.61V87.63C99.99 90.1 97.98 92.11 95.51 92.11H95.52ZM1.47 56.35V87.64C1.47 89.3 2.82 90.65 4.48 90.65H95.53C97.19 90.65 98.54 89.3 98.54 87.64V56.35H1.47Z" fill="#0E1721"/>
  <path d="M82.18 26.89C82.18 26.89 82.11 26.89 82.07 26.89C60.79 24.88 39.21 24.88 17.93 26.89C17.31 26.95 16.76 26.49 16.7 25.87C16.64 25.25 17.1 24.7 17.72 24.64C39.14 22.62 60.87 22.62 82.29 24.64C82.91 24.7 83.36 25.25 83.31 25.87C83.25 26.45 82.76 26.89 82.19 26.89H82.18Z" fill="#FC8B27"/>
  <path d="M79.71 36.21H20.29C19.88 36.21 19.56 35.88 19.56 35.48C19.56 35.08 19.89 34.75 20.29 34.75H79.71C80.12 34.75 80.44 35.08 80.44 35.48C80.44 35.88 80.11 36.21 79.71 36.21Z" fill="#0E1721"/>
  <path d="M50 69.63H20.29C19.88 69.63 19.56 69.3 19.56 68.9C19.56 68.5 19.89 68.17 20.29 68.17H50C50.41 68.17 50.73 68.5 50.73 68.9C50.73 69.3 50.4 69.63 50 69.63Z" fill="#0E1721"/>
  <path d="M50 74.82H20.29C19.88 74.82 19.56 74.49 19.56 74.09C19.56 73.69 19.89 73.36 20.29 73.36H50C50.41 73.36 50.73 73.69 50.73 74.09C50.73 74.49 50.4 74.82 50 74.82Z" fill="#0E1721"/>
  <path d="M79.71 42.42H20.29C19.88 42.42 19.56 42.09 19.56 41.69C19.56 41.29 19.89 40.96 20.29 40.96H79.71C80.12 40.96 80.44 41.29 80.44 41.69C80.44 42.09 80.11 42.42 79.71 42.42Z" fill="#0E1721"/>
  <path d="M75.55 83.83C75.42 83.79 74.93 83.86 74.67 83.9C73.81 84.02 72.74 84.16 71.82 83.49C70.89 82.82 70.7 81.75 70.55 80.89C70.5 80.62 70.42 80.16 70.34 80.04C70.25 79.94 69.85 79.72 69.61 79.59C68.83 79.18 67.87 78.66 67.52 77.56C67.44 77.31 67.4 77.05 67.4 76.79C67.4 76.02 67.72 75.35 68.01 74.76C68.14 74.49 68.35 74.05 68.35 73.9C68.35 73.75 68.13 73.29 68.01 73.05C67.72 72.45 67.4 71.78 67.4 71.01C67.4 70.74 67.44 70.48 67.52 70.23C67.88 69.13 68.84 68.62 69.61 68.2C69.84 68.08 70.25 67.86 70.35 67.75C70.42 67.64 70.5 67.18 70.55 66.9C70.71 66.04 70.9 64.97 71.82 64.3C72.74 63.63 73.81 63.78 74.67 63.89C74.96 63.93 75.42 63.99 75.56 63.95C75.68 63.9 76 63.59 76.19 63.41C76.79 62.83 77.62 62.04 78.79 62.04C79.96 62.04 80.75 62.8 81.39 63.41C81.57 63.58 81.9 63.91 82.03 63.96C82.16 63.99 82.63 63.93 82.91 63.89C83.78 63.77 84.85 63.63 85.77 64.3C86.7 64.97 86.89 66.04 87.04 66.9C87.09 67.18 87.17 67.64 87.25 67.76C87.34 67.86 87.74 68.08 87.98 68.2C88.76 68.62 89.72 69.13 90.08 70.23C90.16 70.48 90.2 70.74 90.2 71C90.2 71.77 89.88 72.44 89.59 73.04C89.46 73.3 89.25 73.74 89.25 73.89C89.25 74.04 89.47 74.5 89.59 74.74C89.88 75.34 90.2 76.01 90.2 76.78C90.2 77.05 90.16 77.31 90.08 77.55C89.72 78.65 88.72 79.19 87.98 79.58C87.74 79.71 87.33 79.93 87.24 80.03C87.17 80.14 87.09 80.6 87.04 80.88C86.88 81.74 86.69 82.81 85.77 83.48C84.85 84.15 83.78 84 82.92 83.89C82.66 83.85 82.17 83.79 82.02 83.83C81.9 83.88 81.58 84.19 81.39 84.37C80.75 84.98 79.96 85.74 78.79 85.74C77.62 85.74 76.79 84.95 76.19 84.37C76 84.18 75.68 83.88 75.55 83.82V83.83Z" fill="#FCCD2A"/>
  <path d="M78.79 86.43C77.35 86.43 76.37 85.49 75.73 84.87C75.55 84.7 75.42 84.58 75.34 84.5C75.17 84.51 74.89 84.55 74.78 84.57C73.84 84.7 72.57 84.87 71.43 84.04C70.29 83.21 70.06 81.94 69.89 81.02C69.87 80.91 69.82 80.63 69.78 80.46C69.64 80.37 69.4 80.25 69.3 80.19C68.46 79.74 67.32 79.13 66.88 77.77C66.78 77.46 66.73 77.13 66.73 76.79C66.73 75.87 67.1 75.09 67.4 74.47C67.46 74.34 67.6 74.06 67.66 73.9C67.62 73.79 67.53 73.6 67.41 73.34C67.11 72.71 66.73 71.93 66.73 71.01C66.73 70.67 66.78 70.34 66.88 70.03C67.32 68.67 68.46 68.06 69.3 67.62C69.4 67.56 69.64 67.44 69.79 67.35C69.82 67.24 69.85 67.05 69.9 66.8C70.07 65.87 70.3 64.61 71.44 63.77C72.58 62.94 73.85 63.11 74.77 63.24C74.88 63.25 75.17 63.29 75.35 63.31C75.48 63.2 75.67 63.02 75.74 62.94C76.39 62.32 77.36 61.38 78.81 61.38C80.26 61.38 81.19 62.28 81.87 62.94C82.05 63.11 82.18 63.23 82.27 63.31C82.45 63.3 82.73 63.26 82.84 63.24C83.77 63.11 85.04 62.94 86.18 63.77C87.32 64.6 87.55 65.87 87.72 66.79C87.74 66.92 87.79 67.19 87.83 67.35C87.98 67.44 88.22 67.57 88.31 67.62C89.15 68.07 90.29 68.68 90.73 70.04C90.83 70.35 90.88 70.68 90.88 71.02C90.88 71.94 90.5 72.72 90.2 73.35C90.14 73.48 90.01 73.75 89.95 73.91C90.01 74.08 90.15 74.36 90.2 74.47C90.5 75.1 90.88 75.88 90.88 76.8C90.88 77.14 90.83 77.47 90.73 77.78C90.29 79.14 89.1 79.78 88.31 80.2C88.2 80.26 87.97 80.38 87.83 80.47C87.79 80.64 87.74 80.92 87.72 81.02C87.55 81.95 87.32 83.21 86.18 84.05C85.04 84.88 83.77 84.71 82.85 84.58C82.73 84.56 82.45 84.53 82.27 84.51C82.14 84.62 81.95 84.8 81.88 84.88C81.2 85.54 80.26 86.44 78.82 86.44L78.79 86.43ZM75.42 83.15C75.54 83.15 75.64 83.16 75.72 83.18C75.75 83.18 75.78 83.2 75.8 83.21C76.01 83.3 76.23 83.49 76.64 83.89C77.19 84.42 77.87 85.08 78.77 85.08C79.67 85.08 80.33 84.45 80.9 83.89C81.32 83.48 81.53 83.3 81.73 83.21C81.76 83.2 81.79 83.19 81.82 83.18C82.05 83.11 82.36 83.14 82.97 83.22C83.77 83.33 84.65 83.45 85.35 82.94C86.06 82.43 86.21 81.58 86.36 80.76C86.47 80.17 86.53 79.87 86.66 79.68C86.68 79.65 86.7 79.63 86.72 79.6C86.87 79.43 87.12 79.27 87.65 78.99C88.32 78.63 89.15 78.19 89.43 77.34C89.49 77.16 89.52 76.97 89.52 76.77C89.52 76.15 89.24 75.58 88.98 75.02C88.7 74.44 88.58 74.14 88.57 73.89C88.57 73.88 88.57 73.87 88.57 73.86C88.57 73.61 88.69 73.33 88.97 72.75C89.25 72.18 89.52 71.6 89.52 70.98C89.52 70.78 89.49 70.59 89.43 70.41C89.16 69.57 88.39 69.16 87.65 68.76C87.13 68.48 86.87 68.33 86.73 68.16C86.71 68.14 86.69 68.11 86.68 68.09C86.55 67.89 86.48 67.6 86.38 67.01C86.24 66.21 86.08 65.33 85.37 64.81C84.67 64.3 83.78 64.42 83 64.52C82.32 64.61 82.06 64.62 81.86 64.57C81.83 64.57 81.8 64.55 81.77 64.54C81.59 64.46 81.39 64.3 80.93 63.86C80.35 63.31 79.7 62.68 78.8 62.68C77.9 62.68 77.22 63.34 76.67 63.87C76.25 64.28 76.04 64.46 75.84 64.55C75.81 64.56 75.78 64.57 75.75 64.58C75.52 64.64 75.2 64.62 74.59 64.54C73.81 64.43 72.93 64.32 72.22 64.83C71.51 65.35 71.35 66.23 71.21 67.01C71.09 67.67 71.02 67.92 70.91 68.09C70.89 68.11 70.88 68.14 70.86 68.16C70.71 68.34 70.46 68.49 69.94 68.77C69.22 69.15 68.43 69.58 68.15 70.42C68.09 70.6 68.06 70.79 68.06 70.99C68.06 71.6 68.34 72.18 68.6 72.74C68.88 73.31 69 73.61 69.01 73.87C69.01 73.88 69.01 73.89 69.01 73.9C69.01 74.15 68.89 74.43 68.61 75.02C68.34 75.59 68.06 76.17 68.06 76.78C68.06 76.98 68.09 77.17 68.15 77.34C68.42 78.18 69.19 78.59 69.92 78.99C70.45 79.28 70.7 79.42 70.84 79.59C70.86 79.61 70.88 79.64 70.9 79.67C71.03 79.87 71.1 80.17 71.2 80.77C71.34 81.55 71.5 82.43 72.21 82.95C72.91 83.46 73.8 83.34 74.58 83.24C74.97 83.19 75.23 83.16 75.43 83.16L75.42 83.15Z" fill="#0E1721"/>
</svg>
