<svg xmlns="http://www.w3.org/2000/svg" width="100" height="100" viewBox="0 0 100 100" fill="none">
  <path d="M95.55 7H4.45C2 7 0 9 0 11.45V87.69C0 90.14 2 92.14 4.45 92.14H95.55C98 92.14 100 90.14 100 87.69V11.45C100 9 98 7 95.55 7ZM4.45 8.41H95.55C97.23 8.41 98.59 9.77 98.59 11.45V54.94H1.41V11.45C1.41 9.77 2.77 8.41 4.45 8.41ZM95.55 90.72H4.45C2.77 90.72 1.41 89.36 1.41 87.68V56.34H98.59V87.68C98.59 89.36 97.23 90.72 95.55 90.72Z" fill="#4279B6"/>
  <path d="M82.2 26.48C82.2 26.48 82.16 26.48 82.13 26.48C60.81 24.46 39.19 24.46 17.87 26.48C17.49 26.52 17.14 26.23 17.1 25.85C17.06 25.46 17.35 25.12 17.73 25.08C39.14 23.06 60.85 23.06 82.26 25.08C82.65 25.12 82.93 25.46 82.89 25.85C82.86 26.21 82.55 26.49 82.19 26.49L82.2 26.48Z" fill="#4279B6"/>
  <path d="M79.73 36.19H20.27C19.88 36.19 19.57 35.87 19.57 35.49C19.57 35.11 19.89 34.79 20.27 34.79H79.73C80.12 34.79 80.43 35.11 80.43 35.49C80.43 35.87 80.11 36.19 79.73 36.19Z" fill="#2D557F"/>
  <path d="M50 69.63H20.27C19.88 69.63 19.57 69.31 19.57 68.93C19.57 68.55 19.89 68.23 20.27 68.23H50C50.39 68.23 50.7 68.55 50.7 68.93C50.7 69.31 50.38 69.63 50 69.63Z" fill="#2D557F"/>
  <path d="M50 74.83H20.27C19.88 74.83 19.57 74.51 19.57 74.13C19.57 73.75 19.89 73.43 20.27 73.43H50C50.39 73.43 50.7 73.75 50.7 74.13C50.7 74.51 50.38 74.83 50 74.83Z" fill="#2D557F"/>
  <path d="M79.73 42.41H20.27C19.88 42.41 19.57 42.09 19.57 41.71C19.57 41.33 19.89 41.01 20.27 41.01H79.73C80.12 41.01 80.43 41.33 80.43 41.71C80.43 42.09 80.11 42.41 79.73 42.41Z" fill="#2D557F"/>
  <path d="M78.8 86.51C77.34 86.51 76.36 85.56 75.71 84.94C75.54 84.78 75.41 84.66 75.33 84.58C75.16 84.59 74.89 84.63 74.78 84.64C73.84 84.77 72.56 84.94 71.41 84.1C70.25 83.26 70.02 81.98 69.86 81.05C69.84 80.95 69.79 80.68 69.75 80.51C69.61 80.42 69.38 80.3 69.28 80.25C68.44 79.8 67.29 79.19 66.84 77.81C66.74 77.5 66.69 77.16 66.69 76.82C66.69 75.89 67.07 75.11 67.37 74.48C67.43 74.35 67.56 74.08 67.62 73.92C67.58 73.81 67.49 73.62 67.37 73.37C67.07 72.74 66.69 71.95 66.69 71.02C66.69 70.68 66.74 70.35 66.84 70.03C67.29 68.66 68.43 68.04 69.27 67.6C69.37 67.55 69.6 67.42 69.74 67.34C69.77 67.23 69.8 67.05 69.85 66.8C70.02 65.87 70.25 64.59 71.4 63.75C72.55 62.91 73.83 63.09 74.76 63.21C74.87 63.22 75.14 63.26 75.32 63.27C75.45 63.16 75.63 62.98 75.7 62.91C76.35 62.28 77.33 61.34 78.79 61.34C80.25 61.34 81.19 62.25 81.88 62.91C82.05 63.07 82.18 63.19 82.27 63.27C82.44 63.26 82.72 63.22 82.82 63.21C83.76 63.08 85.04 62.91 86.19 63.75C87.35 64.59 87.58 65.86 87.74 66.79C87.76 66.92 87.81 67.17 87.85 67.34C88 67.43 88.23 67.55 88.32 67.6C89.16 68.05 90.31 68.67 90.76 70.04C90.86 70.36 90.91 70.69 90.91 71.03C90.91 71.96 90.53 72.75 90.23 73.37C90.17 73.5 90.04 73.76 89.98 73.92C90.04 74.09 90.18 74.36 90.23 74.47C90.53 75.1 90.91 75.89 90.91 76.82C90.91 77.16 90.86 77.5 90.76 77.81C90.31 79.19 89.12 79.82 88.32 80.25C88.22 80.31 87.99 80.43 87.85 80.51C87.81 80.68 87.76 80.95 87.74 81.05C87.57 81.98 87.34 83.26 86.19 84.1C85.04 84.93 83.76 84.76 82.83 84.64C82.71 84.62 82.44 84.59 82.27 84.58C82.14 84.69 81.96 84.87 81.89 84.94C81.2 85.6 80.26 86.51 78.8 86.51ZM75.44 83.17C75.56 83.17 75.66 83.18 75.75 83.21C75.78 83.21 75.81 83.23 75.84 83.24C76.05 83.33 76.27 83.52 76.69 83.93C77.23 84.46 77.91 85.11 78.8 85.11C79.69 85.11 80.31 84.51 80.91 83.93C81.38 83.47 81.56 83.33 81.75 83.25C81.78 83.24 81.81 83.23 81.84 83.22C82.08 83.15 82.39 83.18 83 83.26C83.83 83.37 84.67 83.48 85.36 82.98C86.06 82.47 86.21 81.63 86.36 80.82C86.47 80.21 86.54 79.92 86.66 79.72C86.68 79.69 86.7 79.66 86.72 79.64C86.87 79.46 87.13 79.31 87.66 79.02C88.33 78.66 89.15 78.22 89.43 77.39C89.49 77.22 89.52 77.03 89.52 76.83C89.52 76.22 89.24 75.65 88.98 75.1C88.7 74.52 88.57 74.22 88.57 73.96C88.57 73.95 88.57 73.94 88.57 73.93C88.57 73.67 88.69 73.39 88.97 72.81C89.25 72.24 89.52 71.67 89.52 71.06C89.52 70.87 89.49 70.68 89.43 70.5C89.16 69.67 88.4 69.26 87.67 68.87C87.14 68.59 86.88 68.44 86.74 68.26C86.72 68.24 86.7 68.21 86.69 68.19C86.56 67.99 86.49 67.7 86.38 67.1C86.24 66.3 86.08 65.43 85.38 64.92C84.69 64.42 83.85 64.53 83.03 64.64C82.42 64.72 82.11 64.75 81.88 64.69C81.85 64.69 81.82 64.67 81.78 64.66C81.59 64.58 81.39 64.42 80.93 63.97C80.33 63.39 79.71 62.79 78.82 62.79C77.93 62.79 77.25 63.44 76.71 63.97C76.28 64.38 76.07 64.57 75.87 64.65C75.84 64.66 75.81 64.67 75.78 64.68C75.54 64.75 75.22 64.72 74.61 64.64C73.8 64.53 72.96 64.42 72.27 64.92C71.57 65.43 71.42 66.27 71.27 67.08C71.16 67.68 71.09 67.98 70.97 68.18C70.95 68.21 70.94 68.23 70.92 68.25C70.77 68.43 70.51 68.59 69.99 68.86C69.24 69.26 68.49 69.66 68.22 70.49C68.16 70.67 68.13 70.85 68.13 71.05C68.13 71.66 68.41 72.23 68.67 72.79C68.95 73.37 69.08 73.67 69.08 73.93C69.08 73.94 69.08 73.95 69.08 73.96C69.08 74.22 68.96 74.5 68.67 75.09C68.4 75.66 68.12 76.23 68.12 76.84C68.12 77.04 68.15 77.22 68.21 77.39C68.48 78.22 69.24 78.63 69.97 79.02C70.51 79.31 70.76 79.46 70.9 79.63C70.92 79.66 70.94 79.68 70.96 79.71C71.09 79.91 71.16 80.22 71.27 80.82C71.41 81.59 71.57 82.47 72.27 82.98C72.96 83.48 73.8 83.37 74.61 83.26C75 83.21 75.27 83.18 75.46 83.18L75.44 83.17Z" fill="#2D557F"/>
</svg>
