<svg xmlns="http://www.w3.org/2000/svg" width="100" height="100" viewBox="0 0 100 100" fill="none">
  <path d="M99.3 56.35H0.7C0.31 56.35 0 56.03 0 55.65C0 55.27 0.32 54.95 0.7 54.95H99.29C99.68 54.95 99.99 55.27 99.99 55.65C99.99 56.03 99.67 56.35 99.29 56.35H99.3Z" fill="#4279B6"/>
  <path d="M95.55 92.13H4.45C2 92.13 0 90.13 0 87.68V11.45C0 9 2 7 4.45 7H95.55C98 7 100 9 100 11.45V87.69C100 90.14 98 92.14 95.55 92.14V92.13ZM4.45 8.41C2.77 8.41 1.41 9.77 1.41 11.45V87.69C1.41 89.37 2.77 90.73 4.45 90.73H95.55C97.23 90.73 98.59 89.37 98.59 87.69V11.45C98.59 9.77 97.23 8.41 95.55 8.41H4.45Z" fill="#4279B6"/>
  <path d="M79.73 36.19H20.27C19.88 36.19 19.57 35.87 19.57 35.49C19.57 35.11 19.89 34.79 20.27 34.79H79.73C80.12 34.79 80.43 35.11 80.43 35.49C80.43 35.87 80.11 36.19 79.73 36.19Z" fill="#2D557F"/>
  <path d="M50 69.63H20.27C19.88 69.63 19.57 69.31 19.57 68.93C19.57 68.55 19.89 68.23 20.27 68.23H50C50.39 68.23 50.7 68.55 50.7 68.93C50.7 69.31 50.38 69.63 50 69.63Z" fill="#2D557F"/>
  <path d="M50 74.83H20.27C19.88 74.83 19.57 74.51 19.57 74.13C19.57 73.75 19.89 73.43 20.27 73.43H50C50.39 73.43 50.7 73.75 50.7 74.13C50.7 74.51 50.38 74.83 50 74.83Z" fill="#2D557F"/>
  <path d="M79.73 42.41H20.27C19.88 42.41 19.57 42.09 19.57 41.71C19.57 41.33 19.89 41.01 20.27 41.01H79.73C80.12 41.01 80.43 41.33 80.43 41.71C80.43 42.09 80.11 42.41 79.73 42.41Z" fill="#2D557F"/>
  <path d="M78.8 86.51C77.34 86.51 76.36 85.56 75.71 84.94C75.64 84.87 75.45 84.69 75.33 84.58C75.16 84.59 74.89 84.63 74.78 84.64C73.83 84.77 72.56 84.94 71.41 84.1C70.25 83.26 70.02 81.98 69.86 81.05C69.84 80.95 69.79 80.68 69.75 80.51C69.61 80.42 69.38 80.3 69.28 80.25C68.44 79.8 67.29 79.18 66.84 77.81C66.74 77.5 66.69 77.16 66.69 76.82C66.69 75.89 67.07 75.11 67.37 74.48C67.43 74.35 67.56 74.08 67.62 73.92C67.58 73.81 67.49 73.62 67.37 73.37C67.07 72.74 66.69 71.95 66.69 71.02C66.69 70.68 66.74 70.35 66.84 70.03C67.28 68.66 68.43 68.05 69.27 67.6C69.37 67.55 69.6 67.42 69.74 67.34C69.78 67.17 69.83 66.91 69.85 66.8C70.02 65.87 70.25 64.59 71.4 63.75C72.55 62.91 73.83 63.09 74.76 63.21C74.87 63.22 75.14 63.26 75.32 63.27C75.45 63.16 75.63 62.98 75.7 62.91C76.35 62.28 77.33 61.34 78.79 61.34C80.25 61.34 81.19 62.25 81.88 62.91C82.05 63.07 82.18 63.19 82.27 63.27C82.39 63.27 82.57 63.24 82.82 63.21C83.76 63.08 85.04 62.91 86.19 63.75C87.35 64.59 87.57 65.86 87.74 66.79C87.76 66.92 87.81 67.17 87.85 67.34C88 67.43 88.23 67.55 88.32 67.6C89.16 68.05 90.31 68.67 90.76 70.04C90.86 70.36 90.91 70.69 90.91 71.03C90.91 71.96 90.53 72.75 90.23 73.37C90.17 73.5 90.04 73.76 89.98 73.92C90.04 74.09 90.18 74.36 90.23 74.46C90.54 75.1 90.91 75.88 90.91 76.81C90.91 77.15 90.86 77.49 90.76 77.8C90.31 79.18 89.12 79.81 88.32 80.24C88.22 80.3 87.99 80.42 87.85 80.5C87.81 80.67 87.76 80.94 87.74 81.04C87.57 81.97 87.34 83.25 86.19 84.09C85.04 84.92 83.76 84.75 82.83 84.63C82.71 84.61 82.44 84.58 82.27 84.57C82.14 84.68 81.96 84.86 81.89 84.93C81.2 85.59 80.26 86.5 78.8 86.5V86.51ZM75.44 83.17C75.56 83.17 75.66 83.18 75.75 83.21C75.78 83.21 75.81 83.23 75.84 83.24C76.05 83.33 76.27 83.52 76.69 83.93C77.23 84.46 77.91 85.11 78.8 85.11C79.69 85.11 80.31 84.51 80.91 83.93C81.34 83.52 81.55 83.33 81.75 83.25C81.78 83.24 81.81 83.23 81.84 83.22C82.08 83.15 82.39 83.18 83.01 83.26C83.84 83.37 84.68 83.48 85.37 82.98C86.07 82.47 86.22 81.63 86.37 80.82C86.48 80.21 86.55 79.92 86.67 79.72C86.69 79.69 86.71 79.66 86.73 79.64C86.88 79.46 87.14 79.31 87.66 79.03C88.33 78.67 89.16 78.23 89.43 77.4C89.49 77.23 89.52 77.04 89.52 76.84C89.52 76.23 89.24 75.66 88.98 75.11C88.7 74.53 88.57 74.23 88.57 73.97C88.57 73.96 88.57 73.95 88.57 73.94C88.57 73.68 88.69 73.4 88.97 72.82C89.25 72.25 89.52 71.67 89.52 71.06C89.52 70.87 89.49 70.68 89.43 70.5C89.16 69.67 88.4 69.26 87.67 68.87C87.13 68.58 86.88 68.44 86.74 68.26C86.72 68.24 86.7 68.21 86.69 68.19C86.56 67.99 86.49 67.7 86.38 67.1C86.24 66.3 86.08 65.43 85.38 64.92C84.69 64.42 83.85 64.53 83.03 64.64C82.42 64.72 82.11 64.75 81.88 64.69C81.85 64.69 81.82 64.67 81.78 64.66C81.59 64.58 81.39 64.42 80.93 63.97C80.33 63.39 79.71 62.79 78.82 62.79C77.93 62.79 77.25 63.44 76.71 63.97C76.28 64.38 76.07 64.57 75.87 64.65C75.84 64.66 75.81 64.67 75.78 64.68C75.54 64.75 75.22 64.72 74.61 64.64C73.8 64.53 72.96 64.42 72.27 64.92C71.57 65.43 71.42 66.27 71.27 67.08C71.16 67.68 71.09 67.98 70.97 68.18C70.95 68.21 70.93 68.23 70.91 68.26C70.76 68.44 70.5 68.6 69.98 68.87C69.23 69.27 68.48 69.67 68.21 70.5C68.15 70.68 68.12 70.86 68.12 71.06C68.12 71.67 68.4 72.24 68.66 72.8C68.93 73.37 69.07 73.68 69.07 73.94C69.07 73.95 69.07 73.96 69.07 73.97C69.07 74.23 68.95 74.51 68.66 75.1C68.39 75.67 68.11 76.24 68.11 76.85C68.11 77.04 68.14 77.23 68.2 77.4C68.47 78.23 69.23 78.64 69.96 79.03C70.5 79.32 70.75 79.47 70.89 79.64C70.91 79.67 70.93 79.69 70.95 79.72C71.08 79.92 71.15 80.23 71.26 80.83C71.4 81.6 71.56 82.48 72.26 82.99C72.95 83.49 73.79 83.38 74.6 83.27C74.99 83.22 75.26 83.19 75.45 83.19L75.44 83.17Z" fill="#2D557F"/>
  <path d="M20.23 28.32C19.7 27.89 19.38 27.26 19.28 26.42C19.26 26.24 19.23 25.96 19.2 25.56C19.17 25.15 19.15 24.86 19.14 24.67C19.11 23.83 19.33 23.15 19.8 22.65C20.27 22.14 20.97 21.85 21.88 21.79C22.48 21.75 23 21.81 23.45 21.98C23.9 22.15 24.26 22.4 24.52 22.73C24.78 23.06 24.93 23.44 24.97 23.87C24.97 23.87 24.97 23.88 24.97 23.89C24.97 23.94 24.95 23.99 24.91 24.03C24.87 24.07 24.82 24.09 24.77 24.09C24.45 24.11 24.14 24.13 23.82 24.15C23.74 24.15 23.68 24.15 23.64 24.11C23.6 24.08 23.56 24.02 23.53 23.93C23.4 23.52 23.2 23.25 22.94 23.1C22.68 22.95 22.35 22.89 21.93 22.92C20.97 22.99 20.51 23.55 20.55 24.61C20.55 24.79 20.57 25.06 20.6 25.43C20.63 25.8 20.65 26.08 20.67 26.27C20.79 27.32 21.32 27.81 22.27 27.74C22.68 27.71 23 27.6 23.24 27.42C23.48 27.23 23.63 26.93 23.7 26.52C23.71 26.43 23.74 26.36 23.78 26.33C23.82 26.29 23.88 26.27 23.96 26.27C24.27 26.25 24.59 26.23 24.9 26.21C24.96 26.21 25.01 26.22 25.06 26.26C25.11 26.3 25.13 26.34 25.12 26.4C25.13 26.83 25.03 27.23 24.82 27.59C24.61 27.95 24.29 28.24 23.87 28.47C23.45 28.7 22.95 28.83 22.36 28.88C21.45 28.94 20.74 28.76 20.2 28.34L20.23 28.32Z" fill="#4279B6"/>
  <path d="M26.52 28.42C26.52 28.42 26.44 28.32 26.44 28.26C26.31 26.12 26.18 23.99 26.05 21.85C26.05 21.78 26.06 21.72 26.1 21.67C26.14 21.62 26.2 21.59 26.27 21.59C27.74 21.5 29.21 21.42 30.68 21.35C30.75 21.35 30.81 21.37 30.86 21.41C30.91 21.45 30.94 21.51 30.94 21.58C30.95 21.8 30.96 22.01 30.97 22.23C30.97 22.3 30.95 22.36 30.91 22.41C30.87 22.45 30.81 22.48 30.73 22.48C29.63 22.53 28.54 22.59 27.44 22.65C27.47 23.23 27.51 23.81 27.54 24.39C28.56 24.33 29.58 24.28 30.6 24.23C30.67 24.23 30.73 24.24 30.78 24.29C30.83 24.33 30.85 24.39 30.86 24.46C30.86 24.66 30.88 24.87 30.89 25.07C30.89 25.14 30.87 25.2 30.83 25.25C30.79 25.29 30.73 25.32 30.65 25.32C29.63 25.37 28.62 25.42 27.6 25.48C27.63 26.08 27.67 26.68 27.7 27.28C28.81 27.22 29.92 27.16 31.03 27.1C31.1 27.1 31.16 27.12 31.21 27.16C31.26 27.2 31.28 27.26 31.29 27.33C31.3 27.55 31.31 27.76 31.32 27.98C31.32 28.05 31.3 28.11 31.26 28.16C31.22 28.21 31.16 28.23 31.09 28.23C29.62 28.3 28.15 28.38 26.67 28.47C26.6 28.47 26.55 28.45 26.5 28.41L26.52 28.42Z" fill="#4279B6"/>
  <path d="M32.65 28.1C32.65 28.1 32.58 28 32.57 27.94C32.47 25.8 32.38 23.67 32.28 21.53C32.28 21.46 32.3 21.4 32.34 21.35C32.38 21.3 32.44 21.28 32.51 21.27C33.38 21.23 34.24 21.2 35.11 21.16C35.93 21.13 36.57 21.29 37.05 21.65C37.53 22.01 37.78 22.53 37.8 23.22C37.81 23.7 37.71 24.11 37.48 24.44C37.26 24.77 36.94 25.02 36.52 25.18C37.03 26 37.54 26.82 38.05 27.65C38.07 27.69 38.08 27.72 38.08 27.76C38.08 27.82 38.06 27.87 38.02 27.91C37.98 27.95 37.93 27.97 37.88 27.97C37.58 27.97 37.28 27.99 36.98 28C36.88 28 36.79 27.98 36.74 27.94C36.68 27.9 36.63 27.83 36.58 27.75C36.13 26.99 35.67 26.22 35.22 25.46C34.76 25.48 34.3 25.5 33.84 25.51C33.87 26.3 33.91 27.09 33.94 27.87C33.94 27.94 33.92 27.99 33.88 28.04C33.84 28.09 33.78 28.11 33.71 28.12C33.41 28.13 33.11 28.15 32.81 28.16C32.74 28.16 32.69 28.14 32.64 28.1H32.65ZM35.21 24.34C35.61 24.33 35.91 24.23 36.1 24.04C36.3 23.86 36.39 23.6 36.38 23.26C36.37 22.93 36.26 22.67 36.05 22.49C35.84 22.31 35.53 22.23 35.13 22.25C34.66 22.27 34.19 22.29 33.72 22.31C33.75 23.01 33.78 23.7 33.81 24.4C34.28 24.38 34.75 24.36 35.21 24.34Z" fill="#4279B6"/>
  <path d="M40.73 27.82C40.73 27.82 40.66 27.72 40.66 27.65C40.62 25.83 40.57 24.02 40.53 22.2C39.91 22.21 39.3 22.23 38.68 22.25C38.61 22.25 38.56 22.23 38.51 22.19C38.46 22.15 38.44 22.09 38.44 22.02C38.44 21.78 38.43 21.53 38.42 21.29C38.42 21.22 38.44 21.16 38.48 21.11C38.52 21.06 38.58 21.04 38.65 21.04C40.36 20.99 42.06 20.95 43.77 20.93C43.84 20.93 43.9 20.95 43.95 21C44 21.05 44.02 21.1 44.02 21.18C44.02 21.42 44.02 21.67 44.03 21.91C44.03 21.98 44.01 22.03 43.96 22.08C43.91 22.13 43.85 22.15 43.78 22.15C43.17 22.15 42.55 22.17 41.94 22.18C41.98 24 42.01 25.81 42.05 27.63C42.05 27.7 42.03 27.75 41.98 27.8C41.93 27.85 41.88 27.87 41.8 27.87C41.5 27.87 41.19 27.88 40.89 27.89C40.82 27.89 40.77 27.87 40.72 27.82H40.73Z" fill="#4279B6"/>
  <path d="M45.18 27.74C45.18 27.74 45.11 27.64 45.11 27.57C45.08 25.43 45.06 23.28 45.03 21.14C45.03 21.07 45.05 21.01 45.1 20.97C45.15 20.93 45.2 20.9 45.27 20.9C45.58 20.9 45.9 20.9 46.21 20.89C46.28 20.89 46.34 20.91 46.39 20.95C46.43 20.99 46.46 21.05 46.46 21.12C46.48 23.26 46.5 25.41 46.52 27.55C46.52 27.62 46.5 27.67 46.46 27.72C46.42 27.77 46.36 27.79 46.29 27.79C45.98 27.79 45.67 27.79 45.36 27.8C45.29 27.8 45.24 27.78 45.19 27.73L45.18 27.74Z" fill="#4279B6"/>
  <path d="M48.13 27.71C48.13 27.71 48.06 27.61 48.06 27.54C48.05 25.4 48.04 23.26 48.03 21.12C48.03 21.05 48.05 20.99 48.09 20.94C48.13 20.89 48.19 20.87 48.27 20.87C49.72 20.87 51.18 20.87 52.63 20.87C52.7 20.87 52.76 20.89 52.81 20.94C52.86 20.99 52.88 21.05 52.88 21.12C52.88 21.35 52.88 21.58 52.88 21.81C52.88 21.88 52.86 21.94 52.81 21.98C52.76 22.02 52.7 22.04 52.63 22.04C51.56 22.04 50.49 22.04 49.42 22.04C49.42 22.66 49.42 23.29 49.42 23.91C50.42 23.91 51.42 23.91 52.42 23.91C52.49 23.91 52.55 23.93 52.6 23.98C52.65 24.03 52.67 24.09 52.67 24.16C52.67 24.39 52.67 24.62 52.67 24.85C52.67 24.92 52.65 24.98 52.6 25.02C52.55 25.06 52.49 25.08 52.42 25.08C51.42 25.08 50.43 25.08 49.43 25.08C49.43 25.89 49.43 26.71 49.43 27.52C49.43 27.59 49.41 27.65 49.36 27.69C49.31 27.73 49.25 27.75 49.18 27.75C48.89 27.75 48.6 27.75 48.31 27.75C48.24 27.75 48.19 27.73 48.14 27.68L48.13 27.71Z" fill="#4279B6"/>
  <path d="M54.07 27.73C54.07 27.73 54 27.63 54 27.56C54.02 25.42 54.04 23.27 54.07 21.13C54.07 21.06 54.1 21 54.14 20.96C54.19 20.92 54.24 20.9 54.31 20.9C54.62 20.9 54.94 20.9 55.25 20.91C55.32 20.91 55.38 20.93 55.42 20.98C55.46 21.02 55.48 21.08 55.48 21.15C55.45 23.29 55.42 25.44 55.39 27.58C55.39 27.65 55.37 27.7 55.32 27.75C55.28 27.8 55.22 27.82 55.15 27.82C54.84 27.82 54.53 27.82 54.22 27.81C54.15 27.81 54.1 27.79 54.05 27.74L54.07 27.73Z" fill="#4279B6"/>
  <path d="M57.52 27.25C57.03 26.77 56.78 26.11 56.76 25.26C56.76 25.08 56.76 24.79 56.76 24.39C56.76 23.98 56.78 23.69 56.79 23.5C56.84 22.66 57.12 22.01 57.64 21.55C58.16 21.09 58.88 20.87 59.79 20.89C60.39 20.9 60.9 21.02 61.34 21.23C61.78 21.44 62.11 21.73 62.34 22.08C62.57 22.43 62.68 22.83 62.68 23.26C62.68 23.26 62.68 23.27 62.68 23.28C62.68 23.33 62.66 23.38 62.61 23.41C62.57 23.44 62.52 23.46 62.46 23.46C62.14 23.46 61.83 23.44 61.51 23.43C61.43 23.43 61.37 23.41 61.33 23.38C61.29 23.35 61.26 23.28 61.24 23.19C61.15 22.77 60.98 22.48 60.73 22.3C60.49 22.13 60.16 22.03 59.75 22.02C58.79 22 58.28 22.52 58.21 23.57C58.2 23.75 58.19 24.02 58.18 24.39C58.18 24.76 58.17 25.04 58.18 25.23C58.2 26.29 58.68 26.83 59.63 26.85C60.04 26.86 60.37 26.78 60.62 26.62C60.87 26.46 61.05 26.17 61.16 25.77C61.18 25.68 61.22 25.62 61.26 25.59C61.3 25.56 61.37 25.54 61.45 25.55C61.76 25.55 62.08 25.57 62.39 25.58C62.45 25.58 62.5 25.6 62.54 25.64C62.58 25.68 62.6 25.73 62.59 25.79C62.56 26.22 62.43 26.61 62.18 26.95C61.93 27.29 61.59 27.55 61.15 27.74C60.71 27.93 60.2 28.01 59.61 28C58.7 27.98 58.01 27.73 57.52 27.25Z" fill="#4279B6"/>
  <path d="M63.05 27.94C63.05 27.94 62.99 27.85 62.99 27.79C62.99 27.76 63 27.73 63.01 27.7C63.87 25.61 64.75 23.52 65.64 21.43C65.69 21.27 65.81 21.19 66 21.2C66.36 21.21 66.73 21.23 67.09 21.25C67.26 21.25 67.38 21.34 67.43 21.51C68.14 23.66 68.84 25.82 69.53 27.97C69.53 27.99 69.53 28.02 69.53 28.06C69.53 28.12 69.5 28.17 69.46 28.2C69.42 28.24 69.37 28.25 69.32 28.25C69.03 28.24 68.75 28.22 68.46 28.21C68.37 28.21 68.31 28.18 68.27 28.14C68.23 28.1 68.2 28.05 68.19 28.01C68.05 27.6 67.92 27.19 67.78 26.79C66.8 26.75 65.82 26.7 64.84 26.67C64.67 27.06 64.5 27.46 64.33 27.85C64.27 27.97 64.18 28.03 64.04 28.03C63.75 28.02 63.47 28.01 63.18 28C63.13 28 63.08 27.98 63.04 27.94H63.05ZM67.5 25.64C67.17 24.61 66.83 23.58 66.5 22.55C66.08 23.55 65.66 24.55 65.25 25.55C66 25.58 66.75 25.61 67.5 25.64Z" fill="#4279B6"/>
  <path d="M71.32 28.29C71.32 28.29 71.26 28.18 71.26 28.12C71.36 26.31 71.46 24.49 71.56 22.68C70.94 22.65 70.33 22.61 69.71 22.58C69.64 22.58 69.59 22.55 69.54 22.5C69.5 22.45 69.48 22.39 69.48 22.33C69.49 22.09 69.5 21.84 69.52 21.6C69.52 21.53 69.55 21.47 69.59 21.43C69.64 21.39 69.7 21.37 69.77 21.37C71.48 21.46 73.18 21.55 74.89 21.66C74.96 21.66 75.02 21.69 75.07 21.74C75.11 21.79 75.13 21.85 75.13 21.92C75.11 22.16 75.1 22.41 75.08 22.65C75.08 22.72 75.05 22.77 75 22.81C74.95 22.85 74.89 22.87 74.82 22.87C74.21 22.83 73.59 22.79 72.98 22.76C72.87 24.57 72.77 26.39 72.66 28.2C72.66 28.27 72.63 28.32 72.58 28.36C72.53 28.4 72.47 28.42 72.4 28.42C72.1 28.4 71.8 28.39 71.49 28.37C71.42 28.37 71.37 28.34 71.33 28.29H71.32Z" fill="#4279B6"/>
  <path d="M75.77 28.56C75.77 28.56 75.71 28.45 75.71 28.39C75.85 26.26 75.99 24.12 76.13 21.99C76.13 21.92 76.16 21.86 76.21 21.82C76.26 21.78 76.32 21.76 76.39 21.76C77.86 21.86 79.33 21.96 80.8 22.08C80.87 22.08 80.93 22.11 80.97 22.16C81.01 22.21 81.03 22.27 81.03 22.34C81.01 22.56 81 22.77 80.98 22.99C80.98 23.06 80.95 23.12 80.9 23.16C80.85 23.2 80.79 23.22 80.72 23.21C79.62 23.12 78.53 23.04 77.43 22.97C77.39 23.55 77.35 24.13 77.31 24.71C78.33 24.78 79.35 24.86 80.37 24.93C80.44 24.93 80.5 24.96 80.54 25.01C80.58 25.06 80.6 25.12 80.6 25.19C80.58 25.39 80.57 25.6 80.55 25.8C80.55 25.87 80.52 25.93 80.47 25.97C80.42 26.01 80.36 26.03 80.29 26.02C79.27 25.94 78.26 25.87 77.24 25.8C77.2 26.4 77.16 27 77.11 27.6C78.22 27.68 79.33 27.76 80.44 27.85C80.51 27.85 80.57 27.88 80.61 27.93C80.65 27.98 80.67 28.04 80.67 28.11C80.65 28.33 80.64 28.54 80.62 28.76C80.62 28.83 80.59 28.89 80.54 28.93C80.49 28.97 80.43 28.99 80.36 28.98C78.89 28.87 77.42 28.76 75.95 28.66C75.88 28.66 75.83 28.63 75.79 28.58L75.77 28.56Z" fill="#4279B6"/>
</svg>
