<svg xmlns="http://www.w3.org/2000/svg" width="100" height="100" viewBox="0 0 100 100" fill="none">
  <path d="M62.02 59.7L73.88 69.51V61.12H94.17C96.97 61.12 99.24 59.24 99.24 56.92C99.24 54.6 96.97 52.72 94.17 52.72H62.25L62.02 59.7Z" fill="#FC8B27"/>
  <path d="M73.88 70.27C73.71 70.27 73.54 70.21 73.4 70.1L61.54 60.29C61.36 60.14 61.26 59.92 61.27 59.68L61.5 52.7C61.51 52.29 61.85 51.97 62.26 51.97H94.18C97.39 51.97 100.01 54.19 100.01 56.92C100.01 59.65 97.39 61.87 94.18 61.87H74.65V69.5C74.65 69.79 74.48 70.06 74.22 70.18C74.12 70.23 74.01 70.25 73.9 70.25L73.88 70.27ZM62.79 59.36L73.12 67.9V61.12C73.12 60.7 73.46 60.36 73.88 60.36H94.17C96.55 60.36 98.49 58.82 98.49 56.92C98.49 55.02 96.55 53.48 94.17 53.48H62.98L62.79 59.35V59.36Z" fill="#0E1721"/>
  <path d="M62.2501 52.73H94.1701C96.9701 52.73 99.2401 54.61 99.2401 56.93V11.95C99.2401 9.63 96.9701 7.75 94.1701 7.75H38.3701V28L62.2501 52.72V52.73Z" fill="white"/>
  <path d="M99.2401 57.68C98.8201 57.68 98.4801 57.34 98.4801 56.92C98.4801 55.02 96.5401 53.48 94.1601 53.48H62.2401C62.0301 53.48 61.8401 53.4 61.7001 53.25L37.8201 28.53C37.6801 28.39 37.6101 28.2 37.6101 28V7.76C37.6101 7.34 37.9501 7 38.3701 7H94.1701C97.3801 7 100 9.22 100 11.95V56.92C100 57.34 99.6601 57.68 99.2401 57.68ZM62.5701 51.97H94.1701C95.8801 51.97 97.4201 52.6 98.4901 53.6V11.95C98.4901 10.05 96.5501 8.51 94.1701 8.51H39.1301V27.7L62.5701 51.97Z" fill="#0E1721"/>
  <path d="M89.1 17.61H48.52C48.1 17.61 47.76 17.27 47.76 16.85C47.76 16.43 48.1 16.09 48.52 16.09H89.1C89.52 16.09 89.86 16.43 89.86 16.85C89.86 17.27 89.52 17.61 89.1 17.61Z" fill="#FC8B27"/>
  <path d="M89.1 24.47H48.52C48.1 24.47 47.76 24.13 47.76 23.71C47.76 23.29 48.1 22.95 48.52 22.95H89.1C89.52 22.95 89.86 23.29 89.86 23.71C89.86 24.13 89.52 24.47 89.1 24.47Z" fill="#FC8B27"/>
  <path d="M89.1 31.33H62.25C61.83 31.33 61.49 30.99 61.49 30.57C61.49 30.15 61.83 29.81 62.25 29.81H89.1C89.52 29.81 89.86 30.15 89.86 30.57C89.86 30.99 89.52 31.33 89.1 31.33Z" fill="#FC8B27"/>
  <path d="M89.1 38.18H62.25C61.83 38.18 61.49 37.84 61.49 37.42C61.49 37 61.83 36.66 62.25 36.66H89.1C89.52 36.66 89.86 37 89.86 37.42C89.86 37.84 89.52 38.18 89.1 38.18Z" fill="#FC8B27"/>
  <path d="M89.1 45.04H62.25C61.83 45.04 61.49 44.7 61.49 44.28C61.49 43.86 61.83 43.52 62.25 43.52H89.1C89.52 43.52 89.86 43.86 89.86 44.28C89.86 44.7 89.52 45.04 89.1 45.04Z" fill="#FC8B27"/>
  <path d="M6 74.53H63.72V83.21H37.49L27 91.89V83.21H6C3.1 83.21 0.75 81.27 0.75 78.87C0.75 76.47 3.1 74.53 6 74.53Z" fill="#4279B6"/>
  <path d="M26.99 92.64C26.88 92.64 26.77 92.62 26.67 92.57C26.4 92.45 26.24 92.18 26.24 91.89V83.97H6C2.69 83.97 0 81.68 0 78.87C0 76.06 2.69 73.77 6 73.77H63.72C64.14 73.77 64.48 74.11 64.48 74.53V83.21C64.48 83.63 64.14 83.97 63.72 83.97H37.76L27.48 92.48C27.34 92.59 27.17 92.65 27 92.65L26.99 92.64ZM6 75.28C3.52 75.28 1.51 76.89 1.51 78.86C1.51 80.83 3.52 82.44 6 82.44H26.99C27.41 82.44 27.75 82.78 27.75 83.2V90.27L37 82.62C37.14 82.51 37.31 82.45 37.48 82.45H62.96V75.28H6Z" fill="#0E1721"/>
  <path d="M0.76 32.35C0.76 29.95 3.11 28.01 6.01 28.01H63.73V74.53H6C3.1 74.53 0.75 76.47 0.75 78.87V32.35H0.76Z" fill="white"/>
  <path d="M0.76 79.62C0.34 79.62 0 79.28 0 78.86V32.35C0 29.54 2.69 27.25 6 27.25H63.72C64.14 27.25 64.48 27.59 64.48 28.01V74.53C64.48 74.95 64.14 75.29 63.72 75.29H6C3.52 75.29 1.51 76.9 1.51 78.87C1.51 79.29 1.17 79.63 0.75 79.63L0.76 79.62ZM6 28.77C3.52 28.77 1.51 30.38 1.51 32.35V75.49C2.61 74.44 4.22 73.77 6 73.77H62.96V28.77H6Z" fill="#0E1721"/>
  <path d="M53.23 38.18H11.25C10.83 38.18 10.49 37.84 10.49 37.42C10.49 37 10.83 36.66 11.25 36.66H53.22C53.64 36.66 53.98 37 53.98 37.42C53.98 37.84 53.64 38.18 53.22 38.18H53.23Z" fill="#0E1721"/>
  <path d="M53.23 45.27H11.25C10.83 45.27 10.49 44.93 10.49 44.51C10.49 44.09 10.83 43.75 11.25 43.75H53.22C53.64 43.75 53.98 44.09 53.98 44.51C53.98 44.93 53.64 45.27 53.22 45.27H53.23Z" fill="#0E1721"/>
  <path d="M53.23 52.36H11.25C10.83 52.36 10.49 52.02 10.49 51.6C10.49 51.18 10.83 50.84 11.25 50.84H53.22C53.64 50.84 53.98 51.18 53.98 51.6C53.98 52.02 53.64 52.36 53.22 52.36H53.23Z" fill="#0E1721"/>
  <path d="M53.23 59.45H11.25C10.83 59.45 10.49 59.11 10.49 58.69C10.49 58.27 10.83 57.93 11.25 57.93H53.22C53.64 57.93 53.98 58.27 53.98 58.69C53.98 59.11 53.64 59.45 53.22 59.45H53.23Z" fill="#0E1721"/>
  <path d="M53.23 66.55H11.25C10.83 66.55 10.49 66.21 10.49 65.79C10.49 65.37 10.83 65.03 11.25 65.03H53.22C53.64 65.03 53.98 65.37 53.98 65.79C53.98 66.21 53.64 66.55 53.22 66.55H53.23Z" fill="#0E1721"/>
</svg>
