<svg xmlns="http://www.w3.org/2000/svg" width="100" height="100" viewBox="0 0 100 100" fill="none">
  <path d="M94.17 7H38.37C37.95 7 37.61 7.34 37.61 7.76V27.25H6C2.69 27.25 0 29.54 0 32.35V78.87C0 81.68 2.69 83.97 6 83.97H26.23V91.89C26.23 92.18 26.4 92.45 26.66 92.57C26.76 92.62 26.87 92.64 26.98 92.64C27.15 92.64 27.32 92.58 27.46 92.47L37.74 83.96H63.7C64.12 83.96 64.46 83.62 64.46 83.2V62.71L73.38 70.09C73.52 70.2 73.69 70.26 73.86 70.26C73.97 70.26 74.08 70.24 74.18 70.19C74.45 70.07 74.61 69.8 74.61 69.51V61.88H94.14C97.35 61.88 99.97 59.66 99.97 56.93V11.95C99.97 9.22 97.35 7 94.14 7H94.17ZM94.17 60.36H73.88C73.46 60.36 73.12 60.7 73.12 61.12V67.9L64.47 60.75V53.49H94.16C96.54 53.49 98.48 55.03 98.48 56.93C98.48 58.83 96.54 60.37 94.16 60.37L94.17 60.36ZM62.96 61.46V73.77H6C5.57 73.77 5.15 73.81 4.74 73.89C4.6 73.91 4.48 73.96 4.35 73.99C4.09 74.05 3.82 74.12 3.58 74.21C3.43 74.27 3.3 74.34 3.16 74.4C2.95 74.5 2.73 74.6 2.53 74.72C2.39 74.8 2.27 74.9 2.14 74.99C1.96 75.12 1.79 75.24 1.63 75.39C1.59 75.43 1.54 75.45 1.5 75.49V32.35C1.5 30.37 3.51 28.77 5.99 28.77H62.95V61.47L62.96 61.46ZM98.49 53.6C98.49 53.6 98.42 53.55 98.39 53.52C98.24 53.38 98.07 53.27 97.9 53.15C97.77 53.06 97.65 52.96 97.52 52.88C97.33 52.77 97.13 52.68 96.92 52.58C96.78 52.52 96.65 52.44 96.51 52.39C96.27 52.3 96.02 52.24 95.77 52.18C95.64 52.15 95.52 52.1 95.39 52.08C95 52.01 94.6 51.97 94.18 51.97H64.49V28.01C64.49 27.59 64.15 27.25 63.73 27.25H39.14V8.51H94.18C96.56 8.51 98.5 10.05 98.5 11.95V53.6H98.49ZM62.96 82.45H37.48C37.3 82.45 37.13 82.51 37 82.62L27.75 90.27V83.2C27.75 82.78 27.41 82.44 26.99 82.44H6C3.52 82.44 1.51 80.83 1.51 78.86C1.51 76.89 3.52 75.28 6 75.28H62.96V82.45Z" fill="#4279B6"/>
  <path d="M48.52 17.61H89.1C89.52 17.61 89.86 17.27 89.86 16.85C89.86 16.43 89.52 16.09 89.1 16.09H48.52C48.1 16.09 47.76 16.43 47.76 16.85C47.76 17.27 48.1 17.61 48.52 17.61Z" fill="#2D557F"/>
  <path d="M89.1 22.96H48.52C48.1 22.96 47.76 23.3 47.76 23.72C47.76 24.14 48.1 24.48 48.52 24.48H89.1C89.52 24.48 89.86 24.14 89.86 23.72C89.86 23.3 89.52 22.96 89.1 22.96Z" fill="#2D557F"/>
  <path d="M89.1 29.81H64.48V31.32H89.1C89.52 31.32 89.86 30.98 89.86 30.56C89.86 30.14 89.52 29.8 89.1 29.8V29.81Z" fill="#2D557F"/>
  <path d="M89.1 36.67H64.48V38.18H89.1C89.52 38.18 89.86 37.84 89.86 37.42C89.86 37 89.52 36.66 89.1 36.66V36.67Z" fill="#2D557F"/>
  <path d="M89.1 43.53H64.48V45.04H89.1C89.52 45.04 89.86 44.7 89.86 44.28C89.86 43.86 89.52 43.52 89.1 43.52V43.53Z" fill="#2D557F"/>
  <path d="M53.23 36.66H11.25C10.83 36.66 10.49 37 10.49 37.42C10.49 37.84 10.83 38.18 11.25 38.18H53.22C53.64 38.18 53.98 37.84 53.98 37.42C53.98 37 53.64 36.66 53.22 36.66H53.23Z" fill="#2D557F"/>
  <path d="M53.23 43.75H11.25C10.83 43.75 10.49 44.09 10.49 44.51C10.49 44.93 10.83 45.27 11.25 45.27H53.22C53.43 45.27 53.62 45.18 53.76 45.04C53.89 44.9 53.97 44.72 53.97 44.52C53.97 44.1 53.63 43.76 53.21 43.76L53.23 43.75Z" fill="#2D557F"/>
  <path d="M53.23 50.85H11.25C10.83 50.85 10.49 51.19 10.49 51.61C10.49 52.03 10.83 52.37 11.25 52.37H53.22C53.64 52.37 53.98 52.03 53.98 51.61C53.98 51.19 53.64 50.85 53.22 50.85H53.23Z" fill="#2D557F"/>
  <path d="M53.23 57.94H11.25C10.83 57.94 10.49 58.28 10.49 58.7C10.49 59.12 10.83 59.46 11.25 59.46H53.22C53.64 59.46 53.98 59.12 53.98 58.7C53.98 58.28 53.64 57.94 53.22 57.94H53.23Z" fill="#2D557F"/>
  <path d="M53.23 65.03H11.25C10.83 65.03 10.49 65.37 10.49 65.79C10.49 66.21 10.83 66.55 11.25 66.55H53.22C53.64 66.55 53.98 66.21 53.98 65.79C53.98 65.37 53.64 65.03 53.22 65.03H53.23Z" fill="#2D557F"/>
</svg>
