<svg xmlns="http://www.w3.org/2000/svg" width="100" height="100" viewBox="0 0 100 100" fill="none">
  <path d="M21.75 34.03V6.79C21.75 3.44 24.46 0.730003 27.81 0.730003H72.81C76.16 0.730003 78.87 3.44 78.87 6.79V73.29H21.75V34.02V34.03Z" fill="white"/>
  <path d="M79.61 74.03H21.02V6.79C21.02 3.04 24.07 0 27.81 0H72.81C76.56 0 79.6 3.05 79.6 6.79V74.03H79.61ZM22.49 72.56H78.14V6.79C78.14 3.85 75.75 1.47 72.82 1.47H27.81C24.87 1.47 22.49 3.86 22.49 6.79V72.56Z" fill="#0E1721"/>
  <path d="M29.78 50.91L27.91 49.04C27.35 48.48 27.35 47.56 27.91 47C28.47 46.44 29.39 46.44 29.95 47L30.8 47.85L34.54 44.11C35.1 43.55 36.02 43.55 36.58 44.11C37.14 44.67 37.14 45.59 36.58 46.15L31.82 50.91C31.26 51.47 30.34 51.47 29.78 50.91Z" fill="#3C8645"/>
  <path d="M30.8 51.78C30.32 51.78 29.83 51.6 29.47 51.23L27.6 49.36C26.86 48.62 26.86 47.43 27.6 46.69C28.34 45.95 29.53 45.95 30.27 46.69L30.81 47.23L34.24 43.8C34.6 43.44 35.07 43.25 35.57 43.25C36.07 43.25 36.55 43.45 36.9 43.8C37.64 44.54 37.64 45.73 36.9 46.47L32.14 51.23C31.77 51.6 31.29 51.78 30.81 51.78H30.8ZM30.09 50.6C30.48 50.99 31.12 50.99 31.51 50.6L36.27 45.84C36.66 45.45 36.66 44.81 36.27 44.42C35.89 44.04 35.23 44.04 34.85 44.42L31.11 48.16C30.94 48.33 30.66 48.33 30.49 48.16L29.64 47.31C29.26 46.93 28.6 46.93 28.22 47.31C27.83 47.7 27.83 48.34 28.22 48.73L30.09 50.6Z" fill="#0E1721"/>
  <path d="M61.31 47.13H40.89C40.48 47.13 40.15 46.8 40.15 46.39C40.15 45.98 40.48 45.65 40.89 45.65H61.31C61.72 45.65 62.05 45.98 62.05 46.39C62.05 46.8 61.72 47.13 61.31 47.13Z" fill="#0E1721"/>
  <path d="M61.31 53.41H40.89C40.48 53.41 40.15 53.08 40.15 52.67C40.15 52.26 40.48 51.93 40.89 51.93H61.31C61.72 51.93 62.05 52.26 62.05 52.67C62.05 53.08 61.72 53.41 61.31 53.41Z" fill="#0E1721"/>
  <path d="M61.31 9.89H40.89C40.48 9.89 40.15 9.56 40.15 9.15C40.15 8.74 40.48 8.41 40.89 8.41H61.31C61.72 8.41 62.05 8.74 62.05 9.15C62.05 9.56 61.72 9.89 61.31 9.89Z" fill="#0E1721"/>
  <path d="M29.78 15.07L27.91 13.2C27.35 12.64 27.35 11.72 27.91 11.16C28.47 10.6 29.39 10.6 29.95 11.16L30.8 12.01L34.54 8.27C35.1 7.71 36.02 7.71 36.58 8.27C37.14 8.83 37.14 9.75 36.58 10.31L31.82 15.07C31.26 15.63 30.34 15.63 29.78 15.07Z" fill="#3C8645"/>
  <path d="M30.8 15.93C30.32 15.93 29.83 15.75 29.47 15.38L27.6 13.51C26.86 12.77 26.86 11.58 27.6 10.84C28.34 10.1 29.53 10.1 30.27 10.84L30.81 11.38L34.24 7.95C34.6 7.59 35.07 7.4 35.57 7.4C36.07 7.4 36.55 7.6 36.9 7.95C37.64 8.69 37.64 9.88 36.9 10.62L32.14 15.38C31.77 15.75 31.29 15.93 30.81 15.93H30.8ZM30.09 14.76C30.48 15.15 31.12 15.15 31.51 14.76L36.27 10C36.66 9.61 36.66 8.97 36.27 8.58C35.89 8.2 35.23 8.2 34.85 8.58L31.11 12.32C30.94 12.49 30.66 12.49 30.49 12.32L29.64 11.47C29.25 11.08 28.61 11.08 28.22 11.47C27.83 11.86 27.83 12.5 28.22 12.89L30.09 14.76Z" fill="#0E1721"/>
  <path d="M61.31 16.17H40.89C40.48 16.17 40.15 15.84 40.15 15.43C40.15 15.02 40.48 14.69 40.89 14.69H61.31C61.72 14.69 62.05 15.02 62.05 15.43C62.05 15.84 61.72 16.17 61.31 16.17Z" fill="#0E1721"/>
  <path d="M69.16 10.59C69.9498 10.59 70.59 9.94977 70.59 9.16C70.59 8.37024 69.9498 7.73 69.16 7.73C68.3702 7.73 67.73 8.37024 67.73 9.16C67.73 9.94977 68.3702 10.59 69.16 10.59Z" fill="#FC8B27"/>
  <path d="M69.16 11.03C68.13 11.03 67.29 10.19 67.29 9.16C67.29 8.13 68.13 7.29 69.16 7.29C70.19 7.29 71.03 8.13 71.03 9.16C71.03 10.19 70.19 11.03 69.16 11.03ZM69.16 8.17C68.61 8.17 68.17 8.61 68.17 9.16C68.17 9.71 68.61 10.15 69.16 10.15C69.71 10.15 70.15 9.71 70.15 9.16C70.15 8.61 69.71 8.17 69.16 8.17Z" fill="#0E1721"/>
  <path d="M69.16 16.87C69.9498 16.87 70.59 16.2298 70.59 15.44C70.59 14.6502 69.9498 14.01 69.16 14.01C68.3702 14.01 67.73 14.6502 67.73 15.44C67.73 16.2298 68.3702 16.87 69.16 16.87Z" fill="#FC8B27"/>
  <path d="M69.16 17.31C68.13 17.31 67.29 16.47 67.29 15.44C67.29 14.41 68.13 13.57 69.16 13.57C70.19 13.57 71.03 14.41 71.03 15.44C71.03 16.47 70.19 17.31 69.16 17.31ZM69.16 14.45C68.61 14.45 68.17 14.89 68.17 15.44C68.17 15.99 68.61 16.43 69.16 16.43C69.71 16.43 70.15 15.99 70.15 15.44C70.15 14.89 69.71 14.45 69.16 14.45Z" fill="#0E1721"/>
  <path d="M29.78 32.64L27.91 30.77C27.35 30.21 27.35 29.29 27.91 28.73C28.47 28.17 29.39 28.17 29.95 28.73L30.8 29.58L34.54 25.84C35.1 25.28 36.02 25.28 36.58 25.84C37.14 26.4 37.14 27.32 36.58 27.88L31.82 32.64C31.26 33.2 30.34 33.2 29.78 32.64Z" fill="#3C8645"/>
  <path d="M30.8 33.5C30.32 33.5 29.83 33.32 29.47 32.95L27.6 31.08C26.86 30.34 26.86 29.15 27.6 28.41C28.34 27.67 29.53 27.67 30.27 28.41L30.81 28.95L34.24 25.52C34.6 25.16 35.07 24.97 35.57 24.97C36.07 24.97 36.55 25.17 36.9 25.52C37.64 26.26 37.64 27.45 36.9 28.19L32.14 32.95C31.77 33.32 31.29 33.5 30.81 33.5H30.8ZM30.09 32.33C30.48 32.72 31.12 32.72 31.51 32.33L36.27 27.57C36.66 27.18 36.66 26.54 36.27 26.15C35.89 25.77 35.23 25.77 34.85 26.15L31.11 29.89C30.94 30.06 30.66 30.06 30.49 29.89L29.64 29.04C29.26 28.66 28.6 28.66 28.22 29.04C27.83 29.43 27.83 30.07 28.22 30.46L30.09 32.33Z" fill="#0E1721"/>
  <path d="M61.31 28.16H40.89C40.48 28.16 40.15 27.83 40.15 27.42C40.15 27.01 40.48 26.68 40.89 26.68H61.31C61.72 26.68 62.05 27.01 62.05 27.42C62.05 27.83 61.72 28.16 61.31 28.16Z" fill="#0E1721"/>
  <path d="M61.31 34.44H40.89C40.48 34.44 40.15 34.11 40.15 33.7C40.15 33.29 40.48 32.96 40.89 32.96H61.31C61.72 32.96 62.05 33.29 62.05 33.7C62.05 34.11 61.72 34.44 61.31 34.44Z" fill="#0E1721"/>
  <path d="M69.16 28.86C69.9498 28.86 70.59 28.2198 70.59 27.43C70.59 26.6402 69.9498 26 69.16 26C68.3702 26 67.73 26.6402 67.73 27.43C67.73 28.2198 68.3702 28.86 69.16 28.86Z" fill="#FC8B27"/>
  <path d="M69.16 29.3C68.13 29.3 67.29 28.46 67.29 27.43C67.29 26.4 68.13 25.56 69.16 25.56C70.19 25.56 71.03 26.4 71.03 27.43C71.03 28.46 70.19 29.3 69.16 29.3ZM69.16 26.44C68.61 26.44 68.17 26.88 68.17 27.43C68.17 27.98 68.61 28.42 69.16 28.42C69.71 28.42 70.15 27.98 70.15 27.43C70.15 26.88 69.71 26.44 69.16 26.44Z" fill="#0E1721"/>
  <path d="M69.16 35.14C69.9498 35.14 70.59 34.4998 70.59 33.71C70.59 32.9202 69.9498 32.28 69.16 32.28C68.3702 32.28 67.73 32.9202 67.73 33.71C67.73 34.4998 68.3702 35.14 69.16 35.14Z" fill="#FC8B27"/>
  <path d="M69.16 35.58C68.13 35.58 67.29 34.74 67.29 33.71C67.29 32.68 68.13 31.84 69.16 31.84C70.19 31.84 71.03 32.68 71.03 33.71C71.03 34.74 70.19 35.58 69.16 35.58ZM69.16 32.72C68.61 32.72 68.17 33.16 68.17 33.71C68.17 34.26 68.61 34.7 69.16 34.7C69.71 34.7 70.15 34.26 70.15 33.71C70.15 33.16 69.71 32.72 69.16 32.72Z" fill="#0E1721"/>
  <path d="M90.23 53.8C89.62 53.19 88.81 52.88 88.01 52.88C87.21 52.88 86.4 53.19 85.79 53.8C85.18 54.41 84.87 55.22 84.87 56.02V54.45C84.87 53.65 84.56 52.84 83.95 52.23C83.34 51.62 82.53 51.31 81.73 51.31C80.93 51.31 80.12 51.62 79.51 52.23C78.9 52.84 78.59 53.65 78.59 54.45V52.88C78.59 52.08 78.28 51.27 77.67 50.66C77.06 50.05 76.25 49.74 75.45 49.74C74.65 49.74 73.84 50.05 73.23 50.66C72.62 51.27 72.31 52.08 72.31 52.88V41.89C72.31 41.09 72 40.28 71.39 39.67C70.78 39.06 69.97 38.75 69.17 38.75C68.37 38.75 67.56 39.06 66.95 39.67C66.34 40.28 66.03 41.09 66.03 41.89V60.74C66.03 59.94 65.72 59.13 65.11 58.52C64.5 57.91 63.69 57.6 62.89 57.6C62.09 57.6 61.28 57.91 60.67 58.52C60.06 59.13 59.75 59.94 59.75 60.74V68.63C59.75 73.42 64.37 79.16 66.52 81.57C67.22 82.35 67.6 83.36 67.6 84.41V85.87H86.45V83.61C86.45 83.03 86.57 82.46 86.8 81.92L90.82 72.54C91.05 72.01 91.17 71.43 91.17 70.85V56.02C91.17 55.22 90.86 54.41 90.25 53.8H90.23Z" fill="white"/>
  <path d="M86.44 86.6H67.59C67.18 86.6 66.85 86.27 66.85 85.86V84.4C66.85 83.53 66.53 82.69 65.96 82.05C59.9 75.26 59 70.72 59 68.62V60.73C59 59.7 59.4 58.72 60.14 57.99C60.87 57.26 61.85 56.85 62.88 56.85C63.76 56.85 64.6 57.14 65.29 57.69V41.88C65.29 40.85 65.69 39.87 66.43 39.14C67.16 38.41 68.14 38 69.17 38C70.2 38 71.18 38.4 71.91 39.14C72.64 39.87 73.05 40.85 73.05 41.88V49.84C73.73 49.3 74.57 49 75.46 49C76.5 49 77.47 49.4 78.2 50.14C78.62 50.56 78.93 51.06 79.12 51.6C79.84 50.94 80.76 50.58 81.74 50.58C82.77 50.58 83.75 50.98 84.48 51.72C84.9 52.14 85.21 52.64 85.4 53.18C86.12 52.52 87.04 52.16 88.02 52.16C89.06 52.16 90.03 52.56 90.76 53.3C91.49 54.03 91.9 55.01 91.9 56.04V70.87C91.9 71.55 91.76 72.22 91.49 72.85L87.47 82.23C87.28 82.67 87.18 83.14 87.18 83.63V85.89C87.18 86.3 86.85 86.63 86.44 86.63V86.6ZM68.32 85.13H85.7V83.6C85.7 82.92 85.84 82.25 86.11 81.62L90.13 72.24C90.32 71.8 90.42 71.33 90.42 70.84V56.01C90.42 55.37 90.17 54.76 89.72 54.31C89.27 53.86 88.66 53.61 88.02 53.61C87.38 53.61 86.77 53.86 86.32 54.31C85.87 54.76 85.62 55.37 85.62 56.01C85.62 56.42 85.29 56.75 84.88 56.75C84.47 56.75 84.14 56.42 84.14 56.01V54.44C84.14 53.8 83.89 53.19 83.44 52.74C82.99 52.29 82.38 52.04 81.74 52.04C81.1 52.04 80.49 52.29 80.04 52.75C79.59 53.2 79.34 53.81 79.34 54.45C79.34 54.86 79.01 55.19 78.6 55.19C78.19 55.19 77.86 54.86 77.86 54.45V52.88C77.86 52.24 77.61 51.63 77.16 51.18C76.71 50.73 76.1 50.48 75.46 50.48C74.82 50.48 74.21 50.73 73.76 51.19C73.31 51.64 73.06 52.25 73.06 52.89C73.06 53.3 72.73 53.63 72.32 53.63C71.91 53.63 71.58 53.3 71.58 52.89V41.9C71.58 41.26 71.33 40.65 70.87 40.2C70.42 39.75 69.81 39.5 69.17 39.5C68.53 39.5 67.92 39.75 67.47 40.21C67.02 40.66 66.77 41.27 66.77 41.91V60.76C66.77 61.17 66.44 61.5 66.03 61.5C65.62 61.5 65.29 61.17 65.29 60.76C65.29 60.12 65.04 59.51 64.59 59.06C64.14 58.61 63.53 58.35 62.89 58.35C62.25 58.35 61.64 58.6 61.19 59.06C60.74 59.51 60.49 60.12 60.49 60.76V68.65C60.49 73.23 65.1 78.88 67.08 81.1C67.9 82.02 68.35 83.2 68.35 84.43V85.15L68.32 85.13Z" fill="#0E1721"/>
  <path d="M89.58 100V88.15C89.58 86.89 88.56 85.87 87.3 85.87H66.74C65.48 85.87 64.46 86.89 64.46 88.15V100" fill="#4279B6"/>
  <path d="M90.31 100H88.84V88.15C88.84 87.3 88.15 86.6 87.29 86.6H66.73C65.88 86.6 65.18 87.29 65.18 88.15V100H63.71V88.15C63.71 86.49 65.06 85.13 66.73 85.13H87.29C88.95 85.13 90.31 86.48 90.31 88.15V100Z" fill="#0E1721"/>
  <path d="M33.03 65.45C31.46 60.74 28.32 54.46 28.32 54.46V41.89C28.32 41.09 28.01 40.28 27.4 39.67C26.79 39.06 25.98 38.75 25.18 38.75C24.38 38.75 23.57 39.06 22.96 39.67C22.35 40.28 22.04 41.09 22.04 41.89V43.46L17.13 45.91C16.25 46.35 15.55 47.1 15.19 48.02L10.03 60.93C9.68 61.82 9.65 62.8 9.95 63.71L15.76 81.15V85.86H34.61V76.44C34.61 73.3 34.15 68.78 33.04 65.45H33.03Z" fill="white"/>
  <path d="M35.34 86.6H15.02V81.27L9.24 63.94C8.88 62.87 8.92 61.71 9.34 60.66L14.5 47.75C14.93 46.66 15.75 45.78 16.8 45.25L21.3 43V41.88C21.3 40.85 21.7 39.87 22.44 39.14C23.17 38.41 24.15 38 25.18 38C26.21 38 27.19 38.4 27.92 39.14C28.65 39.87 29.06 40.85 29.06 41.88V54.27C29.57 55.29 32.28 60.85 33.73 65.2C34.92 68.76 35.34 73.47 35.34 76.43V86.59V86.6ZM16.49 85.13H33.87V76.44C33.87 73.6 33.47 69.07 32.34 65.68C30.8 61.07 27.7 54.84 27.67 54.78L27.59 54.62V41.88C27.59 41.24 27.34 40.63 26.89 40.18C26.44 39.73 25.83 39.48 25.19 39.48C24.55 39.48 23.94 39.73 23.49 40.19C23.04 40.64 22.79 41.25 22.79 41.89V43.91L17.47 46.57C16.75 46.93 16.18 47.55 15.88 48.3L10.72 61.21C10.43 61.93 10.41 62.74 10.65 63.48L16.5 81.04V85.14L16.49 85.13Z" fill="#0E1721"/>
  <path d="M37.75 100V88.15C37.75 86.89 36.73 85.87 35.47 85.87H14.9C13.64 85.87 12.62 86.89 12.62 88.15V100" fill="#4279B6"/>
  <path d="M38.48 100H37.01V88.15C37.01 87.3 36.32 86.6 35.46 86.6H14.9C14.05 86.6 13.35 87.29 13.35 88.15V100H11.88V88.15C11.88 86.49 13.23 85.13 14.9 85.13H35.46C37.12 85.13 38.48 86.48 38.48 88.15V100Z" fill="#0E1721"/>
  <path d="M18.9 94.34C20.1095 94.34 21.09 93.3595 21.09 92.15C21.09 90.9405 20.1095 89.96 18.9 89.96C17.6905 89.96 16.71 90.9405 16.71 92.15C16.71 93.3595 17.6905 94.34 18.9 94.34Z" fill="#FCCD2A"/>
  <path d="M18.9 95.07C17.29 95.07 15.97 93.76 15.97 92.14C15.97 90.52 17.28 89.21 18.9 89.21C20.52 89.21 21.83 90.52 21.83 92.14C21.83 93.76 20.52 95.07 18.9 95.07ZM18.9 90.69C18.1 90.69 17.44 91.34 17.44 92.15C17.44 92.96 18.09 93.61 18.9 93.61C19.71 93.61 20.36 92.96 20.36 92.15C20.36 91.34 19.71 90.69 18.9 90.69Z" fill="#0E1721"/>
  <path d="M17.33 66.18C17.09 66.18 16.86 66.06 16.71 65.85C16.49 65.51 16.58 65.05 16.92 64.83L19.5 63.13C19.76 62.96 19.93 62.68 19.96 62.38L21.29 49.82C21.29 49.82 21.29 49.75 21.29 49.71V43.45C21.29 43.04 21.62 42.71 22.03 42.71C22.44 42.71 22.77 43.04 22.77 43.45V49.71C22.77 49.8 22.77 49.89 22.76 49.97L21.43 62.53C21.35 63.28 20.94 63.94 20.32 64.36L17.74 66.06C17.62 66.14 17.48 66.18 17.34 66.18H17.33Z" fill="#0E1721"/>
  <path d="M70.73 94.34C71.9395 94.34 72.92 93.3595 72.92 92.15C72.92 90.9405 71.9395 89.96 70.73 89.96C69.5205 89.96 68.54 90.9405 68.54 92.15C68.54 93.3595 69.5205 94.34 70.73 94.34Z" fill="#FCCD2A"/>
  <path d="M70.73 95.07C69.12 95.07 67.8 93.76 67.8 92.14C67.8 90.52 69.11 89.21 70.73 89.21C72.35 89.21 73.66 90.52 73.66 92.14C73.66 93.76 72.35 95.07 70.73 95.07ZM70.73 90.69C69.93 90.69 69.27 91.34 69.27 92.15C69.27 92.96 69.92 93.61 70.73 93.61C71.54 93.61 72.19 92.96 72.19 92.15C72.19 91.34 71.54 90.69 70.73 90.69Z" fill="#0E1721"/>
</svg>
