<svg xmlns="http://www.w3.org/2000/svg" width="100" height="100" viewBox="0 0 100 100" fill="none">
  <path d="M36.8 37.2C36.8 37.56 36.66 37.94 36.38 38.22L31.66 42.94C31.1 43.5 30.18 43.5 29.62 42.94L28.92 42.24V41.58C28.92 40.6 28.56 39.68 27.88 38.98C28.14 38.74 28.46 38.64 28.78 38.64C29.16 38.64 29.52 38.78 29.8 39.06L30.64 39.9L34.36 36.18C34.92 35.62 35.82 35.62 36.38 36.18C36.66 36.46 36.8 36.84 36.8 37.2Z" fill="#2D557F"/>
  <path d="M36.8 48.98C36.8 49.36 36.66 49.72 36.38 50L31.66 54.72C31.1 55.28 30.18 55.28 29.62 54.72L29.06 54.14C29.06 54.14 29.04 54.14 29.04 54.12C29 54.02 28.96 53.94 28.92 53.88V50.44C29.24 50.46 29.56 50.6 29.8 50.84L30.64 51.68L34.36 47.96C34.92 47.4 35.82 47.4 36.38 47.96C36.66 48.24 36.8 48.6 36.8 48.98Z" fill="#2D557F"/>
  <path d="M29.63 19.38L27.77 17.52C27.21 16.96 27.21 16.05 27.77 15.49C28.33 14.93 29.24 14.93 29.8 15.49L30.64 16.33L34.35 12.62C34.91 12.06 35.82 12.06 36.38 12.62C36.94 13.18 36.94 14.09 36.38 14.65L31.65 19.38C31.09 19.94 30.18 19.94 29.62 19.38H29.63Z" fill="#2D557F"/>
  <path d="M29.63 31.16L27.77 29.3C27.21 28.74 27.21 27.83 27.77 27.27C28.33 26.71 29.24 26.71 29.8 27.27L30.64 28.11L34.35 24.4C34.91 23.84 35.82 23.84 36.38 24.4C36.94 24.96 36.94 25.87 36.38 26.43L31.65 31.16C31.09 31.72 30.18 31.72 29.62 31.16H29.63Z" fill="#2D557F"/>
  <path d="M18.83 92.89C19.6142 92.89 20.25 92.2542 20.25 91.47C20.25 90.6858 19.6142 90.05 18.83 90.05C18.0457 90.05 17.41 90.6858 17.41 91.47C17.41 92.2542 18.0457 92.89 18.83 92.89Z" fill="#2D557F"/>
  <path d="M70.28 92.89C71.0642 92.89 71.7 92.2542 71.7 91.47C71.7 90.6858 71.0642 90.05 70.28 90.05C69.4957 90.05 68.86 90.6858 68.86 91.47C68.86 92.2542 69.4957 92.89 70.28 92.89Z" fill="#2D557F"/>
  <path d="M90.16 52.88C89.42 52.16 88.46 51.76 87.42 51.76C86.46 51.76 85.54 52.12 84.82 52.76C84.64 52.24 84.32 51.74 83.92 51.32C83.18 50.6 82.22 50.2 81.2 50.2C80.44 50.2 79.72 50.42 79.1 50.82V6.74C79.1 3.02 76.06 0 72.34 0H27.68C23.96 0 20.92 3.02 20.92 6.74V42.82L16.74 44.92C15.7 45.44 14.9 46.32 14.46 47.4L9.33997 60.2C8.91997 61.24 8.87997 62.4 9.23997 63.46L14.98 80.68V84.5H14.86C13.2 84.5 11.86 85.84 11.86 87.5V99.26C11.86 99.66 12.18 100 12.58 100C13 100 13.32 99.66 13.32 99.26V87.5C13.32 86.66 14.02 85.96 14.86 85.96H35.26C36.12 85.96 36.8 86.66 36.8 87.5V99.26C36.8 99.66 37.14 100 37.54 100C37.94 100 38.26 99.66 38.26 99.26V87.5C38.26 85.84 36.92 84.5 35.26 84.5H35.16V75.88C35.16 75.18 35.12 74.36 35.08 73.5H60.04C61.04 75.64 62.74 78.3 65.54 81.46C66.12 82.1 66.42 82.92 66.42 83.78V84.5H66.3C64.66 84.5 63.3 85.84 63.3 87.5V99.26C63.3 99.66 63.64 100 64.04 100C64.44 100 64.78 99.66 64.78 99.26V87.5C64.78 86.66 65.46 85.96 66.3 85.96H86.72C87.56 85.96 88.26 86.66 88.26 87.5V99.26C88.26 99.66 88.58 100 88.98 100C89.4 100 89.72 99.66 89.72 99.26V87.5C89.72 85.84 88.38 84.5 86.72 84.5H86.6V82.98C86.6 82.5 86.7 82.04 86.88 81.6L90.88 72.3C91.14 71.66 91.28 71 91.28 70.32V55.6C91.28 54.58 90.88 53.62 90.16 52.88ZM33.68 84.5H16.44V80.56C16.44 80.48 16.42 80.4 16.4 80.32L10.64 63C10.38 62.28 10.4 61.48 10.7 60.76L15.82 47.94C16.12 47.2 16.68 46.58 17.4 46.22L21.22 44.32V49.34C21.22 49.34 21.2 49.42 21.2 49.46L19.88 61.92C19.86 62.22 19.68 62.5 19.42 62.66L16.86 64.36C16.52 64.58 16.44 65.02 16.66 65.36C16.8 65.58 17.02 65.7 17.26 65.7C17.4 65.7 17.54 65.66 17.66 65.58L20.24 63.9C20.86 63.48 21.26 62.82 21.34 62.08L22.66 49.62C22.68 49.52 22.68 49.44 22.68 49.34V41.58C22.68 40.94 22.92 40.34 23.38 39.9C23.82 39.44 24.42 39.2 25.06 39.2C25.7 39.2 26.3 39.44 26.74 39.88C27.2 40.34 27.44 40.94 27.44 41.58V54.04C27.44 54.16 27.48 54.28 27.52 54.38C27.56 54.44 30.64 60.62 32.16 65.2C33.28 68.56 33.68 73.06 33.68 75.88V84.5ZM59.76 57.56C59.04 58.3 58.64 59.26 58.64 60.28V68.12C58.64 69 58.8 70.3 59.42 72.02H34.96C34.74 69.62 34.3 66.96 33.56 64.74C32.22 60.7 29.78 55.62 29.06 54.14C29.06 54.14 29.0533 54.1333 29.04 54.12C29 54.02 28.96 53.94 28.92 53.88V41.58C28.92 40.6 28.56 39.68 27.88 38.98C27.86 38.94 27.82 38.9 27.78 38.86C27.06 38.12 26.1 37.72 25.06 37.72C24.02 37.72 23.12 38.12 22.4 38.82V6.74C22.4 3.84 24.76 1.46 27.68 1.46H72.34C75.26 1.46 77.62 3.84 77.62 6.74V49.72C76.9 49.02 75.96 48.64 74.96 48.64C74.08 48.64 73.24 48.94 72.56 49.46V41.58C72.56 40.54 72.16 39.58 71.44 38.86C70.72 38.12 69.74 37.72 68.72 37.72C67.7 37.72 66.72 38.12 66 38.86C65.26 39.58 64.86 40.54 64.86 41.58V57.26C64.18 56.72 63.36 56.44 62.48 56.44C61.46 56.44 60.48 56.84 59.76 57.56ZM89.82 70.32C89.82 70.8 89.72 71.28 89.52 71.72L85.54 81.02C85.28 81.64 85.14 82.3 85.14 82.98V84.5H67.9V83.78C67.9 82.56 67.44 81.38 66.64 80.48C64.66 78.28 60.1 72.66 60.1 68.12V60.28C60.1 59.64 60.34 59.04 60.8 58.6C61.24 58.14 61.84 57.9 62.48 57.9C63.12 57.9 63.72 58.14 64.16 58.6C64.62 59.06 64.86 59.64 64.86 60.28C64.86 60.7 65.2 61.02 65.6 61.02C66 61.02 66.34 60.7 66.34 60.28V41.58C66.34 40.94 66.58 40.34 67.04 39.9C67.48 39.44 68.08 39.2 68.72 39.2C69.36 39.2 69.96 39.44 70.4 39.88C70.86 40.34 71.1 40.94 71.1 41.58V52.48C71.1 52.9 71.44 53.22 71.84 53.22C72.24 53.22 72.56 52.9 72.56 52.48C72.56 51.86 72.82 51.26 73.26 50.8C73.72 50.36 74.32 50.1 74.96 50.1C75.6 50.1 76.2 50.36 76.64 50.8C77.1 51.26 77.34 51.86 77.34 52.48V54.04C77.34 54.46 77.66 54.78 78.08 54.78C78.12 54.78 78.16 54.76 78.22 54.76C78.26 54.76 78.3 54.78 78.36 54.78C78.76 54.78 79.1 54.46 79.1 54.04V52.98C79.2 52.76 79.32 52.54 79.5 52.36C79.96 51.92 80.56 51.66 81.2 51.66C81.84 51.66 82.42 51.92 82.88 52.36C83.32 52.82 83.58 53.42 83.58 54.04V55.6C83.58 56.02 83.9 56.34 84.3 56.34C84.72 56.34 85.04 56.02 85.04 55.6C85.04 54.98 85.28 54.38 85.74 53.92C86.2 53.48 86.8 53.22 87.42 53.22C88.04 53.22 88.66 53.48 89.12 53.92C89.56 54.38 89.82 54.98 89.82 55.6V70.32Z" fill="#4279B6"/>
  <path d="M60.93 14.25H40.66C40.26 14.25 39.93 13.92 39.93 13.52C39.93 13.12 40.26 12.79 40.66 12.79H60.93C61.33 12.79 61.66 13.12 61.66 13.52C61.66 13.92 61.33 14.25 60.93 14.25Z" fill="#2D557F"/>
  <path d="M60.93 20.48H40.66C40.26 20.48 39.93 20.15 39.93 19.75C39.93 19.35 40.26 19.02 40.66 19.02H60.93C61.33 19.02 61.66 19.35 61.66 19.75C61.66 20.15 61.33 20.48 60.93 20.48Z" fill="#2D557F"/>
  <path d="M60.93 26.72H40.66C40.26 26.72 39.93 26.39 39.93 25.99C39.93 25.59 40.26 25.26 40.66 25.26H60.93C61.33 25.26 61.66 25.59 61.66 25.99C61.66 26.39 61.33 26.72 60.93 26.72Z" fill="#2D557F"/>
  <path d="M60.93 32.95H40.66C40.26 32.95 39.93 32.62 39.93 32.22C39.93 31.82 40.26 31.49 40.66 31.49H60.93C61.33 31.49 61.66 31.82 61.66 32.22C61.66 32.62 61.33 32.95 60.93 32.95Z" fill="#2D557F"/>
  <path d="M60.93 39.19H40.66C40.26 39.19 39.93 38.86 39.93 38.46C39.93 38.06 40.26 37.73 40.66 37.73H60.93C61.33 37.73 61.66 38.06 61.66 38.46C61.66 38.86 61.33 39.19 60.93 39.19Z" fill="#2D557F"/>
  <path d="M60.93 45.43H40.66C40.26 45.43 39.93 45.1 39.93 44.7C39.93 44.3 40.26 43.97 40.66 43.97H60.93C61.33 43.97 61.66 44.3 61.66 44.7C61.66 45.1 61.33 45.43 60.93 45.43Z" fill="#2D557F"/>
  <path d="M54.69 51.66H40.66C40.26 51.66 39.93 51.33 39.93 50.93C39.93 50.53 40.26 50.2 40.66 50.2H54.69C55.09 50.2 55.42 50.53 55.42 50.93C55.42 51.33 55.09 51.66 54.69 51.66Z" fill="#2D557F"/>
  <path d="M54.69 57.9H40.66C40.26 57.9 39.93 57.57 39.93 57.17C39.93 56.77 40.26 56.44 40.66 56.44H54.69C55.09 56.44 55.42 56.77 55.42 57.17C55.42 57.57 55.09 57.9 54.69 57.9Z" fill="#2D557F"/>
  <path d="M68.72 14.93C69.5042 14.93 70.14 14.2942 70.14 13.51C70.14 12.7258 69.5042 12.09 68.72 12.09C67.9357 12.09 67.3 12.7258 67.3 13.51C67.3 14.2942 67.9357 14.93 68.72 14.93Z" fill="#2D557F"/>
  <path d="M68.72 21.17C69.5042 21.17 70.14 20.5342 70.14 19.75C70.14 18.9658 69.5042 18.33 68.72 18.33C67.9357 18.33 67.3 18.9658 67.3 19.75C67.3 20.5342 67.9357 21.17 68.72 21.17Z" fill="#2D557F"/>
  <path d="M68.72 27.41C69.5042 27.41 70.14 26.7742 70.14 25.99C70.14 25.2058 69.5042 24.57 68.72 24.57C67.9357 24.57 67.3 25.2058 67.3 25.99C67.3 26.7742 67.9357 27.41 68.72 27.41Z" fill="#2D557F"/>
  <path d="M68.72 33.64C69.5042 33.64 70.14 33.0042 70.14 32.22C70.14 31.4358 69.5042 30.8 68.72 30.8C67.9357 30.8 67.3 31.4358 67.3 32.22C67.3 33.0042 67.9357 33.64 68.72 33.64Z" fill="#2D557F"/>
</svg>
