<svg xmlns="http://www.w3.org/2000/svg" width="100" height="100" viewBox="0 0 100 100" fill="none">
  <path d="M83.45 68.74C83.06 68.74 82.75 68.43 82.75 68.04C82.75 67.65 83.06 67.34 83.45 67.34C91.8 67.34 98.6 60.55 98.6 52.19C98.6 43.83 91.81 37.04 83.45 37.04C82.32 37.04 81.18 37.17 80.08 37.43C79.87 37.48 79.64 37.43 79.47 37.29C79.3 37.15 79.21 36.94 79.22 36.72C79.22 36.59 79.22 36.47 79.22 36.34C79.22 30.9 74.8 26.48 69.36 26.48C67.81 26.48 66.32 26.84 64.94 27.55C64.77 27.64 64.57 27.65 64.39 27.59C64.21 27.53 64.06 27.39 63.98 27.22C59.85 18.22 50.79 12.4 40.91 12.4C27.5 12.4 16.36 22.98 15.55 36.48C15.53 36.82 15.27 37.1 14.93 37.13C7.22 37.95 1.41 44.43 1.41 52.19C1.41 60.54 8.2 67.34 16.56 67.34H33.5C33.89 67.34 34.2 67.65 34.2 68.04C34.2 68.43 33.89 68.74 33.5 68.74H16.56C7.42 68.74 0 61.32 0 52.2C0 43.92 6.06 36.98 14.19 35.82C15.33 21.85 26.96 11 40.91 11C51.1 11 60.47 16.87 64.96 26C66.35 25.39 67.83 25.08 69.37 25.08C75.43 25.08 80.39 29.89 80.63 35.9C81.56 35.73 82.51 35.65 83.46 35.65C92.58 35.65 100.01 43.07 100.01 52.2C100.01 61.33 92.59 68.75 83.46 68.75L83.45 68.74Z" fill="#4279B6"/>
  <path d="M58.99 89.38C58.23 89.38 57.41 89.33 56.5 89.22C56.14 89.18 55.84 88.91 55.75 88.56L55.24 86.52C54.43 86.36 53.62 86.14 52.83 85.87L51.36 87.39C51.11 87.65 50.71 87.73 50.38 87.58C48.91 86.94 47.46 86.09 46.08 85.07C45.79 84.85 45.66 84.47 45.76 84.13L46.33 82.13C45.7 81.58 45.11 80.98 44.56 80.36L42.56 80.93C42.21 81.03 41.83 80.9 41.62 80.61C40.59 79.23 39.75 77.79 39.11 76.31C38.97 75.98 39.04 75.58 39.3 75.33L40.82 73.86C40.55 73.07 40.33 72.26 40.17 71.45L38.13 70.94C37.78 70.85 37.51 70.55 37.47 70.19C37.36 69.28 37.31 68.46 37.31 67.7C37.31 66.94 37.36 66.12 37.47 65.21C37.51 64.85 37.78 64.55 38.13 64.46L40.17 63.95C40.33 63.14 40.55 62.33 40.82 61.54L39.3 60.07C39.04 59.82 38.96 59.42 39.11 59.09C39.75 57.61 40.6 56.17 41.62 54.79C41.84 54.5 42.22 54.37 42.56 54.47L44.56 55.04C45.11 54.41 45.71 53.82 46.33 53.27L45.76 51.27C45.66 50.92 45.79 50.54 46.08 50.33C47.46 49.3 48.9 48.46 50.38 47.82C50.71 47.68 51.11 47.75 51.36 48.02L52.83 49.54C53.62 49.27 54.43 49.05 55.24 48.89L55.75 46.85C55.84 46.5 56.14 46.23 56.5 46.19C57.41 46.08 58.23 46.03 58.99 46.03C59.75 46.03 60.57 46.08 61.48 46.19C61.84 46.23 62.14 46.5 62.23 46.85L62.74 48.89C63.55 49.05 64.36 49.27 65.15 49.54L66.62 48.02C66.87 47.76 67.27 47.68 67.6 47.83C69.08 48.47 70.52 49.32 71.9 50.34C72.19 50.56 72.32 50.94 72.22 51.28L71.65 53.28C72.28 53.83 72.87 54.43 73.42 55.05L75.42 54.48C75.77 54.38 76.15 54.51 76.36 54.8C77.39 56.18 78.23 57.62 78.87 59.1C79.01 59.43 78.94 59.83 78.67 60.08L77.15 61.55C77.42 62.34 77.64 63.15 77.8 63.96L79.84 64.47C80.19 64.56 80.46 64.86 80.5 65.22C80.61 66.13 80.66 66.95 80.66 67.71C80.66 68.47 80.61 69.29 80.5 70.2C80.46 70.56 80.19 70.86 79.84 70.95L77.8 71.46C77.64 72.27 77.42 73.08 77.15 73.87L78.67 75.34C78.93 75.59 79.01 75.99 78.86 76.32C78.22 77.79 77.37 79.24 76.35 80.62C76.13 80.91 75.75 81.04 75.41 80.94L73.41 80.37C72.86 81 72.26 81.59 71.64 82.14L72.21 84.14C72.31 84.49 72.18 84.87 71.89 85.08C70.51 86.11 69.07 86.95 67.59 87.59C67.26 87.73 66.86 87.66 66.61 87.4L65.14 85.88C64.35 86.15 63.54 86.37 62.73 86.53L62.22 88.57C62.13 88.92 61.83 89.19 61.47 89.23C60.56 89.34 59.74 89.39 58.98 89.39L58.99 89.38ZM57.02 87.87C57.73 87.94 58.38 87.98 58.99 87.98C59.6 87.98 60.25 87.94 60.96 87.87L61.46 85.86C61.54 85.53 61.82 85.27 62.15 85.21C63.11 85.04 64.07 84.78 64.99 84.45C65.31 84.33 65.68 84.42 65.91 84.66L67.36 86.16C68.52 85.63 69.66 84.96 70.76 84.17L70.2 82.2C70.11 81.87 70.21 81.51 70.48 81.29C71.23 80.65 71.94 79.95 72.57 79.2C72.79 78.94 73.15 78.83 73.48 78.92L75.45 79.48C76.24 78.38 76.91 77.24 77.44 76.08L75.94 74.63C75.69 74.39 75.61 74.03 75.73 73.71C76.06 72.78 76.32 71.83 76.49 70.87C76.55 70.53 76.8 70.26 77.14 70.18L79.15 69.68C79.22 68.97 79.26 68.32 79.26 67.71C79.26 67.1 79.22 66.45 79.15 65.74L77.14 65.24C76.81 65.16 76.55 64.88 76.49 64.55C76.32 63.59 76.06 62.63 75.73 61.71C75.61 61.39 75.7 61.03 75.94 60.79L77.44 59.34C76.91 58.18 76.24 57.04 75.45 55.94L73.48 56.5C73.15 56.59 72.8 56.49 72.57 56.22C71.93 55.47 71.23 54.76 70.48 54.13C70.22 53.91 70.11 53.55 70.2 53.22L70.76 51.25C69.66 50.46 68.52 49.79 67.36 49.26L65.91 50.76C65.67 51.01 65.31 51.09 64.99 50.97C64.06 50.64 63.1 50.38 62.15 50.21C61.81 50.15 61.54 49.9 61.46 49.56L60.96 47.55C60.25 47.48 59.6 47.44 58.99 47.44C58.38 47.44 57.73 47.48 57.02 47.55L56.52 49.56C56.44 49.89 56.16 50.15 55.83 50.21C54.87 50.38 53.91 50.64 52.99 50.97C52.67 51.09 52.3 51 52.07 50.76L50.62 49.26C49.46 49.79 48.32 50.46 47.22 51.25L47.78 53.22C47.87 53.55 47.77 53.9 47.5 54.13C46.75 54.77 46.04 55.47 45.41 56.22C45.19 56.48 44.83 56.59 44.5 56.5L42.53 55.94C41.74 57.04 41.07 58.18 40.54 59.34L42.04 60.79C42.29 61.03 42.37 61.39 42.25 61.71C41.92 62.64 41.66 63.6 41.49 64.55C41.43 64.89 41.17 65.16 40.84 65.24L38.83 65.74C38.76 66.45 38.72 67.1 38.72 67.71C38.72 68.32 38.76 68.97 38.83 69.68L40.84 70.18C41.17 70.26 41.43 70.53 41.49 70.87C41.66 71.83 41.92 72.79 42.25 73.72C42.37 74.04 42.28 74.4 42.04 74.64L40.54 76.09C41.07 77.25 41.74 78.39 42.53 79.49L44.5 78.93C44.83 78.84 45.18 78.94 45.41 79.2C46.05 79.95 46.75 80.66 47.5 81.29C47.76 81.51 47.87 81.87 47.78 82.2L47.22 84.17C48.32 84.96 49.46 85.63 50.62 86.16L52.07 84.66C52.31 84.41 52.67 84.33 52.99 84.45C53.92 84.78 54.88 85.04 55.83 85.21C56.17 85.27 56.44 85.52 56.52 85.86L57.02 87.87Z" fill="#2D557F"/>
  <path d="M58.99 82.34C50.93 82.34 44.36 75.78 44.36 67.71C44.36 59.64 50.92 53.08 58.99 53.08C67.06 53.08 73.62 59.64 73.62 67.71C73.62 75.78 67.06 82.34 58.99 82.34ZM58.99 54.49C51.7 54.49 45.77 60.42 45.77 67.71C45.77 75 51.7 80.93 58.99 80.93C66.28 80.93 72.21 75 72.21 67.71C72.21 60.42 66.28 54.49 58.99 54.49Z" fill="#2D557F"/>
  <path d="M58.99 75.82C54.52 75.82 50.89 72.19 50.89 67.72C50.89 63.25 54.52 59.62 58.99 59.62C63.46 59.62 67.09 63.25 67.09 67.72C67.09 72.19 63.46 75.82 58.99 75.82ZM58.99 61.02C55.3 61.02 52.29 64.03 52.29 67.72C52.29 71.41 55.3 74.42 58.99 74.42C62.68 74.42 65.69 71.41 65.69 67.72C65.69 64.03 62.68 61.02 58.99 61.02Z" fill="#2D557F"/>
</svg>
