<svg xmlns="http://www.w3.org/2000/svg" width="100" height="100" viewBox="0 0 100 100" fill="none">
  <path d="M83.35 70.87H82.92C82.45 70.87 82.07 70.49 82.07 70.02C82.07 69.55 82.45 69.17 82.92 69.17H83.35C91.59 69.17 98.3 62.46 98.3 54.22C98.3 45.98 91.59 39.27 83.35 39.27C82.23 39.27 81.11 39.4 80.03 39.66C79.77 39.72 79.5 39.66 79.29 39.49C79.08 39.32 78.97 39.06 78.98 38.79C78.98 38.67 78.98 38.54 78.98 38.42C78.98 33.08 74.64 28.74 69.3 28.74C67.78 28.74 66.32 29.09 64.96 29.79C64.75 29.9 64.51 29.91 64.29 29.84C64.07 29.76 63.89 29.6 63.79 29.39C59.71 20.47 50.73 14.7 40.94 14.7C27.66 14.7 16.62 25.18 15.81 38.57C15.79 38.98 15.46 39.32 15.05 39.36C7.44 40.17 1.71 46.56 1.71 54.22C1.71 62.46 8.42 69.17 16.66 69.17H36.37C36.84 69.17 37.22 69.55 37.22 70.02C37.22 70.49 36.84 70.87 36.37 70.87H16.66C7.47 70.87 0 63.4 0 54.22C0 45.93 6.04 38.97 14.16 37.76C15.36 23.82 26.99 13 40.94 13C51.11 13 60.46 18.83 64.99 27.91C66.36 27.33 67.81 27.04 69.31 27.04C75.38 27.04 80.35 31.81 80.68 37.8C81.56 37.65 82.46 37.58 83.36 37.58C92.54 37.58 100.01 45.05 100.01 54.23C100.01 63.41 92.54 70.88 83.36 70.88L83.35 70.87Z" fill="#4279B6"/>
  <path d="M66.01 87.78H53.25C51.84 87.78 50.7 86.64 50.7 85.23V74.1H42.15C41.82 74.1 41.52 73.91 41.38 73.61C41.24 73.31 41.29 72.95 41.51 72.7L58.99 52.22C59.15 52.03 59.39 51.92 59.64 51.92C59.89 51.92 60.13 52.03 60.29 52.22L77.76 72.7C77.98 72.95 78.02 73.31 77.89 73.61C77.75 73.91 77.45 74.1 77.12 74.1H68.57V85.23C68.57 86.64 67.43 87.78 66.02 87.78H66.01ZM44.01 72.4H51.56C52.03 72.4 52.41 72.78 52.41 73.25V85.23C52.41 85.7 52.79 86.08 53.26 86.08H66.02C66.49 86.08 66.87 85.7 66.87 85.23V73.25C66.87 72.78 67.25 72.4 67.72 72.4H75.27L59.64 54.08L44 72.4H44.01Z" fill="#2D557F"/>
</svg>
