<svg xmlns="http://www.w3.org/2000/svg" width="100" height="100" viewBox="0 0 100 100" fill="none">
  <path d="M37.55 69.02H16.65C7.94001 69.02 0.850006 61.93 0.850006 53.22C0.850006 45.08 7.04001 38.36 14.95 37.51C15.79 23.66 27.13 12.85 40.94 12.85C51.13 12.85 60.38 18.87 64.59 28.04C66.05 27.29 67.65 26.89 69.31 26.89C75.12 26.89 79.84 31.61 79.84 37.42C79.84 37.56 79.84 37.69 79.83 37.83C80.99 37.56 82.16 37.42 83.35 37.42C92.06 37.42 99.15 44.51 99.15 53.22C99.15 61.93 92.06 69.02 83.35 69.02H37.55Z" fill="#4279B6"/>
  <path d="M83.35 69.87H16.65C7.47 69.87 0 62.4 0 53.22C0 44.93 6.04 37.97 14.16 36.76C15.36 22.82 26.99 12 40.94 12C51.11 12 60.46 17.83 64.99 26.91C66.36 26.33 67.81 26.04 69.31 26.04C75.38 26.04 80.35 30.81 80.68 36.8C81.56 36.65 82.46 36.58 83.36 36.58C92.54 36.58 100.01 44.05 100.01 53.23C100.01 62.41 92.54 69.88 83.36 69.88L83.35 69.87ZM40.94 13.7C27.66 13.7 16.62 24.18 15.81 37.57C15.79 37.98 15.46 38.32 15.05 38.36C7.44 39.17 1.71 45.56 1.71 53.22C1.71 61.46 8.42 68.17 16.66 68.17H83.36C91.6 68.17 98.31 61.46 98.31 53.22C98.31 44.98 91.6 38.27 83.36 38.27C82.24 38.27 81.12 38.4 80.04 38.66C79.78 38.72 79.51 38.66 79.3 38.49C79.09 38.32 78.98 38.06 78.99 37.79C78.99 37.67 78.99 37.54 78.99 37.42C78.99 32.08 74.65 27.74 69.31 27.74C67.79 27.74 66.33 28.09 64.97 28.79C64.76 28.9 64.52 28.91 64.3 28.84C64.08 28.76 63.9 28.6 63.8 28.39C59.71 19.47 50.73 13.7 40.94 13.7Z" fill="#0E1721"/>
  <path d="M62.01 63.08H61.95V65.12H62.01V63.08Z" fill="white"/>
  <path d="M65.93 63.08H65.87V65.12H65.93V63.08Z" fill="white"/>
  <path d="M69.85 63.08H69.79V65.12H69.85V63.08Z" fill="white"/>
  <path d="M62.01 72.15H61.95V74.19H62.01V72.15Z" fill="white"/>
  <path d="M65.93 72.15H65.87V74.19H65.93V72.15Z" fill="white"/>
  <path d="M69.85 72.15H69.79V74.19H69.85V72.15Z" fill="white"/>
  <path d="M48.81 71.75V80.05C48.81 83.53 56.27 86.36 65.48 86.36C74.69 86.36 82.15 83.53 82.15 80.05V71.75" fill="#3C8645"/>
  <path d="M65.47 87.21C55.48 87.21 47.95 84.13 47.95 80.05V71.75C47.95 71.28 48.33 70.9 48.8 70.9C49.27 70.9 49.65 71.28 49.65 71.75V80.05C49.65 82.63 56.15 85.51 65.47 85.51C74.79 85.51 81.29 82.63 81.29 80.05V71.75C81.29 71.28 81.67 70.9 82.14 70.9C82.61 70.9 82.99 71.28 82.99 71.75V80.05C82.99 84.13 75.46 87.21 65.47 87.21Z" fill="#0E1721"/>
  <path d="M48.81 62.68V70.98C48.81 74.46 56.27 77.29 65.48 77.29C74.69 77.29 82.15 74.46 82.15 70.98V62.68" fill="#FCCD2A"/>
  <path d="M65.47 78.14C55.48 78.14 47.95 75.06 47.95 70.98V62.68C47.95 62.21 48.33 61.83 48.8 61.83C49.27 61.83 49.65 62.21 49.65 62.68V70.98C49.65 73.56 56.15 76.44 65.47 76.44C74.79 76.44 81.29 73.56 81.29 70.98V62.68C81.29 62.21 81.67 61.83 82.14 61.83C82.61 61.83 82.99 62.21 82.99 62.68V70.98C82.99 75.06 75.46 78.14 65.47 78.14Z" fill="#0E1721"/>
  <path d="M48.81 53.61V61.91C48.81 65.39 56.27 68.22 65.48 68.22C74.69 68.22 82.15 65.39 82.15 61.91V53.61" fill="#FC8B27"/>
  <path d="M65.47 69.07C55.48 69.07 47.95 65.99 47.95 61.91V53.61C47.95 53.14 48.33 52.76 48.8 52.76C49.27 52.76 49.65 53.14 49.65 53.61V61.91C49.65 64.49 56.15 67.37 65.47 67.37C74.79 67.37 81.29 64.49 81.29 61.91V53.61C81.29 53.14 81.67 52.76 82.14 52.76C82.61 52.76 82.99 53.14 82.99 53.61V61.91C82.99 65.99 75.46 69.07 65.47 69.07Z" fill="#0E1721"/>
  <path d="M65.47 59.92C74.6766 59.92 82.14 57.0949 82.14 53.61C82.14 50.1251 74.6766 47.3 65.47 47.3C56.2634 47.3 48.8 50.1251 48.8 53.61C48.8 57.0949 56.2634 59.92 65.47 59.92Z" fill="white"/>
  <path d="M65.47 60.77C55.48 60.77 47.95 57.69 47.95 53.61C47.95 49.53 55.48 46.45 65.47 46.45C75.46 46.45 82.99 49.53 82.99 53.61C82.99 57.69 75.46 60.77 65.47 60.77ZM65.47 48.15C56.15 48.15 49.65 51.03 49.65 53.61C49.65 56.19 56.15 59.07 65.47 59.07C74.79 59.07 81.29 56.19 81.29 53.61C81.29 51.03 74.79 48.15 65.47 48.15Z" fill="#0E1721"/>
  <path d="M70.87 82.81C71.5272 82.81 72.06 82.2772 72.06 81.62C72.06 80.9628 71.5272 80.43 70.87 80.43C70.2128 80.43 69.68 80.9628 69.68 81.62C69.68 82.2772 70.2128 82.81 70.87 82.81Z" fill="white"/>
  <path d="M70.87 83.14C70.03 83.14 69.34 82.45 69.34 81.61C69.34 80.77 70.03 80.08 70.87 80.08C71.71 80.08 72.4 80.77 72.4 81.61C72.4 82.45 71.71 83.14 70.87 83.14ZM70.87 80.77C70.4 80.77 70.02 81.15 70.02 81.62C70.02 82.09 70.4 82.47 70.87 82.47C71.34 82.47 71.72 82.09 71.72 81.62C71.72 81.15 71.34 80.77 70.87 80.77Z" fill="#0E1721"/>
  <path d="M65.47 82.81C66.1272 82.81 66.66 82.2772 66.66 81.62C66.66 80.9628 66.1272 80.43 65.47 80.43C64.8128 80.43 64.28 80.9628 64.28 81.62C64.28 82.2772 64.8128 82.81 65.47 82.81Z" fill="white"/>
  <path d="M65.47 83.14C64.63 83.14 63.94 82.45 63.94 81.61C63.94 80.77 64.63 80.08 65.47 80.08C66.31 80.08 67 80.77 67 81.61C67 82.45 66.31 83.14 65.47 83.14ZM65.47 80.77C65 80.77 64.62 81.15 64.62 81.62C64.62 82.09 65 82.47 65.47 82.47C65.94 82.47 66.32 82.09 66.32 81.62C66.32 81.15 65.94 80.77 65.47 80.77Z" fill="#0E1721"/>
  <path d="M60.07 82.81C60.7272 82.81 61.26 82.2772 61.26 81.62C61.26 80.9628 60.7272 80.43 60.07 80.43C59.4128 80.43 58.88 80.9628 58.88 81.62C58.88 82.2772 59.4128 82.81 60.07 82.81Z" fill="white"/>
  <path d="M60.07 83.14C59.23 83.14 58.54 82.45 58.54 81.61C58.54 80.77 59.23 80.08 60.07 80.08C60.91 80.08 61.6 80.77 61.6 81.61C61.6 82.45 60.91 83.14 60.07 83.14ZM60.07 80.77C59.6 80.77 59.22 81.15 59.22 81.62C59.22 82.09 59.6 82.47 60.07 82.47C60.54 82.47 60.92 82.09 60.92 81.62C60.92 81.15 60.54 80.77 60.07 80.77Z" fill="#0E1721"/>
  <path d="M70.87 73.77C71.5272 73.77 72.06 73.2372 72.06 72.58C72.06 71.9228 71.5272 71.39 70.87 71.39C70.2128 71.39 69.68 71.9228 69.68 72.58C69.68 73.2372 70.2128 73.77 70.87 73.77Z" fill="white"/>
  <path d="M70.87 74.11C70.03 74.11 69.34 73.42 69.34 72.58C69.34 71.74 70.03 71.05 70.87 71.05C71.71 71.05 72.4 71.74 72.4 72.58C72.4 73.42 71.71 74.11 70.87 74.11ZM70.87 71.74C70.4 71.74 70.02 72.12 70.02 72.59C70.02 73.06 70.4 73.44 70.87 73.44C71.34 73.44 71.72 73.06 71.72 72.59C71.72 72.12 71.34 71.74 70.87 71.74Z" fill="#0E1721"/>
  <path d="M65.47 73.77C66.1272 73.77 66.66 73.2372 66.66 72.58C66.66 71.9228 66.1272 71.39 65.47 71.39C64.8128 71.39 64.28 71.9228 64.28 72.58C64.28 73.2372 64.8128 73.77 65.47 73.77Z" fill="white"/>
  <path d="M65.47 74.11C64.63 74.11 63.94 73.42 63.94 72.58C63.94 71.74 64.63 71.05 65.47 71.05C66.31 71.05 67 71.74 67 72.58C67 73.42 66.31 74.11 65.47 74.11ZM65.47 71.74C65 71.74 64.62 72.12 64.62 72.59C64.62 73.06 65 73.44 65.47 73.44C65.94 73.44 66.32 73.06 66.32 72.59C66.32 72.12 65.94 71.74 65.47 71.74Z" fill="#0E1721"/>
  <path d="M60.07 73.77C60.7272 73.77 61.26 73.2372 61.26 72.58C61.26 71.9228 60.7272 71.39 60.07 71.39C59.4128 71.39 58.88 71.9228 58.88 72.58C58.88 73.2372 59.4128 73.77 60.07 73.77Z" fill="white"/>
  <path d="M60.07 74.11C59.23 74.11 58.54 73.42 58.54 72.58C58.54 71.74 59.23 71.05 60.07 71.05C60.91 71.05 61.6 71.74 61.6 72.58C61.6 73.42 60.91 74.11 60.07 74.11ZM60.07 71.74C59.6 71.74 59.22 72.12 59.22 72.59C59.22 73.06 59.6 73.44 60.07 73.44C60.54 73.44 60.92 73.06 60.92 72.59C60.92 72.12 60.54 71.74 60.07 71.74Z" fill="#0E1721"/>
  <path d="M70.87 64.95C71.5272 64.95 72.06 64.4172 72.06 63.76C72.06 63.1028 71.5272 62.57 70.87 62.57C70.2128 62.57 69.68 63.1028 69.68 63.76C69.68 64.4172 70.2128 64.95 70.87 64.95Z" fill="white"/>
  <path d="M70.87 65.29C70.03 65.29 69.34 64.6 69.34 63.76C69.34 62.92 70.03 62.23 70.87 62.23C71.71 62.23 72.4 62.92 72.4 63.76C72.4 64.6 71.71 65.29 70.87 65.29ZM70.87 62.91C70.4 62.91 70.02 63.29 70.02 63.76C70.02 64.23 70.4 64.61 70.87 64.61C71.34 64.61 71.72 64.23 71.72 63.76C71.72 63.29 71.34 62.91 70.87 62.91Z" fill="#0E1721"/>
  <path d="M65.47 64.95C66.1272 64.95 66.66 64.4172 66.66 63.76C66.66 63.1028 66.1272 62.57 65.47 62.57C64.8128 62.57 64.28 63.1028 64.28 63.76C64.28 64.4172 64.8128 64.95 65.47 64.95Z" fill="white"/>
  <path d="M65.47 65.29C64.63 65.29 63.94 64.6 63.94 63.76C63.94 62.92 64.63 62.23 65.47 62.23C66.31 62.23 67 62.92 67 63.76C67 64.6 66.31 65.29 65.47 65.29ZM65.47 62.91C65 62.91 64.62 63.29 64.62 63.76C64.62 64.23 65 64.61 65.47 64.61C65.94 64.61 66.32 64.23 66.32 63.76C66.32 63.29 65.94 62.91 65.47 62.91Z" fill="#0E1721"/>
  <path d="M60.07 64.95C60.7272 64.95 61.26 64.4172 61.26 63.76C61.26 63.1028 60.7272 62.57 60.07 62.57C59.4128 62.57 58.88 63.1028 58.88 63.76C58.88 64.4172 59.4128 64.95 60.07 64.95Z" fill="white"/>
  <path d="M60.07 65.29C59.23 65.29 58.54 64.6 58.54 63.76C58.54 62.92 59.23 62.23 60.07 62.23C60.91 62.23 61.6 62.92 61.6 63.76C61.6 64.6 60.91 65.29 60.07 65.29ZM60.07 62.91C59.6 62.91 59.22 63.29 59.22 63.76C59.22 64.23 59.6 64.61 60.07 64.61C60.54 64.61 60.92 64.23 60.92 63.76C60.92 63.29 60.54 62.91 60.07 62.91Z" fill="#0E1721"/>
</svg>
