<svg xmlns="http://www.w3.org/2000/svg" width="100" height="100" viewBox="0 0 100 100" fill="none">
  <path d="M83.35 70.87H82.31C81.84 70.87 81.46 70.49 81.46 70.02C81.46 69.55 81.84 69.17 82.31 69.17H83.35C91.59 69.17 98.3 62.46 98.3 54.22C98.3 45.98 91.59 39.27 83.35 39.27C82.23 39.27 81.11 39.4 80.03 39.66C79.77 39.72 79.5 39.66 79.29 39.49C79.08 39.32 78.97 39.06 78.98 38.79C78.98 38.67 78.98 38.54 78.98 38.42C78.98 33.08 74.64 28.74 69.3 28.74C67.78 28.74 66.32 29.09 64.96 29.79C64.75 29.9 64.51 29.91 64.29 29.84C64.07 29.76 63.89 29.6 63.79 29.39C59.71 20.47 50.73 14.7 40.94 14.7C27.66 14.7 16.62 25.18 15.81 38.57C15.79 38.98 15.46 39.32 15.05 39.36C7.44 40.17 1.71 46.56 1.71 54.22C1.71 62.46 8.42 69.17 16.66 69.17H37.62C38.09 69.17 38.47 69.55 38.47 70.02C38.47 70.49 38.09 70.87 37.62 70.87H16.66C7.47 70.87 0 63.4 0 54.22C0 45.93 6.04 38.97 14.16 37.76C15.36 23.82 26.99 13 40.94 13C51.11 13 60.46 18.83 64.99 27.91C66.36 27.33 67.81 27.04 69.31 27.04C75.38 27.04 80.35 31.81 80.68 37.8C81.56 37.65 82.46 37.58 83.36 37.58C92.54 37.58 100.01 45.05 100.01 54.23C100.01 63.41 92.54 70.88 83.36 70.88L83.35 70.87Z" fill="#4279B6"/>
  <path d="M56.22 64.66H56.16C55.69 64.66 55.31 64.28 55.31 63.81C55.31 63.34 55.69 62.96 56.16 62.96H56.22C56.69 62.96 57.07 63.34 57.07 63.81C57.07 64.28 56.69 64.66 56.22 64.66Z" fill="#2D557F"/>
  <path d="M60.15 64.66H60.09C59.62 64.66 59.24 64.28 59.24 63.81C59.24 63.34 59.62 62.96 60.09 62.96H60.15C60.62 62.96 61 63.34 61 63.81C61 64.28 60.62 64.66 60.15 64.66Z" fill="#2D557F"/>
  <path d="M64.07 64.66H64.01C63.54 64.66 63.16 64.28 63.16 63.81C63.16 63.34 63.54 62.96 64.01 62.96H64.07C64.54 62.96 64.92 63.34 64.92 63.81C64.92 64.28 64.54 64.66 64.07 64.66Z" fill="#2D557F"/>
  <path d="M59.69 60.48C49.7 60.48 42.17 57.4 42.17 53.32C42.17 49.24 49.7 46.16 59.69 46.16C69.68 46.16 77.21 49.24 77.21 53.32C77.21 57.4 69.68 60.48 59.69 60.48ZM59.69 47.86C50.37 47.86 43.87 50.74 43.87 53.32C43.87 55.9 50.37 58.78 59.69 58.78C69.01 58.78 75.51 55.9 75.51 53.32C75.51 50.74 69.01 47.86 59.69 47.86Z" fill="#2D557F"/>
  <path d="M59.69 68.78C49.7 68.78 42.17 65.7 42.17 61.62V53.32C42.17 52.85 42.55 52.47 43.02 52.47C43.49 52.47 43.87 52.85 43.87 53.32V61.62C43.87 64.2 50.37 67.08 59.69 67.08C69.01 67.08 75.51 64.2 75.51 61.62V53.32C75.51 52.85 75.89 52.47 76.36 52.47C76.83 52.47 77.21 52.85 77.21 53.32V61.62C77.21 65.7 69.68 68.78 59.69 68.78Z" fill="#2D557F"/>
  <path d="M56.22 73.73H56.16C55.69 73.73 55.31 73.35 55.31 72.88C55.31 72.41 55.69 72.03 56.16 72.03H56.22C56.69 72.03 57.07 72.41 57.07 72.88C57.07 73.35 56.69 73.73 56.22 73.73Z" fill="#2D557F"/>
  <path d="M60.15 73.73H60.09C59.62 73.73 59.24 73.35 59.24 72.88C59.24 72.41 59.62 72.03 60.09 72.03H60.15C60.62 72.03 61 72.41 61 72.88C61 73.35 60.62 73.73 60.15 73.73Z" fill="#2D557F"/>
  <path d="M64.07 73.73H64.01C63.54 73.73 63.16 73.35 63.16 72.88C63.16 72.41 63.54 72.03 64.01 72.03H64.07C64.54 72.03 64.92 72.41 64.92 72.88C64.92 73.35 64.54 73.73 64.07 73.73Z" fill="#2D557F"/>
  <path d="M59.69 77.85C49.7 77.85 42.17 74.77 42.17 70.69V62.39C42.17 61.92 42.55 61.54 43.02 61.54C43.49 61.54 43.87 61.92 43.87 62.39V70.69C43.87 73.27 50.37 76.15 59.69 76.15C69.01 76.15 75.51 73.27 75.51 70.69V62.39C75.51 61.92 75.89 61.54 76.36 61.54C76.83 61.54 77.21 61.92 77.21 62.39V70.69C77.21 74.77 69.68 77.85 59.69 77.85Z" fill="#2D557F"/>
  <path d="M56.22 82.8H56.16C55.69 82.8 55.31 82.42 55.31 81.95C55.31 81.48 55.69 81.1 56.16 81.1H56.22C56.69 81.1 57.07 81.48 57.07 81.95C57.07 82.42 56.69 82.8 56.22 82.8Z" fill="#2D557F"/>
  <path d="M60.15 82.8H60.09C59.62 82.8 59.24 82.42 59.24 81.95C59.24 81.48 59.62 81.1 60.09 81.1H60.15C60.62 81.1 61 81.48 61 81.95C61 82.42 60.62 82.8 60.15 82.8Z" fill="#2D557F"/>
  <path d="M64.07 82.8H64.01C63.54 82.8 63.16 82.42 63.16 81.95C63.16 81.48 63.54 81.1 64.01 81.1H64.07C64.54 81.1 64.92 81.48 64.92 81.95C64.92 82.42 64.54 82.8 64.07 82.8Z" fill="#2D557F"/>
  <path d="M59.69 86.92C49.7 86.92 42.17 83.84 42.17 79.76V71.46C42.17 70.99 42.55 70.61 43.02 70.61C43.49 70.61 43.87 70.99 43.87 71.46V79.76C43.87 82.34 50.37 85.22 59.69 85.22C69.01 85.22 75.51 82.34 75.51 79.76V71.46C75.51 70.99 75.89 70.61 76.36 70.61C76.83 70.61 77.21 70.99 77.21 71.46V79.76C77.21 83.84 69.68 86.92 59.69 86.92Z" fill="#2D557F"/>
</svg>
