<svg xmlns="http://www.w3.org/2000/svg" width="100" height="100" viewBox="0 0 100 100" fill="none">
  <path d="M37.55 71.02H16.65C7.94001 71.02 0.850006 63.93 0.850006 55.22C0.850006 47.08 7.04001 40.36 14.95 39.51C15.79 25.66 27.13 14.85 40.94 14.85C51.13 14.85 60.38 20.87 64.59 30.04C66.05 29.29 67.65 28.89 69.31 28.89C75.12 28.89 79.84 33.61 79.84 39.42C79.84 39.56 79.84 39.69 79.83 39.83C80.99 39.56 82.16 39.42 83.35 39.42C92.06 39.42 99.15 46.51 99.15 55.22C99.15 63.93 92.06 71.02 83.35 71.02H37.55Z" fill="#4279B6"/>
  <path d="M83.35 71.87H16.65C7.47 71.87 0 64.4 0 55.22C0 46.93 6.04 39.97 14.16 38.76C15.36 24.82 26.99 14 40.94 14C51.11 14 60.46 19.83 64.99 28.91C66.36 28.33 67.81 28.04 69.31 28.04C75.38 28.04 80.35 32.81 80.68 38.8C81.56 38.65 82.46 38.58 83.36 38.58C92.54 38.58 100.01 46.05 100.01 55.23C100.01 64.41 92.54 71.88 83.36 71.88L83.35 71.87ZM40.94 15.7C27.66 15.7 16.62 26.18 15.81 39.57C15.78 39.98 15.46 40.32 15.05 40.36C7.44 41.17 1.71 47.56 1.71 55.22C1.71 63.46 8.42 70.17 16.66 70.17H83.36C91.6 70.17 98.31 63.46 98.31 55.22C98.31 46.98 91.6 40.27 83.36 40.27C82.24 40.27 81.12 40.4 80.03 40.66C79.77 40.72 79.5 40.66 79.29 40.49C79.08 40.32 78.97 40.06 78.98 39.79C78.98 39.67 78.98 39.54 78.98 39.42C78.98 34.08 74.64 29.74 69.3 29.74C67.78 29.74 66.32 30.09 64.97 30.79C64.76 30.9 64.52 30.91 64.3 30.84C64.08 30.76 63.9 30.6 63.8 30.39C59.71 21.47 50.73 15.7 40.94 15.7Z" fill="#0E1721"/>
  <path d="M69.76 64.63V52.65C69.76 51.71 69 50.95 68.06 50.95H55.3C54.36 50.95 53.6 51.71 53.6 52.65V64.63H44.2L61.67 85.11L79.15 64.63H69.75H69.76Z" fill="#FCCD2A"/>
  <path d="M61.67 85.95C61.42 85.95 61.18 85.84 61.02 85.65L43.55 65.17C43.33 64.92 43.29 64.56 43.42 64.26C43.56 63.96 43.86 63.77 44.19 63.77H52.74V52.64C52.74 51.23 53.88 50.09 55.29 50.09H68.05C69.46 50.09 70.6 51.23 70.6 52.64V63.77H79.15C79.48 63.77 79.78 63.96 79.92 64.26C80.06 64.56 80.01 64.92 79.79 65.17L62.31 85.65C62.15 85.84 61.91 85.95 61.66 85.95H61.67ZM46.05 65.48L61.68 83.8L77.32 65.48H69.77C69.3 65.48 68.92 65.1 68.92 64.63V52.65C68.92 52.18 68.54 51.8 68.07 51.8H55.31C54.84 51.8 54.46 52.18 54.46 52.65V64.63C54.46 65.1 54.08 65.48 53.61 65.48H46.06H46.05Z" fill="#0E1721"/>
</svg>
