<svg xmlns="http://www.w3.org/2000/svg" width="100" height="100" viewBox="0 0 100 100" fill="none">
  <path d="M37.55 69.02H16.65C7.93997 69.02 0.849976 61.93 0.849976 53.22C0.849976 45.08 7.03998 38.36 14.95 37.51C15.79 23.66 27.13 12.85 40.94 12.85C51.13 12.85 60.38 18.87 64.59 28.04C66.05 27.29 67.65 26.89 69.31 26.89C75.12 26.89 79.84 31.61 79.84 37.42C79.84 37.56 79.84 37.69 79.83 37.83C80.99 37.56 82.16 37.42 83.35 37.42C92.06 37.42 99.15 44.51 99.15 53.22C99.15 61.93 92.06 69.02 83.35 69.02H37.55Z" fill="#4279B6"/>
  <path d="M83.35 69.87H16.65C7.47 69.87 0 62.4 0 53.22C0 44.93 6.04 37.97 14.16 36.76C15.36 22.82 26.99 12 40.94 12C51.11 12 60.46 17.83 64.99 26.91C66.36 26.33 67.81 26.04 69.31 26.04C75.38 26.04 80.35 30.81 80.68 36.8C81.56 36.65 82.46 36.58 83.36 36.58C92.54 36.58 100.01 44.05 100.01 53.23C100.01 62.41 92.54 69.88 83.36 69.88L83.35 69.87ZM40.94 13.7C27.66 13.7 16.62 24.18 15.81 37.57C15.79 37.98 15.46 38.32 15.05 38.36C7.44 39.17 1.71 45.56 1.71 53.22C1.71 61.46 8.42 68.17 16.66 68.17H83.36C91.6 68.17 98.31 61.46 98.31 53.22C98.31 44.98 91.6 38.27 83.36 38.27C82.24 38.27 81.12 38.4 80.04 38.66C79.78 38.72 79.51 38.66 79.3 38.49C79.09 38.32 78.98 38.06 78.99 37.79C78.99 37.67 78.99 37.54 78.99 37.42C78.99 32.08 74.65 27.74 69.31 27.74C67.79 27.74 66.33 28.09 64.97 28.79C64.76 28.9 64.52 28.91 64.3 28.84C64.08 28.76 63.9 28.6 63.8 28.39C59.71 19.47 50.73 13.7 40.94 13.7Z" fill="#0E1721"/>
  <path d="M57 72.65V84.63C57 85.57 57.76 86.33 58.7 86.33H71.46C72.4 86.33 73.16 85.57 73.16 84.63V72.65H82.56L65.09 52.17L47.61 72.65H57.01H57Z" fill="#FCCD2A"/>
  <path d="M71.46 87.18H58.7C57.29 87.18 56.15 86.04 56.15 84.63V73.5H47.6C47.27 73.5 46.97 73.31 46.83 73.01C46.69 72.71 46.74 72.35 46.96 72.1L64.44 51.62C64.6 51.43 64.84 51.32 65.09 51.32C65.34 51.32 65.58 51.43 65.74 51.62L83.21 72.1C83.43 72.35 83.47 72.71 83.34 73.01C83.2 73.31 82.9 73.5 82.57 73.5H74.02V84.63C74.02 86.04 72.88 87.18 71.47 87.18H71.46ZM49.45 71.8H57C57.47 71.8 57.85 72.18 57.85 72.65V84.63C57.85 85.1 58.23 85.48 58.7 85.48H71.46C71.93 85.48 72.31 85.1 72.31 84.63V72.65C72.31 72.18 72.69 71.8 73.16 71.8H80.71L65.08 53.48L49.44 71.8H49.45Z" fill="#0E1721"/>
</svg>
