<svg xmlns="http://www.w3.org/2000/svg" width="100" height="100" viewBox="0 0 100 100" fill="none">
  <path d="M83.35 71.87H80.92C80.45 71.87 80.07 71.49 80.07 71.02C80.07 70.55 80.45 70.17 80.92 70.17H83.35C91.59 70.17 98.3 63.46 98.3 55.22C98.3 46.98 91.59 40.27 83.35 40.27C82.23 40.27 81.11 40.4 80.02 40.66C79.76 40.72 79.49 40.66 79.28 40.49C79.07 40.32 78.96 40.06 78.97 39.79C78.97 39.67 78.97 39.54 78.97 39.42C78.97 34.08 74.63 29.74 69.29 29.74C67.77 29.74 66.31 30.09 64.96 30.79C64.75 30.9 64.51 30.91 64.29 30.84C64.07 30.76 63.89 30.6 63.79 30.39C59.71 21.47 50.73 15.7 40.94 15.7C27.66 15.7 16.62 26.18 15.81 39.57C15.78 39.98 15.46 40.32 15.05 40.36C7.44 41.17 1.71 47.56 1.71 55.22C1.71 63.46 8.42 70.17 16.66 70.17H38.36C38.83 70.17 39.21 70.55 39.21 71.02C39.21 71.49 38.83 71.87 38.36 71.87H16.66C7.47 71.87 0 64.4 0 55.22C0 46.93 6.04 39.97 14.16 38.76C15.36 24.82 26.99 14 40.94 14C51.11 14 60.46 19.83 64.99 28.91C66.36 28.33 67.81 28.04 69.31 28.04C75.38 28.04 80.35 32.81 80.68 38.8C81.56 38.65 82.46 38.58 83.36 38.58C92.54 38.58 100.01 46.05 100.01 55.23C100.01 64.41 92.54 71.88 83.36 71.88L83.35 71.87Z" fill="#4279B6"/>
  <path d="M59.63 86.85C59.38 86.85 59.14 86.74 58.98 86.55L41.51 66.07C41.29 65.82 41.25 65.46 41.38 65.16C41.52 64.86 41.82 64.67 42.15 64.67H50.7V53.54C50.7 52.13 51.84 50.99 53.25 50.99H66.01C67.42 50.99 68.56 52.13 68.56 53.54V64.67H77.11C77.44 64.67 77.74 64.86 77.88 65.16C78.02 65.46 77.97 65.82 77.75 66.07L60.27 86.55C60.11 86.74 59.87 86.85 59.62 86.85H59.63ZM44 66.38L59.63 84.7L75.27 66.38H67.72C67.25 66.38 66.87 66 66.87 65.53V53.55C66.87 53.08 66.49 52.7 66.02 52.7H53.26C52.79 52.7 52.41 53.08 52.41 53.55V65.53C52.41 66 52.03 66.38 51.56 66.38H44.01H44Z" fill="#2D557F"/>
</svg>
