<svg xmlns="http://www.w3.org/2000/svg" width="100" height="100" viewBox="0 0 100 100" fill="none">
  <path fill-rule="evenodd" clip-rule="evenodd" d="M81.64 25.97C87.29 28.94 91.89 33.84 94.37 40C94.55 40.43 94.87 40.76 95.26 40.95C95.65 41.13 96.11 41.18 96.56 41.03L97.26 40.81L97.95 40.59C98.2 40.51 98.41 40.4 98.59 40.24C98.77 40.08 98.91 39.89 99.03 39.65C99.14 39.42 99.2 39.18 99.21 38.95C99.21 38.72 99.18 38.49 99.09 38.26V38.23C96.15 30.82 90.72 24.98 84.03 21.47C77.4 17.99 69.54 16.8 61.68 18.61C61.43 18.67 61.2 18.77 61.01 18.91C60.82 19.05 60.66 19.24 60.53 19.46C60.4 19.68 60.32 19.92 60.3 20.15C60.28 20.38 60.3 20.63 60.38 20.88L60.82 22.26C60.96 22.7 61.25 23.05 61.63 23.27C62.01 23.48 62.46 23.56 62.91 23.46C69.51 21.98 76.09 23.02 81.65 25.94L81.64 25.97ZM75.71 35.78C79.21 37.61 82.13 40.55 83.89 44.31C84.08 44.71 84.4 45.02 84.78 45.19C85.16 45.36 85.6 45.39 86.03 45.26L87.43 44.82C87.68 44.74 87.9 44.62 88.08 44.46C88.26 44.3 88.41 44.09 88.52 43.85C88.63 43.61 88.68 43.36 88.68 43.12C88.68 42.88 88.63 42.63 88.52 42.39C86.29 37.45 82.58 33.61 78.08 31.26C73.6 28.93 68.33 28.07 62.95 29.07C62.69 29.12 62.46 29.21 62.26 29.35C62.06 29.49 61.89 29.67 61.75 29.9C61.61 30.13 61.53 30.37 61.5 30.61C61.47 30.85 61.5 31.1 61.58 31.35L62.02 32.74C62.16 33.17 62.44 33.51 62.79 33.73C63.15 33.95 63.58 34.04 64.02 33.96C68.14 33.25 72.21 33.96 75.7 35.77L75.71 35.78Z" fill="#FCCD2A"/>
  <path d="M85.5 46.14C85.15 46.14 84.8 46.07 84.47 45.93C84.47 45.93 84.45 45.93 84.44 45.92C83.88 45.67 83.43 45.22 83.16 44.66C81.5 41.13 78.8 38.3 75.34 36.5C71.89 34.7 68.03 34.1 64.17 34.76C63.55 34.87 62.92 34.75 62.39 34.42C61.86 34.1 61.46 33.59 61.27 32.99L60.83 31.6C60.72 31.24 60.68 30.88 60.72 30.52C60.76 30.16 60.88 29.82 61.08 29.49C61.28 29.16 61.53 28.89 61.82 28.69C62.11 28.49 62.45 28.35 62.82 28.28C68.26 27.27 73.67 28.05 78.47 30.54C83.27 33.04 87.01 37.02 89.27 42.05C89.42 42.39 89.5 42.75 89.5 43.11C89.5 43.13 89.5 43.15 89.5 43.17C89.5 43.51 89.42 43.84 89.27 44.17C89.12 44.52 88.9 44.81 88.64 45.05C88.37 45.29 88.05 45.47 87.69 45.58L86.29 46.02C86.03 46.1 85.77 46.14 85.5 46.14ZM85.13 44.45C85.34 44.54 85.58 44.55 85.8 44.48L87.2 44.04C87.34 43.99 87.47 43.93 87.57 43.84C87.66 43.76 87.74 43.64 87.8 43.51C87.86 43.37 87.89 43.24 87.89 43.11C87.89 43.1 87.89 43.08 87.89 43.07C87.89 42.95 87.85 42.83 87.8 42.71C85.68 38.01 82.2 34.29 77.72 31.96C73.25 29.63 68.2 28.9 63.11 29.85C62.96 29.88 62.84 29.93 62.73 30C62.62 30.08 62.53 30.18 62.45 30.31C62.37 30.44 62.33 30.57 62.31 30.7C62.3 30.83 62.31 30.96 62.36 31.1L62.8 32.5C62.87 32.73 63.02 32.92 63.22 33.04C63.42 33.16 63.66 33.21 63.9 33.17C68.11 32.45 72.32 33.1 76.09 35.06C79.86 37.03 82.82 40.11 84.63 43.96C84.73 44.18 84.91 44.35 85.12 44.44C85.12 44.44 85.13 44.44 85.14 44.44L85.13 44.45ZM96.01 41.93C95.63 41.93 95.26 41.85 94.91 41.69C94.32 41.41 93.86 40.92 93.61 40.31C91.26 34.47 86.88 29.64 81.25 26.69C75.66 23.76 69.2 22.9 63.06 24.28C62.43 24.42 61.77 24.32 61.2 24C60.64 23.67 60.22 23.15 60.02 22.53L59.58 21.15C59.47 20.8 59.43 20.44 59.47 20.1C59.51 19.76 59.62 19.41 59.8 19.09C59.98 18.77 60.22 18.51 60.5 18.29C60.78 18.08 61.1 17.93 61.47 17.85C69.23 16.06 77.36 17.1 84.37 20.78C91.4 24.46 96.87 30.56 99.78 37.94C99.78 37.96 99.8 37.98 99.8 38C99.92 38.33 99.98 38.66 99.97 39C99.96 39.35 99.87 39.69 99.72 40.02C99.55 40.36 99.34 40.65 99.08 40.87C98.82 41.1 98.51 41.27 98.16 41.38L96.77 41.82C96.51 41.9 96.25 41.94 95.99 41.94L96.01 41.93ZM82.01 25.26C87.97 28.39 92.62 33.52 95.11 39.71C95.2 39.94 95.38 40.13 95.6 40.23C95.82 40.33 96.08 40.35 96.31 40.28L97.7 39.84C97.84 39.8 97.96 39.73 98.05 39.65C98.14 39.57 98.23 39.46 98.29 39.32C98.35 39.2 98.38 39.06 98.39 38.94C98.39 38.83 98.37 38.71 98.33 38.59C98.33 38.58 98.32 38.56 98.31 38.55C95.54 31.52 90.33 25.72 83.64 22.21C76.97 18.71 69.23 17.72 61.85 19.42C61.7 19.45 61.58 19.51 61.48 19.58C61.37 19.66 61.29 19.76 61.21 19.89C61.14 20.02 61.09 20.14 61.08 20.27C61.07 20.4 61.08 20.53 61.13 20.67L61.57 22.05C61.64 22.29 61.8 22.48 62.01 22.61C62.22 22.73 62.47 22.77 62.71 22.71C69.23 21.25 76.08 22.15 82 25.26H82.01Z" fill="#0E1721"/>
  <path d="M35.52 81.76H15.75C7.51 81.76 0.809998 75.06 0.809998 66.82C0.809998 59.12 6.66 52.76 14.15 51.96C14.94 38.85 25.66 28.63 38.72 28.63C48.36 28.63 57.1 34.32 61.09 43C62.47 42.29 63.99 41.92 65.56 41.92C71.05 41.92 75.52 46.39 75.52 51.88C75.52 52.01 75.52 52.14 75.52 52.27C76.62 52.01 77.73 51.88 78.85 51.88C87.09 51.88 93.79 58.58 93.79 66.82C93.79 75.06 87.09 81.76 78.85 81.76H35.53H35.52Z" fill="#4279B6"/>
  <path d="M78.84 82.57H15.75C7.07 82.57 0 75.51 0 66.82C0 58.98 5.71 52.4 13.39 51.25C14.52 38.06 25.52 27.83 38.72 27.83C48.34 27.83 57.18 33.34 61.47 41.94C62.77 41.39 64.14 41.12 65.56 41.12C71.3 41.12 76 45.63 76.31 51.29C77.15 51.15 78 51.08 78.84 51.08C87.52 51.08 94.59 58.14 94.59 66.83C94.59 75.52 87.53 82.58 78.84 82.58V82.57ZM38.72 29.44C26.15 29.44 15.71 39.36 14.95 52.01C14.93 52.4 14.62 52.72 14.23 52.76C7.03 53.53 1.61 59.57 1.61 66.82C1.61 74.62 7.95 80.96 15.75 80.96H78.84C86.64 80.96 92.98 74.62 92.98 66.82C92.98 59.02 86.64 52.68 78.84 52.68C77.78 52.68 76.73 52.8 75.69 53.05C75.44 53.11 75.18 53.05 74.99 52.89C74.8 52.73 74.69 52.48 74.7 52.23C74.7 52.11 74.7 52 74.7 51.88C74.7 46.83 70.59 42.72 65.54 42.72C64.1 42.72 62.72 43.05 61.44 43.72C61.24 43.82 61.02 43.84 60.81 43.77C60.6 43.7 60.43 43.55 60.34 43.35C56.46 34.91 47.97 29.45 38.7 29.45L38.72 29.44Z" fill="#0E1721"/>
</svg>
