<svg xmlns="http://www.w3.org/2000/svg" width="100" height="100" viewBox="0 0 100 100" fill="none">
  <path fill-rule="evenodd" clip-rule="evenodd" d="M82.31 25.24C88.01 28.23 92.64 33.17 95.14 39.38C95.32 39.82 95.64 40.15 96.04 40.34C96.44 40.53 96.9 40.57 97.35 40.42L98.05 40.2L98.75 39.98C99 39.9 99.21 39.78 99.39 39.63C99.57 39.47 99.72 39.28 99.83 39.04C99.94 38.81 100 38.57 100.01 38.33C100.01 38.1 99.98 37.87 99.89 37.64V37.61C96.93 30.14 91.45 24.26 84.72 20.72C78.03 17.22 70.11 16.02 62.18 17.85C61.92 17.91 61.7 18.01 61.51 18.15C61.32 18.29 61.15 18.48 61.02 18.71C60.89 18.94 60.81 19.17 60.79 19.41C60.77 19.65 60.79 19.89 60.87 20.14L61.31 21.53C61.45 21.98 61.75 22.33 62.12 22.55C62.5 22.77 62.96 22.85 63.41 22.74C70.06 21.25 76.69 22.3 82.3 25.24H82.31ZM76.34 35.12C79.87 36.96 82.81 39.93 84.58 43.72C84.77 44.13 85.1 44.43 85.48 44.6C85.86 44.77 86.31 44.8 86.74 44.67L88.15 44.22C88.4 44.14 88.63 44.02 88.81 43.85C88.99 43.69 89.14 43.48 89.25 43.24C89.36 43 89.41 42.75 89.41 42.5C89.41 42.26 89.36 42.01 89.25 41.77C87.01 36.79 83.27 32.92 78.73 30.55C74.22 28.2 68.9 27.34 63.49 28.35C63.23 28.4 62.99 28.49 62.79 28.64C62.59 28.78 62.42 28.97 62.28 29.2C62.14 29.43 62.06 29.67 62.03 29.92C62 30.16 62.03 30.41 62.11 30.67L62.55 32.07C62.69 32.5 62.97 32.85 63.33 33.07C63.69 33.29 64.13 33.38 64.57 33.3C68.72 32.59 72.83 33.3 76.34 35.13V35.12Z" fill="#2D557F"/>
  <path d="M79.51 82.29H15.88C7.12 82.29 0 75.17 0 66.41C0 58.5 5.76 51.87 13.5 50.71C14.64 37.41 25.74 27.09 39.04 27.09C48.74 27.09 57.66 32.65 61.98 41.32C63.29 40.77 64.67 40.49 66.1 40.49C71.89 40.49 76.63 45.04 76.94 50.75C77.78 50.61 78.64 50.54 79.49 50.54C88.25 50.54 95.37 57.66 95.37 66.42C95.37 75.18 88.25 82.3 79.49 82.3L79.51 82.29ZM39.05 28.71C26.38 28.71 15.85 38.71 15.08 51.48C15.06 51.87 14.75 52.2 14.36 52.24C7.1 53.02 1.63 59.11 1.63 66.42C1.63 74.28 8.03 80.68 15.89 80.68H79.52C87.38 80.68 93.78 74.28 93.78 66.42C93.78 58.56 87.38 52.16 79.52 52.16C78.45 52.16 77.39 52.28 76.35 52.53C76.1 52.59 75.84 52.53 75.64 52.36C75.44 52.2 75.34 51.95 75.35 51.7C75.35 51.58 75.35 51.47 75.35 51.35C75.35 46.26 71.21 42.11 66.11 42.11C64.66 42.11 63.27 42.45 61.97 43.11C61.77 43.21 61.54 43.23 61.33 43.16C61.12 43.09 60.95 42.93 60.86 42.73C56.95 34.22 48.38 28.71 39.04 28.71H39.05Z" fill="#4279B6"/>
</svg>
