<svg xmlns="http://www.w3.org/2000/svg" width="100" height="100" viewBox="0 0 100 100" fill="none">
  <path d="M36.11 69.77H19.32C9.04995 69.77 0.699951 61.42 0.699951 51.16C0.699951 40.9 9.04995 32.55 19.3099 32.55H20.07V29.86C21.08 16.87 32.09 6.70001 45.16 6.70001C53.7 6.70001 61.49 10.97 66.1 18H66.16C73.75 18 79.93 24.18 79.93 31.77V32.53H80.69C90.95 32.53 99.3 40.88 99.3 51.14C99.3 61.4 90.95 69.75 80.69 69.75H36.11V69.77Z" fill="#FCCD2A"/>
  <path d="M80.6799 65.5499H19.3199C11.3799 65.5499 4.92993 59.0899 4.92993 51.1599C4.92993 43.2299 11.3899 36.7699 19.3199 36.7699H24.2899L24.3199 30.1799C24.3199 30.0799 24.3199 29.9899 24.3299 29.8899C25.2999 19.2599 34.4399 10.9399 45.1599 10.9399C52.2099 10.9399 58.7099 14.4499 62.5699 20.3399L63.8199 22.2499H66.1599C71.4299 22.2499 75.7099 26.5299 75.7099 31.7999V36.7899H80.6999C88.6399 36.7899 95.0899 43.2499 95.0899 51.1799C95.0899 59.1099 88.6299 65.5699 80.6999 65.5699L80.6799 65.5499Z" fill="#4279B6"/>
  <path d="M80.68 66.25H19.32C11 66.25 4.21997 59.48 4.21997 51.15C4.21997 42.82 10.99 36.05 19.32 36.05H23.59L23.62 30.16C23.62 30.04 23.62 29.93 23.64 29.81C24.64 18.82 34.09 10.22 45.17 10.22C52.45 10.22 59.18 13.85 63.16 19.93L64.2 21.52H66.16C71.81 21.52 76.41 26.12 76.41 31.77V36.05H80.69C89.01 36.05 95.79 42.82 95.79 51.15C95.79 59.48 89.02 66.25 80.69 66.25H80.68ZM19.32 37.47C11.77 37.47 5.62997 43.61 5.62997 51.16C5.62997 58.71 11.77 64.85 19.32 64.85H80.68C88.23 64.85 94.37 58.71 94.37 51.16C94.37 43.61 88.23 37.47 80.68 37.47H74.99V31.78C74.99 26.9 71.02 22.94 66.15 22.94H63.43L61.97 20.71C58.25 15.03 51.96 11.63 45.15 11.63C34.8 11.63 25.96 19.67 25.02 29.94C25.02 30.02 25.01 30.09 25.01 30.17L24.98 37.46H19.31L19.32 37.47Z" fill="#0E1721"/>
  <path d="M81.04 88.44H63.9C63.51 88.44 63.2 88.12 63.2 87.74V69.78C63.2 69.39 63.51 69.08 63.9 69.08H80.69C90.57 69.08 98.6 61.05 98.6 51.17C98.6 41.29 90.57 33.26 80.69 33.26H79.93C79.54 33.26 79.23 32.94 79.23 32.56V31.8C79.23 24.6 73.37 18.73 66.16 18.73H66.1C65.86 18.73 65.64 18.61 65.51 18.41C61 11.53 53.4 7.42 45.16 7.42C32.47 7.42 21.78 17.29 20.8 29.89V32.55C20.79 32.94 20.47 33.25 20.08 33.25H19.32C9.44 33.25 1.41 41.28 1.41 51.16C1.41 61.04 9.44 69.07 19.32 69.07H36.11C36.5 69.07 36.81 69.39 36.81 69.77V87.58C36.81 87.97 36.5 88.28 36.11 88.28H19.32C18.93 88.28 18.62 87.96 18.62 87.58C18.62 87.2 18.93 86.88 19.32 86.88H35.4V70.48H19.32C8.67 70.48 0 61.81 0 51.16C0 40.51 8.67 31.84 19.32 31.84H19.38V29.85C19.38 29.85 19.38 29.82 19.39 29.8C20.41 16.45 31.73 6 45.16 6C53.75 6 61.69 10.22 66.48 17.31C74.31 17.48 80.63 23.91 80.63 31.78V31.84H80.69C91.34 31.84 100.01 40.51 100.01 51.16C100.01 61.81 91.34 70.48 80.69 70.48H64.61V87.04H81.05C81.44 87.04 81.75 87.36 81.75 87.74C81.75 88.12 81.44 88.44 81.05 88.44H81.04Z" fill="#0E1721"/>
  <path d="M19.32 93.04C22.3355 93.04 24.78 90.5955 24.78 87.58C24.78 84.5645 22.3355 82.12 19.32 82.12C16.3045 82.12 13.86 84.5645 13.86 87.58C13.86 90.5955 16.3045 93.04 19.32 93.04Z" fill="#FC8B27"/>
  <path d="M19.32 93.75C15.92 93.75 13.16 90.98 13.16 87.59C13.16 84.2 15.93 81.43 19.32 81.43C22.71 81.43 25.48 84.2 25.48 87.59C25.48 90.98 22.71 93.75 19.32 93.75ZM19.32 82.82C16.7 82.82 14.56 84.95 14.56 87.58C14.56 90.21 16.69 92.34 19.32 92.34C21.95 92.34 24.08 90.21 24.08 87.58C24.08 84.95 21.95 82.82 19.32 82.82Z" fill="#0E1721"/>
  <path d="M81.04 93.04C84.0554 93.04 86.5 90.5955 86.5 87.58C86.5 84.5645 84.0554 82.12 81.04 82.12C78.0245 82.12 75.58 84.5645 75.58 87.58C75.58 90.5955 78.0245 93.04 81.04 93.04Z" fill="#FC8B27"/>
  <path d="M81.04 93.75C77.64 93.75 74.88 90.98 74.88 87.59C74.88 84.2 77.65 81.43 81.04 81.43C84.43 81.43 87.2 84.2 87.2 87.59C87.2 90.98 84.43 93.75 81.04 93.75ZM81.04 82.82C78.42 82.82 76.28 84.95 76.28 87.58C76.28 90.21 78.41 92.34 81.04 92.34C83.67 92.34 85.8 90.21 85.8 87.58C85.8 84.95 83.67 82.82 81.04 82.82Z" fill="#0E1721"/>
  <path d="M31.9 32.57C31.9 32.57 31.86 32.57 31.84 32.57C31.45 32.53 31.17 32.19 31.2 31.81C31.71 26.22 36.52 21.84 42.16 21.84C42.55 21.84 42.86 22.16 42.86 22.54C42.86 22.92 42.55 23.24 42.16 23.24C37.24 23.24 33.04 27.06 32.6 31.93C32.57 32.3 32.26 32.57 31.9 32.57Z" fill="#0E1721"/>
  <path d="M60.3899 53.98C54.6499 59.72 45.3399 59.72 39.5999 53.98C33.8599 48.24 33.8599 38.93 39.5999 33.19C45.3399 27.45 54.6599 27.44 60.3999 33.19C66.1399 38.93 66.1399 48.25 60.3999 53.99" fill="#3C8645"/>
  <path d="M50 58.98C46.05 58.98 42.11 57.48 39.1 54.47C36.19 51.56 34.59 47.69 34.59 43.57C34.59 39.45 36.19 35.59 39.1 32.68C42.01 29.77 45.88 28.17 50 28.17C54.12 28.17 57.98 29.77 60.89 32.68C66.9 38.69 66.9 48.46 60.89 54.47C57.89 57.47 53.94 58.97 50 58.97V58.98ZM50 29.58C46.26 29.58 42.74 31.04 40.1 33.68C37.46 36.32 36 39.84 36 43.58C36 47.32 37.46 50.84 40.1 53.48C45.56 58.94 54.44 58.94 59.9 53.48C65.36 48.02 65.36 39.13 59.9 33.68C57.26 31.04 53.74 29.58 50 29.58Z" fill="#0E1721"/>
  <path d="M49.05 87.61C49.05 87.08 49.48 86.66 50 86.66C50.52 86.66 50.9501 87.09 50.9501 87.61C50.9501 88.14 50.52 88.56 50 88.56C49.47 88.56 49.05 88.13 49.05 87.61Z" fill="#0E1721"/>
  <path d="M48.72 50.52C48.24 50.52 47.77 50.33 47.43 49.98L42.96 45.51C42.25 44.8 42.25 43.64 42.96 42.92C43.67 42.21 44.83 42.21 45.55 42.92L48.5 45.87L55.06 36.83C55.65 36.01 56.8 35.83 57.61 36.42C58.43 37.01 58.61 38.16 58.02 38.97L50.21 49.75C49.9 50.18 49.41 50.46 48.87 50.5C48.82 50.5 48.77 50.5 48.73 50.5L48.72 50.52Z" fill="white"/>
  <path d="M48.72 50.94C48.13 50.94 47.55 50.7 47.13 50.28L42.66 45.81C41.78 44.93 41.78 43.5 42.66 42.63C43.54 41.75 44.97 41.75 45.84 42.63L48.44 45.23L54.71 36.59C55.06 36.1 55.58 35.78 56.18 35.69C56.77 35.6 57.37 35.74 57.86 36.09C58.87 36.82 59.09 38.23 58.36 39.23L50.55 50.01C50.16 50.54 49.56 50.88 48.91 50.93C48.85 50.93 48.79 50.93 48.73 50.93L48.72 50.94ZM44.25 42.81C43.89 42.81 43.53 42.95 43.26 43.22C42.71 43.77 42.71 44.66 43.26 45.21L47.73 49.68C48.02 49.97 48.42 50.12 48.84 50.09C49.25 50.06 49.63 49.85 49.87 49.51L57.68 38.73C58.14 38.1 57.99 37.22 57.37 36.76C57.07 36.54 56.7 36.45 56.32 36.51C55.95 36.57 55.62 36.77 55.4 37.07L48.84 46.11C48.77 46.21 48.65 46.27 48.53 46.28C48.41 46.28 48.29 46.24 48.2 46.16L45.25 43.21C44.98 42.94 44.62 42.8 44.25 42.8V42.81Z" fill="#0E1721"/>
  <path d="M53.48 84.9C53.38 84.9 53.28 84.88 53.18 84.83C49.71 83.21 46.98 84.74 46.86 84.8C46.52 84.99 46.09 84.88 45.9 84.54C45.71 84.2 45.82 83.78 46.15 83.58C46.29 83.5 49.61 81.61 53.77 83.55C54.12 83.71 54.27 84.13 54.11 84.48C53.99 84.74 53.74 84.89 53.47 84.89L53.48 84.9Z" fill="#0E1721"/>
  <path d="M55.54 80.95C55.46 80.95 55.37 80.94 55.29 80.9C52.13 79.71 49.45 79.76 47.75 80.02C45.91 80.3 44.8 80.86 44.79 80.87C44.45 81.05 44.02 80.92 43.84 80.57C43.66 80.23 43.79 79.8 44.14 79.62C44.34 79.51 49.12 77.07 55.79 79.58C56.15 79.72 56.34 80.12 56.2 80.49C56.09 80.77 55.83 80.95 55.54 80.95Z" fill="#0E1721"/>
  <path d="M57.59 77C57.5 77 57.4 76.98 57.31 76.94C57.23 76.91 49.49 73.67 42.71 76.93C42.36 77.1 41.94 76.95 41.77 76.6C41.6 76.25 41.75 75.83 42.1 75.66C49.47 72.13 57.53 75.5 57.86 75.65C58.22 75.8 58.38 76.22 58.23 76.57C58.12 76.84 57.86 77 57.58 77H57.59Z" fill="#0E1721"/>
</svg>
