<svg xmlns="http://www.w3.org/2000/svg" width="100" height="100" viewBox="0 0 100 100" fill="none">
  <path d="M33.49 68.04H16.55C7.81001 68.04 0.700012 60.93 0.700012 52.19C0.700012 44.03 6.91001 37.28 14.85 36.43C15.69 22.54 27.06 11.7 40.91 11.7C51.13 11.7 60.4 17.74 64.63 26.94C66.1 26.18 67.7 25.79 69.37 25.79C75.2 25.79 79.93 30.53 79.93 36.35C79.93 36.49 79.93 36.63 79.92 36.76C81.08 36.48 82.26 36.35 83.45 36.35C92.19 36.35 99.3 43.46 99.3 52.2C99.3 60.94 92.19 68.05 83.45 68.05H33.49V68.04Z" fill="#4279B6"/>
  <path d="M83.45 68.74H16.55C7.42 68.74 0 61.32 0 52.2C0 43.92 6.06 36.98 14.19 35.82C15.33 21.85 26.96 11 40.91 11C51.1 11 60.47 16.87 64.96 26C66.35 25.39 67.83 25.08 69.37 25.08C75.43 25.08 80.39 29.89 80.63 35.9C81.56 35.73 82.51 35.65 83.46 35.65C92.58 35.65 100.01 43.07 100.01 52.2C100.01 61.33 92.59 68.75 83.46 68.75L83.45 68.74ZM40.91 12.4C27.5 12.4 16.36 22.98 15.55 36.48C15.53 36.82 15.27 37.1 14.93 37.13C7.22 37.95 1.41 44.43 1.41 52.19C1.41 60.54 8.2 67.34 16.56 67.34H83.47C91.82 67.34 98.62 60.55 98.62 52.19C98.62 43.83 91.83 37.04 83.47 37.04C82.34 37.04 81.2 37.17 80.1 37.43C79.89 37.48 79.66 37.43 79.49 37.29C79.32 37.15 79.23 36.94 79.24 36.72C79.24 36.59 79.24 36.47 79.24 36.34C79.24 30.9 74.82 26.48 69.38 26.48C67.83 26.48 66.34 26.84 64.96 27.55C64.79 27.64 64.59 27.65 64.41 27.59C64.23 27.53 64.08 27.39 64 27.22C59.85 18.22 50.79 12.4 40.91 12.4Z" fill="#0E1721"/>
  <path d="M38.31 65.16C38.24 65.18 38.19 65.24 38.18 65.31C38.09 66.1 38.03 66.9 38.03 67.72C38.03 68.54 38.09 69.34 38.18 70.13C38.18 70.2 38.24 70.26 38.31 70.28L40.68 70.87C40.75 70.89 40.8 70.94 40.81 71.01C40.99 72.03 41.26 73.01 41.6 73.97C41.62 74.03 41.6 74.11 41.56 74.15L39.79 75.86C39.74 75.91 39.72 75.99 39.75 76.06C40.4 77.55 41.22 78.93 42.18 80.22C42.22 80.28 42.3 80.3 42.37 80.28L44.69 79.62C44.76 79.6 44.83 79.62 44.87 79.67C45.53 80.45 46.26 81.18 47.04 81.84C47.09 81.88 47.11 81.95 47.09 82.02L46.43 84.34C46.41 84.41 46.43 84.49 46.49 84.53C47.77 85.49 49.16 86.31 50.65 86.96C50.72 86.99 50.8 86.97 50.85 86.92L52.56 85.15C52.56 85.15 52.68 85.08 52.74 85.11C53.69 85.45 54.68 85.72 55.7 85.9C55.77 85.91 55.82 85.96 55.84 86.03L56.43 88.4C56.45 88.47 56.51 88.52 56.58 88.53C57.37 88.62 58.17 88.68 58.99 88.68C59.81 88.68 60.61 88.62 61.4 88.53C61.47 88.53 61.53 88.47 61.55 88.4L62.14 86.03C62.16 85.96 62.21 85.91 62.28 85.9C63.3 85.72 64.28 85.45 65.24 85.11C65.3 85.09 65.38 85.11 65.42 85.15L67.13 86.92C67.18 86.97 67.26 86.99 67.33 86.96C68.82 86.31 70.2 85.49 71.49 84.53C71.55 84.49 71.57 84.41 71.55 84.34L70.89 82.02C70.87 81.95 70.89 81.88 70.94 81.84C71.72 81.18 72.45 80.45 73.11 79.67C73.15 79.62 73.22 79.6 73.29 79.62L75.61 80.28C75.68 80.3 75.76 80.28 75.8 80.22C76.76 78.94 77.58 77.55 78.23 76.06C78.26 75.99 78.24 75.91 78.19 75.86L76.42 74.15C76.42 74.15 76.35 74.03 76.38 73.97C76.72 73.02 76.99 72.03 77.17 71.01C77.18 70.94 77.23 70.89 77.3 70.87L79.67 70.28C79.74 70.26 79.79 70.2 79.8 70.13C79.89 69.34 79.95 68.54 79.95 67.72C79.95 66.9 79.89 66.1 79.8 65.31C79.8 65.24 79.74 65.18 79.67 65.16L77.3 64.57C77.23 64.55 77.18 64.5 77.17 64.43C76.99 63.41 76.72 62.43 76.38 61.47C76.36 61.41 76.38 61.33 76.42 61.29L78.19 59.58C78.24 59.53 78.26 59.45 78.23 59.38C77.58 57.89 76.76 56.51 75.8 55.22C75.76 55.16 75.68 55.14 75.61 55.16L73.29 55.82C73.22 55.84 73.15 55.82 73.11 55.77C72.45 54.99 71.72 54.26 70.94 53.6C70.89 53.56 70.87 53.49 70.89 53.42L71.55 51.1C71.57 51.03 71.55 50.95 71.49 50.91C70.21 49.95 68.82 49.13 67.33 48.48C67.26 48.45 67.18 48.47 67.13 48.52L65.42 50.29C65.42 50.29 65.3 50.36 65.24 50.33C64.29 49.99 63.3 49.72 62.28 49.54C62.21 49.53 62.16 49.48 62.14 49.41L61.55 47.04C61.53 46.97 61.47 46.92 61.4 46.91C60.61 46.82 59.81 46.76 58.99 46.76C58.17 46.76 57.37 46.82 56.58 46.91C56.51 46.91 56.45 46.97 56.43 47.04L55.84 49.41C55.82 49.48 55.77 49.53 55.7 49.54C54.68 49.72 53.7 49.99 52.74 50.33C52.68 50.35 52.6 50.33 52.56 50.29L50.85 48.52C50.8 48.47 50.72 48.45 50.65 48.48C49.16 49.13 47.78 49.95 46.49 50.91C46.43 50.95 46.41 51.03 46.43 51.1L47.09 53.42C47.11 53.49 47.09 53.56 47.04 53.6C46.26 54.26 45.53 54.99 44.87 55.77C44.83 55.82 44.76 55.84 44.69 55.82L42.37 55.16C42.3 55.14 42.22 55.16 42.18 55.22C41.22 56.5 40.4 57.89 39.75 59.38C39.72 59.45 39.74 59.53 39.79 59.58L41.56 61.29C41.56 61.29 41.63 61.41 41.6 61.47C41.26 62.42 40.99 63.41 40.81 64.43C40.8 64.5 40.75 64.55 40.68 64.57L38.31 65.16Z" fill="#3C8645"/>
  <path d="M58.99 89.38C58.23 89.38 57.41 89.33 56.5 89.22C56.14 89.18 55.84 88.91 55.75 88.56L55.24 86.52C54.43 86.36 53.62 86.14 52.83 85.87L51.36 87.39C51.11 87.65 50.71 87.73 50.38 87.58C48.91 86.94 47.46 86.09 46.08 85.07C45.79 84.85 45.66 84.47 45.76 84.13L46.33 82.13C45.7 81.58 45.11 80.98 44.56 80.36L42.56 80.93C42.21 81.03 41.83 80.9 41.62 80.61C40.59 79.23 39.75 77.79 39.11 76.31C38.97 75.98 39.04 75.58 39.3 75.33L40.82 73.86C40.55 73.07 40.33 72.26 40.17 71.45L38.13 70.94C37.78 70.85 37.51 70.55 37.47 70.19C37.36 69.28 37.31 68.46 37.31 67.7C37.31 66.94 37.36 66.12 37.47 65.21C37.51 64.85 37.78 64.55 38.13 64.46L40.17 63.95C40.33 63.14 40.55 62.33 40.82 61.54L39.3 60.07C39.04 59.82 38.96 59.42 39.11 59.09C39.75 57.61 40.6 56.17 41.62 54.79C41.84 54.5 42.22 54.37 42.56 54.47L44.56 55.04C45.11 54.41 45.71 53.82 46.33 53.27L45.76 51.27C45.66 50.92 45.79 50.54 46.08 50.33C47.46 49.3 48.9 48.46 50.38 47.82C50.71 47.68 51.11 47.75 51.36 48.02L52.83 49.54C53.62 49.27 54.43 49.05 55.24 48.89L55.75 46.85C55.84 46.5 56.14 46.23 56.5 46.19C57.41 46.08 58.23 46.03 58.99 46.03C59.75 46.03 60.57 46.08 61.48 46.19C61.84 46.23 62.14 46.5 62.23 46.85L62.74 48.89C63.55 49.05 64.36 49.27 65.15 49.54L66.62 48.02C66.87 47.76 67.27 47.68 67.6 47.83C69.08 48.47 70.52 49.32 71.9 50.34C72.19 50.56 72.32 50.94 72.22 51.28L71.65 53.28C72.28 53.83 72.87 54.43 73.42 55.05L75.42 54.48C75.77 54.38 76.15 54.51 76.36 54.8C77.39 56.18 78.23 57.62 78.87 59.1C79.01 59.43 78.94 59.83 78.68 60.08L77.16 61.55C77.43 62.34 77.65 63.15 77.81 63.96L79.85 64.47C80.2 64.56 80.47 64.86 80.51 65.22C80.62 66.13 80.67 66.95 80.67 67.71C80.67 68.47 80.62 69.29 80.51 70.2C80.47 70.56 80.2 70.86 79.85 70.95L77.81 71.46C77.65 72.27 77.43 73.08 77.16 73.87L78.68 75.34C78.94 75.59 79.02 75.99 78.87 76.32C78.23 77.79 77.38 79.24 76.36 80.62C76.14 80.91 75.76 81.04 75.42 80.94L73.42 80.37C72.87 81 72.27 81.59 71.65 82.14L72.22 84.14C72.32 84.49 72.19 84.87 71.9 85.08C70.52 86.11 69.08 86.95 67.6 87.59C67.27 87.73 66.87 87.66 66.62 87.4L65.15 85.88C64.36 86.15 63.55 86.37 62.74 86.53L62.23 88.57C62.14 88.92 61.84 89.19 61.48 89.23C60.57 89.34 59.75 89.39 58.99 89.39V89.38ZM57.02 87.87C57.73 87.94 58.38 87.98 58.99 87.98C59.6 87.98 60.25 87.94 60.96 87.87L61.46 85.86C61.54 85.53 61.82 85.27 62.15 85.21C63.11 85.04 64.07 84.78 64.99 84.45C65.31 84.33 65.68 84.42 65.91 84.66L67.36 86.16C68.52 85.63 69.66 84.96 70.76 84.17L70.2 82.2C70.11 81.87 70.21 81.51 70.48 81.29C71.23 80.65 71.94 79.95 72.57 79.2C72.79 78.94 73.15 78.83 73.48 78.92L75.45 79.48C76.24 78.38 76.91 77.24 77.44 76.08L75.94 74.63C75.69 74.39 75.61 74.03 75.73 73.71C76.06 72.78 76.32 71.82 76.49 70.87C76.55 70.53 76.81 70.26 77.14 70.18L79.15 69.68C79.22 68.97 79.26 68.32 79.26 67.71C79.26 67.1 79.22 66.45 79.15 65.74L77.14 65.24C76.81 65.16 76.55 64.89 76.49 64.55C76.32 63.59 76.06 62.63 75.73 61.71C75.61 61.39 75.7 61.02 75.94 60.79L77.44 59.34C76.91 58.18 76.24 57.04 75.45 55.94L73.48 56.5C73.15 56.59 72.79 56.49 72.57 56.22C71.93 55.47 71.23 54.76 70.48 54.13C70.22 53.91 70.11 53.55 70.2 53.22L70.76 51.25C69.66 50.46 68.52 49.79 67.36 49.26L65.91 50.76C65.67 51.01 65.31 51.09 64.99 50.97C64.06 50.64 63.1 50.38 62.15 50.21C61.81 50.15 61.54 49.9 61.46 49.56L60.96 47.55C60.25 47.48 59.6 47.44 58.99 47.44C58.38 47.44 57.73 47.48 57.02 47.55L56.52 49.56C56.44 49.89 56.16 50.15 55.83 50.21C54.87 50.38 53.91 50.64 52.99 50.97C52.67 51.09 52.3 51 52.07 50.76L50.62 49.26C49.46 49.79 48.32 50.46 47.22 51.25L47.78 53.22C47.87 53.55 47.77 53.91 47.5 54.13C46.75 54.77 46.04 55.47 45.41 56.22C45.19 56.48 44.83 56.59 44.5 56.5L42.53 55.94C41.74 57.04 41.07 58.18 40.54 59.34L42.04 60.79C42.29 61.03 42.37 61.39 42.25 61.71C41.92 62.64 41.66 63.6 41.49 64.55C41.43 64.89 41.18 65.16 40.84 65.24L38.83 65.74C38.76 66.45 38.72 67.1 38.72 67.71C38.72 68.32 38.76 68.97 38.83 69.68L40.84 70.18C41.17 70.26 41.43 70.54 41.49 70.87C41.66 71.83 41.92 72.79 42.25 73.71C42.37 74.03 42.28 74.39 42.04 74.63L40.54 76.08C41.07 77.24 41.74 78.38 42.53 79.48L44.5 78.92C44.83 78.83 45.18 78.93 45.41 79.2C46.05 79.95 46.75 80.66 47.5 81.29C47.76 81.51 47.87 81.87 47.78 82.2L47.22 84.17C48.32 84.96 49.46 85.63 50.62 86.16L52.07 84.66C52.31 84.41 52.67 84.33 52.99 84.45C53.92 84.78 54.88 85.04 55.83 85.21C56.17 85.27 56.44 85.52 56.52 85.86L57.02 87.87Z" fill="#0E1721"/>
  <path d="M58.99 81.64C66.6833 81.64 72.92 75.4034 72.92 67.71C72.92 60.0167 66.6833 53.78 58.99 53.78C51.2967 53.78 45.06 60.0167 45.06 67.71C45.06 75.4034 51.2967 81.64 58.99 81.64Z" fill="white"/>
  <path d="M58.99 82.34C50.93 82.34 44.36 75.78 44.36 67.71C44.36 59.64 50.92 53.08 58.99 53.08C67.06 53.08 73.62 59.64 73.62 67.71C73.62 75.78 67.06 82.34 58.99 82.34ZM58.99 54.49C51.7 54.49 45.77 60.42 45.77 67.71C45.77 75 51.7 80.93 58.99 80.93C66.28 80.93 72.21 75 72.21 67.71C72.21 60.42 66.28 54.49 58.99 54.49Z" fill="#0E1721"/>
  <path d="M58.99 75.11C63.0769 75.11 66.39 71.7969 66.39 67.71C66.39 63.6231 63.0769 60.31 58.99 60.31C54.9031 60.31 51.59 63.6231 51.59 67.71C51.59 71.7969 54.9031 75.11 58.99 75.11Z" fill="#FCCD2A"/>
  <path d="M58.99 75.82C54.52 75.82 50.89 72.19 50.89 67.72C50.89 63.25 54.52 59.62 58.99 59.62C63.46 59.62 67.09 63.25 67.09 67.72C67.09 72.19 63.46 75.82 58.99 75.82ZM58.99 61.02C55.3 61.02 52.29 64.03 52.29 67.72C52.29 71.41 55.3 74.42 58.99 74.42C62.68 74.42 65.69 71.41 65.69 67.72C65.69 64.03 62.68 61.02 58.99 61.02Z" fill="#0E1721"/>
</svg>
