<svg xmlns="http://www.w3.org/2000/svg" width="100" height="100" viewBox="0 0 100 100" fill="none">
  <path d="M72.76 88.44H63.89C63.5 88.44 63.19 88.12 63.19 87.74V69.78C63.19 69.39 63.5 69.08 63.89 69.08H80.68C90.56 69.08 98.59 61.05 98.59 51.17C98.59 41.29 90.56 33.26 80.68 33.26H79.92C79.53 33.26 79.22 32.94 79.22 32.56V31.8C79.22 24.6 73.36 18.73 66.15 18.73H66.09C65.85 18.73 65.63 18.61 65.5 18.41C60.99 11.53 53.39 7.42 45.15 7.42C32.46 7.42 21.77 17.29 20.79 29.89V32.55C20.78 32.94 20.46 33.25 20.07 33.25H19.31C9.43 33.25 1.4 41.28 1.4 51.16C1.4 61.04 9.43 69.07 19.31 69.07H36.1C36.49 69.07 36.8 69.39 36.8 69.77V87.58C36.8 87.97 36.49 88.28 36.1 88.28H27.59C27.2 88.28 26.89 87.96 26.89 87.58C26.89 87.2 27.2 86.88 27.59 86.88H35.4V70.48H19.32C8.67 70.48 0 61.81 0 51.16C0 40.51 8.67 31.84 19.32 31.84H19.38V29.85C19.38 29.85 19.38 29.82 19.39 29.8C20.41 16.45 31.73 6 45.16 6C53.75 6 61.69 10.22 66.48 17.31C74.31 17.48 80.63 23.91 80.63 31.78V31.84H80.69C91.34 31.84 100.01 40.51 100.01 51.16C100.01 61.81 91.34 70.48 80.69 70.48H64.61V87.04H72.78C73.17 87.04 73.48 87.36 73.48 87.74C73.48 88.12 73.17 88.44 72.78 88.44H72.76Z" fill="#4279B6"/>
  <path d="M80.68 62.87H19.32C12.86 62.87 7.59998 57.61 7.59998 51.15C7.59998 44.69 12.86 39.43 19.32 39.43H26.95L26.99 30.17C26.99 30.17 26.99 30.13 26.99 30.11C27.83 20.85 35.81 13.59 45.16 13.59C51.3 13.59 56.97 16.65 60.33 21.78L62.37 24.9H66.15C69.94 24.9 73.02 27.98 73.02 31.77V39.43H80.68C87.14 39.43 92.4 44.69 92.4 51.15C92.4 57.61 87.14 62.87 80.68 62.87ZM19.32 40.84C13.63 40.84 9.00998 45.47 9.00998 51.15C9.00998 56.83 13.64 61.46 19.32 61.46H80.68C86.37 61.46 90.99 56.83 90.99 51.15C90.99 45.47 86.36 40.84 80.68 40.84H72.32C71.93 40.84 71.62 40.52 71.62 40.14V31.78C71.62 28.76 69.17 26.31 66.15 26.31H61.99C61.75 26.31 61.53 26.19 61.4 25.99L59.15 22.55C56.05 17.82 50.82 15 45.16 15C36.55 15 29.19 21.68 28.4 30.21L28.36 40.14C28.36 40.53 28.04 40.84 27.66 40.84H19.33H19.32Z" fill="#2D557F"/>
  <path d="M19.32 93.75C15.92 93.75 13.16 90.98 13.16 87.59C13.16 84.2 15.93 81.43 19.32 81.43C22.71 81.43 25.48 84.2 25.48 87.59C25.48 90.98 22.71 93.75 19.32 93.75ZM19.32 82.82C16.7 82.82 14.56 84.95 14.56 87.58C14.56 90.21 16.69 92.34 19.32 92.34C21.95 92.34 24.08 90.21 24.08 87.58C24.08 84.95 21.95 82.82 19.32 82.82Z" fill="#2D557F"/>
  <path d="M81.04 93.75C77.64 93.75 74.88 90.98 74.88 87.59C74.88 84.2 77.65 81.43 81.04 81.43C84.43 81.43 87.2 84.2 87.2 87.59C87.2 90.98 84.43 93.75 81.04 93.75ZM81.04 82.82C78.42 82.82 76.28 84.95 76.28 87.58C76.28 90.21 78.41 92.34 81.04 92.34C83.67 92.34 85.8 90.21 85.8 87.58C85.8 84.95 83.67 82.82 81.04 82.82Z" fill="#2D557F"/>
  <path d="M33.97 34.65C33.97 34.65 33.93 34.65 33.91 34.65C33.52 34.61 33.24 34.27 33.27 33.89C33.78 28.3 38.59 23.92 44.23 23.92C44.62 23.92 44.93 24.24 44.93 24.62C44.93 25 44.62 25.32 44.23 25.32C39.31 25.32 35.11 29.14 34.67 34.01C34.64 34.38 34.33 34.65 33.97 34.65Z" fill="#4279B6"/>
  <path d="M50 55.92C46.84 55.92 43.68 54.72 41.27 52.31C38.94 49.98 37.65 46.88 37.65 43.58C37.65 40.28 38.93 37.18 41.26 34.85C46.08 30.03 53.91 30.03 58.72 34.85C63.53 39.66 63.53 47.5 58.72 52.31C56.31 54.72 53.15 55.92 49.99 55.92H50ZM50 32.65C47.2 32.65 44.39 33.72 42.26 35.85C40.2 37.91 39.06 40.66 39.06 43.58C39.06 46.5 40.2 49.25 42.26 51.32C46.52 55.58 53.46 55.59 57.73 51.32C62 47.05 62 40.11 57.73 35.85C55.6 33.72 52.8 32.65 50 32.65Z" fill="#4279B6"/>
  <path d="M48.76 88.74C48.76 88.05 49.31 87.5 50 87.5C50.68 87.5 51.24 88.05 51.24 88.74C51.24 89.43 50.68 89.98 50 89.98C49.31 89.98 48.76 89.43 48.76 88.74Z" fill="#2D557F"/>
  <path d="M48.9901 48.33C48.8001 48.33 48.6301 48.26 48.4901 48.12L44.9501 44.58C44.6801 44.31 44.6801 43.86 44.9501 43.59C45.2201 43.32 45.6701 43.32 45.9401 43.59L48.9001 46.55L54.6001 38.69C54.8301 38.38 55.2701 38.31 55.5801 38.53C55.8901 38.76 55.9601 39.2 55.7401 39.51L49.5501 48.04C49.4301 48.21 49.2401 48.31 49.0401 48.33C49.0201 48.33 49.0001 48.33 48.9801 48.33H48.9901Z" fill="#4279B6"/>
  <path d="M54.53 85C54.43 85 54.33 84.98 54.23 84.93C49.6 82.77 45.96 84.81 45.81 84.9C45.47 85.09 45.04 84.98 44.85 84.64C44.66 84.3 44.77 83.88 45.1 83.68C45.28 83.58 49.5 81.17 54.82 83.65C55.17 83.81 55.32 84.23 55.16 84.58C55.04 84.84 54.79 84.99 54.52 84.99L54.53 85Z" fill="#2D557F"/>
  <path d="M57.21 79.86C57.13 79.86 57.04 79.85 56.96 79.81C48.99 76.81 43.18 79.75 43.12 79.78C42.78 79.96 42.35 79.83 42.17 79.48C41.99 79.14 42.12 78.71 42.47 78.53C42.73 78.39 48.87 75.26 57.46 78.49C57.82 78.63 58.01 79.03 57.87 79.4C57.76 79.68 57.5 79.86 57.21 79.86Z" fill="#2D557F"/>
  <path d="M40.12 74.73C39.86 74.73 39.61 74.58 39.49 74.33C39.32 73.98 39.47 73.56 39.82 73.39C49.32 68.83 59.72 73.19 60.16 73.38C60.52 73.53 60.68 73.95 60.53 74.3C60.38 74.66 59.96 74.82 59.61 74.67C59.51 74.63 49.34 70.38 40.43 74.66C40.33 74.71 40.23 74.73 40.13 74.73H40.12Z" fill="#2D557F"/>
</svg>
