<svg xmlns="http://www.w3.org/2000/svg" width="100" height="100" viewBox="0 0 100 100" fill="none">
  <path d="M99.3 28.45V87.68C99.3 89.75 97.62 91.42 95.56 91.42H4.44996C2.37996 91.42 0.709961 89.74 0.709961 87.68V28.45H99.3Z" fill="white"/>
  <path d="M95.55 92.13H4.45C2 92.13 0 90.13 0 87.68V28.45C0 28.06 0.32 27.75 0.7 27.75H99.29C99.68 27.75 99.99 28.07 99.99 28.45V87.68C99.99 90.13 97.99 92.13 95.54 92.13H95.55ZM1.41 29.15V87.68C1.41 89.36 2.77 90.72 4.45 90.72H95.55C97.23 90.72 98.59 89.36 98.59 87.68V29.15H1.41Z" fill="#0E1721"/>
  <path d="M99.3 11.45V28.45H0.699951V11.45C0.699951 9.38 2.37995 7.7 4.44995 7.7H95.55C97.62 7.7 99.29 9.38 99.29 11.44L99.3 11.45Z" fill="#4279B6"/>
  <path d="M99.3 29.15H0.7C0.31 29.15 0 28.83 0 28.45V11.45C0 9 2 7 4.45 7H95.55C98 7 100 9 100 11.45V28.45C100 28.84 99.68 29.15 99.3 29.15ZM1.41 27.75H98.59V11.45C98.59 9.77 97.23 8.41 95.55 8.41H4.45C2.77 8.41 1.41 9.77 1.41 11.45V27.75Z" fill="#0E1721"/>
  <path d="M18.4 49.98C21.3768 49.98 23.79 47.5668 23.79 44.59C23.79 41.6132 21.3768 39.2 18.4 39.2C15.4232 39.2 13.01 41.6132 13.01 44.59C13.01 47.5668 15.4232 49.98 18.4 49.98Z" fill="#3C8645"/>
  <path d="M18.4001 50.68C15.0401 50.68 12.3101 47.95 12.3101 44.59C12.3101 41.23 15.0401 38.5 18.4001 38.5C21.7601 38.5 24.4901 41.23 24.4901 44.59C24.4901 47.95 21.7601 50.68 18.4001 50.68ZM18.4001 39.91C15.8201 39.91 13.7201 42.01 13.7201 44.59C13.7201 47.17 15.8201 49.27 18.4001 49.27C20.9801 49.27 23.0801 47.17 23.0801 44.59C23.0801 42.01 20.9801 39.91 18.4001 39.91Z" fill="#0E1721"/>
  <path d="M49.7001 49.98C52.6769 49.98 55.0901 47.5668 55.0901 44.59C55.0901 41.6132 52.6769 39.2 49.7001 39.2C46.7232 39.2 44.3101 41.6132 44.3101 44.59C44.3101 47.5668 46.7232 49.98 49.7001 49.98Z" fill="#3C8645"/>
  <path d="M49.7001 50.68C46.3401 50.68 43.6101 47.95 43.6101 44.59C43.6101 41.23 46.3401 38.5 49.7001 38.5C53.0601 38.5 55.7901 41.23 55.7901 44.59C55.7901 47.95 53.0601 50.68 49.7001 50.68ZM49.7001 39.91C47.1201 39.91 45.0201 42.01 45.0201 44.59C45.0201 47.17 47.1201 49.27 49.7001 49.27C52.2801 49.27 54.3801 47.17 54.3801 44.59C54.3801 42.01 52.2801 39.91 49.7001 39.91Z" fill="#0E1721"/>
  <path d="M81.01 39.2V49.97C78.03 49.97 75.62 47.56 75.62 44.58C75.62 41.6 78.03 39.19 81.01 39.19V39.2Z" fill="#FC8B27"/>
  <path d="M81.01 50.68C77.65 50.68 74.92 47.95 74.92 44.59C74.92 41.23 77.65 38.5 81.01 38.5C81.4 38.5 81.71 38.82 81.71 39.2V49.97C81.71 50.36 81.39 50.67 81.01 50.67V50.68ZM80.3 39.96C78.05 40.3 76.32 42.25 76.32 44.59C76.32 46.93 78.05 48.88 80.3 49.22V39.96Z" fill="#0E1721"/>
  <path d="M86.39 44.59C86.39 47.56 83.98 49.98 81 49.98V39.21C83.97 39.21 86.39 41.62 86.39 44.6V44.59Z" fill="white"/>
  <path d="M81.0101 50.68C80.6201 50.68 80.3101 50.36 80.3101 49.98V39.21C80.3101 38.82 80.6301 38.51 81.0101 38.51C84.3701 38.51 87.1001 41.24 87.1001 44.6C87.1001 47.96 84.3701 50.69 81.0101 50.69V50.68ZM81.7101 39.96V49.22C83.9601 48.88 85.6901 46.93 85.6901 44.59C85.6901 42.25 83.9601 40.3 81.7101 39.96Z" fill="#0E1721"/>
  <path d="M44.3201 45.3H23.7901C23.4001 45.3 23.0901 44.98 23.0901 44.6C23.0901 44.22 23.4101 43.9 23.7901 43.9H44.3201C44.7101 43.9 45.0201 44.22 45.0201 44.6C45.0201 44.98 44.7001 45.3 44.3201 45.3Z" fill="#0E1721"/>
  <path d="M75.62 45.3H55.09C54.7 45.3 54.39 44.98 54.39 44.6C54.39 44.22 54.71 43.9 55.09 43.9H75.62C76.01 43.9 76.32 44.22 76.32 44.6C76.32 44.98 76 45.3 75.62 45.3Z" fill="#0E1721"/>
  <path d="M20.7201 42.76L17.8701 45.57L16.5301 44.23C16.2501 43.95 15.8101 43.95 15.5301 44.23C15.2501 44.51 15.2501 44.95 15.5301 45.23L17.3601 47.06C17.5001 47.2 17.6801 47.27 17.8601 47.27C18.0401 47.27 18.2201 47.2 18.3501 47.07L21.7001 43.78C21.9801 43.51 21.9801 43.06 21.7001 42.78C21.4301 42.5 20.9801 42.5 20.7001 42.78L20.7201 42.76Z" fill="#0E1721"/>
  <path d="M52.8 42.77C52.53 42.49 52.08 42.49 51.8 42.77L48.95 45.58L47.61 44.24C47.33 43.96 46.89 43.96 46.61 44.24C46.33 44.52 46.33 44.96 46.61 45.24L48.44 47.07C48.58 47.21 48.76 47.28 48.94 47.28C49.12 47.28 49.3 47.21 49.43 47.08L52.78 43.79C53.06 43.52 53.06 43.07 52.78 42.79L52.8 42.77Z" fill="#0E1721"/>
  <path d="M84.8 18.94H16.22C15.83 18.94 15.52 18.62 15.52 18.24C15.52 17.86 15.84 17.54 16.22 17.54H84.8C85.19 17.54 85.5 17.86 85.5 18.24C85.5 18.62 85.18 18.94 84.8 18.94Z" fill="#0E1721"/>
  <path d="M45.69 68.07H15.74C14.7569 68.07 13.96 68.8669 13.96 69.85V70.96C13.96 71.9431 14.7569 72.74 15.74 72.74H45.69C46.673 72.74 47.47 71.9431 47.47 70.96V69.85C47.47 68.8669 46.673 68.07 45.69 68.07Z" fill="#FC8B27"/>
  <path d="M45.69 73.44H15.75C14.38 73.44 13.26 72.32 13.26 70.95V69.85C13.26 68.48 14.38 67.36 15.75 67.36H45.69C47.06 67.36 48.18 68.48 48.18 69.85V70.95C48.18 72.32 47.06 73.44 45.69 73.44ZM15.75 68.77C15.15 68.77 14.67 69.25 14.67 69.85V70.95C14.67 71.55 15.15 72.03 15.75 72.03H45.69C46.29 72.03 46.77 71.55 46.77 70.95V69.85C46.77 69.25 46.29 68.77 45.69 68.77H15.75Z" fill="#0E1721"/>
  <path d="M15.98 68.07H42V72.74H15.98C15.09 72.74 14.36 72.01 14.36 71.12V69.7C14.36 68.81 15.09 68.08 15.98 68.08V68.07Z" fill="#4279B6"/>
  <path d="M42 73.44H15.98C14.7 73.44 13.65 72.4 13.65 71.11V69.69C13.65 68.41 14.69 67.36 15.98 67.36H42C42.39 67.36 42.7 67.68 42.7 68.06V72.73C42.7 73.12 42.38 73.43 42 73.43V73.44ZM15.98 68.77C15.47 68.77 15.06 69.18 15.06 69.69V71.11C15.06 71.62 15.47 72.03 15.98 72.03H41.29V68.77H15.98Z" fill="#0E1721"/>
  <path d="M45.69 76.83H15.74C14.7569 76.83 13.96 77.6269 13.96 78.61V79.72C13.96 80.7031 14.7569 81.5 15.74 81.5H45.69C46.673 81.5 47.47 80.7031 47.47 79.72V78.61C47.47 77.6269 46.673 76.83 45.69 76.83Z" fill="#FC8B27"/>
  <path d="M45.69 82.2H15.75C14.38 82.2 13.26 81.08 13.26 79.71V78.61C13.26 77.24 14.38 76.12 15.75 76.12H45.69C47.06 76.12 48.18 77.24 48.18 78.61V79.71C48.18 81.08 47.06 82.2 45.69 82.2ZM15.75 77.53C15.15 77.53 14.67 78.01 14.67 78.61V79.71C14.67 80.31 15.15 80.79 15.75 80.79H45.69C46.29 80.79 46.77 80.31 46.77 79.71V78.61C46.77 78.01 46.29 77.53 45.69 77.53H15.75Z" fill="#0E1721"/>
  <path d="M15.52 76.83H26.22V81.5H15.52C14.66 81.5 13.97 80.8 13.97 79.95V78.39C13.97 77.53 14.67 76.84 15.52 76.84V76.83Z" fill="#4279B6"/>
  <path d="M26.21 82.2H15.51C14.26 82.2 13.25 81.19 13.25 79.94V78.38C13.25 77.14 14.26 76.12 15.51 76.12H26.21C26.6 76.12 26.91 76.44 26.91 76.82V81.49C26.91 81.88 26.59 82.19 26.21 82.19V82.2ZM15.52 77.53C15.05 77.53 14.67 77.91 14.67 78.38V79.94C14.67 80.41 15.05 80.79 15.52 80.79H25.51V77.53H15.52Z" fill="#0E1721"/>
  <path d="M45.69 59.3H15.74C14.7569 59.3 13.96 60.0969 13.96 61.08V62.19C13.96 63.1731 14.7569 63.97 15.74 63.97H45.69C46.673 63.97 47.47 63.1731 47.47 62.19V61.08C47.47 60.0969 46.673 59.3 45.69 59.3Z" fill="#4279B6"/>
  <path d="M45.69 64.68H15.75C14.38 64.68 13.26 63.56 13.26 62.19V61.09C13.26 59.72 14.38 58.6 15.75 58.6H45.69C47.06 58.6 48.18 59.72 48.18 61.09V62.19C48.18 63.56 47.06 64.68 45.69 64.68ZM15.75 60.01C15.15 60.01 14.67 60.49 14.67 61.09V62.19C14.67 62.79 15.15 63.27 15.75 63.27H45.69C46.29 63.27 46.77 62.79 46.77 62.19V61.09C46.77 60.49 46.29 60.01 45.69 60.01H15.75Z" fill="#0E1721"/>
  <path d="M73.6299 54.95V65.16C70.8799 65.16 68.6499 67.39 68.6499 70.14H58.4299C58.4299 61.75 65.2299 54.94 73.6299 54.94V54.95Z" fill="#FCCD2A"/>
  <path d="M68.64 70.85H58.42C58.03 70.85 57.72 70.53 57.72 70.15C57.72 61.38 64.85 54.25 73.62 54.25C74.01 54.25 74.32 54.57 74.32 54.95V65.16C74.32 65.55 74 65.86 73.62 65.86C71.26 65.86 69.34 67.78 69.34 70.14C69.34 70.53 69.02 70.84 68.64 70.84V70.85ZM59.15 69.44H67.99C68.31 66.87 70.35 64.82 72.93 64.5V55.67C65.5 56.03 59.52 62.01 59.16 69.44H59.15Z" fill="#0E1721"/>
  <path d="M88.8199 70.14C88.8199 78.53 82.0199 85.34 73.6199 85.34C65.2199 85.34 58.4199 78.54 58.4199 70.14H68.6399C68.6399 67.39 70.8699 65.16 73.6199 65.16V54.95C82.0099 54.95 88.8199 61.75 88.8199 70.15V70.14Z" fill="#4279B6"/>
  <path d="M73.63 86.05C64.86 86.05 57.73 78.92 57.73 70.15C57.73 69.76 58.05 69.45 58.43 69.45H67.99C68.31 66.88 70.35 64.83 72.93 64.51V54.96C72.93 54.57 73.25 54.26 73.63 54.26C82.4 54.26 89.53 61.39 89.53 70.16C89.53 78.93 82.4 86.06 73.63 86.06V86.05ZM59.15 70.85C59.52 78.52 65.87 84.64 73.63 84.64C81.39 84.64 88.12 78.14 88.12 70.15C88.12 62.16 82 56.04 74.33 55.67V65.16C74.33 65.55 74.01 65.86 73.63 65.86C71.27 65.86 69.35 67.78 69.35 70.14C69.35 70.53 69.03 70.84 68.65 70.84H59.15V70.85Z" fill="#0E1721"/>
  <path d="M78.6099 70.14C78.6099 72.89 76.3799 75.12 73.6299 75.12C70.8799 75.12 68.6499 72.89 68.6499 70.14C68.6499 67.39 70.8799 65.16 73.6299 65.16C76.3799 65.16 78.6099 67.39 78.6099 70.14Z" fill="white"/>
  <path d="M73.63 75.83C70.5 75.83 67.95 73.28 67.95 70.15C67.95 67.02 70.5 64.46 73.63 64.46C76.76 64.46 79.31 67.01 79.31 70.15C79.31 73.29 76.76 75.83 73.63 75.83ZM73.63 65.86C71.27 65.86 69.35 67.78 69.35 70.14C69.35 72.5 71.27 74.42 73.63 74.42C75.99 74.42 77.91 72.5 77.91 70.14C77.91 67.78 75.99 65.86 73.63 65.86Z" fill="#0E1721"/>
</svg>
