<svg xmlns="http://www.w3.org/2000/svg" width="100" height="100" viewBox="0 0 100 100" fill="none">
  <path d="M95.55 92.13H4.45C2 92.13 0 90.13 0 87.68V11.45C0 9 2 7 4.45 7H95.55C98 7 100 9 100 11.45V87.69C100 90.14 98 92.14 95.55 92.14V92.13ZM4.45 8.41C2.77 8.41 1.41 9.77 1.41 11.45V87.69C1.41 89.37 2.77 90.73 4.45 90.73H95.55C97.23 90.73 98.59 89.37 98.59 87.69V11.45C98.59 9.77 97.23 8.41 95.55 8.41H4.45Z" fill="#4279B6"/>
  <path d="M99.3 29.16H0.7C0.31 29.16 0 28.84 0 28.46C0 28.08 0.32 27.76 0.7 27.76H99.29C99.68 27.76 99.99 28.08 99.99 28.46C99.99 28.84 99.67 29.16 99.29 29.16H99.3Z" fill="#4279B6"/>
  <path d="M95.55 92.13H4.45C2 92.13 0 90.13 0 87.68V11.45C0 9 2 7 4.45 7H95.55C98 7 100 9 100 11.45V87.69C100 90.14 98 92.14 95.55 92.14V92.13ZM4.45 8.41C2.77 8.41 1.41 9.77 1.41 11.45V87.69C1.41 89.37 2.77 90.73 4.45 90.73H95.55C97.23 90.73 98.59 89.37 98.59 87.69V11.45C98.59 9.77 97.23 8.41 95.55 8.41H4.45Z" fill="#4279B6"/>
  <path d="M84.8 18.94H16.22C15.83 18.94 15.52 18.62 15.52 18.24C15.52 17.86 15.84 17.54 16.22 17.54H84.8C85.19 17.54 85.5 17.86 85.5 18.24C85.5 18.62 85.18 18.94 84.8 18.94Z" fill="#4279B6"/>
  <path d="M74.9899 45.29C75.3399 48.31 77.8899 50.68 81.0099 50.68C84.3699 50.68 87.0999 47.95 87.0999 44.59C87.0999 41.23 84.3699 38.5 81.0099 38.5C77.8899 38.5 75.3399 40.86 74.9899 43.89H55.7299C55.3799 40.87 52.8299 38.5 49.7099 38.5C46.5899 38.5 44.0399 40.86 43.6899 43.89H24.4299C24.0799 40.87 21.5299 38.5 18.4099 38.5C15.0499 38.5 12.3199 41.23 12.3199 44.59C12.3199 47.95 15.0499 50.68 18.4099 50.68C21.5299 50.68 24.0799 48.32 24.4299 45.29H43.6899C44.0399 48.31 46.5899 50.68 49.7099 50.68C52.8299 50.68 55.3799 48.32 55.7299 45.29H74.9899ZM85.6899 44.59C85.6899 46.93 83.9599 48.86 81.7099 49.2V39.98C83.9599 40.32 85.6899 42.25 85.6899 44.59ZM80.2999 39.98V49.2C78.0499 48.86 76.3199 46.93 76.3199 44.59C76.3199 42.25 78.0499 40.32 80.2999 39.98ZM18.3999 49.27C15.8199 49.27 13.7199 47.17 13.7199 44.59C13.7199 42.01 15.8199 39.91 18.3999 39.91C20.9799 39.91 23.0799 42.01 23.0799 44.59C23.0799 47.17 20.9799 49.27 18.3999 49.27ZM49.6999 49.27C47.1199 49.27 45.0199 47.17 45.0199 44.59C45.0199 42.01 47.1199 39.91 49.6999 39.91C52.2799 39.91 54.3799 42.01 54.3799 44.59C54.3799 47.17 52.2799 49.27 49.6999 49.27Z" fill="#2D557F"/>
  <path d="M20.7199 42.76L17.8699 45.57L16.5299 44.23C16.2499 43.95 15.8099 43.95 15.5299 44.23C15.2499 44.51 15.2499 44.95 15.5299 45.23L17.3599 47.06C17.4999 47.2 17.6799 47.27 17.8599 47.27C18.0399 47.27 18.2199 47.2 18.3499 47.07L21.6999 43.78C21.9799 43.51 21.9799 43.06 21.6999 42.78C21.4299 42.5 20.9799 42.5 20.6999 42.78L20.7199 42.76Z" fill="#2D557F"/>
  <path d="M51.7999 42.76L48.9499 45.57L47.6099 44.23C47.3299 43.95 46.8899 43.95 46.6099 44.23C46.3299 44.51 46.3299 44.95 46.6099 45.23L48.4399 47.06C48.5799 47.2 48.7599 47.27 48.9399 47.27C49.1199 47.27 49.2999 47.2 49.4299 47.07L52.7799 43.78C53.0599 43.51 53.0599 43.06 52.7799 42.78C52.5099 42.5 52.0599 42.5 51.7799 42.78L51.7999 42.76Z" fill="#2D557F"/>
  <path d="M45.6899 67.36H15.7499C14.3799 67.36 13.2599 68.48 13.2599 69.85V70.95C13.2599 72.32 14.3799 73.44 15.7499 73.44H45.6899C47.0599 73.44 48.1799 72.32 48.1799 70.95V69.85C48.1799 68.48 47.0599 67.36 45.6899 67.36ZM15.9799 72.03C15.4699 72.03 15.0599 71.62 15.0599 71.11V69.69C15.0599 69.19 15.4699 68.77 15.9799 68.77H41.2899V72.03H15.9799ZM46.7699 70.95C46.7699 71.55 46.2899 72.03 45.6899 72.03H42.6999V68.77H45.6899C46.2899 68.77 46.7699 69.25 46.7699 69.85V70.95Z" fill="#2D557F"/>
  <path d="M45.6899 76.12H15.5199C14.2799 76.12 13.2599 77.13 13.2599 78.38V79.94C13.2599 81.19 14.2699 82.2 15.5199 82.2H45.6899C47.0599 82.2 48.1799 81.08 48.1799 79.71V78.61C48.1799 77.24 47.0599 76.12 45.6899 76.12ZM15.7499 80.79C15.1499 80.79 14.6699 80.3 14.6699 79.71V78.61C14.6699 78.01 15.1499 77.53 15.7499 77.53H25.5099V80.79H15.7499ZM46.7699 79.71C46.7699 80.31 46.2899 80.79 45.6899 80.79H26.9199V77.53H45.6899C46.2899 77.53 46.7699 78.02 46.7699 78.61V79.71Z" fill="#2D557F"/>
  <path d="M45.6899 58.6H15.7499C14.3799 58.6 13.2599 59.72 13.2599 61.09V62.19C13.2599 63.56 14.3799 64.68 15.7499 64.68H45.6899C47.0599 64.68 48.1799 63.56 48.1799 62.19V61.09C48.1799 59.72 47.0599 58.6 45.6899 58.6ZM46.7699 62.19C46.7699 62.79 46.2899 63.27 45.6899 63.27H15.7499C15.1499 63.27 14.6699 62.79 14.6699 62.19V61.09C14.6699 60.49 15.1499 60.01 15.7499 60.01H45.6899C46.2899 60.01 46.7699 60.49 46.7699 61.09V62.19Z" fill="#2D557F"/>
  <path d="M73.63 54.24C64.86 54.24 57.73 61.37 57.73 70.14C57.73 78.91 64.86 86.04 73.63 86.04C82.4 86.04 89.53 78.91 89.53 70.14C89.53 61.37 82.4 54.24 73.63 54.24ZM73.63 65.87C75.99 65.87 77.91 67.79 77.91 70.15C77.91 72.51 75.99 74.43 73.63 74.43C71.27 74.43 69.35 72.51 69.35 70.15C69.35 67.79 71.27 65.87 73.63 65.87ZM72.92 55.69V64.53C70.35 64.85 68.33 66.87 68.01 69.44H59.17C59.53 62.01 65.49 56.05 72.92 55.69ZM73.63 84.64C65.88 84.64 59.54 78.51 59.17 70.85H68.01C68.36 73.65 70.73 75.83 73.62 75.83C76.75 75.83 79.31 73.28 79.31 70.14C79.31 67.25 77.13 64.88 74.33 64.53V55.69C81.99 56.06 88.12 62.39 88.12 70.15C88.12 77.91 81.62 84.64 73.63 84.64Z" fill="#2D557F"/>
</svg>
