<svg xmlns="http://www.w3.org/2000/svg" width="100" height="100" viewBox="0 0 100 100" fill="none">
  <path d="M59.6198 31.49C59.7298 31.93 60.1298 32.23 60.5698 32.23C60.6498 32.23 60.7298 32.23 60.8098 32.2L72.6298 29.24C72.8798 29.18 73.0998 29.02 73.2298 28.79C73.3598 28.56 73.3998 28.3 73.3398 28.05L70.3798 16.23C70.3198 15.98 70.1598 15.76 69.9298 15.63C69.7098 15.5 69.4398 15.46 69.1898 15.52L57.3698 18.48C57.1198 18.54 56.8998 18.7 56.7698 18.93C56.6398 19.15 56.5998 19.42 56.6598 19.67L59.6198 31.49ZM69.2098 16.83L72.0198 28.06L60.7898 30.87L57.9798 19.64L69.2098 16.83Z" fill="#4279B6"/>
  <path d="M95.77 31.61L84.43 27.13C83.93 26.93 83.3601 27.18 83.1601 27.68L78.68 39.02C78.58 39.26 78.5901 39.53 78.6901 39.77C78.7901 40.01 78.9901 40.2 79.2301 40.29L90.57 44.77C90.69 44.82 90.8101 44.84 90.93 44.84C91.0601 44.84 91.19 44.81 91.32 44.76C91.56 44.66 91.75 44.46 91.84 44.22L96.32 32.88C96.5201 32.38 96.27 31.81 95.77 31.61ZM79.99 39.21L84.24 28.44L95.0101 32.69L90.7601 43.46L79.99 39.21Z" fill="#4279B6"/>
  <path d="M17.38 74.44H5.18996C4.64996 74.44 4.20996 74.88 4.20996 75.42V87.61C4.20996 88.15 4.64996 88.59 5.18996 88.59H17.38C17.92 88.59 18.36 88.15 18.36 87.61V75.42C18.36 74.88 17.92 74.44 17.38 74.44ZM17.07 87.31H5.49996V75.73H17.08V87.31H17.07Z" fill="#4279B6"/>
  <path d="M34.0299 79.06V87.31H22.4499V75.73H30.5099C30.3399 75.52 30.1899 75.3 30.0299 75.09C29.8699 74.88 29.6999 74.67 29.5499 74.45H22.1499C21.6099 74.45 21.1699 74.89 21.1699 75.43V87.62C21.1699 88.16 21.6099 88.6 22.1499 88.6H34.3399C34.8799 88.6 35.3199 88.16 35.3199 87.62V79.94C35.1099 79.81 34.8799 79.69 34.6799 79.55C34.4599 79.4 34.2499 79.23 34.0399 79.07L34.0299 79.06Z" fill="#4279B6"/>
  <path d="M50.9799 81.94V87.31H39.3999V81.85C39.1799 81.78 38.9699 81.69 38.7599 81.61C38.5499 81.53 38.3299 81.46 38.1199 81.37V87.61C38.1199 88.15 38.5599 88.59 39.0999 88.59H51.2899C51.8299 88.59 52.2699 88.15 52.2699 87.61V81.46C52.0599 81.54 51.8399 81.62 51.6299 81.7C51.4099 81.78 51.2099 81.87 50.9899 81.93L50.9799 81.94Z" fill="#4279B6"/>
  <path d="M68.2401 74.44H61.0901C60.9401 74.66 60.7701 74.87 60.6101 75.08C60.4501 75.29 60.3001 75.52 60.1301 75.72H67.9301V87.3H56.3501V79.25C56.1401 79.4 55.9301 79.55 55.7101 79.69C55.5001 79.83 55.2801 79.95 55.0701 80.08V87.6C55.0701 88.14 55.5101 88.58 56.0501 88.58H68.2401C68.7801 88.58 69.2201 88.14 69.2201 87.6V75.41C69.2201 74.87 68.7801 74.43 68.2401 74.43V74.44Z" fill="#4279B6"/>
  <path d="M85.19 74.44H73C72.46 74.44 72.02 74.88 72.02 75.42V87.61C72.02 88.15 72.46 88.59 73 88.59H85.19C85.73 88.59 86.17 88.15 86.17 87.61V75.42C86.17 74.88 85.73 74.44 85.19 74.44ZM84.89 87.31H73.31V75.73H84.89V87.31Z" fill="#4279B6"/>
  <path d="M17.38 57.14H5.18996C4.64996 57.14 4.20996 57.58 4.20996 58.12V70.31C4.20996 70.85 4.64996 71.29 5.18996 71.29H17.38C17.92 71.29 18.36 70.85 18.36 70.31V58.12C18.36 57.58 17.92 57.14 17.38 57.14ZM17.07 70H5.49996V58.42H17.08V70H17.07Z" fill="#4279B6"/>
  <path d="M22.1399 71.29H27.7999C27.7099 71.08 27.6299 70.86 27.5499 70.65C27.4699 70.44 27.3899 70.22 27.3099 70.01H22.4399V58.43H26.9699C27.0299 58.21 27.0899 58 27.1599 57.79C27.2299 57.57 27.3199 57.36 27.3999 57.15H22.1299C21.5899 57.15 21.1499 57.59 21.1499 58.13V70.32C21.1499 70.86 21.5899 71.3 22.1299 71.3L22.1399 71.29Z" fill="#4279B6"/>
  <path d="M17.38 39.02H5.18996C4.64996 39.02 4.20996 39.46 4.20996 40V52.19C4.20996 52.73 4.64996 53.17 5.18996 53.17H17.38C17.92 53.17 18.36 52.73 18.36 52.19V40C18.36 39.46 17.92 39.02 17.38 39.02ZM17.07 51.88H5.49996V40.3H17.08V51.88H17.07Z" fill="#4279B6"/>
  <path d="M34.3299 39.02H22.1399C21.5999 39.02 21.1599 39.46 21.1599 40V52.19C21.1599 52.73 21.5999 53.17 22.1399 53.17H29.3999C29.5499 52.95 29.7099 52.74 29.8599 52.53C30.0199 52.31 30.1799 52.1 30.3399 51.89H22.4399V40.31H34.0199V48.35C34.2399 48.19 34.4399 48.02 34.6599 47.87C34.8699 47.73 35.0899 47.61 35.2999 47.48V40.01C35.2999 39.47 34.8599 39.03 34.3199 39.03L34.3299 39.02Z" fill="#4279B6"/>
  <path d="M39.3999 45.56V40.31H50.9799V45.47C51.1999 45.54 51.4099 45.63 51.6199 45.7C51.8399 45.78 52.0499 45.85 52.2599 45.94V40C52.2599 39.46 51.8199 39.02 51.2799 39.02H39.0899C38.5499 39.02 38.1099 39.46 38.1099 40V46.03C38.3199 45.94 38.5399 45.87 38.7499 45.79C38.9599 45.71 39.1799 45.63 39.3899 45.55L39.3999 45.56Z" fill="#4279B6"/>
  <path d="M68.2398 57.14H63.2298C63.3098 57.35 63.3898 57.57 63.4698 57.78C63.5398 57.99 63.5998 58.21 63.6598 58.42H67.9398V70H63.3298C63.2498 70.22 63.1798 70.43 63.0898 70.64C63.0098 70.85 62.9298 71.07 62.8398 71.28H68.2498C68.7898 71.28 69.2298 70.84 69.2298 70.3V58.11C69.2298 57.57 68.7898 57.13 68.2498 57.13L68.2398 57.14Z" fill="#4279B6"/>
  <path d="M85.19 57.14H73C72.46 57.14 72.02 57.58 72.02 58.12V70.31C72.02 70.85 72.46 71.29 73 71.29H85.19C85.73 71.29 86.17 70.85 86.17 70.31V58.12C86.17 57.58 85.73 57.14 85.19 57.14ZM84.89 70H73.31V58.42H84.89V70Z" fill="#4279B6"/>
  <path d="M55.5599 62.98C55.5799 63.22 55.6299 63.45 55.6299 63.7C55.6299 63.78 55.6899 63.83 55.7099 63.9C55.7999 64.15 55.9899 64.34 56.2699 64.34C56.2999 64.34 56.3199 64.31 56.3499 64.31C56.6599 64.26 56.9099 64.02 56.9099 63.7C56.9099 62.46 56.7099 61.27 56.3499 60.15C56.1799 59.61 55.9599 59.09 55.7099 58.59C55.5499 58.27 55.3799 57.96 55.1999 57.66C53.9999 55.7 52.2399 54.13 50.1399 53.17C49.5699 52.91 48.9799 52.69 48.3699 52.53C47.3999 52.26 46.3799 52.11 45.3299 52.11C45.0599 52.11 44.8799 52.3 44.7799 52.53C44.7499 52.61 44.6899 52.67 44.6899 52.75C44.6899 52.91 44.7599 53.06 44.8599 53.17C44.9799 53.3 45.1399 53.39 45.3299 53.39C45.5799 53.39 45.7999 53.45 46.0499 53.46C50.2899 53.76 53.7999 56.6 55.0799 60.49C55.3399 61.28 55.5099 62.11 55.5699 62.98H55.5599Z" fill="#4279B6"/>
  <path d="M54.29 28.15L56.56 31.46L57.43 34.93C57.56 35.45 58.02 35.79 58.53 35.79C58.59 35.79 58.66 35.79 58.72 35.77L63.97 35.69L66.72 33.83L69.43 34.49L71.94 32.46L76.06 31.43C76.35 31.36 76.6 31.17 76.76 30.91C76.92 30.65 76.96 30.34 76.89 30.05L75.24 26.37L74.99 22.57L75.36 19.09L73.43 16.28L72.55 12.78C72.4 12.17 71.78 11.8 71.17 11.95L53.9 16.28C53.32 16.42 52.96 16.99 53.05 17.56L53.03 21.56L54.75 24.54L54.25 28.15H54.29ZM54.37 17.5L71.37 13.23L72.27 16.81L74.06 19.42L73.73 22.54L74 26.68L75.6 30.22L71.38 31.28L69.14 33.09L66.49 32.45L63.58 34.42L58.65 34.49L57.76 30.92L55.64 27.83L56.14 24.28L54.37 21.22V17.5Z" fill="#2D557F"/>
  <path d="M99.91 30.58C99.79 30.3 99.57 30.09 99.29 29.98L82.99 23.54C82.71 23.43 82.4 23.43 82.13 23.55C81.85 23.67 81.64 23.89 81.53 24.17L80.3 27.28L79.64 30.93L77.96 33.3L75.59 35.4L76.14 37.83L75.1 40.48C74.87 41.06 75.16 41.72 75.74 41.94L75.83 41.98L78.41 42.17L81.33 45.28L84.58 45.41L86.89 45.69L88.88 47.13L92.04 48.38C92.17 48.43 92.31 48.46 92.45 48.46C92.6 48.46 92.75 48.43 92.9 48.37C93.18 48.25 93.39 48.03 93.5 47.75L99.94 31.45C100.05 31.17 100.05 30.86 99.93 30.59L99.91 30.58ZM77.47 37.93L77 35.86L78.91 34.17L80.84 31.44L81.51 27.69L82.66 24.79L98.66 31.11L92.34 47.11L89.48 45.98L87.35 44.44L84.69 44.12L81.88 44.01L78.98 40.92L76.36 40.73L77.46 37.94L77.47 37.93Z" fill="#2D557F"/>
  <path d="M88.2 52.43H81.23L76.13 50.53L72.72 52.33L70.59 50.83L64.28 52.44H60.7C59.66 51.03 58.44 49.76 57.06 48.69L57.76 46.08L56.38 42.21L57.5 39.31L56.34 36.73C56.26 35.45 55.2 34.43 53.9 34.43H23.74V29.61C23.74 27.48 16.91 27.37 15.54 27.37C14.17 27.37 7.34 27.48 7.34 29.61V34.43H2.44C1.09 34.43 0 35.53 0 36.87V90.82C0 92.17 1.1 93.26 2.44 93.26H88.19C89.54 93.26 90.63 92.16 90.63 90.82V54.89C90.63 53.54 89.53 52.45 88.19 52.45L88.2 52.43ZM89.35 90.8C89.35 91.44 88.83 91.96 88.19 91.96H2.44C1.8 91.96 1.28 91.44 1.28 90.8V36.86C1.28 36.22 1.8 35.7 2.44 35.7H53.89C54.53 35.7 55.05 36.22 55.05 36.86V37L56.1 39.34L55.01 42.19L56.42 46.13L55.95 47.86C54.81 47.09 53.57 46.46 52.27 45.95C52.06 45.87 51.84 45.79 51.63 45.71C51.41 45.63 51.21 45.54 50.99 45.48C49.2 44.92 47.3 44.62 45.33 44.62C43.26 44.62 41.28 44.96 39.41 45.57C39.19 45.64 38.98 45.73 38.77 45.81C38.56 45.89 38.34 45.96 38.13 46.05C37.15 46.45 36.22 46.94 35.33 47.49C35.12 47.62 34.89 47.74 34.69 47.88C34.47 48.03 34.26 48.2 34.05 48.36C32.67 49.38 31.43 50.56 30.37 51.9C30.2 52.11 30.05 52.33 29.89 52.54C29.73 52.75 29.57 52.96 29.43 53.18C28.61 54.41 27.95 55.75 27.43 57.15C27.35 57.36 27.27 57.58 27.19 57.79C27.12 58 27.06 58.22 27 58.43C26.52 60.11 26.24 61.87 26.24 63.7C26.24 65.91 26.64 68.03 27.33 70C27.41 70.22 27.48 70.43 27.57 70.64C27.65 70.85 27.73 71.07 27.82 71.28C28.3 72.39 28.88 73.45 29.56 74.43C29.71 74.65 29.88 74.86 30.04 75.07C30.2 75.28 30.35 75.51 30.52 75.71C31.54 76.97 32.73 78.08 34.04 79.04C34.26 79.2 34.46 79.37 34.68 79.52C34.89 79.66 35.11 79.78 35.32 79.91C36.21 80.46 37.14 80.95 38.12 81.35C38.33 81.44 38.55 81.51 38.76 81.59C38.97 81.67 39.19 81.76 39.4 81.83C41.27 82.44 43.25 82.78 45.32 82.78C47.39 82.78 49.19 82.48 50.98 81.92C51.2 81.85 51.41 81.76 51.62 81.69C51.84 81.61 52.05 81.54 52.26 81.45C53.24 81.07 54.17 80.6 55.06 80.07C55.28 79.94 55.49 79.82 55.7 79.68C55.92 79.54 56.13 79.39 56.34 79.24C57.75 78.24 59.02 77.06 60.12 75.71C60.29 75.5 60.44 75.28 60.6 75.07C60.76 74.86 60.93 74.65 61.08 74.43C61.76 73.44 62.34 72.39 62.82 71.28C62.91 71.07 62.99 70.85 63.07 70.64C63.15 70.43 63.23 70.21 63.31 70C64 68.02 64.4 65.91 64.4 63.7C64.4 61.87 64.13 60.1 63.64 58.43C63.58 58.21 63.52 58 63.45 57.79C63.38 57.57 63.29 57.36 63.21 57.15C62.77 55.95 62.21 54.8 61.54 53.72H64.41L70.3 52.22L72.59 53.83L76.19 51.94L80.97 53.73H88.17C88.81 53.73 89.33 54.25 89.33 54.89V90.82L89.35 90.8ZM11.12 28.95C12.24 28.77 13.71 28.64 15.54 28.64C17.37 28.64 18.83 28.77 19.96 28.95C21.18 29.14 21.98 29.39 22.32 29.59C21.98 29.79 21.17 30.04 19.96 30.23C18.84 30.41 17.37 30.54 15.54 30.54C13.71 30.54 12.25 30.41 11.12 30.23C9.9 30.04 9.1 29.79 8.76 29.59C9.1 29.39 9.91 29.14 11.12 28.95ZM8.62 30.92C10.67 31.77 14.54 31.83 15.53 31.83C16.52 31.83 20.4 31.77 22.44 30.92V34.41H8.62V30.92ZM59.57 53.07C59.73 53.28 59.9 53.49 60.05 53.71C60.77 54.77 61.37 55.93 61.86 57.14C61.94 57.35 62.02 57.57 62.1 57.78C62.18 58 62.27 58.2 62.33 58.42C62.85 60.09 63.13 61.86 63.13 63.69C63.13 65.91 62.7 68.03 61.96 69.99C61.88 70.2 61.81 70.42 61.72 70.63C61.63 70.85 61.51 71.06 61.41 71.27C60.88 72.39 60.24 73.45 59.49 74.42C59.33 74.63 59.17 74.86 59 75.06C58.81 75.28 58.61 75.49 58.42 75.7C57.78 76.39 57.1 77.04 56.36 77.62C56.15 77.79 55.93 77.94 55.72 78.1C55.51 78.25 55.3 78.41 55.08 78.55C54.2 79.13 53.26 79.64 52.28 80.06C52.07 80.15 51.85 80.22 51.64 80.3C51.43 80.38 51.21 80.46 51 80.54C49.22 81.14 47.32 81.48 45.34 81.48C43.36 81.48 41.28 81.1 39.42 80.45C39.2 80.37 38.99 80.3 38.78 80.21C38.56 80.12 38.35 80.04 38.14 79.94C37.16 79.5 36.22 78.99 35.34 78.39C35.12 78.24 34.91 78.07 34.7 77.91C34.49 77.75 34.26 77.6 34.06 77.43C33.42 76.9 32.82 76.31 32.26 75.7C32.06 75.49 31.86 75.28 31.68 75.06C31.51 74.85 31.35 74.63 31.19 74.42C30.45 73.44 29.8 72.39 29.27 71.27C29.17 71.06 29.05 70.85 28.96 70.63C28.87 70.42 28.8 70.2 28.72 69.99C27.97 68.03 27.55 65.91 27.55 63.69C27.55 61.85 27.83 60.08 28.35 58.42C28.42 58.2 28.51 57.99 28.58 57.78C28.66 57.56 28.73 57.35 28.82 57.14C29.39 55.71 30.14 54.38 31.03 53.17C31.19 52.95 31.34 52.73 31.51 52.53C31.69 52.31 31.88 52.1 32.07 51.89C32.69 51.2 33.34 50.54 34.06 49.95C34.27 49.78 34.49 49.63 34.7 49.47C34.91 49.31 35.12 49.14 35.34 48.99C36.22 48.39 37.16 47.88 38.14 47.44C38.35 47.35 38.57 47.26 38.78 47.17C38.99 47.09 39.21 47.01 39.42 46.93C41.27 46.27 43.26 45.9 45.34 45.9C47.42 45.9 49.22 46.24 51 46.84C51.22 46.91 51.43 46.99 51.64 47.08C51.85 47.16 52.07 47.23 52.28 47.32C53.46 47.82 54.57 48.46 55.6 49.19C55.79 49.32 55.97 49.46 56.15 49.61C56.33 49.75 56.52 49.88 56.7 50.03C57.57 50.76 58.38 51.56 59.1 52.44C59.27 52.65 59.42 52.87 59.58 53.08L59.57 53.07Z" fill="#2D557F"/>
  <path d="M63.97 38.4L60.23 40.21V44.1L64.71 45.87L66.07 43.16L64.98 41.72L63.97 38.4ZM61.51 43.23V41.02L63.17 40.22L63.81 42.32L64.56 43.3L64.08 44.25L61.51 43.23Z" fill="#2D557F"/>
  <path d="M72.1399 38.38L68.6399 36.64V41.1L70.8399 43.84L73.5799 42.63L72.1399 38.38ZM69.9299 38.72L71.0999 39.3L71.9899 41.93L71.2299 42.27L69.9299 40.65V38.72Z" fill="#2D557F"/>
  <path d="M69.57 49.74L72.12 47.7L68.58 45.32L64.73 47.68L67.5 50.17L69.56 49.73L69.57 49.74ZM68.55 46.86L69.94 47.8L69 48.55L67.88 48.79L66.88 47.89L68.55 46.86Z" fill="#2D557F"/>
  <path d="M52.2699 50.81C52.0599 50.7 51.8399 50.6 51.6299 50.5C51.4199 50.4 51.2099 50.29 50.9899 50.19C49.2499 49.46 47.3399 49.05 45.3299 49.05C43.2199 49.05 41.2199 49.51 39.4099 50.31C39.1899 50.41 38.9799 50.51 38.7699 50.62C38.5499 50.73 38.3399 50.84 38.1299 50.96C35.6099 52.39 33.5599 54.55 32.2499 57.14C32.1399 57.35 32.0399 57.57 31.9399 57.78C31.8499 57.99 31.7599 58.21 31.6799 58.42C31.0399 60.06 30.6799 61.83 30.6799 63.69C30.6799 65.95 31.2099 68.08 32.1299 69.99C32.2299 70.2 32.3299 70.42 32.4399 70.63C32.5599 70.85 32.6999 71.06 32.8299 71.27C34.1299 73.41 35.9499 75.19 38.1299 76.42C38.3399 76.54 38.5599 76.65 38.7699 76.76C38.9799 76.87 39.1999 76.97 39.4099 77.07C41.2199 77.87 43.2199 78.33 45.3299 78.33C47.4399 78.33 49.2499 77.92 50.9899 77.19C51.2099 77.1 51.4199 76.99 51.6299 76.88C51.8399 76.78 52.0599 76.68 52.2699 76.57C54.5599 75.33 56.4799 73.49 57.8299 71.27C57.9599 71.06 58.0999 70.85 58.2199 70.63C58.3299 70.42 58.4299 70.2 58.5299 69.99C59.4499 68.08 59.9799 65.95 59.9799 63.69C59.9799 61.83 59.6199 60.05 58.9799 58.42C58.8999 58.2 58.8099 57.99 58.7199 57.78C58.6199 57.56 58.5199 57.35 58.4099 57.14C57.0599 54.45 54.9199 52.23 52.2799 50.81H52.2699ZM57.2799 57.78C57.3899 57.99 57.4999 58.2 57.5899 58.42C58.2899 60.04 58.6799 61.82 58.6799 63.69C58.6799 65.97 58.0999 68.11 57.0899 69.99C56.9699 70.21 56.8399 70.42 56.7099 70.63C56.5799 70.85 56.4499 71.06 56.2999 71.27C55.2199 72.82 53.8199 74.13 52.1999 75.11C52.0099 75.23 51.8199 75.35 51.6199 75.46C51.4099 75.57 51.1899 75.67 50.9799 75.77C49.2599 76.58 47.3399 77.05 45.3199 77.05C43.2999 77.05 41.2899 76.56 39.5399 75.72C39.2899 75.6 39.0299 75.48 38.7899 75.34C38.5999 75.23 38.4099 75.11 38.2199 74.99C36.6899 74.02 35.3599 72.76 34.3299 71.28C34.1899 71.07 34.0499 70.85 33.9199 70.64C33.7899 70.43 33.6499 70.22 33.5399 70C32.5299 68.12 31.9499 65.97 31.9499 63.7C31.9499 61.83 32.3399 60.04 33.0399 58.43C33.1299 58.21 33.2399 58 33.3499 57.79C33.4599 57.57 33.5699 57.36 33.6799 57.15C34.7599 55.24 36.3099 53.62 38.1499 52.44C38.3499 52.32 38.5399 52.19 38.7399 52.08C38.9499 51.96 39.1699 51.85 39.3799 51.75C41.1699 50.86 43.1699 50.35 45.2999 50.35C47.4299 50.35 49.2399 50.82 50.9599 51.63C51.1799 51.73 51.3899 51.83 51.5999 51.94C51.8099 52.05 52.0199 52.19 52.2199 52.31C54.1699 53.5 55.7999 55.17 56.9199 57.16C57.0399 57.37 57.1499 57.59 57.2499 57.8L57.2799 57.78Z" fill="#2D557F"/>
  <path d="M49.8699 31.19L50.2799 30.7L50.0699 30.52L43.2899 24.84L51.4299 26.09L51.5299 26.1L51.7199 24.83L38.9299 22.87L49.4599 31.68L49.8699 31.19Z" fill="#2D557F"/>
  <path d="M76.1999 17.87L76.2799 17.75L82.4499 9.77V18.89L89.3199 17.08L85.8999 22.2L86.4399 22.56L86.9699 22.92L92.2699 14.97L83.7399 17.22V6L75.1799 17.08L76.1999 17.87Z" fill="#2D557F"/>
</svg>
