<svg xmlns="http://www.w3.org/2000/svg" width="100" height="100" viewBox="0 0 100 100" fill="none">
  <path d="M23.09 29.59H7.97998V36.13H23.09V29.59Z" fill="#4279B6"/>
  <path d="M23.0901 36.77H7.98009C7.62009 36.77 7.34009 36.48 7.34009 36.13V29.59C7.34009 29.23 7.63009 28.95 7.98009 28.95H23.0901C23.4501 28.95 23.7301 29.24 23.7301 29.59V36.13C23.7301 36.49 23.4401 36.77 23.0901 36.77ZM8.62009 35.49H22.4401V30.24H8.62009V35.49Z" fill="#0E1721"/>
  <path d="M15.54 31.19C19.7153 31.19 23.1 30.4736 23.1 29.59C23.1 28.7063 19.7153 27.99 15.54 27.99C11.3647 27.99 7.97998 28.7063 7.97998 29.59C7.97998 30.4736 11.3647 31.19 15.54 31.19Z" fill="#4279B6"/>
  <path d="M15.5401 31.83C14.1701 31.83 7.34009 31.72 7.34009 29.59C7.34009 27.46 14.1701 27.35 15.5401 27.35C16.9101 27.35 23.7401 27.46 23.7401 29.59C23.7401 31.72 16.9101 31.83 15.5401 31.83ZM8.76009 29.59C9.42009 29.97 11.7401 30.55 15.5401 30.55C19.3401 30.55 21.6501 29.98 22.3201 29.59C21.6601 29.21 19.3401 28.63 15.5401 28.63C11.7401 28.63 9.43009 29.2 8.76009 29.59Z" fill="#0E1721"/>
  <path d="M75.92 30.81L71.66 31.88L69.28 33.8L66.6 33.15L63.77 35.06L58.65 35.14C58.39 35.21 58.12 35.05 58.05 34.78L57.15 31.2L54.95 28L55.45 24.42L53.7 21.4V17.51C53.65 17.25 53.81 16.98 54.07 16.91L71.34 12.58C71.6 12.51 71.87 12.67 71.94 12.94L72.84 16.55L74.7 19.26L74.35 22.56L74.61 26.53L76.27 30.21C76.34 30.47 76.18 30.74 75.91 30.81H75.92Z" fill="#FC8B27"/>
  <path d="M58.5301 35.79C58.3301 35.79 58.1301 35.73 57.9501 35.63C57.6901 35.47 57.5101 35.23 57.4301 34.93L56.5601 31.46L54.2901 28.15L54.7901 24.54L53.0701 21.56L53.0901 17.56C53.0501 17.3 53.0901 17.03 53.2401 16.79C53.4001 16.53 53.6401 16.35 53.9401 16.27L71.2101 11.94C71.8201 11.79 72.4401 12.16 72.5901 12.77L73.4701 16.27L75.4001 19.08L75.0301 22.56L75.2801 26.36L76.9301 30.04C77.0001 30.33 76.9601 30.64 76.8001 30.9C76.6401 31.16 76.4001 31.34 76.1001 31.42L71.9801 32.45L69.4701 34.48L66.7601 33.82L64.0101 35.68L58.7601 35.76C58.7001 35.77 58.6301 35.78 58.5701 35.78L58.5301 35.79ZM55.6301 27.83L57.7501 30.92L58.6401 34.49L63.5701 34.42L66.4801 32.45L69.1301 33.09L71.3701 31.28L75.5901 30.22L73.9901 26.68L73.7201 22.54L74.0501 19.42L72.2601 16.81L71.3601 13.23L54.3601 17.49L54.3501 21.22L56.1201 24.28L55.6201 27.83H55.6301Z" fill="#0E1721"/>
  <path d="M92.26 47.77L89.18 46.55L87.12 45.06L84.62 44.76L81.6 44.64L78.69 41.54L75.96 41.34C75.71 41.24 75.59 40.96 75.69 40.71L76.81 37.88L76.3 35.63L78.44 33.74L80.24 31.19L80.89 27.52L82.12 24.41C82.22 24.16 82.5 24.04 82.75 24.14L99.05 30.58C99.3 30.68 99.42 30.96 99.32 31.21L92.88 47.51C92.78 47.76 92.5 47.88 92.25 47.78L92.26 47.77Z" fill="#FC8B27"/>
  <path d="M92.43 48.45C92.29 48.45 92.15 48.42 92.02 48.37L88.86 47.12L86.87 45.68L84.56 45.4L81.31 45.27L78.39 42.16L75.81 41.97L75.72 41.93C75.14 41.7 74.86 41.04 75.08 40.47L76.12 37.82L75.57 35.39L77.94 33.29L79.62 30.92L80.28 27.27L81.51 24.16C81.62 23.88 81.83 23.66 82.11 23.54C82.39 23.42 82.69 23.42 82.97 23.53L99.27 29.97C99.85 30.2 100.13 30.86 99.91 31.43L93.47 47.73C93.29 48.17 92.87 48.44 92.42 48.44L92.43 48.45ZM89.49 45.99L92.35 47.12L98.67 31.12L82.67 24.8L81.52 27.7L80.85 31.44L78.92 34.17L77.01 35.86L77.48 37.93L76.38 40.72L79 40.91L81.9 44L84.71 44.11L87.37 44.43L89.5 45.97L89.49 45.99Z" fill="#0E1721"/>
  <path d="M55.6899 51.27L57.0899 46.09L55.6899 42.18L56.7899 39.3L55.6899 36.85C55.6899 35.86 54.8799 35.05 53.8899 35.05H2.43989C1.44989 35.05 0.639893 35.86 0.639893 36.85V90.8C0.639893 91.79 1.44989 92.6 2.43989 92.6H88.1899C89.1799 92.6 89.9899 91.79 89.9899 90.8V54.87C89.9899 53.88 89.1799 53.07 88.1899 53.07H81.0999L76.1599 51.23L72.6499 53.07L70.4399 51.52L64.3399 53.07H57.4799C56.4899 53.07 55.6799 52.26 55.6799 51.27H55.6899Z" fill="#FC8B27"/>
  <path d="M88.2 93.25H2.44C1.09 93.25 0 92.15 0 90.81V36.86C0 35.51 1.1 34.42 2.44 34.42H53.89C55.19 34.42 56.25 35.44 56.33 36.72L57.49 39.3L56.37 42.2L57.75 46.07L56.33 51.35C56.37 51.95 56.87 52.43 57.49 52.43H64.27L70.58 50.82L72.71 52.32L76.12 50.52L81.22 52.43H88.19C89.54 52.43 90.63 53.53 90.63 54.87V90.8C90.63 92.15 89.53 93.24 88.19 93.24L88.2 93.25ZM2.44 35.7C1.8 35.7 1.28 36.22 1.28 36.86V90.81C1.28 91.45 1.8 91.97 2.44 91.97H88.19C88.83 91.97 89.35 91.45 89.35 90.81V54.88C89.35 54.24 88.83 53.72 88.19 53.72H80.99L76.21 51.94L72.61 53.83L70.32 52.22L64.43 53.72H57.49C56.14 53.72 55.05 52.62 55.05 51.28V51.19L56.42 46.12L55.01 42.18L56.1 39.33L55.05 36.99V36.85C55.05 36.21 54.53 35.69 53.89 35.69H2.44V35.7Z" fill="#0E1721"/>
  <path d="M69.3446 16.1374L57.5295 19.0964C57.3474 19.142 57.2367 19.3267 57.2823 19.5088L60.2413 31.3239C60.2869 31.5061 60.4716 31.6168 60.6537 31.5712L72.4688 28.6122C72.651 28.5666 72.7616 28.3819 72.716 28.1998L69.757 16.3846C69.7114 16.2025 69.5268 16.0918 69.3446 16.1374Z" fill="#FDA85C"/>
  <path d="M60.5701 32.23C60.1301 32.23 59.7301 31.93 59.6201 31.49L56.6601 19.67C56.5301 19.15 56.8501 18.61 57.3701 18.48L69.1901 15.52C69.7201 15.39 70.2501 15.71 70.3801 16.23L73.3401 28.05C73.4701 28.58 73.1501 29.11 72.6301 29.24L60.8101 32.2C60.7301 32.22 60.6501 32.23 60.5701 32.23ZM57.9801 19.65L60.7901 30.88L72.0201 28.07L69.2101 16.84L57.9801 19.65Z" fill="#0E1721"/>
  <path d="M95.5286 32.2028L84.2 27.7289C84.0254 27.6599 83.8279 27.7456 83.7589 27.9202L79.285 39.2488C79.2161 39.4235 79.3017 39.621 79.4764 39.6899L90.805 44.1638C90.9796 44.2328 91.1771 44.1471 91.2461 43.9725L95.72 32.6439C95.7889 32.4692 95.7033 32.2717 95.5286 32.2028Z" fill="#FDA85C"/>
  <path d="M90.93 44.84C90.8101 44.84 90.69 44.82 90.57 44.77L79.2301 40.29C78.9901 40.19 78.7901 40.01 78.6901 39.77C78.5901 39.53 78.58 39.26 78.68 39.02L83.1601 27.68C83.3601 27.18 83.93 26.93 84.43 27.13L95.77 31.61C96.27 31.81 96.5201 32.38 96.32 32.88L91.84 44.22C91.74 44.46 91.56 44.66 91.32 44.76C91.19 44.81 91.0601 44.84 90.93 44.84ZM79.99 39.21L90.7601 43.46L95.0101 32.69L84.24 28.44L79.99 39.21Z" fill="#0E1721"/>
  <path d="M17.3699 75.09H5.18985C5.00208 75.09 4.84985 75.2423 4.84985 75.43V87.61C4.84985 87.7978 5.00208 87.95 5.18985 87.95H17.3699C17.5576 87.95 17.7099 87.7978 17.7099 87.61V75.43C17.7099 75.2423 17.5576 75.09 17.3699 75.09Z" fill="#FDA85C"/>
  <path d="M17.38 88.6H5.18996C4.64996 88.6 4.20996 88.16 4.20996 87.62V75.43C4.20996 74.89 4.64996 74.45 5.18996 74.45H17.38C17.92 74.45 18.36 74.89 18.36 75.43V87.62C18.36 88.16 17.92 88.6 17.38 88.6ZM5.49996 87.31H17.08V75.73H5.49996V87.31Z" fill="#0E1721"/>
  <path d="M34.3298 75.09H22.1498C21.962 75.09 21.8098 75.2423 21.8098 75.43V87.61C21.8098 87.7978 21.962 87.95 22.1498 87.95H34.3298C34.5176 87.95 34.6698 87.7978 34.6698 87.61V75.43C34.6698 75.2423 34.5176 75.09 34.3298 75.09Z" fill="#FDA85C"/>
  <path d="M34.3299 88.6H22.1399C21.5999 88.6 21.1599 88.16 21.1599 87.62V75.43C21.1599 74.89 21.5999 74.45 22.1399 74.45H34.3299C34.8699 74.45 35.3099 74.89 35.3099 75.43V87.62C35.3099 88.16 34.8699 88.6 34.3299 88.6ZM22.4499 87.31H34.0299V75.73H22.4499V87.31Z" fill="#0E1721"/>
  <path d="M51.28 75.09H39.1C38.9122 75.09 38.76 75.2423 38.76 75.43V87.61C38.76 87.7978 38.9122 87.95 39.1 87.95H51.28C51.4678 87.95 51.62 87.7978 51.62 87.61V75.43C51.62 75.2423 51.4678 75.09 51.28 75.09Z" fill="#FDA85C"/>
  <path d="M51.2901 88.6H39.1001C38.5601 88.6 38.1201 88.16 38.1201 87.62V75.43C38.1201 74.89 38.5601 74.45 39.1001 74.45H51.2901C51.8301 74.45 52.2701 74.89 52.2701 75.43V87.62C52.2701 88.16 51.8301 88.6 51.2901 88.6ZM39.4001 87.31H50.9801V75.73H39.4001V87.31Z" fill="#0E1721"/>
  <path d="M68.23 75.09H56.05C55.8622 75.09 55.71 75.2423 55.71 75.43V87.61C55.71 87.7978 55.8622 87.95 56.05 87.95H68.23C68.4177 87.95 68.57 87.7978 68.57 87.61V75.43C68.57 75.2423 68.4177 75.09 68.23 75.09Z" fill="#FDA85C"/>
  <path d="M68.2401 88.6H56.0501C55.5101 88.6 55.0701 88.16 55.0701 87.62V75.43C55.0701 74.89 55.5101 74.45 56.0501 74.45H68.2401C68.7801 74.45 69.2201 74.89 69.2201 75.43V87.62C69.2201 88.16 68.7801 88.6 68.2401 88.6ZM56.3601 87.31H67.9401V75.73H56.3601V87.31Z" fill="#0E1721"/>
  <path d="M85.1899 75.09H73.0099C72.8221 75.09 72.6699 75.2423 72.6699 75.43V87.61C72.6699 87.7978 72.8221 87.95 73.0099 87.95H85.1899C85.3777 87.95 85.5299 87.7978 85.5299 87.61V75.43C85.5299 75.2423 85.3777 75.09 85.1899 75.09Z" fill="#FDA85C"/>
  <path d="M85.19 88.6H73C72.46 88.6 72.02 88.16 72.02 87.62V75.43C72.02 74.89 72.46 74.45 73 74.45H85.19C85.73 74.45 86.17 74.89 86.17 75.43V87.62C86.17 88.16 85.73 88.6 85.19 88.6ZM73.31 87.31H84.89V75.73H73.31V87.31Z" fill="#0E1721"/>
  <path d="M17.3699 57.78H5.18985C5.00208 57.78 4.84985 57.9323 4.84985 58.12V70.3C4.84985 70.4878 5.00208 70.64 5.18985 70.64H17.3699C17.5576 70.64 17.7099 70.4878 17.7099 70.3V58.12C17.7099 57.9323 17.5576 57.78 17.3699 57.78Z" fill="#FDA85C"/>
  <path d="M17.38 71.29H5.18996C4.64996 71.29 4.20996 70.85 4.20996 70.31V58.12C4.20996 57.58 4.64996 57.14 5.18996 57.14H17.38C17.92 57.14 18.36 57.58 18.36 58.12V70.31C18.36 70.85 17.92 71.29 17.38 71.29ZM5.49996 70H17.08V58.42H5.49996V70Z" fill="#0E1721"/>
  <path d="M34.3298 57.78H22.1498C21.962 57.78 21.8098 57.9323 21.8098 58.12V70.3C21.8098 70.4878 21.962 70.64 22.1498 70.64H34.3298C34.5176 70.64 34.6698 70.4878 34.6698 70.3V58.12C34.6698 57.9323 34.5176 57.78 34.3298 57.78Z" fill="#FDA85C"/>
  <path d="M34.3299 71.29H22.1399C21.5999 71.29 21.1599 70.85 21.1599 70.31V58.12C21.1599 57.58 21.5999 57.14 22.1399 57.14H34.3299C34.8699 57.14 35.3099 57.58 35.3099 58.12V70.31C35.3099 70.85 34.8699 71.29 34.3299 71.29ZM22.4499 70H34.0299V58.42H22.4499V70Z" fill="#0E1721"/>
  <path d="M51.28 57.78H39.1C38.9122 57.78 38.76 57.9323 38.76 58.12V70.3C38.76 70.4878 38.9122 70.64 39.1 70.64H51.28C51.4678 70.64 51.62 70.4878 51.62 70.3V58.12C51.62 57.9323 51.4678 57.78 51.28 57.78Z" fill="#FDA85C"/>
  <path d="M51.2901 71.29H39.1001C38.5601 71.29 38.1201 70.85 38.1201 70.31V58.12C38.1201 57.58 38.5601 57.14 39.1001 57.14H51.2901C51.8301 57.14 52.2701 57.58 52.2701 58.12V70.31C52.2701 70.85 51.8301 71.29 51.2901 71.29ZM39.4001 70H50.9801V58.42H39.4001V70Z" fill="#0E1721"/>
  <path d="M17.3699 39.66H5.18985C5.00208 39.66 4.84985 39.8123 4.84985 40V52.18C4.84985 52.3678 5.00208 52.52 5.18985 52.52H17.3699C17.5576 52.52 17.7099 52.3678 17.7099 52.18V40C17.7099 39.8123 17.5576 39.66 17.3699 39.66Z" fill="#FDA85C"/>
  <path d="M17.38 53.17H5.18996C4.64996 53.17 4.20996 52.73 4.20996 52.19V40C4.20996 39.46 4.64996 39.02 5.18996 39.02H17.38C17.92 39.02 18.36 39.46 18.36 40V52.19C18.36 52.73 17.92 53.17 17.38 53.17ZM5.49996 51.88H17.08V40.3H5.49996V51.88Z" fill="#0E1721"/>
  <path d="M34.3298 39.66H22.1498C21.962 39.66 21.8098 39.8123 21.8098 40V52.18C21.8098 52.3678 21.962 52.52 22.1498 52.52H34.3298C34.5176 52.52 34.6698 52.3678 34.6698 52.18V40C34.6698 39.8123 34.5176 39.66 34.3298 39.66Z" fill="#FDA85C"/>
  <path d="M34.3299 53.17H22.1399C21.5999 53.17 21.1599 52.73 21.1599 52.19V40C21.1599 39.46 21.5999 39.02 22.1399 39.02H34.3299C34.8699 39.02 35.3099 39.46 35.3099 40V52.19C35.3099 52.73 34.8699 53.17 34.3299 53.17ZM22.4499 51.88H34.0299V40.3H22.4499V51.88Z" fill="#0E1721"/>
  <path d="M51.28 39.66H39.1C38.9122 39.66 38.76 39.8123 38.76 40V52.18C38.76 52.3678 38.9122 52.52 39.1 52.52H51.28C51.4678 52.52 51.62 52.3678 51.62 52.18V40C51.62 39.8123 51.4678 39.66 51.28 39.66Z" fill="#FDA85C"/>
  <path d="M51.2901 53.17H39.1001C38.5601 53.17 38.1201 52.73 38.1201 52.19V40C38.1201 39.46 38.5601 39.02 39.1001 39.02H51.2901C51.8301 39.02 52.2701 39.46 52.2701 40V52.19C52.2701 52.73 51.8301 53.17 51.2901 53.17ZM39.4001 51.88H50.9801V40.3H39.4001V51.88Z" fill="#0E1721"/>
  <path d="M68.23 57.78H56.05C55.8622 57.78 55.71 57.9323 55.71 58.12V70.3C55.71 70.4878 55.8622 70.64 56.05 70.64H68.23C68.4177 70.64 68.57 70.4878 68.57 70.3V58.12C68.57 57.9323 68.4177 57.78 68.23 57.78Z" fill="#FDA85C"/>
  <path d="M68.2401 71.29H56.0501C55.5101 71.29 55.0701 70.85 55.0701 70.31V58.12C55.0701 57.58 55.5101 57.14 56.0501 57.14H68.2401C68.7801 57.14 69.2201 57.58 69.2201 58.12V70.31C69.2201 70.85 68.7801 71.29 68.2401 71.29ZM56.3601 70H67.9401V58.42H56.3601V70Z" fill="#0E1721"/>
  <path d="M85.1899 57.78H73.0099C72.8221 57.78 72.6699 57.9323 72.6699 58.12V70.3C72.6699 70.4878 72.8221 70.64 73.0099 70.64H85.1899C85.3777 70.64 85.5299 70.4878 85.5299 70.3V58.12C85.5299 57.9323 85.3777 57.78 85.1899 57.78Z" fill="#FDA85C"/>
  <path d="M85.19 71.29H73C72.46 71.29 72.02 70.85 72.02 70.31V58.12C72.02 57.58 72.46 57.14 73 57.14H85.19C85.73 57.14 86.17 57.58 86.17 58.12V70.31C86.17 70.85 85.73 71.29 85.19 71.29ZM73.31 70H84.89V58.42H73.31V70Z" fill="#0E1721"/>
  <path d="M63.5699 39.31L64.3999 42.02L65.3199 43.23L64.3999 45.06L60.8699 43.67V40.62L63.5699 39.31Z" fill="#FC8B27"/>
  <path d="M64.71 45.88L60.23 44.11V40.22L63.97 38.41L64.98 41.73L66.07 43.17L64.71 45.88ZM61.51 43.23L64.08 44.25L64.56 43.3L63.81 42.32L63.17 40.22L61.51 41.02V43.23Z" fill="#0E1721"/>
  <path d="M69.2798 37.68L71.6198 38.84L72.7798 42.28L71.0298 43.05L69.2798 40.87V37.68Z" fill="#FC8B27"/>
  <path d="M70.8399 43.84L68.6399 41.1V36.64L72.1399 38.38L73.5799 42.63L70.8399 43.84ZM69.9299 40.65L71.2299 42.27L71.9899 41.93L71.0999 39.3L69.9299 38.72V40.65Z" fill="#0E1721"/>
  <path d="M68.5701 46.09L71.0301 47.75L69.2801 49.15L67.7001 49.48L65.8101 47.79L68.5701 46.09Z" fill="#FC8B27"/>
  <path d="M67.51 50.18L64.74 47.69L68.59 45.33L72.13 47.71L69.58 49.75L67.52 50.19L67.51 50.18ZM66.88 47.88L67.88 48.78L69 48.54L69.94 47.79L68.55 46.85L66.88 47.88Z" fill="#0E1721"/>
  <path d="M45.3199 82.15C55.5095 82.15 63.7699 73.8897 63.7699 63.7C63.7699 53.5103 55.5095 45.25 45.3199 45.25C35.1302 45.25 26.8699 53.5103 26.8699 63.7C26.8699 73.8897 35.1302 82.15 45.3199 82.15Z" fill="#4279B6"/>
  <path d="M45.32 82.8C34.79 82.8 26.22 74.23 26.22 63.7C26.22 53.17 34.79 44.6 45.32 44.6C55.85 44.6 64.42 53.17 64.42 63.7C64.42 74.23 55.85 82.8 45.32 82.8ZM45.32 45.89C35.5 45.89 27.51 53.88 27.51 63.7C27.51 73.52 35.5 81.51 45.32 81.51C55.14 81.51 63.13 73.52 63.13 63.7C63.13 53.88 55.14 45.89 45.32 45.89Z" fill="#0E1721"/>
  <path d="M45.3198 77.71C53.0573 77.71 59.3298 71.4375 59.3298 63.7C59.3298 55.9625 53.0573 49.69 45.3198 49.69C37.5823 49.69 31.3098 55.9625 31.3098 63.7C31.3098 71.4375 37.5823 77.71 45.3198 77.71Z" fill="#E6E6E6"/>
  <path d="M45.3199 78.35C37.2399 78.35 30.6699 71.78 30.6699 63.7C30.6699 55.62 37.2399 49.05 45.3199 49.05C53.3999 49.05 59.9699 55.62 59.9699 63.7C59.9699 71.78 53.3999 78.35 45.3199 78.35ZM45.3199 50.34C37.9499 50.34 31.9599 56.34 31.9599 63.7C31.9599 71.06 37.9599 77.06 45.3199 77.06C52.6799 77.06 58.6799 71.06 58.6799 63.7C58.6799 56.34 52.6799 50.34 45.3199 50.34Z" fill="#0E1721"/>
  <path d="M56.2699 64.34C55.9099 64.34 55.6299 64.05 55.6299 63.7C55.6299 58.02 51.0099 53.39 45.3199 53.39C44.9599 53.39 44.6799 53.1 44.6799 52.75C44.6799 52.4 44.9699 52.11 45.3199 52.11C51.7099 52.11 56.9199 57.31 56.9199 63.71C56.9199 64.07 56.6299 64.35 56.2799 64.35L56.2699 64.34Z" fill="white"/>
  <path d="M49.4599 31.68L38.9299 22.87L51.7199 24.83L51.5299 26.1L43.2899 24.84L50.2799 30.7L49.4599 31.68Z" fill="#0E1721"/>
  <path d="M86.9699 22.92L85.8999 22.2L89.3199 17.08L82.4499 18.89V9.77L76.1999 17.87L75.1799 17.08L83.7399 6V17.22L92.2699 14.97L86.9699 22.92Z" fill="#0E1721"/>
</svg>
