<svg xmlns="http://www.w3.org/2000/svg" width="100" height="100" viewBox="0 0 100 100" fill="none">
  <path d="M71.98 29.92C71.98 31.82 70.56 33.34 68.82 33.34H68.22V79.02H66.82V33.34H56.12V79.02H54.72V33.34H54.12C52.38 33.34 50.96 31.82 50.96 29.92C50.96 29.74 50.98 29.58 51 29.42C51.02 29.28 51.06 29.12 51.1 28.98C51.16 28.72 51.26 28.46 51.4 28.22H53.18C52.68 28.58 52.36 29.22 52.36 29.92C52.36 31.04 53.14 31.94 54.12 31.94H68.82C69.78 31.94 70.58 31.04 70.58 29.92C70.58 29.22 70.26 28.58 69.76 28.22H71.54C71.68 28.46 71.78 28.72 71.84 28.98C71.88 29.12 71.92 29.28 71.94 29.42C71.96 29.58 71.98 29.74 71.98 29.92Z" fill="#2D557F"/>
  <path d="M94.28 27.86C94.34 27.96 94.4 28.06 94.44 28.16H94.46C94.42 28.06 94.36 27.96 94.28 27.86ZM94.46 28.16C94.62 28.42 94.72 28.7 94.8 29C94.74 28.7 94.64 28.42 94.46 28.16ZM94.92 29.72V29.92C94.92 30.4 94.84 30.84 94.68 31.26C94.86 30.86 94.94 30.4 94.94 29.92C94.94 29.84 94.94 29.78 94.92 29.72Z" fill="#2D557F"/>
  <path d="M94.92 29.72V29.92C94.92 30.4 94.84 30.84 94.68 31.26C94.52 31.68 94.3 32.04 94 32.34C93.42 32.96 92.64 33.34 91.78 33.34H91.18V78.98H89.76V33.34H79.08V79H77.66V33.34H77.06C75.32 33.34 73.9 31.82 73.9 29.92C73.9 29.74 73.92 29.58 73.94 29.42C73.96 29.28 74 29.12 74.04 28.98C74.1 28.72 74.2 28.46 74.34 28.22H76.12C76 28.3 75.9 28.42 75.8 28.54C75.5 28.9 75.32 29.38 75.32 29.92C75.32 31.04 76.1 31.94 77.06 31.94H91.78C92.74 31.94 93.52 31.04 93.52 29.92C93.52 29.58 93.44 29.26 93.3 28.98C93.26 28.84 93.18 28.72 93.1 28.62C93.06 28.56 93.02 28.5 92.98 28.48C92.9 28.36 92.8 28.28 92.72 28.22C92.72 28.22 92.7134 28.2133 92.7 28.2C93.34 28.2 93.92 28.18 94.44 28.16H94.46C94.62 28.42 94.72 28.7 94.8 29C94.84 29.1 94.86 29.22 94.88 29.32C94.9 29.38 94.9 29.44 94.9 29.5C94.92 29.56 94.94 29.64 94.92 29.72Z" fill="#2D557F"/>
  <path d="M49.04 29.92C49.04 31.82 47.62 33.34 45.88 33.34H45.28V79.02H43.86V33.34H33.18V79.02H31.76V33.34H31.16C29.42 33.34 28 31.82 28 29.92C28 29.72 28.02 29.54 28.04 29.36C28.06 29.24 28.1 29.1 28.14 28.98C28.2 28.72 28.3 28.46 28.44 28.22H30.22C30.12 28.3 30.02 28.38 29.94 28.5C29.62 28.86 29.42 29.36 29.42 29.92C29.42 31.04 30.2 31.94 31.16 31.94H45.88C46.84 31.94 47.62 31.04 47.62 29.92C47.62 29.36 47.42 28.86 47.1 28.5C47.02 28.38 46.92 28.3 46.82 28.22H48.6C48.74 28.46 48.84 28.72 48.9 28.98C48.94 29.1 48.98 29.24 49 29.36C49.02 29.54 49.04 29.72 49.04 29.92Z" fill="#2D557F"/>
  <path d="M26.0801 29.92C26.0801 31.82 24.6601 33.34 22.9201 33.34H22.3201V79H20.9201V33.34H10.2201V78.98H8.82006V33.34H8.22006C6.48006 33.34 5.06006 31.82 5.06006 29.92C5.06006 29.56 5.12006 29.22 5.22006 28.9C5.26006 28.76 5.30006 28.64 5.34006 28.52C5.40006 28.4 5.44006 28.28 5.54006 28.16C6.06006 28.18 6.64006 28.2 7.30006 28.2V28.22C7.24006 28.26 7.18006 28.3 7.12006 28.36C7.00006 28.48 6.88006 28.6 6.80006 28.76C6.76006 28.8 6.72006 28.86 6.70006 28.92C6.68006 28.94 6.68006 28.96 6.66006 29C6.62006 29.1 6.56006 29.22 6.54006 29.34C6.48006 29.52 6.46006 29.72 6.46006 29.92C6.46006 31.04 7.26006 31.94 8.22006 31.94H22.9201C23.9001 31.94 24.6801 31.04 24.6801 29.92C24.6801 29.22 24.3601 28.58 23.8601 28.22H25.6401C25.7801 28.46 25.8801 28.72 25.9401 28.98C25.9801 29.12 26.0201 29.26 26.0401 29.4C26.0601 29.56 26.0801 29.74 26.0801 29.92Z" fill="#2D557F"/>
  <path d="M32.66 86.26C32.74 86.18 32.8 86.08 32.82 85.98L34.1 80.96L32.66 86.26Z" fill="#4279B6"/>
  <path d="M97.02 78.98H89.76L79.08 79H77.66L68.22 79.02H31.76L22.32 79H20.92L10.22 78.98H2.96C1.32 78.98 0 80.3 0 81.94V85.82C0 86.2 0.32 86.52 0.7 86.52H31.12L30.88 87.44C30.82 87.64 30.86 87.88 31 88.04C31.14 88.22 31.34 88.32 31.56 88.32H68.42C68.64 88.32 68.86 88.22 68.98 88.04C69.12 87.88 69.16 87.64 69.1 87.44L68.86 86.52H99.3C99.68 86.52 100 86.2 100 85.82V81.94C100 80.3 98.66 78.98 97.02 78.98ZM1.4 85.1V81.94C1.4 81.08 2.1 80.38 2.96 80.38H8.86L22.28 80.4L31.8 80.42H32.78L32.64 80.96L31.58 85.1H1.4ZM32.48 86.92L32.66 86.26L34.1 80.96L34.24 80.44H65.76L65.9 80.96L67.26 86L67.5 86.92H32.48ZM98.58 85.1H68.48L67.36 80.96L67.22 80.42H68.18L77.7 80.4L91.14 80.38H97.04C97.88 80.38 98.58 81.08 98.58 81.94V85.1Z" fill="#4279B6"/>
  <path d="M31.52 85.1H31.58L32.64 80.96L31.52 85.1Z" fill="#4279B6"/>
  <path d="M94.28 27.86C94.34 27.96 94.4 28.06 94.44 28.16H94.46C94.42 28.06 94.36 27.96 94.28 27.86Z" fill="#4279B6"/>
  <path d="M93.82 23.2L55.7 11.72C52.56 10.76 47.44 10.76 44.3 11.72L6.17996 23.2C1.51996 24.6 1.01996 25.62 1.13996 26.44C1.23996 27.18 1.89996 27.92 5.53996 28.16C6.05996 28.18 6.63996 28.2 7.29996 28.2C7.53996 28.22 7.79996 28.22 8.07996 28.22H91.9C92.18 28.22 92.44 28.22 92.7 28.2C93.34 28.2 93.92 28.18 94.44 28.16C94.4 28.06 94.34 27.96 94.28 27.86C94.36 27.96 94.42 28.06 94.46 28.16C98.08 27.92 98.74 27.18 98.86 26.44C98.98 25.62 98.46 24.6 93.82 23.2ZM93.08 26.8C92.72 26.82 92.32 26.82 91.9 26.82H8.07996C7.65996 26.82 7.27996 26.82 6.91996 26.8C4.05996 26.72 3.01996 26.38 2.65996 26.22C2.93996 25.96 3.85996 25.36 6.57996 24.54L44.7 13.06C47.62 12.18 52.36 12.18 55.28 13.06L93.4 24.54C96.14 25.36 97.04 25.96 97.34 26.22C96.98 26.38 95.94 26.72 93.08 26.8Z" fill="#4279B6"/>
</svg>
