<svg xmlns="http://www.w3.org/2000/svg" width="100" height="100" viewBox="0 0 100 100" fill="none">
  <path d="M7.73996 23.8H87.91C95.2 23.8 95.93 22.24 89.54 20.31L53.08 9.33004C50.18 8.45004 45.47 8.45004 42.56 9.33004L6.10996 20.31C-0.28004 22.24 0.44996 23.8 7.73996 23.8Z" fill="#4279B6"/>
  <path d="M87.91 24.4701H7.73997C2.10997 24.4701 1.21997 23.6101 1.08997 22.7601C0.979972 21.9801 1.45997 21.0101 5.90997 19.6601L42.37 8.68006C45.38 7.77006 50.27 7.77006 53.27 8.68006L89.73 19.6601C94.18 21.0001 94.67 21.9801 94.55 22.7601C94.43 23.6001 93.54 24.4701 87.9 24.4701H87.91ZM2.53997 22.5501C2.91997 22.7401 4.14997 23.1201 7.73997 23.1201H87.91C91.5 23.1201 92.73 22.7301 93.11 22.5501C92.83 22.3001 91.96 21.7401 89.35 20.9501L52.89 9.97006C50.1 9.13006 45.56 9.13006 42.76 9.97006L6.29997 20.9501C3.67997 21.7401 2.80997 22.3001 2.53997 22.5501Z" fill="#0E1721"/>
  <path d="M0.669983 76.1501V79.8501H30.73L32.23 74.0301L2.83998 73.9901C1.63998 73.9901 0.679983 74.9601 0.679983 76.1501H0.669983Z" fill="#FCCD2A"/>
  <path d="M30.73 80.5201H0.67C0.3 80.5201 0 80.2201 0 79.8501V76.1501C0 74.5901 1.27 73.3101 2.84 73.3101L32.23 73.3501C32.44 73.3501 32.63 73.4501 32.76 73.6101C32.89 73.7701 32.93 73.9901 32.88 74.1901L31.38 80.0101C31.3 80.3101 31.04 80.5201 30.73 80.5201ZM1.35 79.1801H30.22L31.37 74.7101L2.84 74.6701C2.02 74.6701 1.35 75.3401 1.35 76.1601V79.1801Z" fill="#0E1721"/>
  <path d="M92.81 73.9901L63.41 74.0301L64.98 79.8501H94.97V76.1501C94.97 74.9601 94 73.9901 92.81 73.9901Z" fill="#FCCD2A"/>
  <path d="M94.97 80.5201H64.98C64.68 80.5201 64.41 80.3201 64.33 80.0201L62.76 74.2001C62.71 74.0001 62.75 73.7801 62.88 73.6201C63.01 73.4601 63.2 73.3601 63.41 73.3601L92.81 73.3201C94.37 73.3201 95.65 74.5901 95.65 76.1601V79.8601C95.65 80.2301 95.35 80.5301 94.98 80.5301L94.97 80.5201ZM65.5 79.1801H94.3V76.1601C94.3 75.3401 93.63 74.6701 92.81 74.6701L64.29 74.7101L65.5 79.1801Z" fill="#0E1721"/>
  <path d="M68.18 26.4002C68.18 24.9602 67.13 23.8002 65.84 23.8002H51.77C50.47 23.8002 49.42 24.9602 49.42 26.4002C49.42 27.8402 50.47 29.0002 51.77 29.0002H53.02V73.9902H64.59V29.0002H65.84C67.13 29.0002 68.18 27.8402 68.18 26.4002Z" fill="#4279B6"/>
  <path d="M64.58 74.6601H53.01C52.64 74.6601 52.34 74.3601 52.34 73.9901V29.6701H51.76C50.09 29.6701 48.74 28.2001 48.74 26.3901C48.74 24.5801 50.1 23.1201 51.76 23.1201H65.83C67.49 23.1201 68.85 24.5901 68.85 26.3901C68.85 28.1901 67.5 29.6701 65.83 29.6701H65.25V73.9901C65.25 74.3601 64.95 74.6601 64.58 74.6601ZM53.69 73.3201H63.91V29.0001C63.91 28.6301 64.21 28.3301 64.58 28.3301H65.83C66.75 28.3301 67.5 27.4701 67.5 26.4001C67.5 25.3301 66.75 24.4701 65.83 24.4701H51.76C50.84 24.4701 50.09 25.3301 50.09 26.4001C50.09 27.4701 50.84 28.3301 51.76 28.3301H53.01C53.38 28.3301 53.68 28.6301 53.68 29.0001V73.3201H53.69Z" fill="#0E1721"/>
  <path d="M32.23 74.0302L30.19 81.5802H65.45L63.41 74.0302H32.23Z" fill="#4279B6"/>
  <path d="M65.45 82.2601H30.19C29.98 82.2601 29.78 82.1601 29.66 82.0001C29.54 81.8401 29.49 81.6201 29.54 81.4101L31.58 73.8601C31.66 73.5701 31.93 73.3601 32.23 73.3601H63.41C63.71 73.3601 63.98 73.5601 64.06 73.8601L66.1 81.4101C66.15 81.6101 66.11 81.8301 65.98 82.0001C65.85 82.1701 65.65 82.2601 65.45 82.2601ZM31.07 80.9101H64.57L62.89 74.7101H32.74L31.06 80.9101H31.07Z" fill="#0E1721"/>
  <path d="M68.18 26.4002C68.18 27.8402 67.13 29.0002 65.84 29.0002H51.77C50.47 29.0002 49.42 27.8402 49.42 26.4002C49.42 24.9602 50.47 23.8002 51.77 23.8002H65.84C67.13 23.8002 68.18 24.9602 68.18 26.4002Z" fill="#FCCD2A"/>
  <path d="M65.83 29.6701H51.76C50.09 29.6701 48.74 28.2001 48.74 26.3901C48.74 24.5801 50.09 23.1201 51.76 23.1201H65.83C67.49 23.1201 68.85 24.5901 68.85 26.3901C68.85 28.1901 67.5 29.6701 65.83 29.6701ZM51.76 24.4701C50.84 24.4701 50.09 25.3301 50.09 26.4001C50.09 27.4701 50.84 28.3301 51.76 28.3301H65.83C66.75 28.3301 67.5 27.4601 67.5 26.4001C67.5 25.3401 66.75 24.4701 65.83 24.4701H51.76Z" fill="#0E1721"/>
  <path d="M64.58 74.6601H53.01C52.64 74.6601 52.34 74.3601 52.34 73.9901V29.6701H51.76C50.09 29.6701 48.74 28.2001 48.74 26.3901C48.74 24.5801 50.1 23.1201 51.76 23.1201H65.83C67.49 23.1201 68.85 24.5901 68.85 26.3901C68.85 28.1901 67.5 29.6701 65.83 29.6701H65.25V73.9901C65.25 74.3601 64.95 74.6601 64.58 74.6601ZM53.69 73.3201H63.91V29.0001C63.91 28.6301 64.21 28.3301 64.58 28.3301H65.83C66.75 28.3301 67.5 27.4701 67.5 26.4001C67.5 25.3301 66.75 24.4701 65.83 24.4701H51.76C50.84 24.4701 50.09 25.3301 50.09 26.4001C50.09 27.4701 50.84 28.3301 51.76 28.3301H53.01C53.38 28.3301 53.68 28.6301 53.68 29.0001V73.3201H53.69Z" fill="#0E1721"/>
  <path d="M90.13 26.4002C90.13 24.9602 89.08 23.8002 87.79 23.8002H73.72C72.42 23.8002 71.37 24.9602 71.37 26.4002C71.37 27.8402 72.42 29.0002 73.72 29.0002H74.97V73.9902H86.54V29.0002H87.79C89.08 29.0002 90.13 27.8402 90.13 26.4002Z" fill="#4279B6"/>
  <path d="M86.53 74.6601H74.96C74.59 74.6601 74.29 74.3601 74.29 73.9901V29.6701H73.71C72.04 29.6701 70.69 28.2001 70.69 26.3901C70.69 24.5801 72.05 23.1201 73.71 23.1201H87.78C89.44 23.1201 90.8 24.5901 90.8 26.3901C90.8 28.1901 89.45 29.6701 87.78 29.6701H87.2V73.9901C87.2 74.3601 86.9 74.6601 86.53 74.6601ZM75.64 73.3201H85.86V29.0001C85.86 28.6301 86.16 28.3301 86.53 28.3301H87.78C88.7 28.3301 89.45 27.4701 89.45 26.4001C89.45 25.3301 88.7 24.4701 87.78 24.4701H73.71C72.79 24.4701 72.04 25.3301 72.04 26.4001C72.04 27.4701 72.79 28.3301 73.71 28.3301H74.96C75.33 28.3301 75.63 28.6301 75.63 29.0001V73.3201H75.64Z" fill="#0E1721"/>
  <path d="M90.13 26.4002C90.13 27.8402 89.08 29.0002 87.79 29.0002H73.72C72.42 29.0002 71.37 27.8402 71.37 26.4002C71.37 24.9602 72.42 23.8002 73.72 23.8002H87.79C89.08 23.8002 90.13 24.9602 90.13 26.4002Z" fill="#FCCD2A"/>
  <path d="M87.79 29.6701H73.72C72.05 29.6701 70.7 28.2001 70.7 26.3901C70.7 24.5801 72.05 23.1201 73.72 23.1201H87.79C89.45 23.1201 90.81 24.5901 90.81 26.3901C90.81 28.1901 89.46 29.6701 87.79 29.6701ZM73.71 24.4701C72.79 24.4701 72.04 25.3301 72.04 26.4001C72.04 27.4701 72.79 28.3301 73.71 28.3301H87.78C88.7 28.3301 89.45 27.4601 89.45 26.4001C89.45 25.3401 88.7 24.4701 87.78 24.4701H73.71Z" fill="#0E1721"/>
  <path d="M86.53 74.6601H74.96C74.59 74.6601 74.29 74.3601 74.29 73.9901V29.6701H73.71C72.04 29.6701 70.69 28.2001 70.69 26.3901C70.69 24.5801 72.05 23.1201 73.71 23.1201H87.78C89.44 23.1201 90.8 24.5901 90.8 26.3901C90.8 28.1901 89.45 29.6701 87.78 29.6701H87.2V73.9901C87.2 74.3601 86.9 74.6601 86.53 74.6601ZM75.64 73.3201H85.86V29.0001C85.86 28.6301 86.16 28.3301 86.53 28.3301H87.78C88.7 28.3301 89.45 27.4701 89.45 26.4001C89.45 25.3301 88.7 24.4701 87.78 24.4701H73.71C72.79 24.4701 72.04 25.3301 72.04 26.4001C72.04 27.4701 72.79 28.3301 73.71 28.3301H74.96C75.33 28.3301 75.63 28.6301 75.63 29.0001V73.3201H75.64Z" fill="#0E1721"/>
  <path d="M46.23 26.4002C46.23 24.9602 45.18 23.8002 43.89 23.8002H29.82C28.52 23.8002 27.47 24.9602 27.47 26.4002C27.47 27.8402 28.52 29.0002 29.82 29.0002H31.07V73.9902H42.64V29.0002H43.89C45.18 29.0002 46.23 27.8402 46.23 26.4002Z" fill="#4279B6"/>
  <path d="M42.63 74.6601H31.06C30.69 74.6601 30.39 74.3601 30.39 73.9901V29.6701H29.81C28.14 29.6701 26.79 28.2001 26.79 26.3901C26.79 24.5801 28.15 23.1201 29.81 23.1201H43.88C45.54 23.1201 46.9 24.5901 46.9 26.3901C46.9 28.1901 45.55 29.6701 43.88 29.6701H43.3V73.9901C43.3 74.3601 43 74.6601 42.63 74.6601ZM31.74 73.3201H41.96V29.0001C41.96 28.6301 42.26 28.3301 42.63 28.3301H43.88C44.8 28.3301 45.55 27.4701 45.55 26.4001C45.55 25.3301 44.8 24.4701 43.88 24.4701H29.81C28.89 24.4701 28.14 25.3301 28.14 26.4001C28.14 27.4701 28.89 28.3301 29.81 28.3301H31.06C31.43 28.3301 31.73 28.6301 31.73 29.0001V73.3201H31.74Z" fill="#0E1721"/>
  <path d="M46.23 26.4002C46.23 27.8402 45.18 29.0002 43.89 29.0002H29.82C28.52 29.0002 27.47 27.8402 27.47 26.4002C27.47 24.9602 28.52 23.8002 29.82 23.8002H43.89C45.18 23.8002 46.23 24.9602 46.23 26.4002Z" fill="#FCCD2A"/>
  <path d="M43.88 29.6701H29.81C28.14 29.6701 26.79 28.2001 26.79 26.3901C26.79 24.5801 28.14 23.1201 29.81 23.1201H43.88C45.54 23.1201 46.9 24.5901 46.9 26.3901C46.9 28.1901 45.55 29.6701 43.88 29.6701ZM29.81 24.4701C28.89 24.4701 28.14 25.3301 28.14 26.4001C28.14 27.4701 28.89 28.3301 29.81 28.3301H43.88C44.8 28.3301 45.55 27.4601 45.55 26.4001C45.55 25.3401 44.8 24.4701 43.88 24.4701H29.81Z" fill="#0E1721"/>
  <path d="M42.63 74.6601H31.06C30.69 74.6601 30.39 74.3601 30.39 73.9901V29.6701H29.81C28.14 29.6701 26.79 28.2001 26.79 26.3901C26.79 24.5801 28.15 23.1201 29.81 23.1201H43.88C45.54 23.1201 46.9 24.5901 46.9 26.3901C46.9 28.1901 45.55 29.6701 43.88 29.6701H43.3V73.9901C43.3 74.3601 43 74.6601 42.63 74.6601ZM31.74 73.3201H41.96V29.0001C41.96 28.6301 42.26 28.3301 42.63 28.3301H43.88C44.8 28.3301 45.55 27.4701 45.55 26.4001C45.55 25.3301 44.8 24.4701 43.88 24.4701H29.81C28.89 24.4701 28.14 25.3301 28.14 26.4001C28.14 27.4701 28.89 28.3301 29.81 28.3301H31.06C31.43 28.3301 31.73 28.6301 31.73 29.0001V73.3201H31.74Z" fill="#0E1721"/>
  <path d="M24.28 26.4002C24.28 24.9602 23.23 23.8002 21.94 23.8002H7.86001C6.56001 23.8002 5.51001 24.9602 5.51001 26.4002C5.51001 27.8402 6.56001 29.0002 7.86001 29.0002H9.11001V73.9902H20.68V29.0002H21.93C23.22 29.0002 24.27 27.8402 24.27 26.4002H24.28Z" fill="#4279B6"/>
  <path d="M20.68 74.6601H9.11003C8.74003 74.6601 8.44003 74.3601 8.44003 73.9901V29.6701H7.86003C6.19003 29.6701 4.84003 28.2001 4.84003 26.3901C4.84003 24.5801 6.20003 23.1201 7.86003 23.1201H21.93C23.59 23.1201 24.95 24.5901 24.95 26.3901C24.95 28.1901 23.6 29.6701 21.93 29.6701H21.35V73.9901C21.35 74.3601 21.05 74.6601 20.68 74.6601ZM9.79003 73.3201H20.01V29.0001C20.01 28.6301 20.31 28.3301 20.68 28.3301H21.93C22.85 28.3301 23.6 27.4701 23.6 26.4001C23.6 25.3301 22.85 24.4701 21.93 24.4701H7.86003C6.94003 24.4701 6.19003 25.3301 6.19003 26.4001C6.19003 27.4701 6.94003 28.3301 7.86003 28.3301H9.11003C9.48003 28.3301 9.78003 28.6301 9.78003 29.0001V73.3201H9.79003Z" fill="#0E1721"/>
  <path d="M24.28 26.4002C24.28 27.8402 23.23 29.0002 21.94 29.0002H7.86001C6.56001 29.0002 5.51001 27.8402 5.51001 26.4002C5.51001 24.9602 6.56001 23.8002 7.86001 23.8002H21.93C23.22 23.8002 24.27 24.9602 24.27 26.4002H24.28Z" fill="#FCCD2A"/>
  <path d="M21.94 29.6701H7.86003C6.19003 29.6701 4.84003 28.2001 4.84003 26.3901C4.84003 24.5801 6.19003 23.1201 7.86003 23.1201H21.93C23.59 23.1201 24.95 24.5901 24.95 26.3901C24.95 28.1901 23.6 29.6701 21.93 29.6701H21.94ZM7.86003 24.4701C6.94003 24.4701 6.19003 25.3301 6.19003 26.4001C6.19003 27.4701 6.94003 28.3301 7.86003 28.3301H21.93C22.85 28.3301 23.6 27.4601 23.6 26.4001C23.6 25.3401 22.85 24.4701 21.93 24.4701H7.86003Z" fill="#0E1721"/>
  <path d="M20.68 74.6601H9.11003C8.74003 74.6601 8.44003 74.3601 8.44003 73.9901V29.6701H7.86003C6.19003 29.6701 4.84003 28.2001 4.84003 26.3901C4.84003 24.5801 6.20003 23.1201 7.86003 23.1201H21.93C23.59 23.1201 24.95 24.5901 24.95 26.3901C24.95 28.1901 23.6 29.6701 21.93 29.6701H21.35V73.9901C21.35 74.3601 21.05 74.6601 20.68 74.6601ZM9.79003 73.3201H20.01V29.0001C20.01 28.6301 20.31 28.3301 20.68 28.3301H21.93C22.85 28.3301 23.6 27.4701 23.6 26.4001C23.6 25.3301 22.85 24.4701 21.93 24.4701H7.86003C6.94003 24.4701 6.19003 25.3301 6.19003 26.4001C6.19003 27.4701 6.94003 28.3301 7.86003 28.3301H9.11003C9.48003 28.3301 9.78003 28.6301 9.78003 29.0001V73.3201H9.79003Z" fill="#0E1721"/>
  <path d="M81.69 91.6301C91.4323 91.6301 99.33 83.7324 99.33 73.9901C99.33 64.2478 91.4323 56.3501 81.69 56.3501C71.9477 56.3501 64.05 64.2478 64.05 73.9901C64.05 83.7324 71.9477 91.6301 81.69 91.6301Z" fill="#FC8B27"/>
  <path d="M81.69 92.3001C71.59 92.3001 63.38 84.0801 63.38 73.9901C63.38 63.9001 71.6 55.6801 81.69 55.6801C91.78 55.6801 100 63.9001 100 73.9901C100 84.0801 91.78 92.3001 81.69 92.3001ZM81.69 57.0201C72.33 57.0201 64.72 64.6301 64.72 73.9901C64.72 83.3501 72.33 90.9601 81.69 90.9601C91.05 90.9601 98.66 83.3501 98.66 73.9901C98.66 64.6301 91.05 57.0201 81.69 57.0201Z" fill="#0E1721"/>
  <path d="M81.69 68.7601C82.68 65.9101 83.65 64.7401 86.49 64.7401C88.57 64.7401 90.26 65.8301 91.39 67.2501C93.72 70.1901 92.98 74.3401 90.21 76.8101C88.36 78.4601 81.69 84.4501 81.69 84.4501C81.69 84.4501 75.62 79.0001 73.17 76.8101C70.4 74.3301 69.66 70.1901 71.99 67.2501C73.12 65.8301 74.81 64.7401 76.89 64.7401C79.72 64.7401 80.7 65.9001 81.69 68.7601Z" fill="white"/>
  <path d="M81.69 85.1301C81.53 85.1301 81.37 85.0701 81.24 84.9601C81.24 84.9601 75.17 79.5101 72.73 77.3201C69.54 74.4701 69 69.9601 71.47 66.8401C72.88 65.0501 74.81 64.0701 76.89 64.0701C79.52 64.0701 80.77 65.0401 81.69 66.9501C82.61 65.0401 83.85 64.0701 86.49 64.0701C88.57 64.0701 90.5 65.0501 91.91 66.8401C94.39 69.9601 93.85 74.4701 90.65 77.3201C88.8 78.9701 82.14 84.9601 82.14 84.9601C82.01 85.0701 81.85 85.1301 81.69 85.1301ZM76.89 65.4201C74.65 65.4201 73.19 66.8401 72.52 67.6801C70.5 70.2401 70.97 73.9501 73.62 76.3201C75.66 78.1501 80.24 82.2501 81.69 83.5601C83.22 82.1901 88.2 77.7101 89.76 76.3201C92.41 73.9501 92.88 70.2401 90.86 67.6801C90.19 66.8401 88.74 65.4201 86.49 65.4201C84.17 65.4201 83.31 66.1501 82.33 68.9801C82.24 69.2501 81.98 69.4301 81.69 69.4301C81.4 69.4301 81.15 69.2501 81.05 68.9801C80.07 66.1501 79.22 65.4201 76.89 65.4201Z" fill="#0E1721"/>
</svg>
