<svg xmlns="http://www.w3.org/2000/svg" width="100" height="100" viewBox="0 0 100 100" fill="none">
  <path d="M8.09002 27.51H91.91C99.53 27.51 100.3 25.88 93.62 23.86L55.5 12.39C52.47 11.48 47.54 11.48 44.51 12.39L6.39002 23.87C-0.289981 25.88 0.470019 27.52 8.09002 27.52V27.51Z" fill="#4279B6"/>
  <path d="M91.91 28.22H8.09004C2.20004 28.22 1.27004 27.32 1.14004 26.43C1.02004 25.62 1.53004 24.6 6.18004 23.19L44.3 11.71C47.44 10.76 52.56 10.76 55.7 11.71L93.82 23.19C98.48 24.59 98.98 25.61 98.86 26.43C98.73 27.31 97.8 28.22 91.91 28.22ZM2.66004 26.21C3.06004 26.4 4.34004 26.81 8.10004 26.81H91.92C95.67 26.81 96.96 26.41 97.36 26.21C97.07 25.95 96.16 25.36 93.42 24.54L55.29 13.06C52.37 12.18 47.62 12.18 44.7 13.06L6.59004 24.54C3.86004 25.36 2.95004 25.95 2.65004 26.21H2.66004Z" fill="#0E1721"/>
  <path d="M0.699951 82.26V86.12H32.13L33.7 80.04L2.96995 80C1.71995 80 0.709951 81.02 0.709951 82.26H0.699951Z" fill="#FCCD2A"/>
  <path d="M32.13 86.83H0.7C0.31 86.83 0 86.51 0 86.13V82.27C0 80.63 1.33 79.3 2.97 79.3L33.7 79.34C33.92 79.34 34.12 79.44 34.26 79.61C34.39 79.78 34.44 80.01 34.39 80.22L32.82 86.3C32.74 86.61 32.46 86.83 32.14 86.83H32.13ZM1.41 85.42H31.59L32.79 80.74L2.97 80.7C2.11 80.7 1.41 81.4 1.41 82.26V85.42Z" fill="#0E1721"/>
  <path d="M97.03 79.99L66.29 80.03L67.93 86.11H99.29V82.25C99.29 81 98.28 79.99 97.03 79.99Z" fill="#FCCD2A"/>
  <path d="M99.3 86.83H67.94C67.62 86.83 67.34 86.62 67.26 86.31L65.62 80.23C65.56 80.02 65.61 79.79 65.74 79.62C65.87 79.45 66.08 79.34 66.3 79.34L97.04 79.3C98.68 79.3 100.01 80.63 100.01 82.27V86.13C100.01 86.52 99.69 86.83 99.31 86.83H99.3ZM68.48 85.42H98.59V82.26C98.59 81.4 97.89 80.7 97.03 80.7L67.21 80.74L68.47 85.42H68.48Z" fill="#0E1721"/>
  <path d="M71.2799 30.23C71.2799 28.73 70.1799 27.51 68.8299 27.51H54.1199C52.7699 27.51 51.6699 28.73 51.6699 30.23C51.6699 31.73 52.7699 32.95 54.1199 32.95H55.4299V79.99H67.5299V32.95H68.8399C70.1899 32.95 71.2899 31.73 71.2899 30.23H71.2799Z" fill="#4279B6"/>
  <path d="M67.52 80.7H55.42C55.03 80.7 54.72 80.38 54.72 80V33.66H54.12C52.38 33.66 50.96 32.12 50.96 30.24C50.96 28.36 52.38 26.82 54.12 26.82H68.83C70.57 26.82 71.98 28.36 71.98 30.24C71.98 32.12 70.57 33.66 68.83 33.66H68.22V80C68.22 80.39 67.9 80.7 67.52 80.7ZM56.13 79.29H66.82V32.95C66.82 32.56 67.14 32.25 67.52 32.25H68.83C69.79 32.25 70.58 31.35 70.58 30.23C70.58 29.11 69.8 28.22 68.83 28.22H54.12C53.16 28.22 52.37 29.12 52.37 30.23C52.37 31.34 53.15 32.25 54.12 32.25H55.43C55.82 32.25 56.13 32.57 56.13 32.95V79.29Z" fill="#0E1721"/>
  <path d="M33.7001 80.04L31.5601 87.93H68.4301L66.3001 80.04H33.7001Z" fill="#4279B6"/>
  <path d="M68.43 88.64H31.56C31.34 88.64 31.13 88.54 31 88.36C30.87 88.18 30.82 87.96 30.88 87.75L33.0201 79.86C33.1001 79.55 33.3801 79.34 33.7001 79.34H66.3001C66.6201 79.34 66.9001 79.55 66.9801 79.86L69.1101 87.75C69.1701 87.96 69.12 88.19 68.99 88.36C68.86 88.53 68.6501 88.64 68.43 88.64ZM32.48 87.23H67.5101L65.7601 80.74H34.2401L32.4901 87.23H32.48Z" fill="#0E1721"/>
  <path d="M71.2799 30.23C71.2799 31.73 70.1799 32.95 68.8299 32.95H54.1199C52.7699 32.95 51.6699 31.73 51.6699 30.23C51.6699 28.73 52.7699 27.51 54.1199 27.51H68.8299C70.1799 27.51 71.2799 28.73 71.2799 30.23Z" fill="#FCCD2A"/>
  <path d="M68.83 33.66H54.12C52.38 33.66 50.96 32.12 50.96 30.23C50.96 28.34 52.38 26.81 54.12 26.81H68.83C70.57 26.81 71.98 28.35 71.98 30.23C71.98 32.11 70.56 33.66 68.83 33.66ZM54.12 28.22C53.16 28.22 52.37 29.12 52.37 30.23C52.37 31.34 53.15 32.25 54.12 32.25H68.83C69.79 32.25 70.58 31.35 70.58 30.23C70.58 29.11 69.8 28.22 68.83 28.22H54.12Z" fill="#0E1721"/>
  <path d="M67.52 80.7H55.42C55.03 80.7 54.72 80.38 54.72 80V33.66H54.12C52.38 33.66 50.96 32.12 50.96 30.24C50.96 28.36 52.38 26.82 54.12 26.82H68.83C70.57 26.82 71.98 28.36 71.98 30.24C71.98 32.12 70.57 33.66 68.83 33.66H68.22V80C68.22 80.39 67.9 80.7 67.52 80.7ZM56.13 79.29H66.82V32.95C66.82 32.56 67.14 32.25 67.52 32.25H68.83C69.79 32.25 70.58 31.35 70.58 30.23C70.58 29.11 69.8 28.22 68.83 28.22H54.12C53.16 28.22 52.37 29.12 52.37 30.23C52.37 31.34 53.15 32.25 54.12 32.25H55.43C55.82 32.25 56.13 32.57 56.13 32.95V79.29Z" fill="#0E1721"/>
  <path d="M94.23 30.23C94.23 28.73 93.13 27.51 91.78 27.51H77.07C75.72 27.51 74.62 28.73 74.62 30.23C74.62 31.73 75.72 32.95 77.07 32.95H78.38V79.99H90.48V32.95H91.79C93.14 32.95 94.24 31.73 94.24 30.23H94.23Z" fill="#4279B6"/>
  <path d="M90.47 80.7H78.37C77.98 80.7 77.67 80.38 77.67 80V33.66H77.07C75.33 33.66 73.91 32.12 73.91 30.24C73.91 28.36 75.33 26.82 77.07 26.82H91.78C93.52 26.82 94.93 28.36 94.93 30.24C94.93 32.12 93.52 33.66 91.78 33.66H91.17V80C91.17 80.39 90.85 80.7 90.47 80.7ZM79.08 79.29H89.77V32.95C89.77 32.56 90.09 32.25 90.47 32.25H91.78C92.74 32.25 93.53 31.35 93.53 30.23C93.53 29.11 92.75 28.22 91.78 28.22H77.07C76.11 28.22 75.32 29.12 75.32 30.23C75.32 31.34 76.1 32.25 77.07 32.25H78.38C78.77 32.25 79.08 32.57 79.08 32.95V79.29Z" fill="#0E1721"/>
  <path d="M94.23 30.23C94.23 31.73 93.13 32.95 91.78 32.95H77.07C75.72 32.95 74.62 31.73 74.62 30.23C74.62 28.73 75.72 27.51 77.07 27.51H91.78C93.13 27.51 94.23 28.73 94.23 30.23Z" fill="#FCCD2A"/>
  <path d="M91.78 33.66H77.07C75.33 33.66 73.91 32.12 73.91 30.23C73.91 28.34 75.33 26.81 77.07 26.81H91.78C93.52 26.81 94.93 28.35 94.93 30.23C94.93 32.11 93.51 33.66 91.78 33.66ZM77.07 28.22C76.11 28.22 75.32 29.12 75.32 30.23C75.32 31.34 76.1 32.25 77.07 32.25H91.78C92.74 32.25 93.53 31.35 93.53 30.23C93.53 29.11 92.75 28.22 91.78 28.22H77.07Z" fill="#0E1721"/>
  <path d="M90.47 80.7H78.37C77.98 80.7 77.67 80.38 77.67 80V33.66H77.07C75.33 33.66 73.91 32.12 73.91 30.24C73.91 28.36 75.33 26.82 77.07 26.82H91.78C93.52 26.82 94.93 28.36 94.93 30.24C94.93 32.12 93.52 33.66 91.78 33.66H91.17V80C91.17 80.39 90.85 80.7 90.47 80.7ZM79.08 79.29H89.77V32.95C89.77 32.56 90.09 32.25 90.47 32.25H91.78C92.74 32.25 93.53 31.35 93.53 30.23C93.53 29.11 92.75 28.22 91.78 28.22H77.07C76.11 28.22 75.32 29.12 75.32 30.23C75.32 31.34 76.1 32.25 77.07 32.25H78.38C78.77 32.25 79.08 32.57 79.08 32.95V79.29Z" fill="#0E1721"/>
  <path d="M48.33 30.23C48.33 28.73 47.23 27.51 45.88 27.51H31.17C29.82 27.51 28.72 28.73 28.72 30.23C28.72 31.73 29.82 32.95 31.17 32.95H32.48V79.99H44.58V32.95H45.89C47.24 32.95 48.34 31.73 48.34 30.23H48.33Z" fill="#4279B6"/>
  <path d="M44.57 80.7H32.47C32.08 80.7 31.77 80.38 31.77 80V33.66H31.17C29.43 33.66 28.01 32.12 28.01 30.24C28.01 28.36 29.43 26.82 31.17 26.82H45.88C47.62 26.82 49.03 28.36 49.03 30.24C49.03 32.12 47.62 33.66 45.88 33.66H45.27V80C45.27 80.39 44.95 80.7 44.57 80.7ZM33.18 79.29H43.87V32.95C43.87 32.56 44.19 32.25 44.57 32.25H45.88C46.84 32.25 47.63 31.35 47.63 30.23C47.63 29.11 46.85 28.22 45.88 28.22H31.17C30.21 28.22 29.42 29.12 29.42 30.23C29.42 31.34 30.2 32.25 31.17 32.25H32.48C32.87 32.25 33.18 32.57 33.18 32.95V79.29Z" fill="#0E1721"/>
  <path d="M48.33 30.23C48.33 31.73 47.23 32.95 45.88 32.95H31.17C29.82 32.95 28.72 31.73 28.72 30.23C28.72 28.73 29.82 27.51 31.17 27.51H45.88C47.23 27.51 48.33 28.73 48.33 30.23Z" fill="#FCCD2A"/>
  <path d="M45.88 33.66H31.17C29.43 33.66 28.01 32.12 28.01 30.23C28.01 28.34 29.43 26.81 31.17 26.81H45.88C47.62 26.81 49.03 28.35 49.03 30.23C49.03 32.11 47.61 33.66 45.88 33.66ZM31.17 28.22C30.21 28.22 29.42 29.12 29.42 30.23C29.42 31.34 30.2 32.25 31.17 32.25H45.88C46.84 32.25 47.63 31.35 47.63 30.23C47.63 29.11 46.85 28.22 45.88 28.22H31.17Z" fill="#0E1721"/>
  <path d="M44.57 80.7H32.47C32.08 80.7 31.77 80.38 31.77 80V33.66H31.17C29.43 33.66 28.01 32.12 28.01 30.24C28.01 28.36 29.43 26.82 31.17 26.82H45.88C47.62 26.82 49.03 28.36 49.03 30.24C49.03 32.12 47.62 33.66 45.88 33.66H45.27V80C45.27 80.39 44.95 80.7 44.57 80.7ZM33.18 79.29H43.87V32.95C43.87 32.56 44.19 32.25 44.57 32.25H45.88C46.84 32.25 47.63 31.35 47.63 30.23C47.63 29.11 46.85 28.22 45.88 28.22H31.17C30.21 28.22 29.42 29.12 29.42 30.23C29.42 31.34 30.2 32.25 31.17 32.25H32.48C32.87 32.25 33.18 32.57 33.18 32.95V79.29Z" fill="#0E1721"/>
  <path d="M25.38 30.23C25.38 28.73 24.28 27.51 22.93 27.51H8.22002C6.87002 27.51 5.77002 28.73 5.77002 30.23C5.77002 31.73 6.87002 32.95 8.22002 32.95H9.53002V79.99H21.63V32.95H22.94C24.29 32.95 25.39 31.73 25.39 30.23H25.38Z" fill="#4279B6"/>
  <path d="M21.6201 80.7H9.52006C9.13006 80.7 8.82006 80.38 8.82006 80V33.66H8.22006C6.48006 33.66 5.06006 32.12 5.06006 30.24C5.06006 28.36 6.48006 26.82 8.22006 26.82H22.9301C24.6701 26.82 26.0801 28.36 26.0801 30.24C26.0801 32.12 24.6701 33.66 22.9301 33.66H22.3201V80C22.3201 80.39 22.0001 80.7 21.6201 80.7ZM10.2301 79.29H20.9201V32.95C20.9201 32.56 21.2401 32.25 21.6201 32.25H22.9301C23.8901 32.25 24.6801 31.35 24.6801 30.23C24.6801 29.11 23.9001 28.22 22.9301 28.22H8.22006C7.26006 28.22 6.47006 29.12 6.47006 30.23C6.47006 31.34 7.25006 32.25 8.22006 32.25H9.53006C9.92006 32.25 10.2301 32.57 10.2301 32.95V79.29Z" fill="#0E1721"/>
  <path d="M25.38 30.23C25.38 31.73 24.28 32.95 22.93 32.95H8.22002C6.87002 32.95 5.77002 31.73 5.77002 30.23C5.77002 28.73 6.87002 27.51 8.22002 27.51H22.93C24.28 27.51 25.38 28.73 25.38 30.23Z" fill="#FCCD2A"/>
  <path d="M22.9301 33.66H8.22006C6.48006 33.66 5.06006 32.12 5.06006 30.23C5.06006 28.34 6.48006 26.81 8.22006 26.81H22.9301C24.6701 26.81 26.0801 28.35 26.0801 30.23C26.0801 32.11 24.6601 33.66 22.9301 33.66ZM8.22006 28.22C7.26006 28.22 6.47006 29.12 6.47006 30.23C6.47006 31.34 7.25006 32.25 8.22006 32.25H22.9301C23.8901 32.25 24.6801 31.35 24.6801 30.23C24.6801 29.11 23.9001 28.22 22.9301 28.22H8.22006Z" fill="#0E1721"/>
  <path d="M21.6201 80.7H9.52006C9.13006 80.7 8.82006 80.38 8.82006 80V33.66H8.22006C6.48006 33.66 5.06006 32.12 5.06006 30.24C5.06006 28.36 6.48006 26.82 8.22006 26.82H22.9301C24.6701 26.82 26.0801 28.36 26.0801 30.24C26.0801 32.12 24.6701 33.66 22.9301 33.66H22.3201V80C22.3201 80.39 22.0001 80.7 21.6201 80.7ZM10.2301 79.29H20.9201V32.95C20.9201 32.56 21.2401 32.25 21.6201 32.25H22.9301C23.8901 32.25 24.6801 31.35 24.6801 30.23C24.6801 29.11 23.9001 28.22 22.9301 28.22H8.22006C7.26006 28.22 6.47006 29.12 6.47006 30.23C6.47006 31.34 7.25006 32.25 8.22006 32.25H9.53006C9.92006 32.25 10.2301 32.57 10.2301 32.95V79.29Z" fill="#0E1721"/>
</svg>
