<svg xmlns="http://www.w3.org/2000/svg" width="100" height="100" viewBox="0 0 100 100" fill="none">
  <path d="M8.08996 22.51H91.91C99.53 22.51 100.3 20.88 93.62 18.86L55.5 7.39002C52.47 6.48002 47.54 6.48002 44.51 7.39002L6.38996 18.87C-0.290042 20.88 0.469958 22.52 8.08996 22.52V22.51Z" fill="#4279B6"/>
  <path d="M91.91 23.2201H8.08998C2.19998 23.2201 1.26998 22.3201 1.13998 21.4301C1.01998 20.6201 1.52998 19.6001 6.17998 18.1901L44.3 6.71006C47.44 5.76006 52.56 5.76006 55.7 6.71006L93.82 18.1901C98.48 19.5901 98.98 20.6101 98.86 21.4301C98.73 22.3101 97.8 23.2201 91.91 23.2201ZM2.65998 21.2101C3.05998 21.4001 4.33998 21.8101 8.09998 21.8101H91.92C95.67 21.8101 96.96 21.4101 97.36 21.2101C97.07 20.9501 96.16 20.3601 93.42 19.5401L55.29 8.06006C52.37 7.18006 47.62 7.18006 44.7 8.06006L6.58998 19.5401C3.85998 20.3601 2.94998 20.9501 2.64998 21.2101H2.65998Z" fill="#0E1721"/>
  <path d="M0.700012 77.26V81.12H32.13L33.7 75.04L2.97001 75C1.72001 75 0.710012 76.02 0.710012 77.26H0.700012Z" fill="#FCCD2A"/>
  <path d="M32.13 81.82H0.7C0.31 81.82 0 81.5 0 81.12V77.26C0 75.62 1.33 74.29 2.97 74.29L33.7 74.33C33.92 74.33 34.12 74.43 34.26 74.6C34.39 74.77 34.44 75 34.39 75.21L32.82 81.29C32.74 81.6 32.46 81.82 32.14 81.82H32.13ZM1.41 80.42H31.59L32.79 75.74L2.97 75.7C2.11 75.7 1.41 76.4 1.41 77.26V80.42Z" fill="#0E1721"/>
  <path d="M97.03 74.99L66.29 75.03L67.93 81.11H99.29V77.25C99.29 76 98.28 74.99 97.03 74.99Z" fill="#FCCD2A"/>
  <path d="M99.3 81.82H67.94C67.62 81.82 67.34 81.61 67.26 81.3L65.62 75.22C65.56 75.01 65.61 74.78 65.74 74.61C65.87 74.44 66.08 74.33 66.3 74.33L97.04 74.29C98.68 74.29 100.01 75.62 100.01 77.26V81.12C100.01 81.51 99.69 81.82 99.31 81.82H99.3ZM68.48 80.42H98.59V77.26C98.59 76.4 97.89 75.7 97.03 75.7L67.21 75.74L68.47 80.42H68.48Z" fill="#0E1721"/>
  <path d="M71.28 25.23C71.28 23.73 70.18 22.51 68.83 22.51H54.12C52.77 22.51 51.67 23.73 51.67 25.23C51.67 26.73 52.77 27.95 54.12 27.95H55.43V74.99H67.53V27.95H68.84C70.19 27.95 71.29 26.73 71.29 25.23H71.28Z" fill="#4279B6"/>
  <path d="M67.52 75.7001H55.42C55.03 75.7001 54.72 75.3801 54.72 75.0001V28.6601H54.12C52.38 28.6601 50.96 27.1201 50.96 25.2401C50.96 23.3601 52.38 21.8201 54.12 21.8201H68.83C70.57 21.8201 71.98 23.3601 71.98 25.2401C71.98 27.1201 70.57 28.6601 68.83 28.6601H68.22V75.0001C68.22 75.3901 67.9 75.7001 67.52 75.7001ZM56.13 74.2901H66.82V27.9501C66.82 27.5601 67.14 27.2501 67.52 27.2501H68.83C69.79 27.2501 70.58 26.3501 70.58 25.2301C70.58 24.1101 69.8 23.2201 68.83 23.2201H54.12C53.16 23.2201 52.37 24.1201 52.37 25.2301C52.37 26.3401 53.15 27.2501 54.12 27.2501H55.43C55.82 27.2501 56.13 27.5701 56.13 27.9501V74.2901Z" fill="#0E1721"/>
  <path d="M33.7 75.04L31.56 82.93H68.43L66.3 75.04H33.7Z" fill="#4279B6"/>
  <path d="M68.43 83.6401H31.56C31.34 83.6401 31.13 83.5401 31 83.3601C30.87 83.1801 30.82 82.9601 30.88 82.7501L33.02 74.8601C33.1 74.5501 33.38 74.3401 33.7 74.3401H66.3C66.62 74.3401 66.9 74.5501 66.98 74.8601L69.11 82.7501C69.17 82.9601 69.12 83.1901 68.99 83.3601C68.86 83.5301 68.65 83.6401 68.43 83.6401ZM32.48 82.2301H67.51L65.76 75.7401H34.24L32.49 82.2301H32.48Z" fill="#0E1721"/>
  <path d="M71.28 25.23C71.28 26.73 70.18 27.95 68.83 27.95H54.12C52.77 27.95 51.67 26.73 51.67 25.23C51.67 23.73 52.77 22.51 54.12 22.51H68.83C70.18 22.51 71.28 23.73 71.28 25.23Z" fill="#FCCD2A"/>
  <path d="M68.83 28.6601H54.12C52.38 28.6601 50.96 27.1201 50.96 25.2301C50.96 23.3401 52.38 21.8101 54.12 21.8101H68.83C70.57 21.8101 71.98 23.3501 71.98 25.2301C71.98 27.1101 70.56 28.6601 68.83 28.6601ZM54.12 23.2201C53.16 23.2201 52.37 24.1201 52.37 25.2301C52.37 26.3401 53.15 27.2501 54.12 27.2501H68.83C69.79 27.2501 70.58 26.3501 70.58 25.2301C70.58 24.1101 69.8 23.2201 68.83 23.2201H54.12Z" fill="#0E1721"/>
  <path d="M67.52 75.7001H55.42C55.03 75.7001 54.72 75.3801 54.72 75.0001V28.6601H54.12C52.38 28.6601 50.96 27.1201 50.96 25.2401C50.96 23.3601 52.38 21.8201 54.12 21.8201H68.83C70.57 21.8201 71.98 23.3601 71.98 25.2401C71.98 27.1201 70.57 28.6601 68.83 28.6601H68.22V75.0001C68.22 75.3901 67.9 75.7001 67.52 75.7001ZM56.13 74.2901H66.82V27.9501C66.82 27.5601 67.14 27.2501 67.52 27.2501H68.83C69.79 27.2501 70.58 26.3501 70.58 25.2301C70.58 24.1101 69.8 23.2201 68.83 23.2201H54.12C53.16 23.2201 52.37 24.1201 52.37 25.2301C52.37 26.3401 53.15 27.2501 54.12 27.2501H55.43C55.82 27.2501 56.13 27.5701 56.13 27.9501V74.2901Z" fill="#0E1721"/>
  <path d="M94.2301 25.23C94.2301 23.73 93.1301 22.51 91.7801 22.51H77.0701C75.7201 22.51 74.6201 23.73 74.6201 25.23C74.6201 26.73 75.7201 27.95 77.0701 27.95H78.3801V74.99H90.4801V27.95H91.7901C93.1401 27.95 94.2401 26.73 94.2401 25.23H94.2301Z" fill="#4279B6"/>
  <path d="M90.47 75.7001H78.37C77.98 75.7001 77.67 75.3801 77.67 75.0001V28.6601H77.07C75.33 28.6601 73.91 27.1201 73.91 25.2401C73.91 23.3601 75.33 21.8201 77.07 21.8201H91.78C93.52 21.8201 94.93 23.3601 94.93 25.2401C94.93 27.1201 93.52 28.6601 91.78 28.6601H91.17V75.0001C91.17 75.3901 90.85 75.7001 90.47 75.7001ZM79.08 74.2901H89.77V27.9501C89.77 27.5601 90.09 27.2501 90.47 27.2501H91.78C92.74 27.2501 93.53 26.3501 93.53 25.2301C93.53 24.1101 92.75 23.2201 91.78 23.2201H77.07C76.11 23.2201 75.32 24.1201 75.32 25.2301C75.32 26.3401 76.1 27.2501 77.07 27.2501H78.38C78.77 27.2501 79.08 27.5701 79.08 27.9501V74.2901Z" fill="#0E1721"/>
  <path d="M94.2301 25.23C94.2301 26.73 93.1301 27.95 91.7801 27.95H77.0701C75.7201 27.95 74.6201 26.73 74.6201 25.23C74.6201 23.73 75.7201 22.51 77.0701 22.51H91.7801C93.1301 22.51 94.2301 23.73 94.2301 25.23Z" fill="#FCCD2A"/>
  <path d="M91.78 28.6601H77.07C75.33 28.6601 73.91 27.1201 73.91 25.2301C73.91 23.3401 75.33 21.8101 77.07 21.8101H91.78C93.52 21.8101 94.93 23.3501 94.93 25.2301C94.93 27.1101 93.51 28.6601 91.78 28.6601ZM77.07 23.2201C76.11 23.2201 75.32 24.1201 75.32 25.2301C75.32 26.3401 76.1 27.2501 77.07 27.2501H91.78C92.74 27.2501 93.53 26.3501 93.53 25.2301C93.53 24.1101 92.75 23.2201 91.78 23.2201H77.07Z" fill="#0E1721"/>
  <path d="M90.47 75.7001H78.37C77.98 75.7001 77.67 75.3801 77.67 75.0001V28.6601H77.07C75.33 28.6601 73.91 27.1201 73.91 25.2401C73.91 23.3601 75.33 21.8201 77.07 21.8201H91.78C93.52 21.8201 94.93 23.3601 94.93 25.2401C94.93 27.1201 93.52 28.6601 91.78 28.6601H91.17V75.0001C91.17 75.3901 90.85 75.7001 90.47 75.7001ZM79.08 74.2901H89.77V27.9501C89.77 27.5601 90.09 27.2501 90.47 27.2501H91.78C92.74 27.2501 93.53 26.3501 93.53 25.2301C93.53 24.1101 92.75 23.2201 91.78 23.2201H77.07C76.11 23.2201 75.32 24.1201 75.32 25.2301C75.32 26.3401 76.1 27.2501 77.07 27.2501H78.38C78.77 27.2501 79.08 27.5701 79.08 27.9501V74.2901Z" fill="#0E1721"/>
  <path d="M48.33 25.23C48.33 23.73 47.23 22.51 45.88 22.51H31.17C29.82 22.51 28.72 23.73 28.72 25.23C28.72 26.73 29.82 27.95 31.17 27.95H32.48V74.99H44.58V27.95H45.89C47.24 27.95 48.34 26.73 48.34 25.23H48.33Z" fill="#4279B6"/>
  <path d="M44.57 75.7001H32.47C32.08 75.7001 31.77 75.3801 31.77 75.0001V28.6601H31.17C29.43 28.6601 28.01 27.1201 28.01 25.2401C28.01 23.3601 29.43 21.8201 31.17 21.8201H45.88C47.62 21.8201 49.03 23.3601 49.03 25.2401C49.03 27.1201 47.62 28.6601 45.88 28.6601H45.27V75.0001C45.27 75.3901 44.95 75.7001 44.57 75.7001ZM33.18 74.2901H43.87V27.9501C43.87 27.5601 44.19 27.2501 44.57 27.2501H45.88C46.84 27.2501 47.63 26.3501 47.63 25.2301C47.63 24.1101 46.85 23.2201 45.88 23.2201H31.17C30.21 23.2201 29.42 24.1201 29.42 25.2301C29.42 26.3401 30.2 27.2501 31.17 27.2501H32.48C32.87 27.2501 33.18 27.5701 33.18 27.9501V74.2901Z" fill="#0E1721"/>
  <path d="M48.33 25.23C48.33 26.73 47.23 27.95 45.88 27.95H31.17C29.82 27.95 28.72 26.73 28.72 25.23C28.72 23.73 29.82 22.51 31.17 22.51H45.88C47.23 22.51 48.33 23.73 48.33 25.23Z" fill="#FCCD2A"/>
  <path d="M45.88 28.6601H31.17C29.43 28.6601 28.01 27.1201 28.01 25.2301C28.01 23.3401 29.43 21.8101 31.17 21.8101H45.88C47.62 21.8101 49.03 23.3501 49.03 25.2301C49.03 27.1101 47.61 28.6601 45.88 28.6601ZM31.17 23.2201C30.21 23.2201 29.42 24.1201 29.42 25.2301C29.42 26.3401 30.2 27.2501 31.17 27.2501H45.88C46.84 27.2501 47.63 26.3501 47.63 25.2301C47.63 24.1101 46.85 23.2201 45.88 23.2201H31.17Z" fill="#0E1721"/>
  <path d="M44.57 75.7001H32.47C32.08 75.7001 31.77 75.3801 31.77 75.0001V28.6601H31.17C29.43 28.6601 28.01 27.1201 28.01 25.2401C28.01 23.3601 29.43 21.8201 31.17 21.8201H45.88C47.62 21.8201 49.03 23.3601 49.03 25.2401C49.03 27.1201 47.62 28.6601 45.88 28.6601H45.27V75.0001C45.27 75.3901 44.95 75.7001 44.57 75.7001ZM33.18 74.2901H43.87V27.9501C43.87 27.5601 44.19 27.2501 44.57 27.2501H45.88C46.84 27.2501 47.63 26.3501 47.63 25.2301C47.63 24.1101 46.85 23.2201 45.88 23.2201H31.17C30.21 23.2201 29.42 24.1201 29.42 25.2301C29.42 26.3401 30.2 27.2501 31.17 27.2501H32.48C32.87 27.2501 33.18 27.5701 33.18 27.9501V74.2901Z" fill="#0E1721"/>
  <path d="M25.38 25.23C25.38 23.73 24.28 22.51 22.93 22.51H8.22002C6.87002 22.51 5.77002 23.73 5.77002 25.23C5.77002 26.73 6.87002 27.95 8.22002 27.95H9.53002V74.99H21.63V27.95H22.94C24.29 27.95 25.39 26.73 25.39 25.23H25.38Z" fill="#4279B6"/>
  <path d="M21.62 75.7001H9.52C9.13 75.7001 8.82 75.3801 8.82 75.0001V28.6601H8.22C6.48 28.6601 5.06 27.1201 5.06 25.2401C5.06 23.3601 6.48 21.8201 8.22 21.8201H22.93C24.67 21.8201 26.08 23.3601 26.08 25.2401C26.08 27.1201 24.67 28.6601 22.93 28.6601H22.32V75.0001C22.32 75.3901 22 75.7001 21.62 75.7001ZM10.23 74.2901H20.92V27.9501C20.92 27.5601 21.24 27.2501 21.62 27.2501H22.93C23.89 27.2501 24.68 26.3501 24.68 25.2301C24.68 24.1101 23.9 23.2201 22.93 23.2201H8.22C7.26 23.2201 6.47 24.1201 6.47 25.2301C6.47 26.3401 7.25 27.2501 8.22 27.2501H9.53C9.92 27.2501 10.23 27.5701 10.23 27.9501V74.2901Z" fill="#0E1721"/>
  <path d="M25.38 25.23C25.38 26.73 24.28 27.95 22.93 27.95H8.22002C6.87002 27.95 5.77002 26.73 5.77002 25.23C5.77002 23.73 6.87002 22.51 8.22002 22.51H22.93C24.28 22.51 25.38 23.73 25.38 25.23Z" fill="#FCCD2A"/>
  <path d="M22.93 28.6601H8.22C6.48 28.6601 5.06 27.1201 5.06 25.2301C5.06 23.3401 6.48 21.8101 8.22 21.8101H22.93C24.67 21.8101 26.08 23.3501 26.08 25.2301C26.08 27.1101 24.66 28.6601 22.93 28.6601ZM8.22 23.2201C7.26 23.2201 6.47 24.1201 6.47 25.2301C6.47 26.3401 7.25 27.2501 8.22 27.2501H22.93C23.89 27.2501 24.68 26.3501 24.68 25.2301C24.68 24.1101 23.9 23.2201 22.93 23.2201H8.22Z" fill="#0E1721"/>
  <path d="M21.62 75.7001H9.52C9.13 75.7001 8.82 75.3801 8.82 75.0001V28.6601H8.22C6.48 28.6601 5.06 27.1201 5.06 25.2401C5.06 23.3601 6.48 21.8201 8.22 21.8201H22.93C24.67 21.8201 26.08 23.3601 26.08 25.2401C26.08 27.1201 24.67 28.6601 22.93 28.6601H22.32V75.0001C22.32 75.3901 22 75.7001 21.62 75.7001ZM10.23 74.2901H20.92V27.9501C20.92 27.5601 21.24 27.2501 21.62 27.2501H22.93C23.89 27.2501 24.68 26.3501 24.68 25.2301C24.68 24.1101 23.9 23.2201 22.93 23.2201H8.22C7.26 23.2201 6.47 24.1201 6.47 25.2301C6.47 26.3401 7.25 27.2501 8.22 27.2501H9.53C9.92 27.2501 10.23 27.5701 10.23 27.9501V74.2901Z" fill="#0E1721"/>
  <path d="M66.21 55.82V92.66C66.21 93.1736 66.6264 93.59 67.14 93.59H98.46C98.9736 93.59 99.39 93.1736 99.39 92.66V55.82C99.39 55.3063 98.9736 54.89 98.46 54.89H67.14C66.6264 54.89 66.21 55.3063 66.21 55.82Z" fill="white"/>
  <path d="M97.66 94.1399H67.94C66.68 94.1399 65.65 93.1099 65.65 91.8499V56.6099C65.65 55.3499 66.68 54.3199 67.94 54.3199H97.66C98.92 54.3199 99.95 55.3499 99.95 56.6099V91.8499C99.95 93.1099 98.92 94.1399 97.66 94.1399ZM67.94 55.4399C67.3 55.4399 66.77 55.9599 66.77 56.6099V91.8499C66.77 92.4899 67.29 93.0199 67.94 93.0199H97.66C98.3 93.0199 98.83 92.4999 98.83 91.8499V56.6099C98.83 55.9699 98.31 55.4399 97.66 55.4399H67.94Z" fill="#0E1721"/>
  <path d="M91.61 63.7999H73.98C73.67 63.7999 73.42 63.5499 73.42 63.2399C73.42 62.9299 73.67 62.6799 73.98 62.6799H91.61C91.92 62.6799 92.17 62.9299 92.17 63.2399C92.17 63.5499 91.92 63.7999 91.61 63.7999Z" fill="#0E1721"/>
  <path d="M91.61 69.2999H73.98C73.67 69.2999 73.42 69.0499 73.42 68.7399C73.42 68.4299 73.67 68.1799 73.98 68.1799H91.61C91.92 68.1799 92.17 68.4299 92.17 68.7399C92.17 69.0499 91.92 69.2999 91.61 69.2999Z" fill="#0E1721"/>
  <path d="M91.61 74.7899H73.98C73.67 74.7899 73.42 74.5399 73.42 74.2299C73.42 73.9199 73.67 73.6699 73.98 73.6699H91.61C91.92 73.6699 92.17 73.9199 92.17 74.2299C92.17 74.5399 91.92 74.7899 91.61 74.7899Z" fill="#0E1721"/>
  <path d="M91.61 80.2899H73.98C73.67 80.2899 73.42 80.0399 73.42 79.7299C73.42 79.4199 73.67 79.1699 73.98 79.1699H91.61C91.92 79.1699 92.17 79.4199 92.17 79.7299C92.17 80.0399 91.92 80.2899 91.61 80.2899Z" fill="#0E1721"/>
  <path d="M81.1301 85.7799H73.9901C73.6801 85.7799 73.4301 85.5299 73.4301 85.2199C73.4301 84.9099 73.6801 84.6599 73.9901 84.6599H81.1301C81.4401 84.6599 81.6901 84.9099 81.6901 85.2199C81.6901 85.5299 81.4401 85.7799 81.1301 85.7799Z" fill="#0E1721"/>
</svg>
