<svg xmlns="http://www.w3.org/2000/svg" width="100" height="100" viewBox="0 0 100 100" fill="none">
  <path d="M89.73 19.6601L53.27 8.68006C50.26 7.77006 45.37 7.77006 42.37 8.68006L5.92 19.6601C1.47 21.0001 0.98 21.9801 1.1 22.7601C1.21 23.4701 1.86 24.2001 5.47 24.4101C5.37 24.5401 5.29 24.6901 5.21 24.8401C4.98 25.3001 4.84 25.8401 4.84 26.4001C4.84 28.2101 6.2 29.6801 7.86 29.6801H8.44V73.3301H2.84C1.28 73.3301 0 74.5901 0 76.1601V80.5301H29.78L29.31 82.2601H65.35C65.24 82.0401 65.13 81.8101 65.02 81.5901C64.86 81.2401 64.71 80.8901 64.57 80.5301C63.87 78.7001 63.45 76.7301 63.38 74.6701C63.38 74.4601 63.36 74.2501 63.36 74.0401C63.36 74.0301 63.36 74.0101 63.36 74.0001C63.36 73.7901 63.36 73.5801 63.38 73.3701C63.38 73.3701 63.38 73.3401 63.38 73.3301H53.68V29.6701H63.9V69.5901C64.22 68.3001 64.67 67.0701 65.25 65.9101V29.6701H65.83C66.38 29.6701 66.9 29.5001 67.35 29.2201C68.25 28.6501 68.85 27.6001 68.85 26.3901C68.85 25.6701 68.63 25.0101 68.27 24.4601H71.28C71.08 24.7601 70.92 25.1001 70.82 25.4601C70.74 25.7501 70.7 26.0601 70.7 26.3901C70.7 28.2001 72.06 29.6701 73.72 29.6701H74.3V57.2401C74.74 57.0401 75.19 56.8701 75.65 56.7101V29.6701H85.87V56.1601C86.33 56.2701 86.78 56.3901 87.22 56.5301V29.6701H87.8C88.63 29.6701 89.39 29.3001 89.93 28.7101C90.48 28.1201 90.82 27.3001 90.82 26.3901C90.82 25.6401 90.59 24.9601 90.2 24.4101C93.82 24.2001 94.47 23.4701 94.57 22.7601C94.68 21.9801 94.2 21.0101 89.75 19.6601H89.73ZM1.35 76.1501C1.35 75.3301 2.02 74.6601 2.84 74.6601L31.36 74.7001L30.15 79.1701H1.35V76.1501ZM52.89 9.97006L89.35 20.9501C91.96 21.7401 92.83 22.3001 93.11 22.5501C92.73 22.7401 91.5 23.1201 87.91 23.1201H87.8C87.8 23.1201 87.8 23.1201 87.79 23.1201H73.72C73.72 23.1201 73.72 23.1201 73.71 23.1201H65.86C65.86 23.1201 65.86 23.1201 65.85 23.1201H51.78C51.78 23.1201 51.78 23.1201 51.77 23.1201H43.92C43.92 23.1201 43.92 23.1201 43.91 23.1201H29.84C29.84 23.1201 29.84 23.1201 29.83 23.1201H21.98C21.98 23.1201 21.98 23.1201 21.97 23.1201H7.86C7.86 23.1201 7.86 23.1201 7.85 23.1201H7.74C4.15 23.1201 2.92 22.7301 2.54 22.5501C2.82 22.3001 3.69 21.7401 6.3 20.9501L42.76 9.97006C45.55 9.13006 50.1 9.13006 52.89 9.97006ZM43.88 28.3201H29.81C28.89 28.3201 28.14 27.4501 28.14 26.3901C28.14 26.1901 28.17 26.0001 28.22 25.8201C28.27 25.6201 28.35 25.4401 28.45 25.2801C28.45 25.2801 28.46 25.2701 28.47 25.2601C28.52 25.1901 28.57 25.1201 28.62 25.0501C28.63 25.0401 28.65 25.0201 28.66 25.0101C28.71 24.9501 28.76 24.9001 28.82 24.8501C28.84 24.8301 28.86 24.8201 28.88 24.8001C28.93 24.7601 28.98 24.7201 29.04 24.6901C29.07 24.6701 29.1 24.6601 29.13 24.6401C29.18 24.6101 29.23 24.5901 29.28 24.5601C29.31 24.5501 29.35 24.5401 29.39 24.5301C29.44 24.5101 29.49 24.5001 29.54 24.4901C29.58 24.4901 29.62 24.4901 29.66 24.4801C29.71 24.4801 29.77 24.4601 29.82 24.4601H43.89C43.89 24.4601 43.96 24.4601 43.99 24.4601C44.02 24.4601 44.04 24.4601 44.07 24.4601C44.1 24.4601 44.13 24.4601 44.16 24.4801C44.19 24.4801 44.21 24.4801 44.24 24.4901C44.27 24.4901 44.3 24.5101 44.32 24.5101C44.35 24.5101 44.37 24.5201 44.4 24.5301C44.43 24.5401 44.46 24.5501 44.49 24.5701C44.51 24.5701 44.53 24.5901 44.56 24.6001C44.59 24.6201 44.62 24.6401 44.66 24.6501C44.68 24.6501 44.69 24.6701 44.71 24.6801C44.75 24.7001 44.79 24.7301 44.82 24.7601C44.82 24.7601 44.84 24.7701 44.84 24.7801C45.28 25.1301 45.58 25.7101 45.58 26.3801C45.58 26.9801 45.34 27.5101 44.97 27.8701C44.68 28.1501 44.31 28.3101 43.91 28.3101L43.88 28.3201ZM30.39 73.3601H21.36V29.6701H21.94C22.56 29.6701 23.14 29.4601 23.63 29.1101C24.43 28.5201 24.96 27.5201 24.96 26.3901C24.96 25.6701 24.74 25.0101 24.38 24.4601H27.39C27.19 24.7601 27.03 25.1001 26.93 25.4601C26.85 25.7501 26.81 26.0601 26.81 26.3901C26.81 28.2001 28.17 29.6701 29.83 29.6701H30.41V73.3501L30.39 73.3601ZM6.19 26.4001C6.19 26.0001 6.3 25.6301 6.48 25.3201C6.52 25.2601 6.56 25.1901 6.6 25.1401C6.64 25.0801 6.69 25.0301 6.73 24.9801C6.73 24.9801 6.75 24.9701 6.75 24.9601C6.79 24.9201 6.84 24.8701 6.88 24.8401C6.89 24.8301 6.91 24.8201 6.92 24.8101C6.96 24.7801 7 24.7501 7.05 24.7201C7.07 24.7101 7.09 24.7001 7.11 24.6901C7.15 24.6701 7.19 24.6401 7.23 24.6301C7.26 24.6201 7.28 24.6101 7.31 24.6001C7.35 24.5801 7.39 24.5701 7.43 24.5601C7.46 24.5601 7.49 24.5501 7.52 24.5401C7.56 24.5401 7.6 24.5201 7.64 24.5101C7.67 24.5101 7.7 24.5101 7.73 24.5101C7.77 24.5101 7.81 24.5101 7.86 24.5101H21.93C21.93 24.5101 22 24.5101 22.03 24.5101C22.06 24.5101 22.08 24.5101 22.11 24.5101C22.14 24.5101 22.17 24.5201 22.2 24.5301C22.23 24.5301 22.25 24.5301 22.28 24.5401C22.31 24.5401 22.34 24.5601 22.37 24.5701C22.39 24.5701 22.42 24.5801 22.44 24.5901C22.47 24.6001 22.5 24.6201 22.53 24.6301C22.55 24.6301 22.57 24.6501 22.59 24.6501C22.63 24.6701 22.66 24.6901 22.7 24.7101C22.71 24.7101 22.72 24.7201 22.74 24.7301C22.78 24.7601 22.83 24.7901 22.87 24.8201C23.31 25.1701 23.61 25.7501 23.61 26.4201C23.61 27.0901 23.32 27.6701 22.87 28.0201C22.6 28.2301 22.28 28.3501 21.94 28.3501H7.86C6.94 28.3501 6.19 27.4801 6.19 26.4201V26.4001ZM9.79 29.6701H20.01V73.3201H9.79V29.6701ZM41.96 73.3201H31.74V29.6701H41.96V73.3201ZM50.09 26.4001C50.09 26.2001 50.12 26.0101 50.17 25.8301C50.22 25.6301 50.3 25.4501 50.4 25.2901C50.4 25.2901 50.41 25.2801 50.42 25.2701C50.47 25.2001 50.52 25.1301 50.57 25.0601C50.58 25.0501 50.6 25.0301 50.61 25.0201C50.66 24.9601 50.71 24.9101 50.77 24.8601C50.79 24.8401 50.81 24.8301 50.83 24.8101C50.88 24.7701 50.93 24.7301 50.99 24.7001C51.02 24.6801 51.05 24.6701 51.08 24.6501C51.13 24.6201 51.18 24.6001 51.23 24.5701C51.26 24.5601 51.3 24.5501 51.34 24.5401C51.39 24.5201 51.44 24.5101 51.49 24.5001C51.53 24.5001 51.57 24.5001 51.61 24.4901C51.66 24.4901 51.72 24.4701 51.77 24.4701H65.84C65.84 24.4701 65.91 24.4701 65.94 24.4701C65.97 24.4701 65.99 24.4701 66.02 24.4701C66.05 24.4701 66.08 24.4801 66.11 24.4901C66.13 24.4901 66.16 24.4901 66.18 24.5001C66.21 24.5001 66.24 24.5201 66.27 24.5301C66.29 24.5301 66.31 24.5401 66.34 24.5501C66.37 24.5601 66.41 24.5801 66.44 24.5901C66.46 24.5901 66.47 24.6001 66.49 24.6101C66.53 24.6301 66.57 24.6501 66.6 24.6701C66.6 24.6701 66.62 24.6801 66.63 24.6901C66.68 24.7201 66.72 24.7501 66.76 24.7801C67.2 25.1301 67.5 25.7101 67.5 26.3801C67.5 27.1701 67.08 27.8501 66.49 28.1501C66.29 28.2501 66.06 28.3101 65.83 28.3101H51.76C50.84 28.3101 50.09 27.4401 50.09 26.3801V26.4001ZM72.04 26.4001C72.04 26.2001 72.07 26.0101 72.12 25.8301C72.17 25.6301 72.25 25.4501 72.35 25.2901C72.35 25.2901 72.36 25.2801 72.37 25.2701C72.42 25.2001 72.47 25.1301 72.52 25.0601C72.53 25.0501 72.55 25.0301 72.56 25.0201C72.61 24.9601 72.66 24.9101 72.72 24.8601C72.74 24.8401 72.76 24.8301 72.78 24.8101C72.83 24.7701 72.88 24.7301 72.94 24.7001C72.97 24.6801 73 24.6701 73.03 24.6501C73.08 24.6201 73.13 24.6001 73.18 24.5701C73.21 24.5601 73.25 24.5501 73.29 24.5401C73.34 24.5201 73.39 24.5101 73.44 24.5001C73.48 24.5001 73.52 24.5001 73.56 24.4901C73.61 24.4901 73.67 24.4701 73.72 24.4701H87.79C87.79 24.4701 87.86 24.4701 87.89 24.4701C87.92 24.4701 87.94 24.4701 87.97 24.4701C88 24.4701 88.03 24.4701 88.06 24.4901C88.09 24.4901 88.11 24.4901 88.14 24.5001C88.17 24.5001 88.2 24.5201 88.22 24.5201C88.25 24.5201 88.27 24.5301 88.3 24.5401C88.33 24.5501 88.36 24.5601 88.39 24.5801C88.41 24.5801 88.43 24.6001 88.46 24.6101C88.49 24.6301 88.52 24.6501 88.56 24.6601C88.58 24.6601 88.59 24.6801 88.61 24.6901C88.65 24.7101 88.69 24.7401 88.72 24.7701C88.72 24.7701 88.74 24.7801 88.74 24.7901C89.18 25.1401 89.48 25.7201 89.48 26.3901C89.48 26.9901 89.24 27.5201 88.87 27.8801C88.58 28.1601 88.21 28.3201 87.81 28.3201H73.74C72.82 28.3201 72.07 27.4501 72.07 26.3901L72.04 26.4001ZM64.47 80.5201L64.57 80.9001H31.07L31.17 80.5201L32.74 74.7001H62.89L64.46 80.5201H64.47ZM52.34 73.3601H43.31V29.6701H43.89C44.72 29.6701 45.48 29.3001 46.02 28.7101C46.57 28.1201 46.91 27.3001 46.91 26.3901C46.91 25.6701 46.69 25.0101 46.33 24.4601H49.34C49.14 24.7601 48.98 25.1001 48.88 25.4601C48.8 25.7501 48.76 26.0601 48.76 26.3901C48.76 28.2001 50.12 29.6701 51.78 29.6701H52.36V73.3601H52.34Z" fill="#2D557F"/>
  <path d="M87.21 56.53C86.77 56.39 86.32 56.27 85.86 56.16C84.52 55.85 83.12 55.67 81.69 55.67C79.57 55.67 77.54 56.04 75.64 56.7C75.18 56.86 74.73 57.04 74.29 57.23C70.36 58.97 67.15 62.06 65.26 65.9C64.69 67.06 64.23 68.3 63.91 69.58C63.61 70.78 63.44 72.02 63.39 73.3C63.39 73.31 63.39 73.33 63.39 73.34C63.39 73.55 63.37 73.76 63.37 73.97C63.37 73.98 63.37 74 63.37 74.01C63.37 74.22 63.37 74.43 63.39 74.64C63.46 76.7 63.88 78.67 64.58 80.5C64.72 80.86 64.87 81.21 65.03 81.56C65.13 81.79 65.24 82.01 65.36 82.23C68.39 88.19 74.57 92.28 81.69 92.28C91.79 92.28 100 84.06 100 73.97C100 65.79 94.61 58.86 87.21 56.51V56.53ZM81.69 90.96C74.65 90.96 68.6 86.65 66.03 80.53C65.94 80.31 65.85 80.08 65.76 79.86C65.68 79.64 65.6 79.41 65.53 79.19C65.07 77.77 64.8 76.27 64.73 74.72C64.73 74.71 64.73 74.69 64.73 74.68C64.73 74.47 64.71 74.26 64.71 74.05C64.71 74.04 64.71 74.02 64.71 74.01C64.71 73.8 64.71 73.59 64.73 73.38C64.78 72.14 64.95 70.93 65.25 69.77C66.5 64.92 69.86 60.9 74.28 58.74C74.72 58.53 75.17 58.33 75.63 58.16C77.51 57.44 79.55 57.04 81.68 57.04C83.12 57.04 84.52 57.22 85.85 57.56C86.31 57.68 86.76 57.81 87.2 57.97C93.85 60.27 98.65 66.59 98.65 74.01C98.65 83.37 91.04 90.98 81.68 90.98L81.69 90.96Z" fill="#4279B6"/>
  <path d="M87.21 64.1101C86.97 64.0801 86.73 64.0701 86.49 64.0701C86.27 64.0701 86.07 64.0701 85.87 64.0901C83.66 64.2401 82.54 65.1901 81.7 66.9501C80.95 65.4001 79.99 64.4601 78.25 64.1701C77.85 64.1001 77.4 64.0701 76.91 64.0701C76.48 64.0701 76.07 64.1101 75.66 64.1901C75.2 64.2801 74.75 64.4201 74.31 64.6101C73.25 65.0701 72.29 65.8301 71.49 66.8301C70.49 68.1001 69.98 69.6001 69.94 71.1201C69.92 71.8601 70.02 72.6101 70.23 73.3401C70.29 73.5701 70.37 73.7901 70.45 74.0101C70.54 74.2401 70.63 74.4601 70.74 74.6801C71.21 75.6401 71.88 76.5301 72.74 77.3101C73.29 77.8001 74.01 78.4501 74.81 79.1701C75.05 79.3901 75.31 79.6101 75.56 79.8401C75.81 80.0601 76.06 80.2901 76.31 80.5101C77.44 81.5301 78.59 82.5601 79.49 83.3701C80.53 84.3001 81.25 84.9501 81.25 84.9501L81.7 85.3501L82.15 84.9501C82.15 84.9501 82.38 84.7401 82.78 84.3901C82.91 84.2701 83.06 84.1401 83.22 83.9901C83.47 83.7701 83.74 83.5201 84.05 83.2501C84.94 82.4501 86.03 81.4701 87.09 80.5201C87.34 80.2901 87.59 80.0701 87.84 79.8501C88.1 79.6201 88.35 79.3901 88.59 79.1801C89.46 78.4001 90.21 77.7301 90.66 77.3201C91.54 76.5401 92.21 75.6301 92.68 74.6601C92.79 74.4401 92.88 74.2201 92.97 73.9901C93.05 73.7701 93.12 73.5501 93.18 73.3301C93.8 71.1001 93.41 68.7101 91.92 66.8301C90.67 65.2501 89.02 64.3001 87.22 64.1001L87.21 64.1101ZM91.13 74.6701C90.77 75.2601 90.31 75.8201 89.76 76.3201C89.12 76.8901 87.89 77.9901 86.57 79.1801C86.32 79.4001 86.07 79.6301 85.82 79.8501C85.57 80.0801 85.32 80.3001 85.07 80.5201C83.67 81.7801 82.36 82.9601 81.7 83.5501C81.04 82.9601 79.74 81.7901 78.33 80.5201C78.08 80.3001 77.83 80.0701 77.58 79.8501C77.33 79.6301 77.08 79.4001 76.83 79.1801C75.61 78.0801 74.43 77.0301 73.64 76.3201C73.09 75.8301 72.64 75.2801 72.28 74.7001C72.14 74.4801 72.02 74.2601 71.92 74.0301C71.82 73.8101 71.72 73.5801 71.64 73.3601C70.98 71.4301 71.24 69.3201 72.54 67.6901C72.9 67.2401 73.49 66.6201 74.31 66.1401C74.71 65.9101 75.15 65.7101 75.66 65.5901C76.05 65.4901 76.46 65.4301 76.91 65.4301C77.06 65.4301 77.19 65.4301 77.33 65.4301C77.6 65.4401 77.85 65.4701 78.07 65.5101C78.26 65.5401 78.43 65.5901 78.59 65.6401C79.73 66.0201 80.37 66.9701 81.06 68.9901C81.06 69.0101 81.08 69.0301 81.09 69.0601C81.13 69.1401 81.18 69.2101 81.25 69.2601C81.26 69.2701 81.27 69.2801 81.29 69.2901C81.31 69.3001 81.32 69.3101 81.34 69.3201C81.37 69.3401 81.41 69.3601 81.44 69.3801C81.48 69.4001 81.52 69.4101 81.56 69.4201C81.56 69.4201 81.56 69.4201 81.57 69.4201C81.61 69.4201 81.65 69.4301 81.7 69.4301C81.7 69.4301 81.71 69.4301 81.72 69.4301C81.75 69.4301 81.78 69.4301 81.81 69.4301C81.83 69.4301 81.85 69.4301 81.88 69.4101C81.89 69.4101 81.91 69.4101 81.92 69.4001C81.95 69.4001 81.97 69.3801 82 69.3701C82.15 69.2901 82.27 69.1601 82.33 68.9901C82.33 68.9701 82.34 68.9601 82.35 68.9401C83.23 66.4201 84.02 65.5901 85.87 65.4501C86.07 65.4401 86.27 65.4301 86.49 65.4301C86.74 65.4301 86.98 65.4501 87.21 65.4801C89.04 65.7401 90.26 66.9401 90.85 67.6901C91.48 68.4901 91.87 69.4001 92.03 70.3501C92.19 71.3301 92.1 72.3501 91.76 73.3301C91.68 73.5601 91.59 73.7801 91.49 74.0001C91.38 74.2301 91.26 74.4501 91.13 74.6701Z" fill="#4279B6"/>
</svg>
