<svg xmlns="http://www.w3.org/2000/svg" width="100" height="100" viewBox="0 0 100 100" fill="none">
  <path d="M100 82.2601C100 80.6201 98.67 79.2901 97.03 79.2901H91.17V33.6601H91.78C92.76 33.6601 93.63 33.1701 94.21 32.4101C94.66 31.8201 94.93 31.0601 94.93 30.2301C94.93 29.4501 94.69 28.7301 94.28 28.1601C98.06 27.9401 98.74 27.1801 98.85 26.4301C98.97 25.6201 98.46 24.6001 93.81 23.1901L55.7 11.7101C52.56 10.7601 47.44 10.7601 44.3 11.7101L6.19 23.2001C1.53 24.6001 1.03 25.6201 1.15 26.4401C1.26 27.1901 1.94 27.9501 5.72 28.1701C5.56 28.4001 5.42 28.6501 5.32 28.9101C5.16 29.3201 5.07 29.7701 5.07 30.2401C5.07 32.1301 6.49 33.6601 8.23 33.6601H8.83V79.3001H2.97C1.33 79.3001 0 80.6201 0 82.2601V86.8301H31.13L30.64 88.6401H69.35L68.86 86.8301H100V82.2601ZM67.51 87.2301H32.48L32.59 86.8301L34.24 80.7501H65.76L67.41 86.8301L67.52 87.2301H67.51ZM1.41 82.2601C1.41 81.4001 2.11 80.7001 2.97 80.7001L32.78 80.7401L31.51 85.4201H1.41V82.2601ZM55.29 13.0601L93.41 24.5401C96.14 25.3601 97.05 25.9501 97.35 26.2101C96.95 26.4001 95.67 26.8101 91.91 26.8101H91.8C91.8 26.8101 91.79 26.8101 91.78 26.8101H77.07C77.07 26.8101 77.06 26.8101 77.05 26.8101H68.85C68.85 26.8101 68.84 26.8101 68.83 26.8101H54.12C54.12 26.8101 54.11 26.8101 54.1 26.8101H45.9C45.9 26.8101 45.89 26.8101 45.88 26.8101H31.17C31.17 26.8101 31.16 26.8101 31.15 26.8101H22.95C22.95 26.8101 22.94 26.8101 22.93 26.8101H8.22C8.22 26.8101 8.21 26.8101 8.2 26.8101H8.09C4.34 26.8101 3.05 26.4101 2.65 26.2101C2.94 25.9501 3.85 25.3601 6.59 24.5401L44.7 13.0601C47.62 12.1801 52.37 12.1801 55.29 13.0601ZM89.77 79.2901H79.08V33.6601H89.77V79.2901ZM31.77 79.3301H22.33V33.6601H22.94C23.81 33.6601 24.6 33.2801 25.17 32.6601C25.74 32.0401 26.1 31.1801 26.1 30.2401C26.1 29.4901 25.87 28.7901 25.49 28.2301H28.63C28.37 28.6201 28.18 29.0701 28.08 29.5501C28.04 29.7701 28.02 30.0001 28.02 30.2401C28.02 32.1301 29.44 33.6601 31.18 33.6601H31.78V79.3301H31.77ZM10.23 33.6601H20.92V79.2901H10.23V33.6601ZM31.17 32.2501C30.21 32.2501 29.42 31.3501 29.42 30.2301C29.42 30.0201 29.45 29.8201 29.5 29.6301C29.53 29.5301 29.56 29.4301 29.6 29.3301C29.64 29.2401 29.69 29.1501 29.74 29.0601C29.74 29.0601 29.75 29.0401 29.76 29.0301C29.81 28.9601 29.86 28.8801 29.91 28.8201C29.92 28.8001 29.94 28.7901 29.95 28.7801C30 28.7201 30.05 28.6701 30.11 28.6201C30.13 28.6001 30.16 28.5901 30.18 28.5701C30.23 28.5301 30.28 28.4901 30.34 28.4501C30.37 28.4301 30.4 28.4201 30.44 28.4001C30.49 28.3701 30.54 28.3401 30.6 28.3201C30.64 28.3101 30.68 28.3001 30.71 28.2901C30.76 28.2701 30.81 28.2601 30.87 28.2401C30.91 28.2401 30.95 28.2401 30.99 28.2301C31.05 28.2301 31.1 28.2101 31.16 28.2101H45.87C45.87 28.2101 45.94 28.2101 45.98 28.2101C46.01 28.2101 46.03 28.2101 46.06 28.2101C46.09 28.2101 46.12 28.2201 46.15 28.2301C46.18 28.2301 46.2 28.2301 46.23 28.2401C46.26 28.2401 46.29 28.2601 46.32 28.2701C46.35 28.2701 46.37 28.2801 46.4 28.2901C46.43 28.3001 46.46 28.3201 46.49 28.3301C46.51 28.3301 46.54 28.3501 46.56 28.3601C46.59 28.3801 46.63 28.4001 46.66 28.4201C46.68 28.4201 46.69 28.4401 46.71 28.4501C46.75 28.4801 46.79 28.5001 46.83 28.5301C46.83 28.5301 46.85 28.5401 46.86 28.5501C47.32 28.9101 47.63 29.5301 47.63 30.2201C47.63 30.7801 47.43 31.2801 47.12 31.6401C46.8 32.0101 46.37 32.2301 45.89 32.2301H31.18L31.17 32.2501ZM6.81 29.0501C6.81 29.0501 6.81 29.0501 6.82 29.0401C6.86 28.9701 6.91 28.9101 6.96 28.8501C6.96 28.8401 6.98 28.8301 6.99 28.8201C7.04 28.7701 7.08 28.7201 7.13 28.6701C7.15 28.6501 7.16 28.6401 7.18 28.6301C7.22 28.5901 7.27 28.5501 7.32 28.5201C7.34 28.5001 7.37 28.4901 7.39 28.4801C7.43 28.4501 7.48 28.4201 7.52 28.4001C7.55 28.3801 7.58 28.3701 7.61 28.3601C7.65 28.3401 7.69 28.3201 7.74 28.3101C7.77 28.3001 7.81 28.2901 7.84 28.2801C7.88 28.2701 7.93 28.2601 7.97 28.2501C8 28.2501 8.04 28.2501 8.08 28.2501C8.13 28.2501 8.18 28.2401 8.23 28.2401H22.94C22.94 28.2401 23.01 28.2401 23.05 28.2401C23.08 28.2401 23.1 28.2401 23.13 28.2401C23.16 28.2401 23.19 28.2501 23.22 28.2601C23.25 28.2601 23.27 28.2601 23.3 28.2701C23.33 28.2701 23.36 28.2901 23.39 28.3001C23.41 28.3001 23.44 28.3101 23.46 28.3201C23.49 28.3301 23.53 28.3501 23.56 28.3601C23.58 28.3601 23.6 28.3801 23.62 28.3901C23.66 28.4101 23.69 28.4301 23.73 28.4501C23.74 28.4501 23.76 28.4601 23.77 28.4701C23.81 28.5001 23.86 28.5301 23.9 28.5601C23.9 28.5601 23.9 28.5601 23.91 28.5701C24.37 28.9301 24.68 29.5501 24.68 30.2401C24.68 30.8701 24.43 31.4201 24.04 31.7901C23.74 32.0801 23.35 32.2501 22.93 32.2501H8.22C7.26 32.2501 6.47 31.3501 6.47 30.2301C6.47 29.8801 6.55 29.5601 6.68 29.2701C6.72 29.1901 6.76 29.1201 6.8 29.0401L6.81 29.0501ZM54.12 32.2501C53.16 32.2501 52.37 31.3501 52.37 30.2301C52.37 30.0201 52.4 29.8201 52.45 29.6301C52.48 29.5301 52.51 29.4301 52.55 29.3301C52.59 29.2401 52.64 29.1501 52.69 29.0601C52.69 29.0601 52.7 29.0401 52.71 29.0301C52.76 28.9601 52.81 28.8801 52.86 28.8201C52.87 28.8001 52.89 28.7901 52.9 28.7801C52.95 28.7201 53 28.6701 53.06 28.6201C53.08 28.6001 53.11 28.5901 53.13 28.5701C53.18 28.5301 53.23 28.4901 53.29 28.4501C53.32 28.4301 53.35 28.4201 53.39 28.4001C53.44 28.3701 53.49 28.3401 53.55 28.3201C53.59 28.3101 53.63 28.3001 53.66 28.2901C53.71 28.2701 53.76 28.2601 53.82 28.2401C53.86 28.2401 53.9 28.2401 53.94 28.2301C54 28.2301 54.05 28.2101 54.11 28.2101H68.82C68.82 28.2101 68.89 28.2101 68.93 28.2101C68.96 28.2101 68.98 28.2101 69.01 28.2101C69.04 28.2101 69.07 28.2201 69.1 28.2301C69.13 28.2301 69.15 28.2301 69.18 28.2401C69.21 28.2401 69.24 28.2601 69.27 28.2701C69.29 28.2701 69.32 28.2801 69.34 28.2901C69.37 28.3001 69.41 28.3201 69.44 28.3301C69.46 28.3301 69.48 28.3501 69.5 28.3601C69.54 28.3801 69.57 28.4001 69.61 28.4201C69.62 28.4201 69.64 28.4301 69.65 28.4401C69.69 28.4701 69.74 28.5001 69.78 28.5301C69.78 28.5301 69.78 28.5301 69.79 28.5401C70.25 28.9001 70.56 29.5201 70.56 30.2101C70.56 30.8401 70.31 31.3901 69.92 31.7601C69.62 32.0501 69.23 32.2201 68.81 32.2201H54.1L54.12 32.2501ZM93.01 31.6601C92.69 32.0301 92.26 32.2501 91.78 32.2501H77.07C76.11 32.2501 75.32 31.3501 75.32 30.2301C75.32 30.0201 75.35 29.8201 75.4 29.6301C75.43 29.5301 75.46 29.4301 75.5 29.3301C75.54 29.2401 75.59 29.1501 75.64 29.0601C75.64 29.0601 75.65 29.0401 75.66 29.0301C75.71 28.9601 75.76 28.8801 75.81 28.8201C75.82 28.8001 75.84 28.7901 75.85 28.7801C75.9 28.7201 75.95 28.6701 76.01 28.6201C76.03 28.6001 76.06 28.5901 76.08 28.5701C76.13 28.5301 76.18 28.4901 76.24 28.4501C76.27 28.4301 76.3 28.4201 76.34 28.4001C76.39 28.3701 76.44 28.3401 76.5 28.3201C76.54 28.3101 76.58 28.3001 76.61 28.2901C76.66 28.2701 76.71 28.2601 76.77 28.2401C76.81 28.2401 76.85 28.2401 76.89 28.2301C76.95 28.2301 77 28.2101 77.06 28.2101H91.77C91.77 28.2101 91.84 28.2101 91.88 28.2101C91.91 28.2101 91.93 28.2101 91.96 28.2101C91.99 28.2101 92.02 28.2201 92.05 28.2301C92.08 28.2301 92.1 28.2301 92.13 28.2401C92.16 28.2401 92.19 28.2601 92.22 28.2701C92.25 28.2701 92.27 28.2801 92.3 28.2901C92.33 28.3001 92.36 28.3201 92.39 28.3301C92.41 28.3301 92.44 28.3501 92.46 28.3601C92.49 28.3801 92.53 28.4001 92.56 28.4201C92.58 28.4201 92.59 28.4401 92.61 28.4501C92.65 28.4801 92.69 28.5001 92.73 28.5301C92.73 28.5301 92.75 28.5401 92.76 28.5501C93.22 28.9101 93.53 29.5301 93.53 30.2201C93.53 30.7801 93.33 31.2801 93.02 31.6401L93.01 31.6601ZM67.22 80.7401H69.98L69.28 80.0301L68.58 79.3301H68.23V78.9801L67.53 78.2801L66.83 77.5801V79.3001H56.14V71.1001C55.91 71.1901 55.67 71.2801 55.44 71.3701C55.21 71.4501 54.97 71.5301 54.74 71.6001V79.3401H45.3V71.8701C45.06 71.8101 44.83 71.7501 44.6 71.6801C44.36 71.6101 44.13 71.5401 43.9 71.4601V79.2901H33.21V61.3201C32.93 60.6101 32.69 59.8801 32.51 59.1401C31.79 56.3001 31.79 53.3201 32.51 50.4801C32.7 49.7401 32.93 49.0101 33.21 48.3001V33.6601H43.9V38.1701C44.13 38.0901 44.37 38.0201 44.6 37.9501C44.83 37.8801 45.07 37.8201 45.3 37.7601V33.6701H45.91C46.89 33.6701 47.76 33.1801 48.34 32.4201C48.79 31.8301 49.06 31.0701 49.06 30.2401C49.06 29.4901 48.83 28.7901 48.45 28.2301H51.59C51.33 28.6201 51.14 29.0701 51.04 29.5501C51 29.7701 50.98 30.0001 50.98 30.2401C50.98 32.1301 52.4 33.6601 54.14 33.6601H54.74V38.0301C54.98 38.1001 55.21 38.1801 55.44 38.2601C55.68 38.3401 55.91 38.4301 56.14 38.5301V33.6601H66.83V51.7501C67.01 52.7501 67.1 53.7801 67.1 54.8101C67.1 55.8501 67.01 56.8701 66.83 57.8701V66.6801C66.83 66.6801 66.92 66.7601 66.96 66.8001L67.53 67.3701L68.23 68.0701V33.6601H68.84C69.71 33.6601 70.5 33.2801 71.07 32.6601C71.64 32.0401 72 31.1801 72 30.2401C72 29.4901 71.77 28.7901 71.39 28.2301H74.53C74.27 28.6201 74.08 29.0701 73.98 29.5501C73.94 29.7701 73.92 30.0001 73.92 30.2401C73.92 32.1301 75.34 33.6601 77.08 33.6601H77.68V77.5201L77.85 77.6901C78.06 77.9001 78.23 78.1201 78.38 78.3601C78.57 78.6601 78.72 78.9901 78.82 79.3201C78.89 79.5401 78.93 79.7701 78.95 80.0001C78.95 80.0001 78.95 80.0201 78.95 80.0301C78.97 80.2601 78.97 80.4801 78.95 80.7101C78.95 80.7101 78.95 80.7301 78.95 80.7401L97.03 80.7101C97.89 80.7101 98.59 81.4101 98.59 82.2701V85.4301H68.48L67.22 80.7501V80.7401Z" fill="#2D557F"/>
  <path d="M78.95 80.02C78.95 80.02 78.95 80 78.95 79.99C78.93 79.76 78.88 79.53 78.82 79.31C78.72 78.98 78.57 78.65 78.38 78.35C78.23 78.11 78.06 77.89 77.85 77.68L77.68 77.51L68.24 68.07L67.54 67.37L66.97 66.8C66.97 66.8 66.88 66.72 66.84 66.68C66.51 66.41 66.1 66.26 65.68 66.26C65.29 66.26 64.91 66.38 64.6 66.61L63.48 65.49C65.21 63.25 66.35 60.64 66.84 57.86C67.01 56.86 67.11 55.84 67.11 54.8C67.11 53.76 67.02 52.74 66.84 51.74C66.22 48.21 64.55 44.96 61.96 42.37C60.25 40.66 58.27 39.37 56.15 38.52C55.92 38.43 55.68 38.34 55.45 38.25C55.22 38.17 54.98 38.09 54.75 38.02C51.69 37.07 48.41 36.98 45.31 37.74C45.07 37.8 44.84 37.86 44.61 37.93C44.37 38 44.14 38.07 43.91 38.15C41.43 38.99 39.09 40.39 37.12 42.37C35.38 44.11 34.08 46.13 33.22 48.29C32.94 49 32.7 49.73 32.52 50.47C31.8 53.31 31.8 56.29 32.52 59.13C32.71 59.87 32.94 60.6 33.22 61.31C34.08 63.47 35.37 65.49 37.12 67.23C39.1 69.21 41.43 70.61 43.91 71.45C44.14 71.53 44.38 71.6 44.61 71.67C44.84 71.74 45.08 71.8 45.31 71.86C46.7 72.2 48.12 72.37 49.54 72.37C51.3 72.37 53.06 72.1 54.75 71.58C54.99 71.51 55.22 71.43 55.45 71.35C55.69 71.27 55.92 71.18 56.15 71.08C57.58 70.5 58.95 69.72 60.22 68.75L61.34 69.87C61.11 70.18 60.99 70.56 60.99 70.95C60.99 71.44 61.18 71.9 61.53 72.25L66.85 77.57L67.55 78.27L68.25 78.97L68.6 79.32L69.3 80.02L70 80.72L72.41 83.13C73.14 83.86 74.1 84.26 75.13 84.26C76.16 84.26 77.13 83.86 77.86 83.13C78.53 82.46 78.9 81.59 78.97 80.71C78.97 80.71 78.97 80.69 78.97 80.68C78.99 80.45 78.99 80.23 78.97 80L78.95 80.02ZM73.38 82.15L71.97 80.74L71.27 80.04L70.57 79.34L68.23 77L67.53 76.3L66.83 75.6L62.51 71.28C62.51 71.28 62.39 71.13 62.39 70.98C62.39 70.87 62.43 70.76 62.51 70.69L63.31 69.89L61.3 67.88C61.52 67.68 61.74 67.47 61.95 67.26C62.16 67.05 62.37 66.83 62.57 66.61L64.58 68.62L65.38 67.82C65.38 67.82 65.52 67.7 65.67 67.7C65.78 67.7 65.89 67.75 65.97 67.82L66.83 68.68L67.53 69.38L68.23 70.08L76.85 78.7C77.04 78.89 77.19 79.1 77.3 79.33C77.41 79.55 77.49 79.79 77.53 80.03C77.57 80.26 77.57 80.5 77.54 80.73C77.47 81.25 77.24 81.75 76.84 82.15C75.89 83.1 74.33 83.1 73.38 82.15ZM56.13 69.56C55.9 69.66 55.66 69.76 55.43 69.86C55.2 69.95 54.96 70.04 54.73 70.12C53.04 70.69 51.28 70.98 49.52 70.98C48.1 70.98 46.67 70.79 45.29 70.42C45.05 70.36 44.82 70.29 44.59 70.21C44.35 70.13 44.12 70.05 43.89 69.97C41.77 69.19 39.79 67.95 38.09 66.25C31.78 59.94 31.78 49.68 38.09 43.38C39.79 41.68 41.77 40.45 43.89 39.66C44.12 39.57 44.36 39.49 44.59 39.42C44.82 39.35 45.06 39.28 45.29 39.21C48.39 38.38 51.68 38.47 54.73 39.51C54.97 39.59 55.2 39.68 55.43 39.77C55.67 39.86 55.9 39.96 56.13 40.07C57.88 40.85 59.51 41.95 60.94 43.39C63.99 46.44 65.68 50.51 65.68 54.83C65.68 58.37 64.55 61.73 62.46 64.51C62.26 64.78 62.04 65.04 61.82 65.3C61.54 65.63 61.25 65.95 60.94 66.26C60.63 66.57 60.31 66.85 59.99 67.13C59.73 67.35 59.46 67.57 59.19 67.77C58.22 68.49 57.2 69.09 56.12 69.57L56.13 69.56Z" fill="#4279B6"/>
  <path d="M58.3699 45.94C57.6799 45.25 56.9299 44.66 56.1299 44.16C55.9 44.02 55.6699 43.88 55.4299 43.75C55.1999 43.63 54.9599 43.51 54.7299 43.4C53.1199 42.66 51.3499 42.27 49.5199 42.27C48.0599 42.27 46.63 42.52 45.29 43C45.05 43.09 44.8199 43.18 44.5899 43.28C44.3499 43.38 44.1199 43.49 43.8899 43.61C42.7099 44.2 41.6199 44.99 40.6599 45.95C40.1799 46.43 39.7399 46.94 39.3499 47.48C37.2199 50.43 36.48 54.17 37.33 57.73C37.87 59.98 39.0199 62.03 40.6599 63.67C41.6299 64.64 42.7199 65.41 43.8899 66C44.1199 66.12 44.3599 66.23 44.5899 66.33C44.8199 66.43 45.06 66.52 45.29 66.61C46.65 67.1 48.0899 67.34 49.5199 67.34C51.2999 67.34 53.0799 66.96 54.7299 66.21C54.9699 66.1 55.1999 65.98 55.4299 65.86C55.6699 65.73 55.9 65.6 56.1299 65.45C56.9299 64.95 57.6799 64.36 58.3699 63.67C63.2599 58.78 63.2599 50.83 58.3699 45.94ZM56.1299 63.75C55.9 63.92 55.6599 64.08 55.4299 64.23C55.1999 64.38 54.9599 64.51 54.7299 64.64C51.7999 66.19 48.32 66.34 45.29 65.1C45.05 65 44.8199 64.89 44.5899 64.78C44.3499 64.66 44.1199 64.54 43.8899 64.4C43.0899 63.93 42.3399 63.36 41.6599 62.67C40.1999 61.21 39.1799 59.39 38.7099 57.4C37.9599 54.24 38.6099 50.92 40.4999 48.3C40.8499 47.82 41.2399 47.36 41.6599 46.94C42.3399 46.26 43.0899 45.68 43.8899 45.21C44.1199 45.07 44.3599 44.95 44.5899 44.83C44.8199 44.72 45.06 44.61 45.29 44.51C46.64 43.96 48.08 43.68 49.5199 43.68C51.3099 43.68 53.1099 44.11 54.7299 44.97C54.9699 45.1 55.1999 45.23 55.4299 45.38C55.6699 45.53 55.9 45.69 56.1299 45.86C56.57 46.18 56.9799 46.54 57.3799 46.93C61.7199 51.27 61.7199 58.33 57.3799 62.67C56.99 63.06 56.5699 63.42 56.1399 63.74L56.1299 63.75Z" fill="#4279B6"/>
</svg>
