<svg xmlns="http://www.w3.org/2000/svg" width="100" height="100" viewBox="0 0 100 100" fill="none">
  <path d="M93.73 18.1801L55.65 6.71006C52.51 5.76006 47.4 5.76006 44.26 6.71006L6.18 18.1801C1.53 19.5801 1.02 20.6001 1.14 21.4101C1.25 22.1601 1.93 22.9201 5.71 23.1301C5.55 23.3601 5.41 23.6101 5.31 23.8701C5.15 24.2801 5.06 24.7301 5.06 25.2001C5.06 27.0901 6.48 28.6201 8.22 28.6201H8.82V74.2201H2.96C1.33 74.2201 0 75.5401 0 77.1801V81.7501H31.1L30.61 83.5601H65.44V82.1501H32.45L32.56 81.7501L34.2 75.6701H65.44V74.2201H56.07V28.6401H66.75V54.4101C66.97 54.3001 67.2 54.2201 67.45 54.1701C67.58 54.1501 67.72 54.1301 67.86 54.1301H68.15V28.6401H68.76C69.63 28.6401 70.42 28.2601 70.99 27.6401C71.56 27.0201 71.91 26.1601 71.91 25.2201C71.91 24.4701 71.68 23.7701 71.3 23.2101H74.44C74.18 23.6001 73.99 24.0501 73.9 24.5301C73.86 24.7501 73.84 24.9801 73.84 25.2201C73.84 27.1101 75.26 28.6401 77 28.6401H77.6V54.1301H79.01V28.6401H89.69V54.1301H91.1V28.6401H91.71C92.69 28.6401 93.56 28.1501 94.14 27.3901C94.59 26.8001 94.86 26.0401 94.86 25.2101C94.86 24.4301 94.62 23.7101 94.21 23.1401C97.99 22.9201 98.67 22.1601 98.78 21.4201C98.9 20.6101 98.4 19.5901 93.74 18.1901L93.73 18.1801ZM54.67 74.2701H45.24V28.6401H45.85C46.83 28.6401 47.7 28.1501 48.28 27.3901C48.73 26.8001 49 26.0401 49 25.2101C49 24.4601 48.77 23.7601 48.39 23.2001H51.53C51.27 23.5901 51.08 24.0401 50.99 24.5201C50.95 24.7401 50.93 24.9701 50.93 25.2101C50.93 27.1001 52.35 28.6301 54.09 28.6301H54.69V74.2601L54.67 74.2701ZM1.41 77.1901C1.41 76.3301 2.11 75.6301 2.97 75.6301L32.76 75.6701L31.5 80.3401H1.41V77.1801V77.1901ZM55.24 8.06006L93.32 19.5301C96.05 20.3501 96.96 20.9401 97.25 21.2001C96.85 21.3901 95.57 21.8001 91.82 21.8001H91.71C91.71 21.8001 91.7 21.8001 91.69 21.8001H76.99C76.99 21.8001 76.98 21.8001 76.97 21.8001H68.78C68.78 21.8001 68.77 21.8001 68.76 21.8001H54.06C54.06 21.8001 54.05 21.8001 54.04 21.8001H45.85C45.85 21.8001 45.84 21.8001 45.83 21.8001H31.13C31.13 21.8001 31.12 21.8001 31.11 21.8001H22.92C22.92 21.8001 22.91 21.8001 22.9 21.8001H8.2C8.2 21.8001 8.19 21.8001 8.18 21.8001H8.07C4.32 21.8001 3.04 21.4001 2.64 21.2001C2.93 20.9401 3.84 20.3501 6.57 19.5301L44.66 8.06006C47.58 7.18006 52.32 7.18006 55.24 8.06006ZM10.22 28.6401H20.9V74.2301H10.22V28.6401ZM47.07 26.6401C46.75 27.0001 46.32 27.2301 45.84 27.2301H31.14C30.18 27.2301 29.39 26.3301 29.39 25.2101C29.39 25.0001 29.42 24.8001 29.47 24.6101C29.5 24.5101 29.53 24.4101 29.57 24.3101C29.61 24.2201 29.66 24.1301 29.71 24.0401C29.71 24.0401 29.72 24.0201 29.73 24.0101C29.78 23.9401 29.83 23.8601 29.89 23.8001C29.9 23.7801 29.92 23.7701 29.93 23.7601C29.98 23.7001 30.03 23.6501 30.09 23.6001C30.11 23.5801 30.14 23.5701 30.16 23.5501C30.21 23.5101 30.26 23.4701 30.32 23.4301C30.35 23.4101 30.38 23.4001 30.42 23.3801C30.47 23.3501 30.52 23.3201 30.58 23.3001C30.62 23.2901 30.66 23.2801 30.69 23.2701C30.74 23.2501 30.79 23.2401 30.85 23.2201C30.89 23.2201 30.93 23.2201 30.97 23.2101C31.03 23.2101 31.08 23.1901 31.14 23.1901H45.84C45.84 23.1901 45.91 23.1901 45.95 23.1901C45.98 23.1901 46 23.1901 46.03 23.1901C46.06 23.1901 46.09 23.2001 46.12 23.2101C46.15 23.2101 46.17 23.2101 46.2 23.2301C46.23 23.2301 46.26 23.2501 46.29 23.2601C46.32 23.2601 46.34 23.2701 46.37 23.2801C46.4 23.2901 46.43 23.3101 46.46 23.3201C46.48 23.3201 46.51 23.3401 46.53 23.3501C46.56 23.3701 46.6 23.3901 46.63 23.4101C46.65 23.4101 46.66 23.4301 46.68 23.4401C46.72 23.4701 46.76 23.4901 46.8 23.5201C46.8 23.5201 46.82 23.5301 46.83 23.5401C47.29 23.9001 47.6 24.5101 47.6 25.2101C47.6 25.7701 47.4 26.2701 47.09 26.6301L47.07 26.6401ZM6.8 24.0301C6.8 24.0301 6.8 24.0301 6.81 24.0201C6.85 23.9501 6.9 23.8901 6.95 23.8301C6.95 23.8201 6.97 23.8101 6.98 23.8001C7.03 23.7501 7.07 23.7001 7.12 23.6501C7.14 23.6301 7.15 23.6201 7.17 23.6101C7.21 23.5701 7.26 23.5301 7.31 23.5001C7.33 23.4801 7.36 23.4701 7.38 23.4501C7.42 23.4201 7.47 23.3901 7.51 23.3701C7.54 23.3501 7.57 23.3401 7.6 23.3301C7.64 23.3101 7.68 23.2901 7.73 23.2801C7.76 23.2701 7.8 23.2601 7.83 23.2501C7.87 23.2401 7.92 23.2301 7.96 23.2201C7.99 23.2201 8.03 23.2201 8.07 23.2201C8.12 23.2201 8.17 23.2101 8.21 23.2101H22.91C22.91 23.2101 22.98 23.2101 23.02 23.2101C23.05 23.2101 23.07 23.2101 23.1 23.2101C23.13 23.2101 23.16 23.2201 23.19 23.2301C23.22 23.2301 23.24 23.2301 23.27 23.2401C23.3 23.2401 23.33 23.2601 23.36 23.2701C23.38 23.2701 23.41 23.2801 23.43 23.2901C23.46 23.3001 23.49 23.3201 23.53 23.3301C23.55 23.3301 23.57 23.3501 23.59 23.3601C23.63 23.3801 23.66 23.4001 23.7 23.4201C23.71 23.4201 23.73 23.4301 23.74 23.4401C23.78 23.4701 23.83 23.5001 23.87 23.5301C23.87 23.5301 23.87 23.5301 23.88 23.5401C24.34 23.9001 24.65 24.5101 24.65 25.2101C24.65 25.8301 24.4 26.3901 24.02 26.7601C23.72 27.0501 23.33 27.2201 22.91 27.2201H8.21C7.25 27.2201 6.46 26.3201 6.46 25.2001C6.46 24.8501 6.54 24.5301 6.67 24.2401C6.71 24.1601 6.75 24.0901 6.79 24.0101L6.8 24.0301ZM22.31 28.6401H22.92C23.79 28.6401 24.58 28.2601 25.15 27.6401C25.72 27.0201 26.07 26.1601 26.07 25.2201C26.07 24.4701 25.84 23.7701 25.46 23.2101H28.6C28.34 23.6001 28.15 24.0501 28.06 24.5301C28.02 24.7501 28 24.9801 28 25.2201C28 27.1101 29.42 28.6401 31.16 28.6401H31.76V74.2701H22.33V28.6401H22.31ZM43.83 74.2301H33.15V28.6401H43.83V74.2301ZM54.07 27.2301C53.11 27.2301 52.32 26.3301 52.32 25.2101C52.32 25.0001 52.35 24.8001 52.4 24.6101C52.43 24.5101 52.46 24.4101 52.5 24.3101C52.54 24.2201 52.59 24.1301 52.64 24.0401C52.64 24.0401 52.65 24.0201 52.66 24.0101C52.71 23.9401 52.76 23.8601 52.82 23.8001C52.83 23.7801 52.85 23.7701 52.86 23.7601C52.91 23.7001 52.96 23.6501 53.02 23.6001C53.04 23.5801 53.07 23.5701 53.09 23.5501C53.14 23.5101 53.19 23.4701 53.25 23.4301C53.28 23.4101 53.31 23.4001 53.35 23.3801C53.4 23.3501 53.45 23.3201 53.51 23.3001C53.55 23.2901 53.59 23.2801 53.62 23.2701C53.67 23.2501 53.72 23.2401 53.78 23.2201C53.82 23.2201 53.86 23.2201 53.9 23.2101C53.96 23.2101 54.01 23.1901 54.07 23.1901H68.77C68.77 23.1901 68.84 23.1901 68.88 23.1901C68.91 23.1901 68.93 23.1901 68.96 23.1901C68.99 23.1901 69.02 23.2001 69.05 23.2101C69.08 23.2101 69.1 23.2101 69.13 23.2201C69.16 23.2201 69.19 23.2401 69.22 23.2501C69.24 23.2501 69.27 23.2601 69.29 23.2701C69.32 23.2801 69.35 23.3001 69.39 23.3101C69.41 23.3101 69.43 23.3301 69.45 23.3401C69.49 23.3601 69.52 23.3801 69.56 23.4001C69.57 23.4001 69.59 23.4101 69.6 23.4201C69.64 23.4501 69.69 23.4801 69.73 23.5101C69.73 23.5101 69.73 23.5101 69.74 23.5201C70.2 23.8801 70.51 24.4901 70.51 25.1901C70.51 25.8101 70.26 26.3701 69.88 26.7401C69.58 27.0301 69.19 27.2001 68.77 27.2001H54.07V27.2301ZM77 27.2301C76.04 27.2301 75.25 26.3301 75.25 25.2101C75.25 25.0001 75.28 24.8001 75.33 24.6101C75.36 24.5101 75.39 24.4101 75.43 24.3101C75.47 24.2201 75.52 24.1301 75.57 24.0401C75.57 24.0401 75.58 24.0201 75.59 24.0101C75.64 23.9401 75.69 23.8601 75.75 23.8001C75.76 23.7801 75.78 23.7701 75.79 23.7601C75.84 23.7001 75.89 23.6501 75.95 23.6001C75.97 23.5801 76 23.5701 76.02 23.5501C76.07 23.5101 76.12 23.4701 76.18 23.4301C76.21 23.4101 76.24 23.4001 76.28 23.3801C76.33 23.3501 76.38 23.3201 76.44 23.3001C76.48 23.2901 76.52 23.2801 76.55 23.2701C76.6 23.2501 76.65 23.2401 76.71 23.2201C76.75 23.2201 76.79 23.2201 76.83 23.2101C76.89 23.2101 76.94 23.1901 77 23.1901H91.7C91.7 23.1901 91.77 23.1901 91.81 23.1901C91.84 23.1901 91.86 23.1901 91.89 23.1901C91.92 23.1901 91.95 23.2001 91.98 23.2101C92.01 23.2101 92.03 23.2101 92.06 23.2301C92.09 23.2301 92.12 23.2501 92.15 23.2601C92.18 23.2601 92.2 23.2701 92.23 23.2801C92.26 23.2901 92.29 23.3101 92.32 23.3201C92.34 23.3201 92.37 23.3401 92.39 23.3501C92.42 23.3701 92.46 23.3901 92.49 23.4101C92.51 23.4101 92.52 23.4301 92.54 23.4401C92.58 23.4701 92.62 23.4901 92.66 23.5201C92.66 23.5201 92.68 23.5301 92.69 23.5401C93.15 23.9001 93.46 24.5101 93.46 25.2101C93.46 25.7701 93.26 26.2701 92.95 26.6301C92.63 26.9901 92.2 27.2201 91.72 27.2201H77.02L77 27.2301Z" fill="#2D557F"/>
  <path d="M97.57 54.13H67.88C67.74 54.13 67.6 54.14 67.47 54.17C67.22 54.21 66.98 54.29 66.77 54.41C65.99 54.82 65.46 55.63 65.46 56.57V91.78C65.46 93.12 66.55 94.21 67.89 94.21H97.58C98.92 94.21 100.01 93.12 100.01 91.78V56.57C100.01 55.23 98.92 54.14 97.58 54.14L97.57 54.13ZM98.59 91.77C98.59 92.33 98.13 92.79 97.57 92.79H67.88C67.31 92.79 66.86 92.33 66.86 91.77V79.94V77.24V56.55C66.86 56.13 67.11 55.77 67.47 55.61C67.6 55.55 67.74 55.52 67.88 55.52H97.57C98.14 55.52 98.59 55.98 98.59 56.54V91.75V91.77Z" fill="#4279B6"/>
  <path d="M91.53 62.63H73.92C73.61 62.63 73.36 62.88 73.36 63.19C73.36 63.5 73.61 63.75 73.92 63.75H91.53C91.84 63.75 92.09 63.5 92.09 63.19C92.09 62.88 91.84 62.63 91.53 62.63Z" fill="#4279B6"/>
  <path d="M91.53 68.12H73.92C73.61 68.12 73.36 68.37 73.36 68.68C73.36 68.99 73.61 69.24 73.92 69.24H91.53C91.84 69.24 92.09 68.99 92.09 68.68C92.09 68.37 91.84 68.12 91.53 68.12Z" fill="#4279B6"/>
  <path d="M91.53 73.61H73.92C73.61 73.61 73.36 73.86 73.36 74.17C73.36 74.2 73.36 74.23 73.36 74.26C73.4 74.53 73.63 74.73 73.91 74.73H91.52C91.81 74.73 92.04 74.51 92.08 74.23C92.08 74.21 92.08 74.19 92.08 74.16C92.08 73.85 91.83 73.6 91.52 73.6L91.53 73.61Z" fill="#4279B6"/>
  <path d="M91.53 79.09H73.92C73.61 79.09 73.36 79.34 73.36 79.65C73.36 79.96 73.61 80.21 73.92 80.21H91.53C91.84 80.21 92.09 79.96 92.09 79.65C92.09 79.34 91.84 79.09 91.53 79.09Z" fill="#4279B6"/>
  <path d="M81.06 84.58H73.92C73.61 84.58 73.36 84.83 73.36 85.14C73.36 85.45 73.61 85.7 73.92 85.7H81.06C81.37 85.7 81.62 85.45 81.62 85.14C81.62 84.83 81.37 84.58 81.06 84.58Z" fill="#4279B6"/>
</svg>
