<svg xmlns="http://www.w3.org/2000/svg" width="100" height="100" viewBox="0 0 100 100" fill="none">
  <path d="M8.09002 27.51H91.91C99.53 27.51 100.3 25.88 93.62 23.86L55.5 12.39C52.47 11.48 47.54 11.48 44.51 12.39L6.39002 23.87C-0.289981 25.88 0.470019 27.52 8.09002 27.52V27.51Z" fill="#4279B6"/>
  <path d="M91.91 28.2201H8.09004C2.20004 28.2201 1.27004 27.3201 1.14004 26.4301C1.02004 25.6201 1.53004 24.6001 6.18004 23.1901L44.3 11.7101C47.44 10.7601 52.56 10.7601 55.7 11.7101L93.82 23.1901C98.48 24.5901 98.98 25.6101 98.86 26.4301C98.73 27.3101 97.8 28.2201 91.91 28.2201ZM2.66004 26.2101C3.06004 26.4001 4.34004 26.8101 8.10004 26.8101H91.92C95.67 26.8101 96.96 26.4101 97.36 26.2101C97.07 25.9501 96.16 25.3601 93.43 24.5401L55.29 13.0601C52.37 12.1801 47.62 12.1801 44.7 13.0601L6.59004 24.5401C3.86004 25.3601 2.95004 25.9501 2.65004 26.2101H2.66004Z" fill="#0E1721"/>
  <path d="M0.699951 82.26V86.12H32.13L33.7 80.04L2.96995 80C1.71995 80 0.709951 81.02 0.709951 82.26H0.699951Z" fill="#FCCD2A"/>
  <path d="M32.13 86.83H0.7C0.31 86.83 0 86.51 0 86.13V82.27C0 80.63 1.33 79.3 2.97 79.3L33.7 79.34C33.92 79.34 34.12 79.44 34.26 79.61C34.4 79.78 34.44 80.01 34.39 80.22L32.82 86.3C32.74 86.61 32.46 86.83 32.14 86.83H32.13ZM1.41 85.42H31.59L32.79 80.74L2.97 80.7C2.11 80.7 1.41 81.4 1.41 82.26V85.42Z" fill="#0E1721"/>
  <path d="M97.03 79.99L66.29 80.03L67.93 86.11H99.29V82.25C99.29 81 98.28 79.99 97.03 79.99Z" fill="#FCCD2A"/>
  <path d="M99.3 86.83H67.94C67.62 86.83 67.34 86.62 67.26 86.31L65.62 80.23C65.56 80.02 65.61 79.79 65.74 79.62C65.87 79.45 66.08 79.34 66.3 79.34L97.04 79.3C98.68 79.3 100.01 80.63 100.01 82.27V86.13C100.01 86.52 99.69 86.83 99.31 86.83H99.3ZM68.48 85.42H98.59V82.26C98.59 81.4 97.89 80.7 97.03 80.7L67.21 80.74L68.47 85.42H68.48Z" fill="#0E1721"/>
  <path d="M71.2799 30.23C71.2799 28.73 70.1799 27.51 68.8299 27.51H54.1199C52.7699 27.51 51.6699 28.73 51.6699 30.23C51.6699 31.73 52.7699 32.95 54.1199 32.95H55.4299V79.99H67.5299V32.95H68.8399C70.1899 32.95 71.2899 31.73 71.2899 30.23H71.2799Z" fill="#4279B6"/>
  <path d="M67.52 80.7001H55.42C55.03 80.7001 54.72 80.3801 54.72 80.0001V33.6601H54.12C52.38 33.6601 50.96 32.1201 50.96 30.2401C50.96 28.3601 52.38 26.8201 54.12 26.8201H68.83C70.57 26.8201 71.98 28.3601 71.98 30.2401C71.98 32.1201 70.57 33.6601 68.83 33.6601H68.22V80.0001C68.22 80.3901 67.9 80.7001 67.52 80.7001ZM56.13 79.2901H66.82V32.9501C66.82 32.5601 67.14 32.2501 67.52 32.2501H68.83C69.79 32.2501 70.58 31.3501 70.58 30.2301C70.58 29.1101 69.8 28.2201 68.83 28.2201H54.12C53.16 28.2201 52.37 29.1201 52.37 30.2301C52.37 31.3401 53.15 32.2501 54.12 32.2501H55.43C55.82 32.2501 56.13 32.5701 56.13 32.9501V79.2901Z" fill="#0E1721"/>
  <path d="M33.7001 80.04L31.5601 87.93H68.4301L66.3001 80.04H33.7001Z" fill="#4279B6"/>
  <path d="M68.43 88.6401H31.56C31.34 88.6401 31.13 88.5401 31 88.3601C30.87 88.1901 30.82 87.9601 30.88 87.7501L33.0201 79.8601C33.1001 79.5501 33.3801 79.3401 33.7001 79.3401H66.3001C66.6201 79.3401 66.9001 79.5501 66.9801 79.8601L69.1101 87.7501C69.1701 87.9601 69.12 88.1901 68.99 88.3601C68.86 88.5301 68.6501 88.6401 68.43 88.6401ZM32.48 87.2301H67.5101L65.7601 80.7401H34.2401L32.4901 87.2301H32.48Z" fill="#0E1721"/>
  <path d="M71.2799 30.23C71.2799 31.73 70.1799 32.95 68.8299 32.95H54.1199C52.7699 32.95 51.6699 31.73 51.6699 30.23C51.6699 28.73 52.7699 27.51 54.1199 27.51H68.8299C70.1799 27.51 71.2799 28.73 71.2799 30.23Z" fill="#FCCD2A"/>
  <path d="M68.83 33.6601H54.12C52.38 33.6601 50.96 32.1201 50.96 30.2301C50.96 28.3401 52.38 26.8101 54.12 26.8101H68.83C70.57 26.8101 71.98 28.3501 71.98 30.2301C71.98 32.1101 70.56 33.6601 68.83 33.6601ZM54.12 28.2201C53.16 28.2201 52.37 29.1201 52.37 30.2301C52.37 31.3401 53.15 32.2501 54.12 32.2501H68.83C69.79 32.2501 70.58 31.3501 70.58 30.2301C70.58 29.1101 69.8 28.2201 68.83 28.2201H54.12Z" fill="#0E1721"/>
  <path d="M67.52 80.7001H55.42C55.03 80.7001 54.72 80.3801 54.72 80.0001V33.6601H54.12C52.38 33.6601 50.96 32.1201 50.96 30.2401C50.96 28.3601 52.38 26.8201 54.12 26.8201H68.83C70.57 26.8201 71.98 28.3601 71.98 30.2401C71.98 32.1201 70.57 33.6601 68.83 33.6601H68.22V80.0001C68.22 80.3901 67.9 80.7001 67.52 80.7001ZM56.13 79.2901H66.82V32.9501C66.82 32.5601 67.14 32.2501 67.52 32.2501H68.83C69.79 32.2501 70.58 31.3501 70.58 30.2301C70.58 29.1101 69.8 28.2201 68.83 28.2201H54.12C53.16 28.2201 52.37 29.1201 52.37 30.2301C52.37 31.3401 53.15 32.2501 54.12 32.2501H55.43C55.82 32.2501 56.13 32.5701 56.13 32.9501V79.2901Z" fill="#0E1721"/>
  <path d="M94.23 30.23C94.23 28.73 93.13 27.51 91.78 27.51H77.07C75.72 27.51 74.62 28.73 74.62 30.23C74.62 31.73 75.72 32.95 77.07 32.95H78.38V79.99H90.48V32.95H91.79C93.14 32.95 94.24 31.73 94.24 30.23H94.23Z" fill="#4279B6"/>
  <path d="M90.47 80.7001H78.37C77.98 80.7001 77.67 80.3801 77.67 80.0001V33.6601H77.07C75.33 33.6601 73.91 32.1201 73.91 30.2401C73.91 28.3601 75.33 26.8201 77.07 26.8201H91.78C93.52 26.8201 94.93 28.3601 94.93 30.2401C94.93 32.1201 93.52 33.6601 91.78 33.6601H91.17V80.0001C91.17 80.3901 90.85 80.7001 90.47 80.7001ZM79.08 79.2901H89.77V32.9501C89.77 32.5601 90.09 32.2501 90.47 32.2501H91.78C92.74 32.2501 93.53 31.3501 93.53 30.2301C93.53 29.1101 92.75 28.2201 91.78 28.2201H77.07C76.11 28.2201 75.32 29.1201 75.32 30.2301C75.32 31.3401 76.1 32.2501 77.07 32.2501H78.38C78.77 32.2501 79.08 32.5701 79.08 32.9501V79.2901Z" fill="#0E1721"/>
  <path d="M94.23 30.23C94.23 31.73 93.13 32.95 91.78 32.95H77.07C75.72 32.95 74.62 31.73 74.62 30.23C74.62 28.73 75.72 27.51 77.07 27.51H91.78C93.13 27.51 94.23 28.73 94.23 30.23Z" fill="#FCCD2A"/>
  <path d="M91.78 33.6601H77.07C75.33 33.6601 73.91 32.1201 73.91 30.2301C73.91 28.3401 75.33 26.8101 77.07 26.8101H91.78C93.52 26.8101 94.93 28.3501 94.93 30.2301C94.93 32.1101 93.51 33.6601 91.78 33.6601ZM77.07 28.2201C76.11 28.2201 75.32 29.1201 75.32 30.2301C75.32 31.3401 76.1 32.2501 77.07 32.2501H91.78C92.74 32.2501 93.53 31.3501 93.53 30.2301C93.53 29.1101 92.75 28.2201 91.78 28.2201H77.07Z" fill="#0E1721"/>
  <path d="M90.47 80.7001H78.37C77.98 80.7001 77.67 80.3801 77.67 80.0001V33.6601H77.07C75.33 33.6601 73.91 32.1201 73.91 30.2401C73.91 28.3601 75.33 26.8201 77.07 26.8201H91.78C93.52 26.8201 94.93 28.3601 94.93 30.2401C94.93 32.1201 93.52 33.6601 91.78 33.6601H91.17V80.0001C91.17 80.3901 90.85 80.7001 90.47 80.7001ZM79.08 79.2901H89.77V32.9501C89.77 32.5601 90.09 32.2501 90.47 32.2501H91.78C92.74 32.2501 93.53 31.3501 93.53 30.2301C93.53 29.1101 92.75 28.2201 91.78 28.2201H77.07C76.11 28.2201 75.32 29.1201 75.32 30.2301C75.32 31.3401 76.1 32.2501 77.07 32.2501H78.38C78.77 32.2501 79.08 32.5701 79.08 32.9501V79.2901Z" fill="#0E1721"/>
  <path d="M48.33 30.23C48.33 28.73 47.23 27.51 45.88 27.51H31.17C29.82 27.51 28.72 28.73 28.72 30.23C28.72 31.73 29.82 32.95 31.17 32.95H32.48V79.99H44.58V32.95H45.89C47.24 32.95 48.34 31.73 48.34 30.23H48.33Z" fill="#4279B6"/>
  <path d="M44.57 80.7001H32.47C32.08 80.7001 31.77 80.3801 31.77 80.0001V33.6601H31.17C29.43 33.6601 28.01 32.1201 28.01 30.2401C28.01 28.3601 29.43 26.8201 31.17 26.8201H45.88C47.62 26.8201 49.03 28.3601 49.03 30.2401C49.03 32.1201 47.62 33.6601 45.88 33.6601H45.27V80.0001C45.27 80.3901 44.95 80.7001 44.57 80.7001ZM33.18 79.2901H43.87V32.9501C43.87 32.5601 44.19 32.2501 44.57 32.2501H45.88C46.84 32.2501 47.63 31.3501 47.63 30.2301C47.63 29.1101 46.85 28.2201 45.88 28.2201H31.17C30.21 28.2201 29.42 29.1201 29.42 30.2301C29.42 31.3401 30.2 32.2501 31.17 32.2501H32.48C32.87 32.2501 33.18 32.5701 33.18 32.9501V79.2901Z" fill="#0E1721"/>
  <path d="M48.33 30.23C48.33 31.73 47.23 32.95 45.88 32.95H31.17C29.82 32.95 28.72 31.73 28.72 30.23C28.72 28.73 29.82 27.51 31.17 27.51H45.88C47.23 27.51 48.33 28.73 48.33 30.23Z" fill="#FCCD2A"/>
  <path d="M45.88 33.6601H31.17C29.43 33.6601 28.01 32.1201 28.01 30.2301C28.01 28.3401 29.43 26.8101 31.17 26.8101H45.88C47.62 26.8101 49.03 28.3501 49.03 30.2301C49.03 32.1101 47.61 33.6601 45.88 33.6601ZM31.17 28.2201C30.21 28.2201 29.42 29.1201 29.42 30.2301C29.42 31.3401 30.2 32.2501 31.17 32.2501H45.88C46.84 32.2501 47.63 31.3501 47.63 30.2301C47.63 29.1101 46.85 28.2201 45.88 28.2201H31.17Z" fill="#0E1721"/>
  <path d="M44.57 80.7001H32.47C32.08 80.7001 31.77 80.3801 31.77 80.0001V33.6601H31.17C29.43 33.6601 28.01 32.1201 28.01 30.2401C28.01 28.3601 29.43 26.8201 31.17 26.8201H45.88C47.62 26.8201 49.03 28.3601 49.03 30.2401C49.03 32.1201 47.62 33.6601 45.88 33.6601H45.27V80.0001C45.27 80.3901 44.95 80.7001 44.57 80.7001ZM33.18 79.2901H43.87V32.9501C43.87 32.5601 44.19 32.2501 44.57 32.2501H45.88C46.84 32.2501 47.63 31.3501 47.63 30.2301C47.63 29.1101 46.85 28.2201 45.88 28.2201H31.17C30.21 28.2201 29.42 29.1201 29.42 30.2301C29.42 31.3401 30.2 32.2501 31.17 32.2501H32.48C32.87 32.2501 33.18 32.5701 33.18 32.9501V79.2901Z" fill="#0E1721"/>
  <path d="M25.38 30.23C25.38 28.73 24.28 27.51 22.93 27.51H8.22002C6.87002 27.51 5.77002 28.73 5.77002 30.23C5.77002 31.73 6.87002 32.95 8.22002 32.95H9.53002V79.99H21.63V32.95H22.94C24.29 32.95 25.39 31.73 25.39 30.23H25.38Z" fill="#4279B6"/>
  <path d="M21.6201 80.7001H9.52006C9.13006 80.7001 8.82006 80.3801 8.82006 80.0001V33.6601H8.22006C6.48006 33.6601 5.06006 32.1201 5.06006 30.2401C5.06006 28.3601 6.48006 26.8201 8.22006 26.8201H22.9301C24.6701 26.8201 26.0801 28.3601 26.0801 30.2401C26.0801 32.1201 24.6701 33.6601 22.9301 33.6601H22.3201V80.0001C22.3201 80.3901 22.0001 80.7001 21.6201 80.7001ZM10.2301 79.2901H20.9201V32.9501C20.9201 32.5601 21.2401 32.2501 21.6201 32.2501H22.9301C23.8901 32.2501 24.6701 31.3501 24.6701 30.2301C24.6701 29.1101 23.8901 28.2201 22.9301 28.2201H8.22006C7.26006 28.2201 6.47006 29.1201 6.47006 30.2301C6.47006 31.3401 7.25006 32.2501 8.22006 32.2501H9.53006C9.92006 32.2501 10.2301 32.5701 10.2301 32.9501V79.2901Z" fill="#0E1721"/>
  <path d="M25.38 30.23C25.38 31.73 24.28 32.95 22.93 32.95H8.22002C6.87002 32.95 5.77002 31.73 5.77002 30.23C5.77002 28.73 6.87002 27.51 8.22002 27.51H22.93C24.28 27.51 25.38 28.73 25.38 30.23Z" fill="#FCCD2A"/>
  <path d="M22.9301 33.6601H8.22006C6.48006 33.6601 5.06006 32.1201 5.06006 30.2301C5.06006 28.3401 6.48006 26.8101 8.22006 26.8101H22.9301C24.6701 26.8101 26.0801 28.3501 26.0801 30.2301C26.0801 32.1101 24.6601 33.6601 22.9301 33.6601ZM8.22006 28.2201C7.26006 28.2201 6.47006 29.1201 6.47006 30.2301C6.47006 31.3401 7.25006 32.2501 8.22006 32.2501H22.9301C23.8901 32.2501 24.6801 31.3501 24.6801 30.2301C24.6801 29.1101 23.9001 28.2201 22.9301 28.2201H8.22006Z" fill="#0E1721"/>
  <path d="M21.6201 80.7001H9.52006C9.13006 80.7001 8.82006 80.3801 8.82006 80.0001V33.6601H8.22006C6.48006 33.6601 5.06006 32.1201 5.06006 30.2401C5.06006 28.3601 6.48006 26.8201 8.22006 26.8201H22.9301C24.6701 26.8201 26.0801 28.3601 26.0801 30.2401C26.0801 32.1201 24.6701 33.6601 22.9301 33.6601H22.3201V80.0001C22.3201 80.3901 22.0001 80.7001 21.6201 80.7001ZM10.2301 79.2901H20.9201V32.9501C20.9201 32.5601 21.2401 32.2501 21.6201 32.2501H22.9301C23.8901 32.2501 24.6701 31.3501 24.6701 30.2301C24.6701 29.1101 23.8901 28.2201 22.9301 28.2201H8.22006C7.26006 28.2201 6.47006 29.1201 6.47006 30.2301C6.47006 31.3401 7.25006 32.2501 8.22006 32.2501H9.53006C9.92006 32.2501 10.2301 32.5701 10.2301 32.9501V79.2901Z" fill="#0E1721"/>
  <path d="M77.35 78.1899L66.46 67.2999C66.26 67.0999 65.97 66.9699 65.66 66.9699C65.35 66.9699 65.07 67.0999 64.87 67.2999L64.57 67.5999L62.04 65.0699L59.77 67.3399L62.3 69.8699L62 70.1699C61.8 70.3699 61.67 70.6499 61.67 70.9599C61.67 71.2699 61.8 71.5499 62 71.7599L72.89 82.6499C74.12 83.8799 76.11 83.8799 77.35 82.6499C78.58 81.4199 78.58 79.4199 77.35 78.1899Z" fill="#FC8B27"/>
  <path d="M75.11 84.2699C74.12 84.2699 73.14 83.8899 72.39 83.1399L61.5 72.2499C61.15 71.8999 60.96 71.4399 60.96 70.9499C60.96 70.5599 61.08 70.1799 61.31 69.8699L58.77 67.3299L62.03 64.0699L64.57 66.6099C64.88 66.3799 65.25 66.2599 65.65 66.2599C66.14 66.2599 66.6 66.4499 66.94 66.7999L77.83 77.6899C79.33 79.1899 79.33 81.6399 77.83 83.1399C77.08 83.8899 76.09 84.2699 75.1 84.2699H75.11ZM60.77 67.3399L63.3 69.8699L62.5 70.6699C62.42 70.7499 62.38 70.8499 62.38 70.9599C62.38 71.1099 62.46 71.2099 62.5 71.2599L73.39 82.1499C74.34 83.0999 75.9 83.0999 76.85 82.1499C77.81 81.1899 77.81 79.6399 76.85 78.6899L65.96 67.7999C65.88 67.7199 65.77 67.6799 65.66 67.6799C65.51 67.6799 65.41 67.7599 65.37 67.7999L64.57 68.5999L62.04 66.0699L60.77 67.3399Z" fill="#0E1721"/>
  <path d="M37.5699 42.88C30.9799 49.47 30.9799 60.16 37.5699 66.75C44.1599 73.34 54.8399 73.34 61.4399 66.75C68.0299 60.16 68.0299 49.48 61.4399 42.88C54.8499 36.29 44.1599 36.29 37.5699 42.88Z" fill="#FC8B27"/>
  <path d="M49.51 72.38C45.01 72.38 40.51 70.67 37.08 67.24C30.23 60.39 30.23 49.23 37.08 42.38C40.4 39.06 44.81 37.23 49.51 37.23C54.21 37.23 58.62 39.06 61.94 42.38C65.26 45.7 67.09 50.12 67.09 54.81C67.09 59.51 65.26 63.92 61.94 67.24C58.51 70.67 54.01 72.38 49.51 72.38ZM49.51 38.64C45.19 38.64 41.13 40.32 38.08 43.38C31.77 49.69 31.77 59.95 38.08 66.25C44.39 72.56 54.64 72.55 60.95 66.25C64 63.2 65.69 59.14 65.69 54.82C65.69 50.5 64.01 46.44 60.95 43.38C57.9 40.33 53.83 38.64 49.52 38.64H49.51Z" fill="#0E1721"/>
  <path d="M57.8701 63.1801C53.2501 67.8001 45.7601 67.8001 41.1401 63.1801C39.5401 61.5801 38.4901 59.6301 38.0001 57.5701C37.2201 54.2901 37.8501 50.7401 39.9101 47.9001C40.2801 47.3901 40.6901 46.9101 41.1401 46.4501C45.7601 41.8301 53.2501 41.8201 57.8701 46.4501C62.4901 51.0801 62.4901 58.5601 57.8701 63.1801Z" fill="white"/>
  <path d="M49.5101 67.34C46.3001 67.34 43.0901 66.12 40.6501 63.67C39.0101 62.03 37.8601 59.97 37.3201 57.73C36.4701 54.17 37.2101 50.43 39.3401 47.48C39.7301 46.94 40.1701 46.42 40.6501 45.95C43.0201 43.58 46.1701 42.28 49.5101 42.28C52.8601 42.28 56.0001 43.58 58.3701 45.95C60.7401 48.32 62.0401 51.47 62.0401 54.82C62.0401 58.17 60.7301 61.32 58.3701 63.68C55.9301 66.12 52.7201 67.34 49.5101 67.34ZM49.5101 43.69C46.6601 43.69 43.8101 44.78 41.6401 46.95C41.2201 47.37 40.8301 47.83 40.4801 48.31C38.5901 50.93 37.9301 54.25 38.6901 57.41C39.1701 59.4 40.1901 61.23 41.6401 62.68C45.9801 67.02 53.0401 67.02 57.3701 62.68C59.4701 60.58 60.6301 57.78 60.6301 54.81C60.6301 51.84 59.4701 49.04 57.3701 46.94C55.2701 44.84 52.3501 43.69 49.5101 43.69Z" fill="#0E1721"/>
</svg>
