<svg xmlns="http://www.w3.org/2000/svg" width="100" height="100" viewBox="0 0 100 100" fill="none">
  <path d="M50.2099 22.8H12.6899V70.4801H50.2099V22.8Z" fill="#FCCD2A"/>
  <path d="M87.42 28.74H50.21V75.97H87.42V28.74Z" fill="#3C8645"/>
  <path d="M50.21 75.97H64.61L67.65 74.45H97.74C98.2 74.45 98.63 74.65 98.92 75.01C99.21 75.36 99.32 75.83 99.24 76.27L98.82 78.39C98.39 80.52 96.52 82.06 94.34 82.06H50.22V75.97H50.21Z" fill="#4279B6"/>
  <path d="M94.34 82.79H49.48V75.24H64.44L67.48 73.72H97.74C98.42 73.72 99.05 74.02 99.48 74.55C99.91 75.07 100.08 75.76 99.95 76.42L99.53 78.54C99.04 81.01 96.85 82.8 94.33 82.8L94.34 82.79ZM50.95 81.32H94.34C96.16 81.32 97.74 80.03 98.09 78.24L98.51 76.12C98.56 75.89 98.5 75.65 98.35 75.47C98.2 75.29 97.98 75.18 97.74 75.18H67.82L64.78 76.7H50.94V81.32H50.95Z" fill="#0E1721"/>
  <path d="M50.2099 76.62H5.70993C3.50993 76.62 1.61993 75.07 1.18993 72.92L0.759926 70.78C0.669926 70.33 0.789926 69.86 1.07993 69.51C1.36993 69.15 1.80993 68.95 2.26993 68.95H32.6499L35.7199 70.49H50.2099V76.63V76.62Z" fill="#4279B6"/>
  <path d="M50.95 77.36H5.70998C3.16998 77.36 0.96998 75.55 0.46998 73.07L0.0399804 70.93C-0.0900196 70.26 0.0799804 69.57 0.50998 69.05C0.93998 68.52 1.57998 68.22 2.26998 68.22H32.82L35.89 69.76H50.94V77.37L50.95 77.36ZM2.26998 69.68C2.02998 69.68 1.79998 69.79 1.64998 69.97C1.49998 70.16 1.43998 70.4 1.47998 70.64L1.90998 72.78C2.26998 74.58 3.86998 75.89 5.70998 75.89H49.48V71.22H35.55L32.48 69.68H2.26998Z" fill="#0E1721"/>
  <path d="M50.21 22.8H15.38C13.89 22.8 12.69 24.01 12.69 25.49V68.94H7.53003V21.99C7.53003 19.45 9.59003 17.38 12.14 17.38H50.21V22.8Z" fill="#4279B6"/>
  <path d="M13.42 69.68H6.79004V21.99C6.79004 19.04 9.19004 16.65 12.13 16.65H50.94V23.54H15.38C14.3 23.54 13.42 24.42 13.42 25.5V69.69V69.68ZM8.27004 68.21H11.96V25.49C11.96 23.6 13.5 22.06 15.39 22.06H49.49V18.11H12.14C10 18.11 8.27004 19.85 8.27004 21.98V68.2V68.21Z" fill="#0E1721"/>
  <path d="M50.21 28.74H84.75C86.22 28.74 87.42 29.93 87.42 31.41V74.45H92.54V27.64C92.54 25.12 90.5 23.08 87.98 23.08H50.22V28.75L50.21 28.74Z" fill="#4279B6"/>
  <path d="M93.27 75.18H86.68V31.41C86.68 30.34 85.81 29.48 84.75 29.48H49.47V22.34H87.97C90.89 22.34 93.27 24.72 93.27 27.64V75.19V75.18ZM88.16 73.72H91.81V27.64C91.81 25.53 90.09 23.81 87.98 23.81H50.95V28.01H84.76C86.64 28.01 88.16 29.54 88.16 31.41V73.71V73.72Z" fill="#0E1721"/>
  <path d="M50.21 95.54C49.8 95.54 49.48 95.21 49.48 94.81V4.73C49.48 4.32 49.81 4 50.21 4C50.61 4 50.94 4.33 50.94 4.73V94.8C50.94 95.21 50.61 95.53 50.21 95.53V95.54Z" fill="#0E1721"/>
  <path d="M34.96 43.1599V36.6799H27.95V43.1599H23.17L31.45 54.6299L39.73 43.1599H34.96Z" fill="white"/>
  <path d="M31.45 55.37C31.21 55.37 30.99 55.26 30.85 55.07L22.57 43.6C22.41 43.38 22.39 43.08 22.51 42.84C22.63 42.6 22.89 42.44 23.16 42.44H27.2V36.69C27.2 36.28 27.53 35.96 27.93 35.96H34.94C35.35 35.96 35.67 36.29 35.67 36.69V42.44H39.71C39.99 42.44 40.24 42.59 40.36 42.84C40.49 43.09 40.46 43.38 40.3 43.6L32.02 55.07C31.88 55.26 31.66 55.37 31.42 55.37H31.45ZM24.61 43.89L31.45 53.37L38.3 43.89H34.96C34.55 43.89 34.23 43.56 34.23 43.16V37.41H28.69V43.16C28.69 43.57 28.36 43.89 27.96 43.89H24.62H24.61Z" fill="#0E1721"/>
  <path d="M65.3099 54.09V60.57H72.3199V54.09H77.0999L68.8199 42.62L60.5399 54.09H65.3099Z" fill="white"/>
  <path d="M72.3199 61.31H65.3099C64.8999 61.31 64.58 60.98 64.58 60.58V54.83H60.5399C60.2599 54.83 60.0099 54.68 59.8899 54.43C59.7599 54.18 59.7899 53.89 59.9499 53.67L68.23 42.2C68.37 42.01 68.59 41.9 68.83 41.9C69.07 41.9 69.2899 42.01 69.4299 42.2L77.7099 53.67C77.8699 53.89 77.8899 54.19 77.7699 54.43C77.6499 54.67 77.39 54.83 77.12 54.83H73.08V60.58C73.08 60.99 72.7499 61.31 72.3499 61.31H72.3199ZM66.05 59.84H71.5899V54.09C71.5899 53.68 71.9199 53.36 72.3199 53.36H75.66L68.8199 43.88L61.9699 53.36H65.3099C65.7199 53.36 66.0399 53.69 66.0399 54.09V59.84H66.05Z" fill="#0E1721"/>
</svg>
