<svg xmlns="http://www.w3.org/2000/svg" width="100" height="100" viewBox="0 0 100 100" fill="none">
  <path d="M94.3399 82.79H54.9499V81.32H94.3399C96.1599 81.32 97.7399 80.03 98.0899 78.24L98.5099 76.12C98.5599 75.89 98.4999 75.65 98.3499 75.47C98.1999 75.29 97.9799 75.18 97.7399 75.18H67.8199L64.9299 76.62C64.8299 76.67 64.7199 76.7 64.5999 76.7H54.9399V75.23H64.4299L67.3199 73.79C67.4199 73.74 67.5299 73.71 67.6499 73.71H97.7399C98.4199 73.71 99.0499 74.01 99.4799 74.54C99.9099 75.06 100.08 75.75 99.9499 76.41L99.5299 78.53C99.0399 81 96.8499 82.79 94.3299 82.79H94.3399Z" fill="#4279B6"/>
  <path d="M45.47 77.36H5.70998C3.16998 77.36 0.96998 75.55 0.46998 73.07L0.0399804 70.93C-0.0900196 70.26 0.0799804 69.57 0.50998 69.05C0.93998 68.52 1.57998 68.22 2.26998 68.22H32.65C32.76 68.22 32.88 68.25 32.98 68.3L35.9 69.76H45.48V71.23H35.73C35.62 71.23 35.5 71.2 35.4 71.15L32.48 69.69H2.26998C2.02998 69.69 1.79998 69.8 1.64998 69.98C1.49998 70.17 1.43998 70.41 1.47998 70.65L1.90998 72.79C2.26998 74.59 3.86998 75.9 5.70998 75.9H45.47V77.37V77.36Z" fill="#4279B6"/>
  <path d="M93.2699 71H91.7999V27.64C91.7999 25.53 90.0799 23.81 87.9699 23.81H54.9399V22.34H87.9699C90.8899 22.34 93.2699 24.72 93.2699 27.64V71.01V71Z" fill="#4279B6"/>
  <path d="M8.27005 65.47H6.80005V21.99C6.80005 19.04 9.20005 16.65 12.14 16.65H45.4701V18.12H12.14C10 18.12 8.27005 19.86 8.27005 21.99V65.47Z" fill="#4279B6"/>
  <path d="M13.42 65.4701H11.95V25.4901C11.95 23.6001 13.49 22.0601 15.38 22.0601H45.47V23.5301H15.38C14.3 23.5301 13.42 24.4101 13.42 25.4901V65.4601V65.4701Z" fill="#4279B6"/>
  <path d="M88.16 71H86.69V31.41C86.69 30.34 85.82 29.48 84.76 29.48H54.95V28.01H84.76C86.64 28.01 88.16 29.54 88.16 31.41V71Z" fill="#4279B6"/>
  <path d="M50.21 95.54C49.8 95.54 49.48 95.21 49.48 94.81V4.73C49.48 4.32 49.81 4 50.21 4C50.61 4 50.94 4.33 50.94 4.73V94.8C50.94 95.21 50.61 95.53 50.21 95.53V95.54Z" fill="#2D557F"/>
  <path d="M28.8899 53.17C28.6499 53.17 28.4299 53.06 28.2899 52.87L20.0099 41.4C19.8499 41.18 19.8299 40.88 19.9499 40.64C20.0699 40.4 20.3299 40.24 20.5999 40.24H24.6399V34.49C24.6399 34.08 24.9699 33.76 25.3699 33.76H32.3799C32.7899 33.76 33.1099 34.09 33.1099 34.49V40.24H37.1499C37.4299 40.24 37.6799 40.39 37.7999 40.64C37.9299 40.89 37.8999 41.18 37.7399 41.4L29.4599 52.87C29.3199 53.06 29.0999 53.17 28.8599 53.17H28.8899ZM22.0399 41.69L28.8799 51.17L35.7299 41.69H32.3899C31.9799 41.69 31.6599 41.36 31.6599 40.96V35.21H26.1199V40.96C26.1199 41.37 25.7899 41.69 25.3899 41.69H22.0499H22.0399Z" fill="#2D557F"/>
  <path d="M75.04 59.4799H68.03C67.62 59.4799 67.3 59.1499 67.3 58.7499V52.9999H63.26C62.98 52.9999 62.73 52.8499 62.61 52.5999C62.48 52.3499 62.51 52.0599 62.67 51.8399L70.95 40.3699C71.09 40.1799 71.31 40.0699 71.55 40.0699C71.79 40.0699 72.01 40.1799 72.15 40.3699L80.43 51.8399C80.59 52.0599 80.61 52.3599 80.49 52.5999C80.37 52.8399 80.11 52.9999 79.84 52.9999H75.8V58.7499C75.8 59.1599 75.47 59.4799 75.07 59.4799H75.04ZM68.77 58.0099H74.31V52.2599C74.31 51.8499 74.64 51.5299 75.04 51.5299H78.38L71.54 42.0499L64.69 51.5299H68.03C68.44 51.5299 68.76 51.8599 68.76 52.2599V58.0099H68.77Z" fill="#2D557F"/>
</svg>
