<svg xmlns="http://www.w3.org/2000/svg" width="100" height="100" viewBox="0 0 100 100" fill="none">
  <path d="M94.3399 82.79H54.9499V81.32H94.3399C96.1599 81.32 97.7399 80.03 98.0899 78.24L98.5099 76.12C98.5599 75.89 98.4999 75.65 98.3499 75.47C98.1999 75.29 97.9799 75.18 97.7399 75.18H67.8199L64.9299 76.62C64.8299 76.67 64.7199 76.7 64.5999 76.7H54.9399V75.23H64.4299L67.3199 73.79C67.4199 73.74 67.5299 73.71 67.6499 73.71H97.7399C98.4199 73.71 99.0499 74.01 99.4799 74.54C99.9099 75.06 100.08 75.75 99.9499 76.41L99.5299 78.53C99.0399 81 96.8499 82.79 94.3299 82.79H94.3399Z" fill="#4279B6"/>
  <path d="M45.47 77.36H5.70998C3.16998 77.36 0.96998 75.55 0.46998 73.07L0.0399804 70.93C-0.0900196 70.26 0.0799804 69.57 0.50998 69.05C0.93998 68.52 1.57998 68.22 2.26998 68.22H32.65C32.76 68.22 32.88 68.25 32.98 68.3L35.9 69.76H45.48V71.23H35.73C35.62 71.23 35.5 71.2 35.4 71.15L32.48 69.69H2.26998C2.02998 69.69 1.79998 69.8 1.64998 69.98C1.49998 70.17 1.43998 70.41 1.47998 70.65L1.90998 72.79C2.26998 74.59 3.86998 75.9 5.70998 75.9H45.47V77.37V77.36Z" fill="#4279B6"/>
  <path d="M93.2699 71H91.7999V27.64C91.7999 25.53 90.0799 23.81 87.9699 23.81H54.9399V22.34H87.9699C90.8899 22.34 93.2699 24.72 93.2699 27.64V71.01V71Z" fill="#4279B6"/>
  <path d="M8.27005 65.47H6.80005V21.99C6.80005 19.04 9.20005 16.65 12.14 16.65H45.4701V18.12H12.14C10 18.12 8.27005 19.86 8.27005 21.99V65.47Z" fill="#4279B6"/>
  <path d="M13.42 65.4701H11.95V25.4901C11.95 23.6001 13.49 22.0601 15.38 22.0601H45.47V23.5301H15.38C14.3 23.5301 13.42 24.4101 13.42 25.4901V65.4601V65.4701Z" fill="#4279B6"/>
  <path d="M88.16 71H86.69V31.41C86.69 30.34 85.82 29.48 84.76 29.48H54.95V28.01H84.76C86.64 28.01 88.16 29.54 88.16 31.41V71Z" fill="#4279B6"/>
  <path d="M50.21 95.54C49.8 95.54 49.48 95.21 49.48 94.81V4.73C49.48 4.32 49.81 4 50.21 4C50.61 4 50.94 4.33 50.94 4.73V94.8C50.94 95.21 50.61 95.53 50.21 95.53V95.54Z" fill="#2D557F"/>
  <path d="M63.25 58.9299H60.63C60.26 58.9299 59.96 59.2299 59.96 59.5999V62.2199C59.96 62.5899 60.26 62.8899 60.63 62.8899H63.25C63.62 62.8899 63.92 62.5899 63.92 62.2199V59.5999C63.92 59.2299 63.62 58.9299 63.25 58.9299ZM63.04 61.9999H60.85V59.8099H63.04V61.9999Z" fill="#2D557F"/>
  <path d="M77.05 58.9299H74.43C74.06 58.9299 73.76 59.2299 73.76 59.5999V62.2199C73.76 62.5899 74.06 62.8899 74.43 62.8899H77.05C77.42 62.8899 77.72 62.5899 77.72 62.2199V59.5999C77.72 59.2299 77.42 58.9299 77.05 58.9299ZM76.84 61.9999H74.65V59.8099H76.84V61.9999Z" fill="#2D557F"/>
  <path d="M63.25 48.71H60.63C60.26 48.71 59.96 49.01 59.96 49.38V52C59.96 52.37 60.26 52.67 60.63 52.67H63.25C63.62 52.67 63.92 52.37 63.92 52V49.38C63.92 49.01 63.62 48.71 63.25 48.71ZM63.04 51.78H60.85V49.59H63.04V51.78Z" fill="#2D557F"/>
  <path d="M77.05 48.71H74.43C74.06 48.71 73.76 49.01 73.76 49.38V52C73.76 52.37 74.06 52.67 74.43 52.67H77.05C77.42 52.67 77.72 52.37 77.72 52V49.38C77.72 49.01 77.42 48.71 77.05 48.71ZM76.84 51.78H74.65V49.59H76.84V51.78Z" fill="#2D557F"/>
  <path d="M70.1501 48.71H67.5301C67.1601 48.71 66.8601 49.01 66.8601 49.38V52C66.8601 52.37 67.1601 52.67 67.5301 52.67H70.1501C70.5201 52.67 70.8201 52.37 70.8201 52V49.38C70.8201 49.01 70.5201 48.71 70.1501 48.71ZM69.9401 51.78H67.7501V49.59H69.9401V51.78Z" fill="#2D557F"/>
  <path d="M63.25 53.8199H60.63C60.26 53.8199 59.96 54.1199 59.96 54.4899V57.1099C59.96 57.4799 60.26 57.7799 60.63 57.7799H63.25C63.62 57.7799 63.92 57.4799 63.92 57.1099V54.4899C63.92 54.1199 63.62 53.8199 63.25 53.8199ZM63.04 56.8899H60.85V54.6999H63.04V56.8899Z" fill="#2D557F"/>
  <path d="M77.05 53.8199H74.43C74.06 53.8199 73.76 54.1199 73.76 54.4899V57.1099C73.76 57.4799 74.06 57.7799 74.43 57.7799H77.05C77.42 57.7799 77.72 57.4799 77.72 57.1099V54.4899C77.72 54.1199 77.42 53.8199 77.05 53.8199ZM76.84 56.8899H74.65V54.6999H76.84V56.8899Z" fill="#2D557F"/>
  <path d="M70.1501 53.8199H67.5301C67.1601 53.8199 66.8601 54.1199 66.8601 54.4899V57.1099C66.8601 57.4799 67.1601 57.7799 67.5301 57.7799H70.1501C70.5201 57.7799 70.8201 57.4799 70.8201 57.1099V54.4899C70.8201 54.1199 70.5201 53.8199 70.1501 53.8199ZM69.9401 56.8899H67.7501V54.6999H69.9401V56.8899Z" fill="#2D557F"/>
  <path d="M82.23 64.4H81.19V46.72C81.19 46.16 80.77 45.71 80.26 45.71H78.17V43.33C78.17 42.77 77.72 42.32 77.16 42.32H68.83V39.57C69.16 39.46 69.8 39.31 70.55 39.6C71.04 39.79 71.45 39.85 71.79 39.85C72.48 39.85 72.86 39.59 72.92 39.54C73.03 39.46 73.1 39.33 73.1 39.19V36.06C73.1 35.91 73.03 35.78 72.91 35.7C72.79 35.62 72.64 35.6 72.5 35.65C72.5 35.65 71.69 35.96 70.82 35.65C69.17 35.06 68.16 35.8 68.12 35.83C68.12 35.83 68.12 35.85 68.11 35.86C68.01 35.94 67.95 36.06 67.95 36.19V42.34H59.74C59.18 42.34 58.73 42.79 58.73 43.35V45.73H57.89C57.38 45.73 56.96 46.18 56.96 46.74V64.42H55.46C55.22 64.42 55.02 64.62 55.02 64.86C55.02 65.1 55.22 65.3 55.46 65.3H65.33V65.34H72.36V65.3H82.23C82.47 65.3 82.67 65.1 82.67 64.86C82.67 64.62 82.47 64.42 82.23 64.42V64.4ZM72.36 64.4V59.39H65.33V64.4H57.84V46.72C57.84 46.64 57.88 46.6 57.89 46.59H78.17H80.26C80.27 46.59 80.31 46.64 80.31 46.72V64.4H72.36ZM71.48 64.4H69.26V60.27H71.48V64.4ZM68.38 64.4H66.21V60.27H68.38V64.4ZM59.61 43.33C59.61 43.26 59.67 43.2 59.74 43.2H77.16C77.23 43.2 77.29 43.26 77.29 43.33V45.71H59.61V43.33ZM72.21 36.62V38.91C71.98 38.98 71.53 39.04 70.85 38.78C70.42 38.61 70 38.56 69.64 38.56C69.33 38.56 69.05 38.6 68.82 38.66V36.44C69.09 36.32 69.67 36.18 70.51 36.48C71.16 36.71 71.77 36.7 72.2 36.63L72.21 36.62Z" fill="#2D557F"/>
  <path d="M25.99 51.8199H23.37C23 51.8199 22.7 52.1199 22.7 52.4899V55.1099C22.7 55.4799 23 55.7799 23.37 55.7799H25.99C26.36 55.7799 26.66 55.4799 26.66 55.1099V52.4899C26.66 52.1199 26.36 51.8199 25.99 51.8199ZM25.78 54.8999H23.59V52.7099H25.78V54.8999Z" fill="#2D557F"/>
  <path d="M39.79 51.8199H37.17C36.8 51.8199 36.5 52.1199 36.5 52.4899V55.1099C36.5 55.4799 36.8 55.7799 37.17 55.7799H39.79C40.16 55.7799 40.46 55.4799 40.46 55.1099V52.4899C40.46 52.1199 40.16 51.8199 39.79 51.8199ZM39.58 54.8999H37.39V52.7099H39.58V54.8999Z" fill="#2D557F"/>
  <path d="M25.99 41.6H23.37C23 41.6 22.7 41.9 22.7 42.27V44.89C22.7 45.26 23 45.56 23.37 45.56H25.99C26.36 45.56 26.66 45.26 26.66 44.89V42.27C26.66 41.9 26.36 41.6 25.99 41.6ZM25.78 44.68H23.59V42.49H25.78V44.68Z" fill="#2D557F"/>
  <path d="M39.79 41.6H37.17C36.8 41.6 36.5 41.9 36.5 42.27V44.89C36.5 45.26 36.8 45.56 37.17 45.56H39.79C40.16 45.56 40.46 45.26 40.46 44.89V42.27C40.46 41.9 40.16 41.6 39.79 41.6ZM39.58 44.68H37.39V42.49H39.58V44.68Z" fill="#2D557F"/>
  <path d="M32.8901 41.6H30.2701C29.9001 41.6 29.6001 41.9 29.6001 42.27V44.89C29.6001 45.26 29.9001 45.56 30.2701 45.56H32.8901C33.2601 45.56 33.5601 45.26 33.5601 44.89V42.27C33.5601 41.9 33.2601 41.6 32.8901 41.6ZM32.6801 44.68H30.4901V42.49H32.6801V44.68Z" fill="#2D557F"/>
  <path d="M25.99 46.71H23.37C23 46.71 22.7 47.01 22.7 47.38V50C22.7 50.37 23 50.67 23.37 50.67H25.99C26.36 50.67 26.66 50.37 26.66 50V47.38C26.66 47.01 26.36 46.71 25.99 46.71ZM25.78 49.79H23.59V47.6H25.78V49.79Z" fill="#2D557F"/>
  <path d="M39.79 46.71H37.17C36.8 46.71 36.5 47.01 36.5 47.38V50C36.5 50.37 36.8 50.67 37.17 50.67H39.79C40.16 50.67 40.46 50.37 40.46 50V47.38C40.46 47.01 40.16 46.71 39.79 46.71ZM39.58 49.79H37.39V47.6H39.58V49.79Z" fill="#2D557F"/>
  <path d="M32.8901 46.71H30.2701C29.9001 46.71 29.6001 47.01 29.6001 47.38V50C29.6001 50.37 29.9001 50.67 30.2701 50.67H32.8901C33.2601 50.67 33.5601 50.37 33.5601 50V47.38C33.5601 47.01 33.2601 46.71 32.8901 46.71ZM32.6801 49.79H30.4901V47.6H32.6801V49.79Z" fill="#2D557F"/>
  <path d="M44.97 57.29H43.93V39.61C43.93 39.05 43.51 38.6 43 38.6H40.91V36.22C40.91 35.66 40.46 35.21 39.9 35.21H31.57V32.46C31.9 32.35 32.54 32.2 33.29 32.49C33.77 32.68 34.19 32.74 34.53 32.74C35.22 32.74 35.6 32.48 35.66 32.43C35.77 32.35 35.84 32.22 35.84 32.08V28.95C35.84 28.8 35.77 28.67 35.65 28.59C35.53 28.51 35.37 28.49 35.24 28.55C35.24 28.55 34.43 28.85 33.57 28.55C31.92 27.96 30.91 28.7 30.87 28.73C30.87 28.73 30.87 28.75 30.86 28.76C30.76 28.84 30.7 28.96 30.7 29.09V35.23H22.49C21.93 35.23 21.48 35.68 21.48 36.24V38.62H20.64C20.13 38.62 19.71 39.07 19.71 39.63V57.31H18.21C17.97 57.31 17.77 57.51 17.77 57.75C17.77 57.99 17.97 58.19 18.21 58.19H28.08V58.23H35.11V58.19H44.98C45.22 58.19 45.42 57.99 45.42 57.75C45.42 57.51 45.22 57.31 44.98 57.31L44.97 57.29ZM35.1 57.29V52.28H28.07V57.29H20.58V39.61C20.58 39.53 20.62 39.49 20.63 39.48H40.91H43C43.01 39.48 43.05 39.53 43.05 39.61V57.29H35.1ZM34.22 57.29H32V53.16H34.22V57.29ZM31.11 57.29H28.94V53.16H31.11V57.29ZM22.34 36.22C22.34 36.15 22.4 36.09 22.47 36.09H39.89C39.96 36.09 40.02 36.15 40.02 36.22V38.6H22.34V36.22ZM34.95 29.51V31.8C34.72 31.87 34.27 31.93 33.59 31.67C33.16 31.5 32.74 31.45 32.38 31.45C32.07 31.45 31.79 31.49 31.56 31.55V29.33C31.83 29.21 32.41 29.07 33.25 29.37C33.9 29.6 34.51 29.59 34.94 29.52L34.95 29.51Z" fill="#2D557F"/>
</svg>
