<svg xmlns="http://www.w3.org/2000/svg" width="100" height="100" viewBox="0 0 100 100" fill="none">
  <path d="M34.2999 61.8201V56.1101H47.3699V54.6001H33.5499C33.1299 54.6001 32.7899 54.9401 32.7899 55.3601V62.5901C32.7899 63.0101 33.1299 63.3501 33.5499 63.3501H47.3699V61.8401H34.2999V61.8201Z" fill="#4279B6"/>
  <path d="M80.9199 58.35L69.0999 49.81C68.8699 49.64 68.5699 49.62 68.3099 49.75C68.0599 49.88 67.8999 50.14 67.8999 50.42V54.58H53.6799V56.09H68.6499C69.0699 56.09 69.4099 55.75 69.4099 55.33V51.89L79.1799 58.95L69.4099 66V62.56C69.4099 62.14 69.0699 61.8 68.6499 61.8H53.6799V63.31H67.8999V67.47C67.8999 67.75 68.0599 68.01 68.3099 68.14C68.4199 68.2 68.5399 68.22 68.6499 68.22C68.8099 68.22 68.9599 68.17 69.0899 68.08L80.9099 59.55C81.1099 59.41 81.2199 59.18 81.2199 58.94C81.2199 58.7 81.0999 58.47 80.9099 58.33L80.9199 58.35Z" fill="#2D557F"/>
  <path d="M66.7699 35.6101V41.3201H53.6799V42.8301H67.5199C67.9399 42.8301 68.2799 42.4901 68.2799 42.0701V34.8401C68.2799 34.4201 67.9399 34.0801 67.5199 34.0801H53.6799V35.5901H66.7699V35.6101Z" fill="#2D557F"/>
  <path d="M32.41 41.32C31.99 41.32 31.65 41.66 31.65 42.08V45.52L21.88 38.46L31.65 31.41V34.85C31.65 35.27 31.99 35.61 32.41 35.61H47.36V34.1H33.16V29.94C33.16 29.66 33 29.4 32.75 29.27C32.5 29.14 32.19 29.16 31.96 29.33L20.14 37.86C19.94 38 19.83 38.23 19.83 38.47C19.83 38.71 19.95 38.94 20.14 39.08L31.96 47.62C32.09 47.71 32.25 47.76 32.4 47.76C32.52 47.76 32.64 47.73 32.74 47.68C32.99 47.55 33.15 47.29 33.15 47.01V42.85H47.35V41.34H32.4L32.41 41.32Z" fill="#4279B6"/>
  <path d="M45.76 80.46H5.74999C3.19999 80.46 0.97999 78.64 0.47999 76.14L0.0499902 73.99C-0.0800098 73.32 0.0899901 72.62 0.51999 72.09C0.95999 71.56 1.59999 71.25 2.28999 71.25H32.86C32.97 71.25 33.09 71.28 33.19 71.33L36.13 72.8H45.77V74.28H35.96C35.85 74.28 35.73 74.25 35.63 74.2L32.69 72.73H2.28999C2.04999 72.73 1.81999 72.84 1.66999 73.03C1.51999 73.22 1.45999 73.46 1.49999 73.7L1.92999 75.85C2.28999 77.67 3.89999 78.98 5.74999 78.98H45.77V80.46H45.76Z" fill="#4279B6"/>
  <path d="M8.31997 68.5H6.83997V24.74C6.83997 21.78 9.24997 19.36 12.22 19.36H45.77V20.84H12.22C10.07 20.84 8.31997 22.59 8.31997 24.74V68.49V68.5Z" fill="#4279B6"/>
  <path d="M13.51 68.4999H12.03V28.2699C12.03 26.3699 13.58 24.8199 15.48 24.8199H45.76V26.2999H15.48C14.39 26.2999 13.51 27.1799 13.51 28.2699V68.4999Z" fill="#4279B6"/>
  <path d="M94.3 80.2001H54.66V78.7201H94.3C96.13 78.7201 97.72 77.4201 98.08 75.6201L98.51 73.4901C98.56 73.2601 98.5 73.0201 98.35 72.8301C98.2 72.6501 97.98 72.5401 97.74 72.5401H67.63L64.72 73.9901C64.62 74.0401 64.5 74.0701 64.39 74.0701H54.67V72.5901H64.22L67.13 71.1401C67.23 71.0901 67.35 71.0601 67.46 71.0601H97.74C98.42 71.0601 99.06 71.3601 99.5 71.8901C99.93 72.4201 100.1 73.1001 99.97 73.7701L99.54 75.9001C99.04 78.3801 96.84 80.1901 94.31 80.1901L94.3 80.2001Z" fill="#2D557F"/>
  <path d="M93.23 68.34H91.75V24.7C91.75 22.58 90.02 20.85 87.9 20.85H54.66V19.37H87.9C90.84 19.37 93.23 21.76 93.23 24.7V68.34Z" fill="#2D557F"/>
  <path d="M88.08 68.3399H86.6V28.4999C86.6 27.4299 85.73 26.5499 84.65 26.5499H54.66V25.0699H84.65C86.54 25.0699 88.07 26.6099 88.07 28.4899V68.3399H88.08Z" fill="#2D557F"/>
  <path d="M50.53 88.93C50.12 88.93 49.79 88.6 49.79 88.19V12.74C49.79 12.33 50.12 12 50.53 12C50.94 12 51.27 12.33 51.27 12.74V88.19C51.27 88.6 50.94 88.93 50.53 88.93Z" fill="#2D557F"/>
</svg>
