<svg xmlns="http://www.w3.org/2000/svg" width="100" height="100" viewBox="0 0 100 100" fill="none">
  <path d="M50.22 25.61H84.39C85.9 25.61 87.12 26.83 87.12 28.34V72.42H66.87L63.75 73.98H50.21V25.61H50.22Z" fill="#FCCD2A"/>
  <path d="M63.76 74.73H50.22C49.8 74.73 49.47 74.39 49.47 73.98V25.61C49.47 25.19 49.81 24.86 50.22 24.86H84.39C86.31 24.86 87.87 26.42 87.87 28.34V72.42C87.87 72.84 87.53 73.17 87.12 73.17H67.05L64.09 74.65C63.99 74.7 63.87 74.73 63.75 74.73H63.76ZM50.97 73.23H63.58L66.54 71.75C66.64 71.7 66.76 71.67 66.88 71.67H86.38V28.34C86.38 27.25 85.49 26.36 84.4 26.36H50.98V73.22L50.97 73.23Z" fill="#0E1721"/>
  <path d="M50.22 73.98H63.76L66.88 72.42H97.7C98.17 72.42 98.61 72.63 98.9 72.99C99.2 73.35 99.31 73.83 99.22 74.28L98.79 76.45C98.35 78.63 96.43 80.21 94.21 80.21H50.23V73.98H50.22Z" fill="#4279B6"/>
  <path d="M94.2 80.96H50.22C49.8 80.96 49.47 80.62 49.47 80.21V73.98C49.47 73.56 49.81 73.23 50.22 73.23H63.58L66.54 71.75C66.64 71.7 66.76 71.67 66.88 71.67H97.7C98.4 71.67 99.05 71.98 99.49 72.52C99.93 73.06 100.1 73.76 99.97 74.44L99.54 76.61C99.03 79.14 96.8 80.97 94.22 80.97L94.2 80.96ZM50.97 79.46H94.2C96.06 79.46 97.68 78.13 98.05 76.31L98.48 74.14C98.53 73.9 98.47 73.66 98.31 73.47C98.16 73.28 97.93 73.18 97.69 73.18H67.05L64.09 74.66C63.99 74.71 63.87 74.74 63.75 74.74H50.96V79.47L50.97 79.46Z" fill="#0E1721"/>
  <path d="M50.22 73.92V80.21H5.84996C3.59996 80.21 1.65996 78.62 1.21996 76.41L0.779963 74.22C0.689963 73.76 0.809963 73.28 1.10996 72.91C1.40996 72.55 1.85996 72.34 2.32996 72.34H33.44L36.59 73.91H50.22V73.92Z" fill="#4279B6"/>
  <path d="M50.22 80.96H5.84999C3.24999 80.96 0.989994 79.11 0.479994 76.56L0.0399939 74.37C-0.100006 73.69 0.0799939 72.98 0.519994 72.44C0.959994 71.9 1.61999 71.59 2.31999 71.59H33.43C33.55 71.59 33.66 71.62 33.77 71.67L36.76 73.16H50.22C50.64 73.16 50.97 73.5 50.97 73.91V80.2C50.97 80.62 50.63 80.95 50.22 80.95V80.96ZM2.31999 73.1C2.07999 73.1 1.83999 73.21 1.68999 73.4C1.52999 73.59 1.46999 73.84 1.51999 74.08L1.95999 76.27C2.32999 78.12 3.96999 79.46 5.84999 79.46H49.47V74.67H36.59C36.47 74.67 36.36 74.64 36.25 74.59L33.26 73.1H2.31999Z" fill="#0E1721"/>
  <path d="M50.22 19.8101V25.3601H15.75C14.23 25.3601 12.99 26.5901 12.99 28.1201V72.3601H7.70996V24.5301C7.70996 21.9201 9.81996 19.8101 12.43 19.8101H50.22Z" fill="#4279B6"/>
  <path d="M12.99 73.1001H7.70996C7.28996 73.1001 6.95996 72.7601 6.95996 72.3501V24.5301C6.95996 21.5101 9.40996 19.0601 12.43 19.0601H50.22C50.64 19.0601 50.97 19.4001 50.97 19.8101V25.3601C50.97 25.7801 50.63 26.1101 50.22 26.1101H15.75C14.64 26.1101 13.74 27.0101 13.74 28.1101V72.3501C13.74 72.7701 13.4 73.1001 12.99 73.1001ZM8.46996 71.6001H12.24V28.1101C12.24 26.1801 13.82 24.6001 15.75 24.6001H49.46V20.5601H12.43C10.24 20.5601 8.46996 22.3401 8.46996 24.5301V71.6001Z" fill="#0E1721"/>
  <path d="M87.12 72.42V28.34C87.12 26.83 85.9 25.61 84.39 25.61H50.22V19.8H87.69C90.27 19.8 92.36 21.89 92.36 24.47V72.41H87.12V72.42Z" fill="#4279B6"/>
  <path d="M92.36 73.17H87.12C86.7 73.17 86.37 72.83 86.37 72.42V28.34C86.37 27.25 85.48 26.36 84.39 26.36H50.22C49.8 26.36 49.47 26.02 49.47 25.61V19.8C49.47 19.38 49.81 19.05 50.22 19.05H87.69C90.68 19.05 93.12 21.48 93.12 24.48V72.42C93.12 72.84 92.78 73.17 92.37 73.17H92.36ZM87.87 71.67H91.6V24.48C91.6 22.32 89.84 20.56 87.68 20.56H50.96V24.86H84.38C86.3 24.86 87.86 26.42 87.86 28.34V71.66L87.87 71.67Z" fill="#0E1721"/>
  <path d="M50.22 25.36V73.92H36.59L33.44 72.35H12.99V28.11C12.99 26.59 14.23 25.35 15.75 25.35H50.21L50.22 25.36Z" fill="white"/>
  <path d="M50.22 74.67H36.59C36.47 74.67 36.36 74.64 36.25 74.59L33.26 73.1H12.99C12.57 73.1 12.24 72.76 12.24 72.35V28.11C12.24 26.18 13.82 24.6 15.75 24.6H50.21C50.63 24.6 50.96 24.94 50.96 25.35V73.91C50.96 74.33 50.62 74.66 50.21 74.66L50.22 74.67ZM36.76 73.17H49.46V26.11H15.75C14.64 26.11 13.74 27.01 13.74 28.11V71.59H33.43C33.55 71.59 33.66 71.62 33.77 71.67L36.76 73.16V73.17Z" fill="#0E1721"/>
  <path d="M50.22 26.11C49.8 26.11 49.47 25.77 49.47 25.36V11.75C49.47 11.33 49.81 11 50.22 11C50.63 11 50.97 11.34 50.97 11.75V25.35C50.97 25.77 50.63 26.1 50.22 26.1V26.11Z" fill="#0E1721"/>
  <path d="M50.22 89.0401C49.8 89.0401 49.47 88.7001 49.47 88.2901V73.9301C49.47 73.5101 49.81 73.1801 50.22 73.1801C50.63 73.1801 50.97 73.5201 50.97 73.9301V88.2901C50.97 88.7101 50.63 89.0401 50.22 89.0401Z" fill="#0E1721"/>
  <path d="M50.22 55.1799H33.4V62.3599H50.22V55.1799Z" fill="#FCCD2A"/>
  <path d="M50.22 63.1199H33.4C32.98 63.1199 32.65 62.7799 32.65 62.3699V55.1899C32.65 54.7699 32.99 54.4399 33.4 54.4399H50.22C50.64 54.4399 50.97 54.7799 50.97 55.1899V62.3699C50.97 62.7899 50.63 63.1199 50.22 63.1199ZM34.15 61.6099H49.46V55.9399H34.15V61.6099Z" fill="#0E1721"/>
  <path d="M50.22 62.36H68.29V67.25L80.04 58.78L68.29 50.29V55.18H50.22V62.36Z" fill="white"/>
  <path d="M68.29 68.01C68.17 68.01 68.06 67.98 67.95 67.93C67.7 67.8 67.54 67.54 67.54 67.26V63.12H50.22C49.8 63.12 49.47 62.78 49.47 62.37V55.19C49.47 54.77 49.81 54.44 50.22 54.44H67.54V50.3C67.54 50.02 67.7 49.76 67.95 49.63C68.2 49.5 68.5 49.52 68.73 49.69L80.48 58.17C80.68 58.31 80.79 58.54 80.79 58.78C80.79 59.02 80.67 59.25 80.48 59.39L68.73 67.87C68.6 67.96 68.44 68.01 68.29 68.01ZM50.97 61.61H68.29C68.71 61.61 69.04 61.95 69.04 62.36V65.78L78.75 58.77L69.04 51.76V55.18C69.04 55.6 68.7 55.93 68.29 55.93H50.97V61.6V61.61Z" fill="#0E1721"/>
  <path d="M67.17 34.8099H50.22V41.9899H67.17V34.8099Z" fill="white"/>
  <path d="M67.17 42.7499H50.22C49.8 42.7499 49.47 42.4099 49.47 41.9999V34.8199C49.47 34.3999 49.81 34.0699 50.22 34.0699H67.17C67.59 34.0699 67.92 34.4099 67.92 34.8199V41.9999C67.92 42.4199 67.58 42.7499 67.17 42.7499ZM50.97 41.2399H66.42V35.5699H50.97V41.2399Z" fill="#0E1721"/>
  <path d="M50.22 34.81H32.28V29.92L20.53 38.4L32.28 46.88V41.99H50.22V34.81Z" fill="#FCCD2A"/>
  <path d="M32.28 47.63C32.12 47.63 31.97 47.58 31.84 47.49L20.09 39.01C19.89 38.87 19.78 38.64 19.78 38.4C19.78 38.16 19.9 37.93 20.09 37.79L31.84 29.31C32.07 29.14 32.37 29.12 32.62 29.25C32.87 29.38 33.03 29.64 33.03 29.92V34.06H50.22C50.64 34.06 50.97 34.4 50.97 34.81V41.99C50.97 42.41 50.63 42.74 50.22 42.74H33.03V46.88C33.03 47.16 32.87 47.42 32.62 47.55C32.51 47.61 32.39 47.63 32.28 47.63ZM21.81 38.4L31.52 45.41V41.99C31.52 41.57 31.86 41.24 32.27 41.24H49.46V35.57H32.27C31.85 35.57 31.52 35.23 31.52 34.82V31.4L21.81 38.41V38.4Z" fill="#0E1721"/>
</svg>
