<svg xmlns="http://www.w3.org/2000/svg" width="100" height="100" viewBox="0 0 100 100" fill="none">
  <path d="M50.2099 22.8H12.6899V70.4801H50.2099V22.8Z" fill="#FCCD2A"/>
  <path d="M87.42 28.74H50.21V75.97H87.42V28.74Z" fill="#FC8B27"/>
  <path d="M87.86 76.4101H49.77V28.3H87.86V76.4101ZM50.65 75.53H86.98V29.18H50.65V75.53Z" fill="#0E1721"/>
  <path d="M50.21 75.97H64.61L67.65 74.45H97.74C98.2 74.45 98.63 74.65 98.92 75.01C99.21 75.36 99.32 75.83 99.24 76.27L98.82 78.39C98.39 80.52 96.52 82.06 94.34 82.06H50.22V75.97H50.21Z" fill="#4279B6"/>
  <path d="M94.34 82.79H49.48V75.24H64.44L67.48 73.72H97.74C98.42 73.72 99.05 74.02 99.48 74.55C99.91 75.07 100.08 75.76 99.95 76.42L99.53 78.54C99.04 81.01 96.85 82.8 94.33 82.8L94.34 82.79ZM50.95 81.32H94.34C96.16 81.32 97.74 80.03 98.09 78.24L98.51 76.12C98.56 75.89 98.5 75.65 98.35 75.47C98.2 75.29 97.98 75.18 97.74 75.18H67.82L64.78 76.7H50.94V81.32H50.95Z" fill="#0E1721"/>
  <path d="M50.21 76.62H5.71005C3.51005 76.62 1.62005 75.07 1.19005 72.92L0.760048 70.78C0.670048 70.33 0.790048 69.86 1.08005 69.51C1.37005 69.15 1.81005 68.95 2.27005 68.95H32.65L35.72 70.49H50.21V76.63V76.62Z" fill="#4279B6"/>
  <path d="M50.95 77.36H5.70998C3.16998 77.36 0.96998 75.55 0.46998 73.07L0.0399804 70.93C-0.0900196 70.26 0.0799804 69.57 0.50998 69.05C0.93998 68.52 1.57998 68.22 2.26998 68.22H32.82L35.89 69.76H50.94V77.37L50.95 77.36ZM2.26998 69.68C2.02998 69.68 1.79998 69.79 1.64998 69.97C1.49998 70.16 1.43998 70.4 1.47998 70.64L1.90998 72.78C2.26998 74.58 3.86998 75.89 5.70998 75.89H49.48V71.22H35.55L32.48 69.68H2.26998Z" fill="#0E1721"/>
  <path d="M50.21 22.8H15.38C13.89 22.8 12.69 24.01 12.69 25.49V68.94H7.53003V21.99C7.53003 19.45 9.59003 17.38 12.14 17.38H50.21V22.8Z" fill="#4279B6"/>
  <path d="M13.42 69.68H6.79004V21.99C6.79004 19.04 9.19004 16.65 12.13 16.65H50.94V23.54H15.38C14.3 23.54 13.42 24.42 13.42 25.5V69.69V69.68ZM8.27004 68.21H11.96V25.49C11.96 23.6 13.5 22.06 15.39 22.06H49.49V18.11H12.14C10 18.11 8.27004 19.85 8.27004 21.98V68.2V68.21Z" fill="#0E1721"/>
  <path d="M50.21 28.74H84.75C86.22 28.74 87.42 29.93 87.42 31.41V74.45H92.54V27.64C92.54 25.12 90.5 23.08 87.98 23.08H50.22V28.75L50.21 28.74Z" fill="#4279B6"/>
  <path d="M93.27 75.18H86.68V31.41C86.68 30.34 85.81 29.48 84.75 29.48H49.47V22.34H87.97C90.89 22.34 93.27 24.72 93.27 27.64V75.19V75.18ZM88.16 73.71H91.81V27.64C91.81 25.53 90.09 23.81 87.98 23.81H50.95V28.01H84.76C86.64 28.01 88.16 29.54 88.16 31.41V73.71Z" fill="#0E1721"/>
  <path d="M50.21 95.54C49.8 95.54 49.48 95.21 49.48 94.81V4.73C49.48 4.32 49.81 4 50.21 4C50.61 4 50.94 4.33 50.94 4.73V94.8C50.94 95.21 50.61 95.53 50.21 95.53V95.54Z" fill="#0E1721"/>
  <path d="M68.2498 43.2C68.0098 43.2 67.8098 43 67.8098 42.76V36.17C67.8098 35.93 68.0098 35.73 68.2498 35.73C68.4898 35.73 68.6898 35.93 68.6898 36.17V42.76C68.6898 43 68.4898 43.2 68.2498 43.2Z" fill="#0E1721"/>
  <path d="M68.2498 39.27C68.2498 39.27 69.2998 38.7 70.5698 39.19C71.8598 39.68 72.5198 39.19 72.5198 39.19V36.06C72.5198 36.06 71.5798 36.44 70.5298 36.06C69.0898 35.54 68.2498 36.18 68.2498 36.18V39.28V39.27Z" fill="#FCCD2A"/>
  <path d="M71.6498 39.8499C71.3098 39.8499 70.8998 39.7899 70.4098 39.5999C69.3598 39.1999 68.4998 39.6399 68.4598 39.6599C68.3198 39.7299 68.1598 39.7299 68.0298 39.6499C67.8998 39.5699 67.8198 39.4299 67.8198 39.2699V36.1699C67.8198 36.0299 67.8798 35.8999 67.9898 35.8199C68.0298 35.7899 69.0398 35.0499 70.6898 35.6399C71.5598 35.9499 72.3598 35.6399 72.3698 35.6399C72.5098 35.5899 72.6598 35.5999 72.7798 35.6899C72.8998 35.7699 72.9698 35.9099 72.9698 36.0499V39.1799C72.9698 39.3199 72.8998 39.4499 72.7898 39.5299C72.7298 39.5699 72.3498 39.8399 71.6598 39.8399L71.6498 39.8499ZM69.5098 38.5499C69.8698 38.5499 70.2898 38.6099 70.7198 38.7699C71.3898 39.0299 71.8398 38.9699 72.0798 38.8999V36.6099C71.6498 36.6799 71.0398 36.6999 70.3898 36.4599C69.5498 36.1599 68.9698 36.3099 68.6998 36.4199V38.6399C68.9298 38.5799 69.2098 38.5399 69.5198 38.5399L69.5098 38.5499Z" fill="#0E1721"/>
  <path d="M57.2598 64.8399V46.7199C57.2598 46.4099 57.4798 46.1499 57.7498 46.1499H80.1198C80.3898 46.1499 80.6098 46.4099 80.6098 46.7199V64.8399H57.2498H57.2598Z" fill="#FCCD2A"/>
  <path d="M81.0598 65.28H56.8198V46.72C56.8198 46.16 57.2398 45.71 57.7498 45.71H80.1198C80.6298 45.71 81.0498 46.16 81.0498 46.72V65.28H81.0598ZM57.6998 64.4H80.1698V46.72C80.1698 46.64 80.1298 46.6 80.1198 46.59H57.7498C57.7498 46.59 57.6998 46.64 57.6998 46.72V64.4Z" fill="#0E1721"/>
  <path d="M59.0298 46.1399V43.3199C59.0298 43.0099 59.2898 42.7499 59.5998 42.7499H77.0198C77.3298 42.7499 77.5898 43.0099 77.5898 43.3199V46.1399H59.0298Z" fill="#FCCD2A"/>
  <path d="M78.0298 46.5799H58.5898V43.3199C58.5898 42.7599 59.0398 42.3099 59.5998 42.3099H77.0198C77.5798 42.3099 78.0298 42.7599 78.0298 43.3199V46.5799ZM59.4698 45.6999H77.1498V43.3199C77.1498 43.2499 77.0898 43.1899 77.0198 43.1899H59.5998C59.5298 43.1899 59.4698 43.2499 59.4698 43.3199V45.6999Z" fill="#0E1721"/>
  <path d="M71.7899 59.83H65.6399V64.88H71.7899V59.83Z" fill="white"/>
  <path d="M72.23 65.32H65.2V59.38H72.23V65.32ZM66.08 64.44H71.35V60.27H66.08V64.44Z" fill="#0E1721"/>
  <path d="M63.2398 59.3699H60.3898C60.329 59.3699 60.2798 59.4191 60.2798 59.4799V62.3299C60.2798 62.3906 60.329 62.4399 60.3898 62.4399H63.2398C63.3005 62.4399 63.3498 62.3906 63.3498 62.3299V59.4799C63.3498 59.4191 63.3005 59.3699 63.2398 59.3699Z" fill="white"/>
  <path d="M63.1198 62.8899H60.4998C60.1298 62.8899 59.8298 62.5899 59.8298 62.2199V59.5999C59.8298 59.2299 60.1298 58.9299 60.4998 58.9299H63.1198C63.4898 58.9299 63.7898 59.2299 63.7898 59.5999V62.2199C63.7898 62.5899 63.4898 62.8899 63.1198 62.8899ZM60.7198 61.9999H62.9098V59.8099H60.7198V61.9999Z" fill="#0E1721"/>
  <path d="M77.0298 59.3699H74.1798C74.1191 59.3699 74.0698 59.4191 74.0698 59.4799V62.3299C74.0698 62.3906 74.1191 62.4399 74.1798 62.4399H77.0298C77.0906 62.4399 77.1398 62.3906 77.1398 62.3299V59.4799C77.1398 59.4191 77.0906 59.3699 77.0298 59.3699Z" fill="white"/>
  <path d="M76.9199 62.8899H74.2999C73.9299 62.8899 73.6299 62.5899 73.6299 62.2199V59.5999C73.6299 59.2299 73.9299 58.9299 74.2999 58.9299H76.9199C77.2899 58.9299 77.5899 59.2299 77.5899 59.5999V62.2199C77.5899 62.5899 77.2899 62.8899 76.9199 62.8899ZM74.5099 61.9999H76.6999V59.8099H74.5099V61.9999Z" fill="#0E1721"/>
  <path d="M69.12 59.87H68.24V64.88H69.12V59.87Z" fill="#0E1721"/>
  <path d="M63.2398 49.1499H60.3898C60.329 49.1499 60.2798 49.1991 60.2798 49.2599V52.1099C60.2798 52.1707 60.329 52.2199 60.3898 52.2199H63.2398C63.3005 52.2199 63.3498 52.1707 63.3498 52.1099V49.2599C63.3498 49.1991 63.3005 49.1499 63.2398 49.1499Z" fill="white"/>
  <path d="M63.1198 52.67H60.4998C60.1298 52.67 59.8298 52.37 59.8298 52V49.38C59.8298 49.01 60.1298 48.71 60.4998 48.71H63.1198C63.4898 48.71 63.7898 49.01 63.7898 49.38V52C63.7898 52.37 63.4898 52.67 63.1198 52.67ZM60.7198 51.79H62.9098V49.6H60.7198V51.79Z" fill="#0E1721"/>
  <path d="M77.0298 49.1499H74.1798C74.1191 49.1499 74.0698 49.1991 74.0698 49.2599V52.1099C74.0698 52.1707 74.1191 52.2199 74.1798 52.2199H77.0298C77.0906 52.2199 77.1398 52.1707 77.1398 52.1099V49.2599C77.1398 49.1991 77.0906 49.1499 77.0298 49.1499Z" fill="white"/>
  <path d="M76.9199 52.67H74.2999C73.9299 52.67 73.6299 52.37 73.6299 52V49.38C73.6299 49.01 73.9299 48.71 74.2999 48.71H76.9199C77.2899 48.71 77.5899 49.01 77.5899 49.38V52C77.5899 52.37 77.2899 52.67 76.9199 52.67ZM74.5099 51.79H76.6999V49.6H74.5099V51.79Z" fill="#0E1721"/>
  <path d="M70.1297 49.1499H67.2797C67.2189 49.1499 67.1697 49.1991 67.1697 49.2599V52.1099C67.1697 52.1707 67.2189 52.2199 67.2797 52.2199H70.1297C70.1904 52.2199 70.2397 52.1707 70.2397 52.1099V49.2599C70.2397 49.1991 70.1904 49.1499 70.1297 49.1499Z" fill="white"/>
  <path d="M70.0197 52.67H67.3997C67.0297 52.67 66.7297 52.37 66.7297 52V49.38C66.7297 49.01 67.0297 48.71 67.3997 48.71H70.0197C70.3897 48.71 70.6897 49.01 70.6897 49.38V52C70.6897 52.37 70.3897 52.67 70.0197 52.67ZM67.6197 51.79H69.8097V49.6H67.6197V51.79Z" fill="#0E1721"/>
  <path d="M63.2398 54.2599H60.3898C60.329 54.2599 60.2798 54.3091 60.2798 54.3699V57.2199C60.2798 57.2806 60.329 57.3299 60.3898 57.3299H63.2398C63.3005 57.3299 63.3498 57.2806 63.3498 57.2199V54.3699C63.3498 54.3091 63.3005 54.2599 63.2398 54.2599Z" fill="white"/>
  <path d="M63.1198 57.7799H60.4998C60.1298 57.7799 59.8298 57.4799 59.8298 57.1099V54.4899C59.8298 54.1199 60.1298 53.8199 60.4998 53.8199H63.1198C63.4898 53.8199 63.7898 54.1199 63.7898 54.4899V57.1099C63.7898 57.4799 63.4898 57.7799 63.1198 57.7799ZM60.7198 56.8899H62.9098V54.6999H60.7198V56.8899Z" fill="#0E1721"/>
  <path d="M77.0298 54.2599H74.1798C74.1191 54.2599 74.0698 54.3091 74.0698 54.3699V57.2199C74.0698 57.2806 74.1191 57.3299 74.1798 57.3299H77.0298C77.0906 57.3299 77.1398 57.2806 77.1398 57.2199V54.3699C77.1398 54.3091 77.0906 54.2599 77.0298 54.2599Z" fill="white"/>
  <path d="M76.9199 57.7799H74.2999C73.9299 57.7799 73.6299 57.4799 73.6299 57.1099V54.4899C73.6299 54.1199 73.9299 53.8199 74.2999 53.8199H76.9199C77.2899 53.8199 77.5899 54.1199 77.5899 54.4899V57.1099C77.5899 57.4799 77.2899 57.7799 76.9199 57.7799ZM74.5099 56.8899H76.6999V54.6999H74.5099V56.8899Z" fill="#0E1721"/>
  <path d="M70.1297 54.2599H67.2797C67.2189 54.2599 67.1697 54.3091 67.1697 54.3699V57.2199C67.1697 57.2806 67.2189 57.3299 67.2797 57.3299H70.1297C70.1904 57.3299 70.2397 57.2806 70.2397 57.2199V54.3699C70.2397 54.3091 70.1904 54.2599 70.1297 54.2599Z" fill="white"/>
  <path d="M70.0197 57.7799H67.3997C67.0297 57.7799 66.7297 57.4799 66.7297 57.1099V54.4899C66.7297 54.1199 67.0297 53.8199 67.3997 53.8199H70.0197C70.3897 53.8199 70.6897 54.1199 70.6897 54.4899V57.1099C70.6897 57.4799 70.3897 57.7799 70.0197 57.7799ZM67.6197 56.8899H69.8097V54.6999H67.6197V56.8899Z" fill="#0E1721"/>
  <path d="M82.0999 65.2799H55.3199C55.0799 65.2799 54.8799 65.0799 54.8799 64.8399C54.8799 64.5999 55.0799 64.3999 55.3199 64.3999H82.0999C82.3399 64.3999 82.5399 64.5999 82.5399 64.8399C82.5399 65.0799 82.3399 65.2799 82.0999 65.2799Z" fill="#0E1721"/>
  <path d="M30.9898 36.09C30.7498 36.09 30.5498 35.89 30.5498 35.65V29.06C30.5498 28.82 30.7498 28.62 30.9898 28.62C31.2298 28.62 31.4298 28.82 31.4298 29.06V35.65C31.4298 35.89 31.2298 36.09 30.9898 36.09Z" fill="#0E1721"/>
  <path d="M30.9897 32.16C30.9897 32.16 32.0397 31.59 33.3097 32.08C34.5997 32.57 35.2597 32.08 35.2597 32.08V28.95C35.2597 28.95 34.3197 29.33 33.2697 28.95C31.8297 28.43 30.9897 29.07 30.9897 29.07V32.17V32.16Z" fill="#FC8B27"/>
  <path d="M34.3898 32.74C34.0498 32.74 33.6398 32.68 33.1498 32.49C32.0998 32.09 31.2398 32.53 31.1998 32.55C31.0598 32.62 30.8998 32.62 30.7698 32.54C30.6398 32.46 30.5598 32.32 30.5598 32.16V29.06C30.5598 28.92 30.6198 28.79 30.7298 28.71C30.7698 28.68 31.7798 27.94 33.4298 28.53C34.2998 28.84 35.0898 28.53 35.0998 28.53C35.2398 28.48 35.3898 28.49 35.5098 28.57C35.6298 28.65 35.6998 28.79 35.6998 28.94V32.07C35.6998 32.21 35.6298 32.34 35.5198 32.42C35.4598 32.46 35.0798 32.73 34.3898 32.73V32.74ZM32.2498 31.44C32.6098 31.44 33.0298 31.5 33.4598 31.66C34.1298 31.92 34.5798 31.86 34.8198 31.79V29.5C34.3898 29.57 33.7798 29.59 33.1298 29.35C32.2898 29.05 31.7098 29.2 31.4398 29.31V31.53C31.6698 31.47 31.9498 31.43 32.2598 31.43L32.2498 31.44Z" fill="#0E1721"/>
  <path d="M19.9997 57.73V39.61C19.9997 39.3 20.2197 39.04 20.4897 39.04H42.8597C43.1297 39.04 43.3497 39.3 43.3497 39.61V57.73H19.9897H19.9997Z" fill="#FC8B27"/>
  <path d="M43.7998 58.17H19.5598V39.61C19.5598 39.05 19.9798 38.6 20.4898 38.6H42.8598C43.3698 38.6 43.7898 39.05 43.7898 39.61V58.17H43.7998ZM20.4398 57.29H42.9098V39.61C42.9098 39.53 42.8698 39.49 42.8598 39.48H20.4898C20.4898 39.48 20.4398 39.53 20.4398 39.61V57.29Z" fill="#0E1721"/>
  <path d="M21.7698 39.0399V36.2199C21.7698 35.9099 22.0298 35.6499 22.3398 35.6499H39.7598C40.0698 35.6499 40.3298 35.9099 40.3298 36.2199V39.0399H21.7698Z" fill="#FC8B27"/>
  <path d="M40.7698 39.48H21.3298V36.22C21.3298 35.66 21.7798 35.21 22.3398 35.21H39.7598C40.3198 35.21 40.7698 35.66 40.7698 36.22V39.48ZM22.2098 38.59H39.8898V36.21C39.8898 36.14 39.8298 36.08 39.7598 36.08H22.3398C22.2698 36.08 22.2098 36.14 22.2098 36.21V38.59Z" fill="#0E1721"/>
  <path d="M34.5299 52.72H28.3799V57.77H34.5299V52.72Z" fill="white"/>
  <path d="M34.9699 58.21H27.9399V52.27H34.9699V58.21ZM28.8199 57.33H34.0899V53.16H28.8199V57.33Z" fill="#0E1721"/>
  <path d="M25.9798 52.2599H23.1298C23.069 52.2599 23.0198 52.3091 23.0198 52.3699V55.2199C23.0198 55.2806 23.069 55.3299 23.1298 55.3299H25.9798C26.0405 55.3299 26.0898 55.2806 26.0898 55.2199V52.3699C26.0898 52.3091 26.0405 52.2599 25.9798 52.2599Z" fill="white"/>
  <path d="M25.8598 55.7799H23.2398C22.8698 55.7799 22.5698 55.4799 22.5698 55.1099V52.4899C22.5698 52.1199 22.8698 51.8199 23.2398 51.8199H25.8598C26.2298 51.8199 26.5298 52.1199 26.5298 52.4899V55.1099C26.5298 55.4799 26.2298 55.7799 25.8598 55.7799ZM23.4598 54.8999H25.6498V52.7099H23.4598V54.8999Z" fill="#0E1721"/>
  <path d="M39.7698 52.2599H36.9198C36.8591 52.2599 36.8098 52.3091 36.8098 52.3699V55.2199C36.8098 55.2806 36.8591 55.3299 36.9198 55.3299H39.7698C39.8306 55.3299 39.8798 55.2806 39.8798 55.2199V52.3699C39.8798 52.3091 39.8306 52.2599 39.7698 52.2599Z" fill="white"/>
  <path d="M39.6599 55.7799H37.0399C36.6699 55.7799 36.3699 55.4799 36.3699 55.1099V52.4899C36.3699 52.1199 36.6699 51.8199 37.0399 51.8199H39.6599C40.0299 51.8199 40.3299 52.1199 40.3299 52.4899V55.1099C40.3299 55.4799 40.0299 55.7799 39.6599 55.7799ZM37.2499 54.8999H39.4399V52.7099H37.2499V54.8999Z" fill="#0E1721"/>
  <path d="M31.86 52.76H30.98V57.77H31.86V52.76Z" fill="#0E1721"/>
  <path d="M25.9798 42.04H23.1298C23.069 42.04 23.0198 42.0893 23.0198 42.15V45C23.0198 45.0608 23.069 45.11 23.1298 45.11H25.9798C26.0405 45.11 26.0898 45.0608 26.0898 45V42.15C26.0898 42.0893 26.0405 42.04 25.9798 42.04Z" fill="white"/>
  <path d="M25.8598 45.56H23.2398C22.8698 45.56 22.5698 45.26 22.5698 44.89V42.27C22.5698 41.9 22.8698 41.6 23.2398 41.6H25.8598C26.2298 41.6 26.5298 41.9 26.5298 42.27V44.89C26.5298 45.26 26.2298 45.56 25.8598 45.56ZM23.4598 44.68H25.6498V42.49H23.4598V44.68Z" fill="#0E1721"/>
  <path d="M39.7698 42.04H36.9198C36.8591 42.04 36.8098 42.0893 36.8098 42.15V45C36.8098 45.0608 36.8591 45.11 36.9198 45.11H39.7698C39.8306 45.11 39.8798 45.0608 39.8798 45V42.15C39.8798 42.0893 39.8306 42.04 39.7698 42.04Z" fill="white"/>
  <path d="M39.6599 45.56H37.0399C36.6699 45.56 36.3699 45.26 36.3699 44.89V42.27C36.3699 41.9 36.6699 41.6 37.0399 41.6H39.6599C40.0299 41.6 40.3299 41.9 40.3299 42.27V44.89C40.3299 45.26 40.0299 45.56 39.6599 45.56ZM37.2499 44.68H39.4399V42.49H37.2499V44.68Z" fill="#0E1721"/>
  <path d="M32.8697 42.04H30.0197C29.9589 42.04 29.9097 42.0893 29.9097 42.15V45C29.9097 45.0608 29.9589 45.11 30.0197 45.11H32.8697C32.9304 45.11 32.9797 45.0608 32.9797 45V42.15C32.9797 42.0893 32.9304 42.04 32.8697 42.04Z" fill="white"/>
  <path d="M32.7597 45.56H30.1397C29.7697 45.56 29.4697 45.26 29.4697 44.89V42.27C29.4697 41.9 29.7697 41.6 30.1397 41.6H32.7597C33.1297 41.6 33.4297 41.9 33.4297 42.27V44.89C33.4297 45.26 33.1297 45.56 32.7597 45.56ZM30.3497 44.68H32.5397V42.49H30.3497V44.68Z" fill="#0E1721"/>
  <path d="M25.9798 47.1499H23.1298C23.069 47.1499 23.0198 47.1991 23.0198 47.2599V50.1099C23.0198 50.1707 23.069 50.2199 23.1298 50.2199H25.9798C26.0405 50.2199 26.0898 50.1707 26.0898 50.1099V47.2599C26.0898 47.1991 26.0405 47.1499 25.9798 47.1499Z" fill="white"/>
  <path d="M25.8598 50.67H23.2398C22.8698 50.67 22.5698 50.37 22.5698 50V47.38C22.5698 47.01 22.8698 46.71 23.2398 46.71H25.8598C26.2298 46.71 26.5298 47.01 26.5298 47.38V50C26.5298 50.37 26.2298 50.67 25.8598 50.67ZM23.4598 49.79H25.6498V47.6H23.4598V49.79Z" fill="#0E1721"/>
  <path d="M39.7698 47.1499H36.9198C36.8591 47.1499 36.8098 47.1991 36.8098 47.2599V50.1099C36.8098 50.1707 36.8591 50.2199 36.9198 50.2199H39.7698C39.8306 50.2199 39.8798 50.1707 39.8798 50.1099V47.2599C39.8798 47.1991 39.8306 47.1499 39.7698 47.1499Z" fill="white"/>
  <path d="M39.6599 50.67H37.0399C36.6699 50.67 36.3699 50.37 36.3699 50V47.38C36.3699 47.01 36.6699 46.71 37.0399 46.71H39.6599C40.0299 46.71 40.3299 47.01 40.3299 47.38V50C40.3299 50.37 40.0299 50.67 39.6599 50.67ZM37.2499 49.79H39.4399V47.6H37.2499V49.79Z" fill="#0E1721"/>
  <path d="M32.8697 47.1499H30.0197C29.9589 47.1499 29.9097 47.1991 29.9097 47.2599V50.1099C29.9097 50.1707 29.9589 50.2199 30.0197 50.2199H32.8697C32.9304 50.2199 32.9797 50.1707 32.9797 50.1099V47.2599C32.9797 47.1991 32.9304 47.1499 32.8697 47.1499Z" fill="white"/>
  <path d="M32.7597 50.67H30.1397C29.7697 50.67 29.4697 50.37 29.4697 50V47.38C29.4697 47.01 29.7697 46.71 30.1397 46.71H32.7597C33.1297 46.71 33.4297 47.01 33.4297 47.38V50C33.4297 50.37 33.1297 50.67 32.7597 50.67ZM30.3497 49.79H32.5397V47.6H30.3497V49.79Z" fill="#0E1721"/>
  <path d="M44.8399 58.1699H18.0599C17.8199 58.1699 17.6199 57.9699 17.6199 57.7299C17.6199 57.4899 17.8199 57.2899 18.0599 57.2899H44.8399C45.0799 57.2899 45.2799 57.4899 45.2799 57.7299C45.2799 57.9699 45.0799 58.1699 44.8399 58.1699Z" fill="#0E1721"/>
</svg>
