<svg xmlns="http://www.w3.org/2000/svg" width="112" height="100" viewBox="0 0 112 100" fill="none">
  <path d="M103.28 57.72V98.56H76.69V54.47H100.03C101.81 54.47 103.28 55.93 103.28 57.72Z" fill="#3C8645"/>
  <path d="M103.28 99.49H76.69C76.18 99.49 75.77 99.08 75.77 98.57V54.48C75.77 53.97 76.18 53.56 76.69 53.56H100.03C102.33 53.56 104.2 55.43 104.2 57.73V98.57C104.2 99.08 103.79 99.49 103.28 99.49ZM77.62 97.64H102.36V57.72C102.36 56.44 101.32 55.4 100.04 55.4H77.62V97.64Z" fill="#0E1721"/>
  <path d="M34.8 42.29V98.57H7.83997V45.54C7.83997 43.76 9.29997 42.29 11.09 42.29H34.8Z" fill="#FC8B27"/>
  <path d="M34.8 99.49H7.83998C7.32998 99.49 6.91998 99.08 6.91998 98.57V45.54C6.91998 43.24 8.78998 41.37 11.09 41.37H34.8C35.31 41.37 35.72 41.78 35.72 42.29V98.57C35.72 99.08 35.31 99.49 34.8 99.49ZM8.76998 97.64H33.88V43.21H11.09C9.80998 43.21 8.76998 44.25 8.76998 45.53V97.64Z" fill="#0E1721"/>
  <path d="M76.69 4.17001V98.56H34.8V4.17001C34.8 2.39001 36.26 0.920013 38.05 0.920013H73.45C75.23 0.920013 76.7 2.38001 76.7 4.17001H76.69Z" fill="#4279B6"/>
  <path d="M76.69 99.49H34.8C34.29 99.49 33.88 99.08 33.88 98.57V4.17C33.88 1.87 35.75 0 38.05 0H73.45C75.75 0 77.62 1.87 77.62 4.17V98.56C77.62 99.07 77.21 99.48 76.7 99.48L76.69 99.49ZM35.73 97.64H75.77V4.17C75.77 2.89 74.73 1.85 73.45 1.85H38.05C36.77 1.85 35.73 2.89 35.73 4.17V97.64Z" fill="#0E1721"/>
  <path d="M110.49 100H0.92C0.41 100 0 99.59 0 99.08C0 98.57 0.41 98.16 0.92 98.16H110.49C111 98.16 111.41 98.57 111.41 99.08C111.41 99.59 111 100 110.49 100Z" fill="#0E1721"/>
  <path d="M52.53 9.07001H43.67V17.93H52.53V9.07001Z" fill="white"/>
  <path d="M52.53 18.85H43.67C43.16 18.85 42.75 18.44 42.75 17.93V9.06999C42.75 8.55999 43.16 8.14999 43.67 8.14999H52.53C53.04 8.14999 53.45 8.55999 53.45 9.06999V17.93C53.45 18.44 53.04 18.85 52.53 18.85ZM44.59 17.01H51.61V9.98999H44.59V17.01Z" fill="#0E1721"/>
  <path d="M52.53 23.84H43.67V32.7H52.53V23.84Z" fill="#FCCD2A"/>
  <path d="M52.53 33.63H43.67C43.16 33.63 42.75 33.22 42.75 32.71V23.85C42.75 23.34 43.16 22.93 43.67 22.93H52.53C53.04 22.93 53.45 23.34 53.45 23.85V32.71C53.45 33.22 53.04 33.63 52.53 33.63ZM44.59 31.78H51.61V24.76H44.59V31.78Z" fill="#0E1721"/>
  <path d="M52.53 38.61H43.67V47.47H52.53V38.61Z" fill="white"/>
  <path d="M52.53 48.4H43.67C43.16 48.4 42.75 47.99 42.75 47.48V38.62C42.75 38.11 43.16 37.7 43.67 37.7H52.53C53.04 37.7 53.45 38.11 53.45 38.62V47.48C53.45 47.99 53.04 48.4 52.53 48.4ZM44.59 46.55H51.61V39.53H44.59V46.55Z" fill="#0E1721"/>
  <path d="M24.83 48.95H15.97V57.81H24.83V48.95Z" fill="white"/>
  <path d="M24.83 58.74H15.97C15.46 58.74 15.05 58.33 15.05 57.82V48.96C15.05 48.45 15.46 48.04 15.97 48.04H24.83C25.34 48.04 25.75 48.45 25.75 48.96V57.82C25.75 58.33 25.34 58.74 24.83 58.74ZM16.89 56.89H23.91V49.87H16.89V56.89Z" fill="#0E1721"/>
  <path d="M24.83 63.73H15.97V72.59H24.83V63.73Z" fill="white"/>
  <path d="M24.83 73.51H15.97C15.46 73.51 15.05 73.1 15.05 72.59V63.73C15.05 63.22 15.46 62.81 15.97 62.81H24.83C25.34 62.81 25.75 63.22 25.75 63.73V72.59C25.75 73.1 25.34 73.51 24.83 73.51ZM16.89 71.67H23.91V64.65H16.89V71.67Z" fill="#0E1721"/>
  <path d="M24.83 78.5H15.97V87.36H24.83V78.5Z" fill="white"/>
  <path d="M24.83 88.28H15.97C15.46 88.28 15.05 87.87 15.05 87.36V78.5C15.05 77.99 15.46 77.58 15.97 77.58H24.83C25.34 77.58 25.75 77.99 25.75 78.5V87.36C25.75 87.87 25.34 88.28 24.83 88.28ZM16.89 86.44H23.91V79.42H16.89V86.44Z" fill="#0E1721"/>
  <path d="M52.53 53.38H43.67V62.24H52.53V53.38Z" fill="white"/>
  <path d="M52.53 63.17H43.67C43.16 63.17 42.75 62.76 42.75 62.25V53.39C42.75 52.88 43.16 52.47 43.67 52.47H52.53C53.04 52.47 53.45 52.88 53.45 53.39V62.25C53.45 62.76 53.04 63.17 52.53 63.17ZM44.59 61.32H51.61V54.3H44.59V61.32Z" fill="#0E1721"/>
  <path d="M52.53 68.16H43.67V77.02H52.53V68.16Z" fill="#FCCD2A"/>
  <path d="M52.53 77.94H43.67C43.16 77.94 42.75 77.53 42.75 77.02V68.16C42.75 67.65 43.16 67.24 43.67 67.24H52.53C53.04 67.24 53.45 67.65 53.45 68.16V77.02C53.45 77.53 53.04 77.94 52.53 77.94ZM44.59 76.1H51.61V69.08H44.59V76.1Z" fill="#0E1721"/>
  <path d="M65.27 84.78H46.99V98.44H65.27V84.78Z" fill="white"/>
  <path d="M65.27 99.36H46.99C46.48 99.36 46.07 98.95 46.07 98.44V84.78C46.07 84.27 46.48 83.86 46.99 83.86H65.27C65.78 83.86 66.19 84.27 66.19 84.78V98.44C66.19 98.95 65.78 99.36 65.27 99.36ZM47.91 97.52H64.34V85.7H47.91V97.52Z" fill="#0E1721"/>
  <path d="M66.93 9.07001H58.07V17.93H66.93V9.07001Z" fill="#FCCD2A"/>
  <path d="M66.93 18.85H58.07C57.56 18.85 57.15 18.44 57.15 17.93V9.06999C57.15 8.55999 57.56 8.14999 58.07 8.14999H66.93C67.44 8.14999 67.85 8.55999 67.85 9.06999V17.93C67.85 18.44 67.44 18.85 66.93 18.85ZM58.99 17.01H66.01V9.98999H58.99V17.01Z" fill="#0E1721"/>
  <path d="M66.93 23.84H58.07V32.7H66.93V23.84Z" fill="white"/>
  <path d="M66.93 33.63H58.07C57.56 33.63 57.15 33.22 57.15 32.71V23.85C57.15 23.34 57.56 22.93 58.07 22.93H66.93C67.44 22.93 67.85 23.34 67.85 23.85V32.71C67.85 33.22 67.44 33.63 66.93 33.63ZM58.99 31.78H66.01V24.76H58.99V31.78Z" fill="#0E1721"/>
  <path d="M66.93 38.61H58.07V47.47H66.93V38.61Z" fill="#FCCD2A"/>
  <path d="M66.93 48.4H58.07C57.56 48.4 57.15 47.99 57.15 47.48V38.62C57.15 38.11 57.56 37.7 58.07 37.7H66.93C67.44 37.7 67.85 38.11 67.85 38.62V47.48C67.85 47.99 67.44 48.4 66.93 48.4ZM58.99 46.55H66.01V39.53H58.99V46.55Z" fill="#0E1721"/>
  <path d="M94.26 63.73H85.4V72.59H94.26V63.73Z" fill="white"/>
  <path d="M94.26 73.51H85.4C84.89 73.51 84.48 73.1 84.48 72.59V63.73C84.48 63.22 84.89 62.81 85.4 62.81H94.26C94.77 62.81 95.18 63.22 95.18 63.73V72.59C95.18 73.1 94.77 73.51 94.26 73.51ZM86.32 71.67H93.34V64.65H86.32V71.67Z" fill="#0E1721"/>
  <path d="M94.26 78.5H85.4V87.36H94.26V78.5Z" fill="white"/>
  <path d="M94.26 88.28H85.4C84.89 88.28 84.48 87.87 84.48 87.36V78.5C84.48 77.99 84.89 77.58 85.4 77.58H94.26C94.77 77.58 95.18 77.99 95.18 78.5V87.36C95.18 87.87 94.77 88.28 94.26 88.28ZM86.32 86.44H93.34V79.42H86.32V86.44Z" fill="#0E1721"/>
  <path d="M66.93 53.38H58.07V62.24H66.93V53.38Z" fill="#FCCD2A"/>
  <path d="M66.93 63.17H58.07C57.56 63.17 57.15 62.76 57.15 62.25V53.39C57.15 52.88 57.56 52.47 58.07 52.47H66.93C67.44 52.47 67.85 52.88 67.85 53.39V62.25C67.85 62.76 67.44 63.17 66.93 63.17ZM58.99 61.32H66.01V54.3H58.99V61.32Z" fill="#0E1721"/>
  <path d="M66.93 68.16H58.07V77.02H66.93V68.16Z" fill="white"/>
  <path d="M66.93 77.94H58.07C57.56 77.94 57.15 77.53 57.15 77.02V68.16C57.15 67.65 57.56 67.24 58.07 67.24H66.93C67.44 67.24 67.85 67.65 67.85 68.16V77.02C67.85 77.53 67.44 77.94 66.93 77.94ZM58.99 76.1H66.01V69.08H58.99V76.1Z" fill="#0E1721"/>
  <path d="M56.22 99.36C55.71 99.36 55.3 98.95 55.3 98.44V85.15C55.3 84.64 55.71 84.23 56.22 84.23C56.73 84.23 57.14 84.64 57.14 85.15V98.44C57.14 98.95 56.73 99.36 56.22 99.36Z" fill="#0E1721"/>
</svg>
