<svg xmlns="http://www.w3.org/2000/svg" width="100" height="100" viewBox="0 0 100 100" fill="none">
  <path d="M32.89 13.6499C32.89 13.6499 32.92 13.7199 32.94 13.7599C32.96 13.7899 32.99 13.8199 33.02 13.8499C33.05 13.8799 33.08 13.8999 33.11 13.9299C33.14 13.9599 33.18 13.9699 33.21 13.9899C33.25 13.9999 33.29 14.0099 33.32 14.0199C33.36 14.0199 33.4 14.0299 33.44 14.0299C33.6 14.0299 33.75 13.9699 33.86 13.8499C33.89 13.8199 33.91 13.7899 33.94 13.7599C33.97 13.7299 33.98 13.6899 34 13.6499C34.02 13.6099 34.02 13.5799 34.03 13.5399C34.03 13.4999 34.04 13.4599 34.04 13.4199C34.04 13.3799 34.04 13.3399 34.03 13.2999C34.03 13.2599 34.01 13.2199 34 13.1899C33.98 13.1499 33.96 13.1199 33.94 13.0899C33.92 13.0599 33.89 13.0299 33.86 12.9999C33.72 12.8599 33.51 12.7999 33.31 12.8299C33.27 12.8299 33.23 12.8499 33.2 12.8699C33.16 12.8899 33.13 12.8999 33.1 12.9199C33.07 12.9399 33.04 12.9699 33.01 12.9999C32.98 13.0299 32.96 13.0599 32.93 13.0899C32.91 13.1199 32.89 13.1599 32.88 13.1899C32.86 13.2299 32.85 13.2699 32.85 13.2999C32.85 13.3399 32.84 13.3799 32.84 13.4199C32.84 13.4599 32.84 13.4999 32.85 13.5399C32.85 13.5799 32.87 13.6199 32.88 13.6499H32.89Z" fill="#2D557F"/>
  <path d="M36.75 14.0199H49.35C49.68 14.0199 49.95 13.7499 49.95 13.4199C49.95 13.0899 49.68 12.8199 49.35 12.8199H36.75C36.42 12.8199 36.15 13.0899 36.15 13.4199C36.15 13.7499 36.42 14.0199 36.75 14.0199Z" fill="#2D557F"/>
  <path d="M78.34 11.1C77.64 10.39 76.5 10.38 75.78 11.08L72.04 14.76L71.4 15.39L70.71 16.07L67.59 19.14L66.55 18.1L65.85 17.4L64.5 16.05L63.8 15.35L63.68 15.23C62.97 14.52 61.83 14.52 61.12 15.23C61.08 15.27 61.05 15.31 61.02 15.35C60.84 15.56 60.72 15.8 60.66 16.05C60.6 16.28 60.59 16.52 60.62 16.75C60.67 17.13 60.83 17.5 61.13 17.79L65.16 21.82L65.86 22.52L66.3 22.96H66.31C66.31 22.96 66.32 22.98 66.33 22.99C66.37 23.03 66.42 23.06 66.46 23.1C66.49 23.13 66.53 23.16 66.56 23.18C66.56 23.18 66.58 23.19 66.59 23.2C66.65 23.24 66.71 23.27 66.78 23.3C66.82 23.32 66.86 23.35 66.91 23.37C66.98 23.4 67.06 23.42 67.14 23.44C67.18 23.44 67.21 23.46 67.25 23.47C67.36 23.49 67.48 23.5 67.6 23.5C67.72 23.5 67.83 23.49 67.94 23.47C67.97 23.47 68 23.45 68.04 23.44C68.12 23.42 68.2 23.4 68.28 23.37C68.32 23.35 68.36 23.33 68.4 23.31C68.46 23.28 68.53 23.25 68.59 23.21C68.63 23.18 68.67 23.14 68.71 23.11C68.76 23.07 68.82 23.03 68.86 22.99L70.72 21.16L71.42 20.47L72.12 19.78L78.33 13.67C79.04 12.97 79.05 11.82 78.35 11.11L78.34 11.1Z" fill="#4279B6"/>
  <path d="M54.34 79.46H31.22C29.9277 79.46 28.88 80.5076 28.88 81.8V83.42C28.88 84.7123 29.9277 85.76 31.22 85.76H54.34C55.6324 85.76 56.68 84.7123 56.68 83.42V81.8C56.68 80.5076 55.6324 79.46 54.34 79.46Z" fill="#4279B6"/>
  <path d="M69.09 0C62.31 0 56.49 4.21 54.12 10.16H20.37C16.86 10.16 14 12.56 14 15.51V94.64C14 97.59 16.86 99.99 20.37 99.99H65.74C69.25 99.99 72.11 97.59 72.11 94.64V31.96C79.56 30.54 85.22 23.98 85.22 16.12C85.22 7.23 77.99 0 69.1 0H69.09ZM65.16 93.41H20.95V16.75H52.98C53.26 24.01 58.35 30.05 65.15 31.76V93.42L65.16 93.41ZM70.71 94.65C70.71 96.83 68.48 98.61 65.74 98.61H20.37C17.63 98.61 15.4 96.84 15.4 94.65V15.51C15.4 13.33 17.63 11.55 20.37 11.55H53.63C53.27 12.76 53.05 14.03 52.99 15.34H20.37C19.92 15.34 19.55 15.7 19.55 16.13V94.1C19.55 94.49 19.86 94.8 20.25 94.8H65.85C66.24 94.8 66.55 94.49 66.55 94.1V32.03C67.38 32.16 68.22 32.23 69.09 32.23C69.64 32.23 70.18 32.2 70.71 32.15V94.63V94.65ZM72.11 30.11C71.88 30.16 71.65 30.2 71.41 30.24C71.18 30.28 70.95 30.31 70.71 30.34C70.18 30.4 69.64 30.43 69.09 30.43C68.22 30.43 67.38 30.35 66.55 30.2C66.31 30.16 66.08 30.11 65.85 30.06C65.61 30.01 65.38 29.95 65.15 29.88C59.36 28.22 55.06 23 54.79 16.74C54.79 16.53 54.77 16.33 54.77 16.12C54.77 16.09 54.77 16.07 54.77 16.04C54.77 15.81 54.77 15.57 54.79 15.34C54.86 14.02 55.11 12.75 55.52 11.55C55.6 11.31 55.69 11.08 55.78 10.85C55.87 10.61 55.97 10.38 56.08 10.15C58.35 5.23 63.32 1.8 69.09 1.8C76.98 1.8 83.4 8.22 83.4 16.11C83.4 22.97 78.55 28.71 72.1 30.1L72.11 30.11Z" fill="#2D557F"/>
  <path d="M52.39 41.73V40.01C52.39 35.7 49.94 30.67 43.05 30.67C36.16 30.67 33.71 35.7 33.71 40.01V41.73C33.71 44.73 34.85 47.87 36.88 50.03L26.91 55.73C25.81 56.36 25.13 57.53 25.13 58.79V60.61C25.13 63.87 27.78 66.51 31.03 66.51H55.07C58.33 66.51 60.97 63.86 60.97 60.61V58.79C60.97 57.53 60.29 56.35 59.19 55.73L49.22 50.03C51.25 47.87 52.39 44.73 52.39 41.73ZM59.47 60.61C59.47 63.03 57.5 65.01 55.07 65.01H31.03C28.61 65.01 26.63 63.04 26.63 60.61V58.79C26.63 58.07 27.02 57.39 27.65 57.04L38.06 51.09C39.44 52.14 41.12 52.78 43.05 52.78C44.98 52.78 46.66 52.14 48.04 51.09L58.45 57.04C59.08 57.4 59.47 58.07 59.47 58.79V60.61ZM35.22 40.01C35.22 38.17 35.78 32.18 43.05 32.18C50.32 32.18 50.88 38.17 50.88 40.01V41.73C50.88 44.65 49.67 47.71 47.54 49.56C47.22 49.84 46.87 50.09 46.51 50.31C45.96 50.64 45.36 50.9 44.72 51.06C44.19 51.2 43.63 51.27 43.04 51.27C42.45 51.27 41.89 51.2 41.36 51.06C40.72 50.9 40.13 50.64 39.57 50.31C39.21 50.09 38.86 49.84 38.54 49.56C36.42 47.71 35.2 44.65 35.2 41.73V40.01H35.22Z" fill="#2D557F"/>
  <path d="M59.71 69.12H26.4C25.98 69.12 25.65 69.46 25.65 69.87V76.08C25.65 76.5 25.99 76.83 26.4 76.83H59.72C60.14 76.83 60.47 76.49 60.47 76.08V69.87C60.47 69.45 60.13 69.12 59.72 69.12H59.71ZM58.96 75.33H27.15V70.63H58.96V75.33Z" fill="#2D557F"/>
  <path d="M29.07 74.64C29.32 74.64 29.52 74.44 29.52 74.19V71.81C29.52 71.56 29.32 71.36 29.07 71.36C28.82 71.36 28.62 71.56 28.62 71.81V74.19C28.62 74.44 28.82 74.64 29.07 74.64Z" fill="#2D557F"/>
</svg>
