<svg xmlns="http://www.w3.org/2000/svg" width="100" height="100" viewBox="0 0 100 100" fill="none">
  <path d="M69.09 32.2401C68.23 32.2401 67.38 32.1701 66.55 32.0401V94.1101C66.55 94.5001 66.24 94.8101 65.85 94.8101H20.25C19.86 94.8101 19.55 94.5001 19.55 94.1101V16.1401C19.55 15.7001 19.92 15.3501 20.37 15.3501H52.99C53.05 14.0401 53.27 12.7701 53.63 11.5601H20.37C17.63 11.5601 15.4 13.3301 15.4 15.5201V94.6501C15.4 96.8301 17.63 98.6101 20.37 98.6101H65.74C68.48 98.6101 70.71 96.8401 70.71 94.6501V32.1701C70.18 32.2201 69.64 32.2501 69.09 32.2501V32.2401ZM36.75 12.8201H49.35C49.68 12.8201 49.95 13.0901 49.95 13.4201C49.95 13.7501 49.68 14.0201 49.35 14.0201H36.75C36.42 14.0201 36.15 13.7501 36.15 13.4201C36.15 13.0901 36.42 12.8201 36.75 12.8201ZM32.85 13.3001C32.85 13.3001 32.87 13.2201 32.88 13.1901C32.9 13.1501 32.91 13.1201 32.93 13.0901C32.95 13.0601 32.98 13.0301 33.01 13.0001C33.04 12.9701 33.07 12.9501 33.1 12.9201C33.13 12.9001 33.17 12.8801 33.2 12.8701C33.24 12.8501 33.28 12.8401 33.31 12.8301C33.51 12.7901 33.71 12.8501 33.86 13.0001C33.89 13.0301 33.91 13.0601 33.94 13.0901C33.96 13.1201 33.98 13.1601 34 13.1901C34.02 13.2301 34.02 13.2701 34.03 13.3001C34.03 13.3401 34.04 13.3801 34.04 13.4201C34.04 13.4601 34.04 13.5001 34.03 13.5401C34.03 13.5801 34.01 13.6201 34 13.6501C33.98 13.6901 33.96 13.7201 33.94 13.7601C33.92 13.8001 33.89 13.8201 33.86 13.8501C33.75 13.9601 33.59 14.0301 33.44 14.0301C33.4 14.0301 33.36 14.0301 33.32 14.0201C33.28 14.0201 33.24 14.0001 33.21 13.9901C33.17 13.9701 33.14 13.9501 33.11 13.9301C33.08 13.9101 33.05 13.8801 33.02 13.8501C32.99 13.8201 32.97 13.7901 32.94 13.7601C32.92 13.7301 32.9 13.6901 32.89 13.6501C32.87 13.6101 32.86 13.5801 32.86 13.5401C32.86 13.5001 32.85 13.4601 32.85 13.4201C32.85 13.3801 32.85 13.3401 32.86 13.3001H32.85Z" fill="#4279B6"/>
  <path d="M58.45 57.03L48.04 51.08C46.65 52.13 44.98 52.77 43.05 52.77C41.12 52.77 39.44 52.13 38.06 51.08L27.65 57.03C27.02 57.39 26.63 58.06 26.63 58.78V60.6C26.63 63.02 28.6 65 31.03 65H55.07C57.49 65 59.47 63.03 59.47 60.6V58.78C59.47 58.06 59.08 57.39 58.45 57.03Z" fill="#FCCD2A"/>
  <path d="M52.99 16.75H20.95V93.42H65.16V31.76C58.36 30.05 53.27 24.01 52.99 16.75ZM56.67 83.42C56.67 84.71 55.62 85.76 54.33 85.76H31.22C29.93 85.76 28.88 84.71 28.88 83.42V81.8C28.88 80.51 29.93 79.46 31.22 79.46H54.33C55.62 79.46 56.67 80.51 56.67 81.8V83.42ZM60.47 76.08C60.47 76.5 60.13 76.83 59.72 76.83H26.4C25.98 76.83 25.65 76.49 25.65 76.08V69.87C25.65 69.45 25.99 69.12 26.4 69.12H59.72C60.14 69.12 60.47 69.46 60.47 69.87V76.08ZM60.98 58.79V60.61C60.98 63.87 58.33 66.51 55.08 66.51H31.04C27.78 66.51 25.14 63.86 25.14 60.61V58.79C25.14 57.53 25.82 56.35 26.92 55.73L36.89 50.03C34.86 47.87 33.72 44.73 33.72 41.73V40.01C33.72 35.7 36.17 30.67 43.06 30.67C49.95 30.67 52.4 35.7 52.4 40.01V41.73C52.4 44.73 51.26 47.87 49.23 50.03L59.2 55.73C60.3 56.36 60.98 57.53 60.98 58.79Z" fill="white"/>
  <path d="M27.15 75.33H58.96V70.63H27.15V75.33ZM28.62 71.81C28.62 71.56 28.82 71.36 29.07 71.36C29.32 71.36 29.52 71.56 29.52 71.81V74.19C29.52 74.44 29.32 74.64 29.07 74.64C28.82 74.64 28.62 74.44 28.62 74.19V71.81Z" fill="white"/>
  <path d="M32.89 13.6499C32.89 13.6499 32.92 13.7199 32.94 13.7599C32.96 13.7899 32.99 13.8199 33.02 13.8499C33.05 13.8799 33.08 13.8999 33.11 13.9299C33.14 13.9599 33.18 13.9699 33.21 13.9899C33.25 13.9999 33.29 14.0099 33.32 14.0199C33.36 14.0199 33.4 14.0299 33.44 14.0299C33.6 14.0299 33.75 13.9699 33.86 13.8499C33.89 13.8199 33.91 13.7899 33.94 13.7599C33.97 13.7299 33.98 13.6899 34 13.6499C34.02 13.6099 34.02 13.5799 34.03 13.5399C34.03 13.4999 34.04 13.4599 34.04 13.4199C34.04 13.3799 34.04 13.3399 34.03 13.2999C34.03 13.2599 34.01 13.2199 34 13.1899C33.98 13.1499 33.96 13.1199 33.94 13.0899C33.92 13.0599 33.89 13.0299 33.86 12.9999C33.72 12.8599 33.51 12.7999 33.31 12.8299C33.27 12.8299 33.23 12.8499 33.2 12.8699C33.16 12.8899 33.13 12.8999 33.1 12.9199C33.07 12.9399 33.04 12.9699 33.01 12.9999C32.98 13.0299 32.96 13.0599 32.93 13.0899C32.91 13.1199 32.89 13.1599 32.88 13.1899C32.86 13.2299 32.85 13.2699 32.85 13.2999C32.85 13.3399 32.84 13.3799 32.84 13.4199C32.84 13.4599 32.84 13.4999 32.85 13.5399C32.85 13.5799 32.87 13.6199 32.88 13.6499H32.89Z" fill="white"/>
  <path d="M36.75 14.0199H49.35C49.68 14.0199 49.95 13.7499 49.95 13.4199C49.95 13.0899 49.68 12.8199 49.35 12.8199H36.75C36.42 12.8199 36.15 13.0899 36.15 13.4199C36.15 13.7499 36.42 14.0199 36.75 14.0199Z" fill="white"/>
  <path d="M78.34 11.1C77.64 10.39 76.5 10.38 75.78 11.08L72.04 14.76L71.4 15.39L70.71 16.07L67.59 19.14L66.55 18.1L65.85 17.4L64.5 16.05L63.8 15.35L63.68 15.23C62.97 14.52 61.83 14.52 61.12 15.23C61.08 15.27 61.05 15.31 61.02 15.35C60.84 15.56 60.72 15.8 60.66 16.05C60.6 16.28 60.59 16.52 60.62 16.75C60.67 17.13 60.83 17.5 61.13 17.79L65.16 21.82L65.86 22.52L66.3 22.96H66.31C66.31 22.96 66.32 22.98 66.33 22.99C66.37 23.03 66.42 23.06 66.46 23.1C66.49 23.13 66.53 23.16 66.56 23.18C66.56 23.18 66.58 23.19 66.59 23.2C66.65 23.24 66.71 23.27 66.78 23.3C66.82 23.32 66.86 23.35 66.91 23.37C66.98 23.4 67.06 23.42 67.14 23.44C67.18 23.44 67.21 23.46 67.25 23.47C67.36 23.49 67.48 23.5 67.6 23.5C67.72 23.5 67.83 23.49 67.94 23.47C67.97 23.47 68 23.45 68.04 23.44C68.12 23.42 68.2 23.4 68.28 23.37C68.32 23.35 68.36 23.33 68.4 23.31C68.46 23.28 68.53 23.25 68.59 23.21C68.63 23.18 68.67 23.14 68.71 23.11C68.76 23.07 68.82 23.03 68.86 22.99L70.72 21.16L71.42 20.47L72.12 19.78L78.33 13.67C79.04 12.97 79.05 11.82 78.35 11.11L78.34 11.1Z" fill="white"/>
  <path d="M50.89 40.0099C50.89 38.1699 50.33 32.1799 43.06 32.1799C35.79 32.1799 35.23 38.1699 35.23 40.0099V41.7299C35.23 44.6499 36.44 47.7099 38.57 49.5599C38.89 49.8399 39.24 50.0899 39.6 50.3099C40.15 50.6399 40.75 50.8999 41.39 51.0599C41.92 51.1999 42.48 51.2699 43.07 51.2699C43.66 51.2699 44.22 51.1999 44.75 51.0599C45.39 50.8999 45.98 50.6399 46.54 50.3099C46.9 50.0899 47.25 49.8399 47.57 49.5599C49.69 47.7099 50.91 44.6499 50.91 41.7299V40.0099H50.89Z" fill="white"/>
  <path d="M69.09 1.81006C63.32 1.81006 58.35 5.24006 56.08 10.1601C55.97 10.3901 55.87 10.6201 55.78 10.8601C55.69 11.0901 55.6 11.3201 55.52 11.5601C55.11 12.7601 54.86 14.0301 54.79 15.3501C54.78 15.5801 54.77 15.8101 54.77 16.0501C54.77 16.0801 54.77 16.1001 54.77 16.1301C54.77 16.3401 54.77 16.5501 54.79 16.7501C55.06 23.0001 59.36 28.2301 65.15 29.8901C65.38 29.9601 65.61 30.0201 65.85 30.0701C66.08 30.1201 66.31 30.1701 66.55 30.2101C67.37 30.3601 68.22 30.4401 69.09 30.4401C69.64 30.4401 70.18 30.4101 70.71 30.3501C70.94 30.3201 71.18 30.2901 71.41 30.2501C71.64 30.2101 71.88 30.1701 72.11 30.1201C78.56 28.7301 83.41 22.9901 83.41 16.1301C83.41 8.24006 76.99 1.82006 69.1 1.82006L69.09 1.81006ZM78.31 13.6501L72.1 19.7601L71.4 20.4501L70.7 21.1401L68.84 22.9701C68.84 22.9701 68.74 23.0501 68.69 23.0901C68.65 23.1201 68.61 23.1601 68.57 23.1901C68.51 23.2301 68.44 23.2601 68.38 23.2901C68.34 23.3101 68.3 23.3401 68.26 23.3501C68.18 23.3801 68.1 23.4001 68.02 23.4201C67.99 23.4201 67.96 23.4401 67.92 23.4501C67.81 23.4701 67.69 23.4801 67.58 23.4801C67.46 23.4801 67.35 23.4701 67.23 23.4501C67.19 23.4501 67.16 23.4301 67.12 23.4201C67.04 23.4001 66.96 23.3801 66.89 23.3501C66.85 23.3301 66.8 23.3001 66.76 23.2801C66.7 23.2501 66.63 23.2201 66.57 23.1801C66.57 23.1801 66.55 23.1701 66.54 23.1601C66.5 23.1401 66.47 23.1001 66.44 23.0801C66.39 23.0401 66.34 23.0001 66.29 22.9601H66.28L65.84 22.5101L65.14 21.8101L61.11 17.7801C60.82 17.4901 60.65 17.1201 60.6 16.7401C60.57 16.5101 60.58 16.2701 60.64 16.0401C60.71 15.7901 60.83 15.5501 61 15.3401C61.03 15.3001 61.06 15.2601 61.1 15.2201C61.81 14.5101 62.95 14.5101 63.66 15.2201L63.78 15.3401L64.48 16.0401L65.83 17.3901L66.53 18.0901L67.57 19.1301L70.69 16.0601L71.38 15.3801L72.02 14.7501L75.76 11.0701C76.47 10.3701 77.62 10.3801 78.32 11.0901C79.02 11.8001 79.01 12.9501 78.3 13.6501H78.31Z" fill="#3C8645"/>
  <path d="M54.34 79.4601H31.22C29.9277 79.4601 28.88 80.5077 28.88 81.8001V83.4201C28.88 84.7124 29.9277 85.7601 31.22 85.7601H54.34C55.6323 85.7601 56.68 84.7124 56.68 83.4201V81.8001C56.68 80.5077 55.6323 79.4601 54.34 79.4601Z" fill="#3C8645"/>
  <path d="M69.09 0C62.31 0 56.49 4.21 54.12 10.16H20.37C16.86 10.16 14 12.56 14 15.51V94.64C14 97.59 16.86 99.99 20.37 99.99H65.74C69.25 99.99 72.11 97.59 72.11 94.64V31.96C79.56 30.54 85.22 23.98 85.22 16.12C85.22 7.23 77.99 0 69.1 0H69.09ZM65.16 93.41H20.95V16.75H52.98C53.26 24.01 58.35 30.05 65.15 31.76V93.42L65.16 93.41ZM70.71 94.65C70.71 96.83 68.48 98.61 65.74 98.61H20.37C17.63 98.61 15.4 96.84 15.4 94.65V15.51C15.4 13.33 17.63 11.55 20.37 11.55H53.63C53.27 12.76 53.05 14.03 52.99 15.34H20.37C19.92 15.34 19.55 15.7 19.55 16.13V94.1C19.55 94.49 19.86 94.8 20.25 94.8H65.85C66.24 94.8 66.55 94.49 66.55 94.1V32.03C67.38 32.16 68.22 32.23 69.09 32.23C69.64 32.23 70.18 32.2 70.71 32.15V94.63V94.65ZM72.11 30.11C71.88 30.16 71.65 30.2 71.41 30.24C71.18 30.28 70.95 30.31 70.71 30.34C70.18 30.4 69.64 30.43 69.09 30.43C68.22 30.43 67.38 30.35 66.55 30.2C66.31 30.16 66.08 30.11 65.85 30.06C65.61 30.01 65.38 29.95 65.15 29.88C59.36 28.22 55.06 23 54.79 16.74C54.79 16.53 54.77 16.33 54.77 16.12C54.77 16.09 54.77 16.07 54.77 16.04C54.77 15.81 54.77 15.57 54.79 15.34C54.86 14.02 55.11 12.75 55.52 11.55C55.6 11.31 55.69 11.08 55.78 10.85C55.87 10.61 55.97 10.38 56.08 10.15C58.35 5.23 63.32 1.8 69.09 1.8C76.98 1.8 83.4 8.22 83.4 16.11C83.4 22.97 78.55 28.71 72.1 30.1L72.11 30.11Z" fill="#0E1721"/>
  <path d="M52.39 41.73V40.01C52.39 35.7 49.94 30.67 43.05 30.67C36.16 30.67 33.71 35.7 33.71 40.01V41.73C33.71 44.73 34.85 47.87 36.88 50.03L26.91 55.73C25.81 56.36 25.13 57.53 25.13 58.79V60.61C25.13 63.87 27.78 66.51 31.03 66.51H55.07C58.33 66.51 60.97 63.86 60.97 60.61V58.79C60.97 57.53 60.29 56.35 59.19 55.73L49.22 50.03C51.25 47.87 52.39 44.73 52.39 41.73ZM59.47 60.61C59.47 63.03 57.5 65.01 55.07 65.01H31.03C28.61 65.01 26.63 63.04 26.63 60.61V58.79C26.63 58.07 27.02 57.39 27.65 57.04L38.06 51.09C39.44 52.14 41.12 52.78 43.05 52.78C44.98 52.78 46.66 52.14 48.04 51.09L58.45 57.04C59.08 57.4 59.47 58.07 59.47 58.79V60.61ZM35.22 40.01C35.22 38.17 35.78 32.18 43.05 32.18C50.32 32.18 50.88 38.17 50.88 40.01V41.73C50.88 44.65 49.67 47.71 47.54 49.56C47.22 49.84 46.87 50.09 46.51 50.31C45.96 50.64 45.36 50.9 44.72 51.06C44.19 51.2 43.63 51.27 43.04 51.27C42.45 51.27 41.89 51.2 41.36 51.06C40.72 50.9 40.13 50.64 39.57 50.31C39.21 50.09 38.86 49.84 38.54 49.56C36.42 47.71 35.2 44.65 35.2 41.73V40.01H35.22Z" fill="#0E1721"/>
  <path d="M59.71 69.12H26.4C25.98 69.12 25.65 69.46 25.65 69.87V76.08C25.65 76.5 25.99 76.83 26.4 76.83H59.72C60.14 76.83 60.47 76.49 60.47 76.08V69.87C60.47 69.45 60.13 69.12 59.72 69.12H59.71ZM58.96 75.33H27.15V70.63H58.96V75.33Z" fill="#0E1721"/>
  <path d="M29.07 74.64C29.32 74.64 29.52 74.44 29.52 74.19V71.81C29.52 71.56 29.32 71.36 29.07 71.36C28.82 71.36 28.62 71.56 28.62 71.81V74.19C28.62 74.44 28.82 74.64 29.07 74.64Z" fill="#0E1721"/>
</svg>
