<svg xmlns="http://www.w3.org/2000/svg" width="100" height="100" viewBox="0 0 100 100" fill="none">
  <path d="M95.46 41.75H90.04L82.5 7.57C82.24 6.39 81.53 5.38 80.51 4.72C79.48 4.07 78.27 3.85 77.09 4.11L3.57 20.33C1.12 20.87 -0.43 23.3 0.11 25.75L9.67 69.08C10.14 71.2 12.02 72.65 14.11 72.65C14.43 72.65 14.76 72.61 15.09 72.54L15.64 72.42V90.67C15.64 93.18 17.68 95.21 20.18 95.21H95.46C97.97 95.21 100 93.17 100 90.67V46.3C100 43.79 97.96 41.76 95.46 41.76V41.75ZM98.43 90.66C98.43 92.3 97.09 93.64 95.45 93.64H20.18C18.54 93.64 17.2 92.3 17.2 90.66V46.29C17.2 44.65 18.54 43.31 20.18 43.31H95.46C97.1 43.31 98.44 44.65 98.44 46.29V90.66H98.43ZM11.2 68.74L1.64 25.41C1.29 23.81 2.3 22.22 3.91 21.86L77.41 5.64C78.18 5.47 78.98 5.61 79.65 6.04C80.32 6.47 80.79 7.13 80.96 7.9L88.43 41.74H20.18C17.67 41.74 15.64 43.78 15.64 46.28V70.8L14.76 70.99C13.15 71.34 11.56 70.33 11.21 68.72L11.2 68.74Z" fill="#4279B6"/>
  <path d="M81.11 21.67C81.02 21.25 80.6 20.98 80.18 21.07L7.89 37.02C7.47 37.11 7.2 37.53 7.29 37.95C7.37 38.32 7.69 38.57 8.05 38.57C8.11 38.57 8.16 38.57 8.22 38.55L80.51 22.6C80.93 22.51 81.2 22.09 81.11 21.67Z" fill="#2D557F"/>
  <path d="M78.92 11.75C78.83 11.33 78.41 11.06 77.99 11.15L5.7 27.1C5.28 27.19 5.01 27.61 5.1 28.03C5.18 28.4 5.5 28.65 5.86 28.65C5.92 28.65 5.97 28.65 6.03 28.63L78.32 12.68C78.74 12.59 79.01 12.17 78.92 11.75Z" fill="#2D557F"/>
  <path d="M38.06 70.48C38.49 70.48 38.84 70.13 38.84 69.7V59.53C38.84 59.1 38.49 58.75 38.06 58.75H25.45C25.02 58.75 24.67 59.1 24.67 59.53V69.7C24.67 70.13 25.02 70.48 25.45 70.48H38.06ZM26.24 67.55V60.31H37.28V68.91H26.24V67.55Z" fill="#2D557F"/>
  <path d="M91.6 50.37H74.49C74.06 50.37 73.71 50.72 73.71 51.15V59.95C73.71 60.38 74.06 60.73 74.49 60.73H91.6C92.03 60.73 92.38 60.38 92.38 59.95V51.15C92.38 50.72 92.03 50.37 91.6 50.37ZM90.82 59.17H75.28V51.94H90.82V59.17Z" fill="#2D557F"/>
  <path d="M39.31 82.1H25.87C25.44 82.1 25.09 82.45 25.09 82.88C25.09 83.31 25.44 83.66 25.87 83.66H39.31C39.74 83.66 40.09 83.31 40.09 82.88C40.09 82.45 39.74 82.1 39.31 82.1Z" fill="#2D557F"/>
  <path d="M56.42 82.1H43.6C43.17 82.1 42.82 82.45 42.82 82.88C42.82 83.31 43.17 83.66 43.6 83.66H56.42C56.85 83.66 57.2 83.31 57.2 82.88C57.2 82.45 56.85 82.1 56.42 82.1Z" fill="#2D557F"/>
  <path d="M73.52 82.1H60.7C60.27 82.1 59.92 82.45 59.92 82.88C59.92 83.31 60.27 83.66 60.7 83.66H73.52C73.95 83.66 74.3 83.31 74.3 82.88C74.3 82.45 73.95 82.1 73.52 82.1Z" fill="#2D557F"/>
  <path d="M91.25 82.1H77.81C77.38 82.1 77.03 82.45 77.03 82.88C77.03 83.31 77.38 83.66 77.81 83.66H91.25C91.68 83.66 92.03 83.31 92.03 82.88C92.03 82.45 91.68 82.1 91.25 82.1Z" fill="#2D557F"/>
</svg>
