<svg xmlns="http://www.w3.org/2000/svg" width="100" height="100" viewBox="0 0 100 100" fill="none">
  <path d="M95.5299 50.23L89.0399 72.88C88.7999 73.71 87.9299 74.19 87.0999 73.95L56.4399 65.16C55.6099 64.92 55.1299 64.05 55.3699 63.22L61.8599 40.57L95.5299 50.22V50.23Z" fill="white"/>
  <path d="M87.5399 74.41C87.3599 74.41 87.1799 74.38 86.9999 74.33L56.3399 65.54C55.2999 65.24 54.6999 64.15 54.9999 63.11L61.4899 40.46C61.5499 40.25 61.7699 40.13 61.9799 40.19L95.6499 49.84C95.7499 49.87 95.8399 49.94 95.8899 50.03C95.9399 50.12 95.9499 50.23 95.9199 50.33L89.4299 72.98C89.2899 73.48 88.9499 73.9 88.4999 74.15C88.2099 74.31 87.8799 74.4 87.5499 74.4L87.5399 74.41ZM62.1399 41.07L55.7599 63.34C55.5799 63.96 55.9399 64.61 56.5599 64.79L87.2199 73.58C87.5199 73.67 87.8399 73.63 88.1099 73.48C88.3799 73.33 88.5799 73.08 88.6699 72.78L95.0499 50.51L62.1399 41.08V41.07Z" fill="#0E1721"/>
  <path d="M99.5399 36.25L95.5299 50.24L61.8599 40.59L65.8699 26.6C66.1099 25.77 66.9799 25.29 67.8099 25.53L98.4699 34.32C99.2999 34.56 99.7799 35.43 99.5399 36.26V36.25Z" fill="#4279B6"/>
  <path d="M95.5298 50.63C95.5298 50.63 95.4598 50.63 95.4198 50.61L61.7498 40.96C61.6498 40.93 61.5598 40.86 61.5098 40.77C61.4598 40.68 61.4498 40.57 61.4798 40.47L65.4898 26.48C65.7898 25.44 66.8798 24.84 67.9198 25.14L98.5798 33.93C99.6198 34.23 100.22 35.32 99.9198 36.36L95.9098 50.35C95.8598 50.52 95.6998 50.64 95.5298 50.64V50.63ZM62.3598 40.31L95.2698 49.74L99.1698 36.13C99.3498 35.51 98.9898 34.86 98.3698 34.68L67.7098 25.89C67.0898 25.71 66.4398 26.07 66.2598 26.69L62.3598 40.3V40.31Z" fill="#0E1721"/>
  <path d="M87.71 52C87.71 52 87.64 52 87.6 51.98L67.66 46.26C67.45 46.2 67.33 45.98 67.39 45.77C67.45 45.56 67.67 45.44 67.88 45.5L87.82 51.22C88.03 51.28 88.15 51.5 88.09 51.71C88.04 51.88 87.88 52 87.71 52Z" fill="#0E1721"/>
  <path d="M86.7998 55.19C86.7998 55.19 86.7298 55.19 86.6898 55.17L66.7498 49.45C66.5398 49.39 66.4198 49.17 66.4798 48.96C66.5398 48.75 66.7598 48.63 66.9698 48.69L86.9098 54.41C87.1198 54.47 87.2398 54.69 87.1798 54.9C87.1298 55.07 86.9698 55.19 86.7998 55.19Z" fill="#0E1721"/>
  <path d="M85.8799 58.38C85.8799 58.38 85.8099 58.38 85.7699 58.36L65.8299 52.64C65.6199 52.58 65.4999 52.36 65.5599 52.15C65.6199 51.94 65.8399 51.82 66.0499 51.88L85.9899 57.6C86.1999 57.66 86.3199 57.88 86.2599 58.09C86.2099 58.26 86.0499 58.38 85.8799 58.38Z" fill="#0E1721"/>
  <path d="M72.2999 65.79C71.8799 65.79 71.4799 65.57 71.2599 65.18L69.5599 62.11C69.2399 61.54 69.4499 60.82 70.0199 60.5C70.5899 60.18 71.3099 60.39 71.6299 60.96L72.7599 63L77.3299 60.52C77.8999 60.21 78.6299 60.42 78.9399 61C79.2499 61.58 79.0399 62.3 78.4599 62.61L72.8599 65.66C72.6799 65.76 72.4899 65.8 72.2899 65.8L72.2999 65.79Z" fill="#4279B6"/>
  <path d="M72.2999 66.19C71.7299 66.19 71.1899 65.88 70.9199 65.38L69.2199 62.31C68.7999 61.55 69.0699 60.58 69.8399 60.16C70.2099 59.96 70.6399 59.91 71.0399 60.02C71.4499 60.14 71.7799 60.4 71.9899 60.77L72.9299 62.47L77.1499 60.17C77.5199 59.97 77.9499 59.92 78.3499 60.04C78.7599 60.16 79.0899 60.43 79.2899 60.8C79.4899 61.17 79.5399 61.6 79.4199 62C79.2999 62.41 79.0299 62.74 78.6599 62.94L73.0599 65.99C72.8299 66.12 72.5699 66.18 72.3099 66.18L72.2999 66.19ZM70.5899 60.74C70.4599 60.74 70.3299 60.77 70.2099 60.84C69.8299 61.05 69.6899 61.53 69.8999 61.91L71.5999 64.98C71.7999 65.35 72.2999 65.49 72.6699 65.29L78.2699 62.24C78.4599 62.14 78.5899 61.97 78.6499 61.77C78.7099 61.57 78.6899 61.35 78.5899 61.17C78.4899 60.98 78.3199 60.85 78.1199 60.79C77.9199 60.73 77.6999 60.75 77.5199 60.85L72.9499 63.33C72.7599 63.43 72.5199 63.36 72.4199 63.17L71.2899 61.13C71.1899 60.94 71.0199 60.81 70.8199 60.75C70.7499 60.73 70.6699 60.72 70.5999 60.72L70.5899 60.74Z" fill="#0E1721"/>
  <path d="M76.9986 32.5545L74.8432 40.0716C74.6513 40.7405 75.0381 41.4383 75.707 41.6301L83.2241 43.7856C83.893 43.9774 84.5908 43.5906 84.7826 42.9217L86.9381 35.4046C87.1299 34.7357 86.7431 34.0379 86.0742 33.8461L78.5571 31.6906C77.8882 31.4988 77.1904 31.8856 76.9986 32.5545Z" fill="white"/>
  <path d="M83.58 44.24C83.43 44.24 83.27 44.22 83.12 44.18L75.59 42.02C75.17 41.9 74.81 41.62 74.6 41.23C74.39 40.84 74.34 40.4 74.46 39.97L76.62 32.45C76.87 31.57 77.79 31.07 78.66 31.32L86.19 33.48C87.07 33.73 87.57 34.65 87.32 35.52L85.16 43.05C85.04 43.47 84.76 43.83 84.37 44.04C84.12 44.18 83.85 44.25 83.57 44.25L83.58 44.24ZM78.21 32.04C77.84 32.04 77.49 32.29 77.38 32.66L75.22 40.18C75.16 40.4 75.18 40.63 75.29 40.83C75.4 41.03 75.58 41.18 75.81 41.24L83.34 43.4C83.56 43.46 83.79 43.44 83.99 43.33C84.19 43.22 84.34 43.04 84.4 42.81L86.56 35.29C86.69 34.83 86.43 34.36 85.97 34.22L78.44 32.06C78.36 32.04 78.28 32.03 78.2 32.03L78.21 32.04Z" fill="#0E1721"/>
  <path d="M80.4299 39.33C78.7299 38.84 76.9299 39.96 76.3999 41.83L82.5499 43.59C83.0899 41.72 82.1399 39.81 80.4399 39.33" fill="#4279B6"/>
  <path d="M82.5398 43.99C82.5398 43.99 82.4698 43.99 82.4298 43.97L76.2798 42.21C76.1798 42.18 76.0898 42.11 76.0398 42.02C75.9898 41.93 75.9798 41.82 76.0098 41.72C76.5998 39.65 78.6298 38.4 80.5298 38.95C82.4398 39.5 83.5098 41.63 82.9098 43.7C82.8798 43.8 82.8098 43.89 82.7198 43.94C82.6598 43.97 82.5898 43.99 82.5298 43.99H82.5398ZM76.9098 41.57L82.2498 43.1C82.4998 41.58 81.6998 40.11 80.3198 39.71C78.9498 39.32 77.4998 40.14 76.8998 41.57H76.9098Z" fill="#0E1721"/>
  <path d="M82.98 37.44C82.69 38.46 81.62 39.05 80.6 38.75C79.58 38.45 79 37.4 79.29 36.38C79.58 35.36 80.65 34.77 81.65 35.06C82.65 35.35 83.27 36.42 82.97 37.44" fill="#4279B6"/>
  <path d="M81.1299 39.23C80.9199 39.23 80.6999 39.2 80.4899 39.14C79.2699 38.79 78.5599 37.51 78.9099 36.28C79.0799 35.69 79.4699 35.2 80.0099 34.89C80.5499 34.59 81.1699 34.52 81.7599 34.69C82.9899 35.04 83.7099 36.33 83.3599 37.56C83.0699 38.57 82.1399 39.24 81.1299 39.24V39.23ZM81.1299 35.39C80.8799 35.39 80.6199 35.46 80.3899 35.58C80.0299 35.78 79.7799 36.1 79.6599 36.49C79.4299 37.3 79.8899 38.14 80.6899 38.37C81.4999 38.6 82.3499 38.13 82.5799 37.33C82.8099 36.52 82.3399 35.68 81.5299 35.44C81.3899 35.4 81.2599 35.38 81.1199 35.38L81.1299 35.39Z" fill="#0E1721"/>
  <path d="M68.47 21.4H30.72C30.3334 21.4 30.02 21.7134 30.02 22.1V53.94C30.02 54.3266 30.3334 54.64 30.72 54.64H68.47C68.8566 54.64 69.17 54.3266 69.17 53.94V22.1C69.17 21.7134 68.8566 21.4 68.47 21.4Z" fill="#FC8B27"/>
  <path d="M67.6801 55.03H31.5001C30.4601 55.03 29.6201 54.19 29.6201 53.15V22.88C29.6201 21.84 30.4601 21 31.5001 21H67.6701C68.7101 21 69.5501 21.84 69.5501 22.88V53.15C69.5501 54.19 68.7101 55.03 67.6701 55.03H67.6801ZM31.5001 21.79C30.9001 21.79 30.4101 22.28 30.4101 22.88V53.15C30.4101 53.75 30.9001 54.24 31.5001 54.24H67.6701C68.2701 54.24 68.7601 53.75 68.7601 53.15V22.88C68.7601 22.28 68.2701 21.79 67.6701 21.79H31.5001Z" fill="#0E1721"/>
  <path d="M65.56 23.95H33.62C33.2942 23.95 33.03 24.2141 33.03 24.54V51.49C33.03 51.8158 33.2942 52.08 33.62 52.08H65.56C65.8859 52.08 66.15 51.8158 66.15 51.49V24.54C66.15 24.2141 65.8859 23.95 65.56 23.95Z" fill="white"/>
  <path d="M64.8901 52.48H34.2801C33.3701 52.48 32.6301 51.74 32.6301 50.83V25.21C32.6301 24.3 33.3701 23.56 34.2801 23.56H64.8901C65.8001 23.56 66.5401 24.3 66.5401 25.21V50.82C66.5401 51.73 65.8001 52.47 64.8901 52.47V52.48ZM34.2901 24.35C33.8101 24.35 33.4301 24.74 33.4301 25.21V50.82C33.4301 51.3 33.8201 51.68 34.2901 51.68H64.9001C65.3801 51.68 65.7601 51.29 65.7601 50.82V25.21C65.7601 24.73 65.3701 24.35 64.9001 24.35H34.2901Z" fill="#0E1721"/>
  <path d="M62.3701 30.68C62.3701 30.68 62.3401 30.68 62.3301 30.68C53.8701 29.88 45.2901 29.88 36.8401 30.68C36.6201 30.7 36.4301 30.54 36.4101 30.32C36.3901 30.1 36.5501 29.91 36.7701 29.89C45.2801 29.09 53.9101 29.09 62.4101 29.89C62.6301 29.91 62.7901 30.1 62.7701 30.32C62.7501 30.52 62.5801 30.68 62.3801 30.68H62.3701Z" fill="#FC8B27"/>
  <path d="M61.3901 34.53H37.7801C37.5601 34.53 37.3801 34.35 37.3801 34.13C37.3801 33.91 37.5601 33.73 37.7801 33.73H61.3901C61.6101 33.73 61.7901 33.91 61.7901 34.13C61.7901 34.35 61.6101 34.53 61.3901 34.53Z" fill="#0E1721"/>
  <path d="M61.3901 46.03H56.0401C55.8201 46.03 55.6401 45.85 55.6401 45.63C55.6401 45.41 55.8201 45.23 56.0401 45.23H61.3901C61.6101 45.23 61.7901 45.41 61.7901 45.63C61.7901 45.85 61.6101 46.03 61.3901 46.03Z" fill="#0E1721"/>
  <path d="M43.1401 46.03H37.7901C37.5701 46.03 37.3901 45.85 37.3901 45.63C37.3901 45.41 37.5701 45.23 37.7901 45.23H43.1401C43.3601 45.23 43.5401 45.41 43.5401 45.63C43.5401 45.85 43.3601 46.03 43.1401 46.03Z" fill="#0E1721"/>
  <path d="M61.3901 38.3H37.7801C37.5601 38.3 37.3801 38.12 37.3801 37.9C37.3801 37.68 37.5601 37.5 37.7801 37.5H61.3901C61.6101 37.5 61.7901 37.68 61.7901 37.9C61.7901 38.12 61.6101 38.3 61.3901 38.3Z" fill="#0E1721"/>
  <path d="M48.49 49.25C48.49 49.25 48.28 49.26 48.19 49.27C47.9 49.31 47.53 49.36 47.22 49.13C46.91 48.9 46.84 48.54 46.79 48.25C46.77 48.16 46.74 48 46.72 47.96C46.69 47.93 46.55 47.85 46.47 47.81C46.21 47.67 45.88 47.5 45.76 47.12C45.73 47.04 45.72 46.95 45.72 46.86C45.72 46.6 45.83 46.37 45.93 46.17C45.97 46.08 46.05 45.93 46.05 45.88C46.05 45.83 45.97 45.67 45.93 45.59C45.83 45.39 45.72 45.16 45.72 44.9C45.72 44.81 45.73 44.72 45.76 44.64C45.88 44.27 46.21 44.09 46.47 43.95C46.55 43.91 46.69 43.83 46.72 43.8C46.74 43.76 46.77 43.61 46.79 43.51C46.84 43.22 46.91 42.86 47.22 42.63C47.53 42.4 47.89 42.45 48.19 42.49C48.29 42.5 48.45 42.52 48.49 42.51C48.53 42.49 48.64 42.39 48.7 42.33C48.9 42.13 49.18 41.86 49.58 41.86C49.98 41.86 50.24 42.12 50.46 42.33C50.52 42.39 50.63 42.5 50.68 42.52C50.72 42.53 50.88 42.52 50.98 42.5C51.27 42.46 51.64 42.41 51.95 42.64C52.26 42.87 52.33 43.23 52.38 43.52C52.4 43.61 52.42 43.77 52.45 43.81C52.48 43.84 52.62 43.92 52.7 43.96C52.96 44.1 53.29 44.28 53.41 44.65C53.44 44.73 53.45 44.82 53.45 44.91C53.45 45.17 53.34 45.4 53.24 45.6C53.2 45.69 53.13 45.84 53.12 45.89C53.12 45.94 53.2 46.1 53.24 46.18C53.34 46.38 53.45 46.61 53.45 46.87C53.45 46.96 53.44 47.05 53.41 47.13C53.29 47.5 52.95 47.69 52.7 47.82C52.62 47.86 52.48 47.94 52.45 47.97C52.43 48.01 52.4 48.16 52.38 48.26C52.33 48.55 52.26 48.91 51.95 49.14C51.64 49.37 51.28 49.32 50.98 49.28C50.89 49.27 50.72 49.25 50.68 49.26C50.64 49.28 50.53 49.38 50.47 49.44C50.25 49.65 49.99 49.91 49.59 49.91C49.19 49.91 48.91 49.64 48.71 49.44C48.64 49.38 48.54 49.27 48.49 49.25Z" fill="#FC8B27"/>
  <path d="M49.5901 50.3C49.0301 50.3 48.6601 49.94 48.4301 49.72C48.4101 49.7 48.3801 49.67 48.3601 49.65C48.3201 49.65 48.2701 49.66 48.2501 49.66C47.9201 49.7 47.4401 49.77 47.0001 49.45C46.5601 49.13 46.4701 48.64 46.4101 48.32C46.4101 48.3 46.4001 48.25 46.3901 48.21C46.3601 48.19 46.3201 48.17 46.3001 48.16C46.0101 48 45.5701 47.77 45.4001 47.25C45.3601 47.13 45.3401 47 45.3401 46.87C45.3401 46.52 45.4801 46.24 45.5801 46.01C45.5901 45.98 45.6201 45.93 45.6401 45.89C45.6301 45.86 45.6101 45.82 45.5901 45.77C45.4801 45.54 45.3401 45.26 45.3401 44.91C45.3401 44.78 45.3601 44.65 45.4001 44.53C45.5701 44.01 46.0101 43.77 46.3001 43.62C46.3201 43.61 46.3601 43.59 46.4001 43.57C46.4001 43.53 46.4201 43.48 46.4201 43.46C46.4801 43.14 46.5701 42.65 47.0101 42.33C47.4501 42.01 47.9401 42.08 48.2601 42.12C48.2801 42.12 48.3301 42.12 48.3801 42.13C48.4101 42.11 48.4301 42.08 48.4501 42.06C48.6701 41.84 49.0501 41.48 49.6101 41.48C50.1701 41.48 50.5301 41.83 50.7601 42.06C50.7801 42.08 50.8101 42.11 50.8301 42.13C50.8701 42.13 50.9201 42.12 50.9401 42.12C51.2601 42.08 51.7501 42.01 52.1901 42.33C52.6301 42.65 52.7201 43.14 52.7801 43.46C52.7801 43.49 52.7901 43.53 52.8001 43.57C52.8301 43.59 52.8701 43.61 52.8901 43.62C53.1801 43.78 53.6201 44.01 53.7901 44.53C53.8301 44.65 53.8501 44.78 53.8501 44.91C53.8501 45.26 53.7101 45.54 53.6001 45.77C53.5901 45.8 53.5601 45.85 53.5401 45.89C53.5601 45.93 53.5801 45.98 53.5901 46.01C53.7001 46.24 53.8401 46.52 53.8401 46.87C53.8401 47 53.8201 47.13 53.7801 47.25C53.6101 47.78 53.1501 48.02 52.8801 48.17C52.8601 48.18 52.8201 48.2 52.7901 48.22C52.7901 48.26 52.7701 48.31 52.7701 48.33C52.7101 48.65 52.6201 49.14 52.1801 49.46C51.7401 49.78 51.2501 49.71 50.9301 49.67C50.9101 49.67 50.8601 49.67 50.8101 49.66C50.7801 49.68 50.7601 49.71 50.7401 49.73C50.5001 49.96 50.1401 50.31 49.5801 50.31L49.5901 50.3ZM48.4501 48.85C48.5101 48.85 48.5501 48.85 48.5901 48.87C48.6101 48.87 48.6201 48.88 48.6401 48.89C48.7301 48.93 48.8201 49 48.9801 49.15C49.1501 49.32 49.3501 49.51 49.5901 49.51C49.8101 49.51 49.9701 49.37 50.2001 49.15C50.3701 48.99 50.4401 48.93 50.5301 48.89C50.5501 48.89 50.5601 48.88 50.5801 48.87C50.6901 48.84 50.8101 48.85 51.0401 48.87C51.3401 48.91 51.5501 48.93 51.7201 48.8C51.8901 48.67 51.9401 48.47 52.0001 48.17C52.0401 47.94 52.0701 47.83 52.1201 47.74C52.1201 47.72 52.1401 47.71 52.1501 47.69C52.2201 47.61 52.3101 47.55 52.5101 47.45C52.7201 47.34 52.9601 47.21 53.0301 46.99C53.0401 46.95 53.0501 46.9 53.0501 46.85C53.0501 46.68 52.9601 46.5 52.8801 46.33C52.7701 46.11 52.7301 46 52.7301 45.88C52.7301 45.75 52.7801 45.64 52.8801 45.42C52.9701 45.24 53.0501 45.06 53.0501 44.89C53.0501 44.84 53.0501 44.79 53.0301 44.75C52.9601 44.54 52.7801 44.43 52.5101 44.29C52.3101 44.18 52.2101 44.13 52.1501 44.05C52.1401 44.04 52.1301 44.02 52.1201 44.01C52.0601 43.92 52.0301 43.81 51.9901 43.59C51.9301 43.28 51.8901 43.08 51.7101 42.95C51.5401 42.83 51.3301 42.84 51.0301 42.88C50.8001 42.91 50.6801 42.92 50.5801 42.89C50.5601 42.89 50.5401 42.88 50.5301 42.87C50.4401 42.83 50.3501 42.76 50.1901 42.61C49.9701 42.39 49.8001 42.25 49.5801 42.25C49.3401 42.25 49.1501 42.44 48.9701 42.6C48.8001 42.76 48.7301 42.82 48.6401 42.86C48.6201 42.86 48.6001 42.87 48.5901 42.88C48.4801 42.91 48.3701 42.9 48.1301 42.87C47.8301 42.83 47.6201 42.81 47.4501 42.94C47.2801 43.07 47.2301 43.27 47.1701 43.57C47.1301 43.8 47.1001 43.91 47.0501 44C47.0501 44.01 47.0301 44.03 47.0201 44.04C46.9501 44.12 46.8601 44.18 46.6601 44.29C46.3801 44.44 46.2001 44.55 46.1301 44.75C46.1201 44.79 46.1101 44.84 46.1101 44.89C46.1101 45.06 46.1901 45.23 46.2801 45.41C46.3801 45.63 46.4301 45.74 46.4301 45.86C46.4301 46 46.3801 46.11 46.2801 46.33C46.2001 46.51 46.1101 46.68 46.1101 46.85C46.1101 46.9 46.1101 46.95 46.1301 46.99C46.2001 47.2 46.3801 47.31 46.6501 47.45C46.8501 47.56 46.9401 47.61 47.0101 47.69C47.0201 47.7 47.0301 47.72 47.0401 47.74C47.1001 47.83 47.1301 47.94 47.1701 48.17C47.2201 48.47 47.2701 48.68 47.4501 48.8C47.6201 48.92 47.8301 48.91 48.1301 48.87C48.2701 48.85 48.3601 48.84 48.4401 48.84L48.4501 48.85Z" fill="#0E1721"/>
  <path d="M0.236582 36.4139L12.134 75.2316C12.2651 75.6593 12.7181 75.8998 13.1458 75.7687L45.8827 65.735C46.3104 65.6039 46.5508 65.1509 46.4197 64.7232L34.5223 25.9055C34.3913 25.4778 33.9382 25.2374 33.5105 25.3685L0.773661 35.4021C0.345949 35.5332 0.105491 35.9862 0.236582 36.4139Z" fill="#FCCD2A"/>
  <path d="M13.4299 76C13.1099 76 12.7899 75.92 12.4999 75.77C12.0299 75.52 11.6799 75.1 11.5299 74.59L0.0898838 37.28C-0.230116 36.23 0.359884 35.11 1.41988 34.78L32.6299 25.21C33.1399 25.05 33.6799 25.11 34.1499 25.36C34.6199 25.61 34.9699 26.03 35.1199 26.54L46.5499 63.84C46.7099 64.35 46.6499 64.89 46.3999 65.36C46.1499 65.83 45.7299 66.18 45.2199 66.33L14.0099 75.9C13.8199 75.96 13.6199 75.99 13.4199 75.99L13.4299 76ZM33.2199 25.92C33.0999 25.92 32.9799 25.94 32.8599 25.97L1.63988 35.54C1.32988 35.63 1.07988 35.84 0.929884 36.13C0.779884 36.42 0.749884 36.74 0.839884 37.05L12.2699 74.35C12.3599 74.66 12.5699 74.91 12.8599 75.06C13.1399 75.21 13.4699 75.24 13.7799 75.15L44.9899 65.58C45.2999 65.49 45.5499 65.28 45.6999 64.99C45.8499 64.7 45.8799 64.38 45.7899 64.07L34.3699 26.77C34.2799 26.46 34.0699 26.21 33.7799 26.06C33.5999 25.97 33.4099 25.92 33.2199 25.92Z" fill="#0E1721"/>
  <path d="M2.76937 37.8864L13.4067 72.5928C13.507 72.9202 13.8538 73.1043 14.1812 73.0039L43.4761 64.0252C43.8035 63.9249 43.9875 63.5781 43.8872 63.2508L33.2498 28.5443C33.1495 28.2169 32.8028 28.0329 32.4754 28.1332L3.18047 37.1119C2.85308 37.2123 2.66903 37.559 2.76937 37.8864Z" fill="white"/>
  <path d="M14.5301 73.22C13.7501 73.22 13.0301 72.72 12.7901 71.93L2.62008 38.77C2.33008 37.81 2.87008 36.79 3.83008 36.5L31.5801 27.99C32.0501 27.85 32.5401 27.89 32.9701 28.12C33.4001 28.35 33.7101 28.73 33.8601 29.19L44.0201 62.35C44.1601 62.81 44.1201 63.31 43.8901 63.74C43.6601 64.17 43.2801 64.48 42.8201 64.63L15.0701 73.14C14.8901 73.19 14.7101 73.22 14.5401 73.22H14.5301ZM32.1201 28.7C32.0201 28.7 31.9201 28.72 31.8201 28.75L4.06008 37.25C3.52008 37.42 3.21008 37.99 3.38008 38.54L13.5401 71.7C13.7101 72.24 14.2801 72.55 14.8301 72.38L42.5801 63.87C42.8401 63.79 43.0601 63.61 43.1901 63.37C43.3201 63.13 43.3501 62.85 43.2701 62.59L33.1101 29.43C33.0301 29.17 32.8501 28.95 32.6101 28.82C32.4601 28.74 32.2901 28.7 32.1301 28.7H32.1201Z" fill="#0E1721"/>
  <path d="M14.5301 38.91C14.3601 38.91 14.2001 38.8 14.1501 38.63C14.0901 38.42 14.2001 38.2 14.4101 38.14L23.7301 35.28C23.9401 35.22 24.1601 35.33 24.2201 35.54C24.2801 35.75 24.1701 35.97 23.9601 36.03L14.6401 38.89C14.6401 38.89 14.5601 38.91 14.5201 38.91H14.5301Z" fill="#0E1721"/>
  <path d="M9.0999 45.49C8.9299 45.49 8.7699 45.38 8.7199 45.21C8.6599 45 8.7699 44.78 8.9799 44.72L25.1099 39.77C25.3199 39.71 25.5399 39.82 25.5999 40.03C25.6599 40.24 25.5499 40.46 25.3399 40.52L9.2099 45.47C9.2099 45.47 9.1299 45.49 9.0899 45.49H9.0999Z" fill="#0E1721"/>
  <path d="M10.45 49.92C10.28 49.92 10.12 49.81 10.07 49.64C10.01 49.43 10.12 49.21 10.33 49.15L26.46 44.2C26.67 44.14 26.89 44.25 26.95 44.46C27.01 44.67 26.9 44.89 26.69 44.95L10.56 49.9C10.56 49.9 10.48 49.92 10.44 49.92H10.45Z" fill="#0E1721"/>
  <path d="M11.8099 54.35C11.6399 54.35 11.4799 54.24 11.4299 54.07C11.3699 53.86 11.4799 53.64 11.6899 53.58L27.8199 48.63C28.0299 48.57 28.2499 48.68 28.3099 48.89C28.3699 49.1 28.2599 49.32 28.0499 49.38L11.9199 54.33C11.9199 54.33 11.8399 54.35 11.7999 54.35H11.8099Z" fill="#0E1721"/>
  <path d="M13.17 58.78C13 58.78 12.84 58.67 12.79 58.5C12.73 58.29 12.84 58.07 13.05 58.01L29.18 53.06C29.39 53 29.61 53.11 29.67 53.32C29.73 53.53 29.62 53.75 29.41 53.81L13.28 58.76C13.28 58.76 13.2 58.78 13.16 58.78H13.17Z" fill="#0E1721"/>
  <path d="M27.1299 39.96C26.9599 39.96 26.7999 39.85 26.7499 39.68C26.6899 39.47 26.7999 39.25 27.0099 39.19L31.9199 37.69C32.1299 37.63 32.3499 37.74 32.4099 37.95C32.4699 38.16 32.3599 38.38 32.1499 38.44L27.2399 39.94C27.2399 39.94 27.1599 39.96 27.1199 39.96H27.1299Z" fill="#0E1721"/>
  <path d="M28.49 44.39C28.32 44.39 28.16 44.28 28.11 44.11C28.05 43.9 28.16 43.68 28.37 43.62L33.28 42.12C33.49 42.06 33.71 42.17 33.77 42.38C33.83 42.59 33.72 42.81 33.51 42.87L28.6 44.37C28.6 44.37 28.52 44.39 28.48 44.39H28.49Z" fill="#0E1721"/>
  <path d="M29.8499 48.82C29.6799 48.82 29.5199 48.71 29.4699 48.54C29.4099 48.33 29.5199 48.11 29.7299 48.05L34.6399 46.55C34.8499 46.49 35.0699 46.6 35.1299 46.81C35.1899 47.02 35.0799 47.24 34.8699 47.3L29.9599 48.8C29.9599 48.8 29.8799 48.82 29.8399 48.82H29.8499Z" fill="#0E1721"/>
  <path d="M31.21 53.25C31.04 53.25 30.88 53.14 30.83 52.97C30.77 52.76 30.88 52.54 31.09 52.48L36 50.98C36.21 50.92 36.43 51.03 36.49 51.24C36.55 51.45 36.44 51.67 36.23 51.73L31.32 53.23C31.32 53.23 31.24 53.25 31.2 53.25H31.21Z" fill="#0E1721"/>
  <path d="M23.5099 66.6C22.7599 66.6 22.1599 66.24 21.9699 65.61C21.9099 65.4 22.0199 65.18 22.2299 65.12C22.4399 65.06 22.6599 65.17 22.7199 65.38C22.8499 65.81 23.4699 65.88 24.0099 65.74C24.6099 65.58 25.1799 65.13 25.0399 64.52C24.9499 64.15 24.7899 63.92 24.5499 63.81C24.0799 63.6 23.3499 63.9 23.1099 64.03C22.9599 64.11 22.7599 64.09 22.6399 63.96C22.5199 63.83 22.4899 63.64 22.5799 63.49L23.7299 61.45L21.2199 62.22C21.0099 62.28 20.7899 62.17 20.7299 61.96C20.6699 61.75 20.7799 61.53 20.9899 61.47L24.4499 60.41C24.5999 60.36 24.7699 60.41 24.8699 60.54C24.9699 60.67 24.9899 60.84 24.9099 60.98L23.7799 62.98C24.1299 62.92 24.5199 62.93 24.8799 63.09C25.3499 63.3 25.6699 63.72 25.8199 64.34C26.0899 65.46 25.1899 66.25 24.2299 66.51C23.9799 66.58 23.7399 66.61 23.5099 66.61V66.6Z" fill="#0E1721"/>
  <path d="M27.7099 65.26C27.5399 65.26 27.3799 65.15 27.3299 64.98L27.2599 64.75C27.1999 64.54 27.3099 64.32 27.5199 64.26C27.7299 64.2 27.9499 64.31 28.0099 64.52L28.0799 64.75C28.1399 64.96 28.0299 65.18 27.8199 65.24C27.7799 65.25 27.7399 65.26 27.6999 65.26H27.7099Z" fill="#0E1721"/>
  <path d="M29.75 64.51C29.63 64.51 29.52 64.46 29.44 64.37C29.34 64.25 29.32 64.07 29.4 63.93C30.03 62.76 31.07 60.77 31.17 60.42C31.26 60.13 31.17 59.8 30.96 59.59C30.72 59.36 30.36 59.3 29.95 59.42C29.09 59.68 29.08 60.61 29.08 60.65C29.08 60.87 28.9 61.04 28.69 61.05C28.47 61.05 28.3 60.88 28.29 60.66C28.29 60.12 28.58 59.01 29.72 58.66C30.42 58.45 31.07 58.58 31.52 59.02C31.94 59.44 32.1 60.07 31.93 60.64C31.82 61.02 31.06 62.48 30.55 63.45L32.75 62.78C32.96 62.72 33.18 62.83 33.24 63.04C33.3 63.25 33.19 63.47 32.98 63.53L29.87 64.48C29.87 64.48 29.79 64.5 29.75 64.5V64.51Z" fill="#0E1721"/>
  <path d="M50.39 79.03C58.608 79.03 65.27 72.368 65.27 64.15C65.27 55.932 58.608 49.27 50.39 49.27C42.172 49.27 35.51 55.932 35.51 64.15C35.51 72.368 42.172 79.03 50.39 79.03Z" fill="#3C8645"/>
  <path d="M50.3901 79.42C41.9701 79.42 35.1201 72.57 35.1201 64.15C35.1201 55.73 41.9701 48.88 50.3901 48.88C58.8101 48.88 65.6601 55.73 65.6601 64.15C65.6601 72.57 58.8101 79.42 50.3901 79.42ZM50.3901 49.66C42.4001 49.66 35.9101 56.16 35.9101 64.14C35.9101 72.12 42.4101 78.62 50.3901 78.62C58.3701 78.62 64.8701 72.12 64.8701 64.14C64.8701 56.16 58.3701 49.66 50.3901 49.66Z" fill="#0E1721"/>
  <path d="M48.9199 71.82C48.3499 71.82 47.7699 71.6 47.3399 71.16L42.2799 66.1C41.4099 65.23 41.4099 63.81 42.2799 62.93C43.1499 62.05 44.5699 62.06 45.4499 62.93L48.9399 66.42L56.6099 58.87C57.4899 58 58.9099 58.01 59.7799 58.9C60.6499 59.79 60.6399 61.2 59.7499 62.07L50.4999 71.17C50.0599 71.6 49.4999 71.81 48.9299 71.81L48.9199 71.82Z" fill="white"/>
  <path d="M48.92 72.21C48.22 72.21 47.55 71.94 47.06 71.44L42 66.38C40.97 65.35 40.97 63.68 42 62.65C43.03 61.62 44.7 61.62 45.73 62.65L48.94 65.86L56.33 58.59C57.37 57.57 59.04 57.59 60.06 58.62C61.08 59.66 61.07 61.33 60.03 62.35L50.78 71.45C50.28 71.94 49.63 72.21 48.93 72.21H48.92ZM43.86 62.68C43.39 62.68 42.92 62.86 42.56 63.22C41.84 63.94 41.84 65.11 42.56 65.83L47.62 70.89C47.97 71.24 48.43 71.43 48.92 71.43C49.41 71.43 49.87 71.24 50.21 70.9L59.46 61.8C60.19 61.09 60.19 59.92 59.48 59.19C58.77 58.47 57.6 58.46 56.87 59.17L49.2 66.72C49.05 66.87 48.8 66.87 48.64 66.72L45.15 63.23C44.79 62.87 44.32 62.69 43.85 62.69L43.86 62.68Z" fill="#0E1721"/>
</svg>
