<svg xmlns="http://www.w3.org/2000/svg" width="100" height="100" viewBox="0 0 100 100" fill="none">
  <path d="M98.3999 33.87L69.7199 25.65V23.14C69.7199 21.96 68.7599 21.01 67.5899 21.01H31.5999C30.4199 21.01 29.4699 21.97 29.4699 23.14V26.19L1.58991 34.73C0.399914 35.09 -0.270086 36.35 0.0999145 37.54L11.4699 74.65C11.7699 75.62 12.6599 76.24 13.6199 76.24C13.8399 76.24 14.0599 76.21 14.2799 76.14L35.8999 69.51C38.0799 75.41 43.7399 79.64 50.3899 79.64C57.4499 79.64 63.3999 74.88 65.2399 68.41L86.7199 74.57C86.9199 74.63 87.1299 74.66 87.3299 74.66C87.6999 74.66 88.0699 74.57 88.3999 74.38C88.9199 74.09 89.2899 73.62 89.4499 73.05L95.9099 50.52L99.8999 36.61C100.24 35.44 99.5599 34.21 98.3799 33.87H98.3999ZM94.4799 50.79L88.1999 72.69C88.1299 72.92 87.9799 73.11 87.7699 73.23C87.5599 73.35 87.3199 73.38 87.0799 73.31L65.5499 67.14C65.7399 66.18 65.8399 65.2 65.8399 64.19C65.8399 60.92 64.8099 57.89 63.0699 55.39H67.5799C68.5399 55.39 69.3299 54.74 69.5899 53.86C69.6499 53.66 69.7099 53.47 69.7099 53.26V43.7L94.4799 50.8V50.79ZM63.9799 68.05C62.2899 73.97 56.8399 78.33 50.3899 78.33C44.3299 78.33 39.1699 74.49 37.1499 69.13C37.0699 68.92 36.9899 68.72 36.9199 68.51C36.8499 68.3 36.7999 68.09 36.7399 67.88C36.6299 67.47 36.5299 67.05 36.4599 66.63C36.4399 66.5 36.4199 66.37 36.3999 66.24C36.3799 66.11 36.3599 65.98 36.3399 65.85C36.2799 65.31 36.2299 64.76 36.2299 64.2C36.2299 60.87 37.3899 57.82 39.3199 55.4C39.4999 55.17 39.6899 54.96 39.8899 54.74C40.0899 54.52 40.2899 54.29 40.5099 54.08C40.5499 54.04 40.5899 54.01 40.6299 53.97C40.7299 53.87 40.8399 53.77 40.9499 53.68C41.0599 53.58 41.1599 53.48 41.2699 53.39C41.5199 53.18 41.7899 52.98 42.0599 52.78C42.1499 52.72 42.2299 52.65 42.3199 52.59C42.4199 52.52 42.5199 52.45 42.6199 52.38C42.7199 52.31 42.8299 52.26 42.9299 52.19C43.0199 52.14 43.1099 52.08 43.1999 52.03C43.3299 51.95 43.4499 51.87 43.5799 51.8C45.1599 50.93 46.9199 50.36 48.7899 50.15C49.3099 50.09 49.8399 50.05 50.3799 50.05C50.4199 50.05 50.4599 50.05 50.4899 50.05C52.9099 50.07 55.1899 50.7 57.1799 51.79C57.3999 51.91 57.6099 52.05 57.8299 52.18C58.0199 52.3 58.2199 52.42 58.4099 52.55C58.4199 52.55 58.4299 52.57 58.4399 52.57C58.6199 52.7 58.7999 52.83 58.9699 52.97C59.4199 53.31 59.8499 53.68 60.2499 54.07C60.4699 54.28 60.6699 54.5 60.8699 54.73C61.0599 54.94 61.2599 55.16 61.4399 55.39C63.3699 57.81 64.5299 60.87 64.5299 64.19C64.5299 65.07 64.4399 65.94 64.2799 66.78C64.2399 67 64.1899 67.21 64.1399 67.42C64.0899 67.63 64.0399 67.85 63.9799 68.05ZM13.1799 74.81C12.9599 74.69 12.7999 74.5 12.7199 74.26L1.34991 37.15C1.19991 36.65 1.47991 36.13 1.96991 35.98L29.4599 27.55L30.1199 27.35L30.7799 27.15L32.7299 26.55L33.0299 26.46C33.0299 26.46 33.0899 26.46 33.1199 26.45C33.1799 26.44 33.2399 26.42 33.3099 26.42C33.3799 26.42 33.4499 26.46 33.5199 26.47C33.5999 26.49 33.6799 26.49 33.7499 26.53C33.9699 26.65 34.1299 26.84 34.2099 27.08L37.5299 37.91L37.6799 38.39L39.8199 45.37L39.9399 45.76L40.0599 46.15L41.6799 51.43C41.5199 51.54 41.3699 51.66 41.2099 51.78C41.0999 51.86 40.9899 51.94 40.8799 52.02C40.8099 52.07 40.7399 52.12 40.6799 52.17C40.6399 52.21 40.5899 52.24 40.5499 52.28C40.4399 52.37 40.3399 52.47 40.2299 52.57C39.6999 53.03 39.1999 53.53 38.7399 54.06C38.5499 54.27 38.3799 54.49 38.1999 54.72C38.0299 54.93 37.8699 55.15 37.7099 55.38C35.9699 57.88 34.9399 60.91 34.9399 64.18C34.9399 64.87 34.9999 65.55 35.0899 66.22C35.1099 66.35 35.1299 66.48 35.1499 66.61C35.1699 66.74 35.1899 66.87 35.2099 67C35.2899 67.42 35.3899 67.84 35.4999 68.25L13.8999 74.87C13.6599 74.94 13.4099 74.92 13.1799 74.8V74.81ZM30.7799 23.13C30.7799 22.67 31.1499 22.31 31.5999 22.31H67.5799C68.0299 22.31 68.3999 22.68 68.3999 23.13V53.24C68.3999 53.33 68.3799 53.41 68.3499 53.49C68.2399 53.82 67.9399 54.07 67.5799 54.07H62.0499C61.5899 53.54 61.0899 53.04 60.5599 52.57C60.4099 52.44 60.2599 52.3 60.1099 52.18C59.9399 52.04 59.7599 51.92 59.5799 51.79C59.5099 51.74 59.4399 51.68 59.3599 51.63C59.1699 51.5 58.9799 51.36 58.7899 51.24C58.5999 51.12 58.3999 51 58.2099 50.89C56.5299 49.9 54.6399 49.22 52.6299 48.92C52.6899 48.75 52.7199 48.59 52.7499 48.45C52.7499 48.41 52.7599 48.37 52.7699 48.34C52.7999 48.32 52.8399 48.3 52.8599 48.29C53.1299 48.14 53.5899 47.9 53.7599 47.38C53.7999 47.26 53.8199 47.13 53.8199 47C53.8199 46.65 53.6799 46.37 53.5799 46.14C53.5699 46.12 53.5499 46.07 53.5299 46.02C53.5499 45.98 53.5699 45.93 53.5899 45.9C53.6999 45.67 53.8299 45.39 53.8299 45.04C53.8299 44.91 53.8099 44.78 53.7699 44.66C53.5999 44.14 53.1599 43.91 52.8699 43.75C52.8399 43.74 52.8099 43.72 52.7799 43.7C52.7799 43.66 52.7599 43.62 52.7599 43.59C52.6999 43.27 52.6199 42.79 52.1799 42.47C51.7399 42.15 51.2599 42.22 50.9299 42.26C50.9099 42.26 50.8599 42.26 50.8199 42.27C50.7899 42.25 50.7699 42.22 50.7499 42.2C50.5099 41.97 50.1499 41.63 49.5999 41.63C49.0499 41.63 48.6699 41.99 48.4499 42.2C48.4299 42.22 48.3999 42.25 48.3799 42.27C48.3399 42.27 48.2899 42.26 48.2699 42.26C47.9499 42.22 47.4599 42.15 47.0199 42.47C46.5799 42.79 46.4899 43.27 46.4299 43.6C46.4299 43.62 46.4199 43.67 46.4099 43.71C46.3799 43.73 46.3399 43.75 46.3099 43.76C46.0199 43.91 45.5799 44.15 45.4199 44.67C45.3799 44.79 45.3599 44.92 45.3599 45.05C45.3599 45.4 45.4999 45.68 45.6099 45.91C45.6299 45.96 45.6499 46 45.6599 46.03C45.6399 46.07 45.6199 46.12 45.5999 46.15C45.4899 46.38 45.3599 46.66 45.3599 47.01C45.3599 47.14 45.3799 47.27 45.4199 47.39C45.5899 47.91 46.0299 48.14 46.3199 48.3C46.3499 48.31 46.3799 48.33 46.4099 48.35C46.4099 48.39 46.4299 48.44 46.4299 48.46C46.4699 48.67 46.5299 48.95 46.6899 49.21C45.3199 49.55 44.0199 50.06 42.8299 50.74L41.4299 46.17L41.3099 45.78L41.1899 45.39L39.0699 38.49L38.9499 38.1L38.8299 37.71L37.9199 34.75L37.6999 34.03L36.7299 30.85C36.7899 30.88 36.8499 30.92 36.9199 30.91C38.7599 30.74 40.6099 30.62 42.4599 30.52C47.2099 30.27 51.9899 30.27 56.7399 30.52C58.5899 30.62 60.4399 30.74 62.2799 30.91C62.2899 30.91 62.3099 30.91 62.3199 30.91C62.5199 30.91 62.6899 30.76 62.7099 30.55C62.7299 30.33 62.5699 30.14 62.3599 30.12C53.8999 29.32 45.3099 29.32 36.8499 30.12C36.7199 30.13 36.6299 30.21 36.5699 30.31L35.4699 26.71C35.1999 25.84 34.4399 25.25 33.5899 25.14C33.4599 25.12 33.3299 25.15 33.1999 25.16C33.0599 25.16 32.9299 25.16 32.7899 25.2C32.7499 25.21 32.6999 25.2 32.6599 25.21L30.7899 25.78V23.14L30.7799 23.13ZM98.6499 36.25L94.8399 49.53L78.7299 44.91L69.7199 42.33V27.01L98.0399 35.13C98.5199 35.27 98.7999 35.77 98.6599 36.25H98.6499ZM47.4699 48.93C47.2999 48.8 47.2499 48.59 47.1999 48.3C47.1599 48.07 47.1299 47.96 47.0699 47.87C47.0699 47.85 47.0499 47.84 47.0399 47.83C46.9699 47.75 46.8799 47.69 46.6799 47.59C46.4099 47.45 46.2299 47.34 46.1599 47.13C46.1499 47.09 46.1399 47.04 46.1399 46.99C46.1399 46.82 46.2199 46.65 46.3099 46.47C46.4099 46.25 46.4599 46.14 46.4599 46.01C46.4599 45.89 46.4099 45.78 46.3099 45.56C46.2199 45.38 46.1399 45.21 46.1399 45.04C46.1399 44.99 46.1399 44.94 46.1599 44.9C46.2299 44.69 46.4099 44.59 46.6799 44.44C46.8799 44.33 46.9699 44.28 47.0399 44.2C47.0499 44.19 47.0599 44.17 47.0699 44.16C47.1299 44.07 47.1499 43.96 47.1899 43.74C47.2399 43.44 47.2899 43.24 47.4599 43.11C47.6299 42.99 47.8399 43 48.1399 43.04C48.3699 43.07 48.4899 43.08 48.5999 43.05C48.6199 43.05 48.6399 43.04 48.6499 43.03C48.7399 42.99 48.8099 42.93 48.9799 42.77C49.1499 42.6 49.3499 42.42 49.5799 42.42C49.7999 42.42 49.9599 42.56 50.1799 42.77C50.3299 42.92 50.4199 42.99 50.5099 43.03C50.5299 43.03 50.5499 43.04 50.5599 43.05C50.6599 43.08 50.7799 43.07 51.0099 43.04C51.3099 43 51.5199 42.98 51.6899 43.11C51.8599 43.23 51.9099 43.44 51.9699 43.75C52.0099 43.97 52.0399 44.08 52.0999 44.17C52.0999 44.18 52.1199 44.2 52.1299 44.21C52.1999 44.29 52.2899 44.35 52.4899 44.45C52.7599 44.59 52.9399 44.7 53.0099 44.91C53.0199 44.95 53.0299 45 53.0299 45.05C53.0299 45.22 52.9499 45.4 52.8599 45.57C52.7499 45.79 52.7099 45.9 52.7099 46.03C52.7099 46.15 52.7599 46.26 52.8599 46.48C52.9399 46.65 53.0299 46.83 53.0299 47C53.0299 47.05 53.0299 47.1 53.0099 47.14C52.9399 47.36 52.6999 47.49 52.4899 47.6C52.2899 47.71 52.1999 47.76 52.1299 47.84C52.1199 47.85 52.1099 47.87 52.0999 47.88C52.0399 47.97 52.0199 48.08 51.9799 48.3C51.9399 48.52 51.8899 48.67 51.7999 48.8C51.3299 48.76 50.8599 48.73 50.3799 48.73C49.4399 48.73 48.5199 48.83 47.6299 48.99C47.5699 48.98 47.5099 48.97 47.4599 48.94L47.4699 48.93Z" fill="#4279B6"/>
  <path d="M69.1099 62.35L70.7999 65.41C71.0799 65.91 71.5999 66.22 72.1799 66.22C72.4399 66.22 72.6999 66.15 72.9299 66.03L78.4999 63C78.8699 62.8 79.1399 62.47 79.2599 62.06C79.3799 61.66 79.3299 61.23 79.1299 60.86C78.9299 60.49 78.5999 60.22 78.1899 60.1C77.7899 59.98 77.3599 60.03 76.9899 60.23L72.7899 62.52L71.8499 60.83C71.6499 60.46 71.3099 60.2 70.9099 60.08C70.5099 59.96 70.0799 60.01 69.7099 60.22C68.9499 60.64 68.6799 61.6 69.0999 62.36L69.1099 62.35ZM70.1099 60.9C70.2299 60.83 70.3599 60.8 70.4899 60.8C70.5599 60.8 70.6399 60.8 70.7099 60.83C70.9099 60.89 71.0799 61.02 71.1799 61.21L72.3099 63.24C72.4099 63.43 72.6499 63.5 72.8399 63.39L77.3899 60.92C77.5699 60.82 77.7899 60.8 77.9899 60.86C78.1899 60.92 78.3599 61.05 78.4599 61.24C78.5599 61.42 78.5799 61.64 78.5199 61.84C78.4599 62.04 78.3299 62.21 78.1399 62.31L72.5699 65.34C72.1999 65.54 71.7099 65.39 71.5099 65.03L69.8199 61.97C69.6099 61.59 69.7499 61.11 70.1299 60.9H70.1099Z" fill="#4279B6"/>
  <path d="M85.9998 33.67L78.5098 31.52C78.0898 31.4 77.6398 31.45 77.2598 31.66C76.8798 31.87 76.5998 32.22 76.4798 32.64L74.3298 40.13C74.2098 40.55 74.2598 41 74.4698 41.38C74.6798 41.76 75.0298 42.04 75.4498 42.16L76.1398 42.36L82.2498 44.11L82.9398 44.31C83.0898 44.35 83.2398 44.37 83.3998 44.37C83.6698 44.37 83.9498 44.3 84.1898 44.16C84.5698 43.95 84.8498 43.6 84.9698 43.18L87.1198 35.69C87.3698 34.82 86.8598 33.91 85.9898 33.66L85.9998 33.67ZM86.3698 35.49L84.2198 42.98C84.1598 43.2 84.0098 43.38 83.8098 43.49C83.6098 43.6 83.3798 43.63 83.1598 43.56L82.8198 43.46L82.0798 43.25L76.7698 41.73L76.0298 41.52L75.6898 41.42C75.4698 41.36 75.2898 41.21 75.1798 41.01C75.0698 40.81 75.0398 40.58 75.1098 40.36L77.2598 32.87C77.3198 32.65 77.4698 32.47 77.6698 32.36C77.7998 32.29 77.9398 32.25 78.0798 32.25C78.1598 32.25 78.2398 32.26 78.3198 32.28L85.8098 34.43C86.2598 34.56 86.5298 35.04 86.3998 35.49H86.3698Z" fill="#4279B6"/>
  <path d="M24.36 35.72C24.3 35.51 24.08 35.4 23.87 35.46L14.6 38.3C14.39 38.36 14.28 38.58 14.34 38.79C14.39 38.96 14.55 39.07 14.72 39.07C14.76 39.07 14.8 39.07 14.84 39.05L24.11 36.21C24.32 36.15 24.43 35.93 24.37 35.72H24.36Z" fill="#4279B6"/>
  <path d="M25.0098 63.13C24.6498 62.97 24.2598 62.97 23.9198 63.02L25.0398 61.03C25.1198 60.89 25.0998 60.72 24.9998 60.59C24.8998 60.47 24.7298 60.41 24.5798 60.46L21.1398 61.51C20.9298 61.57 20.8198 61.79 20.8798 62C20.9398 62.21 21.1598 62.32 21.3698 62.26H21.3798L23.8698 61.49L22.7298 63.52C22.6398 63.67 22.6698 63.86 22.7898 63.99C22.9098 64.11 23.0998 64.14 23.2598 64.06C23.4998 63.93 24.2198 63.64 24.6898 63.85C24.9298 63.96 25.0898 64.19 25.1698 64.56C25.3098 65.16 24.7398 65.61 24.1498 65.77C23.6098 65.92 22.9998 65.84 22.8698 65.41C22.8098 65.2 22.5898 65.09 22.3798 65.15C22.3798 65.15 22.3798 65.15 22.3698 65.15C22.1698 65.22 22.0598 65.43 22.1198 65.63C22.3098 66.25 22.8998 66.61 23.6498 66.61C23.8798 66.61 24.1198 66.58 24.3598 66.51C25.3098 66.25 26.1998 65.47 25.9398 64.35C25.7898 63.73 25.4798 63.31 25.0098 63.11V63.13Z" fill="#4279B6"/>
  <path d="M27.6398 64.29C27.4298 64.35 27.3198 64.57 27.3798 64.78L27.4498 65.01C27.4998 65.18 27.6598 65.29 27.8298 65.29C27.8698 65.29 27.9098 65.29 27.9498 65.27C28.1598 65.21 28.2698 64.99 28.2098 64.78L28.1398 64.55C28.0798 64.34 27.8598 64.23 27.6498 64.29H27.6398Z" fill="#4279B6"/>
  <path d="M32.8399 62.83L32.4999 62.93L30.6499 63.5C30.8499 63.12 31.0899 62.66 31.3099 62.22C31.6499 61.55 31.9599 60.93 32.0199 60.7C32.1899 60.14 32.0199 59.5 31.6099 59.09C31.1699 58.65 30.5099 58.52 29.8199 58.73C28.6899 59.08 28.3999 60.18 28.3999 60.71C28.3999 60.93 28.5899 61.1 28.7999 61.1C28.9399 61.1 29.0399 61.01 29.1099 60.9C29.1499 60.84 29.1899 60.78 29.1899 60.71C29.1899 60.71 29.1899 59.75 30.0499 59.49C30.4599 59.36 30.8199 59.42 31.0599 59.66C31.2699 59.87 31.3599 60.2 31.2699 60.49C31.2199 60.65 30.9599 61.19 30.6399 61.83C30.2799 62.54 29.8399 63.37 29.5099 63.98C29.4299 64.12 29.4499 64.29 29.5499 64.42C29.6299 64.51 29.7399 64.56 29.8499 64.56C29.8899 64.56 29.9299 64.56 29.9699 64.54L33.0699 63.59C33.2799 63.53 33.3899 63.31 33.3299 63.1C33.2699 62.89 33.0499 62.78 32.8399 62.84V62.83Z" fill="#4279B6"/>
  <path d="M69.72 46.19V47.01L87.41 52.08L87.62 51.33L69.72 46.19Z" fill="#2D557F"/>
  <path d="M69.72 50.45L86.5 55.26L86.71 54.5L69.72 49.63V50.45Z" fill="#2D557F"/>
  <path d="M69.7199 53.25C69.7199 53.46 69.6599 53.66 69.5999 53.85L85.5899 58.43L85.8099 57.67L69.7199 53.06V53.24V53.25Z" fill="#2D557F"/>
  <path d="M76.1499 42.37L82.2699 44.12L76.1499 42.37Z" fill="#2D557F"/>
  <path d="M80.1698 39.88C81.5398 40.27 82.3398 41.73 82.0898 43.25L82.8298 43.46C83.1498 41.77 82.4098 40.12 81.0298 39.38C82.0098 39.35 82.9098 38.71 83.1898 37.72C83.3598 37.13 83.2898 36.51 82.9898 35.97C82.6898 35.43 82.1998 35.04 81.5998 34.87C81.0098 34.7 80.3898 34.77 79.8598 35.07C79.3198 35.37 78.9298 35.86 78.7598 36.45C78.4698 37.46 78.9298 38.48 79.7798 39.01C78.1998 38.86 76.6598 39.88 76.0298 41.5L76.7698 41.71C77.3598 40.29 78.8098 39.47 80.1698 39.86V39.88ZM79.5198 36.68C79.6298 36.29 79.8898 35.97 80.2398 35.77C80.4698 35.64 80.7198 35.58 80.9698 35.58C81.1098 35.58 81.2398 35.6 81.3798 35.64C81.7698 35.75 82.0998 36.01 82.2898 36.37C82.4898 36.72 82.5298 37.13 82.4198 37.52C82.1898 38.32 81.3398 38.79 80.5398 38.56C79.7398 38.33 79.2798 37.49 79.5098 36.69L79.5198 36.68Z" fill="#2D557F"/>
  <path d="M64.81 23.81H34.36C33.54 23.81 32.9 24.42 32.77 25.2C32.91 25.17 33.04 25.17 33.18 25.16C33.31 25.16 33.44 25.12 33.57 25.14C33.7 24.82 34 24.6 34.36 24.6H64.81C65.28 24.6 65.67 24.98 65.67 25.46V50.94C65.67 51.41 65.29 51.8 64.81 51.8H59.58C59.76 51.93 59.94 52.06 60.11 52.19C60.27 52.32 60.41 52.45 60.56 52.58H64.82C65.25 52.58 65.64 52.4 65.94 52.13C65.98 52.1 66.01 52.06 66.04 52.02C66.3 51.73 66.47 51.36 66.47 50.94V25.45C66.47 25.38 66.44 25.32 66.43 25.25C66.33 24.44 65.66 23.8 64.83 23.8L64.81 23.81Z" fill="#2D557F"/>
  <path d="M61.3299 33.94H37.8499C37.7899 33.94 37.7399 33.98 37.6899 34.01L37.9099 34.73H61.3299C61.5499 34.73 61.7199 34.55 61.7199 34.34C61.7199 34.13 61.5399 33.95 61.3299 33.95V33.94Z" fill="#2D557F"/>
  <path d="M61.3299 45.37H56.0099C55.7899 45.37 55.6199 45.55 55.6199 45.76C55.6199 45.97 55.7999 46.15 56.0099 46.15H61.3299C61.5499 46.15 61.7199 45.97 61.7199 45.76C61.7199 45.55 61.5399 45.37 61.3299 45.37Z" fill="#2D557F"/>
  <path d="M41.1799 45.37L41.2999 45.76L41.4199 46.15H43.1799C43.3999 46.15 43.5699 45.97 43.5699 45.76C43.5699 45.55 43.3899 45.37 43.1799 45.37H41.1799Z" fill="#2D557F"/>
  <path d="M61.3298 37.68H38.8198L38.9398 38.07L39.0598 38.46H61.3298C61.5498 38.46 61.7198 38.28 61.7198 38.07C61.7198 37.86 61.5398 37.68 61.3298 37.68Z" fill="#2D557F"/>
  <path d="M39.0699 46.16L38.9499 45.77L38.8299 45.38L33.9399 29.42C33.8599 29.15 33.6999 28.92 33.5099 28.72C33.3899 28.6 33.2699 28.49 33.1199 28.4C33.0999 28.39 33.0899 28.37 33.0599 28.35C32.9499 28.29 32.8399 28.28 32.7199 28.25C32.3799 28.15 32.0199 28.11 31.6799 28.22L30.7799 28.5L30.1199 28.7L29.4599 28.9L4.0699 36.68C3.1199 36.97 2.5799 37.99 2.8699 38.94L12.9799 71.93C13.1199 72.39 13.4399 72.77 13.8599 73C14.1299 73.14 14.4099 73.21 14.7099 73.21C14.8899 73.21 15.0699 73.18 15.2399 73.13L35.1999 67.01C35.1799 66.88 35.1599 66.75 35.1399 66.62C35.1199 66.49 35.0999 66.36 35.0799 66.23L15.0099 72.38C14.7499 72.46 14.4699 72.43 14.2299 72.3C13.9899 72.17 13.8099 71.96 13.7299 71.7L3.6199 38.71C3.4499 38.17 3.7599 37.6 4.2999 37.43L29.4599 29.72L30.1199 29.52L30.7799 29.32L31.9099 28.97C32.0099 28.94 32.1099 28.92 32.2099 28.92C32.3799 28.92 32.5399 28.96 32.6899 29.04C32.6999 29.04 32.7099 29.06 32.7199 29.07C32.8999 29.17 33.0299 29.33 33.1099 29.51C33.1299 29.56 33.1699 29.6 33.1799 29.65L33.4999 30.69L37.9999 45.37L38.1199 45.76L38.2399 46.15L39.9699 51.78L40.0899 52.17L40.2099 52.56C40.3199 52.47 40.4199 52.36 40.5299 52.27C40.5699 52.23 40.6199 52.2 40.6599 52.16C40.7199 52.11 40.7899 52.06 40.8599 52.01L40.7899 51.77L39.0599 46.14L39.0699 46.16Z" fill="#2D557F"/>
  <path d="M25.7399 40.2C25.6799 39.99 25.4599 39.88 25.2499 39.94L9.19987 44.86C8.98987 44.92 8.87987 45.14 8.93987 45.35C8.98987 45.52 9.14987 45.63 9.31987 45.63C9.35987 45.63 9.39987 45.63 9.43987 45.61L25.4899 40.69C25.6999 40.63 25.8099 40.41 25.7499 40.2H25.7399Z" fill="#2D557F"/>
  <path d="M10.66 50.03C10.66 50.03 10.74 50.03 10.78 50.01L26.83 45.09C27.04 45.03 27.15 44.81 27.09 44.6C27.03 44.39 26.81 44.28 26.6 44.34L10.55 49.26C10.34 49.32 10.23 49.54 10.29 49.75C10.34 49.92 10.5 50.03 10.67 50.03H10.66Z" fill="#2D557F"/>
  <path d="M12.0098 54.44C12.0098 54.44 12.0898 54.44 12.1298 54.42L28.1798 49.5C28.3898 49.44 28.4998 49.22 28.4398 49.01C28.3798 48.8 28.1598 48.69 27.9498 48.75L11.8998 53.67C11.6898 53.73 11.5798 53.95 11.6398 54.16C11.6898 54.33 11.8498 54.44 12.0198 54.44H12.0098Z" fill="#2D557F"/>
  <path d="M13.3599 58.84C13.3599 58.84 13.4399 58.84 13.4799 58.82L29.5299 53.9C29.5299 53.9 29.5699 53.86 29.5899 53.85C29.7499 53.76 29.8399 53.59 29.7899 53.41C29.7399 53.26 29.6099 53.19 29.4699 53.16C29.4099 53.16 29.3599 53.13 29.2999 53.14L13.2499 58.06C13.0399 58.12 12.9299 58.34 12.9899 58.55C13.0399 58.72 13.1999 58.83 13.3699 58.83L13.3599 58.84Z" fill="#2D557F"/>
  <path d="M32.0198 37.86L30.7698 38.24L30.1098 38.44L29.4498 38.64L27.1198 39.35C26.9098 39.41 26.7998 39.63 26.8598 39.84C26.9098 40.01 27.0698 40.12 27.2398 40.12C27.2798 40.12 27.3198 40.12 27.3598 40.1L29.4598 39.46L30.1198 39.26L30.7798 39.06L32.2598 38.61C32.4698 38.55 32.5798 38.33 32.5198 38.12C32.4598 37.91 32.2398 37.79 32.0298 37.86H32.0198Z" fill="#2D557F"/>
  <path d="M30.1199 43.26L29.4599 43.46L28.4799 43.76C28.2699 43.82 28.1599 44.04 28.2199 44.25C28.2699 44.42 28.4299 44.53 28.5999 44.53C28.6399 44.53 28.6799 44.53 28.7199 44.51L29.4699 44.28L30.1299 44.08L30.7899 43.88L32.7399 43.28L33.1299 43.16L33.5199 43.04L33.6099 43.01C33.8199 42.95 33.9299 42.73 33.8699 42.52C33.8199 42.36 33.6699 42.28 33.5199 42.27C33.4699 42.27 33.4299 42.24 33.3799 42.26L33.1199 42.34L32.7299 42.46L30.7799 43.06L30.1199 43.26Z" fill="#2D557F"/>
  <path d="M30.07 48.92L30.12 48.9L30.78 48.7L32.73 48.1L33.12 47.98L33.51 47.86L34.95 47.42C35.16 47.36 35.27 47.14 35.21 46.93C35.15 46.72 34.93 46.61 34.72 46.67L33.51 47.04L33.12 47.16L32.73 47.28L30.78 47.88L30.12 48.08L29.84 48.17C29.63 48.23 29.52 48.45 29.58 48.66C29.63 48.83 29.79 48.94 29.96 48.94C30 48.94 30.04 48.94 30.08 48.92H30.07Z" fill="#2D557F"/>
  <path d="M36.0699 51.08L34.0099 51.71L33.5599 51.85L33.1299 51.98L31.1899 52.57C30.9799 52.63 30.8699 52.85 30.9299 53.06C30.9799 53.23 31.1399 53.34 31.3099 53.34C31.3499 53.34 31.3899 53.34 31.4299 53.32L34.0799 52.51L35.1699 52.18L36.3099 51.83C36.3099 51.83 36.3399 51.8 36.3599 51.79C36.5299 51.7 36.6299 51.53 36.5699 51.34C36.5099 51.13 36.2899 51.02 36.0799 51.08H36.0699Z" fill="#2D557F"/>
  <path d="M57.6098 57.75C57.3498 57.8 57.0998 57.86 56.8598 57.98C56.5898 58.11 56.3298 58.25 56.0998 58.47L56.0098 58.56L48.9298 65.52L46.6398 63.23L45.9198 62.51C45.8498 62.44 45.7598 62.42 45.6898 62.36C45.4298 62.15 45.1598 61.97 44.8498 61.86C44.5198 61.74 44.1698 61.68 43.8198 61.68C43.6898 61.68 43.5598 61.73 43.4298 61.76C43.2998 61.78 43.1698 61.8 43.0398 61.84C42.5998 61.97 42.1798 62.17 41.8398 62.52C41.3198 63.04 41.0598 63.72 41.0298 64.4C41.0298 64.54 41.0298 64.67 41.0498 64.81C41.0598 64.94 41.0998 65.07 41.1298 65.2C41.2298 65.62 41.4098 66.02 41.6998 66.37C41.7598 66.44 41.7898 66.53 41.8498 66.6L42.1598 66.91L42.6798 67.43L46.8698 71.62C47.4098 72.16 48.1398 72.46 48.9098 72.46C49.6798 72.46 50.3898 72.17 50.9298 71.63L56.6998 65.95L57.2398 65.42L57.7798 64.89L60.1398 62.57C61.2698 61.45 61.2898 59.63 60.1698 58.49C59.4698 57.78 58.5098 57.56 57.5998 57.73L57.6098 57.75ZM56.3798 64.45L55.8998 64.92L55.4298 65.38L50.0298 70.7C49.7298 70.99 49.3398 71.15 48.9298 71.15C48.5198 71.15 48.1098 70.99 47.8198 70.69L44.1198 66.99L43.5998 66.47L43.0798 65.95L42.7998 65.67C42.5598 65.43 42.4398 65.13 42.3898 64.82C42.3698 64.68 42.3498 64.55 42.3698 64.42C42.3798 64.27 42.3998 64.12 42.4498 63.98C42.5298 63.79 42.6398 63.61 42.7998 63.45C42.9598 63.29 43.1498 63.18 43.3398 63.1C43.4698 63.05 43.6198 63.03 43.7598 63.02C43.8098 63.02 43.8598 62.99 43.9098 62.99C43.9898 62.99 44.0598 63.02 44.1398 63.03C44.4598 63.08 44.7798 63.2 45.0298 63.45L45.5198 63.94L46.2598 64.68L46.7898 65.21L48.4998 66.92C48.7498 67.17 49.1698 67.18 49.4198 66.92L55.3098 61.13L56.2598 60.2L57.0498 59.42C57.0498 59.42 57.1398 59.37 57.1898 59.33C57.8098 58.84 58.7098 58.86 59.2798 59.44C59.8898 60.06 59.8798 61.06 59.2598 61.66L56.4098 64.47L56.3798 64.45Z" fill="#2D557F"/>
</svg>
