<svg xmlns="http://www.w3.org/2000/svg" width="100" height="100" viewBox="0 0 100 100" fill="none">
  <path d="M79.0833 4.47378L1.89903 21.5004C0.885115 21.724 0.244489 22.7273 0.468156 23.7412L10.8362 70.7412C11.0598 71.7551 12.0631 72.3958 13.077 72.1721L90.2613 55.1455C91.2753 54.9218 91.9159 53.9186 91.6922 52.9047L81.3242 5.90466C81.1005 4.89074 80.0973 4.25012 79.0833 4.47378Z" fill="#4279B6"/>
  <path d="M14.11 72.64C12.02 72.64 10.14 71.19 9.67002 69.07L0.110015 25.75C-0.429985 23.3 1.12001 20.87 3.57001 20.33L77.08 4.11C78.26 3.85 79.48 4.07 80.5 4.72C81.53 5.37 82.23 6.39 82.49 7.57L92.05 50.9C92.31 52.08 92.09 53.3 91.44 54.32C90.79 55.35 89.77 56.05 88.59 56.31L15.09 72.53C14.76 72.6 14.43 72.64 14.11 72.64ZM78.06 5.57C77.85 5.57 77.63 5.59 77.42 5.64L3.90001 21.86C2.30001 22.21 1.28001 23.81 1.63001 25.41L11.19 68.74C11.54 70.34 13.13 71.36 14.74 71.01L88.25 54.79C89.02 54.62 89.68 54.16 90.11 53.48C90.54 52.81 90.68 52.01 90.51 51.24L80.96 7.9C80.79 7.13 80.33 6.47 79.65 6.04C79.16 5.73 78.61 5.57 78.05 5.57H78.06Z" fill="#0E1721"/>
  <path d="M82.443 10.9749L1.58698 28.8114L3.77561 38.7329L84.6316 20.8963L82.443 10.9749Z" fill="#FCCD2A"/>
  <path d="M3.77001 39.52C3.41001 39.52 3.09001 39.27 3.01001 38.91L0.820006 28.98C0.730006 28.56 0.990006 28.14 1.42001 28.05L82.27 10.21C82.47 10.17 82.69 10.21 82.86 10.31C83.03 10.41 83.16 10.6 83.2 10.8L85.39 20.72C85.48 21.14 85.22 21.56 84.79 21.65L3.94001 39.5C3.88001 39.51 3.83001 39.52 3.77001 39.52ZM2.52001 29.41L4.37001 37.8L83.7 20.3L81.85 11.91L2.52001 29.41Z" fill="#0E1721"/>
  <path d="M97.34 42.53H18.3C17.2617 42.53 16.42 43.3717 16.42 44.41V92.54C16.42 93.5783 17.2617 94.42 18.3 94.42H97.34C98.3783 94.42 99.22 93.5783 99.22 92.54V44.41C99.22 43.3717 98.3783 42.53 97.34 42.53Z" fill="#4279B6"/>
  <path d="M95.46 95.21H20.18C17.67 95.21 15.64 93.17 15.64 90.67V46.3C15.64 43.79 17.68 41.76 20.18 41.76H95.46C97.97 41.76 100 43.8 100 46.3V90.67C100 93.18 97.96 95.21 95.46 95.21ZM20.18 43.31C18.54 43.31 17.2 44.65 17.2 46.29V90.66C17.2 92.3 18.54 93.64 20.18 93.64H95.46C97.1 93.64 98.44 92.3 98.44 90.66V46.29C98.44 44.65 97.1 43.31 95.46 43.31H20.18Z" fill="#0E1721"/>
  <path d="M38.06 59.53H25.45V69.7H38.06V59.53Z" fill="white"/>
  <path d="M38.06 70.48H25.45C25.02 70.48 24.67 70.13 24.67 69.7V59.53C24.67 59.1 25.02 58.75 25.45 58.75H38.06C38.49 58.75 38.84 59.1 38.84 59.53V69.7C38.84 70.13 38.49 70.48 38.06 70.48ZM26.24 68.91H37.28V60.31H26.24V68.91Z" fill="#0E1721"/>
  <path d="M91.6 51.15H74.49V59.95H91.6V51.15Z" fill="white"/>
  <path d="M91.6 60.73H74.49C74.06 60.73 73.71 60.38 73.71 59.95V51.15C73.71 50.72 74.06 50.37 74.49 50.37H91.6C92.03 50.37 92.38 50.72 92.38 51.15V59.95C92.38 60.38 92.03 60.73 91.6 60.73ZM75.27 59.17H90.81V51.94H75.27V59.17Z" fill="#0E1721"/>
  <path d="M39.31 83.66H25.87C25.44 83.66 25.09 83.31 25.09 82.88C25.09 82.45 25.44 82.1 25.87 82.1H39.31C39.74 82.1 40.09 82.45 40.09 82.88C40.09 83.31 39.74 83.66 39.31 83.66Z" fill="#0E1721"/>
  <path d="M56.42 83.66H43.6C43.17 83.66 42.82 83.31 42.82 82.88C42.82 82.45 43.17 82.1 43.6 82.1H56.42C56.85 82.1 57.2 82.45 57.2 82.88C57.2 83.31 56.85 83.66 56.42 83.66Z" fill="#0E1721"/>
  <path d="M73.52 83.66H60.7C60.27 83.66 59.92 83.31 59.92 82.88C59.92 82.45 60.27 82.1 60.7 82.1H73.52C73.95 82.1 74.3 82.45 74.3 82.88C74.3 83.31 73.95 83.66 73.52 83.66Z" fill="#0E1721"/>
  <path d="M91.25 83.66H77.81C77.38 83.66 77.03 83.31 77.03 82.88C77.03 82.45 77.38 82.1 77.81 82.1H91.25C91.68 82.1 92.03 82.45 92.03 82.88C92.03 83.31 91.68 83.66 91.25 83.66Z" fill="#0E1721"/>
</svg>
