<svg xmlns="http://www.w3.org/2000/svg" width="100" height="100" viewBox="0 0 100 100" fill="none">
  <path d="M75.0201 16.38L76.1801 21.74C76.2401 22.03 76.0701 22.31 75.7901 22.4C72.9501 23.25 70.2101 24.45 67.6401 25.97L62.1801 29.93C60.6401 31.27 59.2101 32.76 57.9201 34.33C57.6301 34.68 57.3601 35.04 57.0801 35.41H64.8201L66.9101 33.02C66.9101 33.02 66.9601 32.97 66.9801 32.95C69.9401 30.6 73.2601 28.83 76.8401 27.7C76.9901 27.65 77.1501 27.67 77.2901 27.75C77.4301 27.83 77.5201 27.96 77.5601 28.12L78.6701 33.24L91.4301 21.64L75.0101 16.38H75.0201Z" fill="#3C8645"/>
  <path d="M42.1699 34.34C40.6099 32.43 38.8499 30.67 36.9199 29.1L32.4799 26C29.9099 24.47 27.1599 23.26 24.3099 22.41C24.0299 22.33 23.8599 22.04 23.9199 21.75L25.0799 16.39L8.65991 21.64L21.4199 33.24L22.5299 28.12C22.5599 27.97 22.6599 27.83 22.7999 27.75C22.8899 27.7 22.9799 27.67 23.0799 27.67C23.1399 27.67 23.1899 27.67 23.2499 27.7C27.9799 29.2 32.3199 31.86 35.8599 35.42H43.0099C42.7399 35.06 42.4599 34.7 42.1699 34.34Z" fill="#FC8B27"/>
  <path d="M84.5999 36.48H15.4999C14.2299 36.48 13.1899 37.51 13.1899 38.79V71.75H86.8999V38.79C86.8999 37.52 85.8699 36.48 84.5899 36.48H84.5999ZM72.5999 62.29H27.5099C27.1999 62.29 26.9499 62.04 26.9499 61.73C26.9499 61.42 27.1999 61.17 27.5099 61.17H72.5999C72.9099 61.17 73.1599 61.42 73.1599 61.73C73.1599 62.04 72.9099 62.29 72.5999 62.29ZM72.5999 57.57H27.5099C27.1999 57.57 26.9499 57.32 26.9499 57.01C26.9499 56.7 27.1999 56.45 27.5099 56.45H72.5999C72.9099 56.45 73.1599 56.7 73.1599 57.01C73.1599 57.32 72.9099 57.57 72.5999 57.57ZM74.4699 50.5C74.4699 50.5 74.4199 50.5 74.3899 50.5C67.7499 49.87 61.0699 49.51 54.3799 49.4C54.1899 49.4 54.0099 49.4 53.8199 49.4C51.4399 49.37 49.0499 49.36 46.6699 49.4C46.4499 49.4 46.2199 49.4 45.9999 49.41C39.2199 49.52 32.4499 49.88 25.7099 50.52C25.2399 50.56 24.8199 50.22 24.7799 49.75C24.7399 49.28 25.0799 48.86 25.5499 48.82C32.1299 48.2 38.7499 47.83 45.3799 47.71C45.5699 47.71 45.7499 47.71 45.9399 47.71C46.1299 47.71 46.3099 47.71 46.4999 47.71C48.7499 47.68 51.0099 47.68 53.2599 47.71C53.4499 47.71 53.6299 47.71 53.8199 47.71C54.0099 47.71 54.1899 47.71 54.3799 47.71C61.1199 47.82 67.8499 48.19 74.5499 48.82C75.0199 48.86 75.3599 49.28 75.3199 49.75C75.2799 50.19 74.9099 50.52 74.4699 50.52V50.5Z" fill="white"/>
  <path d="M13.22 72.86V96.6C13.22 97.86 14.24 98.88 15.5 98.88H84.6C85.86 98.88 86.88 97.86 86.88 96.6V72.86H13.22ZM50.05 86.88H27.5C27.19 86.88 26.94 86.63 26.94 86.32C26.94 86.01 27.19 85.76 27.5 85.76H50.05C50.36 85.76 50.61 86.01 50.61 86.32C50.61 86.63 50.36 86.88 50.05 86.88ZM50.05 82.94H27.5C27.19 82.94 26.94 82.69 26.94 82.38C26.94 82.07 27.19 81.82 27.5 81.82H50.05C50.36 81.82 50.61 82.07 50.61 82.38C50.61 82.69 50.36 82.94 50.05 82.94ZM80.54 86.6C80.77 87.08 81.06 87.67 81.06 88.37C81.06 88.63 81.02 88.88 80.94 89.11C80.6 90.14 79.7 90.62 79.1 90.94C79.01 90.99 78.84 91.08 78.73 91.15C78.7 91.28 78.66 91.49 78.65 91.57C78.52 92.27 78.35 93.23 77.48 93.87C76.62 94.5 75.65 94.37 74.95 94.27C74.86 94.26 74.65 94.23 74.51 94.22C74.42 94.3 74.28 94.44 74.21 94.5C73.69 95 72.98 95.69 71.88 95.69C70.78 95.69 70.04 94.98 69.55 94.5C69.49 94.45 69.35 94.31 69.25 94.22C69.12 94.22 68.9 94.26 68.82 94.27C68.11 94.36 67.15 94.49 66.28 93.87C65.41 93.24 65.24 92.28 65.11 91.57C65.1 91.49 65.06 91.28 65.02 91.15C64.91 91.08 64.74 90.99 64.66 90.95C64.02 90.61 63.15 90.15 62.82 89.12C62.74 88.88 62.7 88.63 62.7 88.38C62.7 87.68 62.98 87.09 63.21 86.62C63.26 86.52 63.36 86.31 63.41 86.19C63.38 86.1 63.31 85.96 63.22 85.76C62.99 85.28 62.71 84.69 62.71 83.99C62.71 83.73 62.75 83.48 62.83 83.25C63.16 82.22 64.03 81.76 64.66 81.42C64.74 81.38 64.92 81.28 65.03 81.21C65.05 81.12 65.08 80.98 65.11 80.79C65.24 80.09 65.41 79.13 66.28 78.49C67.14 77.86 68.11 77.99 68.81 78.09C68.9 78.1 69.12 78.13 69.25 78.14C69.35 78.06 69.49 77.92 69.55 77.86C70.04 77.39 70.78 76.67 71.88 76.67C72.98 76.67 73.68 77.35 74.2 77.85C74.26 77.91 74.4 78.05 74.5 78.13C74.63 78.13 74.85 78.09 74.93 78.08C75.64 77.98 76.6 77.85 77.47 78.48C78.34 79.11 78.51 80.07 78.64 80.77C78.66 80.87 78.7 81.07 78.73 81.19C78.8 81.24 78.93 81.3 79.09 81.39C79.72 81.73 80.59 82.19 80.93 83.22C81.01 83.46 81.05 83.71 81.05 83.96C81.05 84.66 80.77 85.25 80.54 85.73C80.49 85.83 80.39 86.04 80.35 86.16C80.4 86.29 80.5 86.5 80.54 86.58V86.6Z" fill="#4279B6"/>
  <path d="M46.5 18.57V35.41H53.2599V18.57C53.2599 18.26 53.5099 18.01 53.82 18.01H59.31L49.88 1.68L40.45 18.01H45.9399C46.2499 18.01 46.5 18.26 46.5 18.57Z" fill="#FCCD2A"/>
  <path d="M74.4701 50.5C74.91 50.5 75.28 50.17 75.32 49.73C75.3601 49.26 75.0201 48.84 74.5501 48.8C67.8601 48.17 61.12 47.8 54.3801 47.69C54.1901 47.69 54.01 47.69 53.82 47.69C53.63 47.69 53.45 47.69 53.26 47.69C51.01 47.66 48.75 47.67 46.5 47.69C46.31 47.69 46.13 47.69 45.94 47.69C45.75 47.69 45.5701 47.69 45.3801 47.69C38.7501 47.81 32.13 48.17 25.55 48.8C25.08 48.84 24.7401 49.26 24.7801 49.73C24.8201 50.2 25.24 50.54 25.71 50.5C32.44 49.86 39.22 49.5 46 49.39C46.22 49.39 46.45 49.39 46.67 49.38C49.05 49.35 51.44 49.35 53.82 49.38C54.01 49.38 54.1901 49.38 54.3801 49.38C61.07 49.49 67.75 49.86 74.39 50.48C74.42 50.48 74.4401 50.48 74.4701 50.48V50.5Z" fill="#4279B6"/>
  <path d="M79.32 86.19C79.32 85.98 79.42 85.75 79.62 85.32C79.83 84.89 80.04 84.45 80.04 83.98C80.04 83.83 80.02 83.69 79.97 83.55C79.76 82.91 79.18 82.6 78.62 82.3C78.18 82.06 78.02 81.96 77.92 81.84C77.91 81.82 77.89 81.81 77.88 81.79C77.78 81.64 77.73 81.43 77.65 80.98C77.54 80.37 77.42 79.7 76.88 79.31C76.35 78.92 75.67 79.01 75.08 79.09C74.61 79.15 74.38 79.17 74.21 79.13C74.19 79.13 74.16 79.12 74.14 79.11C73.99 79.04 73.81 78.89 73.5 78.59C73.06 78.17 72.56 77.69 71.88 77.69C71.2 77.69 70.68 78.19 70.26 78.59C69.94 78.9 69.78 79.04 69.63 79.1C69.61 79.11 69.58 79.12 69.56 79.12C69.38 79.17 69.15 79.15 68.68 79.09C68.09 79.01 67.42 78.92 66.88 79.31C66.34 79.7 66.22 80.37 66.11 80.96C66.02 81.47 65.97 81.65 65.88 81.78C65.87 81.8 65.85 81.82 65.84 81.84C65.73 81.97 65.53 82.09 65.14 82.3C64.6 82.59 64 82.91 63.79 83.55C63.75 83.69 63.72 83.83 63.72 83.98C63.72 84.45 63.93 84.88 64.13 85.31C64.34 85.75 64.44 85.97 64.44 86.17C64.44 86.38 64.35 86.6 64.14 87.04C63.93 87.48 63.72 87.91 63.72 88.38C63.72 88.53 63.74 88.67 63.79 88.81C64 89.45 64.6 89.77 65.14 90.06C65.55 90.28 65.73 90.39 65.84 90.51C65.86 90.53 65.87 90.55 65.88 90.57C65.98 90.72 66.03 90.95 66.11 91.4C66.22 91.99 66.34 92.66 66.88 93.05C67.41 93.44 68.08 93.35 68.68 93.27C68.99 93.23 69.19 93.21 69.33 93.21C69.42 93.21 69.49 93.21 69.55 93.24C69.57 93.24 69.59 93.25 69.61 93.26C69.77 93.33 69.93 93.47 70.25 93.78C70.67 94.18 71.18 94.68 71.87 94.68C72.56 94.68 73.03 94.22 73.49 93.78C73.81 93.47 73.97 93.33 74.12 93.27C74.14 93.27 74.16 93.25 74.19 93.25C74.37 93.2 74.6 93.22 75.07 93.28C75.67 93.36 76.34 93.45 76.87 93.06C77.41 92.67 77.52 92.03 77.64 91.41C77.72 90.95 77.77 90.73 77.86 90.59C77.87 90.57 77.89 90.55 77.9 90.53C78.01 90.4 78.2 90.29 78.59 90.07C79.11 89.79 79.74 89.46 79.95 88.81C79.99 88.68 80.02 88.53 80.02 88.38C80.02 87.91 79.81 87.48 79.61 87.05C79.4 86.61 79.3 86.38 79.3 86.19H79.32Z" fill="#FCCD2A"/>
  <path d="M76.6099 28.96L77.7999 34.43C77.8399 34.63 77.9899 34.78 78.1799 34.85C78.3699 34.91 78.5799 34.87 78.7299 34.73L92.9299 21.83C93.0799 21.7 93.1399 21.49 93.0999 21.3C93.0599 21.1 92.9099 20.95 92.7199 20.88L74.4399 15.03C74.2499 14.97 74.0399 15.01 73.8899 15.15C73.7399 15.28 73.6799 15.49 73.7199 15.68L74.9799 21.49C72.2199 22.36 69.5599 23.55 67.0599 25.04C67.0499 25.04 67.0299 25.06 67.0199 25.07L61.5099 29.06C61.5099 29.06 61.4799 29.08 61.4699 29.09C59.8799 30.48 58.3999 32.01 57.0599 33.65C56.5899 34.23 56.1299 34.83 55.6899 35.43H54.3799V19.15H60.2799C60.4799 19.15 60.6699 19.04 60.7699 18.87C60.8699 18.7 60.8699 18.48 60.7699 18.31L50.3699 0.28C50.2699 0.11 50.0799 0 49.8799 0C49.6799 0 49.4899 0.11 49.3899 0.28L38.9899 18.29C38.8899 18.46 38.8899 18.68 38.9899 18.85C39.0899 19.02 39.2799 19.13 39.4799 19.13H45.3799V35.41H44.3999C43.9599 34.8 43.4999 34.2 43.0299 33.63C41.4199 31.65 39.5899 29.83 37.6099 28.22C37.5999 28.22 37.5899 28.2 37.5799 28.2L33.0999 25.07C33.0999 25.07 33.0799 25.05 33.0699 25.05C30.5599 23.56 27.8899 22.36 25.1199 21.49L26.3799 15.68C26.4199 15.48 26.3599 15.28 26.2099 15.15C26.0599 15.02 25.8499 14.97 25.6599 15.03L7.38988 20.86C7.19988 20.92 7.05988 21.08 7.00988 21.28C6.96988 21.48 7.02988 21.68 7.17988 21.81L21.3799 34.71C21.5299 34.84 21.7399 34.89 21.9299 34.83C22.1199 34.77 22.2599 34.61 22.3099 34.41L23.4999 28.94C27.4799 30.3 31.1499 32.5 34.2499 35.39H15.4999C13.6399 35.39 12.1299 36.9 12.1299 38.76V72.13C12.1299 72.13 12.1099 72.23 12.1099 72.28V96.58C12.1099 98.45 13.6299 99.98 15.5099 99.98H84.6099C86.4799 99.98 88.0099 98.46 88.0099 96.58V72.28C88.0099 72.23 88.0099 72.18 87.9899 72.13V38.76C87.9899 36.9 86.4799 35.39 84.6199 35.39H66.3499L67.7599 33.77C70.4399 31.65 73.4299 30.02 76.6299 28.93L76.6099 28.96ZM66.9199 33.02L64.8299 35.41H57.0899C57.3599 35.05 57.6399 34.69 57.9299 34.33C59.2199 32.75 60.6499 31.27 62.1899 29.93L67.6499 25.97C70.2199 24.45 72.9599 23.25 75.7999 22.4C76.0799 22.32 76.2499 22.03 76.1899 21.74L75.0299 16.38L91.4499 21.64L78.6899 33.24L77.5799 28.12C77.5499 27.97 77.4499 27.83 77.3099 27.75C77.1699 27.67 77.0099 27.65 76.8599 27.7C73.2799 28.83 69.9699 30.6 66.9999 32.95C66.9699 32.97 66.9499 33 66.9299 33.02H66.9199ZM86.8799 96.6C86.8799 97.86 85.8599 98.88 84.5999 98.88H15.4999C14.2399 98.88 13.2199 97.86 13.2199 96.6V72.86H86.8799V96.6ZM86.9099 71.74H13.1999V38.78C13.1999 37.51 14.2299 36.47 15.5099 36.47H84.6099C85.8799 36.47 86.9199 37.5 86.9199 38.78V71.74H86.9099ZM23.0799 27.67C22.9799 27.67 22.8899 27.7 22.7999 27.75C22.6599 27.83 22.5699 27.96 22.5299 28.12L21.4199 33.24L8.65988 21.64L25.0799 16.38L23.9199 21.74C23.8599 22.03 24.0299 22.31 24.3099 22.4C27.1599 23.25 29.9099 24.46 32.4799 25.99L36.9199 29.09C38.8399 30.66 40.6099 32.42 42.1699 34.33C42.4599 34.68 42.7299 35.04 43.0099 35.41H35.8599C32.3199 31.85 27.9899 29.2 23.2499 27.69C23.1899 27.67 23.1399 27.66 23.0799 27.66V27.67ZM45.9399 18.01H40.4499L49.8799 1.68L59.3099 18.01H53.8199C53.5099 18.01 53.2599 18.26 53.2599 18.57V35.41H46.4999V18.57C46.4999 18.26 46.2499 18.01 45.9399 18.01Z" fill="#0E1721"/>
  <path d="M72.5999 56.46H27.51C27.2 56.46 26.95 56.71 26.95 57.02C26.95 57.33 27.2 57.58 27.51 57.58H72.5999C72.91 57.58 73.16 57.33 73.16 57.02C73.16 56.71 72.91 56.46 72.5999 56.46Z" fill="#0E1721"/>
  <path d="M27.51 82.94H50.06C50.37 82.94 50.6199 82.69 50.6199 82.38C50.6199 82.07 50.37 81.82 50.06 81.82H27.51C27.2 81.82 26.95 82.07 26.95 82.38C26.95 82.69 27.2 82.94 27.51 82.94Z" fill="#0E1721"/>
  <path d="M27.51 86.88H50.06C50.37 86.88 50.6199 86.63 50.6199 86.32C50.6199 86.01 50.37 85.76 50.06 85.76H27.51C27.2 85.76 26.95 86.01 26.95 86.32C26.95 86.63 27.2 86.88 27.51 86.88Z" fill="#0E1721"/>
  <path d="M72.5999 61.17H27.51C27.2 61.17 26.95 61.42 26.95 61.73C26.95 62.04 27.2 62.29 27.51 62.29H72.5999C72.91 62.29 73.16 62.04 73.16 61.73C73.16 61.42 72.91 61.17 72.5999 61.17Z" fill="#0E1721"/>
  <path d="M62.74 88.37C62.74 88.63 62.78 88.88 62.86 89.11C63.19 90.14 64.06 90.6 64.7 90.94C64.78 90.98 64.95 91.08 65.06 91.14C65.09 91.27 65.13 91.48 65.15 91.56C65.28 92.26 65.45 93.22 66.32 93.86C67.18 94.49 68.15 94.36 68.86 94.26C68.94 94.25 69.16 94.22 69.29 94.21C69.39 94.29 69.53 94.43 69.59 94.49C70.08 94.96 70.82 95.68 71.92 95.68C73.02 95.68 73.73 94.99 74.25 94.49C74.31 94.43 74.45 94.3 74.55 94.21C74.68 94.21 74.9 94.25 74.99 94.26C75.69 94.36 76.66 94.48 77.52 93.86C78.39 93.23 78.56 92.27 78.69 91.56C78.7 91.48 78.74 91.27 78.77 91.14C78.88 91.07 79.05 90.98 79.14 90.93C79.74 90.61 80.64 90.13 80.98 89.1C81.06 88.86 81.1 88.61 81.1 88.36C81.1 87.66 80.82 87.07 80.58 86.59C80.54 86.51 80.44 86.29 80.39 86.17C80.44 86.05 80.54 85.84 80.58 85.74C80.81 85.26 81.09 84.67 81.09 83.97C81.09 83.71 81.05 83.46 80.97 83.23C80.63 82.2 79.77 81.74 79.13 81.4C78.96 81.31 78.84 81.24 78.77 81.2C78.74 81.08 78.7 80.88 78.68 80.78C78.55 80.08 78.38 79.12 77.51 78.49C76.65 77.86 75.68 77.99 74.97 78.09C74.89 78.1 74.67 78.13 74.54 78.14C74.44 78.06 74.3 77.92 74.24 77.86C73.72 77.36 73.01 76.68 71.92 76.68C70.83 76.68 70.08 77.39 69.59 77.87C69.53 77.92 69.39 78.06 69.29 78.15C69.16 78.15 68.95 78.11 68.85 78.1C68.15 78 67.18 77.87 66.32 78.5C65.45 79.13 65.28 80.09 65.15 80.8C65.12 80.99 65.09 81.13 65.07 81.22C64.96 81.29 64.78 81.39 64.7 81.43C64.07 81.77 63.2 82.23 62.87 83.26C62.79 83.5 62.75 83.75 62.75 84C62.75 84.7 63.03 85.29 63.26 85.77C63.36 85.97 63.42 86.11 63.45 86.2C63.4 86.32 63.3 86.53 63.25 86.63C63.02 87.1 62.74 87.69 62.74 88.39V88.37ZM65.17 82.3C65.56 82.09 65.76 81.97 65.87 81.84C65.88 81.82 65.9 81.8 65.91 81.78C65.99 81.65 66.04 81.46 66.14 80.96C66.25 80.37 66.37 79.7 66.91 79.31C67.44 78.92 68.11 79.01 68.71 79.09C69.17 79.15 69.41 79.17 69.59 79.12C69.61 79.12 69.64 79.11 69.66 79.1C69.81 79.04 69.97 78.9 70.29 78.59C70.71 78.19 71.23 77.69 71.91 77.69C72.59 77.69 73.09 78.17 73.53 78.59C73.84 78.89 74.01 79.04 74.17 79.11C74.19 79.11 74.22 79.13 74.24 79.13C74.41 79.18 74.63 79.16 75.11 79.09C75.7 79.01 76.38 78.92 76.91 79.31C77.45 79.7 77.57 80.37 77.68 80.98C77.76 81.43 77.81 81.64 77.91 81.79C77.92 81.81 77.94 81.83 77.95 81.84C78.05 81.96 78.21 82.06 78.65 82.3C79.21 82.6 79.79 82.91 80 83.55C80.04 83.69 80.07 83.83 80.07 83.98C80.07 84.45 79.86 84.88 79.65 85.32C79.44 85.75 79.35 85.98 79.35 86.19C79.35 86.38 79.45 86.61 79.66 87.05C79.86 87.47 80.07 87.91 80.07 88.38C80.07 88.53 80.05 88.67 80 88.81C79.79 89.45 79.16 89.79 78.64 90.07C78.24 90.28 78.06 90.39 77.95 90.53C77.93 90.55 77.92 90.57 77.91 90.59C77.82 90.74 77.77 90.95 77.69 91.41C77.58 92.03 77.46 92.67 76.92 93.06C76.39 93.45 75.72 93.36 75.12 93.28C74.66 93.22 74.42 93.2 74.24 93.25C74.22 93.25 74.2 93.26 74.17 93.27C74.02 93.33 73.86 93.47 73.54 93.78C73.08 94.22 72.6 94.68 71.92 94.68C71.24 94.68 70.72 94.18 70.3 93.78C69.98 93.48 69.82 93.33 69.66 93.26C69.64 93.26 69.62 93.24 69.6 93.24C69.54 93.22 69.47 93.21 69.38 93.21C69.24 93.21 69.04 93.23 68.73 93.27C68.14 93.35 67.47 93.44 66.93 93.05C66.39 92.66 66.27 91.99 66.16 91.4C66.08 90.95 66.03 90.72 65.93 90.57C65.92 90.55 65.9 90.53 65.89 90.51C65.78 90.38 65.6 90.27 65.19 90.06C64.66 89.78 64.05 89.45 63.84 88.81C63.8 88.68 63.77 88.53 63.77 88.38C63.77 87.91 63.98 87.48 64.19 87.04C64.4 86.6 64.49 86.39 64.49 86.17C64.49 85.98 64.39 85.75 64.18 85.31C63.98 84.89 63.77 84.45 63.77 83.98C63.77 83.83 63.79 83.69 63.84 83.55C64.05 82.91 64.65 82.59 65.19 82.3H65.17Z" fill="#0E1721"/>
</svg>
