<svg xmlns="http://www.w3.org/2000/svg" width="100" height="100" viewBox="0 0 100 100" fill="none">
  <path d="M49.95 7.53998C26.54 7.53998 7.48999 26.59 7.48999 50C7.48999 73.41 26.54 92.46 49.95 92.46C73.36 92.46 92.41 73.41 92.41 50C92.41 26.59 73.36 7.53998 49.95 7.53998ZM49.95 90.74C27.49 90.74 9.20999 72.46 9.20999 50C9.20999 27.54 27.48 9.25998 49.95 9.25998C72.42 9.25998 90.69 27.54 90.69 50C90.69 72.46 72.41 90.74 49.95 90.74Z" fill="#2D557F"/>
  <path d="M50 0C22.43 0 0 22.43 0 50C0 77.57 22.43 100 50 100C77.57 100 100 77.57 100 50C100 22.43 77.57 0 50 0ZM50 98.28C23.38 98.28 1.72 76.62 1.72 50C1.72 23.38 23.38 1.72 50 1.72C76.62 1.72 98.28 23.38 98.28 50C98.28 76.62 76.62 98.28 50 98.28Z" fill="#4279B6"/>
  <path d="M69.11 58.42C68.64 58.42 68.25 58.8 68.25 59.28C68.25 59.39 67.45 70.47 54.67 70.47C49.7 70.47 45.93 69.21 43.46 66.71C40.51 63.73 39.71 59.34 39.5 55.38H56.67C57.14 55.38 57.53 55 57.53 54.52C57.53 54.04 57.15 53.66 56.67 53.66H39.44C39.42 52.7 39.42 51.77 39.44 50.93C39.44 50.48 39.44 50.05 39.44 49.64V49.58C39.44 48.62 39.44 47.52 39.48 46.34H56.32C56.79 46.34 57.18 45.95 57.18 45.48C57.18 45.01 56.8 44.62 56.32 44.62H39.57C39.75 42.03 40.18 39.22 41.25 36.77C43.37 31.88 47.43 29.51 53.65 29.51C67.59 29.51 68.23 40.26 68.25 40.73C68.27 41.19 68.65 41.55 69.11 41.55C69.12 41.55 69.13 41.55 69.14 41.55C69.61 41.53 69.98 41.13 69.97 40.66C69.97 40.53 69.82 37.37 67.72 34.2C64.22 28.9 58.14 27.79 53.66 27.79C46.78 27.79 42.07 30.58 39.68 36.09C38.5 38.81 38.04 41.85 37.85 44.62H30.79C30.32 44.62 29.93 45 29.93 45.48C29.93 45.96 30.31 46.34 30.79 46.34H37.77C37.73 47.51 37.73 48.61 37.73 49.58V49.64C37.73 50.04 37.73 50.47 37.73 50.91C37.73 51.75 37.73 52.69 37.73 53.66H31.14C30.67 53.66 30.28 54.04 30.28 54.52C30.28 55 30.66 55.38 31.14 55.38H37.79C38.01 59.66 38.88 64.52 42.26 67.92C45.07 70.75 49.25 72.19 54.69 72.19C61.7 72.19 65.44 69.04 67.34 66.39C69.49 63.4 69.98 60.17 69.98 59.28C69.98 58.81 69.6 58.42 69.12 58.42H69.11Z" fill="#4279B6"/>
</svg>
