<svg xmlns="http://www.w3.org/2000/svg" width="100" height="100" viewBox="0 0 100 100" fill="none">
  <path d="M49.95 7.53998C26.54 7.53998 7.48999 26.59 7.48999 50C7.48999 73.41 26.54 92.46 49.95 92.46C73.36 92.46 92.41 73.41 92.41 50C92.41 26.59 73.36 7.53998 49.95 7.53998ZM49.95 90.74C27.49 90.74 9.20999 72.46 9.20999 50C9.20999 27.54 27.48 9.25998 49.95 9.25998C72.42 9.25998 90.69 27.54 90.69 50C90.69 72.46 72.41 90.74 49.95 90.74Z" fill="#2D557F"/>
  <path d="M50 0C22.43 0 0 22.43 0 50C0 77.57 22.43 100 50 100C77.57 100 100 77.57 100 50C100 22.43 77.57 0 50 0ZM50 98.28C23.38 98.28 1.72 76.62 1.72 50C1.72 23.38 23.38 1.72 50 1.72C76.62 1.72 98.28 23.38 98.28 50C98.28 76.62 76.62 98.28 50 98.28Z" fill="#4279B6"/>
  <path d="M65.7199 26.62C65.3099 26.38 64.7799 26.51 64.5399 26.92L64.2799 27.36L49.9399 51.64L35.6999 27.36L35.4499 26.93C35.2099 26.52 34.6799 26.38 34.2699 26.62C33.8599 26.86 33.7199 27.39 33.9599 27.8L49.1299 53.67V54.05H36.9599C36.4899 54.05 36.0999 54.43 36.0999 54.91C36.0999 55.39 36.4799 55.77 36.9599 55.77H49.1299V61.73H36.9599C36.4899 61.73 36.0999 62.11 36.0999 62.59C36.0999 63.07 36.4799 63.45 36.9599 63.45H49.1299V72.52C49.1299 72.99 49.5099 73.38 49.9899 73.38C50.4699 73.38 50.8499 73 50.8499 72.52V63.45H63.0199C63.4899 63.45 63.8799 63.06 63.8799 62.59C63.8799 62.12 63.4999 61.73 63.0199 61.73H50.8499V55.77H63.0199C63.4899 55.77 63.8799 55.38 63.8799 54.91C63.8799 54.44 63.4999 54.05 63.0199 54.05H50.8499V53.49L66.0199 27.81C66.2599 27.4 66.1299 26.87 65.7199 26.63V26.62Z" fill="#4279B6"/>
</svg>
