<svg xmlns="http://www.w3.org/2000/svg" width="100" height="100" viewBox="0 0 100 100" fill="none">
  <path d="M50 99.14C77.1393 99.14 99.14 77.1393 99.14 50C99.14 22.8607 77.1393 0.859985 50 0.859985C22.8607 0.859985 0.859985 22.8607 0.859985 50C0.859985 77.1393 22.8607 99.14 50 99.14Z" fill="#3C8645"/>
  <path d="M50 100C22.43 100 0 77.57 0 50C0 22.43 22.43 0 50 0C77.57 0 100 22.43 100 50C100 77.57 77.57 100 50 100ZM50 1.72C23.38 1.72 1.72 23.38 1.72 50C1.72 76.62 23.38 98.28 50 98.28C76.62 98.28 98.28 76.62 98.28 50C98.28 23.38 76.62 1.72 50 1.72Z" fill="#0E1721"/>
  <path d="M50 94.34C74.4883 94.34 94.34 74.4883 94.34 50C94.34 25.5117 74.4883 5.65997 50 5.65997C25.5117 5.65997 5.66003 25.5117 5.66003 50C5.66003 74.4883 25.5117 94.34 50 94.34Z" fill="#4279B6"/>
  <path d="M50 95.2C25.08 95.2 4.80005 74.93 4.80005 50C4.80005 25.07 25.08 4.79999 50 4.79999C74.9201 4.79999 95.2 25.07 95.2 50C95.2 74.93 74.9301 95.2 50 95.2ZM50 6.51999C26.0301 6.51999 6.52005 26.03 6.52005 50C6.52005 73.97 26.0201 93.48 50 93.48C73.98 93.48 93.48 73.98 93.48 50C93.48 26.02 73.97 6.51999 50 6.51999Z" fill="#0E1721"/>
  <path d="M66.62 59.28C65.58 59.28 64.73 60.12 64.73 61.17C64.73 61.47 64.65 68.45 59.45 68.45C55.51 68.45 53.44 66.65 51.24 64.74C49.49 63.22 47.54 61.53 44.72 61.05C44.11 57.68 43.66 54.59 43.38 51.77H58.37C59.41 51.77 60.26 50.92 60.26 49.88C60.26 48.84 59.41 47.99 58.37 47.99H43.09C42.72 40.66 43.68 35.56 45.98 32.79C47.58 30.85 49.95 29.91 53.22 29.91C56.49 29.91 59.14 30.86 61 32.74C64.34 36.1 64.34 41.45 64.34 41.49C64.33 42.53 65.16 43.39 66.21 43.41C66.21 43.41 66.23 43.41 66.24 43.41C67.27 43.41 68.12 42.58 68.13 41.54C68.13 41.26 68.17 34.61 63.72 30.1C61.12 27.47 57.59 26.13 53.23 26.13C48.87 26.13 45.41 27.56 43.08 30.38C40.14 33.93 38.89 39.66 39.3 47.99H33.29C32.25 47.99 31.4 48.84 31.4 49.88C31.4 50.92 32.25 51.77 33.29 51.77H39.58C39.86 54.62 40.3 57.73 40.9 61.11C38.92 61.48 37.28 62.35 36 63.73C32.94 67.02 33.27 71.95 33.29 72.16C33.36 73.15 34.19 73.91 35.17 73.91C35.21 73.91 35.26 73.91 35.3 73.91C36.34 73.84 37.12 72.93 37.05 71.89C37.05 71.86 36.84 68.36 38.78 66.29C39.78 65.22 41.2 64.7 43.13 64.7C45.43 64.7 46.9 65.98 48.76 67.6C51.14 69.67 54.09 72.24 59.45 72.24C66.59 72.24 68.5 65.01 68.51 61.19C68.51 60.15 67.67 59.3 66.62 59.29V59.28Z" fill="white"/>
  <path d="M35.16 74.41C33.91 74.41 32.86 73.43 32.76 72.18C32.74 71.96 32.4 66.82 35.61 63.36C36.85 62.02 38.43 61.13 40.29 60.69C39.76 57.66 39.36 54.83 39.09 52.26H33.27C31.94 52.26 30.86 51.18 30.86 49.85C30.86 48.52 31.94 47.44 33.27 47.44H38.74C38.41 39.31 39.69 33.61 42.66 30.01C45.09 27.07 48.64 25.57 53.21 25.57C57.78 25.57 61.37 26.96 64.07 29.69C68.67 34.35 68.63 41.21 68.62 41.5C68.6 42.81 67.52 43.87 66.21 43.87C66.21 43.87 66.17 43.87 66.16 43.87C65.53 43.87 64.93 43.6 64.48 43.14C64.03 42.68 63.79 42.07 63.8 41.43C63.8 41.38 63.78 36.23 60.61 33.05C58.85 31.28 56.35 30.38 53.19 30.38C50.03 30.38 47.85 31.26 46.35 33.07C44.2 35.67 43.26 40.5 43.56 47.43H58.34C59.67 47.43 60.75 48.51 60.75 49.84C60.75 51.17 59.67 52.25 58.34 52.25H43.93C44.2 54.81 44.61 57.6 45.14 60.58C47.92 61.16 49.84 62.84 51.55 64.32C53.76 66.24 55.67 67.91 59.42 67.91C64.11 67.91 64.19 61.42 64.19 61.15C64.19 59.83 65.27 58.75 66.6 58.75C67.24 58.75 67.85 59 68.3 59.46C68.75 59.92 69 60.52 69 61.16C68.99 65.16 66.97 72.72 59.42 72.72C53.87 72.72 50.83 70.07 48.39 67.95C46.55 66.35 45.22 65.19 43.12 65.18C43.11 65.18 43.1 65.18 43.09 65.18C41.33 65.18 40.03 65.65 39.13 66.61C37.36 68.5 37.54 71.79 37.54 71.82C37.63 73.14 36.63 74.29 35.31 74.38C35.25 74.38 35.19 74.38 35.14 74.38L35.16 74.41ZM33.28 48.49C32.52 48.49 31.9 49.11 31.9 49.87C31.9 50.63 32.52 51.25 33.28 51.25H39.57C39.84 51.25 40.06 51.45 40.08 51.72C40.35 54.52 40.8 57.65 41.4 61.02C41.45 61.3 41.26 61.57 40.99 61.62C39.12 61.96 37.57 62.79 36.37 64.08C33.46 67.21 33.78 71.92 33.79 72.12C33.85 72.87 34.5 73.44 35.26 73.39C36.01 73.34 36.58 72.68 36.53 71.92C36.53 71.88 36.3 68.17 38.39 65.94C39.49 64.76 41.04 64.19 43.1 64.18C43.1 64.18 43.1 64.18 43.11 64.18C45.61 64.18 47.21 65.58 49.08 67.2C51.39 69.21 54.27 71.72 59.43 71.72C66.17 71.72 67.97 64.83 67.98 61.19C67.98 60.82 67.84 60.48 67.58 60.22C67.32 59.96 66.98 59.82 66.61 59.81C65.85 59.81 65.24 60.43 65.23 61.18C65.23 61.39 65.2 63.25 64.51 65.11C63.56 67.64 61.81 68.97 59.44 68.97C55.31 68.97 53.06 67.02 50.9 65.13C49.22 63.67 47.32 62.02 44.64 61.56C44.43 61.52 44.26 61.36 44.22 61.14C43.61 57.78 43.16 54.65 42.87 51.82C42.86 51.67 42.9 51.53 43 51.42C43.1 51.31 43.24 51.25 43.38 51.25H58.37C59.13 51.25 59.75 50.63 59.75 49.87C59.75 49.11 59.13 48.49 58.37 48.49H43.09C42.82 48.49 42.59 48.27 42.57 48C42.19 40.55 43.2 35.31 45.58 32.44C47.29 30.38 49.78 29.38 53.21 29.38C56.64 29.38 59.4 30.38 61.36 32.36C64.84 35.87 64.85 41.43 64.85 41.48C64.85 41.85 64.98 42.2 65.24 42.46C65.5 42.72 65.84 42.87 66.21 42.88C66.98 42.88 67.59 42.27 67.6 41.52C67.6 41.25 67.64 34.8 63.34 30.45C60.84 27.92 57.43 26.63 53.22 26.63C49.01 26.63 45.69 28 43.47 30.69C40.6 34.15 39.41 39.8 39.81 47.95C39.81 48.09 39.77 48.23 39.67 48.33C39.57 48.43 39.44 48.49 39.3 48.49H33.29H33.28Z" fill="#0E1721"/>
</svg>
