<svg xmlns="http://www.w3.org/2000/svg" width="100" height="100" viewBox="0 0 100 100" fill="none">
  <path d="M50 99.14C77.1393 99.14 99.14 77.1393 99.14 50C99.14 22.8607 77.1393 0.859985 50 0.859985C22.8607 0.859985 0.859985 22.8607 0.859985 50C0.859985 77.1393 22.8607 99.14 50 99.14Z" fill="#3C8645"/>
  <path d="M50 100C22.43 100 0 77.57 0 50C0 22.43 22.43 0 50 0C77.57 0 100 22.43 100 50C100 77.57 77.57 100 50 100ZM50 1.72C23.38 1.72 1.72 23.38 1.72 50C1.72 76.62 23.38 98.28 50 98.28C76.62 98.28 98.28 76.62 98.28 50C98.28 23.38 76.62 1.72 50 1.72Z" fill="#0E1721"/>
  <path d="M50 94.34C74.4883 94.34 94.34 74.4883 94.34 50C94.34 25.5117 74.4883 5.65997 50 5.65997C25.5117 5.65997 5.65997 25.5117 5.65997 50C5.65997 74.4883 25.5117 94.34 50 94.34Z" fill="#4279B6"/>
  <path d="M50 95.2C25.08 95.2 4.79999 74.93 4.79999 50C4.79999 25.07 25.08 4.79999 50 4.79999C74.92 4.79999 95.2 25.07 95.2 50C95.2 74.93 74.93 95.2 50 95.2ZM50 6.51999C26.03 6.51999 6.51999 26.03 6.51999 50C6.51999 73.97 26.02 93.48 50 93.48C73.98 93.48 93.48 73.98 93.48 50C93.48 26.02 73.97 6.51999 50 6.51999Z" fill="#0E1721"/>
  <path d="M50.07 81.5C48.74 81.5 47.66 80.42 47.66 79.09V73.7C44.99 73.36 42.24 72.53 40.07 71.38C35.47 68.95 33.05 65.14 33.05 60.37C33.05 59.04 34.13 57.96 35.46 57.96C36.79 57.96 37.87 59.04 37.87 60.37C37.87 63.35 39.45 65.66 42.56 67.24C45.4 68.67 48.62 69.06 50.08 69.06C52.01 69.06 55.19 68.63 57.79 67.41C60.72 66.03 62.15 64.07 62.15 61.41C62.15 56.25 57.32 54.35 49.35 51.84C42.44 49.66 34.61 47.19 34.61 39.49C34.61 31.79 39.23 26.91 47.67 26.18V20.93C47.67 19.6 48.75 18.52 50.08 18.52C51.41 18.52 52.49 19.6 52.49 20.93V26.21C65.03 27.56 65.74 39.25 65.74 39.38C65.8 40.7 64.78 41.83 63.45 41.9C62.12 41.94 60.99 40.92 60.93 39.62C60.93 39.53 60.79 37.31 59.37 35.14C57.53 32.33 54.41 30.9 50.08 30.9C40.53 30.9 39.42 35.81 39.42 39.5C39.42 43.39 43.72 45.03 50.8 47.26C58 49.53 66.96 52.35 66.96 61.42C66.96 69.04 59.91 73.02 52.48 73.76V79.11C52.48 80.44 51.4 81.52 50.07 81.52V81.5Z" fill="white"/>
  <path d="M50.07 82.01C48.46 82.01 47.15 80.7 47.15 79.09V74.15C44.55 73.77 41.91 72.94 39.84 71.84C35.07 69.31 32.54 65.35 32.54 60.37C32.54 58.76 33.85 57.45 35.46 57.45C37.07 57.45 38.38 58.76 38.38 60.37C38.38 63.14 39.86 65.3 42.79 66.78C45.54 68.17 48.66 68.54 50.07 68.54C51.95 68.54 55.04 68.12 57.56 66.93C60.29 65.65 61.62 63.83 61.62 61.39C61.62 56.58 56.92 54.75 49.18 52.32C42.1 50.09 34.07 47.56 34.07 39.48C34.07 31.4 38.7 26.59 47.13 25.7V20.92C47.13 19.31 48.44 18 50.05 18C51.66 18 52.97 19.31 52.97 20.92V25.75C65.5 27.38 66.22 39.23 66.22 39.35C66.3 40.96 65.05 42.33 63.44 42.41C61.82 42.46 60.46 41.22 60.38 39.64C60.38 39.55 60.25 37.47 58.9 35.41C57.16 32.75 54.18 31.4 50.04 31.4C41.05 31.4 39.9 35.72 39.9 39.49C39.9 43.03 44.06 44.6 50.92 46.76C58.28 49.08 67.44 51.97 67.44 61.41C67.44 69.6 59.75 73.4 52.96 74.21V79.1C52.96 80.71 51.65 82.02 50.04 82.02L50.07 82.01ZM35.46 58.48C34.42 58.48 33.57 59.33 33.57 60.37C33.57 64.94 35.9 68.59 40.32 70.93C42.41 72.04 45.11 72.86 47.73 73.19C47.99 73.22 48.18 73.44 48.18 73.7V79.09C48.18 80.13 49.03 80.98 50.07 80.98C51.11 80.98 51.96 80.13 51.96 79.09V73.74C51.96 73.48 52.16 73.25 52.42 73.23C58.88 72.58 66.43 69.09 66.43 61.4C66.43 52.72 57.67 49.95 50.63 47.73C43.33 45.43 38.89 43.72 38.89 39.48C38.89 37.23 38.89 30.36 50.06 30.36C54.57 30.36 57.84 31.86 59.78 34.83C61.27 37.12 61.42 39.47 61.42 39.57C61.47 40.59 62.36 41.4 63.41 41.37C64.44 41.32 65.25 40.43 65.2 39.39C65.2 39.28 64.45 28.01 52.41 26.71C52.15 26.68 51.95 26.46 51.95 26.2V20.92C51.95 19.88 51.1 19.03 50.06 19.03C49.02 19.03 48.17 19.88 48.17 20.92V26.17C48.17 26.44 47.97 26.66 47.7 26.68C39.46 27.39 35.11 31.82 35.11 39.48C35.11 47.14 42.75 49.21 49.49 51.34C57.68 53.92 62.65 55.88 62.65 61.4C62.65 64.28 61.13 66.4 58 67.87C55.32 69.13 52.05 69.57 50.07 69.57C48.57 69.57 45.24 69.18 42.32 67.7C39.02 66.03 37.35 63.57 37.35 60.37C37.35 59.33 36.5 58.48 35.46 58.48Z" fill="#0E1721"/>
</svg>
