<svg xmlns="http://www.w3.org/2000/svg" width="100" height="100" viewBox="0 0 100 100" fill="none">
  <path d="M50 99.14C77.1393 99.14 99.14 77.1393 99.14 50C99.14 22.8607 77.1393 0.859985 50 0.859985C22.8607 0.859985 0.859985 22.8607 0.859985 50C0.859985 77.1393 22.8607 99.14 50 99.14Z" fill="#3C8645"/>
  <path d="M50 100C22.43 100 0 77.57 0 50C0 22.43 22.43 0 50 0C77.57 0 100 22.43 100 50C100 77.57 77.57 100 50 100ZM50 1.72C23.38 1.72 1.72 23.38 1.72 50C1.72 76.62 23.38 98.28 50 98.28C76.62 98.28 98.28 76.62 98.28 50C98.28 23.38 76.62 1.72 50 1.72Z" fill="#0E1721"/>
  <path d="M50 94.34C74.4883 94.34 94.34 74.4883 94.34 50C94.34 25.5117 74.4883 5.65997 50 5.65997C25.5117 5.65997 5.66003 25.5117 5.66003 50C5.66003 74.4883 25.5117 94.34 50 94.34Z" fill="#4279B6"/>
  <path d="M50 95.2C25.08 95.2 4.80005 74.93 4.80005 50C4.80005 25.07 25.08 4.79999 50 4.79999C74.9201 4.79999 95.2 25.07 95.2 50C95.2 74.93 74.9301 95.2 50 95.2ZM50 6.51999C26.0301 6.51999 6.52005 26.03 6.52005 50C6.52005 73.97 26.0201 93.48 50 93.48C73.98 93.48 93.48 73.98 93.48 50C93.48 26.02 73.97 6.51999 50 6.51999Z" fill="#0E1721"/>
  <path d="M66.2501 25.73C65.3501 25.2 64.1901 25.5 63.6601 26.4L49.9501 49.61L36.3401 26.41C35.8101 25.51 34.6501 25.21 33.7501 25.74C32.8501 26.27 32.5501 27.43 33.0801 28.33L47.5601 53.02H36.9701C35.9301 53.02 35.0801 53.87 35.0801 54.91C35.0801 55.95 35.9301 56.8 36.9701 56.8H48.1101V60.7H36.9701C35.9301 60.7 35.0801 61.55 35.0801 62.59C35.0801 63.63 35.9301 64.48 36.9701 64.48H48.1101V72.52C48.1101 73.56 48.9601 74.41 50.0001 74.41C51.0401 74.41 51.8901 73.56 51.8901 72.52V64.48H63.0301C64.0701 64.48 64.9201 63.63 64.9201 62.59C64.9201 61.55 64.0701 60.7 63.0301 60.7H51.8901V56.8H63.0301C64.0701 56.8 64.9201 55.95 64.9201 54.91C64.9201 53.87 64.0701 53.02 63.0301 53.02H52.3401L66.9201 28.33C67.4501 27.43 67.1501 26.27 66.2501 25.74V25.73Z" fill="white"/>
  <path d="M50.0001 74.91C48.6701 74.91 47.5901 73.83 47.5901 72.5V64.98H36.9701C35.6401 64.98 34.5601 63.9 34.5601 62.57C34.5601 61.24 35.6401 60.16 36.9701 60.16H47.5901V57.29H36.9701C35.6401 57.29 34.5601 56.21 34.5601 54.88C34.5601 53.55 35.6401 52.47 36.9701 52.47H46.6601L32.6401 28.55C32.3101 28 32.2301 27.35 32.3901 26.73C32.5501 26.11 32.9501 25.59 33.5001 25.26C34.0501 24.93 34.7001 24.84 35.3201 25.01C35.9401 25.17 36.4601 25.57 36.7901 26.12L49.9501 48.57L63.2101 26.11C63.8801 24.97 65.3601 24.59 66.5101 25.26C67.6501 25.93 68.0301 27.41 67.3601 28.56L53.2401 52.47H63.0301C64.3601 52.47 65.4401 53.55 65.4401 54.88C65.4401 56.21 64.3601 57.29 63.0301 57.29H52.4101V60.16H63.0301C64.3601 60.16 65.4401 61.24 65.4401 62.57C65.4401 63.9 64.3601 64.98 63.0301 64.98H52.4101V72.5C52.4101 73.83 51.3301 74.91 50.0001 74.91ZM36.9701 61.2C36.2101 61.2 35.5901 61.82 35.5901 62.58C35.5901 63.34 36.2101 63.96 36.9701 63.96H48.1101C48.3901 63.96 48.6301 64.19 48.6301 64.48V72.52C48.6301 73.28 49.2501 73.9 50.0101 73.9C50.7701 73.9 51.3901 73.28 51.3901 72.52V64.48C51.3901 64.2 51.6201 63.96 51.9101 63.96H63.0501C63.8101 63.96 64.4301 63.34 64.4301 62.58C64.4301 61.82 63.8101 61.2 63.0501 61.2H51.9101C51.6301 61.2 51.3901 60.97 51.3901 60.68V56.78C51.3901 56.5 51.6201 56.26 51.9101 56.26H63.0501C63.8101 56.26 64.4301 55.64 64.4301 54.88C64.4301 54.12 63.8101 53.5 63.0501 53.5H52.3601C52.1701 53.5 52.0001 53.4 51.9101 53.24C51.8201 53.08 51.8201 52.88 51.9101 52.72L66.4901 28.03C66.8801 27.38 66.6601 26.53 66.0101 26.15C65.3601 25.76 64.5101 25.98 64.1301 26.63L50.4201 49.84C50.3301 50 50.1601 50.09 49.9801 50.09C49.8001 50.09 49.6301 49.99 49.5401 49.84L35.9301 26.64C35.7401 26.32 35.4501 26.1 35.0901 26C34.7301 25.91 34.3601 25.96 34.0501 26.14C33.7301 26.33 33.5101 26.62 33.4101 26.98C33.3201 27.34 33.3701 27.71 33.5501 28.02L48.0301 52.71C48.1201 52.87 48.1201 53.07 48.0301 53.23C47.9401 53.39 47.7701 53.49 47.5801 53.49H36.9901C36.2301 53.49 35.6101 54.11 35.6101 54.87C35.6101 55.63 36.2301 56.25 36.9901 56.25H48.1301C48.4101 56.25 48.6501 56.48 48.6501 56.77V60.67C48.6501 60.95 48.4201 61.19 48.1301 61.19H36.9901L36.9701 61.2Z" fill="#0E1721"/>
</svg>
