<svg xmlns="http://www.w3.org/2000/svg" width="100" height="100" viewBox="0 0 100 100" fill="none">
  <path d="M49.95 7.53998C26.54 7.53998 7.48999 26.59 7.48999 50C7.48999 73.41 26.54 92.46 49.95 92.46C73.36 92.46 92.41 73.41 92.41 50C92.41 26.59 73.36 7.53998 49.95 7.53998ZM49.95 90.74C27.49 90.74 9.20999 72.46 9.20999 50C9.20999 27.54 27.48 9.25998 49.95 9.25998C72.42 9.25998 90.69 27.54 90.69 50C90.69 72.46 72.41 90.74 49.95 90.74Z" fill="#2D557F"/>
  <path d="M50 0C22.43 0 0 22.43 0 50C0 77.57 22.43 100 50 100C77.57 100 100 77.57 100 50C100 22.43 77.57 0 50 0ZM50 98.28C23.38 98.28 1.72 76.62 1.72 50C1.72 23.38 23.38 1.72 50 1.72C76.62 1.72 98.28 23.38 98.28 50C98.28 76.62 76.62 98.28 50 98.28Z" fill="#4279B6"/>
  <path d="M66.62 60.31C66.15 60.31 65.76 60.69 65.76 61.17C65.76 61.2 65.76 61.32 65.75 61.47C65.68 62.95 65.06 69.47 59.45 69.47C55.76 69.47 53.53 68 51.56 66.35C51.22 66.07 50.89 65.78 50.56 65.5C48.73 63.9 46.82 62.27 43.99 61.99C43.94 61.99 43.9 61.99 43.85 61.98C43.07 57.82 42.54 54.07 42.24 50.72H58.36C58.83 50.72 59.22 50.34 59.22 49.86C59.22 49.38 58.84 49 58.36 49H42.1C41.56 40.83 42.58 35.25 45.18 32.11C46.99 29.92 49.62 28.86 53.21 28.86C56.8 28.86 59.67 29.92 61.73 32C65.37 35.68 65.35 41.43 65.35 41.48C65.35 41.71 65.44 41.92 65.58 42.07C65.73 42.24 65.95 42.35 66.2 42.35H66.21C66.68 42.35 67.06 41.97 67.07 41.5C67.07 41.24 67.11 35 62.96 30.8C60.56 28.37 57.28 27.14 53.2 27.14C49.12 27.14 46 28.41 43.84 31.01C40.94 34.52 39.79 40.36 40.35 49H33.25C32.78 49 32.39 49.38 32.39 49.86C32.39 50.34 32.77 50.72 33.25 50.72H40.48C40.77 54.08 41.31 57.84 42.08 62.01C39.86 62.2 38.05 62.98 36.72 64.41C33.97 67.38 34.26 71.87 34.28 72.06C34.31 72.51 34.69 72.86 35.14 72.86C35.16 72.86 35.18 72.86 35.2 72.86C35.67 72.83 36.03 72.41 36 71.94C36 71.94 36 71.85 36 71.71C35.98 70.85 36.06 67.66 38 65.58C39.19 64.3 40.91 63.65 43.11 63.65C45.8 63.65 47.47 65.11 49.42 66.8C49.5 66.87 49.58 66.94 49.66 67.01C51.97 69.01 54.63 71.2 59.43 71.2C65.76 71.2 67.45 64.64 67.46 61.18C67.46 60.71 67.08 60.32 66.6 60.32L66.62 60.31Z" fill="#4279B6"/>
</svg>
