<svg xmlns="http://www.w3.org/2000/svg" width="100" height="100" viewBox="0 0 100 100" fill="none">
  <path d="M50 99.14C77.1393 99.14 99.14 77.1393 99.14 50C99.14 22.8607 77.1393 0.859985 50 0.859985C22.8607 0.859985 0.859985 22.8607 0.859985 50C0.859985 77.1393 22.8607 99.14 50 99.14Z" fill="#3C8645"/>
  <path d="M50 100C22.43 100 0 77.57 0 50C0 22.43 22.43 0 50 0C77.57 0 100 22.43 100 50C100 77.57 77.57 100 50 100ZM50 1.72C23.38 1.72 1.72 23.38 1.72 50C1.72 76.62 23.38 98.28 50 98.28C76.62 98.28 98.28 76.62 98.28 50C98.28 23.38 76.62 1.72 50 1.72Z" fill="#0E1721"/>
  <path d="M50 94.34C74.4883 94.34 94.34 74.4883 94.34 50C94.34 25.5117 74.4883 5.65997 50 5.65997C25.5117 5.65997 5.65997 25.5117 5.65997 50C5.65997 74.4883 25.5117 94.34 50 94.34Z" fill="#4279B6"/>
  <path d="M50 95.2C25.08 95.2 4.79999 74.93 4.79999 50C4.79999 25.07 25.08 4.79999 50 4.79999C74.92 4.79999 95.2 25.07 95.2 50C95.2 74.93 74.93 95.2 50 95.2ZM50 6.51999C26.03 6.51999 6.51999 26.03 6.51999 50C6.51999 73.97 26.02 93.48 50 93.48C73.98 93.48 93.48 73.98 93.48 50C93.48 26.02 73.97 6.51999 50 6.51999Z" fill="#0E1721"/>
  <path d="M67.1 57.39C66.06 57.39 65.21 58.24 65.21 59.28C65.21 59.38 64.47 69.44 52.67 69.44C47.99 69.44 44.47 68.28 42.19 65.99C39.71 63.49 38.86 59.91 38.58 56.41H54.66C55.7 56.41 56.55 55.56 56.55 54.52C56.55 53.48 55.7 52.63 54.66 52.63H38.44C38.44 52.05 38.44 51.48 38.44 50.94C38.44 50.49 38.44 50.05 38.44 49.64V49.58C38.44 48.91 38.44 48.16 38.45 47.38H54.29C55.33 47.38 56.18 46.53 56.18 45.49C56.18 44.45 55.33 43.6 54.29 43.6H38.65C38.87 41.43 39.3 39.17 40.16 37.19C42.1 32.72 45.85 30.55 51.62 30.55C64.51 30.55 65.16 40.35 65.19 40.78C65.24 41.82 66.11 42.62 67.15 42.59C68.19 42.55 69.01 41.67 68.97 40.63C68.97 40.49 68.24 26.77 51.63 26.77C44.3 26.77 39.28 29.77 36.7 35.69C35.6 38.23 35.09 41.01 34.86 43.6H28.75C27.71 43.6 26.86 44.45 26.86 45.49C26.86 46.53 27.71 47.38 28.75 47.38H34.67C34.66 48.17 34.66 48.91 34.66 49.58V49.64C34.66 50.04 34.66 50.46 34.66 50.9C34.66 51.45 34.66 52.02 34.66 52.63H29.12C28.08 52.63 27.23 53.48 27.23 54.52C27.23 55.56 28.08 56.41 29.12 56.41H34.79C35.1 60.63 36.15 65.26 39.51 68.65C42.52 71.68 46.95 73.22 52.67 73.22C66.22 73.22 69 62.22 69 59.27C69 58.23 68.15 57.38 67.11 57.38L67.1 57.39Z" fill="white"/>
  <path d="M52.66 73.74C46.79 73.74 42.24 72.15 39.13 69.02C36.35 66.22 34.77 62.26 34.3 56.93H29.11C27.78 56.93 26.7 55.85 26.7 54.52C26.7 53.19 27.78 52.11 29.11 52.11H34.14C34.14 51.69 34.14 51.29 34.14 50.9C34.14 50.46 34.14 50.04 34.14 49.64V49.58C34.14 49.05 34.14 48.49 34.14 47.89H28.75C27.42 47.89 26.34 46.81 26.34 45.48C26.34 44.15 27.42 43.07 28.75 43.07H34.39C34.69 40.1 35.29 37.61 36.23 35.47C38.89 29.35 44.07 26.24 51.63 26.24C68.74 26.24 69.48 40.45 69.49 40.6C69.54 41.93 68.51 43.05 67.18 43.1C65.86 43.14 64.74 42.11 64.68 40.8C64.66 40.41 64.04 31.06 51.63 31.06C46.09 31.06 42.5 33.13 40.65 37.39C39.97 38.96 39.51 40.82 39.24 43.08H54.3C55.63 43.08 56.71 44.16 56.71 45.49C56.71 46.82 55.63 47.9 54.3 47.9H38.97C38.97 48.5 38.97 49.06 38.97 49.59V49.65C38.97 50.06 38.97 50.5 38.97 50.95C38.97 51.33 38.97 51.72 38.97 52.12H54.67C56 52.12 57.08 53.2 57.08 54.53C57.08 55.86 56 56.94 54.67 56.94H39.15C39.54 60.92 40.64 63.69 42.56 65.64C44.73 67.83 48.13 68.94 52.67 68.94C64.03 68.94 64.69 59.37 64.7 59.27C64.7 57.96 65.78 56.88 67.11 56.88C68.44 56.88 69.52 57.96 69.52 59.29C69.52 62.34 66.66 73.75 52.68 73.75L52.66 73.74ZM29.12 53.15C28.36 53.15 27.74 53.77 27.74 54.53C27.74 55.29 28.36 55.91 29.12 55.91H34.79C35.06 55.91 35.28 56.12 35.3 56.39C35.69 61.7 37.19 65.6 39.87 68.3C42.78 71.23 47.08 72.72 52.67 72.72C65.8 72.72 68.48 62.13 68.48 59.29C68.48 58.53 67.86 57.91 67.1 57.91C66.34 57.91 65.72 58.53 65.72 59.29C65.72 59.4 64.95 69.97 52.66 69.97C47.84 69.97 44.19 68.76 41.82 66.37C39.65 64.18 38.42 60.95 38.06 56.47C38.05 56.33 38.1 56.18 38.19 56.08C38.29 55.97 38.43 55.91 38.57 55.91H54.65C55.41 55.91 56.03 55.29 56.03 54.53C56.03 53.77 55.41 53.15 54.65 53.15H38.43C38.15 53.15 37.91 52.92 37.91 52.63C37.91 52.05 37.91 51.48 37.91 50.93C37.91 50.48 37.91 50.05 37.91 49.64V49.58C37.91 48.9 37.91 48.16 37.92 47.37C37.92 47.09 38.15 46.86 38.44 46.86H54.28C55.04 46.86 55.66 46.24 55.66 45.48C55.66 44.72 55.04 44.1 54.28 44.1H38.64C38.49 44.1 38.36 44.04 38.26 43.93C38.16 43.82 38.11 43.68 38.13 43.53C38.39 40.91 38.9 38.77 39.68 36.97C41.71 32.29 45.61 30.02 51.61 30.02C64.99 30.02 65.67 40.31 65.69 40.74C65.72 41.49 66.37 42.07 67.12 42.06C67.87 42.03 68.47 41.39 68.44 40.63C68.44 40.5 67.64 27.27 51.61 27.27C44.5 27.27 39.64 30.17 37.16 35.88C36.22 38.03 35.64 40.57 35.36 43.63C35.34 43.9 35.11 44.1 34.85 44.1H28.74C27.98 44.1 27.36 44.72 27.36 45.48C27.36 46.24 27.98 46.86 28.74 46.86H34.66C34.8 46.86 34.93 46.92 35.03 47.01C35.13 47.1 35.18 47.24 35.18 47.38C35.17 48.16 35.17 48.9 35.17 49.58V49.64C35.17 50.04 35.17 50.46 35.17 50.91C35.17 51.46 35.17 52.03 35.17 52.63C35.17 52.77 35.12 52.9 35.02 53C34.92 53.1 34.79 53.15 34.66 53.15H29.12Z" fill="#0E1721"/>
</svg>
