<svg xmlns="http://www.w3.org/2000/svg" width="100" height="100" viewBox="0 0 100 100" fill="none">
  <path d="M50 7.53998C26.59 7.53998 7.53998 26.59 7.53998 50C7.53998 73.41 26.59 92.46 50 92.46C73.41 92.46 92.46 73.41 92.46 50C92.46 26.59 73.41 7.53998 50 7.53998ZM50 90.74C27.54 90.74 9.25998 72.46 9.25998 50C9.25998 27.54 27.54 9.25998 50 9.25998C72.46 9.25998 90.74 27.54 90.74 50C90.74 72.46 72.46 90.74 50 90.74Z" fill="#2D557F"/>
  <path d="M50 0C22.43 0 0 22.43 0 50C0 77.57 22.43 100 50 100C77.57 100 100 77.57 100 50C100 22.43 77.57 0 50 0ZM50 98.28C23.38 98.28 1.72 76.62 1.72 50C1.72 23.38 23.38 1.72 50 1.72C76.62 1.72 98.28 23.38 98.28 50C98.28 76.62 76.62 98.28 50 98.28Z" fill="#4279B6"/>
  <path d="M50.8 48.86C50.64 48.81 50.48 48.76 50.32 48.71C43.91 46.69 37.86 44.78 37.86 39.47C37.86 32.74 41.97 29.32 50.06 29.32C61.78 29.32 62.43 39.1 62.46 39.51C62.46 39.69 62.54 39.84 62.64 39.97C62.81 40.19 63.06 40.33 63.36 40.32C63.83 40.3 64.2 39.89 64.18 39.42C64.18 39.3 64.01 36.41 62.19 33.5C60.58 30.92 57.29 27.91 50.92 27.64V20.89C50.92 20.42 50.54 20.03 50.06 20.03C49.58 20.03 49.2 20.41 49.2 20.89V27.62C38.45 27.94 36.14 34.18 36.14 39.46C36.14 45.8 42.61 48.06 49.11 50.12C49.34 50.19 49.57 50.27 49.81 50.34C56.95 52.59 63.69 54.71 63.69 61.38C63.69 64.66 61.92 67.15 58.44 68.78C55.61 70.11 52.16 70.58 50.07 70.58C46.5 70.58 36.32 68.7 36.32 60.35C36.32 60.16 36.24 59.99 36.14 59.84C35.98 59.63 35.75 59.49 35.46 59.49C34.99 59.49 34.6 59.87 34.6 60.35C34.6 64.51 36.74 67.85 40.8 69.99C43.64 71.49 46.92 72.14 49.21 72.27V79.07C49.21 79.54 49.59 79.93 50.07 79.93C50.55 79.93 50.93 79.55 50.93 79.07V72.27C53.27 72.16 56.44 71.61 59.17 70.33C63.25 68.41 65.41 65.32 65.41 61.37C65.41 53.62 57.75 51.03 50.81 48.84L50.8 48.86Z" fill="#4279B6"/>
</svg>
