<svg xmlns="http://www.w3.org/2000/svg" width="100" height="100" viewBox="0 0 100 100" fill="none">
  <path d="M78.9 20.89C78.9 22.07 79.86 23.03 81.04 23.03H97.06C98.24 23.03 99.2 22.07 99.2 20.89V10.39H78.9V20.9V20.89Z" fill="#3C8645"/>
  <path d="M97.06 23.83H81.04C79.42 23.83 78.1 22.51 78.1 20.89V10.39C78.1 9.95003 78.46 9.59003 78.9 9.59003H99.2C99.64 9.59003 100 9.95003 100 10.39V20.9C100 22.52 98.68 23.84 97.06 23.84V23.83ZM79.7 11.19V20.9C79.7 21.64 80.3 22.24 81.04 22.24H97.06C97.8 22.24 98.4 21.64 98.4 20.9V11.19H79.7Z" fill="#0E1721"/>
  <path d="M78.9 94.96C78.9 96.14 79.86 97.1 81.04 97.1H97.06C98.24 97.1 99.2 96.14 99.2 94.96V84.45H78.9V94.96Z" fill="#FC8B27"/>
  <path d="M97.06 97.9H81.04C79.42 97.9 78.1 96.58 78.1 94.96V84.45C78.1 84.01 78.46 83.65 78.9 83.65H99.2C99.64 83.65 100 84.01 100 84.45V94.96C100 96.58 98.68 97.9 97.06 97.9ZM79.7 85.26V94.97C79.7 95.71 80.3 96.31 81.04 96.31H97.06C97.8 96.31 98.4 95.71 98.4 94.97V85.26H79.7Z" fill="#0E1721"/>
  <path d="M61.81 69.77H55.41C54.97 69.77 54.61 69.41 54.61 68.97C54.61 68.53 54.97 68.17 55.41 68.17H61.81C63.73 68.17 65.28 66.61 65.28 64.7V35.14C65.28 33.22 63.72 31.67 61.81 31.67H55.45C55.01 31.67 54.65 31.31 54.65 30.87C54.65 30.43 55.01 30.07 55.45 30.07H61.81C64.61 30.07 66.88 32.35 66.88 35.14V64.7C66.88 67.5 64.6 69.77 61.81 69.77Z" fill="#0E1721"/>
  <path d="M78.9 89.35H74.69C69.47 89.35 65.22 85.1 65.22 79.88V19.94C65.22 14.72 69.47 10.47 74.69 10.47H78.9C79.34 10.47 79.7 10.83 79.7 11.27C79.7 11.71 79.34 12.07 78.9 12.07H74.69C70.35 12.07 66.82 15.6 66.82 19.94V79.88C66.82 84.22 70.35 87.75 74.69 87.75H78.9C79.34 87.75 79.7 88.11 79.7 88.55C79.7 88.99 79.34 89.35 78.9 89.35Z" fill="#0E1721"/>
  <path d="M98.13 3.79999H79.97C79.3791 3.79999 78.9 4.27904 78.9 4.86999V15.19C78.9 15.7809 79.3791 16.26 79.97 16.26H98.13C98.721 16.26 99.2 15.7809 99.2 15.19V4.86999C99.2 4.27904 98.721 3.79999 98.13 3.79999Z" fill="#3C8645"/>
  <path d="M97.06 17.06H81.04C79.42 17.06 78.1 15.74 78.1 14.12V5.94C78.1 4.32 79.42 3 81.04 3H97.06C98.68 3 100 4.32 100 5.94V14.13C100 15.75 98.68 17.07 97.06 17.07V17.06ZM81.04 4.6C80.3 4.6 79.7 5.2 79.7 5.94V14.13C79.7 14.87 80.3 15.47 81.04 15.47H97.06C97.8 15.47 98.4 14.87 98.4 14.13V5.94C98.4 5.2 97.8 4.6 97.06 4.6H81.04Z" fill="#0E1721"/>
  <path d="M78.9 57.93C78.9 59.11 79.86 60.07 81.04 60.07H97.06C98.24 60.07 99.2 59.11 99.2 57.93V47.42H78.9V57.93Z" fill="#FCCD2A"/>
  <path d="M97.06 60.86H81.04C79.42 60.86 78.1 59.54 78.1 57.92V47.41C78.1 46.97 78.46 46.61 78.9 46.61H99.2C99.64 46.61 100 46.97 100 47.41V57.92C100 59.54 98.68 60.86 97.06 60.86ZM79.7 48.22V57.93C79.7 58.67 80.3 59.27 81.04 59.27H97.06C97.8 59.27 98.4 58.67 98.4 57.93V48.22H79.7Z" fill="#0E1721"/>
  <path d="M78.9 50.54H66.08C65.64 50.54 65.28 50.18 65.28 49.74C65.28 49.3 65.64 48.94 66.08 48.94H78.9C79.34 48.94 79.7 49.3 79.7 49.74C79.7 50.18 79.34 50.54 78.9 50.54Z" fill="#0E1721"/>
  <path d="M22.44 40.59H22.34V43.94H22.44V40.59Z" fill="white"/>
  <path d="M28.87 40.59H28.77V43.94H28.87V40.59Z" fill="white"/>
  <path d="M35.31 40.59H35.21V43.94H35.31V40.59Z" fill="white"/>
  <path d="M22.44 55.46H22.34V58.81H22.44V55.46Z" fill="white"/>
  <path d="M28.87 55.46H28.77V58.81H28.87V55.46Z" fill="white"/>
  <path d="M35.31 55.46H35.21V58.81H35.31V55.46Z" fill="white"/>
  <path d="M0.799988 54.81V68.42C0.799988 74.13 13.03 78.76 28.12 78.76C43.21 78.76 55.44 74.13 55.44 68.42V54.81" fill="#4279B6"/>
  <path d="M28.12 79.57C12.35 79.57 0 74.67 0 68.43V54.82C0 54.38 0.36 54.02 0.8 54.02C1.24 54.02 1.6 54.38 1.6 54.82V68.43C1.6 73.04 12.26 77.98 28.12 77.98C43.98 77.98 54.64 73.04 54.64 68.43V54.82C54.64 54.38 55 54.02 55.44 54.02C55.88 54.02 56.24 54.38 56.24 54.82V68.43C56.24 74.68 43.89 79.57 28.12 79.57Z" fill="#0E1721"/>
  <path d="M0.799988 39.94V53.55C0.799988 59.26 13.03 63.89 28.12 63.89C43.21 63.89 55.44 59.26 55.44 53.55V39.94" fill="#4279B6"/>
  <path d="M28.12 64.7C12.35 64.7 0 59.8 0 53.56V39.95C0 39.51 0.36 39.15 0.8 39.15C1.24 39.15 1.6 39.51 1.6 39.95V53.56C1.6 58.17 12.26 63.11 28.12 63.11C43.98 63.11 54.64 58.17 54.64 53.56V39.95C54.64 39.51 55 39.15 55.44 39.15C55.88 39.15 56.24 39.51 56.24 39.95V53.56C56.24 59.81 43.89 64.7 28.12 64.7Z" fill="#0E1721"/>
  <path d="M0.799988 25.07V38.68C0.799988 44.39 13.03 49.02 28.12 49.02C43.21 49.02 55.44 44.39 55.44 38.68V25.07" fill="#4279B6"/>
  <path d="M28.12 49.82C12.35 49.82 0 44.92 0 38.68V25.07C0 24.63 0.36 24.27 0.8 24.27C1.24 24.27 1.6 24.63 1.6 25.07V38.68C1.6 43.29 12.26 48.23 28.12 48.23C43.98 48.23 54.64 43.29 54.64 38.68V25.07C54.64 24.63 55 24.27 55.44 24.27C55.88 24.27 56.24 24.63 56.24 25.07V38.68C56.24 44.93 43.89 49.82 28.12 49.82Z" fill="#0E1721"/>
  <path d="M28.12 35.41C43.2084 35.41 55.44 30.7806 55.44 25.07C55.44 19.3594 43.2084 14.73 28.12 14.73C13.0316 14.73 0.799988 19.3594 0.799988 25.07C0.799988 30.7806 13.0316 35.41 28.12 35.41Z" fill="#4279B6"/>
  <path d="M28.12 36.21C12.35 36.21 0 31.32 0 25.07C0 18.82 12.35 13.93 28.12 13.93C43.89 13.93 56.24 18.83 56.24 25.07C56.24 31.31 43.89 36.21 28.12 36.21ZM28.12 15.52C12.26 15.52 1.6 20.46 1.6 25.07C1.6 29.68 12.26 34.62 28.12 34.62C43.98 34.62 54.64 29.68 54.64 25.07C54.64 20.46 43.98 15.52 28.12 15.52Z" fill="#0E1721"/>
  <path d="M36.97 72.93C38.047 72.93 38.92 72.0569 38.92 70.98C38.92 69.903 38.047 69.03 36.97 69.03C35.8931 69.03 35.02 69.903 35.02 70.98C35.02 72.0569 35.8931 72.93 36.97 72.93Z" fill="white"/>
  <path d="M36.97 73.41C35.63 73.41 34.54 72.32 34.54 70.98C34.54 69.64 35.63 68.55 36.97 68.55C38.31 68.55 39.4 69.64 39.4 70.98C39.4 72.32 38.31 73.41 36.97 73.41ZM36.97 69.52C36.16 69.52 35.5 70.18 35.5 70.99C35.5 71.8 36.16 72.46 36.97 72.46C37.78 72.46 38.44 71.8 38.44 70.99C38.44 70.18 37.78 69.52 36.97 69.52Z" fill="#0E1721"/>
  <path d="M28.12 72.93C29.197 72.93 30.07 72.0569 30.07 70.98C30.07 69.903 29.197 69.03 28.12 69.03C27.0431 69.03 26.17 69.903 26.17 70.98C26.17 72.0569 27.0431 72.93 28.12 72.93Z" fill="white"/>
  <path d="M28.12 73.41C26.78 73.41 25.69 72.32 25.69 70.98C25.69 69.64 26.78 68.55 28.12 68.55C29.46 68.55 30.55 69.64 30.55 70.98C30.55 72.32 29.46 73.41 28.12 73.41ZM28.12 69.52C27.31 69.52 26.65 70.18 26.65 70.99C26.65 71.8 27.31 72.46 28.12 72.46C28.93 72.46 29.59 71.8 29.59 70.99C29.59 70.18 28.93 69.52 28.12 69.52Z" fill="#0E1721"/>
  <path d="M19.27 72.93C20.347 72.93 21.22 72.0569 21.22 70.98C21.22 69.903 20.347 69.03 19.27 69.03C18.1931 69.03 17.32 69.903 17.32 70.98C17.32 72.0569 18.1931 72.93 19.27 72.93Z" fill="white"/>
  <path d="M19.27 73.41C17.93 73.41 16.84 72.32 16.84 70.98C16.84 69.64 17.93 68.55 19.27 68.55C20.61 68.55 21.7 69.64 21.7 70.98C21.7 72.32 20.61 73.41 19.27 73.41ZM19.27 69.52C18.46 69.52 17.8 70.18 17.8 70.99C17.8 71.8 18.46 72.46 19.27 72.46C20.08 72.46 20.74 71.8 20.74 70.99C20.74 70.18 20.08 69.52 19.27 69.52Z" fill="#0E1721"/>
  <path d="M36.97 58.13C38.047 58.13 38.92 57.2569 38.92 56.18C38.92 55.103 38.047 54.23 36.97 54.23C35.8931 54.23 35.02 55.103 35.02 56.18C35.02 57.2569 35.8931 58.13 36.97 58.13Z" fill="white"/>
  <path d="M36.97 58.6C35.63 58.6 34.54 57.51 34.54 56.17C34.54 54.83 35.63 53.74 36.97 53.74C38.31 53.74 39.4 54.83 39.4 56.17C39.4 57.51 38.31 58.6 36.97 58.6ZM36.97 54.71C36.16 54.71 35.5 55.37 35.5 56.18C35.5 56.99 36.16 57.65 36.97 57.65C37.78 57.65 38.44 56.99 38.44 56.18C38.44 55.37 37.78 54.71 36.97 54.71Z" fill="#0E1721"/>
  <path d="M28.12 58.13C29.197 58.13 30.07 57.2569 30.07 56.18C30.07 55.103 29.197 54.23 28.12 54.23C27.0431 54.23 26.17 55.103 26.17 56.18C26.17 57.2569 27.0431 58.13 28.12 58.13Z" fill="white"/>
  <path d="M28.12 58.6C26.78 58.6 25.69 57.51 25.69 56.17C25.69 54.83 26.78 53.74 28.12 53.74C29.46 53.74 30.55 54.83 30.55 56.17C30.55 57.51 29.46 58.6 28.12 58.6ZM28.12 54.71C27.31 54.71 26.65 55.37 26.65 56.18C26.65 56.99 27.31 57.65 28.12 57.65C28.93 57.65 29.59 56.99 29.59 56.18C29.59 55.37 28.93 54.71 28.12 54.71Z" fill="#0E1721"/>
  <path d="M19.27 58.13C20.347 58.13 21.22 57.2569 21.22 56.18C21.22 55.103 20.347 54.23 19.27 54.23C18.1931 54.23 17.32 55.103 17.32 56.18C17.32 57.2569 18.1931 58.13 19.27 58.13Z" fill="white"/>
  <path d="M19.27 58.6C17.93 58.6 16.84 57.51 16.84 56.17C16.84 54.83 17.93 53.74 19.27 53.74C20.61 53.74 21.7 54.83 21.7 56.17C21.7 57.51 20.61 58.6 19.27 58.6ZM19.27 54.71C18.46 54.71 17.8 55.37 17.8 56.18C17.8 56.99 18.46 57.65 19.27 57.65C20.08 57.65 20.74 56.99 20.74 56.18C20.74 55.37 20.08 54.71 19.27 54.71Z" fill="#0E1721"/>
  <path d="M36.97 43.66C38.047 43.66 38.92 42.787 38.92 41.71C38.92 40.6331 38.047 39.76 36.97 39.76C35.8931 39.76 35.02 40.6331 35.02 41.71C35.02 42.787 35.8931 43.66 36.97 43.66Z" fill="white"/>
  <path d="M36.97 44.13C35.63 44.13 34.54 43.04 34.54 41.7C34.54 40.36 35.63 39.27 36.97 39.27C38.31 39.27 39.4 40.36 39.4 41.7C39.4 43.04 38.31 44.13 36.97 44.13ZM36.97 40.24C36.16 40.24 35.5 40.9 35.5 41.71C35.5 42.52 36.16 43.18 36.97 43.18C37.78 43.18 38.44 42.52 38.44 41.71C38.44 40.9 37.78 40.24 36.97 40.24Z" fill="#0E1721"/>
  <path d="M28.12 43.66C29.197 43.66 30.07 42.787 30.07 41.71C30.07 40.6331 29.197 39.76 28.12 39.76C27.0431 39.76 26.17 40.6331 26.17 41.71C26.17 42.787 27.0431 43.66 28.12 43.66Z" fill="white"/>
  <path d="M28.12 44.13C26.78 44.13 25.69 43.04 25.69 41.7C25.69 40.36 26.78 39.27 28.12 39.27C29.46 39.27 30.55 40.36 30.55 41.7C30.55 43.04 29.46 44.13 28.12 44.13ZM28.12 40.24C27.31 40.24 26.65 40.9 26.65 41.71C26.65 42.52 27.31 43.18 28.12 43.18C28.93 43.18 29.59 42.52 29.59 41.71C29.59 40.9 28.93 40.24 28.12 40.24Z" fill="#0E1721"/>
  <path d="M19.27 43.66C20.347 43.66 21.22 42.787 21.22 41.71C21.22 40.6331 20.347 39.76 19.27 39.76C18.1931 39.76 17.32 40.6331 17.32 41.71C17.32 42.787 18.1931 43.66 19.27 43.66Z" fill="white"/>
  <path d="M19.27 44.13C17.93 44.13 16.84 43.04 16.84 41.7C16.84 40.36 17.93 39.27 19.27 39.27C20.61 39.27 21.7 40.36 21.7 41.7C21.7 43.04 20.61 44.13 19.27 44.13ZM19.27 40.24C18.46 40.24 17.8 40.9 17.8 41.71C17.8 42.52 18.46 43.18 19.27 43.18C20.08 43.18 20.74 42.52 20.74 41.71C20.74 40.9 20.08 40.24 19.27 40.24Z" fill="#0E1721"/>
  <path d="M83.33 11.12C84.0535 11.12 84.64 10.5335 84.64 9.81C84.64 9.08651 84.0535 8.5 83.33 8.5C82.6065 8.5 82.02 9.08651 82.02 9.81C82.02 10.5335 82.6065 11.12 83.33 11.12Z" fill="white"/>
  <path d="M83.33 11.6C82.34 11.6 81.54 10.8 81.54 9.81002C81.54 8.82002 82.34 8.02002 83.33 8.02002C84.32 8.02002 85.12 8.82002 85.12 9.81002C85.12 10.8 84.32 11.6 83.33 11.6ZM83.33 8.99002C82.87 8.99002 82.5 9.36002 82.5 9.82002C82.5 10.28 82.87 10.65 83.33 10.65C83.79 10.65 84.16 10.28 84.16 9.82002C84.16 9.36002 83.79 8.99002 83.33 8.99002Z" fill="#0E1721"/>
  <path d="M98.13 41.19H79.97C79.3791 41.19 78.9 41.6691 78.9 42.26V52.58C78.9 53.1709 79.3791 53.65 79.97 53.65H98.13C98.721 53.65 99.2 53.1709 99.2 52.58V42.26C99.2 41.6691 98.721 41.19 98.13 41.19Z" fill="#FCCD2A"/>
  <path d="M97.06 54.45H81.04C79.42 54.45 78.1 53.13 78.1 51.51V43.32C78.1 41.7 79.42 40.38 81.04 40.38H97.06C98.68 40.38 100 41.7 100 43.32V51.51C100 53.13 98.68 54.45 97.06 54.45ZM81.04 41.99C80.3 41.99 79.7 42.59 79.7 43.33V51.52C79.7 52.26 80.3 52.86 81.04 52.86H97.06C97.8 52.86 98.4 52.26 98.4 51.52V43.33C98.4 42.59 97.8 41.99 97.06 41.99H81.04Z" fill="#0E1721"/>
  <path d="M83.33 48.52C84.0535 48.52 84.64 47.9335 84.64 47.21C84.64 46.4865 84.0535 45.9 83.33 45.9C82.6065 45.9 82.02 46.4865 82.02 47.21C82.02 47.9335 82.6065 48.52 83.33 48.52Z" fill="white"/>
  <path d="M83.33 48.99C82.34 48.99 81.54 48.19 81.54 47.2C81.54 46.21 82.34 45.41 83.33 45.41C84.32 45.41 85.12 46.21 85.12 47.2C85.12 48.19 84.32 48.99 83.33 48.99ZM83.33 46.38C82.87 46.38 82.5 46.75 82.5 47.21C82.5 47.67 82.87 48.04 83.33 48.04C83.79 48.04 84.16 47.67 84.16 47.21C84.16 46.75 83.79 46.38 83.33 46.38Z" fill="#0E1721"/>
  <path d="M98.13 78.58H79.97C79.3791 78.58 78.9 79.0591 78.9 79.65V89.97C78.9 90.561 79.3791 91.04 79.97 91.04H98.13C98.721 91.04 99.2 90.561 99.2 89.97V79.65C99.2 79.0591 98.721 78.58 98.13 78.58Z" fill="#FC8B27"/>
  <path d="M97.06 91.85H81.04C79.42 91.85 78.1 90.53 78.1 88.91V80.72C78.1 79.1 79.42 77.78 81.04 77.78H97.06C98.68 77.78 100 79.1 100 80.72V88.91C100 90.53 98.68 91.85 97.06 91.85ZM81.04 79.38C80.3 79.38 79.7 79.98 79.7 80.72V88.91C79.7 89.65 80.3 90.25 81.04 90.25H97.06C97.8 90.25 98.4 89.65 98.4 88.91V80.72C98.4 79.98 97.8 79.38 97.06 79.38H81.04Z" fill="#0E1721"/>
  <path d="M83.33 85.91C84.0535 85.91 84.64 85.3235 84.64 84.6C84.64 83.8765 84.0535 83.29 83.33 83.29C82.6065 83.29 82.02 83.8765 82.02 84.6C82.02 85.3235 82.6065 85.91 83.33 85.91Z" fill="white"/>
  <path d="M83.33 86.38C82.34 86.38 81.54 85.58 81.54 84.59C81.54 83.6 82.34 82.8 83.33 82.8C84.32 82.8 85.12 83.6 85.12 84.59C85.12 85.58 84.32 86.38 83.33 86.38ZM83.33 83.77C82.87 83.77 82.5 84.14 82.5 84.6C82.5 85.06 82.87 85.43 83.33 85.43C83.79 85.43 84.16 85.06 84.16 84.6C84.16 84.14 83.79 83.77 83.33 83.77Z" fill="#0E1721"/>
</svg>
