<svg xmlns="http://www.w3.org/2000/svg" width="100" height="100" viewBox="0 0 100 100" fill="none">
  <path d="M97.06 3H81.04C79.42 3 78.1 4.32 78.1 5.94V20.9C78.1 22.52 79.42 23.84 81.04 23.84H97.06C98.68 23.84 100 22.52 100 20.9V5.94C100 4.32 98.68 3 97.06 3ZM98.4 20.89C98.4 21.63 97.8 22.23 97.06 22.23H81.04C80.3 22.23 79.7 21.63 79.7 20.89V16.72C80.1 16.93 80.55 17.06 81.04 17.06H97.06C97.54 17.06 97.99 16.93 98.4 16.72V20.89ZM79.7 9.59V5.94C79.7 5.2 80.3 4.6 81.04 4.6H97.06C97.8 4.6 98.4 5.2 98.4 5.94V14.13C98.4 14.87 97.8 15.47 97.06 15.47H81.04C80.3 15.47 79.7 14.87 79.7 14.13V9.59Z" fill="#4279B6"/>
  <path d="M28.12 13.92C12.35 13.92 0 18.82 0 25.07V38.68C0 38.98 0.05 39.27 0.11 39.56C0.05 39.67 0 39.8 0 39.94V53.55C0 53.85 0.05 54.14 0.11 54.43C0.05 54.54 0 54.67 0 54.81V68.42C0 74.67 12.35 79.56 28.12 79.56C42.74 79.56 54.4 75.35 56.03 69.76C56.16 69.32 56.24 68.87 56.24 68.42V54.81C56.24 54.67 56.19 54.55 56.13 54.43C56.19 54.14 56.24 53.85 56.24 53.55V39.94C56.24 39.8 56.19 39.68 56.13 39.56C56.19 39.27 56.24 38.98 56.24 38.68V25.07C56.24 18.82 43.89 13.93 28.12 13.93V13.92ZM54.65 68.42C54.65 73.03 43.99 77.97 28.13 77.97C12.27 77.97 1.6 73.03 1.6 68.42V57.29C5.4 61.64 15.69 64.69 28.12 64.69C40.55 64.69 50.84 61.64 54.64 57.29V68.42H54.65ZM54.65 53.55C54.65 58.16 43.99 63.09 28.13 63.09C12.27 63.09 1.6 58.16 1.6 53.55V42.42C5.4 46.77 15.69 49.82 28.12 49.82C40.55 49.82 50.84 46.77 54.64 42.42V53.55H54.65ZM54.65 38.68C54.65 43.29 43.99 48.22 28.13 48.22C12.27 48.22 1.6 43.29 1.6 38.68V28.81C5.4 33.16 15.69 36.21 28.12 36.21C40.55 36.21 50.84 33.16 54.64 28.81V38.68H54.65ZM28.12 34.61C12.25 34.61 1.6 29.67 1.6 25.07C1.6 20.47 12.26 15.52 28.12 15.52C43.98 15.52 54.64 20.46 54.64 25.07C54.64 29.68 43.98 34.61 28.12 34.61Z" fill="#4279B6"/>
  <path d="M97.06 40.39H81.04C79.42 40.39 78.1 41.71 78.1 43.33V57.93C78.1 59.55 79.42 60.87 81.04 60.87H97.06C98.68 60.87 100 59.55 100 57.93V43.33C100 41.71 98.68 40.39 97.06 40.39ZM98.4 57.93C98.4 58.67 97.8 59.27 97.06 59.27H81.04C80.3 59.27 79.7 58.67 79.7 57.93V54.12C80.1 54.33 80.55 54.46 81.04 54.46H97.06C97.54 54.46 97.99 54.33 98.4 54.12V57.93ZM79.7 46.62V43.32C79.7 42.58 80.3 41.98 81.04 41.98H97.06C97.8 41.98 98.4 42.58 98.4 43.32V51.51C98.4 52.25 97.8 52.85 97.06 52.85H81.04C80.3 52.85 79.7 52.25 79.7 51.51V46.62Z" fill="#4279B6"/>
  <path d="M97.06 77.78H81.04C79.42 77.78 78.1 79.1 78.1 80.72V88.91C78.1 89.06 78.12 89.21 78.14 89.35H78.1V94.96C78.1 96.58 79.42 97.9 81.04 97.9H97.06C98.68 97.9 100 96.58 100 94.96V80.72C100 79.1 98.68 77.78 97.06 77.78ZM98.4 94.96C98.4 95.7 97.8 96.3 97.06 96.3H81.04C80.3 96.3 79.7 95.7 79.7 94.96V91.5C80.1 91.71 80.55 91.84 81.04 91.84H97.06C97.54 91.84 97.99 91.71 98.4 91.5V94.96ZM79.7 83.66V80.72C79.7 79.98 80.3 79.38 81.04 79.38H97.06C97.8 79.38 98.4 79.98 98.4 80.72V88.91C98.4 89.65 97.8 90.25 97.06 90.25H81.04C80.3 90.25 79.7 89.65 79.7 88.91V83.66Z" fill="#4279B6"/>
  <path d="M78.1 87.75H74.69C70.35 87.75 66.82 84.22 66.82 79.88V65.28C66.84 65.08 66.88 64.89 66.88 64.69V50.53H78.1V48.93H66.88V35.13C66.88 34.93 66.84 34.73 66.82 34.54V19.94C66.82 15.6 70.35 12.07 74.69 12.07H78.1V10.47H74.69C69.47 10.47 65.22 14.72 65.22 19.94V31.41C64.32 30.58 63.12 30.06 61.81 30.06H56.25V31.66H61.81C63.52 31.66 64.94 32.91 65.22 34.54V65.29C64.94 66.92 63.52 68.17 61.81 68.17H56.25V68.42C56.25 68.88 56.16 69.32 56.04 69.76H61.82C63.14 69.76 64.33 69.24 65.23 68.41V79.88C65.23 85.1 69.48 89.35 74.7 89.35H78.16C78.14 89.2 78.12 89.06 78.12 88.91V87.75H78.1Z" fill="#2D557F"/>
  <path d="M36.97 69.04C35.89 69.04 35.02 69.91 35.02 70.99C35.02 72.07 35.89 72.94 36.97 72.94C38.05 72.94 38.92 72.07 38.92 70.99C38.92 69.91 38.05 69.04 36.97 69.04Z" fill="#2D557F"/>
  <path d="M28.12 72.93C29.1969 72.93 30.07 72.057 30.07 70.98C30.07 69.9031 29.1969 69.03 28.12 69.03C27.043 69.03 26.17 69.9031 26.17 70.98C26.17 72.057 27.043 72.93 28.12 72.93Z" fill="#2D557F"/>
  <path d="M19.27 72.93C20.347 72.93 21.22 72.057 21.22 70.98C21.22 69.9031 20.347 69.03 19.27 69.03C18.1931 69.03 17.32 69.9031 17.32 70.98C17.32 72.057 18.1931 72.93 19.27 72.93Z" fill="#2D557F"/>
  <path d="M36.97 54.23C35.89 54.23 35.02 55.1 35.02 56.18C35.02 57.26 35.89 58.13 36.97 58.13C38.05 58.13 38.92 57.26 38.92 56.18C38.92 55.1 38.05 54.23 36.97 54.23Z" fill="#2D557F"/>
  <path d="M28.12 54.23C27.04 54.23 26.17 55.1 26.17 56.18C26.17 57.26 27.04 58.13 28.12 58.13C29.2 58.13 30.07 57.26 30.07 56.18C30.07 55.1 29.2 54.23 28.12 54.23Z" fill="#2D557F"/>
  <path d="M19.27 54.23C18.19 54.23 17.32 55.1 17.32 56.18C17.32 57.26 18.19 58.13 19.27 58.13C20.35 58.13 21.22 57.26 21.22 56.18C21.22 55.1 20.35 54.23 19.27 54.23Z" fill="#2D557F"/>
  <path d="M36.97 39.76C35.89 39.76 35.02 40.63 35.02 41.71C35.02 42.79 35.89 43.66 36.97 43.66C38.05 43.66 38.92 42.79 38.92 41.71C38.92 40.63 38.05 39.76 36.97 39.76Z" fill="#2D557F"/>
  <path d="M28.12 39.76C27.04 39.76 26.17 40.63 26.17 41.71C26.17 42.79 27.04 43.66 28.12 43.66C29.2 43.66 30.07 42.79 30.07 41.71C30.07 40.63 29.2 39.76 28.12 39.76Z" fill="#2D557F"/>
  <path d="M19.27 39.76C18.19 39.76 17.32 40.63 17.32 41.71C17.32 42.79 18.19 43.66 19.27 43.66C20.35 43.66 21.22 42.79 21.22 41.71C21.22 40.63 20.35 39.76 19.27 39.76Z" fill="#2D557F"/>
  <path d="M83.33 11.12C83.84 11.12 84.28 10.82 84.49 10.39C84.58 10.22 84.64 10.02 84.64 9.82001C84.64 9.74001 84.61 9.67001 84.59 9.59001C84.48 8.98001 83.97 8.51001 83.33 8.51001C82.69 8.51001 82.18 8.98001 82.07 9.59001C82.06 9.67001 82.02 9.74001 82.02 9.82001C82.02 10.03 82.08 10.22 82.17 10.39C82.38 10.82 82.82 11.12 83.33 11.12Z" fill="#2D557F"/>
  <path d="M83.33 45.9C82.82 45.9 82.39 46.2 82.17 46.63C82.08 46.81 82.02 47 82.02 47.21C82.02 47.29 82.05 47.35 82.06 47.43C82.12 47.76 82.28 48.03 82.54 48.23C82.76 48.4 83.03 48.52 83.33 48.52C83.63 48.52 83.9 48.4 84.12 48.23C84.37 48.03 84.54 47.76 84.6 47.43C84.61 47.36 84.64 47.29 84.64 47.21C84.64 47 84.58 46.81 84.49 46.63C84.27 46.2 83.84 45.9 83.33 45.9Z" fill="#2D557F"/>
  <path d="M84.24 83.66C84 83.43 83.69 83.29 83.33 83.29C82.97 83.29 82.66 83.43 82.42 83.66C82.21 83.87 82.08 84.15 82.05 84.46C82.05 84.51 82.02 84.55 82.02 84.6C82.02 84.85 82.11 85.06 82.23 85.26C82.46 85.64 82.86 85.91 83.33 85.91C83.8 85.91 84.2 85.64 84.43 85.26C84.55 85.06 84.64 84.85 84.64 84.6C84.64 84.55 84.62 84.51 84.61 84.46C84.58 84.15 84.45 83.87 84.24 83.66Z" fill="#2D557F"/>
</svg>
