<svg xmlns="http://www.w3.org/2000/svg" width="100" height="100" viewBox="0 0 100 100" fill="none">
  <path d="M95.55 92.13H4.45C2 92.13 0 90.13 0 87.68V11.45C0 9 2 7 4.45 7H95.55C98 7 100 9 100 11.45V87.69C100 90.14 98 92.14 95.55 92.14V92.13ZM4.45 8.41C2.77 8.41 1.41 9.77 1.41 11.45V87.69C1.41 89.37 2.77 90.73 4.45 90.73H95.55C97.23 90.73 98.59 89.37 98.59 87.69V11.45C98.59 9.77 97.23 8.41 95.55 8.41H4.45Z" fill="#4279B6"/>
  <path d="M88.54 85.69H11.46C9.32 85.69 7.59 83.95 7.59 81.82V17.31C7.59 15.17 9.33 13.44 11.46 13.44H88.54C90.68 13.44 92.41 15.18 92.41 17.31V81.81C92.41 83.95 90.67 85.68 88.54 85.68V85.69ZM11.46 14.85C10.1 14.85 9 15.96 9 17.31V81.81C9 83.17 10.11 84.27 11.46 84.27H88.54C89.9 84.27 91 83.16 91 81.81V17.31C91 15.95 89.89 14.85 88.54 14.85H11.46Z" fill="#2D557F"/>
  <path d="M79.73 40.51H20.27C19.88 40.51 19.57 40.19 19.57 39.81C19.57 39.43 19.89 39.11 20.27 39.11H79.73C80.12 39.11 80.43 39.43 80.43 39.81C80.43 40.19 80.11 40.51 79.73 40.51Z" fill="#4279B6"/>
  <path d="M79.73 69.45H66.25C65.86 69.45 65.55 69.13 65.55 68.75C65.55 68.37 65.87 68.05 66.25 68.05H79.73C80.12 68.05 80.43 68.37 80.43 68.75C80.43 69.13 80.11 69.45 79.73 69.45Z" fill="#4279B6"/>
  <path d="M33.75 69.45H20.27C19.88 69.45 19.57 69.13 19.57 68.75C19.57 68.37 19.89 68.05 20.27 68.05H33.75C34.14 68.05 34.45 68.37 34.45 68.75C34.45 69.13 34.13 69.45 33.75 69.45Z" fill="#4279B6"/>
  <path d="M79.73 46.72H20.27C19.88 46.72 19.57 46.4 19.57 46.02C19.57 45.64 19.89 45.32 20.27 45.32H79.73C80.12 45.32 80.43 45.64 80.43 46.02C80.43 46.4 80.11 46.72 79.73 46.72Z" fill="#4279B6"/>
  <path d="M79.73 52.94H20.27C19.88 52.94 19.57 52.62 19.57 52.24C19.57 51.86 19.89 51.54 20.27 51.54H79.73C80.12 51.54 80.43 51.86 80.43 52.24C80.43 52.62 80.11 52.94 79.73 52.94Z" fill="#4279B6"/>
  <path d="M50 80.21C48.71 80.21 47.86 79.38 47.29 78.84C47.17 78.72 47.07 78.63 47 78.57C46.86 78.58 46.66 78.61 46.58 78.62C45.76 78.73 44.64 78.88 43.63 78.14C42.61 77.4 42.4 76.24 42.26 75.47C42.24 75.38 42.21 75.19 42.18 75.06C42.06 74.99 41.9 74.9 41.82 74.86C41.13 74.49 40.08 73.93 39.69 72.72C39.6 72.44 39.55 72.15 39.55 71.84C39.55 71.02 39.88 70.35 40.14 69.8C40.19 69.7 40.28 69.51 40.34 69.37C40.3 69.28 40.24 69.13 40.15 68.95C39.89 68.4 39.56 67.72 39.56 66.9C39.56 66.6 39.61 66.3 39.7 66.02C40.09 64.81 41.14 64.25 41.83 63.88C41.91 63.84 42.07 63.75 42.19 63.68C42.21 63.58 42.24 63.45 42.27 63.27C42.42 62.46 42.62 61.35 43.64 60.6C44.65 59.86 45.81 60.02 46.58 60.12C46.66 60.13 46.86 60.16 47.01 60.17C47.11 60.08 47.24 59.96 47.3 59.9C47.87 59.35 48.72 58.53 50.01 58.53C51.3 58.53 52.15 59.35 52.72 59.9C52.84 60.02 52.94 60.11 53.01 60.17C53.15 60.16 53.35 60.13 53.43 60.12C54.25 60.01 55.36 59.86 56.38 60.6C57.4 61.34 57.61 62.5 57.75 63.26C57.77 63.36 57.8 63.54 57.83 63.68C57.95 63.75 58.12 63.84 58.19 63.88C58.92 64.27 59.93 64.81 60.32 66.02C60.41 66.3 60.46 66.6 60.46 66.9C60.46 67.72 60.13 68.4 59.87 68.95C59.82 69.05 59.73 69.24 59.68 69.37C59.74 69.51 59.83 69.71 59.87 69.79C60.14 70.34 60.46 71.02 60.46 71.84C60.46 72.14 60.41 72.44 60.32 72.72C59.93 73.93 58.88 74.49 58.19 74.86C58.11 74.9 57.95 74.99 57.83 75.06C57.8 75.2 57.76 75.39 57.75 75.47C57.6 76.28 57.4 77.4 56.38 78.14C55.37 78.88 54.25 78.73 53.44 78.62C53.35 78.61 53.15 78.58 53.01 78.57C52.91 78.66 52.78 78.78 52.72 78.84C52.15 79.39 51.3 80.21 50.01 80.21H50ZM47.13 77.15C47.24 77.15 47.34 77.16 47.42 77.18C47.45 77.18 47.48 77.2 47.51 77.21C47.71 77.29 47.9 77.46 48.27 77.82C48.72 78.26 49.28 78.8 50 78.8C50.72 78.8 51.23 78.3 51.73 77.82C52.1 77.46 52.29 77.3 52.48 77.22C52.51 77.21 52.54 77.2 52.57 77.19C52.79 77.13 53.07 77.15 53.61 77.22C54.29 77.31 54.99 77.41 55.55 77C56.11 76.59 56.24 75.9 56.36 75.22C56.46 74.69 56.51 74.43 56.63 74.25C56.65 74.22 56.67 74.2 56.69 74.17C56.83 74 57.05 73.87 57.51 73.62C58.07 73.32 58.75 72.96 58.97 72.28C59.01 72.14 59.04 71.99 59.04 71.84C59.04 71.34 58.81 70.87 58.59 70.41C58.34 69.9 58.23 69.63 58.23 69.39C58.23 69.38 58.23 69.37 58.23 69.36C58.23 69.12 58.34 68.87 58.58 68.36C58.81 67.88 59.04 67.41 59.04 66.91C59.04 66.75 59.02 66.61 58.97 66.47C58.75 65.8 58.12 65.46 57.52 65.14C57.05 64.89 56.83 64.76 56.69 64.59C56.67 64.57 56.65 64.54 56.64 64.52C56.52 64.33 56.46 64.08 56.36 63.55C56.24 62.86 56.11 62.16 55.55 61.75C54.99 61.34 54.3 61.44 53.62 61.53C53.07 61.6 52.81 61.63 52.59 61.57C52.56 61.57 52.53 61.55 52.49 61.54C52.3 61.46 52.1 61.28 51.73 60.93C51.23 60.45 50.72 59.96 50 59.96C49.28 59.96 48.75 60.48 48.27 60.94C47.89 61.3 47.71 61.46 47.52 61.54C47.49 61.55 47.46 61.56 47.43 61.57C47.21 61.63 46.93 61.61 46.39 61.54C45.72 61.45 45.02 61.36 44.47 61.76C43.91 62.17 43.78 62.86 43.66 63.54C43.56 64.07 43.51 64.33 43.39 64.51C43.37 64.54 43.35 64.56 43.33 64.59C43.19 64.76 42.96 64.89 42.51 65.14C41.89 65.47 41.26 65.81 41.05 66.47C41 66.61 40.98 66.76 40.98 66.91C40.98 67.4 41.21 67.88 41.43 68.35C41.67 68.86 41.79 69.12 41.79 69.37C41.79 69.38 41.79 69.39 41.79 69.4C41.79 69.64 41.68 69.89 41.43 70.41C41.2 70.88 40.98 71.36 40.98 71.85C40.98 72.01 41 72.15 41.05 72.29C41.27 72.96 41.89 73.3 42.5 73.62C42.97 73.87 43.19 74 43.33 74.16C43.35 74.19 43.37 74.21 43.39 74.24C43.51 74.43 43.57 74.68 43.67 75.22C43.79 75.89 43.92 76.59 44.48 77C45.04 77.4 45.73 77.31 46.41 77.22C46.75 77.17 46.98 77.15 47.15 77.15H47.13Z" fill="#2D557F"/>
  <path d="M29.08 31.16C29.08 31.16 29 31.06 29 31C28.83 28.87 28.66 26.73 28.5 24.6C28.5 24.53 28.51 24.47 28.55 24.42C28.59 24.37 28.65 24.34 28.72 24.34C29.54 24.28 30.36 24.22 31.18 24.16C33.16 24.02 34.23 24.86 34.37 26.64C34.41 27.02 34.43 27.28 34.43 27.41C34.43 27.53 34.45 27.79 34.45 28.17C34.48 29.09 34.27 29.78 33.83 30.25C33.39 30.71 32.68 30.98 31.7 31.04C30.88 31.1 30.06 31.16 29.25 31.22C29.18 31.22 29.13 31.21 29.08 31.16ZM31.57 29.91C32.12 29.87 32.51 29.72 32.74 29.46C32.97 29.2 33.07 28.79 33.05 28.22C33.04 27.83 33.03 27.58 33.02 27.48C33.02 27.38 32.99 27.13 32.95 26.75C32.9 26.21 32.74 25.82 32.46 25.59C32.18 25.35 31.76 25.25 31.19 25.29C30.77 25.32 30.36 25.35 29.94 25.38C30.05 26.92 30.17 28.46 30.28 30C30.71 29.97 31.13 29.94 31.56 29.91H31.57Z" fill="#4279B6"/>
  <path d="M36 30.7C36 30.7 35.93 30.6 35.92 30.54C35.81 28.4 35.69 26.26 35.58 24.12C35.58 24.05 35.6 23.99 35.64 23.94C35.68 23.89 35.74 23.87 35.81 23.87C36.13 23.85 36.44 23.84 36.76 23.82C36.83 23.82 36.89 23.84 36.94 23.88C36.99 23.92 37.01 23.98 37.01 24.05C37.11 26.19 37.22 28.33 37.32 30.47C37.32 30.54 37.3 30.59 37.26 30.64C37.22 30.69 37.16 30.71 37.09 30.72C36.78 30.74 36.47 30.75 36.16 30.77C36.09 30.77 36.04 30.75 35.99 30.71L36 30.7Z" fill="#4279B6"/>
  <path d="M38.95 30.56C38.95 30.56 38.88 30.46 38.87 30.4C38.78 28.26 38.69 26.12 38.6 23.99C38.6 23.92 38.62 23.86 38.66 23.81C38.7 23.76 38.76 23.74 38.83 23.73C39.73 23.69 40.64 23.66 41.54 23.63C42.35 23.6 42.99 23.77 43.47 24.13C43.94 24.49 44.19 25.03 44.2 25.74C44.22 26.46 44 27 43.55 27.38C43.1 27.76 42.48 27.95 41.68 27.98C41.19 28 40.69 28.01 40.2 28.03C40.23 28.8 40.26 29.57 40.29 30.34C40.29 30.41 40.27 30.46 40.23 30.51C40.19 30.56 40.13 30.58 40.06 30.59C39.75 30.6 39.44 30.61 39.12 30.63C39.05 30.63 39 30.61 38.95 30.57V30.56ZM41.6 26.89C41.99 26.88 42.28 26.78 42.48 26.59C42.68 26.4 42.78 26.13 42.77 25.78C42.77 25.44 42.65 25.17 42.45 24.99C42.24 24.8 41.94 24.71 41.53 24.73C41.04 24.75 40.55 24.76 40.06 24.78C40.09 25.5 40.11 26.23 40.14 26.95C40.63 26.93 41.11 26.92 41.6 26.9V26.89Z" fill="#4279B6"/>
  <path d="M45.46 30.37C45.46 30.37 45.39 30.27 45.39 30.2C45.35 28.06 45.31 25.92 45.27 23.77C45.27 23.7 45.29 23.64 45.34 23.6C45.39 23.56 45.44 23.53 45.51 23.53C45.82 23.53 46.14 23.52 46.45 23.52C46.52 23.52 46.58 23.54 46.63 23.58C46.67 23.62 46.7 23.68 46.7 23.75C46.72 25.58 46.75 27.41 46.77 29.24C47.82 29.23 48.86 29.22 49.91 29.22C49.98 29.22 50.04 29.24 50.09 29.29C50.14 29.34 50.16 29.4 50.16 29.47C50.16 29.7 50.16 29.93 50.16 30.16C50.16 30.23 50.14 30.29 50.09 30.33C50.04 30.37 49.98 30.39 49.91 30.39C48.48 30.39 47.05 30.41 45.63 30.43C45.56 30.43 45.51 30.41 45.46 30.36V30.37Z" fill="#4279B6"/>
  <path d="M51.59 29.81C51.09 29.35 50.83 28.68 50.8 27.79C50.8 27.6 50.8 27.32 50.8 26.95C50.8 26.58 50.8 26.29 50.81 26.1C50.84 25.23 51.11 24.56 51.64 24.09C52.17 23.63 52.88 23.4 53.77 23.41C54.66 23.42 55.37 23.67 55.89 24.14C56.41 24.62 56.67 25.29 56.68 26.17C56.68 26.55 56.68 26.83 56.68 27.02C56.68 27.2 56.66 27.48 56.64 27.86C56.59 28.75 56.3 29.42 55.79 29.86C55.28 30.3 54.58 30.52 53.69 30.51C52.8 30.5 52.1 30.27 51.6 29.81H51.59ZM54.76 28.99C55.03 28.73 55.18 28.33 55.21 27.78C55.23 27.39 55.24 27.12 55.24 26.98C55.24 26.83 55.24 26.56 55.24 26.18C55.23 25.63 55.09 25.23 54.83 24.96C54.57 24.69 54.21 24.55 53.76 24.55C53.32 24.55 52.96 24.67 52.69 24.94C52.42 25.2 52.27 25.61 52.25 26.15C52.25 26.34 52.24 26.61 52.23 26.95C52.23 27.29 52.23 27.55 52.23 27.75C52.25 28.3 52.38 28.7 52.64 28.97C52.9 29.24 53.25 29.37 53.69 29.38C54.13 29.38 54.49 29.26 54.76 29V28.99Z" fill="#4279B6"/>
  <path d="M57.96 30.43C57.96 30.43 57.89 30.33 57.9 30.26C57.96 28.12 58.02 25.98 58.08 23.84C58.08 23.77 58.11 23.71 58.16 23.66C58.21 23.62 58.27 23.59 58.34 23.6C58.61 23.6 58.87 23.62 59.14 23.62C59.28 23.62 59.38 23.69 59.44 23.82C60.05 25.02 60.66 26.23 61.25 27.44C61.95 26.28 62.65 25.13 63.36 23.98C63.43 23.86 63.54 23.8 63.67 23.81C63.93 23.82 64.2 23.84 64.46 23.85C64.53 23.85 64.59 23.88 64.64 23.93C64.68 23.98 64.71 24.04 64.7 24.11C64.59 26.25 64.48 28.38 64.37 30.52C64.37 30.59 64.34 30.65 64.29 30.69C64.24 30.73 64.18 30.75 64.11 30.75C63.83 30.74 63.56 30.72 63.28 30.71C63.21 30.71 63.16 30.68 63.12 30.63C63.08 30.58 63.06 30.53 63.06 30.46C63.13 29.04 63.19 27.62 63.26 26.2C62.75 27.05 62.25 27.91 61.75 28.77C61.66 28.91 61.54 28.98 61.4 28.97C61.26 28.97 61.13 28.96 60.99 28.95C60.85 28.95 60.74 28.87 60.66 28.72C60.23 27.83 59.79 26.93 59.35 26.04C59.3 27.46 59.26 28.88 59.21 30.31C59.21 30.38 59.18 30.43 59.14 30.48C59.1 30.52 59.04 30.55 58.97 30.54C58.69 30.54 58.42 30.52 58.14 30.52C58.07 30.52 58.01 30.5 57.96 30.45V30.43Z" fill="#4279B6"/>
  <path d="M65.32 30.74C65.32 30.74 65.26 30.65 65.26 30.59C65.26 30.56 65.28 30.53 65.28 30.5C66.19 28.43 67.12 26.36 68.06 24.29C68.12 24.13 68.24 24.05 68.43 24.07C68.8 24.09 69.16 24.12 69.53 24.14C69.71 24.15 69.82 24.24 69.87 24.41C70.53 26.58 71.18 28.75 71.8 30.93C71.8 30.95 71.8 30.98 71.8 31.02C71.8 31.08 71.77 31.13 71.73 31.16C71.69 31.2 71.64 31.21 71.59 31.21C71.3 31.19 71.02 31.17 70.73 31.14C70.64 31.14 70.58 31.11 70.54 31.07C70.5 31.03 70.47 30.98 70.46 30.94C70.34 30.53 70.21 30.12 70.08 29.71C69.1 29.64 68.12 29.57 67.14 29.51C66.96 29.9 66.78 30.29 66.6 30.68C66.54 30.8 66.44 30.86 66.3 30.85C66.01 30.83 65.73 30.82 65.44 30.8C65.39 30.8 65.34 30.77 65.3 30.73L65.32 30.74ZM69.83 28.55C69.52 27.51 69.21 26.47 68.9 25.43C68.45 26.42 68.01 27.41 67.57 28.4C68.32 28.45 69.08 28.5 69.83 28.55Z" fill="#4279B6"/>
</svg>
