<svg xmlns="http://www.w3.org/2000/svg" width="100" height="100" viewBox="0 0 100 100" fill="none">
  <path d="M95.55 7.7H4.44001C2.37447 7.7 0.700012 9.37446 0.700012 11.44V87.68C0.700012 89.7455 2.37447 91.42 4.44001 91.42H95.55C97.6156 91.42 99.29 89.7455 99.29 87.68V11.44C99.29 9.37446 97.6156 7.7 95.55 7.7Z" fill="#4279B6"/>
  <path d="M95.55 92.13H4.45C2 92.13 0 90.13 0 87.68V11.45C0 9 2 7 4.45 7H95.55C98 7 100 9 100 11.45V87.69C100 90.14 98 92.14 95.55 92.14V92.13ZM4.45 8.41C2.77 8.41 1.41 9.77 1.41 11.45V87.69C1.41 89.37 2.77 90.73 4.45 90.73H95.55C97.23 90.73 98.59 89.37 98.59 87.69V11.45C98.59 9.77 97.23 8.41 95.55 8.41H4.45Z" fill="#0E1721"/>
  <path d="M88.54 14.15H11.46C9.7093 14.15 8.29004 15.5693 8.29004 17.32V81.82C8.29004 83.5707 9.7093 84.99 11.46 84.99H88.54C90.2908 84.99 91.71 83.5707 91.71 81.82V17.32C91.71 15.5693 90.2908 14.15 88.54 14.15Z" fill="white"/>
  <path d="M88.54 85.69H11.46C9.32003 85.69 7.59003 83.95 7.59003 81.82V17.31C7.59003 15.17 9.33003 13.44 11.46 13.44H88.54C90.68 13.44 92.41 15.18 92.41 17.31V81.81C92.41 83.95 90.67 85.68 88.54 85.68V85.69ZM11.46 14.85C10.1 14.85 9.00003 15.96 9.00003 17.31V81.81C9.00003 83.17 10.11 84.27 11.46 84.27H88.54C89.9 84.27 91 83.16 91 81.81V17.31C91 15.95 89.89 14.85 88.54 14.85H11.46Z" fill="#0E1721"/>
  <path d="M82.2 31.21C82.2 31.21 82.13 31.21 82.09 31.21C60.8 29.2 39.2 29.2 17.91 31.21C17.29 31.27 16.74 30.81 16.68 30.19C16.62 29.57 17.08 29.02 17.7 28.96C39.14 26.93 60.87 26.93 82.31 28.96C82.93 29.02 83.38 29.57 83.33 30.19C83.27 30.77 82.78 31.21 82.21 31.21H82.2Z" fill="#0E1721"/>
  <path d="M79.73 40.51H20.27C19.88 40.51 19.57 40.19 19.57 39.81C19.57 39.43 19.89 39.11 20.27 39.11H79.73C80.12 39.11 80.43 39.43 80.43 39.81C80.43 40.19 80.11 40.51 79.73 40.51Z" fill="#0E1721"/>
  <path d="M79.73 69.45H66.25C65.86 69.45 65.55 69.13 65.55 68.75C65.55 68.37 65.87 68.05 66.25 68.05H79.73C80.12 68.05 80.43 68.37 80.43 68.75C80.43 69.13 80.11 69.45 79.73 69.45Z" fill="#0E1721"/>
  <path d="M33.75 69.45H20.27C19.88 69.45 19.57 69.13 19.57 68.75C19.57 68.37 19.89 68.05 20.27 68.05H33.75C34.14 68.05 34.45 68.37 34.45 68.75C34.45 69.13 34.13 69.45 33.75 69.45Z" fill="#0E1721"/>
  <path d="M79.73 46.72H20.27C19.88 46.72 19.57 46.4 19.57 46.02C19.57 45.64 19.89 45.32 20.27 45.32H79.73C80.12 45.32 80.43 45.64 80.43 46.02C80.43 46.4 80.11 46.72 79.73 46.72Z" fill="#0E1721"/>
  <path d="M79.73 52.94H20.27C19.88 52.94 19.57 52.62 19.57 52.24C19.57 51.86 19.89 51.54 20.27 51.54H79.73C80.12 51.54 80.43 51.86 80.43 52.24C80.43 52.62 80.11 52.94 79.73 52.94Z" fill="#0E1721"/>
  <path d="M47.24 77.86C47.13 77.83 46.71 77.89 46.49 77.92C45.75 78.02 44.84 78.14 44.05 77.57C43.26 76.99 43.1 76.08 42.96 75.35C42.92 75.12 42.85 74.72 42.78 74.62C42.71 74.53 42.36 74.35 42.16 74.24C41.5 73.89 40.68 73.45 40.37 72.51C40.3 72.3 40.27 72.08 40.27 71.85C40.27 71.2 40.55 70.62 40.79 70.11C40.9 69.88 41.08 69.5 41.08 69.38C41.08 69.25 40.89 68.86 40.79 68.65C40.54 68.14 40.27 67.56 40.27 66.91C40.27 66.68 40.3 66.46 40.37 66.25C40.67 65.31 41.5 64.87 42.16 64.52C42.35 64.42 42.71 64.23 42.79 64.13C42.85 64.03 42.92 63.64 42.96 63.41C43.09 62.68 43.26 61.76 44.05 61.19C44.84 60.62 45.75 60.74 46.48 60.84C46.72 60.87 47.12 60.93 47.24 60.89C47.34 60.85 47.61 60.58 47.78 60.43C48.29 59.93 49 59.26 50 59.26C51 59.26 51.67 59.91 52.22 60.43C52.37 60.58 52.66 60.85 52.77 60.9C52.88 60.93 53.28 60.88 53.52 60.84C54.26 60.74 55.17 60.62 55.96 61.19C56.75 61.77 56.91 62.68 57.05 63.41C57.09 63.65 57.16 64.04 57.23 64.14C57.3 64.23 57.65 64.41 57.85 64.52C58.51 64.87 59.34 65.31 59.64 66.25C59.71 66.46 59.74 66.68 59.74 66.91C59.74 67.57 59.46 68.14 59.22 68.65C59.11 68.88 58.93 69.25 58.93 69.38C58.93 69.51 59.12 69.9 59.22 70.11C59.46 70.62 59.74 71.19 59.74 71.85C59.74 72.08 59.71 72.3 59.64 72.51C59.33 73.45 58.48 73.91 57.85 74.24C57.64 74.35 57.3 74.53 57.22 74.63C57.16 74.73 57.09 75.12 57.05 75.35C56.92 76.09 56.75 77 55.96 77.57C55.18 78.14 54.26 78.02 53.53 77.92C53.3 77.89 52.89 77.83 52.77 77.87C52.67 77.91 52.4 78.18 52.23 78.33C51.69 78.85 51.01 79.5 50.01 79.5C49.01 79.5 48.3 78.82 47.79 78.33C47.63 78.17 47.35 77.91 47.24 77.86Z" fill="#FCCD2A"/>
  <path d="M50 80.21C48.71 80.21 47.86 79.38 47.29 78.84C47.17 78.72 47.07 78.63 47 78.57C46.86 78.58 46.66 78.61 46.58 78.62C45.76 78.73 44.64 78.88 43.63 78.14C42.61 77.4 42.4 76.24 42.26 75.47C42.24 75.38 42.21 75.19 42.18 75.06C42.06 74.99 41.9 74.9 41.82 74.86C41.13 74.49 40.08 73.93 39.69 72.72C39.6 72.44 39.55 72.15 39.55 71.84C39.55 71.02 39.88 70.35 40.14 69.8C40.19 69.7 40.28 69.51 40.34 69.37C40.3 69.28 40.24 69.13 40.15 68.95C39.89 68.4 39.56 67.72 39.56 66.9C39.56 66.6 39.61 66.3 39.7 66.02C40.09 64.81 41.14 64.25 41.83 63.88C41.91 63.84 42.07 63.75 42.19 63.68C42.21 63.58 42.24 63.45 42.27 63.27C42.42 62.46 42.62 61.35 43.64 60.6C44.65 59.86 45.81 60.02 46.58 60.12C46.66 60.13 46.86 60.16 47.01 60.17C47.11 60.08 47.24 59.96 47.3 59.9C47.87 59.35 48.72 58.53 50.01 58.53C51.3 58.53 52.15 59.35 52.72 59.9C52.84 60.02 52.94 60.11 53.01 60.17C53.15 60.16 53.35 60.13 53.43 60.12C54.25 60.01 55.36 59.86 56.38 60.6C57.4 61.34 57.61 62.5 57.75 63.26C57.77 63.36 57.8 63.54 57.83 63.68C57.95 63.75 58.12 63.84 58.19 63.88C58.92 64.27 59.93 64.81 60.32 66.02C60.41 66.3 60.46 66.6 60.46 66.9C60.46 67.72 60.13 68.4 59.87 68.95C59.82 69.05 59.73 69.24 59.68 69.37C59.74 69.51 59.83 69.71 59.87 69.79C60.14 70.34 60.46 71.02 60.46 71.84C60.46 72.14 60.41 72.44 60.32 72.72C59.93 73.93 58.88 74.49 58.19 74.86C58.11 74.9 57.95 74.99 57.83 75.06C57.8 75.2 57.76 75.39 57.75 75.47C57.6 76.28 57.4 77.4 56.38 78.14C55.37 78.88 54.25 78.73 53.44 78.62C53.35 78.61 53.15 78.58 53.01 78.57C52.91 78.66 52.78 78.78 52.72 78.84C52.15 79.39 51.3 80.21 50.01 80.21H50ZM47.13 77.15C47.24 77.15 47.34 77.16 47.42 77.18C47.45 77.18 47.48 77.2 47.51 77.21C47.71 77.29 47.9 77.46 48.27 77.82C48.72 78.26 49.28 78.8 50 78.8C50.72 78.8 51.23 78.3 51.73 77.82C52.1 77.46 52.29 77.3 52.48 77.22C52.51 77.21 52.54 77.2 52.57 77.19C52.79 77.13 53.07 77.15 53.61 77.22C54.29 77.31 54.99 77.4 55.55 77C56.11 76.59 56.24 75.9 56.36 75.22C56.46 74.69 56.51 74.43 56.63 74.25C56.65 74.22 56.67 74.2 56.69 74.17C56.83 74 57.05 73.87 57.51 73.62C58.07 73.32 58.75 72.96 58.97 72.28C59.01 72.14 59.04 71.99 59.04 71.84C59.04 71.34 58.81 70.87 58.59 70.41C58.34 69.9 58.23 69.63 58.23 69.39C58.23 69.38 58.23 69.37 58.23 69.36C58.23 69.12 58.34 68.87 58.58 68.36C58.81 67.88 59.04 67.41 59.04 66.91C59.04 66.75 59.02 66.61 58.97 66.47C58.75 65.8 58.12 65.46 57.52 65.14C57.05 64.89 56.83 64.76 56.69 64.59C56.67 64.57 56.65 64.54 56.64 64.52C56.52 64.33 56.46 64.08 56.36 63.55C56.24 62.86 56.11 62.16 55.55 61.75C54.99 61.34 54.3 61.44 53.62 61.53C53.07 61.6 52.81 61.63 52.59 61.57C52.56 61.57 52.53 61.55 52.49 61.54C52.3 61.46 52.1 61.28 51.73 60.93C51.23 60.45 50.72 59.96 50 59.96C49.28 59.96 48.75 60.48 48.27 60.94C47.89 61.3 47.71 61.46 47.52 61.54C47.49 61.55 47.46 61.56 47.43 61.57C47.21 61.63 46.93 61.61 46.39 61.54C45.72 61.45 45.02 61.36 44.47 61.76C43.91 62.17 43.78 62.86 43.66 63.54C43.56 64.07 43.51 64.33 43.39 64.51C43.37 64.54 43.35 64.56 43.33 64.59C43.19 64.76 42.96 64.89 42.51 65.14C41.89 65.47 41.26 65.81 41.05 66.47C41 66.61 40.98 66.76 40.98 66.91C40.98 67.4 41.21 67.88 41.43 68.35C41.67 68.86 41.79 69.12 41.79 69.37C41.79 69.38 41.79 69.39 41.79 69.4C41.79 69.64 41.68 69.89 41.43 70.41C41.2 70.88 40.98 71.36 40.98 71.85C40.98 72.01 41 72.15 41.05 72.29C41.27 72.96 41.89 73.3 42.5 73.62C42.97 73.87 43.19 74 43.33 74.16C43.35 74.19 43.37 74.21 43.39 74.24C43.51 74.43 43.57 74.68 43.67 75.22C43.79 75.89 43.92 76.59 44.48 77C45.04 77.4 45.73 77.31 46.41 77.22C46.75 77.17 46.98 77.15 47.15 77.15H47.13Z" fill="#0E1721"/>
</svg>
