<svg xmlns="http://www.w3.org/2000/svg" width="100" height="100" viewBox="0 0 100 100" fill="none">
  <path d="M7.79999 4.53999L7.79999 95.46C7.79999 97.5255 9.47444 99.2 11.54 99.2H87.62C89.6855 99.2 91.36 97.5255 91.36 95.46V4.53999C91.36 2.47445 89.6855 0.799995 87.62 0.799995H11.54C9.47444 0.799995 7.79999 2.47445 7.79999 4.53999Z" fill="white"/>
  <path d="M87.63 100H11.53C9.03 100 7 97.97 7 95.47V4.53C7 2.03 9.03 0 11.53 0H87.62C90.12 0 92.15 2.03 92.15 4.53V95.46C92.15 97.96 90.12 99.99 87.62 99.99L87.63 100ZM11.53 1.6C9.91 1.6 8.59 2.92 8.59 4.54V95.47C8.59 97.09 9.91 98.41 11.53 98.41H87.62C89.24 98.41 90.56 97.09 90.56 95.47V4.53C90.56 2.91 89.24 1.59 87.62 1.59H11.53V1.6Z" fill="#0E1721"/>
  <path d="M11.53 0.800003H87.62C89.68 0.800003 91.36 2.47 91.36 4.54V22.7H7.79999V4.53C7.79999 2.47 9.46999 0.800003 11.53 0.800003Z" fill="#4279B6"/>
  <path d="M91.36 23.5H7.8C7.36 23.5 7 23.14 7 22.7V4.53C7 2.03 9.03 0 11.53 0H87.62C90.12 0 92.15 2.03 92.15 4.53V22.69C92.15 23.13 91.79 23.49 91.35 23.49L91.36 23.5ZM8.6 21.9H90.57V4.53C90.57 2.91 89.25 1.59 87.63 1.59H11.53C9.91 1.59 8.59 2.91 8.59 4.53V21.89L8.6 21.9Z" fill="#0E1721"/>
  <path d="M74.33 55.36H24.84C24.4 55.36 24.04 55 24.04 54.56C24.04 54.12 24.4 53.76 24.84 53.76H74.33C74.77 53.76 75.13 54.12 75.13 54.56C75.13 55 74.77 55.36 74.33 55.36Z" fill="#0E1721"/>
  <path d="M74.33 47.49H24.84C24.4 47.49 24.04 47.13 24.04 46.69C24.04 46.25 24.4 45.89 24.84 45.89H74.33C74.77 45.89 75.13 46.25 75.13 46.69C75.13 47.13 74.77 47.49 74.33 47.49Z" fill="#0E1721"/>
  <path d="M74.33 39.61H24.84C24.4 39.61 24.04 39.25 24.04 38.81C24.04 38.37 24.4 38.01 24.84 38.01H74.33C74.77 38.01 75.13 38.37 75.13 38.81C75.13 39.25 74.77 39.61 74.33 39.61Z" fill="#0E1721"/>
  <path d="M74.33 31.74H24.84C24.4 31.74 24.04 31.38 24.04 30.94C24.04 30.5 24.4 30.14 24.84 30.14H74.33C74.77 30.14 75.13 30.5 75.13 30.94C75.13 31.38 74.77 31.74 74.33 31.74Z" fill="#0E1721"/>
  <path d="M39.74 15.74H24.83C24.39 15.74 24.03 15.38 24.03 14.94C24.03 14.5 24.39 14.14 24.83 14.14H39.74C40.18 14.14 40.54 14.5 40.54 14.94C40.54 15.38 40.18 15.74 39.74 15.74Z" fill="white"/>
  <path d="M74.33 63.28H24.84C24.4 63.28 24.04 62.92 24.04 62.48C24.04 62.04 24.4 61.68 24.84 61.68H74.33C74.77 61.68 75.13 62.04 75.13 62.48C75.13 62.92 74.77 63.28 74.33 63.28Z" fill="#0E1721"/>
  <path d="M74.33 71.21H24.84C24.4 71.21 24.04 70.85 24.04 70.41C24.04 69.97 24.4 69.61 24.84 69.61H74.33C74.77 69.61 75.13 69.97 75.13 70.41C75.13 70.85 74.77 71.21 74.33 71.21Z" fill="#0E1721"/>
  <path d="M36.91 88.83C36.1 88.83 35.29 88.7 34.52 88.45C33.6 88.14 32.77 87.66 31.97 87.2C31.67 87.03 31.38 86.86 31.08 86.7C30.29 86.28 29.11 85.73 27.98 85.84C27.12 85.93 26.17 86.53 26.06 87.4C26.01 87.84 25.6 88.15 25.17 88.09C24.73 88.04 24.42 87.64 24.48 87.2C24.67 85.69 26.1 84.42 27.82 84.25C29.39 84.09 30.86 84.77 31.84 85.29C32.15 85.46 32.46 85.64 32.77 85.81C33.54 86.25 34.26 86.67 35.04 86.93C36.96 87.58 39.21 87.17 40.78 85.9C41.12 85.62 41.63 85.68 41.9 86.02C42.18 86.36 42.12 86.87 41.78 87.14C40.42 88.24 38.66 88.82 36.91 88.82V88.83Z" fill="#0E1721"/>
</svg>
