<svg xmlns="http://www.w3.org/2000/svg" width="100" height="100" viewBox="0 0 100 100" fill="none">
  <path d="M87.63 0H11.53C9.03 0 7 2.03 7 4.53V95.46C7 97.96 9.03 100 11.53 100H87.62C90.12 100 92.15 97.97 92.15 95.46V4.53C92.15 2.03 90.12 0 87.62 0H87.63ZM8.6 4.53C8.6 2.91 9.92 1.59 11.54 1.59H87.63C89.25 1.59 90.57 2.91 90.57 4.53V21.9H8.6V4.53ZM87.63 98.4H11.53C9.91 98.4 8.59 97.08 8.59 95.46V23.5H90.56V95.47C90.56 97.09 89.24 98.41 87.62 98.41L87.63 98.4Z" fill="#4279B6"/>
  <path d="M74.33 53.76H24.84C24.4 53.76 24.04 54.12 24.04 54.56C24.04 55 24.4 55.36 24.84 55.36H74.33C74.77 55.36 75.13 55 75.13 54.56C75.13 54.12 74.77 53.76 74.33 53.76Z" fill="#2D557F"/>
  <path d="M74.33 45.89H24.84C24.4 45.89 24.04 46.25 24.04 46.69C24.04 47.13 24.4 47.49 24.84 47.49H74.33C74.77 47.49 75.13 47.13 75.13 46.69C75.13 46.25 74.77 45.89 74.33 45.89Z" fill="#2D557F"/>
  <path d="M74.33 38.02H24.84C24.4 38.02 24.04 38.38 24.04 38.82C24.04 39.26 24.4 39.62 24.84 39.62H74.33C74.77 39.62 75.13 39.26 75.13 38.82C75.13 38.38 74.77 38.02 74.33 38.02Z" fill="#2D557F"/>
  <path d="M24.84 31.74H74.33C74.77 31.74 75.13 31.38 75.13 30.94C75.13 30.5 74.77 30.14 74.33 30.14H24.84C24.4 30.14 24.04 30.5 24.04 30.94C24.04 31.38 24.4 31.74 24.84 31.74Z" fill="#2D557F"/>
  <path d="M24.84 15.74H39.75C40.19 15.74 40.55 15.38 40.55 14.94C40.55 14.5 40.19 14.14 39.75 14.14H24.84C24.4 14.14 24.04 14.5 24.04 14.94C24.04 15.38 24.4 15.74 24.84 15.74Z" fill="#2D557F"/>
  <path d="M74.33 61.69H24.84C24.4 61.69 24.04 62.05 24.04 62.49C24.04 62.93 24.4 63.29 24.84 63.29H74.33C74.77 63.29 75.13 62.93 75.13 62.49C75.13 62.05 74.77 61.69 74.33 61.69Z" fill="#2D557F"/>
  <path d="M74.33 69.61H24.84C24.4 69.61 24.04 69.97 24.04 70.41C24.04 70.85 24.4 71.21 24.84 71.21H74.33C74.77 71.21 75.13 70.85 75.13 70.41C75.13 69.97 74.77 69.61 74.33 69.61Z" fill="#2D557F"/>
  <path d="M36.91 88.83C36.1 88.83 35.29 88.7 34.52 88.45C33.6 88.14 32.77 87.66 31.97 87.2C31.67 87.03 31.38 86.86 31.08 86.7C30.29 86.28 29.11 85.73 27.98 85.84C27.12 85.93 26.17 86.53 26.06 87.4C26.01 87.84 25.6 88.15 25.17 88.09C24.73 88.04 24.42 87.64 24.48 87.2C24.67 85.69 26.1 84.42 27.82 84.25C29.39 84.09 30.86 84.77 31.84 85.29C32.15 85.46 32.46 85.64 32.77 85.81C33.54 86.25 34.26 86.67 35.04 86.93C36.96 87.58 39.21 87.17 40.78 85.9C41.12 85.62 41.63 85.68 41.9 86.02C42.18 86.36 42.12 86.87 41.78 87.14C40.42 88.24 38.66 88.82 36.91 88.82V88.83Z" fill="#2D557F"/>
</svg>
