<svg xmlns="http://www.w3.org/2000/svg" width="100" height="100" viewBox="0 0 100 100" fill="none">
  <path d="M99.98 76.27C99.98 76.27 99.98 76.24 99.98 76.22C99.96 76.15 99.95 76.09 99.92 76.02C99.92 76.01 99.91 75.99 99.9 75.98C99.89 75.95 99.87 75.92 99.86 75.89L84.06 47.14C83.06 45.32 81.15 44.19 79.07 44.19H76.64C77.54 41.38 78.02 38.39 78.02 35.29C78.02 19.14 64.88 5.98999 48.72 5.98999C32.56 5.98999 19.42 19.13 19.42 35.29C19.42 38.39 19.91 41.38 20.8 44.19H17.62C15.35 44.19 13.3 45.54 12.4 47.62L0.1 76C0.03 76.15 0 76.32 0 76.49V90.61C0 92.29 1.76 93.61 4.01 93.63C4.02 93.63 4.04 93.63 4.05 93.63H95.95C95.95 93.63 95.98 93.63 95.99 93.63C98.24 93.61 100 92.29 100 90.61V76.49C100 76.42 100 76.34 99.98 76.27ZM17.63 46.63H21.71C26.15 57.17 36.59 64.59 48.72 64.59C60.85 64.59 71.29 57.17 75.73 46.63H79.06C80.25 46.63 81.34 47.28 81.91 48.32L96.72 75.27H71.16C69.4 75.27 67.88 76.31 67.47 77.79L66.64 80.76C66.54 81.12 66.01 81.5 65.3 81.5H34.67C33.96 81.5 33.46 81.14 33.34 80.8L32.23 77.62C31.74 76.22 30.28 75.28 28.6 75.28H3.08L14.65 48.61C15.17 47.42 16.34 46.65 17.63 46.65V46.63ZM75.58 35.3C75.58 38.42 75.04 41.41 74.06 44.2C73.92 44.61 73.76 45.02 73.6 45.42C73.43 45.83 73.25 46.24 73.07 46.64C68.79 55.8 59.49 62.16 48.73 62.16C37.97 62.16 28.67 55.8 24.39 46.64C24.2 46.24 24.02 45.83 23.86 45.42C23.7 45.02 23.54 44.61 23.4 44.2C22.42 41.41 21.88 38.42 21.88 35.3C21.88 20.49 33.93 8.43999 48.74 8.43999C63.55 8.43999 75.6 20.49 75.6 35.3H75.58ZM2.44 90.12V77.71H28.59C29.3 77.71 29.8 78.07 29.92 78.41L31.03 81.59C31.52 82.99 32.98 83.93 34.66 83.93H65.29C67.05 83.93 68.57 82.89 68.98 81.41L69.81 78.44C69.91 78.08 70.44 77.7 71.15 77.7H97.56V90.11C97.56 90.62 96.9 91.18 95.95 91.18H4.05C3.1 91.18 2.44 90.62 2.44 90.11V90.12Z" fill="#2D557F"/>
  <path d="M39.81 44.2L41.03 45.42L42.25 46.64L43.55 47.94C44.21 48.6 45.07 48.93 45.94 48.93C46.81 48.93 47.65 48.61 48.31 47.96L49.65 46.64L50.89 45.42L52.13 44.2L65.78 30.77C67.11 29.46 67.13 27.32 65.82 25.99C64.51 24.66 62.37 24.64 61.04 25.95L45.97 40.78L38.8 33.61C37.48 32.29 35.34 32.29 34.02 33.61C32.7 34.93 32.7 37.07 34.02 38.39L39.83 44.2H39.81Z" fill="#4279B6"/>
</svg>
