<svg xmlns="http://www.w3.org/2000/svg" width="100" height="100" viewBox="0 0 100 100" fill="none">
  <path d="M2.34 20.9L42.07 49.54L2.34 78.17C1.37 77.32 0.75 76.07 0.75 74.68V24.39C0.75 23 1.37 21.75 2.34 20.9Z" fill="#4279B6"/>
  <path d="M2.34 78.92C2.16 78.92 1.99 78.86 1.85 78.74C0.68 77.72 0 76.24 0 74.68V24.39C0 22.83 0.67 21.35 1.85 20.33C2.11 20.1 2.5 20.08 2.78 20.29L42.51 48.93C42.71 49.07 42.82 49.3 42.82 49.54C42.82 49.78 42.7 50.01 42.51 50.15L2.78 78.78C2.65 78.87 2.49 78.92 2.34 78.92ZM2.42 21.88C1.83 22.58 1.5 23.46 1.5 24.39V74.68C1.5 75.61 1.83 76.49 2.42 77.19L40.78 49.54L2.42 21.88Z" fill="#0E1721"/>
  <path d="M99.25 24.39V74.68C99.25 76.07 98.63 77.32 97.66 78.17L57.93 49.53L97.66 20.9C98.63 21.75 99.25 23 99.25 24.39Z" fill="#4279B6"/>
  <path d="M97.66 78.92C97.51 78.92 97.35 78.87 97.22 78.78L57.49 50.14C57.29 50 57.18 49.77 57.18 49.53C57.18 49.29 57.3 49.06 57.49 48.92L97.22 20.29C97.5 20.09 97.89 20.1 98.15 20.33C99.32 21.35 100 22.83 100 24.39V74.68C100 76.24 99.33 77.72 98.15 78.74C98.01 78.86 97.83 78.92 97.66 78.92ZM59.21 49.53L97.57 77.18C98.16 76.48 98.49 75.6 98.49 74.67V24.39C98.49 23.46 98.16 22.58 97.57 21.88L59.21 49.53Z" fill="#0E1721"/>
  <path d="M97.66 78.17C96.85 78.88 95.78 79.31 94.61 79.31H5.39C4.22 79.31 3.16 78.88 2.34 78.17L42.07 49.53L50 55.25L57.93 49.53L97.66 78.17Z" fill="#4279B6"/>
  <path d="M94.61 80.06H5.39C4.09 80.06 2.83 79.59 1.85 78.73C1.68 78.58 1.58 78.36 1.59 78.13C1.6 77.9 1.72 77.69 1.9 77.56L41.63 48.92C41.89 48.73 42.25 48.73 42.51 48.92L50 54.32L57.49 48.92C57.75 48.73 58.11 48.73 58.37 48.92L98.1 77.56C98.29 77.69 98.4 77.91 98.41 78.13C98.42 78.36 98.33 78.58 98.15 78.73C97.17 79.59 95.91 80.06 94.61 80.06ZM3.65 78.15C4.19 78.42 4.78 78.56 5.39 78.56H94.61C95.22 78.56 95.81 78.42 96.35 78.15L57.93 50.46L50.44 55.86C50.18 56.05 49.82 56.05 49.56 55.86L42.07 50.46L3.65 78.15Z" fill="#0E1721"/>
  <path d="M50 43.82L57.93 49.53L50 55.25L42.07 49.53L50 43.82Z" fill="#4279B6"/>
  <path d="M50 56C49.85 56 49.69 55.95 49.56 55.86L41.63 50.14C41.43 50 41.32 49.77 41.32 49.53C41.32 49.29 41.44 49.06 41.63 48.92L49.56 43.2C49.82 43.01 50.18 43.01 50.44 43.2L58.37 48.92C58.57 49.06 58.68 49.29 58.68 49.53C58.68 49.77 58.56 50 58.37 50.14L50.44 55.86C50.31 55.95 50.15 56 50 56ZM43.36 49.53L50 54.32L56.64 49.53L50 44.74L43.36 49.53Z" fill="#0E1721"/>
  <path d="M97.66 20.9L50 55.25L2.34 20.9C3.15 20.19 4.22 19.76 5.39 19.76H94.61C95.78 19.76 96.84 20.19 97.66 20.9Z" fill="#FCCD2A"/>
  <path d="M50 56C49.85 56 49.69 55.95 49.56 55.86L1.9 21.51C1.71 21.38 1.6 21.16 1.59 20.94C1.58 20.71 1.67 20.49 1.85 20.34C2.83 19.48 4.09 19.01 5.39 19.01H94.61C95.91 19.01 97.17 19.48 98.15 20.34C98.32 20.49 98.42 20.71 98.41 20.94C98.4 21.17 98.28 21.38 98.1 21.51L50.44 55.86C50.31 55.95 50.15 56 50 56ZM3.65 20.91L50 54.32L96.35 20.91C95.81 20.64 95.22 20.5 94.61 20.5H5.39C4.78 20.5 4.19 20.64 3.65 20.91Z" fill="#0E1721"/>
</svg>
