<svg xmlns="http://www.w3.org/2000/svg" width="100" height="100" viewBox="0 0 100 100" fill="none">
  <path d="M97.66 78.92C97.51 78.92 97.35 78.87 97.22 78.78L57.49 50.14C57.15 49.9 57.08 49.43 57.32 49.09C57.56 48.75 58.03 48.68 58.37 48.92L98.1 77.56C98.44 77.8 98.51 78.27 98.27 78.61C98.12 78.81 97.89 78.92 97.66 78.92Z" fill="#2D557F"/>
  <path d="M2.33999 78.92C2.10999 78.92 1.87999 78.81 1.72999 78.61C1.48999 78.27 1.55999 77.8 1.89999 77.56L41.63 48.92C41.97 48.68 42.44 48.75 42.68 49.09C42.92 49.43 42.85 49.9 42.51 50.14L2.77999 78.78C2.64999 78.88 2.48999 78.92 2.33999 78.92Z" fill="#2D557F"/>
  <path d="M50 56C49.85 56 49.69 55.95 49.56 55.86L1.89999 21.51C1.55999 21.27 1.48999 20.8 1.72999 20.46C1.96999 20.12 2.43999 20.05 2.77999 20.29L50 54.32L97.22 20.29C97.56 20.05 98.03 20.12 98.27 20.46C98.51 20.8 98.44 21.27 98.1 21.51L50.44 55.86C50.31 55.95 50.15 56 50 56Z" fill="#2D557F"/>
  <path d="M94.61 80.06H5.39C2.42 80.06 0 77.64 0 74.67V24.39C0 21.42 2.42 19 5.39 19H94.61C97.58 19 100 21.42 100 24.39V74.68C100 77.65 97.58 80.07 94.61 80.07V80.06ZM5.39 20.5C3.25 20.5 1.5 22.24 1.5 24.39V74.68C1.5 76.82 3.24 78.57 5.39 78.57H94.61C96.75 78.57 98.5 76.83 98.5 74.68V24.39C98.5 22.25 96.76 20.5 94.61 20.5H5.39Z" fill="#4279B6"/>
</svg>
