<svg xmlns="http://www.w3.org/2000/svg" width="100" height="100" viewBox="0 0 100 100" fill="none">
  <path d="M0.77 50.77C0.34 50.77 0 50.43 0 50C0 22.43 22.43 0 50 0C60.77 0 71.02 3.37 79.66 9.74C88.13 15.99 94.31 24.55 97.55 34.5C97.68 34.9 97.46 35.34 97.06 35.47C96.66 35.6 96.22 35.38 96.09 34.98C92.95 25.33 86.95 17.03 78.75 10.98C70.37 4.81 60.43 1.54 50 1.54C23.28 1.54 1.54 23.28 1.54 50C1.54 50.43 1.19 50.77 0.77 50.77Z" fill="#2D557F"/>
  <path d="M50 100C39.23 100 28.98 96.63 20.34 90.26C11.87 84.01 5.68998 75.45 2.44998 65.5C2.31998 65.1 2.53998 64.66 2.93998 64.53C3.33998 64.4 3.77998 64.62 3.90998 65.02C7.04998 74.67 13.05 82.97 21.25 89.02C29.62 95.2 39.56 98.46 49.99 98.46C76.71 98.46 98.45 76.72 98.45 50C98.45 49.57 98.79 49.23 99.22 49.23C99.65 49.23 99.99 49.57 99.99 50C99.99 77.57 77.56 100 49.99 100H50Z" fill="#2D557F"/>
  <path d="M21.63 32.62C21.49 32.62 21.34 32.58 21.21 32.5C20.85 32.27 20.75 31.79 20.98 31.44C22.12 29.66 23.43 27.98 24.88 26.44C31.37 19.53 40.52 15.56 50 15.56C59.48 15.56 68.63 19.52 75.12 26.44C76.37 27.77 77.52 29.21 78.55 30.73C78.79 31.08 78.7 31.56 78.34 31.8C77.99 32.04 77.51 31.95 77.27 31.59C76.29 30.15 75.19 28.77 74 27.49C67.71 20.79 59.19 17.1 50.01 17.1C40.83 17.1 32.3 20.79 26.02 27.49C24.64 28.96 23.39 30.57 22.3 32.27C22.15 32.5 21.9 32.62 21.65 32.62H21.63Z" fill="#2D557F"/>
  <path d="M50 84.44C40.52 84.44 31.36 80.47 24.88 73.56C23.49 72.08 22.22 70.46 21.11 68.75C20.88 68.39 20.98 67.92 21.34 67.68C21.7 67.45 22.17 67.55 22.41 67.91C23.47 69.54 24.68 71.08 26.01 72.5C32.3 79.2 40.82 82.9 50.01 82.9C59.2 82.9 67.72 79.21 74.01 72.5C75.39 71.03 76.64 69.42 77.73 67.72C77.96 67.36 78.44 67.26 78.79 67.49C79.15 67.72 79.25 68.2 79.02 68.55C77.88 70.33 76.57 72.01 75.13 73.55C68.64 80.47 59.48 84.43 50.01 84.43L50 84.44Z" fill="#2D557F"/>
  <path d="M88.99 63.565C88.99 62.6289 88.2311 61.87 87.295 61.87C86.3589 61.87 85.6 62.6289 85.6 63.565C85.6 64.5011 86.3589 65.26 87.295 65.26C88.2311 65.26 88.99 64.5011 88.99 63.565Z" fill="#4279B6"/>
  <path d="M82.21 63.565C82.21 62.6289 81.4511 61.87 80.515 61.87C79.5789 61.87 78.82 62.6289 78.82 63.565C78.82 64.5011 79.5789 65.26 80.515 65.26C81.4511 65.26 82.21 64.5011 82.21 63.565Z" fill="#4279B6"/>
  <path d="M75.43 63.565C75.43 62.6289 74.6711 61.87 73.735 61.87C72.7989 61.87 72.04 62.6289 72.04 63.565C72.04 64.5011 72.7989 65.26 73.735 65.26C74.6711 65.26 75.43 64.5011 75.43 63.565Z" fill="#4279B6"/>
  <path d="M27.96 36.435C27.96 35.4989 27.2011 34.74 26.265 34.74C25.3289 34.74 24.57 35.4989 24.57 36.435C24.57 37.3711 25.3289 38.13 26.265 38.13C27.2011 38.13 27.96 37.3711 27.96 36.435Z" fill="#4279B6"/>
  <path d="M21.18 36.435C21.18 35.4989 20.4211 34.74 19.485 34.74C18.5489 34.74 17.79 35.4989 17.79 36.435C17.79 37.3711 18.5489 38.13 19.485 38.13C20.4211 38.13 21.18 37.3711 21.18 36.435Z" fill="#4279B6"/>
  <path d="M14.4 36.435C14.4 35.4989 13.6411 34.74 12.705 34.74C11.7689 34.74 11.01 35.4989 11.01 36.435C11.01 37.3711 11.7689 38.13 12.705 38.13C13.6411 38.13 14.4 37.3711 14.4 36.435Z" fill="#4279B6"/>
  <path d="M16.1 72.8C15.9 72.8 15.7 72.72 15.55 72.57L0.300012 57.32C1.22041e-05 57.02 1.22041e-05 56.53 0.300012 56.23L15.55 40.98C15.77 40.76 16.1 40.69 16.39 40.81C16.68 40.93 16.87 41.21 16.87 41.52V49.23H83.67C84.1 49.23 84.44 49.57 84.44 50V56.99L98.14 43.29L84.67 29.82V36.44C84.67 36.87 84.33 37.21 83.9 37.21H31.35C30.92 37.21 30.58 36.87 30.58 36.44C30.58 36.01 30.92 35.67 31.35 35.67H83.13V27.96C83.13 27.65 83.32 27.37 83.61 27.25C83.9 27.13 84.23 27.2 84.45 27.42L99.78 42.75C100.08 43.05 100.08 43.54 99.78 43.84L84.22 59.4C84 59.62 83.67 59.69 83.38 59.57C83.09 59.45 82.9 59.17 82.9 58.86V50.78H16.1C15.67 50.78 15.33 50.44 15.33 50.01V43.39L1.94001 56.77L15.34 70.17V63.56C15.34 63.13 15.69 62.79 16.11 62.79H68.65C69.08 62.79 69.42 63.13 69.42 63.56C69.42 63.99 69.08 64.33 68.65 64.33H16.87V72.03C16.87 72.34 16.68 72.62 16.39 72.74C16.29 72.78 16.19 72.8 16.1 72.8Z" fill="#4279B6"/>
</svg>
