<svg xmlns="http://www.w3.org/2000/svg" width="100" height="100" viewBox="0 0 100 100" fill="none">
  <path d="M49.97 4.69C25 4.69 4.76001 24.93 4.76001 49.89C4.76001 74.85 25 95.09 49.96 95.09C74.92 95.09 95.16 74.85 95.16 49.89C95.16 24.93 74.93 4.69 49.97 4.69Z" fill="#4279B6"/>
  <path d="M49.97 95.79C24.66 95.79 4.08002 75.2 4.08002 49.9C4.08002 24.6 24.66 4 49.97 4C75.28 4 95.86 24.59 95.86 49.89C95.86 75.19 75.27 95.78 49.97 95.78V95.79ZM49.97 5.38C25.42 5.38 5.45002 25.35 5.45002 49.89C5.45002 74.43 25.42 94.4 49.96 94.4C74.5 94.4 94.47 74.43 94.47 49.89C94.47 25.35 74.51 5.38 49.97 5.38Z" fill="#0E1721"/>
  <path d="M49.97 81C67.1516 81 81.08 67.0716 81.08 49.89C81.08 32.7085 67.1516 18.78 49.97 18.78C32.7884 18.78 18.86 32.7085 18.86 49.89C18.86 67.0716 32.7884 81 49.97 81Z" fill="white"/>
  <path d="M49.97 81.69C32.44 81.69 18.17 67.43 18.17 49.89C18.17 32.35 32.43 18.09 49.97 18.09C67.51 18.09 81.77 32.35 81.77 49.89C81.77 67.43 67.51 81.69 49.97 81.69ZM49.97 19.48C33.2 19.48 19.55 33.13 19.55 49.9C19.55 66.67 33.2 80.32 49.97 80.32C66.74 80.32 80.39 66.67 80.39 49.9C80.39 33.13 66.74 19.48 49.97 19.48Z" fill="#0E1721"/>
  <path d="M74.5 62.04C74.5 60.8415 73.5284 59.87 72.33 59.87C71.1315 59.87 70.16 60.8415 70.16 62.04C70.16 63.2385 71.1315 64.21 72.33 64.21C73.5284 64.21 74.5 63.2385 74.5 62.04Z" fill="#FC8B27"/>
  <path d="M72.33 64.76C70.83 64.76 69.61 63.54 69.61 62.04C69.61 60.54 70.83 59.32 72.33 59.32C73.83 59.32 75.05 60.54 75.05 62.04C75.05 63.54 73.83 64.76 72.33 64.76ZM72.33 60.42C71.44 60.42 70.71 61.15 70.71 62.04C70.71 62.93 71.44 63.66 72.33 63.66C73.22 63.66 73.95 62.93 73.95 62.04C73.95 61.15 73.22 60.42 72.33 60.42Z" fill="#0E1721"/>
  <path d="M66.35 61.84C66.35 60.6415 65.3785 59.67 64.18 59.67C62.9816 59.67 62.01 60.6415 62.01 61.84C62.01 63.0384 62.9816 64.01 64.18 64.01C65.3785 64.01 66.35 63.0384 66.35 61.84Z" fill="#FC8B27"/>
  <path d="M64.18 64.57C62.68 64.57 61.46 63.35 61.46 61.85C61.46 60.35 62.68 59.13 64.18 59.13C65.68 59.13 66.9 60.35 66.9 61.85C66.9 63.35 65.68 64.57 64.18 64.57ZM64.18 60.23C63.29 60.23 62.56 60.96 62.56 61.85C62.56 62.74 63.29 63.47 64.18 63.47C65.07 63.47 65.8 62.74 65.8 61.85C65.8 60.96 65.07 60.23 64.18 60.23Z" fill="#0E1721"/>
  <path d="M58.21 62.04C58.21 60.8415 57.2385 59.87 56.04 59.87C54.8415 59.87 53.87 60.8415 53.87 62.04C53.87 63.2385 54.8415 64.21 56.04 64.21C57.2385 64.21 58.21 63.2385 58.21 62.04Z" fill="#FC8B27"/>
  <path d="M56.04 64.76C54.54 64.76 53.32 63.54 53.32 62.04C53.32 60.54 54.54 59.32 56.04 59.32C57.54 59.32 58.76 60.54 58.76 62.04C58.76 63.54 57.54 64.76 56.04 64.76ZM56.04 60.42C55.15 60.42 54.42 61.15 54.42 62.04C54.42 62.93 55.15 63.66 56.04 63.66C56.93 63.66 57.66 62.93 57.66 62.04C57.66 61.15 56.93 60.42 56.04 60.42Z" fill="#0E1721"/>
  <path d="M46.06 37.84C46.06 36.6415 45.0884 35.67 43.89 35.67C42.6915 35.67 41.72 36.6415 41.72 37.84C41.72 39.0384 42.6915 40.01 43.89 40.01C45.0884 40.01 46.06 39.0384 46.06 37.84Z" fill="#FCCD2A"/>
  <path d="M43.89 40.57C42.39 40.57 41.17 39.35 41.17 37.85C41.17 36.35 42.39 35.13 43.89 35.13C45.39 35.13 46.61 36.35 46.61 37.85C46.61 39.35 45.39 40.57 43.89 40.57ZM43.89 36.22C43 36.22 42.27 36.95 42.27 37.84C42.27 38.73 43 39.46 43.89 39.46C44.78 39.46 45.51 38.73 45.51 37.84C45.51 36.95 44.78 36.22 43.89 36.22Z" fill="#0E1721"/>
  <path d="M37.92 37.65C37.92 36.4515 36.9484 35.48 35.75 35.48C34.5515 35.48 33.58 36.4515 33.58 37.65C33.58 38.8484 34.5515 39.82 35.75 39.82C36.9484 39.82 37.92 38.8484 37.92 37.65Z" fill="#FCCD2A"/>
  <path d="M35.75 40.37C34.25 40.37 33.03 39.15 33.03 37.65C33.03 36.15 34.25 34.93 35.75 34.93C37.25 34.93 38.47 36.15 38.47 37.65C38.47 39.15 37.25 40.37 35.75 40.37ZM35.75 36.03C34.86 36.03 34.13 36.76 34.13 37.65C34.13 38.54 34.86 39.27 35.75 39.27C36.64 39.27 37.37 38.54 37.37 37.65C37.37 36.76 36.64 36.03 35.75 36.03Z" fill="#0E1721"/>
  <path d="M29.77 37.84C29.77 36.6415 28.7985 35.67 27.6 35.67C26.4015 35.67 25.43 36.6415 25.43 37.84C25.43 39.0384 26.4015 40.01 27.6 40.01C28.7985 40.01 29.77 39.0384 29.77 37.84Z" fill="#FCCD2A"/>
  <path d="M27.6 40.57C26.1 40.57 24.88 39.35 24.88 37.85C24.88 36.35 26.1 35.13 27.6 35.13C29.1 35.13 30.32 36.35 30.32 37.85C30.32 39.35 29.1 40.57 27.6 40.57ZM27.6 36.22C26.71 36.22 25.98 36.95 25.98 37.84C25.98 38.73 26.71 39.46 27.6 39.46C28.49 39.46 29.22 38.73 29.22 37.84C29.22 36.95 28.49 36.22 27.6 36.22Z" fill="#0E1721"/>
  <path d="M49.97 37.75H85.58V30.15L99.31 43.88L85.37 57.82V49.89H14.35V42.3L0.690002 55.96L14.36 69.63V62.04H49.97" fill="white"/>
  <path d="M14.36 70.32C14.18 70.32 14 70.25 13.87 70.12L0.199998 56.45C-0.0700024 56.18 -0.0700024 55.74 0.199998 55.47L13.86 41.81C14.06 41.61 14.35 41.55 14.61 41.66C14.87 41.77 15.04 42.02 15.04 42.3V49.2H85.38C85.76 49.2 86.07 49.51 86.07 49.89V56.15L98.34 43.88L86.28 31.82V37.75C86.28 38.13 85.97 38.44 85.59 38.44H49.97C49.59 38.44 49.28 38.13 49.28 37.75C49.28 37.37 49.59 37.06 49.97 37.06H84.9V30.16C84.9 29.88 85.07 29.63 85.33 29.52C85.59 29.41 85.88 29.47 86.08 29.67L99.81 43.4C100.08 43.67 100.08 44.11 99.81 44.38L85.87 58.32C85.67 58.52 85.38 58.58 85.12 58.47C84.86 58.36 84.69 58.11 84.69 57.83V50.6H14.35C13.97 50.6 13.66 50.29 13.66 49.91V43.98L1.67 55.96L13.67 67.96V62.04C13.67 61.66 13.98 61.35 14.36 61.35H49.97C50.35 61.35 50.66 61.66 50.66 62.04C50.66 62.42 50.35 62.73 49.97 62.73H15.05V69.62C15.05 69.9 14.88 70.15 14.62 70.26C14.53 70.3 14.44 70.31 14.36 70.31V70.32Z" fill="#0E1721"/>
  <path fill-rule="evenodd" clip-rule="evenodd" d="M85.58 37.75H49.97L50 49.89H85.58L85.37 57.82L99.31 43.88L85.58 30.15V37.75Z" fill="#FCCD2A"/>
  <path d="M14.35 42.3V49.89H50L49.97 62.04H14.35L14.36 69.63L0.690002 55.96L14.35 42.3Z" fill="#FC8B27"/>
  <path d="M14.36 70.32C14.18 70.32 14 70.25 13.87 70.12L0.199998 56.45C-0.0700024 56.18 -0.0700024 55.74 0.199998 55.47L13.86 41.81C14.06 41.61 14.35 41.55 14.61 41.66C14.87 41.77 15.04 42.02 15.04 42.3V49.2H49.31L49.28 37.75C49.28 37.57 49.35 37.39 49.48 37.26C49.61 37.13 49.79 37.06 49.97 37.06H84.9V30.16C84.9 29.88 85.07 29.63 85.33 29.52C85.59 29.41 85.88 29.47 86.08 29.67L99.81 43.4C100.08 43.67 100.08 44.11 99.81 44.38L85.87 58.32C85.67 58.52 85.38 58.58 85.12 58.47C84.86 58.36 84.69 58.11 84.69 57.83V50.6H50.69L50.66 62.06C50.66 62.44 50.35 62.75 49.97 62.75H15.05V69.64C15.05 69.92 14.88 70.17 14.62 70.28C14.53 70.32 14.44 70.33 14.36 70.33V70.32ZM1.67 55.96L13.67 67.96V62.04C13.67 61.66 13.98 61.35 14.36 61.35H49.28L49.31 50.58H14.35C13.97 50.58 13.66 50.27 13.66 49.89V43.96L1.67 55.96ZM50.69 49.2H85.38C85.76 49.2 86.07 49.51 86.07 49.89V56.15L98.34 43.88L86.28 31.82V37.75C86.28 38.13 85.97 38.44 85.59 38.44H50.66L50.69 49.21V49.2Z" fill="#0E1721"/>
</svg>
