<svg xmlns="http://www.w3.org/2000/svg" width="100" height="100" viewBox="0 0 100 100" fill="none">
  <path d="M79.89 19.66H34.69C34.29 19.66 33.97 19.34 33.97 18.96V13.68C33.97 11.88 32.53 10.44 30.73 10.44H4.99998C3.11998 10.44 1.41998 11.98 1.41998 13.68V80.81L8.65998 30.29C8.65998 30.29 8.65998 30.23 8.67998 30.21C9.31998 27.87 11.48 26.23 13.92 26.23H83.13V22.93C83.13 21.13 81.67 19.67 79.89 19.67V19.66Z" fill="#FC8B27"/>
  <path d="M88.27 27.58H13.92C12.12 27.58 10.5 28.8 10 30.52L4.34003 70.12L12.04 33.6V33.56C12.7 31.2 14.86 29.58 17.3 29.58H89.89V29.2C89.89 28.3 89.17 27.58 88.27 27.58Z" fill="#FCCD2A"/>
  <path d="M91.65 30.94H17.3C15.48 30.94 13.86 32.16 13.36 33.9L5.71997 70.18L14.88 37.54C15.54 35.18 17.7 33.54 20.16 33.54H93.27V32.56C93.27 31.66 92.53 30.94 91.65 30.94Z" fill="#3C8645"/>
  <path d="M98.85 35.66C97.83 34.36 96.31 33.58 94.63 33.54V32.56C94.63 30.9 93.29 29.58 91.65 29.58H91.25V29.2C91.25 27.56 89.91 26.22 88.27 26.22H84.55V22.92C84.55 20.34 82.47 18.24 79.89 18.24H35.41V13.68C35.41 11.1 33.31 9 30.73 9H5C2.32 9 0 11.18 0 13.68V90.67C0 90.75 0.02 90.83 0.04 90.91C0.06 90.97 0.1 91.05 0.14 91.11C0.16 91.13 0.18 91.17 0.22 91.19C0.26 91.25 0.32 91.29 0.38 91.31C0.48 91.37 0.6 91.39 0.7 91.39H86.15C86.47 91.39 86.77 91.17 86.85 90.85L99.83 40.41C100.25 38.75 99.89 37.03 98.85 35.67V35.66ZM98.45 40.04L85.59 89.96H1.64L1.86 89.16L1.88 89.12L1.92 88.98L16.24 37.94C16.74 36.18 18.34 34.98 20.16 34.98H94.51C95.77 34.98 96.95 35.54 97.71 36.54C98.49 37.54 98.75 38.82 98.45 40.04ZM1.42 13.68C1.42 11.98 3.12 10.44 5 10.44H30.72C32.52 10.44 33.96 11.88 33.96 13.68V18.96C33.96 19.34 34.28 19.66 34.68 19.66H79.88C81.66 19.66 83.12 21.12 83.12 22.92V26.22H13.92C11.48 26.22 9.32 27.86 8.68 30.2C8.66 30.22 8.66 30.26 8.66 30.28L1.42 80.81V13.68ZM89.89 29.2V29.58H17.3C14.86 29.58 12.7 31.2 12.04 33.56V33.6L4.34 70.12L10 30.52C10.5 28.8 12.12 27.58 13.92 27.58H88.27C89.17 27.58 89.89 28.3 89.89 29.2ZM93.27 32.56V33.54H20.16C17.7 33.54 15.54 35.18 14.88 37.54L5.72 70.18L13.36 33.9C13.86 32.16 15.48 30.94 17.3 30.94H91.65C92.53 30.94 93.27 31.66 93.27 32.56Z" fill="#0E1721"/>
  <path d="M97.71 36.54C96.95 35.54 95.77 34.98 94.51 34.98H20.16C18.34 34.98 16.74 36.18 16.24 37.94L1.92001 88.99L1.88001 89.13L1.86001 89.17L1.64001 89.97H85.59L98.45 40.05C98.75 38.83 98.49 37.55 97.71 36.55V36.54Z" fill="#4279B6"/>
</svg>
