<svg xmlns="http://www.w3.org/2000/svg" width="100" height="100" viewBox="0 0 100 100" fill="none">
  <path d="M91.65 29.57H91.26V29.2C91.26 27.56 89.92 26.22 88.28 26.22H13.93C11.5 26.22 9.33999 27.86 8.67999 30.2C8.67999 30.23 8.66999 30.26 8.65999 30.29L1.42999 80.84L0.719987 85.83L0.0799866 90.28L0.149987 90.03L0.719987 88.01L1.42999 85.47L1.48999 85.27L2.89999 80.26L2.95999 80.05L5.75999 70.06L13.38 33.9C13.88 32.16 15.49 30.94 17.31 30.94H91.65C92.54 30.94 93.26 31.66 93.26 32.55V33.54H94.51C94.51 33.54 94.59 33.55 94.62 33.55V32.55C94.62 30.91 93.28 29.57 91.64 29.57H91.65ZM10.01 30.52C10.52 28.79 12.12 27.58 13.93 27.58H88.27C89.16 27.58 89.88 28.3 89.88 29.19V29.56H17.3C14.87 29.56 12.71 31.2 12.05 33.54C12.05 33.55 12.05 33.57 12.04 33.58L4.33999 70.13L10.01 30.5V30.52Z" fill="#2D557F"/>
  <path d="M98.85 35.67C97.83 34.35 96.29 33.59 94.63 33.56C94.59 33.56 94.56 33.55 94.52 33.55H20.16C17.71 33.55 15.54 35.2 14.88 37.55L5.76 70.06L2.96 80.05L2.9 80.26L1.49 85.27L1.43 85.47L0.72 88.01L0.15 90.03L0.08 90.28L0.72 85.83L1.43 80.84V13.67C1.43 11.97 3.13 10.43 5 10.43H30.73C32.52 10.43 33.97 11.89 33.97 13.67V18.95C33.97 19.34 34.29 19.66 34.68 19.66H79.87C81.66 19.66 83.11 21.12 83.11 22.9V26.21H84.54V22.9C84.54 20.32 82.44 18.23 79.87 18.23H35.39V13.67C35.39 11.09 33.29 9 30.72 9H5C2.34 9 0 11.18 0 13.67V90.66C0 90.66 0.01 90.7 0.02 90.72C0.02 90.8 0.05 90.87 0.08 90.94C0.1 90.98 0.11 91.02 0.13 91.05C0.13 91.06 0.13 91.08 0.15 91.09C0.2 91.16 0.27 91.2 0.34 91.25C0.36 91.26 0.37 91.28 0.38 91.29C0.48 91.34 0.59 91.37 0.71 91.37H86.15C86.48 91.37 86.76 91.15 86.84 90.83L99.82 40.38C100.25 38.73 99.89 37 98.84 35.65L98.85 35.67ZM98.44 40.04L85.6 89.95H1.66L1.88 89.16V89.12L1.93 88.98L16.26 37.94C16.75 36.2 18.35 34.98 20.16 34.98H94.51C95.77 34.98 96.94 35.55 97.71 36.55C98.48 37.55 98.75 38.82 98.43 40.05L98.44 40.04Z" fill="#4279B6"/>
</svg>
