<svg xmlns="http://www.w3.org/2000/svg" width="100" height="100" viewBox="0 0 100 100" fill="none">
  <path d="M50.08 16.96C50.89 16.96 51.56 16.3 51.56 15.48C51.56 14.66 50.9 14 50.08 14C49.26 14 48.6 14.66 48.6 15.48C48.6 16.3 49.27 16.96 50.08 16.96Z" fill="#2D557F"/>
  <path d="M33.5399 18.43C32.8299 18.84 32.5899 19.74 32.9999 20.45C33.4099 21.16 34.3099 21.4 35.0199 20.99C35.7199 20.58 35.9699 19.68 35.5599 18.97C35.1499 18.26 34.2499 18.02 33.5499 18.43H33.5399Z" fill="#2D557F"/>
  <path d="M21.97 32.56C22.68 32.97 23.58 32.73 23.99 32.02C24.4 31.32 24.16 30.41 23.45 30C22.74 29.59 21.84 29.84 21.43 30.54C21.02 31.25 21.27 32.15 21.97 32.56Z" fill="#2D557F"/>
  <path d="M18.48 45.59C17.66 45.59 17 46.26 17 47.07C17 47.88 17.66 48.55 18.48 48.55C19.3 48.55 19.96 47.88 19.96 47.07C19.96 46.25 19.3 45.59 18.48 45.59Z" fill="#2D557F"/>
  <path d="M21.97 61.59C21.26 62 21.02 62.9 21.43 63.61C21.84 64.32 22.74 64.56 23.45 64.15C24.16 63.74 24.4 62.83 23.99 62.13C23.58 61.42 22.68 61.18 21.97 61.59Z" fill="#2D557F"/>
  <path d="M35.02 73.16C34.31 72.75 33.41 72.99 33 73.7C32.59 74.4 32.84 75.31 33.54 75.72C34.24 76.13 35.15 75.89 35.55 75.18C35.96 74.47 35.72 73.57 35.01 73.16H35.02Z" fill="#2D557F"/>
  <path d="M65.13 73.16C64.42 73.57 64.18 74.47 64.59 75.18C65 75.89 65.91 76.13 66.61 75.72C67.31 75.31 67.55 74.41 67.15 73.7C66.74 72.99 65.84 72.75 65.13 73.16Z" fill="#2D557F"/>
  <path d="M78.17 61.6C77.46 61.19 76.56 61.43 76.15 62.14C75.74 62.85 75.99 63.75 76.69 64.16C77.4 64.57 78.3 64.32 78.71 63.62C79.11 62.91 78.87 62.01 78.16 61.6H78.17Z" fill="#2D557F"/>
  <path d="M81.6699 45.6C80.8499 45.6 80.1899 46.26 80.1899 47.08C80.1899 47.9 80.8499 48.56 81.6699 48.56C82.4899 48.56 83.1499 47.9 83.1499 47.08C83.1499 46.26 82.4899 45.6 81.6699 45.6Z" fill="#2D557F"/>
  <path d="M78.18 32.56C78.88 32.15 79.12 31.25 78.72 30.54C78.31 29.84 77.41 29.59 76.7 30C75.99 30.41 75.75 31.32 76.16 32.02C76.57 32.73 77.47 32.97 78.19 32.56H78.18Z" fill="#2D557F"/>
  <path d="M65.13 21C65.84 21.41 66.74 21.17 67.15 20.46C67.56 19.75 67.31 18.85 66.6 18.44C65.9 18.04 65 18.27 64.58 18.98C64.17 19.69 64.42 20.6 65.12 21H65.13Z" fill="#2D557F"/>
  <path d="M52.53 46.77C52.42 46.5 52.25 46.27 52.06 46.06C51.99 45.98 51.92 45.9 51.84 45.83C51.63 45.64 51.39 45.47 51.13 45.35C50.8 45.21 50.45 45.12 50.07 45.12C49.69 45.12 49.34 45.2 49.01 45.35C48.74 45.47 48.51 45.64 48.3 45.83C47.97 46.13 47.73 46.5 47.59 46.92C47.5 47.19 47.42 47.47 47.42 47.78C47.42 49.25 48.61 50.45 50.08 50.45C50.58 50.45 51.02 50.28 51.42 50.04C51.73 49.85 51.99 49.62 52.2 49.33C52.36 49.11 52.49 48.88 52.58 48.62C52.67 48.36 52.75 48.09 52.75 47.79C52.75 47.49 52.67 47.21 52.58 46.94C52.56 46.89 52.57 46.84 52.55 46.79L52.53 46.77Z" fill="#2D557F"/>
  <path d="M69.01 45.34H52.56V23.89C52.56 22.52 51.44 21.4 50.07 21.4C48.7 21.4 47.58 22.52 47.58 23.89V46.91C47.73 46.49 47.97 46.11 48.29 45.82C48.5 45.63 48.74 45.45 49 45.34V23.89C49 23.31 49.48 22.83 50.06 22.83C50.64 22.83 51.12 23.3 51.12 23.89V45.34C51.39 45.46 51.62 45.63 51.83 45.82C51.91 45.89 51.98 45.97 52.05 46.05C52.24 46.27 52.41 46.5 52.52 46.76C52.54 46.8 52.53 46.86 52.55 46.91V46.76H69C69.5 46.76 69.91 47.17 69.91 47.67C69.91 48.17 69.5 48.58 69 48.58H52.56C52.47 48.84 52.34 49.07 52.18 49.29C51.97 49.58 51.71 49.82 51.4 50H69C70.29 50 71.34 48.95 71.34 47.66C71.34 46.37 70.29 45.32 69 45.32L69.01 45.34Z" fill="#4279B6"/>
  <path d="M50.08 0C24.12 0 3 21.12 3 47.08C3 71.65 22.05 92.11 46.5 93.96V99.29C46.5 99.54 46.64 99.78 46.86 99.91C46.97 99.97 47.09 100 47.22 100C47.35 100 47.47 99.97 47.58 99.91L64.49 90.14C64.71 90.01 64.85 89.78 64.85 89.52C64.85 89.26 64.71 89.03 64.49 88.9L57.66 84.96L47.57 79.13C47.35 79 47.08 79 46.86 79.13C46.64 79.26 46.5 79.49 46.5 79.75V84.68C37.31 83.81 28.78 79.62 22.43 72.83C15.87 65.81 12.25 56.66 12.25 47.07C12.25 26.22 29.21 9.26 50.06 9.26C70.91 9.26 87.87 26.22 87.87 47.07C87.87 58.09 83.08 68.53 74.72 75.73C74.58 75.85 74.49 76.03 74.47 76.22C74.45 76.41 74.52 76.6 74.64 76.74L74.71 76.82L79.76 82.68C79.88 82.82 80.06 82.91 80.25 82.93C80.44 82.94 80.63 82.88 80.77 82.76C91.17 73.8 97.13 60.8 97.13 47.08C97.15 21.12 76.03 0 50.08 0ZM80.4 81.2L76.21 76.34C84.55 68.89 89.31 58.26 89.31 47.07C89.31 25.43 71.71 7.83 50.07 7.83C28.43 7.83 10.84 25.44 10.84 47.08C10.84 57.03 14.59 66.53 21.4 73.81C28.17 81.05 37.32 85.44 47.17 86.17C47.37 86.19 47.56 86.12 47.71 85.98C47.82 85.88 47.88 85.75 47.91 85.6C47.92 85.55 47.94 85.5 47.94 85.45V80.98L55.42 85.3L62.72 89.51L47.95 98.04V93.28C47.95 92.9 47.66 92.59 47.28 92.57C23.24 91.1 4.43 71.12 4.43 47.08C4.43 23.04 24.91 1.43 50.08 1.43C75.25 1.43 95.73 21.91 95.73 47.08C95.73 60.14 90.15 72.53 80.4 81.21V81.2Z" fill="#4279B6"/>
</svg>
