<svg xmlns="http://www.w3.org/2000/svg" width="100" height="100" viewBox="0 0 100 100" fill="none">
  <path d="M88.7201 47.08C88.7201 68.42 71.4201 85.72 50.0801 85.72C28.7401 85.72 11.4301 68.41 11.4301 47.08C11.4301 25.75 28.7401 8.44 50.0801 8.44C71.4201 8.44 88.7201 25.74 88.7201 47.08Z" fill="white"/>
  <path d="M50.08 16.96C49.27 16.96 48.6 16.3 48.6 15.48C48.6 14.66 49.27 14 50.08 14C50.89 14 51.56 14.66 51.56 15.48C51.56 16.3 50.9 16.96 50.08 16.96Z" fill="#0E1721"/>
  <path d="M35.02 20.99C34.31 21.4 33.41 21.16 33 20.45C32.59 19.74 32.84 18.84 33.54 18.43C34.24 18.02 35.15 18.26 35.55 18.97C35.96 19.68 35.71 20.58 35.01 20.99" fill="#0E1721"/>
  <path d="M23.99 32.02C23.58 32.73 22.68 32.97 21.97 32.56C21.26 32.15 21.02 31.25 21.43 30.54C21.84 29.83 22.74 29.59 23.45 30C24.16 30.41 24.4 31.32 23.99 32.02Z" fill="#0E1721"/>
  <path d="M19.96 47.08C19.96 47.89 19.3 48.56 18.48 48.56C17.66 48.56 17 47.89 17 47.08C17 46.27 17.66 45.6 18.48 45.6C19.3 45.6 19.96 46.27 19.96 47.08Z" fill="#0E1721"/>
  <path d="M23.99 62.13C24.4 62.83 24.16 63.74 23.45 64.15C22.74 64.56 21.84 64.31 21.43 63.61C21.02 62.91 21.27 62 21.97 61.59C22.68 61.18 23.58 61.42 23.99 62.13Z" fill="#0E1721"/>
  <path d="M35.02 73.16C35.73 73.56 35.97 74.47 35.56 75.18C35.15 75.89 34.25 76.13 33.55 75.72C32.84 75.31 32.59 74.41 33.01 73.7C33.42 72.99 34.32 72.75 35.03 73.16" fill="#0E1721"/>
  <path d="M65.13 73.16C65.84 72.75 66.74 72.99 67.15 73.7C67.56 74.41 67.31 75.31 66.61 75.72C65.9 76.13 65 75.89 64.59 75.18C64.18 74.47 64.43 73.57 65.13 73.16Z" fill="#0E1721"/>
  <path d="M76.15 62.13C76.56 61.42 77.46 61.18 78.17 61.59C78.88 62 79.12 62.9 78.72 63.61C78.31 64.32 77.41 64.56 76.7 64.15C76 63.74 75.75 62.84 76.16 62.13" fill="#0E1721"/>
  <path d="M80.1899 47.08C80.1899 46.27 80.8499 45.6 81.6699 45.6C82.4899 45.6 83.1499 46.26 83.1499 47.08C83.1499 47.9 82.4899 48.56 81.6699 48.56C80.8499 48.56 80.1899 47.9 80.1899 47.08Z" fill="#0E1721"/>
  <path d="M76.15 32.02C75.74 31.32 75.99 30.41 76.69 30C77.4 29.59 78.3 29.84 78.71 30.54C79.12 31.25 78.87 32.15 78.17 32.56C77.45 32.97 76.55 32.73 76.14 32.02" fill="#0E1721"/>
  <path d="M65.13 21C64.42 20.59 64.18 19.69 64.59 18.98C65 18.27 65.91 18.03 66.61 18.44C67.32 18.85 67.56 19.76 67.16 20.46C66.76 21.17 65.85 21.41 65.14 21" fill="#0E1721"/>
  <path d="M69.01 49.31H50.04C49.14 49.31 48.41 48.58 48.41 47.68C48.41 46.78 49.14 46.05 50.04 46.05H69.01C69.91 46.05 70.64 46.78 70.64 47.68C70.64 48.58 69.91 49.31 69.01 49.31Z" fill="#3C8645"/>
  <path d="M69.0101 49.88H50.0401C48.8301 49.88 47.8401 48.89 47.8401 47.68C47.8401 46.47 48.8301 45.48 50.0401 45.48H69.0101C70.2201 45.48 71.2101 46.47 71.2101 47.68C71.2101 48.89 70.2201 49.88 69.0101 49.88ZM50.0401 46.63C49.4601 46.63 48.9801 47.1 48.9801 47.69C48.9801 48.28 49.4501 48.75 50.0401 48.75H69.0101C69.5901 48.75 70.0701 48.28 70.0701 47.69C70.0701 47.1 69.6001 46.63 69.0101 46.63H50.0401Z" fill="#0E1721"/>
  <path d="M50.07 48.83C49.09 48.83 48.3 48.04 48.3 47.06V23.9C48.3 22.92 49.09 22.13 50.07 22.13C51.05 22.13 51.84 22.92 51.84 23.9V47.06C51.84 48.04 51.05 48.83 50.07 48.83Z" fill="#3C8645"/>
  <path d="M50.0701 49.4C48.7801 49.4 47.7301 48.35 47.7301 47.06V23.9C47.7301 22.61 48.7801 21.56 50.0701 21.56C51.3601 21.56 52.4101 22.61 52.4101 23.9V47.06C52.4101 48.35 51.3601 49.4 50.0701 49.4ZM50.0701 22.69C49.4101 22.69 48.8701 23.23 48.8701 23.89V47.05C48.8701 47.71 49.4101 48.25 50.0701 48.25C50.7301 48.25 51.2701 47.71 51.2701 47.05V23.89C51.2701 23.23 50.7301 22.69 50.0701 22.69Z" fill="#0E1721"/>
  <path d="M52.74 47.77C52.74 49.24 51.54 50.44 50.08 50.44C48.62 50.44 47.42 49.24 47.42 47.77C47.42 46.3 48.61 45.11 50.08 45.11C51.55 45.11 52.74 46.3 52.74 47.77Z" fill="#FC8B27"/>
  <path d="M50.0701 51C48.2901 51 46.8401 49.55 46.8401 47.76C46.8401 45.97 48.2901 44.53 50.0701 44.53C51.8501 44.53 53.3001 45.98 53.3001 47.76C53.3001 49.54 51.8501 51 50.0701 51ZM50.0701 45.68C48.9201 45.68 47.9801 46.62 47.9801 47.76C47.9801 48.9 48.9201 49.86 50.0701 49.86C51.2201 49.86 52.1601 48.92 52.1601 47.76C52.1601 46.6 51.2201 45.68 50.0701 45.68Z" fill="#0E1721"/>
  <path d="M3.70996 47.08C3.70996 21.52 24.51 0.720001 50.07 0.720001C75.63 0.720001 96.43 21.52 96.43 47.08C96.43 60.58 90.56 73.39 80.32 82.22L75.2 76.28C83.71 68.95 88.59 58.3 88.59 47.08C88.59 25.84 71.31 8.55 50.06 8.55C28.82 8.55 11.53 25.83 11.53 47.08C11.53 67.36 27.29 83.99 47.2 85.46V79.76L64.11 89.53L47.2 99.3V93.31C22.99 91.8 3.70996 71.68 3.70996 47.08Z" fill="#4279B6"/>
  <path d="M46.86 99.9C46.64 99.77 46.5 99.54 46.5 99.28V93.95C22.05 92.11 3 71.65 3 47.08C3 21.12 24.12 0 50.08 0C76.04 0 97.15 21.12 97.15 47.08C97.15 60.79 91.19 73.79 80.79 82.76C80.65 82.88 80.46 82.94 80.27 82.93C80.08 82.92 79.91 82.83 79.78 82.68L74.66 76.74C74.54 76.6 74.47 76.41 74.49 76.22C74.51 76.03 74.59 75.86 74.74 75.73C83.09 68.53 87.88 58.09 87.88 47.07C87.88 26.22 70.92 9.26 50.07 9.26C29.22 9.26 12.26 26.23 12.26 47.08C12.26 56.67 15.87 65.82 22.44 72.84C28.79 79.63 37.31 83.82 46.51 84.69V79.76C46.51 79.5 46.65 79.27 46.87 79.14C47.09 79.01 47.36 79.01 47.58 79.14L64.49 88.91C64.71 89.04 64.85 89.27 64.85 89.53C64.85 89.79 64.71 90.02 64.49 90.15L47.58 99.92C47.47 99.98 47.35 100.02 47.22 100.02C47.09 100.02 46.97 99.99 46.86 99.92V99.9ZM47.93 80.99V85.46C47.93 85.66 47.85 85.85 47.7 85.98C47.55 86.11 47.36 86.19 47.16 86.17C37.31 85.44 28.16 81.05 21.39 73.81C14.58 66.53 10.83 57.03 10.83 47.08C10.83 25.44 28.43 7.84 50.07 7.84C71.71 7.84 89.31 25.44 89.31 47.08C89.31 58.27 84.54 68.9 76.21 76.35L80.4 81.21C90.15 72.54 95.73 60.14 95.73 47.08C95.73 21.91 75.25 1.43 50.08 1.43C24.91 1.43 4.43 21.91 4.43 47.08C4.43 71.12 23.25 91.11 47.26 92.58C47.64 92.6 47.93 92.91 47.93 93.29V98.05L62.7 89.52L47.93 80.99Z" fill="#0E1721"/>
</svg>
