<svg xmlns="http://www.w3.org/2000/svg" width="100" height="100" viewBox="0 0 100 100" fill="none">
  <path d="M7.70996 4.45L7.70996 95.56C7.70996 97.6255 9.38442 99.3 11.45 99.3H87.69C89.7555 99.3 91.43 97.6255 91.43 95.56V4.45C91.43 2.38445 89.7555 0.709999 87.69 0.709999H11.45C9.38442 0.709999 7.70996 2.38445 7.70996 4.45Z" fill="#4279B6"/>
  <path d="M87.68 100H11.45C9 100 7 98 7 95.55V4.45C7 2 9 0 11.45 0H87.69C90.14 0 92.14 2 92.14 4.45V95.55C92.14 98 90.14 100 87.69 100H87.68ZM11.45 1.41C9.77 1.41 8.41 2.77 8.41 4.45V95.55C8.41 97.23 9.77 98.59 11.45 98.59H87.69C89.37 98.59 90.73 97.23 90.73 95.55V4.45C90.73 2.77 89.37 1.41 87.69 1.41H11.45Z" fill="#0E1721"/>
  <path d="M69.0294 35.4894L64.2069 30.667C63.3204 29.7805 61.8832 29.7805 60.9967 30.667L32.2599 59.4038C31.3734 60.2903 31.3734 61.7275 32.2599 62.614L37.0823 67.4365C37.9688 68.323 39.4061 68.323 40.2926 67.4365L69.0294 38.6997C69.9159 37.8132 69.9159 36.3759 69.0294 35.4894Z" fill="#FCCD2A"/>
  <path d="M38.68 68.81C37.92 68.81 37.16 68.52 36.58 67.94L31.76 63.12C30.6 61.96 30.6 60.07 31.76 58.91L60.5 30.17C61.06 29.61 61.81 29.3 62.6 29.3C63.39 29.3 64.14 29.61 64.7 30.17L69.52 34.99C70.08 35.55 70.39 36.3 70.39 37.09C70.39 37.88 70.08 38.63 69.52 39.19L40.78 67.93C40.2 68.51 39.44 68.8 38.68 68.8V68.81ZM62.6 30.71C62.18 30.71 61.79 30.87 61.49 31.17L32.75 59.91C32.14 60.52 32.14 61.52 32.75 62.13L37.57 66.95C38.18 67.56 39.18 67.56 39.79 66.95L68.53 38.21C68.82 37.92 68.99 37.52 68.99 37.1C68.99 36.68 68.83 36.29 68.53 35.99L63.71 31.17C63.42 30.88 63.02 30.71 62.6 30.71Z" fill="#0E1721"/>
  <path d="M36.75 67.11L33.26 70.68C32.77 71.17 31.98 71.17 31.49 70.68L28.83 68.02C28.34 67.53 28.34 66.74 28.83 66.25L32.32 62.68L36.75 67.11Z" fill="white"/>
  <path d="M32.37 71.75C31.85 71.75 31.35 71.55 30.99 71.18L28.33 68.52C27.96 68.15 27.76 67.66 27.76 67.14C27.76 66.62 27.96 66.12 28.33 65.76L31.82 62.2C31.95 62.07 32.13 61.99 32.32 61.99C32.51 61.99 32.69 62.06 32.82 62.2L37.25 66.63C37.52 66.9 37.53 67.34 37.25 67.62L33.76 71.19C33.39 71.56 32.89 71.77 32.37 71.77V71.75ZM32.33 63.69L29.33 66.75C29.22 66.86 29.17 67 29.17 67.14C29.17 67.28 29.23 67.43 29.33 67.53L31.99 70.19C32.2 70.39 32.56 70.39 32.77 70.19L35.77 67.12L32.34 63.69H32.33Z" fill="#0E1721"/>
  <path d="M73.71 40.86C73.53 40.86 73.35 40.79 73.21 40.65L59.07 26.51C58.79 26.24 58.79 25.79 59.07 25.51C59.35 25.23 59.79 25.23 60.07 25.51L74.21 39.65C74.49 39.92 74.49 40.37 74.21 40.65C74.07 40.79 73.89 40.86 73.71 40.86Z" fill="#0E1721"/>
  <path d="M55.56 42.31C55.38 42.31 55.2 42.24 55.06 42.1L52.31 39.35C52.03 39.08 52.03 38.63 52.31 38.35C52.59 38.07 53.03 38.07 53.31 38.35L56.06 41.1C56.34 41.37 56.34 41.82 56.06 42.1C55.92 42.24 55.74 42.31 55.56 42.31Z" fill="#0E1721"/>
  <path d="M61.75 39.91C61.57 39.91 61.39 39.84 61.25 39.7L56.71 35.16C56.43 34.89 56.43 34.44 56.71 34.16C56.99 33.88 57.43 33.88 57.71 34.16L62.25 38.7C62.53 38.97 62.53 39.42 62.25 39.7C62.11 39.84 61.93 39.91 61.75 39.91Z" fill="#0E1721"/>
  <path d="M83.45 30.83C83.27 30.83 83.09 30.76 82.95 30.62L68.81 16.48C68.53 16.21 68.53 15.76 68.81 15.48C69.09 15.2 69.53 15.2 69.81 15.48L83.95 29.62C84.23 29.89 84.23 30.34 83.95 30.62C83.81 30.76 83.63 30.83 83.45 30.83Z" fill="#0E1721"/>
  <path d="M15.68 84.72C15.5 84.72 15.32 84.65 15.18 84.51C14.9 84.24 14.9 83.79 15.18 83.51L29.75 68.94C30.03 68.66 30.47 68.66 30.75 68.94C31.03 69.21 31.03 69.66 30.75 69.94L16.18 84.51C16.04 84.65 15.86 84.72 15.68 84.72Z" fill="#0E1721"/>
  <path d="M68.64 35.09L78.53 25.2L74.49 21.16L64.59 31.06L68.64 35.09Z" fill="white"/>
  <path d="M68.64 35.79C68.46 35.79 68.28 35.72 68.14 35.58L64.09 31.55C63.96 31.42 63.88 31.24 63.88 31.05C63.88 30.86 63.95 30.68 64.09 30.55L73.99 20.65C74.27 20.37 74.71 20.37 74.99 20.65L79.03 24.69C79.16 24.82 79.24 25 79.24 25.19C79.24 25.38 79.17 25.56 79.03 25.69L69.14 35.58C69 35.72 68.82 35.79 68.64 35.79ZM65.59 31.06L68.64 34.1L77.53 25.21L74.49 22.17L65.59 31.07V31.06Z" fill="#0E1721"/>
</svg>
