<svg xmlns="http://www.w3.org/2000/svg" width="100" height="100" viewBox="0 0 100 100" fill="none">
  <path d="M87.68 100H11.45C9 100 7 98 7 95.55V4.45C7 2 9 0 11.45 0H87.69C90.14 0 92.14 2 92.14 4.45V95.55C92.14 98 90.14 100 87.69 100H87.68ZM11.45 1.41C9.77 1.41 8.41 2.77 8.41 4.45V95.55C8.41 97.23 9.77 98.59 11.45 98.59H87.69C89.37 98.59 90.73 97.23 90.73 95.55V4.45C90.73 2.77 89.37 1.41 87.69 1.41H11.45Z" fill="#4279B6"/>
  <path d="M29.75 68.95L15.18 83.52C14.9 83.8 14.9 84.24 15.18 84.52C15.32 84.66 15.5 84.73 15.68 84.73C15.86 84.73 16.04 84.66 16.18 84.52L30.75 69.95C31.03 69.68 31.03 69.23 30.75 68.95C30.47 68.68 30.03 68.68 29.75 68.95Z" fill="#2D557F"/>
  <path d="M83.95 29.62L69.81 15.48C69.53 15.2 69.09 15.2 68.81 15.48C68.53 15.75 68.53 16.2 68.81 16.48L73.49 21.16L64.1 30.55C63.82 30.83 63.82 31.27 64.1 31.55C64.24 31.69 64.42 31.76 64.6 31.76C64.78 31.76 64.96 31.69 65.1 31.55L74.49 22.16L77.53 25.2L68.14 34.59C67.86 34.86 67.86 35.31 68.14 35.59C68.28 35.73 68.46 35.8 68.64 35.8C68.82 35.8 69 35.73 69.14 35.59L78.53 26.2L82.95 30.62C83.09 30.76 83.27 30.83 83.45 30.83C83.63 30.83 83.81 30.76 83.95 30.62C84.23 30.35 84.23 29.9 83.95 29.62Z" fill="#2D557F"/>
  <path d="M74.2 39.65L60.06 25.51C59.78 25.23 59.34 25.23 59.06 25.51C58.78 25.78 58.78 26.23 59.06 26.51L61.93 29.38C61.39 29.5 60.89 29.77 60.48 30.17L31.74 58.91C30.72 59.93 30.65 61.49 31.43 62.65L28.32 65.76C27.95 66.13 27.75 66.62 27.75 67.14C27.75 67.66 27.95 68.16 28.32 68.52L30.98 71.18C31.35 71.55 31.84 71.75 32.36 71.75C32.88 71.75 33.38 71.55 33.74 71.18L36.82 68.1C37.36 68.54 38.01 68.8 38.67 68.8C39.43 68.8 40.19 68.51 40.77 67.93L69.51 39.19C69.91 38.79 70.18 38.29 70.3 37.74L73.2 40.64C73.34 40.78 73.52 40.85 73.7 40.85C73.88 40.85 74.06 40.78 74.2 40.64C74.48 40.37 74.48 39.92 74.2 39.64V39.65ZM32.76 70.18C32.55 70.39 32.19 70.39 31.98 70.18L29.32 67.52C29.22 67.42 29.16 67.28 29.16 67.13C29.16 66.98 29.22 66.84 29.32 66.74L32.35 63.71L35.78 67.14L32.75 70.17L32.76 70.18ZM68.53 38.2L39.79 66.94C39.18 67.55 38.18 67.55 37.57 66.94L37.28 66.65L32.75 62.12C32.14 61.51 32.14 60.51 32.75 59.9L61.49 31.16C61.78 30.87 62.18 30.7 62.6 30.7C63.02 30.7 63.41 30.86 63.71 31.16L68.53 35.98C68.82 36.27 68.99 36.67 68.99 37.09C68.99 37.51 68.83 37.9 68.53 38.2Z" fill="#4279B6"/>
  <path d="M54.92 39.97C54.64 39.7 54.2 39.7 53.92 39.97C53.64 40.25 53.64 40.69 53.92 40.97L55.06 42.11C55.2 42.25 55.38 42.32 55.56 42.32C55.74 42.32 55.92 42.25 56.06 42.11C56.34 41.84 56.34 41.39 56.06 41.11L54.92 39.97Z" fill="#4279B6"/>
  <path d="M59.34 35.81C59.06 35.54 58.62 35.54 58.34 35.81C58.06 36.09 58.06 36.53 58.34 36.81L61.24 39.71C61.38 39.85 61.56 39.92 61.74 39.92C61.92 39.92 62.1 39.85 62.24 39.71C62.52 39.43 62.52 38.99 62.24 38.71L59.34 35.81Z" fill="#4279B6"/>
</svg>
