<svg xmlns="http://www.w3.org/2000/svg" width="100" height="100" viewBox="0 0 100 100" fill="none">
  <path d="M79.5301 43.96L69.6801 38.33C71.6801 36.2 72.8101 33.11 72.8101 30.16V28.47C72.8101 24.24 70.4101 19.29 63.6301 19.29C56.8501 19.29 54.4501 24.23 54.4501 28.47V29.67C53.2601 29.12 51.8201 28.8 50.0901 28.8C48.3601 28.8 46.9301 29.12 45.7401 29.67V28.47C45.7401 24.24 43.3401 19.29 36.5601 19.29C29.7801 19.29 27.3801 24.23 27.3801 28.47V30.16C27.3801 33.12 28.5001 36.21 30.5101 38.33L20.6701 43.95C19.6001 44.56 18.9301 45.71 18.9301 46.95V48.75C18.9301 51.95 21.5301 54.55 24.7301 54.55H33.0501C32.6801 55.11 32.4701 55.76 32.4701 56.45V58.26C32.4701 60.17 33.4001 61.86 34.8301 62.92V61.29C34.8301 61.18 34.8401 61.06 34.8601 60.95C34.2801 60.21 33.9201 59.28 33.9201 58.26V56.45C33.9201 55.74 34.3001 55.08 34.9201 54.73L35.2401 54.55L36.5101 53.82L37.7801 53.09L45.1901 48.86C45.4701 49.07 45.7501 49.26 46.0501 49.44C46.3101 49.59 46.5801 49.73 46.8501 49.85C47.1201 49.97 47.4101 50.08 47.7001 50.17C48.4501 50.4 49.2501 50.53 50.1001 50.53C50.9501 50.53 51.7501 50.4 52.5001 50.17C52.7901 50.08 53.0701 49.97 53.3501 49.85C53.6301 49.73 53.8901 49.59 54.1501 49.44C54.4501 49.27 54.7401 49.07 55.0101 48.86L62.4201 53.09L63.6901 53.82L64.9601 54.55L65.2801 54.73C65.9001 55.08 66.2801 55.74 66.2801 56.45V58.26C66.2801 59.27 65.9301 60.21 65.3401 60.95C65.3601 61.06 65.3701 61.17 65.3701 61.29V62.92C66.8001 61.86 67.7301 60.17 67.7301 58.26V56.45C67.7301 55.76 67.5201 55.1 67.1401 54.55H75.4601C78.6601 54.55 81.2601 51.95 81.2601 48.75V46.94C81.2601 45.71 80.6001 44.57 79.5301 43.96ZM79.8101 48.75C79.8101 51.15 77.8601 53.1 75.4601 53.1H65.3401L56.1401 47.85C58.1301 45.74 59.2501 42.69 59.2701 39.75C60.5201 40.55 61.9801 41.03 63.6301 41.03C65.5301 41.03 67.1801 40.4 68.5401 39.36L78.8101 45.23C79.43 45.58 79.8101 46.24 79.8101 46.95V48.76V48.75ZM50.1001 49.08C49.4801 49.08 48.8901 49 48.3301 48.84C48.0301 48.76 47.7401 48.65 47.4501 48.53C47.2001 48.42 46.9601 48.3 46.7201 48.16C46.7001 48.15 46.6801 48.13 46.6501 48.12C46.4201 47.98 46.2001 47.83 45.9901 47.67C45.8801 47.58 45.7701 47.49 45.6601 47.4C43.6101 45.62 42.4201 42.7 42.3701 39.88C42.3701 39.81 42.3701 39.75 42.3701 39.68V37.99C42.3701 37.86 42.3701 37.7 42.3801 37.52C42.4001 37.13 42.4501 36.66 42.5501 36.13C42.7501 35.09 43.1601 33.86 44.0001 32.8C44.2501 32.48 44.5501 32.17 44.8901 31.89C45.1301 31.69 45.4001 31.5 45.6901 31.33C46.7701 30.69 48.2001 30.27 50.1001 30.27C52.0001 30.27 53.43 30.69 54.5101 31.33C54.8001 31.5 55.0701 31.69 55.3101 31.89C55.6701 32.19 55.9801 32.52 56.2501 32.86C57.0401 33.89 57.4401 35.07 57.6401 36.09C57.7501 36.63 57.7901 37.13 57.8101 37.52C57.8101 37.7 57.8201 37.86 57.8201 37.99V39.68C57.8201 39.75 57.8201 39.81 57.8201 39.88C57.7701 43.23 56.3701 45.83 54.4901 47.4C54.3901 47.48 54.3001 47.56 54.2001 47.63C53.9601 47.81 53.7201 47.97 53.4701 48.12C53.4701 48.12 53.4601 48.12 53.4501 48.12C53.2201 48.26 52.9801 48.38 52.7401 48.49C52.4201 48.63 52.1001 48.75 51.7701 48.85C51.2201 49.01 50.6501 49.09 50.1001 49.09V49.08ZM24.7401 53.1C22.3401 53.1 20.4001 51.15 20.4001 48.76V46.96C20.4001 46.24 20.7901 45.58 21.4101 45.22L31.6601 39.36C33.0201 40.4 34.6801 41.03 36.5701 41.03C38.2201 41.03 39.6801 40.55 40.9301 39.75C40.9501 42.68 42.0701 45.74 44.0601 47.85L34.8601 53.11H24.7401V53.1ZM28.8401 28.47C28.8401 26.66 29.4001 20.74 36.5701 20.74C43.7401 20.74 44.3001 26.65 44.3001 28.47V30.16C44.3001 30.29 44.3001 30.41 44.3001 30.54C41.9201 32.34 40.9601 35.24 40.9401 37.88V37.9C40.6201 38.16 40.2801 38.4 39.9401 38.6C39.4001 38.92 38.8301 39.16 38.2601 39.33C37.7001 39.49 37.1401 39.57 36.5901 39.57C35.9701 39.57 35.3801 39.49 34.8201 39.33C34.2201 39.17 33.6701 38.92 33.1501 38.6C32.8001 38.39 32.4701 38.14 32.1601 37.87C30.0601 36.05 28.8701 33.03 28.8701 30.15V28.46L28.8401 28.47ZM55.9001 30.16V28.47C55.9001 26.66 56.4601 20.74 63.6301 20.74C70.8001 20.74 71.3601 26.65 71.3601 28.47V30.16C71.3601 33.61 69.9501 36.28 68.0201 37.89C67.69 38.16 67.34 38.41 66.9901 38.62C66.4501 38.94 65.8801 39.18 65.3101 39.35C64.7501 39.51 64.1901 39.59 63.6401 39.59C63.0201 39.59 62.4301 39.51 61.8701 39.35C61.2701 39.19 60.7201 38.94 60.2001 38.62C59.8801 38.42 59.5701 38.2 59.2801 37.96C59.2801 37.94 59.2801 37.92 59.2801 37.9C59.2601 35.25 58.3001 32.35 55.9201 30.56C55.9201 30.43 55.9201 30.31 55.9201 30.18L55.9001 30.16Z" fill="#2D557F"/>
  <path d="M94.24 50C94.28 49.51 95.2 47.57 95.55 46.84L95.58 46.77C96.8 44.23 98.19 41.35 98.19 37.99C98.19 36.8 98.01 35.64 97.66 34.55C96.08 29.7 91.93 27.48 88.59 25.7C87.99 25.38 86.18 24.42 85.81 24.06C85.57 23.6 85.22 21.66 85.08 20.91L85.06 20.81C84.4 17.12 83.57 12.54 79.48 9.56C75.42 6.61 70.8 7.23 67.09 7.73C66.39 7.82 64.31 8.11 63.78 8.03C63.46 7.86 62.66 7.14 61.38 5.91C58.64 3.28 55.24 0 50.09 0C44.94 0 41.38 3.41 38.78 5.92C38.25 6.43 36.86 7.76 36.42 8.02C35.87 8.11 33.76 7.82 33.05 7.73C29.35 7.23 24.74 6.61 20.68 9.56C16.6 12.53 15.77 17.13 15.1 20.83C14.98 21.52 14.61 23.57 14.38 24.04C14 24.41 12.23 25.36 11.63 25.68L11.57 25.71C8.23998 27.49 4.08998 29.71 2.51998 34.55C2.15998 35.65 1.97998 36.81 1.97998 37.99C1.97998 41.34 3.36998 44.23 4.58998 46.78C5.45998 48.58 5.90998 49.67 5.93998 50.01C5.89998 50.5 4.96998 52.46 4.60998 53.2L4.57998 53.27C3.35998 55.8 1.97998 58.68 1.97998 62.03C1.97998 63.23 2.15998 64.38 2.51998 65.47C4.08998 70.32 8.23998 72.53 11.6 74.33C12.26 74.69 13.99 75.61 14.36 75.96C14.61 76.45 14.98 78.51 15.11 79.2C15.77 82.89 16.6 87.49 20.69 90.46C24.74 93.4 29.35 92.79 33.06 92.29H33.1C33.8 92.19 35.87 91.91 36.39 91.99C36.86 92.24 38.3 93.63 38.78 94.09C41.37 96.59 44.91 100.01 50.08 100.01C55.25 100.01 58.64 96.73 61.38 94.09C61.91 93.58 63.3 92.24 63.73 92C64.27 91.91 66.35 92.19 67.05 92.28H67.12C70.82 92.78 75.42 93.4 79.48 90.46C83.56 87.49 84.39 82.89 85.06 79.19C85.18 78.5 85.55 76.45 85.78 75.97C86.16 75.6 87.89 74.68 88.56 74.32L88.59 74.3C91.75 72.62 96.07 70.31 97.65 65.45C98 64.36 98.18 63.21 98.18 62.01C98.18 58.65 96.8 55.77 95.56 53.21C95.24 52.54 94.26 50.51 94.22 50H94.24ZM96.28 65C94.88 69.31 90.86 71.45 87.92 73.02L87.89 73.04C86.09 74.01 85.04 74.61 84.65 75.07C84.63 75.1 84.61 75.12 84.59 75.15C84.28 75.65 84.02 76.86 83.65 78.92C83.03 82.36 82.25 86.65 78.64 89.27C75.06 91.87 70.78 91.3 67.33 90.84H67.27C65.23 90.56 63.93 90.43 63.32 90.6C63.29 90.6 63.26 90.62 63.23 90.63C62.72 90.85 61.85 91.64 60.4 93.03C57.85 95.48 54.68 98.54 50.11 98.54C45.54 98.54 42.22 95.36 39.81 93.03C38.4 91.67 37.48 90.84 36.93 90.61C36.9 90.6 36.87 90.59 36.84 90.58C36.67 90.53 36.43 90.51 36.14 90.51C35.44 90.51 34.39 90.63 32.93 90.83H32.88C29.43 91.3 25.14 91.87 21.56 89.27C17.95 86.64 17.18 82.36 16.56 78.92C16.19 76.9 15.92 75.63 15.59 75.11C15.57 75.08 15.55 75.05 15.53 75.03C15.15 74.59 14.11 73.99 12.31 73.03L12.28 73.02C9.17998 71.36 5.31998 69.3 3.91998 65.01C3.60998 64.07 3.45998 63.06 3.45998 62.02C3.45998 59 4.75998 56.28 5.90998 53.89L5.93998 53.82C6.87998 51.85 7.38998 50.67 7.40998 50.02C7.40998 50.01 7.40998 50 7.40998 49.99C7.38998 49.33 6.84998 48.08 5.91998 46.15C4.75998 43.74 3.45998 41.01 3.45998 37.99C3.45998 36.96 3.61998 35.95 3.91998 34.99C5.30998 30.7 9.16998 28.64 12.28 26.98L12.34 26.95C14.08 26.02 15.17 25.39 15.55 24.93C15.57 24.91 15.59 24.88 15.61 24.85C15.93 24.35 16.2 23.09 16.56 21.08C17.18 17.64 17.95 13.36 21.57 10.73C25.16 8.12 29.44 8.7 32.89 9.16C35.01 9.45 36.28 9.57 36.89 9.4C36.92 9.4 36.96 9.38 36.99 9.37C37.5 9.15 38.37 8.36 39.83 6.96C42.24 4.64 45.55 1.46 50.12 1.46C54.69 1.46 57.86 4.51 60.4 6.96C61.81 8.32 62.73 9.15 63.28 9.39C63.31 9.4 63.35 9.42 63.38 9.42C63.96 9.58 65.21 9.45 67.31 9.17C70.77 8.7 75.07 8.12 78.65 10.73C82.26 13.36 83.03 17.63 83.65 21.07L83.67 21.17C83.98 22.87 84.27 24.32 84.63 24.89C84.65 24.92 84.67 24.94 84.69 24.97C85.07 25.41 86.16 26.05 87.93 26.99C91.03 28.65 94.9 30.72 96.3 35.01C96.61 35.96 96.76 36.96 96.76 38C96.76 41.03 95.45 43.75 94.29 46.15L94.26 46.22C93.33 48.17 92.82 49.35 92.8 49.99C92.8 50 92.8 50.01 92.8 50.02C92.82 50.67 93.36 51.92 94.29 53.87C95.44 56.27 96.75 58.99 96.75 62.02C96.75 63.06 96.59 64.06 96.29 65.01L96.28 65Z" fill="#4279B6"/>
  <path d="M64.66 59.7099C64.28 59.3799 63.79 59.1899 63.28 59.1899H36.93C36.42 59.1899 35.93 59.3699 35.55 59.7099C35.18 60.0299 34.94 60.4699 34.87 60.9499C34.85 61.0599 34.84 61.1699 34.84 61.2899V76.1399C34.84 76.7399 35.1 77.3199 35.55 77.7099C35.93 78.0399 36.42 78.2299 36.93 78.2299H63.28C63.79 78.2299 64.28 78.0499 64.66 77.7099C65.11 77.3099 65.37 76.7399 65.37 76.1399V61.2899C65.37 61.1799 65.36 61.0599 65.34 60.9499C65.26 60.4699 65.02 60.0399 64.66 59.7099ZM63.92 62.9299V76.0899L53.68 68.7099L60.14 64.0599L61.15 63.3299L62.17 62.5899L63.92 61.3299V62.9199V62.9299ZM62.39 76.7799H37.8L47.72 69.6299L47.75 69.6099L49.67 70.9899C49.8 71.0799 49.95 71.1299 50.09 71.1299C50.23 71.1299 50.39 71.0799 50.51 70.9899L52.43 69.6099L52.46 69.6299L62.38 76.7799H62.39ZM62.39 60.6399L59.66 62.5999L58.65 63.3299L58.57 63.3799L57.64 64.0499L50.08 69.4999L42.52 64.0499L41.51 63.3199L40.5 62.5899L39.25 61.6899L37.77 60.6199H62.36L62.39 60.6399ZM36.28 62.9299V61.3399L38.03 62.5999L39.05 63.3399L40.06 64.0699L42.42 65.7699L46.52 68.7199L36.28 76.0999V62.9399V62.9299Z" fill="#4279B6"/>
</svg>
