<svg xmlns="http://www.w3.org/2000/svg" width="100" height="100" viewBox="0 0 100 100" fill="none">
  <path d="M47.55 56.1599C47.6 56.0499 47.68 55.9499 47.78 55.8799L50.63 53.8199V53.7899L43.89 49.9399C42.48 51.0099 40.78 51.6699 38.82 51.6699C36.86 51.6699 35.15 51.0099 33.75 49.9399L23.15 55.9999C22.5 56.3699 22.09 57.0699 22.09 57.8199V59.6799C22.09 62.1699 24.11 64.1899 26.6 64.1899H47.01V57.5499C47.01 57.0299 47.2 56.5399 47.55 56.1599Z" fill="#FC8B27"/>
  <path d="M87.86 50.14C87.86 50.05 87.86 49.96 87.86 49.87C87.9 48.3 88.46 46.88 89.8 44.08L89.83 44.01C90.81 41.98 91.81 39.89 91.81 37.98C91.81 37.46 91.74 36.96 91.59 36.51C90.86 34.28 88.74 33.01 85.59 31.32C83.04 29.96 81.82 29.22 80.91 28.14C80.75 27.95 80.61 27.76 80.47 27.55C79.68 26.31 79.33 24.91 78.8 22.04L78.78 21.94C78.15 18.46 77.6 16.07 75.73 14.71C74.76 14 73.58 13.69 71.91 13.69C70.64 13.69 69.28 13.87 67.96 14.05C66.59 14.24 65.16 14.42 64.05 14.42C63.31 14.42 62.69 14.35 62.09 14.19C61.83 14.12 61.57 14.03 61.32 13.92C60.05 13.37 58.95 12.43 56.96 10.51C54.38 8.02002 52.5 6.39001 50.1 6.39001C47.51 6.39001 45.24 8.58002 43.23 10.51C41.11 12.55 40.15 13.37 38.94 13.89C38.69 14 38.43 14.09 38.17 14.16C37.54 14.33 36.89 14.41 36.11 14.41C34.98 14.41 33.61 14.24 32.2 14.05C30.89 13.87 29.53 13.69 28.27 13.69C26.6 13.69 25.42 14.01 24.45 14.72C22.58 16.08 22.02 18.47 21.39 21.96C20.87 24.86 20.53 26.27 19.76 27.49C19.63 27.7 19.48 27.91 19.31 28.1C18.39 29.21 17.18 29.95 14.64 31.31L14.58 31.34C11.43 33.02 9.32 34.29 8.59 36.52C8.44 36.98 8.37 37.48 8.37 37.99C8.37 39.89 9.33 41.89 10.35 44.01C11.69 46.78 12.29 48.29 12.33 49.87C12.33 49.96 12.33 50.05 12.33 50.14C12.29 51.71 11.72 53.14 10.38 55.95L10.35 56.02C9.38 58.04 8.38 60.12 8.38 62.02C8.38 62.54 8.45 63.03 8.6 63.47C9.33 65.72 11.45 66.98 14.59 68.67C14.59 68.67 14.62 68.68 14.62 68.69C17.15 70.04 18.35 70.78 19.25 71.83C19.43 72.03 19.59 72.25 19.73 72.48C20.52 73.72 20.87 75.14 21.4 78.06C22.03 81.55 22.58 83.94 24.45 85.3C25.42 86.01 26.6 86.32 28.28 86.32C29.54 86.32 30.9 86.14 32.21 85.96H32.25C33.61 85.77 35.02 85.59 36.14 85.59C36.89 85.59 37.52 85.67 38.13 85.83C38.37 85.9 38.61 85.98 38.84 86.08C40.12 86.62 41.22 87.57 43.22 89.49C45.23 91.43 47.5 93.62 50.09 93.62C52.49 93.62 54.37 91.99 56.96 89.49C59.08 87.45 60.04 86.63 61.25 86.11C61.48 86.01 61.73 85.92 61.97 85.86C62.61 85.68 63.27 85.6 64.06 85.6C65.19 85.6 66.58 85.77 67.91 85.95H67.97C69.28 86.13 70.64 86.32 71.9 86.32C73.57 86.32 74.75 86 75.73 85.29C77.6 83.93 78.15 81.54 78.78 78.05C79.3 75.15 79.64 73.74 80.4 72.53C80.54 72.31 80.7 72.09 80.87 71.89C81.79 70.8 83 70.06 85.53 68.7L85.57 68.68C88.02 67.38 90.79 65.9 91.57 63.48C91.72 63.03 91.79 62.54 91.79 62.02C91.79 60.12 90.83 58.12 89.81 56.01C88.47 53.22 87.87 51.72 87.83 50.14H87.86ZM62.08 25.37C66.9 25.37 70.81 29.29 70.81 34.1C70.81 38.91 66.89 42.83 62.08 42.83C57.27 42.83 53.35 38.91 53.35 34.1C53.35 29.29 57.27 25.37 62.08 25.37ZM77.14 72.19C77.14 72.79 76.88 73.36 76.43 73.75C76.05 74.08 75.57 74.26 75.07 74.26H49.09C48.59 74.26 48.1 74.08 47.73 73.75C47.28 73.36 47.02 72.79 47.02 72.19V65.64H26.61C23.32 65.64 20.65 62.96 20.65 59.68V57.82C20.65 56.55 21.33 55.37 22.44 54.74L32.63 48.92C30.55 46.73 29.38 43.53 29.38 40.47V38.72C29.38 37.38 29.63 34.8 31.27 32.61C32.91 30.42 35.53 29.26 38.83 29.26C45.81 29.26 48.28 34.35 48.28 38.71V40.46C48.28 43.52 47.11 46.72 45.03 48.91L50.63 52.11V47.05C50.63 46.11 51.39 45.35 52.33 45.35H71.83C72.77 45.35 73.53 46.11 73.53 47.05V53.8L76.38 55.86C76.48 55.93 76.56 56.03 76.61 56.14C76.95 56.52 77.15 57.01 77.15 57.53V72.17L77.14 72.19Z" fill="white"/>
  <path d="M46.82 38.73C46.82 31.3 40.69 30.73 38.82 30.73C31.39 30.73 30.82 36.86 30.82 38.73V40.48C30.82 43.46 32.06 46.6 34.24 48.48C34.55 48.75 34.88 48.99 35.23 49.21C35.73 49.52 36.27 49.76 36.84 49.94C37.46 50.13 38.13 50.23 38.83 50.23C39.46 50.23 40.1 50.13 40.72 49.94C41.27 49.77 41.82 49.53 42.34 49.21C42.69 49 43.04 48.76 43.37 48.48C45.37 46.82 46.83 44.05 46.83 40.48V38.73H46.82Z" fill="white"/>
  <path d="M71.83 46.8301H52.33C52.19 46.8301 52.08 46.9401 52.08 47.0801V58.4401L55.4 60.8301L56.03 61.2801L56.64 61.7201L59.77 63.9801L60.19 64.2901L60.39 64.4301L61.01 64.8801L62.08 65.6501L63.15 64.8801L63.77 64.4301L63.97 64.2901L64.39 63.9801L68.93 60.7101L72.08 58.4401V47.0801C72.08 46.9401 71.97 46.8301 71.83 46.8301ZM59.04 59.9901C59.04 59.5901 59.36 59.2601 59.77 59.2601H64.39C64.79 59.2601 65.12 59.5801 65.12 59.9901C65.12 60.4001 64.8 60.7201 64.39 60.7201H59.77C59.37 60.7201 59.04 60.4001 59.04 59.9901ZM68.49 56.0801C68.49 56.0801 68.49 56.1301 68.49 56.1601C68.49 56.1701 68.49 56.1901 68.49 56.2001C68.47 56.4601 68.32 56.6901 68.09 56.8001C67.99 56.8501 67.88 56.8801 67.76 56.8801H56.37C56.26 56.8801 56.17 56.8601 56.08 56.8201C56.07 56.8201 56.06 56.8101 56.05 56.8001C55.83 56.6901 55.67 56.4601 55.65 56.2001C55.65 56.1901 55.65 56.1701 55.65 56.1601C55.65 56.1301 55.65 56.1101 55.65 56.0801C55.68 55.8101 55.85 55.5901 56.1 55.4901C56.11 55.4901 56.13 55.4901 56.14 55.4801C56.21 55.4501 56.29 55.4401 56.37 55.4401H67.76C67.84 55.4401 67.92 55.4601 67.99 55.4801C68.25 55.5701 68.44 55.8001 68.47 56.0801H68.49ZM68.5 52.3301C68.5 52.7301 68.18 53.0601 67.77 53.0601H56.38C55.98 53.0601 55.65 52.7401 55.65 52.3301C55.65 52.1501 55.71 52.0001 55.82 51.8701C55.9 51.7701 56 51.7001 56.12 51.6501C56.2 51.6201 56.29 51.6001 56.38 51.6001H67.77C67.86 51.6001 67.95 51.6201 68.03 51.6501C68.15 51.7001 68.25 51.7701 68.33 51.8701C68.43 52.0001 68.5 52.1501 68.5 52.3301Z" fill="white"/>
  <path d="M92.79 50.02C92.79 50.02 92.79 50 92.79 49.99C92.81 49.35 93.31 48.17 94.25 46.22L94.29 46.14C95.45 43.74 96.76 41.02 96.76 37.99C96.76 36.95 96.6 35.95 96.3 35C94.9 30.71 91.04 28.64 87.93 26.98C86.12 26.02 85.07 25.41 84.69 24.96C84.67 24.94 84.65 24.91 84.63 24.88C84.27 24.31 83.98 22.86 83.67 21.16L83.65 21.06C83.03 17.63 82.26 13.36 78.65 10.73C75.06 8.11996 70.76 8.69996 67.31 9.16996C65.21 9.44996 63.96 9.57996 63.38 9.41996C63.35 9.41996 63.31 9.39996 63.28 9.38996C62.73 9.14996 61.81 8.31996 60.4 6.95996C57.85 4.50996 54.68 1.45996 50.12 1.45996C45.56 1.45996 42.24 4.63996 39.83 6.95996C38.38 8.35996 37.5 9.14996 36.99 9.36996C36.96 9.37996 36.93 9.39996 36.89 9.39996C36.28 9.56996 35.01 9.43996 32.89 9.15996C29.44 8.68996 25.16 8.11996 21.57 10.73C17.96 13.36 17.18 17.64 16.56 21.08C16.2 23.09 15.93 24.35 15.61 24.85C15.59 24.88 15.57 24.9 15.55 24.93C15.16 25.39 14.08 26.02 12.34 26.95L12.28 26.98C9.18001 28.64 5.32001 30.7 3.92001 34.99C3.61001 35.94 3.46001 36.95 3.46001 37.99C3.46001 41.01 4.77001 43.74 5.92001 46.15C6.85001 48.08 7.40001 49.33 7.41001 49.99C7.41001 50 7.41001 50.01 7.41001 50.02C7.39001 50.66 6.88001 51.85 5.94001 53.82L5.90001 53.89C4.75001 56.29 3.45001 59 3.45001 62.02C3.45001 63.06 3.61001 64.07 3.91001 65.01C5.30001 69.3 9.16001 71.37 12.27 73.02C14.09 73.99 15.14 74.6 15.51 75.04C15.53 75.07 15.55 75.09 15.57 75.12C15.9 75.64 16.17 76.86 16.54 78.93C17.16 82.37 17.93 86.64 21.54 89.28C25.12 91.88 29.41 91.31 32.86 90.85H32.91C34.38 90.64 35.43 90.52 36.12 90.52C36.42 90.52 36.65 90.54 36.82 90.59C36.85 90.59 36.88 90.61 36.91 90.62C37.46 90.85 38.38 91.68 39.79 93.04C42.2 95.36 45.5 98.55 50.09 98.55C54.68 98.55 57.83 95.5 60.38 93.04C61.82 91.65 62.7 90.86 63.21 90.64C63.24 90.63 63.27 90.62 63.3 90.61C63.91 90.44 65.21 90.57 67.25 90.84H67.31C70.76 91.31 75.04 91.89 78.62 89.28C82.23 86.65 83 82.37 83.63 78.93C84 76.87 84.26 75.66 84.57 75.16C84.59 75.13 84.61 75.1 84.63 75.08C85.02 74.62 86.07 74.01 87.87 73.05L87.9 73.03C90.84 71.46 94.86 69.32 96.26 65.01C96.57 64.07 96.72 63.06 96.72 62.02C96.72 58.99 95.41 56.27 94.26 53.87C93.32 51.92 92.78 50.68 92.77 50.03L92.79 50.02ZM92.97 63.92C92 66.89 88.96 68.52 86.27 69.95L86.23 69.97C83.87 71.24 82.75 71.91 81.99 72.82C81.86 72.97 81.74 73.13 81.64 73.3C81.01 74.31 80.7 75.6 80.22 78.31C79.53 82.15 78.9 84.79 76.59 86.47C75.35 87.37 73.91 87.77 71.91 87.77C70.55 87.77 69.15 87.58 67.79 87.4H67.73C66.45 87.22 65.11 87.05 64.07 87.05C63.41 87.05 62.87 87.12 62.37 87.26C62.19 87.31 62.01 87.37 61.84 87.45C60.84 87.88 59.96 88.64 57.98 90.54C55.14 93.28 53.05 95.07 50.1 95.07C46.92 95.07 44.42 92.66 42.22 90.54C40.36 88.75 39.35 87.88 38.29 87.42C38.12 87.35 37.94 87.29 37.76 87.24C37.28 87.11 36.77 87.05 36.15 87.05C35.13 87.05 33.76 87.22 32.45 87.4H32.41C31.05 87.59 29.64 87.78 28.29 87.78C26.29 87.78 24.85 87.38 23.61 86.48C21.3 84.79 20.67 82.16 19.98 78.32C19.49 75.6 19.17 74.3 18.52 73.26C18.41 73.09 18.29 72.93 18.16 72.77C17.41 71.9 16.3 71.23 13.94 69.96L13.91 69.95C10.45 68.1 8.12001 66.69 7.22001 63.93C7.03001 63.34 6.93001 62.7 6.93001 62.03C6.93001 59.8 8.00001 57.56 9.04001 55.4L9.07001 55.33C10.32 52.72 10.85 51.41 10.88 50.11C10.88 50.04 10.88 49.98 10.88 49.91C10.85 48.59 10.29 47.22 9.05001 44.65C7.96001 42.37 6.93001 40.23 6.93001 38C6.93001 37.33 7.03001 36.69 7.22001 36.08C8.11001 33.33 10.45 31.91 13.91 30.06L13.97 30.03C16.33 28.77 17.44 28.09 18.21 27.17C18.33 27.03 18.44 26.87 18.54 26.72C19.18 25.71 19.48 24.41 19.97 21.71C20.66 17.88 21.29 15.24 23.6 13.55C24.84 12.65 26.28 12.25 28.27 12.25C29.63 12.25 31.04 12.44 32.4 12.62C33.76 12.8 35.07 12.97 36.12 12.97C36.76 12.97 37.3 12.91 37.79 12.77C37.98 12.72 38.17 12.65 38.36 12.57C39.36 12.13 40.24 11.38 42.22 9.47996C44.43 7.35996 46.93 4.94996 50.1 4.94996C53.04 4.94996 55.13 6.73996 57.97 9.46996C59.83 11.26 60.83 12.14 61.89 12.59C62.08 12.67 62.27 12.74 62.46 12.79C62.93 12.92 63.44 12.98 64.04 12.98C65.06 12.98 66.44 12.81 67.76 12.63C69.13 12.45 70.54 12.25 71.91 12.25C73.91 12.25 75.35 12.65 76.59 13.55C78.9 15.23 79.53 17.87 80.22 21.7L80.24 21.8C80.73 24.47 81.04 25.76 81.7 26.78C81.8 26.93 81.91 27.08 82.02 27.22C82.78 28.12 83.9 28.79 86.27 30.06C89.73 31.91 92.07 33.33 92.97 36.08C93.16 36.68 93.26 37.33 93.26 38C93.26 40.24 92.18 42.48 91.14 44.65L91.11 44.72C89.87 47.32 89.34 48.61 89.31 49.91C89.31 49.98 89.31 50.04 89.31 50.11C89.34 51.42 89.9 52.79 91.14 55.36C92.24 57.65 93.27 59.79 93.27 62.02C93.27 62.69 93.17 63.33 92.98 63.93L92.97 63.92Z" fill="#4279B6"/>
  <path d="M51.36 70.04L52.08 69.52L58.53 64.87L55.97 63.03L55.39 62.61L54.8 62.18L52.08 60.23L51.36 59.7L50.63 59.18L48.47 57.62V64.19V64.92V65.65V72.12L50.68 70.53L51.36 70.04Z" fill="#4279B6"/>
  <path d="M72.8 59.7L72.08 60.23L70.48 61.38L65.63 64.87L72.08 69.52L72.8 70.04L73.48 70.53L75.69 72.12V57.62L73.53 59.18L72.8 59.7Z" fill="#4279B6"/>
  <path d="M71.81 71.11L70.8 70.38L64.39 65.76L62.51 67.12C62.38 67.21 62.23 67.26 62.09 67.26C61.95 67.26 61.79 67.21 61.67 67.12L59.79 65.76L53.38 70.38L52.37 71.11L51.6 71.66L50 72.81H74.18L72.58 71.66L71.81 71.11Z" fill="#4279B6"/>
  <path d="M62.08 41.3799C66.1 41.3799 69.36 38.1099 69.36 34.0999C69.36 30.0899 66.09 26.8199 62.08 26.8199C58.07 26.8199 54.8 30.0899 54.8 34.0999C54.8 38.1099 58.07 41.3799 62.08 41.3799ZM58.76 33.6899H61.35V31.0999C61.35 30.6999 61.67 30.3699 62.08 30.3699C62.49 30.3699 62.81 30.6899 62.81 31.0999V33.6899H65.4C65.8 33.6899 66.13 34.0099 66.13 34.4199C66.13 34.8299 65.81 35.1499 65.4 35.1499H62.81V37.7399C62.81 38.1399 62.49 38.4699 62.08 38.4699C61.67 38.4699 61.35 38.1499 61.35 37.7399V35.1499H58.76C58.36 35.1499 58.03 34.8299 58.03 34.4199C58.03 34.0099 58.35 33.6899 58.76 33.6899Z" fill="#3C8645"/>
  <path d="M94.24 50C94.28 49.51 95.2 47.57 95.55 46.84L95.59 46.77C96.81 44.23 98.2 41.35 98.2 37.99C98.2 36.8 98.02 35.64 97.67 34.55C96.09 29.7 91.94 27.48 88.6 25.7C88 25.38 86.19 24.42 85.82 24.06C85.58 23.6 85.23 21.66 85.09 20.91L85.07 20.81C84.41 17.12 83.58 12.54 79.49 9.56C75.43 6.61 70.81 7.23 67.1 7.73C66.4 7.82 64.32 8.11 63.79 8.03C63.47 7.86 62.67 7.14 61.39 5.91C58.65 3.28 55.25 0 50.1 0C44.95 0 41.39 3.41 38.79 5.92C38.26 6.43 36.87 7.76 36.44 8.02C35.89 8.11 33.78 7.82 33.07 7.73C29.37 7.23 24.76 6.61 20.7 9.56C16.62 12.53 15.79 17.13 15.12 20.83C15 21.52 14.63 23.57 14.4 24.04C14.02 24.41 12.25 25.36 11.65 25.68L11.59 25.71C8.26 27.49 4.11 29.71 2.54 34.55C2.18 35.65 2 36.81 2 37.99C2 41.34 3.39 44.23 4.61 46.78C5.48 48.58 5.93 49.66 5.96 50.01C5.92 50.5 4.99 52.46 4.63 53.2L4.6 53.27C3.38 55.8 2 58.68 2 62.03C2 63.23 2.18 64.38 2.54 65.47C4.11 70.32 8.26 72.53 11.61 74.32C12.28 74.68 14.01 75.6 14.38 75.96C14.63 76.45 15 78.51 15.13 79.2C15.79 82.89 16.62 87.49 20.71 90.46C24.76 93.4 29.37 92.79 33.09 92.29H33.13C33.83 92.19 35.9 91.91 36.42 91.99C36.89 92.24 38.33 93.63 38.81 94.09C41.4 96.59 44.94 100.01 50.11 100.01C55.28 100.01 58.67 96.73 61.41 94.09C61.89 93.63 63.32 92.25 63.76 92C64.3 91.91 66.38 92.19 67.08 92.28H67.15C70.85 92.79 75.46 93.4 79.51 90.46C83.59 87.49 84.42 82.89 85.09 79.19C85.21 78.5 85.58 76.45 85.81 75.97C86.19 75.6 87.92 74.68 88.59 74.32L88.62 74.3C91.78 72.62 96.1 70.31 97.68 65.45C98.03 64.36 98.21 63.21 98.21 62.01C98.21 58.65 96.82 55.77 95.59 53.21C95.27 52.54 94.29 50.51 94.25 50H94.24ZM96.28 65C94.88 69.31 90.86 71.45 87.92 73.02L87.89 73.04C86.09 74.01 85.04 74.61 84.65 75.07C84.63 75.1 84.61 75.12 84.59 75.15C84.28 75.65 84.02 76.86 83.65 78.92C83.03 82.36 82.25 86.64 78.64 89.27C75.06 91.87 70.77 91.3 67.33 90.84H67.27C65.23 90.56 63.92 90.43 63.32 90.6C63.29 90.6 63.26 90.62 63.23 90.63C62.72 90.85 61.85 91.64 60.4 93.03C57.85 95.48 54.68 98.54 50.11 98.54C45.54 98.54 42.22 95.36 39.81 93.03C38.4 91.67 37.48 90.84 36.93 90.61C36.9 90.6 36.87 90.59 36.84 90.58C36.67 90.53 36.43 90.51 36.14 90.51C35.44 90.51 34.39 90.63 32.93 90.83H32.88C29.43 91.3 25.14 91.87 21.56 89.27C17.95 86.64 17.18 82.36 16.56 78.92C16.19 76.85 15.92 75.63 15.59 75.11C15.57 75.08 15.55 75.05 15.53 75.03C15.15 74.59 14.11 73.99 12.29 73.01C9.19 71.35 5.33 69.29 3.93 65C3.62 64.06 3.47 63.05 3.47 62.01C3.47 58.99 4.77 56.27 5.92 53.88L5.96 53.81C6.9 51.85 7.41 50.66 7.43 50.01C7.43 50 7.43 49.99 7.43 49.98C7.41 49.32 6.87 48.07 5.94 46.14C4.78 43.73 3.48 41 3.48 37.98C3.48 36.95 3.64 35.94 3.94 34.98C5.33 30.69 9.19 28.63 12.3 26.97L12.36 26.94C14.1 26.01 15.18 25.38 15.57 24.92C15.59 24.9 15.61 24.87 15.63 24.84C15.95 24.34 16.22 23.08 16.58 21.07C17.2 17.63 17.97 13.35 21.59 10.72C25.17 8.11 29.46 8.69 32.91 9.15C35.03 9.44 36.3 9.56 36.91 9.39C36.94 9.39 36.98 9.37 37.01 9.36C37.52 9.14 38.39 8.34 39.85 6.95C42.26 4.63 45.57 1.45 50.14 1.45C54.71 1.45 57.88 4.5 60.42 6.95C61.83 8.31 62.75 9.14 63.3 9.38C63.33 9.39 63.37 9.41 63.4 9.41C63.98 9.56 65.23 9.44 67.33 9.16C70.79 8.69 75.09 8.11 78.67 10.72C82.28 13.35 83.05 17.62 83.67 21.05L83.69 21.15C84 22.85 84.29 24.3 84.65 24.87C84.67 24.9 84.69 24.92 84.71 24.95C85.09 25.4 86.14 26 87.95 26.97C91.06 28.63 94.92 30.7 96.32 34.99C96.63 35.94 96.78 36.94 96.78 37.98C96.78 41.01 95.47 43.73 94.31 46.13L94.27 46.21C93.34 48.16 92.83 49.33 92.81 49.98C92.81 49.99 92.81 50 92.81 50.01C92.83 50.66 93.37 51.91 94.3 53.85C95.46 56.25 96.76 58.97 96.76 62C96.76 63.04 96.6 64.04 96.3 64.99L96.28 65Z" fill="#0E1721"/>
  <path d="M89.31 50.0999C89.31 50.0299 89.31 49.9699 89.31 49.8999C89.34 48.5999 89.87 47.2999 91.11 44.7099L91.14 44.6399C92.18 42.4699 93.26 40.2299 93.26 37.9899C93.26 37.3199 93.16 36.6699 92.97 36.0699C92.08 33.3199 89.74 31.8999 86.27 30.0499C83.89 28.7799 82.77 28.1099 82.02 27.2099C81.9 27.0699 81.79 26.9199 81.7 26.7699C81.04 25.7399 80.73 24.4599 80.24 21.7899L80.22 21.6899C79.53 17.8599 78.91 15.2299 76.59 13.5399C75.35 12.6399 73.91 12.2399 71.91 12.2399C70.54 12.2399 69.13 12.4299 67.76 12.6199C66.44 12.7999 65.07 12.9699 64.04 12.9699C63.43 12.9699 62.93 12.9099 62.46 12.7799C62.26 12.7299 62.07 12.6599 61.89 12.5799C60.83 12.1199 59.82 11.2499 57.97 9.45994C55.13 6.72994 53.05 4.93994 50.1 4.93994C46.93 4.93994 44.43 7.34994 42.22 9.46994C40.24 11.3799 39.36 12.1299 38.36 12.5599C38.17 12.6399 37.98 12.7099 37.79 12.7599C37.29 12.8999 36.76 12.9599 36.12 12.9599C35.08 12.9599 33.77 12.7999 32.4 12.6099C31.04 12.4299 29.63 12.2399 28.27 12.2399C26.28 12.2399 24.83 12.6399 23.6 13.5399C21.29 15.2199 20.66 17.8599 19.97 21.6999C19.48 24.4099 19.18 25.6999 18.54 26.7099C18.44 26.8699 18.33 27.0199 18.21 27.1599C17.44 28.0799 16.33 28.7599 13.97 30.0199L13.91 30.0499C10.45 31.8999 8.11999 33.3199 7.21999 36.0699C7.01999 36.6699 6.92999 37.3199 6.92999 37.9899C6.92999 40.2199 7.95999 42.3599 9.04999 44.6399C10.29 47.2099 10.85 48.5899 10.88 49.8999C10.88 49.9699 10.88 50.0299 10.88 50.0999C10.85 51.4099 10.32 52.7099 9.06999 55.3199L9.03999 55.3899C7.99999 57.5499 6.92999 59.7899 6.92999 62.0199C6.92999 62.6899 7.02999 63.3299 7.21999 63.9199C8.11999 66.6799 10.45 68.0999 13.91 69.9399L13.94 69.9499C16.3 71.2099 17.41 71.8799 18.16 72.7599C18.29 72.9099 18.41 73.0799 18.52 73.2499C19.18 74.2799 19.49 75.5899 19.98 78.3099C20.67 82.1399 21.3 84.7799 23.61 86.4699C24.85 87.3699 26.29 87.7699 28.29 87.7699C29.65 87.7699 31.05 87.5799 32.41 87.3999H32.45C33.76 87.2199 35.12 87.0399 36.15 87.0399C36.77 87.0399 37.28 87.0999 37.76 87.2299C37.94 87.2799 38.12 87.3399 38.29 87.4099C39.36 87.8599 40.37 88.7399 42.22 90.5299C44.42 92.6599 46.92 95.0599 50.1 95.0599C53.05 95.0599 55.13 93.2599 57.98 90.5299C59.96 88.6299 60.84 87.8699 61.84 87.4399C62.01 87.3699 62.19 87.2999 62.37 87.2499C62.87 87.1099 63.41 87.0399 64.07 87.0399C65.11 87.0399 66.45 87.2099 67.73 87.3799H67.79C69.15 87.5699 70.56 87.7599 71.91 87.7599C73.91 87.7599 75.35 87.3599 76.59 86.4599C78.9 84.7799 79.52 82.1399 80.22 78.2999C80.71 75.5899 81.01 74.2999 81.64 73.2899C81.74 73.1199 81.86 72.9599 81.99 72.8099C82.76 71.9099 83.87 71.2299 86.23 69.9599L86.27 69.9399C88.96 68.5099 92 66.8799 92.97 63.9099C93.16 63.3199 93.26 62.6699 93.26 61.9999C93.26 59.7699 92.23 57.6299 91.13 55.3399C89.89 52.7699 89.34 51.3999 89.3 50.0899L89.31 50.0999ZM91.59 63.4799C90.8 65.8999 88.03 67.3699 85.59 68.6799L85.55 68.6999C83.01 70.0599 81.8 70.7999 80.89 71.8899C80.72 72.0899 80.56 72.3099 80.42 72.5299C79.66 73.7399 79.32 75.1499 78.8 78.0499C78.17 81.5399 77.61 83.9299 75.75 85.2899C74.77 85.9999 73.59 86.3199 71.92 86.3199C70.66 86.3199 69.3 86.1399 67.99 85.9599H67.93C66.6 85.7699 65.21 85.5999 64.08 85.5999C63.29 85.5999 62.62 85.6799 61.99 85.8599C61.75 85.9299 61.51 86.0099 61.27 86.1099C60.06 86.6299 59.1 87.4499 56.98 89.4899C54.39 91.9799 52.51 93.6199 50.11 93.6199C47.52 93.6199 45.24 91.4299 43.24 89.4899C41.25 87.5699 40.14 86.6199 38.86 86.0799C38.63 85.9799 38.39 85.8999 38.15 85.8299C37.54 85.6599 36.91 85.5899 36.16 85.5899C35.04 85.5899 33.63 85.7699 32.27 85.9499H32.23C30.92 86.1299 29.56 86.3099 28.3 86.3099C26.63 86.3099 25.45 85.9899 24.47 85.2899C22.6 83.9199 22.04 81.5399 21.42 78.0499C20.89 75.1299 20.54 73.7099 19.75 72.4699C19.6 72.2399 19.44 72.0199 19.27 71.8199C18.37 70.7699 17.17 70.0299 14.64 68.6799C14.64 68.6799 14.61 68.6699 14.61 68.6599C11.46 66.9799 9.34999 65.7099 8.61999 63.4599C8.46999 63.0199 8.39999 62.5299 8.39999 62.0099C8.39999 60.1099 9.39999 58.0299 10.37 56.0099L10.4 55.9399C11.75 53.1299 12.32 51.6999 12.35 50.1299C12.35 50.0399 12.35 49.9499 12.35 49.8599C12.31 48.2699 11.71 46.7699 10.37 43.9999C9.34999 41.8799 8.38999 39.8799 8.38999 37.9799C8.38999 37.4599 8.46999 36.9699 8.60999 36.5099C9.32999 34.2799 11.45 33.0099 14.6 31.3299L14.66 31.2999C17.19 29.9499 18.4 29.1999 19.33 28.0899C19.49 27.8999 19.64 27.6899 19.78 27.4799C20.55 26.2599 20.89 24.8499 21.41 21.9499C22.04 18.4599 22.59 16.0699 24.47 14.7099C25.44 13.9999 26.62 13.6799 28.29 13.6799C29.55 13.6799 30.91 13.8599 32.22 14.0399C33.63 14.2299 35 14.3999 36.13 14.3999C36.91 14.3999 37.56 14.3199 38.19 14.1499C38.45 14.0799 38.71 13.9899 38.96 13.8799C40.16 13.3599 41.13 12.5399 43.25 10.4999C45.26 8.56994 47.54 6.37994 50.12 6.37994C52.52 6.37994 54.39 8.00994 56.98 10.4999C58.97 12.4199 60.07 13.3599 61.34 13.9099C61.59 14.0199 61.85 14.1099 62.11 14.1799C62.71 14.3399 63.33 14.4099 64.07 14.4099C65.18 14.4099 66.61 14.2299 67.98 14.0399C69.3 13.8599 70.67 13.6799 71.93 13.6799C73.6 13.6799 74.78 13.9999 75.75 14.6999C77.62 16.0599 78.18 18.4499 78.8 21.9299L78.82 22.0299C79.34 24.8999 79.69 26.2999 80.49 27.5399C80.62 27.7499 80.77 27.9399 80.93 28.1299C81.84 29.2099 83.06 29.9499 85.61 31.3099C88.76 32.9999 90.88 34.2699 91.61 36.4999C91.76 36.9499 91.83 37.4499 91.83 37.9699C91.83 39.8799 90.82 41.9699 89.85 43.9999L89.82 44.0699C88.48 46.8599 87.92 48.2799 87.88 49.8599C87.88 49.9499 87.88 50.0399 87.88 50.1299C87.92 51.7099 88.52 53.2099 89.86 55.9999C90.88 58.1099 91.84 60.1099 91.84 62.0099C91.84 62.5299 91.77 63.0199 91.62 63.4699L91.59 63.4799Z" fill="#0E1721"/>
  <path d="M76.38 55.88L73.53 53.82V47.07C73.53 46.13 72.77 45.37 71.83 45.37H52.33C51.39 45.37 50.63 46.13 50.63 47.07V52.13L45.03 48.93C47.11 46.74 48.28 43.54 48.28 40.48V38.73C48.28 34.37 45.8 29.28 38.83 29.28C35.52 29.28 32.91 30.44 31.27 32.63C29.62 34.82 29.38 37.4 29.38 38.74V40.49C29.38 43.55 30.55 46.75 32.63 48.94L22.44 54.76C21.34 55.39 20.65 56.57 20.65 57.84V59.7C20.65 62.99 23.33 65.66 26.61 65.66H47.02V72.21C47.02 72.81 47.28 73.38 47.73 73.77C48.11 74.1 48.59 74.28 49.09 74.28H75.07C75.57 74.28 76.06 74.1 76.43 73.77C76.88 73.38 77.14 72.81 77.14 72.21V57.57C77.14 57.05 76.95 56.56 76.6 56.18C76.55 56.07 76.47 55.97 76.37 55.9L76.38 55.88ZM74.17 72.82H49.99L51.59 71.67L52.36 71.12L53.37 70.39L59.78 65.77L61.66 67.13C61.79 67.22 61.94 67.27 62.08 67.27C62.22 67.27 62.38 67.22 62.5 67.13L64.38 65.77L70.79 70.39L71.8 71.12L72.57 71.67L74.17 72.82ZM22.09 57.83C22.09 57.08 22.49 56.38 23.15 56.01L33.75 49.95C35.16 51.02 36.86 51.68 38.82 51.68C40.78 51.68 42.49 51.02 43.89 49.95L50.63 53.8V53.83L47.78 55.89C47.68 55.96 47.6 56.06 47.55 56.17C47.21 56.55 47.01 57.04 47.01 57.56V64.2H26.6C24.11 64.2 22.09 62.18 22.09 59.69V57.83ZM30.82 38.73C30.82 36.85 31.4 30.73 38.82 30.73C40.7 30.73 46.82 31.31 46.82 38.73V40.48C46.82 44.06 45.35 46.83 43.36 48.48C43.03 48.75 42.69 48.99 42.33 49.21C41.81 49.52 41.26 49.77 40.71 49.94C40.08 50.13 39.45 50.23 38.82 50.23C38.12 50.23 37.45 50.12 36.83 49.94C36.26 49.77 35.72 49.52 35.22 49.21C34.87 49 34.54 48.75 34.23 48.48C32.05 46.6 30.81 43.46 30.81 40.48V38.73H30.82ZM62.57 46.83H71.82C71.96 46.83 72.07 46.94 72.07 47.08V58.44L68.92 60.71L64.38 63.98L63.96 64.29L63.76 64.43L63.14 64.88L62.07 65.65L61 64.88L60.38 64.43L60.18 64.29L59.76 63.98L56.63 61.72L56.02 61.28L55.39 60.83L52.07 58.44V47.08C52.07 46.94 52.18 46.83 52.32 46.83H62.57ZM75.69 72.12L73.48 70.53L72.8 70.04L72.07 69.52L65.62 64.87L70.47 61.38L72.07 60.23L72.8 59.71L73.53 59.19L75.7 57.63V72.14L75.69 72.12ZM48.47 64.92V57.62L50.64 59.18L51.37 59.7L52.1 60.22L54.81 62.18L55.4 62.61L55.99 63.03L58.55 64.87L52.1 69.52L51.37 70.04L50.69 70.53L48.48 72.12V64.92H48.47Z" fill="#0E1721"/>
  <path d="M56.13 51.65C56.01 51.7 55.91 51.77 55.83 51.87C55.73 52 55.66 52.15 55.66 52.33C55.66 52.73 55.98 53.06 56.39 53.06H67.78C68.18 53.06 68.51 52.74 68.51 52.33C68.51 52.15 68.45 52 68.34 51.87C68.26 51.77 68.16 51.7 68.04 51.65C67.96 51.62 67.87 51.6 67.78 51.6H56.39C56.3 51.6 56.21 51.62 56.13 51.65Z" fill="#0E1721"/>
  <path d="M68.01 55.4799C67.94 55.4499 67.86 55.4399 67.78 55.4399H56.39C56.31 55.4399 56.23 55.4599 56.16 55.4799C56.15 55.4799 56.13 55.4799 56.12 55.4899C55.88 55.5899 55.71 55.8099 55.67 56.0799C55.67 56.1099 55.67 56.1299 55.67 56.1599C55.67 56.1699 55.67 56.1899 55.67 56.1999C55.69 56.4599 55.84 56.6899 56.07 56.7999C56.08 56.7999 56.09 56.8099 56.1 56.8199C56.19 56.8599 56.29 56.8799 56.39 56.8799H67.78C67.9 56.8799 68.01 56.8499 68.11 56.7999C68.33 56.6899 68.49 56.4599 68.51 56.1999C68.51 56.1899 68.51 56.1699 68.51 56.1599C68.51 56.1299 68.51 56.1099 68.51 56.0799C68.48 55.7999 68.29 55.5699 68.03 55.4799H68.01Z" fill="#0E1721"/>
  <path d="M64.39 59.26H59.77C59.37 59.26 59.04 59.58 59.04 59.99C59.04 60.4 59.36 60.72 59.77 60.72H64.39C64.79 60.72 65.12 60.4 65.12 59.99C65.12 59.58 64.8 59.26 64.39 59.26Z" fill="#0E1721"/>
  <path d="M62.08 42.84C66.9 42.84 70.81 38.92 70.81 34.11C70.81 29.3 66.89 25.38 62.08 25.38C57.27 25.38 53.35 29.3 53.35 34.11C53.35 38.92 57.27 42.84 62.08 42.84ZM62.08 26.82C66.1 26.82 69.36 30.09 69.36 34.1C69.36 38.11 66.09 41.38 62.08 41.38C58.07 41.38 54.8 38.11 54.8 34.1C54.8 30.09 58.07 26.82 62.08 26.82Z" fill="#0E1721"/>
  <path d="M58.76 35.14H61.35V37.73C61.35 38.13 61.67 38.46 62.08 38.46C62.49 38.46 62.81 38.14 62.81 37.73V35.14H65.4C65.8 35.14 66.13 34.82 66.13 34.41C66.13 34 65.81 33.68 65.4 33.68H62.81V31.09C62.81 30.69 62.49 30.36 62.08 30.36C61.67 30.36 61.35 30.68 61.35 31.09V33.68H58.76C58.36 33.68 58.03 34 58.03 34.41C58.03 34.82 58.35 35.14 58.76 35.14Z" fill="white"/>
</svg>
