<svg xmlns="http://www.w3.org/2000/svg" width="100" height="100" viewBox="0 0 100 100" fill="none">
  <path d="M92.79 50.02C92.79 50.02 92.79 50 92.79 49.99C92.81 49.35 93.31 48.17 94.25 46.22L94.29 46.1399C95.45 43.7399 96.76 41.02 96.76 37.99C96.76 36.95 96.6 35.95 96.3 35C94.9 30.7099 91.04 28.6399 87.93 26.9799C86.12 26.02 85.07 25.41 84.69 24.9599C84.67 24.9399 84.6499 24.91 84.63 24.8799C84.27 24.3099 83.9799 22.86 83.67 21.16L83.65 21.0599C83.03 17.6299 82.26 13.36 78.65 10.72C75.06 8.10995 70.7599 8.68995 67.3099 9.15995C65.2099 9.43995 63.96 9.56995 63.38 9.40995C63.35 9.40995 63.3099 9.38995 63.2799 9.37995C62.7299 9.13995 61.81 8.30995 60.4 6.94995C57.85 4.49995 54.68 1.44995 50.1199 1.44995C45.5599 1.44995 42.24 4.62995 39.83 6.94995C38.38 8.34995 37.5 9.13995 36.99 9.35995C36.96 9.36995 36.93 9.38995 36.8899 9.38995C36.2799 9.55995 35.0099 9.43995 32.8899 9.14995C29.4399 8.67995 25.16 8.10995 21.57 10.72C17.96 13.35 17.18 17.6299 16.56 21.07C16.2 23.08 15.93 24.34 15.61 24.84C15.59 24.87 15.57 24.8899 15.55 24.92C15.16 25.3799 14.08 26.01 12.34 26.94L12.28 26.9699C9.17995 28.6299 5.31995 30.6899 3.91995 34.9799C3.60995 35.93 3.45995 36.9399 3.45995 37.9799C3.45995 41 4.76995 43.7299 5.91995 46.1399C6.84995 48.07 7.39995 49.32 7.40995 49.9799C7.40995 49.9899 7.40995 50 7.40995 50.0099C7.38995 50.7199 6.73995 52.1499 5.93995 53.7999L5.89995 53.88C4.74995 56.28 3.44995 58.9899 3.44995 62.0099C3.44995 63.0499 3.60995 64.06 3.90995 65C5.29995 69.2899 9.15995 71.36 12.27 73.01L12.3 73.02C14.1 73.9799 15.14 74.59 15.52 75.02C15.54 75.0499 15.56 75.07 15.58 75.1C15.91 75.6199 16.18 76.84 16.55 78.91C17.17 82.35 17.9399 86.62 21.5499 89.26C25.1299 91.86 29.42 91.29 32.87 90.83H32.92C34.3899 90.62 35.44 90.5 36.13 90.5C36.43 90.5 36.66 90.52 36.83 90.57C36.86 90.57 36.8899 90.59 36.9199 90.6C37.4699 90.83 38.3899 91.66 39.7999 93.02C42.2099 95.35 45.5099 98.53 50.0999 98.53C54.6899 98.53 57.84 95.4799 60.3899 93.02C61.8299 91.63 62.71 90.84 63.22 90.62C63.25 90.61 63.28 90.6 63.31 90.59C63.92 90.42 65.22 90.55 67.26 90.82H67.32C70.77 91.29 75.06 91.86 78.63 89.26C82.24 86.63 83.01 82.35 83.64 78.91C84.01 76.85 84.27 75.64 84.58 75.14C84.6 75.11 84.62 75.0799 84.64 75.06C85.03 74.6 86.0799 73.99 87.88 73.03L87.91 73.01C90.85 71.44 94.8699 69.2999 96.27 64.9899C96.5799 64.0499 96.73 63.04 96.73 62C96.73 58.97 95.42 56.25 94.27 53.8499C93.3299 51.8999 92.79 50.66 92.78 50.0099L92.79 50.02ZM92.97 63.9199C92 66.8899 88.96 68.52 86.27 69.95L86.23 69.97C83.87 71.24 82.75 71.91 81.99 72.82C81.86 72.97 81.74 73.13 81.64 73.3C81.01 74.31 80.7 75.6 80.22 78.31C79.53 82.1499 78.8999 84.79 76.59 86.47C75.35 87.37 73.91 87.77 71.91 87.77C70.55 87.77 69.15 87.58 67.79 87.4H67.73C66.45 87.22 65.11 87.05 64.07 87.05C63.41 87.05 62.8699 87.12 62.3699 87.26C62.1899 87.31 62.0099 87.3699 61.84 87.45C60.84 87.88 59.9599 88.64 57.9799 90.54C55.1399 93.28 53.0499 95.07 50.0999 95.07C46.9199 95.07 44.42 92.66 42.22 90.54C40.36 88.75 39.35 87.88 38.29 87.42C38.12 87.35 37.9399 87.29 37.7599 87.24C37.2799 87.11 36.77 87.05 36.15 87.05C35.13 87.05 33.76 87.22 32.45 87.4H32.41C31.0499 87.59 29.64 87.78 28.29 87.78C26.29 87.78 24.85 87.38 23.61 86.48C21.3 84.79 20.67 82.16 19.9799 78.32C19.49 75.6 19.17 74.3 18.52 73.26C18.41 73.09 18.29 72.93 18.16 72.77C17.41 71.8999 16.3 71.2299 13.94 69.96L13.91 69.95C10.45 68.1 8.11995 66.6899 7.21995 63.93C7.02995 63.34 6.92995 62.6999 6.92995 62.0299C6.92995 59.7999 7.99995 57.56 9.03995 55.4L9.06995 55.33C10.32 52.72 10.85 51.41 10.88 50.11C10.88 50.04 10.88 49.9799 10.88 49.91C10.85 48.59 10.29 47.22 9.04995 44.65C7.95995 42.37 6.92995 40.22 6.92995 38C6.92995 37.33 7.02995 36.69 7.21995 36.08C8.10995 33.33 10.45 31.91 13.91 30.0599L13.97 30.03C16.33 28.77 17.44 28.09 18.21 27.17C18.33 27.03 18.44 26.8799 18.54 26.7199C19.18 25.7099 19.4799 24.41 19.9699 21.7099C20.66 17.8799 21.29 15.24 23.6 13.55C24.84 12.65 26.28 12.25 28.27 12.25C29.63 12.25 31.0399 12.44 32.4 12.62C33.76 12.8 35.07 12.97 36.1199 12.97C36.7599 12.97 37.2999 12.91 37.79 12.77C37.9799 12.72 38.17 12.65 38.36 12.57C39.36 12.13 40.24 11.38 42.22 9.47995C44.43 7.35995 46.9299 4.94995 50.0999 4.94995C53.0399 4.94995 55.13 6.73995 57.97 9.46995C59.83 11.26 60.8299 12.14 61.8899 12.59C62.0799 12.67 62.27 12.74 62.4599 12.79C62.93 12.92 63.44 12.98 64.04 12.98C65.07 12.98 66.44 12.81 67.76 12.63C69.13 12.45 70.54 12.25 71.91 12.25C73.91 12.25 75.35 12.65 76.59 13.55C78.8999 15.23 79.53 17.87 80.22 21.7L80.24 21.7999C80.7299 24.4699 81.0399 25.76 81.7 26.78C81.7999 26.93 81.91 27.08 82.02 27.2199C82.78 28.1199 83.8999 28.7899 86.27 30.0599C89.7299 31.91 92.07 33.33 92.97 36.08C93.16 36.68 93.26 37.33 93.26 38C93.26 40.24 92.18 42.4799 91.14 44.65L91.11 44.72C89.87 47.32 89.34 48.61 89.31 49.91C89.31 49.9799 89.31 50.04 89.31 50.11C89.34 51.42 89.9 52.79 91.14 55.36C92.24 57.65 93.27 59.79 93.27 62.02C93.27 62.6899 93.17 63.33 92.98 63.93L92.97 63.9199Z" fill="#4279B6"/>
  <path d="M78.81 45.22L68.54 39.35C67.18 40.39 65.52 41.02 63.63 41.02C61.98 41.02 60.52 40.54 59.27 39.74C59.25 42.67 58.13 45.73 56.14 47.84L65.34 53.1H75.46C77.86 53.1 79.81 51.15 79.81 48.75V46.94C79.81 46.23 79.43 45.57 78.81 45.22Z" fill="#FC8B27"/>
  <path d="M36.57 41.03C34.67 41.03 33.02 40.4 31.66 39.36L21.41 45.22C20.79 45.58 20.4 46.24 20.4 46.96V48.76C20.4 51.16 22.35 53.1 24.74 53.1H34.86L44.06 47.84C42.07 45.73 40.95 42.68 40.93 39.74C39.68 40.54 38.22 41.02 36.57 41.02V41.03Z" fill="#FC8B27"/>
  <path d="M65.28 54.73L64.96 54.55L63.69 53.82L62.42 53.09L55.01 48.86C54.73 49.07 54.45 49.26 54.15 49.44C53.89 49.59 53.62 49.73 53.35 49.85C53.08 49.97 52.79 50.08 52.5 50.17C51.75 50.4 50.95 50.53 50.1 50.53C49.25 50.53 48.45 50.4 47.7 50.17C47.41 50.08 47.13 49.97 46.85 49.85C46.57 49.73 46.31 49.59 46.05 49.44C45.75 49.27 45.46 49.07 45.19 48.86L37.78 53.09L36.51 53.82L35.24 54.55L34.92 54.73C34.3 55.08 33.92 55.74 33.92 56.45V58.26C33.92 59.27 34.27 60.21 34.86 60.95C34.94 60.47 35.18 60.03 35.54 59.71C35.92 59.38 36.41 59.19 36.92 59.19H63.27C63.78 59.19 64.27 59.37 64.65 59.71C65.02 60.03 65.26 60.47 65.33 60.95C65.91 60.21 66.27 59.28 66.27 58.26V56.45C66.27 55.74 65.89 55.08 65.27 54.73H65.28Z" fill="#FCCD2A"/>
  <path d="M87.86 50.14C87.86 50.05 87.86 49.96 87.86 49.87C87.9 48.3 88.46 46.88 89.8 44.08L89.83 44.01C90.81 41.98 91.81 39.89 91.81 37.98C91.81 37.46 91.74 36.96 91.59 36.51C90.86 34.28 88.74 33.01 85.59 31.32C83.04 29.96 81.82 29.22 80.91 28.14C80.75 27.95 80.61 27.76 80.47 27.55C79.68 26.31 79.33 24.91 78.8 22.04L78.78 21.94C78.15 18.46 77.6 16.07 75.73 14.71C74.76 14 73.58 13.69 71.91 13.69C70.64 13.69 69.28 13.87 67.96 14.05C66.59 14.24 65.16 14.42 64.05 14.42C63.31 14.42 62.69 14.35 62.09 14.19C61.83 14.12 61.57 14.03 61.32 13.92C60.05 13.37 58.95 12.43 56.96 10.51C54.38 8.02002 52.5 6.39001 50.1 6.39001C47.51 6.39001 45.24 8.58002 43.23 10.51C41.11 12.55 40.15 13.37 38.94 13.89C38.69 14 38.43 14.09 38.17 14.16C37.55 14.33 36.89 14.41 36.11 14.41C34.98 14.41 33.61 14.24 32.2 14.05C30.89 13.87 29.53 13.69 28.27 13.69C26.6 13.69 25.42 14.01 24.45 14.72C22.58 16.08 22.02 18.47 21.39 21.96C20.87 24.86 20.53 26.27 19.76 27.49C19.62 27.7 19.47 27.91 19.31 28.1C18.39 29.21 17.18 29.95 14.64 31.31L14.58 31.34C11.43 33.02 9.32 34.29 8.59 36.52C8.44 36.98 8.37 37.47 8.37 37.99C8.37 39.89 9.33 41.89 10.35 44.01C11.69 46.78 12.29 48.29 12.33 49.87C12.33 49.96 12.33 50.05 12.33 50.14C12.29 51.71 11.72 53.14 10.38 55.95L10.35 56.02C9.38 58.04 8.38 60.12 8.38 62.02C8.38 62.54 8.45 63.03 8.6 63.47C9.33 65.72 11.45 66.98 14.59 68.67C14.59 68.67 14.62 68.68 14.62 68.69C17.15 70.04 18.35 70.78 19.25 71.83C19.43 72.03 19.59 72.25 19.73 72.48C20.52 73.72 20.87 75.14 21.4 78.06C22.03 81.55 22.58 83.94 24.45 85.3C25.42 86.01 26.6 86.32 28.28 86.32C29.54 86.32 30.9 86.14 32.21 85.96H32.25C33.61 85.77 35.02 85.59 36.14 85.59C36.89 85.59 37.52 85.67 38.13 85.83C38.37 85.9 38.61 85.98 38.84 86.08C40.12 86.62 41.22 87.57 43.22 89.49C45.23 91.43 47.5 93.62 50.09 93.62C52.49 93.62 54.37 91.99 56.96 89.49C59.08 87.45 60.04 86.63 61.25 86.11C61.48 86.01 61.73 85.92 61.97 85.86C62.61 85.68 63.27 85.6 64.06 85.6C65.19 85.6 66.58 85.77 67.91 85.95H67.97C69.28 86.13 70.64 86.32 71.9 86.32C73.57 86.32 74.75 86 75.73 85.29C77.6 83.93 78.15 81.54 78.78 78.05C79.3 75.15 79.64 73.74 80.4 72.53C80.54 72.31 80.7 72.09 80.87 71.89C81.79 70.8 83 70.06 85.53 68.7L85.57 68.68C88.02 67.38 90.79 65.9 91.57 63.48C91.72 63.03 91.79 62.54 91.79 62.02C91.79 60.12 90.83 58.12 89.81 56.01C88.47 53.22 87.87 51.72 87.83 50.14H87.86ZM81.26 48.75C81.26 51.95 78.66 54.55 75.46 54.55H67.14C67.51 55.11 67.72 55.76 67.72 56.45V58.26C67.72 60.17 66.79 61.86 65.36 62.91V76.13C65.36 76.73 65.1 77.31 64.64 77.71C64.26 78.04 63.77 78.23 63.26 78.23H36.91C36.4 78.23 35.92 78.05 35.53 77.71C35.08 77.31 34.81 76.74 34.81 76.13V62.91C33.38 61.85 32.45 60.16 32.45 58.25V56.44C32.45 55.75 32.66 55.09 33.04 54.54H24.72C21.52 54.54 18.92 51.94 18.92 48.74V46.94C18.92 45.7 19.59 44.55 20.66 43.94L30.5 38.32C28.5 36.19 27.37 33.1 27.37 30.15V28.46C27.37 24.23 29.77 19.28 36.55 19.28C39.76 19.28 42.3 20.4 43.89 22.53C45.49 24.66 45.73 27.16 45.73 28.46V29.66C46.92 29.11 48.36 28.79 50.08 28.79C51.8 28.79 53.24 29.11 54.44 29.66V28.46C54.44 24.23 56.84 19.28 63.62 19.28C70.4 19.28 72.8 24.22 72.8 28.46V30.15C72.8 33.11 71.68 36.2 69.67 38.32L79.52 43.95C80.59 44.56 81.25 45.7 81.25 46.93V48.74L81.26 48.75Z" fill="white"/>
  <path d="M71.36 28.47C71.36 26.66 70.8 20.74 63.63 20.74C56.46 20.74 55.9 26.65 55.9 28.47V30.16C55.9 30.29 55.9 30.41 55.9 30.54C58.28 32.34 59.24 35.24 59.26 37.88C59.26 37.9 59.26 37.92 59.26 37.94C59.55 38.18 59.86 38.41 60.18 38.6C60.7 38.91 61.25 39.16 61.85 39.33C62.41 39.48 63 39.57 63.62 39.57C64.18 39.57 64.74 39.49 65.29 39.33C65.86 39.17 66.43 38.92 66.97 38.6C67.33 38.39 67.67 38.15 68 37.87C69.93 36.27 71.34 33.6 71.34 30.14V28.45L71.36 28.47Z" fill="white"/>
  <path d="M44.2799 30.54C44.2799 30.41 44.2799 30.29 44.2799 30.16V28.47C44.2799 26.66 43.7199 20.74 36.5499 20.74C29.3799 20.74 28.8199 26.65 28.8199 28.47V30.16C28.8199 33.04 30.0199 36.06 32.1099 37.88C32.4199 38.15 32.7499 38.39 33.0999 38.61C33.6199 38.92 34.1699 39.17 34.7699 39.34C35.3299 39.49 35.9199 39.58 36.5399 39.58C37.0999 39.58 37.6599 39.5 38.2099 39.34C38.7799 39.18 39.3499 38.93 39.8899 38.61C40.2299 38.41 40.5699 38.17 40.8899 37.91V37.89C40.9099 35.24 41.8699 32.34 44.2499 30.55L44.2799 30.54Z" fill="white"/>
  <path d="M57.64 36.07C57.44 35.06 57.04 33.88 56.25 32.84C55.98 32.5 55.67 32.17 55.32 31.87C55.08 31.67 54.81 31.48 54.52 31.31C53.44 30.67 52.01 30.25 50.11 30.25C48.21 30.25 46.78 30.67 45.7 31.31C45.41 31.48 45.14 31.67 44.9 31.87C44.56 32.15 44.26 32.46 44.01 32.78C43.17 33.84 42.76 35.07 42.56 36.12C42.46 36.64 42.41 37.12 42.39 37.51C42.39 37.69 42.38 37.85 42.38 37.98V39.67C42.38 39.74 42.38 39.8 42.38 39.87C42.43 42.69 43.62 45.62 45.67 47.39C45.78 47.48 45.89 47.58 46 47.66C46.21 47.82 46.43 47.97 46.66 48.11C46.68 48.12 46.7 48.14 46.73 48.15C46.96 48.29 47.21 48.41 47.46 48.52C47.74 48.64 48.03 48.75 48.34 48.83C48.9 48.98 49.49 49.07 50.11 49.07C50.67 49.07 51.23 48.99 51.78 48.83C52.11 48.74 52.43 48.62 52.75 48.47C52.99 48.36 53.23 48.24 53.46 48.1C53.46 48.1 53.47 48.1 53.48 48.1C53.73 47.95 53.97 47.79 54.21 47.61C54.31 47.54 54.4 47.46 54.5 47.38C56.39 45.81 57.78 43.21 57.83 39.86C57.83 39.79 57.83 39.73 57.83 39.66V37.97C57.83 37.84 57.83 37.68 57.82 37.5C57.8 37.1 57.75 36.61 57.65 36.07H57.64Z" fill="white"/>
  <path d="M40.53 62.61L41.53 63.33L42.5401 64.06L50.1 69.5L57.66 64.06L58.66 63.33L59.67 62.61L60.92 61.71L62.4001 60.64H37.8L39.28 61.71L40.53 62.61Z" fill="#3C8645"/>
  <path d="M42.42 65.7601L40.06 64.0601L39.05 63.3301L38.03 62.5901L36.28 61.3301V62.1201V62.9301V63.7001V76.0901L46.52 68.7101L42.42 65.7601Z" fill="#3C8645"/>
  <path d="M62.1701 62.5901L61.1401 63.3301L60.1401 64.0601L57.7801 65.7601L53.6801 68.7101L63.9201 76.0901V63.7001V62.9301V62.1201V61.3301L62.1701 62.5901Z" fill="#3C8645"/>
  <path d="M52.4401 69.61L50.5201 70.99C50.3901 71.08 50.2401 71.13 50.1001 71.13C49.9601 71.13 49.8001 71.08 49.6801 70.99L47.7601 69.61L47.7301 69.63L37.8101 76.78H62.4001L52.4801 69.63L52.4501 69.61H52.4401Z" fill="#3C8645"/>
  <path d="M79.5299 43.96L69.6799 38.33C71.6799 36.2 72.8099 33.11 72.8099 30.16V28.47C72.8099 24.24 70.4099 19.29 63.6299 19.29C56.8499 19.29 54.4499 24.23 54.4499 28.47V29.67C53.2599 29.12 51.8199 28.8 50.0899 28.8C48.3599 28.8 46.9299 29.12 45.7399 29.67V28.47C45.7399 27.17 45.4999 24.67 43.8999 22.54C42.3099 20.42 39.7699 19.29 36.5599 19.29C29.7899 19.29 27.3799 24.23 27.3799 28.47V30.16C27.3799 33.12 28.4999 36.21 30.5099 38.33L20.6699 43.95C19.5999 44.56 18.9299 45.71 18.9299 46.95V48.75C18.9299 51.95 21.5299 54.55 24.7299 54.55H33.0499C32.6799 55.11 32.4599 55.76 32.4599 56.45V58.26C32.4599 60.17 33.3899 61.86 34.8199 62.92V76.14C34.8199 76.74 35.0799 77.32 35.5399 77.72C35.9199 78.05 36.4099 78.24 36.9199 78.24H63.2699C63.7799 78.24 64.2699 78.06 64.6499 77.72C65.0999 77.32 65.3699 76.75 65.3699 76.14V62.92C66.7999 61.86 67.7299 60.17 67.7299 58.27V56.46C67.7299 55.77 67.5199 55.11 67.1499 54.56H75.4699C78.6699 54.56 81.2699 51.96 81.2699 48.76V46.95C81.2699 45.72 80.6099 44.58 79.5399 43.97L79.5299 43.96ZM55.8999 28.47C55.8999 26.66 56.4599 20.74 63.6299 20.74C70.7999 20.74 71.3599 26.65 71.3599 28.47V30.16C71.3599 33.61 69.9499 36.28 68.0199 37.89C67.6899 38.16 67.3399 38.41 66.9899 38.62C66.4499 38.94 65.8799 39.18 65.3099 39.35C64.7499 39.51 64.1899 39.59 63.6399 39.59C63.0199 39.59 62.4299 39.51 61.8699 39.35C61.2699 39.19 60.7199 38.94 60.1999 38.62C59.8799 38.42 59.5699 38.2 59.2799 37.96C59.2799 37.94 59.2799 37.92 59.2799 37.9C59.2599 35.25 58.2999 32.35 55.9199 30.56C55.9199 30.43 55.9199 30.31 55.9199 30.18V28.49L55.8999 28.47ZM44.8899 31.88C45.1299 31.68 45.3999 31.49 45.6899 31.32C46.7699 30.68 48.1999 30.26 50.0999 30.26C51.9999 30.26 53.4299 30.68 54.5099 31.32C54.7999 31.49 55.0699 31.68 55.3099 31.88C55.6699 32.18 55.9799 32.51 56.2399 32.85C57.0299 33.88 57.4299 35.06 57.6299 36.08C57.7399 36.62 57.7799 37.11 57.7999 37.51C57.7999 37.69 57.8099 37.85 57.8099 37.98V39.67C57.8099 39.74 57.8099 39.8 57.8099 39.87C57.7599 43.22 56.3599 45.82 54.4799 47.39C54.3799 47.47 54.2899 47.55 54.1899 47.62C53.9499 47.8 53.7099 47.96 53.4599 48.11C53.4599 48.11 53.4499 48.11 53.4399 48.11C53.2099 48.25 52.9699 48.37 52.7299 48.48C52.4099 48.62 52.0899 48.74 51.7599 48.84C51.2099 49 50.6399 49.08 50.0899 49.08C49.4699 49.08 48.8799 49 48.3199 48.84C48.0199 48.76 47.7299 48.65 47.4399 48.53C47.1899 48.42 46.9499 48.3 46.7099 48.16C46.6899 48.15 46.6699 48.13 46.6399 48.12C46.4099 47.98 46.1899 47.83 45.9799 47.67C45.8699 47.58 45.7599 47.49 45.6499 47.4C43.5999 45.62 42.4099 42.7 42.3599 39.88C42.3599 39.81 42.3599 39.75 42.3599 39.68V37.99C42.3599 37.86 42.3599 37.7 42.3699 37.52C42.3899 37.13 42.4399 36.66 42.5399 36.13C42.7399 35.08 43.1499 33.86 43.9899 32.79C44.2399 32.47 44.5399 32.16 44.8799 31.88H44.8899ZM28.8399 30.16V28.47C28.8399 26.66 29.3999 20.74 36.5699 20.74C43.7399 20.74 44.2999 26.65 44.2999 28.47V30.16C44.2999 30.29 44.2999 30.41 44.2999 30.54C41.9199 32.34 40.9599 35.24 40.9399 37.88V37.9C40.6199 38.16 40.2799 38.4 39.9399 38.6C39.3999 38.92 38.8299 39.16 38.2599 39.33C37.6999 39.49 37.1399 39.57 36.5899 39.57C35.9699 39.57 35.3799 39.49 34.8199 39.33C34.2199 39.17 33.6699 38.92 33.1499 38.6C32.7999 38.39 32.4699 38.14 32.1599 37.87C30.0599 36.05 28.8699 33.03 28.8699 30.15L28.8399 30.16ZM24.7399 53.1C22.3399 53.1 20.3999 51.15 20.3999 48.76V46.96C20.3999 46.24 20.7899 45.58 21.4099 45.22L31.6599 39.36C33.0199 40.4 34.6799 41.03 36.5699 41.03C38.2199 41.03 39.6799 40.55 40.9299 39.75C40.9499 42.68 42.0699 45.74 44.0599 47.85L34.8599 53.11H24.7399V53.1ZM36.2799 76.09V61.33L38.0299 62.59L39.0499 63.33L40.0599 64.06L42.4199 65.76L46.5199 68.71L36.2799 76.09ZM37.7999 60.64H62.3899L60.9099 61.71L59.6599 62.61L58.6499 63.34L57.6399 64.07L50.0799 69.52L42.5199 64.07L41.5099 63.34L40.4999 62.61L39.2499 61.71L37.7699 60.64H37.7999ZM62.3899 76.78H37.7999L47.7199 69.63L47.7499 69.61L49.6699 70.99C49.7999 71.08 49.9499 71.13 50.0899 71.13C50.2299 71.13 50.3899 71.08 50.5099 70.99L52.4299 69.61L52.4599 69.63L62.3799 76.78H62.3899ZM63.9199 61.33V76.09L53.6799 68.71L57.7799 65.76L60.1399 64.06L61.1499 63.33L62.1699 62.59L63.9199 61.33ZM66.2699 58.26C66.2699 59.27 65.9199 60.21 65.3299 60.95C65.2499 60.47 65.0099 60.03 64.6499 59.71C64.2699 59.38 63.7799 59.19 63.2699 59.19H36.9199C36.4099 59.19 35.9299 59.37 35.5399 59.71C35.1699 60.03 34.9299 60.47 34.8599 60.95C34.2799 60.21 33.9199 59.28 33.9199 58.26V56.45C33.9199 55.74 34.2999 55.08 34.9199 54.73L35.2399 54.55L36.5099 53.82L37.7799 53.09L45.1899 48.86C45.4699 49.07 45.7499 49.26 46.0499 49.44C46.3099 49.59 46.5799 49.73 46.8499 49.85C47.1199 49.97 47.4099 50.08 47.6999 50.17C48.4499 50.4 49.2499 50.53 50.0999 50.53C50.9499 50.53 51.7499 50.4 52.4999 50.17C52.7899 50.08 53.0699 49.97 53.3499 49.85C53.6299 49.73 53.8899 49.59 54.1499 49.44C54.4499 49.27 54.7399 49.07 55.0099 48.86L62.4199 53.09L63.6899 53.82L64.9599 54.55L65.2799 54.73C65.8999 55.08 66.2799 55.74 66.2799 56.45V58.26H66.2699ZM79.8099 48.75C79.8099 51.15 77.8599 53.1 75.4599 53.1H65.3399L56.1399 47.84C58.1299 45.73 59.2499 42.68 59.2699 39.74C60.5199 40.54 61.9799 41.02 63.6299 41.02C65.5299 41.02 67.1799 40.39 68.5399 39.35L78.8099 45.22C79.4299 45.57 79.8099 46.23 79.8099 46.94V48.75Z" fill="#0E1721"/>
  <path d="M94.24 50C94.28 49.51 95.2 47.57 95.55 46.84L95.59 46.77C96.81 44.23 98.2 41.35 98.2 37.99C98.2 36.8 98.02 35.64 97.67 34.55C96.09 29.7 91.94 27.48 88.6 25.7C88 25.38 86.19 24.42 85.82 24.06C85.58 23.6 85.23 21.66 85.09 20.91L85.07 20.81C84.41 17.12 83.58 12.54 79.49 9.56C75.43 6.61 70.81 7.23 67.1 7.73C66.4 7.82 64.32 8.11 63.79 8.03C63.47 7.86 62.67 7.14 61.39 5.91C58.65 3.28 55.25 0 50.1 0C44.95 0 41.39 3.41 38.79 5.92C38.26 6.43 36.87 7.76 36.43 8.02C35.88 8.11 33.77 7.82 33.06 7.73C29.36 7.23 24.75 6.61 20.69 9.56C16.61 12.53 15.78 17.13 15.11 20.83C14.99 21.52 14.62 23.57 14.39 24.04C14.01 24.41 12.24 25.36 11.64 25.68L11.58 25.71C8.24999 27.49 4.09999 29.71 2.52999 34.55C2.16999 35.65 1.98999 36.81 1.98999 37.99C1.98999 41.34 3.37999 44.23 4.59999 46.78C5.46999 48.58 5.91999 49.66 5.94999 50.01C5.90999 50.5 4.97999 52.45 4.62999 53.19L4.58999 53.26C3.36999 55.79 1.98999 58.67 1.98999 62.02C1.98999 63.22 2.16999 64.37 2.52999 65.46C4.09999 70.31 8.24999 72.52 11.61 74.32C12.27 74.68 14 75.6 14.38 75.95C14.63 76.44 15 78.5 15.13 79.19C15.79 82.88 16.62 87.48 20.71 90.45C24.76 93.39 29.37 92.78 33.09 92.28H33.13C33.83 92.18 35.9 91.9 36.42 91.98C36.89 92.23 38.33 93.62 38.81 94.08C41.4 96.58 44.94 100 50.11 100C55.28 100 58.67 96.72 61.41 94.08C61.94 93.57 63.33 92.23 63.76 91.99C64.3 91.9 66.38 92.18 67.08 92.27H67.15C70.85 92.77 75.45 93.39 79.51 90.45C83.59 87.48 84.42 82.88 85.09 79.18C85.21 78.49 85.58 76.44 85.81 75.96C86.19 75.59 87.92 74.67 88.59 74.31L88.62 74.29C91.78 72.61 96.1 70.3 97.68 65.44C98.03 64.35 98.21 63.2 98.21 62C98.21 58.64 96.82 55.76 95.59 53.2C95.27 52.53 94.29 50.5 94.25 49.99L94.24 50ZM96.28 65C94.88 69.31 90.86 71.45 87.92 73.02L87.89 73.04C86.09 74.01 85.04 74.61 84.65 75.07C84.63 75.1 84.61 75.12 84.59 75.15C84.28 75.65 84.02 76.86 83.65 78.92C83.03 82.36 82.25 86.65 78.64 89.27C75.06 91.87 70.78 91.3 67.33 90.84H67.27C65.23 90.56 63.92 90.43 63.32 90.6C63.29 90.6 63.26 90.62 63.23 90.63C62.72 90.85 61.85 91.64 60.4 93.03C57.85 95.48 54.68 98.54 50.11 98.54C45.54 98.54 42.22 95.36 39.81 93.03C38.4 91.67 37.48 90.84 36.93 90.61C36.9 90.6 36.87 90.59 36.84 90.58C36.67 90.53 36.43 90.51 36.14 90.51C35.44 90.51 34.39 90.63 32.93 90.83H32.88C29.43 91.3 25.14 91.87 21.56 89.27C17.95 86.64 17.18 82.36 16.56 78.92C16.18 76.85 15.92 75.63 15.59 75.11C15.57 75.08 15.55 75.05 15.53 75.03C15.15 74.59 14.11 73.99 12.31 73.03L12.28 73.02C9.17999 71.36 5.31999 69.3 3.91999 65.01C3.60999 64.07 3.45999 63.06 3.45999 62.02C3.45999 59 4.75999 56.28 5.90999 53.89L5.94999 53.81C6.73999 52.15 7.39999 50.73 7.41999 50.02C7.41999 50.01 7.41999 50 7.41999 49.99C7.39999 49.33 6.85999 48.08 5.92999 46.15C4.76999 43.74 3.46999 41.01 3.46999 37.99C3.46999 36.96 3.62999 35.95 3.92999 34.99C5.31999 30.7 9.17999 28.64 12.29 26.98L12.35 26.95C14.09 26.02 15.18 25.39 15.56 24.93C15.58 24.91 15.6 24.88 15.62 24.85C15.94 24.35 16.21 23.09 16.57 21.08C17.19 17.64 17.96 13.36 21.58 10.73C25.17 8.12 29.45 8.7 32.9 9.16C35.02 9.45 36.29 9.57 36.9 9.4C36.93 9.4 36.97 9.38 37 9.37C37.51 9.15 38.38 8.36 39.84 6.96C42.25 4.64 45.56 1.46 50.13 1.46C54.7 1.46 57.87 4.51 60.41 6.96C61.82 8.32 62.74 9.15 63.29 9.39C63.32 9.4 63.36 9.42 63.39 9.42C63.97 9.58 65.22 9.45 67.32 9.17C70.78 8.7 75.08 8.12 78.66 10.73C82.27 13.36 83.04 17.63 83.66 21.07L83.68 21.17C83.99 22.87 84.28 24.32 84.64 24.89C84.66 24.92 84.68 24.94 84.7 24.97C85.08 25.42 86.13 26.02 87.94 26.99C91.04 28.65 94.91 30.72 96.31 35.01C96.62 35.96 96.77 36.96 96.77 38C96.77 41.03 95.46 43.75 94.3 46.15L94.26 46.23C93.33 48.18 92.82 49.35 92.8 50C92.8 50.01 92.8 50.02 92.8 50.03C92.82 50.68 93.36 51.93 94.29 53.87C95.45 56.27 96.75 58.99 96.75 62.02C96.75 63.06 96.59 64.06 96.29 65.01L96.28 65Z" fill="#0E1721"/>
  <path d="M89.3099 50.0999C89.3099 50.0299 89.3099 49.9699 89.3099 49.8999C89.3399 48.5999 89.8699 47.2999 91.1099 44.7099L91.1399 44.6399C92.1799 42.4699 93.2599 40.2299 93.2599 37.9899C93.2599 37.3199 93.1599 36.6699 92.9699 36.0699C92.0799 33.3199 89.7399 31.8999 86.2699 30.0499C83.8899 28.7799 82.7699 28.1099 82.0199 27.2099C81.8999 27.0699 81.7899 26.9199 81.6999 26.7699C81.0399 25.7399 80.7299 24.4599 80.2399 21.7899L80.2199 21.6899C79.5299 17.8599 78.9099 15.2299 76.5899 13.5399C75.3499 12.6399 73.9099 12.2399 71.9099 12.2399C70.5399 12.2399 69.1299 12.4299 67.7599 12.6199C66.4399 12.7999 65.0699 12.9699 64.0399 12.9699C63.4299 12.9699 62.9299 12.9099 62.4599 12.7799C62.2699 12.7299 62.0699 12.6599 61.8899 12.5799C60.8299 12.1199 59.8199 11.2499 57.9699 9.45994C55.1299 6.72994 53.0499 4.93994 50.0999 4.93994C46.9299 4.93994 44.4299 7.34994 42.2199 9.46994C40.2399 11.3699 39.3599 12.1299 38.3599 12.5599C38.1699 12.6399 37.9799 12.7099 37.7899 12.7599C37.2899 12.8999 36.7599 12.9599 36.1199 12.9599C35.0799 12.9599 33.7699 12.7999 32.3999 12.6099C31.0399 12.4299 29.6299 12.2399 28.2699 12.2399C26.2799 12.2399 24.8299 12.6399 23.5999 13.5399C21.2899 15.2199 20.6599 17.8599 19.9699 21.6999C19.4799 24.4099 19.1799 25.6999 18.5399 26.7099C18.4399 26.8699 18.3299 27.0199 18.2099 27.1599C17.4399 28.0799 16.3299 28.7599 13.9699 30.0199L13.9099 30.0499C10.4499 31.8999 8.11993 33.3199 7.21993 36.0699C7.01993 36.6699 6.92993 37.3199 6.92993 37.9899C6.92993 40.2199 7.95993 42.3599 9.04993 44.6399C10.2899 47.2099 10.8499 48.5899 10.8799 49.8999C10.8799 49.9699 10.8799 50.0299 10.8799 50.0999C10.8499 51.4099 10.3199 52.7099 9.06993 55.3199L9.03993 55.3899C7.99993 57.5499 6.92993 59.7899 6.92993 62.0199C6.92993 62.6899 7.02993 63.3299 7.21993 63.9199C8.11993 66.6799 10.4499 68.0999 13.9099 69.9399L13.9399 69.9499C16.2999 71.2099 17.4099 71.8799 18.1599 72.7599C18.2899 72.9099 18.4099 73.0799 18.5199 73.2499C19.1799 74.2799 19.4899 75.5899 19.9799 78.3099C20.6699 82.1399 21.2999 84.7799 23.6099 86.4699C24.8499 87.3699 26.2899 87.7699 28.2899 87.7699C29.6499 87.7699 31.0499 87.5799 32.4099 87.3999H32.4499C33.7599 87.2199 35.1199 87.0399 36.1499 87.0399C36.7699 87.0399 37.2799 87.0999 37.7599 87.2299C37.9399 87.2799 38.1199 87.3399 38.2899 87.4099C39.3599 87.8599 40.3699 88.7399 42.2199 90.5299C44.4199 92.6599 46.9199 95.0599 50.0999 95.0599C53.0499 95.0599 55.1299 93.2599 57.9799 90.5299C59.9599 88.6299 60.8399 87.8699 61.8399 87.4399C62.0099 87.3699 62.1899 87.2999 62.3699 87.2499C62.8699 87.1099 63.4099 87.0399 64.0699 87.0399C65.1099 87.0399 66.4499 87.2099 67.7299 87.3799H67.7899C69.1499 87.5699 70.5599 87.7599 71.9099 87.7599C73.9099 87.7599 75.3499 87.3599 76.5899 86.4599C78.8999 84.7799 79.5199 82.1399 80.2199 78.2999C80.7099 75.5899 81.0099 74.2999 81.6399 73.2899C81.7399 73.1199 81.8599 72.9599 81.9899 72.8099C82.7599 71.9099 83.8699 71.2299 86.2299 69.9599L86.2699 69.9399C88.9599 68.5099 91.9999 66.8799 92.9699 63.9099C93.1599 63.3199 93.2599 62.6699 93.2599 61.9999C93.2599 59.7699 92.2299 57.6299 91.1299 55.3399C89.8899 52.7699 89.3399 51.3999 89.2999 50.0899L89.3099 50.0999ZM91.5899 63.4799C90.7999 65.8999 88.0299 67.3699 85.5899 68.6799L85.5499 68.6999C83.0099 70.0599 81.7999 70.7999 80.8899 71.8899C80.7199 72.0899 80.5599 72.3099 80.4199 72.5299C79.6599 73.7399 79.3199 75.1499 78.7999 78.0499C78.1699 81.5399 77.6099 83.9299 75.7499 85.2899C74.7699 85.9999 73.5899 86.3199 71.9199 86.3199C70.6599 86.3199 69.2999 86.1399 67.9899 85.9599H67.9299C66.5999 85.7699 65.2099 85.5999 64.0799 85.5999C63.2899 85.5999 62.6199 85.6799 61.9899 85.8599C61.7499 85.9299 61.5099 86.0099 61.2699 86.1099C60.0599 86.6299 59.0999 87.4499 56.9799 89.4899C54.3899 91.9799 52.5099 93.6199 50.1099 93.6199C47.5199 93.6199 45.2399 91.4299 43.2399 89.4899C41.2499 87.5699 40.1399 86.6199 38.8599 86.0799C38.6299 85.9799 38.3899 85.8999 38.1499 85.8299C37.5399 85.6599 36.9099 85.5899 36.1599 85.5899C35.0399 85.5899 33.6299 85.7699 32.2699 85.9499H32.2299C30.9199 86.1299 29.5599 86.3099 28.2999 86.3099C26.6299 86.3099 25.4499 85.9899 24.4699 85.2899C22.5999 83.9199 22.0399 81.5399 21.4199 78.0499C20.8899 75.1299 20.5399 73.7099 19.7499 72.4699C19.5999 72.2399 19.4399 72.0199 19.2699 71.8199C18.3699 70.7699 17.1699 70.0299 14.6399 68.6799C14.6399 68.6799 14.6099 68.6699 14.6099 68.6599C11.4599 66.9799 9.34993 65.7099 8.61993 63.4599C8.46993 63.0199 8.39993 62.5299 8.39993 62.0099C8.39993 60.1099 9.39993 58.0299 10.3699 56.0099L10.3999 55.9399C11.7499 53.1299 12.3199 51.6999 12.3499 50.1299C12.3499 50.0399 12.3499 49.9499 12.3499 49.8599C12.3099 48.2699 11.7099 46.7699 10.3699 43.9999C9.34993 41.8799 8.38993 39.8799 8.38993 37.9799C8.38993 37.4599 8.46993 36.9699 8.60993 36.5099C9.32993 34.2799 11.4499 33.0099 14.5999 31.3299L14.6599 31.2999C17.1899 29.9499 18.3999 29.1999 19.3299 28.0899C19.4899 27.8999 19.6399 27.6899 19.7799 27.4799C20.5499 26.2599 20.8899 24.8499 21.4099 21.9499C22.0399 18.4599 22.5899 16.0699 24.4699 14.7099C25.4399 13.9999 26.6199 13.6799 28.2899 13.6799C29.5499 13.6799 30.9099 13.8599 32.2199 14.0399C33.6299 14.2299 34.9999 14.3999 36.1299 14.3999C36.9099 14.3999 37.5599 14.3199 38.1899 14.1499C38.4499 14.0799 38.7099 13.9899 38.9599 13.8799C40.1599 13.3599 41.1299 12.5399 43.2499 10.4999C45.2599 8.56994 47.5299 6.37994 50.1199 6.37994C52.5199 6.37994 54.3899 8.00994 56.9799 10.4999C58.9699 12.4199 60.0699 13.3599 61.3399 13.9099C61.5899 14.0199 61.8499 14.1099 62.1099 14.1799C62.7099 14.3399 63.3299 14.4099 64.0699 14.4099C65.1899 14.4099 66.6099 14.2299 67.9799 14.0399C69.2999 13.8599 70.6699 13.6799 71.9299 13.6799C73.5999 13.6799 74.7799 13.9999 75.7499 14.6999C77.6199 16.0599 78.1799 18.4499 78.7999 21.9299L78.8199 22.0299C79.3399 24.8999 79.6899 26.2999 80.4899 27.5399C80.6199 27.7499 80.7699 27.9399 80.9299 28.1299C81.8399 29.2099 83.0599 29.9499 85.6099 31.3099C88.7599 32.9999 90.8799 34.2699 91.6099 36.4999C91.7599 36.9499 91.8299 37.4499 91.8299 37.9699C91.8299 39.8799 90.8199 41.9699 89.8499 43.9999L89.8199 44.0699C88.4799 46.8599 87.9199 48.2799 87.8799 49.8599C87.8799 49.9499 87.8799 50.0399 87.8799 50.1299C87.9199 51.7099 88.5199 53.2099 89.8599 55.9999C90.8799 58.1099 91.8399 60.1099 91.8399 62.0099C91.8399 62.5299 91.7699 63.0199 91.6199 63.4699L91.5899 63.4799Z" fill="#0E1721"/>
</svg>
