<svg xmlns="http://www.w3.org/2000/svg" width="100" height="100" viewBox="0 0 100 100" fill="none">
  <path d="M94.24 50C94.28 49.51 95.2 47.57 95.55 46.84L95.59 46.77C96.81 44.23 98.2 41.35 98.2 37.99C98.2 36.8 98.02 35.64 97.67 34.55C96.09 29.7 91.94 27.48 88.6 25.7C88 25.38 86.19 24.42 85.82 24.06C85.58 23.6 85.23 21.66 85.09 20.91L85.07 20.81C84.41 17.12 83.58 12.54 79.49 9.56C75.43 6.61 70.81 7.23 67.1 7.73C66.4 7.82 64.32 8.11 63.79 8.03C63.47 7.86 62.67 7.14 61.39 5.91C58.65 3.28 55.25 0 50.1 0C44.95 0 41.39 3.41 38.79 5.92C38.26 6.43 36.87 7.76 36.44 8.02C35.89 8.11 33.78 7.82 33.07 7.73C29.37 7.23 24.76 6.61 20.7 9.56C16.62 12.53 15.79 17.13 15.12 20.83C15 21.52 14.63 23.57 14.4 24.04C14.02 24.41 12.25 25.36 11.65 25.68L11.59 25.71C8.26 27.49 4.11 29.71 2.54 34.55C2.18 35.65 2 36.81 2 37.99C2 41.34 3.39 44.23 4.61 46.78C5.48 48.58 5.93 49.66 5.96 50.01C5.92 50.5 4.99 52.46 4.63 53.2L4.6 53.27C3.38 55.8 2 58.68 2 62.03C2 63.23 2.18 64.38 2.54 65.47C4.11 70.32 8.26 72.53 11.61 74.32C12.28 74.68 14.01 75.6 14.38 75.96C14.63 76.45 15 78.51 15.13 79.2C15.79 82.89 16.62 87.49 20.71 90.46C24.76 93.4 29.37 92.79 33.09 92.29H33.13C33.83 92.19 35.9 91.91 36.42 91.99C36.89 92.24 38.33 93.63 38.81 94.09C41.4 96.59 44.94 100.01 50.11 100.01C55.28 100.01 58.67 96.73 61.41 94.09C61.89 93.63 63.32 92.25 63.76 92C64.3 91.91 66.38 92.19 67.08 92.28H67.15C70.85 92.79 75.46 93.4 79.51 90.46C83.59 87.49 84.42 82.89 85.09 79.19C85.21 78.5 85.58 76.45 85.81 75.97C86.19 75.6 87.92 74.68 88.59 74.32L88.62 74.3C91.78 72.62 96.1 70.31 97.68 65.45C98.03 64.36 98.21 63.21 98.21 62.01C98.21 58.65 96.82 55.77 95.59 53.21C95.27 52.54 94.29 50.51 94.25 50H94.24ZM96.28 65C94.88 69.31 90.86 71.45 87.92 73.02L87.89 73.04C86.09 74.01 85.04 74.61 84.65 75.07C84.63 75.1 84.61 75.12 84.59 75.15C84.28 75.65 84.02 76.86 83.65 78.92C83.03 82.36 82.25 86.64 78.64 89.27C75.06 91.87 70.77 91.3 67.33 90.84H67.27C65.23 90.56 63.92 90.43 63.32 90.6C63.29 90.6 63.26 90.62 63.23 90.63C62.72 90.85 61.85 91.64 60.4 93.03C57.85 95.48 54.68 98.54 50.11 98.54C45.54 98.54 42.22 95.36 39.81 93.03C38.4 91.67 37.48 90.84 36.93 90.61C36.9 90.6 36.87 90.59 36.84 90.58C36.67 90.53 36.43 90.51 36.14 90.51C35.44 90.51 34.39 90.63 32.93 90.83H32.88C29.43 91.3 25.14 91.87 21.56 89.27C17.95 86.64 17.18 82.36 16.56 78.92C16.19 76.85 15.92 75.63 15.59 75.11C15.57 75.08 15.55 75.05 15.53 75.03C15.15 74.59 14.11 73.99 12.29 73.01C9.19 71.35 5.33 69.29 3.93 65C3.62 64.06 3.47 63.05 3.47 62.01C3.47 58.99 4.77 56.27 5.92 53.88L5.96 53.81C6.9 51.85 7.41 50.66 7.43 50.01C7.43 50 7.43 49.99 7.43 49.98C7.41 49.32 6.87 48.07 5.94 46.14C4.78 43.73 3.48 41 3.48 37.98C3.48 36.95 3.64 35.94 3.94 34.98C5.33 30.69 9.19 28.63 12.3 26.97L12.36 26.94C14.1 26.01 15.18 25.38 15.57 24.92C15.59 24.9 15.61 24.87 15.63 24.84C15.95 24.34 16.22 23.08 16.58 21.07C17.2 17.63 17.97 13.35 21.59 10.72C25.17 8.11 29.46 8.69 32.91 9.15C35.03 9.44 36.3 9.56 36.91 9.39C36.94 9.39 36.98 9.37 37.01 9.36C37.52 9.14 38.39 8.34 39.85 6.95C42.26 4.63 45.57 1.45 50.14 1.45C54.71 1.45 57.88 4.5 60.42 6.95C61.83 8.31 62.75 9.14 63.3 9.38C63.33 9.39 63.37 9.41 63.4 9.41C63.98 9.56 65.23 9.44 67.33 9.16C70.79 8.69 75.09 8.11 78.67 10.72C82.28 13.35 83.05 17.62 83.67 21.05L83.69 21.15C84 22.85 84.29 24.3 84.65 24.87C84.67 24.9 84.69 24.92 84.71 24.95C85.09 25.4 86.14 26 87.95 26.97C91.06 28.63 94.92 30.7 96.32 34.99C96.63 35.94 96.78 36.94 96.78 37.98C96.78 41.01 95.47 43.73 94.31 46.13L94.27 46.21C93.34 48.16 92.83 49.33 92.81 49.98C92.81 49.99 92.81 50 92.81 50.01C92.83 50.66 93.37 51.91 94.3 53.85C95.46 56.25 96.76 58.97 96.76 62C96.76 63.04 96.6 64.04 96.3 64.99L96.28 65Z" fill="#4279B6"/>
  <path d="M62.08 25.37C57.26 25.37 53.35 29.29 53.35 34.1C53.35 38.91 57.27 42.83 62.08 42.83C66.89 42.83 70.81 38.91 70.81 34.1C70.81 29.29 66.89 25.37 62.08 25.37ZM62.08 41.38C58.06 41.38 54.8 38.11 54.8 34.1C54.8 30.09 58.07 26.82 62.08 26.82C66.09 26.82 69.36 30.09 69.36 34.1C69.36 38.11 66.09 41.38 62.08 41.38Z" fill="#4279B6"/>
  <path d="M65.4 33.69H62.81V31.1C62.81 30.7 62.49 30.37 62.08 30.37C61.67 30.37 61.35 30.69 61.35 31.1V33.69H58.76C58.36 33.69 58.03 34.01 58.03 34.42C58.03 34.83 58.35 35.15 58.76 35.15H61.35V37.74C61.35 38.14 61.67 38.47 62.08 38.47C62.49 38.47 62.81 38.15 62.81 37.74V35.15H65.4C65.8 35.15 66.13 34.83 66.13 34.42C66.13 34.01 65.81 33.69 65.4 33.69Z" fill="#4279B6"/>
  <path d="M56.38 53.06H67.77C68.17 53.06 68.5 52.74 68.5 52.33C68.5 52.15 68.44 52 68.33 51.87C68.25 51.77 68.15 51.7 68.03 51.65C67.95 51.62 67.86 51.6 67.77 51.6H56.38C56.29 51.6 56.2 51.62 56.12 51.65C56 51.7 55.9 51.77 55.82 51.87C55.72 52 55.65 52.15 55.65 52.33C55.65 52.73 55.97 53.06 56.38 53.06Z" fill="#2D557F"/>
  <path d="M56.06 56.8001C56.06 56.8001 56.08 56.8101 56.09 56.8201C56.18 56.8601 56.28 56.8801 56.39 56.8801H67.78C67.9 56.8801 68.01 56.8501 68.11 56.8001C68.33 56.6901 68.49 56.4601 68.51 56.2001C68.51 56.1901 68.51 56.1701 68.51 56.1601C68.51 56.1301 68.51 56.1101 68.51 56.0801C68.48 55.8001 68.29 55.5701 68.03 55.4801C67.96 55.4501 67.88 55.4401 67.8 55.4401H56.41C56.33 55.4401 56.25 55.4601 56.18 55.4801C56.17 55.4801 56.15 55.4801 56.14 55.4901C55.9 55.5901 55.73 55.8101 55.69 56.0801C55.69 56.1101 55.69 56.1301 55.69 56.1601C55.69 56.1701 55.69 56.1901 55.69 56.2001C55.71 56.4601 55.86 56.6901 56.09 56.8001H56.06Z" fill="#2D557F"/>
  <path d="M64.39 59.26H59.77C59.37 59.26 59.04 59.58 59.04 59.99C59.04 60.4 59.36 60.72 59.77 60.72H64.39C64.79 60.72 65.12 60.4 65.12 59.99C65.12 59.58 64.8 59.26 64.39 59.26Z" fill="#2D557F"/>
  <path d="M76.61 56.16C76.56 56.05 76.48 55.95 76.38 55.88L73.53 53.82V47.07C73.53 46.13 72.77 45.37 71.83 45.37H52.33C51.39 45.37 50.63 46.13 50.63 47.07V52.13L45.03 48.93C47.11 46.74 48.28 43.54 48.28 40.48V38.73C48.28 34.37 45.8 29.28 38.83 29.28C35.52 29.28 32.91 30.44 31.27 32.63C29.62 34.82 29.38 37.4 29.38 38.74V40.49C29.38 43.55 30.55 46.75 32.63 48.94L22.44 54.76C21.34 55.39 20.65 56.57 20.65 57.84V59.7C20.65 62.99 23.33 65.66 26.61 65.66H47.02V72.21C47.02 72.81 47.28 73.38 47.73 73.77C48.11 74.1 48.59 74.28 49.09 74.28H75.07C75.57 74.28 76.06 74.1 76.43 73.77C76.88 73.38 77.14 72.81 77.14 72.21V57.57C77.14 57.05 76.95 56.56 76.6 56.18L76.61 56.16ZM52.08 57.53V47.07C52.08 46.93 52.19 46.82 52.33 46.82H71.83C71.97 46.82 72.08 46.93 72.08 47.07V58.43L68.93 60.7L64.39 63.97L63.97 64.28L63.77 64.42L63.15 64.87L62.08 65.64L61.01 64.87L60.39 64.42L60.19 64.28L59.77 63.97L56.64 61.71L56.03 61.27L55.4 60.82L52.08 58.43V57.52V57.53ZM30.82 40.48V38.73C30.82 36.85 31.4 30.73 38.82 30.73C40.7 30.73 46.82 31.31 46.82 38.73V40.48C46.82 44.06 45.35 46.83 43.36 48.48C43.03 48.75 42.69 48.99 42.33 49.21C41.81 49.52 41.26 49.77 40.71 49.94C40.08 50.13 39.45 50.23 38.82 50.23C38.12 50.23 37.45 50.12 36.83 49.94C36.26 49.77 35.72 49.52 35.22 49.21C34.87 49 34.54 48.75 34.23 48.48C32.05 46.6 30.81 43.46 30.81 40.48H30.82ZM47.55 56.16C47.21 56.54 47.01 57.03 47.01 57.55V64.19H26.6C24.11 64.19 22.09 62.17 22.09 59.68V57.82C22.09 57.07 22.49 56.37 23.15 56L33.75 49.94C35.16 51.01 36.86 51.67 38.82 51.67C40.78 51.67 42.49 51.01 43.89 49.94L50.63 53.79V53.82L47.78 55.88C47.68 55.95 47.6 56.05 47.55 56.16ZM48.47 72.12V57.61L50.64 59.17L51.37 59.69L52.1 60.21L54.81 62.17L55.4 62.6L55.99 63.02L58.55 64.86L52.1 69.51L51.37 70.03L50.69 70.52L48.48 72.11L48.47 72.12ZM74.17 72.82H49.99L51.59 71.67L52.36 71.12L53.37 70.39L59.78 65.77L61.66 67.13C61.79 67.22 61.94 67.27 62.08 67.27C62.22 67.27 62.38 67.22 62.5 67.13L64.38 65.77L70.79 70.39L71.8 71.12L72.57 71.67L74.17 72.82ZM75.69 57.62V72.13L73.48 70.54L72.8 70.05L72.07 69.53L65.62 64.88L70.47 61.39L72.07 60.24L72.8 59.72L73.53 59.2L75.7 57.64L75.69 57.62Z" fill="#2D557F"/>
</svg>
