<svg xmlns="http://www.w3.org/2000/svg" width="100" height="100" viewBox="0 0 100 100" fill="none">
  <path d="M25.68 12.64C25.46 12.5 25.2 12.48 24.98 12.56C24.96 12.58 23.18 13.26 21.24 12.56C18.32 11.5 16.42 12.44 15.82 12.8C15.82 12.82 15.8 12.82 15.8 12.82H15.78C15.68 12.88 15.62 12.92 15.6 12.92L15.58 12.94C15.58 12.94 15.5 13 15.48 13.04C15.42 13.12 15.38 13.18 15.34 13.28V13.3C15.32 13.36 15.3 13.44 15.3 13.52V27.12H16.82V20.7C17.52 20.44 19.04 20.06 20.78 20.74C21.78 21.12 22.64 21.24 23.36 21.24C24.84 21.24 25.66 20.66 25.7 20.64C25.9 20.48 26.02 20.26 26.02 20.02V13.28C26.02 13.02 25.88 12.78 25.68 12.64ZM24.48 19.56C24 19.74 22.94 19.94 21.32 19.3C20.4 18.96 19.54 18.84 18.78 18.84C18.02 18.84 17.34 18.96 16.82 19.1V13.96C17.4 13.7 18.74 13.28 20.72 14C22.2 14.52 23.58 14.44 24.48 14.26V19.56Z" fill="#2D557F"/>
  <path d="M84.96 48.02C81.58 48.02 78.84 50.76 78.84 54.14V60.82C78.84 61.24 79.18 61.58 79.6 61.58H90.32C90.74 61.58 91.08 61.24 91.08 60.82V54.14C91.08 50.76 88.34 48.02 84.96 48.02ZM89.56 60.06H80.36V54.14C80.36 51.6 82.42 49.54 84.96 49.54C87.5 49.54 89.56 51.6 89.56 54.14V60.06Z" fill="#2D557F"/>
  <path d="M59.7 58.46C56.32 58.46 53.58 61.2 53.58 64.58V71.28C53.58 71.7 53.92 72.04 54.34 72.04H65.06C65.48 72.04 65.82 71.7 65.82 71.28V64.58C65.82 61.2 63.08 58.46 59.7 58.46ZM64.3 70.52H55.1V64.58C55.1 62.04 57.16 59.98 59.7 59.98C62.24 59.98 64.3 62.04 64.3 64.58V70.52Z" fill="#2D557F"/>
  <path d="M41.32 58.46C37.96 58.46 35.2 61.2 35.2 64.58V71.28C35.2 71.7 35.5399 72.04 35.9599 72.04H46.68C47.1 72.04 47.4399 71.7 47.4399 71.28V64.58C47.4399 61.2 44.7 58.46 41.32 58.46ZM45.9199 70.52H36.72V64.58C36.72 62.04 38.8 59.98 41.32 59.98C43.84 59.98 45.9199 62.04 45.9199 64.58V70.52Z" fill="#2D557F"/>
  <path d="M84.96 68.9C81.58 68.9 78.84 71.66 78.84 75.02V81.72C78.84 82.14 79.18 82.48 79.6 82.48H90.32C90.74 82.48 91.08 82.14 91.08 81.72V75.02C91.08 71.66 88.34 68.9 84.96 68.9ZM89.56 80.96H80.36V75.02C80.36 72.48 82.42 70.42 84.96 70.42C87.5 70.42 89.56 72.48 89.56 75.02V80.96Z" fill="#2D557F"/>
  <path d="M16.0599 48.02C12.6799 48.02 9.93994 50.76 9.93994 54.14V60.82C9.93994 61.24 10.2799 61.58 10.6999 61.58H21.4199C21.8399 61.58 22.1799 61.24 22.1799 60.82V54.14C22.1799 50.76 19.4399 48.02 16.0599 48.02ZM20.6599 60.06H11.4599V54.14C11.4599 51.6 13.5199 49.54 16.0599 49.54C18.5999 49.54 20.6599 51.6 20.6599 54.14V60.06Z" fill="#2D557F"/>
  <path d="M16.0599 68.9C12.6799 68.9 9.93994 71.66 9.93994 75.02V81.72C9.93994 82.14 10.2799 82.48 10.6999 82.48H21.4199C21.8399 82.48 22.1799 82.14 22.1799 81.72V75.02C22.1799 71.66 19.4399 68.9 16.0599 68.9ZM20.6599 80.96H11.4599V75.02C11.4599 72.48 13.5199 70.42 16.0599 70.42C18.5999 70.42 20.6599 72.48 20.6599 75.02V80.96Z" fill="#2D557F"/>
  <path d="M52.04 40.77H49.74C49.32 40.77 48.98 40.43 48.98 40.01V37.6C48.98 37.18 49.32 36.84 49.74 36.84C50.16 36.84 50.5 37.18 50.5 37.6V39.25H52.04C52.46 39.25 52.8 39.59 52.8 40.01C52.8 40.43 52.46 40.77 52.04 40.77Z" fill="#2D557F"/>
  <path d="M99.24 95.42H96.44V43.1H98.38C98.66 43.1 98.92 42.94 99.06 42.68C99.18 42.44 99.16 42.12 98.98 41.9L88.46 27.42C88.3 27.24 88.08 27.12 87.84 27.12H62V10.86H62.32C62.62 10.86 62.9 10.66 63.02 10.38C63.14 10.1 63.06 9.78 62.86 9.56L57.5 4.22C57.34 4.08 57.16 4 56.96 4H43.18C42.98 4 42.78 4.08 42.64 4.22L37.28 9.56C37.06 9.78 37 10.1 37.12 10.38C37.24 10.66 37.5 10.86 37.82 10.86H38.26V27.12H12.14C11.9 27.12 11.66 27.24 11.52 27.42L0.98 41.9C0.82 42.12 0.78 42.44 0.92 42.68C1.04 42.94 1.3 43.1 1.6 43.1H3.82V95.42H0.76C0.34 95.42 0 95.76 0 96.18C0 96.6 0.34 96.94 0.76 96.94H99.24C99.66 96.94 100 96.6 100 96.18C100 95.76 99.66 95.42 99.24 95.42ZM43.5 5.52H56.64L60.48 9.34H39.66L43.5 5.52ZM60.48 10.86V27.12H56.26L50.46 22.28C50.18 22.04 49.76 22.06 49.48 22.3L43.94 27.12H39.8V10.86H60.48ZM26.78 95.42H5.34V43.1H26.78V95.42ZM3.1 41.58L12.52 28.64H42.18L27.3 41.58H3.1ZM54.7 95.42H45.5V84.02C45.5 81.48 47.56 79.42 50.1 79.42C52.64 79.42 54.7 81.48 54.7 84.02V95.42ZM72.72 95.42H56.22V84.02C56.22 80.64 53.48 77.9 50.1 77.9C46.72 77.9 43.98 80.64 43.98 84.02V95.42H28.3V53.98H72.72V95.42ZM72.72 52.46H28.3V42.72L29.62 41.58L44.5 28.64L46.26 27.12L49.98 23.88L53.86 27.12L55.68 28.64L65.8 37.08L68.22 38.98L71.34 41.58L72.72 42.74V52.46ZM69.18 37.8L66.76 35.9L58.08 28.64H87.44L96.88 41.58H73.7L69.18 37.8ZM94.92 95.42H74.24V43.1H94.92V95.42Z" fill="#4279B6"/>
  <path d="M56.04 18.48C55.9 18.72 55.66 18.86 55.38 18.86H50.86V19.7C50.86 20.12 50.52 20.46 50.1 20.46C49.68 20.46 49.34 20.12 49.34 19.7V18.86H44.82C44.54 18.86 44.28 18.72 44.16 18.48C44.02 18.22 44.02 17.94 44.18 17.7C44.82 16.64 45.52 12.52 45.8 10.86H47.34C47.34 10.86 47.32 10.96 47.32 11C46.92 13.44 46.48 15.82 45.96 17.34H54.22C53.7 15.8 53.28 13.4 52.88 10.94C52.88 10.92 52.86 10.88 52.86 10.86H54.4C54.68 12.56 55.36 16.64 56.02 17.7C56.16 17.94 56.18 18.22 56.04 18.48Z" fill="#2D557F"/>
  <path d="M50.14 32.4C46.32 32.4 43.22 35.62 43.22 39.6C43.22 40.3 43.32 40.96 43.5 41.58C43.64 42.12 43.84 42.62 44.1 43.1C45.26 45.32 47.54 46.82 50.14 46.82C52.74 46.82 55 45.32 56.16 43.1C56.42 42.62 56.62 42.12 56.76 41.58C56.94 40.96 57.04 40.3 57.04 39.6C57.04 35.62 53.94 32.4 50.14 32.4ZM54.36 43.1C53.38 44.44 51.86 45.3 50.14 45.3C48.42 45.3 46.88 44.44 45.9 43.1C45.54 42.64 45.28 42.14 45.08 41.58C44.86 40.96 44.74 40.3 44.74 39.6C44.74 36.46 47.16 33.92 50.14 33.92C53.12 33.92 55.52 36.46 55.52 39.6C55.52 40.3 55.4 40.96 55.18 41.58C54.98 42.14 54.72 42.64 54.36 43.1Z" fill="#2D557F"/>
</svg>
