<svg xmlns="http://www.w3.org/2000/svg" width="100" height="100" viewBox="0 0 100 100" fill="none">
  <path d="M95.69 42.34V82.52V85.74V96.18H4.58997V60.02V56V42.34H95.69Z" fill="#4279B6"/>
  <path d="M95.69 96.94H4.58996C4.16996 96.94 3.82996 96.6 3.82996 96.18V42.33C3.82996 41.91 4.16996 41.57 4.58996 41.57H95.69C96.11 41.57 96.45 41.91 96.45 42.33V96.18C96.45 96.6 96.11 96.94 95.69 96.94ZM5.34996 95.42H94.93V43.09H5.34996V95.42Z" fill="#0E1721"/>
  <path d="M61.24 28.63C60.82 28.63 60.48 28.29 60.48 27.87V10.17C60.48 9.75 60.82 9.41 61.24 9.41C61.66 9.41 62 9.75 62 10.17V27.87C62 28.29 61.66 28.63 61.24 28.63Z" fill="#0E1721"/>
  <path d="M55.88 27.87H68.89H72.72H87.84L98.38 42.34H73.57H27.54H1.59998L12.14 27.87H44.25H55.88Z" fill="#4279B6"/>
  <path d="M98.3799 43.1H1.59995C1.30995 43.1 1.04995 42.94 0.919949 42.68C0.789949 42.43 0.809949 42.12 0.979949 41.89L11.5199 27.42C11.66 27.22 11.8899 27.11 12.1299 27.11H87.8299C88.0699 27.11 88.2999 27.23 88.4399 27.42L98.9799 41.89C99.1499 42.12 99.1699 42.43 99.0399 42.68C98.91 42.93 98.6499 43.1 98.3599 43.1H98.3799ZM3.09995 41.58H96.8899L87.4599 28.63H12.5299L3.09995 41.58Z" fill="#0E1721"/>
  <path d="M27.55 96.18V91.36V81.72V42.38L49.98 22.87L66.28 36.48L68.7201 38.39L73.49 42.38V96.18" fill="#4279B6"/>
  <path d="M73.49 96.94C73.07 96.94 72.7301 96.6 72.7301 96.18V42.73L68.24 38.98L65.81 37.08L49.9901 23.87L28.32 42.72V96.18C28.32 96.6 27.98 96.94 27.56 96.94C27.14 96.94 26.8 96.6 26.8 96.18V42.37C26.8 42.15 26.9 41.94 27.06 41.8L49.48 22.29C49.76 22.04 50.18 22.04 50.4701 22.29L66.77 35.9L69.2 37.8L73.99 41.8C74.16 41.94 74.2601 42.16 74.2601 42.38V96.19C74.2601 96.61 73.92 96.95 73.5 96.95L73.49 96.94Z" fill="#0E1721"/>
  <path d="M50.14 46.05C53.5365 46.05 56.29 43.1623 56.29 39.6C56.29 36.0378 53.5365 33.15 50.14 33.15C46.7434 33.15 43.99 36.0378 43.99 39.6C43.99 43.1623 46.7434 46.05 50.14 46.05Z" fill="white"/>
  <path d="M50.14 46.81C46.33 46.81 43.23 43.57 43.23 39.6C43.23 35.63 46.33 32.39 50.14 32.39C53.95 32.39 57.05 35.63 57.05 39.6C57.05 43.57 53.95 46.81 50.14 46.81ZM50.14 33.91C47.17 33.91 44.75 36.46 44.75 39.6C44.75 42.74 47.17 45.29 50.14 45.29C53.11 45.29 55.53 42.74 55.53 39.6C55.53 36.46 53.11 33.91 50.14 33.91Z" fill="#0E1721"/>
  <path d="M90.33 60.82H79.61V54.12C79.61 51.16 82.01 48.76 84.97 48.76C87.93 48.76 90.33 51.16 90.33 54.12V60.82Z" fill="white"/>
  <path d="M90.33 61.58H79.61C79.19 61.58 78.85 61.24 78.85 60.82V54.12C78.85 50.75 81.6 48 84.97 48C88.34 48 91.09 50.75 91.09 54.12V60.82C91.09 61.24 90.75 61.58 90.33 61.58ZM80.37 60.06H89.57V54.12C89.57 51.58 87.51 49.52 84.97 49.52C82.43 49.52 80.37 51.58 80.37 54.12V60.06Z" fill="#0E1721"/>
  <path d="M59.71 59.21C62.67 59.21 65.07 61.61 65.07 64.57V71.27H54.35V64.57C54.35 61.61 56.75 59.21 59.71 59.21Z" fill="white"/>
  <path d="M65.07 72.03H54.35C53.93 72.03 53.59 71.69 53.59 71.27V64.57C53.59 61.2 56.34 58.45 59.71 58.45C63.08 58.45 65.83 61.2 65.83 64.57V71.27C65.83 71.69 65.49 72.03 65.07 72.03ZM55.11 70.51H64.31V64.57C64.31 62.03 62.25 59.97 59.71 59.97C57.17 59.97 55.11 62.03 55.11 64.57V70.51Z" fill="#0E1721"/>
  <path d="M46.69 71.27H35.97V64.57C35.97 61.61 38.37 59.21 41.33 59.21C44.29 59.21 46.69 61.61 46.69 64.57V71.27Z" fill="white"/>
  <path d="M46.69 72.03H35.97C35.55 72.03 35.21 71.69 35.21 71.27V64.57C35.21 61.2 37.96 58.45 41.33 58.45C44.7 58.45 47.45 61.2 47.45 64.57V71.27C47.45 71.69 47.11 72.03 46.69 72.03ZM36.74 70.51H45.94V64.57C45.94 62.03 43.88 59.97 41.34 59.97C38.8 59.97 36.74 62.03 36.74 64.57V70.51Z" fill="#0E1721"/>
  <path d="M44.75 96.18V84.01C44.75 81.05 47.15 78.65 50.11 78.65C53.07 78.65 55.47 81.05 55.47 84.01V96.18" fill="#FCCD2A"/>
  <path d="M55.46 96.94C55.04 96.94 54.7 96.6 54.7 96.18V84.01C54.7 81.47 52.64 79.41 50.1 79.41C47.56 79.41 45.5 81.47 45.5 84.01V96.18C45.5 96.6 45.16 96.94 44.74 96.94C44.32 96.94 43.98 96.6 43.98 96.18V84.01C43.98 80.64 46.73 77.89 50.1 77.89C53.47 77.89 56.22 80.64 56.22 84.01V96.18C56.22 96.6 55.88 96.94 55.46 96.94Z" fill="#0E1721"/>
  <path d="M90.33 81.72H79.61V75.02C79.61 72.06 82.01 69.66 84.97 69.66C87.93 69.66 90.33 72.06 90.33 75.02V81.72Z" fill="white"/>
  <path d="M90.33 82.48H79.61C79.19 82.48 78.85 82.14 78.85 81.72V75.02C78.85 71.65 81.6 68.9 84.97 68.9C88.34 68.9 91.09 71.65 91.09 75.02V81.72C91.09 82.14 90.75 82.48 90.33 82.48ZM80.37 80.96H89.57V75.02C89.57 72.48 87.51 70.42 84.97 70.42C82.43 70.42 80.37 72.48 80.37 75.02V80.96Z" fill="#0E1721"/>
  <path d="M16.07 48.77C19.03 48.77 21.43 51.17 21.43 54.13V60.83H10.71V54.13C10.71 51.17 13.11 48.77 16.07 48.77Z" fill="white"/>
  <path d="M21.43 61.58H10.71C10.29 61.58 9.94995 61.24 9.94995 60.82V54.12C9.94995 50.75 12.7 48 16.07 48C19.44 48 22.19 50.75 22.19 54.12V60.82C22.19 61.24 21.85 61.58 21.43 61.58ZM11.47 60.06H20.67V54.12C20.67 51.58 18.61 49.52 16.07 49.52C13.53 49.52 11.47 51.58 11.47 54.12V60.06Z" fill="#0E1721"/>
  <path d="M16.07 69.66C19.03 69.66 21.43 72.06 21.43 75.02V81.72H10.71V75.02C10.71 72.06 13.11 69.66 16.07 69.66Z" fill="white"/>
  <path d="M21.43 82.48H10.71C10.29 82.48 9.94995 82.14 9.94995 81.72V75.02C9.94995 71.65 12.7 68.9 16.07 68.9C19.44 68.9 22.19 71.65 22.19 75.02V81.72C22.19 82.14 21.85 82.48 21.43 82.48ZM11.47 80.96H20.67V75.02C20.67 72.48 18.61 70.42 16.07 70.42C13.53 70.42 11.47 72.48 11.47 75.02V80.96Z" fill="#0E1721"/>
  <path d="M52.05 40.76H49.75C49.33 40.76 48.99 40.42 48.99 40V37.59C48.99 37.17 49.33 36.83 49.75 36.83C50.17 36.83 50.51 37.17 50.51 37.59V39.24H52.05C52.47 39.24 52.81 39.58 52.81 40C52.81 40.42 52.47 40.76 52.05 40.76Z" fill="#0E1721"/>
  <path d="M46.6999 10.11C46.4599 11.46 45.6999 16.71 44.8199 18.1H55.3799C54.4899 16.68 53.7399 11.47 53.5099 10.11H46.6999Z" fill="#FCCD2A"/>
  <path d="M55.3799 18.86H44.8199C44.5399 18.86 44.2899 18.71 44.1499 18.47C44.0199 18.23 44.0199 17.93 44.1699 17.7C44.8399 16.63 45.5499 12.36 45.8099 10.76C45.8599 10.44 45.9099 10.17 45.9399 9.98001C45.9999 9.62001 46.3199 9.35001 46.6899 9.35001H53.4999C53.8699 9.35001 54.1899 9.62001 54.2499 9.98001C54.2799 10.16 54.3199 10.41 54.3699 10.71C54.6299 12.32 55.3299 16.6 56.0199 17.7C56.1699 17.93 56.1699 18.23 56.0399 18.47C55.9099 18.71 55.6499 18.86 55.3699 18.86H55.3799ZM45.9799 17.34H54.2299C53.7099 15.8 53.2799 13.4 52.8799 10.95C52.8799 10.92 52.8799 10.9 52.8699 10.87H47.3499C47.3499 10.87 47.3399 10.96 47.3299 11.01C46.9299 13.44 46.4899 15.82 45.9899 17.35L45.9799 17.34Z" fill="#0E1721"/>
  <path d="M62.32 10.09H37.83L43.18 4.76001H56.96L62.32 10.09Z" fill="#4279B6"/>
  <path d="M62.32 10.85H37.82C37.51 10.85 37.23 10.66 37.12 10.38C37.01 10.1 37.07 9.77 37.29 9.55L42.65 4.22C42.79 4.08 42.99 4 43.19 4H56.97C57.17 4 57.36 4.08 57.51 4.22L62.87 9.55C63.09 9.77 63.15 10.09 63.04 10.38C62.93 10.67 62.65 10.85 62.34 10.85H62.32ZM39.67 9.33H60.48L56.65 5.52H43.5L39.67 9.33Z" fill="#0E1721"/>
  <path d="M16.0701 28.63C15.6501 28.63 15.3101 28.29 15.3101 27.87V13.4C15.3101 12.98 15.6501 12.64 16.0701 12.64C16.4901 12.64 16.8301 12.98 16.8301 13.4V27.87C16.8301 28.29 16.4901 28.63 16.0701 28.63Z" fill="#0E1721"/>
  <path d="M16.0701 20.19C16.0701 20.19 18.3301 18.97 21.0501 20.01C23.8201 21.07 25.2501 20.01 25.2501 20.01V13.26C25.2501 13.26 23.2301 14.07 20.9801 13.26C17.8701 12.15 16.1001 13.52 16.1001 13.52L16.0701 20.19Z" fill="#FC8B27"/>
  <path d="M23.3601 21.24C22.6501 21.24 21.7901 21.11 20.7801 20.72C18.4101 19.81 16.4501 20.85 16.4301 20.86C16.1901 20.99 15.9101 20.98 15.6801 20.84C15.4501 20.7 15.3101 20.45 15.3101 20.18L15.3401 13.51C15.3401 13.28 15.4501 13.05 15.6401 12.91C15.7301 12.84 17.7801 11.3 21.2401 12.54C23.1801 13.23 24.9601 12.56 24.9801 12.54C25.2101 12.45 25.4801 12.48 25.6901 12.62C25.9001 12.76 26.0201 13 26.0201 13.25V20C26.0201 20.24 25.9101 20.47 25.7101 20.61C25.6601 20.65 24.8501 21.23 23.3601 21.23V21.24ZM18.7801 18.83C19.5501 18.83 20.4101 18.95 21.3201 19.3C22.9501 19.92 24.0001 19.72 24.4901 19.54V14.25C23.5901 14.42 22.2101 14.51 20.7201 13.98C18.7401 13.27 17.4101 13.69 16.8501 13.95L16.8201 19.09C17.3301 18.95 18.0001 18.83 18.7601 18.83H18.7801Z" fill="#0E1721"/>
  <path d="M73.49 53.98H27.55C27.13 53.98 26.79 53.64 26.79 53.22C26.79 52.8 27.13 52.46 27.55 52.46H73.48C73.9 52.46 74.24 52.8 74.24 53.22C74.24 53.64 73.9 53.98 73.48 53.98H73.49Z" fill="#0E1721"/>
  <path d="M50.11 20.45C49.69 20.45 49.35 20.11 49.35 19.69V18.1C49.35 17.68 49.69 17.34 50.11 17.34C50.53 17.34 50.87 17.68 50.87 18.1V19.69C50.87 20.11 50.53 20.45 50.11 20.45Z" fill="#0E1721"/>
  <path d="M99.24 96.94H0.76C0.34 96.94 0 96.6 0 96.18C0 95.76 0.34 95.42 0.76 95.42H99.24C99.66 95.42 100 95.76 100 96.18C100 96.6 99.66 96.94 99.24 96.94Z" fill="#0E1721"/>
  <path d="M39.04 28.63C38.62 28.63 38.28 28.29 38.28 27.87V10.17C38.28 9.75 38.62 9.41 39.04 9.41C39.46 9.41 39.8 9.75 39.8 10.17V27.87C39.8 28.29 39.46 28.63 39.04 28.63Z" fill="#0E1721"/>
</svg>
