<svg xmlns="http://www.w3.org/2000/svg" width="100" height="100" viewBox="0 0 100 100" fill="none">
  <path d="M87.68 100H11.45C9 100 7 98 7 95.55V4.45C7 2 9 0 11.45 0H87.69C90.14 0 92.14 2 92.14 4.45V95.55C92.14 98 90.14 100 87.69 100H87.68ZM11.45 1.41C9.77 1.41 8.41 2.77 8.41 4.45V95.55C8.41 97.23 9.77 98.59 11.45 98.59H87.69C89.37 98.59 90.73 97.23 90.73 95.55V4.45C90.73 2.77 89.37 1.41 87.69 1.41H11.45Z" fill="#4279B6"/>
  <path d="M74.3599 46.83H24.7699C24.3799 46.83 24.0699 47.15 24.0699 47.53C24.0699 47.91 24.3899 48.23 24.7699 48.23H74.3499C74.7399 48.23 75.0499 47.91 75.0499 47.53C75.0499 47.15 74.7299 46.83 74.3499 46.83H74.3599Z" fill="#2D557F"/>
  <path d="M74.3599 38.94H24.7699C24.3799 38.94 24.0699 39.26 24.0699 39.64C24.0699 40.02 24.3899 40.35 24.7699 40.35H74.3499C74.7399 40.35 75.0499 40.03 75.0499 39.64C75.0499 39.25 74.7299 38.94 74.3499 38.94H74.3599Z" fill="#2D557F"/>
  <path d="M74.3599 31.05H24.7699C24.3799 31.05 24.0699 31.37 24.0699 31.75C24.0699 32.13 24.3899 32.45 24.7699 32.45H74.3499C74.7399 32.45 75.0499 32.13 75.0499 31.75C75.0499 31.37 74.7299 31.05 74.3499 31.05H74.3599Z" fill="#2D557F"/>
  <path d="M24.7699 24.57H74.3499C74.7399 24.57 75.0499 24.26 75.0499 23.87C75.0499 23.48 74.7299 23.17 74.3499 23.17H24.7699C24.3799 23.17 24.0699 23.49 24.0699 23.87C24.0699 24.25 24.3899 24.57 24.7699 24.57Z" fill="#2D557F"/>
  <path d="M24.7699 16.69H39.7099C40.0999 16.69 40.4099 16.37 40.4099 15.99C40.4099 15.61 40.0899 15.29 39.7099 15.29H24.7699C24.3799 15.29 24.0699 15.6 24.0699 15.99C24.0699 16.38 24.3899 16.69 24.7699 16.69Z" fill="#2D557F"/>
  <path d="M74.3599 54.77H24.7699C24.3799 54.77 24.0699 55.08 24.0699 55.47C24.0699 55.86 24.3899 56.17 24.7699 56.17H74.3499C74.7399 56.17 75.0499 55.85 75.0499 55.47C75.0499 55.09 74.7299 54.77 74.3499 54.77H74.3599Z" fill="#2D557F"/>
  <path d="M74.3599 62.71H24.7699C24.3799 62.71 24.0699 63.03 24.0699 63.41C24.0699 63.79 24.3899 64.11 24.7699 64.11H74.3499C74.7399 64.11 75.0499 63.79 75.0499 63.41C75.0499 63.03 74.7299 62.71 74.3499 62.71H74.3599Z" fill="#2D557F"/>
  <path d="M65.62 73.61C60.57 73.61 56.46 77.72 56.46 82.77C56.46 87.82 60.57 91.93 65.62 91.93C70.67 91.93 74.78 87.82 74.78 82.77C74.78 77.72 70.67 73.61 65.62 73.61ZM65.62 90.51C61.35 90.51 57.87 87.03 57.87 82.76C57.87 78.49 61.35 75.01 65.62 75.01C69.89 75.01 73.37 78.48 73.37 82.76C73.37 87.04 69.9 90.51 65.62 90.51Z" fill="#4279B6"/>
  <path d="M69.55 80.18L64.79 84.86L62.41 82.48C62.14 82.2 61.69 82.2 61.41 82.48C61.13 82.75 61.13 83.2 61.41 83.48L64.28 86.35C64.42 86.49 64.6 86.56 64.78 86.56C64.96 86.56 65.14 86.49 65.27 86.36L70.53 81.19C70.8099 80.92 70.8099 80.47 70.53 80.19C70.2599 79.91 69.8099 79.91 69.53 80.19L69.55 80.18Z" fill="#4279B6"/>
  <path d="M36.87 86.61C36.07 86.61 35.27 86.49 34.51 86.23C33.59 85.92 32.77 85.45 31.97 84.99C31.67 84.82 31.37 84.65 31.07 84.49C30.27 84.06 29.07 83.5 27.91 83.62C27.01 83.71 26.02 84.35 25.91 85.26C25.86 85.65 25.51 85.92 25.12 85.87C24.73 85.82 24.46 85.47 24.51 85.08C24.72 83.41 26.35 82.35 27.77 82.21C29.32 82.06 30.78 82.72 31.74 83.24C32.05 83.41 32.36 83.59 32.67 83.76C33.44 84.2 34.17 84.62 34.96 84.89C36.91 85.55 39.2 85.14 40.8 83.84C41.1 83.6 41.55 83.64 41.79 83.94C42.03 84.24 41.99 84.69 41.69 84.93C40.35 86.02 38.6 86.6 36.87 86.6V86.61Z" fill="#4279B6"/>
</svg>
