<svg xmlns="http://www.w3.org/2000/svg" width="100" height="100" viewBox="0 0 100 100" fill="none">
  <path d="M7.70996 4.45L7.70996 95.56C7.70996 97.6255 9.38442 99.3 11.45 99.3H87.69C89.7555 99.3 91.43 97.6255 91.43 95.56V4.45C91.43 2.38445 89.7555 0.709999 87.69 0.709999H11.45C9.38442 0.709999 7.70996 2.38445 7.70996 4.45Z" fill="white"/>
  <path d="M87.68 100H11.45C9 100 7 98 7 95.55V4.45C7 2 9 0 11.45 0H87.69C90.14 0 92.14 2 92.14 4.45V95.55C92.14 98 90.14 100 87.69 100H87.68ZM11.45 1.41C9.77 1.41 8.41 2.77 8.41 4.45V95.55C8.41 97.23 9.77 98.59 11.45 98.59H87.69C89.37 98.59 90.73 97.23 90.73 95.55V4.45C90.73 2.77 89.37 1.41 87.69 1.41H11.45Z" fill="#0E1721"/>
  <path d="M11.45 0.699997H87.69C89.76 0.699997 91.43 2.38 91.43 4.44V22.64H7.69995V4.45C7.69995 2.38 9.37995 0.699997 11.45 0.699997Z" fill="#4279B6"/>
  <path d="M91.43 23.35H7.7C7.31 23.35 7 23.03 7 22.65V4.45C7 2 9 0 11.45 0H87.69C90.14 0 92.14 2 92.14 4.45V22.65C92.14 23.04 91.82 23.35 91.44 23.35H91.43ZM8.41 21.94H90.73V4.45C90.73 2.77 89.37 1.41 87.69 1.41H11.45C9.77 1.41 8.41 2.77 8.41 4.45V21.94Z" fill="#0E1721"/>
  <path d="M74.3599 55.27H24.7699C24.3799 55.27 24.0699 54.95 24.0699 54.57C24.0699 54.19 24.3899 53.87 24.7699 53.87H74.3499C74.7399 53.87 75.0499 54.19 75.0499 54.57C75.0499 54.95 74.7299 55.27 74.3499 55.27H74.3599Z" fill="#0E1721"/>
  <path d="M74.3599 47.39H24.7699C24.3799 47.39 24.0699 47.07 24.0699 46.69C24.0699 46.31 24.3899 45.99 24.7699 45.99H74.3499C74.7399 45.99 75.0499 46.31 75.0499 46.69C75.0499 47.07 74.7299 47.39 74.3499 47.39H74.3599Z" fill="#0E1721"/>
  <path d="M74.3599 39.5H24.7699C24.3799 39.5 24.0699 39.18 24.0699 38.8C24.0699 38.42 24.3899 38.1 24.7699 38.1H74.3499C74.7399 38.1 75.0499 38.42 75.0499 38.8C75.0499 39.18 74.7299 39.5 74.3499 39.5H74.3599Z" fill="#0E1721"/>
  <path d="M74.3599 31.61H24.7699C24.3799 31.61 24.0699 31.29 24.0699 30.91C24.0699 30.53 24.3899 30.21 24.7699 30.21H74.3499C74.7399 30.21 75.0499 30.53 75.0499 30.91C75.0499 31.29 74.7299 31.61 74.3499 31.61H74.3599Z" fill="#0E1721"/>
  <path d="M39.7099 15.58H24.7699C24.3799 15.58 24.0699 15.26 24.0699 14.88C24.0699 14.5 24.3899 14.18 24.7699 14.18H39.7099C40.0999 14.18 40.4099 14.5 40.4099 14.88C40.4099 15.26 40.0899 15.58 39.7099 15.58Z" fill="white"/>
  <path d="M74.3599 63.21H24.7699C24.3799 63.21 24.0699 62.89 24.0699 62.51C24.0699 62.13 24.3899 61.81 24.7699 61.81H74.3499C74.7399 61.81 75.0499 62.13 75.0499 62.51C75.0499 62.89 74.7299 63.21 74.3499 63.21H74.3599Z" fill="#0E1721"/>
  <path d="M74.3599 71.15H24.7699C24.3799 71.15 24.0699 70.83 24.0699 70.45C24.0699 70.07 24.3899 69.75 24.7699 69.75H74.3499C74.7399 69.75 75.0499 70.07 75.0499 70.45C75.0499 70.83 74.7299 71.15 74.3499 71.15H74.3599Z" fill="#0E1721"/>
  <path d="M65.6199 93.41C70.2867 93.41 74.0699 89.6268 74.0699 84.96C74.0699 80.2932 70.2867 76.51 65.6199 76.51C60.9531 76.51 57.1699 80.2932 57.1699 84.96C57.1699 89.6268 60.9531 93.41 65.6199 93.41Z" fill="#3C8645"/>
  <path d="M65.62 94.12C60.57 94.12 56.47 90.01 56.47 84.97C56.47 79.93 60.58 75.82 65.62 75.82C70.66 75.82 74.77 79.93 74.77 84.97C74.77 90.01 70.66 94.12 65.62 94.12ZM65.62 77.21C61.35 77.21 57.87 80.69 57.87 84.96C57.87 89.23 61.35 92.71 65.62 92.71C69.89 92.71 73.37 89.23 73.37 84.96C73.37 80.69 69.89 77.21 65.62 77.21Z" fill="#0E1721"/>
  <path d="M70.5399 82.38C70.2699 82.1 69.8199 82.1 69.5399 82.38L64.7799 87.06L62.3999 84.68C62.1299 84.41 61.6799 84.41 61.3999 84.68C61.1199 84.96 61.1199 85.4 61.3999 85.68L64.2699 88.55C64.4099 88.69 64.5899 88.76 64.7699 88.76C64.9499 88.76 65.1299 88.69 65.2599 88.56L70.5199 83.39C70.7999 83.12 70.7999 82.67 70.5199 82.39L70.5399 82.38Z" fill="white"/>
  <path d="M36.87 88.8C36.07 88.8 35.27 88.68 34.51 88.42C33.59 88.11 32.77 87.64 31.97 87.18C31.67 87.01 31.37 86.84 31.07 86.68C30.27 86.25 29.07 85.7 27.91 85.81C27.01 85.9 26.02 86.54 25.91 87.45C25.86 87.84 25.51 88.11 25.12 88.06C24.73 88.01 24.46 87.66 24.51 87.27C24.72 85.6 26.35 84.54 27.77 84.4C29.32 84.25 30.78 84.91 31.74 85.43C32.05 85.6 32.36 85.78 32.67 85.95C33.44 86.39 34.17 86.81 34.96 87.08C36.91 87.74 39.2 87.33 40.8 86.03C41.1 85.79 41.55 85.83 41.79 86.13C42.03 86.43 41.99 86.88 41.69 87.12C40.35 88.21 38.6 88.79 36.87 88.79V88.8Z" fill="#0E1721"/>
</svg>
