<svg xmlns="http://www.w3.org/2000/svg" width="100" height="100" viewBox="0 0 100 100" fill="none">
  <path d="M52.91 89.29L52.21 89.98H53.91L53.04 89.29H52.91Z" fill="#4279B6"/>
  <path d="M52.91 89.29H53.04L52.97 89.23L52.91 89.29Z" fill="#4279B6"/>
  <path d="M68.1 35.2V26.12C68.1 11.7 56.02 0 41.18 0H40.34C25.5 0 13.42 11.7 13.42 26.12V35.2C9.74 36.12 7 39.42 7 43.38V81.54C7 86.2 10.78 89.98 15.44 89.98H37.7C37.7 89.98 37.74 89.9 37.76 89.88L38.38 89.28L39.12 88.58H15.44C11.56 88.58 8.4 85.42 8.4 81.54V43.38C8.4 39.5 11.56 36.32 15.44 36.32H66.08C69.96 36.32 73.12 39.5 73.12 43.38V44.98C73.36 44.96 73.6 44.96 73.82 44.94C74.06 44.94 74.28 44.92 74.52 44.9V43.38C74.52 39.42 71.78 36.12 68.1 35.2ZM56.88 34.94H24.64V27.32C24.64 18.44 31.86 11.2 40.76 11.2C49.66 11.2 56.88 18.44 56.88 27.32V34.94ZM66.7 34.66H58.28V27.32C58.28 17.66 50.42 9.8 40.76 9.8C31.1 9.8 23.24 17.66 23.24 27.32V34.66H14.82V26.12C14.82 12.48 26.26 1.38 40.34 1.38H41.18C55.26 1.38 66.7 12.48 66.7 26.12V34.66Z" fill="#4279B6"/>
  <path d="M74.46 82.16C74.14 86.52 70.52 89.98 66.08 89.98H56.92L58.32 88.58H66.08C69.78 88.58 72.78 85.72 73.08 82.08C73.3 82.1 73.54 82.12 73.76 82.12C74 82.14 74.22 82.16 74.46 82.16Z" fill="#4279B6"/>
  <path d="M40.76 47.76C36.58 47.76 33.18 51.16 33.18 55.34C33.18 58.08 34.62 60.56 36.98 61.9V75.24C36.98 76.44 37.94 77.4 39.14 77.4H42.38C43.58 77.4 44.54 76.44 44.54 75.24V61.9C46.88 60.56 48.34 58.08 48.34 55.34C48.34 51.16 44.94 47.76 40.76 47.76ZM43.14 61.48V75.24C43.14 75.66 42.8 76 42.38 76H39.14C38.72 76 38.38 75.66 38.38 75.24V61.48C38.38 61.22 38.24 60.98 38 60.86C35.9 59.8 34.58 57.7 34.58 55.34C34.58 51.94 37.36 49.16 40.76 49.16C44.16 49.16 46.94 51.94 46.94 55.34C46.94 57.7 45.62 59.8 43.52 60.86C43.28 60.98 43.14 61.22 43.14 61.48Z" fill="#4279B6"/>
  <path d="M74.78 44.9H74.52C74.28 44.92 74.06 44.94 73.82 44.94C73.6 44.96 73.36 44.96 73.12 44.98C63.62 45.82 56.14 53.82 56.14 63.54C56.14 66.1 56.66 68.56 57.66 70.9L39.12 88.58L38.38 89.28L37.76 89.88C37.76 89.88 37.72 89.94 37.7 89.98C37.6 90.1 37.54 90.24 37.54 90.38V99.3C37.54 99.68 37.86 100 38.24 100H46.62C46.8 100 46.96 99.92 47.1 99.8L52.86 94.56C53 94.44 53.08 94.26 53.08 94.08C53.1 93.88 53.02 93.7 52.88 93.56L50.76 91.44L52.2 89.98L52.9 89.28L52.96 89.22L53.04 89.28L53.92 89.98L55.1 90.94C55.38 91.16 55.78 91.14 56.02 90.88L56.92 89.98L60.74 86.16C61.02 85.9 61.02 85.44 60.74 85.18L58.1 82.52L61.3 79.32L63.94 81.98C64.2 82.24 64.62 82.24 64.9 82L66.74 80.36C68.74 81.32 70.86 81.88 73.08 82.08C73.3 82.1 73.54 82.12 73.76 82.12C74 82.14 74.22 82.16 74.46 82.16C74.56 82.16 74.68 82.18 74.78 82.18C85.06 82.18 93.42 73.82 93.42 63.54C93.42 53.26 85.06 44.9 74.78 44.9ZM74.78 80.78C74.7 80.78 74.62 80.76 74.52 80.76C74.28 80.76 74.06 80.74 73.82 80.72C73.6 80.72 73.36 80.7 73.12 80.68C70.96 80.48 68.9 79.9 66.94 78.9C66.68 78.76 66.38 78.8 66.16 79L64.46 80.52L61.78 77.84C61.52 77.56 61.08 77.56 60.8 77.84L56.62 82.04C56.34 82.3 56.34 82.74 56.62 83.02L59.26 85.68L56.34 88.58L55.48 89.44L55.28 89.28L54.4 88.58L53.34 87.74C53.08 87.52 52.68 87.54 52.42 87.8L51.62 88.58L50.94 89.28L50.24 89.98L49.28 90.94C49 91.22 49 91.66 49.28 91.92L51.38 94.02L46.36 98.6H38.94V94.64L43.82 89.98L44.54 89.28L45.28 88.58L53.14 81.08C53.42 80.82 53.42 80.36 53.16 80.08C52.88 79.82 52.44 79.8 52.16 80.06L43.26 88.58L42.52 89.28L41.78 89.98L38.94 92.7V90.68L39.68 89.98L40.4 89.28L41.14 88.58L58.98 71.56C59.2 71.36 59.26 71.04 59.12 70.76C58.08 68.48 57.54 66.06 57.54 63.54C57.54 54.58 64.4 47.22 73.12 46.38C73.36 46.36 73.6 46.36 73.82 46.34C74.06 46.32 74.28 46.32 74.52 46.3H74.78C84.3 46.3 92.02 54.02 92.02 63.54C92.02 73.06 84.3 80.78 74.78 80.78Z" fill="#2D557F"/>
  <path d="M80.02 52.59C77.23 52.59 74.94 54.65 74.52 57.32C74.48 57.6 74.43 57.89 74.43 58.18C74.43 58.47 74.47 58.76 74.52 59.04C74.94 61.71 77.23 63.77 80.02 63.77C83.1 63.77 85.61 61.26 85.61 58.18C85.61 55.1 83.1 52.59 80.02 52.59ZM80.02 62.37C77.71 62.37 75.83 60.49 75.83 58.18C75.83 55.87 77.71 53.99 80.02 53.99C82.33 53.99 84.21 55.87 84.21 58.18C84.21 60.49 82.33 62.37 80.02 62.37Z" fill="#2D557F"/>
</svg>
