<svg xmlns="http://www.w3.org/2000/svg" width="100" height="100" viewBox="0 0 100 100" fill="none">
  <path d="M41.19 0.700012H40.35C25.92 0.700012 14.13 12.14 14.13 26.12V35.36H23.95V27.34C23.95 18.09 31.52 10.52 40.77 10.52C50.02 10.52 57.59 18.09 57.59 27.34V35.36H67.41V26.12C67.4 12.14 55.6 0.700012 41.19 0.700012Z" fill="#4279B6"/>
  <path d="M67.4 36.06H57.58C57.19 36.06 56.88 35.75 56.88 35.36V27.34C56.88 18.45 49.65 11.22 40.76 11.22C31.87 11.22 24.64 18.45 24.64 27.34V35.36C24.64 35.75 24.33 36.06 23.94 36.06H14.13C13.74 36.06 13.43 35.75 13.43 35.36V26.12C13.43 11.72 25.5 0 40.34 0H41.18C56.02 0 68.09 11.72 68.09 26.12V35.36C68.09 35.75 67.78 36.06 67.39 36.06H67.4ZM58.28 34.66H66.7V26.12C66.7 12.49 55.25 1.4 41.18 1.4H40.34C26.27 1.4 14.83 12.49 14.83 26.12V34.66H23.25V27.34C23.25 17.68 31.11 9.82 40.77 9.82C50.43 9.82 58.29 17.68 58.29 27.34V34.66H58.28Z" fill="#0E1721"/>
  <path d="M66.08 35.64H15.45C11.1698 35.64 7.70001 39.1098 7.70001 43.39V81.55C7.70001 85.8302 11.1698 89.3 15.45 89.3H66.08C70.3602 89.3 73.83 85.8302 73.83 81.55V43.39C73.83 39.1098 70.3602 35.64 66.08 35.64Z" fill="#4279B6"/>
  <path d="M66.08 89.99H15.45C10.79 89.99 7 86.2 7 81.54V43.38C7 38.72 10.79 34.93 15.45 34.93H66.08C70.74 34.93 74.53 38.72 74.53 43.38V81.54C74.53 86.2 70.74 89.99 66.08 89.99ZM15.45 36.34C11.56 36.34 8.4 39.5 8.4 43.39V81.55C8.4 85.44 11.56 88.6 15.45 88.6H66.08C69.97 88.6 73.13 85.44 73.13 81.55V43.39C73.13 39.5 69.97 36.34 66.08 36.34H15.45Z" fill="#0E1721"/>
  <path fill-rule="evenodd" clip-rule="evenodd" d="M47.64 55.35C47.64 51.55 44.56 48.47 40.76 48.47C36.96 48.47 33.88 51.55 33.88 55.35C33.88 58.04 35.43 60.36 37.68 61.49V75.25C37.68 76.05 38.33 76.7 39.13 76.7H42.39C43.19 76.7 43.84 76.05 43.84 75.25V61.49C46.09 60.36 47.64 58.04 47.64 55.35Z" fill="white"/>
  <path d="M42.39 77.4H39.13C37.95 77.4 36.98 76.44 36.98 75.25V61.91C34.63 60.56 33.18 58.08 33.18 55.35C33.18 51.17 36.58 47.78 40.75 47.78C44.92 47.78 48.32 51.18 48.32 55.35C48.32 58.08 46.87 60.56 44.52 61.91V75.25C44.52 76.43 43.56 77.4 42.37 77.4H42.39ZM40.76 49.17C37.35 49.17 34.58 51.94 34.58 55.35C34.58 57.7 35.89 59.81 37.99 60.87C38.23 60.99 38.38 61.23 38.38 61.49V75.25C38.38 75.66 38.72 76 39.13 76H42.39C42.8 76 43.14 75.66 43.14 75.25V61.49C43.14 61.23 43.29 60.98 43.53 60.87C45.64 59.81 46.94 57.7 46.94 55.35C46.94 51.94 44.17 49.17 40.76 49.17Z" fill="#0E1721"/>
  <path d="M74.79 45.6C64.88 45.6 56.85 53.63 56.85 63.54C56.85 66.23 57.44 68.77 58.5 71.06L38.25 90.39V99.3H46.63L52.39 94.06L49.77 91.44L52.91 88.3L55.53 90.4L60.24 85.69L57.1 82.55L61.29 78.36L64.43 81.5L66.61 79.53C69.06 80.78 71.83 81.5 74.77 81.5C84.68 81.5 92.71 73.47 92.71 63.56C92.71 53.65 84.68 45.62 74.77 45.62L74.79 45.6Z" fill="#FCCD2A"/>
  <path d="M46.63 100H38.25C37.86 100 37.55 99.69 37.55 99.3V90.39C37.55 90.2 37.63 90.02 37.77 89.88L57.66 70.89C56.66 68.56 56.15 66.09 56.15 63.54C56.15 53.26 64.51 44.9 74.79 44.9C85.07 44.9 93.43 53.26 93.43 63.54C93.43 73.82 85.07 82.18 74.79 82.18C71.97 82.18 69.27 81.57 66.74 80.35L64.91 82C64.63 82.25 64.21 82.24 63.95 81.97L61.3 79.32L58.1 82.52L60.75 85.17C61.02 85.44 61.02 85.88 60.75 86.16L56.04 90.87C55.79 91.12 55.39 91.14 55.11 90.92L52.98 89.21L50.77 91.42L52.9 93.55C53.04 93.69 53.11 93.87 53.1 94.06C53.1 94.25 53.01 94.43 52.87 94.56L47.11 99.8C46.98 99.92 46.81 99.98 46.64 99.98L46.63 100ZM38.95 98.6H46.36L51.38 94.04L49.28 91.94C49.01 91.67 49.01 91.23 49.28 90.95L52.42 87.81C52.67 87.56 53.07 87.54 53.35 87.76L55.48 89.47L59.26 85.69L56.61 83.04C56.34 82.77 56.34 82.33 56.61 82.05L60.8 77.86C61.07 77.59 61.52 77.59 61.79 77.86L64.46 80.53L66.15 79.01C66.37 78.82 66.68 78.78 66.94 78.91C69.39 80.16 72.03 80.8 74.78 80.8C84.29 80.8 92.02 73.06 92.02 63.56C92.02 54.06 84.28 46.32 74.78 46.32C65.28 46.32 57.54 54.06 57.54 63.56C57.54 66.08 58.07 68.51 59.13 70.79C59.26 71.06 59.19 71.38 58.98 71.59L38.95 90.71V98.62V98.6Z" fill="#0E1721"/>
  <path d="M38.25 95.05C38.07 95.05 37.88 94.98 37.74 94.83C37.47 94.55 37.48 94.11 37.76 93.84L52.17 80.07C52.45 79.8 52.89 79.81 53.16 80.09C53.43 80.37 53.42 80.81 53.14 81.08L38.73 94.85C38.59 94.98 38.42 95.04 38.25 95.04V95.05Z" fill="#0E1721"/>
  <path d="M80.03 63.08C82.7307 63.08 84.92 60.8907 84.92 58.19C84.92 55.4893 82.7307 53.3 80.03 53.3C77.3293 53.3 75.14 55.4893 75.14 58.19C75.14 60.8907 77.3293 63.08 80.03 63.08Z" fill="white"/>
  <path d="M80.03 63.77C76.95 63.77 74.44 61.26 74.44 58.18C74.44 55.1 76.95 52.59 80.03 52.59C83.11 52.59 85.62 55.1 85.62 58.18C85.62 61.26 83.11 63.77 80.03 63.77ZM80.03 53.99C77.72 53.99 75.84 55.87 75.84 58.18C75.84 60.49 77.72 62.37 80.03 62.37C82.34 62.37 84.22 60.49 84.22 58.18C84.22 55.87 82.34 53.99 80.03 53.99Z" fill="#0E1721"/>
</svg>
