<svg xmlns="http://www.w3.org/2000/svg" width="100" height="100" viewBox="0 0 100 100" fill="none">
  <path d="M39.58 63.78C39.58 63.78 39.58 63.76 39.57 63.75C39.57 63.75 39.57 63.77 39.58 63.78Z" fill="#2D557F"/>
  <path d="M39.51 63.65C39.51 63.65 39.5 63.63 39.49 63.62C39.49 63.62 39.5 63.64 39.51 63.65Z" fill="#2D557F"/>
  <path d="M79.53 43.96L69.68 38.33C71.68 36.2 72.81 33.11 72.81 30.16V28.47C72.81 24.24 70.41 19.29 63.63 19.29C60.42 19.29 57.88 20.41 56.29 22.54C54.69 24.67 54.45 27.17 54.45 28.47V29.67C53.26 29.12 51.82 28.8 50.1 28.8C48.38 28.8 47 29.09 45.75 29.66V28.46C45.75 24.23 43.35 19.28 36.57 19.28C29.79 19.28 27.39 24.22 27.39 28.46V30.15C27.39 33.11 28.51 36.2 30.52 38.32L20.68 43.94C19.61 44.55 18.94 45.7 18.94 46.94V48.74C18.94 51.94 21.54 54.54 24.74 54.54H33.06C32.69 55.1 32.48 55.75 32.48 56.44V58.25C32.48 61.31 34.86 63.81 37.86 64.03H37.85L37.37 63.56C37.12 63.32 37.05 62.95 37.19 62.64C37.21 62.59 37.24 62.53 37.27 62.48C35.36 62.02 33.94 60.3 33.94 58.26V56.45C33.94 55.74 34.32 55.08 34.94 54.73L35.26 54.55L36.53 53.82L37.8 53.09L45.21 48.86C45.49 49.07 45.77 49.26 46.07 49.44C46.33 49.59 46.6 49.73 46.87 49.85C47.14 49.97 47.43 50.08 47.72 50.17C48.47 50.4 49.27 50.53 50.12 50.53C50.97 50.53 51.77 50.4 52.52 50.17C52.81 50.08 53.09 49.97 53.37 49.85C53.65 49.73 53.91 49.59 54.17 49.44C54.47 49.27 54.76 49.07 55.03 48.86L62.44 53.09L63.71 53.82L64.98 54.55L65.3 54.73C65.92 55.08 66.3 55.74 66.3 56.45V58.26C66.3 60.66 64.35 62.61 61.95 62.61H60.91C60.91 62.61 60.91 62.61 60.93 62.64C61.07 62.95 60.99 63.32 60.75 63.56L60.24 64.05H61.96C65.16 64.05 67.76 61.45 67.76 58.25V56.44C67.76 55.75 67.55 55.09 67.18 54.54H75.5C78.7 54.54 81.3 51.94 81.3 48.74V46.93C81.3 45.7 80.64 44.56 79.57 43.95L79.53 43.96ZM55.9 28.47C55.9 26.66 56.46 20.74 63.63 20.74C70.8 20.74 71.36 26.65 71.36 28.47V30.16C71.36 33.61 69.95 36.28 68.02 37.89C67.69 38.16 67.34 38.41 66.99 38.62C66.45 38.94 65.88 39.18 65.31 39.35C64.75 39.51 64.19 39.59 63.64 39.59C63.02 39.59 62.43 39.51 61.87 39.35C61.27 39.19 60.72 38.94 60.2 38.62C59.88 38.42 59.57 38.2 59.28 37.96C59.28 37.94 59.28 37.92 59.28 37.9C59.26 35.25 58.3 32.35 55.92 30.56C55.92 30.43 55.92 30.31 55.92 30.18V28.49L55.9 28.47ZM28.84 30.16V28.47C28.84 26.66 29.4 20.74 36.57 20.74C43.74 20.74 44.3 26.65 44.3 28.47V30.16C44.3 30.28 44.3 30.41 44.3 30.53C43.72 30.96 43.21 31.47 42.77 32.05C41.21 34.13 40.95 36.56 40.94 37.89V37.91C40.62 38.17 40.28 38.41 39.94 38.61C39.4 38.93 38.83 39.17 38.26 39.34C37.7 39.5 37.14 39.58 36.59 39.58C35.97 39.58 35.38 39.5 34.82 39.34C34.22 39.18 33.67 38.93 33.15 38.61C32.8 38.4 32.47 38.15 32.16 37.88C30.06 36.06 28.87 33.04 28.87 30.16H28.84ZM34.85 53.1H24.73C22.33 53.1 20.39 51.15 20.39 48.76V46.96C20.39 46.24 20.78 45.58 21.4 45.22L31.65 39.36C33.01 40.4 34.67 41.03 36.56 41.03C38.21 41.03 39.67 40.55 40.92 39.75C40.94 42.68 42.06 45.74 44.05 47.85L34.85 53.11V53.1ZM54.48 47.39C54.38 47.47 54.29 47.55 54.19 47.62C53.95 47.8 53.71 47.96 53.46 48.11C53.46 48.11 53.45 48.11 53.44 48.11C53.21 48.25 52.97 48.37 52.73 48.48C52.41 48.62 52.09 48.74 51.76 48.84C51.21 49 50.64 49.08 50.09 49.08C49.47 49.08 48.88 49 48.32 48.84C48.02 48.76 47.73 48.65 47.44 48.53C47.19 48.42 46.95 48.3 46.71 48.16C46.69 48.15 46.67 48.13 46.64 48.12C46.41 47.98 46.19 47.83 45.98 47.67C45.87 47.58 45.75 47.49 45.65 47.4C43.6 45.62 42.41 42.7 42.36 39.88C42.36 39.81 42.36 39.75 42.36 39.68V37.99C42.36 37.86 42.36 37.7 42.37 37.52C42.39 37.13 42.44 36.66 42.54 36.13C42.74 35.08 43.15 33.86 43.99 32.79C44.24 32.47 44.54 32.16 44.88 31.88C45.12 31.68 45.39 31.49 45.68 31.32C46.76 30.68 48.19 30.26 50.09 30.26C51.99 30.26 53.42 30.68 54.5 31.32C54.79 31.49 55.06 31.68 55.3 31.88C55.66 32.18 55.97 32.51 56.23 32.85C57.02 33.88 57.43 35.06 57.62 36.08C57.73 36.62 57.77 37.11 57.79 37.51C57.79 37.69 57.8 37.85 57.8 37.98V39.67C57.8 39.74 57.8 39.8 57.8 39.87C57.75 43.22 56.35 45.82 54.47 47.39H54.48ZM79.81 48.75C79.81 51.15 77.86 53.1 75.46 53.1H65.34L56.14 47.85C58.13 45.74 59.25 42.69 59.27 39.75C60.52 40.55 61.98 41.03 63.63 41.03C65.53 41.03 67.18 40.4 68.54 39.36L78.81 45.23C79.43 45.58 79.81 46.24 79.81 46.95V48.76V48.75Z" fill="#2D557F"/>
  <path d="M94.24 50C94.28 49.51 95.2 47.57 95.55 46.84L95.59 46.77C96.81 44.23 98.2 41.35 98.2 37.99C98.2 36.8 98.02 35.64 97.67 34.55C96.09 29.7 91.94 27.48 88.6 25.7C88 25.38 86.19 24.42 85.82 24.06C85.58 23.59 85.23 21.65 85.09 20.9L85.07 20.81C84.41 17.12 83.58 12.54 79.49 9.56C75.43 6.61 70.81 7.23 67.1 7.73C66.4 7.82 64.32 8.11 63.79 8.03C63.47 7.86 62.67 7.14 61.39 5.91C58.65 3.28 55.25 0 50.1 0C44.95 0 41.39 3.41 38.79 5.92C38.26 6.43 36.87 7.76 36.43 8.02C35.88 8.11 33.77 7.82 33.06 7.73C29.36 7.23 24.75 6.61 20.69 9.56C16.61 12.53 15.78 17.13 15.11 20.83C14.99 21.52 14.62 23.57 14.39 24.04C14.01 24.41 12.24 25.36 11.64 25.68L11.58 25.71C8.24999 27.49 4.09999 29.71 2.52999 34.55C2.16999 35.65 1.98999 36.81 1.98999 37.99C1.98999 41.34 3.37999 44.23 4.59999 46.78C5.46999 48.58 5.91999 49.67 5.94999 50.01C5.90999 50.51 4.97999 52.46 4.61999 53.2L4.58999 53.27C3.36999 55.8 1.98999 58.68 1.98999 62.03C1.98999 63.23 2.16999 64.38 2.52999 65.47C4.09999 70.32 8.24999 72.53 11.61 74.32C12.27 74.68 14 75.6 14.38 75.95C14.63 76.44 15 78.5 15.13 79.19C15.79 82.88 16.62 87.48 20.71 90.45C24.76 93.39 29.37 92.78 33.09 92.28H33.13C33.83 92.18 35.9 91.9 36.42 91.98C36.89 92.23 38.33 93.62 38.81 94.08C41.4 96.58 44.94 100 50.11 100C55.28 100 58.67 96.72 61.41 94.08C61.94 93.57 63.33 92.23 63.76 91.99C64.3 91.9 66.38 92.18 67.08 92.27H67.15C70.85 92.78 75.45 93.39 79.51 90.45C83.59 87.48 84.42 82.88 85.09 79.18C85.21 78.49 85.58 76.44 85.81 75.97C86.19 75.6 87.92 74.68 88.58 74.32L88.62 74.3C91.78 72.62 96.1 70.31 97.68 65.45C98.03 64.36 98.21 63.21 98.21 62.01C98.21 58.65 96.82 55.77 95.59 53.21C95.27 52.54 94.29 50.51 94.25 50H94.24ZM96.28 65C94.88 69.31 90.86 71.45 87.92 73.02L87.88 73.04C86.08 74 85.04 74.61 84.65 75.07C84.63 75.1 84.61 75.12 84.59 75.15C84.28 75.65 84.02 76.86 83.65 78.92C83.03 82.36 82.25 86.65 78.64 89.27C75.06 91.87 70.77 91.3 67.33 90.84H67.27C65.23 90.56 63.92 90.43 63.32 90.6C63.29 90.6 63.26 90.62 63.23 90.63C62.73 90.85 61.85 91.64 60.4 93.03C57.85 95.48 54.68 98.54 50.11 98.54C45.54 98.54 42.22 95.36 39.81 93.03C38.4 91.67 37.48 90.84 36.93 90.61C36.9 90.6 36.87 90.59 36.84 90.58C36.67 90.53 36.43 90.51 36.14 90.51C35.44 90.51 34.39 90.63 32.93 90.83H32.88C29.43 91.3 25.14 91.87 21.56 89.27C17.95 86.64 17.18 82.36 16.56 78.92C16.18 76.85 15.92 75.63 15.59 75.11C15.57 75.08 15.55 75.05 15.53 75.03C15.15 74.59 14.11 73.99 12.29 73.01C9.18999 71.35 5.32999 69.29 3.92999 65C3.61999 64.06 3.46999 63.05 3.46999 62.01C3.46999 58.98 4.76999 56.27 5.91999 53.88L5.94999 53.81C6.88999 51.84 7.40999 50.65 7.41999 50.01C7.41999 50 7.41999 49.99 7.41999 49.98C7.39999 49.32 6.85999 48.07 5.92999 46.14C4.76999 43.73 3.46999 41 3.46999 37.98C3.46999 36.95 3.62999 35.94 3.92999 34.98C5.31999 30.69 9.17999 28.63 12.29 26.97L12.35 26.94C14.09 26.01 15.17 25.38 15.56 24.92C15.58 24.9 15.6 24.87 15.62 24.84C15.94 24.34 16.21 23.08 16.57 21.07C17.19 17.63 17.97 13.35 21.58 10.72C25.17 8.11 29.45 8.69 32.9 9.15C35.02 9.44 36.29 9.56 36.9 9.39C36.93 9.39 36.97 9.37 37 9.36C37.51 9.14 38.38 8.35 39.84 6.95C42.25 4.63 45.56 1.45 50.13 1.45C54.7 1.45 57.87 4.5 60.41 6.95C61.82 8.31 62.74 9.14 63.29 9.38C63.32 9.39 63.36 9.41 63.39 9.41C63.97 9.56 65.22 9.44 67.32 9.16C70.78 8.69 75.08 8.11 78.66 10.72C82.27 13.35 83.04 17.62 83.66 21.05L83.68 21.14C83.99 22.84 84.28 24.3 84.64 24.87C84.66 24.9 84.68 24.92 84.7 24.95C85.08 25.4 86.13 26 87.94 26.97C91.04 28.63 94.91 30.7 96.31 34.99C96.62 35.94 96.77 36.94 96.77 37.98C96.77 41.01 95.46 43.73 94.3 46.13L94.26 46.21C93.33 48.16 92.82 49.33 92.8 49.98C92.8 49.99 92.8 50 92.8 50.01C92.82 50.66 93.36 51.91 94.29 53.85C95.45 56.25 96.75 58.97 96.75 62C96.75 63.04 96.59 64.04 96.29 64.99L96.28 65Z" fill="#4279B6"/>
  <path d="M61.88 66.29C61.84 65.95 61.59 65.67 61.26 65.58L60.27 65.33C60.19 64.98 60.1 64.62 59.99 64.28L60.73 63.56C60.98 63.32 61.05 62.95 60.91 62.64C60.53 61.76 60.02 60.9 59.41 60.07C59.21 59.8 58.85 59.68 58.52 59.77L57.55 60.05C57.3 59.78 57.04 59.52 56.77 59.27L57.05 58.3C57.14 57.97 57.02 57.61 56.75 57.41C55.93 56.8 55.07 56.29 54.19 55.91C53.88 55.77 53.51 55.85 53.26 56.09L52.54 56.83C52.19 56.72 51.84 56.62 51.49 56.55L51.24 55.56C51.16 55.23 50.87 54.98 50.53 54.94C49.99 54.88 49.5 54.85 49.04 54.85C48.58 54.85 48.1 54.88 47.55 54.94C47.21 54.98 46.92 55.23 46.84 55.56L46.59 56.55C46.24 56.63 45.88 56.72 45.54 56.83L44.82 56.09C44.58 55.84 44.21 55.77 43.9 55.91C43.02 56.29 42.16 56.8 41.34 57.41C41.06 57.61 40.94 57.97 41.04 58.3L41.32 59.27C41.05 59.52 40.79 59.78 40.54 60.05L39.57 59.77C39.24 59.68 38.88 59.8 38.68 60.07C38.07 60.89 37.56 61.75 37.18 62.64C37.05 62.95 37.12 63.32 37.36 63.56L38.1 64.28C37.99 64.63 37.89 64.98 37.82 65.33L36.83 65.58C36.5 65.66 36.25 65.95 36.21 66.29C36.15 66.83 36.12 67.32 36.12 67.78C36.12 68.24 36.15 68.73 36.21 69.27C36.25 69.61 36.5 69.89 36.83 69.98L37.82 70.23C37.9 70.58 37.99 70.94 38.1 71.28L37.36 72C37.11 72.24 37.04 72.61 37.17 72.93C37.55 73.81 38.06 74.67 38.67 75.49C38.87 75.76 39.23 75.89 39.56 75.79L40.53 75.51C40.78 75.78 41.04 76.04 41.31 76.29L41.03 77.26C40.94 77.59 41.06 77.95 41.33 78.15C42.15 78.76 43.01 79.27 43.89 79.65C44.21 79.79 44.58 79.71 44.82 79.47L45.54 78.73C45.89 78.84 46.24 78.94 46.59 79.01L46.84 80C46.92 80.33 47.21 80.58 47.55 80.62C48.09 80.68 48.58 80.71 49.04 80.71C49.5 80.71 49.98 80.68 50.52 80.62C50.86 80.58 51.15 80.33 51.23 80L51.48 79.01C51.83 78.93 52.19 78.84 52.53 78.73L53.25 79.47C53.49 79.72 53.86 79.79 54.17 79.65C55.05 79.27 55.91 78.76 56.73 78.15C57 77.95 57.13 77.59 57.03 77.26L56.75 76.29C57.02 76.04 57.28 75.78 57.53 75.51L58.5 75.79C58.83 75.88 59.19 75.76 59.39 75.49C60 74.67 60.51 73.81 60.89 72.93C61.03 72.61 60.95 72.24 60.71 72L59.97 71.28C60.08 70.93 60.18 70.58 60.25 70.23L61.24 69.98C61.57 69.9 61.82 69.61 61.86 69.27C61.92 68.73 61.95 68.24 61.95 67.78C61.95 67.32 61.92 66.84 61.86 66.3L61.88 66.29ZM60.48 68.67L59.53 68.91C59.22 68.99 58.98 69.25 58.92 69.57C58.82 70.11 58.68 70.65 58.49 71.17C58.38 71.47 58.46 71.82 58.69 72.04L59.4 72.73C59.15 73.25 58.84 73.77 58.5 74.27L57.57 74C57.26 73.91 56.92 74.01 56.71 74.26C56.35 74.68 55.95 75.08 55.53 75.44C55.29 75.65 55.19 75.98 55.27 76.29L55.54 77.22C55.04 77.57 54.52 77.87 54 78.12L53.31 77.41C53.09 77.18 52.74 77.1 52.43 77.21C51.91 77.4 51.37 77.54 50.83 77.64C50.51 77.7 50.25 77.94 50.17 78.25L49.93 79.2C49.3 79.25 48.78 79.25 48.15 79.2L47.91 78.25C47.83 77.93 47.57 77.69 47.25 77.64C46.71 77.54 46.17 77.4 45.64 77.21C45.33 77.1 44.99 77.18 44.77 77.41L44.08 78.12C43.56 77.87 43.04 77.56 42.54 77.22L42.81 76.29C42.9 75.98 42.79 75.64 42.55 75.44C42.13 75.08 41.73 74.68 41.37 74.26C41.16 74.01 40.83 73.91 40.51 74L39.58 74.27C39.23 73.77 38.93 73.25 38.68 72.73L39.39 72.04C39.62 71.81 39.7 71.47 39.59 71.17C39.4 70.65 39.26 70.11 39.16 69.57C39.1 69.25 38.86 68.99 38.55 68.91L37.6 68.67C37.57 68.35 37.56 68.06 37.56 67.78C37.56 67.5 37.57 67.21 37.6 66.89L38.55 66.65C38.87 66.57 39.11 66.31 39.16 65.99C39.26 65.45 39.4 64.91 39.59 64.38C39.7 64.07 39.62 63.73 39.39 63.51L38.68 62.82C38.93 62.3 39.24 61.78 39.58 61.28L40.51 61.55C40.82 61.64 41.15 61.54 41.37 61.29C41.73 60.87 42.13 60.47 42.55 60.11C42.8 59.9 42.9 59.56 42.81 59.25L42.54 58.32C43.04 57.97 43.56 57.67 44.08 57.42L44.77 58.13C44.99 58.36 45.34 58.44 45.64 58.33C46.16 58.14 46.7 58 47.24 57.9C47.56 57.84 47.82 57.6 47.89 57.29L48.13 56.34C48.77 56.29 49.28 56.29 49.91 56.34L50.15 57.29C50.23 57.6 50.49 57.84 50.81 57.9C51.35 58 51.89 58.14 52.42 58.33C52.73 58.44 53.07 58.36 53.29 58.13L53.98 57.42C54.5 57.67 55.02 57.97 55.52 58.32L55.25 59.25C55.16 59.56 55.26 59.9 55.51 60.11C55.93 60.47 56.33 60.87 56.69 61.29C56.9 61.54 57.23 61.64 57.55 61.55L58.48 61.28C58.83 61.78 59.13 62.3 59.38 62.82L58.67 63.51C58.44 63.73 58.36 64.08 58.47 64.39C58.66 64.91 58.8 65.45 58.9 65.99C58.96 66.31 59.2 66.57 59.51 66.64L60.46 66.88C60.49 67.2 60.5 67.49 60.5 67.77C60.5 68.05 60.49 68.34 60.46 68.66L60.48 68.67Z" fill="#4279B6"/>
  <path d="M49.04 61.1899C45.41 61.1899 42.46 64.1399 42.46 67.7699C42.46 71.3999 45.41 74.3499 49.04 74.3499C52.67 74.3499 55.62 71.3999 55.62 67.7699C55.62 64.1399 52.67 61.1899 49.04 61.1899ZM49.04 72.9099C46.21 72.9099 43.91 70.6099 43.91 67.7799C43.91 64.9499 46.21 62.6499 49.04 62.6499C51.87 62.6499 54.17 64.9499 54.17 67.7799C54.17 70.6099 51.87 72.9099 49.04 72.9099Z" fill="#4279B6"/>
</svg>
