<svg xmlns="http://www.w3.org/2000/svg" width="100" height="100" viewBox="0 0 100 100" fill="none">
  <path d="M92.79 50.02C92.79 50.02 92.79 50 92.79 49.99C92.81 49.35 93.31 48.17 94.25 46.22L94.29 46.14C95.45 43.74 96.76 41.02 96.76 37.99C96.76 36.95 96.6 35.95 96.3 35C94.9 30.71 91.04 28.64 87.93 26.98C86.12 26.02 85.07 25.41 84.69 24.96C84.67 24.94 84.65 24.91 84.63 24.88C84.27 24.31 83.98 22.86 83.67 21.15L83.65 21.06C83.03 17.63 82.26 13.36 78.65 10.73C75.06 8.11996 70.76 8.69996 67.31 9.16996C65.21 9.44996 63.96 9.57996 63.38 9.41996C63.35 9.41996 63.31 9.39996 63.28 9.38996C62.73 9.14996 61.81 8.31996 60.4 6.95996C57.85 4.50996 54.68 1.45996 50.12 1.45996C45.56 1.45996 42.24 4.63996 39.83 6.95996C38.38 8.35996 37.5 9.14996 36.99 9.36996C36.96 9.37996 36.93 9.39996 36.89 9.39996C36.28 9.56996 35.01 9.43996 32.89 9.15996C29.44 8.68996 25.16 8.11996 21.57 10.73C17.96 13.36 17.18 17.64 16.56 21.08C16.2 23.09 15.93 24.35 15.61 24.85C15.59 24.88 15.57 24.9 15.55 24.93C15.16 25.39 14.08 26.02 12.34 26.95L12.28 26.98C9.18002 28.64 5.32002 30.7 3.92002 34.99C3.61002 35.94 3.46002 36.95 3.46002 37.99C3.46002 41.01 4.77002 43.74 5.92002 46.15C6.85002 48.08 7.40002 49.33 7.41002 49.99C7.41002 50 7.41002 50.01 7.41002 50.02C7.39002 50.67 6.88002 51.85 5.94002 53.82L5.91002 53.89C4.76002 56.28 3.46002 59 3.46002 62.02C3.46002 63.06 3.62002 64.07 3.92002 65.01C5.31002 69.3 9.17002 71.37 12.28 73.02C14.1 74 15.15 74.6 15.52 75.04C15.54 75.07 15.56 75.09 15.58 75.12C15.91 75.64 16.18 76.86 16.55 78.93C17.17 82.37 17.94 86.65 21.55 89.28C25.13 91.88 29.42 91.31 32.87 90.85H32.92C34.39 90.64 35.44 90.52 36.13 90.52C36.43 90.52 36.66 90.54 36.83 90.59C36.86 90.59 36.89 90.61 36.92 90.62C37.47 90.85 38.39 91.68 39.8 93.04C42.21 95.37 45.51 98.55 50.1 98.55C54.69 98.55 57.84 95.5 60.39 93.04C61.83 91.65 62.71 90.86 63.22 90.64C63.25 90.63 63.28 90.62 63.31 90.61C63.92 90.44 65.22 90.57 67.26 90.84H67.32C70.77 91.31 75.05 91.89 78.63 89.28C82.24 86.65 83.01 82.37 83.64 78.93C84.01 76.87 84.27 75.66 84.58 75.16C84.6 75.13 84.62 75.1 84.64 75.08C85.03 74.62 86.07 74.01 87.87 73.05L87.91 73.03C90.85 71.46 94.87 69.32 96.27 65.01C96.58 64.07 96.73 63.06 96.73 62.02C96.73 58.99 95.42 56.27 94.27 53.87C93.33 51.92 92.79 50.68 92.78 50.03L92.79 50.02ZM92.97 63.92C92 66.89 88.96 68.52 86.27 69.95L86.23 69.97C83.87 71.24 82.75 71.91 81.99 72.82C81.86 72.97 81.74 73.13 81.64 73.3C81.01 74.31 80.7 75.6 80.22 78.31C79.53 82.15 78.9 84.79 76.59 86.47C75.35 87.37 73.91 87.77 71.91 87.77C70.55 87.77 69.15 87.58 67.79 87.4H67.73C66.45 87.22 65.11 87.05 64.07 87.05C63.41 87.05 62.87 87.12 62.37 87.26C62.19 87.31 62.01 87.37 61.84 87.45C60.84 87.88 59.96 88.64 57.98 90.54C55.14 93.28 53.05 95.07 50.1 95.07C46.92 95.07 44.42 92.66 42.22 90.54C40.36 88.75 39.35 87.88 38.29 87.42C38.12 87.35 37.94 87.29 37.76 87.24C37.28 87.11 36.77 87.05 36.15 87.05C35.13 87.05 33.76 87.22 32.45 87.4H32.41C31.05 87.59 29.64 87.78 28.29 87.78C26.29 87.78 24.85 87.38 23.61 86.48C21.3 84.79 20.67 82.16 19.98 78.32C19.49 75.6 19.17 74.3 18.52 73.26C18.41 73.09 18.29 72.93 18.16 72.77C17.41 71.9 16.3 71.23 13.94 69.96L13.91 69.95C10.45 68.1 8.12002 66.69 7.22002 63.93C7.03002 63.34 6.93002 62.7 6.93002 62.03C6.93002 59.8 8.00002 57.56 9.04002 55.4L9.07002 55.33C10.32 52.72 10.85 51.41 10.88 50.11C10.88 50.04 10.88 49.98 10.88 49.91C10.85 48.59 10.29 47.22 9.05002 44.65C7.96002 42.37 6.93002 40.22 6.93002 38C6.93002 37.33 7.03002 36.69 7.22002 36.08C8.11002 33.33 10.45 31.91 13.91 30.06L13.97 30.03C16.33 28.77 17.44 28.09 18.21 27.17C18.33 27.03 18.44 26.88 18.54 26.72C19.18 25.71 19.48 24.41 19.97 21.71C20.66 17.88 21.29 15.24 23.6 13.55C24.84 12.65 26.28 12.25 28.27 12.25C29.63 12.25 31.04 12.44 32.4 12.62C33.76 12.8 35.07 12.97 36.12 12.97C36.76 12.97 37.3 12.91 37.79 12.77C37.98 12.72 38.17 12.65 38.36 12.57C39.36 12.13 40.24 11.38 42.22 9.47996C44.43 7.35996 46.93 4.94996 50.1 4.94996C53.04 4.94996 55.13 6.73996 57.97 9.46996C59.83 11.26 60.83 12.14 61.89 12.59C62.08 12.67 62.27 12.74 62.46 12.79C62.93 12.92 63.44 12.98 64.04 12.98C65.07 12.98 66.44 12.81 67.76 12.63C69.13 12.45 70.54 12.25 71.91 12.25C73.91 12.25 75.35 12.65 76.59 13.55C78.9 15.23 79.53 17.87 80.22 21.7L80.24 21.8C80.73 24.47 81.04 25.76 81.7 26.78C81.8 26.93 81.91 27.08 82.02 27.22C82.78 28.12 83.9 28.79 86.27 30.06C89.73 31.91 92.07 33.33 92.97 36.08C93.16 36.68 93.26 37.33 93.26 38C93.26 40.24 92.18 42.48 91.14 44.65L91.11 44.72C89.87 47.32 89.34 48.61 89.31 49.91C89.31 49.98 89.31 50.04 89.31 50.11C89.34 51.42 89.9 52.79 91.14 55.36C92.24 57.65 93.27 59.79 93.27 62.02C93.27 62.69 93.17 63.33 92.98 63.93L92.97 63.92Z" fill="#4279B6"/>
  <path d="M78.81 45.22L68.54 39.35C67.18 40.39 65.52 41.02 63.63 41.02C61.98 41.02 60.52 40.54 59.27 39.74C59.25 42.67 58.13 45.73 56.14 47.84L65.34 53.09H75.46C77.86 53.09 79.81 51.14 79.81 48.74V46.93C79.81 46.22 79.43 45.56 78.81 45.21V45.22Z" fill="#FC8B27"/>
  <path d="M36.57 41.03C34.67 41.03 33.02 40.4 31.66 39.36L21.41 45.22C20.79 45.58 20.4 46.24 20.4 46.96V48.76C20.4 51.16 22.35 53.1 24.74 53.1H34.86L44.06 47.84C42.07 45.73 40.95 42.68 40.93 39.74C39.68 40.54 38.22 41.02 36.57 41.02V41.03Z" fill="#FC8B27"/>
  <path d="M65.28 54.73L64.96 54.55L63.69 53.82L62.42 53.09L55.01 48.86C54.73 49.07 54.45 49.26 54.15 49.44C53.89 49.59 53.62 49.73 53.35 49.85C53.08 49.97 52.79 50.08 52.5 50.17C51.75 50.4 50.95 50.53 50.1 50.53C49.25 50.53 48.45 50.4 47.7 50.17C47.41 50.08 47.13 49.97 46.85 49.85C46.57 49.73 46.31 49.59 46.05 49.44C45.75 49.27 45.46 49.07 45.19 48.86L37.78 53.09L36.51 53.82L35.24 54.55L34.92 54.73C34.3 55.08 33.92 55.74 33.92 56.45V58.26C33.92 60.31 35.34 62.02 37.25 62.48C37.62 61.65 38.1 60.84 38.67 60.07C38.87 59.8 39.23 59.68 39.56 59.77L40.53 60.05C40.78 59.78 41.04 59.52 41.31 59.27L41.03 58.3C40.94 57.97 41.06 57.61 41.33 57.41C42.15 56.8 43.01 56.29 43.89 55.91C44.2 55.77 44.57 55.85 44.81 56.09L45.53 56.84C45.88 56.73 46.23 56.63 46.58 56.56L46.83 55.57C46.91 55.24 47.2 54.99 47.54 54.95C48.08 54.89 48.57 54.86 49.02 54.86C49.47 54.86 49.96 54.89 50.51 54.95C50.85 54.99 51.13 55.24 51.22 55.57L51.47 56.56C51.82 56.64 52.18 56.73 52.52 56.84L53.24 56.1C53.48 55.85 53.85 55.78 54.17 55.92C55.05 56.3 55.91 56.81 56.73 57.42C57 57.62 57.13 57.98 57.03 58.31L56.75 59.28C57.02 59.53 57.28 59.79 57.53 60.06L58.5 59.78C58.83 59.69 59.19 59.81 59.39 60.08C59.99 60.89 60.49 61.74 60.87 62.61H61.91C64.31 62.61 66.26 60.66 66.26 58.26V56.45C66.26 55.74 65.88 55.08 65.26 54.73H65.28Z" fill="#FCCD2A"/>
  <path d="M60.48 66.89L59.53 66.65C59.21 66.57 58.97 66.31 58.92 65.99C58.82 65.45 58.68 64.91 58.49 64.39C58.45 64.28 58.44 64.17 58.44 64.06C58.45 63.86 58.54 63.66 58.69 63.52L58.88 63.34L59.4 62.84C59.36 62.77 59.33 62.69 59.29 62.62C59.06 62.17 58.8 61.73 58.5 61.3L57.57 61.57C57.26 61.66 56.93 61.56 56.72 61.31C56.36 60.88 55.96 60.48 55.54 60.13C55.29 59.92 55.19 59.59 55.28 59.27L55.55 58.34C55.05 57.99 54.53 57.69 54.01 57.44L53.32 58.15C53.09 58.38 52.75 58.46 52.45 58.35C51.93 58.16 51.39 58.02 50.85 57.92C50.53 57.86 50.27 57.62 50.19 57.31L49.95 56.36C49.31 56.31 48.8 56.31 48.17 56.36L47.93 57.31C47.85 57.62 47.6 57.86 47.28 57.92C46.74 58.02 46.2 58.16 45.68 58.35C45.37 58.46 45.03 58.38 44.81 58.15L44.12 57.44C43.6 57.69 43.08 58 42.58 58.34L42.85 59.27C42.94 59.58 42.84 59.92 42.59 60.13C42.17 60.49 41.77 60.89 41.41 61.31C41.2 61.56 40.86 61.66 40.55 61.57L39.62 61.3C39.32 61.73 39.06 62.17 38.83 62.62C38.79 62.69 38.75 62.77 38.72 62.84L39.24 63.34L39.43 63.52C39.58 63.66 39.67 63.86 39.68 64.06C39.68 64.17 39.68 64.28 39.64 64.39C39.45 64.92 39.31 65.45 39.21 66C39.15 66.32 38.91 66.58 38.6 66.66L37.65 66.9C37.62 67.22 37.61 67.51 37.61 67.79C37.61 68.07 37.62 68.36 37.65 68.68L38.6 68.92C38.91 69 39.15 69.26 39.21 69.57C39.31 70.11 39.45 70.65 39.64 71.18C39.75 71.48 39.67 71.83 39.44 72.05L38.73 72.74C38.98 73.26 39.29 73.78 39.63 74.28L40.56 74.01C40.87 73.92 41.21 74.02 41.42 74.27C41.78 74.69 42.17 75.09 42.6 75.45C42.85 75.66 42.95 76 42.86 76.31L42.59 77.24C43.09 77.59 43.61 77.89 44.13 78.14L44.82 77.43C45.04 77.2 45.38 77.12 45.69 77.23C46.22 77.42 46.76 77.56 47.3 77.66C47.62 77.72 47.88 77.96 47.96 78.28L48.2 79.23C48.84 79.28 49.35 79.28 49.98 79.23L50.22 78.28C50.3 77.96 50.56 77.72 50.88 77.67C51.42 77.57 51.96 77.43 52.48 77.24C52.79 77.13 53.13 77.21 53.35 77.44L54.04 78.15C54.56 77.9 55.08 77.59 55.58 77.25L55.31 76.32C55.22 76.01 55.32 75.67 55.57 75.46C56 75.1 56.39 74.7 56.75 74.28C56.96 74.03 57.3 73.93 57.61 74.02L58.54 74.29C58.89 73.79 59.19 73.27 59.44 72.75L58.73 72.06C58.5 71.83 58.42 71.49 58.53 71.19C58.72 70.67 58.86 70.13 58.96 69.59C59.02 69.27 59.26 69.01 59.57 68.93L60.52 68.69C60.55 68.37 60.56 68.08 60.56 67.8C60.56 67.52 60.55 67.22 60.52 66.91L60.48 66.89ZM49.04 74.36C45.41 74.36 42.46 71.41 42.46 67.78C42.46 66.4 42.89 65.12 43.62 64.06C43.8 63.8 43.99 63.56 44.2 63.33C44.44 63.07 44.7 62.83 44.98 62.6C46.1 61.72 47.51 61.19 49.05 61.19C50.59 61.19 52 61.72 53.12 62.6C53.4 62.82 53.66 63.06 53.9 63.33C54.11 63.56 54.3 63.8 54.48 64.06C55.21 65.12 55.64 66.4 55.64 67.78C55.64 71.41 52.69 74.36 49.06 74.36H49.04Z" fill="#3C8645"/>
  <path d="M87.86 50.14C87.86 50.05 87.86 49.96 87.86 49.87C87.9 48.3 88.46 46.88 89.8 44.08L89.83 44.01C90.81 41.98 91.81 39.89 91.81 37.98C91.81 37.46 91.74 36.96 91.59 36.51C90.86 34.28 88.74 33.01 85.59 31.32C83.04 29.96 81.82 29.22 80.91 28.14C80.75 27.95 80.61 27.76 80.47 27.55C79.68 26.31 79.33 24.91 78.8 22.04L78.78 21.94C78.15 18.46 77.6 16.07 75.73 14.71C74.76 14 73.58 13.69 71.91 13.69C70.64 13.69 69.28 13.87 67.96 14.05C66.59 14.24 65.16 14.42 64.05 14.42C63.31 14.42 62.69 14.35 62.09 14.19C61.83 14.12 61.57 14.03 61.32 13.92C60.05 13.37 58.95 12.43 56.96 10.51C54.38 8.02002 52.5 6.39001 50.1 6.39001C47.51 6.39001 45.24 8.58002 43.23 10.51C41.11 12.55 40.15 13.37 38.94 13.89C38.69 14 38.43 14.09 38.17 14.16C37.55 14.33 36.89 14.41 36.11 14.41C34.98 14.41 33.61 14.24 32.2 14.05C30.89 13.87 29.53 13.69 28.27 13.69C26.6 13.69 25.42 14.01 24.45 14.72C22.58 16.08 22.02 18.47 21.39 21.96C20.87 24.86 20.53 26.27 19.76 27.49C19.62 27.7 19.47 27.91 19.31 28.1C18.39 29.21 17.18 29.95 14.64 31.31L14.58 31.34C11.43 33.02 9.32 34.29 8.59 36.52C8.44 36.98 8.37 37.47 8.37 37.99C8.37 39.89 9.33 41.89 10.35 44.01C11.69 46.78 12.29 48.29 12.33 49.87C12.33 49.96 12.33 50.05 12.33 50.14C12.29 51.71 11.72 53.14 10.38 55.95L10.35 56.02C9.38 58.04 8.38 60.12 8.38 62.02C8.38 62.54 8.45 63.03 8.6 63.47C9.33 65.72 11.45 66.98 14.59 68.67C14.59 68.67 14.62 68.68 14.62 68.69C17.15 70.04 18.35 70.78 19.25 71.83C19.43 72.03 19.59 72.25 19.73 72.48C20.52 73.72 20.87 75.14 21.4 78.06C22.03 81.55 22.58 83.94 24.45 85.3C25.42 86.01 26.6 86.32 28.28 86.32C29.54 86.32 30.9 86.14 32.21 85.96H32.25C33.61 85.77 35.02 85.59 36.14 85.59C36.89 85.59 37.52 85.67 38.13 85.83C38.37 85.9 38.61 85.98 38.84 86.08C40.12 86.62 41.22 87.57 43.22 89.49C45.23 91.43 47.5 93.62 50.09 93.62C52.49 93.62 54.37 91.99 56.96 89.49C59.08 87.45 60.04 86.63 61.25 86.11C61.48 86.01 61.73 85.92 61.97 85.86C62.61 85.68 63.27 85.6 64.06 85.6C65.19 85.6 66.58 85.77 67.91 85.95H67.97C69.28 86.13 70.64 86.32 71.9 86.32C73.57 86.32 74.75 86 75.73 85.29C77.6 83.93 78.15 81.54 78.78 78.05C79.3 75.15 79.64 73.74 80.4 72.53C80.54 72.31 80.7 72.09 80.87 71.89C81.79 70.8 83 70.06 85.53 68.7L85.57 68.68C88.02 67.38 90.79 65.9 91.57 63.48C91.72 63.03 91.79 62.54 91.79 62.02C91.79 60.12 90.83 58.12 89.81 56.01C88.47 53.22 87.87 51.72 87.83 50.14H87.86ZM81.26 48.75C81.26 51.95 78.66 54.55 75.46 54.55H67.14C67.51 55.11 67.72 55.76 67.72 56.45V58.26C67.72 61.46 65.12 64.06 61.92 64.06H60.2L59.97 64.28C60.08 64.63 60.18 64.98 60.25 65.33L61.24 65.58C61.57 65.67 61.82 65.95 61.86 66.29C61.92 66.83 61.95 67.32 61.95 67.77C61.95 68.22 61.92 68.72 61.86 69.26C61.82 69.6 61.57 69.88 61.24 69.97L60.25 70.22C60.17 70.57 60.08 70.93 59.97 71.27L60.71 71.99C60.95 72.23 61.03 72.6 60.9 72.91C60.52 73.79 60.01 74.66 59.4 75.48C59.2 75.75 58.84 75.88 58.51 75.78L57.54 75.5C57.29 75.77 57.03 76.03 56.76 76.28L57.04 77.25C57.13 77.58 57.01 77.94 56.74 78.14C55.92 78.75 55.06 79.25 54.18 79.64C53.87 79.78 53.49 79.7 53.25 79.45L52.53 78.71C52.18 78.82 51.83 78.92 51.48 78.99L51.23 79.98C51.15 80.31 50.86 80.56 50.52 80.6C49.98 80.66 49.49 80.69 49.03 80.69C48.57 80.69 48.09 80.66 47.54 80.6C47.2 80.56 46.92 80.31 46.83 79.98L46.58 78.99C46.23 78.91 45.87 78.82 45.53 78.71L44.81 79.45C44.57 79.7 44.2 79.77 43.88 79.63C43 79.25 42.14 78.74 41.32 78.13C41.05 77.93 40.92 77.57 41.02 77.24L41.3 76.27C41.03 76.02 40.77 75.76 40.52 75.49L39.55 75.77C39.22 75.87 38.86 75.74 38.66 75.47C38.05 74.65 37.54 73.79 37.16 72.91C37.02 72.59 37.1 72.22 37.34 71.98L38.08 71.26C37.97 70.91 37.87 70.56 37.8 70.21L36.81 69.96C36.48 69.88 36.23 69.59 36.19 69.25C36.13 68.71 36.1 68.22 36.1 67.76C36.1 67.3 36.13 66.82 36.19 66.27C36.23 65.93 36.48 65.65 36.81 65.56L37.8 65.31C37.88 64.96 37.97 64.6 38.08 64.26L37.83 64.01C34.83 63.79 32.45 61.29 32.45 58.23V56.42C32.45 55.73 32.66 55.07 33.03 54.52H24.71C21.51 54.52 18.91 51.92 18.91 48.72V46.92C18.91 45.68 19.58 44.53 20.65 43.92L30.49 38.3C28.49 36.17 27.36 33.08 27.36 30.13V28.44C27.36 24.21 29.76 19.26 36.54 19.26C43.32 19.26 45.72 24.2 45.72 28.44V29.64C46.97 29.07 48.44 28.78 50.07 28.78C51.79 28.78 53.23 29.1 54.42 29.65V28.45C54.42 27.15 54.66 24.65 56.26 22.52C57.85 20.4 60.39 19.27 63.6 19.27C70.37 19.27 72.78 24.21 72.78 28.45V30.14C72.78 33.1 71.66 36.19 69.65 38.31L79.5 43.94C80.57 44.55 81.23 45.69 81.23 46.92V48.73L81.26 48.75Z" fill="white"/>
  <path d="M71.36 28.47C71.36 26.66 70.8 20.74 63.63 20.74C56.46 20.74 55.9 26.65 55.9 28.47V30.16C55.9 30.29 55.9 30.41 55.9 30.54C58.28 32.34 59.24 35.24 59.26 37.88C59.26 37.9 59.26 37.92 59.26 37.94C59.55 38.18 59.86 38.41 60.18 38.6C60.7 38.91 61.25 39.16 61.85 39.33C62.41 39.48 63 39.57 63.62 39.57C64.18 39.57 64.74 39.49 65.29 39.33C65.86 39.17 66.43 38.92 66.97 38.6C67.33 38.39 67.67 38.15 68 37.87C69.93 36.27 71.34 33.6 71.34 30.14V28.45L71.36 28.47Z" fill="white"/>
  <path d="M44.28 30.53C44.28 30.41 44.28 30.29 44.28 30.16V28.47C44.28 26.66 43.72 20.74 36.55 20.74C29.38 20.74 28.82 26.65 28.82 28.47V30.16C28.82 33.04 30.02 36.06 32.11 37.88C32.42 38.15 32.75 38.39 33.1 38.61C33.62 38.92 34.17 39.17 34.77 39.34C35.33 39.49 35.92 39.58 36.54 39.58C37.1 39.58 37.66 39.5 38.21 39.34C38.78 39.18 39.35 38.93 39.89 38.61C40.23 38.41 40.57 38.17 40.89 37.91V37.89C40.9 36.57 41.16 34.14 42.72 32.05C43.16 31.47 43.67 30.96 44.25 30.53H44.28Z" fill="white"/>
  <path d="M57.64 36.07C57.44 35.05 57.04 33.87 56.25 32.84C55.99 32.5 55.67 32.17 55.32 31.87C55.08 31.67 54.81 31.48 54.52 31.31C53.44 30.67 52.01 30.25 50.11 30.25C48.21 30.25 46.78 30.67 45.7 31.31C45.41 31.48 45.14 31.67 44.9 31.87C44.56 32.15 44.26 32.46 44.01 32.78C43.17 33.84 42.76 35.07 42.56 36.12C42.46 36.64 42.41 37.12 42.39 37.51C42.39 37.69 42.38 37.85 42.38 37.98V39.67C42.38 39.74 42.38 39.8 42.38 39.87C42.43 42.69 43.62 45.62 45.67 47.39C45.78 47.48 45.89 47.58 46 47.66C46.21 47.82 46.43 47.97 46.66 48.11C46.68 48.12 46.7 48.14 46.73 48.15C46.96 48.29 47.21 48.41 47.46 48.52C47.74 48.64 48.03 48.75 48.34 48.83C48.9 48.98 49.49 49.07 50.11 49.07C50.67 49.07 51.23 48.99 51.78 48.83C52.11 48.74 52.43 48.62 52.75 48.47C52.99 48.36 53.23 48.24 53.46 48.1C53.46 48.1 53.47 48.1 53.48 48.1C53.73 47.95 53.97 47.79 54.21 47.61C54.31 47.54 54.4 47.46 54.5 47.38C56.39 45.81 57.78 43.21 57.83 39.86C57.83 39.79 57.83 39.73 57.83 39.66V37.97C57.83 37.84 57.83 37.68 57.82 37.5C57.8 37.1 57.75 36.61 57.65 36.07H57.64Z" fill="white"/>
  <path d="M51.6 63.33C50.85 62.9 49.98 62.64 49.05 62.64C48.12 62.64 47.25 62.89 46.5 63.33C46.15 63.53 45.82 63.78 45.53 64.06C44.54 65 43.92 66.32 43.92 67.78C43.92 70.61 46.22 72.91 49.05 72.91C51.88 72.91 54.18 70.61 54.18 67.78C54.18 66.32 53.56 65 52.57 64.06C52.28 63.78 51.95 63.54 51.6 63.33Z" fill="white"/>
  <path d="M94.24 50C94.28 49.51 95.2 47.57 95.55 46.84L95.59 46.77C96.81 44.23 98.2 41.35 98.2 37.99C98.2 36.8 98.02 35.64 97.67 34.55C96.09 29.7 91.94 27.48 88.6 25.7C88 25.38 86.19 24.42 85.82 24.06C85.58 23.59 85.23 21.65 85.09 20.9L85.07 20.81C84.41 17.12 83.58 12.54 79.49 9.56C75.43 6.61 70.81 7.23 67.1 7.73C66.4 7.82 64.32 8.11 63.79 8.03C63.47 7.86 62.67 7.14 61.39 5.91C58.65 3.28 55.25 0 50.1 0C44.95 0 41.39 3.41 38.79 5.92C38.26 6.43 36.87 7.76 36.43 8.02C35.88 8.11 33.77 7.82 33.06 7.73C29.36 7.23 24.75 6.61 20.69 9.56C16.61 12.53 15.78 17.13 15.11 20.83C14.99 21.52 14.62 23.57 14.39 24.04C14.01 24.41 12.24 25.36 11.64 25.68L11.58 25.71C8.24999 27.49 4.09999 29.71 2.52999 34.55C2.16999 35.65 1.98999 36.81 1.98999 37.99C1.98999 41.34 3.37999 44.23 4.59999 46.78C5.46999 48.58 5.91999 49.67 5.94999 50.01C5.90999 50.51 4.97999 52.46 4.61999 53.2L4.58999 53.27C3.36999 55.8 1.98999 58.68 1.98999 62.03C1.98999 63.23 2.16999 64.38 2.52999 65.47C4.09999 70.32 8.24999 72.53 11.61 74.32C12.27 74.68 14 75.6 14.38 75.95C14.63 76.44 15 78.5 15.13 79.19C15.79 82.88 16.62 87.48 20.71 90.45C24.76 93.39 29.37 92.78 33.09 92.28H33.13C33.83 92.18 35.9 91.9 36.42 91.98C36.89 92.23 38.33 93.62 38.81 94.08C41.4 96.58 44.94 100 50.11 100C55.28 100 58.67 96.72 61.41 94.08C61.94 93.57 63.33 92.23 63.76 91.99C64.3 91.9 66.38 92.18 67.08 92.27H67.15C70.85 92.78 75.45 93.39 79.51 90.45C83.59 87.48 84.42 82.88 85.09 79.18C85.21 78.49 85.58 76.44 85.81 75.97C86.19 75.6 87.92 74.68 88.58 74.32L88.62 74.3C91.78 72.62 96.1 70.31 97.68 65.45C98.03 64.36 98.21 63.21 98.21 62.01C98.21 58.65 96.82 55.77 95.59 53.21C95.27 52.54 94.29 50.51 94.25 50H94.24ZM96.28 65C94.88 69.31 90.86 71.45 87.92 73.02L87.88 73.04C86.08 74 85.04 74.61 84.65 75.07C84.63 75.1 84.61 75.12 84.59 75.15C84.28 75.65 84.02 76.86 83.65 78.92C83.03 82.36 82.25 86.65 78.64 89.27C75.06 91.87 70.77 91.3 67.33 90.84H67.27C65.23 90.56 63.92 90.43 63.32 90.6C63.29 90.6 63.26 90.62 63.23 90.63C62.73 90.85 61.85 91.64 60.4 93.03C57.85 95.48 54.68 98.54 50.11 98.54C45.54 98.54 42.22 95.36 39.81 93.03C38.4 91.67 37.48 90.84 36.93 90.61C36.9 90.6 36.87 90.59 36.84 90.58C36.67 90.53 36.43 90.51 36.14 90.51C35.44 90.51 34.39 90.63 32.93 90.83H32.88C29.43 91.3 25.14 91.87 21.56 89.27C17.95 86.64 17.18 82.36 16.56 78.92C16.18 76.85 15.92 75.63 15.59 75.11C15.57 75.08 15.55 75.05 15.53 75.03C15.15 74.59 14.11 73.99 12.29 73.01C9.18999 71.35 5.32999 69.29 3.92999 65C3.61999 64.06 3.46999 63.05 3.46999 62.01C3.46999 58.98 4.76999 56.27 5.91999 53.88L5.94999 53.81C6.88999 51.84 7.40999 50.65 7.41999 50.01C7.41999 50 7.41999 49.99 7.41999 49.98C7.39999 49.32 6.85999 48.07 5.92999 46.14C4.76999 43.73 3.46999 41 3.46999 37.98C3.46999 36.95 3.62999 35.94 3.92999 34.98C5.31999 30.69 9.17999 28.63 12.29 26.97L12.35 26.94C14.09 26.01 15.17 25.38 15.56 24.92C15.58 24.9 15.6 24.87 15.62 24.84C15.94 24.34 16.21 23.08 16.57 21.07C17.19 17.63 17.97 13.35 21.58 10.72C25.17 8.11 29.45 8.69 32.9 9.15C35.02 9.44 36.29 9.56 36.9 9.39C36.93 9.39 36.97 9.37 37 9.36C37.51 9.14 38.38 8.35 39.84 6.95C42.25 4.63 45.56 1.45 50.13 1.45C54.7 1.45 57.87 4.5 60.41 6.95C61.82 8.31 62.74 9.14 63.29 9.38C63.32 9.39 63.36 9.41 63.39 9.41C63.97 9.56 65.22 9.44 67.32 9.16C70.78 8.69 75.08 8.11 78.66 10.72C82.27 13.35 83.04 17.62 83.66 21.05L83.68 21.14C83.99 22.84 84.28 24.3 84.64 24.87C84.66 24.9 84.68 24.92 84.7 24.95C85.08 25.4 86.13 26 87.94 26.97C91.04 28.63 94.91 30.7 96.31 34.99C96.62 35.94 96.77 36.94 96.77 37.98C96.77 41.01 95.46 43.73 94.3 46.13L94.26 46.21C93.33 48.16 92.82 49.33 92.8 49.98C92.8 49.99 92.8 50 92.8 50.01C92.82 50.66 93.36 51.91 94.29 53.85C95.45 56.25 96.75 58.97 96.75 62C96.75 63.04 96.59 64.04 96.29 64.99L96.28 65Z" fill="#0E1721"/>
  <path d="M89.31 50.0999C89.31 50.0299 89.31 49.9699 89.31 49.8999C89.34 48.5999 89.87 47.2999 91.11 44.7099L91.14 44.6399C92.18 42.4699 93.26 40.2299 93.26 37.9899C93.26 37.3199 93.16 36.6699 92.97 36.0699C92.08 33.3199 89.74 31.8999 86.27 30.0499C83.89 28.7799 82.77 28.1099 82.02 27.2099C81.9 27.0699 81.79 26.9199 81.7 26.7699C81.04 25.7399 80.73 24.4599 80.24 21.7899L80.22 21.6899C79.53 17.8599 78.91 15.2299 76.59 13.5399C75.35 12.6399 73.91 12.2399 71.91 12.2399C70.54 12.2399 69.13 12.4299 67.76 12.6199C66.44 12.7999 65.07 12.9699 64.04 12.9699C63.43 12.9699 62.93 12.9099 62.46 12.7799C62.27 12.7299 62.07 12.6599 61.89 12.5799C60.83 12.1199 59.82 11.2499 57.97 9.45994C55.13 6.72994 53.05 4.93994 50.1 4.93994C46.93 4.93994 44.43 7.34994 42.22 9.46994C40.24 11.3699 39.36 12.1299 38.36 12.5599C38.17 12.6399 37.98 12.7099 37.79 12.7599C37.29 12.8999 36.76 12.9599 36.12 12.9599C35.08 12.9599 33.77 12.7999 32.4 12.6099C31.04 12.4299 29.63 12.2399 28.27 12.2399C26.28 12.2399 24.83 12.6399 23.6 13.5399C21.29 15.2199 20.66 17.8599 19.97 21.6999C19.48 24.4099 19.18 25.6999 18.54 26.7099C18.44 26.8699 18.33 27.0199 18.21 27.1599C17.44 28.0799 16.33 28.7599 13.97 30.0199L13.91 30.0499C10.45 31.8999 8.11999 33.3199 7.21999 36.0699C7.01999 36.6699 6.92999 37.3199 6.92999 37.9899C6.92999 40.2199 7.95999 42.3599 9.04999 44.6399C10.29 47.2099 10.85 48.5899 10.88 49.8999C10.88 49.9699 10.88 50.0299 10.88 50.0999C10.85 51.4099 10.32 52.7099 9.06999 55.3199L9.03999 55.3899C7.99999 57.5499 6.92999 59.7899 6.92999 62.0199C6.92999 62.6899 7.02999 63.3299 7.21999 63.9199C8.11999 66.6799 10.45 68.0999 13.91 69.9399L13.94 69.9499C16.3 71.2099 17.41 71.8799 18.16 72.7599C18.29 72.9099 18.41 73.0799 18.52 73.2499C19.18 74.2799 19.49 75.5899 19.98 78.3099C20.67 82.1399 21.3 84.7799 23.61 86.4699C24.85 87.3699 26.29 87.7699 28.29 87.7699C29.65 87.7699 31.05 87.5799 32.41 87.3999H32.45C33.76 87.2199 35.12 87.0399 36.15 87.0399C36.77 87.0399 37.28 87.0999 37.76 87.2299C37.94 87.2799 38.12 87.3399 38.29 87.4099C39.36 87.8599 40.37 88.7399 42.22 90.5299C44.42 92.6599 46.92 95.0599 50.1 95.0599C53.05 95.0599 55.13 93.2599 57.98 90.5299C59.96 88.6299 60.84 87.8699 61.84 87.4399C62.01 87.3699 62.19 87.2999 62.37 87.2499C62.87 87.1099 63.41 87.0399 64.07 87.0399C65.11 87.0399 66.45 87.2099 67.73 87.3799H67.79C69.15 87.5699 70.56 87.7599 71.91 87.7599C73.91 87.7599 75.35 87.3599 76.59 86.4599C78.9 84.7799 79.52 82.1399 80.22 78.2999C80.71 75.5899 81.01 74.2999 81.64 73.2899C81.74 73.1199 81.86 72.9599 81.99 72.8099C82.76 71.9099 83.87 71.2299 86.23 69.9599L86.27 69.9399C88.96 68.5099 92 66.8799 92.97 63.9099C93.16 63.3199 93.26 62.6699 93.26 61.9999C93.26 59.7699 92.23 57.6299 91.13 55.3399C89.89 52.7699 89.34 51.3999 89.3 50.0899L89.31 50.0999ZM91.59 63.4799C90.8 65.8999 88.03 67.3699 85.59 68.6799L85.55 68.6999C83.01 70.0599 81.8 70.7999 80.89 71.8899C80.72 72.0899 80.56 72.3099 80.42 72.5299C79.66 73.7399 79.32 75.1499 78.8 78.0499C78.17 81.5399 77.61 83.9299 75.75 85.2899C74.77 85.9999 73.59 86.3199 71.92 86.3199C70.66 86.3199 69.3 86.1399 67.99 85.9599H67.93C66.6 85.7699 65.21 85.5999 64.08 85.5999C63.29 85.5999 62.62 85.6799 61.99 85.8599C61.75 85.9299 61.51 86.0099 61.27 86.1099C60.06 86.6299 59.1 87.4499 56.98 89.4899C54.39 91.9799 52.51 93.6199 50.11 93.6199C47.52 93.6199 45.24 91.4299 43.24 89.4899C41.25 87.5699 40.14 86.6199 38.86 86.0799C38.63 85.9799 38.39 85.8999 38.15 85.8299C37.54 85.6599 36.91 85.5899 36.16 85.5899C35.04 85.5899 33.63 85.7699 32.27 85.9499H32.23C30.92 86.1299 29.56 86.3099 28.3 86.3099C26.63 86.3099 25.45 85.9899 24.47 85.2899C22.6 83.9199 22.04 81.5399 21.42 78.0499C20.89 75.1299 20.54 73.7099 19.75 72.4699C19.6 72.2399 19.44 72.0199 19.27 71.8199C18.37 70.7699 17.17 70.0299 14.64 68.6799C14.64 68.6799 14.61 68.6699 14.61 68.6599C11.46 66.9799 9.34999 65.7099 8.61999 63.4599C8.46999 63.0199 8.39999 62.5299 8.39999 62.0099C8.39999 60.1099 9.39999 58.0299 10.37 56.0099L10.4 55.9399C11.75 53.1299 12.32 51.6999 12.35 50.1299C12.35 50.0399 12.35 49.9499 12.35 49.8599C12.31 48.2699 11.71 46.7699 10.37 43.9999C9.34999 41.8799 8.38999 39.8799 8.38999 37.9799C8.38999 37.4599 8.46999 36.9699 8.60999 36.5099C9.32999 34.2799 11.45 33.0099 14.6 31.3299L14.66 31.2999C17.19 29.9499 18.4 29.1999 19.33 28.0899C19.49 27.8999 19.64 27.6899 19.78 27.4799C20.55 26.2599 20.89 24.8499 21.41 21.9499C22.04 18.4599 22.59 16.0699 24.47 14.7099C25.44 13.9999 26.62 13.6799 28.29 13.6799C29.55 13.6799 30.91 13.8599 32.22 14.0399C33.63 14.2299 35 14.3999 36.13 14.3999C36.91 14.3999 37.56 14.3199 38.19 14.1499C38.45 14.0799 38.71 13.9899 38.96 13.8799C40.16 13.3599 41.13 12.5399 43.25 10.4999C45.26 8.56994 47.53 6.37994 50.12 6.37994C52.52 6.37994 54.39 8.00994 56.98 10.4999C58.97 12.4199 60.07 13.3599 61.34 13.9099C61.59 14.0199 61.85 14.1099 62.11 14.1799C62.71 14.3399 63.33 14.4099 64.07 14.4099C65.19 14.4099 66.61 14.2299 67.98 14.0399C69.3 13.8599 70.67 13.6799 71.93 13.6799C73.6 13.6799 74.78 13.9999 75.75 14.6999C77.62 16.0599 78.18 18.4499 78.8 21.9299L78.82 22.0299C79.34 24.8999 79.69 26.2999 80.49 27.5399C80.62 27.7499 80.77 27.9399 80.93 28.1299C81.84 29.2099 83.06 29.9499 85.61 31.3099C88.76 32.9999 90.88 34.2699 91.61 36.4999C91.76 36.9499 91.83 37.4499 91.83 37.9699C91.83 39.8799 90.82 41.9699 89.85 43.9999L89.82 44.0699C88.48 46.8599 87.92 48.2799 87.88 49.8599C87.88 49.9499 87.88 50.0399 87.88 50.1299C87.92 51.7099 88.52 53.2099 89.86 55.9999C90.88 58.1099 91.84 60.1099 91.84 62.0099C91.84 62.5299 91.77 63.0199 91.62 63.4699L91.59 63.4799Z" fill="#0E1721"/>
  <path d="M79.53 43.96L69.68 38.33C71.68 36.2 72.81 33.11 72.81 30.16V28.47C72.81 24.24 70.41 19.29 63.63 19.29C60.42 19.29 57.88 20.41 56.29 22.54C54.69 24.67 54.45 27.17 54.45 28.47V29.67C53.26 29.12 51.82 28.8 50.1 28.8C48.38 28.8 47 29.09 45.75 29.66V28.46C45.75 24.23 43.35 19.28 36.57 19.28C29.79 19.28 27.39 24.22 27.39 28.46V30.15C27.39 33.11 28.51 36.2 30.52 38.32L20.68 43.94C19.61 44.55 18.94 45.7 18.94 46.94V48.74C18.94 51.94 21.54 54.54 24.74 54.54H33.06C32.69 55.1 32.48 55.75 32.48 56.44V58.25C32.48 61.31 34.86 63.81 37.86 64.03L38.11 64.28C38 64.63 37.9 64.98 37.83 65.33L36.84 65.58C36.51 65.66 36.26 65.95 36.22 66.29C36.16 66.83 36.13 67.32 36.13 67.78C36.13 68.24 36.16 68.72 36.22 69.27C36.26 69.61 36.51 69.9 36.84 69.98L37.83 70.23C37.91 70.58 38 70.94 38.11 71.28L37.37 72C37.12 72.24 37.05 72.61 37.19 72.93C37.57 73.81 38.08 74.67 38.69 75.49C38.89 75.77 39.25 75.89 39.58 75.79L40.55 75.51C40.8 75.78 41.06 76.04 41.33 76.29L41.05 77.26C40.96 77.59 41.08 77.95 41.35 78.15C42.17 78.76 43.03 79.27 43.91 79.65C44.22 79.79 44.6 79.71 44.84 79.47L45.56 78.73C45.91 78.84 46.26 78.94 46.61 79.01L46.86 80C46.94 80.33 47.23 80.58 47.57 80.62C48.11 80.68 48.6 80.71 49.06 80.71C49.52 80.71 50 80.68 50.55 80.62C50.89 80.58 51.17 80.33 51.26 80L51.51 79.01C51.86 78.93 52.22 78.84 52.56 78.73L53.28 79.47C53.52 79.72 53.89 79.79 54.21 79.66C55.09 79.28 55.95 78.77 56.77 78.16C57.04 77.96 57.17 77.6 57.07 77.27L56.79 76.3C57.06 76.05 57.32 75.79 57.57 75.52L58.54 75.8C58.87 75.89 59.23 75.77 59.43 75.5C60.04 74.68 60.55 73.82 60.93 72.93C61.06 72.62 60.99 72.24 60.74 72.01L60 71.29C60.11 70.94 60.21 70.59 60.28 70.24L61.27 69.99C61.6 69.91 61.85 69.62 61.89 69.28C61.95 68.74 61.98 68.25 61.98 67.79C61.98 67.33 61.95 66.84 61.89 66.31C61.85 65.97 61.6 65.69 61.27 65.6L60.28 65.35C60.2 65 60.11 64.64 60 64.3L60.23 64.08H61.95C65.15 64.08 67.75 61.48 67.75 58.28V56.47C67.75 55.78 67.54 55.12 67.17 54.57H75.49C78.69 54.57 81.29 51.97 81.29 48.77V46.96C81.29 45.73 80.63 44.59 79.56 43.98L79.53 43.96ZM55.9 28.47C55.9 26.66 56.46 20.74 63.63 20.74C70.8 20.74 71.36 26.65 71.36 28.47V30.16C71.36 33.61 69.95 36.28 68.02 37.89C67.69 38.16 67.34 38.41 66.99 38.62C66.45 38.94 65.88 39.18 65.31 39.35C64.75 39.51 64.19 39.59 63.64 39.59C63.02 39.59 62.43 39.51 61.87 39.35C61.27 39.19 60.72 38.94 60.2 38.62C59.88 38.42 59.57 38.2 59.28 37.96C59.28 37.94 59.28 37.92 59.28 37.9C59.26 35.25 58.3 32.35 55.92 30.56C55.92 30.43 55.92 30.31 55.92 30.18V28.49L55.9 28.47ZM44.89 31.88C45.13 31.68 45.4 31.49 45.69 31.32C46.77 30.68 48.2 30.26 50.1 30.26C52 30.26 53.43 30.68 54.51 31.32C54.8 31.49 55.07 31.68 55.31 31.88C55.67 32.18 55.98 32.51 56.24 32.85C57.03 33.88 57.44 35.06 57.63 36.08C57.74 36.62 57.78 37.11 57.8 37.51C57.8 37.69 57.81 37.85 57.81 37.98V39.67C57.81 39.74 57.81 39.8 57.81 39.87C57.76 43.22 56.36 45.82 54.48 47.39C54.38 47.47 54.29 47.55 54.19 47.62C53.95 47.8 53.71 47.96 53.46 48.11C53.46 48.11 53.45 48.11 53.44 48.11C53.21 48.25 52.97 48.37 52.73 48.48C52.41 48.62 52.09 48.74 51.76 48.84C51.21 49 50.64 49.08 50.09 49.08C49.47 49.08 48.88 49 48.32 48.84C48.02 48.76 47.73 48.65 47.44 48.53C47.19 48.42 46.95 48.3 46.71 48.16C46.69 48.15 46.66 48.13 46.64 48.12C46.41 47.98 46.19 47.83 45.98 47.67C45.87 47.58 45.75 47.49 45.65 47.4C43.6 45.62 42.41 42.7 42.36 39.88C42.36 39.81 42.36 39.75 42.36 39.68V37.99C42.36 37.86 42.36 37.7 42.37 37.52C42.39 37.13 42.44 36.66 42.54 36.13C42.74 35.08 43.15 33.86 43.99 32.79C44.24 32.47 44.54 32.16 44.88 31.88H44.89ZM28.84 30.16V28.47C28.84 26.66 29.4 20.74 36.57 20.74C43.74 20.74 44.3 26.65 44.3 28.47V30.16C44.3 30.28 44.3 30.41 44.3 30.53C43.72 30.96 43.21 31.47 42.77 32.05C41.21 34.13 40.95 36.56 40.94 37.89V37.91C40.62 38.17 40.28 38.41 39.94 38.61C39.4 38.93 38.83 39.17 38.26 39.34C37.7 39.5 37.14 39.58 36.59 39.58C35.97 39.58 35.38 39.5 34.82 39.34C34.22 39.18 33.67 38.93 33.15 38.61C32.8 38.4 32.47 38.15 32.16 37.88C30.06 36.06 28.87 33.04 28.87 30.16H28.84ZM24.74 53.1C22.34 53.1 20.4 51.15 20.4 48.76V46.96C20.4 46.24 20.79 45.58 21.41 45.22L31.66 39.36C33.02 40.4 34.68 41.03 36.57 41.03C38.22 41.03 39.68 40.55 40.93 39.75C40.95 42.68 42.07 45.74 44.06 47.85L34.86 53.11H24.74V53.1ZM60.48 66.89C60.51 67.21 60.52 67.5 60.52 67.78C60.52 68.06 60.51 68.35 60.48 68.67L59.53 68.91C59.21 68.99 58.97 69.25 58.92 69.57C58.82 70.11 58.68 70.65 58.49 71.17C58.38 71.47 58.46 71.82 58.69 72.04L59.4 72.73C59.15 73.25 58.84 73.77 58.5 74.27L57.57 74C57.26 73.91 56.92 74.01 56.71 74.26C56.35 74.68 55.95 75.08 55.53 75.44C55.28 75.65 55.18 75.98 55.27 76.3L55.54 77.23C55.04 77.58 54.52 77.88 54 78.13L53.31 77.42C53.08 77.19 52.74 77.11 52.44 77.22C51.92 77.41 51.38 77.55 50.84 77.65C50.52 77.71 50.26 77.95 50.18 78.26L49.94 79.21C49.31 79.26 48.79 79.26 48.16 79.21L47.92 78.26C47.84 77.94 47.58 77.7 47.26 77.64C46.72 77.54 46.18 77.4 45.65 77.21C45.34 77.1 45 77.18 44.78 77.41L44.09 78.12C43.57 77.87 43.05 77.57 42.55 77.22L42.82 76.29C42.91 75.98 42.81 75.65 42.56 75.43C42.14 75.07 41.74 74.67 41.38 74.25C41.17 74 40.83 73.9 40.52 73.99L39.59 74.26C39.24 73.76 38.94 73.24 38.69 72.72L39.4 72.03C39.63 71.8 39.71 71.46 39.6 71.16C39.41 70.64 39.27 70.1 39.17 69.55C39.11 69.23 38.87 68.97 38.56 68.9L37.61 68.66C37.58 68.34 37.57 68.05 37.57 67.77C37.57 67.49 37.58 67.2 37.61 66.88L38.56 66.64C38.87 66.56 39.11 66.3 39.17 65.98C39.27 65.44 39.41 64.9 39.6 64.37C39.64 64.26 39.65 64.15 39.64 64.04C39.63 63.84 39.54 63.64 39.39 63.5L39.2 63.32L38.68 62.82C38.72 62.75 38.75 62.67 38.79 62.6C39.02 62.15 39.28 61.71 39.58 61.28L40.51 61.55C40.82 61.64 41.16 61.54 41.37 61.29C41.73 60.87 42.13 60.47 42.55 60.11C42.8 59.9 42.9 59.57 42.81 59.25L42.54 58.32C43.04 57.97 43.56 57.67 44.08 57.42L44.77 58.13C44.99 58.36 45.34 58.44 45.64 58.33C46.16 58.14 46.7 58 47.24 57.9C47.56 57.84 47.82 57.6 47.89 57.29L48.13 56.34C48.77 56.29 49.28 56.29 49.91 56.34L50.15 57.29C50.23 57.6 50.49 57.84 50.81 57.9C51.35 58 51.89 58.14 52.41 58.33C52.72 58.44 53.06 58.36 53.28 58.13L53.97 57.42C54.49 57.67 55.01 57.97 55.51 58.32L55.24 59.25C55.15 59.56 55.25 59.9 55.5 60.11C55.92 60.47 56.32 60.87 56.68 61.29C56.89 61.53 57.22 61.63 57.53 61.55L58.46 61.28C58.76 61.71 59.02 62.15 59.25 62.6C59.29 62.67 59.33 62.75 59.36 62.82L58.84 63.32L58.65 63.5C58.5 63.65 58.41 63.84 58.4 64.04C58.4 64.15 58.4 64.26 58.45 64.37C58.64 64.89 58.78 65.43 58.88 65.97C58.94 66.29 59.18 66.55 59.49 66.63L60.44 66.87L60.48 66.89ZM66.27 58.26C66.27 60.66 64.32 62.61 61.92 62.61H60.88C60.5 61.74 60 60.89 59.4 60.08C59.2 59.81 58.84 59.69 58.51 59.78L57.54 60.06C57.29 59.79 57.03 59.53 56.76 59.28L57.04 58.31C57.13 57.98 57.01 57.62 56.74 57.42C55.92 56.81 55.06 56.3 54.18 55.92C53.87 55.78 53.49 55.86 53.25 56.1L52.53 56.84C52.18 56.73 51.83 56.63 51.48 56.56L51.23 55.57C51.15 55.24 50.86 54.99 50.52 54.95C49.98 54.89 49.49 54.86 49.03 54.86C48.57 54.86 48.09 54.89 47.55 54.95C47.21 54.99 46.92 55.24 46.84 55.57L46.59 56.56C46.24 56.64 45.88 56.73 45.54 56.84L44.82 56.09C44.58 55.85 44.21 55.77 43.9 55.91C43.02 56.29 42.16 56.8 41.34 57.41C41.06 57.61 40.94 57.97 41.04 58.3L41.32 59.27C41.05 59.52 40.79 59.78 40.54 60.05L39.57 59.77C39.24 59.68 38.88 59.8 38.68 60.07C38.1 60.84 37.63 61.65 37.26 62.48C35.35 62.02 33.93 60.3 33.93 58.26V56.45C33.93 55.74 34.31 55.08 34.93 54.73L35.25 54.55L36.52 53.82L37.79 53.09L45.2 48.86C45.48 49.07 45.76 49.26 46.06 49.44C46.32 49.59 46.59 49.73 46.86 49.85C47.13 49.97 47.42 50.08 47.71 50.17C48.46 50.4 49.26 50.53 50.11 50.53C50.96 50.53 51.76 50.4 52.51 50.17C52.8 50.08 53.08 49.97 53.36 49.85C53.64 49.73 53.9 49.59 54.16 49.44C54.46 49.27 54.75 49.07 55.02 48.86L62.43 53.09L63.7 53.82L64.97 54.55L65.29 54.73C65.91 55.08 66.29 55.74 66.29 56.45V58.26H66.27ZM79.81 48.75C79.81 51.15 77.86 53.1 75.46 53.1H65.34L56.14 47.85C58.13 45.74 59.25 42.69 59.27 39.75C60.52 40.55 61.98 41.03 63.63 41.03C65.53 41.03 67.18 40.4 68.54 39.36L78.81 45.23C79.43 45.58 79.81 46.24 79.81 46.95V48.76V48.75Z" fill="#0E1721"/>
  <path d="M53.89 63.3299C53.65 63.0699 53.39 62.8299 53.11 62.5999C51.99 61.7199 50.58 61.1899 49.04 61.1899C47.5 61.1899 46.09 61.7199 44.97 62.5999C44.69 62.8199 44.43 63.0599 44.19 63.3299C43.98 63.5599 43.79 63.7999 43.61 64.0599C42.88 65.1199 42.45 66.3999 42.45 67.7799C42.45 71.4099 45.4 74.3599 49.03 74.3599C52.66 74.3599 55.61 71.4099 55.61 67.7799C55.61 66.3999 55.18 65.1199 54.45 64.0599C54.27 63.7999 54.08 63.5599 53.87 63.3299H53.89ZM49.04 72.9099C46.21 72.9099 43.91 70.6099 43.91 67.7799C43.91 66.3199 44.53 64.9999 45.52 64.0599C45.81 63.7799 46.14 63.5399 46.49 63.3299C47.24 62.8999 48.11 62.6399 49.04 62.6399C49.97 62.6399 50.84 62.8899 51.59 63.3299C51.94 63.5299 52.27 63.7799 52.56 64.0599C53.55 64.9999 54.17 66.3199 54.17 67.7799C54.17 70.6099 51.87 72.9099 49.04 72.9099Z" fill="#0E1721"/>
</svg>
