<svg xmlns="http://www.w3.org/2000/svg" width="100" height="100" viewBox="0 0 100 100" fill="none">
  <path d="M72.35 60.16C72.14 60.16 71.96 60.25 71.83 60.38C71.7 60.51 71.63 60.69 71.63 60.88V72.68H52.21V52.98H63.36C63.57 52.98 63.75 52.89 63.88 52.76C64 52.63 64.08 52.45 64.08 52.26C64.08 51.86 63.76 51.53 63.35 51.53H51.48C51.08 51.53 50.75 51.85 50.75 52.26V53.08L43.17 48.75C45.25 46.56 46.42 43.36 46.42 40.3V38.55C46.42 37.21 46.17 34.63 44.53 32.44C42.89 30.25 40.27 29.09 36.97 29.09C29.99 29.09 27.52 34.18 27.52 38.54V40.29C27.52 43.35 28.69 46.55 30.77 48.74L20.58 54.56C19.48 55.19 18.79 56.37 18.79 57.64V59.5C18.79 62.79 21.47 65.46 24.75 65.46H49.19C49.73 65.46 50.25 65.38 50.75 65.24V73.4C50.75 73.8 51.07 74.13 51.48 74.13H72.35C72.75 74.13 73.08 73.81 73.08 73.4V60.88C73.08 60.48 72.76 60.15 72.35 60.15V60.16ZM28.96 40.3V38.55C28.96 36.67 29.54 30.55 36.96 30.55C44.38 30.55 44.96 36.68 44.96 38.55V40.3C44.96 43.88 43.49 46.65 41.5 48.3C41.17 48.57 40.83 48.81 40.47 49.03C39.95 49.34 39.4 49.58 38.85 49.76C38.22 49.95 37.59 50.05 36.96 50.05C36.26 50.05 35.59 49.94 34.97 49.76C34.4 49.59 33.86 49.34 33.36 49.03C33.01 48.82 32.68 48.57 32.37 48.3C30.19 46.42 28.95 43.28 28.95 40.3H28.96ZM50.75 63.73C50.26 63.91 49.74 64.02 49.19 64.02H24.75C22.26 64.02 20.24 62 20.24 59.51V57.65C20.24 56.9 20.64 56.2 21.3 55.83L31.9 49.77C33.31 50.84 35.01 51.5 36.97 51.5C38.93 51.5 40.64 50.84 42.04 49.77L50.75 54.75V63.73Z" fill="#2D557F"/>
  <path d="M78.96 49.5299L75.2 45.7699C74.92 45.4899 74.46 45.4899 74.17 45.7699L71 48.9399L65.56 54.3799L59.55 60.3899C59.46 60.4799 59.4 60.5899 59.36 60.7199L57.98 65.8599C57.91 66.1099 57.98 66.3799 58.17 66.5599C58.31 66.6999 58.49 66.7699 58.68 66.7699C58.74 66.7699 58.81 66.7699 58.87 66.7499L64.01 65.3699C64.13 65.3399 64.24 65.2699 64.34 65.1799L70.45 59.0699L75.79 53.7299L78.96 50.5599C79.24 50.2799 79.24 49.8199 78.96 49.5299ZM69.4 58.0599L63.44 64.0199L59.7 65.0199L60.7 61.2799L66.6 55.3799L71.51 50.4699L74.25 53.2099L69.4 58.0599ZM75.28 52.1899L72.54 49.4499L74.69 47.2999L77.43 50.0399L75.28 52.1899Z" fill="#2D557F"/>
  <path d="M73.23 34.89L72.4 34.68C72.34 34.4 72.26 34.11 72.17 33.84L72.79 33.24C73.03 33 73.1 32.64 72.97 32.33C72.63 31.54 72.18 30.77 71.63 30.04C71.43 29.77 71.07 29.65 70.75 29.74L69.94 29.97C69.74 29.75 69.53 29.55 69.32 29.35L69.55 28.53C69.64 28.21 69.52 27.85 69.25 27.65C68.52 27.1 67.75 26.65 66.96 26.31C66.65 26.18 66.28 26.25 66.05 26.49L65.45 27.11C65.17 27.02 64.89 26.95 64.61 26.88L64.4 26.05C64.32 25.72 64.04 25.48 63.7 25.44C62.73 25.33 62.01 25.33 61.04 25.44C60.7 25.48 60.43 25.73 60.34 26.05L60.13 26.88C59.85 26.94 59.56 27.02 59.29 27.11L58.69 26.49C58.45 26.25 58.09 26.17 57.78 26.31C56.99 26.65 56.22 27.1 55.49 27.65C55.22 27.85 55.1 28.2 55.19 28.53L55.42 29.34C55.2 29.54 55 29.75 54.8 29.96L53.99 29.73C53.67 29.64 53.31 29.76 53.11 30.03C52.56 30.76 52.11 31.53 51.77 32.32C51.64 32.63 51.71 33 51.95 33.23L52.57 33.83C52.48 34.11 52.41 34.39 52.34 34.67L51.51 34.88C51.18 34.96 50.94 35.24 50.9 35.58C50.84 36.07 50.82 36.5 50.82 36.91C50.82 37.32 50.85 37.75 50.9 38.24C50.94 38.58 51.18 38.86 51.51 38.94L52.34 39.15C52.4 39.43 52.48 39.72 52.57 39.99L51.95 40.59C51.71 40.83 51.64 41.19 51.77 41.5C52.11 42.29 52.56 43.06 53.11 43.79C53.31 44.06 53.67 44.18 53.99 44.09L54.8 43.86C55 44.08 55.21 44.28 55.42 44.48L55.19 45.3C55.1 45.62 55.22 45.98 55.49 46.18C56.22 46.73 56.99 47.18 57.78 47.52C58.09 47.65 58.46 47.58 58.69 47.34L59.29 46.72C59.57 46.81 59.85 46.88 60.13 46.95L60.34 47.78C60.42 48.11 60.7 48.36 61.04 48.39C61.53 48.45 61.96 48.47 62.37 48.47C62.78 48.47 63.21 48.44 63.7 48.39C64.04 48.35 64.32 48.11 64.4 47.78L64.61 46.95C64.89 46.89 65.18 46.81 65.45 46.72L66.05 47.34C66.28 47.58 66.65 47.66 66.96 47.52C67.75 47.18 68.52 46.73 69.25 46.18C69.52 45.98 69.64 45.63 69.55 45.3L69.32 44.49C69.54 44.29 69.74 44.08 69.94 43.87L70.75 44.1C71.07 44.19 71.43 44.07 71.63 43.8C72.18 43.07 72.63 42.3 72.97 41.51C73.1 41.2 73.03 40.83 72.79 40.6L72.17 40C72.26 39.72 72.33 39.44 72.4 39.16L73.23 38.95C73.56 38.87 73.8 38.59 73.84 38.25C73.9 37.76 73.92 37.33 73.92 36.92C73.92 36.51 73.89 36.08 73.84 35.59C73.8 35.25 73.56 34.97 73.23 34.89ZM72.45 37.65L71.66 37.85C71.35 37.93 71.11 38.18 71.06 38.5C70.97 38.98 70.85 39.45 70.68 39.91C70.57 40.21 70.65 40.55 70.88 40.77L71.47 41.34C71.26 41.77 71.02 42.18 70.73 42.59L69.96 42.37C69.65 42.28 69.32 42.38 69.11 42.63C68.79 43 68.44 43.35 68.07 43.67C67.83 43.88 67.73 44.21 67.81 44.51L68.03 45.28C67.62 45.56 67.2 45.81 66.78 46.02L66.21 45.43C65.99 45.2 65.65 45.12 65.35 45.23C64.89 45.4 64.41 45.52 63.94 45.61C63.62 45.67 63.37 45.9 63.29 46.21L63.09 47C62.57 47.04 62.15 47.04 61.64 47L61.44 46.21C61.36 45.9 61.11 45.66 60.79 45.61C60.32 45.52 59.84 45.4 59.38 45.23C59.08 45.12 58.74 45.2 58.52 45.43L57.95 46.02C57.53 45.81 57.11 45.57 56.7 45.29L56.92 44.52C57.01 44.21 56.91 43.88 56.66 43.67C56.29 43.35 55.94 43 55.62 42.63C55.41 42.39 55.08 42.29 54.78 42.38L54.01 42.6C53.73 42.19 53.48 41.77 53.27 41.35L53.86 40.78C54.09 40.56 54.17 40.22 54.06 39.92C53.89 39.46 53.77 38.99 53.68 38.51C53.62 38.19 53.39 37.94 53.08 37.86L52.29 37.66C52.27 37.4 52.26 37.16 52.26 36.93C52.26 36.7 52.27 36.46 52.29 36.2L53.08 36C53.39 35.92 53.63 35.67 53.68 35.35C53.77 34.87 53.89 34.4 54.06 33.94C54.17 33.64 54.09 33.3 53.86 33.08L53.27 32.51C53.48 32.08 53.72 31.67 54.01 31.26L54.78 31.48C55.09 31.57 55.42 31.47 55.63 31.22C55.95 30.85 56.29 30.5 56.67 30.18C56.92 29.97 57.02 29.64 56.93 29.33L56.71 28.56C57.12 28.28 57.54 28.03 57.96 27.83L58.53 28.42C58.75 28.65 59.09 28.73 59.39 28.62C59.85 28.45 60.32 28.33 60.8 28.24C61.12 28.18 61.37 27.95 61.45 27.64L61.65 26.85C62.17 26.81 62.59 26.81 63.1 26.85L63.3 27.64C63.38 27.95 63.63 28.19 63.95 28.24C64.43 28.33 64.9 28.45 65.36 28.62C65.66 28.73 66 28.65 66.22 28.42L66.79 27.83C67.21 28.04 67.63 28.28 68.04 28.56L67.82 29.33C67.73 29.64 67.83 29.97 68.08 30.18C68.45 30.5 68.8 30.84 69.12 31.22C69.33 31.46 69.66 31.56 69.97 31.48L70.74 31.26C71.02 31.67 71.27 32.09 71.48 32.51L70.89 33.08C70.66 33.3 70.58 33.64 70.69 33.94C70.86 34.4 70.98 34.87 71.07 35.35C71.13 35.66 71.36 35.92 71.67 36L72.46 36.2C72.48 36.46 72.49 36.7 72.49 36.93C72.49 37.16 72.48 37.4 72.46 37.66L72.45 37.65Z" fill="#4279B6"/>
  <path d="M62.38 31C59.11 31 56.46 33.66 56.46 36.92C56.46 40.18 59.12 42.84 62.38 42.84C65.64 42.84 68.3 40.18 68.3 36.92C68.3 33.66 65.64 31 62.38 31ZM57.91 36.92C57.91 34.45 59.92 32.45 62.38 32.45C64.84 32.45 66.85 34.46 66.85 36.92C66.85 39.38 64.84 41.39 62.38 41.39C59.92 41.39 57.91 39.38 57.91 36.92Z" fill="#4279B6"/>
  <path d="M94.24 50C94.28 49.51 95.2 47.57 95.55 46.84L95.59 46.77C96.81 44.23 98.2 41.35 98.2 37.99C98.2 36.8 98.02 35.64 97.67 34.55C96.09 29.7 91.94 27.48 88.6 25.7C88 25.38 86.19 24.42 85.82 24.06C85.58 23.59 85.23 21.65 85.09 20.9L85.07 20.81C84.41 17.12 83.58 12.54 79.49 9.56C75.43 6.61 70.81 7.23 67.1 7.73C66.4 7.82 64.32 8.11 63.79 8.03C63.47 7.86 62.67 7.14 61.39 5.91C58.65 3.28 55.25 0 50.1 0C44.95 0 41.39 3.41 38.79 5.92C38.26 6.43 36.87 7.76 36.44 8.02C35.89 8.11 33.78 7.82 33.07 7.73C29.37 7.23 24.76 6.61 20.7 9.56C16.62 12.53 15.79 17.13 15.12 20.83C15 21.52 14.63 23.57 14.4 24.04C14.02 24.41 12.25 25.36 11.66 25.67L11.59 25.71C8.26 27.49 4.11 29.71 2.54 34.55C2.18 35.65 2 36.81 2 37.99C2 41.34 3.39 44.23 4.61 46.78C5.48 48.58 5.93 49.67 5.96 50.01C5.92 50.51 4.99 52.46 4.63 53.2L4.6 53.26C3.38 55.79 2 58.67 2 62.02C2 63.22 2.18 64.37 2.54 65.46C4.11 70.31 8.26 72.52 11.61 74.31C12.28 74.67 14.01 75.59 14.39 75.95C14.64 76.44 15.01 78.5 15.14 79.19C15.81 82.88 16.63 87.48 20.72 90.45C24.77 93.39 29.38 92.78 33.1 92.28H33.14C33.84 92.18 35.91 91.9 36.43 91.98C36.9 92.23 38.34 93.62 38.82 94.08C41.41 96.58 44.95 100 50.12 100C55.29 100 58.68 96.72 61.42 94.08C61.95 93.57 63.34 92.23 63.77 91.99C64.31 91.9 66.39 92.18 67.09 92.27H67.16C70.86 92.77 75.47 93.39 79.52 90.45C83.6 87.48 84.43 82.88 85.1 79.18C85.22 78.49 85.59 76.44 85.82 75.97C86.2 75.6 87.93 74.68 88.59 74.32L88.63 74.3C91.79 72.62 96.11 70.31 97.69 65.45C98.04 64.36 98.22 63.21 98.22 62.01C98.22 58.65 96.83 55.77 95.6 53.21C95.28 52.54 94.3 50.51 94.26 50H94.24ZM96.28 65C94.88 69.31 90.86 71.45 87.92 73.02L87.88 73.04C86.08 74 85.04 74.61 84.65 75.07C84.63 75.1 84.61 75.12 84.59 75.15C84.28 75.65 84.02 76.86 83.65 78.92C83.03 82.36 82.25 86.65 78.64 89.27C75.06 91.87 70.77 91.3 67.33 90.84H67.27C65.23 90.56 63.92 90.43 63.32 90.6C63.29 90.6 63.26 90.62 63.23 90.63C62.72 90.85 61.85 91.64 60.4 93.03C57.85 95.48 54.68 98.54 50.11 98.54C45.54 98.54 42.22 95.36 39.81 93.03C38.4 91.67 37.48 90.84 36.93 90.61C36.9 90.6 36.87 90.59 36.84 90.58C36.67 90.53 36.43 90.51 36.14 90.51C35.44 90.51 34.39 90.63 32.93 90.83H32.88C29.43 91.3 25.14 91.87 21.56 89.27C17.95 86.64 17.18 82.36 16.56 78.92C16.19 76.85 15.92 75.63 15.59 75.11C15.57 75.08 15.55 75.05 15.53 75.03C15.15 74.59 14.11 73.99 12.29 73.01C9.19 71.35 5.33 69.29 3.93 65C3.62 64.06 3.47 63.05 3.47 62.01C3.47 58.99 4.77 56.27 5.92 53.88L5.95 53.81C6.89 51.84 7.41 50.65 7.42 50.01C7.42 50 7.42 49.99 7.42 49.98C7.4 49.32 6.86 48.07 5.93 46.14C4.77 43.73 3.47 41 3.47 37.98C3.47 36.95 3.63 35.94 3.93 34.98C5.32 30.69 9.18 28.63 12.29 26.97L12.35 26.94C14.09 26.01 15.17 25.38 15.56 24.92C15.58 24.9 15.6 24.87 15.62 24.84C15.94 24.34 16.21 23.08 16.57 21.07C17.19 17.63 17.97 13.35 21.58 10.72C25.16 8.11 29.45 8.69 32.9 9.15C35.02 9.44 36.29 9.56 36.9 9.39C36.93 9.39 36.97 9.37 37 9.36C37.51 9.14 38.38 8.34 39.84 6.95C42.25 4.63 45.56 1.45 50.13 1.45C54.7 1.45 57.87 4.5 60.41 6.95C61.82 8.31 62.74 9.14 63.29 9.38C63.32 9.39 63.36 9.41 63.39 9.41C63.97 9.56 65.22 9.44 67.32 9.16C70.78 8.69 75.08 8.11 78.66 10.72C82.27 13.35 83.04 17.62 83.66 21.05L83.68 21.14C83.99 22.84 84.28 24.3 84.64 24.87C84.66 24.9 84.68 24.92 84.7 24.95C85.08 25.4 86.13 26 87.94 26.97C91.05 28.63 94.91 30.7 96.31 34.99C96.62 35.94 96.77 36.94 96.77 37.98C96.77 41.01 95.46 43.73 94.3 46.13L94.26 46.21C93.33 48.16 92.82 49.34 92.8 49.98C92.8 49.99 92.8 50 92.8 50.01C92.82 50.66 93.36 51.91 94.29 53.85C95.45 56.25 96.75 58.97 96.75 62C96.75 63.04 96.59 64.04 96.29 64.99L96.28 65Z" fill="#4279B6"/>
</svg>
