<svg xmlns="http://www.w3.org/2000/svg" width="100" height="100" viewBox="0 0 100 100" fill="none">
  <path d="M94.24 50C94.28 49.51 95.2 47.57 95.55 46.84L95.58 46.77C96.8 44.23 98.19 41.35 98.19 37.99C98.19 36.8 98.01 35.64 97.66 34.55C96.08 29.7 91.93 27.48 88.59 25.7C87.99 25.38 86.18 24.42 85.81 24.06C85.57 23.59 85.22 21.65 85.08 20.9L85.06 20.8C84.4 17.11 83.57 12.53 79.48 9.54999C75.42 6.59999 70.8 7.21999 67.09 7.71999C66.39 7.80999 64.31 8.09999 63.78 8.01999C63.46 7.84999 62.66 7.12999 61.38 5.89999C58.64 3.26999 55.24 -0.0100098 50.09 -0.0100098C44.94 -0.0100098 41.38 3.39999 38.78 5.90999C38.25 6.41999 36.86 7.74999 36.42 8.00999C35.87 8.09999 33.76 7.80999 33.05 7.71999C29.35 7.21999 24.74 6.59999 20.68 9.54999C16.6 12.52 15.77 17.12 15.1 20.82C14.98 21.51 14.61 23.56 14.38 24.03C14 24.4 12.23 25.35 11.63 25.66L11.57 25.69C8.23998 27.47 4.08998 29.69 2.51998 34.53C2.15998 35.63 1.97998 36.79 1.97998 37.97C1.97998 41.32 3.36998 44.21 4.58998 46.76C5.45998 48.56 5.90998 49.65 5.93998 49.99C5.89998 50.49 4.96998 52.44 4.60998 53.18L4.57998 53.25C3.35998 55.78 1.97998 58.66 1.97998 62.01C1.97998 63.21 2.15998 64.36 2.51998 65.45C4.08998 70.3 8.23998 72.51 11.59 74.3C12.26 74.66 13.98 75.58 14.36 75.94C14.61 76.43 14.98 78.49 15.1 79.18C15.77 82.87 16.59 87.47 20.68 90.44C24.73 93.39 29.34 92.77 33.05 92.27H33.09C33.79 92.17 35.86 91.89 36.38 91.97C36.85 92.22 38.29 93.61 38.77 94.07C41.36 96.57 44.9 99.99 50.07 99.99C55.24 99.99 58.63 96.71 61.37 94.07C61.85 93.61 63.28 92.23 63.72 91.98C64.26 91.89 66.34 92.17 67.04 92.26H67.11C70.81 92.76 75.42 93.38 79.47 90.44C83.55 87.47 84.38 82.87 85.05 79.17C85.17 78.48 85.54 76.43 85.77 75.96C86.15 75.59 87.88 74.67 88.54 74.31L88.58 74.29C91.74 72.61 96.06 70.31 97.64 65.44C97.99 64.35 98.17 63.2 98.17 62C98.17 58.64 96.78 55.76 95.55 53.2C95.23 52.53 94.25 50.5 94.21 49.99L94.24 50ZM96.28 65C94.88 69.31 90.86 71.45 87.92 73.02L87.88 73.04C86.08 74 85.04 74.61 84.65 75.07C84.63 75.1 84.61 75.12 84.59 75.15C84.28 75.65 84.02 76.86 83.65 78.92C83.03 82.36 82.25 86.65 78.64 89.27C75.06 91.87 70.77 91.3 67.32 90.84H67.26C65.22 90.56 63.91 90.43 63.31 90.6C63.28 90.6 63.25 90.62 63.22 90.63C62.71 90.85 61.84 91.64 60.39 93.03C57.84 95.48 54.67 98.54 50.1 98.54C45.53 98.54 42.21 95.36 39.8 93.03C38.39 91.67 37.47 90.84 36.92 90.61C36.89 90.6 36.86 90.59 36.83 90.58C36.66 90.53 36.42 90.51 36.13 90.51C35.43 90.51 34.38 90.63 32.92 90.83H32.87C29.42 91.3 25.13 91.87 21.55 89.27C17.94 86.64 17.17 82.36 16.55 78.92C16.18 76.85 15.91 75.63 15.58 75.11C15.56 75.08 15.54 75.05 15.52 75.03C15.14 74.59 14.1 73.99 12.28 73.01C9.17998 71.35 5.31998 69.29 3.91998 65C3.60998 64.06 3.45998 63.05 3.45998 62.01C3.45998 58.99 4.75998 56.27 5.90998 53.88L5.93998 53.81C6.87998 51.84 7.39998 50.66 7.40998 50.01C7.40998 50 7.40998 49.99 7.40998 49.98C7.38998 49.32 6.84998 48.07 5.91998 46.14C4.75998 43.73 3.44998 41 3.44998 37.98C3.44998 36.95 3.60998 35.94 3.90998 34.98C5.29998 30.69 9.15998 28.63 12.27 26.97L12.33 26.94C14.07 26.01 15.15 25.38 15.54 24.92C15.56 24.9 15.58 24.87 15.6 24.84C15.92 24.34 16.19 23.08 16.55 21.07C17.17 17.63 17.94 13.35 21.56 10.72C25.15 8.10999 29.43 8.68999 32.88 9.14999C35 9.43999 36.27 9.55999 36.88 9.38999C36.91 9.38999 36.95 9.36999 36.98 9.35999C37.49 9.13999 38.36 8.33999 39.81 6.94999C42.22 4.62999 45.53 1.44999 50.1 1.44999C54.67 1.44999 57.84 4.49999 60.38 6.94999C61.79 8.30999 62.71 9.13999 63.26 9.37999C63.29 9.38999 63.33 9.40999 63.36 9.40999C63.94 9.55999 65.19 9.43999 67.29 9.15999C70.75 8.68999 75.05 8.10999 78.63 10.72C82.24 13.35 83.01 17.62 83.63 21.05L83.65 21.15C83.96 22.85 84.25 24.31 84.61 24.87C84.63 24.9 84.65 24.92 84.67 24.95C85.05 25.4 86.1 26 87.91 26.97C91.02 28.63 94.88 30.7 96.28 34.99C96.59 35.94 96.74 36.94 96.74 37.98C96.74 41.01 95.43 43.73 94.27 46.13L94.23 46.2C93.3 48.15 92.79 49.33 92.77 49.97C92.77 49.98 92.77 49.99 92.77 50C92.79 50.65 93.33 51.9 94.26 53.84C95.41 56.24 96.72 58.96 96.72 61.99C96.72 63.03 96.56 64.03 96.26 64.98L96.28 65Z" fill="#4279B6"/>
  <path d="M63.86 58.71V56.85C63.86 55.58 63.18 54.4 62.07 53.7701L51.88 47.9501C53.91 45.8301 55.13 42.7 55.13 39.5V37.75C55.13 33.39 52.65 28.3 45.68 28.3C38.71 28.3 36.23 33.39 36.23 37.75V39.5C36.23 42.7 37.45 45.82 39.48 47.9501L29.29 53.7701C28.19 54.4 27.5 55.58 27.5 56.85V58.71C27.5 62 30.17 64.67 33.46 64.67H57.9C61.19 64.67 63.86 62 63.86 58.71ZM37.67 39.51V37.76C37.67 35.88 38.25 29.76 45.67 29.76C47.55 29.76 53.67 30.34 53.67 37.76V39.51C53.67 42.74 52.28 45.87 50.05 47.67C48.75 48.72 47.28 49.25 45.67 49.25C44.06 49.25 42.59 48.72 41.29 47.67C39.05 45.86 37.67 42.73 37.67 39.51ZM28.94 58.71V56.85C28.94 56.1 29.34 55.4 30 55.03L40.61 48.9701C42.1 50.1 43.85 50.7001 45.68 50.7001C47.51 50.7001 49.25 50.1 50.75 48.9701L61.36 55.03C61.85 55.31 62.2 55.77 62.34 56.3C62.39 56.48 62.41 56.66 62.41 56.85V58.71C62.41 61.2001 60.39 63.2201 57.9 63.2201H33.46C30.97 63.2201 28.95 61.2001 28.95 58.71H28.94Z" fill="#2D557F"/>
  <path d="M82.29 56.1401C82.19 55.6201 81.95 55.2501 81.53 55.0101C81.24 54.8401 80.88 54.8901 80.65 55.1201L80.6 55.1701C80.6 55.1701 80.55 55.2201 80.52 55.2401L75.5 60.2601C75.44 60.3201 75.4 60.3601 75.36 60.3901C75.33 60.3601 75.29 60.3301 75.24 60.2801L71.34 56.3801C71.34 56.3801 71.26 56.2901 71.23 56.2601C71.25 56.2301 71.29 56.1901 71.34 56.1401C72.17 55.3101 73 54.4701 73.84 53.6401C74.67 52.8101 75.49 51.9901 76.32 51.1601C76.36 51.1201 76.4 51.0801 76.44 51.0301C76.48 50.9901 76.52 50.9401 76.58 50.8801C76.74 50.7101 76.81 50.4801 76.77 50.2501C76.73 50.0201 76.58 49.8201 76.37 49.7201C76.29 49.6801 76.23 49.6501 76.16 49.6101C75.98 49.5101 75.77 49.4001 75.51 49.3401C74.12 49.0601 72.77 49.0401 71.48 49.2601C69.33 49.6401 67.76 50.4901 66.67 51.8801C64.71 54.3901 64.14 57.2101 64.97 60.2801C65.07 60.6701 65.21 61.0401 65.35 61.3901C65.35 61.3901 65.35 61.4001 65.35 61.4101L52.76 71.8801C52.02 72.5001 51.5 73.2901 51.22 74.2301C51.17 74.4001 51.13 74.5601 51.09 74.7301C51.07 74.8101 51.05 74.8901 51.03 74.9701C51.02 75.0301 51.01 75.0901 51.01 75.1501V76.1501C51.01 76.2101 51.01 76.2801 51.03 76.3401C51.03 76.3701 51.05 76.4101 51.06 76.4401C51.06 76.4601 51.07 76.4801 51.08 76.5201C51.51 78.5001 52.72 79.8201 54.61 80.3301C55.09 80.4601 55.55 80.5201 56 80.5201C57.38 80.5201 58.62 79.9301 59.58 78.7801C62.37 75.4701 65.18 72.0801 67.9 68.8001L70.06 66.2001C72.45 67.2201 74.85 67.2801 77.19 66.3801C79.08 65.6601 80.41 64.6101 81.24 63.1701C82.43 61.1201 82.77 58.8101 82.28 56.1201L82.29 56.1401ZM79.99 62.4601C79.32 63.6101 78.27 64.4301 76.68 65.0401C74.61 65.8301 72.56 65.7501 70.43 64.7901C70.07 64.6301 69.55 64.5501 69.1 65.1101L66.79 67.8901C64.07 71.1701 61.27 74.5601 58.48 77.8601C57.57 78.9401 56.37 79.3101 54.99 78.9401C53.63 78.5701 52.82 77.6801 52.51 76.2401C52.5 76.1801 52.48 76.1101 52.46 76.0501V75.2501C52.47 75.1901 52.49 75.1301 52.5 75.0801C52.53 74.9401 52.56 74.8001 52.61 74.6701C52.81 74.0101 53.17 73.4501 53.69 73.0201L66.54 62.3401C66.61 62.2901 66.67 62.2301 66.72 62.1801C66.92 61.9801 66.99 61.6901 66.89 61.4301C66.83 61.2601 66.77 61.0901 66.7 60.9201C66.57 60.5801 66.45 60.2601 66.37 59.9401C65.66 57.3401 66.15 54.9401 67.81 52.8201C68.66 51.7301 69.95 51.0401 71.73 50.7301C72.71 50.5601 73.69 50.5501 74.74 50.7201C74.1 51.3601 73.45 52.0101 72.81 52.6501C71.98 53.4801 71.14 54.3201 70.31 55.1501C70.04 55.4201 69.73 55.7901 69.73 56.2901C69.73 56.8001 70.04 57.1701 70.31 57.4401L74.21 61.3401C74.99 62.1201 75.73 62.1101 76.52 61.3201L80.93 56.9101C81.24 59.0401 80.93 60.8701 79.99 62.4901V62.4601Z" fill="#2D557F"/>
</svg>
