<svg xmlns="http://www.w3.org/2000/svg" width="100" height="100" viewBox="0 0 100 100" fill="none">
  <path d="M92.79 50.02C92.79 50.02 92.79 50 92.79 49.99C92.81 49.35 93.31 48.17 94.25 46.22L94.29 46.14C95.45 43.74 96.76 41.02 96.76 37.99C96.76 36.95 96.6 35.95 96.3 35C94.9 30.71 91.04 28.64 87.93 26.98C86.12 26.02 85.07 25.41 84.69 24.96C84.67 24.94 84.65 24.91 84.63 24.88C84.27 24.31 83.98 22.86 83.67 21.15L83.65 21.06C83.03 17.63 82.26 13.36 78.65 10.73C75.06 8.11996 70.76 8.69996 67.31 9.16996C65.21 9.44996 63.96 9.57996 63.38 9.41996C63.35 9.41996 63.31 9.39996 63.28 9.38996C62.73 9.14996 61.81 8.31996 60.4 6.95996C57.85 4.50996 54.68 1.45996 50.12 1.45996C45.56 1.45996 42.24 4.63996 39.83 6.95996C38.38 8.35996 37.5 9.14996 36.99 9.36996C36.96 9.37996 36.93 9.39996 36.89 9.39996C36.28 9.56996 35.01 9.43996 32.89 9.15996C29.44 8.68996 25.16 8.11996 21.57 10.73C17.96 13.36 17.18 17.64 16.56 21.08C16.2 23.09 15.93 24.35 15.61 24.85C15.59 24.88 15.57 24.9 15.55 24.93C15.16 25.39 14.08 26.02 12.34 26.95L12.28 26.98C9.18 28.64 5.32 30.7 3.92 34.99C3.61 35.94 3.46 36.95 3.46 37.99C3.46 41.01 4.77 43.74 5.92 46.15C6.85 48.08 7.4 49.33 7.41 49.99C7.41 50 7.41 50.01 7.41 50.02C7.39 50.67 6.88 51.85 5.94 53.82L5.91 53.89C4.76 56.28 3.46 59 3.46 62.02C3.46 63.06 3.62 64.07 3.92 65.01C5.31 69.3 9.17 71.36 12.28 73.02C14.1 73.99 15.15 74.6 15.52 75.04C15.54 75.07 15.56 75.09 15.58 75.12C15.91 75.64 16.18 76.86 16.55 78.93C17.17 82.37 17.94 86.65 21.55 89.28C25.13 91.88 29.42 91.31 32.87 90.85H32.92C34.39 90.64 35.44 90.52 36.13 90.52C36.43 90.52 36.66 90.54 36.83 90.59C36.86 90.59 36.89 90.61 36.92 90.62C37.47 90.85 38.39 91.68 39.8 93.04C42.21 95.37 45.51 98.55 50.1 98.55C54.69 98.55 57.84 95.5 60.39 93.04C61.83 91.65 62.71 90.86 63.22 90.64C63.25 90.63 63.28 90.62 63.31 90.61C63.92 90.44 65.22 90.57 67.26 90.84H67.32C70.77 91.31 75.05 91.89 78.63 89.28C82.24 86.65 83.01 82.37 83.64 78.93C84.01 76.87 84.27 75.66 84.58 75.16C84.6 75.13 84.62 75.1 84.64 75.08C85.03 74.62 86.07 74.01 87.87 73.05L87.91 73.03C90.85 71.46 94.87 69.32 96.27 65.01C96.58 64.07 96.73 63.06 96.73 62.02C96.73 58.99 95.42 56.27 94.27 53.87C93.33 51.92 92.79 50.68 92.78 50.03L92.79 50.02ZM92.97 63.92C92 66.89 88.96 68.52 86.27 69.95L86.23 69.97C83.87 71.24 82.75 71.91 81.99 72.82C81.86 72.97 81.74 73.13 81.64 73.3C81.01 74.31 80.7 75.6 80.22 78.31C79.53 82.15 78.9 84.79 76.59 86.47C75.35 87.37 73.91 87.77 71.91 87.77C70.55 87.77 69.15 87.58 67.79 87.4H67.73C66.45 87.22 65.11 87.05 64.07 87.05C63.41 87.05 62.87 87.12 62.37 87.26C62.19 87.31 62.01 87.37 61.84 87.45C60.84 87.88 59.96 88.64 57.98 90.54C55.14 93.28 53.05 95.07 50.1 95.07C46.92 95.07 44.42 92.66 42.22 90.54C40.36 88.75 39.35 87.88 38.29 87.42C38.12 87.35 37.94 87.29 37.76 87.24C37.28 87.11 36.77 87.05 36.15 87.05C35.13 87.05 33.76 87.22 32.45 87.4H32.41C31.05 87.59 29.64 87.78 28.29 87.78C26.29 87.78 24.85 87.38 23.61 86.48C21.3 84.79 20.67 82.16 19.98 78.32C19.49 75.6 19.17 74.3 18.52 73.26C18.41 73.09 18.29 72.93 18.16 72.77C17.41 71.9 16.3 71.23 13.94 69.96L13.91 69.95C10.45 68.1 8.12 66.69 7.22 63.93C7.03 63.34 6.93 62.7 6.93 62.03C6.93 59.8 8 57.56 9.04 55.4L9.07 55.33C10.32 52.72 10.85 51.41 10.88 50.11C10.88 50.04 10.88 49.98 10.88 49.91C10.85 48.59 10.29 47.22 9.05 44.65C7.96 42.37 6.93 40.23 6.93 38C6.93 37.33 7.03 36.69 7.22 36.08C8.11 33.33 10.45 31.91 13.91 30.06L13.97 30.03C16.33 28.77 17.44 28.09 18.21 27.17C18.33 27.03 18.44 26.87 18.54 26.72C19.18 25.71 19.48 24.41 19.97 21.71C20.66 17.88 21.29 15.24 23.6 13.55C24.84 12.65 26.28 12.25 28.27 12.25C29.63 12.25 31.04 12.44 32.4 12.62C33.76 12.8 35.07 12.97 36.12 12.97C36.76 12.97 37.3 12.91 37.79 12.77C37.98 12.72 38.17 12.65 38.36 12.57C39.36 12.13 40.24 11.38 42.22 9.47996C44.43 7.35996 46.93 4.94996 50.1 4.94996C53.04 4.94996 55.13 6.73996 57.97 9.46996C59.83 11.26 60.83 12.14 61.89 12.59C62.08 12.67 62.27 12.74 62.46 12.79C62.93 12.92 63.44 12.98 64.04 12.98C65.06 12.98 66.44 12.81 67.76 12.63C69.13 12.45 70.54 12.25 71.91 12.25C73.91 12.25 75.35 12.65 76.59 13.55C78.9 15.23 79.53 17.87 80.22 21.7L80.24 21.8C80.73 24.47 81.04 25.76 81.7 26.78C81.8 26.93 81.91 27.08 82.02 27.22C82.78 28.12 83.9 28.79 86.27 30.06C89.73 31.91 92.07 33.33 92.97 36.08C93.16 36.68 93.26 37.33 93.26 38C93.26 40.24 92.18 42.48 91.14 44.65L91.11 44.72C89.87 47.31 89.34 48.61 89.31 49.91C89.31 49.98 89.31 50.04 89.31 50.11C89.34 51.42 89.9 52.79 91.14 55.36C92.24 57.65 93.27 59.79 93.27 62.02C93.27 62.69 93.17 63.33 92.98 63.93L92.97 63.92Z" fill="#4279B6"/>
  <path d="M71.51 50.47L66.6 55.38L60.71 61.28L59.7 65.02L63.44 64.02L69.4 58.06L74.25 53.21L71.51 50.47Z" fill="#FCCD2A"/>
  <path d="M36.97 51.5C35.01 51.5 33.3 50.84 31.9 49.77L21.3 55.83C20.65 56.2 20.24 56.9 20.24 57.65V59.51C20.24 62 22.26 64.02 24.75 64.02H49.19C49.74 64.02 50.27 63.92 50.75 63.73V54.75L42.04 49.77C40.63 50.84 38.93 51.5 36.97 51.5Z" fill="#FC8B27"/>
  <path d="M74.68 47.3L72.54 49.4501L75.28 52.19L77.42 50.0401L74.68 47.3Z" fill="#FC8B27"/>
  <path d="M53.1 37.84C53.41 37.92 53.65 38.17 53.7 38.49C53.79 38.97 53.91 39.44 54.08 39.9C54.19 40.2 54.11 40.54 53.88 40.76L53.29 41.33C53.5 41.76 53.75 42.17 54.03 42.58L54.8 42.36C55.11 42.27 55.44 42.37 55.64 42.61C55.96 42.99 56.31 43.34 56.68 43.65C56.92 43.86 57.03 44.19 56.94 44.5L56.72 45.27C57.13 45.55 57.55 45.8 57.97 46L58.54 45.41C58.77 45.18 59.1 45.1 59.4 45.21C59.86 45.38 60.34 45.5 60.81 45.59C61.13 45.65 61.38 45.88 61.46 46.19L61.66 46.98C62.18 47.02 62.6 47.02 63.11 46.98L63.31 46.19C63.39 45.88 63.64 45.64 63.96 45.59C64.44 45.5 64.91 45.38 65.37 45.21C65.67 45.1 66.01 45.18 66.23 45.41L66.8 46C67.22 45.79 67.64 45.55 68.05 45.26L67.83 44.49C67.74 44.18 67.84 43.85 68.09 43.65C68.46 43.33 68.81 42.98 69.13 42.61C69.34 42.37 69.67 42.27 69.98 42.35L70.75 42.57C71.03 42.16 71.28 41.74 71.49 41.32L70.9 40.75C70.67 40.53 70.59 40.19 70.7 39.89C70.87 39.43 70.99 38.96 71.08 38.48C71.14 38.16 71.37 37.91 71.68 37.83L72.47 37.63C72.49 37.37 72.5 37.13 72.5 36.9C72.5 36.67 72.49 36.43 72.47 36.17L71.68 35.97C71.37 35.89 71.13 35.64 71.08 35.32C70.99 34.84 70.87 34.37 70.7 33.91C70.59 33.61 70.67 33.27 70.9 33.05L71.49 32.48C71.28 32.05 71.03 31.64 70.75 31.23L69.98 31.45C69.67 31.54 69.34 31.44 69.13 31.19C68.81 30.82 68.46 30.47 68.09 30.15C67.85 29.94 67.75 29.61 67.83 29.3L68.05 28.53C67.64 28.25 67.22 28 66.8 27.8L66.23 28.39C66.01 28.62 65.67 28.7 65.37 28.59C64.91 28.42 64.44 28.3 63.96 28.21C63.64 28.15 63.39 27.92 63.31 27.61L63.11 26.82C62.6 26.78 62.17 26.78 61.66 26.82L61.46 27.61C61.38 27.92 61.13 28.16 60.81 28.21C60.33 28.3 59.86 28.42 59.4 28.59C59.1 28.7 58.76 28.62 58.54 28.39L57.97 27.8C57.54 28.01 57.13 28.25 56.72 28.53L56.94 29.3C57.03 29.61 56.93 29.94 56.68 30.15C56.31 30.46 55.96 30.81 55.64 31.19C55.43 31.43 55.1 31.53 54.79 31.45L54.02 31.23C53.74 31.64 53.49 32.06 53.28 32.48L53.87 33.05C54.1 33.27 54.18 33.61 54.07 33.91C53.9 34.37 53.78 34.84 53.69 35.32C53.63 35.63 53.4 35.89 53.09 35.97L52.3 36.17C52.28 36.43 52.27 36.67 52.27 36.9C52.27 37.13 52.28 37.37 52.3 37.63L53.09 37.83L53.1 37.84ZM62.38 31C65.65 31 68.3 33.66 68.3 36.92C68.3 40.18 65.64 42.84 62.38 42.84C59.12 42.84 56.46 40.18 56.46 36.92C56.46 33.66 59.12 31 62.38 31Z" fill="#3C8645"/>
  <path d="M87.86 50.14C87.86 50.05 87.86 49.96 87.86 49.87C87.9 48.3 88.46 46.88 89.8 44.08L89.83 44.01C90.81 41.98 91.81 39.89 91.81 37.98C91.81 37.46 91.74 36.96 91.59 36.51C90.86 34.28 88.74 33.01 85.59 31.32C83.04 29.96 81.82 29.22 80.91 28.14C80.75 27.95 80.61 27.76 80.47 27.55C79.68 26.31 79.33 24.91 78.8 22.04L78.78 21.94C78.15 18.46 77.6 16.07 75.73 14.71C74.76 14 73.58 13.69 71.91 13.69C70.64 13.69 69.28 13.87 67.96 14.05C66.59 14.24 65.16 14.42 64.05 14.42C63.31 14.42 62.69 14.35 62.09 14.19C61.83 14.12 61.57 14.03 61.32 13.92C60.05 13.37 58.95 12.43 56.96 10.51C54.38 8.02002 52.5 6.39001 50.1 6.39001C47.51 6.39001 45.24 8.58002 43.23 10.51C41.11 12.55 40.15 13.37 38.94 13.89C38.69 14 38.43 14.09 38.17 14.16C37.54 14.33 36.89 14.41 36.11 14.41C34.98 14.41 33.61 14.24 32.2 14.05C30.89 13.87 29.53 13.69 28.27 13.69C26.6 13.69 25.42 14.01 24.45 14.72C22.58 16.08 22.02 18.47 21.39 21.96C20.87 24.86 20.53 26.27 19.76 27.49C19.63 27.7 19.48 27.91 19.31 28.1C18.38 29.21 17.18 29.95 14.64 31.31L14.58 31.34C11.43 33.02 9.32 34.29 8.59 36.52C8.44 36.98 8.37 37.48 8.37 37.99C8.37 39.89 9.33 41.89 10.35 44.01C11.69 46.78 12.29 48.28 12.33 49.87C12.33 49.96 12.33 50.05 12.33 50.14C12.29 51.71 11.72 53.14 10.38 55.95L10.35 56.02C9.38 58.04 8.38 60.12 8.38 62.02C8.38 62.54 8.45 63.03 8.6 63.47C9.33 65.72 11.45 66.98 14.59 68.67C14.59 68.67 14.62 68.68 14.62 68.69C17.15 70.04 18.35 70.78 19.25 71.83C19.43 72.03 19.59 72.25 19.73 72.48C20.52 73.72 20.87 75.14 21.4 78.06C22.03 81.55 22.58 83.94 24.45 85.3C25.42 86.01 26.6 86.32 28.28 86.32C29.54 86.32 30.9 86.14 32.21 85.96H32.25C33.61 85.77 35.02 85.59 36.14 85.59C36.89 85.59 37.52 85.67 38.13 85.83C38.37 85.9 38.61 85.98 38.84 86.08C40.12 86.62 41.22 87.57 43.22 89.49C45.23 91.43 47.5 93.62 50.09 93.62C52.49 93.62 54.37 91.99 56.96 89.49C59.08 87.45 60.04 86.63 61.25 86.11C61.48 86.01 61.73 85.92 61.97 85.86C62.61 85.68 63.27 85.6 64.06 85.6C65.19 85.6 66.58 85.77 67.91 85.95H67.97C69.28 86.13 70.64 86.32 71.9 86.32C73.57 86.32 74.75 86 75.73 85.29C77.6 83.93 78.15 81.54 78.78 78.05C79.3 75.15 79.64 73.74 80.4 72.53C80.54 72.31 80.7 72.09 80.87 71.89C81.79 70.8 83 70.06 85.53 68.7L85.57 68.68C88.02 67.38 90.79 65.9 91.57 63.48C91.72 63.03 91.79 62.54 91.79 62.02C91.79 60.12 90.83 58.12 89.81 56.01C88.47 53.22 87.87 51.72 87.83 50.14H87.86ZM50.91 35.59C50.95 35.26 51.19 34.97 51.52 34.89L52.35 34.68C52.41 34.4 52.49 34.11 52.58 33.84L51.96 33.24C51.72 33 51.64 32.64 51.78 32.33C52.12 31.54 52.57 30.77 53.12 30.04C53.32 29.77 53.68 29.65 54 29.74L54.81 29.97C55.01 29.75 55.22 29.55 55.43 29.35L55.2 28.54C55.11 28.22 55.23 27.86 55.5 27.66C56.23 27.11 57.01 26.66 57.79 26.32C58.1 26.19 58.47 26.26 58.7 26.5L59.3 27.12C59.58 27.03 59.86 26.96 60.14 26.89L60.35 26.06C60.43 25.73 60.71 25.49 61.05 25.45C62.02 25.34 62.74 25.34 63.71 25.45C64.05 25.49 64.33 25.74 64.41 26.06L64.62 26.89C64.9 26.95 65.19 27.03 65.46 27.12L66.06 26.5C66.29 26.26 66.66 26.18 66.97 26.32C67.76 26.66 68.53 27.11 69.26 27.66C69.53 27.86 69.65 28.21 69.56 28.54L69.33 29.36C69.55 29.56 69.75 29.77 69.95 29.98L70.76 29.75C71.08 29.66 71.44 29.78 71.64 30.05C72.19 30.78 72.64 31.55 72.98 32.34C73.11 32.65 73.04 33.02 72.8 33.25L72.18 33.85C72.27 34.13 72.34 34.41 72.41 34.69L73.24 34.9C73.57 34.98 73.81 35.26 73.85 35.6C73.91 36.08 73.93 36.52 73.93 36.93C73.93 37.34 73.9 37.77 73.85 38.26C73.81 38.59 73.57 38.87 73.24 38.96L72.41 39.17C72.35 39.45 72.27 39.74 72.18 40.01L72.8 40.61C73.04 40.85 73.12 41.21 72.98 41.52C72.64 42.31 72.19 43.08 71.64 43.81C71.44 44.08 71.08 44.2 70.76 44.11L69.95 43.88C69.75 44.1 69.54 44.3 69.33 44.5L69.56 45.31C69.65 45.64 69.53 45.99 69.26 46.19C68.53 46.73 67.76 47.18 66.97 47.53C66.66 47.66 66.29 47.59 66.06 47.35L65.46 46.73C65.18 46.82 64.9 46.89 64.62 46.96L64.41 47.79C64.33 48.12 64.05 48.36 63.71 48.4C63.23 48.46 62.79 48.48 62.38 48.48C61.97 48.48 61.54 48.45 61.05 48.4C60.72 48.36 60.43 48.12 60.35 47.79L60.14 46.96C59.86 46.9 59.57 46.82 59.3 46.73L58.7 47.35C58.47 47.59 58.1 47.67 57.79 47.53C57 47.19 56.23 46.74 55.5 46.19C55.23 45.99 55.11 45.64 55.2 45.31L55.43 44.49C55.21 44.29 55.01 44.08 54.81 43.87L54 44.1C53.68 44.19 53.32 44.07 53.12 43.8C52.57 43.07 52.12 42.3 51.78 41.51C51.65 41.2 51.72 40.83 51.96 40.6L52.58 40C52.49 39.72 52.42 39.44 52.35 39.16L51.52 38.95C51.19 38.87 50.95 38.59 50.91 38.25C50.85 37.77 50.83 37.33 50.83 36.92C50.83 36.51 50.86 36.08 50.91 35.59ZM73.07 73.41C73.07 73.81 72.75 74.14 72.34 74.14H51.47C51.07 74.14 50.74 73.82 50.74 73.41V65.25C50.24 65.39 49.72 65.47 49.18 65.47H24.74C21.45 65.47 18.78 62.79 18.78 59.51V57.65C18.78 56.38 19.46 55.2 20.57 54.57L30.76 48.75C28.68 46.56 27.51 43.36 27.51 40.3V38.55C27.51 34.19 29.99 29.1 36.96 29.1C40.27 29.1 42.88 30.26 44.52 32.45C46.17 34.64 46.41 37.22 46.41 38.56V40.31C46.41 43.37 45.24 46.57 43.16 48.76L50.74 53.09V52.27C50.74 51.87 51.06 51.54 51.47 51.54H63.34C63.74 51.54 64.07 51.86 64.07 52.27C64.07 52.46 63.99 52.64 63.87 52.77C63.74 52.91 63.55 52.99 63.35 52.99H52.2V72.69H71.62V60.89C71.62 60.7 71.7 60.52 71.82 60.39C71.95 60.25 72.14 60.17 72.34 60.17C72.74 60.17 73.07 60.49 73.07 60.9V73.42V73.41ZM78.96 50.55L75.79 53.72L70.45 59.06L64.34 65.17C64.25 65.26 64.14 65.32 64.01 65.36L58.87 66.74C58.81 66.76 58.74 66.76 58.68 66.76C58.49 66.76 58.3 66.69 58.17 66.55C57.99 66.37 57.92 66.1 57.98 65.85L59.36 60.71C59.39 60.59 59.46 60.47 59.55 60.38L65.56 54.37L71 48.93L74.17 45.76C74.45 45.48 74.91 45.48 75.2 45.76L78.96 49.52C79.24 49.8 79.24 50.26 78.96 50.55Z" fill="white"/>
  <path d="M44.97 38.55C44.97 36.67 44.39 30.55 36.97 30.55C29.55 30.55 28.97 36.68 28.97 38.55V40.3C28.97 43.28 30.21 46.42 32.39 48.3C32.7 48.57 33.03 48.81 33.38 49.03C33.88 49.34 34.42 49.58 34.99 49.76C35.61 49.95 36.28 50.05 36.98 50.05C37.61 50.05 38.25 49.95 38.87 49.76C39.42 49.59 39.97 49.35 40.49 49.03C40.84 48.82 41.19 48.58 41.52 48.3C43.52 46.64 44.98 43.87 44.98 40.3V38.55H44.97Z" fill="white"/>
  <path d="M62.38 41.3901C64.8487 41.3901 66.85 39.3888 66.85 36.9201C66.85 34.4514 64.8487 32.4501 62.38 32.4501C59.9113 32.4501 57.91 34.4514 57.91 36.9201C57.91 39.3888 59.9113 41.3901 62.38 41.3901Z" fill="white"/>
  <path d="M51.52 38.94L52.35 39.15C52.41 39.43 52.49 39.72 52.58 39.99L51.96 40.59C51.72 40.83 51.65 41.19 51.78 41.5C52.12 42.29 52.57 43.06 53.12 43.79C53.32 44.06 53.68 44.18 54 44.09L54.81 43.86C55.01 44.08 55.22 44.28 55.43 44.48L55.2 45.3C55.11 45.62 55.23 45.98 55.5 46.18C56.23 46.73 57 47.18 57.79 47.52C58.1 47.65 58.47 47.58 58.7 47.34L59.3 46.72C59.58 46.81 59.86 46.88 60.14 46.95L60.35 47.78C60.43 48.11 60.71 48.36 61.05 48.39C61.54 48.45 61.97 48.47 62.38 48.47C62.79 48.47 63.22 48.44 63.71 48.39C64.05 48.35 64.33 48.11 64.41 47.78L64.62 46.95C64.9 46.89 65.19 46.81 65.46 46.72L66.06 47.34C66.29 47.58 66.66 47.66 66.97 47.52C67.76 47.18 68.53 46.73 69.26 46.18C69.53 45.98 69.65 45.63 69.56 45.3L69.33 44.49C69.55 44.29 69.75 44.08 69.95 43.87L70.76 44.1C71.08 44.19 71.44 44.07 71.64 43.8C72.19 43.07 72.64 42.3 72.98 41.51C73.11 41.2 73.04 40.83 72.8 40.6L72.18 40C72.27 39.72 72.34 39.44 72.41 39.16L73.24 38.95C73.57 38.87 73.81 38.59 73.85 38.25C73.91 37.76 73.93 37.33 73.93 36.92C73.93 36.51 73.9 36.08 73.85 35.59C73.81 35.25 73.57 34.97 73.24 34.89L72.41 34.68C72.35 34.4 72.27 34.11 72.18 33.84L72.8 33.24C73.04 33 73.11 32.64 72.98 32.33C72.64 31.54 72.19 30.77 71.64 30.04C71.44 29.77 71.08 29.65 70.76 29.74L69.95 29.97C69.75 29.75 69.54 29.55 69.33 29.35L69.56 28.53C69.65 28.21 69.53 27.85 69.26 27.65C68.53 27.1 67.76 26.65 66.97 26.31C66.66 26.18 66.29 26.25 66.06 26.49L65.46 27.11C65.18 27.02 64.9 26.95 64.62 26.88L64.41 26.05C64.33 25.72 64.05 25.48 63.71 25.44C62.74 25.33 62.02 25.33 61.05 25.44C60.71 25.48 60.44 25.73 60.35 26.05L60.14 26.88C59.86 26.94 59.57 27.02 59.3 27.11L58.7 26.49C58.46 26.25 58.1 26.17 57.79 26.31C57 26.65 56.23 27.1 55.5 27.65C55.23 27.85 55.11 28.2 55.2 28.53L55.43 29.34C55.21 29.54 55.01 29.75 54.81 29.96L54 29.73C53.68 29.64 53.32 29.76 53.12 30.03C52.57 30.76 52.12 31.53 51.78 32.32C51.65 32.63 51.72 33 51.96 33.23L52.58 33.83C52.49 34.11 52.42 34.39 52.35 34.67L51.52 34.88C51.19 34.96 50.95 35.24 50.91 35.58C50.85 36.07 50.83 36.5 50.83 36.91C50.83 37.32 50.86 37.75 50.91 38.24C50.95 38.58 51.19 38.86 51.52 38.94ZM52.31 36.19L53.1 35.99C53.41 35.91 53.65 35.66 53.7 35.34C53.79 34.86 53.91 34.39 54.08 33.93C54.19 33.63 54.11 33.29 53.88 33.07L53.29 32.5C53.5 32.07 53.74 31.66 54.03 31.25L54.8 31.47C55.11 31.56 55.44 31.46 55.65 31.21C55.97 30.84 56.31 30.49 56.69 30.17C56.94 29.96 57.04 29.63 56.95 29.32L56.73 28.55C57.14 28.27 57.56 28.02 57.98 27.82L58.55 28.41C58.77 28.64 59.11 28.72 59.41 28.61C59.87 28.44 60.34 28.32 60.82 28.23C61.14 28.17 61.39 27.94 61.47 27.63L61.67 26.84C62.19 26.8 62.61 26.8 63.12 26.84L63.32 27.63C63.4 27.94 63.65 28.18 63.97 28.23C64.45 28.32 64.92 28.44 65.38 28.61C65.68 28.72 66.02 28.64 66.24 28.41L66.81 27.82C67.23 28.03 67.65 28.27 68.06 28.55L67.84 29.32C67.75 29.63 67.85 29.96 68.1 30.17C68.47 30.49 68.82 30.83 69.14 31.21C69.35 31.45 69.68 31.55 69.99 31.47L70.76 31.25C71.04 31.66 71.29 32.08 71.5 32.5L70.91 33.07C70.68 33.29 70.6 33.63 70.71 33.93C70.88 34.39 71 34.86 71.09 35.34C71.15 35.65 71.38 35.91 71.69 35.99L72.48 36.19C72.5 36.45 72.51 36.69 72.51 36.92C72.51 37.15 72.5 37.39 72.48 37.65L71.69 37.85C71.38 37.93 71.14 38.18 71.09 38.5C71 38.98 70.88 39.45 70.71 39.91C70.6 40.21 70.68 40.55 70.91 40.77L71.5 41.34C71.29 41.77 71.05 42.18 70.76 42.59L69.99 42.37C69.68 42.28 69.35 42.38 69.14 42.63C68.82 43 68.47 43.35 68.1 43.67C67.86 43.88 67.76 44.21 67.84 44.51L68.06 45.28C67.65 45.56 67.23 45.81 66.81 46.02L66.24 45.43C66.02 45.2 65.68 45.12 65.38 45.23C64.92 45.4 64.44 45.52 63.97 45.61C63.65 45.67 63.4 45.9 63.32 46.21L63.12 47C62.6 47.04 62.18 47.04 61.67 47L61.47 46.21C61.39 45.9 61.14 45.66 60.82 45.61C60.35 45.52 59.87 45.4 59.41 45.23C59.11 45.12 58.77 45.2 58.55 45.43L57.98 46.02C57.56 45.81 57.14 45.57 56.73 45.29L56.95 44.52C57.04 44.21 56.94 43.88 56.69 43.67C56.32 43.35 55.97 43 55.65 42.63C55.44 42.39 55.11 42.29 54.81 42.38L54.04 42.6C53.76 42.19 53.51 41.77 53.3 41.35L53.89 40.78C54.12 40.56 54.2 40.22 54.09 39.92C53.92 39.46 53.8 38.99 53.71 38.51C53.65 38.19 53.42 37.94 53.11 37.86L52.32 37.66C52.3 37.4 52.29 37.16 52.29 36.93C52.29 36.7 52.3 36.46 52.32 36.2L52.31 36.19Z" fill="#0E1721"/>
  <path d="M62.38 42.84C65.65 42.84 68.3 40.18 68.3 36.92C68.3 33.66 65.64 31 62.38 31C59.12 31 56.46 33.66 56.46 36.92C56.46 40.18 59.12 42.84 62.38 42.84ZM62.38 32.45C64.85 32.45 66.85 34.46 66.85 36.92C66.85 39.38 64.84 41.39 62.38 41.39C59.92 41.39 57.91 39.38 57.91 36.92C57.91 34.46 59.92 32.45 62.38 32.45Z" fill="#0E1721"/>
  <path d="M94.24 50C94.28 49.51 95.2 47.57 95.55 46.84L95.59 46.77C96.81 44.23 98.2 41.35 98.2 37.99C98.2 36.8 98.02 35.64 97.67 34.55C96.09 29.7 91.94 27.48 88.6 25.7C88 25.38 86.19 24.42 85.82 24.06C85.58 23.59 85.23 21.65 85.09 20.9L85.07 20.81C84.41 17.12 83.58 12.54 79.49 9.56C75.43 6.61 70.81 7.23 67.1 7.73C66.4 7.82 64.32 8.11 63.79 8.03C63.47 7.86 62.67 7.14 61.39 5.91C58.65 3.28 55.25 0 50.1 0C44.95 0 41.39 3.41 38.79 5.92C38.26 6.43 36.87 7.76 36.44 8.02C35.89 8.11 33.78 7.82 33.07 7.73C29.37 7.23 24.76 6.61 20.7 9.56C16.62 12.53 15.79 17.13 15.12 20.83C15 21.52 14.63 23.57 14.4 24.04C14.02 24.41 12.25 25.36 11.66 25.67L11.59 25.71C8.26 27.49 4.11 29.71 2.54 34.55C2.18 35.65 2 36.81 2 37.99C2 41.34 3.39 44.23 4.61 46.78C5.48 48.58 5.93 49.67 5.96 50.01C5.92 50.51 4.99 52.46 4.63 53.2L4.6 53.26C3.38 55.79 2 58.67 2 62.02C2 63.22 2.18 64.37 2.54 65.46C4.11 70.31 8.26 72.52 11.61 74.31C12.28 74.67 14.01 75.59 14.39 75.95C14.64 76.44 15.01 78.5 15.14 79.19C15.81 82.88 16.63 87.48 20.72 90.45C24.77 93.39 29.38 92.78 33.1 92.28H33.14C33.84 92.18 35.91 91.9 36.43 91.98C36.9 92.23 38.34 93.62 38.82 94.08C41.41 96.58 44.95 100 50.12 100C55.29 100 58.68 96.72 61.42 94.08C61.95 93.57 63.34 92.23 63.77 91.99C64.31 91.9 66.39 92.18 67.09 92.27H67.16C70.86 92.77 75.47 93.39 79.52 90.45C83.6 87.48 84.43 82.88 85.1 79.18C85.22 78.49 85.59 76.44 85.82 75.97C86.2 75.6 87.93 74.68 88.59 74.32L88.63 74.3C91.79 72.62 96.11 70.31 97.69 65.45C98.04 64.36 98.22 63.21 98.22 62.01C98.22 58.65 96.83 55.77 95.6 53.21C95.28 52.54 94.3 50.51 94.26 50H94.24ZM96.28 65C94.88 69.31 90.86 71.45 87.92 73.02L87.88 73.04C86.08 74 85.04 74.61 84.65 75.07C84.63 75.1 84.61 75.12 84.59 75.15C84.28 75.65 84.02 76.86 83.65 78.92C83.03 82.36 82.25 86.65 78.64 89.27C75.06 91.87 70.77 91.3 67.33 90.84H67.27C65.23 90.56 63.92 90.43 63.32 90.6C63.29 90.6 63.26 90.62 63.23 90.63C62.72 90.85 61.85 91.64 60.4 93.03C57.85 95.48 54.68 98.54 50.11 98.54C45.54 98.54 42.22 95.36 39.81 93.03C38.4 91.67 37.48 90.84 36.93 90.61C36.9 90.6 36.87 90.59 36.84 90.58C36.67 90.53 36.43 90.51 36.14 90.51C35.44 90.51 34.39 90.63 32.93 90.83H32.88C29.43 91.3 25.14 91.87 21.56 89.27C17.95 86.64 17.18 82.36 16.56 78.92C16.19 76.85 15.92 75.63 15.59 75.11C15.57 75.08 15.55 75.05 15.53 75.03C15.15 74.59 14.11 73.99 12.29 73.01C9.19 71.35 5.33 69.29 3.93 65C3.62 64.06 3.47 63.05 3.47 62.01C3.47 58.99 4.77 56.27 5.92 53.88L5.95 53.81C6.89 51.84 7.41 50.65 7.42 50.01C7.42 50 7.42 49.99 7.42 49.98C7.4 49.32 6.86 48.07 5.93 46.14C4.77 43.73 3.47 41 3.47 37.98C3.47 36.95 3.63 35.94 3.93 34.98C5.32 30.69 9.18 28.63 12.29 26.97L12.35 26.94C14.09 26.01 15.17 25.38 15.56 24.92C15.58 24.9 15.6 24.87 15.62 24.84C15.94 24.34 16.21 23.08 16.57 21.07C17.19 17.63 17.97 13.35 21.58 10.72C25.16 8.11 29.45 8.69 32.9 9.15C35.02 9.44 36.29 9.56 36.9 9.39C36.93 9.39 36.97 9.37 37 9.36C37.51 9.14 38.38 8.34 39.84 6.95C42.25 4.63 45.56 1.45 50.13 1.45C54.7 1.45 57.87 4.5 60.41 6.95C61.82 8.31 62.74 9.14 63.29 9.38C63.32 9.39 63.36 9.41 63.39 9.41C63.97 9.56 65.22 9.44 67.32 9.16C70.78 8.69 75.08 8.11 78.66 10.72C82.27 13.35 83.04 17.62 83.66 21.05L83.68 21.14C83.99 22.84 84.28 24.3 84.64 24.87C84.66 24.9 84.68 24.92 84.7 24.95C85.08 25.4 86.13 26 87.94 26.97C91.05 28.63 94.91 30.7 96.31 34.99C96.62 35.94 96.77 36.94 96.77 37.98C96.77 41.01 95.46 43.73 94.3 46.13L94.26 46.21C93.33 48.16 92.82 49.34 92.8 49.98C92.8 49.99 92.8 50 92.8 50.01C92.82 50.66 93.36 51.91 94.29 53.85C95.45 56.25 96.75 58.97 96.75 62C96.75 63.04 96.59 64.04 96.29 64.99L96.28 65Z" fill="#0E1721"/>
  <path d="M89.31 50.0999C89.31 50.0299 89.31 49.9699 89.31 49.8999C89.34 48.5999 89.87 47.2999 91.11 44.7099L91.14 44.6399C92.18 42.4699 93.26 40.2299 93.26 37.9899C93.26 37.3199 93.16 36.6699 92.97 36.0699C92.08 33.3199 89.74 31.8999 86.27 30.0499C83.89 28.7799 82.77 28.1099 82.02 27.2099C81.9 27.0699 81.79 26.9199 81.7 26.7699C81.04 25.7399 80.73 24.4599 80.24 21.7899L80.22 21.6899C79.53 17.8599 78.91 15.2299 76.59 13.5399C75.35 12.6399 73.91 12.2399 71.91 12.2399C70.54 12.2399 69.13 12.4299 67.76 12.6199C66.44 12.7999 65.07 12.9699 64.04 12.9699C63.43 12.9699 62.93 12.9099 62.46 12.7799C62.27 12.7299 62.07 12.6599 61.89 12.5799C60.83 12.1199 59.82 11.2499 57.97 9.45994C55.13 6.72994 53.05 4.93994 50.1 4.93994C46.93 4.93994 44.43 7.34994 42.22 9.46994C40.24 11.3799 39.36 12.1299 38.36 12.5599C38.17 12.6399 37.98 12.7099 37.79 12.7599C37.29 12.8999 36.76 12.9599 36.12 12.9599C35.08 12.9599 33.77 12.7999 32.4 12.6099C31.04 12.4299 29.63 12.2399 28.27 12.2399C26.28 12.2399 24.83 12.6399 23.6 13.5399C21.29 15.2199 20.66 17.8599 19.97 21.6999C19.48 24.4099 19.18 25.6999 18.54 26.7099C18.44 26.8699 18.33 27.0199 18.21 27.1599C17.44 28.0799 16.33 28.7599 13.97 30.0199L13.91 30.0499C10.45 31.8999 8.12 33.3199 7.22 36.0699C7.02 36.6699 6.93 37.3199 6.93 37.9899C6.93 40.2199 7.96 42.3599 9.05 44.6399C10.29 47.2099 10.85 48.5899 10.88 49.8999C10.88 49.9699 10.88 50.0299 10.88 50.0999C10.85 51.4099 10.32 52.7099 9.07 55.3199L9.04 55.3899C8 57.5499 6.93 59.7899 6.93 62.0199C6.93 62.6899 7.03 63.3299 7.22 63.9199C8.12 66.6799 10.45 68.0999 13.91 69.9399L13.94 69.9499C16.3 71.2099 17.41 71.8799 18.16 72.7599C18.29 72.9099 18.41 73.0799 18.52 73.2499C19.18 74.2799 19.49 75.5899 19.98 78.3099C20.67 82.1399 21.3 84.7799 23.61 86.4699C24.85 87.3699 26.29 87.7699 28.29 87.7699C29.65 87.7699 31.05 87.5799 32.41 87.3999H32.45C33.76 87.2199 35.12 87.0399 36.15 87.0399C36.77 87.0399 37.28 87.0999 37.76 87.2299C37.94 87.2799 38.12 87.3399 38.29 87.4099C39.36 87.8599 40.37 88.7399 42.22 90.5299C44.42 92.6599 46.92 95.0599 50.1 95.0599C53.05 95.0599 55.13 93.2599 57.98 90.5299C59.96 88.6299 60.84 87.8699 61.84 87.4399C62.01 87.3699 62.19 87.2999 62.37 87.2499C62.87 87.1099 63.41 87.0399 64.07 87.0399C65.11 87.0399 66.45 87.2099 67.73 87.3799H67.79C69.15 87.5699 70.56 87.7599 71.91 87.7599C73.91 87.7599 75.35 87.3599 76.59 86.4599C78.9 84.7799 79.52 82.1399 80.22 78.2999C80.71 75.5899 81.01 74.2999 81.64 73.2899C81.74 73.1199 81.86 72.9599 81.99 72.8099C82.76 71.9099 83.87 71.2299 86.23 69.9599L86.27 69.9399C88.96 68.5099 92 66.8799 92.97 63.9099C93.16 63.3199 93.26 62.6699 93.26 61.9999C93.26 59.7699 92.23 57.6299 91.13 55.3399C89.89 52.7699 89.34 51.3999 89.3 50.0899L89.31 50.0999ZM91.59 63.4799C90.8 65.8999 88.03 67.3699 85.59 68.6799L85.55 68.6999C83.01 70.0599 81.8 70.7999 80.89 71.8899C80.72 72.0899 80.56 72.3099 80.42 72.5299C79.66 73.7399 79.32 75.1499 78.8 78.0499C78.17 81.5399 77.61 83.9299 75.75 85.2899C74.77 85.9999 73.59 86.3199 71.92 86.3199C70.66 86.3199 69.3 86.1399 67.99 85.9599H67.93C66.6 85.7699 65.21 85.5999 64.08 85.5999C63.29 85.5999 62.62 85.6799 61.99 85.8599C61.75 85.9299 61.51 86.0099 61.27 86.1099C60.06 86.6299 59.1 87.4499 56.98 89.4899C54.39 91.9799 52.51 93.6199 50.11 93.6199C47.52 93.6199 45.24 91.4299 43.24 89.4899C41.25 87.5699 40.14 86.6199 38.86 86.0799C38.63 85.9799 38.39 85.8999 38.15 85.8299C37.54 85.6599 36.91 85.5899 36.16 85.5899C35.04 85.5899 33.63 85.7699 32.27 85.9499H32.23C30.92 86.1299 29.56 86.3099 28.3 86.3099C26.63 86.3099 25.45 85.9899 24.47 85.2899C22.6 83.9199 22.04 81.5399 21.42 78.0499C20.89 75.1299 20.54 73.7099 19.75 72.4699C19.6 72.2399 19.44 72.0199 19.27 71.8199C18.37 70.7699 17.17 70.0299 14.64 68.6799C14.64 68.6799 14.61 68.6699 14.61 68.6599C11.46 66.9799 9.35 65.7099 8.62 63.4599C8.47 63.0199 8.4 62.5299 8.4 62.0099C8.4 60.1099 9.4 58.0299 10.37 56.0099L10.4 55.9399C11.75 53.1299 12.32 51.6999 12.35 50.1299C12.35 50.0399 12.35 49.9499 12.35 49.8599C12.31 48.2699 11.71 46.7699 10.37 43.9999C9.35 41.8799 8.39 39.8799 8.39 37.9799C8.39 37.4599 8.47 36.9699 8.61 36.5099C9.33 34.2799 11.45 33.0099 14.6 31.3299L14.66 31.2999C17.19 29.9499 18.4 29.1999 19.33 28.0899C19.49 27.8999 19.64 27.6899 19.78 27.4799C20.55 26.2599 20.89 24.8499 21.41 21.9499C22.04 18.4599 22.59 16.0699 24.47 14.7099C25.44 13.9999 26.62 13.6799 28.29 13.6799C29.55 13.6799 30.91 13.8599 32.22 14.0399C33.63 14.2299 35 14.3999 36.13 14.3999C36.91 14.3999 37.56 14.3199 38.19 14.1499C38.45 14.0799 38.71 13.9899 38.96 13.8799C40.16 13.3599 41.13 12.5399 43.25 10.4999C45.26 8.56994 47.54 6.37994 50.12 6.37994C52.52 6.37994 54.39 8.00994 56.98 10.4999C58.97 12.4199 60.07 13.3599 61.34 13.9099C61.59 14.0199 61.85 14.1099 62.11 14.1799C62.71 14.3399 63.33 14.4099 64.07 14.4099C65.18 14.4099 66.61 14.2299 67.98 14.0399C69.3 13.8599 70.67 13.6799 71.93 13.6799C73.6 13.6799 74.78 13.9999 75.75 14.6999C77.62 16.0599 78.18 18.4499 78.8 21.9299L78.82 22.0299C79.34 24.8999 79.69 26.2999 80.49 27.5399C80.62 27.7499 80.77 27.9399 80.93 28.1299C81.84 29.2099 83.06 29.9499 85.61 31.3099C88.76 32.9999 90.88 34.2699 91.61 36.4999C91.76 36.9499 91.83 37.4499 91.83 37.9699C91.83 39.8799 90.82 41.9699 89.85 43.9999L89.82 44.0699C88.48 46.8599 87.92 48.2799 87.88 49.8599C87.88 49.9499 87.88 50.0399 87.88 50.1299C87.92 51.7099 88.52 53.2099 89.86 55.9999C90.88 58.1099 91.84 60.1099 91.84 62.0099C91.84 62.5299 91.77 63.0199 91.62 63.4699L91.59 63.4799Z" fill="#0E1721"/>
  <path d="M72.35 60.16C72.14 60.16 71.96 60.25 71.83 60.38C71.7 60.51 71.63 60.69 71.63 60.88V72.68H52.21V52.98H63.36C63.57 52.98 63.75 52.89 63.88 52.76C64 52.63 64.08 52.45 64.08 52.26C64.08 51.86 63.76 51.53 63.35 51.53H51.48C51.08 51.53 50.75 51.85 50.75 52.26V53.08L43.17 48.75C45.25 46.56 46.42 43.36 46.42 40.3V38.55C46.42 37.21 46.17 34.63 44.53 32.44C42.89 30.25 40.27 29.09 36.97 29.09C29.99 29.09 27.52 34.18 27.52 38.54V40.29C27.52 43.35 28.69 46.55 30.77 48.74L20.58 54.56C19.48 55.19 18.79 56.37 18.79 57.64V59.5C18.79 62.79 21.47 65.46 24.75 65.46H49.19C49.73 65.46 50.25 65.38 50.75 65.24V73.4C50.75 73.8 51.07 74.13 51.48 74.13H72.35C72.75 74.13 73.08 73.81 73.08 73.4V60.88C73.08 60.48 72.76 60.15 72.35 60.15V60.16ZM28.96 40.3V38.55C28.96 36.67 29.54 30.55 36.96 30.55C44.38 30.55 44.96 36.68 44.96 38.55V40.3C44.96 43.88 43.49 46.65 41.5 48.3C41.17 48.57 40.83 48.81 40.47 49.03C39.95 49.34 39.4 49.58 38.85 49.76C38.22 49.95 37.59 50.05 36.96 50.05C36.26 50.05 35.59 49.94 34.97 49.76C34.4 49.59 33.86 49.34 33.36 49.03C33.01 48.82 32.68 48.57 32.37 48.3C30.19 46.42 28.95 43.28 28.95 40.3H28.96ZM50.75 63.73C50.26 63.91 49.74 64.02 49.19 64.02H24.75C22.26 64.02 20.24 62 20.24 59.51V57.65C20.24 56.9 20.64 56.2 21.3 55.83L31.9 49.77C33.31 50.84 35.01 51.5 36.97 51.5C38.93 51.5 40.64 50.84 42.04 49.77L50.75 54.75V63.73Z" fill="#0E1721"/>
  <path d="M75.2 45.76C74.92 45.48 74.46 45.48 74.17 45.76L71 48.9301L65.56 54.37L59.55 60.3801C59.46 60.4701 59.4 60.58 59.36 60.71L57.98 65.85C57.91 66.1 57.98 66.3701 58.17 66.5501C58.31 66.6901 58.49 66.7601 58.68 66.7601C58.74 66.7601 58.81 66.76 58.87 66.74L64.01 65.3601C64.13 65.33 64.24 65.26 64.34 65.17L70.45 59.0601L75.79 53.7201L78.96 50.55C79.24 50.27 79.24 49.8101 78.96 49.5201L75.2 45.76ZM69.4 58.0601L63.44 64.02L59.7 65.02L60.7 61.28L66.6 55.3801L71.51 50.4701L74.25 53.21L69.4 58.0601ZM75.28 52.19L72.54 49.4501L74.69 47.3L77.43 50.0401L75.28 52.19Z" fill="#0E1721"/>
</svg>
