<svg xmlns="http://www.w3.org/2000/svg" width="100" height="100" viewBox="0 0 100 100" fill="none">
  <path d="M93.51 50C93.52 49.38 94.4 47.55 94.93 46.45C96.12 43.98 97.47 41.18 97.47 37.98C97.47 36.87 97.3 35.79 96.97 34.77C95.48 30.2 91.48 28.06 88.25 26.33C87.25 25.8 85.58 24.91 85.23 24.49C84.9 23.98 84.56 22.08 84.35 20.93C83.71 17.37 82.91 12.94 79.06 10.14C75.24 7.35998 70.79 7.95998 67.19 8.43998C66.03 8.59998 64.09 8.85998 63.54 8.70998C63.01 8.47998 61.63 7.14998 60.88 6.42998C58.24 3.88998 54.95 0.72998 50.09 0.72998C45.23 0.72998 41.79 4.02998 39.29 6.43998C38.49 7.20998 37.16 8.48998 36.68 8.69998C36.1 8.85998 34.15 8.59998 32.97 8.43998C29.4 7.95998 24.95 7.35998 21.13 10.14C17.28 12.94 16.48 17.38 15.84 20.95C15.64 22.09 15.29 23.99 14.99 24.46C14.61 24.91 12.87 25.84 11.93 26.34C8.70998 28.06 4.70998 30.2 3.22998 34.77C2.89998 35.8 2.72998 36.88 2.72998 37.99C2.72998 41.17 4.06998 43.96 5.26998 46.46C5.75998 47.48 6.67998 49.38 6.68998 50C6.67998 50.62 5.78998 52.45 5.25998 53.57C4.07998 56.04 2.73998 58.83 2.73998 62.02C2.73998 63.13 2.90998 64.21 3.23998 65.23C4.71998 69.8 8.71998 71.94 11.94 73.66C12.94 74.2 14.61 75.09 14.97 75.51C15.29 76.01 15.64 77.92 15.84 79.06C16.48 82.63 17.28 87.06 21.13 89.87C24.95 92.65 29.4 92.05 32.98 91.57C34.07 91.42 36.1 91.14 36.65 91.29C37.17 91.51 38.51 92.79 39.31 93.56C41.81 95.97 45.24 99.27 50.11 99.27C54.98 99.27 58.26 96.1 60.91 93.56C61.71 92.79 63.04 91.51 63.52 91.3C64.11 91.13 66.14 91.41 67.24 91.56C70.82 92.04 75.26 92.64 79.08 89.86C82.92 87.06 83.73 82.63 84.37 79.05C84.57 77.91 84.92 76 85.21 75.53C85.59 75.09 87.25 74.2 88.27 73.65C91.32 72.03 95.49 69.79 96.98 65.21C97.31 64.19 97.48 63.11 97.48 62C97.48 58.81 96.13 56.01 94.94 53.53C94.45 52.51 93.53 50.61 93.52 49.98L93.51 50ZM90.48 55.67V55.69C91.54 57.88 92.54 59.95 92.54 62.02C92.54 62.62 92.45 63.18 92.28 63.71C91.4 66.4 88.5 67.95 85.93 69.32L85.89 69.34C83.44 70.65 82.28 71.36 81.44 72.36C81.29 72.54 81.15 72.72 81.03 72.92C80.33 74.03 80.01 75.38 79.51 78.18C78.85 81.84 78.26 84.36 76.17 85.88C75.06 86.69 73.75 87.04 71.92 87.04C70.61 87.04 69.23 86.85 67.89 86.68H67.83C66.53 86.5 65.16 86.32 64.08 86.32C63.36 86.32 62.75 86.39 62.18 86.55C61.97 86.61 61.76 86.68 61.55 86.77C60.44 87.25 59.52 88.03 57.47 90C54.75 92.62 52.77 94.33 50.1 94.33C47.21 94.33 44.83 92.03 42.72 90C40.8 88.15 39.74 87.24 38.56 86.74C38.36 86.65 38.15 86.58 37.94 86.52C37.39 86.37 36.82 86.3 36.14 86.3C35.07 86.3 33.68 86.48 32.35 86.66H32.31C30.97 86.84 29.59 87.03 28.28 87.03C26.44 87.03 25.13 86.67 24.03 85.87C21.94 84.34 21.35 81.83 20.69 78.17C20.18 75.35 19.85 73.99 19.13 72.85C19 72.65 18.86 72.46 18.71 72.28C17.88 71.32 16.73 70.62 14.28 69.31H14.25C10.95 67.53 8.71998 66.19 7.90998 63.69C7.73998 63.17 7.64998 62.61 7.64998 62.01C7.64998 59.94 8.68998 57.79 9.68998 55.69L9.71998 55.62C11.02 52.91 11.57 51.54 11.6 50.1C11.6 50.02 11.6 49.94 11.6 49.87C11.57 48.42 10.98 46.98 9.68998 44.31C8.63998 42.11 7.63998 40.04 7.63998 37.97C7.63998 37.38 7.72998 36.8 7.89998 36.27C8.70998 33.78 10.93 32.44 14.24 30.67L14.3 30.64C16.75 29.33 17.91 28.62 18.75 27.61C18.89 27.44 19.02 27.26 19.14 27.08C19.84 25.97 20.17 24.61 20.67 21.81C21.33 18.15 21.92 15.64 24.01 14.11C25.12 13.3 26.43 12.94 28.26 12.94C29.57 12.94 30.95 13.13 32.29 13.31C33.68 13.5 35.01 13.66 36.1 13.66C36.81 13.66 37.4 13.59 37.96 13.43C38.19 13.37 38.41 13.29 38.63 13.19C39.73 12.71 40.65 11.93 42.7 9.94998C44.81 7.91998 47.2 5.61998 50.07 5.61998C52.74 5.61998 54.72 7.32998 57.43 9.93998C59.35 11.79 60.41 12.71 61.57 13.21C61.79 13.3 62.01 13.38 62.24 13.44C62.78 13.58 63.34 13.65 64.01 13.65C65.08 13.65 66.48 13.47 67.82 13.29C69.17 13.11 70.56 12.92 71.87 12.92C73.7 12.92 75.02 13.28 76.12 14.08C78.21 15.6 78.8 18.11 79.46 21.77L79.48 21.87C79.99 24.64 80.31 25.98 81.04 27.12C81.16 27.3 81.28 27.47 81.42 27.63C82.26 28.62 83.42 29.33 85.89 30.64C89.2 32.41 91.43 33.76 92.24 36.25C92.41 36.78 92.5 37.35 92.5 37.94C92.5 40.01 91.46 42.18 90.45 44.28L90.42 44.35C89.13 47.04 88.59 48.4 88.55 49.84C88.55 49.92 88.55 50 88.55 50.07C88.58 51.51 89.16 52.95 90.45 55.62L90.48 55.67Z" fill="#4279B6"/>
  <path d="M60.0601 54.82L49.2601 48.65H48.8601C47.5201 49.73 45.8801 50.4 44.0201 50.4C42.1601 50.4 40.5301 49.74 39.1801 48.65H38.7801L27.9801 54.82C27.1001 55.32 26.5601 56.26 26.5601 57.27V59.13C26.5601 62.02 28.9001 64.37 31.8001 64.37H56.2401C59.1301 64.37 61.4801 62.03 61.4801 59.13V57.27C61.4801 56.26 60.9401 55.32 60.0601 54.82Z" fill="#FCCD2A"/>
  <path d="M90.48 55.67C89.2001 53 88.62 51.57 88.58 50.12C88.58 50.04 88.58 49.96 88.58 49.89C88.61 48.45 89.16 47.09 90.45 44.4L90.48 44.33C91.4901 42.23 92.53 40.07 92.53 37.99C92.53 37.39 92.44 36.82 92.27 36.3C91.46 33.81 89.23 32.46 85.92 30.69C83.46 29.38 82.29 28.67 81.45 27.68C81.31 27.52 81.18 27.34 81.07 27.16C80.34 26.03 80.01 24.69 79.51 21.91L79.49 21.81C78.83 18.15 78.24 15.65 76.15 14.12C75.04 13.32 73.73 12.96 71.9 12.96C70.58 12.96 69.19 13.15 67.85 13.33C66.51 13.51 65.11 13.69 64.04 13.69C63.37 13.69 62.81 13.62 62.27 13.48C62.04 13.42 61.81 13.34 61.6 13.25C60.44 12.75 59.38 11.84 57.46 9.98003C54.75 7.37003 52.77 5.66003 50.1 5.66003C47.22 5.66003 44.83 7.96003 42.73 9.99003C40.68 11.96 39.76 12.75 38.66 13.23C38.44 13.32 38.22 13.4 37.99 13.47C37.43 13.62 36.84 13.7 36.13 13.7C35.04 13.7 33.7 13.53 32.32 13.35C30.98 13.17 29.6 12.98 28.29 12.98C26.46 12.98 25.15 13.34 24.04 14.15C21.95 15.67 21.36 18.19 20.7 21.85C20.2 24.65 19.87 26.01 19.17 27.12C19.05 27.31 18.92 27.48 18.78 27.65C17.93 28.66 16.77 29.37 14.33 30.68L14.27 30.71C10.97 32.48 8.74004 33.82 7.93004 36.31C7.76004 36.84 7.67004 37.41 7.67004 38.01C7.67004 40.07 8.67004 42.15 9.72004 44.35C11.01 47.02 11.59 48.46 11.63 49.91C11.63 49.99 11.63 50.07 11.63 50.14C11.6 51.58 11.05 52.94 9.75004 55.66L9.72004 55.73C8.72004 57.82 7.68004 59.98 7.68004 62.05C7.68004 62.65 7.77004 63.21 7.94004 63.73C8.75004 66.23 10.98 67.58 14.28 69.34H14.31C16.76 70.66 17.91 71.37 18.74 72.33C18.89 72.51 19.04 72.7 19.16 72.9C19.88 74.04 20.21 75.4 20.72 78.22C21.38 81.88 21.97 84.39 24.06 85.92C25.16 86.72 26.48 87.08 28.31 87.08C29.62 87.08 31 86.89 32.34 86.72H32.38C33.71 86.53 35.11 86.36 36.17 86.36C36.85 86.36 37.43 86.43 37.97 86.58C38.18 86.64 38.39 86.71 38.59 86.8C39.76 87.3 40.82 88.21 42.75 90.06C44.86 92.09 47.24 94.39 50.13 94.39C52.81 94.39 54.79 92.68 57.5 90.06C59.55 88.09 60.47 87.3 61.58 86.83C61.78 86.74 61.99 86.67 62.21 86.61C62.78 86.45 63.38 86.38 64.11 86.38C65.2 86.38 66.56 86.55 67.86 86.73H67.92C69.26 86.92 70.64 87.1 71.95 87.1C73.78 87.1 75.1 86.74 76.2 85.94C78.29 84.42 78.88 81.91 79.54 78.24C80.04 75.44 80.37 74.08 81.06 72.98C81.18 72.78 81.32 72.6 81.47 72.42C82.31 71.43 83.47 70.72 85.92 69.4L85.96 69.38C88.53 68.01 91.43 66.46 92.31 63.77C92.48 63.25 92.57 62.68 92.57 62.08C92.57 60.01 91.58 57.94 90.52 55.75V55.73L90.48 55.67ZM61.48 59.13C61.48 62.02 59.14 64.37 56.24 64.37H31.8C28.91 64.37 26.56 62.03 26.56 59.13V57.27C26.56 56.26 27.1 55.32 27.98 54.82L38.78 48.65H39.04C40.58 49.43 42.32 49.88 44.17 49.88C46.02 49.88 47.74 49.43 49.28 48.66L60.06 54.82C60.94 55.32 61.48 56.26 61.48 57.27V59.13Z" fill="white"/>
  <path d="M91.14 55.37V55.35C89.89 52.78 89.34 51.41 89.3 50.1C89.3 50.03 89.3 49.97 89.3 49.9C89.33 48.6 89.86 47.3 91.1 44.71L91.13 44.64C92.17 42.47 93.25 40.23 93.25 37.99C93.25 37.82 93.25 37.66 93.23 37.49C93.19 37 93.1 36.52 92.96 36.07C92.34 34.18 91.05 32.92 89.17 31.71C88.32 31.16 87.34 30.62 86.26 30.05C83.8801 28.78 82.76 28.11 82.01 27.21C81.89 27.07 81.78 26.92 81.69 26.77C81.03 25.74 80.72 24.46 80.23 21.79L80.21 21.69C79.78 19.3 79.37 17.37 78.56 15.85C78.08 14.94 77.4501 14.17 76.58 13.54C75.65 12.86 74.61 12.47 73.3 12.31C72.86 12.26 72.4 12.23 71.9 12.23C70.53 12.23 69.12 12.42 67.75 12.61C66.6 12.77 65.4 12.92 64.43 12.95C64.29 12.95 64.16 12.95 64.03 12.95C63.42 12.95 62.92 12.89 62.45 12.76C62.26 12.71 62.06 12.64 61.88 12.56C61.48 12.39 61.09 12.16 60.66 11.84C59.94 11.31 59.11 10.55 57.95 9.43003C55.82 7.38003 54.12 5.86003 52.16 5.23003C51.51 5.02003 50.82 4.91003 50.09 4.91003C46.92 4.91003 44.42 7.32003 42.21 9.44003C40.23 11.35 39.35 12.1 38.35 12.53C38.17 12.61 37.98 12.68 37.78 12.73C37.28 12.87 36.75 12.93 36.11 12.93C35.06 12.93 33.76 12.77 32.39 12.58C31.03 12.4 29.62 12.21 28.26 12.21C26.27 12.21 24.82 12.61 23.59 13.51C21.28 15.19 20.65 17.83 19.96 21.67C19.51 24.21 19.21 25.5 18.65 26.49C18.61 26.56 18.57 26.62 18.53 26.68C18.43 26.84 18.32 26.99 18.2 27.13C17.43 28.05 16.32 28.73 13.96 29.99L13.9 30.02C10.44 31.87 8.11004 33.29 7.21004 36.04C7.01004 36.64 6.92004 37.29 6.92004 37.96C6.92004 40.19 7.95004 42.34 9.04004 44.61C10.28 47.18 10.84 48.56 10.87 49.87C10.87 49.94 10.87 50 10.87 50.07C10.84 51.13 10.49 52.19 9.69004 53.95C9.50004 54.36 9.30004 54.8 9.06004 55.29L9.03004 55.36C7.99004 57.52 6.92004 59.76 6.92004 61.99C6.92004 62.66 7.02004 63.3 7.21004 63.89C7.27004 64.06 7.33004 64.23 7.39004 64.39C8.40004 66.83 10.65 68.18 13.92 69.93C16.28 71.19 17.39 71.86 18.14 72.74C18.27 72.89 18.39 73.05 18.5 73.23C19.16 74.26 19.47 75.57 19.96 78.29C20.65 82.12 21.28 84.76 23.59 86.45C24.83 87.35 26.27 87.75 28.27 87.75C29.63 87.75 31.03 87.56 32.4 87.38H32.44C33.75 87.2 35.11 87.02 36.14 87.02C36.76 87.02 37.27 87.08 37.75 87.21C37.93 87.26 38.11 87.32 38.28 87.39C39.35 87.84 40.36 88.72 42.22 90.51C44.42 92.64 46.92 95.04 50.1 95.04C53.05 95.04 55.13 93.24 57.98 90.51C59.96 88.61 60.84 87.85 61.84 87.42C62.01 87.35 62.19 87.28 62.37 87.23C62.87 87.09 63.41 87.02 64.07 87.02C65.11 87.02 66.4501 87.19 67.73 87.36H67.79C69.15 87.55 70.5601 87.74 71.91 87.74C73.91 87.74 75.35 87.34 76.59 86.44C78.9 84.76 79.5201 82.12 80.22 78.28C80.71 75.57 81.01 74.28 81.64 73.27C81.75 73.1 81.86 72.94 81.99 72.79C82.76 71.89 83.87 71.21 86.23 69.94L86.27 69.92C88.96 68.49 92 66.86 92.97 63.89C93.16 63.3 93.26 62.65 93.26 61.98C93.26 61.84 93.26 61.7 93.25 61.56C93.13 59.48 92.16 57.46 91.14 55.33V55.37ZM91.59 63.48C90.8 65.9 88.03 67.37 85.59 68.68L85.55 68.7C85.23 68.87 84.94 69.03 84.66 69.18C82.72 70.25 81.69 70.94 80.89 71.89C80.72 72.09 80.56 72.31 80.42 72.53C79.66 73.74 79.32 75.15 78.8 78.05C78.1701 81.54 77.61 83.93 75.75 85.29C74.77 86 73.59 86.32 71.92 86.32C70.66 86.32 69.3 86.14 67.99 85.96H67.93C66.6 85.77 65.21 85.6 64.08 85.6C63.29 85.6 62.62 85.68 61.99 85.86C61.75 85.93 61.5 86.01 61.27 86.11C60.06 86.63 59.1 87.45 56.98 89.49C54.39 91.98 52.51 93.62 50.11 93.62C47.52 93.62 45.24 91.43 43.24 89.49C41.25 87.57 40.14 86.62 38.86 86.08C38.63 85.98 38.39 85.9 38.15 85.83C37.54 85.66 36.91 85.58 36.16 85.58C35.05 85.58 33.63 85.76 32.27 85.94H32.23C30.92 86.12 29.56 86.3 28.3 86.3C26.63 86.3 25.45 85.98 24.47 85.28C22.6 83.91 22.04 81.53 21.42 78.04C20.89 75.12 20.54 73.7 19.75 72.46C19.6 72.23 19.44 72.01 19.27 71.81C18.37 70.76 17.16 70.02 14.64 68.67L14.61 68.66C11.46 66.98 9.35004 65.71 8.62004 63.46C8.47004 63.02 8.40004 62.53 8.40004 62.01C8.40004 60.11 9.40004 58.03 10.37 56.01L10.4 55.94C11.66 53.3 12.24 51.88 12.34 50.42C12.34 50.32 12.35 50.22 12.35 50.13C12.35 50.04 12.35 49.95 12.35 49.86C12.31 48.27 11.71 46.77 10.37 44C9.35004 41.88 8.39004 39.88 8.39004 37.98C8.39004 37.46 8.47004 36.97 8.61004 36.51C9.33004 34.28 11.45 33.01 14.6 31.33L14.66 31.3C17.19 29.95 18.4 29.2 19.33 28.09C19.49 27.9 19.64 27.69 19.77 27.48C20.54 26.26 20.88 24.85 21.4 21.95C22.03 18.46 22.58 16.07 24.46 14.71C25.43 14 26.61 13.68 28.28 13.68C29.54 13.68 30.9 13.86 32.21 14.04C33.62 14.23 34.98 14.4 36.12 14.4C36.9 14.4 37.55 14.32 38.18 14.15C38.44 14.08 38.7 13.99 38.94 13.88C40.14 13.36 41.11 12.54 43.23 10.5C45.24 8.57003 47.51 6.38003 50.1 6.38003C52.5 6.38003 54.37 8.01003 56.96 10.5C58.95 12.42 60.05 13.37 61.32 13.91C61.57 14.02 61.83 14.11 62.09 14.18C62.69 14.34 63.31 14.41 64.05 14.41C65.16 14.41 66.59 14.23 67.96 14.04C69.28 13.86 70.65 13.68 71.92 13.68C73.59 13.68 74.77 14 75.74 14.7C77.61 16.06 78.17 18.45 78.79 21.93L78.81 22.03C79.33 24.9 79.68 26.3 80.48 27.54C80.61 27.75 80.76 27.94 80.92 28.13C81.83 29.21 83.05 29.95 85.6 31.31C88.75 33 90.87 34.27 91.6 36.5C91.75 36.96 91.82 37.45 91.82 37.97C91.82 39.88 90.81 41.97 89.84 43.99L89.81 44.06C88.47 46.85 87.91 48.27 87.87 49.85C87.87 49.94 87.87 50.03 87.87 50.12C87.87 50.22 87.87 50.32 87.88 50.42C87.98 51.89 88.59 53.38 89.84 55.97C89.84 55.97 89.84 55.98 89.84 55.99C90.86 58.1 91.82 60.1 91.82 62C91.82 62.52 91.75 63.01 91.6 63.46L91.59 63.48Z" fill="#0E1721"/>
  <path d="M94.24 50C94.28 49.51 95.2 47.57 95.55 46.84L95.59 46.77C96.81 44.23 98.2 41.35 98.2 37.99C98.2 36.8 98.02 35.64 97.67 34.55C96.09 29.7 91.94 27.48 88.6 25.7C88 25.38 86.19 24.42 85.82 24.06C85.58 23.59 85.23 21.65 85.09 20.9L85.07 20.8C84.41 17.11 83.58 12.53 79.49 9.54999C75.43 6.59999 70.81 7.21999 67.1 7.71999C66.4 7.80999 64.32 8.09999 63.79 8.01999C63.47 7.84999 62.67 7.12999 61.39 5.89999C58.65 3.26999 55.25 -0.0100098 50.1 -0.0100098C44.95 -0.0100098 41.39 3.39999 38.79 5.90999C38.26 6.41999 36.87 7.74999 36.44 8.00999C35.89 8.09999 33.78 7.80999 33.07 7.71999C29.37 7.21999 24.76 6.59999 20.7 9.54999C16.62 12.52 15.79 17.12 15.12 20.82C15 21.51 14.63 23.56 14.4 24.03C14.02 24.4 12.25 25.35 11.66 25.66L11.6 25.69C8.27001 27.47 4.12001 29.69 2.55001 34.53C2.19001 35.63 2.01001 36.79 2.01001 37.97C2.01001 41.32 3.40001 44.21 4.62001 46.76C5.49001 48.56 5.94001 49.65 5.97001 49.99C5.93001 50.48 5.00001 52.44 4.64001 53.18L4.61001 53.25C3.39001 55.78 2.01001 58.66 2.01001 62.01C2.01001 63.21 2.19001 64.36 2.55001 65.45C4.12001 70.3 8.27001 72.51 11.63 74.3C12.29 74.66 14.02 75.58 14.4 75.93C14.65 76.42 15.02 78.48 15.14 79.17C15.8 82.86 16.63 87.46 20.72 90.43C24.77 93.38 29.38 92.76 33.09 92.26H33.13C33.83 92.16 35.9 91.88 36.43 91.96C36.9 92.21 38.34 93.6 38.82 94.06C41.41 96.56 44.95 99.98 50.12 99.98C55.29 99.98 58.68 96.7 61.42 94.06C61.95 93.55 63.34 92.21 63.77 91.97C64.31 91.88 66.39 92.16 67.09 92.25H67.15C70.85 92.75 75.46 93.37 79.51 90.43C83.59 87.46 84.42 82.86 85.09 79.16C85.21 78.47 85.58 76.42 85.81 75.95C86.19 75.58 87.91 74.66 88.58 74.3L88.62 74.28C91.78 72.6 96.1 70.29 97.68 65.43C98.03 64.34 98.21 63.19 98.21 61.99C98.21 58.63 96.82 55.75 95.59 53.19C95.27 52.52 94.29 50.49 94.25 49.98L94.24 50ZM96.28 65C94.88 69.31 90.86 71.45 87.92 73.02L87.88 73.04C86.08 74 85.04 74.61 84.65 75.07C84.63 75.1 84.61 75.12 84.59 75.15C84.28 75.65 84.02 76.86 83.65 78.92C83.03 82.36 82.25 86.65 78.64 89.27C75.06 91.87 70.77 91.3 67.32 90.84H67.26C65.21 90.56 63.91 90.43 63.3 90.6C63.27 90.6 63.24 90.62 63.21 90.63C62.7 90.85 61.83 91.64 60.38 93.03C57.83 95.48 54.66 98.54 50.09 98.54C45.52 98.54 42.2 95.36 39.79 93.03C38.38 91.67 37.46 90.84 36.91 90.61C36.88 90.6 36.85 90.59 36.82 90.58C36.65 90.53 36.41 90.51 36.12 90.51C35.42 90.51 34.37 90.63 32.9 90.83H32.86C29.41 91.3 25.12 91.87 21.54 89.27C17.93 86.64 17.16 82.36 16.54 78.92C16.17 76.85 15.9 75.63 15.57 75.11C15.55 75.08 15.53 75.05 15.51 75.03C15.13 74.59 14.09 73.99 12.27 73.01C9.17001 71.35 5.31001 69.29 3.91001 65C3.60001 64.06 3.45001 63.05 3.45001 62.01C3.45001 58.99 4.75001 56.27 5.90001 53.88L5.93001 53.81C6.87001 51.85 7.38001 50.66 7.40001 50.01C7.40001 50 7.40001 49.99 7.40001 49.98C7.38001 49.32 6.84001 48.07 5.91001 46.14C4.75001 43.73 3.45001 41 3.45001 37.98C3.45001 36.95 3.61001 35.94 3.91001 34.98C5.30001 30.69 9.16001 28.63 12.27 26.97L12.33 26.94C14.07 26.01 15.15 25.38 15.54 24.92C15.56 24.9 15.58 24.87 15.6 24.84C15.92 24.34 16.19 23.08 16.55 21.07C17.17 17.63 17.94 13.35 21.56 10.72C25.15 8.10999 29.43 8.68999 32.88 9.14999C35 9.43999 36.27 9.55999 36.88 9.38999C36.91 9.38999 36.95 9.36999 36.98 9.35999C37.49 9.13999 38.36 8.33999 39.81 6.94999C42.22 4.62999 45.53 1.44999 50.1 1.44999C54.67 1.44999 57.84 4.49999 60.38 6.94999C61.79 8.30999 62.71 9.13999 63.26 9.37999C63.29 9.38999 63.33 9.40999 63.36 9.40999C63.94 9.56999 65.19 9.43999 67.29 9.15999C70.75 8.68999 75.05 8.10999 78.63 10.72C82.24 13.35 83.01 17.62 83.63 21.05L83.65 21.15C83.96 22.85 84.25 24.31 84.61 24.87C84.63 24.9 84.65 24.92 84.67 24.95C85.05 25.4 86.1 26 87.91 26.97C91.02 28.63 94.88 30.7 96.28 34.99C96.59 35.94 96.74 36.94 96.74 37.98C96.74 41.01 95.43 43.73 94.27 46.13L94.23 46.21C93.3 48.16 92.79 49.33 92.77 49.98C92.77 49.99 92.77 50 92.77 50.01C92.79 50.66 93.33 51.91 94.26 53.85C95.42 56.25 96.72 58.97 96.72 62C96.72 63.04 96.56 64.04 96.26 64.99L96.28 65Z" fill="#0E1721"/>
  <path d="M62.2 59.13V57.27C62.2 56 61.52 54.82 60.41 54.19L50.22 48.37C52.25 46.25 53.47 43.12 53.47 39.92V38.17C53.47 36.83 53.22 34.25 51.58 32.06C49.94 29.87 47.32 28.71 44.02 28.71C37.04 28.71 34.57 33.8 34.57 38.16V39.91C34.57 43.11 35.79 46.23 37.82 48.36L27.63 54.18C26.53 54.81 25.84 55.99 25.84 57.26V59.12C25.84 62.41 28.51 65.08 31.8 65.08H56.24C59.53 65.08 62.2 62.41 62.2 59.12V59.13ZM36.02 39.92V38.17C36.02 36.29 36.6 30.17 44.02 30.17C51.44 30.17 52.02 36.3 52.02 38.17V39.92C52.02 43.15 50.63 46.28 48.4 48.08C47.1 49.13 45.63 49.66 44.02 49.66C42.41 49.66 40.94 49.13 39.64 48.08C37.4 46.27 36.02 43.14 36.02 39.92ZM27.29 59.13V57.27C27.29 56.52 27.69 55.82 28.35 55.45L38.96 49.39C40.45 50.52 42.2 51.12 44.03 51.12C45.86 51.12 47.6 50.52 49.1 49.39L59.71 55.45C60.2 55.73 60.55 56.19 60.69 56.72C60.74 56.9 60.76 57.08 60.76 57.27V59.13C60.76 61.62 58.74 63.64 56.25 63.64H31.81C29.32 63.64 27.3 61.62 27.3 59.13H27.29Z" fill="#0E1721"/>
  <path d="M79.87 55.42C79.58 55.25 79.22 55.3 78.99 55.53L78.94 55.58C78.94 55.58 78.89 55.63 78.86 55.66L73.84 60.68C73.78 60.74 73.74 60.78 73.7 60.81C73.67 60.78 73.63 60.75 73.58 60.7L69.68 56.8C69.68 56.8 69.6 56.71 69.57 56.68C69.59 56.65 69.63 56.61 69.68 56.56C70.51 55.73 71.34 54.9 72.17 54.07C73 53.24 73.83 52.41 74.66 51.58C74.7 51.54 74.74 51.5 74.78 51.45C74.82 51.41 74.86 51.36 74.92 51.3C75.08 51.13 75.15 50.9 75.11 50.67C75.07 50.44 74.92 50.24 74.71 50.14C74.63 50.1 74.57 50.07 74.5 50.03C74.32 49.93 74.11 49.82 73.85 49.76C72.46 49.48 71.11 49.46 69.82 49.68C67.67 50.06 66.1 50.91 65.01 52.3C63.05 54.81 62.48 57.63 63.31 60.7C63.41 61.09 63.55 61.46 63.69 61.81C63.69 61.81 63.69 61.82 63.69 61.83L51.1 72.3C50.36 72.92 49.84 73.71 49.56 74.65C49.51 74.82 49.47 74.98 49.43 75.15C49.41 75.23 49.39 75.31 49.37 75.39C49.36 75.45 49.35 75.51 49.35 75.57V76.57C49.35 76.63 49.35 76.7 49.37 76.76C49.37 76.79 49.39 76.83 49.4 76.86C49.4 76.88 49.41 76.9 49.42 76.94C49.85 78.92 51.06 80.24 52.95 80.75C53.43 80.88 53.89 80.94 54.34 80.94C55.72 80.94 56.96 80.35 57.92 79.2C60.71 75.89 63.52 72.5 66.24 69.22L68.4 66.62C69.45 67.07 70.5 67.33 71.54 67.41C71.69 67.42 71.84 67.43 71.99 67.43C73.18 67.46 74.37 67.25 75.54 66.8C75.78 66.71 76 66.61 76.22 66.51C77.75 65.81 78.86 64.85 79.59 63.59C80.78 61.54 81.12 59.23 80.63 56.55C80.54 56.03 80.29 55.66 79.87 55.42ZM75.03 65.45C72.96 66.24 70.91 66.16 68.78 65.2C68.42 65.04 67.9 64.96 67.45 65.52L65.14 68.31C62.43 71.59 59.62 74.97 56.83 78.28C55.92 79.36 54.71 79.73 53.34 79.36C51.98 78.99 51.17 78.1 50.86 76.66C50.85 76.6 50.83 76.53 50.81 76.47V75.67C50.82 75.61 50.84 75.55 50.85 75.49C50.88 75.35 50.91 75.21 50.96 75.08C51.16 74.42 51.52 73.86 52.04 73.43L64.88 62.75C64.95 62.69 65.01 62.64 65.07 62.58C65.22 62.43 65.29 62.23 65.28 62.03C65.28 61.96 65.26 61.89 65.24 61.83C65.18 61.66 65.11 61.49 65.05 61.32C64.92 60.98 64.8 60.66 64.72 60.34C64.01 57.74 64.5 55.34 66.16 53.22C67.01 52.13 68.3 51.44 70.08 51.13C71.06 50.96 72.05 50.95 73.09 51.12C72.44 51.77 71.8 52.41 71.15 53.06C70.32 53.89 69.49 54.72 68.66 55.55C68.39 55.82 68.08 56.19 68.08 56.69C68.08 57.2 68.39 57.57 68.66 57.84L72.56 61.74C73.34 62.52 74.08 62.51 74.87 61.72L79.28 57.31C79.59 59.44 79.28 61.27 78.34 62.89C77.67 64.04 76.62 64.86 75.03 65.47V65.45Z" fill="#0E1721"/>
</svg>
