<svg xmlns="http://www.w3.org/2000/svg" width="100" height="100" viewBox="0 0 100 100" fill="none">
  <path d="M65.55 80.61L49.96 90.68L34.37 80.61L18.79 70.53V79.06L34.37 89.14L49.96 99.22L65.55 89.14L81.14 79.06V70.53L65.55 80.61Z" fill="#4279B6"/>
  <path d="M49.96 100C49.81 100 49.66 99.96 49.53 99.87L18.38 79.73C18.15 79.59 18 79.34 18 79.06V70.53C18 70.1 18.35 69.74 18.79 69.74C18.94 69.74 19.09 69.78 19.22 69.87L49.97 89.75L65.13 79.95L80.72 69.87C80.85 69.79 80.99 69.74 81.15 69.74C81.58 69.74 81.94 70.09 81.94 70.53V79.06C81.94 79.35 81.78 79.6 81.55 79.74L50.4 99.88C50.27 99.96 50.12 100.01 49.97 100.01L49.96 100ZM19.57 78.64L49.96 98.29L80.35 78.64V71.98L50.38 91.35C50.12 91.52 49.79 91.52 49.53 91.35L19.57 71.97V78.63V78.64Z" fill="#0E1721"/>
  <path d="M65.55 63.54L49.96 73.62L34.37 63.54L18.79 53.47V59.76V62L34.37 72.08L49.96 82.15L65.55 72.08L81.14 62V59.76V53.47L65.55 63.54Z" fill="#4279B6"/>
  <path d="M49.96 82.94C49.81 82.94 49.66 82.9 49.53 82.81L18.38 62.67C18.15 62.53 18 62.28 18 62V53.47C18 53.04 18.35 52.68 18.79 52.68C18.94 52.68 19.09 52.72 19.22 52.81L49.97 72.69L65.13 62.89L80.72 52.81C80.85 52.73 80.99 52.68 81.15 52.68C81.58 52.68 81.94 53.03 81.94 53.47V62C81.94 62.29 81.79 62.54 81.56 62.67L50.4 82.81C50.27 82.89 50.12 82.94 49.97 82.94H49.96ZM19.57 61.57L49.96 81.21L80.35 61.57V54.91L50.38 74.28C50.12 74.45 49.79 74.45 49.53 74.28L19.57 54.91V61.57Z" fill="#0E1721"/>
  <path d="M81.14 21.14H18.79V27.65H81.14V21.14Z" fill="#3C8645"/>
  <path d="M81.14 28.44H18.79C18.36 28.44 18 28.09 18 27.65V21.14C18 20.71 18.35 20.35 18.79 20.35H81.14C81.57 20.35 81.93 20.7 81.93 21.14V27.65C81.93 28.08 81.58 28.44 81.14 28.44ZM19.57 26.86H80.35V21.92H19.57V26.86Z" fill="#0E1721"/>
  <path d="M18.79 38.43V42.69V44.94L34.37 55.01L49.96 65.09L65.55 55.01L81.14 44.94V42.69V38.43V34.16H18.79V38.43Z" fill="#4279B6"/>
  <path d="M49.96 65.87C49.81 65.87 49.66 65.83 49.53 65.74L18.38 45.61C18.15 45.47 18 45.22 18 44.94V34.16C18 33.73 18.35 33.37 18.79 33.37H81.14C81.57 33.37 81.93 33.72 81.93 34.16V44.94C81.93 45.21 81.79 45.47 81.56 45.61L50.4 65.75C50.27 65.83 50.12 65.88 49.97 65.88L49.96 65.87ZM19.57 44.51L49.96 64.16L80.35 44.51V34.95H19.57V44.51Z" fill="#0E1721"/>
  <path d="M46.89 9.71001L44.95 15.34L48.89 12.78L49.8 12.18L50.71 12.74L54.71 15.16L52.91 9.81001L53.58 9.27001L57.19 6.28001L51.72 6.27001L50.93 3.91001L49.98 0.790009L49.93 0.940009L49.92 0.910009L48.77 4.30001L48.09 6.26001L42.73 6.25001L46.34 9.26001L46.89 9.71001Z" fill="#FCCD2A"/>
  <path d="M44.95 16.13C44.78 16.13 44.61 16.07 44.47 15.96C44.21 15.75 44.1 15.4 44.21 15.08L45.98 9.96L42.24 6.85C41.99 6.64 41.89 6.29 42 5.98C42.11 5.67 42.41 5.46 42.74 5.46H47.54L48.04 4.03L49.19 0.640003C49.21 0.580003 49.24 0.520003 49.27 0.470003C49.39 0.170003 49.68 -0.0299966 50.01 -0.0199966C50.35 -0.0199966 50.65 0.210003 50.75 0.540003L51.7 3.67L52.3 5.47H57.21C57.54 5.47 57.84 5.69 57.95 6C58.06 6.31 57.97 6.66 57.71 6.87L53.84 10.06L55.46 14.89C55.56 15.2 55.46 15.55 55.21 15.75C54.95 15.96 54.59 15.98 54.31 15.81L49.82 13.09L45.38 15.98C45.25 16.07 45.1 16.11 44.95 16.11V16.13ZM44.91 7.04L47.4 9.11C47.65 9.32 47.75 9.66 47.64 9.97L46.44 13.44L49.37 11.53C49.62 11.37 49.95 11.36 50.21 11.52L53.29 13.38L52.18 10.07C52.08 9.76 52.18 9.42 52.42 9.21L55.02 7.06H51.72C51.38 7.06 51.08 6.84 50.98 6.52L50.19 4.17L49.93 3.33L48.83 6.53C48.72 6.85 48.42 7.06 48.09 7.06H44.91V7.04Z" fill="#0E1721"/>
  <path d="M70.08 9.71001L68.13 15.34L72.07 12.78L72.98 12.18L73.9 12.74L77.89 15.16L76.09 9.81001L76.76 9.27001L80.38 6.28001L74.9 6.27001L74.11 3.91001L73.16 0.790009L73.11 0.940009L73.1 0.910009L71.95 4.30001L71.27 6.26001L65.91 6.25001L69.53 9.26001L70.08 9.71001Z" fill="#FCCD2A"/>
  <path d="M68.13 16.13C67.96 16.13 67.79 16.07 67.65 15.96C67.39 15.75 67.28 15.4 67.39 15.08L69.16 9.96L65.41 6.85C65.16 6.64 65.06 6.29 65.17 5.98C65.28 5.67 65.58 5.46 65.91 5.46H70.71L71.21 4.03L72.36 0.640003C72.38 0.580003 72.41 0.520003 72.44 0.470003C72.56 0.170003 72.85 -0.0299966 73.18 -0.0199966C73.52 -0.0199966 73.82 0.210003 73.92 0.540003L74.87 3.67L75.47 5.47H80.38C80.71 5.47 81.01 5.69 81.12 6C81.23 6.31 81.14 6.66 80.88 6.87L77.01 10.06L78.63 14.89C78.74 15.2 78.63 15.55 78.38 15.75C78.12 15.96 77.76 15.98 77.48 15.81L72.99 13.09L68.55 15.98C68.42 16.07 68.27 16.11 68.12 16.11L68.13 16.13ZM68.09 7.04L70.58 9.11C70.83 9.32 70.93 9.66 70.82 9.97L69.62 13.44L72.55 11.53C72.8 11.37 73.13 11.36 73.38 11.52L76.46 13.38L75.35 10.07C75.25 9.76 75.35 9.42 75.59 9.21L78.19 7.06H74.89C74.55 7.06 74.25 6.84 74.15 6.52L73.36 4.17L73.1 3.32L72 6.52C71.89 6.84 71.59 7.05 71.26 7.05H68.08L68.09 7.04Z" fill="#0E1721"/>
  <path d="M23.71 9.71001L21.77 15.34L25.71 12.78L26.61 12.18L27.53 12.74L31.53 15.16L29.73 9.81001L30.39 9.27001L34.01 6.28001L28.54 6.27001L27.75 3.91001L26.8 0.790009L26.75 0.940009L26.74 0.910009L25.58 4.30001L24.91 6.26001L19.55 6.25001L23.16 9.26001L23.71 9.71001Z" fill="#FCCD2A"/>
  <path d="M21.77 16.13C21.6 16.13 21.43 16.07 21.29 15.96C21.03 15.75 20.92 15.4 21.03 15.08L22.8 9.96L19.05 6.85C18.8 6.64 18.7 6.29 18.81 5.98C18.92 5.67 19.22 5.45 19.55 5.46H24.35L24.85 4.03L26 0.640003C26.02 0.580003 26.05 0.520003 26.08 0.470003C26.2 0.170003 26.5 -0.0299966 26.82 -0.0199966C27.16 -0.0199966 27.46 0.210003 27.56 0.540003L28.51 3.67L29.11 5.47H34.02C34.35 5.47 34.65 5.69 34.76 6C34.87 6.31 34.78 6.66 34.52 6.87L30.65 10.06L32.27 14.89C32.37 15.2 32.27 15.55 32.02 15.75C31.76 15.96 31.4 15.98 31.12 15.81L26.63 13.09L22.19 15.98C22.06 16.07 21.91 16.11 21.76 16.11L21.77 16.13ZM21.73 7.04L24.22 9.11C24.47 9.32 24.57 9.66 24.46 9.97L23.26 13.44L26.19 11.53C26.44 11.37 26.77 11.36 27.03 11.52L30.11 13.38L29 10.07C28.9 9.76 29 9.42 29.24 9.21L31.84 7.06H28.54C28.2 7.06 27.9 6.84 27.8 6.52L27.01 4.17L26.75 3.33L25.65 6.53C25.54 6.85 25.24 7.06 24.91 7.06H21.73V7.04Z" fill="#0E1721"/>
</svg>
