<svg xmlns="http://www.w3.org/2000/svg" width="100" height="100" viewBox="0 0 100 100" fill="none">
  <path d="M52.63 13.74V17.86C52.07 17.8 51.51 17.74 50.93 17.69V13.74C50.93 11.71 49.27 10.04 47.23 10.04C45.19 10.04 43.53 11.7 43.53 13.74V17.71C42.95 17.75 42.39 17.81 41.83 17.86V13.74C41.83 10.78 44.25 8.34003 47.23 8.34003C50.21 8.34003 52.63 10.78 52.63 13.74Z" fill="#2D557F"/>
  <path d="M89.28 82.66C88.78 83.63 87.79 84.25 86.69 84.25H6.07998C4.93998 84.25 3.92998 83.59 3.44998 82.55C2.98998 81.52 3.13998 80.32 3.89998 79.45L14.64 66.93C14.81 66.72 14.93 66.45 14.93 66.16V53.39C14.93 42.32 17.6 33.55 22.88 27.38C27.47 22.04 33.81 18.85 41.83 17.88C42.39 17.82 42.95 17.76 43.53 17.73C44.73 17.61 45.97 17.58 47.23 17.58C48.49 17.58 49.73 17.62 50.93 17.72C51.51 17.78 52.07 17.84 52.63 17.89C54 18.06 55.34 18.3 56.62 18.61C56.47 19.15 56.37 19.71 56.35 20.27C55.17 20 53.93 19.77 52.63 19.61C52.07 19.53 51.51 19.47 50.93 19.44C49.73 19.34 48.51 19.29 47.23 19.29C45.95 19.29 44.73 19.35 43.53 19.44C42.95 19.48 42.39 19.54 41.83 19.61C25.52 21.68 16.61 33.49 16.61 53.4V66.17C16.61 66.87 16.38 67.52 15.91 68.05L5.16998 80.57C4.85998 80.94 4.79998 81.42 4.99998 81.87C5.19998 82.32 5.61998 82.57 6.07998 82.57H86.68C87.14 82.57 87.55 82.32 87.76 81.91C87.97 81.5 87.93 81.04 87.66 80.65L78.37 67.97C78 67.47 77.81 66.87 77.81 66.25V53.4C77.81 51.37 77.71 49.37 77.54 47.48C77.46 46.71 77.37 45.93 77.25 45.2H78.95C79.07 45.9 79.14 46.59 79.22 47.31C79.41 49.26 79.51 51.32 79.51 53.41V66.26C79.51 66.51 79.59 66.76 79.74 66.98L89.01 79.68C89.67 80.55 89.76 81.71 89.26 82.7L89.28 82.66Z" fill="#4279B6"/>
  <path d="M54.77 86.57H37.97C37.51 86.57 37.14 86.96 37.14 87.42C37.14 92.51 41.28 96.67 46.37 96.67C51.46 96.67 55.62 92.51 55.62 87.42C55.62 86.96 55.25 86.57 54.77 86.57ZM46.37 94.97C42.5 94.97 39.31 92.03 38.88 88.27H53.88C53.45 92.02 50.26 94.97 46.37 94.97Z" fill="#2D557F"/>
  <path d="M5.09994 40.72C5.09994 40.72 5.06994 40.72 5.05994 40.72C4.58994 40.7 4.22994 40.3 4.24994 39.84C5.62994 8.30002 30.1799 7.00002 32.9699 6.96002H33.0199C33.4899 6.92002 33.8799 7.27002 33.9199 7.74002C33.9599 8.21002 33.5899 8.61002 33.1199 8.65002C33.1099 8.65002 33.0699 8.65002 32.9999 8.65002C31.3199 8.68002 25.3899 9.05002 19.4399 12.7C11.0499 17.85 6.50994 27.01 5.93994 39.91C5.91994 40.37 5.53994 40.72 5.08994 40.72H5.09994Z" fill="#2D557F"/>
  <path d="M0.849947 18.72C0.739947 18.72 0.639947 18.7 0.529947 18.66C0.0999466 18.48 -0.110053 17.99 0.0599466 17.56C2.73995 10.95 7.09995 6.09 13.0199 3.09C13.4399 2.88 13.9499 3.05 14.1599 3.46C14.3699 3.88 14.1999 4.39 13.7899 4.6C8.24995 7.41 4.15995 11.98 1.62995 18.19C1.49995 18.52 1.17995 18.72 0.839947 18.72H0.849947Z" fill="#2D557F"/>
  <path d="M91.7 12.41H64.63C60.8 12.41 57.57 15.02 56.62 18.58C56.47 19.12 56.37 19.68 56.35 20.24C56.33 20.39 56.33 20.57 56.33 20.72V36.84C56.33 41.43 60.07 45.16 64.63 45.16H91.7C96.29 45.16 100 41.43 100 36.84V20.72C100 16.13 96.28 12.4 91.7 12.4V12.41ZM98.32 36.85C98.32 40.51 95.34 43.47 91.7 43.47H64.63C60.99 43.47 58.01 40.51 58.01 36.85V20.69C58.01 20.11 58.09 19.55 58.24 19.01C58.99 16.18 61.59 14.11 64.63 14.11H91.7C95.34 14.11 98.32 17.07 98.32 20.73V36.85Z" fill="#4279B6"/>
  <path d="M81.6699 20.61C81.5499 20.49 81.4199 20.46 81.2399 20.46H78.2599C78.1399 20.46 78.0499 20.46 77.9499 20.48C77.8699 20.52 77.7799 20.56 77.6799 20.62L72.1999 24.86C72.0499 24.96 71.9499 25.09 71.9299 25.27C71.9099 25.42 71.9299 25.58 72.0299 25.73L73.4399 27.57C73.5599 27.71 73.6699 27.78 73.8299 27.82C73.9899 27.86 74.1399 27.82 74.2799 27.7L77.5499 25.2V36.54C77.5499 36.69 77.6099 36.83 77.7199 36.95C77.8299 37.07 77.9699 37.14 78.1499 37.14H81.2499C81.4199 37.14 81.5599 37.06 81.6799 36.95C81.7799 36.83 81.8299 36.7 81.8299 36.54V21.04C81.8299 20.87 81.7699 20.73 81.6799 20.61H81.6699Z" fill="#2D557F"/>
</svg>
