<svg xmlns="http://www.w3.org/2000/svg" width="100" height="100" viewBox="0 0 100 100" fill="none">
  <path d="M42.72 27.65V13.76C42.72 11.25 44.76 9.20996 47.27 9.20996C49.78 9.20996 51.82 11.25 51.82 13.76V27.65" fill="#FCCD2A"/>
  <path d="M51.83 28.5C51.36 28.5 50.98 28.12 50.98 27.65V13.76C50.98 11.72 49.32 10.06 47.28 10.06C45.24 10.06 43.58 11.72 43.58 13.76V27.65C43.58 28.12 43.2 28.5 42.73 28.5C42.26 28.5 41.88 28.12 41.88 27.65V13.76C41.88 10.78 44.3 8.35999 47.28 8.35999C50.26 8.35999 52.68 10.78 52.68 13.76V27.65C52.68 28.12 52.3 28.5 51.83 28.5Z" fill="#0E1721"/>
  <path d="M79.1599 67.51C78.8999 67.16 78.7599 66.73 78.7599 66.3V53.43C78.7599 32.15 68.5499 18.42 47.2699 18.42C25.9899 18.42 15.7799 32.15 15.7799 53.43V66.21C15.7799 66.7 15.5999 67.17 15.2899 67.55L4.53994 80.09C3.39994 81.42 4.33994 83.48 6.09994 83.48H86.7899C88.4699 83.48 89.4399 81.57 88.4499 80.22L79.1699 67.52L79.1599 67.51Z" fill="#4279B6"/>
  <path d="M86.79 84.33H6.09996C4.94996 84.33 3.93996 83.68 3.45996 82.64C2.97996 81.6 3.14996 80.41 3.88996 79.54L14.64 67C14.83 66.78 14.93 66.5 14.93 66.22V53.44C14.93 42.34 17.61 33.58 22.9 27.4C28.48 20.88 36.68 17.58 47.27 17.58C57.86 17.58 66.06 20.88 71.64 27.4C76.93 33.58 79.61 42.34 79.61 53.44V66.31C79.61 66.56 79.69 66.82 79.84 67.02L89.12 79.72C89.77 80.61 89.86 81.77 89.36 82.75C88.86 83.73 87.87 84.34 86.77 84.34L86.79 84.33ZM47.28 19.28C27.52 19.28 16.64 31.41 16.64 53.44V66.22C16.64 66.91 16.39 67.58 15.94 68.11L5.18996 80.65C4.87996 81.02 4.80996 81.5 5.00996 81.94C5.20996 82.38 5.61996 82.64 6.09996 82.64H86.79C87.25 82.64 87.65 82.39 87.86 81.98C88.07 81.57 88.03 81.1 87.76 80.72L78.48 68.02C78.11 67.52 77.92 66.93 77.92 66.31V53.44C77.92 31.41 67.04 19.28 47.28 19.28Z" fill="#0E1721"/>
  <path d="M54.84 87.51C54.84 92.15 51.08 95.92 46.43 95.92C41.78 95.92 38.02 92.16 38.02 87.51H54.83H54.84Z" fill="#FCCD2A"/>
  <path d="M46.43 96.77C41.33 96.77 37.17 92.62 37.17 87.51C37.17 87.04 37.55 86.66 38.02 86.66H54.83C55.3 86.66 55.68 87.04 55.68 87.51C55.68 92.61 51.53 96.77 46.42 96.77H46.43ZM38.92 88.36C39.34 92.13 42.55 95.07 46.43 95.07C50.31 95.07 53.52 92.13 53.94 88.36H38.92Z" fill="#0E1721"/>
  <path d="M5.09994 40.77C5.09994 40.77 5.06994 40.77 5.05994 40.77C4.58994 40.75 4.22994 40.35 4.24994 39.88C5.63994 8.31001 30.2099 7.01001 33.0099 6.96001H33.0599C33.5299 6.92001 33.9199 7.28001 33.9599 7.74001C33.9999 8.21001 33.6299 8.62001 33.1599 8.65001C33.1499 8.65001 33.1099 8.65001 33.0399 8.65001C31.3599 8.68001 25.4199 9.05001 19.4699 12.7C11.0699 17.86 6.51994 27.02 5.95994 39.94C5.93994 40.4 5.55994 40.75 5.10994 40.75L5.09994 40.77Z" fill="#0E1721"/>
  <path d="M0.849947 18.74C0.739947 18.74 0.639947 18.72 0.529947 18.68C0.0999466 18.5 -0.110053 18.01 0.0599466 17.57C2.74995 10.96 7.10995 6.09 13.0299 3.09C13.4499 2.88 13.9599 3.05 14.1699 3.46C14.3799 3.88 14.2099 4.39 13.7999 4.6C8.25995 7.41 4.15995 11.99 1.63995 18.21C1.50995 18.54 1.18995 18.74 0.849947 18.74Z" fill="#0E1721"/>
  <path d="M91.8 13.27H64.7C60.5744 13.27 57.23 16.6144 57.23 20.74V36.9C57.23 41.0255 60.5744 44.37 64.7 44.37H91.8C95.9256 44.37 99.27 41.0255 99.27 36.9V20.74C99.27 16.6144 95.9256 13.27 91.8 13.27Z" fill="#FC8B27"/>
  <path d="M91.8 45.1H64.71C60.19 45.1 56.51 41.42 56.51 36.9V20.75C56.51 16.23 60.19 12.55 64.71 12.55H91.8C96.32 12.55 100 16.23 100 20.75V36.9C100 41.42 96.32 45.1 91.8 45.1ZM64.7 14C60.98 14 57.96 17.03 57.96 20.74V36.89C57.96 40.61 60.99 43.63 64.7 43.63H91.79C95.51 43.63 98.53 40.6 98.53 36.89V20.74C98.53 17.02 95.5 14 91.79 14H64.7Z" fill="#0E1721"/>
  <path d="M78.23 37.17C78.07 37.17 77.93 37.11 77.81 36.99C77.69 36.87 77.63 36.73 77.63 36.57V25.21L74.36 27.71C74.22 27.82 74.07 27.86 73.92 27.83C73.77 27.8 73.64 27.71 73.53 27.57L72.12 25.73C72.02 25.59 71.99 25.43 72.01 25.26C72.03 25.09 72.13 24.96 72.28 24.87L77.77 20.62C77.87 20.56 77.96 20.51 78.04 20.49C78.13 20.47 78.23 20.45 78.34 20.45H81.32C81.5 20.45 81.64 20.51 81.75 20.62C81.86 20.73 81.92 20.87 81.92 21.05V36.56C81.92 36.72 81.86 36.86 81.75 36.98C81.64 37.1 81.5 37.16 81.32 37.16H78.22L78.23 37.17Z" fill="#0E1721"/>
</svg>
