<svg xmlns="http://www.w3.org/2000/svg" width="100" height="100" viewBox="0 0 100 100" fill="none">
  <path d="M43.6 19.1H56.4L50 14.49L43.6 19.1Z" fill="#FCCD2A"/>
  <path d="M73.3 31.28V33.48H76.35L73.3 31.28Z" fill="#FCCD2A"/>
  <path d="M26.71 33.48V31.28L23.65 33.48H26.71Z" fill="#FCCD2A"/>
  <path d="M22.41 34.45C22.31 34.47 22.21 34.5 22.12 34.54L23.02 35.19L23.94 35.86L26.7 37.85V34.39H22.94C22.76 34.39 22.58 34.41 22.4 34.45H22.41Z" fill="#FCCD2A"/>
  <path d="M77.59 34.45C77.42 34.41 77.24 34.39 77.05 34.39H73.29V37.85L76.05 35.86L76.97 35.19L77.87 34.54C77.77 34.5 77.68 34.47 77.58 34.45H77.59Z" fill="#FCCD2A"/>
  <path d="M54.07 46.9399C54.07 46.8799 54.07 46.8199 54.04 46.7599C53.95 46.4799 53.67 46.3299 53.41 46.1899C53.19 46.0699 53.08 46.0099 53.01 45.9199C53 45.9099 52.99 45.8899 52.98 45.8799C52.92 45.7799 52.89 45.6599 52.84 45.4099C52.79 45.1099 52.73 44.7999 52.5 44.6299C52.27 44.4599 51.96 44.4999 51.67 44.5399C51.41 44.5799 51.28 44.5899 51.17 44.5599C51.15 44.5599 51.13 44.5499 51.12 44.5399C51.02 44.4999 50.92 44.4099 50.75 44.2399C50.53 44.0299 50.31 43.8099 50.01 43.8099C49.71 43.8099 49.48 44.0399 49.27 44.2399C49.08 44.4199 49 44.4899 48.91 44.5299C48.89 44.5299 48.87 44.5399 48.86 44.5499C48.75 44.5799 48.62 44.5699 48.35 44.5399C48.06 44.4999 47.75 44.4599 47.52 44.6299C47.29 44.7999 47.23 45.0999 47.18 45.3999C47.13 45.6599 47.11 45.7799 47.04 45.8699C47.04 45.8899 47.02 45.8999 47.01 45.9099C46.94 45.9999 46.83 46.0599 46.61 46.1799C46.34 46.3199 46.07 46.4699 45.98 46.7499C45.96 46.8099 45.95 46.8699 45.95 46.9299C45.95 47.1399 46.05 47.3499 46.15 47.5599C46.27 47.7999 46.32 47.9299 46.32 48.0599C46.32 48.1999 46.27 48.3199 46.15 48.5699C46.05 48.7799 45.95 48.9899 45.95 49.1999C45.95 49.2599 45.95 49.3199 45.98 49.3799C46.07 49.6599 46.34 49.8099 46.61 49.9499C46.79 50.0499 46.89 50.0999 46.96 50.1699C46.98 50.1899 47 50.1999 47.01 50.2199C47.02 50.2299 47.03 50.2499 47.04 50.2699C47.09 50.3499 47.12 50.4399 47.15 50.5899C47.15 50.6399 47.17 50.6899 47.18 50.7399C47.2 50.8499 47.22 50.9699 47.25 51.0699C47.3 51.2399 47.38 51.3999 47.52 51.4999C47.75 51.6699 48.05 51.6299 48.35 51.5899C48.51 51.5699 48.62 51.5599 48.7 51.5599C48.76 51.5599 48.81 51.5599 48.85 51.5799C48.87 51.5799 48.88 51.5899 48.9 51.5999C49 51.6399 49.1 51.7299 49.27 51.8899C49.48 52.0899 49.71 52.3199 50.01 52.3199C50.31 52.3199 50.53 52.0999 50.75 51.8899C50.94 51.7099 51.02 51.6399 51.11 51.5999C51.13 51.5999 51.14 51.5899 51.16 51.5799C51.27 51.5499 51.41 51.5599 51.66 51.5899C51.96 51.6299 52.27 51.6699 52.5 51.4999C52.64 51.3999 52.72 51.2399 52.77 51.0699C52.8 50.9599 52.82 50.8499 52.84 50.7399C52.85 50.6799 52.86 50.6299 52.87 50.5899C52.9 50.4399 52.93 50.3399 52.98 50.2699C52.99 50.2499 53 50.2399 53.01 50.2199C53.03 50.1999 53.05 50.1799 53.07 50.1599C53.14 50.0999 53.24 50.0399 53.42 49.9499C53.67 49.8099 53.96 49.6599 54.05 49.3799C54.07 49.3199 54.08 49.2599 54.08 49.1999C54.08 48.9899 53.98 48.7799 53.88 48.5699C53.76 48.3199 53.71 48.1999 53.71 48.0699C53.71 47.9299 53.76 47.8099 53.88 47.5599C53.98 47.3499 54.08 47.1399 54.08 46.9299L54.07 46.9399Z" fill="#FCCD2A"/>
  <path d="M99.48 77.3099C99.04 76.7699 98.39 76.4699 97.69 76.4699H91.78V27.7899C91.78 24.6999 89.27 22.1899 86.18 22.1899H73.3V21.4799C73.3 20.1699 72.23 19.0999 70.92 19.0999H58.68L50.39 13.1299C50.16 12.9599 49.84 12.9599 49.61 13.1299L41.32 19.0999H29.08C27.77 19.0999 26.7 20.1699 26.7 21.4799V22.1899H13.82C10.73 22.1899 8.22 24.6999 8.22 27.7899V76.4599H2.31C1.62 76.4599 0.969997 76.7699 0.519997 77.3099C0.0799967 77.8499 -0.0900033 78.5399 0.0399967 79.2299L0.499997 81.5199C1.02 84.1299 3.33 86.0199 5.99 86.0199H94.01C96.67 86.0199 98.98 84.1299 99.5 81.5199L99.96 79.2299C100.1 78.5499 99.92 77.8499 99.48 77.3099ZM94.01 84.6799H5.99C3.96 84.6799 2.2 83.2399 1.81 81.2499L1.35 78.9599C1.29 78.6699 1.37 78.3799 1.55 78.1499C1.74 77.9199 2.02 77.7899 2.31 77.7899H34.68L36.64 78.7699L37.97 79.4399H62.03L63.36 78.7699L65.32 77.7899H97.69C97.98 77.7899 98.26 77.9199 98.45 78.1499C98.64 78.3799 98.71 78.6699 98.65 78.9599L98.19 81.2499C97.79 83.2399 96.03 84.6799 94.01 84.6799ZM9.55 27.7899C9.55 25.4399 11.46 23.5199 13.82 23.5199H26.7V27.0499H16.35C15.58 27.0499 14.87 27.2999 14.29 27.7199C13.97 27.9499 13.69 28.2299 13.47 28.5399C13.05 29.1199 12.8 29.8299 12.8 30.5999V76.4599H9.55V27.7899ZM28.04 22.1999V21.4899C28.04 20.9099 28.51 20.4399 29.09 20.4399H70.91C71.49 20.4399 71.96 20.9099 71.96 21.4899V38.8099L69.54 40.5499V24.1699C69.54 23.1499 68.71 22.3199 67.69 22.3199H32.3C31.28 22.3199 30.45 23.1499 30.45 24.1699V40.5399L28.03 38.7999V22.1999H28.04ZM50 14.4899L56.4 19.0999H43.6L50 14.4899ZM61.72 78.1099H38.29L35 76.4699H14.13V30.5999C14.13 30.4499 14.15 30.2999 14.18 30.1499C14.21 30.0199 14.24 29.8999 14.29 29.7799C14.31 29.7199 14.34 29.6599 14.37 29.6099C14.73 28.8799 15.49 28.3799 16.36 28.3799H26.71V29.6299L20.72 33.9499C20.59 34.0399 20.51 34.1699 20.47 34.3199C19.84 34.9699 19.48 35.8299 19.48 36.7399V67.2299C19.48 68.2299 19.91 69.1899 20.67 69.8499C21.3 70.3999 22.11 70.7099 22.95 70.7099H77.05C77.89 70.7099 78.7 70.4099 79.33 69.8499C80.09 69.1899 80.52 68.2399 80.52 67.2299V36.7399C80.52 35.8299 80.16 34.9699 79.53 34.3199C79.49 34.1699 79.4 34.0399 79.28 33.9499L73.29 29.6299V28.3799H83.64C84.86 28.3799 85.86 29.3699 85.86 30.5999V76.4599H64.99L61.7 78.0999L61.72 78.1099ZM26.71 33.4799H23.66L26.71 31.2799V33.4799ZM26.71 34.5199V37.8399L23.95 35.8499L23.03 35.1799L22.13 34.5299C22.23 34.4899 22.32 34.4599 22.42 34.4399C22.59 34.3999 22.77 34.3799 22.96 34.3799H26.72V34.5199H26.71ZM31.25 35.8499V24.1699C31.25 23.5899 31.72 23.1199 32.3 23.1199H67.69C68.27 23.1199 68.74 23.5899 68.74 24.1699V41.1199L60.05 47.3799H57.45C57.23 47.3799 57.05 47.5599 57.05 47.7799C57.05 47.9999 57.23 48.1799 57.45 48.1799H58.94L54.62 51.2899L54.41 51.4399L54.23 51.5699L53.84 51.8499L49.99 54.6199L46.14 51.8499L45.75 51.5699L45.57 51.4399L45.36 51.2899L41.04 48.1799H42.53C42.75 48.1799 42.93 47.9999 42.93 47.7799C42.93 47.5599 42.75 47.3799 42.53 47.3799H39.93L31.24 41.1199V35.8499H31.25ZM73.3 35.8499V34.3799H77.06C77.24 34.3799 77.42 34.3999 77.6 34.4399C77.7 34.4599 77.8 34.4899 77.89 34.5299L76.99 35.1799L76.07 35.8499L73.31 37.8399V35.8499H73.3ZM73.3 31.2799L76.35 33.4799H73.3V31.2799ZM77.67 69.2899C77.47 69.3499 77.26 69.3799 77.05 69.3799H22.95C22.74 69.3799 22.53 69.3499 22.33 69.2899L36.8 58.8599L37.72 58.1899L38.64 57.5199L41.27 55.6299L41.82 55.2299L42.37 54.8299L45.19 52.7999L48.01 54.8299L48.56 55.2299L49.11 55.6299L49.6 55.9899C49.83 56.1599 50.15 56.1599 50.38 55.9899L50.87 55.6299L51.42 55.2299L51.97 54.8299L54.79 52.7999L57.61 54.8299L58.16 55.2299L58.71 55.6299L61.34 57.5199L62.26 58.1899L63.18 58.8599L77.65 69.2899H77.67ZM20.8 67.2399V36.7499C20.8 36.2999 20.94 35.8799 21.19 35.5199L26.7 39.4899L27.37 39.9699L28.04 40.4499L30.46 42.1899L30.86 42.4799L31.26 42.7699L37.67 47.3899L38.78 48.1899L44.06 51.9999L40.1 54.8499L39.55 55.2499L39 55.6499L36.37 57.5399L35.45 58.2099L34.53 58.8799L21.2 68.4799C20.95 68.1199 20.81 67.6899 20.81 67.2499L20.8 67.2399ZM79.2 67.2399C79.2 67.6899 79.06 68.1099 78.81 68.4699L65.48 58.8699L64.56 58.1999L63.64 57.5299L61.01 55.6399L60.46 55.2399L59.91 54.8399L55.95 51.9899L61.23 48.1799L62.34 47.3799L68.75 42.7599L69.15 42.4699L69.55 42.1799L71.97 40.4399L72.64 39.9599L73.31 39.4799L78.82 35.5099C79.07 35.8699 79.21 36.2999 79.21 36.7399V67.2299L79.2 67.2399ZM90.45 76.4599H87.2V30.5999C87.2 29.8299 86.95 29.1199 86.53 28.5399C86.3 28.2199 86.02 27.9399 85.71 27.7199C85.13 27.2999 84.42 27.0499 83.65 27.0499H73.3V23.5199H86.18C88.53 23.5199 90.45 25.4299 90.45 27.7899V76.4599Z" fill="#0E1721"/>
  <path d="M64.73 30.5499C64.73 30.5499 64.76 30.5499 64.78 30.5499C65.04 30.5499 65.27 30.3499 65.29 30.0799C65.32 29.7999 65.11 29.5399 64.82 29.5199C54.98 28.5899 45 28.5899 35.16 29.5199C34.88 29.5499 34.67 29.7999 34.69 30.0799C34.72 30.3599 34.97 30.5699 35.25 30.5499C45.03 29.6299 54.94 29.6299 64.71 30.5499H64.73Z" fill="#0E1721"/>
  <path d="M63.65 34.1H36.36C36.18 34.1 36.03 34.22 35.98 34.39C35.97 34.43 35.96 34.46 35.96 34.5C35.96 34.5 35.96 34.52 35.96 34.53C35.97 34.74 36.14 34.9 36.36 34.9H63.65C63.86 34.9 64.03 34.73 64.05 34.53C64.05 34.53 64.05 34.51 64.05 34.5C64.05 34.46 64.05 34.42 64.03 34.39C63.98 34.22 63.83 34.1 63.65 34.1Z" fill="#0E1721"/>
  <path d="M63.65 36.95H36.36C36.14 36.95 35.96 37.13 35.96 37.35C35.96 37.57 36.14 37.75 36.36 37.75H63.65C63.87 37.75 64.05 37.57 64.05 37.35C64.05 37.13 63.87 36.95 63.65 36.95Z" fill="#0E1721"/>
  <path d="M64.05 40.1999C64.05 39.9799 63.87 39.7999 63.65 39.7999H36.36C36.14 39.7999 35.96 39.9799 35.96 40.1999C35.96 40.4199 36.14 40.5999 36.36 40.5999H63.65C63.87 40.5999 64.05 40.4199 64.05 40.1999Z" fill="#0E1721"/>
  <path d="M54.87 46.9399C54.87 46.7899 54.85 46.6499 54.8 46.5099C54.61 45.9299 54.11 45.6599 53.79 45.4899C53.74 45.4599 53.69 45.4399 53.66 45.4199C53.65 45.3699 53.64 45.2999 53.63 45.2599C53.56 44.8999 53.47 44.3499 52.97 43.9899C52.48 43.6299 51.93 43.7099 51.56 43.7599C51.53 43.7599 51.46 43.7699 51.4 43.7799C51.37 43.7599 51.34 43.7199 51.29 43.6799C51.02 43.4199 50.61 43.0299 50 43.0299C49.39 43.0299 48.96 43.4399 48.7 43.6799C48.68 43.6999 48.63 43.7399 48.59 43.7799C48.53 43.7799 48.46 43.7599 48.43 43.7599C48.07 43.7099 47.51 43.6399 47.02 43.9899C46.53 44.3499 46.43 44.8999 46.36 45.2599C46.35 45.3199 46.34 45.3699 46.33 45.4099C46.28 45.4399 46.22 45.4699 46.2 45.4799C45.87 45.6599 45.38 45.9199 45.19 46.4999C45.15 46.6399 45.12 46.7799 45.12 46.9299C45.12 47.3199 45.27 47.6399 45.4 47.8999C45.43 47.9699 45.46 48.0199 45.47 48.0599C45.45 48.1199 45.41 48.1899 45.39 48.2199C45.27 48.4799 45.11 48.7999 45.11 49.1899C45.11 49.3399 45.13 49.4799 45.18 49.6199C45.37 50.1999 45.86 50.4699 46.19 50.6399C46.19 50.6399 46.21 50.6399 46.22 50.6499C46.25 50.6699 46.29 50.6899 46.33 50.7099C46.34 50.7699 46.35 50.8399 46.36 50.8599C46.37 50.9299 46.39 50.9999 46.4 51.0799C46.43 51.2199 46.47 51.3799 46.54 51.5399C46.63 51.7499 46.78 51.9699 47.01 52.1399C47.5 52.4999 48.05 52.4199 48.42 52.3699C48.45 52.3699 48.52 52.3599 48.57 52.3499C48.6 52.3799 48.63 52.4099 48.68 52.4499C48.93 52.6899 49.35 53.0999 49.98 53.0999C50.61 53.0999 51.01 52.7099 51.28 52.4499C51.3 52.4299 51.35 52.3899 51.39 52.3499C51.45 52.3499 51.52 52.3699 51.55 52.3699C51.91 52.4199 52.46 52.4899 52.95 52.1399C53.18 51.9699 53.33 51.7599 53.42 51.5399C53.49 51.3799 53.53 51.2299 53.56 51.0799C53.58 50.9999 53.59 50.9299 53.6 50.8599C53.6 50.8299 53.62 50.7599 53.63 50.7099C53.67 50.6899 53.71 50.6699 53.74 50.6499C53.74 50.6499 53.76 50.6399 53.77 50.6399C54.08 50.4799 54.59 50.1999 54.78 49.6199C54.82 49.4799 54.85 49.3399 54.85 49.1899C54.85 48.7999 54.7 48.4799 54.57 48.2199C54.56 48.1899 54.52 48.1199 54.5 48.0599C54.52 47.9999 54.56 47.9299 54.58 47.8999C54.7 47.6399 54.86 47.3199 54.86 46.9299L54.87 46.9399ZM53.01 50.2299C53.01 50.2299 52.99 50.2599 52.98 50.2799C52.93 50.3499 52.91 50.4399 52.87 50.5999C52.87 50.6499 52.85 50.6999 52.84 50.7499C52.82 50.8599 52.8 50.9799 52.77 51.0799C52.72 51.2499 52.64 51.4099 52.5 51.5099C52.27 51.6799 51.97 51.6399 51.66 51.5999C51.4 51.5699 51.27 51.5599 51.16 51.5899C51.14 51.5899 51.13 51.5999 51.11 51.6099C51.02 51.6499 50.93 51.7199 50.75 51.8999C50.53 52.1099 50.31 52.3299 50.01 52.3299C49.71 52.3299 49.48 52.0999 49.27 51.8999C49.1 51.7299 49 51.6499 48.9 51.6099C48.88 51.6099 48.87 51.5999 48.85 51.5899C48.8 51.5799 48.76 51.5699 48.7 51.5699C48.61 51.5699 48.51 51.5799 48.35 51.5999C48.06 51.6399 47.75 51.6799 47.52 51.5099C47.38 51.4099 47.3 51.2499 47.25 51.0799C47.22 50.9699 47.2 50.8599 47.18 50.7499C47.17 50.6899 47.16 50.6399 47.15 50.5999C47.12 50.4399 47.09 50.3499 47.04 50.2799C47.03 50.2599 47.02 50.2499 47.01 50.2299C46.99 50.2099 46.98 50.1999 46.96 50.1799C46.89 50.1199 46.79 50.0599 46.61 49.9599C46.35 49.8199 46.07 49.6699 45.98 49.3899C45.96 49.3299 45.95 49.2699 45.95 49.2099C45.95 48.9999 46.05 48.7899 46.15 48.5799C46.27 48.3299 46.32 48.2099 46.32 48.0699C46.32 47.9399 46.26 47.8099 46.15 47.5699C46.05 47.3699 45.95 47.1499 45.95 46.9399C45.95 46.8799 45.95 46.8199 45.98 46.7599C46.07 46.4799 46.34 46.3399 46.61 46.1899C46.83 46.0699 46.94 46.0099 47.01 45.9199C47.02 45.9099 47.03 45.8899 47.04 45.8799C47.1 45.7799 47.13 45.6599 47.18 45.4099C47.23 45.1199 47.29 44.8099 47.52 44.6399C47.75 44.4699 48.05 44.5099 48.35 44.5499C48.61 44.5899 48.74 44.5999 48.86 44.5599C48.88 44.5599 48.9 44.5499 48.91 44.5399C49 44.4999 49.09 44.4299 49.27 44.2499C49.48 44.0499 49.71 43.8199 50.01 43.8199C50.31 43.8199 50.53 44.0399 50.75 44.2499C50.92 44.4199 51.02 44.4999 51.12 44.5499C51.14 44.5499 51.16 44.5599 51.17 44.5699C51.28 44.5999 51.41 44.5899 51.67 44.5499C51.97 44.5099 52.27 44.4699 52.5 44.6399C52.73 44.8099 52.79 45.1099 52.84 45.4199C52.89 45.6699 52.92 45.7899 52.98 45.8899C52.98 45.8999 53 45.9199 53.01 45.9299C53.08 46.0199 53.19 46.0799 53.41 46.1999C53.68 46.3399 53.95 46.4899 54.04 46.7699C54.06 46.8299 54.07 46.8899 54.07 46.9499C54.07 47.1599 53.97 47.3699 53.87 47.5799C53.75 47.8299 53.7 47.9499 53.7 48.0899C53.7 48.2099 53.76 48.3399 53.87 48.5899C53.97 48.7899 54.07 49.0099 54.07 49.2199C54.07 49.2799 54.07 49.3399 54.04 49.3999C53.95 49.6799 53.66 49.8299 53.41 49.9699C53.24 50.0599 53.13 50.1199 53.06 50.1799C53.04 50.1999 53.02 50.2199 53 50.2399L53.01 50.2299Z" fill="#0E1721"/>
  <path d="M83.65 28.38H73.3V29.63L79.29 33.95C79.42 34.04 79.5 34.17 79.54 34.32C80.17 34.97 80.53 35.83 80.53 36.74V67.23C80.53 68.23 80.1 69.19 79.34 69.85C78.71 70.4 77.9 70.71 77.06 70.71H22.95C22.11 70.71 21.3 70.41 20.67 69.85C19.91 69.19 19.48 68.24 19.48 67.23V36.74C19.48 35.83 19.84 34.97 20.47 34.32C20.51 34.17 20.6 34.04 20.72 33.95L26.71 29.63V28.38H16.36C15.29 28.38 14.39 29.14 14.18 30.15C14.15 30.29 14.13 30.44 14.13 30.6V76.46H35L38.29 78.1H61.72L65.01 76.46H85.88V30.6C85.88 29.38 84.88 28.38 83.66 28.38H83.65Z" fill="white"/>
  <path d="M42.54 47.39C42.76 47.39 42.94 47.57 42.94 47.79C42.94 48.01 42.76 48.19 42.54 48.19H41.05L45.37 51.3L45.58 51.45L45.76 51.58L46.15 51.86L50 54.63L53.85 51.86L54.24 51.58L54.42 51.45L54.63 51.3L58.95 48.19H57.46C57.24 48.19 57.06 48.01 57.06 47.79C57.06 47.57 57.24 47.39 57.46 47.39H60.06L68.75 41.13V24.17C68.75 23.59 68.28 23.12 67.7 23.12H32.31C31.73 23.12 31.26 23.59 31.26 24.17V41.12L39.95 47.38H42.55L42.54 47.39ZM34.7 30.09C34.67 29.81 34.88 29.55 35.17 29.53C45.01 28.6 54.99 28.6 64.83 29.53C65.11 29.56 65.32 29.81 65.3 30.09C65.27 30.36 65.05 30.56 64.79 30.56C64.77 30.56 64.76 30.56 64.74 30.56C54.96 29.64 45.05 29.64 35.28 30.56C35 30.59 34.74 30.38 34.72 30.09H34.7ZM35.95 34.5C35.95 34.5 35.95 34.42 35.97 34.39C36.02 34.22 36.17 34.1 36.35 34.1H63.64C63.82 34.1 63.97 34.22 64.02 34.39C64.03 34.43 64.04 34.46 64.04 34.5C64.04 34.5 64.04 34.52 64.04 34.53C64.03 34.74 63.86 34.9 63.64 34.9H36.35C36.14 34.9 35.97 34.73 35.95 34.53C35.95 34.53 35.95 34.51 35.95 34.5ZM54.59 48.24C54.71 48.5 54.87 48.82 54.87 49.21C54.87 49.36 54.85 49.5 54.8 49.64C54.61 50.23 54.09 50.5 53.79 50.66C53.79 50.66 53.77 50.66 53.76 50.67C53.73 50.69 53.69 50.71 53.65 50.73C53.64 50.79 53.63 50.85 53.62 50.88C53.61 50.95 53.59 51.02 53.58 51.1C53.55 51.24 53.51 51.4 53.44 51.56C53.34 51.77 53.2 51.99 52.97 52.16C52.48 52.52 51.93 52.44 51.57 52.39C51.54 52.39 51.47 52.38 51.41 52.37C51.37 52.41 51.33 52.45 51.3 52.47C51.03 52.73 50.62 53.12 50 53.12C49.38 53.12 48.96 52.71 48.7 52.47C48.66 52.43 48.62 52.4 48.59 52.37C48.53 52.37 48.47 52.39 48.44 52.39C48.07 52.44 47.52 52.51 47.03 52.16C46.8 51.99 46.65 51.78 46.56 51.56C46.49 51.4 46.45 51.25 46.42 51.1C46.4 51.02 46.39 50.95 46.38 50.88C46.38 50.85 46.36 50.78 46.35 50.73C46.31 50.71 46.27 50.69 46.24 50.67C46.24 50.67 46.22 50.66 46.21 50.66C45.88 50.48 45.38 50.22 45.2 49.64C45.16 49.51 45.13 49.36 45.13 49.21C45.13 48.82 45.28 48.5 45.41 48.24C45.43 48.2 45.46 48.13 45.49 48.08C45.47 48.04 45.45 47.99 45.42 47.92C45.3 47.66 45.14 47.34 45.14 46.95C45.14 46.8 45.16 46.66 45.21 46.52C45.4 45.94 45.9 45.67 46.22 45.5C46.25 45.49 46.31 45.45 46.35 45.43C46.35 45.39 46.37 45.34 46.38 45.28C46.45 44.92 46.54 44.37 47.04 44.01C47.53 43.65 48.08 43.73 48.45 43.78C48.48 43.78 48.55 43.79 48.61 43.8C48.65 43.76 48.69 43.72 48.72 43.7C48.97 43.46 49.4 43.05 50.02 43.05C50.64 43.05 51.05 43.44 51.31 43.7C51.36 43.74 51.39 43.78 51.42 43.8C51.48 43.8 51.55 43.78 51.58 43.78C51.95 43.73 52.5 43.66 52.99 44.01C53.48 44.37 53.58 44.92 53.65 45.28C53.65 45.32 53.67 45.38 53.68 45.44C53.71 45.46 53.76 45.48 53.81 45.51C54.14 45.69 54.63 45.95 54.82 46.53C54.86 46.67 54.89 46.81 54.89 46.96C54.89 47.35 54.74 47.67 54.61 47.93C54.59 47.97 54.56 48.04 54.53 48.09C54.56 48.15 54.59 48.22 54.6 48.25L54.59 48.24ZM64.05 37.35C64.05 37.57 63.87 37.75 63.65 37.75H36.36C36.14 37.75 35.96 37.57 35.96 37.35C35.96 37.13 36.14 36.95 36.36 36.95H63.65C63.87 36.95 64.05 37.13 64.05 37.35ZM35.95 40.2C35.95 39.98 36.13 39.8 36.35 39.8H63.64C63.86 39.8 64.04 39.98 64.04 40.2C64.04 40.42 63.86 40.6 63.64 40.6H36.35C36.13 40.6 35.95 40.42 35.95 40.2Z" fill="white"/>
  <path d="M49.06 58.1699C49.06 57.9399 48.81 57.7399 48.62 57.7399H48.13C47.93 57.7399 47.66 57.9399 47.66 58.1699V66.7499C47.66 66.9699 47.94 67.0999 48.13 67.0999H48.59C48.79 67.0999 49.06 66.9699 49.06 66.7499V63.8499C49.06 64.2299 49.88 64.4399 50.36 64.4399C51.5 64.4399 52.33 63.4699 52.33 62.2099V59.9899C52.33 59.5499 52.26 59.1699 52.13 58.8599C52.02 58.5899 51.87 58.3699 51.69 58.1899C51.34 57.8599 50.86 57.6899 50.29 57.6899C49.77 57.6899 49.14 57.9299 49.06 58.1899C49.06 58.2099 49.06 58.2199 49.06 58.2399V58.1599V58.1699ZM50.94 59.8999V62.2699C50.94 62.9999 50.64 63.3299 50.09 63.3299C49.42 63.3299 49.07 62.8799 49.07 62.2699V59.8999C49.07 59.4699 49.2 59.0199 49.66 58.8599C49.77 58.8199 49.89 58.7999 50.03 58.7999C50.17 58.7999 50.3 58.8199 50.41 58.8599C50.81 58.9999 50.93 59.3899 50.93 59.8999H50.94Z" fill="white"/>
  <path d="M36.6396 78.7705L37.9696 79.4404H62.0302L63.3603 78.7705L65.3202 77.79H97.6903C97.9902 77.7901 98.2602 77.9205 98.4501 78.1504C98.6299 78.3803 98.7102 78.6701 98.6503 78.96L98.1903 81.25C97.8003 83.24 96.0397 84.6797 94.0097 84.6797H5.99014C3.97016 84.6797 2.21047 83.24 1.81046 81.25L1.34952 78.96C1.28962 78.6702 1.36994 78.3803 1.54971 78.1504C1.73971 77.9204 2.02046 77.79 2.31046 77.79H34.6796L36.6396 78.7705ZM26.7001 27.0498H16.3495C15.5798 27.0499 14.8698 27.2999 14.2899 27.7197C13.9799 27.9397 13.6996 28.22 13.4696 28.54C13.0498 29.1199 12.7998 29.8298 12.7997 30.5996V76.46H9.54971V27.79C9.54972 25.43 11.4702 23.5205 13.8202 23.5205H26.7001V27.0498ZM86.1796 23.5205C88.5396 23.5205 90.4501 25.44 90.4501 27.79V76.46H87.2001V30.5996C87.2 29.8298 86.9501 29.1199 86.5302 28.54C86.3102 28.23 86.0299 27.9497 85.7099 27.7197C85.13 27.2999 84.4201 27.0499 83.6503 27.0498H73.2997V23.5205H86.1796ZM57.6298 54.8398L58.1796 55.2402L58.7304 55.6396L61.3603 57.5303L62.2802 58.2002H62.2997L63.2196 58.8701L77.6903 69.2998C77.4904 69.3598 77.2801 69.3896 77.0702 69.3896H22.9696C22.7598 69.3896 22.5494 69.3598 22.3495 69.2998L36.8202 58.8701L38.6601 57.5303L41.2899 55.6396L41.8398 55.2402L42.3896 54.8398L45.2099 52.8096L48.0302 54.8398L48.58 55.2402L49.1298 55.6396L49.62 56C49.85 56.17 50.1703 56.17 50.4003 56L50.8896 55.6396L51.4403 55.2402L51.9901 54.8398L54.8105 52.8096L57.6298 54.8398ZM78.8105 35.5303C79.0602 35.8901 79.2 36.31 79.2001 36.7598V67.25C79.2001 67.69 79.0605 68.1205 78.8105 68.4805L65.4804 58.8799L64.5605 58.21L63.6396 57.54L61.0097 55.6504L59.9101 54.8496L55.9501 52L61.2304 48.1904L62.3398 47.3896L68.7499 42.7705L69.1503 42.4805L69.5497 42.1904L69.5399 42.2002L71.9599 40.46L72.6298 39.9805L73.2997 39.5L78.8105 35.5303ZM26.6903 39.4697L27.3603 39.9502L28.0302 40.4297L30.4501 42.1699L30.8495 42.46L31.2499 42.75L37.6601 47.3701L38.7704 48.1699L44.0497 51.9805L40.0898 54.8301L39.5399 55.2305L38.9901 55.6299L36.3603 57.5205L34.5204 58.8604L21.1903 68.46C20.9404 68.1001 20.7998 67.6803 20.7997 67.2305V36.7402C20.7997 36.3002 20.9403 35.8698 21.1903 35.5098L21.1796 35.5L26.6903 39.4697ZM70.9101 20.4297C71.49 20.4297 71.9599 20.9005 71.9599 21.4805V38.7998L69.5399 40.54V24.1699C69.5399 23.1501 68.7101 22.3205 67.6903 22.3203H32.2997C31.2799 22.3205 30.4502 23.1501 30.4501 24.1699V35.8496H30.4599V40.54L28.0399 38.7998V21.4805C28.0399 20.9005 28.5099 20.4298 29.0898 20.4297H70.9101Z" fill="#4279B6"/>
  <path d="M55.6267 65.0204C55.6267 65.4023 55.3209 65.7143 54.9401 65.7143H45.9589C45.581 65.7143 45.2723 65.4052 45.2723 65.0204V59.0758C45.2723 58.6939 45.5781 58.3819 45.9589 58.3819H52.5138V57.0991H45.6964C44.7588 57.0991 44 57.8659 44 58.8134V65.2828C44 66.2303 44.7588 66.9971 45.6964 66.9971H55.2026C56.1403 66.9971 56.899 66.2303 56.899 65.2828V61.5306H55.6267V65.0204Z" fill="white"/>
  <path d="M56.2643 58.484C56.6711 58.484 56.9971 58.1516 56.9971 57.7435C56.9971 57.3353 56.6682 57.0029 56.2643 57.0029C55.8604 57.0029 55.5315 57.3353 55.5315 57.7435C55.5315 58.1516 55.8604 58.484 56.2643 58.484Z" fill="white"/>
  <path d="M54.1005 58.484C54.5073 58.484 54.8333 58.1516 54.8333 57.7435C54.8333 57.3353 54.5044 57.0029 54.1005 57.0029C53.6966 57.0029 53.3677 57.3353 53.3677 57.7435C53.3677 58.1516 53.6966 58.484 54.1005 58.484Z" fill="white"/>
  <path d="M56.2643 59.1837C55.8575 59.1837 55.5315 59.5161 55.5315 59.9242C55.5315 60.3324 55.8604 60.6648 56.2643 60.6648C56.6682 60.6648 56.9971 60.3324 56.9971 59.9242C56.9971 59.5161 56.6682 59.1837 56.2643 59.1837Z" fill="white"/>
  <path d="M47.8313 61.5977C48.6709 61.5977 49.3517 62.2857 49.3517 63.1341C49.3517 63.9825 48.6709 64.6705 47.8313 64.6705C46.9918 64.6705 46.3109 63.9825 46.3109 63.1341C46.3109 62.2857 46.9918 61.5977 47.8313 61.5977Z" fill="white"/>
</svg>
