<svg xmlns="http://www.w3.org/2000/svg" width="100" height="100" viewBox="0 0 100 100" fill="none">
  <path d="M99.48 77.3099C99.04 76.7699 98.39 76.4699 97.69 76.4699H91.78V27.7899C91.78 24.6999 89.27 22.1899 86.18 22.1899H73.3V21.4799C73.3 20.1699 72.23 19.0999 70.92 19.0999H58.68L50.39 13.1299C50.16 12.9599 49.84 12.9599 49.61 13.1299L41.32 19.0999H29.08C27.77 19.0999 26.7 20.1699 26.7 21.4799V22.1899H13.82C10.73 22.1899 8.22 24.6999 8.22 27.7899V76.4599H2.31C1.62 76.4599 0.969997 76.7699 0.519997 77.3099C0.0799967 77.8499 -0.0900033 78.5399 0.0399967 79.2299L0.499997 81.5199C1.02 84.1299 3.33 86.0199 5.99 86.0199H94.01C96.67 86.0199 98.98 84.1299 99.5 81.5199L99.96 79.2299C100.1 78.5499 99.92 77.8499 99.48 77.3099ZM94.01 84.6799H5.99C3.96 84.6799 2.2 83.2399 1.81 81.2499L1.35 78.9599C1.29 78.6699 1.37 78.3799 1.55 78.1499C1.74 77.9199 2.02 77.7899 2.31 77.7899H34.68L36.64 78.7699L37.97 79.4399H62.03L63.36 78.7699L65.32 77.7899H97.69C97.98 77.7899 98.26 77.9199 98.45 78.1499C98.64 78.3799 98.71 78.6699 98.65 78.9599L98.19 81.2499C97.79 83.2399 96.03 84.6799 94.01 84.6799ZM9.55 27.7899C9.55 25.4399 11.46 23.5199 13.82 23.5199H26.7V27.0499H16.35C15.58 27.0499 14.87 27.2999 14.29 27.7199C13.97 27.9499 13.69 28.2299 13.47 28.5399C13.05 29.1199 12.8 29.8299 12.8 30.5999V76.4599H9.55V27.7899ZM28.04 22.1999V21.4899C28.04 20.9099 28.51 20.4399 29.09 20.4399H70.91C71.49 20.4399 71.96 20.9099 71.96 21.4899V38.8099L69.54 40.5499V24.1699C69.54 23.1499 68.71 22.3199 67.69 22.3199H32.3C31.28 22.3199 30.45 23.1499 30.45 24.1699V40.5399L28.03 38.7999V22.1999H28.04ZM50 14.4899L56.4 19.0999H43.6L50 14.4899ZM61.72 78.1099H38.29L35 76.4699H14.13V30.5999C14.13 30.4499 14.15 30.2999 14.18 30.1499C14.21 30.0199 14.24 29.8999 14.29 29.7799C14.31 29.7199 14.34 29.6599 14.37 29.6099C14.73 28.8799 15.49 28.3799 16.36 28.3799H26.71V29.6299L20.72 33.9499C20.59 34.0399 20.51 34.1699 20.47 34.3199C19.84 34.9699 19.48 35.8299 19.48 36.7399V67.2299C19.48 68.2299 19.91 69.1899 20.67 69.8499C21.3 70.3999 22.11 70.7099 22.95 70.7099H77.05C77.89 70.7099 78.7 70.4099 79.33 69.8499C80.09 69.1899 80.52 68.2399 80.52 67.2299V36.7399C80.52 35.8299 80.16 34.9699 79.53 34.3199C79.49 34.1699 79.4 34.0399 79.28 33.9499L73.29 29.6299V28.3799H83.64C84.86 28.3799 85.86 29.3699 85.86 30.5999V76.4599H64.99L61.7 78.0999L61.72 78.1099ZM26.71 33.4799H23.66L26.71 31.2799V33.4799ZM26.71 34.5199V37.8399L23.95 35.8499L23.03 35.1799L22.13 34.5299C22.23 34.4899 22.32 34.4599 22.42 34.4399C22.59 34.3999 22.77 34.3799 22.96 34.3799H26.72V34.5199H26.71ZM31.25 35.8499V24.1699C31.25 23.5899 31.72 23.1199 32.3 23.1199H67.69C68.27 23.1199 68.74 23.5899 68.74 24.1699V41.1199L60.05 47.3799H57.45C57.23 47.3799 57.05 47.5599 57.05 47.7799C57.05 47.9999 57.23 48.1799 57.45 48.1799H58.94L54.62 51.2899L54.41 51.4399L54.23 51.5699L53.84 51.8499L49.99 54.6199L46.14 51.8499L45.75 51.5699L45.57 51.4399L45.36 51.2899L41.04 48.1799H42.53C42.75 48.1799 42.93 47.9999 42.93 47.7799C42.93 47.5599 42.75 47.3799 42.53 47.3799H39.93L31.24 41.1199V35.8499H31.25ZM73.3 35.8499V34.3799H77.06C77.24 34.3799 77.42 34.3999 77.6 34.4399C77.7 34.4599 77.8 34.4899 77.89 34.5299L76.99 35.1799L76.07 35.8499L73.31 37.8399V35.8499H73.3ZM73.3 31.2799L76.35 33.4799H73.3V31.2799ZM77.67 69.2899C77.47 69.3499 77.26 69.3799 77.05 69.3799H22.95C22.74 69.3799 22.53 69.3499 22.33 69.2899L36.8 58.8599L37.72 58.1899L38.64 57.5199L41.27 55.6299L41.82 55.2299L42.37 54.8299L45.19 52.7999L48.01 54.8299L48.56 55.2299L49.11 55.6299L49.6 55.9899C49.83 56.1599 50.15 56.1599 50.38 55.9899L50.87 55.6299L51.42 55.2299L51.97 54.8299L54.79 52.7999L57.61 54.8299L58.16 55.2299L58.71 55.6299L61.34 57.5199L62.26 58.1899L63.18 58.8599L77.65 69.2899H77.67ZM20.8 67.2399V36.7499C20.8 36.2999 20.94 35.8799 21.19 35.5199L26.7 39.4899L27.37 39.9699L28.04 40.4499L30.46 42.1899L30.86 42.4799L31.26 42.7699L37.67 47.3899L38.78 48.1899L44.06 51.9999L40.1 54.8499L39.55 55.2499L39 55.6499L36.37 57.5399L35.45 58.2099L34.53 58.8799L21.2 68.4799C20.95 68.1199 20.81 67.6899 20.81 67.2499L20.8 67.2399ZM79.2 67.2399C79.2 67.6899 79.06 68.1099 78.81 68.4699L65.48 58.8699L64.56 58.1999L63.64 57.5299L61.01 55.6399L60.46 55.2399L59.91 54.8399L55.95 51.9899L61.23 48.1799L62.34 47.3799L68.75 42.7599L69.15 42.4699L69.55 42.1799L71.97 40.4399L72.64 39.9599L73.31 39.4799L78.82 35.5099C79.07 35.8699 79.21 36.2999 79.21 36.7399V67.2299L79.2 67.2399ZM90.45 76.4599H87.2V30.5999C87.2 29.8299 86.95 29.1199 86.53 28.5399C86.3 28.2199 86.02 27.9399 85.71 27.7199C85.13 27.2999 84.42 27.0499 83.65 27.0499H73.3V23.5199H86.18C88.53 23.5199 90.45 25.4299 90.45 27.7899V76.4599Z" fill="#2D557F"/>
  <path d="M64.73 30.5499C64.73 30.5499 64.76 30.5499 64.78 30.5499C65.04 30.5499 65.27 30.3499 65.29 30.0799C65.32 29.7999 65.11 29.5399 64.82 29.5199C54.98 28.5899 45 28.5899 35.16 29.5199C34.88 29.5499 34.67 29.7999 34.69 30.0799C34.72 30.3599 34.97 30.5699 35.25 30.5499C45.03 29.6299 54.94 29.6299 64.71 30.5499H64.73Z" fill="#2D557F"/>
  <path d="M63.65 34.1H36.36C36.18 34.1 36.03 34.22 35.98 34.39C35.97 34.43 35.96 34.46 35.96 34.5C35.96 34.5 35.96 34.52 35.96 34.53C35.97 34.74 36.14 34.9 36.36 34.9H63.65C63.86 34.9 64.03 34.73 64.05 34.53C64.05 34.53 64.05 34.51 64.05 34.5C64.05 34.46 64.05 34.42 64.03 34.39C63.98 34.22 63.83 34.1 63.65 34.1Z" fill="#2D557F"/>
  <path d="M63.65 36.95H36.36C36.14 36.95 35.96 37.13 35.96 37.35C35.96 37.57 36.14 37.75 36.36 37.75H63.65C63.87 37.75 64.05 37.57 64.05 37.35C64.05 37.13 63.87 36.95 63.65 36.95Z" fill="#2D557F"/>
  <path d="M64.05 40.1999C64.05 39.9799 63.87 39.7999 63.65 39.7999H36.36C36.14 39.7999 35.96 39.9799 35.96 40.1999C35.96 40.4199 36.14 40.5999 36.36 40.5999H63.65C63.87 40.5999 64.05 40.4199 64.05 40.1999Z" fill="#2D557F"/>
  <path d="M54.87 46.9399C54.87 46.7899 54.85 46.6499 54.8 46.5099C54.61 45.9299 54.11 45.6599 53.79 45.4899C53.74 45.4599 53.69 45.4399 53.66 45.4199C53.65 45.3699 53.64 45.2999 53.63 45.2599C53.56 44.8999 53.47 44.3499 52.97 43.9899C52.48 43.6299 51.93 43.7099 51.56 43.7599C51.53 43.7599 51.46 43.7699 51.4 43.7799C51.37 43.7599 51.34 43.7199 51.29 43.6799C51.02 43.4199 50.61 43.0299 50 43.0299C49.39 43.0299 48.96 43.4399 48.7 43.6799C48.68 43.6999 48.63 43.7399 48.59 43.7799C48.53 43.7799 48.46 43.7599 48.43 43.7599C48.07 43.7099 47.51 43.6399 47.02 43.9899C46.53 44.3499 46.43 44.8999 46.36 45.2599C46.35 45.3199 46.34 45.3699 46.33 45.4099C46.28 45.4399 46.22 45.4699 46.2 45.4799C45.87 45.6599 45.38 45.9199 45.19 46.4999C45.15 46.6399 45.12 46.7799 45.12 46.9299C45.12 47.3199 45.27 47.6399 45.4 47.8999C45.43 47.9699 45.46 48.0199 45.47 48.0599C45.45 48.1199 45.41 48.1899 45.39 48.2199C45.27 48.4799 45.11 48.7999 45.11 49.1899C45.11 49.3399 45.13 49.4799 45.18 49.6199C45.37 50.1999 45.86 50.4699 46.19 50.6399C46.19 50.6399 46.21 50.6399 46.22 50.6499C46.25 50.6699 46.29 50.6899 46.33 50.7099C46.34 50.7699 46.35 50.8399 46.36 50.8599C46.37 50.9299 46.39 50.9999 46.4 51.0799C46.43 51.2199 46.47 51.3799 46.54 51.5399C46.63 51.7499 46.78 51.9699 47.01 52.1399C47.5 52.4999 48.05 52.4199 48.42 52.3699C48.45 52.3699 48.52 52.3599 48.57 52.3499C48.6 52.3799 48.63 52.4099 48.68 52.4499C48.93 52.6899 49.35 53.0999 49.98 53.0999C50.61 53.0999 51.01 52.7099 51.28 52.4499C51.3 52.4299 51.35 52.3899 51.39 52.3499C51.45 52.3499 51.52 52.3699 51.55 52.3699C51.91 52.4199 52.46 52.4899 52.95 52.1399C53.18 51.9699 53.33 51.7599 53.42 51.5399C53.49 51.3799 53.53 51.2299 53.56 51.0799C53.58 50.9999 53.59 50.9299 53.6 50.8599C53.6 50.8299 53.62 50.7599 53.63 50.7099C53.67 50.6899 53.71 50.6699 53.74 50.6499C53.74 50.6499 53.76 50.6399 53.77 50.6399C54.08 50.4799 54.59 50.1999 54.78 49.6199C54.82 49.4799 54.85 49.3399 54.85 49.1899C54.85 48.7999 54.7 48.4799 54.57 48.2199C54.56 48.1899 54.52 48.1199 54.5 48.0599C54.52 47.9999 54.56 47.9299 54.58 47.8999C54.7 47.6399 54.86 47.3199 54.86 46.9299L54.87 46.9399ZM53.01 50.2299C53.01 50.2299 52.99 50.2599 52.98 50.2799C52.93 50.3499 52.91 50.4399 52.87 50.5999C52.87 50.6499 52.85 50.6999 52.84 50.7499C52.82 50.8599 52.8 50.9799 52.77 51.0799C52.72 51.2499 52.64 51.4099 52.5 51.5099C52.27 51.6799 51.97 51.6399 51.66 51.5999C51.4 51.5699 51.27 51.5599 51.16 51.5899C51.14 51.5899 51.13 51.5999 51.11 51.6099C51.02 51.6499 50.93 51.7199 50.75 51.8999C50.53 52.1099 50.31 52.3299 50.01 52.3299C49.71 52.3299 49.48 52.0999 49.27 51.8999C49.1 51.7299 49 51.6499 48.9 51.6099C48.88 51.6099 48.87 51.5999 48.85 51.5899C48.8 51.5799 48.76 51.5699 48.7 51.5699C48.61 51.5699 48.51 51.5799 48.35 51.5999C48.06 51.6399 47.75 51.6799 47.52 51.5099C47.38 51.4099 47.3 51.2499 47.25 51.0799C47.22 50.9699 47.2 50.8599 47.18 50.7499C47.17 50.6899 47.16 50.6399 47.15 50.5999C47.12 50.4399 47.09 50.3499 47.04 50.2799C47.03 50.2599 47.02 50.2499 47.01 50.2299C46.99 50.2099 46.98 50.1999 46.96 50.1799C46.89 50.1199 46.79 50.0599 46.61 49.9599C46.35 49.8199 46.07 49.6699 45.98 49.3899C45.96 49.3299 45.95 49.2699 45.95 49.2099C45.95 48.9999 46.05 48.7899 46.15 48.5799C46.27 48.3299 46.32 48.2099 46.32 48.0699C46.32 47.9399 46.26 47.8099 46.15 47.5699C46.05 47.3699 45.95 47.1499 45.95 46.9399C45.95 46.8799 45.95 46.8199 45.98 46.7599C46.07 46.4799 46.34 46.3399 46.61 46.1899C46.83 46.0699 46.94 46.0099 47.01 45.9199C47.02 45.9099 47.03 45.8899 47.04 45.8799C47.1 45.7799 47.13 45.6599 47.18 45.4099C47.23 45.1199 47.29 44.8099 47.52 44.6399C47.75 44.4699 48.05 44.5099 48.35 44.5499C48.61 44.5899 48.74 44.5999 48.86 44.5599C48.88 44.5599 48.9 44.5499 48.91 44.5399C49 44.4999 49.09 44.4299 49.27 44.2499C49.48 44.0499 49.71 43.8199 50.01 43.8199C50.31 43.8199 50.53 44.0399 50.75 44.2499C50.92 44.4199 51.02 44.4999 51.12 44.5499C51.14 44.5499 51.16 44.5599 51.17 44.5699C51.28 44.5999 51.41 44.5899 51.67 44.5499C51.97 44.5099 52.27 44.4699 52.5 44.6399C52.73 44.8099 52.79 45.1099 52.84 45.4199C52.89 45.6699 52.92 45.7899 52.98 45.8899C52.98 45.8999 53 45.9199 53.01 45.9299C53.08 46.0199 53.19 46.0799 53.41 46.1999C53.68 46.3399 53.95 46.4899 54.04 46.7699C54.06 46.8299 54.07 46.8899 54.07 46.9499C54.07 47.1599 53.97 47.3699 53.87 47.5799C53.75 47.8299 53.7 47.9499 53.7 48.0899C53.7 48.2099 53.76 48.3399 53.87 48.5899C53.97 48.7899 54.07 49.0099 54.07 49.2199C54.07 49.2799 54.07 49.3399 54.04 49.3999C53.95 49.6799 53.66 49.8299 53.41 49.9699C53.24 50.0599 53.13 50.1199 53.06 50.1799C53.04 50.1999 53.02 50.2199 53 50.2399L53.01 50.2299Z" fill="#2D557F"/>
  <path d="M54.6267 65.0204C54.6267 65.4023 54.3209 65.7143 53.9401 65.7143H44.9589C44.581 65.7143 44.2723 65.4052 44.2723 65.0204V59.0758C44.2723 58.6939 44.5781 58.3819 44.9589 58.3819H51.5138V57.0991H44.6964C43.7588 57.0991 43 57.8659 43 58.8134V65.2828C43 66.2303 43.7588 66.9971 44.6964 66.9971H54.2026C55.1403 66.9971 55.899 66.2303 55.899 65.2828V61.5306H54.6267V65.0204Z" fill="#4279B6"/>
  <path d="M55.2643 58.484C55.6711 58.484 55.9971 58.1516 55.9971 57.7435C55.9971 57.3353 55.6682 57.0029 55.2643 57.0029C54.8604 57.0029 54.5315 57.3353 54.5315 57.7435C54.5315 58.1516 54.8604 58.484 55.2643 58.484Z" fill="#4279B6"/>
  <path d="M53.1005 58.484C53.5073 58.484 53.8333 58.1516 53.8333 57.7435C53.8333 57.3353 53.5044 57.0029 53.1005 57.0029C52.6966 57.0029 52.3677 57.3353 52.3677 57.7435C52.3677 58.1516 52.6966 58.484 53.1005 58.484Z" fill="#4279B6"/>
  <path d="M55.2643 59.1837C54.8575 59.1837 54.5315 59.5161 54.5315 59.9242C54.5315 60.3324 54.8604 60.6648 55.2643 60.6648C55.6682 60.6648 55.9971 60.3324 55.9971 59.9242C55.9971 59.5161 55.6682 59.1837 55.2643 59.1837Z" fill="#4279B6"/>
  <path d="M46.8313 61.5977C47.6709 61.5977 48.3518 62.2857 48.3518 63.1341C48.3518 63.9825 47.6709 64.6705 46.8313 64.6705C45.9918 64.6705 45.3109 63.9825 45.3109 63.1341C45.3109 62.2857 45.9918 61.5977 46.8313 61.5977Z" fill="#4279B6"/>
</svg>
