<svg xmlns="http://www.w3.org/2000/svg" width="100" height="100" viewBox="0 0 100 100" fill="none">
  <path d="M48.41 92.88C48.16 92.88 47.92 92.77 47.76 92.58L30.29 72.1C30.07 71.85 30.03 71.49 30.16 71.19C30.3 70.89 30.6 70.7 30.93 70.7H39.48V64.99C39.48 64.52 39.86 64.14 40.33 64.14C40.8 64.14 41.18 64.52 41.18 64.99V71.55C41.18 72.02 40.8 72.4 40.33 72.4H32.78L48.41 90.72L64.05 72.4H56.67C56.2 72.4 55.82 72.02 55.82 71.55V59.13H47.27C46.94 59.13 46.64 58.94 46.5 58.64C46.36 58.34 46.41 57.98 46.63 57.73L64.11 37.25C64.27 37.06 64.51 36.95 64.76 36.95C65.01 36.95 65.25 37.06 65.41 37.25L82.88 57.73C83.1 57.98 83.14 58.34 83.01 58.64C82.87 58.94 82.57 59.13 82.24 59.13H73.69V65.02C73.69 65.49 73.31 65.87 72.84 65.87C72.37 65.87 71.99 65.49 71.99 65.02V58.28C71.99 57.81 72.37 57.43 72.84 57.43H80.39L64.76 39.11L49.12 57.43H56.67C57.14 57.43 57.52 57.81 57.52 58.28V70.7H65.9C66.23 70.7 66.53 70.89 66.67 71.19C66.81 71.49 66.76 71.85 66.54 72.1L49.06 92.58C48.9 92.77 48.66 92.88 48.41 92.88Z" fill="#2D557F"/>
  <path d="M83.35 65.87C82.88 65.87 82.5 65.49 82.5 65.02C82.5 64.55 82.88 64.17 83.35 64.17C91.59 64.17 98.3 57.46 98.3 49.22C98.3 40.98 91.59 34.27 83.35 34.27C82.23 34.27 81.11 34.4 80.03 34.66C79.77 34.72 79.5 34.66 79.29 34.49C79.08 34.32 78.97 34.06 78.98 33.79C78.98 33.67 78.98 33.54 78.98 33.42C78.98 28.08 74.64 23.74 69.3 23.74C67.78 23.74 66.32 24.09 64.96 24.79C64.75 24.9 64.51 24.91 64.29 24.84C64.07 24.76 63.89 24.6 63.79 24.39C59.71 15.47 50.73 9.7 40.94 9.7C27.66 9.7 16.62 20.18 15.81 33.57C15.79 33.98 15.46 34.32 15.05 34.36C7.44 35.17 1.71 41.56 1.71 49.22C1.71 57.46 8.42 64.17 16.66 64.17L30.95 64.14C31.42 64.13 31.8 64.52 31.8 64.99C31.8 65.46 31.42 65.84 30.95 65.84L16.66 65.87C7.47 65.87 0 58.4 0 49.22C0 40.93 6.04 33.97 14.16 32.76C15.36 18.82 26.99 8 40.94 8C51.11 8 60.46 13.83 64.99 22.91C66.36 22.33 67.81 22.04 69.31 22.04C75.38 22.04 80.35 26.81 80.68 32.8C81.56 32.65 82.46 32.58 83.36 32.58C92.54 32.58 100.01 40.05 100.01 49.23C100.01 58.41 92.54 65.88 83.36 65.88L83.35 65.87Z" fill="#4279B6"/>
  <path d="M41.21 26.22C40 26.22 39.7 27.12 39.7 27.94V31.63C39.7 32.59 40.25 33.28 41.29 33.28C42.15 33.28 42.61 32.77 42.61 31.63V27.94C42.61 26.94 42.31 26.22 41.2 26.22" fill="#4279B6"/>
  <path d="M40.67 20.95C46.35 20.95 50.9601 25.5601 50.9601 31.2401C50.9601 36.92 46.35 41.5301 40.67 41.5301C34.9901 41.5301 30.38 36.92 30.38 31.2401C30.38 25.5601 34.99 20.95 40.67 20.95Z" fill="#4279B6"/>
  <path d="M46.5211 34.0204C46.5211 34.4023 46.1917 34.7143 45.7816 34.7143H36.1096C35.7026 34.7143 35.3702 34.4052 35.3702 34.0204V28.0758C35.3702 27.6939 35.6995 27.3819 36.1096 27.3819H43.1687V26.0991H35.8269C34.8171 26.0991 34 26.8659 34 27.8134V34.2828C34 35.2303 34.8171 35.9971 35.8269 35.9971H46.0644C47.0741 35.9971 47.8913 35.2303 47.8913 34.2828V30.5306H46.5211V34.0204Z" fill="white"/>
  <path d="M47.2077 27.484C47.6458 27.484 47.9969 27.1516 47.9969 26.7435C47.9969 26.3353 47.6427 26.0029 47.2077 26.0029C46.7728 26.0029 46.4186 26.3353 46.4186 26.7435C46.4186 27.1516 46.7728 27.484 47.2077 27.484Z" fill="white"/>
  <path d="M44.8775 27.484C45.3156 27.484 45.6667 27.1516 45.6667 26.7435C45.6667 26.3353 45.3125 26.0029 44.8775 26.0029C44.4425 26.0029 44.0883 26.3353 44.0883 26.7435C44.0883 27.1516 44.4425 27.484 44.8775 27.484Z" fill="white"/>
  <path d="M47.2077 28.1837C46.7697 28.1837 46.4186 28.516 46.4186 28.9242C46.4186 29.3323 46.7728 29.6647 47.2077 29.6647C47.6427 29.6647 47.9969 29.3323 47.9969 28.9242C47.9969 28.516 47.6427 28.1837 47.2077 28.1837Z" fill="white"/>
  <path d="M38.1261 30.5977C39.0302 30.5977 39.7635 31.2857 39.7635 32.1341C39.7635 32.9825 39.0302 33.6705 38.1261 33.6705C37.222 33.6705 36.4887 32.9825 36.4887 32.1341C36.4887 31.2857 37.222 30.5977 38.1261 30.5977Z" fill="white"/>
</svg>
