<svg xmlns="http://www.w3.org/2000/svg" width="100" height="100" viewBox="0 0 100 100" fill="none">
  <path d="M50.19 50.16C50.08 50.16 49.96 50.13 49.86 50.07C49.66 49.95 49.54 49.74 49.54 49.51V5.9C49.54 5.67 49.66 5.45 49.86 5.34C50.06 5.22 50.31 5.22 50.51 5.34L88.83 26.96C89.03 27.08 89.16 27.29 89.16 27.53C89.16 27.77 89.04 27.98 88.83 28.1L50.51 50.08C50.41 50.14 50.3 50.17 50.19 50.17V50.16ZM50.84 7.02V48.38L87.19 27.53L50.84 7.02Z" fill="#0E1721"/>
  <path d="M50.19 50.16C50.08 50.16 49.97 50.13 49.87 50.08L11.58 28.45C11.38 28.33 11.25 28.12 11.25 27.89C11.25 27.66 11.37 27.44 11.58 27.32L49.86 5.34C50.06 5.22 50.31 5.22 50.51 5.34C50.71 5.46 50.83 5.67 50.83 5.9V49.5C50.83 49.73 50.71 49.95 50.51 50.06C50.41 50.12 50.29 50.15 50.18 50.15L50.19 50.16ZM13.22 27.88L49.54 48.39V7.03L13.22 27.88Z" fill="#0E1721"/>
  <path d="M11.9 73.13C11.79 73.13 11.68 73.1 11.58 73.05C11.38 72.93 11.25 72.72 11.25 72.48V27.89C11.25 27.66 11.37 27.44 11.57 27.33C11.77 27.21 12.02 27.21 12.22 27.33L50.51 48.95C50.71 49.06 50.84 49.28 50.84 49.51C50.84 49.74 50.72 49.96 50.52 50.08L12.24 73.03C12.14 73.09 12.02 73.12 11.9 73.12V73.13ZM12.56 29V71.32L48.9 49.52L12.56 29Z" fill="#0E1721"/>
  <path d="M50.21 94.75C50.1 94.75 49.99 94.72 49.89 94.67L11.58 73.04C11.38 72.93 11.25 72.71 11.25 72.48C11.25 72.25 11.37 72.03 11.57 71.91L49.86 48.94C50.06 48.82 50.31 48.82 50.52 48.94C50.72 49.06 50.85 49.27 50.85 49.51L50.87 94.1C50.87 94.33 50.75 94.55 50.55 94.66C50.45 94.72 50.33 94.75 50.22 94.75H50.21ZM13.2 72.46L49.56 92.98L49.54 50.65L13.2 72.46Z" fill="#0E1721"/>
  <path d="M50.21 94.75C50.1 94.75 49.98 94.72 49.88 94.66C49.68 94.54 49.55 94.33 49.55 94.1L49.53 49.51C49.53 49.28 49.66 49.06 49.86 48.94C50.06 48.82 50.31 48.83 50.51 48.94L88.83 71.55C89.03 71.67 89.15 71.88 89.15 72.11C89.15 72.34 89.02 72.56 88.82 72.67L50.52 94.65C50.42 94.71 50.31 94.74 50.2 94.74L50.21 94.75ZM50.84 50.64L50.86 92.97L87.22 72.1L50.85 50.64H50.84Z" fill="#0E1721"/>
  <path d="M88.51 72.77C88.4 72.77 88.28 72.74 88.18 72.68L49.86 50.07C49.66 49.95 49.54 49.74 49.54 49.5C49.54 49.27 49.67 49.05 49.87 48.94L88.19 26.96C88.39 26.84 88.64 26.84 88.84 26.96C89.04 27.08 89.16 27.29 89.16 27.52V72.11C89.16 72.34 89.03 72.56 88.83 72.68C88.73 72.74 88.62 72.77 88.51 72.77ZM51.48 49.51L87.85 70.97V28.65L51.48 49.51Z" fill="#0E1721"/>
  <path d="M50.2197 32.78C59.7296 32.78 67.4403 40.4898 67.4404 49.9997C67.4404 59.5097 59.7297 67.2204 50.2197 67.2204C40.7099 67.2203 33 59.5096 33 49.9997C33.0001 40.4899 40.7099 32.7801 50.2197 32.78ZM49.916 39.0886V39.0895V39.0886Z" fill="#4279B6"/>
  <path d="M59.5703 55.4367C59.5703 56.1242 59.0293 56.6857 58.3555 56.6857H42.4658C41.7972 56.6857 41.251 56.1294 41.251 55.4367V44.7364C41.251 44.049 41.7921 43.4874 42.4658 43.4874H54.0628V41.1784H42.0013C40.3424 41.1784 39 42.5586 39 44.2641V55.909C39 57.6146 40.3424 58.9947 42.0013 58.9947H58.82C60.4789 58.9947 61.8213 57.6146 61.8213 55.909V49.1551H59.5703V55.4367Z" fill="white"/>
  <path d="M60.6983 43.6711C61.4181 43.6711 61.9948 43.0729 61.9948 42.3382C61.9948 41.6035 61.413 41.0052 60.6983 41.0052C59.9837 41.0052 59.4019 41.6035 59.4019 42.3382C59.4019 43.0729 59.9837 43.6711 60.6983 43.6711Z" fill="white"/>
  <path d="M56.8702 43.6711C57.5899 43.6711 58.1667 43.0729 58.1667 42.3382C58.1667 41.6035 57.5848 41.0052 56.8702 41.0052C56.1556 41.0052 55.5737 41.6035 55.5737 42.3382C55.5737 43.0729 56.1556 43.6711 56.8702 43.6711Z" fill="white"/>
  <path d="M60.6983 44.9306C59.9786 44.9306 59.4019 45.5289 59.4019 46.2635C59.4019 46.9982 59.9837 47.5965 60.6983 47.5965C61.413 47.5965 61.9948 46.9982 61.9948 46.2635C61.9948 45.5289 61.413 44.9306 60.6983 44.9306Z" fill="white"/>
  <path d="M45.7785 49.2758C47.2638 49.2758 48.4684 50.5143 48.4684 52.0414C48.4684 53.5685 47.2638 54.807 45.7785 54.807C44.2931 54.807 43.0885 53.5685 43.0885 52.0414C43.0885 50.5143 44.2931 49.2758 45.7785 49.2758Z" fill="white"/>
  <path d="M54.7501 3.28C56.2001 5.79 55.3401 9 52.8301 10.45C50.3201 11.9 47.1101 11.04 45.6601 8.53C44.2101 6.02 45.0701 2.81 47.5801 1.36C50.0901 -0.0899994 53.3001 0.770001 54.7501 3.28Z" fill="#FCCD2A"/>
  <path d="M50.2101 11.81C49.7001 11.81 49.1801 11.74 48.6701 11.61C47.1501 11.2 45.8801 10.23 45.0901 8.85999C44.3001 7.49999 44.0901 5.91 44.5001 4.37999C44.9101 2.85999 45.8901 1.57999 47.2501 0.789995C48.6101 -5.42402e-06 50.2001 -0.210005 51.7301 0.199995C53.2501 0.609995 54.5201 1.58999 55.3101 2.94999C56.1001 4.30999 56.3101 5.90999 55.9001 7.42999C55.4901 8.95 54.5201 10.22 53.1501 11.01C52.2401 11.53 51.2301 11.8 50.2101 11.8V11.81ZM50.2001 1.29999C49.4001 1.29999 48.6201 1.50999 47.9101 1.91999C46.8401 2.52999 46.0801 3.52999 45.7601 4.70999C45.4401 5.89999 45.6101 7.13999 46.2201 8.19999C46.8301 9.25999 47.8201 10.02 49.0101 10.34C50.2001 10.66 51.4401 10.49 52.5001 9.87999C53.5601 9.26999 54.3301 8.27999 54.6401 7.08999C54.9601 5.89999 54.7901 4.65999 54.1801 3.59999C53.5701 2.53999 52.5801 1.77999 51.3901 1.45999C50.9901 1.34999 50.5901 1.29999 50.1901 1.29999H50.2001Z" fill="#0E1721"/>
  <path d="M93.05 69.85C94.5 72.36 93.64 75.57 91.13 77.02C88.62 78.47 85.41 77.61 83.96 75.1C82.51 72.59 83.37 69.38 85.88 67.93C88.39 66.48 91.6 67.34 93.05 69.85Z" fill="#FC8B27"/>
  <path d="M88.52 78.38C88.01 78.38 87.49 78.31 86.98 78.18C85.46 77.77 84.19 76.79 83.4 75.43C82.61 74.07 82.4 72.48 82.81 70.95C83.22 69.43 84.19 68.16 85.56 67.37C86.92 66.58 88.51 66.37 90.04 66.78C91.56 67.19 92.83 68.16 93.62 69.53C94.41 70.9 94.62 72.49 94.21 74.01C93.8 75.53 92.83 76.8 91.46 77.59C90.55 78.12 89.54 78.38 88.52 78.38ZM88.5 67.87C87.7 67.87 86.92 68.08 86.21 68.49C85.14 69.1 84.38 70.09 84.07 71.28C83.75 72.47 83.92 73.71 84.53 74.77C85.14 75.84 86.13 76.6 87.32 76.91C88.51 77.23 89.75 77.07 90.81 76.45C91.87 75.84 92.64 74.85 92.95 73.66C93.27 72.47 93.1 71.23 92.49 70.17C91.88 69.11 90.88 68.35 89.7 68.03C89.3 67.92 88.9 67.87 88.5 67.87Z" fill="#0E1721"/>
  <path d="M16.4501 69.8499C17.9001 72.3599 17.0401 75.5699 14.5201 77.0199C12.0101 78.4699 8.80005 77.6099 7.35005 75.0999C5.90005 72.5899 6.76005 69.3799 9.27005 67.9299C11.7801 66.4799 14.9901 67.3399 16.4401 69.8499" fill="#3C8645"/>
  <path d="M11.9101 78.38C11.4001 78.38 10.8801 78.31 10.3801 78.18C8.86006 77.77 7.58006 76.79 6.79006 75.43C6.00006 74.07 5.79006 72.47 6.20006 70.95C6.61006 69.43 7.58006 68.16 8.95006 67.37C11.7601 65.74 15.3801 66.71 17.0101 69.53C18.6401 72.35 17.6601 75.97 14.8501 77.59C13.9401 78.12 12.9301 78.38 11.9101 78.38ZM11.9001 67.87C11.1001 67.87 10.3201 68.08 9.61006 68.49C8.54006 69.1 7.78006 70.1 7.47006 71.28C7.15006 72.47 7.32006 73.7 7.93006 74.77C8.54006 75.84 9.54006 76.6 10.7201 76.91C11.9101 77.23 13.1401 77.06 14.2001 76.45C16.4001 75.18 17.1501 72.37 15.8901 70.17C15.2701 69.11 14.2801 68.35 13.1001 68.03C12.7001 67.92 12.3001 67.87 11.9001 67.87Z" fill="#0E1721"/>
  <path d="M93.05 24.9C94.5 27.41 93.64 30.62 91.13 32.07C88.62 33.52 85.41 32.66 83.96 30.15C82.51 27.64 83.37 24.43 85.88 22.98C88.39 21.53 91.6 22.39 93.05 24.9Z" fill="#3C8645"/>
  <path d="M88.52 33.43C88.01 33.43 87.49 33.36 86.98 33.23C85.46 32.82 84.19 31.85 83.4 30.48C82.61 29.12 82.4 27.53 82.81 26C83.22 24.48 84.2 23.2 85.56 22.41C86.92 21.62 88.51 21.41 90.04 21.82C91.56 22.23 92.83 23.21 93.62 24.57C94.41 25.93 94.62 27.52 94.21 29.05C93.8 30.58 92.83 31.84 91.46 32.63C90.55 33.15 89.54 33.42 88.52 33.42V33.43ZM88.5 22.93C87.7 22.93 86.92 23.14 86.21 23.55C85.14 24.16 84.38 25.16 84.06 26.34C83.74 27.53 83.91 28.77 84.52 29.83C85.13 30.89 86.12 31.65 87.31 31.97C88.5 32.29 89.74 32.12 90.8 31.51C91.86 30.9 92.63 29.91 92.94 28.72C93.26 27.53 93.09 26.29 92.48 25.23C91.87 24.17 90.88 23.41 89.69 23.09C89.29 22.98 88.89 22.93 88.49 22.93H88.5Z" fill="#0E1721"/>
  <path d="M54.75 91.47C56.2 93.98 55.34 97.19 52.83 98.64C50.32 100.09 47.11 99.23 45.66 96.72C44.21 94.21 45.07 91 47.58 89.55C50.09 88.1 53.3 88.96 54.75 91.47Z" fill="#FCCD2A"/>
  <path d="M50.21 100C49.7 100 49.18 99.93 48.67 99.8C47.15 99.39 45.88 98.42 45.09 97.05C44.3 95.69 44.09 94.1 44.5 92.57C44.91 91.05 45.89 89.77 47.25 88.98C48.61 88.19 50.2 87.98 51.73 88.39C53.25 88.8 54.53 89.77 55.31 91.14C56.1 92.5 56.31 94.1 55.9 95.62C55.49 97.14 54.52 98.41 53.15 99.2C52.24 99.72 51.23 99.99 50.21 99.99V100ZM50.2 89.5C49.4 89.5 48.62 89.71 47.91 90.12C46.84 90.73 46.08 91.73 45.76 92.91C45.44 94.1 45.61 95.34 46.22 96.4C46.83 97.46 47.82 98.22 49.01 98.54C50.2 98.86 51.44 98.69 52.5 98.08C53.56 97.47 54.33 96.48 54.64 95.29C54.96 94.1 54.79 92.86 54.18 91.8C53.57 90.74 52.58 89.98 51.39 89.66C50.99 89.55 50.59 89.5 50.19 89.5H50.2Z" fill="#0E1721"/>
  <path d="M16.4501 24.9C17.9001 27.41 17.0401 30.62 14.5301 32.07C12.0201 33.52 8.81006 32.66 7.36006 30.15C5.91006 27.64 6.77006 24.43 9.28006 22.98C11.7901 21.53 15.0001 22.39 16.4501 24.9Z" fill="#FC8B27"/>
  <path d="M11.91 33.43C11.4 33.43 10.88 33.36 10.37 33.23C8.85001 32.82 7.58001 31.85 6.79001 30.48C6.00001 29.11 5.80001 27.52 6.20001 26C6.61001 24.48 7.59001 23.2 8.95001 22.41C10.31 21.62 11.9 21.41 13.43 21.82C14.95 22.23 16.22 23.2 17.01 24.57C17.8 25.94 18.01 27.53 17.6 29.05C17.19 30.57 16.22 31.84 14.85 32.63C13.94 33.15 12.93 33.42 11.91 33.42V33.43ZM11.9 22.93C11.1 22.93 10.32 23.14 9.61001 23.55C8.54001 24.16 7.78001 25.16 7.46001 26.34C7.14001 27.53 7.31001 28.77 7.92001 29.83C8.53001 30.89 9.52001 31.65 10.71 31.97C11.9 32.29 13.14 32.12 14.2 31.51C15.26 30.9 16.03 29.91 16.34 28.72C16.66 27.53 16.49 26.29 15.88 25.23C15.27 24.17 14.28 23.41 13.09 23.09C12.69 22.98 12.29 22.93 11.89 22.93H11.9Z" fill="#0E1721"/>
</svg>
