<svg xmlns="http://www.w3.org/2000/svg" width="100" height="100" viewBox="0 0 100 100" fill="none">
  <path d="M17.0201 69.52C17.1101 69.68 17.1701 69.86 17.2501 70.03L35.5701 59.04C35.3401 58.67 35.1201 58.3 34.9201 57.91L24.8601 63.95L16.5801 68.92C16.7301 69.12 16.8901 69.31 17.0201 69.53V69.52Z" fill="#2D557F"/>
  <path d="M50.84 32.81V11.77C50.63 11.79 50.42 11.81 50.21 11.81C49.98 11.81 49.76 11.79 49.53 11.77V32.82C49.75 32.82 49.97 32.79 50.2 32.79C50.41 32.79 50.62 32.81 50.83 32.82L50.84 32.81Z" fill="#2D557F"/>
  <path d="M93.6201 24.58C92.8301 23.22 91.5601 22.24 90.0401 21.83C88.5201 21.42 86.9301 21.63 85.5601 22.42C84.8201 22.84 84.2101 23.42 83.7301 24.09L55.6101 8.21997C55.4401 8.61997 55.2301 9.00997 54.9801 9.35997L83.1001 25.23C82.9901 25.48 82.8801 25.74 82.8101 26.01C82.4601 27.31 82.5901 28.66 83.1201 29.87L64.5701 40.51C64.8101 40.87 65.0301 41.24 65.2501 41.62L83.7701 31C84.5601 32.08 85.6701 32.88 86.9801 33.23C87.2701 33.31 87.5601 33.36 87.8601 33.39V66.62C88.2901 66.57 88.7301 66.58 89.1601 66.63V33.39C89.9601 33.3 90.7401 33.05 91.4601 32.64C92.8301 31.85 93.8001 30.58 94.2101 29.06C94.6201 27.54 94.4101 25.95 93.6201 24.58ZM92.9501 28.72C92.6301 29.91 91.8701 30.9 90.8101 31.51C90.2901 31.81 89.7301 31.99 89.1601 32.08C88.7301 32.14 88.2901 32.12 87.8601 32.06C87.6801 32.03 87.5001 32.02 87.3201 31.97C86.3401 31.71 85.5101 31.13 84.9001 30.35C84.7701 30.18 84.6401 30.02 84.5301 29.83C84.4201 29.63 84.3401 29.43 84.2501 29.22C83.8801 28.31 83.8101 27.31 84.0701 26.34C84.1101 26.18 84.1901 26.03 84.2501 25.87C84.4101 25.46 84.6101 25.07 84.8701 24.72C85.2301 24.25 85.6901 23.85 86.2201 23.54C86.9301 23.13 87.7101 22.92 88.5101 22.92C88.9101 22.92 89.3101 22.97 89.7101 23.08C90.9001 23.4 91.8901 24.16 92.5001 25.22C93.1201 26.28 93.2801 27.52 92.9601 28.71L92.9501 28.72Z" fill="#2D557F"/>
  <path d="M35.7801 40.62L17.2101 30.13C17.3801 29.79 17.5101 29.43 17.6101 29.06C17.9301 27.86 17.8501 26.62 17.4201 25.48L45.4601 9.38C45.3401 9.21 45.2001 9.05 45.0901 8.87C44.9801 8.67 44.9001 8.46 44.8101 8.25L16.8201 24.31C16.0301 23.09 14.8501 22.21 13.4301 21.83C11.9101 21.42 10.3201 21.63 8.95006 22.42C7.58006 23.21 6.61006 24.48 6.20006 26.01C5.79006 27.53 6.00006 29.12 6.79006 30.49C7.58006 31.85 8.85006 32.83 10.3701 33.24C10.6601 33.32 10.9501 33.37 11.2501 33.4V66.63C11.6901 66.58 12.1201 66.59 12.5501 66.64V33.4C13.3501 33.31 14.1301 33.06 14.8501 32.65C15.4901 32.28 16.0401 31.8 16.4901 31.24L35.1001 41.75C35.3101 41.37 35.5401 41 35.7801 40.64V40.62ZM16.3501 28.72C16.2801 28.99 16.1801 29.24 16.0601 29.49C15.8701 29.89 15.6201 30.25 15.3301 30.57C15.0101 30.93 14.6401 31.26 14.2001 31.51C13.6801 31.81 13.1201 31.99 12.5501 32.08C12.1201 32.14 11.6801 32.13 11.2501 32.06C11.0701 32.03 10.8901 32.02 10.7101 31.97C9.52006 31.65 8.53006 30.89 7.92006 29.83C7.31006 28.77 7.14006 27.53 7.46006 26.34C7.78006 25.15 8.54006 24.16 9.61006 23.55C10.3201 23.14 11.1001 22.93 11.9001 22.93C12.3001 22.93 12.7001 22.98 13.1001 23.09C14.1801 23.38 15.0801 24.05 15.7001 24.96C15.7601 25.05 15.8401 25.13 15.8901 25.23C16.0601 25.52 16.1801 25.82 16.2801 26.13C16.5501 26.96 16.5801 27.86 16.3501 28.72Z" fill="#2D557F"/>
  <path d="M83.4 75.4199C83.23 75.1299 83.11 74.8299 82.99 74.5299L54.94 90.6299C54.15 89.5499 53.04 88.7499 51.73 88.3999C51.44 88.3199 51.15 88.2899 50.85 88.2499V67.1899C50.63 67.1899 50.42 67.2199 50.2 67.2199C49.98 67.2199 49.76 67.1999 49.54 67.1899V88.2399C48.75 88.3299 47.97 88.5699 47.25 88.9899C46.51 89.4099 45.9 89.9899 45.42 90.6599L17.3 74.7899C17.13 75.1899 16.93 75.5699 16.67 75.9299L44.79 91.7999C44.68 92.0599 44.57 92.3099 44.5 92.5799C44.09 94.0999 44.3 95.6899 45.09 97.0599C45.88 98.4299 47.15 99.3999 48.67 99.8099C49.18 99.9499 49.69 100.01 50.21 100.01C51.23 100.01 52.24 99.7399 53.15 99.2199C54.52 98.4299 55.49 97.1599 55.9 95.6399C56.25 94.3399 56.12 92.9899 55.59 91.7699L83.59 75.6999C83.53 75.6099 83.46 75.5299 83.4 75.4299V75.4199ZM54.65 95.2899C54.33 96.4799 53.57 97.4699 52.51 98.0799C51.44 98.6899 50.2 98.8599 49.02 98.5399C47.83 98.2199 46.84 97.4599 46.23 96.3999C45.62 95.3399 45.45 94.0999 45.77 92.9099C45.81 92.7499 45.89 92.5899 45.95 92.4399C46.11 92.0299 46.31 91.6399 46.57 91.2899C46.93 90.8199 47.39 90.4199 47.92 90.1099C48.43 89.8099 48.99 89.6599 49.57 89.5799C49.78 89.5499 50 89.4999 50.21 89.4999C50.42 89.4999 50.65 89.5499 50.87 89.5899C51.05 89.6199 51.23 89.6099 51.41 89.6599C52.39 89.9199 53.22 90.4999 53.83 91.2799C53.96 91.4499 54.09 91.6099 54.2 91.7999C54.31 91.9899 54.39 92.1999 54.48 92.4099C54.85 93.3199 54.92 94.3199 54.67 95.2899H54.65Z" fill="#2D557F"/>
  <path d="M64.91 58.94L83.27 69.77C83.47 69.38 83.72 69.02 84 68.69L65.55 57.8C65.35 58.19 65.14 58.57 64.91 58.94Z" fill="#2D557F"/>
  <path d="M45.0999 8.85999C45.2099 9.03999 45.3399 9.19999 45.4699 9.36999C46.2599 10.46 47.3699 11.25 48.6799 11.61C48.9599 11.69 49.2499 11.74 49.5399 11.77C49.7699 11.8 49.9899 11.81 50.2199 11.81C50.4299 11.81 50.6399 11.79 50.8499 11.77C51.6599 11.68 52.4399 11.44 53.1699 11.02C53.8999 10.6 54.5099 10.03 54.9899 9.35999C55.2399 9.00999 55.4499 8.61999 55.6199 8.21999C55.7299 7.95999 55.8399 7.70999 55.9099 7.42999C56.3199 5.90999 56.1099 4.31999 55.3199 2.94999C54.5299 1.58999 53.2599 0.609995 51.7399 0.199995C50.2199 -0.210005 48.6299 -5.42402e-06 47.2599 0.789995C45.8899 1.57999 44.9199 2.84999 44.5099 4.37999C44.1599 5.67999 44.2899 7.01999 44.8199 8.23999C44.9099 8.44999 44.9899 8.65999 45.0999 8.85999ZM45.7699 4.71999C46.0899 3.52999 46.8499 2.53999 47.9199 1.92999C48.6299 1.51999 49.4099 1.30999 50.2099 1.30999C50.6099 1.30999 51.0099 1.35999 51.4099 1.46999C52.5999 1.78999 53.5899 2.54999 54.1999 3.60999C54.8199 4.66999 54.9799 5.90999 54.6599 7.09999C54.6199 7.26999 54.5399 7.41999 54.4799 7.57999C54.3199 7.98999 54.1199 8.37999 53.8599 8.71999C53.4999 9.18999 53.0499 9.58999 52.5199 9.88999C51.9999 10.19 51.4299 10.38 50.8499 10.46C50.4199 10.52 49.9799 10.5 49.5499 10.44C49.3799 10.41 49.1999 10.4 49.0299 10.35C48.0499 10.09 47.2199 9.50999 46.6099 8.71999C46.4799 8.54999 46.3499 8.38999 46.2399 8.20999C46.1299 8.00999 46.0399 7.79999 45.9599 7.58999C45.5999 6.68 45.5199 5.67999 45.7799 4.71999H45.7699Z" fill="#4279B6"/>
  <path d="M93.6199 69.52C92.8299 68.16 91.5599 67.18 90.0399 66.77C89.7499 66.69 89.4599 66.66 89.1699 66.63C88.7299 66.58 88.2999 66.57 87.8699 66.62C87.0699 66.71 86.2899 66.95 85.5699 67.37C84.9599 67.72 84.4499 68.18 84.0099 68.7C83.7299 69.03 83.4799 69.39 83.2799 69.78C83.0899 70.15 82.9299 70.54 82.8199 70.95C82.4999 72.15 82.5799 73.39 82.9999 74.53C83.1099 74.83 83.2399 75.14 83.4099 75.42C83.4599 75.52 83.5399 75.59 83.5999 75.69C84.3899 76.91 85.5699 77.8 86.9899 78.18C87.4999 78.32 88.0099 78.38 88.5299 78.38C89.5499 78.38 90.5599 78.11 91.4699 77.59C92.8399 76.8 93.8099 75.53 94.2199 74.01C94.6299 72.49 94.4199 70.9 93.6299 69.53L93.6199 69.52ZM92.9499 73.67C92.6299 74.86 91.8699 75.85 90.8099 76.46C89.7499 77.08 88.5099 77.24 87.3199 76.92C86.2399 76.63 85.3399 75.96 84.7199 75.04C84.6599 74.95 84.5799 74.87 84.5299 74.77C84.3599 74.48 84.2399 74.18 84.1399 73.87C83.8699 73.04 83.8399 72.14 84.0699 71.28C84.1499 70.98 84.2599 70.7 84.3899 70.43C84.5799 70.03 84.8499 69.69 85.1499 69.36C85.4599 69.02 85.8099 68.72 86.2199 68.48C86.7299 68.18 87.2999 68.03 87.8699 67.95C88.0799 67.92 88.2999 67.86 88.5099 67.86C88.7199 67.86 88.9499 67.91 89.1699 67.95C89.3499 67.98 89.5299 67.97 89.7099 68.02C90.8999 68.34 91.8899 69.1 92.4999 70.16C93.1199 71.22 93.2799 72.46 92.9599 73.65L92.9499 73.67Z" fill="#4279B6"/>
  <path d="M17.0199 69.52C16.8899 69.3 16.7299 69.11 16.5799 68.91C15.5799 67.6 14.1199 66.8 12.5599 66.63C12.1299 66.58 11.6899 66.57 11.2599 66.62C10.4699 66.71 9.68994 66.95 8.95994 67.37C7.58994 68.16 6.61994 69.43 6.20994 70.95C5.79994 72.47 6.00994 74.06 6.79994 75.43C7.58994 76.8 8.85994 77.77 10.3899 78.18C10.8999 78.32 11.4099 78.38 11.9199 78.38C12.9399 78.38 13.9499 78.11 14.8599 77.59C15.6099 77.16 16.2099 76.58 16.6899 75.92C16.9499 75.56 17.1499 75.18 17.3199 74.78C17.9499 73.29 17.9599 71.58 17.2499 70.03C17.1699 69.86 17.1199 69.69 17.0199 69.52ZM16.1699 74.13C16.0099 74.54 15.8099 74.92 15.5499 75.27C15.1899 75.73 14.7399 76.14 14.2099 76.45C13.1499 77.06 11.9099 77.23 10.7299 76.91C9.53994 76.59 8.54994 75.83 7.93994 74.76C7.32994 73.7 7.15994 72.46 7.47994 71.27C7.79994 70.08 8.55994 69.09 9.61994 68.48C10.1299 68.18 10.6999 68.03 11.2699 67.95C11.4899 67.92 11.6999 67.86 11.9199 67.86C12.1399 67.86 12.3599 67.91 12.5799 67.95C12.7599 67.98 12.9399 67.97 13.1199 68.02C14.0699 68.27 14.8799 68.82 15.4899 69.57C15.6399 69.76 15.7899 69.95 15.9199 70.16C16.0199 70.33 16.0799 70.51 16.1599 70.69C16.6299 71.82 16.6199 73.04 16.1999 74.12L16.1699 74.13Z" fill="#4279B6"/>
  <path d="M50.2197 32.78C59.7296 32.78 67.4403 40.4898 67.4404 49.9997C67.4404 59.5097 59.7297 67.2204 50.2197 67.2204C40.7099 67.2203 33 59.5096 33 49.9997C33.0001 40.4899 40.7099 32.7801 50.2197 32.78Z" fill="#4279B6"/>
  <path d="M59.5703 55.4367C59.5703 56.1242 59.0293 56.6857 58.3555 56.6857H42.4658C41.7972 56.6857 41.251 56.1294 41.251 55.4367V44.7364C41.251 44.049 41.7921 43.4874 42.4658 43.4874H54.0628V41.1784H42.0013C40.3424 41.1784 39 42.5586 39 44.2641V55.909C39 57.6146 40.3424 58.9947 42.0013 58.9947H58.82C60.4789 58.9947 61.8213 57.6146 61.8213 55.909V49.1551H59.5703V55.4367Z" fill="white"/>
  <path d="M60.6983 43.6711C61.4181 43.6711 61.9948 43.0729 61.9948 42.3382C61.9948 41.6035 61.413 41.0052 60.6983 41.0052C59.9837 41.0052 59.4019 41.6035 59.4019 42.3382C59.4019 43.0729 59.9837 43.6711 60.6983 43.6711Z" fill="white"/>
  <path d="M56.8702 43.6711C57.5899 43.6711 58.1667 43.0729 58.1667 42.3382C58.1667 41.6035 57.5848 41.0052 56.8702 41.0052C56.1556 41.0052 55.5737 41.6035 55.5737 42.3382C55.5737 43.0729 56.1556 43.6711 56.8702 43.6711Z" fill="white"/>
  <path d="M60.6983 44.9306C59.9786 44.9306 59.4019 45.5289 59.4019 46.2635C59.4019 46.9982 59.9837 47.5965 60.6983 47.5965C61.413 47.5965 61.9948 46.9982 61.9948 46.2635C61.9948 45.5289 61.413 44.9306 60.6983 44.9306Z" fill="white"/>
  <path d="M45.7785 49.2758C47.2638 49.2758 48.4684 50.5143 48.4684 52.0414C48.4684 53.5685 47.2638 54.807 45.7785 54.807C44.2931 54.807 43.0885 53.5685 43.0885 52.0414C43.0885 50.5143 44.2931 49.2758 45.7785 49.2758Z" fill="white"/>
</svg>
