<svg xmlns="http://www.w3.org/2000/svg" width="100" height="100" viewBox="0 0 100 100" fill="none">
  <path d="M73.43 65.02H83.35C92.06 65.02 99.15 57.93 99.15 49.22C99.15 40.51 92.06 33.42 83.35 33.42C82.16 33.42 80.99 33.56 79.83 33.83C79.83 33.69 79.84 33.56 79.84 33.42C79.84 27.61 75.12 22.89 69.31 22.89C67.65 22.89 66.05 23.28 64.59 24.04C60.37 14.87 51.13 8.84998 40.94 8.84998C27.13 8.84998 15.79 19.66 14.95 33.52C7.02997 34.37 0.849976 41.09 0.849976 49.23C0.849976 57.94 7.93997 65.03 16.65 65.03L40.14 65H40.34V71.56H30.94L48.41 92.04L65.89 71.56H56.66V58.29H47.26L64.74 37.81L82.21 58.29H72.81V65.03H73.43V65.02Z" fill="#4279B6"/>
  <path d="M48.41 92.88C48.16 92.88 47.92 92.77 47.76 92.58L30.29 72.1C30.07 71.85 30.03 71.49 30.16 71.19C30.3 70.89 30.6 70.7 30.93 70.7H39.48V65.84L16.65 65.87C7.47 65.87 0 58.4 0 49.22C0 40.93 6.04 33.97 14.16 32.76C15.36 18.82 26.99 8 40.94 8C51.11 8 60.46 13.83 64.99 22.91C66.36 22.33 67.81 22.04 69.31 22.04C75.38 22.04 80.35 26.81 80.68 32.8C81.56 32.65 82.46 32.58 83.36 32.58C92.54 32.58 100.01 40.05 100.01 49.23C100.01 58.41 92.54 65.88 83.36 65.88H72.83C72.36 65.88 71.98 65.5 71.98 65.03V58.29C71.98 57.82 72.36 57.44 72.83 57.44H80.38L64.75 39.12L49.11 57.44H56.66C57.13 57.44 57.51 57.82 57.51 58.29V70.71H65.89C66.22 70.71 66.52 70.9 66.66 71.2C66.8 71.5 66.75 71.86 66.53 72.11L49.05 92.59C48.89 92.78 48.65 92.89 48.4 92.89L48.41 92.88ZM32.78 72.4L48.41 90.72L64.05 72.4H56.67C56.2 72.4 55.82 72.02 55.82 71.55V59.13H47.27C46.94 59.13 46.64 58.94 46.5 58.64C46.36 58.34 46.41 57.98 46.63 57.73L64.11 37.25C64.27 37.06 64.51 36.95 64.76 36.95C65.01 36.95 65.25 37.06 65.41 37.25L82.88 57.73C83.1 57.98 83.14 58.34 83.01 58.64C82.87 58.94 82.57 59.13 82.24 59.13H73.69V64.17H83.37C91.61 64.17 98.32 57.46 98.32 49.22C98.32 40.98 91.61 34.27 83.37 34.27C82.25 34.27 81.13 34.4 80.05 34.66C79.79 34.72 79.52 34.66 79.31 34.49C79.1 34.32 78.99 34.06 79 33.79C79 33.67 79 33.54 79 33.42C79 28.08 74.66 23.74 69.32 23.74C67.8 23.74 66.34 24.09 64.98 24.79C64.77 24.9 64.53 24.91 64.31 24.84C64.09 24.76 63.91 24.6 63.81 24.39C59.71 15.47 50.73 9.7 40.94 9.7C27.66 9.7 16.62 20.18 15.81 33.57C15.79 33.98 15.46 34.32 15.05 34.36C7.44 35.17 1.71 41.56 1.71 49.22C1.71 57.46 8.42 64.17 16.66 64.17L40.35 64.14C40.82 64.14 41.2 64.52 41.2 64.99V71.55C41.2 72.02 40.82 72.4 40.35 72.4H32.8H32.78Z" fill="#0E1721"/>
  <path d="M72.82 65.02H56.66V58.28H47.26L64.74 37.8L82.21 58.28H72.82V65.02Z" fill="#FCCD2A"/>
  <path d="M40.14 64.99H56.66V71.55H65.89L48.41 92.03L30.94 71.55H40.33L40.14 64.99Z" fill="#FC8B27"/>
  <path d="M39.69 47C47.9135 47 54.58 40.3335 54.58 32.11C54.58 23.8865 47.9135 17.22 39.69 17.22C31.4665 17.22 24.8 23.8865 24.8 32.11C24.8 40.3335 31.4665 47 39.69 47Z" fill="white"/>
  <path d="M39.69 47.85C31.01 47.85 23.95 40.79 23.95 32.11C23.95 23.43 31.01 16.37 39.69 16.37C48.37 16.37 55.43 23.43 55.43 32.11C55.43 40.79 48.37 47.85 39.69 47.85ZM39.69 18.07C31.95 18.07 25.65 24.37 25.65 32.11C25.65 39.85 31.95 46.15 39.69 46.15C47.43 46.15 53.73 39.85 53.73 32.11C53.73 24.37 47.43 18.07 39.69 18.07Z" fill="#0E1721"/>
  <path d="M47.7816 36.8327C47.7816 37.4438 47.2876 37.9429 46.6724 37.9429H32.1644C31.5539 37.9429 31.0553 37.4484 31.0553 36.8327V27.3213C31.0553 26.7102 31.5493 26.2111 32.1644 26.2111H42.753V24.1586H31.7403C30.2257 24.1586 29 25.3855 29 26.9015V37.2525C29 38.7685 30.2257 39.9954 31.7403 39.9954H47.0965C48.6112 39.9954 49.8369 38.7685 49.8369 37.2525V31.249H47.7816V36.8327Z" fill="#4279B6"/>
  <path d="M48.8116 26.3743C49.4687 26.3743 49.9953 25.8425 49.9953 25.1895C49.9953 24.5364 49.464 24.0046 48.8116 24.0046C48.1591 24.0046 47.6278 24.5364 47.6278 25.1895C47.6278 25.8425 48.1591 26.3743 48.8116 26.3743Z" fill="#4279B6"/>
  <path d="M45.3163 26.3743C45.9734 26.3743 46.5 25.8425 46.5 25.1895C46.5 24.5364 45.9687 24.0046 45.3163 24.0046C44.6638 24.0046 44.1325 24.5364 44.1325 25.1895C44.1325 25.8425 44.6638 26.3743 45.3163 26.3743Z" fill="#4279B6"/>
  <path d="M48.8116 27.4939C48.1544 27.4939 47.6278 28.0257 47.6278 28.6787C47.6278 29.3318 48.1591 29.8636 48.8116 29.8636C49.464 29.8636 49.9953 29.3318 49.9953 28.6787C49.9953 28.0257 49.464 27.4939 48.8116 27.4939Z" fill="#4279B6"/>
  <path d="M35.1891 31.3563C36.5453 31.3563 37.6451 32.4571 37.6451 33.8146C37.6451 35.172 36.5453 36.2729 35.1891 36.2729C33.8329 36.2729 32.733 35.172 32.733 33.8146C32.733 32.4571 33.8329 31.3563 35.1891 31.3563Z" fill="#4279B6"/>
  <path d="M48.41 92.88C48.16 92.88 47.92 92.77 47.76 92.58L30.29 72.1C30.07 71.85 30.03 71.49 30.16 71.19C30.3 70.89 30.6 70.7 30.93 70.7H39.48V65.84L16.65 65.87C7.47 65.87 0 58.4 0 49.22C0 40.93 6.04 33.97 14.16 32.76C15.36 18.82 26.99 8 40.94 8C51.11 8 60.46 13.83 64.99 22.91C66.36 22.33 67.81 22.04 69.31 22.04C75.38 22.04 80.35 26.81 80.68 32.8C81.56 32.65 82.46 32.58 83.36 32.58C92.54 32.58 100.01 40.05 100.01 49.23C100.01 58.41 92.54 65.88 83.36 65.88H72.83C72.36 65.88 71.98 65.5 71.98 65.03V58.29C71.98 57.82 72.36 57.44 72.83 57.44H80.38L64.75 39.12L49.11 57.44H56.66C57.13 57.44 57.51 57.82 57.51 58.29V70.71H65.89C66.22 70.71 66.52 70.9 66.66 71.2C66.8 71.5 66.75 71.86 66.53 72.11L49.05 92.59C48.89 92.78 48.65 92.89 48.4 92.89L48.41 92.88ZM32.78 72.4L48.41 90.72L64.05 72.4H56.67C56.2 72.4 55.82 72.02 55.82 71.55V59.13H47.27C46.94 59.13 46.64 58.94 46.5 58.64C46.36 58.34 46.41 57.98 46.63 57.73L64.11 37.25C64.27 37.06 64.51 36.95 64.76 36.95C65.01 36.95 65.25 37.06 65.41 37.25L82.88 57.73C83.1 57.98 83.14 58.34 83.01 58.64C82.87 58.94 82.57 59.13 82.24 59.13H73.69V64.17H83.37C91.61 64.17 98.32 57.46 98.32 49.22C98.32 40.98 91.61 34.27 83.37 34.27C82.25 34.27 81.13 34.4 80.05 34.66C79.79 34.72 79.52 34.66 79.31 34.49C79.1 34.32 78.99 34.06 79 33.79C79 33.67 79 33.54 79 33.42C79 28.08 74.66 23.74 69.32 23.74C67.8 23.74 66.34 24.09 64.98 24.79C64.77 24.9 64.53 24.91 64.31 24.84C64.09 24.76 63.91 24.6 63.81 24.39C59.71 15.47 50.73 9.7 40.94 9.7C27.66 9.7 16.62 20.18 15.81 33.57C15.79 33.98 15.46 34.32 15.05 34.36C7.44 35.17 1.71 41.56 1.71 49.22C1.71 57.46 8.42 64.17 16.66 64.17L40.35 64.14C40.82 64.14 41.2 64.52 41.2 64.99V71.55C41.2 72.02 40.82 72.4 40.35 72.4H32.8H32.78Z" fill="#0E1721"/>
</svg>
