<svg xmlns="http://www.w3.org/2000/svg" width="100" height="100" viewBox="0 0 100 100" fill="none">
  <path d="M28.55 28.8C28.37 28.8 28.18 28.73 28.04 28.59L17.95 18.5C17.67 18.22 17.67 17.76 17.95 17.48C18.23 17.2 18.69 17.2 18.97 17.48L29.06 27.57C29.34 27.85 29.34 28.31 29.06 28.59C28.92 28.73 28.74 28.8 28.55 28.8Z" fill="#0E1721"/>
  <path d="M82.04 82.29C81.86 82.29 81.67 82.22 81.53 82.08L71.44 71.99C71.16 71.71 71.16 71.25 71.44 70.97C71.72 70.69 72.18 70.69 72.46 70.97L82.55 81.06C82.83 81.34 82.83 81.8 82.55 82.08C82.41 82.22 82.23 82.29 82.04 82.29Z" fill="#0E1721"/>
  <path d="M18.46 82.29C18.28 82.29 18.09 82.22 17.95 82.08C17.67 81.8 17.67 81.34 17.95 81.06L28.04 70.97C28.32 70.69 28.78 70.69 29.06 70.97C29.34 71.25 29.34 71.71 29.06 71.99L18.97 82.08C18.83 82.22 18.65 82.29 18.46 82.29Z" fill="#0E1721"/>
  <path d="M71.95 28.8C71.77 28.8 71.58 28.73 71.44 28.59C71.16 28.31 71.16 27.85 71.44 27.57L81.53 17.48C81.81 17.2 82.27 17.2 82.55 17.48C82.83 17.76 82.83 18.22 82.55 18.5L72.46 28.59C72.32 28.73 72.14 28.8 71.95 28.8Z" fill="#0E1721"/>
  <path d="M89.0499 21.18C94.6998 21.18 99.2799 16.5998 99.2799 10.95C99.2799 5.3001 94.6998 0.719971 89.0499 0.719971C83.4001 0.719971 78.8199 5.3001 78.8199 10.95C78.8199 16.5998 83.4001 21.18 89.0499 21.18Z" fill="#3C8645"/>
  <path d="M89.05 21.9C83.01 21.9 78.1 16.99 78.1 10.95C78.1 4.91 83.01 0 89.05 0C95.09 0 100 4.91 100 10.95C100 16.99 95.09 21.9 89.05 21.9ZM89.05 1.44C83.81 1.44 79.54 5.71 79.54 10.95C79.54 16.19 83.81 20.46 89.05 20.46C94.29 20.46 98.56 16.19 98.56 10.95C98.56 5.71 94.29 1.44 89.05 1.44Z" fill="#0E1721"/>
  <path fill-rule="evenodd" clip-rule="evenodd" d="M94.35 16.39H83.75C83.84 15.07 84.41 13.88 85.29 13C86.25 12.04 87.58 11.44 89.04 11.44C90.51 11.44 91.83 12.04 92.79 13C93.67 13.88 94.24 15.07 94.33 16.39H94.35Z" fill="#0E1721"/>
  <path fill-rule="evenodd" clip-rule="evenodd" d="M92.1701 8.22998C92.1701 8.65998 92.0801 9.06998 91.9301 9.44999C91.7701 9.81998 91.5401 10.16 91.2601 10.44C90.6901 11 89.9201 11.35 89.0501 11.35C88.1901 11.35 87.41 11 86.84 10.44C86.27 9.86998 85.9301 9.08998 85.9301 8.22998C85.9301 7.36998 86.28 6.58999 86.84 6.01999C87.41 5.45999 88.1901 5.10999 89.0501 5.10999C89.9101 5.10999 90.6901 5.45999 91.2601 6.01999C91.8201 6.58999 92.1701 7.36998 92.1701 8.22998Z" fill="#0E1721"/>
  <path d="M10.95 21.18C16.5998 21.18 21.18 16.5998 21.18 10.95C21.18 5.3001 16.5998 0.719971 10.95 0.719971C5.3001 0.719971 0.719971 5.3001 0.719971 10.95C0.719971 16.5998 5.3001 21.18 10.95 21.18Z" fill="#FCCD2A"/>
  <path d="M10.95 21.9C4.91 21.9 0 16.99 0 10.95C0 4.91 4.91 0 10.95 0C16.99 0 21.9 4.91 21.9 10.95C21.9 16.99 16.99 21.9 10.95 21.9ZM10.95 1.44C5.71 1.44 1.44 5.71 1.44 10.95C1.44 16.19 5.71 20.46 10.95 20.46C16.19 20.46 20.46 16.19 20.46 10.95C20.46 5.71 16.19 1.44 10.95 1.44Z" fill="#0E1721"/>
  <path fill-rule="evenodd" clip-rule="evenodd" d="M16.25 16.39H5.65002C5.74002 15.07 6.31002 13.88 7.19002 13C8.15002 12.04 9.48002 11.44 10.94 11.44C12.41 11.44 13.73 12.04 14.69 13C15.57 13.88 16.14 15.07 16.23 16.39H16.25Z" fill="#0E1721"/>
  <path fill-rule="evenodd" clip-rule="evenodd" d="M14.0701 8.22998C14.0701 8.65998 13.9801 9.06998 13.8301 9.44999C13.6701 9.81998 13.4401 10.16 13.1601 10.44C12.5901 11 11.8201 11.35 10.9501 11.35C10.0901 11.35 9.31008 11 8.74008 10.44C8.17008 9.86998 7.83008 9.08998 7.83008 8.22998C7.83008 7.36998 8.18008 6.58999 8.74008 6.01999C9.31008 5.45999 10.0901 5.10999 10.9501 5.10999C11.8101 5.10999 12.5901 5.45999 13.1601 6.01999C13.7201 6.58999 14.0701 7.36998 14.0701 8.22998Z" fill="#0E1721"/>
  <path d="M89.0499 99.2799C94.6998 99.2799 99.2799 94.6998 99.2799 89.0499C99.2799 83.4001 94.6998 78.8199 89.0499 78.8199C83.4001 78.8199 78.8199 83.4001 78.8199 89.0499C78.8199 94.6998 83.4001 99.2799 89.0499 99.2799Z" fill="#4279B6"/>
  <path d="M89.05 100C83.01 100 78.1 95.09 78.1 89.05C78.1 83.01 83.01 78.1 89.05 78.1C95.09 78.1 100 83.01 100 89.05C100 95.09 95.09 100 89.05 100ZM89.05 79.54C83.81 79.54 79.54 83.81 79.54 89.05C79.54 94.29 83.81 98.56 89.05 98.56C94.29 98.56 98.56 94.29 98.56 89.05C98.56 83.81 94.29 79.54 89.05 79.54Z" fill="#0E1721"/>
  <path fill-rule="evenodd" clip-rule="evenodd" d="M94.35 94.49H83.75C83.84 93.17 84.41 91.98 85.29 91.1C86.25 90.14 87.58 89.54 89.04 89.54C90.51 89.54 91.83 90.14 92.79 91.1C93.67 91.98 94.24 93.17 94.33 94.49H94.35Z" fill="#0E1721"/>
  <path fill-rule="evenodd" clip-rule="evenodd" d="M92.1701 86.34C92.1701 86.77 92.0801 87.18 91.9301 87.56C91.7701 87.93 91.5401 88.27 91.2601 88.55C90.6901 89.11 89.9201 89.46 89.0501 89.46C88.1901 89.46 87.41 89.11 86.84 88.55C86.27 87.98 85.9301 87.2 85.9301 86.34C85.9301 85.48 86.28 84.7 86.84 84.13C87.41 83.57 88.1901 83.22 89.0501 83.22C89.9101 83.22 90.6901 83.57 91.2601 84.13C91.8201 84.7 92.1701 85.48 92.1701 86.34Z" fill="#0E1721"/>
  <path d="M10.95 99.2799C16.5998 99.2799 21.18 94.6998 21.18 89.0499C21.18 83.4001 16.5998 78.8199 10.95 78.8199C5.3001 78.8199 0.719971 83.4001 0.719971 89.0499C0.719971 94.6998 5.3001 99.2799 10.95 99.2799Z" fill="#FC8B27"/>
  <path d="M10.95 100C4.91 100 0 95.09 0 89.05C0 83.01 4.91 78.1 10.95 78.1C16.99 78.1 21.9 83.01 21.9 89.05C21.9 95.09 16.99 100 10.95 100ZM10.95 79.54C5.71 79.54 1.44 83.81 1.44 89.05C1.44 94.29 5.71 98.56 10.95 98.56C16.19 98.56 20.46 94.29 20.46 89.05C20.46 83.81 16.19 79.54 10.95 79.54Z" fill="#0E1721"/>
  <path fill-rule="evenodd" clip-rule="evenodd" d="M16.25 94.49H5.65002C5.74002 93.17 6.31002 91.98 7.19002 91.1C8.15002 90.14 9.48002 89.54 10.94 89.54C12.41 89.54 13.73 90.14 14.69 91.1C15.57 91.98 16.14 93.17 16.23 94.49H16.25Z" fill="#0E1721"/>
  <path fill-rule="evenodd" clip-rule="evenodd" d="M14.0701 86.34C14.0701 86.77 13.9801 87.18 13.8301 87.56C13.6701 87.93 13.4401 88.27 13.1601 88.55C12.5901 89.11 11.8201 89.46 10.9501 89.46C10.0901 89.46 9.31008 89.11 8.74008 88.55C8.17008 87.98 7.83008 87.2 7.83008 86.34C7.83008 85.48 8.18008 84.7 8.74008 84.13C9.31008 83.57 10.0901 83.22 10.9501 83.22C11.8101 83.22 12.5901 83.57 13.1601 84.13C13.7201 84.7 14.0701 85.48 14.0701 86.34Z" fill="#0E1721"/>
  <path d="M49.9999 82.96C68.2032 82.96 82.9599 68.2033 82.9599 50C82.9599 31.7967 68.2032 17.04 49.9999 17.04C31.7966 17.04 17.0399 31.7967 17.0399 50C17.0399 68.2033 31.7966 82.96 49.9999 82.96Z" fill="#4279B6"/>
  <path d="M49.9999 83.68C31.4299 83.68 16.3199 68.57 16.3199 50C16.3199 31.43 31.4299 16.32 49.9999 16.32C68.5699 16.32 83.6799 31.43 83.6799 50C83.6799 68.57 68.5699 83.68 49.9999 83.68ZM49.9999 17.76C32.2199 17.76 17.7599 32.23 17.7599 50C17.7599 67.77 32.2299 82.24 49.9999 82.24C67.7699 82.24 82.2399 67.77 82.2399 50C82.2399 32.23 67.7699 17.76 49.9999 17.76Z" fill="#0E1721"/>
  <path d="M79.12 65.9C78.96 65.9 78.8 65.81 78.73 65.65C76.62 61.23 73.6199 57.02 69.8199 53.14C69.7199 53.04 69.6799 52.9 69.6999 52.77C69.7199 52.63 69.8099 52.52 69.9299 52.45C74.6999 50.05 78.81 47.18 82.16 43.91C82.33 43.74 82.5999 43.75 82.7699 43.91C82.9399 44.08 82.9299 44.35 82.7699 44.52C79.4799 47.73 75.4699 50.57 70.8499 52.95C74.5299 56.78 77.4399 60.92 79.5199 65.27C79.6199 65.49 79.5299 65.74 79.3199 65.85C79.2599 65.88 79.1999 65.89 79.1299 65.89L79.12 65.9Z" fill="#0E1721"/>
  <path d="M32.5299 77.2C31.9099 77.2 31.2999 77.19 30.6799 77.16C30.4399 77.15 30.2599 76.95 30.2699 76.71C30.2799 76.47 30.4899 76.29 30.7199 76.3C39.8299 76.69 48.3399 74.12 54.7099 69.07C54.8999 68.92 55.1699 68.95 55.3199 69.14C55.4699 69.33 55.4399 69.6 55.2499 69.75C49.1499 74.59 41.1399 77.21 32.5399 77.21L32.5299 77.2Z" fill="#0E1721"/>
  <path d="M76.6499 69.84C72.8399 69.78 68.9999 69.21 65.2399 68.14C65.0099 68.07 64.8799 67.84 64.9399 67.61C65.0099 67.38 65.2399 67.25 65.4699 67.31C69.1599 68.36 72.9299 68.92 76.6599 68.98C76.8999 68.98 77.0899 69.18 77.0899 69.42C77.0899 69.66 76.8899 69.85 76.6599 69.85L76.6499 69.84Z" fill="#0E1721"/>
  <path d="M76.6499 69.84C72.8399 69.78 68.9999 69.21 65.2399 68.14C65.0099 68.07 64.8799 67.84 64.9399 67.61C65.0099 67.38 65.2399 67.25 65.4699 67.31C69.1599 68.36 72.9299 68.92 76.6599 68.98C76.8999 68.98 77.0899 69.18 77.0899 69.42C77.0899 69.66 76.8899 69.85 76.6599 69.85L76.6499 69.84Z" fill="#0E1721"/>
  <path d="M79.1199 65.9C78.9599 65.9 78.7999 65.81 78.7299 65.65C76.6599 61.32 73.7399 57.19 70.0399 53.37C68.4299 54.17 66.7399 54.91 65.0099 55.59C64.6199 56.84 64.1499 58.06 63.5999 59.23C63.3199 59.82 63.0199 60.41 62.7099 60.98C62.5899 61.19 62.3299 61.26 62.1199 61.15C61.9099 61.03 61.8399 60.77 61.9499 60.56C62.2599 60.01 62.5499 59.44 62.8199 58.86C63.3799 57.66 63.8599 56.41 64.2499 55.13C64.2899 55 64.3799 54.9 64.5099 54.85C66.3899 54.12 68.2199 53.32 69.9399 52.45C70.1099 52.37 70.3099 52.4 70.4399 52.53C74.3099 56.48 77.3599 60.7599 79.5199 65.2699C79.6199 65.4899 79.5299 65.74 79.3199 65.85C79.2599 65.88 79.1999 65.89 79.1299 65.89L79.1199 65.9Z" fill="#0E1721"/>
  <path d="M23.1199 69.52C23.1199 69.52 23.0699 69.52 23.0399 69.52C22.8099 69.48 22.6499 69.25 22.6899 69.02C23.3199 65.6 24.3899 62.22 25.8899 58.96C22.8899 58.31 20.0399 57.43 17.3999 56.35C17.1799 56.26 17.0699 56.01 17.1599 55.79C17.2499 55.57 17.4999 55.46 17.7199 55.55C20.4699 56.67 23.4499 57.57 26.5899 58.23C26.7199 58.26 26.8299 58.34 26.8899 58.46C26.9499 58.58 26.9499 58.72 26.8899 58.84C25.3099 62.18 24.1799 65.66 23.5299 69.18C23.4899 69.39 23.3099 69.53 23.1099 69.53L23.1199 69.52Z" fill="#0E1721"/>
  <path d="M23.1199 69.5199C23.1199 69.5199 23.0699 69.5199 23.0399 69.5199C22.8099 69.4799 22.6499 69.2499 22.6899 69.0199C23.3499 65.4299 24.4999 61.8799 26.1199 58.4699C26.2099 58.2899 26.3999 58.1899 26.5999 58.2299C33.5399 59.6699 41.2399 59.8799 48.8799 58.8399C48.9999 58.8299 49.1199 58.8599 49.2099 58.9299C51.2698 60.5899 53.5198 62.0899 55.8699 63.3799C56.0798 63.4899 56.1599 63.7599 56.0399 63.9699C55.9299 64.1799 55.6599 64.2599 55.4499 64.1399C53.0999 62.8499 50.8699 61.3699 48.7999 59.7199C41.2499 60.7299 33.6399 60.5299 26.7499 59.1399C25.2399 62.3899 24.1599 65.7599 23.5299 69.1699C23.4899 69.3799 23.3099 69.5199 23.1099 69.5199H23.1199Z" fill="#0E1721"/>
  <path d="M32.5299 77.2C31.9099 77.2 31.2999 77.19 30.6799 77.16C30.4399 77.15 30.2599 76.95 30.2699 76.71C30.2799 76.47 30.4899 76.29 30.7199 76.3C39.8299 76.69 48.3399 74.12 54.7099 69.07C54.8999 68.92 55.1699 68.95 55.3199 69.14C55.4699 69.33 55.4399 69.6 55.2499 69.75C49.1499 74.59 41.1399 77.21 32.5399 77.21L32.5299 77.2Z" fill="#0E1721"/>
  <path d="M55.6699 64.19C55.5999 64.19 55.5299 64.17 55.4599 64.14C53.0599 62.82 50.7699 61.3 48.6699 59.6C48.5399 59.49 48.4799 59.31 48.5199 59.15C48.5699 58.98 48.7099 58.86 48.8799 58.84L49.0699 58.81C49.2299 58.79 49.3899 58.77 49.5499 58.74C54.7599 57.98 59.7899 56.67 64.4999 54.86C64.6499 54.8 64.8299 54.83 64.9499 54.95C65.0699 55.06 65.1199 55.23 65.0699 55.39C64.6699 56.71 64.1799 58 63.5999 59.23C63.3199 59.82 63.0199 60.41 62.7099 60.98C62.5899 61.19 62.3299 61.26 62.1199 61.15C61.9099 61.03 61.8399 60.77 61.9499 60.56C62.2599 60.01 62.5499 59.44 62.8199 58.86C63.2599 57.93 63.6399 56.96 63.9799 55.98C59.5499 57.62 54.8599 58.82 50.0199 59.55C51.8599 60.97 53.8299 62.25 55.8899 63.38C56.0999 63.49 56.1799 63.76 56.0599 63.97C55.9799 64.11 55.8299 64.19 55.6799 64.19H55.6699Z" fill="#0E1721"/>
  <path d="M61.7499 31.39C61.5999 31.39 61.4499 31.31 61.3699 31.16C58.5599 25.9 54.3999 21.13 49.3399 17.39C49.1499 17.25 49.1099 16.98 49.2499 16.79C49.3899 16.6 49.6599 16.56 49.8499 16.7C55.0199 20.52 59.2699 25.38 62.1299 30.76C62.2399 30.97 62.1599 31.23 61.9499 31.34C61.8899 31.37 61.8199 31.39 61.7499 31.39Z" fill="#0E1721"/>
  <path d="M70.1199 53.2799C70.0099 53.2799 69.8899 53.2399 69.8099 53.1499C68.4699 51.7899 67.0399 50.4699 65.5399 49.2299C65.4299 49.1399 65.3799 49.0099 65.3799 48.8699C65.5399 46.4999 65.4199 44.0799 64.9999 41.6599C64.9599 41.4199 65.1199 41.1999 65.3499 41.1599C65.5899 41.1199 65.8099 41.2799 65.8499 41.5099C66.2599 43.9199 66.3999 46.3399 66.2499 48.6999C67.6299 49.8499 68.9499 51.0699 70.1999 52.3199C74.8499 49.9499 78.8699 47.1299 82.1499 43.9199C82.3199 43.7499 82.5899 43.7599 82.7599 43.9199C82.9299 44.0899 82.9199 44.3599 82.7599 44.5299C79.3499 47.8599 75.1599 50.7899 70.3099 53.2199C70.2499 53.2499 70.1799 53.2699 70.1199 53.2699V53.2799Z" fill="#0E1721"/>
  <path d="M80.54 38.01C80.46 38.01 80.38 37.99 80.31 37.95C76.81 35.8 72.88 34.43 68.63 33.89C68.39 33.86 68.23 33.64 68.26 33.41C68.29 33.17 68.51 33.01 68.74 33.04C73.12 33.6 77.16 35.01 80.77 37.22C80.97 37.35 81.04 37.61 80.91 37.81C80.83 37.94 80.69 38.02 80.54 38.02V38.01Z" fill="#0E1721"/>
  <path d="M34.25 28.42C34.25 28.42 34.22 28.42 34.21 28.42C33.97 28.4 33.8 28.19 33.82 27.95C34.06 25.19 34.69 22.5 35.69 19.95C35.78 19.73 36.03 19.62 36.25 19.7C36.47 19.79 36.58 20.04 36.5 20.26C35.53 22.73 34.92 25.35 34.69 28.02C34.67 28.24 34.48 28.41 34.26 28.41L34.25 28.42Z" fill="#0E1721"/>
  <path d="M20.5899 35.52C20.3799 35.52 20.1899 35.36 20.1599 35.15C20.1299 34.91 20.2899 34.7 20.5299 34.66C23.2399 34.27 26.0799 34.13 28.9699 34.22C29.2099 34.22 29.3999 34.43 29.3899 34.67C29.3799 34.91 29.1799 35.1 28.9399 35.09C26.0999 35 23.3099 35.15 20.6499 35.53C20.6299 35.53 20.6099 35.53 20.5899 35.53V35.52Z" fill="#0E1721"/>
  <path d="M61.7499 31.39C61.5999 31.39 61.4499 31.31 61.3699 31.16C58.5599 25.9 54.3999 21.13 49.3399 17.39C49.1499 17.25 49.1099 16.98 49.2499 16.79C49.3899 16.6 49.6599 16.56 49.8499 16.7C55.0199 20.52 59.2699 25.38 62.1299 30.76C62.2399 30.97 62.1599 31.23 61.9499 31.34C61.8899 31.37 61.8199 31.39 61.7499 31.39Z" fill="#0E1721"/>
  <path d="M46.2199 38.36C46.2199 38.36 46.1199 38.36 46.0799 38.34C43.6799 37.51 41.2199 36.82 38.7899 36.3C38.5599 36.25 38.4099 36.02 38.4599 35.79C38.5099 35.56 38.7399 35.41 38.9699 35.46C41.3799 35.97 43.8099 36.65 46.1899 37.47C50.1399 35.39 54.2799 33.98 58.4899 33.27C58.7199 33.23 58.9499 33.39 58.9899 33.63C59.0299 33.87 58.8699 34.09 58.6299 34.13C54.4499 34.83 50.3399 36.24 46.4299 38.33C46.3699 38.36 46.2999 38.38 46.2299 38.38L46.2199 38.36Z" fill="#0E1721"/>
  <path d="M34.25 28.42C34.25 28.42 34.22 28.42 34.21 28.42C33.97 28.4 33.8 28.19 33.82 27.95C34.06 25.19 34.69 22.5 35.69 19.95C35.78 19.73 36.03 19.62 36.25 19.7C36.47 19.79 36.58 20.04 36.5 20.26C35.53 22.73 34.92 25.35 34.69 28.02C34.67 28.24 34.48 28.41 34.26 28.41L34.25 28.42Z" fill="#0E1721"/>
  <path d="M65.8199 49.32C65.7199 49.32 65.6199 49.29 65.5399 49.22C61.5599 45.93 57.0899 43.11 52.2399 40.83C50.2399 39.89 48.1699 39.05 46.0799 38.33C45.9199 38.27 45.7999 38.13 45.7899 37.96C45.7799 37.79 45.8699 37.63 46.0199 37.55C50.0199 35.42 54.2199 33.98 58.4899 33.27C58.7199 33.23 58.9499 33.39 58.9899 33.63C59.0299 33.87 58.8699 34.09 58.6299 34.13C54.7599 34.77 50.9599 36.03 47.2999 37.87C49.0999 38.53 50.8799 39.26 52.5999 40.07C57.2499 42.25 61.5599 44.92 65.4299 48.03C65.5099 45.93 65.3699 43.8 65.0099 41.67C64.9699 41.43 65.1299 41.21 65.3599 41.17C65.5999 41.13 65.8199 41.29 65.8599 41.52C66.2799 44 66.4099 46.5 66.2499 48.93C66.2399 49.09 66.1399 49.23 65.9899 49.3C65.9399 49.32 65.8799 49.33 65.8199 49.33V49.32Z" fill="#0E1721"/>
  <path d="M64.65 55.69C64.54 55.69 64.44 55.65 64.36 55.57C64.24 55.46 64.1899 55.29 64.2399 55.13C64.8499 53.11 65.24 51 65.39 48.85C65.4 48.69 65.5 48.55 65.65 48.48C65.8 48.42 65.97 48.44 66.1 48.54C67.62 49.8 69.08 51.14 70.44 52.52C70.54 52.62 70.5799 52.76 70.5599 52.89C70.5399 53.03 70.45 53.14 70.33 53.21C68.58 54.09 66.72 54.91 64.82 55.65C64.77 55.67 64.72 55.68 64.66 55.68L64.65 55.69ZM66.18 49.76C66.02 51.38 65.7299 52.98 65.3099 54.54C66.7099 53.98 68.08 53.37 69.4 52.72C68.38 51.7 67.3 50.71 66.18 49.75V49.76Z" fill="#0E1721"/>
  <path d="M20.5899 35.52C20.3799 35.52 20.1899 35.36 20.1599 35.15C20.1299 34.91 20.2899 34.7 20.5299 34.66C23.2399 34.27 26.0799 34.13 28.9699 34.22C29.2099 34.22 29.3999 34.43 29.3899 34.67C29.3799 34.91 29.1799 35.1 28.9399 35.09C26.0999 35 23.3099 35.15 20.6499 35.53C20.6299 35.53 20.6099 35.53 20.5899 35.53V35.52Z" fill="#0E1721"/>
  <path d="M26.5199 59.07C26.5199 59.07 26.4599 59.07 26.4299 59.07C23.2399 58.41 20.1999 57.49 17.4099 56.35C17.1899 56.26 17.0799 56.01 17.1699 55.79C17.2599 55.57 17.5099 55.46 17.7299 55.55C20.3799 56.63 23.2499 57.51 26.2699 58.16C28.0899 54.4 30.4399 50.87 33.2699 47.67C34.4099 46.38 35.6299 45.15 36.8999 43.99C37.0799 43.83 37.3499 43.84 37.5099 44.02C37.6699 44.2 37.6599 44.47 37.4799 44.63C36.2299 45.76 35.0399 46.98 33.9199 48.24C31.0699 51.47 28.7099 55.03 26.9099 58.83C26.8399 58.98 26.6799 59.08 26.5199 59.08V59.07Z" fill="#0E1721"/>
  <path d="M39.36 60.35C34.9 60.35 30.53 59.92 26.43 59.07C26.3 59.04 26.19 58.96 26.13 58.84C26.07 58.72 26.07 58.58 26.13 58.46C27.97 54.59 30.37 50.95 33.28 47.66C34.42 46.37 35.64 45.14 36.91 43.98C37.01 43.89 37.15 43.85 37.29 43.88C37.43 43.91 37.54 44 37.6 44.12C40.13 49.71 44.15 54.83 49.23 58.92C49.36 59.03 49.42 59.21 49.38 59.37C49.33 59.54 49.19 59.66 49.02 59.68C45.8 60.12 42.57 60.34 39.38 60.34L39.36 60.35ZM27.15 58.33C33.65 59.61 40.79 59.83 47.9 58.96C43.24 55.03 39.51 50.24 37.05 45.02C35.96 46.04 34.91 47.12 33.92 48.23C31.19 51.32 28.92 54.71 27.15 58.33Z" fill="#0E1721"/>
  <path d="M37.1899 44.74C37.1899 44.74 37.1299 44.74 37.0999 44.74C36.9599 44.71 36.8499 44.62 36.7899 44.5C35.8899 42.52 35.1799 40.48 34.6699 38.44C34.6099 38.21 34.7499 37.97 34.9799 37.92C35.2099 37.86 35.4499 38 35.4999 38.23C35.9499 40.04 36.5699 41.84 37.3299 43.61C39.7499 41.47 42.3699 39.6 45.1299 38.04C43.0299 37.35 40.8899 36.77 38.7599 36.32C38.5299 36.27 38.3799 36.04 38.4299 35.81C38.4799 35.58 38.7099 35.43 38.9399 35.48C41.4099 36.01 43.8999 36.7 46.3399 37.55C46.4999 37.61 46.6199 37.75 46.6299 37.92C46.6399 38.09 46.5499 38.25 46.3999 38.33C43.1999 40.03 40.1999 42.16 37.4599 44.65C37.3799 44.72 37.2799 44.76 37.1699 44.76L37.1899 44.74Z" fill="#0E1721"/>
  <path d="M48.9399 59.69C48.8399 59.69 48.7499 59.66 48.6699 59.59C43.4899 55.41 39.3799 50.18 36.7999 44.47C36.7199 44.3 36.7599 44.1 36.8999 43.97C39.6899 41.43 42.7599 39.27 46.0199 37.53C46.1299 37.47 46.2499 37.46 46.3599 37.5C48.4799 38.23 50.5799 39.09 52.5999 40.04C57.5199 42.34 62.0599 45.2 66.0899 48.54C66.1999 48.63 66.2499 48.76 66.2499 48.9C66.0999 51.11 65.6999 53.28 65.0699 55.37C65.0299 55.5 64.9399 55.6 64.8099 55.65C60.0399 57.49 54.9499 58.82 49.6799 59.58C49.5199 59.6 49.3599 59.63 49.1899 59.65L48.9999 59.68C48.9999 59.68 48.9599 59.68 48.9399 59.68V59.69ZM37.7199 44.41C40.2299 49.83 44.1499 54.8 49.0699 58.81C49.2299 58.79 49.3899 58.77 49.5499 58.74C54.6799 57.99 59.6399 56.71 64.2999 54.93C64.8599 53.04 65.2199 51.07 65.3699 49.08C61.4399 45.85 57.0199 43.07 52.2399 40.84C50.2999 39.93 48.2899 39.11 46.2599 38.4C43.2199 40.04 40.3499 42.06 37.7199 44.42V44.41Z" fill="#0E1721"/>
  <path d="M39.6543 28.7L29.6627 27.6181L28.5808 37.6097L38.5724 38.6916L39.6543 28.7Z" fill="white"/>
  <path d="M38.57 39.41C38.57 39.41 38.52 39.41 38.49 39.41L28.5 38.33C28.1 38.29 27.82 37.93 27.86 37.54L28.94 27.55C28.96 27.36 29.06 27.19 29.2 27.07C29.35 26.95 29.54 26.89 29.73 26.92L39.72 28C39.91 28.02 40.08 28.12 40.2 28.26C40.32 28.41 40.38 28.6 40.35 28.79L39.27 38.78C39.23 39.15 38.92 39.42 38.56 39.42L38.57 39.41ZM29.37 36.97L37.93 37.9L38.86 29.34L30.3 28.41L29.37 36.97Z" fill="#0E1721"/>
  <path d="M68.8687 31.8175L58.8771 30.7356L57.7952 40.7272L67.7868 41.8091L68.8687 31.8175Z" fill="white"/>
  <path d="M67.78 42.53C67.78 42.53 67.73 42.53 67.7 42.53L57.71 41.45C57.52 41.43 57.35 41.33 57.23 41.19C57.11 41.04 57.05 40.85 57.08 40.66L58.16 30.67C58.2 30.27 58.55 29.99 58.95 30.03L68.94 31.11C69.34 31.15 69.62 31.51 69.58 31.9L68.5 41.89C68.48 42.08 68.38 42.25 68.24 42.37C68.11 42.47 67.95 42.53 67.79 42.53H67.78ZM58.59 40.09L67.15 41.02L68.08 32.46L59.52 31.53L58.59 40.09Z" fill="#0E1721"/>
  <path d="M66.0653 61.1744L56.0737 60.0925L54.9918 70.0841L64.9834 71.166L66.0653 61.1744Z" fill="white"/>
  <path d="M64.98 71.87C64.98 71.87 64.93 71.87 64.9 71.87L54.91 70.79C54.72 70.77 54.55 70.67 54.43 70.53C54.31 70.38 54.25 70.19 54.28 70L55.36 60.01C55.38 59.82 55.48 59.65 55.62 59.53C55.77 59.41 55.96 59.35 56.15 59.38L66.14 60.46C66.54 60.5 66.82 60.86 66.78 61.25L65.7 71.24C65.66 71.61 65.35 71.88 64.99 71.88L64.98 71.87ZM55.78 69.44L64.34 70.37L65.27 61.81L56.71 60.88L55.78 69.44Z" fill="#0E1721"/>
</svg>
