<svg xmlns="http://www.w3.org/2000/svg" width="100" height="100" viewBox="0 0 100 100" fill="none">
  <path d="M28.6902 20.15C29.2802 20.15 29.8602 19.91 30.2802 19.49L30.3002 19.47L30.3402 19.42C30.4002 19.35 30.4802 19.26 30.5502 19.15C30.6402 19.02 30.7002 18.89 30.7502 18.77C30.8102 18.63 30.8602 18.49 30.8902 18.35C30.9202 18.21 30.9402 18.06 30.9402 17.9C30.9402 17.31 30.7002 16.73 30.2802 16.31C29.8802 15.91 29.2902 15.67 28.6802 15.67C28.0702 15.67 27.4902 15.9 27.0802 16.31C26.6702 16.73 26.4402 17.31 26.4402 17.9C26.4402 18.49 26.6702 19.06 27.0902 19.49C27.5102 19.91 28.0902 20.15 28.6902 20.15ZM28.6802 16.51C29.0702 16.51 29.4402 16.65 29.6902 16.9C29.9502 17.16 30.1102 17.53 30.1102 17.9C30.1102 17.99 30.1102 18.08 30.0802 18.17C30.0602 18.26 30.0402 18.34 30.0002 18.42C29.9602 18.51 29.9202 18.6 29.8802 18.66C29.8702 18.68 29.8602 18.69 29.8502 18.71C29.8202 18.76 29.7802 18.81 29.7302 18.86L29.6902 18.91C29.4302 19.16 29.0602 19.32 28.7002 19.32C28.3202 19.32 27.9502 19.17 27.6902 18.91C27.4302 18.64 27.2802 18.27 27.2802 17.9C27.2802 17.53 27.4302 17.16 27.6802 16.9C27.9302 16.65 28.2902 16.51 28.6902 16.51H28.6802Z" fill="#4279B6"/>
  <path d="M39.6001 20.15C40.8401 20.15 41.8501 19.14 41.8501 17.9C41.8501 16.66 40.8401 15.65 39.6001 15.65C38.3601 15.65 37.3501 16.66 37.3501 17.9C37.3501 19.14 38.3601 20.15 39.6001 20.15ZM39.6001 16.49C40.3801 16.49 41.0101 17.12 41.0101 17.9C41.0101 18.68 40.3801 19.31 39.6001 19.31C38.8201 19.31 38.1901 18.68 38.1901 17.9C38.1901 17.12 38.8201 16.49 39.6001 16.49Z" fill="#4279B6"/>
  <path d="M48.42 18.73C48.42 18.73 48.42 18.75 48.43 18.77C48.48 18.87 48.54 18.98 48.6 19.1C48.61 19.12 48.62 19.14 48.63 19.15C48.71 19.28 48.8 19.38 48.91 19.49C49.02 19.6 49.15 19.71 49.29 19.79C49.65 20.02 50.07 20.15 50.5 20.15C51.09 20.15 51.67 19.91 52.09 19.49C52.52 19.06 52.75 18.5 52.75 17.9C52.75 17.3 52.51 16.73 52.09 16.31C51.56 15.78 50.8 15.54 50.06 15.69C49.92 15.72 49.79 15.76 49.65 15.82C49.51 15.87 49.38 15.94 49.29 16C49.29 16 49.27 16.01 49.26 16.02C49.25 16.02 49.24 16.03 49.23 16.04C49.13 16.12 49.01 16.2 48.9 16.31C48.78 16.43 48.67 16.57 48.58 16.71C48.36 17.07 48.24 17.48 48.24 17.9C48.24 18.06 48.26 18.21 48.28 18.34C48.31 18.49 48.36 18.63 48.39 18.73H48.42ZM49.74 16.72C49.74 16.72 49.88 16.64 49.95 16.61C49.96 16.61 49.98 16.61 49.99 16.6C50.08 16.56 50.16 16.53 50.25 16.52C50.7 16.43 51.19 16.58 51.52 16.91C51.78 17.17 51.94 17.54 51.94 17.91C51.94 18.28 51.79 18.64 51.53 18.91C51.27 19.17 50.9 19.33 50.53 19.33C50.16 19.33 49.79 19.17 49.53 18.91C49.46 18.84 49.4 18.77 49.36 18.7C49.35 18.68 49.34 18.66 49.32 18.64C49.28 18.58 49.25 18.51 49.22 18.45C49.19 18.36 49.16 18.27 49.14 18.17C49.12 18.09 49.11 18 49.11 17.91C49.11 17.66 49.19 17.41 49.32 17.19C49.38 17.09 49.45 16.99 49.53 16.91C49.59 16.85 49.67 16.79 49.75 16.73L49.74 16.72Z" fill="#4279B6"/>
  <path d="M49.42 40.73C49.83 41.14 50.41 41.38 51.01 41.38C51.61 41.38 52.17 41.15 52.61 40.73C53.03 40.29 53.26 39.72 53.26 39.13C53.26 38.54 53.02 37.96 52.6 37.54C51.75 36.7 50.26 36.7 49.42 37.54C49.38 37.58 49.35 37.62 49.31 37.66C49.24 37.74 49.18 37.81 49.13 37.88C49.03 38.01 48.98 38.14 48.92 38.26C48.85 38.41 48.81 38.56 48.79 38.71C48.76 38.85 48.75 38.99 48.75 39.13C48.75 39.68 48.95 40.21 49.3 40.62C49.33 40.66 49.37 40.7 49.41 40.74L49.42 40.73ZM49.62 38.86V38.82C49.63 38.76 49.66 38.68 49.69 38.6C49.73 38.51 49.77 38.43 49.81 38.37L49.83 38.34C49.83 38.34 49.91 38.23 50 38.13C50.25 37.88 50.62 37.75 51 37.75C51.38 37.75 51.74 37.88 52 38.13C52.26 38.39 52.42 38.76 52.42 39.13C52.42 39.5 52.27 39.87 52.01 40.14C51.74 40.4 51.37 40.55 51 40.55C50.63 40.55 50.25 40.4 50 40.15C49.74 39.89 49.58 39.52 49.58 39.14C49.58 39.05 49.58 38.96 49.61 38.87L49.62 38.86Z" fill="#4279B6"/>
  <path d="M61.9202 41.38C63.1602 41.38 64.1702 40.37 64.1702 39.13C64.1702 37.89 63.1602 36.88 61.9202 36.88C60.6802 36.88 59.6702 37.89 59.6702 39.13C59.6702 40.37 60.6802 41.38 61.9202 41.38ZM61.9202 37.71C62.7002 37.71 63.3302 38.34 63.3302 39.12C63.3302 39.9 62.7002 40.53 61.9202 40.53C61.1402 40.53 60.5102 39.9 60.5102 39.12C60.5102 38.34 61.1402 37.71 61.9202 37.71Z" fill="#4279B6"/>
  <path d="M72.8401 41.38C73.4201 41.38 74.0001 41.15 74.4301 40.73C74.8501 40.31 75.0901 39.73 75.0901 39.13C75.0901 38.99 75.0701 38.84 75.0401 38.69C75.0101 38.55 74.9601 38.4 74.9301 38.3V38.26C74.8601 38.14 74.7901 38.01 74.7201 37.89L74.7001 37.86C74.6201 37.76 74.5401 37.64 74.4301 37.53C73.5801 36.7 72.1001 36.7 71.2501 37.53C71.1501 37.63 71.0601 37.75 70.9801 37.86L70.9601 37.89C70.8801 38.01 70.8101 38.14 70.7601 38.26V38.3C70.7101 38.4 70.6701 38.54 70.6301 38.69C70.6001 38.84 70.5901 38.99 70.5901 39.13C70.5901 39.73 70.8301 40.31 71.2601 40.74C71.6801 41.15 72.2601 41.38 72.8501 41.38H72.8401ZM71.4501 38.87C71.4701 38.79 71.5001 38.69 71.5301 38.59C71.5701 38.51 71.6101 38.43 71.6501 38.36C71.7101 38.28 71.7701 38.2 71.8301 38.14C72.3501 37.62 73.3101 37.62 73.8301 38.14C73.8901 38.2 73.9501 38.28 74.0101 38.36C74.0601 38.44 74.1001 38.52 74.1401 38.59C74.1701 38.69 74.2001 38.79 74.2201 38.86C74.2401 38.95 74.2501 39.05 74.2501 39.13C74.2501 39.51 74.1001 39.88 73.8401 40.14C73.5701 40.4 73.2001 40.55 72.8301 40.55C72.4601 40.55 72.0901 40.4 71.8301 40.15C71.5701 39.89 71.4101 39.52 71.4101 39.14C71.4101 39.05 71.4101 38.96 71.4401 38.88L71.4501 38.87Z" fill="#4279B6"/>
  <path d="M28.02 62.54C28.62 62.54 29.18 62.31 29.62 61.87C29.71 61.78 29.83 61.66 29.91 61.52C29.99 61.4 30.06 61.27 30.11 61.15C30.18 61 30.21 60.86 30.23 60.73C30.26 60.59 30.28 60.44 30.28 60.29C30.28 60.14 30.26 59.98 30.24 59.85C30.21 59.71 30.18 59.57 30.11 59.42C30.06 59.3 29.99 59.18 29.92 59.07C29.83 58.91 29.71 58.79 29.62 58.7C28.77 57.85 27.29 57.85 26.44 58.7C26.36 58.78 26.25 58.89 26.16 59.05C26.07 59.18 26.01 59.31 25.96 59.43C25.9 59.57 25.85 59.71 25.82 59.85C25.79 59.99 25.77 60.14 25.77 60.29C25.77 60.44 25.79 60.6 25.82 60.73C25.85 60.88 25.89 61.02 25.96 61.16C26.01 61.27 26.07 61.4 26.16 61.53C26.25 61.68 26.35 61.8 26.44 61.88C26.86 62.3 27.44 62.54 28.03 62.54H28.02ZM26.63 60.02C26.65 59.93 26.67 59.85 26.71 59.77C26.75 59.68 26.79 59.59 26.83 59.53C26.84 59.51 26.85 59.5 26.86 59.48C26.89 59.42 26.94 59.36 27.01 59.29C27.27 59.03 27.64 58.9 28.01 58.9C28.38 58.9 28.75 59.03 29.01 59.29C29.08 59.36 29.14 59.42 29.18 59.5C29.24 59.59 29.29 59.68 29.32 59.76C29.35 59.83 29.37 59.91 29.39 60.02C29.41 60.1 29.42 60.19 29.42 60.28C29.42 60.37 29.42 60.47 29.39 60.55C29.37 60.65 29.35 60.73 29.32 60.8C29.28 60.88 29.23 60.98 29.17 61.09C29.14 61.15 29.08 61.21 29.01 61.28C28.74 61.55 28.39 61.7 28.01 61.7C27.63 61.7 27.27 61.54 27.01 61.29C26.94 61.22 26.89 61.16 26.86 61.1C26.86 61.08 26.84 61.07 26.83 61.05C26.79 60.99 26.75 60.91 26.71 60.81C26.67 60.72 26.65 60.64 26.63 60.55C26.61 60.47 26.6 60.38 26.6 60.29C26.6 60.2 26.6 60.11 26.63 60.02Z" fill="#4279B6"/>
  <path d="M38.9402 62.54C40.1802 62.54 41.1902 61.53 41.1902 60.29C41.1902 59.05 40.1802 58.04 38.9402 58.04C37.7002 58.04 36.6902 59.05 36.6902 60.29C36.6902 61.53 37.7002 62.54 38.9402 62.54ZM40.3602 60.29C40.3602 61.07 39.7302 61.7 38.9502 61.7C38.1702 61.7 37.5402 61.07 37.5402 60.29C37.5402 59.51 38.1702 58.88 38.9502 58.88C39.7302 58.88 40.3602 59.51 40.3602 60.29Z" fill="#4279B6"/>
  <path d="M47.7701 61.12C47.7701 61.12 47.7701 61.15 47.7801 61.16C47.8201 61.24 47.8601 61.32 47.9101 61.41C47.9301 61.45 47.9601 61.49 47.9801 61.54C48.0601 61.66 48.1501 61.77 48.2601 61.88C48.3701 61.99 48.4701 62.07 48.6001 62.16C48.6001 62.16 48.6101 62.16 48.6201 62.17C48.7201 62.24 48.8501 62.32 48.9901 62.36C49.1001 62.41 49.2001 62.44 49.3001 62.46C49.3401 62.46 49.3701 62.48 49.4101 62.49C49.5501 62.52 49.7001 62.54 49.8501 62.54C49.9901 62.54 50.1301 62.53 50.2901 62.49C50.4301 62.46 50.5701 62.42 50.7001 62.36C50.8201 62.32 50.9401 62.26 51.0901 62.17C51.1001 62.17 51.1101 62.15 51.1201 62.15C51.2201 62.07 51.3401 61.99 51.4401 61.88C51.5501 61.77 51.6401 61.66 51.7301 61.53C51.8201 61.39 51.8801 61.26 51.9201 61.14C51.9801 61 52.0201 60.87 52.0501 60.74C52.0801 60.6 52.1001 60.45 52.1001 60.3C52.1001 60.15 52.0801 59.99 52.0601 59.86C52.0301 59.72 51.9901 59.58 51.9301 59.45C51.8901 59.33 51.8301 59.21 51.7301 59.05C51.6501 58.92 51.5601 58.82 51.4501 58.71C51.3501 58.61 51.2301 58.52 51.1201 58.44C51.1201 58.44 51.1001 58.43 51.0901 58.42C50.9701 58.34 50.8401 58.28 50.7201 58.22C50.7101 58.22 50.6801 58.21 50.6701 58.2C50.5601 58.16 50.4301 58.12 50.2901 58.09C50.0001 58.03 49.7001 58.03 49.4101 58.09C49.3701 58.09 49.3301 58.11 49.2901 58.12C49.2201 58.14 49.1601 58.15 49.0901 58.17L49.0201 58.19C49.0201 58.19 48.9901 58.2 48.9701 58.21C48.8401 58.27 48.7201 58.34 48.6001 58.42C48.4801 58.5 48.3701 58.59 48.2601 58.7C48.1501 58.81 48.0601 58.92 47.9701 59.06C47.9501 59.1 47.9301 59.14 47.9001 59.17C47.8501 59.26 47.8101 59.34 47.7701 59.42C47.7701 59.43 47.7601 59.45 47.7601 59.46C47.7201 59.57 47.6801 59.7 47.6501 59.84C47.6201 59.98 47.6001 60.13 47.6001 60.29C47.6001 60.45 47.6201 60.6 47.6501 60.73C47.6801 60.88 47.7301 61.02 47.7601 61.12H47.7701ZM48.4801 60.02C48.5001 59.93 48.5301 59.84 48.5601 59.75C48.5801 59.71 48.6001 59.68 48.6201 59.64C48.6401 59.6 48.6701 59.55 48.6901 59.51C48.7401 59.43 48.8001 59.37 48.8701 59.29C48.9401 59.22 49.0101 59.16 49.0801 59.12C49.1601 59.07 49.2401 59.02 49.3101 58.99L49.3501 58.98C49.4301 58.96 49.5101 58.93 49.5901 58.91C49.7701 58.87 49.9501 58.87 50.1301 58.91C50.2201 58.93 50.3001 58.95 50.4001 58.99C50.4801 59.03 50.5601 59.07 50.6301 59.12C50.7101 59.18 50.7901 59.24 50.8601 59.31C50.9301 59.38 50.9901 59.45 51.0301 59.52C51.0901 59.61 51.1301 59.69 51.1501 59.75C51.1501 59.76 51.1501 59.77 51.1601 59.79C51.2001 59.88 51.2201 59.96 51.2401 60.05C51.2601 60.13 51.2701 60.22 51.2701 60.31C51.2701 60.4 51.2701 60.5 51.2401 60.58C51.2201 60.67 51.2001 60.75 51.1601 60.83C51.1601 60.84 51.1601 60.85 51.1501 60.87C51.1301 60.93 51.0901 61.01 51.0401 61.09C50.9901 61.17 50.9301 61.23 50.8601 61.31C50.8001 61.37 50.7201 61.43 50.6401 61.49C50.5501 61.54 50.4801 61.58 50.4201 61.6C50.4101 61.6 50.4001 61.6 50.3801 61.61C50.2901 61.65 50.2101 61.67 50.1301 61.69C49.9301 61.73 49.7601 61.73 49.5901 61.69C49.5101 61.67 49.4301 61.65 49.3101 61.6C49.3101 61.6 49.3001 61.6 49.2901 61.6C49.2201 61.58 49.1501 61.53 49.0801 61.49C49.0001 61.44 48.9401 61.38 48.8601 61.31C48.7901 61.24 48.7301 61.17 48.6901 61.1C48.6601 61.05 48.6401 61 48.6101 60.95C48.5901 60.92 48.5701 60.88 48.5501 60.85C48.5201 60.75 48.4901 60.67 48.4701 60.57C48.4501 60.49 48.4401 60.4 48.4401 60.31C48.4401 60.22 48.4401 60.13 48.4701 60.04L48.4801 60.02Z" fill="#4279B6"/>
  <path d="M99.6501 98.74C96.2501 96.31 93.1501 94.03 90.4201 92.02C76.4501 81.73 68.8801 76.16 55.2001 75.35V68.11H56.2901C57.0701 68.11 57.7101 67.47 57.7101 66.69V53.92C57.7101 53.14 57.0701 52.5 56.2901 52.5H55.2001V46.95H75.7701C76.0901 46.95 76.4001 46.84 76.6501 46.65L84.8001 40.27C85.1501 40 85.3401 39.59 85.3401 39.15C85.3401 38.71 85.1401 38.3 84.8001 38.03L76.6501 31.65C76.4001 31.45 76.0901 31.35 75.7701 31.35H55.2001V25.72H56.2901C57.0701 25.72 57.7101 25.08 57.7101 24.3V11.53C57.7101 10.75 57.0701 10.11 56.2901 10.11H55.2001V1.42C55.2001 0.64 54.5601 0 53.7801 0H49.3301C48.5501 0 47.9101 0.64 47.9101 1.42V10.1H26.3701C26.0701 10.1 25.7801 10.19 25.5301 10.37L16.8101 16.76C16.4401 17.03 16.2301 17.45 16.2301 17.91C16.2301 18.37 16.4401 18.79 16.8101 19.06L25.5301 25.43C25.7701 25.61 26.0601 25.7 26.3701 25.7H47.9101V31.33H46.5501C45.7701 31.33 45.1301 31.97 45.1301 32.75V45.52C45.1301 46.3 45.7701 46.94 46.5501 46.94H47.9101V52.49H26.3601C26.0601 52.49 25.7801 52.58 25.5401 52.75L16.8301 58.97C16.4601 59.23 16.2401 59.66 16.2301 60.11C16.2201 60.56 16.4401 60.99 16.8001 61.26L25.5201 67.81C25.7601 67.99 26.0701 68.09 26.3701 68.09H47.9101V75.31C30.7901 76.19 21.3001 83.43 3.53007 97L1.26007 98.73C1.02007 98.91 0.930074 99.22 1.02007 99.51C1.12007 99.79 1.38007 99.98 1.68007 99.98H99.2301C99.5301 99.98 99.8001 99.78 99.8901 99.5C99.9801 99.21 99.8801 98.9 99.6301 98.72L99.6501 98.74ZM3.76007 98.61L4.39007 98.13C22.4401 84.34 31.3201 77.56 47.9201 76.72C48.1501 76.71 48.3801 76.7 48.6201 76.69C48.8501 76.69 49.0801 76.67 49.3201 76.67C50.0601 76.65 50.8001 76.63 51.5701 76.63C52.3401 76.63 53.0901 76.65 53.8201 76.67C54.0501 76.67 54.2901 76.69 54.5201 76.7C54.7601 76.71 54.9801 76.73 55.2201 76.74C68.4601 77.56 75.9001 83.04 89.6101 93.14C91.8701 94.8 94.3801 96.65 97.1001 98.61H3.76007ZM17.6401 60.11L26.3701 53.89H56.2901C56.2901 53.89 56.3201 53.9 56.3201 53.92V66.69C56.3201 66.69 56.3101 66.72 56.2901 66.72H55.2001H54.5001H53.8001H49.3001H48.6001H47.9001H26.3501L17.6301 60.16V60.12L17.6401 60.11ZM46.5201 45.53V32.76C46.5201 32.76 46.5301 32.73 46.5501 32.73H47.9101H48.6101H49.3101H53.8101H54.5101H55.2101H75.8001L83.9401 39.12L84.3701 38.57L83.9401 39.16L75.8001 45.54C75.8001 45.54 75.7901 45.54 75.7801 45.54H46.5601C46.5601 45.54 46.5301 45.53 46.5301 45.51L46.5201 45.53ZM49.3101 25.7H53.8101V31.33H49.3101V25.7ZM49.3101 46.95H53.8101V52.5H49.3101V46.95ZM49.3101 68.1H53.8101V75.27C53.0801 75.24 52.3301 75.23 51.5601 75.23C50.7901 75.23 50.0501 75.25 49.3101 75.27V68.1ZM49.3101 1.42C49.3101 1.42 49.3201 1.39 49.3401 1.39H53.7901C53.7901 1.39 53.8201 1.4 53.8201 1.42V10.1H49.3201V1.42H49.3101ZM17.6401 17.89L26.3801 11.49H56.3001C56.3001 11.49 56.3301 11.5 56.3301 11.52V24.29C56.3301 24.29 56.3201 24.32 56.3001 24.32H55.2101H54.5101H53.8101H49.3101H48.6101H47.9101H26.3501L17.6301 17.94L17.2201 18.5L17.6301 17.89H17.6401Z" fill="#2D557F"/>
</svg>
