<svg xmlns="http://www.w3.org/2000/svg" width="100" height="100" viewBox="0 0 100 100" fill="none">
  <path d="M85.72 68.93H72.34C71.95 68.93 71.64 68.62 71.64 68.23C71.64 67.84 71.95 67.53 72.34 67.53H85.72C89.64 67.53 92.83 64.36 92.87 60.45C91.85 60.92 90.75 61.21 89.61 61.3C87.49 61.46 84.99 60.55 83.53 59.08C82.5 58.04 82.01 56.77 82.12 55.43C82.27 53.66 83.19 52.81 83.94 52.41C85.65 51.48 88.09 51.97 89.74 52.86C91.82 53.98 93.34 55.95 93.96 58.19C95.08 57.33 96 56.2 96.59 54.88C97.45 52.96 97.57 50.72 96.92 48.72C96.8 48.35 97 47.96 97.37 47.84C97.74 47.72 98.13 47.92 98.25 48.29C99.01 50.61 98.86 53.23 97.86 55.46C97.07 57.21 95.79 58.68 94.23 59.71C94.25 59.94 94.26 60.17 94.26 60.4C94.26 65.11 90.42 68.95 85.71 68.95L85.72 68.93ZM86.12 53.3C85.56 53.3 85.04 53.4 84.61 53.63C83.95 53.98 83.6 54.61 83.52 55.54C83.44 56.48 83.78 57.34 84.53 58.09C85.7 59.27 87.8 60.03 89.51 59.9C90.64 59.81 91.73 59.49 92.73 58.96C92.3 56.91 90.97 55.08 89.09 54.07C88.24 53.61 87.13 53.29 86.12 53.29V53.3Z" fill="#0E1721"/>
  <path d="M14.29 62.1C13.81 62.1 13.42 62.5 13.42 63V74.52C13.42 76.4 14.88 77.93 16.67 77.93C16.67 77.93 19.13 77.96 19.28 78.01C19.73 78.16 20.1 78.54 20.26 79.03C21.31 82.19 22.89 85.12 24.92 87.73V97.69C24.92 98.58 25.61 99.31 26.46 99.31H35.01C35.86 99.31 36.55 98.59 36.55 97.69V92.23C40.72 94.15 45.4 95.23 50.35 95.23C55.3 95.23 59.98 94.15 64.15 92.23V97.69C64.15 98.58 64.84 99.31 65.69 99.31H74.24C75.09 99.31 75.78 98.59 75.78 97.69V87.73C79.61 82.79 81.88 76.69 81.88 70.09C81.88 53.61 67.76 40.25 50.35 40.25C44.83 40.25 39.64 41.59 35.12 43.96C34.42 43.07 32.65 41.08 29.68 40.06C27.83 39.43 24.19 38.49 22.54 40.06C22.09 40.49 22.02 41.27 22.4 41.93L27.03 50.02C23.99 53.19 21.65 56.97 20.27 61.16C20.13 61.58 19.84 61.91 19.48 62.09C19.33 62.17 15.94 62.13 14.3 62.1H14.29Z" fill="#4279B6"/>
  <path d="M74.25 100H65.7C64.46 100 63.46 98.96 63.46 97.68V93.29C59.33 95.03 54.93 95.92 50.36 95.92C45.79 95.92 41.39 95.04 37.26 93.29V97.68C37.26 98.96 36.25 100 35.02 100H26.47C25.23 100 24.23 98.96 24.23 97.68V87.96C22.2 85.3 20.64 82.37 19.61 79.24C19.53 78.98 19.34 78.78 19.11 78.68C18.82 78.66 17.68 78.63 16.67 78.62C14.5 78.62 12.73 76.78 12.73 74.51V62.99C12.73 62.56 12.9 62.14 13.21 61.84C13.51 61.55 13.91 61.39 14.31 61.4C17.39 61.45 18.85 61.44 19.25 61.41C19.42 61.3 19.54 61.13 19.61 60.93C20.95 56.9 23.21 53.1 26.17 49.91L21.8 42.27C21.26 41.33 21.37 40.21 22.07 39.54C23.98 37.72 27.81 38.66 29.92 39.39C32.46 40.26 34.22 41.8 35.32 43.08C39.93 40.77 45.12 39.55 50.37 39.55C68.14 39.55 82.6 53.25 82.6 70.09C82.6 76.56 80.49 82.74 76.5 87.96V97.68C76.5 98.96 75.49 100 74.26 100H74.25ZM64.16 91.52C64.29 91.52 64.42 91.56 64.54 91.63C64.74 91.76 64.86 91.98 64.86 92.22V97.68C64.86 98.19 65.24 98.6 65.71 98.6H74.26C74.73 98.6 75.11 98.19 75.11 97.68V87.72C75.11 87.57 75.16 87.41 75.26 87.29C79.15 82.27 81.21 76.32 81.21 70.08C81.21 54.01 67.38 40.94 50.37 40.94C45.16 40.94 40 42.19 35.47 44.57C35.17 44.73 34.81 44.65 34.6 44.38C33.65 43.18 32 41.57 29.48 40.71C26.44 39.67 24.04 39.61 23.04 40.55C22.85 40.73 22.79 41.16 23.02 41.57L27.65 49.66C27.8 49.93 27.76 50.27 27.55 50.49C24.55 53.6 22.27 57.36 20.95 61.36C20.75 61.95 20.35 62.43 19.81 62.7C19.61 62.8 19.48 62.87 14.3 62.79C14.3 62.79 14.23 62.8 14.2 62.83C14.18 62.85 14.14 62.9 14.14 62.99V74.51C14.14 76 15.29 77.22 16.7 77.22C19.28 77.25 19.42 77.3 19.53 77.34C20.19 77.57 20.72 78.11 20.95 78.8C21.96 81.85 23.49 84.7 25.5 87.29C25.59 87.41 25.65 87.56 25.65 87.72V97.68C25.65 98.19 26.03 98.6 26.5 98.6H35.05C35.52 98.6 35.9 98.19 35.9 97.68V92.22C35.9 91.98 36.02 91.76 36.22 91.63C36.42 91.5 36.67 91.48 36.89 91.58C41.12 93.53 45.66 94.52 50.4 94.52C55.14 94.52 59.68 93.53 63.91 91.58C64 91.54 64.1 91.52 64.2 91.52H64.16Z" fill="#0E1721"/>
  <path d="M37.34 47.65C41.43 45.96 45.91 44.76 50.62 44.76C55.33 44.76 59.8 45.96 63.89 47.65L61.88 50.11C58.41 48.68 54.6 47.65 50.61 47.65C46.62 47.65 42.8 48.67 39.33 50.1L37.34 47.64V47.65Z" fill="#3C8645"/>
  <path d="M61.88 50.81C61.79 50.81 61.7 50.79 61.61 50.76C57.69 49.14 54.09 48.36 50.61 48.36C47.13 48.36 43.5 49.15 39.59 50.76C39.3 50.88 38.97 50.79 38.78 50.55L36.79 48.09C36.65 47.92 36.6 47.69 36.66 47.48C36.71 47.27 36.87 47.09 37.07 47.01C41.85 45.03 46.28 44.07 50.62 44.07C54.96 44.07 59.35 45.03 64.15 47.01C64.35 47.09 64.51 47.27 64.56 47.48C64.61 47.69 64.56 47.92 64.42 48.09L62.41 50.55C62.27 50.72 62.07 50.81 61.87 50.81H61.88ZM50.6 46.96C54.13 46.96 57.75 47.72 61.66 49.27L62.74 47.95C58.45 46.28 54.48 45.46 50.62 45.46C46.76 45.46 42.75 46.27 38.48 47.95L39.55 49.27C43.44 47.72 47.06 46.96 50.62 46.96H50.6Z" fill="#0E1721"/>
  <path d="M30.12 62.05C31.3129 62.05 32.28 61.0829 32.28 59.89C32.28 58.697 31.3129 57.73 30.12 57.73C28.9271 57.73 27.96 58.697 27.96 59.89C27.96 61.0829 28.9271 62.05 30.12 62.05Z" fill="#0E1721"/>
  <path d="M30.12 62.75C28.55 62.75 27.27 61.47 27.27 59.9C27.27 58.33 28.55 57.05 30.12 57.05C31.69 57.05 32.98 58.33 32.98 59.9C32.98 61.47 31.7 62.75 30.12 62.75ZM30.12 58.43C29.32 58.43 28.66 59.08 28.66 59.89C28.66 60.7 29.31 61.35 30.12 61.35C30.93 61.35 31.58 60.7 31.58 59.89C31.58 59.08 30.93 58.43 30.12 58.43Z" fill="#0E1721"/>
  <path d="M50.61 34.74C55.4701 34.74 59.41 30.8001 59.41 25.94C59.41 21.0799 55.4701 17.14 50.61 17.14C45.7499 17.14 41.81 21.0799 41.81 25.94C41.81 30.8001 45.7499 34.74 50.61 34.74Z" fill="#FC8B27"/>
  <path d="M50.61 35.45C45.37 35.45 41.11 31.19 41.11 25.95C41.11 20.71 45.37 16.45 50.61 16.45C55.85 16.45 60.11 20.71 60.11 25.95C60.11 31.19 55.85 35.45 50.61 35.45ZM50.61 17.84C46.14 17.84 42.5 21.48 42.5 25.95C42.5 30.42 46.14 34.06 50.61 34.06C55.08 34.06 58.72 30.42 58.72 25.95C58.72 21.48 55.08 17.84 50.61 17.84Z" fill="#0E1721"/>
  <path d="M41.81 15.26C41.42 15.26 41.11 14.95 41.11 14.56V6.73998C41.11 6.34998 41.42 6.03998 41.81 6.03998C42.2 6.03998 42.51 6.34998 42.51 6.73998V14.56C42.51 14.95 42.2 15.26 41.81 15.26Z" fill="#0E1721"/>
  <path d="M50.38 10.64C49.99 10.64 49.68 10.33 49.68 9.94V0.7C49.68 0.31 49.99 0 50.38 0C50.77 0 51.08 0.31 51.08 0.7V9.94C51.08 10.33 50.77 10.64 50.38 10.64Z" fill="#0E1721"/>
  <path d="M59.41 15.26C59.02 15.26 58.71 14.95 58.71 14.56V6.73998C58.71 6.34998 59.02 6.03998 59.41 6.03998C59.8 6.03998 60.11 6.34998 60.11 6.73998V14.56C60.11 14.95 59.8 15.26 59.41 15.26Z" fill="#0E1721"/>
  <path d="M50.61 32.2C54.0673 32.2 56.87 29.3973 56.87 25.94C56.87 22.4827 54.0673 19.68 50.61 19.68C47.1527 19.68 44.35 22.4827 44.35 25.94C44.35 29.3973 47.1527 32.2 50.61 32.2Z" fill="#FCCD2A"/>
  <path d="M50.61 32.63C46.93 32.63 43.93 29.63 43.93 25.95C43.93 22.27 46.93 19.27 50.61 19.27C54.29 19.27 57.29 22.27 57.29 25.95C57.29 29.63 54.29 32.63 50.61 32.63ZM50.61 20.1C47.39 20.1 44.77 22.72 44.77 25.94C44.77 29.16 47.39 31.78 50.61 31.78C53.83 31.78 56.45 29.16 56.45 25.94C56.45 22.72 53.83 20.1 50.61 20.1Z" fill="#0E1721"/>
</svg>
