<svg xmlns="http://www.w3.org/2000/svg" width="100" height="100" viewBox="0 0 100 100" fill="none">
  <path d="M82.53 68.93C82.53 68.7 82.51 68.46 82.49 68.23C82.48 68 82.47 67.76 82.45 67.53C82.26 65.38 81.85 63.29 81.21 61.29C77.21 48.73 64.9 39.55 50.35 39.55C45.1 39.55 39.92 40.77 35.3 43.08C34.2 41.8 32.44 40.26 29.9 39.39C27.79 38.67 23.96 37.72 22.05 39.54C21.35 40.2 21.24 41.32 21.78 42.27L26.15 49.91C23.19 53.1 20.92 56.9 19.59 60.93C19.52 61.13 19.39 61.3 19.23 61.41C18.83 61.43 17.37 61.44 14.29 61.4C13.89 61.4 13.49 61.55 13.19 61.84C12.89 62.14 12.71 62.56 12.71 62.99V74.51C12.71 76.77 14.48 78.62 16.65 78.62C17.66 78.63 18.8 78.66 19.09 78.68C19.32 78.78 19.5 78.98 19.59 79.24C20.63 82.36 22.18 85.3 24.21 87.96V97.68C24.21 98.96 25.22 100 26.45 100H35C36.24 100 37.24 98.96 37.24 97.68V93.29C41.37 95.03 45.77 95.92 50.34 95.92C54.91 95.92 59.31 95.04 63.44 93.29V97.68C63.44 98.96 64.45 100 65.68 100H74.23C75.47 100 76.47 98.96 76.47 97.68V87.96C80.46 82.73 82.57 76.56 82.57 70.09C82.57 69.7 82.52 69.32 82.51 68.93H82.53ZM75.1 87.72V97.68C75.1 98.19 74.72 98.6 74.25 98.6H65.7C65.23 98.6 64.85 98.19 64.85 97.68V92.22C64.85 91.98 64.73 91.76 64.53 91.63C64.42 91.56 64.29 91.52 64.15 91.52C64.05 91.52 63.95 91.54 63.86 91.58C59.63 93.53 55.09 94.52 50.35 94.52C45.61 94.52 41.07 93.53 36.84 91.58C36.62 91.48 36.37 91.5 36.17 91.63C35.97 91.76 35.85 91.98 35.85 92.22V97.68C35.85 98.19 35.47 98.6 35 98.6H26.45C25.98 98.6 25.6 98.19 25.6 97.68V87.72C25.6 87.56 25.55 87.41 25.45 87.29C23.44 84.7 21.91 81.85 20.9 78.8C20.67 78.11 20.14 77.57 19.48 77.34C19.37 77.3 19.22 77.25 16.65 77.22C15.24 77.22 14.09 76 14.09 74.51V62.99C14.09 62.91 14.13 62.85 14.15 62.83C14.18 62.8 14.21 62.79 14.25 62.79C19.43 62.87 19.55 62.8 19.76 62.7C20.3 62.43 20.71 61.95 20.9 61.36C22.22 57.36 24.51 53.6 27.5 50.49C27.71 50.27 27.76 49.93 27.6 49.66L22.97 41.57C22.74 41.16 22.8 40.73 22.99 40.55C23.98 39.61 26.39 39.67 29.43 40.71C31.95 41.57 33.61 43.18 34.55 44.38C34.76 44.64 35.12 44.72 35.42 44.57C39.96 42.2 45.11 40.94 50.32 40.94C64.44 40.94 76.34 49.96 79.98 62.22C80.49 63.93 80.85 65.7 81.01 67.53C81.03 67.76 81.03 68 81.05 68.23C81.07 68.46 81.08 68.7 81.09 68.93C81.11 69.32 81.15 69.7 81.15 70.09C81.15 76.33 79.09 82.28 75.2 87.3C75.11 87.42 75.05 87.57 75.05 87.73L75.1 87.72Z" fill="#4279B6"/>
  <path d="M50.61 35.45C55.85 35.45 60.11 31.19 60.11 25.95C60.11 20.71 55.85 16.45 50.61 16.45C45.37 16.45 41.11 20.71 41.11 25.95C41.11 31.19 45.37 35.45 50.61 35.45ZM50.61 17.84C55.08 17.84 58.72 21.48 58.72 25.95C58.72 30.42 55.08 34.06 50.61 34.06C46.14 34.06 42.5 30.42 42.5 25.95C42.5 21.48 46.14 17.84 50.61 17.84Z" fill="#4279B6"/>
  <path d="M98.26 48.28C98.14 47.91 97.75 47.71 97.38 47.83C97.01 47.95 96.81 48.34 96.93 48.71C96.96 48.79 96.96 48.88 96.99 48.97C97.55 50.9 97.42 53.04 96.6 54.87C96.01 56.19 95.09 57.32 93.97 58.18C93.48 56.41 92.41 54.83 90.97 53.68C90.59 53.38 90.19 53.09 89.76 52.85C88.11 51.96 85.67 51.48 83.96 52.4C83.21 52.8 82.29 53.66 82.14 55.42C82.03 56.77 82.51 58.03 83.55 59.07C83.62 59.14 83.73 59.2 83.81 59.27C85.29 60.61 87.62 61.44 89.63 61.29C90.76 61.2 91.86 60.91 92.89 60.44C92.85 64.35 89.66 67.52 85.74 67.52H82.47C82.49 67.75 82.49 67.99 82.51 68.22C82.52 68.45 82.54 68.68 82.55 68.92H85.74C90.45 68.92 94.29 65.08 94.29 60.37C94.29 60.14 94.29 59.91 94.26 59.69C95.82 58.66 97.11 57.19 97.89 55.44C98.89 53.21 99.03 50.6 98.28 48.27L98.26 48.28ZM84.92 58.4C84.79 58.3 84.64 58.21 84.53 58.1C83.78 57.35 83.44 56.49 83.52 55.55C83.6 54.62 83.96 53.99 84.61 53.64C85.04 53.41 85.56 53.31 86.12 53.31C87.12 53.31 88.24 53.63 89.09 54.09C89.35 54.23 89.57 54.42 89.81 54.59C91.29 55.65 92.36 57.22 92.73 58.98C91.74 59.5 90.64 59.83 89.51 59.92C87.96 60.04 86.13 59.4 84.92 58.41V58.4Z" fill="#2D557F"/>
  <path d="M64.15 47.01C59.35 45.03 54.93 44.07 50.62 44.07C46.31 44.07 41.85 45.03 37.07 47.01C36.87 47.09 36.71 47.27 36.66 47.48C36.61 47.69 36.66 47.92 36.79 48.09L38.78 50.55C38.97 50.79 39.3 50.87 39.59 50.76C43.49 49.14 47.09 48.36 50.61 48.36C54.13 48.36 57.7 49.15 61.61 50.76C61.7 50.8 61.79 50.81 61.88 50.81C62.09 50.81 62.29 50.72 62.42 50.55L64.43 48.09C64.57 47.92 64.62 47.69 64.57 47.48C64.52 47.27 64.36 47.09 64.16 47L64.15 47.01ZM39.54 49.27L38.47 47.95C42.75 46.28 46.73 45.46 50.61 45.46C54.49 45.46 58.44 46.27 62.73 47.95L61.65 49.27C57.75 47.71 54.12 46.96 50.59 46.96C47.06 46.96 43.41 47.72 39.52 49.27H39.54Z" fill="#2D557F"/>
  <path d="M30.12 57.74C28.93 57.74 27.96 58.71 27.96 59.9C27.96 61.09 28.93 62.06 30.12 62.06C31.31 62.06 32.28 61.09 32.28 59.9C32.28 58.71 31.31 57.74 30.12 57.74Z" fill="#2D557F"/>
  <path d="M41.81 15.26C42.2 15.26 42.51 14.95 42.51 14.56V6.73998C42.51 6.34998 42.2 6.03998 41.81 6.03998C41.42 6.03998 41.11 6.34998 41.11 6.73998V14.56C41.11 14.95 41.42 15.26 41.81 15.26Z" fill="#2D557F"/>
  <path d="M50.38 10.64C50.77 10.64 51.08 10.33 51.08 9.94V0.7C51.08 0.31 50.77 0 50.38 0C49.99 0 49.68 0.31 49.68 0.7V9.94C49.68 10.33 49.99 10.64 50.38 10.64Z" fill="#2D557F"/>
  <path d="M59.41 15.26C59.8 15.26 60.11 14.95 60.11 14.56V6.73998C60.11 6.34998 59.8 6.03998 59.41 6.03998C59.02 6.03998 58.71 6.34998 58.71 6.73998V14.56C58.71 14.95 59.02 15.26 59.41 15.26Z" fill="#2D557F"/>
  <path d="M50.61 32.26C47.13 32.26 44.3 29.43 44.3 25.95C44.3 22.47 47.13 19.64 50.61 19.64C54.09 19.64 56.92 22.47 56.92 25.95C56.92 29.43 54.09 32.26 50.61 32.26ZM50.61 21.03C47.9 21.03 45.69 23.23 45.69 25.95C45.69 28.67 47.9 30.87 50.61 30.87C53.32 30.87 55.53 28.66 55.53 25.95C55.53 23.24 53.32 21.03 50.61 21.03Z" fill="#2D557F"/>
</svg>
