<svg xmlns="http://www.w3.org/2000/svg" width="100" height="100" viewBox="0 0 100 100" fill="none">
  <path d="M84.74 67.22V84.88C84.74 87.35 82.74 89.36 80.26 89.36H14.51C12.04 89.36 10.03 87.36 10.03 84.88V15.14C10.03 12.67 12.03 10.66 14.51 10.66H80.27C82.74 10.66 84.75 12.66 84.75 15.14V67.22H84.74Z" fill="#4279B6"/>
  <path d="M80.27 90.02H14.51C11.68 90.02 9.37 87.72 9.37 84.88V57.98C9.37 57.62 9.66999 57.32 10.03 57.32C10.39 57.32 10.69 57.62 10.69 57.98V84.88C10.69 86.98 12.4 88.7 14.51 88.7H80.27C82.37 88.7 84.09 86.99 84.09 84.88V67.22C84.09 66.86 84.39 66.56 84.75 66.56C85.11 66.56 85.41 66.86 85.41 67.22V84.88C85.41 87.71 83.11 90.02 80.27 90.02Z" fill="#0E1721"/>
  <path d="M84.74 46.41C84.38 46.41 84.08 46.11 84.08 45.75V15.14C84.08 13.04 82.37 11.32 80.26 11.32H14.51C12.41 11.32 10.69 13.03 10.69 15.14V37.07C10.69 37.43 10.39 37.73 10.03 37.73C9.66999 37.73 9.37 37.43 9.37 37.07V15.14C9.37 12.31 11.67 10 14.51 10H80.27C83.1 10 85.41 12.3 85.41 15.14V45.75C85.41 46.11 85.11 46.41 84.75 46.41H84.74Z" fill="#0E1721"/>
  <path d="M34.73 22.17H10.03C9.66999 22.17 9.37 21.87 9.37 21.51C9.37 21.15 9.66999 20.85 10.03 20.85H34.73C35.09 20.85 35.39 21.15 35.39 21.51C35.39 21.87 35.09 22.17 34.73 22.17Z" fill="#0E1721"/>
  <path d="M20.71 37.33C20.35 37.33 20.05 37.03 20.05 36.67V21.5C20.05 21.14 20.35 20.84 20.71 20.84C21.07 20.84 21.37 21.14 21.37 21.5V36.67C21.37 37.03 21.07 37.33 20.71 37.33Z" fill="#0E1721"/>
  <path d="M45.71 22.78C45.35 22.78 45.05 22.48 45.05 22.12V11.14C45.05 10.78 45.35 10.48 45.71 10.48C46.07 10.48 46.37 10.78 46.37 11.14V22.12C46.37 22.48 46.07 22.78 45.71 22.78Z" fill="#0E1721"/>
  <path d="M73.77 22.17H56.39C56.03 22.17 55.73 21.87 55.73 21.51C55.73 21.15 56.03 20.85 56.39 20.85H73.77C74.13 20.85 74.43 21.15 74.43 21.51C74.43 21.87 74.13 22.17 73.77 22.17Z" fill="#0E1721"/>
  <path d="M73.77 37.41C73.41 37.41 73.11 37.11 73.11 36.75V11.14C73.11 10.78 73.41 10.48 73.77 10.48C74.13 10.48 74.43 10.78 74.43 11.14V36.76C74.43 37.12 74.13 37.42 73.77 37.42V37.41Z" fill="#0E1721"/>
  <path d="M41.75 58.15H20.71C20.35 58.15 20.05 57.85 20.05 57.49C20.05 57.13 20.35 56.83 20.71 56.83H41.75C42.11 56.83 42.41 57.13 42.41 57.49C42.41 57.85 42.11 58.15 41.75 58.15Z" fill="#0E1721"/>
  <path d="M53.03 79.19H41.75C41.39 79.19 41.09 78.89 41.09 78.53V42.55C41.09 42.19 41.39 41.89 41.75 41.89C42.11 41.89 42.41 42.19 42.41 42.55V77.87H53.03C53.39 77.87 53.69 78.17 53.69 78.53C53.69 78.89 53.39 79.19 53.03 79.19Z" fill="#0E1721"/>
  <path d="M31.07 90.17C30.71 90.17 30.41 89.87 30.41 89.51V68.52H21.36V78.53C21.36 78.89 21.06 79.19 20.7 79.19C20.34 79.19 20.04 78.89 20.04 78.53V67.86C20.04 67.5 20.34 67.2 20.7 67.2H31.07C31.43 67.2 31.73 67.5 31.73 67.86V89.51C31.73 89.87 31.43 90.17 31.07 90.17Z" fill="#0E1721"/>
  <path d="M73.77 67.91H52.12C51.76 67.91 51.46 67.61 51.46 67.25C51.46 66.89 51.76 66.59 52.12 66.59H73.77C74.13 66.59 74.43 66.89 74.43 67.25C74.43 67.61 74.13 67.91 73.77 67.91Z" fill="#0E1721"/>
  <path d="M62.79 89.56C62.43 89.56 62.13 89.26 62.13 88.9V67.25C62.13 66.89 62.43 66.59 62.79 66.59C63.15 66.59 63.45 66.89 63.45 67.25V88.9C63.45 89.26 63.15 89.56 62.79 89.56Z" fill="#0E1721"/>
  <path d="M84.74 79.19H73.76C73.4 79.19 73.1 78.89 73.1 78.53C73.1 78.17 73.4 77.87 73.76 77.87H84.74C85.1 77.87 85.4 78.17 85.4 78.53C85.4 78.89 85.1 79.19 84.74 79.19Z" fill="#0E1721"/>
  <path d="M73.77 47.17H62.79C62.43 47.17 62.13 46.87 62.13 46.51V32.48C62.13 32.12 62.43 31.82 62.79 31.82C63.15 31.82 63.45 32.12 63.45 32.48V45.85H73.77C74.13 45.85 74.43 46.15 74.43 46.51C74.43 46.87 74.13 47.17 73.77 47.17Z" fill="#0E1721"/>
  <path d="M7.00003 47.44H1.98003C1.18003 47.44 0.530029 46.79 0.530029 45.99C0.530029 45.19 1.18003 44.54 1.98003 44.54H7.00003V47.45V47.44Z" fill="#FCCD2A"/>
  <path d="M7 47.96H1.98C0.89 47.96 0 47.07 0 45.98C0 44.89 0.89 44 1.98 44H7C7.29 44 7.53 44.24 7.53 44.53V47.44C7.53 47.73 7.29 47.97 7 47.97V47.96ZM1.98 45.06C1.47 45.06 1.06 45.47 1.06 45.98C1.06 46.49 1.47 46.9 1.98 46.9H6.47V45.05H1.98V45.06Z" fill="#0E1721"/>
  <path d="M20.95 44.53H10.03V47.44H20.95V44.53Z" fill="#FCCD2A"/>
  <path d="M20.96 47.96H10.04C9.75001 47.96 9.51001 47.72 9.51001 47.43V44.52C9.51001 44.23 9.75001 43.99 10.04 43.99H20.96C21.25 43.99 21.49 44.23 21.49 44.52V47.43C21.49 47.72 21.25 47.96 20.96 47.96ZM10.56 46.91H20.43V45.06H10.56V46.91Z" fill="#0E1721"/>
  <path d="M31.0701 47.4399H24.6201V44.5299H29.6201V39.4999H32.5301V45.9799C32.5301 46.7799 31.8801 47.4299 31.0801 47.4299L31.0701 47.4399Z" fill="#FCCD2A"/>
  <path d="M31.07 47.96H24.62C24.33 47.96 24.09 47.72 24.09 47.43V44.52C24.09 44.23 24.33 43.99 24.62 43.99H29.09V39.49C29.09 39.2 29.33 38.96 29.62 38.96H32.53C32.82 38.96 33.06 39.2 33.06 39.49V45.97C33.06 47.06 32.17 47.95 31.08 47.95L31.07 47.96ZM25.15 46.91H31.07C31.58 46.91 31.99 46.5 31.99 45.99V40.03H30.14V44.53C30.14 44.82 29.9 45.06 29.61 45.06H25.14V46.91H25.15Z" fill="#0E1721"/>
  <path d="M32.5301 36.05H29.6201V31.95C29.6201 31.15 30.2701 30.5 31.0701 30.5H35.1701V33.41H32.5301V36.05Z" fill="#FCCD2A"/>
  <path d="M32.53 36.58H29.62C29.33 36.58 29.09 36.34 29.09 36.05V31.95C29.09 30.86 29.98 29.97 31.07 29.97H35.17C35.46 29.97 35.7 30.21 35.7 30.5V33.41C35.7 33.7 35.46 33.94 35.17 33.94H33.06V36.05C33.06 36.34 32.82 36.58 32.53 36.58ZM30.15 35.52H32V33.41C32 33.12 32.24 32.88 32.53 32.88H34.64V31.03H31.07C30.56 31.03 30.15 31.44 30.15 31.95V35.52Z" fill="#0E1721"/>
  <path d="M45.59 30.5H38.52V33.41H45.59V30.5Z" fill="#FCCD2A"/>
  <path d="M45.59 33.94H38.52C38.23 33.94 37.99 33.7 37.99 33.41V30.5C37.99 30.21 38.23 29.97 38.52 29.97H45.59C45.88 29.97 46.12 30.21 46.12 30.5V33.41C46.12 33.7 45.88 33.94 45.59 33.94ZM39.04 32.88H45.06V31.03H39.04V32.88Z" fill="#0E1721"/>
  <path d="M54.4801 36.05H51.5701V33.41H48.9301V30.5H53.0301C53.8301 30.5 54.4801 31.15 54.4801 31.95V36.05Z" fill="#FCCD2A"/>
  <path d="M54.48 36.58H51.57C51.28 36.58 51.04 36.34 51.04 36.05V33.94H48.93C48.64 33.94 48.4 33.7 48.4 33.41V30.5C48.4 30.21 48.64 29.97 48.93 29.97H53.03C54.12 29.97 55.01 30.86 55.01 31.95V36.05C55.01 36.34 54.77 36.58 54.48 36.58ZM52.11 35.52H53.96V31.95C53.96 31.44 53.55 31.03 53.04 31.03H49.47V32.88H51.58C51.87 32.88 52.11 33.12 52.11 33.41V35.52Z" fill="#0E1721"/>
  <path d="M54.49 39.4999H51.58V49.4199H54.49V39.4999Z" fill="#FCCD2A"/>
  <path d="M54.48 49.94H51.57C51.28 49.94 51.04 49.7 51.04 49.41V39.49C51.04 39.2 51.28 38.96 51.57 38.96H54.48C54.77 38.96 55.01 39.2 55.01 39.49V49.41C55.01 49.7 54.77 49.94 54.48 49.94ZM52.11 48.88H53.96V40.02H52.11V48.88Z" fill="#0E1721"/>
  <path d="M57.13 58.41H53.03C52.23 58.41 51.58 57.76 51.58 56.96V52.86H54.49V55.5H57.13V58.41Z" fill="#FCCD2A"/>
  <path d="M57.13 58.94H53.03C51.94 58.94 51.05 58.05 51.05 56.96V52.86C51.05 52.57 51.29 52.33 51.58 52.33H54.49C54.78 52.33 55.02 52.57 55.02 52.86V54.97H57.13C57.42 54.97 57.66 55.21 57.66 55.5V58.41C57.66 58.7 57.42 58.94 57.13 58.94ZM52.11 53.39V56.96C52.11 57.47 52.52 57.88 53.03 57.88H56.6V56.03H54.49C54.2 56.03 53.96 55.79 53.96 55.5V53.39H52.11Z" fill="#0E1721"/>
  <path d="M67.8901 58.41H60.6801V55.5H67.8901V58.41Z" fill="#FCCD2A"/>
  <path d="M67.89 58.94H60.68C60.39 58.94 60.15 58.7 60.15 58.41V55.5C60.15 55.21 60.39 54.97 60.68 54.97H67.89C68.18 54.97 68.42 55.21 68.42 55.5V58.41C68.42 58.7 68.18 58.94 67.89 58.94ZM61.21 57.89H67.37V56.04H61.21V57.89Z" fill="#0E1721"/>
  <path d="M84.84 55.5099H80.83V58.4199H84.84V55.5099Z" fill="#FCCD2A"/>
  <path d="M84.84 58.94H80.83C80.54 58.94 80.3 58.7 80.3 58.41V55.5C80.3 55.21 80.54 54.97 80.83 54.97H84.84C85.13 54.97 85.37 55.21 85.37 55.5V58.41C85.37 58.7 85.13 58.94 84.84 58.94ZM81.36 57.89H84.31V56.04H81.36V57.89Z" fill="#0E1721"/>
  <path d="M91.19 58.41H87.7V55.5H91.19C91.99 55.5 92.64 56.15 92.64 56.95C92.64 57.75 91.99 58.4 91.19 58.4V58.41Z" fill="#FCCD2A"/>
  <path d="M91.19 58.94H87.7C87.41 58.94 87.17 58.7 87.17 58.41V55.5C87.17 55.21 87.41 54.97 87.7 54.97H91.19C92.28 54.97 93.17 55.86 93.17 56.95C93.17 58.04 92.28 58.93 91.19 58.93V58.94ZM88.23 57.89H91.19C91.7 57.89 92.11 57.48 92.11 56.97C92.11 56.46 91.7 56.05 91.19 56.05H88.23V57.9V57.89Z" fill="#0E1721"/>
  <path d="M92.29 53.36L88.7 49.77C88.13 49.2 88.13 48.28 88.7 47.71C89.27 47.14 90.19 47.14 90.76 47.71L94.35 51.3L92.29 53.36Z" fill="#FCCD2A"/>
  <path d="M92.29 53.88C92.15 53.88 92.02 53.83 91.92 53.73L88.32 50.14C87.55 49.37 87.55 48.11 88.32 47.34C88.69 46.97 89.19 46.76 89.72 46.76C90.25 46.76 90.75 46.97 91.12 47.34L94.72 50.93C94.82 51.03 94.87 51.16 94.87 51.3C94.87 51.44 94.81 51.57 94.72 51.67L92.66 53.73C92.56 53.83 92.42 53.88 92.29 53.88ZM89.72 47.81C89.47 47.81 89.24 47.91 89.07 48.08C88.9 48.25 88.8 48.49 88.8 48.73C88.8 48.97 88.9 49.21 89.07 49.38L92.29 52.6L93.6 51.29L90.38 48.07C90.21 47.9 89.97 47.8 89.73 47.8L89.72 47.81Z" fill="#0E1721"/>
  <path d="M77.97 55.5099H70.76V58.4199H77.97V55.5099Z" fill="#FCCD2A"/>
  <path d="M77.97 58.94H70.76C70.47 58.94 70.23 58.7 70.23 58.41V55.5C70.23 55.21 70.47 54.97 70.76 54.97H77.97C78.26 54.97 78.5 55.21 78.5 55.5V58.41C78.5 58.7 78.26 58.94 77.97 58.94ZM71.28 57.89H77.44V56.04H71.28V57.89Z" fill="#0E1721"/>
  <path d="M88.7 66.35C88.13 65.78 88.13 64.86 88.7 64.29L92.28 60.71L94.34 62.77L90.76 66.35C90.19 66.92 89.27 66.92 88.7 66.35Z" fill="#FCCD2A"/>
  <path d="M89.72 67.3C89.21 67.3 88.71 67.11 88.32 66.72C87.55 65.95 87.55 64.69 88.32 63.92L91.9 60.34C92.11 60.13 92.44 60.13 92.65 60.34L94.71 62.4C94.92 62.61 94.92 62.94 94.71 63.15L91.13 66.73C90.74 67.12 90.24 67.31 89.73 67.31L89.72 67.3ZM92.28 61.46L89.07 64.67C88.71 65.03 88.71 65.62 89.07 65.98C89.43 66.34 90.02 66.34 90.38 65.98L93.59 62.77L92.28 61.46Z" fill="#0E1721"/>
  <path d="M96.73 60.3701L94.67 58.3101L95.96 57.0201L94.68 55.7401L96.74 53.6801L99.04 55.9801C99.61 56.5501 99.61 57.4701 99.04 58.0401L96.72 60.3601L96.73 60.3701Z" fill="#FCCD2A"/>
  <path d="M96.73 60.9C96.59 60.9 96.46 60.85 96.36 60.75L94.3 58.69C94.09 58.48 94.09 58.15 94.3 57.94L95.22 57.02L94.32 56.12C94.11 55.91 94.11 55.58 94.32 55.37L96.38 53.31C96.59 53.1 96.92 53.1 97.13 53.31L99.43 55.61C100.2 56.38 100.2 57.64 99.43 58.41L97.11 60.73C97.01 60.83 96.87 60.88 96.74 60.88L96.73 60.9ZM95.42 58.32L96.73 59.63L98.67 57.69C99.03 57.33 99.03 56.74 98.67 56.38L96.74 54.45L95.43 55.76L96.33 56.66C96.54 56.87 96.54 57.2 96.33 57.41L95.41 58.33L95.42 58.32Z" fill="#0E1721"/>
</svg>
