<svg xmlns="http://www.w3.org/2000/svg" width="100" height="100" viewBox="0 0 100 100" fill="none">
  <path d="M81.86 91.97H13.68C10.74 91.97 8.34998 89.58 8.34998 86.64V58.75C8.34998 58.37 8.65997 58.07 9.02997 58.07C9.39997 58.07 9.70998 58.38 9.70998 58.75V86.64C9.70998 88.82 11.49 90.6 13.67 90.6H81.85C84.03 90.6 85.81 88.82 85.81 86.64V68.33C85.81 67.95 86.12 67.65 86.49 67.65C86.86 67.65 87.17 67.96 87.17 68.33V86.64C87.17 89.58 84.78 91.97 81.84 91.97H81.86Z" fill="#4279B6"/>
  <path d="M86.5 46.76C86.12 46.76 85.82 46.45 85.82 46.08V14.33C85.82 12.15 84.04 10.37 81.86 10.37H13.68C11.5 10.37 9.71999 12.15 9.71999 14.33V37.07C9.71999 37.45 9.40999 37.75 9.03999 37.75C8.66999 37.75 8.35999 37.44 8.35999 37.07V14.33C8.35999 11.39 10.75 9 13.69 9H81.87C84.81 9 87.2 11.39 87.2 14.33V46.07C87.2 46.45 86.89 46.75 86.52 46.75L86.5 46.76Z" fill="#4279B6"/>
  <path d="M34.65 21.62H9.02997C8.64997 21.62 8.34998 21.31 8.34998 20.94C8.34998 20.57 8.65997 20.26 9.02997 20.26H34.64C35.02 20.26 35.32 20.57 35.32 20.94C35.32 21.31 35.01 21.62 34.64 21.62H34.65Z" fill="#4279B6"/>
  <path d="M20.1 37.34C19.72 37.34 19.42 37.03 19.42 36.66V20.93C19.42 20.55 19.73 20.25 20.1 20.25C20.47 20.25 20.78 20.56 20.78 20.93V36.66C20.78 37.04 20.47 37.34 20.1 37.34Z" fill="#4279B6"/>
  <path d="M46.03 22.25C45.65 22.25 45.35 21.94 45.35 21.57V10.18C45.35 9.8 45.66 9.5 46.03 9.5C46.4 9.5 46.71 9.81 46.71 10.18V21.56C46.71 21.94 46.4 22.24 46.03 22.24V22.25Z" fill="#4279B6"/>
  <path d="M75.12 21.62H57.1C56.72 21.62 56.42 21.31 56.42 20.94C56.42 20.57 56.73 20.26 57.1 20.26H75.12C75.5 20.26 75.8 20.57 75.8 20.94C75.8 21.31 75.49 21.62 75.12 21.62Z" fill="#4279B6"/>
  <path d="M75.12 37.43C74.74 37.43 74.44 37.12 74.44 36.75V10.18C74.44 9.8 74.75 9.5 75.12 9.5C75.49 9.5 75.8 9.81 75.8 10.18V36.74C75.8 37.12 75.49 37.42 75.12 37.42V37.43Z" fill="#4279B6"/>
  <path d="M41.92 58.93H20.1C19.72 58.93 19.42 58.62 19.42 58.25C19.42 57.88 19.73 57.57 20.1 57.57H41.92C42.3 57.57 42.6 57.88 42.6 58.25C42.6 58.62 42.29 58.93 41.92 58.93Z" fill="#4279B6"/>
  <path d="M53.62 80.74H41.92C41.54 80.74 41.24 80.43 41.24 80.06V42.75C41.24 42.37 41.55 42.07 41.92 42.07C42.29 42.07 42.6 42.38 42.6 42.75V79.38H53.61C53.99 79.38 54.29 79.69 54.29 80.06C54.29 80.43 53.98 80.74 53.61 80.74H53.62Z" fill="#4279B6"/>
  <path d="M30.85 91.9701C30.47 91.9701 30.17 91.6601 30.17 91.2901V69.6801H20.79V80.0601C20.79 80.4401 20.48 80.7401 20.11 80.7401C19.74 80.7401 19.43 80.4301 19.43 80.0601V68.9901C19.43 68.6101 19.74 68.3101 20.11 68.3101H30.86C31.24 68.3101 31.54 68.6201 31.54 68.9901V91.2801C31.54 91.6601 31.23 91.9601 30.86 91.9601L30.85 91.9701Z" fill="#4279B6"/>
  <path d="M75.12 69.05H52.67C52.29 69.05 51.99 68.74 51.99 68.37C51.99 68 52.3 67.69 52.67 67.69H75.12C75.5 67.69 75.8 68 75.8 68.37C75.8 68.74 75.49 69.05 75.12 69.05Z" fill="#4279B6"/>
  <path d="M63.74 91.5C63.36 91.5 63.06 91.19 63.06 90.82V68.37C63.06 67.99 63.37 67.69 63.74 67.69C64.11 67.69 64.42 68 64.42 68.37V90.82C64.42 91.2 64.11 91.5 63.74 91.5Z" fill="#4279B6"/>
  <path d="M86.5 80.74H75.12C74.74 80.74 74.44 80.43 74.44 80.06C74.44 79.69 74.75 79.38 75.12 79.38H86.5C86.88 79.38 87.18 79.69 87.18 80.06C87.18 80.43 86.87 80.74 86.5 80.74Z" fill="#4279B6"/>
  <path d="M75.12 47.54H63.74C63.36 47.54 63.06 47.23 63.06 46.86V32.31C63.06 31.93 63.37 31.63 63.74 31.63C64.11 31.63 64.42 31.94 64.42 32.31V46.17H75.12C75.5 46.17 75.8 46.48 75.8 46.85C75.8 47.22 75.49 47.53 75.12 47.53V47.54Z" fill="#4279B6"/>
  <path d="M2.33 47.54H0.68C0.3 47.54 0 47.23 0 46.86C0 46.49 0.31 46.18 0.68 46.18H2.32C2.7 46.18 3 46.49 3 46.86C3 47.23 2.69 47.54 2.32 47.54H2.33Z" fill="#2D557F"/>
  <path d="M22.81 47.54H18.97C18.59 47.54 18.29 47.23 18.29 46.86C18.29 46.49 18.6 46.18 18.97 46.18H22.81C23.19 46.18 23.49 46.49 23.49 46.86C23.49 47.23 23.18 47.54 22.81 47.54ZM12.57 47.54H8.72999C8.34999 47.54 8.04999 47.23 8.04999 46.86C8.04999 46.49 8.35999 46.18 8.72999 46.18H12.57C12.95 46.18 13.25 46.49 13.25 46.86C13.25 47.23 12.94 47.54 12.57 47.54Z" fill="#2D557F"/>
  <path d="M30.85 47.54H29.21C28.83 47.54 28.53 47.23 28.53 46.86C28.53 46.49 28.84 46.18 29.21 46.18H30.17V45.22C30.17 44.84 30.48 44.54 30.85 44.54C31.22 44.54 31.53 44.85 31.53 45.22V46.86C31.53 47.24 31.22 47.54 30.85 47.54Z" fill="#2D557F"/>
  <path d="M30.85 41.57C30.47 41.57 30.17 41.26 30.17 40.89V38.29C30.17 37.91 30.48 37.61 30.85 37.61C31.22 37.61 31.53 37.92 31.53 38.29V40.89C31.53 41.27 31.22 41.57 30.85 41.57Z" fill="#2D557F"/>
  <path d="M30.85 34.64C30.47 34.64 30.17 34.33 30.17 33.96V32.32C30.17 31.94 30.48 31.64 30.85 31.64H32.49C32.87 31.64 33.17 31.95 33.17 32.32C33.17 32.69 32.86 33 32.49 33H31.53V33.96C31.53 34.34 31.22 34.64 30.85 34.64Z" fill="#2D557F"/>
  <path d="M47.34 33H44.56C44.18 33 43.88 32.69 43.88 32.32C43.88 31.95 44.19 31.64 44.56 31.64H47.34C47.72 31.64 48.02 31.95 48.02 32.32C48.02 32.69 47.71 33 47.34 33ZM39.92 33H37.14C36.76 33 36.46 32.69 36.46 32.32C36.46 31.95 36.77 31.64 37.14 31.64H39.92C40.3 31.64 40.6 31.95 40.6 32.32C40.6 32.69 40.29 33 39.92 33Z" fill="#2D557F"/>
  <path d="M53.62 34.64C53.24 34.64 52.94 34.33 52.94 33.96V33H51.98C51.6 33 51.3 32.69 51.3 32.32C51.3 31.95 51.61 31.64 51.98 31.64H53.62C54 31.64 54.3 31.95 54.3 32.32V33.96C54.3 34.34 53.99 34.64 53.62 34.64Z" fill="#2D557F"/>
  <path d="M53.62 51.89C53.24 51.89 52.94 51.58 52.94 51.21V47.98C52.94 47.6 53.25 47.3 53.62 47.3C53.99 47.3 54.3 47.61 54.3 47.98V51.21C54.3 51.59 53.99 51.89 53.62 51.89ZM53.62 43.27C53.24 43.27 52.94 42.96 52.94 42.59V39.36C52.94 38.98 53.25 38.68 53.62 38.68C53.99 38.68 54.3 38.99 54.3 39.36V42.59C54.3 42.97 53.99 43.27 53.62 43.27Z" fill="#2D557F"/>
  <path d="M55.26 58.93H53.62C53.24 58.93 52.94 58.62 52.94 58.25V56.61C52.94 56.23 53.25 55.93 53.62 55.93C53.99 55.93 54.3 56.24 54.3 56.61V57.57H55.26C55.64 57.57 55.94 57.88 55.94 58.25C55.94 58.62 55.63 58.93 55.26 58.93Z" fill="#2D557F"/>
  <path d="M87.08 58.93H84.1C83.72 58.93 83.42 58.62 83.42 58.25C83.42 57.88 83.73 57.57 84.1 57.57H87.08C87.46 57.57 87.76 57.88 87.76 58.25C87.76 58.62 87.45 58.93 87.08 58.93ZM79.12 58.93H76.14C75.76 58.93 75.46 58.62 75.46 58.25C75.46 57.88 75.77 57.57 76.14 57.57H79.12C79.5 57.57 79.8 57.88 79.8 58.25C79.8 58.62 79.49 58.93 79.12 58.93ZM71.17 58.93H68.19C67.81 58.93 67.51 58.62 67.51 58.25C67.51 57.88 67.82 57.57 68.19 57.57H71.17C71.55 57.57 71.85 57.88 71.85 58.25C71.85 58.62 71.54 58.93 71.17 58.93ZM63.22 58.93H60.24C59.86 58.93 59.56 58.62 59.56 58.25C59.56 57.88 59.87 57.57 60.24 57.57H63.22C63.6 57.57 63.9 57.88 63.9 58.25C63.9 58.62 63.59 58.93 63.22 58.93Z" fill="#2D557F"/>
  <path d="M93.69 58.93H92.05C91.67 58.93 91.37 58.62 91.37 58.25C91.37 57.88 91.68 57.57 92.05 57.57H93.69C94.07 57.57 94.37 57.88 94.37 58.25C94.37 58.62 94.06 58.93 93.69 58.93Z" fill="#2D557F"/>
  <path d="M92.67 65.64C92.49 65.64 92.32 65.57 92.19 65.44C91.92 65.17 91.92 64.74 92.19 64.47L94.62 62.04C94.89 61.77 95.32 61.77 95.59 62.04C95.86 62.31 95.86 62.74 95.59 63.01L93.16 65.44C93.03 65.57 92.85 65.64 92.68 65.64H92.67ZM98.01 60.3C97.83 60.3 97.66 60.23 97.53 60.1C97.26 59.83 97.26 59.4 97.53 59.13L98.35 58.31L97.62 57.58C97.35 57.31 97.35 56.88 97.62 56.61C97.89 56.34 98.32 56.34 98.59 56.61L99.81 57.83C100.08 58.1 100.08 58.53 99.81 58.8L98.51 60.1C98.38 60.23 98.2 60.3 98.03 60.3H98.01ZM95.19 54.88C95.01 54.88 94.84 54.81 94.71 54.68L92.19 52.16C91.92 51.89 91.92 51.46 92.19 51.19C92.46 50.92 92.89 50.92 93.16 51.19L95.68 53.71C95.95 53.98 95.95 54.41 95.68 54.68C95.55 54.81 95.37 54.88 95.2 54.88H95.19Z" fill="#2D557F"/>
</svg>
