<svg xmlns="http://www.w3.org/2000/svg" width="100" height="100" viewBox="0 0 100 100" fill="none">
  <path d="M28.55 28.8C28.37 28.8 28.18 28.73 28.04 28.59L17.95 18.5C17.67 18.22 17.67 17.76 17.95 17.48C18.23 17.2 18.69 17.2 18.97 17.48L29.06 27.57C29.34 27.85 29.34 28.31 29.06 28.59C28.92 28.73 28.74 28.8 28.55 28.8Z" fill="#0E1721"/>
  <path d="M82.04 82.29C81.86 82.29 81.67 82.22 81.53 82.08L71.44 71.99C71.16 71.71 71.16 71.25 71.44 70.97C71.72 70.69 72.18 70.69 72.46 70.97L82.55 81.06C82.83 81.34 82.83 81.8 82.55 82.08C82.41 82.22 82.23 82.29 82.04 82.29Z" fill="#0E1721"/>
  <path d="M18.46 82.29C18.28 82.29 18.09 82.22 17.95 82.08C17.67 81.8 17.67 81.34 17.95 81.06L28.04 70.97C28.32 70.69 28.78 70.69 29.06 70.97C29.34 71.25 29.34 71.71 29.06 71.99L18.97 82.08C18.83 82.22 18.65 82.29 18.46 82.29Z" fill="#0E1721"/>
  <path d="M71.95 28.8C71.77 28.8 71.58 28.73 71.44 28.59C71.16 28.31 71.16 27.85 71.44 27.57L81.53 17.48C81.81 17.2 82.27 17.2 82.55 17.48C82.83 17.76 82.83 18.22 82.55 18.5L72.46 28.59C72.32 28.73 72.14 28.8 71.95 28.8Z" fill="#0E1721"/>
  <path d="M15.71 45.76C15.59 45.79 15.51 45.89 15.49 46.01C15.34 47.32 15.24 48.65 15.24 50.01C15.24 51.37 15.34 52.69 15.49 54.01C15.5 54.13 15.59 54.23 15.71 54.26L19.63 55.24C19.74 55.27 19.82 55.36 19.84 55.47C20.14 57.16 20.59 58.79 21.16 60.37C21.2 60.48 21.17 60.59 21.09 60.67L18.16 63.5C18.07 63.58 18.05 63.71 18.09 63.83C19.16 66.3 20.53 68.6 22.12 70.73C22.19 70.83 22.32 70.87 22.43 70.84L26.28 69.74C26.39 69.71 26.5 69.74 26.58 69.83C27.68 71.13 28.89 72.33 30.18 73.43C30.27 73.5 30.3 73.62 30.27 73.73L29.17 77.58C29.14 77.7 29.17 77.82 29.28 77.89C31.41 79.48 33.71 80.85 36.18 81.92C36.29 81.97 36.42 81.94 36.51 81.85L39.34 78.92C39.42 78.84 39.54 78.81 39.64 78.85C41.22 79.42 42.86 79.86 44.54 80.17C44.65 80.19 44.74 80.27 44.77 80.38L45.75 84.3C45.78 84.42 45.88 84.5 46 84.52C47.31 84.67 48.64 84.77 50 84.77C51.36 84.77 52.68 84.67 54 84.52C54.12 84.51 54.22 84.42 54.25 84.3L55.23 80.38C55.26 80.27 55.35 80.19 55.46 80.17C57.15 79.87 58.78 79.42 60.36 78.85C60.47 78.81 60.58 78.84 60.66 78.92L63.49 81.85C63.57 81.94 63.7 81.96 63.82 81.92C66.29 80.85 68.59 79.48 70.72 77.89C70.82 77.82 70.86 77.69 70.83 77.58L69.73 73.73C69.7 73.62 69.73 73.51 69.82 73.43C71.12 72.33 72.32 71.12 73.42 69.83C73.49 69.74 73.61 69.71 73.72 69.74L77.57 70.84C77.69 70.87 77.81 70.84 77.88 70.73C79.47 68.6 80.84 66.3 81.91 63.83C81.96 63.72 81.93 63.59 81.84 63.5L78.91 60.67C78.83 60.59 78.8 60.47 78.84 60.37C79.41 58.79 79.85 57.15 80.16 55.47C80.18 55.36 80.26 55.27 80.37 55.24L84.29 54.26C84.41 54.23 84.49 54.13 84.51 54.01C84.66 52.7 84.76 51.37 84.76 50.01C84.76 48.65 84.66 47.33 84.51 46.01C84.5 45.89 84.41 45.79 84.29 45.76L80.37 44.78C80.26 44.75 80.18 44.66 80.16 44.55C79.86 42.86 79.41 41.23 78.84 39.65C78.8 39.54 78.83 39.43 78.91 39.35L81.84 36.52C81.93 36.44 81.95 36.31 81.91 36.19C80.84 33.72 79.47 31.42 77.88 29.29C77.81 29.19 77.68 29.15 77.57 29.18L73.72 30.28C73.61 30.31 73.5 30.28 73.42 30.19C72.32 28.89 71.11 27.69 69.82 26.59C69.73 26.52 69.7 26.4 69.73 26.29L70.83 22.44C70.86 22.32 70.83 22.2 70.72 22.13C68.59 20.54 66.29 19.17 63.82 18.1C63.71 18.05 63.58 18.08 63.49 18.17L60.66 21.1C60.58 21.18 60.46 21.21 60.36 21.17C58.78 20.6 57.14 20.16 55.46 19.85C55.35 19.83 55.26 19.75 55.23 19.64L54.25 15.72C54.22 15.6 54.12 15.52 54 15.5C52.69 15.35 51.36 15.25 50 15.25C48.64 15.25 47.32 15.35 46 15.5C45.88 15.51 45.78 15.6 45.75 15.72L44.77 19.64C44.74 19.75 44.65 19.83 44.54 19.85C42.85 20.15 41.22 20.6 39.64 21.17C39.53 21.21 39.42 21.18 39.34 21.1L36.51 18.17C36.43 18.08 36.3 18.06 36.18 18.1C33.71 19.17 31.41 20.54 29.28 22.13C29.18 22.2 29.14 22.33 29.17 22.44L30.27 26.29C30.3 26.4 30.27 26.51 30.18 26.59C28.88 27.69 27.68 28.9 26.58 30.19C26.51 30.28 26.39 30.31 26.28 30.28L22.43 29.18C22.31 29.15 22.19 29.18 22.12 29.29C20.53 31.42 19.16 33.72 18.09 36.19C18.04 36.3 18.07 36.43 18.16 36.52L21.09 39.35C21.17 39.43 21.2 39.55 21.16 39.65C20.59 41.23 20.15 42.87 19.84 44.55C19.82 44.66 19.74 44.75 19.63 44.78L15.71 45.76Z" fill="#4279B6"/>
  <path d="M50 85.48C48.75 85.48 47.42 85.4 45.92 85.22C45.51 85.17 45.16 84.87 45.06 84.46L44.15 80.81C42.64 80.52 41.14 80.12 39.67 79.61L37.03 82.34C36.74 82.64 36.28 82.73 35.9 82.56C33.49 81.51 31.12 80.13 28.86 78.45C28.53 78.2 28.38 77.76 28.49 77.36L29.51 73.78C28.33 72.77 27.23 71.66 26.22 70.49L22.64 71.51C22.24 71.63 21.8 71.48 21.55 71.14C19.87 68.89 18.49 66.52 17.44 64.1C17.27 63.72 17.36 63.26 17.66 62.97L20.39 60.33C19.88 58.86 19.47 57.36 19.19 55.85L15.54 54.94C15.14 54.84 14.83 54.49 14.78 54.08C14.61 52.58 14.52 51.25 14.52 50C14.52 48.75 14.6 47.42 14.78 45.92C14.83 45.51 15.13 45.16 15.54 45.06L19.19 44.15C19.48 42.64 19.88 41.14 20.39 39.67L17.66 37.03C17.36 36.74 17.27 36.28 17.43 35.9C18.48 33.48 19.86 31.12 21.54 28.86C21.79 28.53 22.23 28.38 22.63 28.49L26.21 29.51C27.22 28.34 28.33 27.23 29.5 26.22L28.48 22.64C28.37 22.24 28.51 21.8 28.85 21.55C31.11 19.87 33.47 18.48 35.89 17.44C36.27 17.27 36.73 17.36 37.02 17.66L39.66 20.39C41.13 19.88 42.63 19.47 44.14 19.19L45.05 15.54C45.15 15.13 45.5 14.83 45.91 14.78C47.4 14.61 48.74 14.52 49.99 14.52C51.24 14.52 52.58 14.6 54.07 14.78C54.48 14.83 54.83 15.13 54.93 15.54L55.84 19.19C57.35 19.48 58.85 19.88 60.32 20.39L62.96 17.66C63.25 17.36 63.71 17.27 64.09 17.44C66.5 18.49 68.87 19.87 71.13 21.55C71.46 21.8 71.61 22.24 71.5 22.64L70.48 26.22C71.66 27.23 72.76 28.34 73.77 29.51L77.35 28.49C77.75 28.37 78.19 28.52 78.44 28.86C80.12 31.11 81.5 33.48 82.55 35.9C82.72 36.28 82.63 36.74 82.33 37.03L79.6 39.67C80.11 41.14 80.52 42.64 80.8 44.15L84.45 45.06C84.85 45.16 85.16 45.51 85.21 45.92C85.38 47.42 85.47 48.75 85.47 50C85.47 51.25 85.39 52.58 85.21 54.08C85.16 54.49 84.86 54.84 84.45 54.94L80.8 55.85C80.51 57.36 80.11 58.86 79.6 60.33L82.33 62.97C82.63 63.26 82.72 63.72 82.56 64.1C81.51 66.52 80.13 68.88 78.45 71.14C78.2 71.47 77.76 71.62 77.36 71.51L73.78 70.49C72.77 71.66 71.66 72.77 70.49 73.78L71.51 77.36C71.62 77.76 71.48 78.2 71.14 78.45C68.88 80.13 66.52 81.52 64.1 82.56C63.72 82.73 63.26 82.64 62.97 82.34L60.33 79.61C58.86 80.12 57.36 80.53 55.85 80.81L54.94 84.46C54.84 84.87 54.49 85.17 54.08 85.22C52.59 85.39 51.25 85.48 50 85.48ZM46.38 83.83C47.7 83.98 48.89 84.05 50 84.05C51.11 84.05 52.3 83.98 53.62 83.83L54.53 80.2C54.63 79.82 54.94 79.52 55.33 79.45C56.94 79.16 58.55 78.73 60.12 78.17C60.49 78.04 60.91 78.13 61.18 78.42L63.8 81.13C65.94 80.18 68.03 78.95 70.04 77.48L69.02 73.91C68.91 73.53 69.04 73.12 69.34 72.87C70.61 71.8 71.79 70.61 72.86 69.35C73.11 69.05 73.52 68.92 73.9 69.03L77.47 70.05C78.94 68.04 80.17 65.94 81.12 63.81L78.41 61.19C78.13 60.92 78.03 60.5 78.16 60.13C78.72 58.57 79.15 56.96 79.44 55.34C79.51 54.95 79.8 54.64 80.19 54.54L83.82 53.63C83.96 52.31 84.04 51.12 84.04 50.01C84.04 48.9 83.97 47.71 83.82 46.39L80.19 45.48C79.81 45.38 79.51 45.07 79.44 44.68C79.15 43.07 78.72 41.46 78.16 39.89C78.03 39.52 78.12 39.1 78.41 38.83L81.12 36.21C80.17 34.07 78.94 31.98 77.47 29.97L73.9 30.99C73.52 31.1 73.11 30.97 72.86 30.67C71.79 29.41 70.6 28.22 69.34 27.15C69.04 26.89 68.91 26.48 69.02 26.1L70.04 22.53C68.03 21.06 65.93 19.83 63.8 18.88L61.18 21.59C60.91 21.87 60.49 21.97 60.12 21.84C58.56 21.28 56.95 20.85 55.33 20.56C54.94 20.49 54.63 20.2 54.53 19.81L53.62 16.18C52.3 16.04 51.12 15.96 50 15.96C48.88 15.96 47.7 16.03 46.38 16.18L45.47 19.81C45.37 20.19 45.06 20.49 44.67 20.56C43.06 20.85 41.45 21.28 39.88 21.84C39.51 21.97 39.09 21.88 38.82 21.59L36.2 18.88C34.06 19.83 31.97 21.06 29.96 22.53L30.98 26.1C31.09 26.48 30.96 26.89 30.66 27.14C29.39 28.21 28.21 29.4 27.14 30.66C26.89 30.96 26.48 31.09 26.1 30.98L22.53 29.96C21.06 31.97 19.83 34.07 18.88 36.2L21.59 38.82C21.87 39.09 21.97 39.51 21.84 39.88C21.28 41.44 20.85 43.05 20.56 44.67C20.49 45.06 20.2 45.37 19.81 45.47L16.18 46.38C16.04 47.7 15.96 48.89 15.96 50C15.96 51.11 16.03 52.3 16.18 53.62L19.81 54.53C20.19 54.63 20.49 54.94 20.56 55.33C20.85 56.94 21.28 58.55 21.84 60.12C21.97 60.49 21.88 60.91 21.59 61.18L18.88 63.8C19.83 65.94 21.06 68.03 22.53 70.04L26.1 69.02C26.48 68.91 26.89 69.04 27.14 69.34C28.21 70.6 29.4 71.79 30.66 72.86C30.96 73.12 31.09 73.53 30.98 73.91L29.96 77.48C31.97 78.95 34.07 80.18 36.2 81.13L38.82 78.42C39.09 78.14 39.51 78.04 39.88 78.17C41.44 78.73 43.05 79.16 44.67 79.45C45.06 79.52 45.37 79.81 45.47 80.2L46.38 83.83Z" fill="#0E1721"/>
  <path d="M50 75.14C63.8844 75.14 75.14 63.8844 75.14 50C75.14 36.1155 63.8844 24.86 50 24.86C36.1155 24.86 24.86 36.1155 24.86 50C24.86 63.8844 36.1155 75.14 50 75.14Z" fill="white"/>
  <path d="M50 75.86C35.74 75.86 24.14 64.26 24.14 50C24.14 35.74 35.74 24.14 50 24.14C64.26 24.14 75.86 35.74 75.86 50C75.86 64.26 64.26 75.86 50 75.86ZM50 25.58C36.53 25.58 25.58 36.54 25.58 50C25.58 63.46 36.54 74.42 50 74.42C63.46 74.42 74.42 63.46 74.42 50C74.42 36.54 63.46 25.58 50 25.58Z" fill="#0E1721"/>
  <path d="M50.1494 30C61.2773 30 70.2996 39.0216 70.2998 50.1494C70.2998 61.2774 61.2774 70.2998 50.1494 70.2998C39.0216 70.2996 30 61.2773 30 50.1494C30.0002 39.0217 39.0217 30.0002 50.1494 30ZM47.3008 65.5576C47.139 65.6055 46.9753 65.6309 46.8262 65.6309C46.9752 65.6309 47.1391 65.6054 47.3008 65.5576ZM45.0684 65.5898L45.0674 65.5889L45.0684 65.5898ZM48.2441 64.6777C48.213 64.8788 48.1079 65.0522 47.96 65.1934C48.0192 65.1369 48.0716 65.0752 48.1152 65.0088C48.1807 64.9092 48.2265 64.7984 48.2451 64.6777H48.2441ZM44.2812 65.1934V65.1924V65.1934ZM56.3369 55.7842C55.3546 56.7981 54.0497 57.4325 52.5557 57.5127C52.7689 57.5013 52.9784 57.4788 53.1836 57.4453C53.3892 57.4117 53.5904 57.3672 53.7871 57.3125C54.4747 57.1212 55.1058 56.8044 55.6631 56.3828C55.7428 56.3225 55.8208 56.2598 55.8975 56.1953C56.0505 56.0665 56.1967 55.9289 56.3369 55.7842ZM50.9834 57.4023C51.0942 57.422 51.2045 57.4393 51.3135 57.4541C51.2045 57.4393 51.0942 57.422 50.9834 57.4023ZM57.6797 53.707H57.6807H57.6797ZM58.1816 51.7773C58.1528 52.006 58.1146 52.2305 58.0674 52.4502C58.1146 52.2305 58.1528 52.006 58.1816 51.7773ZM58.1719 42.7285L58.1709 42.7275L58.1719 42.7285ZM57.792 40.9229C57.8644 41.1414 57.9283 41.3689 57.9834 41.6055C57.9283 41.3689 57.8644 41.1414 57.792 40.9229ZM56.7344 38.9609H56.7354H56.7344ZM56.1084 38.3232H56.1094H56.1084ZM48.0615 37.8037H48.0625H48.0615ZM47.3701 37.21C47.4473 37.2445 47.5235 37.2864 47.5967 37.335C47.5235 37.2864 47.4473 37.2445 47.3701 37.21ZM53.6826 37.1465H53.6836H53.6826ZM52.71 37.002H52.7109H52.71Z" fill="#4279B6"/>
  <path d="M61.418 56.288C61.418 57.0818 60.7763 57.7302 59.9772 57.7302H41.1315C40.3384 57.7302 39.6906 57.0879 39.6906 56.288V43.9328C39.6906 43.139 40.3323 42.4907 41.1315 42.4907H54.8859V39.8245H40.5806C38.613 39.8245 37.0209 41.4182 37.0209 43.3875V56.8334C37.0209 58.8027 38.613 60.3963 40.5806 60.3963H60.5281C62.4956 60.3963 64.0878 58.8027 64.0878 56.8334V49.0349H61.418V56.288Z" fill="white"/>
  <path d="M62.7559 42.7028C63.6095 42.7028 64.2936 42.012 64.2936 41.1637C64.2936 40.3153 63.6035 39.6246 62.7559 39.6246C61.9084 39.6246 61.2183 40.3153 61.2183 41.1637C61.2183 42.012 61.9084 42.7028 62.7559 42.7028Z" fill="white"/>
  <path d="M58.2155 42.7028C59.0691 42.7028 59.7532 42.012 59.7532 41.1637C59.7532 40.3153 59.0631 39.6246 58.2155 39.6246C57.368 39.6246 56.6779 40.3153 56.6779 41.1637C56.6779 42.012 57.368 42.7028 58.2155 42.7028Z" fill="white"/>
  <path d="M62.7559 44.157C61.9023 44.157 61.2183 44.8478 61.2183 45.6961C61.2183 46.5445 61.9084 47.2352 62.7559 47.2352C63.6035 47.2352 64.2936 46.5445 64.2936 45.6961C64.2936 44.8478 63.6035 44.157 62.7559 44.157Z" fill="white"/>
  <path d="M45.0604 49.1743C46.8221 49.1743 48.2508 50.6043 48.2508 52.3676C48.2508 54.1309 46.8221 55.5609 45.0604 55.5609C43.2987 55.5609 41.87 54.1309 41.87 52.3676C41.87 50.6043 43.2987 49.1743 45.0604 49.1743Z" fill="white"/>
  <path d="M89.0499 21.18C94.6998 21.18 99.2799 16.5998 99.2799 10.95C99.2799 5.3001 94.6998 0.719971 89.0499 0.719971C83.4001 0.719971 78.8199 5.3001 78.8199 10.95C78.8199 16.5998 83.4001 21.18 89.0499 21.18Z" fill="#3C8645"/>
  <path d="M89.05 21.9C83.01 21.9 78.1 16.99 78.1 10.95C78.1 4.91 83.01 0 89.05 0C95.09 0 100 4.91 100 10.95C100 16.99 95.09 21.9 89.05 21.9ZM89.05 1.44C83.81 1.44 79.54 5.71 79.54 10.95C79.54 16.19 83.81 20.46 89.05 20.46C94.29 20.46 98.56 16.19 98.56 10.95C98.56 5.71 94.29 1.44 89.05 1.44Z" fill="#0E1721"/>
  <path fill-rule="evenodd" clip-rule="evenodd" d="M94.35 16.39H83.75C83.84 15.07 84.41 13.88 85.29 13C86.25 12.04 87.58 11.44 89.04 11.44C90.51 11.44 91.83 12.04 92.79 13C93.67 13.88 94.24 15.07 94.33 16.39H94.35Z" fill="#0E1721"/>
  <path fill-rule="evenodd" clip-rule="evenodd" d="M92.1701 8.22998C92.1701 8.65998 92.0801 9.06998 91.9301 9.44999C91.7701 9.81998 91.5401 10.16 91.2601 10.44C90.6901 11 89.9201 11.35 89.0501 11.35C88.1901 11.35 87.41 11 86.84 10.44C86.27 9.86998 85.9301 9.08998 85.9301 8.22998C85.9301 7.36998 86.28 6.58999 86.84 6.01999C87.41 5.45999 88.1901 5.10999 89.0501 5.10999C89.9101 5.10999 90.6901 5.45999 91.2601 6.01999C91.8201 6.58999 92.1701 7.36998 92.1701 8.22998Z" fill="#0E1721"/>
  <path d="M10.95 21.18C16.5998 21.18 21.18 16.5998 21.18 10.95C21.18 5.3001 16.5998 0.719971 10.95 0.719971C5.3001 0.719971 0.719971 5.3001 0.719971 10.95C0.719971 16.5998 5.3001 21.18 10.95 21.18Z" fill="#FCCD2A"/>
  <path d="M10.95 21.9C4.91 21.9 0 16.99 0 10.95C0 4.91 4.91 0 10.95 0C16.99 0 21.9 4.91 21.9 10.95C21.9 16.99 16.99 21.9 10.95 21.9ZM10.95 1.44C5.71 1.44 1.44 5.71 1.44 10.95C1.44 16.19 5.71 20.46 10.95 20.46C16.19 20.46 20.46 16.19 20.46 10.95C20.46 5.71 16.19 1.44 10.95 1.44Z" fill="#0E1721"/>
  <path fill-rule="evenodd" clip-rule="evenodd" d="M16.25 16.39H5.65002C5.74002 15.07 6.31002 13.88 7.19002 13C8.15002 12.04 9.48002 11.44 10.94 11.44C12.41 11.44 13.73 12.04 14.69 13C15.57 13.88 16.14 15.07 16.23 16.39H16.25Z" fill="#0E1721"/>
  <path fill-rule="evenodd" clip-rule="evenodd" d="M14.0701 8.22998C14.0701 8.65998 13.9801 9.06998 13.8301 9.44999C13.6701 9.81998 13.4401 10.16 13.1601 10.44C12.5901 11 11.8201 11.35 10.9501 11.35C10.0901 11.35 9.31008 11 8.74008 10.44C8.17008 9.86998 7.83008 9.08998 7.83008 8.22998C7.83008 7.36998 8.18008 6.58999 8.74008 6.01999C9.31008 5.45999 10.0901 5.10999 10.9501 5.10999C11.8101 5.10999 12.5901 5.45999 13.1601 6.01999C13.7201 6.58999 14.0701 7.36998 14.0701 8.22998Z" fill="#0E1721"/>
  <path d="M89.0499 99.2799C94.6998 99.2799 99.2799 94.6998 99.2799 89.0499C99.2799 83.4001 94.6998 78.8199 89.0499 78.8199C83.4001 78.8199 78.8199 83.4001 78.8199 89.0499C78.8199 94.6998 83.4001 99.2799 89.0499 99.2799Z" fill="#4279B6"/>
  <path d="M89.05 100C83.01 100 78.1 95.09 78.1 89.05C78.1 83.01 83.01 78.1 89.05 78.1C95.09 78.1 100 83.01 100 89.05C100 95.09 95.09 100 89.05 100ZM89.05 79.54C83.81 79.54 79.54 83.81 79.54 89.05C79.54 94.29 83.81 98.56 89.05 98.56C94.29 98.56 98.56 94.29 98.56 89.05C98.56 83.81 94.29 79.54 89.05 79.54Z" fill="#0E1721"/>
  <path fill-rule="evenodd" clip-rule="evenodd" d="M94.35 94.49H83.75C83.84 93.17 84.41 91.98 85.29 91.1C86.25 90.14 87.58 89.54 89.04 89.54C90.51 89.54 91.83 90.14 92.79 91.1C93.67 91.98 94.24 93.17 94.33 94.49H94.35Z" fill="#0E1721"/>
  <path fill-rule="evenodd" clip-rule="evenodd" d="M92.1701 86.34C92.1701 86.77 92.0801 87.18 91.9301 87.56C91.7701 87.93 91.5401 88.27 91.2601 88.55C90.6901 89.11 89.9201 89.46 89.0501 89.46C88.1901 89.46 87.41 89.11 86.84 88.55C86.27 87.98 85.9301 87.2 85.9301 86.34C85.9301 85.48 86.28 84.7 86.84 84.13C87.41 83.57 88.1901 83.22 89.0501 83.22C89.9101 83.22 90.6901 83.57 91.2601 84.13C91.8201 84.7 92.1701 85.48 92.1701 86.34Z" fill="#0E1721"/>
  <path d="M10.95 99.2799C16.5998 99.2799 21.18 94.6998 21.18 89.0499C21.18 83.4001 16.5998 78.8199 10.95 78.8199C5.3001 78.8199 0.719971 83.4001 0.719971 89.0499C0.719971 94.6998 5.3001 99.2799 10.95 99.2799Z" fill="#FC8B27"/>
  <path d="M10.95 100C4.91 100 0 95.09 0 89.05C0 83.01 4.91 78.1 10.95 78.1C16.99 78.1 21.9 83.01 21.9 89.05C21.9 95.09 16.99 100 10.95 100ZM10.95 79.54C5.71 79.54 1.44 83.81 1.44 89.05C1.44 94.29 5.71 98.56 10.95 98.56C16.19 98.56 20.46 94.29 20.46 89.05C20.46 83.81 16.19 79.54 10.95 79.54Z" fill="#0E1721"/>
  <path fill-rule="evenodd" clip-rule="evenodd" d="M16.25 94.49H5.65002C5.74002 93.17 6.31002 91.98 7.19002 91.1C8.15002 90.14 9.48002 89.54 10.94 89.54C12.41 89.54 13.73 90.14 14.69 91.1C15.57 91.98 16.14 93.17 16.23 94.49H16.25Z" fill="#0E1721"/>
  <path fill-rule="evenodd" clip-rule="evenodd" d="M14.0701 86.34C14.0701 86.77 13.9801 87.18 13.8301 87.56C13.6701 87.93 13.4401 88.27 13.1601 88.55C12.5901 89.11 11.8201 89.46 10.9501 89.46C10.0901 89.46 9.31008 89.11 8.74008 88.55C8.17008 87.98 7.83008 87.2 7.83008 86.34C7.83008 85.48 8.18008 84.7 8.74008 84.13C9.31008 83.57 10.0901 83.22 10.9501 83.22C11.8101 83.22 12.5901 83.57 13.1601 84.13C13.7201 84.7 14.0701 85.48 14.0701 86.34Z" fill="#0E1721"/>
</svg>
