<svg xmlns="http://www.w3.org/2000/svg" width="100" height="100" viewBox="0 0 100 100" fill="none">
  <path d="M85.22 45.92C85.17 45.51 84.87 45.16 84.46 45.06L80.81 44.15C80.53 42.64 80.12 41.14 79.61 39.67L82.34 37.03C82.64 36.74 82.73 36.29 82.56 35.9C81.51 33.48 80.13 31.12 78.45 28.86C78.2 28.53 77.76 28.38 77.36 28.49L73.78 29.51C73.43 29.11 73.07 28.72 72.71 28.34C72.38 27.99 72.04 27.65 71.69 27.32C71.3 26.94 70.9 26.57 70.48 26.22L71.5 22.64C71.62 22.24 71.47 21.8 71.13 21.55C68.87 19.87 66.51 18.49 64.09 17.44C63.71 17.28 63.25 17.37 62.96 17.66L60.32 20.39C58.85 19.88 57.35 19.47 55.84 19.19L54.92 15.54C54.82 15.13 54.47 14.83 54.06 14.78C52.57 14.61 51.23 14.52 49.98 14.52C48.73 14.52 47.39 14.6 45.9 14.78C45.49 14.83 45.14 15.13 45.04 15.54L44.13 19.19C42.62 19.48 41.12 19.88 39.65 20.39L37.01 17.66C36.72 17.36 36.26 17.27 35.88 17.44C33.46 18.49 31.1 19.87 28.84 21.55C28.51 21.8 28.36 22.24 28.47 22.64L29.49 26.22C29.17 26.5 28.85 26.78 28.54 27.08C28.19 27.41 27.85 27.75 27.51 28.09C27.06 28.55 26.61 29.03 26.19 29.52L22.61 28.5C22.21 28.38 21.77 28.53 21.52 28.87C19.84 31.12 18.46 33.49 17.41 35.91C17.25 36.3 17.34 36.75 17.64 37.04L20.37 39.68C19.86 41.15 19.45 42.65 19.17 44.16L15.52 45.07C15.11 45.17 14.81 45.52 14.76 45.93C14.59 47.42 14.5 48.76 14.5 50.01C14.5 51.26 14.58 52.59 14.76 54.09C14.81 54.5 15.11 54.85 15.52 54.95L19.17 55.86C19.45 57.37 19.86 58.87 20.37 60.34L17.64 62.98C17.34 63.27 17.25 63.72 17.42 64.11C18.47 66.53 19.85 68.89 21.53 71.15C21.78 71.48 22.22 71.63 22.62 71.52L26.2 70.5C26.56 70.91 26.93 71.31 27.31 71.71C27.64 72.06 27.98 72.4 28.33 72.73C28.71 73.1 29.1 73.46 29.5 73.8L28.48 77.38C28.36 77.78 28.51 78.22 28.85 78.47C31.11 80.15 33.47 81.53 35.89 82.58C36.27 82.75 36.73 82.65 37.02 82.36L39.66 79.63C41.13 80.14 42.63 80.55 44.14 80.83L45.05 84.48C45.15 84.89 45.5 85.19 45.91 85.24C47.4 85.41 48.74 85.5 49.99 85.5C51.24 85.5 52.57 85.41 54.07 85.24C54.48 85.19 54.83 84.89 54.93 84.48L55.85 80.83C57.36 80.54 58.86 80.14 60.33 79.63L62.97 82.36C63.26 82.66 63.72 82.75 64.1 82.58C66.52 81.53 68.88 80.15 71.14 78.47C71.47 78.22 71.62 77.78 71.51 77.38L70.49 73.8C70.98 73.38 71.45 72.93 71.92 72.48C72.27 72.14 72.6 71.8 72.93 71.45C73.22 71.14 73.51 70.83 73.79 70.5L77.37 71.52C77.77 71.64 78.21 71.49 78.46 71.15C80.14 68.9 81.52 66.53 82.57 64.11C82.74 63.72 82.64 63.27 82.35 62.98L79.62 60.34C80.13 58.87 80.54 57.37 80.82 55.86L84.47 54.95C84.87 54.85 85.18 54.5 85.23 54.09C85.4 52.6 85.49 51.26 85.49 50.01C85.49 48.76 85.4 47.42 85.23 45.93L85.22 45.92ZM83.83 53.62L80.19 54.53C79.81 54.63 79.52 54.94 79.45 55.33C79.16 56.95 78.73 58.55 78.17 60.12C78.03 60.49 78.13 60.91 78.41 61.18L81.12 63.81C80.17 65.95 78.94 68.04 77.47 70.05L73.9 69.03C73.52 68.92 73.11 69.05 72.86 69.35C71.79 70.61 70.6 71.8 69.34 72.87C69.04 73.13 68.91 73.54 69.02 73.92L70.04 77.49C68.03 78.96 65.93 80.19 63.8 81.14L61.18 78.43C60.9 78.15 60.49 78.05 60.11 78.19C58.55 78.75 56.94 79.18 55.32 79.47C54.93 79.54 54.62 79.84 54.52 80.22L53.61 83.86C52.29 84 51.11 84.08 49.99 84.08C48.87 84.08 47.69 84.01 46.37 83.86L45.46 80.23C45.36 79.85 45.05 79.55 44.66 79.48C43.05 79.19 41.44 78.76 39.87 78.2C39.5 78.06 39.08 78.16 38.81 78.44L36.18 81.15C34.04 80.2 31.95 78.97 29.94 77.5L30.96 73.93C31.07 73.55 30.94 73.14 30.64 72.88C30.16 72.48 29.7 72.05 29.24 71.61C28.96 71.34 28.68 71.07 28.41 70.79C27.96 70.33 27.53 69.85 27.11 69.36C26.85 69.06 26.44 68.93 26.06 69.04L22.49 70.06C21.02 68.05 19.79 65.95 18.84 63.82L21.55 61.19C21.83 60.92 21.93 60.5 21.8 60.13C21.24 58.57 20.8 56.96 20.52 55.34C20.45 54.95 20.16 54.64 19.77 54.54L16.13 53.63C15.99 52.31 15.92 51.12 15.92 50.01C15.92 48.9 15.99 47.71 16.13 46.39L19.77 45.48C20.15 45.38 20.44 45.07 20.52 44.68C20.81 43.06 21.24 41.46 21.8 39.89C21.93 39.52 21.83 39.1 21.55 38.83L18.84 36.2C19.79 34.06 21.02 31.97 22.49 29.96L26.06 30.98C26.44 31.09 26.85 30.96 27.11 30.66C27.71 29.95 28.35 29.26 29.02 28.61C29.02 28.61 29.02 28.61 29.03 28.6C29.54 28.1 30.07 27.62 30.62 27.15C30.92 26.89 31.05 26.48 30.94 26.1L29.92 22.53C31.93 21.06 34.03 19.83 36.16 18.88L38.79 21.59C39.06 21.87 39.48 21.97 39.85 21.83C41.41 21.27 43.03 20.84 44.64 20.55C45.03 20.48 45.34 20.18 45.44 19.8L46.35 16.16C47.67 16.02 48.85 15.95 49.97 15.95C51.09 15.95 52.27 16.02 53.59 16.16L54.5 19.79C54.6 20.17 54.91 20.47 55.3 20.54C56.92 20.83 58.52 21.26 60.09 21.82C60.46 21.96 60.88 21.86 61.16 21.58L63.78 18.87C65.92 19.82 68.02 21.05 70.02 22.52L69 26.08C68.89 26.46 69.01 26.87 69.32 27.13C70.58 28.2 71.77 29.38 72.84 30.65C73.09 30.95 73.51 31.08 73.88 30.97L77.45 29.95C78.92 31.96 80.15 34.06 81.1 36.19L78.39 38.82C78.11 39.09 78.01 39.51 78.15 39.88C78.71 41.44 79.14 43.05 79.43 44.67C79.5 45.06 79.79 45.37 80.18 45.47L83.81 46.38C83.95 47.7 84.03 48.89 84.03 50C84.03 51.11 83.96 52.29 83.81 53.62H83.83Z" fill="#4279B6"/>
  <path d="M50 24.14C35.74 24.14 24.14 35.74 24.14 50C24.14 64.26 35.74 75.86 50 75.86C64.26 75.86 75.86 64.26 75.86 50C75.86 35.74 64.26 24.14 50 24.14ZM50 74.42C36.53 74.42 25.58 63.46 25.58 50C25.58 36.54 36.53 25.58 50 25.58C63.47 25.58 74.42 36.54 74.42 50C74.42 63.46 63.46 74.42 50 74.42Z" fill="#4279B6"/>
  <path d="M28.34 72.71C27.99 72.38 27.65 72.04 27.32 71.69L18.17 80.84C16.24 79.14 13.71 78.11 10.94 78.11C4.89999 78.11 -0.0100098 83.02 -0.0100098 89.06C-0.0100098 95.1 4.89999 100.01 10.94 100.01C16.98 100.01 21.89 95.1 21.89 89.06C21.89 86.31 20.87 83.79 19.19 81.87L28.34 72.72V72.71ZM20.46 89.05C20.46 94.29 16.19 98.56 10.95 98.56C5.70999 98.56 1.43999 94.29 1.43999 89.05C1.43999 83.81 5.69999 79.54 10.95 79.54C16.2 79.54 20.46 83.81 20.46 89.05Z" fill="#2D557F"/>
  <path d="M89.0499 0C83.0099 0 78.0999 4.91 78.0999 10.95C78.0999 13.72 79.1399 16.25 80.8399 18.18L71.6899 27.33C72.0399 27.66 72.3799 28 72.7099 28.35L81.8599 19.2C83.7899 20.88 86.2999 21.9 89.0499 21.9C95.0899 21.9 99.9999 16.99 99.9999 10.95C99.9999 4.91 95.0899 0 89.0499 0ZM89.0499 20.46C86.6399 20.46 84.4299 19.56 82.7499 18.07C82.4699 17.82 82.2099 17.56 81.9599 17.28C80.4599 15.6 79.5399 13.38 79.5399 10.95C79.5399 5.71 83.8099 1.44 89.0499 1.44C94.2899 1.44 98.5599 5.71 98.5599 10.95C98.5599 16.19 94.2899 20.46 89.0499 20.46Z" fill="#2D557F"/>
  <path d="M92.81 13C91.85 12.04 90.52 11.44 89.06 11.44C87.59 11.44 86.27 12.04 85.31 13C84.43 13.88 83.86 15.07 83.77 16.39H94.37C94.28 15.07 93.71 13.88 92.83 13H92.81Z" fill="#2D557F"/>
  <path d="M89.0499 11.36C89.9099 11.36 90.6899 11.01 91.2599 10.45C91.5399 10.17 91.7699 9.83 91.9299 9.46C92.0899 9.09 92.1699 8.67 92.1699 8.24C92.1699 7.37999 91.8199 6.6 91.2599 6.03C90.6899 5.47 89.9099 5.12 89.0499 5.12C88.1899 5.12 87.4099 5.47 86.8399 6.03C86.2699 6.6 85.9299 7.37999 85.9299 8.24C85.9299 9.1 86.2799 9.87999 86.8399 10.45C87.4099 11.01 88.1899 11.36 89.0499 11.36Z" fill="#2D557F"/>
  <path d="M19.39 17.91C20.95 16.02 21.89 13.59 21.89 10.95C21.89 4.91 16.98 0 10.95 0C4.92 0 0 4.91 0 10.95C0 16.99 4.91 21.9 10.95 21.9C13.83 21.9 16.45 20.78 18.41 18.96L27.54 28.09C27.88 27.75 28.22 27.41 28.57 27.08L19.4 17.91H19.39ZM10.95 20.46C5.71 20.46 1.44 16.19 1.44 10.95C1.44 5.71 5.7 1.44 10.95 1.44C16.2 1.44 20.46 5.71 20.46 10.95C20.46 16.19 16.19 20.46 10.95 20.46Z" fill="#2D557F"/>
  <path d="M10.95 11.44C9.48003 11.44 8.16003 12.04 7.20003 13C6.32003 13.88 5.75003 15.07 5.66003 16.39H16.26C16.17 15.07 15.6 13.88 14.72 13C13.76 12.04 12.43 11.44 10.97 11.44H10.95Z" fill="#2D557F"/>
  <path d="M10.95 11.36C11.81 11.36 12.59 11.01 13.16 10.45C13.44 10.17 13.67 9.83 13.83 9.46C13.99 9.09 14.07 8.67 14.07 8.24C14.07 7.37999 13.72 6.6 13.16 6.03C12.59 5.47 11.81 5.12 10.95 5.12C10.09 5.12 9.30996 5.47 8.73996 6.03C8.16996 6.6 7.82996 7.37999 7.82996 8.24C7.82996 9.1 8.17996 9.87999 8.73996 10.45C9.30996 11.01 10.09 11.36 10.95 11.36Z" fill="#2D557F"/>
  <path d="M89.05 78.1C86.41 78.1 83.99 79.04 82.09 80.6L72.92 71.43C72.59 71.78 72.26 72.12 71.91 72.46L81.05 81.59C79.22 83.55 78.1 86.17 78.1 89.05C78.1 95.09 83.01 100 89.05 100C95.09 100 100 95.09 100 89.05C100 83.01 95.09 78.1 89.05 78.1ZM89.05 98.56C83.81 98.56 79.54 94.29 79.54 89.05C79.54 83.81 83.81 79.54 89.05 79.54C94.29 79.54 98.56 83.81 98.56 89.05C98.56 94.29 94.29 98.56 89.05 98.56Z" fill="#2D557F"/>
  <path d="M89.05 89.54C87.58 89.54 86.26 90.14 85.3 91.1C84.42 91.98 83.85 93.17 83.76 94.49H94.36C94.27 93.17 93.7 91.98 92.82 91.1C91.86 90.14 90.53 89.54 89.07 89.54H89.05Z" fill="#2D557F"/>
  <path d="M89.0499 89.46C89.9099 89.46 90.6899 89.11 91.2599 88.55C91.5399 88.27 91.7699 87.93 91.9299 87.56C92.0899 87.19 92.1699 86.77 92.1699 86.34C92.1699 85.48 91.8199 84.7 91.2599 84.13C90.6899 83.57 89.9099 83.22 89.0499 83.22C88.1899 83.22 87.4099 83.57 86.8399 84.13C86.2699 84.7 85.9299 85.48 85.9299 86.34C85.9299 87.2 86.2799 87.98 86.8399 88.55C87.4099 89.11 88.1899 89.46 89.0499 89.46Z" fill="#2D557F"/>
  <path d="M10.95 89.54C9.48003 89.54 8.16003 90.14 7.20003 91.1C6.32003 91.98 5.75003 93.17 5.66003 94.49H16.26C16.17 93.17 15.6 91.98 14.72 91.1C13.76 90.14 12.43 89.54 10.97 89.54H10.95Z" fill="#2D557F"/>
  <path d="M10.95 89.46C11.81 89.46 12.59 89.11 13.16 88.55C13.44 88.27 13.67 87.93 13.83 87.56C13.99 87.19 14.07 86.77 14.07 86.34C14.07 85.48 13.72 84.7 13.16 84.13C12.59 83.57 11.81 83.22 10.95 83.22C10.09 83.22 9.30996 83.57 8.73996 84.13C8.16996 84.7 7.82996 85.48 7.82996 86.34C7.82996 87.2 8.17996 87.98 8.73996 88.55C9.30996 89.11 10.09 89.46 10.95 89.46Z" fill="#2D557F"/>
  <path d="M50.1494 30C61.2773 30 70.2996 39.0216 70.2998 50.1494C70.2998 61.2774 61.2774 70.2998 50.1494 70.2998C39.0216 70.2996 30 61.2773 30 50.1494C30.0002 39.0217 39.0217 30.0002 50.1494 30ZM47.3008 65.5576C47.139 65.6055 46.9753 65.6309 46.8262 65.6309C46.9752 65.6309 47.1391 65.6054 47.3008 65.5576ZM45.0684 65.5898L45.0674 65.5889L45.0684 65.5898ZM48.2441 64.6777C48.213 64.8788 48.1079 65.0522 47.96 65.1934C48.0192 65.1369 48.0716 65.0752 48.1152 65.0088C48.1807 64.9092 48.2265 64.7984 48.2451 64.6777H48.2441ZM44.2812 65.1934V65.1924V65.1934ZM56.3369 55.7842C55.3546 56.7981 54.0497 57.4325 52.5557 57.5127C52.7689 57.5013 52.9784 57.4788 53.1836 57.4453C53.3892 57.4117 53.5904 57.3672 53.7871 57.3125C54.4747 57.1212 55.1058 56.8044 55.6631 56.3828C55.7428 56.3225 55.8208 56.2598 55.8975 56.1953C56.0505 56.0665 56.1967 55.9289 56.3369 55.7842ZM50.9834 57.4023C51.0942 57.422 51.2045 57.4393 51.3135 57.4541C51.2045 57.4393 51.0942 57.422 50.9834 57.4023ZM57.6797 53.707H57.6807H57.6797ZM58.1816 51.7773C58.1528 52.006 58.1146 52.2305 58.0674 52.4502C58.1146 52.2305 58.1528 52.006 58.1816 51.7773ZM58.1719 42.7285L58.1709 42.7275L58.1719 42.7285ZM57.792 40.9229C57.8644 41.1414 57.9283 41.3689 57.9834 41.6055C57.9283 41.3689 57.8644 41.1414 57.792 40.9229ZM56.7344 38.9609H56.7354H56.7344ZM56.1084 38.3232H56.1094H56.1084ZM48.0615 37.8037H48.0625H48.0615ZM47.3701 37.21C47.4473 37.2445 47.5235 37.2864 47.5967 37.335C47.5235 37.2864 47.4473 37.2445 47.3701 37.21ZM53.6826 37.1465H53.6836H53.6826ZM52.71 37.002H52.7109H52.71Z" fill="#4279B6"/>
  <path d="M61.418 56.288C61.418 57.0818 60.7763 57.7302 59.9772 57.7302H41.1315C40.3384 57.7302 39.6906 57.0879 39.6906 56.288V43.9328C39.6906 43.139 40.3323 42.4907 41.1315 42.4907H54.8859V39.8245H40.5806C38.613 39.8245 37.0209 41.4182 37.0209 43.3875V56.8334C37.0209 58.8027 38.613 60.3963 40.5806 60.3963H60.5281C62.4956 60.3963 64.0878 58.8027 64.0878 56.8334V49.0349H61.418V56.288Z" fill="white"/>
  <path d="M62.7559 42.7028C63.6095 42.7028 64.2936 42.012 64.2936 41.1637C64.2936 40.3153 63.6035 39.6246 62.7559 39.6246C61.9084 39.6246 61.2183 40.3153 61.2183 41.1637C61.2183 42.012 61.9084 42.7028 62.7559 42.7028Z" fill="white"/>
  <path d="M58.2155 42.7028C59.0691 42.7028 59.7532 42.012 59.7532 41.1637C59.7532 40.3153 59.0631 39.6246 58.2155 39.6246C57.368 39.6246 56.6779 40.3153 56.6779 41.1637C56.6779 42.012 57.368 42.7028 58.2155 42.7028Z" fill="white"/>
  <path d="M62.7559 44.157C61.9023 44.157 61.2183 44.8478 61.2183 45.6961C61.2183 46.5445 61.9084 47.2352 62.7559 47.2352C63.6035 47.2352 64.2936 46.5445 64.2936 45.6961C64.2936 44.8478 63.6035 44.157 62.7559 44.157Z" fill="white"/>
  <path d="M45.0604 49.1743C46.8221 49.1743 48.2508 50.6043 48.2508 52.3676C48.2508 54.1309 46.8221 55.5609 45.0604 55.5609C43.2987 55.5609 41.87 54.1309 41.87 52.3676C41.87 50.6043 43.2987 49.1743 45.0604 49.1743Z" fill="white"/>
</svg>
