<svg xmlns="http://www.w3.org/2000/svg" width="100" height="100" viewBox="0 0 100 100" fill="none">
  <path d="M15.6199 47.42C15.5099 47.45 15.4199 47.55 15.4099 47.66C15.2599 48.95 15.1599 50.26 15.1599 51.59C15.1599 52.92 15.2599 54.23 15.4099 55.52C15.4199 55.64 15.5099 55.73 15.6199 55.76L19.4799 56.73C19.5899 56.76 19.6699 56.84 19.6899 56.95C19.9899 58.61 20.4199 60.22 20.9799 61.77C21.0199 61.87 20.9899 61.99 20.9099 62.07L18.0299 64.85C17.9399 64.93 17.9199 65.06 17.9699 65.17C19.0199 67.59 20.3699 69.85 21.9299 71.95C21.9999 72.05 22.1199 72.09 22.2399 72.05L26.0299 70.97C26.1399 70.94 26.2499 70.97 26.3199 71.06C27.3999 72.34 28.5899 73.52 29.8599 74.6C29.9399 74.67 29.9799 74.79 29.9499 74.89L28.8699 78.68C28.8399 78.79 28.8699 78.92 28.9699 78.99C31.0599 80.55 33.3199 81.9 35.7499 82.95C35.8599 83 35.9899 82.97 36.0699 82.89L38.8499 80.01C38.9299 79.93 39.0399 79.9 39.1499 79.94C40.6999 80.5 42.3099 80.93 43.9699 81.23C44.0799 81.25 44.1699 81.33 44.1899 81.44L45.1599 85.3C45.1899 85.41 45.2899 85.5 45.3999 85.51C46.6899 85.66 47.9999 85.76 49.3299 85.76C50.6599 85.76 51.9699 85.66 53.2599 85.51C53.3799 85.5 53.4699 85.41 53.4999 85.3L54.4699 81.44C54.4999 81.33 54.5799 81.25 54.6899 81.23C56.3499 80.93 57.9599 80.5 59.5099 79.94C59.6099 79.9 59.7299 79.93 59.8099 80.01L62.5899 82.89C62.6699 82.98 62.7999 83 62.9099 82.95C65.3299 81.9 67.5899 80.55 69.6899 78.99C69.7899 78.92 69.8299 78.8 69.7899 78.68L68.7099 74.89C68.6799 74.78 68.7099 74.67 68.7999 74.6C70.0799 73.52 71.2599 72.33 72.3399 71.06C72.4099 70.98 72.5299 70.94 72.6299 70.97L76.4199 72.05C76.5299 72.08 76.6599 72.05 76.7299 71.95C78.2899 69.86 79.6399 67.6 80.6899 65.17C80.7399 65.06 80.7099 64.93 80.6299 64.85L77.7499 62.07C77.6699 61.99 77.6399 61.88 77.6799 61.77C78.2399 60.22 78.6699 58.61 78.9699 56.95C78.9899 56.84 79.0699 56.75 79.1799 56.73L83.0399 55.76C83.1499 55.73 83.2399 55.63 83.2499 55.52C83.3999 54.23 83.4999 52.92 83.4999 51.59C83.4999 50.26 83.3999 48.95 83.2499 47.66C83.2399 47.54 83.1499 47.45 83.0399 47.42L79.1799 46.45C79.0699 46.42 78.9899 46.34 78.9699 46.23C78.6699 44.57 78.2399 42.96 77.6799 41.41C77.6399 41.31 77.6699 41.19 77.7499 41.11L80.6299 38.33C80.7199 38.25 80.7399 38.12 80.6899 38.01C79.6399 35.59 78.2899 33.33 76.7299 31.23C76.6599 31.13 76.5399 31.09 76.4199 31.13L72.6299 32.21C72.5199 32.24 72.4099 32.21 72.3399 32.12C71.2599 30.84 70.0699 29.66 68.7999 28.58C68.7199 28.51 68.6799 28.39 68.7099 28.29L69.7899 24.5C69.8199 24.39 69.7899 24.26 69.6899 24.19C67.5999 22.63 65.3399 21.28 62.9099 20.23C62.7999 20.18 62.6699 20.21 62.5899 20.29L59.8099 23.17C59.7299 23.25 59.6199 23.28 59.5099 23.24C57.9599 22.68 56.3499 22.25 54.6899 21.95C54.5799 21.93 54.4899 21.85 54.4699 21.74L53.4999 17.88C53.4699 17.77 53.3699 17.68 53.2599 17.67C51.9699 17.52 50.6599 17.42 49.3299 17.42C47.9999 17.42 46.6899 17.52 45.3999 17.67C45.2799 17.68 45.1899 17.77 45.1599 17.88L44.1899 21.74C44.1599 21.85 44.0799 21.93 43.9699 21.95C42.3099 22.25 40.6999 22.68 39.1499 23.24C39.0499 23.28 38.9299 23.25 38.8499 23.17L36.0699 20.29C35.9899 20.2 35.8599 20.18 35.7499 20.23C33.3299 21.28 31.0699 22.63 28.9699 24.19C28.8699 24.26 28.8299 24.38 28.8699 24.5L29.9499 28.29C29.9799 28.4 29.9499 28.51 29.8599 28.58C28.5799 29.66 27.3999 30.85 26.3199 32.12C26.2499 32.2 26.1299 32.24 26.0299 32.21L22.2399 31.13C22.1299 31.1 21.9999 31.13 21.9299 31.23C20.3699 33.32 19.0199 35.58 17.9699 38.01C17.9199 38.12 17.9499 38.25 18.0299 38.33L20.9099 41.11C20.9899 41.19 21.0199 41.3 20.9799 41.41C20.4199 42.96 19.9899 44.57 19.6899 46.23C19.6699 46.34 19.5899 46.43 19.4799 46.45L15.6199 47.42Z" fill="#4279B6"/>
  <path d="M49.32 86.47C48.09 86.47 46.78 86.39 45.31 86.22C44.9 86.17 44.5599 85.87 44.4599 85.47L43.56 81.88C42.08 81.6 40.6 81.2 39.16 80.7L36.57 83.38C36.2799 83.68 35.8399 83.77 35.4599 83.6C33.09 82.57 30.76 81.21 28.54 79.56C28.21 79.31 28.07 78.89 28.18 78.49L29.19 74.97C28.04 73.97 26.95 72.89 25.95 71.73L22.43 72.74C22.04 72.85 21.61 72.71 21.36 72.38C19.71 70.16 18.35 67.84 17.32 65.46C17.16 65.08 17.25 64.64 17.54 64.35L20.22 61.76C19.72 60.32 19.32 58.84 19.04 57.36L15.45 56.46C15.05 56.36 14.75 56.02 14.7 55.61C14.53 54.14 14.45 52.83 14.45 51.6C14.45 50.37 14.53 49.06 14.7 47.59C14.75 47.18 15.05 46.84 15.45 46.74L19.04 45.84C19.32 44.36 19.72 42.88 20.22 41.44L17.54 38.85C17.24 38.56 17.16 38.12 17.32 37.74C18.35 35.36 19.71 33.04 21.36 30.82C21.6 30.49 22.04 30.35 22.43 30.46L25.95 31.47C26.95 30.32 28.03 29.23 29.19 28.23L28.18 24.71C28.07 24.32 28.21 23.89 28.54 23.64C30.76 21.99 33.0799 20.63 35.4599 19.6C35.8399 19.44 36.2799 19.52 36.57 19.82L39.16 22.5C40.6 22 42.08 21.6 43.56 21.32L44.4599 17.73C44.5599 17.33 44.9 17.03 45.31 16.98C46.78 16.81 48.09 16.73 49.32 16.73C50.5499 16.73 51.86 16.81 53.33 16.98C53.74 17.03 54.08 17.33 54.18 17.73L55.08 21.32C56.56 21.6 58.04 22 59.4799 22.5L62.07 19.82C62.36 19.52 62.7999 19.43 63.18 19.6C65.5499 20.63 67.8799 21.99 70.0999 23.64C70.43 23.88 70.57 24.31 70.4599 24.71L69.4499 28.23C70.6099 29.23 71.69 30.31 72.69 31.47L76.2099 30.46C76.5999 30.35 77.0299 30.49 77.2799 30.82C78.9299 33.04 80.29 35.36 81.32 37.74C81.48 38.12 81.4 38.56 81.1 38.85L78.4199 41.44C78.92 42.88 79.32 44.36 79.6 45.84L83.19 46.74C83.59 46.84 83.89 47.18 83.94 47.59C84.11 49.06 84.19 50.37 84.19 51.6C84.19 52.83 84.11 54.14 83.94 55.61C83.89 56.02 83.59 56.36 83.2 56.46L79.61 57.36C79.33 58.84 78.9299 60.32 78.43 61.76L81.11 64.35C81.41 64.64 81.5 65.08 81.33 65.46C80.3 67.83 78.9399 70.16 77.29 72.38C77.0499 72.71 76.62 72.85 76.22 72.74L72.6999 71.73C71.6999 72.88 70.6199 73.97 69.4599 74.97L70.47 78.49C70.58 78.89 70.44 79.31 70.11 79.56C67.8899 81.21 65.57 82.57 63.1899 83.6C62.8099 83.76 62.37 83.68 62.08 83.38L59.49 80.7C58.05 81.2 56.57 81.6 55.09 81.88L54.1899 85.47C54.09 85.87 53.75 86.17 53.34 86.22C51.8699 86.39 50.56 86.47 49.33 86.47H49.32ZM45.77 84.84C47.07 84.98 48.23 85.05 49.33 85.05C50.43 85.05 51.59 84.98 52.8899 84.84L53.7799 81.27C53.8699 80.89 54.18 80.61 54.56 80.54C56.15 80.25 57.7299 79.83 59.27 79.28C59.63 79.15 60.04 79.24 60.31 79.52L62.8899 82.19C64.9899 81.25 67.0499 80.05 69.0299 78.6L68.0299 75.09C67.9199 74.72 68.0499 74.31 68.3399 74.06C69.5799 73.01 70.75 71.84 71.8 70.6C72.05 70.3 72.45 70.18 72.83 70.29L76.3399 71.29C77.7899 69.31 78.99 67.25 79.93 65.15L77.26 62.57C76.98 62.3 76.8899 61.89 77.0199 61.53C77.5699 59.99 78 58.41 78.2799 56.82C78.3499 56.44 78.64 56.13 79.01 56.04L82.58 55.15C82.72 53.85 82.79 52.69 82.79 51.59C82.79 50.49 82.72 49.33 82.58 48.03L79.01 47.14C78.63 47.05 78.3499 46.74 78.2799 46.36C77.9899 44.77 77.5699 43.19 77.0199 41.65C76.8899 41.28 76.98 40.87 77.26 40.61L79.93 38.03C78.99 35.93 77.7899 33.87 76.3399 31.89L72.83 32.89C72.46 33 72.05 32.87 71.8 32.58C70.75 31.34 69.5799 30.17 68.3399 29.12C68.0399 28.87 67.9199 28.47 68.0299 28.09L69.0299 24.58C67.0599 23.13 64.9899 21.93 62.8899 20.99L60.31 23.66C60.04 23.94 59.6299 24.03 59.2599 23.9C57.7199 23.35 56.1399 22.92 54.5499 22.64C54.1699 22.57 53.8599 22.28 53.7599 21.91L52.8699 18.34C51.57 18.2 50.41 18.13 49.31 18.13C48.21 18.13 47.0499 18.2 45.75 18.34L44.86 21.91C44.77 22.29 44.4599 22.57 44.07 22.64C42.4799 22.93 40.9 23.35 39.3699 23.9C38.9999 24.03 38.59 23.94 38.32 23.66L35.74 20.99C33.64 21.93 31.58 23.13 29.6 24.58L30.6 28.09C30.71 28.46 30.58 28.87 30.29 29.12C29.05 30.17 27.88 31.34 26.83 32.58C26.58 32.88 26.17 33 25.8 32.89L22.29 31.89C20.84 33.87 19.64 35.93 18.7 38.03L21.37 40.61C21.65 40.88 21.74 41.29 21.61 41.66C21.06 43.19 20.63 44.78 20.35 46.36C20.28 46.74 19.99 47.05 19.62 47.14L16.05 48.03C15.91 49.33 15.84 50.49 15.84 51.59C15.84 52.69 15.91 53.85 16.05 55.15L19.62 56.04C20 56.13 20.28 56.44 20.35 56.82C20.64 58.41 21.06 59.99 21.61 61.53C21.74 61.9 21.65 62.31 21.37 62.58L18.7 65.16C19.64 67.26 20.84 69.32 22.29 71.3L25.8 70.3C26.17 70.19 26.57 70.32 26.83 70.61C27.88 71.85 29.05 73.02 30.29 74.07C30.59 74.32 30.71 74.72 30.6 75.1L29.6 78.61C31.57 80.06 33.64 81.26 35.74 82.2L38.32 79.53C38.59 79.25 38.9999 79.16 39.3699 79.29C40.91 79.84 42.49 80.27 44.07 80.55C44.4499 80.62 44.76 80.91 44.86 81.28L45.75 84.85L45.77 84.84Z" fill="#0E1721"/>
  <path d="M49.3199 76.3C62.9668 76.3 74.0299 65.237 74.0299 51.59C74.0299 37.943 62.9668 26.88 49.3199 26.88C35.6729 26.88 24.6099 37.943 24.6099 51.59C24.6099 65.237 35.6729 76.3 49.3199 76.3Z" fill="white"/>
  <path d="M49.3199 77.01C35.2999 77.01 23.8999 65.61 23.8999 51.59C23.8999 37.57 35.2999 26.17 49.3199 26.17C63.3399 26.17 74.7399 37.57 74.7399 51.59C74.7399 65.61 63.3399 77.01 49.3199 77.01ZM49.3199 27.59C36.0799 27.59 25.3199 38.36 25.3199 51.59C25.3199 64.82 36.0899 75.59 49.3199 75.59C62.5499 75.59 73.3199 64.82 73.3199 51.59C73.3199 38.36 62.5499 27.59 49.3199 27.59Z" fill="#0E1721"/>
  <path d="M49.3199 67.78C58.2614 67.78 65.5099 60.5315 65.5099 51.59C65.5099 42.6485 58.2614 35.4 49.3199 35.4C40.3784 35.4 33.1299 42.6485 33.1299 51.59C33.1299 60.5315 40.3784 67.78 49.3199 67.78Z" fill="#4279B6"/>
  <path d="M49.3199 68.49C39.9999 68.49 32.4199 60.91 32.4199 51.59C32.4199 42.27 39.9999 34.69 49.3199 34.69C58.6399 34.69 66.2199 42.27 66.2199 51.59C66.2199 60.91 58.6399 68.49 49.3199 68.49ZM49.3199 36.1C40.7799 36.1 33.8299 43.05 33.8299 51.59C33.8299 60.13 40.7799 67.08 49.3199 67.08C57.8599 67.08 64.8099 60.13 64.8099 51.59C64.8099 43.05 57.8599 36.1 49.3199 36.1Z" fill="#0E1721"/>
  <path d="M55.7899 55.81C55.7899 52.19 52.2599 51.08 49.6799 50.26C47.4199 49.55 46.0499 49.04 46.0499 48.05C46.0499 47.18 46.0499 45.57 49.2599 45.57C52.1999 45.57 52.4999 47.7 52.5399 48.13C52.5799 48.9 53.2399 49.5 54.0199 49.46C54.7999 49.42 55.3999 48.76 55.3599 47.98C55.2799 46.37 54.1699 43.48 50.6699 42.86V41.48C50.6699 40.7 50.0399 40.07 49.2599 40.07C48.4799 40.07 47.8499 40.7 47.8499 41.48V42.84C44.8899 43.27 43.2299 45.12 43.2299 48.05C43.2299 51.19 46.3399 52.17 48.8399 52.96C51.4099 53.77 52.9699 54.37 52.9699 55.81C52.9699 57.86 49.2999 57.96 49.2599 57.96C49.2199 57.96 45.5099 57.81 45.5099 55.45C45.5099 54.67 44.8799 54.04 44.0999 54.04C43.3199 54.04 42.6899 54.67 42.6899 55.45C42.6899 58.67 45.4599 60.22 47.8599 60.65V62.07C47.8599 62.85 48.4899 63.48 49.2699 63.48C50.0499 63.48 50.6799 62.85 50.6799 62.07V60.67C52.9599 60.31 55.7999 59.02 55.7999 55.81H55.7899Z" fill="white"/>
  <path d="M49.26 63.91C48.25 63.91 47.42 63.08 47.42 62.07V61C44.86 60.43 42.25 58.71 42.25 55.45C42.25 54.44 43.08 53.61 44.09 53.61C45.1 53.61 45.93 54.44 45.93 55.45C45.93 57.37 49.24 57.53 49.27 57.53C49.29 57.53 52.54 57.42 52.54 55.81C52.54 54.75 51.41 54.22 48.7 53.37C46.21 52.58 42.79 51.51 42.79 48.06C42.79 45.07 44.47 43.05 47.41 42.49V41.49C47.41 40.48 48.24 39.65 49.25 39.65C50.26 39.65 51.09 40.48 51.09 41.49V42.52C54.61 43.32 55.7 46.29 55.78 47.97C55.83 48.98 55.05 49.85 54.03 49.9C53.02 49.95 52.16 49.17 52.1 48.17C52.06 47.67 51.75 46.01 49.25 46.01C46.47 46.01 46.47 47.2 46.47 48.07C46.47 48.77 47.85 49.26 49.8 49.87C52.35 50.67 56.21 51.89 56.21 55.82C56.21 58.48 54.3 60.41 51.09 61.03V62.08C51.09 63.09 50.26 63.92 49.25 63.92L49.26 63.91ZM44.09 54.46C43.54 54.46 43.1 54.9 43.1 55.45C43.1 58.33 45.59 59.81 47.92 60.24C48.12 60.28 48.27 60.45 48.27 60.66V62.08C48.27 62.63 48.71 63.07 49.26 63.07C49.81 63.07 50.25 62.63 50.25 62.08V60.68C50.25 60.47 50.4 60.29 50.61 60.26C52.04 60.03 55.37 59.14 55.37 55.82C55.37 52.5 52.15 51.5 49.55 50.68C47.44 50.02 45.62 49.44 45.62 48.07C45.62 47.2 45.62 45.17 49.25 45.17C51.82 45.17 52.85 46.76 52.95 48.12C52.98 48.67 53.45 49.08 53.99 49.06C54.54 49.03 54.96 48.57 54.93 48.02C54.86 46.54 53.86 43.88 50.59 43.3C50.39 43.26 50.24 43.09 50.24 42.88V41.5C50.24 40.95 49.8 40.51 49.25 40.51C48.7 40.51 48.26 40.95 48.26 41.5V42.86C48.26 43.07 48.11 43.25 47.9 43.28C45.15 43.68 43.64 45.38 43.64 48.07C43.64 50.9 46.46 51.79 48.95 52.57C51.23 53.29 53.38 53.97 53.38 55.82C53.38 58.32 49.29 58.39 49.25 58.39C49.25 58.39 48.24 58.36 47.22 58C45.45 57.37 45.07 56.27 45.07 55.46C45.07 54.91 44.63 54.47 44.08 54.47L44.09 54.46Z" fill="#0E1721"/>
  <path d="M87.4099 78.41C86.8499 77.99 86.0499 78.11 85.6299 78.68C77.1199 90.17 63.5099 97.03 49.2299 97.03C36.2199 97.03 24.1999 91.63 15.6199 82.09L18.1899 82.93C18.8599 83.15 19.5799 82.78 19.7899 82.11C20.0099 81.44 19.6399 80.72 18.9699 80.51L12.2699 78.33C12.2099 78.31 12.1399 78.3 12.0799 78.29C12.0699 78.29 12.0499 78.29 12.0399 78.29C11.9699 78.29 11.8899 78.28 11.8199 78.28C11.7499 78.28 11.6799 78.3 11.6099 78.31C11.5999 78.31 11.5799 78.31 11.5699 78.32C11.4999 78.34 11.4299 78.36 11.3699 78.39C11.3599 78.39 11.3399 78.4 11.3299 78.41C11.2599 78.44 11.1899 78.48 11.1299 78.53C11.0699 78.58 11.0099 78.63 10.9599 78.69C10.9499 78.7 10.9399 78.71 10.9299 78.72C10.8799 78.77 10.8399 78.83 10.8099 78.89C10.8099 78.9 10.7899 78.92 10.7899 78.93C10.7599 78.99 10.7299 79.05 10.6999 79.12C10.6799 79.19 10.6599 79.26 10.6499 79.33C10.6499 79.35 10.6499 79.36 10.6499 79.38C10.6499 79.44 10.6399 79.51 10.6399 79.57L10.8099 86.61C10.8299 87.3 11.3899 87.85 12.0799 87.85C12.0899 87.85 12.0999 87.85 12.1099 87.85C12.8099 87.83 13.3699 87.25 13.3499 86.55L13.2699 83.24C17.2499 87.78 22.0899 91.58 27.4499 94.33C34.2399 97.82 41.5799 99.58 49.2599 99.58C56.9399 99.58 64.3199 97.8 71.1199 94.3C77.6099 90.96 83.3399 86.08 87.6999 80.2C88.1199 79.63 87.9999 78.84 87.4299 78.42L87.4099 78.41Z" fill="#3C8645"/>
  <path d="M49.2299 100C41.4799 100 34.0799 98.22 27.2299 94.7C22.2199 92.13 17.5599 88.57 13.6999 84.37L13.7499 86.54C13.7599 86.99 13.5899 87.42 13.2799 87.75C12.9699 88.08 12.5399 88.26 12.0899 88.28H12.0499C11.1399 88.28 10.3699 87.54 10.3499 86.62L10.1799 79.58C10.1799 79.5 10.1799 79.42 10.1999 79.32V79.27C10.2299 79.15 10.2499 79.06 10.2799 78.98C10.2799 78.98 10.2799 78.97 10.2799 78.96C10.3099 78.88 10.3499 78.8 10.3899 78.72L10.4199 78.66C10.4699 78.58 10.5299 78.5 10.5899 78.43L10.6199 78.4C10.7099 78.31 10.7799 78.24 10.8599 78.18C10.9399 78.12 11.0199 78.07 11.1299 78.02C11.1499 78.01 11.1699 78 11.1799 77.99C11.2699 77.95 11.3599 77.92 11.4499 77.9H11.4999C11.6099 77.86 11.6999 77.85 11.7799 77.85C11.7799 77.85 11.7899 77.85 11.7999 77.85C11.8899 77.85 11.9899 77.85 12.0899 77.86H12.1499C12.2499 77.88 12.3299 77.9 12.3999 77.93L19.0999 80.11C19.9899 80.4 20.4799 81.36 20.1899 82.25C19.8999 83.14 18.9399 83.63 18.0499 83.34L17.0299 83.01C25.4999 91.8 36.8699 96.62 49.2099 96.62C63.3599 96.62 76.8299 89.82 85.2599 78.44C85.5299 78.08 85.9299 77.84 86.3699 77.77C86.8199 77.7 87.2699 77.81 87.6299 78.09C88.3799 78.65 88.5399 79.71 87.9799 80.46C83.5899 86.39 77.7999 91.31 71.2599 94.68C64.3999 98.22 56.9699 100.01 49.1999 100.01L49.2299 100ZM13.2499 82.81C13.3699 82.81 13.4899 82.86 13.5699 82.95C17.5099 87.44 22.3699 91.24 27.6199 93.94C34.3499 97.39 41.6199 99.15 49.2299 99.15C56.8399 99.15 64.1599 97.39 70.8999 93.92C77.3299 90.61 83.0099 85.77 87.3299 79.95C87.6099 79.57 87.5299 79.04 87.1499 78.76C86.9699 78.63 86.7399 78.57 86.5199 78.6C86.2999 78.63 86.0999 78.75 85.9599 78.93C77.3699 90.53 63.6399 97.45 49.2199 97.45C36.0799 97.45 24.0299 92.09 15.2999 82.37C15.1699 82.23 15.1599 82.02 15.2599 81.86C15.3599 81.7 15.5699 81.63 15.7499 81.69L18.3199 82.53C18.7699 82.67 19.2499 82.43 19.3899 81.98C19.5299 81.53 19.2899 81.05 18.8499 80.91L12.1499 78.73C12.1499 78.73 12.0699 78.71 12.0199 78.7H11.9899C11.9399 78.7 11.8999 78.69 11.8499 78.7C11.8399 78.7 11.8299 78.7 11.8199 78.7C11.7899 78.7 11.7499 78.71 11.6999 78.72H11.6699C11.6699 78.72 11.5799 78.75 11.5399 78.77C11.4599 78.81 11.4199 78.83 11.3799 78.86C11.3499 78.89 11.3099 78.92 11.2699 78.96L10.9299 78.7L11.2499 78.98C11.2499 78.98 11.1899 79.05 11.1699 79.09L11.1599 79.12C11.1399 79.16 11.1199 79.2 11.0999 79.25C11.0999 79.25 11.0999 79.25 11.0999 79.26C11.0899 79.3 11.0799 79.35 11.0699 79.39V79.42C11.0699 79.46 11.0699 79.51 11.0699 79.55L11.2399 86.59C11.2499 87.05 11.6299 87.42 12.0899 87.42C12.3399 87.42 12.5499 87.32 12.6999 87.16C12.8599 87 12.9399 86.78 12.9299 86.55L12.8499 83.24C12.8499 83.06 12.9499 82.9 13.1199 82.83C13.1699 82.81 13.2199 82.8 13.2699 82.8L13.2499 82.81Z" fill="#0E1721"/>
  <path d="M3.97004 51.77C3.97004 29.59 20.22 10.75 41.69 7.13L39.61 8.84C39.07 9.29 38.99 10.09 39.44 10.63C39.69 10.94 40.06 11.09 40.42 11.09C40.7 11.09 40.99 10.99 41.23 10.8L46.67 6.32C46.72 6.28 46.77 6.23 46.81 6.18C46.82 6.17 46.83 6.16 46.84 6.14C46.89 6.08 46.93 6.03 46.96 5.96C46.99 5.9 47.02 5.84 47.05 5.77C47.05 5.75 47.06 5.74 47.07 5.72C47.09 5.65 47.11 5.58 47.12 5.51C47.12 5.5 47.12 5.48 47.12 5.46C47.12 5.38 47.13 5.31 47.12 5.23C47.12 5.15 47.1 5.08 47.08 5C47.08 4.99 47.08 4.97 47.07 4.96C47.05 4.89 47.02 4.83 46.99 4.76C46.99 4.74 46.97 4.73 46.96 4.71C46.93 4.65 46.89 4.6 46.85 4.55C46.85 4.55 46.84 4.53 46.83 4.52C46.79 4.47 46.74 4.42 46.7 4.38C46.68 4.37 46.67 4.35 46.65 4.34C46.6 4.3 46.55 4.26 46.5 4.23H46.49C46.49 4.23 46.48 4.21 46.47 4.21L40.48 0.579997C39.88 0.209997 39.1 0.409997 38.73 1.01C38.37 1.61 38.56 2.39 39.16 2.76L41.99 4.48C31.41 6.08 21.68 11.19 14.29 19.1C6.00004 28.01 1.42004 39.6 1.42004 51.77C1.42004 59.82 3.46004 67.79 7.32004 74.8C7.55004 75.22 7.99004 75.46 8.44004 75.46C8.65004 75.46 8.86004 75.41 9.05004 75.3C9.67004 74.96 9.89004 74.19 9.55004 73.57C5.89004 66.93 3.96004 59.39 3.96004 51.77H3.97004Z" fill="#FC8B27"/>
  <path d="M8.43999 75.88C7.81999 75.88 7.24999 75.54 6.94999 75C3.04999 67.93 0.98999 59.89 0.98999 51.76C0.98999 39.49 5.59999 27.79 13.98 18.83C21.1 11.21 30.58 6.07 40.79 4.27L38.94 3.15C38.55 2.91 38.28 2.54 38.17 2.1C38.06 1.66 38.13 1.2 38.37 0.820004C38.61 0.430004 38.98 0.160004 39.42 0.0500037C39.86 -0.0599963 40.32 0.0100037 40.7 0.250004L46.69 3.88L46.5 4.26L46.72 3.9C46.79 3.94 46.86 3.99 46.92 4.04C46.94 4.06 46.97 4.08 46.99 4.1C47.06 4.16 47.12 4.23 47.17 4.29L47.2 4.33C47.24 4.39 47.29 4.46 47.34 4.54C47.36 4.57 47.37 4.59 47.37 4.61C47.41 4.69 47.44 4.78 47.47 4.87C47.47 4.89 47.48 4.91 47.49 4.93C47.52 5.04 47.54 5.14 47.54 5.23C47.54 5.32 47.54 5.43 47.54 5.54V5.6C47.52 5.69 47.5 5.78 47.47 5.87L47.45 5.92C47.41 6.03 47.37 6.11 47.33 6.18C47.33 6.18 47.33 6.18 47.33 6.19C47.28 6.28 47.23 6.35 47.16 6.43L47.12 6.48C47.06 6.55 47 6.61 46.93 6.66L41.49 11.13C41.19 11.38 40.8 11.52 40.41 11.52C39.9 11.52 39.42 11.29 39.1 10.9C38.51 10.18 38.61 9.1 39.33 8.51L40.13 7.85C30.43 9.86 21.59 15.11 15.09 22.76C8.19999 30.88 4.39999 41.18 4.39999 51.77C4.39999 59.32 6.30999 66.79 9.92999 73.37C10.15 73.77 10.2 74.23 10.07 74.66C9.93999 75.1 9.65999 75.46 9.25999 75.67C9.00999 75.81 8.72999 75.88 8.43999 75.88ZM39.84 0.850004C39.77 0.850004 39.7 0.850004 39.64 0.870004C39.42 0.920004 39.23 1.06 39.12 1.25C39 1.44 38.97 1.67 39.02 1.89C39.07 2.11 39.21 2.3 39.4 2.41L42.23 4.13C42.38 4.22 42.46 4.4 42.43 4.58C42.4 4.76 42.25 4.89 42.08 4.92C31.63 6.5 21.88 11.65 14.62 19.41C6.37999 28.22 1.84999 39.71 1.84999 51.77C1.84999 59.75 3.86999 67.65 7.69999 74.6C7.84999 74.87 8.12999 75.04 8.44999 75.04C8.58999 75.04 8.72999 75 8.85999 74.93C9.05999 74.82 9.19999 74.64 9.26999 74.42C9.32999 74.2 9.30999 73.97 9.19999 73.77C5.50999 67.07 3.55999 59.46 3.55999 51.76C3.55999 40.98 7.42999 30.48 14.47 22.21C21.46 13.99 31.11 8.49 41.63 6.71C41.82 6.68 42.01 6.78 42.09 6.95C42.17 7.12 42.12 7.33 41.97 7.45L39.89 9.16C39.71 9.3 39.61 9.51 39.58 9.73C39.56 9.96 39.63 10.18 39.77 10.35C40.06 10.7 40.61 10.76 40.96 10.47L46.4 5.99C46.4 5.99 46.46 5.93 46.49 5.9L46.51 5.87C46.54 5.84 46.56 5.8 46.59 5.76C46.59 5.75 46.6 5.74 46.61 5.73C46.62 5.71 46.64 5.67 46.66 5.62L47.08 5.72L46.68 5.59C46.68 5.59 46.71 5.5 46.71 5.45V5.42C46.71 5.36 46.71 5.31 46.71 5.27C46.71 5.23 46.7 5.18 46.68 5.12L47.08 4.98L46.67 5.09C46.67 5.09 46.64 5 46.62 4.96L46.6 4.93C46.58 4.89 46.56 4.85 46.53 4.82C46.49 4.77 46.46 4.74 46.43 4.71L46.4 4.68C46.4 4.68 46.34 4.63 46.3 4.61C46.3 4.61 46.28 4.6 46.28 4.59L40.28 0.950004C40.15 0.870004 39.99 0.830004 39.84 0.830004V0.850004Z" fill="#0E1721"/>
  <path d="M97.55 70.47C97.24 69.84 96.48 69.57 95.85 69.88L92.86 71.33C95.6 65.21 97.04 58.52 97.04 51.76C97.04 39.59 92.4701 28 84.16 19.12C75.9 10.28 64.72 4.93999 52.69 4.07999C51.99 4.02999 51.38 4.55999 51.33 5.25999C51.28 5.95999 51.81 6.56999 52.51 6.61999C76.05 8.30999 94.49 28.14 94.49 51.76C94.49 57.91 93.23 64.01 90.82 69.62L90.51 66.95C90.43 66.25 89.8 65.75 89.1 65.83C88.4 65.91 87.9 66.54 87.98 67.24L88.79 74.24C88.79 74.3 88.81 74.37 88.83 74.43C88.83 74.45 88.83 74.46 88.84 74.47C88.86 74.54 88.89 74.61 88.92 74.67C88.95 74.73 88.99 74.79 89.03 74.84C89.04 74.85 89.05 74.87 89.06 74.88C89.1 74.93 89.15 74.98 89.21 75.03C89.22 75.04 89.24 75.05 89.25 75.06C89.31 75.11 89.37 75.15 89.43 75.19C89.62 75.3 89.83 75.35 90.04 75.35C90.04 75.35 90.05 75.35 90.06 75.35C90.1 75.35 90.15 75.35 90.19 75.35C90.21 75.35 90.23 75.35 90.24 75.35C90.27 75.35 90.31 75.34 90.34 75.33C90.36 75.33 90.38 75.32 90.4 75.31C90.43 75.31 90.46 75.29 90.49 75.28C90.51 75.28 90.53 75.26 90.55 75.25C90.56 75.25 90.58 75.25 90.59 75.23L96.93 72.15C97.56 71.84 97.83 71.08 97.52 70.45L97.55 70.47Z" fill="#FCCD2A"/>
  <path d="M90.06 75.81C89.78 75.81 89.49 75.74 89.25 75.6C89.25 75.6 89.24 75.6 89.23 75.59C89.16 75.55 89.08 75.5 89 75.43L88.95 75.39C88.88 75.33 88.81 75.26 88.75 75.19C88.75 75.18 88.73 75.16 88.72 75.15C88.65 75.06 88.6 74.98 88.56 74.91C88.51 74.82 88.48 74.73 88.45 74.63L88.43 74.57C88.4 74.48 88.39 74.4 88.38 74.32L87.57 67.32C87.46 66.39 88.13 65.55 89.06 65.44C89.51 65.39 89.95 65.51 90.31 65.79C90.67 66.07 90.89 66.48 90.94 66.93L91.06 67.95C93.03 62.82 94.07 57.27 94.07 51.78C94.07 28.37 75.8 8.73 52.49 7.06C52.04 7.03 51.63 6.82 51.33 6.48C51.03 6.14 50.89 5.7 50.92 5.25C50.95 4.8 51.16 4.38 51.5 4.09C51.84 3.79 52.28 3.65 52.73 3.68C64.87 4.55 76.14 9.94 84.48 18.86C92.86 27.82 97.47 39.52 97.47 51.79C97.47 58.16 96.17 64.59 93.71 70.47L95.67 69.52C96.08 69.32 96.54 69.29 96.96 69.44C97.39 69.59 97.74 69.89 97.93 70.3C98.13 70.71 98.16 71.17 98.01 71.6C97.86 72.03 97.56 72.37 97.15 72.57L90.81 75.65C90.81 75.65 90.77 75.67 90.76 75.67C90.74 75.68 90.71 75.69 90.68 75.7C90.64 75.72 90.6 75.73 90.56 75.74C90.53 75.74 90.51 75.76 90.48 75.76C90.43 75.77 90.39 75.78 90.35 75.79C90.32 75.79 90.3 75.79 90.28 75.8C90.22 75.8 90.16 75.81 90.1 75.81C90.09 75.81 90.08 75.81 90.07 75.81H90.06ZM89.67 74.86C89.79 74.92 89.92 74.96 90.06 74.96C90.1 74.96 90.13 74.96 90.16 74.96C90.16 74.96 90.19 74.96 90.2 74.96C90.22 74.96 90.24 74.96 90.27 74.95H90.3C90.3 74.95 90.35 74.93 90.37 74.92L90.41 74.9C90.41 74.9 90.44 74.89 90.45 74.89L96.78 71.81C97.2 71.61 97.38 71.1 97.17 70.68C97.07 70.48 96.9 70.32 96.68 70.25C96.47 70.18 96.24 70.19 96.03 70.29L93.04 71.74C92.88 71.82 92.69 71.79 92.56 71.66C92.43 71.54 92.4 71.34 92.47 71.18C95.18 65.12 96.62 58.42 96.62 51.79C96.62 39.73 92.09 28.24 83.86 19.44C75.67 10.68 64.59 5.38 52.67 4.53C52.45 4.51 52.22 4.59 52.05 4.73C51.88 4.88 51.78 5.08 51.76 5.31C51.74 5.54 51.82 5.76 51.97 5.93C52.12 6.1 52.32 6.2 52.55 6.22C76.31 7.92 94.92 27.94 94.92 51.79C94.92 57.94 93.64 64.18 91.22 69.82C91.14 70 90.96 70.1 90.77 70.07C90.58 70.04 90.43 69.89 90.41 69.7L90.1 67.03C90.07 66.8 89.96 66.6 89.78 66.46C89.6 66.32 89.38 66.26 89.16 66.28C88.93 66.31 88.73 66.42 88.59 66.6C88.45 66.78 88.39 67 88.41 67.22L89.22 74.22C89.22 74.22 89.23 74.3 89.25 74.35V74.38C89.26 74.42 89.28 74.47 89.3 74.51C89.3 74.51 89.3 74.52 89.3 74.53C89.32 74.57 89.35 74.61 89.37 74.65L89.06 74.94L89.39 74.68C89.39 74.68 89.45 74.75 89.49 74.78L89.51 74.8C89.56 74.84 89.6 74.86 89.63 74.89C89.63 74.89 89.64 74.89 89.65 74.9L89.67 74.86Z" fill="#0E1721"/>
</svg>
