<svg xmlns="http://www.w3.org/2000/svg" width="100" height="100" viewBox="0 0 100 100" fill="none">
  <path d="M49.7401 87.5C48.4901 87.5 47.1701 87.42 45.6801 87.24C45.2701 87.19 44.9201 86.89 44.8201 86.49L43.9101 82.86C42.4101 82.58 40.9101 82.17 39.4501 81.66L36.8301 84.37C36.5401 84.67 36.0901 84.76 35.7101 84.59C33.3101 83.55 30.9501 82.17 28.7101 80.5C28.3801 80.25 28.2301 79.82 28.3401 79.42L29.3601 75.85C28.1901 74.84 27.0901 73.74 26.0801 72.57L22.5101 73.59C22.1101 73.7 21.6801 73.56 21.4301 73.22C19.7601 70.98 18.3801 68.62 17.3401 66.22C17.1701 65.84 17.2601 65.39 17.5601 65.1L20.2701 62.48C19.7601 61.02 19.3601 59.52 19.0701 58.02L15.4401 57.11C15.0401 57.01 14.7301 56.66 14.6901 56.25C14.5201 54.77 14.4301 53.44 14.4301 52.19C14.4301 50.94 14.5101 49.62 14.6901 48.13C14.7401 47.72 15.0401 47.37 15.4401 47.27L19.0701 46.36C19.3501 44.86 19.7601 43.36 20.2701 41.9L17.5601 39.28C17.2601 38.99 17.1701 38.54 17.3401 38.16C18.3801 35.76 19.7601 33.4 21.4301 31.16C21.6801 30.83 22.1201 30.68 22.5101 30.79L26.0801 31.81C27.0901 30.64 28.1901 29.54 29.3601 28.53L28.3401 24.96C28.2301 24.56 28.3701 24.13 28.7101 23.88C30.9501 22.21 33.3101 20.83 35.7101 19.79C36.0901 19.62 36.5401 19.71 36.8301 20.01L39.4501 22.72C40.9101 22.21 42.4101 21.81 43.9101 21.52L44.8201 17.89C44.9201 17.49 45.2701 17.18 45.6801 17.14C47.1701 16.97 48.4901 16.88 49.7401 16.88C50.9901 16.88 52.3101 16.96 53.8001 17.14C54.2101 17.19 54.5601 17.49 54.6601 17.89L55.5701 21.52C57.0701 21.8 58.5701 22.21 60.0301 22.72L62.6501 20.01C62.9401 19.71 63.3901 19.62 63.7701 19.79C66.1701 20.83 68.53 22.21 70.7701 23.88C71.1001 24.13 71.2501 24.56 71.1401 24.96L70.1201 28.53C71.2901 29.54 72.3901 30.64 73.4001 31.81L76.9701 30.79C77.3701 30.68 77.8001 30.82 78.0501 31.15C79.7201 33.39 81.1001 35.75 82.1401 38.15C82.3101 38.53 82.2201 38.98 81.9201 39.27L79.2101 41.89C79.7201 43.35 80.1201 44.85 80.4101 46.35L84.0401 47.26C84.4401 47.36 84.7501 47.71 84.7901 48.12C84.9601 49.61 85.0501 50.93 85.0501 52.18C85.0501 53.43 84.9701 54.75 84.7901 56.24C84.7401 56.65 84.4401 57 84.0401 57.1L80.4101 58.01C80.1301 59.51 79.7201 61.01 79.2101 62.47L81.9201 65.09C82.2201 65.38 82.3101 65.83 82.1401 66.21C81.1001 68.61 79.7201 70.97 78.0501 73.21C77.8001 73.54 77.3701 73.69 76.9701 73.58L73.4001 72.56C72.3901 73.73 71.2901 74.83 70.1201 75.84L71.1401 79.41C71.2501 79.81 71.1101 80.24 70.7701 80.49C68.53 82.16 66.1701 83.54 63.7701 84.58C63.3901 84.75 62.9401 84.66 62.6501 84.36L60.0301 81.65C58.5701 82.16 57.0701 82.56 55.5701 82.85L54.6601 86.48C54.5601 86.88 54.2101 87.19 53.8001 87.23C52.3101 87.4 50.9901 87.49 49.7401 87.49V87.5ZM46.1401 85.85C47.4501 85.99 48.6301 86.06 49.7401 86.06C50.8501 86.06 52.0301 85.99 53.3401 85.85L54.2401 82.23C54.3401 81.85 54.6501 81.56 55.0301 81.49C56.6401 81.2 58.2401 80.77 59.7901 80.21C60.1601 80.08 60.5801 80.17 60.8501 80.46L63.4601 83.16C65.5901 82.21 67.6701 80.99 69.6701 79.53L68.6601 75.98C68.5501 75.6 68.6801 75.19 68.9801 74.94C70.2401 73.87 71.4201 72.7 72.4801 71.44C72.7301 71.14 73.14 71.02 73.5201 71.12L77.0701 72.13C78.5401 70.13 79.76 68.04 80.7001 65.92L78.0001 63.31C77.7201 63.04 77.6201 62.62 77.7501 62.25C78.3101 60.69 78.7401 59.09 79.0301 57.49C79.1001 57.1 79.3901 56.79 79.7701 56.7L83.3901 55.79C83.5301 54.48 83.6001 53.3 83.6001 52.19C83.6001 51.08 83.5301 49.9 83.3901 48.59L79.7701 47.69C79.3901 47.59 79.1001 47.28 79.0301 46.9C78.7401 45.3 78.3101 43.69 77.7501 42.14C77.6201 41.77 77.7101 41.35 78.0001 41.08L80.7001 38.47C79.7501 36.35 78.5301 34.26 77.0701 32.26L73.5201 33.27C73.14 33.38 72.7401 33.25 72.4801 32.95C71.4101 31.69 70.2301 30.51 68.9801 29.45C68.6801 29.2 68.5601 28.79 68.6601 28.41L69.6701 24.86C67.6701 23.39 65.5801 22.17 63.4601 21.23L60.8501 23.93C60.5801 24.21 60.1601 24.31 59.7901 24.18C58.2301 23.62 56.6301 23.19 55.0301 22.9C54.6401 22.83 54.3301 22.54 54.2401 22.16L53.3401 18.54C52.0301 18.4 50.8501 18.33 49.7401 18.33C48.6301 18.33 47.4501 18.4 46.1401 18.54L45.2401 22.16C45.1401 22.54 44.8301 22.83 44.4501 22.9C42.8401 23.19 41.2401 23.62 39.6901 24.18C39.3201 24.31 38.9001 24.22 38.6301 23.93L36.0201 21.23C33.9001 22.18 31.8101 23.4 29.8101 24.86L30.8201 28.41C30.9301 28.79 30.8001 29.19 30.5001 29.45C29.2401 30.52 28.0601 31.69 27.0001 32.95C26.7501 33.25 26.3401 33.37 25.9601 33.27L22.4101 32.26C20.9501 34.26 19.7201 36.35 18.7801 38.47L21.4801 41.08C21.7601 41.35 21.8601 41.77 21.7301 42.14C21.1701 43.7 20.7401 45.3 20.4501 46.9C20.3801 47.29 20.0901 47.6 19.7101 47.69L16.0901 48.59C15.9501 49.9 15.8801 51.08 15.8801 52.19C15.8801 53.3 15.9501 54.48 16.0901 55.79L19.7101 56.69C20.0901 56.79 20.3801 57.1 20.4501 57.48C20.7401 59.08 21.1701 60.69 21.7301 62.24C21.8601 62.61 21.7701 63.02 21.4801 63.3L18.7801 65.91C19.7301 68.04 20.9501 70.12 22.4101 72.12L25.9601 71.11C26.3401 71 26.7401 71.13 27.0001 71.43C28.0701 72.69 29.2401 73.87 30.5001 74.93C30.8001 75.18 30.9201 75.59 30.8201 75.97L29.8101 79.52C31.8101 80.99 33.9001 82.21 36.0201 83.15L38.6301 80.45C38.9001 80.17 39.3201 80.07 39.6901 80.2C41.2501 80.76 42.8501 81.19 44.4501 81.48C44.8401 81.55 45.1501 81.84 45.2401 82.22L46.1401 85.84V85.85Z" fill="#4279B6"/>
  <path d="M49.74 77.92C35.55 77.92 24.01 66.38 24.01 52.19C24.01 38 35.55 26.46 49.74 26.46C63.93 26.46 75.47 38 75.47 52.19C75.47 66.38 63.93 77.92 49.74 77.92ZM49.74 27.89C36.34 27.89 25.44 38.79 25.44 52.19C25.44 65.59 36.34 76.49 49.74 76.49C63.14 76.49 74.04 65.59 74.04 52.19C74.04 38.79 63.14 27.89 49.74 27.89Z" fill="#4279B6"/>
  <path d="M49.74 69.3C40.31 69.3 32.63 61.62 32.63 52.19C32.63 42.76 40.31 35.08 49.74 35.08C59.17 35.08 66.85 42.76 66.85 52.19C66.85 61.62 59.17 69.3 49.74 69.3ZM49.74 36.51C41.1 36.51 34.06 43.54 34.06 52.19C34.06 60.84 41.09 67.87 49.74 67.87C58.39 67.87 65.42 60.84 65.42 52.19C65.42 43.54 58.39 36.51 49.74 36.51Z" fill="#2D557F"/>
  <path d="M56.29 56.46C56.29 52.8 52.71 51.67 50.1 50.85C47.81 50.13 46.42 49.62 46.42 48.61C46.42 47.73 46.42 46.1 49.67 46.1C52.64 46.1 52.95 48.25 52.99 48.69C53.04 49.47 53.7 50.08 54.49 50.04C55.28 50 55.89 49.33 55.85 48.54C55.77 46.91 54.65 43.98 51.1 43.36V41.96C51.1 41.17 50.46 40.53 49.67 40.53C48.88 40.53 48.24 41.17 48.24 41.96V43.33C45.25 43.77 43.56 45.63 43.56 48.6C43.56 51.78 46.71 52.77 49.24 53.57C51.84 54.39 53.42 54.99 53.42 56.45C53.42 58.53 49.71 58.62 49.67 58.62C49.63 58.62 45.87 58.47 45.87 56.08C45.87 55.29 45.23 54.65 44.44 54.65C43.65 54.65 43.01 55.29 43.01 56.08C43.01 59.34 45.82 60.91 48.24 61.35V62.79C48.24 63.58 48.88 64.22 49.67 64.22C50.46 64.22 51.1 63.58 51.1 62.79V61.37C53.4 61 56.28 59.7 56.28 56.45L56.29 56.46Z" fill="#4279B6"/>
  <path d="M90.33 76.6C90.21 76.6 90.08 76.57 89.97 76.5C89.63 76.3 89.51 75.86 89.71 75.52C93.79 68.5 95.95 60.47 95.95 52.31C95.95 40.5 91.5 29.26 83.42 20.65C75.38 12.08 64.51 6.94 52.83 6.15C52.44 6.12 52.14 5.78 52.16 5.39C52.19 5 52.53 4.7 52.92 4.72C64.97 5.53 76.17 10.84 84.46 19.67C92.79 28.54 97.38 40.13 97.38 52.31C97.38 60.73 95.16 69 90.95 76.24C90.82 76.47 90.58 76.6 90.33 76.6Z" fill="#2D557F"/>
  <path d="M8.99 76.49C8.74 76.49 8.5 76.36 8.37 76.13C4.21 68.92 2 60.68 2 52.31C2 40.14 6.59 28.54 14.92 19.67C23.21 10.84 34.41 5.53 46.46 4.72C46.85 4.7 47.2 4.99 47.22 5.39C47.25 5.78 46.95 6.13 46.55 6.15C34.87 6.93 24 12.08 15.96 20.65C7.88 29.26 3.43 40.5 3.43 52.31C3.43 60.43 5.56 68.42 9.6 75.41C9.8 75.75 9.68 76.19 9.34 76.39C9.23 76.46 9.1 76.49 8.98 76.49H8.99Z" fill="#2D557F"/>
  <path d="M49.6899 100C34.7099 100 20.8899 93.17 11.7799 81.25C11.5399 80.94 11.5999 80.49 11.9099 80.25C12.2199 80.01 12.6699 80.07 12.9099 80.38C21.7499 91.94 35.1499 98.57 49.6799 98.57C57.0999 98.57 64.1799 96.87 70.7299 93.51C76.9799 90.31 82.5199 85.63 86.7399 79.99C86.9799 79.67 87.4299 79.61 87.7399 79.85C88.0599 80.09 88.1199 80.54 87.8799 80.85C83.5299 86.66 77.8199 91.48 71.3799 94.78C64.6199 98.24 57.3199 100 49.6699 100H49.6899Z" fill="#2D557F"/>
  <path d="M90.3299 76.6C90.2099 76.6 90.0899 76.57 89.9799 76.51C89.8099 76.42 89.6899 76.26 89.6399 76.08L87.8499 69.64C87.7399 69.26 87.9699 68.86 88.3499 68.76C88.7299 68.65 89.1299 68.88 89.2299 69.26L90.8299 75.01L96.5799 73.41C96.9599 73.3 97.3599 73.53 97.4599 73.91C97.5699 74.29 97.3399 74.69 96.9599 74.79L90.5299 76.58C90.4699 76.6 90.3999 76.61 90.3399 76.61L90.3299 76.6Z" fill="#2D557F"/>
  <path d="M12.35 88.21C11.95 88.21 11.63 87.89 11.63 87.49V80.81C11.63 80.41 11.95 80.09 12.35 80.09H19.03C19.43 80.09 19.75 80.41 19.75 80.81C19.75 81.21 19.43 81.53 19.03 81.53H13.07V87.49C13.07 87.89 12.75 88.21 12.35 88.21Z" fill="#2D557F"/>
  <path d="M41.7801 10.88C41.6001 10.88 41.4101 10.81 41.2701 10.67C40.9901 10.39 40.9901 9.94 41.2701 9.66L45.4901 5.44L41.2701 1.22C40.9901 0.94 40.9901 0.49 41.2701 0.21C41.5501 -0.07 42.0001 -0.07 42.2801 0.21L47.0001 4.93C47.2801 5.21 47.2801 5.66 47.0001 5.94L42.2801 10.66C42.1401 10.8 41.9601 10.87 41.7701 10.87L41.7801 10.88Z" fill="#2D557F"/>
</svg>
