<svg xmlns="http://www.w3.org/2000/svg" width="100" height="100" viewBox="0 0 100 100" fill="none">
  <path d="M30.78 18.21H44.81V81.63H10.3C8.73 81.63 7.46 80.36 7.46 78.79V21.25C7.46 19.57 8.82 18.21 10.5 18.21H30.77H30.78Z" fill="white"/>
  <path d="M77.77 32.89C77.77 32.89 77.72 32.89 77.7 32.89C69.23 32.27 60.63 32 52.14 32.09C51.61 32.09 51.19 31.68 51.18 31.15C51.18 30.63 51.59 30.2 52.12 30.19C60.66 30.1 69.31 30.37 77.83 31C78.35 31.04 78.75 31.49 78.71 32.02C78.67 32.52 78.26 32.9 77.76 32.9L77.77 32.89Z" fill="#0E1721"/>
  <path d="M86.64 82.32H52.13C51.76 82.32 51.45 82.02 51.45 81.64C51.45 81.26 51.75 80.96 52.13 80.96H86.64C87.83 80.96 88.8 79.99 88.8 78.8V38.22C88.8 37.85 89.1 37.54 89.48 37.54C89.86 37.54 90.16 37.84 90.16 38.22V78.8C90.16 80.74 88.58 82.31 86.65 82.31L86.64 82.32Z" fill="#0E1721"/>
  <path d="M67.63 18.89H52.13C51.76 18.89 51.45 18.59 51.45 18.21C51.45 17.83 51.75 17.53 52.13 17.53H67.63C68 17.53 68.31 17.83 68.31 18.21C68.31 18.59 68.01 18.89 67.63 18.89Z" fill="#0E1721"/>
  <path d="M66.17 18.89H52.14C51.77 18.89 51.46 18.59 51.46 18.21C51.46 17.83 51.76 17.53 52.14 17.53H66.17C66.54 17.53 66.85 17.83 66.85 18.21C66.85 18.59 66.55 18.89 66.17 18.89Z" fill="#0E1721"/>
  <path d="M44.81 81.64H10.3C8.73 81.64 7.46 80.37 7.46 78.8V21.05C7.46 19.48 8.73 18.22 10.3 18.22H44.81V12.45H4.03C2.18 12.45 0.68 13.95 0.68 15.8V84.06C0.68 85.91 2.18 87.41 4.03 87.41H44.81V81.64Z" fill="#4279B6"/>
  <path d="M44.81 88.08H4.03C1.81 88.08 0 86.27 0 84.05V15.8C0 13.58 1.81 11.77 4.03 11.77H44.81C45.18 11.77 45.49 12.07 45.49 12.45V18.22C45.49 18.59 45.19 18.9 44.81 18.9H10.3C9.11 18.9 8.14 19.87 8.14 21.06V78.81C8.14 80 9.11 80.97 10.3 80.97H44.81C45.18 80.97 45.49 81.27 45.49 81.65V87.42C45.49 87.79 45.19 88.1 44.81 88.1V88.08ZM4.03 13.12C2.56 13.12 1.36 14.32 1.36 15.79V84.05C1.36 85.52 2.56 86.72 4.03 86.72H44.14V82.31H10.3C8.36 82.31 6.79 80.73 6.79 78.8V21.05C6.79 19.11 8.37 17.54 10.3 17.54H44.13V13.13H4.03V13.12Z" fill="#0E1721"/>
  <path d="M30.26 67.77H18.19C17.82 67.77 17.51 67.47 17.51 67.09C17.51 66.71 17.81 66.41 18.19 66.41H30.26C30.63 66.41 30.94 66.71 30.94 67.09C30.94 67.47 30.64 67.77 30.26 67.77Z" fill="#0E1721"/>
  <path d="M78.75 67.77H66.68C66.31 67.77 66 67.47 66 67.09C66 66.71 66.3 66.41 66.68 66.41H78.75C79.12 66.41 79.43 66.71 79.43 67.09C79.43 67.47 79.13 67.77 78.75 67.77Z" fill="#0E1721"/>
  <path d="M36.56 68.32C36.34 68.77 36.09 69.29 36.09 69.88C36.09 70.08 36.12 70.28 36.18 70.47C36.45 71.31 37.22 71.72 37.78 72.02C37.97 72.12 38.27 72.28 38.34 72.37C38.39 72.46 38.46 72.81 38.49 73.02C38.61 73.68 38.76 74.49 39.46 75.01C40.16 75.52 40.98 75.41 41.64 75.32C41.84 75.29 42.22 75.24 42.32 75.27C42.41 75.31 42.66 75.54 42.8 75.69C43.29 76.16 43.89 76.74 44.78 76.74V58.61C43.89 58.61 43.28 59.19 42.8 59.66C42.66 59.79 42.41 60.04 42.31 60.08C42.21 60.11 41.85 60.06 41.64 60.03C40.98 59.94 40.16 59.83 39.46 60.34C38.75 60.86 38.61 61.67 38.49 62.32C38.45 62.53 38.39 62.88 38.33 62.98C38.26 63.06 37.96 63.22 37.77 63.32C37.18 63.64 36.44 64.03 36.17 64.87C36.11 65.06 36.08 65.26 36.08 65.46C36.08 66.05 36.33 66.56 36.55 67.02C36.65 67.22 36.81 67.56 36.81 67.67C36.81 67.79 36.64 68.13 36.55 68.32H36.56Z" fill="#FCCD2A"/>
  <path d="M44.81 77.41C43.64 77.41 42.87 76.66 42.36 76.17C42.25 76.06 42.17 75.99 42.11 75.94C42.03 75.94 41.92 75.96 41.75 75.98C41.05 76.07 40 76.21 39.08 75.54C38.15 74.86 37.96 73.82 37.84 73.12C37.83 73.04 37.8 72.89 37.77 72.77C37.67 72.71 37.54 72.64 37.48 72.61C36.89 72.3 35.9 71.78 35.54 70.67C35.46 70.41 35.42 70.14 35.42 69.87C35.42 69.12 35.73 68.48 35.95 68.02C36.02 67.87 36.08 67.75 36.11 67.66C36.07 67.55 36 67.41 35.96 67.34L35.94 67.29C35.71 66.81 35.41 66.19 35.41 65.45C35.41 65.17 35.45 64.91 35.53 64.65C35.89 63.55 36.83 63.04 37.46 62.71C37.53 62.67 37.66 62.6 37.77 62.54C37.79 62.43 37.82 62.3 37.83 62.23V62.18C37.96 61.5 38.15 60.46 39.08 59.78C40.01 59.11 41.06 59.25 41.76 59.35C41.84 59.36 42 59.38 42.11 59.39C42.16 59.34 42.24 59.27 42.35 59.17C42.87 58.67 43.64 57.93 44.81 57.93C45.18 57.93 45.49 58.23 45.49 58.61V76.74C45.49 77.11 45.19 77.42 44.81 77.42V77.41ZM42.24 74.58C42.36 74.58 42.44 74.59 42.52 74.61C42.55 74.61 42.58 74.63 42.61 74.64C42.77 74.71 42.92 74.83 43.3 75.19C43.56 75.44 43.83 75.7 44.14 75.87V59.46C43.83 59.63 43.56 59.89 43.3 60.14C42.91 60.53 42.74 60.64 42.6 60.7C42.58 60.71 42.55 60.72 42.53 60.73C42.34 60.78 42.12 60.77 41.61 60.7H41.58C40.87 60.6 40.34 60.56 39.89 60.89C39.44 61.22 39.31 61.74 39.19 62.44V62.5C39.09 62.95 39.04 63.17 38.94 63.34C38.92 63.37 38.9 63.39 38.88 63.42C38.75 63.57 38.55 63.69 38.13 63.92C37.59 64.21 37.03 64.51 36.84 65.09C36.8 65.21 36.78 65.34 36.78 65.47C36.78 65.91 36.98 66.33 37.18 66.73L37.2 66.78C37.41 67.22 37.5 67.44 37.5 67.65C37.5 67.67 37.5 67.69 37.5 67.71C37.5 67.93 37.39 68.18 37.17 68.63C36.97 69.04 36.77 69.46 36.77 69.9C36.77 70.03 36.79 70.16 36.83 70.28C37.02 70.86 37.62 71.18 38.11 71.44C38.54 71.67 38.74 71.79 38.87 71.94C38.9 71.97 38.92 72 38.94 72.04C39.04 72.21 39.09 72.43 39.18 72.91C39.29 73.51 39.4 74.12 39.89 74.48C40.37 74.83 40.98 74.75 41.58 74.67C41.89 74.63 42.1 74.61 42.26 74.61L42.24 74.58Z" fill="#0E1721"/>
  <path d="M52.13 58.6V76.73C53.03 76.73 53.66 76.12 54.11 75.68C54.26 75.54 54.5 75.3 54.6 75.26C54.7 75.23 55.07 75.28 55.28 75.31C55.94 75.4 56.76 75.51 57.46 75C58.17 74.49 58.31 73.67 58.43 73.01C58.47 72.8 58.53 72.45 58.59 72.36C58.66 72.28 58.96 72.12 59.15 72.02C59.74 71.7 60.48 71.31 60.75 70.47C60.81 70.28 60.84 70.08 60.84 69.88C60.84 69.29 60.59 68.78 60.38 68.33C60.28 68.12 60.12 67.79 60.12 67.67C60.12 67.55 60.29 67.21 60.38 67.02C60.6 66.56 60.85 66.05 60.85 65.46C60.85 65.26 60.82 65.06 60.76 64.87C60.49 64.03 59.75 63.64 59.16 63.32C58.99 63.23 58.67 63.06 58.6 62.97C58.54 62.88 58.48 62.53 58.44 62.32C58.32 61.66 58.17 60.85 57.47 60.33C56.77 59.82 55.95 59.93 55.29 60.02C55.07 60.05 54.71 60.1 54.61 60.07C54.52 60.03 54.27 59.8 54.13 59.65C53.67 59.21 53.04 58.6 52.15 58.6H52.13Z" fill="#FCCD2A"/>
  <path d="M52.13 77.41C51.76 77.41 51.45 77.11 51.45 76.73V58.6C51.45 58.23 51.75 57.92 52.13 57.92C53.3 57.92 54.07 58.66 54.58 59.16C54.69 59.27 54.77 59.34 54.83 59.39C54.92 59.39 55.04 59.37 55.19 59.35C55.89 59.26 56.94 59.12 57.86 59.79C58.79 60.47 58.98 61.52 59.1 62.21C59.11 62.29 59.14 62.44 59.17 62.56C59.23 62.6 59.33 62.65 59.47 62.73C60.11 63.07 61.04 63.58 61.4 64.67C61.48 64.93 61.52 65.2 61.52 65.47C61.52 66.21 61.22 66.83 60.99 67.32C60.9 67.5 60.85 67.61 60.83 67.68C60.88 67.79 60.95 67.95 60.99 68.03C61.24 68.54 61.53 69.15 61.53 69.9C61.53 70.18 61.49 70.45 61.41 70.7C61.06 71.8 60.12 72.3 59.49 72.63C59.41 72.67 59.28 72.74 59.18 72.8C59.15 72.92 59.13 73.07 59.11 73.14C58.98 73.84 58.79 74.88 57.87 75.56C56.95 76.23 55.9 76.09 55.21 76C55.04 75.98 54.92 75.96 54.84 75.96C54.79 76.01 54.71 76.08 54.6 76.19C54.12 76.65 53.32 77.43 52.14 77.43L52.13 77.41ZM52.81 59.46V75.87C53.12 75.7 53.39 75.44 53.65 75.19C54.02 74.83 54.18 74.7 54.35 74.63C54.38 74.62 54.41 74.61 54.43 74.6C54.61 74.55 54.83 74.56 55.38 74.63C55.97 74.71 56.59 74.79 57.07 74.44C57.56 74.08 57.67 73.47 57.78 72.88C57.87 72.39 57.92 72.16 58.04 71.98C58.05 71.96 58.07 71.93 58.09 71.91C58.22 71.76 58.42 71.64 58.84 71.41C59.39 71.12 59.94 70.82 60.13 70.24C60.17 70.12 60.19 69.99 60.19 69.86C60.19 69.43 59.99 69.01 59.79 68.6C59.56 68.11 59.47 67.88 59.46 67.66C59.46 67.66 59.46 67.64 59.46 67.63C59.46 67.43 59.54 67.2 59.79 66.7C59.99 66.29 60.19 65.87 60.19 65.44C60.19 65.31 60.17 65.18 60.13 65.05C59.94 64.48 59.39 64.18 58.86 63.9C58.38 63.65 58.2 63.53 58.08 63.38C58.06 63.36 58.05 63.34 58.04 63.32C57.93 63.15 57.87 62.92 57.79 62.43C57.68 61.83 57.57 61.22 57.08 60.86C56.6 60.51 55.99 60.59 55.4 60.67C54.91 60.74 54.65 60.76 54.44 60.7C54.41 60.7 54.38 60.68 54.36 60.67C54.2 60.6 54.05 60.48 53.67 60.12C53.42 59.88 53.15 59.62 52.83 59.45L52.81 59.46Z" fill="#0E1721"/>
  <path d="M78.75 26.47H85.61V19.61H78.75V26.47Z" fill="#3C8645"/>
  <path d="M85.61 27.14H78.75C78.38 27.14 78.07 26.84 78.07 26.46V19.6C78.07 19.23 78.37 18.92 78.75 18.92H85.61C85.98 18.92 86.29 19.22 86.29 19.6V26.46C86.29 26.83 85.99 27.14 85.61 27.14ZM79.43 25.79H84.94V20.28H79.43V25.79Z" fill="#0E1721"/>
  <path d="M92.46 26.47H99.32V19.61H92.46V26.47Z" fill="#4279B6"/>
  <path d="M99.32 27.14H92.46C92.09 27.14 91.78 26.84 91.78 26.46V19.6C91.78 19.23 92.08 18.92 92.46 18.92H99.32C99.69 18.92 100 19.22 100 19.6V26.46C100 26.83 99.7 27.14 99.32 27.14ZM93.14 25.79H98.65V20.28H93.14V25.79Z" fill="#0E1721"/>
  <path d="M86.05 38.22H92.91V31.36H86.05V38.22Z" fill="#3C8645"/>
  <path d="M92.91 38.9H86.05C85.68 38.9 85.37 38.6 85.37 38.22V31.36C85.37 30.99 85.67 30.68 86.05 30.68H92.91C93.28 30.68 93.59 30.98 93.59 31.36V38.22C93.59 38.59 93.29 38.9 92.91 38.9ZM86.72 37.55H92.23V32.04H86.72V37.55Z" fill="#0E1721"/>
  <path d="M66.69 21.65H73.55V14.79H66.69V21.65Z" fill="#4279B6"/>
  <path d="M73.54 22.32H66.68C66.31 22.32 66 22.02 66 21.64V14.78C66 14.41 66.3 14.1 66.68 14.1H73.54C73.91 14.1 74.22 14.4 74.22 14.78V21.64C74.22 22.01 73.92 22.32 73.54 22.32ZM67.36 20.97H72.87V15.46H67.36V20.97Z" fill="#0E1721"/>
  <path d="M71.47 38.22H78.33V31.36H71.47V38.22Z" fill="#4279B6"/>
  <path d="M78.33 38.9H71.47C71.1 38.9 70.79 38.6 70.79 38.22V31.36C70.79 30.99 71.09 30.68 71.47 30.68H78.33C78.7 30.68 79.01 30.98 79.01 31.36V38.22C79.01 38.59 78.71 38.9 78.33 38.9ZM72.14 37.55H77.65V32.04H72.14V37.55Z" fill="#0E1721"/>
  <path d="M83.94 16.23H90.8V9.37H83.94V16.23Z" fill="#3C8645"/>
  <path d="M90.8 16.9H83.94C83.57 16.9 83.26 16.6 83.26 16.22V9.36C83.26 8.99 83.56 8.68 83.94 8.68H90.8C91.17 8.68 91.48 8.98 91.48 9.36V16.22C91.48 16.59 91.18 16.9 90.8 16.9ZM84.62 15.55H90.13V10.04H84.62V15.55Z" fill="#0E1721"/>
  <path d="M77.86 41.86H52.13C51.76 41.86 51.45 41.56 51.45 41.18C51.45 40.8 51.75 40.5 52.13 40.5H77.86C78.23 40.5 78.54 40.8 78.54 41.18C78.54 41.56 78.24 41.86 77.86 41.86Z" fill="#0E1721"/>
  <path d="M77.86 47.42H52.05C51.68 47.42 51.37 47.12 51.37 46.74C51.37 46.36 51.67 46.06 52.05 46.06H77.86C78.23 46.06 78.54 46.36 78.54 46.74C78.54 47.12 78.24 47.42 77.86 47.42Z" fill="#0E1721"/>
  <path d="M77.86 52.99H52.05C51.68 52.99 51.37 52.69 51.37 52.31C51.37 51.93 51.67 51.63 52.05 51.63H77.86C78.23 51.63 78.54 51.93 78.54 52.31C78.54 52.69 78.24 52.99 77.86 52.99Z" fill="#0E1721"/>
  <path d="M44.81 41.86H19.08C18.71 41.86 18.4 41.56 18.4 41.18C18.4 40.8 18.7 40.5 19.08 40.5H44.81C45.18 40.5 45.49 40.8 45.49 41.18C45.49 41.56 45.19 41.86 44.81 41.86Z" fill="#0E1721"/>
  <path d="M44.73 47.42H19.08C18.71 47.42 18.4 47.12 18.4 46.74C18.4 46.36 18.7 46.06 19.08 46.06H44.73C45.1 46.06 45.41 46.36 45.41 46.74C45.41 47.12 45.11 47.42 44.73 47.42Z" fill="#0E1721"/>
  <path d="M44.73 52.99H19.08C18.71 52.99 18.4 52.69 18.4 52.31C18.4 51.93 18.7 51.63 19.08 51.63H44.73C45.1 51.63 45.41 51.93 45.41 52.31C45.41 52.69 45.11 52.99 44.73 52.99Z" fill="#0E1721"/>
  <path d="M19.18 33.43C18.7 33.43 18.28 33.06 18.24 32.57C18.19 32.05 18.57 31.59 19.1 31.54C27.61 30.74 36.26 30.28 44.81 30.19H44.82C45.34 30.19 45.76 30.61 45.77 31.13C45.77 31.65 45.36 32.08 44.83 32.09C36.33 32.18 27.74 32.63 19.28 33.43C19.25 33.43 19.22 33.43 19.19 33.43H19.18Z" fill="#0E1721"/>
  <path d="M48.47 95.85C48.1 95.85 47.79 95.55 47.79 95.17V4.68C47.79 4.31 48.09 4 48.47 4C48.85 4 49.15 4.3 49.15 4.68V95.18C49.15 95.55 48.85 95.86 48.47 95.86V95.85Z" fill="#0E1721"/>
</svg>
