<svg xmlns="http://www.w3.org/2000/svg" width="100" height="100" viewBox="0 0 100 100" fill="none">
  <path d="M99.29 43.6499V80.6199C99.29 82.5099 98.57 84.4099 97.12 85.8499C95.68 87.2899 93.78 88.0199 91.89 88.0199H8.09995C6.20995 88.0199 4.30995 87.2999 2.86995 85.8499C1.42995 84.4099 0.699951 82.5099 0.699951 80.6199V43.6499" fill="#4279B6"/>
  <path d="M91.9 88.7199H8.1C5.94 88.7199 3.9 87.8799 2.37 86.3499C0.84 84.8199 0 82.7899 0 80.6199V43.6499C0 43.2599 0.32 42.9399 0.71 42.9399C1.1 42.9399 1.42 43.2599 1.42 43.6499V80.6199C1.42 82.4099 2.12 84.0899 3.38 85.3499C4.64 86.6099 6.32 87.3099 8.11 87.3099H91.91C93.7 87.3099 95.38 86.6099 96.64 85.3499C97.9 84.0799 98.6 82.3999 98.6 80.6199V43.6499C98.6 43.2599 98.92 42.9399 99.31 42.9399C99.7 42.9399 100.02 43.2599 100.02 43.6499V80.6199C100.02 82.7799 99.18 84.8199 97.65 86.3499C96.12 87.8799 94.09 88.7199 91.92 88.7199H91.9Z" fill="#0E1721"/>
  <path d="M82.04 81.8499C82.04 80.2799 81.44 78.6999 80.23 77.4999C79.03 76.2899 77.45 75.6899 75.88 75.6899H24.12C22.54 75.6899 20.97 76.2899 19.76 77.4999C18.56 78.6999 17.96 80.2799 17.96 81.8499V88.0099H82.04V81.8499Z" fill="white"/>
  <path d="M82.04 88.72H17.96C17.57 88.72 17.25 88.4 17.25 88.01V81.85C17.25 80.02 17.96 78.29 19.26 77C20.56 75.7 22.28 74.98 24.12 74.98H75.88C77.72 74.98 79.44 75.7 80.73 77C82.03 78.29 82.74 80.02 82.74 81.85V88.01C82.74 88.4 82.42 88.72 82.03 88.72H82.04ZM18.66 87.31H81.33V81.85C81.33 80.39 80.76 79.03 79.73 78C78.7 76.97 77.33 76.4 75.88 76.4H24.12C22.66 76.4 21.29 76.97 20.26 78C19.23 79.03 18.66 80.4 18.66 81.85V87.31Z" fill="#0E1721"/>
  <path d="M82.0399 52.2799C82.0399 54.1699 81.32 56.0699 79.87 57.5099C78.43 58.9499 76.5299 59.6799 74.6399 59.6799H25.35C23.46 59.6799 21.57 58.9599 20.12 57.5099C18.68 56.0699 17.95 54.1699 17.95 52.2799V43.6499H82.03V52.2799H82.0399Z" fill="#FCCD2A"/>
  <path d="M74.65 60.3799H25.35C23.19 60.3799 21.15 59.5399 19.62 58.0099C18.09 56.4799 17.25 54.4399 17.25 52.2799V43.6499C17.25 43.2599 17.57 42.9399 17.96 42.9399H82.04C82.43 42.9399 82.75 43.2599 82.75 43.6499V52.2799C82.75 54.4399 81.91 56.4799 80.37 58.0099C78.84 59.5399 76.81 60.3799 74.65 60.3799ZM18.66 44.3599V52.2799C18.66 54.0599 19.36 55.7399 20.62 57.0099C21.88 58.2699 23.56 58.9699 25.35 58.9699H74.65C76.44 58.9699 78.11 58.2699 79.38 57.0099C80.65 55.7399 81.34 54.0599 81.34 52.2799V44.3599H18.66Z" fill="#0E1721"/>
  <path d="M82.04 27.0699H17.96V43.6499H82.04V27.0699Z" fill="white"/>
  <path d="M82.04 44.36H17.96C17.57 44.36 17.25 44.04 17.25 43.65V27.07C17.25 26.68 17.57 26.36 17.96 26.36H82.04C82.43 26.36 82.75 26.68 82.75 27.07V43.65C82.75 44.04 82.43 44.36 82.04 44.36ZM18.66 42.94H81.33V27.77H18.66V42.94Z" fill="#0E1721"/>
  <path d="M22.89 14.74V27.07V35.08H77.11V27.07V14.74H22.89Z" fill="#4279B6"/>
  <path d="M77.1101 35.78H22.8901C22.5001 35.78 22.1801 35.46 22.1801 35.07V14.74C22.1801 14.35 22.5001 14.03 22.8901 14.03H77.1101C77.5001 14.03 77.8201 14.35 77.8201 14.74V35.08C77.8201 35.47 77.5001 35.79 77.1101 35.79V35.78ZM23.6001 34.37H76.4101V15.45H23.6001V34.37Z" fill="#0E1721"/>
  <path d="M72.1799 81.85H27.8199V97.87H72.1799V81.85Z" fill="#4279B6"/>
  <path d="M72.18 98.58H27.82C27.43 98.58 27.11 98.26 27.11 97.87V81.85C27.11 81.46 27.43 81.14 27.82 81.14H72.18C72.57 81.14 72.89 81.46 72.89 81.85V97.87C72.89 98.26 72.57 98.58 72.18 98.58ZM28.52 97.17H71.47V82.56H28.52V97.17Z" fill="#0E1721"/>
  <path d="M92.2701 61.27C92.2701 60.3864 91.5537 59.67 90.6701 59.67C89.7864 59.67 89.0701 60.3864 89.0701 61.27C89.0701 62.1537 89.7864 62.87 90.6701 62.87C91.5537 62.87 92.2701 62.1537 92.2701 61.27Z" fill="white"/>
  <path d="M90.67 63.3C89.55 63.3 88.64 62.39 88.64 61.28C88.64 60.17 89.55 59.25 90.66 59.25C91.78 59.25 92.68 60.16 92.68 61.27C92.68 62.38 91.77 63.3 90.66 63.3H90.67ZM90.67 60.1C90.02 60.1 89.49 60.63 89.49 61.28C89.49 61.93 90.02 62.46 90.67 62.46C91.32 62.46 91.85 61.93 91.85 61.28C91.85 60.63 91.32 60.1 90.67 60.1Z" fill="#0E1721"/>
  <path d="M92.2701 67.6801C92.2701 66.7964 91.5537 66.0801 90.6701 66.0801C89.7864 66.0801 89.0701 66.7964 89.0701 67.6801C89.0701 68.5637 89.7864 69.2801 90.6701 69.2801C91.5537 69.2801 92.2701 68.5637 92.2701 67.6801Z" fill="white"/>
  <path d="M90.67 69.71C89.55 69.71 88.64 68.8 88.64 67.69C88.64 66.58 89.55 65.66 90.66 65.66C91.78 65.66 92.68 66.57 92.68 67.68C92.68 68.79 91.77 69.71 90.66 69.71H90.67ZM90.67 66.5C90.02 66.5 89.49 67.03 89.49 67.68C89.49 68.33 90.02 68.86 90.67 68.86C91.32 68.86 91.85 68.33 91.85 67.68C91.85 67.03 91.32 66.5 90.67 66.5Z" fill="#0E1721"/>
  <path d="M92.2701 74.09C92.2701 73.2063 91.5537 72.49 90.6701 72.49C89.7864 72.49 89.0701 73.2063 89.0701 74.09C89.0701 74.9736 89.7864 75.69 90.6701 75.69C91.5537 75.69 92.2701 74.9736 92.2701 74.09Z" fill="white"/>
  <path d="M90.67 76.1099C89.55 76.1099 88.64 75.1999 88.64 74.0899C88.64 72.9799 89.55 72.0699 90.66 72.0699C91.78 72.0699 92.68 72.9799 92.68 74.0899C92.68 75.1999 91.77 76.1099 90.66 76.1099H90.67ZM90.67 72.91C90.02 72.91 89.49 73.4399 89.49 74.0899C89.49 74.7399 90.02 75.2699 90.67 75.2699C91.32 75.2699 91.85 74.7399 91.85 74.0899C91.85 73.4399 91.32 72.91 90.67 72.91Z" fill="#0E1721"/>
  <path d="M27.8199 35.08V2.70996H64.1699L72.1799 10.72V35.08" fill="white"/>
  <path d="M72.89 35.08H71.48V11.01L63.88 3.41H28.52V35.07H27.11V2.71C27.11 2.32 27.43 2 27.82 2H64.17C64.36 2 64.54 2.07 64.67 2.21L72.68 10.22C72.81 10.35 72.89 10.53 72.89 10.72V35.08Z" fill="#0E1721"/>
  <path d="M72.1799 10.7201H64.1699V2.71008L72.1799 10.7201Z" fill="white"/>
  <path d="M72.18 11.4201H64.17C63.78 11.4201 63.46 11.1001 63.46 10.7101V2.71006C63.46 2.42006 63.63 2.17006 63.9 2.06006C64.17 1.95006 64.47 2.01006 64.67 2.21006L72.68 10.2201C72.88 10.4201 72.94 10.7301 72.83 10.9901C72.72 11.2501 72.46 11.4301 72.18 11.4301V11.4201ZM64.88 10.0101H70.48L64.88 4.41006V10.0101Z" fill="#0E1721"/>
  <path d="M60.61 25.37C60.55 25.35 60.31 25.38 60.18 25.4C59.76 25.46 59.23 25.53 58.78 25.2C58.33 24.87 58.23 24.35 58.16 23.93C58.14 23.8 58.09 23.57 58.06 23.51C58.02 23.46 57.82 23.36 57.7 23.29C57.32 23.09 56.85 22.84 56.67 22.3C56.63 22.18 56.61 22.05 56.61 21.92C56.61 21.54 56.77 21.22 56.91 20.93C56.97 20.8 57.08 20.58 57.08 20.51C57.08 20.44 56.97 20.21 56.91 20.09C56.77 19.8 56.61 19.47 56.61 19.09C56.61 18.96 56.63 18.83 56.67 18.71C56.84 18.17 57.32 17.92 57.7 17.72C57.81 17.66 58.02 17.55 58.06 17.5C58.1 17.44 58.14 17.22 58.16 17.09C58.24 16.67 58.33 16.15 58.78 15.82C59.23 15.49 59.75 15.56 60.17 15.62C60.31 15.64 60.54 15.67 60.61 15.65C60.67 15.63 60.82 15.47 60.92 15.38C61.21 15.1 61.62 14.71 62.19 14.71C62.76 14.71 63.15 15.08 63.46 15.38C63.55 15.47 63.71 15.62 63.77 15.65C63.83 15.67 64.06 15.64 64.2 15.62C64.62 15.56 65.15 15.49 65.6 15.82C66.05 16.15 66.15 16.67 66.22 17.09C66.24 17.23 66.28 17.45 66.32 17.51C66.36 17.56 66.56 17.66 66.68 17.73C67.06 17.93 67.53 18.19 67.71 18.72C67.75 18.84 67.77 18.97 67.77 19.1C67.77 19.48 67.61 19.81 67.47 20.1C67.41 20.23 67.3 20.44 67.3 20.52C67.3 20.59 67.41 20.82 67.47 20.94C67.61 21.23 67.77 21.56 67.77 21.94C67.77 22.07 67.75 22.2 67.71 22.32C67.53 22.86 67.04 23.12 66.68 23.31C66.56 23.37 66.36 23.48 66.32 23.53C66.29 23.59 66.24 23.81 66.22 23.94C66.14 24.36 66.05 24.88 65.6 25.21C65.15 25.54 64.63 25.47 64.21 25.41C64.08 25.39 63.84 25.36 63.77 25.38C63.71 25.4 63.56 25.56 63.46 25.65C63.15 25.95 62.76 26.32 62.19 26.32C61.62 26.32 61.21 25.93 60.92 25.65C60.83 25.56 60.67 25.41 60.61 25.38V25.37Z" fill="#FCCD2A"/>
  <path d="M62.1899 26.73C61.4399 26.73 60.9499 26.25 60.6199 25.94C60.5899 25.91 60.5199 25.84 60.4599 25.79C60.3999 25.79 60.3299 25.8 60.2299 25.82C59.7799 25.88 59.1099 25.97 58.5299 25.54C57.9399 25.11 57.8199 24.44 57.7399 24C57.7399 23.95 57.7099 23.85 57.6999 23.77C57.6299 23.73 57.5399 23.68 57.4999 23.66C57.0999 23.45 56.4999 23.12 56.2699 22.42C56.2199 22.26 56.1899 22.09 56.1899 21.91C56.1899 21.44 56.3799 21.05 56.5299 20.73C56.5599 20.68 56.6099 20.57 56.6399 20.49C56.6199 20.44 56.5799 20.36 56.5299 20.26C56.3799 19.94 56.1899 19.55 56.1899 19.08C56.1899 18.91 56.2199 18.73 56.2699 18.57C56.4999 17.87 57.0999 17.55 57.4999 17.33C57.5399 17.31 57.6299 17.26 57.6999 17.22C57.7199 17.14 57.7399 17.04 57.7399 17C57.8199 16.56 57.9399 15.89 58.5299 15.46C59.1199 15.03 59.7899 15.12 60.2299 15.18C60.2799 15.18 60.3799 15.2 60.4699 15.21C60.5099 15.17 60.5599 15.13 60.6299 15.06C60.9599 14.74 61.4499 14.27 62.1999 14.27C62.9499 14.27 63.4399 14.75 63.7599 15.06C63.8299 15.13 63.8799 15.18 63.9199 15.21C63.9999 15.21 64.1099 15.19 64.1499 15.18C64.5899 15.12 65.2699 15.03 65.8499 15.46C66.4399 15.89 66.5599 16.56 66.6399 17C66.6399 17.06 66.6699 17.16 66.6799 17.23C66.7499 17.27 66.8299 17.31 66.8699 17.34C67.2699 17.56 67.8699 17.88 68.0999 18.58C68.1499 18.74 68.1799 18.91 68.1799 19.09C68.1799 19.56 67.9899 19.96 67.8399 20.27C67.8099 20.32 67.7599 20.43 67.7299 20.5C67.7599 20.58 67.8199 20.69 67.8399 20.73C67.9899 21.05 68.1799 21.44 68.1799 21.91C68.1799 22.09 68.1499 22.26 68.0999 22.42C67.8699 23.12 67.2699 23.44 66.8699 23.66C66.8299 23.68 66.7399 23.73 66.6699 23.77C66.6499 23.85 66.6299 23.95 66.6299 24C66.5499 24.44 66.4299 25.11 65.8399 25.54C65.2499 25.97 64.5899 25.88 64.1399 25.82C64.0399 25.81 63.9599 25.8 63.8999 25.79C63.8599 25.83 63.8099 25.87 63.7399 25.94C63.4099 26.26 62.9199 26.73 62.1699 26.73H62.1899ZM60.5499 24.94C60.6199 24.94 60.6699 24.94 60.7199 24.96C60.7399 24.96 60.7599 24.97 60.7699 24.98C60.8799 25.03 60.9999 25.13 61.2099 25.33C61.4799 25.59 61.7799 25.88 62.1899 25.88C62.5999 25.88 62.8799 25.6 63.1699 25.33C63.3899 25.12 63.4899 25.03 63.5999 24.98C63.6199 24.98 63.6399 24.97 63.6599 24.96C63.7899 24.92 63.9499 24.94 64.2699 24.98C64.6499 25.03 65.0499 25.08 65.3599 24.86C65.6799 24.63 65.7499 24.24 65.8199 23.85C65.8799 23.54 65.9099 23.39 65.9799 23.29C65.9899 23.27 65.9999 23.26 66.0199 23.24C66.0999 23.14 66.2299 23.06 66.4999 22.92C66.8299 22.75 67.1999 22.55 67.3199 22.17C67.3499 22.09 67.3599 22.01 67.3599 21.92C67.3599 21.64 67.2299 21.37 67.0999 21.11C66.9599 20.81 66.8899 20.66 66.8899 20.52C66.8899 20.36 66.9499 20.21 67.0899 19.92C67.2199 19.65 67.3499 19.38 67.3499 19.1C67.3499 19.01 67.3399 18.93 67.3099 18.85C67.1899 18.47 66.8299 18.28 66.4899 18.1C66.2199 17.95 66.0899 17.88 66.0099 17.78C65.9999 17.77 65.9899 17.75 65.9799 17.74C65.9099 17.63 65.8699 17.49 65.8199 17.18C65.7499 16.78 65.6799 16.39 65.3599 16.16C65.0499 15.93 64.6499 15.99 64.2699 16.04C63.9499 16.08 63.7999 16.1 63.6699 16.06C63.6499 16.06 63.6299 16.05 63.6099 16.04C63.4899 15.99 63.3799 15.89 63.1699 15.69C62.8899 15.42 62.5899 15.14 62.1899 15.14C61.7899 15.14 61.4799 15.43 61.2099 15.69C60.9899 15.9 60.8899 15.99 60.7799 16.04C60.7599 16.04 60.7399 16.05 60.7199 16.06C60.5899 16.1 60.4299 16.08 60.1099 16.04C59.7299 15.99 59.3299 15.94 59.0199 16.16C58.6999 16.39 58.6299 16.78 58.5599 17.17C58.4999 17.48 58.4699 17.63 58.3999 17.73C58.3899 17.75 58.3799 17.76 58.3699 17.78C58.2899 17.88 58.1499 17.96 57.8899 18.1C57.5399 18.29 57.1899 18.48 57.0599 18.85C57.0299 18.93 57.0199 19.01 57.0199 19.1C57.0199 19.38 57.1499 19.65 57.2799 19.91C57.4199 20.2 57.4899 20.36 57.4899 20.5C57.4899 20.66 57.4299 20.81 57.2799 21.11C57.1499 21.38 57.0199 21.65 57.0199 21.93C57.0199 22.02 57.0299 22.1 57.0599 22.18C57.1799 22.56 57.5399 22.75 57.8799 22.93C58.1499 23.08 58.2799 23.15 58.3599 23.25C58.3699 23.26 58.3799 23.28 58.3999 23.3C58.4699 23.41 58.5099 23.56 58.5599 23.86C58.6299 24.25 58.6999 24.64 59.0199 24.87C59.3299 25.1 59.7299 25.04 60.1099 24.99C60.3199 24.96 60.4499 24.95 60.5399 24.95L60.5499 24.94Z" fill="#0E1721"/>
  <path d="M52.25 15.87H35.82C35.43 15.87 35.11 15.55 35.11 15.16C35.11 14.77 35.43 14.45 35.82 14.45H52.25C52.64 14.45 52.96 14.77 52.96 15.16C52.96 15.55 52.64 15.87 52.25 15.87Z" fill="#0E1721"/>
  <path d="M52.25 19.43H35.82C35.43 19.43 35.11 19.11 35.11 18.72C35.11 18.33 35.43 18.01 35.82 18.01H52.25C52.64 18.01 52.96 18.33 52.96 18.72C52.96 19.11 52.64 19.43 52.25 19.43Z" fill="#0E1721"/>
  <path d="M52.25 22.9899H35.82C35.43 22.9899 35.11 22.6699 35.11 22.2799C35.11 21.8899 35.43 21.5699 35.82 21.5699H52.25C52.64 21.5699 52.96 21.8899 52.96 22.2799C52.96 22.6699 52.64 22.9899 52.25 22.9899Z" fill="#0E1721"/>
  <path d="M52.25 26.56H35.82C35.43 26.56 35.11 26.24 35.11 25.85C35.11 25.46 35.43 25.14 35.82 25.14H52.25C52.64 25.14 52.96 25.46 52.96 25.85C52.96 26.24 52.64 26.56 52.25 26.56Z" fill="#0E1721"/>
  <path d="M77.11 34.37H22.89V35.78H77.11V34.37Z" fill="#0E1721"/>
  <path d="M82.0399 27.63H91.8999C93.7899 27.63 95.6899 28.35 97.1299 29.8C98.5699 31.24 99.2999 33.14 99.2999 35.03V43.65H82.0499V27.63H82.0399Z" fill="#3C8645"/>
  <path d="M99.29 44.36H82.04C81.65 44.36 81.33 44.04 81.33 43.65V27.63C81.33 27.24 81.65 26.92 82.04 26.92H91.9C94.06 26.92 96.1 27.76 97.63 29.29C99.16 30.82 100 32.86 100 35.02V43.64C100 44.03 99.68 44.35 99.29 44.35V44.36ZM82.75 42.94H98.59V35.02C98.59 33.24 97.89 31.56 96.63 30.29C95.37 29.03 93.69 28.33 91.9 28.33H82.75V42.94Z" fill="#0E1721"/>
  <path d="M17.96 43.65H0.709961V35.03C0.709961 33.14 1.42996 31.24 2.87996 29.8C4.31996 28.36 6.21996 27.63 8.10996 27.63H17.97V43.65H17.96Z" fill="#3C8645"/>
  <path d="M17.96 44.3601H0.71C0.32 44.3601 0 44.0401 0 43.6501V35.0301C0 32.8701 0.84 30.8301 2.37 29.3001C3.9 27.7701 5.94 26.9301 8.1 26.9301H17.96C18.15 26.9301 18.33 27.0001 18.46 27.1401C18.59 27.2801 18.67 27.4501 18.67 27.6401V43.6601C18.67 44.0501 18.35 44.3701 17.96 44.3701V44.3601ZM1.41 42.9401H17.25V28.3301H8.1C6.32 28.3301 4.64 29.0301 3.37 30.2901C2.11 31.5501 1.41 33.2301 1.41 35.0201V42.9401Z" fill="#0E1721"/>
</svg>
