<svg xmlns="http://www.w3.org/2000/svg" width="100" height="100" viewBox="0 0 100 100" fill="none">
  <path d="M99.29 44.3601H82.04V42.9501H98.59V35.0301C98.59 33.2501 97.89 31.5701 96.63 30.3001C95.37 29.0401 93.69 28.3401 91.9 28.3401H82.04V26.9301H91.9C94.06 26.9301 96.1 27.7701 97.63 29.3001C99.16 30.8301 100 32.8701 100 35.0301V43.6501C100 44.0401 99.68 44.3601 99.29 44.3601Z" fill="#4279B6"/>
  <path d="M17.96 44.3601H0.71C0.32 44.3601 0 44.0401 0 43.6501V35.0301C0 32.8701 0.84 30.8301 2.37 29.3001C3.9 27.7701 5.94 26.9301 8.1 26.9301H17.96V28.3401H8.1C6.32 28.3401 4.64 29.0401 3.37 30.3001C2.11 31.5601 1.41 33.2401 1.41 35.0301V42.9501H17.96V44.3601Z" fill="#4279B6"/>
  <path d="M82.04 88.72H72.18C71.79 88.72 71.47 88.4 71.47 88.01C71.47 87.62 71.79 87.3 72.18 87.3H81.33V81.84C81.33 80.38 80.76 79.02 79.73 77.99C78.7 76.96 77.33 76.39 75.88 76.39H24.12C22.66 76.39 21.29 76.96 20.26 77.99C19.23 79.02 18.66 80.39 18.66 81.84V87.3H27.81C28.2 87.3 28.52 87.62 28.52 88.01C28.52 88.4 28.2 88.72 27.81 88.72H17.95C17.56 88.72 17.24 88.4 17.24 88.01V81.85C17.24 80.02 17.95 78.29 19.25 77C20.55 75.7 22.27 74.99 24.11 74.99H75.87C77.71 74.99 79.43 75.71 80.72 77.01C82.02 78.3 82.73 80.03 82.73 81.86V88.02C82.73 88.41 82.41 88.73 82.02 88.73L82.04 88.72Z" fill="#2D557F"/>
  <path d="M27.82 88.72H8.1C5.94 88.72 3.9 87.88 2.37 86.35C0.84 84.82 0 82.79 0 80.62V43.65H1.41V80.62C1.41 82.41 2.11 84.09 3.37 85.35C4.63 86.61 6.31 87.31 8.1 87.31H27.82V88.72Z" fill="#4279B6"/>
  <path d="M91.9001 88.72H72.1801V87.31H91.9001C93.6901 87.31 95.3701 86.61 96.6301 85.35C97.8901 84.08 98.59 82.4 98.59 80.62V43.65H100V80.62C100 82.78 99.1601 84.82 97.6301 86.35C96.1 87.88 94.0701 88.72 91.9001 88.72Z" fill="#4279B6"/>
  <path d="M74.65 60.3799H25.35C23.19 60.3799 21.15 59.5399 19.62 58.0099C18.09 56.4799 17.25 54.4399 17.25 52.2799V43.6499C17.25 43.2599 17.57 42.9399 17.96 42.9399H82.04C82.43 42.9399 82.75 43.2599 82.75 43.6499V52.2799C82.75 54.4399 81.91 56.4799 80.37 58.0099C78.84 59.5399 76.81 60.3799 74.65 60.3799ZM18.66 44.3599V52.2799C18.66 54.0599 19.36 55.7399 20.62 57.0099C21.88 58.2699 23.56 58.9699 25.35 58.9699H74.65C76.44 58.9699 78.11 58.2699 79.38 57.0099C80.65 55.7399 81.34 54.0699 81.34 52.2799V44.3599H18.66Z" fill="#4279B6"/>
  <path d="M82.04 44.36H17.96C17.57 44.36 17.25 44.04 17.25 43.65V27.07C17.25 26.68 17.57 26.36 17.96 26.36H22.89V27.77H18.66V42.94H81.33V27.77H77.11V26.36H82.04C82.43 26.36 82.75 26.68 82.75 27.07V43.65C82.75 44.04 82.43 44.36 82.04 44.36Z" fill="#4279B6"/>
  <path d="M77.1101 35.78H22.8901C22.5001 35.78 22.1801 35.46 22.1801 35.07V14.74C22.1801 14.35 22.5001 14.03 22.8901 14.03H27.8201V15.44H23.6001V34.36H76.4101V15.45H72.1801V14.04H77.1101C77.5001 14.04 77.8201 14.36 77.8201 14.75V35.09C77.8201 35.48 77.5001 35.8 77.1101 35.8V35.78Z" fill="#2D557F"/>
  <path d="M72.18 98.58H27.82C27.43 98.58 27.11 98.26 27.11 97.87V81.85C27.11 81.46 27.43 81.14 27.82 81.14H72.18C72.57 81.14 72.89 81.46 72.89 81.85V97.87C72.89 98.26 72.57 98.58 72.18 98.58ZM28.52 97.17H71.47V82.56H28.52V97.17Z" fill="#2D557F"/>
  <path d="M92.2699 61.27C92.2699 60.3864 91.5536 59.67 90.6699 59.67C89.7863 59.67 89.0699 60.3864 89.0699 61.27C89.0699 62.1537 89.7863 62.87 90.6699 62.87C91.5536 62.87 92.2699 62.1537 92.2699 61.27Z" fill="#2D557F"/>
  <path d="M92.2699 67.68C92.2699 66.7963 91.5536 66.08 90.6699 66.08C89.7863 66.08 89.0699 66.7963 89.0699 67.68C89.0699 68.5636 89.7863 69.28 90.6699 69.28C91.5536 69.28 92.2699 68.5636 92.2699 67.68Z" fill="#2D557F"/>
  <path d="M92.2699 74.09C92.2699 73.2063 91.5536 72.49 90.6699 72.49C89.7863 72.49 89.0699 73.2063 89.0699 74.09C89.0699 74.9736 89.7863 75.69 90.6699 75.69C91.5536 75.69 92.2699 74.9736 92.2699 74.09Z" fill="#2D557F"/>
  <path d="M72.89 35.08H71.48V11.01L63.88 3.41H28.52V35.07H27.11V2.71C27.11 2.32 27.43 2 27.82 2H64.17C64.36 2 64.54 2.07 64.67 2.21L72.68 10.22C72.81 10.35 72.89 10.53 72.89 10.72V35.08Z" fill="#4279B6"/>
  <path d="M72.18 11.4201H64.17C63.78 11.4201 63.46 11.1001 63.46 10.7101V2.71006C63.46 2.42006 63.63 2.17006 63.9 2.06006C64.16 1.95006 64.47 2.01006 64.67 2.21006L72.68 10.2201C72.88 10.4201 72.94 10.7301 72.83 10.9901C72.72 11.2501 72.46 11.4301 72.18 11.4301V11.4201ZM64.88 10.0101H70.48L64.88 4.41006V10.0101Z" fill="#4279B6"/>
  <path d="M62.19 27.01C61.33 27.01 60.77 26.47 60.43 26.14C60.42 26.13 60.4 26.11 60.37 26.08C60.33 26.08 60.3 26.08 60.28 26.09C59.78 26.16 59.05 26.26 58.37 25.76C57.69 25.26 57.55 24.53 57.47 24.04C57.47 24.02 57.46 23.98 57.45 23.94C57.42 23.92 57.39 23.91 57.37 23.9C56.93 23.67 56.27 23.31 56 22.5C55.94 22.31 55.91 22.11 55.91 21.9C55.91 21.36 56.12 20.92 56.28 20.6C56.29 20.57 56.31 20.53 56.33 20.49C56.31 20.46 56.3 20.42 56.28 20.38C56.12 20.05 55.91 19.61 55.91 19.08C55.91 18.88 55.94 18.68 56 18.48C56.26 17.67 56.93 17.32 57.36 17.08C57.38 17.07 57.41 17.05 57.44 17.04C57.44 17 57.45 16.97 57.46 16.95C57.55 16.46 57.68 15.72 58.36 15.23C59.04 14.74 59.78 14.84 60.26 14.9C60.3 14.9 60.33 14.9 60.36 14.91C60.38 14.89 60.4 14.87 60.42 14.85C60.76 14.52 61.33 13.98 62.18 13.98C63.03 13.98 63.58 14.5 63.94 14.85C63.96 14.87 63.98 14.89 64 14.91C64.04 14.91 64.08 14.9 64.1 14.9C64.59 14.83 65.33 14.73 66.01 15.23C66.69 15.73 66.83 16.49 66.91 16.95C66.91 16.98 66.92 17.01 66.93 17.05C66.95 17.06 66.98 17.08 67.01 17.09C67.45 17.33 68.11 17.68 68.38 18.49C68.44 18.68 68.47 18.88 68.47 19.09C68.47 19.63 68.26 20.07 68.1 20.39C68.09 20.42 68.07 20.46 68.05 20.5C68.07 20.54 68.09 20.59 68.1 20.61C68.26 20.94 68.47 21.38 68.47 21.92C68.47 22.13 68.44 22.33 68.38 22.52C68.12 23.33 67.43 23.7 67.02 23.92C67 23.93 66.97 23.95 66.94 23.96C66.94 24 66.93 24.03 66.92 24.05C66.83 24.54 66.7 25.27 66.02 25.77C65.34 26.26 64.6 26.16 64.12 26.1C64.1 26.1 64.06 26.1 64.02 26.09C64 26.11 63.98 26.13 63.96 26.15C63.6 26.5 63.05 27.02 62.2 27.02L62.19 27.01ZM60.55 24.66C60.64 24.66 60.72 24.66 60.8 24.69C60.83 24.69 60.86 24.71 60.89 24.72C61.05 24.79 61.18 24.9 61.42 25.13C61.7 25.4 61.93 25.61 62.2 25.61C62.47 25.61 62.68 25.42 62.98 25.14C63.22 24.91 63.34 24.8 63.5 24.73C63.53 24.72 63.56 24.71 63.59 24.7C63.77 24.65 63.95 24.66 64.3 24.7C64.71 24.76 64.99 24.78 65.19 24.63C65.4 24.48 65.46 24.2 65.53 23.8C65.59 23.45 65.63 23.28 65.73 23.13C65.75 23.1 65.77 23.08 65.79 23.05C65.91 22.91 66.08 22.81 66.35 22.67C66.7 22.48 66.96 22.33 67.05 22.08C67.07 22.03 67.07 21.98 67.07 21.92C67.07 21.7 66.96 21.47 66.84 21.23C66.68 20.9 66.61 20.72 66.6 20.52C66.6 20.51 66.6 20.5 66.6 20.49C66.6 20.28 66.69 20.09 66.83 19.79C66.95 19.53 67.06 19.3 67.06 19.09C67.06 19.03 67.06 18.98 67.04 18.93C66.96 18.68 66.72 18.53 66.35 18.34C66.05 18.18 65.9 18.09 65.79 17.96C65.77 17.94 65.75 17.91 65.73 17.88C65.62 17.72 65.58 17.52 65.53 17.22C65.46 16.8 65.39 16.53 65.18 16.38C64.97 16.23 64.7 16.25 64.29 16.31C63.93 16.36 63.76 16.37 63.58 16.32C63.55 16.32 63.51 16.3 63.48 16.29C63.32 16.22 63.19 16.11 62.96 15.88C62.66 15.59 62.45 15.41 62.18 15.41C61.91 15.41 61.69 15.61 61.4 15.88C61.16 16.11 61.04 16.22 60.88 16.29C60.85 16.3 60.82 16.31 60.79 16.32C60.61 16.37 60.42 16.36 60.07 16.31C59.67 16.26 59.39 16.23 59.19 16.38C58.98 16.53 58.92 16.81 58.85 17.21C58.79 17.56 58.75 17.73 58.65 17.88C58.63 17.91 58.61 17.93 58.59 17.96C58.48 18.09 58.33 18.19 58.03 18.34C57.66 18.54 57.41 18.68 57.33 18.93C57.31 18.98 57.31 19.03 57.31 19.09C57.31 19.3 57.42 19.54 57.54 19.78C57.7 20.11 57.77 20.29 57.78 20.48C57.78 20.49 57.78 20.5 57.78 20.52C57.78 20.73 57.69 20.92 57.55 21.22C57.43 21.46 57.32 21.7 57.32 21.92C57.32 21.98 57.32 22.03 57.34 22.08C57.42 22.33 57.66 22.48 58.03 22.67C58.34 22.83 58.48 22.92 58.59 23.05C58.61 23.08 58.63 23.1 58.65 23.13C58.75 23.28 58.79 23.45 58.85 23.8C58.92 24.21 58.99 24.48 59.2 24.63C59.4 24.78 59.68 24.75 60.09 24.7C60.29 24.67 60.44 24.66 60.56 24.66H60.55Z" fill="#2D557F"/>
  <path d="M52.25 15.87H35.82C35.43 15.87 35.11 15.55 35.11 15.16C35.11 14.77 35.43 14.45 35.82 14.45H52.25C52.64 14.45 52.96 14.77 52.96 15.16C52.96 15.55 52.64 15.87 52.25 15.87Z" fill="#2D557F"/>
  <path d="M52.25 19.43H35.82C35.43 19.43 35.11 19.11 35.11 18.72C35.11 18.33 35.43 18.01 35.82 18.01H52.25C52.64 18.01 52.96 18.33 52.96 18.72C52.96 19.11 52.64 19.43 52.25 19.43Z" fill="#2D557F"/>
  <path d="M52.25 22.9899H35.82C35.43 22.9899 35.11 22.6699 35.11 22.2799C35.11 21.8899 35.43 21.5699 35.82 21.5699H52.25C52.64 21.5699 52.96 21.8899 52.96 22.2799C52.96 22.6699 52.64 22.9899 52.25 22.9899Z" fill="#2D557F"/>
  <path d="M52.25 26.56H35.82C35.43 26.56 35.11 26.24 35.11 25.85C35.11 25.46 35.43 25.14 35.82 25.14H52.25C52.64 25.14 52.96 25.46 52.96 25.85C52.96 26.24 52.64 26.56 52.25 26.56Z" fill="#2D557F"/>
  <path d="M77.1101 35.78H22.8901C22.5001 35.78 22.1801 35.46 22.1801 35.07C22.1801 34.68 22.5001 34.36 22.8901 34.36H77.1101C77.5001 34.36 77.8201 34.68 77.8201 35.07C77.8201 35.46 77.5001 35.78 77.1101 35.78Z" fill="#2D557F"/>
</svg>
