<svg xmlns="http://www.w3.org/2000/svg" width="100" height="100" viewBox="0 0 100 100" fill="none">
  <path d="M71.05 30.85C70.89 30.97 70.79 31.15 70.79 31.37V32.21C64.59 31.89 58.33 31.75 52.15 31.81H52.13C51.77 31.81 51.47 31.51 51.45 31.15C51.45 30.77 51.75 30.47 52.13 30.47C58.41 30.39 64.77 30.53 71.05 30.85Z" fill="#4279B6"/>
  <path d="M86.64 82.32H52.13C51.76 82.32 51.45 82.02 51.45 81.64C51.45 81.26 51.75 80.96 52.13 80.96H86.64C87.83 80.96 88.8 79.99 88.8 78.8V38.22C88.8 37.85 89.1 37.54 89.48 37.54C89.86 37.54 90.16 37.84 90.16 38.22V78.8C90.16 80.74 88.58 82.31 86.65 82.31L86.64 82.32Z" fill="#2D557F"/>
  <path d="M66.17 18.89H52.14C51.77 18.89 51.46 18.59 51.46 18.21C51.46 17.83 51.76 17.53 52.14 17.53H66.17C66.54 17.53 66.85 17.83 66.85 18.21C66.85 18.59 66.55 18.89 66.17 18.89Z" fill="#2D557F"/>
  <path d="M44.81 88.08H4.03C1.81 88.08 0 86.27 0 84.05V15.8C0 13.58 1.81 11.77 4.03 11.77H44.81C45.18 11.77 45.49 12.07 45.49 12.45V18.22C45.49 18.59 45.19 18.9 44.81 18.9H10.3C9.11 18.9 8.14 19.87 8.14 21.06V78.81C8.14 80 9.11 80.97 10.3 80.97H44.81C45.18 80.97 45.49 81.27 45.49 81.65V87.42C45.49 87.79 45.19 88.1 44.81 88.1V88.08ZM4.03 13.12C2.56 13.12 1.36 14.32 1.36 15.79V84.05C1.36 85.52 2.56 86.72 4.03 86.72H44.14V82.31H10.3C8.36 82.31 6.79 80.73 6.79 78.8V21.05C6.79 19.11 8.37 17.54 10.3 17.54H44.13V13.13H4.03V13.12Z" fill="#4279B6"/>
  <path d="M44.81 77.41C43.64 77.41 42.87 76.66 42.36 76.17C42.25 76.06 42.17 75.99 42.11 75.94C42.03 75.94 41.92 75.96 41.75 75.98C41.05 76.07 40 76.21 39.08 75.54C38.15 74.86 37.96 73.82 37.84 73.12C37.83 73.05 37.8 72.89 37.77 72.77C37.67 72.71 37.54 72.64 37.48 72.61C36.88 72.29 35.9 71.78 35.54 70.67C35.46 70.41 35.42 70.14 35.42 69.87C35.42 69.12 35.73 68.48 35.95 68.02C36.02 67.87 36.08 67.75 36.11 67.66C36.07 67.55 36 67.41 35.96 67.34L35.94 67.3C35.71 66.81 35.41 66.2 35.41 65.46C35.41 65.18 35.45 64.92 35.53 64.66C35.89 63.56 36.83 63.05 37.46 62.72C37.53 62.68 37.66 62.61 37.76 62.55C37.78 62.44 37.81 62.31 37.82 62.24V62.19C37.95 61.51 38.14 60.47 39.07 59.79C40 59.12 41.05 59.26 41.75 59.36C41.83 59.37 41.99 59.39 42.1 59.4C42.15 59.35 42.23 59.28 42.34 59.17C42.86 58.67 43.63 57.93 44.8 57.93C45.17 57.93 45.48 58.23 45.48 58.61V76.74C45.48 77.11 45.18 77.42 44.8 77.42L44.81 77.41ZM42.24 74.57C42.36 74.57 42.44 74.58 42.52 74.6C42.55 74.6 42.58 74.62 42.61 74.63C42.77 74.7 42.92 74.82 43.3 75.18C43.56 75.43 43.83 75.69 44.14 75.86V59.45C43.83 59.62 43.56 59.88 43.3 60.13C42.9 60.52 42.75 60.63 42.6 60.69C42.58 60.69 42.55 60.71 42.53 60.72C42.34 60.77 42.12 60.76 41.61 60.69C40.88 60.59 40.34 60.55 39.89 60.87C39.44 61.2 39.31 61.72 39.19 62.42V62.48C39.09 62.93 39.04 63.15 38.94 63.32C38.92 63.35 38.9 63.37 38.88 63.4C38.75 63.55 38.55 63.67 38.13 63.9C37.58 64.19 37.03 64.49 36.84 65.07C36.8 65.19 36.78 65.32 36.78 65.45C36.78 65.89 36.98 66.31 37.18 66.71L37.2 66.76C37.41 67.2 37.5 67.42 37.51 67.63C37.51 67.65 37.51 67.67 37.51 67.69C37.51 67.91 37.4 68.16 37.18 68.61C36.98 69.02 36.78 69.44 36.78 69.87C36.78 70 36.8 70.13 36.84 70.25C37.03 70.83 37.63 71.15 38.12 71.41C38.55 71.64 38.75 71.76 38.88 71.91C38.91 71.94 38.93 71.97 38.95 72.01C39.05 72.18 39.1 72.41 39.19 72.89C39.3 73.48 39.41 74.09 39.9 74.45C40.38 74.8 40.99 74.72 41.58 74.64C41.89 74.6 42.1 74.58 42.26 74.58L42.24 74.57Z" fill="#2D557F"/>
  <path d="M52.13 77.41C51.76 77.41 51.45 77.11 51.45 76.73V58.6C51.45 58.23 51.75 57.92 52.13 57.92C53.3 57.92 54.07 58.66 54.58 59.16C54.69 59.27 54.77 59.34 54.83 59.39C54.92 59.39 55.04 59.37 55.19 59.35C55.89 59.26 56.94 59.12 57.86 59.79C58.79 60.47 58.98 61.52 59.1 62.21C59.11 62.29 59.14 62.44 59.17 62.56C59.23 62.6 59.33 62.65 59.47 62.73C60.11 63.07 61.04 63.58 61.4 64.67C61.48 64.93 61.52 65.2 61.52 65.47C61.52 66.21 61.22 66.83 60.99 67.32C60.9 67.5 60.85 67.61 60.83 67.68C60.88 67.8 60.95 67.96 60.99 68.03C61.23 68.54 61.53 69.15 61.53 69.89C61.53 70.17 61.49 70.44 61.41 70.69C61.06 71.79 60.12 72.29 59.49 72.62C59.42 72.66 59.28 72.73 59.18 72.79C59.15 72.91 59.13 73.06 59.11 73.13C58.98 73.83 58.79 74.88 57.87 75.55C56.95 76.22 55.9 76.08 55.21 75.99C55.04 75.97 54.92 75.95 54.84 75.95C54.79 76 54.71 76.07 54.6 76.18C54.12 76.64 53.32 77.42 52.14 77.42L52.13 77.41ZM52.81 59.46V75.87C53.12 75.7 53.39 75.44 53.65 75.19C54.02 74.83 54.18 74.7 54.35 74.63C54.38 74.62 54.4 74.61 54.43 74.6C54.61 74.55 54.83 74.56 55.38 74.63C55.97 74.71 56.59 74.79 57.07 74.44C57.56 74.08 57.67 73.47 57.78 72.88C57.87 72.39 57.92 72.16 58.04 71.98C58.06 71.96 58.07 71.93 58.09 71.91C58.22 71.76 58.42 71.64 58.84 71.41C59.39 71.12 59.93 70.82 60.12 70.25C60.16 70.13 60.18 70 60.18 69.87C60.18 69.44 59.98 69.02 59.78 68.61C59.55 68.12 59.46 67.89 59.45 67.67C59.45 67.67 59.45 67.65 59.45 67.64C59.45 67.44 59.53 67.21 59.78 66.71C59.98 66.3 60.18 65.88 60.18 65.45C60.18 65.32 60.16 65.19 60.12 65.06C59.93 64.49 59.38 64.19 58.85 63.9C58.37 63.64 58.19 63.53 58.07 63.38C58.05 63.36 58.04 63.34 58.03 63.32C57.92 63.15 57.86 62.92 57.78 62.43C57.67 61.83 57.56 61.22 57.07 60.86C56.59 60.51 55.98 60.59 55.39 60.67C54.9 60.74 54.64 60.76 54.43 60.7C54.4 60.7 54.37 60.68 54.34 60.67C54.18 60.6 54.03 60.48 53.65 60.12C53.4 59.88 53.13 59.62 52.81 59.45V59.46Z" fill="#2D557F"/>
  <path d="M85.61 27.14H78.75C78.38 27.14 78.07 26.84 78.07 26.46V19.6C78.07 19.23 78.37 18.92 78.75 18.92H85.61C85.98 18.92 86.29 19.22 86.29 19.6V26.46C86.29 26.83 85.99 27.14 85.61 27.14ZM79.43 25.79H84.94V20.28H79.43V25.79Z" fill="#4279B6"/>
  <path d="M99.32 27.14H92.46C92.09 27.14 91.78 26.84 91.78 26.46V19.6C91.78 19.23 92.08 18.92 92.46 18.92H99.32C99.69 18.92 100 19.22 100 19.6V26.46C100 26.83 99.7 27.14 99.32 27.14ZM93.14 25.79H98.65V20.28H93.14V25.79Z" fill="#4279B6"/>
  <path d="M92.91 38.9H86.05C85.68 38.9 85.37 38.6 85.37 38.22V31.36C85.37 30.99 85.67 30.68 86.05 30.68H92.91C93.28 30.68 93.59 30.98 93.59 31.36V38.22C93.59 38.59 93.29 38.9 92.91 38.9ZM86.72 37.55H92.23V32.04H86.72V37.55Z" fill="#4279B6"/>
  <path d="M73.54 22.32H66.68C66.31 22.32 66 22.02 66 21.64V14.78C66 14.41 66.3 14.1 66.68 14.1H73.54C73.91 14.1 74.22 14.4 74.22 14.78V21.64C74.22 22.01 73.92 22.32 73.54 22.32ZM67.36 20.97H72.87V15.46H67.36V20.97Z" fill="#4279B6"/>
  <path d="M78.33 30.69H71.47C71.31 30.69 71.15 30.75 71.05 30.85C70.89 30.97 70.79 31.15 70.79 31.37V38.23C70.79 38.59 71.09 38.91 71.47 38.91H78.33C78.71 38.91 79.01 38.59 79.01 38.23V31.37C79.01 30.99 78.71 30.69 78.33 30.69ZM77.65 37.55H72.15V32.03H77.65V37.55Z" fill="#4279B6"/>
  <path d="M90.8 16.9H83.94C83.57 16.9 83.26 16.6 83.26 16.22V9.36C83.26 8.99 83.56 8.68 83.94 8.68H90.8C91.17 8.68 91.48 8.98 91.48 9.36V16.22C91.48 16.59 91.18 16.9 90.8 16.9ZM84.62 15.55H90.13V10.04H84.62V15.55Z" fill="#4279B6"/>
  <path d="M30.26 66.42H18.19C17.82 66.42 17.51 66.72 17.51 67.1C17.51 67.48 17.81 67.78 18.19 67.78H30.26C30.63 67.78 30.94 67.48 30.94 67.1C30.94 66.72 30.64 66.42 30.26 66.42Z" fill="#2D557F"/>
  <path d="M78.75 66.42H66.68C66.31 66.42 66 66.72 66 67.1C66 67.48 66.3 67.78 66.68 67.78H78.75C79.12 67.78 79.43 67.48 79.43 67.1C79.43 66.72 79.13 66.42 78.75 66.42Z" fill="#2D557F"/>
  <path d="M52.13 41.86H77.86C78.23 41.86 78.54 41.56 78.54 41.18C78.54 40.8 78.24 40.5 77.86 40.5H52.13C51.76 40.5 51.45 40.8 51.45 41.18C51.45 41.56 51.75 41.86 52.13 41.86Z" fill="#2D557F"/>
  <path d="M52.06 47.42H77.87C78.24 47.42 78.55 47.12 78.55 46.74C78.55 46.36 78.25 46.06 77.87 46.06H52.06C51.69 46.06 51.38 46.36 51.38 46.74C51.38 47.12 51.68 47.42 52.06 47.42Z" fill="#2D557F"/>
  <path d="M78.54 52.31C78.54 51.93 78.24 51.63 77.86 51.63H52.05C51.68 51.63 51.37 51.93 51.37 52.31C51.37 52.69 51.67 52.99 52.05 52.99H77.86C78.23 52.99 78.54 52.69 78.54 52.31Z" fill="#2D557F"/>
  <path d="M44.81 40.5H19.08C18.71 40.5 18.4 40.8 18.4 41.18C18.4 41.56 18.7 41.86 19.08 41.86H44.81C45.18 41.86 45.49 41.56 45.49 41.18C45.49 40.8 45.19 40.5 44.81 40.5Z" fill="#2D557F"/>
  <path d="M44.73 46.07H19.08C18.71 46.07 18.4 46.37 18.4 46.75C18.4 47.13 18.7 47.43 19.08 47.43H44.73C45.1 47.43 45.41 47.13 45.41 46.75C45.41 46.37 45.11 46.07 44.73 46.07Z" fill="#2D557F"/>
  <path d="M44.73 51.63H19.08C18.71 51.63 18.4 51.93 18.4 52.31C18.4 52.69 18.7 52.99 19.08 52.99H44.73C45.1 52.99 45.41 52.69 45.41 52.31C45.41 51.93 45.11 51.63 44.73 51.63Z" fill="#2D557F"/>
  <path d="M19.18 33.16C18.83 33.16 18.54 32.9 18.51 32.55C18.47 32.18 18.75 31.85 19.12 31.81C27.62 31.01 36.27 30.55 44.81 30.46C45.19 30.46 45.49 30.76 45.49 31.13C45.49 31.5 45.19 31.81 44.82 31.81C36.32 31.9 27.71 32.35 19.25 33.15C19.23 33.15 19.21 33.15 19.19 33.15L19.18 33.16Z" fill="#4279B6"/>
  <path d="M48.47 4C48.1 4 47.79 4.3 47.79 4.68V95.18C47.79 95.55 48.09 95.86 48.47 95.86C48.85 95.86 49.15 95.56 49.15 95.18V4.68C49.15 4.3 48.85 4 48.47 4Z" fill="#2D557F"/>
</svg>
