<svg xmlns="http://www.w3.org/2000/svg" width="100" height="100" viewBox="0 0 100 100" fill="none">
  <path d="M12.66 43.62V15.14C12.66 12.67 14.67 10.66 17.14 10.66H82.87C85.34 10.66 87.34 12.66 87.34 15.13V84.84C87.34 87.31 85.34 89.31 82.87 89.31H17.14C14.67 89.31 12.67 87.31 12.67 84.84V43.61L12.66 43.62Z" fill="#4279B6"/>
  <path d="M37.35 22.16H12.66C12.29 22.16 12 21.86 12 21.5C12 21.14 12.3 20.84 12.66 20.84H37.35C37.72 20.84 38.01 21.14 38.01 21.5C38.01 21.86 37.71 22.16 37.35 22.16Z" fill="#0E1721"/>
  <path d="M23.33 36.8C22.96 36.8 22.67 36.5 22.67 36.14V21.51C22.67 21.14 22.97 20.85 23.33 20.85C23.69 20.85 23.99 21.15 23.99 21.51V36.14C23.99 36.51 23.69 36.8 23.33 36.8Z" fill="#0E1721"/>
  <path d="M48.32 22.77C47.95 22.77 47.66 22.47 47.66 22.11V11.14C47.66 10.77 47.96 10.48 48.32 10.48C48.68 10.48 48.98 10.78 48.98 11.14V22.11C48.98 22.48 48.68 22.77 48.32 22.77Z" fill="#0E1721"/>
  <path d="M76.37 22.16H59C58.63 22.16 58.34 21.86 58.34 21.5C58.34 21.14 58.64 20.84 59 20.84H76.37C76.74 20.84 77.03 21.14 77.03 21.5C77.03 21.86 76.73 22.16 76.37 22.16Z" fill="#0E1721"/>
  <path d="M76.37 37.15C76 37.15 75.71 36.85 75.71 36.49V11.14C75.71 10.77 76.01 10.48 76.37 10.48C76.73 10.48 77.03 10.78 77.03 11.14V36.49C77.03 36.86 76.73 37.15 76.37 37.15Z" fill="#0E1721"/>
  <path d="M55.6399 79.16H44.36C43.99 79.16 43.7 78.86 43.7 78.5V72.51C43.7 72.14 44 71.85 44.36 71.85C44.72 71.85 45.02 72.15 45.02 72.51V77.84H55.6399C56.0099 77.84 56.2999 78.14 56.2999 78.5C56.2999 78.86 55.9999 79.16 55.6399 79.16Z" fill="#0E1721"/>
  <path d="M33.69 90.13C33.32 90.13 33.03 89.83 33.03 89.47V68.49H23.99V78.5C23.99 78.87 23.69 79.16 23.33 79.16C22.97 79.16 22.67 78.86 22.67 78.5V67.83C22.67 67.46 22.97 67.17 23.33 67.17H33.69C34.06 67.17 34.35 67.47 34.35 67.83V89.47C34.35 89.84 34.05 90.13 33.69 90.13Z" fill="#0E1721"/>
  <path d="M65.39 89.53C65.02 89.53 64.73 89.23 64.73 88.87V80.93C64.73 80.56 65.03 80.27 65.39 80.27C65.75 80.27 66.05 80.57 66.05 80.93V88.87C66.05 89.24 65.75 89.53 65.39 89.53Z" fill="#0E1721"/>
  <path d="M61.5699 63.3499L65.9699 67.75L65.6199 68.0999C65.3899 68.3299 65.2499 68.6499 65.2499 69.0099C65.2499 69.3699 65.3899 69.6899 65.6299 69.9199L78.1099 82.4C79.5199 83.81 81.8099 83.81 83.2199 82.4C84.6299 80.99 84.6299 78.7 83.2199 77.29L70.7399 64.81C70.5099 64.58 70.1799 64.43 69.8299 64.43C69.4699 64.43 69.1499 64.57 68.9199 64.81L68.5799 65.15L64.1299 60.7" fill="#FCCD2A"/>
  <path d="M80.6599 84.12C79.5699 84.12 78.4699 83.7 77.6399 82.87L65.1599 70.39C64.7899 70.02 64.5899 69.53 64.5899 69C64.5899 68.54 64.7499 68.1 65.0399 67.75L61.0999 63.81C60.8399 63.55 60.8399 63.13 61.0999 62.87C61.3599 62.61 61.7799 62.61 62.0399 62.87L66.4399 67.27C66.6999 67.53 66.6999 67.95 66.4399 68.21L66.0899 68.56C65.9699 68.68 65.9099 68.83 65.9099 69C65.9099 69.17 65.9699 69.33 66.0899 69.45L78.5699 81.93C79.7199 83.08 81.5899 83.08 82.7399 81.93C83.8899 80.78 83.8899 78.91 82.7399 77.76L70.2599 65.28C70.1399 65.16 69.9799 65.1 69.8199 65.1C69.6499 65.1 69.4999 65.16 69.3799 65.28L69.0399 65.62C68.7899 65.87 68.3499 65.87 68.0999 65.62L63.6499 61.17C63.3899 60.91 63.3899 60.49 63.6499 60.23C63.9099 59.97 64.3299 59.97 64.5899 60.23L68.5799 64.22C68.9299 63.93 69.3699 63.77 69.8299 63.77C70.3399 63.77 70.8499 63.98 71.2099 64.34L83.6899 76.82C85.3599 78.49 85.3499 81.2 83.6899 82.87C82.8599 83.7 81.7599 84.12 80.6699 84.12H80.6599Z" fill="#0E1721"/>
  <path d="M35.28 35.01C27.72 42.57 27.73 54.81 35.28 62.37C42.83 69.93 55.08 69.93 62.64 62.37C70.19 54.82 70.2 42.57 62.64 35.01C55.08 27.45 42.84 27.46 35.28 35.01Z" fill="#FCCD2A"/>
  <path d="M48.96 68.69C43.62 68.69 38.59 66.61 34.81 62.83C27.01 55.03 27.01 42.34 34.81 34.54C42.61 26.74 55.3 26.74 63.1 34.54C70.9 42.34 70.9 55.03 63.1 62.83C59.32 66.61 54.3 68.69 48.95 68.69H48.96ZM48.96 30.01C44.18 30.01 39.39 31.83 35.75 35.47C28.47 42.75 28.47 54.61 35.75 61.89C39.28 65.42 43.97 67.36 48.96 67.36C53.95 67.36 58.64 65.42 62.17 61.89C69.45 54.61 69.45 42.75 62.17 35.47C58.53 31.83 53.74 30.01 48.96 30.01Z" fill="#0E1721"/>
  <path d="M60.26 59.99C54.02 66.23 43.9 66.23 37.65 59.99C35.48 57.82 34.07 55.19 33.41 52.41C32.35 47.98 33.21 43.18 35.99 39.34C36.48 38.66 37.04 38 37.66 37.38C43.9 31.14 54.03 31.13 60.27 37.38C66.52 43.63 66.51 53.75 60.27 60" fill="white"/>
  <path d="M48.9599 65.31C44.5199 65.31 40.3499 63.58 37.2099 60.44C35.0299 58.26 33.5099 55.54 32.7999 52.56C31.6699 47.84 32.6499 42.89 35.4799 38.97C35.9999 38.25 36.5799 37.57 37.2099 36.94C43.6899 30.46 54.2399 30.45 60.7199 36.94C63.8599 40.08 65.5899 44.26 65.5899 48.7C65.5899 53.14 63.8599 57.31 60.7199 60.45C57.5799 63.59 53.4099 65.32 48.9699 65.32L48.9599 65.31ZM48.9599 33.34C45.0299 33.34 41.0899 34.84 38.0999 37.83C37.5199 38.41 36.9799 39.05 36.4999 39.71C33.8899 43.33 32.9799 47.9 34.0199 52.26C34.6799 55.01 36.0899 57.53 38.0999 59.54C40.9999 62.44 44.8599 64.04 48.9599 64.04C53.0599 64.04 56.9199 62.44 59.8099 59.54C62.7099 56.64 64.3099 52.78 64.3099 48.68C64.3099 44.58 62.7099 40.72 59.8099 37.82C56.8199 34.83 52.8899 33.33 48.9599 33.33V33.34Z" fill="#0E1721"/>
  <path d="M48.3299 54.38C48.1499 54.38 47.9999 54.33 47.8799 54.22C47.7599 54.11 47.6999 53.96 47.6999 53.76V52.57C47.7399 51.72 47.9299 50.96 48.2699 50.3C48.6099 49.64 49.0199 49.05 49.5099 48.51C49.9999 47.97 50.4899 47.46 50.9899 46.97C51.4899 46.48 51.9099 45.99 52.2599 45.49C52.6099 44.99 52.8199 44.47 52.8999 43.91C52.9799 43.19 52.8399 42.59 52.4799 42.11C52.1199 41.62 51.6299 41.25 51.0199 40.99C50.3999 40.73 49.7699 40.6 49.1099 40.6C48.0599 40.6 47.1599 40.87 46.4099 41.42C45.6599 41.97 45.1699 42.89 44.9299 44.18C44.8699 44.42 44.7699 44.59 44.6299 44.69C44.4899 44.79 44.3299 44.84 44.1499 44.84H42.7199C42.5399 44.84 42.3899 44.78 42.2599 44.66C42.1299 44.54 42.0699 44.38 42.0699 44.18C42.0899 43.37 42.2699 42.59 42.6099 41.85C42.9499 41.11 43.4299 40.47 44.0599 39.91C44.6899 39.35 45.4299 38.91 46.2999 38.58C47.1599 38.25 48.1299 38.09 49.2099 38.09C50.4199 38.09 51.4599 38.25 52.3299 38.58C53.1899 38.91 53.8899 39.35 54.4199 39.89C54.9499 40.44 55.3299 41.04 55.5699 41.69C55.8099 42.35 55.9099 43 55.8699 43.66C55.8099 44.46 55.6099 45.17 55.2699 45.79C54.9299 46.42 54.5199 46.99 54.0499 47.52C53.5699 48.05 53.0899 48.56 52.5999 49.07C52.1099 49.58 51.6999 50.1 51.3499 50.65C50.9999 51.2 50.8099 51.79 50.7699 52.42C50.7499 52.64 50.7399 52.85 50.7299 53.06C50.7199 53.27 50.7099 53.47 50.7099 53.67C50.6699 53.89 50.5899 54.06 50.4699 54.18C50.3499 54.3 50.1799 54.36 49.9599 54.36H48.3499L48.3299 54.38ZM48.0899 59.27C47.8899 59.27 47.7299 59.21 47.5999 59.08C47.4699 58.95 47.4099 58.79 47.4099 58.59V56.77C47.4099 56.57 47.4699 56.41 47.5999 56.28C47.7299 56.15 47.8899 56.09 48.0899 56.09H50.0299C50.2499 56.09 50.4199 56.15 50.5499 56.28C50.6799 56.41 50.7399 56.57 50.7399 56.77V58.59C50.7399 58.79 50.6799 58.95 50.5499 59.08C50.4199 59.21 50.2499 59.27 50.0299 59.27H48.0899Z" fill="#FC8B27"/>
  <path d="M82.86 89.98H17.14C14.31 89.98 12 87.68 12 84.84L12.07 57.46C12.07 57.1 12.37 56.8 12.73 56.8H23.23C23.6 56.8 23.89 57.1 23.89 57.46C23.89 57.82 23.59 58.12 23.23 58.12H13.4L13.33 84.84C13.33 86.94 15.04 88.65 17.14 88.65H82.87C84.97 88.65 86.68 86.94 86.68 84.84V60.76H76.36C75.99 60.76 75.7 60.46 75.7 60.1C75.7 59.74 76 59.44 76.36 59.44H87.33C87.7 59.44 87.99 59.74 87.99 60.1V68.78L88 84.85C88 87.68 85.7 89.99 82.86 89.99V89.98Z" fill="#0E1721"/>
  <path d="M87.34 46.4C86.97 46.4 86.68 46.1 86.68 45.74V15.14C86.68 13.04 84.97 11.33 82.87 11.33H17.14C15.04 11.33 13.33 13.04 13.33 15.14V43.62C13.33 43.99 13.03 44.28 12.67 44.28C12.31 44.28 12.01 43.98 12.01 43.62V15.14C12 12.3 14.3 10 17.14 10H82.87C85.7001 10 88.01 12.3 88.01 15.14V45.74C88.01 46.11 87.71 46.4 87.35 46.4H87.34Z" fill="#0E1721"/>
</svg>
