<svg xmlns="http://www.w3.org/2000/svg" width="100" height="100" viewBox="0 0 100 100" fill="none">
  <path d="M97.78 77.19L85.13 69.96C87.7 67.23 89.15 63.26 89.15 59.47V57.3C89.15 51.87 86.07 45.52 77.37 45.52C68.67 45.52 65.59 51.86 65.59 57.3V59.47C65.59 63.27 67.04 67.24 69.61 69.96L68.25 70.74L69.18 71.27L70.11 71.8L71.06 71.26C72.81 72.59 74.92 73.41 77.36 73.41C79.8 73.41 81.91 72.59 83.66 71.26L96.85 78.8C97.64 79.25 98.13 80.1 98.13 81.01V83.33C98.13 86.41 95.63 88.91 92.55 88.91H75.38C75.03 89.25 74.66 89.56 74.26 89.84C73.74 90.2 73.2 90.52 72.61 90.77H92.56C96.66 90.77 100 87.43 100 83.33V81.01C100 79.43 99.15 77.97 97.78 77.19ZM79.51 71.24C78.8 71.44 78.08 71.55 77.37 71.55C76.57 71.55 75.8 71.44 75.08 71.24C74.32 71.03 73.62 70.71 72.96 70.31C72.51 70.04 72.08 69.73 71.68 69.38C68.98 67.04 67.44 63.16 67.44 59.46V57.29C67.44 54.96 68.16 47.37 77.36 47.37C86.56 47.37 87.28 54.96 87.28 57.29V59.46C87.28 63.9 85.45 67.33 82.97 69.38C82.55 69.73 82.12 70.04 81.67 70.31C80.97 70.72 80.24 71.03 79.5 71.24H79.51Z" fill="#2D557F"/>
  <path d="M22.63 45.52C13.94 45.52 10.85 51.86 10.85 57.3V59.47C10.85 63.27 12.3 67.24 14.87 69.96L2.23 77.18C0.85 77.97 0 79.44 0 81.03V83.34C0 87.44 3.34 90.78 7.44 90.78H27.38C26.79 90.53 26.25 90.21 25.73 89.85C25.33 89.57 24.96 89.26 24.61 88.92H7.44C4.36 88.92 1.86 86.42 1.86 83.34V81.03C1.86 80.11 2.36 79.25 3.16 78.79L16.34 71.26C18.09 72.59 20.2 73.41 22.64 73.41C25.08 73.41 27.19 72.59 28.94 71.26L29.89 71.8L30.82 71.27L31.75 70.74L30.39 69.96C32.96 67.23 34.41 63.26 34.41 59.47V57.3C34.41 55.63 34.1 52.42 32.05 49.69C30 46.96 26.75 45.52 22.63 45.52ZM32.55 59.47C32.55 63.91 30.72 67.34 28.24 69.39C27.82 69.74 27.39 70.05 26.94 70.32C26.24 70.73 25.51 71.04 24.77 71.25C24.06 71.45 23.34 71.56 22.63 71.56C21.83 71.56 21.06 71.45 20.34 71.25C19.58 71.04 18.88 70.72 18.22 70.32C17.77 70.05 17.34 69.74 16.94 69.39C14.24 67.05 12.7 63.17 12.7 59.47V57.3C12.7 54.97 13.42 47.38 22.62 47.38C31.82 47.38 32.54 54.97 32.54 57.3V59.47H32.55Z" fill="#2D557F"/>
  <path d="M75.51 74.88L70.13 71.8L69.2 71.27L68.27 70.74L59.36 65.65C62.68 62.27 64.56 57.24 64.56 52.42V49.7C64.56 47.63 64.18 43.66 61.65 40.29C59.09 36.88 55.18 35.15 50.01 35.15C39.27 35.15 35.46 42.99 35.46 49.7V52.42C35.46 57.24 37.34 62.26 40.66 65.65L31.75 70.74L30.82 71.27L29.89 71.8L24.51 74.88C22.87 75.82 21.85 77.58 21.85 79.47V82.39C21.85 84.95 22.92 87.26 24.63 88.92C24.98 89.26 25.35 89.57 25.75 89.85C26.27 90.21 26.81 90.53 27.4 90.78C28.49 91.24 29.69 91.5 30.94 91.5H69.08C70.34 91.5 71.53 91.24 72.62 90.78C73.21 90.53 73.75 90.21 74.27 89.85C74.67 89.57 75.04 89.26 75.39 88.92C77.1 87.26 78.17 84.95 78.17 82.39V79.47C78.17 77.58 77.15 75.82 75.51 74.88ZM76.32 82.39C76.32 85.28 74.61 87.75 72.17 88.92C71.23 89.37 70.19 89.64 69.08 89.64H30.93C29.82 89.64 28.78 89.37 27.84 88.92C25.39 87.76 23.69 85.28 23.69 82.39V79.47C23.69 78.24 24.35 77.1 25.42 76.49L31.75 72.87L32.69 72.34L33.62 71.81L42.08 66.98H42.15C44.32 68.66 46.96 69.71 50 69.71C53.04 69.71 55.68 68.67 57.85 66.98H57.92L66.38 71.81L67.31 72.34L68.24 72.87L74.57 76.49C75.64 77.1 76.3 78.24 76.3 79.47V82.39H76.32ZM37.3 49.7C37.3 47.58 37.91 37.01 50 37.01C52.12 37.01 62.7 37.62 62.7 49.7V52.42C62.7 58.12 60.34 62.5 57.14 65.11C56.73 65.45 56.3 65.76 55.86 66.04C55.28 66.41 54.69 66.71 54.08 66.97C52.75 67.53 51.37 67.84 50 67.84C48.63 67.84 47.26 67.53 45.92 66.97C45.31 66.71 44.72 66.41 44.14 66.04C43.7 65.76 43.28 65.45 42.86 65.11C39.66 62.49 37.3 58.11 37.3 52.42V49.7Z" fill="#4279B6"/>
  <path d="M45.36 30.52C45.69 30.85 46.13 31.03 46.6 31.03C47.07 31.03 47.51 30.85 47.84 30.52L62.72 15.64C63.05 15.31 63.23 14.87 63.23 14.4C63.23 13.93 63.05 13.49 62.72 13.16L59.06 9.49999C58.38 8.81999 57.27 8.81999 56.59 9.49999L46.61 19.48L43.44 16.31C42.76 15.63 41.65 15.63 40.97 16.31L37.31 19.97C36.98 20.3 36.8 20.74 36.8 21.21C36.8 21.68 36.98 22.12 37.31 22.45L45.37 30.51L45.36 30.52ZM47.25 21.46L57.81 10.9L61.32 14.41L46.6 29.14L38.69 21.23L42.2 17.72L45.95 21.47C46.31 21.83 46.9 21.83 47.26 21.47L47.25 21.46Z" fill="#4279B6"/>
</svg>
