<svg xmlns="http://www.w3.org/2000/svg" width="100" height="100" viewBox="0 0 100 100" fill="none">
  <path fill-rule="evenodd" clip-rule="evenodd" d="M33.63 96.26H0.880005C1.16 92.18 2.92 88.5 5.65 85.78C8.62 82.81 12.72 80.97 17.25 80.97C21.78 80.97 25.89 82.81 28.86 85.78C31.58 88.5 33.35 92.18 33.63 96.26Z" fill="#FC8B27"/>
  <path d="M33.63 97.14H0.879979C0.639979 97.14 0.399979 97.04 0.239979 96.86C0.0699788 96.68 -0.0100212 96.44 -2.11588e-05 96.2C0.279979 92.03 2.06998 88.11 5.01998 85.16C8.27998 81.9 12.62 80.1 17.24 80.09C21.87 80.09 26.21 81.89 29.48 85.16C32.44 88.12 34.22 92.04 34.51 96.2C34.53 96.44 34.44 96.68 34.27 96.86C34.1 97.04 33.87 97.14 33.63 97.14ZM1.84998 95.38H32.65C32.21 92 30.66 88.84 28.23 86.41C25.3 83.47 21.4 81.86 17.25 81.86C13.1 81.86 9.19998 83.48 6.26998 86.41C3.83998 88.84 2.28998 92 1.84998 95.38Z" fill="#0E1721"/>
  <path fill-rule="evenodd" clip-rule="evenodd" d="M26.9 71.05C26.9 73.72 25.82 76.13 24.07 77.88C22.33 79.62 19.92 80.7 17.25 80.7C14.59 80.7 12.17 79.62 10.43 77.87C8.67998 76.13 7.59998 73.71 7.59998 71.04C7.59998 68.37 8.67998 65.96 10.43 64.22C12.17 62.48 14.59 61.4 17.25 61.4C19.91 61.4 22.33 62.48 24.07 64.22C25.82 65.97 26.9 68.38 26.9 71.04V71.05Z" fill="#FC8B27"/>
  <path d="M17.25 81.59C14.43 81.59 11.78 80.49 9.78995 78.5C7.79995 76.51 6.69995 73.87 6.69995 71.05C6.69995 68.23 7.79995 65.59 9.78995 63.6C11.78 61.61 14.42 60.52 17.23 60.52C20.04 60.52 22.69 61.61 24.68 63.6C26.67 65.59 27.77 68.23 27.77 71.05C27.77 73.87 26.67 76.51 24.68 78.5C24.66 78.52 24.64 78.54 24.61 78.56C22.63 80.51 20.02 81.58 17.24 81.58L17.25 81.59ZM17.24 62.28C14.9 62.28 12.7 63.19 11.04 64.85C9.37995 66.51 8.46995 68.71 8.46995 71.05C8.46995 73.39 9.37995 75.6 11.04 77.25C12.69 78.91 14.9 79.82 17.24 79.82C19.58 79.82 21.79 78.91 23.44 77.25C23.46 77.23 23.4799 77.21 23.5 77.19C25.12 75.54 26.01 73.36 26.01 71.04C26.01 68.72 25.1 66.49 23.44 64.84C21.78 63.18 19.58 62.27 17.24 62.27V62.28Z" fill="#0E1721"/>
  <path fill-rule="evenodd" clip-rule="evenodd" d="M99.12 96.34H66.37C66.65 92.25 68.42 88.58 71.14 85.86C74.11 82.89 78.21 81.05 82.74 81.05C87.28 81.05 91.37 82.89 94.35 85.86C97.08 88.59 98.84 92.26 99.12 96.34Z" fill="#3C8645"/>
  <path d="M99.12 97.2201H66.37C66.13 97.2201 65.89 97.1201 65.73 96.9401C65.56 96.7601 65.48 96.5201 65.5 96.2801C65.79 92.1201 67.57 88.2001 70.53 85.2401C73.8 81.9701 78.14 80.1801 82.75 80.1801C87.36 80.1801 91.71 81.9801 94.98 85.2401C97.94 88.2001 99.72 92.1201 100 96.2901C100.02 96.5301 99.93 96.7701 99.76 96.9501C99.59 97.1301 99.36 97.2301 99.12 97.2301V97.2201ZM67.34 95.4601H98.14C97.7 92.0801 96.16 88.9201 93.72 86.4801C90.78 83.5501 86.88 81.9301 82.74 81.9301C78.6 81.9301 74.69 83.5501 71.76 86.4801C69.33 88.9201 67.78 92.0701 67.34 95.4601Z" fill="#0E1721"/>
  <path fill-rule="evenodd" clip-rule="evenodd" d="M92.39 71.14C92.39 72.47 92.12 73.7401 91.63 74.9001C91.14 76.0501 90.44 77.1001 89.57 77.9701C87.82 79.7101 85.41 80.7901 82.75 80.7901C80.08 80.7901 77.67 79.7101 75.93 77.9701C74.18 76.2201 73.1 73.8 73.1 71.14C73.1 68.48 74.18 66.0601 75.93 64.3101C77.68 62.5701 80.09 61.4901 82.75 61.4901C85.41 61.4901 87.83 62.5701 89.58 64.3101C91.32 66.0601 92.4 68.47 92.4 71.14H92.39Z" fill="#3C8645"/>
  <path d="M82.75 81.67C79.94 81.67 77.29 80.58 75.3 78.59C73.31 76.6 72.21 73.95 72.21 71.14C72.21 68.33 73.31 65.68 75.3 63.69C77.3 61.7 79.94 60.61 82.75 60.61C85.56 60.61 88.21 61.7 90.2 63.69C92.19 65.68 93.28 68.33 93.28 71.14C93.28 72.56 93 73.94 92.45 75.24C91.92 76.5 91.16 77.62 90.2 78.59C88.2 80.58 85.56 81.67 82.76 81.67H82.75ZM82.74 62.36C80.4 62.36 78.2 63.27 76.54 64.93C74.88 66.59 73.97 68.79 73.97 71.13C73.97 73.47 74.88 75.68 76.54 77.34C78.2 78.99 80.4 79.91 82.74 79.91C85.08 79.91 87.28 79 88.95 77.34C89.75 76.54 90.38 75.6 90.82 74.55C91.28 73.46 91.51 72.31 91.51 71.13C91.51 68.79 90.6 66.58 88.95 64.92C87.29 63.27 85.09 62.35 82.75 62.35L82.74 62.36Z" fill="#0E1721"/>
  <path d="M50 62.7C64.503 62.7 76.26 50.943 76.26 36.44C76.26 21.937 64.503 10.18 50 10.18C35.497 10.18 23.74 21.937 23.74 36.44C23.74 50.943 35.497 62.7 50 62.7Z" fill="#FCCD2A"/>
  <path d="M39.1499 21.2C38.8599 21.2 38.5799 21.06 38.4099 20.8L31.1999 9.70998C30.9299 9.29998 31.0499 8.75998 31.4599 8.48998C31.8699 8.21998 32.4099 8.33998 32.6799 8.74998L39.8899 19.84C40.1599 20.25 40.0399 20.79 39.6299 21.06C39.4799 21.16 39.3199 21.2 39.1499 21.2Z" fill="#0E1721"/>
  <path d="M31.91 29.53C31.79 29.53 31.66 29.5 31.54 29.45L19.55 23.87C19.11 23.66 18.92 23.14 19.12 22.7C19.33 22.26 19.85 22.07 20.29 22.27L32.28 27.85C32.72 28.06 32.91 28.58 32.71 29.02C32.56 29.34 32.24 29.53 31.91 29.53Z" fill="#0E1721"/>
  <path d="M17.19 42.82C16.76 42.82 16.38 42.51 16.32 42.07C16.25 41.59 16.58 41.14 17.06 41.07L30.15 39.13C30.63 39.06 31.08 39.39 31.15 39.87C31.22 40.35 30.89 40.8 30.41 40.87L17.32 42.81C17.32 42.81 17.23 42.81 17.19 42.81V42.82Z" fill="#0E1721"/>
  <path d="M24.09 59.55C23.84 59.55 23.6 59.45 23.43 59.25C23.11 58.88 23.15 58.33 23.52 58.01L33.85 49.02C34.22 48.7 34.77 48.74 35.09 49.11C35.41 49.48 35.37 50.03 35 50.35L24.67 59.34C24.5 59.49 24.3 59.56 24.09 59.56V59.55Z" fill="#0E1721"/>
  <path d="M75.88 59.59C75.67 59.59 75.47 59.52 75.3 59.37L64.98 50.36C64.61 50.04 64.58 49.48 64.9 49.12C65.22 48.75 65.78 48.72 66.14 49.04L76.46 58.05C76.83 58.37 76.86 58.93 76.54 59.29C76.37 59.49 76.12 59.59 75.88 59.59Z" fill="#0E1721"/>
  <path d="M82.8099 42.83C82.8099 42.83 82.7199 42.83 82.6799 42.83L69.5899 40.89C69.1099 40.82 68.7799 40.37 68.8499 39.89C68.9199 39.41 69.3699 39.07 69.8499 39.15L82.9399 41.09C83.4199 41.16 83.7499 41.61 83.6799 42.09C83.6199 42.53 83.2399 42.84 82.8099 42.84V42.83Z" fill="#0E1721"/>
  <path d="M68.09 29.53C67.76 29.53 67.44 29.34 67.29 29.02C67.08 28.58 67.28 28.06 67.72 27.85L79.71 22.27C80.15 22.06 80.68 22.26 80.88 22.7C81.09 23.14 80.89 23.66 80.45 23.87L68.46 29.45C68.34 29.51 68.21 29.53 68.09 29.53Z" fill="#0E1721"/>
  <path d="M60.85 21.2C60.69 21.2 60.52 21.15 60.37 21.06C59.96 20.79 59.85 20.25 60.11 19.84L67.32 8.75002C67.59 8.34002 68.13 8.23002 68.54 8.49002C68.95 8.76002 69.06 9.30002 68.8 9.71002L61.59 20.8C61.42 21.06 61.14 21.2 60.85 21.2Z" fill="#0E1721"/>
  <path d="M50 17.99C49.51 17.99 49.12 17.6 49.12 17.11V3.88C49.12 3.39 49.51 3 50 3C50.49 3 50.88 3.39 50.88 3.88V17.11C50.88 17.6 50.49 17.99 50 17.99Z" fill="#0E1721"/>
  <path fill-rule="evenodd" clip-rule="evenodd" d="M66.37 65.05H33.63C33.9 60.97 35.67 57.29 38.4 54.57C41.37 51.6 45.46 49.76 50 49.76C54.53 49.76 58.64 51.6 61.6 54.57C64.32 57.29 66.09 60.97 66.37 65.05Z" fill="#4279B6"/>
  <path d="M66.37 65.93H33.63C33.39 65.93 33.15 65.83 32.99 65.65C32.82 65.47 32.74 65.23 32.75 64.99C33.03 60.82 34.81 56.9 37.78 53.95C41.04 50.69 45.38 48.89 50 48.88C54.63 48.88 58.97 50.68 62.24 53.95C65.2 56.91 66.98 60.83 67.26 64.99C67.28 65.23 67.19 65.47 67.02 65.65C66.85 65.83 66.62 65.93 66.38 65.93H66.37ZM34.6 64.17H65.4C64.96 60.78 63.42 57.63 60.98 55.2C58.05 52.26 54.15 50.64 50 50.64C45.84 50.64 41.95 52.26 39.02 55.19C36.58 57.62 35.03 60.78 34.6 64.17Z" fill="#0E1721"/>
  <path fill-rule="evenodd" clip-rule="evenodd" d="M59.65 39.63C59.65 42.3 58.57 44.71 56.83 46.46C55.09 48.2 52.67 49.28 50.01 49.28C47.34 49.28 44.93 48.2 43.18 46.45C41.43 44.71 40.36 42.29 40.36 39.62C40.36 36.95 41.44 34.54 43.18 32.8C44.93 31.06 47.34 29.98 50.01 29.98C52.68 29.98 55.09 31.06 56.83 32.8C58.57 34.55 59.66 36.96 59.66 39.62L59.65 39.63Z" fill="#4279B6"/>
  <path d="M50.01 50.17C47.19 50.17 44.54 49.07 42.55 47.08C40.56 45.1 39.47 42.45 39.47 39.63C39.47 36.81 40.56 34.17 42.55 32.18C44.55 30.19 47.19 29.1 50 29.1C52.81 29.1 55.46 30.19 57.45 32.18C59.44 34.17 60.54 36.82 60.54 39.63C60.54 42.44 59.45 45.09 57.46 47.08C57.43 47.11 57.4 47.13 57.37 47.16C55.39 49.1 52.78 50.17 50.01 50.17ZM50 30.86C47.66 30.86 45.46 31.77 43.79 33.43C42.14 35.08 41.22 37.29 41.22 39.63C41.22 41.97 42.13 44.18 43.79 45.83C45.45 47.49 47.65 48.4 50 48.4C52.35 48.4 54.54 47.49 56.2 45.83C56.22 45.81 56.25 45.78 56.28 45.76C57.89 44.11 58.77 41.93 58.77 39.62C58.77 37.31 57.86 35.08 56.2 33.42C54.54 31.77 52.34 30.85 50 30.85V30.86Z" fill="#0E1721"/>
</svg>
