<svg xmlns="http://www.w3.org/2000/svg" width="100" height="100" viewBox="0 0 100 100" fill="none">
  <path d="M70.86 71.24L57.42 78.92C56.34 79.54 55.67 80.69 55.67 81.94V84.26C55.67 87.86 58.59 90.77 62.18 90.77H92.56C96.16 90.77 99.07 87.86 99.07 84.26V81.94C99.07 80.69 98.4 79.54 97.32 78.92L83.88 71.24H70.86Z" fill="#4279B6"/>
  <path d="M92.56 91.7H62.18C58.08 91.7 54.74 88.36 54.74 84.26V81.94C54.74 80.36 55.59 78.9 56.96 78.12L70.61 70.32H84.12L97.77 78.12C99.14 78.9 99.99 80.37 99.99 81.94V84.26C99.99 88.36 96.65 91.7 92.55 91.7H92.56ZM71.11 72.17L57.88 79.73C57.09 80.18 56.6 81.03 56.6 81.94V84.26C56.6 87.34 59.1 89.84 62.18 89.84H92.56C95.64 89.84 98.14 87.34 98.14 84.26V81.94C98.14 81.03 97.65 80.18 96.86 79.73L83.63 72.17H71.1H71.11Z" fill="#0E1721"/>
  <path d="M88.22 58.22C88.22 53.88 86.05 47.37 77.37 47.37C68.69 47.37 66.52 53.88 66.52 58.22V60.39C66.52 66.9 70.86 73.41 77.37 73.41C83.88 73.41 88.22 66.9 88.22 60.39V58.22Z" fill="white"/>
  <path d="M77.37 74.34C70.1 74.34 65.59 67.1 65.59 60.39V58.22C65.59 52.79 68.67 46.44 77.37 46.44C86.07 46.44 89.15 52.78 89.15 58.22V60.39C89.15 67.1 84.65 74.34 77.37 74.34ZM77.37 48.3C68.16 48.3 67.45 55.89 67.45 58.22V60.39C67.45 66.21 71.24 72.48 77.37 72.48C82.14 72.48 87.29 67.86 87.29 60.39V58.22C87.29 55.89 86.57 48.3 77.37 48.3Z" fill="#0E1721"/>
  <path d="M16.12 71.24L2.69999 78.91C1.60999 79.53 0.929993 80.7 0.929993 81.95V84.26C0.929993 87.86 3.83999 90.77 7.43999 90.77H37.82C41.42 90.77 44.33 87.86 44.33 84.26V81.95C44.33 80.69 43.66 79.53 42.56 78.91L29.14 71.24H16.12Z" fill="#4279B6"/>
  <path d="M37.82 91.7H7.44C3.34 91.7 0 88.36 0 84.26V81.95C0 80.36 0.86 78.89 2.23 78.1L15.87 70.31H29.38L43.02 78.1C44.4 78.89 45.25 80.36 45.25 81.95V84.26C45.25 88.36 41.91 91.7 37.81 91.7H37.82ZM16.36 72.17L3.15 79.72C2.35 80.18 1.85 81.04 1.85 81.96V84.27C1.85 87.35 4.35 89.85 7.43 89.85H37.81C40.89 89.85 43.39 87.35 43.39 84.27V81.96C43.39 81.04 42.89 80.18 42.09 79.72L28.88 72.17H16.35H16.36Z" fill="#0E1721"/>
  <path d="M33.48 58.23C33.48 53.89 31.31 47.38 22.63 47.38C13.95 47.38 11.78 53.89 11.78 58.23V60.4C11.78 66.91 16.12 73.42 22.63 73.42C29.14 73.42 33.48 66.91 33.48 60.4V58.23Z" fill="white"/>
  <path d="M22.63 74.34C15.36 74.34 10.85 67.1 10.85 60.39V58.22C10.85 52.79 13.93 46.44 22.63 46.44C26.75 46.44 30.01 47.88 32.05 50.61C34.1 53.34 34.41 56.55 34.41 58.22V60.39C34.41 67.1 29.91 74.34 22.63 74.34ZM22.63 48.3C13.42 48.3 12.71 55.89 12.71 58.22V60.39C12.71 66.21 16.5 72.48 22.63 72.48C27.4 72.48 32.55 67.86 32.55 60.39V58.22C32.55 55.89 31.83 48.3 22.63 48.3Z" fill="#0E1721"/>
  <path d="M41.83 66.05L24.95 75.69C23.59 76.47 22.75 77.91 22.75 79.48V82.4C22.75 86.91 26.41 90.57 30.92 90.57H69.06C73.57 90.57 77.23 86.91 77.23 82.4V79.48C77.23 77.92 76.39 76.47 75.03 75.69L58.15 66.05H41.8H41.83Z" fill="#3C8645"/>
  <path d="M69.07 91.49H30.93C25.91 91.49 21.83 87.41 21.83 82.39V79.47C21.83 77.58 22.85 75.82 24.49 74.88L41.58 65.12H58.42L75.51 74.88C77.15 75.82 78.17 77.58 78.17 79.47V82.39C78.17 87.41 74.09 91.49 69.07 91.49ZM42.07 66.97L25.41 76.49C24.34 77.1 23.68 78.24 23.68 79.47V82.39C23.68 86.39 26.93 89.64 30.93 89.64H69.07C73.07 89.64 76.32 86.39 76.32 82.39V79.47C76.32 78.24 75.66 77.1 74.59 76.49L57.93 66.97H42.08H42.07Z" fill="#0E1721"/>
  <path d="M63.62 49.7C63.62 44.25 60.9 36.08 50 36.08C39.1 36.08 36.38 44.25 36.38 49.7V52.42C36.38 60.59 41.83 68.77 50 68.77C58.17 68.77 63.62 60.6 63.62 52.42V49.7Z" fill="white"/>
  <path d="M50 69.7C41.01 69.7 35.45 60.73 35.45 52.42V49.7C35.45 42.99 39.26 35.15 50 35.15C55.17 35.15 59.08 36.88 61.64 40.29C64.17 43.67 64.55 47.64 64.55 49.7V52.42C64.55 60.73 58.99 69.7 50 69.7ZM50 37C37.92 37 37.3 47.58 37.3 49.7V52.42C37.3 61.94 43.89 67.84 50 67.84C56.11 67.84 62.7 61.94 62.7 52.42V49.7C62.7 37.62 52.12 37 50 37Z" fill="#0E1721"/>
  <path d="M46.01 29.86L37.95 21.8C37.63 21.48 37.63 20.96 37.95 20.64L41.61 16.98C41.93 16.66 42.45 16.66 42.77 16.98L46.6 20.8L57.23 10.17C57.55 9.84999 58.07 9.84999 58.39 10.17L62.05 13.83C62.37 14.15 62.37 14.67 62.05 14.99L47.17 29.87C46.85 30.19 46.33 30.19 46.01 29.87" fill="#3C8645"/>
  <path d="M46.59 31.03C46.12 31.03 45.68 30.85 45.35 30.52L37.29 22.46C36.96 22.13 36.78 21.69 36.78 21.22C36.78 20.75 36.96 20.31 37.29 19.98L40.95 16.32C41.63 15.64 42.74 15.64 43.42 16.32L46.59 19.49L56.58 9.51C57.26 8.83 58.37 8.83 59.05 9.51L62.71 13.17C63.04 13.5 63.22 13.94 63.22 14.41C63.22 14.88 63.04 15.32 62.71 15.65L47.83 30.53C47.5 30.86 47.06 31.04 46.59 31.04V31.03ZM38.68 21.22L46.59 29.13L61.31 14.4L57.8 10.89L46.58 22.11L42.17 17.71L38.66 21.22H38.68Z" fill="#0E1721"/>
</svg>
