<svg xmlns="http://www.w3.org/2000/svg" width="100" height="100" viewBox="0 0 100 100" fill="none">
  <path d="M66.4 65.93H33.59C33.37 65.93 33.16 65.84 33.01 65.68C32.86 65.52 32.78 65.31 32.8 65.09C33.08 60.94 34.86 57.03 37.81 54.09C41.06 50.84 45.38 49.04 49.98 49.04C54.59 49.04 58.92 50.83 62.17 54.09C65.12 57.03 66.9 60.94 67.17 65.09C67.18 65.31 67.11 65.52 66.96 65.68C66.81 65.84 66.6 65.93 66.38 65.93H66.4ZM34.46 64.35H65.53C65.11 60.9 63.54 57.67 61.06 55.2C58.11 52.24 54.18 50.61 49.99 50.61C45.8 50.61 41.87 52.25 38.92 55.2C36.44 57.68 34.87 60.9 34.45 64.35H34.46Z" fill="#4279B6"/>
  <path d="M50.01 50.14C47.21 50.14 44.58 49.05 42.6 47.08C40.63 45.11 39.54 42.48 39.54 39.68C39.54 36.88 40.63 34.26 42.6 32.28C44.58 30.31 47.21 29.22 50 29.22C52.79 29.22 55.42 30.31 57.39 32.28C59.37 34.26 60.45 36.89 60.45 39.68C60.45 42.47 59.36 45.1 57.39 47.08C57.36 47.11 57.34 47.13 57.31 47.15C55.34 49.08 52.75 50.14 50 50.14H50.01ZM50 30.79C47.63 30.79 45.4 31.71 43.71 33.39C42.04 35.06 41.11 37.3 41.11 39.67C41.11 42.04 42.03 44.28 43.71 45.95C45.39 47.63 47.62 48.55 49.99 48.55C52.36 48.55 54.59 47.63 56.27 45.95C56.29 45.93 56.32 45.9 56.34 45.88C57.97 44.2 58.87 42 58.87 39.66C58.87 37.32 57.95 35.06 56.27 33.38C54.59 31.7 52.36 30.78 49.99 30.78L50 30.79Z" fill="#4279B6"/>
  <path d="M33.6 97.14H0.790009C0.570009 97.14 0.360009 97.05 0.210009 96.89C0.0600094 96.73 -0.0199905 96.52 9.45595e-06 96.3C0.280009 92.15 2.06001 88.24 5.01001 85.3C8.26001 82.05 12.58 80.25 17.18 80.25C21.79 80.25 26.12 82.04 29.38 85.3C32.33 88.25 34.11 92.15 34.39 96.3C34.4 96.52 34.33 96.73 34.18 96.89C34.03 97.05 33.82 97.14 33.6 97.14ZM1.65001 95.57H32.73C32.31 92.12 30.74 88.89 28.26 86.42C25.3 83.46 21.37 81.83 17.19 81.83C13 81.83 9.07001 83.47 6.12001 86.42C3.64001 88.89 2.08001 92.12 1.65001 95.57Z" fill="#2D557F"/>
  <path d="M17.19 81.56C14.39 81.56 11.76 80.47 9.79 78.5C7.81 76.53 6.72 73.9 6.72 71.1C6.72 68.3 7.81 65.68 9.79 63.7C11.76 61.73 14.39 60.64 17.18 60.64C19.97 60.64 22.6 61.73 24.57 63.7C26.55 65.67 27.64 68.3 27.64 71.1C27.64 73.9 26.55 76.53 24.58 78.5C24.56 78.52 24.54 78.54 24.51 78.56C22.55 80.5 19.95 81.56 17.19 81.56ZM17.18 62.22C14.81 62.22 12.58 63.14 10.9 64.82C9.22 66.5 8.29 68.73 8.29 71.1C8.29 73.47 9.22 75.71 10.9 77.38C12.58 79.06 14.8 79.98 17.18 79.98C19.56 79.98 21.79 79.06 23.46 77.38C23.48 77.36 23.5 77.34 23.52 77.32C25.16 75.65 26.06 73.44 26.06 71.09C26.06 68.74 25.13 66.49 23.45 64.81C21.77 63.13 19.54 62.21 17.17 62.21L17.18 62.22Z" fill="#2D557F"/>
  <path d="M99.21 97.22H66.4C66.18 97.22 65.97 97.13 65.82 96.97C65.67 96.81 65.59 96.6 65.61 96.38C65.89 92.23 67.67 88.33 70.62 85.38C73.87 82.13 78.2 80.33 82.79 80.33C87.38 80.33 91.72 82.12 94.98 85.38C97.93 88.33 99.71 92.24 99.99 96.39C100 96.61 99.93 96.82 99.78 96.98C99.63 97.14 99.42 97.23 99.2 97.23L99.21 97.22ZM67.27 95.65H98.35C97.93 92.2 96.36 88.97 93.88 86.49C90.92 83.53 86.99 81.91 82.81 81.91C78.63 81.91 74.7 83.54 71.74 86.49C69.26 88.97 67.69 92.2 67.27 95.65Z" fill="#2D557F"/>
  <path d="M82.81 81.64C80.02 81.64 77.39 80.55 75.41 78.58C73.43 76.6 72.35 73.98 72.35 71.18C72.35 68.38 73.44 65.76 75.41 63.78C77.39 61.81 80.02 60.72 82.81 60.72C85.6 60.72 88.23 61.81 90.21 63.78C92.18 65.76 93.27 68.39 93.27 71.18C93.27 72.59 92.99 73.96 92.45 75.25C91.92 76.5 91.17 77.62 90.21 78.58C88.23 80.55 85.6 81.64 82.82 81.64H82.81ZM82.8 62.3C80.43 62.3 78.2 63.22 76.52 64.9C74.84 66.58 73.92 68.81 73.92 71.18C73.92 73.55 74.84 75.79 76.52 77.46C78.2 79.14 80.43 80.06 82.8 80.06C85.17 80.06 87.4 79.14 89.08 77.46C89.89 76.65 90.53 75.7 90.98 74.64C91.44 73.54 91.68 72.38 91.68 71.18C91.68 68.81 90.76 66.58 89.08 64.9C87.4 63.23 85.17 62.3 82.8 62.3Z" fill="#2D557F"/>
  <path d="M39.94 21.2C39.65 21.2 39.37 21.06 39.2 20.8L31.99 9.70998C31.72 9.29998 31.84 8.75998 32.25 8.48998C32.66 8.21998 33.2 8.33998 33.47 8.74998L40.68 19.84C40.95 20.25 40.83 20.79 40.42 21.06C40.27 21.16 40.11 21.2 39.94 21.2Z" fill="#4279B6"/>
  <path d="M32.7 29.53C32.58 29.53 32.45 29.5 32.33 29.45L20.34 23.87C19.9 23.66 19.71 23.14 19.91 22.7C20.12 22.26 20.64 22.07 21.08 22.27L33.07 27.85C33.51 28.06 33.7 28.58 33.5 29.02C33.35 29.34 33.03 29.53 32.7 29.53Z" fill="#4279B6"/>
  <path d="M17.98 42.82C17.55 42.82 17.17 42.51 17.11 42.07C17.04 41.59 17.37 41.14 17.85 41.07L30.94 39.13C31.42 39.06 31.87 39.39 31.94 39.87C32.01 40.35 31.68 40.8 31.2 40.87L18.11 42.81C18.11 42.81 18.02 42.81 17.98 42.81V42.82Z" fill="#4279B6"/>
  <path d="M24.88 59.55C24.63 59.55 24.39 59.45 24.22 59.25C23.9 58.88 23.94 58.33 24.31 58.01L34.64 49.02C35.01 48.7 35.56 48.74 35.88 49.11C36.2 49.48 36.16 50.03 35.79 50.35L25.46 59.34C25.29 59.49 25.09 59.56 24.88 59.56V59.55Z" fill="#4279B6"/>
  <path d="M76.67 59.59C76.46 59.59 76.26 59.52 76.09 59.37L65.77 50.36C65.4 50.04 65.37 49.48 65.69 49.12C66.01 48.75 66.57 48.72 66.93 49.04L77.25 58.05C77.62 58.37 77.65 58.93 77.33 59.29C77.16 59.49 76.91 59.59 76.67 59.59Z" fill="#4279B6"/>
  <path d="M83.6 42.83C83.6 42.83 83.51 42.83 83.47 42.83L70.38 40.89C69.9 40.82 69.57 40.37 69.64 39.89C69.71 39.41 70.16 39.07 70.64 39.15L83.73 41.09C84.21 41.16 84.54 41.61 84.47 42.09C84.41 42.53 84.03 42.84 83.6 42.84V42.83Z" fill="#4279B6"/>
  <path d="M68.88 29.53C68.55 29.53 68.23 29.34 68.08 29.02C67.87 28.58 68.07 28.06 68.51 27.85L80.5 22.27C80.94 22.06 81.47 22.26 81.67 22.7C81.88 23.14 81.68 23.66 81.24 23.87L69.25 29.45C69.13 29.51 69 29.53 68.88 29.53Z" fill="#4279B6"/>
  <path d="M61.64 21.2C61.48 21.2 61.31 21.15 61.16 21.06C60.75 20.79 60.64 20.25 60.9 19.84L68.11 8.75002C68.38 8.34002 68.92 8.23002 69.33 8.49002C69.74 8.76002 69.85 9.30002 69.59 9.71002L62.38 20.8C62.21 21.06 61.93 21.2 61.64 21.2Z" fill="#4279B6"/>
  <path d="M50.79 17.99C50.3 17.99 49.91 17.6 49.91 17.11V3.88C49.91 3.39 50.3 3 50.79 3C51.28 3 51.67 3.39 51.67 3.88V17.11C51.67 17.6 51.28 17.99 50.79 17.99Z" fill="#4279B6"/>
</svg>
