<svg xmlns="http://www.w3.org/2000/svg" width="100" height="100" viewBox="0 0 100 100" fill="none">
  <path d="M49.69 89.19C29.35 89.19 12.81 72.64 12.81 52.31C12.81 31.98 29.35 15.42 49.69 15.42C70.03 15.42 86.57 31.97 86.57 52.3C86.57 72.63 70.02 89.18 49.69 89.18V89.19ZM49.69 16.86C30.14 16.86 14.24 32.76 14.24 52.31C14.24 71.86 30.14 87.76 49.69 87.76C69.24 87.76 85.14 71.86 85.14 52.31C85.14 32.76 69.24 16.86 49.69 16.86Z" fill="#4279B6"/>
  <path d="M49.54 79.59C47.4 79.59 45.66 77.85 45.66 75.71V73.13C39.97 71.92 34.11 68.13 34.11 60.92C34.11 58.78 35.85 57.04 37.99 57.04C40.13 57.04 41.87 58.78 41.87 60.92C41.87 62.76 43.09 64.13 45.49 65C47.49 65.73 49.53 65.8 49.55 65.81C49.6 65.81 57.1 65.57 57.1 61.73C57.1 59.21 54.53 57.99 48.37 56.05C42.87 54.32 35.34 51.94 35.34 44.41C35.34 37.78 39.09 33.35 45.66 32.17V29.75C45.66 27.61 47.4 25.87 49.54 25.87C51.68 25.87 53.42 27.61 53.42 29.75V32.24C61.29 33.93 63.71 40.52 63.89 44.23C63.99 46.36 62.34 48.19 60.21 48.29C58.09 48.4 56.27 46.76 56.15 44.64C56.06 43.46 55.33 39.59 49.55 39.59C43.1 39.59 43.1 42.49 43.1 44.41C43.1 46.13 46.11 47.21 50.71 48.66C56.68 50.54 64.86 53.12 64.86 61.73C64.86 70.34 56.76 72.54 53.42 73.18V75.71C53.42 77.85 51.68 79.59 49.54 79.59ZM38 58.48C36.65 58.48 35.56 59.58 35.56 60.92C35.56 67.5 41.22 70.87 46.52 71.84C46.86 71.9 47.11 72.2 47.11 72.54V75.71C47.11 77.06 48.21 78.15 49.55 78.15C50.89 78.15 51.99 77.05 51.99 75.71V72.58C51.99 72.23 52.25 71.93 52.59 71.87C55.85 71.35 63.43 69.32 63.43 61.73C63.43 54.14 56.14 51.87 50.28 50.03C44.92 48.34 41.67 47.12 41.67 44.42C41.67 42.55 41.67 38.17 49.55 38.17C56.75 38.17 57.5 43.49 57.58 44.55C57.66 45.9 58.8 46.92 60.14 46.86C61.49 46.79 62.53 45.65 62.46 44.3C62.3 40.92 60.03 34.85 52.58 33.54C52.24 33.48 51.99 33.18 51.99 32.83V29.75C51.99 28.4 50.89 27.31 49.55 27.31C48.21 27.31 47.11 28.41 47.11 29.75V32.78C47.11 33.14 46.85 33.44 46.5 33.49C40.24 34.4 36.79 38.28 36.79 44.42C36.79 50.9 43.18 52.92 48.82 54.7C54.04 56.35 58.55 57.77 58.55 61.74C58.55 63.29 57.75 65.38 53.93 66.54C51.74 67.21 49.57 67.25 49.55 67.25C47.63 67.25 40.45 66.18 40.45 60.93C40.45 59.58 39.35 58.49 38.01 58.49L38 58.48Z" fill="#4279B6"/>
  <path d="M90.33 76.6C90.21 76.6 90.08 76.57 89.97 76.5C89.63 76.3 89.51 75.86 89.71 75.52C93.79 68.5 95.95 60.47 95.95 52.31C95.95 40.5 91.5 29.26 83.42 20.65C75.38 12.08 64.51 6.94 52.83 6.15C52.44 6.12 52.14 5.78 52.16 5.39C52.19 5 52.54 4.7 52.92 4.72C64.97 5.53 76.17 10.84 84.46 19.67C92.79 28.54 97.38 40.13 97.38 52.31C97.38 60.73 95.16 69 90.95 76.24C90.82 76.47 90.58 76.6 90.33 76.6Z" fill="#2D557F"/>
  <path d="M8.99 76.49C8.74 76.49 8.5 76.36 8.37 76.13C4.21 68.92 2 60.68 2 52.31C2 40.13 6.59 28.54 14.92 19.67C23.21 10.84 34.41 5.53003 46.46 4.72003C46.85 4.70003 47.2 4.99003 47.22 5.39003C47.25 5.78003 46.95 6.13003 46.55 6.15003C34.87 6.93003 24 12.08 15.96 20.65C7.88 29.26 3.43 40.5 3.43 52.31C3.43 60.43 5.56 68.42 9.6 75.41C9.8 75.75 9.68 76.19 9.34 76.39C9.23 76.46 9.1 76.49 8.98 76.49H8.99Z" fill="#2D557F"/>
  <path d="M49.69 100C34.71 100 20.89 93.17 11.78 81.25C11.54 80.94 11.6 80.49 11.91 80.25C12.22 80.01 12.67 80.07 12.91 80.38C21.75 91.94 35.15 98.57 49.68 98.57C57.1 98.57 64.18 96.87 70.73 93.51C76.98 90.31 82.52 85.63 86.74 79.99C86.98 79.67 87.43 79.61 87.74 79.85C88.06 80.09 88.12 80.54 87.88 80.85C83.53 86.66 77.82 91.48 71.38 94.78C64.62 98.24 57.32 100 49.67 100H49.69Z" fill="#2D557F"/>
  <path d="M90.33 76.6C90.02 76.6 89.73 76.39 89.64 76.08L87.85 69.64C87.74 69.26 87.97 68.86 88.35 68.76C88.73 68.65 89.13 68.88 89.23 69.26L90.83 75.01L96.58 73.41C96.96 73.3 97.36 73.53 97.46 73.91C97.57 74.29 97.34 74.69 96.96 74.79L90.53 76.58C90.47 76.6 90.4 76.61 90.34 76.61L90.33 76.6Z" fill="#2D557F"/>
  <path d="M12.35 88.21C11.95 88.21 11.63 87.89 11.63 87.49V80.81C11.63 80.41 11.95 80.09 12.35 80.09H19.03C19.43 80.09 19.75 80.41 19.75 80.81C19.75 81.21 19.43 81.53 19.03 81.53H13.07V87.49C13.07 87.89 12.75 88.21 12.35 88.21Z" fill="#2D557F"/>
  <path d="M41.78 10.88C41.6 10.88 41.41 10.81 41.27 10.67C40.99 10.39 40.99 9.94 41.27 9.66L45.49 5.44L41.27 1.22C40.99 0.94 40.99 0.49 41.27 0.21C41.55 -0.07 42 -0.07 42.28 0.21L47 4.93C47.28 5.21 47.28 5.66 47 5.94L42.28 10.66C42.14 10.8 41.96 10.87 41.77 10.87L41.78 10.88Z" fill="#2D557F"/>
</svg>
