<svg xmlns="http://www.w3.org/2000/svg" width="100" height="100" viewBox="0 0 100 100" fill="none">
  <path d="M87.41 78.41C86.85 77.99 86.05 78.11 85.63 78.68C77.12 90.17 63.51 97.03 49.23 97.03C36.22 97.03 24.2 91.63 15.62 82.09L18.19 82.93C18.86 83.15 19.58 82.78 19.79 82.11C20.01 81.44 19.64 80.72 18.97 80.51L12.27 78.33C12.21 78.31 12.14 78.3 12.08 78.29C12.07 78.29 12.05 78.29 12.04 78.29C11.97 78.29 11.89 78.28 11.82 78.28C11.75 78.28 11.68 78.3 11.61 78.31C11.6 78.31 11.58 78.31 11.57 78.32C11.5 78.34 11.43 78.36 11.37 78.39C11.36 78.39 11.34 78.4 11.33 78.41C11.26 78.44 11.19 78.48 11.13 78.53C11.07 78.58 11.01 78.63 10.96 78.69C10.95 78.7 10.94 78.71 10.93 78.72C10.88 78.77 10.84 78.83 10.81 78.89C10.81 78.9 10.79 78.92 10.79 78.93C10.76 78.99 10.73 79.05 10.7 79.12C10.68 79.19 10.66 79.26 10.65 79.33C10.65 79.35 10.65 79.36 10.65 79.38C10.65 79.44 10.64 79.51 10.64 79.57L10.81 86.61C10.83 87.3 11.39 87.85 12.08 87.85C12.09 87.85 12.1 87.85 12.11 87.85C12.81 87.83 13.37 87.25 13.35 86.55L13.27 83.24C17.25 87.78 22.09 91.58 27.45 94.33C34.24 97.82 41.58 99.58 49.26 99.58C56.94 99.58 64.32 97.8 71.12 94.3C77.61 90.96 83.34 86.08 87.7 80.2C88.12 79.63 88 78.84 87.43 78.42L87.41 78.41Z" fill="#3C8645"/>
  <path d="M49.23 100C41.48 100 34.08 98.22 27.23 94.7C22.22 92.13 17.56 88.57 13.7 84.37L13.75 86.54C13.76 86.99 13.59 87.42 13.28 87.75C12.97 88.08 12.54 88.26 12.09 88.28H12.05C11.14 88.28 10.37 87.54 10.35 86.62L10.18 79.58C10.18 79.5 10.18 79.42 10.2 79.32V79.27C10.23 79.15 10.25 79.06 10.28 78.98C10.28 78.98 10.28 78.97 10.28 78.96C10.31 78.88 10.35 78.8 10.39 78.72L10.42 78.66C10.47 78.58 10.53 78.5 10.59 78.43L10.62 78.4C10.71 78.31 10.78 78.24 10.86 78.18C10.94 78.12 11.02 78.07 11.13 78.02C11.15 78.01 11.17 78 11.18 77.99C11.27 77.95 11.36 77.92 11.45 77.9H11.5C11.61 77.86 11.7 77.85 11.78 77.85C11.78 77.85 11.79 77.85 11.8 77.85C11.89 77.85 11.99 77.85 12.09 77.86H12.15C12.25 77.88 12.33 77.9 12.4 77.93L19.1 80.11C19.99 80.4 20.48 81.36 20.19 82.25C19.9 83.14 18.94 83.63 18.05 83.34L17.03 83.01C25.5 91.8 36.87 96.62 49.21 96.62C63.36 96.62 76.83 89.82 85.26 78.44C85.53 78.08 85.93 77.84 86.37 77.77C86.82 77.7 87.27 77.81 87.63 78.09C88.38 78.65 88.54 79.71 87.98 80.46C83.59 86.39 77.8 91.31 71.26 94.68C64.4 98.22 56.97 100.01 49.2 100.01L49.23 100ZM13.25 82.81C13.37 82.81 13.49 82.86 13.57 82.95C17.51 87.44 22.37 91.24 27.62 93.94C34.35 97.39 41.62 99.15 49.23 99.15C56.84 99.15 64.16 97.39 70.9 93.92C77.33 90.61 83.01 85.77 87.33 79.95C87.61 79.57 87.53 79.04 87.15 78.76C86.97 78.63 86.74 78.57 86.52 78.6C86.3 78.63 86.1 78.75 85.96 78.93C77.37 90.53 63.64 97.45 49.22 97.45C36.08 97.45 24.03 92.09 15.3 82.37C15.17 82.23 15.16 82.02 15.26 81.86C15.36 81.7 15.57 81.63 15.75 81.69L18.32 82.53C18.77 82.67 19.25 82.43 19.39 81.98C19.53 81.53 19.29 81.05 18.85 80.91L12.15 78.73C12.15 78.73 12.07 78.71 12.02 78.7H11.99C11.94 78.7 11.9 78.69 11.85 78.7C11.84 78.7 11.83 78.7 11.82 78.7C11.79 78.7 11.75 78.71 11.7 78.72H11.67C11.67 78.72 11.58 78.75 11.54 78.77C11.46 78.81 11.42 78.83 11.38 78.86C11.35 78.89 11.31 78.92 11.27 78.96L10.93 78.7L11.25 78.98C11.25 78.98 11.19 79.05 11.17 79.09L11.16 79.12C11.14 79.16 11.12 79.2 11.1 79.25C11.1 79.25 11.1 79.25 11.1 79.26C11.09 79.3 11.08 79.35 11.07 79.39V79.42C11.07 79.46 11.07 79.51 11.07 79.55L11.24 86.59C11.25 87.05 11.63 87.42 12.09 87.42C12.34 87.42 12.55 87.32 12.7 87.16C12.86 87 12.94 86.78 12.93 86.55L12.85 83.24C12.85 83.06 12.95 82.9 13.12 82.83C13.17 82.81 13.22 82.8 13.27 82.8L13.25 82.81Z" fill="#0E1721"/>
  <path d="M3.96998 51.77C3.96998 29.59 20.22 10.75 41.69 7.12997L39.61 8.83997C39.07 9.28997 38.99 10.09 39.44 10.63C39.69 10.94 40.06 11.09 40.42 11.09C40.7 11.09 40.99 10.99 41.23 10.8L46.67 6.31997C46.72 6.27997 46.77 6.22997 46.81 6.17997C46.82 6.16997 46.83 6.15997 46.84 6.13997C46.89 6.07997 46.93 6.02997 46.96 5.95997C46.99 5.89997 47.02 5.83997 47.05 5.76997C47.05 5.74997 47.06 5.73997 47.07 5.71997C47.09 5.64997 47.11 5.57997 47.12 5.50997C47.12 5.49997 47.12 5.47997 47.12 5.45997C47.12 5.37997 47.13 5.30997 47.12 5.22997C47.12 5.14997 47.1 5.07997 47.08 4.99997C47.08 4.98997 47.08 4.96997 47.07 4.95997C47.05 4.88997 47.02 4.82997 46.99 4.75997C46.99 4.73997 46.97 4.72997 46.96 4.70997C46.93 4.64997 46.89 4.59997 46.85 4.54997C46.85 4.54997 46.84 4.52997 46.83 4.51997C46.79 4.46997 46.74 4.41997 46.7 4.37997C46.68 4.36997 46.67 4.34997 46.65 4.33997C46.6 4.29997 46.55 4.25997 46.5 4.22997H46.49C46.49 4.22997 46.48 4.20997 46.47 4.20997L40.48 0.579967C39.88 0.209967 39.1 0.409967 38.73 1.00997C38.37 1.60997 38.56 2.38997 39.16 2.75997L41.99 4.47997C31.41 6.07997 21.68 11.19 14.29 19.1C5.99998 28.01 1.41998 39.6 1.41998 51.77C1.41998 59.82 3.45998 67.79 7.31998 74.8C7.54998 75.22 7.98998 75.46 8.43998 75.46C8.64998 75.46 8.85998 75.41 9.04998 75.3C9.66998 74.96 9.88998 74.19 9.54998 73.57C5.88998 66.93 3.95998 59.39 3.95998 51.77H3.96998Z" fill="#FC8B27"/>
  <path d="M8.43999 75.88C7.81999 75.88 7.24999 75.54 6.94999 75C3.04999 67.93 0.98999 59.89 0.98999 51.76C0.98999 39.49 5.59999 27.79 13.98 18.83C21.1 11.21 30.58 6.06997 40.79 4.26997L38.94 3.14997C38.55 2.90997 38.28 2.53997 38.17 2.09997C38.06 1.65997 38.13 1.19997 38.37 0.819973C38.61 0.429973 38.98 0.159973 39.42 0.0499732C39.86 -0.0600268 40.32 0.00997321 40.7 0.249973L46.69 3.87997L46.5 4.25997L46.72 3.89997C46.79 3.93997 46.86 3.98997 46.92 4.03997C46.94 4.05997 46.97 4.07997 46.99 4.09997C47.06 4.15997 47.12 4.22997 47.17 4.28997L47.2 4.32997C47.24 4.38997 47.29 4.45997 47.34 4.53997C47.36 4.56997 47.37 4.58997 47.37 4.60997C47.41 4.68997 47.44 4.77997 47.47 4.86997C47.47 4.88997 47.48 4.90997 47.49 4.92997C47.52 5.03997 47.54 5.13997 47.54 5.22997C47.54 5.31997 47.54 5.42997 47.54 5.53997V5.59997C47.52 5.68997 47.5 5.77997 47.47 5.86997L47.45 5.91997C47.41 6.02997 47.37 6.10997 47.33 6.17997C47.33 6.17997 47.33 6.17997 47.33 6.18997C47.28 6.27997 47.23 6.34997 47.16 6.42997L47.12 6.47997C47.06 6.54997 47 6.60997 46.93 6.65997L41.49 11.13C41.19 11.38 40.8 11.52 40.41 11.52C39.9 11.52 39.42 11.29 39.1 10.9C38.51 10.18 38.61 9.09997 39.33 8.50997L40.13 7.84997C30.43 9.85997 21.59 15.11 15.09 22.76C8.19999 30.88 4.39999 41.18 4.39999 51.77C4.39999 59.32 6.30999 66.79 9.92999 73.37C10.15 73.77 10.2 74.23 10.07 74.66C9.93999 75.1 9.65999 75.46 9.25999 75.67C9.00999 75.81 8.72999 75.88 8.43999 75.88ZM39.84 0.849973C39.77 0.849973 39.7 0.849973 39.64 0.869973C39.42 0.919973 39.23 1.05997 39.12 1.24997C39 1.43997 38.97 1.66997 39.02 1.88997C39.07 2.10997 39.21 2.29997 39.4 2.40997L42.23 4.12997C42.38 4.21997 42.46 4.39997 42.43 4.57997C42.4 4.75997 42.25 4.88997 42.08 4.91997C31.63 6.49997 21.88 11.65 14.62 19.41C6.37999 28.22 1.84999 39.71 1.84999 51.77C1.84999 59.75 3.86999 67.65 7.69999 74.6C7.84999 74.87 8.12999 75.04 8.44999 75.04C8.58999 75.04 8.72999 75 8.85999 74.93C9.05999 74.82 9.19999 74.64 9.26999 74.42C9.32999 74.2 9.30999 73.97 9.19999 73.77C5.50999 67.07 3.55999 59.46 3.55999 51.76C3.55999 40.98 7.42999 30.48 14.47 22.21C21.46 13.99 31.11 8.48997 41.63 6.70997C41.82 6.67997 42.01 6.77997 42.09 6.94997C42.17 7.11997 42.12 7.32997 41.97 7.44997L39.89 9.15997C39.71 9.29997 39.61 9.50997 39.58 9.72997C39.56 9.95997 39.63 10.18 39.77 10.35C40.06 10.7 40.61 10.76 40.96 10.47L46.4 5.98997C46.4 5.98997 46.46 5.92997 46.49 5.89997L46.51 5.86997C46.54 5.83997 46.56 5.79997 46.59 5.75997C46.59 5.74997 46.6 5.73997 46.61 5.72997C46.62 5.70997 46.64 5.66997 46.66 5.61997L47.08 5.71997L46.68 5.58997C46.68 5.58997 46.71 5.49997 46.71 5.44997V5.41997C46.71 5.35997 46.71 5.30997 46.71 5.26997C46.71 5.22997 46.7 5.17997 46.68 5.11997L47.08 4.97997L46.67 5.08997C46.67 5.08997 46.64 4.99997 46.62 4.95997L46.6 4.92997C46.58 4.88997 46.56 4.84997 46.53 4.81997C46.49 4.76997 46.46 4.73997 46.43 4.70997L46.4 4.67997C46.4 4.67997 46.34 4.62997 46.3 4.60997C46.3 4.60997 46.28 4.59997 46.28 4.58997L40.28 0.949973C40.15 0.869973 39.99 0.829973 39.84 0.829973V0.849973Z" fill="#0E1721"/>
  <path d="M97.55 70.47C97.24 69.84 96.48 69.57 95.85 69.88L92.86 71.33C95.6 65.21 97.04 58.52 97.04 51.76C97.04 39.59 92.47 28 84.16 19.12C75.9 10.28 64.72 4.93999 52.69 4.07999C51.99 4.02999 51.38 4.55999 51.33 5.25999C51.28 5.95999 51.81 6.56999 52.51 6.61999C76.05 8.30999 94.49 28.14 94.49 51.76C94.49 57.91 93.23 64.01 90.82 69.62L90.51 66.95C90.43 66.25 89.8 65.75 89.1 65.83C88.4 65.91 87.9 66.54 87.98 67.24L88.79 74.24C88.79 74.3 88.81 74.37 88.83 74.43C88.83 74.45 88.83 74.46 88.84 74.47C88.86 74.54 88.89 74.61 88.92 74.67C88.95 74.73 88.99 74.79 89.03 74.84C89.04 74.85 89.05 74.87 89.06 74.88C89.1 74.93 89.15 74.98 89.21 75.03C89.22 75.04 89.24 75.05 89.25 75.06C89.31 75.11 89.37 75.15 89.43 75.19C89.62 75.3 89.83 75.35 90.04 75.35C90.04 75.35 90.05 75.35 90.06 75.35C90.1 75.35 90.15 75.35 90.19 75.35C90.21 75.35 90.23 75.35 90.24 75.35C90.27 75.35 90.31 75.34 90.34 75.33C90.36 75.33 90.38 75.32 90.4 75.31C90.43 75.31 90.46 75.29 90.49 75.28C90.51 75.28 90.53 75.26 90.55 75.25C90.56 75.25 90.58 75.25 90.59 75.23L96.93 72.15C97.56 71.84 97.83 71.08 97.52 70.45L97.55 70.47Z" fill="#FCCD2A"/>
  <path d="M90.06 75.81C89.78 75.81 89.49 75.74 89.25 75.6C89.25 75.6 89.24 75.6 89.23 75.59C89.16 75.55 89.08 75.5 89 75.43L88.95 75.39C88.88 75.33 88.81 75.26 88.75 75.19C88.75 75.18 88.73 75.16 88.72 75.15C88.65 75.06 88.6 74.98 88.56 74.91C88.51 74.82 88.48 74.73 88.45 74.63L88.43 74.57C88.4 74.48 88.39 74.4 88.38 74.32L87.57 67.32C87.46 66.39 88.13 65.55 89.06 65.44C89.51 65.39 89.95 65.51 90.31 65.79C90.67 66.07 90.89 66.48 90.94 66.93L91.06 67.95C93.03 62.82 94.07 57.27 94.07 51.78C94.07 28.37 75.8 8.73 52.49 7.06C52.04 7.03 51.63 6.82 51.33 6.48C51.03 6.14 50.89 5.7 50.92 5.25C50.95 4.8 51.16 4.38 51.5 4.09C51.84 3.79 52.28 3.65 52.73 3.68C64.87 4.55 76.14 9.94 84.48 18.86C92.86 27.82 97.47 39.52 97.47 51.79C97.47 58.16 96.17 64.59 93.71 70.47L95.67 69.52C96.08 69.32 96.54 69.29 96.96 69.44C97.39 69.59 97.74 69.89 97.93 70.3C98.13 70.71 98.16 71.17 98.01 71.6C97.86 72.03 97.56 72.37 97.15 72.57L90.81 75.65C90.81 75.65 90.77 75.67 90.76 75.67C90.74 75.68 90.71 75.69 90.68 75.7C90.64 75.72 90.6 75.73 90.56 75.74C90.53 75.74 90.51 75.76 90.48 75.76C90.43 75.77 90.39 75.78 90.35 75.79C90.32 75.79 90.3 75.79 90.28 75.8C90.22 75.8 90.16 75.81 90.1 75.81C90.09 75.81 90.08 75.81 90.07 75.81H90.06ZM89.67 74.86C89.79 74.92 89.92 74.96 90.06 74.96C90.1 74.96 90.13 74.96 90.16 74.96C90.16 74.96 90.19 74.96 90.2 74.96C90.22 74.96 90.24 74.96 90.27 74.95H90.3C90.3 74.95 90.35 74.93 90.37 74.92L90.41 74.9C90.41 74.9 90.44 74.89 90.45 74.89L96.78 71.81C97.2 71.61 97.38 71.1 97.17 70.68C97.07 70.48 96.9 70.32 96.68 70.25C96.47 70.18 96.24 70.19 96.03 70.29L93.04 71.74C92.88 71.82 92.69 71.79 92.56 71.66C92.43 71.54 92.4 71.34 92.47 71.18C95.18 65.12 96.62 58.42 96.62 51.79C96.62 39.73 92.09 28.24 83.86 19.44C75.67 10.68 64.59 5.38 52.67 4.53C52.45 4.51 52.22 4.59 52.05 4.73C51.88 4.88 51.78 5.08 51.76 5.31C51.74 5.54 51.82 5.76 51.97 5.93C52.12 6.1 52.32 6.2 52.55 6.22C76.31 7.92 94.92 27.94 94.92 51.79C94.92 57.94 93.64 64.18 91.22 69.82C91.14 70 90.96 70.1 90.77 70.07C90.58 70.04 90.43 69.89 90.41 69.7L90.1 67.03C90.07 66.8 89.96 66.6 89.78 66.46C89.6 66.32 89.38 66.26 89.16 66.28C88.93 66.31 88.73 66.42 88.59 66.6C88.45 66.78 88.39 67 88.41 67.22L89.22 74.22C89.22 74.22 89.23 74.3 89.25 74.35V74.38C89.26 74.42 89.28 74.47 89.3 74.51C89.3 74.51 89.3 74.52 89.3 74.53C89.32 74.57 89.35 74.61 89.37 74.65L89.06 74.94L89.39 74.68C89.39 74.68 89.45 74.75 89.49 74.78L89.51 74.8C89.56 74.84 89.6 74.86 89.63 74.89C89.63 74.89 89.64 74.89 89.65 74.9L89.67 74.86Z" fill="#0E1721"/>
  <path d="M49.32 87.29C69.0366 87.29 85.02 71.3066 85.02 51.59C85.02 31.8734 69.0366 15.89 49.32 15.89C29.6034 15.89 13.62 31.8734 13.62 51.59C13.62 71.3066 29.6034 87.29 49.32 87.29Z" fill="#4279B6"/>
  <path d="M49.32 88C29.24 88 12.91 71.67 12.91 51.59C12.91 31.51 29.25 15.18 49.32 15.18C69.39 15.18 85.73 31.51 85.73 51.59C85.73 71.67 69.4 88 49.32 88ZM49.32 16.59C30.02 16.59 14.32 32.29 14.32 51.59C14.32 70.89 30.02 86.59 49.32 86.59C68.62 86.59 84.32 70.89 84.32 51.59C84.32 32.29 68.62 16.59 49.32 16.59Z" fill="#0E1721"/>
  <path d="M63.59 60.89C63.59 52.91 55.8 50.46 50.11 48.66C45.13 47.09 42.1 45.98 42.1 43.79C42.1 41.88 42.1 38.32 49.17 38.32C55.65 38.32 56.32 43.01 56.39 43.97C56.49 45.68 57.94 46.99 59.66 46.91C61.38 46.83 62.71 45.36 62.62 43.64C62.45 40.08 60 33.72 52.28 32.35V29.31C52.28 27.59 50.88 26.19 49.16 26.19C47.44 26.19 46.04 27.59 46.04 29.31V32.3C39.52 33.25 35.85 37.32 35.85 43.79C35.85 50.71 42.71 52.87 48.22 54.61C53.89 56.4 57.33 57.71 57.33 60.89C57.33 65.42 49.24 65.62 49.16 65.62C49.08 65.62 40.88 65.3 40.88 60.09C40.88 58.37 39.48 56.97 37.76 56.97C36.04 56.97 34.64 58.37 34.64 60.09C34.64 67.19 40.75 70.6 46.04 71.56V74.69C46.04 76.41 47.44 77.81 49.16 77.81C50.88 77.81 52.28 76.41 52.28 74.69V71.6C57.3 70.8 63.57 67.97 63.57 60.89H63.59Z" fill="white"/>
  <path d="M49.18 78.52C47.07 78.52 45.35 76.8 45.35 74.69V72.14C39.73 70.95 33.95 67.21 33.95 60.09C33.95 57.98 35.67 56.26 37.78 56.26C39.89 56.26 41.61 57.98 41.61 60.09C41.61 61.9 42.81 63.26 45.19 64.12C47.17 64.84 49.18 64.91 49.2 64.91C49.25 64.91 56.65 64.67 56.65 60.89C56.65 58.4 54.11 57.2 48.03 55.29C42.6 53.58 35.17 51.24 35.17 43.8C35.17 37.26 38.87 32.88 45.36 31.71V29.32C45.36 27.21 47.08 25.49 49.19 25.49C51.3 25.49 53.02 27.21 53.02 29.32V31.78C60.79 33.44 63.18 39.95 63.35 43.62C63.45 45.73 61.82 47.52 59.71 47.63C57.61 47.74 55.83 46.12 55.7 44.03C55.61 42.87 54.89 39.05 49.18 39.05C42.82 39.05 42.82 41.91 42.82 43.81C42.82 45.51 45.79 46.57 50.33 48C56.23 49.86 64.3 52.4 64.3 60.9C64.3 69.4 56.31 71.57 53.01 72.2V74.7C53.01 76.81 51.29 78.53 49.18 78.53V78.52ZM37.78 57.68C36.45 57.68 35.37 58.76 35.37 60.09C35.37 66.59 40.96 69.92 46.19 70.87C46.53 70.93 46.77 71.22 46.77 71.57V74.7C46.77 76.03 47.85 77.11 49.18 77.11C50.51 77.11 51.59 76.03 51.59 74.7V71.61C51.59 71.26 51.84 70.97 52.19 70.91C55.41 70.4 62.89 68.39 62.89 60.9C62.89 53.41 55.69 51.17 49.91 49.35C44.62 47.68 41.41 46.48 41.41 43.81C41.41 41.96 41.41 37.64 49.19 37.64C56.3 37.64 57.04 42.89 57.12 43.94C57.2 45.27 58.32 46.28 59.65 46.22C60.98 46.16 62.01 45.02 61.94 43.69C61.78 40.36 59.54 34.36 52.19 33.06C51.85 33 51.61 32.71 51.61 32.36V29.32C51.61 27.99 50.53 26.91 49.2 26.91C47.87 26.91 46.79 27.99 46.79 29.32V32.31C46.79 32.66 46.53 32.96 46.19 33.01C40.01 33.91 36.6 37.74 36.6 43.8C36.6 50.2 42.91 52.19 48.48 53.94C53.63 55.56 58.09 56.97 58.09 60.89C58.09 62.42 57.3 64.49 53.53 65.63C51.36 66.29 49.23 66.33 49.21 66.33C47.31 66.33 40.22 65.27 40.22 60.09C40.22 58.76 39.14 57.68 37.81 57.68H37.78Z" fill="#0E1721"/>
</svg>
