<svg xmlns="http://www.w3.org/2000/svg" width="100" height="100" viewBox="0 0 100 100" fill="none">
  <path d="M99.7699 0.230019C99.5999 0.0600194 99.3599 -0.0199806 99.1199 1.93529e-05C79.1199 2.15002 61.8399 10.74 50.4699 24.2C50.4399 24.24 50.3999 24.29 50.3799 24.33L40.0799 43.27C40.0399 43.34 40.0199 43.41 39.9999 43.48C39.6299 45.17 39.3599 46.81 39.1899 48.35C39.1499 48.66 39.0999 48.97 39.0399 49.28C38.7899 50.52 38.2999 51.68 37.6799 52.76C37.9899 52.62 38.3499 52.57 38.7299 52.56C38.9899 52.56 39.2599 52.56 39.5499 52.61C39.9999 51.65 40.3799 50.65 40.5999 49.59C40.6699 49.24 40.7299 48.89 40.7699 48.53C40.9299 47.07 41.1899 45.52 41.5299 43.93L51.7399 25.17C62.6599 12.28 79.1599 3.97002 98.2999 1.70002C96.0199 20.78 87.6799 37.23 74.7599 48.13L55.9299 58.17C53.9799 58.65 52.0599 58.98 50.2499 59.16C49.1799 59.26 48.1299 59.51 47.1199 59.87C47.1899 60.14 47.2499 60.41 47.2699 60.66C47.2999 60.97 47.2899 61.25 47.2499 61.52C48.2599 61.12 49.3199 60.85 50.3999 60.74C52.3199 60.55 54.3399 60.2 56.3999 59.69C56.4599 59.67 56.5299 59.65 56.5799 59.62L75.5799 49.49C75.5799 49.49 75.6699 49.43 75.7199 49.4C89.2199 38.06 97.8399 20.83 99.9999 0.890019C100.03 0.650019 99.9399 0.410019 99.7699 0.240019V0.230019Z" fill="#4279B6"/>
  <path d="M23.04 62.73C22.62 62.31 22.15 62.12 15.79 68.47C9.42998 74.83 -0.400017 85.33 0.00998288 85.75C0.419983 86.17 10.93 76.33 17.29 69.98C23.65 63.62 23.45 63.15 23.03 62.73H23.04Z" fill="#4279B6"/>
  <path d="M29.93 82.6101C23.57 88.9701 13.74 99.4701 14.15 99.8901C14.57 100.31 25.07 90.4701 31.43 84.1201C37.79 77.7601 37.59 77.2901 37.17 76.8701C36.75 76.4501 36.28 76.2601 29.92 82.6101H29.93Z" fill="#4279B6"/>
  <path d="M35.1 64.81C34.68 64.39 34.21 64.2 27.85 70.55C21.49 76.91 11.66 87.41 12.07 87.83C12.49 88.25 22.99 78.41 29.35 72.06C35.71 65.7 35.51 65.23 35.09 64.81H35.1Z" fill="#4279B6"/>
  <path d="M75.42 51.06C74.98 51.1 74.66 51.49 74.7 51.93L74.73 52.27L75.03 55.42C75.2 57.2 74.57 58.95 73.3 60.21L58.18 75.29L57.02 62.2C57.02 62.09 56.98 61.99 56.93 61.89C56.78 61.62 56.49 61.45 56.16 61.48C55.72 61.52 55.4 61.9 55.44 62.34L56.75 77.12C56.78 77.43 56.98 77.69 57.27 77.8C57.36 77.83 57.45 77.85 57.54 77.85C57.75 77.85 57.95 77.77 58.1 77.62L74.42 61.34C76.04 59.74 76.84 57.52 76.62 55.27L76.29 51.78C76.25 51.34 75.86 51.02 75.42 51.06Z" fill="#2D557F"/>
  <path d="M64.6199 20.41C60.5399 24.49 60.5399 31.14 64.6199 35.23C66.6599 37.27 69.3399 38.29 72.0299 38.29C74.7199 38.29 77.3999 37.27 79.4399 35.23C83.5199 31.15 83.5199 24.5 79.4399 20.41C75.3599 16.33 68.7099 16.33 64.6199 20.41ZM78.3199 34.1C74.8599 37.56 69.2199 37.56 65.7499 34.1C62.2899 30.64 62.2899 25 65.7499 21.53C67.4799 19.8 69.7599 18.93 72.0299 18.93C74.2999 18.93 76.5799 19.8 78.3099 21.53C81.7699 25 81.7699 30.63 78.3099 34.1H78.3199Z" fill="#2D557F"/>
  <path d="M95.29 10.45C94.61 9.21999 93.75 8.09999 92.75 7.08999C91.83 6.16999 90.8 5.36999 89.69 4.71999C89.31 4.49999 88.82 4.61999 88.6 4.99999C88.38 5.37999 88.5 5.86999 88.88 6.08999C89.87 6.66999 90.8 7.38999 91.62 8.20999C92.52 9.10999 93.28 10.12 93.89 11.22C94.04 11.48 94.31 11.63 94.58 11.63C94.71 11.63 94.84 11.6 94.97 11.53C95.35 11.32 95.49 10.83 95.28 10.45H95.29Z" fill="#2D557F"/>
  <path d="M46.98 59.34C46.52 58.05 45.6 56.68 44.38 55.46C43.17 54.25 41.79 53.32 40.5 52.86C40.17 52.74 39.85 52.67 39.55 52.61C39.26 52.56 38.99 52.55 38.73 52.56C38.35 52.57 37.98 52.63 37.68 52.76C37.43 52.87 37.21 53.02 37.02 53.21C35.56 54.67 36.52 57.84 39.26 60.57C41.14 62.45 43.21 63.49 44.8 63.49C45.53 63.49 46.16 63.27 46.62 62.81C46.96 62.47 47.16 62.01 47.24 61.5C47.28 61.23 47.29 60.94 47.26 60.64C47.24 60.39 47.18 60.12 47.11 59.85C47.06 59.68 47.04 59.51 46.97 59.33L46.98 59.34ZM45.5 61.7C45.21 61.99 44.51 61.99 43.67 61.69C42.61 61.31 41.42 60.5 40.38 59.46C38.25 57.33 37.63 55.19 38.07 54.47C38.09 54.43 38.11 54.38 38.14 54.35C38.28 54.21 38.51 54.15 38.8 54.14C38.81 54.14 38.82 54.14 38.84 54.14C39.16 54.14 39.55 54.22 39.97 54.37C41.02 54.75 42.22 55.56 43.26 56.6C44.3 57.64 45.11 58.84 45.49 59.89C45.57 60.1 45.62 60.3 45.66 60.49C45.73 60.84 45.73 61.15 45.67 61.38C45.63 61.52 45.58 61.63 45.5 61.71V61.7Z" fill="#2D557F"/>
  <path d="M48.07 23.56L44.59 23.23C42.33 23.01 40.12 23.81 38.52 25.42L22.24 41.75C22.02 41.97 21.95 42.29 22.06 42.58C22.17 42.87 22.43 43.07 22.74 43.1L37.52 44.41C37.52 44.41 37.57 44.41 37.59 44.41C38 44.41 38.34 44.1 38.38 43.69C38.41 43.36 38.24 43.07 37.97 42.92C37.88 42.87 37.77 42.84 37.66 42.83L24.57 41.67L39.65 26.55C40.92 25.27 42.66 24.64 44.45 24.82L47.6 25.12L47.94 25.15C48.38 25.18 48.76 24.87 48.81 24.43C48.85 23.99 48.53 23.61 48.09 23.56H48.07Z" fill="#2D557F"/>
</svg>
