<svg xmlns="http://www.w3.org/2000/svg" width="100" height="100" viewBox="0 0 100 100" fill="none">
  <path d="M74.1099 60.19L57.9399 76.32L56.3699 58.62L56.6299 58.36L75.4499 48.33L76.0599 54.82C76.2599 56.81 75.5299 58.79 74.1099 60.2V60.19Z" fill="#FCCD2A"/>
  <path d="M57.9399 77.11C57.8499 77.11 57.7599 77.09 57.6699 77.06C57.3799 76.96 57.1799 76.69 57.1599 76.39L55.5899 58.69C55.5699 58.46 55.6499 58.23 55.8199 58.06L56.0799 57.8C56.1299 57.75 56.1999 57.7 56.2699 57.66L75.0899 47.63C75.3199 47.51 75.5999 47.51 75.8299 47.63C76.0599 47.75 76.2199 47.99 76.2399 48.25L76.8499 54.74C77.0699 56.97 76.2799 59.17 74.6799 60.76L58.5099 76.89C58.3599 77.04 58.1599 77.12 57.9499 77.12L57.9399 77.11ZM57.1899 58.95L58.5799 74.58L73.5599 59.64C74.8199 58.39 75.4499 56.66 75.2799 54.89L74.7799 49.58L57.1999 58.96L57.1899 58.95Z" fill="#0E1721"/>
  <path d="M41.2099 43.5001L23.45 41.9401L39.6399 25.8001C41.0499 24.4001 43.0199 23.6901 45.0099 23.8801L51.54 24.4901L41.34 43.2501L41.2099 43.5101V43.5001Z" fill="#FCCD2A"/>
  <path d="M41.21 44.29C41.21 44.29 41.16 44.29 41.14 44.29L23.38 42.73C23.08 42.7 22.81 42.5 22.71 42.21C22.61 41.92 22.68 41.6 22.89 41.38L39.08 25.24C40.67 23.66 42.86 22.88 45.08 23.09L51.61 23.7C51.87 23.72 52.11 23.88 52.23 24.11C52.35 24.34 52.35 24.62 52.23 24.86L42.03 43.62L41.91 43.86C41.78 44.13 41.5 44.3 41.21 44.3V44.29ZM25.21 41.3L40.76 42.67L50.29 25.16L44.95 24.66C43.19 24.49 41.46 25.11 40.21 26.36L25.22 41.31L25.21 41.3Z" fill="#0E1721"/>
  <path d="M99.21 0.790039C77.4 3.13004 61.33 12.9 51.54 24.49L41.34 43.25C40.99 44.84 40.72 46.44 40.55 48C40.32 49.96 39.62 51.82 38.54 53.44C39.02 55.93 40.59 59.67 45.55 61.14C47.13 60.16 48.93 59.56 50.8 59.38C52.66 59.2 54.62 58.85 56.63 58.36L75.45 48.33C87.07 38.56 96.87 22.54 99.22 0.800039L99.21 0.790039Z" fill="#4279B6"/>
  <path d="M45.55 61.92C45.47 61.92 45.4 61.91 45.33 61.89C39.84 60.26 38.24 55.99 37.77 53.58C37.73 53.38 37.77 53.16 37.89 52.99C38.91 51.48 39.56 49.72 39.77 47.9C39.94 46.37 40.21 44.75 40.57 43.08C40.59 43.01 40.61 42.94 40.65 42.87L50.85 24.11C50.85 24.11 50.91 24.02 50.94 23.98C62.2 10.64 79.32 2.13002 99.13 1.93529e-05C99.37 -0.0199806 99.6 0.0600194 99.77 0.230019C99.94 0.400019 100.02 0.630019 100 0.870019C97.86 20.62 89.32 37.69 75.95 48.92C75.91 48.96 75.86 48.99 75.81 49.01L56.99 59.04C56.93 59.07 56.87 59.09 56.81 59.11C54.77 59.61 52.77 59.96 50.87 60.15C49.13 60.32 47.43 60.88 45.96 61.79C45.83 61.87 45.69 61.91 45.55 61.91V61.92ZM39.38 53.59C39.92 55.99 41.42 58.96 45.45 60.28C47.05 59.35 48.87 58.77 50.72 58.6C52.52 58.42 54.41 58.09 56.34 57.62L74.99 47.67C87.79 36.88 96.05 20.58 98.31 1.68002C79.35 3.93002 63 12.17 52.19 24.93L42.08 43.52C41.74 45.1 41.49 46.63 41.33 48.08C41.1 50.04 40.42 51.93 39.37 53.59H39.38Z" fill="#0E1721"/>
  <path d="M72.3 37.14C77.5964 37.14 81.89 32.8464 81.89 27.55C81.89 22.2536 77.5964 17.96 72.3 17.96C67.0036 17.96 62.71 22.2536 62.71 27.55C62.71 32.8464 67.0036 37.14 72.3 37.14Z" fill="white"/>
  <path d="M72.3 37.61C69.61 37.61 67.09 36.56 65.19 34.66C63.29 32.76 62.24 30.23 62.24 27.55C62.24 24.87 63.29 22.34 65.19 20.44C67.09 18.54 69.62 17.49 72.3 17.49C74.98 17.49 77.51 18.54 79.41 20.44C81.31 22.34 82.36 24.87 82.36 27.55C82.36 30.23 81.31 32.76 79.41 34.66C77.51 36.56 74.98 37.61 72.3 37.61ZM72.3 18.43C69.86 18.43 67.58 19.38 65.85 21.1C64.13 22.82 63.18 25.11 63.18 27.55C63.18 29.99 64.13 32.27 65.85 34C67.57 35.72 69.86 36.67 72.3 36.67C74.74 36.67 77.02 35.72 78.75 34C80.47 32.28 81.42 29.99 81.42 27.55C81.42 25.11 80.47 22.83 78.75 21.1C77.03 19.38 74.74 18.43 72.3 18.43Z" fill="#0E1721"/>
  <path d="M0.999935 85.42C0.859935 85.42 0.729935 85.37 0.629935 85.27C0.239935 84.88 0.0199347 84.66 5.90993 78.26C9.02993 74.87 13.0899 70.64 16.2499 67.48C21.7999 61.93 22.7799 61.48 23.4099 61.48C23.7799 61.48 23.9999 61.7 24.0899 61.79C24.8399 62.54 24.8999 63.14 18.3999 69.64C15.2699 72.77 11.2299 76.65 7.82993 79.79C1.76993 85.38 1.26993 85.42 0.989935 85.42H0.999935Z" fill="#FC8B27"/>
  <path d="M23.42 61.96C23.58 61.96 23.68 62.04 23.77 62.13C24.18 62.54 24.38 63.01 18.08 69.31C11.91 75.48 1.79998 84.95 0.999979 84.95C0.979979 84.95 0.969979 84.95 0.959979 84.94C0.549979 84.53 10.29 74.12 16.59 67.82C21.48 62.93 22.85 61.96 23.42 61.96ZM23.42 61.01C22.6 61.01 21.63 61.44 15.92 67.15C12.75 70.32 8.68998 74.55 5.55998 77.94C3.86998 79.77 2.53998 81.26 1.61998 82.36C1.10998 82.97 0.739979 83.44 0.489979 83.79C0.219979 84.17 -0.340021 84.96 0.299979 85.6C0.489979 85.79 0.739979 85.89 1.00998 85.89C1.48998 85.89 1.93998 85.89 8.17998 80.13C11.58 76.99 15.63 73.1 18.76 69.97C21.7 67.03 23.43 65.15 24.22 64.06C24.6 63.53 25.4 62.41 24.45 61.46C24.34 61.35 24 61.01 23.43 61.01H23.42Z" fill="#0E1721"/>
  <path d="M15.0099 99.43C14.8699 99.43 14.7399 99.38 14.6399 99.28C14.2499 98.89 14.0299 98.67 19.9199 92.27C23.0399 88.88 27.0999 84.65 30.2599 81.49C35.8099 75.94 36.7899 75.49 37.4199 75.49C37.7899 75.49 38.0099 75.71 38.0999 75.8C38.8499 76.55 38.9099 77.15 32.4099 83.65C29.2799 86.78 25.2399 90.66 21.8399 93.8C15.7799 99.39 15.2799 99.43 14.9999 99.43H15.0099Z" fill="#FC8B27"/>
  <path d="M37.43 75.96C37.59 75.96 37.69 76.04 37.78 76.13C38.19 76.54 38.39 77.01 32.09 83.31C25.92 89.48 15.81 98.95 15.01 98.95C14.99 98.95 14.98 98.95 14.97 98.94C14.56 98.53 24.3 88.12 30.6 81.82C35.49 76.93 36.86 75.96 37.43 75.96ZM37.43 75.02C36.61 75.02 35.64 75.45 29.93 81.16C26.76 84.33 22.7 88.56 19.57 91.95C17.88 93.78 16.55 95.27 15.63 96.37C15.12 96.98 14.75 97.45 14.5 97.8C14.23 98.18 13.67 98.97 14.31 99.61C14.5 99.8 14.75 99.9 15.02 99.9C15.5 99.9 15.95 99.9 22.19 94.14C25.59 91 29.64 87.11 32.77 83.98C35.71 81.04 37.44 79.16 38.23 78.07C38.61 77.54 39.41 76.42 38.46 75.47C38.35 75.36 38.01 75.02 37.44 75.02H37.43Z" fill="#0E1721"/>
  <path d="M12.9499 87.48C12.8099 87.48 12.6799 87.43 12.5799 87.33C12.1899 86.94 11.9699 86.72 17.8599 80.33C20.9799 76.94 25.0399 72.71 28.1999 69.55C33.7499 64 34.7299 63.55 35.3599 63.55C35.7299 63.55 35.9499 63.77 36.0399 63.86C36.7899 64.61 36.8499 65.21 30.3499 71.71C27.2199 74.84 23.1699 78.72 19.7799 81.86C13.7299 87.45 13.2199 87.49 12.9399 87.49L12.9499 87.48Z" fill="#FC8B27"/>
  <path d="M35.3699 64.02C35.5299 64.02 35.6299 64.1 35.7199 64.19C36.1299 64.6 36.3299 65.07 30.0299 71.37C23.8599 77.54 13.7499 87.01 12.9499 87.01C12.9299 87.01 12.9199 87.01 12.9099 87C12.4999 86.59 22.2399 76.18 28.5399 69.88C33.4299 64.99 34.7999 64.02 35.3699 64.02ZM35.3699 63.07C34.5499 63.07 33.5799 63.5 27.8699 69.21C24.6999 72.38 20.6399 76.61 17.5099 80C15.8199 81.83 14.4899 83.32 13.5699 84.42C13.0599 85.03 12.6899 85.5 12.4399 85.85C12.1699 86.23 11.6099 87.02 12.2499 87.66C12.4399 87.85 12.6899 87.95 12.9599 87.95C13.4399 87.95 13.8899 87.95 20.1299 82.19C23.5299 79.05 27.5799 75.16 30.7099 72.03C33.6499 69.09 35.3799 67.21 36.1699 66.12C36.5499 65.59 37.3499 64.47 36.3999 63.52C36.2899 63.41 35.9499 63.07 35.3799 63.07H35.3699Z" fill="#0E1721"/>
  <path d="M96.2799 15.53C95.8399 12.62 94.4999 9.82003 92.2599 7.58003C90.0199 5.34003 87.4599 4.12003 84.6899 3.62003C89.1999 2.31003 94.0399 1.34003 99.2099 0.780029C98.6399 6.03003 97.6399 10.95 96.2799 15.53Z" fill="#3C8645"/>
  <path d="M96.28 16C96.28 16 96.26 16 96.25 16C96.03 15.98 95.85 15.82 95.82 15.6C95.38 12.68 94.04 10.02 91.93 7.92004C89.92 5.91004 87.39 4.59004 84.61 4.09004C84.39 4.05004 84.23 3.87004 84.22 3.65004C84.21 3.43004 84.35 3.23004 84.56 3.17004C89.22 1.81004 94.13 0.85004 99.16 0.31004C99.3 0.29004 99.44 0.34004 99.54 0.45004C99.64 0.55004 99.69 0.69004 99.68 0.83004C99.13 5.94004 98.13 10.93 96.73 15.66C96.67 15.86 96.49 16 96.28 16ZM86.56 3.59004C88.83 4.30004 90.89 5.54004 92.6 7.25004C94.39 9.04004 95.66 11.2 96.35 13.59C97.42 9.64004 98.2 5.53004 98.68 1.32004C94.53 1.79004 90.46 2.56004 86.56 3.60004V3.59004Z" fill="#0E1721"/>
  <path d="M45.3301 62.59C43.8101 62.59 41.7901 61.52 40.0601 59.79C37.5201 57.25 36.5401 54.24 37.8401 52.94C38.2201 52.56 38.7701 52.36 39.4201 52.36C40.9401 52.36 42.9601 53.43 44.6901 55.16C47.2301 57.7 48.2101 60.71 46.9101 62.01C46.5301 62.39 45.9801 62.59 45.3301 62.59Z" fill="#FC8B27"/>
  <path d="M39.42 52.83C40.76 52.83 42.68 53.81 44.36 55.49C46.68 57.81 47.67 60.58 46.58 61.67C46.28 61.97 45.85 62.12 45.34 62.12C44 62.12 42.08 61.14 40.4 59.46C38.08 57.14 37.09 54.37 38.18 53.28C38.48 52.98 38.91 52.84 39.42 52.83ZM39.42 51.88C38.64 51.88 37.98 52.13 37.51 52.6C36.71 53.4 36.57 54.69 37.12 56.22C37.59 57.52 38.51 58.9 39.73 60.12C41.54 61.93 43.69 63.06 45.33 63.06C46.11 63.06 46.77 62.81 47.24 62.34C48.04 61.54 48.18 60.25 47.63 58.72C47.16 57.42 46.24 56.04 45.02 54.82C43.21 53.01 41.06 51.88 39.42 51.88Z" fill="#0E1721"/>
</svg>
