<svg xmlns="http://www.w3.org/2000/svg" width="100" height="100" viewBox="0 0 100 100" fill="none">
  <path d="M49.22 5.79999H47.74V26.58H49.22V5.79999Z" fill="#2D557F"/>
  <path d="M59.68 17.22C58.64 17.22 57.36 17.03 55.86 16.45C52.04 14.99 48.86 16.67 48.83 16.68C48.6 16.8 48.32 16.8 48.1 16.66C47.88 16.53 47.74 16.29 47.74 16.03V5.79999C47.74 5.56999 47.85 5.34999 48.03 5.20999C48.16 5.10999 51.18 2.88999 56.27 4.70999C59.41 5.82999 62.28 4.72999 62.3 4.70999C62.53 4.61999 62.79 4.64999 62.99 4.78999C63.19 4.92999 63.31 5.15999 63.31 5.39999V15.75C63.31 15.98 63.2 16.21 63.01 16.34C62.94 16.39 61.8 17.2 59.68 17.2V17.22ZM52.63 14.37C53.76 14.37 55.04 14.55 56.39 15.07C59.34 16.2 61.16 15.65 61.84 15.33V6.39999C60.57 6.69999 58.27 6.99999 55.77 6.10999C52.27 4.85999 50 5.78999 49.22 6.20999V14.93C50.02 14.66 51.21 14.37 52.63 14.37Z" fill="#2D557F"/>
  <path d="M95.5 96.35H6.00001C5.59001 96.35 5.26001 96.02 5.26001 95.61V37.7C5.26001 36.26 6.43001 35.08 7.88001 35.08H93.62C95.06 35.08 96.24 36.25 96.24 37.7V95.61C96.24 96.02 95.91 96.35 95.5 96.35ZM6.74001 94.87H94.76V37.7C94.76 37.07 94.25 36.56 93.62 36.56H7.88001C7.25001 36.56 6.74001 37.07 6.74001 37.7V94.87Z" fill="#4279B6"/>
  <path d="M79.33 36.56H18.04C17.63 36.56 17.3 36.23 17.3 35.82V28.44C17.3 27.01 18.47 25.84 19.92 25.84H77.45C78.89 25.84 80.07 27.01 80.07 28.44V35.82C80.07 36.23 79.74 36.56 79.33 36.56ZM18.78 35.08H78.6V28.44C78.6 27.82 78.09 27.32 77.46 27.32H19.92C19.29 27.32 18.78 27.82 18.78 28.44V35.08Z" fill="#4279B6"/>
  <path d="M60.15 96.35H39.84C39.43 96.35 39.1 96.02 39.1 95.61V79.06C39.1 78.65 39.43 78.32 39.84 78.32H60.15C60.56 78.32 60.89 78.65 60.89 79.06V95.61C60.89 96.02 60.56 96.35 60.15 96.35ZM40.59 94.87H59.42V79.8H40.59V94.87Z" fill="#4279B6"/>
  <path d="M26.69 57.62H18.04C17.22 57.62 16.55 56.95 16.55 56.13V47.48C16.55 46.66 17.22 45.99 18.04 45.99H26.69C27.51 45.99 28.18 46.66 28.18 47.48V56.13C28.18 56.95 27.51 57.62 26.69 57.62ZM18.04 47.46V56.12L26.69 56.13C26.69 56.13 26.7 56.13 26.7 56.12V47.47H18.04V47.46Z" fill="#2D557F"/>
  <path d="M26.69 73.03H18.04C17.22 73.03 16.55 72.36 16.55 71.54V62.89C16.55 62.07 17.22 61.4 18.04 61.4H26.69C27.51 61.4 28.18 62.07 28.18 62.89V71.54C28.18 72.36 27.51 73.03 26.69 73.03ZM18.04 62.88V71.54L26.69 71.55C26.69 71.55 26.7 71.55 26.7 71.54V62.89H18.04V62.88Z" fill="#2D557F"/>
  <path d="M26.69 88.45H18.04C17.22 88.45 16.55 87.78 16.55 86.96V78.31C16.55 77.49 17.22 76.82 18.04 76.82H26.69C27.51 76.82 28.18 77.49 28.18 78.31V86.96C28.18 87.78 27.51 88.45 26.69 88.45ZM18.04 78.3V86.96L26.69 86.97C26.69 86.97 26.7 86.97 26.7 86.96V78.31H18.04V78.3Z" fill="#2D557F"/>
  <path d="M81.96 57.62H73.31C72.49 57.62 71.82 56.95 71.82 56.13V47.48C71.82 46.66 72.49 45.99 73.31 45.99H81.96C82.78 45.99 83.45 46.66 83.45 47.48V56.13C83.45 56.95 82.78 57.62 81.96 57.62ZM73.31 47.46V56.12L81.96 56.13C81.96 56.13 81.97 56.13 81.97 56.12V47.47H73.31V47.46Z" fill="#2D557F"/>
  <path d="M81.96 73.03H73.31C72.49 73.03 71.82 72.36 71.82 71.54V62.89C71.82 62.07 72.49 61.4 73.31 61.4H81.96C82.78 61.4 83.45 62.07 83.45 62.89V71.54C83.45 72.36 82.78 73.03 81.96 73.03ZM73.31 62.88V71.54L81.96 71.55C81.96 71.55 81.97 71.55 81.97 71.54V62.89H73.31V62.88Z" fill="#2D557F"/>
  <path d="M63.54 57.62H54.89C54.07 57.62 53.4 56.95 53.4 56.13V47.48C53.4 46.66 54.07 45.99 54.89 45.99H63.54C64.36 45.99 65.03 46.66 65.03 47.48V56.13C65.03 56.95 64.36 57.62 63.54 57.62ZM54.89 47.46V56.12L63.54 56.13C63.54 56.13 63.55 56.13 63.55 56.12V47.47H54.89V47.46Z" fill="#2D557F"/>
  <path d="M63.54 73.03H54.89C54.07 73.03 53.4 72.36 53.4 71.54V62.89C53.4 62.07 54.07 61.4 54.89 61.4H63.54C64.36 61.4 65.03 62.07 65.03 62.89V71.54C65.03 72.36 64.36 73.03 63.54 73.03ZM54.89 62.88V71.54L63.54 71.55C63.54 71.55 63.55 71.55 63.55 71.54V62.89H54.89V62.88Z" fill="#2D557F"/>
  <path d="M45.11 57.62H36.46C35.64 57.62 34.97 56.95 34.97 56.13V47.48C34.97 46.66 35.64 45.99 36.46 45.99H45.11C45.93 45.99 46.6 46.66 46.6 47.48V56.13C46.6 56.95 45.93 57.62 45.11 57.62ZM36.46 47.46V56.12L45.11 56.13C45.11 56.13 45.12 56.13 45.12 56.12V47.47H36.46V47.46Z" fill="#2D557F"/>
  <path d="M45.11 73.03H36.46C35.64 73.03 34.97 72.36 34.97 71.54V62.89C34.97 62.07 35.64 61.4 36.46 61.4H45.11C45.93 61.4 46.6 62.07 46.6 62.89V71.54C46.6 72.36 45.93 73.03 45.11 73.03ZM36.46 62.88V71.54L45.11 71.55C45.11 71.55 45.12 71.55 45.12 71.54V62.89H36.46V62.88Z" fill="#2D557F"/>
  <path d="M81.96 88.45H73.31C72.49 88.45 71.82 87.78 71.82 86.96V78.31C71.82 77.49 72.49 76.82 73.31 76.82H81.96C82.78 76.82 83.45 77.49 83.45 78.31V86.96C83.45 87.78 82.78 88.45 81.96 88.45ZM73.31 78.3V86.96L81.96 86.97C81.96 86.97 81.97 86.97 81.97 86.96V78.31H73.31V78.3Z" fill="#2D557F"/>
  <path d="M50 96.35C49.59 96.35 49.26 96.02 49.26 95.61V79.21C49.26 78.8 49.59 78.47 50 78.47C50.41 78.47 50.74 78.8 50.74 79.21V95.61C50.74 96.02 50.41 96.35 50 96.35Z" fill="#4279B6"/>
  <path d="M99.26 96.35H0.74C0.33 96.35 0 96.02 0 95.61C0 95.2 0.33 94.87 0.74 94.87H99.26C99.67 94.87 100 95.2 100 95.61C100 96.02 99.67 96.35 99.26 96.35Z" fill="#4279B6"/>
</svg>
