<svg xmlns="http://www.w3.org/2000/svg" width="100" height="100" viewBox="0 0 100 100" fill="none">
  <path d="M92.94 65.0499V70.5899C92.94 73.6499 90.46 76.1199 87.4 76.1199H6.23995C3.17995 76.1199 0.699951 73.6399 0.699951 70.5899V65.0499H92.94Z" fill="#4279B6"/>
  <path d="M87.41 76.81H6.24C2.8 76.81 0 74.01 0 70.58V65.04C0 64.65 0.31 64.34 0.7 64.34H92.94C93.33 64.34 93.64 64.65 93.64 65.04V70.58C93.64 74.02 90.84 76.81 87.4 76.81H87.41ZM1.4 65.74V70.58C1.4 73.24 3.57 75.41 6.24 75.41H87.41C90.08 75.41 92.25 73.24 92.25 70.58V65.74H1.4Z" fill="#0E1721"/>
  <path d="M92.94 15.24V65.0499H0.699951V15.24C0.699951 12.18 3.17995 9.69995 6.23995 9.69995H87.41C90.47 9.69995 92.95 12.18 92.95 15.24H92.94Z" fill="#4279B6"/>
  <path d="M92.94 65.74H0.7C0.31 65.74 0 65.43 0 65.04V15.24C0 11.8 2.8 9 6.24 9H87.41C90.85 9 93.65 11.8 93.65 15.24V65.05C93.65 65.44 93.34 65.75 92.95 65.75L92.94 65.74ZM1.4 64.35H92.24V15.24C92.24 12.57 90.07 10.4 87.4 10.4H6.24C3.57 10.4 1.4 12.57 1.4 15.24V64.35Z" fill="#0E1721"/>
  <path d="M35.75 91.57H28.37C27.98 91.57 27.67 91.26 27.67 90.87C27.67 90.48 27.98 90.17 28.37 90.17H35.75C36.14 90.17 36.45 90.48 36.45 90.87C36.45 91.26 36.14 91.57 35.75 91.57Z" fill="#0E1721"/>
  <path d="M57.89 90.87H35.75L39.44 76.11H54.2L57.89 90.87Z" fill="#4279B6"/>
  <path d="M57.89 91.57H35.75C35.53 91.57 35.33 91.47 35.2 91.3C35.07 91.13 35.02 90.91 35.07 90.7L38.76 75.94C38.84 75.63 39.12 75.41 39.44 75.41H54.2C54.52 75.41 54.8 75.63 54.88 75.94L58.57 90.7C58.62 90.91 58.57 91.13 58.44 91.3C58.31 91.47 58.1 91.57 57.89 91.57ZM36.65 90.17H56.99L53.65 76.81H39.99L36.65 90.17Z" fill="#0E1721"/>
  <path d="M5.21997 60.63H88.43V15.05C88.43 14.54 87.97 14.12 87.41 14.12H6.23997C5.67997 14.12 5.21997 14.54 5.21997 15.05V60.63Z" fill="white"/>
  <path d="M88.42 61.33H5.22002C4.83002 61.33 4.52002 61.02 4.52002 60.63V15.05C4.52002 14.15 5.29002 13.42 6.24002 13.42H87.41C88.36 13.42 89.13 14.15 89.13 15.05V60.63C89.13 61.02 88.82 61.33 88.43 61.33H88.42ZM5.92002 59.93H87.73V15.05C87.73 14.94 87.6 14.82 87.41 14.82H6.24002C6.05002 14.82 5.92002 14.94 5.92002 15.05V59.93Z" fill="#0E1721"/>
  <path d="M65.2699 91.57H57.8899C57.4999 91.57 57.1899 91.26 57.1899 90.87C57.1899 90.48 57.4999 90.17 57.8899 90.17H65.2699C65.6599 90.17 65.9699 90.48 65.9699 90.87C65.9699 91.26 65.6599 91.57 65.2699 91.57Z" fill="#0E1721"/>
  <path d="M22.8999 36.45H9.88989V60.66H22.8999V36.45Z" fill="#FCCD2A"/>
  <path d="M22.8999 61.36H9.88994C9.49994 61.36 9.18994 61.05 9.18994 60.66V36.45C9.18994 36.06 9.49994 35.75 9.88994 35.75H22.8999C23.2899 35.75 23.5999 36.06 23.5999 36.45V60.66C23.5999 61.05 23.2899 61.36 22.8999 61.36ZM10.5899 59.96H22.1999V37.15H10.5899V59.96Z" fill="#0E1721"/>
  <path d="M40.61 27.4199H27.6V60.6599H40.61V27.4199Z" fill="#FCCD2A"/>
  <path d="M40.61 61.36H27.6C27.21 61.36 26.9 61.05 26.9 60.66V27.42C26.9 27.03 27.21 26.72 27.6 26.72H40.61C41 26.72 41.31 27.03 41.31 27.42V60.66C41.31 61.05 41 61.36 40.61 61.36ZM28.3 59.96H39.91V28.12H28.3V59.96Z" fill="#0E1721"/>
  <path d="M58.0999 19.1H45.2999V60.65H58.0999V19.1Z" fill="#FCCD2A"/>
  <path d="M58.1 61.36H45.3C44.91 61.36 44.6 61.05 44.6 60.66V19.1C44.6 18.71 44.91 18.4 45.3 18.4H58.1C58.49 18.4 58.8 18.71 58.8 19.1V60.65C58.8 61.04 58.49 61.35 58.1 61.35V61.36ZM46 59.96H57.4V19.8H46V59.95V59.96Z" fill="#0E1721"/>
  <path d="M78.1 54.24L81.64 57.78L81.3 58.12C81.08 58.34 80.94 58.65 80.94 59C80.94 59.34 81.08 59.66 81.3 59.88L93.34 71.92C94.7 73.28 96.91 73.28 98.27 71.92C99.63 70.56 99.63 68.35 98.27 66.99L86.23 54.95C86.01 54.73 85.69 54.58 85.35 54.58C85.01 54.58 84.7 54.72 84.47 54.94L84.14 55.27L80.66 51.79L78.09 54.24H78.1Z" fill="#3C8645"/>
  <path d="M95.81 73.6301C94.74 73.6301 93.67 73.2201 92.85 72.4101L80.81 60.3701C80.44 60.0001 80.24 59.5101 80.24 58.9901C80.24 58.5501 80.39 58.1301 80.66 57.7901L77.6 54.7301C77.47 54.6001 77.39 54.4201 77.39 54.2301C77.39 54.0401 77.47 53.8601 77.61 53.7301L80.18 51.2801C80.45 51.0201 80.89 51.0201 81.16 51.2901L84.16 54.2901C84.5 54.0201 84.92 53.8801 85.36 53.8801C85.87 53.8801 86.37 54.0901 86.73 54.4501L98.77 66.4901C100.4 68.1201 100.4 70.7801 98.77 72.4101C97.95 73.2301 96.88 73.6301 95.81 73.6301ZM79.1 54.2501L82.13 57.2801C82.4 57.5501 82.4 58.0001 82.13 58.2701L81.79 58.6101C81.69 58.7101 81.63 58.8501 81.63 58.9901C81.63 59.1901 81.73 59.3201 81.79 59.3801L93.83 71.4201C94.91 72.5001 96.68 72.5001 97.77 71.4201C98.86 70.3301 98.86 68.5701 97.77 67.4801L85.73 55.4401C85.63 55.3401 85.49 55.2801 85.35 55.2801C85.21 55.2801 85.07 55.3401 84.97 55.4401L84.64 55.7701C84.38 56.0301 83.91 56.0301 83.65 55.7701L80.65 52.7701L79.1 54.2501Z" fill="#0E1721"/>
  <path d="M56.51 29.5801C50.09 36.0001 50.1 46.3901 56.51 52.8101C62.93 59.2301 73.32 59.2301 79.74 52.8101C86.15 46.4001 86.16 36.0001 79.74 29.5801C73.33 23.1701 62.92 23.1701 56.51 29.5801Z" fill="#3C8645"/>
  <path d="M68.12 58.3201C63.55 58.3201 59.25 56.5401 56.01 53.3001C52.78 50.0701 50.99 45.7701 50.99 41.1901C50.99 36.6201 52.77 32.3201 56.01 29.0801C59.24 25.8501 63.54 24.0701 68.12 24.0601C72.69 24.0601 76.99 25.8401 80.23 29.0801C83.46 32.3101 85.25 36.6201 85.25 41.1901C85.25 45.7601 83.47 50.0601 80.23 53.3001C76.99 56.5401 72.69 58.3201 68.12 58.3201ZM68.12 25.4701C63.92 25.4701 59.97 27.1101 57 30.0801C54.03 33.0501 52.39 37.0001 52.39 41.2001C52.39 45.4001 54.03 49.3501 57 52.3201C59.97 55.2901 63.92 56.9301 68.12 56.9301C72.32 56.9301 76.27 55.2901 79.24 52.3201C82.21 49.3501 83.85 45.4001 83.85 41.2001C83.85 37.0001 82.21 33.0501 79.24 30.0801C76.27 27.1101 72.32 25.4701 68.12 25.4701Z" fill="#0E1721"/>
  <path d="M58.8099 31.88C53.6599 37.03 53.6699 45.37 58.8099 50.51C63.9599 55.66 72.2899 55.66 77.4399 50.51C82.5899 45.36 82.5899 37.03 77.4399 31.88C72.2999 26.74 63.9499 26.74 58.8099 31.88Z" fill="white"/>
  <path d="M68.1199 55.06C64.5699 55.06 61.0099 53.71 58.3099 51C52.8999 45.59 52.8999 36.79 58.3099 31.38C63.7199 25.97 72.5199 25.97 77.9299 31.38C83.3399 36.79 83.3399 45.59 77.9299 51C75.2299 53.7 71.6699 55.06 68.1199 55.06ZM68.1199 28.73C64.9299 28.73 61.7299 29.95 59.2999 32.38C54.4399 37.24 54.4399 45.16 59.2999 50.02C64.1599 54.88 72.0799 54.88 76.9399 50.02C81.7999 45.16 81.7999 37.24 76.9399 32.38C74.5099 29.95 71.3099 28.73 68.1199 28.73Z" fill="#0E1721"/>
</svg>
