<svg xmlns="http://www.w3.org/2000/svg" width="100" height="100" viewBox="0 0 100 100" fill="none">
  <path d="M93.3 11.3H86.12V3.48C86.12 1.56 84.56 0 82.64 0H17.18C15.26 0 13.7 1.56 13.7 3.48V11.3H6.7C3.01 11.3 0 14.3 0 18V77.05C0 80.74 3 83.74 6.7 83.74H41.12L37.58 97.91H30.32C29.88 97.91 29.53 98.26 29.53 98.7C29.53 99.14 29.88 99.49 30.32 99.49H69.69C70.13 99.49 70.48 99.14 70.48 98.7C70.48 98.26 70.13 97.91 69.69 97.91H62.43L58.89 83.74H93.31C97 83.74 100.01 80.74 100.01 77.05V18C100.01 14.31 97.01 11.3 93.31 11.3H93.3ZM98.42 77.05C98.42 79.87 96.13 82.16 93.31 82.16H6.7C3.88 82.16 1.59 79.87 1.59 77.05V71.94H98.42V77.05ZM39.2 97.91L42.74 83.74H57.25L60.79 97.91H39.2ZM1.58 18C1.58 15.18 3.87 12.89 6.69 12.89H13.69V58.26C13.69 60.18 15.25 61.74 17.17 61.74H82.63C84.55 61.74 86.11 60.18 86.11 58.26V12.89H93.29C96.11 12.89 98.4 15.18 98.4 18V70.35H1.58V18ZM15.28 11.3V3.48C15.28 2.43 16.13 1.58 17.18 1.58H82.64C83.69 1.58 84.54 2.43 84.54 3.48V14.91H15.28V11.31V11.3ZM84.54 16.81V58.26C84.54 59.31 83.69 60.16 82.64 60.16H17.18C16.13 60.16 15.28 59.31 15.28 58.26V16.49H84.54V16.81Z" fill="#4279B6"/>
  <path d="M25.64 9.14995H74.91C75.35 9.14995 75.7 8.79995 75.7 8.35995C75.7 7.91995 75.35 7.56995 74.91 7.56995H25.64C25.2 7.56995 24.85 7.91995 24.85 8.35995C24.85 8.79995 25.2 9.14995 25.64 9.14995Z" fill="#4279B6"/>
  <path d="M93.3 16.02H86.12V17.6H93.3C93.47 17.6 93.6 17.71 93.6 17.8V65.64H6.40001V17.8C6.40001 17.7 6.53001 17.6 6.70001 17.6H13.7V16.02H6.70001C5.66001 16.02 4.82001 16.82 4.82001 17.81V66.44C4.82001 66.88 5.17001 67.23 5.61001 67.23H94.39C94.83 67.23 95.18 66.88 95.18 66.44V17.8C95.18 16.81 94.34 16.01 93.3 16.01V16.02Z" fill="#2D557F"/>
  <path d="M27.21 31.6399C29.44 31.6399 31.27 29.94 31.51 27.77H45.41C45.65 29.94 47.47 31.6399 49.71 31.6399C51.95 31.6399 53.77 29.94 54.01 27.77H67.91C68.15 29.94 69.97 31.6399 72.21 31.6399C74.61 31.6399 76.55 29.6899 76.55 27.2999C76.55 24.9099 74.6 22.95 72.21 22.95C69.98 22.95 68.15 24.65 67.91 26.82H54.01C53.77 24.65 51.95 22.95 49.71 22.95C47.47 22.95 45.65 24.65 45.41 26.82H31.51C31.27 24.65 29.45 22.95 27.21 22.95C24.81 22.95 22.86 24.8999 22.86 27.2999C22.86 29.6999 24.81 31.65 27.21 31.65V31.6399ZM75.59 27.2999C75.59 29.0099 74.32 30.43 72.67 30.66V23.93C74.32 24.16 75.59 25.58 75.59 27.29V27.2999ZM71.72 23.93V30.66C70.07 30.43 68.8 29.0099 68.8 27.2999C68.8 25.5899 70.07 24.17 71.72 23.94V23.93ZM49.7 23.9C51.57 23.9 53.1 25.4199 53.1 27.2999C53.1 29.1799 51.58 30.7 49.7 30.7C47.82 30.7 46.3 29.1799 46.3 27.2999C46.3 25.4199 47.82 23.9 49.7 23.9ZM27.21 23.9C29.08 23.9 30.61 25.4199 30.61 27.2999C30.61 29.1799 29.09 30.7 27.21 30.7C25.33 30.7 23.81 29.1799 23.81 27.2999C23.81 25.4199 25.33 23.9 27.21 23.9Z" fill="#2D557F"/>
  <path d="M26.48 29.04C26.57 29.14 26.69 29.18 26.82 29.18C26.95 29.18 27.06 29.13 27.15 29.04L29.56 26.67C29.75 26.49 29.75 26.19 29.56 26C29.37 25.81 29.08 25.81 28.89 26L26.82 28.04L25.84 27.06C25.65 26.87 25.35 26.87 25.17 27.06C24.98 27.25 24.98 27.55 25.17 27.73L26.48 29.04Z" fill="#2D557F"/>
  <path d="M48.81 29.04C48.9 29.14 49.02 29.18 49.15 29.18C49.28 29.18 49.39 29.13 49.48 29.04L51.89 26.67C52.08 26.49 52.08 26.19 51.89 26C51.71 25.81 51.41 25.81 51.22 26L49.15 28.04L48.17 27.06C47.98 26.87 47.68 26.87 47.5 27.06C47.31 27.25 47.31 27.55 47.5 27.73L48.81 29.04Z" fill="#2D557F"/>
  <path d="M48.57 45.4501C48.57 44.4801 47.78 43.6901 46.81 43.6901H25.3C24.33 43.6901 23.54 44.4801 23.54 45.4501V46.2401C23.54 47.2101 24.33 48.0001 25.3 48.0001H46.81C47.78 48.0001 48.57 47.2101 48.57 46.2401V45.4501ZM25.47 47.0401C25.09 47.0401 24.78 46.7301 24.78 46.3501V45.3301C24.78 44.9501 25.09 44.6401 25.47 44.6401H43.69V47.0401H25.47ZM47.62 46.2401C47.62 46.6901 47.26 47.0501 46.81 47.0501H44.63V44.6501H46.81C47.26 44.6501 47.62 45.0101 47.62 45.4601V46.2501V46.2401Z" fill="#2D557F"/>
  <path d="M46.81 49.99H25.13C24.25 49.99 23.54 50.7 23.54 51.58V52.7C23.54 53.58 24.25 54.29 25.13 54.29H46.81C47.78 54.29 48.57 53.5 48.57 52.53V51.74C48.57 50.77 47.78 49.98 46.81 49.98V49.99ZM25.3 53.34C24.85 53.34 24.49 52.98 24.49 52.53V51.74C24.49 51.29 24.85 50.93 25.3 50.93H32.34V53.33H25.3V53.34ZM47.62 52.53C47.62 52.98 47.26 53.34 46.81 53.34H33.29V50.94H46.81C47.26 50.94 47.62 51.3 47.62 51.75V52.54V52.53Z" fill="#2D557F"/>
  <path d="M48.57 39.15C48.57 38.18 47.78 37.39 46.81 37.39H25.3C24.33 37.39 23.54 38.18 23.54 39.15V39.94C23.54 40.91 24.33 41.7 25.3 41.7H46.81C47.78 41.7 48.57 40.91 48.57 39.94V39.15ZM47.62 39.94C47.62 40.39 47.26 40.75 46.81 40.75H25.3C24.85 40.75 24.49 40.39 24.49 39.94V39.15C24.49 38.7 24.85 38.34 25.3 38.34H46.81C47.26 38.34 47.62 38.7 47.62 39.15V39.94Z" fill="#2D557F"/>
  <path d="M66.89 34.26C60.61 34.26 55.5 39.37 55.5 45.65C55.5 51.93 60.61 57.04 66.89 57.04C73.17 57.04 78.28 51.93 78.28 45.65C78.28 39.37 73.17 34.26 66.89 34.26ZM69.99 45.66C69.99 47.37 68.6 48.76 66.89 48.76C65.18 48.76 63.79 47.37 63.79 45.66C63.79 43.95 65.18 42.55 66.89 42.55C68.6 42.55 69.99 43.94 69.99 45.66ZM66.41 35.22V41.63C66.34 41.63 66.28 41.66 66.22 41.67C66.12 41.69 66.03 41.71 65.93 41.73C65.78 41.77 65.63 41.81 65.48 41.87C65.39 41.9 65.3 41.93 65.22 41.97C65.07 42.04 64.93 42.12 64.78 42.21C64.71 42.25 64.64 42.29 64.58 42.33C64.38 42.47 64.2 42.62 64.03 42.79C63.86 42.96 63.71 43.15 63.57 43.35C63.52 43.42 63.49 43.49 63.45 43.55C63.36 43.69 63.28 43.83 63.21 43.99C63.17 44.07 63.14 44.16 63.11 44.25C63.06 44.4 63.01 44.54 62.97 44.7C62.95 44.8 62.93 44.89 62.91 44.99C62.9 45.06 62.88 45.12 62.87 45.19H56.46C56.7 39.81 61.04 35.47 66.42 35.23L66.41 35.22ZM66.89 56.1C61.29 56.1 56.7 51.67 56.46 46.13H62.89C63.13 48.14 64.82 49.71 66.9 49.71C69.13 49.71 70.95 47.89 70.95 45.66C70.95 43.59 69.38 41.89 67.37 41.65V35.22C72.91 35.47 77.34 40.05 77.34 45.65C77.34 51.25 72.65 56.09 66.9 56.09L66.89 56.1Z" fill="#2D557F"/>
</svg>
