<svg xmlns="http://www.w3.org/2000/svg" width="100" height="100" viewBox="0 0 100 100" fill="none">
  <path d="M98.78 66.49L93.64 61.35V15.24C93.64 11.8 90.84 9 87.4 9H6.24C2.8 9 0 11.8 0 15.24V70.59C0 74.03 2.8 76.82 6.24 76.82H38.55L35.21 90.18H28.37C27.98 90.18 27.67 90.49 27.67 90.88C27.67 91.27 27.98 91.58 28.37 91.58H65.27C65.66 91.58 65.97 91.27 65.97 90.88C65.97 90.49 65.66 90.18 65.27 90.18H58.44L55.1 76.82H87.41C90.09 76.82 92.36 75.11 93.24 72.73C94 73.33 94.9 73.64 95.82 73.64C96.89 73.64 97.96 73.23 98.78 72.42C100.41 70.79 100.41 68.13 98.78 66.5V66.49ZM93.85 71.42L93.59 71.16L92.25 69.82L88.18 65.75L86.78 64.35L83.76 61.33L82.36 59.93L81.81 59.38C81.75 59.32 81.65 59.19 81.65 58.99C81.65 58.85 81.71 58.71 81.81 58.61L82.15 58.27C82.42 58 82.42 57.55 82.15 57.28L79.15 54.28C79.52 53.97 79.89 53.64 80.24 53.29C80.4 53.13 80.54 52.95 80.7 52.79L83.67 55.76C83.94 56.03 84.39 56.03 84.66 55.76L84.99 55.43C85.09 55.33 85.23 55.27 85.37 55.27C85.51 55.27 85.65 55.33 85.75 55.43L87.73 57.41L89.13 58.81L92.25 61.93L93.65 63.33L97.8 67.48C98.88 68.56 98.88 70.33 97.8 71.42C96.71 72.51 94.95 72.51 93.86 71.42H93.85ZM57.4 59.93H5.92V15.05C5.92 14.94 6.05 14.82 6.24 14.82H87.41C87.6 14.82 87.73 14.94 87.73 15.05V55.44L86.74 54.45C86.38 54.09 85.88 53.88 85.37 53.88C84.93 53.88 84.51 54.03 84.17 54.29L81.61 51.73C83.96 48.73 85.25 45.06 85.25 41.19C85.25 36.62 83.47 32.31 80.23 29.08C77 25.85 72.7 24.06 68.12 24.06C64.76 24.06 61.55 25.03 58.8 26.82C58.32 27.13 57.85 27.47 57.4 27.83C56.92 28.22 56.45 28.63 56.01 29.07C52.78 32.31 50.99 36.61 50.99 41.18C50.99 45.75 52.77 50.05 56.01 53.29C56.45 53.73 56.92 54.14 57.4 54.53C57.85 54.89 58.32 55.23 58.8 55.54C61.55 57.33 64.76 58.3 68.12 58.3C71.72 58.3 75.15 57.18 78.02 55.13L80.66 57.77C80.39 58.11 80.24 58.53 80.24 58.97C80.24 59.31 80.35 59.62 80.51 59.91H57.39L57.4 59.93ZM68.12 56.92C64.72 56.92 61.49 55.83 58.8 53.84C58.31 53.48 57.85 53.09 57.4 52.68C57.27 52.56 57.13 52.45 57 52.32C54.03 49.35 52.39 45.4 52.39 41.2C52.39 37 54.03 33.05 57 30.08C57.13 29.95 57.27 29.84 57.4 29.72C57.85 29.3 58.31 28.91 58.8 28.56C61.49 26.57 64.72 25.48 68.12 25.48C72.32 25.48 76.27 27.12 79.24 30.08C82.21 33.05 83.85 37 83.85 41.2C83.85 44.98 82.51 48.55 80.09 51.39C79.82 51.71 79.55 52.02 79.25 52.32C78.78 52.79 78.27 53.22 77.75 53.62C75.01 55.75 71.66 56.92 68.13 56.92H68.12ZM1.4 15.24C1.4 12.57 3.57 10.4 6.24 10.4H87.41C90.08 10.4 92.25 12.57 92.25 15.24V59.96L89.13 56.84V15.05C89.13 14.15 88.36 13.42 87.41 13.42H6.24C5.29 13.42 4.52 14.15 4.52 15.05V60.63C4.52 61.02 4.83 61.33 5.22 61.33H81.78L84.8 64.35H1.4V15.24ZM56.99 90.17H36.65L39.99 76.81H53.65L56.99 90.17ZM87.41 75.41H6.24C3.57 75.41 1.4 73.24 1.4 70.58V65.74H86.19L92.11 71.66C91.62 73.8 89.7 75.41 87.41 75.41Z" fill="#4279B6"/>
  <path d="M22.8999 35.75H9.88994C9.49994 35.75 9.18994 36.06 9.18994 36.45V59.93H10.5899V37.15H22.1999V59.93H23.5999V36.45C23.5999 36.06 23.2899 35.75 22.8999 35.75Z" fill="#2D557F"/>
  <path d="M40.6099 26.7201H27.5999C27.2099 26.7201 26.8999 27.0301 26.8999 27.4201V59.9301H28.2999V28.1201H39.9099V59.9301H41.3099V27.4201C41.3099 27.0301 40.9999 26.7201 40.6099 26.7201Z" fill="#2D557F"/>
  <path d="M57.4 27.85C57.85 27.49 58.32 27.15 58.8 26.84V19.11C58.8 18.72 58.49 18.41 58.1 18.41H45.3C44.91 18.41 44.6 18.72 44.6 19.11V59.94H46V19.8H57.4V27.84V27.85Z" fill="#2D557F"/>
  <path d="M57.3999 59.93H58.7999V55.5601C58.3199 55.2501 57.8499 54.91 57.3999 54.55V59.94V59.93Z" fill="#2D557F"/>
  <path d="M76.83 32.49C74.5 30.16 71.41 28.88 68.12 28.88C64.83 28.88 61.74 30.16 59.41 32.49C59.18 32.72 59.01 32.99 58.8 33.24C58.26 33.87 57.79 34.54 57.4 35.25C55.36 38.95 55.36 43.44 57.4 47.13C57.79 47.84 58.26 48.51 58.8 49.14C59.01 49.39 59.18 49.66 59.41 49.89C61.74 52.22 64.83 53.5 68.12 53.5C71.41 53.5 74.5 52.22 76.83 49.89C79.16 47.56 80.44 44.47 80.44 41.18C80.44 37.89 79.16 34.8 76.83 32.47V32.49ZM75.84 48.91C73.78 50.97 71.04 52.11 68.12 52.11C65.2 52.11 62.46 50.97 60.4 48.91C59.76 48.27 59.25 47.55 58.8 46.81C58.11 45.67 57.63 44.44 57.4 43.17C57.16 41.87 57.16 40.53 57.4 39.23C57.63 37.96 58.11 36.73 58.8 35.59C59.25 34.84 59.76 34.13 60.4 33.49C62.46 31.43 65.2 30.29 68.12 30.29C71.04 30.29 73.78 31.43 75.84 33.49C77.9 35.55 79.04 38.29 79.04 41.21C79.04 44.12 77.9 46.87 75.84 48.93V48.91Z" fill="#2D557F"/>
</svg>
