<svg xmlns="http://www.w3.org/2000/svg" width="100" height="100" viewBox="0 0 100 100" fill="none">
  <path d="M99.21 71.1501V77.0601C99.21 80.3201 96.57 82.9601 93.3 82.9601H6.7C3.44 82.9601 0.790001 80.3201 0.790001 77.0601V71.1501H99.21Z" fill="#4279B6"/>
  <path d="M93.3 83.7501H6.7C3.01 83.7501 0 80.7501 0 77.0601V71.1501C0 70.7101 0.35 70.3601 0.79 70.3601H99.21C99.65 70.3601 100 70.7101 100 71.1501V77.0601C100 80.7501 97 83.7501 93.3 83.7501ZM1.58 71.9401V77.0501C1.58 79.8701 3.87 82.1601 6.69 82.1601H93.29C96.11 82.1601 98.4 79.8701 98.4 77.0501V71.9401H1.58Z" fill="#0E1721"/>
  <path d="M99.21 18.0001V71.1401H0.790001V18.0001C0.790001 14.7401 3.43 12.0901 6.7 12.0901H93.3C96.56 12.0901 99.21 14.7301 99.21 18.0001Z" fill="#4279B6"/>
  <path d="M99.21 71.9401H0.79C0.35 71.9401 0 71.59 0 71.1501V18C0 14.31 3 11.3 6.7 11.3H93.3C96.99 11.3 100 14.3 100 18V71.14C100 71.58 99.65 71.93 99.21 71.93V71.9401ZM1.58 70.3601H98.41V18C98.41 15.18 96.12 12.89 93.3 12.89H6.7C3.88 12.89 1.59 15.18 1.59 18V70.35L1.58 70.3601Z" fill="#0E1721"/>
  <path d="M38.19 99.5H30.31C29.87 99.5 29.52 99.15 29.52 98.71C29.52 98.27 29.87 97.92 30.31 97.92H38.19C38.63 97.92 38.98 98.27 38.98 98.71C38.98 99.15 38.63 99.5 38.19 99.5Z" fill="#0E1721"/>
  <path d="M69.69 99.5H61.81C61.37 99.5 61.02 99.15 61.02 98.71C61.02 98.27 61.37 97.92 61.81 97.92H69.69C70.13 97.92 70.48 98.27 70.48 98.71C70.48 99.15 70.13 99.5 69.69 99.5Z" fill="#0E1721"/>
  <path d="M61.81 98.7001H38.19L42.13 82.9601H57.87L61.81 98.7001Z" fill="#4279B6"/>
  <path d="M61.81 99.5H38.19C37.95 99.5 37.72 99.39 37.57 99.2C37.42 99.01 37.37 98.76 37.43 98.52L41.37 82.77C41.46 82.42 41.77 82.17 42.14 82.17H57.88C58.24 82.17 58.56 82.42 58.65 82.77L62.59 98.52C62.65 98.76 62.59 99.01 62.45 99.2C62.3 99.39 62.07 99.5 61.83 99.5H61.81ZM39.2 97.91H60.79L57.25 83.74H42.74L39.2 97.91Z" fill="#0E1721"/>
  <path d="M5.61 66.4301H94.39V17.8001C94.39 17.2501 93.9 16.8101 93.3 16.8101H6.7C6.1 16.8101 5.61 17.2601 5.61 17.8001V66.4301Z" fill="white"/>
  <path d="M94.39 67.23H5.61C5.17 67.23 4.82 66.88 4.82 66.44V17.8C4.82 16.81 5.66 16.01 6.7 16.01H93.3C94.34 16.01 95.18 16.81 95.18 17.8V66.43C95.18 66.87 94.83 67.22 94.39 67.22V67.23ZM6.4 65.64H93.6V17.8C93.6 17.7 93.47 17.6 93.3 17.6H6.7C6.53 17.6 6.4 17.71 6.4 17.8V65.64Z" fill="#0E1721"/>
  <path d="M85.33 3.48004V35.24H14.49V3.48004C14.49 1.99004 15.69 0.790039 17.18 0.790039H82.64C84.13 0.790039 85.33 1.99004 85.33 3.48004Z" fill="white"/>
  <path d="M85.33 36.03H14.49C14.05 36.03 13.7 35.68 13.7 35.24V3.48C13.7 1.56 15.26 0 17.18 0H82.64C84.56 0 86.12 1.56 86.12 3.48V35.24C86.12 35.68 85.77 36.03 85.33 36.03ZM15.28 34.45H84.54V3.48C84.54 2.43 83.69 1.58 82.64 1.58H17.18C16.13 1.58 15.28 2.43 15.28 3.48V34.44V34.45Z" fill="#0E1721"/>
  <path d="M85.33 35.24V58.26C85.33 59.75 84.13 60.95 82.64 60.95H17.18C15.69 60.95 14.49 59.75 14.49 58.26V35.24H85.33Z" fill="#4279B6"/>
  <path d="M82.64 61.74H17.18C15.26 61.74 13.7 60.1799 13.7 58.2599V35.24C13.7 34.8 14.05 34.45 14.49 34.45H85.33C85.77 34.45 86.12 34.8 86.12 35.24V58.2599C86.12 60.1799 84.56 61.74 82.64 61.74ZM15.28 36.0299V58.2599C15.28 59.3099 16.13 60.16 17.18 60.16H82.64C83.69 60.16 84.54 59.3099 84.54 58.2599V36.0299H15.28Z" fill="#0E1721"/>
  <path d="M73.05 14.56C73.05 14.56 73 14.56 72.97 14.56C57.67 13.11 42.15 13.11 26.85 14.56C26.41 14.6 26.03 14.28 25.99 13.85C25.95 13.41 26.27 13.03 26.7 12.99C42.1 11.53 57.72 11.53 73.12 12.99C73.56 13.03 73.87 13.42 73.83 13.85C73.79 14.26 73.45 14.57 73.04 14.57L73.05 14.56Z" fill="#FC8B27"/>
  <path d="M71.27 21.55H28.55C28.11 21.55 27.76 21.2 27.76 20.76C27.76 20.32 28.11 19.97 28.55 19.97H71.27C71.71 19.97 72.06 20.32 72.06 20.76C72.06 21.2 71.71 21.55 71.27 21.55Z" fill="#0E1721"/>
  <path d="M49.91 45.57H28.55C28.11 45.57 27.76 45.22 27.76 44.78C27.76 44.34 28.11 43.99 28.55 43.99H49.91C50.35 43.99 50.7 44.34 50.7 44.78C50.7 45.22 50.35 45.57 49.91 45.57Z" fill="#0E1721"/>
  <path d="M49.91 49.31H28.55C28.11 49.31 27.76 48.96 27.76 48.52C27.76 48.08 28.11 47.73 28.55 47.73H49.91C50.35 47.73 50.7 48.08 50.7 48.52C50.7 48.96 50.35 49.31 49.91 49.31Z" fill="#0E1721"/>
  <path d="M71.27 26.0101H28.55C28.11 26.0101 27.76 25.6601 27.76 25.2201C27.76 24.7801 28.11 24.4301 28.55 24.4301H71.27C71.71 24.4301 72.06 24.7801 72.06 25.2201C72.06 25.6601 71.71 26.0101 71.27 26.0101Z" fill="#0E1721"/>
  <path d="M68.28 55.5301C68.18 55.5001 67.83 55.5501 67.65 55.5801C67.03 55.6601 66.26 55.7701 65.6 55.2901C64.93 54.8001 64.8 54.0401 64.68 53.4201C64.64 53.2201 64.58 52.8901 64.53 52.8101C64.47 52.7401 64.18 52.5801 64.01 52.4901C63.45 52.1901 62.76 51.8201 62.5 51.0301C62.44 50.8501 62.41 50.6701 62.41 50.4701C62.41 49.9201 62.64 49.4301 62.85 49.0101C62.94 48.8201 63.1 48.5001 63.1 48.3901C63.1 48.2801 62.94 47.9501 62.85 47.7801C62.64 47.3501 62.41 46.8601 62.41 46.3101C62.41 46.1201 62.44 45.9301 62.5 45.7501C62.76 44.9601 63.45 44.5901 64.01 44.2901C64.17 44.2001 64.47 44.0401 64.54 43.9601C64.59 43.8801 64.65 43.5501 64.69 43.3501C64.8 42.7301 64.94 41.9601 65.61 41.4801C66.27 41.0001 67.04 41.1001 67.66 41.1901C67.87 41.2201 68.2 41.2601 68.3 41.2401C68.38 41.2001 68.61 40.9801 68.75 40.8501C69.18 40.4301 69.78 39.8601 70.62 39.8601C71.46 39.8601 72.03 40.4101 72.49 40.8501C72.62 40.9801 72.86 41.2101 72.95 41.2501C73.04 41.2801 73.38 41.2301 73.58 41.2001C74.2 41.1201 74.97 41.0101 75.63 41.4901C76.3 41.9701 76.43 42.7401 76.55 43.3601C76.59 43.5601 76.65 43.8901 76.7 43.9801C76.76 44.0501 77.05 44.2101 77.22 44.3001C77.78 44.6001 78.47 44.9701 78.73 45.7601C78.79 45.9401 78.82 46.1201 78.82 46.3201C78.82 46.8701 78.59 47.3601 78.38 47.7901C78.29 47.9801 78.14 48.3001 78.13 48.4001C78.13 48.5101 78.29 48.8401 78.38 49.0101C78.59 49.4401 78.82 49.9201 78.82 50.4801C78.82 50.6701 78.79 50.8601 78.73 51.0401C78.47 51.8301 77.75 52.2201 77.22 52.5001C77.04 52.5901 76.76 52.7501 76.69 52.8301C76.64 52.9101 76.58 53.2401 76.54 53.4401C76.43 54.0601 76.29 54.8301 75.62 55.3101C74.96 55.7901 74.19 55.6901 73.57 55.6001C73.38 55.5701 73.03 55.5301 72.93 55.5501C72.85 55.5901 72.62 55.8101 72.48 55.9401C72.02 56.3801 71.45 56.9301 70.61 56.9301C69.77 56.9301 69.17 56.3601 68.74 55.9401C68.6 55.8101 68.37 55.5901 68.28 55.5501V55.5301Z" fill="#FCCD2A"/>
  <path d="M70.61 57.7001C69.45 57.7001 68.66 56.9401 68.19 56.4901C68.16 56.4601 68.08 56.3901 68.02 56.3301C67.92 56.3401 67.81 56.3601 67.76 56.3601C67.07 56.4501 66.05 56.5901 65.13 55.9201C64.21 55.2501 64.02 54.2301 63.9 53.5501C63.9 53.5001 63.87 53.3901 63.85 53.2901C63.77 53.2401 63.68 53.1901 63.63 53.1701C63.02 52.8401 62.1 52.3501 61.74 51.2601C61.66 51.0101 61.61 50.7401 61.61 50.4601C61.61 49.7301 61.9 49.1301 62.12 48.6601C62.15 48.6001 62.21 48.4801 62.25 48.3801C62.22 48.3101 62.18 48.2201 62.12 48.1101C61.89 47.6301 61.6 47.0301 61.6 46.3001C61.6 46.0301 61.64 45.7601 61.72 45.5001C62.08 44.4101 63 43.9101 63.61 43.5901C63.66 43.5601 63.75 43.5201 63.83 43.4701C63.84 43.4001 63.86 43.3201 63.88 43.2201C64 42.5401 64.19 41.5201 65.11 40.8501C66.03 40.1801 67.05 40.3201 67.73 40.4101C67.78 40.4101 67.89 40.4301 68 40.4401C68.07 40.3801 68.14 40.3101 68.17 40.2701C68.64 39.8201 69.43 39.0601 70.59 39.0601C71.75 39.0601 72.51 39.7901 73.01 40.2701C73.08 40.3401 73.14 40.3901 73.19 40.4401C73.29 40.4301 73.4 40.4101 73.45 40.4101C74.13 40.3201 75.16 40.1801 76.08 40.8501C77 41.5201 77.19 42.5401 77.31 43.2201C77.32 43.2801 77.34 43.3801 77.36 43.4801C77.44 43.5301 77.54 43.5801 77.58 43.6001C78.19 43.9301 79.11 44.4201 79.47 45.5101C79.55 45.7701 79.59 46.0401 79.59 46.3101C79.59 47.0401 79.3 47.6401 79.07 48.1201C79.04 48.1801 78.99 48.3001 78.94 48.3901C78.98 48.4901 79.04 48.6101 79.07 48.6601C79.3 49.1401 79.59 49.7401 79.59 50.4701C79.59 50.7501 79.55 51.0201 79.47 51.2701C79.11 52.3701 78.16 52.8801 77.58 53.1801C77.53 53.2101 77.44 53.2501 77.36 53.3001C77.35 53.3701 77.33 53.4501 77.31 53.5501C77.19 54.2301 77 55.2501 76.08 55.9201C75.16 56.5901 74.14 56.4501 73.46 56.3601C73.4 56.3601 73.29 56.3401 73.19 56.3301C73.12 56.3901 73.05 56.4601 73.02 56.4901C72.52 56.9701 71.76 57.7001 70.6 57.7001H70.61ZM68.19 54.7301C68.3 54.7301 68.4 54.7401 68.49 54.7701C68.52 54.7701 68.56 54.7901 68.59 54.8001C68.78 54.8801 68.96 55.0401 69.29 55.3501C69.66 55.7101 70.08 56.1201 70.61 56.1201C71.1 56.1201 71.45 55.8201 71.93 55.3501C72.26 55.0301 72.43 54.8801 72.62 54.8001C72.65 54.7901 72.69 54.7701 72.72 54.7601C72.94 54.7001 73.19 54.7201 73.67 54.7801C74.21 54.8501 74.75 54.9301 75.16 54.6301C75.54 54.3501 75.65 53.9101 75.76 53.2601C75.85 52.7801 75.9 52.5601 76.01 52.3701C76.03 52.3401 76.05 52.3101 76.08 52.2801C76.22 52.1201 76.42 52.0001 76.83 51.7701C77.29 51.5201 77.81 51.2501 77.97 50.7601C78 50.6601 78.02 50.5601 78.02 50.4501C78.02 50.0801 77.84 49.7001 77.66 49.3301C77.44 48.8701 77.34 48.6301 77.34 48.3901C77.34 48.3801 77.34 48.3601 77.34 48.3501C77.34 48.1101 77.44 47.8901 77.66 47.4301C77.85 47.0401 78.03 46.6601 78.03 46.2901C78.03 46.1801 78.01 46.0701 77.98 45.9801C77.83 45.5301 77.44 45.2901 76.85 44.9701C76.43 44.7501 76.23 44.6301 76.1 44.4601C76.08 44.4301 76.06 44.4101 76.04 44.3801C75.92 44.1901 75.86 43.9601 75.78 43.4901C75.68 42.9501 75.58 42.4001 75.17 42.1101C74.77 41.8201 74.22 41.8901 73.69 41.9601C73.2 42.0301 72.96 42.0401 72.75 41.9901C72.71 41.9901 72.68 41.9701 72.64 41.9501C72.45 41.8701 72.27 41.7101 71.94 41.4001C71.55 41.0201 71.14 40.6301 70.62 40.6301C70.1 40.6301 69.67 41.0401 69.3 41.4001C68.95 41.7401 68.8 41.8701 68.61 41.9501C68.58 41.9601 68.54 41.9801 68.5 41.9901C68.28 42.0501 68.04 42.0301 67.54 41.9701C67.01 41.9001 66.47 41.8301 66.06 42.1201C65.65 42.4201 65.55 42.9601 65.46 43.4901C65.38 43.9701 65.32 44.1901 65.2 44.3801C65.18 44.4101 65.16 44.4401 65.14 44.4701C65 44.6401 64.8 44.7601 64.39 44.9801C63.9 45.2401 63.41 45.5001 63.25 45.9901C63.22 46.0901 63.2 46.1901 63.2 46.3001C63.2 46.6701 63.38 47.0401 63.56 47.4201C63.78 47.8701 63.88 48.1201 63.88 48.3601C63.88 48.3701 63.88 48.3901 63.88 48.4001C63.88 48.6401 63.78 48.8701 63.56 49.3301C63.38 49.7101 63.2 50.0901 63.2 50.4601C63.2 50.5701 63.22 50.6701 63.25 50.7701C63.41 51.2601 63.9 51.5201 64.38 51.7801C64.8 52.0001 65 52.1201 65.13 52.2801C65.15 52.3101 65.18 52.3401 65.2 52.3701C65.32 52.5601 65.38 52.7901 65.46 53.2701C65.56 53.8001 65.65 54.3401 66.06 54.6401C66.46 54.9301 67.01 54.8601 67.54 54.7901C67.83 54.7501 68.03 54.7301 68.19 54.7301Z" fill="#0E1721"/>
</svg>
