<svg xmlns="http://www.w3.org/2000/svg" width="100" height="100" viewBox="0 0 100 100" fill="none">
  <path d="M0.72998 70.14V75.07C0.72998 77.79 2.93998 80 5.65998 80H94.34C97.06 80 99.27 77.79 99.27 75.07V70.14H0.72998Z" fill="#4279B6"/>
  <path d="M94.34 80.72H5.66C2.54 80.72 0 78.18 0 75.06V70.13C0 69.72 0.33 69.4 0.73 69.4H99.26C99.67 69.4 99.99 69.73 99.99 70.13V75.06C99.99 78.18 97.45 80.72 94.33 80.72H94.34ZM1.47 70.87V75.06C1.47 77.37 3.35 79.25 5.66 79.25H94.34C96.65 79.25 98.53 77.37 98.53 75.06V70.87H1.47Z" fill="#0E1721"/>
  <path d="M99.27 12.66C99.27 9.93998 97.06 7.72998 94.34 7.72998H5.65998C2.93998 7.72998 0.72998 9.93998 0.72998 12.66V70.14H99.26V12.66H99.27Z" fill="#4279B6"/>
  <path d="M99.27 70.87H0.73C0.32 70.87 0 70.54 0 70.14V12.66C0 9.54 2.54 7 5.66 7H94.34C97.46 7 100 9.54 100 12.66V70.14C100 70.55 99.67 70.87 99.27 70.87ZM1.47 69.4H98.54V12.66C98.54 10.35 96.66 8.47 94.35 8.47H5.66C3.35 8.47 1.47 10.35 1.47 12.66V69.4Z" fill="#0E1721"/>
  <path d="M38.5 92.85L43.43 79.99H56.57L61.5 92.85" fill="#4279B6"/>
  <path d="M61.5 93.58C61.2 93.58 60.93 93.4 60.81 93.11L56.06 80.72H43.93L39.18 93.11C39.03 93.49 38.61 93.68 38.23 93.53C37.85 93.39 37.66 92.96 37.81 92.58L42.74 79.72C42.85 79.44 43.12 79.25 43.43 79.25H56.57C56.87 79.25 57.15 79.44 57.26 79.72L62.19 92.58C62.33 92.96 62.15 93.38 61.77 93.53C61.68 93.56 61.59 93.58 61.51 93.58H61.5Z" fill="#0E1721"/>
  <path d="M4.29004 12.11L4.29004 65.76C4.29004 66.2957 4.72432 66.73 5.26004 66.73H94.72C95.2558 66.73 95.69 66.2957 95.69 65.76V12.11C95.69 11.5743 95.2558 11.14 94.72 11.14L5.26004 11.14C4.72432 11.14 4.29004 11.5743 4.29004 12.11Z" fill="white"/>
  <path d="M93.7601 67.46H6.24006C4.76006 67.46 3.56006 66.26 3.56006 64.78V13.09C3.56006 11.61 4.76006 10.41 6.24006 10.41H93.7501C95.2301 10.41 96.4301 11.61 96.4301 13.09V64.79C96.4301 66.27 95.2301 67.47 93.7501 67.47L93.7601 67.46ZM6.24006 11.88C5.57006 11.88 5.03006 12.42 5.03006 13.09V64.79C5.03006 65.46 5.57006 66 6.24006 66H93.7501C94.4201 66 94.9601 65.46 94.9601 64.79V13.09C94.9601 12.42 94.4201 11.88 93.7501 11.88H6.24006Z" fill="#0E1721"/>
  <path d="M69.7101 93.58H30.2901C29.8801 93.58 29.5601 93.25 29.5601 92.85C29.5601 92.45 29.8901 92.12 30.2901 92.12H69.7001C70.1101 92.12 70.4301 92.45 70.4301 92.85C70.4301 93.25 70.1001 93.58 69.7001 93.58H69.7101Z" fill="#0E1721"/>
  <path d="M64.3701 44.4301L55.1301 49.7101C54.3901 50.1401 53.9301 50.9301 53.9301 51.7801V53.3801C53.9301 55.8501 55.9301 57.8601 58.4101 57.8601H79.3001C81.7701 57.8601 83.7801 55.8601 83.7801 53.3801V51.7801C83.7801 50.9201 83.3201 50.1301 82.5801 49.7101L73.34 44.4301H64.3901H64.3701Z" fill="#FC8B27"/>
  <path d="M79.2901 58.6001H58.4001C55.5301 58.6001 53.1901 56.2601 53.1901 53.3901V51.7901C53.1901 50.6701 53.7901 49.6301 54.7601 49.0801L64.1701 43.7001H73.5101L82.9201 49.0801C83.8901 49.6301 84.4901 50.6701 84.4901 51.7901V53.3901C84.4901 56.2601 82.1501 58.6001 79.2801 58.6001H79.2901ZM64.5601 45.1701L55.4901 50.3501C54.9801 50.6401 54.6601 51.1901 54.6601 51.7901V53.3901C54.6601 55.4501 56.3401 57.1301 58.4001 57.1301H79.2901C81.3501 57.1301 83.0301 55.4501 83.0301 53.3901V51.7901C83.0301 51.2001 82.7101 50.6501 82.2001 50.3501L73.1301 45.1701H64.5701H64.5601Z" fill="#0E1721"/>
  <path d="M76.31 35.48C76.31 32.5 74.82 28.02 68.85 28.02C62.88 28.02 61.39 32.5 61.39 35.48V36.97C61.39 41.45 64.37 45.92 68.85 45.92C73.33 45.92 76.31 41.44 76.31 36.97V35.48Z" fill="white"/>
  <path d="M68.85 46.66C63.79 46.66 60.66 41.63 60.66 36.97V35.48C60.66 31.7 62.81 27.29 68.85 27.29C74.89 27.29 77.04 31.7 77.04 35.48V36.97C77.04 41.63 73.91 46.66 68.85 46.66ZM68.85 28.76C62.61 28.76 62.12 33.91 62.12 35.49V36.98C62.12 40.93 64.69 45.2 68.85 45.2C73.01 45.2 75.58 40.93 75.58 36.98V35.49C75.58 33.91 75.09 28.76 68.85 28.76Z" fill="#0E1721"/>
  <path d="M26.73 44.4401L17.5 49.7101C16.75 50.1401 16.29 50.9401 16.29 51.8001V53.3901C16.29 55.8601 18.29 57.8701 20.77 57.8701H41.66C44.13 57.8701 46.14 55.8701 46.14 53.3901V51.8001C46.14 50.9401 45.68 50.1401 44.93 49.7101L35.7 44.4401H26.75H26.73Z" fill="#FCCD2A"/>
  <path d="M41.6501 58.6001H20.76C17.89 58.6001 15.55 56.2601 15.55 53.3901V51.8001C15.55 50.6701 16.16 49.6301 17.13 49.0701L26.53 43.7001H35.87L45.2701 49.0701C46.25 49.6301 46.85 50.6701 46.85 51.8001V53.3901C46.85 56.2601 44.51 58.6001 41.64 58.6001H41.6501ZM26.92 45.1701L17.86 50.3501C17.34 50.6501 17.02 51.2101 17.02 51.8101V53.4001C17.02 55.4601 18.7 57.1401 20.76 57.1401H41.6501C43.7101 57.1401 45.39 55.4601 45.39 53.4001V51.8101C45.39 51.2101 45.07 50.6501 44.55 50.3501L35.4901 45.1701H26.93H26.92Z" fill="#0E1721"/>
  <path d="M38.66 35.48C38.66 32.5 37.17 28.02 31.2 28.02C25.23 28.02 23.74 32.5 23.74 35.48V36.97C23.74 41.45 26.72 45.92 31.2 45.92C35.68 45.92 38.66 41.44 38.66 36.97V35.48Z" fill="white"/>
  <path d="M31.2 46.66C26.14 46.66 23.01 41.63 23.01 36.97V35.48C23.01 31.7 25.16 27.29 31.2 27.29C37.24 27.29 39.39 31.7 39.39 35.48V36.97C39.39 41.63 36.26 46.66 31.2 46.66ZM31.2 28.76C24.96 28.76 24.47 33.91 24.47 35.49V36.98C24.47 40.93 27.04 45.2 31.2 45.2C35.36 45.2 37.93 40.93 37.93 36.98V35.49C37.93 33.91 37.44 28.76 31.2 28.76Z" fill="#0E1721"/>
  <path d="M44.4 40.86L32.8 47.49C31.87 48.02 31.29 49.02 31.29 50.09V52.1C31.29 55.2 33.81 57.72 36.91 57.72H63.14C66.24 57.72 68.76 55.2 68.76 52.1V50.09C68.76 49.01 68.18 48.02 67.25 47.49L55.65 40.86H44.41H44.4Z" fill="#3C8645"/>
  <path d="M63.1401 58.45H36.9101C33.4101 58.45 30.5601 55.6 30.5601 52.1V50.09C30.5601 48.75 31.2801 47.51 32.4401 46.85L44.2101 40.12H55.8401L67.6101 46.85C68.7701 47.51 69.4901 48.75 69.4901 50.09V52.1C69.4901 55.6 66.6401 58.45 63.1401 58.45ZM44.6001 41.59L33.1701 48.12C32.4701 48.52 32.0301 49.28 32.0301 50.09V52.1C32.0301 54.79 34.2201 56.99 36.9201 56.99H63.1501C65.8401 56.99 68.0401 54.8 68.0401 52.1V50.09C68.0401 49.28 67.6001 48.53 66.9001 48.12L55.4701 41.59H44.6201H44.6001Z" fill="#0E1721"/>
  <path d="M59.39 29.62C59.39 25.87 57.52 20.25 50.02 20.25C42.52 20.25 40.65 25.87 40.65 29.62V31.49C40.65 37.11 44.4 42.73 50.02 42.73C55.64 42.73 59.39 37.11 59.39 31.49V29.62Z" fill="white"/>
  <path d="M50.02 43.47C43.78 43.47 39.92 37.25 39.92 31.5V29.63C39.92 24.97 42.57 19.53 50.02 19.53C57.47 19.53 60.12 24.97 60.12 29.63V31.5C60.12 37.26 56.26 43.47 50.02 43.47ZM50.02 20.99C41.8 20.99 41.39 28.18 41.39 29.62V31.49C41.39 36.54 44.69 42 50.02 42C54.17 42 58.65 37.98 58.65 31.49V29.62C58.65 28.18 58.23 20.99 50.02 20.99Z" fill="#0E1721"/>
</svg>
