<svg xmlns="http://www.w3.org/2000/svg" width="100" height="100" viewBox="0 0 100 100" fill="none">
  <path d="M82.93 48.3401L74.33 43.4301C76.07 41.5401 77.04 38.8301 77.04 36.2401V34.7501C77.04 30.9701 74.89 26.5601 68.85 26.5601C62.81 26.5601 60.66 30.9701 60.66 34.7501V36.2401C60.66 38.8301 61.63 41.5401 63.37 43.4301L62.5 43.9301L63.24 44.3501L63.98 44.7701L64.52 44.4601C65.73 45.3601 67.18 45.9201 68.86 45.9201C70.54 45.9201 71.99 45.3601 73.2 44.4601L82.22 49.6101C82.73 49.9001 83.05 50.4501 83.05 51.0501V52.6501C83.05 54.7101 81.37 56.3901 79.31 56.3901H67.81C67.56 56.6601 67.29 56.9001 67 57.1201C66.63 57.4101 66.23 57.6601 65.8 57.8501H79.32C82.19 57.8501 84.53 55.5101 84.53 52.6401V51.0401C84.53 49.9201 83.93 48.8801 82.96 48.3301L82.93 48.3401ZM69.04 44.4401C68.97 44.4401 68.92 44.4601 68.85 44.4601C68.78 44.4601 68.72 44.4401 68.66 44.4401C67.68 44.4101 66.79 44.1501 66.01 43.7101C65.65 43.5001 65.31 43.2501 64.99 42.9801C63.17 41.3901 62.13 38.7601 62.13 36.2501V34.7601C62.13 33.1801 62.62 28.0301 68.86 28.0301C75.1 28.0301 75.59 33.1801 75.59 34.7601V36.2501C75.59 38.7601 74.55 41.3901 72.73 42.9801C72.41 43.2601 72.08 43.5101 71.71 43.7101C70.93 44.1601 70.03 44.4101 69.06 44.4401H69.04Z" fill="#2D557F"/>
  <path d="M31.2 26.55C25.15 26.55 23.01 30.96 23.01 34.74V36.23C23.01 38.82 23.98 41.53 25.72 43.42L17.13 48.3301C16.15 48.8901 15.55 49.9301 15.55 51.0601V52.6501C15.55 55.5201 17.89 57.8601 20.76 57.8601H34.2701C33.84 57.66 33.4401 57.4101 33.07 57.1301C32.78 56.9101 32.51 56.6701 32.26 56.4001H20.76C18.7 56.4001 17.02 54.72 17.02 52.66V51.07C17.02 50.47 17.34 49.91 17.86 49.6101L26.87 44.46C28.08 45.36 29.53 45.92 31.21 45.92C32.89 45.92 34.34 45.36 35.55 44.46L36.09 44.7701L36.8301 44.35L37.57 43.93L36.7001 43.43C38.4401 41.54 39.41 38.83 39.41 36.24V34.75C39.41 30.97 37.26 26.56 31.22 26.56L31.2 26.55ZM37.93 36.24C37.93 38.75 36.89 41.3801 35.07 42.9701C34.75 43.2501 34.42 43.5 34.05 43.7001C33.27 44.1501 32.38 44.4 31.4 44.43C31.33 44.43 31.27 44.4501 31.21 44.4501C31.15 44.4501 31.08 44.43 31.02 44.43C30.04 44.4 29.15 44.1401 28.37 43.7001C28.01 43.4901 27.67 43.2401 27.35 42.9701C25.53 41.3801 24.49 38.75 24.49 36.24V34.75C24.49 33.17 24.98 28.0201 31.22 28.0201C37.46 28.0201 37.9501 33.17 37.9501 34.75V36.24H37.93Z" fill="#2D557F"/>
  <path d="M94.34 7H5.66C2.54 7 0 9.54 0 12.66V75.06C0 78.18 2.54 80.72 5.66 80.72H42.36L38 92.11H30.29C29.88 92.11 29.56 92.44 29.56 92.84C29.56 93.24 29.89 93.57 30.29 93.57H61.49H69.7C70.11 93.57 70.43 93.24 70.43 92.84C70.43 92.44 70.1 92.11 69.7 92.11H61.99L57.63 80.72H94.33C97.45 80.72 99.99 78.18 99.99 75.06V12.66C99.99 9.54 97.45 7 94.33 7H94.34ZM98.53 75.06C98.53 77.37 96.65 79.25 94.34 79.25H5.66C3.35 79.25 1.47 77.37 1.47 75.06V70.87H98.54V75.06H98.53ZM39.57 92.11L43.93 80.72H56.06L60.42 92.11H39.56H39.57ZM1.47 12.66C1.47 10.35 3.35 8.47 5.66 8.47H94.34C96.65 8.47 98.53 10.35 98.53 12.66V69.4H1.47V12.66Z" fill="#4279B6"/>
  <path d="M92.18 11.41H7.81996C6.37996 11.41 5.20996 12.58 5.20996 14.02V63.85C5.20996 65.29 6.37996 66.46 7.81996 66.46H92.18C93.62 66.46 94.79 65.29 94.79 63.85V14.02C94.79 12.58 93.62 11.41 92.18 11.41ZM93.32 63.85C93.32 64.48 92.81 64.99 92.18 64.99H7.81996C7.18996 64.99 6.67996 64.48 6.67996 63.85V14.02C6.67996 13.39 7.18996 12.88 7.81996 12.88H92.18C92.81 12.88 93.32 13.39 93.32 14.02V63.85Z" fill="#4279B6"/>
  <path d="M67.6101 46.85L63.9701 44.77L63.23 44.35L62.4901 43.93L56.6101 40.57C58.8601 38.23 60.12 34.79 60.12 31.5V29.63C60.12 24.97 57.4701 19.53 50.0201 19.53C42.5701 19.53 39.92 24.97 39.92 29.63V31.5C39.92 34.79 41.1901 38.23 43.43 40.57L37.55 43.93L36.8101 44.35L36.07 44.77L32.43 46.85C31.27 47.51 30.55 48.75 30.55 50.09V52.1C30.55 53.76 31.21 55.26 32.25 56.4C32.5 56.67 32.7701 56.91 33.0601 57.13C33.4301 57.42 33.83 57.67 34.26 57.86C35.07 58.23 35.9501 58.45 36.9001 58.45H63.1301C64.07 58.45 64.96 58.23 65.77 57.86C66.2 57.66 66.6001 57.41 66.9701 57.13C67.2601 56.91 67.53 56.67 67.78 56.4C68.83 55.27 69.4801 53.76 69.4801 52.1V50.09C69.4801 48.75 68.76 47.51 67.6 46.85H67.6101ZM68.03 52.1C68.03 53.97 66.97 55.57 65.42 56.4C64.74 56.76 63.9701 56.99 63.14 56.99H36.91C36.08 56.99 35.3101 56.76 34.6301 56.4C33.0901 55.58 32.0201 53.97 32.0201 52.1V50.09C32.0201 49.28 32.46 48.53 33.16 48.12L37.55 45.61L38.2901 45.19L39.03 44.77L44.59 41.59C46.1 42.75 47.92 43.46 50.0201 43.46C52.1201 43.46 53.9401 42.74 55.4501 41.59L61.01 44.77L61.75 45.19L62.4901 45.61L66.88 48.12C67.58 48.52 68.02 49.28 68.02 50.09V52.1H68.03ZM41.39 29.62C41.39 28.18 41.8101 20.99 50.0201 20.99C58.23 20.99 58.6501 28.18 58.6501 29.62V31.49C58.6501 35.37 57.0301 38.34 54.8601 40.12C54.5201 40.4 54.16 40.64 53.8 40.85C53.28 41.16 52.76 41.4 52.21 41.58C51.49 41.82 50.75 41.99 50.0201 41.99C49.17 41.99 48.3701 41.84 47.6301 41.58C47.09 41.39 46.57 41.15 46.09 40.85C45.74 40.63 45.4001 40.39 45.09 40.12C42.7301 38.09 41.39 34.71 41.39 31.49V29.62Z" fill="#4279B6"/>
</svg>
