<svg xmlns="http://www.w3.org/2000/svg" width="100" height="100" viewBox="0 0 100 100" fill="none">
  <path d="M93.3 11.3H86.12V3.48C86.12 1.56 84.56 0 82.64 0H17.18C15.26 0 13.7 1.56 13.7 3.48V11.3H6.7C3.01 11.3 0 14.3 0 18V77.05C0 80.74 3 83.74 6.7 83.74H41.12L37.58 97.91H30.32C29.88 97.91 29.53 98.26 29.53 98.7C29.53 99.14 29.88 99.49 30.32 99.49H69.69C70.13 99.49 70.48 99.14 70.48 98.7C70.48 98.26 70.13 97.91 69.69 97.91H62.43L58.89 83.74H93.31C97 83.74 100.01 80.74 100.01 77.05V18C100.01 14.31 97.01 11.3 93.31 11.3H93.3ZM98.42 77.05C98.42 79.87 96.13 82.16 93.31 82.16H6.7C3.88 82.16 1.59 79.87 1.59 77.05V71.94H98.42V77.05ZM39.2 97.91L42.74 83.74H57.25L60.79 97.91H39.2ZM1.58 18C1.58 15.18 3.87 12.89 6.69 12.89H13.69V58.26C13.69 60.18 15.25 61.74 17.17 61.74H82.63C84.55 61.74 86.11 60.18 86.11 58.26V12.89H93.29C96.11 12.89 98.4 15.18 98.4 18V70.35H1.58V18ZM15.28 11.3V3.48C15.28 2.43 16.13 1.58 17.18 1.58H82.64C83.69 1.58 84.54 2.43 84.54 3.48V58.26C84.54 59.31 83.69 60.16 82.64 60.16H17.18C16.13 60.16 15.28 59.31 15.28 58.26V11.3Z" fill="#4279B6"/>
  <path d="M93.3 16.02H86.12V17.6H93.3C93.47 17.6 93.6 17.71 93.6 17.8V65.64H6.4V17.8C6.4 17.7 6.53 17.6 6.7 17.6H13.7V16.02H6.7C5.66 16.02 4.82 16.82 4.82 17.81V66.44C4.82 66.88 5.17 67.23 5.61 67.23H94.39C94.83 67.23 95.18 66.88 95.18 66.44V17.8C95.18 16.81 94.34 16.01 93.3 16.01V16.02Z" fill="#2D557F"/>
  <path d="M22.22 57.11H77.61C79.3 57.11 80.68 55.73 80.68 54.04V7.7C80.68 6.01 79.3 4.63 77.61 4.63H22.22C20.53 4.63 19.15 6.01 19.15 7.7V54.05C19.15 55.74 20.53 57.12 22.22 57.12V57.11ZM20.73 16.81V7.7C20.73 6.88 21.4 6.22 22.21 6.22H77.6C78.42 6.22 79.08 6.89 79.08 7.7V54.05C79.08 54.87 78.41 55.53 77.6 55.53H22.22C21.4 55.53 20.74 54.86 20.74 54.05V16.81H20.73Z" fill="#2D557F"/>
  <path d="M26.49 17.5999C26.6 17.6399 26.72 17.6699 26.85 17.6599C27.09 17.6399 27.34 17.6199 27.58 17.5999C31.02 17.2899 34.46 17.0399 37.92 16.8699C38.43 16.8499 38.94 16.8299 39.44 16.8099C46.41 16.5099 53.4 16.5099 60.37 16.8099C60.88 16.8299 61.39 16.8499 61.89 16.8699C65.34 17.0399 68.79 17.2799 72.23 17.5999C72.47 17.6199 72.72 17.6399 72.96 17.6599C72.99 17.6599 73.01 17.6599 73.04 17.6599C73.15 17.6599 73.25 17.6399 73.34 17.5999C73.6 17.4899 73.8 17.2499 73.82 16.9499C73.82 16.8999 73.81 16.8599 73.81 16.8099C73.78 16.4399 73.5 16.1199 73.11 16.0899C72.84 16.0599 72.56 16.0499 72.29 16.0199C57.43 14.6699 42.37 14.6699 27.51 16.0199C27.24 16.0399 26.96 16.0599 26.69 16.0899C26.3 16.1299 26.02 16.4399 25.99 16.8099C25.99 16.8599 25.97 16.8999 25.98 16.9499C26.01 17.2599 26.21 17.4999 26.48 17.5999H26.49Z" fill="#2D557F"/>
  <path d="M71.27 23.0601H28.55C28.11 23.0601 27.76 23.4101 27.76 23.8501C27.76 24.2901 28.11 24.6401 28.55 24.6401H71.27C71.71 24.6401 72.06 24.2901 72.06 23.8501C72.06 23.4101 71.71 23.0601 71.27 23.0601Z" fill="#2D557F"/>
  <path d="M71.27 43.86H61.59C61.15 43.86 60.8 44.21 60.8 44.65C60.8 45.09 61.15 45.44 61.59 45.44H71.27C71.71 45.44 72.06 45.09 72.06 44.65C72.06 44.21 71.71 43.86 71.27 43.86Z" fill="#2D557F"/>
  <path d="M38.24 43.86H28.56C28.12 43.86 27.77 44.21 27.77 44.65C27.77 45.09 28.12 45.44 28.56 45.44H38.24C38.68 45.44 39.03 45.09 39.03 44.65C39.03 44.21 38.68 43.86 38.24 43.86Z" fill="#2D557F"/>
  <path d="M71.27 27.53H28.55C28.11 27.53 27.76 27.88 27.76 28.32C27.76 28.76 28.11 29.11 28.55 29.11H71.27C71.71 29.11 72.06 28.76 72.06 28.32C72.06 27.88 71.71 27.53 71.27 27.53Z" fill="#2D557F"/>
  <path d="M71.27 31.99H28.55C28.11 31.99 27.76 32.34 27.76 32.78C27.76 33.22 28.11 33.57 28.55 33.57H71.27C71.71 33.57 72.06 33.22 72.06 32.78C72.06 32.34 71.71 31.99 71.27 31.99Z" fill="#2D557F"/>
  <path d="M57.7 43.33C57.7 43.08 57.66 42.84 57.59 42.61C57.27 41.63 56.46 41.2 55.92 40.91C55.89 40.89 55.84 40.87 55.78 40.84C55.77 40.78 55.76 40.71 55.75 40.67C55.64 40.08 55.48 39.18 54.66 38.58C53.84 37.98 52.93 38.1 52.34 38.18C52.31 38.18 52.24 38.19 52.17 38.2C52.14 38.17 52.1 38.14 52.06 38.1C51.62 37.68 50.95 37.04 49.92 37.04C48.89 37.04 48.19 37.71 47.78 38.1C47.76 38.12 47.71 38.16 47.67 38.2C47.6 38.2 47.54 38.18 47.5 38.18C46.9 38.1 46 37.98 45.18 38.58C44.35 39.18 44.19 40.08 44.08 40.68C44.08 40.71 44.06 40.78 44.05 40.84C43.99 40.87 43.94 40.9 43.91 40.92C43.37 41.21 42.56 41.64 42.24 42.62C42.17 42.85 42.13 43.09 42.13 43.34C42.13 43.99 42.38 44.51 42.58 44.93C42.61 45 42.64 45.06 42.66 45.11C42.63 45.18 42.59 45.25 42.57 45.29C42.38 45.69 42.12 46.23 42.12 46.88C42.12 47.13 42.16 47.37 42.23 47.6C42.55 48.58 43.36 49.01 43.9 49.3C43.93 49.32 43.98 49.34 44.04 49.37C44.05 49.44 44.06 49.5 44.07 49.53C44.18 50.12 44.34 51.02 45.16 51.63C45.98 52.23 46.88 52.11 47.48 52.02C47.51 52.02 47.58 52.01 47.65 52C47.69 52.04 47.74 52.08 47.76 52.1C48.17 52.5 48.86 53.16 49.9 53.16C50.94 53.16 51.6 52.52 52.04 52.1C52.06 52.08 52.1 52.04 52.15 52C52.22 52 52.29 52.02 52.32 52.02C52.92 52.1 53.82 52.22 54.64 51.62C55.46 51.02 55.63 50.12 55.74 49.52C55.74 49.49 55.76 49.42 55.77 49.36C55.82 49.33 55.88 49.3 55.91 49.28C56.41 49.01 57.26 48.56 57.58 47.58C57.65 47.35 57.69 47.11 57.69 46.86C57.69 46.21 57.43 45.66 57.24 45.26C57.22 45.22 57.19 45.15 57.16 45.08C57.19 45.01 57.23 44.94 57.24 44.9C57.43 44.5 57.69 43.96 57.69 43.31L57.7 43.33ZM55.82 45.97C55.97 46.29 56.12 46.59 56.12 46.88C56.12 46.96 56.11 47.04 56.09 47.11C55.97 47.48 55.55 47.71 55.18 47.9C54.81 48.1 54.63 48.21 54.5 48.36C54.48 48.39 54.45 48.42 54.43 48.45C54.32 48.62 54.27 48.83 54.2 49.25C54.1 49.78 54.02 50.14 53.73 50.35C53.44 50.56 53.08 50.53 52.55 50.46C52.12 50.4 51.9 50.39 51.69 50.44C51.66 50.44 51.62 50.46 51.59 50.48C51.41 50.56 51.25 50.7 50.97 50.97C50.58 51.35 50.3 51.59 49.93 51.59C49.53 51.59 49.19 51.26 48.88 50.97C48.59 50.69 48.43 50.55 48.25 50.48C48.22 50.47 48.18 50.46 48.15 50.45C48.06 50.43 47.97 50.42 47.87 50.42C47.73 50.42 47.55 50.44 47.3 50.47C46.77 50.54 46.41 50.57 46.12 50.36C45.83 50.15 45.75 49.79 45.65 49.26C45.57 48.84 45.52 48.63 45.41 48.45C45.39 48.42 45.37 48.39 45.34 48.36C45.21 48.21 45.04 48.1 44.66 47.9C44.19 47.65 43.87 47.46 43.75 47.11C43.73 47.04 43.72 46.96 43.72 46.88C43.72 46.59 43.87 46.28 44.02 45.96C44.19 45.6 44.3 45.36 44.3 45.12C44.3 45.11 44.3 45.1 44.3 45.08C44.3 44.85 44.21 44.64 44.01 44.23C43.86 43.91 43.71 43.61 43.71 43.32C43.71 43.24 43.72 43.16 43.75 43.09C43.86 42.74 44.18 42.55 44.67 42.29C45.04 42.09 45.21 41.98 45.35 41.83C45.37 41.8 45.39 41.77 45.41 41.75C45.52 41.58 45.57 41.37 45.64 40.95C45.73 40.42 45.82 40.06 46.11 39.85C46.4 39.64 46.76 39.67 47.29 39.74C47.73 39.8 47.94 39.81 48.15 39.76C48.19 39.75 48.22 39.74 48.26 39.72C48.44 39.64 48.59 39.5 48.88 39.23C49.18 38.94 49.53 38.61 49.93 38.61C50.3 38.61 50.58 38.86 50.97 39.23C51.26 39.51 51.42 39.65 51.6 39.72C51.64 39.74 51.67 39.75 51.71 39.76C51.91 39.81 52.12 39.8 52.56 39.74C53.09 39.67 53.45 39.64 53.74 39.85C54.03 40.06 54.11 40.42 54.21 40.96C54.29 41.38 54.34 41.58 54.45 41.76C54.47 41.79 54.49 41.82 54.51 41.84C54.64 41.99 54.82 42.1 55.19 42.3C55.66 42.55 55.98 42.75 56.1 43.09C56.12 43.16 56.13 43.24 56.13 43.32C56.13 43.61 55.99 43.91 55.83 44.24C55.64 44.65 55.55 44.85 55.55 45.08C55.55 45.09 55.55 45.1 55.55 45.12C55.55 45.35 55.64 45.56 55.84 45.97H55.82Z" fill="#2D557F"/>
</svg>
