<svg xmlns="http://www.w3.org/2000/svg" width="100" height="100" viewBox="0 0 100 100" fill="none">
  <path d="M93.3 11.3H86.12V3.48C86.12 1.56 84.56 0 82.64 0H17.18C15.26 0 13.7 1.56 13.7 3.48V11.3H6.7C3.01 11.3 0 14.3 0 18V77.05C0 80.74 3 83.74 6.7 83.74H41.12L37.58 97.91H30.32C29.88 97.91 29.53 98.26 29.53 98.7C29.53 99.14 29.88 99.49 30.32 99.49H69.69C70.13 99.49 70.48 99.14 70.48 98.7C70.48 98.26 70.13 97.91 69.69 97.91H62.43L58.89 83.74H93.31C97 83.74 100.01 80.74 100.01 77.05V18C100.01 14.31 97.01 11.3 93.31 11.3H93.3ZM98.42 77.05C98.42 79.87 96.13 82.16 93.31 82.16H6.7C3.88 82.16 1.59 79.87 1.59 77.05V71.94H98.42V77.05ZM39.2 97.91L42.74 83.74H57.25L60.79 97.91H39.2ZM1.58 18C1.58 15.18 3.87 12.89 6.69 12.89H13.69V58.26C13.69 60.18 15.25 61.74 17.17 61.74H82.63C84.55 61.74 86.11 60.18 86.11 58.26V12.89H93.29C96.11 12.89 98.4 15.18 98.4 18V70.35H1.58V18ZM15.28 11.3V3.48C15.28 2.43 16.13 1.58 17.18 1.58H82.64C83.69 1.58 84.54 2.43 84.54 3.48V34.44H15.28V11.3ZM15.28 36.03H84.54V58.26C84.54 59.31 83.69 60.16 82.64 60.16H17.18C16.13 60.16 15.28 59.31 15.28 58.26V36.03Z" fill="#4279B6"/>
  <path d="M26.85 14.56C30.53 14.21 34.22 13.95 37.92 13.77C45.9 13.38 53.91 13.38 61.9 13.77C65.6 13.95 69.29 14.21 72.97 14.56C73 14.56 73.02 14.56 73.05 14.56C73.45 14.56 73.8 14.25 73.84 13.84C73.88 13.4 73.56 13.02 73.13 12.98C72.73 12.94 72.34 12.92 71.94 12.88C67.82 12.51 63.68 12.25 59.54 12.09C53.13 11.84 46.71 11.84 40.29 12.09C36.15 12.25 32.01 12.51 27.89 12.88C27.49 12.92 27.1 12.94 26.7 12.98C26.26 13.02 25.95 13.41 25.99 13.84C26.03 14.27 26.42 14.6 26.85 14.55V14.56Z" fill="#4279B6"/>
  <path d="M93.3 16.02H86.12V17.6H93.3C93.47 17.6 93.6 17.71 93.6 17.8V65.64H6.40001V17.8C6.40001 17.7 6.53001 17.6 6.70001 17.6H13.7V16.02H6.70001C5.66001 16.02 4.82001 16.82 4.82001 17.81V66.44C4.82001 66.88 5.17001 67.23 5.61001 67.23H94.39C94.83 67.23 95.18 66.88 95.18 66.44V17.8C95.18 16.81 94.34 16.01 93.3 16.01V16.02Z" fill="#2D557F"/>
  <path d="M28.55 21.55H71.27C71.71 21.55 72.06 21.2 72.06 20.76C72.06 20.32 71.71 19.97 71.27 19.97H28.55C28.11 19.97 27.76 20.32 27.76 20.76C27.76 21.2 28.11 21.55 28.55 21.55Z" fill="#2D557F"/>
  <path d="M28.55 45.58H49.91C50.35 45.58 50.7 45.23 50.7 44.79C50.7 44.35 50.35 44 49.91 44H28.55C28.11 44 27.76 44.35 27.76 44.79C27.76 45.23 28.11 45.58 28.55 45.58Z" fill="#2D557F"/>
  <path d="M28.55 49.31H49.91C50.35 49.31 50.7 48.96 50.7 48.52C50.7 48.08 50.35 47.73 49.91 47.73H28.55C28.11 47.73 27.76 48.08 27.76 48.52C27.76 48.96 28.11 49.31 28.55 49.31Z" fill="#2D557F"/>
  <path d="M28.55 26.0101H71.27C71.71 26.0101 72.06 25.6601 72.06 25.2201C72.06 24.7801 71.71 24.4301 71.27 24.4301H28.55C28.11 24.4301 27.76 24.7801 27.76 25.2201C27.76 25.6601 28.11 26.0101 28.55 26.0101Z" fill="#2D557F"/>
  <path d="M68.19 40.2701C68.19 40.2701 68.08 40.3701 68.02 40.4401C67.92 40.4301 67.81 40.4101 67.75 40.4101C67.07 40.3201 66.05 40.1801 65.13 40.8501C64.21 41.5201 64.02 42.5401 63.9 43.2201C63.88 43.3201 63.87 43.4101 63.85 43.4701C63.77 43.5201 63.67 43.5701 63.63 43.5901C63.02 43.9201 62.1 44.4101 61.74 45.5001C61.66 45.7601 61.62 46.0301 61.62 46.3001C61.62 47.0301 61.91 47.6301 62.14 48.1101C62.19 48.2201 62.24 48.3101 62.27 48.3801C62.23 48.4801 62.17 48.5901 62.14 48.6601C61.91 49.1401 61.63 49.7301 61.63 50.4601C61.63 50.7401 61.67 51.0101 61.76 51.2601C62.12 52.3501 63.04 52.8501 63.65 53.1701C63.7 53.1901 63.79 53.2401 63.87 53.2901C63.89 53.3901 63.91 53.5001 63.92 53.5501C64.04 54.2301 64.23 55.2501 65.15 55.9201C66.07 56.5901 67.09 56.4501 67.78 56.3601C67.83 56.3601 67.94 56.3401 68.03 56.3301C68.08 56.3701 68.14 56.4301 68.2 56.4901C68.67 56.9401 69.45 57.7001 70.62 57.7001C71.79 57.7001 72.54 56.9701 73.04 56.4901C73.07 56.4601 73.15 56.3901 73.21 56.3301C73.31 56.3401 73.42 56.3601 73.48 56.3601C74.16 56.4501 75.18 56.5901 76.1 55.9201C77.02 55.2501 77.21 54.2301 77.33 53.5501C77.35 53.4501 77.36 53.3601 77.38 53.3001C77.46 53.2501 77.55 53.2101 77.6 53.1801C78.17 52.8701 79.13 52.3601 79.49 51.2701C79.57 51.0201 79.61 50.7501 79.61 50.4701C79.61 49.7401 79.32 49.1401 79.09 48.6601C79.07 48.6101 79.01 48.4901 78.96 48.3901C79 48.2901 79.06 48.1801 79.09 48.1201C79.32 47.6401 79.61 47.0501 79.61 46.3101C79.61 46.0301 79.57 45.7601 79.49 45.5101C79.13 44.4201 78.21 43.9201 77.6 43.6001C77.56 43.5801 77.46 43.5301 77.38 43.4801C77.36 43.3901 77.34 43.2801 77.33 43.2201C77.21 42.5501 77.02 41.5301 76.1 40.8501C75.18 40.1801 74.15 40.3201 73.47 40.4101C73.37 40.4201 73.28 40.4401 73.21 40.4401C73.16 40.4001 73.1 40.3401 73.03 40.2701C72.53 39.7901 71.77 39.0601 70.61 39.0601C69.45 39.0601 68.66 39.8201 68.19 40.2701ZM72.73 42.0001C72.94 42.0601 73.18 42.0401 73.67 41.9701C74.2 41.9001 74.75 41.8201 75.15 42.1201C75.56 42.4201 75.66 42.9601 75.76 43.5001C75.85 43.9701 75.9 44.2001 76.02 44.3901C76.04 44.4201 76.06 44.4501 76.08 44.4701C76.22 44.6301 76.42 44.7501 76.83 44.9801C77.42 45.2901 77.81 45.5301 77.96 45.9901C77.99 46.0901 78.01 46.1901 78.01 46.3001C78.01 46.6701 77.83 47.0501 77.64 47.4401C77.42 47.9001 77.33 48.1301 77.32 48.3601C77.32 48.3701 77.32 48.3901 77.32 48.4001C77.32 48.6401 77.42 48.8801 77.64 49.3401C77.82 49.7101 78 50.0901 78 50.4601C78 50.5701 77.98 50.6701 77.95 50.7701C77.79 51.2601 77.28 51.5301 76.81 51.7801C76.39 52.0001 76.2 52.1201 76.06 52.2901C76.04 52.3201 76.01 52.3501 75.99 52.3801C75.87 52.5601 75.82 52.7901 75.74 53.2701C75.62 53.9201 75.52 54.3601 75.14 54.6401C74.74 54.9301 74.19 54.8601 73.65 54.7901C73.17 54.7301 72.92 54.7101 72.7 54.7701C72.67 54.7701 72.63 54.7901 72.6 54.8101C72.42 54.8901 72.26 55.0201 71.91 55.3601C71.43 55.8201 71.08 56.1301 70.59 56.1301C70.07 56.1301 69.64 55.7201 69.27 55.3601C68.94 55.0401 68.76 54.8901 68.57 54.8101C68.54 54.8001 68.5 54.7801 68.47 54.7801C68.38 54.7601 68.29 54.7401 68.18 54.7401C68.02 54.7401 67.82 54.7601 67.52 54.8001C66.99 54.8701 66.45 54.9401 66.04 54.6501C65.63 54.3501 65.53 53.8101 65.44 53.2801C65.35 52.8001 65.3 52.5701 65.18 52.3801C65.16 52.3501 65.14 52.3201 65.11 52.2901C64.97 52.1301 64.78 52.0101 64.36 51.7901C63.78 51.4801 63.38 51.2401 63.23 50.7801C63.2 50.6801 63.18 50.5801 63.18 50.4701C63.18 50.1001 63.36 49.7201 63.54 49.3401C63.76 48.8801 63.85 48.6501 63.86 48.4101C63.86 48.4001 63.86 48.3801 63.86 48.3701C63.86 48.1301 63.76 47.8901 63.54 47.4301C63.35 47.0401 63.18 46.6801 63.18 46.3101C63.18 46.2001 63.2 46.1001 63.23 46.0001C63.39 45.5101 63.88 45.2501 64.36 44.9901C64.77 44.7701 64.98 44.6501 65.12 44.4801C65.14 44.4501 65.16 44.4201 65.18 44.3901C65.3 44.2101 65.35 43.9801 65.44 43.5001C65.54 42.9701 65.63 42.4301 66.04 42.1301C66.44 41.8401 66.99 41.9101 67.52 41.9801C68.01 42.0501 68.26 42.0601 68.48 42.0001C68.52 42.0001 68.55 41.9801 68.59 41.9601C68.77 41.8801 68.93 41.7501 69.28 41.4101C69.65 41.0501 70.08 40.6401 70.6 40.6401C71.09 40.6401 71.44 40.9401 71.92 41.4101C72.25 41.7301 72.42 41.8801 72.62 41.9601C72.66 41.9701 72.69 41.9901 72.73 42.0001Z" fill="#2D557F"/>
</svg>
