<svg xmlns="http://www.w3.org/2000/svg" width="100" height="100" viewBox="0 0 100 100" fill="none">
  <path d="M99.21 70.99V76.9C99.21 80.16 96.57 82.8 93.3 82.8H6.69998C3.43998 82.8 0.789978 80.16 0.789978 76.9V70.99H99.21Z" fill="#4279B6"/>
  <path d="M93.3 83.59H6.7C3.01 83.59 0 80.59 0 76.9V70.99C0 70.55 0.35 70.2 0.79 70.2H99.21C99.65 70.2 100 70.55 100 70.99V76.9C100 80.59 97 83.59 93.3 83.59ZM1.58 71.78V76.89C1.58 79.71 3.87 82 6.69 82H93.29C96.11 82 98.4 79.71 98.4 76.89V71.78H1.58Z" fill="#0E1721"/>
  <path d="M99.21 17.8401V70.9801H0.789978V17.8401C0.789978 14.5801 3.42998 11.9301 6.69998 11.9301H93.3C96.56 11.9301 99.21 14.5701 99.21 17.8401Z" fill="#4279B6"/>
  <path d="M99.21 71.78H0.79C0.35 71.78 0 71.43 0 70.99V17.84C0 14.15 3 11.14 6.7 11.14H93.3C96.99 11.14 100 14.14 100 17.84V70.98C100 71.42 99.65 71.77 99.21 71.77V71.78ZM1.58 70.2H98.41V17.84C98.41 15.02 96.12 12.73 93.3 12.73H6.7C3.88 12.73 1.59 15.02 1.59 17.84V70.19L1.58 70.2Z" fill="#0E1721"/>
  <path d="M38.19 99.34H30.31C29.87 99.34 29.52 98.99 29.52 98.55C29.52 98.11 29.87 97.76 30.31 97.76H38.19C38.63 97.76 38.98 98.11 38.98 98.55C38.98 98.99 38.63 99.34 38.19 99.34Z" fill="#0E1721"/>
  <path d="M69.69 99.34H61.81C61.37 99.34 61.02 98.99 61.02 98.55C61.02 98.11 61.37 97.76 61.81 97.76H69.69C70.13 97.76 70.48 98.11 70.48 98.55C70.48 98.99 70.13 99.34 69.69 99.34Z" fill="#0E1721"/>
  <path d="M61.81 98.55H38.19L42.13 82.8H57.87L61.81 98.55Z" fill="#4279B6"/>
  <path d="M61.81 99.34H38.19C37.95 99.34 37.72 99.23 37.57 99.04C37.42 98.85 37.37 98.6 37.43 98.36L41.37 82.61C41.46 82.26 41.77 82.01 42.14 82.01H57.88C58.24 82.01 58.56 82.26 58.65 82.61L62.59 98.36C62.65 98.6 62.59 98.85 62.45 99.04C62.3 99.23 62.07 99.34 61.83 99.34H61.81ZM39.2 97.75H60.79L57.25 83.58H42.74L39.2 97.75Z" fill="#0E1721"/>
  <path d="M5.60999 66.28H94.39V17.64C94.39 17.09 93.9 16.65 93.3 16.65H6.69999C6.09999 16.65 5.60999 17.1 5.60999 17.64V66.27V66.28Z" fill="white"/>
  <path d="M94.39 67.07H5.61001C5.17001 67.07 4.82001 66.72 4.82001 66.28V17.64C4.82001 16.65 5.66001 15.85 6.70001 15.85H93.3C94.34 15.85 95.18 16.65 95.18 17.64V66.27C95.18 66.71 94.83 67.06 94.39 67.06V67.07ZM6.40001 65.49H93.6V17.64C93.6 17.54 93.47 17.44 93.3 17.44H6.70001C6.53001 17.44 6.40001 17.55 6.40001 17.64V65.48V65.49Z" fill="#0E1721"/>
  <path d="M85.33 15.54V58.1C85.33 59.59 84.13 60.79 82.64 60.79H17.18C15.69 60.79 14.49 59.59 14.49 58.1V15.54H85.33Z" fill="white"/>
  <path d="M82.64 61.43H17.18C15.35 61.43 13.86 59.94 13.86 58.11V15.54C13.86 15.19 14.14 14.91 14.49 14.91H85.33C85.68 14.91 85.96 15.19 85.96 15.54V58.1C85.96 59.93 84.47 61.42 82.64 61.42V61.43ZM15.12 16.17V58.1C15.12 59.23 16.04 60.16 17.18 60.16H82.64C83.77 60.16 84.7 59.24 84.7 58.1V16.17H15.12Z" fill="#0E1721"/>
  <path d="M85.33 3.32V15.54H14.49V3.32C14.49 1.83 15.69 0.630005 17.18 0.630005H82.64C84.13 0.630005 85.33 1.83 85.33 3.32Z" fill="#4279B6"/>
  <path d="M85.33 16.17H14.49C14.14 16.17 13.86 15.89 13.86 15.54V3.32C13.86 1.49 15.35 0 17.18 0H82.64C84.47 0 85.96 1.49 85.96 3.32V15.54C85.96 15.89 85.68 16.17 85.33 16.17ZM15.12 14.91H84.7V3.32C84.7 2.19 83.78 1.26 82.64 1.26H17.18C16.05 1.26 15.12 2.18 15.12 3.32V14.9V14.91Z" fill="#0E1721"/>
  <path d="M27.21 31.01C29.3473 31.01 31.08 29.2774 31.08 27.14C31.08 25.0027 29.3473 23.27 27.21 23.27C25.0726 23.27 23.34 25.0027 23.34 27.14C23.34 29.2774 25.0726 31.01 27.21 31.01Z" fill="#3C8645"/>
  <path d="M27.21 31.64C24.73 31.64 22.71 29.62 22.71 27.14C22.71 24.66 24.73 22.64 27.21 22.64C29.69 22.64 31.71 24.66 31.71 27.14C31.71 29.62 29.69 31.64 27.21 31.64ZM27.21 23.9C25.42 23.9 23.97 25.35 23.97 27.14C23.97 28.93 25.42 30.38 27.21 30.38C29 30.38 30.45 28.93 30.45 27.14C30.45 25.35 29 23.9 27.21 23.9Z" fill="#0E1721"/>
  <path d="M49.7 31.01C51.8373 31.01 53.57 29.2774 53.57 27.14C53.57 25.0027 51.8373 23.27 49.7 23.27C47.5626 23.27 45.83 25.0027 45.83 27.14C45.83 29.2774 47.5626 31.01 49.7 31.01Z" fill="#3C8645"/>
  <path d="M49.7 31.64C47.22 31.64 45.2 29.62 45.2 27.14C45.2 24.66 47.22 22.64 49.7 22.64C52.18 22.64 54.2 24.66 54.2 27.14C54.2 29.62 52.18 31.64 49.7 31.64ZM49.7 23.9C47.91 23.9 46.4599 25.35 46.4599 27.14C46.4599 28.93 47.91 30.38 49.7 30.38C51.49 30.38 52.9399 28.93 52.9399 27.14C52.9399 25.35 51.49 23.9 49.7 23.9Z" fill="#0E1721"/>
  <path d="M72.1899 23.27V31.01C70.0499 31.01 68.3199 29.28 68.3199 27.14C68.3199 25 70.0499 23.27 72.1899 23.27Z" fill="#FC8B27"/>
  <path d="M72.1899 31.64C69.7099 31.64 67.6799 29.62 67.6799 27.14C67.6799 24.66 69.6999 22.63 72.1899 22.63C72.5399 22.63 72.8199 22.91 72.8199 23.26V31C72.8199 31.35 72.5399 31.63 72.1899 31.63V31.64ZM71.5599 23.96C70.0799 24.26 68.9499 25.57 68.9499 27.14C68.9499 28.71 70.0699 30.02 71.5599 30.31V23.96Z" fill="#0E1721"/>
  <path d="M76.0599 27.14C76.0599 29.28 74.3299 31.01 72.1899 31.01V23.27C74.3299 23.27 76.0599 25 76.0599 27.14Z" fill="white"/>
  <path d="M72.1899 31.64C71.8399 31.64 71.5599 31.36 71.5599 31.01V23.27C71.5599 22.92 71.8399 22.64 72.1899 22.64C74.6699 22.64 76.6899 24.66 76.6899 27.15C76.6899 29.64 74.6699 31.65 72.1899 31.65V31.64ZM72.8299 23.96V30.31C74.3099 30.01 75.4299 28.7 75.4299 27.14C75.4299 25.58 74.3099 24.26 72.8299 23.96Z" fill="#0E1721"/>
  <path d="M45.83 27.77H31.08C30.73 27.77 30.45 27.49 30.45 27.14C30.45 26.79 30.73 26.51 31.08 26.51H45.83C46.18 26.51 46.4599 26.79 46.4599 27.14C46.4599 27.49 46.18 27.77 45.83 27.77Z" fill="#0E1721"/>
  <path d="M68.3199 27.77H53.5699C53.2199 27.77 52.9399 27.49 52.9399 27.14C52.9399 26.79 53.2199 26.51 53.5699 26.51H68.3199C68.6699 26.51 68.9499 26.79 68.9499 27.14C68.9499 27.49 68.6699 27.77 68.3199 27.77Z" fill="#0E1721"/>
  <path d="M28.7899 25.73L26.8299 27.66L25.9599 26.79C25.7099 26.54 25.3099 26.54 25.0599 26.79C24.8099 27.04 24.8099 27.44 25.0599 27.69L26.3699 29C26.4899 29.13 26.6599 29.19 26.8199 29.19C26.9799 29.19 27.1399 29.13 27.2599 29.01L29.6699 26.64C29.9199 26.39 29.9199 25.99 29.6699 25.74C29.4199 25.49 29.0199 25.49 28.7699 25.74L28.7899 25.73Z" fill="white"/>
  <path d="M52.0099 25.74C51.7599 25.49 51.3599 25.49 51.1099 25.74L49.1499 27.67L48.2799 26.8C48.0299 26.55 47.6299 26.55 47.3799 26.8C47.1299 27.05 47.1299 27.45 47.3799 27.7L48.6899 29.01C48.8099 29.14 48.9799 29.2 49.1399 29.2C49.2999 29.2 49.4599 29.14 49.5799 29.02L51.9899 26.65C52.2399 26.4 52.2399 26 51.9899 25.75L52.0099 25.74Z" fill="white"/>
  <path d="M74.91 8.83996H25.64C25.29 8.83996 25.01 8.55996 25.01 8.20996C25.01 7.85996 25.29 7.57996 25.64 7.57996H74.91C75.26 7.57996 75.54 7.85996 75.54 8.20996C75.54 8.55996 75.26 8.83996 74.91 8.83996Z" fill="#0E1721"/>
  <path d="M47.46 44.01H24.66C24.3066 44.01 24.02 44.2966 24.02 44.65V46.72C24.02 47.0735 24.3066 47.36 24.66 47.36H47.46C47.8135 47.36 48.1 47.0735 48.1 46.72V44.65C48.1 44.2966 47.8135 44.01 47.46 44.01Z" fill="#FC8B27"/>
  <path d="M46.81 47.99H25.3C24.24 47.99 23.38 47.13 23.38 46.07V45.28C23.38 44.22 24.24 43.36 25.3 43.36H46.81C47.87 43.36 48.73 44.22 48.73 45.28V46.07C48.73 47.13 47.87 47.99 46.81 47.99ZM25.3 44.64C24.94 44.64 24.65 44.93 24.65 45.29V46.08C24.65 46.44 24.94 46.73 25.3 46.73H46.81C47.17 46.73 47.46 46.44 47.46 46.08V45.29C47.46 44.93 47.17 44.64 46.81 44.64H25.3Z" fill="#0E1721"/>
  <path d="M24.88 44.01H44.16V47.36H24.88C24.56 47.36 24.3 47.1 24.3 46.78V44.59C24.3 44.27 24.56 44.01 24.88 44.01Z" fill="#4279B6"/>
  <path d="M44.16 47.99H25.47C24.48 47.99 23.67 47.18 23.67 46.19V45.17C23.67 44.18 24.48 43.37 25.47 43.37H44.16C44.51 43.37 44.79 43.65 44.79 44V47.35C44.79 47.7 44.51 47.98 44.16 47.98V47.99ZM25.47 44.64C25.18 44.64 24.94 44.88 24.94 45.17V46.19C24.94 46.48 25.18 46.72 25.47 46.72H43.53V44.63H25.47V44.64Z" fill="#0E1721"/>
  <path d="M47.46 50.3H24.66C24.3066 50.3 24.02 50.5866 24.02 50.94V53.01C24.02 53.3635 24.3066 53.6501 24.66 53.6501H47.46C47.8135 53.6501 48.1 53.3635 48.1 53.01V50.94C48.1 50.5866 47.8135 50.3 47.46 50.3Z" fill="#FC8B27"/>
  <path d="M46.81 54.29H25.3C24.24 54.29 23.38 53.43 23.38 52.37V51.58C23.38 50.52 24.24 49.66 25.3 49.66H46.81C47.87 49.66 48.73 50.52 48.73 51.58V52.37C48.73 53.43 47.87 54.29 46.81 54.29ZM25.3 50.94C24.94 50.94 24.65 51.23 24.65 51.59V52.38C24.65 52.74 24.94 53.03 25.3 53.03H46.81C47.17 53.03 47.46 52.74 47.46 52.38V51.59C47.46 51.23 47.17 50.94 46.81 50.94H25.3Z" fill="#0E1721"/>
  <path d="M24.58 50.3H32.82V53.65H24.58C24.27 53.65 24.02 53.4 24.02 53.09V50.85C24.02 50.54 24.27 50.29 24.58 50.29V50.3Z" fill="#4279B6"/>
  <path d="M32.82 54.29H25.13C24.17 54.29 23.38 53.51 23.38 52.54V51.42C23.38 50.46 24.16 49.67 25.13 49.67H32.82C33.17 49.67 33.45 49.95 33.45 50.3V53.65C33.45 54 33.17 54.28 32.82 54.28V54.29ZM25.13 50.94C24.86 50.94 24.65 51.16 24.65 51.42V52.54C24.65 52.81 24.87 53.02 25.13 53.02H32.18V50.93H25.13V50.94Z" fill="#0E1721"/>
  <path d="M47.46 37.71H24.66C24.3066 37.71 24.02 37.9965 24.02 38.35V40.42C24.02 40.7734 24.3066 41.06 24.66 41.06H47.46C47.8135 41.06 48.1 40.7734 48.1 40.42V38.35C48.1 37.9965 47.8135 37.71 47.46 37.71Z" fill="#4279B6"/>
  <path d="M46.81 41.6999H25.3C24.24 41.6999 23.38 40.8399 23.38 39.7799V38.9899C23.38 37.9299 24.24 37.0699 25.3 37.0699H46.81C47.87 37.0699 48.73 37.9299 48.73 38.9899V39.7799C48.73 40.8399 47.87 41.6999 46.81 41.6999ZM25.3 38.3399C24.94 38.3399 24.65 38.6299 24.65 38.9899V39.7799C24.65 40.1399 24.94 40.4299 25.3 40.4299H46.81C47.17 40.4299 47.46 40.1399 47.46 39.7799V38.9899C47.46 38.6299 47.17 38.3399 46.81 38.3399H25.3Z" fill="#0E1721"/>
  <path d="M66.89 34.58V41.92C64.91 41.92 63.31 43.52 63.31 45.5H55.97C55.97 39.47 60.86 34.58 66.89 34.58Z" fill="#FCCD2A"/>
  <path d="M63.31 46.13H55.97C55.62 46.13 55.34 45.85 55.34 45.5C55.34 39.13 60.52 33.95 66.89 33.95C67.24 33.95 67.52 34.23 67.52 34.58V41.9199C67.52 42.2699 67.24 42.5499 66.89 42.5499C65.27 42.5499 63.94 43.87 63.94 45.5C63.94 45.85 63.66 46.13 63.31 46.13ZM56.62 44.8699H62.72C62.99 43.0499 64.43 41.61 66.25 41.34V35.24C61.08 35.56 56.93 39.7099 56.62 44.8699Z" fill="#0E1721"/>
  <path d="M77.81 45.5C77.81 51.53 72.92 56.42 66.89 56.42C60.86 56.42 55.97 51.53 55.97 45.5H63.31C63.31 43.52 64.91 41.92 66.89 41.92V34.58C72.92 34.58 77.81 39.47 77.81 45.5Z" fill="#4279B6"/>
  <path d="M66.89 57.05C60.52 57.05 55.34 51.87 55.34 45.5C55.34 45.15 55.62 44.87 55.97 44.87H62.73C63 43.05 64.44 41.61 66.26 41.34V34.59C66.26 34.24 66.54 33.96 66.89 33.96C73.26 33.96 78.44 39.14 78.44 45.51C78.44 51.88 73.26 57.06 66.89 57.06V57.05ZM56.62 46.13C56.95 51.51 61.43 55.78 66.89 55.78C72.35 55.78 77.18 51.17 77.18 45.49C77.18 39.81 72.9 35.55 67.53 35.22V41.91C67.53 42.26 67.25 42.54 66.9 42.54C65.28 42.54 63.95 43.86 63.95 45.49C63.95 45.84 63.67 46.12 63.32 46.12H56.63L56.62 46.13Z" fill="#0E1721"/>
  <path d="M70.47 45.4999C70.47 47.4799 68.87 49.0799 66.89 49.0799C64.91 49.0799 63.31 47.4799 63.31 45.4999C63.31 43.5199 64.91 41.9199 66.89 41.9199C68.87 41.9199 70.47 43.5199 70.47 45.4999Z" fill="white"/>
  <path d="M66.89 49.7099C64.57 49.7099 62.68 47.8199 62.68 45.4999C62.68 43.1799 64.57 41.2899 66.89 41.2899C69.21 41.2899 71.1 43.1799 71.1 45.4999C71.1 47.8199 69.21 49.7099 66.89 49.7099ZM66.89 42.5499C65.27 42.5499 63.94 43.8699 63.94 45.4999C63.94 47.1299 65.26 48.4499 66.89 48.4499C68.52 48.4499 69.84 47.1299 69.84 45.4999C69.84 43.8699 68.52 42.5499 66.89 42.5499Z" fill="#0E1721"/>
</svg>
