<svg xmlns="http://www.w3.org/2000/svg" width="100" height="100" viewBox="0 0 100 100" fill="none">
  <path d="M99.21 70.99V76.9C99.21 80.16 96.57 82.8 93.3 82.8H6.70001C3.44001 82.8 0.790009 80.16 0.790009 76.9V70.99H99.21Z" fill="#4279B6"/>
  <path d="M93.3 83.59H6.7C3.01 83.59 0 80.59 0 76.9V70.99C0 70.55 0.35 70.2 0.79 70.2H99.21C99.65 70.2 100 70.55 100 70.99V76.9C100 80.59 97 83.59 93.3 83.59ZM1.58 71.78V76.89C1.58 79.71 3.87 82 6.69 82H93.29C96.11 82 98.4 79.71 98.4 76.89V71.78H1.58Z" fill="#0E1721"/>
  <path d="M99.21 17.8401V70.9801H0.790009V17.8401C0.790009 14.5801 3.43001 11.9301 6.70001 11.9301H93.3C96.56 11.9301 99.21 14.5701 99.21 17.8401Z" fill="#4279B6"/>
  <path d="M99.21 71.78H0.79C0.35 71.78 0 71.43 0 70.99V17.84C0 14.15 3 11.14 6.7 11.14H93.3C96.99 11.14 100 14.14 100 17.84V70.98C100 71.42 99.65 71.77 99.21 71.77V71.78ZM1.58 70.2H98.41V17.84C98.41 15.02 96.12 12.73 93.3 12.73H6.7C3.88 12.73 1.59 15.02 1.59 17.84V70.19L1.58 70.2Z" fill="#0E1721"/>
  <path d="M38.19 99.34H30.31C29.87 99.34 29.52 98.99 29.52 98.55C29.52 98.11 29.87 97.76 30.31 97.76H38.19C38.63 97.76 38.98 98.11 38.98 98.55C38.98 98.99 38.63 99.34 38.19 99.34Z" fill="#0E1721"/>
  <path d="M69.69 99.34H61.81C61.37 99.34 61.02 98.99 61.02 98.55C61.02 98.11 61.37 97.76 61.81 97.76H69.69C70.13 97.76 70.48 98.11 70.48 98.55C70.48 98.99 70.13 99.34 69.69 99.34Z" fill="#0E1721"/>
  <path d="M61.81 98.55H38.19L42.13 82.8H57.87L61.81 98.55Z" fill="#4279B6"/>
  <path d="M61.81 99.34H38.19C37.95 99.34 37.72 99.23 37.57 99.04C37.42 98.85 37.37 98.6 37.43 98.36L41.37 82.61C41.46 82.26 41.77 82.01 42.14 82.01H57.88C58.24 82.01 58.56 82.26 58.65 82.61L62.59 98.36C62.65 98.6 62.59 98.85 62.45 99.04C62.3 99.23 62.07 99.34 61.83 99.34H61.81ZM39.2 97.75H60.79L57.25 83.58H42.74L39.2 97.75Z" fill="#0E1721"/>
  <path d="M5.61002 66.28H94.39V17.64C94.39 17.09 93.9 16.65 93.3 16.65H6.70002C6.10002 16.65 5.61002 17.1 5.61002 17.64V66.27V66.28Z" fill="white"/>
  <path d="M94.39 67.07H5.61001C5.17001 67.07 4.82001 66.72 4.82001 66.28V17.64C4.82001 16.65 5.66001 15.85 6.70001 15.85H93.3C94.34 15.85 95.18 16.65 95.18 17.64V66.27C95.18 66.71 94.83 67.06 94.39 67.06V67.07ZM6.40001 65.48H93.6V17.64C93.6 17.54 93.47 17.44 93.3 17.44H6.70001C6.53001 17.44 6.40001 17.55 6.40001 17.64V65.48Z" fill="#0E1721"/>
  <path d="M83.98 0.630005H15.84C15.0944 0.630005 14.49 1.23442 14.49 1.98V59.44C14.49 60.1856 15.0944 60.79 15.84 60.79H83.98C84.7256 60.79 85.33 60.1856 85.33 59.44V1.98C85.33 1.23442 84.7256 0.630005 83.98 0.630005Z" fill="#4279B6"/>
  <path d="M82.64 61.42H17.18C15.35 61.42 13.86 59.93 13.86 58.1V3.32C13.86 1.49 15.35 0 17.18 0H82.64C84.47 0 85.96 1.49 85.96 3.32V58.1C85.96 59.93 84.47 61.42 82.64 61.42ZM17.18 1.27C16.05 1.27 15.12 2.19 15.12 3.33V58.11C15.12 59.24 16.04 60.17 17.18 60.17H82.64C83.77 60.17 84.7 59.25 84.7 58.11V3.32C84.7 2.19 83.78 1.26 82.64 1.26H17.18V1.27Z" fill="#0E1721"/>
  <path d="M78.74 5.26001H21.08C20.4504 5.26001 19.94 5.7704 19.94 6.40001V55.02C19.94 55.6496 20.4504 56.16 21.08 56.16H78.74C79.3696 56.16 79.88 55.6496 79.88 55.02V6.40001C79.88 5.7704 79.3696 5.26001 78.74 5.26001Z" fill="white"/>
  <path d="M77.61 56.8H22.22C20.62 56.8 19.31 55.49 19.31 53.89V7.54C19.31 5.94 20.62 4.63 22.22 4.63H77.61C79.21 4.63 80.52 5.94 80.52 7.54V53.89C80.52 55.49 79.21 56.8 77.61 56.8ZM22.22 5.89C21.31 5.89 20.58 6.63 20.58 7.53V53.88C20.58 54.79 21.32 55.52 22.22 55.52H77.61C78.52 55.52 79.25 54.78 79.25 53.88V7.54C79.25 6.63 78.51 5.9 77.61 5.9H22.22V5.89Z" fill="#0E1721"/>
  <path d="M73.05 17.66C73.05 17.66 72.99 17.66 72.96 17.66C57.67 16.21 42.16 16.21 26.87 17.66C26.35 17.71 25.88 17.33 25.84 16.8C25.79 16.28 26.17 15.81 26.7 15.77C42.11 14.31 57.74 14.31 73.15 15.77C73.67 15.82 74.06 16.28 74.01 16.8C73.96 17.29 73.55 17.66 73.07 17.66H73.05Z" fill="#0E1721"/>
  <path d="M71.27 24.3299H28.55C28.2 24.3299 27.92 24.0499 27.92 23.6999C27.92 23.3499 28.2 23.0699 28.55 23.0699H71.27C71.62 23.0699 71.9 23.3499 71.9 23.6999C71.9 24.0499 71.62 24.3299 71.27 24.3299Z" fill="#0E1721"/>
  <path d="M71.27 45.13H61.59C61.24 45.13 60.96 44.85 60.96 44.5C60.96 44.15 61.24 43.87 61.59 43.87H71.27C71.62 43.87 71.9 44.15 71.9 44.5C71.9 44.85 71.62 45.13 71.27 45.13Z" fill="#0E1721"/>
  <path d="M38.24 45.13H28.56C28.21 45.13 27.93 44.85 27.93 44.5C27.93 44.15 28.21 43.87 28.56 43.87H38.24C38.59 43.87 38.87 44.15 38.87 44.5C38.87 44.85 38.59 45.13 38.24 45.13Z" fill="#0E1721"/>
  <path d="M71.27 28.79H28.55C28.2 28.79 27.92 28.51 27.92 28.16C27.92 27.81 28.2 27.53 28.55 27.53H71.27C71.62 27.53 71.9 27.81 71.9 28.16C71.9 28.51 71.62 28.79 71.27 28.79Z" fill="#0E1721"/>
  <path d="M71.27 33.26H28.55C28.2 33.26 27.92 32.98 27.92 32.63C27.92 32.28 28.2 32 28.55 32H71.27C71.62 32 71.9 32.28 71.9 32.63C71.9 32.98 71.62 33.26 71.27 33.26Z" fill="#0E1721"/>
  <path d="M47.92 51.0401C47.84 51.0201 47.54 51.0601 47.38 51.0801C46.85 51.1501 46.19 51.2401 45.63 50.8301C45.06 50.4201 44.94 49.7601 44.85 49.2301C44.82 49.0601 44.77 48.7801 44.72 48.7101C44.67 48.6501 44.42 48.5201 44.27 48.4401C43.79 48.1901 43.2 47.8701 42.98 47.2001C42.93 47.0501 42.91 46.8901 42.91 46.7301C42.91 46.2601 43.11 45.8501 43.28 45.4801C43.36 45.3101 43.49 45.0401 43.49 44.9501C43.49 44.8601 43.35 44.5801 43.28 44.4301C43.1 44.0601 42.91 43.6501 42.91 43.1801C42.91 43.0201 42.93 42.8601 42.98 42.7001C43.2 42.0301 43.79 41.7101 44.27 41.4601C44.41 41.3901 44.67 41.2501 44.72 41.1801C44.76 41.1101 44.81 40.8301 44.84 40.6601C44.94 40.1301 45.05 39.4801 45.62 39.0601C46.18 38.6501 46.84 38.7401 47.37 38.8101C47.55 38.8301 47.83 38.8701 47.92 38.8501C47.99 38.8201 48.19 38.6301 48.31 38.5201C48.68 38.1601 49.19 37.6801 49.91 37.6801C50.63 37.6801 51.11 38.1501 51.5 38.5201C51.61 38.6301 51.82 38.8201 51.89 38.8601C51.97 38.8801 52.26 38.8401 52.43 38.8201C52.96 38.7501 53.62 38.6601 54.18 39.0701C54.75 39.4801 54.87 40.1401 54.96 40.6601C54.99 40.8301 55.04 41.1101 55.09 41.1901C55.14 41.2501 55.39 41.3801 55.54 41.4601C56.02 41.7101 56.61 42.0301 56.83 42.7101C56.88 42.8601 56.9 43.0201 56.9 43.1801C56.9 43.6501 56.7 44.0701 56.53 44.4301C56.45 44.5901 56.32 44.8601 56.32 44.9501C56.32 45.0401 56.46 45.3201 56.53 45.4701C56.71 45.8401 56.9 46.2501 56.9 46.7201C56.9 46.8801 56.88 47.0401 56.83 47.1901C56.61 47.8701 55.99 48.2001 55.54 48.4401C55.39 48.5201 55.14 48.6501 55.09 48.7201C55.05 48.7901 55 49.0701 54.97 49.2401C54.87 49.7701 54.76 50.4201 54.19 50.8401C53.63 51.2501 52.97 51.1601 52.44 51.0901C52.28 51.0701 51.98 51.0301 51.89 51.0501C51.82 51.0801 51.62 51.2701 51.5 51.3801C51.11 51.7601 50.62 52.2201 49.91 52.2201C49.2 52.2201 48.68 51.7301 48.32 51.3801C48.2 51.2701 48 51.0801 47.93 51.0401H47.92Z" fill="#FCCD2A"/>
  <path d="M49.91 52.86C48.93 52.86 48.27 52.22 47.88 51.84C47.85 51.81 47.78 51.74 47.72 51.69C47.63 51.69 47.52 51.71 47.48 51.72C46.9 51.8 46.04 51.91 45.27 51.35C44.5 50.79 44.34 49.92 44.24 49.35C44.24 49.3 44.21 49.2 44.19 49.11C44.12 49.07 44.03 49.02 43.99 49C43.47 48.72 42.7 48.31 42.4 47.39C42.33 47.18 42.3 46.95 42.3 46.72C42.3 46.1 42.54 45.6 42.74 45.2C42.77 45.14 42.82 45.03 42.86 44.95C42.83 44.89 42.79 44.81 42.74 44.7C42.54 44.29 42.3 43.79 42.3 43.17C42.3 42.94 42.34 42.71 42.4 42.5C42.7 41.58 43.48 41.17 43.99 40.89C44.03 40.87 44.12 40.82 44.2 40.78C44.22 40.69 44.24 40.59 44.24 40.54C44.34 39.97 44.5 39.11 45.27 38.54C46.04 37.98 46.9 38.1 47.48 38.17C47.53 38.17 47.64 38.19 47.73 38.2C47.79 38.14 47.86 38.08 47.89 38.05C48.29 37.67 48.95 37.03 49.92 37.03C50.89 37.03 51.53 37.64 51.95 38.05C52.02 38.11 52.07 38.17 52.12 38.21C52.21 38.21 52.32 38.19 52.36 38.18C52.93 38.1 53.8 37.99 54.57 38.55C55.34 39.11 55.5 39.97 55.6 40.54C55.61 40.6 55.63 40.7 55.65 40.78C55.73 40.82 55.81 40.87 55.85 40.89C56.37 41.17 57.14 41.58 57.44 42.5C57.51 42.72 57.54 42.94 57.54 43.17C57.54 43.79 57.3 44.29 57.1 44.69C57.07 44.75 57.02 44.85 56.98 44.94C57.02 45.03 57.07 45.14 57.1 45.19C57.3 45.6 57.54 46.1 57.54 46.72C57.54 46.95 57.5 47.18 57.44 47.39C57.14 48.31 56.33 48.74 55.85 49C55.81 49.02 55.72 49.07 55.64 49.11C55.62 49.2 55.6 49.3 55.6 49.35C55.5 49.92 55.34 50.78 54.57 51.35C53.8 51.91 52.94 51.79 52.37 51.72C52.32 51.72 52.21 51.7 52.12 51.69C52.06 51.75 51.99 51.81 51.96 51.84C51.54 52.25 50.9 52.86 49.93 52.86H49.91ZM47.85 50.41C47.94 50.41 48.02 50.41 48.09 50.44C48.12 50.44 48.14 50.46 48.17 50.47C48.33 50.54 48.48 50.67 48.75 50.93C49.07 51.24 49.44 51.6 49.91 51.6C50.38 51.6 50.72 51.26 51.06 50.93C51.35 50.65 51.48 50.54 51.63 50.47C51.66 50.46 51.68 50.45 51.71 50.44C51.89 50.39 52.1 50.41 52.51 50.46C52.97 50.52 53.45 50.59 53.81 50.33C54.17 50.07 54.26 49.59 54.34 49.13C54.41 48.73 54.46 48.54 54.55 48.39C54.57 48.36 54.58 48.34 54.6 48.32C54.71 48.18 54.88 48.08 55.23 47.9C55.63 47.69 56.08 47.45 56.22 47.01C56.25 46.92 56.26 46.83 56.26 46.73C56.26 46.4 56.1 46.07 55.95 45.75C55.77 45.37 55.68 45.16 55.68 44.97C55.68 44.75 55.76 44.55 55.95 44.17C56.11 43.84 56.27 43.51 56.27 43.18C56.27 43.08 56.26 42.99 56.23 42.9C56.09 42.47 55.66 42.24 55.25 42.02C54.9 41.83 54.73 41.73 54.62 41.6C54.6 41.58 54.59 41.56 54.57 41.53C54.47 41.38 54.43 41.19 54.35 40.79C54.26 40.32 54.18 39.85 53.82 39.58C53.46 39.32 52.99 39.38 52.52 39.45C52.11 39.51 51.91 39.52 51.73 39.47C51.7 39.47 51.67 39.45 51.64 39.44C51.48 39.37 51.33 39.24 51.06 38.98C50.72 38.65 50.37 38.32 49.91 38.32C49.45 38.32 49.08 38.67 48.76 38.99C48.47 39.27 48.34 39.38 48.19 39.45C48.16 39.46 48.13 39.47 48.1 39.48C47.92 39.53 47.72 39.51 47.3 39.46C46.84 39.4 46.37 39.33 46.01 39.6C45.65 39.86 45.56 40.34 45.48 40.8C45.41 41.2 45.36 41.39 45.27 41.54C45.26 41.56 45.24 41.59 45.22 41.61C45.11 41.75 44.93 41.85 44.59 42.03C44.17 42.26 43.74 42.48 43.6 42.92C43.57 43.01 43.56 43.1 43.56 43.2C43.56 43.53 43.72 43.86 43.87 44.18C44.05 44.56 44.14 44.77 44.14 44.96C44.14 45.18 44.06 45.38 43.87 45.76C43.71 46.09 43.55 46.42 43.55 46.75C43.55 46.85 43.56 46.94 43.59 47.03C43.73 47.46 44.16 47.69 44.57 47.91C44.92 48.1 45.09 48.2 45.2 48.33C45.22 48.35 45.24 48.38 45.25 48.4C45.35 48.55 45.39 48.75 45.47 49.15C45.55 49.61 45.64 50.08 46 50.35C46.36 50.61 46.83 50.55 47.29 50.49C47.54 50.46 47.71 50.44 47.84 50.44L47.85 50.41Z" fill="#0E1721"/>
</svg>
