<svg xmlns="http://www.w3.org/2000/svg" width="100" height="100" viewBox="0 0 100 100" fill="none">
  <path d="M99.21 65.8401V71.7501C99.21 75.0101 96.57 77.6501 93.3 77.6501H6.69998C3.43998 77.6501 0.789978 75.0101 0.789978 71.7501V65.8401H99.21Z" fill="#4279B6"/>
  <path d="M93.3 78.4401H6.7C3.01 78.4401 0 75.4401 0 71.75V65.84C0 65.4 0.35 65.05 0.79 65.05H99.21C99.65 65.05 100 65.4 100 65.84V71.75C100 75.4401 97 78.4401 93.3 78.4401ZM1.58 66.6301V71.74C1.58 74.56 3.87 76.85 6.69 76.85H93.29C96.11 76.85 98.4 74.56 98.4 71.74V66.6301H1.58Z" fill="#0E1721"/>
  <path d="M99.21 12.7V65.84H0.789978V12.7C0.789978 9.44004 3.43998 6.79004 6.69998 6.79004H93.3C96.56 6.79004 99.21 9.43004 99.21 12.7Z" fill="#4279B6"/>
  <path d="M99.21 66.63H0.79C0.35 66.63 0 66.28 0 65.84V12.7C0 9 3 6 6.7 6H93.3C96.99 6 100 9 100 12.7V65.84C100 66.28 99.65 66.63 99.21 66.63ZM1.58 65.05H98.41V12.7C98.41 9.88 96.12 7.59 93.3 7.59H6.7C3.88 7.58 1.58 9.88 1.58 12.7V65.05Z" fill="#0E1721"/>
  <path d="M38.19 94.19H30.31C29.87 94.19 29.52 93.84 29.52 93.4C29.52 92.96 29.87 92.61 30.31 92.61H38.19C38.63 92.61 38.98 92.96 38.98 93.4C38.98 93.84 38.63 94.19 38.19 94.19Z" fill="#0E1721"/>
  <path d="M69.68 94.19H61.8C61.36 94.19 61.01 93.84 61.01 93.4C61.01 92.96 61.36 92.61 61.8 92.61H69.68C70.12 92.61 70.47 92.96 70.47 93.4C70.47 93.84 70.12 94.19 69.68 94.19Z" fill="#0E1721"/>
  <path d="M61.81 93.4H38.19L42.13 77.65H57.87L61.81 93.4Z" fill="#4279B6"/>
  <path d="M61.81 94.19H38.19C37.95 94.19 37.72 94.08 37.57 93.89C37.42 93.7 37.37 93.45 37.43 93.21L41.37 77.46C41.46 77.11 41.77 76.86 42.14 76.86H57.88C58.24 76.86 58.56 77.11 58.65 77.46L62.59 93.21C62.65 93.45 62.59 93.7 62.45 93.89C62.31 94.08 62.07 94.19 61.83 94.19H61.81ZM39.21 92.61H60.8L57.26 78.44H42.75L39.21 92.61Z" fill="#0E1721"/>
  <path d="M5.60999 61.13H94.39V12.5C94.39 11.95 93.9 11.51 93.3 11.51H6.69999C6.09999 11.51 5.60999 11.96 5.60999 12.5V61.13Z" fill="white"/>
  <path d="M94.39 61.92H5.61001C5.17001 61.92 4.82001 61.57 4.82001 61.13V12.5C4.82001 11.51 5.66001 10.71 6.70001 10.71H93.3C94.34 10.71 95.18 11.51 95.18 12.5V61.13C95.18 61.57 94.83 61.92 94.39 61.92ZM6.40001 60.34H93.6V12.5C93.6 12.4 93.47 12.3 93.3 12.3H6.70001C6.53001 12.3 6.40001 12.41 6.40001 12.5V60.34Z" fill="#0E1721"/>
  <path d="M21.1 11.5H5.60999V61.13H21.1V11.5Z" fill="#FCCD2A"/>
  <path d="M21.1 61.92H5.61001C5.17001 61.92 4.82001 61.57 4.82001 61.13V11.5C4.82001 11.06 5.17001 10.71 5.61001 10.71H21.1C21.54 10.71 21.89 11.06 21.89 11.5V61.13C21.89 61.57 21.54 61.92 21.1 61.92ZM6.40001 60.34H20.31V12.3H6.40001V60.34Z" fill="#0E1721"/>
  <path d="M16.98 17.49H10.21V19.07H16.98V17.49Z" fill="#0E1721"/>
  <path d="M16.98 23.15H10.21V24.73H16.98V23.15Z" fill="#0E1721"/>
  <path d="M16.98 28.8199H10.21V30.3999H16.98V28.8199Z" fill="#0E1721"/>
  <path d="M16.98 34.48H10.21V36.06H16.98V34.48Z" fill="#0E1721"/>
  <path d="M87.21 18.28H27.89V29.6H87.21V18.28Z" fill="#FC8B27"/>
  <path d="M87.21 30.4H27.89C27.45 30.4 27.1 30.05 27.1 29.61V18.29C27.1 17.85 27.45 17.5 27.89 17.5H87.21C87.65 17.5 88 17.85 88 18.29V29.61C88 30.05 87.65 30.4 87.21 30.4ZM28.68 28.82H86.42V19.08H28.68V28.82Z" fill="#0E1721"/>
  <path d="M40.82 36.15H28.16V48.81H40.82V36.15Z" fill="#3C8645"/>
  <path d="M40.83 49.6H28.17C27.73 49.6 27.38 49.25 27.38 48.81V36.15C27.38 35.71 27.73 35.36 28.17 35.36H40.83C41.27 35.36 41.62 35.71 41.62 36.15V48.81C41.62 49.25 41.27 49.6 40.83 49.6ZM28.95 48.02H40.03V36.94H28.95V48.02Z" fill="#0E1721"/>
  <path d="M63.88 36.15H51.22V48.81H63.88V36.15Z" fill="#3C8645"/>
  <path d="M63.88 49.6H51.22C50.78 49.6 50.43 49.25 50.43 48.81V36.15C50.43 35.71 50.78 35.36 51.22 35.36H63.88C64.32 35.36 64.67 35.71 64.67 36.15V48.81C64.67 49.25 64.32 49.6 63.88 49.6ZM52.01 48.02H63.09V36.94H52.01V48.02Z" fill="#0E1721"/>
  <path d="M87.21 36.15H74.55V48.81H87.21V36.15Z" fill="#3C8645"/>
  <path d="M87.21 49.6H74.55C74.11 49.6 73.76 49.25 73.76 48.81V36.15C73.76 35.71 74.11 35.36 74.55 35.36H87.21C87.65 35.36 88 35.71 88 36.15V48.81C88 49.25 87.65 49.6 87.21 49.6ZM75.34 48.02H86.42V36.94H75.34V48.02Z" fill="#0E1721"/>
  <path d="M72.11 56.82H42.99C42.55 56.82 42.2 56.47 42.2 56.03C42.2 55.59 42.55 55.24 42.99 55.24H72.11C72.55 55.24 72.9 55.59 72.9 56.03C72.9 56.47 72.55 56.82 72.11 56.82Z" fill="#0E1721"/>
</svg>
