<svg xmlns="http://www.w3.org/2000/svg" width="100" height="100" viewBox="0 0 100 100" fill="none">
  <path d="M95.4299 37.28L88.9499 59.88C88.7099 60.71 87.8499 61.19 87.0199 60.95L56.4399 52.18C55.6099 51.94 55.1299 51.08 55.3699 50.25L61.8499 27.65L95.4399 37.28H95.4299Z" fill="white"/>
  <path d="M87.4499 61.52C87.2599 61.52 87.0699 61.49 86.8799 61.44L56.2999 52.67C55.1999 52.36 54.57 51.21 54.88 50.11L61.36 27.52C61.4 27.39 61.4799 27.28 61.5999 27.22C61.7199 27.15 61.86 27.14 61.99 27.18L95.58 36.81C95.71 36.85 95.8199 36.93 95.8799 37.05C95.9499 37.17 95.9599 37.31 95.9199 37.44L89.44 60.03C89.29 60.56 88.9399 61 88.4499 61.27C88.1399 61.44 87.7999 61.53 87.4499 61.53V61.52ZM62.1899 28.28L55.8499 50.39C55.7699 50.66 55.7999 50.95 55.9399 51.19C56.0799 51.43 56.2999 51.61 56.5699 51.69L87.15 60.46C87.42 60.54 87.7099 60.51 87.9499 60.37C88.1999 60.23 88.3699 60.01 88.4499 59.74L94.79 37.63L62.1799 28.28H62.1899Z" fill="#0E1721"/>
  <path d="M99.43 23.32L95.43 37.27L61.84 27.64L65.84 13.69C66.08 12.86 66.94 12.38 67.77 12.62L98.35 21.39C99.18 21.63 99.66 22.49 99.42 23.32H99.43Z" fill="#4279B6"/>
  <path d="M95.4299 37.79C95.4299 37.79 95.3399 37.79 95.2899 37.77L61.6999 28.14C61.5699 28.1 61.4599 28.02 61.3999 27.9C61.3299 27.78 61.3199 27.64 61.3599 27.51L65.3599 13.56C65.5099 13.03 65.8599 12.59 66.3499 12.32C66.8299 12.05 67.3899 11.99 67.9299 12.14L98.5099 20.91C99.0399 21.06 99.4799 21.41 99.7499 21.9C100.02 22.38 100.08 22.94 99.9299 23.47L95.9299 37.42C95.8899 37.55 95.8099 37.66 95.6899 37.72C95.6099 37.76 95.5299 37.78 95.4399 37.78L95.4299 37.79ZM62.4699 27.3L95.0799 36.65L98.9399 23.18C99.0999 22.62 98.7799 22.04 98.2199 21.88L67.6399 13.11C67.3699 13.03 67.0799 13.06 66.8399 13.2C66.5899 13.34 66.4199 13.56 66.3399 13.83L62.4799 27.3H62.4699Z" fill="#0E1721"/>
  <path d="M87.63 39.03C87.63 39.03 87.56 39.03 87.52 39.02L67.63 33.32C67.43 33.26 67.31 33.05 67.37 32.85C67.43 32.65 67.64 32.53 67.84 32.59L87.73 38.29C87.93 38.35 88.05 38.56 87.99 38.76C87.94 38.93 87.79 39.04 87.62 39.04L87.63 39.03Z" fill="#0E1721"/>
  <path d="M86.7099 42.21C86.7099 42.21 86.6399 42.21 86.5999 42.2L66.7099 36.5C66.5099 36.44 66.3899 36.23 66.4499 36.03C66.5099 35.83 66.7199 35.71 66.9199 35.77L86.8099 41.47C87.0099 41.53 87.1299 41.74 87.07 41.94C87.02 42.11 86.8699 42.22 86.6999 42.22L86.7099 42.21Z" fill="#0E1721"/>
  <path d="M85.7999 45.4C85.7999 45.4 85.7299 45.4 85.6899 45.39L65.7999 39.69C65.5999 39.63 65.4799 39.42 65.5399 39.22C65.5999 39.02 65.8099 38.9 66.0099 38.96L85.8999 44.66C86.0999 44.72 86.2199 44.93 86.1599 45.13C86.1099 45.3 85.9599 45.41 85.7899 45.41L85.7999 45.4Z" fill="#0E1721"/>
  <path d="M72.2499 52.81C71.8299 52.81 71.4299 52.59 71.2099 52.2L69.5099 49.13C69.1899 48.56 69.3999 47.84 69.9699 47.52C70.5399 47.2 71.2599 47.41 71.5799 47.98L72.7099 50.02L77.2699 47.54C77.8399 47.23 78.5599 47.44 78.8699 48.01C79.1799 48.58 78.9699 49.3 78.3999 49.61L72.8099 52.65C72.6299 52.75 72.4399 52.79 72.2499 52.79V52.81Z" fill="#4279B6"/>
  <path d="M72.25 53.19C71.68 53.19 71.16 52.88 70.88 52.38L69.18 49.31C68.76 48.56 69.04 47.6 69.79 47.18C70.16 46.98 70.58 46.93 70.98 47.04C71.38 47.16 71.71 47.42 71.92 47.79L72.87 49.5L77.1 47.2C77.47 47 77.89 46.96 78.29 47.07C78.69 47.19 79.02 47.46 79.22 47.82C79.42 48.19 79.46 48.61 79.35 49.01C79.24 49.41 78.96 49.74 78.6 49.94L73.01 52.98C72.78 53.1 72.52 53.17 72.26 53.17L72.25 53.19ZM70.55 47.75C70.42 47.75 70.28 47.78 70.16 47.85C69.77 48.06 69.63 48.55 69.85 48.94L71.55 52C71.76 52.37 72.26 52.52 72.63 52.32L78.22 49.28C78.41 49.18 78.55 49.01 78.61 48.8C78.67 48.59 78.65 48.38 78.55 48.19C78.45 48 78.28 47.86 78.07 47.8C77.87 47.74 77.65 47.76 77.46 47.86L72.9 50.34C72.72 50.44 72.49 50.37 72.38 50.19L71.25 48.15C71.15 47.96 70.98 47.83 70.77 47.77C70.7 47.75 70.62 47.74 70.55 47.74V47.75Z" fill="#0E1721"/>
  <path d="M76.9457 19.6366L74.7902 27.1537C74.5999 27.8173 74.9836 28.5095 75.6473 28.6998L83.1643 30.8553C83.8279 31.0456 84.5202 30.6619 84.7104 29.9983L86.8659 22.4812C87.0562 21.8176 86.6725 21.1254 86.0089 20.9351L78.4918 18.7796C77.8282 18.5893 77.136 18.973 76.9457 19.6366Z" fill="white"/>
  <path d="M83.5099 31.29C83.3599 31.29 83.2099 31.27 83.0599 31.23L75.5499 29.08C75.1299 28.96 74.7799 28.68 74.5699 28.3C74.3599 27.92 74.3099 27.48 74.4299 27.06L76.5799 19.55C76.8299 18.68 77.7399 18.18 78.5999 18.43L86.1099 20.58C86.5299 20.7 86.8799 20.98 87.0899 21.36C87.2999 21.74 87.3499 22.18 87.2299 22.6L85.0799 30.11C84.9599 30.53 84.6799 30.88 84.2999 31.09C84.0499 31.23 83.7799 31.3 83.5099 31.3V31.29ZM78.1499 19.12C77.7699 19.12 77.4199 19.37 77.3099 19.75L75.1599 27.26C75.0999 27.48 75.1199 27.72 75.2399 27.92C75.3499 28.12 75.5399 28.27 75.7599 28.34L83.2699 30.49C83.4899 30.56 83.7299 30.53 83.9299 30.41C84.1299 30.3 84.2799 30.11 84.3499 29.89L86.4999 22.38C86.6299 21.92 86.3599 21.43 85.8999 21.3L78.3899 19.15C78.3099 19.13 78.2299 19.12 78.1499 19.12Z" fill="#0E1721"/>
  <path d="M80.36 26.41C78.66 25.92 76.87 27.04 76.33 28.91L82.46 30.67C82.99 28.81 82.05 26.9 80.35 26.42" fill="#4279B6"/>
  <path d="M82.47 31.04C82.47 31.04 82.4 31.04 82.36 31.03L76.23 29.27C76.03 29.21 75.91 29 75.97 28.8C76.56 26.74 78.58 25.5 80.47 26.04C81.39 26.3 82.15 26.95 82.6 27.85C83.04 28.74 83.13 29.78 82.84 30.77C82.79 30.94 82.64 31.05 82.47 31.05V31.04ZM76.83 28.65L82.19 30.19C82.31 29.5 82.21 28.8 81.91 28.19C81.56 27.48 80.97 26.98 80.26 26.78C78.89 26.39 77.42 27.21 76.83 28.65Z" fill="#0E1721"/>
  <path d="M82.9 24.52C82.61 25.54 81.55 26.12 80.52 25.83C79.49 25.54 78.93 24.48 79.22 23.46C79.51 22.44 80.57 21.86 81.58 22.14C82.59 22.42 83.19 23.5 82.9 24.51" fill="#4279B6"/>
  <path d="M81.0599 26.29C80.8499 26.29 80.6299 26.26 80.4199 26.2C79.2099 25.85 78.51 24.58 78.86 23.36C79.03 22.77 79.4199 22.28 79.9499 21.99C80.4899 21.69 81.1 21.62 81.69 21.79C82.28 21.96 82.77 22.35 83.07 22.89C83.37 23.43 83.4399 24.05 83.2699 24.64C83.0999 25.23 82.7099 25.72 82.1699 26.02C81.8299 26.21 81.4499 26.31 81.0599 26.31V26.29ZM81.0599 22.46C80.7999 22.46 80.55 22.53 80.32 22.65C79.96 22.85 79.6999 23.18 79.5899 23.57C79.3599 24.38 79.8199 25.23 80.6299 25.46C81.0299 25.57 81.44 25.53 81.8 25.33C82.16 25.13 82.42 24.81 82.5299 24.41C82.6399 24.02 82.59 23.6 82.4 23.24C82.2 22.88 81.87 22.62 81.47 22.51C81.33 22.47 81.1899 22.45 81.0599 22.45V22.46Z" fill="#0E1721"/>
  <path d="M67.6399 8.51001H31.5399C30.7226 8.51001 30.0599 9.17263 30.0599 9.99001V40.2C30.0599 41.0174 30.7226 41.68 31.5399 41.68H67.6399C68.4573 41.68 69.1199 41.0174 69.1199 40.2V9.99001C69.1199 9.17263 68.4573 8.51001 67.6399 8.51001Z" fill="#FC8B27"/>
  <path d="M67.6399 42.18H31.5399C30.4399 42.18 29.5499 41.29 29.5499 40.19V9.99C29.5499 8.89 30.4399 8 31.5399 8H67.6299C68.7299 8 69.6199 8.89 69.6199 9.99V40.19C69.6199 41.29 68.7299 42.18 67.6299 42.18H67.6399ZM31.5399 9.02C30.9999 9.02 30.5699 9.46 30.5699 9.99V40.19C30.5699 40.73 31.0099 41.16 31.5399 41.16H67.6299C68.1699 41.16 68.5999 40.72 68.5999 40.19V9.99C68.5999 9.45 68.1599 9.02 67.6299 9.02H31.5399Z" fill="#0E1721"/>
  <path d="M64.8699 11.06H34.3199C33.6296 11.06 33.0699 11.6196 33.0699 12.31V37.87C33.0699 38.5604 33.6296 39.12 34.3199 39.12H64.8699C65.5603 39.12 66.1199 38.5604 66.1199 37.87V12.31C66.1199 11.6196 65.5603 11.06 64.8699 11.06Z" fill="white"/>
  <path d="M64.8599 39.5H34.3199C33.4199 39.5 32.6799 38.77 32.6799 37.86V12.32C32.6799 11.42 33.4099 10.68 34.3199 10.68H64.8599C65.7599 10.68 66.4999 11.41 66.4999 12.32V37.87C66.4999 38.77 65.7699 39.51 64.8599 39.51V39.5ZM34.3199 11.44C33.8399 11.44 33.4499 11.83 33.4499 12.31V37.86C33.4499 38.34 33.8399 38.73 34.3199 38.73H64.8599C65.3399 38.73 65.7299 38.34 65.7299 37.86V12.32C65.7299 11.84 65.3399 11.45 64.8599 11.45H34.3199V11.44Z" fill="#0E1721"/>
  <path d="M62.3399 17.76C62.3399 17.76 62.3199 17.76 62.2999 17.76C53.8599 16.96 45.2999 16.96 36.8599 17.76C36.6499 17.78 36.4599 17.63 36.4399 17.42C36.4199 17.21 36.5699 17.02 36.7799 17C45.2699 16.2 53.8699 16.2 62.3599 17C62.5699 17.02 62.7199 17.21 62.6999 17.42C62.6799 17.62 62.5199 17.77 62.3199 17.77L62.3399 17.76Z" fill="#FC8B27"/>
  <path d="M61.3699 21.61H37.8199C37.6099 21.61 37.4399 21.44 37.4399 21.23C37.4399 21.02 37.6099 20.85 37.8199 20.85H61.3699C61.5799 20.85 61.7499 21.02 61.7499 21.23C61.7499 21.44 61.5799 21.61 61.3699 21.61Z" fill="#0E1721"/>
  <path d="M61.3699 33.07H56.0299C55.8199 33.07 55.6499 32.9 55.6499 32.69C55.6499 32.48 55.8199 32.31 56.0299 32.31H61.3699C61.5799 32.31 61.7499 32.48 61.7499 32.69C61.7499 32.9 61.5799 33.07 61.3699 33.07Z" fill="#0E1721"/>
  <path d="M43.1499 33.07H37.8099C37.5999 33.07 37.4299 32.9 37.4299 32.69C37.4299 32.48 37.5999 32.31 37.8099 32.31H43.1499C43.3599 32.31 43.5299 32.48 43.5299 32.69C43.5299 32.9 43.3599 33.07 43.1499 33.07Z" fill="#0E1721"/>
  <path d="M61.3699 25.36H37.8199C37.6099 25.36 37.4399 25.19 37.4399 24.98C37.4399 24.77 37.6099 24.6 37.8199 24.6H61.3699C61.5799 24.6 61.7499 24.77 61.7499 24.98C61.7499 25.19 61.5799 25.36 61.3699 25.36Z" fill="#0E1721"/>
  <path d="M48.49 36.3C48.49 36.3 48.28 36.31 48.19 36.32C47.9 36.36 47.54 36.41 47.23 36.18C46.92 35.95 46.85 35.59 46.8 35.3C46.78 35.21 46.75 35.05 46.73 35.01C46.7 34.98 46.56 34.9 46.48 34.86C46.22 34.72 45.89 34.55 45.77 34.17C45.74 34.09 45.73 34 45.73 33.91C45.73 33.65 45.84 33.42 45.94 33.22C45.98 33.13 46.06 32.98 46.06 32.93C46.06 32.88 45.98 32.72 45.94 32.64C45.84 32.44 45.73 32.21 45.73 31.95C45.73 31.86 45.74 31.77 45.77 31.69C45.89 31.32 46.22 31.14 46.48 31C46.56 30.96 46.7 30.88 46.73 30.85C46.75 30.81 46.78 30.66 46.8 30.56C46.85 30.27 46.92 29.91 47.23 29.68C47.54 29.45 47.9 29.5 48.19 29.54C48.29 29.55 48.44 29.57 48.49 29.56C48.53 29.54 48.64 29.44 48.7 29.38C48.9 29.18 49.18 28.92 49.58 28.92C49.98 28.92 50.24 29.18 50.46 29.38C50.52 29.44 50.63 29.55 50.68 29.57C50.72 29.58 50.88 29.57 50.98 29.55C51.27 29.51 51.64 29.46 51.95 29.69C52.26 29.92 52.33 30.28 52.38 30.57C52.4 30.66 52.42 30.82 52.45 30.86C52.48 30.89 52.61 30.97 52.7 31.01C52.96 31.15 53.29 31.32 53.41 31.7C53.44 31.78 53.45 31.87 53.45 31.96C53.45 32.22 53.34 32.45 53.24 32.65C53.2 32.74 53.13 32.89 53.12 32.94C53.12 32.99 53.2 33.15 53.24 33.23C53.34 33.43 53.45 33.66 53.45 33.92C53.45 34.01 53.44 34.1 53.41 34.18C53.29 34.55 52.95 34.73 52.7 34.87C52.62 34.91 52.48 34.99 52.45 35.02C52.43 35.06 52.4 35.21 52.38 35.31C52.33 35.6 52.26 35.96 51.95 36.19C51.64 36.42 51.28 36.37 50.99 36.33C50.9 36.32 50.74 36.3 50.69 36.31C50.65 36.33 50.54 36.43 50.48 36.49C50.26 36.7 50 36.95 49.6 36.95C49.2 36.95 48.92 36.68 48.72 36.49C48.65 36.43 48.55 36.32 48.5 36.3H48.49Z" fill="#FC8B27"/>
  <path d="M49.59 37.33C49.04 37.33 48.67 36.97 48.45 36.76C48.42 36.73 48.39 36.7 48.37 36.69C48.33 36.69 48.28 36.7 48.26 36.7C47.93 36.74 47.45 36.81 47.01 36.49C46.57 36.17 46.49 35.69 46.43 35.37C46.43 35.35 46.42 35.3 46.41 35.25C46.37 35.23 46.33 35.21 46.31 35.2C46.02 35.04 45.58 34.81 45.42 34.29C45.38 34.17 45.36 34.04 45.36 33.91C45.36 33.56 45.5 33.27 45.6 33.06C45.61 33.03 45.64 32.98 45.66 32.93C45.64 32.88 45.61 32.83 45.6 32.81C45.49 32.58 45.35 32.3 45.35 31.95C45.35 31.82 45.37 31.69 45.41 31.57C45.58 31.05 46.01 30.82 46.3 30.67C46.32 30.66 46.36 30.64 46.4 30.62C46.4 30.59 46.41 30.55 46.42 30.5C46.48 30.18 46.56 29.7 47 29.38C47.43 29.06 47.92 29.13 48.24 29.17C48.27 29.17 48.32 29.18 48.36 29.19C48.39 29.16 48.42 29.14 48.44 29.12C48.66 28.9 49.04 28.55 49.58 28.55C50.12 28.55 50.49 28.89 50.72 29.12C50.74 29.14 50.77 29.17 50.8 29.2C50.84 29.2 50.89 29.19 50.92 29.19C51.24 29.15 51.73 29.08 52.16 29.4C52.6 29.72 52.68 30.2 52.74 30.52C52.74 30.55 52.75 30.59 52.76 30.64C52.79 30.65 52.82 30.67 52.86 30.69C53.15 30.85 53.58 31.08 53.75 31.6C53.79 31.72 53.81 31.85 53.81 31.98C53.81 32.33 53.67 32.61 53.57 32.83C53.56 32.86 53.53 32.91 53.51 32.95C53.52 32.98 53.54 33.02 53.57 33.07C53.68 33.3 53.81 33.58 53.81 33.93C53.81 34.06 53.79 34.19 53.75 34.31C53.58 34.83 53.13 35.07 52.86 35.22C52.84 35.23 52.8 35.25 52.76 35.27C52.76 35.31 52.74 35.36 52.74 35.39C52.68 35.71 52.59 36.19 52.16 36.51C51.73 36.83 51.24 36.76 50.92 36.72C50.89 36.72 50.84 36.71 50.8 36.7C50.77 36.73 50.74 36.75 50.72 36.78C50.48 37.01 50.13 37.35 49.58 37.35L49.59 37.33ZM48.45 35.92C48.5 35.92 48.55 35.92 48.59 35.94C48.61 35.94 48.62 35.94 48.64 35.96C48.73 36 48.82 36.07 48.97 36.22C49.14 36.39 49.34 36.58 49.58 36.58C49.81 36.58 49.97 36.44 50.19 36.22C50.35 36.06 50.43 36 50.52 35.96C50.54 35.96 50.55 35.95 50.57 35.94C50.68 35.91 50.79 35.92 51.02 35.94C51.33 35.98 51.55 36 51.72 35.87C51.9 35.74 51.95 35.53 52 35.23C52.04 35 52.07 34.9 52.12 34.81C52.12 34.79 52.14 34.78 52.15 34.77C52.22 34.69 52.31 34.64 52.5 34.53C52.72 34.41 52.96 34.29 53.03 34.06C53.04 34.02 53.05 33.97 53.05 33.92C53.05 33.75 52.96 33.57 52.88 33.4C52.78 33.18 52.73 33.07 52.73 32.95C52.73 32.82 52.78 32.71 52.88 32.5C52.97 32.32 53.05 32.14 53.05 31.97C53.05 31.92 53.05 31.87 53.03 31.83C52.96 31.62 52.78 31.51 52.5 31.36C52.3 31.25 52.21 31.2 52.14 31.12C52.13 31.11 52.12 31.09 52.11 31.08C52.05 30.99 52.03 30.88 51.99 30.66C51.94 30.36 51.88 30.14 51.71 30.01C51.52 29.87 51.27 29.91 51.02 29.94C50.79 29.97 50.68 29.98 50.57 29.95C50.55 29.95 50.54 29.94 50.52 29.93C50.43 29.89 50.34 29.82 50.19 29.67C49.96 29.45 49.8 29.31 49.58 29.31C49.34 29.31 49.14 29.5 48.97 29.67C48.81 29.82 48.73 29.89 48.64 29.93C48.62 29.93 48.61 29.94 48.59 29.95C48.49 29.98 48.37 29.97 48.14 29.94C47.89 29.91 47.64 29.87 47.45 30.01C47.26 30.15 47.21 30.4 47.17 30.65C47.13 30.88 47.1 30.98 47.05 31.07C47.05 31.08 47.03 31.1 47.02 31.11C46.95 31.19 46.86 31.25 46.66 31.35C46.38 31.5 46.2 31.61 46.13 31.82C46.12 31.87 46.11 31.91 46.11 31.96C46.11 32.13 46.2 32.31 46.28 32.48C46.38 32.7 46.43 32.81 46.43 32.92C46.43 33.05 46.38 33.16 46.28 33.38C46.2 33.56 46.11 33.73 46.11 33.91C46.11 33.96 46.11 34.01 46.13 34.05C46.2 34.26 46.38 34.37 46.66 34.52C46.85 34.62 46.95 34.68 47.02 34.76C47.03 34.77 47.04 34.79 47.05 34.8C47.11 34.89 47.13 35 47.17 35.23C47.22 35.52 47.27 35.74 47.45 35.87C47.64 36.01 47.89 35.97 48.14 35.94C48.28 35.92 48.37 35.91 48.45 35.91V35.92Z" fill="#0E1721"/>
  <path d="M0.578685 24.2467L11.9867 61.4677C12.2456 62.3125 13.1405 62.7875 13.9853 62.5286L45.1255 52.9843C45.9704 52.7253 46.4454 51.8305 46.1864 50.9857L34.7784 13.7647C34.5195 12.9198 33.6246 12.4448 32.7798 12.7038L1.63958 22.2481C0.794719 22.507 0.31974 23.4018 0.578685 24.2467Z" fill="#3C8645"/>
  <path d="M13.51 63.1C13.17 63.1 12.83 63.02 12.52 62.85C12.02 62.59 11.66 62.14 11.49 61.61L0.0899515 24.39C-0.0800485 23.85 -0.0200485 23.28 0.239952 22.78C0.499951 22.28 0.949952 21.92 1.47995 21.75L32.6199 12.2C33.16 12.04 33.7299 12.09 34.2299 12.35C34.7299 12.61 35.09 13.06 35.2599 13.59L46.6699 50.81C47.0099 51.92 46.38 53.1 45.27 53.44L14.13 62.99C13.93 63.05 13.72 63.08 13.51 63.08V63.1ZM33.25 13.14C33.1399 13.14 33.0299 13.16 32.93 13.19L1.78995 22.73C1.50995 22.82 1.27995 23 1.14995 23.26C1.00995 23.52 0.989952 23.81 1.06995 24.09L12.48 61.31C12.57 61.59 12.75 61.82 13.01 61.95C13.27 62.09 13.56 62.11 13.84 62.03L44.9799 52.48C45.2599 52.39 45.4899 52.21 45.6199 51.95C45.7599 51.69 45.78 51.4 45.7 51.12L34.2999 13.91C34.2099 13.63 34.0299 13.4 33.77 13.27C33.61 13.19 33.4399 13.14 33.2599 13.14H33.25Z" fill="#0E1721"/>
  <path d="M3.11428 25.7287L13.2564 58.8193C13.4862 59.5692 14.2803 59.9907 15.0301 59.7609L42.7188 51.2745C43.4686 51.0447 43.8902 50.2505 43.6604 49.5007L33.5183 16.4101C33.2885 15.6602 32.4943 15.2387 31.7445 15.4685L4.05583 23.9549C3.30601 24.1847 2.88447 24.9789 3.11428 25.7287Z" fill="white"/>
  <path d="M14.6099 60.2C14.3199 60.2 14.0299 60.13 13.7699 59.99C13.3399 59.76 13.0299 59.39 12.8899 58.93L2.74991 25.84C2.60991 25.38 2.65991 24.89 2.87991 24.47C3.10991 24.04 3.47991 23.73 3.93991 23.59L31.6299 15.1C32.0899 14.96 32.5799 15.01 32.9999 15.23C33.4299 15.46 33.7399 15.83 33.8799 16.29L44.0199 49.38C44.3099 50.33 43.7699 51.34 42.8199 51.63L15.1299 60.12C14.9599 60.17 14.7799 60.2 14.5999 60.2H14.6099ZM32.1599 15.78C32.0599 15.78 31.9499 15.8 31.8499 15.83L4.16991 24.32C3.89991 24.4 3.68991 24.58 3.55991 24.83C3.42991 25.08 3.39991 25.36 3.47991 25.62L13.6199 58.71C13.6999 58.98 13.8799 59.19 14.1299 59.32C14.3799 59.45 14.6599 59.48 14.9199 59.4L42.6099 50.91C43.1599 50.74 43.4699 50.16 43.2999 49.61L33.1599 16.52C33.0799 16.25 32.8999 16.04 32.6499 15.91C32.4999 15.83 32.3299 15.79 32.1599 15.79V15.78Z" fill="#0E1721"/>
  <path d="M14.61 25.97C14.45 25.97 14.3 25.86 14.25 25.7C14.19 25.5 14.3 25.29 14.5 25.22L23.8 22.37C24 22.31 24.21 22.42 24.28 22.62C24.34 22.82 24.23 23.03 24.03 23.1L14.73 25.95C14.73 25.95 14.66 25.97 14.62 25.97H14.61Z" fill="#0E1721"/>
  <path d="M9.18995 32.54C9.02995 32.54 8.87995 32.43 8.82995 32.27C8.76995 32.07 8.87995 31.86 9.07995 31.79L25.18 26.86C25.38 26.8 25.59 26.91 25.66 27.11C25.7199 27.31 25.61 27.52 25.41 27.59L9.30995 32.52C9.30995 32.52 9.23995 32.54 9.19995 32.54H9.18995Z" fill="#0E1721"/>
  <path d="M10.5399 36.96C10.3799 36.96 10.2299 36.85 10.1799 36.69C10.1199 36.49 10.2299 36.28 10.4299 36.21L26.5299 31.28C26.7299 31.22 26.9399 31.33 27.0099 31.53C27.0699 31.73 26.9599 31.94 26.7599 32.01L10.6599 36.94C10.6599 36.94 10.5899 36.96 10.5499 36.96H10.5399Z" fill="#0E1721"/>
  <path d="M11.8999 41.37C11.7399 41.37 11.5899 41.26 11.5399 41.1C11.4799 40.9 11.5899 40.69 11.7899 40.62L27.8899 35.69C28.0899 35.63 28.2999 35.74 28.3699 35.94C28.4299 36.14 28.3199 36.35 28.1199 36.42L12.0199 41.35C12.0199 41.35 11.9499 41.37 11.9099 41.37H11.8999Z" fill="#0E1721"/>
  <path d="M13.25 45.79C13.09 45.79 12.94 45.68 12.89 45.52C12.83 45.32 12.94 45.11 13.14 45.04L29.24 40.11C29.44 40.05 29.65 40.16 29.72 40.36C29.78 40.56 29.67 40.77 29.47 40.84L13.37 45.77C13.37 45.77 13.3 45.79 13.26 45.79H13.25Z" fill="#0E1721"/>
  <path d="M27.19 27.02C27.03 27.02 26.88 26.91 26.83 26.75C26.77 26.55 26.88 26.34 27.08 26.27L31.9799 24.77C32.1799 24.71 32.3899 24.82 32.4599 25.02C32.5199 25.22 32.4099 25.43 32.2099 25.5L27.31 27C27.31 27 27.24 27.02 27.2 27.02H27.19Z" fill="#0E1721"/>
  <path d="M28.5399 31.44C28.3799 31.44 28.2299 31.33 28.1799 31.17C28.1199 30.97 28.2299 30.76 28.4299 30.69L33.3299 29.19C33.5299 29.13 33.7399 29.24 33.8099 29.44C33.8699 29.64 33.7599 29.85 33.5599 29.92L28.6599 31.42C28.6599 31.42 28.5899 31.44 28.5499 31.44H28.5399Z" fill="#0E1721"/>
  <path d="M29.8899 35.86C29.7299 35.86 29.5799 35.75 29.5299 35.59C29.4699 35.39 29.5799 35.18 29.7799 35.11L34.6799 33.61C34.8799 33.55 35.0899 33.66 35.1599 33.86C35.2199 34.06 35.1099 34.27 34.9099 34.34L30.0099 35.84C30.0099 35.84 29.9399 35.86 29.8999 35.86H29.8899Z" fill="#0E1721"/>
  <path d="M31.25 40.28C31.09 40.28 30.94 40.17 30.89 40.01C30.83 39.81 30.94 39.6 31.14 39.53L36.04 38.03C36.24 37.97 36.45 38.08 36.52 38.28C36.58 38.48 36.47 38.69 36.27 38.76L31.37 40.26C31.37 40.26 31.3 40.28 31.26 40.28H31.25Z" fill="#0E1721"/>
  <path d="M23.57 53.6C22.82 53.6 22.24 53.24 22.05 52.62C21.99 52.42 22.1 52.21 22.3 52.14C22.5 52.08 22.71 52.19 22.78 52.39C22.91 52.83 23.54 52.9 24.08 52.76C24.68 52.6 25.26 52.14 25.11 51.53C25.02 51.15 24.86 50.92 24.62 50.81C24.14 50.6 23.41 50.89 23.17 51.03C23.02 51.11 22.83 51.08 22.72 50.96C22.6 50.84 22.58 50.65 22.66 50.5L23.82 48.44L21.28 49.22C21.08 49.28 20.87 49.17 20.8 48.97C20.73 48.77 20.85 48.56 21.05 48.49L24.5 47.43C24.65 47.38 24.81 47.43 24.91 47.56C25.01 47.68 25.02 47.85 24.95 47.99L23.81 50.01C24.16 49.95 24.56 49.95 24.92 50.11C25.39 50.32 25.7 50.73 25.85 51.35C26.11 52.46 25.22 53.24 24.28 53.5C24.03 53.57 23.79 53.6 23.57 53.6Z" fill="#0E1721"/>
  <path d="M27.76 52.26C27.6 52.26 27.45 52.15 27.4 51.99L27.33 51.76C27.27 51.56 27.38 51.35 27.58 51.28C27.78 51.22 27.99 51.33 28.06 51.53L28.1299 51.76C28.1899 51.96 28.0799 52.17 27.8799 52.24C27.8399 52.25 27.81 52.26 27.77 52.26H27.76Z" fill="#0E1721"/>
  <path d="M29.79 51.51C29.68 51.51 29.57 51.46 29.5 51.37C29.4 51.25 29.39 51.08 29.46 50.95C30.09 49.78 31.13 47.8 31.23 47.45C31.32 47.16 31.23 46.82 31.01 46.6C30.77 46.36 30.41 46.3 29.99 46.43C29.13 46.69 29.12 47.63 29.12 47.67C29.12 47.88 28.95 48.05 28.74 48.05C28.53 48.05 28.36 47.88 28.36 47.67C28.36 47.14 28.64 46.04 29.77 45.69C30.46 45.48 31.11 45.61 31.55 46.05C31.97 46.46 32.13 47.09 31.96 47.66C31.85 48.04 31.07 49.53 30.57 50.49L32.79 49.81C32.99 49.75 33.2 49.86 33.27 50.06C33.33 50.26 33.22 50.47 33.02 50.54L29.91 51.49C29.91 51.49 29.84 51.51 29.8 51.51H29.79Z" fill="#0E1721"/>
  <path d="M83.14 85.23L70.03 72.13C69.79 71.89 69.45 71.73 69.07 71.73C68.7 71.73 68.36 71.88 68.12 72.13L67.76 72.49L64.72 69.45L61.99 72.18L65.03 75.22L64.66 75.59C64.42 75.83 64.27 76.17 64.27 76.54C64.27 76.92 64.42 77.26 64.67 77.5L77.78 90.61C79.26 92.09 81.66 92.09 83.14 90.61C84.62 89.13 84.62 86.73 83.14 85.25V85.23Z" fill="#FCCD2A"/>
  <path d="M80.45 92.34C79.32 92.34 78.18 91.91 77.32 91.05L64.21 77.94C63.83 77.56 63.63 77.06 63.63 76.53C63.63 76.04 63.81 75.58 64.13 75.22L61.09 72.18L64.72 68.55L67.76 71.59C68.12 71.27 68.58 71.09 69.07 71.09C69.59 71.09 70.1 71.3 70.48 71.67L83.59 84.77C85.32 86.5 85.31 89.31 83.59 91.03C82.73 91.89 81.59 92.33 80.46 92.33L80.45 92.34ZM62.89 72.17L65.93 75.21L65.12 76.02C64.99 76.15 64.91 76.33 64.91 76.52C64.91 76.71 64.98 76.89 65.12 77.03L78.23 90.14C79.46 91.37 81.46 91.37 82.69 90.14C83.92 88.91 83.92 86.9 82.69 85.67L69.58 72.57C69.45 72.44 69.26 72.36 69.07 72.36C68.88 72.36 68.7 72.43 68.56 72.57L67.75 73.38L64.71 70.34L62.88 72.17H62.89Z" fill="#0E1721"/>
  <path d="M35.28 42.74C27.35 50.67 27.35 63.53 35.28 71.46C43.21 79.39 56.07 79.39 64 71.46C71.93 63.53 71.93 50.67 64 42.74C56.07 34.81 43.21 34.81 35.28 42.74Z" fill="#FCCD2A"/>
  <path d="M49.64 78.04C44.05 78.04 38.79 75.86 34.83 71.9C26.66 63.73 26.66 50.45 34.83 42.28C43 34.11 56.28 34.11 64.45 42.28C68.41 46.24 70.59 51.5 70.58 57.09C70.58 62.68 68.4 67.94 64.45 71.9C60.49 75.86 55.23 78.04 49.64 78.04ZM49.64 37.43C44.6 37.43 39.56 39.35 35.73 43.18C28.06 50.85 28.06 63.33 35.73 71C39.45 74.72 44.39 76.76 49.64 76.76C54.89 76.76 59.83 74.71 63.55 71C67.27 67.28 69.31 62.35 69.31 57.09C69.31 51.83 67.26 46.89 63.55 43.18C59.71 39.35 54.68 37.43 49.64 37.43Z" fill="#0E1721"/>
  <path d="M61.51 68.97C54.96 75.52 44.33 75.53 37.77 68.97C35.49 66.69 34.01 63.93 33.31 61.01C32.2 56.36 33.1 51.32 36.02 47.29C36.54 46.57 37.12 45.88 37.77 45.24C44.33 38.68 54.96 38.68 61.51 45.24C68.07 51.8 68.06 62.43 61.51 68.98" fill="white"/>
  <path d="M49.64 74.51C45.18 74.51 40.72 72.81 37.32 69.41C35.04 67.13 33.44 64.27 32.7 61.15C31.52 56.2 32.54 51.01 35.51 46.91C36.05 46.16 36.66 45.44 37.33 44.78C40.62 41.49 45 39.68 49.65 39.67C54.3 39.67 58.67 41.48 61.96 44.77C68.75 51.56 68.75 62.62 61.96 69.41C58.56 72.81 54.1 74.5 49.64 74.5V74.51ZM49.65 40.95C45.34 40.95 41.28 42.63 38.23 45.68C37.62 46.29 37.05 46.96 36.55 47.66C33.8 51.46 32.85 56.28 33.95 60.86C34.64 63.75 36.12 66.4 38.24 68.52C41.39 71.67 45.53 73.24 49.66 73.24C53.8 73.24 57.93 71.67 61.08 68.52C67.38 62.22 67.38 51.97 61.08 45.68C58.03 42.63 53.98 40.95 49.67 40.95H49.65Z" fill="#0E1721"/>
</svg>
