<svg xmlns="http://www.w3.org/2000/svg" width="104" height="100" viewBox="0 0 104 100" fill="none">
  <path d="M102.44 19.42L72.41 10.81V8.07C72.41 6.93 71.48 6 70.34 6H32.81C31.67 6 30.74 6.93 30.74 8.07V11.36L1.55003 20.31C0.990035 20.48 0.530035 20.86 0.260035 21.38C-0.00996551 21.9 -0.0699655 22.49 0.100035 23.05L11.96 61.76C12.13 62.32 12.51 62.78 13.03 63.05C13.35 63.22 13.7 63.31 14.06 63.31C14.28 63.31 14.49 63.28 14.71 63.21L29.14 58.79C29.13 58.61 29.11 58.43 29.1 58.25C29.1 58.07 29.09 57.89 29.08 57.7L14.39 62.2C14.1 62.29 13.79 62.26 13.53 62.12C13.26 61.98 13.07 61.74 12.98 61.45L1.11003 22.74C1.02003 22.45 1.05003 22.14 1.19003 21.88C1.33003 21.61 1.57003 21.42 1.86003 21.33L30.74 12.47L31.27 12.31L31.8 12.15L34 11.48L34.26 11.4C34.26 11.4 34.35 11.38 34.4 11.37C34.46 11.36 34.53 11.35 34.6 11.35C34.67 11.35 34.74 11.35 34.8 11.37C34.91 11.39 35.02 11.43 35.13 11.48C35.4 11.62 35.59 11.86 35.68 12.15L39.11 23.34L39.33 24.06L41.55 31.29L41.79 32.08L43.2 36.68C43.37 36.62 43.53 36.55 43.7 36.5C43.87 36.44 44.04 36.39 44.2 36.34L42.9 32.09H44.9C45.12 32.09 45.3 31.91 45.3 31.69C45.3 31.47 45.12 31.29 44.9 31.29H42.66L40.44 24.06H63.84C64.06 24.06 64.24 23.88 64.24 23.66C64.24 23.44 64.06 23.26 63.84 23.26H40.2L39.24 20.13C39.24 20.13 39.31 20.15 39.34 20.15H63.84C64.06 20.15 64.24 19.97 64.24 19.75C64.24 19.53 64.06 19.35 63.84 19.35H39.34C39.22 19.35 39.11 19.4 39.04 19.49L36.69 11.83C36.42 10.96 35.67 10.38 34.82 10.29C34.91 9.88 35.27 9.57 35.71 9.57H67.47C67.97 9.57 68.38 9.98 68.38 10.48V27.04V28.14V37.06C68.38 37.56 67.97 37.97 67.47 37.97H61.33C61.4 38.01 61.47 38.05 61.54 38.09C61.7 38.18 61.87 38.27 62.03 38.37C62.24 38.5 62.46 38.63 62.67 38.77H67.47C67.72 38.77 67.95 38.72 68.17 38.62C68.39 38.52 68.58 38.38 68.73 38.21C69 37.91 69.17 37.51 69.17 37.07V28.38V27.28V10.49C69.17 10.49 69.17 10.44 69.17 10.41C69.13 9.51 68.38 8.79 67.47 8.79H35.71C34.81 8.79 34.08 9.49 34.01 10.37C33.99 10.37 33.97 10.37 33.95 10.38L31.8 11.04V8.07C31.8 7.51 32.25 7.06 32.81 7.06H70.34C70.9 7.06 71.35 7.51 71.35 8.07V27.9V29V39.48C71.35 39.58 71.33 39.68 71.3 39.77C71.17 40.19 70.79 40.49 70.33 40.49H64.95C65.15 40.66 65.35 40.84 65.55 41.02C65.74 41.19 65.92 41.37 66.11 41.55H70.33C71.27 41.55 72.06 40.92 72.32 40.06L89.12 44.88C89.12 44.88 89.19 44.9 89.23 44.9C89.4 44.9 89.56 44.79 89.61 44.61C89.67 44.4 89.55 44.18 89.34 44.12L72.41 39.27V36.51L90.07 41.57C90.07 41.57 90.14 41.59 90.18 41.59C90.35 41.59 90.51 41.48 90.56 41.3C90.62 41.09 90.5 40.87 90.29 40.81L72.41 35.68V32.92L91.02 38.26C91.02 38.26 91.09 38.28 91.13 38.28C91.3 38.28 91.46 38.17 91.51 37.99C91.57 37.78 91.45 37.56 91.24 37.5L72.41 32.1V29.31L98.59 36.82L92 59.81C91.92 60.09 91.73 60.32 91.48 60.47C91.22 60.61 90.93 60.65 90.65 60.56L72.54 55.37C72.55 55.56 72.57 55.74 72.58 55.93C72.58 56.12 72.59 56.3 72.6 56.49L90.36 61.58C90.56 61.64 90.76 61.66 90.96 61.66C91.32 61.66 91.68 61.57 92 61.39C92.5 61.11 92.87 60.65 93.03 60.1L99.77 36.6L103.93 22.09C104.26 20.95 103.59 19.75 102.45 19.43L102.44 19.42ZM72.41 28.21V11.91L102.15 20.44C102.73 20.61 103.07 21.21 102.9 21.8L98.88 35.8L72.41 28.21Z" fill="#2D557F"/>
  <path d="M75.14 52.99C75.41 52.99 75.68 52.92 75.92 52.79L81.73 49.63C82.11 49.42 82.39 49.08 82.51 48.66C82.63 48.24 82.59 47.8 82.38 47.42C82.17 47.04 81.83 46.76 81.41 46.64C80.99 46.52 80.55 46.56 80.17 46.77L75.77 49.16L74.79 47.38C74.58 47 74.23 46.72 73.82 46.6C73.4 46.48 72.96 46.53 72.58 46.74C71.8 47.17 71.51 48.17 71.95 48.95L73.72 52.14C74.01 52.66 74.55 52.98 75.14 52.98V52.99ZM72.97 47.45C73.1 47.38 73.23 47.34 73.37 47.34C73.45 47.34 73.52 47.35 73.6 47.37C73.81 47.43 73.99 47.57 74.1 47.77L75.28 49.89C75.39 50.08 75.63 50.15 75.82 50.05L80.56 47.47C80.76 47.36 80.98 47.34 81.19 47.4C81.4 47.46 81.58 47.61 81.69 47.8C81.8 48 81.82 48.22 81.76 48.43C81.7 48.64 81.55 48.82 81.36 48.93L75.55 52.09C75.16 52.31 74.64 52.15 74.42 51.76L72.65 48.57C72.43 48.17 72.57 47.66 72.98 47.44L72.97 47.45Z" fill="#2D557F"/>
  <path d="M89.55 19.08L81.74 16.84C80.84 16.58 79.9 17.1 79.64 18.01L77.4 25.82C77.27 26.26 77.33 26.72 77.55 27.11C77.77 27.51 78.13 27.79 78.57 27.92L79.28 28.12L85.66 29.95L86.37 30.15C86.53 30.19 86.68 30.22 86.84 30.22C87.12 30.22 87.41 30.15 87.66 30.01C88.06 29.79 88.34 29.43 88.47 28.99L90.71 21.18C90.84 20.74 90.78 20.28 90.56 19.89C90.34 19.49 89.98 19.21 89.54 19.08H89.55ZM87.28 29.31C87.07 29.43 86.82 29.46 86.59 29.39L86.24 29.29C86.58 27.52 85.78 25.78 84.32 25.02C85.35 25.01 86.3 24.33 86.6 23.29C86.78 22.68 86.7 22.03 86.39 21.47C86.08 20.91 85.57 20.51 84.95 20.33C84.34 20.16 83.7 20.23 83.14 20.54C82.58 20.85 82.18 21.36 82 21.97C81.7 23.01 82.14 24.08 83 24.64C81.37 24.51 79.77 25.57 79.12 27.25L78.77 27.15C78.54 27.08 78.34 26.93 78.23 26.72C78.11 26.51 78.08 26.26 78.15 26.03L80.39 18.22C80.5 17.82 80.87 17.56 81.26 17.56C81.34 17.56 81.43 17.57 81.51 17.6L89.32 19.84C89.8 19.98 90.08 20.48 89.94 20.96L87.7 28.77C87.63 29 87.48 29.2 87.27 29.31H87.28ZM83.86 24.16C83.02 23.92 82.54 23.04 82.78 22.19C82.9 21.78 83.17 21.44 83.54 21.24C83.78 21.11 84.04 21.04 84.31 21.04C84.45 21.04 84.6 21.06 84.74 21.1C85.15 21.22 85.49 21.49 85.7 21.86C85.91 22.23 85.96 22.66 85.84 23.07C85.6 23.92 84.71 24.41 83.86 24.16ZM85.48 29.07L79.91 27.47C80.52 25.97 82.05 25.11 83.48 25.52C84.92 25.93 85.76 27.47 85.49 29.07H85.48Z" fill="#2D557F"/>
  <path d="M65.23 15.79C65.25 15.57 65.09 15.38 64.87 15.36C56.04 14.53 47.09 14.53 38.27 15.36C38.05 15.38 37.89 15.57 37.91 15.79C37.93 16.01 38.12 16.17 38.34 16.15C47.12 15.32 56.02 15.32 64.79 16.15C64.8 16.15 64.82 16.15 64.83 16.15C65.03 16.15 65.21 16 65.22 15.79H65.23Z" fill="#2D557F"/>
  <path d="M62.7 32.07H63.82C64.04 32.07 64.22 31.89 64.22 31.67C64.22 31.45 64.04 31.27 63.82 31.27H58.27C58.05 31.27 57.87 31.45 57.87 31.67C57.87 31.89 58.05 32.07 58.27 32.07H62.7Z" fill="#2D557F"/>
  <path d="M55.98 30.92C55.98 30.79 55.96 30.65 55.92 30.53C55.74 29.99 55.29 29.75 54.99 29.59C54.95 29.57 54.92 29.55 54.89 29.53C54.89 29.49 54.87 29.44 54.87 29.41C54.81 29.08 54.72 28.58 54.27 28.25C53.82 27.92 53.31 27.99 52.98 28.03C52.95 28.03 52.9 28.04 52.86 28.05C52.83 28.02 52.79 27.99 52.78 27.97C52.53 27.73 52.16 27.38 51.59 27.38C51.02 27.38 50.63 27.75 50.4 27.97C50.38 27.99 50.35 28.02 50.32 28.05C50.27 28.05 50.22 28.04 50.19 28.03C49.86 27.98 49.35 27.92 48.9 28.25C48.45 28.58 48.35 29.08 48.29 29.42C48.29 29.47 48.27 29.51 48.27 29.54C48.23 29.56 48.19 29.59 48.16 29.6C47.86 29.76 47.41 30 47.23 30.54C47.19 30.67 47.17 30.8 47.17 30.93C47.17 31.29 47.31 31.58 47.42 31.82C47.43 31.84 47.46 31.9 47.48 31.95C47.46 31.99 47.44 32.05 47.42 32.08C47.31 32.3 47.17 32.61 47.17 32.97C47.17 33.11 47.19 33.24 47.23 33.36C47.4 33.9 47.86 34.14 48.16 34.3C48.18 34.31 48.22 34.33 48.26 34.36C48.26 34.41 48.28 34.46 48.28 34.48C48.33 34.74 48.4 35.11 48.64 35.41C48.82 35.39 49 35.38 49.19 35.37C49.75 35.33 50.32 35.3 50.88 35.3C50.75 35.18 50.67 35.12 50.59 35.08C50.57 35.08 50.56 35.07 50.54 35.06C50.5 35.05 50.45 35.04 50.39 35.04C50.31 35.04 50.21 35.05 50.07 35.07C49.76 35.11 49.54 35.13 49.35 35C49.17 34.87 49.11 34.64 49.06 34.33C49.02 34.09 48.99 33.98 48.93 33.89C48.92 33.87 48.91 33.86 48.9 33.84C48.83 33.76 48.73 33.7 48.53 33.59C48.25 33.44 48.06 33.32 47.98 33.1C47.97 33.05 47.96 33 47.96 32.95C47.96 32.77 48.05 32.59 48.14 32.4C48.25 32.18 48.29 32.06 48.3 31.93C48.3 31.81 48.25 31.69 48.14 31.47C48.05 31.28 47.96 31.1 47.96 30.93C47.96 30.88 47.96 30.83 47.98 30.78C48.05 30.56 48.24 30.45 48.53 30.29C48.73 30.18 48.83 30.12 48.9 30.04C48.91 30.03 48.92 30.01 48.93 30C48.99 29.91 49.01 29.8 49.06 29.56C49.11 29.3 49.15 29.04 49.35 28.9C49.55 28.76 49.81 28.79 50.07 28.83C50.31 28.86 50.43 28.87 50.54 28.84C50.56 28.84 50.57 28.83 50.59 28.82C50.68 28.78 50.77 28.71 50.93 28.55C51.11 28.38 51.32 28.18 51.57 28.18C51.8 28.18 51.97 28.33 52.21 28.55C52.37 28.7 52.46 28.78 52.55 28.82C52.57 28.82 52.58 28.83 52.6 28.84C52.71 28.87 52.83 28.86 53.07 28.83C53.33 28.8 53.59 28.76 53.79 28.9C53.97 29.03 54.03 29.26 54.08 29.57C54.12 29.8 54.15 29.91 54.21 30.01C54.21 30.02 54.23 30.04 54.24 30.05C54.31 30.13 54.41 30.19 54.61 30.3C54.89 30.45 55.09 30.57 55.16 30.79C55.18 30.84 55.18 30.89 55.18 30.94C55.18 31.12 55.09 31.31 55 31.5C54.89 31.72 54.85 31.83 54.85 31.97C54.85 32.09 54.9 32.21 55.01 32.43C55.1 32.61 55.19 32.79 55.19 32.97C55.19 33.02 55.19 33.07 55.17 33.12C55.09 33.36 54.84 33.49 54.62 33.61C54.42 33.72 54.32 33.78 54.25 33.86C54.24 33.87 54.23 33.89 54.22 33.91C54.16 34 54.14 34.11 54.09 34.35C54.03 34.67 53.98 34.88 53.8 35.01C53.62 35.14 53.4 35.12 53.07 35.08C52.83 35.05 52.72 35.04 52.61 35.08C52.59 35.08 52.58 35.09 52.56 35.1C52.47 35.14 52.39 35.2 52.23 35.37C52.71 35.4 53.18 35.45 53.65 35.51C53.88 35.54 54.11 35.57 54.34 35.61C54.73 35.28 54.82 34.82 54.88 34.5C54.88 34.48 54.89 34.43 54.9 34.38C54.94 34.36 54.98 34.34 55 34.32C55.28 34.17 55.75 33.92 55.93 33.38C55.97 33.25 55.99 33.12 55.99 32.99C55.99 32.63 55.85 32.34 55.74 32.1C55.71 32.05 55.7 32.01 55.68 31.97C55.7 31.92 55.73 31.87 55.74 31.84C55.85 31.6 55.99 31.31 55.99 30.95L55.98 30.92Z" fill="#2D557F"/>
  <path d="M40.3401 31.28L35.2401 14.63C35.1501 14.34 35.0001 14.08 34.7901 13.87C34.6701 13.75 34.5401 13.65 34.3901 13.56C34.3701 13.55 34.3501 13.53 34.3201 13.52C34.2101 13.46 34.1001 13.42 33.9901 13.38C33.6301 13.27 33.2501 13.27 32.8901 13.38L31.7901 13.72L31.2601 13.88L30.7301 14.04L4.10009 22.21C3.62009 22.36 3.23009 22.68 2.99009 23.12C2.76009 23.56 2.71009 24.07 2.85009 24.55L13.4001 58.96C13.5501 59.44 13.8701 59.83 14.3101 60.07C14.5801 60.22 14.8801 60.29 15.1901 60.29C15.3701 60.29 15.5601 60.26 15.7401 60.21L29.0801 56.12C29.0801 55.98 29.1001 55.84 29.1101 55.7C29.1101 55.56 29.1301 55.42 29.1401 55.28L15.5201 59.46C15.2401 59.55 14.9501 59.52 14.7001 59.38C14.4401 59.24 14.2601 59.02 14.1701 58.74L3.61009 24.32C3.53009 24.04 3.55009 23.75 3.69009 23.5C3.83009 23.24 4.05009 23.06 4.33009 22.97L30.7301 14.88L31.2601 14.72L31.7901 14.56L33.1201 14.15C33.2201 14.12 33.3301 14.1 33.4401 14.1C33.6101 14.1 33.7901 14.14 33.9501 14.23C33.9601 14.23 33.9801 14.25 33.9901 14.26C34.1601 14.36 34.2901 14.5 34.3901 14.66C34.4301 14.73 34.4601 14.79 34.4801 14.87L34.7901 15.87L39.5201 31.29L39.7601 32.08L41.4001 37.44C41.5201 37.38 41.6401 37.32 41.7601 37.27C41.8801 37.21 42.0001 37.16 42.1301 37.11L40.5901 32.08L40.3501 31.29L40.3401 31.28Z" fill="#2D557F"/>
  <path d="M15.2001 24.69C15.2001 24.69 15.2801 24.69 15.3201 24.67L24.9901 21.71C25.2001 21.65 25.3201 21.42 25.2501 21.21C25.1901 21 24.9601 20.88 24.7501 20.95L15.0801 23.91C14.8701 23.97 14.7501 24.2 14.8201 24.41C14.8701 24.58 15.0301 24.69 15.2001 24.69Z" fill="#2D557F"/>
  <path d="M9.18005 31.24C9.23005 31.41 9.39005 31.52 9.56005 31.52C9.60005 31.52 9.64005 31.52 9.68005 31.5L26.4201 26.37C26.6301 26.31 26.7501 26.08 26.6801 25.87C26.6201 25.66 26.3901 25.54 26.1801 25.61L9.44005 30.74C9.23005 30.8 9.11005 31.03 9.18005 31.24Z" fill="#2D557F"/>
  <path d="M10.9701 36.11C10.9701 36.11 11.0501 36.11 11.0901 36.09L27.8301 30.96C28.0401 30.9 28.1601 30.67 28.0901 30.46C28.0301 30.25 27.8001 30.13 27.5901 30.2L10.8501 35.33C10.6401 35.39 10.5201 35.62 10.5901 35.83C10.6401 36 10.8001 36.11 10.9701 36.11Z" fill="#2D557F"/>
  <path d="M12.37 40.71C12.37 40.71 12.45 40.71 12.49 40.69L29.23 35.56C29.44 35.5 29.56 35.27 29.49 35.06C29.43 34.85 29.2 34.73 28.99 34.8L12.25 39.93C12.04 39.99 11.92 40.22 11.99 40.43C12.04 40.6 12.2 40.71 12.37 40.71Z" fill="#2D557F"/>
  <path d="M30.82 40.04C30.91 39.94 30.95 39.8 30.91 39.66C30.88 39.57 30.82 39.49 30.74 39.44C30.65 39.38 30.53 39.36 30.41 39.39L13.67 44.52C13.46 44.58 13.34 44.81 13.41 45.02C13.46 45.19 13.62 45.3 13.79 45.3C13.83 45.3 13.87 45.3 13.91 45.28L30.65 40.15C30.72 40.13 30.78 40.09 30.83 40.04H30.82Z" fill="#2D557F"/>
  <path d="M33.25 23.44L31.79 23.89L31.26 24.05L30.73 24.21L28.15 25C27.94 25.06 27.82 25.29 27.89 25.5C27.94 25.67 28.1 25.78 28.27 25.78C28.31 25.78 28.35 25.78 28.39 25.76L30.74 25.04L31.27 24.88L31.8 24.72L33.49 24.2C33.7 24.14 33.82 23.91 33.75 23.7C33.69 23.49 33.46 23.37 33.25 23.44Z" fill="#2D557F"/>
  <path d="M34.79 28.02C34.79 28.02 34.71 28.02 34.66 28.04L34.39 28.12L33.99 28.24L31.79 28.91L31.26 29.07L30.73 29.23L29.56 29.59C29.35 29.65 29.23 29.88 29.3 30.09C29.35 30.26 29.51 30.37 29.68 30.37C29.72 30.37 29.76 30.37 29.8 30.35L30.74 30.06L31.27 29.9L31.8 29.74L34 29.07L34.4 28.95L34.8 28.83L34.91 28.8C35.12 28.74 35.24 28.51 35.17 28.3C35.12 28.13 34.97 28.03 34.8 28.02H34.79Z" fill="#2D557F"/>
  <path d="M34.3901 33.15L33.9901 33.27L31.7901 33.94L31.2601 34.1L30.9701 34.19C30.8601 34.22 30.7801 34.3 30.7301 34.4C30.6901 34.49 30.6801 34.59 30.7101 34.69C30.7101 34.71 30.7301 34.72 30.7301 34.74C30.8001 34.88 30.9301 34.97 31.0901 34.97C31.1301 34.97 31.1701 34.97 31.2101 34.95L31.2701 34.93L31.8001 34.77L34.0001 34.1L34.4001 33.98L34.8001 33.86L36.3201 33.4C36.5301 33.34 36.6501 33.11 36.5801 32.9C36.5201 32.69 36.2901 32.57 36.0801 32.64L34.8001 33.03L34.4001 33.15H34.3901Z" fill="#2D557F"/>
  <path d="M37.48 37.23L35.33 37.89L34.84 38.04L34.41 38.17L32.39 38.79C32.18 38.85 32.06 39.08 32.13 39.29C32.18 39.46 32.34 39.57 32.51 39.57C32.55 39.57 32.59 39.57 32.63 39.55L35.34 38.72L36.49 38.37L37.72 37.99C37.72 37.99 37.75 37.98 37.76 37.97C37.94 37.89 38.04 37.69 37.98 37.49C37.92 37.28 37.69 37.16 37.48 37.23Z" fill="#2D557F"/>
  <path d="M25.05 52.56C24.48 52.71 23.83 52.63 23.69 52.18C23.63 51.97 23.4 51.85 23.19 51.92C22.98 51.98 22.86 52.21 22.93 52.42C23.13 53.07 23.74 53.44 24.51 53.44C24.74 53.44 24.99 53.41 25.25 53.34C26.23 53.07 27.16 52.26 26.89 51.11C26.74 50.47 26.41 50.04 25.92 49.82C25.54 49.65 25.13 49.65 24.76 49.71L25.95 47.61C26.03 47.47 26.02 47.29 25.91 47.17C25.81 47.04 25.64 46.99 25.48 47.04L21.89 48.14C21.68 48.2 21.56 48.43 21.63 48.64C21.69 48.85 21.92 48.97 22.13 48.9L24.77 48.09L23.56 50.23C23.47 50.38 23.5 50.58 23.62 50.7C23.74 50.83 23.94 50.85 24.09 50.77C24.34 50.63 25.1 50.33 25.59 50.54C25.84 50.65 26.01 50.9 26.1 51.29C26.25 51.93 25.65 52.4 25.03 52.57L25.05 52.56Z" fill="#2D557F"/>
  <path d="M28.49 51.75C28.54 51.92 28.7 52.03 28.87 52.03C28.91 52.03 28.95 52.03 28.99 52.01C29.2 51.95 29.32 51.72 29.25 51.51L29.18 51.27C29.12 51.06 28.89 50.94 28.68 51.01C28.47 51.07 28.35 51.3 28.42 51.51L28.49 51.75Z" fill="#2D557F"/>
  <path d="M30.96 45.21C29.78 45.57 29.48 46.71 29.49 47.27C29.49 47.49 29.67 47.66 29.89 47.66C30.11 47.66 30.28 47.48 30.28 47.26C30.28 47.22 30.29 46.24 31.19 45.97C31.52 45.87 31.83 45.88 32.06 46.01C32.19 45.78 32.34 45.56 32.48 45.34C32.05 45.09 31.52 45.05 30.96 45.22V45.21Z" fill="#2D557F"/>
  <path d="M86.1401 85.85L72.5101 72.22C72.1201 71.83 71.5901 71.61 71.0501 71.61C70.5401 71.61 70.0601 71.79 69.6901 72.13L68.0101 70.45C71.2001 66.37 72.7301 61.41 72.6001 56.48C72.6001 56.29 72.6001 56.11 72.5801 55.92C72.5801 55.73 72.5501 55.55 72.5401 55.36C72.1501 50.36 70.0601 45.47 66.2401 41.66C66.2001 41.62 66.1701 41.59 66.1301 41.55C65.9501 41.37 65.7601 41.19 65.5701 41.02C65.3701 40.84 65.1701 40.66 64.9701 40.49C64.2301 39.86 63.4601 39.28 62.6601 38.76C62.4501 38.62 62.2401 38.49 62.0201 38.36C61.8601 38.26 61.6901 38.17 61.5301 38.08C61.4601 38.04 61.3901 38 61.3201 37.96C61.2301 37.91 61.1401 37.86 61.0501 37.81C60.8901 37.73 60.7301 37.65 60.5701 37.57C58.5801 36.58 56.4801 35.91 54.3301 35.56C54.1001 35.52 53.8701 35.49 53.6401 35.46C53.1701 35.4 52.6901 35.35 52.2201 35.32C51.7701 35.29 51.3301 35.27 50.8801 35.27C50.3201 35.27 49.7501 35.29 49.1901 35.34C49.0101 35.35 48.8301 35.37 48.6401 35.38C47.1301 35.53 45.6401 35.84 44.1801 36.31C44.0101 36.36 43.8401 36.41 43.6801 36.47C43.5101 36.53 43.3501 36.59 43.1801 36.65C42.8201 36.78 42.4701 36.93 42.1201 37.08C42.0001 37.13 41.8701 37.18 41.7501 37.24C41.6301 37.3 41.5101 37.35 41.3901 37.41C41.0401 37.58 40.6901 37.76 40.3401 37.95C40.1101 38.08 39.8701 38.21 39.6401 38.35C39.4301 38.48 39.2101 38.61 39.0001 38.75C38.2001 39.27 37.4301 39.85 36.6901 40.48C36.4901 40.65 36.2901 40.83 36.0901 41.01C35.9001 41.18 35.7201 41.36 35.5301 41.54C35.4901 41.58 35.4501 41.61 35.4201 41.65C34.2801 42.79 33.3001 44.02 32.4701 45.33C32.3301 45.55 32.1801 45.78 32.0501 46C30.3601 48.87 29.3901 52.04 29.1301 55.27C29.1201 55.41 29.1101 55.55 29.1001 55.69C29.1001 55.83 29.0801 55.97 29.0701 56.11C29.0501 56.64 29.0501 57.16 29.0701 57.69C29.0701 57.87 29.0701 58.05 29.0901 58.24C29.0901 58.42 29.1101 58.6 29.1301 58.78C29.5201 63.77 31.6201 68.65 35.4301 72.46C39.6801 76.71 45.2501 78.83 50.8301 78.83C55.5701 78.83 60.3101 77.29 64.2301 74.23L65.9101 75.91C65.5801 76.29 65.3901 76.77 65.3901 77.27C65.3901 77.82 65.6001 78.34 65.9901 78.74L79.6201 92.37C80.5201 93.27 81.7001 93.72 82.8701 93.72C84.0401 93.72 85.23 93.27 86.1301 92.37C87.93 90.57 87.93 87.65 86.1301 85.86L86.1401 85.85ZM80.5601 91.43L66.9301 77.8C66.7901 77.66 66.7101 77.47 66.7101 77.27C66.7101 77.07 66.7901 76.89 66.9301 76.75L67.7801 75.9L65.2601 73.38C65.5901 73.08 65.9201 72.78 66.2401 72.46C66.5601 72.14 66.8601 71.81 67.1601 71.47L69.6801 73.99L70.5201 73.15C70.66 73.01 70.8501 72.93 71.0401 72.93C71.2401 72.93 71.4301 73.01 71.5701 73.15L85.2001 86.78C86.48 88.06 86.48 90.14 85.2001 91.42C83.9201 92.7 81.84 92.7 80.5601 91.42V91.43ZM50.8301 77.51C45.5901 77.51 40.3501 75.52 36.3601 71.53C32.7101 67.88 30.7301 63.18 30.4301 58.39C30.4201 58.21 30.4101 58.03 30.4001 57.85C30.4001 57.67 30.3901 57.48 30.3901 57.3C30.3901 56.77 30.3901 56.24 30.4301 55.71C30.4301 55.57 30.4501 55.43 30.4601 55.29C30.4701 55.15 30.4901 55 30.5001 54.86C30.6301 53.62 30.8701 52.4 31.2301 51.2C31.7101 49.59 32.4001 48.02 33.2801 46.54C34.1201 45.13 35.1501 43.81 36.3601 42.6C36.7301 42.23 37.1101 41.89 37.4901 41.56C37.7001 41.38 37.9101 41.2 38.1301 41.03C38.3601 40.85 38.5901 40.67 38.8201 40.5C39.7301 39.84 40.6901 39.26 41.6701 38.77C41.7101 38.75 41.7401 38.73 41.7801 38.72C41.9001 38.66 42.0201 38.6 42.1401 38.54C42.2601 38.48 42.3801 38.43 42.5101 38.38C42.8301 38.24 43.1501 38.11 43.4701 37.98C43.5001 37.97 43.5301 37.96 43.5601 37.95C43.7301 37.89 43.8901 37.82 44.0601 37.76C44.2301 37.7 44.4001 37.65 44.5601 37.6C46.5901 36.95 48.7001 36.62 50.8201 36.62C53.3101 36.62 55.8101 37.08 58.1701 37.98C58.4901 38.1 58.8101 38.24 59.1301 38.38C59.4101 38.51 59.6901 38.64 59.9701 38.78C60.0401 38.82 60.1101 38.85 60.1901 38.89C60.3501 38.97 60.5101 39.06 60.6701 39.15C60.8301 39.24 60.9901 39.32 61.1401 39.41C61.7201 39.75 62.2801 40.11 62.8301 40.51C63.0601 40.68 63.2901 40.86 63.5201 41.04C63.7401 41.21 63.9501 41.39 64.1601 41.57C64.5501 41.9 64.9301 42.25 65.2901 42.61C68.7501 46.07 70.7001 50.47 71.1601 54.99C71.1801 55.18 71.1901 55.37 71.2101 55.55C71.2201 55.74 71.2401 55.92 71.2501 56.11C71.4701 60.82 70.0701 65.6 67.0501 69.52C66.9101 69.7 66.7801 69.87 66.6401 70.04C66.2201 70.55 65.7701 71.05 65.2901 71.53C64.8101 72.01 64.3101 72.46 63.8001 72.88C63.6301 73.02 63.4501 73.16 63.2801 73.29C59.6201 76.1 55.2201 77.52 50.8201 77.52L50.8301 77.51Z" fill="#4279B6"/>
  <path d="M68.8801 55.41C68.8601 55.22 68.8401 55.03 68.8201 54.84C68.8001 54.65 68.7701 54.46 68.7401 54.27C68.1601 50.49 66.4001 47 63.6501 44.24C62.6801 43.27 61.6201 42.43 60.4901 41.71C60.4001 41.65 60.3101 41.6 60.2201 41.54C60.1501 41.5 60.0901 41.46 60.0201 41.42C59.8601 41.33 59.7101 41.24 59.5501 41.15C59.4601 41.1 59.3801 41.05 59.2901 41.01C58.9301 40.82 58.5601 40.65 58.1901 40.48C55.9101 39.47 53.4201 38.93 50.8401 38.93C48.9201 38.93 47.0401 39.23 45.2601 39.81C45.0901 39.86 44.9201 39.92 44.7601 39.98C44.5901 40.04 44.4301 40.1 44.2601 40.17C44.0001 40.27 43.7501 40.38 43.4901 40.49C43.3901 40.53 43.3001 40.57 43.2001 40.62C43.0801 40.68 42.9601 40.74 42.8401 40.8C42.7201 40.86 42.6001 40.92 42.4801 40.98C42.4501 41 42.4201 41.01 42.3901 41.03C42.0701 41.2 41.7601 41.37 41.4601 41.56C40.2201 42.31 39.0701 43.21 38.0201 44.26C37.3301 44.95 36.7001 45.69 36.1301 46.48C35.4401 47.44 34.8501 48.46 34.3701 49.51C34.2401 49.79 34.1201 50.07 34.0101 50.35C33.5301 51.56 33.1801 52.82 32.9601 54.11C32.9401 54.26 32.9101 54.4 32.8901 54.55C32.8701 54.69 32.8601 54.84 32.8401 54.98C32.7801 55.51 32.7401 56.05 32.7201 56.59C32.7201 56.77 32.7201 56.96 32.7201 57.14C32.7201 57.32 32.7201 57.51 32.7301 57.69C32.7701 58.89 32.9301 60.1 33.2101 61.29C33.9801 64.54 35.6501 67.51 38.0201 69.88C41.5501 73.41 46.1901 75.18 50.8301 75.18C55.4701 75.18 60.1101 73.41 63.6401 69.88C67.0601 66.46 68.9501 61.91 68.9501 57.07C68.9501 56.52 68.9201 55.97 68.8701 55.42L68.8801 55.41ZM38.9501 68.94C36.7501 66.74 35.2101 63.99 34.4901 60.98C34.2001 59.76 34.0501 58.52 34.0301 57.29C34.0301 57.1 34.0301 56.92 34.0301 56.74C34.0301 56.55 34.0401 56.37 34.0501 56.18C34.0801 55.64 34.1301 55.09 34.2101 54.56C34.2301 54.41 34.2601 54.27 34.2801 54.12C34.3101 53.97 34.3301 53.83 34.3601 53.68C34.8301 51.39 35.7801 49.2 37.1801 47.26C37.7001 46.53 38.2901 45.84 38.9301 45.21C40.1101 44.03 41.4301 43.05 42.8501 42.28C42.9701 42.22 43.0901 42.16 43.2101 42.1C43.3301 42.04 43.4501 41.98 43.5701 41.92C43.8201 41.8 44.0801 41.68 44.3401 41.57C44.4301 41.53 44.5301 41.5 44.6201 41.46C44.7801 41.39 44.9501 41.33 45.1101 41.27C45.2801 41.21 45.4401 41.16 45.6101 41.1C45.6701 41.08 45.7301 41.06 45.7901 41.04C46.5201 40.81 47.2701 40.64 48.0401 40.51C48.9401 40.36 49.8601 40.28 50.8001 40.28C51.7401 40.28 52.6601 40.36 53.5601 40.51C54.3201 40.64 55.0701 40.81 55.8001 41.04C56.3001 41.19 56.7801 41.37 57.2601 41.57C57.9001 41.84 58.5201 42.15 59.1201 42.49C59.2801 42.58 59.4401 42.67 59.5901 42.77C59.7501 42.87 59.9001 42.96 60.0601 43.07C60.9901 43.69 61.8601 44.4 62.6701 45.21C65.0801 47.62 66.6601 50.63 67.2901 53.9C67.3301 54.09 67.3601 54.29 67.3901 54.48C67.4201 54.67 67.4401 54.86 67.4701 55.05C67.5501 55.72 67.6001 56.4 67.6001 57.09C67.6001 61.58 65.8501 65.8 62.6801 68.97C59.4101 72.24 55.1101 73.88 50.8101 73.88C46.5101 73.88 42.2101 72.24 38.9301 68.97L38.9501 68.94Z" fill="#4279B6"/>
</svg>
