<svg xmlns="http://www.w3.org/2000/svg" width="100" height="100" viewBox="0 0 100 100" fill="none">
  <path d="M83.5 29.68C82.53 29.68 81.56 29.77 80.6 29.95C80.41 23.94 75.45 19.11 69.39 19.11C67.84 19.11 66.35 19.43 64.94 20.05C60.47 10.88 51.1 5 40.9 5C34.03 5 27.51 7.61 22.53 12.34C17.68 16.95 14.74 23.14 14.21 29.84C6.07 30.97 0 37.91 0 46.18C0 55.28 7.4 62.68 16.5 62.68H29.56C29.52 62.47 29.48 62.26 29.45 62.05C29.42 61.84 29.4 61.63 29.37 61.42H16.5C8.1 61.42 1.26 54.59 1.26 46.18C1.26 38.37 7.11 31.86 14.86 31.03C15.17 31 15.41 30.75 15.42 30.44C15.82 23.86 18.65 17.76 23.39 13.25C28.13 8.74 34.35 6.26 40.89 6.26C50.81 6.26 59.91 12.1 64.07 21.15C64.14 21.31 64.28 21.43 64.44 21.48C64.6 21.54 64.78 21.52 64.94 21.44C66.33 20.72 67.83 20.36 69.4 20.36C74.88 20.36 79.35 24.82 79.35 30.31C79.35 30.44 79.35 30.56 79.35 30.69C79.35 30.89 79.42 31.08 79.58 31.21C79.73 31.34 79.94 31.39 80.13 31.34C81.24 31.08 82.38 30.94 83.52 30.94C91.92 30.94 98.76 37.77 98.76 46.18C98.76 54.59 91.93 61.42 83.52 61.42H71.38C71.36 61.63 71.33 61.84 71.3 62.05C71.27 62.26 71.23 62.47 71.19 62.68H83.51C92.61 62.68 100.01 55.28 100.01 46.18C100.01 37.08 92.61 29.68 83.51 29.68H83.5Z" fill="#2D557F"/>
  <path d="M84.6499 86.95L71.4099 73.72C71.0399 73.35 70.5199 73.13 69.9999 73.13C69.5099 73.13 69.0399 73.31 68.6699 73.63L67.0299 71.99C69.1699 69.26 70.5799 66.08 71.1799 62.68C71.2199 62.47 71.2599 62.26 71.2899 62.05C71.3199 61.84 71.3399 61.63 71.3699 61.42C71.4599 60.62 71.5099 59.8 71.5099 58.98C71.5099 53.33 69.3099 48.02 65.3199 44.03C61.3299 40.04 56.0199 37.84 50.3699 37.84C44.7199 37.84 39.4099 40.04 35.4199 44.03C30.6799 48.77 28.6699 55.22 29.3799 61.42C29.3999 61.63 29.4299 61.84 29.4599 62.05C29.4899 62.26 29.5299 62.47 29.5699 62.68C30.2999 66.8 32.2499 70.75 35.4199 73.93C39.5399 78.05 44.9599 80.11 50.3699 80.11C54.9699 80.11 59.5699 78.61 63.3799 75.64L65.0199 77.28C64.6899 77.65 64.5099 78.11 64.5099 78.6C64.5099 79.14 64.7099 79.64 65.0899 80.02L78.3299 93.26C79.1699 94.1 80.2899 94.57 81.4799 94.57C82.6699 94.57 83.7899 94.1 84.6399 93.26C86.3799 91.52 86.3799 88.69 84.6399 86.95H84.6499ZM81.4799 93.3C80.6299 93.3 79.8199 92.97 79.2199 92.36L65.9799 79.12C65.8399 78.98 65.7599 78.8 65.7699 78.6C65.7699 78.4 65.8499 78.22 65.9799 78.09L66.7999 77.27L64.3499 74.82C64.6799 74.53 64.9999 74.24 65.3099 73.92C65.6199 73.61 65.9199 73.28 66.2099 72.96L68.6599 75.41L69.4699 74.6C69.6099 74.46 69.7899 74.39 69.9899 74.39C70.1799 74.39 70.3699 74.47 70.5099 74.61L83.7499 87.84C84.9999 89.09 84.9899 91.11 83.7499 92.36C83.1499 92.96 82.3399 93.3 81.4899 93.3H81.4799ZM36.3099 73.04C33.3799 70.11 31.5599 66.48 30.8399 62.69C30.7999 62.48 30.7699 62.27 30.7299 62.06C30.6999 61.85 30.6699 61.64 30.6399 61.43C29.9199 55.56 31.7999 49.43 36.2999 44.94C40.0499 41.19 45.0499 39.12 50.3499 39.12C55.6599 39.12 60.6499 41.19 64.4099 44.94C68.1699 48.69 70.2299 53.69 70.2299 59C70.2299 59.82 70.1699 60.63 70.0799 61.44C70.0499 61.65 70.0299 61.86 69.9999 62.07C69.9699 62.28 69.9299 62.49 69.8899 62.7C69.3199 65.76 68.0299 68.63 66.1199 71.1C65.9899 71.27 65.8599 71.44 65.7299 71.6C65.3199 72.1 64.8799 72.58 64.4199 73.05C63.9599 73.51 63.4699 73.95 62.9799 74.36C62.8199 74.5 62.6499 74.62 62.4799 74.75C54.6899 80.74 43.4499 80.18 36.3099 73.05V73.04Z" fill="#4279B6"/>
  <path d="M67.5399 62.69C67.5799 62.48 67.6299 62.27 67.6599 62.06C67.6999 61.85 67.7299 61.64 67.7599 61.43C68.4899 56.15 66.8399 50.6 62.7899 46.55C55.9299 39.69 44.7799 39.7 37.9199 46.55C37.2499 47.22 36.6399 47.94 36.0899 48.7C33.4299 52.39 32.3199 56.94 32.9399 61.42C32.9699 61.63 32.9999 61.84 33.0399 62.05C33.0799 62.26 33.1199 62.47 33.1699 62.68C33.1999 62.81 33.2199 62.94 33.2499 63.07C33.9999 66.22 35.6199 69.11 37.9199 71.41C41.3499 74.84 45.8499 76.55 50.3599 76.55C54.8699 76.55 59.3699 74.84 62.7899 71.41C65.2699 68.93 66.8499 65.88 67.5399 62.68V62.69ZM38.8199 70.52C36.6799 68.38 35.1799 65.71 34.4899 62.78C34.4899 62.75 34.4799 62.71 34.4699 62.68C34.4199 62.47 34.3799 62.26 34.3399 62.05C34.2999 61.84 34.2699 61.63 34.2299 61.42C33.5999 57.21 34.6099 52.91 37.1199 49.44C37.6299 48.74 38.1999 48.06 38.8199 47.44C41.9999 44.26 46.1899 42.66 50.3699 42.66C54.5499 42.66 58.7299 44.25 61.9099 47.43C65.7099 51.23 67.2399 56.46 66.4999 61.41C66.4699 61.62 66.4299 61.83 66.3899 62.04C66.3499 62.25 66.2999 62.46 66.2499 62.67C65.5799 65.54 64.1399 68.27 61.8999 70.51C58.7199 73.69 54.5399 75.28 50.3599 75.28C46.1799 75.28 41.9999 73.69 38.8199 70.51V70.52Z" fill="#4279B6"/>
</svg>
