<svg xmlns="http://www.w3.org/2000/svg" width="100" height="100" viewBox="0 0 100 100" fill="none">
  <path d="M62.8 46.54C66.85 50.59 68.51 56.14 67.77 61.42C67.74 61.63 67.71 61.84 67.67 62.05H66.38C66.42 61.84 66.46 61.63 66.49 61.42C67.23 56.47 65.7 51.24 61.9 47.44C58.72 44.26 54.54 42.67 50.37 42.67C46.2 42.67 42.01 44.26 38.82 47.45C38.2 48.07 37.63 48.74 37.12 49.45C34.61 52.92 33.59 57.21 34.23 61.43C34.26 61.64 34.3 61.85 34.34 62.06H33.05C33.01 61.85 32.98 61.64 32.95 61.43C32.32 56.95 33.43 52.4 36.1 48.71C36.65 47.95 37.26 47.23 37.93 46.56C44.79 39.7 55.95 39.7 62.8 46.56V46.54Z" fill="#4279B6"/>
  <path d="M99.37 46.18C99.37 54.93 92.25 62.05 83.5 62.05H70.01C70.04 61.84 70.07 61.63 70.1 61.42C70.2 60.62 70.25 59.8 70.25 58.98C70.25 53.67 68.18 48.68 64.43 44.92C60.68 41.16 55.68 39.1 50.37 39.1C45.06 39.1 40.07 41.17 36.32 44.92C31.82 49.41 29.94 55.55 30.66 61.41C30.69 61.62 30.72 61.83 30.75 62.04H16.52C7.77003 62.04 0.650024 54.92 0.650024 46.17C0.650024 38 6.87002 31.24 14.82 30.39C15.64 16.49 27.03 5.63 40.9 5.63C51.14 5.63 60.42 11.68 64.65 20.89C66.12 20.13 67.73 19.74 69.39 19.74C75.22 19.74 79.97 24.49 79.97 30.32C79.97 30.46 79.97 30.6 79.96 30.73C81.12 30.45 82.3 30.32 83.5 30.32C92.25 30.32 99.37 37.44 99.37 46.19V46.18Z" fill="#4279B6"/>
  <path d="M84.2 92.81C82.7 94.31 80.28 94.31 78.78 92.81L65.54 79.57C65.29 79.32 65.14 78.98 65.14 78.6C65.14 78.22 65.29 77.88 65.54 77.64L65.91 77.27L63.88 75.24L63.43 74.79L62.98 74.34C63.48 73.93 63.96 73.49 64.42 73.03C64.88 72.57 65.32 72.08 65.73 71.58L66.18 72.03L66.63 72.48L68.67 74.52L69.03 74.16C69.28 73.91 69.62 73.76 69.99 73.76C70.36 73.76 70.71 73.91 70.96 74.16L84.2 87.4C85.69 88.89 85.69 91.32 84.2 92.82V92.81Z" fill="#FCCD2A"/>
  <path d="M64.87 44.48C56.86 36.47 43.87 36.47 35.87 44.48C31.24 49.11 29.29 55.39 30.01 61.42C30.04 61.63 30.06 61.84 30.1 62.05C30.13 62.26 30.17 62.47 30.21 62.68C30.93 66.63 32.82 70.42 35.88 73.48C43.27 80.87 54.9 81.44 62.95 75.19C63.12 75.06 63.28 74.93 63.44 74.79C63.6 74.66 63.76 74.52 63.92 74.38C64.25 74.09 64.57 73.79 64.88 73.48C65.19 73.17 65.5 72.84 65.78 72.52C65.92 72.36 66.06 72.2 66.19 72.04C66.33 71.88 66.46 71.71 66.59 71.54C68.65 68.88 69.97 65.84 70.55 62.68C70.59 62.47 70.63 62.26 70.65 62.05C70.69 61.84 70.71 61.63 70.74 61.42C71.46 55.39 69.5 49.11 64.87 44.48ZM70.01 62.05C69.98 62.26 69.94 62.47 69.9 62.68C69.33 65.74 68.04 68.61 66.13 71.09C66 71.26 65.87 71.42 65.74 71.59C65.33 72.09 64.89 72.57 64.43 73.04C63.97 73.5 63.49 73.94 62.99 74.35C62.83 74.48 62.66 74.62 62.49 74.74C54.7 80.74 43.45 80.17 36.32 73.04C33.39 70.11 31.57 66.48 30.85 62.69C30.81 62.48 30.77 62.27 30.74 62.06C30.71 61.85 30.68 61.64 30.65 61.43C29.93 55.56 31.82 49.43 36.31 44.94C40.06 41.19 45.05 39.12 50.36 39.12C55.67 39.12 60.66 41.19 64.42 44.94C68.18 48.69 70.24 53.69 70.24 59C70.24 59.82 70.19 60.64 70.09 61.44C70.06 61.65 70.03 61.86 70 62.07L70.01 62.05ZM37.93 46.55C37.26 47.22 36.64 47.94 36.1 48.7C33.43 52.39 32.32 56.94 32.95 61.42C32.98 61.63 33.01 61.84 33.05 62.05C33.09 62.26 33.13 62.47 33.17 62.68C33.2 62.81 33.23 62.94 33.26 63.07C34.01 66.22 35.62 69.11 37.93 71.41C41.36 74.84 45.86 76.55 50.37 76.55C54.88 76.55 59.37 74.84 62.8 71.41C65.28 68.93 66.87 65.88 67.55 62.68C67.6 62.47 67.64 62.26 67.67 62.05C67.71 61.84 67.74 61.63 67.77 61.42C68.51 56.14 66.85 50.59 62.8 46.54C55.94 39.68 44.78 39.69 37.93 46.54V46.55ZM66.5 61.42C66.47 61.63 66.43 61.84 66.39 62.05C66.35 62.26 66.31 62.47 66.26 62.68C65.59 65.56 64.14 68.28 61.91 70.52C58.73 73.7 54.55 75.29 50.37 75.29C46.19 75.29 42.01 73.7 38.83 70.52C36.69 68.38 35.19 65.71 34.5 62.78C34.5 62.75 34.48 62.71 34.48 62.68C34.43 62.47 34.39 62.26 34.35 62.05C34.31 61.84 34.27 61.63 34.24 61.42C33.6 57.21 34.63 52.91 37.13 49.44C37.64 48.73 38.21 48.06 38.83 47.44C42.01 44.26 46.2 42.66 50.38 42.66C54.56 42.66 58.73 44.25 61.91 47.43C65.71 51.23 67.24 56.46 66.5 61.41V61.42Z" fill="#FCCD2A"/>
  <path d="M64.42 44.93C60.67 41.18 55.67 39.11 50.36 39.11C45.05 39.11 40.06 41.18 36.31 44.93C31.81 49.42 29.93 55.56 30.65 61.42C30.68 61.63 30.71 61.84 30.74 62.05C30.77 62.26 30.81 62.47 30.85 62.68C31.57 66.47 33.39 70.1 36.32 73.03C43.45 80.16 54.7 80.73 62.49 74.73C62.66 74.6 62.82 74.47 62.99 74.34C63.49 73.93 63.97 73.49 64.43 73.03C64.89 72.57 65.33 72.08 65.74 71.58C65.88 71.42 66.01 71.25 66.13 71.08C68.04 68.6 69.33 65.74 69.9 62.67C69.94 62.46 69.98 62.25 70.01 62.04C70.04 61.83 70.07 61.62 70.1 61.41C70.2 60.61 70.25 59.79 70.25 58.97C70.25 53.66 68.18 48.67 64.43 44.91L64.42 44.93ZM67.77 61.42C67.74 61.63 67.71 61.84 67.67 62.05C67.63 62.26 67.59 62.47 67.55 62.68C66.86 65.89 65.28 68.93 62.8 71.41C59.37 74.84 54.87 76.55 50.37 76.55C45.87 76.55 41.36 74.84 37.93 71.41C35.63 69.11 34.01 66.22 33.26 63.07C33.23 62.94 33.2 62.81 33.17 62.68C33.12 62.47 33.08 62.26 33.05 62.05C33.01 61.84 32.98 61.63 32.95 61.42C32.32 56.94 33.43 52.39 36.1 48.7C36.65 47.94 37.26 47.22 37.93 46.55C44.79 39.69 55.95 39.69 62.8 46.55C66.85 50.6 68.51 56.15 67.77 61.43V61.42Z" fill="#FCCD2A"/>
  <path d="M62.35 46.99C55.73 40.37 44.99 40.37 38.37 46.99C37.71 47.64 37.13 48.34 36.6 49.06C33.97 52.7 32.96 57.15 33.58 61.41C33.61 61.62 33.65 61.83 33.68 62.04C33.72 62.25 33.76 62.46 33.81 62.67C33.83 62.75 33.85 62.83 33.87 62.92C34.57 65.87 36.07 68.66 38.37 70.96C45 77.58 55.73 77.58 62.34 70.96C64.7 68.6 66.22 65.71 66.9 62.67C66.95 62.46 66.99 62.25 67.03 62.04C67.07 61.83 67.1 61.62 67.14 61.41C67.88 56.3 66.28 50.92 62.35 46.98V46.99ZM66.39 62.05C66.35 62.26 66.31 62.47 66.26 62.68C65.59 65.56 64.14 68.28 61.91 70.52C58.73 73.7 54.55 75.29 50.37 75.29C46.19 75.29 42.01 73.7 38.83 70.52C36.69 68.38 35.19 65.71 34.5 62.78C34.5 62.75 34.48 62.71 34.48 62.68C34.43 62.47 34.39 62.26 34.35 62.05C34.31 61.84 34.27 61.63 34.24 61.42C33.6 57.21 34.63 52.91 37.13 49.44C37.64 48.73 38.21 48.06 38.83 47.44C42.01 44.26 46.2 42.66 50.38 42.66C54.56 42.66 58.73 44.25 61.91 47.43C65.71 51.23 67.24 56.46 66.5 61.41C66.47 61.62 66.43 61.83 66.39 62.04V62.05Z" fill="white"/>
  <path d="M83.5 62.69C92.6 62.69 100 55.29 100 46.19C100 37.09 92.6 29.69 83.5 29.69C82.53 29.69 81.56 29.78 80.6 29.96C80.41 23.95 75.45 19.11 69.39 19.11C67.84 19.11 66.35 19.43 64.94 20.05C60.47 10.88 51.1 5 40.9 5C34.03 5 27.51 7.61 22.53 12.34C17.68 16.95 14.74 23.14 14.21 29.84C6.07 30.97 0 37.91 0 46.18C0 55.28 7.4 62.68 16.5 62.68H29.56C30.29 66.8 32.24 70.75 35.42 73.93C39.54 78.05 44.96 80.11 50.37 80.11C54.97 80.11 59.58 78.62 63.39 75.64L65.03 77.28C64.7 77.65 64.52 78.11 64.52 78.61C64.52 79.14 64.72 79.65 65.1 80.03L78.34 93.27C79.18 94.11 80.3 94.57 81.49 94.57C82.68 94.57 83.8 94.11 84.65 93.26C86.39 91.52 86.39 88.69 84.65 86.95L71.41 73.72C71.04 73.35 70.52 73.13 70 73.13C69.51 73.13 69.04 73.31 68.68 73.63L67.04 71.99C69.18 69.26 70.6 66.08 71.19 62.68H83.5V62.69ZM16.5 61.42C8.1 61.42 1.26 54.58 1.26 46.18C1.26 38.37 7.11 31.86 14.86 31.03C15.17 31 15.4 30.75 15.42 30.44C15.82 23.86 18.65 17.76 23.38 13.25C28.12 8.74 34.34 6.26 40.88 6.26C50.8 6.26 59.9 12.1 64.06 21.15C64.13 21.31 64.26 21.43 64.43 21.48C64.59 21.54 64.77 21.52 64.93 21.44C66.33 20.72 67.82 20.36 69.39 20.36C74.87 20.36 79.34 24.82 79.34 30.31C79.34 30.44 79.34 30.56 79.33 30.69C79.32 30.89 79.4 31.08 79.56 31.21C79.71 31.34 79.92 31.38 80.11 31.34C81.22 31.08 82.36 30.95 83.5 30.95C91.9 30.95 98.74 37.78 98.74 46.19C98.74 54.6 91.91 61.43 83.5 61.43H71.37C71.46 60.63 71.51 59.81 71.51 58.99C71.51 53.34 69.31 48.03 65.32 44.04C61.33 40.05 56.02 37.85 50.37 37.85C44.72 37.85 39.41 40.05 35.42 44.04C30.68 48.78 28.67 55.23 29.38 61.43H16.51L16.5 61.42ZM68.67 75.42L69.48 74.61C69.62 74.47 69.8 74.4 70 74.4C70.2 74.4 70.38 74.48 70.52 74.62L83.76 87.86C85.01 89.11 85 91.13 83.76 92.38C83.46 92.68 83.11 92.92 82.72 93.08C82.34 93.24 81.93 93.32 81.5 93.32C80.64 93.32 79.84 92.99 79.24 92.39L66 79.15C65.86 79.01 65.78 78.83 65.79 78.63C65.79 78.44 65.86 78.25 66 78.12L66.82 77.3L64.37 74.85C64.7 74.56 65.02 74.26 65.33 73.95C65.64 73.64 65.95 73.32 66.23 72.99L68.68 75.44L68.67 75.42ZM66.13 71.09C66 71.26 65.87 71.42 65.74 71.59C65.33 72.09 64.89 72.57 64.43 73.04C63.97 73.5 63.49 73.94 62.99 74.35C62.83 74.48 62.66 74.62 62.49 74.74C54.7 80.74 43.45 80.17 36.32 73.04C33.39 70.11 31.57 66.48 30.85 62.69C30.81 62.48 30.77 62.27 30.74 62.06C30.71 61.85 30.68 61.64 30.65 61.43C29.93 55.56 31.82 49.43 36.31 44.94C40.06 41.19 45.05 39.12 50.36 39.12C55.67 39.12 60.66 41.19 64.42 44.94C68.18 48.69 70.24 53.69 70.24 59C70.24 59.82 70.19 60.64 70.09 61.44C70.06 61.65 70.03 61.86 70 62.07C69.97 62.28 69.93 62.49 69.89 62.7C69.32 65.76 68.03 68.63 66.12 71.11L66.13 71.09Z" fill="#0E1721"/>
  <path d="M37.93 46.55C37.26 47.22 36.64 47.94 36.1 48.7C33.43 52.39 32.32 56.94 32.95 61.42C32.98 61.63 33.01 61.84 33.05 62.05C33.09 62.26 33.13 62.47 33.17 62.68C33.2 62.81 33.23 62.94 33.26 63.07C34.01 66.22 35.62 69.11 37.93 71.41C41.36 74.84 45.86 76.55 50.37 76.55C54.88 76.55 59.37 74.84 62.8 71.41C65.28 68.93 66.87 65.88 67.55 62.68C67.6 62.47 67.64 62.26 67.67 62.05C67.71 61.84 67.74 61.63 67.77 61.42C68.51 56.14 66.85 50.59 62.8 46.54C55.94 39.68 44.78 39.69 37.93 46.54V46.55ZM66.5 61.42C66.47 61.63 66.43 61.84 66.39 62.05C66.35 62.26 66.31 62.47 66.26 62.68C65.59 65.56 64.14 68.28 61.91 70.52C58.73 73.7 54.55 75.29 50.37 75.29C46.19 75.29 42.01 73.7 38.83 70.52C36.69 68.38 35.19 65.71 34.5 62.78C34.5 62.75 34.48 62.71 34.48 62.68C34.43 62.47 34.39 62.26 34.35 62.05C34.31 61.84 34.27 61.63 34.24 61.42C33.6 57.21 34.63 52.91 37.13 49.44C37.64 48.73 38.21 48.06 38.83 47.44C42.01 44.26 46.2 42.66 50.38 42.66C54.56 42.66 58.73 44.25 61.91 47.43C65.71 51.23 67.24 56.46 66.5 61.41V61.42Z" fill="#0E1721"/>
  <path d="M66.4999 61.42C66.4699 61.63 66.4299 61.84 66.3899 62.05C66.3499 62.26 66.3099 62.47 66.2599 62.68C65.5899 65.56 64.1399 68.28 61.9099 70.52C58.7299 73.7 54.5499 75.29 50.3699 75.29C46.1899 75.29 42.0099 73.7 38.8299 70.52C36.6899 68.38 35.1899 65.71 34.4999 62.78C34.4999 62.75 34.4799 62.71 34.4799 62.68C34.4299 62.47 34.3899 62.26 34.3499 62.05C34.3099 61.84 34.2699 61.63 34.2399 61.42C33.5999 57.21 34.6299 52.91 37.1299 49.44C37.6399 48.73 38.2099 48.06 38.8299 47.44C42.0099 44.26 46.1999 42.66 50.3799 42.66C54.5599 42.66 58.7299 44.25 61.9099 47.43C65.7099 51.23 67.2399 56.46 66.4999 61.41V61.42Z" fill="white"/>
</svg>
