<svg xmlns="http://www.w3.org/2000/svg" width="100" height="100" viewBox="0 0 100 100" fill="none">
  <path d="M97.92 41.87L84.87 34.41C87.57 31.72 89.09 27.66 89.09 23.79V21.61C89.09 19.97 88.79 16.81 86.78 14.13C84.75 11.43 81.64 10.05 77.54 10.05C73.44 10.05 70.32 11.42 68.3 14.13C66.29 16.81 65.99 19.97 65.99 21.61V23.79C65.99 27.67 67.51 31.72 70.21 34.41L65.42 37.15L58.95 33.45C62.4 30.11 64.35 24.98 64.35 20.08V17.34C64.35 15.3 63.98 11.38 61.48 8.05C58.97 4.7 55.11 3 50.01 3C44.91 3 41.05 4.7 38.53 8.05C36.03 11.38 35.66 15.3 35.66 17.34V20.08C35.66 24.98 37.61 30.11 41.06 33.45L34.59 37.15L29.8 34.41C32.5 31.72 34.02 27.66 34.02 23.79V21.61C34.02 19.97 33.72 16.81 31.71 14.13C29.68 11.43 26.57 10.05 22.47 10.05C18.37 10.05 15.26 11.42 13.23 14.13C11.22 16.81 10.92 19.97 10.92 21.61V23.79C10.92 27.67 12.44 31.72 15.14 34.41L2.1 41.86C0.8 42.6 0 43.99 0 45.48V47.8C0 51.76 3.22 54.99 7.19 54.99H23.35C24.52 56.81 26.33 58.18 28.47 58.77C28.49 58.56 28.52 58.34 28.55 58.13C28.58 57.92 28.62 57.7 28.65 57.49C27.17 57.05 25.88 56.16 24.93 54.99C24.76 54.78 24.61 54.57 24.46 54.35C24.33 54.14 24.2 53.93 24.09 53.71C23.55 52.67 23.24 51.48 23.24 50.23V47.29C23.24 45.95 23.96 44.7 25.13 44.04L34.6 38.63L35.25 38.26L35.9 37.89L41.96 34.42H42.18C44.34 36.12 46.98 37.16 50.01 37.16C53.04 37.16 55.68 36.12 57.84 34.42H58.06L64.12 37.89L64.77 38.26L65.42 38.63L74.89 44.04C76.05 44.71 76.78 45.95 76.78 47.29V50.22C76.78 51.47 76.47 52.66 75.93 53.7C75.82 53.92 75.69 54.13 75.56 54.34C75.42 54.56 75.26 54.78 75.09 54.98C73.92 56.43 72.22 57.44 70.3 57.72C70.33 57.93 70.36 58.14 70.39 58.35C70.42 58.56 70.45 58.77 70.47 58.99C73.07 58.62 75.31 57.11 76.67 54.98H92.83C96.79 54.98 100.02 51.75 100.02 47.79V45.45C100.02 43.97 99.22 42.59 97.94 41.86L97.92 41.87ZM98.72 47.8C98.72 51.06 96.07 53.71 92.81 53.71H77.33C77.79 52.64 78.04 51.46 78.04 50.23V47.3C78.04 45.5 77.07 43.83 75.51 42.94L66.7 37.9L71.15 35.35H71.25C72.98 36.7 75.1 37.53 77.53 37.53C79.96 37.53 82.08 36.7 83.81 35.35H83.91L97.28 42.99C98.17 43.5 98.72 44.45 98.72 45.47V47.81V47.8ZM67.26 21.61C67.26 19.89 67.76 11.34 77.53 11.34C87.3 11.34 87.8 19.9 87.8 21.61V23.79C87.8 28.4 85.89 31.95 83.29 34.06C83.01 34.29 82.71 34.5 82.41 34.7C82.04 34.94 81.67 35.16 81.28 35.34C80.06 35.93 78.78 36.24 77.52 36.24C76.1 36.24 74.79 35.91 73.63 35.34C73.25 35.15 72.88 34.94 72.53 34.7C72.24 34.5 71.96 34.29 71.69 34.06C68.86 31.66 67.25 27.63 67.25 23.79V21.61H67.26ZM55.39 34.43C53.67 35.38 51.81 35.89 50 35.89C47.94 35.89 46.08 35.35 44.46 34.43C44.11 34.23 43.78 34.02 43.45 33.79C43.17 33.59 42.89 33.37 42.63 33.15C39.01 30.11 36.95 24.97 36.95 20.09V17.35C36.95 15.47 37.29 11.86 39.56 8.83C41.82 5.82 45.33 4.29 50.01 4.29C62.44 4.29 63.07 15.17 63.07 17.35V20.09C63.07 25.96 60.62 30.48 57.3 33.15C57.02 33.38 56.73 33.59 56.44 33.79C56.1 34.02 55.75 34.24 55.4 34.43H55.39ZM21.95 47.29V50.23C21.95 51.46 22.2 52.64 22.66 53.71H7.19C3.93 53.71 1.28 51.06 1.28 47.8V45.48C1.28 44.45 1.84 43.49 2.73 42.98L16.08 35.35H16.18C17.91 36.7 20.03 37.53 22.46 37.53C24.89 37.53 27.01 36.7 28.74 35.35H28.84L33.29 37.89L24.48 42.93C22.92 43.82 21.95 45.5 21.95 47.3V47.29ZM12.2 21.61C12.2 19.89 12.7 11.34 22.47 11.34C32.24 11.34 32.74 19.9 32.74 21.61V23.79C32.74 28.4 30.83 31.95 28.23 34.06C27.95 34.29 27.65 34.5 27.35 34.7C26.98 34.94 26.61 35.16 26.22 35.34C25 35.93 23.72 36.24 22.46 36.24C21.04 36.24 19.73 35.91 18.57 35.34C18.19 35.15 17.82 34.94 17.47 34.7C17.18 34.5 16.9 34.29 16.63 34.06C13.8 31.66 12.19 27.63 12.19 23.79V21.61H12.2Z" fill="#2D557F"/>
  <path d="M83.6801 88.99L70.4601 75.78C70.0901 75.41 69.5701 75.19 69.0401 75.19C68.5501 75.19 68.0801 75.37 67.7201 75.69L66.0901 74.06C69.5101 69.68 70.9601 64.26 70.4501 59C70.4301 58.79 70.4001 58.58 70.3701 58.36C70.3401 58.15 70.3101 57.94 70.2801 57.73C70.1301 56.81 69.9301 55.89 69.6601 54.99C69.6001 54.78 69.5201 54.56 69.4501 54.35C69.3801 54.14 69.3001 53.92 69.2201 53.71C68.2001 50.95 66.5801 48.36 64.3701 46.14C62.7601 44.53 60.9601 43.24 59.0301 42.26C58.8001 42.14 58.5701 42.03 58.3401 41.92C58.1001 41.81 57.8501 41.7 57.6101 41.6C52.6101 39.51 46.9801 39.43 41.9301 41.34C41.6801 41.44 41.4201 41.54 41.1701 41.64C40.9301 41.74 40.6801 41.85 40.4401 41.96C38.2901 42.97 36.2801 44.36 34.5101 46.13C32.3001 48.34 30.6801 50.93 29.6601 53.7C29.5801 53.91 29.5001 54.13 29.4301 54.34C29.3601 54.55 29.2901 54.77 29.2201 54.98C28.9701 55.8 28.7801 56.64 28.6401 57.48C28.6001 57.69 28.5701 57.9 28.5401 58.12C28.5101 58.33 28.4901 58.55 28.4601 58.76C27.7901 64.91 29.8001 71.29 34.5101 75.99C38.6301 80.11 44.0301 82.17 49.4401 82.17C54.0301 82.17 58.6301 80.68 62.4301 77.71L64.0601 79.34C63.7401 79.71 63.5601 80.17 63.5601 80.66C63.5601 81.2 63.7701 81.7 64.1501 82.08L77.3601 95.29C78.2301 96.16 79.3701 96.59 80.5101 96.59C81.6501 96.59 82.8001 96.15 83.6701 95.28C85.4101 93.54 85.4101 90.7 83.6701 88.96L83.6801 88.99ZM78.2701 94.4L65.0601 81.19C64.9201 81.05 64.8501 80.87 64.8501 80.68C64.8501 80.49 64.9201 80.31 65.0601 80.17L65.8801 79.35L63.4301 76.9C63.7501 76.61 64.0701 76.32 64.3801 76.01C64.6901 75.7 64.9901 75.38 65.2701 75.05L67.7201 77.5L68.5401 76.68C68.6801 76.54 68.8601 76.47 69.0501 76.47C69.2401 76.47 69.4301 76.55 69.5601 76.68L82.7801 89.89C84.0201 91.13 84.0201 93.15 82.7801 94.39C81.5401 95.63 79.5201 95.63 78.2801 94.39L78.2701 94.4ZM35.4201 75.1C31.0301 70.71 29.1401 64.76 29.7301 59.02C29.7501 58.81 29.7801 58.6 29.8101 58.38C29.8401 58.17 29.8701 57.96 29.9101 57.75C30.0701 56.82 30.2901 55.9 30.5801 54.99C30.6501 54.78 30.7201 54.56 30.8001 54.35C30.8801 54.14 30.9601 53.92 31.0401 53.71C32.0101 51.28 33.4701 49.01 35.4301 47.05C37.3201 45.16 39.5101 43.73 41.8401 42.77C42.0901 42.66 42.3501 42.57 42.6101 42.47C42.8601 42.38 43.1101 42.29 43.3601 42.21C47.5901 40.85 52.1801 40.94 56.3501 42.48C56.5801 42.56 56.8001 42.65 57.0201 42.74C57.2501 42.84 57.4801 42.94 57.7101 43.04C59.8001 43.99 61.7601 45.33 63.4801 47.05C65.4401 49.01 66.9001 51.28 67.8701 53.71C67.9501 53.92 68.0301 54.14 68.1101 54.35C68.1901 54.56 68.2601 54.78 68.3301 54.99C68.6301 55.91 68.8501 56.86 69.0101 57.81C69.0501 58.02 69.0801 58.24 69.1101 58.45C69.1401 58.66 69.1701 58.88 69.1901 59.09C69.6801 64 68.3501 69.05 65.2001 73.15C65.0701 73.32 64.9401 73.49 64.8001 73.66C64.3901 74.16 63.9601 74.64 63.4901 75.11C63.0301 75.57 62.5401 76.01 62.0501 76.42C61.8801 76.56 61.7101 76.69 61.5401 76.82C53.7701 82.79 42.5501 82.23 35.4401 75.12L35.4201 75.1Z" fill="#4279B6"/>
  <path d="M67.01 61.08C67.01 60.41 66.97 59.75 66.9 59.09C66.88 58.88 66.85 58.66 66.82 58.45C66.79 58.24 66.75 58.02 66.71 57.81C66.53 56.85 66.27 55.9 65.93 54.99C65.85 54.78 65.77 54.56 65.68 54.35C65.59 54.13 65.49 53.92 65.4 53.71C64.54 51.85 63.36 50.14 61.87 48.65C60.27 47.05 58.42 45.8 56.4 44.93C56.2 44.84 56 44.76 55.79 44.68C55.59 44.6 55.39 44.53 55.19 44.46C53.37 43.83 51.44 43.5 49.45 43.5C47.83 43.5 46.24 43.72 44.72 44.15C44.51 44.21 44.31 44.27 44.11 44.33C43.9 44.4 43.7 44.46 43.5 44.53C41.1 45.39 38.9 46.79 37.04 48.64C36.37 49.31 35.76 50.03 35.21 50.79C34.55 51.71 33.99 52.68 33.52 53.69C33.42 53.9 33.33 54.12 33.24 54.33C33.15 54.54 33.06 54.76 32.98 54.97C32.64 55.89 32.38 56.83 32.2 57.79C32.16 58 32.12 58.22 32.09 58.43C32.06 58.64 32.03 58.86 32.01 59.07C31.78 61.08 31.89 63.13 32.38 65.15C33.13 68.3 34.74 71.18 37.04 73.48C40.36 76.8 44.77 78.63 49.46 78.63C54.15 78.63 58.56 76.8 61.88 73.49C65.2 70.17 67.03 65.76 67.03 61.07L67.01 61.08ZM49.45 77.36C45.1 77.36 41.01 75.67 37.94 72.59C35.81 70.46 34.31 67.79 33.62 64.87C33.16 62.95 33.06 61 33.3 59.09C33.33 58.88 33.36 58.66 33.39 58.45C33.43 58.24 33.46 58.02 33.5 57.81C33.7 56.85 33.98 55.91 34.35 54.99C34.44 54.77 34.53 54.56 34.62 54.35C34.72 54.13 34.82 53.92 34.93 53.71C35.31 52.97 35.74 52.25 36.24 51.56C36.75 50.86 37.32 50.19 37.94 49.57C39.59 47.92 41.54 46.67 43.66 45.86C43.87 45.78 44.09 45.7 44.3 45.63C44.51 45.56 44.72 45.49 44.94 45.43C46.39 45.01 47.9 44.79 49.45 44.79C51.4 44.79 53.29 45.13 55.06 45.78C55.28 45.86 55.49 45.94 55.7 46.03C55.92 46.12 56.13 46.22 56.34 46.31C58.03 47.1 59.59 48.19 60.96 49.55C62.2 50.79 63.2 52.19 63.97 53.7C64.08 53.91 64.18 54.13 64.28 54.34C64.38 54.55 64.47 54.77 64.56 54.98C64.93 55.89 65.21 56.83 65.41 57.8C65.45 58.01 65.49 58.23 65.52 58.44C65.55 58.65 65.58 58.87 65.61 59.08C65.69 59.73 65.73 60.4 65.73 61.07C65.73 65.42 64.03 69.51 60.96 72.59C57.89 75.66 53.8 77.36 49.45 77.36Z" fill="#4279B6"/>
</svg>
