<svg xmlns="http://www.w3.org/2000/svg" width="100" height="100" viewBox="0 0 100 100" fill="none">
  <path d="M70.98 34.71L57.4599 42.43C56.3699 43.05 55.7 44.21 55.7 45.46V47.8C55.7 51.42 58.63 54.35 62.25 54.35H92.8099C96.4299 54.35 99.36 51.42 99.36 47.8V45.46C99.36 44.21 98.6899 43.05 97.5999 42.43L84.08 34.71H70.98Z" fill="#4279B6"/>
  <path d="M92.8101 54.99H62.2501C58.2901 54.99 55.0601 51.76 55.0601 47.8V45.46C55.0601 43.98 55.8601 42.6 57.1401 41.87L70.8101 34.06H84.2501L97.9201 41.87C99.2101 42.6 100 43.98 100 45.46V47.8C100 51.76 96.7701 54.99 92.8101 54.99ZM71.1501 35.35L57.7801 42.99C56.8901 43.5 56.3401 44.45 56.3401 45.47V47.81C56.3401 51.07 58.9901 53.72 62.2501 53.72H92.8101C96.0701 53.72 98.7201 51.07 98.7201 47.81V45.47C98.7201 44.45 98.1701 43.5 97.2801 42.99L83.9101 35.35H71.1501Z" fill="#0E1721"/>
  <path d="M88.4499 21.61C88.4499 17.24 86.2699 10.7 77.5399 10.7C68.8099 10.7 66.6299 17.25 66.6299 21.61V23.79C66.6299 30.34 70.9899 36.89 77.5399 36.89C84.0899 36.89 88.4499 30.34 88.4499 23.79V21.61Z" fill="white"/>
  <path d="M77.53 37.53C70.39 37.53 65.98 30.4 65.98 23.79V21.61C65.98 19.97 66.28 16.81 68.29 14.13C70.32 11.43 73.43 10.05 77.53 10.05C81.63 10.05 84.74 11.42 86.77 14.13C88.78 16.81 89.08 19.97 89.08 21.61V23.79C89.08 30.4 84.66 37.53 77.53 37.53ZM77.53 11.34C67.75 11.34 67.26 19.9 67.26 21.61V23.79C67.26 29.78 71.19 36.25 77.53 36.25C82.47 36.25 87.8 31.49 87.8 23.79V21.61C87.8 19.89 87.3 11.34 77.53 11.34Z" fill="#0E1721"/>
  <path d="M15.9199 34.71L2.41989 42.43C1.31989 43.06 0.639893 44.23 0.639893 45.49V47.81C0.639893 51.43 3.56989 54.36 7.18989 54.36H37.7499C41.3699 54.36 44.2999 51.43 44.2999 47.81V45.49C44.2999 44.22 43.6199 43.06 42.5199 42.43L29.0199 34.71H15.9199Z" fill="#3C8645"/>
  <path d="M37.75 54.99H7.19C3.23 54.99 0 51.77 0 47.8V45.48C0 43.99 0.8 42.6 2.1 41.86L15.75 34.06H29.19L42.84 41.86C44.14 42.6 44.94 43.99 44.94 45.48V47.8C44.94 51.76 41.72 54.99 37.75 54.99ZM16.09 35.35L2.74 42.98C1.84 43.49 1.29 44.45 1.29 45.48V47.8C1.29 51.06 3.94 53.71 7.2 53.71H37.76C41.02 53.71 43.67 51.06 43.67 47.8V45.48C43.67 44.45 43.11 43.49 42.22 42.98L28.87 35.35H16.11H16.09Z" fill="#0E1721"/>
  <path d="M33.3798 21.61C33.3798 17.24 31.1998 10.7 22.4698 10.7C13.7398 10.7 11.5598 17.25 11.5598 21.61V23.79C11.5598 30.34 15.9298 36.89 22.4698 36.89C29.0098 36.89 33.3798 30.34 33.3798 23.79V21.61Z" fill="white"/>
  <path d="M22.4699 37.53C15.3299 37.53 10.9199 30.4 10.9199 23.79V21.61C10.9199 19.97 11.2199 16.81 13.2299 14.13C15.2599 11.43 18.3699 10.05 22.4699 10.05C26.5699 10.05 29.6899 11.42 31.7099 14.13C33.7199 16.81 34.0199 19.97 34.0199 21.61V23.79C34.0199 30.4 29.5999 37.53 22.4699 37.53ZM22.4699 11.34C12.6899 11.34 12.1999 19.9 12.1999 21.61V23.79C12.1999 29.78 16.1299 36.25 22.4699 36.25C27.4099 36.25 32.7399 31.49 32.7399 23.79V21.61C32.7399 19.89 32.2399 11.34 22.4699 11.34Z" fill="#0E1721"/>
  <path d="M41.7799 33.79L24.8099 43.49C23.4399 44.27 22.5999 45.72 22.5999 47.3V50.24C22.5999 54.78 26.2799 58.46 30.8199 58.46H69.1899C73.7299 58.46 77.4099 54.78 77.4099 50.24V47.31C77.4099 45.74 76.5699 44.28 75.1999 43.5L58.2299 33.8H41.7899L41.7799 33.79Z" fill="#FC8B27"/>
  <path d="M69.18 59.09H30.82C25.93 59.09 21.96 55.11 21.96 50.23V47.29C21.96 45.49 22.93 43.82 24.49 42.92L41.61 33.14H58.39L75.51 42.92C77.07 43.81 78.04 45.49 78.04 47.28V50.21C78.04 55.1 74.06 59.07 69.18 59.07V59.09ZM41.95 34.43L25.12 44.04C23.96 44.71 23.23 45.95 23.23 47.29V50.23C23.23 54.41 26.63 57.81 30.81 57.81H69.18C73.36 57.81 76.76 54.41 76.76 50.23V47.3C76.76 45.96 76.04 44.71 74.87 44.05L58.04 34.44H41.94L41.95 34.43Z" fill="#0E1721"/>
  <path d="M63.6998 17.34C63.6998 11.86 60.9598 3.64001 49.9998 3.64001C39.0398 3.64001 36.2998 11.86 36.2998 17.34V20.08C36.2998 28.3 41.7798 36.52 49.9998 36.52C58.2198 36.52 63.6998 28.3 63.6998 20.08V17.34Z" fill="white"/>
  <path d="M49.9999 37.17C41.1399 37.17 35.6599 28.3 35.6599 20.09V17.35C35.6599 15.31 36.0299 11.39 38.5299 8.06001C41.0399 4.71001 44.8999 3.01001 50.0099 3.01001C55.1199 3.01001 58.9699 4.71001 61.4799 8.06001C63.9799 11.39 64.3499 15.31 64.3499 17.35V20.09C64.3499 28.31 58.8699 37.17 50.0099 37.17H49.9999ZM49.9999 4.28001C45.3299 4.28001 41.8099 5.81001 39.5499 8.82001C37.2799 11.85 36.9399 15.46 36.9399 17.34V20.08C36.9399 27.68 41.9299 35.88 49.9999 35.88C56.2799 35.88 63.0599 29.84 63.0599 20.08V17.34C63.0599 15.16 62.4299 4.28001 49.9999 4.28001Z" fill="#0E1721"/>
  <path d="M83.9301 89.18L70.7101 75.97C70.4601 75.72 70.1201 75.57 69.7401 75.57C69.3601 75.57 69.0201 75.72 68.7801 75.97L68.4201 76.33L65.3501 73.26L62.6001 76.01L65.6701 79.08L65.3001 79.45C65.0501 79.7 64.9001 80.03 64.9001 80.41C64.9001 80.79 65.0501 81.13 65.3001 81.38L78.5101 94.59C80.0001 96.08 82.4201 96.08 83.9201 94.59C85.4201 93.09 85.4201 90.67 83.9201 89.18H83.9301Z" fill="#FCCD2A"/>
  <path d="M81.2202 96.35C80.0802 96.35 78.9402 95.92 78.0702 95.05L64.8602 81.84C64.4802 81.46 64.2702 80.95 64.2702 80.42C64.2702 79.93 64.4502 79.46 64.7702 79.1L61.7002 76.03L65.3602 72.37L68.4302 75.44C68.8002 75.12 69.2602 74.94 69.7502 74.94C70.2802 74.94 70.7902 75.15 71.1702 75.53L84.3902 88.74C86.1302 90.48 86.1302 93.31 84.3902 95.06C83.5202 95.93 82.3802 96.37 81.2302 96.37L81.2202 96.35ZM63.5102 76.02L66.5802 79.09L65.7602 79.91C65.6302 80.04 65.5502 80.23 65.5502 80.42C65.5502 80.62 65.6202 80.8 65.7602 80.93L78.9702 94.14C80.2102 95.38 82.2302 95.38 83.4702 94.14C84.7102 92.9 84.7102 90.88 83.4702 89.64L70.2502 76.43C70.1102 76.29 69.9302 76.22 69.7402 76.22C69.5502 76.22 69.3702 76.29 69.2302 76.43L68.4102 77.25L65.3402 74.18L63.4902 76.03L63.5102 76.02Z" fill="#0E1721"/>
  <path d="M35.6702 46.34C27.6702 54.34 27.6702 67.3 35.6702 75.3C43.6702 83.3 56.6302 83.3 64.6302 75.3C72.6302 67.3 72.6302 54.34 64.6302 46.34C56.6302 38.34 43.6702 38.35 35.6702 46.34Z" fill="#FCCD2A"/>
  <path d="M50.1501 81.94C44.5101 81.94 39.2101 79.74 35.2201 75.75C26.9901 67.52 26.9901 54.12 35.2201 45.89C43.4501 37.66 56.8501 37.66 65.0801 45.89C69.0701 49.88 71.2701 55.18 71.2701 60.82C71.2701 66.46 69.0701 71.76 65.0801 75.75C61.0901 79.74 55.7901 81.94 50.1501 81.94ZM35.6701 46.34L36.1201 46.79C28.3901 54.52 28.3901 67.11 36.1201 74.84C39.8701 78.59 44.8501 80.65 50.1501 80.65C55.4501 80.65 60.4301 78.59 64.1801 74.84C67.9301 71.09 69.9901 66.11 69.9901 60.82C69.9901 55.52 67.9301 50.54 64.1801 46.79C56.4501 39.06 43.8601 39.06 36.1301 46.79L35.6801 46.34H35.6701Z" fill="#0E1721"/>
  <path d="M62.1103 72.79C55.5003 79.4 44.7903 79.4 38.1803 72.79C35.8903 70.5 34.3903 67.71 33.6903 64.77C32.5703 60.08 33.4803 55 36.4203 50.93C36.9403 50.21 37.5303 49.51 38.1803 48.86C44.7903 42.25 55.5103 42.24 62.1203 48.86C68.7303 55.47 68.7303 66.19 62.1203 72.8" fill="white"/>
  <path d="M50.1502 78.39C45.4602 78.39 41.0502 76.56 37.7302 73.24C35.4302 70.94 33.8202 68.06 33.0702 64.91C31.8802 59.92 32.9102 54.69 35.9002 50.55C36.4502 49.79 37.0602 49.07 37.7302 48.4C41.0502 45.08 45.4602 43.25 50.1502 43.25C54.8402 43.25 59.2502 45.08 62.5702 48.39C65.8902 51.7 67.7202 56.12 67.7102 60.81C67.7102 65.5 65.8802 69.91 62.5602 73.23C59.2402 76.55 54.8302 78.37 50.1402 78.37L50.1502 78.39ZM50.1602 44.54C45.8102 44.54 41.7202 46.24 38.6402 49.31C38.0202 49.93 37.4502 50.6 36.9402 51.3C34.1702 55.14 33.2102 59.99 34.3102 64.61C35.0102 67.53 36.5002 70.2 38.6302 72.33C41.7102 75.41 45.8002 77.1 50.1402 77.1C54.4902 77.1 58.5802 75.41 61.6502 72.33C64.7302 69.25 66.4202 65.16 66.4202 60.81C66.4202 56.46 64.7302 52.37 61.6502 49.29C58.5802 46.22 54.4902 44.52 50.1402 44.52L50.1602 44.54Z" fill="#0E1721"/>
</svg>
