<svg xmlns="http://www.w3.org/2000/svg" width="100" height="100" viewBox="0 0 100 100" fill="none">
  <path d="M50.24 71.52C44.55 71.52 39.2 69.31 35.18 65.28C32.39 62.49 30.44 59 29.53 55.18C28.09 49.13 29.34 42.79 32.96 37.77C33.62 36.85 34.37 35.98 35.18 35.17C39.2 31.15 44.55 28.93 50.24 28.93C55.93 28.93 61.27 31.14 65.29 35.16C69.31 39.18 71.53 44.53 71.53 50.22C71.53 55.91 69.31 61.26 65.29 65.28C61.27 69.3 55.92 71.52 50.24 71.52ZM50.25 31.09C45.14 31.09 40.33 33.08 36.72 36.7C35.99 37.43 35.32 38.22 34.72 39.04C31.46 43.55 30.34 49.25 31.63 54.69C32.45 58.12 34.2 61.25 36.71 63.76C40.33 67.38 45.13 69.37 50.24 69.37C55.35 69.37 60.15 67.38 63.77 63.77C67.39 60.15 69.38 55.35 69.38 50.24C69.38 45.13 67.39 40.32 63.78 36.71C60.17 33.1 55.36 31.11 50.26 31.11L50.25 31.09Z" fill="#4279B6"/>
  <path d="M47.33 59.66C46.93 59.66 46.55 59.5 46.26 59.22L39.37 52.33C38.78 51.74 38.78 50.78 39.37 50.19L42.5 47.06C43.09 46.47 44.05 46.47 44.64 47.06L47.34 49.76L55.86 41.24C56.15 40.95 56.52 40.8 56.93 40.8C57.34 40.8 57.71 40.96 58 41.24L61.13 44.37C61.72 44.96 61.72 45.92 61.13 46.51L48.41 59.23C48.12 59.52 47.75 59.67 47.34 59.67L47.33 59.66ZM40.59 51.26L47.33 58L59.9 45.43L56.92 42.46L47.9 51.48C47.58 51.8 47.07 51.8 46.76 51.48L43.57 48.29L40.59 51.27V51.26Z" fill="#4279B6"/>
  <path d="M50.24 100C47.77 100 38.39 95.73 30.05 87.9C22.27 80.6 13 68.03 13 49.56V17.88C13 17.46 13.24 17.08 13.62 16.9L49.79 0.100002C50.08 -0.0299976 50.41 -0.0299976 50.7 0.100002L86.86 16.9C87.24 17.08 87.48 17.46 87.48 17.88V49.56C87.48 68.03 78.21 80.6 70.43 87.9C62.08 95.73 52.71 100 50.24 100ZM15.16 18.57V49.57C15.16 67.27 24.06 79.33 31.53 86.33C39.98 94.26 48.75 97.85 50.25 97.85C51.75 97.85 60.52 94.26 68.97 86.33C76.44 79.33 85.34 67.26 85.34 49.57V18.57L50.24 2.27L15.16 18.57Z" fill="#4279B6"/>
  <path d="M50.24 94.23C50.16 94.23 50.07 94.22 49.99 94.19C47.72 93.45 40.24 89.98 33.01 82.89C28.76 78.72 25.39 74.06 23 69.05C20.12 63.03 18.67 56.47 18.67 49.56V21.32C18.67 21 18.85 20.72 19.14 20.59L49.91 6.30001C50.13 6.20001 50.38 6.20001 50.59 6.30001L81.36 20.59C81.65 20.72 81.83 21.01 81.83 21.32V49.56C81.83 56.47 80.37 63.03 77.5 69.05C75.11 74.06 71.74 78.72 67.49 82.89C60.26 89.99 52.78 93.45 50.51 94.19C50.43 94.22 50.34 94.23 50.26 94.23H50.24ZM20.28 21.84V49.57C20.28 56.24 21.69 62.56 24.46 68.36C26.77 73.2 30.03 77.7 34.15 81.74C40.91 88.37 47.82 91.71 50.25 92.57C52.68 91.71 59.59 88.37 66.35 81.74C70.47 77.7 73.73 73.2 76.04 68.36C78.81 62.56 80.22 56.23 80.22 49.57V21.84L50.26 7.92001L20.28 21.84Z" fill="#2D557F"/>
  <path d="M50.2401 89.4C49.7901 89.4 49.4301 89.04 49.4301 88.59V74.49C49.4301 74.04 49.7901 73.68 50.2401 73.68C50.6901 73.68 51.0501 74.04 51.0501 74.49V88.59C51.0501 89.04 50.6901 89.4 50.2401 89.4Z" fill="#2D557F"/>
  <path d="M50.2401 26.77C49.7901 26.77 49.4301 26.41 49.4301 25.96V11.86C49.4301 11.41 49.7901 11.05 50.2401 11.05C50.6901 11.05 51.0501 11.41 51.0501 11.86V25.96C51.0501 26.41 50.6901 26.77 50.2401 26.77Z" fill="#2D557F"/>
</svg>
