<svg xmlns="http://www.w3.org/2000/svg" width="100" height="100" viewBox="0 0 100 100" fill="none">
  <path d="M96.2 50.74V45.56C96.2 37.04 89.18 30.11 80.46 29.88C80.31 29.88 80.17 29.86 80.03 29.86H79.53C79.38 29.86 79.24 29.88 79.1 29.88C70.39 30.11 63.36 37.04 63.36 45.56V50.74C62.73 50.92 62.15 51.22 61.64 51.61C61.27 51.89 60.95 52.22 60.66 52.59C59.98 53.48 59.56 54.57 59.56 55.77V78.31C59.56 81.21 61.92 83.57 64.82 83.57H94.74C97.64 83.57 100 81.21 100 78.31V55.77C100 53.38 98.39 51.38 96.2 50.74ZM98.64 78.31C98.64 80.46 96.89 82.21 94.74 82.21H64.82C62.67 82.21 60.92 80.46 60.92 78.31V55.77C60.92 54.86 61.24 54.04 61.76 53.38C62.05 53.01 62.4 52.7 62.8 52.45C63.39 52.09 64.07 51.87 64.81 51.87H94.73C96.88 51.87 98.63 53.62 98.63 55.77V78.31H98.64ZM64.73 50.5V45.56C64.73 37.8 71.14 31.47 79.1 31.24C79.24 31.24 79.39 31.22 79.53 31.22H80.03C80.18 31.22 80.32 31.24 80.46 31.24C88.42 31.46 94.83 37.79 94.83 45.56V50.5H90.39V46.28C90.39 40.66 85.99 36.09 80.45 35.73C80.22 35.72 80 35.66 79.77 35.66C79.54 35.66 79.32 35.71 79.09 35.73C73.56 36.09 69.15 40.66 69.15 46.28V50.5H64.71H64.73ZM89.04 50.5H70.53V46.28C70.53 41.41 74.32 37.45 79.1 37.09C79.33 37.07 79.55 37.02 79.78 37.02C80.01 37.02 80.23 37.07 80.46 37.09C85.24 37.45 89.03 41.41 89.03 46.28V50.5H89.04Z" fill="#2D557F"/>
  <path d="M79.1 37.09V50.5H80.46V37.09C80.23 37.07 80.01 37.02 79.78 37.02C79.55 37.02 79.33 37.07 79.1 37.09Z" fill="#4279B6"/>
  <path d="M78.42 19.51C78.84 20.03 79.11 20.69 79.11 21.41V29.89C79.26 29.89 79.4 29.87 79.54 29.87H80.04C80.19 29.87 80.33 29.89 80.47 29.89V21.41C80.47 18.98 78.49 17 76.06 17H4.41C1.98 17 0 18.98 0 21.41V61.79C0 63.04 0.55 64.16 1.4 64.96C1.4 64.97 1.4 64.98 1.4 64.99C1.43 65.03 1.48 65.06 1.52 65.09C1.56 65.13 1.61 65.16 1.65 65.2C2.41 65.81 3.35 66.19 4.4 66.19H59.56V64.83H4.41C3.97 64.83 3.55 64.73 3.17 64.56L33.87 42.44L39.84 46.74C39.96 46.82 40.1 46.87 40.24 46.87C40.38 46.87 40.52 46.83 40.64 46.74L46.61 42.44L60.68 52.58C60.96 52.21 61.29 51.89 61.66 51.6L47.78 41.6L78.42 19.51ZM2.05 63.69C1.63 63.17 1.37 62.51 1.37 61.79V21.41C1.37 20.69 1.63 20.03 2.05 19.51L32.7 41.6L2.05 63.69ZM40.23 45.35L3.17 18.63C3.55 18.46 3.97 18.36 4.41 18.36H76.06C76.5 18.36 76.92 18.46 77.3 18.63L40.23 45.34V45.35Z" fill="#4279B6"/>
  <path d="M80.46 58.16C80.24 58.13 80.01 58.09 79.78 58.09C79.55 58.09 79.32 58.13 79.1 58.16C77.28 58.42 75.81 59.71 75.27 61.43C75.15 61.82 75.07 62.23 75.05 62.66C75.05 62.72 75.03 62.77 75.03 62.83C75.03 63.54 75.21 64.21 75.5 64.83C75.73 65.32 76.02 65.77 76.4 66.16C76.66 66.42 76.94 66.66 77.27 66.86V74.59C77.27 75.44 77.96 76.13 78.81 76.13H80.73C81.58 76.13 82.27 75.44 82.27 74.59V66.86C83.66 66 84.51 64.49 84.51 62.83C84.51 60.45 82.74 58.49 80.45 58.16H80.46ZM81.3 65.85C81.07 65.97 80.92 66.2 80.92 66.46V74.59C80.92 74.68 80.84 74.76 80.75 74.76H78.83C78.74 74.76 78.66 74.68 78.66 74.59V66.46C78.66 66.2 78.51 65.97 78.28 65.85C78.2 65.81 78.14 65.74 78.06 65.7C77.62 65.43 77.25 65.09 76.98 64.68C76.62 64.14 76.42 63.51 76.42 62.83C76.42 61.2 77.58 59.83 79.12 59.52C79.34 59.48 79.57 59.45 79.8 59.45C80.03 59.45 80.26 59.47 80.48 59.52C82.02 59.84 83.18 61.2 83.18 62.83C83.18 64.11 82.46 65.27 81.31 65.85H81.3Z" fill="#4279B6"/>
</svg>
