<svg xmlns="http://www.w3.org/2000/svg" width="100" height="100" viewBox="0 0 100 100" fill="none">
  <path d="M50.1401 0.679993L13.6801 17.61V49.55C13.6801 84.15 46.4401 99.31 50.1401 99.31C53.8401 99.31 86.6001 84.14 86.6001 49.55V17.61L50.1401 0.679993Z" fill="#4279B6"/>
  <path d="M50.14 100C48.16 100 38.99 96.28 30.06 87.91C22.28 80.61 13 68.03 13 49.56V17.62C13 17.36 13.15 17.11 13.39 17L49.85 0.06C50.03 -0.02 50.24 -0.02 50.42 0.06L86.88 17C87.12 17.11 87.27 17.35 87.27 17.62V49.56C87.27 68.03 77.99 80.61 70.21 87.91C61.28 96.28 52.11 100 50.13 100H50.14ZM14.36 18.05V49.56C14.36 67.55 23.4 79.8 30.99 86.92C39.59 94.99 48.59 98.64 50.14 98.64C51.69 98.64 60.69 94.99 69.29 86.92C76.88 79.8 85.92 67.55 85.92 49.56V18.05L50.14 1.43L14.36 18.05Z" fill="#0E1721"/>
  <path d="M50.14 6.68002L81.16 21.09V49.56C81.16 56.4 79.72 62.9 76.87 68.86C74.5 73.82 71.16 78.44 66.94 82.58C59.91 89.48 52.54 93 50.14 93.78C47.74 93 40.37 89.49 33.34 82.58C29.12 78.44 25.78 73.82 23.41 68.86C20.56 62.9 19.12 56.41 19.12 49.56V21.09L50.14 6.68002Z" fill="#FC8B27"/>
  <path d="M50.1401 94.46C50.0701 94.46 50.0001 94.45 49.9301 94.43C47.6501 93.69 40.1301 90.2 32.8601 83.07C28.5901 78.87 25.2001 74.19 22.7901 69.16C19.9001 63.11 18.4301 56.52 18.4301 49.57V21.1C18.4301 20.84 18.5801 20.59 18.8201 20.48L49.8401 6.07001C50.0201 5.99001 50.2301 5.99001 50.4101 6.07001L81.4301 20.48C81.6701 20.59 81.8201 20.83 81.8201 21.1V49.57C81.8201 56.52 80.3501 63.11 77.4601 69.16C75.0601 74.2 71.6701 78.88 67.3901 83.07C60.1201 90.21 52.6101 93.69 50.3201 94.43C50.2501 94.45 50.1801 94.46 50.1101 94.46H50.1401ZM19.8001 21.52V49.56C19.8001 56.3 21.2201 62.7 24.0201 68.56C26.3601 73.45 29.6501 78 33.8101 82.09C40.6801 88.83 47.7101 92.21 50.1301 93.06C52.5501 92.21 59.5801 88.84 66.4501 82.09C70.6101 78 73.9101 73.45 76.2401 68.56C79.0401 62.69 80.4601 56.3 80.4601 49.56V21.52L50.1201 7.43001L19.8001 21.52Z" fill="#0E1721"/>
  <path d="M50.14 93.78C47.74 93 40.37 89.49 33.34 82.58C29.12 78.44 25.78 73.82 23.41 68.86C20.56 62.9 19.12 56.41 19.12 49.56V21.09L50.14 6.68002V93.78Z" fill="#FCCD2A"/>
  <path d="M50.1401 94.46C50.0701 94.46 50.0001 94.45 49.9301 94.43C47.6501 93.69 40.1301 90.2 32.8601 83.07C28.5901 78.87 25.2001 74.19 22.7901 69.16C19.9001 63.11 18.4301 56.52 18.4301 49.57V21.1C18.4301 20.84 18.5801 20.59 18.8201 20.48L49.8401 6.07001C50.0501 5.97001 50.3001 5.99001 50.4901 6.11001C50.6901 6.23001 50.8001 6.45001 50.8001 6.68001V93.78C50.8001 94 50.7001 94.2 50.5201 94.33C50.4001 94.42 50.2601 94.46 50.1201 94.46H50.1401ZM19.8001 21.52V49.56C19.8001 56.3 21.2201 62.7 24.0201 68.56C26.3601 73.45 29.6501 78 33.8101 82.09C40.1201 88.29 46.5701 91.64 49.4501 92.8V7.74001L19.8001 21.52Z" fill="#0E1721"/>
  <path d="M64.5401 64.64C56.5901 72.59 43.6801 72.6 35.7201 64.64C32.9601 61.88 31.1501 58.52 30.3101 54.98C28.9601 49.33 30.0601 43.21 33.6001 38.32C34.2301 37.45 34.9401 36.61 35.7201 35.83C43.6801 27.87 56.5801 27.86 64.5401 35.83C72.5001 43.79 72.4901 56.7 64.5401 64.66" fill="#3C8645"/>
  <path d="M50.1401 71.29C44.5101 71.29 39.2301 69.1 35.2501 65.12C32.4901 62.36 30.5601 58.91 29.6601 55.14C28.2301 49.16 29.4701 42.88 33.0601 37.92C33.7201 37.01 34.4501 36.15 35.2501 35.34C39.2301 31.36 44.5201 29.17 50.1401 29.17C55.7601 29.17 61.0501 31.36 65.0201 35.34C69.0001 39.32 71.1901 44.61 71.1901 50.24C71.1901 55.87 69.0001 61.15 65.0201 65.13C61.0401 69.11 55.7601 71.3 50.1301 71.3L50.1401 71.29ZM50.1401 30.53C44.8801 30.53 39.9301 32.58 36.2101 36.3C35.4601 37.05 34.7701 37.86 34.1601 38.71C30.8101 43.35 29.6501 49.22 30.9801 54.82C31.8201 58.35 33.6301 61.58 36.2101 64.16C39.9301 67.88 44.8801 69.93 50.1401 69.93C55.4001 69.93 60.3501 67.88 64.0701 64.16C67.7901 60.44 69.8401 55.49 69.8401 50.23C69.8401 44.97 67.7901 40.02 64.0701 36.3C60.3501 32.58 55.4101 30.53 50.1501 30.53H50.1401Z" fill="#0E1721"/>
  <path d="M46.7 58.72L39.75 51.77C39.47 51.49 39.47 51.05 39.75 50.77L42.9 47.62C43.18 47.34 43.62 47.34 43.9 47.62L47.2 50.92L56.37 41.75C56.65 41.47 57.09 41.47 57.37 41.75L60.52 44.9C60.8 45.18 60.8 45.62 60.52 45.9L47.7 58.73C47.42 59.01 46.98 59.01 46.7 58.73V58.72Z" fill="white"/>
  <path d="M47.2 59.6C46.83 59.6 46.48 59.46 46.22 59.19L39.27 52.24C38.73 51.7 38.73 50.82 39.27 50.28L42.42 47.13C42.96 46.59 43.84 46.59 44.38 47.13L47.2 49.95L55.89 41.26C56.15 41 56.5 40.85 56.87 40.85C57.24 40.85 57.59 40.99 57.85 41.26L61 44.41C61.54 44.95 61.54 45.83 61 46.37L48.18 59.2C47.92 59.46 47.57 59.61 47.2 59.61V59.6ZM47.18 58.24C47.18 58.24 47.21 58.24 47.22 58.24L60.04 45.41C60.04 45.41 60.05 45.38 60.04 45.37L56.89 42.22C56.89 42.22 56.86 42.22 56.85 42.22L47.68 51.39C47.41 51.66 46.98 51.66 46.72 51.39L43.42 48.09C43.42 48.09 43.39 48.08 43.38 48.09L40.23 51.24C40.23 51.24 40.22 51.27 40.23 51.28L47.18 58.23V58.24Z" fill="#0E1721"/>
</svg>
