<svg xmlns="http://www.w3.org/2000/svg" width="100" height="100" viewBox="0 0 100 100" fill="none">
  <path d="M90.56 24.32H90.16V23.96C90.16 22.34 88.84 21.02 87.22 21.02H13.76C11.36 21.02 9.22 22.62 8.56 24.94V25.04L1.4 75L0.699998 79.94L0.0599976 84.32L0.139998 84.08L0.699998 82.08L1.4 79.58L1.46 79.38L2.86 74.42L2.9 74.22L5.68 64.34L13.22 28.6C13.7 26.88 15.3 25.68 17.1 25.68H90.56C91.44 25.68 92.16 26.4 92.16 27.28V28.26H93.5V27.28C93.5 25.66 92.18 24.32 90.56 24.32ZM88.82 24.32H17.1C14.68 24.32 12.56 25.94 11.9 28.26V28.3L4.28 64.42L9.88 25.26C10.38 23.56 11.98 22.36 13.76 22.36H87.22C88.1 22.36 88.82 23.08 88.82 23.96V24.32Z" fill="#2D557F"/>
  <path d="M90.08 62.6H90.3V61.78L90.08 62.6ZM97.68 30.36C96.66 29.04 95.14 28.3 93.5 28.26H19.92C17.5 28.26 15.36 29.88 14.7 32.2L5.68 64.34L2.9 74.22L2.86 74.42L1.46 79.38L1.4 79.58L0.7 82.08L0.14 84.08L0.06 84.32L0.7 79.94L1.4 75V8.62C1.4 6.94 3.08 5.42 4.94 5.42H30.36C32.12 5.42 33.56 6.86 33.56 8.62V13.84C33.56 14.22 33.88 14.54 34.28 14.54H78.94C80.7 14.54 82.14 15.98 82.14 17.74V21.02H83.56V17.74C83.56 15.2 81.48 13.12 78.94 13.12H34.98V8.62C34.98 6.08 32.9 4 30.36 4H4.94C2.3 4 0 6.16 0 8.62V84.76C0.02 84.84 0.04 84.9 0.06 84.98C0.08 85.02 0.1 85.06 0.12 85.08C0.12 85.1 0.12 85.12 0.14 85.12C0.18 85.2 0.26 85.24 0.32 85.28C0.34 85.3 0.34 85.32 0.36 85.32H0.38C0.48 85.38 0.58 85.4 0.7 85.4H59.02V84H1.62L1.84 83.22L1.86 83.18L1.9 83.04L16.06 32.58C16.54 30.86 18.12 29.66 19.92 29.66H93.4C94.64 29.66 95.8 30.22 96.56 31.22C97.32 32.2 97.58 33.46 97.28 34.66L93.56 49.08C93.94 49.64 94.28 50.24 94.58 50.84L98.64 35.02C99.06 33.38 98.7 31.68 97.68 30.36Z" fill="#4279B6"/>
  <path d="M90.08 62.6H90.3V61.78L90.08 62.6Z" fill="#2D557F"/>
  <path d="M96.16 62.82V57.66C96.16 55.22 95.6 52.92 94.58 50.84C94.28 50.24 93.94 49.64 93.56 49.08C90.66 44.68 85.56 41.74 79.76 41.74H79.26C70.22 41.74 62.86 48.88 62.86 57.66V62.82C60.64 63.48 59.02 65.54 59.02 67.96V90.74C59.02 93.7 61.44 96.12 64.4 96.12H94.62C97.58 96.12 100 93.7 100 90.74V67.96C100 65.54 98.38 63.48 96.16 62.82ZM64.36 57.66C64.36 49.7 71.04 43.24 79.26 43.24H79.76C85.56 43.24 90.58 46.46 93.04 51.14C93.4 51.82 93.72 52.54 93.94 53.28C94.42 54.66 94.66 56.14 94.66 57.66V62.6H90.08L90.3 61.78V58.38C90.3 52.44 85.46 47.6 79.5 47.6C73.54 47.6 68.72 52.44 68.72 58.38V62.6H64.36V57.66ZM88.8 58.38V62.6H70.22V58.38C70.22 53.26 74.38 49.1 79.5 49.1C84.62 49.1 88.8 53.26 88.8 58.38ZM98.5 90.74C98.5 92.88 96.76 94.62 94.62 94.62H64.4C62.26 94.62 60.52 92.88 60.52 90.74V67.96C60.52 65.82 62.26 64.08 64.4 64.08H94.62C96.76 64.08 98.5 65.82 98.5 67.96V90.74Z" fill="#2D557F"/>
  <path fill-rule="evenodd" clip-rule="evenodd" d="M79.5 70.26C76.84 70.26 74.66 72.44 74.66 75.1C74.66 76.8 75.52 78.32 76.92 79.22V86.98C76.92 87.88 77.64 88.6 78.54 88.6H80.48C81.36 88.6 82.1 87.88 82.1 86.98V79.22C83.5 78.32 84.36 76.8 84.36 75.1C84.36 72.44 82.18 70.26 79.5 70.26ZM81.02 78.1C80.76 78.24 80.6 78.5 80.6 78.78V86.98C80.6 87.06 80.54 87.1 80.48 87.1H78.54C78.48 87.1 78.42 87.06 78.42 86.98V78.78C78.42 78.5 78.26 78.24 78 78.1C76.86 77.54 76.16 76.38 76.16 75.1C76.16 73.26 77.66 71.74 79.5 71.74C81.34 71.74 82.86 73.26 82.86 75.1C82.86 76.38 82.16 77.54 81.02 78.1Z" fill="#4279B6"/>
</svg>
