<svg xmlns="http://www.w3.org/2000/svg" width="100" height="100" viewBox="0 0 100 100" fill="none">
  <path d="M78.94 14.53H34.27C33.87 14.53 33.56 14.21 33.56 13.84V8.62001C33.56 6.84001 32.14 5.42001 30.36 5.42001H4.93999C3.07999 5.42001 1.39999 6.94001 1.39999 8.62001V74.95L8.54999 25.02C8.54999 25.02 8.54999 24.96 8.56999 24.94C9.19999 22.63 11.34 21.01 13.75 21.01H82.14V17.75C82.14 15.97 80.7 14.53 78.94 14.53Z" fill="#FC8B27"/>
  <path d="M87.22 22.36H13.76C11.98 22.36 10.38 23.57 9.88999 25.26L4.29999 64.39L11.91 28.3V28.26C12.56 25.93 14.7 24.33 17.11 24.33H88.84V23.95C88.84 23.06 88.13 22.35 87.24 22.35L87.22 22.36Z" fill="#FCCD2A"/>
  <path d="M90.56 25.68H17.1C15.3 25.68 13.7 26.89 13.21 28.61L5.66 64.46L14.71 32.2C15.36 29.87 17.5 28.25 19.93 28.25H92.17V27.28C92.17 26.39 91.44 25.68 90.57 25.68H90.56Z" fill="#3C8645"/>
  <path d="M97.68 30.35C96.67 29.07 95.17 28.3 93.51 28.25V27.28C93.51 25.64 92.19 24.34 90.57 24.34H90.17V23.96C90.17 22.34 88.85 21.02 87.23 21.02H83.55V17.76C83.55 15.21 81.49 13.13 78.94 13.13H34.98V8.62C34.98 6.07 32.9 4 30.35 4H4.94C2.29 4 0 6.15 0 8.62V84.7C0 84.78 0.02 84.86 0.04 84.94C0.06 85 0.1 85.08 0.14 85.14C0.16 85.16 0.18 85.2 0.22 85.22C0.26 85.28 0.32 85.32 0.38 85.34C0.48 85.4 0.6 85.42 0.7 85.42H85.14C85.46 85.42 85.75 85.2 85.83 84.89L98.66 35.04C99.07 33.4 98.72 31.7 97.69 30.36L97.68 30.35ZM97.28 34.67L84.57 84H1.62L1.84 83.21L1.86 83.17L1.9 83.03L16.05 32.59C16.54 30.85 18.13 29.66 19.92 29.66H93.39C94.64 29.66 95.8 30.21 96.55 31.2C97.32 32.19 97.58 33.45 97.28 34.66V34.67ZM1.4 8.62C1.4 6.94 3.08 5.42 4.94 5.42H30.36C32.14 5.42 33.56 6.84 33.56 8.62V13.84C33.56 14.22 33.88 14.53 34.27 14.53H78.94C80.7 14.53 82.14 15.97 82.14 17.75V21.01H13.76C11.35 21.01 9.21 22.63 8.58 24.94C8.56 24.96 8.56 25 8.56 25.02L1.4 74.96V8.62ZM88.82 23.96V24.34H17.1C14.69 24.34 12.55 25.94 11.9 28.27V28.31L4.29 64.4L9.88 25.27C10.37 23.57 11.98 22.37 13.75 22.37H87.22C88.11 22.37 88.82 23.08 88.82 23.97V23.96ZM92.16 27.28V28.25H19.92C17.49 28.25 15.35 29.87 14.7 32.2L5.65 64.46L13.2 28.61C13.69 26.89 15.3 25.68 17.09 25.68H90.56C91.43 25.68 92.16 26.39 92.16 27.28Z" fill="#0E1721"/>
  <path d="M96.55 31.22C95.8 30.23 94.63 29.68 93.39 29.68H19.92C18.12 29.68 16.54 30.87 16.05 32.61L1.9 83.04L1.86 83.18L1.84 83.22L1.62 84.01H84.57L97.28 34.68C97.58 33.47 97.32 32.21 96.55 31.22Z" fill="#4279B6"/>
  <path d="M95.42 62.84V57.16C95.42 48.81 88.38 41.99 79.77 41.99H79.27C70.66 41.99 63.62 48.82 63.62 57.16V62.84H69.48V57.88C69.48 52.36 74 47.84 79.52 47.84C85.04 47.84 89.56 52.36 89.56 57.88V62.84H95.42Z" fill="#FCCD2A"/>
  <path d="M95.42 63.59H89.56C89.15 63.59 88.81 63.26 88.81 62.84V57.88C88.81 52.75 84.64 48.59 79.52 48.59C74.4 48.59 70.23 52.76 70.23 57.88V62.84C70.23 63.25 69.9 63.59 69.48 63.59H63.62C63.21 63.59 62.87 63.26 62.87 62.84V57.16C62.87 48.38 70.22 41.24 79.26 41.24H79.76C88.8 41.24 96.15 48.38 96.15 57.16V62.84C96.15 63.25 95.82 63.59 95.4 63.59H95.42ZM90.3 62.09H94.67V57.15C94.67 49.19 87.99 42.72 79.77 42.72H79.27C71.05 42.72 64.37 49.19 64.37 57.15V62.09H68.74V57.88C68.74 51.93 73.58 47.09 79.53 47.09C85.48 47.09 90.32 51.93 90.32 57.88V62.09H90.3Z" fill="#0E1721"/>
  <path d="M94.63 62.84H64.4C61.8484 62.84 59.78 64.9084 59.78 67.46V90.25C59.78 92.8016 61.8484 94.87 64.4 94.87H94.63C97.1816 94.87 99.25 92.8016 99.25 90.25V67.46C99.25 64.9084 97.1816 62.84 94.63 62.84Z" fill="#FCCD2A"/>
  <path d="M94.63 95.61H64.41C61.45 95.61 59.04 93.2 59.04 90.24V67.46C59.04 64.5 61.45 62.09 64.41 62.09H94.63C97.59 62.09 100 64.5 100 67.46V90.24C100 93.2 97.59 95.61 94.63 95.61ZM64.41 63.59C62.27 63.59 60.53 65.33 60.53 67.47V90.25C60.53 92.39 62.27 94.13 64.41 94.13H94.63C96.77 94.13 98.51 92.39 98.51 90.25V67.47C98.51 65.33 96.77 63.59 94.63 63.59H64.41Z" fill="#0E1721"/>
  <path fill-rule="evenodd" clip-rule="evenodd" d="M83.62 74.61C83.62 72.34 81.78 70.51 79.52 70.51C77.26 70.51 75.42 72.35 75.42 74.61C75.42 76.22 76.34 77.6 77.69 78.28V86.49C77.69 86.97 78.08 87.35 78.55 87.35H80.49C80.97 87.35 81.35 86.96 81.35 86.49V78.28C82.69 77.61 83.62 76.22 83.62 74.61Z" fill="white"/>
  <path d="M80.49 88.1H78.55C77.66 88.1 76.94 87.38 76.94 86.49V78.71C75.53 77.83 74.67 76.29 74.67 74.61C74.67 71.94 76.85 69.76 79.52 69.76C82.19 69.76 84.37 71.94 84.37 74.61C84.37 76.3 83.51 77.83 82.1 78.71V86.49C82.1 87.38 81.38 88.1 80.49 88.1ZM79.52 71.25C77.67 71.25 76.16 72.76 76.16 74.61C76.16 75.89 76.87 77.04 78.02 77.61C78.27 77.74 78.43 77.99 78.43 78.28V86.49C78.43 86.55 78.49 86.61 78.55 86.61H80.49C80.55 86.61 80.61 86.55 80.61 86.49V78.28C80.61 78 80.77 77.74 81.02 77.61C82.17 77.04 82.88 75.89 82.88 74.61C82.88 72.76 81.37 71.25 79.52 71.25Z" fill="#0E1721"/>
</svg>
