<svg xmlns="http://www.w3.org/2000/svg" width="100" height="100" viewBox="0 0 100 100" fill="none">
  <path d="M53.5 65.52H4.40999C2.34999 65.52 0.689986 63.85 0.689986 61.8V21.41C0.679986 19.35 2.34999 17.68 4.40999 17.68H76.06C78.12 17.68 79.78 19.35 79.78 21.4V65.51H53.5V65.52Z" fill="#4279B6"/>
  <path d="M79.78 66.2H4.41C1.98 66.2 0 64.22 0 61.79V21.41C0 18.98 1.98 17 4.41 17H76.06C78.49 17 80.47 18.98 80.47 21.41V65.52C80.47 65.9 80.16 66.2 79.79 66.2H79.78ZM4.41 18.36C2.73 18.36 1.37 19.73 1.37 21.4V61.78C1.37 63.46 2.74 64.82 4.41 64.82H79.11V21.41C79.11 19.73 77.74 18.37 76.07 18.37H4.41V18.36Z" fill="#0E1721"/>
  <path d="M1.95999 64.6L40.23 37.01L66.4 55.87" fill="#4279B6"/>
  <path d="M1.96 65.28C1.75 65.28 1.54 65.18 1.41 65C1.19 64.69 1.26 64.27 1.56 64.05L39.84 36.46C40.08 36.29 40.4 36.29 40.64 36.46L66.81 55.32C67.12 55.54 67.18 55.97 66.96 56.27C66.74 56.58 66.31 56.64 66.01 56.42L40.24 37.85L2.36 65.15C2.24 65.24 2.1 65.28 1.96 65.28Z" fill="#0E1721"/>
  <path d="M78.51 18.6L40.23 46.19L1.95999 18.6" fill="#4279B6"/>
  <path d="M40.23 46.87C40.09 46.87 39.95 46.83 39.83 46.74L1.55999 19.16C1.24999 18.94 1.18999 18.51 1.40999 18.21C1.62999 17.9 2.05999 17.84 2.35999 18.06L40.23 45.36L78.11 18.05C78.42 17.83 78.84 17.9 79.06 18.2C79.28 18.51 79.21 18.93 78.91 19.15L40.64 46.73C40.52 46.82 40.38 46.86 40.24 46.86L40.23 46.87Z" fill="#0E1721"/>
  <path d="M95.52 51.19V45.57C95.52 37.31 88.55 30.55 80.03 30.55H79.53C71.01 30.55 64.04 37.31 64.04 45.57V51.19H69.84V46.28C69.84 40.81 74.31 36.34 79.78 36.34C85.25 36.34 89.72 40.81 89.72 46.28V51.19H95.52Z" fill="#FC8B27"/>
  <path d="M95.52 51.87H89.72C89.34 51.87 89.04 51.56 89.04 51.19V46.28C89.04 41.18 84.89 37.02 79.78 37.02C74.67 37.02 70.52 41.17 70.52 46.28V51.19C70.52 51.57 70.21 51.87 69.84 51.87H64.04C63.66 51.87 63.36 51.56 63.36 51.19V45.57C63.36 36.91 70.61 29.87 79.53 29.87H80.03C88.95 29.87 96.2 36.91 96.2 45.57V51.19C96.2 51.57 95.89 51.87 95.52 51.87ZM90.4 50.5H94.84V45.56C94.84 37.65 88.2 31.22 80.03 31.22H79.53C71.37 31.22 64.72 37.65 64.72 45.56V50.5H69.16V46.28C69.16 40.42 73.92 35.66 79.78 35.66C85.64 35.66 90.4 40.42 90.4 46.28V50.5Z" fill="#0E1721"/>
  <path d="M94.74 51.19H64.83C62.3005 51.19 60.25 53.2405 60.25 55.77V78.31C60.25 80.8395 62.3005 82.89 64.83 82.89H94.74C97.2695 82.89 99.32 80.8395 99.32 78.31V55.77C99.32 53.2405 97.2695 51.19 94.74 51.19Z" fill="#FC8B27"/>
  <path d="M94.74 83.57H64.82C61.92 83.57 59.56 81.21 59.56 78.31V55.77C59.56 52.87 61.92 50.51 64.82 50.51H94.74C97.64 50.51 100 52.87 100 55.77V78.31C100 81.21 97.64 83.57 94.74 83.57ZM64.83 51.87C62.68 51.87 60.93 53.62 60.93 55.77V78.31C60.93 80.46 62.68 82.21 64.83 82.21H94.75C96.9 82.21 98.65 80.46 98.65 78.31V55.77C98.65 53.62 96.9 51.87 94.75 51.87H64.83Z" fill="#0E1721"/>
  <path fill-rule="evenodd" clip-rule="evenodd" d="M83.85 62.83C83.85 60.59 82.03 58.77 79.79 58.77C77.55 58.77 75.73 60.59 75.73 62.83C75.73 64.42 76.64 65.79 77.98 66.46V74.59C77.98 75.06 78.36 75.45 78.84 75.45H80.76C81.23 75.45 81.62 75.07 81.62 74.59V66.46C82.95 65.79 83.87 64.42 83.87 62.83H83.85Z" fill="white"/>
  <path d="M80.75 76.13H78.83C77.98 76.13 77.29 75.44 77.29 74.59V66.86C75.89 66 75.04 64.49 75.04 62.83C75.04 60.21 77.17 58.09 79.78 58.09C82.39 58.09 84.52 60.22 84.52 62.83C84.52 64.49 83.67 66 82.27 66.86V74.59C82.27 75.44 81.58 76.13 80.73 76.13H80.75ZM79.78 59.45C77.92 59.45 76.4 60.97 76.4 62.83C76.4 64.11 77.12 65.27 78.27 65.85C78.5 65.97 78.65 66.2 78.65 66.46V74.59C78.65 74.68 78.73 74.76 78.82 74.76H80.74C80.83 74.76 80.91 74.68 80.91 74.59V66.46C80.91 66.2 81.06 65.97 81.29 65.85C82.44 65.27 83.16 64.11 83.16 62.83C83.16 60.97 81.64 59.45 79.78 59.45Z" fill="#0E1721"/>
</svg>
