<svg xmlns="http://www.w3.org/2000/svg" width="100" height="100" viewBox="0 0 100 100" fill="none">
  <path d="M8.67999 3.85999L8.67999 81.51C8.67999 83.2718 10.1082 84.7 11.87 84.7H76.85C78.6118 84.7 80.04 83.2718 80.04 81.51V3.85999C80.04 2.09821 78.6118 0.669998 76.85 0.669998H11.87C10.1082 0.669998 8.67999 2.09821 8.67999 3.85999Z" fill="white"/>
  <path d="M76.85 85.39H11.87C9.73 85.39 8 83.65 8 81.52V3.87C8 1.74 9.74 0 11.87 0H76.84C78.98 0 80.71 1.74 80.71 3.87V81.52C80.71 83.66 78.97 85.39 76.84 85.39H76.85ZM11.87 1.36C10.49 1.36 9.36 2.49 9.36 3.87V81.52C9.36 82.9 10.49 84.03 11.87 84.03H76.84C78.22 84.03 79.35 82.9 79.35 81.52V3.87C79.35 2.49 78.22 1.36 76.84 1.36H11.87Z" fill="#0E1721"/>
  <path d="M11.87 0.68H76.84C78.6 0.68 80.03 2.11 80.03 3.87V19.38H8.67999V3.87C8.67999 2.11 10.11 0.68 11.87 0.68Z" fill="#4279B6"/>
  <path d="M80.04 20.06H8.68C8.3 20.06 8 19.75 8 19.38V3.87C8 1.74 9.74 0 11.87 0H76.84C78.98 0 80.71 1.74 80.71 3.87V19.38C80.71 19.76 80.4 20.06 80.03 20.06H80.04ZM9.36 18.7H79.35V3.87C79.35 2.49 78.22 1.36 76.84 1.36H11.87C10.49 1.36 9.36 2.49 9.36 3.87V18.7Z" fill="#0E1721"/>
  <path d="M65.49 47.27H23.23C22.85 47.27 22.55 46.96 22.55 46.59C22.55 46.22 22.86 45.91 23.23 45.91H65.49C65.87 45.91 66.17 46.22 66.17 46.59C66.17 46.96 65.86 47.27 65.49 47.27Z" fill="#0E1721"/>
  <path d="M65.49 40.55H23.23C22.85 40.55 22.55 40.24 22.55 39.87C22.55 39.5 22.86 39.19 23.23 39.19H65.49C65.87 39.19 66.17 39.5 66.17 39.87C66.17 40.24 65.86 40.55 65.49 40.55Z" fill="#0E1721"/>
  <path d="M65.49 33.83H23.23C22.85 33.83 22.55 33.52 22.55 33.15C22.55 32.78 22.86 32.47 23.23 32.47H65.49C65.87 32.47 66.17 32.78 66.17 33.15C66.17 33.52 65.86 33.83 65.49 33.83Z" fill="#0E1721"/>
  <path d="M65.49 27.1H23.23C22.85 27.1 22.55 26.79 22.55 26.42C22.55 26.05 22.86 25.74 23.23 25.74H65.49C65.87 25.74 66.17 26.05 66.17 26.42C66.17 26.79 65.86 27.1 65.49 27.1Z" fill="#0E1721"/>
  <path d="M35.96 13.44H23.23C22.85 13.44 22.55 13.13 22.55 12.76C22.55 12.39 22.86 12.08 23.23 12.08H35.96C36.34 12.08 36.64 12.39 36.64 12.76C36.64 13.13 36.33 13.44 35.96 13.44Z" fill="white"/>
  <path d="M65.49 54.04H23.23C22.85 54.04 22.55 53.73 22.55 53.36C22.55 52.99 22.86 52.68 23.23 52.68H65.49C65.87 52.68 66.17 52.99 66.17 53.36C66.17 53.73 65.86 54.04 65.49 54.04Z" fill="#0E1721"/>
  <path d="M65.49 60.8H23.23C22.85 60.8 22.55 60.49 22.55 60.12C22.55 59.75 22.86 59.44 23.23 59.44H65.49C65.87 59.44 66.17 59.75 66.17 60.12C66.17 60.49 65.86 60.8 65.49 60.8Z" fill="#0E1721"/>
  <path d="M33.54 75.85C32.85 75.85 32.16 75.74 31.5 75.52C30.71 75.25 30 74.85 29.32 74.45C29.07 74.3 28.81 74.16 28.56 74.02C27.89 73.66 26.88 73.19 25.91 73.29C25.18 73.36 24.37 73.88 24.27 74.62C24.22 74.99 23.88 75.26 23.51 75.21C23.14 75.16 22.87 74.82 22.92 74.45C23.08 73.16 24.31 72.08 25.77 71.93C27.11 71.8 28.37 72.37 29.2 72.82C29.47 72.96 29.73 73.12 30 73.27C30.66 73.65 31.27 74 31.94 74.23C33.58 74.78 35.5 74.44 36.84 73.35C37.13 73.11 37.56 73.16 37.8 73.45C38.04 73.74 37.99 74.17 37.7 74.41C36.54 75.35 35.04 75.85 33.54 75.85Z" fill="#0E1721"/>
  <path d="M84.11 96.46C84.39 97.14 84.08 97.91 83.4 98.2L80.97 99.22C80.64 99.36 80.28 99.36 79.95 99.22C79.62 99.09 79.36 98.83 79.23 98.5L74.08 86.23L64.27 94.72L64.3 56.07L91.89 83.14L78.96 84.19L84.11 96.47V96.46Z" fill="#3C8645"/>
  <path d="M80.46 100C80.2 100 79.95 99.95 79.7 99.85C79.2 99.65 78.81 99.26 78.61 98.76L73.83 87.36L64.73 95.24C64.53 95.41 64.24 95.46 64 95.34C63.76 95.23 63.6 94.99 63.6 94.72L63.63 56.07C63.63 55.8 63.79 55.55 64.05 55.44C64.3 55.33 64.6 55.39 64.79 55.58L92.38 82.65C92.57 82.84 92.63 83.12 92.54 83.37C92.45 83.62 92.22 83.8 91.95 83.82L79.95 84.79L84.74 96.2C84.95 96.69 84.95 97.24 84.74 97.74C84.54 98.24 84.15 98.63 83.66 98.83L81.24 99.84C80.99 99.95 80.72 100 80.46 100ZM74.09 85.55C74.14 85.55 74.19 85.55 74.25 85.57C74.46 85.62 74.64 85.77 74.72 85.97L79.87 98.24C79.94 98.41 80.06 98.52 80.22 98.59C80.38 98.66 80.55 98.65 80.72 98.59L83.14 97.58C83.47 97.44 83.62 97.06 83.48 96.74L78.33 84.46C78.25 84.26 78.26 84.03 78.38 83.84C78.49 83.65 78.69 83.53 78.91 83.52L90.36 82.59L64.99 57.7L64.96 93.24L73.64 85.73C73.77 85.62 73.92 85.56 74.09 85.56V85.55Z" fill="#0E1721"/>
</svg>
