<svg xmlns="http://www.w3.org/2000/svg" width="100" height="100" viewBox="0 0 100 100" fill="none">
  <path d="M75.86 0H10.88C8.74 0 7 1.74 7 3.86V81.52C7 83.64 8.74 85.38 10.88 85.38H62.6L62.62 84.02H10.88C9.5 84.02 8.36 82.9 8.36 81.52V20.06H78.36V69.86L79.72 71.2V3.86C79.72 1.74 77.98 0 75.86 0ZM78.36 18.7H8.36V3.86C8.36 2.48 9.5 1.36 10.88 1.36H75.86C77.24 1.36 78.36 2.48 78.36 3.86V18.7Z" fill="#4279B6"/>
  <path d="M64.49 45.9H22.23C21.85 45.9 21.55 46.2 21.55 46.58C21.55 46.96 21.85 47.26 22.23 47.26H64.49C64.87 47.26 65.17 46.96 65.17 46.58C65.17 46.2 64.87 45.9 64.49 45.9Z" fill="#2D557F"/>
  <path d="M64.49 39.18H22.23C21.85 39.18 21.55 39.48 21.55 39.86C21.55 40.24 21.85 40.54 22.23 40.54H64.49C64.87 40.54 65.17 40.23 65.17 39.86C65.17 39.49 64.87 39.18 64.49 39.18Z" fill="#2D557F"/>
  <path d="M64.49 32.46H22.23C21.85 32.46 21.55 32.76 21.55 33.14C21.55 33.52 21.85 33.82 22.23 33.82H64.49C64.87 33.82 65.17 33.52 65.17 33.14C65.17 32.76 64.87 32.46 64.49 32.46Z" fill="#2D557F"/>
  <path d="M22.23 27.1H64.49C64.87 27.1 65.17 26.79 65.17 26.42C65.17 26.05 64.87 25.74 64.49 25.74H22.23C21.85 25.74 21.55 26.05 21.55 26.42C21.55 26.79 21.85 27.1 22.23 27.1Z" fill="#2D557F"/>
  <path d="M22.23 13.44H34.96C35.34 13.44 35.64 13.14 35.64 12.76C35.64 12.38 35.34 12.08 34.96 12.08H22.23C21.85 12.08 21.55 12.39 21.55 12.76C21.55 13.13 21.85 13.44 22.23 13.44Z" fill="#2D557F"/>
  <path d="M64.49 52.67H22.23C21.85 52.67 21.55 52.98 21.55 53.35C21.55 53.72 21.85 54.03 22.23 54.03H64.49C64.87 54.03 65.17 53.72 65.17 53.35C65.17 52.98 64.87 52.67 64.49 52.67Z" fill="#2D557F"/>
  <path d="M62.64 59.44V60.8H22.24C21.86 60.8 21.56 60.5 21.56 60.12C21.56 59.74 21.86 59.44 22.24 59.44H62.64Z" fill="#2D557F"/>
  <path d="M32.55 75.84C31.86 75.84 31.17 75.73 30.51 75.51C29.72 75.24 29.01 74.84 28.33 74.44C28.08 74.29 27.82 74.15 27.57 74.01C26.9 73.65 25.89 73.18 24.92 73.28C24.19 73.35 23.38 73.87 23.28 74.61C23.23 74.98 22.89 75.25 22.52 75.2C22.15 75.15 21.88 74.81 21.93 74.44C22.09 73.15 23.32 72.07 24.78 71.92C26.12 71.79 27.38 72.36 28.21 72.81C28.48 72.95 28.74 73.11 29.01 73.26C29.67 73.64 30.28 73.99 30.95 74.22C32.59 74.77 34.51 74.43 35.85 73.34C36.14 73.1 36.57 73.15 36.81 73.44C37.05 73.73 37 74.16 36.71 74.4C35.55 75.34 34.05 75.84 32.55 75.84Z" fill="#2D557F"/>
  <path d="M91.38 82.64L79.72 71.2L78.36 69.86L63.8 55.58C63.6 55.38 63.3 55.34 63.06 55.44C62.8 55.54 62.64 55.8 62.64 56.06V60.8L62.62 84.02L62.6 85.38V94.72C62.6 94.98 62.76 95.22 63 95.34C63.24 95.44 63.52 95.4 63.74 95.24L72.84 87.36L77.62 98.76C77.82 99.26 78.2 99.64 78.7 99.84C78.96 99.94 79.2 100 79.46 100C79.72 100 80 99.94 80.24 99.84L82.66 98.82C83.16 98.62 83.54 98.22 83.76 97.74C83.86 97.5 83.9 97.24 83.9 96.98C83.9 96.72 83.86 96.46 83.74 96.2L78.96 84.78L90.96 83.82C91.22 83.8 91.46 83.62 91.54 83.36C91.64 83.12 91.56 82.84 91.38 82.64ZM79.22 83.4L77.92 83.5C77.7 83.52 77.5 83.64 77.38 83.82C77.28 84.02 77.26 84.24 77.34 84.44L77.56 84.98L82.48 96.72C82.62 97.06 82.48 97.42 82.14 97.56L79.72 98.58C79.56 98.64 79.38 98.66 79.22 98.58C79.06 98.52 78.94 98.4 78.88 98.24L73.72 85.96C73.64 85.76 73.46 85.62 73.26 85.56C73.2 85.56 73.14 85.54 73.1 85.54C72.94 85.54 72.78 85.6 72.66 85.72L63.96 93.22V85.38L63.98 84.02L64 60.8V57.68L78.36 71.78L79.72 73.12L89.36 82.58L79.22 83.4Z" fill="#4279B6"/>
</svg>
