<svg xmlns="http://www.w3.org/2000/svg" width="100" height="100" viewBox="0 0 100 100" fill="none">
  <path d="M76.6101 88.65H12.8001C10.0501 88.65 7.81006 86.41 7.81006 83.66V57.55C7.81006 57.2 8.10006 56.91 8.45006 56.91C8.80006 56.91 9.09006 57.2 9.09006 57.55V83.66C9.09006 85.7 10.7501 87.36 12.7901 87.36H76.6001C78.6401 87.36 80.3001 85.7 80.3001 83.66V66.52C80.3001 66.17 80.5901 65.88 80.9401 65.88C81.2901 65.88 81.5801 66.17 81.5801 66.52V83.66C81.5801 86.41 79.3401 88.65 76.5901 88.65H76.6101Z" fill="#4279B6"/>
  <path d="M80.9601 46.34C80.6101 46.34 80.3201 46.05 80.3201 45.7V15.99C80.3201 13.95 78.6601 12.29 76.6201 12.29H12.8001C10.7601 12.29 9.10007 13.95 9.10007 15.99V37.27C9.10007 37.62 8.81007 37.91 8.46007 37.91C8.11007 37.91 7.82007 37.62 7.82007 37.27V15.99C7.82007 13.24 10.0601 11 12.8101 11H76.6201C79.3701 11 81.6101 13.24 81.6101 15.99V45.7C81.6101 46.05 81.3201 46.34 80.9701 46.34H80.9601Z" fill="#4279B6"/>
  <path d="M32.4301 22.81H8.45006C8.10006 22.81 7.81006 22.52 7.81006 22.17C7.81006 21.82 8.10006 21.53 8.45006 21.53H32.4201C32.7701 21.53 33.0601 21.82 33.0601 22.17C33.0601 22.52 32.7701 22.81 32.4201 22.81H32.4301Z" fill="#4279B6"/>
  <path d="M18.81 37.52C18.46 37.52 18.17 37.23 18.17 36.88V22.16C18.17 21.81 18.46 21.52 18.81 21.52C19.16 21.52 19.45 21.81 19.45 22.16V36.88C19.45 37.23 19.16 37.52 18.81 37.52Z" fill="#4279B6"/>
  <path d="M43.0801 23.4C42.7301 23.4 42.4401 23.11 42.4401 22.76V12.1C42.4401 11.75 42.7301 11.46 43.0801 11.46C43.4301 11.46 43.7201 11.75 43.7201 12.1V22.75C43.7201 23.1 43.4301 23.39 43.0801 23.39V23.4Z" fill="#4279B6"/>
  <path d="M70.3 22.81H53.43C53.08 22.81 52.79 22.52 52.79 22.17C52.79 21.82 53.08 21.53 53.43 21.53H70.3C70.65 21.53 70.94 21.82 70.94 22.17C70.94 22.52 70.65 22.81 70.3 22.81Z" fill="#4279B6"/>
  <path d="M70.3 37.6C69.95 37.6 69.66 37.31 69.66 36.96V12.1C69.66 11.75 69.95 11.46 70.3 11.46C70.65 11.46 70.94 11.75 70.94 12.1V36.96C70.94 37.31 70.65 37.6 70.3 37.6Z" fill="#4279B6"/>
  <path d="M39.23 57.73H18.81C18.46 57.73 18.17 57.44 18.17 57.09C18.17 56.74 18.46 56.45 18.81 56.45H39.23C39.58 56.45 39.87 56.74 39.87 57.09C39.87 57.44 39.58 57.73 39.23 57.73Z" fill="#4279B6"/>
  <path d="M50.1801 78.15H39.2301C38.8801 78.15 38.5901 77.86 38.5901 77.51V42.59C38.5901 42.24 38.8801 41.95 39.2301 41.95C39.5801 41.95 39.8701 42.24 39.8701 42.59V76.87H50.1801C50.5301 76.87 50.8201 77.16 50.8201 77.51C50.8201 77.86 50.5301 78.15 50.1801 78.15Z" fill="#4279B6"/>
  <path d="M28.87 88.8C28.52 88.8 28.23 88.51 28.23 88.16V67.79H19.45V77.51C19.45 77.86 19.16 78.15 18.81 78.15C18.46 78.15 18.17 77.86 18.17 77.51V67.15C18.17 66.8 18.46 66.51 18.81 66.51H28.87C29.22 66.51 29.51 66.8 29.51 67.15V88.16C29.51 88.51 29.22 88.8 28.87 88.8Z" fill="#4279B6"/>
  <path d="M70.3 67.2H49.29C48.94 67.2 48.65 66.91 48.65 66.56C48.65 66.21 48.94 65.92 49.29 65.92H70.3C70.65 65.92 70.94 66.21 70.94 66.56C70.94 66.91 70.65 67.2 70.3 67.2Z" fill="#4279B6"/>
  <path d="M59.65 88.21C59.3 88.21 59.01 87.92 59.01 87.57V66.56C59.01 66.21 59.3 65.92 59.65 65.92C60 65.92 60.29 66.21 60.29 66.56V87.57C60.29 87.92 60 88.21 59.65 88.21Z" fill="#4279B6"/>
  <path d="M80.96 78.15H70.31C69.96 78.15 69.67 77.86 69.67 77.51C69.67 77.16 69.96 76.87 70.31 76.87H80.96C81.31 76.87 81.6 77.16 81.6 77.51C81.6 77.86 81.31 78.15 80.96 78.15Z" fill="#4279B6"/>
  <path d="M70.3 47.07H59.65C59.3 47.07 59.01 46.78 59.01 46.43V32.82C59.01 32.47 59.3 32.18 59.65 32.18C60 32.18 60.29 32.47 60.29 32.82V45.79H70.3C70.65 45.79 70.94 46.08 70.94 46.43C70.94 46.78 70.65 47.07 70.3 47.07Z" fill="#4279B6"/>
  <path d="M91.79 57.73H50.18C49.83 57.73 49.54 57.44 49.54 57.09V33.46H29.51V46.43C29.51 46.78 29.22 47.07 28.87 47.07H0.64C0.29 47.07 0 46.78 0 46.43C0 46.08 0.29 45.79 0.64 45.79H28.23V32.82C28.23 32.47 28.52 32.18 28.87 32.18H50.18C50.53 32.18 50.82 32.47 50.82 32.82V56.45H91.79C92.14 56.45 92.43 56.74 92.43 57.09C92.43 57.44 92.14 57.73 91.79 57.73Z" fill="#2D557F"/>
  <path d="M86.73 64.01C86.57 64.01 86.4 63.95 86.28 63.82C86.03 63.57 86.03 63.16 86.28 62.91L92.04 57.15L86.28 51.39C86.03 51.14 86.03 50.73 86.28 50.48C86.53 50.23 86.94 50.23 87.19 50.48L93.4 56.69C93.65 56.94 93.65 57.35 93.4 57.6L87.19 63.81C87.06 63.94 86.9 64 86.74 64L86.73 64.01Z" fill="#2D557F"/>
  <path d="M92.19 48.01C87.88 48.01 84.38 44.51 84.38 40.2C84.38 35.89 87.88 32.39 92.19 32.39C96.5 32.39 100 35.89 100 40.2C100 44.51 96.5 48.01 92.19 48.01ZM92.19 33.68C88.59 33.68 85.66 36.61 85.66 40.21C85.66 43.81 88.59 46.74 92.19 46.74C95.79 46.74 98.72 43.81 98.72 40.21C98.72 36.61 95.79 33.68 92.19 33.68Z" fill="#2D557F"/>
  <path d="M91.48 43.46C91.32 43.46 91.15 43.4 91.03 43.27L88.59 40.83C88.34 40.58 88.34 40.17 88.59 39.92C88.84 39.67 89.25 39.67 89.5 39.92L91.94 42.36C92.19 42.61 92.19 43.02 91.94 43.27C91.81 43.4 91.65 43.46 91.49 43.46H91.48Z" fill="#2D557F"/>
  <path d="M91.48 43.46C91.31 43.46 91.15 43.4 91.02 43.27C90.77 43.02 90.78 42.61 91.02 42.36L95.48 37.97C95.73 37.72 96.14 37.72 96.39 37.97C96.64 38.22 96.63 38.63 96.39 38.88L91.93 43.27C91.81 43.39 91.64 43.45 91.48 43.45V43.46Z" fill="#2D557F"/>
</svg>
