<svg xmlns="http://www.w3.org/2000/svg" width="100" height="100" viewBox="0 0 100 100" fill="none">
  <path d="M6.78003 36.75V15.08C6.78003 12.64 8.76003 10.66 11.2 10.66H76.18C78.62 10.66 80.6 12.64 80.6 15.08V84C80.6 86.44 78.62 88.42 76.18 88.42H11.2C8.76003 88.42 6.78003 86.44 6.78003 84V36.75Z" fill="#4279B6"/>
  <path d="M6.78003 36.75V15.08C6.78003 12.64 8.76003 10.66 11.2 10.66H76.18C78.62 10.66 80.6 12.64 80.6 15.08V45.33" fill="#4279B6"/>
  <path d="M80.61 45.98C80.25 45.98 79.96 45.69 79.96 45.33V15.08C79.96 13 78.27 11.31 76.19 11.31H11.2C9.12 11.31 7.43 13 7.43 15.08V36.75C7.43 37.11 7.14 37.4 6.78 37.4C6.42 37.4 6.13 37.11 6.13 36.75V15.08C6.13 12.28 8.41 10 11.21 10H76.19C78.99 10 81.27 12.28 81.27 15.08V45.33C81.27 45.69 80.98 45.98 80.62 45.98H80.61Z" fill="#0E1721"/>
  <path d="M80.61 66.55V84C80.61 86.44 78.63 88.42 76.19 88.42H11.2C8.76003 88.42 6.78003 86.44 6.78003 84V57.42" fill="#4279B6"/>
  <path d="M76.19 89.07H11.2C8.4 89.07 6.12 86.79 6.12 83.99V57.41C6.12 57.05 6.41 56.76 6.77 56.76C7.13 56.76 7.42 57.05 7.42 57.41V83.99C7.42 86.07 9.10999 87.76 11.19 87.76H76.17C78.25 87.76 79.94 86.07 79.94 83.99V66.54C79.94 66.18 80.23 65.89 80.59 65.89C80.95 65.89 81.24 66.18 81.24 66.54V83.99C81.24 86.79 78.96 89.07 76.16 89.07H76.19Z" fill="#0E1721"/>
  <path d="M31.19 22.02H6.78C6.42 22.02 6.13 21.73 6.13 21.37C6.13 21.01 6.42 20.72 6.78 20.72H31.19C31.55 20.72 31.84 21.01 31.84 21.37C31.84 21.73 31.55 22.02 31.19 22.02Z" fill="#0E1721"/>
  <path d="M17.3301 37.01C16.9701 37.01 16.6801 36.72 16.6801 36.36V21.37C16.6801 21.01 16.9701 20.72 17.3301 20.72C17.6901 20.72 17.9801 21.01 17.9801 21.37V36.36C17.9801 36.72 17.6901 37.01 17.3301 37.01Z" fill="#0E1721"/>
  <path d="M42.04 22.63C41.68 22.63 41.39 22.34 41.39 21.98V11.12C41.39 10.76 41.68 10.47 42.04 10.47C42.4 10.47 42.69 10.76 42.69 11.12V21.97C42.69 22.33 42.4 22.62 42.04 22.62V22.63Z" fill="#0E1721"/>
  <path d="M69.7601 22.02H52.5801C52.2201 22.02 51.9301 21.73 51.9301 21.37C51.9301 21.01 52.2201 20.72 52.5801 20.72H69.7601C70.1201 20.72 70.4101 21.01 70.4101 21.37C70.4101 21.73 70.1201 22.02 69.7601 22.02Z" fill="#0E1721"/>
  <path d="M69.76 37.09C69.4 37.09 69.11 36.8 69.11 36.44V11.12C69.11 10.76 69.4 10.47 69.76 10.47C70.12 10.47 70.41 10.76 70.41 11.12V36.43C70.41 36.79 70.12 37.08 69.76 37.08V37.09Z" fill="#0E1721"/>
  <path d="M38.1201 57.58H17.3301C16.9701 57.58 16.6801 57.29 16.6801 56.93C16.6801 56.57 16.9701 56.28 17.3301 56.28H38.1201C38.4801 56.28 38.7701 56.57 38.7701 56.93C38.7701 57.29 38.4801 57.58 38.1201 57.58Z" fill="#0E1721"/>
  <path d="M49.27 78.37H38.12C37.76 78.37 37.47 78.08 37.47 77.72V42.16C37.47 41.8 37.76 41.51 38.12 41.51C38.48 41.51 38.77 41.8 38.77 42.16V77.07H49.27C49.63 77.07 49.92 77.36 49.92 77.72C49.92 78.08 49.63 78.37 49.27 78.37Z" fill="#0E1721"/>
  <path d="M27.5701 89.07C27.2101 89.07 26.9201 88.78 26.9201 88.42V67.83H17.9801V77.72C17.9801 78.08 17.6901 78.37 17.3301 78.37C16.9701 78.37 16.6801 78.08 16.6801 77.72V67.17C16.6801 66.81 16.9701 66.52 17.3301 66.52H27.5801C27.9401 66.52 28.2301 66.81 28.2301 67.17V88.41C28.2301 88.77 27.9401 89.06 27.5801 89.06L27.5701 89.07Z" fill="#0E1721"/>
  <path d="M69.76 67.22H48.36C48 67.22 47.71 66.93 47.71 66.57C47.71 66.21 48 65.92 48.36 65.92H69.76C70.12 65.92 70.41 66.21 70.41 66.57C70.41 66.93 70.12 67.22 69.76 67.22Z" fill="#0E1721"/>
  <path d="M58.91 88.62C58.55 88.62 58.26 88.33 58.26 87.97V66.57C58.26 66.21 58.55 65.92 58.91 65.92C59.27 65.92 59.56 66.21 59.56 66.57V87.97C59.56 88.33 59.27 88.62 58.91 88.62Z" fill="#0E1721"/>
  <path d="M80.61 78.3699H69.76C69.4 78.3699 69.11 78.0799 69.11 77.7199C69.11 77.3599 69.4 77.0699 69.76 77.0699H80.61C80.97 77.0699 81.26 77.3599 81.26 77.7199C81.26 78.0799 80.97 78.3699 80.61 78.3699Z" fill="#0E1721"/>
  <path d="M69.76 46.73H58.91C58.55 46.73 58.26 46.44 58.26 46.08V32.22C58.26 31.86 58.55 31.57 58.91 31.57C59.27 31.57 59.56 31.86 59.56 32.22V45.43H69.76C70.12 45.43 70.41 45.72 70.41 46.08C70.41 46.44 70.12 46.73 69.76 46.73Z" fill="#0E1721"/>
  <path d="M94.67 55.15L88.34 48.82C87.32 47.8 85.67 47.8 84.65 48.82C83.63 49.84 83.63 51.49 84.65 52.51L86.45 54.31H51.88V32.21C51.88 30.77 50.71 29.6 49.27 29.6H27.57C26.13 29.6 24.96 30.77 24.96 32.21V43.46H0.650024V48.68H27.57C29.01 48.68 30.18 47.51 30.18 46.07V34.82H46.65V56.92C46.65 58.36 47.82 59.53 49.26 59.53H86.57L84.63 61.47C83.61 62.49 83.61 64.14 84.63 65.16C85.14 65.67 85.81 65.92 86.48 65.92C87.15 65.92 87.82 65.67 88.33 65.16L94.66 58.83C95.68 57.81 95.68 56.16 94.66 55.14L94.67 55.15Z" fill="#FCCD2A"/>
  <path d="M86.49 66.59C85.62 66.59 84.8 66.25 84.18 65.63C82.91 64.36 82.91 62.29 84.18 61.01L85 60.19H49.26C47.46 60.19 46 58.73 46 56.93V35.48H30.83V46.08C30.83 47.88 29.37 49.34 27.57 49.34H0.65C0.29 49.34 0 49.05 0 48.69V43.47C0 43.11 0.29 42.82 0.65 42.82H24.31V32.22C24.31 30.42 25.77 28.96 27.57 28.96H49.27C51.07 28.96 52.53 30.42 52.53 32.22V53.67H84.87L84.18 52.98C82.91 51.71 82.91 49.64 84.18 48.36C85.45 47.09 87.52 47.09 88.8 48.36L95.13 54.69C96.4 55.96 96.4 58.03 95.13 59.31L88.8 65.64C88.18 66.26 87.36 66.6 86.49 66.6V66.59ZM30.18 34.18H46.65C47.01 34.18 47.3 34.47 47.3 34.83V56.93C47.3 58.01 48.18 58.89 49.26 58.89H86.57C86.83 58.89 87.07 59.05 87.17 59.29C87.27 59.53 87.22 59.81 87.03 60L85.09 61.94C84.33 62.7 84.33 63.95 85.09 64.71C85.46 65.08 85.95 65.28 86.47 65.28C86.99 65.28 87.48 65.08 87.85 64.71L94.18 58.38C94.94 57.62 94.94 56.37 94.18 55.61L87.85 49.28C87.09 48.52 85.84 48.52 85.08 49.28C84.32 50.04 84.32 51.29 85.08 52.05L86.88 53.85C87.07 54.04 87.12 54.32 87.02 54.56C86.92 54.8 86.68 54.96 86.42 54.96H51.85C51.49 54.96 51.2 54.67 51.2 54.31V32.21C51.2 31.13 50.32 30.25 49.24 30.25H27.54C26.46 30.25 25.58 31.13 25.58 32.21V43.46C25.58 43.82 25.29 44.11 24.93 44.11H1.31V48.03H27.58C28.66 48.03 29.54 47.15 29.54 46.07V34.82C29.54 34.46 29.83 34.17 30.19 34.17L30.18 34.18Z" fill="#0E1721"/>
  <path d="M92.05 45.89C96.0817 45.89 99.35 42.6217 99.35 38.59C99.35 34.5584 96.0817 31.29 92.05 31.29C88.0183 31.29 84.75 34.5584 84.75 38.59C84.75 42.6217 88.0183 45.89 92.05 45.89Z" fill="#3C8645"/>
  <path d="M92.05 46.55C87.67 46.55 84.1 42.98 84.1 38.6C84.1 34.22 87.67 30.65 92.05 30.65C96.43 30.65 100 34.22 100 38.6C100 42.98 96.43 46.55 92.05 46.55ZM92.05 31.95C88.39 31.95 85.41 34.93 85.41 38.59C85.41 42.25 88.39 45.23 92.05 45.23C95.71 45.23 98.69 42.25 98.69 38.59C98.69 34.93 95.71 31.95 92.05 31.95Z" fill="#0E1721"/>
  <path d="M96.33 36.33C96.08 36.07 95.66 36.07 95.41 36.33L91.33 40.34L89.31 38.32C89.05 38.07 88.64 38.07 88.39 38.32C88.14 38.58 88.14 38.99 88.39 39.24L90.87 41.72C91 41.85 91.16 41.91 91.33 41.91C91.5 41.91 91.66 41.85 91.79 41.72L96.32 37.26C96.58 37.01 96.58 36.59 96.32 36.34L96.33 36.33Z" fill="white"/>
</svg>
