<svg xmlns="http://www.w3.org/2000/svg" width="100" height="100" viewBox="0 0 100 100" fill="none">
  <path d="M50.3 0C48.76 0 47.5 1.24 47.5 2.78C47.5 4.02 48.32 5.08 49.46 5.42C49.72 5.52 50 5.56 50.3 5.56C50.58 5.56 50.86 5.52 51.12 5.42C52.24 5.08 53.08 4.04 53.08 2.78C53.08 1.24 51.82 0 50.3 0ZM51.12 3.52C50.92 3.76 50.62 3.9 50.3 3.9C49.96 3.9 49.66 3.76 49.46 3.52C49.28 3.32 49.18 3.06 49.18 2.78C49.18 2.16 49.68 1.66 50.3 1.66C50.92 1.66 51.42 2.16 51.42 2.78C51.42 3.06 51.32 3.32 51.12 3.52Z" fill="#2D557F"/>
  <path d="M44.96 55.86H36.24C35.78 55.86 35.42 56.24 35.42 56.7V71.52H37.08V57.52H44.12V71.52H45.78V56.7C45.78 56.24 45.42 55.86 44.96 55.86ZM64.42 55.86H55.62C55.16 55.86 54.8 56.24 54.8 56.7V71.52H56.46V57.52H63.6V71.52H65.26V56.7C65.26 56.24 64.88 55.86 64.42 55.86Z" fill="#4279B6"/>
  <path d="M35.18 78.28H26.46C26 78.28 25.64 78.66 25.64 79.12V92.4C25.64 92.86 26 93.24 26.46 93.24H35.18C35.64 93.24 36.02 92.86 36.02 92.4V79.12C36.02 78.66 35.64 78.28 35.18 78.28ZM34.34 91.58H27.3V79.94H34.34V91.58ZM54.6 78.28H45.84C45.38 78.28 45.02 78.66 45.02 79.12V92.4C45.02 92.86 45.38 93.24 45.84 93.24H54.6C55.06 93.24 55.44 92.86 55.44 92.4V79.12C55.44 78.66 55.06 78.28 54.6 78.28ZM53.78 91.58H46.68V79.94H53.78V91.58ZM74.08 78.28H65.28C64.82 78.28 64.44 78.66 64.44 79.12V92.4C64.44 92.86 64.82 93.24 65.28 93.24H74.08C74.54 93.24 74.9 92.86 74.9 92.4V79.12C74.9 78.66 74.54 78.28 74.08 78.28ZM73.24 91.58H66.1V79.94H73.24V91.58Z" fill="#2D557F"/>
  <path d="M65.26 56.7V71.52H63.6V57.52H56.46V71.52H54.8V56.7C54.8 56.24 55.16 55.86 55.62 55.86H64.42C64.88 55.86 65.26 56.24 65.26 56.7Z" fill="#2D557F"/>
  <path d="M45.78 56.7V71.52H44.12V57.52H37.08V71.52H35.42V56.7C35.42 56.24 35.78 55.86 36.24 55.86H44.96C45.42 55.86 45.78 56.24 45.78 56.7Z" fill="#2D557F"/>
  <path d="M81.78 91.6H81.08V79.92H81.78C83.88 79.92 85.58 78.04 85.58 75.72C85.58 73.4 83.88 71.52 81.78 71.52H75.92V57.52H76.66C78.98 57.52 80.86 55.64 80.86 53.3C80.86 50.96 79.02 49.12 76.72 49.08C77.26 48.38 77.58 47.5 77.58 46.54C77.58 44.2 75.68 42.32 73.36 42.32H72.34C71.98 32.86 65.64 24.9 57 22.14V15.24H57.42C57.88 15.24 58.26 14.86 58.26 14.4C58.26 10.42 55.28 7.04001 51.34 6.52001C51.32 6.52001 51.3 6.50001 51.28 6.50001H51.12V5.42001C50.86 5.52001 50.58 5.56001 50.3 5.56001C50 5.56001 49.72 5.52001 49.46 5.42001V6.50001H49.3L49.26 6.52001C45.3 7.04001 42.32 10.42 42.32 14.4C42.32 14.86 42.7 15.24 43.16 15.24H43.58V22.14C34.94 24.9 28.6 32.86 28.24 42.32H27.22C24.9 42.32 23 44.2 23 46.54C23 47.5 23.32 48.38 23.86 49.08C21.56 49.12 19.72 51 19.72 53.3C19.72 55.6 21.6 57.52 23.92 57.52H24.74V71.52H18.76C16.66 71.52 15 73.36 15 75.72C15 78.08 16.66 79.92 18.76 79.92H19.46V91.6H18.76C16.66 91.6 15 93.44 15 95.8C15 98.16 16.66 100 18.76 100H81.78C83.88 100 85.58 98.12 85.58 95.8C85.58 93.48 83.88 91.6 81.78 91.6ZM49.44 8.16001L50.3 8.12001L51.14 8.16001C53.98 8.56001 56.16 10.8 56.54 13.56H56.16C55.7 13.56 55.34 13.94 55.34 14.4V21.6C53.68 21.2 51.98 21 50.3 21C48.62 21 46.9 21.2 45.24 21.6V14.4C45.24 13.94 44.88 13.56 44.42 13.56H44.04C44.42 10.8 46.62 8.56001 49.44 8.16001ZM27.22 43.98H29.06C29.52 43.98 29.9 43.6 29.9 43.14C29.9 31.9 39.04 22.76 50.3 22.76C61.56 22.76 70.68 31.9 70.68 43.14C70.68 43.6 71.06 43.98 71.52 43.98H73.36C74.76 43.98 75.92 45.12 75.92 46.54C75.92 47.96 74.76 49.08 73.36 49.08H27.22C25.82 49.08 24.66 47.94 24.66 46.54C24.66 45.14 25.82 43.98 27.22 43.98ZM25.58 55.86H23.92C22.52 55.86 21.38 54.72 21.38 53.3C21.38 51.88 22.52 50.76 23.92 50.76H76.66C78.06 50.76 79.2 51.9 79.2 53.3C79.2 54.7 78.06 55.86 76.66 55.86H75.1C74.64 55.86 74.26 56.24 74.26 56.7V71.52H26.4V56.7C26.4 56.24 26.04 55.86 25.58 55.86ZM81.78 98.34H18.76C17.6 98.34 16.66 97.22 16.66 95.8C16.66 94.38 17.6 93.26 18.76 93.26H20.3C20.76 93.26 21.14 92.88 21.14 92.42V79.1C21.14 78.64 20.76 78.26 20.3 78.26H18.76C17.6 78.26 16.66 77.14 16.66 75.72C16.66 74.3 17.6 73.18 18.76 73.18H81.78C82.96 73.18 83.92 74.32 83.92 75.72C83.92 77.12 82.96 78.26 81.78 78.26H80.24C79.78 78.26 79.42 78.64 79.42 79.1V92.42C79.42 92.88 79.78 93.26 80.24 93.26H81.78C82.96 93.26 83.92 94.4 83.92 95.8C83.92 97.2 82.96 98.34 81.78 98.34Z" fill="#4279B6"/>
</svg>
