<svg xmlns="http://www.w3.org/2000/svg" width="100" height="100" viewBox="0 0 100 100" fill="none">
  <path d="M49.52 7L48.58 7.06C45.06 7.52 42.34 10.52 42.34 14.17H43.6V22.49C45.48 21.95 47.46 21.65 49.52 21.65C51.58 21.65 53.56 21.95 55.44 22.49V14.17H56.7C56.7 10.53 53.98 7.52 50.46 7.06L49.53 7H49.52Z" fill="#4279B6"/>
  <path d="M55.42 23.32C55.34 23.32 55.26 23.31 55.19 23.29C51.48 22.22 47.53 22.22 43.82 23.29C43.57 23.36 43.29 23.31 43.08 23.15C42.87 22.99 42.75 22.74 42.75 22.48V15H42.33C41.87 15 41.49 14.63 41.49 14.16C41.49 10.15 44.48 6.74 48.46 6.22C48.48 6.22 48.5 6.22 48.52 6.22L49.46 6.16C49.46 6.16 49.53 6.16 49.56 6.16L50.49 6.22C50.49 6.22 50.53 6.22 50.55 6.22C54.52 6.74 57.52 10.15 57.52 14.16C57.52 14.62 57.14 15 56.68 15H56.26V22.48C56.26 22.74 56.14 22.99 55.93 23.15C55.78 23.26 55.61 23.32 55.43 23.32H55.42ZM49.51 20.81C51.22 20.81 52.92 21.01 54.59 21.4V14.16C54.59 13.7 54.97 13.32 55.43 13.32H55.8C55.43 10.54 53.22 8.27 50.38 7.88L49.53 7.83L48.67 7.88C45.82 8.27 43.62 10.53 43.25 13.32H43.62C44.08 13.32 44.46 13.69 44.46 14.16V21.4C46.13 21.01 47.83 20.81 49.54 20.81H49.51Z" fill="#0E1721"/>
  <path d="M49.51 7.84C49.05 7.84 48.67 7.47 48.67 7V2.47C48.67 2.01 49.05 1.63 49.51 1.63C49.97 1.63 50.35 2 50.35 2.47V7C50.35 7.46 49.97 7.84 49.51 7.84Z" fill="#0E1721"/>
  <path d="M49.51 4.42998C50.5925 4.42998 51.47 3.55246 51.47 2.46998C51.47 1.3875 50.5925 0.509979 49.51 0.509979C48.4275 0.509979 47.55 1.3875 47.55 2.46998C47.55 3.55246 48.4275 4.42998 49.51 4.42998Z" fill="#FC8B27"/>
  <path d="M49.51 4.92999C48.15 4.92999 47.04 3.81999 47.04 2.45999C47.04 1.09999 48.15 -0.0100098 49.51 -0.0100098C50.87 -0.0100098 51.98 1.09999 51.98 2.45999C51.98 3.81999 50.87 4.92999 49.51 4.92999ZM49.51 1.00999C48.7 1.00999 48.05 1.66999 48.05 2.46999C48.05 3.26999 48.71 3.92999 49.51 3.92999C50.31 3.92999 50.97 3.26999 50.97 2.46999C50.97 1.66999 50.31 1.00999 49.51 1.00999Z" fill="#0E1721"/>
  <path d="M26.3 49.61H72.73C74.61 49.61 76.14 48.08 76.14 46.2C76.14 44.32 74.61 42.79 72.73 42.79H70.88C70.88 30.99 61.32 21.43 49.52 21.43C37.72 21.43 28.16 30.99 28.16 42.79H26.31C24.43 42.79 22.9 44.32 22.9 46.2C22.9 48.08 24.43 49.61 26.31 49.61H26.3Z" fill="#4279B6"/>
  <path d="M72.72 50.44H26.3C23.96 50.44 22.06 48.54 22.06 46.2C22.06 43.86 23.96 41.96 26.3 41.96H27.33C27.77 30.11 37.55 20.6 49.51 20.6C61.47 20.6 71.25 30.11 71.69 41.96H72.72C75.06 41.96 76.96 43.86 76.96 46.2C76.96 48.54 75.06 50.44 72.72 50.44ZM26.3 43.63C24.88 43.63 23.73 44.78 23.73 46.2C23.73 47.62 24.88 48.77 26.3 48.77H72.73C74.15 48.77 75.3 47.62 75.3 46.2C75.3 44.78 74.15 43.63 72.73 43.63H70.88C70.42 43.63 70.04 43.26 70.04 42.79C70.04 31.47 60.83 22.27 49.52 22.27C38.21 22.27 29 31.48 29 42.79C29 43.25 28.62 43.63 28.16 43.63H26.31H26.3Z" fill="#0E1721"/>
  <path d="M22.98 56.42H24.64V72.18H35.38V56.42H44.15V72.18H54.89V56.42H63.75V72.18H74.49V56.42H76.06C77.94 56.42 79.47 54.89 79.47 53.01C79.47 51.13 77.94 49.6 76.06 49.6H22.98C21.1 49.6 19.57 51.13 19.57 53.01C19.57 54.89 21.1 56.42 22.98 56.42Z" fill="#4279B6"/>
  <path d="M74.47 73.02H63.73C63.27 73.02 62.89 72.65 62.89 72.18V57.26H55.71V72.18C55.71 72.64 55.33 73.02 54.87 73.02H44.13C43.67 73.02 43.29 72.65 43.29 72.18V57.26H36.2V72.18C36.2 72.64 35.82 73.02 35.36 73.02H24.62C24.16 73.02 23.78 72.65 23.78 72.18V57.26H22.96C20.62 57.26 18.72 55.36 18.72 53.02C18.72 50.68 20.62 48.78 22.96 48.78H76.02C78.36 48.78 80.26 50.68 80.26 53.02C80.26 55.36 78.36 57.26 76.02 57.26H75.29V72.18C75.29 72.64 74.91 73.02 74.45 73.02H74.47ZM64.57 71.35H73.63V56.43C73.63 55.97 74.01 55.59 74.47 55.59H76.04C77.46 55.59 78.61 54.44 78.61 53.02C78.61 51.6 77.46 50.45 76.04 50.45H22.98C21.56 50.45 20.41 51.6 20.41 53.02C20.41 54.44 21.56 55.59 22.98 55.59H24.64C25.1 55.59 25.48 55.96 25.48 56.43V71.35H34.54V56.43C34.54 55.97 34.92 55.59 35.38 55.59H44.15C44.61 55.59 44.99 55.96 44.99 56.43V71.35H54.05V56.43C54.05 55.97 54.43 55.59 54.89 55.59H63.75C64.21 55.59 64.59 55.96 64.59 56.43V71.35H64.57Z" fill="#0E1721"/>
  <path d="M84.18 95.77C84.18 97.66 82.84 99.16 81.2 99.16H17.79C16.14 99.16 14.84 97.66 14.84 95.77C14.84 93.88 16.14 92.38 17.79 92.38H19.33V78.97H17.79C16.14 78.97 14.84 77.47 14.84 75.58C14.84 73.69 16.14 72.19 17.79 72.19H81.2C82.85 72.19 84.18 73.69 84.18 75.58C84.18 77.47 82.84 78.97 81.2 78.97H79.66V92.38H81.2C82.85 92.38 84.18 93.88 84.18 95.77Z" fill="#4279B6"/>
  <path d="M81.2 100H17.79C15.67 100 14 98.14 14 95.77C14 93.4 15.66 91.54 17.79 91.54H18.5V79.8H17.79C15.67 79.8 14 77.94 14 75.57C14 73.2 15.66 71.34 17.79 71.34H81.2C83.31 71.34 85.02 73.24 85.02 75.57C85.02 77.9 83.31 79.8 81.2 79.8H80.49V91.54H81.2C83.31 91.54 85.02 93.44 85.02 95.77C85.02 98.1 83.31 100 81.2 100ZM17.79 93.22C16.61 93.22 15.68 94.34 15.68 95.77C15.68 97.2 16.61 98.32 17.79 98.32H81.2C82.38 98.32 83.35 97.17 83.35 95.77C83.35 94.37 82.39 93.22 81.2 93.22H79.66C79.2 93.22 78.82 92.85 78.82 92.38V78.97C78.82 78.51 79.2 78.13 79.66 78.13H81.2C82.38 78.13 83.35 76.98 83.35 75.58C83.35 74.18 82.39 73.03 81.2 73.03H17.79C16.61 73.03 15.68 74.15 15.68 75.58C15.68 77.01 16.61 78.13 17.79 78.13H19.33C19.79 78.13 20.17 78.5 20.17 78.97V92.38C20.17 92.84 19.79 93.22 19.33 93.22H17.79Z" fill="#0E1721"/>
  <path d="M25.54 92.36V78.99H34.31V92.36H25.54ZM45.04 92.36V78.99H53.85V92.36H45.04ZM64.59 92.36V78.99H73.45V92.36H64.59ZM25.54 92.36V78.99H34.31V92.36H25.54ZM45.04 92.36V78.99H53.85V92.36H45.04ZM64.59 92.36V78.99H73.45V92.36H64.59Z" fill="white"/>
  <path d="M73.44 93.2H64.58C64.12 93.2 63.74 92.83 63.74 92.36V78.99C63.74 78.53 64.12 78.15 64.58 78.15H73.44C73.9 78.15 74.28 78.52 74.28 78.99V92.36C74.28 92.82 73.9 93.2 73.44 93.2ZM65.42 91.52H72.6V79.82H65.42V91.52ZM53.85 93.2H45.04C44.58 93.2 44.2 92.83 44.2 92.36V78.99C44.2 78.53 44.58 78.15 45.04 78.15H53.85C54.31 78.15 54.69 78.52 54.69 78.99V92.36C54.69 92.82 54.31 93.2 53.85 93.2ZM45.88 91.52H53.02V79.82H45.88V91.52ZM34.3 93.2H25.53C25.07 93.2 24.69 92.83 24.69 92.36V78.99C24.69 78.53 25.07 78.15 25.53 78.15H34.3C34.76 78.15 35.14 78.52 35.14 78.99V92.36C35.14 92.82 34.76 93.2 34.3 93.2ZM26.37 91.52H33.46V79.82H26.37V91.52Z" fill="#0E1721"/>
  <path d="M63.74 56.42H54.88V72.18H63.74V56.42Z" fill="white"/>
  <path d="M63.73 73.02H54.87C54.41 73.02 54.03 72.65 54.03 72.18V56.42C54.03 55.96 54.41 55.58 54.87 55.58H63.73C64.19 55.58 64.57 55.95 64.57 56.42V72.18C64.57 72.64 64.19 73.02 63.73 73.02ZM55.71 71.35H62.89V57.26H55.71V71.35Z" fill="#0E1721"/>
  <path d="M44.14 56.42H35.37V72.18H44.14V56.42Z" fill="white"/>
  <path d="M44.14 73.02H35.37C34.91 73.02 34.53 72.65 34.53 72.18V56.42C34.53 55.96 34.91 55.58 35.37 55.58H44.14C44.6 55.58 44.98 55.95 44.98 56.42V72.18C44.98 72.64 44.6 73.02 44.14 73.02ZM36.21 71.35H43.3V57.26H36.21V71.35Z" fill="#0E1721"/>
</svg>
