<svg xmlns="http://www.w3.org/2000/svg" width="100" height="100" viewBox="0 0 100 100" fill="none">
  <path d="M60.6001 38.53C60.2901 38.25 60.1401 37.91 60.1401 37.5V35.74C60.5001 33.6 61.3001 31.68 62.5501 30C63.8001 28.32 65.5201 26.4 67.7201 24.26C69.3501 22.63 70.5801 21.29 71.3901 20.24C72.2101 19.19 72.6401 18.13 72.6901 17.06C72.8401 15.48 72.3201 14.22 71.1201 13.27C69.9201 12.33 68.4801 11.85 66.7901 11.85C62.8101 11.85 60.3601 13.76 59.4401 17.59C59.0301 18.81 58.2401 19.43 57.0701 19.43H47.7301C47.1701 19.43 46.7201 19.24 46.3901 18.86C46.0601 18.48 45.8901 17.98 45.8901 17.37C45.9901 14.56 46.8901 11.9 48.5701 9.36997C50.2501 6.83997 52.7301 4.78997 56.0001 3.20997C59.2701 1.62997 63.1701 0.839966 67.7101 0.839966C72.2501 0.839966 76.1301 1.56997 79.0401 3.01997C81.9501 4.46997 84.0301 6.25997 85.2801 8.37997C86.5301 10.5 87.1601 12.65 87.1601 14.85C87.1601 17.35 86.5901 19.55 85.4401 21.43C84.2901 23.32 82.5901 25.49 80.3501 27.94C78.9701 29.42 77.8901 30.67 77.1001 31.69C76.3101 32.71 75.7101 33.78 75.3001 34.91C75.1501 35.37 74.9701 36.06 74.7601 36.98C74.3501 37.7 73.9901 38.2 73.6901 38.51C73.3801 38.82 72.9501 38.97 72.3901 38.97H61.6701C61.2601 38.97 60.9001 38.83 60.6001 38.55V38.53ZM60.4501 54.64C60.0901 54.28 59.9101 53.82 59.9101 53.26V44.53C59.9101 43.97 60.0901 43.51 60.4501 43.15C60.8101 42.79 61.2701 42.61 61.8301 42.61H71.6301C72.1901 42.61 72.6601 42.79 73.0501 43.15C73.4301 43.51 73.6201 43.97 73.6201 44.53V53.26C73.6201 53.82 73.4301 54.28 73.0501 54.64C72.6701 55 72.1901 55.18 71.6301 55.18H61.8301C61.2701 55.18 60.8101 55 60.4501 54.64Z" fill="#FC8B27"/>
  <path d="M71.6201 56.01H61.8201C61.0301 56.01 60.3701 55.75 59.8501 55.23C59.3301 54.71 59.0701 54.05 59.0701 53.26V44.53C59.0701 43.74 59.3301 43.08 59.8501 42.56C60.3701 42.04 61.0301 41.78 61.8201 41.78H71.6201C72.4001 41.78 73.0601 42.04 73.6001 42.54C74.1501 43.05 74.4401 43.74 74.4401 44.53V53.26C74.4401 54.05 74.1501 54.74 73.6001 55.25C73.0601 55.75 72.3901 56.01 71.6201 56.01ZM61.8301 43.46C61.4901 43.46 61.2401 43.55 61.0401 43.75C60.8401 43.95 60.7501 44.2 60.7501 44.54V53.27C60.7501 53.72 60.9201 53.93 61.0401 54.06C61.1601 54.19 61.3801 54.35 61.8301 54.35H71.6301C71.9801 54.35 72.2501 54.25 72.4801 54.04C72.6901 53.84 72.7901 53.6 72.7901 53.27V44.54C72.7901 44.21 72.6901 43.97 72.4801 43.77C72.2501 43.56 71.9801 43.46 71.6301 43.46H61.8301ZM72.3901 39.78H61.6701C61.0501 39.78 60.5001 39.56 60.0401 39.14C59.5601 38.7 59.3101 38.13 59.3101 37.49V35.73C59.3101 35.73 59.3101 35.64 59.3201 35.59C59.7001 33.32 60.5601 31.27 61.8801 29.49C63.1501 27.78 64.9201 25.81 67.1301 23.65C68.7201 22.06 69.9401 20.73 70.7301 19.71C71.4301 18.81 71.8101 17.9 71.8601 17.01C71.8601 17 71.8601 16.98 71.8601 16.97C71.9901 15.68 71.5701 14.68 70.6001 13.91C69.5401 13.08 68.2901 12.67 66.7901 12.67C63.2101 12.67 61.0701 14.34 60.2501 17.77C60.2501 17.79 60.2401 17.82 60.2301 17.84C59.5701 19.83 58.1401 20.25 57.0701 20.25H47.7301C46.9301 20.25 46.2501 19.95 45.7601 19.39C45.3001 18.86 45.0601 18.17 45.0601 17.35C45.1701 14.37 46.1201 11.53 47.8801 8.88998C49.6401 6.24998 52.2501 4.07998 55.6301 2.43998C59.0001 0.809981 63.0601 -0.0200195 67.7001 -0.0200195C72.3401 -0.0200195 76.3901 0.73998 79.4001 2.24998C82.4401 3.76998 84.6501 5.67998 85.9801 7.92998C87.3001 10.17 87.9701 12.49 87.9701 14.82C87.9701 17.46 87.3501 19.82 86.1301 21.84C84.9601 23.76 83.2201 26 80.9401 28.48C79.5801 29.94 78.5001 31.19 77.7301 32.18C77.0001 33.13 76.4301 34.13 76.0601 35.17C75.9201 35.58 75.7501 36.25 75.5501 37.13C75.5301 37.21 75.5001 37.29 75.4601 37.36C75.0101 38.15 74.6201 38.71 74.2501 39.07C73.7801 39.54 73.1501 39.77 72.3601 39.77L72.3901 39.78ZM60.9701 35.81V37.5C60.9701 37.68 61.0201 37.8 61.1601 37.92C61.3101 38.06 61.4701 38.12 61.6701 38.12H72.3901C72.8901 38.12 73.0501 37.96 73.1001 37.9C73.2601 37.74 73.5501 37.39 73.9801 36.65C74.1801 35.77 74.3501 35.09 74.5101 34.63C74.9501 33.41 75.6001 32.25 76.4401 31.17C77.2401 30.14 78.3501 28.86 79.7401 27.36C81.9401 24.96 83.6201 22.82 84.7301 20.99C85.7901 19.24 86.3301 17.17 86.3301 14.84C86.3301 12.81 85.7401 10.77 84.5701 8.78998C83.4101 6.81998 81.4201 5.12998 78.6801 3.74998C75.9001 2.35998 72.2101 1.65998 67.7201 1.65998C63.2301 1.65998 59.5101 2.42998 56.3701 3.94998C53.2501 5.45998 50.8701 7.43998 49.2701 9.81998C47.6801 12.2 46.8301 14.75 46.7301 17.39C46.7301 17.77 46.8301 18.08 47.0201 18.31C47.1401 18.44 47.3201 18.6 47.7301 18.6H57.0701C57.8701 18.6 58.3501 18.23 58.6401 17.36C59.6501 13.21 62.4701 11.02 66.7901 11.02C68.6601 11.02 70.2801 11.56 71.6301 12.61C73.0601 13.73 73.6901 15.25 73.5101 17.11C73.4501 18.34 72.9501 19.57 72.0301 20.74C71.2001 21.81 69.9401 23.19 68.2901 24.84C66.1301 26.95 64.4201 28.85 63.2001 30.49C62.0501 32.04 61.2901 33.83 60.9501 35.81H60.9701Z" fill="#0E1721"/>
  <path d="M30.8601 74.2C27.3601 70.7 11.6801 55 6.75006 36.29C4.49006 27.71 6.49006 21.82 12.1401 16.17C16.3001 12.01 19.4601 10.11 21.1601 11.11C25.9401 13.92 30.9201 20.74 32.5601 26.25C32.8701 27.28 32.5601 28.39 31.8001 29.14C24.4901 36.45 29.5601 48.46 43.0801 61.98L43.0201 61.92C56.5401 75.44 68.5501 80.51 75.8601 73.2C76.6201 72.44 77.7301 72.14 78.7501 72.44C84.2501 74.08 91.0701 79.06 93.8901 83.84C94.8901 85.54 93.0001 88.69 88.8301 92.86C83.1801 98.51 77.2901 100.51 68.7101 98.25C50.0001 93.32 34.5701 77.91 30.8601 74.2Z" fill="#4279B6"/>
  <path d="M75.16 100C73.08 100 70.88 99.68 68.5 99.05C59.85 96.77 46.2 90.71 30.28 74.79C17.63 62.14 9.21 48.9 5.95 36.5C3.71 28.01 5.38 21.75 11.55 15.58C16.25 10.88 19.53 9.18003 21.58 10.39C26.42 13.24 31.6 20.1 33.36 26C33.75 27.31 33.38 28.73 32.39 29.72C29.08 33.03 28.42 37.47 30.41 42.94C32.38 48.36 36.84 54.56 43.67 61.38C51.7 69.4 66.43 81.44 75.27 72.6C76.26 71.61 77.68 71.24 78.99 71.63C84.89 73.39 91.75 78.56 94.6 83.41C95.81 85.46 94.11 88.74 89.41 93.44C84.97 97.88 80.48 99.99 75.15 99.99L75.16 100ZM20.11 11.68C18.65 11.68 15.99 13.5 12.72 16.76C6.96 22.53 5.46 28.13 7.56 36.08C10.71 48.02 19.19 61.35 31.45 73.61C47.11 89.27 60.47 95.22 68.92 97.44C76.87 99.54 82.47 98.04 88.24 92.27C92.04 88.47 93.88 85.48 93.17 84.26C90.55 79.81 83.97 74.86 78.51 73.23C77.79 73.02 76.99 73.23 76.44 73.78C74.04 76.18 71.14 77.36 67.81 77.36C60.95 77.36 52.26 72.33 42.43 62.5C35.47 55.53 30.9 49.14 28.85 43.51C26.62 37.38 27.41 32.35 31.22 28.54C31.77 27.99 31.98 27.19 31.77 26.47C30.14 21.01 25.2 14.44 20.74 11.81C20.57 11.71 20.36 11.66 20.12 11.66L20.11 11.68Z" fill="#0E1721"/>
</svg>
