<svg xmlns="http://www.w3.org/2000/svg" width="100" height="100" viewBox="0 0 100 100" fill="none">
  <path d="M43.7104 68.7946L28.6608 83.797L29.8469 84.9868L44.8965 69.9844L43.7104 68.7946Z" fill="#2D557F"/>
  <path d="M55.9539 69.1097L54.7949 70.3259L70.1857 84.9926L71.3447 83.7763L55.9539 69.1097Z" fill="#2D557F"/>
  <path d="M50.84 41.24H49.16V56.81H50.84V41.24Z" fill="#2D557F"/>
  <path d="M49.99 72.64C47.79 72.64 45.71 71.79 44.15 70.25C44.14 70.25 44.13 70.23 44.12 70.22C44.06 70.16 44 70.1 43.95 70.04L43.91 69.99C43.91 69.99 43.87 69.94 43.85 69.91C43.83 69.89 43.81 69.87 43.8 69.86C42.43 68.33 41.68 66.36 41.68 64.3C41.68 62.07 42.55 59.98 44.12 58.41C45.69 56.84 47.79 55.97 50.01 55.97C52.23 55.97 54.33 56.83 55.91 58.4C57.48 59.98 58.35 62.07 58.35 64.3C58.35 66.53 57.48 68.61 55.91 70.19C54.34 71.77 52.25 72.63 50.01 72.63L49.99 72.64ZM45.24 68.96C45.24 68.96 45.28 68.99 45.29 69.01C46.55 70.27 48.22 70.96 49.99 70.96C51.76 70.96 53.44 70.27 54.7 69.01C55.96 67.74 56.65 66.07 56.65 64.3C56.65 62.53 55.96 60.85 54.7 59.59C53.44 58.34 51.77 57.65 50 57.65C48.23 57.65 46.55 58.34 45.29 59.6C44.03 60.86 43.34 62.53 43.34 64.31C43.34 65.94 43.93 67.5 45 68.71C45 68.71 45.01 68.72 45.02 68.73C45.07 68.78 45.11 68.83 45.15 68.88L45.17 68.9C45.17 68.9 45.22 68.95 45.24 68.98V68.96Z" fill="#2D557F"/>
  <path d="M99.16 95.87H65.91C65.68 95.87 65.46 95.77 65.3 95.6C65.14 95.43 65.06 95.2 65.08 94.97C65.36 90.75 67.17 86.78 70.17 83.79C73.47 80.49 77.86 78.66 82.54 78.66C87.23 78.66 91.62 80.48 94.93 83.79C97.93 86.78 99.73 90.75 100.01 94.97C100.03 95.2 99.94 95.43 99.79 95.6C99.63 95.77 99.41 95.87 99.18 95.87H99.16ZM66.83 94.19H98.24C97.81 90.72 96.22 87.47 93.73 84.98C90.74 81.99 86.77 80.34 82.54 80.34C78.3 80.34 74.33 81.99 71.35 84.98C68.85 87.47 67.27 90.71 66.84 94.19H66.83Z" fill="#4279B6"/>
  <path d="M82.54 80.07C79.69 80.07 77.02 78.96 75 76.95C72.99 74.95 71.89 72.27 71.89 69.42C71.89 66.57 73 63.9 75 61.9C77.02 59.89 79.69 58.79 82.53 58.79C85.37 58.79 88.04 59.9 90.05 61.9C92.06 63.91 93.17 66.59 93.17 69.42C93.17 72.25 92.07 74.93 90.06 76.95C90.03 76.98 90 77 89.97 77.03C87.97 78.99 85.33 80.07 82.53 80.07H82.54ZM82.53 60.47C80.14 60.47 77.89 61.4 76.19 63.09C74.5 64.78 73.57 67.03 73.57 69.43C73.57 71.83 74.5 74.08 76.19 75.77C77.89 77.46 80.14 78.4 82.53 78.4C84.92 78.4 87.17 77.47 88.87 75.77C88.89 75.75 88.92 75.72 88.95 75.7C90.59 74.01 91.5 71.79 91.5 69.43C91.5 67.07 90.57 64.79 88.87 63.09C87.18 61.4 84.93 60.47 82.53 60.47Z" fill="#4279B6"/>
  <path d="M34.09 95.87H0.839978C0.609978 95.87 0.389978 95.77 0.229978 95.6C0.0699783 95.43 -0.0100217 95.2 0.00997831 94.97C0.299978 90.75 2.09998 86.78 5.08998 83.79C8.38998 80.49 12.78 78.66 17.46 78.66C22.15 78.66 26.54 80.48 29.85 83.79C32.84 86.78 34.65 90.75 34.94 94.97C34.96 95.2 34.87 95.43 34.72 95.6C34.57 95.77 34.34 95.87 34.11 95.87H34.09ZM1.75998 94.19H33.17C32.73 90.72 31.15 87.48 28.66 84.98C25.67 81.99 21.7 80.34 17.47 80.34C13.24 80.34 9.26998 82 6.27998 84.98C3.78998 87.47 2.20998 90.71 1.76998 94.19H1.75998Z" fill="#4279B6"/>
  <path d="M17.46 80.07C14.61 80.07 11.94 78.96 9.93 76.95C7.92 74.94 6.81 72.27 6.81 69.42C6.81 66.57 7.92 63.91 9.93 61.9C11.94 59.89 14.61 58.79 17.45 58.79C20.29 58.79 22.96 59.9 24.97 61.9C26.98 63.91 28.09 66.58 28.09 69.42C28.09 72.26 26.98 74.94 24.97 76.95C24.95 76.97 24.93 76.99 24.9 77.01C22.9 78.98 20.26 80.06 17.45 80.06L17.46 80.07ZM17.45 60.47C15.06 60.47 12.81 61.4 11.12 63.09C9.42 64.79 8.49 67.04 8.49 69.43C8.49 71.82 9.42 74.08 11.12 75.77C12.81 77.46 15.06 78.4 17.45 78.4C19.84 78.4 22.1 77.47 23.79 75.78C23.81 75.76 23.83 75.74 23.85 75.72C25.51 74.03 26.42 71.81 26.42 69.44C26.42 67.07 25.49 64.79 23.79 63.1C22.1 61.41 19.84 60.48 17.45 60.48V60.47Z" fill="#4279B6"/>
  <path d="M66.62 42.08H33.36C33.13 42.08 32.91 41.98 32.75 41.81C32.59 41.64 32.51 41.41 32.53 41.18C32.82 36.97 34.63 33 37.62 30C40.93 26.69 45.32 24.87 49.99 24.87C54.66 24.87 59.06 26.69 62.37 30C65.37 33 67.17 36.97 67.46 41.18C67.48 41.41 67.39 41.64 67.24 41.81C67.08 41.98 66.86 42.08 66.63 42.08H66.62ZM34.29 40.4H65.7C65.27 36.93 63.68 33.68 61.19 31.19C58.19 28.2 54.22 26.55 50 26.55C45.78 26.55 41.8 28.2 38.81 31.19C36.32 33.69 34.73 36.93 34.29 40.4Z" fill="#4279B6"/>
  <path d="M49.99 26.28C47.15 26.28 44.48 25.17 42.46 23.17C40.45 21.16 39.34 18.49 39.34 15.64C39.34 12.79 40.45 10.12 42.46 8.11C44.48 6.1 47.15 5 49.98 5C52.81 5 55.49 6.11 57.51 8.11C59.52 10.13 60.62 12.8 60.62 15.64C60.62 17.07 60.34 18.46 59.79 19.78C59.25 21.05 58.49 22.19 57.51 23.16C55.49 25.17 52.82 26.27 49.99 26.27V26.28ZM49.99 6.68C47.6 6.68 45.35 7.61 43.65 9.3C41.96 10.99 41.03 13.24 41.03 15.64C41.03 18.04 41.96 20.29 43.66 21.98C45.36 23.67 47.61 24.6 50 24.6C52.39 24.6 54.64 23.67 56.34 21.98C57.16 21.16 57.81 20.2 58.26 19.13C58.73 18.02 58.96 16.85 58.96 15.64C58.96 13.25 58.03 10.99 56.34 9.3C54.64 7.61 52.39 6.68 50 6.68H49.99Z" fill="#4279B6"/>
</svg>
