<svg xmlns="http://www.w3.org/2000/svg" width="100" height="100" viewBox="0 0 100 100" fill="none">
  <path d="M24.34 90.41C24.13 90.41 23.91 90.33 23.75 90.17C23.42 89.84 23.42 89.31 23.75 88.98L43.7 68.75C44.02 68.42 44.56 68.42 44.89 68.75C45.22 69.08 45.22 69.61 44.89 69.94L24.94 90.17C24.78 90.34 24.56 90.42 24.34 90.42V90.41Z" fill="#0E1721"/>
  <path d="M75.13 90.44C74.91 90.44 74.7 90.36 74.53 90.19L54.77 70.27C54.44 69.94 54.45 69.41 54.77 69.08C55.1 68.75 55.63 68.76 55.96 69.08L75.72 89C76.05 89.33 76.04 89.86 75.72 90.19C75.56 90.35 75.34 90.43 75.13 90.43V90.44Z" fill="#0E1721"/>
  <path d="M50 56.85C49.54 56.85 49.16 56.47 49.16 56.01V33.43C49.16 32.97 49.54 32.59 50 32.59C50.46 32.59 50.84 32.97 50.84 33.43V56.01C50.84 56.47 50.46 56.85 50 56.85Z" fill="#0E1721"/>
  <path fill-rule="evenodd" clip-rule="evenodd" d="M57.4901 64.26C57.4901 66.33 56.6401 68.2 55.2901 69.56C53.9401 70.92 52.0601 71.75 49.9901 71.75C47.9201 71.75 46.05 70.91 44.69 69.56C44.62 69.5 44.56 69.43 44.5 69.37C44.47 69.33 44.45 69.3 44.41 69.27H44.4001C43.2201 67.94 42.4901 66.19 42.4901 64.26C42.4901 62.19 43.33 60.31 44.69 58.96C46.05 57.61 47.9201 56.77 49.9901 56.77C52.0601 56.77 53.9301 57.61 55.2901 58.96C56.6501 60.32 57.48 62.19 57.48 64.26H57.4901Z" fill="#FCCD2A"/>
  <path d="M49.99 72.56C47.8 72.56 45.73 71.71 44.17 70.18C44.16 70.18 44.15 70.16 44.14 70.15C44.08 70.09 44.02 70.03 43.97 69.97L43.93 69.92C43.93 69.92 43.89 69.87 43.87 69.85C43.85 69.83 43.83 69.81 43.82 69.8C42.46 68.28 41.71 66.32 41.71 64.27C41.71 62.05 42.57 59.97 44.14 58.4C45.71 56.84 47.79 55.98 50 55.98C52.21 55.98 54.3 56.84 55.87 58.4C57.44 59.97 58.3 62.06 58.3 64.27C58.3 66.48 57.44 68.56 55.87 70.14C54.31 71.71 52.22 72.57 50 72.57L49.99 72.56ZM45.21 68.95C45.21 68.95 45.24 68.98 45.26 69C46.52 70.26 48.2 70.96 49.99 70.96C51.78 70.96 53.46 70.26 54.72 69C55.99 67.72 56.68 66.04 56.68 64.26C56.68 62.48 55.98 60.79 54.72 59.52C53.46 58.26 51.77 57.57 49.99 57.57C48.21 57.57 46.52 58.27 45.25 59.53C43.98 60.79 43.29 62.47 43.29 64.26C43.29 65.9 43.88 67.47 44.96 68.69C44.96 68.69 44.97 68.7 44.98 68.71C45.03 68.76 45.07 68.81 45.11 68.86L45.13 68.88C45.13 68.88 45.18 68.93 45.2 68.96L45.21 68.95Z" fill="#0E1721"/>
  <path fill-rule="evenodd" clip-rule="evenodd" d="M99.16 94.99H65.91C66.19 90.84 67.99 87.11 70.75 84.35C73.76 81.33 77.92 79.47 82.53 79.46C87.13 79.46 91.3 81.33 94.31 84.35C97.07 87.11 98.87 90.84 99.15 94.99H99.16Z" fill="#FC8B27"/>
  <path d="M99.16 95.83H65.91C65.68 95.83 65.46 95.73 65.3 95.56C65.14 95.39 65.06 95.16 65.08 94.93C65.36 90.71 67.17 86.74 70.17 83.75C73.47 80.45 77.86 78.62 82.54 78.62C87.23 78.62 91.62 80.44 94.93 83.75C97.93 86.74 99.73 90.71 100.01 94.93C100.03 95.16 99.94 95.39 99.79 95.56C99.63 95.73 99.41 95.83 99.18 95.83H99.16ZM66.83 94.15H98.24C97.81 90.68 96.22 87.43 93.73 84.94C90.74 81.95 86.77 80.3 82.54 80.3C78.3 80.3 74.33 81.95 71.35 84.94C68.85 87.43 67.27 90.67 66.84 94.15H66.83Z" fill="#0E1721"/>
  <path fill-rule="evenodd" clip-rule="evenodd" d="M92.33 69.39C92.33 72.1 91.23 74.55 89.47 76.33C87.7 78.1 85.25 79.2 82.55 79.2C79.84 79.2 77.39 78.1 75.62 76.33C73.85 74.56 72.75 72.1 72.75 69.4C72.75 66.7 73.84 64.24 75.62 62.47C77.39 60.7 79.84 59.6 82.55 59.6C85.26 59.6 87.71 60.7 89.48 62.47C91.25 64.24 92.35 66.7 92.35 69.4L92.33 69.39Z" fill="#FC8B27"/>
  <path d="M82.54 80.03C79.69 80.03 77.02 78.92 75 76.91C72.99 74.91 71.89 72.23 71.89 69.38C71.89 66.53 73 63.86 75 61.86C77.02 59.85 79.69 58.75 82.53 58.75C85.37 58.75 88.04 59.86 90.05 61.86C92.06 63.87 93.17 66.55 93.17 69.38C93.17 72.21 92.07 74.89 90.06 76.91C90.03 76.94 90 76.96 89.97 76.99C87.97 78.95 85.33 80.03 82.53 80.03H82.54ZM82.53 60.43C80.14 60.43 77.89 61.36 76.19 63.05C74.5 64.74 73.57 66.99 73.57 69.39C73.57 71.79 74.5 74.04 76.19 75.73C77.89 77.42 80.14 78.36 82.53 78.36C84.92 78.36 87.17 77.43 88.87 75.73C88.89 75.71 88.92 75.68 88.95 75.66C90.59 73.97 91.5 71.75 91.5 69.39C91.5 67.03 90.57 64.75 88.87 63.05C87.18 61.36 84.93 60.43 82.53 60.43Z" fill="#0E1721"/>
  <path fill-rule="evenodd" clip-rule="evenodd" d="M34.09 94.99H0.839966C1.11997 90.84 2.91997 87.11 5.67997 84.35C8.69997 81.33 12.86 79.47 17.45 79.46H17.46C22.06 79.46 26.23 81.33 29.25 84.35C32.01 87.11 33.81 90.84 34.09 94.99Z" fill="#3C8645"/>
  <path d="M34.09 95.83H0.839978C0.609978 95.83 0.389978 95.73 0.229978 95.56C0.0699783 95.39 -0.0100217 95.16 0.00997831 94.93C0.299978 90.71 2.09998 86.74 5.08998 83.75C8.38998 80.45 12.78 78.62 17.46 78.62C22.15 78.62 26.54 80.44 29.85 83.75C32.84 86.74 34.65 90.71 34.94 94.93C34.96 95.16 34.87 95.39 34.72 95.56C34.57 95.73 34.34 95.83 34.11 95.83H34.09ZM1.75998 94.15H33.17C32.73 90.68 31.15 87.44 28.66 84.94C25.67 81.95 21.7 80.3 17.47 80.3C13.24 80.3 9.26998 81.96 6.27998 84.94C3.78998 87.43 2.20998 90.67 1.76998 94.15H1.75998Z" fill="#0E1721"/>
  <path fill-rule="evenodd" clip-rule="evenodd" d="M27.26 69.39C27.26 72.1 26.16 74.55 24.39 76.33C22.63 78.1 20.17 79.2 17.47 79.2H17.46C14.76 79.2 12.3 78.1 10.53 76.33C8.75997 74.56 7.65997 72.1 7.65997 69.4C7.65997 66.7 8.75997 64.24 10.53 62.47C12.3 60.7 14.75 59.6 17.46 59.6C20.17 59.6 22.62 60.7 24.39 62.47C26.17 64.24 27.26 66.7 27.26 69.4V69.39Z" fill="#3C8645"/>
  <path d="M17.46 80.03C14.61 80.03 11.94 78.92 9.93 76.91C7.92 74.9 6.81 72.23 6.81 69.38C6.81 66.53 7.92 63.87 9.93 61.86C11.94 59.85 14.61 58.75 17.45 58.75C20.29 58.75 22.96 59.86 24.97 61.86C26.98 63.87 28.09 66.54 28.09 69.38C28.09 72.22 26.98 74.9 24.97 76.91C24.95 76.93 24.93 76.95 24.9 76.97C22.9 78.94 20.26 80.02 17.45 80.02L17.46 80.03ZM17.45 60.43C15.06 60.43 12.81 61.36 11.12 63.05C9.42 64.75 8.49 67 8.49 69.39C8.49 71.78 9.42 74.04 11.12 75.73C12.81 77.42 15.06 78.36 17.45 78.36C19.84 78.36 22.1 77.43 23.79 75.74C23.81 75.72 23.83 75.7 23.85 75.68C25.51 73.99 26.42 71.77 26.42 69.4C26.42 67.03 25.49 64.75 23.79 63.06C22.1 61.37 19.84 60.44 17.45 60.44V60.43Z" fill="#0E1721"/>
  <path fill-rule="evenodd" clip-rule="evenodd" d="M66.62 41.2H33.36C33.65 37.05 35.44 33.32 38.21 30.56C41.22 27.55 45.39 25.68 49.99 25.68C54.6 25.68 58.76 27.55 61.78 30.56C64.55 33.33 66.34 37.05 66.62 41.2Z" fill="#4279B6"/>
  <path d="M66.62 42H33.36C33.14 42 32.93 41.91 32.78 41.75C32.63 41.59 32.55 41.37 32.57 41.15C32.86 36.95 34.66 32.99 37.65 30C40.95 26.7 45.33 24.88 49.99 24.88C54.65 24.88 59.04 26.7 62.35 29.99C65.34 32.98 67.14 36.94 67.42 41.15C67.43 41.37 67.36 41.59 67.21 41.75C67.06 41.91 66.85 42 66.63 42H66.62ZM34.25 40.4H65.75C65.32 36.9 63.73 33.63 61.22 31.12C58.22 28.12 54.23 26.47 50 26.47C45.77 26.47 41.78 28.12 38.78 31.12C36.27 33.63 34.68 36.9 34.25 40.4Z" fill="#0E1721"/>
  <path fill-rule="evenodd" clip-rule="evenodd" d="M59.79 15.6C59.79 16.95 59.51 18.24 59.02 19.42C58.53 20.59 57.81 21.65 56.92 22.54C55.15 24.31 52.7 25.41 49.99 25.41C47.28 25.41 44.83 24.31 43.06 22.54C41.29 20.77 40.19 18.31 40.19 15.61C40.19 12.91 41.29 10.45 43.06 8.68C44.83 6.91 47.28 5.81 49.99 5.81C52.7 5.81 55.15 6.91 56.92 8.68C58.69 10.45 59.78 12.91 59.78 15.61L59.79 15.6Z" fill="#4279B6"/>
  <path d="M49.99 26.2C47.16 26.2 44.5 25.1 42.49 23.1C40.49 21.1 39.38 18.43 39.38 15.6C39.38 12.77 40.48 10.1 42.49 8.1C44.5 6.1 47.16 5 49.99 5C52.82 5 55.48 6.1 57.49 8.1C59.49 10.11 60.59 12.77 60.59 15.6C60.59 17.03 60.31 18.41 59.76 19.73C59.23 21 58.46 22.13 57.49 23.1C55.48 25.1 52.82 26.2 50 26.2H49.99ZM49.99 6.6C47.59 6.6 45.33 7.54 43.62 9.24C41.92 10.94 40.98 13.2 40.98 15.61C40.98 18.02 41.92 20.28 43.62 21.98C45.32 23.68 47.59 24.61 49.99 24.61C52.39 24.61 54.65 23.67 56.36 21.97C57.18 21.15 57.83 20.18 58.28 19.11C58.75 18 58.99 16.82 58.99 15.6C58.99 13.2 58.06 10.93 56.36 9.23C54.66 7.53 52.39 6.6 49.99 6.6Z" fill="#0E1721"/>
</svg>
