<svg xmlns="http://www.w3.org/2000/svg" width="100" height="100" viewBox="0 0 100 100" fill="none">
  <path d="M37.68 56.15H0.73999V82.54C0.73999 84.96 1.59999 87.03 3.31999 88.75C5.03999 90.47 7.10999 91.33 9.52999 91.33H90.46C92.88 91.33 94.95 90.47 96.67 88.75C98.39 87.03 99.25 84.96 99.25 82.54V56.15H62.3H37.67H37.68Z" fill="#4279B6"/>
  <path d="M90.47 92.07H9.53C6.92 92.07 4.65 91.13 2.8 89.27C0.94 87.41 0 85.15 0 82.54V56.15C0 55.74 0.33 55.41 0.74 55.41H99.26C99.67 55.41 100 55.74 100 56.15V82.54C100 85.15 99.06 87.42 97.2 89.27C95.34 91.13 93.08 92.07 90.47 92.07ZM1.48 56.89V82.54C1.48 84.78 2.25 86.64 3.85 88.23C5.44 89.82 7.3 90.6 9.54 90.6H90.47C92.71 90.6 94.57 89.83 96.16 88.23C97.75 86.64 98.53 84.78 98.53 82.54V56.89H1.48Z" fill="#0E1721"/>
  <path d="M35.93 26.24V14.78H64.08V26.24H71.12V13.02C71.12 11.55 70.61 10.31 69.58 9.27999C68.55 8.24999 67.31 7.73999 65.84 7.73999H34.17C32.7 7.73999 31.46 8.24999 30.43 9.27999C29.4 10.31 28.89 11.55 28.89 13.02V26.24H35.93Z" fill="#FCCD2A"/>
  <path d="M71.11 26.98H64.07C63.66 26.98 63.33 26.65 63.33 26.24V15.51H36.66V26.24C36.66 26.65 36.33 26.98 35.92 26.98H28.88C28.47 26.98 28.14 26.65 28.14 26.24V13.02C28.14 11.36 28.73 9.92 29.9 8.76C31.06 7.6 32.5 7 34.16 7H65.83C67.49 7 68.93 7.59 70.09 8.76C71.25 9.92 71.85 11.36 71.85 13.02V26.24C71.85 26.65 71.52 26.98 71.11 26.98ZM64.81 25.5H70.37V13.02C70.37 11.75 69.94 10.69 69.05 9.8C68.16 8.91 67.11 8.48 65.83 8.48H34.16C32.89 8.48 31.83 8.91 30.94 9.8C30.05 10.69 29.62 11.74 29.62 13.02V25.51H35.18V14.78C35.18 14.37 35.51 14.04 35.92 14.04H64.07C64.48 14.04 64.81 14.37 64.81 14.78V25.51V25.5Z" fill="#0E1721"/>
  <path d="M64.07 26.24H9.52999C7.10999 26.24 5.03999 27.1 3.31999 28.82C1.59999 30.54 0.73999 32.61 0.73999 35.03V56.14H99.26V35.03C99.26 32.61 98.4 30.54 96.68 28.82C94.96 27.1 92.89 26.24 90.47 26.24H64.08H64.07Z" fill="#4279B6"/>
  <path d="M99.26 56.89H0.74C0.33 56.89 0 56.56 0 56.15V35.04C0 32.43 0.94 30.16 2.8 28.31C4.66 26.45 6.92 25.51 9.53 25.51H90.46C93.07 25.51 95.34 26.45 97.19 28.31C99.05 30.17 99.99 32.43 99.99 35.04V56.15C99.99 56.56 99.66 56.89 99.25 56.89H99.26ZM1.48 55.41H98.53V35.04C98.53 32.8 97.76 30.94 96.16 29.35C94.56 27.76 92.7 26.98 90.47 26.98H9.53C7.29 26.98 5.43 27.75 3.84 29.35C2.25 30.95 1.47 32.81 1.47 35.04V55.41H1.48Z" fill="#0E1721"/>
  <path d="M63.26 56.15V65.62C63.26 66.65 62.88 67.53 62.13 68.28C61.38 69.03 60.49 69.41 59.47 69.41H40.52C39.49 69.41 38.61 69.03 37.86 68.28C37.11 67.53 36.73 66.64 36.73 65.62V56.15H63.26Z" fill="#FC8B27"/>
  <path d="M59.47 70.15H40.52C39.3 70.15 38.22 69.7 37.33 68.81C36.44 67.92 35.99 66.85 35.99 65.62V56.15C35.99 55.74 36.32 55.41 36.73 55.41H63.26C63.67 55.41 64 55.74 64 56.15V65.62C64 66.84 63.55 67.92 62.66 68.81C61.77 69.7 60.7 70.15 59.47 70.15ZM37.47 56.89V65.63C37.47 66.46 37.77 67.16 38.38 67.77C38.99 68.38 39.69 68.68 40.52 68.68H59.47C60.3 68.68 61 68.38 61.61 67.77C62.22 67.16 62.52 66.46 62.52 65.63V56.89H37.47Z" fill="#0E1721"/>
  <path d="M41.59 59.73V65.08C41.59 65.27 41.63 65.4 41.82 65.6C42.02 65.8 42.15 65.83 42.34 65.83H57.66C57.85 65.83 57.98 65.79 58.18 65.6C58.38 65.4 58.41 65.27 58.41 65.08V59.73H41.59Z" fill="#FCCD2A"/>
  <path d="M57.66 66.57H42.34C41.93 66.57 41.61 66.43 41.3 66.12C40.99 65.81 40.85 65.49 40.85 65.08V59.73C40.85 59.32 41.18 58.99 41.59 58.99H58.41C58.82 58.99 59.15 59.32 59.15 59.73V65.08C59.15 65.49 59.01 65.81 58.7 66.12C58.39 66.43 58.07 66.57 57.66 66.57ZM42.36 65.09H57.64C57.64 65.09 57.65 65.09 57.66 65.07C57.66 65.07 57.67 65.06 57.68 65.05V60.46H42.33V65.05C42.33 65.05 42.34 65.06 42.35 65.07C42.35 65.07 42.36 65.08 42.37 65.09H42.36Z" fill="#0E1721"/>
</svg>
