<svg xmlns="http://www.w3.org/2000/svg" width="100" height="100" viewBox="0 0 100 100" fill="none">
  <path d="M90.47 90.15H9.53C6.92 90.15 4.65 89.21 2.8 87.35C0.94 85.49 0 83.23 0 80.62V54.23C0 53.82 0.33 53.49 0.74 53.49H37.69C38.1 53.49 38.43 53.82 38.43 54.23H61.59C61.59 53.82 61.92 53.49 62.33 53.49H99.28C99.69 53.49 100.02 53.82 100.02 54.23V80.62C100.02 83.23 99.08 85.5 97.22 87.35C95.36 89.21 93.1 90.15 90.49 90.15H90.47ZM1.48 54.96V80.61C1.48 82.85 2.25 84.71 3.85 86.3C5.44 87.89 7.3 88.67 9.54 88.67H90.47C92.71 88.67 94.57 87.9 96.16 86.3C97.75 84.71 98.53 82.85 98.53 80.61V54.96H1.48Z" fill="#2D557F"/>
  <path d="M71.11 24.55C70.7 24.55 70.37 24.22 70.37 23.81V15.02C70.37 13.75 69.94 12.69 69.05 11.8C68.16 10.91 67.11 10.48 65.83 10.48H34.16C32.89 10.48 31.83 10.91 30.94 11.8C30.05 12.69 29.62 13.74 29.62 15.02V23.82C29.62 24.23 29.29 24.56 28.88 24.56C28.47 24.56 28.14 24.23 28.14 23.82V15.02C28.14 13.36 28.73 11.92 29.9 10.76C31.07 9.59 32.5 9 34.16 9H65.83C67.49 9 68.93 9.59 70.09 10.76C71.25 11.92 71.85 13.36 71.85 15.02V23.82C71.85 24.23 71.52 24.56 71.11 24.56V24.55ZM64.07 24.55C63.66 24.55 63.33 24.22 63.33 23.81V17.51H36.66V23.81C36.66 24.22 36.33 24.55 35.92 24.55C35.51 24.55 35.18 24.22 35.18 23.81V16.77C35.18 16.36 35.51 16.03 35.92 16.03H64.07C64.48 16.03 64.81 16.36 64.81 16.77V23.81C64.81 24.22 64.48 24.55 64.07 24.55Z" fill="#4279B6"/>
  <path d="M99.26 54.96H0.74C0.33 54.96 0 54.63 0 54.22V33.11C0 30.5 0.94 28.23 2.8 26.38C4.66 24.52 6.92 23.58 9.53 23.58H90.46C93.07 23.58 95.34 24.52 97.19 26.38C99.05 28.24 99.99 30.5 99.99 33.11V54.22C99.99 54.63 99.66 54.96 99.25 54.96H99.26ZM1.48 53.49H98.53V33.12C98.53 30.88 97.76 29.02 96.16 27.43C94.57 25.84 92.71 25.06 90.47 25.06H9.53C7.29 25.06 5.43 25.83 3.84 27.43C2.25 29.02 1.47 30.88 1.47 33.12V53.49H1.48Z" fill="#4279B6"/>
  <path d="M59.47 68.22H40.52C39.3 68.22 38.22 67.77 37.33 66.88C36.44 65.99 35.99 64.92 35.99 63.69V54.22C35.99 53.81 36.32 53.48 36.73 53.48H63.26C63.67 53.48 64 53.81 64 54.22V63.69C64 64.91 63.55 65.99 62.66 66.88C61.77 67.77 60.7 68.22 59.47 68.22ZM37.47 54.96V63.7C37.47 64.53 37.77 65.23 38.38 65.84C38.99 66.45 39.69 66.75 40.52 66.75H59.47C60.3 66.75 61 66.45 61.61 65.84C62.22 65.23 62.52 64.53 62.52 63.7V54.96H37.47Z" fill="#4279B6"/>
  <path d="M57.66 64.64H42.34C41.93 64.64 41.61 64.5 41.3 64.19C40.99 63.88 40.85 63.56 40.85 63.15V57.8C40.85 57.39 41.18 57.06 41.59 57.06H58.41C58.82 57.06 59.15 57.39 59.15 57.8V63.15C59.15 63.56 59.01 63.88 58.7 64.19C58.39 64.5 58.07 64.64 57.66 64.64ZM42.35 63.17H57.63C57.63 63.17 57.64 63.17 57.65 63.15C57.65 63.15 57.66 63.14 57.67 63.13V58.54H42.32V63.13C42.32 63.13 42.33 63.14 42.34 63.15C42.34 63.15 42.35 63.16 42.36 63.17H42.35Z" fill="#4279B6"/>
</svg>
