<svg xmlns="http://www.w3.org/2000/svg" width="100" height="100" viewBox="0 0 100 100" fill="none">
  <path d="M28.02 82.83C27.62 82.83 27.3 82.51 27.3 82.11V29.92C27.3 29.52 27.62 29.2 28.02 29.2C28.42 29.2 28.74 29.52 28.74 29.92V82.1C28.74 82.5 28.42 82.82 28.02 82.82V82.83Z" fill="#4279B6"/>
  <path d="M72.67 82.83C72.27 82.83 71.95 82.51 71.95 82.11V29.92C71.95 29.52 72.27 29.2 72.67 29.2C73.07 29.2 73.39 29.52 73.39 29.92V82.1C73.39 82.5 73.07 82.82 72.67 82.82V82.83Z" fill="#4279B6"/>
  <path d="M82.98 8.31H17.72C17.32 8.31 17 7.99 17 7.59V0.72C17 0.32 17.32 0 17.72 0H82.98C83.38 0 83.7 0.32 83.7 0.72V7.59C83.7 7.99 83.38 8.31 82.98 8.31ZM18.44 6.87H82.26V1.44H18.44V6.87Z" fill="#4279B6"/>
  <path d="M72.67 89.7H28.02C25.73 89.7 23.87 87.84 23.87 85.55C23.87 83.26 25.73 81.4 28.02 81.4H72.67C74.96 81.4 76.82 83.26 76.82 85.55C76.82 87.84 74.96 89.7 72.67 89.7ZM28.02 82.83C26.52 82.83 25.31 84.05 25.31 85.55C25.31 87.05 26.53 88.27 28.02 88.27H72.67C74.17 88.27 75.39 87.05 75.39 85.55C75.39 84.05 74.17 82.83 72.67 82.83H28.02Z" fill="#4279B6"/>
  <path d="M65.04 78.28C62.84 78.28 61.05 76.49 61.05 74.29V37.73C61.05 35.53 62.84 33.75 65.04 33.75C67.24 33.75 69.03 35.54 69.03 37.73V74.29C69.03 76.49 67.24 78.28 65.04 78.28ZM65.04 35.19C63.63 35.19 62.49 36.33 62.49 37.73V74.29C62.49 75.69 63.63 76.84 65.04 76.84C66.45 76.84 67.59 75.7 67.59 74.29V37.73C67.59 36.33 66.45 35.19 65.04 35.19Z" fill="#2D557F"/>
  <path d="M45.45 78.28C43.25 78.28 41.46 76.49 41.46 74.29V37.73C41.46 35.53 43.25 33.75 45.45 33.75C47.65 33.75 49.43 35.54 49.43 37.73V74.29C49.43 76.49 47.64 78.28 45.45 78.28ZM45.45 35.19C44.04 35.19 42.9 36.33 42.9 37.73V74.29C42.9 75.69 44.04 76.84 45.45 76.84C46.86 76.84 48 75.7 48 74.29V37.73C48 36.33 46.86 35.19 45.45 35.19Z" fill="#2D557F"/>
  <path d="M55.24 78.28C53.04 78.28 51.25 76.49 51.25 74.29V37.73C51.25 35.53 53.04 33.75 55.24 33.75C57.44 33.75 59.23 35.54 59.23 37.73V74.29C59.23 76.49 57.44 78.28 55.24 78.28ZM55.24 35.19C53.83 35.19 52.69 36.33 52.69 37.73V74.29C52.69 75.69 53.83 76.84 55.24 76.84C56.65 76.84 57.79 75.7 57.79 74.29V37.73C57.79 36.33 56.65 35.19 55.24 35.19Z" fill="#2D557F"/>
  <path d="M35.65 78.28C33.45 78.28 31.66 76.49 31.66 74.29V37.73C31.66 35.53 33.45 33.75 35.65 33.75C37.85 33.75 39.63 35.54 39.63 37.73V74.29C39.63 76.49 37.84 78.28 35.65 78.28ZM35.65 35.19C34.24 35.19 33.1 36.33 33.1 37.73V74.29C33.1 75.69 34.24 76.84 35.65 76.84C37.06 76.84 38.19 75.7 38.19 74.29V37.73C38.19 36.33 37.05 35.19 35.65 35.19Z" fill="#2D557F"/>
  <path d="M82.97 100H17.72C17.32 100 17 99.68 17 99.28C17 93.2 21.95 88.26 28.02 88.26H72.67C78.75 88.26 83.69 93.21 83.69 99.28C83.69 99.68 83.37 100 82.97 100ZM18.46 98.56H82.22C81.85 93.61 77.7 89.69 72.66 89.69H28.02C22.98 89.69 18.83 93.61 18.46 98.56Z" fill="#4279B6"/>
  <path d="M28.02 30.64C21.94 30.64 17 25.69 17 19.62C17 13.55 21.95 8.60001 28.02 8.60001C34.09 8.60001 39.04 13.55 39.04 19.62C39.04 25.69 34.1 30.64 28.02 30.64ZM28.02 10.03C22.73 10.03 18.43 14.33 18.43 19.62C18.43 24.91 22.73 29.21 28.02 29.21C33.31 29.21 37.6 24.91 37.6 19.62C37.6 14.33 33.3 10.03 28.02 10.03Z" fill="#4279B6"/>
  <path d="M72.67 30.64C66.59 30.64 61.65 25.69 61.65 19.62C61.65 13.55 66.6 8.60001 72.67 8.60001C78.74 8.60001 83.69 13.55 83.69 19.62C83.69 25.69 78.74 30.64 72.67 30.64ZM72.67 10.03C67.38 10.03 63.08 14.33 63.08 19.62C63.08 24.91 67.38 29.21 72.67 29.21C77.96 29.21 82.26 24.91 82.26 19.62C82.26 14.33 77.96 10.03 72.67 10.03Z" fill="#4279B6"/>
  <path d="M28.02 23.77C25.73 23.77 23.87 21.91 23.87 19.62C23.87 17.33 25.73 15.47 28.02 15.47C30.31 15.47 32.17 17.33 32.17 19.62C32.17 21.91 30.31 23.77 28.02 23.77ZM28.02 16.9C26.52 16.9 25.3 18.12 25.3 19.62C25.3 21.12 26.52 22.34 28.02 22.34C29.52 22.34 30.74 21.12 30.74 19.62C30.74 18.12 29.52 16.9 28.02 16.9Z" fill="#2D557F"/>
  <path d="M72.67 23.77C70.38 23.77 68.52 21.91 68.52 19.62C68.52 17.33 70.38 15.47 72.67 15.47C74.96 15.47 76.82 17.33 76.82 19.62C76.82 21.91 74.96 23.77 72.67 23.77ZM72.67 16.9C71.17 16.9 69.95 18.12 69.95 19.62C69.95 21.12 71.17 22.34 72.67 22.34C74.17 22.34 75.39 21.12 75.39 19.62C75.39 18.12 74.17 16.9 72.67 16.9Z" fill="#2D557F"/>
</svg>
