<svg xmlns="http://www.w3.org/2000/svg" width="100" height="100" viewBox="0 0 100 100" fill="none">
  <path d="M72.71 6.09998H27.28V81.79H72.71V6.09998Z" fill="#4279B6"/>
  <path d="M72.71 82.59H27.28C26.84 82.59 26.48 82.23 26.48 81.79V6.09999C26.48 5.65999 26.84 5.29999 27.28 5.29999H72.71C73.15 5.29999 73.51 5.65999 73.51 6.09999V81.79C73.51 82.23 73.15 82.59 72.71 82.59ZM28.08 80.99H71.92V6.89999H28.08V81V80.99Z" fill="#0E1721"/>
  <path d="M83.2 0.730011H16.8V7.72001H83.2V0.730011Z" fill="#FCCD2A"/>
  <path d="M83.2 8.45H16.8C16.4 8.45 16.07 8.12 16.07 7.72V0.73C16.07 0.33 16.39 0 16.8 0H83.2C83.6 0 83.93 0.33 83.93 0.73V7.72C83.93 8.12 83.6 8.45 83.2 8.45ZM17.53 6.99H82.47V1.46H17.53V6.99Z" fill="#0E1721"/>
  <path d="M27.28 81.79H72.71C74.64 81.79 76.21 83.35 76.21 85.29C76.21 87.23 74.64 88.79 72.71 88.79H27.28C25.35 88.79 23.79 87.23 23.79 85.29C23.79 83.35 25.36 81.79 27.28 81.79Z" fill="#4279B6"/>
  <path d="M72.71 89.58H27.28C24.91 89.58 22.99 87.65 22.99 85.29C22.99 82.93 24.91 81 27.28 81H72.71C75.08 81 77 82.93 77 85.29C77 87.65 75.07 89.58 72.71 89.58ZM27.28 82.59C25.79 82.59 24.59 83.8 24.59 85.29C24.59 86.78 25.8 87.99 27.28 87.99H72.71C74.2 87.99 75.41 86.78 75.41 85.29C75.41 83.8 74.2 82.59 72.71 82.59H27.28Z" fill="#0E1721"/>
  <path d="M69.22 35.68V74.8C69.22 76.73 67.66 78.3 65.72 78.3C63.78 78.3 62.22 76.74 62.22 74.8V35.68C62.22 33.75 63.79 32.19 65.72 32.19C67.65 32.19 69.22 33.76 69.22 35.68Z" fill="white"/>
  <path d="M65.72 79.03C63.39 79.03 61.49 77.13 61.49 74.8V35.68C61.49 33.35 63.39 31.46 65.72 31.46C68.05 31.46 69.95 33.35 69.95 35.68V74.8C69.95 77.13 68.05 79.03 65.72 79.03ZM65.72 32.92C64.19 32.92 62.95 34.16 62.95 35.68V74.8C62.95 76.32 64.19 77.56 65.72 77.56C67.25 77.56 68.48 76.32 68.48 74.8V35.68C68.48 34.16 67.24 32.92 65.72 32.92Z" fill="#0E1721"/>
  <path d="M48.25 35.68V74.8C48.25 76.73 46.69 78.3 44.76 78.3C42.83 78.3 41.26 76.74 41.26 74.8V35.68C41.26 33.75 42.82 32.19 44.76 32.19C46.7 32.19 48.25 33.76 48.25 35.68Z" fill="white"/>
  <path d="M44.76 79.03C42.43 79.03 40.53 77.13 40.53 74.8V35.68C40.53 33.35 42.43 31.46 44.76 31.46C47.09 31.46 48.99 33.35 48.99 35.68V74.8C48.99 77.13 47.09 79.03 44.76 79.03ZM44.76 32.92C43.24 32.92 42 34.16 42 35.68V74.8C42 76.32 43.24 77.56 44.76 77.56C46.28 77.56 47.52 76.32 47.52 74.8V35.68C47.52 34.16 46.28 32.92 44.76 32.92Z" fill="#0E1721"/>
  <path d="M58.73 35.68V74.8C58.73 76.73 57.17 78.3 55.24 78.3C53.31 78.3 51.74 76.74 51.74 74.8V35.68C51.74 33.75 53.31 32.19 55.24 32.19C57.17 32.19 58.73 33.76 58.73 35.68Z" fill="white"/>
  <path d="M55.24 79.03C52.91 79.03 51.01 77.13 51.01 74.8V35.68C51.01 33.35 52.91 31.46 55.24 31.46C57.57 31.46 59.47 33.35 59.47 35.68V74.8C59.47 77.13 57.57 79.03 55.24 79.03ZM55.24 32.92C53.72 32.92 52.48 34.16 52.48 35.68V74.8C52.48 76.32 53.72 77.56 55.24 77.56C56.76 77.56 58 76.32 58 74.8V35.68C58 34.16 56.76 32.92 55.24 32.92Z" fill="#0E1721"/>
  <path d="M37.77 35.68V74.8C37.77 76.73 36.21 78.3 34.28 78.3C32.35 78.3 30.78 76.74 30.78 74.8V35.68C30.78 33.75 32.35 32.19 34.28 32.19C36.21 32.19 37.77 33.76 37.77 35.68Z" fill="white"/>
  <path d="M34.27 79.03C31.94 79.03 30.04 77.13 30.04 74.8V35.68C30.04 33.35 31.94 31.46 34.27 31.46C36.6 31.46 38.49 33.35 38.49 35.68V74.8C38.49 77.13 36.6 79.03 34.27 79.03ZM34.27 32.92C32.74 32.92 31.5 34.16 31.5 35.68V74.8C31.5 76.32 32.74 77.56 34.27 77.56C35.8 77.56 37.03 76.32 37.03 74.8V35.68C37.03 34.16 35.79 32.92 34.27 32.92Z" fill="#0E1721"/>
  <path d="M72.71 88.78H27.28C21.49 88.78 16.79 93.47 16.79 99.27H83.19C83.19 93.48 78.5 88.78 72.7 88.78" fill="#FCCD2A"/>
  <path d="M83.2 100H16.8C16.4 100 16.07 99.67 16.07 99.27C16.07 93.08 21.1 88.05 27.29 88.05H72.72C78.91 88.05 83.94 93.08 83.94 99.27C83.94 99.67 83.61 100 83.21 100H83.2ZM17.56 98.54H82.44C82.06 93.5 77.85 89.52 72.71 89.52H27.28C22.15 89.52 17.93 93.5 17.55 98.54H17.56Z" fill="#0E1721"/>
  <path d="M37.77 18.21C37.77 24 33.08 28.7 27.29 28.7C21.5 28.7 16.8 24 16.8 18.21C16.8 12.42 21.49 7.72 27.28 7.72C33.07 7.72 37.76 12.41 37.76 18.21" fill="#4279B6"/>
  <path d="M27.28 29.49C21.06 29.49 16 24.43 16 18.21C16 11.99 21.06 6.92001 27.28 6.92001C33.5 6.92001 38.56 11.98 38.56 18.2C38.56 24.42 33.5 29.48 27.28 29.48V29.49ZM27.28 8.52001C21.94 8.52001 17.59 12.87 17.59 18.21C17.59 23.55 21.94 27.9 27.28 27.9C32.62 27.9 36.97 23.55 36.97 18.21C36.97 12.87 32.62 8.52001 27.28 8.52001Z" fill="#0E1721"/>
  <path d="M83.2 18.21C83.2 24 78.51 28.7 72.71 28.7C66.91 28.7 62.22 24.01 62.22 18.21C62.22 12.41 66.91 7.72 72.71 7.72C78.51 7.72 83.2 12.41 83.2 18.21Z" fill="#4279B6"/>
  <path d="M72.71 29.49C66.49 29.49 61.43 24.43 61.43 18.21C61.43 11.99 66.49 6.92999 72.71 6.92999C78.93 6.92999 83.99 11.99 83.99 18.21C83.99 24.43 78.93 29.49 72.71 29.49ZM72.71 8.51999C67.37 8.51999 63.02 12.87 63.02 18.21C63.02 23.55 67.37 27.9 72.71 27.9C78.05 27.9 82.4 23.55 82.4 18.21C82.4 12.87 78.05 8.51999 72.71 8.51999Z" fill="#0E1721"/>
  <path d="M30.78 18.21C30.78 20.14 29.22 21.71 27.29 21.71C25.36 21.71 23.79 20.14 23.79 18.21C23.79 16.28 25.35 14.71 27.29 14.71C29.23 14.71 30.78 16.27 30.78 18.21Z" fill="white"/>
  <path d="M27.28 22.4C24.97 22.4 23.08 20.52 23.08 18.2C23.08 15.88 24.96 14 27.28 14C29.6 14 31.47 15.88 31.47 18.2C31.47 20.52 29.59 22.4 27.28 22.4ZM27.28 15.41C25.74 15.41 24.48 16.66 24.48 18.21C24.48 19.76 25.73 21.01 27.28 21.01C28.83 21.01 30.07 19.76 30.07 18.21C30.07 16.66 28.82 15.41 27.28 15.41Z" fill="#0E1721"/>
  <path d="M76.21 18.21C76.21 20.14 74.65 21.71 72.72 21.71C70.79 21.71 69.22 20.14 69.22 18.21C69.22 16.28 70.79 14.71 72.72 14.71C74.65 14.71 76.21 16.27 76.21 18.21Z" fill="white"/>
  <path d="M72.71 22.4C70.4 22.4 68.51 20.52 68.51 18.2C68.51 15.88 70.39 14 72.71 14C75.03 14 76.9 15.88 76.9 18.2C76.9 20.52 75.02 22.4 72.71 22.4ZM72.71 15.41C71.17 15.41 69.91 16.66 69.91 18.21C69.91 19.76 71.16 21.01 72.71 21.01C74.26 21.01 75.5 19.76 75.5 18.21C75.5 16.66 74.25 15.41 72.71 15.41Z" fill="#0E1721"/>
</svg>
