<svg xmlns="http://www.w3.org/2000/svg" width="100" height="100" viewBox="0 0 100 100" fill="none">
  <path d="M50.2099 22.8H12.6899V70.4801H50.2099V22.8Z" fill="#FCCD2A"/>
  <path d="M87.42 28.74H50.21V75.97H87.42V28.74Z" fill="#3C8645"/>
  <path d="M87.86 76.4101H49.77V28.3H87.86V76.4101ZM50.65 75.53H86.98V29.18H50.65V75.53Z" fill="#0E1721"/>
  <path d="M50.21 75.97H64.61L67.65 74.45H97.74C98.2 74.45 98.63 74.65 98.92 75.01C99.21 75.36 99.32 75.83 99.24 76.27L98.82 78.39C98.39 80.52 96.52 82.06 94.34 82.06H50.22V75.97H50.21Z" fill="#4279B6"/>
  <path d="M94.34 82.79H49.48V75.24H64.44L67.48 73.72H97.74C98.42 73.72 99.05 74.02 99.48 74.55C99.91 75.07 100.08 75.76 99.95 76.42L99.53 78.54C99.04 81.01 96.85 82.8 94.33 82.8L94.34 82.79ZM50.95 81.32H94.34C96.16 81.32 97.74 80.03 98.09 78.24L98.51 76.12C98.56 75.89 98.5 75.65 98.35 75.47C98.2 75.29 97.98 75.18 97.74 75.18H67.82L64.78 76.7H50.94V81.32H50.95Z" fill="#0E1721"/>
  <path d="M50.2099 76.62H5.70993C3.50993 76.62 1.61993 75.07 1.18993 72.92L0.759926 70.78C0.669926 70.33 0.789926 69.86 1.07993 69.51C1.36993 69.15 1.80993 68.95 2.26993 68.95H32.6499L35.7199 70.49H50.2099V76.63V76.62Z" fill="#4279B6"/>
  <path d="M50.95 77.36H5.70998C3.16998 77.36 0.96998 75.55 0.46998 73.07L0.0399804 70.93C-0.0900196 70.26 0.0799804 69.57 0.50998 69.05C0.93998 68.52 1.57998 68.22 2.26998 68.22H32.82L35.89 69.76H50.94V77.37L50.95 77.36ZM2.26998 69.68C2.02998 69.68 1.79998 69.79 1.64998 69.97C1.49998 70.16 1.43998 70.4 1.47998 70.64L1.90998 72.78C2.26998 74.58 3.86998 75.89 5.70998 75.89H49.48V71.22H35.55L32.48 69.68H2.26998Z" fill="#0E1721"/>
  <path d="M50.21 22.8H15.38C13.89 22.8 12.69 24.01 12.69 25.49V68.94H7.53003V21.99C7.53003 19.45 9.59003 17.38 12.14 17.38H50.21V22.8Z" fill="#4279B6"/>
  <path d="M13.42 69.68H6.79004V21.99C6.79004 19.04 9.19004 16.65 12.13 16.65H50.94V23.54H15.38C14.3 23.54 13.42 24.42 13.42 25.5V69.69V69.68ZM8.27004 68.21H11.96V25.49C11.96 23.6 13.5 22.06 15.39 22.06H49.49V18.11H12.14C10 18.11 8.27004 19.85 8.27004 21.98V68.2V68.21Z" fill="#0E1721"/>
  <path d="M50.21 28.74H84.75C86.22 28.74 87.42 29.93 87.42 31.41V74.45H92.54V27.64C92.54 25.12 90.5 23.08 87.98 23.08H50.22V28.75L50.21 28.74Z" fill="#4279B6"/>
  <path d="M93.27 75.18H86.68V31.41C86.68 30.34 85.81 29.48 84.75 29.48H49.47V22.34H87.97C90.89 22.34 93.27 24.72 93.27 27.64V75.19V75.18ZM88.16 73.72H91.81V27.64C91.81 25.53 90.09 23.81 87.98 23.81H50.95V28.01H84.76C86.64 28.01 88.16 29.54 88.16 31.41V73.71V73.72Z" fill="#0E1721"/>
  <path d="M50.21 95.54C49.8 95.54 49.48 95.21 49.48 94.81V4.73C49.48 4.32 49.81 4 50.21 4C50.61 4 50.94 4.33 50.94 4.73V94.8C50.94 95.21 50.61 95.53 50.21 95.53V95.54Z" fill="#0E1721"/>
  <path d="M41.76 33.0299H21.14C19.3119 33.0299 17.83 34.5118 17.83 36.3399V56.9499C17.83 58.778 19.3119 60.2599 21.14 60.2599H41.76C43.588 60.2599 45.07 58.778 45.07 56.9499V36.3399C45.07 34.5118 43.588 33.0299 41.76 33.0299Z" fill="#3C8645"/>
  <path d="M41.76 60.7H21.14C19.07 60.7 17.39 59.02 17.39 56.95V36.33C17.39 34.26 19.07 32.58 21.14 32.58H41.76C43.83 32.58 45.51 34.26 45.51 36.33V56.95C45.51 59.02 43.83 60.7 41.76 60.7ZM21.14 33.47C19.56 33.47 18.27 34.76 18.27 36.34V56.96C18.27 58.54 19.56 59.83 21.14 59.83H41.76C43.34 59.83 44.63 58.54 44.63 56.96V36.34C44.63 34.76 43.34 33.47 41.76 33.47H21.14Z" fill="#0E1721"/>
  <path d="M28.66 47.5699L22.91 50.8499C22.44 51.1199 22.15 51.6099 22.15 52.1499V53.1399C22.15 54.6799 23.4 55.9299 24.94 55.9299H37.95C39.49 55.9299 40.74 54.6799 40.74 53.1399V52.1499C40.74 51.6099 40.45 51.1099 39.98 50.8499L34.23 47.5699H28.66Z" fill="#FC8B27"/>
  <path d="M37.95 56.37H24.95C23.17 56.37 21.72 54.92 21.72 53.14V52.15C21.72 51.46 22.09 50.81 22.7 50.46L28.45 47.18C28.52 47.14 28.59 47.12 28.67 47.12H34.24C34.32 47.12 34.39 47.14 34.46 47.18L40.21 50.46C40.81 50.8 41.19 51.45 41.19 52.15V53.14C41.19 54.92 39.74 56.37 37.96 56.37H37.95ZM28.78 48.01L23.14 51.24C22.81 51.43 22.61 51.78 22.61 52.16V53.15C22.61 54.44 23.66 55.5 24.96 55.5H37.96C39.25 55.5 40.31 54.45 40.31 53.15V52.16C40.31 51.78 40.11 51.43 39.78 51.24L34.14 48.01H28.8H28.78Z" fill="#0E1721"/>
  <path d="M36.0999 41.9999C36.0999 40.1399 35.1699 37.3599 31.4599 37.3599C27.7499 37.3599 26.8199 40.1499 26.8199 41.9999V42.9299C26.8199 45.7199 28.6799 48.4999 31.4599 48.4999C34.2399 48.4999 36.0999 45.7099 36.0999 42.9299V41.9999Z" fill="white"/>
  <path d="M31.45 48.9399C28.31 48.9399 26.36 45.8199 26.36 42.9299V41.9999C26.36 39.6499 27.69 36.9099 31.45 36.9099C35.21 36.9099 36.54 39.6499 36.54 41.9999V42.9299C36.54 45.8199 34.6 48.9399 31.45 48.9399ZM31.45 37.7899C27.55 37.7899 27.25 41.0099 27.25 41.9899V42.9199C27.25 45.3899 28.86 48.0499 31.45 48.0499C34.04 48.0499 35.65 45.3899 35.65 42.9199V41.9899C35.65 40.9999 35.35 37.7899 31.45 37.7899Z" fill="#0E1721"/>
  <path d="M79.1299 38.74H58.5099C56.6819 38.74 55.2 40.2219 55.2 42.05V62.66C55.2 64.4881 56.6819 65.97 58.5099 65.97H79.1299C80.958 65.97 82.44 64.4881 82.44 62.66V42.05C82.44 40.2219 80.958 38.74 79.1299 38.74Z" fill="#FCCD2A"/>
  <path d="M79.13 66.41H58.51C56.44 66.41 54.76 64.73 54.76 62.66V42.04C54.76 39.97 56.44 38.29 58.51 38.29H79.13C81.2 38.29 82.88 39.97 82.88 42.04V62.66C82.88 64.73 81.2 66.41 79.13 66.41ZM58.51 39.18C56.93 39.18 55.64 40.47 55.64 42.05V62.67C55.64 64.25 56.93 65.54 58.51 65.54H79.13C80.71 65.54 82 64.25 82 62.67V42.05C82 40.47 80.71 39.18 79.13 39.18H58.51Z" fill="#0E1721"/>
  <path d="M66.03 53.29L60.28 56.57C59.81 56.84 59.52 57.33 59.52 57.87V58.86C59.52 60.4 60.77 61.65 62.31 61.65H75.32C76.86 61.65 78.11 60.4 78.11 58.86V57.87C78.11 57.33 77.82 56.83 77.35 56.57L71.6 53.29H66.03Z" fill="#4279B6"/>
  <path d="M75.32 62.0901H62.32C60.54 62.0901 59.09 60.6401 59.09 58.8601V57.8701C59.09 57.1701 59.46 56.5301 60.07 56.1801L65.82 52.9001C65.89 52.8601 65.96 52.8401 66.04 52.8401H71.61C71.69 52.8401 71.76 52.8601 71.83 52.9001L77.58 56.1801C78.18 56.5201 78.56 57.1701 78.56 57.8701V58.8601C78.56 60.6401 77.11 62.0901 75.33 62.0901H75.32ZM66.15 53.7301L60.51 56.9601C60.18 57.1501 59.98 57.5001 59.98 57.8801V58.8701C59.98 60.1601 61.03 61.2201 62.33 61.2201H75.33C76.62 61.2201 77.68 60.1701 77.68 58.8701V57.8801C77.68 57.5001 77.48 57.1501 77.15 56.9601L71.51 53.7301H66.17H66.15Z" fill="#0E1721"/>
  <path d="M73.4599 47.7099C73.4599 45.8499 72.5299 43.0699 68.8199 43.0699C65.1099 43.0699 64.1799 45.8599 64.1799 47.7099V48.6399C64.1799 51.4299 66.0399 54.2099 68.8199 54.2099C71.5999 54.2099 73.4599 51.4199 73.4599 48.6399V47.7099Z" fill="white"/>
  <path d="M68.82 54.66C65.68 54.66 63.73 51.54 63.73 48.65V47.72C63.73 45.37 65.06 42.63 68.82 42.63C72.58 42.63 73.91 45.37 73.91 47.72V48.65C73.91 51.54 71.97 54.66 68.82 54.66ZM68.82 43.51C64.92 43.51 64.62 46.73 64.62 47.71V48.64C64.62 51.11 66.23 53.77 68.82 53.77C71.41 53.77 73.02 51.11 73.02 48.64V47.71C73.02 46.72 72.72 43.51 68.82 43.51Z" fill="#0E1721"/>
</svg>
