<svg xmlns="http://www.w3.org/2000/svg" width="100" height="100" viewBox="0 0 100 100" fill="none">
  <path d="M99.49 74.54C99.06 74.02 98.42 73.71 97.75 73.71H93.28V27.64C93.28 24.72 90.9 22.34 87.98 22.34H56.09V23.81H87.98C90.09 23.81 91.81 25.53 91.81 27.64V73.72H88.16V31.41C88.16 29.53 86.63 28.01 84.76 28.01H56.09V29.48H84.76C85.83 29.48 86.69 30.35 86.69 31.41V73.71H67.48L64.44 75.23H56.09V76.7H64.78L67.82 75.18H97.74C97.98 75.18 98.2 75.29 98.35 75.47C98.5 75.65 98.56 75.89 98.51 76.12L98.09 78.24C97.73 80.02 96.15 81.32 94.34 81.32H56.09V82.79H94.34C96.86 82.79 99.04 81 99.54 78.53L99.96 76.41C100.09 75.74 99.92 75.06 99.49 74.54Z" fill="#4279B6"/>
  <path d="M6.79998 21.99V68.21H2.26998C1.58998 68.21 0.94998 68.51 0.50998 69.04C0.0799804 69.57 -0.0900196 70.25 0.0399804 70.92L0.46998 73.06C0.96998 75.55 3.16998 77.35 5.70998 77.35H45.51V75.88H5.70998C3.86998 75.88 2.26998 74.57 1.90998 72.77L1.47998 70.63C1.42998 70.39 1.48998 70.15 1.64998 69.96C1.79998 69.77 2.02998 69.67 2.26998 69.67H32.48L35.55 71.21H45.51V69.74H35.89L32.82 68.2H13.42V25.49C13.42 24.41 14.3 23.53 15.38 23.53H45.51V22.06H15.38C13.49 22.06 11.95 23.6 11.95 25.49V68.21H8.25998V21.99C8.25998 19.85 9.99998 18.12 12.13 18.12H45.5V16.65H12.14C9.18998 16.65 6.79998 19.05 6.79998 21.99Z" fill="#4279B6"/>
  <path d="M50.21 4C49.8 4 49.48 4.33 49.48 4.73V94.8C49.48 95.21 49.81 95.53 50.21 95.53C50.61 95.53 50.94 95.2 50.94 94.8V4.73C50.94 4.32 50.61 4 50.21 4Z" fill="#2D557F"/>
  <path d="M41.76 32.4399H21.14C18.99 32.4399 17.24 34.1899 17.24 36.3399V56.9599C17.24 59.1099 18.99 60.8599 21.14 60.8599H41.76C43.91 60.8599 45.66 59.1099 45.66 56.9599V36.3399C45.66 34.1899 43.91 32.4399 41.76 32.4399ZM44.48 56.9499C44.48 58.4499 43.26 59.6699 41.76 59.6699H21.14C19.64 59.6699 18.42 58.4499 18.42 56.9499V36.3299C18.42 34.8299 19.64 33.6099 21.14 33.6099H41.76C43.26 33.6099 44.48 34.8299 44.48 36.3299V56.9499Z" fill="#2D557F"/>
  <path d="M40.28 50.34L35.08 47.37C36.11 46.17 36.69 44.52 36.69 42.93V42C36.69 39.59 35.32 36.77 31.46 36.77C27.6 36.77 26.23 39.59 26.23 42V42.93C26.23 44.52 26.81 46.18 27.84 47.37L22.64 50.34C21.99 50.71 21.59 51.41 21.59 52.15V53.14C21.59 55 23.1 56.51 24.96 56.51H37.96C39.82 56.51 41.33 55 41.33 53.14V52.15C41.33 51.4 40.93 50.71 40.28 50.34ZM24.95 55.34C23.74 55.34 22.75 54.35 22.75 53.14V52.15C22.75 51.82 22.93 51.52 23.21 51.36L28.74 48.2C29.5 48.75 30.41 49.08 31.45 49.08C32.49 49.08 33.4 48.75 34.16 48.2L39.69 51.36C39.97 51.52 40.15 51.83 40.15 52.15V53.14C40.15 54.35 39.16 55.34 37.95 55.34H24.95ZM27.39 42C27.39 41.05 27.68 37.94 31.45 37.94C35.22 37.94 35.51 41.05 35.51 42V42.93C35.51 44.44 34.9 46.02 33.82 46.99C33.55 47.23 33.26 47.42 32.94 47.58C32.49 47.79 32 47.92 31.46 47.92C30.92 47.92 30.42 47.79 29.98 47.58C29.66 47.43 29.36 47.23 29.1 46.99C28.02 46.02 27.41 44.44 27.41 42.93V42H27.39Z" fill="#2D557F"/>
  <path d="M79.13 38.15H58.51C56.36 38.15 54.61 39.9 54.61 42.05V62.67C54.61 64.82 56.36 66.57 58.51 66.57H79.13C81.28 66.57 83.03 64.82 83.03 62.67V42.05C83.03 39.9 81.28 38.15 79.13 38.15ZM81.85 62.66C81.85 64.16 80.63 65.38 79.13 65.38H58.51C57.01 65.38 55.79 64.16 55.79 62.66V42.04C55.79 40.54 57.01 39.32 58.51 39.32H79.13C80.63 39.32 81.85 40.54 81.85 42.04V62.66Z" fill="#2D557F"/>
  <path d="M77.6399 56.06L72.44 53.09C73.47 51.89 74.05 50.24 74.05 48.65V47.72C74.05 45.31 72.6799 42.49 68.82 42.49C64.96 42.49 63.59 45.31 63.59 47.72V48.65C63.59 50.24 64.1699 51.9 65.1999 53.09L60 56.06C59.35 56.43 58.95 57.13 58.95 57.87V58.86C58.95 60.72 60.46 62.23 62.32 62.23H75.32C77.18 62.23 78.69 60.72 78.69 58.86V57.87C78.69 57.12 78.2899 56.43 77.6399 56.06ZM62.32 61.06C61.11 61.06 60.1199 60.07 60.1199 58.86V57.87C60.1199 57.54 60.3 57.24 60.58 57.08L66.11 53.92C66.87 54.47 67.78 54.8 68.82 54.8C69.86 54.8 70.7699 54.47 71.5299 53.92L77.0599 57.08C77.3399 57.24 77.5199 57.55 77.5199 57.87V58.86C77.5199 60.07 76.5299 61.06 75.32 61.06H62.32ZM64.76 47.71C64.76 46.76 65.05 43.65 68.82 43.65C72.59 43.65 72.8799 46.76 72.8799 47.71V48.64C72.8799 50.15 72.27 51.73 71.19 52.7C70.92 52.94 70.6299 53.13 70.3099 53.29C69.8599 53.5 69.37 53.63 68.83 53.63C68.29 53.63 67.7899 53.5 67.3499 53.29C67.0299 53.14 66.73 52.94 66.47 52.7C65.39 51.73 64.7799 50.15 64.7799 48.64V47.71H64.76Z" fill="#2D557F"/>
</svg>
