<svg xmlns="http://www.w3.org/2000/svg" width="100" height="100" viewBox="0 0 100 100" fill="none">
  <path d="M49.9308 0.683167L13.4753 17.6139V49.5545C13.4753 84.1485 46.2377 99.3168 49.9308 99.3168C53.6239 99.3168 86.3862 84.1485 86.3862 49.5545V17.6139L49.9308 0.683167Z" fill="#4279B6"/>
  <path d="M49.9307 100C47.9505 100 38.7822 96.2772 29.8515 87.9109C22.0693 80.6139 12.7921 68.0297 12.7921 49.5644V17.6139C12.7921 17.3465 12.9505 17.1089 13.1882 17L49.6436 0.0594159C49.8218 -0.029693 50.0396 -0.029693 50.2179 0.0594159L86.6733 16.9901C86.9109 17.099 87.0693 17.3465 87.0693 17.604V49.5446C87.0693 68.0198 77.7921 80.5941 70.0099 87.8911C61.0792 96.2673 51.9109 99.9802 49.9307 99.9802V100ZM14.1486 18.0495V49.5545C14.1486 67.5446 23.1882 79.802 30.7723 86.9109C39.3763 94.9802 48.3763 98.6337 49.9208 98.6337C51.4654 98.6337 60.4654 94.9802 69.0693 86.9109C76.6535 79.7921 85.6931 67.5347 85.6931 49.5545V18.0495L49.9307 1.42575L14.1486 18.0495Z" fill="#0E1721"/>
  <path d="M49.9308 6.67328L80.9506 21.0792V49.5545C80.9506 56.3961 79.5051 62.8911 76.6635 68.8515C74.2971 73.8119 70.9506 78.4357 66.7328 82.5743C59.7031 89.4753 52.3269 93 49.9308 93.7723C47.5348 92.9901 40.1684 89.4753 33.1288 82.5743C28.911 78.4357 25.5744 73.8119 23.1981 68.8515C20.3467 62.8911 18.911 56.3961 18.911 49.5545V21.0792L49.9308 6.67328Z" fill="#E6E6E6"/>
  <path d="M49.9308 94.4554C49.8614 94.4554 49.7921 94.4455 49.7228 94.4257C47.4357 93.6832 39.9209 90.198 32.6535 83.0693C28.3763 78.8713 24.9902 74.1881 22.5842 69.1584C19.6931 63.1089 18.2278 56.5149 18.2278 49.5644V21.0891C18.2278 20.8218 18.3862 20.5842 18.6238 20.4752L49.6436 6.0693C49.8218 5.98019 50.0397 5.98019 50.2179 6.0693L81.2377 20.4752C81.4753 20.5842 81.6337 20.8317 81.6337 21.0891V49.5644C81.6337 56.5149 80.1684 63.099 77.2773 69.1584C74.8713 74.198 71.4852 78.8713 67.208 83.0693C59.9407 90.2079 52.4258 93.6931 50.1387 94.4257C50.0694 94.4455 50.0001 94.4554 49.9308 94.4554ZM19.5941 21.5148V49.5545C19.5941 56.297 21.0199 62.6931 23.8218 68.5545C26.1585 73.4455 29.4555 78 33.6139 82.0891C40.4852 88.8317 47.5149 92.2079 49.9407 93.0594C52.3565 92.2079 59.3961 88.8317 66.2674 82.0891C70.4258 78 73.7228 73.4554 76.0595 68.5545C78.8615 62.6832 80.2872 56.2871 80.2872 49.5545V21.5148L49.9506 7.42574L19.6139 21.5148H19.5941Z" fill="#0E1721"/>
  <path d="M3.63369 93.3168C3.18815 93.3168 2.7426 93.1386 2.41587 92.7723C1.81191 92.099 1.87131 91.0693 2.53468 90.4653L95.1386 7.09901C95.8119 6.49504 96.8416 6.55445 97.4456 7.21782C98.0495 7.88118 97.9901 8.92079 97.3268 9.52475L4.7228 92.901C4.41587 93.1782 4.01983 93.3168 3.63369 93.3168Z" fill="#0E1721"/>
  <path d="M64.3367 64.6436C56.3862 72.5941 43.4753 72.604 35.5149 64.6436C32.7526 61.8812 30.9506 58.5248 30.109 54.9802C28.7625 49.3267 29.8615 43.2178 33.3961 38.3168C34.0298 37.4456 34.7328 36.6139 35.5248 35.8218C43.4852 27.8614 56.3862 27.8515 64.3466 35.8218C72.307 43.7822 72.2971 56.6931 64.3466 64.6535" fill="#FC8B27"/>
  <path d="M49.9307 71.2772C44.5347 71.2772 39.1486 69.2277 35.0396 65.1188C32.2773 62.3564 30.3466 58.9109 29.4456 55.1386C28.0198 49.1584 29.2575 42.8812 32.8416 37.9208C33.4951 37.0099 34.2377 36.1485 35.0396 35.3465C39.0198 31.3663 44.307 29.1782 49.9307 29.1782C55.5545 29.1782 60.8416 31.3663 64.8119 35.3465C73.0198 43.5545 73.0198 56.9208 64.8119 65.1386C60.703 69.2475 55.3169 71.297 49.9208 71.297L49.9307 71.2772ZM49.9406 30.5248C44.6832 30.5248 39.7327 32.5743 36.0099 36.297C35.2575 37.0495 34.5743 37.8515 33.9604 38.703C30.604 43.3465 29.4456 49.2178 30.7822 54.8119C31.6238 58.3465 33.4357 61.5743 36.0099 64.1485C43.6931 71.8317 56.1882 71.8317 63.8713 64.1485C71.5545 56.4654 71.5545 43.9604 63.8713 36.2871C60.1486 32.5644 55.208 30.5248 49.9505 30.5248H49.9406Z" fill="#0E1721"/>
  <path d="M53.8416 50.3169L57.7129 46.4456C58.2673 45.8911 58.2673 45 57.7129 44.4555L55.7921 42.5347C55.2376 41.9802 54.3465 41.9802 53.802 42.5347L49.9307 46.406L46.0594 42.5347C45.5049 41.9802 44.6139 41.9802 44.0693 42.5347L42.1485 44.4555C41.5941 45.0099 41.5941 45.901 42.1485 46.4456L46.0198 50.3169L42.1485 54.1881C41.5941 54.7426 41.5941 55.6337 42.1485 56.1782L44.0693 58.099C44.6238 58.6535 45.5148 58.6535 46.0594 58.099L49.9307 54.2277L53.802 58.099C54.3564 58.6535 55.2475 58.6535 55.7921 58.099L57.7129 56.1782C58.2673 55.6238 58.2673 54.7327 57.7129 54.1881L53.8416 50.3169Z" fill="white"/>
  <path d="M54.802 59.2178C54.2574 59.2178 53.7228 59.0099 53.3069 58.5941L49.9307 55.2178L46.5544 58.5941C45.7327 59.4158 44.3861 59.4158 43.5643 58.5941L41.6436 56.6733C40.8218 55.8515 40.8218 54.505 41.6436 53.6832L45.0198 50.3069L41.6436 46.9307C40.8218 46.1089 40.8218 44.7624 41.6436 43.9406L43.5643 42.0198C44.3861 41.198 45.7327 41.198 46.5544 42.0198L49.9307 45.396L53.3069 42.0198C54.1287 41.198 55.4752 41.198 56.297 42.0198L58.2178 43.9406C59.0396 44.7624 59.0396 46.1089 58.2178 46.9307L54.8416 50.3069L58.2178 53.6832C59.0396 54.505 59.0396 55.8515 58.2178 56.6733L56.297 58.5941C55.8812 59.0099 55.3465 59.2178 54.802 59.2178ZM49.9307 53.5149C50.1089 53.5149 50.297 53.5842 50.4356 53.7228L54.3069 57.5941C54.5842 57.8713 55.0297 57.8713 55.297 57.5941L57.2178 55.6733C57.495 55.396 57.495 54.9505 57.2178 54.6832L53.3465 50.8119C53.0693 50.5347 53.0693 50.0891 53.3465 49.8119L57.2178 45.9406C57.495 45.6634 57.495 45.2178 57.2178 44.9505L55.297 43.0297C55.0198 42.7525 54.5743 42.7525 54.3069 43.0297L50.4356 46.901C50.1584 47.1782 49.7129 47.1782 49.4356 46.901L45.5643 43.0297C45.2871 42.7525 44.8416 42.7525 44.5743 43.0297L42.6535 44.9505C42.3762 45.2277 42.3762 45.6733 42.6535 45.9406L46.5247 49.8119C46.802 50.0891 46.802 50.5347 46.5247 50.8119L42.6535 54.6832C42.3762 54.9604 42.3762 55.4059 42.6535 55.6733L44.5743 57.5941C44.8515 57.8713 45.297 57.8713 45.5643 57.5941L49.4356 53.7228C49.5743 53.5842 49.7525 53.5149 49.9406 53.5149H49.9307Z" fill="#0E1721"/>
  <path d="M50.2673 90.0594C49.8119 90.0594 49.4554 89.6931 49.4554 89.2475V75.0297C49.4554 74.5743 49.8218 74.2178 50.2673 74.2178C50.7129 74.2178 51.0792 74.5842 51.0792 75.0297V89.2475C51.0792 89.703 50.7129 90.0594 50.2673 90.0594Z" fill="#0E1721"/>
  <path d="M50.2673 26.9208C49.8119 26.9208 49.4554 26.5544 49.4554 26.1089V11.8911C49.4554 11.4356 49.8218 11.0792 50.2673 11.0792C50.7129 11.0792 51.0792 11.4455 51.0792 11.8911V26.1089C51.0792 26.5643 50.7129 26.9208 50.2673 26.9208Z" fill="#0E1721"/>
</svg>
