<svg xmlns="http://www.w3.org/2000/svg" width="100" height="100" viewBox="0 0 100 100" fill="none">
  <path d="M80.2299 27.93V49.57C80.2299 56.24 78.8199 62.56 76.0499 68.36C73.7399 73.2 70.4799 77.7 66.3599 81.74C59.5999 88.37 52.6899 91.71 50.2599 92.57C47.8299 91.71 40.9199 88.37 34.1599 81.74C31.9199 79.54 29.9299 77.2 28.2199 74.75L27.0099 75.84C28.7599 78.32 30.7699 80.67 33.0299 82.9C40.2599 90 47.7399 93.46 50.0099 94.2C50.0899 94.23 50.1799 94.24 50.2599 94.24C50.3399 94.24 50.4299 94.23 50.5099 94.2C52.7799 93.46 60.2599 89.99 67.4899 82.9C71.7399 78.73 75.1099 74.07 77.4999 69.06C80.3799 63.04 81.8299 56.48 81.8299 49.57V26.48L80.2099 27.94L80.2299 27.93Z" fill="#2D557F"/>
  <path d="M20.3099 21.84L50.2699 7.92L77.5099 20.57L78.8199 19.39L50.6099 6.29C50.3899 6.19 50.1399 6.19 49.9299 6.29L19.1599 20.58C18.8699 20.71 18.6899 21 18.6899 21.31V49.55C18.6899 56.46 20.1499 63.02 23.0199 69.04C23.0799 69.17 23.1499 69.31 23.2199 69.44L24.4699 68.31C21.7099 62.51 20.3099 56.2 20.3099 49.54V21.81V21.84Z" fill="#2D557F"/>
  <path d="M49.46 74.83V88.93C49.46 89.38 49.82 89.74 50.27 89.74C50.72 89.74 51.08 89.38 51.08 88.93V74.83C51.08 74.38 50.72 74.02 50.27 74.02C49.82 74.02 49.46 74.38 49.46 74.83Z" fill="#2D557F"/>
  <path d="M50.27 27.09C50.32 27.09 50.37 27.09 50.43 27.09C50.8 27.01 51.07 26.69 51.07 26.3V12.2C51.07 11.75 50.7099 11.39 50.2599 11.39C49.8099 11.39 49.45 11.75 49.45 12.2V26.3C49.45 26.69 49.7299 27.02 50.0999 27.09C50.1499 27.09 50.2099 27.09 50.2599 27.09H50.27Z" fill="#2D557F"/>
  <path d="M67.99 38.94C67.59 38.29 67.14 37.66 66.66 37.05C66.16 36.42 65.62 35.8 65.04 35.22C64.98 35.16 64.92 35.1 64.86 35.04C64.3 34.5 63.72 33.99 63.12 33.52C59.47 30.66 54.99 29.1 50.28 29.1C44.7 29.1 39.45 31.28 35.51 35.22C34.72 36.01 33.98 36.87 33.33 37.77C29.77 42.69 28.55 48.92 29.96 54.85C30.48 57.05 31.37 59.14 32.56 61.04C32.97 61.69 33.41 62.32 33.89 62.93C34.39 63.57 34.93 64.18 35.51 64.75C35.57 64.81 35.64 64.87 35.7 64.93C36.26 65.47 36.84 65.98 37.44 66.45C41.2 69.39 45.74 70.86 50.29 70.86C55.64 70.86 60.99 68.82 65.06 64.75C72.06 57.75 73.04 46.98 68.01 38.92L67.99 38.94ZM38.44 65.55C37.83 65.09 37.25 64.59 36.69 64.04C36.61 63.96 36.53 63.89 36.45 63.81C35.89 63.25 35.37 62.65 34.88 62.03C34.4 61.42 33.96 60.79 33.56 60.13C32.51 58.4 31.73 56.52 31.26 54.54C29.94 48.99 31.08 43.17 34.41 38.56C35.02 37.72 35.71 36.91 36.45 36.17C40.14 32.48 45.05 30.44 50.27 30.44C54.6 30.44 58.71 31.84 62.09 34.43C62.7 34.89 63.28 35.4 63.84 35.94C63.92 36.02 64 36.09 64.08 36.16C64.65 36.73 65.17 37.32 65.65 37.94C66.13 38.55 66.57 39.19 66.97 39.84C71.53 47.36 70.57 57.31 64.08 63.8C57.09 70.79 46.09 71.36 38.44 65.53V65.55Z" fill="#2D557F"/>
  <path d="M85.36 49.56C85.36 67.26 76.46 79.32 68.99 86.32C60.54 94.25 51.77 97.84 50.27 97.84C48.77 97.84 40 94.25 31.55 86.32C29.2 84.12 26.71 81.41 24.4 78.19L22.79 79.64C25.15 82.9 27.69 85.65 30.08 87.89C38.43 95.72 47.8 99.99 50.27 99.99C52.74 99.99 62.12 95.72 70.46 87.89C78.24 80.6 87.51 68.02 87.51 49.55V21.36L85.35 23.3V49.55L85.36 49.56Z" fill="#4279B6"/>
  <path d="M20.53 71.88C17.39 65.79 15.18 58.38 15.18 49.56V18.56L50.27 2.27L81.65 16.85L83.39 15.28L50.73 0.100002C50.44 -0.0299976 50.11 -0.0299976 49.82 0.100002L13.66 16.9C13.28 17.08 13.04 17.46 13.04 17.88V49.56C13.04 59.01 15.47 66.92 18.89 73.37L20.55 71.88H20.53Z" fill="#4279B6"/>
  <path d="M25.73 73.91L26.95 72.81L34.18 66.3C34.18 66.3 34.11 66.23 34.07 66.2C33.47 65.6 32.9 64.96 32.37 64.3L25.56 70.44L24.33 71.55L21.67 73.94L20.03 75.42L3.45003 90.35C2.90003 90.85 2.85003 91.7 3.35003 92.25C3.62003 92.55 3.98003 92.7 4.35003 92.7C4.67003 92.7 4.99003 92.59 5.25003 92.35L21.47 77.74L23.09 76.28L25.72 73.91H25.73Z" fill="#4279B6"/>
  <path d="M97.2 7.75002C96.7 7.20002 95.85 7.15002 95.3 7.65002L85.66 16.33L83.92 17.9L81.09 20.45L79.78 21.63L66.38 33.7C66.38 33.7 66.45 33.77 66.49 33.8C67.1 34.41 67.66 35.05 68.19 35.7L80.25 24.84L81.87 23.38L85.38 20.22L87.54 18.28L97.12 9.65002C97.67 9.15002 97.72 8.30002 97.22 7.75002H97.2Z" fill="#4279B6"/>
  <path d="M41.44 56.14C41.54 56.3 41.65 56.45 41.79 56.58L43.3 58.09L43.69 58.48C44.19 58.98 44.84 59.21 45.49 59.2C46.11 59.19 46.72 58.95 47.19 58.48L50.27 55.4L53.35 58.48C53.83 58.96 54.47 59.2 55.1 59.2C55.73 59.2 56.37 58.96 56.85 58.48L58.75 56.58C59.72 55.61 59.72 54.04 58.75 53.08L55.69 50.02L55.67 50L58.75 46.92C59.58 46.09 59.69 44.82 59.1 43.86C59 43.7 58.89 43.55 58.75 43.42L57.24 41.91L56.85 41.52C56.35 41.02 55.7 40.79 55.05 40.8C54.43 40.81 53.82 41.05 53.35 41.52L50.27 44.6L47.19 41.52C46.22 40.55 44.65 40.55 43.69 41.52L41.79 43.42C40.82 44.39 40.82 45.96 41.79 46.92L44.85 49.98L44.87 50L41.79 53.08C40.96 53.91 40.85 55.18 41.44 56.14ZM47.16 50.76C47.58 50.34 47.58 49.66 47.16 49.23L46.46 48.53L43.32 45.39C43.2 45.27 43.2 45.06 43.32 44.94L45.22 43.04C45.34 42.92 45.55 42.92 45.67 43.04L48.94 46.31L49.52 46.89C49.94 47.31 50.62 47.31 51.05 46.89L54.89 43.05C55.01 42.93 55.22 42.93 55.34 43.05L55.65 43.36L57.24 44.95C57.36 45.07 57.36 45.28 57.24 45.4L55.67 46.97L53.39 49.25C52.97 49.67 52.97 50.35 53.39 50.78L54.09 51.48L57.23 54.62C57.35 54.74 57.35 54.95 57.23 55.07L55.33 56.97C55.21 57.09 55 57.09 54.88 56.97L51.61 53.7L51.03 53.12C50.82 52.91 50.54 52.8 50.27 52.8C50 52.8 49.72 52.91 49.51 53.12L45.67 56.96C45.55 57.08 45.34 57.08 45.22 56.96L44.91 56.65L43.32 55.06C43.2 54.94 43.2 54.73 43.32 54.61L44.89 53.04L47.16 50.77V50.76Z" fill="#4279B6"/>
</svg>
