<svg xmlns="http://www.w3.org/2000/svg" width="100" height="100" viewBox="0 0 100 100" fill="none">
  <path d="M15.2 45.69C15.08 45.72 14.99 45.82 14.98 45.94C14.82 47.27 14.72 48.62 14.72 50C14.72 51.38 14.82 52.72 14.98 54.06C14.99 54.18 15.08 54.28 15.2 54.31L19.18 55.31C19.29 55.34 19.37 55.43 19.4 55.54C19.71 57.25 20.16 58.91 20.73 60.52C20.77 60.63 20.74 60.75 20.66 60.83L17.69 63.7C17.6 63.79 17.57 63.92 17.62 64.03C18.71 66.53 20.1 68.87 21.71 71.03C21.78 71.13 21.91 71.17 22.03 71.14L25.94 70.02C26.05 69.99 26.17 70.02 26.24 70.11C27.36 71.43 28.58 72.65 29.9 73.77C29.99 73.84 30.02 73.96 29.99 74.07L28.87 77.98C28.84 78.1 28.87 78.22 28.98 78.3C31.14 79.91 33.47 81.3 35.98 82.39C36.09 82.44 36.22 82.41 36.31 82.32L39.18 79.35C39.26 79.27 39.38 79.24 39.49 79.28C41.09 79.86 42.75 80.31 44.47 80.61C44.58 80.63 44.67 80.71 44.7 80.83L45.7 84.81C45.73 84.93 45.83 85.02 45.95 85.03C47.28 85.19 48.63 85.29 50.01 85.29C51.39 85.29 52.73 85.19 54.07 85.03C54.19 85.02 54.29 84.93 54.32 84.81L55.32 80.83C55.35 80.72 55.44 80.64 55.55 80.61C57.26 80.3 58.92 79.85 60.53 79.28C60.64 79.24 60.76 79.27 60.84 79.35L63.71 82.32C63.8 82.41 63.93 82.44 64.04 82.39C66.54 81.3 68.88 79.91 71.04 78.3C71.14 78.23 71.18 78.1 71.15 77.98L70.03 74.07C70 73.96 70.03 73.84 70.12 73.77C71.44 72.65 72.66 71.43 73.78 70.11C73.85 70.02 73.97 69.99 74.08 70.02L77.99 71.14C78.11 71.17 78.23 71.14 78.31 71.03C79.92 68.87 81.31 66.54 82.4 64.03C82.45 63.92 82.42 63.79 82.33 63.7L79.36 60.83C79.28 60.75 79.25 60.63 79.29 60.52C79.87 58.92 80.32 57.26 80.62 55.54C80.64 55.43 80.72 55.34 80.84 55.31L84.82 54.31C84.94 54.28 85.03 54.18 85.04 54.06C85.2 52.73 85.3 51.38 85.3 50C85.3 48.62 85.2 47.28 85.04 45.94C85.03 45.82 84.94 45.72 84.82 45.69L80.84 44.69C80.73 44.66 80.65 44.57 80.62 44.46C80.31 42.75 79.86 41.09 79.29 39.48C79.25 39.37 79.28 39.25 79.36 39.17L82.33 36.3C82.42 36.21 82.45 36.08 82.4 35.97C81.31 33.47 79.92 31.13 78.31 28.97C78.24 28.87 78.11 28.83 77.99 28.86L74.08 29.98C73.97 30.01 73.85 29.98 73.78 29.89C72.66 28.57 71.44 27.35 70.12 26.23C70.03 26.16 70 26.04 70.03 25.93L71.15 22.02C71.18 21.9 71.15 21.78 71.04 21.7C68.88 20.09 66.55 18.7 64.04 17.61C63.93 17.56 63.8 17.59 63.71 17.68L60.84 20.65C60.76 20.73 60.64 20.76 60.53 20.72C58.93 20.14 57.27 19.69 55.55 19.39C55.44 19.37 55.35 19.29 55.32 19.17L54.32 15.19C54.29 15.07 54.19 14.98 54.07 14.97C52.74 14.81 51.39 14.71 50.01 14.71C48.63 14.71 47.29 14.81 45.95 14.97C45.83 14.98 45.73 15.07 45.7 15.19L44.7 19.17C44.67 19.28 44.58 19.36 44.47 19.39C42.76 19.7 41.1 20.15 39.49 20.72C39.38 20.76 39.26 20.73 39.18 20.65L36.31 17.68C36.22 17.59 36.09 17.56 35.98 17.61C33.48 18.7 31.14 20.09 28.98 21.7C28.88 21.77 28.84 21.9 28.87 22.02L29.99 25.93C30.02 26.04 29.99 26.16 29.9 26.23C28.58 27.35 27.36 28.57 26.24 29.89C26.17 29.98 26.05 30.01 25.94 29.98L22.03 28.86C21.91 28.83 21.79 28.86 21.71 28.97C20.1 31.13 18.71 33.46 17.62 35.97C17.57 36.08 17.6 36.21 17.69 36.3L20.66 39.17C20.74 39.25 20.77 39.37 20.73 39.48C20.15 41.08 19.7 42.74 19.4 44.46C19.38 44.57 19.3 44.66 19.18 44.69L15.2 45.69Z" fill="#4279B6"/>
  <path d="M50 86.01C48.73 86.01 47.38 85.92 45.86 85.75C45.44 85.7 45.09 85.39 44.98 84.98L44.05 81.27C42.52 80.98 40.99 80.57 39.5 80.05L36.82 82.82C36.53 83.13 36.07 83.22 35.68 83.05C33.23 81.98 30.82 80.58 28.54 78.87C28.2 78.62 28.05 78.17 28.17 77.77L29.21 74.13C28.02 73.1 26.9 71.98 25.87 70.79L22.23 71.83C21.82 71.95 21.38 71.8 21.13 71.46C19.42 69.17 18.02 66.77 16.96 64.32C16.79 63.93 16.88 63.47 17.19 63.17L19.96 60.49C19.44 59 19.03 57.48 18.74 55.94L15.03 55.01C14.62 54.91 14.31 54.56 14.26 54.14C14.08 52.62 14 51.27 14 50C14 48.73 14.09 47.38 14.26 45.86C14.31 45.44 14.62 45.09 15.03 44.98L18.74 44.05C19.03 42.52 19.44 40.99 19.96 39.5L17.19 36.82C16.88 36.53 16.79 36.07 16.96 35.68C18.03 33.23 19.43 30.82 21.14 28.54C21.39 28.2 21.84 28.05 22.24 28.17L25.88 29.21C26.91 28.02 28.03 26.9 29.22 25.87L28.18 22.23C28.06 21.82 28.21 21.38 28.55 21.13C30.84 19.42 33.24 18.02 35.69 16.96C36.08 16.79 36.54 16.88 36.84 17.19L39.52 19.96C41.01 19.44 42.53 19.03 44.07 18.74L45 15.03C45.1 14.62 45.45 14.31 45.87 14.26C47.39 14.08 48.74 14 50.01 14C51.28 14 52.63 14.09 54.15 14.26C54.57 14.31 54.92 14.62 55.03 15.03L55.96 18.74C57.49 19.03 59.02 19.44 60.51 19.96L63.19 17.19C63.48 16.88 63.94 16.79 64.33 16.96C66.78 18.03 69.19 19.43 71.47 21.14C71.81 21.39 71.96 21.84 71.84 22.24L70.8 25.88C71.99 26.91 73.11 28.03 74.14 29.22L77.78 28.18C78.19 28.06 78.63 28.21 78.88 28.55C80.59 30.84 81.99 33.24 83.05 35.69C83.22 36.08 83.13 36.54 82.82 36.84L80.05 39.52C80.57 41.01 80.98 42.53 81.27 44.07L84.98 45C85.39 45.1 85.7 45.45 85.75 45.87C85.93 47.39 86.01 48.74 86.01 50.01C86.01 51.28 85.92 52.63 85.75 54.15C85.7 54.57 85.39 54.92 84.98 55.03L81.27 55.96C80.98 57.49 80.57 59.02 80.05 60.51L82.82 63.19C83.13 63.48 83.22 63.94 83.05 64.33C81.98 66.78 80.58 69.19 78.87 71.47C78.62 71.81 78.17 71.96 77.77 71.84L74.13 70.8C73.1 71.99 71.98 73.11 70.79 74.14L71.83 77.78C71.95 78.19 71.8 78.63 71.46 78.88C69.17 80.59 66.77 81.99 64.32 83.05C63.93 83.22 63.47 83.13 63.17 82.82L60.49 80.05C59 80.57 57.48 80.98 55.94 81.27L55.01 84.98C54.91 85.39 54.56 85.7 54.14 85.75C52.62 85.93 51.27 86.01 50 86.01ZM46.33 84.33C47.67 84.48 48.87 84.55 50 84.55C51.13 84.55 52.33 84.48 53.67 84.33L54.59 80.64C54.69 80.25 55 79.95 55.4 79.88C57.04 79.59 58.67 79.15 60.26 78.58C60.64 78.44 61.06 78.54 61.34 78.83L64 81.58C66.17 80.61 68.29 79.37 70.33 77.87L69.3 74.25C69.19 73.87 69.32 73.45 69.62 73.19C70.9 72.1 72.11 70.9 73.19 69.62C73.45 69.31 73.87 69.19 74.25 69.3L77.87 70.33C79.37 68.29 80.61 66.16 81.58 64L78.83 61.34C78.54 61.06 78.44 60.64 78.58 60.26C79.15 58.67 79.59 57.04 79.88 55.4C79.95 55 80.25 54.69 80.64 54.59L84.33 53.67C84.48 52.33 84.55 51.13 84.55 50C84.55 48.87 84.48 47.67 84.33 46.33L80.64 45.41C80.25 45.31 79.95 45 79.88 44.6C79.59 42.96 79.15 41.33 78.58 39.74C78.44 39.36 78.54 38.94 78.83 38.66L81.58 36C80.61 33.83 79.37 31.71 77.87 29.67L74.25 30.7C73.87 30.81 73.45 30.68 73.19 30.38C72.1 29.1 70.9 27.89 69.62 26.81C69.31 26.55 69.19 26.13 69.3 25.75L70.33 22.13C68.29 20.63 66.16 19.39 64 18.42L61.34 21.17C61.06 21.46 60.64 21.56 60.26 21.42C58.67 20.85 57.04 20.41 55.4 20.12C55 20.05 54.69 19.75 54.59 19.36L53.67 15.67C52.33 15.52 51.13 15.45 50 15.45C48.87 15.45 47.67 15.52 46.33 15.67L45.41 19.36C45.31 19.75 45 20.05 44.6 20.12C42.96 20.41 41.33 20.85 39.74 21.42C39.36 21.56 38.94 21.46 38.66 21.17L36 18.42C33.83 19.39 31.71 20.63 29.67 22.13L30.7 25.75C30.81 26.13 30.68 26.55 30.38 26.81C29.1 27.9 27.89 29.1 26.81 30.38C26.55 30.69 26.13 30.81 25.75 30.7L22.13 29.67C20.63 31.71 19.39 33.84 18.42 36L21.17 38.66C21.46 38.94 21.56 39.36 21.42 39.74C20.85 41.33 20.41 42.96 20.12 44.6C20.05 45 19.75 45.31 19.36 45.41L15.67 46.33C15.52 47.67 15.45 48.87 15.45 50C15.45 51.13 15.52 52.33 15.67 53.67L19.36 54.59C19.75 54.69 20.05 55 20.12 55.4C20.41 57.04 20.85 58.67 21.42 60.26C21.56 60.64 21.46 61.06 21.17 61.34L18.42 64C19.39 66.17 20.63 68.29 22.13 70.33L25.75 69.3C26.13 69.19 26.55 69.32 26.81 69.62C27.9 70.9 29.1 72.11 30.38 73.19C30.69 73.45 30.81 73.87 30.7 74.25L29.67 77.87C31.71 79.37 33.84 80.61 36 81.58L38.66 78.83C38.94 78.54 39.36 78.44 39.74 78.58C41.33 79.15 42.96 79.59 44.6 79.88C45 79.95 45.31 80.25 45.41 80.64L46.33 84.33Z" fill="#0E1721"/>
  <path d="M50 75.52C64.0943 75.52 75.52 64.0943 75.52 50C75.52 35.9057 64.0943 24.48 50 24.48C35.9057 24.48 24.48 35.9057 24.48 50C24.48 64.0943 35.9057 75.52 50 75.52Z" fill="white"/>
  <path d="M50 76.25C35.53 76.25 23.75 64.48 23.75 50C23.75 35.52 35.52 23.75 50 23.75C64.48 23.75 76.25 35.52 76.25 50C76.25 64.48 64.48 76.25 50 76.25ZM50 25.21C36.33 25.21 25.21 36.33 25.21 50C25.21 63.67 36.33 74.79 50 74.79C63.67 74.79 74.79 63.67 74.79 50C74.79 36.33 63.67 25.21 50 25.21Z" fill="#0E1721"/>
  <path d="M49.9999 62.45C56.8759 62.45 62.4499 56.876 62.4499 50C62.4499 43.1241 56.8759 37.55 49.9999 37.55C43.124 37.55 37.5499 43.1241 37.5499 50C37.5499 56.876 43.124 62.45 49.9999 62.45Z" fill="#3C8645"/>
  <path d="M49.9999 63.18C42.7299 63.18 36.8199 57.27 36.8199 50C36.8199 42.73 42.7299 36.82 49.9999 36.82C57.2699 36.82 63.1799 42.73 63.1799 50C63.1799 57.27 57.2699 63.18 49.9999 63.18ZM49.9999 38.28C43.5399 38.28 38.2799 43.54 38.2799 50C38.2799 56.46 43.5399 61.72 49.9999 61.72C56.4599 61.72 61.7199 56.46 61.7199 50C61.7199 43.54 56.4599 38.28 49.9999 38.28Z" fill="#0E1721"/>
  <path d="M3.64994 50C3.64994 24.44 24.4399 3.65 49.9999 3.65C62.6299 3.65 74.5699 8.75 83.2799 17.74H79.1399C78.2499 17.74 77.5299 18.46 77.5299 19.35C77.5299 20.24 78.2499 20.96 79.1399 20.96H86.8699C87.2599 20.96 87.6199 20.82 87.8999 20.59C87.9799 20.53 88.0499 20.45 88.1099 20.38C88.1199 20.37 88.1299 20.35 88.1399 20.34C88.1899 20.27 88.2399 20.2 88.2799 20.13C88.2899 20.11 88.2999 20.09 88.3099 20.06C88.3399 19.99 88.3699 19.92 88.3999 19.84C88.3999 19.81 88.4099 19.78 88.4199 19.75C88.4299 19.69 88.4499 19.63 88.4499 19.57C88.4499 19.52 88.4499 19.48 88.4599 19.43C88.4599 19.41 88.4599 19.39 88.4599 19.37V11.64C88.4599 10.75 87.7399 10.03 86.8499 10.03C85.9599 10.03 85.2399 10.75 85.2399 11.64V15.2C75.9799 5.77 63.3499 0.440002 49.9999 0.440002C22.6699 0.440002 0.439941 22.67 0.439941 50C0.439941 58.39 2.57994 66.68 6.61994 73.98C6.90994 74.51 7.45994 74.81 8.02994 74.81C8.28994 74.81 8.55994 74.75 8.80994 74.61C9.58994 74.18 9.86994 73.2 9.43994 72.43C5.65994 65.61 3.66994 57.86 3.66994 50.01L3.64994 50Z" fill="#FC8B27"/>
  <path d="M8.02 75.24C7.28 75.24 6.59 74.84 6.23 74.19C2.15 66.83 0 58.47 0 50C0 22.43 22.43 0 50 0C63.13 0 75.46 5.01 84.83 14.13V11.62C84.83 10.49 85.75 9.57 86.88 9.57C88.01 9.57 88.93 10.49 88.93 11.62V19.35C88.93 19.35 88.93 19.4 88.93 19.42C88.93 19.49 88.93 19.55 88.91 19.61C88.9 19.69 88.88 19.77 88.87 19.84C88.86 19.89 88.85 19.92 88.84 19.95C88.81 20.04 88.78 20.13 88.73 20.23C88.71 20.27 88.7 20.29 88.69 20.31C88.64 20.4 88.58 20.49 88.52 20.58C88.5 20.61 88.49 20.62 88.48 20.64C88.41 20.73 88.32 20.82 88.23 20.9C88.23 20.9 88.22 20.9 88.21 20.91C88.21 20.91 88.2 20.92 88.19 20.93C87.83 21.23 87.36 21.4 86.89 21.4H79.16C78.03 21.4 77.11 20.48 77.11 19.35C77.11 18.22 78.03 17.3 79.16 17.3H82.25C73.61 8.77 62.21 4.08 50.02 4.08C24.69 4.09 4.09 24.69 4.09 50C4.09 57.77 6.07 65.45 9.81 72.21C10.07 72.69 10.14 73.24 9.99 73.77C9.84 74.3 9.49 74.73 9.02 74.99C8.72 75.16 8.38 75.25 8.03 75.25L8.02 75.24ZM50 0.88C22.91 0.88 0.88 22.91 0.88 50C0.88 58.32 3 66.53 7 73.77C7.21 74.14 7.6 74.37 8.02 74.37C8.22 74.37 8.41 74.32 8.58 74.22C8.85 74.07 9.05 73.82 9.14 73.52C9.23 73.22 9.19 72.9 9.04 72.63C5.23 65.74 3.21 57.92 3.21 50C3.21 24.2 24.2 3.21 50 3.21C62.78 3.21 74.71 8.26 83.59 17.44C83.71 17.57 83.75 17.75 83.68 17.92C83.61 18.08 83.45 18.19 83.28 18.19H79.14C78.5 18.19 77.97 18.71 77.97 19.36C77.97 20.01 78.49 20.53 79.14 20.53H86.87C87.14 20.53 87.4 20.43 87.61 20.26C87.67 20.21 87.72 20.16 87.76 20.1C87.76 20.1 87.78 20.07 87.79 20.06C87.83 20.01 87.86 19.96 87.89 19.91L87.91 19.86C87.93 19.81 87.96 19.76 87.97 19.7V19.66C88 19.59 88.01 19.55 88.01 19.5C88.01 19.47 88.01 19.43 88.01 19.4V19.37V11.63C88.01 10.99 87.49 10.46 86.84 10.46C86.19 10.46 85.67 10.98 85.67 11.63V15.19C85.67 15.37 85.56 15.53 85.4 15.6C85.24 15.67 85.05 15.63 84.92 15.5C75.67 6.07 63.25 0.88 50 0.88Z" fill="#0E1721"/>
  <path d="M91.57 23C91.09 22.26 90.09 22.05 89.35 22.53C88.61 23.01 88.4 24.01 88.88 24.75C93.77 32.26 96.36 40.99 96.36 50C96.36 75.56 75.57 96.35 50.01 96.35C36.35 96.35 23.74 90.53 14.92 80.28H19.33C20.22 80.28 20.94 79.56 20.94 78.67C20.94 77.78 20.22 77.06 19.33 77.06H11.6C11.24 77.06 10.9 77.18 10.63 77.38H10.62C10.62 77.38 10.62 77.38 10.61 77.39C10.55 77.44 10.49 77.49 10.43 77.55C10.09 77.9 9.93999 78.38 9.98999 78.85V86.38C9.98999 87.27 10.71 87.99 11.6 87.99C12.49 87.99 13.21 87.27 13.21 86.38V83.15C17.25 87.62 22.1 91.37 27.45 94.1C34.48 97.7 42.07 99.52 50.02 99.52C77.35 99.52 99.58 77.29 99.58 49.96C99.58 40.33 96.81 30.99 91.58 22.96L91.57 23Z" fill="#FCCD2A"/>
  <path d="M50 100C41.98 100 34.32 98.16 27.23 94.53C22.23 91.97 17.54 88.44 13.63 84.31V86.42C13.63 87.55 12.71 88.47 11.58 88.47C10.45 88.47 9.52998 87.55 9.52998 86.42V78.91C9.46998 78.3 9.66998 77.71 10.09 77.28C10.15 77.21 10.22 77.15 10.3 77.09C10.31 77.09 10.32 77.07 10.33 77.06C10.33 77.06 10.35 77.05 10.36 77.04C10.71 76.78 11.13 76.64 11.57 76.64H19.3C20.43 76.64 21.35 77.56 21.35 78.69C21.35 79.82 20.43 80.74 19.3 80.74H15.86C20.09 85.46 25.11 89.17 30.8 91.78C36.8 94.53 43.25 95.93 49.98 95.93C75.29 95.93 95.89 75.33 95.89 50.02C95.89 41.1 93.33 32.45 88.49 25.01C87.87 24.06 88.14 22.8 89.09 22.18C90.04 21.57 91.3 21.83 91.92 22.78C97.2 30.89 99.99 40.31 99.99 50.02C99.99 77.59 77.56 100.02 49.99 100.02L50 100ZM13.19 82.75C13.31 82.75 13.43 82.8 13.52 82.89C17.51 87.31 22.39 91.06 27.63 93.75C34.59 97.32 42.12 99.13 50 99.13C77.09 99.13 99.12 77.09 99.12 50.01C99.12 40.47 96.38 31.21 91.19 23.24C90.84 22.7 90.11 22.55 89.57 22.9C89.31 23.07 89.13 23.33 89.06 23.64C89 23.95 89.06 24.26 89.22 24.52C94.16 32.1 96.77 40.92 96.77 50.01C96.77 75.81 75.78 96.8 49.98 96.8C43.13 96.8 36.56 95.38 30.44 92.57C24.34 89.77 19 85.74 14.56 80.58C14.45 80.45 14.42 80.27 14.49 80.11C14.56 79.95 14.72 79.85 14.89 79.85H19.3C19.94 79.85 20.47 79.33 20.47 78.68C20.47 78.03 19.95 77.51 19.3 77.51H11.57C11.32 77.51 11.07 77.59 10.87 77.75C10.87 77.75 10.87 77.75 10.86 77.75C10.86 77.75 10.86 77.75 10.85 77.76C10.81 77.79 10.77 77.83 10.73 77.87C10.48 78.13 10.37 78.47 10.41 78.82C10.41 78.84 10.41 78.85 10.41 78.87V86.4C10.41 87.04 10.93 87.57 11.58 87.57C12.23 87.57 12.75 87.05 12.75 86.4V83.17C12.75 82.99 12.86 82.83 13.03 82.76C13.08 82.74 13.13 82.73 13.19 82.73V82.75Z" fill="#0E1721"/>
</svg>
