<svg xmlns="http://www.w3.org/2000/svg" width="100" height="100" viewBox="0 0 100 100" fill="none">
  <path d="M50 86.98C48.7 86.98 47.31 86.89 45.75 86.71C45.32 86.66 44.96 86.34 44.85 85.92L43.9 82.11C42.33 81.81 40.76 81.39 39.23 80.86L36.48 83.7C36.18 84.01 35.7 84.11 35.3 83.94C32.78 82.85 30.31 81.4 27.96 79.65C27.61 79.39 27.46 78.93 27.58 78.52L28.65 74.78C27.43 73.72 26.27 72.57 25.22 71.35L21.48 72.42C21.06 72.54 20.61 72.39 20.35 72.04C18.6 69.69 17.16 67.22 16.06 64.7C15.89 64.3 15.98 63.82 16.3 63.52L19.14 60.77C18.61 59.24 18.19 57.67 17.89 56.1L14.08 55.15C13.66 55.04 13.34 54.68 13.29 54.25C13.11 52.69 13.02 51.3 13.02 50C13.02 48.7 13.11 47.31 13.29 45.75C13.34 45.32 13.66 44.96 14.08 44.85L17.89 43.9C18.19 42.33 18.61 40.76 19.14 39.23L16.3 36.48C15.99 36.18 15.89 35.7 16.06 35.3C17.15 32.78 18.6 30.31 20.35 27.96C20.61 27.61 21.07 27.46 21.48 27.58L25.22 28.65C26.28 27.43 27.43 26.27 28.65 25.22L27.58 21.48C27.46 21.06 27.61 20.61 27.96 20.35C30.31 18.6 32.78 17.16 35.3 16.06C35.7 15.89 36.18 15.98 36.48 16.3L39.23 19.14C40.76 18.61 42.33 18.19 43.9 17.89L44.85 14.08C44.96 13.66 45.32 13.34 45.75 13.29C47.31 13.11 48.7 13.02 50 13.02C51.3 13.02 52.69 13.11 54.25 13.29C54.68 13.34 55.04 13.66 55.15 14.08L56.1 17.89C57.67 18.19 59.24 18.61 60.77 19.14L63.52 16.3C63.82 15.99 64.29 15.89 64.7 16.06C67.22 17.15 69.69 18.6 72.04 20.35C72.39 20.61 72.54 21.07 72.42 21.48L71.35 25.22C72.57 26.28 73.73 27.43 74.78 28.65L78.52 27.58C78.94 27.46 79.39 27.61 79.65 27.96C81.4 30.31 82.84 32.78 83.94 35.3C84.11 35.7 84.02 36.18 83.7 36.48L80.86 39.23C81.39 40.76 81.81 42.33 82.11 43.9L85.92 44.85C86.34 44.96 86.66 45.32 86.71 45.75C86.89 47.31 86.98 48.7 86.98 50C86.98 51.3 86.89 52.69 86.71 54.25C86.66 54.68 86.34 55.04 85.92 55.15L82.11 56.1C81.81 57.67 81.39 59.24 80.86 60.77L83.7 63.52C84.01 63.82 84.11 64.3 83.94 64.7C82.85 67.22 81.4 69.69 79.65 72.04C79.39 72.39 78.94 72.54 78.52 72.42L74.78 71.35C73.72 72.57 72.57 73.73 71.35 74.78L72.42 78.52C72.54 78.94 72.39 79.39 72.04 79.65C69.69 81.4 67.22 82.84 64.7 83.94C64.3 84.11 63.82 84.02 63.52 83.7L60.77 80.86C59.24 81.39 57.67 81.81 56.1 82.11L55.15 85.92C55.04 86.34 54.68 86.66 54.25 86.71C52.69 86.89 51.3 86.98 50 86.98ZM46.23 85.26C47.61 85.41 48.84 85.48 50 85.48C51.16 85.48 52.39 85.41 53.77 85.26L54.72 81.47C54.82 81.07 55.15 80.77 55.55 80.69C57.23 80.39 58.91 79.94 60.54 79.35C60.93 79.21 61.36 79.31 61.65 79.61L64.39 82.44C66.61 81.45 68.8 80.17 70.9 78.63L69.84 74.91C69.73 74.52 69.86 74.09 70.17 73.82C71.49 72.7 72.72 71.47 73.84 70.15C74.11 69.84 74.53 69.7 74.93 69.82L78.65 70.88C80.19 68.79 81.46 66.6 82.46 64.37L79.63 61.63C79.33 61.34 79.23 60.91 79.37 60.52C79.96 58.89 80.41 57.21 80.71 55.53C80.78 55.12 81.09 54.8 81.49 54.7L85.28 53.75C85.43 52.37 85.5 51.14 85.5 49.98C85.5 48.82 85.43 47.59 85.28 46.21L81.49 45.26C81.09 45.16 80.79 44.83 80.71 44.43C80.41 42.75 79.96 41.07 79.37 39.44C79.23 39.05 79.33 38.62 79.63 38.33L82.46 35.59C81.47 33.37 80.19 31.18 78.65 29.08L74.93 30.14C74.54 30.25 74.11 30.12 73.84 29.81C72.72 28.49 71.49 27.26 70.17 26.14C69.86 25.87 69.73 25.45 69.84 25.05L70.9 21.33C68.81 19.79 66.62 18.52 64.39 17.52L61.65 20.35C61.36 20.65 60.93 20.75 60.54 20.61C58.91 20.02 57.23 19.57 55.55 19.27C55.14 19.2 54.82 18.89 54.72 18.49L53.77 14.7C52.39 14.55 51.16 14.48 50 14.48C48.84 14.48 47.61 14.55 46.23 14.7L45.28 18.49C45.18 18.89 44.85 19.19 44.45 19.27C42.77 19.57 41.09 20.02 39.46 20.61C39.07 20.75 38.64 20.65 38.35 20.35L35.61 17.52C33.39 18.51 31.2 19.79 29.1 21.33L30.16 25.05C30.27 25.44 30.14 25.87 29.83 26.14C28.51 27.26 27.28 28.49 26.16 29.81C25.89 30.12 25.47 30.25 25.07 30.14L21.35 29.08C19.81 31.17 18.54 33.36 17.54 35.59L20.37 38.33C20.67 38.62 20.77 39.05 20.63 39.44C20.04 41.07 19.59 42.75 19.29 44.43C19.22 44.84 18.91 45.16 18.51 45.26L14.72 46.21C14.57 47.59 14.5 48.82 14.5 49.98C14.5 51.14 14.57 52.37 14.72 53.75L18.51 54.7C18.91 54.8 19.21 55.13 19.29 55.53C19.59 57.21 20.04 58.89 20.63 60.52C20.77 60.91 20.67 61.34 20.37 61.63L17.54 64.37C18.53 66.59 19.81 68.78 21.35 70.88L25.07 69.82C25.46 69.71 25.89 69.84 26.16 70.15C27.28 71.47 28.51 72.7 29.83 73.82C30.14 74.09 30.27 74.51 30.16 74.91L29.1 78.63C31.19 80.17 33.38 81.44 35.61 82.44L38.35 79.61C38.64 79.31 39.07 79.21 39.46 79.35C41.09 79.94 42.77 80.39 44.45 80.69C44.86 80.76 45.18 81.07 45.28 81.47L46.23 85.26Z" fill="#4279B6"/>
  <path d="M50 76.95C35.14 76.95 23.05 64.86 23.05 50C23.05 35.14 35.14 23.05 50 23.05C64.8601 23.05 76.95 35.14 76.95 50C76.95 64.86 64.8601 76.95 50 76.95ZM50 24.55C35.96 24.55 24.55 35.97 24.55 50C24.55 64.03 35.97 75.45 50 75.45C64.03 75.45 75.45 64.03 75.45 50C75.45 35.97 64.03 24.55 50 24.55Z" fill="#4279B6"/>
  <path d="M50 63.54C42.54 63.54 36.46 57.47 36.46 50C36.46 42.53 42.53 36.46 50 36.46C57.47 36.46 63.54 42.53 63.54 50C63.54 57.47 57.47 63.54 50 63.54ZM50 37.96C43.36 37.96 37.96 43.36 37.96 50C37.96 56.64 43.36 62.04 50 62.04C56.64 62.04 62.04 56.64 62.04 50C62.04 43.36 56.64 37.96 50 37.96Z" fill="#2D557F"/>
  <path d="M6.89 74.58C6.63 74.58 6.37 74.44 6.23 74.19C2.15 66.83 0 58.47 0 50C0 22.43 22.43 0 50 0C64.9 0 78.92 6.58 88.46 18.04C88.72 18.36 88.68 18.83 88.36 19.1C88.04 19.36 87.57 19.32 87.3 19C78.05 7.88 64.45 1.5 50 1.5C23.26 1.5 1.5 23.26 1.5 50C1.5 58.21 3.59 66.33 7.54 73.46C7.74 73.82 7.61 74.28 7.25 74.48C7.13 74.54 7.01 74.57 6.89 74.57V74.58Z" fill="#2D557F"/>
  <path d="M50.0001 100C41.9801 100 34.3201 98.16 27.2301 94.53C20.4701 91.07 14.4901 86.01 9.93006 79.91C9.68006 79.58 9.75006 79.11 10.0801 78.86C10.4101 78.61 10.8801 78.68 11.1301 79.01C15.5501 84.93 21.3601 89.83 27.9201 93.19C34.7901 96.71 42.2201 98.5 50.0001 98.5C76.7401 98.5 98.5001 76.74 98.5001 50C98.5001 40.58 95.7901 31.44 90.6801 23.58C90.4501 23.23 90.5501 22.77 90.9001 22.54C91.2501 22.31 91.7101 22.41 91.9401 22.76C97.2201 30.87 100.01 40.29 100.01 50C100.01 77.57 77.5801 100 50.0101 100H50.0001Z" fill="#2D557F"/>
  <path d="M87.8701 19.27H79.9301C79.5201 19.27 79.1801 18.93 79.1801 18.52C79.1801 18.11 79.5201 17.77 79.9301 17.77H87.1201V10.58C87.1201 10.17 87.4601 9.82999 87.8701 9.82999C88.2801 9.82999 88.6201 10.17 88.6201 10.58V18.52C88.6201 18.93 88.2801 19.27 87.8701 19.27Z" fill="#2D557F"/>
  <path d="M10.55 88.14C10.14 88.14 9.80005 87.8 9.80005 87.39V79.45C9.80005 79.04 10.14 78.7 10.55 78.7H18.49C18.9 78.7 19.24 79.04 19.24 79.45C19.24 79.86 18.9 80.2 18.49 80.2H11.3V87.39C11.3 87.8 10.96 88.14 10.55 88.14Z" fill="#2D557F"/>
</svg>
