<svg xmlns="http://www.w3.org/2000/svg" width="100" height="100" viewBox="0 0 100 100" fill="none">
  <path d="M91.43 39.23V95.55C91.43 97.62 89.75 99.29 87.69 99.29H11.45C9.37996 99.29 7.70996 97.61 7.70996 95.55V39.23H91.43Z" fill="white"/>
  <path d="M87.68 100H11.45C9 100 7 98 7 95.55V39.23C7 38.84 7.32 38.53 7.7 38.53H91.42C91.81 38.53 92.12 38.85 92.12 39.23V95.55C92.12 98 90.12 100 87.67 100H87.68ZM8.41 39.94V95.56C8.41 97.24 9.77 98.6 11.45 98.6H87.69C89.37 98.6 90.73 97.24 90.73 95.56V39.94H8.41Z" fill="#0E1721"/>
  <path d="M91.43 4.45V39.23H7.69995V4.45C7.69995 2.38 9.37995 0.699997 11.45 0.699997H87.69C89.76 0.699997 91.43 2.38 91.43 4.44V4.45Z" fill="#4279B6"/>
  <path d="M91.43 39.94H7.7C7.31 39.94 7 39.62 7 39.24V4.45C7 2 9 0 11.45 0H87.69C90.14 0 92.14 2 92.14 4.45V39.23C92.14 39.62 91.82 39.93 91.44 39.93L91.43 39.94ZM8.41 38.53H90.73V4.45C90.73 2.77 89.37 1.41 87.69 1.41H11.45C9.77 1.41 8.41 2.77 8.41 4.45V38.53Z" fill="#0E1721"/>
  <path d="M74.3599 48.24H24.7699C24.3799 48.24 24.0699 47.92 24.0699 47.54C24.0699 47.16 24.3899 46.84 24.7699 46.84H74.3499C74.7399 46.84 75.0499 47.16 75.0499 47.54C75.0499 47.92 74.7299 48.24 74.3499 48.24H74.3599Z" fill="#0E1721"/>
  <path d="M74.3599 56.18H24.7699C24.3799 56.18 24.0699 55.86 24.0699 55.48C24.0699 55.1 24.3899 54.78 24.7699 54.78H74.3499C74.7399 54.78 75.0499 55.1 75.0499 55.48C75.0499 55.86 74.7299 56.18 74.3499 56.18H74.3599Z" fill="#0E1721"/>
  <path d="M74.3599 64.11H24.7699C24.3799 64.11 24.0699 63.79 24.0699 63.41C24.0699 63.03 24.3899 62.71 24.7699 62.71H74.3499C74.7399 62.71 75.0499 63.03 75.0499 63.41C75.0499 63.79 74.7299 64.11 74.3499 64.11H74.3599Z" fill="#0E1721"/>
  <path d="M49.57 93.62C55.5678 93.62 60.43 88.7578 60.43 82.76C60.43 76.7622 55.5678 71.9 49.57 71.9C43.5721 71.9 38.71 76.7622 38.71 82.76C38.71 88.7578 43.5721 93.62 49.57 93.62Z" fill="#3C8645"/>
  <path d="M49.57 94.33C43.19 94.33 38 89.14 38 82.76C38 76.38 43.19 71.19 49.57 71.19C55.95 71.19 61.14 76.38 61.14 82.76C61.14 89.14 55.95 94.33 49.57 94.33ZM49.57 72.61C43.97 72.61 39.41 77.17 39.41 82.77C39.41 88.37 43.97 92.93 49.57 92.93C55.17 92.93 59.73 88.37 59.73 82.77C59.73 77.17 55.17 72.61 49.57 72.61Z" fill="#0E1721"/>
  <path d="M55.75 79.59C55.48 79.31 55.03 79.31 54.75 79.59L48.49 85.75L45.29 82.55C45.01 82.27 44.57 82.27 44.29 82.55C44.01 82.83 44.01 83.27 44.29 83.55L47.98 87.24C48.12 87.38 48.3 87.45 48.48 87.45C48.66 87.45 48.84 87.38 48.97 87.25L55.72 80.61C56 80.34 56 79.89 55.72 79.61L55.75 79.59Z" fill="white"/>
  <path d="M58.9199 7.82H40.2C38.5431 7.82 37.2 9.16314 37.2 10.82V29.54C37.2 31.1969 38.5431 32.54 40.2 32.54H58.9199C60.5768 32.54 61.9199 31.1969 61.9199 29.54V10.82C61.9199 9.16314 60.5768 7.82 58.9199 7.82Z" fill="white"/>
  <path d="M58.92 33.24H40.2C38.16 33.24 36.49 31.58 36.49 29.53V10.82C36.49 8.78 38.15 7.11 40.2 7.11H58.92C60.96 7.11 62.63 8.77 62.63 10.82V29.53C62.63 31.57 60.97 33.24 58.92 33.24ZM40.21 8.52C38.94 8.52 37.91 9.55 37.91 10.82V29.53C37.91 30.8 38.94 31.83 40.21 31.83H58.93C60.2 31.83 61.23 30.8 61.23 29.53V10.82C61.23 9.55 60.2 8.52 58.93 8.52H40.21Z" fill="#0E1721"/>
  <path d="M49.5499 24.13C45.3199 24.13 41.9299 27.89 41.9299 32.54H57.2099C57.2099 27.9 53.7699 24.13 49.5499 24.13Z" fill="#FCCD2A"/>
  <path d="M57.21 33.25H41.93C41.54 33.25 41.23 32.93 41.23 32.55C41.23 27.53 44.97 23.44 49.56 23.44C54.15 23.44 57.92 27.53 57.92 32.55C57.92 32.94 57.6 33.25 57.22 33.25H57.21ZM42.66 31.84H56.48C56.16 27.92 53.17 24.84 49.55 24.84C45.93 24.84 42.98 27.92 42.66 31.84Z" fill="#0E1721"/>
  <path d="M54.15 18.11C54.15 20.65 52.09 22.7 49.54 22.7C46.99 22.7 44.98 20.65 44.98 18.11C44.98 15.57 47.04 13.52 49.54 13.52C52.04 13.52 54.15 15.58 54.15 18.11Z" fill="#FCCD2A"/>
  <path d="M49.54 23.41C46.64 23.41 44.27 21.04 44.27 18.12C44.27 15.2 46.63 12.83 49.54 12.83C52.45 12.83 54.85 15.2 54.85 18.12C54.85 21.04 52.47 23.41 49.54 23.41ZM49.54 14.23C47.41 14.23 45.68 15.97 45.68 18.11C45.68 20.25 47.41 21.99 49.54 21.99C51.67 21.99 53.44 20.25 53.44 18.11C53.44 15.97 51.69 14.23 49.54 14.23Z" fill="#0E1721"/>
</svg>
