<svg xmlns="http://www.w3.org/2000/svg" width="100" height="100" viewBox="0 0 100 100" fill="none">
  <path d="M87.3701 39.94H11.7601C11.3701 39.94 11.0601 39.62 11.0601 39.24C11.0601 38.86 11.3801 38.54 11.7601 38.54H87.3801C87.7701 38.54 88.0801 38.86 88.0801 39.24C88.0801 39.62 87.7601 39.94 87.3801 39.94H87.3701Z" fill="#4279B6"/>
  <path d="M87.68 100H11.45C9 100 7 98 7 95.55V4.45C7 2 9 0 11.45 0H87.69C90.14 0 92.14 2 92.14 4.45V95.55C92.14 98 90.14 100 87.69 100H87.68ZM11.45 1.41C9.77 1.41 8.41 2.77 8.41 4.45V95.55C8.41 97.23 9.77 98.59 11.45 98.59H87.69C89.37 98.59 90.73 97.23 90.73 95.55V4.45C90.73 2.77 89.37 1.41 87.69 1.41H11.45Z" fill="#4279B6"/>
  <path d="M74.3601 58.43H24.7701C24.3801 58.43 24.0701 58.11 24.0701 57.73C24.0701 57.35 24.3901 57.03 24.7701 57.03H74.3501C74.7401 57.03 75.0501 57.35 75.0501 57.73C75.0501 58.11 74.7301 58.43 74.3501 58.43H74.3601Z" fill="#2D557F"/>
  <path d="M51.72 23.78C53.56 22.94 54.86 21.1 54.86 18.96C54.86 16.04 52.48 13.66 49.54 13.66C46.6 13.66 44.28 16.04 44.28 18.96C44.28 21.1 45.56 22.94 47.4 23.78C44.06 24.76 41.52 27.96 41.26 31.84H42.66C42.98 27.92 45.96 24.84 49.56 24.84C53.16 24.84 56.16 27.92 56.48 31.84H57.88C57.62 27.96 55.08 24.76 51.72 23.78ZM49.54 22.84C47.42 22.84 45.7 21.1 45.7 18.96C45.7 16.82 47.42 15.08 49.54 15.08C51.66 15.08 53.46 16.82 53.46 18.96C53.46 21.1 51.7 22.84 49.54 22.84Z" fill="#2D557F"/>
  <path d="M58.94 7.12H40.22C38.16 7.12 36.5 8.78 36.5 10.82V29.54C36.5 31.58 38.16 33.24 40.22 33.24H58.94C60.98 33.24 62.64 31.58 62.64 29.54V10.82C62.64 8.78 60.98 7.12 58.94 7.12ZM61.22 29.54C61.22 30.8 60.2 31.84 58.94 31.84H40.22C38.94 31.84 37.92 30.8 37.92 29.54V10.82C37.92 9.56 38.94 8.52 40.22 8.52H58.94C60.2 8.52 61.22 9.56 61.22 10.82V29.54Z" fill="#4279B6"/>
  <path d="M74.3601 64.11H24.7701C24.3801 64.11 24.0701 63.79 24.0701 63.41C24.0701 63.03 24.3901 62.71 24.7701 62.71H74.3501C74.7401 62.71 75.0501 63.03 75.0501 63.41C75.0501 63.79 74.7301 64.11 74.3501 64.11H74.3601Z" fill="#2D557F"/>
  <path d="M49.57 71.2C43.19 71.2 38 76.39 38 82.77C38 89.15 43.19 94.34 49.57 94.34C55.95 94.34 61.14 89.15 61.14 82.77C61.14 76.39 55.95 71.2 49.57 71.2ZM49.57 92.92C43.97 92.92 39.41 88.36 39.41 82.76C39.41 77.16 43.97 72.6 49.57 72.6C55.17 72.6 59.73 77.16 59.73 82.76C59.73 88.36 55.17 92.92 49.57 92.92Z" fill="#4279B6"/>
  <path d="M54.7501 79.58L48.4901 85.74L45.2901 82.54C45.0101 82.26 44.5701 82.26 44.2901 82.54C44.0101 82.82 44.0101 83.26 44.2901 83.54L47.9801 87.23C48.1201 87.37 48.3001 87.44 48.4801 87.44C48.6601 87.44 48.8401 87.37 48.9701 87.24L55.7201 80.6C56.0001 80.33 56.0001 79.88 55.7201 79.6C55.4501 79.32 55.0001 79.32 54.7201 79.6L54.7501 79.58Z" fill="#4279B6"/>
  <path d="M18.6 51.95L16.49 45.62L16.47 45.53C16.47 45.47 16.49 45.42 16.53 45.38C16.57 45.34 16.62 45.32 16.68 45.32H17.55C17.64 45.32 17.7 45.34 17.75 45.38C17.8 45.42 17.83 45.47 17.85 45.53L19.52 50.61L21.19 45.53C21.2 45.48 21.24 45.43 21.29 45.38C21.34 45.33 21.41 45.31 21.5 45.31H22.37C22.42 45.31 22.47 45.33 22.51 45.37C22.55 45.41 22.57 45.46 22.57 45.52L22.55 45.61L20.44 51.94C20.38 52.12 20.26 52.22 20.07 52.22H18.99C18.8 52.22 18.67 52.13 18.62 51.94L18.6 51.95Z" fill="#4279B6"/>
  <path d="M23.6799 52.16C23.6799 52.16 23.6099 52.06 23.6099 51.99V45.57C23.6099 45.5 23.6299 45.44 23.6699 45.39C23.7099 45.34 23.7699 45.32 23.8399 45.32H28.1799C28.2499 45.32 28.3099 45.34 28.3599 45.39C28.4099 45.44 28.4299 45.5 28.4299 45.57V46.22C28.4299 46.29 28.4099 46.35 28.3599 46.39C28.3099 46.43 28.2499 46.45 28.1799 46.45H24.9399V48.19H27.9699C28.0399 48.19 28.0999 48.21 28.1499 48.25C28.1999 48.29 28.2199 48.35 28.2199 48.42V49.03C28.2199 49.1 28.1999 49.16 28.1499 49.2C28.0999 49.24 28.0399 49.26 27.9699 49.26H24.9399V51.06H28.2599C28.3299 51.06 28.3899 51.08 28.4399 51.13C28.4899 51.18 28.5099 51.24 28.5099 51.31V51.96C28.5099 52.03 28.4899 52.09 28.4399 52.13C28.3899 52.17 28.3299 52.19 28.2599 52.19H23.8399C23.7699 52.19 23.7199 52.17 23.6699 52.12L23.6799 52.16Z" fill="#4279B6"/>
  <path d="M29.81 52.16C29.81 52.16 29.74 52.06 29.74 51.99V45.57C29.74 45.5 29.76 45.44 29.8 45.39C29.84 45.34 29.9 45.32 29.97 45.32H32.52C33.32 45.32 33.95 45.51 34.41 45.88C34.87 46.25 35.1 46.79 35.1 47.48C35.1 47.96 34.98 48.36 34.75 48.69C34.52 49.02 34.19 49.25 33.78 49.4L35.22 51.91C35.22 51.91 35.25 51.99 35.25 52.02C35.25 52.08 35.23 52.13 35.19 52.17C35.15 52.21 35.1 52.23 35.05 52.23H34.15C34.04 52.23 33.96 52.21 33.91 52.16C33.85 52.11 33.8 52.05 33.76 51.96L32.49 49.62H31.12V51.99C31.12 52.06 31.1 52.11 31.06 52.16C31.02 52.21 30.96 52.23 30.89 52.23H29.99C29.92 52.23 29.87 52.21 29.82 52.16H29.81ZM32.5 48.51C32.89 48.51 33.19 48.42 33.39 48.24C33.59 48.06 33.69 47.81 33.69 47.47C33.69 47.13 33.59 46.88 33.39 46.69C33.19 46.51 32.89 46.41 32.5 46.41H31.11V48.5H32.5V48.51Z" fill="#4279B6"/>
  <path d="M36.4399 52.16C36.4399 52.16 36.3699 52.06 36.3699 51.99V45.56C36.3699 45.49 36.3899 45.43 36.4399 45.39C36.4899 45.35 36.5399 45.33 36.6099 45.33H37.5399C37.6099 45.33 37.6699 45.35 37.7099 45.39C37.7499 45.43 37.7699 45.49 37.7699 45.56V51.99C37.7699 52.06 37.7499 52.11 37.7099 52.16C37.6699 52.21 37.6099 52.23 37.5399 52.23H36.6099C36.5399 52.23 36.4899 52.21 36.4399 52.16Z" fill="#4279B6"/>
  <path d="M39.3901 52.16C39.3901 52.16 39.3201 52.06 39.3201 51.99V45.57C39.3201 45.5 39.3401 45.44 39.3801 45.39C39.4201 45.34 39.4801 45.32 39.5501 45.32H43.8301C43.9001 45.32 43.9601 45.34 44.0101 45.39C44.0601 45.44 44.0801 45.5 44.0801 45.57V46.26C44.0801 46.33 44.0601 46.39 44.0101 46.43C43.9601 46.47 43.9001 46.49 43.8301 46.49H40.6701V48.36H43.6401C43.7101 48.36 43.7701 48.38 43.8201 48.43C43.8701 48.48 43.8901 48.54 43.8901 48.61V49.3C43.8901 49.37 43.8701 49.43 43.8201 49.47C43.7701 49.51 43.7101 49.53 43.6401 49.53H40.6701V51.97C40.6701 52.04 40.6501 52.1 40.6001 52.14C40.5501 52.18 40.4901 52.2 40.4201 52.2H39.5501C39.4801 52.2 39.4301 52.18 39.3801 52.13L39.3901 52.16Z" fill="#4279B6"/>
  <path d="M45.32 52.16C45.32 52.16 45.25 52.06 45.25 51.99V45.56C45.25 45.49 45.27 45.43 45.32 45.39C45.37 45.35 45.42 45.33 45.49 45.33H46.42C46.49 45.33 46.55 45.35 46.59 45.39C46.63 45.43 46.65 45.49 46.65 45.56V51.99C46.65 52.06 46.63 52.11 46.59 52.16C46.55 52.21 46.49 52.23 46.42 52.23H45.49C45.42 52.23 45.37 52.21 45.32 52.16Z" fill="#4279B6"/>
  <path d="M48.75 51.63C48.25 51.16 47.99 50.51 47.96 49.66C47.96 49.48 47.96 49.19 47.96 48.79C47.96 48.39 47.96 48.09 47.96 47.9C47.99 47.06 48.26 46.4 48.76 45.93C49.26 45.46 49.96 45.23 50.86 45.23C51.44 45.23 51.95 45.33 52.39 45.53C52.83 45.73 53.16 46 53.4 46.35C53.64 46.7 53.76 47.08 53.77 47.52V47.54C53.77 47.59 53.75 47.64 53.71 47.67C53.67 47.71 53.62 47.72 53.57 47.72H52.63C52.55 47.72 52.49 47.7 52.45 47.67C52.41 47.64 52.38 47.57 52.35 47.48C52.24 47.07 52.07 46.77 51.83 46.61C51.59 46.45 51.26 46.36 50.85 46.36C49.9 46.36 49.41 46.89 49.37 47.95C49.37 48.13 49.37 48.4 49.37 48.77C49.37 49.14 49.37 49.42 49.37 49.61C49.41 50.67 49.9 51.2 50.85 51.2C51.26 51.2 51.58 51.11 51.83 50.94C52.08 50.77 52.25 50.48 52.35 50.07C52.37 49.98 52.4 49.92 52.44 49.88C52.48 49.85 52.54 49.83 52.62 49.83H53.56C53.62 49.83 53.67 49.85 53.71 49.89C53.75 49.93 53.77 49.98 53.76 50.04C53.75 50.47 53.62 50.86 53.39 51.21C53.15 51.55 52.82 51.83 52.38 52.03C51.95 52.23 51.44 52.33 50.85 52.33C49.94 52.33 49.24 52.1 48.75 51.63Z" fill="#4279B6"/>
  <path d="M54.29 52.17C54.29 52.17 54.23 52.08 54.23 52.02L54.25 51.93L56.63 45.57C56.68 45.41 56.79 45.32 56.97 45.32H58.04C58.21 45.32 58.33 45.4 58.38 45.57L60.76 51.93C60.76 51.93 60.76 51.98 60.76 52.02C60.76 52.08 60.74 52.13 60.7 52.17C60.66 52.21 60.61 52.23 60.56 52.23H59.7C59.61 52.23 59.55 52.21 59.5 52.17C59.45 52.13 59.42 52.09 59.41 52.04L58.95 50.84H56.02L55.56 52.04C55.51 52.16 55.41 52.23 55.27 52.23H54.41C54.36 52.23 54.31 52.21 54.27 52.17H54.29ZM58.63 49.7L57.51 46.65L56.4 49.7H58.64H58.63Z" fill="#4279B6"/>
  <path d="M62.5599 52.16C62.5599 52.16 62.4899 52.06 62.4899 51.99V46.54H60.6699C60.5999 46.54 60.5499 46.52 60.4999 46.47C60.4499 46.42 60.4299 46.37 60.4299 46.3V45.57C60.4299 45.5 60.4499 45.44 60.4899 45.39C60.5299 45.34 60.5899 45.32 60.6599 45.32H65.6899C65.7599 45.32 65.8199 45.34 65.8699 45.39C65.9199 45.44 65.9399 45.5 65.9399 45.57V46.3C65.9399 46.37 65.9199 46.42 65.8699 46.47C65.8199 46.52 65.7599 46.54 65.6899 46.54H63.8799V51.99C63.8799 52.06 63.8599 52.11 63.8099 52.16C63.7599 52.21 63.6999 52.23 63.6299 52.23H62.7199C62.6499 52.23 62.5999 52.21 62.5499 52.16H62.5599Z" fill="#4279B6"/>
  <path d="M67.0099 52.16C67.0099 52.16 66.9399 52.06 66.9399 51.99V45.56C66.9399 45.49 66.9599 45.43 67.0099 45.39C67.0599 45.35 67.1099 45.33 67.1799 45.33H68.1099C68.1799 45.33 68.2399 45.35 68.2799 45.39C68.3199 45.43 68.3399 45.49 68.3399 45.56V51.99C68.3399 52.06 68.3199 52.11 68.2799 52.16C68.2399 52.21 68.1799 52.23 68.1099 52.23H67.1799C67.1099 52.23 67.0599 52.21 67.0099 52.16Z" fill="#4279B6"/>
  <path d="M70.4499 51.65C69.9499 51.2 69.6899 50.52 69.6599 49.63C69.6599 49.44 69.6599 49.16 69.6599 48.79C69.6599 48.42 69.6599 48.13 69.6599 47.94C69.6899 47.07 69.9599 46.4 70.4699 45.93C70.9799 45.46 71.6699 45.23 72.5399 45.23C73.4099 45.23 74.0999 45.46 74.6199 45.93C75.1399 46.4 75.4099 47.07 75.4299 47.94C75.4399 48.32 75.4499 48.6 75.4499 48.79C75.4499 48.98 75.4499 49.25 75.4299 49.63C75.3999 50.52 75.1299 51.2 74.6299 51.65C74.1299 52.1 73.4299 52.33 72.5399 52.33C71.6499 52.33 70.9499 52.1 70.4499 51.65ZM73.5899 50.79C73.8499 50.52 73.9899 50.12 74.0099 49.57C74.0199 49.18 74.0299 48.91 74.0299 48.77C74.0299 48.62 74.0299 48.35 74.0099 47.97C73.9899 47.42 73.8499 47.02 73.5899 46.75C73.3299 46.48 72.9799 46.35 72.5399 46.35C72.0999 46.35 71.7599 46.48 71.4899 46.75C71.2299 47.02 71.0899 47.42 71.0699 47.97C71.0699 48.16 71.0699 48.43 71.0699 48.77C71.0699 49.11 71.0699 49.37 71.0699 49.57C71.0899 50.12 71.2299 50.52 71.4899 50.79C71.7499 51.06 72.0999 51.19 72.5399 51.19C72.9799 51.19 73.3299 51.06 73.5899 50.79Z" fill="#4279B6"/>
  <path d="M76.81 52.16C76.81 52.16 76.74 52.06 76.74 51.99V45.57C76.74 45.5 76.76 45.44 76.8 45.39C76.84 45.34 76.9 45.32 76.97 45.32H77.73C77.81 45.32 77.87 45.33 77.91 45.36C77.95 45.39 77.99 45.43 78.02 45.47L80.86 49.89V45.56C80.86 45.49 80.88 45.43 80.92 45.38C80.96 45.33 81.02 45.31 81.09 45.31H81.92C81.99 45.31 82.05 45.33 82.1 45.38C82.15 45.43 82.17 45.49 82.17 45.56V51.97C82.17 52.04 82.15 52.1 82.1 52.15C82.05 52.2 82 52.22 81.93 52.22H81.16C81.05 52.22 80.95 52.17 80.87 52.06L78.04 47.74V51.98C78.04 52.05 78.02 52.11 77.97 52.15C77.92 52.19 77.86 52.21 77.79 52.21H76.96C76.89 52.21 76.84 52.19 76.79 52.14L76.81 52.16Z" fill="#4279B6"/>
</svg>
