<svg xmlns="http://www.w3.org/2000/svg" width="100" height="100" viewBox="0 0 100 100" fill="none">
  <path d="M87.3701 39.94H11.7601C11.3701 39.94 11.0601 39.62 11.0601 39.24C11.0601 38.86 11.3801 38.54 11.7601 38.54H87.3801C87.7701 38.54 88.0801 38.86 88.0801 39.24C88.0801 39.62 87.7601 39.94 87.3801 39.94H87.3701Z" fill="#4279B6"/>
  <path d="M87.68 100H11.45C9 100 7 98 7 95.55V4.45C7 2 9 0 11.45 0H87.69C90.14 0 92.14 2 92.14 4.45V95.55C92.14 98 90.14 100 87.69 100H87.68ZM11.45 1.41C9.77 1.41 8.41 2.77 8.41 4.45V95.55C8.41 97.23 9.77 98.59 11.45 98.59H87.69C89.37 98.59 90.73 97.23 90.73 95.55V4.45C90.73 2.77 89.37 1.41 87.69 1.41H11.45Z" fill="#4279B6"/>
  <path d="M74.3599 48.24H24.7699C24.3799 48.24 24.0699 47.92 24.0699 47.54C24.0699 47.16 24.3899 46.84 24.7699 46.84H74.3499C74.7399 46.84 75.0499 47.16 75.0499 47.54C75.0499 47.92 74.7299 48.24 74.3499 48.24H74.3599Z" fill="#2D557F"/>
  <path d="M74.3599 56.18H24.7699C24.3799 56.18 24.0699 55.86 24.0699 55.48C24.0699 55.1 24.3899 54.78 24.7699 54.78H74.3499C74.7399 54.78 75.0499 55.1 75.0499 55.48C75.0499 55.86 74.7299 56.18 74.3499 56.18H74.3599Z" fill="#2D557F"/>
  <path d="M74.3599 64.11H24.7699C24.3799 64.11 24.0699 63.79 24.0699 63.41C24.0699 63.03 24.3899 62.71 24.7699 62.71H74.3499C74.7399 62.71 75.0499 63.03 75.0499 63.41C75.0499 63.79 74.7299 64.11 74.3499 64.11H74.3599Z" fill="#2D557F"/>
  <path d="M49.57 71.2C43.19 71.2 38 76.39 38 82.77C38 89.15 43.19 94.34 49.57 94.34C55.95 94.34 61.14 89.15 61.14 82.77C61.14 76.39 55.95 71.2 49.57 71.2ZM49.57 92.92C43.97 92.92 39.41 88.36 39.41 82.76C39.41 77.16 43.97 72.6 49.57 72.6C55.17 72.6 59.73 77.16 59.73 82.76C59.73 88.36 55.17 92.92 49.57 92.92Z" fill="#4279B6"/>
  <path d="M54.75 79.58L48.49 85.74L45.29 82.54C45.01 82.26 44.57 82.26 44.29 82.54C44.01 82.82 44.01 83.26 44.29 83.54L47.98 87.23C48.12 87.37 48.3 87.44 48.48 87.44C48.66 87.44 48.84 87.37 48.97 87.24L55.72 80.6C56 80.33 56 79.88 55.72 79.6C55.45 79.32 55 79.32 54.72 79.6L54.75 79.58Z" fill="#4279B6"/>
  <path d="M51.71 23.78C53.55 22.94 54.85 21.1 54.85 18.96C54.85 16.04 52.47 13.66 49.53 13.66C46.59 13.66 44.27 16.04 44.27 18.96C44.27 21.1 45.55 22.94 47.39 23.78C44.05 24.76 41.51 27.96 41.25 31.84H42.65C42.97 27.92 45.95 24.84 49.55 24.84C53.15 24.84 56.15 27.92 56.47 31.84H57.87C57.61 27.96 55.07 24.76 51.71 23.78ZM49.53 22.84C47.41 22.84 45.69 21.1 45.69 18.96C45.69 16.82 47.41 15.08 49.53 15.08C51.65 15.08 53.45 16.82 53.45 18.96C53.45 21.1 51.69 22.84 49.53 22.84Z" fill="#2D557F"/>
  <path d="M58.93 7.12H40.21C38.15 7.12 36.49 8.78 36.49 10.82V29.54C36.49 31.58 38.15 33.24 40.21 33.24H58.93C60.97 33.24 62.63 31.58 62.63 29.54V10.82C62.63 8.78 60.97 7.12 58.93 7.12ZM61.21 29.54C61.21 30.8 60.19 31.84 58.93 31.84H40.21C38.93 31.84 37.91 30.8 37.91 29.54V10.82C37.91 9.56 38.93 8.52 40.21 8.52H58.93C60.19 8.52 61.21 9.56 61.21 10.82V29.54Z" fill="#4279B6"/>
</svg>
