<svg xmlns="http://www.w3.org/2000/svg" width="100" height="100" viewBox="0 0 100 100" fill="none">
  <path d="M62.59 68.31C61.7 68.31 60.83 68.07 60.04 67.6C57.03 65.81 53.61 64.87 50.14 64.86H50.1C46.65 64.86 43.24 65.8 40.23 67.57C39.28 68.13 38.16 68.36 37.09 68.23C36 68.09 35.01 67.59 34.21 66.8L31.82 64.41C31.28 63.86 30.88 63.25 30.64 62.57C30.4 61.87 30.32 61.14 30.4 60.38C30.48 59.61 30.72 58.91 31.1 58.29C31.46 57.69 31.99 57.16 32.64 56.74C37.95 53.32 44.01 51.51 50.16 51.51H50.2C56.37 51.51 62.41 53.34 67.69 56.79C68.33 57.2 68.85 57.73 69.23 58.35C69.6 58.95 69.83 59.65 69.91 60.42C69.99 61.19 69.91 61.92 69.66 62.61C69.42 63.28 69.02 63.9 68.47 64.45L66.08 66.84C65.29 67.64 64.29 68.13 63.2 68.27C63 68.29 62.8 68.31 62.6 68.31H62.59ZM50.1 62.99H50.15C53.95 62.99 57.7 64.03 61 65.99C61.61 66.35 62.29 66.5 62.97 66.42C63.65 66.34 64.27 66.03 64.76 65.53L67.16 63.13C67.51 62.78 67.76 62.4 67.9 61.99C68.05 61.57 68.1 61.11 68.05 60.63C68 60.14 67.85 59.7 67.63 59.33C67.4 58.95 67.08 58.62 66.67 58.36C61.69 55.11 56 53.39 50.2 53.38H50.17C44.38 53.38 38.67 55.08 33.66 58.31C33.24 58.58 32.92 58.9 32.7 59.27C32.46 59.65 32.32 60.09 32.27 60.57C32.22 61.05 32.27 61.52 32.41 61.94C32.56 62.35 32.81 62.73 33.15 63.08L35.54 65.46C36.04 65.96 36.66 66.27 37.33 66.36C38 66.44 38.68 66.3 39.29 65.94C42.58 64 46.32 62.98 50.1 62.98V62.99ZM77.85 53.02C76.77 53.02 75.71 52.66 74.84 52C67.68 46.53 59.14 43.63 50.14 43.62H50.1C41.14 43.62 32.61 46.5 25.42 51.95C24.46 52.68 23.28 53.03 22.09 52.95C20.9 52.87 19.78 52.36 18.92 51.5L16.59 49.17C16.08 48.66 15.69 48.08 15.45 47.43C15.21 46.79 15.11 46.09 15.15 45.36C15.2 44.62 15.38 43.94 15.7 43.34C16.01 42.74 16.46 42.2 17.04 41.75C26.72 34.18 38.17 30.18 50.15 30.18H50.19C62.21 30.19 73.65 34.21 83.27 41.81C83.84 42.25 84.29 42.79 84.6 43.4C84.61 43.43 84.63 43.46 84.64 43.48C84.93 44.06 85.1 44.71 85.14 45.41C85.18 46.14 85.08 46.83 84.84 47.47C84.59 48.11 84.21 48.69 83.69 49.21L81.35 51.55C80.5 52.4 79.37 52.92 78.18 53C78.16 53 78.15 53 78.13 53C78.04 53 77.94 53 77.85 53V53.02ZM50.1 41.75H50.14C59.55 41.76 68.49 44.79 75.97 50.51C76.57 50.97 77.31 51.2 78.04 51.15C78.05 51.15 78.07 51.15 78.08 51.15C78.81 51.09 79.5 50.77 80.03 50.25L82.37 47.91C82.7 47.58 82.94 47.22 83.09 46.82C83.23 46.44 83.3 46 83.27 45.54C83.24 45.07 83.13 44.65 82.94 44.28C82.93 44.26 82.92 44.24 82.91 44.21C82.72 43.86 82.45 43.55 82.11 43.29C72.82 35.96 61.79 32.07 50.19 32.06H50.15C38.59 32.06 27.53 35.92 18.19 43.23C17.82 43.52 17.54 43.85 17.35 44.21C17.15 44.58 17.04 45.01 17.01 45.48C16.98 45.94 17.05 46.38 17.19 46.77C17.34 47.16 17.58 47.52 17.91 47.85L20.24 50.18C20.78 50.71 21.48 51.04 22.21 51.09C22.95 51.14 23.69 50.92 24.29 50.46C31.8 44.76 40.73 41.75 50.1 41.75ZM92.72 38.16C91.54 38.16 90.41 37.74 89.49 36.96C78.56 27.58 64.53 22.38 49.99 22.32C35.54 22.26 21.51 27.35 10.47 36.64C9.51998 37.44 8.30998 37.85 7.06998 37.81C5.82998 37.75 4.65998 37.24 3.77998 36.35L1.46998 34.04C0.95998 33.53 0.58998 32.97 0.34998 32.35C0.10998 31.74 -1.97161e-05 31.06 0.0299803 30.34C0.0599803 29.64 0.21998 28.97 0.50998 28.37C0.78998 27.78 1.21998 27.24 1.76998 26.77C15.2 15.3 32.27 9 49.83 9C49.92 9 50.01 9 50.1 9C67.8 9.07 84.91 15.5 98.27 27.12L98.3 27.15C98.3 27.15 98.34 27.18 98.35 27.19C98.85 27.64 99.24 28.16 99.52 28.74C99.8 29.34 99.96 30 99.99 30.7C100.01 31.43 99.9 32.1 99.66 32.71C99.42 33.32 99.04 33.88 98.54 34.39L96.21 36.71C95.32 37.6 94.15 38.11 92.9 38.16C92.83 38.16 92.77 38.16 92.7 38.16H92.72ZM49.99 20.45C64.98 20.51 79.43 25.87 90.7 35.54C91.3 36.05 92.06 36.32 92.83 36.29C93.61 36.26 94.34 35.93 94.89 35.38L97.21 33.06C97.53 32.74 97.77 32.39 97.92 32.02C98.07 31.65 98.14 31.22 98.12 30.76C98.1 30.32 98 29.91 97.83 29.54C97.67 29.2 97.43 28.88 97.12 28.6L97.09 28.58C97.09 28.58 97.06 28.56 97.05 28.54C84.04 17.21 67.36 10.93 50.1 10.87C50.01 10.87 49.92 10.87 49.83 10.87C32.71 10.87 16.07 17.01 2.95998 28.18C2.60998 28.48 2.33998 28.82 2.16998 29.17C1.98998 29.55 1.88998 29.96 1.86998 30.41C1.84998 30.87 1.91998 31.29 2.06998 31.66C2.21998 32.04 2.45998 32.39 2.77998 32.72L5.09998 35.03C5.64998 35.58 6.37998 35.91 7.14998 35.94C7.92998 35.97 8.67998 35.71 9.26998 35.21C20.65 25.63 35.12 20.4 50 20.45H49.99Z" fill="#4279B6"/>
  <path d="M50.16 91.98C47.72 91.98 45.43 91.03 43.71 89.3C41.99 87.58 41.04 85.29 41.04 82.84C41.04 80.39 41.99 78.11 43.72 76.39C45.44 74.67 47.73 73.72 50.18 73.72C52.63 73.72 54.91 74.67 56.63 76.4C58.36 78.13 59.3 80.42 59.3 82.86C59.3 85.3 58.35 87.59 56.62 89.31C54.9 91.03 52.6 91.98 50.16 91.98ZM50.17 75.59C48.23 75.59 46.4 76.34 45.03 77.71C43.66 79.08 42.9 80.91 42.9 82.84C42.9 84.77 43.65 86.61 45.02 87.98C46.39 89.35 48.21 90.11 50.15 90.11C52.09 90.11 53.92 89.35 55.29 87.98C56.66 86.61 57.42 84.79 57.42 82.85C57.42 80.91 56.67 79.09 55.29 77.71C53.92 76.34 52.1 75.58 50.16 75.58L50.17 75.59Z" fill="#2D557F"/>
</svg>
