<svg xmlns="http://www.w3.org/2000/svg" width="100" height="100" viewBox="0 0 100 100" fill="none">
  <path fill-rule="evenodd" clip-rule="evenodd" d="M55.9601 77.06C54.4801 75.57 52.4301 74.66 50.1701 74.66C47.9101 74.66 45.8601 75.58 44.3701 77.06C42.8801 78.54 41.9701 80.59 41.9701 82.85C41.9701 85.11 42.8901 87.16 44.3701 88.65C45.8501 90.14 47.9001 91.05 50.1601 91.05C52.4201 91.05 54.4701 90.13 55.9601 88.65C57.4501 87.17 58.3601 85.12 58.3601 82.86C58.3601 80.6 57.4401 78.54 55.9601 77.06Z" fill="#FC8B27"/>
  <path d="M50.16 91.98C47.72 91.98 45.43 91.03 43.71 89.3C41.99 87.58 41.04 85.29 41.04 82.84C41.04 80.39 41.99 78.11 43.72 76.39C45.44 74.67 47.73 73.72 50.18 73.72C52.63 73.72 54.91 74.67 56.63 76.4C58.36 78.13 59.3 80.42 59.3 82.86C59.3 85.3 58.35 87.59 56.62 89.31C54.9 91.03 52.6 91.98 50.16 91.98ZM50.17 75.59C48.23 75.59 46.4 76.34 45.03 77.71C43.66 79.08 42.9 80.91 42.9 82.84C42.9 84.77 43.65 86.61 45.02 87.98C46.39 89.35 48.21 90.11 50.15 90.11C52.09 90.11 53.92 89.35 55.29 87.98C56.66 86.61 57.42 84.79 57.42 82.85C57.42 80.91 56.67 79.09 55.29 77.71C53.92 76.34 52.1 75.58 50.16 75.58L50.17 75.59Z" fill="#0E1721"/>
  <path fill-rule="evenodd" clip-rule="evenodd" d="M49.99 21.39C64.4 21.45 78.72 26.49 90.1 36.25C90.91 36.94 91.9 37.26 92.88 37.22C93.86 37.18 94.82 36.79 95.57 36.04L96.74 34.88L97.9 33.72C98.31 33.31 98.62 32.85 98.81 32.36C99.01 31.86 99.09 31.32 99.08 30.73C99.06 30.16 98.93 29.62 98.7 29.14C98.48 28.68 98.16 28.25 97.75 27.89L97.69 27.85C84.1 16.03 67.14 10 50.1 9.93003C33.2 9.87003 16.22 15.66 2.34999 27.47C1.89999 27.85 1.55999 28.29 1.32999 28.77C1.09999 29.26 0.959992 29.79 0.939992 30.38C0.919992 30.96 0.999992 31.51 1.19999 32.01C1.38999 32.5 1.69999 32.97 2.11999 33.38L4.43999 35.7C5.17999 36.44 6.13999 36.84 7.10999 36.88C8.08999 36.92 9.07999 36.61 9.87999 35.93C21.55 26.1 35.83 21.33 50.01 21.39H49.99Z" fill="#4279B6"/>
  <path d="M92.72 38.16C91.54 38.16 90.41 37.74 89.49 36.96C78.56 27.58 64.53 22.38 49.99 22.32C35.55 22.24 21.51 27.35 10.47 36.64C9.51998 37.44 8.31998 37.85 7.06998 37.81C5.82998 37.75 4.65998 37.24 3.77998 36.35L1.46998 34.04C0.95998 33.53 0.58998 32.97 0.34998 32.35C0.10998 31.74 -1.97161e-05 31.06 0.0299803 30.34C0.0599803 29.64 0.21998 28.97 0.50998 28.37C0.78998 27.78 1.21998 27.24 1.76998 26.77C15.2 15.3 32.27 9 49.83 9C49.92 9 50.01 9 50.1 9C67.8 9.07 84.91 15.5 98.27 27.12L98.3 27.15C98.3 27.15 98.34 27.18 98.35 27.19C98.85 27.64 99.24 28.16 99.52 28.74C99.8 29.34 99.96 30 99.99 30.7C100.01 31.43 99.9 32.1 99.66 32.71C99.42 33.32 99.04 33.88 98.54 34.39L96.21 36.71C95.32 37.6 94.15 38.11 92.9 38.16C92.83 38.16 92.77 38.16 92.7 38.16H92.72ZM49.99 20.45C64.98 20.51 79.43 25.87 90.7 35.54C91.3 36.05 92.06 36.32 92.83 36.29C93.61 36.26 94.34 35.93 94.89 35.38L97.21 33.06C97.53 32.74 97.77 32.39 97.92 32.02C98.07 31.65 98.14 31.22 98.12 30.76C98.1 30.32 98 29.91 97.83 29.54C97.67 29.2 97.43 28.88 97.12 28.6L97.09 28.58C97.09 28.58 97.06 28.56 97.05 28.54C84.04 17.21 67.36 10.93 50.1 10.87C50.01 10.87 49.92 10.87 49.83 10.87C32.71 10.87 16.07 17.01 2.95998 28.18C2.60998 28.48 2.33998 28.82 2.16998 29.17C1.98998 29.55 1.88998 29.96 1.86998 30.41C1.84998 30.87 1.91998 31.29 2.06998 31.66C2.21998 32.04 2.45998 32.39 2.77998 32.72L5.09998 35.03C5.64998 35.58 6.37998 35.91 7.14998 35.94C7.92998 35.97 8.67998 35.71 9.26998 35.21C20.58 25.68 34.94 20.45 49.74 20.45C49.83 20.45 49.91 20.45 50 20.45H49.99Z" fill="#0E1721"/>
  <path fill-rule="evenodd" clip-rule="evenodd" d="M50.1401 42.69C59.0601 42.7 67.9601 45.57 75.4001 51.26C76.2001 51.87 77.1701 52.15 78.1001 52.09H78.1201C79.0501 52.03 79.9701 51.63 80.6901 50.91L83.0301 48.57C83.4501 48.15 83.7601 47.67 83.9601 47.16C84.1501 46.65 84.2401 46.09 84.2001 45.49C84.1601 44.89 84.0201 44.34 83.7601 43.85C83.5101 43.37 83.1401 42.93 82.6701 42.56C73.0601 34.97 61.6401 31.14 50.1701 31.13C38.7701 31.13 27.3201 34.89 17.5901 42.5C17.1201 42.87 16.7501 43.3 16.5001 43.79C16.2401 44.28 16.1001 44.83 16.0601 45.42C16.0301 46.03 16.1101 46.59 16.3001 47.1C16.4901 47.61 16.8001 48.08 17.2301 48.51L19.5601 50.84C20.2801 51.56 21.2001 51.96 22.1301 52.02C23.0701 52.08 24.0301 51.82 24.8401 51.21C32.3501 45.51 41.2501 42.68 50.1201 42.69H50.1401Z" fill="#3C8645"/>
  <path d="M77.85 53.02C76.77 53.02 75.71 52.66 74.84 52C67.68 46.53 59.14 43.63 50.14 43.62H50.1C41.14 43.62 32.6101 46.5 25.4201 51.95C24.4601 52.68 23.2801 53.03 22.0901 52.95C20.9001 52.87 19.7801 52.36 18.9201 51.5L16.5901 49.17C16.0801 48.66 15.6901 48.08 15.4501 47.43C15.2101 46.79 15.1101 46.09 15.1501 45.36C15.2001 44.62 15.3801 43.94 15.7001 43.34C16.0101 42.74 16.4601 42.2 17.0401 41.75C26.7201 34.18 38.1701 30.18 50.1501 30.18H50.19C62.21 30.19 73.6501 34.21 83.2701 41.81C83.84 42.25 84.2901 42.79 84.6001 43.4C84.6101 43.43 84.6301 43.46 84.6401 43.48C84.9301 44.06 85.1001 44.71 85.1401 45.41C85.1801 46.14 85.08 46.83 84.84 47.47C84.59 48.11 84.2101 48.69 83.6901 49.21L81.3501 51.55C80.5001 52.4 79.37 52.92 78.18 53C78.16 53 78.15 53 78.13 53C78.04 53 77.94 53 77.85 53V53.02ZM50.1 41.75H50.14C59.55 41.76 68.4901 44.79 75.9701 50.51C76.57 50.97 77.3101 51.2 78.0401 51.15C78.05 51.15 78.0701 51.15 78.0801 51.15C78.8101 51.09 79.5001 50.77 80.0301 50.25L82.3701 47.91C82.7001 47.58 82.94 47.22 83.09 46.82C83.23 46.44 83.3 46 83.2701 45.54C83.2401 45.07 83.1301 44.65 82.9401 44.28C82.9301 44.26 82.9201 44.24 82.9101 44.21C82.7201 43.86 82.4501 43.55 82.1101 43.29C72.8201 35.96 61.79 32.07 50.19 32.06H50.1501C38.59 32.06 27.5301 35.92 18.1901 43.23C17.8201 43.52 17.5401 43.85 17.3501 44.21C17.1501 44.58 17.0401 45.01 17.0101 45.48C16.9801 45.94 17.0501 46.38 17.1901 46.77C17.3401 47.16 17.5801 47.52 17.9101 47.85L20.2401 50.18C20.7801 50.71 21.4801 51.04 22.2101 51.09C22.9501 51.14 23.6901 50.92 24.2901 50.46C31.8001 44.76 40.73 41.75 50.1 41.75Z" fill="#0E1721"/>
  <path fill-rule="evenodd" clip-rule="evenodd" d="M32.48 63.75L34.87 66.14C35.53 66.8 36.35 67.2 37.2 67.31C38.05 67.42 38.95 67.24 39.75 66.77C42.98 64.87 46.57 63.92 50.14 63.93C53.73 63.93 57.31 64.9 60.51 66.8C61.32 67.28 62.21 67.46 63.07 67.35C63.92 67.24 64.75 66.85 65.41 66.19L67.81 63.79C68.26 63.34 68.59 62.84 68.77 62.3C68.97 61.75 69.03 61.16 68.97 60.53C68.9 59.9 68.72 59.33 68.42 58.84C68.12 58.35 67.7 57.92 67.17 57.58C61.96 54.18 56.08 52.46 50.19 52.45C44.32 52.45 38.42 54.13 33.14 57.53C32.61 57.87 32.18 58.3 31.88 58.79C31.57 59.28 31.39 59.85 31.32 60.48C31.25 61.11 31.32 61.71 31.51 62.25C31.7 62.79 32.03 63.3 32.47 63.75H32.48Z" fill="#FCCD2A"/>
  <path d="M62.59 68.31C61.7 68.31 60.83 68.07 60.04 67.6C57.03 65.81 53.61 64.87 50.14 64.86C46.68 64.86 43.25 65.79 40.23 67.57C39.28 68.13 38.16 68.36 37.09 68.23C36 68.09 35.01 67.59 34.21 66.8L31.82 64.41C31.28 63.86 30.88 63.25 30.64 62.57C30.4 61.87 30.32 61.14 30.4 60.38C30.48 59.61 30.72 58.91 31.1 58.29C31.46 57.69 31.99 57.16 32.64 56.74C37.95 53.32 44.01 51.51 50.16 51.51H50.2C56.37 51.51 62.41 53.34 67.69 56.79C68.33 57.2 68.85 57.73 69.23 58.35C69.6 58.95 69.83 59.65 69.91 60.42C69.99 61.19 69.91 61.92 69.66 62.61C69.42 63.28 69.02 63.9 68.47 64.45L66.08 66.84C65.29 67.64 64.29 68.13 63.2 68.27C63 68.29 62.8 68.31 62.6 68.31H62.59ZM50.1 62.99H50.15C53.95 62.99 57.7 64.03 61 65.99C61.61 66.35 62.29 66.5 62.97 66.42C63.64 66.34 64.27 66.03 64.76 65.53L67.16 63.13C67.51 62.78 67.76 62.4 67.9 61.99C68.05 61.57 68.1 61.11 68.05 60.63C68 60.14 67.85 59.7 67.63 59.33C67.4 58.95 67.08 58.62 66.67 58.36C61.69 55.11 56 53.39 50.2 53.38H50.17C44.38 53.38 38.67 55.08 33.66 58.31C33.24 58.58 32.92 58.9 32.7 59.27C32.46 59.65 32.32 60.09 32.27 60.57C32.22 61.05 32.27 61.52 32.41 61.94C32.56 62.35 32.81 62.73 33.15 63.08L35.54 65.47C36.04 65.97 36.66 66.28 37.33 66.37C38 66.45 38.68 66.31 39.29 65.95C42.58 64.01 46.32 62.99 50.1 62.99Z" fill="#0E1721"/>
</svg>
