<svg viewBox="0 0 1920 1920" version="1.1" xmlns="http://www.w3.org/2000/svg">
    <path d="M853.333333,421.808455 L853.333333,528.475122 L106.666667,528.494575 L106.666667,1711.52488 L1493.33333,1711.52488 L1493.33333,1168.47512 L1600,1168.47512 L1600,1711.52488 C1600,1770.43525 1552.24371,1818.19154 1493.33333,1818.19154 L106.666667,1818.19154 C47.7562934,1818.19154 0,1770.43525 0,1711.52488 L0,528.494575 C0,469.584202 47.7562934,421.827908 106.666667,421.827908 L853.333333,421.808455 Z M563.592063,800.019761 L563.592063,1439.99969 L1096.85829,1120.00973 L563.592063,800.019761 Z M1600,101.808455 L1600,421.808455 L1920,421.808455 L1920,528.475122 L1600,528.475122 L1600,848.475122 L1493.33333,848.475122 L1493.33333,528.475122 L1173.33333,528.475122 L1173.33333,421.808455 L1493.33333,421.808455 L1493.33333,101.808455 L1600,101.808455 Z" fill-rule="nonzero" stroke="none" stroke-width="1"/>
</svg>
