<svg viewBox="0 0 1920 1920" version="1.1" xmlns="http://www.w3.org/2000/svg">
    <path d="M764.385882,112.941176 L990.268235,451.764706 L1920,451.764706 L1920,1637.64706 C1920,1725.86039 1852.20148,1798.55965 1765.9842,1806.36508 L1750.58824,1807.05882 L169.411765,1807.05882 C81.1984314,1807.05882 8.49917211,1739.26031 0.693740014,1653.04302 L0,1637.64706 L0,112.941176 L764.385882,112.941176 Z M703.849412,225.882353 L112.941176,225.882353 L112.941176,1637.64706 C112.941176,1665.35529 133.019608,1688.42318 159.295086,1693.2073 L169.411765,1694.11765 L1750.58824,1694.11765 C1778.19608,1694.11765 1801.34205,1674.12845 1806.14476,1647.79348 L1807.05882,1637.64706 L1807.05882,564.705882 L225.882353,564.705882 L225.882353,451.764706 L854.4,451.764706 L703.849412,225.882353 Z M1016.47059,790.588235 L1016.47059,1072.94118 L1298.82353,1072.94118 L1298.82353,1185.88235 L1016.47059,1185.88235 L1016.47059,1468.23529 L903.529412,1468.23529 L903.529412,1185.88235 L621.176471,1185.88235 L621.176471,1072.94118 L903.529412,1072.94118 L903.529412,790.588235 L1016.47059,790.588235 Z" stroke="none" stroke-width="1" fill-rule="evenodd"/>
</svg>
