<svg viewBox="0 0 1920 1920" version="1.1" xmlns="http://www.w3.org/2000/svg">
    <path d="M1380.66395,0 L1386.2108,52.8648075 C1400.1345,184.630623 1354.74095,331.565356 1264.97266,446.011438 C1263.61425,447.59625 1262.02944,448.728259 1260.78423,450.313071 C1275.72675,449.747067 1290.66926,448.615058 1306.17778,450.086669 C1373.8719,452.916691 1551.82367,478.72649 1668.19417,652.263428 L1668.19417,652.263428 L1699.77721,699.468192 L1652.45925,730.938034 C1611.70694,756.747833 1486.61997,849.68575 1488.31798,1024.01509 C1490.2424,1244.7568 1668.19417,1325.69542 1688.45713,1334.18548 L1688.45713,1334.18548 L1737.0203,1354.56164 L1720.71938,1404.82283 C1707.24847,1448.29196 1668.42057,1559.56842 1592.57599,1672.76929 C1520.24063,1780.53652 1430.35914,1914.79276 1278.33037,1917.62278 C1206.56101,1919.434 1160.71466,1897.81263 1118.71714,1879.36089 C1078.75723,1861.70155 1044.45736,1846.53263 987.630525,1846.53263 C927.520862,1846.53263 891.183382,1862.26755 849.072657,1880.6061 C809.565552,1897.81263 764.738007,1917.28318 702.590728,1919.8868 C699.760706,1920 696.930684,1920 694.327064,1920 C547.052729,1920 444.71914,1769.10324 376.572215,1668.69406 L376.572215,1668.69406 L371.385341,1660.95884 C200.971353,1404.05599 105.685923,985.769047 262.918539,707.165851 C349.517206,553.552267 507.092821,456.539119 674.177309,454.0487 C739.267811,453.143093 799.151072,473.51925 850.77067,493.895407 C859.600338,374.015683 916.653578,262.173221 975.857634,189.951064 C1061.8903,84.447851 1206.44781,7.24485585 1327.57275,2.26401745 L1327.57275,2.26401745 L1380.66395,0 Z M1297.91412,562.947939 C1224.22035,555.137079 1153.583,584.229703 1090.75652,609.586699 C1043.32535,628.717646 1002.45984,645.131773 964.537547,645.131773 C932.162097,645.131773 898.201836,634.151288 862.883163,620.340782 L862.883163,620.340782 L857.449522,619.887978 L857.22312,618.189965 C849.751862,615.133542 842.280605,612.190319 834.582945,609.133895 C785.000963,588.98414 730.551343,562.608337 676.101724,567.249573 C548.977144,569.173987 428.418214,644.112965 361.516499,762.86068 C216.619382,1019.48706 337.857516,1409.91687 470.302537,1605.07517 C540.71348,1708.88037 615.426056,1811.44036 698.062693,1806.79913 C739.041409,1805.10111 767.568029,1792.64902 803.905509,1776.9141 C850.77067,1756.42474 903.97508,1733.33176 987.630525,1733.33176 C1068.34275,1733.33176 1119.39634,1755.85873 1164.45029,1775.78209 C1201.69338,1792.30942 1232.59721,1806.23312 1276.17955,1804.42191 C1362.55181,1802.8371 1422.88788,1722.69088 1498.50606,1609.71641 C1548.08805,1535.79624 1579.78429,1463.00808 1597.78323,1414.4449 C1521.14624,1368.48535 1377.15473,1252.00165 1375.11711,1025.0339 C1373.4191,844.931313 1472.35666,730.37203 1540.72999,672.865987 C1455.37653,580.267673 1345.34528,564.985555 1297.91412,562.947939 Z M1274.82114,124.634161 C1198.29735,145.123519 1116.11352,197.082719 1063.58831,261.494016 L1063.58831,261.494016 L1063.47511,261.607217 C1016.94955,318.434055 967.48077,412.390779 962.38673,509.064324 C1047.06098,496.385826 1127.66,437.294971 1175.99678,376.053299 C1234.40843,301.680325 1269.3875,211.232828 1274.82114,124.634161 Z" stroke="none" stroke-width="1" fill-rule="evenodd"/>
</svg>
