<svg viewBox="0 0 1920 1920" version="1.1" xmlns="http://www.w3.org/2000/svg">
    <path d="M1468.2137,0 L1468.2137,564.697578 L1355.27419,564.697578 L1355.27419,112.939516 L112.939516,112.939516 L112.939516,1807.03225 L1355.27419,1807.03225 L1355.27419,1581.15322 L1468.2137,1581.15322 L1468.2137,1919.97177 L2.5243549e-29,1919.97177 L2.5243549e-29,0 L1468.2137,0 Z M1597.64239,581.310981 C1619.77853,559.174836 1655.46742,559.174836 1677.60356,581.310981 L1677.60356,581.310981 L1903.4826,807.190012 C1925.5058,829.213217 1925.5058,864.902104 1903.4826,887.038249 L1903.4826,887.038249 L1225.8455,1564.67534 C1215.22919,1575.17872 1200.88587,1581.16451 1185.86491,1581.16451 L1185.86491,1581.16451 L959.985883,1581.16451 C928.814576,1581.16451 903.516125,1555.86606 903.516125,1524.69475 L903.516125,1524.69475 L903.516125,1298.81572 C903.516125,1283.79477 909.501919,1269.45145 920.005294,1258.94807 L920.005294,1258.94807 Z M1442.35055,896.29929 L1016.45564,1322.1942 L1016.45564,1468.225 L1162.48643,1468.225 L1588.38135,1042.33008 L1442.35055,896.29929 Z M677.637094,1242.34597 L677.637094,1355.28548 L338.818547,1355.28548 L338.818547,1242.34597 L677.637094,1242.34597 Z M903.516125,1016.46693 L903.516125,1129.40645 L338.818547,1129.40645 L338.818547,1016.46693 L903.516125,1016.46693 Z M1637.62298,701.026867 L1522.19879,816.451052 L1668.22958,962.481846 L1783.65377,847.057661 L1637.62298,701.026867 Z M1129.39516,338.829841 L1129.39516,790.587903 L338.818547,790.587903 L338.818547,338.829841 L1129.39516,338.829841 Z M1016.45564,451.769356 L451.758062,451.769356 L451.758062,677.648388 L1016.45564,677.648388 L1016.45564,451.769356 Z" stroke="none" stroke-width="1" fill-rule="evenodd"/>
</svg>
