<svg viewBox="0 0 1920 1920" version="1.1" xmlns="http://www.w3.org/2000/svg">
    <path d="M1129.4317,113 L1129.4317,1807.14754 L936.637705,1807.14754 L484.865027,1355.37487 L169.414754,1355.37487 C76.0107531,1355.37487 0,1279.36411 0,1185.96011 L0,1185.96011 L0,734.187433 C0,640.783431 76.0107531,564.772678 169.414754,564.772678 L169.414754,564.772678 L484.865027,564.772678 L936.637705,113 L1129.4317,113 Z M1016.48853,225.94317 L983.396178,225.94317 L564.715848,644.623499 L564.715848,1275.52404 L983.396178,1694.20437 L1016.48853,1694.20437 L1016.48853,225.94317 Z M1671.9768,361.057083 C1831.90433,521.097555 1920,733.769543 1920,960.107655 C1920,1186.33282 1831.90433,1399.00481 1671.9768,1559.04528 L1671.9768,1559.04528 L1592.12598,1479.19446 C1730.82019,1340.50025 1807.05683,1156.177 1807.05683,960.107655 C1807.05683,763.925369 1730.82019,579.602117 1592.12598,440.907904 L1592.12598,440.907904 Z M1432.86482,600.801549 C1528.52768,697.819732 1581.1592,825.445514 1581.1592,960.073772 C1581.1592,1094.70203 1528.52768,1222.32781 1432.86482,1319.34599 L1432.86482,1319.34599 L1352.33634,1240.05989 C1427.10471,1164.27502 1468.21603,1064.88503 1468.21603,960.073772 C1468.21603,855.262511 1427.10471,755.872521 1352.33634,680.087654 L1352.33634,680.087654 Z M451.772678,677.715848 L169.414754,677.715848 C138.355383,677.715848 112.94317,703.015118 112.94317,734.187433 L112.94317,734.187433 L112.94317,1185.96011 C112.94317,1217.13243 138.355383,1242.4317 169.414754,1242.4317 L169.414754,1242.4317 L451.772678,1242.4317 L451.772678,677.715848 Z" stroke="none" stroke-width="1" fill-rule="evenodd"/>
</svg>
