<svg viewBox="0 0 1920 1920" version="1.1" xmlns="http://www.w3.org/2000/svg">
    <path d="M561.272621,1604.00563 L755.546927,1604.00563 C780.4209,1604.00563 784.602301,1594.67789 786.746609,1589.63877 L820.841106,1515.55292 C839.496586,1467.30599 898.572271,1427.31465 957.004664,1425.49199 C984.022945,1424.74148 1040.31103,1424.95591 1087.80745,1425.27756 L1140.98629,1425.49199 C1194.16513,1425.49199 1237.8018,1454.01128 1270.5025,1510.19215 L1310.60106,1580.73989 C1316.4979,1591.46143 1328.18438,1602.93348 1343.51618,1602.93348 L1527.28338,1603.68398 L1472.81796,1370.06163 L1509.91448,1350.87007 C1625.38547,1291.25831 1704.18879,1160.24109 1693.36003,1046.1639 L1689.71471,1008.5313 L1724.13085,992.448986 C1795.96517,959.104996 1829.95246,921.25796 1804.11354,817.259021 C1789.10339,756.253458 1737.53278,699.536512 1670.41594,714.439452 L1631.49675,723.1239 L1611.87633,688.38611 C1494.58268,479.744941 1325.28957,399.011744 1204.02895,367.919278 C1010.07629,318.171332 836.172908,363.094585 772.165314,403.085929 L731.423462,428.495979 L701.724796,390.863374 C637.824417,309.701316 534.361556,300.695222 452.877852,336.290735 C483.112594,387.003619 509.487583,448.116398 524.497739,504.511698 L535.755356,546.754566 L496.72895,566.267769 C432.828572,598.217958 349.843852,717.227053 332.367741,802.034434 L328.722418,819.832191 L314.891631,831.7331 C251.312899,886.627385 169.829194,906.355019 107.2154,912.573512 L107.2154,1092.90982 C107.2154,1148.44739 133.483174,1177.50277 189.771259,1184.47177 C282.298149,1195.94382 328.507987,1245.37012 369.249839,1289.00678 C414.601954,1337.46814 453.84279,1379.38937 564.596299,1389.78926 L624.851354,1395.47168 L611.87829,1454.65458 C604.694859,1487.67692 581.10747,1552.43502 561.272621,1604.00563 L561.272621,1604.00563 Z M1662.482,1711.54268 L1343.30175,1710.14888 C1291.30228,1710.14888 1242.73371,1680.45021 1216.8948,1632.73936 L1177.65396,1563.69264 C1159.64177,1532.70739 1146.99035,1532.70739 1140.98629,1532.70739 L1087.16416,1532.49296 C1041.16875,1532.27853 986.596115,1531.95688 960.328342,1532.70739 C942.852232,1533.24347 923.124598,1548.03919 919.479274,1557.36693 L884.527054,1633.59708 C863.083974,1682.59452 815.909197,1711.22103 755.546927,1711.22103 L402.80826,1711.22103 L432.828572,1637.45683 C445.158343,1607.11488 472.069408,1538.71145 490.296026,1486.39034 C384.259995,1462.05244 333.225465,1407.4798 290.982597,1362.2349 C254.529361,1323.2085 230.513111,1297.58402 176.69098,1290.93666 C66.0446867,1277.3203 0,1203.23446 0,1092.90982 L0,808.145712 L53.6077002,808.145712 C125.442019,808.145712 189.342397,790.884033 232.228557,760.434859 C256.995315,671.017215 327.97191,556.082306 409.348399,494.969528 C388.655827,436.215488 358.313868,382.822219 334.190403,351.944183 L299.98869,308.521946 L344.590297,275.714034 C474.642578,180.077896 646.61608,189.08399 755.332496,291.045836 C866.086005,241.405105 1050.71092,217.817717 1230.61837,264.027555 C1365.9242,298.658129 1552.26457,386.038681 1687.14154,604.758098 C1784.81477,604.329236 1879.7004,676.592416 1908.2197,791.42011 C1940.59875,921.901252 1906.61147,1012.28383 1801.54037,1073.07497 C1799.18164,1206.987 1718.12679,1345.61651 1595.68681,1424.95591 L1662.482,1711.54268 Z M850.722038,645.446342 L797.75763,552.276159 C945.929314,468.004854 1120.04712,467.468777 1263.2869,550.882359 L1209.46477,643.516465 C1097.74632,578.758363 967.050748,579.401655 850.722038,645.446342 M750.518525,853.497827 C750.518525,912.680728 702.486025,960.713227 643.303124,960.713227 C584.120223,960.713227 536.087724,912.680728 536.087724,853.497827 C536.087724,794.314926 584.120223,746.282426 643.303124,746.282426 C702.486025,746.282426 750.518525,794.314926 750.518525,853.497827" stroke="none" stroke-width="1" fill-rule="evenodd"/>
</svg>
