<svg viewBox="0 0 1920 1920" version="1.1" xmlns="http://www.w3.org/2000/svg">
    <path d="M564.706 1581.177H338.824V338.824h1242.353v225.882h-112.942V451.765H451.765v1016.47h112.941v112.942zM0 0h1242.353v225.882h-112.941v-112.94H112.941v1016.47h112.941v112.94H0V0zm847.059 1920H677.647v-169.412h112.942v56.471h56.47V1920zm180.662 0v-112.941h180.662V1920h-180.662zm361.433 0v-112.941h180.662V1920h-180.662zm530.846 0h-169.412v-112.941h56.471v-56.471H1920V1920zm-112.941-711.508v-180.661H1920v180.661h-112.941zm0 361.435v-180.662H1920v180.662h-112.941zM1920 847.059h-112.941v-56.47h-56.471V677.647H1920v169.412zm-892.169-56.471V677.647h180.661v112.941h-180.661zm361.434 0V677.647h180.662v112.941h-180.662zm-598.677 56.47h-112.94V677.648h169.41v112.942h-56.47v56.47zm-112.941 361.325v-180.662h112.941v180.662H677.647zm0 361.433v-180.662h112.941v180.662H677.647z" stroke="none" stroke-width="1" fill-rule="evenodd"/>
</svg>
