<svg viewBox="0 0 1920 1920" version="1.1" xmlns="http://www.w3.org/2000/svg">
    <path d="M559.706 1575.941h1360v-120h-1360v120zm0-1121h1360v-120h-1360v120zm0 561h1360v-120h-1360v120zM169.5 565C75.888 565 0 489.112 0 395.5S75.888 226 169.5 226 339 301.888 339 395.5 263.112 565 169.5 565zm0-84c47.22 0 85.5-38.28 85.5-85.5S216.72 310 169.5 310 84 348.28 84 395.5s38.28 85.5 85.5 85.5zm0 1208C75.888 1689 0 1613.112 0 1519.5S75.888 1350 169.5 1350 339 1425.888 339 1519.5 263.112 1689 169.5 1689zm0-84c47.22 0 85.5-38.279 85.5-85.5s-38.28-85.5-85.5-85.5-85.5 38.279-85.5 85.5 38.28 85.5 85.5 85.5zm0-478C75.888 1127 0 1051.112 0 957.5S75.888 788 169.5 788 339 863.888 339 957.5 263.112 1127 169.5 1127zm0-84c47.22 0 85.5-38.279 85.5-85.5 0-47.22-38.28-85.5-85.5-85.5S84 910.28 84 957.5c0 47.221 38.28 85.5 85.5 85.5z" stroke="none" stroke-width="1" fill-rule="evenodd"/>
</svg>
