<svg viewBox="0 0 1920 1920" version="1.1" xmlns="http://www.w3.org/2000/svg">
    <path d="M368,585.675 L461.5,585.675 L461.5,185 L368,185 L368,585.675 Z M639,484.675 L1919,484.675 L1919,364.675 L639,364.675 L639,484.675 Z M368.275,1184.675 L461.775,1184.675 L461.775,784 L368.275,784 L368.275,1184.675 Z M183.225,1184.675 L276.725,1184.675 L276.725,784 L183.225,784 L183.225,1184.675 Z M639,1045.675 L1919,1045.675 L1919,925.674 L639,925.674 L639,1045.675 Z M368.225,1734.675 L461.725,1734.675 L461.725,1333.999 L368.225,1333.999 L368.225,1734.675 Z M184.225,1734.675 L277.725,1734.675 L277.725,1333.999 L184.225,1333.999 L184.225,1734.675 Z M1,1734.675 L94.5,1734.675 L94.5,1333.999 L1,1333.999 L1,1734.675 Z M639,1605.675 L1919,1605.675 L1919,1485.675 L639,1485.675 L639,1605.675 Z" stroke="none" stroke-width="1" fill-rule="evenodd"/>
</svg>
