<svg viewBox="0 0 1921 1920" xmlns="http://www.w3.org/2000/svg">
    <g fill-rule="evenodd" clip-rule="evenodd" stroke="none" stroke-width="1">
        <path fill-rule="evenodd" clip-rule="evenodd" d="M107.093 1173.33 107.093 1813.33H746.329V1173.33H107.093zM.55413 1920H852.868V1066.67H.554092L.55413 1920zM426.712 746.667C603.232 746.667 746.33 603.398 746.33 426.667 746.33 249.936 603.232 106.667 426.712 106.667 250.192 106.667 107.094 249.936 107.094 426.667 107.094 603.398 250.192 746.667 426.712 746.667zM426.712 853.333C662.072 853.333 852.869 662.308 852.869 426.667 852.869 191.025 662.072 0 426.712 0 191.352 0 .554772 191.025.554772 426.667.554772 662.308 191.352 853.333 426.712 853.333z"/>
        <path d="M1811.72 1440H1438.83V1066.67H1332.3V1440H959.408V1546.67H1332.3V1920H1438.83V1546.67H1811.72V1440Z"/>
        <path fill-rule="evenodd" clip-rule="evenodd" d="M1459.23 0L997.897 800H1920.55L1459.23 0ZM1459.23 213.333L1182.43 693.333H1736.02L1459.23 213.333Z"/>
    </g>
</svg>
