<svg viewBox="0 0 1920 1920" version="1.1" xmlns="http://www.w3.org/2000/svg">
    <path d="M480,106.666667 C362.179253,106.666667 266.666667,202.179253 266.666667,320 L266.666667,1600 C266.666667,1717.82075 362.179253,1813.33333 480,1813.33333 L1440,1813.33333 C1557.82075,1813.33333 1653.33333,1717.82075 1653.33333,1600 L1653.33333,320 C1653.33333,202.179253 1557.82075,106.666667 1440,106.666667 L480,106.666667 Z M480,0 L1440,0 C1616.73112,0 1760,143.26888 1760,320 L1760,1600 C1760,1776.73112 1616.73112,1920 1440,1920 L480,1920 C303.26888,1920 160,1776.73112 160,1600 L160,320 C160,143.26888 303.26888,0 480,0 Z M586.666667,320 C527.756293,320 480,367.756293 480,426.666667 L480,533.333333 C480,592.243707 527.756293,640 586.666667,640 L1333.33333,640 C1392.24371,640 1440,592.243707 1440,533.333333 L1440,426.666667 C1440,367.756293 1392.24371,320 1333.33333,320 L586.666667,320 Z M586.666667,213.333333 L1333.33333,213.333333 C1451.15408,213.333333 1546.66667,308.84592 1546.66667,426.666667 L1546.66667,533.333333 C1546.66667,651.15408 1451.15408,746.666667 1333.33333,746.666667 L586.666667,746.666667 C468.84592,746.666667 373.333333,651.15408 373.333333,533.333333 L373.333333,426.666667 C373.333333,308.84592 468.84592,213.333333 586.666667,213.333333 Z M480,853.333333 L586.666667,853.333333 C645.57704,853.333333 693.333333,901.089627 693.333333,960 C693.333333,1018.91037 645.57704,1066.66667 586.666667,1066.66667 L480,1066.66667 C421.089627,1066.66667 373.333333,1018.91037 373.333333,960 C373.333333,901.089627 421.089627,853.333333 480,853.333333 Z M906.666667,853.333333 L1013.33333,853.333333 C1072.24371,853.333333 1120,901.089627 1120,960 C1120,1018.91037 1072.24371,1066.66667 1013.33333,1066.66667 L906.666667,1066.66667 C847.756293,1066.66667 800,1018.91037 800,960 C800,901.089627 847.756293,853.333333 906.666667,853.333333 Z M1333.33333,853.333333 L1440,853.333333 C1498.91037,853.333333 1546.66667,901.089627 1546.66667,960 C1546.66667,1018.91037 1498.91037,1066.66667 1440,1066.66667 L1333.33333,1066.66667 C1274.42296,1066.66667 1226.66667,1018.91037 1226.66667,960 C1226.66667,901.089627 1274.42296,853.333333 1333.33333,853.333333 Z M480,1173.33333 L586.666667,1173.33333 C645.57704,1173.33333 693.333333,1221.08963 693.333333,1280 C693.333333,1338.91037 645.57704,1386.66667 586.666667,1386.66667 L480,1386.66667 C421.089627,1386.66667 373.333333,1338.91037 373.333333,1280 C373.333333,1221.08963 421.089627,1173.33333 480,1173.33333 Z M906.666667,1173.33333 L1013.33333,1173.33333 C1072.24371,1173.33333 1120,1221.08963 1120,1280 C1120,1338.91037 1072.24371,1386.66667 1013.33333,1386.66667 L906.666667,1386.66667 C847.756293,1386.66667 800,1338.91037 800,1280 C800,1221.08963 847.756293,1173.33333 906.666667,1173.33333 Z M1333.33333,1173.33333 L1440,1173.33333 C1498.91037,1173.33333 1546.66667,1221.08963 1546.66667,1280 C1546.66667,1338.91037 1498.91037,1386.66667 1440,1386.66667 L1333.33333,1386.66667 C1274.42296,1386.66667 1226.66667,1338.91037 1226.66667,1280 C1226.66667,1221.08963 1274.42296,1173.33333 1333.33333,1173.33333 Z M480,1493.33333 L586.666667,1493.33333 C645.57704,1493.33333 693.333333,1541.08963 693.333333,1600 C693.333333,1658.91037 645.57704,1706.66667 586.666667,1706.66667 L480,1706.66667 C421.089627,1706.66667 373.333333,1658.91037 373.333333,1600 C373.333333,1541.08963 421.089627,1493.33333 480,1493.33333 Z M906.666667,1493.33333 L1013.33333,1493.33333 C1072.24371,1493.33333 1120,1541.08963 1120,1600 C1120,1658.91037 1072.24371,1706.66667 1013.33333,1706.66667 L906.666667,1706.66667 C847.756293,1706.66667 800,1658.91037 800,1600 C800,1541.08963 847.756293,1493.33333 906.666667,1493.33333 Z M1333.33333,1493.33333 L1440,1493.33333 C1498.91037,1493.33333 1546.66667,1541.08963 1546.66667,1600 C1546.66667,1658.91037 1498.91037,1706.66667 1440,1706.66667 L1333.33333,1706.66667 C1274.42296,1706.66667 1226.66667,1658.91037 1226.66667,1600 C1226.66667,1541.08963 1274.42296,1493.33333 1333.33333,1493.33333 Z" fill-rule="nonzero" stroke="none" stroke-width="1"/>
</svg>
