<svg viewBox="0 0 1920 1920" version="1.1" xmlns="http://www.w3.org/2000/svg">
    <path d="M1637.706 112.941c93.403 0 169.412 76.01 169.412 169.412V1920H113V282.353c0-93.402 76.009-169.412 169.412-169.412h169.41v-56.47c0-31.172 25.3-56.47 56.472-56.47s56.47 25.298 56.47 56.47v56.47h790.589v-56.47c0-31.172 25.299-56.47 56.47-56.47 31.172 0 56.47 25.298 56.47 56.47v56.47h169.413zm56.47 338.824V282.353c0-31.172-25.411-56.47-56.47-56.47h-169.412v56.47c0 31.172-25.3 56.471-56.47 56.471-31.172 0-56.471-25.299-56.471-56.47v-56.472H564.765v56.471c0 31.172-25.3 56.471-56.471 56.471-31.171 0-56.471-25.299-56.471-56.47v-56.472H282.412c-31.06 0-56.47 25.3-56.47 56.471v169.412h1468.234zM225.942 1807.058h1468.234V564.705H225.942v1242.353zm733.563-390.437c-82.334 0-141.515-34.447-194.372-95.887l-90.804 83.351c62.23 74.992 154.277 128.075 283.143 128.075 154.278 0 258.862-96.79 258.862-231.19v-2.034c0-134.4-105.6-190.644-217.525-204.198l205.892-208.263v-95.887H715.552V902.06h320.076l-199.68 209.394 21.12 80.188h60.31c103.454 0 170.09 40.546 170.09 112.376v2.147c0 66.635-55.003 110.456-127.963 110.456" stroke="none" stroke-width="1" fill-rule="evenodd"/>
</svg>
