<svg viewBox="0 0 1920 1920" version="1.1" xmlns="http://www.w3.org/2000/svg">
    <path d="M1637.706 112.941c93.403 0 169.412 76.01 169.412 169.412V1920H113V282.353c0-93.402 76.009-169.412 169.412-169.412h169.41v-56.47c0-31.172 25.3-56.47 56.472-56.47s56.47 25.298 56.47 56.47v56.47h790.589v-56.47c0-31.172 25.299-56.47 56.47-56.47 31.172 0 56.47 25.298 56.47 56.47v56.47h169.413zM225.942 1807.058h1468.234V564.705H225.942v1242.353zm1225.806-920.074l-604.687 604.687-378.692-378.805 79.85-79.85 298.842 298.842 524.838-524.725 79.849 79.851zm242.428-435.219V282.353c0-31.172-25.411-56.47-56.47-56.47h-169.412v56.47c0 31.172-25.3 56.471-56.47 56.471-31.172 0-56.471-25.299-56.471-56.47v-56.472H564.765v56.471c0 31.172-25.3 56.471-56.471 56.471-31.171 0-56.471-25.299-56.471-56.47v-56.472H282.412c-31.06 0-56.47 25.3-56.47 56.471v169.412h1468.234z" stroke="none" stroke-width="1" fill-rule="evenodd"/>
</svg>
