<svg viewBox="0 0 1920 1920" version="1.1" xmlns="http://www.w3.org/2000/svg">
    <path d="M1709.28872,959.672847 L1709.28872,1814.27733 L341.807607,1814.27733 L341.807607,1016.53253 L455.754871,1016.53253 L455.754871,1700.33006 L1595.34146,1700.33006 L1595.34146,959.672847 L1709.28872,959.672847 Z M1840.35086,434.569671 L1920,516.155912 L1122.36915,1295.78309 L757.851857,939.242102 L837.500994,857.883756 L1122.36915,1136.37087 L1840.35086,434.569671 Z M455.789055,105 L455.789055,446.955739 L797.744794,446.955739 L797.744794,560.903002 L455.789055,560.903002 L455.789055,902.630846 L341.841791,902.630846 L341.841791,560.903002 L-5.68434189e-14,560.903002 L-5.68434189e-14,446.955739 L341.841791,446.955739 L341.841791,105 L455.789055,105 Z M1538.32225,446.875976 L1538.32225,560.823239 L911.612294,560.823239 L911.612294,446.875976 L1538.32225,446.875976 Z" stroke="none" stroke-width="1" fill-rule="evenodd"/>
</svg>
