<svg viewBox="0 0 1920 1920" version="1.1" xmlns="http://www.w3.org/2000/svg">
    <path d="M1559.23847,1559.23847 C1889.69851,1228.77843 1889.69851,691.221573 1559.23847,360.761532 C1228.77843,30.3014919 691.221573,30.3014919 360.761532,360.761532 C30.3014919,691.221573 30.3014919,1228.77843 360.761532,1559.23847 C691.221573,1889.69851 1228.77843,1889.69851 1559.23847,1559.23847 Z M280.86307,280.86307 C655.347163,-93.6210233 1264.65284,-93.6210233 1639.13693,280.86307 C2013.62102,655.347163 2013.62102,1264.65284 1639.13693,1639.13693 C1264.65284,2013.62102 655.347163,2013.62102 280.86307,1639.13693 C-93.6210233,1264.65284 -93.6210233,655.347163 280.86307,280.86307 Z M640.406151,880.101538 L560.507688,800.203075 L960,400.710763 L1359.49231,800.203075 L1279.59385,880.101538 L1016.48821,616.995901 L1016.56811,1439.39077 L903.431889,1439.39077 L903.511787,616.995901 L640.406151,880.101538 Z" stroke="none" stroke-width="1" fill-rule="evenodd"/>
</svg>
