<svg viewBox="0 0 1920 1920" version="1.1" xmlns="http://www.w3.org/2000/svg">
    <path d="M1800 1745V185c0-33-27-60-60-60H180c-33 0-60 27-60 60v1560c0 33 27 60 60 60h1560c33 0 60-27 60-60zM1740 5c99.24 0 180 80.76 180 180v1560c0 99.24-80.76 180-180 180H180c-99.24 0-180-80.76-180-180V185C0 85.76 80.76 5 180 5h1560zM859.522 853.669h-160v-53.333H486.189v320h213.333v-53.334h160v106.667c0 58.667-48 106.667-106.667 106.667h-320c-58.666 0-106.666-48-106.666-106.667V747.002c0-58.666 48-106.666 106.666-106.666h320c58.667 0 106.667 48 106.667 106.666V853.67zm725 0h-160v-53.333h-213.333v320h213.333v-53.334h160v106.667c0 58.667-48 106.667-106.667 106.667h-320c-58.666 0-106.666-48-106.666-106.667V747.002c0-58.666 48-106.666 106.666-106.666h320c58.667 0 106.667 48 106.667 106.666V853.67z" stroke="none" stroke-width="1" fill-rule="evenodd"/>
</svg>
