<svg viewBox="0 0 1920 1920" version="1.1" xmlns="http://www.w3.org/2000/svg">
    <path d="M1204.718 478.258h15.983c30.279 186.41 190.667 329.13 385.59 321.259v803.145c0 88.346-72.283 160.63-160.629 160.63H160.63C72.283 1763.291 0 1691.007 0 1602.661V638.887c0-88.346 72.283-160.629 160.63-160.629h1044.088zm160.63 473.88V791.51h-240.944c-132.84 0-240.944 108.104-240.944 240.944v160.629c0 132.84 108.104 240.944 240.944 240.944h240.944v-160.63h-240.944c-44.253 0-80.315-36.06-80.315-80.314v-160.63c0-44.252 36.062-80.314 80.315-80.314h240.944zm-642.517 0V791.51H481.887c-132.84 0-240.943 108.104-240.943 240.944v160.629c0 132.84 108.103 240.944 240.943 240.944h240.944v-160.63H481.887c-44.253 0-80.314-36.06-80.314-80.314v-160.63c0-44.252 36.061-80.314 80.314-80.314h240.944zm817.12-320.88L1293.064 384.37l94.21-94.13L1539.95 442.92 1825.871 157 1920 251.209l-380.049 380.049z" stroke="none" stroke-width="1" fill-rule="evenodd"/>
</svg>
