<svg viewBox="0 0 1920 1920" version="1.1" xmlns="http://www.w3.org/2000/svg">
    <path d="M1242.35294,677.647059 L1242.35294,1920 L0,1920 L0,677.647059 L1242.35294,677.647059 Z M1129.41176,790.588235 L112.941176,790.588235 L112.941176,1807.05882 L1129.41176,1807.05882 L1129.41176,790.588235 Z M338.823529,1129.41176 L903.529412,1129.41176 L903.529412,1016.47059 L338.823529,1016.47059 L338.823529,1129.41176 Z M338.823529,1581.17647 L903.529412,1581.17647 L903.529412,1468.23529 L338.823529,1468.23529 L338.823529,1581.17647 Z M1581.17647,338.823529 L1581.17647,1581.17647 L1355.29412,1581.17647 L1355.29412,1468.23529 L1468.23529,1468.23529 L1468.23529,451.764706 L451.764706,451.764706 L451.764706,564.705882 L338.823529,564.705882 L338.823529,338.823529 L1581.17647,338.823529 Z M790.701176,1242.35294 L790.701176,1355.29412 L338.823529,1355.29412 L338.823529,1242.35294 L790.701176,1242.35294 Z M1920.03388,-0.0112941176 L1920.03388,1242.34165 L1694.15153,1242.34165 L1694.15153,1129.40047 L1807.09271,1129.40047 L1807.09271,112.929882 L790.622118,112.929882 L790.622118,225.871059 L677.680941,225.871059 L677.680941,-0.0112941176 L1920.03388,-0.0112941176 Z" stroke="none" stroke-width="1" fill-rule="evenodd"/>
</svg>
