<svg width="1920" height="1920" viewBox="0 0 1920 1920" fill="none" xmlns="http://www.w3.org/2000/svg">
<path fill-rule="evenodd" clip-rule="evenodd" d="M935.23 53.3334C999.314 53.3334 1053.5 94.26 1073.88 151.022H1476.76V1070.5C1442.46 1073.96 1409.43 1081.66 1378.24 1093.12V248.711H1082.96V444.178H393.795V248.711H98.4262V1616.71H1144.89C1159.26 1652.08 1178.57 1684.91 1202 1714.4H0V151.022H402.875C423.259 94.2748 477.367 53.3447 541.435 53.3334H935.23ZM541.435 151.022C514.388 151.04 492.24 173.022 492.222 199.866V346.49H984.443V199.866C984.425 173.011 962.292 151.022 935.23 151.022H541.435Z" fill="#273540"/>
<path fill-rule="evenodd" clip-rule="evenodd" d="M590.648 1421.25H295.369V1128.18H590.648V1421.25ZM393.795 1323.56H492.222V1225.87H393.795V1323.56Z" fill="#273540"/>
<path d="M984.534 1421.25H689.165V1323.56H984.534V1421.25Z" fill="#273540"/>
<path d="M1181.39 1225.87H689.165V1128.18H1181.39V1225.87Z" fill="#273540"/>
<path fill-rule="evenodd" clip-rule="evenodd" d="M590.648 932.712H295.369V639.556H590.648V932.712ZM393.795 835.023H492.222V737.335H393.795V835.023Z" fill="#273540"/>
<path d="M984.534 932.712H689.165V835.023H984.534V932.712Z" fill="#273540"/>
<path d="M1181.39 737.335H689.165V639.556H1181.39V737.335Z" fill="#273540"/>
<path d="M1517.87 1068.43C1739.64 1068.44 1919.99 1247.44 1920 1467.55C1919.99 1687.65 1739.64 1866.66 1517.87 1866.67C1296.1 1866.66 1115.75 1687.65 1115.74 1467.55C1115.75 1247.44 1296.1 1068.44 1517.87 1068.43ZM1517.89 1156.12C1344.84 1156.12 1204.09 1295.81 1204.09 1467.57C1204.09 1639.32 1344.84 1779.02 1517.89 1779.02C1690.94 1779.02 1831.69 1639.32 1831.69 1467.57C1831.69 1295.81 1690.94 1156.12 1517.89 1156.12ZM1733.9 1378.44L1478.75 1631.67L1315.77 1469.91L1332.2 1453.6L1361.8 1424.31L1378.24 1408L1478.66 1507.67L1671.43 1316.44L1733.9 1378.44Z" fill="#273540"/>
</svg>
