<svg viewBox="0 0 1920 1920" version="1.1" xmlns="http://www.w3.org/2000/svg">
    <path d="M1875.702 250.836c58.997 59.097 58.997 155.27 0 214.266L1666.184 674.62l-349.432-349.332-818.778 818.778 277.91 277.91 723.514-723.414 71.422 71.422-857.367 857.266-526.018 105.164 105.264-525.917 952.63-952.63 209.519-209.519C1483.437 15.76 1521.522 0 1562.03 0h.101c40.51 0 78.494 15.76 106.982 44.348l206.588 206.488zM704.462 1493.397l-277.91-277.91-40.711 40.813-69.503 347.413 347.412-69.503 40.712-40.813zm52.803-259.24l-71.422-71.422 624.716-624.716 71.422 71.422-624.716 624.716zM1804.28 393.68c19.598-19.7 19.598-51.723 0-71.523L1597.692 115.77c-9.597-9.597-22.225-14.749-35.56-14.749h-.1c-13.538 0-26.165 5.253-35.762 14.75l-84.757 84.756-53.34 53.34 278.011 277.909L1804.28 393.68zM1515.32 1818.979v-721.494h101.021V1920H0V303.66h909.191V404.68h-808.17V1818.98H1515.32z" stroke="none" stroke-width="1" fill-rule="evenodd"/>
</svg>
