<svg viewBox="0 0 1920 1920" version="1.1" xmlns="http://www.w3.org/2000/svg">
    <path d="M1581.21035,0 L1581.21035,1468.23529 L1355.328,1468.23529 L1355.328,1807.05882 L1524.73976,1807.05882 L1524.73976,1920 L282.386824,1920 C199.939765,1920 120.880941,1883.85882 67.6856471,1820.61176 C23.7515294,1768.65882 0.0338823529,1704.28235 0.0338823529,1637.64706 L0.0338823529,282.352941 C0.0338823529,126.494118 126.528,0 282.386824,0 L1581.21035,0 Z M1242.38682,1468.23529 L294.810353,1468.23529 C205.586824,1468.23529 128.673882,1528.09412 115.233882,1608.28235 C113.991529,1617.31765 112.975059,1626.35294 112.975059,1635.38824 L112.975059,1637.64706 C112.975059,1678.30588 126.528,1715.57647 153.633882,1747.2 C186.386824,1785.6 232.692706,1807.05882 282.386824,1807.05882 L1242.38682,1807.05882 L1242.38682,1694.11765 L240.598588,1694.11765 L240.598588,1581.17647 L1242.38682,1581.17647 L1242.38682,1468.23529 Z M1468.26918,112.941176 L282.386824,112.941176 C189.662118,112.941176 112.975059,188.611765 112.975059,282.352941 L112.975059,1415.15294 C163.798588,1377.88235 226.932706,1355.29412 294.810353,1355.29412 L1468.26918,1355.29412 L1468.26918,112.941176 Z M1185.88235,903.529412 L1185.88235,1016.47059 L395.294118,1016.47059 L395.294118,903.529412 L1185.88235,903.529412 Z M1242.35294,338.823529 L1242.35294,790.588235 L338.823529,790.588235 L338.823529,338.823529 L1242.35294,338.823529 Z M1129.41176,451.764706 L451.764706,451.764706 L451.764706,677.647059 L1129.41176,677.647059 L1129.41176,451.764706 Z" transform="translate(169)" stroke="none" stroke-width="1" fill-rule="evenodd"/>
</svg>
