<svg viewBox="0 0 1920 1920" version="1.1" xmlns="http://www.w3.org/2000/svg">
    <path d="M1285.31639,1467.34405 C1166.21041,1550.13985 944.064891,1669.78138 649.298998,1655.6429 C410.765697,1644.39638 225.787246,1550.46118 107.109699,1467.45116 L107.109699,1316.10515 C107.109699,1187.68062 189.155729,1077.14342 302.156462,1053.36506 C415.906963,1029.4796 532.335206,1015.76956 648.120791,1012.8776 C795.075299,1009.02165 944.921768,1022.73169 1090.59096,1053.47217 C1203.37747,1077.25052 1285.31639,1187.68062 1285.31639,1316.21226 L1285.31639,1467.34405 Z M428.438798,637.993647 L428.438798,631.031517 C474.388859,618.606792 503.736916,591.722257 526.765502,570.407427 C553.542927,545.772196 569.716491,530.883948 607.311996,530.883948 C644.157732,530.883948 660.117078,545.665087 686.573173,570.193208 C717.742096,598.791497 760.371756,637.993647 839.740044,637.993647 C897.686391,637.993647 935.496115,616.678817 963.987295,594.078671 L963.987295,637.993647 C963.987295,785.697923 843.917322,905.767896 696.213046,905.767896 C548.508771,905.767896 428.438798,785.697923 428.438798,637.993647 L428.438798,637.993647 Z M696.213046,263.109699 C819.817639,263.109699 923.07139,347.726362 953.811873,461.798192 C940.530271,471.545175 929.069533,482.041925 918.358563,491.896017 C892.009577,516.209919 876.264451,530.883948 839.740044,530.883948 C802.144539,530.883948 785.970974,515.9957 759.19355,491.360469 C728.345956,462.869289 685.930515,423.774249 607.311996,423.774249 C527.943708,423.774249 485.314048,463.083508 454.145126,491.681798 C445.46924,499.715025 437.864451,506.248717 430.366772,512.032641 C440.220865,373.32558 555.042462,263.109699 696.213046,263.109699 L696.213046,263.109699 Z M1112.65556,948.718885 C1055.45898,936.615489 997.512631,927.832494 939.566283,920.763254 C1019.47012,851.998827 1071.09699,751.422819 1071.09699,637.993647 L1071.09699,530.883948 C1071.09699,324.269338 902.934766,156 696.213046,156 C489.491326,156 321.329098,324.269338 321.329098,530.883948 L321.329098,637.993647 C321.329098,751.2086 372.741754,851.570388 452.43137,920.441925 C394.592133,927.404055 336.967114,936.615489 280.091864,948.611776 C117.820669,982.67266 0,1137.23196 0,1316.10515 L0,1521.97 L21.743269,1538.03645 C150.917566,1633.25697 363.744539,1749.471 644.264842,1762.64549 C661.509504,1763.39526 678.539946,1763.8237 695.356169,1763.8237 C1013.79331,1763.8237 1253.07637,1624.25976 1370.57571,1538.03645 L1392.42609,1522.07711 L1392.42609,1316.21226 C1392.42609,1137.33907 1274.71253,982.77977 1112.65556,948.718885 L1112.65556,948.718885 Z M1839.91504,156 L1639.64602,356.269027 L1439.49027,156 L1359.29204,236.084956 L1559.56106,436.353982 L1359.29204,636.623009 L1439.49027,716.707965 L1639.64602,516.438938 L1839.91504,716.707965 L1920,636.623009 L1719.73097,436.353982 L1920,236.084956 L1839.91504,156 Z" stroke="none" stroke-width="1" fill-rule="evenodd"/>
</svg>
