<svg viewBox="0 0 1920 1920" version="1.1" xmlns="http://www.w3.org/2000/svg">
    <path d="M1468.2354,1807.0586 L112.9414,1807.0586 L112.9414,112.9406 L1016.4714,112.9406 L1016.4714,564.7056 L1468.2354,564.7056 L1468.2354,1807.0586 Z M1129.4124,136.3196 L1444.8554,451.7656 L1129.4124,451.7656 L1129.4124,136.3196 Z M1531.5944,378.8056 L1202.3724,49.5806 C1170.2964,17.6196 1127.7174,-0.0004 1082.5414,-0.0004 L0.0004,-0.0004 L0.0004,1919.9996 L1581.1754,1919.9996 L1581.1754,498.6346 C1581.1754,453.4586 1563.5574,410.8796 1531.5944,378.8056 L1531.5944,378.8056 Z M338.823,1242.353 L1129.412,1242.353 L1129.412,1129.413 L338.823,1129.413 L338.823,1242.353 Z M338.823,790.588 L1242.353,790.588 L1242.353,677.647 L338.823,677.647 L338.823,790.588 Z M338.823,1468.235 L790.588,1468.235 L790.588,1355.294 L338.823,1355.294 L338.823,1468.235 Z M338.823,1016.471 L1016.471,1016.471 L1016.471,903.53 L338.823,903.53 L338.823,1016.471 Z M338.823,564.706 L790.588,564.706 L790.588,451.765 L338.823,451.765 L338.823,564.706 Z" transform="translate(238)" stroke="none" stroke-width="1" fill-rule="evenodd"/>
</svg>
