<svg viewBox="0 0 1920 1920" version="1.1" xmlns="http://www.w3.org/2000/svg">
    <path d="M640.376471,790.588235 C679.228235,790.588235 696.056471,806.174118 723.952941,831.924706 C756.818824,862.08 801.769412,903.529412 885.458824,903.529412 C945.769412,903.529412 985.524706,881.505882 1015.34118,857.901176 C1009.46824,1008.45176 886.136471,1129.41176 734.117647,1129.41176 C594.635294,1129.41176 479.096471,1027.42588 456.508235,894.268235 C501.910588,880.602353 532.178824,853.835294 555.444706,832.263529 C583.68,806.287059 600.734118,790.588235 640.376471,790.588235 Z M1920,-0.0112941176 L1920,1129.40047 L1581.17647,1129.40047 L1581.17647,1016.45929 L1807.05882,1016.45929 L1807.05882,112.929882 L112.941176,112.929882 L112.941176,1016.45929 L225.882353,1016.45929 L225.882353,1129.40047 L0,1129.40047 L0,-0.0112941176 L1920,-0.0112941176 Z M734.117647,451.764706 C882.522353,451.764706 1003.25647,567.303529 1014.32471,712.997647 C996.931765,724.630588 981.571765,737.167059 968.357647,749.364706 C940.574118,775.115294 923.971765,790.588235 885.458824,790.588235 C845.816471,790.588235 828.762353,774.889412 800.527059,748.912941 C768,718.870588 723.275294,677.647059 640.376471,677.647059 C556.687059,677.647059 511.736471,719.096471 478.870588,749.251765 C468.931765,758.4 460.348235,765.741176 451.764706,772.065882 L451.764706,734.117647 C451.764706,578.484706 578.371765,451.764706 734.117647,451.764706 Z M1471.84941,714.24 L1161.71294,1541.19529 C944.301176,1563.78353 679.115294,1565.81647 523.143529,1508.89412 L484.291765,1615.05882 C716.950588,1699.99059 1099.14353,1663.39765 1231.62353,1654.81412 L1238.73882,1657.52471 L1239.98118,1654.24941 C1240.65882,1654.24941 1241.90118,1654.13647 1242.69176,1654.13647 L1210.84235,1741.21412 C1206.43765,1753.52471 1196.27294,1762.33412 1183.17176,1765.27059 C1065.71294,1792.26353 906.127059,1807.05882 734.117647,1807.05882 C562.334118,1807.05882 387.501176,1774.41882 225.882353,1712.41412 L225.882353,1459.2 C225.882353,1383.52941 276.48,1316.44235 349.101176,1295.77412 C472.997647,1260.42353 600.508235,1242.01412 731.294118,1242.12706 C732.197647,1242.12706 733.101176,1242.35294 734.117647,1242.35294 C734.682353,1242.35294 735.134118,1242.24 735.698824,1242.24 C861.967059,1242.69176 991.171765,1260.19765 1123.2,1296.90353 L1160.24471,1190.28706 L1145.56235,1185.65647 C1092.02824,1170.86118 1037.81647,1160.01882 983.717647,1150.98353 C1071.81176,1078.47529 1129.41176,969.938824 1129.41176,847.058824 L1129.41176,734.117647 C1129.41176,516.141176 952.094118,338.823529 734.117647,338.823529 C516.141176,338.823529 338.823529,516.141176 338.823529,734.117647 L338.823529,847.058824 C338.823529,969.712941 396.197647,1078.13647 484.178824,1150.75765 C428.16,1160.01882 372.592941,1171.65176 318.155294,1187.12471 C197.308235,1221.45882 112.941176,1333.38353 112.941176,1459.2 L112.941176,1788.19765 L147.84,1802.76706 C332.385882,1879.45412 535.228235,1920 734.117647,1920 C914.484706,1920 1082.88,1904.18824 1208.35765,1875.38824 C1258.72941,1863.75529 1299.27529,1828.29176 1316.89412,1780.06588 L1348.74353,1692.98824 C1363.08706,1653.68471 1356.31059,1610.76706 1330.33412,1578.24 C1317.34588,1561.86353 1300.74353,1549.55294 1282.10824,1541.98588 L1577.56235,753.995294 L1471.84941,714.24 Z" stroke="none" stroke-width="1" fill-rule="evenodd"/>
</svg>
