<svg viewBox="0 0 1920 1920" version="1.1" xmlns="http://www.w3.org/2000/svg">
    <path d="M1653.33333,1707 L266.666667,1707 C178.453333,1707 106.666667,1635.21333 106.666667,1547 L106.666667,960.333333 L640,960.333333 L640,1173.66667 L1280,1173.66667 L1280,960.333333 L1813.33333,960.333333 L1813.33333,1547 C1813.33333,1635.21333 1741.54667,1707 1653.33333,1707 L1653.33333,1707 Z M746.666667,1067 L1173.33333,1067 L1173.33333,853.666667 L746.666667,853.666667 L746.666667,1067 Z M266.666667,533.666667 L640,533.666667 L1280,533.666667 L1653.33333,533.666667 C1741.54667,533.666667 1813.33333,605.453333 1813.33333,693.666667 L1813.33333,853.666667 L1280,853.666667 L1280,747 L640,747 L640,853.666667 L106.666667,853.666667 L106.666667,693.666667 C106.666667,605.453333 178.453333,533.666667 266.666667,533.666667 L266.666667,533.666667 Z M746.666667,267 C746.666667,237.56 770.56,213.666667 800,213.666667 L1120,213.666667 C1149.44,213.666667 1173.33333,237.56 1173.33333,267 L1173.33333,427 L746.666667,427 L746.666667,267 Z M1653.33333,427 L1280,427 L1280,267 C1280,178.786667 1208.21333,107 1120,107 L800,107 C711.786667,107 640,178.786667 640,267 L640,427 L266.666667,427 C119.68,427 0,546.68 0,693.666667 L0,1547 C0,1693.98667 119.68,1813.66667 266.666667,1813.66667 L1653.33333,1813.66667 C1800.32,1813.66667 1920,1693.98667 1920,1547 L1920,693.666667 C1920,546.68 1800.32,427 1653.33333,427 L1653.33333,427 Z" stroke="none" stroke-width="1" fill-rule="evenodd"/>
</svg>
