<svg viewBox="0 0 1920 1920" version="1.1" xmlns="http://www.w3.org/2000/svg">
    <path d="M1131.00421,220.5232 L1131.00421,333.623621 L113.100421,333.623621 L113.100421,1803.92909 L1583.40589,1803.92909 L1583.40589,1464.62783 L1696.50631,1464.62783 L1696.50631,1917.02951 L0,1917.02951 L0,220.5232 L1131.00421,220.5232 Z M1831.09581,0 L1850.32288,52.0261936 C1880.86,132.214392 1901.21807,219.414816 1911.39711,308.764149 L1911.39711,308.764149 L1837.88184,357.39733 C1837.88184,357.39733 1876.33598,368.707372 1917.05213,380.017414 C1926.10017,514.606915 1913.65912,650.32742 1888.77703,772.475874 L1888.77703,772.475874 L1888.77703,773.606878 L1791.51067,797.357967 C1791.51067,797.357967 1825.97282,821.290016 1861.43054,846.255929 L1864.90125,848.700751 C1866.82989,850.059935 1868.75825,851.419968 1870.68096,852.777173 C1850.32288,929.685459 1825.44079,999.80772 1796.03468,1058.61994 C1774.5456,1101.5981 1741.74648,1151.36228 1696.50631,1195.47145 C1664.83819,1227.13957 1626.38405,1255.41467 1583.40589,1278.03475 C1531.3797,1305.17886 1471.43647,1322.14392 1402.44522,1322.14392 C1356.07405,1322.14392 1306.30986,1314.22689 1253.15266,1296.13082 L1253.15266,1296.13082 L1147.96927,1509.89062 L1052.96492,1569.83384 L1046.17889,1458.99543 L1150.23128,1247.49764 C1062.01295,1196.60245 1000.93872,1128.7422 969.270606,1043.91688 C918.375417,902.541358 968.139602,766.820853 991.89069,711.401647 L991.89069,711.401647 L1090.28806,714.794659 C1090.28806,714.794659 1059.75094,676.340516 1031.47584,640.148382 C1089.15705,541.751016 1176.24438,433.174612 1281.42777,333.646241 C1281.42777,333.646241 1353.81204,263.52398 1412.62426,220.545821 C1524.59367,134.589501 1650.13514,62.2052314 1779.06962,18.0960673 L1779.06962,18.0960673 L1831.09581,0 Z M410.260466,1178.1897 C456.292338,1169.25477 523.473988,1180.33861 585.792319,1284.8434 C594.840353,1299.99886 603.549085,1315.71982 612.257818,1331.10147 C636.348208,1374.53203 669.37353,1433.90975 693.124619,1435.83246 C700.476146,1436.73727 736.668281,1433.57045 817.987483,1330.64907 C837.440756,1305.99318 873.067388,1302.03466 897.497079,1321.37484 C921.92677,1340.71501 926.111486,1376.34164 906.771314,1400.77133 C826.130714,1502.67481 760.306269,1549.04598 695.160426,1549.04598 C691.541213,1549.04598 687.808899,1548.93288 683.963485,1548.59358 C599.816772,1541.69446 555.933808,1462.63726 513.40805,1386.06828 C505.26482,1371.59142 497.12159,1357.00147 488.639058,1342.75082 C464.661769,1302.48707 443.172689,1286.76611 432.315048,1289.14122 C403.926843,1294.79624 354.84126,1370.00802 336.405892,1496.34119 C331.768774,1527.2176 302.023364,1548.70668 272.277953,1544.18267 C241.288438,1539.65865 220.025559,1510.93114 224.436475,1480.05473 C243.663547,1348.17964 302.588866,1199.67878 410.260466,1178.1897 Z M1763.23556,144.768539 C1712.34037,166.257619 1662.57619,191.139711 1613.943,220.545821 C1558.5238,254.475947 1504.2356,291.799086 1453.34041,333.646241 C1442.03037,342.694275 1431.85133,352.873313 1420.54129,363.052351 L1420.54129,363.052351 L1485.00852,482.938797 L1351.55003,424.126578 C1268.98672,502.165868 1201.12647,584.616075 1150.23128,663.89947 L1150.23128,663.89947 L1221.48454,806.406 L1084.63304,789.440937 C1062.01295,852.777173 1049.5719,931.947467 1076.71601,1005.46274 C1097.07408,1063.14396 1138.92124,1109.51513 1199.99546,1146.83827 L1199.99546,1146.83827 L1403.57622,738.545748 C1417.14827,710.270643 1451.0784,698.9606 1479.3535,712.532651 C1507.62861,727.235706 1518.93865,760.034828 1505.3666,788.309933 L1505.3666,788.309933 L1304.04785,1193.20944 C1426.19631,1229.40157 1518.93865,1194.34044 1583.40589,1143.44525 C1651.26614,1090.28806 1687.45828,1022.4278 1694.2443,1007.72475 C1695.37531,1005.46274 1696.50631,1004.33174 1696.50631,1002.06973 C1716.86439,960.222572 1733.82945,911.589392 1749.66351,860.694202 C1710.07836,832.419097 1619.59803,767.951857 1619.59803,767.951857 L1619.59803,767.951857 L1781.33163,728.36671 C1799.42769,628.83834 1808.47573,521.39294 1803.95171,414.965444 C1788.87543,409.040113 1769.45156,401.354012 1749.82444,393.568243 L1744.12429,391.306563 C1702.33641,374.722459 1661.44518,358.415233 1661.44518,358.415233 L1661.44518,358.415233 L1792.64167,290.668081 C1785.85564,240.903896 1776.80761,191.139711 1763.23556,144.768539 Z" transform="translate(0 3)" stroke="none" stroke-width="1" fill-rule="evenodd"/>
</svg>
