<svg viewBox="0 0 1920 1920" version="1.1" xmlns="http://www.w3.org/2000/svg">
    <g stroke="none" stroke-width="1" fill-rule="evenodd">
        <path d="M1807.11765,1807.05882 L621.235294,1807.05882 C590.031854,1807.05882 564.764706,1781.80913 564.764706,1750.58824 L564.764706,169.411765 C564.764706,138.190874 590.031854,112.941176 621.235294,112.941176 L1807.11765,112.941176 L1807.11765,0 L621.235294,0 C527.673624,0 451.823529,75.7977119 451.823529,169.411765 L451.823529,1750.58824 C451.823529,1844.20229 527.673624,1920 621.235294,1920 L1807.11765,1920 L1807.11765,1807.05882 Z" fill-rule="nonzero" transform="matrix(-1 0 0 1 2258.941 0)"/>
        <path d="M225.941176 0L225.941176 1920 338.882353 1920 338.882353 0zM1219.02218 1016.47059L564.76001 1016.47059 564.76001 903.529412 1219.02218 903.529412 976.599976 661.107206 1056.46145 581.245735 1435.21571 960 1056.46145 1338.75427 976.599976 1258.89279z"/>
    </g>
</svg>
