<svg viewBox="0 0 1920 1920" version="1.1" xmlns="http://www.w3.org/2000/svg">
    <path d="M0,1016.08141 L409.185882,1425.15435 L489.035294,1345.41788 L216.169412,1072.43906 L1352.58353,1072.43906 L1352.58353,959.610824 L216.169412,959.610824 L489.035294,686.744941 L409.185882,606.895529 L0,1016.08141 Z M1465.59247,305.32 L1781.03718,620.764706 L1465.59247,620.764706 L1465.59247,305.32 Z M1867.776,547.691765 L1538.55247,218.581176 C1507.04188,187.070588 1463.33365,169 1418.83482,169 L675.004235,169 L675.004235,846.647059 L787.945412,846.647059 L787.945412,281.941176 L1352.65129,281.941176 L1352.65129,733.705882 L1804.416,733.705882 L1804.416,1637.23529 L787.945412,1637.23529 L787.945412,1185.47059 L675.004235,1185.47059 L675.004235,1750.17647 L1917.35718,1750.17647 L1917.35718,667.522353 C1917.35718,623.023529 1899.28659,579.315294 1867.776,547.691765 L1867.776,547.691765 Z" stroke="none" stroke-width="1" fill-rule="evenodd"/>
</svg>
