<svg viewBox="0 0 1920 1920" version="1.1" xmlns="http://www.w3.org/2000/svg">
    <path d="M960,1489.82027 C611.525723,1489.82027 291.455067,1287.49746 118.7017,959.901965 C291.455067,632.306469 611.525723,429.983661 960,429.983661 C1308.47428,429.983661 1628.54493,632.306469 1801.2983,959.901965 C1628.54493,1287.49746 1308.47428,1489.82027 960,1489.82027 L960,1489.82027 Z M1908.3418,936.267609 C1720.64473,558.647825 1357.33274,324 960,324 C562.667255,324 199.355266,558.647825 11.6582027,936.267609 L0,959.901965 L11.6582027,983.536321 C199.355266,1361.15611 562.667255,1595.80393 960,1595.80393 C1357.33274,1595.80393 1720.64473,1361.15611 1908.3418,983.536321 L1920,959.901965 L1908.3418,936.267609 Z M960,1171.86929 C843.100022,1171.86929 748.032678,1076.80194 748.032678,959.901965 C748.032678,843.001987 843.100022,747.934643 960,747.934643 C1076.89998,747.934643 1171.96732,843.001987 1171.96732,959.901965 C1171.96732,1076.80194 1076.89998,1171.86929 960,1171.86929 M960,641.950983 C784.703025,641.950983 642.049017,784.60499 642.049017,959.901965 C642.049017,1135.19894 784.703025,1277.85295 960,1277.85295 C1135.29698,1277.85295 1277.95098,1135.19894 1277.95098,959.901965 C1277.95098,784.60499 1135.29698,641.950983 960,641.950983" stroke="none" stroke-width="1" fill-rule="evenodd"/>
</svg>
