<svg viewBox="0 0 1920 1920" version="1.1" xmlns="http://www.w3.org/2000/svg">
    <path d="M990.223 394.824h929.732v564.705h-112.941V507.765H225.837V394.824h628.63L703.918 168.94H112.896v1411.765c0 31.172 25.412 56.47 56.47 56.47h957.742v112.942H169.367c-93.403 0-169.412-76.01-169.412-169.412V56H764.34l225.882 338.824zm816.836 1298.823c0 31.172-25.412 56.47-56.47 56.47h-338.824c-31.06 0-56.47-25.298-56.47-56.47v-282.353h451.764v282.353zm-338.824-508.235c0-62.23 50.598-112.941 112.941-112.941 62.344 0 112.942 50.71 112.942 112.94v112.942h-225.883v-112.941zm338.824 0c0-124.574-101.308-225.883-225.883-225.883-124.574 0-225.882 101.309-225.882 225.883v112.94h-112.941v395.295c0 93.402 76.01 169.412 169.412 169.412h338.823c93.403 0 169.412-76.01 169.412-169.412v-395.294h-112.941v-112.941z" stroke="none" stroke-width="1" fill-rule="evenodd"/>
</svg>
