<svg viewBox="0 0 1920 1920" version="1.1" xmlns="http://www.w3.org/2000/svg">
    <path d="M1873.25625,674.211853 C1873.25625,551.744383 1837.5276,443.589895 1766.93124,352.331182 C1782.64323,294.648788 1799.43139,180.360165 1746.16127,38.6293575 C1740.56522,23.5630606 1728.29695,11.8328723 1713.01542,6.55966837 C1693.8597,-0.00493241863 1590.87079,-23.7881582 1384.46253,117.512183 C1300.3065,95.3432036 1211.52296,83.9358645 1119.61855,83.3977825 C1028.03699,83.9358645 939.253454,95.3432036 855.312657,117.512183 C648.689157,-23.6805418 545.700256,-0.00493241863 526.43692,6.55966837 C511.15539,11.7252559 498.88712,23.5630606 493.291066,38.7369739 C440.128562,180.360165 456.916721,294.648788 472.736333,352.331182 C402.032354,443.912744 366.19609,551.959616 366.19609,674.211853 C366.19609,1097.03671 588.10112,1231.34199 798.383578,1279.87699 C751.893291,1330.77955 703.143059,1405.03487 692.704267,1499.41446 C620.924124,1525.45763 435.070591,1577.54397 367.595104,1455.39935 C364.581844,1449.80329 294.200715,1317.75796 152.577524,1307.31917 C127.502901,1308.50295 67.9910285,1311.62383 51.5257183,1361.66546 C33.0156964,1417.62599 91.0209394,1459.38115 119.431671,1479.07496 C119.969753,1479.39781 175.176969,1511.03703 213.273177,1611.12029 C214.241725,1615.74779 237.056403,1725.83938 348.224151,1792.66916 C435.716289,1845.4012 550.542995,1856.16284 689.475775,1824.95409 C689.475775,1848.41446 689.152926,1873.16624 689.04531,1888.34015 L688.72246,1919.44129 L796.338867,1919.44129 L796.5541,1889.63155 C798.491195,1728.09932 798.598811,1724.97845 765.775807,1707.97505 C753.292304,1701.51807 738.764089,1700.01144 725.419655,1704.3161 C589.177284,1745.31795 478.440002,1744.3494 405.368462,1701.51807 C334.879716,1659.97814 319.382954,1592.61027 316.477311,1581.84862 C312.60312,1571.1946 308.40608,1561.18627 304.20904,1551.60841 C431.1964,1697.32103 676.346574,1628.76938 767.49767,1585.39997 C786.330541,1576.57542 798.275962,1557.63493 798.275962,1536.86497 C798.275962,1387.49339 946.57137,1292.68334 948.078,1291.71479 C967.448953,1279.55414 977.026813,1256.52423 972.076458,1234.35525 C967.126104,1212.07865 948.723698,1195.29049 926.016636,1192.60008 C702.389744,1165.8036 473.812497,1083.26181 473.812497,674.211853 C473.812497,567.886844 507.388816,475.229118 573.572906,399.036702 C586.486874,383.970405 590.253449,362.985206 583.150766,344.475184 C573.357673,319.077712 546.668804,231.69319 582.827917,109.656186 C618.556563,113.745609 693.672815,133.977494 813.987957,219.963002 C827.332392,229.540862 844.4434,232.338889 860.370629,227.819 C940.8677,204.251007 1030.7274,191.552271 1119.61855,191.014189 C1208.94017,191.552271 1298.69225,204.251007 1379.40456,227.819 C1395.33178,232.338889 1412.33518,229.540862 1425.78723,219.963002 C1546.9633,133.331795 1622.18717,113.530376 1656.5168,109.333336 C1692.99876,231.477958 1666.3099,319.077712 1656.5168,344.475184 C1649.3065,362.985206 1653.07308,384.078022 1666.09466,399.036702 C1732.17114,475.013885 1765.63984,567.563995 1765.63984,674.211853 C1765.63984,1083.36943 1536.52451,1165.37313 1312.46715,1191.73915 C1291.48195,1194.21433 1273.83286,1208.63493 1267.48349,1228.7592 C1261.02651,1248.77585 1266.94541,1270.83721 1282.54979,1285.04258 C1288.89916,1290.74625 1297.50847,1297.52608 1307.62441,1305.27446 C1358.95744,1344.55445 1444.83533,1410.30807 1444.83533,1564.84523 C1444.83533,1650.29266 1443.43632,1919.11844 1443.43632,1919.11844 L1551.05272,1919.65652 C1551.05272,1919.65652 1552.45174,1650.40028 1552.45174,1564.84523 C1552.45174,1423.00681 1495.95312,1334.86897 1441.60684,1278.90844 C1651.99691,1230.48106 1873.25625,1096.39102 1873.25625,674.211853" stroke="none" stroke-width="1" fill-rule="evenodd"/>
</svg>
