<svg viewBox="0 0 1920 1920" version="1.1" xmlns="http://www.w3.org/2000/svg">
    <path d="M1920,113 L1920,1807.11765 L0,1807.11765 L0,113 L1920,113 Z M1807.05882,225.941176 L112.941176,225.941176 L112.941176,1694.28941 L1807.05882,1694.28941 L1807.05882,225.941176 Z M935.943529,1058.76941 C1118.79529,800.36 1268.44235,771.898824 1362.63529,793.922353 C1523.35059,831.305882 1634.71059,1036.18118 1693.44,1402.90118 L1693.44,1402.90118 L1703.94353,1468.29412 L207.924706,1468.29412 L228.028235,1396.57647 C313.411765,1090.50588 400.941176,939.503529 511.397647,906.863529 C613.948235,876.708235 696.734118,950.684706 770.258824,1015.96471 C813.854118,1054.47765 861.063529,1097.05647 892.8,1094.79765 C908.724706,1092.99059 924.988235,1074.24235 935.943529,1058.76941 Z M1337.11059,903.927059 C1254.09882,884.614118 1141.04471,964.689412 1028.21647,1123.93647 C992.978824,1173.74353 951.868235,1201.75294 905.901176,1207.06118 C829.674918,1216.08518 767.719319,1164.23433 707.088995,1110.79476 L703.220649,1107.38213 C700.642786,1105.10638 698.066824,1102.83002 695.491765,1100.55765 C641.28,1052.44471 584.809412,1003.54118 543.472941,1015.17412 C509.025882,1025.33882 441.148235,1084.29412 357.684706,1355.35294 L357.684706,1355.35294 L1570.44706,1355.35294 C1519.96235,1090.16706 1436.04706,926.967059 1337.11059,903.927059 Z M677.647059,338.882353 C802.221176,338.882353 903.529412,440.190588 903.529412,564.764706 C903.529412,689.338824 802.221176,790.647059 677.647059,790.647059 C553.072941,790.647059 451.764706,689.338824 451.764706,564.764706 C451.764706,440.190588 553.072941,338.882353 677.647059,338.882353 Z M677.647059,451.823529 C615.303529,451.823529 564.705882,502.534118 564.705882,564.764706 C564.705882,626.995294 615.303529,677.705882 677.647059,677.705882 C739.990588,677.705882 790.588235,626.995294 790.588235,564.764706 C790.588235,502.534118 739.990588,451.823529 677.647059,451.823529 Z" stroke="none" stroke-width="1" fill-rule="evenodd"/>
</svg>
