<svg viewBox="0 0 1920 1920" version="1.1" xmlns="http://www.w3.org/2000/svg">
    <path d="M1750.58824,1750.1188 L169.411765,1750.1188 C138.24,1750.1188 112.941176,1724.70702 112.941176,1693.64818 L112.941176,1398.08092 L323.124706,1524.2363 L1596.87529,1524.2363 L1807.05882,1398.08092 L1807.05882,1693.64818 C1807.05882,1724.70702 1781.76,1750.1188 1750.58824,1750.1188 Z M169.411765,846.588776 L338.823529,846.588776 L338.823529,1401.92092 L112.941176,1266.39142 L112.941176,903.059402 C112.941176,872.000558 138.24,846.588776 169.411765,846.588776 Z M451.764706,1411.29504 L451.764706,168.941254 L1468.23529,168.941254 L1468.23529,1411.29504 L451.764706,1411.29504 Z M1750.58824,846.588776 C1781.76,846.588776 1807.05882,872.000558 1807.05882,903.059402 L1807.05882,1266.39142 L1581.17647,1401.92092 L1581.17647,846.588776 L1750.58824,846.588776 Z M1750.58824,733.647522 L1581.17647,733.647522 L1581.17647,56 L338.823529,56 L338.823529,733.647522 L169.411765,733.647522 C76.0094118,733.647522 0,809.656986 0,903.059402 L0,1693.64818 C0,1787.05059 76.0094118,1863.06006 169.411765,1863.06006 L1750.58824,1863.06006 C1843.99059,1863.06006 1920,1787.05059 1920,1693.64818 L1920,903.059402 C1920,809.656986 1843.99059,733.647522 1750.58824,733.647522 Z M621.176471,488.903825 L1185.88235,488.903825 L1185.88235,375.962572 L621.176471,375.962572 L621.176471,488.903825 Z M621.176471,1166.55135 L1185.88235,1166.55135 L1185.88235,1053.61009 L621.176471,1053.61009 L621.176471,1166.55135 Z M621.176471,827.727586 L1298.82353,827.727586 L1298.82353,714.786333 L621.176471,714.786333 L621.176471,827.727586 Z" stroke="none" stroke-width="1" fill-rule="evenodd"/>
</svg>
