<svg viewBox="0 0 1920 1920" version="1.1" xmlns="http://www.w3.org/2000/svg">
    <path d="M1920,1482.42 L1920,1602.42 L0,1602.42 L0,1482.42 L1920,1482.42 Z M1920,1122.42 L1920,1242.42 L0,1242.42 L0,1122.42 L1920,1122.42 Z M1920,762.42 L1920,882.42 L840,882.42 L840,762.42 L1920,762.42 Z M462.456,300.048 L744.936,582.528 L462.456,864.888 L377.616,780.048 L515.136,642.408 L-0.024,642.408 L-0.024,522.408 L515.136,522.408 L377.616,384.768 L462.456,300.048 Z M1920,402.42 L1920,522.42 L840,522.42 L840,402.42 L1920,402.42 Z" stroke="none" stroke-width="1" fill-rule="evenodd"/>
</svg>
