<svg viewBox="0 0 1920 1920" version="1.1" xmlns="http://www.w3.org/2000/svg">
    <path d="M960,0 C1490.19336,0 1920,429.80664 1920,960 C1920,1490.19336 1490.19336,1920 960,1920 C429.80664,1920 0,1490.19336 0,960 C0,429.80664 429.80664,0 960,0 Z M960,101.052632 C485.616468,101.052632 101.052632,485.616468 101.052632,960 C101.052632,1434.38353 485.616468,1818.94737 960,1818.94737 C1434.38353,1818.94737 1818.94737,1434.38353 1818.94737,960 C1818.94737,485.616468 1434.38353,101.052632 960,101.052632 Z M917.925981,727.848289 C832.850893,767.480483 760.49379,835.823224 688.0817,935.746185 C677.754561,949.994799 677.337921,958.653289 687.947275,966.310501 C695.405429,971.694593 699.739386,969.972585 710.60252,958.382523 C712.056486,956.821125 712.056486,956.821125 713.5429,955.208517 C722.93419,945.038637 730.498594,936.409772 746.658213,917.643566 C800.050402,855.639118 826.129512,830.117614 866.661203,806.776798 C901.735887,786.579372 932.560677,816.262049 926.691505,854.248434 C925.044387,864.911612 922.207725,872.781713 914.899734,889.680268 C911.992799,896.402063 910.766613,899.326155 909.403692,902.909886 C896.230637,937.539248 885.135174,966.4279 861.884974,1026.76024 L860.772734,1029.6464 C853.743126,1047.88762 853.743126,1047.88762 846.719702,1066.12618 C816.270062,1145.26382 797.793166,1193.79228 778.728606,1245.11352 L777.610807,1248.12174 C772.494698,1261.87886 770.084968,1268.3694 767.422116,1275.59071 C745.577879,1334.82944 733.085403,1373.31955 723.583863,1414.25885 C722.099948,1420.62951 722.099948,1420.62951 720.595547,1427.10376 C715.242526,1450.26223 712.377516,1465.18499 710.776004,1480.52328 C708.006723,1507.04575 710.233328,1528.76418 718.56844,1547.0166 C728.0004,1567.67204 748.264714,1582.44732 771.386657,1585.80341 C809.904519,1591.39474 847.070132,1590.99741 878.901923,1583.75478 C896.815976,1579.68246 914.540226,1574.34996 931.931092,1567.81348 C982.284209,1548.88132 1030.79343,1519.34145 1077.7778,1480.29258 C1118.88834,1446.03286 1157.78567,1404.29365 1198.56562,1352.42101 C1202.12105,1347.92929 1202.12105,1347.92929 1205.66445,1343.44468 C1217.98167,1327.7385 1224.01644,1317.53696 1226.2693,1306.76185 C1228.7194,1295.06373 1218.83038,1283.2081 1210.92571,1287.17485 C1207.01936,1289.13515 1202.9326,1293.19302 1196.70597,1301.04681 C1192.25239,1306.76203 1189.83111,1309.81617 1187.4078,1312.56078 C1177.73651,1323.51061 1167.52483,1334.7181 1156.46121,1346.55902 C1138.21996,1366.07239 1119.6859,1385.16656 1092.80519,1412.34796 C1079.11486,1426.19157 1061.897,1438.29464 1043.38496,1447.39435 C1013.75561,1461.95299 987.026816,1443.6024 990.237327,1410.7594 C992.354755,1389.07756 997.607835,1366.66258 1005.46098,1344.99188 C1022.61656,1297.62521 1036.64418,1259.33303 1067.67684,1174.9441 C1081.13561,1138.34486 1086.94617,1122.53342 1094.20475,1102.74259 C1115.72323,1044.09118 1132.90091,996.875296 1149.24413,951.31811 C1169.43453,895.042892 1180.841,853.09362 1186.12199,809.774531 C1190.10912,777.101623 1181.01905,745.853304 1160.28809,724.369737 C1137.30182,700.554188 1104.60715,689.583403 1063.88904,690.064802 C1018.83606,690.600307 966.281931,705.321158 917.925981,727.848289 Z M1226.30702,339.426117 C1145.34368,307.925942 1048.19271,362.041988 1031.92524,447.75531 C1020.12956,509.87976 1043.33656,563.51547 1090.70544,585.980968 C1184.60323,630.512496 1297.29248,559.157689 1297.29724,455.155484 C1297.30201,397.30024 1272.59227,357.436618 1226.30702,339.426117 Z" stroke="none" stroke-width="1" fill-rule="evenodd"/>
</svg>
