<svg viewBox="0 0 1920 1920" version="1.1" xmlns="http://www.w3.org/2000/svg">
    <path d="M960,1642.26415 C1098.86792,1642.26415 1213.58491,1744.90566 1231.69811,1883.77358 C1147.16981,1907.92453 1050.56604,1920 960,1920 C869.433962,1920 778.867925,1907.92453 688.301887,1883.77358 C700.377358,1744.90566 821.132075,1642.26415 960,1642.26415 Z M1436.98113,1436.98113 C1539.62264,1340.37736 1696.60377,1328.30189 1799.24528,1418.86792 C1708.67925,1575.84906 1575.84906,1708.67925 1412.83019,1805.28302 C1328.30189,1690.56604 1340.37736,1533.58491 1436.98113,1436.98113 Z M108.679245,1412.83019 C223.396226,1328.30189 380.377358,1340.37736 476.981132,1436.98113 C573.584906,1539.62264 585.660377,1696.60377 495.09434,1799.24528 C338.113208,1708.67925 205.283019,1575.84906 108.679245,1412.83019 Z M960,1394.71698 C1002.26415,1394.71698 1038.49057,1430.9434 1044.5283,1479.24528 C1044.5283,1527.54717 1008.30189,1569.81132 960,1569.81132 L960,1569.81132 L953.962264,1569.81132 C905.660377,1569.81132 869.433962,1527.54717 869.433962,1479.24528 C869.433962,1430.9434 911.698113,1394.71698 960,1394.71698 Z M1255.84906,1267.92453 C1292.07547,1237.73585 1340.37736,1237.73585 1370.56604,1267.92453 C1406.79245,1298.11321 1406.79245,1352.45283 1376.60377,1388.67925 C1376.60377,1394.40468 1371.17448,1394.70083 1370.61283,1394.71615 L1370.56604,1394.71698 C1334.33962,1424.90566 1280,1424.90566 1249.81132,1388.67925 C1219.62264,1352.45283 1219.62264,1298.11321 1255.84906,1267.92453 Z M531.320755,1261.88679 C561.509434,1231.69811 621.886792,1231.69811 652.075472,1261.88679 C688.301887,1292.07547 688.301887,1346.41509 652.075472,1382.64151 C621.886792,1418.86792 567.54717,1412.83019 531.320755,1382.64151 C495.09434,1352.45283 495.09434,1298.11321 531.320755,1261.88679 Z M36.2264151,688.301887 C175.09434,700.377358 277.735849,821.132075 277.735849,960 C277.735849,1098.86792 169.056604,1219.62264 36.2264151,1231.69811 C12.0754717,1141.13208 0,1050.56604 0,960 C0,869.433962 12.0754717,772.830189 36.2264151,688.301887 Z M1883.77358,688.301887 C1907.92453,772.830189 1920,869.433962 1920,960 C1920,1050.56604 1907.92453,1141.13208 1883.77358,1231.69811 C1750.9434,1219.62264 1642.26415,1098.86792 1642.26415,960 C1642.26415,821.132075 1744.90566,700.377358 1883.77358,688.301887 Z M440.754717,875.471698 C487.426415,875.471698 525.283019,913.328302 525.283019,960 C525.283019,1006.6717 487.426415,1044.5283 440.754717,1044.5283 C394.083019,1044.5283 356.226415,1006.6717 356.226415,960 C356.226415,913.328302 394.083019,875.471698 440.754717,875.471698 Z M1479.24528,869.433962 C1527.54717,869.433962 1563.77358,911.698113 1563.77358,953.962264 C1563.77358,1002.26415 1527.54717,1038.49057 1479.24528,1038.49057 C1430.9434,1038.49057 1394.71698,1002.26415 1394.71698,953.962264 C1394.71698,905.660377 1430.9434,869.433962 1479.24528,869.433962 Z M1267.92453,531.320755 C1298.11321,501.132075 1352.45283,501.132075 1382.64151,531.320755 C1418.86792,561.509434 1418.86792,615.849057 1388.67925,652.075472 C1352.45283,682.264151 1304.15094,682.264151 1273.96226,652.075472 C1237.73585,621.886792 1237.73585,567.54717 1267.92453,531.320755 Z M531.320755,525.283019 C561.509434,495.09434 615.849057,495.09434 652.075472,525.283019 C682.264151,555.471698 688.301887,609.811321 652.075472,646.037736 C621.886792,682.264151 567.54717,676.226415 531.320755,646.037736 C495.09434,615.849057 495.09434,561.509434 531.320755,525.283019 Z M1418.86792,114.716981 C1575.84906,205.283019 1708.67925,338.113208 1805.28302,501.132075 C1690.56604,585.660377 1533.58491,573.584906 1436.98113,476.981132 C1340.37736,380.377358 1328.30189,223.396226 1418.86792,114.716981 Z M501.132075,114.716981 C585.660377,223.396226 579.622642,380.377358 476.981132,476.981132 C380.377358,573.584906 223.396226,585.660377 114.716981,501.132075 C205.283019,338.113208 338.113208,205.283019 501.132075,114.716981 Z M960,356.226415 C1002.26415,356.226415 1044.5283,392.45283 1044.5283,434.716981 C1044.5283,483.018868 1008.30189,525.283019 960,525.283019 C911.698113,525.283019 875.471698,489.056604 875.471698,440.754717 C875.471698,392.45283 911.698113,356.226415 960,356.226415 Z M960,0 C1056.60377,0 1147.16981,12.0754717 1237.73585,36.2264151 C1219.62264,169.056604 1098.86792,277.735849 960,277.735849 C821.132075,277.735849 700.377358,175.09434 682.264151,36.2264151 C772.830189,12.0754717 863.396226,0 960,0 Z" stroke="none" stroke-width="1" fill-rule="evenodd"/>
</svg>
