<svg viewBox="0 0 1920 1920" version="1.1" xmlns="http://www.w3.org/2000/svg">
    <path d="M1758.17665,1230.50493 L1423.65493,1089.94485 C1447.13806,1006.06039 1447.25096,916.756756 1425.80002,828.582115 L1763.70873,695.134707 C1821.51336,869.338895 1821.51336,1053.13955 1763.82163,1226.66634 L1758.17665,1230.50493 Z M1314.02935,1669.91044 L1214.00024,1427.17616 C1304.54578,1378.1777 1377.70476,1305.47031 1426.92902,1215.15058 L1668.76011,1315.63128 C1591.53674,1469.85223 1468.4761,1592.91287 1314.02935,1669.91044 L1314.02935,1669.91044 Z M693.306975,1763.73007 L689.355487,1758.08508 L830.028473,1423.67627 C914.364525,1447.2723 1003.44236,1447.2723 1091.27831,1425.70846 L1224.72571,1763.61717 C1050.40863,1821.4218 866.720865,1821.5347 693.306975,1763.73007 L693.306975,1763.73007 Z M604.229137,1668.66855 C450.12109,1591.55807 326.947552,1468.27163 250.062878,1314.05069 L492.684265,1214.02158 C541.79562,1304.56712 614.390107,1377.6132 704.709842,1426.83746 L604.229137,1668.66855 Z M161.775337,689.376824 L496.297054,829.936911 C472.701024,914.047164 472.701024,1003.3508 494.151961,1091.29964 L156.356153,1224.74705 C98.5515233,1050.54286 98.5515233,866.742203 156.243254,693.215413 L161.775337,689.376824 Z M605.809732,249.858416 L706.064638,492.592703 C615.406204,541.591159 542.247219,614.411444 493.022964,704.731179 L251.191875,604.250474 C328.302348,450.142427 451.588786,326.968889 605.809732,249.858416 L605.809732,249.858416 Z M1226.64501,156.151691 L1230.4836,161.796675 L1089.92351,496.205492 C1046.79584,484.238127 1002.42627,478.367344 957.492199,478.367344 C914.703224,478.367344 871.462652,483.673629 828.786577,494.173298 L695.11337,156.264591 C869.317558,98.5728606 1053.11822,98.2341616 1226.64501,156.151691 L1226.64501,156.151691 Z M1152.69572,1332.56623 C1125.4869,1313.93779 1091.617,1305.69611 1057.86,1314.84099 C993.055594,1332.90493 924.864195,1332.79203 860.511384,1314.95389 C827.318881,1305.58321 793.56188,1313.71199 766.240161,1332.34043 C689.016788,1292.37395 627.373569,1230.39203 587.407086,1152.94286 C606.148431,1125.50824 614.390107,1091.63834 605.019435,1057.88134 C587.068387,992.964032 586.955488,924.772632 605.019435,860.306922 C614.277207,826.88862 606.148431,793.244519 587.632886,766.148598 C627.486469,689.376824 688.790988,628.072304 765.675662,588.105822 C784.868606,601.540882 807.787239,609.21806 831.609069,609.21806 C841.657139,609.21806 851.931009,607.863264 862.091979,605.040772 C926.896389,586.976825 995.200688,587.089725 1059.4406,604.927872 C1092.6331,614.185645 1126.3901,606.169769 1153.71182,587.541323 C1230.8223,627.507806 1292.46551,689.489724 1332.5449,767.164696 C1313.80355,794.486415 1305.44898,828.243416 1314.93255,862.000417 C1332.8836,927.030626 1332.8836,995.334925 1314.93255,1059.34904 C1305.56188,1092.88024 1313.69065,1126.52434 1332.432,1153.73316 C1292.23971,1231.06943 1230.2578,1292.59975 1152.69572,1332.56623 L1152.69572,1332.56623 Z M1315.60995,251.100312 C1469.83089,328.323685 1592.89153,451.610123 1670.002,605.83107 L1427.15482,705.973075 C1378.15636,615.201742 1305.44898,542.155657 1215.12924,493.044301 L1315.60995,251.100312 Z M1870.85051,659.458412 C1860.35084,628.298104 1837.43221,602.556979 1807.6267,588.896119 C1800.17532,585.509129 1792.04655,585.28333 1784.14357,583.589835 C1693.37224,385.112218 1537.23199,228.520379 1338.98018,137.297447 C1337.17378,129.055771 1337.06088,120.588296 1333.33519,112.685319 C1319.67433,82.6540074 1293.93321,59.5095755 1262.2084,49.0099063 C1065.53718,-16.4719012 857.237293,-16.2461019 659.662874,49.122806 C628.389666,59.5095755 602.648542,82.4282081 589.100581,112.23372 C585.600692,119.572199 585.374892,127.700975 583.681397,135.716851 C384.977981,226.488185 228.499041,382.741325 137.501909,580.993143 C129.034434,582.799537 120.566959,583.138236 112.551082,586.751026 C82.6326701,600.411886 59.4882381,626.15301 48.9885689,657.764917 C-16.3803389,854.549039 -16.3803389,1062.96183 49.1014686,1260.19755 C59.3753384,1291.47075 82.4068707,1317.21188 112.099483,1330.87274 C119.550862,1334.25973 127.792537,1334.25973 135.695514,1336.06612 C226.466847,1534.65664 382.607088,1691.36138 580.971805,1782.58431 C582.7782,1790.82599 583.116899,1799.40636 586.729688,1807.30934 C600.277649,1837.22775 626.244572,1860.37218 657.74358,1870.87185 C756.079191,1903.61276 857.350193,1919.87031 958.621195,1919.87031 C1060.0051,1919.87031 1161.5019,1903.49986 1260.17621,1870.75895 C1291.44942,1860.48508 1317.19054,1837.56645 1330.8514,1807.76094 C1334.23839,1800.30956 1334.46419,1792.18078 1336.27059,1784.16491 C1534.8611,1693.39357 1691.56584,1537.02753 1782.67587,1338.54992 C1791.03045,1336.74352 1799.49792,1336.74352 1807.5138,1333.13073 C1837.31931,1319.46987 1860.46374,1293.72875 1870.96341,1262.11684 C1936.33232,1065.33272 1936.33232,856.919932 1870.85051,659.458412 L1870.85051,659.458412 Z" stroke="none" stroke-width="1" fill-rule="evenodd"/>
</svg>
