<svg viewBox="0 0 1920 1920" version="1.1" xmlns="http://www.w3.org/2000/svg">
    <g stroke="none" stroke-width="1" fill-rule="evenodd">
        <path fill-rule="nonzero" d="M320.001 212.118L1600 214.549 1600.2 107.883 320.203 105.451z"/>
        <path d="M266.667,533.334 C237.211,533.334 213.333,557.212 213.333,586.667 L213.333,906.667 C213.333,936.122 237.211,960 266.667,960 L1653.33,960 C1682.79,960 1706.67,936.122 1706.67,906.667 L1706.67,586.667 C1706.67,557.212 1682.79,533.334 1653.33,533.334 L266.667,533.334 Z M320,640 L320,853.334 L1600,853.334 L1600,640 L320,640 Z"/>
        <path d="M53.3333,320 C23.8781,320 0,343.878 0,373.334 L0,1333.33 C0,1362.79 23.8782,1386.67 53.3334,1386.67 L1866.67,1386.67 C1896.12,1386.67 1920,1362.79 1920,1333.33 L1920,373.334 C1920,343.878 1896.12,320 1866.67,320 L53.3333,320 Z M106.667,426.667 L106.667,1280 L1813.33,1280 L1813.33,426.667 L106.667,426.667 Z"/>
        <path fill-rule="nonzero" d="M1600 1601.22L320.001 1598.78 320.203 1492.12 1600.2 1494.55zM319.981 1812.12L1386.65 1814.55 1386.89 1707.88 320.224 1705.45z"/>
    </g>
</svg>
