<svg viewBox="0 0 1920 1920" version="1.1" xmlns="http://www.w3.org/2000/svg">
    <path d="M0 1919.447V600.53h480.48v1318.918H0zm120.12-120.12h240.24V720.65H120.12v1078.678zM1450.643 605.165c412.852 0 465.705 308.589 465.705 577.418v733.213L1438.991 1920v-701.261c0-117.718-42.162-140.06-120.12-140.06-74.114 0-120.12 23.423-120.12 140.06V1920l-483.604-4.204V601.32H1168v74.955c72.312-44.925 155.796-71.11 282.643-71.11zm345.585 1191.592v-614.174c0-333.334-93.573-457.298-345.585-457.298-151.472 0-217.057 44.925-281.322 98.98l-16.696 14.173H1047.88V721.441H835.267v1075.316l243.364 2.162v-580.18c0-226.427 150.51-260.18 240.24-260.18 109.55 0 240.24 45.165 240.24 260.18v580.18l237.117-2.162zM240.24 0c132.493 0 240.24 107.748 240.24 240.24 0 132.493-107.747 240.24-240.24 240.24C107.748 480.48 0 372.733 0 240.24 0 107.748 107.748 0 240.24 0zm0 360.36c66.186 0 120.12-53.934 120.12-120.12s-53.934-120.12-120.12-120.12-120.12 53.934-120.12 120.12 53.934 120.12 120.12 120.12z" stroke="none" stroke-width="1" fill-rule="evenodd"/>
</svg>
