<svg viewBox="0 0 1920 1920" version="1.1" xmlns="http://www.w3.org/2000/svg">
    <path d="M960.315 96.818c-186.858 0-338.862 152.003-338.862 338.861v484.088c0 186.858 152.004 338.862 338.862 338.862 186.858 0 338.861-152.004 338.861-338.862V435.68c0-186.858-152.003-338.861-338.861-338.861m48.408 1726.364h242.044V1920H669.862v-96.818h242.044v-252.3C587.44 1546.08 331 1274.118 331 943.41V709.983h96.818V943.41c0 293.551 238.946 532.497 532.497 532.497 293.55 0 532.496-238.946 532.496-532.497V709.983h96.818V943.41c0 330.708-256.44 602.67-580.906 627.472v252.3zm-48.408-467.735c-240.205 0-435.68-195.475-435.68-435.68V435.68C524.635 195.475 720.11 0 960.315 0c240.204 0 435.679 195.475 435.679 435.68v484.087c0 240.205-195.475 435.68-435.68 435.68z" stroke="none" stroke-width="1" fill-rule="evenodd"/>
</svg>
