<svg viewBox="0 0 1920 1920" version="1.1" xmlns="http://www.w3.org/2000/svg">
    <path d="M960,1468.23529 C1053.44753,1468.23529 1129.41176,1544.19953 1129.41176,1637.64706 C1129.41176,1731.09459 1053.44753,1807.05882 960,1807.05882 C866.552471,1807.05882 790.588235,1731.09459 790.588235,1637.64706 C790.588235,1544.19953 866.552471,1468.23529 960,1468.23529 Z M960,790.588235 C1053.44753,790.588235 1129.41176,866.552471 1129.41176,960 C1129.41176,1053.44753 1053.44753,1129.41176 960,1129.41176 C866.552471,1129.41176 790.588235,1053.44753 790.588235,960 C790.588235,866.552471 866.552471,790.588235 960,790.588235 Z M960,112.941176 C1053.44753,112.941176 1129.41176,188.905412 1129.41176,282.352941 C1129.41176,375.800471 1053.44753,451.764706 960,451.764706 C866.552471,451.764706 790.588235,375.800471 790.588235,282.352941 C790.588235,188.905412 866.552471,112.941176 960,112.941176 Z" stroke="none" stroke-width="1" fill-rule="evenodd"/>
</svg>
