<svg viewBox="0 0 1920 1920" version="1.1" xmlns="http://www.w3.org/2000/svg">
    <path d="M106.666667,141 L106.666667,1421 L457.92,1421 L282.346667,1245.32 L357.653333,1169.90667 L662.08,1474.22667 L357.653333,1778.65333 L282.346667,1703.24 L457.92,1527.66667 L0,1527.66667 L0,141 L106.666667,141 Z M1066.66667,1420.904 L1066.66667,1527.57067 L853.333333,1527.57067 L853.333333,1420.904 L1066.66667,1420.904 Z M1493.33333,1420.904 L1493.33333,1527.57067 L1280,1527.57067 L1280,1420.904 L1493.33333,1420.904 Z M1920,1420.904 L1920,1527.57067 L1706.66667,1527.57067 L1706.66667,1420.904 L1920,1420.904 Z M1920,994.237333 L1920,1101.01067 L533.333333,1101.01067 L533.333333,994.237333 L1920,994.237333 Z M1920,567.570667 L1920,674.237333 L533.333333,674.237333 L533.333333,567.570667 L1920,567.570667 Z M1920,141.010667 L1920,247.677333 L533.333333,247.677333 L533.333333,141.010667 L1920,141.010667 Z" stroke="none" stroke-width="1" fill-rule="evenodd"/>
</svg>
