<svg viewBox="0 0 1920 1920" version="1.1" xmlns="http://www.w3.org/2000/svg">
    <path d="M1920,1672.03136 L1920,1778.70039 L533.302518,1778.70039 L533.302518,1672.03136 L1920,1672.03136 Z M357.661281,141 L662.094713,445.326763 L357.661281,749.760195 L282.352941,674.238516 L457.930176,498.661281 L106.562368,498.661281 L106.562368,1778.68973 L0,1778.68973 L0,392.098913 L457.930176,392.098913 L282.352941,216.30834 L357.661281,141 Z M1920,1245.24854 L1920,1352.02424 L533.302518,1352.02424 L533.302518,1245.24854 L1920,1245.24854 Z M1920,818.67906 L1920,925.348097 L533.302518,925.348097 L533.302518,818.67906 L1920,818.67906 Z M1066.6477,392.002911 L1066.6477,498.671948 L853.309629,498.671948 L853.309629,392.002911 L1066.6477,392.002911 Z M1493.32385,392.002911 L1493.32385,498.671948 L1279.98578,498.671948 L1279.98578,392.002911 L1493.32385,392.002911 Z M1920,392.002911 L1920,498.671948 L1706.66193,498.671948 L1706.66193,392.002911 L1920,392.002911 Z" stroke="none" stroke-width="1" fill-rule="evenodd"/>
</svg>
