<svg viewBox="0 0 1920 1920" version="1.1" xmlns="http://www.w3.org/2000/svg">
    <path d="M790.588 959.588h225.883V733.706H790.588v225.882zm338.824 338.824h225.882v-225.883h-225.882v225.883zm-338.824 0h225.883v-225.883H790.588v225.883zm-338.823 0h225.882v-225.883H451.765v225.883zm0-338.824h225.882V733.706H451.765v225.882zM112.94 1637.235V281.941h1242.353v451.765h451.765v903.53H112.94zM1468.235 305.32l315.445 315.445h-315.445V305.32zm402.184 242.485L1541.195 218.58c-31.51-31.51-75.219-49.581-119.717-49.581H0v1581.176h1920V667.522c0-45.176-17.619-87.755-49.581-119.717z" stroke="none" stroke-width="1" fill-rule="evenodd"/>
</svg>
