<svg viewBox="0 0 1920 1920" version="1.1" xmlns="http://www.w3.org/2000/svg">
    <path d="M1420.811 1342.116c29.93-44.724 47.436-98.484 47.436-156.197 0-136.32-97.13-250.391-225.883-276.593v260.668l178.447 172.122zm-517.27-156.197c0 155.745 126.607 282.353 282.353 282.353 57.148 0 110.23-17.28 154.73-46.645l-211.2-203.633V909.326c-128.754 26.202-225.883 140.273-225.883 276.593zm282.353-395.295c217.976 0 395.294 177.318 395.294 395.295 0 217.976-177.318 395.294-395.294 395.294-217.977 0-395.294-177.318-395.294-395.294 0-217.977 177.317-395.295 395.294-395.295zM112.94 1694.176V225.941h1242.353v451.765h451.765v1016.47H112.94zm225.883-903.529h338.823V677.706H338.824v112.941zm0-225.882V451.824h677.647v112.94H338.824zM1468.235 249.32l315.445 315.445h-315.445V249.32zm402.184 242.485L1541.195 162.58c-31.51-31.51-75.219-49.581-119.717-49.581H0v1694.118h1920V611.522c0-45.176-17.619-87.755-49.581-119.717z" stroke="none" stroke-width="1" fill-rule="evenodd"/>
</svg>
