<svg viewBox="0 0 1920 1920" version="1.1" xmlns="http://www.w3.org/2000/svg">
    <path d="M1386.667 1333h106.666v-320h-106.666v320zm0 213.333h106.666v-106.666h-106.666v106.666zM320 799.667V373h746.667v426.667H320zM426.667 693H960V479.667H426.667V693zM320 1119.667h533.333V1013H320v106.667zM320 1333h320v-106.667H320V1333zM0 52.99v1813.333h1066.667v-106.667h-960v-1600H1280v533.333h106.667v-640H0zM1440 1653c205.867 0 373.333-167.467 373.333-373.333 0-205.867-167.466-373.334-373.333-373.334-205.867 0-373.333 167.467-373.333 373.334 0 205.866 167.466 373.333 373.333 373.333zm0-853.333c264.64 0 480 215.36 480 480s-215.36 480-480 480-480-215.36-480-480 215.36-480 480-480z" stroke="none" stroke-width="1" fill-rule="evenodd"/>
</svg>
