<svg viewBox="0 0 1920 1920" version="1.1" xmlns="http://www.w3.org/2000/svg">
    <path d="M1591.46153,544.364218 C1720.75732,645.257322 1830.44677,780.911915 1908.2362,936.596757 L1908.2362,936.596757 L1920,960.23033 L1908.34218,983.863904 C1720.54536,1361.57716 1357.2454,1596.21722 960.031794,1596.21722 C848.646656,1596.21722 739.805041,1577.67069 636.156453,1541.21352 L636.156453,1541.21352 L671.341863,1441.27423 C763.544594,1473.70416 860.728393,1490.23706 960.031794,1490.23706 C1308.49453,1490.23706 1628.44861,1287.81498 1801.19625,960.44229 C1731.46131,828.602983 1636.71506,714.03844 1526.28374,627.982557 L1526.28374,627.982557 Z M959.968206,430.36137 C1059.37759,430.36137 1156.45541,446.894274 1250.4598,479.960081 C1278.01464,488.650453 1305.78144,499.672389 1333.44226,511.966086 L1143.73779,701.670556 C1091.59555,664.683484 1028.53736,642.321672 959.968206,642.321672 C784.677037,642.321672 642.027754,784.970955 642.027754,960.262124 C642.027754,1028.83128 664.389565,1091.88947 701.376638,1144.03171 L488.674475,1356.62789 C457.940232,1338.08136 426.464127,1317.30925 393.82224,1292.61588 C283.284943,1206.55999 188.538688,1091.88947 118.697769,960.156144 C291.551395,632.677478 611.61145,430.36137 959.968206,430.36137 Z M1141.93612,853.222172 C1160.58863,884.804257 1171.92851,921.049468 1171.92851,960.262124 C1171.92851,1077.15823 1076.86431,1172.22243 959.968206,1172.22243 C920.86153,1172.22243 884.510339,1160.88255 853.034234,1142.23004 L1141.93612,853.222172 Z M959.968206,748.301823 C999.180862,748.301823 1035.42607,759.747679 1067.00816,778.294205 L778.000287,1067.30208 C759.453761,1035.71999 748.007904,999.47478 748.007904,960.262124 C748.007904,843.471998 843.0721,748.301823 959.968206,748.301823 Z M959.968206,1278.20258 C1135.36536,1278.20258 1277.90866,1135.65927 1277.90866,960.262124 C1277.90866,891.798947 1255.54685,828.634777 1218.66575,776.598523 L1792.33631,202.927967 L1717.40834,128 L1412.50345,432.904894 C1369.47551,411.496903 1326.12963,392.632437 1283.84355,379.384918 C1180.30094,342.927746 1071.35334,324.381219 959.968206,324.381219 C562.754601,324.381219 199.348664,559.021273 11.7637967,936.734531 L1.13686838e-13,960.368104 L11.7637967,984.001678 C89.5532274,1139.68652 199.242684,1275.34111 329.280329,1376.65814 C357.683009,1398.17211 384.919908,1416.82461 411.520926,1433.88742 L127.706082,1717.70226 L202.634048,1792.63023 L776.304605,1218.95967 C828.340859,1255.84076 891.399048,1278.20258 959.968206,1278.20258" stroke="none" stroke-width="1" fill-rule="evenodd"/>
</svg>
