<svg viewBox="0 0 1920 1920" version="1.1" xmlns="http://www.w3.org/2000/svg">
    <path d="M494.165333,640.333333 L215.765333,1531.10667 L317.632,1562.89333 L572.458667,747 L1783.76533,747 L1600.40533,1664.12 C1595.392,1688.97333 1573.41867,1707 1548.13867,1707 L159.978667,1707 C130.645333,1707 106.645333,1683.10667 106.645333,1653.66667 L106.645333,213.666667 L561.152,213.666667 L732.778667,427 L1493.312,427 L1493.312,533.666667 L1599.97867,533.666667 L1599.97867,320.333333 L783.872,320.333333 L612.138667,107 L-0.0213333333,107 L-0.0213333333,1653.66667 C-0.0213333333,1741.88 71.7653333,1813.66667 159.978667,1813.66667 L1548.13867,1813.66667 C1624.08533,1813.66667 1690.112,1759.58667 1705.04533,1685.02667 L1914.00533,640.333333 L494.165333,640.333333 Z" stroke="none" stroke-width="1" fill-rule="evenodd"/>
</svg>
