<svg viewBox="0 0 1920 1920" version="1.1" xmlns="http://www.w3.org/2000/svg">
    <path d="M1281.53605,1465.48716 C1162.78038,1548.03944 941.288229,1667.32908 647.389295,1653.23219 C409.557563,1642.01875 225.123166,1548.35982 106.794671,1465.59395 L106.794671,1314.69308 C106.794671,1186.64627 188.599389,1076.43417 301.267767,1052.72575 C414.683707,1028.91054 530.769514,1015.24082 646.214554,1012.35737 C792.736842,1008.51276 942.142587,1022.18248 1087.38334,1052.83255 C1199.83813,1076.54096 1281.53605,1186.64627 1281.53605,1314.79988 L1281.53605,1465.48716 Z M427.178684,638.576019 L427.178684,631.634365 C472.993597,619.246184 502.255337,592.440721 525.216191,571.188582 C551.914859,546.625807 568.040855,531.781348 605.525784,531.781348 C642.263151,531.781348 658.175557,546.519013 684.55384,570.974992 C715.63109,599.489169 758.135369,638.576019 837.27022,638.576019 C895.046137,638.576019 932.744656,617.32388 961.152038,594.790204 L961.152038,638.576019 C961.152038,785.84587 841.435212,905.562696 694.165361,905.562696 C546.89551,905.562696 427.178684,785.84587 427.178684,638.576019 L427.178684,638.576019 Z M694.165361,264.794671 C817.406411,264.794671 920.356474,349.162461 951.006544,462.898785 C937.764005,472.6171 926.336975,483.082978 915.657508,492.908088 C889.386019,517.150478 873.687203,531.781348 837.27022,531.781348 C799.78529,531.781348 783.659295,516.936889 756.960627,492.374115 C726.203762,463.966732 683.913072,424.986677 605.525784,424.986677 C526.390933,424.986677 483.886654,464.180321 452.809405,492.694499 C444.159036,500.704099 436.576615,507.218574 429.100988,512.985486 C438.926097,374.686387 553.409985,264.794671 694.165361,264.794671 L694.165361,264.794671 Z M1109.38304,948.387359 C1052.35469,936.319562 994.57877,927.562398 936.802853,920.51395 C1016.47168,851.951771 1067.94671,751.671576 1067.94671,638.576019 L1067.94671,531.781348 C1067.94671,325.774428 900.279076,158 694.165361,158 C488.051646,158 320.384013,325.774428 320.384013,531.781348 L320.384013,638.576019 C320.384013,751.457986 371.645455,851.524593 451.10069,920.193566 C393.431568,927.13522 335.976035,936.319562 279.268064,948.280565 C117.474138,982.24127 0,1136.34598 0,1314.69308 L0,1519.95244 L21.6793182,1535.97164 C150.473691,1630.9121 362.674702,1746.78432 642.369945,1759.92006 C659.563887,1760.66763 676.54424,1761.0948 693.311003,1761.0948 C1010.81156,1761.0948 1249.39085,1621.94135 1366.54461,1535.97164 L1388.33072,1520.05923 L1388.33072,1314.79988 C1388.33072,1136.45277 1270.96338,982.348065 1109.38304,948.387359 L1109.38304,948.387359 Z M1509.20093,692.016072 L1388.30936,692.016072 L1388.30936,571.2313 L1614.0733,345.467365 L1734.85807,466.252138 L1509.20093,692.016072 Z M1898.68109,350.166331 L1730.1591,181.751135 C1702.71287,154.19811 1654.86886,153.877726 1626.88866,181.64434 L1302.55324,505.872961 C1288.99032,519.649474 1281.51469,537.911362 1281.51469,557.241198 L1281.51469,798.810743 L1523.08424,798.810743 C1542.30728,798.810743 1560.35558,791.441911 1574.77286,777.451809 L1898.78789,453.436778 C1927.08848,425.029395 1927.08848,378.680508 1898.68109,350.166331 L1898.68109,350.166331 Z" stroke="none" stroke-width="1" fill-rule="evenodd"/>
</svg>
