<svg viewBox="0 0 1920 1920" version="1.1" xmlns="http://www.w3.org/2000/svg">
    <path d="M716.582453,133 C929.35232,133 1102.43454,306.192467 1102.43454,518.85209 L1102.43454,518.85209 L1102.43454,629.095544 C1102.43454,745.843362 1049.2972,849.361966 967.055581,920.138264 C1026.69729,927.414332 1086.339,936.454295 1145.209,948.911805 C1312.00735,983.969224 1433.16491,1143.05053 1433.16491,1327.1571 L1433.16491,1327.1571 L1433.16491,1539.04502 L1410.67524,1555.47129 C1289.73817,1644.21727 1043.45429,1787.86449 715.700505,1787.86449 C698.392283,1787.86449 680.863574,1787.42352 663.114378,1786.65181 C374.386771,1773.09187 155.333027,1653.47772 22.3794212,1555.47129 L22.3794212,1555.47129 L0,1538.93477 L0,1327.04685 C0,1142.94028 121.2678,983.85898 288.286633,948.801562 C346.825907,936.454295 406.136886,926.973358 465.668351,919.807533 C383.647221,848.920992 330.730363,745.622876 330.730363,629.095544 L330.730363,629.095544 L330.730363,518.85209 C330.730363,306.192467 503.812586,133 716.582453,133 Z M1122.49885,1056.7299 C972.567754,1025.09003 818.337161,1010.97887 667.083142,1014.94763 C547.909968,1017.92421 428.075333,1032.03537 310.996785,1056.61966 C194.68994,1081.09371 110.243454,1194.86495 110.243454,1327.04685 L110.243454,1327.04685 L110.243454,1482.82085 C232.393202,1568.25953 422.783647,1664.94304 668.29582,1676.5186 C971.685806,1691.07074 1200.33073,1567.9288 1322.92145,1482.71061 L1322.92145,1482.71061 L1322.92145,1327.1571 C1322.92145,1194.86495 1238.58521,1081.20395 1122.49885,1056.7299 Z M625.080386,518.85209 C586.384933,518.85209 569.738172,534.17593 542.177308,559.531925 C518.474966,581.470372 488.268259,609.141479 440.973817,621.92972 L440.973817,621.92972 L440.973817,629.095544 C440.973817,781.121268 564.556729,904.70418 716.582453,904.70418 C868.608176,904.70418 992.191089,781.121268 992.191089,629.095544 L992.191089,629.095544 L992.191089,583.895728 C962.86633,607.157097 923.95039,629.095544 864.308682,629.095544 C782.618282,629.095544 738.741387,588.74644 706.660542,559.311438 C679.430409,534.065687 663.004134,518.85209 625.080386,518.85209 Z M1842.05788,307.658705 L1920,385.600827 L1488.28663,817.314194 L1252.91686,581.944419 L1330.85898,504.002297 L1488.28663,661.429949 L1842.05788,307.658705 Z M716.582453,243.243454 C571.28158,243.243454 453.100597,356.683969 442.958199,499.449242 C450.675241,493.496096 458.502526,486.771245 467.432246,478.502986 C499.513091,449.067983 543.389986,408.608636 625.080386,408.608636 C705.999081,408.608636 749.655489,448.847497 781.405604,478.172255 C808.966468,503.52825 825.613229,518.85209 864.308682,518.85209 C901.9017,518.85209 918.107487,503.748737 945.227377,478.723473 C956.251723,468.581075 968.047772,457.777216 981.71796,447.745062 C950.078089,330.335783 843.803399,243.243454 716.582453,243.243454 Z" stroke="none" stroke-width="1" fill-rule="evenodd"/>
</svg>
