<svg viewBox="0 0 1920 1920" version="1.1" xmlns="http://www.w3.org/2000/svg">
    <path d="M1707,1760 C1707,1789.44 1683.10667,1813.33333 1653.66667,1813.33333 L1333.66667,1813.33333 C1304.22667,1813.33333 1280.33333,1789.44 1280.33333,1760 L1280.33333,1493.33333 L1707,1493.33333 L1707,1760 Z M213.666667,1484.05333 L213.666667,1337.6 C213.666667,1250.98667 270.093333,1175.46667 354.146667,1149.65333 C536.973333,1093.65333 727.266667,1067.41333 916.493333,1066.66667 C1063.37333,1067.41333 1209.29333,1086.08 1352.76,1121.06667 C1308.70667,1160.10667 1280.33333,1216.53333 1280.33333,1280 L1280.33333,1386.66667 L1173.66667,1386.66667 L1173.66667,1674.98667 C1086.2,1695.25333 996.706667,1706.66667 907,1706.66667 C762.573333,1706.66667 483.533333,1677.33333 213.666667,1484.05333 L213.666667,1484.05333 Z M1387,1280 C1387,1221.22667 1434.89333,1173.33333 1493.66667,1173.33333 C1552.44,1173.33333 1600.33333,1221.22667 1600.33333,1280 L1600.33333,1386.66667 L1387,1386.66667 L1387,1280 Z M899.533333,106.666667 L914.466667,106.666667 C1088.54667,106.666667 1236.81333,229.226667 1272.12,396.906667 C1241.93333,414.4 1210.68,426.666667 1156.6,426.666667 C1087.05333,426.666667 1055.48,406.72 1015.37333,381.44 C969.72,352.64 918.093333,320 818.466667,320 C718.093333,320 666.146667,352.746667 620.28,381.653333 C593.506667,398.613333 570.466667,413.12 537.293333,420.8 C562.573333,243.52 715.426667,106.666667 899.533333,106.666667 L899.533333,106.666667 Z M1707,1386.66667 L1707,1280 C1707,1218.34667 1680.33333,1163.2 1638.41333,1124.26667 L1638.52,1124.16 C1600.65333,1080.42667 1515.42667,1054.4 1491.64,1047.89333 C1391.26667,1017.06667 1288.76,994.88 1185.18667,980.266667 C1306.89333,894.72 1387,753.813333 1387,594.133333 L1280.33333,594.133333 C1280.33333,795.84 1116.17333,960 914.466667,960 L899.533333,960 C697.826667,960 533.666667,795.84 533.666667,594.133333 L533.666667,529.813333 C599.906667,520.64 640.546667,495.04 677.24,471.893333 C717.346667,446.613333 749.026667,426.666667 818.466667,426.666667 C887.16,426.666667 918.626667,446.506667 958.413333,471.68 C1004.28,500.586667 1056.22667,533.333333 1156.6,533.333333 C1256.97333,533.333333 1309.13333,500.266667 1359.05333,468.586667 L1387.32,450.56 L1383.48,417.28 C1355.42667,179.413333 1153.72,0 914.466667,0 L899.533333,0 C638.946667,0 427,211.946667 427,480 L427,594.133333 C427,753.92 507.106667,894.826667 628.92,980.373333 C525.56,994.88 423.266667,1016.96 322.786667,1047.68 C193.72,1087.36 107,1203.84 107,1337.6 L107,1537.81333 L128.333333,1553.70667 C429.453333,1779.62667 745.4,1813.33333 907,1813.33333 C997.453333,1813.33333 1087.48,1801.81333 1175.90667,1782.82667 C1187.21333,1860.16 1253.24,1920 1333.66667,1920 L1653.66667,1920 C1741.88,1920 1813.66667,1848.21333 1813.66667,1760 L1813.66667,1386.66667 L1707,1386.66667 Z" stroke="none" stroke-width="1" fill-rule="evenodd"/>
</svg>
