<svg viewBox="0 0 1920 1920" version="1.1" xmlns="http://www.w3.org/2000/svg">
    <path d="M1440,1080 C1440,1124.16 1404.16,1160 1360,1160 C1315.84,1160 1280,1124.16 1280,1080 C1280,1035.84 1315.84,1000 1360,1000 C1404.16,1000 1440,1035.84 1440,1080 L1440,1080 Z M560,520 L400,520 L400,40 L1520,40 L1520,520 L1360,520 L1360,200 L560,200 L560,520 Z M1600,1400 L1520,1400 L1520,1240 L400,1240 L400,1400 L320,1400 L320,840 C320,795.84 355.92,760 400,760 L400,920 L1520,920 L1520,760 C1564.08,760 1600,795.84 1600,840 L1600,1400 Z M560,1720 L1360,1720 L1360,1400 L560,1400 L560,1720 Z M1520,600 L1360,600 L1360,760 L560,760 L560,600 L400,600 C267.68,600 160,707.68 160,840 L160,1560 L400,1560 L400,1880 L1520,1880 L1520,1560 L1760,1560 L1760,840 C1760,707.68 1652.32,600 1520,600 L1520,600 Z" stroke="none" stroke-width="1" fill-rule="evenodd"/>
</svg>
