<svg viewBox="0 0 1920 1920" version="1.1" xmlns="http://www.w3.org/2000/svg">
    <g stroke="none" stroke-width="1" fill-rule="evenodd">
        <path d="M746.255375,1466.76417 L826.739372,1547.47616 L577.99138,1796.11015 L497.507383,1715.51216 L746.255375,1466.76417 Z M580.35118,1300.92837 L660.949178,1381.52637 L329.323189,1713.15236 L248.725192,1632.55436 L580.35118,1300.92837 Z M414.503986,1135.20658 L495.101983,1215.80457 L80.5979973,1630.30856 L0,1549.71056 L414.503986,1135.20658 Z M1119.32036,264.600006 C1475.79835,-91.8779816 1844.58834,86.3040124 1848.35034,88.1280123 L1848.35034,88.1280123 L1865.45034,96.564012 L1873.88634,113.664011 C1875.71034,117.312011 2053.89233,486.101999 1697.30034,842.693987 L1697.30034,842.693987 L1550.69635,989.297982 L1548.07435,1655.17196 L1325.43235,1877.81395 L993.806366,1546.30196 L415.712386,968.207982 L84.0863971,636.467994 L306.72839,413.826001 L972.602367,411.318001 Z M1436.24035,1103.75398 L1074.40436,1465.70397 L1325.43235,1716.61796 L1434.30235,1607.74796 L1436.24035,1103.75398 Z M1779.26634,182.406009 C1710.18234,156.41401 1457.90035,87.1020124 1199.91836,345.198004 L1199.91836,345.198004 L576.90838,968.207982 L993.806366,1385.10597 L1616.70235,762.095989 C1873.65834,505.139998 1804.68834,250.920007 1779.26634,182.406009 Z M858.146371,525.773997 L354.152388,527.597997 L245.282392,636.467994 L496.310383,887.609985 L858.146371,525.773997 Z"/>
        <path d="M1534.98715,372.558003 C1483.91515,371.190003 1403.31715,385.326002 1321.69316,466.949999 L1281.22316,507.305998 L1454.61715,680.585992 L1494.97315,640.343994 C1577.16715,558.035996 1591.87315,479.033999 1589.82115,427.164001 L1587.65515,374.610003 L1534.98715,372.558003 Z"/>
    </g>
</svg>
