<svg viewBox="0 0 1920 1920" version="1.1" xmlns="http://www.w3.org/2000/svg">
    <path d="M960,1807.05882 C492.875294,1807.05882 112.941176,1427.12471 112.941176,960 C112.941176,492.875294 492.875294,112.941176 960,112.941176 C1427.12471,112.941176 1807.05882,492.875294 1807.05882,960 C1807.05882,1427.12471 1427.12471,1807.05882 960,1807.05882 M960,0 C430.644706,0 0,430.644706 0,960 C0,1489.35529 430.644706,1920 960,1920 C1489.35529,1920 1920,1489.35529 1920,960 C1920,430.644706 1489.35529,0 960,0 M1242.35294,1129.41176 L1242.35294,960 L1242.35294,621.176471 L1129.41176,621.176471 L1129.41176,960 C1129.41176,1053.40235 1053.40235,1129.41176 960,1129.41176 C866.597647,1129.41176 790.588235,1053.40235 790.588235,960 L790.588235,903.529412 L790.588235,621.176471 L677.647059,621.176471 L677.647059,903.529412 L677.647059,960 L677.647059,1468.23529 L790.588235,1468.23529 L790.588235,1184.41412 C837.910588,1220.32941 896.188235,1242.35294 960,1242.35294 C1027.53882,1242.35294 1088.75294,1217.61882 1137.31765,1177.97647 C1158.32471,1247.54824 1222.36235,1298.82353 1298.82353,1298.82353 L1298.82353,1185.88235 C1267.76471,1185.88235 1242.35294,1160.58353 1242.35294,1129.41176" stroke="none" stroke-width="1" fill-rule="evenodd"/>
</svg>
