<svg viewBox="0 0 1920 1920" version="1.1" xmlns="http://www.w3.org/2000/svg">
    <path d="M960 1807.059c-467.125 0-847.059-379.934-847.059-847.059 0-467.125 379.934-847.059 847.059-847.059 467.125 0 847.059 379.934 847.059 847.059 0 467.125-379.934 847.059-847.059 847.059M960 0C430.645 0 0 430.645 0 960s430.645 960 960 960 960-430.645 960-960S1489.355 0 960 0m282.353 1162.504L661.158 581.308l-79.963 79.85 581.309 581.195H790.588v112.941h564.706V790.588h-112.941v371.916z" stroke="none" stroke-width="1" fill-rule="evenodd"/>
</svg>
