<svg viewBox="0 0 1920 1920" version="1.1" xmlns="http://www.w3.org/2000/svg">
    <path d="M960 1807.059c-467.125 0-847.059-379.934-847.059-847.059 0-467.125 379.934-847.059 847.059-847.059 467.125 0 847.059 379.934 847.059 847.059 0 467.125-379.934 847.059-847.059 847.059M960 0C430.645 0 0 430.645 0 960s430.645 960 960 960 960-430.645 960-960S1489.355 0 960 0m169.412 1047.902c0 107.181-87.19 194.485-194.485 194.485h-62.795c-107.294 0-194.485-87.304-194.485-194.485v-175.85c0-107.18 87.19-194.371 194.485-194.371h62.795c107.294 0 194.485 87.19 194.485 194.372v175.85zM960 567.224c-8.358-.677-16.49-2.484-25.073-2.484h-62.795c-169.525 0-307.426 137.788-307.426 307.313v175.85c0 169.524 137.901 307.425 307.426 307.425h62.795c169.525 0 307.426-137.901 307.426-307.426v-175.85c0-74.089-27.445-141.289-71.266-194.371h240.678V564.74H960v2.484z" stroke="none" stroke-width="1" fill-rule="evenodd"/>
</svg>
