<svg viewBox="0 0 1920 1920" version="1.1" xmlns="http://www.w3.org/2000/svg">
    <path d="M960,-4.99999828e-08 C1490.19336,-4.99999828e-08 1920,429.80664 1920,960 C1920,1490.19336 1490.19336,1920 960,1920 C429.80664,1920 0,1490.19336 0,960 C0,429.80664 429.80664,-4.99999828e-08 960,-4.99999828e-08 Z M960,106.666667 C488.717014,106.666667 106.666667,488.717013 106.666667,960 C106.666667,1431.28299 488.717014,1813.33333 960,1813.33333 C1431.28299,1813.33333 1813.33333,1431.28299 1813.33333,960 C1813.33333,488.717013 1431.28299,106.666667 960,106.666667 Z M960,330.666672 C1307.07733,330.666672 1589.33333,613.080003 1589.33333,960 C1589.33333,1307.07733 1307.07733,1589.33333 960,1589.33333 C612.92267,1589.33333 330.666672,1307.07733 330.666672,960 C330.666672,613.080003 612.92267,330.666672 960,330.666672 Z" stroke="none" stroke-width="1" fill-rule="evenodd"/>
</svg>
