<svg viewBox="0 0 1920 1920" xmlns="http://www.w3.org/2000/svg">
    <g stroke="none" stroke-width="1" fill-rule="evenodd">
        <path d="M639.999 209.777H756.018L621.665 75.4247L697.09 0L960.201 263.111L700.005 523.307L624.58 447.883L756.019 316.444H639.999C463.268 316.444 319.999 459.713 319.999 636.444H213.332C213.332 400.802 404.357 209.777 639.999 209.777Z"/>
        <path fill-rule="evenodd" clip-rule="evenodd" d="M639.999 853.333C639.999 735.513 735.511 640 853.332 640H1706.67C1824.49 640 1920 735.513 1920 853.333V1706.67C1920 1824.49 1824.49 1920 1706.67 1920H853.332C735.511 1920 639.999 1824.49 639.999 1706.67V853.333ZM853.332 746.667H1706.67C1765.58 746.667 1813.33 794.423 1813.33 853.333V1706.67C1813.33 1765.58 1765.58 1813.33 1706.67 1813.33H853.332C794.422 1813.33 746.665 1765.58 746.665 1706.67V853.333C746.665 794.423 794.422 746.667 853.332 746.667Z"/>
    </g>
</svg>
