<svg viewBox="0 0 1920 1920" xmlns="http://www.w3.org/2000/svg">
    <g stroke="none" stroke-width="1" fill-rule="evenodd">
        <path d="M1251.45 447.883L1120 316.432H1280C1456.73 316.432 1600 459.701 1600 636.432H1706.67C1706.67 400.791 1515.64 209.766 1280 209.766H1120.03L1254.37 75.4247L1178.94 0L915.833 263.111L1176.03 523.307L1251.45 447.883Z"/>
        <path fill-rule="evenodd" clip-rule="evenodd" d="M1280 853.333C1280 735.513 1184.49 640 1066.67 640H213.333C95.5126 640 0 735.513 0 853.333V1706.67C0 1824.49 95.5126 1920 213.333 1920H1066.67C1184.49 1920 1280 1824.49 1280 1706.67V853.333ZM1066.67 746.667H213.333C154.423 746.667 106.667 794.423 106.667 853.333V1706.67C106.667 1765.58 154.423 1813.33 213.333 1813.33H1066.67C1125.58 1813.33 1173.33 1765.58 1173.33 1706.67V853.333C1173.33 794.423 1125.58 746.667 1066.67 746.667Z"/>
    </g>
</svg>
