<svg viewBox="0 0 1920 1920" version="1.1" xmlns="http://www.w3.org/2000/svg">
    <path d="M1706.67,106.667 L1386.67,106.667 L1386.67,0 L1706.67,0 C1824.49,0 1920,95.5126 1920,213.333 L1920,533.333 L1813.33,533.333 L1813.33,213.333 C1813.33,154.423 1765.58,106.667 1706.67,106.667 Z M533.333,0 L533.333,106.667 L213.333,106.667 C154.423,106.667 106.667,154.423 106.667,213.333 L106.667,533.333 L0,533.333 L0,213.333 C0,95.5126 95.5126,0 213.333,0 L533.333,0 Z M0,1386.67 L106.667,1386.67 L106.667,1706.67 C106.667,1765.58 154.423,1813.33 213.333,1813.33 L533.333,1813.33 L533.333,1920 L213.333,1920 C95.5126,1920 0,1824.49 0,1706.67 L0,1386.67 Z M1386.67,1920 L1386.67,1813.33 L1706.67,1813.33 C1765.58,1813.33 1813.33,1765.58 1813.33,1706.67 L1813.33,1386.67 L1920,1386.67 L1920,1706.67 C1920,1824.49 1824.49,1920 1706.67,1920 L1386.67,1920 Z M1280,960 C1280,1136.73 1136.73,1280 960,1280 C783.269,1280 640,1136.73 640,960 C640,783.269 783.269,640 960,640 C1136.73,640 1280,783.269 1280,960 Z M1386.67,960 C1386.67,1195.64 1195.64,1386.67 960,1386.67 C724.359,1386.67 533.333,1195.64 533.333,960 C533.333,724.359 724.359,533.333 960,533.333 C1195.64,533.333 1386.67,724.359 1386.67,960 Z" stroke="none" stroke-width="1" fill-rule="evenodd"/>
</svg>
