<svg viewBox="0 0 1920 1920" version="1.1" xmlns="http://www.w3.org/2000/svg">
    <path d="M1739.33929,1293.41365 L1633.51341,1474.23247 L1393.28753,1394.04424 L1368.77929,1416.29365 C1298.86871,1479.87953 1218.56753,1525.95953 1130.13459,1553.06541 L1098.05929,1563.00424 L1048.59106,1807.07012 L835.584,1807.07012 L786.115765,1562.89129 L754.040471,1552.95247 C665.607529,1525.84659 585.306353,1479.76659 515.395765,1416.18071 L490.887529,1393.93129 L250.661647,1474.11953 L144.835765,1293.30071 L334.576941,1128.85835 L327.122824,1095.87953 C316.732235,1050.13835 311.536941,1004.39718 311.536941,960.011294 C311.536941,915.625412 316.732235,869.884235 327.122824,824.143059 L334.576941,791.164235 L144.835765,626.721882 L250.661647,445.903059 L490.887529,525.978353 L515.395765,503.728941 C585.306353,440.143059 665.607529,394.063059 754.040471,366.844235 L786.115765,357.018353 L835.584,112.952471 L1048.59106,112.952471 L1098.05929,357.131294 L1130.13459,366.957176 C1218.56753,394.176 1298.86871,440.143059 1368.77929,503.841882 L1393.28753,526.091294 L1633.51341,445.903059 L1739.33929,626.721882 L1549.59812,791.164235 L1557.05224,824.143059 C1567.44282,869.884235 1572.63812,915.625412 1572.63812,960.011294 C1572.63812,1004.39718 1567.44282,1050.13835 1557.05224,1095.87953 L1549.59812,1128.85835 L1739.33929,1293.41365 Z M1685.57929,960.011294 C1685.57929,918.223059 1681.73929,875.531294 1673.94635,832.726588 L1884.12988,650.665412 L1684.67576,309.808941 L1419.48988,398.241882 C1352.51576,342.674824 1276.16753,298.853647 1195.64047,269.827765 L1140.97694,0.0112941176 L743.198118,0.0112941176 L688.534588,269.714824 C607.104,298.853647 532.111059,341.997176 464.572235,398.128941 L199.499294,309.808941 L0.0451764706,650.665412 L210.115765,832.726588 C202.435765,875.531294 198.595765,918.223059 198.595765,960.011294 C198.595765,1001.79953 202.435765,1044.49129 210.115765,1087.18306 L0.0451764706,1269.35718 L199.499294,1610.21365 L464.685176,1521.66776 C531.659294,1577.34776 608.007529,1621.056 688.534588,1650.19482 L743.198118,1920.01129 L1140.97694,1920.01129 L1195.64047,1650.30776 C1276.95812,1621.056 1352.064,1578.02541 1419.48988,1521.78071 L1684.67576,1610.32659 L1884.12988,1269.47012 L1673.94635,1087.296 C1681.73929,1044.49129 1685.57929,1001.79953 1685.57929,960.011294 L1685.57929,960.011294 Z M942.076235,564.705882 C724.099765,564.705882 546.782118,742.023529 546.782118,960 C546.782118,1177.97647 724.099765,1355.29412 942.076235,1355.29412 C1160.05271,1355.29412 1337.37035,1177.97647 1337.37035,960 C1337.37035,742.023529 1160.05271,564.705882 942.076235,564.705882 M942.076235,1242.35294 C786.443294,1242.35294 659.723294,1115.63294 659.723294,960 C659.723294,804.367059 786.443294,677.647059 942.076235,677.647059 C1097.70918,677.647059 1224.42918,804.367059 1224.42918,960 C1224.42918,1115.63294 1097.70918,1242.35294 942.076235,1242.35294" stroke="none" stroke-width="1" fill-rule="evenodd"/>
</svg>
