<svg viewBox="0 0 1920 1920" version="1.1" xmlns="http://www.w3.org/2000/svg">
    <path d="M1478.49624,1318.49624 C1611.18797,1318.49624 1719.09774,1426.40602 1719.09774,1559.09774 C1719.09774,1691.78947 1611.18797,1799.69925 1478.49624,1799.69925 C1345.80451,1799.69925 1237.89474,1691.78947 1237.89474,1559.09774 C1237.89474,1538.04511 1241.50376,1517.95489 1246.55639,1498.46617 C1257.02256,1458.52632 1277.11278,1422.43609 1304.90226,1393.32331 C1348.69173,1347.48872 1410.16541,1318.49624 1478.49624,1318.49624 Z M440.902256,716.992481 C508.511278,716.992481 569.383459,745.142857 613.172932,790.135338 C641.203008,819.007519 661.293233,854.977444 672.120301,894.917293 C677.654135,915.007519 681.503759,935.699248 681.503759,957.593985 C681.503759,981.774436 676.81203,1004.87218 670.075188,1026.88722 C658.165414,1066.34586 637.112782,1101.83459 608.120301,1129.98496 C564.81203,1171.96992 505.984962,1198.19549 440.902256,1198.19549 C308.210526,1198.19549 200.300752,1090.28571 200.300752,957.593985 C200.300752,824.902256 308.210526,716.992481 440.902256,716.992481 Z M1478.49624,120.300752 C1611.18797,120.300752 1719.09774,228.210526 1719.09774,360.902256 C1719.09774,493.593985 1611.18797,601.503759 1478.49624,601.503759 C1411.00752,601.503759 1350.25564,573.473684 1306.58647,528.721805 C1278.43609,499.849624 1258.22556,463.879699 1247.3985,423.93985 C1241.86466,403.729323 1237.89474,382.917293 1237.89474,360.902256 C1237.89474,228.210526 1345.80451,120.300752 1478.49624,120.300752 Z M1478.49624,1198.19549 C1365.65414,1198.19549 1265.92481,1251.24812 1199.7594,1332.69173 L776.421053,1088.2406 C792.300752,1047.57895 801.804511,1003.78947 801.804511,957.593985 C801.804511,913.804511 792.781955,872.421053 778.466165,833.56391 L1201.44361,589.233083 C1267.72932,669.473684 1366.61654,721.804511 1478.49624,721.804511 C1677.47368,721.804511 1839.3985,559.879699 1839.3985,360.902256 C1839.3985,161.924812 1677.47368,0 1478.49624,0 C1279.5188,0 1117.59398,161.924812 1117.59398,360.902256 C1117.59398,404.81203 1126.61654,446.43609 1141.05263,485.293233 L718.195489,729.503759 C652.030075,649.142857 553.022556,596.691729 440.902256,596.691729 C241.924812,596.691729 80,758.616541 80,957.593985 C80,1156.57143 241.924812,1318.49624 440.902256,1318.49624 C550.496241,1318.49624 647.699248,1268.33083 713.864662,1190.97744 L1140.21053,1437.11278 C1126.37594,1475.48872 1117.59398,1516.15038 1117.59398,1559.09774 C1117.59398,1758.07519 1279.5188,1920 1478.49624,1920 C1677.47368,1920 1839.3985,1758.07519 1839.3985,1559.09774 C1839.3985,1360.1203 1677.47368,1198.19549 1478.49624,1198.19549" stroke="none" stroke-width="1" fill-rule="evenodd"/>
</svg>
