<svg width="1920" height="1920" viewBox="0 0 1920 1920" fill="none" xmlns="http://www.w3.org/2000/svg">
<path d="M883.229 580L503.333 960L883.229 1340L817.187 1406.04L371.146 960L817.187 513.958L883.229 580Z" fill="#273540"/>
<path fill-rule="evenodd" clip-rule="evenodd" d="M1750.62 0C1844 0.019942 1919.98 76.0017 1920 169.375V1750.62C1919.98 1844 1844 1919.98 1750.62 1920H169.375C76.0018 1919.98 0.019942 1844 0 1750.62V169.375C0.0199683 76.0018 76.0017 0.0199517 169.375 0H1750.62ZM169.375 112.917C138.345 112.937 112.937 138.345 112.917 169.375V1750.62C112.937 1781.65 138.345 1807.06 169.375 1807.08H1261.15V112.917H169.375ZM1374.17 1807.08H1750.62C1781.65 1807.06 1807.06 1781.65 1807.08 1750.62V169.375C1807.06 138.345 1781.65 112.937 1750.62 112.917H1374.17V1807.08Z" fill="#273540"/>
</svg>
