<svg viewBox="0 0 1920 1920" version="1.1" xmlns="http://www.w3.org/2000/svg">
    <path d="M960,0 C1489.35529,0 1920,430.644706 1920,960 C1920,1489.35529 1489.35529,1920 960,1920 C430.644706,1920 0,1489.35529 0,960 C0,674.710588 127.058824,407.378824 342.889412,225.882353 L342.889412,225.882353 L0,225.882353 L0,112.941176 L564.705882,112.941176 L564.705882,677.647059 L451.764706,677.647059 L451.764706,284.272941 C239.548235,444.084706 112.941176,692.894118 112.941176,960 C112.941176,1427.12471 492.875294,1807.05882 960,1807.05882 C1427.12471,1807.05882 1807.05882,1427.12471 1807.05882,960 C1807.05882,492.875294 1427.12471,112.941176 960,112.941176 L960,112.941176 Z M1315.36941,714.375529 L1395.21882,794.224941 L919.736471,1269.70729 L637.722353,987.806118 L717.571765,907.956706 L919.736471,1110.00847 L1315.36941,714.375529 Z" stroke="none" stroke-width="1" fill-rule="evenodd"/>
</svg>
