<svg viewBox="0 0 1920 1920" version="1.1" xmlns="http://www.w3.org/2000/svg">
    <path d="M1363.84376,1807.05882 C1290.65788,1807.05882 1218.03671,1789.10118 1153.88612,1755.21882 L1136.60612,1745.95765 L1117.40612,1749.45882 C1068.50259,1758.38118 1018.80847,1762.78588 969.566118,1762.78588 C525.481412,1762.78588 164.295529,1406.90824 164.295529,969.374118 C164.295529,915.614118 169.716706,861.967059 180.446118,810.127059 L184.963765,788.668235 L173.669647,769.807059 C133.914353,702.832941 112.907294,626.597647 112.907294,549.232941 C112.907294,308.668235 311.796706,112.941176 556.314353,112.941176 C640.116706,112.941176 721.773176,136.094118 792.474353,180.028235 L810.657882,191.322353 L831.777882,187.708235 C877.067294,179.915294 923.486118,176.075294 969.566118,176.075294 C1413.65082,176.075294 1775.06259,531.952941 1775.06259,969.374118 C1775.06259,1026.18353 1768.73788,1083.44471 1756.42729,1139.57647 L1752.02259,1159.22824 L1761.17082,1177.18588 C1791.66494,1237.72235 1807.02494,1302.77647 1807.02494,1370.76706 C1807.02494,1611.33176 1608.24847,1807.05882 1363.84376,1807.05882 M1870.72376,1144.54588 C1882.24376,1086.72 1888.00376,1027.87765 1888.00376,969.374118 C1888.00376,469.609412 1475.99435,63.1341176 969.566118,63.1341176 C924.163765,63.1341176 878.535529,66.4094118 833.584941,73.0729412 C749.443765,25.1858824 654.008471,0 556.314353,0 C249.566118,0 -0.0338823529,246.437647 -0.0338823529,549.232941 C-0.0338823529,639.585882 22.6672941,728.696471 65.8108235,808.32 C56.2108235,861.176471 51.3543529,915.162353 51.3543529,969.374118 C51.3543529,1469.13882 463.250824,1875.72706 969.566118,1875.72706 C1019.14729,1875.72706 1069.18024,1871.77412 1118.53553,1863.86824 C1194.54494,1900.68706 1278.912,1920 1363.84376,1920 C1670.47906,1920 1919.96612,1673.56235 1919.96612,1370.76706 C1919.96612,1291.82118 1903.47671,1215.81176 1870.72376,1144.54588 M1364.66824,1315.42588 C1331.12471,1363.2 1281.54353,1401.14824 1217.39294,1428.14118 C1153.58118,1454.68235 1077.23294,1468.23529 990.381176,1468.23529 C886.249412,1468.23529 798.832941,1449.82588 730.729412,1413.34588 C681.938824,1386.91765 641.731765,1350.88941 611.124706,1306.50353 C580.291765,1261.77882 564.705882,1217.28 564.705882,1174.47529 C564.705882,1147.70824 574.870588,1124.55529 595.087059,1105.35529 C614.851765,1086.60706 640.263529,1077.00706 670.644706,1077.00706 C695.604706,1077.00706 717.176471,1084.68706 734.682353,1099.48235 C751.284706,1113.82588 765.628235,1134.83294 777.261176,1162.16471 C790.023529,1191.75529 804.028235,1216.71529 818.823529,1236.59294 C833.167059,1255.56706 853.722353,1271.49176 879.811765,1284.02824 C906.127059,1296.45176 941.477647,1302.88941 985.185882,1302.88941 C1045.15765,1302.88941 1094.4,1290.01412 1131.33176,1264.60235 C1167.47294,1239.64235 1185.09176,1209.82588 1185.09176,1173.34588 C1185.09176,1144.43294 1175.94353,1121.84471 1157.08235,1103.88706 C1137.20471,1085.36471 1111.11529,1070.79529 1079.60471,1060.96941 C1046.62588,1050.69176 1001.78824,1039.51059 946.447059,1027.76471 C871.115294,1011.50118 807.077647,992.188235 756.141176,970.390588 C704.188235,948.141176 662.174118,917.308235 631.567059,878.456471 C600.395294,839.152941 584.583529,789.910588 584.583529,731.971765 C584.583529,676.743529 601.185882,627.049412 633.938824,584.131765 C666.352941,541.44 713.675294,508.348235 774.663529,485.534118 C834.974118,463.284706 906.578824,451.764706 987.670588,451.764706 C1052.38588,451.764706 1109.53412,459.218824 1157.08235,474.24 C1204.85647,489.261176 1245.17647,509.477647 1276.91294,534.437647 C1308.87529,559.510588 1332.59294,586.390588 1347.50118,614.287059 C1362.40941,642.522353 1370.20235,670.644706 1370.20235,697.637647 C1370.20235,723.84 1360.03765,747.557647 1340.38588,768.225882 C1320.50824,789.007059 1295.43529,799.623529 1265.84471,799.623529 C1239.07765,799.623529 1217.95765,793.072941 1203.27529,779.971765 C1189.72235,767.887059 1175.60471,749.025882 1160.01882,721.92 C1141.83529,687.247059 1119.92471,660.028235 1094.85176,640.715294 C1070.45647,622.08 1029.79765,612.592941 973.778824,612.592941 C921.712941,612.592941 879.472941,623.096471 848.075294,643.877647 C817.694118,663.868235 803.011765,686.795294 803.011765,713.901176 C803.011765,730.616471 807.755294,744.508235 817.581176,756.48 C827.858824,769.242353 842.428235,780.310588 860.724706,789.458824 C879.811765,799.284706 899.463529,806.851765 919.115294,812.385882 C939.331765,818.032941 973.214118,826.277647 1019.52,837.12 C1078.24941,849.882353 1132.23529,864 1180.00941,879.472941 C1228.34824,895.058824 1270.24941,914.258824 1304.24471,936.621176 C1338.80471,959.322353 1366.47529,988.574118 1385.90118,1023.58588 C1405.55294,1058.59765 1415.49176,1101.96706 1415.49176,1152.33882 C1415.49176,1212.42353 1398.43765,1267.31294 1364.66824,1315.42588 M1399.68,866.710588 C1407.36,860.498824 1414.81412,853.722353 1421.92941,846.268235 C1462.02353,804.48 1483.14353,753.091765 1483.14353,697.637647 C1483.14353,652.235294 1471.05882,606.494118 1447.34118,561.543529 C1424.75294,519.190588 1390.87059,480.338824 1346.48471,445.552941 C1304.47059,412.348235 1251.95294,385.694118 1190.85176,366.494118 C1132.68706,348.197647 1064.24471,338.823529 987.670588,338.823529 C893.590588,338.823529 808.658824,352.602353 735.585882,379.595294 C654.042353,409.976471 589.778824,455.717647 544.037647,515.576471 C496.037647,578.710588 471.642353,651.557647 471.642353,731.971765 C471.642353,816.112941 495.698824,888.96 543.134118,948.705882 C552.96,961.129412 563.576471,972.988235 575.096471,984.282353 C553.976471,993.995294 534.663529,1007.09647 517.496471,1023.36 C474.465882,1064.24471 451.764706,1116.42353 451.764706,1174.47529 C451.764706,1240.77176 474.127059,1306.72941 518.174118,1370.65412 C559.171765,1430.06118 612.592941,1477.83529 676.969412,1512.62118 C761.901176,1558.13647 867.275294,1581.17647 990.381176,1581.17647 C1092.02824,1581.17647 1183.05882,1564.8 1260.87529,1532.38588 C1345.24235,1496.92235 1411.2,1445.76 1457.16706,1380.25412 C1504.48941,1312.71529 1528.43294,1236.02824 1528.43294,1152.33882 C1528.43294,1082.42824 1513.63765,1020.64941 1484.61176,968.470588 C1462.92706,929.505882 1434.35294,895.397647 1399.68,866.710588" stroke="none" stroke-width="1" fill-rule="evenodd"/>
</svg>
