<svg viewBox="0 0 1920 1920" version="1.1" xmlns="http://www.w3.org/2000/svg">
    <path d="M1395.06 1560c-165.36 0-300-134.64-300-300s134.64-300 300-300c165.12 0 299.4 134.16 299.88 299.04 0 .36.12.72.12.96 0 165.36-134.64 300-300 300zm-975 0c-165.48 0-300-134.64-300-300s134.52-300 300-300c165.36 0 300 134.64 300 300s-134.64 300-300 300zm1394.88-300.96c-.36-124.8-96.96-781.8-100.92-808.44-14.76-120-117.12-210.6-238.2-210.6h-155.76v120h155.76c60.48 0 111.72 45.24 119.28 106.68 15 101.88 42.84 297.24 65.4 470.64-72.6-59.88-164.28-97.32-265.44-97.32-210.96 0-384.48 157.08-414 360H833.94c-29.4-202.92-202.92-360-413.88-360-101.28 0-192.96 37.44-265.56 97.32 22.56-173.52 50.52-369.48 65.52-472.08 7.44-60 58.68-105.24 119.16-105.24h140.88V240H339.18c-121.08 0-223.44 90.6-237.96 209.28C97.02 477.24.06 1137 .06 1260c0 231.6 188.4 420 420 420 210.96 0 384.48-157.08 413.88-360h147.12c29.52 202.92 203.04 360 414 360 231.6 0 420-188.4 420-420 0-.24-.12-.6-.12-.96" stroke="none" stroke-width="1" fill-rule="evenodd"/>
</svg>
