<svg viewBox="0 0 1920 1920" version="1.1" xmlns="http://www.w3.org/2000/svg">
    <path d="M219.03 0H1801.44v1920H219.03v-439.216h-56.514c-31.196 0-56.515-25.299-56.515-56.47 0-31.172 25.319-56.47 56.515-56.47h56.514V1029.02h-56.514c-31.196 0-56.515-25.3-56.515-56.471 0-31.172 25.319-56.47 56.515-56.47h56.514V577.254h-56.514c-31.196 0-56.515-25.299-56.515-56.47 0-31.172 25.319-56.471 56.515-56.471h56.514V0zm1469.382 1807.059V112.94H332.059v351.373h56.515c31.196 0 56.514 25.299 56.514 56.47 0 31.172-25.318 56.47-56.514 56.47h-56.515v338.824h56.515c31.196 0 56.514 25.3 56.514 56.471 0 31.172-25.318 56.47-56.514 56.47h-56.515v338.824h56.515c31.196 0 56.514 25.299 56.514 56.47 0 31.172-25.318 56.471-56.514 56.471h-56.515v326.275h1356.353zM640.288 425.202h748.611v112.94H640.288v-112.94zm0 214.83h639.439v112.94H640.288v-112.94zm0 534.844h748.611v112.94H640.288v-112.94zm0 214.83h639.439v112.94H640.288v-112.94z" stroke="none" stroke-width="1" fill-rule="evenodd"/>
</svg>
