<svg viewBox="0 0 1920 1920" xmlns="http://www.w3.org/2000/svg">
    <path d="M1800 1740c0 33-26.88 60-60 60H180c-33.12 0-60-27-60-60V180c0-33.12 26.88-60 60-60h1560c33.12 0 60 26.88 60 60v1560ZM1740 0H180C80.76 0 0 80.76 0 180v1560c0 99.24 80.76 180 180 180h1560c99.24 0 180-80.76 180-180V180c0-99.24-80.76-180-180-180Zm-235.08 245.388L960 790.308l-544.92-544.92-169.68 169.68 544.92 544.92-544.92 544.92 169.68 169.68L960 1129.668l544.92 544.92 169.68-169.68-544.92-544.92 544.92-544.92-169.68-169.68Z" fill-rule="evenodd"/>
</svg>
