<svg viewBox="0 0 1920 1920" version="1.1" xmlns="http://www.w3.org/2000/svg">
    <path d="M180 1800c-33 0-60-27-60-60v-420h300v-120H120V720h300V600H120V180c0-33.12 27-60 60-60h1560c33 0 60 26.88 60 60v420h-300v120h300v480h-300v120h300v420c0 33-27 60-60 60H180zm1740-60V180c0-99.24-80.76-180-180-180H180C80.76 0 0 80.76 0 180v1560c0 99.24 80.76 180 180 180h1560c99.24 0 180-80.76 180-180zM485.32 1265L655 1434.68l305.16-305.16 305.16 305.16L1435 1265l-305.16-305.16L1435 654.68 1265.32 485 960.16 790.16 655 485 485.32 654.68l305.16 305.16L485.32 1265z" stroke="none" stroke-width="1" fill-rule="evenodd"/>
</svg>
