<svg viewBox="0 0 1920 1920" version="1.1" xmlns="http://www.w3.org/2000/svg">
    <path d="M1740 120H180c-33 0-60 26.88-60 60v1020h1680V180c0-33.12-27-60-60-60zm60 1620v-420h-480v480h420c33 0 60-26.88 60-60zm-600 60v-480H720v480h480zm-1080-60c0 33.12 27 60 60 60h420v-480H120v420zM0 180C0 80.76 80.76 0 180 0h1560c99.24 0 180 80.76 180 180v1560c0 99.24-80.76 180-180 180H180c-99.24 0-180-80.76-180-180V180zm510 596.484v-240h330v-330h240v330h330v240h-330v330H840v-330H510z" stroke="none" stroke-width="1" fill-rule="evenodd"/>
</svg>
