<svg viewBox="0 0 1920 1920" version="1.1" xmlns="http://www.w3.org/2000/svg">
    <path d="M1740 0c99.24 0 180 80.76 180 180v1560c0 99.24-80.76 180-180 180H180c-99.24 0-180-80.76-180-180V180C0 80.76 80.76 0 180 0h1560zm60 1740V180c0-33-26.88-60-60-60H720v1680h1020c33.12 0 60-27 60-60zm-1620 60h420v-480H120v420c0 33 26.88 60 60 60zm-60-600h480V720H120v480zm60-1080c-33.12 0-60 27-60 60v420h480V120H180zm963.516 390h240v330h330v240h-330v330h-240v-330h-330V840h330V510z" stroke="none" stroke-width="1" fill-rule="evenodd"/>
</svg>
