<svg viewBox="0 0 1920 1920" version="1.1" xmlns="http://www.w3.org/2000/svg">
    <path d="M1740,0 C1839.24,0 1920,80.76 1920,180 L1920,1740 C1920,1839.24 1839.24,1920 1740,1920 L180,1920 C80.76,1920 0,1839.24 0,1740 L0,180 C0,80.76 80.76,0 180,0 L1740,0 Z M1800,1740 L1800,180 C1800,147 1773.12,120 1740,120 L720,120 L720,1800 L1740,1800 C1773.12,1800 1800,1773 1800,1740 Z M180,1800 L600,1800 L600,1320 L120,1320 L120,1740 C120,1773 146.88,1800 180,1800 Z M120,1200 L600,1200 L600,720 L120,720 L120,1200 Z M180,120 C146.88,120 120,147 120,180 L120,600 L600,600 L600,120 L180,120 Z M1143.516,510 L1383.516,510 L1383.516,840 L1713.516,840 L1713.516,1080 L1383.516,1080 L1383.516,1410 L1143.516,1410 L1143.516,1080 L813.516,1080 L813.516,840 L1143.516,840 L1143.516,510 Z" stroke="none" stroke-width="1" fill-rule="evenodd"/>
</svg>
