<svg viewBox="0 0 1920 1920" version="1.1" xmlns="http://www.w3.org/2000/svg">
    <path d="M180,1800 L1740,1800 C1773,1800 1800,1773.12 1800,1740 L1800,720 L120,720 L120,1740 C120,1773.12 147,1800 180,1800 Z M120,180 L120,600 L600,600 L600,120 L180,120 C147,120 120,146.88 120,180 Z M720,120 L720,600 L1200,600 L1200,120 L720,120 Z M1800,180 C1800,146.88 1773,120 1740,120 L1320,120 L1320,600 L1800,600 L1800,180 Z M1920,1740 C1920,1839.24 1839.24,1920 1740,1920 L180,1920 C80.76,1920 0,1839.24 0,1740 L0,180 C0,80.76 80.76,-1.43283676e-13 180,-1.43283676e-13 L1740,-1.43283676e-13 C1839.24,-1.43283676e-13 1920,80.76 1920,180 L1920,1740 Z M1410,1143.516 L1410,1383.516 L1080,1383.516 L1080,1713.516 L840,1713.516 L840,1383.516 L510,1383.516 L510,1143.516 L840,1143.516 L840,813.516 L1080,813.516 L1080,1143.516 L1410,1143.516 Z" stroke="none" stroke-width="1" fill-rule="evenodd"/>
</svg>
