<svg viewBox="0 0 1920 1920" version="1.1" xmlns="http://www.w3.org/2000/svg">
    <path d="M1740,0 C1839.24,0 1920,80.76 1920,180 L1920,1740 C1920,1839.24 1839.24,1920 1740,1920 L180,1920 C80.76,1920 0,1839.24 0,1740 L0,180 C0,80.76 80.76,0 180,0 L1740,0 Z M1320,1200 L1800,1200 L1800,720 L1320,720 L1320,1200 Z M1800,1740 L1800,1320 L1320,1320 L1320,1800 L1740,1800 C1773,1800 1800,1773 1800,1740 Z M720,1200 L1200,1200 L1200,720 L720,720 L720,1200 Z M720,1800 L1200,1800 L1200,1320 L720,1320 L720,1800 Z M120,1200 L600,1200 L600,720 L120,720 L120,1200 Z M600,1800 L600,1320 L120,1320 L120,1740 C120,1773 147,1800 180,1800 L600,1800 Z" stroke="none" stroke-width="1" fill-rule="evenodd"/>
</svg>
