<svg viewBox="0 0 1920 1920" version="1.1" xmlns="http://www.w3.org/2000/svg">
    <path d="M120 180v1560c0 33 26.88 60 60 60h1020V120H180c-33.12 0-60 27-60 60zm1620-60h-420v480h480V180c0-33-26.88-60-60-60zm60 600h-480v480h480V720zm-60 1080c33.12 0 60-27 60-60v-420h-480v480h420zM180 1920c-99.24 0-180-80.76-180-180V180C0 80.76 80.76 0 180 0h1560c99.24 0 180 80.76 180 180v1560c0 99.24-80.76 180-180 180H180zm596.484-510h-240v-330h-330V840h330V510h240v330h330v240h-330v330z" stroke="none" stroke-width="1" fill-rule="evenodd"/>
</svg>
