<svg viewBox="0 0 1920 1920" version="1.1" xmlns="http://www.w3.org/2000/svg">
    <path d="M1740 0c99.24 0 180 80.76 180 180v1560c0 99.24-80.76 180-180 180H180c-99.24 0-180-80.76-180-180V180C0 80.76 80.76 0 180 0h1560zM894 1800v-774H120v677.25c0 53.213 43.537 96.75 96.75 96.75H894zm0-906V120H216.75c-53.213 0-96.75 43.537-96.75 96.75V894h774zm906 809.25V1026h-774v774h677.25c53.213 0 96.75-43.537 96.75-96.75zm0-809.25V216.75c0-53.213-43.537-96.75-96.75-96.75H1026v774h774z" stroke="none" stroke-width="1" fill-rule="evenodd"/>
</svg>
