<svg viewBox="0 0 1920 1920" version="1.1" xmlns="http://www.w3.org/2000/svg">
    <path d="M1740 0c99.24 0 180 80.76 180 180v1560c0 99.24-80.76 180-180 180H180c-99.24 0-180-80.76-180-180V180C0 80.76 80.76 0 180 0h1560zm60 600V180c0-33-27-60-60-60h-420v480h480zm0 1140v-420h-480v480h420c33 0 60-27 60-60zM720 600h480V120H720v480zm0 1200h480v-480H720v480zM600 600V120H180c-33 0-60 27-60 60v420h480zm0 1200v-480H120v420c0 33 27 60 60 60h420z" stroke="none" stroke-width="1" fill-rule="evenodd"/>
</svg>
