<svg viewBox="0 0 1920 1920" version="1.1" xmlns="http://www.w3.org/2000/svg">
    <path d="M1740,0 C1839.24,0 1920,80.76 1920,180 L1920,1740 C1920,1839.24 1839.24,1920 1740,1920 L180,1920 C80.76,1920 0,1839.24 0,1740 L0,180 C0,80.76 80.76,0 180,0 L1740,0 Z M1800,1320 L1320,1320 L1320,1800 L1740,1800 C1773,1800 1800,1773 1800,1740 L1800,1320 Z M1200,1320 L720,1320 L720,1800 L1200,1800 L1200,1320 Z M1800,720 L1320,720 L1320,1200 L1800,1200 L1800,720 Z M1200,720 L720,720 L720,1200 L1200,1200 L1200,720 Z M1740,120 L1320,120 L1320,600 L1800,600 L1800,180 C1800,147 1773,120 1740,120 Z M1200,120 L720,120 L720,600 L1200,600 L1200,120 Z" stroke="none" stroke-width="1" fill-rule="evenodd"/>
</svg>
