<svg viewBox="0 0 1920 1920" version="1.1" xmlns="http://www.w3.org/2000/svg">
    <path d="M1740 0c99.24 0 180 80.76 180 180v1560c0 99.24-80.76 180-180 180H180c-99.24 0-180-80.76-180-180V180C0 80.76 80.76 0 180 0h1560zm60 600V180c0-33-27-60-60-60h-420v480h480zm0 1065V720H720v1080h945c74.25 0 135-60.75 135-135zM720 600h480V120H720v480zm-120 0V120H180c-33 0-60 27-60 60v420h480zm-480 600h480V720H120v480zm480 600v-480H120v420c0 33 27 60 60 60h420zm1134-838.441L1564.441 792 1259.5 1096.941 954.559 792 785 961.559l304.941 304.941L785 1571.441 954.559 1741l304.941-304.941L1564.441 1741 1734 1571.441 1429.059 1266.5 1734 961.559z" stroke="none" stroke-width="1" fill-rule="evenodd"/>
</svg>
