<svg viewBox="0 0 1920 1920" version="1.1" xmlns="http://www.w3.org/2000/svg">
    <path d="M1691.249 1016.47c-27.558 359.718-315.106 647.154-674.824 674.824v-223.059h-112.94v223.06c-359.718-27.671-647.154-315.107-674.711-674.824H451.72V903.529H228.774c27.557-359.717 314.993-647.153 674.71-674.823v223.059h112.941v-223.06c359.718 27.671 647.266 315.107 674.824 674.824H1468.19v112.942h223.059zm112.941-112.94c-28.01-421.949-365.703-759.756-787.765-787.765V0h-112.94v115.765c-421.949 28.01-759.643 365.816-787.653 787.764H-.045v112.942h115.877c28.01 421.948 365.704 759.755 787.652 787.764V1920h112.941v-115.765c422.062-28.01 759.756-365.816 787.765-787.764h115.765V903.529H1804.19zM960 1242.352c-155.633 0-282.353-126.72-282.353-282.353S804.367 677.647 960 677.647 1242.353 804.367 1242.353 960 1115.633 1242.353 960 1242.353m0-677.647c-217.976 0-395.294 177.318-395.294 395.294 0 217.976 177.318 395.294 395.294 395.294 217.976 0 395.294-177.318 395.294-395.294 0-217.976-177.318-395.294-395.294-395.294" stroke="none" stroke-width="1" fill-rule="evenodd"/>
</svg>
