<svg viewBox="0 0 1920 1920" version="1.1" xmlns="http://www.w3.org/2000/svg">
    <path d="M0 5h1435.956v159.55H797.753v1435.957h-159.55V164.55H0V5zm1824.701 1442.45c-105.303 105.303-248.42 234.38-336.332 312.56h426.16v159.55H1356.1c-44.036 0-79.775-35.739-79.775-79.775v-69.883c0-22.976 10.051-44.993 27.442-60.15 2.553-2.235 252.41-219.383 408.131-375.104 44.993-44.994 59.193-92.061 41.005-136.257-18.668-45.153-67.012-76.584-117.59-76.584-116.79 0-214.435 126.524-215.552 127.96l-127.481-96.05c5.903-7.818 145.989-191.46 343.034-191.46 115.036 0 221.616 70.361 265.013 175.186 42.92 103.708 14.68 219.701-75.627 310.007z" stroke="none" stroke-width="1" fill-rule="evenodd"/>
</svg>
