<svg viewBox="0 0 1920 1920" version="1.1" xmlns="http://www.w3.org/2000/svg">
    <path d="M142 162h1231v136.8H825.889V1530H689.11V298.8H142V162zm1564.274 1237.11c-90.306 90.31-213.04 201.008-288.431 268.057h365.465V1804h-478.895c-37.764 0-68.413-30.65-68.413-68.417v-59.933c0-19.704 8.62-38.587 23.534-51.586 2.19-1.916 216.46-188.146 350.004-321.695 38.585-38.587 50.762-78.953 35.164-116.856-16.009-38.723-57.467-65.68-100.841-65.68-100.158 0-183.896 108.51-184.854 109.74l-109.324-82.373c5.062-6.705 125.196-164.2 294.178-164.2 98.652 0 190.052 60.343 227.27 150.243 36.806 88.942 12.587 188.42-64.857 265.867z" stroke="none" stroke-width="1" fill-rule="evenodd"/>
</svg>
