<svg viewBox="0 0 1920 1920" version="1.1" xmlns="http://www.w3.org/2000/svg">
    <path d="M0 481.452h1231.314v136.812h-547.25v1231.314H547.25V618.264H0V481.452zm1838.283 5.595c-90.297 90.296-213.018 200.978-288.401 268.016h365.426v136.813h-478.844c-37.76 0-68.406-30.646-68.406-68.407v-59.924c0-19.7 8.619-38.58 23.532-51.578 2.189-1.915 216.437-188.117 349.966-321.646 38.581-38.582 50.758-78.941 35.161-116.838-16.007-38.718-57.461-65.67-100.83-65.67-100.148 0-183.877 108.492-184.835 109.723l-109.313-82.36C1386.801 228.47 1506.923 71 1675.886 71c98.642 0 190.033 60.334 227.246 150.22 36.802 88.928 12.587 188.391-64.85 265.827z" stroke="none" stroke-width="1" fill-rule="evenodd"/>
</svg>
