<svg viewBox="0 0 1920 1920" version="1.1" xmlns="http://www.w3.org/2000/svg">
    <path d="M541.372 960.093l435.163-435.276 79.849 79.963-298.955 298.842h1162.616v112.828H757.43l298.955 298.956-79.85 79.85-435.162-435.163zm305.687 734.083c221.93 0 428.95-98.597 568.207-270.494l87.868 71.153c-160.828 198.438-399.925 312.283-656.075 312.283C379.934 1807.118 0 1427.184 0 960.058 0 492.935 379.934 113 847.059 113c256.15 0 495.247 113.845 656.075 312.282l-87.868 71.153c-139.257-171.896-346.278-270.494-568.207-270.494-404.781 0-734.118 329.337-734.118 734.118 0 404.781 329.337 734.117 734.118 734.117z" stroke="none" stroke-width="1" fill-rule="evenodd"/>
</svg>
