<svg viewBox="0 0 1920 1920" version="1.1" xmlns="http://www.w3.org/2000/svg">
    <g stroke="none" stroke-width="1" fill-rule="evenodd">
        <path d="M961,1 C431.644706,1 1,431.644706 1,961 C1,1490.35529 431.644706,1921 961,1921 C1490.35529,1921 1921,1490.35529 1921,961 C1921,431.644706 1490.35529,1 961,1 M961,1808.05882 C493.875294,1808.05882 113.941176,1428.12471 113.941176,961 C113.941176,493.875294 493.875294,113.941176 961,113.941176 C1428.12471,113.941176 1808.05882,493.875294 1808.05882,961 C1808.05882,1428.12471 1428.12471,1808.05882 961,1808.05882 M1280.46541,561.685176 L960.954824,881.195765 L641.557176,561.685176 L561.707765,641.534588 L881.105412,961.045176 L561.707765,1280.44282 L641.557176,1360.29224 L960.954824,1040.89459 L1280.46541,1360.29224 L1360.31482,1280.44282 L1040.80424,961.045176 L1360.31482,641.534588 L1280.46541,561.685176 Z"/>
    </g>
</svg>
