<svg viewBox="0 0 1920 1920" version="1.1" xmlns="http://www.w3.org/2000/svg">
    <path d="M533.333,586.667 L533.333,693.333 L213.333,693.333 L213.333,1173.33 L213.755,1173.33 L447.355,1386.67 L1472.64,1386.67 L1706.24,1173.33 L1706.67,1173.33 L1706.67,693.333 L1386.67,693.333 L1386.67,586.667 L1738.67,586.667 C1779.9,586.667 1813.33,620.096 1813.33,661.333 L1813.33,661.333 L1813.33,1173.33 L1856,1173.33 C1891.35,1173.33 1920,1201.99 1920,1237.33 L1920,1856 C1920,1891.35 1891.35,1920 1856,1920 L64,1920 C28.6538,1920 0,1891.35 0,1856 L0,1237.33 C0,1201.99 28.6538,1173.33 64,1173.33 L106.667,1173.33 L106.667,661.333 C106.667,620.096 140.096,586.667 181.333,586.667 L533.333,586.667 Z M172.378,1280 L106.667,1280 L106.667,1813.33 L1813.33,1813.33 L1813.33,1280 L1747.62,1280 L1514.02,1493.33 L405.978,1493.33 L172.378,1280 Z M960.001,0 L1317.71,357.712 L1242.29,433.137 L1013.33,204.178 L1013.33,1173.33 L906.667,1173.33 L906.667,204.183 L677.713,433.137 L602.288,357.712 L960.001,0 Z" stroke="none" stroke-width="1" fill-rule="evenodd"/>
</svg>
