<svg viewBox="0 0 1920 1920" version="1.1" xmlns="http://www.w3.org/2000/svg">
    <path d="M970.110588,1129.47953 C1165.16,1130.38306 1358.96706,1159.97365 1545.99765,1217.46071 C1634.65647,1244.67953 1694.17647,1324.52894 1694.17647,1416.23718 L1694.17647,1571.30541 C1560.90588,1666.28894 1305.20706,1807.01365 960.058824,1807.01365 C807.136471,1807.01365 511.682353,1775.95482 225.941176,1571.30541 L225.941176,1416.23718 C225.941176,1324.52894 285.687059,1244.56659 374.684706,1217.34776 C568.265882,1157.94071 768.510588,1130.15718 970.110588,1129.47953 Z M967.964706,112.896 C1152.28471,112.896 1309.27294,242.778353 1346.65647,420.208941 C1314.69412,438.731294 1281.60235,451.719529 1224.34118,451.719529 C1150.70353,451.719529 1117.27294,430.599529 1074.80706,403.945412 C1026.46824,373.451294 971.804706,338.778353 866.317647,338.778353 C760.04,338.778353 705.037647,373.564235 656.472941,404.171294 C628.124706,422.016 603.729412,437.376 568.604706,445.620706 C595.371765,257.799529 757.216471,112.896 952.152941,112.896 L967.964706,112.896 Z M1579.08941,1109.48894 C1472.81176,1076.84894 1364.27529,1053.47012 1254.60941,1037.88424 C1383.47529,947.305412 1468.29412,798.110118 1468.29412,629.037176 L1355.35294,629.037176 C1355.35294,842.721882 1181.53647,1016.42541 967.964706,1016.42541 L952.152941,1016.42541 C738.581176,1016.42541 564.764706,842.721882 564.764706,629.037176 L564.764706,561.046588 C634.901176,551.333647 677.931765,524.227765 716.783529,499.606588 C759.249412,472.839529 792.792941,451.719529 866.317647,451.719529 C939.051765,451.719529 972.369412,472.726588 1014.49647,499.380706 C1063.06118,529.987765 1118.06353,564.660706 1224.34118,564.660706 C1330.61882,564.660706 1385.84706,529.648941 1438.70353,496.105412 L1468.63294,477.131294 L1464.56706,441.780706 C1434.86353,189.921882 1221.29176,-0.0451764706 967.964706,-0.0451764706 L952.152941,-0.0451764706 C676.237647,-0.0451764706 451.823529,224.481882 451.823529,508.190118 L451.823529,629.037176 C451.823529,798.448941 536.868235,947.757176 665.96,1038.336 C556.407059,1053.58306 447.870588,1076.736 341.48,1109.376 C204.821176,1151.27718 113,1274.72188 113,1416.23718 L113,1628.22776 L135.588235,1645.16894 C454.421176,1884.26541 788.952941,1919.95482 960.058824,1919.95482 C1358.51529,1919.95482 1647.64471,1747.71953 1784.52941,1645.16894 L1807.11765,1628.22776 L1807.11765,1416.23718 C1807.11765,1274.60894 1715.40941,1151.39012 1579.08941,1109.48894 L1579.08941,1109.48894 Z" stroke="none" stroke-width="1" fill-rule="evenodd"/>
</svg>
