<svg viewBox="0 0 1920 1920" version="1.1" xmlns="http://www.w3.org/2000/svg">
    <path d="M677.647059,1642.60518 L112.941176,1564.33694 L112.941176,1129.40047 L677.647059,1129.40047 L677.647059,1642.60518 Z M734.117647,1016.45929 L56.4705882,1016.45929 C25.2988235,1016.45929 0,1041.75812 0,1072.92988 L0,1613.46635 C0,1641.70165 20.7811765,1665.53224 48.7905882,1669.37224 L726.437647,1763.33929 C728.922353,1763.79106 731.632941,1763.904 734.117647,1763.904 C747.670588,1763.904 760.771765,1759.04753 771.162353,1750.01224 C783.472941,1739.28282 790.588235,1723.80988 790.588235,1707.43341 L790.588235,1072.92988 C790.588235,1041.75812 765.289412,1016.45929 734.117647,1016.45929 L734.117647,1016.45929 Z M771.162353,169.976471 C758.851765,159.247059 742.588235,154.164706 726.437647,156.649412 L48.7905882,250.616471 C20.7811765,254.456471 0,278.287059 0,306.522353 L0,847.058824 C0,878.230588 25.2988235,903.529412 56.4705882,903.529412 L734.117647,903.529412 C765.289412,903.529412 790.588235,878.230588 790.588235,847.058824 L790.588235,212.555294 C790.588235,196.178824 783.472941,180.705882 771.162353,169.976471 L771.162353,169.976471 Z M677.647059,790.588235 L112.941176,790.588235 L112.941176,355.651765 L677.647059,277.383529 L677.647059,790.588235 Z M1900.68706,14.0047059 C1888.48941,3.16235294 1871.88706,-1.69411765 1855.96235,0.451764706 L952.432941,123.783529 C924.423529,127.623529 903.529412,151.567059 903.529412,179.802353 L903.529412,847.058824 C903.529412,878.230588 928.828235,903.529412 960,903.529412 L1863.52941,903.529412 C1894.70118,903.529412 1920,878.230588 1920,847.058824 L1920,56.4705882 C1920,40.0941176 1912.88471,24.6211765 1900.68706,14.0047059 L1900.68706,14.0047059 Z M1807.05882,790.588235 L1016.47059,790.588235 L1016.47059,229.044706 L1807.05882,121.185882 L1807.05882,790.588235 Z M1863.52941,1016.49318 L960,1016.49318 C928.828235,1016.49318 903.529412,1041.67906 903.529412,1072.96376 L903.529412,1740.22024 C903.529412,1768.45553 924.423529,1792.28612 952.432941,1796.23906 L1855.96235,1919.45788 C1858.44706,1919.79671 1861.04471,1920.02259 1863.52941,1920.02259 C1877.08235,1920.02259 1890.29647,1915.05318 1900.68706,1906.01788 C1912.88471,1895.28847 1920,1879.81553 1920,1863.552 L1920,1072.96376 C1920,1041.67906 1894.70118,1016.49318 1863.52941,1016.49318 L1863.52941,1016.49318 Z M1807.05882,1798.83671 L1016.47059,1690.86494 L1016.47059,1129.43435 L1807.05882,1129.43435 L1807.05882,1798.83671 Z" stroke="none" stroke-width="1" fill-rule="evenodd"/>
</svg>
