<svg viewBox="0 0 1920 1920" version="1.1" xmlns="http://www.w3.org/2000/svg">
    <path d="M853 1600c-382.293 0-693.333-311.04-693.333-693.333 0-382.294 311.04-693.334 693.333-693.334 382.293 0 693.333 311.04 693.333 693.334C1546.333 1288.96 1235.293 1600 853 1600zm997.76 228.907l-396.373-396.267C1577.587 1291.733 1653 1108.16 1653 906.667c0-441.174-358.827-800-800-800s-800 358.826-800 800c0 441.173 358.827 800 800 800 201.387 0 385.173-75.414 525.973-198.614l396.267 396.374 75.52-75.52zM479.667 960.053h746.666V853.387H479.667v106.666z" stroke="none" stroke-width="1" fill-rule="evenodd"/>
</svg>
