<svg viewBox="0 0 1920 1920" version="1.1" xmlns="http://www.w3.org/2000/svg">
    <path d="M112.941 0H1920v1920H112.941v-338.824h-56.47c-31.172 0-56.471-25.298-56.471-56.47s25.299-56.47 56.47-56.47h56.471V1016.47h-56.47C25.299 1016.47 0 991.17 0 960c0-31.172 25.299-56.47 56.47-56.47h56.471V451.764h-56.47c-31.172 0-56.471-25.3-56.471-56.47 0-31.173 25.299-56.471 56.47-56.471h56.471V0zM1807.06 1807.059V112.94H225.882v225.883h56.47c31.173 0 56.472 25.298 56.472 56.47s-25.3 56.47-56.471 56.47h-56.47V903.53h56.47c31.172 0 56.47 25.3 56.47 56.471 0 31.172-25.298 56.47-56.47 56.47h-56.47v451.765h56.47c31.172 0 56.47 25.3 56.47 56.47 0 31.173-25.298 56.471-56.47 56.471h-56.47v225.883h1581.176zm-851.35-338.97c20.103 1.468 39.642 2.258 58.955 2.258 197.534 0 350.117-75.557 427.03-123.557l26.541-16.603v-155.52c0-90.353-53.986-172.01-137.45-208.15-43.143-18.636-87.303-32.64-132.366-43.257 27.332-37.383 43.934-83.012 43.934-132.706v-112.94c0-124.575-101.308-225.883-225.882-225.883-124.575 0-225.883 101.308-225.883 225.882v112.941c0 50.372 17.054 96.34 44.95 133.949-46.08 10.955-91.594 24.62-135.529 43.595-82.108 35.463-135.303 116.781-135.303 207.247v154.616l26.315 16.603c110.457 69.684 236.499 111.699 364.687 121.524zm-278.062-292.744c0-45.29 26.315-85.948 67.2-103.567 84.254-36.48 171.445-54.89 259.878-56.47 3.953.112 7.68 1.129 11.746 1.129 2.936 0 5.647-.79 8.583-.904 14.57.226 29.026-.339 43.595.79 74.542 5.648 147.727 23.831 217.412 53.874 42.014 18.183 69.233 59.18 69.233 104.47v92.047c-79.623 44.612-218.654 101.76-391.002 88.772-99.84-7.68-198.325-38.174-286.645-88.546v-91.595zM903.53 677.613c0-62.23 50.598-112.941 112.942-112.941 62.343 0 112.94 50.71 112.94 112.941v112.941c0 61.102-49.016 110.457-109.665 112.264-2.372 0-4.744-.113-7.115-.113-60.424-2.146-109.102-51.275-109.102-112.15V677.612z" stroke="none" stroke-width="1" fill-rule="evenodd"/>
</svg>
