<svg viewBox="0 0 1920 1920" version="1.1" xmlns="http://www.w3.org/2000/svg">
    <path d="M1468.235 718.278H1920V1847.69H0V153.572h112.941V1734.75h225.883V944.16h451.764v790.589H903.53v-564.706h451.765v564.706h112.941V718.279zm112.941 1016.47h225.883V831.22h-225.883v903.53zm-564.705 0h225.882v-451.764H1016.47v451.765zm-564.706 0h225.882v-677.646H451.765v677.647zM629.997 402.45c-133.722 66.749-178.221 312.396-178.221 372.255H338.835c0-94.193 57.035-381.516 240.677-473.337 117.685-58.616 257.055-28.574 414.382 89.337 76.348 57.374 150.55 76.122 226.786 57.148C1432.33 395.334 1585.028 76.275 1586.609 73l102.099 48.113c-7.003 15.134-176.753 370.673-440.358 436.292-109.666 27.331-218.315 1.694-322.221-76.349-120.395-90.352-220.122-116.555-296.132-78.607z" stroke="none" stroke-width="1" fill-rule="evenodd"/>
</svg>
