<svg viewBox="0 0 1920 1920" version="1.1" xmlns="http://www.w3.org/2000/svg">
    <path d="M1863.53 1296.332c-208.092 0-407.294-62.273-579.954-176.421-24.41 33.385-50.754 66.297-79.112 98.98 196.095 132.968 422.472 205.429 659.066 205.429H1920v325.86h-56.47c-329.648 0-643.651-107.408-903.531-302.204C700.105 1642.775 386.115 1750.18 56.47 1750.18H0v-325.86h56.47c236.586 0 462.963-72.463 659.059-205.432-28.356-32.685-54.702-65.597-79.113-98.98-172.66 114.149-371.863 176.424-579.945 176.424H0v-325.86h56.47c165.28 0 322.466-57.373 454.159-161.357 59.198-46.744 108.919-97.951 148.594-154.083 89.146-126.144 137.79-274.38 137.79-429.558v-56.47h325.975v56.47c0 155.188 48.636 303.423 137.773 429.555 39.665 56.117 89.39 107.325 148.598 154.086 131.689 103.982 288.888 161.357 454.17 161.357H1920v325.86h-56.47zm-640.853-286.381l32.87-49.257 47.643 35.17c148.806 109.857 321.733 174.67 503.869 185.804V1081.48c-170.505-11.703-331.487-76.178-467.695-183.73-67.383-53.216-124.637-112.178-170.833-177.536-91.576-129.582-146.106-279.966-156.615-438.27H908.084c-10.511 158.297-65.047 308.682-156.63 438.274-46.206 65.372-103.46 124.337-170.835 177.537-136.206 107.549-297.177 172.022-467.677 183.725v100.188c182.126-11.134 355.05-75.95 503.857-185.803l47.635-35.167 32.872 49.247c40.678 60.94 88.397 120.259 143.764 179.618l42.83 45.919-50.19 37.736c-211.228 158.81-459.311 251.138-720.768 262.788V1636.1c297.987-12.03 579.766-119.04 811.908-303.661l35.15-27.955 35.152 27.956c232.125 184.618 513.915 291.63 811.907 303.66v-100.094c-261.468-11.65-509.552-103.977-720.781-262.788l-50.198-37.741 42.842-45.92c55.372-59.35 103.089-118.667 143.755-179.606zm-70.418-154.39l27.739 31.652-22.405 35.628c-46.192 73.454-98.388 141.19-156.518 202.804L960 1169.182l-41.075-43.537c-58.147-61.632-110.353-129.372-156.531-202.804l-22.408-35.632 27.746-31.653c56.803-64.803 104.203-135.849 141.491-212.474l50.785-104.363 50.773 104.37c37.257 76.587 84.658 147.636 141.478 212.472zm-192.26 146.653c28.22-33.285 54.753-68.346 79.59-105.13-29.002-35.826-55.568-73.268-79.592-112.232-24.03 38.972-50.596 76.415-79.597 112.234 24.834 36.775 51.371 71.837 79.599 105.128z" stroke="none" stroke-width="1" fill-rule="evenodd"/>
</svg>
