<svg viewBox="0 0 1920 1920" version="1.1" xmlns="http://www.w3.org/2000/svg">
    <path d="M101.002 1230.637V377.955c557.71-147.638 1076.312-35.47 1214.45 0v395.924l101.053-30.316V302.165l-35.671-11.014c-26.274-8.287-651.588-197.154-1349.154 1.313L-.05 305.197v1001.23l35.671 10.913c17.28 5.457 295.781 89.533 682.206 89.533 122.173 0 255.866-10.004 394.712-31.933v-101.255c-476.362 77.811-890.476-12.025-1011.537-43.048m426.513-90.432v-659.57l560.842 329.835-560.842 329.735zm101.053-482.93v306.29L888.98 810.47 628.568 657.275zM1777.425 831.55l142.484-42.24v693.524c-.101 103.074-82.257 186.846-183.31 186.846-91.856 0-167.343-69.524-180.58-159.46-1.415-9.095-2.729-18.19-2.729-27.689 0-103.074 82.156-187.048 183.31-187.048 16.673 0 32.539 2.93 47.899 7.275 12.025 3.234 23.545 7.882 34.357 13.541V924.62l-39.814 11.824-362.577 107.317-27.89 8.186v579.941c0 2.83-.708 5.457-.81 8.185-4.243 99.234-84.176 178.964-182.601 178.964-101.154 0-183.31-83.975-183.31-187.15 0-68.513 36.682-128.033 90.645-160.572 27.385-16.471 58.711-26.577 92.665-26.577 29.81 0 57.499 7.983 82.358 20.817V976.46l27.89-8.185 101.053-29.911 360.96-106.813zm-40.825 737.078c-38.097 0-68.817-27.689-78.114-64.674-1.82-6.973-4.143-13.743-4.143-21.423 0-47.394 36.884-85.996 82.257-85.996 18.896 0 35.671 7.781 49.515 19.1 19.504 15.763 32.741 39.309 32.741 66.896 0 47.495-36.884 86.097-82.256 86.097zm-531.436 149.356c-45.373 0-82.257-38.603-82.257-86.097 0-47.495 36.884-86.097 82.257-86.097 45.372 0 82.358 38.602 82.358 86.097 0 47.494-36.986 86.097-82.358 86.097z" stroke="none" stroke-width="1" fill-rule="evenodd"/>
</svg>
