<svg viewBox="0 0 1920 1920" version="1.1" xmlns="http://www.w3.org/2000/svg">
    <path d="M960 0c529.355 0 960 430.645 960 960s-430.645 960-960 960S0 1489.355 0 960 430.645 0 960 0zm0 1807.059c467.125 0 847.059-379.934 847.059-847.059 0-467.125-379.934-847.059-847.059-847.059-467.125 0-847.059 379.934-847.059 847.059 0 467.125 379.934 847.059 847.059 847.059zM1125.945 756.19c8.65 8.208 13.055 17.933 13.055 29.624v268.056h-75.974V1372H855.974v-318.129H780V785.815c0-11.712 4.242-21.438 12.537-29.624 8.007-8.051 19.014-12.934 30.371-12.099h273.303c11.09 0 21.017 3.892 29.734 12.1zM960.022 709C898.044 709 867 678.518 867 617.577v-.044C867 555.881 898 525 960.023 525c62.023 0 92.977 30.837 92.977 92.556 0 60.962-31 91.444-92.978 91.444z" stroke="#979797" stroke-width="1" fill-rule="evenodd"/>
</svg>
