<svg viewBox="0 0 1920 1920" version="1.1" xmlns="http://www.w3.org/2000/svg">
    <path d="M1694.176 1807.059H338.882v-112.941h56.47c31.173 0 56.472-25.3 56.472-56.47 0-31.173-25.3-56.472-56.471-56.472h-56.47v-338.823h56.47c31.172 0 56.47-25.299 56.47-56.47 0-31.172-25.298-56.471-56.47-56.471h-56.47V790.588h56.47c31.172 0 56.47-25.299 56.47-56.47 0-31.172-25.298-56.47-56.47-56.47h-56.47V338.823h56.47c31.172 0 56.47-25.3 56.47-56.471 0-31.172-25.298-56.47-56.47-56.47h-56.47V112.94h1355.293V1807.06zM225.941 0v225.882h-56.47c-31.172 0-56.471 25.3-56.471 56.47 0 31.173 25.299 56.472 56.47 56.472h56.471v338.823h-56.47c-31.172 0-56.471 25.299-56.471 56.47 0 31.172 25.299 56.471 56.47 56.471h56.471v338.824h-56.47c-31.172 0-56.471 25.299-56.471 56.47 0 31.172 25.299 56.47 56.47 56.47h56.471v338.824h-56.47c-31.172 0-56.471 25.3-56.471 56.471 0 31.172 25.299 56.47 56.47 56.47h56.471V1920h1581.177V0H225.94zm1242.353 734.118v508.235h-903.53v-903.53h621.177v112.942H677.706v677.647h677.647V734.118h112.941zM895.648 622.114l145.017 145.13 352.602-352.603 79.85 79.85-432.452 432.451-224.866-224.979 79.85-79.85z" stroke="none" stroke-width="1" fill-rule="evenodd"/>
</svg>
