<svg viewBox="0 0 1920 1920" version="1.1" xmlns="http://www.w3.org/2000/svg">
    <path d="M1072.588 960c0 167.266 96.226 245.308 189.29 320.64 116.555 94.532 247.793 200.922 261.346 526.419H396.07c13.553-325.497 144.79-431.887 261.345-526.419 93.064-75.332 189.29-153.374 189.29-320.64s-96.226-245.308-189.29-320.64c-116.555-94.532-247.792-200.922-261.345-526.419h1127.153c-13.553 325.497-144.791 431.887-261.346 526.419-93.064 75.332-189.29 153.374-189.29 320.64m260.443-232.998c135.529-109.891 304.263-246.663 304.263-670.531V0H282v56.47c0 423.869 168.734 560.64 304.264 670.532 88.771 72.057 147.5 119.605 147.5 232.998 0 113.393-58.729 160.941-147.5 232.998C450.734 1302.889 282 1439.66 282 1863.529V1920h1355.294v-56.47c0-423.869-168.734-560.64-304.263-670.532-88.772-72.057-147.502-119.605-147.502-232.998 0-113.393 58.73-160.941 147.502-232.998M933.84 1274.665l-169.638 137.676c-74.315 60.197-138.353 112.037-172.687 225.317h736.264c-34.334-113.28-98.372-165.12-172.687-225.317l-169.638-137.676c-15.021-12.197-36.593-12.197-51.614 0" stroke="none" stroke-width="1" fill-rule="evenodd"/>
</svg>
