<svg viewBox="0 0 1920 1920" version="1.1" xmlns="http://www.w3.org/2000/svg">
    <path d="M960 1807.059c-467.125 0-847.059-379.934-847.059-847.059 0-467.125 379.934-847.059 847.059-847.059 467.125 0 847.059 379.934 847.059 847.059 0 467.125-379.934 847.059-847.059 847.059M960 0C430.645 0 0 430.645 0 960s430.645 960 960 960 960-430.645 960-960S1489.355 0 960 0m0 338.824c-124.574 0-225.882 101.308-225.882 225.882S835.426 790.588 960 790.588s225.882-101.308 225.882-225.882S1084.574 338.824 960 338.824m0 338.823c-62.344 0-112.941-50.71-112.941-112.941 0-62.23 50.597-112.941 112.941-112.941s112.941 50.71 112.941 112.94c0 62.231-50.597 112.942-112.941 112.942zm-169.412 790.588V903.53h338.824v564.706H790.588zm112.941-112.94h112.942V1016.47H903.529v338.823z" stroke="none" stroke-width="1" fill-rule="evenodd"/>
</svg>
