<svg viewBox="0 0 1920 1920" version="1.1" xmlns="http://www.w3.org/2000/svg">
    <g stroke="none" stroke-width="1" fill-rule="evenodd">
        <path d="M112.941 451.765h338.824V112.94H112.94v338.824zM508.235 0H56.471C25.299 0 0 25.299 0 56.47v451.765c0 31.172 25.299 56.47 56.47 56.47h451.765c31.172 0 56.47-25.298 56.47-56.47V56.471C564.706 25.299 539.408 0 508.236 0zM790.588 451.765h338.824V112.94H790.588v338.824zM1185.882 0H734.118c-31.172 0-56.47 25.299-56.47 56.47v451.765c0 31.172 25.298 56.47 56.47 56.47h451.764c31.172 0 56.47-25.298 56.47-56.47V56.471c0-31.172-25.298-56.471-56.47-56.471zM1468.235 451.765h338.824V112.94h-338.824v338.824zM1863.53 0h-451.764c-31.172 0-56.47 25.299-56.47 56.47v451.765c0 31.172 25.298 56.47 56.47 56.47h451.764c31.172 0 56.471-25.298 56.471-56.47V56.471C1920 25.299 1894.701 0 1863.53 0zM112.941 1129.412h338.824V790.588H112.94v338.824zm395.294-451.765H56.471C25.299 677.647 0 702.946 0 734.117v451.765c0 31.172 25.299 56.47 56.47 56.47h451.765c31.172 0 56.47-25.298 56.47-56.47V734.118c0-31.172-25.298-56.47-56.47-56.47zM790.588 1129.412h338.824V790.588H790.588v338.824zm395.294-451.765H734.118c-31.172 0-56.47 25.299-56.47 56.47v451.765c0 31.172 25.298 56.47 56.47 56.47h451.764c31.172 0 56.47-25.298 56.47-56.47V734.118c0-31.172-25.298-56.47-56.47-56.47zM1468.235 1129.412h338.824V790.588h-338.824v338.824zm395.294-451.765h-451.764c-31.172 0-56.47 25.299-56.47 56.47v451.765c0 31.172 25.298 56.47 56.47 56.47h451.764c31.172 0 56.471-25.298 56.471-56.47V734.118c0-31.172-25.299-56.47-56.47-56.47zM112.941 1807.059h338.824v-338.824H112.94v338.824zm395.294-451.765H56.471c-31.172 0-56.471 25.299-56.471 56.47v451.765C0 1894.701 25.299 1920 56.47 1920h451.765c31.172 0 56.47-25.299 56.47-56.47v-451.765c0-31.172-25.298-56.47-56.47-56.47zM790.588 1807.059h338.824v-338.824H790.588v338.824zm395.294-451.765H734.118c-31.172 0-56.47 25.299-56.47 56.47v451.765c0 31.172 25.298 56.471 56.47 56.471h451.764c31.172 0 56.47-25.299 56.47-56.47v-451.765c0-31.172-25.298-56.47-56.47-56.47zM1468.235 1807.059h338.824v-338.824h-338.824v338.824zm395.294-451.765h-451.764c-31.172 0-56.47 25.299-56.47 56.47v451.765c0 31.172 25.298 56.471 56.47 56.471h451.764c31.172 0 56.471-25.299 56.471-56.47v-451.765c0-31.172-25.299-56.47-56.47-56.47z"/>
    </g>
</svg>
