<svg viewBox="0 0 1920 1920" version="1.1" xmlns="http://www.w3.org/2000/svg">
    <g stroke="none" stroke-width="1" fill-rule="evenodd">
        <path d="M1700.595 378.805c31.963 31.962 49.581 74.54 49.581 119.717V1920H169V0h1082.654c44.499 0 88.207 18.07 119.718 49.581l329.223 329.224zm-63.36 1428.254V564.706h-451.764V112.94H281.94V1807.06h1355.294zM1298.412 136.32v315.445h315.444L1298.412 136.32z"/>
        <path d="M507.824 790.588V338.824h451.764v451.764H507.824zm112.94-112.94h225.883V451.764H620.765v225.882zM507.824 1016.47h903.529V903.53h-903.53zM507.824 1468.235h790.588v-112.94H507.824zM507.824 1242.353h677.647v-112.941H507.824z"/>
    </g>
</svg>
