<svg viewBox="0 0 1920 1920" version="1.1" xmlns="http://www.w3.org/2000/svg">
    <path d="M1524.824 338.824c93.402 0 169.411 76.009 169.411 169.411v1242.353c0 93.403-76.01 169.412-169.411 169.412H395.412C302.009 1920 226 1843.99 226 1750.588V508.235c0-93.402 76.01-169.411 169.412-169.411h395.294v112.94H395.412c-31.06 0-56.47 25.3-56.47 56.471v744.509c17.73-6.325 36.592-10.391 56.47-10.391h1129.412c19.877 0 38.738 4.066 56.47 10.39V508.236c0-31.171-25.412-56.47-56.47-56.47h-395.295V338.824h395.295zm56.47 1129.411v-56.47c0-31.172-25.412-56.47-56.47-56.47H395.412c-31.06 0-56.47 25.298-56.47 56.47v338.823c0 31.172 25.41 56.47 56.47 56.47h1129.412c31.058 0 56.47-25.298 56.47-56.47v-282.353zM577.507 713.653l79.85-79.85L903.68 880.128V-.022h112.941v880.15l246.212-246.325 79.85 79.85-382.532 382.644-382.645-382.644zm-12.683 754.582c-62.344 0-112.942 50.71-112.942 112.941s50.598 112.942 112.942 112.942c62.343 0 112.94-50.71 112.94-112.942 0-62.23-50.597-112.94-112.94-112.94z" stroke="none" stroke-width="1" fill-rule="evenodd"/>
</svg>
