<svg viewBox="0 0 1920 1920" version="1.1" xmlns="http://www.w3.org/2000/svg">
    <path d="M717.572 1338.748l-79.85-79.85 242.372-242.484-242.372-242.372 79.85-79.85 242.372 242.373 242.484-242.372 79.85 79.85-242.372 242.371 242.372 242.485-79.85 79.85-242.484-242.373-242.372 242.372zM960 0c529.355 0 960 430.645 960 960s-430.645 960-960 960S0 1489.355 0 960c0-285.29 127.059-552.621 342.89-734.118H0v-112.94h564.706v564.705H451.765V284.273C239.548 444.085 112.94 692.894 112.94 960c0 467.125 379.934 847.059 847.059 847.059 467.125 0 847.059-379.934 847.059-847.059 0-467.125-379.934-847.059-847.059-847.059V0z" stroke="none" stroke-width="1" fill-rule="evenodd"/>
</svg>
