<svg viewBox="0 0 1920 1920" version="1.1" xmlns="http://www.w3.org/2000/svg">
    <path d="M960 0c529.355 0 960 430.645 960 960s-430.645 960-960 960S0 1489.355 0 960c0-172.687 46.419-341.986 134.174-489.6l97.017 57.713C153.826 658.22 112.94 807.529 112.94 960c0 467.125 379.934 847.059 847.059 847.059 467.125 0 847.059-379.934 847.059-847.059 0-448.038-349.779-816-790.588-845.139v223.963H903.529V0H960zM677.647 960c0-57.487 17.393-110.795 47.097-155.407L242.372 322.334l79.962-79.962 482.259 482.372c44.612-29.704 97.92-47.097 155.407-47.097 155.633 0 282.353 126.72 282.353 282.353S1115.633 1242.353 960 1242.353 677.647 1115.633 677.647 960zm451.765 0c0-93.402-76.01-169.412-169.412-169.412S790.588 866.598 790.588 960s76.01 169.412 169.412 169.412 169.412-76.01 169.412-169.412z" stroke="none" stroke-width="1" fill-rule="evenodd"/>
</svg>
