<svg viewBox="0 0 1920 1920" version="1.1" xmlns="http://www.w3.org/2000/svg">
    <path d="M863.593 604.735l79.85-79.85 435.162 435.163-435.162 435.162-79.85-79.737 298.956-298.955H.045V903.577H1162.55L863.593 604.735zM1072.941 113C1540.066 113 1920 492.934 1920 960.059c0 467.125-379.934 847.059-847.059 847.059-256.15 0-495.247-113.845-656.075-312.283l87.868-71.153c139.257 171.897 346.278 270.494 568.207 270.494 404.781 0 734.118-329.336 734.118-734.117 0-404.781-329.337-734.118-734.118-734.118-221.93 0-428.95 98.598-568.207 270.494l-87.868-71.153C577.694 226.845 816.79 113 1072.94 113z" stroke="none" stroke-width="1" fill-rule="evenodd"/>
</svg>
