<svg viewBox="0 0 1920 1920" version="1.1" xmlns="http://www.w3.org/2000/svg">
    <path d="M960 1807.059c-467.125 0-847.059-379.934-847.059-847.059 0-467.125 379.934-847.059 847.059-847.059 467.125 0 847.059 379.934 847.059 847.059 0 467.125-379.934 847.059-847.059 847.059M960 0C430.645 0 0 430.645 0 960s430.645 960 960 960 960-430.645 960-960S1489.355 0 960 0m66.67 903.53H893.285l-90.24-451.765h313.976l-90.353 451.764zM665.256 338.823l135.53 677.647h318.381l135.642-677.647H665.257zM960 1468.235c-62.23 0-112.941-50.597-112.941-112.94 0-62.344 50.71-112.942 112.941-112.942 62.23 0 112.941 50.598 112.941 112.941 0 62.344-50.71 112.941-112.941 112.941m0-338.823c-124.574 0-225.882 101.308-225.882 225.882S835.426 1581.176 960 1581.176s225.882-101.308 225.882-225.882S1084.574 1129.412 960 1129.412" stroke="none" stroke-width="1" fill-rule="evenodd"/>
</svg>
