<svg viewBox="0 0 1920 1920" version="1.1" xmlns="http://www.w3.org/2000/svg">
    <path d="M854.397 1594.874c-408.288 0-740.477-332.19-740.477-740.477 0-408.288 332.189-740.477 740.477-740.477 408.287 0 740.477 332.189 740.477 740.477 0 408.287-332.19 740.477-740.477 740.477zM1920 1839.345l-423.325-423.211c131.577-150.488 212.118-346.543 212.118-561.737C1708.793 383.225 1325.568 0 854.397 0 383.225 0 0 383.225 0 854.397c0 471.17 383.225 854.396 854.397 854.396 215.08 0 411.363-80.54 561.737-212.118L1839.345 1920l80.655-80.655zM911.356 455.678h-113.92v341.759H455.679v113.92h341.759v341.758h113.92V911.356h341.758v-113.92H911.356V455.679z" stroke="none" stroke-width="1" fill-rule="evenodd"/>
</svg>
