<svg viewBox="0 0 1920 1920" version="1.1" xmlns="http://www.w3.org/2000/svg">
    <path d="M960,2 C1489.35529,2 1920,432.644706 1920,962 C1920,1491.35529 1489.35529,1922 960,1922 C430.644706,1922 0,1491.35529 0,962 C0,432.644706 430.644706,2 960,2 Z M1396.704,635.232 L482.144,635.232 C451.104,635.232 426.677333,659.658667 426.677333,690.698667 C426.677333,721.845333 451.104,746.272 482.144,746.272 L757.450667,746.272 L757.450667,1634.05867 C757.450667,1665.20533 781.770667,1689.632 812.917333,1689.632 C843.957333,1689.632 868.384,1665.20533 868.384,1634.05867 L868.384,1259.01867 L1014.83733,1259.01867 L1014.83733,1634.05867 C1014.83733,1665.20533 1039.264,1689.632 1070.304,1689.632 C1101.45067,1689.632 1125.87733,1665.20533 1125.87733,1634.05867 L1125.87733,744.032 L1401.184,744.032 C1432.224,744.032 1456.65067,719.605333 1456.65067,688.565333 C1449.93067,659.658667 1425.61067,635.232 1396.704,635.232 Z M939.413333,320.021333 C865.92,320.021333 806.186667,379.648 806.186667,453.248 C806.186667,526.741333 865.92,586.368 939.413333,586.368 C1013.01333,586.368 1072.64,526.741333 1072.64,453.248 C1072.64,379.648 1013.01333,320.021333 939.413333,320.021333 Z" stroke="none" stroke-width="1" fill-rule="evenodd"/>
</svg>
