<svg viewBox="0 0 1920 1920" version="1.1" xmlns="http://www.w3.org/2000/svg">
    <path d="M0 962C0 432.645 430.645 2 960 2s960 430.645 960 960-430.645 960-960 960S0 1491.355 0 962zm1396.704-326.768h-914.56c-31.04 0-55.467 24.427-55.467 55.467 0 31.146 24.427 55.573 55.467 55.573h275.307v887.787c0 31.146 24.32 55.573 55.466 55.573 31.04 0 55.467-24.427 55.467-55.573v-375.04h146.453v375.04c0 31.146 24.427 55.573 55.467 55.573 31.147 0 55.573-24.427 55.573-55.573V744.032h275.307c31.04 0 55.467-24.427 55.467-55.467-6.72-28.906-31.04-53.333-59.947-53.333zM1072.64 453.248c0-73.6-59.627-133.227-133.227-133.227-73.493 0-133.226 59.627-133.226 133.227 0 73.493 59.733 133.12 133.226 133.12 73.6 0 133.227-59.627 133.227-133.12z" stroke="none" stroke-width="1" fill-rule="evenodd"/>
</svg>
