<svg viewBox="0 0 1920 1920" version="1.1" xmlns="http://www.w3.org/2000/svg">
    <path d="M764.385882,112.941176 L990.268235,451.764706 L225.882353,451.764706 L225.882353,564.705882 L1920,564.705882 L1920,1637.64706 C1920,1731.04941 1843.99059,1807.05882 1750.58824,1807.05882 L1750.58824,1807.05882 L169.411765,1807.05882 C76.0094118,1807.05882 0,1731.04941 0,1637.64706 L0,1637.64706 L0,112.941176 L764.385882,112.941176 Z M1040,858.845726 L880,858.845726 L880,1098.84573 L640,1098.84573 L640,1258.84573 L880,1258.84573 L880,1498.84573 L1040,1498.84573 L1040,1258.84573 L1280,1258.84573 L1280,1098.84573 L1040,1098.84573 L1040,858.845726 Z" stroke="none" stroke-width="1" fill-rule="evenodd"/>
</svg>
