<svg viewBox="0 0 1920 1920" version="1.1" xmlns="http://www.w3.org/2000/svg">
    <path d="M1920,436.363636 L1570.90909,436.363636 L1570.90909,87.2727273 L1396.36364,87.2727273 L1396.36364,436.363636 L1047.27273,436.363636 L1047.27273,610.909091 L1396.36364,610.909091 L1396.36364,960 L1570.90909,960 L1570.90909,610.909091 L1920,610.909091 L1920,436.363636 Z M698.181818,436.363636 L698.181818,610.909091 L174.545455,610.909091 L174.545455,1658.18182 L1396.36364,1658.18182 L1396.36364,1309.09091 L1570.90909,1310.88 L1570.90909,1658.18182 C1570.90909,1754.53091 1492.71273,1832.72727 1396.36364,1832.72727 L174.545455,1832.72727 C78.1090909,1832.72727 0,1754.53091 0,1658.18182 L0,610.909091 C0,514.472727 78.1090909,436.363636 174.545455,436.363636 L698.181818,436.363636 Z M610.900364,785.445818 L610.900364,1483.62764 L1134.53673,1134.53673 L610.900364,785.445818 Z" stroke="none" stroke-width="1" fill-rule="evenodd"/>
</svg>
