<svg viewBox="0 0 1920 1920" version="1.1" xmlns="http://www.w3.org/2000/svg">
    <path d="M959.67 1920.113c-9.26 0-18.522-2.372-26.992-6.89l-34.9-18.974C588.095 1726.08 164 1495.906 164 1006.306V404.78c0-21.91 12.65-41.788 32.414-51.162L935.727 5.42c15.134-7.228 32.866-7.228 48 0L1723.04 353.62c19.765 9.374 32.414 29.252 32.414 51.162v601.525c0 489.6-424.207 719.774-733.779 887.943l-34.899 18.975c-8.47 4.517-17.731 6.889-27.105 6.889zm467.16-547.652V1059.05l-350.57-350.682c.113-1.807.113-3.727.113-5.647 0-176.075-143.21-319.398-319.285-319.398-176.075 0-319.285 143.323-319.285 319.398 0 176.075 143.21 319.285 319.285 319.285 1.92 0 3.84 0 5.76-.113l58.504 58.503h83.689v116.781h116.781v83.803l91.595 91.482h313.412zm-266.655-112.941l-25.412-25.299v-149.986h-116.78v-116.78H868.108l-63.812-63.7-47.209 5.309c-113.732 0-206.344-92.5-206.344-206.344 0-113.732 92.612-206.456 206.344-206.456s206.344 92.724 205.327 216.62l-3.953 37.271 355.426 355.652v153.713h-153.713zm-313.4-553.57c0-46.758-37.949-84.706-84.706-84.706-46.758 0-84.706 37.948-84.706 84.706s37.948 84.706 84.706 84.706c46.757 0 84.706-37.948 84.706-84.706z" stroke="none" stroke-width="1" fill-rule="evenodd"/>
</svg>
