<svg viewBox="0 0 1920 1920" version="1.1" xmlns="http://www.w3.org/2000/svg">
    <path d="M533.333,560 L533.333,720 L240,720 L240.008,1173.33 L240.008,1173.33 L449.074,1386.67 L1470.93,1386.67 L1679.99,1173.33 L1680,720 L1386.67,720 L1386.67,560 L1738.67,560 C1794.63,560 1840,605.368 1840,661.333 L1840,661.333 L1840,1173.33 L1856,1173.33 C1891.35,1173.33 1920,1201.99 1920,1237.33 L1920,1856 C1920,1891.35 1891.35,1920 1856,1920 L64,1920 C28.6538,1920 0,1891.35 0,1856 L0,1237.33 C0,1201.99 28.6538,1173.33 64,1173.33 L80,1173.33 L80,661.333 C80,605.368 125.369,560 181.333,560 L533.333,560 Z M1040,0 L1040,958.86 L1223.43,775.431 L1336.57,888.569 L960,1265.14 L583.431,888.569 L696.569,775.431 L880,958.86 L880,0 L1040,0 Z" fill-rule="nonzero" stroke="none" stroke-width="1"/>
</svg>
