<svg viewBox="0 0 1920 1920" version="1.1" xmlns="http://www.w3.org/2000/svg">
    <path d="M790.5886,1750.588 L790.5886,1807.059 L847.0586,1807.059 L847.0586,1920 L677.6466,1920 L677.6466,1750.588 L790.5886,1750.588 Z M1208.383,1807.059 L1208.383,1920 L1027.721,1920 L1027.721,1807.059 L1208.383,1807.059 Z M1569.816,1807.059 L1569.816,1920 L1389.154,1920 L1389.154,1807.059 L1569.816,1807.059 Z M1920,1750.588 L1920,1920 L1750.588,1920 L1750.588,1807.059 L1807.059,1807.059 L1807.059,1750.588 L1920,1750.588 Z M1581.1771,338.8238 L1581.1771,564.7058 L1468.2351,564.7058 L1468.2351,451.7648 L451.7651,451.7648 L451.7651,1468.2358 L564.7061,1468.2358 L564.7061,1581.1768 L338.8241,1581.1768 L338.8241,338.8238 L1581.1771,338.8238 Z M1920,1389.265 L1920,1569.927 L1807.059,1569.927 L1807.059,1389.265 L1920,1389.265 Z M790.588,1389.154 L790.588,1569.816 L677.647,1569.816 L677.647,1389.154 L790.588,1389.154 Z M1242.353,0.0004 L1242.353,225.8824 L1129.412,225.8824 L1129.412,112.9414 L112.941,112.9414 L112.941,1129.4124 L225.882,1129.4124 L225.882,1242.3524 L5.68434189e-14,1242.3524 L5.68434189e-14,0.0004 L1242.353,0.0004 Z M1920,1027.831 L1920,1208.492 L1807.059,1208.492 L1807.059,1027.831 L1920,1027.831 Z M790.588,1027.721 L790.588,1208.383 L677.647,1208.383 L677.647,1027.721 L790.588,1027.721 Z M1920,677.6466 L1920,847.0586 L1807.059,847.0586 L1807.059,790.5886 L1750.588,790.5886 L1750.588,677.6466 L1920,677.6466 Z M847.0584,677.6466 L847.0584,790.5886 L790.5884,790.5886 L790.5884,847.0586 L677.6474,847.0586 L677.6474,677.6466 L847.0584,677.6466 Z M1208.492,677.647 L1208.492,790.588 L1027.831,790.588 L1027.831,677.647 L1208.492,677.647 Z M1569.927,677.647 L1569.927,790.588 L1389.265,790.588 L1389.265,677.647 L1569.927,677.647 Z" stroke="none" stroke-width="1" fill-rule="evenodd"/>
</svg>
