<svg viewBox="0 0 1920 1920" version="1.1" xmlns="http://www.w3.org/2000/svg">
    <path d="M1468.23529,0 L1468.23529,112.941176 L451.764706,112.941176 L451.764706,0 L0,0 L0,451.877647 L112.941176,451.877647 L112.941176,1468.34824 L0,1468.34824 L0,1920 L451.764706,1920 L451.764706,1807.05882 L1468.23529,1807.05882 L1468.23529,1920 L1920.11294,1920 L1920.11294,1468.34824 L1807.17176,1468.34824 L1807.17176,451.877647 L1920.11294,451.877647 L1920.11294,0 L1468.23529,0 Z M225.882353,451.877647 L451.764706,451.877647 L451.764706,225.882353 L1468.23529,225.882353 L1468.23529,451.877647 L1694.23059,451.877647 L1694.23059,1468.34824 L1468.23529,1468.34824 L1468.23529,1694.11765 L451.764706,1694.11765 L451.764706,1468.34824 L225.882353,1468.34824 L225.882353,451.877647 Z" stroke="none" stroke-width="1" fill-rule="evenodd"/>
</svg>
