<svg viewBox="0 0 1920 1920" version="1.1" xmlns="http://www.w3.org/2000/svg">
    <path d="M640 498h1280V273H640v225zm0 565h1280V838H640v225zm0 565h1280v-225H640v225zM226.5 612C101.408 612 0 510.592 0 385.5S101.408 159 226.5 159 453 260.408 453 385.5 351.592 612 226.5 612zm0-110c64.341 0 116.5-52.159 116.5-116.5 0-64.341-52.159-116.5-116.5-116.5-64.341 0-116.5 52.159-116.5 116.5 0 64.341 52.159 116.5 116.5 116.5zm0 1248C101.408 1750 0 1648.593 0 1523.5S101.408 1297 226.5 1297 453 1398.407 453 1523.5 351.592 1750 226.5 1750zm0-110c64.341 0 116.5-52.159 116.5-116.5 0-64.341-52.159-116.5-116.5-116.5-64.341 0-116.5 52.159-116.5 116.5 0 64.341 52.159 116.5 116.5 116.5zm0-463C101.408 1177 0 1075.593 0 950.5S101.408 724 226.5 724 453 825.407 453 950.5 351.592 1177 226.5 1177zm0-110c64.341 0 116.5-52.159 116.5-116.5 0-64.341-52.159-116.5-116.5-116.5-64.341 0-116.5 52.159-116.5 116.5 0 64.341 52.159 116.5 116.5 116.5z" stroke="none" stroke-width="1" fill-rule="evenodd"/>
</svg>
