<svg viewBox="0 0 1920 1920" version="1.1" xmlns="http://www.w3.org/2000/svg">
    <path d="M160,320 C160,143.269 303.269,0 480,0 L1440,0 C1616.73,0 1760,143.269 1760,320 L1760,1600 C1760,1776.73 1616.73,1920 1440,1920 L480,1920 C303.269,1920 160,1776.73 160,1600 L160,320 Z M480,1173.33 L586.667,1173.33 C645.577,1173.33 693.333,1221.09 693.333,1280 C693.333,1338.91 645.577,1386.67 586.667,1386.67 L480,1386.67 C421.09,1386.67 373.333,1338.91 373.333,1280 C373.333,1221.09 421.09,1173.33 480,1173.33 Z M586.667,853.333 L480,853.333 C421.09,853.333 373.333,901.09 373.333,960 C373.333,1018.91 421.09,1066.67 480,1066.67 L586.667,1066.67 C645.577,1066.67 693.333,1018.91 693.333,960 C693.333,901.09 645.577,853.333 586.667,853.333 Z M906.667,1173.33 L1013.33,1173.33 C1072.24,1173.33 1120,1221.09 1120,1280 C1120,1338.91 1072.24,1386.67 1013.33,1386.67 L906.667,1386.67 C847.756,1386.67 800,1338.91 800,1280 C800,1221.09 847.756,1173.33 906.667,1173.33 Z M1013.33,853.333 L906.667,853.333 C847.756,853.333 800,901.09 800,960 C800,1018.91 847.756,1066.67 906.667,1066.67 L1013.33,1066.67 C1072.24,1066.67 1120,1018.91 1120,960 C1120,901.09 1072.24,853.333 1013.33,853.333 Z M1333.33,1173.33 L1440,1173.33 C1498.91,1173.33 1546.67,1221.09 1546.67,1280 C1546.67,1338.91 1498.91,1386.67 1440,1386.67 L1333.33,1386.67 C1274.42,1386.67 1226.67,1338.91 1226.67,1280 C1226.67,1221.09 1274.42,1173.33 1333.33,1173.33 Z M1440,853.333 L1333.33,853.333 C1274.42,853.333 1226.67,901.09 1226.67,960 C1226.67,1018.91 1274.42,1066.67 1333.33,1066.67 L1440,1066.67 C1498.91,1066.67 1546.67,1018.91 1546.67,960 C1546.67,901.09 1498.91,853.333 1440,853.333 Z M480,1493.33 L586.667,1493.33 C645.577,1493.33 693.333,1541.09 693.333,1600 C693.333,1658.91 645.577,1706.67 586.667,1706.67 L480,1706.67 C421.09,1706.67 373.333,1658.91 373.333,1600 C373.333,1541.09 421.09,1493.33 480,1493.33 Z M1013.33,1493.33 L906.667,1493.33 C847.756,1493.33 800,1541.09 800,1600 C800,1658.91 847.756,1706.67 906.667,1706.67 L1013.33,1706.67 C1072.24,1706.67 1120,1658.91 1120,1600 C1120,1541.09 1072.24,1493.33 1013.33,1493.33 Z M1333.33,1493.33 L1440,1493.33 C1498.91,1493.33 1546.67,1541.09 1546.67,1600 C1546.67,1658.91 1498.91,1706.67 1440,1706.67 L1333.33,1706.67 C1274.42,1706.67 1226.67,1658.91 1226.67,1600 C1226.67,1541.09 1274.42,1493.33 1333.33,1493.33 Z M527.414,579.177 C546.887,541.369 587.354,497.375 639.787,466.092 C691.87,435.018 750.443,419.557 806.344,429.848 C857.781,439.317 893.491,475.779 943.811,527.16 L945.899,529.292 C992.311,576.674 1054.89,640 1152,640 C1241.53,640 1316.33,597.293 1371.34,548.995 C1426.41,500.647 1466.33,442.761 1487.41,401.816 C1500.9,375.63 1490.61,343.469 1464.42,329.982 C1438.23,316.495 1406.07,326.79 1392.59,352.976 C1376.75,383.722 1344.67,430.471 1300.97,468.836 C1257.21,507.25 1206.47,533.333 1152,533.333 C1105.11,533.333 1071.69,505.278 1022.1,454.652 C1019.15,451.645 1016.14,448.542 1013.06,445.365 C969.456,400.472 911.439,340.736 825.656,324.944 C737.557,308.726 652.745,334.152 585.136,374.49 C517.877,414.618 462.344,472.559 432.586,530.338 C419.099,556.524 429.394,588.685 455.58,602.172 C481.766,615.659 513.928,605.364 527.414,579.177 Z" stroke="none" stroke-width="1" fill-rule="evenodd"/>
</svg>
