<svg viewBox="0 0 1920 1920" version="1.1" xmlns="http://www.w3.org/2000/svg">
    <path d="M480,0 L1440,0 C1616.73112,0 1760,143.26888 1760,320 L1760,1600 C1760,1776.73112 1616.73112,1920 1440,1920 L480,1920 C303.26888,1920 160,1776.73112 160,1600 L160,320 C160,143.26888 303.26888,0 480,0 Z M586.666667,213.333333 C468.84592,213.333333 373.333333,308.84592 373.333333,426.666667 C373.333333,544.487413 468.84592,640 586.666667,640 L1333.33333,640 C1451.15408,640 1546.66667,544.487413 1546.66667,426.666667 C1546.66667,308.84592 1451.15408,213.333333 1333.33333,213.333333 L586.666667,213.333333 Z M480,853.333333 C421.089627,853.333333 373.333333,901.089627 373.333333,960 C373.333333,1018.91037 421.089627,1066.66667 480,1066.66667 L586.666667,1066.66667 C645.57704,1066.66667 693.333333,1018.91037 693.333333,960 C693.333333,901.089627 645.57704,853.333333 586.666667,853.333333 L480,853.333333 Z M906.666667,853.333333 C847.756293,853.333333 800,901.089627 800,960 C800,1018.91037 847.756293,1066.66667 906.666667,1066.66667 L1013.33333,1066.66667 C1072.24371,1066.66667 1120,1018.91037 1120,960 C1120,901.089627 1072.24371,853.333333 1013.33333,853.333333 L906.666667,853.333333 Z M1333.33333,853.333333 C1274.42296,853.333333 1226.66667,901.089627 1226.66667,960 C1226.66667,1018.91037 1274.42296,1066.66667 1333.33333,1066.66667 L1440,1066.66667 C1498.91037,1066.66667 1546.66667,1018.91037 1546.66667,960 C1546.66667,901.089627 1498.91037,853.333333 1440,853.333333 L1333.33333,853.333333 Z M480,1173.33333 C421.089627,1173.33333 373.333333,1221.08963 373.333333,1280 C373.333333,1338.91037 421.089627,1386.66667 480,1386.66667 L586.666667,1386.66667 C645.57704,1386.66667 693.333333,1338.91037 693.333333,1280 C693.333333,1221.08963 645.57704,1173.33333 586.666667,1173.33333 L480,1173.33333 Z M906.666667,1173.33333 C847.756293,1173.33333 800,1221.08963 800,1280 C800,1338.91037 847.756293,1386.66667 906.666667,1386.66667 L1013.33333,1386.66667 C1072.24371,1386.66667 1120,1338.91037 1120,1280 C1120,1221.08963 1072.24371,1173.33333 1013.33333,1173.33333 L906.666667,1173.33333 Z M1333.33333,1173.33333 C1274.42296,1173.33333 1226.66667,1221.08963 1226.66667,1280 C1226.66667,1338.91037 1274.42296,1386.66667 1333.33333,1386.66667 L1440,1386.66667 C1498.91037,1386.66667 1546.66667,1338.91037 1546.66667,1280 C1546.66667,1221.08963 1498.91037,1173.33333 1440,1173.33333 L1333.33333,1173.33333 Z M480,1493.33333 C421.089627,1493.33333 373.333333,1541.08963 373.333333,1600 C373.333333,1658.91037 421.089627,1706.66667 480,1706.66667 L586.666667,1706.66667 C645.57704,1706.66667 693.333333,1658.91037 693.333333,1600 C693.333333,1541.08963 645.57704,1493.33333 586.666667,1493.33333 L480,1493.33333 Z M906.666667,1493.33333 C847.756293,1493.33333 800,1541.08963 800,1600 C800,1658.91037 847.756293,1706.66667 906.666667,1706.66667 L1013.33333,1706.66667 C1072.24371,1706.66667 1120,1658.91037 1120,1600 C1120,1541.08963 1072.24371,1493.33333 1013.33333,1493.33333 L906.666667,1493.33333 Z M1333.33333,1493.33333 C1274.42296,1493.33333 1226.66667,1541.08963 1226.66667,1600 C1226.66667,1658.91037 1274.42296,1706.66667 1333.33333,1706.66667 L1440,1706.66667 C1498.91037,1706.66667 1546.66667,1658.91037 1546.66667,1600 C1546.66667,1541.08963 1498.91037,1493.33333 1440,1493.33333 L1333.33333,1493.33333 Z" stroke="none" stroke-width="1" fill-rule="evenodd"/>
</svg>
