<svg viewBox="0 0 1920 1920" version="1.1" xmlns="http://www.w3.org/2000/svg">
    <g stroke="none" stroke-width="1" fill-rule="evenodd">
        <path d="M1386.667,1417.9199 L1386.667,1226.6669 L1280,1226.6669 L1280,1439.9999 C1280,1454.1879 1285.653,1467.7329 1295.573,1477.7599 L1418.987,1601.0659 L1494.4,1525.6529 L1386.667,1417.9199 Z" transform="translate(53)"/>
        <path d="M1333.333,1813.333 C1127.467,1813.333 960,1645.867 960,1440 C960,1234.133 1127.467,1066.667 1333.333,1066.667 C1539.2,1066.667 1706.667,1234.133 1706.667,1440 C1706.667,1645.867 1539.2,1813.333 1333.333,1813.333 L1333.333,1813.333 Z M106.666,266.667 C106.666,237.227 130.666,213.333 160,213.333 L320,213.333 L320,266.667 C320,296.107 343.894,320 373.333,320 C402.773,320 426.666,296.107 426.666,266.667 L426.666,213.333 L1173.333,213.333 L1173.333,266.667 C1173.333,296.107 1197.227,320 1226.667,320 C1256.107,320 1280,296.107 1280,266.667 L1280,213.333 L1440,213.333 C1469.333,213.333 1493.333,237.227 1493.333,266.667 L1493.333,426.667 L106.666,426.667 L106.666,266.667 Z M1600,1041.28 L1600,266.667 C1600,178.453 1528.213,106.667 1440,106.667 L1280,106.667 L1280,53.333 C1280,23.893 1256.107,0 1226.667,0 C1197.227,0 1173.333,23.893 1173.333,53.333 L1173.333,106.667 L426.666,106.667 L426.666,53.333 C426.666,23.893 402.773,0 373.333,0 C343.894,0 320,23.893 320,53.333 L320,106.667 L160,106.667 C71.787,106.667 0,178.453 0,266.667 L0,1813.333 L1035.307,1813.333 C1117.547,1879.04 1220.16,1920 1333.333,1920 C1597.973,1920 1813.333,1704.64 1813.333,1440 C1813.333,1273.92 1728.533,1127.467 1600,1041.28 L1600,1041.28 Z" transform="translate(53)"/>
    </g>
</svg>
