<svg viewBox="0 0 1920 1920" version="1.1" xmlns="http://www.w3.org/2000/svg">
    <path d="M1694.176 451.765H225.942V282.353c0-31.172 25.411-56.471 56.47-56.471h169.411v56.471c0 31.172 25.3 56.471 56.471 56.471 31.172 0 56.471-25.299 56.471-56.471v-56.471h790.589v56.471c0 31.172 25.3 56.471 56.47 56.471 31.171 0 56.47-25.299 56.47-56.471v-56.471h169.412c31.059 0 56.47 25.299 56.47 56.471v169.412zm-338.822 790.586H1016.53v338.826H903.589v-338.826H564.765v-112.939h338.824V790.588h112.941v338.824h338.824v112.939zm282.352-1129.41h-169.412v-56.47c0-31.172-25.299-56.471-56.47-56.471-31.17 0-56.47 25.299-56.47 56.471v56.47H564.765v-56.47C564.765 25.299 539.466 0 508.294 0c-31.171 0-56.471 25.299-56.471 56.471v56.47H282.412c-93.403 0-169.412 76.01-169.412 169.412V1920h1694.118V282.353c0-93.402-76.008-169.412-169.412-169.412z" stroke="none" stroke-width="1" fill-rule="evenodd"/>
</svg>
