<svg viewBox="0 0 1920 1920" version="1.1" xmlns="http://www.w3.org/2000/svg">
    <path d="M459.896763,902.84233 L459.896763,1592.68747 L1494.66448,1592.68747 L1494.66448,1017.81652 L1724.72783,1017.81652 L1724.72783,1822.63586 L229.948381,1822.63586 L229.948381,902.84233 L459.896763,902.84233 Z M1759.26608,331.926488 L1920,496.454555 L1074.9397,1322.31417 L666.896296,923.468699 L827.745188,759.055607 L1074.9397,1000.73136 L1759.26608,331.926488 Z M459.896763,98 L459.896763,328.063356 L689.960118,328.063356 L689.960118,558.011737 L459.896763,558.011737 L459.896763,787.845144 L229.948381,787.845144 L229.948381,558.011737 L5.68434189e-14,558.011737 L5.68434189e-14,328.063356 L229.948381,328.063356 L229.948381,98 L459.896763,98 Z M1379.71328,327.982874 L1379.71328,557.931255 L804.84233,557.931255 L804.84233,327.982874 L1379.71328,327.982874 Z" stroke="none" stroke-width="1" fill-rule="evenodd"/>
</svg>
