<svg viewBox="0 0 1920 1920" version="1.1" xmlns="http://www.w3.org/2000/svg">
    <g stroke="none" stroke-width="1" fill-rule="evenodd">
        <path d="M1902.45,857.571 C1925.849,880.97 1925.849,919.01 1902.45,942.41 L1302.46,1542.4 C1291.179,1553.68 1275.939,1560.04 1259.98,1560.04 L1019.984,1560.04 L0,1560.04 L0,1440.042 L875.146,1440.042 L737.628,1302.404 C714.229,1279.005 714.229,1240.966 737.628,1217.565 L1457.617,497.577 C1481.016,474.177 1519.055,474.177 1542.456,497.577 L1902.45,857.571 Z" transform="translate(0 180)"/>
        <path d="M243.452 1180.186L615.086 120.003 120.094 120.003 120.094 0.005 1200.077 0.005 1200.077 120.003 742.164 120.003 356.61 1219.786z" transform="translate(0 180)"/>
    </g>
</svg>
