<svg viewBox="0 0 1920 1920" version="1.1" xmlns="http://www.w3.org/2000/svg">
    <path d="M1468.235 411.824c249.149 0 451.765 202.616 451.765 451.764s-202.616 451.765-451.765 451.765h-451.764v315.445l185.9-186.014 79.963 79.849L960 1846.967l-322.334-322.334 79.962-79.85 185.901 186.015v-315.445H395.294C177.318 1315.353 0 1138.035 0 920.059c0-217.977 177.318-395.294 395.294-395.294 20.894 0 41.224 2.71 61.553 5.986C482.597 274.487 697.073 73 960 73c221.816 0 408.847 143.661 478.08 342.212 10.052-.678 19.99-3.388 30.155-3.388zM903.53 1202.412h112.942V920.059H903.529v282.353z" stroke="none" stroke-width="1" fill-rule="evenodd"/>
</svg>
