<svg viewBox="0 0 1920 1920" version="1.1" xmlns="http://www.w3.org/2000/svg">
    <path d="M1920,1694 L1920,1806.94118 L0,1806.94118 L0,1694 L1920,1694 Z M1016.47059,338.882353 L1016.47059,993.150588 L1258.84235,750.665882 L1338.80471,830.515294 L960,1209.32 L581.195294,830.515294 L661.157647,750.665882 L903.529412,993.150588 L903.529412,338.882353 L1016.47059,338.882353 Z M1750.58824,113 L169.411765,113 C76.0094118,113 0,189.009412 0,282.411765 L0,1468.29412 L56.4705882,1468.29412 L112.941176,1468.29412 L1807.05882,1468.29412 L1863.52941,1468.29412 L1920,1468.29412 L1920,282.411765 C1920,189.009412 1843.99059,113 1750.58824,113 L1750.58824,113 Z" stroke="none" stroke-width="1" fill-rule="evenodd"/>
</svg>
