<svg width="1920" height="1920" viewBox="0 0 1920 1920" fill="none" xmlns="http://www.w3.org/2000/svg">
<path fill-rule="evenodd" clip-rule="evenodd" d="M977.848 53.3334C1044.85 53.3334 1101.51 96.2245 1122.82 155.711H1544.05V1119.33C1332.03 1140.75 1166.58 1318.88 1166.58 1535.45C1166.59 1633.14 1200.35 1722.94 1256.77 1794.13H0V155.711H421.234C442.546 96.24 499.121 53.3453 566.108 53.3334H977.848ZM308.829 1486.91H617.563V1179.77H308.829V1486.91ZM720.57 1486.91H1029.3V1384.53H720.57V1486.91ZM720.57 1282.15H1235.22V1179.77H720.57V1282.15ZM308.829 974.922H617.563V667.694H308.829V974.922ZM720.57 974.922H1029.3V872.544H720.57V974.922ZM720.57 770.167H1235.22V667.694H720.57V770.167ZM566.108 155.711C537.825 155.727 514.67 178.663 514.652 206.9V360.561H1029.3V206.9C1029.29 178.653 1006.14 155.711 977.848 155.711H566.108Z" fill="#2B3B46"/>
<path fill-rule="evenodd" clip-rule="evenodd" d="M1591.9 1213.87C1772.84 1213.87 1920 1360.27 1920 1540.27C1920 1720.27 1772.84 1866.67 1591.9 1866.67C1410.96 1866.67 1263.8 1720.27 1263.8 1540.27C1263.8 1360.27 1410.96 1213.87 1591.9 1213.87ZM1545.57 1592.87L1440.57 1488.42L1423.39 1505.51L1392.44 1536.21L1375.25 1553.3L1545.66 1722.83L1812.44 1457.44L1747.12 1392.46L1545.57 1592.87Z" fill="#2B3B46"/>
</svg>
