<svg viewBox="0 0 1920 1920" xmlns="http://www.w3.org/2000/svg">
    <path d="M960 1468.235c93.448 0 169.412 75.965 169.412 169.412 0 93.448-75.964 169.412-169.412 169.412-93.448 0-169.412-75.964-169.412-169.412 0-93.447 75.964-169.412 169.412-169.412Zm0-677.647c93.448 0 169.412 75.964 169.412 169.412 0 93.448-75.964 169.412-169.412 169.412-93.448 0-169.412-75.964-169.412-169.412 0-93.448 75.964-169.412 169.412-169.412Zm0-677.647c93.448 0 169.412 75.964 169.412 169.412 0 93.447-75.964 169.412-169.412 169.412-93.448 0-169.412-75.965-169.412-169.412 0-93.448 75.964-169.412 169.412-169.412Z" fill-rule="evenodd"/>
</svg>
