<svg viewBox="0 0 1920 1920" version="1.1" xmlns="http://www.w3.org/2000/svg">
    <g stroke="none" stroke-width="1" fill-rule="evenodd">
        <path d="M1016.471,0 L1016.471,564.706 L1581.176,564.706 L1581.176,1920 L0,1920 L0,0 L1016.471,0 Z M790.701,1355.294 L338.823,1355.294 L338.823,1468.348 L790.701,1468.348 L790.701,1355.294 Z M1129.412,1129.413 L338.823,1129.413 L338.823,1242.353 L1129.412,1242.353 L1129.412,1129.413 Z M1016.471,903.529 L338.823,903.529 L338.823,1016.47 L1016.471,1016.47 L1016.471,903.529 Z M1242.353,677.647 L338.823,677.647 L338.823,790.588 L1242.353,790.588 L1242.353,677.647 Z M790.701,451.878 L338.823,451.878 L338.823,564.819 L790.701,564.819 L790.701,451.878 Z" transform="translate(169)"/>
        <path d="M1498.6729,345.623 C1529.0539,375.891 1550.5129,412.258 1564.2919,451.787 L1129.3549,451.787 L1129.3549,16.851 C1168.8849,30.63 1205.2519,52.201 1235.6329,82.47 L1498.6729,345.623 Z" transform="translate(169)"/>
    </g>
</svg>
