<svg viewBox="0 0 1920 1920" version="1.1" xmlns="http://www.w3.org/2000/svg">
    <path d="M640,960.333333 L640,1173.66667 L1280,1173.66667 L1280,960.333333 L1920,960.333333 L1920,1547 C1920,1693.98667 1800.32,1813.66667 1653.33333,1813.66667 L1653.33333,1813.66667 L266.666667,1813.66667 C119.68,1813.66667 0,1693.98667 0,1547 L0,1547 L0,960.333333 L640,960.333333 Z M1120,107 C1208.21333,107 1280,178.786667 1280,267 L1280,267 L1280,427 L1653.33333,427 C1800.32,427 1920,546.68 1920,693.666667 L1920,693.666667 L1920,853.666667 L1280,853.666667 L1280,747 L640,747 L640,853.666667 L0,853.666667 L0,693.666667 C0,546.68 119.68,427 266.666667,427 L266.666667,427 L640,427 L640,267 C640,178.786667 711.786667,107 800,107 L800,107 Z M1120,213.666667 L800,213.666667 C770.56,213.666667 746.666667,237.56 746.666667,267 L746.666667,267 L746.666667,427 L1173.33333,427 L1173.33333,267 C1173.33333,237.56 1149.44,213.666667 1120,213.666667 L1120,213.666667 Z" stroke="none" stroke-width="1" fill-rule="evenodd"/>
</svg>
