<svg viewBox="0 0 1920 1920" version="1.1" xmlns="http://www.w3.org/2000/svg">
    <path d="M878.72175,1814.60102 C880.291049,1806.14978 889.10327,1799.26806 898.398352,1799.26806 L972.879725,1799.26806 C982.054091,1799.26806 988.089859,1806.14978 986.399844,1814.60102 L971.914002,1885.10847 C970.223987,1893.55971 961.411766,1900.56216 952.116684,1900.56216 L877.514596,1900.56216 C868.460945,1900.56216 862.425177,1893.55971 864.235907,1885.10847 L878.72175,1814.60102 Z M159.620395,1834.15959 C161.31041,1825.70836 170.12263,1818.7059 179.296997,1818.7059 L253.899085,1818.7059 C263.073452,1818.7059 269.109219,1825.70836 267.177774,1834.15959 L252.933362,1904.66704 C251.122632,1913.11828 242.310411,1920 233.136044,1920 L158.654672,1920 C149.480305,1920 143.444537,1913.11828 145.134552,1904.66704 L159.620395,1834.15959 Z M131.010856,591.827957 C132.700871,583.376721 141.513092,576.374269 150.687458,576.374269 L225.168831,576.374269 C234.343198,576.374269 240.378965,583.376721 238.44752,591.827957 L224.203108,662.335408 C222.271663,670.786644 213.338726,677.668364 204.285075,677.668364 L129.803703,677.668364 C120.629336,677.668364 114.593568,670.786644 116.283583,662.335408 L130.769425,591.827957 L131.010856,591.827957 Z M630.048123,15.332956 C631.858854,6.88172043 640.671074,0 649.845441,0 L724.326814,0 C733.621896,0 739.657663,7.00245237 737.967649,15.332956 L723.481806,85.9611394 C721.791791,94.412375 712.858855,101.414827 703.684488,101.414827 L629.082401,101.414827 C619.908034,101.414827 613.872266,94.1709111 615.803712,85.9611394 L630.048123,15.332956 Z M1414.21505,15.332956 C1415.90507,6.88172043 1424.71729,0 1433.89166,0 L1508.37303,0 C1517.5474,0 1523.58316,7.00245237 1521.65172,15.332956 L1507.40731,85.9611394 C1505.59658,94.412375 1496.78435,101.294095 1487.48927,101.294095 L1413.0079,101.294095 C1403.83353,101.294095 1397.79777,94.0501792 1399.48778,85.8404075 L1413.97362,15.2122241 L1414.21505,15.332956 L1414.21505,15.332956 Z M930.629351,397.208074 C932.560797,388.515374 941.493733,381.512922 950.547384,381.512922 L1025.02876,381.512922 C1034.20312,381.512922 1040.23889,388.756838 1038.54888,397.208074 L1024.06303,467.594793 C1022.37302,476.046029 1013.5608,482.927749 1004.26572,482.927749 L929.784344,482.927749 C920.609977,482.927749 914.694925,476.046029 916.505655,467.594793 L930.750067,397.087342 L930.629351,397.208074 Z M721.429645,256.796831 C723.240376,248.345595 732.294027,241.584607 741.106248,241.584607 L873.651705,241.584607 C882.826072,241.584607 888.741124,248.587059 886.930394,256.917563 L861.8216,381.99585 C860.01087,390.447085 850.957219,397.208074 842.024282,397.208074 L709.237395,397.208074 C700.183743,397.208074 694.147976,390.326354 695.958706,381.99585 L721.30893,256.796831 L721.429645,256.796831 Z M381.374497,1479.56989 C383.185227,1471.11866 392.238879,1464.35767 401.0511,1464.35767 L533.475841,1464.35767 C542.770924,1464.35767 548.685976,1471.11866 546.995961,1479.44916 L521.404306,1604.64818 C519.714291,1613.09942 510.781355,1619.8604 501.848419,1619.8604 L369.061531,1619.8604 C360.128595,1619.8604 354.092828,1612.97868 355.782842,1604.64818 L381.374497,1479.44916 L381.374497,1479.56989 Z M916.988516,1608.14941 C918.799247,1599.69817 927.852898,1592.81645 936.665119,1592.81645 L1069.21058,1592.81645 C1078.38494,1592.81645 1084.29999,1599.69817 1082.48926,1608.02867 L1057.13904,1733.22769 C1055.32831,1741.67893 1046.27466,1748.31919 1037.34172,1748.31919 L904.796266,1748.31919 C895.742614,1748.31919 889.706847,1741.43746 891.517577,1733.22769 L916.867801,1607.90794 L916.988516,1608.14941 Z M1265.9766,1510.35654 C1271.16736,1485.00283 1297.60402,1464.4784 1324.88569,1464.4784 L1532.15395,1464.4784 C1559.55634,1464.4784 1577.54293,1485.00283 1572.35217,1510.35654 L1532.27467,1706.4252 C1527.08391,1731.77891 1500.52653,1752.30334 1473.12415,1752.30334 L1266.21803,1752.30334 C1238.81565,1752.30334 1220.82906,1732.02037 1226.14053,1706.4252 L1266.21803,1510.35654 L1265.9766,1510.35654 Z M301.702365,1043.12394 C306.893125,1017.77023 333.329787,997.004339 360.611457,997.004339 L567.879717,997.004339 C595.282102,997.004339 613.268689,1017.52877 608.077929,1042.88248 L568.000432,1239.19261 C562.809672,1264.54631 536.252294,1285.07074 508.849909,1285.07074 L301.702365,1285.07074 C274.420695,1285.07074 256.313392,1264.54631 261.624867,1239.19261 L301.702365,1043.12394 Z M368.095808,637.947557 C373.165853,612.59385 399.4818,592.069421 427.0049,592.069421 L634.152445,592.069421 C661.55483,592.069421 679.541418,612.59385 674.350658,637.947557 L634.273161,834.257687 C629.082401,859.611394 602.525023,880.135823 575.122638,880.135823 L368.095808,880.135823 C340.693423,880.135823 322.58612,859.611394 327.897596,834.257687 L367.975093,637.947557 L368.095808,637.947557 Z M1494.61148,240.860215 C1499.80224,215.506508 1526.35962,194.982079 1553.762,194.982079 L1760.90955,194.982079 C1788.31193,194.982079 1806.29852,215.506508 1801.10776,240.860215 L1761.15098,437.049613 C1755.96022,462.40332 1729.52355,482.927749 1702.24188,482.927749 L1494.97362,482.927749 C1467.57124,482.927749 1449.58465,462.40332 1454.77541,437.049613 L1494.85291,240.860215 L1494.61148,240.860215 Z M853.612956,699.037917 C865.684492,639.879268 927.490752,591.948689 991.469889,591.948689 L1621.12117,591.948689 C1685.1003,591.948689 1727.35068,639.879268 1715.27914,699.158649 L1593.35664,1294.97076 C1581.2851,1354.12941 1519.47884,1402.18072 1455.4997,1402.18072 L825.848425,1402.18072 C761.869288,1402.18072 719.618915,1354.25014 731.69045,1294.97076 L853.612956,699.279381 L853.612956,699.037917 Z" stroke="none" stroke-width="1" fill-rule="evenodd"/>
</svg>
