<svg viewBox="0 0 1920 1920" version="1.1" xmlns="http://www.w3.org/2000/svg">
    <path d="M1401.41412,1433.30259 C1378.26118,1433.30259 1353.75294,1430.592 1329.13176,1427.20376 L1313.88471,1425.17082 L1242.28,1570.63906 C1237.19765,1580.80376 1229.51765,1589.38729 1219.80471,1595.48612 L1039.55059,1709.33082 C999.908235,1734.40376 947.842353,1707.74965 945.018824,1660.992 L932.143529,1450.24376 C931.465882,1439.62729 933.611765,1428.89788 938.355294,1419.29788 L985.677647,1323.072 C997.649412,1298.90259 991.211765,1270.78024 972.237647,1251.69318 C923.447059,1202.67671 886.967059,1145.98024 863.136471,1081.94259 C821.235294,965.500235 819.767059,827.260235 872.849412,703.815529 C897.470588,634.356706 957.442353,544.907294 957.442353,544.907294 C1022.04471,443.599059 1106.97647,341.952 1202.86353,251.260235 L1202.75059,250.695529 C1203.76706,249.566118 1216.19059,238.384941 1235.50353,220.201412 L0.943529412,220.201412 L0.943529412,1914.31906 L1695.06118,1914.31906 L1695.06118,1338.65788 C1675.86118,1351.872 1656.09647,1364.97318 1634.86353,1376.15435 C1562.01647,1414.10259 1483.63529,1433.30259 1401.41412,1433.30259 M1829.46118,0.0225882353 L1848.66118,51.9755294 C1876.67059,125.500235 1895.08,205.236706 1905.92235,286.667294 L1905.92235,286.667294 L1784.51059,361.434353 L1916.08706,405.255529 C1921.62118,523.392 1911.34353,641.415529 1890.78824,749.952 L1890.78824,749.952 L1751.53176,783.834353 L1862.10118,874.074353 C1843.01412,941.726118 1820.87765,1004.40847 1794.44941,1057.152 C1772.99059,1100.06965 1740.23765,1149.76376 1695.06118,1193.81082 C1663.43765,1225.43435 1625.03765,1253.66965 1582.12,1276.25788 C1530.16706,1303.36376 1470.30824,1320.30494 1401.41412,1320.30494 C1383.11765,1320.30494 1363.80471,1318.04612 1344.49176,1315.33553 L1344.49176,1315.33553 L1477.76235,891.580235 C1496.39765,832.060235 1488.71765,828.897882 1460.48235,884.577882 L1460.48235,884.577882 L1252.44471,1294.32847 L1147.29647,1507.78729 L1052.53882,1567.64612 L1045.64941,1456.96376 L1149.55529,1245.76376 C1061.57412,1194.94024 1000.58588,1127.17553 968.849412,1042.46965 C926.044706,923.316706 954.618824,808.907294 978.901176,742.610824 L978.901176,742.610824 L1130.35529,742.610824 L1052.65176,605.726118 C1109.46118,516.615529 1187.27765,421.519059 1280.68,333.199059 C1280.68,333.199059 1352.84941,263.175529 1411.69176,220.257882 C1523.39059,134.422588 1648.75529,62.1402353 1777.50824,18.0931765 L1777.50824,18.0931765 L1829.46118,0.0225882353 Z M618.167059,1356.95435 C645.611765,1425.73553 673.282353,1451.37318 689.884706,1452.50259 C719.588235,1455.10024 774.703529,1393.43435 798.76,1350.40376 C813.894118,1323.072 848.228235,1313.35906 875.56,1328.60612 C902.778824,1343.74024 912.604706,1378.18729 897.357647,1405.40612 C887.983529,1422.12141 804.858824,1565.44376 691.24,1565.44376 C688.416471,1565.44376 685.592941,1565.33082 682.656471,1565.21788 C612.632941,1560.70024 555.597647,1504.68141 513.244706,1398.85553 C466.261176,1281.39671 435.767059,1271.45788 435.428235,1271.34494 C410.242353,1280.60612 361.790588,1392.98259 338.637647,1502.42259 C332.2,1532.91671 302.157647,1552.68141 271.663529,1546.13082 C241.169412,1539.58024 221.743529,1509.65082 228.068235,1479.15671 C247.607059,1386.432 306.223529,1169.472 427.522353,1158.96847 C523.635294,1150.61082 582.477647,1267.95671 618.167059,1356.95435 Z" transform="translate(-1)" stroke="none" stroke-width="1" fill-rule="evenodd"/>
</svg>
