<svg viewBox="0 0 1920 1920" version="1.1" xmlns="http://www.w3.org/2000/svg">
    <path d="M1920,1694.17647 L1920,1807.11765 L0,1807.11765 L0,1694.17647 L1920,1694.17647 Z M960.056471,371.917647 L1338.74824,750.722353 L1258.89882,830.571765 L1016.52706,588.2 L1016.52706,1242.35529 L903.585882,1242.35529 L903.585882,588.2 L661.101176,830.571765 L581.251765,750.722353 L960.056471,371.917647 Z M1750.64471,112.943529 L169.468235,112.943529 C75.9529412,112.943529 0.0564705882,188.952941 0.0564705882,282.355294 L0.0564705882,1468.23765 L56.5270588,1468.23765 L112.997647,1468.23765 L1807.11529,1468.23765 L1863.58588,1468.23765 L1920.05647,1468.23765 L1920.05647,282.355294 C1920.05647,188.952941 1844.04706,112.943529 1750.64471,112.943529 L1750.64471,112.943529 Z" stroke="none" stroke-width="1" fill-rule="evenodd"/>
</svg>
