<svg viewBox="0 0 1920 1920" version="1.1" xmlns="http://www.w3.org/2000/svg">
    <path d="M960,1277.85295 C784.703025,1277.85295 642.049017,1135.19894 642.049017,959.901965 C642.049017,784.60499 784.703025,641.950983 960,641.950983 C1135.29698,641.950983 1277.95098,784.60499 1277.95098,959.901965 C1277.95098,1135.19894 1135.29698,1277.85295 960,1277.85295 L960,1277.85295 Z M1908.3418,936.267609 C1720.64473,558.647825 1357.33274,324 960,324 C562.667255,324 199.355266,558.647825 11.6582027,936.267609 L0,959.901965 L11.6582027,983.536321 C199.355266,1361.15611 562.667255,1595.80393 960,1595.80393 C1357.33274,1595.80393 1720.64473,1361.15611 1908.3418,983.536321 L1920,959.901965 L1908.3418,936.267609 Z" stroke="none" stroke-width="1" fill-rule="evenodd"/>
</svg>
