<svg viewBox="0 0 1920 1920" version="1.1" xmlns="http://www.w3.org/2000/svg">
    <path d="M960,0 C1489.35529,0 1920,430.644706 1920,960 C1920,1489.35529 1489.35529,1920 960,1920 C430.644706,1920 0,1489.35529 0,960 C0,430.644706 430.644706,0 960,0 Z M960,112.941176 C492.875294,112.941176 112.941176,492.875294 112.941176,960 C112.941176,1427.12471 492.875294,1807.05882 960,1807.05882 C1427.12471,1807.05882 1807.05882,1427.12471 1807.05882,960 C1807.05882,492.875294 1427.12471,112.941176 960,112.941176 Z M1113,721 L1113,805.047059 L893.111732,805.047059 L893.111732,910.552941 L1083.50279,910.552941 L1083.50279,988.341176 L893.111732,988.341176 L893.111732,1177 L793,1177 L793,721 L1113,721 Z" stroke="#979797" stroke-width="1" fill-rule="evenodd"/>
</svg>
