<svg viewBox="0 0 1920 1920" version="1.1" xmlns="http://www.w3.org/2000/svg">
    <path d="M1072.156 537.778c59.802-.707 116.561 14.29 157.774 56.99 36.644 37.974 50.015 91.327 43.72 142.908-9.128 74.877-30.737 144.983-56.093 215.657-27.129 75.623-54.66 151.09-82.332 226.512-44.263 120.685-88.874 241.237-132.65 362.1-10.877 30.018-18.635 62.072-21.732 93.784-3.376 34.532 21.462 51.526 52.648 36.203 24.977-12.278 49.288-28.992 68.845-48.768 31.952-32.31 63.766-64.776 94.805-97.98 15.515-16.605 30.86-33.397 45.912-50.438 11.993-13.583 24.318-34.02 40.779-42.28 31.17-15.642 55.226 22.846 49.582 49.794-6.008 28.736-27.377 53.54-45.014 75.973-54.87 69.795-115.044 137.088-183.308 193.977-67.103 55.77-141.607 103.216-223.428 133.98-26.65 10.016-53.957 18.253-81.713 24.563-53.585 12.192-112.798 11.283-167.56 3.333-40.151-5.828-76.246-31.44-93.264-68.707-29.544-64.698-8.98-144.595 6.295-210.45 20.37-87.77 51.85-170.961 83.13-255.163 33.253-89.517 67.435-178.676 101.726-267.797 31.294-81.296 62.72-162.537 93.69-243.95 8.718-22.923 21.183-45.255 24.845-68.963 6.109-39.537-22.406-74.738-61.985-51.947-92.46 53.244-153.538 141.534-224.52 218.4-16.089 17.43-35.243 39.04-62.907 19.07-29.521-21.308-20.765-48.637-3.987-71.785 93.18-128.58 205.056-248.86 350.86-316.783 60.932-28.386 146.113-57.285 225.882-58.233zM1440 205.244c-.008 169.189-182.758 284.908-335.53 212.455-78.956-37.446-117.358-126.202-98.219-227.002 26.494-139.598 183.78-227.203 315.717-175.87 76.703 29.846 118.04 96.533 118.032 190.417z" stroke="none" stroke-width="1" fill-rule="evenodd"/>
</svg>
