<svg viewBox="0 0 1920 1920" version="1.1" xmlns="http://www.w3.org/2000/svg">
    <path d="M1387.688,1315.136 L1774.99467,1813.376 L144.274667,1813.376 L531.688,1315.136 L620.968,1386.70933 L1298.408,1386.70933 L1387.688,1315.136 Z M53,932.234667 L448.413333,1248.71467 L53,1756.98133 L53,932.234667 Z M1866.33333,932.288 L1866.33333,1756.928 L1470.92,1248.66133 L1866.33333,932.288 Z M1546.408,-0.0106666667 L1546.408,498.336 L1866.30133,775.669333 L1866.30133,795.616 L1439.63467,1137.056 L1439.63467,106.656 L479.634667,106.656 L479.634667,1137.056 L52.968,795.616 L52.968,775.669333 L372.968,498.336 L372.968,-0.0106666667 L1546.408,-0.0106666667 Z M1013,266.666667 L1013,533.333333 L1279.66667,533.333333 L1279.66667,640 L1013,640 L1013,906.666667 L906.333333,906.666667 L906.333333,640 L639.666667,640 L639.666667,533.333333 L906.333333,533.333333 L906.333333,266.666667 L1013,266.666667 Z" stroke="none" stroke-width="1" fill-rule="evenodd"/>
</svg>
