<svg viewBox="0 0 1920 1920" version="1.1" xmlns="http://www.w3.org/2000/svg">
    <g stroke="none" stroke-width="1" fill-rule="evenodd">
        <path d="M508.235 0H56.471C25.299 0 0 25.299 0 56.47v451.765c0 31.172 25.299 56.47 56.47 56.47h451.765c31.172 0 56.47-25.298 56.47-56.47V56.471C564.706 25.299 539.408 0 508.236 0zM1185.882 0H734.118c-31.172 0-56.47 25.299-56.47 56.47v451.765c0 31.172 25.298 56.47 56.47 56.47h451.764c31.172 0 56.47-25.298 56.47-56.47V56.471c0-31.172-25.298-56.471-56.47-56.471zM1863.53 0h-451.765c-31.172 0-56.47 25.299-56.47 56.47v451.765c0 31.172 25.298 56.47 56.47 56.47h451.764c31.172 0 56.471-25.298 56.471-56.47V56.471C1920 25.299 1894.701 0 1863.53 0zM508.235 677.647H56.471C25.299 677.647 0 702.946 0 734.117v451.765c0 31.172 25.299 56.47 56.47 56.47h451.765c31.172 0 56.47-25.298 56.47-56.47V734.118c0-31.172-25.298-56.47-56.47-56.47zM1185.882 677.647H734.118c-31.172 0-56.47 25.299-56.47 56.47v451.765c0 31.172 25.298 56.47 56.47 56.47h451.764c31.172 0 56.47-25.298 56.47-56.47V734.118c0-31.172-25.298-56.47-56.47-56.47zM1863.53 677.647h-451.765c-31.172 0-56.47 25.299-56.47 56.47v451.765c0 31.172 25.298 56.47 56.47 56.47h451.764c31.172 0 56.471-25.298 56.471-56.47V734.118c0-31.172-25.299-56.47-56.47-56.47zM508.235 1355.294H56.471c-31.172 0-56.471 25.299-56.471 56.47v451.765C0 1894.701 25.299 1920 56.47 1920h451.765c31.172 0 56.47-25.299 56.47-56.47v-451.765c0-31.172-25.298-56.47-56.47-56.47zM1185.882 1355.294H734.118c-31.172 0-56.47 25.299-56.47 56.47v451.765c0 31.172 25.298 56.471 56.47 56.471h451.764c31.172 0 56.47-25.299 56.47-56.47v-451.765c0-31.172-25.298-56.47-56.47-56.47zM1863.53 1355.294h-451.765c-31.172 0-56.47 25.299-56.47 56.47v451.765c0 31.172 25.298 56.471 56.47 56.471h451.764c31.172 0 56.471-25.299 56.471-56.47v-451.765c0-31.172-25.299-56.47-56.47-56.47z"/>
    </g>
</svg>
