<svg viewBox="0 0 1920 1920" version="1.1" xmlns="http://www.w3.org/2000/svg">
    <path d="M1006.723 1823.182h242.044V1920H667.862v-96.818h242.044v-252.3C585.44 1546.08 329 1274.118 329 943.41V709.983h96.818V943.41c0 293.551 238.946 532.497 532.497 532.497 293.55 0 532.496-238.946 532.496-532.497V709.983h96.818V943.41c0 330.708-256.44 602.67-580.906 627.472v252.3zm-48.408-467.735c-240.205 0-435.68-195.475-435.68-435.68V435.68C522.635 195.475 718.11 0 958.315 0c240.204 0 435.679 195.475 435.679 435.68v484.087c0 240.205-195.475 435.68-435.68 435.68z" stroke="none" stroke-width="1" fill-rule="evenodd"/>
</svg>
