<svg viewBox="0 0 1920 1920" version="1.1" xmlns="http://www.w3.org/2000/svg">
    <path d="M338.81755,398.616654 L745.624489,733.82015 L338.81755,1069.02365 L338.81755,846.759334 L225.878367,846.759334 L225.878367,1750.2728 L0,1750.2728 L0,620.880967 L338.81755,620.880967 L338.81755,398.616654 Z M1920,1524.38314 L1920,1750.26151 L677.668982,1750.26151 L677.668982,1524.38314 L1920,1524.38314 Z M1920,1072.51347 L1920,1298.50477 L677.668982,1298.50477 L677.668982,1072.51347 L1920,1072.51347 Z M1242.3649,620.869673 L1242.3649,846.74804 L1016.48653,846.74804 L1016.48653,620.869673 L1242.3649,620.869673 Z M1581.18245,620.869673 L1581.18245,846.74804 L1355.30408,846.74804 L1355.30408,620.869673 L1581.18245,620.869673 Z M1920,620.869673 L1920,846.74804 L1694.12163,846.74804 L1694.12163,620.869673 L1920,620.869673 Z M1920,169 L1920,394.991306 L677.668982,394.991306 L677.668982,169 L1920,169 Z" stroke="none" stroke-width="1" fill-rule="evenodd"/>
</svg>
