<svg viewBox="0 0 1920 1920" version="1.1" xmlns="http://www.w3.org/2000/svg">
    <path d="M1594.413 20.183l86.513 72.62L212.691 1843.393l-86.513-72.621 159.021-189.628H.023V1468.2c59.745 0 118.136-24.056 159.924-65.957 41.901-41.788 65.958-100.066 65.958-159.925V847.025c0-385.694 299.181-702.155 677.647-731.181V-.034h112.941v115.765c76.687 5.76 151.68 22.927 223.51 52.292 57.036 24.169 109.102 54.211 155.86 88.884l198.55-236.724zm99.705 1222.17c0 124.235 101.647 225.882 225.882 225.882v112.941h-621.176C1298.824 1767.53 1146.353 1920 960 1920s-338.824-152.47-338.824-338.824v-48.564L1555.2 417.882l11.294 15.812c83.577 121.977 127.624 264.282 127.624 413.365v395.294z" stroke="none" stroke-width="1" fill-rule="evenodd"/>
</svg>
