<svg viewBox="0 0 1920 1920" version="1.1" xmlns="http://www.w3.org/2000/svg">
    <path d="M1628.7 822.865c5.815.22 11.41.33 17.225.33 38.29 0 74.606-7.132 109.495-17.555v857.633l-424.812-491.847-82.943 71.643 442.804 512.692H64.951l442.804-512.692-82.943-71.643L0 1663.273V524.663l878.039 812.43 592.454-557.235c48.603 25.014 101.924 40.484 158.207 43.007zm-248.677-108.649l-502.598 472.866L.044 375.091V329.56h1278.933c-8.777 29.622-15.47 60.232-16.786 92.598-4.608 102.473 30.939 200.557 100.278 276.26 5.376 5.924 11.85 10.312 17.554 15.798zm277.927-548.997c151.295 6.803 268.47 134.839 261.777 286.244-6.583 147.126-127.926 262.106-273.736 262.106-4.06 0-8.338-.11-12.507-.33-151.295-6.692-268.47-134.838-261.667-286.243C1378.29 279.87 1499.743 165 1645.552 165c4.06 0 8.229.11 12.398.22z" stroke="none" stroke-width="1" fill-rule="evenodd"/>
</svg>
