<svg viewBox="0 0 1920 1920" version="1.1" xmlns="http://www.w3.org/2000/svg">
    <path d="M1468.235 1355.294h112.941v-338.823h-112.94v338.823zm0 225.882h112.941v-112.94h-112.94v112.94zm56.47-677.647c217.977 0 395.295 177.318 395.295 395.295 0 217.976-177.318 395.294-395.294 395.294-217.977 0-395.294-177.318-395.294-395.294 0-217.977 177.317-395.295 395.294-395.295zM338.825 1129.412V1016.47h564.705v112.94H338.824zm0 225.882v-112.941h338.823v112.941H338.824zm0-564.706V338.824h790.588v451.764H338.824zm677.647 508.236c0-260.895 198.324-474.015 451.764-502.476V0H0v1920h1468.235v-118.701c-253.44-28.461-451.764-241.581-451.764-502.475z" stroke="none" stroke-width="1" fill-rule="evenodd"/>
</svg>
