<svg viewBox="0 0 1920 1920" version="1.1" xmlns="http://www.w3.org/2000/svg">
    <path d="M1129.41176,1242.35294 L1129.41176,1355.29412 L338.823529,1355.29412 L338.823529,1242.35294 L1129.41176,1242.35294 Z M1581.17647,903.529412 L1581.17647,1016.47059 L338.823529,1016.47059 L338.823529,903.529412 L1581.17647,903.529412 Z M621.176471,0 C714.578824,0 790.588235,76.0094118 790.588235,169.411765 C790.588235,195.501176 784.150588,219.896471 773.647059,242.032941 L999.981176,468.254118 L920.018824,548.216471 L693.797647,321.882353 C671.661176,332.385882 647.152941,338.823529 621.176471,338.823529 C527.774118,338.823529 451.764706,262.814118 451.764706,169.411765 C451.764706,76.0094118 527.774118,0 621.176471,0 Z M344.470588,225.882353 C370.447059,354.635294 484.517647,451.764706 621.176471,451.764706 C634.729412,451.764706 648.282353,450.635294 660.705882,448.376471 L660.705882,448.376471 L920.470588,708.141176 L1159.90588,468.705882 L917.082353,225.882353 L1920,225.882353 L1920,1355.29412 L1355.29412,1355.29412 L1355.29412,1920 L5.68434189e-14,1920 L5.68434189e-14,225.882353 Z M1912.65882,1468.24659 L1468.23529,1912.55718 L1468.23529,1468.24659 L1912.65882,1468.24659 Z" stroke="none" stroke-width="1" fill-rule="evenodd"/>
</svg>
