<svg viewBox="0 0 1920 1920" version="1.1" xmlns="http://www.w3.org/2000/svg">
    <path d="M796.863 1332.48C745.587 1596.875 679.29 1787.52 494.067 1920c-57.26-399.473 84.029-699.445 149.534-1018.165-111.811-185.11 13.44-557.816 249.036-466.108 289.92 113.054-230.174 661.384 133.044 733.327 379.257 74.993 515.012-572.16 279.982-807.303-339.727-339.502-1016.584-51.615-911.21 429.74 42.466 194.034-101.986 249.262-101.986 249.262C175.46 993.318 164.28 829.1 170.265 668.838 183.705 300.31 506.49 42.24 830.293 6.438c409.525-45.177 793.864 148.066 846.833 527.548 59.859 428.16-176.979 920.019-614.965 886.588-118.588-9.035-265.298-88.094-265.298-88.094" stroke="none" stroke-width="1" fill-rule="evenodd"/>
</svg>
