<svg viewBox="0 0 1920 1920" version="1.1" xmlns="http://www.w3.org/2000/svg">
    <path d="M508.03 510.066l211.928 211.912H239.94V241.997L394.985 397.03C542.351 249.117 742.76 162 959.968 162 1401.186 162 1760 520.866 1760 961.968h-160.006c0-352.866-287.052-639.974-640.026-639.974-173.767 0-334.093 69.757-451.938 188.072zm903.94 903.868l-211.928-211.912h480.019v479.981l-155.046-155.114C1377.649 1674.883 1177.24 1762 960.032 1762 518.814 1762 160 1403.134 160 962.032h160.006c0 352.866 287.052 639.974 640.026 639.974 173.767 0 334.093-69.757 451.938-188.072z" stroke="none" stroke-width="1" fill-rule="evenodd"/>
</svg>
