<svg viewBox="0 0 1920 1920" version="1.1" xmlns="http://www.w3.org/2000/svg">
    <path d="M960,426.666667 C665.866667,426.666667 426.666667,666 426.666667,960 C426.666667,1254.13333 665.866667,1493.33333 960,1493.33333 C1254.13333,1493.33333 1493.33333,1254.13333 1493.33333,960 C1493.33333,666 1254.13333,426.666667 960,426.666667 M960,1706.66667 C548.266667,1706.66667 213.333333,1371.73333 213.333333,960 C213.333333,548.373333 548.266667,213.333333 960,213.333333 C1371.73333,213.333333 1706.66667,548.373333 1706.66667,960 C1706.66667,1371.73333 1371.73333,1706.66667 960,1706.66667 M960,0 C430.72,0 0,430.72 0,960 C0,1489.38667 430.72,1920 960,1920 C1489.28,1920 1920,1489.38667 1920,960 C1920,430.72 1489.28,0 960,0" stroke="none" stroke-width="1" fill-rule="evenodd"/>
</svg>
