<svg viewBox="0 0 1920 1920" version="1.1" xmlns="http://www.w3.org/2000/svg">
    <path d="M614.741843,795.026192 C676.673613,795.386261 734.524608,819.990937 777.852843,864.399377 L777.852843,864.399377 L605.980177,1032.07124 C607.420451,1033.3915 610.060953,1035.07181 613.301569,1035.07181 L613.301569,1035.07181 L243.631311,1408.46278 L511.522225,1676.23367 L886.833555,1300.92234 L1055.58563,1142.13216 C1099.87404,1185.34037 1124.47872,1243.31139 1124.84274,1305.12314 C1125.19886,1367.535 1100.95425,1426.22616 1056.54581,1470.6346 L1056.54581,1470.6346 L674.753248,1852.54718 C631.184968,1895.99544 573.21395,1920 511.522225,1920 C449.710478,1920 391.73946,1895.99544 348.291202,1852.54718 L348.291202,1852.54718 L67.4378245,1571.6938 C-22.459261,1481.67669 -22.459261,1335.24886 67.3178016,1245.23176 L67.3178016,1245.23176 L449.230386,863.319172 C493.278758,819.2708 551.489821,795.026192 613.421592,795.026192 L613.421592,795.026192 Z M1379.0471,1501.14439 L1379.0471,1861.21283 L1259.02429,1861.21283 L1259.02429,1501.14439 L1379.0471,1501.14439 Z M1601.44937,1518.70373 L1841.49499,1758.74935 L1756.63887,1843.60548 L1516.59324,1603.55986 L1601.44937,1518.70373 Z M1859.13835,1261.09877 L1859.13835,1381.12158 L1499.06991,1381.12158 L1499.06991,1261.09877 L1859.13835,1261.09877 Z M1245.49772,67.1838618 C1334.67467,-21.9930868 1481.22252,-22.473178 1572.07979,66.2236793 L1572.07979,66.2236793 L1852.81315,346.957034 C1942.35016,438.894508 1941.99009,585.202314 1852.81315,674.499286 L1852.81315,674.499286 L1470.90056,1056.17182 C1427.57233,1099.62008 1369.48129,1123.74467 1307.66954,1123.74467 C1245.97781,1123.74467 1188.00679,1099.62008 1144.55854,1056.17182 L1144.55854,1056.17182 L1314.27079,886.45957 C1311.1502,883.338977 1304.18888,883.338977 1301.18831,886.45957 L1301.18831,886.45957 L1683.10089,504.667008 L1403.2077,236.896117 L1033.65746,618.448633 C1037.13812,614.607903 1037.0181,609.326899 1033.41741,605.606192 L1033.41741,605.606192 L863.70516,775.318447 C773.688051,685.301339 773.688051,538.993532 863.70516,448.976424 L863.70516,448.976424 Z M408.542653,540.961906 L408.542653,660.984717 L68.998121,660.984717 L68.998121,540.961906 L408.542653,540.961906 Z M658.910237,71.0726009 L658.910237,410.49711 L538.767403,410.49711 L538.767403,71.0726009 L658.910237,71.0726009 Z M161.091624,78.4299992 L401.257269,318.475621 L316.401141,403.331749 L76.3555193,163.286127 L161.091624,78.4299992 Z" stroke="none" stroke-width="1" fill-rule="evenodd"/>
</svg>
