<svg viewBox="0 0 1920 1920" version="1.1" xmlns="http://www.w3.org/2000/svg">
    <path d="M960,0 L960,213.333333 C1371.62667,213.333333 1706.66667,548.266667 1706.66667,960 C1706.66667,1371.73333 1371.62667,1706.66667 960,1706.66667 C548.373333,1706.66667 213.333333,1371.73333 213.333333,960 C213.333333,762.986667 291.733333,577.493333 426.666667,439.253333 L426.666667,693.333333 L640,693.333333 L640,106.666667 L53.3333333,106.666667 L53.3333333,320 L244.373333,320 C88.64,494.08 0,720.96 0,960 C0,1489.28 430.613333,1920 960,1920 C1489.38667,1920 1920,1489.28 1920,960 C1920,430.72 1489.38667,0 960,0" stroke="none" stroke-width="1" fill-rule="evenodd"/>
</svg>
