<svg viewBox="0 0 1920 1920" version="1.1" xmlns="http://www.w3.org/2000/svg">
    <path d="M53.333 0C1082.56 0 1920 837.44 1920 1866.667V1920h-408.853v-53.333c0-803.84-653.974-1457.814-1457.814-1457.814H0V0h53.333zm0 628.96c682.454 0 1237.76 555.2 1237.76 1237.76v53.333H882.24v-53.333c0-457.067-371.84-828.907-828.907-828.907H0V628.96h53.333zm213.856 757.707c146.774 0 266.134 119.36 266.134 266.133 0 146.773-119.36 266.24-266.134 266.24C120.416 1919.04.95 1799.573.95 1652.8c0-146.773 119.467-266.133 266.24-266.133z" stroke="none" stroke-width="1" fill-rule="evenodd"/>
</svg>
