<svg viewBox="0 0 1920 1920" version="1.1" xmlns="http://www.w3.org/2000/svg">
    <path d="M903.647 338.824V0h112.941v338.824h-112.94zm621.177 903.529c93.402 0 169.411 76.01 169.411 169.412v338.823c0 93.403-76.01 169.412-169.411 169.412H395.412C302.009 1920 226 1843.99 226 1750.588v-338.823c0-93.403 76.01-169.412 169.412-169.412h1129.412zm-960 451.765c-62.344 0-112.942-50.71-112.942-112.942 0-62.23 50.598-112.94 112.942-112.94 62.343 0 112.94 50.71 112.94 112.94 0 62.231-50.597 112.942-112.94 112.942zm960-1355.294c93.74 0 169.411 75.67 169.411 169.411v677.647c-46.306-35.011-106.164-56.47-169.411-56.47H395.412c-63.247 0-123.106 21.459-169.412 56.47V508.235c0-93.74 75.67-169.411 169.412-169.411h508.235v428.385L657.322 520.885l-79.85 79.85 382.646 382.644 382.644-382.645-79.85-79.85-246.324 246.325V338.824h508.236z" stroke="none" stroke-width="1" fill-rule="evenodd"/>
</svg>
