<svg viewBox="0 0 1920 1920" version="1.1" xmlns="http://www.w3.org/2000/svg">
    <path d="M960,0 C1489.28,0 1920,430.613333 1920,960 C1920,1489.38667 1489.28,1920 960,1920 C430.72,1920 0,1489.38667 0,960 C0,720.96 88.64,494.08 244.48,320 L244.48,320 L53.3333333,320 L53.3333333,106.666667 L640,106.666667 L640,693.333333 L426.666667,693.333333 L426.666667,439.253333 C291.733333,577.386667 213.333333,762.986667 213.333333,960 C213.333333,1371.62667 548.266667,1706.66667 960,1706.66667 C1371.73333,1706.66667 1706.66667,1371.62667 1706.66667,960 C1706.66667,548.373333 1371.73333,213.333333 960,213.333333 L960,213.333333 Z M1151.25333,671.253333 L1302.08,822.08 L1110.82667,1013.33333 L1302.08,1204.58667 L1151.25333,1355.41333 L960,1164.16 L768.746667,1355.41333 L617.92,1204.58667 L809.173333,1013.33333 L617.92,822.08 L768.746667,671.253333 L960,862.506667 L1151.25333,671.253333 Z" stroke="none" stroke-width="1" fill-rule="evenodd"/>
</svg>
