<svg viewBox="0 0 1920 1920" version="1.1" xmlns="http://www.w3.org/2000/svg">
    <path d="M1006.176 1171.384l724.587-724.587 150.826 150.827-875.413 875.413-519.893-519.893 150.826-150.827 369.067 369.067zM0 1286.221l211.733-26.133c16.32 131.947 68.587 258.027 151.254 364.8l-168.64 130.667C88.213 1618.488 21.013 1456.14 0 1286.22zm859.275-860.778c-132.054 16.213-258.134 68.586-364.8 151.253L363.7 408.056c137.067-106.133 299.307-173.44 469.44-194.347l26.134 211.734zm1046.4 621.301c4.8 40 7.146 79.147 7.146 119.787 0 40.533-2.346 79.68-7.146 119.466-21.014 170.134-88.214 332.48-194.347 469.547l-168.64-130.667c82.667-106.773 134.933-232.853 151.253-364.8 3.734-30.72 5.547-61.76 5.547-93.546 0-31.894-1.813-62.934-5.547-93.867-5.866-46.613-16.106-93.013-30.72-137.813l202.667-66.347c18.88 57.813 32.32 117.76 39.787 178.24zM0 1046.744c21.013-169.92 88.213-332.267 194.347-469.333l168.64 130.666c-82.667 106.774-134.934 232.854-151.254 364.8L0 1046.744zm1541.93-638.699l-130.773 168.64c-106.56-82.666-232.746-135.04-364.693-151.253l26.133-211.733c170.027 21.013 332.374 88.213 469.334 194.346z" stroke="none" stroke-width="1" fill-rule="evenodd"/>
</svg>
