<svg viewBox="0 0 1920 1920" version="1.1" xmlns="http://www.w3.org/2000/svg">
    <path d="M960.056537,0 L112,363.420495 L112,1079.18021 C112,1469.85159 624,1749.59717 842.572438,1869.00353 C870.04947,1884.0424 892.325088,1896.14134 907.590106,1905.30035 L907.590106,1905.41343 C923.759717,1915.13781 941.85159,1920 960.056537,1920 C978.14841,1920 996.353357,1915.13781 1012.52297,1905.30035 C1027.78799,1896.14134 1050.0636,1884.0424 1077.54064,1869.00353 C1296.11307,1749.59717 1808.11307,1469.85159 1808.11307,1079.18021 L1808.11307,363.420495 L960.056537,0 Z M846.982332,1272.19788 L524.268551,949.484099 L604.325088,869.540636 L846.982332,1112.31095 L1372.32509,586.855124 L1452.38163,666.798587 L846.982332,1272.19788 Z" stroke="none" stroke-width="1" fill-rule="evenodd"/>
</svg>
