<svg viewBox="0 0 1920 1920" version="1.1" xmlns="http://www.w3.org/2000/svg">
    <path d="M1694.11765,0 C1818.69176,0 1920,101.308235 1920,225.882353 L1920,1694.11765 C1920,1818.69176 1818.69176,1920 1694.11765,1920 L225.882353,1920 C101.308235,1920 0,1818.69176 0,1694.11765 L0,225.882353 C0,101.308235 101.308235,0 225.882353,0 L1694.11765,0 Z M1694.34353,1355.29412 L1355.29412,1355.29412 L1355.29412,1694.11765 L1694.34353,1694.11765 L1694.34353,1355.29412 Z M1129.41176,1355.29412 L790.588235,1355.29412 L790.588235,1694.11765 L1129.41176,1694.11765 L1129.41176,1355.29412 Z M1129.41176,790.588235 L790.588235,790.588235 L790.588235,1129.41176 L1129.41176,1129.41176 L1129.41176,790.588235 Z M1694.23059,790.588235 L1355.29412,790.588235 L1355.29412,1129.41176 L1694.23059,1129.41176 L1694.23059,790.588235 Z M1129.41176,225.882353 L790.588235,225.882353 L790.588235,564.705882 L1129.41176,564.705882 L1129.41176,225.882353 Z M1694.11765,225.882353 L1355.29412,225.882353 L1355.29412,564.705882 L1694.11765,564.705882 L1694.11765,225.882353 Z" stroke="none" stroke-width="1" fill-rule="evenodd"/>
</svg>
