<svg viewBox="0 0 1920 1920" version="1.1" xmlns="http://www.w3.org/2000/svg">
    <path d="M1694.11765,2.84217094e-14 C1818.69176,2.84217094e-14 1920,101.308235 1920,225.882353 L1920,225.882353 L1920,1694.11765 C1920,1818.69176 1818.69176,1920 1694.11765,1920 L1694.11765,1920 L225.882353,1920 C101.308235,1920 2.84217094e-14,1818.69176 2.84217094e-14,1694.11765 L2.84217094e-14,1694.11765 L2.84217094e-14,225.882353 C2.84217094e-14,101.308235 101.308235,2.84217094e-14 225.882353,2.84217094e-14 L225.882353,2.84217094e-14 Z M1694.34353,1355.29412 L1355.29412,1355.29412 L1355.29412,1694.11765 L1694.34353,1694.11765 L1694.34353,1355.29412 Z M1129.41176,1355.29412 L790.588235,1355.29412 L790.588235,1694.11765 L1129.41176,1694.11765 L1129.41176,1355.29412 Z M564.705882,1355.29412 L225.882353,1355.29412 L225.882353,1694.11765 L564.705882,1694.11765 L564.705882,1355.29412 Z M1129.41176,225.882353 L790.588235,225.882353 L790.588235,564.705882 L1129.41176,564.705882 L1129.41176,225.882353 Z M564.705882,225.882353 L225.882353,225.882353 L225.882353,564.705882 L564.705882,564.705882 L564.705882,225.882353 Z M1694.11765,225.882353 L1355.29412,225.882353 L1355.29412,564.705882 L1694.11765,564.705882 L1694.11765,225.882353 Z" stroke="none" stroke-width="1" fill-rule="evenodd"/>
</svg>
