<svg viewBox="0 0 1920 1920" version="1.1" xmlns="http://www.w3.org/2000/svg">
    <path d="M1129.41176,225.882353 L225.882353,225.882353 L225.882353,1694.11765 L1129.41176,1694.11765 L1129.41176,225.882353 Z M1694.11765,1355.29412 L1355.29412,1355.29412 L1355.29412,1694.11765 L1694.11765,1694.11765 L1694.11765,1355.29412 Z M1694.11765,790.588235 L1355.29412,790.588235 L1355.29412,1129.41176 L1694.11765,1129.41176 L1694.11765,790.588235 Z M1694.11765,225.882353 L1355.29412,225.882353 L1355.29412,564.705882 L1694.11765,564.705882 L1694.11765,225.882353 Z M225.882353,1920 C101.308235,1920 -2.27373675e-13,1818.69176 -2.27373675e-13,1694.11765 L-2.27373675e-13,225.882353 C-2.27373675e-13,101.421176 101.308235,-2.27373675e-13 225.882353,-2.27373675e-13 L1694.11765,-2.27373675e-13 C1818.69176,-2.27373675e-13 1920,101.421176 1920,225.882353 L1920,1694.11765 C1920,1818.69176 1818.69176,1920 1694.11765,1920 L225.882353,1920 Z M806.625882,564.705882 L806.625882,831.021176 L1072.94118,831.021176 L1072.94118,1088.97882 L806.625882,1088.97882 L806.625882,1355.29412 L548.555294,1355.29412 L548.555294,1088.97882 L282.352941,1088.97882 L282.352941,831.021176 L548.555294,831.021176 L548.555294,564.705882 L806.625882,564.705882 Z" stroke="none" stroke-width="1" fill-rule="evenodd"/>
</svg>
