<svg viewBox="0 0 1920 1920" version="1.1" xmlns="http://www.w3.org/2000/svg">
    <path d="M1694.244 1694.064H225.924v-1468.2h1468.32v1468.2zm-.12-1694.04h-1468.2c-124.56 0-225.96 101.28-225.96 225.84v1468.2c0 124.68 101.4 225.96 225.96 225.96h1468.2c124.56 0 225.84-101.28 225.84-225.96v-1468.2c0-124.56-101.28-225.84-225.84-225.84zm-1058.736 1599l324.6-324.6 324.6 324.6 314.52-314.4-324.6-324.6 324.6-324.6-314.52-314.52-324.6 324.6-324.6-324.6-314.52 314.52 324.6 324.6-324.6 324.6 314.52 314.4z" stroke="none" stroke-width="1" fill-rule="evenodd"/>
</svg>
