<svg viewBox="0 0 1920 1920" version="1.1" xmlns="http://www.w3.org/2000/svg">
    <path d="M1694.11765,0 C1818.69176,0 1920,101.308235 1920,225.882353 L1920,1694.11765 C1920,1818.57882 1818.69176,1920 1694.11765,1920 L225.882353,1920 C101.308235,1920 -1.13686838e-13,1818.57882 -1.13686838e-13,1694.11765 L-1.13686838e-13,225.882353 C-1.13686838e-13,101.308235 101.308235,0 225.882353,0 L1694.11765,0 Z M790.588235,1694.11765 L1694.11765,1694.11765 L1694.11765,225.882353 L790.588235,225.882353 L790.588235,1694.11765 Z M225.882353,564.705882 L564.705882,564.705882 L564.705882,225.882353 L225.882353,225.882353 L225.882353,564.705882 Z M225.882353,1129.41176 L564.705882,1129.41176 L564.705882,790.588235 L225.882353,790.588235 L225.882353,1129.41176 Z M225.882353,1694.11765 L564.705882,1694.11765 L564.705882,1355.29412 L225.882353,1355.29412 L225.882353,1694.11765 Z M1113.37412,1355.29412 L1113.37412,1088.97882 L847.058824,1088.97882 L847.058824,831.021176 L1113.37412,831.021176 L1113.37412,564.705882 L1371.44471,564.705882 L1371.44471,831.021176 L1637.64706,831.021176 L1637.64706,1088.97882 L1371.44471,1088.97882 L1371.44471,1355.29412 L1113.37412,1355.29412 Z" stroke="none" stroke-width="1" fill-rule="evenodd"/>
</svg>
