<svg viewBox="0 0 1920 1920" version="1.1" xmlns="http://www.w3.org/2000/svg">
    <path d="M1694.11765,2.84217094e-14 C1818.69176,2.84217094e-14 1920,101.308235 1920,225.882353 L1920,225.882353 L1920,1694.11765 C1920,1818.69176 1818.69176,1920 1694.11765,1920 L1694.11765,1920 L225.882353,1920 C101.308235,1920 2.84217094e-14,1818.69176 2.84217094e-14,1694.11765 L2.84217094e-14,1694.11765 L2.84217094e-14,225.882353 C2.84217094e-14,101.308235 101.308235,2.84217094e-14 225.882353,2.84217094e-14 L225.882353,2.84217094e-14 Z M1694.23059,790.588235 L790.230588,790.588235 L790.230588,1694.58824 L1694.23059,1694.58824 L1694.23059,790.588235 Z M564.705882,1355.29412 L225.882353,1355.29412 L225.882353,1694.11765 L564.705882,1694.11765 L564.705882,1355.29412 Z M564.705882,790.588235 L225.882353,790.588235 L225.882353,1129.41176 L564.705882,1129.41176 L564.705882,790.588235 Z M1129.41176,225.882353 L790.588235,225.882353 L790.588235,564.705882 L1129.41176,564.705882 L1129.41176,225.882353 Z M564.705882,225.882353 L225.882353,225.882353 L225.882353,564.705882 L564.705882,564.705882 L564.705882,225.882353 Z M1694.11765,225.882353 L1355.29412,225.882353 L1355.29412,564.705882 L1694.11765,564.705882 L1694.11765,225.882353 Z M1442.17829,849 L1238.9536,1052.22468 L1035.91451,849 L839,1045.82171 L1042.22468,1249.0464 L839,1452.17829 L1035.91451,1649 L1238.9536,1445.77532 L1442.17829,1649 L1639,1452.17829 L1435.86811,1249.0464 L1639,1045.82171 L1442.17829,849 Z" stroke="none" stroke-width="1" fill-rule="evenodd"/>
</svg>
