<svg viewBox="0 0 1920 1920" version="1.1" xmlns="http://www.w3.org/2000/svg">
    <path d="M1920 1694.118c0 124.574-101.308 225.882-225.882 225.882H225.882C101.422 1920 0 1818.692 0 1694.118V225.882C0 101.308 101.421 0 225.882 0h1468.236C1818.692 0 1920 101.308 1920 225.882v1468.236zM225.882 790.588v903.53h1468.236v-903.53H225.882zm1129.412-564.706v338.824h338.824V225.882h-338.824zm-564.706 0v338.824h338.824V225.882H790.588zm-564.706 0v338.824h338.824V225.882H225.882zm338.824 887.492H831.02V847.06h257.958v266.315h266.315v258.07H1088.98v266.203H831.02v-266.202H564.706v-258.07z" stroke="none" stroke-width="1" fill-rule="evenodd"/>
</svg>
