<svg viewBox="0 0 1920 1920" version="1.1" xmlns="http://www.w3.org/2000/svg">
    <path d="M1694.118 0C1818.692 0 1920 101.308 1920 225.882v1468.236c0 124.574-101.308 225.882-225.882 225.882H225.882C101.308 1920 0 1818.692 0 1694.118V225.882C0 101.308 101.308 0 225.882 0h1468.236zm-338.824 1694.118h339.05v-338.824h-339.05v338.824zM790.588 564.706h338.824V225.882H790.588v338.824zm0 1129.412h338.824v-338.824H790.588v338.824zM225.882 564.706h338.824V225.882H225.882v338.824zm0 1129.412h338.824v-338.824H225.882v338.824zM1355.294 564.706h338.824V225.882h-338.824v338.824z" stroke="none" stroke-width="1" fill-rule="evenodd"/>
</svg>
