<svg viewBox="0 0 1920 1920" version="1.1" xmlns="http://www.w3.org/2000/svg">
    <path d="M1694.232 1694.064h-338.88v-194.04h-225.96v194.04h-338.76v-194.04h-225.96v194.04h-338.76V225.984h338.76v199.8h225.96v-199.8h338.76v199.8h225.96v-199.8h338.88v1468.08zm-.12-1694.04h-1468.2C101.352.024.072 101.304.072 225.984v1468.08c0 124.68 101.28 225.96 225.84 225.96h1468.2c124.56 0 225.96-101.28 225.96-225.96V225.984c0-124.68-101.4-225.96-225.96-225.96zM1201.344 484.92l-241.32 241.32-241.2-241.32-233.88 233.76L726.264 960l-241.32 241.32 233.88 233.76 241.2-241.32 241.32 241.32 233.64-233.76-241.2-241.32 241.2-241.32-233.64-233.76z" stroke="none" stroke-width="1" fill-rule="evenodd"/>
</svg>
