<svg viewBox="0 0 1920 1920" version="1.1" xmlns="http://www.w3.org/2000/svg">
    <path d="M1694.118 0C1818.692 0 1920 101.308 1920 225.882v1468.236c0 124.46-101.308 225.882-225.882 225.882H225.882C101.308 1920 0 1818.579 0 1694.118V225.882C0 101.308 101.308 0 225.882 0h1468.236zm-903.53 1694.118h903.53V225.882h-903.53v1468.236zM225.882 564.706h338.824V225.882H225.882v338.824zm0 564.706h338.824V790.588H225.882v338.824zm0 564.706h338.824v-338.824H225.882v338.824zm887.492-338.824V1088.98H847.06V831.02h266.315V564.706h258.07V831.02h266.203v257.958h-266.202v266.315h-258.07z" stroke="none" stroke-width="1" fill-rule="evenodd"/>
</svg>
