<svg viewBox="0 0 1920 1920" version="1.1" xmlns="http://www.w3.org/2000/svg">
    <path d="M1694.34353,1355.29412 L1694.34353,1694.11765 L1355.29412,1694.11765 L1355.29412,1355.29412 L1694.34353,1355.29412 Z M1129.41176,1355.29412 L1129.41176,1694.11765 L790.588235,1694.11765 L790.588235,1355.29412 L1129.41176,1355.29412 Z M564.705882,1355.29412 L564.705882,1694.11765 L225.882353,1694.11765 L225.882353,1355.29412 L564.705882,1355.29412 Z M1129.41176,790.588235 L1129.41176,1129.41176 L790.588235,1129.41176 L790.588235,790.588235 L1129.41176,790.588235 Z M564.705882,790.588235 L564.705882,1129.41176 L225.882353,1129.41176 L225.882353,790.588235 L564.705882,790.588235 Z M1694.23059,790.588235 L1694.23059,1129.41176 L1355.29412,1129.41176 L1355.29412,790.588235 L1694.23059,790.588235 Z M1129.41176,225.882353 L1129.41176,564.705882 L790.588235,564.705882 L790.588235,225.882353 L1129.41176,225.882353 Z M564.705882,225.882353 L564.705882,564.705882 L225.882353,564.705882 L225.882353,225.882353 L564.705882,225.882353 Z M1694.11765,225.882353 L1694.11765,564.705882 L1355.29412,564.705882 L1355.29412,225.882353 L1694.11765,225.882353 Z M1694.11765,5.04870979e-29 L225.882353,5.04870979e-29 C101.308235,5.04870979e-29 0,101.308235 0,225.882353 L0,1694.11765 C0,1818.69176 101.308235,1920 225.882353,1920 L1694.11765,1920 C1818.69176,1920 1920,1818.69176 1920,1694.11765 L1920,225.882353 C1920,101.308235 1818.69176,5.04870979e-29 1694.11765,5.04870979e-29 L1694.11765,5.04870979e-29 Z" stroke="none" stroke-width="1" fill-rule="evenodd"/>
</svg>
