<svg viewBox="0 0 1920 1920" version="1.1" xmlns="http://www.w3.org/2000/svg">
    <path d="M1694.11765,0 C1818.69176,0 1920,101.308235 1920,225.882353 L1920,1694.11765 C1920,1818.69176 1818.69176,1920 1694.11765,1920 L225.882353,1920 C101.308235,1920 0,1818.69176 0,1694.11765 L0,225.882353 C0,101.308235 101.308235,0 225.882353,0 L1694.11765,0 Z M1355.29412,1694.11765 L1694.34353,1694.11765 L1694.34353,1355.29412 L1355.29412,1355.29412 L1355.29412,1694.11765 Z M790.588235,1129.41176 L1129.41176,1129.41176 L1129.41176,790.588235 L790.588235,790.588235 L790.588235,1129.41176 Z M790.588235,1694.11765 L1129.41176,1694.11765 L1129.41176,1355.29412 L790.588235,1355.29412 L790.588235,1694.11765 Z M225.882353,1129.41176 L564.705882,1129.41176 L564.705882,790.588235 L225.882353,790.588235 L225.882353,1129.41176 Z M225.882353,1694.11765 L564.705882,1694.11765 L564.705882,1355.29412 L225.882353,1355.29412 L225.882353,1694.11765 Z M1355.29412,1129.41176 L1694.23059,1129.41176 L1694.23059,790.588235 L1355.29412,790.588235 L1355.29412,1129.41176 Z" stroke="none" stroke-width="1" fill-rule="evenodd"/>
</svg>
