<svg viewBox="0 0 1920 1920" version="1.1" xmlns="http://www.w3.org/2000/svg">
    <path d="M1129.412 225.882h-903.53v1468.236h903.53V225.882zm564.706 1129.412h-338.824v338.824h338.824v-338.824zm0-564.706h-338.824v338.824h338.824V790.588zm0-564.706h-338.824v338.824h338.824V225.882zM225.882 1920C101.308 1920 0 1818.692 0 1694.118V225.882C0 101.422 101.308 0 225.882 0h1468.236C1818.692 0 1920 101.421 1920 225.882v1468.236c0 124.574-101.308 225.882-225.882 225.882H225.882zM806.626 564.706V831.02h266.315v257.958H806.626v266.315h-258.07V1088.98H282.352V831.02h266.202V564.706h258.07z" stroke="none" stroke-width="1" fill-rule="evenodd"/>
</svg>
