<svg viewBox="0 0 1920 1920" version="1.1" xmlns="http://www.w3.org/2000/svg">
    <path d="M225.936 1694.232v-338.88h194.04v-225.96h-194.04v-338.76h194.04v-225.96h-194.04v-338.76h1468.08v338.76h-199.8v225.96h199.8v338.76h-199.8v225.96h199.8v338.88H225.936zm1694.04-.12v-1468.2c0-124.56-101.28-225.84-225.96-225.84H225.936c-124.68 0-225.96 101.28-225.96 225.84v1468.2c0 124.56 101.28 225.96 225.96 225.96h1468.08c124.68 0 225.96-101.4 225.96-225.96zm-1201.46-258.94l241.32-241.32 241.2 241.32 233.88-233.76-241.32-241.32 241.32-241.32-233.88-233.76-241.2 241.32-241.32-241.32-233.64 233.76 241.2 241.32-241.2 241.32 233.64 233.76z" stroke="none" stroke-width="1" fill-rule="evenodd"/>
</svg>
