<svg viewBox="0 0 1920 1920" version="1.1" xmlns="http://www.w3.org/2000/svg">
    <path d="M1694.118 0C1818.692 0 1920 101.308 1920 225.882v1468.236c0 124.574-101.308 225.882-225.882 225.882H225.882C101.308 1920 0 1818.692 0 1694.118V225.882C0 101.308 101.308 0 225.882 0h1468.236zm-903.53 564.706h338.824V225.882H790.588v338.824zm-564.706 0h338.824V225.882H225.882v338.824zm0 564.706h338.824V790.588H225.882v338.824zm0 564.706h338.824v-338.824H225.882v338.824zm564.349.47h904v-904h-904v904zm565.063-1129.882h338.824V225.882h-338.824v338.824z" stroke="none" stroke-width="1" fill-rule="evenodd"/>
</svg>
