<svg viewBox="0 0 1920 1920" version="1.1" xmlns="http://www.w3.org/2000/svg">
    <path d="M1694.11765,1129.41176 L1694.11765,225.882353 L225.882353,225.882353 L225.882353,1129.41176 L1694.11765,1129.41176 Z M564.705882,1694.11765 L564.705882,1355.29412 L225.882353,1355.29412 L225.882353,1694.11765 L564.705882,1694.11765 Z M1129.41176,1694.11765 L1129.41176,1355.29412 L790.588235,1355.29412 L790.588235,1694.11765 L1129.41176,1694.11765 Z M1694.11765,1694.11765 L1694.11765,1355.29412 L1355.29412,1355.29412 L1355.29412,1694.11765 L1694.11765,1694.11765 Z M-9.98555327e-14,225.882353 C-9.98555327e-14,101.308235 101.308235,0 225.882353,0 L1694.11765,0 C1818.57882,0 1920,101.308235 1920,225.882353 L1920,1694.11765 C1920,1818.69176 1818.57882,1920 1694.11765,1920 L225.882353,1920 C101.308235,1920 -9.98555327e-14,1818.69176 -9.98555327e-14,1694.11765 L-9.98555327e-14,225.882353 Z M1355.29412,806.625882 L1088.97882,806.625882 L1088.97882,1072.94118 L831.021176,1072.94118 L831.021176,806.625882 L564.705882,806.625882 L564.705882,548.555294 L831.021176,548.555294 L831.021176,282.352941 L1088.97882,282.352941 L1088.97882,548.555294 L1355.29412,548.555294 L1355.29412,806.625882 Z" stroke="none" stroke-width="1" fill-rule="evenodd"/>
</svg>
