<svg viewBox="0 0 1920 1920" version="1.1" xmlns="http://www.w3.org/2000/svg">
    <path d="M1694.118 1129.412v-903.53H225.882v903.53h1468.236zM564.706 1694.118v-338.824H225.882v338.824h338.824zm564.706 0v-338.824H790.588v338.824h338.824zm564.706 0v-338.824h-338.824v338.824h338.824zM0 225.882C0 101.308 101.308 0 225.882 0h1468.236C1818.578 0 1920 101.308 1920 225.882v1468.236c0 124.574-101.421 225.882-225.882 225.882H225.882C101.308 1920 0 1818.692 0 1694.118V225.882zm1355.294 580.744H1088.98v266.315H831.02V806.626H564.706v-258.07H831.02V282.352h257.958v266.202h266.315v258.07z" stroke="none" stroke-width="1" fill-rule="evenodd"/>
</svg>
