<svg viewBox="0 0 1920 1920" version="1.1" xmlns="http://www.w3.org/2000/svg">
    <path d="M0 142h1094v273.455H683.75V1646h-273.5V415.455H0V142zm1680.093 1353.502c-47.953 47.987-104.65 101.305-158.75 151.07h255.75V1920h-546.475c-75.55 0-136.618-61.111-136.618-136.714v-59.744c0-39.648 17.214-77.244 46.997-103.22 2.049-1.914 214.354-186.478 345.918-318.134 9.973-9.98 25.82-28.71 20.22-42.245-4.646-11.347-20.22-23.514-37.434-23.514-50.003 0-109.568 55.916-130.334 82.985l-218.043-164.877C1136.078 1134.85 1270.51 963 1469.7 963c125.825 0 242.224 77.38 289.904 192.357 47.817 115.25 18.034 242.531-79.512 340.145z" stroke="none" stroke-width="1" fill-rule="evenodd"/>
</svg>
