<svg viewBox="0 0 1920 1920" version="1.1" xmlns="http://www.w3.org/2000/svg">
    <path d="M0 415.471h1094.335v273.584H683.959v1231.127H410.376V689.055H0V415.471zm1817.964 122.333c-48.014 48.014-104.783 101.363-158.952 151.155h256.074v273.584H1367.92c-75.646 0-136.792-61.146-136.792-136.792v-59.778c0-39.67 17.236-77.287 47.056-103.278 2.052-1.915 214.627-186.584 346.357-318.314 9.986-9.986 25.854-28.727 20.245-42.27-4.65-11.353-20.245-23.527-37.48-23.527-50.066 0-109.708 55.948-130.5 83.032l-218.32-164.97C1273.26 176.946 1407.862 5 1607.305 5c125.985 0 242.531 77.424 290.272 192.466 47.877 115.316 18.056 242.669-79.613 340.338z" stroke="none" stroke-width="1" fill-rule="evenodd"/>
</svg>
