<svg viewBox="0 0 1920 1920" version="1.1" xmlns="http://www.w3.org/2000/svg">
    <path d="M767.232 644.107l159.699-159.699 475.03 475.144-475.03 475.144-159.699-159.812 202.504-202.39H.023V846.61h969.713L767.232 644.107zM1016.471 56C1514.654 56 1920 461.346 1920 959.53c0 498.183-405.346 903.529-903.53 903.529-273.204 0-528.338-121.412-699.896-333.29l175.51-142.08c128.528 158.57 319.737 249.487 524.387 249.487 373.722 0 677.647-303.924 677.647-677.647 0-373.722-303.925-677.647-677.647-677.647-204.65 0-395.86 90.918-524.386 249.487l-175.51-142.08C488.131 177.412 743.264 56 1016.47 56z" stroke="none" stroke-width="1" fill-rule="evenodd"/>
</svg>
