<svg viewBox="0 0 1920 1920" version="1.1" xmlns="http://www.w3.org/2000/svg">
    <path d="M533.333,560 L533.333,720 L240,720 L240.008,1173.33 L240.008,1173.33 L449.074,1386.67 L1470.93,1386.67 L1679.99,1173.33 L1680,720 L1386.67,720 L1386.67,560 L1738.67,560 C1794.63,560 1840,605.368 1840,661.333 L1840,661.333 L1840,1173.33 L1856,1173.33 C1891.35,1173.33 1920,1201.99 1920,1237.33 L1920,1856 C1920,1891.35 1891.35,1920 1856,1920 L64,1920 C28.6538,1920 0,1891.35 0,1856 L0,1237.33 C0,1201.99 28.6538,1173.33 64,1173.33 L80,1173.33 L80,661.333 C80,605.368 125.369,560 181.333,560 L533.333,560 Z M960,0 L1336.57,376.569 L1223.43,489.706 L1040,306.275 L1040,1173.33 L879.999,1173.33 L879.998,306.275 L696.568,489.706 L583.431,376.568 L960,0 Z" fill-rule="nonzero" stroke="none" stroke-width="1"/>
</svg>
