<svg viewBox="0 0 1920 1920" version="1.1" xmlns="http://www.w3.org/2000/svg">
    <path d="M867.453549,1518.04371 C508.653075,1518.04371 216.863387,1226.25402 216.863387,867.453549 C216.863387,508.653075 508.653075,216.863387 867.453549,216.863387 C1226.25402,216.863387 1518.04371,508.653075 1518.04371,867.453549 C1518.04371,1226.25402 1226.25402,1518.04371 867.453549,1518.04371 L867.453549,1518.04371 Z M1920,1766.67759 L1551.8744,1398.44355 C1666.16141,1251.62704 1734.9071,1067.61846 1734.9071,867.453549 C1734.9071,389.161349 1345.74575,0 867.453549,0 C389.161349,0 0,389.161349 0,867.453549 C0,1345.74575 389.161349,1734.9071 867.453549,1734.9071 C1067.61846,1734.9071 1251.51861,1666.05297 1398.44355,1551.8744 L1766.67759,1920 L1920,1766.67759 Z M487.942622,975.885243 L1246.96448,975.885243 L1246.96448,759.021856 L487.942622,759.021856 L487.942622,975.885243 Z" stroke="none" stroke-width="1" fill-rule="evenodd"/>
</svg>
