<svg viewBox="0 0 1920 1920" xmlns="http://www.w3.org/2000/svg">
    <path d="M1801.441 0v1920H219.03v-439.216h-56.514c-31.196 0-56.515-25.299-56.515-56.47 0-31.172 25.319-56.47 56.515-56.47h56.514V1029.02h-56.514c-31.196 0-56.515-25.3-56.515-56.471 0-31.172 25.319-56.47 56.515-56.47h56.514V577.254h-56.514c-31.196 0-56.515-25.299-56.515-56.47 0-31.172 25.319-56.471 56.515-56.471h56.514V0h1582.412Zm-521.714 1389.706H640.288v112.94h639.439v-112.94Zm109.172-214.83H640.288v112.94h748.611v-112.94Zm-109.172-534.845H640.288v112.94h639.439v-112.94Zm109.172-214.83H640.288v112.94h748.611v-112.94Z" fill-rule="evenodd"/>
</svg>
